<?xml version="1.0" encoding="UTF-8" standalone="no"?>
<!DOCTYPE svg PUBLIC "-//W3C//DTD SVG 1.1//EN"
 "http://www.w3.org/Graphics/SVG/1.1/DTD/svg11.dtd">
<!-- Generated by graphviz version 2.38.0 (20140413.2041)
 -->
<!-- Title: Engine/include/Game.h Pages: 1 -->
<svg width="373pt" height="252pt"
 viewBox="0.00 0.00 372.50 252.00" xmlns="http://www.w3.org/2000/svg" xmlns:xlink="http://www.w3.org/1999/xlink">
<g id="graph0" class="graph" transform="scale(1 1) rotate(0) translate(4 248)">
<title>Engine/include/Game.h</title>
<polygon fill="white" stroke="none" points="-4,4 -4,-248 368.5,-248 368.5,4 -4,4"/>
<!-- Node1 -->
<g id="node1" class="node"><title>Node1</title>
<polygon fill="#bfbfbf" stroke="black" points="106.5,-224.5 106.5,-243.5 224.5,-243.5 224.5,-224.5 106.5,-224.5"/>
<text text-anchor="middle" x="165.5" y="-231.5" font-family="Helvetica,sans-Serif" font-size="10.00">Engine/include/Game.h</text>
</g>
<!-- Node2 -->
<g id="node2" class="node"><title>Node2</title>
<polygon fill="white" stroke="#bfbfbf" points="0,-56.5 0,-75.5 41,-75.5 41,-56.5 0,-56.5"/>
<text text-anchor="middle" x="20.5" y="-63.5" font-family="Helvetica,sans-Serif" font-size="10.00">string</text>
</g>
<!-- Node1&#45;&gt;Node2 -->
<g id="edge1" class="edge"><title>Node1&#45;&gt;Node2</title>
<path fill="none" stroke="midnightblue" d="M134.219,-224.488C94.9228,-211.83 29.7058,-183.779 5.5,-132 -1.53501,-116.951 4.02254,-98.3602 10.2699,-84.9207"/>
<polygon fill="midnightblue" stroke="midnightblue" points="13.5057,-86.2827 14.9847,-75.7916 7.28614,-83.0706 13.5057,-86.2827"/>
</g>
<!-- Node3 -->
<g id="node3" class="node"><title>Node3</title>
<polygon fill="white" stroke="#bfbfbf" points="82,-168.5 82,-187.5 123,-187.5 123,-168.5 82,-168.5"/>
<text text-anchor="middle" x="102.5" y="-175.5" font-family="Helvetica,sans-Serif" font-size="10.00">stack</text>
</g>
<!-- Node1&#45;&gt;Node3 -->
<g id="edge2" class="edge"><title>Node1&#45;&gt;Node3</title>
<path fill="none" stroke="midnightblue" d="M155.378,-224.324C145.974,-216.263 131.756,-204.077 120.431,-194.369"/>
<polygon fill="midnightblue" stroke="midnightblue" points="122.677,-191.684 112.806,-187.834 118.121,-196.999 122.677,-191.684"/>
</g>
<!-- Node4 -->
<g id="node4" class="node"><title>Node4</title>
<g id="a_node4"><a xlink:href="State_8h.html" target="_top" xlink:title="State.h">
<polygon fill="white" stroke="black" points="141.5,-168.5 141.5,-187.5 189.5,-187.5 189.5,-168.5 141.5,-168.5"/>
<text text-anchor="middle" x="165.5" y="-175.5" font-family="Helvetica,sans-Serif" font-size="10.00">State.h</text>
</a>
</g>
</g>
<!-- Node1&#45;&gt;Node4 -->
<g id="edge3" class="edge"><title>Node1&#45;&gt;Node4</title>
<path fill="none" stroke="midnightblue" d="M165.5,-224.083C165.5,-217.006 165.5,-206.861 165.5,-197.986"/>
<polygon fill="midnightblue" stroke="midnightblue" points="169,-197.751 165.5,-187.751 162,-197.751 169,-197.751"/>
</g>
<!-- Node7 -->
<g id="node7" class="node"><title>Node7</title>
<g id="a_node7"><a xlink:href="Vec2_8h.html" target="_top" xlink:title="Vec2.h">
<polygon fill="white" stroke="black" points="229,-0.5 229,-19.5 276,-19.5 276,-0.5 229,-0.5"/>
<text text-anchor="middle" x="252.5" y="-7.5" font-family="Helvetica,sans-Serif" font-size="10.00">Vec2.h</text>
</a>
</g>
</g>
<!-- Node1&#45;&gt;Node7 -->
<g id="edge13" class="edge"><title>Node1&#45;&gt;Node7</title>
<path fill="none" stroke="midnightblue" d="M172.272,-224.175C179.087,-215.202 189.803,-200.831 198.5,-188 214.967,-163.705 223.238,-159.498 233.5,-132 246.406,-97.4161 250.546,-54.0967 251.873,-29.7912"/>
<polygon fill="midnightblue" stroke="midnightblue" points="255.383,-29.6525 252.325,-19.5084 248.389,-29.3451 255.383,-29.6525"/>
</g>
<!-- Node11 -->
<g id="node11" class="node"><title>Node11</title>
<g id="a_node11"><a xlink:href="InputManager_8h.html" target="_top" xlink:title="InputManager.h">
<polygon fill="white" stroke="black" points="280.5,-56.5 280.5,-75.5 364.5,-75.5 364.5,-56.5 280.5,-56.5"/>
<text text-anchor="middle" x="322.5" y="-63.5" font-family="Helvetica,sans-Serif" font-size="10.00">InputManager.h</text>
</a>
</g>
</g>
<!-- Node1&#45;&gt;Node11 -->
<g id="edge11" class="edge"><title>Node1&#45;&gt;Node11</title>
<path fill="none" stroke="midnightblue" d="M199.971,-224.385C221.367,-217.541 248.181,-206.058 266.5,-188 295.937,-158.981 311.555,-111.57 318.309,-85.5463"/>
<polygon fill="midnightblue" stroke="midnightblue" points="321.784,-86.0704 320.742,-75.527 314.981,-84.419 321.784,-86.0704"/>
</g>
<!-- Node5 -->
<g id="node5" class="node"><title>Node5</title>
<g id="a_node5"><a xlink:href="Gameobject_8h.html" target="_top" xlink:title="Gameobject.h">
<polygon fill="white" stroke="black" points="15,-112.5 15,-131.5 92,-131.5 92,-112.5 15,-112.5"/>
<text text-anchor="middle" x="53.5" y="-119.5" font-family="Helvetica,sans-Serif" font-size="10.00">Gameobject.h</text>
</a>
</g>
</g>
<!-- Node4&#45;&gt;Node5 -->
<g id="edge4" class="edge"><title>Node4&#45;&gt;Node5</title>
<path fill="none" stroke="midnightblue" d="M147.505,-168.324C129.462,-159.625 101.453,-146.12 80.6973,-136.113"/>
<polygon fill="midnightblue" stroke="midnightblue" points="81.9778,-132.845 71.4501,-131.655 78.9377,-139.15 81.9778,-132.845"/>
</g>
<!-- Node9 -->
<g id="node9" class="node"><title>Node9</title>
<polygon fill="white" stroke="#bfbfbf" points="110.5,-112.5 110.5,-131.5 154.5,-131.5 154.5,-112.5 110.5,-112.5"/>
<text text-anchor="middle" x="132.5" y="-119.5" font-family="Helvetica,sans-Serif" font-size="10.00">vector</text>
</g>
<!-- Node4&#45;&gt;Node9 -->
<g id="edge9" class="edge"><title>Node4&#45;&gt;Node9</title>
<path fill="none" stroke="midnightblue" d="M160.051,-168.083C155.486,-160.613 148.832,-149.724 143.207,-140.52"/>
<polygon fill="midnightblue" stroke="midnightblue" points="146.049,-138.459 137.848,-131.751 140.076,-142.109 146.049,-138.459"/>
</g>
<!-- Node10 -->
<g id="node10" class="node"><title>Node10</title>
<polygon fill="white" stroke="#bfbfbf" points="172.5,-112.5 172.5,-131.5 224.5,-131.5 224.5,-112.5 172.5,-112.5"/>
<text text-anchor="middle" x="198.5" y="-119.5" font-family="Helvetica,sans-Serif" font-size="10.00">memory</text>
</g>
<!-- Node4&#45;&gt;Node10 -->
<g id="edge10" class="edge"><title>Node4&#45;&gt;Node10</title>
<path fill="none" stroke="midnightblue" d="M170.949,-168.083C175.514,-160.613 182.168,-149.724 187.793,-140.52"/>
<polygon fill="midnightblue" stroke="midnightblue" points="190.924,-142.109 193.152,-131.751 184.951,-138.459 190.924,-142.109"/>
</g>
<!-- Node5&#45;&gt;Node2 -->
<g id="edge8" class="edge"><title>Node5&#45;&gt;Node2</title>
<path fill="none" stroke="midnightblue" d="M48.0507,-112.083C43.4855,-104.613 36.8316,-93.7244 31.2066,-84.5199"/>
<polygon fill="midnightblue" stroke="midnightblue" points="34.0489,-82.4588 25.8479,-75.7511 28.0759,-86.109 34.0489,-82.4588"/>
</g>
<!-- Node6 -->
<g id="node6" class="node"><title>Node6</title>
<g id="a_node6"><a xlink:href="Rect_8h.html" target="_top" xlink:title="Rect.h">
<polygon fill="white" stroke="black" points="112.5,-56.5 112.5,-75.5 158.5,-75.5 158.5,-56.5 112.5,-56.5"/>
<text text-anchor="middle" x="135.5" y="-63.5" font-family="Helvetica,sans-Serif" font-size="10.00">Rect.h</text>
</a>
</g>
</g>
<!-- Node5&#45;&gt;Node6 -->
<g id="edge5" class="edge"><title>Node5&#45;&gt;Node6</title>
<path fill="none" stroke="midnightblue" d="M66.6747,-112.324C79.3468,-103.979 98.7334,-91.2122 113.706,-81.3524"/>
<polygon fill="midnightblue" stroke="midnightblue" points="115.931,-84.0776 122.358,-75.6545 112.081,-78.2313 115.931,-84.0776"/>
</g>
<!-- Node6&#45;&gt;Node7 -->
<g id="edge6" class="edge"><title>Node6&#45;&gt;Node7</title>
<path fill="none" stroke="midnightblue" d="M154.039,-56.4435C173.123,-47.6356 203.075,-33.8116 224.936,-23.722"/>
<polygon fill="midnightblue" stroke="midnightblue" points="226.435,-26.8849 234.048,-19.5164 223.501,-20.5292 226.435,-26.8849"/>
</g>
<!-- Node8 -->
<g id="node8" class="node"><title>Node8</title>
<polygon fill="white" stroke="#bfbfbf" points="113.5,-0.5 113.5,-19.5 157.5,-19.5 157.5,-0.5 113.5,-0.5"/>
<text text-anchor="middle" x="135.5" y="-7.5" font-family="Helvetica,sans-Serif" font-size="10.00">cmath</text>
</g>
<!-- Node6&#45;&gt;Node8 -->
<g id="edge7" class="edge"><title>Node6&#45;&gt;Node8</title>
<path fill="none" stroke="midnightblue" d="M135.5,-56.083C135.5,-49.0059 135.5,-38.8611 135.5,-29.9865"/>
<polygon fill="midnightblue" stroke="midnightblue" points="139,-29.751 135.5,-19.7511 132,-29.7511 139,-29.751"/>
</g>
<!-- Node11&#45;&gt;Node7 -->
<g id="edge12" class="edge"><title>Node11&#45;&gt;Node7</title>
<path fill="none" stroke="midnightblue" d="M311.253,-56.324C300.703,-48.1849 284.699,-35.8395 272.058,-26.0874"/>
<polygon fill="midnightblue" stroke="midnightblue" points="274.007,-23.1707 263.951,-19.8339 269.731,-28.7132 274.007,-23.1707"/>
</g>
</g>
</svg>
