<?xml version="1.0" encoding="UTF-8" standalone="no"?>
<!DOCTYPE svg PUBLIC "-//W3C//DTD SVG 1.1//EN"
 "http://www.w3.org/Graphics/SVG/1.1/DTD/svg11.dtd">
<!-- Generated by graphviz version 2.38.0 (20140413.2041)
 -->
<!-- Title: Game/src/main.cpp Pages: 1 -->
<svg width="470pt" height="308pt"
 viewBox="0.00 0.00 469.58 308.00" xmlns="http://www.w3.org/2000/svg" xmlns:xlink="http://www.w3.org/1999/xlink">
<g id="graph0" class="graph" transform="scale(1 1) rotate(0) translate(4 304)">
<title>Game/src/main.cpp</title>
<polygon fill="white" stroke="none" points="-4,4 -4,-304 465.576,-304 465.576,4 -4,4"/>
<!-- Node1 -->
<g id="node1" class="node"><title>Node1</title>
<polygon fill="#bfbfbf" stroke="black" points="94.5759,-280.5 94.5759,-299.5 196.576,-299.5 196.576,-280.5 94.5759,-280.5"/>
<text text-anchor="middle" x="145.576" y="-287.5" font-family="Helvetica,sans-Serif" font-size="10.00">Game/src/main.cpp</text>
</g>
<!-- Node2 -->
<g id="node2" class="node"><title>Node2</title>
<polygon fill="white" stroke="#bfbfbf" points="39.5759,-224.5 39.5759,-243.5 93.5759,-243.5 93.5759,-224.5 39.5759,-224.5"/>
<text text-anchor="middle" x="66.5759" y="-231.5" font-family="Helvetica,sans-Serif" font-size="10.00">iostream</text>
</g>
<!-- Node1&#45;&gt;Node2 -->
<g id="edge1" class="edge"><title>Node1&#45;&gt;Node2</title>
<path fill="none" stroke="midnightblue" d="M132.883,-280.324C120.675,-271.979 101.997,-259.212 87.573,-249.352"/>
<polygon fill="midnightblue" stroke="midnightblue" points="89.4679,-246.408 79.2372,-243.655 85.5177,-252.187 89.4679,-246.408"/>
</g>
<!-- Node3 -->
<g id="node3" class="node"><title>Node3</title>
<g id="a_node3"><a xlink:href="Game_8h.html" target="_top" xlink:title="Game.h">
<polygon fill="white" stroke="black" points="256.076,-224.5 256.076,-243.5 307.076,-243.5 307.076,-224.5 256.076,-224.5"/>
<text text-anchor="middle" x="281.576" y="-231.5" font-family="Helvetica,sans-Serif" font-size="10.00">Game.h</text>
</a>
</g>
</g>
<!-- Node1&#45;&gt;Node3 -->
<g id="edge2" class="edge"><title>Node1&#45;&gt;Node3</title>
<path fill="none" stroke="midnightblue" d="M167.126,-280.444C189.607,-271.517 225.064,-257.439 250.556,-247.317"/>
<polygon fill="midnightblue" stroke="midnightblue" points="252.125,-250.46 260.127,-243.516 249.541,-243.954 252.125,-250.46"/>
</g>
<!-- Node14 -->
<g id="node14" class="node"><title>Node14</title>
<g id="a_node14"><a xlink:href="TitleState_8h.html" target="_top" xlink:title="TitleState.h">
<polygon fill="white" stroke="black" points="112.076,-224.5 112.076,-243.5 179.076,-243.5 179.076,-224.5 112.076,-224.5"/>
<text text-anchor="middle" x="145.576" y="-231.5" font-family="Helvetica,sans-Serif" font-size="10.00">TitleState.h</text>
</a>
</g>
</g>
<!-- Node1&#45;&gt;Node14 -->
<g id="edge16" class="edge"><title>Node1&#45;&gt;Node14</title>
<path fill="none" stroke="midnightblue" d="M145.576,-280.083C145.576,-273.006 145.576,-262.861 145.576,-253.986"/>
<polygon fill="midnightblue" stroke="midnightblue" points="149.076,-253.751 145.576,-243.751 142.076,-253.751 149.076,-253.751"/>
</g>
<!-- Node4 -->
<g id="node4" class="node"><title>Node4</title>
<polygon fill="white" stroke="#bfbfbf" points="164.076,-56.5 164.076,-75.5 205.076,-75.5 205.076,-56.5 164.076,-56.5"/>
<text text-anchor="middle" x="184.576" y="-63.5" font-family="Helvetica,sans-Serif" font-size="10.00">string</text>
</g>
<!-- Node3&#45;&gt;Node4 -->
<g id="edge3" class="edge"><title>Node3&#45;&gt;Node4</title>
<path fill="none" stroke="midnightblue" d="M279.491,-224.467C274.163,-203.795 258.6,-149.941 232.576,-112 224.78,-100.634 213.67,-89.9862 204.102,-81.9038"/>
<polygon fill="midnightblue" stroke="midnightblue" points="206.185,-79.0866 196.213,-75.5082 201.777,-84.5243 206.185,-79.0866"/>
</g>
<!-- Node5 -->
<g id="node5" class="node"><title>Node5</title>
<polygon fill="white" stroke="#bfbfbf" points="280.076,-168.5 280.076,-187.5 321.076,-187.5 321.076,-168.5 280.076,-168.5"/>
<text text-anchor="middle" x="300.576" y="-175.5" font-family="Helvetica,sans-Serif" font-size="10.00">stack</text>
</g>
<!-- Node3&#45;&gt;Node5 -->
<g id="edge4" class="edge"><title>Node3&#45;&gt;Node5</title>
<path fill="none" stroke="midnightblue" d="M284.713,-224.083C287.259,-216.849 290.932,-206.409 294.103,-197.397"/>
<polygon fill="midnightblue" stroke="midnightblue" points="297.479,-198.346 297.497,-187.751 290.876,-196.023 297.479,-198.346"/>
</g>
<!-- Node6 -->
<g id="node6" class="node"><title>Node6</title>
<g id="a_node6"><a xlink:href="State_8h.html" target="_top" xlink:title="State.h">
<polygon fill="white" stroke="black" points="121.576,-168.5 121.576,-187.5 169.576,-187.5 169.576,-168.5 121.576,-168.5"/>
<text text-anchor="middle" x="145.576" y="-175.5" font-family="Helvetica,sans-Serif" font-size="10.00">State.h</text>
</a>
</g>
</g>
<!-- Node3&#45;&gt;Node6 -->
<g id="edge5" class="edge"><title>Node3&#45;&gt;Node6</title>
<path fill="none" stroke="midnightblue" d="M260.026,-224.444C237.545,-215.517 202.088,-201.439 176.596,-191.317"/>
<polygon fill="midnightblue" stroke="midnightblue" points="177.611,-187.954 167.025,-187.516 175.027,-194.46 177.611,-187.954"/>
</g>
<!-- Node9 -->
<g id="node9" class="node"><title>Node9</title>
<g id="a_node9"><a xlink:href="Vec2_8h.html" target="_top" xlink:title="Vec2.h">
<polygon fill="white" stroke="black" points="326.076,-0.5 326.076,-19.5 373.076,-19.5 373.076,-0.5 326.076,-0.5"/>
<text text-anchor="middle" x="349.576" y="-7.5" font-family="Helvetica,sans-Serif" font-size="10.00">Vec2.h</text>
</a>
</g>
</g>
<!-- Node3&#45;&gt;Node9 -->
<g id="edge15" class="edge"><title>Node3&#45;&gt;Node9</title>
<path fill="none" stroke="midnightblue" d="M295.806,-224.199C307.288,-216.258 322.769,-203.467 330.576,-188 356.985,-135.677 354.694,-63.7436 351.731,-29.9666"/>
<polygon fill="midnightblue" stroke="midnightblue" points="355.183,-29.3056 350.701,-19.7052 348.218,-30.0047 355.183,-29.3056"/>
</g>
<!-- Node13 -->
<g id="node13" class="node"><title>Node13</title>
<g id="a_node13"><a xlink:href="InputManager_8h.html" target="_top" xlink:title="InputManager.h">
<polygon fill="white" stroke="black" points="377.576,-56.5 377.576,-75.5 461.576,-75.5 461.576,-56.5 377.576,-56.5"/>
<text text-anchor="middle" x="419.576" y="-63.5" font-family="Helvetica,sans-Serif" font-size="10.00">InputManager.h</text>
</a>
</g>
</g>
<!-- Node3&#45;&gt;Node13 -->
<g id="edge13" class="edge"><title>Node3&#45;&gt;Node13</title>
<path fill="none" stroke="midnightblue" d="M306.138,-224.358C323.998,-217.025 347.727,-204.972 363.576,-188 391.65,-157.936 407.732,-111.306 414.943,-85.5955"/>
<polygon fill="midnightblue" stroke="midnightblue" points="418.393,-86.24 417.572,-75.6771 411.627,-84.4466 418.393,-86.24"/>
</g>
<!-- Node7 -->
<g id="node7" class="node"><title>Node7</title>
<g id="a_node7"><a xlink:href="Gameobject_8h.html" target="_top" xlink:title="Gameobject.h">
<polygon fill="white" stroke="black" points="146.076,-112.5 146.076,-131.5 223.076,-131.5 223.076,-112.5 146.076,-112.5"/>
<text text-anchor="middle" x="184.576" y="-119.5" font-family="Helvetica,sans-Serif" font-size="10.00">Gameobject.h</text>
</a>
</g>
</g>
<!-- Node6&#45;&gt;Node7 -->
<g id="edge6" class="edge"><title>Node6&#45;&gt;Node7</title>
<path fill="none" stroke="midnightblue" d="M152.016,-168.083C157.525,-160.455 165.607,-149.264 172.341,-139.941"/>
<polygon fill="midnightblue" stroke="midnightblue" points="175.238,-141.907 178.256,-131.751 169.563,-137.809 175.238,-141.907"/>
</g>
<!-- Node11 -->
<g id="node11" class="node"><title>Node11</title>
<polygon fill="white" stroke="#bfbfbf" points="83.5759,-112.5 83.5759,-131.5 127.576,-131.5 127.576,-112.5 83.5759,-112.5"/>
<text text-anchor="middle" x="105.576" y="-119.5" font-family="Helvetica,sans-Serif" font-size="10.00">vector</text>
</g>
<!-- Node6&#45;&gt;Node11 -->
<g id="edge11" class="edge"><title>Node6&#45;&gt;Node11</title>
<path fill="none" stroke="midnightblue" d="M138.971,-168.083C133.321,-160.455 125.031,-149.264 118.125,-139.941"/>
<polygon fill="midnightblue" stroke="midnightblue" points="120.823,-137.703 112.058,-131.751 115.198,-141.87 120.823,-137.703"/>
</g>
<!-- Node12 -->
<g id="node12" class="node"><title>Node12</title>
<polygon fill="white" stroke="#bfbfbf" points="13.5759,-112.5 13.5759,-131.5 65.5759,-131.5 65.5759,-112.5 13.5759,-112.5"/>
<text text-anchor="middle" x="39.5759" y="-119.5" font-family="Helvetica,sans-Serif" font-size="10.00">memory</text>
</g>
<!-- Node6&#45;&gt;Node12 -->
<g id="edge12" class="edge"><title>Node6&#45;&gt;Node12</title>
<path fill="none" stroke="midnightblue" d="M128.545,-168.324C111.546,-159.664 85.1998,-146.242 65.5833,-136.249"/>
<polygon fill="midnightblue" stroke="midnightblue" points="67.0636,-133.075 56.5644,-131.655 63.8861,-139.312 67.0636,-133.075"/>
</g>
<!-- Node7&#45;&gt;Node4 -->
<g id="edge10" class="edge"><title>Node7&#45;&gt;Node4</title>
<path fill="none" stroke="midnightblue" d="M184.576,-112.083C184.576,-105.006 184.576,-94.8611 184.576,-85.9865"/>
<polygon fill="midnightblue" stroke="midnightblue" points="188.076,-85.751 184.576,-75.7511 181.076,-85.7511 188.076,-85.751"/>
</g>
<!-- Node8 -->
<g id="node8" class="node"><title>Node8</title>
<g id="a_node8"><a xlink:href="Rect_8h.html" target="_top" xlink:title="Rect.h">
<polygon fill="white" stroke="black" points="243.576,-56.5 243.576,-75.5 289.576,-75.5 289.576,-56.5 243.576,-56.5"/>
<text text-anchor="middle" x="266.576" y="-63.5" font-family="Helvetica,sans-Serif" font-size="10.00">Rect.h</text>
</a>
</g>
</g>
<!-- Node7&#45;&gt;Node8 -->
<g id="edge7" class="edge"><title>Node7&#45;&gt;Node8</title>
<path fill="none" stroke="midnightblue" d="M197.751,-112.324C210.423,-103.979 229.809,-91.2122 244.782,-81.3524"/>
<polygon fill="midnightblue" stroke="midnightblue" points="247.007,-84.0776 253.434,-75.6545 243.157,-78.2313 247.007,-84.0776"/>
</g>
<!-- Node8&#45;&gt;Node9 -->
<g id="edge8" class="edge"><title>Node8&#45;&gt;Node9</title>
<path fill="none" stroke="midnightblue" d="M279.911,-56.324C292.738,-47.979 312.361,-35.2122 327.516,-25.3524"/>
<polygon fill="midnightblue" stroke="midnightblue" points="329.8,-28.0417 336.274,-19.6545 325.983,-22.1742 329.8,-28.0417"/>
</g>
<!-- Node10 -->
<g id="node10" class="node"><title>Node10</title>
<polygon fill="white" stroke="#bfbfbf" points="244.576,-0.5 244.576,-19.5 288.576,-19.5 288.576,-0.5 244.576,-0.5"/>
<text text-anchor="middle" x="266.576" y="-7.5" font-family="Helvetica,sans-Serif" font-size="10.00">cmath</text>
</g>
<!-- Node8&#45;&gt;Node10 -->
<g id="edge9" class="edge"><title>Node8&#45;&gt;Node10</title>
<path fill="none" stroke="midnightblue" d="M266.576,-56.083C266.576,-49.0059 266.576,-38.8611 266.576,-29.9865"/>
<polygon fill="midnightblue" stroke="midnightblue" points="270.076,-29.751 266.576,-19.7511 263.076,-29.7511 270.076,-29.751"/>
</g>
<!-- Node13&#45;&gt;Node9 -->
<g id="edge14" class="edge"><title>Node13&#45;&gt;Node9</title>
<path fill="none" stroke="midnightblue" d="M408.329,-56.324C397.779,-48.1849 381.775,-35.8395 369.134,-26.0874"/>
<polygon fill="midnightblue" stroke="midnightblue" points="371.083,-23.1707 361.027,-19.8339 366.807,-28.7132 371.083,-23.1707"/>
</g>
<!-- Node14&#45;&gt;Node6 -->
<g id="edge17" class="edge"><title>Node14&#45;&gt;Node6</title>
<path fill="none" stroke="midnightblue" d="M145.576,-224.083C145.576,-217.006 145.576,-206.861 145.576,-197.986"/>
<polygon fill="midnightblue" stroke="midnightblue" points="149.076,-197.751 145.576,-187.751 142.076,-197.751 149.076,-197.751"/>
</g>
<!-- Node15 -->
<g id="node15" class="node"><title>Node15</title>
<g id="a_node15"><a xlink:href="Sprite_8h.html" target="_top" xlink:title="Sprite.h">
<polygon fill="white" stroke="black" points="14.5759,-168.5 14.5759,-187.5 64.5759,-187.5 64.5759,-168.5 14.5759,-168.5"/>
<text text-anchor="middle" x="39.5759" y="-175.5" font-family="Helvetica,sans-Serif" font-size="10.00">Sprite.h</text>
</a>
</g>
</g>
<!-- Node14&#45;&gt;Node15 -->
<g id="edge18" class="edge"><title>Node14&#45;&gt;Node15</title>
<path fill="none" stroke="midnightblue" d="M128.545,-224.324C111.546,-215.664 85.1998,-202.242 65.5833,-192.249"/>
<polygon fill="midnightblue" stroke="midnightblue" points="67.0636,-189.075 56.5644,-187.655 63.8861,-195.312 67.0636,-189.075"/>
</g>
<!-- Node15&#45;&gt;Node4 -->
<g id="edge19" class="edge"><title>Node15&#45;&gt;Node4</title>
<path fill="none" stroke="midnightblue" d="M28.8947,-168.455C13.9669,-155.482 -9.77939,-130.386 4.57594,-112 22.783,-88.6808 107.538,-75.6576 153.964,-70.1611"/>
<polygon fill="midnightblue" stroke="midnightblue" points="154.526,-73.6199 164.066,-69.0123 153.735,-66.6647 154.526,-73.6199"/>
</g>
<!-- Node15&#45;&gt;Node12 -->
<g id="edge20" class="edge"><title>Node15&#45;&gt;Node12</title>
<path fill="none" stroke="midnightblue" d="M39.5759,-168.083C39.5759,-161.006 39.5759,-150.861 39.5759,-141.986"/>
<polygon fill="midnightblue" stroke="midnightblue" points="43.076,-141.751 39.5759,-131.751 36.076,-141.751 43.076,-141.751"/>
</g>
</g>
</svg>
