<?xml version="1.0" encoding="UTF-8" standalone="no"?>
<!DOCTYPE svg PUBLIC "-//W3C//DTD SVG 1.1//EN"
 "http://www.w3.org/Graphics/SVG/1.1/DTD/svg11.dtd">
<!-- Generated by graphviz version 2.38.0 (20140413.2041)
 -->
<!-- Title: Engine/include/Tileset.h Pages: 1 -->
<svg width="134pt" height="140pt"
 viewBox="0.00 0.00 133.50 140.00" xmlns="http://www.w3.org/2000/svg" xmlns:xlink="http://www.w3.org/1999/xlink">
<g id="graph0" class="graph" transform="scale(1 1) rotate(0) translate(4 136)">
<title>Engine/include/Tileset.h</title>
<polygon fill="white" stroke="none" points="-4,4 -4,-136 129.5,-136 129.5,4 -4,4"/>
<!-- Node1 -->
<g id="node1" class="node"><title>Node1</title>
<polygon fill="#bfbfbf" stroke="black" points="0,-112.5 0,-131.5 121,-131.5 121,-112.5 0,-112.5"/>
<text text-anchor="middle" x="60.5" y="-119.5" font-family="Helvetica,sans-Serif" font-size="10.00">Engine/include/Tileset.h</text>
</g>
<!-- Node2 -->
<g id="node2" class="node"><title>Node2</title>
<polygon fill="white" stroke="#bfbfbf" points="14,-0.5 14,-19.5 55,-19.5 55,-0.5 14,-0.5"/>
<text text-anchor="middle" x="34.5" y="-7.5" font-family="Helvetica,sans-Serif" font-size="10.00">string</text>
</g>
<!-- Node1&#45;&gt;Node2 -->
<g id="edge1" class="edge"><title>Node1&#45;&gt;Node2</title>
<path fill="none" stroke="midnightblue" d="M58.4598,-112.368C54.264,-94.617 44.5848,-53.6664 38.8958,-29.5974"/>
<polygon fill="midnightblue" stroke="midnightblue" points="42.2372,-28.5182 36.5307,-19.5914 35.4249,-30.1284 42.2372,-28.5182"/>
</g>
<!-- Node3 -->
<g id="node3" class="node"><title>Node3</title>
<g id="a_node3"><a xlink:href="Sprite_8h.html" target="_top" xlink:title="Sprite.h">
<polygon fill="white" stroke="black" points="62.5,-56.5 62.5,-75.5 112.5,-75.5 112.5,-56.5 62.5,-56.5"/>
<text text-anchor="middle" x="87.5" y="-63.5" font-family="Helvetica,sans-Serif" font-size="10.00">Sprite.h</text>
</a>
</g>
</g>
<!-- Node1&#45;&gt;Node3 -->
<g id="edge2" class="edge"><title>Node1&#45;&gt;Node3</title>
<path fill="none" stroke="midnightblue" d="M64.9585,-112.083C68.6543,-104.691 74.0234,-93.9533 78.5945,-84.8111"/>
<polygon fill="midnightblue" stroke="midnightblue" points="81.7828,-86.2606 83.1245,-75.7511 75.5218,-83.1301 81.7828,-86.2606"/>
</g>
<!-- Node3&#45;&gt;Node2 -->
<g id="edge3" class="edge"><title>Node3&#45;&gt;Node2</title>
<path fill="none" stroke="midnightblue" d="M78.7481,-56.083C71.0303,-48.2195 59.5953,-36.5688 50.2835,-27.0813"/>
<polygon fill="midnightblue" stroke="midnightblue" points="52.5916,-24.4363 43.089,-19.7511 47.5958,-29.3396 52.5916,-24.4363"/>
</g>
<!-- Node4 -->
<g id="node4" class="node"><title>Node4</title>
<polygon fill="white" stroke="#bfbfbf" points="73.5,-0.5 73.5,-19.5 125.5,-19.5 125.5,-0.5 73.5,-0.5"/>
<text text-anchor="middle" x="99.5" y="-7.5" font-family="Helvetica,sans-Serif" font-size="10.00">memory</text>
</g>
<!-- Node3&#45;&gt;Node4 -->
<g id="edge4" class="edge"><title>Node3&#45;&gt;Node4</title>
<path fill="none" stroke="midnightblue" d="M89.4816,-56.083C91.0717,-48.9272 93.3588,-38.6353 95.3464,-29.6911"/>
<polygon fill="midnightblue" stroke="midnightblue" points="98.8026,-30.2722 97.5553,-19.7511 91.9693,-28.7537 98.8026,-30.2722"/>
</g>
</g>
</svg>
