<?xml version="1.0" encoding="UTF-8" standalone="no"?>
<!DOCTYPE svg PUBLIC "-//W3C//DTD SVG 1.1//EN"
 "http://www.w3.org/Graphics/SVG/1.1/DTD/svg11.dtd">
<!-- Generated by graphviz version 2.38.0 (20140413.2041)
 -->
<!-- Title: Engine/include/Tileset.h Pages: 1 -->
<svg width="494pt" height="252pt"
 viewBox="0.00 0.00 494.00 252.00" xmlns="http://www.w3.org/2000/svg" xmlns:xlink="http://www.w3.org/1999/xlink">
<g id="graph0" class="graph" transform="scale(1 1) rotate(0) translate(4 248)">
<title>Engine/include/Tileset.h</title>
<polygon fill="white" stroke="none" points="-4,4 -4,-248 490,-248 490,4 -4,4"/>
<!-- Node1 -->
<g id="node1" class="node"><title>Node1</title>
<polygon fill="#bfbfbf" stroke="black" points="145,-224.5 145,-243.5 266,-243.5 266,-224.5 145,-224.5"/>
<text text-anchor="middle" x="205.5" y="-231.5" font-family="Helvetica,sans-Serif" font-size="10.00">Engine/include/Tileset.h</text>
</g>
<!-- Node2 -->
<g id="node2" class="node"><title>Node2</title>
<g id="a_node2"><a xlink:href="TileMap_8h.html" target="_top" xlink:title="Engine/include/TileMap.h">
<polygon fill="white" stroke="black" points="51.5,-168.5 51.5,-187.5 177.5,-187.5 177.5,-168.5 51.5,-168.5"/>
<text text-anchor="middle" x="114.5" y="-175.5" font-family="Helvetica,sans-Serif" font-size="10.00">Engine/include/TileMap.h</text>
</a>
</g>
</g>
<!-- Node1&#45;&gt;Node2 -->
<g id="edge1" class="edge"><title>Node1&#45;&gt;Node2</title>
<path fill="none" stroke="midnightblue" d="M182.206,-219.177C165.461,-209.241 143.4,-196.149 129.084,-187.655"/>
<polygon fill="midnightblue" stroke="midnightblue" points="180.493,-222.231 190.879,-224.324 184.066,-216.211 180.493,-222.231"/>
</g>
<!-- Node4 -->
<g id="node4" class="node"><title>Node4</title>
<g id="a_node4"><a xlink:href="StageState_8h.html" target="_top" xlink:title="Game/include/StageState.h">
<polygon fill="white" stroke="black" points="137,-112.5 137,-131.5 274,-131.5 274,-112.5 137,-112.5"/>
<text text-anchor="middle" x="205.5" y="-119.5" font-family="Helvetica,sans-Serif" font-size="10.00">Game/include/StageState.h</text>
</a>
</g>
</g>
<!-- Node1&#45;&gt;Node4 -->
<g id="edge10" class="edge"><title>Node1&#45;&gt;Node4</title>
<path fill="none" stroke="midnightblue" d="M205.5,-214.348C205.5,-190.254 205.5,-149.308 205.5,-131.591"/>
<polygon fill="midnightblue" stroke="midnightblue" points="202,-214.368 205.5,-224.368 209,-214.369 202,-214.368"/>
</g>
<!-- Node9 -->
<g id="node9" class="node"><title>Node9</title>
<g id="a_node9"><a xlink:href="Tileset_8cpp.html" target="_top" xlink:title="Engine/src/Tileset.cpp">
<polygon fill="white" stroke="black" points="233.5,-168.5 233.5,-187.5 347.5,-187.5 347.5,-168.5 233.5,-168.5"/>
<text text-anchor="middle" x="290.5" y="-175.5" font-family="Helvetica,sans-Serif" font-size="10.00">Engine/src/Tileset.cpp</text>
</a>
</g>
</g>
<!-- Node1&#45;&gt;Node9 -->
<g id="edge9" class="edge"><title>Node1&#45;&gt;Node9</title>
<path fill="none" stroke="midnightblue" d="M227.694,-218.901C243.28,-208.999 263.63,-196.071 276.877,-187.655"/>
<polygon fill="midnightblue" stroke="midnightblue" points="225.721,-216.007 219.157,-224.324 229.474,-221.916 225.721,-216.007"/>
</g>
<!-- Node3 -->
<g id="node3" class="node"><title>Node3</title>
<g id="a_node3"><a xlink:href="TileMap_8cpp.html" target="_top" xlink:title="Engine/src/TileMap.cpp">
<polygon fill="white" stroke="black" points="0,-112.5 0,-131.5 119,-131.5 119,-112.5 0,-112.5"/>
<text text-anchor="middle" x="59.5" y="-119.5" font-family="Helvetica,sans-Serif" font-size="10.00">Engine/src/TileMap.cpp</text>
</a>
</g>
</g>
<!-- Node2&#45;&gt;Node3 -->
<g id="edge2" class="edge"><title>Node2&#45;&gt;Node3</title>
<path fill="none" stroke="midnightblue" d="M98.2062,-161.002C88.4594,-151.433 76.447,-139.639 68.4131,-131.751"/>
<polygon fill="midnightblue" stroke="midnightblue" points="95.8301,-163.575 105.418,-168.083 100.734,-158.58 95.8301,-163.575"/>
</g>
<!-- Node2&#45;&gt;Node4 -->
<g id="edge3" class="edge"><title>Node2&#45;&gt;Node4</title>
<path fill="none" stroke="midnightblue" d="M137.794,-163.177C154.539,-153.241 176.6,-140.149 190.916,-131.655"/>
<polygon fill="midnightblue" stroke="midnightblue" points="135.934,-160.211 129.121,-168.324 139.507,-166.231 135.934,-160.211"/>
</g>
<!-- Node5 -->
<g id="node5" class="node"><title>Node5</title>
<g id="a_node5"><a xlink:href="EndState_8h.html" target="_top" xlink:title="Game/include/EndState.h">
<polygon fill="white" stroke="black" points="68.5,-56.5 68.5,-75.5 196.5,-75.5 196.5,-56.5 68.5,-56.5"/>
<text text-anchor="middle" x="132.5" y="-63.5" font-family="Helvetica,sans-Serif" font-size="10.00">Game/include/EndState.h</text>
</a>
</g>
</g>
<!-- Node4&#45;&gt;Node5 -->
<g id="edge4" class="edge"><title>Node4&#45;&gt;Node5</title>
<path fill="none" stroke="midnightblue" d="M180.07,-106.658C165.641,-96.8592 148.805,-84.1845 139.293,-75.8339"/>
<polygon fill="midnightblue" stroke="midnightblue" points="178.382,-109.738 188.656,-112.324 182.237,-103.895 178.382,-109.738"/>
</g>
<!-- Node7 -->
<g id="node7" class="node"><title>Node7</title>
<g id="a_node7"><a xlink:href="StageState_8cpp.html" target="_top" xlink:title="Game/src/StageState.cpp">
<polygon fill="white" stroke="black" points="214.5,-56.5 214.5,-75.5 344.5,-75.5 344.5,-56.5 214.5,-56.5"/>
<text text-anchor="middle" x="279.5" y="-63.5" font-family="Helvetica,sans-Serif" font-size="10.00">Game/src/StageState.cpp</text>
</a>
</g>
</g>
<!-- Node4&#45;&gt;Node7 -->
<g id="edge7" class="edge"><title>Node4&#45;&gt;Node7</title>
<path fill="none" stroke="midnightblue" d="M225.534,-106.38C238.909,-96.6204 256.059,-84.1057 267.394,-75.8339"/>
<polygon fill="midnightblue" stroke="midnightblue" points="223.404,-103.602 217.389,-112.324 227.53,-109.257 223.404,-103.602"/>
</g>
<!-- Node8 -->
<g id="node8" class="node"><title>Node8</title>
<g id="a_node8"><a xlink:href="TitleState_8cpp.html" target="_top" xlink:title="Game/src/TitleState.cpp">
<polygon fill="white" stroke="black" points="363,-56.5 363,-75.5 486,-75.5 486,-56.5 363,-56.5"/>
<text text-anchor="middle" x="424.5" y="-63.5" font-family="Helvetica,sans-Serif" font-size="10.00">Game/src/TitleState.cpp</text>
</a>
</g>
</g>
<!-- Node4&#45;&gt;Node8 -->
<g id="edge8" class="edge"><title>Node4&#45;&gt;Node8</title>
<path fill="none" stroke="midnightblue" d="M250.015,-110.024C291.384,-99.8232 352.143,-84.8414 389.961,-75.5164"/>
<polygon fill="midnightblue" stroke="midnightblue" points="249.072,-106.651 240.201,-112.444 250.748,-113.448 249.072,-106.651"/>
</g>
<!-- Node5&#45;&gt;Node4 -->
<g id="edge5" class="edge"><title>Node5&#45;&gt;Node4</title>
<path fill="none" stroke="midnightblue" d="M157.946,-81.3524C172.462,-91.2122 189.412,-103.979 198.886,-112.324"/>
<polygon fill="midnightblue" stroke="midnightblue" points="159.584,-78.2404 149.31,-75.6545 155.729,-84.0832 159.584,-78.2404"/>
</g>
<!-- Node6 -->
<g id="node6" class="node"><title>Node6</title>
<g id="a_node6"><a xlink:href="EndState_8cpp.html" target="_top" xlink:title="Game/src/EndState.cpp">
<polygon fill="white" stroke="black" points="71.5,-0.5 71.5,-19.5 193.5,-19.5 193.5,-0.5 71.5,-0.5"/>
<text text-anchor="middle" x="132.5" y="-7.5" font-family="Helvetica,sans-Serif" font-size="10.00">Game/src/EndState.cpp</text>
</a>
</g>
</g>
<!-- Node5&#45;&gt;Node6 -->
<g id="edge6" class="edge"><title>Node5&#45;&gt;Node6</title>
<path fill="none" stroke="midnightblue" d="M132.5,-45.8045C132.5,-36.9102 132.5,-26.7798 132.5,-19.7511"/>
<polygon fill="midnightblue" stroke="midnightblue" points="129,-46.083 132.5,-56.083 136,-46.083 129,-46.083"/>
</g>
</g>
</svg>
