<?xml version="1.0" encoding="UTF-8" standalone="no"?>
<!DOCTYPE svg PUBLIC "-//W3C//DTD SVG 1.1//EN"
 "http://www.w3.org/Graphics/SVG/1.1/DTD/svg11.dtd">
<!-- Generated by graphviz version 2.36.0 (20140111.2315)
 -->
<!-- Title: Engine/include/ActionManager.h Pages: 1 -->
<svg width="1904pt" height="252pt"
 viewBox="0.00 0.00 1904.14 252.00" xmlns="http://www.w3.org/2000/svg" xmlns:xlink="http://www.w3.org/1999/xlink">
<g id="graph0" class="graph" transform="scale(1 1) rotate(0) translate(4 248)">
<title>Engine/include/ActionManager.h</title>
<polygon fill="white" stroke="none" points="-4,4 -4,-248 1900.14,-248 1900.14,4 -4,4"/>
<!-- Node1 -->
<g id="node1" class="node"><title>Node1</title>
<polygon fill="#bfbfbf" stroke="black" points="1496.64,-224.5 1496.64,-243.5 1653.64,-243.5 1653.64,-224.5 1496.64,-224.5"/>
<text text-anchor="middle" x="1575.14" y="-231.5" font-family="Helvetica,sans-Serif" font-size="10.00">Engine/include/ActionManager.h</text>
</g>
<!-- Node2 -->
<g id="node2" class="node"><title>Node2</title>
<g id="a_node2"><a xlink:href="Camera_8h.html" target="_top" xlink:title="Engine/include/Camera.h">
<polygon fill="white" stroke="black" points="873.135,-168.5 873.135,-187.5 999.135,-187.5 999.135,-168.5 873.135,-168.5"/>
<text text-anchor="middle" x="936.135" y="-175.5" font-family="Helvetica,sans-Serif" font-size="10.00">Engine/include/Camera.h</text>
</a>
</g>
</g>
<!-- Node1&#45;&gt;Node2 -->
<g id="edge1" class="edge"><title>Node1&#45;&gt;Node2</title>
<path fill="none" stroke="midnightblue" d="M1486.46,-225.506C1355.5,-214.44 1113.59,-193.997 999.209,-184.33"/>
<polygon fill="midnightblue" stroke="midnightblue" points="1486.2,-228.997 1496.46,-226.351 1486.79,-222.022 1486.2,-228.997"/>
</g>
<!-- Node12 -->
<g id="node12" class="node"><title>Node12</title>
<g id="a_node12"><a xlink:href="StageState_8h.html" target="_top" xlink:title="Game/include/StageState.h">
<polygon fill="white" stroke="black" points="1329.64,-56.5 1329.64,-75.5 1466.64,-75.5 1466.64,-56.5 1329.64,-56.5"/>
<text text-anchor="middle" x="1398.14" y="-63.5" font-family="Helvetica,sans-Serif" font-size="10.00">Game/include/StageState.h</text>
</a>
</g>
</g>
<!-- Node1&#45;&gt;Node12 -->
<g id="edge30" class="edge"><title>Node1&#45;&gt;Node12</title>
<path fill="none" stroke="midnightblue" d="M1562.82,-216.355C1544.11,-191.746 1506.62,-145.011 1468.14,-112 1451.03,-97.3257 1428.78,-83.8255 1414,-75.5176"/>
<polygon fill="midnightblue" stroke="midnightblue" points="1560.03,-218.462 1568.83,-224.355 1565.62,-214.257 1560.03,-218.462"/>
</g>
<!-- Node23 -->
<g id="node23" class="node"><title>Node23</title>
<g id="a_node23"><a xlink:href="ActionManager_8cpp.html" target="_top" xlink:title="Engine/src/ActionManager.cpp">
<polygon fill="white" stroke="black" points="1746.14,-168.5 1746.14,-187.5 1896.14,-187.5 1896.14,-168.5 1746.14,-168.5"/>
<text text-anchor="middle" x="1821.14" y="-175.5" font-family="Helvetica,sans-Serif" font-size="10.00">Engine/src/ActionManager.cpp</text>
</a>
</g>
</g>
<!-- Node1&#45;&gt;Node23 -->
<g id="edge29" class="edge"><title>Node1&#45;&gt;Node23</title>
<path fill="none" stroke="midnightblue" d="M1623.96,-222.281C1670.45,-212.077 1739.5,-196.92 1782.34,-187.516"/>
<polygon fill="midnightblue" stroke="midnightblue" points="1623.13,-218.881 1614.11,-224.444 1624.63,-225.718 1623.13,-218.881"/>
</g>
<!-- Node24 -->
<g id="node24" class="node"><title>Node24</title>
<g id="a_node24"><a xlink:href="TitleState_8h.html" target="_top" xlink:title="Game/include/TitleState.h">
<polygon fill="white" stroke="black" points="1598.14,-168.5 1598.14,-187.5 1728.14,-187.5 1728.14,-168.5 1598.14,-168.5"/>
<text text-anchor="middle" x="1663.14" y="-175.5" font-family="Helvetica,sans-Serif" font-size="10.00">Game/include/TitleState.h</text>
</a>
</g>
</g>
<!-- Node1&#45;&gt;Node24 -->
<g id="edge31" class="edge"><title>Node1&#45;&gt;Node24</title>
<path fill="none" stroke="midnightblue" d="M1598.11,-218.901C1614.25,-208.999 1635.32,-196.071 1649.03,-187.655"/>
<polygon fill="midnightblue" stroke="midnightblue" points="1595.97,-216.111 1589.27,-224.324 1599.63,-222.077 1595.97,-216.111"/>
</g>
<!-- Node3 -->
<g id="node3" class="node"><title>Node3</title>
<g id="a_node3"><a xlink:href="Animation_8cpp.html" target="_top" xlink:title="Engine/src/Animation.cpp">
<polygon fill="white" stroke="black" points="1331.14,-112.5 1331.14,-131.5 1459.14,-131.5 1459.14,-112.5 1331.14,-112.5"/>
<text text-anchor="middle" x="1395.14" y="-119.5" font-family="Helvetica,sans-Serif" font-size="10.00">Engine/src/Animation.cpp</text>
</a>
</g>
</g>
<!-- Node2&#45;&gt;Node3 -->
<g id="edge2" class="edge"><title>Node2&#45;&gt;Node3</title>
<path fill="none" stroke="midnightblue" d="M1009.47,-168.372C1098.3,-157.922 1246.49,-140.488 1330.97,-130.549"/>
<polygon fill="midnightblue" stroke="midnightblue" points="1009,-164.904 999.475,-169.548 1009.82,-171.856 1009,-164.904"/>
</g>
<!-- Node4 -->
<g id="node4" class="node"><title>Node4</title>
<g id="a_node4"><a xlink:href="Camera_8cpp.html" target="_top" xlink:title="Engine/src/Camera.cpp">
<polygon fill="white" stroke="black" points="31.6354,-112.5 31.6354,-131.5 150.635,-131.5 150.635,-112.5 31.6354,-112.5"/>
<text text-anchor="middle" x="91.1354" y="-119.5" font-family="Helvetica,sans-Serif" font-size="10.00">Engine/src/Camera.cpp</text>
</a>
</g>
</g>
<!-- Node2&#45;&gt;Node4 -->
<g id="edge3" class="edge"><title>Node2&#45;&gt;Node4</title>
<path fill="none" stroke="midnightblue" d="M862.876,-174.506C725.054,-169.424 417.862,-156.249 160.135,-132 157.129,-131.717 154.051,-131.404 150.945,-131.068"/>
<polygon fill="midnightblue" stroke="midnightblue" points="862.78,-178.004 872.901,-174.872 863.035,-171.009 862.78,-178.004"/>
</g>
<!-- Node5 -->
<g id="node5" class="node"><title>Node5</title>
<g id="a_node5"><a xlink:href="DragAndDrop_8cpp.html" target="_top" xlink:title="Engine/src/DragAndDrop.cpp">
<polygon fill="white" stroke="black" points="293.135,-112.5 293.135,-131.5 437.135,-131.5 437.135,-112.5 293.135,-112.5"/>
<text text-anchor="middle" x="365.135" y="-119.5" font-family="Helvetica,sans-Serif" font-size="10.00">Engine/src/DragAndDrop.cpp</text>
</a>
</g>
</g>
<!-- Node2&#45;&gt;Node5 -->
<g id="edge4" class="edge"><title>Node2&#45;&gt;Node5</title>
<path fill="none" stroke="midnightblue" d="M862.895,-170.713C767.069,-162.386 593.946,-146.998 446.135,-132 443.32,-131.714 440.45,-131.418 437.552,-131.115"/>
<polygon fill="midnightblue" stroke="midnightblue" points="862.792,-174.217 873.057,-171.595 863.397,-167.243 862.792,-174.217"/>
</g>
<!-- Node6 -->
<g id="node6" class="node"><title>Node6</title>
<g id="a_node6"><a xlink:href="GameObject_8cpp.html" target="_top" xlink:title="Engine/src/GameObject.cpp">
<polygon fill="white" stroke="black" points="455.135,-112.5 455.135,-131.5 595.135,-131.5 595.135,-112.5 455.135,-112.5"/>
<text text-anchor="middle" x="525.135" y="-119.5" font-family="Helvetica,sans-Serif" font-size="10.00">Engine/src/GameObject.cpp</text>
</a>
</g>
</g>
<!-- Node2&#45;&gt;Node6 -->
<g id="edge5" class="edge"><title>Node2&#45;&gt;Node6</title>
<path fill="none" stroke="midnightblue" d="M862.64,-167.344C785.065,-157.151 663.978,-141.242 589.882,-131.507"/>
<polygon fill="midnightblue" stroke="midnightblue" points="862.447,-170.848 872.817,-168.681 863.359,-163.908 862.447,-170.848"/>
</g>
<!-- Node7 -->
<g id="node7" class="node"><title>Node7</title>
<g id="a_node7"><a xlink:href="Sprite_8cpp.html" target="_top" xlink:title="Engine/src/Sprite.cpp">
<polygon fill="white" stroke="black" points="613.135,-112.5 613.135,-131.5 723.135,-131.5 723.135,-112.5 613.135,-112.5"/>
<text text-anchor="middle" x="668.135" y="-119.5" font-family="Helvetica,sans-Serif" font-size="10.00">Engine/src/Sprite.cpp</text>
</a>
</g>
</g>
<!-- Node2&#45;&gt;Node7 -->
<g id="edge6" class="edge"><title>Node2&#45;&gt;Node7</title>
<path fill="none" stroke="midnightblue" d="M883.575,-166.41C832.926,-156.204 757.269,-140.96 710.402,-131.516"/>
<polygon fill="midnightblue" stroke="midnightblue" points="883.176,-169.899 893.67,-168.444 884.558,-163.037 883.176,-169.899"/>
</g>
<!-- Node8 -->
<g id="node8" class="node"><title>Node8</title>
<g id="a_node8"><a xlink:href="State_8cpp.html" target="_top" xlink:title="Engine/src/State.cpp">
<polygon fill="white" stroke="black" points="741.135,-112.5 741.135,-131.5 849.135,-131.5 849.135,-112.5 741.135,-112.5"/>
<text text-anchor="middle" x="795.135" y="-119.5" font-family="Helvetica,sans-Serif" font-size="10.00">Engine/src/State.cpp</text>
</a>
</g>
</g>
<!-- Node2&#45;&gt;Node8 -->
<g id="edge7" class="edge"><title>Node2&#45;&gt;Node8</title>
<path fill="none" stroke="midnightblue" d="M904.207,-164.772C877.721,-154.629 840.743,-140.467 817.373,-131.516"/>
<polygon fill="midnightblue" stroke="midnightblue" points="903.203,-168.136 913.794,-168.444 905.707,-161.599 903.203,-168.136"/>
</g>
<!-- Node9 -->
<g id="node9" class="node"><title>Node9</title>
<g id="a_node9"><a xlink:href="TileMap_8cpp.html" target="_top" xlink:title="Engine/src/TileMap.cpp">
<polygon fill="white" stroke="black" points="1023.64,-112.5 1023.64,-131.5 1142.64,-131.5 1142.64,-112.5 1023.64,-112.5"/>
<text text-anchor="middle" x="1083.14" y="-119.5" font-family="Helvetica,sans-Serif" font-size="10.00">Engine/src/TileMap.cpp</text>
</a>
</g>
</g>
<!-- Node2&#45;&gt;Node9 -->
<g id="edge8" class="edge"><title>Node2&#45;&gt;Node9</title>
<path fill="none" stroke="midnightblue" d="M969.058,-164.906C996.695,-154.754 1035.48,-140.506 1059.95,-131.516"/>
<polygon fill="midnightblue" stroke="midnightblue" points="967.608,-161.71 959.428,-168.444 970.022,-168.281 967.608,-161.71"/>
</g>
<!-- Node10 -->
<g id="node10" class="node"><title>Node10</title>
<g id="a_node10"><a xlink:href="Tileset_8cpp.html" target="_top" xlink:title="Engine/src/Tileset.cpp">
<polygon fill="white" stroke="black" points="1161.14,-112.5 1161.14,-131.5 1275.14,-131.5 1275.14,-112.5 1161.14,-112.5"/>
<text text-anchor="middle" x="1218.14" y="-119.5" font-family="Helvetica,sans-Serif" font-size="10.00">Engine/src/Tileset.cpp</text>
</a>
</g>
</g>
<!-- Node2&#45;&gt;Node10 -->
<g id="edge9" class="edge"><title>Node2&#45;&gt;Node10</title>
<path fill="none" stroke="midnightblue" d="M990.775,-166.537C1044.07,-156.332 1124.14,-140.999 1173.66,-131.516"/>
<polygon fill="midnightblue" stroke="midnightblue" points="989.982,-163.125 980.819,-168.444 991.299,-170 989.982,-163.125"/>
</g>
<!-- Node11 -->
<g id="node11" class="node"><title>Node11</title>
<g id="a_node11"><a xlink:href="AIPrintPath_8h.html" target="_top" xlink:title="Game/include/AIPrintPath.h">
<polygon fill="white" stroke="black" points="867.135,-112.5 867.135,-131.5 1005.14,-131.5 1005.14,-112.5 867.135,-112.5"/>
<text text-anchor="middle" x="936.135" y="-119.5" font-family="Helvetica,sans-Serif" font-size="10.00">Game/include/AIPrintPath.h</text>
</a>
</g>
</g>
<!-- Node2&#45;&gt;Node11 -->
<g id="edge10" class="edge"><title>Node2&#45;&gt;Node11</title>
<path fill="none" stroke="midnightblue" d="M936.135,-157.805C936.135,-148.91 936.135,-138.78 936.135,-131.751"/>
<polygon fill="midnightblue" stroke="midnightblue" points="932.635,-158.083 936.135,-168.083 939.635,-158.083 932.635,-158.083"/>
</g>
<!-- Node13 -->
<g id="node13" class="node"><title>Node13</title>
<g id="a_node13"><a xlink:href="EndState_8cpp.html" target="_top" xlink:title="Game/src/EndState.cpp">
<polygon fill="white" stroke="black" points="1192.14,-0.5 1192.14,-19.5 1314.14,-19.5 1314.14,-0.5 1192.14,-0.5"/>
<text text-anchor="middle" x="1253.14" y="-7.5" font-family="Helvetica,sans-Serif" font-size="10.00">Game/src/EndState.cpp</text>
</a>
</g>
</g>
<!-- Node2&#45;&gt;Node13 -->
<g id="edge24" class="edge"><title>Node2&#45;&gt;Node13</title>
<path fill="none" stroke="midnightblue" d="M1009.25,-172.625C1105.94,-166.081 1266.29,-152.301 1284.14,-132 1313.49,-98.6107 1275.95,-41.1051 1259.83,-19.5179"/>
<polygon fill="midnightblue" stroke="midnightblue" points="1008.98,-169.136 999.231,-173.293 1009.44,-176.12 1008.98,-169.136"/>
</g>
<!-- Node14 -->
<g id="node14" class="node"><title>Node14</title>
<g id="a_node14"><a xlink:href="Enemy_8cpp.html" target="_top" xlink:title="Game/src/Enemy.cpp">
<polygon fill="white" stroke="black" points="162.135,-0.5 162.135,-19.5 274.135,-19.5 274.135,-0.5 162.135,-0.5"/>
<text text-anchor="middle" x="218.135" y="-7.5" font-family="Helvetica,sans-Serif" font-size="10.00">Game/src/Enemy.cpp</text>
</a>
</g>
</g>
<!-- Node2&#45;&gt;Node14 -->
<g id="edge25" class="edge"><title>Node2&#45;&gt;Node14</title>
<path fill="none" stroke="midnightblue" d="M862.672,-176.17C648.417,-173.391 37.4692,-162.791 8.13538,-132 -13.6105,-109.174 13.2577,-75.3869 38.1354,-56 73.4523,-28.478 123.484,-17.5765 161.839,-13.3606"/>
<polygon fill="midnightblue" stroke="midnightblue" points="862.831,-179.672 872.875,-176.3 862.921,-172.672 862.831,-179.672"/>
</g>
<!-- Node15 -->
<g id="node15" class="node"><title>Node15</title>
<g id="a_node15"><a xlink:href="StageState_8cpp.html" target="_top" xlink:title="Game/src/StageState.cpp">
<polygon fill="white" stroke="black" points="1494.14,-0.5 1494.14,-19.5 1624.14,-19.5 1624.14,-0.5 1494.14,-0.5"/>
<text text-anchor="middle" x="1559.14" y="-7.5" font-family="Helvetica,sans-Serif" font-size="10.00">Game/src/StageState.cpp</text>
</a>
</g>
</g>
<!-- Node2&#45;&gt;Node15 -->
<g id="edge26" class="edge"><title>Node2&#45;&gt;Node15</title>
<path fill="none" stroke="midnightblue" d="M1009.22,-175.067C1187.05,-170.009 1629.39,-155.153 1651.14,-132 1674.26,-107.377 1669.02,-84.6553 1651.14,-56 1639.46,-37.2958 1617.51,-26.1534 1597.98,-19.6357"/>
<polygon fill="midnightblue" stroke="midnightblue" points="1009.07,-171.57 999.169,-175.351 1009.26,-178.567 1009.07,-171.57"/>
</g>
<!-- Node16 -->
<g id="node16" class="node"><title>Node16</title>
<g id="a_node16"><a xlink:href="TitleState_8cpp.html" target="_top" xlink:title="Game/src/TitleState.cpp">
<polygon fill="white" stroke="black" points="1647.64,-0.5 1647.64,-19.5 1770.64,-19.5 1770.64,-0.5 1647.64,-0.5"/>
<text text-anchor="middle" x="1709.14" y="-7.5" font-family="Helvetica,sans-Serif" font-size="10.00">Game/src/TitleState.cpp</text>
</a>
</g>
</g>
<!-- Node2&#45;&gt;Node16 -->
<g id="edge27" class="edge"><title>Node2&#45;&gt;Node16</title>
<path fill="none" stroke="midnightblue" d="M1009.35,-177.186C1185.26,-176.981 1620.94,-172.357 1672.14,-132 1707.85,-103.85 1710,-42.1111 1709.51,-19.508"/>
<polygon fill="midnightblue" stroke="midnightblue" points="1009.15,-173.686 999.151,-177.193 1009.15,-180.686 1009.15,-173.686"/>
</g>
<!-- Node17 -->
<g id="node17" class="node"><title>Node17</title>
<g id="a_node17"><a xlink:href="Tower_8cpp.html" target="_top" xlink:title="Game/src/Tower.cpp">
<polygon fill="white" stroke="black" points="808.135,-0.5 808.135,-19.5 916.135,-19.5 916.135,-0.5 808.135,-0.5"/>
<text text-anchor="middle" x="862.135" y="-7.5" font-family="Helvetica,sans-Serif" font-size="10.00">Game/src/Tower.cpp</text>
</a>
</g>
</g>
<!-- Node2&#45;&gt;Node17 -->
<g id="edge28" class="edge"><title>Node2&#45;&gt;Node17</title>
<path fill="none" stroke="midnightblue" d="M863.039,-176.117C651.351,-173.206 50.9828,-162.303 22.1354,-132 -89.1694,-15.0804 605.506,-9.66496 807.942,-10.5307"/>
<polygon fill="midnightblue" stroke="midnightblue" points="863.077,-179.618 873.123,-176.254 863.171,-172.619 863.077,-179.618"/>
</g>
<!-- Node20 -->
<g id="node20" class="node"><title>Node20</title>
<g id="a_node20"><a xlink:href="Obstacle_8h.html" target="_top" xlink:title="Game/include/Obstacle.h">
<polygon fill="white" stroke="black" points="1515.64,-112.5 1515.64,-131.5 1642.64,-131.5 1642.64,-112.5 1515.64,-112.5"/>
<text text-anchor="middle" x="1579.14" y="-119.5" font-family="Helvetica,sans-Serif" font-size="10.00">Game/include/Obstacle.h</text>
</a>
</g>
</g>
<!-- Node2&#45;&gt;Node20 -->
<g id="edge19" class="edge"><title>Node2&#45;&gt;Node20</title>
<path fill="none" stroke="midnightblue" d="M1009.27,-170.858C1136.15,-160.203 1394.99,-138.465 1515.18,-128.371"/>
<polygon fill="midnightblue" stroke="midnightblue" points="1008.93,-167.375 999.254,-171.699 1009.51,-174.35 1008.93,-167.375"/>
</g>
<!-- Node22 -->
<g id="node22" class="node"><title>Node22</title>
<g id="a_node22"><a xlink:href="Bullet_8cpp.html" target="_top" xlink:title="Game/src/Bullet.cpp">
<polygon fill="white" stroke="black" points="169.135,-112.5 169.135,-131.5 275.135,-131.5 275.135,-112.5 169.135,-112.5"/>
<text text-anchor="middle" x="222.135" y="-119.5" font-family="Helvetica,sans-Serif" font-size="10.00">Game/src/Bullet.cpp</text>
</a>
</g>
</g>
<!-- Node2&#45;&gt;Node22 -->
<g id="edge23" class="edge"><title>Node2&#45;&gt;Node22</title>
<path fill="none" stroke="midnightblue" d="M862.821,-173.742C741.985,-167.967 493.52,-154.391 284.135,-132 281.215,-131.688 278.222,-131.341 275.202,-130.971"/>
<polygon fill="midnightblue" stroke="midnightblue" points="862.902,-177.249 873.057,-174.227 863.234,-170.257 862.902,-177.249"/>
</g>
<!-- Node11&#45;&gt;Node12 -->
<g id="edge11" class="edge"><title>Node11&#45;&gt;Node12</title>
<path fill="none" stroke="midnightblue" d="M1015.29,-111.748C1103.8,-101.403 1245.7,-84.8168 1329.63,-75.0073"/>
<polygon fill="midnightblue" stroke="midnightblue" points="1014.83,-108.278 1005.3,-112.916 1015.64,-115.231 1014.83,-108.278"/>
</g>
<!-- Node19 -->
<g id="node19" class="node"><title>Node19</title>
<g id="a_node19"><a xlink:href="AIPrintPath_8cpp.html" target="_top" xlink:title="Game/src/AIPrintPath.cpp">
<polygon fill="white" stroke="black" points="870.635,-56.5 870.635,-75.5 1001.64,-75.5 1001.64,-56.5 870.635,-56.5"/>
<text text-anchor="middle" x="936.135" y="-63.5" font-family="Helvetica,sans-Serif" font-size="10.00">Game/src/AIPrintPath.cpp</text>
</a>
</g>
</g>
<!-- Node11&#45;&gt;Node19 -->
<g id="edge18" class="edge"><title>Node11&#45;&gt;Node19</title>
<path fill="none" stroke="midnightblue" d="M936.135,-101.805C936.135,-92.9102 936.135,-82.7798 936.135,-75.7511"/>
<polygon fill="midnightblue" stroke="midnightblue" points="932.635,-102.083 936.135,-112.083 939.635,-102.083 932.635,-102.083"/>
</g>
<!-- Node12&#45;&gt;Node13 -->
<g id="edge12" class="edge"><title>Node12&#45;&gt;Node13</title>
<path fill="none" stroke="midnightblue" d="M1365.66,-52.9058C1338.4,-42.7536 1300.14,-28.5063 1276,-19.5164"/>
<polygon fill="midnightblue" stroke="midnightblue" points="1364.57,-56.2334 1375.16,-56.4435 1367.01,-49.6736 1364.57,-56.2334"/>
</g>
<!-- Node12&#45;&gt;Node14 -->
<g id="edge13" class="edge"><title>Node12&#45;&gt;Node14</title>
<path fill="none" stroke="midnightblue" d="M1319.29,-61.392C1096.48,-51.1955 465.894,-22.3381 274.141,-13.563"/>
<polygon fill="midnightblue" stroke="midnightblue" points="1319.44,-64.9024 1329.59,-61.8633 1319.76,-57.9097 1319.44,-64.9024"/>
</g>
<!-- Node12&#45;&gt;Node15 -->
<g id="edge14" class="edge"><title>Node12&#45;&gt;Node15</title>
<path fill="none" stroke="midnightblue" d="M1433.4,-53.172C1463.72,-43.0039 1506.71,-28.5852 1533.74,-19.5164"/>
<polygon fill="midnightblue" stroke="midnightblue" points="1432.01,-49.9452 1423.65,-56.4435 1434.24,-56.5819 1432.01,-49.9452"/>
</g>
<!-- Node12&#45;&gt;Node16 -->
<g id="edge15" class="edge"><title>Node12&#45;&gt;Node16</title>
<path fill="none" stroke="midnightblue" d="M1457.3,-54.7275C1516.07,-44.523 1605.13,-29.0583 1660.09,-19.5164"/>
<polygon fill="midnightblue" stroke="midnightblue" points="1456.67,-51.2843 1447.41,-56.4435 1457.87,-58.1811 1456.67,-51.2843"/>
</g>
<!-- Node12&#45;&gt;Node17 -->
<g id="edge16" class="edge"><title>Node12&#45;&gt;Node17</title>
<path fill="none" stroke="midnightblue" d="M1319.37,-57.0643C1209.09,-45.9544 1011.54,-26.0519 916.345,-16.4614"/>
<polygon fill="midnightblue" stroke="midnightblue" points="1319.13,-60.5584 1329.43,-58.0785 1319.83,-53.5937 1319.13,-60.5584"/>
</g>
<!-- Node18 -->
<g id="node18" class="node"><title>Node18</title>
<g id="a_node18"><a xlink:href="WaveManager_8cpp.html" target="_top" xlink:title="Game/src/WaveManager.cpp">
<polygon fill="white" stroke="black" points="1332.14,-0.5 1332.14,-19.5 1476.14,-19.5 1476.14,-0.5 1332.14,-0.5"/>
<text text-anchor="middle" x="1404.14" y="-7.5" font-family="Helvetica,sans-Serif" font-size="10.00">Game/src/WaveManager.cpp</text>
</a>
</g>
</g>
<!-- Node12&#45;&gt;Node18 -->
<g id="edge17" class="edge"><title>Node12&#45;&gt;Node18</title>
<path fill="none" stroke="midnightblue" d="M1400.24,-46.1005C1401.23,-37.1357 1402.37,-26.8579 1403.16,-19.7511"/>
<polygon fill="midnightblue" stroke="midnightblue" points="1396.75,-45.7576 1399.13,-56.083 1403.71,-46.5307 1396.75,-45.7576"/>
</g>
<!-- Node20&#45;&gt;Node12 -->
<g id="edge20" class="edge"><title>Node20&#45;&gt;Node12</title>
<path fill="none" stroke="midnightblue" d="M1540.82,-109.568C1506.67,-99.381 1457.47,-84.7034 1426.68,-75.5164"/>
<polygon fill="midnightblue" stroke="midnightblue" points="1539.87,-112.938 1550.46,-112.444 1541.87,-106.231 1539.87,-112.938"/>
</g>
<!-- Node20&#45;&gt;Node15 -->
<g id="edge22" class="edge"><title>Node20&#45;&gt;Node15</title>
<path fill="none" stroke="midnightblue" d="M1548.12,-107.667C1535.14,-100.348 1521.41,-89.8918 1514.14,-76 1502.86,-54.4813 1528.69,-31.6461 1545.7,-19.6018"/>
<polygon fill="midnightblue" stroke="midnightblue" points="1546.84,-110.947 1557.33,-112.447 1550.06,-104.734 1546.84,-110.947"/>
</g>
<!-- Node21 -->
<g id="node21" class="node"><title>Node21</title>
<g id="a_node21"><a xlink:href="Obstacle_8cpp.html" target="_top" xlink:title="Game/src/Obstacle.cpp">
<polygon fill="white" stroke="black" points="1523.14,-56.5 1523.14,-75.5 1643.14,-75.5 1643.14,-56.5 1523.14,-56.5"/>
<text text-anchor="middle" x="1583.14" y="-63.5" font-family="Helvetica,sans-Serif" font-size="10.00">Game/src/Obstacle.cpp</text>
</a>
</g>
</g>
<!-- Node20&#45;&gt;Node21 -->
<g id="edge21" class="edge"><title>Node20&#45;&gt;Node21</title>
<path fill="none" stroke="midnightblue" d="M1580.54,-102.101C1581.2,-93.1357 1581.96,-82.8579 1582.49,-75.7511"/>
<polygon fill="midnightblue" stroke="midnightblue" points="1577.04,-101.852 1579.8,-112.083 1584.03,-102.369 1577.04,-101.852"/>
</g>
<!-- Node24&#45;&gt;Node16 -->
<g id="edge33" class="edge"><title>Node24&#45;&gt;Node16</title>
<path fill="none" stroke="midnightblue" d="M1691.42,-163.379C1703.53,-155.933 1716.41,-145.457 1723.14,-132 1742.24,-93.7926 1722.48,-40.5443 1713.29,-19.7802"/>
<polygon fill="midnightblue" stroke="midnightblue" points="1689.4,-160.502 1682.43,-168.48 1692.86,-166.59 1689.4,-160.502"/>
</g>
<!-- Node25 -->
<g id="node25" class="node"><title>Node25</title>
<g id="a_node25"><a xlink:href="main_8cpp.html" target="_top" xlink:title="Game/src/main.cpp">
<polygon fill="white" stroke="black" points="1775.14,-112.5 1775.14,-131.5 1877.14,-131.5 1877.14,-112.5 1775.14,-112.5"/>
<text text-anchor="middle" x="1826.14" y="-119.5" font-family="Helvetica,sans-Serif" font-size="10.00">Game/src/main.cpp</text>
</a>
</g>
</g>
<!-- Node24&#45;&gt;Node25 -->
<g id="edge32" class="edge"><title>Node24&#45;&gt;Node25</title>
<path fill="none" stroke="midnightblue" d="M1698.84,-165.172C1729.53,-155.004 1773.05,-140.585 1800.43,-131.516"/>
<polygon fill="midnightblue" stroke="midnightblue" points="1697.36,-161.976 1688.96,-168.444 1699.56,-168.621 1697.36,-161.976"/>
</g>
</g>
</svg>
