<?xml version="1.0" encoding="UTF-8" standalone="no"?>
<!DOCTYPE svg PUBLIC "-//W3C//DTD SVG 1.1//EN"
 "http://www.w3.org/Graphics/SVG/1.1/DTD/svg11.dtd">
<!-- Generated by graphviz version 2.38.0 (20140413.2041)
 -->
<!-- Title: Engine/include/ActionManager.h Pages: 1 -->
<svg width="1604pt" height="196pt"
 viewBox="0.00 0.00 1604.00 196.00" xmlns="http://www.w3.org/2000/svg" xmlns:xlink="http://www.w3.org/1999/xlink">
<g id="graph0" class="graph" transform="scale(1 1) rotate(0) translate(4 192)">
<title>Engine/include/ActionManager.h</title>
<polygon fill="white" stroke="none" points="-4,4 -4,-192 1600,-192 1600,4 -4,4"/>
<!-- Node5 -->
<g id="node1" class="node"><title>Node5</title>
<polygon fill="#bfbfbf" stroke="black" points="1110.5,-168.5 1110.5,-187.5 1267.5,-187.5 1267.5,-168.5 1110.5,-168.5"/>
<text text-anchor="middle" x="1189" y="-175.5" font-family="Helvetica,sans-Serif" font-size="10.00">Engine/include/ActionManager.h</text>
</g>
<!-- Node6 -->
<g id="node2" class="node"><title>Node6</title>
<g id="a_node2"><a xlink:href="Camera_8h.html" target="_top" xlink:title="Engine/include/Camera.h">
<polygon fill="white" stroke="black" points="595,-112.5 595,-131.5 721,-131.5 721,-112.5 595,-112.5"/>
<text text-anchor="middle" x="658" y="-119.5" font-family="Helvetica,sans-Serif" font-size="10.00">Engine/include/Camera.h</text>
</a>
</g>
</g>
<!-- Node5&#45;&gt;Node6 -->
<g id="edge1" class="edge"><title>Node5&#45;&gt;Node6</title>
<path fill="none" stroke="midnightblue" d="M1100.21,-167.971C993.01,-157.069 815.397,-139.007 721.198,-129.427"/>
<polygon fill="midnightblue" stroke="midnightblue" points="1100.06,-171.473 1110.36,-169.003 1100.77,-164.509 1100.06,-171.473"/>
</g>
<!-- Node16 -->
<g id="node12" class="node"><title>Node16</title>
<g id="a_node12"><a xlink:href="ActionManager_8cpp.html" target="_top" xlink:title="Engine/src/ActionManager.cpp">
<polygon fill="white" stroke="black" points="1033,-112.5 1033,-131.5 1183,-131.5 1183,-112.5 1033,-112.5"/>
<text text-anchor="middle" x="1108" y="-119.5" font-family="Helvetica,sans-Serif" font-size="10.00">Engine/src/ActionManager.cpp</text>
</a>
</g>
</g>
<!-- Node5&#45;&gt;Node16 -->
<g id="edge11" class="edge"><title>Node5&#45;&gt;Node16</title>
<path fill="none" stroke="midnightblue" d="M1167.43,-162.622C1152.64,-152.757 1133.49,-139.992 1120.98,-131.655"/>
<polygon fill="midnightblue" stroke="midnightblue" points="1165.72,-165.689 1175.99,-168.324 1169.61,-159.865 1165.72,-165.689"/>
</g>
<!-- Node17 -->
<g id="node13" class="node"><title>Node17</title>
<g id="a_node13"><a xlink:href="StageState_8h.html" target="_top" xlink:title="Game/include/StageState.h">
<polygon fill="white" stroke="black" points="1201.5,-112.5 1201.5,-131.5 1338.5,-131.5 1338.5,-112.5 1201.5,-112.5"/>
<text text-anchor="middle" x="1270" y="-119.5" font-family="Helvetica,sans-Serif" font-size="10.00">Game/include/StageState.h</text>
</a>
</g>
</g>
<!-- Node5&#45;&gt;Node17 -->
<g id="edge12" class="edge"><title>Node5&#45;&gt;Node17</title>
<path fill="none" stroke="midnightblue" d="M1210.57,-162.622C1225.36,-152.757 1244.51,-139.992 1257.02,-131.655"/>
<polygon fill="midnightblue" stroke="midnightblue" points="1208.39,-159.865 1202.01,-168.324 1212.28,-165.689 1208.39,-159.865"/>
</g>
<!-- Node21 -->
<g id="node17" class="node"><title>Node21</title>
<g id="a_node17"><a xlink:href="TitleState_8h.html" target="_top" xlink:title="Game/include/TitleState.h">
<polygon fill="white" stroke="black" points="1357,-112.5 1357,-131.5 1487,-131.5 1487,-112.5 1357,-112.5"/>
<text text-anchor="middle" x="1422" y="-119.5" font-family="Helvetica,sans-Serif" font-size="10.00">Game/include/TitleState.h</text>
</a>
</g>
</g>
<!-- Node5&#45;&gt;Node21 -->
<g id="edge18" class="edge"><title>Node5&#45;&gt;Node21</title>
<path fill="none" stroke="midnightblue" d="M1235.8,-166.153C1279.83,-155.95 1344.85,-140.881 1385.25,-131.516"/>
<polygon fill="midnightblue" stroke="midnightblue" points="1234.87,-162.776 1225.92,-168.444 1236.45,-169.595 1234.87,-162.776"/>
</g>
<!-- Node7 -->
<g id="node3" class="node"><title>Node7</title>
<g id="a_node3"><a xlink:href="Animation_8cpp.html" target="_top" xlink:title="Engine/src/Animation.cpp">
<polygon fill="white" stroke="black" points="0,-56.5 0,-75.5 128,-75.5 128,-56.5 0,-56.5"/>
<text text-anchor="middle" x="64" y="-63.5" font-family="Helvetica,sans-Serif" font-size="10.00">Engine/src/Animation.cpp</text>
</a>
</g>
</g>
<!-- Node6&#45;&gt;Node7 -->
<g id="edge2" class="edge"><title>Node6&#45;&gt;Node7</title>
<path fill="none" stroke="midnightblue" d="M584.892,-115.532C484.024,-107.795 296.533,-92.7182 137,-76 134.079,-75.6939 131.094,-75.3701 128.079,-75.0344"/>
<polygon fill="midnightblue" stroke="midnightblue" points="584.736,-119.03 594.974,-116.303 585.27,-112.05 584.736,-119.03"/>
</g>
<!-- Node8 -->
<g id="node4" class="node"><title>Node8</title>
<g id="a_node4"><a xlink:href="Camera_8cpp.html" target="_top" xlink:title="Engine/src/Camera.cpp">
<polygon fill="white" stroke="black" points="146.5,-56.5 146.5,-75.5 265.5,-75.5 265.5,-56.5 146.5,-56.5"/>
<text text-anchor="middle" x="206" y="-63.5" font-family="Helvetica,sans-Serif" font-size="10.00">Engine/src/Camera.cpp</text>
</a>
</g>
</g>
<!-- Node6&#45;&gt;Node8 -->
<g id="edge3" class="edge"><title>Node6&#45;&gt;Node8</title>
<path fill="none" stroke="midnightblue" d="M584.852,-112.686C507.752,-103.857 382.78,-89.3603 275,-76 272.003,-75.6285 268.933,-75.2437 265.833,-74.8517"/>
<polygon fill="midnightblue" stroke="midnightblue" points="584.609,-116.181 594.942,-113.84 585.404,-109.226 584.609,-116.181"/>
</g>
<!-- Node9 -->
<g id="node5" class="node"><title>Node9</title>
<g id="a_node5"><a xlink:href="Sprite_8cpp.html" target="_top" xlink:title="Engine/src/Sprite.cpp">
<polygon fill="white" stroke="black" points="284,-56.5 284,-75.5 394,-75.5 394,-56.5 284,-56.5"/>
<text text-anchor="middle" x="339" y="-63.5" font-family="Helvetica,sans-Serif" font-size="10.00">Engine/src/Sprite.cpp</text>
</a>
</g>
</g>
<!-- Node6&#45;&gt;Node9 -->
<g id="edge4" class="edge"><title>Node6&#45;&gt;Node9</title>
<path fill="none" stroke="midnightblue" d="M597.316,-110.727C537.034,-100.523 445.678,-85.0583 389.31,-75.5164"/>
<polygon fill="midnightblue" stroke="midnightblue" points="597.01,-114.225 607.454,-112.444 598.178,-107.324 597.01,-114.225"/>
</g>
<!-- Node10 -->
<g id="node6" class="node"><title>Node10</title>
<g id="a_node6"><a xlink:href="Tileset_8cpp.html" target="_top" xlink:title="Engine/src/Tileset.cpp">
<polygon fill="white" stroke="black" points="412,-56.5 412,-75.5 526,-75.5 526,-56.5 412,-56.5"/>
<text text-anchor="middle" x="469" y="-63.5" font-family="Helvetica,sans-Serif" font-size="10.00">Engine/src/Tileset.cpp</text>
</a>
</g>
</g>
<!-- Node6&#45;&gt;Node10 -->
<g id="edge5" class="edge"><title>Node6&#45;&gt;Node10</title>
<path fill="none" stroke="midnightblue" d="M617.987,-109.568C582.333,-99.381 530.962,-84.7034 498.808,-75.5164"/>
<polygon fill="midnightblue" stroke="midnightblue" points="617.476,-113.062 628.052,-112.444 619.399,-106.331 617.476,-113.062"/>
</g>
<!-- Node11 -->
<g id="node7" class="node"><title>Node11</title>
<g id="a_node7"><a xlink:href="Alien_8cpp.html" target="_top" xlink:title="Game/src/Alien.cpp">
<polygon fill="white" stroke="black" points="544.5,-56.5 544.5,-75.5 647.5,-75.5 647.5,-56.5 544.5,-56.5"/>
<text text-anchor="middle" x="596" y="-63.5" font-family="Helvetica,sans-Serif" font-size="10.00">Game/src/Alien.cpp</text>
</a>
</g>
</g>
<!-- Node6&#45;&gt;Node11 -->
<g id="edge6" class="edge"><title>Node6&#45;&gt;Node11</title>
<path fill="none" stroke="midnightblue" d="M640.246,-105.537C629.192,-95.9087 615.369,-83.8694 606.143,-75.8339"/>
<polygon fill="midnightblue" stroke="midnightblue" points="638.199,-108.395 648.039,-112.324 642.797,-103.117 638.199,-108.395"/>
</g>
<!-- Node12 -->
<g id="node8" class="node"><title>Node12</title>
<g id="a_node8"><a xlink:href="Bullet_8cpp.html" target="_top" xlink:title="Game/src/Bullet.cpp">
<polygon fill="white" stroke="black" points="666,-56.5 666,-75.5 772,-75.5 772,-56.5 666,-56.5"/>
<text text-anchor="middle" x="719" y="-63.5" font-family="Helvetica,sans-Serif" font-size="10.00">Game/src/Bullet.cpp</text>
</a>
</g>
</g>
<!-- Node6&#45;&gt;Node12 -->
<g id="edge7" class="edge"><title>Node6&#45;&gt;Node12</title>
<path fill="none" stroke="midnightblue" d="M675.467,-105.537C686.344,-95.9087 699.944,-83.8694 709.021,-75.8339"/>
<polygon fill="midnightblue" stroke="midnightblue" points="672.968,-103.075 667.801,-112.324 677.608,-108.316 672.968,-103.075"/>
</g>
<!-- Node13 -->
<g id="node9" class="node"><title>Node13</title>
<g id="a_node9"><a xlink:href="Minion_8cpp.html" target="_top" xlink:title="Game/src/Minion.cpp">
<polygon fill="white" stroke="black" points="790,-56.5 790,-75.5 900,-75.5 900,-56.5 790,-56.5"/>
<text text-anchor="middle" x="845" y="-63.5" font-family="Helvetica,sans-Serif" font-size="10.00">Game/src/Minion.cpp</text>
</a>
</g>
</g>
<!-- Node6&#45;&gt;Node13 -->
<g id="edge8" class="edge"><title>Node6&#45;&gt;Node13</title>
<path fill="none" stroke="midnightblue" d="M697.59,-109.568C732.866,-99.381 783.694,-84.7034 815.508,-75.5164"/>
<polygon fill="midnightblue" stroke="midnightblue" points="696.267,-106.307 687.631,-112.444 698.209,-113.032 696.267,-106.307"/>
</g>
<!-- Node14 -->
<g id="node10" class="node"><title>Node14</title>
<g id="a_node10"><a xlink:href="Penguins_8cpp.html" target="_top" xlink:title="Game/src/Penguins.cpp">
<polygon fill="white" stroke="black" points="918,-56.5 918,-75.5 1040,-75.5 1040,-56.5 918,-56.5"/>
<text text-anchor="middle" x="979" y="-63.5" font-family="Helvetica,sans-Serif" font-size="10.00">Game/src/Penguins.cpp</text>
</a>
</g>
</g>
<!-- Node6&#45;&gt;Node14 -->
<g id="edge9" class="edge"><title>Node6&#45;&gt;Node14</title>
<path fill="none" stroke="midnightblue" d="M719.064,-110.727C779.724,-100.523 871.653,-85.0583 928.375,-75.5164"/>
<polygon fill="midnightblue" stroke="midnightblue" points="718.144,-107.333 708.863,-112.444 719.305,-114.236 718.144,-107.333"/>
</g>
<!-- Node15 -->
<g id="node11" class="node"><title>Node15</title>
<g id="a_node11"><a xlink:href="StageState_8cpp.html" target="_top" xlink:title="Game/src/StageState.cpp">
<polygon fill="white" stroke="black" points="1058,-56.5 1058,-75.5 1188,-75.5 1188,-56.5 1058,-56.5"/>
<text text-anchor="middle" x="1123" y="-63.5" font-family="Helvetica,sans-Serif" font-size="10.00">Game/src/StageState.cpp</text>
</a>
</g>
</g>
<!-- Node6&#45;&gt;Node15 -->
<g id="edge10" class="edge"><title>Node6&#45;&gt;Node15</title>
<path fill="none" stroke="midnightblue" d="M731.616,-112.671C810.225,-103.743 938.438,-89.0854 1049,-76 1051.83,-75.6654 1054.72,-75.3218 1057.63,-74.9732"/>
<polygon fill="midnightblue" stroke="midnightblue" points="730.876,-109.232 721.334,-113.838 731.665,-116.187 730.876,-109.232"/>
</g>
<!-- Node17&#45;&gt;Node15 -->
<g id="edge16" class="edge"><title>Node17&#45;&gt;Node15</title>
<path fill="none" stroke="midnightblue" d="M1237.08,-108.906C1209.44,-98.7536 1170.66,-84.5063 1146.18,-75.5164"/>
<polygon fill="midnightblue" stroke="midnightblue" points="1236.11,-112.281 1246.71,-112.444 1238.53,-105.71 1236.11,-112.281"/>
</g>
<!-- Node18 -->
<g id="node14" class="node"><title>Node18</title>
<g id="a_node14"><a xlink:href="EndState_8h.html" target="_top" xlink:title="Game/include/EndState.h">
<polygon fill="white" stroke="black" points="1206,-56.5 1206,-75.5 1334,-75.5 1334,-56.5 1206,-56.5"/>
<text text-anchor="middle" x="1270" y="-63.5" font-family="Helvetica,sans-Serif" font-size="10.00">Game/include/EndState.h</text>
</a>
</g>
</g>
<!-- Node17&#45;&gt;Node18 -->
<g id="edge13" class="edge"><title>Node17&#45;&gt;Node18</title>
<path fill="none" stroke="midnightblue" d="M1263.53,-102.101C1262.9,-93.1357 1263.34,-82.8579 1264.87,-75.7511"/>
<polygon fill="midnightblue" stroke="midnightblue" points="1260.07,-102.622 1264.83,-112.083 1267.01,-101.713 1260.07,-102.622"/>
</g>
<!-- Node20 -->
<g id="node16" class="node"><title>Node20</title>
<g id="a_node16"><a xlink:href="TitleState_8cpp.html" target="_top" xlink:title="Game/src/TitleState.cpp">
<polygon fill="white" stroke="black" points="1352.5,-56.5 1352.5,-75.5 1475.5,-75.5 1475.5,-56.5 1352.5,-56.5"/>
<text text-anchor="middle" x="1414" y="-63.5" font-family="Helvetica,sans-Serif" font-size="10.00">Game/src/TitleState.cpp</text>
</a>
</g>
</g>
<!-- Node17&#45;&gt;Node20 -->
<g id="edge17" class="edge"><title>Node17&#45;&gt;Node20</title>
<path fill="none" stroke="midnightblue" d="M1302.25,-108.906C1329.32,-98.7536 1367.32,-84.5063 1391.29,-75.5164"/>
<polygon fill="midnightblue" stroke="midnightblue" points="1300.95,-105.655 1292.82,-112.444 1303.41,-112.209 1300.95,-105.655"/>
</g>
<!-- Node18&#45;&gt;Node17 -->
<g id="edge14" class="edge"><title>Node18&#45;&gt;Node17</title>
<path fill="none" stroke="midnightblue" d="M1276.46,-85.6911C1277.11,-94.6353 1276.68,-104.927 1275.17,-112.083"/>
<polygon fill="midnightblue" stroke="midnightblue" points="1279.92,-85.2002 1275.13,-75.7511 1272.98,-86.1262 1279.92,-85.2002"/>
</g>
<!-- Node19 -->
<g id="node15" class="node"><title>Node19</title>
<g id="a_node15"><a xlink:href="EndState_8cpp.html" target="_top" xlink:title="Game/src/EndState.cpp">
<polygon fill="white" stroke="black" points="1209,-0.5 1209,-19.5 1331,-19.5 1331,-0.5 1209,-0.5"/>
<text text-anchor="middle" x="1270" y="-7.5" font-family="Helvetica,sans-Serif" font-size="10.00">Game/src/EndState.cpp</text>
</a>
</g>
</g>
<!-- Node18&#45;&gt;Node19 -->
<g id="edge15" class="edge"><title>Node18&#45;&gt;Node19</title>
<path fill="none" stroke="midnightblue" d="M1270,-45.8045C1270,-36.9102 1270,-26.7798 1270,-19.7511"/>
<polygon fill="midnightblue" stroke="midnightblue" points="1266.5,-46.083 1270,-56.083 1273.5,-46.083 1266.5,-46.083"/>
</g>
<!-- Node21&#45;&gt;Node20 -->
<g id="edge20" class="edge"><title>Node21&#45;&gt;Node20</title>
<path fill="none" stroke="midnightblue" d="M1419.2,-102.101C1417.87,-93.1357 1416.35,-82.8579 1415.3,-75.7511"/>
<polygon fill="midnightblue" stroke="midnightblue" points="1415.75,-102.704 1420.68,-112.083 1422.68,-101.678 1415.75,-102.704"/>
</g>
<!-- Node22 -->
<g id="node18" class="node"><title>Node22</title>
<g id="a_node18"><a xlink:href="main_8cpp.html" target="_top" xlink:title="Game/src/main.cpp">
<polygon fill="white" stroke="black" points="1494,-56.5 1494,-75.5 1596,-75.5 1596,-56.5 1494,-56.5"/>
<text text-anchor="middle" x="1545" y="-63.5" font-family="Helvetica,sans-Serif" font-size="10.00">Game/src/main.cpp</text>
</a>
</g>
</g>
<!-- Node21&#45;&gt;Node22 -->
<g id="edge19" class="edge"><title>Node21&#45;&gt;Node22</title>
<path fill="none" stroke="midnightblue" d="M1450.77,-108.368C1473.81,-98.2553 1505.48,-84.3486 1525.6,-75.5164"/>
<polygon fill="midnightblue" stroke="midnightblue" points="1449.24,-105.219 1441.49,-112.444 1452.05,-111.628 1449.24,-105.219"/>
</g>
</g>
</svg>
