<?xml version="1.0" encoding="UTF-8" standalone="no"?>
<!DOCTYPE svg PUBLIC "-//W3C//DTD SVG 1.1//EN"
 "http://www.w3.org/Graphics/SVG/1.1/DTD/svg11.dtd">
<!-- Generated by graphviz version 2.36.0 (20140111.2315)
 -->
<!-- Title: Engine/include/ActionManager.h Pages: 1 -->
<svg width="220pt" height="140pt"
 viewBox="0.00 0.00 220.00 140.00" xmlns="http://www.w3.org/2000/svg" xmlns:xlink="http://www.w3.org/1999/xlink">
<g id="graph0" class="graph" transform="scale(1 1) rotate(0) translate(4 136)">
<title>Engine/include/ActionManager.h</title>
<polygon fill="white" stroke="none" points="-4,4 -4,-136 216,-136 216,4 -4,4"/>
<!-- Node1 -->
<g id="node1" class="node"><title>Node1</title>
<polygon fill="#bfbfbf" stroke="black" points="27.5,-112.5 27.5,-131.5 184.5,-131.5 184.5,-112.5 27.5,-112.5"/>
<text text-anchor="middle" x="106" y="-119.5" font-family="Helvetica,sans-Serif" font-size="10.00">Engine/include/ActionManager.h</text>
</g>
<!-- Node2 -->
<g id="node2" class="node"><title>Node2</title>
<g id="a_node2"><a xlink:href="InputManager_8h.html" target="_top" xlink:title="InputManager.h">
<polygon fill="white" stroke="black" points="64,-56.5 64,-75.5 148,-75.5 148,-56.5 64,-56.5"/>
<text text-anchor="middle" x="106" y="-63.5" font-family="Helvetica,sans-Serif" font-size="10.00">InputManager.h</text>
</a>
</g>
</g>
<!-- Node1&#45;&gt;Node2 -->
<g id="edge1" class="edge"><title>Node1&#45;&gt;Node2</title>
<path fill="none" stroke="midnightblue" d="M106,-112.083C106,-105.006 106,-94.8611 106,-85.9865"/>
<polygon fill="midnightblue" stroke="midnightblue" points="109.5,-85.751 106,-75.7511 102.5,-85.7511 109.5,-85.751"/>
</g>
<!-- Node3 -->
<g id="node3" class="node"><title>Node3</title>
<g id="a_node3"><a xlink:href="Vec2_8h.html" target="_top" xlink:title="Vec2.h">
<polygon fill="white" stroke="black" points="-0.5,-0.5 -0.5,-19.5 46.5,-19.5 46.5,-0.5 -0.5,-0.5"/>
<text text-anchor="middle" x="23" y="-7.5" font-family="Helvetica,sans-Serif" font-size="10.00">Vec2.h</text>
</a>
</g>
</g>
<!-- Node2&#45;&gt;Node3 -->
<g id="edge2" class="edge"><title>Node2&#45;&gt;Node3</title>
<path fill="none" stroke="midnightblue" d="M92.6646,-56.324C79.838,-47.979 60.215,-35.2122 45.0602,-25.3524"/>
<polygon fill="midnightblue" stroke="midnightblue" points="46.5932,-22.1742 36.3023,-19.6545 42.7757,-28.0417 46.5932,-22.1742"/>
</g>
<!-- Node4 -->
<g id="node4" class="node"><title>Node4</title>
<polygon fill="white" stroke="#bfbfbf" points="64.5,-0.5 64.5,-19.5 147.5,-19.5 147.5,-0.5 64.5,-0.5"/>
<text text-anchor="middle" x="106" y="-7.5" font-family="Helvetica,sans-Serif" font-size="10.00">unordered_map</text>
</g>
<!-- Node2&#45;&gt;Node4 -->
<g id="edge3" class="edge"><title>Node2&#45;&gt;Node4</title>
<path fill="none" stroke="midnightblue" d="M106,-56.083C106,-49.0059 106,-38.8611 106,-29.9865"/>
<polygon fill="midnightblue" stroke="midnightblue" points="109.5,-29.751 106,-19.7511 102.5,-29.7511 109.5,-29.751"/>
</g>
<!-- Node5 -->
<g id="node5" class="node"><title>Node5</title>
<polygon fill="white" stroke="#bfbfbf" points="166,-0.5 166,-19.5 212,-19.5 212,-0.5 166,-0.5"/>
<text text-anchor="middle" x="189" y="-7.5" font-family="Helvetica,sans-Serif" font-size="10.00">cstdint</text>
</g>
<!-- Node2&#45;&gt;Node5 -->
<g id="edge4" class="edge"><title>Node2&#45;&gt;Node5</title>
<path fill="none" stroke="midnightblue" d="M119.335,-56.324C132.162,-47.979 151.785,-35.2122 166.94,-25.3524"/>
<polygon fill="midnightblue" stroke="midnightblue" points="169.224,-28.0417 175.698,-19.6545 165.407,-22.1742 169.224,-28.0417"/>
</g>
</g>
</svg>
