<?xml version="1.0" encoding="UTF-8" standalone="no"?>
<!DOCTYPE svg PUBLIC "-//W3C//DTD SVG 1.1//EN"
 "http://www.w3.org/Graphics/SVG/1.1/DTD/svg11.dtd">
<!-- Generated by graphviz version 2.38.0 (20140413.2041)
 -->
<!-- Title: Game/include/AIEngineer.h Pages: 1 -->
<svg width="416pt" height="84pt"
 viewBox="0.00 0.00 415.50 84.00" xmlns="http://www.w3.org/2000/svg" xmlns:xlink="http://www.w3.org/1999/xlink">
<g id="graph0" class="graph" transform="scale(1 1) rotate(0) translate(4 80)">
<title>Game/include/AIEngineer.h</title>
<polygon fill="white" stroke="none" points="-4,4 -4,-80 411.5,-80 411.5,4 -4,4"/>
<!-- Node1 -->
<g id="node1" class="node"><title>Node1</title>
<polygon fill="#bfbfbf" stroke="black" points="135.5,-56.5 135.5,-75.5 271.5,-75.5 271.5,-56.5 135.5,-56.5"/>
<text text-anchor="middle" x="203.5" y="-63.5" font-family="Helvetica,sans-Serif" font-size="10.00">Game/include/AIEngineer.h</text>
</g>
<!-- Node2 -->
<g id="node2" class="node"><title>Node2</title>
<g id="a_node2"><a xlink:href="AIEngineer_8cpp.html" target="_top" xlink:title="Game/src/AIEngineer.cpp">
<polygon fill="white" stroke="black" points="0,-0.5 0,-19.5 129,-19.5 129,-0.5 0,-0.5"/>
<text text-anchor="middle" x="64.5" y="-7.5" font-family="Helvetica,sans-Serif" font-size="10.00">Game/src/AIEngineer.cpp</text>
</a>
</g>
</g>
<!-- Node1&#45;&gt;Node2 -->
<g id="edge1" class="edge"><title>Node1&#45;&gt;Node2</title>
<path fill="none" stroke="midnightblue" d="M172.024,-52.772C145.915,-42.6287 109.461,-28.4669 86.4219,-19.5164"/>
<polygon fill="midnightblue" stroke="midnightblue" points="170.886,-56.0847 181.475,-56.4435 173.421,-49.5598 170.886,-56.0847"/>
</g>
<!-- Node3 -->
<g id="node3" class="node"><title>Node3</title>
<g id="a_node3"><a xlink:href="Enemy_8cpp.html" target="_top" xlink:title="Game/src/Enemy.cpp">
<polygon fill="white" stroke="black" points="147.5,-0.5 147.5,-19.5 259.5,-19.5 259.5,-0.5 147.5,-0.5"/>
<text text-anchor="middle" x="203.5" y="-7.5" font-family="Helvetica,sans-Serif" font-size="10.00">Game/src/Enemy.cpp</text>
</a>
</g>
</g>
<!-- Node1&#45;&gt;Node3 -->
<g id="edge2" class="edge"><title>Node1&#45;&gt;Node3</title>
<path fill="none" stroke="midnightblue" d="M203.5,-45.8045C203.5,-36.9102 203.5,-26.7798 203.5,-19.7511"/>
<polygon fill="midnightblue" stroke="midnightblue" points="200,-46.083 203.5,-56.083 207,-46.083 200,-46.083"/>
</g>
<!-- Node4 -->
<g id="node4" class="node"><title>Node4</title>
<g id="a_node4"><a xlink:href="StageState_8cpp.html" target="_top" xlink:title="Game/src/StageState.cpp">
<polygon fill="white" stroke="black" points="277.5,-0.5 277.5,-19.5 407.5,-19.5 407.5,-0.5 277.5,-0.5"/>
<text text-anchor="middle" x="342.5" y="-7.5" font-family="Helvetica,sans-Serif" font-size="10.00">Game/src/StageState.cpp</text>
</a>
</g>
</g>
<!-- Node1&#45;&gt;Node4 -->
<g id="edge3" class="edge"><title>Node1&#45;&gt;Node4</title>
<path fill="none" stroke="midnightblue" d="M234.976,-52.772C261.085,-42.6287 297.539,-28.4669 320.578,-19.5164"/>
<polygon fill="midnightblue" stroke="midnightblue" points="233.579,-49.5598 225.525,-56.4435 236.114,-56.0847 233.579,-49.5598"/>
</g>
</g>
</svg>
