<?xml version="1.0" encoding="UTF-8" standalone="no"?>
<!DOCTYPE svg PUBLIC "-//W3C//DTD SVG 1.1//EN"
 "http://www.w3.org/Graphics/SVG/1.1/DTD/svg11.dtd">
<!-- Generated by graphviz version 2.36.0 (20140111.2315)
 -->
<!-- Title: Game/include/AIEngineer.h Pages: 1 -->
<svg width="285pt" height="84pt"
 viewBox="0.00 0.00 285.00 84.00" xmlns="http://www.w3.org/2000/svg" xmlns:xlink="http://www.w3.org/1999/xlink">
<g id="graph0" class="graph" transform="scale(1 1) rotate(0) translate(4 80)">
<title>Game/include/AIEngineer.h</title>
<polygon fill="white" stroke="none" points="-4,4 -4,-80 281,-80 281,4 -4,4"/>
<!-- Node1 -->
<g id="node1" class="node"><title>Node1</title>
<polygon fill="#bfbfbf" stroke="black" points="70,-56.5 70,-75.5 206,-75.5 206,-56.5 70,-56.5"/>
<text text-anchor="middle" x="138" y="-63.5" font-family="Helvetica,sans-Serif" font-size="10.00">Game/include/AIEngineer.h</text>
</g>
<!-- Node2 -->
<g id="node2" class="node"><title>Node2</title>
<g id="a_node2"><a xlink:href="AIEngineer_8cpp.html" target="_top" xlink:title="Game/src/AIEngineer.cpp">
<polygon fill="white" stroke="black" points="-0.5,-0.5 -0.5,-19.5 128.5,-19.5 128.5,-0.5 -0.5,-0.5"/>
<text text-anchor="middle" x="64" y="-7.5" font-family="Helvetica,sans-Serif" font-size="10.00">Game/src/AIEngineer.cpp</text>
</a>
</g>
</g>
<!-- Node1&#45;&gt;Node2 -->
<g id="edge1" class="edge"><title>Node1&#45;&gt;Node2</title>
<path fill="none" stroke="midnightblue" d="M117.966,-50.3804C104.591,-40.6204 87.4412,-28.1057 76.1057,-19.8339"/>
<polygon fill="midnightblue" stroke="midnightblue" points="115.97,-53.2565 126.111,-56.324 120.096,-47.602 115.97,-53.2565"/>
</g>
<!-- Node3 -->
<g id="node3" class="node"><title>Node3</title>
<g id="a_node3"><a xlink:href="StageState_8cpp.html" target="_top" xlink:title="Game/src/StageState.cpp">
<polygon fill="white" stroke="black" points="147,-0.5 147,-19.5 277,-19.5 277,-0.5 147,-0.5"/>
<text text-anchor="middle" x="212" y="-7.5" font-family="Helvetica,sans-Serif" font-size="10.00">Game/src/StageState.cpp</text>
</a>
</g>
</g>
<!-- Node1&#45;&gt;Node3 -->
<g id="edge2" class="edge"><title>Node1&#45;&gt;Node3</title>
<path fill="none" stroke="midnightblue" d="M158.034,-50.3804C171.409,-40.6204 188.559,-28.1057 199.894,-19.8339"/>
<polygon fill="midnightblue" stroke="midnightblue" points="155.904,-47.602 149.889,-56.324 160.03,-53.2565 155.904,-47.602"/>
</g>
</g>
</svg>
