<?xml version="1.0" encoding="UTF-8" standalone="no"?>
<!DOCTYPE svg PUBLIC "-//W3C//DTD SVG 1.1//EN"
 "http://www.w3.org/Graphics/SVG/1.1/DTD/svg11.dtd">
<!-- Generated by graphviz version 2.36.0 (20140111.2315)
 -->
<!-- Title: Game/include/AIGoDown.h Pages: 1 -->
<svg width="838pt" height="140pt"
 viewBox="0.00 0.00 838.00 140.00" xmlns="http://www.w3.org/2000/svg" xmlns:xlink="http://www.w3.org/1999/xlink">
<g id="graph0" class="graph" transform="scale(1 1) rotate(0) translate(4 136)">
<title>Game/include/AIGoDown.h</title>
<polygon fill="white" stroke="none" points="-4,4 -4,-136 834,-136 834,4 -4,4"/>
<!-- Node1 -->
<g id="node1" class="node"><title>Node1</title>
<polygon fill="#bfbfbf" stroke="black" points="267,-112.5 267,-131.5 403,-131.5 403,-112.5 267,-112.5"/>
<text text-anchor="middle" x="335" y="-119.5" font-family="Helvetica,sans-Serif" font-size="10.00">Game/include/AIGoDown.h</text>
</g>
<!-- Node2 -->
<g id="node2" class="node"><title>Node2</title>
<g id="a_node2"><a xlink:href="StageState_8h.html" target="_top" xlink:title="Game/include/StageState.h">
<polygon fill="white" stroke="black" points="266.5,-56.5 266.5,-75.5 403.5,-75.5 403.5,-56.5 266.5,-56.5"/>
<text text-anchor="middle" x="335" y="-63.5" font-family="Helvetica,sans-Serif" font-size="10.00">Game/include/StageState.h</text>
</a>
</g>
</g>
<!-- Node1&#45;&gt;Node2 -->
<g id="edge1" class="edge"><title>Node1&#45;&gt;Node2</title>
<path fill="none" stroke="midnightblue" d="M335,-101.805C335,-92.9102 335,-82.7798 335,-75.7511"/>
<polygon fill="midnightblue" stroke="midnightblue" points="331.5,-102.083 335,-112.083 338.5,-102.083 331.5,-102.083"/>
</g>
<!-- Node4 -->
<g id="node4" class="node"><title>Node4</title>
<g id="a_node4"><a xlink:href="Enemy_8cpp.html" target="_top" xlink:title="Game/src/Enemy.cpp">
<polygon fill="white" stroke="black" points="0,-0.5 0,-19.5 112,-19.5 112,-0.5 0,-0.5"/>
<text text-anchor="middle" x="56" y="-7.5" font-family="Helvetica,sans-Serif" font-size="10.00">Game/src/Enemy.cpp</text>
</a>
</g>
</g>
<!-- Node1&#45;&gt;Node4 -->
<g id="edge9" class="edge"><title>Node1&#45;&gt;Node4</title>
<path fill="none" stroke="midnightblue" d="M303.514,-108.586C246.354,-86.0499 126.895,-38.9513 77.791,-19.5914"/>
<polygon fill="midnightblue" stroke="midnightblue" points="302.521,-111.957 313.107,-112.368 305.088,-105.444 302.521,-111.957"/>
</g>
<!-- Node9 -->
<g id="node9" class="node"><title>Node9</title>
<g id="a_node9"><a xlink:href="AIGoDown_8cpp.html" target="_top" xlink:title="Game/src/AIGoDown.cpp">
<polygon fill="white" stroke="black" points="421.5,-56.5 421.5,-75.5 550.5,-75.5 550.5,-56.5 421.5,-56.5"/>
<text text-anchor="middle" x="486" y="-63.5" font-family="Helvetica,sans-Serif" font-size="10.00">Game/src/AIGoDown.cpp</text>
</a>
</g>
</g>
<!-- Node1&#45;&gt;Node9 -->
<g id="edge8" class="edge"><title>Node1&#45;&gt;Node9</title>
<path fill="none" stroke="midnightblue" d="M368.446,-109.039C396.858,-98.8786 436.937,-84.5457 462.186,-75.5164"/>
<polygon fill="midnightblue" stroke="midnightblue" points="367.164,-105.781 358.926,-112.444 369.521,-112.372 367.164,-105.781"/>
</g>
<!-- Node3 -->
<g id="node3" class="node"><title>Node3</title>
<g id="a_node3"><a xlink:href="EndState_8cpp.html" target="_top" xlink:title="Game/src/EndState.cpp">
<polygon fill="white" stroke="black" points="130,-0.5 130,-19.5 252,-19.5 252,-0.5 130,-0.5"/>
<text text-anchor="middle" x="191" y="-7.5" font-family="Helvetica,sans-Serif" font-size="10.00">Game/src/EndState.cpp</text>
</a>
</g>
</g>
<!-- Node2&#45;&gt;Node3 -->
<g id="edge2" class="edge"><title>Node2&#45;&gt;Node3</title>
<path fill="none" stroke="midnightblue" d="M302.749,-52.9058C275.676,-42.7536 237.683,-28.5063 213.71,-19.5164"/>
<polygon fill="midnightblue" stroke="midnightblue" points="301.591,-56.2094 312.183,-56.4435 304.048,-49.6551 301.591,-56.2094"/>
</g>
<!-- Node2&#45;&gt;Node4 -->
<g id="edge3" class="edge"><title>Node2&#45;&gt;Node4</title>
<path fill="none" stroke="midnightblue" d="M280.942,-54.5371C228.213,-44.3316 148.996,-28.9992 100.002,-19.5164"/>
<polygon fill="midnightblue" stroke="midnightblue" points="280.309,-57.9795 290.792,-56.4435 281.639,-51.107 280.309,-57.9795"/>
</g>
<!-- Node5 -->
<g id="node5" class="node"><title>Node5</title>
<g id="a_node5"><a xlink:href="StageState_8cpp.html" target="_top" xlink:title="Game/src/StageState.cpp">
<polygon fill="white" stroke="black" points="270,-0.5 270,-19.5 400,-19.5 400,-0.5 270,-0.5"/>
<text text-anchor="middle" x="335" y="-7.5" font-family="Helvetica,sans-Serif" font-size="10.00">Game/src/StageState.cpp</text>
</a>
</g>
</g>
<!-- Node2&#45;&gt;Node5 -->
<g id="edge4" class="edge"><title>Node2&#45;&gt;Node5</title>
<path fill="none" stroke="midnightblue" d="M335,-45.8045C335,-36.9102 335,-26.7798 335,-19.7511"/>
<polygon fill="midnightblue" stroke="midnightblue" points="331.5,-46.083 335,-56.083 338.5,-46.083 331.5,-46.083"/>
</g>
<!-- Node6 -->
<g id="node6" class="node"><title>Node6</title>
<g id="a_node6"><a xlink:href="TitleState_8cpp.html" target="_top" xlink:title="Game/src/TitleState.cpp">
<polygon fill="white" stroke="black" points="418.5,-0.5 418.5,-19.5 541.5,-19.5 541.5,-0.5 418.5,-0.5"/>
<text text-anchor="middle" x="480" y="-7.5" font-family="Helvetica,sans-Serif" font-size="10.00">Game/src/TitleState.cpp</text>
</a>
</g>
</g>
<!-- Node2&#45;&gt;Node6 -->
<g id="edge5" class="edge"><title>Node2&#45;&gt;Node6</title>
<path fill="none" stroke="midnightblue" d="M367.475,-52.9058C394.736,-42.7536 432.992,-28.5063 457.132,-19.5164"/>
<polygon fill="midnightblue" stroke="midnightblue" points="366.125,-49.6736 357.976,-56.4435 368.568,-56.2334 366.125,-49.6736"/>
</g>
<!-- Node7 -->
<g id="node7" class="node"><title>Node7</title>
<g id="a_node7"><a xlink:href="Tower_8cpp.html" target="_top" xlink:title="Game/src/Tower.cpp">
<polygon fill="white" stroke="black" points="560,-0.5 560,-19.5 668,-19.5 668,-0.5 560,-0.5"/>
<text text-anchor="middle" x="614" y="-7.5" font-family="Helvetica,sans-Serif" font-size="10.00">Game/src/Tower.cpp</text>
</a>
</g>
</g>
<!-- Node2&#45;&gt;Node7 -->
<g id="edge6" class="edge"><title>Node2&#45;&gt;Node7</title>
<path fill="none" stroke="midnightblue" d="M389.058,-54.5371C441.787,-44.3316 521.004,-28.9992 569.998,-19.5164"/>
<polygon fill="midnightblue" stroke="midnightblue" points="388.361,-51.107 379.208,-56.4435 389.691,-57.9795 388.361,-51.107"/>
</g>
<!-- Node8 -->
<g id="node8" class="node"><title>Node8</title>
<g id="a_node8"><a xlink:href="WaveManager_8cpp.html" target="_top" xlink:title="Game/src/WaveManager.cpp">
<polygon fill="white" stroke="black" points="686,-0.5 686,-19.5 830,-19.5 830,-0.5 686,-0.5"/>
<text text-anchor="middle" x="758" y="-7.5" font-family="Helvetica,sans-Serif" font-size="10.00">Game/src/WaveManager.cpp</text>
</a>
</g>
</g>
<!-- Node2&#45;&gt;Node8 -->
<g id="edge7" class="edge"><title>Node2&#45;&gt;Node8</title>
<path fill="none" stroke="midnightblue" d="M412.026,-55.1669C491.889,-44.9716 615.462,-29.1963 691.288,-19.5164"/>
<polygon fill="midnightblue" stroke="midnightblue" points="411.502,-51.7053 402.026,-56.4435 412.388,-58.649 411.502,-51.7053"/>
</g>
</g>
</svg>
