<?xml version="1.0" encoding="UTF-8" standalone="no"?>
<!DOCTYPE svg PUBLIC "-//W3C//DTD SVG 1.1//EN"
 "http://www.w3.org/Graphics/SVG/1.1/DTD/svg11.dtd">
<!-- Generated by graphviz version 2.38.0 (20140413.2041)
 -->
<!-- Title: Engine/include/AIGoDown.h Pages: 1 -->
<svg width="431pt" height="308pt"
 viewBox="0.00 0.00 430.50 308.00" xmlns="http://www.w3.org/2000/svg" xmlns:xlink="http://www.w3.org/1999/xlink">
<g id="graph0" class="graph" transform="scale(1 1) rotate(0) translate(4 304)">
<title>Engine/include/AIGoDown.h</title>
<polygon fill="white" stroke="none" points="-4,4 -4,-304 426.5,-304 426.5,4 -4,4"/>
<!-- Node0 -->
<g id="node1" class="node"><title>Node0</title>
<polygon fill="#bfbfbf" stroke="black" points="105.5,-280.5 105.5,-299.5 245.5,-299.5 245.5,-280.5 105.5,-280.5"/>
<text text-anchor="middle" x="175.5" y="-287.5" font-family="Helvetica,sans-Serif" font-size="10.00">Engine/include/AIGoDown.h</text>
</g>
<!-- Node1 -->
<g id="node2" class="node"><title>Node1</title>
<g id="a_node2"><a xlink:href="Component_8h.html" target="_top" xlink:title="Component.h">
<polygon fill="white" stroke="black" points="138,-224.5 138,-243.5 213,-243.5 213,-224.5 138,-224.5"/>
<text text-anchor="middle" x="175.5" y="-231.5" font-family="Helvetica,sans-Serif" font-size="10.00">Component.h</text>
</a>
</g>
</g>
<!-- Node0&#45;&gt;Node1 -->
<g id="edge1" class="edge"><title>Node0&#45;&gt;Node1</title>
<path fill="none" stroke="midnightblue" d="M175.5,-280.083C175.5,-273.006 175.5,-262.861 175.5,-253.986"/>
<polygon fill="midnightblue" stroke="midnightblue" points="179,-253.751 175.5,-243.751 172,-253.751 179,-253.751"/>
</g>
<!-- Node2 -->
<g id="node3" class="node"><title>Node2</title>
<g id="a_node3"><a xlink:href="ComponentType_8h.html" target="_top" xlink:title="ComponentType.h">
<polygon fill="white" stroke="black" points="0,-112.5 0,-131.5 97,-131.5 97,-112.5 0,-112.5"/>
<text text-anchor="middle" x="48.5" y="-119.5" font-family="Helvetica,sans-Serif" font-size="10.00">ComponentType.h</text>
</a>
</g>
</g>
<!-- Node1&#45;&gt;Node2 -->
<g id="edge2" class="edge"><title>Node1&#45;&gt;Node2</title>
<path fill="none" stroke="midnightblue" d="M165.535,-224.368C144.112,-205.814 93.4268,-161.913 66.3234,-138.438"/>
<polygon fill="midnightblue" stroke="midnightblue" points="68.2695,-135.493 58.4192,-131.591 63.6866,-140.784 68.2695,-135.493"/>
</g>
<!-- Node3 -->
<g id="node4" class="node"><title>Node3</title>
<g id="a_node4"><a xlink:href="GameObject_8h.html" target="_top" xlink:title="GameObject.h">
<polygon fill="white" stroke="black" points="135.5,-168.5 135.5,-187.5 215.5,-187.5 215.5,-168.5 135.5,-168.5"/>
<text text-anchor="middle" x="175.5" y="-175.5" font-family="Helvetica,sans-Serif" font-size="10.00">GameObject.h</text>
</a>
</g>
</g>
<!-- Node1&#45;&gt;Node3 -->
<g id="edge3" class="edge"><title>Node1&#45;&gt;Node3</title>
<path fill="none" stroke="midnightblue" d="M170.334,-224.083C168.824,-216.927 168.394,-206.635 169.042,-197.691"/>
<polygon fill="midnightblue" stroke="midnightblue" points="172.515,-198.126 170.369,-187.751 165.577,-197.2 172.515,-198.126"/>
</g>
<!-- Node3&#45;&gt;Node1 -->
<g id="edge8" class="edge"><title>Node3&#45;&gt;Node1</title>
<path fill="none" stroke="midnightblue" d="M180.631,-187.751C182.157,-194.858 182.604,-205.136 181.972,-214.101"/>
<polygon fill="midnightblue" stroke="midnightblue" points="178.493,-213.713 180.666,-224.083 185.434,-214.622 178.493,-213.713"/>
</g>
<!-- Node3&#45;&gt;Node2 -->
<g id="edge9" class="edge"><title>Node3&#45;&gt;Node2</title>
<path fill="none" stroke="midnightblue" d="M155.376,-168.444C134.476,-159.557 101.565,-145.563 77.7839,-135.451"/>
<polygon fill="midnightblue" stroke="midnightblue" points="79.1016,-132.208 68.5294,-131.516 76.3625,-138.65 79.1016,-132.208"/>
</g>
<!-- Node4 -->
<g id="node5" class="node"><title>Node4</title>
<g id="a_node5"><a xlink:href="SDL__include_8h.html" target="_top" xlink:title="SDL_include.h">
<polygon fill="white" stroke="black" points="244.5,-0.5 244.5,-19.5 324.5,-19.5 324.5,-0.5 244.5,-0.5"/>
<text text-anchor="middle" x="284.5" y="-7.5" font-family="Helvetica,sans-Serif" font-size="10.00">SDL_include.h</text>
</a>
</g>
</g>
<!-- Node3&#45;&gt;Node4 -->
<g id="edge4" class="edge"><title>Node3&#45;&gt;Node4</title>
<path fill="none" stroke="midnightblue" d="M165.797,-168.092C153.31,-155.498 134.364,-131.812 144.5,-112 166.926,-68.1676 218.224,-38.9987 252.102,-23.7243"/>
<polygon fill="midnightblue" stroke="midnightblue" points="253.804,-26.8012 261.581,-19.6064 251.014,-20.3809 253.804,-26.8012"/>
</g>
<!-- Node5 -->
<g id="node6" class="node"><title>Node5</title>
<polygon fill="white" stroke="#bfbfbf" points="153.5,-112.5 153.5,-131.5 197.5,-131.5 197.5,-112.5 153.5,-112.5"/>
<text text-anchor="middle" x="175.5" y="-119.5" font-family="Helvetica,sans-Serif" font-size="10.00">vector</text>
</g>
<!-- Node3&#45;&gt;Node5 -->
<g id="edge5" class="edge"><title>Node3&#45;&gt;Node5</title>
<path fill="none" stroke="midnightblue" d="M175.5,-168.083C175.5,-161.006 175.5,-150.861 175.5,-141.986"/>
<polygon fill="midnightblue" stroke="midnightblue" points="179,-141.751 175.5,-131.751 172,-141.751 179,-141.751"/>
</g>
<!-- Node6 -->
<g id="node7" class="node"><title>Node6</title>
<polygon fill="white" stroke="#bfbfbf" points="215.5,-112.5 215.5,-131.5 267.5,-131.5 267.5,-112.5 215.5,-112.5"/>
<text text-anchor="middle" x="241.5" y="-119.5" font-family="Helvetica,sans-Serif" font-size="10.00">memory</text>
</g>
<!-- Node3&#45;&gt;Node6 -->
<g id="edge6" class="edge"><title>Node3&#45;&gt;Node6</title>
<path fill="none" stroke="midnightblue" d="M186.104,-168.324C195.956,-160.263 210.851,-148.077 222.715,-138.369"/>
<polygon fill="midnightblue" stroke="midnightblue" points="225.18,-140.875 230.703,-131.834 220.747,-135.457 225.18,-140.875"/>
</g>
<!-- Node7 -->
<g id="node8" class="node"><title>Node7</title>
<polygon fill="white" stroke="#bfbfbf" points="286,-112.5 286,-131.5 327,-131.5 327,-112.5 286,-112.5"/>
<text text-anchor="middle" x="306.5" y="-119.5" font-family="Helvetica,sans-Serif" font-size="10.00">string</text>
</g>
<!-- Node3&#45;&gt;Node7 -->
<g id="edge7" class="edge"><title>Node3&#45;&gt;Node7</title>
<path fill="none" stroke="midnightblue" d="M196.257,-168.444C217.816,-159.557 251.763,-145.563 276.294,-135.451"/>
<polygon fill="midnightblue" stroke="midnightblue" points="277.928,-138.563 285.84,-131.516 275.261,-132.092 277.928,-138.563"/>
</g>
<!-- Node8 -->
<g id="node9" class="node"><title>Node8</title>
<g id="a_node9"><a xlink:href="Rect_8h.html" target="_top" xlink:title="Rect.h">
<polygon fill="white" stroke="black" points="345.5,-112.5 345.5,-131.5 391.5,-131.5 391.5,-112.5 345.5,-112.5"/>
<text text-anchor="middle" x="368.5" y="-119.5" font-family="Helvetica,sans-Serif" font-size="10.00">Rect.h</text>
</a>
</g>
</g>
<!-- Node3&#45;&gt;Node8 -->
<g id="edge10" class="edge"><title>Node3&#45;&gt;Node8</title>
<path fill="none" stroke="midnightblue" d="M206.069,-168.472C236.497,-159.979 284.79,-146.491 335.582,-132.254"/>
<polygon fill="midnightblue" stroke="midnightblue" points="336.745,-135.563 345.429,-129.493 334.856,-128.823 336.745,-135.563"/>
</g>
<!-- Node8&#45;&gt;Node4 -->
<g id="edge11" class="edge"><title>Node8&#45;&gt;Node4</title>
<path fill="none" stroke="midnightblue" d="M350.247,-112.415C335.859,-104.763 316.315,-92.2642 304.5,-76 294.633,-62.4176 289.557,-43.8711 286.994,-30.0649"/>
<polygon fill="midnightblue" stroke="midnightblue" points="290.39,-29.1318 285.382,-19.7957 283.475,-30.2175 290.39,-29.1318"/>
</g>
<!-- Node9 -->
<g id="node10" class="node"><title>Node9</title>
<g id="a_node10"><a xlink:href="Vec2_8h.html" target="_top" xlink:title="Vec2.h">
<polygon fill="white" stroke="black" points="313,-56.5 313,-75.5 360,-75.5 360,-56.5 313,-56.5"/>
<text text-anchor="middle" x="336.5" y="-63.5" font-family="Helvetica,sans-Serif" font-size="10.00">Vec2.h</text>
</a>
</g>
</g>
<!-- Node8&#45;&gt;Node9 -->
<g id="edge12" class="edge"><title>Node8&#45;&gt;Node9</title>
<path fill="none" stroke="midnightblue" d="M363.216,-112.083C358.789,-104.613 352.337,-93.7244 346.882,-84.5199"/>
<polygon fill="midnightblue" stroke="midnightblue" points="349.795,-82.5697 341.686,-75.7511 343.773,-86.1383 349.795,-82.5697"/>
</g>
<!-- Node10 -->
<g id="node11" class="node"><title>Node10</title>
<polygon fill="white" stroke="#bfbfbf" points="378.5,-56.5 378.5,-75.5 422.5,-75.5 422.5,-56.5 378.5,-56.5"/>
<text text-anchor="middle" x="400.5" y="-63.5" font-family="Helvetica,sans-Serif" font-size="10.00">cmath</text>
</g>
<!-- Node8&#45;&gt;Node10 -->
<g id="edge14" class="edge"><title>Node8&#45;&gt;Node10</title>
<path fill="none" stroke="midnightblue" d="M373.784,-112.083C378.211,-104.613 384.663,-93.7244 390.118,-84.5199"/>
<polygon fill="midnightblue" stroke="midnightblue" points="393.227,-86.1383 395.314,-75.7511 387.205,-82.5697 393.227,-86.1383"/>
</g>
<!-- Node9&#45;&gt;Node4 -->
<g id="edge13" class="edge"><title>Node9&#45;&gt;Node4</title>
<path fill="none" stroke="midnightblue" d="M327.913,-56.083C320.341,-48.2195 309.122,-36.5688 299.986,-27.0813"/>
<polygon fill="midnightblue" stroke="midnightblue" points="302.385,-24.5266 292.927,-19.7511 297.342,-29.3821 302.385,-24.5266"/>
</g>
</g>
</svg>
