<?xml version="1.0" encoding="UTF-8" standalone="no"?>
<!DOCTYPE svg PUBLIC "-//W3C//DTD SVG 1.1//EN"
 "http://www.w3.org/Graphics/SVG/1.1/DTD/svg11.dtd">
<!-- Generated by graphviz version 2.38.0 (20140413.2041)
 -->
<!-- Title: Engine/include/Animation.h Pages: 1 -->
<svg width="339pt" height="196pt"
 viewBox="0.00 0.00 339.00 196.00" xmlns="http://www.w3.org/2000/svg" xmlns:xlink="http://www.w3.org/1999/xlink">
<g id="graph0" class="graph" transform="scale(1 1) rotate(0) translate(4 192)">
<title>Engine/include/Animation.h</title>
<polygon fill="white" stroke="none" points="-4,4 -4,-192 335,-192 335,4 -4,4"/>
<!-- Node0 -->
<g id="node1" class="node"><title>Node0</title>
<polygon fill="#bfbfbf" stroke="black" points="92,-168.5 92,-187.5 227,-187.5 227,-168.5 92,-168.5"/>
<text text-anchor="middle" x="159.5" y="-175.5" font-family="Helvetica,sans-Serif" font-size="10.00">Engine/include/Animation.h</text>
</g>
<!-- Node1 -->
<g id="node2" class="node"><title>Node1</title>
<g id="a_node2"><a xlink:href="Gameobject_8h.html" target="_top" xlink:title="Gameobject.h">
<polygon fill="white" stroke="black" points="121,-112.5 121,-131.5 198,-131.5 198,-112.5 121,-112.5"/>
<text text-anchor="middle" x="159.5" y="-119.5" font-family="Helvetica,sans-Serif" font-size="10.00">Gameobject.h</text>
</a>
</g>
</g>
<!-- Node0&#45;&gt;Node1 -->
<g id="edge1" class="edge"><title>Node0&#45;&gt;Node1</title>
<path fill="none" stroke="midnightblue" d="M159.5,-168.083C159.5,-161.006 159.5,-150.861 159.5,-141.986"/>
<polygon fill="midnightblue" stroke="midnightblue" points="163,-141.751 159.5,-131.751 156,-141.751 163,-141.751"/>
</g>
<!-- Node9 -->
<g id="node10" class="node"><title>Node9</title>
<g id="a_node10"><a xlink:href="Timer_8h.html" target="_top" xlink:title="Timer.h">
<polygon fill="white" stroke="black" points="216.5,-112.5 216.5,-131.5 266.5,-131.5 266.5,-112.5 216.5,-112.5"/>
<text text-anchor="middle" x="241.5" y="-119.5" font-family="Helvetica,sans-Serif" font-size="10.00">Timer.h</text>
</a>
</g>
</g>
<!-- Node0&#45;&gt;Node9 -->
<g id="edge10" class="edge"><title>Node0&#45;&gt;Node9</title>
<path fill="none" stroke="midnightblue" d="M172.675,-168.324C185.347,-159.979 204.733,-147.212 219.706,-137.352"/>
<polygon fill="midnightblue" stroke="midnightblue" points="221.931,-140.078 228.358,-131.655 218.081,-134.231 221.931,-140.078"/>
</g>
<!-- Node10 -->
<g id="node11" class="node"><title>Node10</title>
<g id="a_node11"><a xlink:href="Sprite_8h.html" target="_top" xlink:title="Sprite.h">
<polygon fill="white" stroke="black" points="52.5,-112.5 52.5,-131.5 102.5,-131.5 102.5,-112.5 52.5,-112.5"/>
<text text-anchor="middle" x="77.5" y="-119.5" font-family="Helvetica,sans-Serif" font-size="10.00">Sprite.h</text>
</a>
</g>
</g>
<!-- Node0&#45;&gt;Node10 -->
<g id="edge11" class="edge"><title>Node0&#45;&gt;Node10</title>
<path fill="none" stroke="midnightblue" d="M146.325,-168.324C133.653,-159.979 114.267,-147.212 99.2944,-137.352"/>
<polygon fill="midnightblue" stroke="midnightblue" points="100.919,-134.231 90.642,-131.655 97.0688,-140.078 100.919,-134.231"/>
</g>
<!-- Node2 -->
<g id="node3" class="node"><title>Node2</title>
<polygon fill="white" stroke="#bfbfbf" points="129.5,-56.5 129.5,-75.5 173.5,-75.5 173.5,-56.5 129.5,-56.5"/>
<text text-anchor="middle" x="151.5" y="-63.5" font-family="Helvetica,sans-Serif" font-size="10.00">vector</text>
</g>
<!-- Node1&#45;&gt;Node2 -->
<g id="edge2" class="edge"><title>Node1&#45;&gt;Node2</title>
<path fill="none" stroke="midnightblue" d="M158.179,-112.083C157.119,-104.927 155.594,-94.6353 154.269,-85.6911"/>
<polygon fill="midnightblue" stroke="midnightblue" points="157.724,-85.1302 152.796,-75.7511 150.8,-86.1561 157.724,-85.1302"/>
</g>
<!-- Node3 -->
<g id="node4" class="node"><title>Node3</title>
<polygon fill="white" stroke="#bfbfbf" points="59.5,-56.5 59.5,-75.5 111.5,-75.5 111.5,-56.5 59.5,-56.5"/>
<text text-anchor="middle" x="85.5" y="-63.5" font-family="Helvetica,sans-Serif" font-size="10.00">memory</text>
</g>
<!-- Node1&#45;&gt;Node3 -->
<g id="edge3" class="edge"><title>Node1&#45;&gt;Node3</title>
<path fill="none" stroke="midnightblue" d="M147.611,-112.324C136.35,-104.107 119.213,-91.6017 105.791,-81.8069"/>
<polygon fill="midnightblue" stroke="midnightblue" points="107.747,-78.9014 97.6057,-75.8339 103.62,-84.5559 107.747,-78.9014"/>
</g>
<!-- Node4 -->
<g id="node5" class="node"><title>Node4</title>
<g id="a_node5"><a xlink:href="Rect_8h.html" target="_top" xlink:title="Rect.h">
<polygon fill="white" stroke="black" points="191.5,-56.5 191.5,-75.5 237.5,-75.5 237.5,-56.5 191.5,-56.5"/>
<text text-anchor="middle" x="214.5" y="-63.5" font-family="Helvetica,sans-Serif" font-size="10.00">Rect.h</text>
</a>
</g>
</g>
<!-- Node1&#45;&gt;Node4 -->
<g id="edge4" class="edge"><title>Node1&#45;&gt;Node4</title>
<path fill="none" stroke="midnightblue" d="M168.582,-112.083C176.671,-104.141 188.695,-92.3354 198.41,-82.7973"/>
<polygon fill="midnightblue" stroke="midnightblue" points="200.903,-85.2545 205.587,-75.7511 195.999,-80.2595 200.903,-85.2545"/>
</g>
<!-- Node7 -->
<g id="node8" class="node"><title>Node7</title>
<polygon fill="white" stroke="#bfbfbf" points="0,-56.5 0,-75.5 41,-75.5 41,-56.5 0,-56.5"/>
<text text-anchor="middle" x="20.5" y="-63.5" font-family="Helvetica,sans-Serif" font-size="10.00">string</text>
</g>
<!-- Node1&#45;&gt;Node7 -->
<g id="edge7" class="edge"><title>Node1&#45;&gt;Node7</title>
<path fill="none" stroke="midnightblue" d="M137.475,-112.444C113.989,-103.319 76.647,-88.8125 50.4883,-78.6501"/>
<polygon fill="midnightblue" stroke="midnightblue" points="51.6513,-75.3471 41.0625,-74.9883 49.1164,-81.8721 51.6513,-75.3471"/>
</g>
<!-- Node8 -->
<g id="node9" class="node"><title>Node8</title>
<g id="a_node9"><a xlink:href="Component_8h.html" target="_top" xlink:title="Component.h">
<polygon fill="white" stroke="black" points="256,-56.5 256,-75.5 331,-75.5 331,-56.5 256,-56.5"/>
<text text-anchor="middle" x="293.5" y="-63.5" font-family="Helvetica,sans-Serif" font-size="10.00">Component.h</text>
</a>
</g>
</g>
<!-- Node1&#45;&gt;Node8 -->
<g id="edge8" class="edge"><title>Node1&#45;&gt;Node8</title>
<path fill="none" stroke="midnightblue" d="M175.644,-112.444C196.015,-103.438 231.16,-89.1891 257.871,-79.049"/>
<polygon fill="midnightblue" stroke="midnightblue" points="259.153,-82.3061 267.287,-75.5164 256.694,-75.7521 259.153,-82.3061"/>
</g>
<!-- Node5 -->
<g id="node6" class="node"><title>Node5</title>
<g id="a_node6"><a xlink:href="Vec2_8h.html" target="_top" xlink:title="Vec2.h">
<polygon fill="white" stroke="black" points="159,-0.5 159,-19.5 206,-19.5 206,-0.5 159,-0.5"/>
<text text-anchor="middle" x="182.5" y="-7.5" font-family="Helvetica,sans-Serif" font-size="10.00">Vec2.h</text>
</a>
</g>
</g>
<!-- Node4&#45;&gt;Node5 -->
<g id="edge5" class="edge"><title>Node4&#45;&gt;Node5</title>
<path fill="none" stroke="midnightblue" d="M209.216,-56.083C204.789,-48.6127 198.337,-37.7244 192.882,-28.5199"/>
<polygon fill="midnightblue" stroke="midnightblue" points="195.795,-26.5697 187.686,-19.7511 189.773,-30.1383 195.795,-26.5697"/>
</g>
<!-- Node6 -->
<g id="node7" class="node"><title>Node6</title>
<polygon fill="white" stroke="#bfbfbf" points="224.5,-0.5 224.5,-19.5 268.5,-19.5 268.5,-0.5 224.5,-0.5"/>
<text text-anchor="middle" x="246.5" y="-7.5" font-family="Helvetica,sans-Serif" font-size="10.00">cmath</text>
</g>
<!-- Node4&#45;&gt;Node6 -->
<g id="edge6" class="edge"><title>Node4&#45;&gt;Node6</title>
<path fill="none" stroke="midnightblue" d="M219.784,-56.083C224.211,-48.6127 230.663,-37.7244 236.118,-28.5199"/>
<polygon fill="midnightblue" stroke="midnightblue" points="239.227,-30.1383 241.314,-19.7511 233.205,-26.5697 239.227,-30.1383"/>
</g>
<!-- Node8&#45;&gt;Node1 -->
<g id="edge9" class="edge"><title>Node8&#45;&gt;Node1</title>
<path fill="none" stroke="midnightblue" d="M277.447,-75.5164C257.119,-84.5063 221.984,-98.7536 195.248,-108.906"/>
<polygon fill="midnightblue" stroke="midnightblue" points="193.954,-105.653 185.821,-112.444 196.414,-112.207 193.954,-105.653"/>
</g>
<!-- Node10&#45;&gt;Node3 -->
<g id="edge13" class="edge"><title>Node10&#45;&gt;Node3</title>
<path fill="none" stroke="midnightblue" d="M78.821,-112.083C79.8811,-104.927 81.4059,-94.6353 82.7309,-85.6911"/>
<polygon fill="midnightblue" stroke="midnightblue" points="86.2002,-86.1561 84.2035,-75.7511 79.2758,-85.1302 86.2002,-86.1561"/>
</g>
<!-- Node10&#45;&gt;Node7 -->
<g id="edge12" class="edge"><title>Node10&#45;&gt;Node7</title>
<path fill="none" stroke="midnightblue" d="M68.342,-112.324C59.9985,-104.42 47.4676,-92.5482 37.3231,-82.9377"/>
<polygon fill="midnightblue" stroke="midnightblue" points="39.4913,-80.1705 29.8247,-75.8339 34.6771,-85.2522 39.4913,-80.1705"/>
</g>
</g>
</svg>
