<?xml version="1.0" encoding="UTF-8" standalone="no"?>
<!DOCTYPE svg PUBLIC "-//W3C//DTD SVG 1.1//EN"
 "http://www.w3.org/Graphics/SVG/1.1/DTD/svg11.dtd">
<!-- Generated by graphviz version 2.38.0 (20140413.2041)
 -->
<!-- Title: Engine/src/Animation.cpp Pages: 1 -->
<svg width="436pt" height="252pt"
 viewBox="0.00 0.00 436.00 252.00" xmlns="http://www.w3.org/2000/svg" xmlns:xlink="http://www.w3.org/1999/xlink">
<g id="graph0" class="graph" transform="scale(1 1) rotate(0) translate(4 248)">
<title>Engine/src/Animation.cpp</title>
<polygon fill="white" stroke="none" points="-4,4 -4,-248 432,-248 432,4 -4,4"/>
<!-- Node0 -->
<g id="node1" class="node"><title>Node0</title>
<polygon fill="#bfbfbf" stroke="black" points="195,-224.5 195,-243.5 323,-243.5 323,-224.5 195,-224.5"/>
<text text-anchor="middle" x="259" y="-231.5" font-family="Helvetica,sans-Serif" font-size="10.00">Engine/src/Animation.cpp</text>
</g>
<!-- Node1 -->
<g id="node2" class="node"><title>Node1</title>
<g id="a_node2"><a xlink:href="Animation_8h.html" target="_top" xlink:title="Animation.h">
<polygon fill="white" stroke="black" points="283,-168.5 283,-187.5 351,-187.5 351,-168.5 283,-168.5"/>
<text text-anchor="middle" x="317" y="-175.5" font-family="Helvetica,sans-Serif" font-size="10.00">Animation.h</text>
</a>
</g>
</g>
<!-- Node0&#45;&gt;Node1 -->
<g id="edge1" class="edge"><title>Node0&#45;&gt;Node1</title>
<path fill="none" stroke="midnightblue" d="M268.319,-224.324C276.893,-216.341 289.812,-204.313 300.188,-194.653"/>
<polygon fill="midnightblue" stroke="midnightblue" points="302.578,-197.21 307.512,-187.834 297.808,-192.086 302.578,-197.21"/>
</g>
<!-- Node10 -->
<g id="node11" class="node"><title>Node10</title>
<g id="a_node11"><a xlink:href="Camera_8h.html" target="_top" xlink:title="Camera.h">
<polygon fill="white" stroke="black" points="172.5,-168.5 172.5,-187.5 231.5,-187.5 231.5,-168.5 172.5,-168.5"/>
<text text-anchor="middle" x="202" y="-175.5" font-family="Helvetica,sans-Serif" font-size="10.00">Camera.h</text>
</a>
</g>
</g>
<!-- Node0&#45;&gt;Node10 -->
<g id="edge11" class="edge"><title>Node0&#45;&gt;Node10</title>
<path fill="none" stroke="midnightblue" d="M249.842,-224.324C241.499,-216.42 228.968,-204.548 218.823,-194.938"/>
<polygon fill="midnightblue" stroke="midnightblue" points="220.991,-192.171 211.325,-187.834 216.177,-197.252 220.991,-192.171"/>
</g>
<!-- Node2 -->
<g id="node3" class="node"><title>Node2</title>
<g id="a_node3"><a xlink:href="Gameobject_8h.html" target="_top" xlink:title="Gameobject.h">
<polygon fill="white" stroke="black" points="213.5,-112.5 213.5,-131.5 290.5,-131.5 290.5,-112.5 213.5,-112.5"/>
<text text-anchor="middle" x="252" y="-119.5" font-family="Helvetica,sans-Serif" font-size="10.00">Gameobject.h</text>
</a>
</g>
</g>
<!-- Node1&#45;&gt;Node2 -->
<g id="edge2" class="edge"><title>Node1&#45;&gt;Node2</title>
<path fill="none" stroke="midnightblue" d="M306.557,-168.324C296.854,-160.263 282.185,-148.077 270.5,-138.369"/>
<polygon fill="midnightblue" stroke="midnightblue" points="272.562,-135.532 262.633,-131.834 268.089,-140.916 272.562,-135.532"/>
</g>
<!-- Node7 -->
<g id="node8" class="node"><title>Node7</title>
<g id="a_node8"><a xlink:href="Timer_8h.html" target="_top" xlink:title="Timer.h">
<polygon fill="white" stroke="black" points="309,-112.5 309,-131.5 359,-131.5 359,-112.5 309,-112.5"/>
<text text-anchor="middle" x="334" y="-119.5" font-family="Helvetica,sans-Serif" font-size="10.00">Timer.h</text>
</a>
</g>
</g>
<!-- Node1&#45;&gt;Node7 -->
<g id="edge7" class="edge"><title>Node1&#45;&gt;Node7</title>
<path fill="none" stroke="midnightblue" d="M319.807,-168.083C322.085,-160.849 325.371,-150.409 328.208,-141.397"/>
<polygon fill="midnightblue" stroke="midnightblue" points="331.581,-142.341 331.245,-131.751 324.904,-140.239 331.581,-142.341"/>
</g>
<!-- Node8 -->
<g id="node9" class="node"><title>Node8</title>
<g id="a_node9"><a xlink:href="Sprite_8h.html" target="_top" xlink:title="Sprite.h">
<polygon fill="white" stroke="black" points="377,-112.5 377,-131.5 427,-131.5 427,-112.5 377,-112.5"/>
<text text-anchor="middle" x="402" y="-119.5" font-family="Helvetica,sans-Serif" font-size="10.00">Sprite.h</text>
</a>
</g>
</g>
<!-- Node1&#45;&gt;Node8 -->
<g id="edge8" class="edge"><title>Node1&#45;&gt;Node8</title>
<path fill="none" stroke="midnightblue" d="M330.657,-168.324C343.916,-159.9 364.268,-146.971 379.846,-137.074"/>
<polygon fill="midnightblue" stroke="midnightblue" points="381.813,-139.971 388.377,-131.655 378.06,-134.063 381.813,-139.971"/>
</g>
<!-- Node3 -->
<g id="node4" class="node"><title>Node3</title>
<g id="a_node4"><a xlink:href="Rect_8h.html" target="_top" xlink:title="Rect.h">
<polygon fill="white" stroke="black" points="229,-56.5 229,-75.5 275,-75.5 275,-56.5 229,-56.5"/>
<text text-anchor="middle" x="252" y="-63.5" font-family="Helvetica,sans-Serif" font-size="10.00">Rect.h</text>
</a>
</g>
</g>
<!-- Node2&#45;&gt;Node3 -->
<g id="edge3" class="edge"><title>Node2&#45;&gt;Node3</title>
<path fill="none" stroke="midnightblue" d="M252,-112.083C252,-105.006 252,-94.8611 252,-85.9865"/>
<polygon fill="midnightblue" stroke="midnightblue" points="255.5,-85.751 252,-75.7511 248.5,-85.7511 255.5,-85.751"/>
</g>
<!-- Node6 -->
<g id="node7" class="node"><title>Node6</title>
<polygon fill="white" stroke="#bfbfbf" points="304.5,-56.5 304.5,-75.5 345.5,-75.5 345.5,-56.5 304.5,-56.5"/>
<text text-anchor="middle" x="325" y="-63.5" font-family="Helvetica,sans-Serif" font-size="10.00">string</text>
</g>
<!-- Node2&#45;&gt;Node6 -->
<g id="edge6" class="edge"><title>Node2&#45;&gt;Node6</title>
<path fill="none" stroke="midnightblue" d="M263.729,-112.324C274.837,-104.107 291.742,-91.6017 304.983,-81.8069"/>
<polygon fill="midnightblue" stroke="midnightblue" points="307.1,-84.5948 313.058,-75.8339 302.937,-78.9671 307.1,-84.5948"/>
</g>
<!-- Node4 -->
<g id="node5" class="node"><title>Node4</title>
<g id="a_node5"><a xlink:href="Vec2_8h.html" target="_top" xlink:title="Vec2.h">
<polygon fill="white" stroke="black" points="165.5,-0.5 165.5,-19.5 212.5,-19.5 212.5,-0.5 165.5,-0.5"/>
<text text-anchor="middle" x="189" y="-7.5" font-family="Helvetica,sans-Serif" font-size="10.00">Vec2.h</text>
</a>
</g>
</g>
<!-- Node3&#45;&gt;Node4 -->
<g id="edge4" class="edge"><title>Node3&#45;&gt;Node4</title>
<path fill="none" stroke="midnightblue" d="M241.878,-56.324C232.474,-48.2631 218.256,-36.0765 206.931,-26.3695"/>
<polygon fill="midnightblue" stroke="midnightblue" points="209.177,-23.6844 199.306,-19.8339 204.621,-28.9993 209.177,-23.6844"/>
</g>
<!-- Node5 -->
<g id="node6" class="node"><title>Node5</title>
<polygon fill="white" stroke="#bfbfbf" points="231,-0.5 231,-19.5 275,-19.5 275,-0.5 231,-0.5"/>
<text text-anchor="middle" x="253" y="-7.5" font-family="Helvetica,sans-Serif" font-size="10.00">cmath</text>
</g>
<!-- Node3&#45;&gt;Node5 -->
<g id="edge5" class="edge"><title>Node3&#45;&gt;Node5</title>
<path fill="none" stroke="midnightblue" d="M252.165,-56.083C252.296,-49.0059 252.484,-38.8611 252.648,-29.9865"/>
<polygon fill="midnightblue" stroke="midnightblue" points="256.152,-29.8142 252.838,-19.7511 249.153,-29.6845 256.152,-29.8142"/>
</g>
<!-- Node8&#45;&gt;Node6 -->
<g id="edge9" class="edge"><title>Node8&#45;&gt;Node6</title>
<path fill="none" stroke="midnightblue" d="M389.629,-112.324C377.842,-104.058 359.868,-91.4527 345.864,-81.6322"/>
<polygon fill="midnightblue" stroke="midnightblue" points="347.538,-78.5307 337.341,-75.6545 343.518,-84.2619 347.538,-78.5307"/>
</g>
<!-- Node9 -->
<g id="node10" class="node"><title>Node9</title>
<polygon fill="white" stroke="#bfbfbf" points="376,-56.5 376,-75.5 428,-75.5 428,-56.5 376,-56.5"/>
<text text-anchor="middle" x="402" y="-63.5" font-family="Helvetica,sans-Serif" font-size="10.00">memory</text>
</g>
<!-- Node8&#45;&gt;Node9 -->
<g id="edge10" class="edge"><title>Node8&#45;&gt;Node9</title>
<path fill="none" stroke="midnightblue" d="M402,-112.083C402,-105.006 402,-94.8611 402,-85.9865"/>
<polygon fill="midnightblue" stroke="midnightblue" points="405.5,-85.751 402,-75.7511 398.5,-85.7511 405.5,-85.751"/>
</g>
<!-- Node10&#45;&gt;Node2 -->
<g id="edge12" class="edge"><title>Node10&#45;&gt;Node2</title>
<path fill="none" stroke="midnightblue" d="M210.256,-168.083C217.465,-160.298 228.11,-148.801 236.846,-139.367"/>
<polygon fill="midnightblue" stroke="midnightblue" points="239.671,-141.467 243.897,-131.751 234.535,-136.711 239.671,-141.467"/>
</g>
<!-- Node10&#45;&gt;Node4 -->
<g id="edge13" class="edge"><title>Node10&#45;&gt;Node4</title>
<path fill="none" stroke="midnightblue" d="M201.301,-168.075C199.255,-141.945 193.245,-65.2106 190.455,-29.577"/>
<polygon fill="midnightblue" stroke="midnightblue" points="193.941,-29.2643 189.671,-19.5681 186.963,-29.8109 193.941,-29.2643"/>
</g>
<!-- Node11 -->
<g id="node12" class="node"><title>Node11</title>
<g id="a_node12"><a xlink:href="ActionManager_8h.html" target="_top" xlink:title="ActionManager.h">
<polygon fill="white" stroke="black" points="65,-112.5 65,-131.5 155,-131.5 155,-112.5 65,-112.5"/>
<text text-anchor="middle" x="110" y="-119.5" font-family="Helvetica,sans-Serif" font-size="10.00">ActionManager.h</text>
</a>
</g>
</g>
<!-- Node10&#45;&gt;Node11 -->
<g id="edge14" class="edge"><title>Node10&#45;&gt;Node11</title>
<path fill="none" stroke="midnightblue" d="M187.219,-168.324C172.733,-159.822 150.427,-146.729 133.507,-136.797"/>
<polygon fill="midnightblue" stroke="midnightblue" points="135.141,-133.698 124.745,-131.655 131.597,-139.735 135.141,-133.698"/>
</g>
<!-- Node12 -->
<g id="node13" class="node"><title>Node12</title>
<g id="a_node13"><a xlink:href="InputManager_8h.html" target="_top" xlink:title="InputManager.h">
<polygon fill="white" stroke="black" points="65,-56.5 65,-75.5 149,-75.5 149,-56.5 65,-56.5"/>
<text text-anchor="middle" x="107" y="-63.5" font-family="Helvetica,sans-Serif" font-size="10.00">InputManager.h</text>
</a>
</g>
</g>
<!-- Node11&#45;&gt;Node12 -->
<g id="edge15" class="edge"><title>Node11&#45;&gt;Node12</title>
<path fill="none" stroke="midnightblue" d="M109.505,-112.083C109.111,-105.006 108.548,-94.8611 108.055,-85.9865"/>
<polygon fill="midnightblue" stroke="midnightblue" points="111.536,-85.5415 107.486,-75.7511 104.546,-85.9299 111.536,-85.5415"/>
</g>
<!-- Node12&#45;&gt;Node4 -->
<g id="edge16" class="edge"><title>Node12&#45;&gt;Node4</title>
<path fill="none" stroke="midnightblue" d="M120.175,-56.324C132.847,-47.979 152.233,-35.2122 167.206,-25.3524"/>
<polygon fill="midnightblue" stroke="midnightblue" points="169.431,-28.0776 175.858,-19.6545 165.581,-22.2313 169.431,-28.0776"/>
</g>
<!-- Node13 -->
<g id="node14" class="node"><title>Node13</title>
<polygon fill="white" stroke="#bfbfbf" points="64.5,-0.5 64.5,-19.5 147.5,-19.5 147.5,-0.5 64.5,-0.5"/>
<text text-anchor="middle" x="106" y="-7.5" font-family="Helvetica,sans-Serif" font-size="10.00">unordered_map</text>
</g>
<!-- Node12&#45;&gt;Node13 -->
<g id="edge17" class="edge"><title>Node12&#45;&gt;Node13</title>
<path fill="none" stroke="midnightblue" d="M106.835,-56.083C106.704,-49.0059 106.516,-38.8611 106.352,-29.9865"/>
<polygon fill="midnightblue" stroke="midnightblue" points="109.847,-29.6845 106.162,-19.7511 102.848,-29.8142 109.847,-29.6845"/>
</g>
<!-- Node14 -->
<g id="node15" class="node"><title>Node14</title>
<polygon fill="white" stroke="#bfbfbf" points="0,-0.5 0,-19.5 46,-19.5 46,-0.5 0,-0.5"/>
<text text-anchor="middle" x="23" y="-7.5" font-family="Helvetica,sans-Serif" font-size="10.00">cstdint</text>
</g>
<!-- Node12&#45;&gt;Node14 -->
<g id="edge18" class="edge"><title>Node12&#45;&gt;Node14</title>
<path fill="none" stroke="midnightblue" d="M93.5039,-56.324C80.4004,-47.9002 60.2881,-34.9709 44.8931,-25.0741"/>
<polygon fill="midnightblue" stroke="midnightblue" points="46.767,-22.118 36.4626,-19.6545 42.9817,-28.0063 46.767,-22.118"/>
</g>
</g>
</svg>
