<?xml version="1.0" encoding="UTF-8" standalone="no"?>
<!DOCTYPE svg PUBLIC "-//W3C//DTD SVG 1.1//EN"
 "http://www.w3.org/Graphics/SVG/1.1/DTD/svg11.dtd">
<!-- Generated by graphviz version 2.38.0 (20140413.2041)
 -->
<!-- Title: Engine/src/Animation.cpp Pages: 1 -->
<svg width="664pt" height="308pt"
 viewBox="0.00 0.00 663.96 308.00" xmlns="http://www.w3.org/2000/svg" xmlns:xlink="http://www.w3.org/1999/xlink">
<g id="graph0" class="graph" transform="scale(1 1) rotate(0) translate(4 304)">
<title>Engine/src/Animation.cpp</title>
<polygon fill="white" stroke="none" points="-4,4 -4,-304 659.958,-304 659.958,4 -4,4"/>
<!-- Node1 -->
<g id="node1" class="node"><title>Node1</title>
<polygon fill="#bfbfbf" stroke="black" points="346.958,-280.5 346.958,-299.5 474.958,-299.5 474.958,-280.5 346.958,-280.5"/>
<text text-anchor="middle" x="410.958" y="-287.5" font-family="Helvetica,sans-Serif" font-size="10.00">Engine/src/Animation.cpp</text>
</g>
<!-- Node2 -->
<g id="node2" class="node"><title>Node2</title>
<g id="a_node2"><a xlink:href="Animation_8h.html" target="_top" xlink:title="Animation.h">
<polygon fill="white" stroke="black" points="321.958,-224.5 321.958,-243.5 389.958,-243.5 389.958,-224.5 321.958,-224.5"/>
<text text-anchor="middle" x="355.958" y="-231.5" font-family="Helvetica,sans-Serif" font-size="10.00">Animation.h</text>
</a>
</g>
</g>
<!-- Node1&#45;&gt;Node2 -->
<g id="edge1" class="edge"><title>Node1&#45;&gt;Node2</title>
<path fill="none" stroke="midnightblue" d="M401.876,-280.083C393.787,-272.141 381.763,-260.335 372.048,-250.797"/>
<polygon fill="midnightblue" stroke="midnightblue" points="374.459,-248.26 364.871,-243.751 369.555,-253.254 374.459,-248.26"/>
</g>
<!-- Node18 -->
<g id="node18" class="node"><title>Node18</title>
<g id="a_node18"><a xlink:href="Camera_8h.html" target="_top" xlink:title="Camera.h">
<polygon fill="white" stroke="black" points="436.458,-224.5 436.458,-243.5 495.458,-243.5 495.458,-224.5 436.458,-224.5"/>
<text text-anchor="middle" x="465.958" y="-231.5" font-family="Helvetica,sans-Serif" font-size="10.00">Camera.h</text>
</a>
</g>
</g>
<!-- Node1&#45;&gt;Node18 -->
<g id="edge26" class="edge"><title>Node1&#45;&gt;Node18</title>
<path fill="none" stroke="midnightblue" d="M420.04,-280.083C428.129,-272.141 440.153,-260.335 449.868,-250.797"/>
<polygon fill="midnightblue" stroke="midnightblue" points="452.361,-253.254 457.045,-243.751 447.457,-248.26 452.361,-253.254"/>
</g>
<!-- Node3 -->
<g id="node3" class="node"><title>Node3</title>
<g id="a_node3"><a xlink:href="GameObject_8h.html" target="_top" xlink:title="GameObject.h">
<polygon fill="white" stroke="black" points="157.958,-168.5 157.958,-187.5 237.958,-187.5 237.958,-168.5 157.958,-168.5"/>
<text text-anchor="middle" x="197.958" y="-175.5" font-family="Helvetica,sans-Serif" font-size="10.00">GameObject.h</text>
</a>
</g>
</g>
<!-- Node2&#45;&gt;Node3 -->
<g id="edge2" class="edge"><title>Node2&#45;&gt;Node3</title>
<path fill="none" stroke="midnightblue" d="M330.922,-224.444C304.342,-215.359 262.149,-200.939 232.435,-190.783"/>
<polygon fill="midnightblue" stroke="midnightblue" points="233.471,-187.439 222.876,-187.516 231.207,-194.062 233.471,-187.439"/>
</g>
<!-- Node12 -->
<g id="node12" class="node"><title>Node12</title>
<g id="a_node12"><a xlink:href="Sprite_8h.html" target="_top" xlink:title="Sprite.h">
<polygon fill="white" stroke="black" points="316.958,-168.5 316.958,-187.5 366.958,-187.5 366.958,-168.5 316.958,-168.5"/>
<text text-anchor="middle" x="341.958" y="-175.5" font-family="Helvetica,sans-Serif" font-size="10.00">Sprite.h</text>
</a>
</g>
</g>
<!-- Node2&#45;&gt;Node12 -->
<g id="edge14" class="edge"><title>Node2&#45;&gt;Node12</title>
<path fill="none" stroke="midnightblue" d="M353.646,-224.083C351.791,-216.927 349.123,-206.635 346.804,-197.691"/>
<polygon fill="midnightblue" stroke="midnightblue" points="350.125,-196.553 344.227,-187.751 343.349,-198.309 350.125,-196.553"/>
</g>
<!-- Node17 -->
<g id="node17" class="node"><title>Node17</title>
<g id="a_node17"><a xlink:href="Timer_8h.html" target="_top" xlink:title="Timer.h">
<polygon fill="white" stroke="black" points="384.958,-168.5 384.958,-187.5 434.958,-187.5 434.958,-168.5 384.958,-168.5"/>
<text text-anchor="middle" x="409.958" y="-175.5" font-family="Helvetica,sans-Serif" font-size="10.00">Timer.h</text>
</a>
</g>
</g>
<!-- Node2&#45;&gt;Node17 -->
<g id="edge25" class="edge"><title>Node2&#45;&gt;Node17</title>
<path fill="none" stroke="midnightblue" d="M364.875,-224.083C372.739,-216.22 384.389,-204.569 393.877,-195.081"/>
<polygon fill="midnightblue" stroke="midnightblue" points="396.611,-197.297 401.207,-187.751 391.661,-192.347 396.611,-197.297"/>
</g>
<!-- Node4 -->
<g id="node4" class="node"><title>Node4</title>
<g id="a_node4"><a xlink:href="SDL__include_8h.html" target="_top" xlink:title="SDL_include.h">
<polygon fill="white" stroke="black" points="335.958,-0.5 335.958,-19.5 415.958,-19.5 415.958,-0.5 335.958,-0.5"/>
<text text-anchor="middle" x="375.958" y="-7.5" font-family="Helvetica,sans-Serif" font-size="10.00">SDL_include.h</text>
</a>
</g>
</g>
<!-- Node3&#45;&gt;Node4 -->
<g id="edge3" class="edge"><title>Node3&#45;&gt;Node4</title>
<path fill="none" stroke="midnightblue" d="M157.782,-176.748C90.9309,-174.883 -32.0481,-164.466 7.95806,-112 46.5425,-61.399 234.43,-29.868 325.827,-17.2793"/>
<polygon fill="midnightblue" stroke="midnightblue" points="326.511,-20.7188 335.95,-15.9082 325.571,-13.7821 326.511,-20.7188"/>
</g>
<!-- Node5 -->
<g id="node5" class="node"><title>Node5</title>
<polygon fill="white" stroke="#bfbfbf" points="16.9581,-112.5 16.9581,-131.5 60.9581,-131.5 60.9581,-112.5 16.9581,-112.5"/>
<text text-anchor="middle" x="38.9581" y="-119.5" font-family="Helvetica,sans-Serif" font-size="10.00">vector</text>
</g>
<!-- Node3&#45;&gt;Node5 -->
<g id="edge4" class="edge"><title>Node3&#45;&gt;Node5</title>
<path fill="none" stroke="midnightblue" d="M172.764,-168.444C145.071,-159.038 100.539,-143.914 70.5349,-133.724"/>
<polygon fill="midnightblue" stroke="midnightblue" points="71.5563,-130.375 60.9619,-130.473 69.3052,-137.003 71.5563,-130.375"/>
</g>
<!-- Node6 -->
<g id="node6" class="node"><title>Node6</title>
<polygon fill="white" stroke="#bfbfbf" points="171.958,-112.5 171.958,-131.5 223.958,-131.5 223.958,-112.5 171.958,-112.5"/>
<text text-anchor="middle" x="197.958" y="-119.5" font-family="Helvetica,sans-Serif" font-size="10.00">memory</text>
</g>
<!-- Node3&#45;&gt;Node6 -->
<g id="edge5" class="edge"><title>Node3&#45;&gt;Node6</title>
<path fill="none" stroke="midnightblue" d="M197.958,-168.083C197.958,-161.006 197.958,-150.861 197.958,-141.986"/>
<polygon fill="midnightblue" stroke="midnightblue" points="201.458,-141.751 197.958,-131.751 194.458,-141.751 201.458,-141.751"/>
</g>
<!-- Node7 -->
<g id="node7" class="node"><title>Node7</title>
<polygon fill="white" stroke="#bfbfbf" points="242.458,-112.5 242.458,-131.5 283.458,-131.5 283.458,-112.5 242.458,-112.5"/>
<text text-anchor="middle" x="262.958" y="-119.5" font-family="Helvetica,sans-Serif" font-size="10.00">string</text>
</g>
<!-- Node3&#45;&gt;Node7 -->
<g id="edge6" class="edge"><title>Node3&#45;&gt;Node7</title>
<path fill="none" stroke="midnightblue" d="M208.401,-168.324C218.104,-160.263 232.773,-148.077 244.458,-138.369"/>
<polygon fill="midnightblue" stroke="midnightblue" points="246.869,-140.916 252.325,-131.834 242.396,-135.532 246.869,-140.916"/>
</g>
<!-- Node8 -->
<g id="node8" class="node"><title>Node8</title>
<g id="a_node8"><a xlink:href="Component_8h.html" target="_top" xlink:title="Component.h">
<polygon fill="white" stroke="black" points="78.4581,-112.5 78.4581,-131.5 153.458,-131.5 153.458,-112.5 78.4581,-112.5"/>
<text text-anchor="middle" x="115.958" y="-119.5" font-family="Helvetica,sans-Serif" font-size="10.00">Component.h</text>
</a>
</g>
</g>
<!-- Node3&#45;&gt;Node8 -->
<g id="edge7" class="edge"><title>Node3&#45;&gt;Node8</title>
<path fill="none" stroke="midnightblue" d="M179.669,-168.324C165.411,-160.107 146.095,-147.602 132.346,-137.807"/>
<polygon fill="midnightblue" stroke="midnightblue" points="134.353,-134.939 124.224,-131.834 130.206,-140.578 134.353,-134.939"/>
</g>
<!-- Node9 -->
<g id="node9" class="node"><title>Node9</title>
<g id="a_node9"><a xlink:href="Rect_8h.html" target="_top" xlink:title="Rect.h">
<polygon fill="white" stroke="black" points="301.958,-112.5 301.958,-131.5 347.958,-131.5 347.958,-112.5 301.958,-112.5"/>
<text text-anchor="middle" x="324.958" y="-119.5" font-family="Helvetica,sans-Serif" font-size="10.00">Rect.h</text>
</a>
</g>
</g>
<!-- Node3&#45;&gt;Node9 -->
<g id="edge9" class="edge"><title>Node3&#45;&gt;Node9</title>
<path fill="none" stroke="midnightblue" d="M218.082,-168.444C238.982,-159.557 271.893,-145.563 295.674,-135.451"/>
<polygon fill="midnightblue" stroke="midnightblue" points="297.096,-138.65 304.929,-131.516 294.356,-132.208 297.096,-138.65"/>
</g>
<!-- Node8&#45;&gt;Node3 -->
<g id="edge8" class="edge"><title>Node8&#45;&gt;Node3</title>
<path fill="none" stroke="midnightblue" d="M134.21,-131.655C148.544,-139.913 168.006,-152.517 181.779,-162.342"/>
<polygon fill="midnightblue" stroke="midnightblue" points="179.771,-165.21 189.898,-168.324 183.923,-159.574 179.771,-165.21"/>
</g>
<!-- Node9&#45;&gt;Node4 -->
<g id="edge10" class="edge"><title>Node9&#45;&gt;Node4</title>
<path fill="none" stroke="midnightblue" d="M315.596,-112.313C303.053,-99.5834 283.613,-75.2814 294.958,-56 303.876,-40.844 319.947,-30.4264 335.436,-23.464"/>
<polygon fill="midnightblue" stroke="midnightblue" points="337.014,-26.5996 344.936,-19.5639 334.355,-20.124 337.014,-26.5996"/>
</g>
<!-- Node10 -->
<g id="node10" class="node"><title>Node10</title>
<g id="a_node10"><a xlink:href="Vec2_8h.html" target="_top" xlink:title="Vec2.h">
<polygon fill="white" stroke="black" points="404.458,-56.5 404.458,-75.5 451.458,-75.5 451.458,-56.5 404.458,-56.5"/>
<text text-anchor="middle" x="427.958" y="-63.5" font-family="Helvetica,sans-Serif" font-size="10.00">Vec2.h</text>
</a>
</g>
</g>
<!-- Node9&#45;&gt;Node10 -->
<g id="edge11" class="edge"><title>Node9&#45;&gt;Node10</title>
<path fill="none" stroke="midnightblue" d="M341.507,-112.324C357.95,-103.703 383.393,-90.3643 402.426,-80.3855"/>
<polygon fill="midnightblue" stroke="midnightblue" points="404.219,-83.3977 411.45,-75.6545 400.969,-77.198 404.219,-83.3977"/>
</g>
<!-- Node11 -->
<g id="node11" class="node"><title>Node11</title>
<polygon fill="white" stroke="#bfbfbf" points="303.958,-56.5 303.958,-75.5 347.958,-75.5 347.958,-56.5 303.958,-56.5"/>
<text text-anchor="middle" x="325.958" y="-63.5" font-family="Helvetica,sans-Serif" font-size="10.00">cmath</text>
</g>
<!-- Node9&#45;&gt;Node11 -->
<g id="edge13" class="edge"><title>Node9&#45;&gt;Node11</title>
<path fill="none" stroke="midnightblue" d="M325.123,-112.083C325.254,-105.006 325.442,-94.8611 325.606,-85.9865"/>
<polygon fill="midnightblue" stroke="midnightblue" points="329.11,-85.8142 325.796,-75.7511 322.111,-85.6845 329.11,-85.8142"/>
</g>
<!-- Node10&#45;&gt;Node4 -->
<g id="edge12" class="edge"><title>Node10&#45;&gt;Node4</title>
<path fill="none" stroke="midnightblue" d="M419.371,-56.083C411.799,-48.2195 400.58,-36.5688 391.444,-27.0813"/>
<polygon fill="midnightblue" stroke="midnightblue" points="393.843,-24.5266 384.385,-19.7511 388.8,-29.3821 393.843,-24.5266"/>
</g>
<!-- Node12&#45;&gt;Node4 -->
<g id="edge15" class="edge"><title>Node12&#45;&gt;Node4</title>
<path fill="none" stroke="midnightblue" d="M345.264,-168.497C348.634,-159.54 353.803,-144.962 356.958,-132 365.645,-96.3111 371.259,-53.6951 373.992,-29.7485"/>
<polygon fill="midnightblue" stroke="midnightblue" points="377.494,-29.9265 375.104,-19.6048 370.535,-29.1642 377.494,-29.9265"/>
</g>
<!-- Node12&#45;&gt;Node6 -->
<g id="edge17" class="edge"><title>Node12&#45;&gt;Node6</title>
<path fill="none" stroke="midnightblue" d="M319.141,-168.444C295.126,-159.438 257.129,-145.189 230.089,-135.049"/>
<polygon fill="midnightblue" stroke="midnightblue" points="231.261,-131.751 220.669,-131.516 228.803,-138.305 231.261,-131.751"/>
</g>
<!-- Node12&#45;&gt;Node7 -->
<g id="edge16" class="edge"><title>Node12&#45;&gt;Node7</title>
<path fill="none" stroke="midnightblue" d="M329.265,-168.324C317.057,-159.979 298.38,-147.212 283.955,-137.352"/>
<polygon fill="midnightblue" stroke="midnightblue" points="285.85,-134.408 275.619,-131.655 281.9,-140.187 285.85,-134.408"/>
</g>
<!-- Node12&#45;&gt;Node9 -->
<g id="edge19" class="edge"><title>Node12&#45;&gt;Node9</title>
<path fill="none" stroke="midnightblue" d="M339.151,-168.083C336.873,-160.849 333.587,-150.409 330.75,-141.397"/>
<polygon fill="midnightblue" stroke="midnightblue" points="334.054,-140.239 327.713,-131.751 327.377,-142.341 334.054,-140.239"/>
</g>
<!-- Node13 -->
<g id="node13" class="node"><title>Node13</title>
<g id="a_node13"><a xlink:href="Color_8h.html" target="_top" xlink:title="Color.h">
<polygon fill="white" stroke="black" points="403.958,-112.5 403.958,-131.5 451.958,-131.5 451.958,-112.5 403.958,-112.5"/>
<text text-anchor="middle" x="427.958" y="-119.5" font-family="Helvetica,sans-Serif" font-size="10.00">Color.h</text>
</a>
</g>
</g>
<!-- Node12&#45;&gt;Node13 -->
<g id="edge18" class="edge"><title>Node12&#45;&gt;Node13</title>
<path fill="none" stroke="midnightblue" d="M355.775,-168.324C369.191,-159.9 389.782,-146.971 405.544,-137.074"/>
<polygon fill="midnightblue" stroke="midnightblue" points="407.567,-139.936 414.175,-131.655 403.845,-134.008 407.567,-139.936"/>
</g>
<!-- Node14 -->
<g id="node14" class="node"><title>Node14</title>
<g id="a_node14"><a xlink:href="InputManager_8h.html" target="_top" xlink:title="InputManager.h">
<polygon fill="white" stroke="black" points="507.958,-112.5 507.958,-131.5 591.958,-131.5 591.958,-112.5 507.958,-112.5"/>
<text text-anchor="middle" x="549.958" y="-119.5" font-family="Helvetica,sans-Serif" font-size="10.00">InputManager.h</text>
</a>
</g>
</g>
<!-- Node12&#45;&gt;Node14 -->
<g id="edge20" class="edge"><title>Node12&#45;&gt;Node14</title>
<path fill="none" stroke="midnightblue" d="M367.205,-170.3C370.155,-169.522 373.123,-168.742 375.958,-168 420.466,-156.354 471.425,-143.196 506.64,-134.13"/>
<polygon fill="midnightblue" stroke="midnightblue" points="507.774,-137.452 516.586,-131.57 506.03,-130.673 507.774,-137.452"/>
</g>
<!-- Node14&#45;&gt;Node4 -->
<g id="edge21" class="edge"><title>Node14&#45;&gt;Node4</title>
<path fill="none" stroke="midnightblue" d="M538.927,-112.293C522.282,-99.3276 489.54,-74.4909 459.958,-56 441.429,-44.418 419.66,-32.8087 402.926,-24.2833"/>
<polygon fill="midnightblue" stroke="midnightblue" points="404.223,-21.0177 393.718,-19.6435 401.073,-27.269 404.223,-21.0177"/>
</g>
<!-- Node14&#45;&gt;Node10 -->
<g id="edge22" class="edge"><title>Node14&#45;&gt;Node10</title>
<path fill="none" stroke="midnightblue" d="M530.627,-112.444C510.638,-103.596 479.215,-89.6875 456.394,-79.5865"/>
<polygon fill="midnightblue" stroke="midnightblue" points="457.76,-76.3635 447.199,-75.5164 454.927,-82.7645 457.76,-76.3635"/>
</g>
<!-- Node15 -->
<g id="node15" class="node"><title>Node15</title>
<polygon fill="white" stroke="#bfbfbf" points="508.458,-56.5 508.458,-75.5 591.458,-75.5 591.458,-56.5 508.458,-56.5"/>
<text text-anchor="middle" x="549.958" y="-63.5" font-family="Helvetica,sans-Serif" font-size="10.00">unordered_map</text>
</g>
<!-- Node14&#45;&gt;Node15 -->
<g id="edge23" class="edge"><title>Node14&#45;&gt;Node15</title>
<path fill="none" stroke="midnightblue" d="M549.958,-112.083C549.958,-105.006 549.958,-94.8611 549.958,-85.9865"/>
<polygon fill="midnightblue" stroke="midnightblue" points="553.458,-85.751 549.958,-75.7511 546.458,-85.7511 553.458,-85.751"/>
</g>
<!-- Node16 -->
<g id="node16" class="node"><title>Node16</title>
<polygon fill="white" stroke="#bfbfbf" points="609.958,-56.5 609.958,-75.5 655.958,-75.5 655.958,-56.5 609.958,-56.5"/>
<text text-anchor="middle" x="632.958" y="-63.5" font-family="Helvetica,sans-Serif" font-size="10.00">cstdint</text>
</g>
<!-- Node14&#45;&gt;Node16 -->
<g id="edge24" class="edge"><title>Node14&#45;&gt;Node16</title>
<path fill="none" stroke="midnightblue" d="M563.293,-112.324C576.12,-103.979 595.743,-91.2122 610.898,-81.3524"/>
<polygon fill="midnightblue" stroke="midnightblue" points="613.182,-84.0417 619.656,-75.6545 609.365,-78.1742 613.182,-84.0417"/>
</g>
<!-- Node18&#45;&gt;Node3 -->
<g id="edge27" class="edge"><title>Node18&#45;&gt;Node3</title>
<path fill="none" stroke="midnightblue" d="M436.253,-227.015C390.836,-217.863 303.585,-200.283 248.201,-189.124"/>
<polygon fill="midnightblue" stroke="midnightblue" points="248.742,-185.662 238.248,-187.118 247.36,-192.524 248.742,-185.662"/>
</g>
<!-- Node18&#45;&gt;Node10 -->
<g id="edge28" class="edge"><title>Node18&#45;&gt;Node10</title>
<path fill="none" stroke="midnightblue" d="M467.259,-224.47C469.996,-204.246 475.002,-152.081 460.958,-112 457.288,-101.526 450.294,-91.414 443.686,-83.4382"/>
<polygon fill="midnightblue" stroke="midnightblue" points="446.091,-80.8747 436.843,-75.7058 440.849,-85.5139 446.091,-80.8747"/>
</g>
<!-- Node19 -->
<g id="node19" class="node"><title>Node19</title>
<g id="a_node19"><a xlink:href="ActionManager_8h.html" target="_top" xlink:title="ActionManager.h">
<polygon fill="white" stroke="black" points="507.958,-168.5 507.958,-187.5 597.958,-187.5 597.958,-168.5 507.958,-168.5"/>
<text text-anchor="middle" x="552.958" y="-175.5" font-family="Helvetica,sans-Serif" font-size="10.00">ActionManager.h</text>
</a>
</g>
</g>
<!-- Node18&#45;&gt;Node19 -->
<g id="edge29" class="edge"><title>Node18&#45;&gt;Node19</title>
<path fill="none" stroke="midnightblue" d="M479.936,-224.324C493.508,-215.9 514.338,-202.971 530.283,-193.074"/>
<polygon fill="midnightblue" stroke="midnightblue" points="532.364,-195.902 539.015,-187.655 528.672,-189.954 532.364,-195.902"/>
</g>
<!-- Node19&#45;&gt;Node14 -->
<g id="edge30" class="edge"><title>Node19&#45;&gt;Node14</title>
<path fill="none" stroke="midnightblue" d="M552.463,-168.083C552.069,-161.006 551.506,-150.861 551.013,-141.986"/>
<polygon fill="midnightblue" stroke="midnightblue" points="554.494,-141.542 550.444,-131.751 547.504,-141.93 554.494,-141.542"/>
</g>
</g>
</svg>
