<?xml version="1.0" encoding="UTF-8" standalone="no"?>
<!DOCTYPE svg PUBLIC "-//W3C//DTD SVG 1.1//EN"
 "http://www.w3.org/Graphics/SVG/1.1/DTD/svg11.dtd">
<!-- Generated by graphviz version 2.36.0 (20140111.2315)
 -->
<!-- Title: Engine/src/Animation.cpp Pages: 1 -->
<svg width="698pt" height="308pt"
 viewBox="0.00 0.00 697.82 308.00" xmlns="http://www.w3.org/2000/svg" xmlns:xlink="http://www.w3.org/1999/xlink">
<g id="graph0" class="graph" transform="scale(1 1) rotate(0) translate(4 304)">
<title>Engine/src/Animation.cpp</title>
<polygon fill="white" stroke="none" points="-4,4 -4,-304 693.821,-304 693.821,4 -4,4"/>
<!-- Node1 -->
<g id="node1" class="node"><title>Node1</title>
<polygon fill="#bfbfbf" stroke="black" points="380.821,-280.5 380.821,-299.5 508.821,-299.5 508.821,-280.5 380.821,-280.5"/>
<text text-anchor="middle" x="444.821" y="-287.5" font-family="Helvetica,sans-Serif" font-size="10.00">Engine/src/Animation.cpp</text>
</g>
<!-- Node2 -->
<g id="node2" class="node"><title>Node2</title>
<g id="a_node2"><a xlink:href="Animation_8h.html" target="_top" xlink:title="Animation.h">
<polygon fill="white" stroke="black" points="355.821,-224.5 355.821,-243.5 423.821,-243.5 423.821,-224.5 355.821,-224.5"/>
<text text-anchor="middle" x="389.821" y="-231.5" font-family="Helvetica,sans-Serif" font-size="10.00">Animation.h</text>
</a>
</g>
</g>
<!-- Node1&#45;&gt;Node2 -->
<g id="edge1" class="edge"><title>Node1&#45;&gt;Node2</title>
<path fill="none" stroke="midnightblue" d="M435.739,-280.083C427.65,-272.141 415.626,-260.335 405.911,-250.797"/>
<polygon fill="midnightblue" stroke="midnightblue" points="408.322,-248.26 398.735,-243.751 403.418,-253.254 408.322,-248.26"/>
</g>
<!-- Node19 -->
<g id="node19" class="node"><title>Node19</title>
<g id="a_node19"><a xlink:href="Camera_8h.html" target="_top" xlink:title="Camera.h">
<polygon fill="white" stroke="black" points="470.321,-224.5 470.321,-243.5 529.321,-243.5 529.321,-224.5 470.321,-224.5"/>
<text text-anchor="middle" x="499.821" y="-231.5" font-family="Helvetica,sans-Serif" font-size="10.00">Camera.h</text>
</a>
</g>
</g>
<!-- Node1&#45;&gt;Node19 -->
<g id="edge28" class="edge"><title>Node1&#45;&gt;Node19</title>
<path fill="none" stroke="midnightblue" d="M453.904,-280.083C461.993,-272.141 474.017,-260.335 483.732,-250.797"/>
<polygon fill="midnightblue" stroke="midnightblue" points="486.225,-253.254 490.908,-243.751 481.321,-248.26 486.225,-253.254"/>
</g>
<!-- Node3 -->
<g id="node3" class="node"><title>Node3</title>
<g id="a_node3"><a xlink:href="GameObject_8h.html" target="_top" xlink:title="GameObject.h">
<polygon fill="white" stroke="black" points="164.821,-168.5 164.821,-187.5 244.821,-187.5 244.821,-168.5 164.821,-168.5"/>
<text text-anchor="middle" x="204.821" y="-175.5" font-family="Helvetica,sans-Serif" font-size="10.00">GameObject.h</text>
</a>
</g>
</g>
<!-- Node2&#45;&gt;Node3 -->
<g id="edge2" class="edge"><title>Node2&#45;&gt;Node3</title>
<path fill="none" stroke="midnightblue" d="M360.508,-224.444C328.979,-215.241 278.69,-200.562 243.836,-190.388"/>
<polygon fill="midnightblue" stroke="midnightblue" points="244.578,-186.959 233.998,-187.516 242.617,-193.678 244.578,-186.959"/>
</g>
<!-- Node13 -->
<g id="node13" class="node"><title>Node13</title>
<g id="a_node13"><a xlink:href="Sprite_8h.html" target="_top" xlink:title="Sprite.h">
<polygon fill="white" stroke="black" points="350.821,-168.5 350.821,-187.5 400.821,-187.5 400.821,-168.5 350.821,-168.5"/>
<text text-anchor="middle" x="375.821" y="-175.5" font-family="Helvetica,sans-Serif" font-size="10.00">Sprite.h</text>
</a>
</g>
</g>
<!-- Node2&#45;&gt;Node13 -->
<g id="edge16" class="edge"><title>Node2&#45;&gt;Node13</title>
<path fill="none" stroke="midnightblue" d="M387.51,-224.083C385.654,-216.927 382.986,-206.635 380.667,-197.691"/>
<polygon fill="midnightblue" stroke="midnightblue" points="383.988,-196.553 378.09,-187.751 377.212,-198.309 383.988,-196.553"/>
</g>
<!-- Node18 -->
<g id="node18" class="node"><title>Node18</title>
<g id="a_node18"><a xlink:href="Timer_8h.html" target="_top" xlink:title="Timer.h">
<polygon fill="white" stroke="black" points="418.821,-168.5 418.821,-187.5 468.821,-187.5 468.821,-168.5 418.821,-168.5"/>
<text text-anchor="middle" x="443.821" y="-175.5" font-family="Helvetica,sans-Serif" font-size="10.00">Timer.h</text>
</a>
</g>
</g>
<!-- Node2&#45;&gt;Node18 -->
<g id="edge27" class="edge"><title>Node2&#45;&gt;Node18</title>
<path fill="none" stroke="midnightblue" d="M398.738,-224.083C406.602,-216.22 418.253,-204.569 427.74,-195.081"/>
<polygon fill="midnightblue" stroke="midnightblue" points="430.474,-197.297 435.07,-187.751 425.524,-192.347 430.474,-197.297"/>
</g>
<!-- Node4 -->
<g id="node4" class="node"><title>Node4</title>
<g id="a_node4"><a xlink:href="SDL__include_8h.html" target="_top" xlink:title="SDL_include.h">
<polygon fill="white" stroke="black" points="369.821,-0.5 369.821,-19.5 449.821,-19.5 449.821,-0.5 369.821,-0.5"/>
<text text-anchor="middle" x="409.821" y="-7.5" font-family="Helvetica,sans-Serif" font-size="10.00">SDL_include.h</text>
</a>
</g>
</g>
<!-- Node3&#45;&gt;Node4 -->
<g id="edge3" class="edge"><title>Node3&#45;&gt;Node4</title>
<path fill="none" stroke="midnightblue" d="M164.415,-173.803C111.618,-168.689 23.5486,-156.632 3.82141,-132 -1.73513,-125.062 -0.351154,-119.849 3.82141,-112 24.7103,-72.7075 45.2686,-71.9252 86.8214,-56 178.468,-20.8762 294.103,-12.6866 359.216,-11.0596"/>
<polygon fill="midnightblue" stroke="midnightblue" points="359.682,-14.5508 369.608,-10.8454 359.538,-7.5523 359.682,-14.5508"/>
</g>
<!-- Node5 -->
<g id="node5" class="node"><title>Node5</title>
<polygon fill="white" stroke="#bfbfbf" points="12.8214,-112.5 12.8214,-131.5 56.8214,-131.5 56.8214,-112.5 12.8214,-112.5"/>
<text text-anchor="middle" x="34.8214" y="-119.5" font-family="Helvetica,sans-Serif" font-size="10.00">vector</text>
</g>
<!-- Node3&#45;&gt;Node5 -->
<g id="edge4" class="edge"><title>Node3&#45;&gt;Node5</title>
<path fill="none" stroke="midnightblue" d="M177.884,-168.444C147.725,-158.863 98.8836,-143.349 66.8077,-133.16"/>
<polygon fill="midnightblue" stroke="midnightblue" points="67.6179,-129.745 57.0275,-130.054 65.4987,-136.417 67.6179,-129.745"/>
</g>
<!-- Node6 -->
<g id="node6" class="node"><title>Node6</title>
<polygon fill="white" stroke="#bfbfbf" points="205.821,-112.5 205.821,-131.5 257.821,-131.5 257.821,-112.5 205.821,-112.5"/>
<text text-anchor="middle" x="231.821" y="-119.5" font-family="Helvetica,sans-Serif" font-size="10.00">memory</text>
</g>
<!-- Node3&#45;&gt;Node6 -->
<g id="edge5" class="edge"><title>Node3&#45;&gt;Node6</title>
<path fill="none" stroke="midnightblue" d="M209.28,-168.083C212.976,-160.691 218.345,-149.953 222.916,-140.811"/>
<polygon fill="midnightblue" stroke="midnightblue" points="226.104,-142.261 227.446,-131.751 219.843,-139.13 226.104,-142.261"/>
</g>
<!-- Node7 -->
<g id="node7" class="node"><title>Node7</title>
<polygon fill="white" stroke="#bfbfbf" points="276.321,-112.5 276.321,-131.5 317.321,-131.5 317.321,-112.5 276.321,-112.5"/>
<text text-anchor="middle" x="296.821" y="-119.5" font-family="Helvetica,sans-Serif" font-size="10.00">string</text>
</g>
<!-- Node3&#45;&gt;Node7 -->
<g id="edge6" class="edge"><title>Node3&#45;&gt;Node7</title>
<path fill="none" stroke="midnightblue" d="M219.603,-168.324C234.088,-159.822 256.394,-146.729 273.315,-136.797"/>
<polygon fill="midnightblue" stroke="midnightblue" points="275.224,-139.735 282.077,-131.655 271.681,-133.698 275.224,-139.735"/>
</g>
<!-- Node8 -->
<g id="node8" class="node"><title>Node8</title>
<g id="a_node8"><a xlink:href="Component_8h.html" target="_top" xlink:title="Component.h">
<polygon fill="white" stroke="black" points="74.3214,-112.5 74.3214,-131.5 149.321,-131.5 149.321,-112.5 74.3214,-112.5"/>
<text text-anchor="middle" x="111.821" y="-119.5" font-family="Helvetica,sans-Serif" font-size="10.00">Component.h</text>
</a>
</g>
</g>
<!-- Node3&#45;&gt;Node8 -->
<g id="edge7" class="edge"><title>Node3&#45;&gt;Node8</title>
<path fill="none" stroke="midnightblue" d="M184.765,-168.324C168.433,-159.9 145.868,-146.971 130.051,-137.074"/>
<polygon fill="midnightblue" stroke="midnightblue" points="131.921,-134.116 121.616,-131.655 128.137,-140.005 131.921,-134.116"/>
</g>
<!-- Node9 -->
<g id="node9" class="node"><title>Node9</title>
<g id="a_node9"><a xlink:href="ComponentType_8h.html" target="_top" xlink:title="ComponentType.h">
<polygon fill="white" stroke="black" points="96.3214,-56.5 96.3214,-75.5 193.321,-75.5 193.321,-56.5 96.3214,-56.5"/>
<text text-anchor="middle" x="144.821" y="-63.5" font-family="Helvetica,sans-Serif" font-size="10.00">ComponentType.h</text>
</a>
</g>
</g>
<!-- Node3&#45;&gt;Node9 -->
<g id="edge10" class="edge"><title>Node3&#45;&gt;Node9</title>
<path fill="none" stroke="midnightblue" d="M200.113,-168.368C190.299,-150.376 167.485,-108.55 154.436,-84.6267"/>
<polygon fill="midnightblue" stroke="midnightblue" points="157.369,-82.6944 149.508,-75.5914 151.224,-86.0464 157.369,-82.6944"/>
</g>
<!-- Node10 -->
<g id="node10" class="node"><title>Node10</title>
<g id="a_node10"><a xlink:href="Rect_8h.html" target="_top" xlink:title="Rect.h">
<polygon fill="white" stroke="black" points="335.821,-112.5 335.821,-131.5 381.821,-131.5 381.821,-112.5 335.821,-112.5"/>
<text text-anchor="middle" x="358.821" y="-119.5" font-family="Helvetica,sans-Serif" font-size="10.00">Rect.h</text>
</a>
</g>
</g>
<!-- Node3&#45;&gt;Node10 -->
<g id="edge11" class="edge"><title>Node3&#45;&gt;Node10</title>
<path fill="none" stroke="midnightblue" d="M229.223,-168.444C255.321,-159.292 296.862,-144.726 325.856,-134.559"/>
<polygon fill="midnightblue" stroke="midnightblue" points="327.263,-137.775 335.542,-131.163 324.947,-131.169 327.263,-137.775"/>
</g>
<!-- Node8&#45;&gt;Node3 -->
<g id="edge9" class="edge"><title>Node8&#45;&gt;Node3</title>
<path fill="none" stroke="midnightblue" d="M131.837,-131.655C148.157,-140.071 170.723,-152.999 186.551,-162.901"/>
<polygon fill="midnightblue" stroke="midnightblue" points="184.689,-165.864 194.994,-168.324 188.472,-159.974 184.689,-165.864"/>
</g>
<!-- Node8&#45;&gt;Node9 -->
<g id="edge8" class="edge"><title>Node8&#45;&gt;Node9</title>
<path fill="none" stroke="midnightblue" d="M117.271,-112.083C121.836,-104.613 128.49,-93.7244 134.115,-84.5199"/>
<polygon fill="midnightblue" stroke="midnightblue" points="137.245,-86.109 139.474,-75.7511 131.272,-82.4588 137.245,-86.109"/>
</g>
<!-- Node10&#45;&gt;Node4 -->
<g id="edge12" class="edge"><title>Node10&#45;&gt;Node4</title>
<path fill="none" stroke="midnightblue" d="M349.459,-112.313C336.917,-99.5834 317.476,-75.2814 328.821,-56 337.739,-40.844 353.81,-30.4264 369.299,-23.464"/>
<polygon fill="midnightblue" stroke="midnightblue" points="370.877,-26.5996 378.799,-19.5639 368.219,-20.124 370.877,-26.5996"/>
</g>
<!-- Node11 -->
<g id="node11" class="node"><title>Node11</title>
<g id="a_node11"><a xlink:href="Vec2_8h.html" target="_top" xlink:title="Vec2.h">
<polygon fill="white" stroke="black" points="438.321,-56.5 438.321,-75.5 485.321,-75.5 485.321,-56.5 438.321,-56.5"/>
<text text-anchor="middle" x="461.821" y="-63.5" font-family="Helvetica,sans-Serif" font-size="10.00">Vec2.h</text>
</a>
</g>
</g>
<!-- Node10&#45;&gt;Node11 -->
<g id="edge13" class="edge"><title>Node10&#45;&gt;Node11</title>
<path fill="none" stroke="midnightblue" d="M375.37,-112.324C391.813,-103.703 417.256,-90.3643 436.29,-80.3855"/>
<polygon fill="midnightblue" stroke="midnightblue" points="438.082,-83.3977 445.314,-75.6545 434.832,-77.198 438.082,-83.3977"/>
</g>
<!-- Node12 -->
<g id="node12" class="node"><title>Node12</title>
<polygon fill="white" stroke="#bfbfbf" points="337.821,-56.5 337.821,-75.5 381.821,-75.5 381.821,-56.5 337.821,-56.5"/>
<text text-anchor="middle" x="359.821" y="-63.5" font-family="Helvetica,sans-Serif" font-size="10.00">cmath</text>
</g>
<!-- Node10&#45;&gt;Node12 -->
<g id="edge15" class="edge"><title>Node10&#45;&gt;Node12</title>
<path fill="none" stroke="midnightblue" d="M358.987,-112.083C359.118,-105.006 359.305,-94.8611 359.47,-85.9865"/>
<polygon fill="midnightblue" stroke="midnightblue" points="362.974,-85.8142 359.659,-75.7511 355.975,-85.6845 362.974,-85.8142"/>
</g>
<!-- Node11&#45;&gt;Node4 -->
<g id="edge14" class="edge"><title>Node11&#45;&gt;Node4</title>
<path fill="none" stroke="midnightblue" d="M453.235,-56.083C445.662,-48.2195 434.443,-36.5688 425.307,-27.0813"/>
<polygon fill="midnightblue" stroke="midnightblue" points="427.706,-24.5266 418.248,-19.7511 422.664,-29.3821 427.706,-24.5266"/>
</g>
<!-- Node13&#45;&gt;Node4 -->
<g id="edge17" class="edge"><title>Node13&#45;&gt;Node4</title>
<path fill="none" stroke="midnightblue" d="M379.127,-168.497C382.498,-159.54 387.666,-144.962 390.821,-132 399.508,-96.3111 405.122,-53.6951 407.856,-29.7485"/>
<polygon fill="midnightblue" stroke="midnightblue" points="411.357,-29.9265 408.967,-19.6048 404.399,-29.1642 411.357,-29.9265"/>
</g>
<!-- Node13&#45;&gt;Node6 -->
<g id="edge19" class="edge"><title>Node13&#45;&gt;Node6</title>
<path fill="none" stroke="midnightblue" d="M353.004,-168.444C328.99,-159.438 290.992,-145.189 263.952,-135.049"/>
<polygon fill="midnightblue" stroke="midnightblue" points="265.124,-131.751 254.532,-131.516 262.666,-138.305 265.124,-131.751"/>
</g>
<!-- Node13&#45;&gt;Node7 -->
<g id="edge18" class="edge"><title>Node13&#45;&gt;Node7</title>
<path fill="none" stroke="midnightblue" d="M363.129,-168.324C350.92,-159.979 332.243,-147.212 317.818,-137.352"/>
<polygon fill="midnightblue" stroke="midnightblue" points="319.713,-134.408 309.483,-131.655 315.763,-140.187 319.713,-134.408"/>
</g>
<!-- Node13&#45;&gt;Node10 -->
<g id="edge21" class="edge"><title>Node13&#45;&gt;Node10</title>
<path fill="none" stroke="midnightblue" d="M373.014,-168.083C370.737,-160.849 367.45,-150.409 364.613,-141.397"/>
<polygon fill="midnightblue" stroke="midnightblue" points="367.918,-140.239 361.576,-131.751 361.241,-142.341 367.918,-140.239"/>
</g>
<!-- Node14 -->
<g id="node14" class="node"><title>Node14</title>
<g id="a_node14"><a xlink:href="Color_8h.html" target="_top" xlink:title="Color.h">
<polygon fill="white" stroke="black" points="437.821,-112.5 437.821,-131.5 485.821,-131.5 485.821,-112.5 437.821,-112.5"/>
<text text-anchor="middle" x="461.821" y="-119.5" font-family="Helvetica,sans-Serif" font-size="10.00">Color.h</text>
</a>
</g>
</g>
<!-- Node13&#45;&gt;Node14 -->
<g id="edge20" class="edge"><title>Node13&#45;&gt;Node14</title>
<path fill="none" stroke="midnightblue" d="M389.639,-168.324C403.054,-159.9 423.646,-146.971 439.407,-137.074"/>
<polygon fill="midnightblue" stroke="midnightblue" points="441.431,-139.936 448.038,-131.655 437.708,-134.008 441.431,-139.936"/>
</g>
<!-- Node15 -->
<g id="node15" class="node"><title>Node15</title>
<g id="a_node15"><a xlink:href="InputManager_8h.html" target="_top" xlink:title="InputManager.h">
<polygon fill="white" stroke="black" points="541.821,-112.5 541.821,-131.5 625.821,-131.5 625.821,-112.5 541.821,-112.5"/>
<text text-anchor="middle" x="583.821" y="-119.5" font-family="Helvetica,sans-Serif" font-size="10.00">InputManager.h</text>
</a>
</g>
</g>
<!-- Node13&#45;&gt;Node15 -->
<g id="edge22" class="edge"><title>Node13&#45;&gt;Node15</title>
<path fill="none" stroke="midnightblue" d="M401.068,-170.3C404.018,-169.522 406.986,-168.742 409.821,-168 454.329,-156.354 505.288,-143.196 540.503,-134.13"/>
<polygon fill="midnightblue" stroke="midnightblue" points="541.638,-137.452 550.45,-131.57 539.893,-130.673 541.638,-137.452"/>
</g>
<!-- Node15&#45;&gt;Node4 -->
<g id="edge23" class="edge"><title>Node15&#45;&gt;Node4</title>
<path fill="none" stroke="midnightblue" d="M572.791,-112.293C556.145,-99.3276 523.404,-74.4909 493.821,-56 475.292,-44.418 453.523,-32.8087 436.789,-24.2833"/>
<polygon fill="midnightblue" stroke="midnightblue" points="438.087,-21.0177 427.581,-19.6435 434.937,-27.269 438.087,-21.0177"/>
</g>
<!-- Node15&#45;&gt;Node11 -->
<g id="edge24" class="edge"><title>Node15&#45;&gt;Node11</title>
<path fill="none" stroke="midnightblue" d="M564.49,-112.444C544.501,-103.596 513.078,-89.6875 490.258,-79.5865"/>
<polygon fill="midnightblue" stroke="midnightblue" points="491.623,-76.3635 481.062,-75.5164 488.79,-82.7645 491.623,-76.3635"/>
</g>
<!-- Node16 -->
<g id="node16" class="node"><title>Node16</title>
<polygon fill="white" stroke="#bfbfbf" points="542.321,-56.5 542.321,-75.5 625.321,-75.5 625.321,-56.5 542.321,-56.5"/>
<text text-anchor="middle" x="583.821" y="-63.5" font-family="Helvetica,sans-Serif" font-size="10.00">unordered_map</text>
</g>
<!-- Node15&#45;&gt;Node16 -->
<g id="edge25" class="edge"><title>Node15&#45;&gt;Node16</title>
<path fill="none" stroke="midnightblue" d="M583.821,-112.083C583.821,-105.006 583.821,-94.8611 583.821,-85.9865"/>
<polygon fill="midnightblue" stroke="midnightblue" points="587.322,-85.751 583.821,-75.7511 580.322,-85.7511 587.322,-85.751"/>
</g>
<!-- Node17 -->
<g id="node17" class="node"><title>Node17</title>
<polygon fill="white" stroke="#bfbfbf" points="643.821,-56.5 643.821,-75.5 689.821,-75.5 689.821,-56.5 643.821,-56.5"/>
<text text-anchor="middle" x="666.821" y="-63.5" font-family="Helvetica,sans-Serif" font-size="10.00">cstdint</text>
</g>
<!-- Node15&#45;&gt;Node17 -->
<g id="edge26" class="edge"><title>Node15&#45;&gt;Node17</title>
<path fill="none" stroke="midnightblue" d="M597.157,-112.324C609.983,-103.979 629.606,-91.2122 644.761,-81.3524"/>
<polygon fill="midnightblue" stroke="midnightblue" points="647.046,-84.0417 653.519,-75.6545 643.228,-78.1742 647.046,-84.0417"/>
</g>
<!-- Node19&#45;&gt;Node3 -->
<g id="edge29" class="edge"><title>Node19&#45;&gt;Node3</title>
<path fill="none" stroke="midnightblue" d="M470.185,-227.575C419.806,-218.353 316.932,-199.522 255.116,-188.206"/>
<polygon fill="midnightblue" stroke="midnightblue" points="255.657,-184.747 245.19,-186.39 254.396,-191.633 255.657,-184.747"/>
</g>
<!-- Node19&#45;&gt;Node11 -->
<g id="edge30" class="edge"><title>Node19&#45;&gt;Node11</title>
<path fill="none" stroke="midnightblue" d="M501.123,-224.47C503.859,-204.246 508.865,-152.081 494.821,-112 491.151,-101.526 484.157,-91.414 477.549,-83.4382"/>
<polygon fill="midnightblue" stroke="midnightblue" points="479.954,-80.8747 470.706,-75.7058 474.712,-85.5139 479.954,-80.8747"/>
</g>
<!-- Node20 -->
<g id="node20" class="node"><title>Node20</title>
<g id="a_node20"><a xlink:href="ActionManager_8h.html" target="_top" xlink:title="ActionManager.h">
<polygon fill="white" stroke="black" points="541.821,-168.5 541.821,-187.5 631.821,-187.5 631.821,-168.5 541.821,-168.5"/>
<text text-anchor="middle" x="586.821" y="-175.5" font-family="Helvetica,sans-Serif" font-size="10.00">ActionManager.h</text>
</a>
</g>
</g>
<!-- Node19&#45;&gt;Node20 -->
<g id="edge31" class="edge"><title>Node19&#45;&gt;Node20</title>
<path fill="none" stroke="midnightblue" d="M513.799,-224.324C527.371,-215.9 548.202,-202.971 564.146,-193.074"/>
<polygon fill="midnightblue" stroke="midnightblue" points="566.227,-195.902 572.878,-187.655 562.536,-189.954 566.227,-195.902"/>
</g>
<!-- Node20&#45;&gt;Node15 -->
<g id="edge32" class="edge"><title>Node20&#45;&gt;Node15</title>
<path fill="none" stroke="midnightblue" d="M586.326,-168.083C585.933,-161.006 585.369,-150.861 584.876,-141.986"/>
<polygon fill="midnightblue" stroke="midnightblue" points="588.357,-141.542 584.308,-131.751 581.368,-141.93 588.357,-141.542"/>
</g>
</g>
</svg>
