<?xml version="1.0" encoding="UTF-8" standalone="no"?>
<!DOCTYPE svg PUBLIC "-//W3C//DTD SVG 1.1//EN"
 "http://www.w3.org/Graphics/SVG/1.1/DTD/svg11.dtd">
<!-- Generated by graphviz version 2.36.0 (20140111.2315)
 -->
<!-- Title: Engine/include/Animation.h Pages: 1 -->
<svg width="575pt" height="252pt"
 viewBox="0.00 0.00 575.00 252.00" xmlns="http://www.w3.org/2000/svg" xmlns:xlink="http://www.w3.org/1999/xlink">
<g id="graph0" class="graph" transform="scale(1 1) rotate(0) translate(4 248)">
<title>Engine/include/Animation.h</title>
<polygon fill="white" stroke="none" points="-4,4 -4,-248 571.003,-248 571.003,4 -4,4"/>
<!-- Node1 -->
<g id="node1" class="node"><title>Node1</title>
<polygon fill="#bfbfbf" stroke="black" points="275.5,-224.5 275.5,-243.5 410.5,-243.5 410.5,-224.5 275.5,-224.5"/>
<text text-anchor="middle" x="343" y="-231.5" font-family="Helvetica,sans-Serif" font-size="10.00">Engine/include/Animation.h</text>
</g>
<!-- Node2 -->
<g id="node2" class="node"><title>Node2</title>
<g id="a_node2"><a xlink:href="GameObject_8h.html" target="_top" xlink:title="GameObject.h">
<polygon fill="white" stroke="black" points="150,-168.5 150,-187.5 230,-187.5 230,-168.5 150,-168.5"/>
<text text-anchor="middle" x="190" y="-175.5" font-family="Helvetica,sans-Serif" font-size="10.00">GameObject.h</text>
</a>
</g>
</g>
<!-- Node1&#45;&gt;Node2 -->
<g id="edge1" class="edge"><title>Node1&#45;&gt;Node2</title>
<path fill="none" stroke="midnightblue" d="M318.757,-224.444C293.129,-215.399 252.515,-201.064 223.762,-190.916"/>
<polygon fill="midnightblue" stroke="midnightblue" points="224.725,-187.544 214.13,-187.516 222.395,-194.145 224.725,-187.544"/>
</g>
<!-- Node11 -->
<g id="node11" class="node"><title>Node11</title>
<g id="a_node11"><a xlink:href="Sprite_8h.html" target="_top" xlink:title="Sprite.h">
<polygon fill="white" stroke="black" points="318,-168.5 318,-187.5 368,-187.5 368,-168.5 318,-168.5"/>
<text text-anchor="middle" x="343" y="-175.5" font-family="Helvetica,sans-Serif" font-size="10.00">Sprite.h</text>
</a>
</g>
</g>
<!-- Node1&#45;&gt;Node11 -->
<g id="edge13" class="edge"><title>Node1&#45;&gt;Node11</title>
<path fill="none" stroke="midnightblue" d="M343,-224.083C343,-217.006 343,-206.861 343,-197.986"/>
<polygon fill="midnightblue" stroke="midnightblue" points="346.5,-197.751 343,-187.751 339.5,-197.751 346.5,-197.751"/>
</g>
<!-- Node16 -->
<g id="node16" class="node"><title>Node16</title>
<g id="a_node16"><a xlink:href="Timer_8h.html" target="_top" xlink:title="Timer.h">
<polygon fill="white" stroke="black" points="386,-168.5 386,-187.5 436,-187.5 436,-168.5 386,-168.5"/>
<text text-anchor="middle" x="411" y="-175.5" font-family="Helvetica,sans-Serif" font-size="10.00">Timer.h</text>
</a>
</g>
</g>
<!-- Node1&#45;&gt;Node16 -->
<g id="edge24" class="edge"><title>Node1&#45;&gt;Node16</title>
<path fill="none" stroke="midnightblue" d="M353.925,-224.324C364.175,-216.185 379.721,-203.839 392.001,-194.087"/>
<polygon fill="midnightblue" stroke="midnightblue" points="394.221,-196.794 399.876,-187.834 389.868,-191.312 394.221,-196.794"/>
</g>
<!-- Node3 -->
<g id="node3" class="node"><title>Node3</title>
<g id="a_node3"><a xlink:href="SDL__include_8h.html" target="_top" xlink:title="SDL_include.h">
<polygon fill="white" stroke="black" points="277,-0.5 277,-19.5 357,-19.5 357,-0.5 277,-0.5"/>
<text text-anchor="middle" x="317" y="-7.5" font-family="Helvetica,sans-Serif" font-size="10.00">SDL_include.h</text>
</a>
</g>
</g>
<!-- Node2&#45;&gt;Node3 -->
<g id="edge2" class="edge"><title>Node2&#45;&gt;Node3</title>
<path fill="none" stroke="midnightblue" d="M186.262,-168.366C177.65,-147 158.99,-90.8642 184,-56 202.747,-29.866 237.5,-18.7173 266.779,-14.0491"/>
<polygon fill="midnightblue" stroke="midnightblue" points="267.446,-17.4904 276.872,-12.6543 266.487,-10.5563 267.446,-17.4904"/>
</g>
<!-- Node4 -->
<g id="node4" class="node"><title>Node4</title>
<polygon fill="white" stroke="#bfbfbf" points="0,-112.5 0,-131.5 44,-131.5 44,-112.5 0,-112.5"/>
<text text-anchor="middle" x="22" y="-119.5" font-family="Helvetica,sans-Serif" font-size="10.00">vector</text>
</g>
<!-- Node2&#45;&gt;Node4 -->
<g id="edge3" class="edge"><title>Node2&#45;&gt;Node4</title>
<path fill="none" stroke="midnightblue" d="M163.38,-168.444C133.659,-158.89 85.5788,-143.436 53.8768,-133.246"/>
<polygon fill="midnightblue" stroke="midnightblue" points="54.7948,-129.865 44.2034,-130.137 52.6527,-136.529 54.7948,-129.865"/>
</g>
<!-- Node5 -->
<g id="node5" class="node"><title>Node5</title>
<polygon fill="white" stroke="#bfbfbf" points="317,-112.5 317,-131.5 369,-131.5 369,-112.5 317,-112.5"/>
<text text-anchor="middle" x="343" y="-119.5" font-family="Helvetica,sans-Serif" font-size="10.00">memory</text>
</g>
<!-- Node2&#45;&gt;Node5 -->
<g id="edge4" class="edge"><title>Node2&#45;&gt;Node5</title>
<path fill="none" stroke="midnightblue" d="M214.243,-168.444C239.871,-159.399 280.485,-145.064 309.238,-134.916"/>
<polygon fill="midnightblue" stroke="midnightblue" points="310.605,-138.145 318.87,-131.516 308.275,-131.544 310.605,-138.145"/>
</g>
<!-- Node6 -->
<g id="node6" class="node"><title>Node6</title>
<polygon fill="white" stroke="#bfbfbf" points="193.5,-112.5 193.5,-131.5 234.5,-131.5 234.5,-112.5 193.5,-112.5"/>
<text text-anchor="middle" x="214" y="-119.5" font-family="Helvetica,sans-Serif" font-size="10.00">string</text>
</g>
<!-- Node2&#45;&gt;Node6 -->
<g id="edge5" class="edge"><title>Node2&#45;&gt;Node6</title>
<path fill="none" stroke="midnightblue" d="M193.963,-168.083C197.213,-160.77 201.919,-150.181 205.954,-141.103"/>
<polygon fill="midnightblue" stroke="midnightblue" points="209.248,-142.311 210.111,-131.751 202.851,-139.468 209.248,-142.311"/>
</g>
<!-- Node7 -->
<g id="node7" class="node"><title>Node7</title>
<g id="a_node7"><a xlink:href="Component_8h.html" target="_top" xlink:title="Component.h">
<polygon fill="white" stroke="black" points="61.5,-112.5 61.5,-131.5 136.5,-131.5 136.5,-112.5 61.5,-112.5"/>
<text text-anchor="middle" x="99" y="-119.5" font-family="Helvetica,sans-Serif" font-size="10.00">Component.h</text>
</a>
</g>
</g>
<!-- Node2&#45;&gt;Node7 -->
<g id="edge6" class="edge"><title>Node2&#45;&gt;Node7</title>
<path fill="none" stroke="midnightblue" d="M170.264,-168.324C154.395,-159.979 132.571,-147.212 117.143,-137.352"/>
<polygon fill="midnightblue" stroke="midnightblue" points="118.753,-134.222 108.474,-131.655 114.908,-140.072 118.753,-134.222"/>
</g>
<!-- Node8 -->
<g id="node8" class="node"><title>Node8</title>
<g id="a_node8"><a xlink:href="Rect_8h.html" target="_top" xlink:title="Rect.h">
<polygon fill="white" stroke="black" points="253,-112.5 253,-131.5 299,-131.5 299,-112.5 253,-112.5"/>
<text text-anchor="middle" x="276" y="-119.5" font-family="Helvetica,sans-Serif" font-size="10.00">Rect.h</text>
</a>
</g>
</g>
<!-- Node2&#45;&gt;Node8 -->
<g id="edge8" class="edge"><title>Node2&#45;&gt;Node8</title>
<path fill="none" stroke="midnightblue" d="M203.817,-168.324C217.233,-159.9 237.824,-146.971 253.586,-137.074"/>
<polygon fill="midnightblue" stroke="midnightblue" points="255.609,-139.936 262.217,-131.655 251.887,-134.008 255.609,-139.936"/>
</g>
<!-- Node7&#45;&gt;Node2 -->
<g id="edge7" class="edge"><title>Node7&#45;&gt;Node2</title>
<path fill="none" stroke="midnightblue" d="M118.695,-131.655C134.554,-139.992 156.378,-152.757 171.817,-162.622"/>
<polygon fill="midnightblue" stroke="midnightblue" points="170.215,-165.757 180.494,-168.324 174.059,-159.907 170.215,-165.757"/>
</g>
<!-- Node8&#45;&gt;Node3 -->
<g id="edge9" class="edge"><title>Node8&#45;&gt;Node3</title>
<path fill="none" stroke="midnightblue" d="M275.701,-112.245C275.565,-99.4305 276.454,-75.024 284,-56 288.092,-45.683 295.13,-35.588 301.659,-27.5824"/>
<polygon fill="midnightblue" stroke="midnightblue" points="304.49,-29.6593 308.378,-19.804 299.193,-25.0831 304.49,-29.6593"/>
</g>
<!-- Node9 -->
<g id="node9" class="node"><title>Node9</title>
<g id="a_node9"><a xlink:href="Vec2_8h.html" target="_top" xlink:title="Vec2.h">
<polygon fill="white" stroke="black" points="293.5,-56.5 293.5,-75.5 340.5,-75.5 340.5,-56.5 293.5,-56.5"/>
<text text-anchor="middle" x="317" y="-63.5" font-family="Helvetica,sans-Serif" font-size="10.00">Vec2.h</text>
</a>
</g>
</g>
<!-- Node8&#45;&gt;Node9 -->
<g id="edge10" class="edge"><title>Node8&#45;&gt;Node9</title>
<path fill="none" stroke="midnightblue" d="M282.77,-112.083C288.562,-104.455 297.058,-93.2645 304.138,-83.9408"/>
<polygon fill="midnightblue" stroke="midnightblue" points="307.096,-85.8321 310.356,-75.7511 301.521,-81.5991 307.096,-85.8321"/>
</g>
<!-- Node10 -->
<g id="node10" class="node"><title>Node10</title>
<polygon fill="white" stroke="#bfbfbf" points="193,-56.5 193,-75.5 237,-75.5 237,-56.5 193,-56.5"/>
<text text-anchor="middle" x="215" y="-63.5" font-family="Helvetica,sans-Serif" font-size="10.00">cmath</text>
</g>
<!-- Node8&#45;&gt;Node10 -->
<g id="edge12" class="edge"><title>Node8&#45;&gt;Node10</title>
<path fill="none" stroke="midnightblue" d="M266.199,-112.324C257.182,-104.341 243.594,-92.3128 232.682,-82.6529"/>
<polygon fill="midnightblue" stroke="midnightblue" points="234.787,-79.8416 224.979,-75.8339 230.147,-85.083 234.787,-79.8416"/>
</g>
<!-- Node9&#45;&gt;Node3 -->
<g id="edge11" class="edge"><title>Node9&#45;&gt;Node3</title>
<path fill="none" stroke="midnightblue" d="M317,-56.083C317,-49.0059 317,-38.8611 317,-29.9865"/>
<polygon fill="midnightblue" stroke="midnightblue" points="320.5,-29.751 317,-19.7511 313.5,-29.7511 320.5,-29.751"/>
</g>
<!-- Node11&#45;&gt;Node3 -->
<g id="edge14" class="edge"><title>Node11&#45;&gt;Node3</title>
<path fill="none" stroke="midnightblue" d="M368.216,-170.178C371.172,-169.422 374.149,-168.681 377,-168 451.698,-150.169 494.068,-188.575 546,-132 568.938,-107.011 574.623,-82.1355 553,-56 529.892,-28.0689 429.359,-17.3214 367.198,-13.2995"/>
<polygon fill="midnightblue" stroke="midnightblue" points="367.388,-9.80472 357.194,-12.6886 366.962,-16.7917 367.388,-9.80472"/>
</g>
<!-- Node11&#45;&gt;Node5 -->
<g id="edge16" class="edge"><title>Node11&#45;&gt;Node5</title>
<path fill="none" stroke="midnightblue" d="M343,-168.083C343,-161.006 343,-150.861 343,-141.986"/>
<polygon fill="midnightblue" stroke="midnightblue" points="346.5,-141.751 343,-131.751 339.5,-141.751 346.5,-141.751"/>
</g>
<!-- Node11&#45;&gt;Node6 -->
<g id="edge15" class="edge"><title>Node11&#45;&gt;Node6</title>
<path fill="none" stroke="midnightblue" d="M322.56,-168.444C301.33,-159.557 267.901,-145.563 243.745,-135.451"/>
<polygon fill="midnightblue" stroke="midnightblue" points="244.921,-132.149 234.345,-131.516 242.218,-138.606 244.921,-132.149"/>
</g>
<!-- Node11&#45;&gt;Node8 -->
<g id="edge18" class="edge"><title>Node11&#45;&gt;Node8</title>
<path fill="none" stroke="midnightblue" d="M332.235,-168.324C322.234,-160.263 307.113,-148.077 295.07,-138.369"/>
<polygon fill="midnightblue" stroke="midnightblue" points="296.943,-135.384 286.961,-131.834 292.55,-140.834 296.943,-135.384"/>
</g>
<!-- Node12 -->
<g id="node12" class="node"><title>Node12</title>
<g id="a_node12"><a xlink:href="Color_8h.html" target="_top" xlink:title="Color.h">
<polygon fill="white" stroke="black" points="489,-112.5 489,-131.5 537,-131.5 537,-112.5 489,-112.5"/>
<text text-anchor="middle" x="513" y="-119.5" font-family="Helvetica,sans-Serif" font-size="10.00">Color.h</text>
</a>
</g>
</g>
<!-- Node11&#45;&gt;Node12 -->
<g id="edge17" class="edge"><title>Node11&#45;&gt;Node12</title>
<path fill="none" stroke="midnightblue" d="M368.084,-169.032C397.547,-159.673 446.551,-144.107 479.309,-133.702"/>
<polygon fill="midnightblue" stroke="midnightblue" points="480.443,-137.014 488.914,-130.651 478.323,-130.343 480.443,-137.014"/>
</g>
<!-- Node13 -->
<g id="node13" class="node"><title>Node13</title>
<g id="a_node13"><a xlink:href="InputManager_8h.html" target="_top" xlink:title="InputManager.h">
<polygon fill="white" stroke="black" points="387,-112.5 387,-131.5 471,-131.5 471,-112.5 387,-112.5"/>
<text text-anchor="middle" x="429" y="-119.5" font-family="Helvetica,sans-Serif" font-size="10.00">InputManager.h</text>
</a>
</g>
</g>
<!-- Node11&#45;&gt;Node13 -->
<g id="edge19" class="edge"><title>Node11&#45;&gt;Node13</title>
<path fill="none" stroke="midnightblue" d="M356.817,-168.324C370.233,-159.9 390.824,-146.971 406.586,-137.074"/>
<polygon fill="midnightblue" stroke="midnightblue" points="408.609,-139.936 415.217,-131.655 404.887,-134.008 408.609,-139.936"/>
</g>
<!-- Node13&#45;&gt;Node3 -->
<g id="edge20" class="edge"><title>Node13&#45;&gt;Node3</title>
<path fill="none" stroke="midnightblue" d="M436.403,-112.243C446.659,-98.9921 462.581,-73.5378 450,-56 431.253,-29.866 396.5,-18.7173 367.221,-14.0491"/>
<polygon fill="midnightblue" stroke="midnightblue" points="367.513,-10.5563 357.128,-12.6543 366.554,-17.4904 367.513,-10.5563"/>
</g>
<!-- Node13&#45;&gt;Node9 -->
<g id="edge21" class="edge"><title>Node13&#45;&gt;Node9</title>
<path fill="none" stroke="midnightblue" d="M411.005,-112.324C392.962,-103.625 364.953,-90.1202 344.197,-80.113"/>
<polygon fill="midnightblue" stroke="midnightblue" points="345.478,-76.8449 334.95,-75.6545 342.438,-83.1502 345.478,-76.8449"/>
</g>
<!-- Node14 -->
<g id="node14" class="node"><title>Node14</title>
<polygon fill="white" stroke="#bfbfbf" points="358.5,-56.5 358.5,-75.5 441.5,-75.5 441.5,-56.5 358.5,-56.5"/>
<text text-anchor="middle" x="400" y="-63.5" font-family="Helvetica,sans-Serif" font-size="10.00">unordered_map</text>
</g>
<!-- Node13&#45;&gt;Node14 -->
<g id="edge22" class="edge"><title>Node13&#45;&gt;Node14</title>
<path fill="none" stroke="midnightblue" d="M424.211,-112.083C420.242,-104.691 414.475,-93.9533 409.565,-84.8111"/>
<polygon fill="midnightblue" stroke="midnightblue" points="412.514,-82.9051 404.7,-75.7511 406.347,-86.217 412.514,-82.9051"/>
</g>
<!-- Node15 -->
<g id="node15" class="node"><title>Node15</title>
<polygon fill="white" stroke="#bfbfbf" points="498,-56.5 498,-75.5 544,-75.5 544,-56.5 498,-56.5"/>
<text text-anchor="middle" x="521" y="-63.5" font-family="Helvetica,sans-Serif" font-size="10.00">cstdint</text>
</g>
<!-- Node13&#45;&gt;Node15 -->
<g id="edge23" class="edge"><title>Node13&#45;&gt;Node15</title>
<path fill="none" stroke="midnightblue" d="M443.781,-112.324C458.267,-103.822 480.573,-90.7288 497.493,-80.7975"/>
<polygon fill="midnightblue" stroke="midnightblue" points="499.403,-83.735 506.255,-75.6545 495.859,-77.6981 499.403,-83.735"/>
</g>
</g>
</svg>
