<?xml version="1.0" encoding="UTF-8" standalone="no"?>
<!DOCTYPE svg PUBLIC "-//W3C//DTD SVG 1.1//EN"
 "http://www.w3.org/Graphics/SVG/1.1/DTD/svg11.dtd">
<!-- Generated by graphviz version 2.36.0 (20140111.2315)
 -->
<!-- Title: Game/include/Bullet.h Pages: 1 -->
<svg width="978pt" height="196pt"
 viewBox="0.00 0.00 978.00 196.00" xmlns="http://www.w3.org/2000/svg" xmlns:xlink="http://www.w3.org/1999/xlink">
<g id="graph0" class="graph" transform="scale(1 1) rotate(0) translate(4 192)">
<title>Game/include/Bullet.h</title>
<polygon fill="white" stroke="none" points="-4,4 -4,-192 974,-192 974,4 -4,4"/>
<!-- Node1 -->
<g id="node1" class="node"><title>Node1</title>
<polygon fill="#bfbfbf" stroke="black" points="523.5,-168.5 523.5,-187.5 636.5,-187.5 636.5,-168.5 523.5,-168.5"/>
<text text-anchor="middle" x="580" y="-175.5" font-family="Helvetica,sans-Serif" font-size="10.00">Game/include/Bullet.h</text>
</g>
<!-- Node2 -->
<g id="node2" class="node"><title>Node2</title>
<g id="a_node2"><a xlink:href="AIQuimic_8h.html" target="_top" xlink:title="Game/include/AIQuimic.h">
<polygon fill="white" stroke="black" points="235,-56.5 235,-75.5 363,-75.5 363,-56.5 235,-56.5"/>
<text text-anchor="middle" x="299" y="-63.5" font-family="Helvetica,sans-Serif" font-size="10.00">Game/include/AIQuimic.h</text>
</a>
</g>
</g>
<!-- Node1&#45;&gt;Node2 -->
<g id="edge1" class="edge"><title>Node1&#45;&gt;Node2</title>
<path fill="none" stroke="midnightblue" d="M543.576,-165.335C517.137,-156.662 480.611,-144.257 449,-132 401.104,-113.429 345.952,-88.6253 317.747,-75.6861"/>
<polygon fill="midnightblue" stroke="midnightblue" points="542.592,-168.695 553.184,-168.468 544.762,-162.04 542.592,-168.695"/>
</g>
<!-- Node6 -->
<g id="node6" class="node"><title>Node6</title>
<g id="a_node6"><a xlink:href="Tower_8h.html" target="_top" xlink:title="Game/include/Tower.h">
<polygon fill="white" stroke="black" points="458.5,-112.5 458.5,-131.5 573.5,-131.5 573.5,-112.5 458.5,-112.5"/>
<text text-anchor="middle" x="516" y="-119.5" font-family="Helvetica,sans-Serif" font-size="10.00">Game/include/Tower.h</text>
</a>
</g>
</g>
<!-- Node1&#45;&gt;Node6 -->
<g id="edge5" class="edge"><title>Node1&#45;&gt;Node6</title>
<path fill="none" stroke="midnightblue" d="M562.009,-161.82C550.542,-152.145 536.087,-139.948 526.47,-131.834"/>
<polygon fill="midnightblue" stroke="midnightblue" points="559.817,-164.55 569.717,-168.324 564.331,-159.2 559.817,-164.55"/>
</g>
<!-- Node12 -->
<g id="node12" class="node"><title>Node12</title>
<g id="a_node12"><a xlink:href="Bullet_8cpp.html" target="_top" xlink:title="Game/src/Bullet.cpp">
<polygon fill="white" stroke="black" points="592,-112.5 592,-131.5 698,-131.5 698,-112.5 592,-112.5"/>
<text text-anchor="middle" x="645" y="-119.5" font-family="Helvetica,sans-Serif" font-size="10.00">Game/src/Bullet.cpp</text>
</a>
</g>
</g>
<!-- Node1&#45;&gt;Node12 -->
<g id="edge14" class="edge"><title>Node1&#45;&gt;Node12</title>
<path fill="none" stroke="midnightblue" d="M598.273,-161.82C609.918,-152.145 624.599,-139.948 634.367,-131.834"/>
<polygon fill="midnightblue" stroke="midnightblue" points="595.899,-159.242 590.443,-168.324 600.372,-164.626 595.899,-159.242"/>
</g>
<!-- Node13 -->
<g id="node13" class="node"><title>Node13</title>
<g id="a_node13"><a xlink:href="Shooter_8cpp.html" target="_top" xlink:title="Game/src/Shooter.cpp">
<polygon fill="white" stroke="black" points="716.5,-112.5 716.5,-131.5 831.5,-131.5 831.5,-112.5 716.5,-112.5"/>
<text text-anchor="middle" x="774" y="-119.5" font-family="Helvetica,sans-Serif" font-size="10.00">Game/src/Shooter.cpp</text>
</a>
</g>
</g>
<!-- Node1&#45;&gt;Node13 -->
<g id="edge15" class="edge"><title>Node1&#45;&gt;Node13</title>
<path fill="none" stroke="midnightblue" d="M620.601,-165.699C657.215,-155.507 710.257,-140.743 743.404,-131.516"/>
<polygon fill="midnightblue" stroke="midnightblue" points="619.435,-162.39 610.74,-168.444 621.312,-169.134 619.435,-162.39"/>
</g>
<!-- Node3 -->
<g id="node3" class="node"><title>Node3</title>
<g id="a_node3"><a xlink:href="AIQuimic_8cpp.html" target="_top" xlink:title="Game/src/AIQuimic.cpp">
<polygon fill="white" stroke="black" points="0,-0.5 0,-19.5 122,-19.5 122,-0.5 0,-0.5"/>
<text text-anchor="middle" x="61" y="-7.5" font-family="Helvetica,sans-Serif" font-size="10.00">Game/src/AIQuimic.cpp</text>
</a>
</g>
</g>
<!-- Node2&#45;&gt;Node3 -->
<g id="edge2" class="edge"><title>Node2&#45;&gt;Node3</title>
<path fill="none" stroke="midnightblue" d="M251.476,-54.2172C206.504,-44.0134 139.895,-28.9006 98.5354,-19.5164"/>
<polygon fill="midnightblue" stroke="midnightblue" points="250.762,-57.644 261.288,-56.4435 252.311,-50.8175 250.762,-57.644"/>
</g>
<!-- Node4 -->
<g id="node4" class="node"><title>Node4</title>
<g id="a_node4"><a xlink:href="Enemy_8cpp.html" target="_top" xlink:title="Game/src/Enemy.cpp">
<polygon fill="white" stroke="black" points="140,-0.5 140,-19.5 252,-19.5 252,-0.5 140,-0.5"/>
<text text-anchor="middle" x="196" y="-7.5" font-family="Helvetica,sans-Serif" font-size="10.00">Game/src/Enemy.cpp</text>
</a>
</g>
</g>
<!-- Node2&#45;&gt;Node4 -->
<g id="edge3" class="edge"><title>Node2&#45;&gt;Node4</title>
<path fill="none" stroke="midnightblue" d="M273.421,-51.5895C254.377,-41.6052 228.936,-28.2672 212.508,-19.6545"/>
<polygon fill="midnightblue" stroke="midnightblue" points="271.969,-54.7805 282.451,-56.324 275.22,-48.5808 271.969,-54.7805"/>
</g>
<!-- Node5 -->
<g id="node5" class="node"><title>Node5</title>
<g id="a_node5"><a xlink:href="StageState_8cpp.html" target="_top" xlink:title="Game/src/StageState.cpp">
<polygon fill="white" stroke="black" points="270,-0.5 270,-19.5 400,-19.5 400,-0.5 270,-0.5"/>
<text text-anchor="middle" x="335" y="-7.5" font-family="Helvetica,sans-Serif" font-size="10.00">Game/src/StageState.cpp</text>
</a>
</g>
</g>
<!-- Node2&#45;&gt;Node5 -->
<g id="edge4" class="edge"><title>Node2&#45;&gt;Node5</title>
<path fill="none" stroke="midnightblue" d="M310.623,-47.5656C316.817,-38.2747 324.168,-27.2484 329.166,-19.7511"/>
<polygon fill="midnightblue" stroke="midnightblue" points="307.58,-45.821 304.945,-56.083 313.404,-49.7039 307.58,-45.821"/>
</g>
<!-- Node7 -->
<g id="node7" class="node"><title>Node7</title>
<g id="a_node7"><a xlink:href="StageState_8h.html" target="_top" xlink:title="Game/include/StageState.h">
<polygon fill="white" stroke="black" points="447.5,-56.5 447.5,-75.5 584.5,-75.5 584.5,-56.5 447.5,-56.5"/>
<text text-anchor="middle" x="516" y="-63.5" font-family="Helvetica,sans-Serif" font-size="10.00">Game/include/StageState.h</text>
</a>
</g>
</g>
<!-- Node6&#45;&gt;Node7 -->
<g id="edge6" class="edge"><title>Node6&#45;&gt;Node7</title>
<path fill="none" stroke="midnightblue" d="M516,-101.805C516,-92.9102 516,-82.7798 516,-75.7511"/>
<polygon fill="midnightblue" stroke="midnightblue" points="512.5,-102.083 516,-112.083 519.5,-102.083 512.5,-102.083"/>
</g>
<!-- Node10 -->
<g id="node10" class="node"><title>Node10</title>
<g id="a_node10"><a xlink:href="Tower_8cpp.html" target="_top" xlink:title="Game/src/Tower.cpp">
<polygon fill="white" stroke="black" points="862,-0.5 862,-19.5 970,-19.5 970,-0.5 862,-0.5"/>
<text text-anchor="middle" x="916" y="-7.5" font-family="Helvetica,sans-Serif" font-size="10.00">Game/src/Tower.cpp</text>
</a>
</g>
</g>
<!-- Node6&#45;&gt;Node10 -->
<g id="edge13" class="edge"><title>Node6&#45;&gt;Node10</title>
<path fill="none" stroke="midnightblue" d="M556.796,-109.781C636.958,-87.7365 813.429,-39.2071 884.965,-19.5345"/>
<polygon fill="midnightblue" stroke="midnightblue" points="555.768,-106.434 547.054,-112.46 557.625,-113.183 555.768,-106.434"/>
</g>
<!-- Node7&#45;&gt;Node4 -->
<g id="edge8" class="edge"><title>Node7&#45;&gt;Node4</title>
<path fill="none" stroke="midnightblue" d="M455.126,-54.7275C394.655,-44.523 303.012,-29.0583 246.468,-19.5164"/>
<polygon fill="midnightblue" stroke="midnightblue" points="454.852,-58.2307 465.295,-56.4435 456.017,-51.3283 454.852,-58.2307"/>
</g>
<!-- Node7&#45;&gt;Node5 -->
<g id="edge9" class="edge"><title>Node7&#45;&gt;Node5</title>
<path fill="none" stroke="midnightblue" d="M477.681,-53.5677C443.536,-43.381 394.339,-28.7034 363.546,-19.5164"/>
<polygon fill="midnightblue" stroke="midnightblue" points="476.737,-56.9385 487.32,-56.4435 478.738,-50.2306 476.737,-56.9385"/>
</g>
<!-- Node8 -->
<g id="node8" class="node"><title>Node8</title>
<g id="a_node8"><a xlink:href="EndState_8cpp.html" target="_top" xlink:title="Game/src/EndState.cpp">
<polygon fill="white" stroke="black" points="722,-0.5 722,-19.5 844,-19.5 844,-0.5 722,-0.5"/>
<text text-anchor="middle" x="783" y="-7.5" font-family="Helvetica,sans-Serif" font-size="10.00">Game/src/EndState.cpp</text>
</a>
</g>
</g>
<!-- Node7&#45;&gt;Node8 -->
<g id="edge7" class="edge"><title>Node7&#45;&gt;Node8</title>
<path fill="none" stroke="midnightblue" d="M568.364,-54.4096C618.824,-44.2042 694.199,-28.9597 740.891,-19.5164"/>
<polygon fill="midnightblue" stroke="midnightblue" points="567.415,-51.0306 558.307,-56.4435 568.802,-57.8917 567.415,-51.0306"/>
</g>
<!-- Node9 -->
<g id="node9" class="node"><title>Node9</title>
<g id="a_node9"><a xlink:href="TitleState_8cpp.html" target="_top" xlink:title="Game/src/TitleState.cpp">
<polygon fill="white" stroke="black" points="418.5,-0.5 418.5,-19.5 541.5,-19.5 541.5,-0.5 418.5,-0.5"/>
<text text-anchor="middle" x="480" y="-7.5" font-family="Helvetica,sans-Serif" font-size="10.00">Game/src/TitleState.cpp</text>
</a>
</g>
</g>
<!-- Node7&#45;&gt;Node9 -->
<g id="edge10" class="edge"><title>Node7&#45;&gt;Node9</title>
<path fill="none" stroke="midnightblue" d="M504.377,-47.5656C498.183,-38.2747 490.832,-27.2484 485.834,-19.7511"/>
<polygon fill="midnightblue" stroke="midnightblue" points="501.596,-49.7039 510.055,-56.083 507.42,-45.821 501.596,-49.7039"/>
</g>
<!-- Node7&#45;&gt;Node10 -->
<g id="edge11" class="edge"><title>Node7&#45;&gt;Node10</title>
<path fill="none" stroke="midnightblue" d="M591.496,-55.1198C659.812,-46.1314 763.181,-32.4122 853,-20 855.846,-19.6068 858.763,-19.2006 861.708,-18.7881"/>
<polygon fill="midnightblue" stroke="midnightblue" points="590.717,-51.692 581.258,-56.4658 591.629,-58.6323 590.717,-51.692"/>
</g>
<!-- Node11 -->
<g id="node11" class="node"><title>Node11</title>
<g id="a_node11"><a xlink:href="WaveManager_8cpp.html" target="_top" xlink:title="Game/src/WaveManager.cpp">
<polygon fill="white" stroke="black" points="560,-0.5 560,-19.5 704,-19.5 704,-0.5 560,-0.5"/>
<text text-anchor="middle" x="632" y="-7.5" font-family="Helvetica,sans-Serif" font-size="10.00">Game/src/WaveManager.cpp</text>
</a>
</g>
</g>
<!-- Node7&#45;&gt;Node11 -->
<g id="edge12" class="edge"><title>Node7&#45;&gt;Node11</title>
<path fill="none" stroke="midnightblue" d="M543.72,-52.096C565.392,-42.0073 594.902,-28.2697 613.705,-19.5164"/>
<polygon fill="midnightblue" stroke="midnightblue" points="541.969,-49.0501 534.381,-56.4435 544.923,-55.3962 541.969,-49.0501"/>
</g>
</g>
</svg>
