<?xml version="1.0" encoding="UTF-8" standalone="no"?>
<!DOCTYPE svg PUBLIC "-//W3C//DTD SVG 1.1//EN"
 "http://www.w3.org/Graphics/SVG/1.1/DTD/svg11.dtd">
<!-- Generated by graphviz version 2.38.0 (20140413.2041)
 -->
<!-- Title: Engine/src/Camera.cpp Pages: 1 -->
<svg width="522pt" height="308pt"
 viewBox="0.00 0.00 521.50 308.00" xmlns="http://www.w3.org/2000/svg" xmlns:xlink="http://www.w3.org/1999/xlink">
<g id="graph0" class="graph" transform="scale(1 1) rotate(0) translate(4 304)">
<title>Engine/src/Camera.cpp</title>
<polygon fill="white" stroke="none" points="-4,4 -4,-304 517.5,-304 517.5,4 -4,4"/>
<!-- Node1 -->
<g id="node1" class="node"><title>Node1</title>
<polygon fill="#bfbfbf" stroke="black" points="103,-280.5 103,-299.5 222,-299.5 222,-280.5 103,-280.5"/>
<text text-anchor="middle" x="162.5" y="-287.5" font-family="Helvetica,sans-Serif" font-size="10.00">Engine/src/Camera.cpp</text>
</g>
<!-- Node2 -->
<g id="node2" class="node"><title>Node2</title>
<g id="a_node2"><a xlink:href="Camera_8h.html" target="_top" xlink:title="Camera.h">
<polygon fill="white" stroke="black" points="0,-168.5 0,-187.5 59,-187.5 59,-168.5 0,-168.5"/>
<text text-anchor="middle" x="29.5" y="-175.5" font-family="Helvetica,sans-Serif" font-size="10.00">Camera.h</text>
</a>
</g>
</g>
<!-- Node1&#45;&gt;Node2 -->
<g id="edge1" class="edge"><title>Node1&#45;&gt;Node2</title>
<path fill="none" stroke="midnightblue" d="M152.064,-280.368C129.532,-261.733 76.0891,-217.532 47.7982,-194.134"/>
<polygon fill="midnightblue" stroke="midnightblue" points="49.8244,-191.268 39.8878,-187.591 45.3631,-196.662 49.8244,-191.268"/>
</g>
<!-- Node8 -->
<g id="node8" class="node"><title>Node8</title>
<g id="a_node8"><a xlink:href="InputManager_8h.html" target="_top" xlink:title="InputManager.h">
<polygon fill="white" stroke="black" points="77.5,-168.5 77.5,-187.5 161.5,-187.5 161.5,-168.5 77.5,-168.5"/>
<text text-anchor="middle" x="119.5" y="-175.5" font-family="Helvetica,sans-Serif" font-size="10.00">InputManager.h</text>
</a>
</g>
</g>
<!-- Node1&#45;&gt;Node8 -->
<g id="edge8" class="edge"><title>Node1&#45;&gt;Node8</title>
<path fill="none" stroke="midnightblue" d="M159.126,-280.368C152.124,-262.456 135.888,-220.923 126.516,-196.948"/>
<polygon fill="midnightblue" stroke="midnightblue" points="129.759,-195.631 122.858,-187.591 123.24,-198.179 129.759,-195.631"/>
</g>
<!-- Node9 -->
<g id="node9" class="node"><title>Node9</title>
<g id="a_node9"><a xlink:href="Error_8h.html" target="_top" xlink:title="Error.h">
<polygon fill="white" stroke="black" points="397.5,-224.5 397.5,-243.5 443.5,-243.5 443.5,-224.5 397.5,-224.5"/>
<text text-anchor="middle" x="420.5" y="-231.5" font-family="Helvetica,sans-Serif" font-size="10.00">Error.h</text>
</a>
</g>
</g>
<!-- Node1&#45;&gt;Node9 -->
<g id="edge10" class="edge"><title>Node1&#45;&gt;Node9</title>
<path fill="none" stroke="midnightblue" d="M203.381,-280.444C254.37,-269.771 340.544,-251.735 387.532,-241.9"/>
<polygon fill="midnightblue" stroke="midnightblue" points="388.418,-245.291 397.489,-239.816 386.984,-238.439 388.418,-245.291"/>
</g>
<!-- Node12 -->
<g id="node12" class="node"><title>Node12</title>
<g id="a_node12"><a xlink:href="Game_8h.html" target="_top" xlink:title="Game.h">
<polygon fill="white" stroke="black" points="189,-224.5 189,-243.5 240,-243.5 240,-224.5 189,-224.5"/>
<text text-anchor="middle" x="214.5" y="-231.5" font-family="Helvetica,sans-Serif" font-size="10.00">Game.h</text>
</a>
</g>
</g>
<!-- Node1&#45;&gt;Node12 -->
<g id="edge13" class="edge"><title>Node1&#45;&gt;Node12</title>
<path fill="none" stroke="midnightblue" d="M171.087,-280.083C178.659,-272.22 189.878,-260.569 199.014,-251.081"/>
<polygon fill="midnightblue" stroke="midnightblue" points="201.658,-253.382 206.073,-243.751 196.615,-248.527 201.658,-253.382"/>
</g>
<!-- Node3 -->
<g id="node3" class="node"><title>Node3</title>
<g id="a_node3"><a xlink:href="Gameobject_8h.html" target="_top" xlink:title="Gameobject.h">
<polygon fill="white" stroke="black" points="134,-112.5 134,-131.5 211,-131.5 211,-112.5 134,-112.5"/>
<text text-anchor="middle" x="172.5" y="-119.5" font-family="Helvetica,sans-Serif" font-size="10.00">Gameobject.h</text>
</a>
</g>
</g>
<!-- Node2&#45;&gt;Node3 -->
<g id="edge2" class="edge"><title>Node2&#45;&gt;Node3</title>
<path fill="none" stroke="midnightblue" d="M52.1588,-168.444C75.9019,-159.478 113.409,-145.314 140.238,-135.183"/>
<polygon fill="midnightblue" stroke="midnightblue" points="141.829,-138.324 149.947,-131.516 139.356,-131.775 141.829,-138.324"/>
</g>
<!-- Node5 -->
<g id="node5" class="node"><title>Node5</title>
<g id="a_node5"><a xlink:href="Vec2_8h.html" target="_top" xlink:title="Vec2.h">
<polygon fill="white" stroke="black" points="60,-0.5 60,-19.5 107,-19.5 107,-0.5 60,-0.5"/>
<text text-anchor="middle" x="83.5" y="-7.5" font-family="Helvetica,sans-Serif" font-size="10.00">Vec2.h</text>
</a>
</g>
</g>
<!-- Node2&#45;&gt;Node5 -->
<g id="edge7" class="edge"><title>Node2&#45;&gt;Node5</title>
<path fill="none" stroke="midnightblue" d="M32.4033,-168.075C40.9401,-141.832 66.0817,-64.5453 77.6067,-29.1165"/>
<polygon fill="midnightblue" stroke="midnightblue" points="80.9476,-30.1603 80.7128,-19.5681 74.2909,-27.9949 80.9476,-30.1603"/>
</g>
<!-- Node4 -->
<g id="node4" class="node"><title>Node4</title>
<g id="a_node4"><a xlink:href="Rect_8h.html" target="_top" xlink:title="Rect.h">
<polygon fill="white" stroke="black" points="141.5,-56.5 141.5,-75.5 187.5,-75.5 187.5,-56.5 141.5,-56.5"/>
<text text-anchor="middle" x="164.5" y="-63.5" font-family="Helvetica,sans-Serif" font-size="10.00">Rect.h</text>
</a>
</g>
</g>
<!-- Node3&#45;&gt;Node4 -->
<g id="edge3" class="edge"><title>Node3&#45;&gt;Node4</title>
<path fill="none" stroke="midnightblue" d="M171.179,-112.083C170.119,-104.927 168.594,-94.6353 167.269,-85.6911"/>
<polygon fill="midnightblue" stroke="midnightblue" points="170.724,-85.1302 165.796,-75.7511 163.8,-86.1561 170.724,-85.1302"/>
</g>
<!-- Node7 -->
<g id="node7" class="node"><title>Node7</title>
<polygon fill="white" stroke="#bfbfbf" points="212,-56.5 212,-75.5 253,-75.5 253,-56.5 212,-56.5"/>
<text text-anchor="middle" x="232.5" y="-63.5" font-family="Helvetica,sans-Serif" font-size="10.00">string</text>
</g>
<!-- Node3&#45;&gt;Node7 -->
<g id="edge6" class="edge"><title>Node3&#45;&gt;Node7</title>
<path fill="none" stroke="midnightblue" d="M182.14,-112.324C191.01,-104.341 204.375,-92.3128 215.108,-82.6529"/>
<polygon fill="midnightblue" stroke="midnightblue" points="217.593,-85.1251 222.685,-75.8339 212.91,-79.922 217.593,-85.1251"/>
</g>
<!-- Node4&#45;&gt;Node5 -->
<g id="edge4" class="edge"><title>Node4&#45;&gt;Node5</title>
<path fill="none" stroke="midnightblue" d="M151.486,-56.324C138.968,-47.979 119.818,-35.2122 105.029,-25.3524"/>
<polygon fill="midnightblue" stroke="midnightblue" points="106.744,-22.2894 96.4818,-19.6545 102.861,-28.1137 106.744,-22.2894"/>
</g>
<!-- Node6 -->
<g id="node6" class="node"><title>Node6</title>
<polygon fill="white" stroke="#bfbfbf" points="142.5,-0.5 142.5,-19.5 186.5,-19.5 186.5,-0.5 142.5,-0.5"/>
<text text-anchor="middle" x="164.5" y="-7.5" font-family="Helvetica,sans-Serif" font-size="10.00">cmath</text>
</g>
<!-- Node4&#45;&gt;Node6 -->
<g id="edge5" class="edge"><title>Node4&#45;&gt;Node6</title>
<path fill="none" stroke="midnightblue" d="M164.5,-56.083C164.5,-49.0059 164.5,-38.8611 164.5,-29.9865"/>
<polygon fill="midnightblue" stroke="midnightblue" points="168,-29.751 164.5,-19.7511 161,-29.7511 168,-29.751"/>
</g>
<!-- Node8&#45;&gt;Node5 -->
<g id="edge9" class="edge"><title>Node8&#45;&gt;Node5</title>
<path fill="none" stroke="midnightblue" d="M112.29,-168.35C105.575,-159.737 95.9531,-145.839 91.5,-132 80.3104,-97.2252 80.6143,-54.0011 81.9716,-29.7583"/>
<polygon fill="midnightblue" stroke="midnightblue" points="85.4636,-29.993 82.6543,-19.7774 78.4799,-29.5153 85.4636,-29.993"/>
</g>
<!-- Node10 -->
<g id="node10" class="node"><title>Node10</title>
<polygon fill="white" stroke="#bfbfbf" points="393.5,-168.5 393.5,-187.5 447.5,-187.5 447.5,-168.5 393.5,-168.5"/>
<text text-anchor="middle" x="420.5" y="-175.5" font-family="Helvetica,sans-Serif" font-size="10.00">iostream</text>
</g>
<!-- Node9&#45;&gt;Node10 -->
<g id="edge11" class="edge"><title>Node9&#45;&gt;Node10</title>
<path fill="none" stroke="midnightblue" d="M420.5,-224.083C420.5,-217.006 420.5,-206.861 420.5,-197.986"/>
<polygon fill="midnightblue" stroke="midnightblue" points="424,-197.751 420.5,-187.751 417,-197.751 424,-197.751"/>
</g>
<!-- Node11 -->
<g id="node11" class="node"><title>Node11</title>
<polygon fill="white" stroke="#bfbfbf" points="465.5,-168.5 465.5,-187.5 513.5,-187.5 513.5,-168.5 465.5,-168.5"/>
<text text-anchor="middle" x="489.5" y="-175.5" font-family="Helvetica,sans-Serif" font-size="10.00">stdlib.h</text>
</g>
<!-- Node9&#45;&gt;Node11 -->
<g id="edge12" class="edge"><title>Node9&#45;&gt;Node11</title>
<path fill="none" stroke="midnightblue" d="M431.586,-224.324C441.986,-216.185 457.761,-203.839 470.222,-194.087"/>
<polygon fill="midnightblue" stroke="midnightblue" points="472.494,-196.753 478.212,-187.834 468.18,-191.241 472.494,-196.753"/>
</g>
<!-- Node12&#45;&gt;Node5 -->
<g id="edge21" class="edge"><title>Node12&#45;&gt;Node5</title>
<path fill="none" stroke="midnightblue" d="M209.838,-224.391C202.522,-211.335 187.422,-186.131 170.5,-168 152.787,-149.021 139.515,-153.178 124.5,-132 101.917,-100.147 91.0052,-54.8851 86.3916,-29.7175"/>
<polygon fill="midnightblue" stroke="midnightblue" points="89.8141,-28.9648 84.6958,-19.6884 82.9121,-30.132 89.8141,-28.9648"/>
</g>
<!-- Node12&#45;&gt;Node7 -->
<g id="edge14" class="edge"><title>Node12&#45;&gt;Node7</title>
<path fill="none" stroke="midnightblue" d="M215.468,-224.075C218.301,-197.945 226.622,-121.211 230.486,-85.577"/>
<polygon fill="midnightblue" stroke="midnightblue" points="233.972,-85.8872 231.571,-75.5681 227.013,-85.1325 233.972,-85.8872"/>
</g>
<!-- Node12&#45;&gt;Node8 -->
<g id="edge20" class="edge"><title>Node12&#45;&gt;Node8</title>
<path fill="none" stroke="midnightblue" d="M199.237,-224.324C184.279,-215.822 161.245,-202.729 143.773,-192.797"/>
<polygon fill="midnightblue" stroke="midnightblue" points="145.149,-189.553 134.726,-187.655 141.69,-195.639 145.149,-189.553"/>
</g>
<!-- Node13 -->
<g id="node13" class="node"><title>Node13</title>
<polygon fill="white" stroke="#bfbfbf" points="334,-168.5 334,-187.5 375,-187.5 375,-168.5 334,-168.5"/>
<text text-anchor="middle" x="354.5" y="-175.5" font-family="Helvetica,sans-Serif" font-size="10.00">stack</text>
</g>
<!-- Node12&#45;&gt;Node13 -->
<g id="edge15" class="edge"><title>Node12&#45;&gt;Node13</title>
<path fill="none" stroke="midnightblue" d="M236.683,-224.444C260.339,-215.319 297.949,-200.813 324.296,-190.65"/>
<polygon fill="midnightblue" stroke="midnightblue" points="325.719,-193.853 333.79,-186.988 323.2,-187.322 325.719,-193.853"/>
</g>
<!-- Node14 -->
<g id="node14" class="node"><title>Node14</title>
<g id="a_node14"><a xlink:href="State_8h.html" target="_top" xlink:title="State.h">
<polygon fill="white" stroke="black" points="267.5,-168.5 267.5,-187.5 315.5,-187.5 315.5,-168.5 267.5,-168.5"/>
<text text-anchor="middle" x="291.5" y="-175.5" font-family="Helvetica,sans-Serif" font-size="10.00">State.h</text>
</a>
</g>
</g>
<!-- Node12&#45;&gt;Node14 -->
<g id="edge16" class="edge"><title>Node12&#45;&gt;Node14</title>
<path fill="none" stroke="midnightblue" d="M226.871,-224.324C238.658,-216.058 256.632,-203.453 270.636,-193.632"/>
<polygon fill="midnightblue" stroke="midnightblue" points="272.982,-196.262 279.159,-187.655 268.962,-190.531 272.982,-196.262"/>
</g>
<!-- Node14&#45;&gt;Node3 -->
<g id="edge17" class="edge"><title>Node14&#45;&gt;Node3</title>
<path fill="none" stroke="midnightblue" d="M272.644,-168.444C253.234,-159.636 222.77,-145.812 200.535,-135.722"/>
<polygon fill="midnightblue" stroke="midnightblue" points="201.82,-132.462 191.268,-131.516 198.928,-138.836 201.82,-132.462"/>
</g>
<!-- Node15 -->
<g id="node15" class="node"><title>Node15</title>
<polygon fill="white" stroke="#bfbfbf" points="337.5,-112.5 337.5,-131.5 381.5,-131.5 381.5,-112.5 337.5,-112.5"/>
<text text-anchor="middle" x="359.5" y="-119.5" font-family="Helvetica,sans-Serif" font-size="10.00">vector</text>
</g>
<!-- Node14&#45;&gt;Node15 -->
<g id="edge18" class="edge"><title>Node14&#45;&gt;Node15</title>
<path fill="none" stroke="midnightblue" d="M302.425,-168.324C312.675,-160.185 328.221,-147.839 340.501,-138.087"/>
<polygon fill="midnightblue" stroke="midnightblue" points="342.721,-140.794 348.376,-131.834 338.368,-135.312 342.721,-140.794"/>
</g>
<!-- Node16 -->
<g id="node16" class="node"><title>Node16</title>
<polygon fill="white" stroke="#bfbfbf" points="267.5,-112.5 267.5,-131.5 319.5,-131.5 319.5,-112.5 267.5,-112.5"/>
<text text-anchor="middle" x="293.5" y="-119.5" font-family="Helvetica,sans-Serif" font-size="10.00">memory</text>
</g>
<!-- Node14&#45;&gt;Node16 -->
<g id="edge19" class="edge"><title>Node14&#45;&gt;Node16</title>
<path fill="none" stroke="midnightblue" d="M291.83,-168.083C292.092,-161.006 292.468,-150.861 292.797,-141.986"/>
<polygon fill="midnightblue" stroke="midnightblue" points="296.303,-141.874 293.176,-131.751 289.308,-141.615 296.303,-141.874"/>
</g>
</g>
</svg>
