<?xml version="1.0" encoding="UTF-8" standalone="no"?>
<!DOCTYPE svg PUBLIC "-//W3C//DTD SVG 1.1//EN"
 "http://www.w3.org/Graphics/SVG/1.1/DTD/svg11.dtd">
<!-- Generated by graphviz version 2.36.0 (20140111.2315)
 -->
<!-- Title: Engine/src/Camera.cpp Pages: 1 -->
<svg width="737pt" height="364pt"
 viewBox="0.00 0.00 737.44 364.00" xmlns="http://www.w3.org/2000/svg" xmlns:xlink="http://www.w3.org/1999/xlink">
<g id="graph0" class="graph" transform="scale(1 1) rotate(0) translate(4 360)">
<title>Engine/src/Camera.cpp</title>
<polygon fill="white" stroke="none" points="-4,4 -4,-360 733.441,-360 733.441,4 -4,4"/>
<!-- Node1 -->
<g id="node1" class="node"><title>Node1</title>
<polygon fill="#bfbfbf" stroke="black" points="190.941,-336.5 190.941,-355.5 309.941,-355.5 309.941,-336.5 190.941,-336.5"/>
<text text-anchor="middle" x="250.441" y="-343.5" font-family="Helvetica,sans-Serif" font-size="10.00">Engine/src/Camera.cpp</text>
</g>
<!-- Node2 -->
<g id="node2" class="node"><title>Node2</title>
<g id="a_node2"><a xlink:href="Camera_8h.html" target="_top" xlink:title="Camera.h">
<polygon fill="white" stroke="black" points="-0.0591879,-280.5 -0.0591879,-299.5 58.9408,-299.5 58.9408,-280.5 -0.0591879,-280.5"/>
<text text-anchor="middle" x="29.4408" y="-287.5" font-family="Helvetica,sans-Serif" font-size="10.00">Camera.h</text>
</a>
</g>
</g>
<!-- Node1&#45;&gt;Node2 -->
<g id="edge1" class="edge"><title>Node1&#45;&gt;Node2</title>
<path fill="none" stroke="midnightblue" d="M215.423,-336.444C175.507,-326.69 110.419,-310.786 68.7837,-300.613"/>
<polygon fill="midnightblue" stroke="midnightblue" points="69.5356,-297.194 58.9906,-298.22 67.874,-303.994 69.5356,-297.194"/>
</g>
<!-- Node14 -->
<g id="node14" class="node"><title>Node14</title>
<g id="a_node14"><a xlink:href="InputManager_8h.html" target="_top" xlink:title="InputManager.h">
<polygon fill="white" stroke="black" points="316.441,-168.5 316.441,-187.5 400.441,-187.5 400.441,-168.5 316.441,-168.5"/>
<text text-anchor="middle" x="358.441" y="-175.5" font-family="Helvetica,sans-Serif" font-size="10.00">InputManager.h</text>
</a>
</g>
</g>
<!-- Node1&#45;&gt;Node14 -->
<g id="edge42" class="edge"><title>Node1&#45;&gt;Node14</title>
<path fill="none" stroke="midnightblue" d="M256.247,-336.075C273.468,-309.606 324.474,-231.209 347.244,-196.21"/>
<polygon fill="midnightblue" stroke="midnightblue" points="350.347,-197.859 352.866,-187.568 344.479,-194.042 350.347,-197.859"/>
</g>
<!-- Node17 -->
<g id="node17" class="node"><title>Node17</title>
<g id="a_node17"><a xlink:href="Error_8h.html" target="_top" xlink:title="Error.h">
<polygon fill="white" stroke="black" points="201.441,-280.5 201.441,-299.5 247.441,-299.5 247.441,-280.5 201.441,-280.5"/>
<text text-anchor="middle" x="224.441" y="-287.5" font-family="Helvetica,sans-Serif" font-size="10.00">Error.h</text>
</a>
</g>
</g>
<!-- Node1&#45;&gt;Node17 -->
<g id="edge23" class="edge"><title>Node1&#45;&gt;Node17</title>
<path fill="none" stroke="midnightblue" d="M246.147,-336.083C242.588,-328.691 237.418,-317.953 233.017,-308.811"/>
<polygon fill="midnightblue" stroke="midnightblue" points="236.146,-307.243 228.654,-299.751 229.839,-310.279 236.146,-307.243"/>
</g>
<!-- Node20 -->
<g id="node20" class="node"><title>Node20</title>
<g id="a_node20"><a xlink:href="Game_8h.html" target="_top" xlink:title="Game.h">
<polygon fill="white" stroke="black" points="384.941,-280.5 384.941,-299.5 435.941,-299.5 435.941,-280.5 384.941,-280.5"/>
<text text-anchor="middle" x="410.441" y="-287.5" font-family="Helvetica,sans-Serif" font-size="10.00">Game.h</text>
</a>
</g>
</g>
<!-- Node1&#45;&gt;Node20 -->
<g id="edge26" class="edge"><title>Node1&#45;&gt;Node20</title>
<path fill="none" stroke="midnightblue" d="M275.793,-336.444C302.71,-327.359 345.437,-312.939 375.528,-302.783"/>
<polygon fill="midnightblue" stroke="midnightblue" points="376.851,-306.031 385.207,-299.516 374.613,-299.398 376.851,-306.031"/>
</g>
<!-- Node3 -->
<g id="node3" class="node"><title>Node3</title>
<g id="a_node3"><a xlink:href="GameObject_8h.html" target="_top" xlink:title="GameObject.h">
<polygon fill="white" stroke="black" points="86.4408,-168.5 86.4408,-187.5 166.441,-187.5 166.441,-168.5 86.4408,-168.5"/>
<text text-anchor="middle" x="126.441" y="-175.5" font-family="Helvetica,sans-Serif" font-size="10.00">GameObject.h</text>
</a>
</g>
</g>
<!-- Node2&#45;&gt;Node3 -->
<g id="edge2" class="edge"><title>Node2&#45;&gt;Node3</title>
<path fill="none" stroke="midnightblue" d="M22.7867,-280.259C13.5931,-267.029 -0.573089,-241.602 11.4408,-224 26.0349,-202.618 52.4469,-191.395 76.2814,-185.505"/>
<polygon fill="midnightblue" stroke="midnightblue" points="77.2866,-188.867 86.2964,-183.293 75.7769,-182.032 77.2866,-188.867"/>
</g>
<!-- Node11 -->
<g id="node11" class="node"><title>Node11</title>
<g id="a_node11"><a xlink:href="Vec2_8h.html" target="_top" xlink:title="Vec2.h">
<polygon fill="white" stroke="black" points="242.941,-56.5 242.941,-75.5 289.941,-75.5 289.941,-56.5 242.941,-56.5"/>
<text text-anchor="middle" x="266.441" y="-63.5" font-family="Helvetica,sans-Serif" font-size="10.00">Vec2.h</text>
</a>
</g>
</g>
<!-- Node2&#45;&gt;Node11 -->
<g id="edge16" class="edge"><title>Node2&#45;&gt;Node11</title>
<path fill="none" stroke="midnightblue" d="M22.5505,-280.319C16.1714,-271.684 7.13274,-257.77 3.44081,-244 -9.87768,-194.327 20.5664,-131.799 43.4408,-112 57.6675,-99.6863 174.276,-80.7706 232.963,-71.9044"/>
<polygon fill="midnightblue" stroke="midnightblue" points="233.502,-75.3628 242.873,-70.4197 232.465,-68.4401 233.502,-75.3628"/>
</g>
<!-- Node13 -->
<g id="node13" class="node"><title>Node13</title>
<g id="a_node13"><a xlink:href="ActionManager_8h.html" target="_top" xlink:title="ActionManager.h">
<polygon fill="white" stroke="black" points="20.4408,-224.5 20.4408,-243.5 110.441,-243.5 110.441,-224.5 20.4408,-224.5"/>
<text text-anchor="middle" x="65.4408" y="-231.5" font-family="Helvetica,sans-Serif" font-size="10.00">ActionManager.h</text>
</a>
</g>
</g>
<!-- Node2&#45;&gt;Node13 -->
<g id="edge17" class="edge"><title>Node2&#45;&gt;Node13</title>
<path fill="none" stroke="midnightblue" d="M35.3855,-280.083C40.4181,-272.534 47.7776,-261.495 53.9543,-252.23"/>
<polygon fill="midnightblue" stroke="midnightblue" points="56.9719,-254.013 59.6068,-243.751 51.1475,-250.13 56.9719,-254.013"/>
</g>
<!-- Node4 -->
<g id="node4" class="node"><title>Node4</title>
<g id="a_node4"><a xlink:href="SDL__include_8h.html" target="_top" xlink:title="SDL_include.h">
<polygon fill="white" stroke="black" points="272.441,-0.5 272.441,-19.5 352.441,-19.5 352.441,-0.5 272.441,-0.5"/>
<text text-anchor="middle" x="312.441" y="-7.5" font-family="Helvetica,sans-Serif" font-size="10.00">SDL_include.h</text>
</a>
</g>
</g>
<!-- Node3&#45;&gt;Node4 -->
<g id="edge3" class="edge"><title>Node3&#45;&gt;Node4</title>
<path fill="none" stroke="midnightblue" d="M97.073,-168.471C77.5914,-161.477 52.7095,-149.791 36.4408,-132 12.7106,-106.05 -8.4929,-82.6569 14.4408,-56 45.769,-19.5859 185.459,-12.2576 261.952,-11.0247"/>
<polygon fill="midnightblue" stroke="midnightblue" points="262.354,-14.5199 272.308,-10.8888 262.263,-7.52045 262.354,-14.5199"/>
</g>
<!-- Node5 -->
<g id="node5" class="node"><title>Node5</title>
<polygon fill="white" stroke="#bfbfbf" points="248.441,-112.5 248.441,-131.5 292.441,-131.5 292.441,-112.5 248.441,-112.5"/>
<text text-anchor="middle" x="270.441" y="-119.5" font-family="Helvetica,sans-Serif" font-size="10.00">vector</text>
</g>
<!-- Node3&#45;&gt;Node5 -->
<g id="edge4" class="edge"><title>Node3&#45;&gt;Node5</title>
<path fill="none" stroke="midnightblue" d="M149.258,-168.444C173.414,-159.385 211.717,-145.021 238.786,-134.871"/>
<polygon fill="midnightblue" stroke="midnightblue" points="240.069,-138.127 248.204,-131.339 237.611,-131.573 240.069,-138.127"/>
</g>
<!-- Node6 -->
<g id="node6" class="node"><title>Node6</title>
<polygon fill="white" stroke="#bfbfbf" points="450.441,-112.5 450.441,-131.5 502.441,-131.5 502.441,-112.5 450.441,-112.5"/>
<text text-anchor="middle" x="476.441" y="-119.5" font-family="Helvetica,sans-Serif" font-size="10.00">memory</text>
</g>
<!-- Node3&#45;&gt;Node6 -->
<g id="edge5" class="edge"><title>Node3&#45;&gt;Node6</title>
<path fill="none" stroke="midnightblue" d="M166.46,-172.71C224.641,-166.162 336.133,-152.443 440.103,-132.084"/>
<polygon fill="midnightblue" stroke="midnightblue" points="441.011,-135.473 450.139,-130.093 439.649,-128.606 441.011,-135.473"/>
</g>
<!-- Node7 -->
<g id="node7" class="node"><title>Node7</title>
<polygon fill="white" stroke="#bfbfbf" points="621.941,-112.5 621.941,-131.5 662.941,-131.5 662.941,-112.5 621.941,-112.5"/>
<text text-anchor="middle" x="642.441" y="-119.5" font-family="Helvetica,sans-Serif" font-size="10.00">string</text>
</g>
<!-- Node3&#45;&gt;Node7 -->
<g id="edge6" class="edge"><title>Node3&#45;&gt;Node7</title>
<path fill="none" stroke="midnightblue" d="M166.469,-174.326C263.49,-167.684 510.068,-149.806 611.946,-131.618"/>
<polygon fill="midnightblue" stroke="midnightblue" points="612.738,-135.031 621.919,-129.744 611.444,-128.152 612.738,-135.031"/>
</g>
<!-- Node8 -->
<g id="node8" class="node"><title>Node8</title>
<g id="a_node8"><a xlink:href="Component_8h.html" target="_top" xlink:title="Component.h">
<polygon fill="white" stroke="black" points="52.9408,-112.5 52.9408,-131.5 127.941,-131.5 127.941,-112.5 52.9408,-112.5"/>
<text text-anchor="middle" x="90.4408" y="-119.5" font-family="Helvetica,sans-Serif" font-size="10.00">Component.h</text>
</a>
</g>
</g>
<!-- Node3&#45;&gt;Node8 -->
<g id="edge7" class="edge"><title>Node3&#45;&gt;Node8</title>
<path fill="none" stroke="midnightblue" d="M115.33,-168.083C108.843,-160.691 101.276,-149.953 95.925,-140.811"/>
<polygon fill="midnightblue" stroke="midnightblue" points="98.9065,-138.962 91.1439,-131.751 92.7157,-142.229 98.9065,-138.962"/>
</g>
<!-- Node9 -->
<g id="node9" class="node"><title>Node9</title>
<g id="a_node9"><a xlink:href="ComponentType_8h.html" target="_top" xlink:title="ComponentType.h">
<polygon fill="white" stroke="black" points="23.9408,-56.5 23.9408,-75.5 120.941,-75.5 120.941,-56.5 23.9408,-56.5"/>
<text text-anchor="middle" x="72.4408" y="-63.5" font-family="Helvetica,sans-Serif" font-size="10.00">ComponentType.h</text>
</a>
</g>
</g>
<!-- Node3&#45;&gt;Node9 -->
<g id="edge10" class="edge"><title>Node3&#45;&gt;Node9</title>
<path fill="none" stroke="midnightblue" d="M94.2562,-168.488C75.9018,-161.801 54.4252,-150.45 43.4408,-132 34.0182,-116.173 45.401,-96.7394 56.5549,-83.2654"/>
<polygon fill="midnightblue" stroke="midnightblue" points="59.2324,-85.5219 63.2822,-75.7316 54.011,-80.8595 59.2324,-85.5219"/>
</g>
<!-- Node10 -->
<g id="node10" class="node"><title>Node10</title>
<g id="a_node10"><a xlink:href="Rect_8h.html" target="_top" xlink:title="Rect.h">
<polygon fill="white" stroke="black" points="146.441,-112.5 146.441,-131.5 192.441,-131.5 192.441,-112.5 146.441,-112.5"/>
<text text-anchor="middle" x="169.441" y="-119.5" font-family="Helvetica,sans-Serif" font-size="10.00">Rect.h</text>
</a>
</g>
</g>
<!-- Node3&#45;&gt;Node10 -->
<g id="edge11" class="edge"><title>Node3&#45;&gt;Node10</title>
<path fill="none" stroke="midnightblue" d="M133.541,-168.083C139.678,-160.377 148.711,-149.033 156.18,-139.653"/>
<polygon fill="midnightblue" stroke="midnightblue" points="158.981,-141.754 162.472,-131.751 153.505,-137.394 158.981,-141.754"/>
</g>
<!-- Node8&#45;&gt;Node3 -->
<g id="edge9" class="edge"><title>Node8&#45;&gt;Node3</title>
<path fill="none" stroke="midnightblue" d="M101.406,-131.751C107.877,-139.092 115.451,-149.817 120.836,-158.983"/>
<polygon fill="midnightblue" stroke="midnightblue" points="117.885,-160.889 125.662,-168.083 124.069,-157.609 117.885,-160.889"/>
</g>
<!-- Node8&#45;&gt;Node9 -->
<g id="edge8" class="edge"><title>Node8&#45;&gt;Node9</title>
<path fill="none" stroke="midnightblue" d="M87.4685,-112.083C85.057,-104.849 81.577,-94.4087 78.5731,-85.3968"/>
<polygon fill="midnightblue" stroke="midnightblue" points="81.8406,-84.1311 75.3578,-75.7511 75.1998,-86.3447 81.8406,-84.1311"/>
</g>
<!-- Node10&#45;&gt;Node4 -->
<g id="edge12" class="edge"><title>Node10&#45;&gt;Node4</title>
<path fill="none" stroke="midnightblue" d="M176.664,-112.25C187.883,-99.0098 210.591,-73.5683 233.441,-56 249.503,-43.6506 269.319,-32.372 285.086,-24.1951"/>
<polygon fill="midnightblue" stroke="midnightblue" points="286.971,-27.1637 294.311,-19.5228 283.808,-20.9191 286.971,-27.1637"/>
</g>
<!-- Node10&#45;&gt;Node11 -->
<g id="edge13" class="edge"><title>Node10&#45;&gt;Node11</title>
<path fill="none" stroke="midnightblue" d="M185.026,-112.324C200.44,-103.743 224.253,-90.486 242.151,-80.5224"/>
<polygon fill="midnightblue" stroke="midnightblue" points="243.86,-83.5767 250.895,-75.6545 240.455,-77.4606 243.86,-83.5767"/>
</g>
<!-- Node12 -->
<g id="node12" class="node"><title>Node12</title>
<polygon fill="white" stroke="#bfbfbf" points="142.441,-56.5 142.441,-75.5 186.441,-75.5 186.441,-56.5 142.441,-56.5"/>
<text text-anchor="middle" x="164.441" y="-63.5" font-family="Helvetica,sans-Serif" font-size="10.00">cmath</text>
</g>
<!-- Node10&#45;&gt;Node12 -->
<g id="edge15" class="edge"><title>Node10&#45;&gt;Node12</title>
<path fill="none" stroke="midnightblue" d="M168.615,-112.083C167.96,-105.006 167.021,-94.8611 166.199,-85.9865"/>
<polygon fill="midnightblue" stroke="midnightblue" points="169.658,-85.3858 165.251,-75.7511 162.688,-86.0312 169.658,-85.3858"/>
</g>
<!-- Node11&#45;&gt;Node4 -->
<g id="edge14" class="edge"><title>Node11&#45;&gt;Node4</title>
<path fill="none" stroke="midnightblue" d="M274.037,-56.083C280.668,-48.2982 290.462,-36.8015 298.499,-27.3665"/>
<polygon fill="midnightblue" stroke="midnightblue" points="301.166,-29.6332 304.986,-19.7511 295.837,-25.0939 301.166,-29.6332"/>
</g>
<!-- Node13&#45;&gt;Node14 -->
<g id="edge18" class="edge"><title>Node13&#45;&gt;Node14</title>
<path fill="none" stroke="midnightblue" d="M110.58,-224.681C163.321,-214.961 250.438,-198.905 306.095,-188.647"/>
<polygon fill="midnightblue" stroke="midnightblue" points="306.906,-192.057 316.106,-186.802 305.638,-185.173 306.906,-192.057"/>
</g>
<!-- Node14&#45;&gt;Node4 -->
<g id="edge19" class="edge"><title>Node14&#45;&gt;Node4</title>
<path fill="none" stroke="midnightblue" d="M355.968,-168.075C348.727,-141.945 327.463,-65.2106 317.589,-29.577"/>
<polygon fill="midnightblue" stroke="midnightblue" points="320.859,-28.2703 314.815,-19.5681 314.113,-30.1396 320.859,-28.2703"/>
</g>
<!-- Node14&#45;&gt;Node11 -->
<g id="edge20" class="edge"><title>Node14&#45;&gt;Node11</title>
<path fill="none" stroke="midnightblue" d="M351.222,-168.368C335.905,-150.055 299.936,-107.049 280.126,-83.3624"/>
<polygon fill="midnightblue" stroke="midnightblue" points="282.727,-81.0168 273.626,-75.5914 277.357,-85.5077 282.727,-81.0168"/>
</g>
<!-- Node15 -->
<g id="node15" class="node"><title>Node15</title>
<polygon fill="white" stroke="#bfbfbf" points="520.941,-112.5 520.941,-131.5 603.941,-131.5 603.941,-112.5 520.941,-112.5"/>
<text text-anchor="middle" x="562.441" y="-119.5" font-family="Helvetica,sans-Serif" font-size="10.00">unordered_map</text>
</g>
<!-- Node14&#45;&gt;Node15 -->
<g id="edge21" class="edge"><title>Node14&#45;&gt;Node15</title>
<path fill="none" stroke="midnightblue" d="M390.765,-168.444C425.83,-159.162 481.939,-144.309 520.406,-134.127"/>
<polygon fill="midnightblue" stroke="midnightblue" points="521.496,-137.459 530.268,-131.516 519.705,-130.692 521.496,-137.459"/>
</g>
<!-- Node16 -->
<g id="node16" class="node"><title>Node16</title>
<polygon fill="white" stroke="#bfbfbf" points="386.441,-112.5 386.441,-131.5 432.441,-131.5 432.441,-112.5 386.441,-112.5"/>
<text text-anchor="middle" x="409.441" y="-119.5" font-family="Helvetica,sans-Serif" font-size="10.00">cstdint</text>
</g>
<!-- Node14&#45;&gt;Node16 -->
<g id="edge22" class="edge"><title>Node14&#45;&gt;Node16</title>
<path fill="none" stroke="midnightblue" d="M366.862,-168.083C374.289,-160.22 385.292,-148.569 394.253,-139.081"/>
<polygon fill="midnightblue" stroke="midnightblue" points="396.854,-141.424 401.176,-131.751 391.765,-136.618 396.854,-141.424"/>
</g>
<!-- Node18 -->
<g id="node18" class="node"><title>Node18</title>
<polygon fill="white" stroke="#bfbfbf" points="128.441,-224.5 128.441,-243.5 182.441,-243.5 182.441,-224.5 128.441,-224.5"/>
<text text-anchor="middle" x="155.441" y="-231.5" font-family="Helvetica,sans-Serif" font-size="10.00">iostream</text>
</g>
<!-- Node17&#45;&gt;Node18 -->
<g id="edge24" class="edge"><title>Node17&#45;&gt;Node18</title>
<path fill="none" stroke="midnightblue" d="M213.355,-280.324C202.955,-272.185 187.18,-259.839 174.719,-250.087"/>
<polygon fill="midnightblue" stroke="midnightblue" points="176.761,-247.241 166.729,-243.834 172.447,-252.753 176.761,-247.241"/>
</g>
<!-- Node19 -->
<g id="node19" class="node"><title>Node19</title>
<polygon fill="white" stroke="#bfbfbf" points="200.441,-224.5 200.441,-243.5 248.441,-243.5 248.441,-224.5 200.441,-224.5"/>
<text text-anchor="middle" x="224.441" y="-231.5" font-family="Helvetica,sans-Serif" font-size="10.00">stdlib.h</text>
</g>
<!-- Node17&#45;&gt;Node19 -->
<g id="edge25" class="edge"><title>Node17&#45;&gt;Node19</title>
<path fill="none" stroke="midnightblue" d="M224.441,-280.083C224.441,-273.006 224.441,-262.861 224.441,-253.986"/>
<polygon fill="midnightblue" stroke="midnightblue" points="227.941,-253.751 224.441,-243.751 220.941,-253.751 227.941,-253.751"/>
</g>
<!-- Node20&#45;&gt;Node4 -->
<g id="edge41" class="edge"><title>Node20&#45;&gt;Node4</title>
<path fill="none" stroke="midnightblue" d="M436.045,-287.197C495.382,-282.633 640.366,-269.163 681.441,-244 712.064,-225.24 729.441,-214.912 729.441,-179 729.441,-179 729.441,-179 729.441,-121 729.441,-46.0195 474.188,-21.0325 363.091,-13.7081"/>
<polygon fill="midnightblue" stroke="midnightblue" points="363.006,-10.1956 352.803,-13.0533 362.561,-17.1815 363.006,-10.1956"/>
</g>
<!-- Node20&#45;&gt;Node7 -->
<g id="edge27" class="edge"><title>Node20&#45;&gt;Node7</title>
<path fill="none" stroke="midnightblue" d="M429.444,-280.44C462.821,-264.888 533.279,-229.719 584.441,-188 601.94,-173.73 618.755,-153.997 629.732,-140.027"/>
<polygon fill="midnightblue" stroke="midnightblue" points="632.739,-141.857 636.051,-131.793 627.186,-137.595 632.739,-141.857"/>
</g>
<!-- Node20&#45;&gt;Node11 -->
<g id="edge40" class="edge"><title>Node20&#45;&gt;Node11</title>
<path fill="none" stroke="midnightblue" d="M393.262,-280.432C355.773,-260.569 267.721,-207.266 239.441,-132 233.225,-115.457 242.65,-96.8601 252.027,-83.8101"/>
<polygon fill="midnightblue" stroke="midnightblue" points="254.921,-85.7905 258.318,-75.755 249.404,-81.4816 254.921,-85.7905"/>
</g>
<!-- Node20&#45;&gt;Node14 -->
<g id="edge39" class="edge"><title>Node20&#45;&gt;Node14</title>
<path fill="none" stroke="midnightblue" d="M402.614,-280.3C395.199,-271.65 384.217,-257.726 377.441,-244 370.122,-229.175 365.111,-211.023 362.08,-197.674"/>
<polygon fill="midnightblue" stroke="midnightblue" points="365.48,-196.831 359.993,-187.767 358.63,-198.274 365.48,-196.831"/>
</g>
<!-- Node21 -->
<g id="node21" class="node"><title>Node21</title>
<polygon fill="white" stroke="#bfbfbf" points="631.941,-224.5 631.941,-243.5 672.941,-243.5 672.941,-224.5 631.941,-224.5"/>
<text text-anchor="middle" x="652.441" y="-231.5" font-family="Helvetica,sans-Serif" font-size="10.00">stack</text>
</g>
<!-- Node20&#45;&gt;Node21 -->
<g id="edge28" class="edge"><title>Node20&#45;&gt;Node21</title>
<path fill="none" stroke="midnightblue" d="M436.005,-283.766C475.165,-275.675 552.314,-259.447 617.441,-244 618.891,-243.656 620.373,-243.299 621.869,-242.933"/>
<polygon fill="midnightblue" stroke="midnightblue" points="622.895,-246.284 631.745,-240.459 621.194,-239.494 622.895,-246.284"/>
</g>
<!-- Node22 -->
<g id="node22" class="node"><title>Node22</title>
<g id="a_node22"><a xlink:href="State_8h.html" target="_top" xlink:title="State.h">
<polygon fill="white" stroke="black" points="386.441,-224.5 386.441,-243.5 434.441,-243.5 434.441,-224.5 386.441,-224.5"/>
<text text-anchor="middle" x="410.441" y="-231.5" font-family="Helvetica,sans-Serif" font-size="10.00">State.h</text>
</a>
</g>
</g>
<!-- Node20&#45;&gt;Node22 -->
<g id="edge29" class="edge"><title>Node20&#45;&gt;Node22</title>
<path fill="none" stroke="midnightblue" d="M410.441,-280.083C410.441,-273.006 410.441,-262.861 410.441,-253.986"/>
<polygon fill="midnightblue" stroke="midnightblue" points="413.941,-253.751 410.441,-243.751 406.941,-253.751 413.941,-253.751"/>
</g>
<!-- Node22&#45;&gt;Node3 -->
<g id="edge38" class="edge"><title>Node22&#45;&gt;Node3</title>
<path fill="none" stroke="midnightblue" d="M386.227,-228.396C339.975,-219.602 238.199,-200.25 176.66,-188.549"/>
<polygon fill="midnightblue" stroke="midnightblue" points="177.251,-185.098 166.773,-186.669 175.943,-191.975 177.251,-185.098"/>
</g>
<!-- Node22&#45;&gt;Node5 -->
<g id="edge30" class="edge"><title>Node22&#45;&gt;Node5</title>
<path fill="none" stroke="midnightblue" d="M386.362,-227.209C363.797,-220.773 330.217,-208.49 307.441,-188 293.148,-175.142 283.011,-155.414 277.004,-141.064"/>
<polygon fill="midnightblue" stroke="midnightblue" points="280.26,-139.78 273.36,-131.741 273.741,-142.329 280.26,-139.78"/>
</g>
<!-- Node22&#45;&gt;Node6 -->
<g id="edge31" class="edge"><title>Node22&#45;&gt;Node6</title>
<path fill="none" stroke="midnightblue" d="M415.62,-224.368C426.463,-206.296 451.735,-164.176 466.056,-140.307"/>
<polygon fill="midnightblue" stroke="midnightblue" points="469.142,-141.967 471.286,-131.591 463.14,-138.366 469.142,-141.967"/>
</g>
<!-- Node22&#45;&gt;Node14 -->
<g id="edge32" class="edge"><title>Node22&#45;&gt;Node14</title>
<path fill="none" stroke="midnightblue" d="M401.854,-224.083C394.282,-216.22 383.063,-204.569 373.926,-195.081"/>
<polygon fill="midnightblue" stroke="midnightblue" points="376.325,-192.527 366.868,-187.751 371.283,-197.382 376.325,-192.527"/>
</g>
<!-- Node23 -->
<g id="node23" class="node"><title>Node23</title>
<g id="a_node23"><a xlink:href="Resources_8h.html" target="_top" xlink:title="Resources.h">
<polygon fill="white" stroke="black" points="503.441,-168.5 503.441,-187.5 575.441,-187.5 575.441,-168.5 503.441,-168.5"/>
<text text-anchor="middle" x="539.441" y="-175.5" font-family="Helvetica,sans-Serif" font-size="10.00">Resources.h</text>
</a>
</g>
</g>
<!-- Node22&#45;&gt;Node23 -->
<g id="edge33" class="edge"><title>Node22&#45;&gt;Node23</title>
<path fill="none" stroke="midnightblue" d="M430.881,-224.444C452.111,-215.557 485.54,-201.563 509.696,-191.451"/>
<polygon fill="midnightblue" stroke="midnightblue" points="511.223,-194.606 519.096,-187.516 508.52,-188.149 511.223,-194.606"/>
</g>
<!-- Node23&#45;&gt;Node4 -->
<g id="edge34" class="edge"><title>Node23&#45;&gt;Node4</title>
<path fill="none" stroke="midnightblue" d="M575.576,-172.788C623.514,-165.705 699.05,-148.448 671.441,-112 634.032,-62.615 451.93,-30.6233 362.373,-17.6182"/>
<polygon fill="midnightblue" stroke="midnightblue" points="362.839,-14.1493 352.444,-16.1993 361.848,-21.0789 362.839,-14.1493"/>
</g>
<!-- Node23&#45;&gt;Node6 -->
<g id="edge37" class="edge"><title>Node23&#45;&gt;Node6</title>
<path fill="none" stroke="midnightblue" d="M529.319,-168.324C519.914,-160.263 505.697,-148.077 494.372,-138.369"/>
<polygon fill="midnightblue" stroke="midnightblue" points="496.617,-135.684 486.747,-131.834 492.062,-140.999 496.617,-135.684"/>
</g>
<!-- Node23&#45;&gt;Node7 -->
<g id="edge35" class="edge"><title>Node23&#45;&gt;Node7</title>
<path fill="none" stroke="midnightblue" d="M555.99,-168.324C572.432,-159.703 597.876,-146.364 616.909,-136.386"/>
<polygon fill="midnightblue" stroke="midnightblue" points="618.702,-139.398 625.933,-131.655 615.451,-133.198 618.702,-139.398"/>
</g>
<!-- Node23&#45;&gt;Node15 -->
<g id="edge36" class="edge"><title>Node23&#45;&gt;Node15</title>
<path fill="none" stroke="midnightblue" d="M543.239,-168.083C546.354,-160.77 550.864,-150.181 554.73,-141.103"/>
<polygon fill="midnightblue" stroke="midnightblue" points="558.015,-142.323 558.714,-131.751 551.575,-139.58 558.015,-142.323"/>
</g>
</g>
</svg>
