<?xml version="1.0" encoding="UTF-8" standalone="no"?>
<!DOCTYPE svg PUBLIC "-//W3C//DTD SVG 1.1//EN"
 "http://www.w3.org/Graphics/SVG/1.1/DTD/svg11.dtd">
<!-- Generated by graphviz version 2.38.0 (20140413.2041)
 -->
<!-- Title: Engine/src/Camera.cpp Pages: 1 -->
<svg width="710pt" height="308pt"
 viewBox="0.00 0.00 709.50 308.00" xmlns="http://www.w3.org/2000/svg" xmlns:xlink="http://www.w3.org/1999/xlink">
<g id="graph0" class="graph" transform="scale(1 1) rotate(0) translate(4 304)">
<title>Engine/src/Camera.cpp</title>
<polygon fill="white" stroke="none" points="-4,4 -4,-304 705.5,-304 705.5,4 -4,4"/>
<!-- Node0 -->
<g id="node1" class="node"><title>Node0</title>
<polygon fill="#bfbfbf" stroke="black" points="231,-280.5 231,-299.5 350,-299.5 350,-280.5 231,-280.5"/>
<text text-anchor="middle" x="290.5" y="-287.5" font-family="Helvetica,sans-Serif" font-size="10.00">Engine/src/Camera.cpp</text>
</g>
<!-- Node1 -->
<g id="node2" class="node"><title>Node1</title>
<g id="a_node2"><a xlink:href="Camera_8h.html" target="_top" xlink:title="Camera.h">
<polygon fill="white" stroke="black" points="204,-224.5 204,-243.5 263,-243.5 263,-224.5 204,-224.5"/>
<text text-anchor="middle" x="233.5" y="-231.5" font-family="Helvetica,sans-Serif" font-size="10.00">Camera.h</text>
</a>
</g>
</g>
<!-- Node0&#45;&gt;Node1 -->
<g id="edge1" class="edge"><title>Node0&#45;&gt;Node1</title>
<path fill="none" stroke="midnightblue" d="M281.342,-280.324C272.999,-272.42 260.468,-260.548 250.323,-250.938"/>
<polygon fill="midnightblue" stroke="midnightblue" points="252.491,-248.171 242.825,-243.834 247.677,-253.252 252.491,-248.171"/>
</g>
<!-- Node12 -->
<g id="node13" class="node"><title>Node12</title>
<g id="a_node13"><a xlink:href="InputManager_8h.html" target="_top" xlink:title="InputManager.h">
<polygon fill="white" stroke="black" points="90.5,-112.5 90.5,-131.5 174.5,-131.5 174.5,-112.5 90.5,-112.5"/>
<text text-anchor="middle" x="132.5" y="-119.5" font-family="Helvetica,sans-Serif" font-size="10.00">InputManager.h</text>
</a>
</g>
</g>
<!-- Node0&#45;&gt;Node12 -->
<g id="edge19" class="edge"><title>Node0&#45;&gt;Node12</title>
<path fill="none" stroke="midnightblue" d="M242.542,-280.49C193.516,-268.939 119.962,-243.044 86.5,-188 75.6145,-170.094 93.7466,-150.604 110.35,-137.684"/>
<polygon fill="midnightblue" stroke="midnightblue" points="112.715,-140.291 118.731,-131.569 108.59,-134.636 112.715,-140.291"/>
</g>
<!-- Node15 -->
<g id="node16" class="node"><title>Node15</title>
<g id="a_node16"><a xlink:href="Error_8h.html" target="_top" xlink:title="Error.h">
<polygon fill="white" stroke="black" points="582.5,-224.5 582.5,-243.5 628.5,-243.5 628.5,-224.5 582.5,-224.5"/>
<text text-anchor="middle" x="605.5" y="-231.5" font-family="Helvetica,sans-Serif" font-size="10.00">Error.h</text>
</a>
</g>
</g>
<!-- Node0&#45;&gt;Node15 -->
<g id="edge20" class="edge"><title>Node0&#45;&gt;Node15</title>
<path fill="none" stroke="midnightblue" d="M340.413,-280.444C405.277,-269.324 516.776,-250.21 572.205,-240.708"/>
<polygon fill="midnightblue" stroke="midnightblue" points="572.931,-244.134 582.195,-238.995 571.748,-237.235 572.931,-244.134"/>
</g>
<!-- Node18 -->
<g id="node19" class="node"><title>Node18</title>
<g id="a_node19"><a xlink:href="Game_8h.html" target="_top" xlink:title="Game.h">
<polygon fill="white" stroke="black" points="326,-224.5 326,-243.5 377,-243.5 377,-224.5 326,-224.5"/>
<text text-anchor="middle" x="351.5" y="-231.5" font-family="Helvetica,sans-Serif" font-size="10.00">Game.h</text>
</a>
</g>
</g>
<!-- Node0&#45;&gt;Node18 -->
<g id="edge23" class="edge"><title>Node0&#45;&gt;Node18</title>
<path fill="none" stroke="midnightblue" d="M300.301,-280.324C309.318,-272.341 322.906,-260.313 333.818,-250.653"/>
<polygon fill="midnightblue" stroke="midnightblue" points="336.353,-253.083 341.521,-243.834 331.713,-247.842 336.353,-253.083"/>
</g>
<!-- Node2 -->
<g id="node3" class="node"><title>Node2</title>
<g id="a_node3"><a xlink:href="GameObject_8h.html" target="_top" xlink:title="GameObject.h">
<polygon fill="white" stroke="black" points="379.5,-112.5 379.5,-131.5 459.5,-131.5 459.5,-112.5 379.5,-112.5"/>
<text text-anchor="middle" x="419.5" y="-119.5" font-family="Helvetica,sans-Serif" font-size="10.00">GameObject.h</text>
</a>
</g>
</g>
<!-- Node1&#45;&gt;Node2 -->
<g id="edge2" class="edge"><title>Node1&#45;&gt;Node2</title>
<path fill="none" stroke="midnightblue" d="M248.095,-224.368C280.149,-205.412 356.935,-160.001 395.925,-136.942"/>
<polygon fill="midnightblue" stroke="midnightblue" points="398.147,-139.694 404.973,-131.591 394.584,-133.669 398.147,-139.694"/>
</g>
<!-- Node6 -->
<g id="node7" class="node"><title>Node6</title>
<g id="a_node7"><a xlink:href="Vec2_8h.html" target="_top" xlink:title="Vec2.h">
<polygon fill="white" stroke="black" points="202,-0.5 202,-19.5 249,-19.5 249,-0.5 202,-0.5"/>
<text text-anchor="middle" x="225.5" y="-7.5" font-family="Helvetica,sans-Serif" font-size="10.00">Vec2.h</text>
</a>
</g>
</g>
<!-- Node1&#45;&gt;Node6 -->
<g id="edge13" class="edge"><title>Node1&#45;&gt;Node6</title>
<path fill="none" stroke="midnightblue" d="M233.186,-224.297C232.009,-191.633 227.838,-75.8661 226.183,-29.9573"/>
<polygon fill="midnightblue" stroke="midnightblue" points="229.678,-29.7512 225.82,-19.8837 222.683,-30.0033 229.678,-29.7512"/>
</g>
<!-- Node11 -->
<g id="node12" class="node"><title>Node11</title>
<g id="a_node12"><a xlink:href="ActionManager_8h.html" target="_top" xlink:title="ActionManager.h">
<polygon fill="white" stroke="black" points="95.5,-168.5 95.5,-187.5 185.5,-187.5 185.5,-168.5 95.5,-168.5"/>
<text text-anchor="middle" x="140.5" y="-175.5" font-family="Helvetica,sans-Serif" font-size="10.00">ActionManager.h</text>
</a>
</g>
</g>
<!-- Node1&#45;&gt;Node11 -->
<g id="edge14" class="edge"><title>Node1&#45;&gt;Node11</title>
<path fill="none" stroke="midnightblue" d="M218.558,-224.324C203.915,-215.822 181.366,-202.729 164.262,-192.797"/>
<polygon fill="midnightblue" stroke="midnightblue" points="165.81,-189.649 155.405,-187.655 162.295,-195.703 165.81,-189.649"/>
</g>
<!-- Node3 -->
<g id="node4" class="node"><title>Node3</title>
<polygon fill="white" stroke="#bfbfbf" points="604.5,-56.5 604.5,-75.5 648.5,-75.5 648.5,-56.5 604.5,-56.5"/>
<text text-anchor="middle" x="626.5" y="-63.5" font-family="Helvetica,sans-Serif" font-size="10.00">vector</text>
</g>
<!-- Node2&#45;&gt;Node3 -->
<g id="edge3" class="edge"><title>Node2&#45;&gt;Node3</title>
<path fill="none" stroke="midnightblue" d="M454.317,-112.449C487.871,-104.131 540.303,-90.9306 594.412,-76.2372"/>
<polygon fill="midnightblue" stroke="midnightblue" points="595.447,-79.583 604.173,-73.5751 593.605,-72.8297 595.447,-79.583"/>
</g>
<!-- Node4 -->
<g id="node5" class="node"><title>Node4</title>
<polygon fill="white" stroke="#bfbfbf" points="534.5,-56.5 534.5,-75.5 586.5,-75.5 586.5,-56.5 534.5,-56.5"/>
<text text-anchor="middle" x="560.5" y="-63.5" font-family="Helvetica,sans-Serif" font-size="10.00">memory</text>
</g>
<!-- Node2&#45;&gt;Node4 -->
<g id="edge4" class="edge"><title>Node2&#45;&gt;Node4</title>
<path fill="none" stroke="midnightblue" d="M441.842,-112.444C465.253,-103.478 502.236,-89.314 528.69,-79.1827"/>
<polygon fill="midnightblue" stroke="midnightblue" points="530.176,-82.3615 538.263,-75.5164 527.672,-75.8245 530.176,-82.3615"/>
</g>
<!-- Node5 -->
<g id="node6" class="node"><title>Node5</title>
<g id="a_node6"><a xlink:href="Rect_8h.html" target="_top" xlink:title="Rect.h">
<polygon fill="white" stroke="black" points="279.5,-56.5 279.5,-75.5 325.5,-75.5 325.5,-56.5 279.5,-56.5"/>
<text text-anchor="middle" x="302.5" y="-63.5" font-family="Helvetica,sans-Serif" font-size="10.00">Rect.h</text>
</a>
</g>
</g>
<!-- Node2&#45;&gt;Node5 -->
<g id="edge5" class="edge"><title>Node2&#45;&gt;Node5</title>
<path fill="none" stroke="midnightblue" d="M400.961,-112.444C381.877,-103.636 351.925,-89.8116 330.064,-79.722"/>
<polygon fill="midnightblue" stroke="midnightblue" points="331.499,-76.5292 320.952,-75.5164 328.565,-82.8849 331.499,-76.5292"/>
</g>
<!-- Node8 -->
<g id="node9" class="node"><title>Node8</title>
<polygon fill="white" stroke="#bfbfbf" points="475,-56.5 475,-75.5 516,-75.5 516,-56.5 475,-56.5"/>
<text text-anchor="middle" x="495.5" y="-63.5" font-family="Helvetica,sans-Serif" font-size="10.00">string</text>
</g>
<!-- Node2&#45;&gt;Node8 -->
<g id="edge8" class="edge"><title>Node2&#45;&gt;Node8</title>
<path fill="none" stroke="midnightblue" d="M431.711,-112.324C443.276,-104.107 460.875,-91.6017 474.661,-81.8069"/>
<polygon fill="midnightblue" stroke="midnightblue" points="476.943,-84.4791 483.067,-75.8339 472.888,-78.7729 476.943,-84.4791"/>
</g>
<!-- Node9 -->
<g id="node10" class="node"><title>Node9</title>
<g id="a_node10"><a xlink:href="ComponentType_8h.html" target="_top" xlink:title="ComponentType.h">
<polygon fill="white" stroke="black" points="357,-0.5 357,-19.5 454,-19.5 454,-0.5 357,-0.5"/>
<text text-anchor="middle" x="405.5" y="-7.5" font-family="Helvetica,sans-Serif" font-size="10.00">ComponentType.h</text>
</a>
</g>
</g>
<!-- Node2&#45;&gt;Node9 -->
<g id="edge9" class="edge"><title>Node2&#45;&gt;Node9</title>
<path fill="none" stroke="midnightblue" d="M405.422,-112.259C394.147,-104.355 379.154,-91.5838 372.5,-76 365.174,-58.8433 377.226,-39.8935 388.769,-26.904"/>
<polygon fill="midnightblue" stroke="midnightblue" points="391.322,-29.2981 395.712,-19.6557 386.267,-24.4558 391.322,-29.2981"/>
</g>
<!-- Node10 -->
<g id="node11" class="node"><title>Node10</title>
<g id="a_node11"><a xlink:href="Component_8h.html" target="_top" xlink:title="Component.h">
<polygon fill="white" stroke="black" points="382,-56.5 382,-75.5 457,-75.5 457,-56.5 382,-56.5"/>
<text text-anchor="middle" x="419.5" y="-63.5" font-family="Helvetica,sans-Serif" font-size="10.00">Component.h</text>
</a>
</g>
</g>
<!-- Node2&#45;&gt;Node10 -->
<g id="edge10" class="edge"><title>Node2&#45;&gt;Node10</title>
<path fill="none" stroke="midnightblue" d="M414.334,-112.083C412.824,-104.927 412.394,-94.6353 413.042,-85.6911"/>
<polygon fill="midnightblue" stroke="midnightblue" points="416.515,-86.1262 414.369,-75.7511 409.577,-85.2002 416.515,-86.1262"/>
</g>
<!-- Node5&#45;&gt;Node6 -->
<g id="edge6" class="edge"><title>Node5&#45;&gt;Node6</title>
<path fill="none" stroke="midnightblue" d="M290.129,-56.324C278.342,-48.0577 260.368,-35.4527 246.364,-25.6322"/>
<polygon fill="midnightblue" stroke="midnightblue" points="248.038,-22.5307 237.841,-19.6545 244.018,-28.2619 248.038,-22.5307"/>
</g>
<!-- Node7 -->
<g id="node8" class="node"><title>Node7</title>
<polygon fill="white" stroke="#bfbfbf" points="280.5,-0.5 280.5,-19.5 324.5,-19.5 324.5,-0.5 280.5,-0.5"/>
<text text-anchor="middle" x="302.5" y="-7.5" font-family="Helvetica,sans-Serif" font-size="10.00">cmath</text>
</g>
<!-- Node5&#45;&gt;Node7 -->
<g id="edge7" class="edge"><title>Node5&#45;&gt;Node7</title>
<path fill="none" stroke="midnightblue" d="M302.5,-56.083C302.5,-49.0059 302.5,-38.8611 302.5,-29.9865"/>
<polygon fill="midnightblue" stroke="midnightblue" points="306,-29.751 302.5,-19.7511 299,-29.7511 306,-29.751"/>
</g>
<!-- Node10&#45;&gt;Node2 -->
<g id="edge12" class="edge"><title>Node10&#45;&gt;Node2</title>
<path fill="none" stroke="midnightblue" d="M424.631,-75.7511C426.157,-82.8579 426.604,-93.1357 425.972,-102.101"/>
<polygon fill="midnightblue" stroke="midnightblue" points="422.493,-101.713 424.666,-112.083 429.434,-102.622 422.493,-101.713"/>
</g>
<!-- Node10&#45;&gt;Node9 -->
<g id="edge11" class="edge"><title>Node10&#45;&gt;Node9</title>
<path fill="none" stroke="midnightblue" d="M417.188,-56.083C415.333,-48.9272 412.665,-38.6353 410.346,-29.6911"/>
<polygon fill="midnightblue" stroke="midnightblue" points="413.666,-28.5527 407.769,-19.7511 406.891,-30.3094 413.666,-28.5527"/>
</g>
<!-- Node11&#45;&gt;Node12 -->
<g id="edge15" class="edge"><title>Node11&#45;&gt;Node12</title>
<path fill="none" stroke="midnightblue" d="M139.179,-168.083C138.119,-160.927 136.594,-150.635 135.269,-141.691"/>
<polygon fill="midnightblue" stroke="midnightblue" points="138.724,-141.13 133.796,-131.751 131.8,-142.156 138.724,-141.13"/>
</g>
<!-- Node12&#45;&gt;Node6 -->
<g id="edge16" class="edge"><title>Node12&#45;&gt;Node6</title>
<path fill="none" stroke="midnightblue" d="M139.798,-112.368C155.281,-94.0547 191.64,-51.0489 211.666,-27.3624"/>
<polygon fill="midnightblue" stroke="midnightblue" points="214.453,-29.4877 218.236,-19.5914 209.107,-24.9682 214.453,-29.4877"/>
</g>
<!-- Node13 -->
<g id="node14" class="node"><title>Node13</title>
<polygon fill="white" stroke="#bfbfbf" points="0,-56.5 0,-75.5 83,-75.5 83,-56.5 0,-56.5"/>
<text text-anchor="middle" x="41.5" y="-63.5" font-family="Helvetica,sans-Serif" font-size="10.00">unordered_map</text>
</g>
<!-- Node12&#45;&gt;Node13 -->
<g id="edge17" class="edge"><title>Node12&#45;&gt;Node13</title>
<path fill="none" stroke="midnightblue" d="M117.879,-112.324C103.551,-103.822 81.4875,-90.7288 64.7513,-80.7975"/>
<polygon fill="midnightblue" stroke="midnightblue" points="66.4704,-77.7478 56.0844,-75.6545 62.8982,-83.7677 66.4704,-77.7478"/>
</g>
<!-- Node14 -->
<g id="node15" class="node"><title>Node14</title>
<polygon fill="white" stroke="#bfbfbf" points="101.5,-56.5 101.5,-75.5 147.5,-75.5 147.5,-56.5 101.5,-56.5"/>
<text text-anchor="middle" x="124.5" y="-63.5" font-family="Helvetica,sans-Serif" font-size="10.00">cstdint</text>
</g>
<!-- Node12&#45;&gt;Node14 -->
<g id="edge18" class="edge"><title>Node12&#45;&gt;Node14</title>
<path fill="none" stroke="midnightblue" d="M131.179,-112.083C130.119,-104.927 128.594,-94.6353 127.269,-85.6911"/>
<polygon fill="midnightblue" stroke="midnightblue" points="130.724,-85.1302 125.796,-75.7511 123.8,-86.1561 130.724,-85.1302"/>
</g>
<!-- Node16 -->
<g id="node17" class="node"><title>Node16</title>
<polygon fill="white" stroke="#bfbfbf" points="647.5,-168.5 647.5,-187.5 701.5,-187.5 701.5,-168.5 647.5,-168.5"/>
<text text-anchor="middle" x="674.5" y="-175.5" font-family="Helvetica,sans-Serif" font-size="10.00">iostream</text>
</g>
<!-- Node15&#45;&gt;Node16 -->
<g id="edge21" class="edge"><title>Node15&#45;&gt;Node16</title>
<path fill="none" stroke="midnightblue" d="M616.586,-224.324C626.986,-216.185 642.761,-203.839 655.222,-194.087"/>
<polygon fill="midnightblue" stroke="midnightblue" points="657.494,-196.753 663.212,-187.834 653.18,-191.241 657.494,-196.753"/>
</g>
<!-- Node17 -->
<g id="node18" class="node"><title>Node17</title>
<polygon fill="white" stroke="#bfbfbf" points="581.5,-168.5 581.5,-187.5 629.5,-187.5 629.5,-168.5 581.5,-168.5"/>
<text text-anchor="middle" x="605.5" y="-175.5" font-family="Helvetica,sans-Serif" font-size="10.00">stdlib.h</text>
</g>
<!-- Node15&#45;&gt;Node17 -->
<g id="edge22" class="edge"><title>Node15&#45;&gt;Node17</title>
<path fill="none" stroke="midnightblue" d="M605.5,-224.083C605.5,-217.006 605.5,-206.861 605.5,-197.986"/>
<polygon fill="midnightblue" stroke="midnightblue" points="609,-197.751 605.5,-187.751 602,-197.751 609,-197.751"/>
</g>
<!-- Node18&#45;&gt;Node6 -->
<g id="edge31" class="edge"><title>Node18&#45;&gt;Node6</title>
<path fill="none" stroke="midnightblue" d="M346.561,-224.297C327.864,-191.356 261.199,-73.898 235.606,-28.8052"/>
<polygon fill="midnightblue" stroke="midnightblue" points="238.522,-26.853 230.542,-19.8837 232.434,-30.3083 238.522,-26.853"/>
</g>
<!-- Node18&#45;&gt;Node8 -->
<g id="edge24" class="edge"><title>Node18&#45;&gt;Node8</title>
<path fill="none" stroke="midnightblue" d="M365.301,-224.355C389.327,-208.673 439.076,-173.309 468.5,-132 478.681,-117.707 485.936,-98.9948 490.344,-85.3197"/>
<polygon fill="midnightblue" stroke="midnightblue" points="493.735,-86.1977 493.27,-75.613 487.033,-84.1771 493.735,-86.1977"/>
</g>
<!-- Node18&#45;&gt;Node12 -->
<g id="edge30" class="edge"><title>Node18&#45;&gt;Node12</title>
<path fill="none" stroke="midnightblue" d="M334.315,-224.368C296.175,-205.211 204.243,-159.036 158.814,-136.217"/>
<polygon fill="midnightblue" stroke="midnightblue" points="160.112,-132.952 149.605,-131.591 156.97,-139.208 160.112,-132.952"/>
</g>
<!-- Node19 -->
<g id="node20" class="node"><title>Node19</title>
<polygon fill="white" stroke="#bfbfbf" points="356,-168.5 356,-187.5 397,-187.5 397,-168.5 356,-168.5"/>
<text text-anchor="middle" x="376.5" y="-175.5" font-family="Helvetica,sans-Serif" font-size="10.00">stack</text>
</g>
<!-- Node18&#45;&gt;Node19 -->
<g id="edge25" class="edge"><title>Node18&#45;&gt;Node19</title>
<path fill="none" stroke="midnightblue" d="M355.628,-224.083C359.014,-216.77 363.916,-206.181 368.119,-197.103"/>
<polygon fill="midnightblue" stroke="midnightblue" points="371.423,-198.296 372.449,-187.751 365.071,-195.355 371.423,-198.296"/>
</g>
<!-- Node20 -->
<g id="node21" class="node"><title>Node20</title>
<g id="a_node21"><a xlink:href="State_8h.html" target="_top" xlink:title="State.h">
<polygon fill="white" stroke="black" points="515.5,-168.5 515.5,-187.5 563.5,-187.5 563.5,-168.5 515.5,-168.5"/>
<text text-anchor="middle" x="539.5" y="-175.5" font-family="Helvetica,sans-Serif" font-size="10.00">State.h</text>
</a>
</g>
</g>
<!-- Node18&#45;&gt;Node20 -->
<g id="edge26" class="edge"><title>Node18&#45;&gt;Node20</title>
<path fill="none" stroke="midnightblue" d="M377.246,-225.605C410.522,-216.047 468.555,-199.378 505.448,-188.781"/>
<polygon fill="midnightblue" stroke="midnightblue" points="506.61,-192.089 515.255,-185.964 504.677,-185.361 506.61,-192.089"/>
</g>
<!-- Node20&#45;&gt;Node2 -->
<g id="edge27" class="edge"><title>Node20&#45;&gt;Node2</title>
<path fill="none" stroke="midnightblue" d="M520.486,-168.444C500.912,-159.636 470.192,-145.812 447.771,-135.722"/>
<polygon fill="midnightblue" stroke="midnightblue" points="448.981,-132.428 438.425,-131.516 446.108,-138.812 448.981,-132.428"/>
</g>
<!-- Node20&#45;&gt;Node3 -->
<g id="edge28" class="edge"><title>Node20&#45;&gt;Node3</title>
<path fill="none" stroke="midnightblue" d="M546.327,-168.368C560.748,-150.135 594.527,-107.426 613.311,-83.6752"/>
<polygon fill="midnightblue" stroke="midnightblue" points="616.247,-85.606 619.705,-75.5914 610.756,-81.2636 616.247,-85.606"/>
</g>
<!-- Node20&#45;&gt;Node4 -->
<g id="edge29" class="edge"><title>Node20&#45;&gt;Node4</title>
<path fill="none" stroke="midnightblue" d="M541.148,-168.368C544.537,-150.617 552.355,-109.666 556.95,-85.5974"/>
<polygon fill="midnightblue" stroke="midnightblue" points="560.422,-86.0704 558.86,-75.5914 553.547,-84.7577 560.422,-86.0704"/>
</g>
</g>
</svg>
