<?xml version="1.0" encoding="UTF-8" standalone="no"?>
<!DOCTYPE svg PUBLIC "-//W3C//DTD SVG 1.1//EN"
 "http://www.w3.org/Graphics/SVG/1.1/DTD/svg11.dtd">
<!-- Generated by graphviz version 2.38.0 (20140413.2041)
 -->
<!-- Title: Engine/src/Camera.cpp Pages: 1 -->
<svg width="610pt" height="308pt"
 viewBox="0.00 0.00 609.55 308.00" xmlns="http://www.w3.org/2000/svg" xmlns:xlink="http://www.w3.org/1999/xlink">
<g id="graph0" class="graph" transform="scale(1 1) rotate(0) translate(4 304)">
<title>Engine/src/Camera.cpp</title>
<polygon fill="white" stroke="none" points="-4,4 -4,-304 605.555,-304 605.555,4 -4,4"/>
<!-- Node1 -->
<g id="node1" class="node"><title>Node1</title>
<polygon fill="#bfbfbf" stroke="black" points="144.055,-280.5 144.055,-299.5 263.055,-299.5 263.055,-280.5 144.055,-280.5"/>
<text text-anchor="middle" x="203.555" y="-287.5" font-family="Helvetica,sans-Serif" font-size="10.00">Engine/src/Camera.cpp</text>
</g>
<!-- Node2 -->
<g id="node2" class="node"><title>Node2</title>
<g id="a_node2"><a xlink:href="Camera_8h.html" target="_top" xlink:title="Camera.h">
<polygon fill="white" stroke="black" points="71.0546,-224.5 71.0546,-243.5 130.055,-243.5 130.055,-224.5 71.0546,-224.5"/>
<text text-anchor="middle" x="100.555" y="-231.5" font-family="Helvetica,sans-Serif" font-size="10.00">Camera.h</text>
</a>
</g>
</g>
<!-- Node1&#45;&gt;Node2 -->
<g id="edge1" class="edge"><title>Node1&#45;&gt;Node2</title>
<path fill="none" stroke="midnightblue" d="M187.006,-280.324C170.563,-271.703 145.12,-258.364 126.086,-248.386"/>
<polygon fill="midnightblue" stroke="midnightblue" points="127.544,-245.198 117.062,-243.655 124.294,-251.398 127.544,-245.198"/>
</g>
<!-- Node12 -->
<g id="node12" class="node"><title>Node12</title>
<g id="a_node12"><a xlink:href="InputManager_8h.html" target="_top" xlink:title="InputManager.h">
<polygon fill="white" stroke="black" points="107.555,-112.5 107.555,-131.5 191.555,-131.5 191.555,-112.5 107.555,-112.5"/>
<text text-anchor="middle" x="149.555" y="-119.5" font-family="Helvetica,sans-Serif" font-size="10.00">InputManager.h</text>
</a>
</g>
</g>
<!-- Node1&#45;&gt;Node12 -->
<g id="edge17" class="edge"><title>Node1&#45;&gt;Node12</title>
<path fill="none" stroke="midnightblue" d="M200.651,-280.075C192.114,-253.832 166.973,-176.545 155.448,-141.117"/>
<polygon fill="midnightblue" stroke="midnightblue" points="158.764,-139.995 152.342,-131.568 152.107,-142.16 158.764,-139.995"/>
</g>
<!-- Node15 -->
<g id="node15" class="node"><title>Node15</title>
<g id="a_node15"><a xlink:href="Error_8h.html" target="_top" xlink:title="Error.h">
<polygon fill="white" stroke="black" points="474.555,-224.5 474.555,-243.5 520.555,-243.5 520.555,-224.5 474.555,-224.5"/>
<text text-anchor="middle" x="497.555" y="-231.5" font-family="Helvetica,sans-Serif" font-size="10.00">Error.h</text>
</a>
</g>
</g>
<!-- Node1&#45;&gt;Node15 -->
<g id="edge18" class="edge"><title>Node1&#45;&gt;Node15</title>
<path fill="none" stroke="midnightblue" d="M250.14,-280.444C309.822,-269.481 411.806,-250.75 464.249,-241.117"/>
<polygon fill="midnightblue" stroke="midnightblue" points="465.149,-244.511 474.353,-239.262 463.885,-237.626 465.149,-244.511"/>
</g>
<!-- Node18 -->
<g id="node18" class="node"><title>Node18</title>
<g id="a_node18"><a xlink:href="Game_8h.html" target="_top" xlink:title="Game.h">
<polygon fill="white" stroke="black" points="235.055,-224.5 235.055,-243.5 286.055,-243.5 286.055,-224.5 235.055,-224.5"/>
<text text-anchor="middle" x="260.555" y="-231.5" font-family="Helvetica,sans-Serif" font-size="10.00">Game.h</text>
</a>
</g>
</g>
<!-- Node1&#45;&gt;Node18 -->
<g id="edge21" class="edge"><title>Node1&#45;&gt;Node18</title>
<path fill="none" stroke="midnightblue" d="M212.713,-280.324C221.056,-272.42 233.587,-260.548 243.732,-250.938"/>
<polygon fill="midnightblue" stroke="midnightblue" points="246.378,-253.252 251.23,-243.834 241.563,-248.171 246.378,-253.252"/>
</g>
<!-- Node3 -->
<g id="node3" class="node"><title>Node3</title>
<g id="a_node3"><a xlink:href="GameObject_8h.html" target="_top" xlink:title="GameObject.h">
<polygon fill="white" stroke="black" points="391.555,-112.5 391.555,-131.5 471.555,-131.5 471.555,-112.5 391.555,-112.5"/>
<text text-anchor="middle" x="431.555" y="-119.5" font-family="Helvetica,sans-Serif" font-size="10.00">GameObject.h</text>
</a>
</g>
</g>
<!-- Node2&#45;&gt;Node3 -->
<g id="edge2" class="edge"><title>Node2&#45;&gt;Node3</title>
<path fill="none" stroke="midnightblue" d="M126.252,-224.46C184.91,-204.966 328.767,-157.159 395.93,-134.839"/>
<polygon fill="midnightblue" stroke="midnightblue" points="397.259,-138.086 405.645,-131.61 395.052,-131.443 397.259,-138.086"/>
</g>
<!-- Node7 -->
<g id="node7" class="node"><title>Node7</title>
<g id="a_node7"><a xlink:href="Vec2_8h.html" target="_top" xlink:title="Vec2.h">
<polygon fill="white" stroke="black" points="199.055,-0.5 199.055,-19.5 246.055,-19.5 246.055,-0.5 199.055,-0.5"/>
<text text-anchor="middle" x="222.555" y="-7.5" font-family="Helvetica,sans-Serif" font-size="10.00">Vec2.h</text>
</a>
</g>
</g>
<!-- Node2&#45;&gt;Node7 -->
<g id="edge11" class="edge"><title>Node2&#45;&gt;Node7</title>
<path fill="none" stroke="midnightblue" d="M82.0531,-224.483C67.8392,-216.945 48.9373,-204.567 38.5546,-188 7.04437,-137.722 -18.6097,-102.256 18.5546,-56 39.5408,-29.88 136.504,-18.0225 188.838,-13.4463"/>
<polygon fill="midnightblue" stroke="midnightblue" points="189.304,-16.9196 198.979,-12.6018 188.723,-9.94378 189.304,-16.9196"/>
</g>
<!-- Node11 -->
<g id="node11" class="node"><title>Node11</title>
<g id="a_node11"><a xlink:href="ActionManager_8h.html" target="_top" xlink:title="ActionManager.h">
<polygon fill="white" stroke="black" points="47.5546,-168.5 47.5546,-187.5 137.555,-187.5 137.555,-168.5 47.5546,-168.5"/>
<text text-anchor="middle" x="92.5546" y="-175.5" font-family="Helvetica,sans-Serif" font-size="10.00">ActionManager.h</text>
</a>
</g>
</g>
<!-- Node2&#45;&gt;Node11 -->
<g id="edge12" class="edge"><title>Node2&#45;&gt;Node11</title>
<path fill="none" stroke="midnightblue" d="M99.2336,-224.083C98.1735,-216.927 96.6487,-206.635 95.3237,-197.691"/>
<polygon fill="midnightblue" stroke="midnightblue" points="98.7789,-197.13 93.8511,-187.751 91.8544,-198.156 98.7789,-197.13"/>
</g>
<!-- Node4 -->
<g id="node4" class="node"><title>Node4</title>
<polygon fill="white" stroke="#bfbfbf" points="557.555,-56.5 557.555,-75.5 601.555,-75.5 601.555,-56.5 557.555,-56.5"/>
<text text-anchor="middle" x="579.555" y="-63.5" font-family="Helvetica,sans-Serif" font-size="10.00">vector</text>
</g>
<!-- Node3&#45;&gt;Node4 -->
<g id="edge3" class="edge"><title>Node3&#45;&gt;Node4</title>
<path fill="none" stroke="midnightblue" d="M455.006,-112.444C479.978,-103.332 519.661,-88.8531 547.508,-78.6929"/>
<polygon fill="midnightblue" stroke="midnightblue" points="548.988,-81.8786 557.182,-75.1629 546.588,-75.3027 548.988,-81.8786"/>
</g>
<!-- Node5 -->
<g id="node5" class="node"><title>Node5</title>
<polygon fill="white" stroke="#bfbfbf" points="487.555,-56.5 487.555,-75.5 539.555,-75.5 539.555,-56.5 487.555,-56.5"/>
<text text-anchor="middle" x="513.555" y="-63.5" font-family="Helvetica,sans-Serif" font-size="10.00">memory</text>
</g>
<!-- Node3&#45;&gt;Node5 -->
<g id="edge4" class="edge"><title>Node3&#45;&gt;Node5</title>
<path fill="none" stroke="midnightblue" d="M444.729,-112.324C457.401,-103.979 476.788,-91.2122 491.76,-81.3524"/>
<polygon fill="midnightblue" stroke="midnightblue" points="493.986,-84.0776 500.413,-75.6545 490.136,-78.2313 493.986,-84.0776"/>
</g>
<!-- Node6 -->
<g id="node6" class="node"><title>Node6</title>
<g id="a_node6"><a xlink:href="Rect_8h.html" target="_top" xlink:title="Rect.h">
<polygon fill="white" stroke="black" points="329.555,-56.5 329.555,-75.5 375.555,-75.5 375.555,-56.5 329.555,-56.5"/>
<text text-anchor="middle" x="352.555" y="-63.5" font-family="Helvetica,sans-Serif" font-size="10.00">Rect.h</text>
</a>
</g>
</g>
<!-- Node3&#45;&gt;Node6 -->
<g id="edge5" class="edge"><title>Node3&#45;&gt;Node6</title>
<path fill="none" stroke="midnightblue" d="M418.862,-112.324C406.653,-103.979 387.976,-91.2122 373.552,-81.3524"/>
<polygon fill="midnightblue" stroke="midnightblue" points="375.447,-78.4082 365.216,-75.6545 371.496,-84.1871 375.447,-78.4082"/>
</g>
<!-- Node9 -->
<g id="node9" class="node"><title>Node9</title>
<polygon fill="white" stroke="#bfbfbf" points="270.055,-56.5 270.055,-75.5 311.055,-75.5 311.055,-56.5 270.055,-56.5"/>
<text text-anchor="middle" x="290.555" y="-63.5" font-family="Helvetica,sans-Serif" font-size="10.00">string</text>
</g>
<!-- Node3&#45;&gt;Node9 -->
<g id="edge8" class="edge"><title>Node3&#45;&gt;Node9</title>
<path fill="none" stroke="midnightblue" d="M409.213,-112.444C385.389,-103.319 347.51,-88.8125 320.974,-78.6501"/>
<polygon fill="midnightblue" stroke="midnightblue" points="322.003,-75.2963 311.413,-74.9883 319.5,-81.8333 322.003,-75.2963"/>
</g>
<!-- Node10 -->
<g id="node10" class="node"><title>Node10</title>
<g id="a_node10"><a xlink:href="Component_8h.html" target="_top" xlink:title="Component.h">
<polygon fill="white" stroke="black" points="394.055,-56.5 394.055,-75.5 469.055,-75.5 469.055,-56.5 394.055,-56.5"/>
<text text-anchor="middle" x="431.555" y="-63.5" font-family="Helvetica,sans-Serif" font-size="10.00">Component.h</text>
</a>
</g>
</g>
<!-- Node3&#45;&gt;Node10 -->
<g id="edge9" class="edge"><title>Node3&#45;&gt;Node10</title>
<path fill="none" stroke="midnightblue" d="M426.388,-112.083C424.879,-104.927 424.448,-94.6353 425.097,-85.6911"/>
<polygon fill="midnightblue" stroke="midnightblue" points="428.57,-86.1262 426.424,-75.7511 421.632,-85.2002 428.57,-86.1262"/>
</g>
<!-- Node6&#45;&gt;Node7 -->
<g id="edge6" class="edge"><title>Node6&#45;&gt;Node7</title>
<path fill="none" stroke="midnightblue" d="M331.956,-56.4435C310.561,-47.5566 276.873,-33.5632 252.53,-23.4514"/>
<polygon fill="midnightblue" stroke="midnightblue" points="253.635,-20.1203 243.057,-19.5164 250.949,-26.5848 253.635,-20.1203"/>
</g>
<!-- Node8 -->
<g id="node8" class="node"><title>Node8</title>
<polygon fill="white" stroke="#bfbfbf" points="330.555,-0.5 330.555,-19.5 374.555,-19.5 374.555,-0.5 330.555,-0.5"/>
<text text-anchor="middle" x="352.555" y="-7.5" font-family="Helvetica,sans-Serif" font-size="10.00">cmath</text>
</g>
<!-- Node6&#45;&gt;Node8 -->
<g id="edge7" class="edge"><title>Node6&#45;&gt;Node8</title>
<path fill="none" stroke="midnightblue" d="M352.555,-56.083C352.555,-49.0059 352.555,-38.8611 352.555,-29.9865"/>
<polygon fill="midnightblue" stroke="midnightblue" points="356.055,-29.751 352.555,-19.7511 349.055,-29.7511 356.055,-29.751"/>
</g>
<!-- Node10&#45;&gt;Node3 -->
<g id="edge10" class="edge"><title>Node10&#45;&gt;Node3</title>
<path fill="none" stroke="midnightblue" d="M436.686,-75.7511C438.212,-82.8579 438.659,-93.1357 438.027,-102.101"/>
<polygon fill="midnightblue" stroke="midnightblue" points="434.548,-101.713 436.721,-112.083 441.489,-102.622 434.548,-101.713"/>
</g>
<!-- Node11&#45;&gt;Node12 -->
<g id="edge13" class="edge"><title>Node11&#45;&gt;Node12</title>
<path fill="none" stroke="midnightblue" d="M101.713,-168.324C110.056,-160.42 122.587,-148.548 132.732,-138.938"/>
<polygon fill="midnightblue" stroke="midnightblue" points="135.378,-141.252 140.23,-131.834 130.563,-136.171 135.378,-141.252"/>
</g>
<!-- Node12&#45;&gt;Node7 -->
<g id="edge14" class="edge"><title>Node12&#45;&gt;Node7</title>
<path fill="none" stroke="midnightblue" d="M156.615,-112.24C163.7,-103.317 174.79,-88.9855 183.555,-76 194.115,-60.354 205.085,-41.835 212.69,-28.5743"/>
<polygon fill="midnightblue" stroke="midnightblue" points="215.895,-30.018 217.788,-19.5935 209.808,-26.5626 215.895,-30.018"/>
</g>
<!-- Node13 -->
<g id="node13" class="node"><title>Node13</title>
<polygon fill="white" stroke="#bfbfbf" points="92.0546,-56.5 92.0546,-75.5 175.055,-75.5 175.055,-56.5 92.0546,-56.5"/>
<text text-anchor="middle" x="133.555" y="-63.5" font-family="Helvetica,sans-Serif" font-size="10.00">unordered_map</text>
</g>
<!-- Node12&#45;&gt;Node13 -->
<g id="edge15" class="edge"><title>Node12&#45;&gt;Node13</title>
<path fill="none" stroke="midnightblue" d="M146.913,-112.083C144.769,-104.849 141.676,-94.4087 139.006,-85.3968"/>
<polygon fill="midnightblue" stroke="midnightblue" points="142.344,-84.3447 136.148,-75.7511 135.633,-86.3334 142.344,-84.3447"/>
</g>
<!-- Node14 -->
<g id="node14" class="node"><title>Node14</title>
<polygon fill="white" stroke="#bfbfbf" points="27.5546,-56.5 27.5546,-75.5 73.5546,-75.5 73.5546,-56.5 27.5546,-56.5"/>
<text text-anchor="middle" x="50.5546" y="-63.5" font-family="Helvetica,sans-Serif" font-size="10.00">cstdint</text>
</g>
<!-- Node12&#45;&gt;Node14 -->
<g id="edge16" class="edge"><title>Node12&#45;&gt;Node14</title>
<path fill="none" stroke="midnightblue" d="M133.649,-112.324C117.916,-103.743 93.6123,-90.486 75.3457,-80.5224"/>
<polygon fill="midnightblue" stroke="midnightblue" points="76.8762,-77.3704 66.4212,-75.6545 73.5242,-83.5157 76.8762,-77.3704"/>
</g>
<!-- Node16 -->
<g id="node16" class="node"><title>Node16</title>
<polygon fill="white" stroke="#bfbfbf" points="539.555,-168.5 539.555,-187.5 593.555,-187.5 593.555,-168.5 539.555,-168.5"/>
<text text-anchor="middle" x="566.555" y="-175.5" font-family="Helvetica,sans-Serif" font-size="10.00">iostream</text>
</g>
<!-- Node15&#45;&gt;Node16 -->
<g id="edge19" class="edge"><title>Node15&#45;&gt;Node16</title>
<path fill="none" stroke="midnightblue" d="M508.641,-224.324C519.041,-216.185 534.815,-203.839 547.276,-194.087"/>
<polygon fill="midnightblue" stroke="midnightblue" points="549.549,-196.753 555.267,-187.834 545.235,-191.241 549.549,-196.753"/>
</g>
<!-- Node17 -->
<g id="node17" class="node"><title>Node17</title>
<polygon fill="white" stroke="#bfbfbf" points="473.555,-168.5 473.555,-187.5 521.555,-187.5 521.555,-168.5 473.555,-168.5"/>
<text text-anchor="middle" x="497.555" y="-175.5" font-family="Helvetica,sans-Serif" font-size="10.00">stdlib.h</text>
</g>
<!-- Node15&#45;&gt;Node17 -->
<g id="edge20" class="edge"><title>Node15&#45;&gt;Node17</title>
<path fill="none" stroke="midnightblue" d="M497.555,-224.083C497.555,-217.006 497.555,-206.861 497.555,-197.986"/>
<polygon fill="midnightblue" stroke="midnightblue" points="501.055,-197.751 497.555,-187.751 494.055,-197.751 501.055,-197.751"/>
</g>
<!-- Node18&#45;&gt;Node7 -->
<g id="edge29" class="edge"><title>Node18&#45;&gt;Node7</title>
<path fill="none" stroke="midnightblue" d="M259.065,-224.297C253.474,-191.633 233.658,-75.8661 225.8,-29.9573"/>
<polygon fill="midnightblue" stroke="midnightblue" points="229.212,-29.1499 224.075,-19.8837 222.313,-30.3309 229.212,-29.1499"/>
</g>
<!-- Node18&#45;&gt;Node9 -->
<g id="edge22" class="edge"><title>Node18&#45;&gt;Node9</title>
<path fill="none" stroke="midnightblue" d="M262.168,-224.075C266.89,-197.945 280.758,-121.211 287.197,-85.577"/>
<polygon fill="midnightblue" stroke="midnightblue" points="290.672,-86.0312 289.006,-75.5681 283.783,-84.7862 290.672,-86.0312"/>
</g>
<!-- Node18&#45;&gt;Node12 -->
<g id="edge28" class="edge"><title>Node18&#45;&gt;Node12</title>
<path fill="none" stroke="midnightblue" d="M251.845,-224.368C233.202,-205.894 189.204,-162.293 165.441,-138.744"/>
<polygon fill="midnightblue" stroke="midnightblue" points="167.791,-136.144 158.224,-131.591 162.864,-141.117 167.791,-136.144"/>
</g>
<!-- Node19 -->
<g id="node19" class="node"><title>Node19</title>
<polygon fill="white" stroke="#bfbfbf" points="346.055,-168.5 346.055,-187.5 387.055,-187.5 387.055,-168.5 346.055,-168.5"/>
<text text-anchor="middle" x="366.555" y="-175.5" font-family="Helvetica,sans-Serif" font-size="10.00">stack</text>
</g>
<!-- Node18&#45;&gt;Node19 -->
<g id="edge23" class="edge"><title>Node18&#45;&gt;Node19</title>
<path fill="none" stroke="midnightblue" d="M277.585,-224.324C294.584,-215.664 320.931,-202.242 340.547,-192.249"/>
<polygon fill="midnightblue" stroke="midnightblue" points="342.245,-195.312 349.566,-187.655 339.067,-189.075 342.245,-195.312"/>
</g>
<!-- Node20 -->
<g id="node20" class="node"><title>Node20</title>
<g id="a_node20"><a xlink:href="State_8h.html" target="_top" xlink:title="State.h">
<polygon fill="white" stroke="black" points="407.555,-168.5 407.555,-187.5 455.555,-187.5 455.555,-168.5 407.555,-168.5"/>
<text text-anchor="middle" x="431.555" y="-175.5" font-family="Helvetica,sans-Serif" font-size="10.00">State.h</text>
</a>
</g>
</g>
<!-- Node18&#45;&gt;Node20 -->
<g id="edge24" class="edge"><title>Node18&#45;&gt;Node20</title>
<path fill="none" stroke="midnightblue" d="M286.155,-224.916C315.876,-215.53 365.004,-200.016 397.819,-189.653"/>
<polygon fill="midnightblue" stroke="midnightblue" points="398.958,-192.964 407.44,-186.615 396.85,-186.289 398.958,-192.964"/>
</g>
<!-- Node20&#45;&gt;Node3 -->
<g id="edge25" class="edge"><title>Node20&#45;&gt;Node3</title>
<path fill="none" stroke="midnightblue" d="M431.555,-168.083C431.555,-161.006 431.555,-150.861 431.555,-141.986"/>
<polygon fill="midnightblue" stroke="midnightblue" points="435.055,-141.751 431.555,-131.751 428.055,-141.751 435.055,-141.751"/>
</g>
<!-- Node20&#45;&gt;Node4 -->
<g id="edge26" class="edge"><title>Node20&#45;&gt;Node4</title>
<path fill="none" stroke="midnightblue" d="M445.604,-168.474C459.767,-159.733 482.108,-145.54 500.555,-132 522.3,-116.039 546.049,-96.1384 561.77,-82.5907"/>
<polygon fill="midnightblue" stroke="midnightblue" points="564.356,-84.9807 569.615,-75.783 559.768,-79.6938 564.356,-84.9807"/>
</g>
<!-- Node20&#45;&gt;Node5 -->
<g id="edge27" class="edge"><title>Node20&#45;&gt;Node5</title>
<path fill="none" stroke="midnightblue" d="M443.16,-168.337C453.853,-159.926 469.667,-146.356 480.555,-132 491.537,-117.519 500.583,-98.8297 506.408,-85.211"/>
<polygon fill="midnightblue" stroke="midnightblue" points="509.813,-86.1337 510.366,-75.5533 503.335,-83.4796 509.813,-86.1337"/>
</g>
</g>
</svg>
