<?xml version="1.0" encoding="UTF-8" standalone="no"?>
<!DOCTYPE svg PUBLIC "-//W3C//DTD SVG 1.1//EN"
 "http://www.w3.org/Graphics/SVG/1.1/DTD/svg11.dtd">
<!-- Generated by graphviz version 2.38.0 (20140413.2041)
 -->
<!-- Title: Engine/src/Camera.cpp Pages: 1 -->
<svg width="947pt" height="364pt"
 viewBox="0.00 0.00 946.87 364.00" xmlns="http://www.w3.org/2000/svg" xmlns:xlink="http://www.w3.org/1999/xlink">
<g id="graph0" class="graph" transform="scale(1 1) rotate(0) translate(4 360)">
<title>Engine/src/Camera.cpp</title>
<polygon fill="white" stroke="none" points="-4,4 -4,-360 942.867,-360 942.867,4 -4,4"/>
<!-- Node1 -->
<g id="node1" class="node"><title>Node1</title>
<polygon fill="#bfbfbf" stroke="black" points="355.367,-336.5 355.367,-355.5 474.367,-355.5 474.367,-336.5 355.367,-336.5"/>
<text text-anchor="middle" x="414.867" y="-343.5" font-family="Helvetica,sans-Serif" font-size="10.00">Engine/src/Camera.cpp</text>
</g>
<!-- Node2 -->
<g id="node2" class="node"><title>Node2</title>
<g id="a_node2"><a xlink:href="Camera_8h.html" target="_top" xlink:title="Camera.h">
<polygon fill="white" stroke="black" points="33.3666,-280.5 33.3666,-299.5 92.3666,-299.5 92.3666,-280.5 33.3666,-280.5"/>
<text text-anchor="middle" x="62.8666" y="-287.5" font-family="Helvetica,sans-Serif" font-size="10.00">Camera.h</text>
</a>
</g>
</g>
<!-- Node1&#45;&gt;Node2 -->
<g id="edge1" class="edge"><title>Node1&#45;&gt;Node2</title>
<path fill="none" stroke="midnightblue" d="M359.091,-336.444C287.474,-325.457 164.983,-306.666 102.32,-297.053"/>
<polygon fill="midnightblue" stroke="midnightblue" points="102.846,-293.592 92.4304,-295.535 101.784,-300.511 102.846,-293.592"/>
</g>
<!-- Node13 -->
<g id="node13" class="node"><title>Node13</title>
<g id="a_node13"><a xlink:href="InputManager_8h.html" target="_top" xlink:title="InputManager.h">
<polygon fill="white" stroke="black" points="327.867,-168.5 327.867,-187.5 411.867,-187.5 411.867,-168.5 327.867,-168.5"/>
<text text-anchor="middle" x="369.867" y="-175.5" font-family="Helvetica,sans-Serif" font-size="10.00">InputManager.h</text>
</a>
</g>
</g>
<!-- Node1&#45;&gt;Node13 -->
<g id="edge40" class="edge"><title>Node1&#45;&gt;Node13</title>
<path fill="none" stroke="midnightblue" d="M412.447,-336.075C405.364,-309.945 384.562,-233.211 374.902,-197.577"/>
<polygon fill="midnightblue" stroke="midnightblue" points="378.184,-196.304 372.189,-187.568 371.428,-198.136 378.184,-196.304"/>
</g>
<!-- Node16 -->
<g id="node16" class="node"><title>Node16</title>
<g id="a_node16"><a xlink:href="Error_8h.html" target="_top" xlink:title="Error.h">
<polygon fill="white" stroke="black" points="822.867,-280.5 822.867,-299.5 868.867,-299.5 868.867,-280.5 822.867,-280.5"/>
<text text-anchor="middle" x="845.867" y="-287.5" font-family="Helvetica,sans-Serif" font-size="10.00">Error.h</text>
</a>
</g>
</g>
<!-- Node1&#45;&gt;Node16 -->
<g id="edge21" class="edge"><title>Node1&#45;&gt;Node16</title>
<path fill="none" stroke="midnightblue" d="M474.795,-337.492C566.948,-325.946 740.368,-304.218 812.784,-295.145"/>
<polygon fill="midnightblue" stroke="midnightblue" points="813.226,-298.617 822.713,-293.901 812.356,-291.671 813.226,-298.617"/>
</g>
<!-- Node19 -->
<g id="node19" class="node"><title>Node19</title>
<g id="a_node19"><a xlink:href="Game_8h.html" target="_top" xlink:title="Game.h">
<polygon fill="white" stroke="black" points="434.367,-280.5 434.367,-299.5 485.367,-299.5 485.367,-280.5 434.367,-280.5"/>
<text text-anchor="middle" x="459.867" y="-287.5" font-family="Helvetica,sans-Serif" font-size="10.00">Game.h</text>
</a>
</g>
</g>
<!-- Node1&#45;&gt;Node19 -->
<g id="edge24" class="edge"><title>Node1&#45;&gt;Node19</title>
<path fill="none" stroke="midnightblue" d="M422.297,-336.083C428.719,-328.377 438.172,-317.033 445.989,-307.653"/>
<polygon fill="midnightblue" stroke="midnightblue" points="448.861,-309.674 452.574,-299.751 443.483,-305.193 448.861,-309.674"/>
</g>
<!-- Node3 -->
<g id="node3" class="node"><title>Node3</title>
<g id="a_node3"><a xlink:href="GameObject_8h.html" target="_top" xlink:title="GameObject.h">
<polygon fill="white" stroke="black" points="219.867,-168.5 219.867,-187.5 299.867,-187.5 299.867,-168.5 219.867,-168.5"/>
<text text-anchor="middle" x="259.867" y="-175.5" font-family="Helvetica,sans-Serif" font-size="10.00">GameObject.h</text>
</a>
</g>
</g>
<!-- Node2&#45;&gt;Node3 -->
<g id="edge2" class="edge"><title>Node2&#45;&gt;Node3</title>
<path fill="none" stroke="midnightblue" d="M56.1722,-280.436C46.5238,-266.986 31.2816,-240.723 44.8666,-224 65.1828,-198.991 152.357,-187.391 209.273,-182.395"/>
<polygon fill="midnightblue" stroke="midnightblue" points="209.852,-185.859 219.525,-181.537 209.268,-178.883 209.852,-185.859"/>
</g>
<!-- Node10 -->
<g id="node10" class="node"><title>Node10</title>
<g id="a_node10"><a xlink:href="Vec2_8h.html" target="_top" xlink:title="Vec2.h">
<polygon fill="white" stroke="black" points="84.3666,-56.5 84.3666,-75.5 131.367,-75.5 131.367,-56.5 84.3666,-56.5"/>
<text text-anchor="middle" x="107.867" y="-63.5" font-family="Helvetica,sans-Serif" font-size="10.00">Vec2.h</text>
</a>
</g>
</g>
<!-- Node2&#45;&gt;Node10 -->
<g id="edge14" class="edge"><title>Node2&#45;&gt;Node10</title>
<path fill="none" stroke="midnightblue" d="M55.6415,-280.182C34.3399,-253.053 -24.503,-169.215 11.8666,-112 25.5056,-90.5435 52.3738,-79.1406 74.225,-73.1887"/>
<polygon fill="midnightblue" stroke="midnightblue" points="75.2784,-76.5342 84.1568,-70.7528 73.6109,-69.7356 75.2784,-76.5342"/>
</g>
<!-- Node12 -->
<g id="node12" class="node"><title>Node12</title>
<g id="a_node12"><a xlink:href="ActionManager_8h.html" target="_top" xlink:title="ActionManager.h">
<polygon fill="white" stroke="black" points="53.8666,-224.5 53.8666,-243.5 143.867,-243.5 143.867,-224.5 53.8666,-224.5"/>
<text text-anchor="middle" x="98.8666" y="-231.5" font-family="Helvetica,sans-Serif" font-size="10.00">ActionManager.h</text>
</a>
</g>
</g>
<!-- Node2&#45;&gt;Node12 -->
<g id="edge15" class="edge"><title>Node2&#45;&gt;Node12</title>
<path fill="none" stroke="midnightblue" d="M68.8112,-280.083C73.8438,-272.534 81.2033,-261.495 87.38,-252.23"/>
<polygon fill="midnightblue" stroke="midnightblue" points="90.3976,-254.013 93.0325,-243.751 84.5733,-250.13 90.3976,-254.013"/>
</g>
<!-- Node4 -->
<g id="node4" class="node"><title>Node4</title>
<g id="a_node4"><a xlink:href="SDL__include_8h.html" target="_top" xlink:title="SDL_include.h">
<polygon fill="white" stroke="black" points="269.867,-0.5 269.867,-19.5 349.867,-19.5 349.867,-0.5 269.867,-0.5"/>
<text text-anchor="middle" x="309.867" y="-7.5" font-family="Helvetica,sans-Serif" font-size="10.00">SDL_include.h</text>
</a>
</g>
</g>
<!-- Node3&#45;&gt;Node4 -->
<g id="edge3" class="edge"><title>Node3&#45;&gt;Node4</title>
<path fill="none" stroke="midnightblue" d="M262.411,-168.158C266.021,-155.641 272.86,-132.047 278.867,-112 287.528,-83.0911 297.861,-49.6223 304.139,-29.3961"/>
<polygon fill="midnightblue" stroke="midnightblue" points="307.547,-30.223 307.174,-19.6348 300.863,-28.1451 307.547,-30.223"/>
</g>
<!-- Node5 -->
<g id="node5" class="node"><title>Node5</title>
<polygon fill="white" stroke="#bfbfbf" points="287.867,-112.5 287.867,-131.5 331.867,-131.5 331.867,-112.5 287.867,-112.5"/>
<text text-anchor="middle" x="309.867" y="-119.5" font-family="Helvetica,sans-Serif" font-size="10.00">vector</text>
</g>
<!-- Node3&#45;&gt;Node5 -->
<g id="edge4" class="edge"><title>Node3&#45;&gt;Node5</title>
<path fill="none" stroke="midnightblue" d="M268.123,-168.083C275.331,-160.298 285.976,-148.801 294.712,-139.367"/>
<polygon fill="midnightblue" stroke="midnightblue" points="297.538,-141.467 301.764,-131.751 292.401,-136.711 297.538,-141.467"/>
</g>
<!-- Node6 -->
<g id="node6" class="node"><title>Node6</title>
<polygon fill="white" stroke="#bfbfbf" points="451.867,-112.5 451.867,-131.5 503.867,-131.5 503.867,-112.5 451.867,-112.5"/>
<text text-anchor="middle" x="477.867" y="-119.5" font-family="Helvetica,sans-Serif" font-size="10.00">memory</text>
</g>
<!-- Node3&#45;&gt;Node6 -->
<g id="edge5" class="edge"><title>Node3&#45;&gt;Node6</title>
<path fill="none" stroke="midnightblue" d="M294.976,-168.483C329.82,-160.005 385.012,-146.507 441.659,-132.286"/>
<polygon fill="midnightblue" stroke="midnightblue" points="442.656,-135.644 451.501,-129.812 440.949,-128.856 442.656,-135.644"/>
</g>
<!-- Node7 -->
<g id="node7" class="node"><title>Node7</title>
<polygon fill="white" stroke="#bfbfbf" points="623.367,-112.5 623.367,-131.5 664.367,-131.5 664.367,-112.5 623.367,-112.5"/>
<text text-anchor="middle" x="643.867" y="-119.5" font-family="Helvetica,sans-Serif" font-size="10.00">string</text>
</g>
<!-- Node3&#45;&gt;Node7 -->
<g id="edge6" class="edge"><title>Node3&#45;&gt;Node7</title>
<path fill="none" stroke="midnightblue" d="M300.15,-170.691C306.411,-169.757 312.81,-168.831 318.867,-168 446.529,-150.478 482.828,-158.65 613.349,-131.75"/>
<polygon fill="midnightblue" stroke="midnightblue" points="614.256,-135.136 623.328,-129.663 612.824,-128.284 614.256,-135.136"/>
</g>
<!-- Node8 -->
<g id="node8" class="node"><title>Node8</title>
<g id="a_node8"><a xlink:href="Component_8h.html" target="_top" xlink:title="Component.h">
<polygon fill="white" stroke="black" points="54.3666,-112.5 54.3666,-131.5 129.367,-131.5 129.367,-112.5 54.3666,-112.5"/>
<text text-anchor="middle" x="91.8666" y="-119.5" font-family="Helvetica,sans-Serif" font-size="10.00">Component.h</text>
</a>
</g>
</g>
<!-- Node3&#45;&gt;Node8 -->
<g id="edge7" class="edge"><title>Node3&#45;&gt;Node8</title>
<path fill="none" stroke="midnightblue" d="M228.158,-168.444C197.902,-159.359 152.839,-144.939 122.836,-134.783"/>
<polygon fill="midnightblue" stroke="midnightblue" points="123.877,-131.44 113.282,-131.516 121.612,-138.064 123.877,-131.44"/>
</g>
<!-- Node9 -->
<g id="node9" class="node"><title>Node9</title>
<g id="a_node9"><a xlink:href="Rect_8h.html" target="_top" xlink:title="Rect.h">
<polygon fill="white" stroke="black" points="185.867,-112.5 185.867,-131.5 231.867,-131.5 231.867,-112.5 185.867,-112.5"/>
<text text-anchor="middle" x="208.867" y="-119.5" font-family="Helvetica,sans-Serif" font-size="10.00">Rect.h</text>
</a>
</g>
</g>
<!-- Node3&#45;&gt;Node9 -->
<g id="edge9" class="edge"><title>Node3&#45;&gt;Node9</title>
<path fill="none" stroke="midnightblue" d="M251.445,-168.083C244.018,-160.22 233.015,-148.569 224.054,-139.081"/>
<polygon fill="midnightblue" stroke="midnightblue" points="226.542,-136.618 217.131,-131.751 221.453,-141.424 226.542,-136.618"/>
</g>
<!-- Node8&#45;&gt;Node3 -->
<g id="edge8" class="edge"><title>Node8&#45;&gt;Node3</title>
<path fill="none" stroke="midnightblue" d="M123.442,-131.516C153.654,-140.585 198.717,-155.004 228.764,-165.172"/>
<polygon fill="midnightblue" stroke="midnightblue" points="227.741,-168.521 238.335,-168.444 230.005,-161.897 227.741,-168.521"/>
</g>
<!-- Node9&#45;&gt;Node4 -->
<g id="edge10" class="edge"><title>Node9&#45;&gt;Node4</title>
<path fill="none" stroke="midnightblue" d="M199.501,-112.461C186.432,-99.4967 165.724,-74.4106 178.867,-56 197.176,-30.3507 231.069,-19.1693 259.792,-14.3648"/>
<polygon fill="midnightblue" stroke="midnightblue" points="260.313,-17.8259 269.702,-12.918 259.302,-10.8994 260.313,-17.8259"/>
</g>
<!-- Node9&#45;&gt;Node10 -->
<g id="edge11" class="edge"><title>Node9&#45;&gt;Node10</title>
<path fill="none" stroke="midnightblue" d="M192.639,-112.324C176.516,-103.703 151.566,-90.3643 132.902,-80.3855"/>
<polygon fill="midnightblue" stroke="midnightblue" points="134.523,-77.283 124.054,-75.6545 131.222,-83.456 134.523,-77.283"/>
</g>
<!-- Node11 -->
<g id="node11" class="node"><title>Node11</title>
<polygon fill="white" stroke="#bfbfbf" points="187.867,-56.5 187.867,-75.5 231.867,-75.5 231.867,-56.5 187.867,-56.5"/>
<text text-anchor="middle" x="209.867" y="-63.5" font-family="Helvetica,sans-Serif" font-size="10.00">cmath</text>
</g>
<!-- Node9&#45;&gt;Node11 -->
<g id="edge13" class="edge"><title>Node9&#45;&gt;Node11</title>
<path fill="none" stroke="midnightblue" d="M209.032,-112.083C209.163,-105.006 209.351,-94.8611 209.515,-85.9865"/>
<polygon fill="midnightblue" stroke="midnightblue" points="213.019,-85.8142 209.704,-75.7511 206.02,-85.6845 213.019,-85.8142"/>
</g>
<!-- Node10&#45;&gt;Node4 -->
<g id="edge12" class="edge"><title>Node10&#45;&gt;Node4</title>
<path fill="none" stroke="midnightblue" d="M131.434,-58.6998C164.893,-49.7554 226.685,-33.2367 268.036,-22.1823"/>
<polygon fill="midnightblue" stroke="midnightblue" points="269.064,-25.5306 277.821,-19.5667 267.256,-18.7681 269.064,-25.5306"/>
</g>
<!-- Node12&#45;&gt;Node13 -->
<g id="edge16" class="edge"><title>Node12&#45;&gt;Node13</title>
<path fill="none" stroke="midnightblue" d="M141.807,-224.444C189.52,-214.936 266.562,-199.585 317.706,-189.394"/>
<polygon fill="midnightblue" stroke="midnightblue" points="318.45,-192.814 327.573,-187.428 317.082,-185.949 318.45,-192.814"/>
</g>
<!-- Node13&#45;&gt;Node4 -->
<g id="edge17" class="edge"><title>Node13&#45;&gt;Node4</title>
<path fill="none" stroke="midnightblue" d="M366.641,-168.075C357.155,-141.832 329.22,-64.5453 316.415,-29.1165"/>
<polygon fill="midnightblue" stroke="midnightblue" points="319.654,-27.7829 312.963,-19.5681 313.071,-30.1624 319.654,-27.7829"/>
</g>
<!-- Node13&#45;&gt;Node10 -->
<g id="edge18" class="edge"><title>Node13&#45;&gt;Node10</title>
<path fill="none" stroke="midnightblue" d="M327.454,-169.78C278.84,-161.041 202.563,-145.782 176.867,-132 154.317,-119.905 133.705,-98.5245 120.996,-83.5994"/>
<polygon fill="midnightblue" stroke="midnightblue" points="123.53,-81.1709 114.472,-75.6766 118.127,-85.6209 123.53,-81.1709"/>
</g>
<!-- Node14 -->
<g id="node14" class="node"><title>Node14</title>
<polygon fill="white" stroke="#bfbfbf" points="522.367,-112.5 522.367,-131.5 605.367,-131.5 605.367,-112.5 522.367,-112.5"/>
<text text-anchor="middle" x="563.867" y="-119.5" font-family="Helvetica,sans-Serif" font-size="10.00">unordered_map</text>
</g>
<!-- Node13&#45;&gt;Node14 -->
<g id="edge19" class="edge"><title>Node13&#45;&gt;Node14</title>
<path fill="none" stroke="midnightblue" d="M400.606,-168.444C433.811,-159.201 486.857,-144.436 523.424,-134.257"/>
<polygon fill="midnightblue" stroke="midnightblue" points="524.575,-137.57 533.27,-131.516 522.698,-130.826 524.575,-137.57"/>
</g>
<!-- Node15 -->
<g id="node15" class="node"><title>Node15</title>
<polygon fill="white" stroke="#bfbfbf" points="387.867,-112.5 387.867,-131.5 433.867,-131.5 433.867,-112.5 387.867,-112.5"/>
<text text-anchor="middle" x="410.867" y="-119.5" font-family="Helvetica,sans-Serif" font-size="10.00">cstdint</text>
</g>
<!-- Node13&#45;&gt;Node15 -->
<g id="edge20" class="edge"><title>Node13&#45;&gt;Node15</title>
<path fill="none" stroke="midnightblue" d="M376.637,-168.083C382.428,-160.455 390.925,-149.264 398.004,-139.941"/>
<polygon fill="midnightblue" stroke="midnightblue" points="400.963,-141.832 404.222,-131.751 395.388,-137.599 400.963,-141.832"/>
</g>
<!-- Node17 -->
<g id="node17" class="node"><title>Node17</title>
<polygon fill="white" stroke="#bfbfbf" points="818.867,-224.5 818.867,-243.5 872.867,-243.5 872.867,-224.5 818.867,-224.5"/>
<text text-anchor="middle" x="845.867" y="-231.5" font-family="Helvetica,sans-Serif" font-size="10.00">iostream</text>
</g>
<!-- Node16&#45;&gt;Node17 -->
<g id="edge22" class="edge"><title>Node16&#45;&gt;Node17</title>
<path fill="none" stroke="midnightblue" d="M845.867,-280.083C845.867,-273.006 845.867,-262.861 845.867,-253.986"/>
<polygon fill="midnightblue" stroke="midnightblue" points="849.367,-253.751 845.867,-243.751 842.367,-253.751 849.367,-253.751"/>
</g>
<!-- Node18 -->
<g id="node18" class="node"><title>Node18</title>
<polygon fill="white" stroke="#bfbfbf" points="890.867,-224.5 890.867,-243.5 938.867,-243.5 938.867,-224.5 890.867,-224.5"/>
<text text-anchor="middle" x="914.867" y="-231.5" font-family="Helvetica,sans-Serif" font-size="10.00">stdlib.h</text>
</g>
<!-- Node16&#45;&gt;Node18 -->
<g id="edge23" class="edge"><title>Node16&#45;&gt;Node18</title>
<path fill="none" stroke="midnightblue" d="M856.953,-280.324C867.353,-272.185 883.127,-259.839 895.588,-250.087"/>
<polygon fill="midnightblue" stroke="midnightblue" points="897.861,-252.753 903.579,-243.834 893.547,-247.241 897.861,-252.753"/>
</g>
<!-- Node19&#45;&gt;Node4 -->
<g id="edge39" class="edge"><title>Node19&#45;&gt;Node4</title>
<path fill="none" stroke="midnightblue" d="M485.851,-284.229C553.68,-271.039 730.867,-231.554 730.867,-179 730.867,-179 730.867,-179 730.867,-121 730.867,-45.179 472.021,-20.6308 360.259,-13.5653"/>
<polygon fill="midnightblue" stroke="midnightblue" points="360.428,-10.0693 350.234,-12.9537 360.002,-17.0563 360.428,-10.0693"/>
</g>
<!-- Node19&#45;&gt;Node7 -->
<g id="edge25" class="edge"><title>Node19&#45;&gt;Node7</title>
<path fill="none" stroke="midnightblue" d="M477.969,-280.396C508.249,-265.272 569.699,-231.371 608.867,-188 621.325,-174.205 630.901,-155.178 636.861,-141.275"/>
<polygon fill="midnightblue" stroke="midnightblue" points="640.184,-142.396 640.703,-131.814 633.698,-139.763 640.184,-142.396"/>
</g>
<!-- Node19&#45;&gt;Node10 -->
<g id="edge38" class="edge"><title>Node19&#45;&gt;Node10</title>
<path fill="none" stroke="midnightblue" d="M434.201,-288.538C358.745,-285.622 137.144,-265.57 44.8666,-132 31.1274,-112.113 56.6392,-92.659 79.1965,-80.2967"/>
<polygon fill="midnightblue" stroke="midnightblue" points="80.974,-83.3177 88.2415,-75.6082 77.7526,-77.1029 80.974,-83.3177"/>
</g>
<!-- Node19&#45;&gt;Node13 -->
<g id="edge37" class="edge"><title>Node19&#45;&gt;Node13</title>
<path fill="none" stroke="midnightblue" d="M452.804,-280.368C437.82,-262.055 402.634,-219.049 383.254,-195.362"/>
<polygon fill="midnightblue" stroke="midnightblue" points="385.937,-193.115 376.896,-187.591 380.519,-197.547 385.937,-193.115"/>
</g>
<!-- Node20 -->
<g id="node20" class="node"><title>Node20</title>
<polygon fill="white" stroke="#bfbfbf" points="759.367,-224.5 759.367,-243.5 800.367,-243.5 800.367,-224.5 759.367,-224.5"/>
<text text-anchor="middle" x="779.867" y="-231.5" font-family="Helvetica,sans-Serif" font-size="10.00">stack</text>
</g>
<!-- Node19&#45;&gt;Node20 -->
<g id="edge26" class="edge"><title>Node19&#45;&gt;Node20</title>
<path fill="none" stroke="midnightblue" d="M485.562,-285.777C535.694,-279.304 649.951,-263.65 744.867,-244 746.326,-243.698 747.815,-243.374 749.317,-243.036"/>
<polygon fill="midnightblue" stroke="midnightblue" points="750.309,-246.397 759.214,-240.658 748.673,-239.591 750.309,-246.397"/>
</g>
<!-- Node21 -->
<g id="node21" class="node"><title>Node21</title>
<g id="a_node21"><a xlink:href="State_8h.html" target="_top" xlink:title="State.h">
<polygon fill="white" stroke="black" points="435.867,-224.5 435.867,-243.5 483.867,-243.5 483.867,-224.5 435.867,-224.5"/>
<text text-anchor="middle" x="459.867" y="-231.5" font-family="Helvetica,sans-Serif" font-size="10.00">State.h</text>
</a>
</g>
</g>
<!-- Node19&#45;&gt;Node21 -->
<g id="edge27" class="edge"><title>Node19&#45;&gt;Node21</title>
<path fill="none" stroke="midnightblue" d="M459.867,-280.083C459.867,-273.006 459.867,-262.861 459.867,-253.986"/>
<polygon fill="midnightblue" stroke="midnightblue" points="463.367,-253.751 459.867,-243.751 456.367,-253.751 463.367,-253.751"/>
</g>
<!-- Node21&#45;&gt;Node3 -->
<g id="edge36" class="edge"><title>Node21&#45;&gt;Node3</title>
<path fill="none" stroke="midnightblue" d="M435.742,-226.486C402.507,-217.513 342.147,-201.216 301.531,-190.249"/>
<polygon fill="midnightblue" stroke="midnightblue" points="302.225,-186.811 291.658,-187.584 300.4,-193.569 302.225,-186.811"/>
</g>
<!-- Node21&#45;&gt;Node5 -->
<g id="edge28" class="edge"><title>Node21&#45;&gt;Node5</title>
<path fill="none" stroke="midnightblue" d="M456.713,-224.203C451.363,-210.434 439.265,-183.743 420.867,-168 398.157,-148.569 365.959,-136.772 342.084,-130.162"/>
<polygon fill="midnightblue" stroke="midnightblue" points="342.649,-126.692 332.09,-127.56 340.886,-133.466 342.649,-126.692"/>
</g>
<!-- Node21&#45;&gt;Node6 -->
<g id="edge29" class="edge"><title>Node21&#45;&gt;Node6</title>
<path fill="none" stroke="midnightblue" d="M461.279,-224.368C464.184,-206.617 470.885,-165.666 474.823,-141.597"/>
<polygon fill="midnightblue" stroke="midnightblue" points="478.3,-142.025 476.461,-131.591 471.392,-140.895 478.3,-142.025"/>
</g>
<!-- Node21&#45;&gt;Node13 -->
<g id="edge30" class="edge"><title>Node21&#45;&gt;Node13</title>
<path fill="none" stroke="midnightblue" d="M445.406,-224.324C431.367,-215.9 409.818,-202.971 393.323,-193.074"/>
<polygon fill="midnightblue" stroke="midnightblue" points="394.666,-189.798 384.291,-187.655 391.065,-195.801 394.666,-189.798"/>
</g>
<!-- Node22 -->
<g id="node22" class="node"><title>Node22</title>
<g id="a_node22"><a xlink:href="Resources_8h.html" target="_top" xlink:title="Resources.h">
<polygon fill="white" stroke="black" points="527.867,-168.5 527.867,-187.5 599.867,-187.5 599.867,-168.5 527.867,-168.5"/>
<text text-anchor="middle" x="563.867" y="-175.5" font-family="Helvetica,sans-Serif" font-size="10.00">Resources.h</text>
</a>
</g>
</g>
<!-- Node21&#45;&gt;Node22 -->
<g id="edge31" class="edge"><title>Node21&#45;&gt;Node22</title>
<path fill="none" stroke="midnightblue" d="M476.576,-224.324C493.178,-215.703 518.869,-202.364 538.087,-192.386"/>
<polygon fill="midnightblue" stroke="midnightblue" points="539.937,-195.369 547.199,-187.655 536.711,-189.156 539.937,-195.369"/>
</g>
<!-- Node22&#45;&gt;Node4 -->
<g id="edge32" class="edge"><title>Node22&#45;&gt;Node4</title>
<path fill="none" stroke="midnightblue" d="M600.177,-170.019C640.024,-160.702 695.526,-141.825 672.867,-112 634.953,-62.0966 450.426,-30.3133 360.006,-17.4826"/>
<polygon fill="midnightblue" stroke="midnightblue" points="360.372,-14 349.985,-16.0837 359.405,-20.9328 360.372,-14"/>
</g>
<!-- Node22&#45;&gt;Node6 -->
<g id="edge35" class="edge"><title>Node22&#45;&gt;Node6</title>
<path fill="none" stroke="midnightblue" d="M550.049,-168.324C536.634,-159.9 516.042,-146.971 500.281,-137.074"/>
<polygon fill="midnightblue" stroke="midnightblue" points="501.98,-134.008 491.65,-131.655 498.257,-139.936 501.98,-134.008"/>
</g>
<!-- Node22&#45;&gt;Node7 -->
<g id="edge33" class="edge"><title>Node22&#45;&gt;Node7</title>
<path fill="none" stroke="midnightblue" d="M576.72,-168.324C589.083,-159.979 607.997,-147.212 622.604,-137.352"/>
<polygon fill="midnightblue" stroke="midnightblue" points="624.715,-140.15 631.045,-131.655 620.798,-134.348 624.715,-140.15"/>
</g>
<!-- Node22&#45;&gt;Node14 -->
<g id="edge34" class="edge"><title>Node22&#45;&gt;Node14</title>
<path fill="none" stroke="midnightblue" d="M563.867,-168.083C563.867,-161.006 563.867,-150.861 563.867,-141.986"/>
<polygon fill="midnightblue" stroke="midnightblue" points="567.367,-141.751 563.867,-131.751 560.367,-141.751 567.367,-141.751"/>
</g>
</g>
</svg>
