<?xml version="1.0" encoding="UTF-8" standalone="no"?>
<!DOCTYPE svg PUBLIC "-//W3C//DTD SVG 1.1//EN"
 "http://www.w3.org/Graphics/SVG/1.1/DTD/svg11.dtd">
<!-- Generated by graphviz version 2.38.0 (20140413.2041)
 -->
<!-- Title: Engine/include/Camera.h Pages: 1 -->
<svg width="546pt" height="196pt"
 viewBox="0.00 0.00 546.00 196.00" xmlns="http://www.w3.org/2000/svg" xmlns:xlink="http://www.w3.org/1999/xlink">
<g id="graph0" class="graph" transform="scale(1 1) rotate(0) translate(4 192)">
<title>Engine/include/Camera.h</title>
<polygon fill="white" stroke="none" points="-4,4 -4,-192 542,-192 542,4 -4,4"/>
<!-- Node0 -->
<g id="node1" class="node"><title>Node0</title>
<polygon fill="#bfbfbf" stroke="black" points="296,-168.5 296,-187.5 422,-187.5 422,-168.5 296,-168.5"/>
<text text-anchor="middle" x="359" y="-175.5" font-family="Helvetica,sans-Serif" font-size="10.00">Engine/include/Camera.h</text>
</g>
<!-- Node1 -->
<g id="node2" class="node"><title>Node1</title>
<g id="a_node2"><a xlink:href="GameObject_8h.html" target="_top" xlink:title="GameObject.h">
<polygon fill="white" stroke="black" points="177,-112.5 177,-131.5 257,-131.5 257,-112.5 177,-112.5"/>
<text text-anchor="middle" x="217" y="-119.5" font-family="Helvetica,sans-Serif" font-size="10.00">GameObject.h</text>
</a>
</g>
</g>
<!-- Node0&#45;&gt;Node1 -->
<g id="edge1" class="edge"><title>Node0&#45;&gt;Node1</title>
<path fill="none" stroke="midnightblue" d="M336.5,-168.444C312.923,-159.478 275.678,-145.314 249.036,-135.183"/>
<polygon fill="midnightblue" stroke="midnightblue" points="249.986,-131.8 239.395,-131.516 247.498,-138.342 249.986,-131.8"/>
</g>
<!-- Node5 -->
<g id="node6" class="node"><title>Node5</title>
<g id="a_node6"><a xlink:href="Vec2_8h.html" target="_top" xlink:title="Vec2.h">
<polygon fill="white" stroke="black" points="325.5,-0.5 325.5,-19.5 372.5,-19.5 372.5,-0.5 325.5,-0.5"/>
<text text-anchor="middle" x="349" y="-7.5" font-family="Helvetica,sans-Serif" font-size="10.00">Vec2.h</text>
</a>
</g>
</g>
<!-- Node0&#45;&gt;Node5 -->
<g id="edge10" class="edge"><title>Node0&#45;&gt;Node5</title>
<path fill="none" stroke="midnightblue" d="M358.462,-168.075C356.888,-141.945 352.266,-65.2106 350.119,-29.577"/>
<polygon fill="midnightblue" stroke="midnightblue" points="353.611,-29.3395 349.516,-19.5681 346.624,-29.7605 353.611,-29.3395"/>
</g>
<!-- Node9 -->
<g id="node10" class="node"><title>Node9</title>
<g id="a_node10"><a xlink:href="ActionManager_8h.html" target="_top" xlink:title="ActionManager.h">
<polygon fill="white" stroke="black" points="387,-112.5 387,-131.5 477,-131.5 477,-112.5 387,-112.5"/>
<text text-anchor="middle" x="432" y="-119.5" font-family="Helvetica,sans-Serif" font-size="10.00">ActionManager.h</text>
</a>
</g>
</g>
<!-- Node0&#45;&gt;Node9 -->
<g id="edge11" class="edge"><title>Node0&#45;&gt;Node9</title>
<path fill="none" stroke="midnightblue" d="M370.729,-168.324C381.837,-160.107 398.742,-147.602 411.983,-137.807"/>
<polygon fill="midnightblue" stroke="midnightblue" points="414.1,-140.595 420.058,-131.834 409.937,-134.967 414.1,-140.595"/>
</g>
<!-- Node2 -->
<g id="node3" class="node"><title>Node2</title>
<polygon fill="white" stroke="#bfbfbf" points="0,-56.5 0,-75.5 44,-75.5 44,-56.5 0,-56.5"/>
<text text-anchor="middle" x="22" y="-63.5" font-family="Helvetica,sans-Serif" font-size="10.00">vector</text>
</g>
<!-- Node1&#45;&gt;Node2 -->
<g id="edge2" class="edge"><title>Node1&#45;&gt;Node2</title>
<path fill="none" stroke="midnightblue" d="M185.215,-112.428C154.085,-103.999 105.06,-90.6384 53.6311,-76.1493"/>
<polygon fill="midnightblue" stroke="midnightblue" points="54.5787,-72.7801 44.004,-73.4317 52.677,-79.5168 54.5787,-72.7801"/>
</g>
<!-- Node3 -->
<g id="node4" class="node"><title>Node3</title>
<polygon fill="white" stroke="#bfbfbf" points="62,-56.5 62,-75.5 114,-75.5 114,-56.5 62,-56.5"/>
<text text-anchor="middle" x="88" y="-63.5" font-family="Helvetica,sans-Serif" font-size="10.00">memory</text>
</g>
<!-- Node1&#45;&gt;Node3 -->
<g id="edge3" class="edge"><title>Node1&#45;&gt;Node3</title>
<path fill="none" stroke="midnightblue" d="M196.56,-112.444C175.33,-103.557 141.901,-89.5632 117.745,-79.4514"/>
<polygon fill="midnightblue" stroke="midnightblue" points="118.921,-76.1493 108.345,-75.5164 116.218,-82.6064 118.921,-76.1493"/>
</g>
<!-- Node4 -->
<g id="node5" class="node"><title>Node4</title>
<g id="a_node5"><a xlink:href="Rect_8h.html" target="_top" xlink:title="Rect.h">
<polygon fill="white" stroke="black" points="132,-56.5 132,-75.5 178,-75.5 178,-56.5 132,-56.5"/>
<text text-anchor="middle" x="155" y="-63.5" font-family="Helvetica,sans-Serif" font-size="10.00">Rect.h</text>
</a>
</g>
</g>
<!-- Node1&#45;&gt;Node4 -->
<g id="edge4" class="edge"><title>Node1&#45;&gt;Node4</title>
<path fill="none" stroke="midnightblue" d="M207.039,-112.324C197.873,-104.341 184.063,-92.3128 172.972,-82.6529"/>
<polygon fill="midnightblue" stroke="midnightblue" points="174.982,-79.7624 165.143,-75.8339 170.385,-85.041 174.982,-79.7624"/>
</g>
<!-- Node7 -->
<g id="node8" class="node"><title>Node7</title>
<polygon fill="white" stroke="#bfbfbf" points="196.5,-56.5 196.5,-75.5 237.5,-75.5 237.5,-56.5 196.5,-56.5"/>
<text text-anchor="middle" x="217" y="-63.5" font-family="Helvetica,sans-Serif" font-size="10.00">string</text>
</g>
<!-- Node1&#45;&gt;Node7 -->
<g id="edge7" class="edge"><title>Node1&#45;&gt;Node7</title>
<path fill="none" stroke="midnightblue" d="M217,-112.083C217,-105.006 217,-94.8611 217,-85.9865"/>
<polygon fill="midnightblue" stroke="midnightblue" points="220.5,-85.751 217,-75.7511 213.5,-85.7511 220.5,-85.751"/>
</g>
<!-- Node8 -->
<g id="node9" class="node"><title>Node8</title>
<g id="a_node9"><a xlink:href="Component_8h.html" target="_top" xlink:title="Component.h">
<polygon fill="white" stroke="black" points="255.5,-56.5 255.5,-75.5 330.5,-75.5 330.5,-56.5 255.5,-56.5"/>
<text text-anchor="middle" x="293" y="-63.5" font-family="Helvetica,sans-Serif" font-size="10.00">Component.h</text>
</a>
</g>
</g>
<!-- Node1&#45;&gt;Node8 -->
<g id="edge8" class="edge"><title>Node1&#45;&gt;Node8</title>
<path fill="none" stroke="midnightblue" d="M224.096,-112.324C234.128,-103.9 252.026,-90.9709 267.183,-81.0741"/>
<polygon fill="midnightblue" stroke="midnightblue" points="269.147,-83.9726 275.709,-75.6545 265.392,-78.0649 269.147,-83.9726"/>
</g>
<!-- Node4&#45;&gt;Node5 -->
<g id="edge5" class="edge"><title>Node4&#45;&gt;Node5</title>
<path fill="none" stroke="midnightblue" d="M178.07,-58.5021C181.073,-57.6588 184.11,-56.8078 187,-56 231.392,-43.5918 282.658,-29.3693 315.427,-20.292"/>
<polygon fill="midnightblue" stroke="midnightblue" points="316.681,-23.5765 325.384,-17.5344 314.813,-16.8304 316.681,-23.5765"/>
</g>
<!-- Node6 -->
<g id="node7" class="node"><title>Node6</title>
<polygon fill="white" stroke="#bfbfbf" points="133,-0.5 133,-19.5 177,-19.5 177,-0.5 133,-0.5"/>
<text text-anchor="middle" x="155" y="-7.5" font-family="Helvetica,sans-Serif" font-size="10.00">cmath</text>
</g>
<!-- Node4&#45;&gt;Node6 -->
<g id="edge6" class="edge"><title>Node4&#45;&gt;Node6</title>
<path fill="none" stroke="midnightblue" d="M155,-56.083C155,-49.0059 155,-38.8611 155,-29.9865"/>
<polygon fill="midnightblue" stroke="midnightblue" points="158.5,-29.751 155,-19.7511 151.5,-29.7511 158.5,-29.751"/>
</g>
<!-- Node8&#45;&gt;Node1 -->
<g id="edge9" class="edge"><title>Node8&#45;&gt;Node1</title>
<path fill="none" stroke="midnightblue" d="M285.716,-75.8339C275.646,-84.2633 257.868,-97.0987 242.803,-106.935"/>
<polygon fill="midnightblue" stroke="midnightblue" points="240.887,-104.006 234.326,-112.324 244.642,-109.913 240.887,-104.006"/>
</g>
<!-- Node10 -->
<g id="node11" class="node"><title>Node10</title>
<g id="a_node11"><a xlink:href="InputManager_8h.html" target="_top" xlink:title="InputManager.h">
<polygon fill="white" stroke="black" points="390,-56.5 390,-75.5 474,-75.5 474,-56.5 390,-56.5"/>
<text text-anchor="middle" x="432" y="-63.5" font-family="Helvetica,sans-Serif" font-size="10.00">InputManager.h</text>
</a>
</g>
</g>
<!-- Node9&#45;&gt;Node10 -->
<g id="edge12" class="edge"><title>Node9&#45;&gt;Node10</title>
<path fill="none" stroke="midnightblue" d="M432,-112.083C432,-105.006 432,-94.8611 432,-85.9865"/>
<polygon fill="midnightblue" stroke="midnightblue" points="435.5,-85.751 432,-75.7511 428.5,-85.7511 435.5,-85.751"/>
</g>
<!-- Node10&#45;&gt;Node5 -->
<g id="edge13" class="edge"><title>Node10&#45;&gt;Node5</title>
<path fill="none" stroke="midnightblue" d="M418.665,-56.324C405.838,-47.979 386.215,-35.2122 371.06,-25.3524"/>
<polygon fill="midnightblue" stroke="midnightblue" points="372.593,-22.1742 362.302,-19.6545 368.776,-28.0417 372.593,-22.1742"/>
</g>
<!-- Node11 -->
<g id="node12" class="node"><title>Node11</title>
<polygon fill="white" stroke="#bfbfbf" points="390.5,-0.5 390.5,-19.5 473.5,-19.5 473.5,-0.5 390.5,-0.5"/>
<text text-anchor="middle" x="432" y="-7.5" font-family="Helvetica,sans-Serif" font-size="10.00">unordered_map</text>
</g>
<!-- Node10&#45;&gt;Node11 -->
<g id="edge14" class="edge"><title>Node10&#45;&gt;Node11</title>
<path fill="none" stroke="midnightblue" d="M432,-56.083C432,-49.0059 432,-38.8611 432,-29.9865"/>
<polygon fill="midnightblue" stroke="midnightblue" points="435.5,-29.751 432,-19.7511 428.5,-29.7511 435.5,-29.751"/>
</g>
<!-- Node12 -->
<g id="node13" class="node"><title>Node12</title>
<polygon fill="white" stroke="#bfbfbf" points="492,-0.5 492,-19.5 538,-19.5 538,-0.5 492,-0.5"/>
<text text-anchor="middle" x="515" y="-7.5" font-family="Helvetica,sans-Serif" font-size="10.00">cstdint</text>
</g>
<!-- Node10&#45;&gt;Node12 -->
<g id="edge15" class="edge"><title>Node10&#45;&gt;Node12</title>
<path fill="none" stroke="midnightblue" d="M445.335,-56.324C458.162,-47.979 477.785,-35.2122 492.94,-25.3524"/>
<polygon fill="midnightblue" stroke="midnightblue" points="495.224,-28.0417 501.698,-19.6545 491.407,-22.1742 495.224,-28.0417"/>
</g>
</g>
</svg>
