<?xml version="1.0" encoding="UTF-8" standalone="no"?>
<!DOCTYPE svg PUBLIC "-//W3C//DTD SVG 1.1//EN"
 "http://www.w3.org/Graphics/SVG/1.1/DTD/svg11.dtd">
<!-- Generated by graphviz version 2.38.0 (20140413.2041)
 -->
<!-- Title: Engine/include/Camera.h Pages: 1 -->
<svg width="1196pt" height="84pt"
 viewBox="0.00 0.00 1196.00 84.00" xmlns="http://www.w3.org/2000/svg" xmlns:xlink="http://www.w3.org/1999/xlink">
<g id="graph0" class="graph" transform="scale(1 1) rotate(0) translate(4 80)">
<title>Engine/include/Camera.h</title>
<polygon fill="white" stroke="none" points="-4,4 -4,-80 1192,-80 1192,4 -4,4"/>
<!-- Node10 -->
<g id="node1" class="node"><title>Node10</title>
<polygon fill="#bfbfbf" stroke="black" points="533,-56.5 533,-75.5 659,-75.5 659,-56.5 533,-56.5"/>
<text text-anchor="middle" x="596" y="-63.5" font-family="Helvetica,sans-Serif" font-size="10.00">Engine/include/Camera.h</text>
</g>
<!-- Node11 -->
<g id="node2" class="node"><title>Node11</title>
<g id="a_node2"><a xlink:href="Animation_8cpp.html" target="_top" xlink:title="Engine/src/Animation.cpp">
<polygon fill="white" stroke="black" points="0,-0.5 0,-19.5 128,-19.5 128,-0.5 0,-0.5"/>
<text text-anchor="middle" x="64" y="-7.5" font-family="Helvetica,sans-Serif" font-size="10.00">Engine/src/Animation.cpp</text>
</a>
</g>
</g>
<!-- Node10&#45;&gt;Node11 -->
<g id="edge1" class="edge"><title>Node10&#45;&gt;Node11</title>
<path fill="none" stroke="midnightblue" d="M522.667,-58.3788C432.007,-50.0621 273.019,-35.05 137,-20 134.081,-19.677 131.097,-19.3394 128.084,-18.9924"/>
<polygon fill="midnightblue" stroke="midnightblue" points="522.562,-61.8837 532.839,-59.3101 523.2,-54.9129 522.562,-61.8837"/>
</g>
<!-- Node12 -->
<g id="node3" class="node"><title>Node12</title>
<g id="a_node3"><a xlink:href="Camera_8cpp.html" target="_top" xlink:title="Engine/src/Camera.cpp">
<polygon fill="white" stroke="black" points="146.5,-0.5 146.5,-19.5 265.5,-19.5 265.5,-0.5 146.5,-0.5"/>
<text text-anchor="middle" x="206" y="-7.5" font-family="Helvetica,sans-Serif" font-size="10.00">Engine/src/Camera.cpp</text>
</a>
</g>
</g>
<!-- Node10&#45;&gt;Node12 -->
<g id="edge2" class="edge"><title>Node10&#45;&gt;Node12</title>
<path fill="none" stroke="midnightblue" d="M523.99,-55.0294C449.648,-44.7359 335.008,-28.8626 265.589,-19.2508"/>
<polygon fill="midnightblue" stroke="midnightblue" points="523.818,-58.5389 534.203,-56.4435 524.778,-51.605 523.818,-58.5389"/>
</g>
<!-- Node13 -->
<g id="node4" class="node"><title>Node13</title>
<g id="a_node4"><a xlink:href="Sprite_8cpp.html" target="_top" xlink:title="Engine/src/Sprite.cpp">
<polygon fill="white" stroke="black" points="284,-0.5 284,-19.5 394,-19.5 394,-0.5 284,-0.5"/>
<text text-anchor="middle" x="339" y="-7.5" font-family="Helvetica,sans-Serif" font-size="10.00">Engine/src/Sprite.cpp</text>
</a>
</g>
</g>
<!-- Node10&#45;&gt;Node13 -->
<g id="edge3" class="edge"><title>Node10&#45;&gt;Node13</title>
<path fill="none" stroke="midnightblue" d="M545.293,-54.3456C496.724,-44.1405 424.381,-28.94 379.532,-19.5164"/>
<polygon fill="midnightblue" stroke="midnightblue" points="544.772,-57.8124 555.278,-56.4435 546.211,-50.962 544.772,-57.8124"/>
</g>
<!-- Node14 -->
<g id="node5" class="node"><title>Node14</title>
<g id="a_node5"><a xlink:href="Tileset_8cpp.html" target="_top" xlink:title="Engine/src/Tileset.cpp">
<polygon fill="white" stroke="black" points="412,-0.5 412,-19.5 526,-19.5 526,-0.5 412,-0.5"/>
<text text-anchor="middle" x="469" y="-7.5" font-family="Helvetica,sans-Serif" font-size="10.00">Engine/src/Tileset.cpp</text>
</a>
</g>
</g>
<!-- Node10&#45;&gt;Node14 -->
<g id="edge4" class="edge"><title>Node10&#45;&gt;Node14</title>
<path fill="none" stroke="midnightblue" d="M566.609,-52.503C542.8,-42.3795 509.894,-28.388 489.029,-19.5164"/>
<polygon fill="midnightblue" stroke="midnightblue" points="565.304,-55.7515 575.876,-56.4435 568.043,-49.3096 565.304,-55.7515"/>
</g>
<!-- Node15 -->
<g id="node6" class="node"><title>Node15</title>
<g id="a_node6"><a xlink:href="Alien_8cpp.html" target="_top" xlink:title="Game/src/Alien.cpp">
<polygon fill="white" stroke="black" points="544.5,-0.5 544.5,-19.5 647.5,-19.5 647.5,-0.5 544.5,-0.5"/>
<text text-anchor="middle" x="596" y="-7.5" font-family="Helvetica,sans-Serif" font-size="10.00">Game/src/Alien.cpp</text>
</a>
</g>
</g>
<!-- Node10&#45;&gt;Node15 -->
<g id="edge5" class="edge"><title>Node10&#45;&gt;Node15</title>
<path fill="none" stroke="midnightblue" d="M596,-45.8045C596,-36.9102 596,-26.7798 596,-19.7511"/>
<polygon fill="midnightblue" stroke="midnightblue" points="592.5,-46.083 596,-56.083 599.5,-46.083 592.5,-46.083"/>
</g>
<!-- Node16 -->
<g id="node7" class="node"><title>Node16</title>
<g id="a_node7"><a xlink:href="Bullet_8cpp.html" target="_top" xlink:title="Game/src/Bullet.cpp">
<polygon fill="white" stroke="black" points="666,-0.5 666,-19.5 772,-19.5 772,-0.5 666,-0.5"/>
<text text-anchor="middle" x="719" y="-7.5" font-family="Helvetica,sans-Serif" font-size="10.00">Game/src/Bullet.cpp</text>
</a>
</g>
</g>
<!-- Node10&#45;&gt;Node16 -->
<g id="edge6" class="edge"><title>Node10&#45;&gt;Node16</title>
<path fill="none" stroke="midnightblue" d="M624.773,-52.3678C647.807,-42.2553 679.484,-28.3486 699.601,-19.5164"/>
<polygon fill="midnightblue" stroke="midnightblue" points="623.239,-49.2188 615.49,-56.4435 626.053,-55.6283 623.239,-49.2188"/>
</g>
<!-- Node17 -->
<g id="node8" class="node"><title>Node17</title>
<g id="a_node8"><a xlink:href="Minion_8cpp.html" target="_top" xlink:title="Game/src/Minion.cpp">
<polygon fill="white" stroke="black" points="790,-0.5 790,-19.5 900,-19.5 900,-0.5 790,-0.5"/>
<text text-anchor="middle" x="845" y="-7.5" font-family="Helvetica,sans-Serif" font-size="10.00">Game/src/Minion.cpp</text>
</a>
</g>
</g>
<!-- Node10&#45;&gt;Node17 -->
<g id="edge7" class="edge"><title>Node10&#45;&gt;Node17</title>
<path fill="none" stroke="midnightblue" d="M645.424,-54.2815C692.479,-44.0769 762.367,-28.9203 805.73,-19.5164"/>
<polygon fill="midnightblue" stroke="midnightblue" points="644.486,-50.9036 635.455,-56.4435 645.969,-57.7445 644.486,-50.9036"/>
</g>
<!-- Node18 -->
<g id="node9" class="node"><title>Node18</title>
<g id="a_node9"><a xlink:href="Penguins_8cpp.html" target="_top" xlink:title="Game/src/Penguins.cpp">
<polygon fill="white" stroke="black" points="918,-0.5 918,-19.5 1040,-19.5 1040,-0.5 918,-0.5"/>
<text text-anchor="middle" x="979" y="-7.5" font-family="Helvetica,sans-Serif" font-size="10.00">Game/src/Penguins.cpp</text>
</a>
</g>
</g>
<!-- Node10&#45;&gt;Node18 -->
<g id="edge8" class="edge"><title>Node10&#45;&gt;Node18</title>
<path fill="none" stroke="midnightblue" d="M666.628,-55.0421C738.964,-44.8432 850.221,-29.1569 918.596,-19.5164"/>
<polygon fill="midnightblue" stroke="midnightblue" points="666.101,-51.5816 656.687,-56.4435 667.078,-58.5131 666.101,-51.5816"/>
</g>
<!-- Node19 -->
<g id="node10" class="node"><title>Node19</title>
<g id="a_node10"><a xlink:href="StageState_8cpp.html" target="_top" xlink:title="Game/src/StageState.cpp">
<polygon fill="white" stroke="black" points="1058,-0.5 1058,-19.5 1188,-19.5 1188,-0.5 1058,-0.5"/>
<text text-anchor="middle" x="1123" y="-7.5" font-family="Helvetica,sans-Serif" font-size="10.00">Game/src/StageState.cpp</text>
</a>
</g>
</g>
<!-- Node10&#45;&gt;Node19 -->
<g id="edge9" class="edge"><title>Node10&#45;&gt;Node19</title>
<path fill="none" stroke="midnightblue" d="M669.126,-58.2352C758.72,-49.8318 915.117,-34.7895 1049,-20 1051.83,-19.6874 1054.72,-19.362 1057.64,-19.0284"/>
<polygon fill="midnightblue" stroke="midnightblue" points="668.7,-54.7597 659.07,-59.1769 669.352,-61.7292 668.7,-54.7597"/>
</g>
</g>
</svg>
