<?xml version="1.0" encoding="UTF-8" standalone="no"?>
<!DOCTYPE svg PUBLIC "-//W3C//DTD SVG 1.1//EN"
 "http://www.w3.org/Graphics/SVG/1.1/DTD/svg11.dtd">
<!-- Generated by graphviz version 2.38.0 (20140413.2041)
 -->
<!-- Title: UItextButton Pages: 1 -->
<svg width="133pt" height="140pt"
 viewBox="0.00 0.00 133.00 140.00" xmlns="http://www.w3.org/2000/svg" xmlns:xlink="http://www.w3.org/1999/xlink">
<g id="graph0" class="graph" transform="scale(1 1) rotate(0) translate(4 136)">
<title>UItextButton</title>
<polygon fill="white" stroke="none" points="-4,4 -4,-136 129,-136 129,4 -4,4"/>
<!-- Node0 -->
<g id="node1" class="node"><title>Node0</title>
<polygon fill="#bfbfbf" stroke="black" points="28,-0.5 28,-19.5 100,-19.5 100,-0.5 28,-0.5"/>
<text text-anchor="middle" x="64" y="-7.5" font-family="Helvetica,sans-Serif" font-size="10.00">UItextButton</text>
</g>
<!-- Node1 -->
<g id="node2" class="node"><title>Node1</title>
<g id="a_node2"><a xlink:href="classUItext.html" target="_top" xlink:title="Classe que modela textos. ">
<polygon fill="white" stroke="black" points="9,-56.5 9,-75.5 53,-75.5 53,-56.5 9,-56.5"/>
<text text-anchor="middle" x="31" y="-63.5" font-family="Helvetica,sans-Serif" font-size="10.00">UItext</text>
</a>
</g>
</g>
<!-- Node1&#45;&gt;Node0 -->
<g id="edge1" class="edge"><title>Node1&#45;&gt;Node0</title>
<path fill="none" stroke="midnightblue" d="M41.8321,-47.2747C47.4722,-38.0454 54.1181,-27.1703 58.6521,-19.7511"/>
<polygon fill="midnightblue" stroke="midnightblue" points="38.6773,-45.7251 36.4493,-56.083 44.6503,-49.3753 38.6773,-45.7251"/>
</g>
<!-- Node2 -->
<g id="node3" class="node"><title>Node2</title>
<g id="a_node3"><a xlink:href="classUIelement.html" target="_top" xlink:title="UIelement">
<polygon fill="white" stroke="black" points="0,-112.5 0,-131.5 62,-131.5 62,-112.5 0,-112.5"/>
<text text-anchor="middle" x="31" y="-119.5" font-family="Helvetica,sans-Serif" font-size="10.00">UIelement</text>
</a>
</g>
</g>
<!-- Node2&#45;&gt;Node1 -->
<g id="edge2" class="edge"><title>Node2&#45;&gt;Node1</title>
<path fill="none" stroke="midnightblue" d="M31,-101.805C31,-92.9102 31,-82.7798 31,-75.7511"/>
<polygon fill="midnightblue" stroke="midnightblue" points="27.5001,-102.083 31,-112.083 34.5001,-102.083 27.5001,-102.083"/>
</g>
<!-- Node3 -->
<g id="node4" class="node"><title>Node3</title>
<g id="a_node4"><a xlink:href="classUIbutton.html" target="_top" xlink:title="Classe virtual que modela o comportamento de um botão na interface gráfica. ">
<polygon fill="white" stroke="black" points="71,-56.5 71,-75.5 125,-75.5 125,-56.5 71,-56.5"/>
<text text-anchor="middle" x="98" y="-63.5" font-family="Helvetica,sans-Serif" font-size="10.00">UIbutton</text>
</a>
</g>
</g>
<!-- Node3&#45;&gt;Node0 -->
<g id="edge3" class="edge"><title>Node3&#45;&gt;Node0</title>
<path fill="none" stroke="midnightblue" d="M87.0228,-47.5656C81.173,-38.2747 74.2305,-27.2484 69.5099,-19.7511"/>
<polygon fill="midnightblue" stroke="midnightblue" points="84.0956,-49.4855 92.3856,-56.083 90.0192,-45.7558 84.0956,-49.4855"/>
</g>
</g>
</svg>
