<?xml version="1.0" encoding="UTF-8" standalone="no"?>
<!DOCTYPE svg PUBLIC "-//W3C//DTD SVG 1.1//EN"
 "http://www.w3.org/Graphics/SVG/1.1/DTD/svg11.dtd">
<!-- Generated by graphviz version 2.38.0 (20140413.2041)
 -->
<!-- Title: GameObject Pages: 1 -->
<svg width="290pt" height="195pt"
 viewBox="0.00 0.00 289.68 195.00" xmlns="http://www.w3.org/2000/svg" xmlns:xlink="http://www.w3.org/1999/xlink">
<g id="graph0" class="graph" transform="scale(1 1) rotate(0) translate(4 191)">
<title>GameObject</title>
<polygon fill="white" stroke="none" points="-4,4 -4,-191 285.683,-191 285.683,4 -4,4"/>
<!-- Node1 -->
<g id="node1" class="node"><title>Node1</title>
<polygon fill="#bfbfbf" stroke="black" points="69.6829,-0.5 69.6829,-19.5 140.683,-19.5 140.683,-0.5 69.6829,-0.5"/>
<text text-anchor="middle" x="105.183" y="-7.5" font-family="Helvetica,sans-Serif" font-size="10.00">GameObject</text>
</g>
<!-- Node2 -->
<g id="node2" class="node"><title>Node2</title>
<g id="a_node2"><a xlink:href="classRect.html" target="_top" xlink:title="Classe que modela um rect. ">
<polygon fill="white" stroke="black" points="53.1829,-67.5 53.1829,-86.5 91.1829,-86.5 91.1829,-67.5 53.1829,-67.5"/>
<text text-anchor="middle" x="72.1829" y="-74.5" font-family="Helvetica,sans-Serif" font-size="10.00">Rect</text>
</a>
</g>
</g>
<!-- Node2&#45;&gt;Node1 -->
<g id="edge1" class="edge"><title>Node2&#45;&gt;Node1</title>
<path fill="none" stroke="#9a32cd" stroke-dasharray="5,2" d="M81.2384,-58.1635C87.6025,-45.6281 95.8361,-29.4104 100.803,-19.6273"/>
<polygon fill="#9a32cd" stroke="#9a32cd" points="78.0396,-56.7327 76.6335,-67.2338 84.2813,-59.9016 78.0396,-56.7327"/>
<text text-anchor="middle" x="100.683" y="-41" font-family="Helvetica,sans-Serif" font-size="10.00"> box</text>
</g>
<!-- Node3 -->
<g id="node3" class="node"><title>Node3</title>
<polygon fill="white" stroke="#bfbfbf" points="7.68294,-167.5 7.68294,-186.5 42.6829,-186.5 42.6829,-167.5 7.68294,-167.5"/>
<text text-anchor="middle" x="25.1829" y="-174.5" font-family="Helvetica,sans-Serif" font-size="10.00">float</text>
</g>
<!-- Node3&#45;&gt;Node1 -->
<g id="edge3" class="edge"><title>Node3&#45;&gt;Node1</title>
<path fill="none" stroke="#9a32cd" stroke-dasharray="5,2" d="M15.8362,-158.277C5.27267,-135.585 -8.42609,-95.7669 8.18294,-67 22.3782,-42.4137 51.9319,-27.6568 74.7087,-19.5145"/>
<polygon fill="#9a32cd" stroke="#9a32cd" points="12.7768,-159.986 20.3489,-167.397 19.0507,-156.882 12.7768,-159.986"/>
<text text-anchor="middle" x="26.1829" y="-74.5" font-family="Helvetica,sans-Serif" font-size="10.00"> rotation</text>
</g>
<!-- Node3&#45;&gt;Node2 -->
<g id="edge2" class="edge"><title>Node3&#45;&gt;Node2</title>
<path fill="none" stroke="#9a32cd" stroke-dasharray="5,2" d="M33.7699,-158.095C43.941,-136.887 60.4634,-102.436 68.0885,-86.5374"/>
<polygon fill="#9a32cd" stroke="#9a32cd" points="30.5224,-156.773 29.3539,-167.303 36.8341,-159.8 30.5224,-156.773"/>
<text text-anchor="middle" x="64.6829" y="-141" font-family="Helvetica,sans-Serif" font-size="10.00"> w</text>
<text text-anchor="middle" x="64.6829" y="-130" font-family="Helvetica,sans-Serif" font-size="10.00">x</text>
<text text-anchor="middle" x="64.6829" y="-119" font-family="Helvetica,sans-Serif" font-size="10.00">h</text>
<text text-anchor="middle" x="64.6829" y="-108" font-family="Helvetica,sans-Serif" font-size="10.00">y</text>
</g>
<!-- Node4 -->
<g id="node4" class="node"><title>Node4</title>
<polygon fill="white" stroke="#bfbfbf" points="109.683,-67.5 109.683,-86.5 144.683,-86.5 144.683,-67.5 109.683,-67.5"/>
<text text-anchor="middle" x="127.183" y="-74.5" font-family="Helvetica,sans-Serif" font-size="10.00">bool</text>
</g>
<!-- Node4&#45;&gt;Node1 -->
<g id="edge4" class="edge"><title>Node4&#45;&gt;Node1</title>
<path fill="none" stroke="#9a32cd" stroke-dasharray="5,2" d="M120.892,-57.4145C116.687,-44.9883 111.349,-29.2166 108.103,-19.6273"/>
<polygon fill="#9a32cd" stroke="#9a32cd" points="117.695,-58.8838 124.216,-67.2338 124.325,-56.6395 117.695,-58.8838"/>
<text text-anchor="middle" x="130.683" y="-41" font-family="Helvetica,sans-Serif" font-size="10.00"> dead</text>
</g>
<!-- Node5 -->
<g id="node5" class="node"><title>Node5</title>
<polygon fill="white" stroke="#bfbfbf" points="162.683,-67.5 162.683,-86.5 281.683,-86.5 281.683,-67.5 162.683,-67.5"/>
<text text-anchor="middle" x="222.183" y="-74.5" font-family="Helvetica,sans-Serif" font-size="10.00">vector&lt; Component * &gt;</text>
</g>
<!-- Node5&#45;&gt;Node1 -->
<g id="edge5" class="edge"><title>Node5&#45;&gt;Node1</title>
<path fill="none" stroke="#9a32cd" stroke-dasharray="5,2" d="M197.5,-62.2872C174.311,-49.4047 140.327,-30.5243 120.712,-19.6273"/>
<polygon fill="#9a32cd" stroke="#9a32cd" points="195.962,-65.4369 206.404,-67.2338 199.362,-59.3178 195.962,-65.4369"/>
<text text-anchor="middle" x="199.683" y="-41" font-family="Helvetica,sans-Serif" font-size="10.00"> components</text>
</g>
</g>
</svg>
