<?xml version="1.0" encoding="UTF-8" standalone="no"?>
<!DOCTYPE svg PUBLIC "-//W3C//DTD SVG 1.1//EN"
 "http://www.w3.org/Graphics/SVG/1.1/DTD/svg11.dtd">
<!-- Generated by graphviz version 2.38.0 (20140413.2041)
 -->
<!-- Title: GameObject Pages: 1 -->
<svg width="322pt" height="84pt"
 viewBox="0.00 0.00 321.50 84.00" xmlns="http://www.w3.org/2000/svg" xmlns:xlink="http://www.w3.org/1999/xlink">
<g id="graph0" class="graph" transform="scale(1 1) rotate(0) translate(4 80)">
<title>GameObject</title>
<polygon fill="white" stroke="none" points="-4,4 -4,-80 317.5,-80 317.5,4 -4,4"/>
<!-- Node0 -->
<g id="node1" class="node"><title>Node0</title>
<polygon fill="#bfbfbf" stroke="black" points="119.5,-56.5 119.5,-75.5 190.5,-75.5 190.5,-56.5 119.5,-56.5"/>
<text text-anchor="middle" x="155" y="-63.5" font-family="Helvetica,sans-Serif" font-size="10.00">GameObject</text>
</g>
<!-- Node1 -->
<g id="node2" class="node"><title>Node1</title>
<g id="a_node2"><a xlink:href="classAlien.html" target="_top" xlink:title="Alien">
<polygon fill="white" stroke="black" points="0,-0.5 0,-19.5 38,-19.5 38,-0.5 0,-0.5"/>
<text text-anchor="middle" x="19" y="-7.5" font-family="Helvetica,sans-Serif" font-size="10.00">Alien</text>
</a>
</g>
</g>
<!-- Node0&#45;&gt;Node1 -->
<g id="edge1" class="edge"><title>Node0&#45;&gt;Node1</title>
<path fill="none" stroke="midnightblue" d="M123.915,-52.6575C97.5397,-42.1849 60.5321,-27.4907 38.2499,-18.6433"/>
<polygon fill="midnightblue" stroke="midnightblue" points="122.865,-56.0061 133.45,-56.4435 125.448,-49.5002 122.865,-56.0061"/>
</g>
<!-- Node2 -->
<g id="node3" class="node"><title>Node2</title>
<g id="a_node3"><a xlink:href="classAnimation.html" target="_top" xlink:title="Classe que modela animações. ">
<polygon fill="white" stroke="black" points="56,-0.5 56,-19.5 116,-19.5 116,-0.5 56,-0.5"/>
<text text-anchor="middle" x="86" y="-7.5" font-family="Helvetica,sans-Serif" font-size="10.00">Animation</text>
</a>
</g>
</g>
<!-- Node0&#45;&gt;Node2 -->
<g id="edge2" class="edge"><title>Node0&#45;&gt;Node2</title>
<path fill="none" stroke="midnightblue" d="M135.962,-50.1008C123.544,-40.3824 107.757,-28.0269 97.2878,-19.8339"/>
<polygon fill="midnightblue" stroke="midnightblue" points="133.882,-52.9171 143.914,-56.324 138.196,-47.4046 133.882,-52.9171"/>
</g>
<!-- Node3 -->
<g id="node4" class="node"><title>Node3</title>
<g id="a_node4"><a xlink:href="classBullet.html" target="_top" xlink:title="Bullet">
<polygon fill="white" stroke="black" points="134.5,-0.5 134.5,-19.5 175.5,-19.5 175.5,-0.5 134.5,-0.5"/>
<text text-anchor="middle" x="155" y="-7.5" font-family="Helvetica,sans-Serif" font-size="10.00">Bullet</text>
</a>
</g>
</g>
<!-- Node0&#45;&gt;Node3 -->
<g id="edge3" class="edge"><title>Node0&#45;&gt;Node3</title>
<path fill="none" stroke="midnightblue" d="M155,-45.8045C155,-36.9102 155,-26.7798 155,-19.7511"/>
<polygon fill="midnightblue" stroke="midnightblue" points="151.5,-46.083 155,-56.083 158.5,-46.083 151.5,-46.083"/>
</g>
<!-- Node4 -->
<g id="node5" class="node"><title>Node4</title>
<g id="a_node5"><a xlink:href="classMinion.html" target="_top" xlink:title="Minion">
<polygon fill="white" stroke="black" points="193.5,-0.5 193.5,-19.5 238.5,-19.5 238.5,-0.5 193.5,-0.5"/>
<text text-anchor="middle" x="216" y="-7.5" font-family="Helvetica,sans-Serif" font-size="10.00">Minion</text>
</a>
</g>
</g>
<!-- Node0&#45;&gt;Node4 -->
<g id="edge4" class="edge"><title>Node0&#45;&gt;Node4</title>
<path fill="none" stroke="midnightblue" d="M172.467,-49.5372C183.344,-39.9087 196.944,-27.8694 206.021,-19.8339"/>
<polygon fill="midnightblue" stroke="midnightblue" points="169.968,-47.0749 164.801,-56.324 174.608,-52.3162 169.968,-47.0749"/>
</g>
<!-- Node5 -->
<g id="node6" class="node"><title>Node5</title>
<g id="a_node6"><a xlink:href="classPenguins.html" target="_top" xlink:title="Penguins">
<polygon fill="white" stroke="black" points="256.5,-0.5 256.5,-19.5 313.5,-19.5 313.5,-0.5 256.5,-0.5"/>
<text text-anchor="middle" x="285" y="-7.5" font-family="Helvetica,sans-Serif" font-size="10.00">Penguins</text>
</a>
</g>
</g>
<!-- Node0&#45;&gt;Node5 -->
<g id="edge5" class="edge"><title>Node0&#45;&gt;Node5</title>
<path fill="none" stroke="midnightblue" d="M185.085,-52.503C209.457,-42.3795 243.14,-28.388 264.497,-19.5164"/>
<polygon fill="midnightblue" stroke="midnightblue" points="183.491,-49.3752 175.599,-56.4435 186.177,-55.8397 183.491,-49.3752"/>
</g>
</g>
</svg>
