<?xml version="1.0" encoding="UTF-8" standalone="no"?>
<!DOCTYPE svg PUBLIC "-//W3C//DTD SVG 1.1//EN"
 "http://www.w3.org/Graphics/SVG/1.1/DTD/svg11.dtd">
<!-- Generated by graphviz version 2.38.0 (20140413.2041)
 -->
<!-- Title: UIgridGroup Pages: 1 -->
<svg width="490pt" height="362pt"
 viewBox="0.00 0.00 490.00 362.00" xmlns="http://www.w3.org/2000/svg" xmlns:xlink="http://www.w3.org/1999/xlink">
<g id="graph0" class="graph" transform="scale(1 1) rotate(0) translate(4 358)">
<title>UIgridGroup</title>
<polygon fill="white" stroke="none" points="-4,4 -4,-358 486.002,-358 486.002,4 -4,4"/>
<!-- Node1 -->
<g id="node1" class="node"><title>Node1</title>
<polygon fill="#bfbfbf" stroke="black" points="157.002,-0.5 157.002,-19.5 226.002,-19.5 226.002,-0.5 157.002,-0.5"/>
<text text-anchor="middle" x="191.502" y="-7.5" font-family="Helvetica,sans-Serif" font-size="10.00">UIgridGroup</text>
</g>
<!-- Node2 -->
<g id="node2" class="node"><title>Node2</title>
<g id="a_node2"><a xlink:href="classUIcanvas.html" target="_top" xlink:title="UIcanvas">
<polygon fill="white" stroke="black" points="27.0022,-67.5 27.0022,-86.5 86.0022,-86.5 86.0022,-67.5 27.0022,-67.5"/>
<text text-anchor="middle" x="56.5022" y="-74.5" font-family="Helvetica,sans-Serif" font-size="10.00">UIcanvas</text>
</a>
</g>
</g>
<!-- Node2&#45;&gt;Node1 -->
<g id="edge1" class="edge"><title>Node2&#45;&gt;Node1</title>
<path fill="none" stroke="midnightblue" d="M83.6192,-62.9436C110.359,-50.0691 150.468,-30.7573 173.501,-19.6672"/>
<polygon fill="midnightblue" stroke="midnightblue" points="81.9208,-59.8768 74.4292,-67.3685 84.9576,-66.1838 81.9208,-59.8768"/>
</g>
<!-- Node3 -->
<g id="node3" class="node"><title>Node3</title>
<g id="a_node3"><a xlink:href="classUIelement.html" target="_top" xlink:title="UIelement">
<polygon fill="white" stroke="black" points="47.5022,-134.5 47.5022,-153.5 109.502,-153.5 109.502,-134.5 47.5022,-134.5"/>
<text text-anchor="middle" x="78.5022" y="-141.5" font-family="Helvetica,sans-Serif" font-size="10.00">UIelement</text>
</a>
</g>
</g>
<!-- Node3&#45;&gt;Node2 -->
<g id="edge2" class="edge"><title>Node3&#45;&gt;Node2</title>
<path fill="none" stroke="midnightblue" d="M72.2117,-124.415C68.0059,-111.988 62.6678,-96.2166 59.4222,-86.6273"/>
<polygon fill="midnightblue" stroke="midnightblue" points="69.0139,-125.884 75.5352,-134.234 75.6444,-123.64 69.0139,-125.884"/>
</g>
<!-- Node4 -->
<g id="node4" class="node"><title>Node4</title>
<g id="a_node4"><a xlink:href="classVec2.html" target="_top" xlink:title="Classe que modela um vetor(no sentido físico) ">
<polygon fill="white" stroke="black" points="12.0022,-234.5 12.0022,-253.5 51.0022,-253.5 51.0022,-234.5 12.0022,-234.5"/>
<text text-anchor="middle" x="31.5022" y="-241.5" font-family="Helvetica,sans-Serif" font-size="10.00">Vec2</text>
</a>
</g>
</g>
<!-- Node4&#45;&gt;Node1 -->
<g id="edge8" class="edge"><title>Node4&#45;&gt;Node1</title>
<path fill="none" stroke="#9a32cd" stroke-dasharray="5,2" d="M23.0533,-224.973C8.32034,-190.591 -17.3426,-114.819 17.5022,-67 49.3665,-23.2709 115.969,-12.9501 156.903,-10.9338"/>
<polygon fill="#9a32cd" stroke="#9a32cd" points="19.9187,-226.537 27.1955,-234.238 26.309,-223.68 19.9187,-226.537"/>
<text text-anchor="middle" x="21.0022" y="-108" font-family="Helvetica,sans-Serif" font-size="10.00"> padding</text>
</g>
<!-- Node4&#45;&gt;Node3 -->
<g id="edge3" class="edge"><title>Node4&#45;&gt;Node3</title>
<path fill="none" stroke="#9a32cd" stroke-dasharray="5,2" d="M27.3599,-224.231C25.0612,-209.085 24.274,-187.777 33.5022,-172 38.2863,-163.821 46.6101,-157.832 54.808,-153.602"/>
<polygon fill="#9a32cd" stroke="#9a32cd" points="23.9872,-225.235 29.2715,-234.418 30.8671,-223.944 23.9872,-225.235"/>
<text text-anchor="middle" x="56.5022" y="-197" font-family="Helvetica,sans-Serif" font-size="10.00"> center</text>
<text text-anchor="middle" x="56.5022" y="-186" font-family="Helvetica,sans-Serif" font-size="10.00">kernelSize</text>
</g>
<!-- Node5 -->
<g id="node5" class="node"><title>Node5</title>
<polygon fill="white" stroke="#bfbfbf" points="49.0022,-334.5 49.0022,-353.5 84.0022,-353.5 84.0022,-334.5 49.0022,-334.5"/>
<text text-anchor="middle" x="66.5022" y="-341.5" font-family="Helvetica,sans-Serif" font-size="10.00">float</text>
</g>
<!-- Node5&#45;&gt;Node4 -->
<g id="edge4" class="edge"><title>Node5&#45;&gt;Node4</title>
<path fill="none" stroke="#9a32cd" stroke-dasharray="5,2" d="M60.0041,-324.805C52.4217,-303.575 40.2037,-269.364 34.5513,-253.537"/>
<polygon fill="#9a32cd" stroke="#9a32cd" points="56.7367,-326.063 63.3962,-334.303 63.3289,-323.709 56.7367,-326.063"/>
<text text-anchor="middle" x="61.0022" y="-297" font-family="Helvetica,sans-Serif" font-size="10.00"> x</text>
<text text-anchor="middle" x="61.0022" y="-286" font-family="Helvetica,sans-Serif" font-size="10.00">y</text>
</g>
<!-- Node6 -->
<g id="node6" class="node"><title>Node6</title>
<g id="a_node6"><a xlink:href="classRect.html" target="_top" xlink:title="Classe que modela um rect. ">
<polygon fill="white" stroke="black" points="75.5022,-234.5 75.5022,-253.5 113.502,-253.5 113.502,-234.5 75.5022,-234.5"/>
<text text-anchor="middle" x="94.5022" y="-241.5" font-family="Helvetica,sans-Serif" font-size="10.00">Rect</text>
</a>
</g>
</g>
<!-- Node5&#45;&gt;Node6 -->
<g id="edge6" class="edge"><title>Node5&#45;&gt;Node6</title>
<path fill="none" stroke="#9a32cd" stroke-dasharray="5,2" d="M71.784,-324.514C77.8557,-303.263 87.5617,-269.292 92.0629,-253.537"/>
<polygon fill="#9a32cd" stroke="#9a32cd" points="68.369,-323.726 68.987,-334.303 75.0996,-325.649 68.369,-323.726"/>
<text text-anchor="middle" x="92.0022" y="-308" font-family="Helvetica,sans-Serif" font-size="10.00"> w</text>
<text text-anchor="middle" x="92.0022" y="-297" font-family="Helvetica,sans-Serif" font-size="10.00">x</text>
<text text-anchor="middle" x="92.0022" y="-286" font-family="Helvetica,sans-Serif" font-size="10.00">h</text>
<text text-anchor="middle" x="92.0022" y="-275" font-family="Helvetica,sans-Serif" font-size="10.00">y</text>
</g>
<!-- Node6&#45;&gt;Node3 -->
<g id="edge5" class="edge"><title>Node6&#45;&gt;Node3</title>
<path fill="none" stroke="#9a32cd" stroke-dasharray="5,2" d="M91.4361,-224.22C87.9636,-202.951 82.4564,-169.22 79.8961,-153.537"/>
<polygon fill="#9a32cd" stroke="#9a32cd" points="88.0166,-224.998 93.0823,-234.303 94.9252,-223.87 88.0166,-224.998"/>
<text text-anchor="middle" x="119.002" y="-208" font-family="Helvetica,sans-Serif" font-size="10.00"> offsets</text>
<text text-anchor="middle" x="119.002" y="-197" font-family="Helvetica,sans-Serif" font-size="10.00">box</text>
<text text-anchor="middle" x="119.002" y="-186" font-family="Helvetica,sans-Serif" font-size="10.00">anchors</text>
<text text-anchor="middle" x="119.002" y="-175" font-family="Helvetica,sans-Serif" font-size="10.00">boundingBox</text>
</g>
<!-- Node7 -->
<g id="node7" class="node"><title>Node7</title>
<polygon fill="white" stroke="#bfbfbf" points="142.002,-234.5 142.002,-253.5 219.002,-253.5 219.002,-234.5 142.002,-234.5"/>
<text text-anchor="middle" x="180.502" y="-241.5" font-family="Helvetica,sans-Serif" font-size="10.00">BehaviorType</text>
</g>
<!-- Node7&#45;&gt;Node3 -->
<g id="edge7" class="edge"><title>Node7&#45;&gt;Node3</title>
<path fill="none" stroke="#9a32cd" stroke-dasharray="5,2" d="M177.183,-224.108C173.476,-208.25 165.982,-186.003 151.502,-172 140.137,-161.01 123.912,-154.425 109.644,-150.516"/>
<polygon fill="#9a32cd" stroke="#9a32cd" points="173.837,-225.214 179.26,-234.316 180.696,-223.819 173.837,-225.214"/>
<text text-anchor="middle" x="195.502" y="-191.5" font-family="Helvetica,sans-Serif" font-size="10.00"> behavior</text>
</g>
<!-- Node8 -->
<g id="node8" class="node"><title>Node8</title>
<polygon fill="white" stroke="#bfbfbf" points="104.002,-67.5 104.002,-86.5 193.002,-86.5 193.002,-67.5 104.002,-67.5"/>
<text text-anchor="middle" x="148.502" y="-74.5" font-family="Helvetica,sans-Serif" font-size="10.00">BehaviorOnLess</text>
</g>
<!-- Node8&#45;&gt;Node1 -->
<g id="edge9" class="edge"><title>Node8&#45;&gt;Node1</title>
<path fill="none" stroke="#9a32cd" stroke-dasharray="5,2" d="M142.152,-57.2489C141.063,-50.7868 141.181,-43.7377 144.502,-38 149.31,-29.6926 157.748,-23.7189 166.161,-19.538"/>
<polygon fill="#9a32cd" stroke="#9a32cd" points="138.85,-58.4519 144.775,-67.2349 145.62,-56.6738 138.85,-58.4519"/>
<text text-anchor="middle" x="181.502" y="-41" font-family="Helvetica,sans-Serif" font-size="10.00"> behaviorOnLess</text>
</g>
<!-- Node9 -->
<g id="node9" class="node"><title>Node9</title>
<polygon fill="white" stroke="#bfbfbf" points="221.002,-67.5 221.002,-86.5 250.002,-86.5 250.002,-67.5 221.002,-67.5"/>
<text text-anchor="middle" x="235.502" y="-74.5" font-family="Helvetica,sans-Serif" font-size="10.00">int</text>
</g>
<!-- Node9&#45;&gt;Node1 -->
<g id="edge10" class="edge"><title>Node9&#45;&gt;Node1</title>
<path fill="none" stroke="#9a32cd" stroke-dasharray="5,2" d="M229.017,-57.9542C226.257,-51.3909 222.698,-44.0939 218.502,-38 213.84,-31.2297 207.36,-24.6835 201.916,-19.7326"/>
<polygon fill="#9a32cd" stroke="#9a32cd" points="225.796,-59.3272 232.674,-67.3857 232.322,-56.7967 225.796,-59.3272"/>
<text text-anchor="middle" x="243.502" y="-41" font-family="Helvetica,sans-Serif" font-size="10.00"> number</text>
</g>
<!-- Node10 -->
<g id="node10" class="node"><title>Node10</title>
<polygon fill="white" stroke="#bfbfbf" points="268.002,-67.5 268.002,-86.5 381.002,-86.5 381.002,-67.5 268.002,-67.5"/>
<text text-anchor="middle" x="324.502" y="-74.5" font-family="Helvetica,sans-Serif" font-size="10.00">vector&lt; UIelement * &gt;</text>
</g>
<!-- Node10&#45;&gt;Node1 -->
<g id="edge11" class="edge"><title>Node10&#45;&gt;Node1</title>
<path fill="none" stroke="#9a32cd" stroke-dasharray="5,2" d="M304.26,-61.3665C293.169,-53.7638 278.971,-44.6905 265.502,-38 250.805,-30.6994 233.626,-24.3105 219.522,-19.5827"/>
<polygon fill="#9a32cd" stroke="#9a32cd" points="302.564,-64.4517 312.763,-67.3223 306.581,-58.7184 302.564,-64.4517"/>
<text text-anchor="middle" x="324.002" y="-41" font-family="Helvetica,sans-Serif" font-size="10.00"> groupedElements</text>
</g>
<!-- Node11 -->
<g id="node11" class="node"><title>Node11</title>
<polygon fill="white" stroke="#bfbfbf" points="399.002,-67.5 399.002,-86.5 482.002,-86.5 482.002,-67.5 399.002,-67.5"/>
<text text-anchor="middle" x="440.502" y="-74.5" font-family="Helvetica,sans-Serif" font-size="10.00">ConstraintType</text>
</g>
<!-- Node11&#45;&gt;Node1 -->
<g id="edge12" class="edge"><title>Node11&#45;&gt;Node1</title>
<path fill="none" stroke="#9a32cd" stroke-dasharray="5,2" d="M418.469,-62.0986C404.401,-53.8482 385.487,-43.8821 367.502,-38 319.904,-22.433 262.068,-15.7558 226.012,-12.951"/>
<polygon fill="#9a32cd" stroke="#9a32cd" points="416.993,-65.2957 427.364,-67.465 420.61,-59.3021 416.993,-65.2957"/>
<text text-anchor="middle" x="416.502" y="-41" font-family="Helvetica,sans-Serif" font-size="10.00"> constraint</text>
</g>
</g>
</svg>
