<?xml version="1.0" encoding="UTF-8" standalone="no"?>
<!DOCTYPE svg PUBLIC "-//W3C//DTD SVG 1.1//EN"
 "http://www.w3.org/Graphics/SVG/1.1/DTD/svg11.dtd">
<!-- Generated by graphviz version 2.36.0 (20140111.2315)
 -->
<!-- Title: GameObject Pages: 1 -->
<svg width="196pt" height="84pt"
 viewBox="0.00 0.00 196.00 84.00" xmlns="http://www.w3.org/2000/svg" xmlns:xlink="http://www.w3.org/1999/xlink">
<g id="graph0" class="graph" transform="scale(1 1) rotate(0) translate(4 80)">
<title>GameObject</title>
<polygon fill="white" stroke="none" points="-4,4 -4,-80 192,-80 192,4 -4,4"/>
<!-- Node1 -->
<g id="node1" class="node"><title>Node1</title>
<polygon fill="#bfbfbf" stroke="black" points="66.5,-56.5 66.5,-75.5 137.5,-75.5 137.5,-56.5 66.5,-56.5"/>
<text text-anchor="middle" x="102" y="-63.5" font-family="Helvetica,sans-Serif" font-size="10.00">GameObject</text>
</g>
<!-- Node2 -->
<g id="node2" class="node"><title>Node2</title>
<g id="a_node2"><a xlink:href="classAnimation.html" target="_top" xlink:title="Classe que modela animações. ">
<polygon fill="white" stroke="black" points="0,-0.5 0,-19.5 60,-19.5 60,-0.5 0,-0.5"/>
<text text-anchor="middle" x="30" y="-7.5" font-family="Helvetica,sans-Serif" font-size="10.00">Animation</text>
</a>
</g>
</g>
<!-- Node1&#45;&gt;Node2 -->
<g id="edge1" class="edge"><title>Node1&#45;&gt;Node2</title>
<path fill="none" stroke="midnightblue" d="M82.1343,-50.1008C69.1765,-40.3824 52.7026,-28.0269 41.7785,-19.8339"/>
<polygon fill="midnightblue" stroke="midnightblue" points="80.3319,-53.1239 90.432,-56.324 84.5319,-47.5239 80.3319,-53.1239"/>
</g>
<!-- Node3 -->
<g id="node3" class="node"><title>Node3</title>
<g id="a_node3"><a xlink:href="classEnemy.html" target="_top" xlink:title="Classe que modela inimigos. ">
<polygon fill="white" stroke="black" points="78.5,-0.5 78.5,-19.5 125.5,-19.5 125.5,-0.5 78.5,-0.5"/>
<text text-anchor="middle" x="102" y="-7.5" font-family="Helvetica,sans-Serif" font-size="10.00">Enemy</text>
</a>
</g>
</g>
<!-- Node1&#45;&gt;Node3 -->
<g id="edge2" class="edge"><title>Node1&#45;&gt;Node3</title>
<path fill="none" stroke="midnightblue" d="M102,-45.8045C102,-36.9102 102,-26.7798 102,-19.7511"/>
<polygon fill="midnightblue" stroke="midnightblue" points="98.5001,-46.083 102,-56.083 105.5,-46.083 98.5001,-46.083"/>
</g>
<!-- Node4 -->
<g id="node4" class="node"><title>Node4</title>
<g id="a_node4"><a xlink:href="classTower.html" target="_top" xlink:title="Tower">
<polygon fill="white" stroke="black" points="144,-0.5 144,-19.5 188,-19.5 188,-0.5 144,-0.5"/>
<text text-anchor="middle" x="166" y="-7.5" font-family="Helvetica,sans-Serif" font-size="10.00">Tower</text>
</a>
</g>
</g>
<!-- Node1&#45;&gt;Node4 -->
<g id="edge3" class="edge"><title>Node1&#45;&gt;Node4</title>
<path fill="none" stroke="midnightblue" d="M119.991,-49.8197C131.458,-40.1452 145.913,-27.9481 155.53,-19.8339"/>
<polygon fill="midnightblue" stroke="midnightblue" points="117.669,-47.2002 112.283,-56.324 122.183,-52.5502 117.669,-47.2002"/>
</g>
</g>
</svg>
