<?xml version="1.0" encoding="UTF-8" standalone="no"?>
<!DOCTYPE svg PUBLIC "-//W3C//DTD SVG 1.1//EN"
 "http://www.w3.org/Graphics/SVG/1.1/DTD/svg11.dtd">
<!-- Generated by graphviz version 2.36.0 (20140111.2315)
 -->
<!-- Title: UItextButton Pages: 1 -->
<svg width="736pt" height="618pt"
 viewBox="0.00 0.00 736.00 618.00" xmlns="http://www.w3.org/2000/svg" xmlns:xlink="http://www.w3.org/1999/xlink">
<g id="graph0" class="graph" transform="scale(1 1) rotate(0) translate(4 614)">
<title>UItextButton</title>
<polygon fill="white" stroke="none" points="-4,4 -4,-614 732,-614 732,4 -4,4"/>
<!-- Node1 -->
<g id="node1" class="node"><title>Node1</title>
<polygon fill="#bfbfbf" stroke="black" points="656,-393.5 656,-412.5 728,-412.5 728,-393.5 656,-393.5"/>
<text text-anchor="middle" x="692" y="-400.5" font-family="Helvetica,sans-Serif" font-size="10.00">UItextButton</text>
</g>
<!-- Node2 -->
<g id="node2" class="node"><title>Node2</title>
<g id="a_node2"><a xlink:href="classUItext.html" target="_top" xlink:title="Classe que modela textos. ">
<polygon fill="white" stroke="black" points="561,-393.5 561,-412.5 605,-412.5 605,-393.5 561,-393.5"/>
<text text-anchor="middle" x="583" y="-400.5" font-family="Helvetica,sans-Serif" font-size="10.00">UItext</text>
</a>
</g>
</g>
<!-- Node2&#45;&gt;Node1 -->
<g id="edge1" class="edge"><title>Node2&#45;&gt;Node1</title>
<path fill="none" stroke="midnightblue" d="M615.209,-403C627.858,-403 642.532,-403 655.58,-403"/>
<polygon fill="midnightblue" stroke="midnightblue" points="615.14,-399.5 605.14,-403 615.14,-406.5 615.14,-399.5"/>
</g>
<!-- Node3 -->
<g id="node3" class="node"><title>Node3</title>
<g id="a_node3"><a xlink:href="classUIelement.html" target="_top" xlink:title="UIelement">
<polygon fill="white" stroke="black" points="313,-371.5 313,-390.5 375,-390.5 375,-371.5 313,-371.5"/>
<text text-anchor="middle" x="344" y="-378.5" font-family="Helvetica,sans-Serif" font-size="10.00">UIelement</text>
</a>
</g>
</g>
<!-- Node3&#45;&gt;Node2 -->
<g id="edge2" class="edge"><title>Node3&#45;&gt;Node2</title>
<path fill="none" stroke="midnightblue" d="M384.984,-384.712C435.749,-389.424 521.467,-397.381 560.943,-401.045"/>
<polygon fill="midnightblue" stroke="midnightblue" points="385.297,-381.226 375.016,-383.786 384.65,-388.196 385.297,-381.226"/>
</g>
<!-- Node4 -->
<g id="node4" class="node"><title>Node4</title>
<g id="a_node4"><a xlink:href="classVec2.html" target="_top" xlink:title="Classe que modela um vetor(no sentido físico) ">
<polygon fill="white" stroke="black" points="113.5,-283.5 113.5,-302.5 152.5,-302.5 152.5,-283.5 113.5,-283.5"/>
<text text-anchor="middle" x="133" y="-290.5" font-family="Helvetica,sans-Serif" font-size="10.00">Vec2</text>
</a>
</g>
</g>
<!-- Node4&#45;&gt;Node3 -->
<g id="edge3" class="edge"><title>Node4&#45;&gt;Node3</title>
<path fill="none" stroke="#9a32cd" stroke-dasharray="5,2" d="M162.8,-288.89C191.497,-286.445 235.31,-287.385 264,-310 281.567,-323.847 266.255,-341.111 282,-357 290.331,-365.407 301.96,-370.944 312.833,-374.556"/>
<polygon fill="#9a32cd" stroke="#9a32cd" points="162.187,-285.435 152.605,-289.955 162.914,-292.397 162.187,-285.435"/>
<text text-anchor="middle" x="227" y="-324" font-family="Helvetica,sans-Serif" font-size="10.00"> center</text>
<text text-anchor="middle" x="227" y="-313" font-family="Helvetica,sans-Serif" font-size="10.00">kernelSize</text>
</g>
<!-- Node5 -->
<g id="node5" class="node"><title>Node5</title>
<polygon fill="white" stroke="#bfbfbf" points="0.5,-317.5 0.5,-336.5 35.5,-336.5 35.5,-317.5 0.5,-317.5"/>
<text text-anchor="middle" x="18" y="-324.5" font-family="Helvetica,sans-Serif" font-size="10.00">float</text>
</g>
<!-- Node5&#45;&gt;Node2 -->
<g id="edge11" class="edge"><title>Node5&#45;&gt;Node2</title>
<path fill="none" stroke="#9a32cd" stroke-dasharray="5,2" d="M23.5603,-346.954C28.327,-362.957 37.4902,-384.569 54,-396 137.662,-453.928 473.286,-416.651 560.961,-405.728"/>
<polygon fill="#9a32cd" stroke="#9a32cd" points="26.8605,-345.742 20.9264,-336.965 20.0918,-347.527 26.8605,-345.742"/>
<text text-anchor="middle" x="227" y="-441" font-family="Helvetica,sans-Serif" font-size="10.00"> timeShown</text>
<text text-anchor="middle" x="227" y="-430" font-family="Helvetica,sans-Serif" font-size="10.00">strobeFrequency</text>
</g>
<!-- Node5&#45;&gt;Node4 -->
<g id="edge4" class="edge"><title>Node5&#45;&gt;Node4</title>
<path fill="none" stroke="#9a32cd" stroke-dasharray="5,2" d="M44.9916,-313.544C47.9871,-312.243 51.0318,-311.028 54,-310 73.7757,-303.152 97.3597,-298.468 113.379,-295.777"/>
<polygon fill="#9a32cd" stroke="#9a32cd" points="43.3221,-310.461 35.7445,-317.866 46.2859,-316.803 43.3221,-310.461"/>
<text text-anchor="middle" x="65" y="-324" font-family="Helvetica,sans-Serif" font-size="10.00"> x</text>
<text text-anchor="middle" x="65" y="-313" font-family="Helvetica,sans-Serif" font-size="10.00">y</text>
</g>
<!-- Node6 -->
<g id="node6" class="node"><title>Node6</title>
<g id="a_node6"><a xlink:href="classRect.html" target="_top" xlink:title="Classe que modela um rect. ">
<polygon fill="white" stroke="black" points="114,-359.5 114,-378.5 152,-378.5 152,-359.5 114,-359.5"/>
<text text-anchor="middle" x="133" y="-366.5" font-family="Helvetica,sans-Serif" font-size="10.00">Rect</text>
</a>
</g>
</g>
<!-- Node5&#45;&gt;Node6 -->
<g id="edge6" class="edge"><title>Node5&#45;&gt;Node6</title>
<path fill="none" stroke="#9a32cd" stroke-dasharray="5,2" d="M45.2748,-336.766C66.2898,-344.577 95.2108,-355.326 113.758,-362.22"/>
<polygon fill="#9a32cd" stroke="#9a32cd" points="46.2664,-333.401 35.6735,-333.197 43.8276,-339.962 46.2664,-333.401"/>
<text text-anchor="middle" x="65" y="-384" font-family="Helvetica,sans-Serif" font-size="10.00"> w</text>
<text text-anchor="middle" x="65" y="-373" font-family="Helvetica,sans-Serif" font-size="10.00">x</text>
<text text-anchor="middle" x="65" y="-362" font-family="Helvetica,sans-Serif" font-size="10.00">h</text>
<text text-anchor="middle" x="65" y="-351" font-family="Helvetica,sans-Serif" font-size="10.00">y</text>
</g>
<!-- Node14 -->
<g id="node14" class="node"><title>Node14</title>
<g id="a_node14"><a xlink:href="classTimer.html" target="_top" xlink:title="Temporizador. ">
<polygon fill="white" stroke="black" points="206.5,-244.5 206.5,-263.5 247.5,-263.5 247.5,-244.5 206.5,-244.5"/>
<text text-anchor="middle" x="227" y="-251.5" font-family="Helvetica,sans-Serif" font-size="10.00">Timer</text>
</a>
</g>
</g>
<!-- Node5&#45;&gt;Node14 -->
<g id="edge16" class="edge"><title>Node5&#45;&gt;Node14</title>
<path fill="none" stroke="#9a32cd" stroke-dasharray="5,2" d="M31.6966,-309.253C37.7459,-301.842 45.5127,-293.659 54,-288 101.74,-256.171 172.43,-252.781 206.389,-253.206"/>
<polygon fill="#9a32cd" stroke="#9a32cd" points="28.7556,-307.336 25.4439,-317.4 34.3087,-311.598 28.7556,-307.336"/>
<text text-anchor="middle" x="65" y="-291" font-family="Helvetica,sans-Serif" font-size="10.00"> time</text>
</g>
<!-- Node6&#45;&gt;Node3 -->
<g id="edge5" class="edge"><title>Node6&#45;&gt;Node3</title>
<path fill="none" stroke="#9a32cd" stroke-dasharray="5,2" d="M162.362,-367.79C171.213,-367.466 181.01,-367.16 190,-367 222.884,-366.413 231.238,-364.119 264,-367 280.234,-368.427 298.131,-371.474 312.779,-374.362"/>
<polygon fill="#9a32cd" stroke="#9a32cd" points="162.011,-364.301 152.154,-368.187 162.283,-371.296 162.011,-364.301"/>
<text text-anchor="middle" x="227" y="-403" font-family="Helvetica,sans-Serif" font-size="10.00"> offsets</text>
<text text-anchor="middle" x="227" y="-392" font-family="Helvetica,sans-Serif" font-size="10.00">box</text>
<text text-anchor="middle" x="227" y="-381" font-family="Helvetica,sans-Serif" font-size="10.00">anchors</text>
<text text-anchor="middle" x="227" y="-370" font-family="Helvetica,sans-Serif" font-size="10.00">boundingBox</text>
</g>
<!-- Node7 -->
<g id="node7" class="node"><title>Node7</title>
<polygon fill="white" stroke="#bfbfbf" points="94.5,-321.5 94.5,-340.5 171.5,-340.5 171.5,-321.5 94.5,-321.5"/>
<text text-anchor="middle" x="133" y="-328.5" font-family="Helvetica,sans-Serif" font-size="10.00">BehaviorType</text>
</g>
<!-- Node7&#45;&gt;Node3 -->
<g id="edge7" class="edge"><title>Node7&#45;&gt;Node3</title>
<path fill="none" stroke="#9a32cd" stroke-dasharray="5,2" d="M181.958,-335.356C206.729,-338.271 237.284,-342.906 264,-350 264.716,-350.19 295.778,-362.402 318.733,-371.44"/>
<polygon fill="#9a32cd" stroke="#9a32cd" points="182.051,-331.845 171.723,-334.21 181.272,-338.801 182.051,-331.845"/>
<text text-anchor="middle" x="227" y="-353" font-family="Helvetica,sans-Serif" font-size="10.00"> behavior</text>
</g>
<!-- Node8 -->
<g id="node8" class="node"><title>Node8</title>
<polygon fill="white" stroke="#bfbfbf" points="282.5,-286.5 282.5,-305.5 405.5,-305.5 405.5,-286.5 282.5,-286.5"/>
<text text-anchor="middle" x="344" y="-293.5" font-family="Helvetica,sans-Serif" font-size="10.00">shared_ptr&lt; TTF_Font &gt;</text>
</g>
<!-- Node8&#45;&gt;Node2 -->
<g id="edge8" class="edge"><title>Node8&#45;&gt;Node2</title>
<path fill="none" stroke="#9a32cd" stroke-dasharray="5,2" d="M415.865,-289.742C452.554,-289.864 496.543,-295.555 530,-317 558.35,-335.172 573.509,-374.824 579.253,-393.24"/>
<polygon fill="#9a32cd" stroke="#9a32cd" points="415.689,-286.244 405.725,-289.847 415.761,-293.243 415.689,-286.244"/>
<text text-anchor="middle" x="477" y="-320" font-family="Helvetica,sans-Serif" font-size="10.00"> font</text>
</g>
<!-- Node9 -->
<g id="node9" class="node"><title>Node9</title>
<polygon fill="white" stroke="#bfbfbf" points="311.5,-571.5 311.5,-590.5 376.5,-590.5 376.5,-571.5 311.5,-571.5"/>
<text text-anchor="middle" x="344" y="-578.5" font-family="Helvetica,sans-Serif" font-size="10.00">SDL_Color</text>
</g>
<!-- Node9&#45;&gt;Node1 -->
<g id="edge23" class="edge"><title>Node9&#45;&gt;Node1</title>
<path fill="none" stroke="#9a32cd" stroke-dasharray="5,2" d="M386.681,-588.745C425.573,-593.971 484.303,-596.636 530,-576 610.021,-539.864 668.762,-443.252 685.883,-412.524"/>
<polygon fill="#9a32cd" stroke="#9a32cd" points="387.153,-585.277 376.753,-587.297 386.143,-592.203 387.153,-585.277"/>
<text text-anchor="middle" x="583" y="-602" font-family="Helvetica,sans-Serif" font-size="10.00"> pressedColor</text>
<text text-anchor="middle" x="583" y="-591" font-family="Helvetica,sans-Serif" font-size="10.00">disabledColor</text>
<text text-anchor="middle" x="583" y="-580" font-family="Helvetica,sans-Serif" font-size="10.00">highlightedColor</text>
<text text-anchor="middle" x="583" y="-569" font-family="Helvetica,sans-Serif" font-size="10.00">enabledColor</text>
</g>
<!-- Node9&#45;&gt;Node2 -->
<g id="edge9" class="edge"><title>Node9&#45;&gt;Node2</title>
<path fill="none" stroke="#9a32cd" stroke-dasharray="5,2" d="M386.938,-572.416C441.092,-561.296 528.626,-543.181 530,-542 570.436,-507.223 579.478,-437.805 581.458,-412.506"/>
<polygon fill="#9a32cd" stroke="#9a32cd" points="386.007,-569.034 376.915,-574.473 387.415,-575.891 386.007,-569.034"/>
<text text-anchor="middle" x="477" y="-567" font-family="Helvetica,sans-Serif" font-size="10.00"> color</text>
</g>
<!-- Node10 -->
<g id="node10" class="node"><title>Node10</title>
<polygon fill="white" stroke="#bfbfbf" points="303.5,-524.5 303.5,-543.5 384.5,-543.5 384.5,-524.5 303.5,-524.5"/>
<text text-anchor="middle" x="344" y="-531.5" font-family="Helvetica,sans-Serif" font-size="10.00">SDL_Texture *</text>
</g>
<!-- Node10&#45;&gt;Node2 -->
<g id="edge10" class="edge"><title>Node10&#45;&gt;Node2</title>
<path fill="none" stroke="#9a32cd" stroke-dasharray="5,2" d="M394.856,-531.864C442.14,-528.939 508.987,-522.194 530,-507 562.553,-483.462 575.918,-433.675 580.256,-412.671"/>
<polygon fill="#9a32cd" stroke="#9a32cd" points="394.57,-528.374 384.79,-532.447 394.976,-535.362 394.57,-528.374"/>
<text text-anchor="middle" x="477" y="-532" font-family="Helvetica,sans-Serif" font-size="10.00"> texture</text>
</g>
<!-- Node11 -->
<g id="node11" class="node"><title>Node11</title>
<polygon fill="white" stroke="#bfbfbf" points="329.5,-486.5 329.5,-505.5 358.5,-505.5 358.5,-486.5 329.5,-486.5"/>
<text text-anchor="middle" x="344" y="-493.5" font-family="Helvetica,sans-Serif" font-size="10.00">int</text>
</g>
<!-- Node11&#45;&gt;Node2 -->
<g id="edge12" class="edge"><title>Node11&#45;&gt;Node2</title>
<path fill="none" stroke="#9a32cd" stroke-dasharray="5,2" d="M368.735,-495.502C412.331,-494.214 503.157,-489.674 530,-474 554.673,-459.593 571.047,-428.349 578.081,-412.553"/>
<polygon fill="#9a32cd" stroke="#9a32cd" points="368.641,-492.004 358.736,-495.765 368.825,-499.001 368.641,-492.004"/>
<text text-anchor="middle" x="477" y="-495" font-family="Helvetica,sans-Serif" font-size="10.00"> fontSize</text>
</g>
<!-- Node12 -->
<g id="node12" class="node"><title>Node12</title>
<polygon fill="white" stroke="#bfbfbf" points="326.5,-202.5 326.5,-221.5 361.5,-221.5 361.5,-202.5 326.5,-202.5"/>
<text text-anchor="middle" x="344" y="-209.5" font-family="Helvetica,sans-Serif" font-size="10.00">bool</text>
</g>
<!-- Node12&#45;&gt;Node2 -->
<g id="edge13" class="edge"><title>Node12&#45;&gt;Node2</title>
<path fill="none" stroke="#9a32cd" stroke-dasharray="5,2" d="M371.688,-212.819C417.08,-214.747 506.676,-221.039 530,-241 577.353,-281.524 581.973,-365.299 582.134,-393.499"/>
<polygon fill="#9a32cd" stroke="#9a32cd" points="371.807,-209.321 361.68,-212.435 371.538,-216.316 371.807,-209.321"/>
<text text-anchor="middle" x="477" y="-244" font-family="Helvetica,sans-Serif" font-size="10.00"> isStrobe</text>
</g>
<!-- Node16 -->
<g id="node16" class="node"><title>Node16</title>
<g id="a_node16"><a xlink:href="classUIbutton.html" target="_top" xlink:title="Classe virtual que modela o comportamento de um botão na interface gráfica. ">
<polygon fill="white" stroke="black" points="556,-116.5 556,-135.5 610,-135.5 610,-116.5 556,-116.5"/>
<text text-anchor="middle" x="583" y="-123.5" font-family="Helvetica,sans-Serif" font-size="10.00">UIbutton</text>
</a>
</g>
</g>
<!-- Node12&#45;&gt;Node16 -->
<g id="edge21" class="edge"><title>Node12&#45;&gt;Node16</title>
<path fill="none" stroke="#9a32cd" stroke-dasharray="5,2" d="M371.846,-209.801C416.333,-205.803 503.103,-196.402 530,-182 550.585,-170.978 567.444,-148.642 575.97,-135.759"/>
<polygon fill="#9a32cd" stroke="#9a32cd" points="371.42,-206.325 361.761,-210.679 372.027,-213.298 371.42,-206.325"/>
<text text-anchor="middle" x="477" y="-207" font-family="Helvetica,sans-Serif" font-size="10.00"> interactOnBoundingBox</text>
</g>
<!-- Node13 -->
<g id="node13" class="node"><title>Node13</title>
<polygon fill="white" stroke="#bfbfbf" points="323.5,-447.5 323.5,-466.5 364.5,-466.5 364.5,-447.5 323.5,-447.5"/>
<text text-anchor="middle" x="344" y="-454.5" font-family="Helvetica,sans-Serif" font-size="10.00">string</text>
</g>
<!-- Node13&#45;&gt;Node2 -->
<g id="edge14" class="edge"><title>Node13&#45;&gt;Node2</title>
<path fill="none" stroke="#9a32cd" stroke-dasharray="5,2" d="M374.762,-455.367C411.866,-452.683 476.874,-445.838 530,-429 542.701,-424.975 556.129,-418.188 566.158,-412.558"/>
<polygon fill="#9a32cd" stroke="#9a32cd" points="374.372,-451.885 364.628,-456.045 374.84,-458.869 374.372,-451.885"/>
<text text-anchor="middle" x="477" y="-464" font-family="Helvetica,sans-Serif" font-size="10.00"> fontFile</text>
<text text-anchor="middle" x="477" y="-453" font-family="Helvetica,sans-Serif" font-size="10.00">text</text>
</g>
<!-- Node14&#45;&gt;Node2 -->
<g id="edge15" class="edge"><title>Node14&#45;&gt;Node2</title>
<path fill="none" stroke="#9a32cd" stroke-dasharray="5,2" d="M249.803,-270.079C254.783,-274.299 259.831,-279.061 264,-284 274.277,-296.175 269.395,-305.256 282,-315 287.657,-319.373 523.192,-381.813 530,-384 540.249,-387.293 551.483,-391.341 560.879,-394.853"/>
<polygon fill="#9a32cd" stroke="#9a32cd" points="251.647,-267.072 241.653,-263.554 247.272,-272.536 251.647,-267.072"/>
<text text-anchor="middle" x="344" y="-353" font-family="Helvetica,sans-Serif" font-size="10.00"> textTime</text>
</g>
<!-- Node15 -->
<g id="node15" class="node"><title>Node15</title>
<polygon fill="white" stroke="#bfbfbf" points="314.5,-248.5 314.5,-267.5 373.5,-267.5 373.5,-248.5 314.5,-248.5"/>
<text text-anchor="middle" x="344" y="-255.5" font-family="Helvetica,sans-Serif" font-size="10.00">TextStyle</text>
</g>
<!-- Node15&#45;&gt;Node2 -->
<g id="edge17" class="edge"><title>Node15&#45;&gt;Node2</title>
<path fill="none" stroke="#9a32cd" stroke-dasharray="5,2" d="M383.725,-256.724C431.047,-255.94 507.592,-257.423 530,-274 569.795,-303.44 579.201,-368.452 581.369,-393.186"/>
<polygon fill="#9a32cd" stroke="#9a32cd" points="383.451,-253.229 373.526,-256.935 383.596,-260.227 383.451,-253.229"/>
<text text-anchor="middle" x="477" y="-277" font-family="Helvetica,sans-Serif" font-size="10.00"> style</text>
</g>
<!-- Node16&#45;&gt;Node1 -->
<g id="edge18" class="edge"><title>Node16&#45;&gt;Node1</title>
<path fill="none" stroke="midnightblue" d="M591.325,-144.964C612.226,-199.072 671.642,-352.886 687.222,-393.218"/>
<polygon fill="midnightblue" stroke="midnightblue" points="594.551,-143.602 587.683,-135.535 588.022,-146.124 594.551,-143.602"/>
</g>
<!-- Node17 -->
<g id="node17" class="node"><title>Node17</title>
<polygon fill="white" stroke="#bfbfbf" points="306.5,-38.5 306.5,-57.5 381.5,-57.5 381.5,-38.5 306.5,-38.5"/>
<text text-anchor="middle" x="344" y="-45.5" font-family="Helvetica,sans-Serif" font-size="10.00">void(*)(void *)</text>
</g>
<!-- Node17&#45;&gt;Node16 -->
<g id="edge19" class="edge"><title>Node17&#45;&gt;Node16</title>
<path fill="none" stroke="#9a32cd" stroke-dasharray="5,2" d="M391.67,-43.6774C430.76,-42.1186 486.914,-44.8223 530,-67 551.852,-78.2477 568.682,-102.847 576.75,-116.462"/>
<polygon fill="#9a32cd" stroke="#9a32cd" points="391.432,-40.1849 381.621,-44.1865 391.786,-47.1759 391.432,-40.1849"/>
<text text-anchor="middle" x="477" y="-114" font-family="Helvetica,sans-Serif" font-size="10.00"> pressedCallback</text>
<text text-anchor="middle" x="477" y="-103" font-family="Helvetica,sans-Serif" font-size="10.00">disabledCallback</text>
<text text-anchor="middle" x="477" y="-92" font-family="Helvetica,sans-Serif" font-size="10.00">highlightedCallback</text>
<text text-anchor="middle" x="477" y="-81" font-family="Helvetica,sans-Serif" font-size="10.00">enabledCallback</text>
<text text-anchor="middle" x="477" y="-70" font-family="Helvetica,sans-Serif" font-size="10.00">clickedCallback</text>
</g>
<!-- Node18 -->
<g id="node18" class="node"><title>Node18</title>
<polygon fill="white" stroke="#bfbfbf" points="324,-0.5 324,-19.5 364,-19.5 364,-0.5 324,-0.5"/>
<text text-anchor="middle" x="344" y="-7.5" font-family="Helvetica,sans-Serif" font-size="10.00">State</text>
</g>
<!-- Node18&#45;&gt;Node16 -->
<g id="edge20" class="edge"><title>Node18&#45;&gt;Node16</title>
<path fill="none" stroke="#9a32cd" stroke-dasharray="5,2" d="M374.412,-5.09557C413.454,-0.228453 482.932,2.55006 530,-29 561.267,-49.9587 575.205,-96.102 579.969,-116.258"/>
<polygon fill="#9a32cd" stroke="#9a32cd" points="373.679,-1.6634 364.251,-6.49694 374.636,-8.59776 373.679,-1.6634"/>
<text text-anchor="middle" x="477" y="-32" font-family="Helvetica,sans-Serif" font-size="10.00"> actualState</text>
</g>
<!-- Node19 -->
<g id="node19" class="node"><title>Node19</title>
<polygon fill="white" stroke="#bfbfbf" points="323.5,-116.5 323.5,-135.5 364.5,-135.5 364.5,-116.5 323.5,-116.5"/>
<text text-anchor="middle" x="344" y="-123.5" font-family="Helvetica,sans-Serif" font-size="10.00">void *</text>
</g>
<!-- Node19&#45;&gt;Node16 -->
<g id="edge22" class="edge"><title>Node19&#45;&gt;Node16</title>
<path fill="none" stroke="#9a32cd" stroke-dasharray="5,2" d="M374.9,-126C421.645,-126 511.271,-126 555.698,-126"/>
<polygon fill="#9a32cd" stroke="#9a32cd" points="374.799,-122.5 364.799,-126 374.799,-129.5 374.799,-122.5"/>
<text text-anchor="middle" x="477" y="-173" font-family="Helvetica,sans-Serif" font-size="10.00"> clickCaller</text>
<text text-anchor="middle" x="477" y="-162" font-family="Helvetica,sans-Serif" font-size="10.00">disableCaller</text>
<text text-anchor="middle" x="477" y="-151" font-family="Helvetica,sans-Serif" font-size="10.00">highlightedCaller</text>
<text text-anchor="middle" x="477" y="-140" font-family="Helvetica,sans-Serif" font-size="10.00">pressedCaller</text>
<text text-anchor="middle" x="477" y="-129" font-family="Helvetica,sans-Serif" font-size="10.00">enabledCaller</text>
</g>
</g>
</svg>
