<?xml version="1.0" encoding="UTF-8" standalone="no"?>
<!DOCTYPE svg PUBLIC "-//W3C//DTD SVG 1.1//EN"
 "http://www.w3.org/Graphics/SVG/1.1/DTD/svg11.dtd">
<!-- Generated by graphviz version 2.36.0 (20140111.2315)
 -->
<!-- Title: Animation Pages: 1 -->
<svg width="1007pt" height="320pt"
 viewBox="0.00 0.00 1007.45 320.00" xmlns="http://www.w3.org/2000/svg" xmlns:xlink="http://www.w3.org/1999/xlink">
<g id="graph0" class="graph" transform="scale(1 1) rotate(0) translate(4 316)">
<title>Animation</title>
<polygon fill="white" stroke="none" points="-4,4 -4,-316 1003.45,-316 1003.45,4 -4,4"/>
<!-- Node1 -->
<g id="node1" class="node"><title>Node1</title>
<polygon fill="#bfbfbf" stroke="black" points="322.449,-0.5 322.449,-19.5 382.449,-19.5 382.449,-0.5 322.449,-0.5"/>
<text text-anchor="middle" x="352.449" y="-7.5" font-family="Helvetica,sans-Serif" font-size="10.00">Animation</text>
</g>
<!-- Node2 -->
<g id="node2" class="node"><title>Node2</title>
<g id="a_node2"><a xlink:href="classGameObject.html" target="_top" xlink:title="Classe virtual que especifica o funcionamento de um GameObject. ">
<polygon fill="white" stroke="black" points="99.9485,-68.5 99.9485,-87.5 170.949,-87.5 170.949,-68.5 99.9485,-68.5"/>
<text text-anchor="middle" x="135.449" y="-75.5" font-family="Helvetica,sans-Serif" font-size="10.00">GameObject</text>
</a>
</g>
</g>
<!-- Node2&#45;&gt;Node1 -->
<g id="edge1" class="edge"><title>Node2&#45;&gt;Node1</title>
<path fill="none" stroke="midnightblue" d="M166.089,-64.6728C187.09,-56.4851 215.7,-45.8404 241.449,-38 268.39,-29.7964 299.595,-22.3863 322.045,-17.4136"/>
<polygon fill="midnightblue" stroke="midnightblue" points="164.749,-61.4387 156.725,-68.3572 167.312,-67.9526 164.749,-61.4387"/>
</g>
<!-- Node3 -->
<g id="node3" class="node"><title>Node3</title>
<g id="a_node3"><a xlink:href="classRect.html" target="_top" xlink:title="Classe que modela um rect. ">
<polygon fill="white" stroke="black" points="52.4485,-180.5 52.4485,-199.5 90.4485,-199.5 90.4485,-180.5 52.4485,-180.5"/>
<text text-anchor="middle" x="71.4485" y="-187.5" font-family="Helvetica,sans-Serif" font-size="10.00">Rect</text>
</a>
</g>
</g>
<!-- Node3&#45;&gt;Node2 -->
<g id="edge2" class="edge"><title>Node3&#45;&gt;Node2</title>
<path fill="none" stroke="#9a32cd" stroke-dasharray="5,2" d="M77.3343,-170.91C83.5176,-153.401 94.3095,-126.562 108.449,-106 113.106,-99.2267 119.586,-92.6803 125.031,-87.7301"/>
<polygon fill="#9a32cd" stroke="#9a32cd" points="73.9903,-169.872 74.0911,-180.467 80.619,-172.122 73.9903,-169.872"/>
<text text-anchor="middle" x="117.949" y="-125.5" font-family="Helvetica,sans-Serif" font-size="10.00"> box</text>
</g>
<!-- Node4 -->
<g id="node4" class="node"><title>Node4</title>
<polygon fill="white" stroke="#bfbfbf" points="291.949,-292.5 291.949,-311.5 326.949,-311.5 326.949,-292.5 291.949,-292.5"/>
<text text-anchor="middle" x="309.449" y="-299.5" font-family="Helvetica,sans-Serif" font-size="10.00">float</text>
</g>
<!-- Node4&#45;&gt;Node1 -->
<g id="edge16" class="edge"><title>Node4&#45;&gt;Node1</title>
<path fill="none" stroke="#9a32cd" stroke-dasharray="5,2" d="M325.462,-284.99C328.606,-281.501 331.76,-277.732 334.449,-274 371.187,-223.001 386.849,-210.887 402.449,-150 415.433,-99.3196 375.973,-41.1447 359.407,-19.6022"/>
<polygon fill="#9a32cd" stroke="#9a32cd" points="322.704,-282.811 318.364,-292.476 327.784,-287.627 322.704,-282.811"/>
<text text-anchor="middle" x="426.949" y="-125.5" font-family="Helvetica,sans-Serif" font-size="10.00"> timeLimit</text>
</g>
<!-- Node4&#45;&gt;Node2 -->
<g id="edge4" class="edge"><title>Node4&#45;&gt;Node2</title>
<path fill="none" stroke="#9a32cd" stroke-dasharray="5,2" d="M281.523,-299.288C246.484,-296.554 184.875,-289.799 134.449,-274 74.5099,-255.221 40.7237,-265.273 7.4485,-212 -26.5058,-157.64 70.7185,-107.041 114.879,-87.5047"/>
<polygon fill="#9a32cd" stroke="#9a32cd" points="281.691,-302.809 291.917,-300.04 282.196,-295.827 281.691,-302.809"/>
<text text-anchor="middle" x="25.4485" y="-187.5" font-family="Helvetica,sans-Serif" font-size="10.00"> rotation</text>
</g>
<!-- Node4&#45;&gt;Node3 -->
<g id="edge3" class="edge"><title>Node4&#45;&gt;Node3</title>
<path fill="none" stroke="#9a32cd" stroke-dasharray="5,2" d="M282.346,-291.908C241.358,-277.636 161.778,-247.868 99.4485,-212 93.2339,-208.424 86.7994,-203.683 81.6681,-199.61"/>
<polygon fill="#9a32cd" stroke="#9a32cd" points="281.306,-295.252 291.901,-295.197 283.584,-288.633 281.306,-295.252"/>
<text text-anchor="middle" x="237.949" y="-266" font-family="Helvetica,sans-Serif" font-size="10.00"> w</text>
<text text-anchor="middle" x="237.949" y="-255" font-family="Helvetica,sans-Serif" font-size="10.00">x</text>
<text text-anchor="middle" x="237.949" y="-244" font-family="Helvetica,sans-Serif" font-size="10.00">h</text>
<text text-anchor="middle" x="237.949" y="-233" font-family="Helvetica,sans-Serif" font-size="10.00">y</text>
</g>
<!-- Node7 -->
<g id="node7" class="node"><title>Node7</title>
<g id="a_node7"><a xlink:href="classSprite.html" target="_top" xlink:title="Classe que modela uma sprite. ">
<polygon fill="white" stroke="black" points="590.449,-68.5 590.449,-87.5 632.449,-87.5 632.449,-68.5 590.449,-68.5"/>
<text text-anchor="middle" x="611.449" y="-75.5" font-family="Helvetica,sans-Serif" font-size="10.00">Sprite</text>
</a>
</g>
</g>
<!-- Node4&#45;&gt;Node7 -->
<g id="edge8" class="edge"><title>Node4&#45;&gt;Node7</title>
<path fill="none" stroke="#9a32cd" stroke-dasharray="5,2" d="M337.379,-298.145C370.515,-294.256 423.196,-286.332 438.449,-274 478.524,-241.6 453.085,-208.105 485.449,-168 516.059,-130.068 566.83,-101.087 593.624,-87.5019"/>
<polygon fill="#9a32cd" stroke="#9a32cd" points="336.927,-294.674 327.38,-299.267 337.707,-301.63 336.927,-294.674"/>
<text text-anchor="middle" x="512.949" y="-204" font-family="Helvetica,sans-Serif" font-size="10.00"> scaleY</text>
<text text-anchor="middle" x="512.949" y="-193" font-family="Helvetica,sans-Serif" font-size="10.00">frameTime</text>
<text text-anchor="middle" x="512.949" y="-182" font-family="Helvetica,sans-Serif" font-size="10.00">timeElapsed</text>
<text text-anchor="middle" x="512.949" y="-171" font-family="Helvetica,sans-Serif" font-size="10.00">scaleX</text>
</g>
<!-- Node14 -->
<g id="node14" class="node"><title>Node14</title>
<g id="a_node14"><a xlink:href="classTimer.html" target="_top" xlink:title="Temporizador. ">
<polygon fill="white" stroke="black" points="278.949,-118.5 278.949,-137.5 319.949,-137.5 319.949,-118.5 278.949,-118.5"/>
<text text-anchor="middle" x="299.449" y="-125.5" font-family="Helvetica,sans-Serif" font-size="10.00">Timer</text>
</a>
</g>
</g>
<!-- Node4&#45;&gt;Node14 -->
<g id="edge19" class="edge"><title>Node4&#45;&gt;Node14</title>
<path fill="none" stroke="#9a32cd" stroke-dasharray="5,2" d="M308.332,-281.797C306.168,-244.57 301.479,-163.928 299.945,-137.544"/>
<polygon fill="#9a32cd" stroke="#9a32cd" points="304.864,-282.454 308.939,-292.234 311.852,-282.048 304.864,-282.454"/>
<text text-anchor="middle" x="319.449" y="-249.5" font-family="Helvetica,sans-Serif" font-size="10.00"> time</text>
</g>
<!-- Node5 -->
<g id="node5" class="node"><title>Node5</title>
<polygon fill="white" stroke="#bfbfbf" points="245.949,-180.5 245.949,-199.5 280.949,-199.5 280.949,-180.5 245.949,-180.5"/>
<text text-anchor="middle" x="263.449" y="-187.5" font-family="Helvetica,sans-Serif" font-size="10.00">bool</text>
</g>
<!-- Node5&#45;&gt;Node1 -->
<g id="edge17" class="edge"><title>Node5&#45;&gt;Node1</title>
<path fill="none" stroke="#9a32cd" stroke-dasharray="5,2" d="M256.321,-170.712C247.829,-145.718 236.958,-100.312 255.449,-68 269.709,-43.079 299.576,-27.9837 322.424,-19.6471"/>
<polygon fill="#9a32cd" stroke="#9a32cd" points="253.123,-172.158 259.832,-180.358 259.701,-169.764 253.123,-172.158"/>
<text text-anchor="middle" x="285.949" y="-75.5" font-family="Helvetica,sans-Serif" font-size="10.00"> oneTimeOnly</text>
</g>
<!-- Node5&#45;&gt;Node2 -->
<g id="edge5" class="edge"><title>Node5&#45;&gt;Node2</title>
<path fill="none" stroke="#9a32cd" stroke-dasharray="5,2" d="M244.616,-173.96C232.57,-164.238 218.778,-152.881 216.449,-150 202.575,-132.841 209.406,-121.24 193.449,-106 184.934,-97.8685 173.527,-91.8418 163.082,-87.571"/>
<polygon fill="#9a32cd" stroke="#9a32cd" points="242.526,-176.77 252.514,-180.304 246.91,-171.313 242.526,-176.77"/>
<text text-anchor="middle" x="228.949" y="-125.5" font-family="Helvetica,sans-Serif" font-size="10.00"> dead</text>
</g>
<!-- Node5&#45;&gt;Node7 -->
<g id="edge12" class="edge"><title>Node5&#45;&gt;Node7</title>
<path fill="none" stroke="#9a32cd" stroke-dasharray="5,2" d="M289.335,-175.424C300.21,-168.811 312.406,-160.099 321.449,-150 336.168,-133.56 326.174,-118.367 344.449,-106 384.384,-78.9733 534.307,-78.0006 590.237,-78.6184"/>
<polygon fill="#9a32cd" stroke="#9a32cd" points="287.514,-172.433 280.609,-180.468 291.018,-178.493 287.514,-172.433"/>
<text text-anchor="middle" x="373.449" y="-125.5" font-family="Helvetica,sans-Serif" font-size="10.00"> highlightable</text>
</g>
<!-- Node6 -->
<g id="node6" class="node"><title>Node6</title>
<polygon fill="white" stroke="#bfbfbf" points="108.949,-180.5 108.949,-199.5 227.949,-199.5 227.949,-180.5 108.949,-180.5"/>
<text text-anchor="middle" x="168.449" y="-187.5" font-family="Helvetica,sans-Serif" font-size="10.00">vector&lt; Component * &gt;</text>
</g>
<!-- Node6&#45;&gt;Node2 -->
<g id="edge6" class="edge"><title>Node6&#45;&gt;Node2</title>
<path fill="none" stroke="#9a32cd" stroke-dasharray="5,2" d="M151.083,-172.873C145.294,-166.387 139.537,-158.444 136.449,-150 128.658,-128.697 131.55,-101.338 133.793,-87.6342"/>
<polygon fill="#9a32cd" stroke="#9a32cd" points="148.757,-175.502 158.234,-180.238 153.779,-170.626 148.757,-175.502"/>
<text text-anchor="middle" x="164.949" y="-125.5" font-family="Helvetica,sans-Serif" font-size="10.00"> components</text>
</g>
<!-- Node7&#45;&gt;Node1 -->
<g id="edge7" class="edge"><title>Node7&#45;&gt;Node1</title>
<path fill="none" stroke="#9a32cd" stroke-dasharray="5,2" d="M580.311,-69.0653C530.146,-56.2819 432.067,-31.2889 382.563,-18.6739"/>
<polygon fill="#9a32cd" stroke="#9a32cd" points="579.699,-72.5211 590.253,-71.5989 581.427,-65.7379 579.699,-72.5211"/>
<text text-anchor="middle" x="512.449" y="-41.5" font-family="Helvetica,sans-Serif" font-size="10.00"> sp</text>
</g>
<!-- Node8 -->
<g id="node8" class="node"><title>Node8</title>
<polygon fill="white" stroke="#bfbfbf" points="549.449,-180.5 549.449,-199.5 611.449,-199.5 611.449,-180.5 549.449,-180.5"/>
<text text-anchor="middle" x="580.449" y="-187.5" font-family="Helvetica,sans-Serif" font-size="10.00">SDL_Rect</text>
</g>
<!-- Node8&#45;&gt;Node7 -->
<g id="edge9" class="edge"><title>Node8&#45;&gt;Node7</title>
<path fill="none" stroke="#9a32cd" stroke-dasharray="5,2" d="M576.536,-170.228C573.832,-152.774 572.187,-126.462 581.449,-106 584.858,-98.4672 591.498,-92.1422 597.666,-87.512"/>
<polygon fill="#9a32cd" stroke="#9a32cd" points="573.13,-171.056 578.362,-180.268 580.017,-169.803 573.13,-171.056"/>
<text text-anchor="middle" x="601.449" y="-125.5" font-family="Helvetica,sans-Serif" font-size="10.00"> clipRect</text>
</g>
<!-- Node9 -->
<g id="node9" class="node"><title>Node9</title>
<polygon fill="white" stroke="#bfbfbf" points="628.949,-180.5 628.949,-199.5 657.949,-199.5 657.949,-180.5 628.949,-180.5"/>
<text text-anchor="middle" x="643.449" y="-187.5" font-family="Helvetica,sans-Serif" font-size="10.00">int</text>
</g>
<!-- Node9&#45;&gt;Node7 -->
<g id="edge10" class="edge"><title>Node9&#45;&gt;Node7</title>
<path fill="none" stroke="#9a32cd" stroke-dasharray="5,2" d="M639.075,-170.465C634.955,-153.548 628.394,-127.916 621.449,-106 619.516,-99.9007 617.016,-93.1507 614.999,-87.9255"/>
<polygon fill="#9a32cd" stroke="#9a32cd" points="635.673,-171.289 641.409,-180.198 642.48,-169.657 635.673,-171.289"/>
<text text-anchor="middle" x="663.449" y="-142" font-family="Helvetica,sans-Serif" font-size="10.00"> width</text>
<text text-anchor="middle" x="663.449" y="-131" font-family="Helvetica,sans-Serif" font-size="10.00">currentFrame</text>
<text text-anchor="middle" x="663.449" y="-120" font-family="Helvetica,sans-Serif" font-size="10.00">height</text>
<text text-anchor="middle" x="663.449" y="-109" font-family="Helvetica,sans-Serif" font-size="10.00">frameCount</text>
</g>
<!-- Node10 -->
<g id="node10" class="node"><title>Node10</title>
<polygon fill="white" stroke="#bfbfbf" points="676.449,-180.5 676.449,-199.5 814.449,-199.5 814.449,-180.5 676.449,-180.5"/>
<text text-anchor="middle" x="745.449" y="-187.5" font-family="Helvetica,sans-Serif" font-size="10.00">shared_ptr&lt; SDL_Texture &gt;</text>
</g>
<!-- Node10&#45;&gt;Node7 -->
<g id="edge11" class="edge"><title>Node10&#45;&gt;Node7</title>
<path fill="none" stroke="#9a32cd" stroke-dasharray="5,2" d="M739.185,-170.8C731.804,-151.97 717.776,-122.984 696.449,-106 677.917,-91.242 651.175,-84.4802 632.656,-81.4281"/>
<polygon fill="#9a32cd" stroke="#9a32cd" points="735.947,-172.137 742.687,-180.312 742.516,-169.718 735.947,-172.137"/>
<text text-anchor="middle" x="746.449" y="-125.5" font-family="Helvetica,sans-Serif" font-size="10.00"> texture</text>
</g>
<!-- Node11 -->
<g id="node11" class="node"><title>Node11</title>
<polygon fill="white" stroke="#bfbfbf" points="832.449,-180.5 832.449,-199.5 922.449,-199.5 922.449,-180.5 832.449,-180.5"/>
<text text-anchor="middle" x="877.449" y="-187.5" font-family="Helvetica,sans-Serif" font-size="10.00">SDL_BlendMode</text>
</g>
<!-- Node11&#45;&gt;Node7 -->
<g id="edge13" class="edge"><title>Node11&#45;&gt;Node7</title>
<path fill="none" stroke="#9a32cd" stroke-dasharray="5,2" d="M861.672,-173.135C841.62,-153.977 805.07,-122.302 767.449,-106 722.052,-86.3292 663.37,-80.9721 632.529,-79.525"/>
<polygon fill="#9a32cd" stroke="#9a32cd" points="859.378,-175.787 868.979,-180.268 864.268,-170.778 859.378,-175.787"/>
<text text-anchor="middle" x="857.949" y="-125.5" font-family="Helvetica,sans-Serif" font-size="10.00"> blendMode</text>
</g>
<!-- Node12 -->
<g id="node12" class="node"><title>Node12</title>
<g id="a_node12"><a xlink:href="structColor.html" target="_top" xlink:title="Struct para armazenar informações de cor. ">
<polygon fill="white" stroke="black" points="940.449,-180.5 940.449,-199.5 980.449,-199.5 980.449,-180.5 940.449,-180.5"/>
<text text-anchor="middle" x="960.449" y="-187.5" font-family="Helvetica,sans-Serif" font-size="10.00">Color</text>
</a>
</g>
</g>
<!-- Node12&#45;&gt;Node7 -->
<g id="edge14" class="edge"><title>Node12&#45;&gt;Node7</title>
<path fill="none" stroke="#9a32cd" stroke-dasharray="5,2" d="M950.602,-171.416C938.526,-151.73 916.085,-120.672 887.449,-106 842.993,-83.2238 689.276,-79.6313 632.627,-79.0876"/>
<polygon fill="#9a32cd" stroke="#9a32cd" points="947.73,-173.438 955.815,-180.285 953.765,-169.891 947.73,-173.438"/>
<text text-anchor="middle" x="967.449" y="-125.5" font-family="Helvetica,sans-Serif" font-size="10.00"> colorMultiplier</text>
</g>
<!-- Node13 -->
<g id="node13" class="node"><title>Node13</title>
<polygon fill="white" stroke="#bfbfbf" points="921.949,-292.5 921.949,-311.5 998.949,-311.5 998.949,-292.5 921.949,-292.5"/>
<text text-anchor="middle" x="960.449" y="-299.5" font-family="Helvetica,sans-Serif" font-size="10.00">unsigned char</text>
</g>
<!-- Node13&#45;&gt;Node12 -->
<g id="edge15" class="edge"><title>Node13&#45;&gt;Node12</title>
<path fill="none" stroke="#9a32cd" stroke-dasharray="5,2" d="M960.449,-282.348C960.449,-258.254 960.449,-217.308 960.449,-199.591"/>
<polygon fill="#9a32cd" stroke="#9a32cd" points="956.949,-282.368 960.449,-292.368 963.949,-282.369 956.949,-282.368"/>
<text text-anchor="middle" x="964.949" y="-266" font-family="Helvetica,sans-Serif" font-size="10.00"> g</text>
<text text-anchor="middle" x="964.949" y="-255" font-family="Helvetica,sans-Serif" font-size="10.00">a</text>
<text text-anchor="middle" x="964.949" y="-244" font-family="Helvetica,sans-Serif" font-size="10.00">r</text>
<text text-anchor="middle" x="964.949" y="-233" font-family="Helvetica,sans-Serif" font-size="10.00">b</text>
</g>
<!-- Node14&#45;&gt;Node1 -->
<g id="edge18" class="edge"><title>Node14&#45;&gt;Node1</title>
<path fill="none" stroke="#9a32cd" stroke-dasharray="5,2" d="M309.291,-109.616C312.946,-102.934 317.031,-95.1856 320.449,-88 332.013,-63.6834 343.665,-34.0541 349.173,-19.6687"/>
<polygon fill="#9a32cd" stroke="#9a32cd" points="306.177,-108.013 304.371,-118.453 312.293,-111.418 306.177,-108.013"/>
<text text-anchor="middle" x="351.449" y="-75.5" font-family="Helvetica,sans-Serif" font-size="10.00"> endTimer</text>
</g>
</g>
</svg>
