<?xml version="1.0" encoding="UTF-8" standalone="no"?>
<!DOCTYPE svg PUBLIC "-//W3C//DTD SVG 1.1//EN"
 "http://www.w3.org/Graphics/SVG/1.1/DTD/svg11.dtd">
<!-- Generated by graphviz version 2.38.0 (20140413.2041)
 -->
<!-- Title: TitleState Pages: 1 -->
<svg width="1118pt" height="1234pt"
 viewBox="0.00 0.00 1118.00 1234.00" xmlns="http://www.w3.org/2000/svg" xmlns:xlink="http://www.w3.org/1999/xlink">
<g id="graph0" class="graph" transform="scale(1 1) rotate(0) translate(4 1230)">
<title>TitleState</title>
<polygon fill="white" stroke="none" points="-4,4 -4,-1230 1114,-1230 1114,4 -4,4"/>
<!-- Node1 -->
<g id="node1" class="node"><title>Node1</title>
<polygon fill="#bfbfbf" stroke="black" points="1051,-646.5 1051,-665.5 1110,-665.5 1110,-646.5 1051,-646.5"/>
<text text-anchor="middle" x="1080.5" y="-653.5" font-family="Helvetica,sans-Serif" font-size="10.00">TitleState</text>
</g>
<!-- Node2 -->
<g id="node2" class="node"><title>Node2</title>
<g id="a_node2"><a xlink:href="classState.html" target="_top" xlink:title="Classe virtual que modela um estado do jogo. ">
<polygon fill="white" stroke="black" points="423.5,-44.5 423.5,-63.5 463.5,-63.5 463.5,-44.5 423.5,-44.5"/>
<text text-anchor="middle" x="443.5" y="-51.5" font-family="Helvetica,sans-Serif" font-size="10.00">State</text>
</a>
</g>
</g>
<!-- Node2&#45;&gt;Node1 -->
<g id="edge1" class="edge"><title>Node2&#45;&gt;Node1</title>
<path fill="none" stroke="midnightblue" d="M474.243,-52.5017C507.312,-51.5149 562.116,-51.9094 608,-62 728.454,-88.4894 766.971,-105.722 851,-196 951.87,-304.371 974.073,-339.182 1033,-475 1059.99,-537.205 1073.9,-618.481 1078.1,-646.228"/>
<polygon fill="midnightblue" stroke="midnightblue" points="473.771,-49.0164 463.905,-52.8773 474.026,-56.0118 473.771,-49.0164"/>
</g>
<!-- Node33 -->
<g id="node33" class="node"><title>Node33</title>
<g id="a_node33"><a xlink:href="classUIbutton.html" target="_top" xlink:title="Classe virtual que modela o comportamento de um botão na interface gráfica. ">
<polygon fill="white" stroke="black" points="663,-130.5 663,-149.5 717,-149.5 717,-130.5 663,-130.5"/>
<text text-anchor="middle" x="690" y="-137.5" font-family="Helvetica,sans-Serif" font-size="10.00">UIbutton</text>
</a>
</g>
</g>
<!-- Node2&#45;&gt;Node33 -->
<g id="edge47" class="edge"><title>Node2&#45;&gt;Node33</title>
<path fill="none" stroke="#9a32cd" stroke-dasharray="5,2" d="M473.72,-55.0662C507.305,-57.1718 563.517,-63.4277 608,-82 636.41,-93.8615 664.473,-117.269 678.936,-130.431"/>
<polygon fill="#9a32cd" stroke="#9a32cd" points="473.829,-51.5671 463.654,-54.5181 473.449,-58.5568 473.829,-51.5671"/>
<text text-anchor="middle" x="565.5" y="-85" font-family="Helvetica,sans-Serif" font-size="10.00"> actualState</text>
</g>
<!-- Node3 -->
<g id="node3" class="node"><title>Node3</title>
<polygon fill="white" stroke="#bfbfbf" points="146.5,-21 146.5,-51 261.5,-51 261.5,-21 146.5,-21"/>
<text text-anchor="start" x="154.5" y="-39" font-family="Helvetica,sans-Serif" font-size="10.00">vector&lt; std::unique</text>
<text text-anchor="middle" x="204" y="-28" font-family="Helvetica,sans-Serif" font-size="10.00">_ptr&lt; GameObject &gt; &gt;</text>
</g>
<!-- Node3&#45;&gt;Node2 -->
<g id="edge2" class="edge"><title>Node3&#45;&gt;Node2</title>
<path fill="none" stroke="#9a32cd" stroke-dasharray="5,2" d="M272.061,-33.3545C300.494,-33.0262 333.942,-33.687 364,-37 384.513,-39.261 407.545,-44.5896 423.327,-48.6832"/>
<polygon fill="#9a32cd" stroke="#9a32cd" points="271.771,-29.8586 261.828,-33.5171 271.882,-36.8577 271.771,-29.8586"/>
<text text-anchor="middle" x="327.5" y="-40" font-family="Helvetica,sans-Serif" font-size="10.00"> objectArray</text>
</g>
<!-- Node4 -->
<g id="node4" class="node"><title>Node4</title>
<polygon fill="white" stroke="#bfbfbf" points="186.5,-231.5 186.5,-250.5 221.5,-250.5 221.5,-231.5 186.5,-231.5"/>
<text text-anchor="middle" x="204" y="-238.5" font-family="Helvetica,sans-Serif" font-size="10.00">bool</text>
</g>
<!-- Node4&#45;&gt;Node2 -->
<g id="edge3" class="edge"><title>Node4&#45;&gt;Node2</title>
<path fill="none" stroke="#9a32cd" stroke-dasharray="5,2" d="M208.643,-221.302C216.517,-184.84 238.809,-107.252 291,-71 331.215,-43.0665 392.425,-46.6277 423.284,-50.7517"/>
<polygon fill="#9a32cd" stroke="#9a32cd" points="205.191,-220.711 206.644,-231.206 212.053,-222.095 205.191,-220.711"/>
<text text-anchor="middle" x="327.5" y="-85" font-family="Helvetica,sans-Serif" font-size="10.00"> quitRequested</text>
<text text-anchor="middle" x="327.5" y="-74" font-family="Helvetica,sans-Serif" font-size="10.00">popRequested</text>
</g>
<!-- Node14 -->
<g id="node14" class="node"><title>Node14</title>
<g id="a_node14"><a xlink:href="classSprite.html" target="_top" xlink:title="Classe que modela uma sprite. ">
<polygon fill="white" stroke="black" points="422.5,-1042.5 422.5,-1061.5 464.5,-1061.5 464.5,-1042.5 422.5,-1042.5"/>
<text text-anchor="middle" x="443.5" y="-1049.5" font-family="Helvetica,sans-Serif" font-size="10.00">Sprite</text>
</a>
</g>
</g>
<!-- Node4&#45;&gt;Node14 -->
<g id="edge20" class="edge"><title>Node4&#45;&gt;Node14</title>
<path fill="none" stroke="#9a32cd" stroke-dasharray="5,2" d="M209.431,-260.282C221.471,-313.362 255.084,-466.242 273,-595 279.364,-640.733 261.655,-766.351 291,-802 312.456,-828.065 339.537,-799.734 364,-823 430.085,-885.852 440.539,-1006.69 442.191,-1042.05"/>
<polygon fill="#9a32cd" stroke="#9a32cd" points="212.839,-259.485 207.203,-250.514 206.015,-261.042 212.839,-259.485"/>
<text text-anchor="middle" x="327.5" y="-826" font-family="Helvetica,sans-Serif" font-size="10.00"> highlightable</text>
</g>
<!-- Node26 -->
<g id="node26" class="node"><title>Node26</title>
<g id="a_node26"><a xlink:href="classUItext.html" target="_top" xlink:title="Classe que modela textos. ">
<polygon fill="white" stroke="black" points="668,-442.5 668,-461.5 712,-461.5 712,-442.5 668,-442.5"/>
<text text-anchor="middle" x="690" y="-449.5" font-family="Helvetica,sans-Serif" font-size="10.00">UItext</text>
</a>
</g>
</g>
<!-- Node4&#45;&gt;Node26 -->
<g id="edge40" class="edge"><title>Node4&#45;&gt;Node26</title>
<path fill="none" stroke="#9a32cd" stroke-dasharray="5,2" d="M226.252,-256.698C258.417,-279.778 322.079,-322.844 382,-348 477.615,-388.141 511.847,-367.165 608,-406 632.742,-415.993 659.239,-432.214 674.95,-442.483"/>
<polygon fill="#9a32cd" stroke="#9a32cd" points="228.196,-253.784 218.045,-250.75 224.088,-259.453 228.196,-253.784"/>
<text text-anchor="middle" x="443.5" y="-382" font-family="Helvetica,sans-Serif" font-size="10.00"> isStrobe</text>
</g>
<!-- Node4&#45;&gt;Node33 -->
<g id="edge48" class="edge"><title>Node4&#45;&gt;Node33</title>
<path fill="none" stroke="#9a32cd" stroke-dasharray="5,2" d="M221.425,-223.894C250.53,-194.965 314.485,-137.437 382,-116 481.871,-84.2901 608.772,-115.204 662.771,-131.437"/>
<polygon fill="#9a32cd" stroke="#9a32cd" points="218.704,-221.668 214.166,-231.241 223.684,-226.588 218.704,-221.668"/>
<text text-anchor="middle" x="443.5" y="-119" font-family="Helvetica,sans-Serif" font-size="10.00"> interactOnBoundingBox</text>
</g>
<!-- Node5 -->
<g id="node5" class="node"><title>Node5</title>
<g id="a_node5"><a xlink:href="classMusic.html" target="_top" xlink:title="Classe que modela músicas. ">
<polygon fill="white" stroke="black" points="890,-0.5 890,-19.5 933,-19.5 933,-0.5 890,-0.5"/>
<text text-anchor="middle" x="911.5" y="-7.5" font-family="Helvetica,sans-Serif" font-size="10.00">Music</text>
</a>
</g>
</g>
<!-- Node5&#45;&gt;Node1 -->
<g id="edge4" class="edge"><title>Node5&#45;&gt;Node1</title>
<path fill="none" stroke="#9a32cd" stroke-dasharray="5,2" d="M943.292,-3.53546C970.852,0.270458 1010.31,0.478729 1033,-23 1078.28,-69.8484 1079.58,-570.376 1079.52,-646.357"/>
<polygon fill="#9a32cd" stroke="#9a32cd" points="942.69,-0.0871911 933.371,-5.12838 943.8,-6.99866 942.69,-0.0871911"/>
<text text-anchor="middle" x="1002.5" y="-26" font-family="Helvetica,sans-Serif" font-size="10.00"> titleMusic</text>
</g>
<!-- Node6 -->
<g id="node6" class="node"><title>Node6</title>
<polygon fill="white" stroke="#bfbfbf" points="626,-0.5 626,-19.5 754,-19.5 754,-0.5 626,-0.5"/>
<text text-anchor="middle" x="690" y="-7.5" font-family="Helvetica,sans-Serif" font-size="10.00">shared_ptr&lt; Mix_Music &gt;</text>
</g>
<!-- Node6&#45;&gt;Node5 -->
<g id="edge5" class="edge"><title>Node6&#45;&gt;Node5</title>
<path fill="none" stroke="#9a32cd" stroke-dasharray="5,2" d="M764.326,-10C808.442,-10 861.414,-10 889.919,-10"/>
<polygon fill="#9a32cd" stroke="#9a32cd" points="764.194,-6.5001 754.194,-10 764.194,-13.5001 764.194,-6.5001"/>
<text text-anchor="middle" x="811.5" y="-13" font-family="Helvetica,sans-Serif" font-size="10.00"> music</text>
</g>
<!-- Node7 -->
<g id="node7" class="node"><title>Node7</title>
<g id="a_node7"><a xlink:href="classUIcanvas.html" target="_top" xlink:title="UIcanvas">
<polygon fill="white" stroke="black" points="660.5,-780.5 660.5,-799.5 719.5,-799.5 719.5,-780.5 660.5,-780.5"/>
<text text-anchor="middle" x="690" y="-787.5" font-family="Helvetica,sans-Serif" font-size="10.00">UIcanvas</text>
</a>
</g>
</g>
<!-- Node7&#45;&gt;Node1 -->
<g id="edge6" class="edge"><title>Node7&#45;&gt;Node1</title>
<path fill="none" stroke="#9a32cd" stroke-dasharray="5,2" d="M729.88,-790.655C797.715,-789.901 939.377,-779.719 1033,-713 1051.1,-700.104 1066.07,-678.406 1073.81,-665.829"/>
<polygon fill="#9a32cd" stroke="#9a32cd" points="729.629,-787.156 719.645,-790.702 729.661,-794.155 729.629,-787.156"/>
<text text-anchor="middle" x="911.5" y="-779" font-family="Helvetica,sans-Serif" font-size="10.00"> canvas</text>
</g>
<!-- Node23 -->
<g id="node23" class="node"><title>Node23</title>
<g id="a_node23"><a xlink:href="classUIverticalGroup.html" target="_top" xlink:title="UIverticalGroup">
<polygon fill="white" stroke="black" points="869,-713.5 869,-732.5 954,-732.5 954,-713.5 869,-713.5"/>
<text text-anchor="middle" x="911.5" y="-720.5" font-family="Helvetica,sans-Serif" font-size="10.00">UIverticalGroup</text>
</a>
</g>
</g>
<!-- Node7&#45;&gt;Node23 -->
<g id="edge29" class="edge"><title>Node7&#45;&gt;Node23</title>
<path fill="none" stroke="midnightblue" d="M729.621,-782.855C762.426,-776.251 810.496,-765.303 851,-751 865.425,-745.906 881.051,-738.473 892.669,-732.546"/>
<polygon fill="midnightblue" stroke="midnightblue" points="728.669,-779.475 719.535,-784.845 730.024,-786.343 728.669,-779.475"/>
</g>
<!-- Node8 -->
<g id="node8" class="node"><title>Node8</title>
<g id="a_node8"><a xlink:href="classUIelement.html" target="_top" xlink:title="UIelement">
<polygon fill="white" stroke="black" points="412.5,-780.5 412.5,-799.5 474.5,-799.5 474.5,-780.5 412.5,-780.5"/>
<text text-anchor="middle" x="443.5" y="-787.5" font-family="Helvetica,sans-Serif" font-size="10.00">UIelement</text>
</a>
</g>
</g>
<!-- Node8&#45;&gt;Node7 -->
<g id="edge7" class="edge"><title>Node8&#45;&gt;Node7</title>
<path fill="none" stroke="midnightblue" d="M485.012,-790C534.534,-790 617.081,-790 660.425,-790"/>
<polygon fill="midnightblue" stroke="midnightblue" points="484.972,-786.5 474.972,-790 484.972,-793.5 484.972,-786.5"/>
</g>
<!-- Node13 -->
<g id="node13" class="node"><title>Node13</title>
<g id="a_node13"><a xlink:href="classUIimage.html" target="_top" xlink:title="UIimage">
<polygon fill="white" stroke="black" points="663.5,-926.5 663.5,-945.5 716.5,-945.5 716.5,-926.5 663.5,-926.5"/>
<text text-anchor="middle" x="690" y="-933.5" font-family="Helvetica,sans-Serif" font-size="10.00">UIimage</text>
</a>
</g>
</g>
<!-- Node8&#45;&gt;Node13 -->
<g id="edge14" class="edge"><title>Node8&#45;&gt;Node13</title>
<path fill="none" stroke="midnightblue" d="M469.427,-804.885C519.531,-834.804 631.213,-901.493 672.899,-926.385"/>
<polygon fill="midnightblue" stroke="midnightblue" points="470.923,-801.701 460.542,-799.579 467.334,-807.711 470.923,-801.701"/>
</g>
<!-- Node8&#45;&gt;Node26 -->
<g id="edge34" class="edge"><title>Node8&#45;&gt;Node26</title>
<path fill="none" stroke="midnightblue" d="M467.006,-774.102C501.354,-748.868 567.164,-696.572 608,-639 651.189,-578.11 678.21,-490.557 686.375,-461.659"/>
<polygon fill="midnightblue" stroke="midnightblue" points="464.633,-771.5 458.591,-780.203 468.742,-777.167 464.633,-771.5"/>
</g>
<!-- Node9 -->
<g id="node9" class="node"><title>Node9</title>
<g id="a_node9"><a xlink:href="classVec2.html" target="_top" xlink:title="Classe que modela um vetor(no sentido físico) ">
<polygon fill="white" stroke="black" points="184.5,-860.5 184.5,-879.5 223.5,-879.5 223.5,-860.5 184.5,-860.5"/>
<text text-anchor="middle" x="204" y="-867.5" font-family="Helvetica,sans-Serif" font-size="10.00">Vec2</text>
</a>
</g>
</g>
<!-- Node9&#45;&gt;Node8 -->
<g id="edge8" class="edge"><title>Node9&#45;&gt;Node8</title>
<path fill="none" stroke="#9a32cd" stroke-dasharray="5,2" d="M229.184,-884.491C261.593,-901.866 320.115,-925.949 364,-903 406.971,-880.529 431.153,-822.641 439.325,-799.635"/>
<polygon fill="#9a32cd" stroke="#9a32cd" points="230.828,-881.4 220.388,-879.593 227.422,-887.516 230.828,-881.4"/>
<text text-anchor="middle" x="327.5" y="-926" font-family="Helvetica,sans-Serif" font-size="10.00"> center</text>
<text text-anchor="middle" x="327.5" y="-915" font-family="Helvetica,sans-Serif" font-size="10.00">kernelSize</text>
</g>
<!-- Node10 -->
<g id="node10" class="node"><title>Node10</title>
<polygon fill="white" stroke="#bfbfbf" points="21,-718.5 21,-737.5 56,-737.5 56,-718.5 21,-718.5"/>
<text text-anchor="middle" x="38.5" y="-725.5" font-family="Helvetica,sans-Serif" font-size="10.00">float</text>
</g>
<!-- Node10&#45;&gt;Node9 -->
<g id="edge9" class="edge"><title>Node10&#45;&gt;Node9</title>
<path fill="none" stroke="#9a32cd" stroke-dasharray="5,2" d="M58.3279,-744.352C92.533,-774.059 163.899,-836.041 191.634,-860.128"/>
<polygon fill="#9a32cd" stroke="#9a32cd" points="60.3267,-741.452 50.4816,-737.538 55.7366,-746.737 60.3267,-741.452"/>
<text text-anchor="middle" x="106" y="-808" font-family="Helvetica,sans-Serif" font-size="10.00"> x</text>
<text text-anchor="middle" x="106" y="-797" font-family="Helvetica,sans-Serif" font-size="10.00">y</text>
</g>
<!-- Node11 -->
<g id="node11" class="node"><title>Node11</title>
<g id="a_node11"><a xlink:href="classRect.html" target="_top" xlink:title="Classe que modela um rect. ">
<polygon fill="white" stroke="black" points="185,-718.5 185,-737.5 223,-737.5 223,-718.5 185,-718.5"/>
<text text-anchor="middle" x="204" y="-725.5" font-family="Helvetica,sans-Serif" font-size="10.00">Rect</text>
</a>
</g>
</g>
<!-- Node10&#45;&gt;Node11 -->
<g id="edge11" class="edge"><title>Node10&#45;&gt;Node11</title>
<path fill="none" stroke="#9a32cd" stroke-dasharray="5,2" d="M66.4916,-728C99.9802,-728 156.163,-728 184.89,-728"/>
<polygon fill="#9a32cd" stroke="#9a32cd" points="66.0771,-724.5 56.077,-728 66.077,-731.5 66.0771,-724.5"/>
<text text-anchor="middle" x="106" y="-764" font-family="Helvetica,sans-Serif" font-size="10.00"> w</text>
<text text-anchor="middle" x="106" y="-753" font-family="Helvetica,sans-Serif" font-size="10.00">x</text>
<text text-anchor="middle" x="106" y="-742" font-family="Helvetica,sans-Serif" font-size="10.00">h</text>
<text text-anchor="middle" x="106" y="-731" font-family="Helvetica,sans-Serif" font-size="10.00">y</text>
</g>
<!-- Node10&#45;&gt;Node13 -->
<g id="edge24" class="edge"><title>Node10&#45;&gt;Node13</title>
<path fill="none" stroke="#9a32cd" stroke-dasharray="5,2" d="M45.7132,-747.211C57.5924,-780.921 86.7256,-850.764 135,-889 297.683,-1017.85 577.866,-963.425 663.44,-942.685"/>
<polygon fill="#9a32cd" stroke="#9a32cd" points="48.9873,-745.968 42.4602,-737.622 42.3584,-748.217 48.9873,-745.968"/>
<text text-anchor="middle" x="327.5" y="-972" font-family="Helvetica,sans-Serif" font-size="10.00"> angle</text>
</g>
<!-- Node10&#45;&gt;Node14 -->
<g id="edge16" class="edge"><title>Node10&#45;&gt;Node14</title>
<path fill="none" stroke="#9a32cd" stroke-dasharray="5,2" d="M41.4768,-747.701C46.9953,-798.728 64.2166,-933.357 95,-964 152.536,-1021.27 194.31,-985.038 273,-1005 327.316,-1018.78 390.853,-1036.95 422.485,-1046.14"/>
<polygon fill="#9a32cd" stroke="#9a32cd" points="44.9457,-747.22 40.4247,-737.639 37.9837,-747.948 44.9457,-747.22"/>
<text text-anchor="middle" x="204" y="-1041" font-family="Helvetica,sans-Serif" font-size="10.00"> scaleY</text>
<text text-anchor="middle" x="204" y="-1030" font-family="Helvetica,sans-Serif" font-size="10.00">frameTime</text>
<text text-anchor="middle" x="204" y="-1019" font-family="Helvetica,sans-Serif" font-size="10.00">timeElapsed</text>
<text text-anchor="middle" x="204" y="-1008" font-family="Helvetica,sans-Serif" font-size="10.00">scaleX</text>
</g>
<!-- Node10&#45;&gt;Node23 -->
<g id="edge30" class="edge"><title>Node10&#45;&gt;Node23</title>
<path fill="none" stroke="#9a32cd" stroke-dasharray="5,2" d="M66.0216,-721.267C85.0704,-716.79 111.437,-711.321 135,-709 196.038,-702.987 211.67,-708.327 273,-709 497.715,-711.467 766.906,-718.825 868.736,-721.766"/>
<polygon fill="#9a32cd" stroke="#9a32cd" points="65.1546,-717.876 56.2561,-723.626 66.7984,-724.68 65.1546,-717.876"/>
<text text-anchor="middle" x="443.5" y="-716" font-family="Helvetica,sans-Serif" font-size="10.00"> padding</text>
</g>
<!-- Node10&#45;&gt;Node26 -->
<g id="edge38" class="edge"><title>Node10&#45;&gt;Node26</title>
<path fill="none" stroke="#9a32cd" stroke-dasharray="5,2" d="M44.6812,-708.105C55.3255,-671.087 83.127,-591.37 135,-547 226.879,-468.41 263.909,-458.937 382,-433 487.358,-409.86 617.592,-435.067 667.847,-446.732"/>
<polygon fill="#9a32cd" stroke="#9a32cd" points="41.1995,-707.566 41.921,-718.136 47.9487,-709.423 41.1995,-707.566"/>
<text text-anchor="middle" x="327.5" y="-469" font-family="Helvetica,sans-Serif" font-size="10.00"> timeShown</text>
<text text-anchor="middle" x="327.5" y="-458" font-family="Helvetica,sans-Serif" font-size="10.00">strobeFrequency</text>
</g>
<!-- Node31 -->
<g id="node31" class="node"><title>Node31</title>
<g id="a_node31"><a xlink:href="classTimer.html" target="_top" xlink:title="Temporizador. ">
<polygon fill="white" stroke="black" points="307,-536.5 307,-555.5 348,-555.5 348,-536.5 307,-536.5"/>
<text text-anchor="middle" x="327.5" y="-543.5" font-family="Helvetica,sans-Serif" font-size="10.00">Timer</text>
</a>
</g>
</g>
<!-- Node10&#45;&gt;Node31 -->
<g id="edge43" class="edge"><title>Node10&#45;&gt;Node31</title>
<path fill="none" stroke="#9a32cd" stroke-dasharray="5,2" d="M47.8036,-709.062C61.5759,-679.927 91.9559,-624.403 135,-595 189.408,-557.835 269.923,-548.855 306.78,-546.688"/>
<polygon fill="#9a32cd" stroke="#9a32cd" points="44.6092,-707.632 43.6312,-718.181 50.9746,-710.544 44.6092,-707.632"/>
<text text-anchor="middle" x="106" y="-635" font-family="Helvetica,sans-Serif" font-size="10.00"> time</text>
</g>
<!-- Node11&#45;&gt;Node8 -->
<g id="edge10" class="edge"><title>Node11&#45;&gt;Node8</title>
<path fill="none" stroke="#9a32cd" stroke-dasharray="5,2" d="M233.29,-726.65C265.705,-725.97 320.019,-727.507 364,-742 389.944,-750.549 416.254,-769.094 430.865,-780.466"/>
<polygon fill="#9a32cd" stroke="#9a32cd" points="233.074,-723.154 223.183,-726.95 233.282,-730.151 233.074,-723.154"/>
<text text-anchor="middle" x="327.5" y="-778" font-family="Helvetica,sans-Serif" font-size="10.00"> offsets</text>
<text text-anchor="middle" x="327.5" y="-767" font-family="Helvetica,sans-Serif" font-size="10.00">box</text>
<text text-anchor="middle" x="327.5" y="-756" font-family="Helvetica,sans-Serif" font-size="10.00">anchors</text>
<text text-anchor="middle" x="327.5" y="-745" font-family="Helvetica,sans-Serif" font-size="10.00">boundingBox</text>
</g>
<!-- Node12 -->
<g id="node12" class="node"><title>Node12</title>
<polygon fill="white" stroke="#bfbfbf" points="165.5,-780.5 165.5,-799.5 242.5,-799.5 242.5,-780.5 165.5,-780.5"/>
<text text-anchor="middle" x="204" y="-787.5" font-family="Helvetica,sans-Serif" font-size="10.00">BehaviorType</text>
</g>
<!-- Node12&#45;&gt;Node8 -->
<g id="edge12" class="edge"><title>Node12&#45;&gt;Node8</title>
<path fill="none" stroke="#9a32cd" stroke-dasharray="5,2" d="M252.695,-790C300.272,-790 371.916,-790 412.203,-790"/>
<polygon fill="#9a32cd" stroke="#9a32cd" points="252.633,-786.5 242.633,-790 252.633,-793.5 252.633,-786.5"/>
<text text-anchor="middle" x="327.5" y="-793" font-family="Helvetica,sans-Serif" font-size="10.00"> behavior</text>
</g>
<!-- Node13&#45;&gt;Node1 -->
<g id="edge13" class="edge"><title>Node13&#45;&gt;Node1</title>
<path fill="none" stroke="#9a32cd" stroke-dasharray="5,2" d="M726.399,-924.177C793.915,-900.062 942.412,-839.289 1033,-744 1055.74,-720.08 1070.43,-682.867 1076.43,-665.512"/>
<polygon fill="#9a32cd" stroke="#9a32cd" points="724.934,-920.982 716.66,-927.601 727.255,-927.586 724.934,-920.982"/>
<text text-anchor="middle" x="911.5" y="-929" font-family="Helvetica,sans-Serif" font-size="10.00"> title</text>
<text text-anchor="middle" x="911.5" y="-918" font-family="Helvetica,sans-Serif" font-size="10.00">icc</text>
<text text-anchor="middle" x="911.5" y="-907" font-family="Helvetica,sans-Serif" font-size="10.00">lua</text>
<text text-anchor="middle" x="911.5" y="-896" font-family="Helvetica,sans-Serif" font-size="10.00">bg</text>
<text text-anchor="middle" x="911.5" y="-885" font-family="Helvetica,sans-Serif" font-size="10.00">overlay</text>
<text text-anchor="middle" x="911.5" y="-874" font-family="Helvetica,sans-Serif" font-size="10.00">nuvemA</text>
<text text-anchor="middle" x="911.5" y="-863" font-family="Helvetica,sans-Serif" font-size="10.00">nuvemB</text>
</g>
<!-- Node14&#45;&gt;Node13 -->
<g id="edge15" class="edge"><title>Node14&#45;&gt;Node13</title>
<path fill="none" stroke="#9a32cd" stroke-dasharray="5,2" d="M474.092,-1041.14C507.277,-1028.63 562.419,-1006.84 608,-984 631.821,-972.063 658.145,-955.867 674.128,-945.675"/>
<polygon fill="#9a32cd" stroke="#9a32cd" points="472.673,-1037.93 464.533,-1044.71 475.125,-1044.49 472.673,-1037.93"/>
<text text-anchor="middle" x="565.5" y="-1024" font-family="Helvetica,sans-Serif" font-size="10.00"> sp</text>
</g>
<!-- Node15 -->
<g id="node15" class="node"><title>Node15</title>
<polygon fill="white" stroke="#bfbfbf" points="173,-1134.5 173,-1153.5 235,-1153.5 235,-1134.5 173,-1134.5"/>
<text text-anchor="middle" x="204" y="-1141.5" font-family="Helvetica,sans-Serif" font-size="10.00">SDL_Rect</text>
</g>
<!-- Node15&#45;&gt;Node14 -->
<g id="edge17" class="edge"><title>Node15&#45;&gt;Node14</title>
<path fill="none" stroke="#9a32cd" stroke-dasharray="5,2" d="M245.195,-1138.18C278.132,-1132.48 325.43,-1122.09 364,-1105 389.858,-1093.54 416.405,-1073.55 431.043,-1061.67"/>
<polygon fill="#9a32cd" stroke="#9a32cd" points="244.324,-1134.78 235.035,-1139.88 245.474,-1141.69 244.324,-1134.78"/>
<text text-anchor="middle" x="327.5" y="-1131" font-family="Helvetica,sans-Serif" font-size="10.00"> clipRect</text>
</g>
<!-- Node16 -->
<g id="node16" class="node"><title>Node16</title>
<polygon fill="white" stroke="#bfbfbf" points="189.5,-604.5 189.5,-623.5 218.5,-623.5 218.5,-604.5 189.5,-604.5"/>
<text text-anchor="middle" x="204" y="-611.5" font-family="Helvetica,sans-Serif" font-size="10.00">int</text>
</g>
<!-- Node16&#45;&gt;Node14 -->
<g id="edge18" class="edge"><title>Node16&#45;&gt;Node14</title>
<path fill="none" stroke="#9a32cd" stroke-dasharray="5,2" d="M228.796,-614.159C243.822,-615.618 262.346,-620.18 273,-633 301.946,-667.83 261.745,-801.429 291,-836 312.657,-861.592 338.864,-832.816 364,-855 423.347,-907.379 438.379,-1010.73 441.671,-1042.49"/>
<polygon fill="#9a32cd" stroke="#9a32cd" points="228.821,-610.655 218.635,-613.571 228.416,-617.643 228.821,-610.655"/>
<text text-anchor="middle" x="327.5" y="-891" font-family="Helvetica,sans-Serif" font-size="10.00"> width</text>
<text text-anchor="middle" x="327.5" y="-880" font-family="Helvetica,sans-Serif" font-size="10.00">currentFrame</text>
<text text-anchor="middle" x="327.5" y="-869" font-family="Helvetica,sans-Serif" font-size="10.00">height</text>
<text text-anchor="middle" x="327.5" y="-858" font-family="Helvetica,sans-Serif" font-size="10.00">frameCount</text>
</g>
<!-- Node21 -->
<g id="node21" class="node"><title>Node21</title>
<g id="a_node21"><a xlink:href="classSound.html" target="_top" xlink:title="Classe que modela sons. ">
<polygon fill="white" stroke="black" points="421.5,-650.5 421.5,-669.5 465.5,-669.5 465.5,-650.5 421.5,-650.5"/>
<text text-anchor="middle" x="443.5" y="-657.5" font-family="Helvetica,sans-Serif" font-size="10.00">Sound</text>
</a>
</g>
</g>
<!-- Node16&#45;&gt;Node21 -->
<g id="edge26" class="edge"><title>Node16&#45;&gt;Node21</title>
<path fill="none" stroke="#9a32cd" stroke-dasharray="5,2" d="M228.569,-617.48C259.695,-622.195 316.161,-631.161 364,-641 383.503,-645.011 405.523,-650.418 421.266,-654.439"/>
<polygon fill="#9a32cd" stroke="#9a32cd" points="229.08,-614.017 218.671,-615.995 228.041,-620.94 229.08,-614.017"/>
<text text-anchor="middle" x="327.5" y="-644" font-family="Helvetica,sans-Serif" font-size="10.00"> channel</text>
</g>
<!-- Node16&#45;&gt;Node26 -->
<g id="edge39" class="edge"><title>Node16&#45;&gt;Node26</title>
<path fill="none" stroke="#9a32cd" stroke-dasharray="5,2" d="M228.613,-610.372C304.518,-598.43 541.202,-558.942 608,-521 637.234,-504.395 665.841,-476.525 679.937,-461.801"/>
<polygon fill="#9a32cd" stroke="#9a32cd" points="227.961,-606.931 218.62,-611.93 229.04,-613.848 227.961,-606.931"/>
<text text-anchor="middle" x="443.5" y="-587" font-family="Helvetica,sans-Serif" font-size="10.00"> fontSize</text>
</g>
<!-- Node17 -->
<g id="node17" class="node"><title>Node17</title>
<polygon fill="white" stroke="#bfbfbf" points="135,-1096.5 135,-1115.5 273,-1115.5 273,-1096.5 135,-1096.5"/>
<text text-anchor="middle" x="204" y="-1103.5" font-family="Helvetica,sans-Serif" font-size="10.00">shared_ptr&lt; SDL_Texture &gt;</text>
</g>
<!-- Node17&#45;&gt;Node14 -->
<g id="edge19" class="edge"><title>Node17&#45;&gt;Node14</title>
<path fill="none" stroke="#9a32cd" stroke-dasharray="5,2" d="M273.978,-1094.7C302.055,-1089.65 334.728,-1083.21 364,-1076 384.064,-1071.06 406.583,-1064.01 422.34,-1058.83"/>
<polygon fill="#9a32cd" stroke="#9a32cd" points="273.091,-1091.3 263.856,-1096.49 274.313,-1098.19 273.091,-1091.3"/>
<text text-anchor="middle" x="327.5" y="-1093" font-family="Helvetica,sans-Serif" font-size="10.00"> texture</text>
</g>
<!-- Node18 -->
<g id="node18" class="node"><title>Node18</title>
<polygon fill="white" stroke="#bfbfbf" points="159,-1058.5 159,-1077.5 249,-1077.5 249,-1058.5 159,-1058.5"/>
<text text-anchor="middle" x="204" y="-1065.5" font-family="Helvetica,sans-Serif" font-size="10.00">SDL_BlendMode</text>
</g>
<!-- Node18&#45;&gt;Node14 -->
<g id="edge21" class="edge"><title>Node18&#45;&gt;Node14</title>
<path fill="none" stroke="#9a32cd" stroke-dasharray="5,2" d="M259.151,-1064.35C311.001,-1060.86 386.468,-1055.77 422.24,-1053.36"/>
<polygon fill="#9a32cd" stroke="#9a32cd" points="258.857,-1060.86 249.115,-1065.03 259.328,-1067.85 258.857,-1060.86"/>
<text text-anchor="middle" x="327.5" y="-1064" font-family="Helvetica,sans-Serif" font-size="10.00"> blendMode</text>
</g>
<!-- Node19 -->
<g id="node19" class="node"><title>Node19</title>
<g id="a_node19"><a xlink:href="structColor.html" target="_top" xlink:title="Struct para armazenar informações de cor. ">
<polygon fill="white" stroke="black" points="184,-1172.5 184,-1191.5 224,-1191.5 224,-1172.5 184,-1172.5"/>
<text text-anchor="middle" x="204" y="-1179.5" font-family="Helvetica,sans-Serif" font-size="10.00">Color</text>
</a>
</g>
</g>
<!-- Node19&#45;&gt;Node14 -->
<g id="edge22" class="edge"><title>Node19&#45;&gt;Node14</title>
<path fill="none" stroke="#9a32cd" stroke-dasharray="5,2" d="M234.113,-1180.18C267.643,-1176.93 323.326,-1167.92 364,-1143 398.513,-1121.85 425.798,-1080.5 436.99,-1061.71"/>
<polygon fill="#9a32cd" stroke="#9a32cd" points="233.716,-1176.7 224.052,-1181.04 234.315,-1183.67 233.716,-1176.7"/>
<text text-anchor="middle" x="327.5" y="-1173" font-family="Helvetica,sans-Serif" font-size="10.00"> colorMultiplier</text>
</g>
<!-- Node20 -->
<g id="node20" class="node"><title>Node20</title>
<polygon fill="white" stroke="#bfbfbf" points="0,-1172.5 0,-1191.5 77,-1191.5 77,-1172.5 0,-1172.5"/>
<text text-anchor="middle" x="38.5" y="-1179.5" font-family="Helvetica,sans-Serif" font-size="10.00">unsigned char</text>
</g>
<!-- Node20&#45;&gt;Node19 -->
<g id="edge23" class="edge"><title>Node20&#45;&gt;Node19</title>
<path fill="none" stroke="#9a32cd" stroke-dasharray="5,2" d="M87.1577,-1182C119.449,-1182 160.387,-1182 183.946,-1182"/>
<polygon fill="#9a32cd" stroke="#9a32cd" points="87.0102,-1178.5 77.0102,-1182 87.0102,-1185.5 87.0102,-1178.5"/>
<text text-anchor="middle" x="106" y="-1218" font-family="Helvetica,sans-Serif" font-size="10.00"> g</text>
<text text-anchor="middle" x="106" y="-1207" font-family="Helvetica,sans-Serif" font-size="10.00">a</text>
<text text-anchor="middle" x="106" y="-1196" font-family="Helvetica,sans-Serif" font-size="10.00">r</text>
<text text-anchor="middle" x="106" y="-1185" font-family="Helvetica,sans-Serif" font-size="10.00">b</text>
</g>
<!-- Node21&#45;&gt;Node1 -->
<g id="edge25" class="edge"><title>Node21&#45;&gt;Node1</title>
<path fill="none" stroke="#9a32cd" stroke-dasharray="5,2" d="M475.948,-659.802C584.966,-659.115 945.725,-656.843 1050.64,-656.182"/>
<polygon fill="#9a32cd" stroke="#9a32cd" points="475.605,-656.304 465.628,-659.867 475.649,-663.304 475.605,-656.304"/>
<text text-anchor="middle" x="811.5" y="-661" font-family="Helvetica,sans-Serif" font-size="10.00"> clickSound</text>
</g>
<!-- Node22 -->
<g id="node22" class="node"><title>Node22</title>
<polygon fill="white" stroke="#bfbfbf" points="139,-642.5 139,-661.5 269,-661.5 269,-642.5 139,-642.5"/>
<text text-anchor="middle" x="204" y="-649.5" font-family="Helvetica,sans-Serif" font-size="10.00">shared_ptr&lt; Mix_Chunk &gt;</text>
</g>
<!-- Node22&#45;&gt;Node21 -->
<g id="edge27" class="edge"><title>Node22&#45;&gt;Node21</title>
<path fill="none" stroke="#9a32cd" stroke-dasharray="5,2" d="M279.27,-654.502C328.537,-656.161 389.744,-658.223 421.372,-659.288"/>
<polygon fill="#9a32cd" stroke="#9a32cd" points="279.383,-651.004 269.271,-654.165 279.147,-658 279.383,-651.004"/>
<text text-anchor="middle" x="327.5" y="-661" font-family="Helvetica,sans-Serif" font-size="10.00"> sound</text>
</g>
<!-- Node23&#45;&gt;Node1 -->
<g id="edge28" class="edge"><title>Node23&#45;&gt;Node1</title>
<path fill="none" stroke="#9a32cd" stroke-dasharray="5,2" d="M945.948,-709.581C978.41,-696.557 1026.87,-677.116 1055.62,-665.582"/>
<polygon fill="#9a32cd" stroke="#9a32cd" points="944.405,-706.429 936.427,-713.401 947.011,-712.925 944.405,-706.429"/>
<text text-anchor="middle" x="1002.5" y="-701" font-family="Helvetica,sans-Serif" font-size="10.00"> optionsGroup</text>
</g>
<!-- Node24 -->
<g id="node24" class="node"><title>Node24</title>
<polygon fill="white" stroke="#bfbfbf" points="633.5,-734.5 633.5,-753.5 746.5,-753.5 746.5,-734.5 633.5,-734.5"/>
<text text-anchor="middle" x="690" y="-741.5" font-family="Helvetica,sans-Serif" font-size="10.00">vector&lt; UIelement * &gt;</text>
</g>
<!-- Node24&#45;&gt;Node23 -->
<g id="edge31" class="edge"><title>Node24&#45;&gt;Node23</title>
<path fill="none" stroke="#9a32cd" stroke-dasharray="5,2" d="M756.702,-737.714C793.045,-734.237 837.115,-730.021 868.748,-726.994"/>
<polygon fill="#9a32cd" stroke="#9a32cd" points="756.294,-734.237 746.673,-738.674 756.961,-741.205 756.294,-734.237"/>
<text text-anchor="middle" x="811.5" y="-739" font-family="Helvetica,sans-Serif" font-size="10.00"> groupedElements</text>
</g>
<!-- Node25 -->
<g id="node25" class="node"><title>Node25</title>
<g id="a_node25"><a xlink:href="classUItextButton.html" target="_top" xlink:title="UItextButton">
<polygon fill="white" stroke="black" points="875.5,-360.5 875.5,-379.5 947.5,-379.5 947.5,-360.5 875.5,-360.5"/>
<text text-anchor="middle" x="911.5" y="-367.5" font-family="Helvetica,sans-Serif" font-size="10.00">UItextButton</text>
</a>
</g>
</g>
<!-- Node25&#45;&gt;Node1 -->
<g id="edge32" class="edge"><title>Node25&#45;&gt;Node1</title>
<path fill="none" stroke="#9a32cd" stroke-dasharray="5,2" d="M923.111,-388.173C955.107,-442.968 1049.91,-605.324 1073.92,-646.449"/>
<polygon fill="#9a32cd" stroke="#9a32cd" points="926.121,-386.386 918.056,-379.516 920.076,-389.916 926.121,-386.386"/>
<text text-anchor="middle" x="1002.5" y="-608" font-family="Helvetica,sans-Serif" font-size="10.00"> exitBtn</text>
<text text-anchor="middle" x="1002.5" y="-597" font-family="Helvetica,sans-Serif" font-size="10.00">editorBtn</text>
<text text-anchor="middle" x="1002.5" y="-586" font-family="Helvetica,sans-Serif" font-size="10.00">playBtn</text>
<text text-anchor="middle" x="1002.5" y="-575" font-family="Helvetica,sans-Serif" font-size="10.00">configBtn</text>
</g>
<!-- Node26&#45;&gt;Node25 -->
<g id="edge33" class="edge"><title>Node26&#45;&gt;Node25</title>
<path fill="none" stroke="midnightblue" d="M721.534,-440.593C765.054,-424.335 844.145,-394.789 884.822,-379.593"/>
<polygon fill="midnightblue" stroke="midnightblue" points="720.189,-437.359 712.047,-444.137 722.639,-443.917 720.189,-437.359"/>
</g>
<!-- Node27 -->
<g id="node27" class="node"><title>Node27</title>
<polygon fill="white" stroke="#bfbfbf" points="382,-612.5 382,-631.5 505,-631.5 505,-612.5 382,-612.5"/>
<text text-anchor="middle" x="443.5" y="-619.5" font-family="Helvetica,sans-Serif" font-size="10.00">shared_ptr&lt; TTF_Font &gt;</text>
</g>
<!-- Node27&#45;&gt;Node26 -->
<g id="edge35" class="edge"><title>Node27&#45;&gt;Node26</title>
<path fill="none" stroke="#9a32cd" stroke-dasharray="5,2" d="M515.432,-624.638C546.233,-622.56 581.292,-615.53 608,-597 657.279,-562.811 679.952,-488.457 686.722,-461.775"/>
<polygon fill="#9a32cd" stroke="#9a32cd" points="514.977,-621.157 505.168,-625.163 515.334,-628.148 514.977,-621.157"/>
<text text-anchor="middle" x="565.5" y="-627" font-family="Helvetica,sans-Serif" font-size="10.00"> font</text>
</g>
<!-- Node28 -->
<g id="node28" class="node"><title>Node28</title>
<polygon fill="white" stroke="#bfbfbf" points="411,-279.5 411,-298.5 476,-298.5 476,-279.5 411,-279.5"/>
<text text-anchor="middle" x="443.5" y="-286.5" font-family="Helvetica,sans-Serif" font-size="10.00">SDL_Color</text>
</g>
<!-- Node28&#45;&gt;Node25 -->
<g id="edge50" class="edge"><title>Node28&#45;&gt;Node25</title>
<path fill="none" stroke="#9a32cd" stroke-dasharray="5,2" d="M486.537,-290.701C519.672,-292.437 566.971,-295.789 608,-302 705.928,-316.823 819.356,-345.467 875.414,-360.407"/>
<polygon fill="#9a32cd" stroke="#9a32cd" points="486.463,-287.193 476.302,-290.193 486.116,-294.185 486.463,-287.193"/>
<text text-anchor="middle" x="690" y="-366" font-family="Helvetica,sans-Serif" font-size="10.00"> pressedColor</text>
<text text-anchor="middle" x="690" y="-355" font-family="Helvetica,sans-Serif" font-size="10.00">disabledColor</text>
<text text-anchor="middle" x="690" y="-344" font-family="Helvetica,sans-Serif" font-size="10.00">highlightedColor</text>
<text text-anchor="middle" x="690" y="-333" font-family="Helvetica,sans-Serif" font-size="10.00">enabledColor</text>
</g>
<!-- Node28&#45;&gt;Node26 -->
<g id="edge36" class="edge"><title>Node28&#45;&gt;Node26</title>
<path fill="none" stroke="#9a32cd" stroke-dasharray="5,2" d="M486.448,-295.695C531.521,-303.167 598.066,-315.11 608,-322 652.795,-353.067 677.789,-417.741 685.97,-442.276"/>
<polygon fill="#9a32cd" stroke="#9a32cd" points="486.778,-292.203 476.343,-294.035 485.643,-299.11 486.778,-292.203"/>
<text text-anchor="middle" x="565.5" y="-325" font-family="Helvetica,sans-Serif" font-size="10.00"> color</text>
</g>
<!-- Node29 -->
<g id="node29" class="node"><title>Node29</title>
<polygon fill="white" stroke="#bfbfbf" points="403,-442.5 403,-461.5 484,-461.5 484,-442.5 403,-442.5"/>
<text text-anchor="middle" x="443.5" y="-449.5" font-family="Helvetica,sans-Serif" font-size="10.00">SDL_Texture *</text>
</g>
<!-- Node29&#45;&gt;Node26 -->
<g id="edge37" class="edge"><title>Node29&#45;&gt;Node26</title>
<path fill="none" stroke="#9a32cd" stroke-dasharray="5,2" d="M494.314,-452C547.632,-452 629.703,-452 667.987,-452"/>
<polygon fill="#9a32cd" stroke="#9a32cd" points="494.055,-448.5 484.055,-452 494.055,-455.5 494.055,-448.5"/>
<text text-anchor="middle" x="565.5" y="-455" font-family="Helvetica,sans-Serif" font-size="10.00"> texture</text>
</g>
<!-- Node30 -->
<g id="node30" class="node"><title>Node30</title>
<polygon fill="white" stroke="#bfbfbf" points="423,-319.5 423,-338.5 464,-338.5 464,-319.5 423,-319.5"/>
<text text-anchor="middle" x="443.5" y="-326.5" font-family="Helvetica,sans-Serif" font-size="10.00">string</text>
</g>
<!-- Node30&#45;&gt;Node26 -->
<g id="edge41" class="edge"><title>Node30&#45;&gt;Node26</title>
<path fill="none" stroke="#9a32cd" stroke-dasharray="5,2" d="M474.212,-331.434C514.958,-335.187 585.671,-343.31 608,-356 645.349,-377.226 673.182,-422.633 684.027,-442.435"/>
<polygon fill="#9a32cd" stroke="#9a32cd" points="474.333,-327.931 464.063,-330.533 473.714,-334.904 474.333,-327.931"/>
<text text-anchor="middle" x="565.5" y="-370" font-family="Helvetica,sans-Serif" font-size="10.00"> fontFile</text>
<text text-anchor="middle" x="565.5" y="-359" font-family="Helvetica,sans-Serif" font-size="10.00">text</text>
</g>
<!-- Node31&#45;&gt;Node26 -->
<g id="edge42" class="edge"><title>Node31&#45;&gt;Node26</title>
<path fill="none" stroke="#9a32cd" stroke-dasharray="5,2" d="M358.544,-543.565C410.587,-538.683 520.345,-525.442 608,-495 632.515,-486.486 658.65,-471.381 674.403,-461.531"/>
<polygon fill="#9a32cd" stroke="#9a32cd" points="357.989,-540.101 348.343,-544.483 358.617,-547.073 357.989,-540.101"/>
<text text-anchor="middle" x="443.5" y="-544" font-family="Helvetica,sans-Serif" font-size="10.00"> textTime</text>
</g>
<!-- Node32 -->
<g id="node32" class="node"><title>Node32</title>
<polygon fill="white" stroke="#bfbfbf" points="414,-480.5 414,-499.5 473,-499.5 473,-480.5 414,-480.5"/>
<text text-anchor="middle" x="443.5" y="-487.5" font-family="Helvetica,sans-Serif" font-size="10.00">TextStyle</text>
</g>
<!-- Node32&#45;&gt;Node26 -->
<g id="edge44" class="edge"><title>Node32&#45;&gt;Node26</title>
<path fill="none" stroke="#9a32cd" stroke-dasharray="5,2" d="M483.394,-485.011C516.566,-480.641 565.494,-473.922 608,-467 628.327,-463.69 651.415,-459.357 667.726,-456.2"/>
<polygon fill="#9a32cd" stroke="#9a32cd" points="482.667,-481.577 473.206,-486.345 483.576,-488.517 482.667,-481.577"/>
<text text-anchor="middle" x="565.5" y="-483" font-family="Helvetica,sans-Serif" font-size="10.00"> style</text>
</g>
<!-- Node33&#45;&gt;Node25 -->
<g id="edge45" class="edge"><title>Node33&#45;&gt;Node25</title>
<path fill="none" stroke="midnightblue" d="M714.101,-155.715C747.112,-178.926 808.48,-224.951 851,-274 875.661,-302.447 896.799,-342.223 905.827,-360.334"/>
<polygon fill="midnightblue" stroke="midnightblue" points="715.789,-152.626 705.581,-149.789 711.793,-158.373 715.789,-152.626"/>
</g>
<!-- Node34 -->
<g id="node34" class="node"><title>Node34</title>
<polygon fill="white" stroke="#bfbfbf" points="406,-208.5 406,-227.5 481,-227.5 481,-208.5 406,-208.5"/>
<text text-anchor="middle" x="443.5" y="-215.5" font-family="Helvetica,sans-Serif" font-size="10.00">void(*)(void *)</text>
</g>
<!-- Node34&#45;&gt;Node33 -->
<g id="edge46" class="edge"><title>Node34&#45;&gt;Node33</title>
<path fill="none" stroke="#9a32cd" stroke-dasharray="5,2" d="M491.529,-217.47C525.009,-215.721 570.522,-210.507 608,-196 636.06,-185.138 663.823,-162.743 678.434,-149.806"/>
<polygon fill="#9a32cd" stroke="#9a32cd" points="490.945,-213.992 481.107,-217.924 491.25,-220.986 490.945,-213.992"/>
<text text-anchor="middle" x="565.5" y="-262" font-family="Helvetica,sans-Serif" font-size="10.00"> pressedCallback</text>
<text text-anchor="middle" x="565.5" y="-251" font-family="Helvetica,sans-Serif" font-size="10.00">disabledCallback</text>
<text text-anchor="middle" x="565.5" y="-240" font-family="Helvetica,sans-Serif" font-size="10.00">highlightedCallback</text>
<text text-anchor="middle" x="565.5" y="-229" font-family="Helvetica,sans-Serif" font-size="10.00">enabledCallback</text>
<text text-anchor="middle" x="565.5" y="-218" font-family="Helvetica,sans-Serif" font-size="10.00">clickedCallback</text>
</g>
<!-- Node35 -->
<g id="node35" class="node"><title>Node35</title>
<polygon fill="white" stroke="#bfbfbf" points="423,-136.5 423,-155.5 464,-155.5 464,-136.5 423,-136.5"/>
<text text-anchor="middle" x="443.5" y="-143.5" font-family="Helvetica,sans-Serif" font-size="10.00">void *</text>
</g>
<!-- Node35&#45;&gt;Node33 -->
<g id="edge49" class="edge"><title>Node35&#45;&gt;Node33</title>
<path fill="none" stroke="#9a32cd" stroke-dasharray="5,2" d="M474.193,-143.704C488.871,-142.672 506.856,-141.562 523,-141 572.396,-139.28 630.109,-139.415 662.827,-139.693"/>
<polygon fill="#9a32cd" stroke="#9a32cd" points="473.884,-140.217 464.164,-144.433 474.391,-147.199 473.884,-140.217"/>
<text text-anchor="middle" x="565.5" y="-188" font-family="Helvetica,sans-Serif" font-size="10.00"> clickCaller</text>
<text text-anchor="middle" x="565.5" y="-177" font-family="Helvetica,sans-Serif" font-size="10.00">disableCaller</text>
<text text-anchor="middle" x="565.5" y="-166" font-family="Helvetica,sans-Serif" font-size="10.00">highlightedCaller</text>
<text text-anchor="middle" x="565.5" y="-155" font-family="Helvetica,sans-Serif" font-size="10.00">pressedCaller</text>
<text text-anchor="middle" x="565.5" y="-144" font-family="Helvetica,sans-Serif" font-size="10.00">enabledCaller</text>
</g>
</g>
</svg>
