<?xml version="1.0" encoding="UTF-8" standalone="no"?>
<!DOCTYPE svg PUBLIC "-//W3C//DTD SVG 1.1//EN"
 "http://www.w3.org/Graphics/SVG/1.1/DTD/svg11.dtd">
<!-- Generated by graphviz version 2.36.0 (20140111.2315)
 -->
<!-- Title: StageState Pages: 1 -->
<svg width="1426pt" height="914pt"
 viewBox="0.00 0.00 1426.00 914.15" xmlns="http://www.w3.org/2000/svg" xmlns:xlink="http://www.w3.org/1999/xlink">
<g id="graph0" class="graph" transform="scale(1 1) rotate(0) translate(4 910.145)">
<title>StageState</title>
<polygon fill="white" stroke="none" points="-4,4 -4,-910.145 1422,-910.145 1422,4 -4,4"/>
<!-- Node1 -->
<g id="node1" class="node"><title>Node1</title>
<polygon fill="#bfbfbf" stroke="black" points="1352.5,-600.645 1352.5,-619.645 1417.5,-619.645 1417.5,-600.645 1352.5,-600.645"/>
<text text-anchor="middle" x="1385" y="-607.645" font-family="Helvetica,sans-Serif" font-size="10.00">StageState</text>
</g>
<!-- Node2 -->
<g id="node2" class="node"><title>Node2</title>
<g id="a_node2"><a xlink:href="classState.html" target="_top" xlink:title="Classe virtual que modela um estado do jogo. ">
<polygon fill="white" stroke="black" points="927,-566.645 927,-585.645 967,-585.645 967,-566.645 927,-566.645"/>
<text text-anchor="middle" x="947" y="-573.645" font-family="Helvetica,sans-Serif" font-size="10.00">State</text>
</a>
</g>
</g>
<!-- Node2&#45;&gt;Node1 -->
<g id="edge1" class="edge"><title>Node2&#45;&gt;Node1</title>
<path fill="none" stroke="midnightblue" d="M977.158,-578.419C1055.68,-584.542 1271.12,-601.343 1352.4,-607.681"/>
<polygon fill="midnightblue" stroke="midnightblue" points="977.257,-574.916 967.015,-577.628 976.712,-581.895 977.257,-574.916"/>
</g>
<!-- Node3 -->
<g id="node3" class="node"><title>Node3</title>
<polygon fill="white" stroke="#bfbfbf" points="618.5,-516.145 618.5,-546.145 733.5,-546.145 733.5,-516.145 618.5,-516.145"/>
<text text-anchor="start" x="626.5" y="-534.145" font-family="Helvetica,sans-Serif" font-size="10.00">vector&lt; std::unique</text>
<text text-anchor="middle" x="676" y="-523.145" font-family="Helvetica,sans-Serif" font-size="10.00">_ptr&lt; GameObject &gt; &gt;</text>
</g>
<!-- Node3&#45;&gt;Node2 -->
<g id="edge2" class="edge"><title>Node3&#45;&gt;Node2</title>
<path fill="none" stroke="#9a32cd" stroke-dasharray="5,2" d="M743.932,-542.342C804.273,-552.436 889.126,-566.631 926.746,-572.924"/>
<polygon fill="#9a32cd" stroke="#9a32cd" points="744.16,-538.832 733.719,-540.634 743.005,-545.736 744.16,-538.832"/>
<text text-anchor="middle" x="802" y="-562.145" font-family="Helvetica,sans-Serif" font-size="10.00"> objectArray</text>
</g>
<!-- Node4 -->
<g id="node4" class="node"><title>Node4</title>
<polygon fill="white" stroke="#bfbfbf" points="658.5,-477.645 658.5,-496.645 693.5,-496.645 693.5,-477.645 658.5,-477.645"/>
<text text-anchor="middle" x="676" y="-484.645" font-family="Helvetica,sans-Serif" font-size="10.00">bool</text>
</g>
<!-- Node4&#45;&gt;Node2 -->
<g id="edge3" class="edge"><title>Node4&#45;&gt;Node2</title>
<path fill="none" stroke="#9a32cd" stroke-dasharray="5,2" d="M703.383,-480.871C745.343,-471.575 824.724,-456.989 846,-474.145 875.383,-497.839 837.498,-530.267 864,-557.145 880.416,-573.795 908.343,-577.054 926.98,-577.157"/>
<polygon fill="#9a32cd" stroke="#9a32cd" points="702.555,-477.47 693.579,-483.098 704.106,-484.296 702.555,-477.47"/>
<text text-anchor="middle" x="802" y="-488.145" font-family="Helvetica,sans-Serif" font-size="10.00"> quitRequested</text>
<text text-anchor="middle" x="802" y="-477.145" font-family="Helvetica,sans-Serif" font-size="10.00">popRequested</text>
</g>
<!-- Node17 -->
<g id="node17" class="node"><title>Node17</title>
<g id="a_node17"><a xlink:href="classWaveManager.html" target="_top" xlink:title="Classe que gerenci´a as waves do jogo. Responsavel por iniciar, encerrar e contar as waves...">
<polygon fill="white" stroke="black" points="1172,-442.645 1172,-461.645 1252,-461.645 1252,-442.645 1172,-442.645"/>
<text text-anchor="middle" x="1212" y="-449.645" font-family="Helvetica,sans-Serif" font-size="10.00">WaveManager</text>
</a>
</g>
</g>
<!-- Node4&#45;&gt;Node17 -->
<g id="edge23" class="edge"><title>Node4&#45;&gt;Node17</title>
<path fill="none" stroke="#9a32cd" stroke-dasharray="5,2" d="M703.153,-478.328C718.896,-473.289 739.425,-467.188 758,-463.145 908.087,-430.477 1092.74,-441.242 1171.93,-448.191"/>
<polygon fill="#9a32cd" stroke="#9a32cd" points="701.99,-475.026 693.568,-481.453 704.16,-481.681 701.99,-475.026"/>
<text text-anchor="middle" x="947" y="-450.145" font-family="Helvetica,sans-Serif" font-size="10.00"> endWave</text>
</g>
<!-- Node19 -->
<g id="node19" class="node"><title>Node19</title>
<g id="a_node19"><a xlink:href="classTileMap.html" target="_top" xlink:title="Classe que modela o TileMap. ">
<polygon fill="white" stroke="black" points="921.5,-604.645 921.5,-623.645 972.5,-623.645 972.5,-604.645 921.5,-604.645"/>
<text text-anchor="middle" x="947" y="-611.645" font-family="Helvetica,sans-Serif" font-size="10.00">TileMap</text>
</a>
</g>
</g>
<!-- Node4&#45;&gt;Node19 -->
<g id="edge29" class="edge"><title>Node4&#45;&gt;Node19</title>
<path fill="none" stroke="#9a32cd" stroke-dasharray="5,2" d="M703.917,-490.852C746.324,-497.219 825.938,-511.47 846,-531.145 867.096,-551.834 842.627,-574.743 864,-595.145 879.221,-609.675 903.264,-613.871 921.388,-614.761"/>
<polygon fill="#9a32cd" stroke="#9a32cd" points="704.152,-487.35 693.752,-489.371 703.143,-494.277 704.152,-487.35"/>
<text text-anchor="middle" x="802" y="-534.145" font-family="Helvetica,sans-Serif" font-size="10.00"> displayCollisionInfo</text>
</g>
<!-- Node28 -->
<g id="node28" class="node"><title>Node28</title>
<g id="a_node28"><a xlink:href="classInputManager.html" target="_top" xlink:title="Classe que organiza entradas do usuário. ">
<polygon fill="white" stroke="black" points="909,-222.645 909,-241.645 985,-241.645 985,-222.645 909,-222.645"/>
<text text-anchor="middle" x="947" y="-229.645" font-family="Helvetica,sans-Serif" font-size="10.00">InputManager</text>
</a>
</g>
</g>
<!-- Node4&#45;&gt;Node28 -->
<g id="edge45" class="edge"><title>Node4&#45;&gt;Node28</title>
<path fill="none" stroke="#9a32cd" stroke-dasharray="5,2" d="M703.678,-483.54C716.65,-480.363 731.286,-474.386 740,-463.145 783.842,-406.588 711.16,-357.246 758,-303.145 784.46,-272.583 808.048,-294.067 846,-280.145 876.012,-269.136 909.149,-252.222 928.74,-241.69"/>
<polygon fill="#9a32cd" stroke="#9a32cd" points="702.887,-480.129 693.775,-485.536 704.269,-486.991 702.887,-480.129"/>
<text text-anchor="middle" x="802" y="-317.145" font-family="Helvetica,sans-Serif" font-size="10.00"> quitRequested</text>
<text text-anchor="middle" x="802" y="-306.145" font-family="Helvetica,sans-Serif" font-size="10.00">mouseState</text>
</g>
<!-- Node5 -->
<g id="node5" class="node"><title>Node5</title>
<polygon fill="white" stroke="#bfbfbf" points="888.5,-528.645 888.5,-547.645 1005.5,-547.645 1005.5,-528.645 888.5,-528.645"/>
<text text-anchor="middle" x="947" y="-535.645" font-family="Helvetica,sans-Serif" font-size="10.00">vector&lt; vector&lt; int &gt; &gt;</text>
</g>
<!-- Node5&#45;&gt;Node1 -->
<g id="edge4" class="edge"><title>Node5&#45;&gt;Node1</title>
<path fill="none" stroke="#9a32cd" stroke-dasharray="5,2" d="M1015.7,-545.435C1077.5,-552.526 1171.24,-564.376 1252,-579.145 1286.62,-585.476 1325.82,-594.985 1352.45,-601.801"/>
<polygon fill="#9a32cd" stroke="#9a32cd" points="1016.02,-541.949 1005.68,-544.296 1015.22,-548.904 1016.02,-541.949"/>
<text text-anchor="middle" x="1212" y="-582.145" font-family="Helvetica,sans-Serif" font-size="10.00"> spawnGroups</text>
</g>
<!-- Node5&#45;&gt;Node17 -->
<g id="edge21" class="edge"><title>Node5&#45;&gt;Node17</title>
<path fill="none" stroke="#9a32cd" stroke-dasharray="5,2" d="M1012.02,-525.586C1018.24,-523.465 1024.33,-521.002 1030,-518.145 1039.3,-513.457 1038.64,-507.714 1048,-503.145 1091.32,-481.994 1108.47,-496.001 1154,-480.145 1167.95,-475.286 1182.92,-467.842 1194.01,-461.851"/>
<polygon fill="#9a32cd" stroke="#9a32cd" points="1010.7,-522.331 1002.19,-528.643 1012.78,-529.015 1010.7,-522.331"/>
<text text-anchor="middle" x="1101" y="-506.145" font-family="Helvetica,sans-Serif" font-size="10.00"> spawnGroups</text>
</g>
<!-- Node6 -->
<g id="node6" class="node"><title>Node6</title>
<g id="a_node6"><a xlink:href="classMusic.html" target="_top" xlink:title="Classe que modela músicas. ">
<polygon fill="white" stroke="black" points="1190.5,-749.645 1190.5,-768.645 1233.5,-768.645 1233.5,-749.645 1190.5,-749.645"/>
<text text-anchor="middle" x="1212" y="-756.645" font-family="Helvetica,sans-Serif" font-size="10.00">Music</text>
</a>
</g>
</g>
<!-- Node6&#45;&gt;Node1 -->
<g id="edge5" class="edge"><title>Node6&#45;&gt;Node1</title>
<path fill="none" stroke="#9a32cd" stroke-dasharray="5,2" d="M1244.26,-760.778C1270.97,-760.507 1308.95,-755.949 1334,-735.145 1370.68,-704.682 1380.65,-643.393 1383.19,-619.752"/>
<polygon fill="#9a32cd" stroke="#9a32cd" points="1243.96,-757.275 1233.92,-760.677 1243.89,-764.275 1243.96,-757.275"/>
<text text-anchor="middle" x="1302" y="-762.145" font-family="Helvetica,sans-Serif" font-size="10.00"> music</text>
</g>
<!-- Node7 -->
<g id="node7" class="node"><title>Node7</title>
<polygon fill="white" stroke="#bfbfbf" points="883,-749.645 883,-768.645 1011,-768.645 1011,-749.645 883,-749.645"/>
<text text-anchor="middle" x="947" y="-756.645" font-family="Helvetica,sans-Serif" font-size="10.00">shared_ptr&lt; Mix_Music &gt;</text>
</g>
<!-- Node7&#45;&gt;Node6 -->
<g id="edge6" class="edge"><title>Node7&#45;&gt;Node6</title>
<path fill="none" stroke="#9a32cd" stroke-dasharray="5,2" d="M1021.45,-759.145C1078.79,-759.145 1154.55,-759.145 1190.45,-759.145"/>
<polygon fill="#9a32cd" stroke="#9a32cd" points="1021.33,-755.645 1011.33,-759.145 1021.33,-762.645 1021.33,-755.645"/>
<text text-anchor="middle" x="1101" y="-762.145" font-family="Helvetica,sans-Serif" font-size="10.00"> music</text>
</g>
<!-- Node8 -->
<g id="node8" class="node"><title>Node8</title>
<g id="a_node8"><a xlink:href="classSprite.html" target="_top" xlink:title="Classe que modela uma sprite. ">
<polygon fill="white" stroke="black" points="401,-785.645 401,-804.645 443,-804.645 443,-785.645 401,-785.645"/>
<text text-anchor="middle" x="422" y="-792.645" font-family="Helvetica,sans-Serif" font-size="10.00">Sprite</text>
</a>
</g>
</g>
<!-- Node8&#45;&gt;Node1 -->
<g id="edge7" class="edge"><title>Node8&#45;&gt;Node1</title>
<path fill="none" stroke="#9a32cd" stroke-dasharray="5,2" d="M453.425,-797.132C500.775,-800.048 594.978,-805.145 675,-805.145 675,-805.145 675,-805.145 1213,-805.145 1268.51,-805.145 1293.87,-812.504 1334,-774.145 1379.19,-730.953 1383.88,-648.265 1384.11,-619.944"/>
<polygon fill="#9a32cd" stroke="#9a32cd" points="453.441,-793.626 443.241,-796.494 453.003,-800.613 453.441,-793.626"/>
<text text-anchor="middle" x="947" y="-808.145" font-family="Helvetica,sans-Serif" font-size="10.00"> bg</text>
</g>
<!-- Node16 -->
<g id="node16" class="node"><title>Node16</title>
<g id="a_node16"><a xlink:href="classTileSet.html" target="_top" xlink:title="Classe responsável por modelar um tileset. ">
<polygon fill="white" stroke="black" points="652.5,-711.645 652.5,-730.645 699.5,-730.645 699.5,-711.645 652.5,-711.645"/>
<text text-anchor="middle" x="676" y="-718.645" font-family="Helvetica,sans-Serif" font-size="10.00">TileSet</text>
</a>
</g>
</g>
<!-- Node8&#45;&gt;Node16 -->
<g id="edge17" class="edge"><title>Node8&#45;&gt;Node16</title>
<path fill="none" stroke="#9a32cd" stroke-dasharray="5,2" d="M452.967,-786.345C503.967,-771.369 606.538,-741.249 652.188,-727.844"/>
<polygon fill="#9a32cd" stroke="#9a32cd" points="451.805,-783.039 443.196,-789.215 453.777,-789.755 451.805,-783.039"/>
<text text-anchor="middle" x="547" y="-775.145" font-family="Helvetica,sans-Serif" font-size="10.00"> tileSet</text>
</g>
<!-- Node9 -->
<g id="node9" class="node"><title>Node9</title>
<polygon fill="white" stroke="#bfbfbf" points="0.5,-853.645 0.5,-872.645 77.5,-872.645 77.5,-853.645 0.5,-853.645"/>
<text text-anchor="middle" x="39" y="-860.645" font-family="Helvetica,sans-Serif" font-size="10.00">unsigned char</text>
</g>
<!-- Node9&#45;&gt;Node8 -->
<g id="edge8" class="edge"><title>Node9&#45;&gt;Node8</title>
<path fill="none" stroke="#9a32cd" stroke-dasharray="5,2" d="M75.0999,-876.06C89.9643,-880.879 107.607,-885.758 124,-888.145 184.693,-896.985 201.148,-895.813 262,-888.145 299.325,-883.442 311.008,-885.224 344,-867.145 373.853,-850.787 400.974,-820.191 413.573,-804.682"/>
<polygon fill="#9a32cd" stroke="#9a32cd" points="75.8965,-872.635 65.3025,-872.765 73.6649,-879.27 75.8965,-872.635"/>
<text text-anchor="middle" x="193" y="-898.145" font-family="Helvetica,sans-Serif" font-size="10.00"> alpha</text>
</g>
<!-- Node15 -->
<g id="node15" class="node"><title>Node15</title>
<g id="a_node15"><a xlink:href="structColor.html" target="_top" xlink:title="Struct para armazenar informações de cor. ">
<polygon fill="white" stroke="black" points="173,-745.645 173,-764.645 213,-764.645 213,-745.645 173,-745.645"/>
<text text-anchor="middle" x="193" y="-752.645" font-family="Helvetica,sans-Serif" font-size="10.00">Color</text>
</a>
</g>
</g>
<!-- Node9&#45;&gt;Node15 -->
<g id="edge15" class="edge"><title>Node9&#45;&gt;Node15</title>
<path fill="none" stroke="#9a32cd" stroke-dasharray="5,2" d="M52.2891,-845.139C67.0196,-824.917 93.5619,-792.531 124,-774.145 139.004,-765.082 158.463,-760.216 172.719,-757.686"/>
<polygon fill="#9a32cd" stroke="#9a32cd" points="49.3049,-843.297 46.3806,-853.48 55.017,-847.343 49.3049,-843.297"/>
<text text-anchor="middle" x="101" y="-820.145" font-family="Helvetica,sans-Serif" font-size="10.00"> g</text>
<text text-anchor="middle" x="101" y="-809.145" font-family="Helvetica,sans-Serif" font-size="10.00">r</text>
<text text-anchor="middle" x="101" y="-798.145" font-family="Helvetica,sans-Serif" font-size="10.00">b</text>
</g>
<!-- Node10 -->
<g id="node10" class="node"><title>Node10</title>
<polygon fill="white" stroke="#bfbfbf" points="175.5,-143.645 175.5,-162.645 210.5,-162.645 210.5,-143.645 175.5,-143.645"/>
<text text-anchor="middle" x="193" y="-150.645" font-family="Helvetica,sans-Serif" font-size="10.00">float</text>
</g>
<!-- Node10&#45;&gt;Node8 -->
<g id="edge9" class="edge"><title>Node10&#45;&gt;Node8</title>
<path fill="none" stroke="#9a32cd" stroke-dasharray="5,2" d="M200.75,-172.298C223.126,-236.209 296.154,-448.214 344,-627.145 353.639,-663.191 347.172,-674.906 362,-709.145 375.168,-739.551 399.659,-770.432 412.556,-785.572"/>
<polygon fill="#9a32cd" stroke="#9a32cd" points="204.005,-171.004 197.39,-162.728 197.401,-173.323 204.005,-171.004"/>
<text text-anchor="middle" x="312" y="-663.145" font-family="Helvetica,sans-Serif" font-size="10.00"> scaleY</text>
<text text-anchor="middle" x="312" y="-652.145" font-family="Helvetica,sans-Serif" font-size="10.00">frameTime</text>
<text text-anchor="middle" x="312" y="-641.145" font-family="Helvetica,sans-Serif" font-size="10.00">timeElapsed</text>
<text text-anchor="middle" x="312" y="-630.145" font-family="Helvetica,sans-Serif" font-size="10.00">scaleX</text>
</g>
<!-- Node23 -->
<g id="node23" class="node"><title>Node23</title>
<g id="a_node23"><a xlink:href="classTimer.html" target="_top" xlink:title="Temporizador. ">
<polygon fill="white" stroke="black" points="526.5,-347.645 526.5,-366.645 567.5,-366.645 567.5,-347.645 526.5,-347.645"/>
<text text-anchor="middle" x="547" y="-354.645" font-family="Helvetica,sans-Serif" font-size="10.00">Timer</text>
</a>
</g>
</g>
<!-- Node10&#45;&gt;Node23 -->
<g id="edge32" class="edge"><title>Node10&#45;&gt;Node23</title>
<path fill="none" stroke="#9a32cd" stroke-dasharray="5,2" d="M214.795,-168.755C262.759,-204.139 385.793,-291.381 500,-343.145 508.364,-346.936 518.033,-350.054 526.341,-352.377"/>
<polygon fill="#9a32cd" stroke="#9a32cd" points="216.848,-165.92 206.732,-162.772 212.677,-171.542 216.848,-165.92"/>
<text text-anchor="middle" x="312" y="-258.145" font-family="Helvetica,sans-Serif" font-size="10.00"> time</text>
</g>
<!-- Node25 -->
<g id="node25" class="node"><title>Node25</title>
<g id="a_node25"><a xlink:href="classGameObject.html" target="_top" xlink:title="Classe virtual que especifica o funcionamento de um GameObject. ">
<polygon fill="white" stroke="black" points="640.5,-10.6452 640.5,-29.6452 711.5,-29.6452 711.5,-10.6452 640.5,-10.6452"/>
<text text-anchor="middle" x="676" y="-17.6452" font-family="Helvetica,sans-Serif" font-size="10.00">GameObject</text>
</a>
</g>
</g>
<!-- Node10&#45;&gt;Node25 -->
<g id="edge39" class="edge"><title>Node10&#45;&gt;Node25</title>
<path fill="none" stroke="#9a32cd" stroke-dasharray="5,2" d="M207.77,-135.554C233.782,-104.031 293.703,-39.241 362,-18.1452 459.092,11.8451 581.351,-3.04572 640.202,-13.2515"/>
<polygon fill="#9a32cd" stroke="#9a32cd" points="204.914,-133.52 201.353,-143.499 210.359,-137.918 204.914,-133.52"/>
<text text-anchor="middle" x="422" y="-21.1452" font-family="Helvetica,sans-Serif" font-size="10.00"> rotation</text>
</g>
<!-- Node26 -->
<g id="node26" class="node"><title>Node26</title>
<g id="a_node26"><a xlink:href="classRect.html" target="_top" xlink:title="Classe que modela um rect. ">
<polygon fill="white" stroke="black" points="403,-76.6452 403,-95.6452 441,-95.6452 441,-76.6452 403,-76.6452"/>
<text text-anchor="middle" x="422" y="-83.6452" font-family="Helvetica,sans-Serif" font-size="10.00">Rect</text>
</a>
</g>
</g>
<!-- Node10&#45;&gt;Node26 -->
<g id="edge38" class="edge"><title>Node10&#45;&gt;Node26</title>
<path fill="none" stroke="#9a32cd" stroke-dasharray="5,2" d="M209.242,-136.342C225.098,-120.217 251.548,-96.9172 280,-87.1452 321.906,-72.7525 375.039,-78.2121 402.575,-82.6464"/>
<polygon fill="#9a32cd" stroke="#9a32cd" points="206.704,-133.932 202.347,-143.59 211.776,-138.757 206.704,-133.932"/>
<text text-anchor="middle" x="312" y="-123.145" font-family="Helvetica,sans-Serif" font-size="10.00"> w</text>
<text text-anchor="middle" x="312" y="-112.145" font-family="Helvetica,sans-Serif" font-size="10.00">x</text>
<text text-anchor="middle" x="312" y="-101.145" font-family="Helvetica,sans-Serif" font-size="10.00">h</text>
<text text-anchor="middle" x="312" y="-90.1452" font-family="Helvetica,sans-Serif" font-size="10.00">y</text>
</g>
<!-- Node29 -->
<g id="node29" class="node"><title>Node29</title>
<g id="a_node29"><a xlink:href="classVec2.html" target="_top" xlink:title="Classe que modela um vetor(no sentido físico) ">
<polygon fill="white" stroke="black" points="527.5,-117.645 527.5,-136.645 566.5,-136.645 566.5,-117.645 527.5,-117.645"/>
<text text-anchor="middle" x="547" y="-124.645" font-family="Helvetica,sans-Serif" font-size="10.00">Vec2</text>
</a>
</g>
</g>
<!-- Node10&#45;&gt;Node29 -->
<g id="edge43" class="edge"><title>Node10&#45;&gt;Node29</title>
<path fill="none" stroke="#9a32cd" stroke-dasharray="5,2" d="M220.867,-151.161C289.343,-146.103 469.11,-132.825 527.438,-128.516"/>
<polygon fill="#9a32cd" stroke="#9a32cd" points="220.221,-147.699 210.506,-151.926 220.736,-154.68 220.221,-147.699"/>
<text text-anchor="middle" x="312" y="-161.145" font-family="Helvetica,sans-Serif" font-size="10.00"> x</text>
<text text-anchor="middle" x="312" y="-150.145" font-family="Helvetica,sans-Serif" font-size="10.00">y</text>
</g>
<!-- Node11 -->
<g id="node11" class="node"><title>Node11</title>
<polygon fill="white" stroke="#bfbfbf" points="162,-859.645 162,-878.645 224,-878.645 224,-859.645 162,-859.645"/>
<text text-anchor="middle" x="193" y="-866.645" font-family="Helvetica,sans-Serif" font-size="10.00">SDL_Rect</text>
</g>
<!-- Node11&#45;&gt;Node8 -->
<g id="edge10" class="edge"><title>Node11&#45;&gt;Node8</title>
<path fill="none" stroke="#9a32cd" stroke-dasharray="5,2" d="M234.105,-862.495C264.758,-856.768 307.764,-847.332 344,-834.145 365.967,-826.151 389.755,-813.417 404.987,-804.689"/>
<polygon fill="#9a32cd" stroke="#9a32cd" points="233.423,-859.062 224.211,-864.295 234.676,-865.948 233.423,-859.062"/>
<text text-anchor="middle" x="312" y="-855.145" font-family="Helvetica,sans-Serif" font-size="10.00"> clipRect</text>
</g>
<!-- Node12 -->
<g id="node12" class="node"><title>Node12</title>
<polygon fill="white" stroke="#bfbfbf" points="178.5,-603.645 178.5,-622.645 207.5,-622.645 207.5,-603.645 178.5,-603.645"/>
<text text-anchor="middle" x="193" y="-610.645" font-family="Helvetica,sans-Serif" font-size="10.00">int</text>
</g>
<!-- Node12&#45;&gt;Node8 -->
<g id="edge11" class="edge"><title>Node12&#45;&gt;Node8</title>
<path fill="none" stroke="#9a32cd" stroke-dasharray="5,2" d="M216.243,-628.58C252.117,-653.57 321.048,-702.017 344,-721.145 369.922,-742.749 397.904,-771.037 411.916,-785.586"/>
<polygon fill="#9a32cd" stroke="#9a32cd" points="218.091,-625.602 207.883,-622.764 214.094,-631.348 218.091,-625.602"/>
<text text-anchor="middle" x="312" y="-757.145" font-family="Helvetica,sans-Serif" font-size="10.00"> width</text>
<text text-anchor="middle" x="312" y="-746.145" font-family="Helvetica,sans-Serif" font-size="10.00">currentFrame</text>
<text text-anchor="middle" x="312" y="-735.145" font-family="Helvetica,sans-Serif" font-size="10.00">height</text>
<text text-anchor="middle" x="312" y="-724.145" font-family="Helvetica,sans-Serif" font-size="10.00">frameCount</text>
</g>
<!-- Node12&#45;&gt;Node16 -->
<g id="edge18" class="edge"><title>Node12&#45;&gt;Node16</title>
<path fill="none" stroke="#9a32cd" stroke-dasharray="5,2" d="M217.465,-618.414C299.372,-636.805 571.959,-698.009 652.441,-716.08"/>
<polygon fill="#9a32cd" stroke="#9a32cd" points="218.144,-614.979 207.621,-616.203 216.611,-621.809 218.144,-614.979"/>
<text text-anchor="middle" x="422" y="-712.145" font-family="Helvetica,sans-Serif" font-size="10.00"> tileHeight</text>
<text text-anchor="middle" x="422" y="-701.145" font-family="Helvetica,sans-Serif" font-size="10.00">rows</text>
<text text-anchor="middle" x="422" y="-690.145" font-family="Helvetica,sans-Serif" font-size="10.00">tileWidth</text>
<text text-anchor="middle" x="422" y="-679.145" font-family="Helvetica,sans-Serif" font-size="10.00">columns</text>
</g>
<!-- Node12&#45;&gt;Node17 -->
<g id="edge22" class="edge"><title>Node12&#45;&gt;Node17</title>
<path fill="none" stroke="#9a32cd" stroke-dasharray="5,2" d="M202.356,-594.03C227.183,-540.526 306.007,-393.145 421,-393.145 421,-393.145 421,-393.145 948,-393.145 1037.14,-393.145 1139.25,-425.816 1185.67,-442.534"/>
<polygon fill="#9a32cd" stroke="#9a32cd" points="199.047,-592.854 198.116,-603.408 205.425,-595.738 199.047,-592.854"/>
<text text-anchor="middle" x="676" y="-451.145" font-family="Helvetica,sans-Serif" font-size="10.00"> totalWaves</text>
<text text-anchor="middle" x="676" y="-440.145" font-family="Helvetica,sans-Serif" font-size="10.00">playerLifes</text>
<text text-anchor="middle" x="676" y="-429.145" font-family="Helvetica,sans-Serif" font-size="10.00">enemiesLeft</text>
<text text-anchor="middle" x="676" y="-418.145" font-family="Helvetica,sans-Serif" font-size="10.00">waveIndex</text>
<text text-anchor="middle" x="676" y="-407.145" font-family="Helvetica,sans-Serif" font-size="10.00">waveCount</text>
<text text-anchor="middle" x="676" y="-396.145" font-family="Helvetica,sans-Serif" font-size="10.00">enemyIndex</text>
</g>
<!-- Node12&#45;&gt;Node19 -->
<g id="edge28" class="edge"><title>Node12&#45;&gt;Node19</title>
<path fill="none" stroke="#9a32cd" stroke-dasharray="5,2" d="M217.992,-613.177C330.713,-613.327 806.992,-613.96 921.275,-614.112"/>
<polygon fill="#9a32cd" stroke="#9a32cd" points="217.699,-609.677 207.694,-613.163 217.69,-616.677 217.699,-609.677"/>
<text text-anchor="middle" x="547" y="-639.145" font-family="Helvetica,sans-Serif" font-size="10.00"> mapDepth</text>
<text text-anchor="middle" x="547" y="-628.145" font-family="Helvetica,sans-Serif" font-size="10.00">mapHeight</text>
<text text-anchor="middle" x="547" y="-617.145" font-family="Helvetica,sans-Serif" font-size="10.00">mapWidth</text>
</g>
<!-- Node12&#45;&gt;Node28 -->
<g id="edge44" class="edge"><title>Node12&#45;&gt;Node28</title>
<path fill="none" stroke="#9a32cd" stroke-dasharray="5,2" d="M198.405,-593.505C207.788,-555.293 232.841,-469.821 280,-414.145 355.218,-325.344 389.211,-307.772 500,-272.145 573.286,-248.578 769.746,-265.703 846,-255.145 868.058,-252.091 892.416,-246.536 911.57,-241.65"/>
<polygon fill="#9a32cd" stroke="#9a32cd" points="194.969,-592.829 196.078,-603.365 201.782,-594.437 194.969,-592.829"/>
<text text-anchor="middle" x="547" y="-330.145" font-family="Helvetica,sans-Serif" font-size="10.00"> mouseX</text>
<text text-anchor="middle" x="547" y="-319.145" font-family="Helvetica,sans-Serif" font-size="10.00">mouseY</text>
<text text-anchor="middle" x="547" y="-308.145" font-family="Helvetica,sans-Serif" font-size="10.00">controllerStickUpdate</text>
<text text-anchor="middle" x="547" y="-297.145" font-family="Helvetica,sans-Serif" font-size="10.00">mouseScroolUpdate</text>
<text text-anchor="middle" x="547" y="-286.145" font-family="Helvetica,sans-Serif" font-size="10.00">updateCounter</text>
<text text-anchor="middle" x="547" y="-275.145" font-family="Helvetica,sans-Serif" font-size="10.00">mouseUpdate</text>
</g>
<!-- Node13 -->
<g id="node13" class="node"><title>Node13</title>
<polygon fill="white" stroke="#bfbfbf" points="124,-821.645 124,-840.645 262,-840.645 262,-821.645 124,-821.645"/>
<text text-anchor="middle" x="193" y="-828.645" font-family="Helvetica,sans-Serif" font-size="10.00">shared_ptr&lt; SDL_Texture &gt;</text>
</g>
<!-- Node13&#45;&gt;Node8 -->
<g id="edge12" class="edge"><title>Node13&#45;&gt;Node8</title>
<path fill="none" stroke="#9a32cd" stroke-dasharray="5,2" d="M272.146,-820.201C295.303,-816.818 320.697,-812.971 344,-809.145 363.307,-805.975 385.257,-801.942 400.768,-799.019"/>
<polygon fill="#9a32cd" stroke="#9a32cd" points="271.42,-816.769 262.027,-821.67 272.426,-823.697 271.42,-816.769"/>
<text text-anchor="middle" x="312" y="-822.145" font-family="Helvetica,sans-Serif" font-size="10.00"> texture</text>
</g>
<!-- Node14 -->
<g id="node14" class="node"><title>Node14</title>
<polygon fill="white" stroke="#bfbfbf" points="148,-783.645 148,-802.645 238,-802.645 238,-783.645 148,-783.645"/>
<text text-anchor="middle" x="193" y="-790.645" font-family="Helvetica,sans-Serif" font-size="10.00">SDL_BlendMode</text>
</g>
<!-- Node14&#45;&gt;Node8 -->
<g id="edge13" class="edge"><title>Node14&#45;&gt;Node8</title>
<path fill="none" stroke="#9a32cd" stroke-dasharray="5,2" d="M248.176,-793.622C297.249,-794.055 366.903,-794.669 400.844,-794.968"/>
<polygon fill="#9a32cd" stroke="#9a32cd" points="248.068,-790.121 238.037,-793.533 248.006,-797.121 248.068,-790.121"/>
<text text-anchor="middle" x="312" y="-798.145" font-family="Helvetica,sans-Serif" font-size="10.00"> blendMode</text>
</g>
<!-- Node15&#45;&gt;Node8 -->
<g id="edge14" class="edge"><title>Node15&#45;&gt;Node8</title>
<path fill="none" stroke="#9a32cd" stroke-dasharray="5,2" d="M223.377,-759.435C253.668,-763.955 302.235,-771.469 344,-779.145 363.337,-782.699 385.283,-787.317 400.785,-790.678"/>
<polygon fill="#9a32cd" stroke="#9a32cd" points="223.871,-755.97 213.466,-757.966 222.845,-762.895 223.871,-755.97"/>
<text text-anchor="middle" x="312" y="-782.145" font-family="Helvetica,sans-Serif" font-size="10.00"> colorMultiplier</text>
</g>
<!-- Node16&#45;&gt;Node1 -->
<g id="edge16" class="edge"><title>Node16&#45;&gt;Node1</title>
<path fill="none" stroke="#9a32cd" stroke-dasharray="5,2" d="M710.036,-719.605C744.139,-717.873 798.861,-714.694 846,-710.145 1027.08,-692.673 1071.92,-683.946 1252,-658.145 1288.53,-652.912 1299.79,-658.968 1334,-645.145 1348.93,-639.112 1363.76,-627.904 1373.34,-619.794"/>
<polygon fill="#9a32cd" stroke="#9a32cd" points="709.539,-716.126 699.725,-720.117 709.886,-723.117 709.539,-716.126"/>
<text text-anchor="middle" x="1101" y="-691.145" font-family="Helvetica,sans-Serif" font-size="10.00"> tileSet</text>
</g>
<!-- Node16&#45;&gt;Node19 -->
<g id="edge25" class="edge"><title>Node16&#45;&gt;Node19</title>
<path fill="none" stroke="#9a32cd" stroke-dasharray="5,2" d="M709.664,-710.941C744.003,-699.936 799.406,-681.391 846,-662.145 875.012,-650.162 907.62,-633.979 927.483,-623.802"/>
<polygon fill="#9a32cd" stroke="#9a32cd" points="708.184,-707.739 699.716,-714.107 710.307,-714.409 708.184,-707.739"/>
<text text-anchor="middle" x="802" y="-698.145" font-family="Helvetica,sans-Serif" font-size="10.00"> tileSet</text>
</g>
<!-- Node17&#45;&gt;Node1 -->
<g id="edge19" class="edge"><title>Node17&#45;&gt;Node1</title>
<path fill="none" stroke="#9a32cd" stroke-dasharray="5,2" d="M1245.97,-465.76C1272.23,-477.853 1308.65,-497.568 1334,-523.145 1357.3,-546.656 1373.56,-583.191 1380.39,-600.467"/>
<polygon fill="#9a32cd" stroke="#9a32cd" points="1247.35,-462.545 1236.8,-461.653 1244.49,-468.934 1247.35,-462.545"/>
<text text-anchor="middle" x="1302" y="-526.145" font-family="Helvetica,sans-Serif" font-size="10.00"> waveManager</text>
</g>
<!-- Node18 -->
<g id="node18" class="node"><title>Node18</title>
<g id="a_node18"><a xlink:href="classComponent.html" target="_top" xlink:title="Modela os componentes. ">
<polygon fill="white" stroke="black" points="913.5,-345.645 913.5,-364.645 980.5,-364.645 980.5,-345.645 913.5,-345.645"/>
<text text-anchor="middle" x="947" y="-352.645" font-family="Helvetica,sans-Serif" font-size="10.00">Component</text>
</a>
</g>
</g>
<!-- Node18&#45;&gt;Node17 -->
<g id="edge20" class="edge"><title>Node18&#45;&gt;Node17</title>
<path fill="none" stroke="midnightblue" d="M990.724,-350.9C1034.55,-348.563 1103.29,-350.652 1154,-379.145 1180.35,-393.953 1198.74,-426.381 1206.65,-442.564"/>
<polygon fill="midnightblue" stroke="midnightblue" points="990.446,-347.41 980.687,-351.536 990.889,-354.396 990.446,-347.41"/>
</g>
<!-- Node19&#45;&gt;Node1 -->
<g id="edge33" class="edge"><title>Node19&#45;&gt;Node1</title>
<path fill="none" stroke="#9a32cd" stroke-dasharray="5,2" d="M982.836,-613.826C1065.62,-613.066 1273.1,-611.163 1352.46,-610.435"/>
<polygon fill="#9a32cd" stroke="#9a32cd" points="982.658,-610.327 972.69,-613.919 982.722,-617.327 982.658,-610.327"/>
<text text-anchor="middle" x="1212" y="-615.145" font-family="Helvetica,sans-Serif" font-size="10.00"> tileMap</text>
</g>
<!-- Node19&#45;&gt;Node17 -->
<g id="edge24" class="edge"><title>Node19&#45;&gt;Node17</title>
<path fill="none" stroke="#9a32cd" stroke-dasharray="5,2" d="M982.634,-608.914C997.584,-605.951 1015.04,-601.527 1030,-595.145 1090.55,-569.319 1103.78,-556.704 1154,-514.145 1173.63,-497.508 1193.21,-474.442 1203.53,-461.651"/>
<polygon fill="#9a32cd" stroke="#9a32cd" points="981.945,-605.482 972.746,-610.737 983.214,-612.366 981.945,-605.482"/>
<text text-anchor="middle" x="1101" y="-590.145" font-family="Helvetica,sans-Serif" font-size="10.00"> tileMap</text>
</g>
<!-- Node20 -->
<g id="node20" class="node"><title>Node20</title>
<polygon fill="white" stroke="#bfbfbf" points="640,-652.645 640,-671.645 712,-671.645 712,-652.645 640,-652.645"/>
<text text-anchor="middle" x="676" y="-659.645" font-family="Helvetica,sans-Serif" font-size="10.00">vector&lt; int &gt;</text>
</g>
<!-- Node20&#45;&gt;Node1 -->
<g id="edge34" class="edge"><title>Node20&#45;&gt;Node1</title>
<path fill="none" stroke="#9a32cd" stroke-dasharray="5,2" d="M722.399,-661.61C756.433,-661.078 804.153,-660.054 846,-658.145 1063.16,-648.238 1120.11,-663.954 1334,-625.145 1341.31,-623.818 1349.07,-621.803 1356.24,-619.675"/>
<polygon fill="#9a32cd" stroke="#9a32cd" points="722.244,-658.112 712.297,-661.76 722.348,-665.111 722.244,-658.112"/>
<text text-anchor="middle" x="1101" y="-657.145" font-family="Helvetica,sans-Serif" font-size="10.00"> waves</text>
</g>
<!-- Node20&#45;&gt;Node19 -->
<g id="edge26" class="edge"><title>Node20&#45;&gt;Node19</title>
<path fill="none" stroke="#9a32cd" stroke-dasharray="5,2" d="M722.076,-653.721C733.77,-651.556 746.352,-649.246 758,-647.145 816.538,-636.588 885.414,-624.611 921.351,-618.396"/>
<polygon fill="#9a32cd" stroke="#9a32cd" points="721.266,-650.311 712.072,-655.576 722.543,-657.193 721.266,-650.311"/>
<text text-anchor="middle" x="802" y="-650.145" font-family="Helvetica,sans-Serif" font-size="10.00"> tileMatrix</text>
</g>
<!-- Node21 -->
<g id="node21" class="node"><title>Node21</title>
<polygon fill="white" stroke="#bfbfbf" points="614.5,-565.645 614.5,-584.645 737.5,-584.645 737.5,-565.645 614.5,-565.645"/>
<text text-anchor="middle" x="676" y="-572.645" font-family="Helvetica,sans-Serif" font-size="10.00">vector&lt; GameObject * &gt;</text>
</g>
<!-- Node21&#45;&gt;Node19 -->
<g id="edge27" class="edge"><title>Node21&#45;&gt;Node19</title>
<path fill="none" stroke="#9a32cd" stroke-dasharray="5,2" d="M747.989,-575.975C778.468,-577.518 814.292,-580.927 846,-588.145 854.37,-590.05 855.798,-592.614 864,-595.145 882.991,-601.005 904.946,-606.001 921.357,-609.397"/>
<polygon fill="#9a32cd" stroke="#9a32cd" points="748.018,-572.473 737.871,-575.52 747.704,-579.466 748.018,-572.473"/>
<text text-anchor="middle" x="802" y="-591.145" font-family="Helvetica,sans-Serif" font-size="10.00"> gameObjectMatrix</text>
</g>
<!-- Node22 -->
<g id="node22" class="node"><title>Node22</title>
<polygon fill="white" stroke="#bfbfbf" points="864,-468.645 864,-509.645 1030,-509.645 1030,-468.645 864,-468.645"/>
<text text-anchor="start" x="872" y="-497.645" font-family="Helvetica,sans-Serif" font-size="10.00">shared_ptr&lt; std::pair</text>
<text text-anchor="start" x="872" y="-486.645" font-family="Helvetica,sans-Serif" font-size="10.00">&lt; std::vector&lt; WaveData</text>
<text text-anchor="middle" x="947" y="-475.645" font-family="Helvetica,sans-Serif" font-size="10.00"> &gt;, std::vector&lt; EnemyData &gt; &gt; &gt;</text>
</g>
<!-- Node22&#45;&gt;Node17 -->
<g id="edge30" class="edge"><title>Node22&#45;&gt;Node17</title>
<path fill="none" stroke="#9a32cd" stroke-dasharray="5,2" d="M1039.93,-470.419C1042.65,-469.974 1045.34,-469.549 1048,-469.145 1090.05,-462.761 1138.58,-458.036 1171.68,-455.209"/>
<polygon fill="#9a32cd" stroke="#9a32cd" points="1039.3,-466.977 1030.02,-472.1 1040.47,-473.878 1039.3,-466.977"/>
<text text-anchor="middle" x="1101" y="-472.145" font-family="Helvetica,sans-Serif" font-size="10.00"> wavesAndEnemysData</text>
</g>
<!-- Node23&#45;&gt;Node17 -->
<g id="edge31" class="edge"><title>Node23&#45;&gt;Node17</title>
<path fill="none" stroke="#9a32cd" stroke-dasharray="5,2" d="M577.96,-353.929C653.696,-346.213 858.956,-327.888 1030,-336.145 1085.3,-338.815 1108.85,-316.09 1154,-348.145 1169.57,-359.197 1163.08,-370.269 1172,-387.145 1182.7,-407.388 1196.87,-430.142 1204.85,-442.641"/>
<polygon fill="#9a32cd" stroke="#9a32cd" points="577.332,-350.475 567.745,-354.986 578.052,-357.438 577.332,-350.475"/>
<text text-anchor="middle" x="802" y="-343.145" font-family="Helvetica,sans-Serif" font-size="10.00"> spawnTimer</text>
</g>
<!-- Node24 -->
<g id="node24" class="node"><title>Node24</title>
<g id="a_node24"><a xlink:href="classEmptyGameObject.html" target="_top" xlink:title="EmptyGameObject">
<polygon fill="white" stroke="black" points="1051,-64.6452 1051,-83.6452 1151,-83.6452 1151,-64.6452 1051,-64.6452"/>
<text text-anchor="middle" x="1101" y="-71.6452" font-family="Helvetica,sans-Serif" font-size="10.00">EmptyGameObject</text>
</a>
</g>
</g>
<!-- Node24&#45;&gt;Node1 -->
<g id="edge35" class="edge"><title>Node24&#45;&gt;Node1</title>
<path fill="none" stroke="#9a32cd" stroke-dasharray="5,2" d="M1133.88,-87.9557C1185.53,-112.157 1286.47,-167.45 1334,-248.145 1370.71,-310.465 1381.69,-548.921 1383.65,-600.337"/>
<polygon fill="#9a32cd" stroke="#9a32cd" points="1135.09,-84.6577 1124.54,-83.6653 1132.17,-91.0191 1135.09,-84.6577"/>
<text text-anchor="middle" x="1212" y="-162.145" font-family="Helvetica,sans-Serif" font-size="10.00"> nullGameObject</text>
</g>
<!-- Node25&#45;&gt;Node24 -->
<g id="edge36" class="edge"><title>Node25&#45;&gt;Node24</title>
<path fill="none" stroke="midnightblue" d="M721.834,-25.8687C801.691,-36.0632 967.937,-57.286 1050.82,-67.8665"/>
<polygon fill="midnightblue" stroke="midnightblue" points="721.979,-22.3588 711.616,-24.5642 721.092,-29.3024 721.979,-22.3588"/>
</g>
<!-- Node26&#45;&gt;Node25 -->
<g id="edge37" class="edge"><title>Node26&#45;&gt;Node25</title>
<path fill="none" stroke="#9a32cd" stroke-dasharray="5,2" d="M451.131,-85.2054C486.15,-83.0861 547.069,-76.2318 594,-54.1452 603.422,-49.7108 602.83,-44.0812 612,-39.1452 620.752,-34.4341 630.831,-30.7307 640.325,-27.8942"/>
<polygon fill="#9a32cd" stroke="#9a32cd" points="450.944,-81.7103 441.138,-85.7227 451.306,-88.7009 450.944,-81.7103"/>
<text text-anchor="middle" x="547" y="-83.1452" font-family="Helvetica,sans-Serif" font-size="10.00"> box</text>
</g>
<!-- Node27 -->
<g id="node27" class="node"><title>Node27</title>
<polygon fill="white" stroke="#bfbfbf" points="362.5,-38.6452 362.5,-57.6452 481.5,-57.6452 481.5,-38.6452 362.5,-38.6452"/>
<text text-anchor="middle" x="422" y="-45.6452" font-family="Helvetica,sans-Serif" font-size="10.00">vector&lt; Component * &gt;</text>
</g>
<!-- Node27&#45;&gt;Node25 -->
<g id="edge40" class="edge"><title>Node27&#45;&gt;Node25</title>
<path fill="none" stroke="#9a32cd" stroke-dasharray="5,2" d="M491.8,-40.5008C539.894,-35.1569 602.103,-28.2448 640.249,-24.0064"/>
<polygon fill="#9a32cd" stroke="#9a32cd" points="491.317,-37.0328 481.765,-41.6158 492.09,-43.9899 491.317,-37.0328"/>
<text text-anchor="middle" x="547" y="-42.1452" font-family="Helvetica,sans-Serif" font-size="10.00"> components</text>
</g>
<!-- Node28&#45;&gt;Node1 -->
<g id="edge41" class="edge"><title>Node28&#45;&gt;Node1</title>
<path fill="none" stroke="#9a32cd" stroke-dasharray="5,2" d="M994.792,-242.154C1038.25,-252.824 1103.65,-272.464 1154,-303.145 1248.49,-360.726 1273.23,-382.675 1334,-475.145 1361.86,-517.545 1376.98,-577.589 1382.04,-600.634"/>
<polygon fill="#9a32cd" stroke="#9a32cd" points="995.592,-238.747 985.052,-239.823 993.963,-245.555 995.592,-238.747"/>
<text text-anchor="middle" x="1212" y="-375.145" font-family="Helvetica,sans-Serif" font-size="10.00"> inputManager</text>
</g>
<!-- Node29&#45;&gt;Node28 -->
<g id="edge42" class="edge"><title>Node29&#45;&gt;Node28</title>
<path fill="none" stroke="#9a32cd" stroke-dasharray="5,2" d="M576.941,-122.452C614.971,-117.273 683.557,-111.361 740,-125.145 819.083,-144.459 901.623,-199.913 932.925,-222.449"/>
<polygon fill="#9a32cd" stroke="#9a32cd" points="576.01,-119.05 566.613,-123.944 577.011,-125.978 576.01,-119.05"/>
<text text-anchor="middle" x="676" y="-150.145" font-family="Helvetica,sans-Serif" font-size="10.00"> controllerLeftStickState</text>
<text text-anchor="middle" x="676" y="-139.145" font-family="Helvetica,sans-Serif" font-size="10.00">controllerRightStickState</text>
<text text-anchor="middle" x="676" y="-128.145" font-family="Helvetica,sans-Serif" font-size="10.00">mouseScroolState</text>
</g>
<!-- Node30 -->
<g id="node30" class="node"><title>Node30</title>
<polygon fill="white" stroke="#bfbfbf" points="623,-217.145 623,-247.145 729,-247.145 729,-217.145 623,-217.145"/>
<text text-anchor="start" x="631" y="-235.145" font-family="Helvetica,sans-Serif" font-size="10.00">unordered_map&lt; int,</text>
<text text-anchor="middle" x="676" y="-224.145" font-family="Helvetica,sans-Serif" font-size="10.00"> int &gt;</text>
</g>
<!-- Node30&#45;&gt;Node28 -->
<g id="edge46" class="edge"><title>Node30&#45;&gt;Node28</title>
<path fill="none" stroke="#9a32cd" stroke-dasharray="5,2" d="M739.375,-232.145C791.78,-232.145 864.931,-232.145 908.671,-232.145"/>
<polygon fill="#9a32cd" stroke="#9a32cd" points="739.185,-228.645 729.185,-232.145 739.185,-235.645 739.185,-228.645"/>
<text text-anchor="middle" x="802" y="-246.145" font-family="Helvetica,sans-Serif" font-size="10.00"> controllerUpdate</text>
<text text-anchor="middle" x="802" y="-235.145" font-family="Helvetica,sans-Serif" font-size="10.00">keyUpdate</text>
</g>
<!-- Node31 -->
<g id="node31" class="node"><title>Node31</title>
<polygon fill="white" stroke="#bfbfbf" points="623,-168.145 623,-198.145 729,-198.145 729,-168.145 623,-168.145"/>
<text text-anchor="start" x="631" y="-186.145" font-family="Helvetica,sans-Serif" font-size="10.00">unordered_map&lt; int,</text>
<text text-anchor="middle" x="676" y="-175.145" font-family="Helvetica,sans-Serif" font-size="10.00"> bool &gt;</text>
</g>
<!-- Node31&#45;&gt;Node28 -->
<g id="edge47" class="edge"><title>Node31&#45;&gt;Node28</title>
<path fill="none" stroke="#9a32cd" stroke-dasharray="5,2" d="M739.167,-189.809C771.228,-193.699 810.874,-199.214 846,-206.145 868.703,-210.625 893.917,-217.192 913.348,-222.605"/>
<polygon fill="#9a32cd" stroke="#9a32cd" points="739.384,-186.31 729.04,-188.604 738.556,-193.261 739.384,-186.31"/>
<text text-anchor="middle" x="802" y="-220.145" font-family="Helvetica,sans-Serif" font-size="10.00"> keyState</text>
<text text-anchor="middle" x="802" y="-209.145" font-family="Helvetica,sans-Serif" font-size="10.00">controllerState</text>
</g>
<!-- Node32 -->
<g id="node32" class="node"><title>Node32</title>
<polygon fill="white" stroke="#bfbfbf" points="612,-49.1452 612,-79.1452 740,-79.1452 740,-49.1452 612,-49.1452"/>
<text text-anchor="start" x="620" y="-67.1452" font-family="Helvetica,sans-Serif" font-size="10.00">unordered_map&lt; int,</text>
<text text-anchor="middle" x="676" y="-56.1452" font-family="Helvetica,sans-Serif" font-size="10.00"> SDL_GameController * &gt;</text>
</g>
<!-- Node32&#45;&gt;Node28 -->
<g id="edge48" class="edge"><title>Node32&#45;&gt;Node28</title>
<path fill="none" stroke="#9a32cd" stroke-dasharray="5,2" d="M750.146,-63.462C781.638,-66.1678 817.651,-73.523 846,-91.1452 899.014,-124.1 931.896,-196.585 942.363,-222.609"/>
<polygon fill="#9a32cd" stroke="#9a32cd" points="750.321,-59.9657 740.096,-62.7398 749.82,-66.9477 750.321,-59.9657"/>
<text text-anchor="middle" x="802" y="-94.1452" font-family="Helvetica,sans-Serif" font-size="10.00"> padToController</text>
</g>
</g>
</svg>
