<?xml version="1.0" encoding="UTF-8" standalone="no"?>
<!DOCTYPE svg PUBLIC "-//W3C//DTD SVG 1.1//EN"
 "http://www.w3.org/Graphics/SVG/1.1/DTD/svg11.dtd">
<!-- Generated by graphviz version 2.36.0 (20140111.2315)
 -->
<!-- Title: UIverticalGroup Pages: 1 -->
<svg width="268pt" height="354pt"
 viewBox="0.00 0.00 268.00 354.00" xmlns="http://www.w3.org/2000/svg" xmlns:xlink="http://www.w3.org/1999/xlink">
<g id="graph0" class="graph" transform="scale(1 1) rotate(0) translate(4 350)">
<title>UIverticalGroup</title>
<polygon fill="white" stroke="none" points="-4,4 -4,-350 264,-350 264,4 -4,4"/>
<!-- Node1 -->
<g id="node1" class="node"><title>Node1</title>
<polygon fill="#bfbfbf" stroke="black" points="122.5,-0.5 122.5,-19.5 207.5,-19.5 207.5,-0.5 122.5,-0.5"/>
<text text-anchor="middle" x="165" y="-7.5" font-family="Helvetica,sans-Serif" font-size="10.00">UIverticalGroup</text>
</g>
<!-- Node2 -->
<g id="node2" class="node"><title>Node2</title>
<g id="a_node2"><a xlink:href="classUIcanvas.html" target="_top" xlink:title="UIcanvas">
<polygon fill="white" stroke="black" points="57.5,-68.5 57.5,-87.5 116.5,-87.5 116.5,-68.5 57.5,-68.5"/>
<text text-anchor="middle" x="87" y="-75.5" font-family="Helvetica,sans-Serif" font-size="10.00">UIcanvas</text>
</a>
</g>
</g>
<!-- Node2&#45;&gt;Node1 -->
<g id="edge1" class="edge"><title>Node2&#45;&gt;Node1</title>
<path fill="none" stroke="midnightblue" d="M104.994,-61.7744C120.347,-48.7837 141.889,-30.5551 154.551,-19.8411"/>
<polygon fill="midnightblue" stroke="midnightblue" points="102.57,-59.2403 97.1971,-68.3717 107.092,-64.5841 102.57,-59.2403"/>
</g>
<!-- Node3 -->
<g id="node3" class="node"><title>Node3</title>
<g id="a_node3"><a xlink:href="classUIelement.html" target="_top" xlink:title="UIelement">
<polygon fill="white" stroke="black" points="56,-126.5 56,-145.5 118,-145.5 118,-126.5 56,-126.5"/>
<text text-anchor="middle" x="87" y="-133.5" font-family="Helvetica,sans-Serif" font-size="10.00">UIelement</text>
</a>
</g>
</g>
<!-- Node3&#45;&gt;Node2 -->
<g id="edge2" class="edge"><title>Node3&#45;&gt;Node2</title>
<path fill="none" stroke="midnightblue" d="M87,-115.953C87,-106.287 87,-95.0312 87,-87.5052"/>
<polygon fill="midnightblue" stroke="midnightblue" points="83.5001,-116.25 87,-126.25 90.5001,-116.25 83.5001,-116.25"/>
</g>
<!-- Node4 -->
<g id="node4" class="node"><title>Node4</title>
<g id="a_node4"><a xlink:href="classVec2.html" target="_top" xlink:title="Classe que modela um vetor(no sentido físico) ">
<polygon fill="white" stroke="black" points="-0.5,-226.5 -0.5,-245.5 38.5,-245.5 38.5,-226.5 -0.5,-226.5"/>
<text text-anchor="middle" x="19" y="-233.5" font-family="Helvetica,sans-Serif" font-size="10.00">Vec2</text>
</a>
</g>
</g>
<!-- Node4&#45;&gt;Node3 -->
<g id="edge3" class="edge"><title>Node4&#45;&gt;Node3</title>
<path fill="none" stroke="#9a32cd" stroke-dasharray="5,2" d="M17.328,-215.721C17.0024,-200.277 18.9433,-178.817 30,-164 36.4176,-155.4 46.2748,-149.427 55.9977,-145.331"/>
<polygon fill="#9a32cd" stroke="#9a32cd" points="13.8578,-216.357 17.9053,-226.148 20.8471,-215.97 13.8578,-216.357"/>
<text text-anchor="middle" x="54.5" y="-183.5" font-family="Helvetica,sans-Serif" font-size="10.00"> kernelSize</text>
</g>
<!-- Node5 -->
<g id="node5" class="node"><title>Node5</title>
<polygon fill="white" stroke="#bfbfbf" points="34.5,-326.5 34.5,-345.5 69.5,-345.5 69.5,-326.5 34.5,-326.5"/>
<text text-anchor="middle" x="52" y="-333.5" font-family="Helvetica,sans-Serif" font-size="10.00">float</text>
</g>
<!-- Node5&#45;&gt;Node4 -->
<g id="edge4" class="edge"><title>Node5&#45;&gt;Node4</title>
<path fill="none" stroke="#9a32cd" stroke-dasharray="5,2" d="M45.8732,-316.805C38.7241,-295.575 27.2043,-261.364 21.8748,-245.537"/>
<polygon fill="#9a32cd" stroke="#9a32cd" points="42.5631,-317.943 49.0715,-326.303 49.1971,-315.709 42.5631,-317.943"/>
<text text-anchor="middle" x="47.5" y="-289" font-family="Helvetica,sans-Serif" font-size="10.00"> x</text>
<text text-anchor="middle" x="47.5" y="-278" font-family="Helvetica,sans-Serif" font-size="10.00">y</text>
</g>
<!-- Node6 -->
<g id="node6" class="node"><title>Node6</title>
<g id="a_node6"><a xlink:href="classRect.html" target="_top" xlink:title="Classe que modela um rect. ">
<polygon fill="white" stroke="black" points="61,-226.5 61,-245.5 99,-245.5 99,-226.5 61,-226.5"/>
<text text-anchor="middle" x="80" y="-233.5" font-family="Helvetica,sans-Serif" font-size="10.00">Rect</text>
</a>
</g>
</g>
<!-- Node5&#45;&gt;Node6 -->
<g id="edge6" class="edge"><title>Node5&#45;&gt;Node6</title>
<path fill="none" stroke="#9a32cd" stroke-dasharray="5,2" d="M57.2818,-316.514C63.3535,-295.263 73.0595,-261.292 77.5607,-245.537"/>
<polygon fill="#9a32cd" stroke="#9a32cd" points="53.8668,-315.726 54.4848,-326.303 60.5974,-317.649 53.8668,-315.726"/>
<text text-anchor="middle" x="77.5" y="-300" font-family="Helvetica,sans-Serif" font-size="10.00"> w</text>
<text text-anchor="middle" x="77.5" y="-289" font-family="Helvetica,sans-Serif" font-size="10.00">x</text>
<text text-anchor="middle" x="77.5" y="-278" font-family="Helvetica,sans-Serif" font-size="10.00">h</text>
<text text-anchor="middle" x="77.5" y="-267" font-family="Helvetica,sans-Serif" font-size="10.00">y</text>
</g>
<!-- Node6&#45;&gt;Node3 -->
<g id="edge5" class="edge"><title>Node6&#45;&gt;Node3</title>
<path fill="none" stroke="#9a32cd" stroke-dasharray="5,2" d="M81.3414,-216.22C82.8606,-194.951 85.27,-161.22 86.3902,-145.537"/>
<polygon fill="#9a32cd" stroke="#9a32cd" points="77.8427,-216.079 80.6212,-226.303 84.8249,-216.578 77.8427,-216.079"/>
<text text-anchor="middle" x="113.5" y="-200" font-family="Helvetica,sans-Serif" font-size="10.00"> offsets</text>
<text text-anchor="middle" x="113.5" y="-189" font-family="Helvetica,sans-Serif" font-size="10.00">box</text>
<text text-anchor="middle" x="113.5" y="-178" font-family="Helvetica,sans-Serif" font-size="10.00">anchors</text>
<text text-anchor="middle" x="113.5" y="-167" font-family="Helvetica,sans-Serif" font-size="10.00">boundingBox</text>
</g>
<!-- Node7 -->
<g id="node7" class="node"><title>Node7</title>
<polygon fill="white" stroke="#bfbfbf" points="128.5,-226.5 128.5,-245.5 205.5,-245.5 205.5,-226.5 128.5,-226.5"/>
<text text-anchor="middle" x="167" y="-233.5" font-family="Helvetica,sans-Serif" font-size="10.00">BehaviorType</text>
</g>
<!-- Node7&#45;&gt;Node3 -->
<g id="edge7" class="edge"><title>Node7&#45;&gt;Node3</title>
<path fill="none" stroke="#9a32cd" stroke-dasharray="5,2" d="M165.341,-215.959C163.073,-200.355 157.704,-178.549 145,-164 137.695,-155.634 127.246,-149.683 117.226,-145.539"/>
<polygon fill="#9a32cd" stroke="#9a32cd" points="161.881,-216.501 166.506,-226.033 168.834,-215.697 161.881,-216.501"/>
<text text-anchor="middle" x="184" y="-183.5" font-family="Helvetica,sans-Serif" font-size="10.00"> behavior</text>
</g>
<!-- Node8 -->
<g id="node8" class="node"><title>Node8</title>
<polygon fill="white" stroke="#bfbfbf" points="134.5,-68.5 134.5,-87.5 247.5,-87.5 247.5,-68.5 134.5,-68.5"/>
<text text-anchor="middle" x="191" y="-75.5" font-family="Helvetica,sans-Serif" font-size="10.00">vector&lt; UIelement * &gt;</text>
</g>
<!-- Node8&#45;&gt;Node1 -->
<g id="edge8" class="edge"><title>Node8&#45;&gt;Node1</title>
<path fill="none" stroke="#9a32cd" stroke-dasharray="5,2" d="M183.833,-58.8066C178.837,-46.1244 172.391,-29.7615 168.483,-19.8411"/>
<polygon fill="#9a32cd" stroke="#9a32cd" points="180.679,-60.3504 187.601,-68.3717 187.192,-57.7847 180.679,-60.3504"/>
<text text-anchor="middle" x="220.5" y="-41.5" font-family="Helvetica,sans-Serif" font-size="10.00"> groupedElements</text>
</g>
</g>
</svg>
