<?xml version="1.0" encoding="UTF-8" standalone="no"?>
<!DOCTYPE svg PUBLIC "-//W3C//DTD SVG 1.1//EN"
 "http://www.w3.org/Graphics/SVG/1.1/DTD/svg11.dtd">
<!-- Generated by graphviz version 2.38.0 (20140413.2041)
 -->
<!-- Title: Obstacle Pages: 1 -->
<svg width="547pt" height="451pt"
 viewBox="0.00 0.00 547.00 451.00" xmlns="http://www.w3.org/2000/svg" xmlns:xlink="http://www.w3.org/1999/xlink">
<g id="graph0" class="graph" transform="scale(1 1) rotate(0) translate(4 447)">
<title>Obstacle</title>
<polygon fill="white" stroke="none" points="-4,4 -4,-447 543,-447 543,4 -4,4"/>
<!-- Node1 -->
<g id="node1" class="node"><title>Node1</title>
<polygon fill="#bfbfbf" stroke="black" points="483,-282.5 483,-301.5 539,-301.5 539,-282.5 483,-282.5"/>
<text text-anchor="middle" x="511" y="-289.5" font-family="Helvetica,sans-Serif" font-size="10.00">Obstacle</text>
</g>
<!-- Node2 -->
<g id="node2" class="node"><title>Node2</title>
<g id="a_node2"><a xlink:href="classGameObject.html" target="_top" xlink:title="Classe virtual que especifica o funcionamento de um GameObject. ">
<polygon fill="white" stroke="black" points="362,-342.5 362,-361.5 433,-361.5 433,-342.5 362,-342.5"/>
<text text-anchor="middle" x="397.5" y="-349.5" font-family="Helvetica,sans-Serif" font-size="10.00">GameObject</text>
</a>
</g>
</g>
<!-- Node2&#45;&gt;Node1 -->
<g id="edge1" class="edge"><title>Node2&#45;&gt;Node1</title>
<path fill="none" stroke="midnightblue" d="M425.347,-337.553C446.05,-326.413 474.103,-311.317 492.13,-301.616"/>
<polygon fill="midnightblue" stroke="midnightblue" points="423.562,-334.539 416.414,-342.36 426.879,-340.703 423.562,-334.539"/>
</g>
<!-- Node3 -->
<g id="node3" class="node"><title>Node3</title>
<g id="a_node3"><a xlink:href="classRect.html" target="_top" xlink:title="Classe que modela um rect. ">
<polygon fill="white" stroke="black" points="174,-419.5 174,-438.5 212,-438.5 212,-419.5 174,-419.5"/>
<text text-anchor="middle" x="193" y="-426.5" font-family="Helvetica,sans-Serif" font-size="10.00">Rect</text>
</a>
</g>
</g>
<!-- Node3&#45;&gt;Node2 -->
<g id="edge2" class="edge"><title>Node3&#45;&gt;Node2</title>
<path fill="none" stroke="#9a32cd" stroke-dasharray="5,2" d="M222.484,-425.508C253.557,-420.907 304.18,-411.062 344,-392 360.33,-384.183 376.501,-370.778 386.489,-361.661"/>
<polygon fill="#9a32cd" stroke="#9a32cd" points="221.777,-422.072 212.358,-426.923 222.746,-429.005 221.777,-422.072"/>
<text text-anchor="middle" x="312" y="-417" font-family="Helvetica,sans-Serif" font-size="10.00"> box</text>
</g>
<!-- Node4 -->
<g id="node4" class="node"><title>Node4</title>
<polygon fill="white" stroke="#bfbfbf" points="21,-342.5 21,-361.5 56,-361.5 56,-342.5 21,-342.5"/>
<text text-anchor="middle" x="38.5" y="-349.5" font-family="Helvetica,sans-Serif" font-size="10.00">float</text>
</g>
<!-- Node4&#45;&gt;Node2 -->
<g id="edge4" class="edge"><title>Node4&#45;&gt;Node2</title>
<path fill="none" stroke="#9a32cd" stroke-dasharray="5,2" d="M66.2986,-352C130.074,-352 290.828,-352 361.849,-352"/>
<polygon fill="#9a32cd" stroke="#9a32cd" points="66.2401,-348.5 56.24,-352 66.24,-355.5 66.2401,-348.5"/>
<text text-anchor="middle" x="193" y="-355" font-family="Helvetica,sans-Serif" font-size="10.00"> rotation</text>
</g>
<!-- Node4&#45;&gt;Node3 -->
<g id="edge3" class="edge"><title>Node4&#45;&gt;Node3</title>
<path fill="none" stroke="#9a32cd" stroke-dasharray="5,2" d="M59.0225,-368.177C75.4605,-381.092 100.06,-398.817 124,-410 140.103,-417.522 159.78,-422.619 173.816,-425.624"/>
<polygon fill="#9a32cd" stroke="#9a32cd" points="60.7762,-365.097 50.7858,-361.569 56.3958,-370.557 60.7762,-365.097"/>
<text text-anchor="middle" x="100.5" y="-435" font-family="Helvetica,sans-Serif" font-size="10.00"> w</text>
<text text-anchor="middle" x="100.5" y="-424" font-family="Helvetica,sans-Serif" font-size="10.00">x</text>
<text text-anchor="middle" x="100.5" y="-413" font-family="Helvetica,sans-Serif" font-size="10.00">h</text>
<text text-anchor="middle" x="100.5" y="-402" font-family="Helvetica,sans-Serif" font-size="10.00">y</text>
</g>
<!-- Node7 -->
<g id="node7" class="node"><title>Node7</title>
<g id="a_node7"><a xlink:href="classSprite.html" target="_top" xlink:title="Classe que modela uma sprite. ">
<polygon fill="white" stroke="black" points="376.5,-159.5 376.5,-178.5 418.5,-178.5 418.5,-159.5 376.5,-159.5"/>
<text text-anchor="middle" x="397.5" y="-166.5" font-family="Helvetica,sans-Serif" font-size="10.00">Sprite</text>
</a>
</g>
</g>
<!-- Node4&#45;&gt;Node7 -->
<g id="edge8" class="edge"><title>Node4&#45;&gt;Node7</title>
<path fill="none" stroke="#9a32cd" stroke-dasharray="5,2" d="M48.7217,-333.24C61.885,-308.52 88.4576,-265.544 124,-243 208.592,-189.345 249.29,-226.63 344,-194 356.026,-189.857 368.932,-183.736 378.939,-178.588"/>
<polygon fill="#9a32cd" stroke="#9a32cd" points="45.5149,-331.823 44.0561,-342.317 51.7406,-335.023 45.5149,-331.823"/>
<text text-anchor="middle" x="193" y="-279" font-family="Helvetica,sans-Serif" font-size="10.00"> scaleY</text>
<text text-anchor="middle" x="193" y="-268" font-family="Helvetica,sans-Serif" font-size="10.00">frameTime</text>
<text text-anchor="middle" x="193" y="-257" font-family="Helvetica,sans-Serif" font-size="10.00">timeElapsed</text>
<text text-anchor="middle" x="193" y="-246" font-family="Helvetica,sans-Serif" font-size="10.00">scaleX</text>
</g>
<!-- Node5 -->
<g id="node5" class="node"><title>Node5</title>
<polygon fill="white" stroke="#bfbfbf" points="175.5,-296.5 175.5,-315.5 210.5,-315.5 210.5,-296.5 175.5,-296.5"/>
<text text-anchor="middle" x="193" y="-303.5" font-family="Helvetica,sans-Serif" font-size="10.00">bool</text>
</g>
<!-- Node5&#45;&gt;Node2 -->
<g id="edge5" class="edge"><title>Node5&#45;&gt;Node2</title>
<path fill="none" stroke="#9a32cd" stroke-dasharray="5,2" d="M220.781,-307.286C251.201,-309.308 302.056,-314.403 344,-327 356.376,-330.717 369.501,-336.967 379.532,-342.288"/>
<polygon fill="#9a32cd" stroke="#9a32cd" points="220.745,-303.778 210.553,-306.672 220.325,-310.765 220.745,-303.778"/>
<text text-anchor="middle" x="312" y="-330" font-family="Helvetica,sans-Serif" font-size="10.00"> dead</text>
</g>
<!-- Node5&#45;&gt;Node7 -->
<g id="edge12" class="edge"><title>Node5&#45;&gt;Node7</title>
<path fill="none" stroke="#9a32cd" stroke-dasharray="5,2" d="M220.599,-300.853C252.772,-293.518 307.185,-277.44 344,-247 367.525,-227.549 384.694,-194.895 392.241,-178.706"/>
<polygon fill="#9a32cd" stroke="#9a32cd" points="219.634,-297.481 210.599,-303.013 221.112,-304.323 219.634,-297.481"/>
<text text-anchor="middle" x="312" y="-284" font-family="Helvetica,sans-Serif" font-size="10.00"> highlightable</text>
</g>
<!-- Node6 -->
<g id="node6" class="node"><title>Node6</title>
<polygon fill="white" stroke="#bfbfbf" points="133.5,-381.5 133.5,-400.5 252.5,-400.5 252.5,-381.5 133.5,-381.5"/>
<text text-anchor="middle" x="193" y="-388.5" font-family="Helvetica,sans-Serif" font-size="10.00">vector&lt; Component * &gt;</text>
</g>
<!-- Node6&#45;&gt;Node2 -->
<g id="edge6" class="edge"><title>Node6&#45;&gt;Node2</title>
<path fill="none" stroke="#9a32cd" stroke-dasharray="5,2" d="M262.657,-380.969C288.287,-376.855 317.574,-371.712 344,-366 350.085,-364.685 356.522,-363.117 362.725,-361.515"/>
<polygon fill="#9a32cd" stroke="#9a32cd" points="261.988,-377.531 252.659,-382.553 263.083,-384.445 261.988,-377.531"/>
<text text-anchor="middle" x="312" y="-380" font-family="Helvetica,sans-Serif" font-size="10.00"> components</text>
</g>
<!-- Node7&#45;&gt;Node1 -->
<g id="edge7" class="edge"><title>Node7&#45;&gt;Node1</title>
<path fill="none" stroke="#9a32cd" stroke-dasharray="5,2" d="M414.2,-186.319C438.025,-212.601 482.521,-261.687 501.291,-282.393"/>
<polygon fill="#9a32cd" stroke="#9a32cd" points="416.559,-183.71 407.249,-178.652 411.372,-188.411 416.559,-183.71"/>
<text text-anchor="middle" x="458" y="-244" font-family="Helvetica,sans-Serif" font-size="10.00"> sp</text>
</g>
<!-- Node8 -->
<g id="node8" class="node"><title>Node8</title>
<polygon fill="white" stroke="#bfbfbf" points="162,-64.5 162,-83.5 224,-83.5 224,-64.5 162,-64.5"/>
<text text-anchor="middle" x="193" y="-71.5" font-family="Helvetica,sans-Serif" font-size="10.00">SDL_Rect</text>
</g>
<!-- Node8&#45;&gt;Node7 -->
<g id="edge9" class="edge"><title>Node8&#45;&gt;Node7</title>
<path fill="none" stroke="#9a32cd" stroke-dasharray="5,2" d="M234.49,-76.2767C266.233,-79.6223 310.491,-87.844 344,-108 365.552,-120.964 382.752,-145.855 391.065,-159.491"/>
<polygon fill="#9a32cd" stroke="#9a32cd" points="234.52,-72.7644 224.238,-75.3189 233.869,-79.7341 234.52,-72.7644"/>
<text text-anchor="middle" x="312" y="-111" font-family="Helvetica,sans-Serif" font-size="10.00"> clipRect</text>
</g>
<!-- Node9 -->
<g id="node9" class="node"><title>Node9</title>
<polygon fill="white" stroke="#bfbfbf" points="178.5,-0.5 178.5,-19.5 207.5,-19.5 207.5,-0.5 178.5,-0.5"/>
<text text-anchor="middle" x="193" y="-7.5" font-family="Helvetica,sans-Serif" font-size="10.00">int</text>
</g>
<!-- Node9&#45;&gt;Node7 -->
<g id="edge10" class="edge"><title>Node9&#45;&gt;Node7</title>
<path fill="none" stroke="#9a32cd" stroke-dasharray="5,2" d="M218.103,-7.63538C250.419,-5.81542 307.895,-7.49299 344,-37 383.148,-68.9938 393.264,-134.393 395.74,-159.18"/>
<polygon fill="#9a32cd" stroke="#9a32cd" points="217.518,-4.16863 207.798,-8.3851 218.026,-11.1502 217.518,-4.16863"/>
<text text-anchor="middle" x="312" y="-73" font-family="Helvetica,sans-Serif" font-size="10.00"> width</text>
<text text-anchor="middle" x="312" y="-62" font-family="Helvetica,sans-Serif" font-size="10.00">currentFrame</text>
<text text-anchor="middle" x="312" y="-51" font-family="Helvetica,sans-Serif" font-size="10.00">height</text>
<text text-anchor="middle" x="312" y="-40" font-family="Helvetica,sans-Serif" font-size="10.00">frameCount</text>
</g>
<!-- Node10 -->
<g id="node10" class="node"><title>Node10</title>
<polygon fill="white" stroke="#bfbfbf" points="124,-178.5 124,-197.5 262,-197.5 262,-178.5 124,-178.5"/>
<text text-anchor="middle" x="193" y="-185.5" font-family="Helvetica,sans-Serif" font-size="10.00">shared_ptr&lt; SDL_Texture &gt;</text>
</g>
<!-- Node10&#45;&gt;Node7 -->
<g id="edge11" class="edge"><title>Node10&#45;&gt;Node7</title>
<path fill="none" stroke="#9a32cd" stroke-dasharray="5,2" d="M272.248,-180.658C309.907,-177.125 352.049,-173.171 376.307,-170.895"/>
<polygon fill="#9a32cd" stroke="#9a32cd" points="271.904,-177.175 262.275,-181.594 272.558,-184.144 271.904,-177.175"/>
<text text-anchor="middle" x="312" y="-182" font-family="Helvetica,sans-Serif" font-size="10.00"> texture</text>
</g>
<!-- Node11 -->
<g id="node11" class="node"><title>Node11</title>
<polygon fill="white" stroke="#bfbfbf" points="148,-140.5 148,-159.5 238,-159.5 238,-140.5 148,-140.5"/>
<text text-anchor="middle" x="193" y="-147.5" font-family="Helvetica,sans-Serif" font-size="10.00">SDL_BlendMode</text>
</g>
<!-- Node11&#45;&gt;Node7 -->
<g id="edge13" class="edge"><title>Node11&#45;&gt;Node7</title>
<path fill="none" stroke="#9a32cd" stroke-dasharray="5,2" d="M248.298,-151.578C276.86,-152.832 312.413,-155.061 344,-159 354.68,-160.332 366.461,-162.51 376.152,-164.494"/>
<polygon fill="#9a32cd" stroke="#9a32cd" points="248.248,-148.073 238.112,-151.159 247.96,-155.067 248.248,-148.073"/>
<text text-anchor="middle" x="312" y="-162" font-family="Helvetica,sans-Serif" font-size="10.00"> blendMode</text>
</g>
<!-- Node12 -->
<g id="node12" class="node"><title>Node12</title>
<g id="a_node12"><a xlink:href="structColor.html" target="_top" xlink:title="Struct para armazenar informações de cor. ">
<polygon fill="white" stroke="black" points="173,-102.5 173,-121.5 213,-121.5 213,-102.5 173,-102.5"/>
<text text-anchor="middle" x="193" y="-109.5" font-family="Helvetica,sans-Serif" font-size="10.00">Color</text>
</a>
</g>
</g>
<!-- Node12&#45;&gt;Node7 -->
<g id="edge14" class="edge"><title>Node12&#45;&gt;Node7</title>
<path fill="none" stroke="#9a32cd" stroke-dasharray="5,2" d="M223.108,-113.922C253.931,-116.668 303.617,-123.144 344,-138 358.305,-143.262 373.128,-152.413 383.36,-159.413"/>
<polygon fill="#9a32cd" stroke="#9a32cd" points="223.29,-110.425 213.038,-113.098 222.72,-117.402 223.29,-110.425"/>
<text text-anchor="middle" x="312" y="-141" font-family="Helvetica,sans-Serif" font-size="10.00"> colorMultiplier</text>
</g>
<!-- Node13 -->
<g id="node13" class="node"><title>Node13</title>
<polygon fill="white" stroke="#bfbfbf" points="0,-102.5 0,-121.5 77,-121.5 77,-102.5 0,-102.5"/>
<text text-anchor="middle" x="38.5" y="-109.5" font-family="Helvetica,sans-Serif" font-size="10.00">unsigned char</text>
</g>
<!-- Node13&#45;&gt;Node12 -->
<g id="edge15" class="edge"><title>Node13&#45;&gt;Node12</title>
<path fill="none" stroke="#9a32cd" stroke-dasharray="5,2" d="M87.5118,-112C116.384,-112 151.546,-112 172.831,-112"/>
<polygon fill="#9a32cd" stroke="#9a32cd" points="87.1967,-108.5 77.1966,-112 87.1966,-115.5 87.1967,-108.5"/>
<text text-anchor="middle" x="100.5" y="-148" font-family="Helvetica,sans-Serif" font-size="10.00"> g</text>
<text text-anchor="middle" x="100.5" y="-137" font-family="Helvetica,sans-Serif" font-size="10.00">a</text>
<text text-anchor="middle" x="100.5" y="-126" font-family="Helvetica,sans-Serif" font-size="10.00">r</text>
<text text-anchor="middle" x="100.5" y="-115" font-family="Helvetica,sans-Serif" font-size="10.00">b</text>
</g>
</g>
</svg>
