<?xml version="1.0" encoding="UTF-8" standalone="no"?>
<!DOCTYPE svg PUBLIC "-//W3C//DTD SVG 1.1//EN"
 "http://www.w3.org/Graphics/SVG/1.1/DTD/svg11.dtd">
<!-- Generated by graphviz version 2.38.0 (20140413.2041)
 -->
<!-- Title: Wave Pages: 1 -->
<svg width="274pt" height="262pt"
 viewBox="0.00 0.00 274.00 262.00" xmlns="http://www.w3.org/2000/svg" xmlns:xlink="http://www.w3.org/1999/xlink">
<g id="graph0" class="graph" transform="scale(1 1) rotate(0) translate(4 258)">
<title>Wave</title>
<polygon fill="white" stroke="none" points="-4,4 -4,-258 270,-258 270,4 -4,4"/>
<!-- Node2 -->
<g id="node1" class="node"><title>Node2</title>
<polygon fill="#bfbfbf" stroke="black" points="182,-0.5 182,-19.5 224,-19.5 224,-0.5 182,-0.5"/>
<text text-anchor="middle" x="203" y="-7.5" font-family="Helvetica,sans-Serif" font-size="10.00">Wave</text>
</g>
<!-- Node3 -->
<g id="node2" class="node"><title>Node3</title>
<g id="a_node2"><a xlink:href="classGameObject.html" target="_top" xlink:title="GameObject">
<polygon fill="white" stroke="black" points="116.5,-67.5 116.5,-86.5 187.5,-86.5 187.5,-67.5 116.5,-67.5"/>
<text text-anchor="middle" x="152" y="-74.5" font-family="Helvetica,sans-Serif" font-size="10.00">GameObject</text>
</a>
</g>
</g>
<!-- Node3&#45;&gt;Node2 -->
<g id="edge1" class="edge"><title>Node3&#45;&gt;Node2</title>
<path fill="none" stroke="midnightblue" d="M165.126,-59.2705C175.07,-46.5972 188.327,-29.701 196.231,-19.6273"/>
<polygon fill="midnightblue" stroke="midnightblue" points="162.297,-57.2059 158.878,-67.2338 167.805,-61.5269 162.297,-57.2059"/>
</g>
<!-- Node4 -->
<g id="node3" class="node"><title>Node4</title>
<polygon fill="white" stroke="#bfbfbf" points="0,-134.5 0,-153.5 116,-153.5 116,-134.5 0,-134.5"/>
<text text-anchor="middle" x="58" y="-141.5" font-family="Helvetica,sans-Serif" font-size="10.00">vector&lt; Component *&gt;</text>
</g>
<!-- Node4&#45;&gt;Node3 -->
<g id="edge2" class="edge"><title>Node4&#45;&gt;Node3</title>
<path fill="none" stroke="#9a32cd" stroke-dasharray="5,2" d="M65.8114,-124.833C69.5572,-117.859 74.6327,-110.308 81,-105 91.1292,-96.5553 104.179,-90.5882 116.321,-86.4515"/>
<polygon fill="#9a32cd" stroke="#9a32cd" points="62.4363,-123.778 61.2793,-134.31 68.7513,-126.799 62.4363,-123.778"/>
<text text-anchor="middle" x="109.5" y="-108" font-family="Helvetica,sans-Serif" font-size="10.00"> components</text>
</g>
<!-- Node5 -->
<g id="node4" class="node"><title>Node5</title>
<g id="a_node4"><a xlink:href="classRect.html" target="_top" xlink:title="Classe que modela um rect. ">
<polygon fill="white" stroke="black" points="206,-134.5 206,-153.5 244,-153.5 244,-134.5 206,-134.5"/>
<text text-anchor="middle" x="225" y="-141.5" font-family="Helvetica,sans-Serif" font-size="10.00">Rect</text>
</a>
</g>
</g>
<!-- Node5&#45;&gt;Node3 -->
<g id="edge3" class="edge"><title>Node5&#45;&gt;Node3</title>
<path fill="none" stroke="#9a32cd" stroke-dasharray="5,2" d="M207.431,-127.356C193.08,-114.578 173.329,-96.9915 161.689,-86.6273"/>
<polygon fill="#9a32cd" stroke="#9a32cd" points="205.359,-130.198 215.155,-134.234 210.014,-124.97 205.359,-130.198"/>
<text text-anchor="middle" x="202.5" y="-108" font-family="Helvetica,sans-Serif" font-size="10.00"> box</text>
</g>
<!-- Node6 -->
<g id="node5" class="node"><title>Node6</title>
<polygon fill="white" stroke="#bfbfbf" points="160.5,-234.5 160.5,-253.5 195.5,-253.5 195.5,-234.5 160.5,-234.5"/>
<text text-anchor="middle" x="178" y="-241.5" font-family="Helvetica,sans-Serif" font-size="10.00">float</text>
</g>
<!-- Node6&#45;&gt;Node3 -->
<g id="edge5" class="edge"><title>Node6&#45;&gt;Node3</title>
<path fill="none" stroke="#9a32cd" stroke-dasharray="5,2" d="M174.062,-224.461C170.341,-206.503 164.782,-178.474 161,-154 157.267,-129.839 154.251,-101.148 152.849,-86.9201"/>
<polygon fill="#9a32cd" stroke="#9a32cd" points="170.677,-225.375 176.156,-234.443 177.528,-223.938 170.677,-225.375"/>
<text text-anchor="middle" x="179" y="-141.5" font-family="Helvetica,sans-Serif" font-size="10.00"> rotation</text>
</g>
<!-- Node6&#45;&gt;Node5 -->
<g id="edge4" class="edge"><title>Node6&#45;&gt;Node5</title>
<path fill="none" stroke="#9a32cd" stroke-dasharray="5,2" d="M186.587,-225.095C196.758,-203.887 213.28,-169.436 220.906,-153.537"/>
<polygon fill="#9a32cd" stroke="#9a32cd" points="183.339,-223.773 182.171,-234.303 189.651,-226.8 183.339,-223.773"/>
<text text-anchor="middle" x="217.5" y="-208" font-family="Helvetica,sans-Serif" font-size="10.00"> w</text>
<text text-anchor="middle" x="217.5" y="-197" font-family="Helvetica,sans-Serif" font-size="10.00">x</text>
<text text-anchor="middle" x="217.5" y="-186" font-family="Helvetica,sans-Serif" font-size="10.00">h</text>
<text text-anchor="middle" x="217.5" y="-175" font-family="Helvetica,sans-Serif" font-size="10.00">y</text>
</g>
<!-- Node7 -->
<g id="node6" class="node"><title>Node7</title>
<polygon fill="white" stroke="#bfbfbf" points="205.5,-67.5 205.5,-86.5 234.5,-86.5 234.5,-67.5 205.5,-67.5"/>
<text text-anchor="middle" x="220" y="-74.5" font-family="Helvetica,sans-Serif" font-size="10.00">int</text>
</g>
<!-- Node7&#45;&gt;Node2 -->
<g id="edge6" class="edge"><title>Node7&#45;&gt;Node2</title>
<path fill="none" stroke="#9a32cd" stroke-dasharray="5,2" d="M215.139,-57.4145C211.889,-44.9883 207.764,-29.2166 205.256,-19.6273"/>
<polygon fill="#9a32cd" stroke="#9a32cd" points="211.791,-58.4448 217.707,-67.2338 218.563,-56.6736 211.791,-58.4448"/>
<text text-anchor="middle" x="239.5" y="-41" font-family="Helvetica,sans-Serif" font-size="10.00"> waveCount</text>
</g>
</g>
</svg>
