<?xml version="1.0" encoding="UTF-8" standalone="no"?>
<!DOCTYPE svg PUBLIC "-//W3C//DTD SVG 1.1//EN"
 "http://www.w3.org/Graphics/SVG/1.1/DTD/svg11.dtd">
<!-- Generated by graphviz version 2.36.0 (20140111.2315)
 -->
<!-- Title: TitleState Pages: 1 -->
<svg width="1126pt" height="1234pt"
 viewBox="0.00 0.00 1126.00 1234.00" xmlns="http://www.w3.org/2000/svg" xmlns:xlink="http://www.w3.org/1999/xlink">
<g id="graph0" class="graph" transform="scale(1 1) rotate(0) translate(4 1230)">
<title>TitleState</title>
<polygon fill="white" stroke="none" points="-4,4 -4,-1230 1122,-1230 1122,4 -4,4"/>
<!-- Node1 -->
<g id="node1" class="node"><title>Node1</title>
<polygon fill="#bfbfbf" stroke="black" points="1058.5,-646.5 1058.5,-665.5 1117.5,-665.5 1117.5,-646.5 1058.5,-646.5"/>
<text text-anchor="middle" x="1088" y="-653.5" font-family="Helvetica,sans-Serif" font-size="10.00">TitleState</text>
</g>
<!-- Node2 -->
<g id="node2" class="node"><title>Node2</title>
<g id="a_node2"><a xlink:href="classState.html" target="_top" xlink:title="Classe virtual que modela um estado do jogo. ">
<polygon fill="white" stroke="black" points="426,-44.5 426,-63.5 466,-63.5 466,-44.5 426,-44.5"/>
<text text-anchor="middle" x="446" y="-51.5" font-family="Helvetica,sans-Serif" font-size="10.00">State</text>
</a>
</g>
</g>
<!-- Node2&#45;&gt;Node1 -->
<g id="edge1" class="edge"><title>Node2&#45;&gt;Node1</title>
<path fill="none" stroke="midnightblue" d="M476.473,-52.4874C509.786,-51.453 565.442,-51.7721 612,-62 732.84,-88.5462 771.28,-105.835 856,-196 957.713,-304.25 980.313,-338.981 1040,-475 1067.27,-537.134 1081.34,-618.455 1085.59,-646.22"/>
<polygon fill="midnightblue" stroke="midnightblue" points="475.939,-49.0049 466.077,-52.8778 476.201,-56 475.939,-49.0049"/>
</g>
<!-- Node33 -->
<g id="node33" class="node"><title>Node33</title>
<g id="a_node33"><a xlink:href="classUIbutton.html" target="_top" xlink:title="Classe virtual que modela o comportamento de um botão na interface gráfica. ">
<polygon fill="white" stroke="black" points="667,-130.5 667,-149.5 721,-149.5 721,-130.5 667,-130.5"/>
<text text-anchor="middle" x="694" y="-137.5" font-family="Helvetica,sans-Serif" font-size="10.00">UIbutton</text>
</a>
</g>
</g>
<!-- Node2&#45;&gt;Node33 -->
<g id="edge47" class="edge"><title>Node2&#45;&gt;Node33</title>
<path fill="none" stroke="#9a32cd" stroke-dasharray="5,2" d="M476.213,-55.0023C510.074,-57.0473 566.985,-63.2457 612,-82 640.419,-93.84 668.478,-117.256 682.938,-130.425"/>
<polygon fill="#9a32cd" stroke="#9a32cd" points="476.242,-51.4992 466.074,-54.4737 475.878,-58.4897 476.242,-51.4992"/>
<text text-anchor="middle" x="569" y="-85" font-family="Helvetica,sans-Serif" font-size="10.00"> actualState</text>
</g>
<!-- Node3 -->
<g id="node3" class="node"><title>Node3</title>
<polygon fill="white" stroke="#bfbfbf" points="147.5,-21 147.5,-51 262.5,-51 262.5,-21 147.5,-21"/>
<text text-anchor="start" x="155.5" y="-39" font-family="Helvetica,sans-Serif" font-size="10.00">vector&lt; std::unique</text>
<text text-anchor="middle" x="205" y="-28" font-family="Helvetica,sans-Serif" font-size="10.00">_ptr&lt; GameObject &gt; &gt;</text>
</g>
<!-- Node3&#45;&gt;Node2 -->
<g id="edge2" class="edge"><title>Node3&#45;&gt;Node2</title>
<path fill="none" stroke="#9a32cd" stroke-dasharray="5,2" d="M273.131,-33.3581C301.818,-33.0204 335.628,-33.6731 366,-37 386.64,-39.2609 409.819,-44.5895 425.703,-48.6831"/>
<polygon fill="#9a32cd" stroke="#9a32cd" points="272.753,-29.8637 262.81,-33.5243 272.865,-36.8628 272.753,-29.8637"/>
<text text-anchor="middle" x="329" y="-40" font-family="Helvetica,sans-Serif" font-size="10.00"> objectArray</text>
</g>
<!-- Node4 -->
<g id="node4" class="node"><title>Node4</title>
<polygon fill="white" stroke="#bfbfbf" points="187.5,-231.5 187.5,-250.5 222.5,-250.5 222.5,-231.5 187.5,-231.5"/>
<text text-anchor="middle" x="205" y="-238.5" font-family="Helvetica,sans-Serif" font-size="10.00">bool</text>
</g>
<!-- Node4&#45;&gt;Node2 -->
<g id="edge3" class="edge"><title>Node4&#45;&gt;Node2</title>
<path fill="none" stroke="#9a32cd" stroke-dasharray="5,2" d="M209.639,-221.296C217.508,-184.826 239.789,-107.224 292,-71 332.733,-42.7393 394.769,-46.5085 425.848,-50.7278"/>
<polygon fill="#9a32cd" stroke="#9a32cd" points="206.187,-220.708 207.643,-231.203 213.049,-222.091 206.187,-220.708"/>
<text text-anchor="middle" x="329" y="-85" font-family="Helvetica,sans-Serif" font-size="10.00"> quitRequested</text>
<text text-anchor="middle" x="329" y="-74" font-family="Helvetica,sans-Serif" font-size="10.00">popRequested</text>
</g>
<!-- Node14 -->
<g id="node14" class="node"><title>Node14</title>
<g id="a_node14"><a xlink:href="classSprite.html" target="_top" xlink:title="Classe que modela uma sprite. ">
<polygon fill="white" stroke="black" points="425,-1042.5 425,-1061.5 467,-1061.5 467,-1042.5 425,-1042.5"/>
<text text-anchor="middle" x="446" y="-1049.5" font-family="Helvetica,sans-Serif" font-size="10.00">Sprite</text>
</a>
</g>
</g>
<!-- Node4&#45;&gt;Node14 -->
<g id="edge20" class="edge"><title>Node4&#45;&gt;Node14</title>
<path fill="none" stroke="#9a32cd" stroke-dasharray="5,2" d="M210.431,-260.282C222.471,-313.362 256.084,-466.242 274,-595 280.364,-640.733 262.591,-766.404 292,-802 313.775,-828.356 341.162,-799.508 366,-823 432.303,-885.711 442.965,-1006.65 444.675,-1042.04"/>
<polygon fill="#9a32cd" stroke="#9a32cd" points="213.839,-259.485 208.203,-250.514 207.015,-261.042 213.839,-259.485"/>
<text text-anchor="middle" x="329" y="-826" font-family="Helvetica,sans-Serif" font-size="10.00"> highlightable</text>
</g>
<!-- Node26 -->
<g id="node26" class="node"><title>Node26</title>
<g id="a_node26"><a xlink:href="classUItext.html" target="_top" xlink:title="Classe que modela textos. ">
<polygon fill="white" stroke="black" points="672,-442.5 672,-461.5 716,-461.5 716,-442.5 672,-442.5"/>
<text text-anchor="middle" x="694" y="-449.5" font-family="Helvetica,sans-Serif" font-size="10.00">UItext</text>
</a>
</g>
</g>
<!-- Node4&#45;&gt;Node26 -->
<g id="edge40" class="edge"><title>Node4&#45;&gt;Node26</title>
<path fill="none" stroke="#9a32cd" stroke-dasharray="5,2" d="M227.381,-256.707C259.738,-279.798 323.773,-322.878 384,-348 480.502,-388.253 515.007,-366.945 612,-406 636.752,-415.967 663.247,-432.195 678.954,-442.473"/>
<polygon fill="#9a32cd" stroke="#9a32cd" points="229.283,-253.764 219.124,-250.756 225.19,-259.443 229.283,-253.764"/>
<text text-anchor="middle" x="446" y="-382" font-family="Helvetica,sans-Serif" font-size="10.00"> isStrobe</text>
</g>
<!-- Node4&#45;&gt;Node33 -->
<g id="edge48" class="edge"><title>Node4&#45;&gt;Node33</title>
<path fill="none" stroke="#9a32cd" stroke-dasharray="5,2" d="M222.538,-223.892C251.839,-194.96 316.202,-137.428 384,-116 484.56,-84.2181 612.267,-115.171 666.607,-131.425"/>
<polygon fill="#9a32cd" stroke="#9a32cd" points="219.8,-221.682 215.23,-231.24 224.763,-226.618 219.8,-221.682"/>
<text text-anchor="middle" x="446" y="-119" font-family="Helvetica,sans-Serif" font-size="10.00"> interactOnBoundingBox</text>
</g>
<!-- Node5 -->
<g id="node5" class="node"><title>Node5</title>
<g id="a_node5"><a xlink:href="classMusic.html" target="_top" xlink:title="Classe que modela músicas. ">
<polygon fill="white" stroke="black" points="895.5,-0.5 895.5,-19.5 938.5,-19.5 938.5,-0.5 895.5,-0.5"/>
<text text-anchor="middle" x="917" y="-7.5" font-family="Helvetica,sans-Serif" font-size="10.00">Music</text>
</a>
</g>
</g>
<!-- Node5&#45;&gt;Node1 -->
<g id="edge4" class="edge"><title>Node5&#45;&gt;Node1</title>
<path fill="none" stroke="#9a32cd" stroke-dasharray="5,2" d="M948.688,-3.47929C976.605,0.475253 1016.87,0.879234 1040,-23 1085.33,-69.8036 1087.02,-570.369 1087.01,-646.356"/>
<polygon fill="#9a32cd" stroke="#9a32cd" points="947.956,-0.0524453 938.655,-5.12552 949.09,-6.96008 947.956,-0.0524453"/>
<text text-anchor="middle" x="1009" y="-26" font-family="Helvetica,sans-Serif" font-size="10.00"> titleMusic</text>
</g>
<!-- Node6 -->
<g id="node6" class="node"><title>Node6</title>
<polygon fill="white" stroke="#bfbfbf" points="630,-0.5 630,-19.5 758,-19.5 758,-0.5 630,-0.5"/>
<text text-anchor="middle" x="694" y="-7.5" font-family="Helvetica,sans-Serif" font-size="10.00">shared_ptr&lt; Mix_Music &gt;</text>
</g>
<!-- Node6&#45;&gt;Node5 -->
<g id="edge5" class="edge"><title>Node6&#45;&gt;Node5</title>
<path fill="none" stroke="#9a32cd" stroke-dasharray="5,2" d="M768.273,-10C812.873,-10 866.634,-10 895.419,-10"/>
<polygon fill="#9a32cd" stroke="#9a32cd" points="768.034,-6.5001 758.034,-10 768.034,-13.5001 768.034,-6.5001"/>
<text text-anchor="middle" x="816" y="-13" font-family="Helvetica,sans-Serif" font-size="10.00"> music</text>
</g>
<!-- Node7 -->
<g id="node7" class="node"><title>Node7</title>
<g id="a_node7"><a xlink:href="classUIcanvas.html" target="_top" xlink:title="UIcanvas">
<polygon fill="white" stroke="black" points="664.5,-780.5 664.5,-799.5 723.5,-799.5 723.5,-780.5 664.5,-780.5"/>
<text text-anchor="middle" x="694" y="-787.5" font-family="Helvetica,sans-Serif" font-size="10.00">UIcanvas</text>
</a>
</g>
</g>
<!-- Node7&#45;&gt;Node1 -->
<g id="edge6" class="edge"><title>Node7&#45;&gt;Node1</title>
<path fill="none" stroke="#9a32cd" stroke-dasharray="5,2" d="M734.165,-790.679C802.508,-789.963 945.284,-779.837 1040,-713 1058.23,-700.133 1073.39,-678.424 1081.24,-665.838"/>
<polygon fill="#9a32cd" stroke="#9a32cd" points="733.84,-787.18 723.854,-790.72 733.868,-794.18 733.84,-787.18"/>
<text text-anchor="middle" x="917" y="-779" font-family="Helvetica,sans-Serif" font-size="10.00"> canvas</text>
</g>
<!-- Node23 -->
<g id="node23" class="node"><title>Node23</title>
<g id="a_node23"><a xlink:href="classUIverticalGroup.html" target="_top" xlink:title="UIverticalGroup">
<polygon fill="white" stroke="black" points="874.5,-713.5 874.5,-732.5 959.5,-732.5 959.5,-713.5 874.5,-713.5"/>
<text text-anchor="middle" x="917" y="-720.5" font-family="Helvetica,sans-Serif" font-size="10.00">UIverticalGroup</text>
</a>
</g>
</g>
<!-- Node7&#45;&gt;Node23 -->
<g id="edge29" class="edge"><title>Node7&#45;&gt;Node23</title>
<path fill="none" stroke="midnightblue" d="M733.853,-782.849C766.857,-776.242 815.224,-765.293 856,-751 870.536,-745.905 886.294,-738.472 898.012,-732.545"/>
<polygon fill="midnightblue" stroke="midnightblue" points="732.845,-779.48 723.706,-784.841 734.193,-786.349 732.845,-779.48"/>
</g>
<!-- Node8 -->
<g id="node8" class="node"><title>Node8</title>
<g id="a_node8"><a xlink:href="classUIelement.html" target="_top" xlink:title="UIelement">
<polygon fill="white" stroke="black" points="415,-780.5 415,-799.5 477,-799.5 477,-780.5 415,-780.5"/>
<text text-anchor="middle" x="446" y="-787.5" font-family="Helvetica,sans-Serif" font-size="10.00">UIelement</text>
</a>
</g>
</g>
<!-- Node8&#45;&gt;Node7 -->
<g id="edge7" class="edge"><title>Node8&#45;&gt;Node7</title>
<path fill="none" stroke="midnightblue" d="M487.265,-790C537.127,-790 620.807,-790 664.495,-790"/>
<polygon fill="midnightblue" stroke="midnightblue" points="487.164,-786.5 477.164,-790 487.164,-793.5 487.164,-786.5"/>
</g>
<!-- Node13 -->
<g id="node13" class="node"><title>Node13</title>
<g id="a_node13"><a xlink:href="classUIimage.html" target="_top" xlink:title="UIimage">
<polygon fill="white" stroke="black" points="667.5,-926.5 667.5,-945.5 720.5,-945.5 720.5,-926.5 667.5,-926.5"/>
<text text-anchor="middle" x="694" y="-933.5" font-family="Helvetica,sans-Serif" font-size="10.00">UIimage</text>
</a>
</g>
</g>
<!-- Node8&#45;&gt;Node13 -->
<g id="edge14" class="edge"><title>Node8&#45;&gt;Node13</title>
<path fill="none" stroke="midnightblue" d="M471.766,-804.699C522.023,-834.526 634.771,-901.441 676.8,-926.385"/>
<polygon fill="midnightblue" stroke="midnightblue" points="473.527,-801.673 463.141,-799.579 469.954,-807.693 473.527,-801.673"/>
</g>
<!-- Node8&#45;&gt;Node26 -->
<g id="edge34" class="edge"><title>Node8&#45;&gt;Node26</title>
<path fill="none" stroke="midnightblue" d="M469.743,-774.299C504.448,-749.353 570.915,-697.562 612,-640 655.565,-578.964 682.342,-490.827 690.41,-461.727"/>
<polygon fill="midnightblue" stroke="midnightblue" points="467.373,-771.689 461.241,-780.328 471.423,-777.399 467.373,-771.689"/>
</g>
<!-- Node9 -->
<g id="node9" class="node"><title>Node9</title>
<g id="a_node9"><a xlink:href="classVec2.html" target="_top" xlink:title="Classe que modela um vetor(no sentido físico) ">
<polygon fill="white" stroke="black" points="185.5,-860.5 185.5,-879.5 224.5,-879.5 224.5,-860.5 185.5,-860.5"/>
<text text-anchor="middle" x="205" y="-867.5" font-family="Helvetica,sans-Serif" font-size="10.00">Vec2</text>
</a>
</g>
</g>
<!-- Node9&#45;&gt;Node8 -->
<g id="edge8" class="edge"><title>Node9&#45;&gt;Node8</title>
<path fill="none" stroke="#9a32cd" stroke-dasharray="5,2" d="M230.329,-884.512C262.935,-901.912 321.816,-926.021 366,-903 409.093,-880.547 433.519,-822.649 441.785,-799.638"/>
<polygon fill="#9a32cd" stroke="#9a32cd" points="231.924,-881.395 221.481,-879.608 228.53,-887.517 231.924,-881.395"/>
<text text-anchor="middle" x="329" y="-926" font-family="Helvetica,sans-Serif" font-size="10.00"> center</text>
<text text-anchor="middle" x="329" y="-915" font-family="Helvetica,sans-Serif" font-size="10.00">kernelSize</text>
</g>
<!-- Node10 -->
<g id="node10" class="node"><title>Node10</title>
<polygon fill="white" stroke="#bfbfbf" points="21.5,-718.5 21.5,-737.5 56.5,-737.5 56.5,-718.5 21.5,-718.5"/>
<text text-anchor="middle" x="39" y="-725.5" font-family="Helvetica,sans-Serif" font-size="10.00">float</text>
</g>
<!-- Node10&#45;&gt;Node9 -->
<g id="edge9" class="edge"><title>Node10&#45;&gt;Node9</title>
<path fill="none" stroke="#9a32cd" stroke-dasharray="5,2" d="M58.8855,-744.352C93.1952,-774.059 164.78,-836.041 192.599,-860.128"/>
<polygon fill="#9a32cd" stroke="#9a32cd" points="60.8662,-741.437 51.0152,-737.538 56.2841,-746.729 60.8662,-741.437"/>
<text text-anchor="middle" x="107" y="-808" font-family="Helvetica,sans-Serif" font-size="10.00"> x</text>
<text text-anchor="middle" x="107" y="-797" font-family="Helvetica,sans-Serif" font-size="10.00">y</text>
</g>
<!-- Node11 -->
<g id="node11" class="node"><title>Node11</title>
<g id="a_node11"><a xlink:href="classRect.html" target="_top" xlink:title="Classe que modela um rect. ">
<polygon fill="white" stroke="black" points="186,-718.5 186,-737.5 224,-737.5 224,-718.5 186,-718.5"/>
<text text-anchor="middle" x="205" y="-725.5" font-family="Helvetica,sans-Serif" font-size="10.00">Rect</text>
</a>
</g>
</g>
<!-- Node10&#45;&gt;Node11 -->
<g id="edge11" class="edge"><title>Node10&#45;&gt;Node11</title>
<path fill="none" stroke="#9a32cd" stroke-dasharray="5,2" d="M66.6373,-728C100.175,-728 156.894,-728 185.835,-728"/>
<polygon fill="#9a32cd" stroke="#9a32cd" points="66.6277,-724.5 56.6277,-728 66.6277,-731.5 66.6277,-724.5"/>
<text text-anchor="middle" x="107" y="-764" font-family="Helvetica,sans-Serif" font-size="10.00"> w</text>
<text text-anchor="middle" x="107" y="-753" font-family="Helvetica,sans-Serif" font-size="10.00">x</text>
<text text-anchor="middle" x="107" y="-742" font-family="Helvetica,sans-Serif" font-size="10.00">h</text>
<text text-anchor="middle" x="107" y="-731" font-family="Helvetica,sans-Serif" font-size="10.00">y</text>
</g>
<!-- Node10&#45;&gt;Node13 -->
<g id="edge24" class="edge"><title>Node10&#45;&gt;Node13</title>
<path fill="none" stroke="#9a32cd" stroke-dasharray="5,2" d="M46.2747,-747.212C58.2614,-780.922 87.6158,-850.767 136,-889 299.706,-1018.36 581.31,-963.586 667.312,-942.724"/>
<polygon fill="#9a32cd" stroke="#9a32cd" points="49.542,-745.949 42.9911,-737.623 42.9195,-748.217 49.542,-745.949"/>
<text text-anchor="middle" x="329" y="-972" font-family="Helvetica,sans-Serif" font-size="10.00"> angle</text>
</g>
<!-- Node10&#45;&gt;Node14 -->
<g id="edge16" class="edge"><title>Node10&#45;&gt;Node14</title>
<path fill="none" stroke="#9a32cd" stroke-dasharray="5,2" d="M42.0207,-747.702C47.6527,-798.735 65.1713,-933.374 96,-964 153.594,-1021.22 195.287,-985.127 274,-1005 328.778,-1018.83 392.886,-1036.98 424.804,-1046.15"/>
<polygon fill="#9a32cd" stroke="#9a32cd" points="45.4883,-747.211 40.9462,-737.64 38.5278,-747.955 45.4883,-747.211"/>
<text text-anchor="middle" x="205" y="-1041" font-family="Helvetica,sans-Serif" font-size="10.00"> scaleY</text>
<text text-anchor="middle" x="205" y="-1030" font-family="Helvetica,sans-Serif" font-size="10.00">frameTime</text>
<text text-anchor="middle" x="205" y="-1019" font-family="Helvetica,sans-Serif" font-size="10.00">timeElapsed</text>
<text text-anchor="middle" x="205" y="-1008" font-family="Helvetica,sans-Serif" font-size="10.00">scaleX</text>
</g>
<!-- Node10&#45;&gt;Node23 -->
<g id="edge30" class="edge"><title>Node10&#45;&gt;Node23</title>
<path fill="none" stroke="#9a32cd" stroke-dasharray="5,2" d="M66.3174,-721.348C85.4928,-716.856 112.174,-711.335 136,-709 197.041,-703.018 212.67,-708.331 274,-709 500.579,-711.47 772.06,-718.843 874.319,-721.776"/>
<polygon fill="#9a32cd" stroke="#9a32cd" points="65.4054,-717.967 56.5024,-723.711 67.0439,-724.773 65.4054,-717.967"/>
<text text-anchor="middle" x="446" y="-716" font-family="Helvetica,sans-Serif" font-size="10.00"> padding</text>
</g>
<!-- Node10&#45;&gt;Node26 -->
<g id="edge38" class="edge"><title>Node10&#45;&gt;Node26</title>
<path fill="none" stroke="#9a32cd" stroke-dasharray="5,2" d="M45.2416,-708.107C55.9973,-671.092 84.0337,-591.381 136,-547 228.247,-468.218 265.495,-458.933 384,-433 490.059,-409.791 621.133,-435.038 671.711,-446.722"/>
<polygon fill="#9a32cd" stroke="#9a32cd" points="41.7596,-707.565 42.4511,-718.137 48.5034,-709.441 41.7596,-707.565"/>
<text text-anchor="middle" x="329" y="-469" font-family="Helvetica,sans-Serif" font-size="10.00"> timeShown</text>
<text text-anchor="middle" x="329" y="-458" font-family="Helvetica,sans-Serif" font-size="10.00">strobeFrequency</text>
</g>
<!-- Node31 -->
<g id="node31" class="node"><title>Node31</title>
<g id="a_node31"><a xlink:href="classTimer.html" target="_top" xlink:title="Temporizador. ">
<polygon fill="white" stroke="black" points="308.5,-536.5 308.5,-555.5 349.5,-555.5 349.5,-536.5 308.5,-536.5"/>
<text text-anchor="middle" x="329" y="-543.5" font-family="Helvetica,sans-Serif" font-size="10.00">Timer</text>
</a>
</g>
</g>
<!-- Node10&#45;&gt;Node31 -->
<g id="edge43" class="edge"><title>Node10&#45;&gt;Node31</title>
<path fill="none" stroke="#9a32cd" stroke-dasharray="5,2" d="M48.3719,-709.059C62.2499,-679.918 92.8335,-624.388 136,-595 190.599,-557.828 271.3,-548.852 308.237,-546.687"/>
<polygon fill="#9a32cd" stroke="#9a32cd" points="45.1754,-707.633 44.1665,-718.179 51.5322,-710.564 45.1754,-707.633"/>
<text text-anchor="middle" x="107" y="-635" font-family="Helvetica,sans-Serif" font-size="10.00"> time</text>
</g>
<!-- Node11&#45;&gt;Node8 -->
<g id="edge10" class="edge"><title>Node11&#45;&gt;Node8</title>
<path fill="none" stroke="#9a32cd" stroke-dasharray="5,2" d="M234.46,-726.644C267.072,-725.959 321.72,-727.491 366,-742 392.079,-750.545 418.566,-769.091 433.281,-780.465"/>
<polygon fill="#9a32cd" stroke="#9a32cd" points="234.183,-723.15 224.291,-726.946 234.391,-730.147 234.183,-723.15"/>
<text text-anchor="middle" x="329" y="-778" font-family="Helvetica,sans-Serif" font-size="10.00"> offsets</text>
<text text-anchor="middle" x="329" y="-767" font-family="Helvetica,sans-Serif" font-size="10.00">box</text>
<text text-anchor="middle" x="329" y="-756" font-family="Helvetica,sans-Serif" font-size="10.00">anchors</text>
<text text-anchor="middle" x="329" y="-745" font-family="Helvetica,sans-Serif" font-size="10.00">boundingBox</text>
</g>
<!-- Node12 -->
<g id="node12" class="node"><title>Node12</title>
<polygon fill="white" stroke="#bfbfbf" points="166.5,-780.5 166.5,-799.5 243.5,-799.5 243.5,-780.5 166.5,-780.5"/>
<text text-anchor="middle" x="205" y="-787.5" font-family="Helvetica,sans-Serif" font-size="10.00">BehaviorType</text>
</g>
<!-- Node12&#45;&gt;Node8 -->
<g id="edge12" class="edge"><title>Node12&#45;&gt;Node8</title>
<path fill="none" stroke="#9a32cd" stroke-dasharray="5,2" d="M253.752,-790C301.743,-790 374.247,-790 414.802,-790"/>
<polygon fill="#9a32cd" stroke="#9a32cd" points="253.607,-786.5 243.607,-790 253.607,-793.5 253.607,-786.5"/>
<text text-anchor="middle" x="329" y="-793" font-family="Helvetica,sans-Serif" font-size="10.00"> behavior</text>
</g>
<!-- Node13&#45;&gt;Node1 -->
<g id="edge13" class="edge"><title>Node13&#45;&gt;Node1</title>
<path fill="none" stroke="#9a32cd" stroke-dasharray="5,2" d="M730.658,-924.21C798.677,-900.151 948.331,-839.471 1040,-744 1062.91,-720.137 1077.8,-682.897 1083.88,-665.524"/>
<polygon fill="#9a32cd" stroke="#9a32cd" points="729.14,-921.032 720.847,-927.625 731.442,-927.643 729.14,-921.032"/>
<text text-anchor="middle" x="917" y="-930" font-family="Helvetica,sans-Serif" font-size="10.00"> title</text>
<text text-anchor="middle" x="917" y="-919" font-family="Helvetica,sans-Serif" font-size="10.00">icc</text>
<text text-anchor="middle" x="917" y="-908" font-family="Helvetica,sans-Serif" font-size="10.00">lua</text>
<text text-anchor="middle" x="917" y="-897" font-family="Helvetica,sans-Serif" font-size="10.00">bg</text>
<text text-anchor="middle" x="917" y="-886" font-family="Helvetica,sans-Serif" font-size="10.00">overlay</text>
<text text-anchor="middle" x="917" y="-875" font-family="Helvetica,sans-Serif" font-size="10.00">nuvemA</text>
<text text-anchor="middle" x="917" y="-864" font-family="Helvetica,sans-Serif" font-size="10.00">nuvemB</text>
</g>
<!-- Node14&#45;&gt;Node13 -->
<g id="edge15" class="edge"><title>Node14&#45;&gt;Node13</title>
<path fill="none" stroke="#9a32cd" stroke-dasharray="5,2" d="M476.872,-1041.18C510.37,-1028.7 566.025,-1006.95 612,-984 635.986,-972.028 662.482,-955.696 678.429,-945.504"/>
<polygon fill="#9a32cd" stroke="#9a32cd" points="475.39,-1037.99 467.223,-1044.74 477.816,-1044.56 475.39,-1037.99"/>
<text text-anchor="middle" x="569" y="-1024" font-family="Helvetica,sans-Serif" font-size="10.00"> sp</text>
</g>
<!-- Node15 -->
<g id="node15" class="node"><title>Node15</title>
<polygon fill="white" stroke="#bfbfbf" points="174,-1134.5 174,-1153.5 236,-1153.5 236,-1134.5 174,-1134.5"/>
<text text-anchor="middle" x="205" y="-1141.5" font-family="Helvetica,sans-Serif" font-size="10.00">SDL_Rect</text>
</g>
<!-- Node15&#45;&gt;Node14 -->
<g id="edge17" class="edge"><title>Node15&#45;&gt;Node14</title>
<path fill="none" stroke="#9a32cd" stroke-dasharray="5,2" d="M246.435,-1138.19C279.572,-1132.49 327.163,-1122.11 366,-1105 391.996,-1093.55 418.722,-1073.56 433.462,-1061.67"/>
<polygon fill="#9a32cd" stroke="#9a32cd" points="245.509,-1134.8 236.214,-1139.88 246.651,-1141.7 245.509,-1134.8"/>
<text text-anchor="middle" x="329" y="-1131" font-family="Helvetica,sans-Serif" font-size="10.00"> clipRect</text>
</g>
<!-- Node16 -->
<g id="node16" class="node"><title>Node16</title>
<polygon fill="white" stroke="#bfbfbf" points="190.5,-604.5 190.5,-623.5 219.5,-623.5 219.5,-604.5 190.5,-604.5"/>
<text text-anchor="middle" x="205" y="-611.5" font-family="Helvetica,sans-Serif" font-size="10.00">int</text>
</g>
<!-- Node16&#45;&gt;Node14 -->
<g id="edge18" class="edge"><title>Node16&#45;&gt;Node14</title>
<path fill="none" stroke="#9a32cd" stroke-dasharray="5,2" d="M229.796,-614.159C244.822,-615.618 263.346,-620.18 274,-633 302.946,-667.83 262.688,-801.477 292,-836 313.977,-861.884 340.48,-832.601 366,-855 425.543,-907.262 440.794,-1010.69 444.152,-1042.48"/>
<polygon fill="#9a32cd" stroke="#9a32cd" points="229.821,-610.655 219.635,-613.571 229.416,-617.643 229.821,-610.655"/>
<text text-anchor="middle" x="329" y="-891" font-family="Helvetica,sans-Serif" font-size="10.00"> width</text>
<text text-anchor="middle" x="329" y="-880" font-family="Helvetica,sans-Serif" font-size="10.00">currentFrame</text>
<text text-anchor="middle" x="329" y="-869" font-family="Helvetica,sans-Serif" font-size="10.00">height</text>
<text text-anchor="middle" x="329" y="-858" font-family="Helvetica,sans-Serif" font-size="10.00">frameCount</text>
</g>
<!-- Node21 -->
<g id="node21" class="node"><title>Node21</title>
<g id="a_node21"><a xlink:href="classSound.html" target="_top" xlink:title="Classe que modela sons. ">
<polygon fill="white" stroke="black" points="424,-650.5 424,-669.5 468,-669.5 468,-650.5 424,-650.5"/>
<text text-anchor="middle" x="446" y="-657.5" font-family="Helvetica,sans-Serif" font-size="10.00">Sound</text>
</a>
</g>
</g>
<!-- Node16&#45;&gt;Node21 -->
<g id="edge26" class="edge"><title>Node16&#45;&gt;Node21</title>
<path fill="none" stroke="#9a32cd" stroke-dasharray="5,2" d="M229.716,-617.48C261.036,-622.194 317.856,-631.161 366,-641 385.764,-645.039 408.098,-650.494 423.964,-654.523"/>
<polygon fill="#9a32cd" stroke="#9a32cd" points="230.164,-614.008 219.757,-615.995 229.131,-620.931 230.164,-614.008"/>
<text text-anchor="middle" x="329" y="-644" font-family="Helvetica,sans-Serif" font-size="10.00"> channel</text>
</g>
<!-- Node16&#45;&gt;Node26 -->
<g id="edge39" class="edge"><title>Node16&#45;&gt;Node26</title>
<path fill="none" stroke="#9a32cd" stroke-dasharray="5,2" d="M229.786,-610.386C306.249,-598.486 544.674,-559.112 612,-521 641.258,-504.438 669.855,-476.55 683.943,-461.811"/>
<polygon fill="#9a32cd" stroke="#9a32cd" points="229.069,-606.955 219.72,-611.939 230.137,-613.873 229.069,-606.955"/>
<text text-anchor="middle" x="446" y="-587" font-family="Helvetica,sans-Serif" font-size="10.00"> fontSize</text>
</g>
<!-- Node17 -->
<g id="node17" class="node"><title>Node17</title>
<polygon fill="white" stroke="#bfbfbf" points="136,-1096.5 136,-1115.5 274,-1115.5 274,-1096.5 136,-1096.5"/>
<text text-anchor="middle" x="205" y="-1103.5" font-family="Helvetica,sans-Serif" font-size="10.00">shared_ptr&lt; SDL_Texture &gt;</text>
</g>
<!-- Node17&#45;&gt;Node14 -->
<g id="edge19" class="edge"><title>Node17&#45;&gt;Node14</title>
<path fill="none" stroke="#9a32cd" stroke-dasharray="5,2" d="M275.407,-1094.7C303.661,-1089.65 336.54,-1083.21 366,-1076 386.188,-1071.06 408.851,-1064.01 424.709,-1058.84"/>
<polygon fill="#9a32cd" stroke="#9a32cd" points="274.463,-1091.31 265.222,-1096.49 275.678,-1098.2 274.463,-1091.31"/>
<text text-anchor="middle" x="329" y="-1093" font-family="Helvetica,sans-Serif" font-size="10.00"> texture</text>
</g>
<!-- Node18 -->
<g id="node18" class="node"><title>Node18</title>
<polygon fill="white" stroke="#bfbfbf" points="160,-1058.5 160,-1077.5 250,-1077.5 250,-1058.5 160,-1058.5"/>
<text text-anchor="middle" x="205" y="-1065.5" font-family="Helvetica,sans-Serif" font-size="10.00">SDL_BlendMode</text>
</g>
<!-- Node18&#45;&gt;Node14 -->
<g id="edge21" class="edge"><title>Node18&#45;&gt;Node14</title>
<path fill="none" stroke="#9a32cd" stroke-dasharray="5,2" d="M260.236,-1064.37C312.539,-1060.87 388.904,-1055.76 424.86,-1053.35"/>
<polygon fill="#9a32cd" stroke="#9a32cd" points="259.859,-1060.89 250.115,-1065.05 260.326,-1067.87 259.859,-1060.89"/>
<text text-anchor="middle" x="329" y="-1064" font-family="Helvetica,sans-Serif" font-size="10.00"> blendMode</text>
</g>
<!-- Node19 -->
<g id="node19" class="node"><title>Node19</title>
<g id="a_node19"><a xlink:href="structColor.html" target="_top" xlink:title="Struct para armazenar informações de cor. ">
<polygon fill="white" stroke="black" points="185,-1172.5 185,-1191.5 225,-1191.5 225,-1172.5 185,-1172.5"/>
<text text-anchor="middle" x="205" y="-1179.5" font-family="Helvetica,sans-Serif" font-size="10.00">Color</text>
</a>
</g>
</g>
<!-- Node19&#45;&gt;Node14 -->
<g id="edge22" class="edge"><title>Node19&#45;&gt;Node14</title>
<path fill="none" stroke="#9a32cd" stroke-dasharray="5,2" d="M235.281,-1180.2C269.007,-1176.97 325.028,-1167.98 366,-1143 400.655,-1121.87 428.154,-1080.51 439.441,-1061.71"/>
<polygon fill="#9a32cd" stroke="#9a32cd" points="234.83,-1176.72 225.162,-1181.06 235.422,-1183.7 234.83,-1176.72"/>
<text text-anchor="middle" x="329" y="-1173" font-family="Helvetica,sans-Serif" font-size="10.00"> colorMultiplier</text>
</g>
<!-- Node20 -->
<g id="node20" class="node"><title>Node20</title>
<polygon fill="white" stroke="#bfbfbf" points="0.5,-1172.5 0.5,-1191.5 77.5,-1191.5 77.5,-1172.5 0.5,-1172.5"/>
<text text-anchor="middle" x="39" y="-1179.5" font-family="Helvetica,sans-Serif" font-size="10.00">unsigned char</text>
</g>
<!-- Node20&#45;&gt;Node19 -->
<g id="edge23" class="edge"><title>Node20&#45;&gt;Node19</title>
<path fill="none" stroke="#9a32cd" stroke-dasharray="5,2" d="M87.8035,-1182C120.194,-1182 161.257,-1182 184.888,-1182"/>
<polygon fill="#9a32cd" stroke="#9a32cd" points="87.6249,-1178.5 77.6249,-1182 87.6249,-1185.5 87.6249,-1178.5"/>
<text text-anchor="middle" x="107" y="-1218" font-family="Helvetica,sans-Serif" font-size="10.00"> g</text>
<text text-anchor="middle" x="107" y="-1207" font-family="Helvetica,sans-Serif" font-size="10.00">a</text>
<text text-anchor="middle" x="107" y="-1196" font-family="Helvetica,sans-Serif" font-size="10.00">r</text>
<text text-anchor="middle" x="107" y="-1185" font-family="Helvetica,sans-Serif" font-size="10.00">b</text>
</g>
<!-- Node21&#45;&gt;Node1 -->
<g id="edge25" class="edge"><title>Node21&#45;&gt;Node1</title>
<path fill="none" stroke="#9a32cd" stroke-dasharray="5,2" d="M478.376,-659.804C587.994,-659.119 952.929,-656.838 1058.29,-656.179"/>
<polygon fill="#9a32cd" stroke="#9a32cd" points="478.272,-656.304 468.294,-659.867 478.316,-663.304 478.272,-656.304"/>
<text text-anchor="middle" x="816" y="-661" font-family="Helvetica,sans-Serif" font-size="10.00"> clickSound</text>
</g>
<!-- Node22 -->
<g id="node22" class="node"><title>Node22</title>
<polygon fill="white" stroke="#bfbfbf" points="140,-642.5 140,-661.5 270,-661.5 270,-642.5 140,-642.5"/>
<text text-anchor="middle" x="205" y="-649.5" font-family="Helvetica,sans-Serif" font-size="10.00">shared_ptr&lt; Mix_Chunk &gt;</text>
</g>
<!-- Node22&#45;&gt;Node21 -->
<g id="edge27" class="edge"><title>Node22&#45;&gt;Node21</title>
<path fill="none" stroke="#9a32cd" stroke-dasharray="5,2" d="M280.143,-654.482C329.905,-656.147 391.99,-658.226 423.898,-659.294"/>
<polygon fill="#9a32cd" stroke="#9a32cd" points="280.159,-650.98 270.048,-654.144 279.925,-657.977 280.159,-650.98"/>
<text text-anchor="middle" x="329" y="-661" font-family="Helvetica,sans-Serif" font-size="10.00"> sound</text>
</g>
<!-- Node23&#45;&gt;Node1 -->
<g id="edge28" class="edge"><title>Node23&#45;&gt;Node1</title>
<path fill="none" stroke="#9a32cd" stroke-dasharray="5,2" d="M951.849,-709.581C984.7,-696.557 1033.74,-677.116 1062.83,-665.582"/>
<polygon fill="#9a32cd" stroke="#9a32cd" points="950.22,-706.461 942.214,-713.401 952.8,-712.969 950.22,-706.461"/>
<text text-anchor="middle" x="1009" y="-701" font-family="Helvetica,sans-Serif" font-size="10.00"> optionsGroup</text>
</g>
<!-- Node24 -->
<g id="node24" class="node"><title>Node24</title>
<polygon fill="white" stroke="#bfbfbf" points="637.5,-734.5 637.5,-753.5 750.5,-753.5 750.5,-734.5 637.5,-734.5"/>
<text text-anchor="middle" x="694" y="-741.5" font-family="Helvetica,sans-Serif" font-size="10.00">vector&lt; UIelement * &gt;</text>
</g>
<!-- Node24&#45;&gt;Node23 -->
<g id="edge31" class="edge"><title>Node24&#45;&gt;Node23</title>
<path fill="none" stroke="#9a32cd" stroke-dasharray="5,2" d="M760.901,-737.738C797.633,-734.248 842.266,-730.006 874.204,-726.972"/>
<polygon fill="#9a32cd" stroke="#9a32cd" points="760.392,-734.27 750.768,-738.701 761.054,-741.239 760.392,-734.27"/>
<text text-anchor="middle" x="816" y="-739" font-family="Helvetica,sans-Serif" font-size="10.00"> groupedElements</text>
</g>
<!-- Node25 -->
<g id="node25" class="node"><title>Node25</title>
<g id="a_node25"><a xlink:href="classUItextButton.html" target="_top" xlink:title="UItextButton">
<polygon fill="white" stroke="black" points="881,-360.5 881,-379.5 953,-379.5 953,-360.5 881,-360.5"/>
<text text-anchor="middle" x="917" y="-367.5" font-family="Helvetica,sans-Serif" font-size="10.00">UItextButton</text>
</a>
</g>
</g>
<!-- Node25&#45;&gt;Node1 -->
<g id="edge32" class="edge"><title>Node25&#45;&gt;Node1</title>
<path fill="none" stroke="#9a32cd" stroke-dasharray="5,2" d="M928.739,-388.173C961.117,-442.968 1057.06,-605.324 1081.36,-646.449"/>
<polygon fill="#9a32cd" stroke="#9a32cd" points="931.724,-386.344 923.623,-379.516 925.697,-389.906 931.724,-386.344"/>
<text text-anchor="middle" x="1009" y="-608" font-family="Helvetica,sans-Serif" font-size="10.00"> exitBtn</text>
<text text-anchor="middle" x="1009" y="-597" font-family="Helvetica,sans-Serif" font-size="10.00">editorBtn</text>
<text text-anchor="middle" x="1009" y="-586" font-family="Helvetica,sans-Serif" font-size="10.00">playBtn</text>
<text text-anchor="middle" x="1009" y="-575" font-family="Helvetica,sans-Serif" font-size="10.00">configBtn</text>
</g>
<!-- Node26&#45;&gt;Node25 -->
<g id="edge33" class="edge"><title>Node26&#45;&gt;Node25</title>
<path fill="none" stroke="midnightblue" d="M725.743,-440.593C769.56,-424.335 849.192,-394.789 890.146,-379.593"/>
<polygon fill="midnightblue" stroke="midnightblue" points="724.348,-437.377 716.19,-444.137 726.783,-443.94 724.348,-437.377"/>
</g>
<!-- Node27 -->
<g id="node27" class="node"><title>Node27</title>
<polygon fill="white" stroke="#bfbfbf" points="384.5,-612.5 384.5,-631.5 507.5,-631.5 507.5,-612.5 384.5,-612.5"/>
<text text-anchor="middle" x="446" y="-619.5" font-family="Helvetica,sans-Serif" font-size="10.00">shared_ptr&lt; TTF_Font &gt;</text>
</g>
<!-- Node27&#45;&gt;Node26 -->
<g id="edge35" class="edge"><title>Node27&#45;&gt;Node26</title>
<path fill="none" stroke="#9a32cd" stroke-dasharray="5,2" d="M518.207,-624.8C549.378,-622.781 584.933,-615.752 612,-597 661.302,-562.845 683.961,-488.469 690.725,-461.779"/>
<polygon fill="#9a32cd" stroke="#9a32cd" points="517.641,-621.324 507.822,-625.303 517.98,-628.315 517.641,-621.324"/>
<text text-anchor="middle" x="569" y="-628" font-family="Helvetica,sans-Serif" font-size="10.00"> font</text>
</g>
<!-- Node28 -->
<g id="node28" class="node"><title>Node28</title>
<polygon fill="white" stroke="#bfbfbf" points="413.5,-279.5 413.5,-298.5 478.5,-298.5 478.5,-279.5 413.5,-279.5"/>
<text text-anchor="middle" x="446" y="-286.5" font-family="Helvetica,sans-Serif" font-size="10.00">SDL_Color</text>
</g>
<!-- Node28&#45;&gt;Node25 -->
<g id="edge50" class="edge"><title>Node28&#45;&gt;Node25</title>
<path fill="none" stroke="#9a32cd" stroke-dasharray="5,2" d="M489.11,-290.674C522.563,-292.399 570.463,-295.75 612,-302 710.403,-316.806 824.399,-345.457 880.737,-360.402"/>
<polygon fill="#9a32cd" stroke="#9a32cd" points="488.942,-287.162 478.783,-290.17 488.6,-294.153 488.942,-287.162"/>
<text text-anchor="middle" x="694" y="-366" font-family="Helvetica,sans-Serif" font-size="10.00"> pressedColor</text>
<text text-anchor="middle" x="694" y="-355" font-family="Helvetica,sans-Serif" font-size="10.00">disabledColor</text>
<text text-anchor="middle" x="694" y="-344" font-family="Helvetica,sans-Serif" font-size="10.00">highlightedColor</text>
<text text-anchor="middle" x="694" y="-333" font-family="Helvetica,sans-Serif" font-size="10.00">enabledColor</text>
</g>
<!-- Node28&#45;&gt;Node26 -->
<g id="edge36" class="edge"><title>Node28&#45;&gt;Node26</title>
<path fill="none" stroke="#9a32cd" stroke-dasharray="5,2" d="M488.666,-295.567C534.159,-303.014 601.923,-315.025 612,-322 656.822,-353.027 681.8,-417.725 689.973,-442.272"/>
<polygon fill="#9a32cd" stroke="#9a32cd" points="489.193,-292.107 478.761,-293.96 488.071,-299.017 489.193,-292.107"/>
<text text-anchor="middle" x="569" y="-325" font-family="Helvetica,sans-Serif" font-size="10.00"> color</text>
</g>
<!-- Node29 -->
<g id="node29" class="node"><title>Node29</title>
<polygon fill="white" stroke="#bfbfbf" points="405.5,-442.5 405.5,-461.5 486.5,-461.5 486.5,-442.5 405.5,-442.5"/>
<text text-anchor="middle" x="446" y="-449.5" font-family="Helvetica,sans-Serif" font-size="10.00">SDL_Texture *</text>
</g>
<!-- Node29&#45;&gt;Node26 -->
<g id="edge37" class="edge"><title>Node29&#45;&gt;Node26</title>
<path fill="none" stroke="#9a32cd" stroke-dasharray="5,2" d="M496.837,-452C550.45,-452 633.198,-452 671.807,-452"/>
<polygon fill="#9a32cd" stroke="#9a32cd" points="496.524,-448.5 486.524,-452 496.524,-455.5 496.524,-448.5"/>
<text text-anchor="middle" x="569" y="-455" font-family="Helvetica,sans-Serif" font-size="10.00"> texture</text>
</g>
<!-- Node30 -->
<g id="node30" class="node"><title>Node30</title>
<polygon fill="white" stroke="#bfbfbf" points="425.5,-319.5 425.5,-338.5 466.5,-338.5 466.5,-319.5 425.5,-319.5"/>
<text text-anchor="middle" x="446" y="-326.5" font-family="Helvetica,sans-Serif" font-size="10.00">string</text>
</g>
<!-- Node30&#45;&gt;Node26 -->
<g id="edge41" class="edge"><title>Node30&#45;&gt;Node26</title>
<path fill="none" stroke="#9a32cd" stroke-dasharray="5,2" d="M476.722,-331.384C517.798,-335.094 589.414,-343.186 612,-356 649.364,-377.199 677.189,-422.62 688.03,-442.431"/>
<polygon fill="#9a32cd" stroke="#9a32cd" points="477.008,-327.896 466.741,-330.514 476.4,-334.869 477.008,-327.896"/>
<text text-anchor="middle" x="569" y="-370" font-family="Helvetica,sans-Serif" font-size="10.00"> fontFile</text>
<text text-anchor="middle" x="569" y="-359" font-family="Helvetica,sans-Serif" font-size="10.00">text</text>
</g>
<!-- Node31&#45;&gt;Node26 -->
<g id="edge42" class="edge"><title>Node31&#45;&gt;Node26</title>
<path fill="none" stroke="#9a32cd" stroke-dasharray="5,2" d="M359.923,-543.642C412.273,-538.852 523.343,-525.712 612,-495 636.522,-486.505 662.655,-471.395 678.406,-461.538"/>
<polygon fill="#9a32cd" stroke="#9a32cd" points="359.329,-540.181 349.673,-544.541 359.94,-547.154 359.329,-540.181"/>
<text text-anchor="middle" x="446" y="-544" font-family="Helvetica,sans-Serif" font-size="10.00"> textTime</text>
</g>
<!-- Node32 -->
<g id="node32" class="node"><title>Node32</title>
<polygon fill="white" stroke="#bfbfbf" points="416.5,-480.5 416.5,-499.5 475.5,-499.5 475.5,-480.5 416.5,-480.5"/>
<text text-anchor="middle" x="446" y="-487.5" font-family="Helvetica,sans-Serif" font-size="10.00">TextStyle</text>
</g>
<!-- Node32&#45;&gt;Node26 -->
<g id="edge44" class="edge"><title>Node32&#45;&gt;Node26</title>
<path fill="none" stroke="#9a32cd" stroke-dasharray="5,2" d="M485.952,-485.069C519.433,-480.711 568.978,-473.978 612,-467 632.329,-463.703 655.416,-459.369 671.727,-456.208"/>
<polygon fill="#9a32cd" stroke="#9a32cd" points="485.143,-481.644 475.674,-486.397 486.04,-488.586 485.143,-481.644"/>
<text text-anchor="middle" x="569" y="-483" font-family="Helvetica,sans-Serif" font-size="10.00"> style</text>
</g>
<!-- Node33&#45;&gt;Node25 -->
<g id="edge45" class="edge"><title>Node33&#45;&gt;Node25</title>
<path fill="none" stroke="midnightblue" d="M718.23,-155.705C751.427,-178.905 813.156,-224.917 856,-274 880.815,-302.429 902.158,-342.214 911.278,-360.33"/>
<polygon fill="midnightblue" stroke="midnightblue" points="719.878,-152.59 709.662,-149.783 715.898,-158.348 719.878,-152.59"/>
</g>
<!-- Node34 -->
<g id="node34" class="node"><title>Node34</title>
<polygon fill="white" stroke="#bfbfbf" points="408.5,-208.5 408.5,-227.5 483.5,-227.5 483.5,-208.5 408.5,-208.5"/>
<text text-anchor="middle" x="446" y="-215.5" font-family="Helvetica,sans-Serif" font-size="10.00">void(*)(void *)</text>
</g>
<!-- Node34&#45;&gt;Node33 -->
<g id="edge46" class="edge"><title>Node34&#45;&gt;Node33</title>
<path fill="none" stroke="#9a32cd" stroke-dasharray="5,2" d="M493.695,-217.575C527.551,-215.897 573.89,-210.726 612,-196 640.067,-185.155 667.827,-162.753 682.436,-149.811"/>
<polygon fill="#9a32cd" stroke="#9a32cd" points="493.459,-214.081 483.611,-217.99 493.747,-221.075 493.459,-214.081"/>
<text text-anchor="middle" x="569" y="-262" font-family="Helvetica,sans-Serif" font-size="10.00"> pressedCallback</text>
<text text-anchor="middle" x="569" y="-251" font-family="Helvetica,sans-Serif" font-size="10.00">disabledCallback</text>
<text text-anchor="middle" x="569" y="-240" font-family="Helvetica,sans-Serif" font-size="10.00">highlightedCallback</text>
<text text-anchor="middle" x="569" y="-229" font-family="Helvetica,sans-Serif" font-size="10.00">enabledCallback</text>
<text text-anchor="middle" x="569" y="-218" font-family="Helvetica,sans-Serif" font-size="10.00">clickedCallback</text>
</g>
<!-- Node35 -->
<g id="node35" class="node"><title>Node35</title>
<polygon fill="white" stroke="#bfbfbf" points="425.5,-136.5 425.5,-155.5 466.5,-155.5 466.5,-136.5 425.5,-136.5"/>
<text text-anchor="middle" x="446" y="-143.5" font-family="Helvetica,sans-Serif" font-size="10.00">void *</text>
</g>
<!-- Node35&#45;&gt;Node33 -->
<g id="edge49" class="edge"><title>Node35&#45;&gt;Node33</title>
<path fill="none" stroke="#9a32cd" stroke-dasharray="5,2" d="M476.883,-143.704C491.654,-142.672 509.754,-141.562 526,-141 575.839,-139.275 634.093,-139.417 666.957,-139.695"/>
<polygon fill="#9a32cd" stroke="#9a32cd" points="476.511,-140.222 466.789,-144.433 477.015,-147.204 476.511,-140.222"/>
<text text-anchor="middle" x="569" y="-188" font-family="Helvetica,sans-Serif" font-size="10.00"> clickCaller</text>
<text text-anchor="middle" x="569" y="-177" font-family="Helvetica,sans-Serif" font-size="10.00">disableCaller</text>
<text text-anchor="middle" x="569" y="-166" font-family="Helvetica,sans-Serif" font-size="10.00">highlightedCaller</text>
<text text-anchor="middle" x="569" y="-155" font-family="Helvetica,sans-Serif" font-size="10.00">pressedCaller</text>
<text text-anchor="middle" x="569" y="-144" font-family="Helvetica,sans-Serif" font-size="10.00">enabledCaller</text>
</g>
</g>
</svg>
