<?xml version="1.0" encoding="UTF-8" standalone="no"?>
<!DOCTYPE svg PUBLIC "-//W3C//DTD SVG 1.1//EN"
 "http://www.w3.org/Graphics/SVG/1.1/DTD/svg11.dtd">
<!-- Generated by graphviz version 2.36.0 (20140111.2315)
 -->
<!-- Title: GameObject Pages: 1 -->
<svg width="234pt" height="196pt"
 viewBox="0.00 0.00 234.31 196.00" xmlns="http://www.w3.org/2000/svg" xmlns:xlink="http://www.w3.org/1999/xlink">
<g id="graph0" class="graph" transform="scale(1 1) rotate(0) translate(4 192)">
<title>GameObject</title>
<polygon fill="white" stroke="none" points="-4,4 -4,-192 230.314,-192 230.314,4 -4,4"/>
<!-- Node1 -->
<g id="node1" class="node"><title>Node1</title>
<polygon fill="#bfbfbf" stroke="black" points="34.8142,-0.5 34.8142,-19.5 105.814,-19.5 105.814,-0.5 34.8142,-0.5"/>
<text text-anchor="middle" x="70.3142" y="-7.5" font-family="Helvetica,sans-Serif" font-size="10.00">GameObject</text>
</g>
<!-- Node2 -->
<g id="node2" class="node"><title>Node2</title>
<g id="a_node2"><a xlink:href="classRect.html" target="_top" xlink:title="Classe que modela um rect. ">
<polygon fill="white" stroke="black" points="51.3142,-68.5 51.3142,-87.5 89.3142,-87.5 89.3142,-68.5 51.3142,-68.5"/>
<text text-anchor="middle" x="70.3142" y="-75.5" font-family="Helvetica,sans-Serif" font-size="10.00">Rect</text>
</a>
</g>
</g>
<!-- Node2&#45;&gt;Node1 -->
<g id="edge1" class="edge"><title>Node2&#45;&gt;Node1</title>
<path fill="none" stroke="#9a32cd" stroke-dasharray="5,2" d="M70.3142,-58.0413C70.3142,-45.4724 70.3142,-29.5631 70.3142,-19.8411"/>
<polygon fill="#9a32cd" stroke="#9a32cd" points="66.8143,-58.3716 70.3142,-68.3717 73.8143,-58.3717 66.8143,-58.3716"/>
<text text-anchor="middle" x="79.8142" y="-41.5" font-family="Helvetica,sans-Serif" font-size="10.00"> box</text>
</g>
<!-- Node3 -->
<g id="node3" class="node"><title>Node3</title>
<polygon fill="white" stroke="#bfbfbf" points="5.81421,-168.5 5.81421,-187.5 40.8142,-187.5 40.8142,-168.5 5.81421,-168.5"/>
<text text-anchor="middle" x="23.3142" y="-175.5" font-family="Helvetica,sans-Serif" font-size="10.00">float</text>
</g>
<!-- Node3&#45;&gt;Node1 -->
<g id="edge3" class="edge"><title>Node3&#45;&gt;Node1</title>
<path fill="none" stroke="#9a32cd" stroke-dasharray="5,2" d="M14.6358,-159.123C5.11219,-136.836 -7.14994,-98.0215 6.31421,-68 16.1779,-46.0066 39.1868,-29.0229 54.754,-19.5157"/>
<polygon fill="#9a32cd" stroke="#9a32cd" points="11.5146,-160.714 18.8415,-168.367 17.8863,-157.816 11.5146,-160.714"/>
<text text-anchor="middle" x="24.3142" y="-75.5" font-family="Helvetica,sans-Serif" font-size="10.00"> rotation</text>
</g>
<!-- Node3&#45;&gt;Node2 -->
<g id="edge2" class="edge"><title>Node3&#45;&gt;Node2</title>
<path fill="none" stroke="#9a32cd" stroke-dasharray="5,2" d="M31.9012,-159.095C42.0723,-137.887 58.5947,-103.436 66.2197,-87.5374"/>
<polygon fill="#9a32cd" stroke="#9a32cd" points="28.6537,-157.773 27.4851,-168.303 34.9654,-160.8 28.6537,-157.773"/>
<text text-anchor="middle" x="62.8142" y="-142" font-family="Helvetica,sans-Serif" font-size="10.00"> w</text>
<text text-anchor="middle" x="62.8142" y="-131" font-family="Helvetica,sans-Serif" font-size="10.00">x</text>
<text text-anchor="middle" x="62.8142" y="-120" font-family="Helvetica,sans-Serif" font-size="10.00">h</text>
<text text-anchor="middle" x="62.8142" y="-109" font-family="Helvetica,sans-Serif" font-size="10.00">y</text>
</g>
<!-- Node4 -->
<g id="node4" class="node"><title>Node4</title>
<polygon fill="white" stroke="#bfbfbf" points="107.814,-68.5 107.814,-87.5 226.814,-87.5 226.814,-68.5 107.814,-68.5"/>
<text text-anchor="middle" x="167.314" y="-75.5" font-family="Helvetica,sans-Serif" font-size="10.00">vector&lt; Component * &gt;</text>
</g>
<!-- Node4&#45;&gt;Node1 -->
<g id="edge4" class="edge"><title>Node4&#45;&gt;Node1</title>
<path fill="none" stroke="#9a32cd" stroke-dasharray="5,2" d="M146.2,-62.6336C126.919,-49.5145 99.0483,-30.551 82.9984,-19.6305"/>
<polygon fill="#9a32cd" stroke="#9a32cd" points="144.397,-65.6399 154.633,-68.3717 148.334,-59.8525 144.397,-65.6399"/>
<text text-anchor="middle" x="156.814" y="-41.5" font-family="Helvetica,sans-Serif" font-size="10.00"> components</text>
</g>
</g>
</svg>
