<?xml version="1.0" encoding="UTF-8" standalone="no"?>
<!DOCTYPE svg PUBLIC "-//W3C//DTD SVG 1.1//EN"
 "http://www.w3.org/Graphics/SVG/1.1/DTD/svg11.dtd">
<!-- Generated by graphviz version 2.38.0 (20140413.2041)
 -->
<!-- Title: Enemy Pages: 1 -->
<svg width="590pt" height="507pt"
 viewBox="0.00 0.00 590.00 506.52" xmlns="http://www.w3.org/2000/svg" xmlns:xlink="http://www.w3.org/1999/xlink">
<g id="graph0" class="graph" transform="scale(1 1) rotate(0) translate(4 502.523)">
<title>Enemy</title>
<polygon fill="white" stroke="none" points="-4,4 -4,-502.523 586,-502.523 586,4 -4,4"/>
<!-- Node1 -->
<g id="node1" class="node"><title>Node1</title>
<polygon fill="#bfbfbf" stroke="black" points="535,-314.023 535,-333.023 582,-333.023 582,-314.023 535,-314.023"/>
<text text-anchor="middle" x="558.5" y="-321.023" font-family="Helvetica,sans-Serif" font-size="10.00">Enemy</text>
</g>
<!-- Node2 -->
<g id="node2" class="node"><title>Node2</title>
<g id="a_node2"><a xlink:href="classGameObject.html" target="_top" xlink:title="Classe virtual que especifica o funcionamento de um GameObject. ">
<polygon fill="white" stroke="black" points="362,-384.023 362,-403.023 433,-403.023 433,-384.023 362,-384.023"/>
<text text-anchor="middle" x="397.5" y="-391.023" font-family="Helvetica,sans-Serif" font-size="10.00">GameObject</text>
</a>
</g>
</g>
<!-- Node2&#45;&gt;Node1 -->
<g id="edge1" class="edge"><title>Node2&#45;&gt;Node1</title>
<path fill="none" stroke="midnightblue" d="M429.822,-379.733C461.096,-365.965 508.34,-345.166 535.734,-333.106"/>
<polygon fill="midnightblue" stroke="midnightblue" points="428.017,-376.704 420.275,-383.937 430.837,-383.111 428.017,-376.704"/>
</g>
<!-- Node3 -->
<g id="node3" class="node"><title>Node3</title>
<g id="a_node3"><a xlink:href="classRect.html" target="_top" xlink:title="Classe que modela um rect. ">
<polygon fill="white" stroke="black" points="174,-384.023 174,-403.023 212,-403.023 212,-384.023 174,-384.023"/>
<text text-anchor="middle" x="193" y="-391.023" font-family="Helvetica,sans-Serif" font-size="10.00">Rect</text>
</a>
</g>
</g>
<!-- Node3&#45;&gt;Node2 -->
<g id="edge2" class="edge"><title>Node3&#45;&gt;Node2</title>
<path fill="none" stroke="#9a32cd" stroke-dasharray="5,2" d="M222.796,-393.523C259.463,-393.523 322.754,-393.523 361.972,-393.523"/>
<polygon fill="#9a32cd" stroke="#9a32cd" points="222.328,-390.023 212.328,-393.523 222.328,-397.023 222.328,-390.023"/>
<text text-anchor="middle" x="312" y="-396.523" font-family="Helvetica,sans-Serif" font-size="10.00"> box</text>
</g>
<!-- Node4 -->
<g id="node4" class="node"><title>Node4</title>
<polygon fill="white" stroke="#bfbfbf" points="21,-371.023 21,-390.023 56,-390.023 56,-371.023 21,-371.023"/>
<text text-anchor="middle" x="38.5" y="-378.023" font-family="Helvetica,sans-Serif" font-size="10.00">float</text>
</g>
<!-- Node4&#45;&gt;Node2 -->
<g id="edge4" class="edge"><title>Node4&#45;&gt;Node2</title>
<path fill="none" stroke="#9a32cd" stroke-dasharray="5,2" d="M54.6543,-397.687C64.888,-407.923 79.3475,-419.975 95,-425.523 99.608,-427.157 101.114,-425.697 106,-425.523 211.98,-421.743 239.569,-426.966 344,-408.523 351.561,-407.188 359.594,-405.196 367.042,-403.096"/>
<polygon fill="#9a32cd" stroke="#9a32cd" points="57.1216,-395.202 47.7025,-390.351 52.0407,-400.017 57.1216,-395.202"/>
<text text-anchor="middle" x="193" y="-427.523" font-family="Helvetica,sans-Serif" font-size="10.00"> rotation</text>
</g>
<!-- Node4&#45;&gt;Node3 -->
<g id="edge3" class="edge"><title>Node4&#45;&gt;Node3</title>
<path fill="none" stroke="#9a32cd" stroke-dasharray="5,2" d="M66.5364,-380.174C78.6258,-380.212 93.0432,-380.526 106,-381.523 129.598,-383.34 156.598,-387.442 173.951,-390.342"/>
<polygon fill="#9a32cd" stroke="#9a32cd" points="66.1867,-376.674 56.1971,-380.204 66.2074,-383.674 66.1867,-376.674"/>
<text text-anchor="middle" x="100.5" y="-417.523" font-family="Helvetica,sans-Serif" font-size="10.00"> w</text>
<text text-anchor="middle" x="100.5" y="-406.523" font-family="Helvetica,sans-Serif" font-size="10.00">x</text>
<text text-anchor="middle" x="100.5" y="-395.523" font-family="Helvetica,sans-Serif" font-size="10.00">h</text>
<text text-anchor="middle" x="100.5" y="-384.523" font-family="Helvetica,sans-Serif" font-size="10.00">y</text>
</g>
<!-- Node8 -->
<g id="node8" class="node"><title>Node8</title>
<g id="a_node8"><a xlink:href="classSprite.html" target="_top" xlink:title="Classe que modela uma sprite. ">
<polygon fill="white" stroke="black" points="376.5,-161.023 376.5,-180.023 418.5,-180.023 418.5,-161.023 376.5,-161.023"/>
<text text-anchor="middle" x="397.5" y="-168.023" font-family="Helvetica,sans-Serif" font-size="10.00">Sprite</text>
</a>
</g>
</g>
<!-- Node4&#45;&gt;Node8 -->
<g id="edge10" class="edge"><title>Node4&#45;&gt;Node8</title>
<path fill="none" stroke="#9a32cd" stroke-dasharray="5,2" d="M46.941,-361.358C58.8323,-333.359 84.8417,-281.664 124,-254.523 206.577,-197.289 251.063,-240.698 344,-202.523 358.218,-196.683 373.052,-187.288 383.311,-180.185"/>
<polygon fill="#9a32cd" stroke="#9a32cd" points="43.6144,-360.246 43.0768,-370.828 50.0955,-362.891 43.6144,-360.246"/>
<text text-anchor="middle" x="193" y="-290.523" font-family="Helvetica,sans-Serif" font-size="10.00"> scaleY</text>
<text text-anchor="middle" x="193" y="-279.523" font-family="Helvetica,sans-Serif" font-size="10.00">frameTime</text>
<text text-anchor="middle" x="193" y="-268.523" font-family="Helvetica,sans-Serif" font-size="10.00">timeElapsed</text>
<text text-anchor="middle" x="193" y="-257.523" font-family="Helvetica,sans-Serif" font-size="10.00">scaleX</text>
</g>
<!-- Node5 -->
<g id="node5" class="node"><title>Node5</title>
<polygon fill="white" stroke="#bfbfbf" points="175.5,-479.023 175.5,-498.023 210.5,-498.023 210.5,-479.023 175.5,-479.023"/>
<text text-anchor="middle" x="193" y="-486.023" font-family="Helvetica,sans-Serif" font-size="10.00">bool</text>
</g>
<!-- Node5&#45;&gt;Node1 -->
<g id="edge18" class="edge"><title>Node5&#45;&gt;Node1</title>
<path fill="none" stroke="#9a32cd" stroke-dasharray="5,2" d="M220.994,-492.197C251.607,-495.369 302.637,-497.621 344,-484.523 432.019,-456.652 447.453,-430.248 517,-369.523 529.824,-358.326 542.438,-343.156 550.096,-333.354"/>
<polygon fill="#9a32cd" stroke="#9a32cd" points="221.03,-488.678 210.695,-491.013 220.23,-495.632 221.03,-488.678"/>
<text text-anchor="middle" x="397.5" y="-480.523" font-family="Helvetica,sans-Serif" font-size="10.00"> dead</text>
</g>
<!-- Node5&#45;&gt;Node2 -->
<g id="edge5" class="edge"><title>Node5&#45;&gt;Node2</title>
<path fill="none" stroke="#9a32cd" stroke-dasharray="5,2" d="M220.754,-483.653C258.019,-476.55 323.31,-462.85 344,-450.523 364.342,-438.404 381.528,-416.007 390.283,-403.193"/>
<polygon fill="#9a32cd" stroke="#9a32cd" points="219.791,-480.273 210.607,-485.556 221.081,-487.153 219.791,-480.273"/>
<text text-anchor="middle" x="312" y="-473.523" font-family="Helvetica,sans-Serif" font-size="10.00"> dead</text>
</g>
<!-- Node6 -->
<g id="node6" class="node"><title>Node6</title>
<polygon fill="white" stroke="#bfbfbf" points="133.5,-346.023 133.5,-365.023 252.5,-365.023 252.5,-346.023 133.5,-346.023"/>
<text text-anchor="middle" x="193" y="-353.023" font-family="Helvetica,sans-Serif" font-size="10.00">vector&lt; Component * &gt;</text>
</g>
<!-- Node6&#45;&gt;Node2 -->
<g id="edge6" class="edge"><title>Node6&#45;&gt;Node2</title>
<path fill="none" stroke="#9a32cd" stroke-dasharray="5,2" d="M262.731,-364.204C288.369,-367.929 317.642,-372.761 344,-378.523 351.038,-380.062 358.524,-382.009 365.572,-383.986"/>
<polygon fill="#9a32cd" stroke="#9a32cd" points="263.122,-360.724 252.728,-362.78 262.135,-367.654 263.122,-360.724"/>
<text text-anchor="middle" x="312" y="-381.523" font-family="Helvetica,sans-Serif" font-size="10.00"> components</text>
</g>
<!-- Node7 -->
<g id="node7" class="node"><title>Node7</title>
<polygon fill="white" stroke="#bfbfbf" points="363,-314.023 363,-333.023 432,-333.023 432,-314.023 363,-314.023"/>
<text text-anchor="middle" x="397.5" y="-321.023" font-family="Helvetica,sans-Serif" font-size="10.00">EnemyType</text>
</g>
<!-- Node7&#45;&gt;Node1 -->
<g id="edge7" class="edge"><title>Node7&#45;&gt;Node1</title>
<path fill="none" stroke="#9a32cd" stroke-dasharray="5,2" d="M442.396,-323.523C472.267,-323.523 510.591,-323.523 534.603,-323.523"/>
<polygon fill="#9a32cd" stroke="#9a32cd" points="442.22,-320.023 432.22,-323.523 442.22,-327.023 442.22,-320.023"/>
<text text-anchor="middle" x="484" y="-326.523" font-family="Helvetica,sans-Serif" font-size="10.00"> type</text>
</g>
<!-- Node8&#45;&gt;Node1 -->
<g id="edge8" class="edge"><title>Node8&#45;&gt;Node1</title>
<path fill="none" stroke="#9a32cd" stroke-dasharray="5,2" d="M422.086,-186.058C447.31,-203.361 487.639,-233.062 517,-264.523 531.58,-280.146 544.85,-301.409 551.989,-313.681"/>
<polygon fill="#9a32cd" stroke="#9a32cd" points="423.768,-182.971 413.525,-180.265 419.845,-188.768 423.768,-182.971"/>
<text text-anchor="middle" x="484" y="-311.523" font-family="Helvetica,sans-Serif" font-size="10.00"> pantsSpName</text>
<text text-anchor="middle" x="484" y="-300.523" font-family="Helvetica,sans-Serif" font-size="10.00">headSpName</text>
<text text-anchor="middle" x="484" y="-289.523" font-family="Helvetica,sans-Serif" font-size="10.00">spName</text>
<text text-anchor="middle" x="484" y="-278.523" font-family="Helvetica,sans-Serif" font-size="10.00">bodySpName</text>
<text text-anchor="middle" x="484" y="-267.523" font-family="Helvetica,sans-Serif" font-size="10.00">sp</text>
</g>
<!-- Node9 -->
<g id="node9" class="node"><title>Node9</title>
<polygon fill="white" stroke="#bfbfbf" points="0,-89.0231 0,-108.023 77,-108.023 77,-89.0231 0,-89.0231"/>
<text text-anchor="middle" x="38.5" y="-96.0231" font-family="Helvetica,sans-Serif" font-size="10.00">unsigned char</text>
</g>
<!-- Node9&#45;&gt;Node8 -->
<g id="edge9" class="edge"><title>Node9&#45;&gt;Node8</title>
<path fill="none" stroke="#9a32cd" stroke-dasharray="5,2" d="M86.9547,-107.208C89.6747,-107.664 92.3712,-108.105 95,-108.523 168.995,-120.28 188.716,-115.938 262,-131.523 303.141,-140.272 350.101,-155.007 376.227,-163.642"/>
<polygon fill="#9a32cd" stroke="#9a32cd" points="87.5288,-103.755 77.0806,-105.512 86.3438,-110.654 87.5288,-103.755"/>
<text text-anchor="middle" x="193" y="-134.523" font-family="Helvetica,sans-Serif" font-size="10.00"> alpha</text>
</g>
<!-- Node14 -->
<g id="node14" class="node"><title>Node14</title>
<g id="a_node14"><a xlink:href="structColor.html" target="_top" xlink:title="Struct para armazenar informações de cor. ">
<polygon fill="white" stroke="black" points="173,-66.0231 173,-85.0231 213,-85.0231 213,-66.0231 173,-66.0231"/>
<text text-anchor="middle" x="193" y="-73.0231" font-family="Helvetica,sans-Serif" font-size="10.00">Color</text>
</a>
</g>
</g>
<!-- Node9&#45;&gt;Node14 -->
<g id="edge16" class="edge"><title>Node9&#45;&gt;Node14</title>
<path fill="none" stroke="#9a32cd" stroke-dasharray="5,2" d="M66.7777,-84.7264C75.5608,-80.9694 85.4866,-77.4163 95,-75.5231 121.591,-70.2314 153.102,-71.5957 172.826,-73.3369"/>
<polygon fill="#9a32cd" stroke="#9a32cd" points="65.0838,-81.6517 57.4297,-88.9774 67.9816,-88.0238 65.0838,-81.6517"/>
<text text-anchor="middle" x="100.5" y="-100.523" font-family="Helvetica,sans-Serif" font-size="10.00"> g</text>
<text text-anchor="middle" x="100.5" y="-89.5231" font-family="Helvetica,sans-Serif" font-size="10.00">r</text>
<text text-anchor="middle" x="100.5" y="-78.5231" font-family="Helvetica,sans-Serif" font-size="10.00">b</text>
</g>
<!-- Node10 -->
<g id="node10" class="node"><title>Node10</title>
<polygon fill="white" stroke="#bfbfbf" points="162,-308.023 162,-327.023 224,-327.023 224,-308.023 162,-308.023"/>
<text text-anchor="middle" x="193" y="-315.023" font-family="Helvetica,sans-Serif" font-size="10.00">SDL_Rect</text>
</g>
<!-- Node10&#45;&gt;Node8 -->
<g id="edge11" class="edge"><title>Node10&#45;&gt;Node8</title>
<path fill="none" stroke="#9a32cd" stroke-dasharray="5,2" d="M234.326,-309.88C267.006,-301.96 312.623,-286.791 344,-259.523 369.998,-236.93 386.53,-198.164 393.171,-180.193"/>
<polygon fill="#9a32cd" stroke="#9a32cd" points="233.169,-306.554 224.205,-312.203 234.734,-313.377 233.169,-306.554"/>
<text text-anchor="middle" x="312" y="-296.523" font-family="Helvetica,sans-Serif" font-size="10.00"> clipRect</text>
</g>
<!-- Node11 -->
<g id="node11" class="node"><title>Node11</title>
<polygon fill="white" stroke="#bfbfbf" points="178.5,-4.02313 178.5,-23.0231 207.5,-23.0231 207.5,-4.02313 178.5,-4.02313"/>
<text text-anchor="middle" x="193" y="-11.0231" font-family="Helvetica,sans-Serif" font-size="10.00">int</text>
</g>
<!-- Node11&#45;&gt;Node1 -->
<g id="edge17" class="edge"><title>Node11&#45;&gt;Node1</title>
<path fill="none" stroke="#9a32cd" stroke-dasharray="5,2" d="M217.701,-7.42094C248.303,-0.8043 302.547,6.57312 344,-11.5231 449.573,-57.6106 459.675,-104.605 517,-204.523 538.503,-242.003 550.971,-292.693 555.517,-313.738"/>
<polygon fill="#9a32cd" stroke="#9a32cd" points="216.512,-4.10374 207.563,-9.77563 218.096,-10.9222 216.512,-4.10374"/>
<text text-anchor="middle" x="397.5" y="-105.523" font-family="Helvetica,sans-Serif" font-size="10.00"> endPoint</text>
<text text-anchor="middle" x="397.5" y="-94.5231" font-family="Helvetica,sans-Serif" font-size="10.00">baseHP</text>
<text text-anchor="middle" x="397.5" y="-83.5231" font-family="Helvetica,sans-Serif" font-size="10.00">quant</text>
<text text-anchor="middle" x="397.5" y="-72.5231" font-family="Helvetica,sans-Serif" font-size="10.00">enemyIndex</text>
</g>
<!-- Node11&#45;&gt;Node8 -->
<g id="edge12" class="edge"><title>Node11&#45;&gt;Node8</title>
<path fill="none" stroke="#9a32cd" stroke-dasharray="5,2" d="M217.943,-13.1031C255.232,-12.9299 324.892,-14.6834 344,-29.5231 386.705,-62.6879 394.674,-134.408 396.16,-160.649"/>
<polygon fill="#9a32cd" stroke="#9a32cd" points="217.892,-9.60335 207.926,-13.2 217.96,-16.603 217.892,-9.60335"/>
<text text-anchor="middle" x="312" y="-65.5231" font-family="Helvetica,sans-Serif" font-size="10.00"> width</text>
<text text-anchor="middle" x="312" y="-54.5231" font-family="Helvetica,sans-Serif" font-size="10.00">currentFrame</text>
<text text-anchor="middle" x="312" y="-43.5231" font-family="Helvetica,sans-Serif" font-size="10.00">height</text>
<text text-anchor="middle" x="312" y="-32.5231" font-family="Helvetica,sans-Serif" font-size="10.00">frameCount</text>
</g>
<!-- Node12 -->
<g id="node12" class="node"><title>Node12</title>
<polygon fill="white" stroke="#bfbfbf" points="124,-190.023 124,-209.023 262,-209.023 262,-190.023 124,-190.023"/>
<text text-anchor="middle" x="193" y="-197.023" font-family="Helvetica,sans-Serif" font-size="10.00">shared_ptr&lt; SDL_Texture &gt;</text>
</g>
<!-- Node12&#45;&gt;Node8 -->
<g id="edge13" class="edge"><title>Node12&#45;&gt;Node8</title>
<path fill="none" stroke="#9a32cd" stroke-dasharray="5,2" d="M270.667,-188.544C308.775,-183.086 351.827,-176.921 376.408,-173.401"/>
<polygon fill="#9a32cd" stroke="#9a32cd" points="269.989,-185.105 260.587,-189.987 270.982,-192.034 269.989,-185.105"/>
<text text-anchor="middle" x="312" y="-190.523" font-family="Helvetica,sans-Serif" font-size="10.00"> texture</text>
</g>
<!-- Node13 -->
<g id="node13" class="node"><title>Node13</title>
<polygon fill="white" stroke="#bfbfbf" points="148,-152.023 148,-171.023 238,-171.023 238,-152.023 148,-152.023"/>
<text text-anchor="middle" x="193" y="-159.023" font-family="Helvetica,sans-Serif" font-size="10.00">SDL_BlendMode</text>
</g>
<!-- Node13&#45;&gt;Node8 -->
<g id="edge14" class="edge"><title>Node13&#45;&gt;Node8</title>
<path fill="none" stroke="#9a32cd" stroke-dasharray="5,2" d="M248.481,-162.779C276.955,-163.577 312.371,-164.792 344,-166.523 354.679,-167.108 366.563,-167.993 376.32,-168.783"/>
<polygon fill="#9a32cd" stroke="#9a32cd" points="248.416,-159.276 238.325,-162.504 248.227,-166.274 248.416,-159.276"/>
<text text-anchor="middle" x="312" y="-169.523" font-family="Helvetica,sans-Serif" font-size="10.00"> blendMode</text>
</g>
<!-- Node14&#45;&gt;Node8 -->
<g id="edge15" class="edge"><title>Node14&#45;&gt;Node8</title>
<path fill="none" stroke="#9a32cd" stroke-dasharray="5,2" d="M223.14,-73.3369C255.113,-72.3291 306.826,-74.9117 344,-97.5231 368.941,-112.694 385.458,-144.653 392.55,-160.778"/>
<polygon fill="#9a32cd" stroke="#9a32cd" points="222.934,-69.8426 213.103,-73.7926 223.251,-76.8353 222.934,-69.8426"/>
<text text-anchor="middle" x="312" y="-100.523" font-family="Helvetica,sans-Serif" font-size="10.00"> colorMultiplier</text>
</g>
</g>
</svg>
