<?xml version="1.0" encoding="UTF-8" standalone="no"?>
<!DOCTYPE svg PUBLIC "-//W3C//DTD SVG 1.1//EN"
 "http://www.w3.org/Graphics/SVG/1.1/DTD/svg11.dtd">
<!-- Generated by graphviz version 2.36.0 (20140111.2315)
 -->
<!-- Title: Enemy Pages: 1 -->
<svg width="808pt" height="446pt"
 viewBox="0.00 0.00 808.00 446.21" xmlns="http://www.w3.org/2000/svg" xmlns:xlink="http://www.w3.org/1999/xlink">
<g id="graph0" class="graph" transform="scale(1 1) rotate(0) translate(4 442.213)">
<title>Enemy</title>
<polygon fill="white" stroke="none" points="-4,4 -4,-442.213 804,-442.213 804,4 -4,4"/>
<!-- Node1 -->
<g id="node1" class="node"><title>Node1</title>
<polygon fill="#bfbfbf" stroke="black" points="752.5,-181.713 752.5,-200.713 799.5,-200.713 799.5,-181.713 752.5,-181.713"/>
<text text-anchor="middle" x="776" y="-188.713" font-family="Helvetica,sans-Serif" font-size="10.00">Enemy</text>
</g>
<!-- Node2 -->
<g id="node2" class="node"><title>Node2</title>
<g id="a_node2"><a xlink:href="classGameObject.html" target="_top" xlink:title="Classe virtual que especifica o funcionamento de um GameObject. ">
<polygon fill="white" stroke="black" points="590.5,-343.713 590.5,-362.713 661.5,-362.713 661.5,-343.713 590.5,-343.713"/>
<text text-anchor="middle" x="626" y="-350.713" font-family="Helvetica,sans-Serif" font-size="10.00">GameObject</text>
</a>
</g>
</g>
<!-- Node2&#45;&gt;Node1 -->
<g id="edge1" class="edge"><title>Node2&#45;&gt;Node1</title>
<path fill="none" stroke="midnightblue" d="M671.683,-352.788C692.995,-350.311 717.401,-343.826 734,-328.213 771.255,-293.174 775.101,-225.815 775.182,-200.84"/>
<polygon fill="midnightblue" stroke="midnightblue" points="671.162,-349.321 661.517,-353.705 671.791,-356.293 671.162,-349.321"/>
</g>
<!-- Node3 -->
<g id="node3" class="node"><title>Node3</title>
<g id="a_node3"><a xlink:href="classRect.html" target="_top" xlink:title="Classe que modela um rect. ">
<polygon fill="white" stroke="black" points="403,-282.713 403,-301.713 441,-301.713 441,-282.713 403,-282.713"/>
<text text-anchor="middle" x="422" y="-289.713" font-family="Helvetica,sans-Serif" font-size="10.00">Rect</text>
</a>
</g>
</g>
<!-- Node3&#45;&gt;Node2 -->
<g id="edge2" class="edge"><title>Node3&#45;&gt;Node2</title>
<path fill="none" stroke="#9a32cd" stroke-dasharray="5,2" d="M451.185,-298.509C478.687,-304.889 521.585,-315.471 558,-327.213 572.962,-332.038 589.427,-338.412 602.29,-343.641"/>
<polygon fill="#9a32cd" stroke="#9a32cd" points="451.627,-295.02 441.098,-296.198 450.063,-301.843 451.627,-295.02"/>
<text text-anchor="middle" x="529" y="-330.213" font-family="Helvetica,sans-Serif" font-size="10.00"> box</text>
</g>
<!-- Node4 -->
<g id="node4" class="node"><title>Node4</title>
<polygon fill="white" stroke="#bfbfbf" points="175.5,-358.713 175.5,-377.713 210.5,-377.713 210.5,-358.713 175.5,-358.713"/>
<text text-anchor="middle" x="193" y="-365.713" font-family="Helvetica,sans-Serif" font-size="10.00">float</text>
</g>
<!-- Node4&#45;&gt;Node2 -->
<g id="edge4" class="edge"><title>Node4&#45;&gt;Node2</title>
<path fill="none" stroke="#9a32cd" stroke-dasharray="5,2" d="M215.645,-383.316C232.36,-394.012 256.528,-407.443 280,-413.213 400.635,-442.868 440.097,-423.341 558,-384.213 575.273,-378.481 593.999,-369.57 607.25,-362.77"/>
<polygon fill="#9a32cd" stroke="#9a32cd" points="217.45,-380.314 207.177,-377.721 213.591,-386.154 217.45,-380.314"/>
<text text-anchor="middle" x="422" y="-430.213" font-family="Helvetica,sans-Serif" font-size="10.00"> rotation</text>
</g>
<!-- Node4&#45;&gt;Node3 -->
<g id="edge3" class="edge"><title>Node4&#45;&gt;Node3</title>
<path fill="none" stroke="#9a32cd" stroke-dasharray="5,2" d="M220.917,-370.842C252.963,-372.587 306.813,-371.005 344,-346.213 356.938,-337.588 350.191,-326.329 362,-316.213 373.757,-306.141 390.3,-299.908 402.878,-296.327"/>
<polygon fill="#9a32cd" stroke="#9a32cd" points="221.158,-367.351 210.94,-370.152 220.675,-374.334 221.158,-367.351"/>
<text text-anchor="middle" x="312" y="-403.213" font-family="Helvetica,sans-Serif" font-size="10.00"> w</text>
<text text-anchor="middle" x="312" y="-392.213" font-family="Helvetica,sans-Serif" font-size="10.00">x</text>
<text text-anchor="middle" x="312" y="-381.213" font-family="Helvetica,sans-Serif" font-size="10.00">h</text>
<text text-anchor="middle" x="312" y="-370.213" font-family="Helvetica,sans-Serif" font-size="10.00">y</text>
</g>
<!-- Node9 -->
<g id="node9" class="node"><title>Node9</title>
<g id="a_node9"><a xlink:href="classSprite.html" target="_top" xlink:title="Classe que modela uma sprite. ">
<polygon fill="white" stroke="black" points="401,-185.713 401,-204.713 443,-204.713 443,-185.713 401,-185.713"/>
<text text-anchor="middle" x="422" y="-192.713" font-family="Helvetica,sans-Serif" font-size="10.00">Sprite</text>
</a>
</g>
</g>
<!-- Node4&#45;&gt;Node9 -->
<g id="edge10" class="edge"><title>Node4&#45;&gt;Node9</title>
<path fill="none" stroke="#9a32cd" stroke-dasharray="5,2" d="M210.838,-351.812C227.369,-336.392 253.844,-313.461 280,-298.213 306.382,-282.834 318.492,-290.003 344,-273.213 373.723,-253.65 401.108,-221.048 413.712,-204.894"/>
<polygon fill="#9a32cd" stroke="#9a32cd" points="208.411,-349.29 203.566,-358.712 213.229,-354.367 208.411,-349.29"/>
<text text-anchor="middle" x="312" y="-334.213" font-family="Helvetica,sans-Serif" font-size="10.00"> scaleY</text>
<text text-anchor="middle" x="312" y="-323.213" font-family="Helvetica,sans-Serif" font-size="10.00">frameTime</text>
<text text-anchor="middle" x="312" y="-312.213" font-family="Helvetica,sans-Serif" font-size="10.00">timeElapsed</text>
<text text-anchor="middle" x="312" y="-301.213" font-family="Helvetica,sans-Serif" font-size="10.00">scaleX</text>
</g>
<!-- Node5 -->
<g id="node5" class="node"><title>Node5</title>
<polygon fill="white" stroke="#bfbfbf" points="404.5,-325.713 404.5,-344.713 439.5,-344.713 439.5,-325.713 404.5,-325.713"/>
<text text-anchor="middle" x="422" y="-332.713" font-family="Helvetica,sans-Serif" font-size="10.00">bool</text>
</g>
<!-- Node5&#45;&gt;Node1 -->
<g id="edge20" class="edge"><title>Node5&#45;&gt;Node1</title>
<path fill="none" stroke="#9a32cd" stroke-dasharray="5,2" d="M449.94,-332.34C517.401,-324.646 691.241,-301.587 734,-264.213 754.138,-246.612 766.508,-216.601 771.874,-201.112"/>
<polygon fill="#9a32cd" stroke="#9a32cd" points="449.254,-328.895 439.704,-333.482 450.03,-335.851 449.254,-328.895"/>
<text text-anchor="middle" x="626" y="-317.213" font-family="Helvetica,sans-Serif" font-size="10.00"> dead</text>
</g>
<!-- Node5&#45;&gt;Node2 -->
<g id="edge5" class="edge"><title>Node5&#45;&gt;Node2</title>
<path fill="none" stroke="#9a32cd" stroke-dasharray="5,2" d="M449.778,-337.599C485.914,-340.819 550.342,-346.561 590.196,-350.112"/>
<polygon fill="#9a32cd" stroke="#9a32cd" points="449.802,-334.088 439.531,-336.686 449.18,-341.06 449.802,-334.088"/>
<text text-anchor="middle" x="529" y="-349.213" font-family="Helvetica,sans-Serif" font-size="10.00"> dead</text>
</g>
<!-- Node6 -->
<g id="node6" class="node"><title>Node6</title>
<polygon fill="white" stroke="#bfbfbf" points="362.5,-371.713 362.5,-390.713 481.5,-390.713 481.5,-371.713 362.5,-371.713"/>
<text text-anchor="middle" x="422" y="-378.713" font-family="Helvetica,sans-Serif" font-size="10.00">vector&lt; Component * &gt;</text>
</g>
<!-- Node6&#45;&gt;Node2 -->
<g id="edge6" class="edge"><title>Node6&#45;&gt;Node2</title>
<path fill="none" stroke="#9a32cd" stroke-dasharray="5,2" d="M491.794,-371.677C524.919,-367.086 563.206,-361.779 590.208,-358.036"/>
<polygon fill="#9a32cd" stroke="#9a32cd" points="491.123,-368.237 481.698,-373.077 492.084,-375.171 491.123,-368.237"/>
<text text-anchor="middle" x="529" y="-372.213" font-family="Helvetica,sans-Serif" font-size="10.00"> components</text>
</g>
<!-- Node7 -->
<g id="node7" class="node"><title>Node7</title>
<polygon fill="white" stroke="#bfbfbf" points="580,-258.713 580,-277.713 672,-277.713 672,-258.713 580,-258.713"/>
<text text-anchor="middle" x="626" y="-265.713" font-family="Helvetica,sans-Serif" font-size="10.00">EnemyDirections</text>
</g>
<!-- Node7&#45;&gt;Node1 -->
<g id="edge7" class="edge"><title>Node7&#45;&gt;Node1</title>
<path fill="none" stroke="#9a32cd" stroke-dasharray="5,2" d="M675.579,-255.704C694.61,-249.615 716.12,-241.196 734,-230.213 747.059,-222.192 759.427,-209.465 767.097,-200.745"/>
<polygon fill="#9a32cd" stroke="#9a32cd" points="674.42,-252.399 665.886,-258.677 676.473,-259.091 674.42,-252.399"/>
<text text-anchor="middle" x="714" y="-252.213" font-family="Helvetica,sans-Serif" font-size="10.00"> direction</text>
</g>
<!-- Node8 -->
<g id="node8" class="node"><title>Node8</title>
<polygon fill="white" stroke="#bfbfbf" points="591.5,-220.713 591.5,-239.713 660.5,-239.713 660.5,-220.713 591.5,-220.713"/>
<text text-anchor="middle" x="626" y="-227.713" font-family="Helvetica,sans-Serif" font-size="10.00">EnemyType</text>
</g>
<!-- Node8&#45;&gt;Node1 -->
<g id="edge8" class="edge"><title>Node8&#45;&gt;Node1</title>
<path fill="none" stroke="#9a32cd" stroke-dasharray="5,2" d="M670.773,-221.02C690.247,-216.665 713.387,-211.125 734,-205.213 739.929,-203.513 746.266,-201.466 752.142,-199.468"/>
<polygon fill="#9a32cd" stroke="#9a32cd" points="669.967,-217.613 660.956,-223.185 671.475,-224.449 669.967,-217.613"/>
<text text-anchor="middle" x="714" y="-218.213" font-family="Helvetica,sans-Serif" font-size="10.00"> type</text>
</g>
<!-- Node9&#45;&gt;Node1 -->
<g id="edge9" class="edge"><title>Node9&#45;&gt;Node1</title>
<path fill="none" stroke="#9a32cd" stroke-dasharray="5,2" d="M453.427,-194.868C522.704,-194.08 690.921,-192.169 752.193,-191.472"/>
<polygon fill="#9a32cd" stroke="#9a32cd" points="453.149,-191.37 443.189,-194.984 453.228,-198.37 453.149,-191.37"/>
<text text-anchor="middle" x="626" y="-197.213" font-family="Helvetica,sans-Serif" font-size="10.00"> sp</text>
</g>
<!-- Node18 -->
<g id="node18" class="node"><title>Node18</title>
<g id="a_node18"><a xlink:href="classHitPoints.html" target="_top" xlink:title="HitPoints">
<polygon fill="white" stroke="black" points="597.5,-135.713 597.5,-154.713 654.5,-154.713 654.5,-135.713 597.5,-135.713"/>
<text text-anchor="middle" x="626" y="-142.713" font-family="Helvetica,sans-Serif" font-size="10.00">HitPoints</text>
</a>
</g>
</g>
<!-- Node9&#45;&gt;Node18 -->
<g id="edge23" class="edge"><title>Node9&#45;&gt;Node18</title>
<path fill="none" stroke="#9a32cd" stroke-dasharray="5,2" d="M446.219,-180.025C460.991,-171.173 480.877,-160.701 500,-155.213 532.435,-145.905 571.418,-144.203 597.128,-144.308"/>
<polygon fill="#9a32cd" stroke="#9a32cd" points="443.971,-177.301 437.31,-185.54 447.655,-183.253 443.971,-177.301"/>
<text text-anchor="middle" x="529" y="-169.213" font-family="Helvetica,sans-Serif" font-size="10.00"> healthColor</text>
<text text-anchor="middle" x="529" y="-158.213" font-family="Helvetica,sans-Serif" font-size="10.00">healthBar</text>
</g>
<!-- Node10 -->
<g id="node10" class="node"><title>Node10</title>
<polygon fill="white" stroke="#bfbfbf" points="162,-189.713 162,-208.713 224,-208.713 224,-189.713 162,-189.713"/>
<text text-anchor="middle" x="193" y="-196.713" font-family="Helvetica,sans-Serif" font-size="10.00">SDL_Rect</text>
</g>
<!-- Node10&#45;&gt;Node9 -->
<g id="edge11" class="edge"><title>Node10&#45;&gt;Node9</title>
<path fill="none" stroke="#9a32cd" stroke-dasharray="5,2" d="M234.357,-198.502C283.197,-197.642 363.514,-196.226 400.807,-195.569"/>
<polygon fill="#9a32cd" stroke="#9a32cd" points="234.081,-195.006 224.144,-198.682 234.204,-202.005 234.081,-195.006"/>
<text text-anchor="middle" x="312" y="-201.213" font-family="Helvetica,sans-Serif" font-size="10.00"> clipRect</text>
</g>
<!-- Node11 -->
<g id="node11" class="node"><title>Node11</title>
<polygon fill="white" stroke="#bfbfbf" points="178.5,-55.7133 178.5,-74.7133 207.5,-74.7133 207.5,-55.7133 178.5,-55.7133"/>
<text text-anchor="middle" x="193" y="-62.7133" font-family="Helvetica,sans-Serif" font-size="10.00">int</text>
</g>
<!-- Node11&#45;&gt;Node1 -->
<g id="edge19" class="edge"><title>Node11&#45;&gt;Node1</title>
<path fill="none" stroke="#9a32cd" stroke-dasharray="5,2" d="M217.09,-56.3661C274.556,-35.4345 428.687,14.0451 558,-4.21329 642.022,-16.0768 682.138,-11.0513 734,-78.2133 759.255,-110.919 769.97,-160.63 773.529,-181.477"/>
<polygon fill="#9a32cd" stroke="#9a32cd" points="215.671,-53.1595 207.513,-59.9194 218.106,-59.7223 215.671,-53.1595"/>
<text text-anchor="middle" x="529" y="-40.2133" font-family="Helvetica,sans-Serif" font-size="10.00"> endPoint</text>
<text text-anchor="middle" x="529" y="-29.2133" font-family="Helvetica,sans-Serif" font-size="10.00">baseHP</text>
<text text-anchor="middle" x="529" y="-18.2133" font-family="Helvetica,sans-Serif" font-size="10.00">life</text>
<text text-anchor="middle" x="529" y="-7.21329" font-family="Helvetica,sans-Serif" font-size="10.00">enemyIndex</text>
</g>
<!-- Node11&#45;&gt;Node9 -->
<g id="edge12" class="edge"><title>Node11&#45;&gt;Node9</title>
<path fill="none" stroke="#9a32cd" stroke-dasharray="5,2" d="M217.349,-71.7009C247.929,-80.818 302.527,-99.26 344,-125.213 371.873,-142.656 399.032,-170.677 412.405,-185.42"/>
<polygon fill="#9a32cd" stroke="#9a32cd" points="218.173,-68.2959 207.594,-68.8679 216.221,-75.0181 218.173,-68.2959"/>
<text text-anchor="middle" x="312" y="-161.213" font-family="Helvetica,sans-Serif" font-size="10.00"> width</text>
<text text-anchor="middle" x="312" y="-150.213" font-family="Helvetica,sans-Serif" font-size="10.00">currentFrame</text>
<text text-anchor="middle" x="312" y="-139.213" font-family="Helvetica,sans-Serif" font-size="10.00">height</text>
<text text-anchor="middle" x="312" y="-128.213" font-family="Helvetica,sans-Serif" font-size="10.00">frameCount</text>
</g>
<!-- Node11&#45;&gt;Node18 -->
<g id="edge24" class="edge"><title>Node11&#45;&gt;Node18</title>
<path fill="none" stroke="#9a32cd" stroke-dasharray="5,2" d="M217.866,-68.9785C247.49,-73.7011 299.542,-82.1592 344,-90.2133 436.937,-107.05 546.707,-129.191 597.13,-139.488"/>
<polygon fill="#9a32cd" stroke="#9a32cd" points="218.098,-65.4715 207.672,-67.36 217,-72.3849 218.098,-65.4715"/>
<text text-anchor="middle" x="422" y="-119.213" font-family="Helvetica,sans-Serif" font-size="10.00"> hp</text>
</g>
<!-- Node12 -->
<g id="node12" class="node"><title>Node12</title>
<polygon fill="white" stroke="#bfbfbf" points="124,-151.713 124,-170.713 262,-170.713 262,-151.713 124,-151.713"/>
<text text-anchor="middle" x="193" y="-158.713" font-family="Helvetica,sans-Serif" font-size="10.00">shared_ptr&lt; SDL_Texture &gt;</text>
</g>
<!-- Node12&#45;&gt;Node9 -->
<g id="edge13" class="edge"><title>Node12&#45;&gt;Node9</title>
<path fill="none" stroke="#9a32cd" stroke-dasharray="5,2" d="M272.129,-171.727C295.285,-174.957 320.683,-178.614 344,-182.213 363.294,-185.192 385.245,-188.933 400.76,-191.636"/>
<polygon fill="#9a32cd" stroke="#9a32cd" points="272.396,-168.23 262.01,-170.322 271.434,-175.164 272.396,-168.23"/>
<text text-anchor="middle" x="312" y="-185.213" font-family="Helvetica,sans-Serif" font-size="10.00"> texture</text>
</g>
<!-- Node13 -->
<g id="node13" class="node"><title>Node13</title>
<polygon fill="white" stroke="#bfbfbf" points="148,-265.713 148,-284.713 238,-284.713 238,-265.713 148,-265.713"/>
<text text-anchor="middle" x="193" y="-272.713" font-family="Helvetica,sans-Serif" font-size="10.00">SDL_BlendMode</text>
</g>
<!-- Node13&#45;&gt;Node9 -->
<g id="edge14" class="edge"><title>Node13&#45;&gt;Node9</title>
<path fill="none" stroke="#9a32cd" stroke-dasharray="5,2" d="M248.226,-265.495C277.222,-259.394 313.197,-250.358 344,-238.213 366.933,-229.171 391.476,-214.495 406.533,-204.847"/>
<polygon fill="#9a32cd" stroke="#9a32cd" points="247.375,-262.096 238.28,-267.531 248.779,-268.954 247.375,-262.096"/>
<text text-anchor="middle" x="312" y="-261.213" font-family="Helvetica,sans-Serif" font-size="10.00"> blendMode</text>
</g>
<!-- Node14 -->
<g id="node14" class="node"><title>Node14</title>
<g id="a_node14"><a xlink:href="structColor.html" target="_top" xlink:title="Struct para armazenar informações de cor. ">
<polygon fill="white" stroke="black" points="173,-227.713 173,-246.713 213,-246.713 213,-227.713 173,-227.713"/>
<text text-anchor="middle" x="193" y="-234.713" font-family="Helvetica,sans-Serif" font-size="10.00">Color</text>
</a>
</g>
</g>
<!-- Node14&#45;&gt;Node9 -->
<g id="edge15" class="edge"><title>Node14&#45;&gt;Node9</title>
<path fill="none" stroke="#9a32cd" stroke-dasharray="5,2" d="M223.361,-232.421C253.638,-227.409 302.195,-219.177 344,-211.213 363.314,-207.534 385.263,-202.931 400.772,-199.608"/>
<polygon fill="#9a32cd" stroke="#9a32cd" points="222.752,-228.974 213.455,-234.053 223.891,-235.88 222.752,-228.974"/>
<text text-anchor="middle" x="312" y="-226.213" font-family="Helvetica,sans-Serif" font-size="10.00"> colorMultiplier</text>
</g>
<!-- Node15 -->
<g id="node15" class="node"><title>Node15</title>
<polygon fill="white" stroke="#bfbfbf" points="0.5,-227.713 0.5,-246.713 77.5,-246.713 77.5,-227.713 0.5,-227.713"/>
<text text-anchor="middle" x="39" y="-234.713" font-family="Helvetica,sans-Serif" font-size="10.00">unsigned char</text>
</g>
<!-- Node15&#45;&gt;Node14 -->
<g id="edge16" class="edge"><title>Node15&#45;&gt;Node14</title>
<path fill="none" stroke="#9a32cd" stroke-dasharray="5,2" d="M87.8544,-237.213C116.632,-237.213 151.679,-237.213 172.893,-237.213"/>
<polygon fill="#9a32cd" stroke="#9a32cd" points="87.5731,-233.713 77.573,-237.213 87.573,-240.713 87.5731,-233.713"/>
<text text-anchor="middle" x="101" y="-273.213" font-family="Helvetica,sans-Serif" font-size="10.00"> g</text>
<text text-anchor="middle" x="101" y="-262.213" font-family="Helvetica,sans-Serif" font-size="10.00">a</text>
<text text-anchor="middle" x="101" y="-251.213" font-family="Helvetica,sans-Serif" font-size="10.00">r</text>
<text text-anchor="middle" x="101" y="-240.213" font-family="Helvetica,sans-Serif" font-size="10.00">b</text>
</g>
<!-- Node16 -->
<g id="node16" class="node"><title>Node16</title>
<polygon fill="white" stroke="#bfbfbf" points="578,-97.7133 578,-116.713 674,-116.713 674,-97.7133 578,-97.7133"/>
<text text-anchor="middle" x="626" y="-104.713" font-family="Helvetica,sans-Serif" font-size="10.00">enum EnemyType</text>
</g>
<!-- Node16&#45;&gt;Node1 -->
<g id="edge17" class="edge"><title>Node16&#45;&gt;Node1</title>
<path fill="none" stroke="#9a32cd" stroke-dasharray="5,2" d="M684.052,-118.063C701.077,-123.024 719.143,-130.127 734,-140.213 749.979,-151.061 762.816,-169.992 769.638,-181.486"/>
<polygon fill="#9a32cd" stroke="#9a32cd" points="684.748,-114.625 674.18,-115.383 682.914,-121.381 684.748,-114.625"/>
<text text-anchor="middle" x="714" y="-143.213" font-family="Helvetica,sans-Serif" font-size="10.00"> type</text>
</g>
<!-- Node17 -->
<g id="node17" class="node"><title>Node17</title>
<polygon fill="white" stroke="#bfbfbf" points="576.5,-48.2133 576.5,-78.2133 675.5,-78.2133 675.5,-48.2133 576.5,-48.2133"/>
<text text-anchor="start" x="584.5" y="-66.2133" font-family="Helvetica,sans-Serif" font-size="10.00">vector&lt; std::vector</text>
<text text-anchor="middle" x="626" y="-55.2133" font-family="Helvetica,sans-Serif" font-size="10.00">&lt; Sprite &gt; &gt;</text>
</g>
<!-- Node17&#45;&gt;Node1 -->
<g id="edge18" class="edge"><title>Node17&#45;&gt;Node1</title>
<path fill="none" stroke="#9a32cd" stroke-dasharray="5,2" d="M685.196,-78.4186C702.44,-85.0856 720.342,-94.4015 734,-107.213 756.488,-128.307 768.18,-164.361 772.714,-181.549"/>
<polygon fill="#9a32cd" stroke="#9a32cd" points="686.31,-75.0995 675.716,-74.9818 683.924,-81.6804 686.31,-75.0995"/>
<text text-anchor="middle" x="714" y="-110.213" font-family="Helvetica,sans-Serif" font-size="10.00"> sp</text>
</g>
<!-- Node18&#45;&gt;Node1 -->
<g id="edge21" class="edge"><title>Node18&#45;&gt;Node1</title>
<path fill="none" stroke="#9a32cd" stroke-dasharray="5,2" d="M664.677,-149.293C685.602,-152.371 711.811,-157.59 734,-166.213 743.947,-170.079 754.197,-176.329 761.96,-181.613"/>
<polygon fill="#9a32cd" stroke="#9a32cd" points="664.951,-145.798 654.568,-147.91 664.002,-152.733 664.951,-145.798"/>
<text text-anchor="middle" x="714" y="-169.213" font-family="Helvetica,sans-Serif" font-size="10.00"> hitpoints</text>
</g>
<!-- Node19 -->
<g id="node19" class="node"><title>Node19</title>
<g id="a_node19"><a xlink:href="classComponent.html" target="_top" xlink:title="Modela os componentes. ">
<polygon fill="white" stroke="black" points="388.5,-28.7133 388.5,-47.7133 455.5,-47.7133 455.5,-28.7133 388.5,-28.7133"/>
<text text-anchor="middle" x="422" y="-35.7133" font-family="Helvetica,sans-Serif" font-size="10.00">Component</text>
</a>
</g>
</g>
<!-- Node19&#45;&gt;Node18 -->
<g id="edge22" class="edge"><title>Node19&#45;&gt;Node18</title>
<path fill="none" stroke="midnightblue" d="M465.817,-44.7817C500.109,-50.8452 544.616,-60.7813 558,-73.2133 576.227,-90.1437 558.787,-108.253 576,-126.213 581.745,-132.208 589.597,-136.341 597.333,-139.18"/>
<polygon fill="midnightblue" stroke="midnightblue" points="465.996,-41.2614 455.549,-43.0257 464.816,-48.1613 465.996,-41.2614"/>
</g>
</g>
</svg>
