<?xml version="1.0" encoding="UTF-8" standalone="no"?>
<!DOCTYPE svg PUBLIC "-//W3C//DTD SVG 1.1//EN"
 "http://www.w3.org/Graphics/SVG/1.1/DTD/svg11.dtd">
<!-- Generated by graphviz version 2.38.0 (20140413.2041)
 -->
<!-- Title: Sprite Pages: 1 -->
<svg width="338pt" height="128pt"
 viewBox="0.00 0.00 337.50 128.00" xmlns="http://www.w3.org/2000/svg" xmlns:xlink="http://www.w3.org/1999/xlink">
<g id="graph0" class="graph" transform="scale(1 1) rotate(0) translate(4 124)">
<title>Sprite</title>
<polygon fill="white" stroke="none" points="-4,4 -4,-124 333.5,-124 333.5,4 -4,4"/>
<!-- Node1 -->
<g id="node1" class="node"><title>Node1</title>
<polygon fill="#bfbfbf" stroke="black" points="105.5,-0.5 105.5,-19.5 147.5,-19.5 147.5,-0.5 105.5,-0.5"/>
<text text-anchor="middle" x="126.5" y="-7.5" font-family="Helvetica,sans-Serif" font-size="10.00">Sprite</text>
</g>
<!-- Node2 -->
<g id="node2" class="node"><title>Node2</title>
<polygon fill="white" stroke="#bfbfbf" points="0,-100.5 0,-119.5 35,-119.5 35,-100.5 0,-100.5"/>
<text text-anchor="middle" x="17.5" y="-107.5" font-family="Helvetica,sans-Serif" font-size="10.00">float</text>
</g>
<!-- Node2&#45;&gt;Node1 -->
<g id="edge1" class="edge"><title>Node2&#45;&gt;Node1</title>
<path fill="none" stroke="#9a32cd" stroke-dasharray="5,2" d="M16.1477,-90.0967C16.077,-74.2319 18.624,-51.9807 31.5,-38 50.4335,-17.442 83.7704,-12.1172 105.493,-10.9616"/>
<polygon fill="#9a32cd" stroke="#9a32cd" points="12.6591,-90.4565 16.5516,-100.31 19.6537,-90.1798 12.6591,-90.4565"/>
<text text-anchor="middle" x="59" y="-74" font-family="Helvetica,sans-Serif" font-size="10.00"> scaleY</text>
<text text-anchor="middle" x="59" y="-63" font-family="Helvetica,sans-Serif" font-size="10.00">frameTime</text>
<text text-anchor="middle" x="59" y="-52" font-family="Helvetica,sans-Serif" font-size="10.00">timeElapsed</text>
<text text-anchor="middle" x="59" y="-41" font-family="Helvetica,sans-Serif" font-size="10.00">scaleX</text>
</g>
<!-- Node3 -->
<g id="node3" class="node"><title>Node3</title>
<polygon fill="white" stroke="#bfbfbf" points="63.5,-100.5 63.5,-119.5 125.5,-119.5 125.5,-100.5 63.5,-100.5"/>
<text text-anchor="middle" x="94.5" y="-107.5" font-family="Helvetica,sans-Serif" font-size="10.00">SDL_Rect</text>
</g>
<!-- Node3&#45;&gt;Node1 -->
<g id="edge2" class="edge"><title>Node3&#45;&gt;Node1</title>
<path fill="none" stroke="#9a32cd" stroke-dasharray="5,2" d="M91.1281,-90.1809C89.3602,-75.3149 88.9122,-54.4115 96.5,-38 99.9699,-30.495 106.615,-24.1721 112.771,-19.5362"/>
<polygon fill="#9a32cd" stroke="#9a32cd" points="87.6855,-90.8254 92.626,-100.198 94.6085,-89.79 87.6855,-90.8254"/>
<text text-anchor="middle" x="116.5" y="-57.5" font-family="Helvetica,sans-Serif" font-size="10.00"> clipRect</text>
</g>
<!-- Node4 -->
<g id="node4" class="node"><title>Node4</title>
<polygon fill="white" stroke="#bfbfbf" points="144,-100.5 144,-119.5 173,-119.5 173,-100.5 144,-100.5"/>
<text text-anchor="middle" x="158.5" y="-107.5" font-family="Helvetica,sans-Serif" font-size="10.00">int</text>
</g>
<!-- Node4&#45;&gt;Node1 -->
<g id="edge3" class="edge"><title>Node4&#45;&gt;Node1</title>
<path fill="none" stroke="#9a32cd" stroke-dasharray="5,2" d="M153.077,-90.5323C148.782,-76.1503 142.522,-55.7204 136.5,-38 134.441,-31.942 131.941,-25.192 129.956,-19.9565"/>
<polygon fill="#9a32cd" stroke="#9a32cd" points="149.746,-91.612 155.942,-100.206 156.458,-89.6241 149.746,-91.612"/>
<text text-anchor="middle" x="179.5" y="-74" font-family="Helvetica,sans-Serif" font-size="10.00"> width</text>
<text text-anchor="middle" x="179.5" y="-63" font-family="Helvetica,sans-Serif" font-size="10.00">currentFrame</text>
<text text-anchor="middle" x="179.5" y="-52" font-family="Helvetica,sans-Serif" font-size="10.00">height</text>
<text text-anchor="middle" x="179.5" y="-41" font-family="Helvetica,sans-Serif" font-size="10.00">frameCount</text>
</g>
<!-- Node5 -->
<g id="node5" class="node"><title>Node5</title>
<polygon fill="white" stroke="#bfbfbf" points="191.5,-100.5 191.5,-119.5 329.5,-119.5 329.5,-100.5 191.5,-100.5"/>
<text text-anchor="middle" x="260.5" y="-107.5" font-family="Helvetica,sans-Serif" font-size="10.00">shared_ptr&lt; SDL_Texture &gt;</text>
</g>
<!-- Node5&#45;&gt;Node1 -->
<g id="edge4" class="edge"><title>Node5&#45;&gt;Node1</title>
<path fill="none" stroke="#9a32cd" stroke-dasharray="5,2" d="M252.497,-90.7555C244.552,-74.6667 230.901,-51.7082 212.5,-38 193.299,-23.6962 166.331,-16.8457 147.738,-13.6487"/>
<polygon fill="#9a32cd" stroke="#9a32cd" points="249.489,-92.5861 256.887,-100.17 255.833,-89.6277 249.489,-92.5861"/>
<text text-anchor="middle" x="264.5" y="-57.5" font-family="Helvetica,sans-Serif" font-size="10.00"> texture</text>
</g>
</g>
</svg>
