<?xml version="1.0" encoding="UTF-8" standalone="no"?>
<!DOCTYPE svg PUBLIC "-//W3C//DTD SVG 1.1//EN"
 "http://www.w3.org/Graphics/SVG/1.1/DTD/svg11.dtd">
<!-- Generated by graphviz version 2.38.0 (20140413.2041)
 -->
<!-- Title: Animation Pages: 1 -->
<svg width="562pt" height="555pt"
 viewBox="0.00 0.00 562.00 555.02" xmlns="http://www.w3.org/2000/svg" xmlns:xlink="http://www.w3.org/1999/xlink">
<g id="graph0" class="graph" transform="scale(1 1) rotate(0) translate(4 551.021)">
<title>Animation</title>
<polygon fill="white" stroke="none" points="-4,4 -4,-551.021 558,-551.021 558,4 -4,4"/>
<!-- Node1 -->
<g id="node1" class="node"><title>Node1</title>
<polygon fill="#bfbfbf" stroke="black" points="494,-410.521 494,-429.521 554,-429.521 554,-410.521 494,-410.521"/>
<text text-anchor="middle" x="524" y="-417.521" font-family="Helvetica,sans-Serif" font-size="10.00">Animation</text>
</g>
<!-- Node2 -->
<g id="node2" class="node"><title>Node2</title>
<g id="a_node2"><a xlink:href="classGameObject.html" target="_top" xlink:title="Classe virtual que especifica o funcionamento de um GameObject. ">
<polygon fill="white" stroke="black" points="373,-410.521 373,-429.521 444,-429.521 444,-410.521 373,-410.521"/>
<text text-anchor="middle" x="408.5" y="-417.521" font-family="Helvetica,sans-Serif" font-size="10.00">GameObject</text>
</a>
</g>
</g>
<!-- Node2&#45;&gt;Node1 -->
<g id="edge1" class="edge"><title>Node2&#45;&gt;Node1</title>
<path fill="none" stroke="midnightblue" d="M454.544,-420.021C467.79,-420.021 481.925,-420.021 493.891,-420.021"/>
<polygon fill="midnightblue" stroke="midnightblue" points="454.17,-416.521 444.17,-420.021 454.17,-423.521 454.17,-416.521"/>
</g>
<!-- Node3 -->
<g id="node3" class="node"><title>Node3</title>
<g id="a_node3"><a xlink:href="classRect.html" target="_top" xlink:title="Classe que modela um rect. ">
<polygon fill="white" stroke="black" points="185,-433.521 185,-452.521 223,-452.521 223,-433.521 185,-433.521"/>
<text text-anchor="middle" x="204" y="-440.521" font-family="Helvetica,sans-Serif" font-size="10.00">Rect</text>
</a>
</g>
</g>
<!-- Node3&#45;&gt;Node2 -->
<g id="edge2" class="edge"><title>Node3&#45;&gt;Node2</title>
<path fill="none" stroke="#9a32cd" stroke-dasharray="5,2" d="M233.324,-439.804C269.917,-435.648 333.585,-428.416 372.972,-423.943"/>
<polygon fill="#9a32cd" stroke="#9a32cd" points="232.869,-436.333 223.328,-440.939 233.659,-443.288 232.869,-436.333"/>
<text text-anchor="middle" x="323" y="-435.021" font-family="Helvetica,sans-Serif" font-size="10.00"> box</text>
</g>
<!-- Node4 -->
<g id="node4" class="node"><title>Node4</title>
<polygon fill="white" stroke="#bfbfbf" points="21,-394.521 21,-413.521 56,-413.521 56,-394.521 21,-394.521"/>
<text text-anchor="middle" x="38.5" y="-401.521" font-family="Helvetica,sans-Serif" font-size="10.00">float</text>
</g>
<!-- Node4&#45;&gt;Node1 -->
<g id="edge16" class="edge"><title>Node4&#45;&gt;Node1</title>
<path fill="none" stroke="#9a32cd" stroke-dasharray="5,2" d="M57.1215,-387.135C75.071,-371.205 104.527,-348.407 135,-339.021 228.507,-310.219 260.287,-322.475 355,-347.021 412.874,-362.02 476.349,-394.359 505.987,-410.48"/>
<polygon fill="#9a32cd" stroke="#9a32cd" points="54.2918,-384.981 49.2803,-394.315 59.0191,-390.143 54.2918,-384.981"/>
<text text-anchor="middle" x="323" y="-350.021" font-family="Helvetica,sans-Serif" font-size="10.00"> timeLimit</text>
</g>
<!-- Node4&#45;&gt;Node2 -->
<g id="edge4" class="edge"><title>Node4&#45;&gt;Node2</title>
<path fill="none" stroke="#9a32cd" stroke-dasharray="5,2" d="M66.234,-404.934C109.628,-406.443 198.092,-409.628 273,-413.021 306.986,-414.56 345.788,-416.611 372.952,-418.095"/>
<polygon fill="#9a32cd" stroke="#9a32cd" points="66.3232,-401.435 56.2082,-404.588 66.0813,-408.431 66.3232,-401.435"/>
<text text-anchor="middle" x="204" y="-416.021" font-family="Helvetica,sans-Serif" font-size="10.00"> rotation</text>
</g>
<!-- Node4&#45;&gt;Node3 -->
<g id="edge3" class="edge"><title>Node4&#45;&gt;Node3</title>
<path fill="none" stroke="#9a32cd" stroke-dasharray="5,2" d="M66.1903,-410.867C75.3179,-413.178 85.5963,-415.747 95,-418.021 126.427,-425.621 163.118,-434.013 184.629,-438.884"/>
<polygon fill="#9a32cd" stroke="#9a32cd" points="67.0361,-407.47 56.4819,-408.397 65.3102,-414.254 67.0361,-407.47"/>
<text text-anchor="middle" x="106" y="-458.021" font-family="Helvetica,sans-Serif" font-size="10.00"> w</text>
<text text-anchor="middle" x="106" y="-447.021" font-family="Helvetica,sans-Serif" font-size="10.00">x</text>
<text text-anchor="middle" x="106" y="-436.021" font-family="Helvetica,sans-Serif" font-size="10.00">h</text>
<text text-anchor="middle" x="106" y="-425.021" font-family="Helvetica,sans-Serif" font-size="10.00">y</text>
</g>
<!-- Node7 -->
<g id="node7" class="node"><title>Node7</title>
<g id="a_node7"><a xlink:href="classSprite.html" target="_top" xlink:title="Classe que modela uma sprite. ">
<polygon fill="white" stroke="black" points="387.5,-134.521 387.5,-153.521 429.5,-153.521 429.5,-134.521 387.5,-134.521"/>
<text text-anchor="middle" x="408.5" y="-141.521" font-family="Helvetica,sans-Serif" font-size="10.00">Sprite</text>
</a>
</g>
</g>
<!-- Node4&#45;&gt;Node7 -->
<g id="edge9" class="edge"><title>Node4&#45;&gt;Node7</title>
<path fill="none" stroke="#9a32cd" stroke-dasharray="5,2" d="M46.2063,-384.785C58.3786,-353.078 87.3513,-290.517 135,-262.021 221.499,-210.291 269.635,-260.602 355,-207.021 376.706,-193.397 393.843,-167.785 402.105,-153.779"/>
<polygon fill="#9a32cd" stroke="#9a32cd" points="42.888,-383.668 42.7197,-394.262 49.4575,-386.085 42.888,-383.668"/>
<text text-anchor="middle" x="204" y="-298.021" font-family="Helvetica,sans-Serif" font-size="10.00"> scaleY</text>
<text text-anchor="middle" x="204" y="-287.021" font-family="Helvetica,sans-Serif" font-size="10.00">frameTime</text>
<text text-anchor="middle" x="204" y="-276.021" font-family="Helvetica,sans-Serif" font-size="10.00">timeElapsed</text>
<text text-anchor="middle" x="204" y="-265.021" font-family="Helvetica,sans-Serif" font-size="10.00">scaleX</text>
</g>
<!-- Node14 -->
<g id="node14" class="node"><title>Node14</title>
<g id="a_node14"><a xlink:href="classTimer.html" target="_top" xlink:title="Temporizador. ">
<polygon fill="white" stroke="black" points="302.5,-523.521 302.5,-542.521 343.5,-542.521 343.5,-523.521 302.5,-523.521"/>
<text text-anchor="middle" x="323" y="-530.521" font-family="Helvetica,sans-Serif" font-size="10.00">Timer</text>
</a>
</g>
</g>
<!-- Node4&#45;&gt;Node14 -->
<g id="edge19" class="edge"><title>Node4&#45;&gt;Node14</title>
<path fill="none" stroke="#9a32cd" stroke-dasharray="5,2" d="M50.1393,-422.296C65.4231,-446.589 96.0876,-488.592 135,-507.021 191.284,-533.677 267.029,-535.088 302.344,-534.043"/>
<polygon fill="#9a32cd" stroke="#9a32cd" points="53.0699,-420.379 44.8826,-413.654 47.0895,-424.017 53.0699,-420.379"/>
<text text-anchor="middle" x="106" y="-499.021" font-family="Helvetica,sans-Serif" font-size="10.00"> time</text>
</g>
<!-- Node5 -->
<g id="node5" class="node"><title>Node5</title>
<polygon fill="white" stroke="#bfbfbf" points="186.5,-478.521 186.5,-497.521 221.5,-497.521 221.5,-478.521 186.5,-478.521"/>
<text text-anchor="middle" x="204" y="-485.521" font-family="Helvetica,sans-Serif" font-size="10.00">bool</text>
</g>
<!-- Node5&#45;&gt;Node1 -->
<g id="edge17" class="edge"><title>Node5&#45;&gt;Node1</title>
<path fill="none" stroke="#9a32cd" stroke-dasharray="5,2" d="M232.036,-489.187C262.301,-489.932 312.653,-489.494 355,-481.021 410.377,-469.942 471.927,-443.785 502.884,-429.588"/>
<polygon fill="#9a32cd" stroke="#9a32cd" points="231.951,-485.682 221.847,-488.871 231.734,-492.679 231.951,-485.682"/>
<text text-anchor="middle" x="408.5" y="-479.021" font-family="Helvetica,sans-Serif" font-size="10.00"> oneTimeOnly</text>
</g>
<!-- Node5&#45;&gt;Node2 -->
<g id="edge5" class="edge"><title>Node5&#45;&gt;Node2</title>
<path fill="none" stroke="#9a32cd" stroke-dasharray="5,2" d="M231.396,-482.559C261.781,-475.873 312.911,-463.39 355,-447.021 367.418,-442.192 380.762,-435.304 390.89,-429.695"/>
<polygon fill="#9a32cd" stroke="#9a32cd" points="230.6,-479.15 221.563,-484.679 232.076,-485.993 230.6,-479.15"/>
<text text-anchor="middle" x="323" y="-469.021" font-family="Helvetica,sans-Serif" font-size="10.00"> dead</text>
</g>
<!-- Node6 -->
<g id="node6" class="node"><title>Node6</title>
<polygon fill="white" stroke="#bfbfbf" points="144.5,-348.521 144.5,-367.521 263.5,-367.521 263.5,-348.521 144.5,-348.521"/>
<text text-anchor="middle" x="204" y="-355.521" font-family="Helvetica,sans-Serif" font-size="10.00">vector&lt; Component * &gt;</text>
</g>
<!-- Node6&#45;&gt;Node2 -->
<g id="edge6" class="edge"><title>Node6&#45;&gt;Node2</title>
<path fill="none" stroke="#9a32cd" stroke-dasharray="5,2" d="M273.757,-360.1C299.998,-362.813 329.674,-368.282 355,-379.021 372.248,-386.335 388.69,-400.811 398.44,-410.455"/>
<polygon fill="#9a32cd" stroke="#9a32cd" points="273.784,-356.588 263.506,-359.16 273.145,-363.559 273.784,-356.588"/>
<text text-anchor="middle" x="323" y="-382.021" font-family="Helvetica,sans-Serif" font-size="10.00"> components</text>
</g>
<!-- Node7&#45;&gt;Node1 -->
<g id="edge7" class="edge"><title>Node7&#45;&gt;Node1</title>
<path fill="none" stroke="#9a32cd" stroke-dasharray="5,2" d="M418.281,-163.043C431.341,-191.532 456.442,-247.067 476,-295.021 493.336,-337.528 511.971,-389.058 519.525,-410.225"/>
<polygon fill="#9a32cd" stroke="#9a32cd" points="421.405,-161.457 414.047,-153.834 415.045,-164.382 421.405,-161.457"/>
<text text-anchor="middle" x="469" y="-298.021" font-family="Helvetica,sans-Serif" font-size="10.00"> sp</text>
</g>
<!-- Node8 -->
<g id="node8" class="node"><title>Node8</title>
<polygon fill="white" stroke="#bfbfbf" points="0,-49.5211 0,-68.5211 77,-68.5211 77,-49.5211 0,-49.5211"/>
<text text-anchor="middle" x="38.5" y="-56.5211" font-family="Helvetica,sans-Serif" font-size="10.00">unsigned char</text>
</g>
<!-- Node8&#45;&gt;Node7 -->
<g id="edge8" class="edge"><title>Node8&#45;&gt;Node7</title>
<path fill="none" stroke="#9a32cd" stroke-dasharray="5,2" d="M60.8947,-43.9458C79.4917,-31.8228 107.669,-15.743 135,-9.02106 194.558,5.62706 212.239,-0.661032 273,-9.02106 310.498,-14.1803 326.122,-7.55124 355,-32.0211 387.767,-59.7869 401.379,-112.528 405.766,-134.274"/>
<polygon fill="#9a32cd" stroke="#9a32cd" points="58.9367,-41.0446 52.5804,-49.521 62.8353,-46.8585 58.9367,-41.0446"/>
<text text-anchor="middle" x="204" y="-12.0211" font-family="Helvetica,sans-Serif" font-size="10.00"> alpha</text>
</g>
<!-- Node13 -->
<g id="node13" class="node"><title>Node13</title>
<g id="a_node13"><a xlink:href="structColor.html" target="_top" xlink:title="Struct para armazenar informações de cor. ">
<polygon fill="white" stroke="black" points="184,-192.521 184,-211.521 224,-211.521 224,-192.521 184,-192.521"/>
<text text-anchor="middle" x="204" y="-199.521" font-family="Helvetica,sans-Serif" font-size="10.00">Color</text>
</a>
</g>
</g>
<!-- Node8&#45;&gt;Node13 -->
<g id="edge15" class="edge"><title>Node8&#45;&gt;Node13</title>
<path fill="none" stroke="#9a32cd" stroke-dasharray="5,2" d="M48.8385,-77.7235C63.4399,-105.031 94.2742,-155.547 135,-183.021 149.633,-192.893 169.319,-197.67 183.744,-199.961"/>
<polygon fill="#9a32cd" stroke="#9a32cd" points="51.919,-76.0611 44.2052,-68.7983 45.7063,-79.2863 51.919,-76.0611"/>
<text text-anchor="middle" x="106" y="-192.021" font-family="Helvetica,sans-Serif" font-size="10.00"> g</text>
<text text-anchor="middle" x="106" y="-181.021" font-family="Helvetica,sans-Serif" font-size="10.00">r</text>
<text text-anchor="middle" x="106" y="-170.021" font-family="Helvetica,sans-Serif" font-size="10.00">b</text>
</g>
<!-- Node9 -->
<g id="node9" class="node"><title>Node9</title>
<polygon fill="white" stroke="#bfbfbf" points="173,-154.521 173,-173.521 235,-173.521 235,-154.521 173,-154.521"/>
<text text-anchor="middle" x="204" y="-161.521" font-family="Helvetica,sans-Serif" font-size="10.00">SDL_Rect</text>
</g>
<!-- Node9&#45;&gt;Node7 -->
<g id="edge10" class="edge"><title>Node9&#45;&gt;Node7</title>
<path fill="none" stroke="#9a32cd" stroke-dasharray="5,2" d="M245.209,-163.743C275.517,-163.082 318.035,-161.192 355,-156.021 365.741,-154.518 377.527,-151.914 387.206,-149.514"/>
<polygon fill="#9a32cd" stroke="#9a32cd" points="244.962,-160.247 235.028,-163.929 245.09,-167.246 244.962,-160.247"/>
<text text-anchor="middle" x="323" y="-164.021" font-family="Helvetica,sans-Serif" font-size="10.00"> clipRect</text>
</g>
<!-- Node10 -->
<g id="node10" class="node"><title>Node10</title>
<polygon fill="white" stroke="#bfbfbf" points="189.5,-105.521 189.5,-124.521 218.5,-124.521 218.5,-105.521 189.5,-105.521"/>
<text text-anchor="middle" x="204" y="-112.521" font-family="Helvetica,sans-Serif" font-size="10.00">int</text>
</g>
<!-- Node10&#45;&gt;Node7 -->
<g id="edge11" class="edge"><title>Node10&#45;&gt;Node7</title>
<path fill="none" stroke="#9a32cd" stroke-dasharray="5,2" d="M228.608,-109.056C258.698,-102.54 311.975,-94.6865 355,-108.021 371.679,-113.19 387.768,-125.692 397.642,-134.506"/>
<polygon fill="#9a32cd" stroke="#9a32cd" points="227.591,-105.698 218.632,-111.354 229.163,-112.519 227.591,-105.698"/>
<text text-anchor="middle" x="323" y="-144.021" font-family="Helvetica,sans-Serif" font-size="10.00"> width</text>
<text text-anchor="middle" x="323" y="-133.021" font-family="Helvetica,sans-Serif" font-size="10.00">currentFrame</text>
<text text-anchor="middle" x="323" y="-122.021" font-family="Helvetica,sans-Serif" font-size="10.00">height</text>
<text text-anchor="middle" x="323" y="-111.021" font-family="Helvetica,sans-Serif" font-size="10.00">frameCount</text>
</g>
<!-- Node11 -->
<g id="node11" class="node"><title>Node11</title>
<polygon fill="white" stroke="#bfbfbf" points="135,-67.5211 135,-86.5211 273,-86.5211 273,-67.5211 135,-67.5211"/>
<text text-anchor="middle" x="204" y="-74.5211" font-family="Helvetica,sans-Serif" font-size="10.00">shared_ptr&lt; SDL_Texture &gt;</text>
</g>
<!-- Node11&#45;&gt;Node7 -->
<g id="edge12" class="edge"><title>Node11&#45;&gt;Node7</title>
<path fill="none" stroke="#9a32cd" stroke-dasharray="5,2" d="M283.269,-69.827C307.269,-70.5586 333.101,-74.4843 355,-85.0211 377.24,-95.7217 394.16,-120.543 402.246,-134.338"/>
<polygon fill="#9a32cd" stroke="#9a32cd" points="283.156,-66.3254 273.113,-69.6991 283.068,-73.3248 283.156,-66.3254"/>
<text text-anchor="middle" x="323" y="-88.0211" font-family="Helvetica,sans-Serif" font-size="10.00"> texture</text>
</g>
<!-- Node12 -->
<g id="node12" class="node"><title>Node12</title>
<polygon fill="white" stroke="#bfbfbf" points="159,-29.5211 159,-48.5211 249,-48.5211 249,-29.5211 159,-29.5211"/>
<text text-anchor="middle" x="204" y="-36.5211" font-family="Helvetica,sans-Serif" font-size="10.00">SDL_BlendMode</text>
</g>
<!-- Node12&#45;&gt;Node7 -->
<g id="edge13" class="edge"><title>Node12&#45;&gt;Node7</title>
<path fill="none" stroke="#9a32cd" stroke-dasharray="5,2" d="M259.162,-33.4051C289.562,-32.8998 326.908,-36.9331 355,-55.0211 384.412,-73.9588 399.478,-115.685 404.988,-134.495"/>
<polygon fill="#9a32cd" stroke="#9a32cd" points="259.021,-29.9077 249.143,-33.7367 259.253,-36.9039 259.021,-29.9077"/>
<text text-anchor="middle" x="323" y="-58.0211" font-family="Helvetica,sans-Serif" font-size="10.00"> blendMode</text>
</g>
<!-- Node13&#45;&gt;Node7 -->
<g id="edge14" class="edge"><title>Node13&#45;&gt;Node7</title>
<path fill="none" stroke="#9a32cd" stroke-dasharray="5,2" d="M234.15,-200.211C265.008,-197.559 314.722,-191.159 355,-176.021 369.588,-170.538 384.613,-160.901 394.831,-153.631"/>
<polygon fill="#9a32cd" stroke="#9a32cd" points="233.764,-196.731 224.068,-201.002 234.311,-203.709 233.764,-196.731"/>
<text text-anchor="middle" x="323" y="-195.021" font-family="Helvetica,sans-Serif" font-size="10.00"> colorMultiplier</text>
</g>
<!-- Node14&#45;&gt;Node1 -->
<g id="edge18" class="edge"><title>Node14&#45;&gt;Node1</title>
<path fill="none" stroke="#9a32cd" stroke-dasharray="5,2" d="M353.925,-536.305C386.892,-538.321 439.999,-536.662 476,-511.021 504.242,-490.906 516.729,-448.635 521.077,-429.633"/>
<polygon fill="#9a32cd" stroke="#9a32cd" points="353.809,-532.786 343.571,-535.51 353.273,-539.766 353.809,-532.786"/>
<text text-anchor="middle" x="408.5" y="-539.021" font-family="Helvetica,sans-Serif" font-size="10.00"> endTimer</text>
</g>
</g>
</svg>
