<?xml version="1.0" encoding="UTF-8" standalone="no"?>
<!DOCTYPE svg PUBLIC "-//W3C//DTD SVG 1.1//EN"
 "http://www.w3.org/Graphics/SVG/1.1/DTD/svg11.dtd">
<!-- Generated by graphviz version 2.38.0 (20140413.2041)
 -->
<!-- Title: TitleState Pages: 1 -->
<svg width="522pt" height="386pt"
 viewBox="0.00 0.00 522.00 385.50" xmlns="http://www.w3.org/2000/svg" xmlns:xlink="http://www.w3.org/1999/xlink">
<g id="graph0" class="graph" transform="scale(1 1) rotate(0) translate(4 381.5)">
<title>TitleState</title>
<polygon fill="white" stroke="none" points="-4,4 -4,-381.5 518,-381.5 518,4 -4,4"/>
<!-- Node1 -->
<g id="node1" class="node"><title>Node1</title>
<polygon fill="#bfbfbf" stroke="black" points="455,-258.5 455,-277.5 514,-277.5 514,-258.5 455,-258.5"/>
<text text-anchor="middle" x="484.5" y="-265.5" font-family="Helvetica,sans-Serif" font-size="10.00">TitleState</text>
</g>
<!-- Node2 -->
<g id="node2" class="node"><title>Node2</title>
<g id="a_node2"><a xlink:href="classState.html" target="_top" xlink:title="Classe virtual que modela um estado do jogo. ">
<polygon fill="white" stroke="black" points="364,-307.5 364,-326.5 404,-326.5 404,-307.5 364,-307.5"/>
<text text-anchor="middle" x="384" y="-314.5" font-family="Helvetica,sans-Serif" font-size="10.00">State</text>
</a>
</g>
</g>
<!-- Node2&#45;&gt;Node1 -->
<g id="edge1" class="edge"><title>Node2&#45;&gt;Node1</title>
<path fill="none" stroke="midnightblue" d="M413.523,-302.811C429.752,-294.738 449.655,-284.837 464.08,-277.661"/>
<polygon fill="midnightblue" stroke="midnightblue" points="411.855,-299.732 404.46,-307.319 414.973,-305.999 411.855,-299.732"/>
</g>
<!-- Node3 -->
<g id="node3" class="node"><title>Node3</title>
<polygon fill="white" stroke="#bfbfbf" points="133.5,-347 133.5,-377 248.5,-377 248.5,-347 133.5,-347"/>
<text text-anchor="start" x="141.5" y="-365" font-family="Helvetica,sans-Serif" font-size="10.00">vector&lt; std::unique</text>
<text text-anchor="middle" x="191" y="-354" font-family="Helvetica,sans-Serif" font-size="10.00">_ptr&lt; GameObject &gt; &gt;</text>
</g>
<!-- Node3&#45;&gt;Node2 -->
<g id="edge2" class="edge"><title>Node3&#45;&gt;Node2</title>
<path fill="none" stroke="#9a32cd" stroke-dasharray="5,2" d="M258.785,-358.246C286.112,-355.221 317.666,-349.778 345,-340 353.858,-336.831 362.904,-331.459 369.946,-326.703"/>
<polygon fill="#9a32cd" stroke="#9a32cd" points="258.13,-354.795 248.537,-359.291 258.84,-361.759 258.13,-354.795"/>
<text text-anchor="middle" x="311.5" y="-358" font-family="Helvetica,sans-Serif" font-size="10.00"> objectArray</text>
</g>
<!-- Node4 -->
<g id="node4" class="node"><title>Node4</title>
<polygon fill="white" stroke="#bfbfbf" points="173.5,-307.5 173.5,-326.5 208.5,-326.5 208.5,-307.5 173.5,-307.5"/>
<text text-anchor="middle" x="191" y="-314.5" font-family="Helvetica,sans-Serif" font-size="10.00">bool</text>
</g>
<!-- Node4&#45;&gt;Node2 -->
<g id="edge3" class="edge"><title>Node4&#45;&gt;Node2</title>
<path fill="none" stroke="#9a32cd" stroke-dasharray="5,2" d="M218.701,-317C257.739,-317 329.465,-317 363.756,-317"/>
<polygon fill="#9a32cd" stroke="#9a32cd" points="218.616,-313.5 208.616,-317 218.616,-320.5 218.616,-313.5"/>
<text text-anchor="middle" x="311.5" y="-331" font-family="Helvetica,sans-Serif" font-size="10.00"> quitRequested</text>
<text text-anchor="middle" x="311.5" y="-320" font-family="Helvetica,sans-Serif" font-size="10.00">popRequested</text>
</g>
<!-- Node5 -->
<g id="node5" class="node"><title>Node5</title>
<g id="a_node5"><a xlink:href="classSprite.html" target="_top" xlink:title="Classe que modela uma sprite. ">
<polygon fill="white" stroke="black" points="363,-158.5 363,-177.5 405,-177.5 405,-158.5 363,-158.5"/>
<text text-anchor="middle" x="384" y="-165.5" font-family="Helvetica,sans-Serif" font-size="10.00">Sprite</text>
</a>
</g>
</g>
<!-- Node5&#45;&gt;Node1 -->
<g id="edge4" class="edge"><title>Node5&#45;&gt;Node1</title>
<path fill="none" stroke="#9a32cd" stroke-dasharray="5,2" d="M401.648,-184.901C422.409,-205.978 457.203,-241.303 473.939,-258.294"/>
<polygon fill="#9a32cd" stroke="#9a32cd" points="403.956,-182.257 394.445,-177.588 398.969,-187.169 403.956,-182.257"/>
<text text-anchor="middle" x="430" y="-221" font-family="Helvetica,sans-Serif" font-size="10.00"> bg</text>
</g>
<!-- Node6 -->
<g id="node6" class="node"><title>Node6</title>
<polygon fill="white" stroke="#bfbfbf" points="0,-244.5 0,-263.5 77,-263.5 77,-244.5 0,-244.5"/>
<text text-anchor="middle" x="38.5" y="-251.5" font-family="Helvetica,sans-Serif" font-size="10.00">unsigned char</text>
</g>
<!-- Node6&#45;&gt;Node5 -->
<g id="edge5" class="edge"><title>Node6&#45;&gt;Node5</title>
<path fill="none" stroke="#9a32cd" stroke-dasharray="5,2" d="M87.3156,-263.17C89.909,-263.494 92.4828,-263.775 95,-264 98.9841,-264.356 100,-264.05 104,-264 211.136,-262.667 256.454,-318.329 345,-258 372.332,-239.378 380.074,-196.906 382.211,-177.723"/>
<polygon fill="#9a32cd" stroke="#9a32cd" points="87.6883,-259.688 77.2937,-261.738 86.6981,-266.617 87.6883,-259.688"/>
<text text-anchor="middle" x="191" y="-290" font-family="Helvetica,sans-Serif" font-size="10.00"> alpha</text>
</g>
<!-- Node12 -->
<g id="node12" class="node"><title>Node12</title>
<g id="a_node12"><a xlink:href="structColor.html" target="_top" xlink:title="Struct para armazenar informações de cor. ">
<polygon fill="white" stroke="black" points="171,-221.5 171,-240.5 211,-240.5 211,-221.5 171,-221.5"/>
<text text-anchor="middle" x="191" y="-228.5" font-family="Helvetica,sans-Serif" font-size="10.00">Color</text>
</a>
</g>
</g>
<!-- Node6&#45;&gt;Node12 -->
<g id="edge12" class="edge"><title>Node6&#45;&gt;Node12</title>
<path fill="none" stroke="#9a32cd" stroke-dasharray="5,2" d="M66.7777,-240.203C75.5608,-236.446 85.4866,-232.893 95,-231 120.881,-225.85 151.52,-227.137 170.86,-228.827"/>
<polygon fill="#9a32cd" stroke="#9a32cd" points="65.0838,-237.129 57.4297,-244.454 67.9816,-243.501 65.0838,-237.129"/>
<text text-anchor="middle" x="99.5" y="-256" font-family="Helvetica,sans-Serif" font-size="10.00"> g</text>
<text text-anchor="middle" x="99.5" y="-245" font-family="Helvetica,sans-Serif" font-size="10.00">r</text>
<text text-anchor="middle" x="99.5" y="-234" font-family="Helvetica,sans-Serif" font-size="10.00">b</text>
</g>
<!-- Node7 -->
<g id="node7" class="node"><title>Node7</title>
<polygon fill="white" stroke="#bfbfbf" points="173.5,-177.5 173.5,-196.5 208.5,-196.5 208.5,-177.5 173.5,-177.5"/>
<text text-anchor="middle" x="191" y="-184.5" font-family="Helvetica,sans-Serif" font-size="10.00">float</text>
</g>
<!-- Node7&#45;&gt;Node5 -->
<g id="edge6" class="edge"><title>Node7&#45;&gt;Node5</title>
<path fill="none" stroke="#9a32cd" stroke-dasharray="5,2" d="M218.617,-184.352C257.306,-180.504 328.232,-173.448 362.88,-170.001"/>
<polygon fill="#9a32cd" stroke="#9a32cd" points="218.22,-180.874 208.616,-185.347 218.913,-187.84 218.22,-180.874"/>
<text text-anchor="middle" x="311.5" y="-215" font-family="Helvetica,sans-Serif" font-size="10.00"> scaleY</text>
<text text-anchor="middle" x="311.5" y="-204" font-family="Helvetica,sans-Serif" font-size="10.00">frameTime</text>
<text text-anchor="middle" x="311.5" y="-193" font-family="Helvetica,sans-Serif" font-size="10.00">timeElapsed</text>
<text text-anchor="middle" x="311.5" y="-182" font-family="Helvetica,sans-Serif" font-size="10.00">scaleX</text>
</g>
<!-- Node8 -->
<g id="node8" class="node"><title>Node8</title>
<polygon fill="white" stroke="#bfbfbf" points="160,-139.5 160,-158.5 222,-158.5 222,-139.5 160,-139.5"/>
<text text-anchor="middle" x="191" y="-146.5" font-family="Helvetica,sans-Serif" font-size="10.00">SDL_Rect</text>
</g>
<!-- Node8&#45;&gt;Node5 -->
<g id="edge7" class="edge"><title>Node8&#45;&gt;Node5</title>
<path fill="none" stroke="#9a32cd" stroke-dasharray="5,2" d="M232.491,-149.198C263.469,-149.875 307.156,-151.969 345,-158 350.794,-158.923 356.983,-160.355 362.649,-161.849"/>
<polygon fill="#9a32cd" stroke="#9a32cd" points="232.154,-145.691 222.094,-149.013 232.03,-152.69 232.154,-145.691"/>
<text text-anchor="middle" x="311.5" y="-161" font-family="Helvetica,sans-Serif" font-size="10.00"> clipRect</text>
</g>
<!-- Node9 -->
<g id="node9" class="node"><title>Node9</title>
<polygon fill="white" stroke="#bfbfbf" points="176.5,-76.5 176.5,-95.5 205.5,-95.5 205.5,-76.5 176.5,-76.5"/>
<text text-anchor="middle" x="191" y="-83.5" font-family="Helvetica,sans-Serif" font-size="10.00">int</text>
</g>
<!-- Node9&#45;&gt;Node5 -->
<g id="edge8" class="edge"><title>Node9&#45;&gt;Node5</title>
<path fill="none" stroke="#9a32cd" stroke-dasharray="5,2" d="M215.799,-82.6749C247.866,-79.4694 305.474,-78.3266 345,-104 364.723,-116.811 375.609,-143.754 380.254,-158.26"/>
<polygon fill="#9a32cd" stroke="#9a32cd" points="215.125,-79.2294 205.593,-83.8542 215.929,-86.1831 215.125,-79.2294"/>
<text text-anchor="middle" x="311.5" y="-140" font-family="Helvetica,sans-Serif" font-size="10.00"> width</text>
<text text-anchor="middle" x="311.5" y="-129" font-family="Helvetica,sans-Serif" font-size="10.00">currentFrame</text>
<text text-anchor="middle" x="311.5" y="-118" font-family="Helvetica,sans-Serif" font-size="10.00">height</text>
<text text-anchor="middle" x="311.5" y="-107" font-family="Helvetica,sans-Serif" font-size="10.00">frameCount</text>
</g>
<!-- Node10 -->
<g id="node10" class="node"><title>Node10</title>
<polygon fill="white" stroke="#bfbfbf" points="122,-38.5 122,-57.5 260,-57.5 260,-38.5 122,-38.5"/>
<text text-anchor="middle" x="191" y="-45.5" font-family="Helvetica,sans-Serif" font-size="10.00">shared_ptr&lt; SDL_Texture &gt;</text>
</g>
<!-- Node10&#45;&gt;Node5 -->
<g id="edge9" class="edge"><title>Node10&#45;&gt;Node5</title>
<path fill="none" stroke="#9a32cd" stroke-dasharray="5,2" d="M270.326,-42.766C296.421,-44.7962 324.127,-51.5032 345,-68 373.851,-90.8015 380.805,-138.152 382.475,-158.438"/>
<polygon fill="#9a32cd" stroke="#9a32cd" points="270.219,-39.2546 260.04,-42.1927 269.829,-46.2438 270.219,-39.2546"/>
<text text-anchor="middle" x="311.5" y="-71" font-family="Helvetica,sans-Serif" font-size="10.00"> texture</text>
</g>
<!-- Node11 -->
<g id="node11" class="node"><title>Node11</title>
<polygon fill="white" stroke="#bfbfbf" points="146,-0.5 146,-19.5 236,-19.5 236,-0.5 146,-0.5"/>
<text text-anchor="middle" x="191" y="-7.5" font-family="Helvetica,sans-Serif" font-size="10.00">SDL_BlendMode</text>
</g>
<!-- Node11&#45;&gt;Node5 -->
<g id="edge10" class="edge"><title>Node11&#45;&gt;Node5</title>
<path fill="none" stroke="#9a32cd" stroke-dasharray="5,2" d="M246.306,-2.76702C278.604,-1.55769 318.344,-5.91457 345,-29 384.146,-62.9027 384.831,-132.86 383.659,-158.398"/>
<polygon fill="#9a32cd" stroke="#9a32cd" points="245.896,0.715566 236.107,-3.33856 246.288,-6.27347 245.896,0.715566"/>
<text text-anchor="middle" x="311.5" y="-32" font-family="Helvetica,sans-Serif" font-size="10.00"> blendMode</text>
</g>
<!-- Node12&#45;&gt;Node5 -->
<g id="edge11" class="edge"><title>Node12&#45;&gt;Node5</title>
<path fill="none" stroke="#9a32cd" stroke-dasharray="5,2" d="M221.584,-237.957C254.075,-243.925 306.715,-248.535 345,-227 364.114,-216.249 375.136,-191.448 379.995,-177.67"/>
<polygon fill="#9a32cd" stroke="#9a32cd" points="221.88,-234.447 211.388,-235.917 220.506,-241.311 221.88,-234.447"/>
<text text-anchor="middle" x="311.5" y="-246" font-family="Helvetica,sans-Serif" font-size="10.00"> colorMultiplier</text>
</g>
</g>
</svg>
