<?xml version="1.0" encoding="UTF-8" standalone="no"?>
<!DOCTYPE svg PUBLIC "-//W3C//DTD SVG 1.1//EN"
 "http://www.w3.org/Graphics/SVG/1.1/DTD/svg11.dtd">
<!-- Generated by graphviz version 2.36.0 (20140111.2315)
 -->
<!-- Title: EndState Pages: 1 -->
<svg width="522pt" height="556pt"
 viewBox="0.00 0.00 522.00 556.00" xmlns="http://www.w3.org/2000/svg" xmlns:xlink="http://www.w3.org/1999/xlink">
<g id="graph0" class="graph" transform="scale(1 1) rotate(0) translate(4 552)">
<title>EndState</title>
<polygon fill="white" stroke="none" points="-4,4 -4,-552 518,-552 518,4 -4,4"/>
<!-- Node1 -->
<g id="node1" class="node"><title>Node1</title>
<polygon fill="#bfbfbf" stroke="black" points="456.5,-392.5 456.5,-411.5 513.5,-411.5 513.5,-392.5 456.5,-392.5"/>
<text text-anchor="middle" x="485" y="-399.5" font-family="Helvetica,sans-Serif" font-size="10.00">EndState</text>
</g>
<!-- Node2 -->
<g id="node2" class="node"><title>Node2</title>
<g id="a_node2"><a xlink:href="classState.html" target="_top" xlink:title="Classe virtual que modela um estado do jogo. ">
<polygon fill="white" stroke="black" points="328,-478.5 328,-497.5 368,-497.5 368,-478.5 328,-478.5"/>
<text text-anchor="middle" x="348" y="-485.5" font-family="Helvetica,sans-Serif" font-size="10.00">State</text>
</a>
</g>
</g>
<!-- Node2&#45;&gt;Node1 -->
<g id="edge1" class="edge"><title>Node2&#45;&gt;Node1</title>
<path fill="none" stroke="midnightblue" d="M377.185,-473.585C395.021,-464.12 418.341,-451.105 438,-438 450.32,-429.788 463.549,-419.233 472.643,-411.679"/>
<polygon fill="midnightblue" stroke="midnightblue" points="375.128,-470.712 367.898,-478.456 378.38,-476.911 375.128,-470.712"/>
</g>
<!-- Node3 -->
<g id="node3" class="node"><title>Node3</title>
<polygon fill="white" stroke="#bfbfbf" points="95.5,-518 95.5,-548 210.5,-548 210.5,-518 95.5,-518"/>
<text text-anchor="start" x="103.5" y="-536" font-family="Helvetica,sans-Serif" font-size="10.00">vector&lt; std::unique</text>
<text text-anchor="middle" x="153" y="-525" font-family="Helvetica,sans-Serif" font-size="10.00">_ptr&lt; GameObject &gt; &gt;</text>
</g>
<!-- Node3&#45;&gt;Node2 -->
<g id="edge2" class="edge"><title>Node3&#45;&gt;Node2</title>
<path fill="none" stroke="#9a32cd" stroke-dasharray="5,2" d="M221.165,-529.139C248.661,-526.097 280.43,-520.671 308,-511 317.049,-507.826 326.331,-502.453 333.568,-497.699"/>
<polygon fill="#9a32cd" stroke="#9a32cd" points="220.447,-525.694 210.854,-530.192 221.158,-532.658 220.447,-525.694"/>
<text text-anchor="middle" x="274" y="-529" font-family="Helvetica,sans-Serif" font-size="10.00"> objectArray</text>
</g>
<!-- Node4 -->
<g id="node4" class="node"><title>Node4</title>
<polygon fill="white" stroke="#bfbfbf" points="135.5,-478.5 135.5,-497.5 170.5,-497.5 170.5,-478.5 135.5,-478.5"/>
<text text-anchor="middle" x="153" y="-485.5" font-family="Helvetica,sans-Serif" font-size="10.00">bool</text>
</g>
<!-- Node4&#45;&gt;Node2 -->
<g id="edge3" class="edge"><title>Node4&#45;&gt;Node2</title>
<path fill="none" stroke="#9a32cd" stroke-dasharray="5,2" d="M181.01,-488C220.574,-488 293.321,-488 327.846,-488"/>
<polygon fill="#9a32cd" stroke="#9a32cd" points="180.79,-484.5 170.79,-488 180.79,-491.5 180.79,-484.5"/>
<text text-anchor="middle" x="274" y="-502" font-family="Helvetica,sans-Serif" font-size="10.00"> quitRequested</text>
<text text-anchor="middle" x="274" y="-491" font-family="Helvetica,sans-Serif" font-size="10.00">popRequested</text>
</g>
<!-- Node5 -->
<g id="node5" class="node"><title>Node5</title>
<g id="a_node5"><a xlink:href="classMusic.html" target="_top" xlink:title="Classe que modela músicas. ">
<polygon fill="white" stroke="black" points="326.5,-421.5 326.5,-440.5 369.5,-440.5 369.5,-421.5 326.5,-421.5"/>
<text text-anchor="middle" x="348" y="-428.5" font-family="Helvetica,sans-Serif" font-size="10.00">Music</text>
</a>
</g>
</g>
<!-- Node5&#45;&gt;Node1 -->
<g id="edge4" class="edge"><title>Node5&#45;&gt;Node1</title>
<path fill="none" stroke="#9a32cd" stroke-dasharray="5,2" d="M379.445,-424.46C402.497,-419.508 433.905,-412.761 456.266,-407.958"/>
<polygon fill="#9a32cd" stroke="#9a32cd" points="378.545,-421.073 369.504,-426.596 380.016,-427.917 378.545,-421.073"/>
<text text-anchor="middle" x="413" y="-426" font-family="Helvetica,sans-Serif" font-size="10.00"> music</text>
</g>
<!-- Node6 -->
<g id="node6" class="node"><title>Node6</title>
<polygon fill="white" stroke="#bfbfbf" points="89,-440.5 89,-459.5 217,-459.5 217,-440.5 89,-440.5"/>
<text text-anchor="middle" x="153" y="-447.5" font-family="Helvetica,sans-Serif" font-size="10.00">shared_ptr&lt; Mix_Music &gt;</text>
</g>
<!-- Node6&#45;&gt;Node5 -->
<g id="edge5" class="edge"><title>Node6&#45;&gt;Node5</title>
<path fill="none" stroke="#9a32cd" stroke-dasharray="5,2" d="M227.557,-442.759C263.047,-439.265 302.932,-435.338 326.46,-433.022"/>
<polygon fill="#9a32cd" stroke="#9a32cd" points="226.804,-439.316 217.195,-443.779 227.49,-446.282 226.804,-439.316"/>
<text text-anchor="middle" x="274" y="-445" font-family="Helvetica,sans-Serif" font-size="10.00"> music</text>
</g>
<!-- Node7 -->
<g id="node7" class="node"><title>Node7</title>
<g id="a_node7"><a xlink:href="classSprite.html" target="_top" xlink:title="Classe que modela uma sprite. ">
<polygon fill="white" stroke="black" points="327,-364.5 327,-383.5 369,-383.5 369,-364.5 327,-364.5"/>
<text text-anchor="middle" x="348" y="-371.5" font-family="Helvetica,sans-Serif" font-size="10.00">Sprite</text>
</a>
</g>
</g>
<!-- Node7&#45;&gt;Node1 -->
<g id="edge6" class="edge"><title>Node7&#45;&gt;Node1</title>
<path fill="none" stroke="#9a32cd" stroke-dasharray="5,2" d="M379.217,-379.998C396.452,-383.448 418.452,-387.899 438,-392 443.919,-393.242 450.26,-394.601 456.284,-395.907"/>
<polygon fill="#9a32cd" stroke="#9a32cd" points="379.657,-376.517 369.165,-377.992 378.286,-383.382 379.657,-376.517"/>
<text text-anchor="middle" x="413" y="-395" font-family="Helvetica,sans-Serif" font-size="10.00"> bg</text>
</g>
<!-- Node8 -->
<g id="node8" class="node"><title>Node8</title>
<polygon fill="white" stroke="#bfbfbf" points="0.5,-223.5 0.5,-242.5 35.5,-242.5 35.5,-223.5 0.5,-223.5"/>
<text text-anchor="middle" x="18" y="-230.5" font-family="Helvetica,sans-Serif" font-size="10.00">float</text>
</g>
<!-- Node8&#45;&gt;Node7 -->
<g id="edge7" class="edge"><title>Node8&#45;&gt;Node7</title>
<path fill="none" stroke="#9a32cd" stroke-dasharray="5,2" d="M44.3149,-247.547C56.1419,-254.002 70.5527,-261.389 84,-267 143.411,-291.79 162.404,-286.659 222,-311 261.821,-327.264 306.332,-351.155 330.012,-364.351"/>
<polygon fill="#9a32cd" stroke="#9a32cd" points="45.8927,-244.42 35.4515,-242.623 42.4928,-250.539 45.8927,-244.42"/>
<text text-anchor="middle" x="153" y="-347" font-family="Helvetica,sans-Serif" font-size="10.00"> scaleY</text>
<text text-anchor="middle" x="153" y="-336" font-family="Helvetica,sans-Serif" font-size="10.00">frameTime</text>
<text text-anchor="middle" x="153" y="-325" font-family="Helvetica,sans-Serif" font-size="10.00">timeElapsed</text>
<text text-anchor="middle" x="153" y="-314" font-family="Helvetica,sans-Serif" font-size="10.00">scaleX</text>
</g>
<!-- Node15 -->
<g id="node15" class="node"><title>Node15</title>
<g id="a_node15"><a xlink:href="classRect.html" target="_top" xlink:title="Classe que modela um rect. ">
<polygon fill="white" stroke="black" points="134,-76.5 134,-95.5 172,-95.5 172,-76.5 134,-76.5"/>
<text text-anchor="middle" x="153" y="-83.5" font-family="Helvetica,sans-Serif" font-size="10.00">Rect</text>
</a>
</g>
</g>
<!-- Node8&#45;&gt;Node15 -->
<g id="edge15" class="edge"><title>Node8&#45;&gt;Node15</title>
<path fill="none" stroke="#9a32cd" stroke-dasharray="5,2" d="M23.5997,-213.419C31.2467,-185.222 49.288,-133.456 84,-105 98.2192,-93.3432 119.121,-88.8236 133.993,-87.0793"/>
<polygon fill="#9a32cd" stroke="#9a32cd" points="20.1615,-212.738 21.0892,-223.292 26.9457,-214.463 20.1615,-212.738"/>
<text text-anchor="middle" x="60" y="-177" font-family="Helvetica,sans-Serif" font-size="10.00"> w</text>
<text text-anchor="middle" x="60" y="-166" font-family="Helvetica,sans-Serif" font-size="10.00">x</text>
<text text-anchor="middle" x="60" y="-155" font-family="Helvetica,sans-Serif" font-size="10.00">h</text>
<text text-anchor="middle" x="60" y="-144" font-family="Helvetica,sans-Serif" font-size="10.00">y</text>
</g>
<!-- Node9 -->
<g id="node9" class="node"><title>Node9</title>
<polygon fill="white" stroke="#bfbfbf" points="122,-402.5 122,-421.5 184,-421.5 184,-402.5 122,-402.5"/>
<text text-anchor="middle" x="153" y="-409.5" font-family="Helvetica,sans-Serif" font-size="10.00">SDL_Rect</text>
</g>
<!-- Node9&#45;&gt;Node7 -->
<g id="edge8" class="edge"><title>Node9&#45;&gt;Node7</title>
<path fill="none" stroke="#9a32cd" stroke-dasharray="5,2" d="M194.309,-408.419C225.666,-405.05 270.072,-398.997 308,-389 314.173,-387.373 320.71,-385.092 326.632,-382.799"/>
<polygon fill="#9a32cd" stroke="#9a32cd" points="193.793,-404.954 184.204,-409.46 194.51,-411.917 193.793,-404.954"/>
<text text-anchor="middle" x="274" y="-406" font-family="Helvetica,sans-Serif" font-size="10.00"> clipRect</text>
</g>
<!-- Node10 -->
<g id="node10" class="node"><title>Node10</title>
<polygon fill="white" stroke="#bfbfbf" points="138.5,-238.5 138.5,-257.5 167.5,-257.5 167.5,-238.5 138.5,-238.5"/>
<text text-anchor="middle" x="153" y="-245.5" font-family="Helvetica,sans-Serif" font-size="10.00">int</text>
</g>
<!-- Node10&#45;&gt;Node7 -->
<g id="edge9" class="edge"><title>Node10&#45;&gt;Node7</title>
<path fill="none" stroke="#9a32cd" stroke-dasharray="5,2" d="M178.057,-248.513C216.253,-249.798 288.456,-254.294 308,-270 337.912,-294.038 344.886,-343.548 346.509,-364.404"/>
<polygon fill="#9a32cd" stroke="#9a32cd" points="177.919,-245.007 167.823,-248.218 177.718,-252.005 177.919,-245.007"/>
<text text-anchor="middle" x="274" y="-306" font-family="Helvetica,sans-Serif" font-size="10.00"> width</text>
<text text-anchor="middle" x="274" y="-295" font-family="Helvetica,sans-Serif" font-size="10.00">currentFrame</text>
<text text-anchor="middle" x="274" y="-284" font-family="Helvetica,sans-Serif" font-size="10.00">height</text>
<text text-anchor="middle" x="274" y="-273" font-family="Helvetica,sans-Serif" font-size="10.00">frameCount</text>
</g>
<!-- Node12 -->
<g id="node12" class="node"><title>Node12</title>
<g id="a_node12"><a xlink:href="classText.html" target="_top" xlink:title="Classe que modela textos. ">
<polygon fill="white" stroke="black" points="330,-129.5 330,-148.5 366,-148.5 366,-129.5 330,-129.5"/>
<text text-anchor="middle" x="348" y="-136.5" font-family="Helvetica,sans-Serif" font-size="10.00">Text</text>
</a>
</g>
</g>
<!-- Node10&#45;&gt;Node12 -->
<g id="edge17" class="edge"><title>Node10&#45;&gt;Node12</title>
<path fill="none" stroke="#9a32cd" stroke-dasharray="5,2" d="M177.91,-245.036C215.897,-239.926 287.808,-228.498 308,-213 329.543,-196.466 340.423,-164.602 344.723,-148.626"/>
<polygon fill="#9a32cd" stroke="#9a32cd" points="177.198,-241.599 167.735,-246.362 178.103,-248.54 177.198,-241.599"/>
<text text-anchor="middle" x="274" y="-238" font-family="Helvetica,sans-Serif" font-size="10.00"> fontSize</text>
</g>
<!-- Node11 -->
<g id="node11" class="node"><title>Node11</title>
<polygon fill="white" stroke="#bfbfbf" points="84,-364.5 84,-383.5 222,-383.5 222,-364.5 84,-364.5"/>
<text text-anchor="middle" x="153" y="-371.5" font-family="Helvetica,sans-Serif" font-size="10.00">shared_ptr&lt; SDL_Texture &gt;</text>
</g>
<!-- Node11&#45;&gt;Node7 -->
<g id="edge10" class="edge"><title>Node11&#45;&gt;Node7</title>
<path fill="none" stroke="#9a32cd" stroke-dasharray="5,2" d="M232.12,-374C266.522,-374 304.16,-374 326.662,-374"/>
<polygon fill="#9a32cd" stroke="#9a32cd" points="232.045,-370.5 222.045,-374 232.045,-377.5 232.045,-370.5"/>
<text text-anchor="middle" x="274" y="-377" font-family="Helvetica,sans-Serif" font-size="10.00"> texture</text>
</g>
<!-- Node12&#45;&gt;Node1 -->
<g id="edge11" class="edge"><title>Node12&#45;&gt;Node1</title>
<path fill="none" stroke="#9a32cd" stroke-dasharray="5,2" d="M358.624,-157.749C385.219,-209.56 459.063,-353.419 478.99,-392.24"/>
<polygon fill="#9a32cd" stroke="#9a32cd" points="361.645,-155.97 353.965,-148.672 355.418,-159.167 361.645,-155.97"/>
<text text-anchor="middle" x="413" y="-313" font-family="Helvetica,sans-Serif" font-size="10.00"> instruction</text>
</g>
<!-- Node13 -->
<g id="node13" class="node"><title>Node13</title>
<polygon fill="white" stroke="#bfbfbf" points="91.5,-191.5 91.5,-210.5 214.5,-210.5 214.5,-191.5 91.5,-191.5"/>
<text text-anchor="middle" x="153" y="-198.5" font-family="Helvetica,sans-Serif" font-size="10.00">shared_ptr&lt; TTF_Font &gt;</text>
</g>
<!-- Node13&#45;&gt;Node12 -->
<g id="edge12" class="edge"><title>Node13&#45;&gt;Node12</title>
<path fill="none" stroke="#9a32cd" stroke-dasharray="5,2" d="M225.015,-199.773C252.147,-196.948 282.634,-190.784 308,-178 321.51,-171.191 333.2,-157.931 340.17,-148.777"/>
<polygon fill="#9a32cd" stroke="#9a32cd" points="224.442,-196.311 214.799,-200.699 225.074,-203.282 224.442,-196.311"/>
<text text-anchor="middle" x="274" y="-201" font-family="Helvetica,sans-Serif" font-size="10.00"> font</text>
</g>
<!-- Node14 -->
<g id="node14" class="node"><title>Node14</title>
<polygon fill="white" stroke="#bfbfbf" points="120.5,-114.5 120.5,-133.5 185.5,-133.5 185.5,-114.5 120.5,-114.5"/>
<text text-anchor="middle" x="153" y="-121.5" font-family="Helvetica,sans-Serif" font-size="10.00">SDL_Color</text>
</g>
<!-- Node14&#45;&gt;Node12 -->
<g id="edge13" class="edge"><title>Node14&#45;&gt;Node12</title>
<path fill="none" stroke="#9a32cd" stroke-dasharray="5,2" d="M195.698,-119.257C226.923,-116.781 270.528,-115.612 308,-123 315.467,-124.472 323.304,-127.389 329.978,-130.333"/>
<polygon fill="#9a32cd" stroke="#9a32cd" points="195.268,-115.781 185.61,-120.136 195.876,-122.755 195.268,-115.781"/>
<text text-anchor="middle" x="274" y="-126" font-family="Helvetica,sans-Serif" font-size="10.00"> color</text>
</g>
<!-- Node15&#45;&gt;Node12 -->
<g id="edge14" class="edge"><title>Node15&#45;&gt;Node12</title>
<path fill="none" stroke="#9a32cd" stroke-dasharray="5,2" d="M182.432,-83.967C214.437,-82.8227 267.277,-84.4375 308,-103 320.912,-108.886 332.403,-120.718 339.509,-129.212"/>
<polygon fill="#9a32cd" stroke="#9a32cd" points="181.856,-80.4904 172.035,-84.4635 182.19,-87.4824 181.856,-80.4904"/>
<text text-anchor="middle" x="274" y="-106" font-family="Helvetica,sans-Serif" font-size="10.00"> box</text>
</g>
<!-- Node16 -->
<g id="node16" class="node"><title>Node16</title>
<polygon fill="white" stroke="#bfbfbf" points="112.5,-38.5 112.5,-57.5 193.5,-57.5 193.5,-38.5 112.5,-38.5"/>
<text text-anchor="middle" x="153" y="-45.5" font-family="Helvetica,sans-Serif" font-size="10.00">SDL_Texture *</text>
</g>
<!-- Node16&#45;&gt;Node12 -->
<g id="edge16" class="edge"><title>Node16&#45;&gt;Node12</title>
<path fill="none" stroke="#9a32cd" stroke-dasharray="5,2" d="M203.898,-45.1995C236.167,-45.7872 277.654,-51.2778 308,-72 328.451,-85.9653 339.651,-114.468 344.334,-129.396"/>
<polygon fill="#9a32cd" stroke="#9a32cd" points="203.782,-41.6992 193.771,-45.1679 203.76,-48.6992 203.782,-41.6992"/>
<text text-anchor="middle" x="274" y="-75" font-family="Helvetica,sans-Serif" font-size="10.00"> texture</text>
</g>
<!-- Node17 -->
<g id="node17" class="node"><title>Node17</title>
<polygon fill="white" stroke="#bfbfbf" points="132.5,-152.5 132.5,-171.5 173.5,-171.5 173.5,-152.5 132.5,-152.5"/>
<text text-anchor="middle" x="153" y="-159.5" font-family="Helvetica,sans-Serif" font-size="10.00">string</text>
</g>
<!-- Node17&#45;&gt;Node12 -->
<g id="edge18" class="edge"><title>Node17&#45;&gt;Node12</title>
<path fill="none" stroke="#9a32cd" stroke-dasharray="5,2" d="M183.738,-158.456C224.67,-153.578 297.03,-144.955 329.9,-141.038"/>
<polygon fill="#9a32cd" stroke="#9a32cd" points="183.084,-155.009 173.568,-159.668 183.912,-161.96 183.084,-155.009"/>
<text text-anchor="middle" x="274" y="-166" font-family="Helvetica,sans-Serif" font-size="10.00"> fontFile</text>
<text text-anchor="middle" x="274" y="-155" font-family="Helvetica,sans-Serif" font-size="10.00">text</text>
</g>
<!-- Node18 -->
<g id="node18" class="node"><title>Node18</title>
<polygon fill="white" stroke="#bfbfbf" points="123.5,-0.5 123.5,-19.5 182.5,-19.5 182.5,-0.5 123.5,-0.5"/>
<text text-anchor="middle" x="153" y="-7.5" font-family="Helvetica,sans-Serif" font-size="10.00">TextStyle</text>
</g>
<!-- Node18&#45;&gt;Node12 -->
<g id="edge19" class="edge"><title>Node18&#45;&gt;Node12</title>
<path fill="none" stroke="#9a32cd" stroke-dasharray="5,2" d="M192.751,-5.82833C226.802,-4.32635 275.808,-7.70685 308,-34 337.971,-58.4793 344.913,-108.349 346.518,-129.342"/>
<polygon fill="#9a32cd" stroke="#9a32cd" points="192.471,-2.33874 182.698,-6.43125 192.89,-9.32618 192.471,-2.33874"/>
<text text-anchor="middle" x="274" y="-37" font-family="Helvetica,sans-Serif" font-size="10.00"> style</text>
</g>
</g>
</svg>
