<?xml version="1.0" encoding="UTF-8" standalone="no"?>
<!DOCTYPE svg PUBLIC "-//W3C//DTD SVG 1.1//EN"
 "http://www.w3.org/Graphics/SVG/1.1/DTD/svg11.dtd">
<!-- Generated by graphviz version 2.38.0 (20140413.2041)
 -->
<!-- Title: UIcanvas Pages: 1 -->
<svg width="293pt" height="140pt"
 viewBox="0.00 0.00 293.00 140.00" xmlns="http://www.w3.org/2000/svg" xmlns:xlink="http://www.w3.org/1999/xlink">
<g id="graph0" class="graph" transform="scale(1 1) rotate(0) translate(4 136)">
<title>UIcanvas</title>
<polygon fill="white" stroke="none" points="-4,4 -4,-136 289,-136 289,4 -4,4"/>
<!-- Node1 -->
<g id="node1" class="node"><title>Node1</title>
<polygon fill="#bfbfbf" stroke="black" points="105,-56.5 105,-75.5 164,-75.5 164,-56.5 105,-56.5"/>
<text text-anchor="middle" x="134.5" y="-63.5" font-family="Helvetica,sans-Serif" font-size="10.00">UIcanvas</text>
</g>
<!-- Node3 -->
<g id="node3" class="node"><title>Node3</title>
<g id="a_node3"><a xlink:href="classUIgridGroup.html" target="_top" xlink:title="UIgridGroup">
<polygon fill="white" stroke="black" points="0,-0.5 0,-19.5 69,-19.5 69,-0.5 0,-0.5"/>
<text text-anchor="middle" x="34.5" y="-7.5" font-family="Helvetica,sans-Serif" font-size="10.00">UIgridGroup</text>
</a>
</g>
</g>
<!-- Node1&#45;&gt;Node3 -->
<g id="edge2" class="edge"><title>Node1&#45;&gt;Node3</title>
<path fill="none" stroke="midnightblue" d="M109.412,-51.4526C90.9509,-41.4835 66.4034,-28.2279 50.5269,-19.6545"/>
<polygon fill="midnightblue" stroke="midnightblue" points="107.971,-54.6521 118.433,-56.324 111.297,-48.4928 107.971,-54.6521"/>
</g>
<!-- Node4 -->
<g id="node4" class="node"><title>Node4</title>
<g id="a_node4"><a xlink:href="classUIhorizontalGroup.html" target="_top" xlink:title="UIhorizontalGroup">
<polygon fill="white" stroke="black" points="87,-0.5 87,-19.5 182,-19.5 182,-0.5 87,-0.5"/>
<text text-anchor="middle" x="134.5" y="-7.5" font-family="Helvetica,sans-Serif" font-size="10.00">UIhorizontalGroup</text>
</a>
</g>
</g>
<!-- Node1&#45;&gt;Node4 -->
<g id="edge3" class="edge"><title>Node1&#45;&gt;Node4</title>
<path fill="none" stroke="midnightblue" d="M134.5,-45.8045C134.5,-36.9102 134.5,-26.7798 134.5,-19.7511"/>
<polygon fill="midnightblue" stroke="midnightblue" points="131,-46.083 134.5,-56.083 138,-46.083 131,-46.083"/>
</g>
<!-- Node5 -->
<g id="node5" class="node"><title>Node5</title>
<g id="a_node5"><a xlink:href="classUIverticalGroup.html" target="_top" xlink:title="UIverticalGroup">
<polygon fill="white" stroke="black" points="200,-0.5 200,-19.5 285,-19.5 285,-0.5 200,-0.5"/>
<text text-anchor="middle" x="242.5" y="-7.5" font-family="Helvetica,sans-Serif" font-size="10.00">UIverticalGroup</text>
</a>
</g>
</g>
<!-- Node1&#45;&gt;Node5 -->
<g id="edge4" class="edge"><title>Node1&#45;&gt;Node5</title>
<path fill="none" stroke="midnightblue" d="M161.048,-51.7261C181.046,-41.7271 207.887,-28.3065 225.191,-19.6545"/>
<polygon fill="midnightblue" stroke="midnightblue" points="159.231,-48.7213 151.852,-56.324 162.362,-54.9823 159.231,-48.7213"/>
</g>
<!-- Node2 -->
<g id="node2" class="node"><title>Node2</title>
<g id="a_node2"><a xlink:href="classUIelement.html" target="_top" xlink:title="UIelement">
<polygon fill="white" stroke="black" points="103.5,-112.5 103.5,-131.5 165.5,-131.5 165.5,-112.5 103.5,-112.5"/>
<text text-anchor="middle" x="134.5" y="-119.5" font-family="Helvetica,sans-Serif" font-size="10.00">UIelement</text>
</a>
</g>
</g>
<!-- Node2&#45;&gt;Node1 -->
<g id="edge1" class="edge"><title>Node2&#45;&gt;Node1</title>
<path fill="none" stroke="midnightblue" d="M134.5,-101.805C134.5,-92.9102 134.5,-82.7798 134.5,-75.7511"/>
<polygon fill="midnightblue" stroke="midnightblue" points="131,-102.083 134.5,-112.083 138,-102.083 131,-102.083"/>
</g>
</g>
</svg>
