<?xml version="1.0" encoding="UTF-8" standalone="no"?>
<!DOCTYPE svg PUBLIC "-//W3C//DTD SVG 1.1//EN"
 "http://www.w3.org/Graphics/SVG/1.1/DTD/svg11.dtd">
<!-- Generated by graphviz version 2.38.0 (20140413.2041)
 -->
<!-- Title: GameObject Pages: 1 -->
<svg width="306pt" height="195pt"
 viewBox="0.00 0.00 305.50 195.00" xmlns="http://www.w3.org/2000/svg" xmlns:xlink="http://www.w3.org/1999/xlink">
<g id="graph0" class="graph" transform="scale(1 1) rotate(0) translate(4 191)">
<title>GameObject</title>
<polygon fill="white" stroke="none" points="-4,4 -4,-191 301.5,-191 301.5,4 -4,4"/>
<!-- Node4 -->
<g id="node1" class="node"><title>Node4</title>
<polygon fill="#bfbfbf" stroke="black" points="142.5,-0.5 142.5,-19.5 213.5,-19.5 213.5,-0.5 142.5,-0.5"/>
<text text-anchor="middle" x="178" y="-7.5" font-family="Helvetica,sans-Serif" font-size="10.00">GameObject</text>
</g>
<!-- Node5 -->
<g id="node2" class="node"><title>Node5</title>
<polygon fill="white" stroke="#bfbfbf" points="0,-67.5 0,-86.5 116,-86.5 116,-67.5 0,-67.5"/>
<text text-anchor="middle" x="58" y="-74.5" font-family="Helvetica,sans-Serif" font-size="10.00">vector&lt; Component *&gt;</text>
</g>
<!-- Node5&#45;&gt;Node4 -->
<g id="edge1" class="edge"><title>Node5&#45;&gt;Node4</title>
<path fill="none" stroke="#9a32cd" stroke-dasharray="5,2" d="M65.1763,-58.2893C68.9154,-51.0576 74.1574,-43.1909 81,-38 98.6867,-24.5825 122.697,-17.8327 142.405,-14.4372"/>
<polygon fill="#9a32cd" stroke="#9a32cd" points="61.9652,-56.8955 61,-67.4463 68.3341,-59.8002 61.9652,-56.8955"/>
<text text-anchor="middle" x="109.5" y="-41" font-family="Helvetica,sans-Serif" font-size="10.00"> components</text>
</g>
<!-- Node6 -->
<g id="node3" class="node"><title>Node6</title>
<g id="a_node3"><a xlink:href="classRect.html" target="_top" xlink:title="Classe que modela um rect. ">
<polygon fill="white" stroke="black" points="206,-67.5 206,-86.5 244,-86.5 244,-67.5 206,-67.5"/>
<text text-anchor="middle" x="225" y="-74.5" font-family="Helvetica,sans-Serif" font-size="10.00">Rect</text>
</a>
</g>
</g>
<!-- Node6&#45;&gt;Node4 -->
<g id="edge2" class="edge"><title>Node6&#45;&gt;Node4</title>
<path fill="none" stroke="#9a32cd" stroke-dasharray="5,2" d="M212.638,-58.9037C203.505,-46.2729 191.452,-29.6041 184.238,-19.6273"/>
<polygon fill="#9a32cd" stroke="#9a32cd" points="209.966,-61.1811 218.661,-67.2338 215.638,-57.0795 209.966,-61.1811"/>
<text text-anchor="middle" x="214.5" y="-41" font-family="Helvetica,sans-Serif" font-size="10.00"> box</text>
</g>
<!-- Node7 -->
<g id="node4" class="node"><title>Node7</title>
<polygon fill="white" stroke="#bfbfbf" points="160.5,-167.5 160.5,-186.5 195.5,-186.5 195.5,-167.5 160.5,-167.5"/>
<text text-anchor="middle" x="178" y="-174.5" font-family="Helvetica,sans-Serif" font-size="10.00">float</text>
</g>
<!-- Node7&#45;&gt;Node4 -->
<g id="edge4" class="edge"><title>Node7&#45;&gt;Node4</title>
<path fill="none" stroke="#9a32cd" stroke-dasharray="5,2" d="M171.742,-157.701C165.129,-136.056 156.261,-98.9272 161,-67 163.566,-49.7136 170.358,-30.3765 174.539,-19.5477"/>
<polygon fill="#9a32cd" stroke="#9a32cd" points="168.421,-158.806 174.825,-167.247 175.082,-156.655 168.421,-158.806"/>
<text text-anchor="middle" x="179" y="-74.5" font-family="Helvetica,sans-Serif" font-size="10.00"> rotation</text>
</g>
<!-- Node7&#45;&gt;Node6 -->
<g id="edge3" class="edge"><title>Node7&#45;&gt;Node6</title>
<path fill="none" stroke="#9a32cd" stroke-dasharray="5,2" d="M186.587,-158.095C196.758,-136.887 213.28,-102.436 220.906,-86.5374"/>
<polygon fill="#9a32cd" stroke="#9a32cd" points="183.339,-156.773 182.171,-167.303 189.651,-159.8 183.339,-156.773"/>
<text text-anchor="middle" x="217.5" y="-141" font-family="Helvetica,sans-Serif" font-size="10.00"> w</text>
<text text-anchor="middle" x="217.5" y="-130" font-family="Helvetica,sans-Serif" font-size="10.00">x</text>
<text text-anchor="middle" x="217.5" y="-119" font-family="Helvetica,sans-Serif" font-size="10.00">h</text>
<text text-anchor="middle" x="217.5" y="-108" font-family="Helvetica,sans-Serif" font-size="10.00">y</text>
</g>
<!-- Node8 -->
<g id="node5" class="node"><title>Node8</title>
<polygon fill="white" stroke="#bfbfbf" points="262.5,-67.5 262.5,-86.5 297.5,-86.5 297.5,-67.5 262.5,-67.5"/>
<text text-anchor="middle" x="280" y="-74.5" font-family="Helvetica,sans-Serif" font-size="10.00">bool</text>
</g>
<!-- Node8&#45;&gt;Node4 -->
<g id="edge5" class="edge"><title>Node8&#45;&gt;Node4</title>
<path fill="none" stroke="#9a32cd" stroke-dasharray="5,2" d="M261.036,-61.1824C251.367,-53.8774 239.293,-45.129 228,-38 217.489,-31.3645 205.212,-24.7201 195.454,-19.683"/>
<polygon fill="#9a32cd" stroke="#9a32cd" points="259.081,-64.0936 269.147,-67.3973 263.338,-58.5371 259.081,-64.0936"/>
<text text-anchor="middle" x="257.5" y="-41" font-family="Helvetica,sans-Serif" font-size="10.00"> dead</text>
</g>
</g>
</svg>
