<?xml version="1.0" encoding="UTF-8" standalone="no"?>
<!DOCTYPE svg PUBLIC "-//W3C//DTD SVG 1.1//EN"
 "http://www.w3.org/Graphics/SVG/1.1/DTD/svg11.dtd">
<!-- Generated by graphviz version 2.36.0 (20140111.2315)
 -->
<!-- Title: StateData Pages: 1 -->
<svg width="88pt" height="106pt"
 viewBox="0.00 0.00 88.00 106.00" xmlns="http://www.w3.org/2000/svg" xmlns:xlink="http://www.w3.org/1999/xlink">
<g id="graph0" class="graph" transform="scale(1 1) rotate(0) translate(4 102)">
<title>StateData</title>
<polygon fill="white" stroke="none" points="-4,4 -4,-102 84,-102 84,4 -4,4"/>
<!-- Node1 -->
<g id="node1" class="node"><title>Node1</title>
<polygon fill="#bfbfbf" stroke="black" points="-0.5,-0.5 -0.5,-19.5 60.5,-19.5 60.5,-0.5 -0.5,-0.5"/>
<text text-anchor="middle" x="30" y="-7.5" font-family="Helvetica,sans-Serif" font-size="10.00">StateData</text>
</g>
<!-- Node2 -->
<g id="node2" class="node"><title>Node2</title>
<polygon fill="white" stroke="#bfbfbf" points="15.5,-78.5 15.5,-97.5 44.5,-97.5 44.5,-78.5 15.5,-78.5"/>
<text text-anchor="middle" x="30" y="-85.5" font-family="Helvetica,sans-Serif" font-size="10.00">int</text>
</g>
<!-- Node2&#45;&gt;Node1 -->
<g id="edge1" class="edge"><title>Node2&#45;&gt;Node1</title>
<path fill="none" stroke="#9a32cd" stroke-dasharray="5,2" d="M30,-68.2239C30,-52.6974 30,-31.3582 30,-19.6165"/>
<polygon fill="#9a32cd" stroke="#9a32cd" points="26.5001,-68.2818 30,-78.2818 33.5001,-68.2819 26.5001,-68.2818"/>
<text text-anchor="middle" x="55" y="-52" font-family="Helvetica,sans-Serif" font-size="10.00"> lifes</text>
<text text-anchor="middle" x="55" y="-41" font-family="Helvetica,sans-Serif" font-size="10.00">waveCount</text>
</g>
</g>
</svg>
