<?xml version="1.0" encoding="UTF-8" standalone="no"?>
<!DOCTYPE svg PUBLIC "-//W3C//DTD SVG 1.1//EN"
 "http://www.w3.org/Graphics/SVG/1.1/DTD/svg11.dtd">
<!-- Generated by graphviz version 2.36.0 (20140111.2315)
 -->
<!-- Title: TileMap Pages: 1 -->
<svg width="670pt" height="400pt"
 viewBox="0.00 0.00 669.84 400.00" xmlns="http://www.w3.org/2000/svg" xmlns:xlink="http://www.w3.org/1999/xlink">
<g id="graph0" class="graph" transform="scale(1 1) rotate(0) translate(4 396)">
<title>TileMap</title>
<polygon fill="white" stroke="none" points="-4,4 -4,-396 665.836,-396 665.836,4 -4,4"/>
<!-- Node1 -->
<g id="node1" class="node"><title>Node1</title>
<polygon fill="#bfbfbf" stroke="black" points="109.336,-0.5 109.336,-19.5 160.336,-19.5 160.336,-0.5 109.336,-0.5"/>
<text text-anchor="middle" x="134.836" y="-7.5" font-family="Helvetica,sans-Serif" font-size="10.00">TileMap</text>
</g>
<!-- Node2 -->
<g id="node2" class="node"><title>Node2</title>
<g id="a_node2"><a xlink:href="classTileSet.html" target="_top" xlink:title="Classe responsável por modelar um tileset. ">
<polygon fill="white" stroke="black" points="33.3364,-68.5 33.3364,-87.5 80.3364,-87.5 80.3364,-68.5 33.3364,-68.5"/>
<text text-anchor="middle" x="56.8364" y="-75.5" font-family="Helvetica,sans-Serif" font-size="10.00">TileSet</text>
</a>
</g>
</g>
<!-- Node2&#45;&gt;Node1 -->
<g id="edge1" class="edge"><title>Node2&#45;&gt;Node1</title>
<path fill="none" stroke="#9a32cd" stroke-dasharray="5,2" d="M73.3519,-61.4569C81.2382,-54.1816 90.888,-45.4893 99.8364,-38 107.487,-31.5968 116.393,-24.7343 123.307,-19.5301"/>
<polygon fill="#9a32cd" stroke="#9a32cd" points="70.8107,-59.0406 65.8751,-68.4156 75.5798,-64.1647 70.8107,-59.0406"/>
<text text-anchor="middle" x="115.336" y="-41.5" font-family="Helvetica,sans-Serif" font-size="10.00"> tileSet</text>
</g>
<!-- Node3 -->
<g id="node3" class="node"><title>Node3</title>
<g id="a_node3"><a xlink:href="classSprite.html" target="_top" xlink:title="Classe que modela uma sprite. ">
<polygon fill="white" stroke="black" points="258.836,-170.5 258.836,-189.5 300.836,-189.5 300.836,-170.5 258.836,-170.5"/>
<text text-anchor="middle" x="279.836" y="-177.5" font-family="Helvetica,sans-Serif" font-size="10.00">Sprite</text>
</a>
</g>
</g>
<!-- Node3&#45;&gt;Node2 -->
<g id="edge2" class="edge"><title>Node3&#45;&gt;Node2</title>
<path fill="none" stroke="#9a32cd" stroke-dasharray="5,2" d="M251.688,-166.378C205.563,-145.694 115.093,-105.124 75.8012,-87.5044"/>
<polygon fill="#9a32cd" stroke="#9a32cd" points="250.267,-169.576 260.824,-170.474 253.131,-163.189 250.267,-169.576"/>
<text text-anchor="middle" x="204.336" y="-120.5" font-family="Helvetica,sans-Serif" font-size="10.00"> tileSet</text>
</g>
<!-- Node4 -->
<g id="node4" class="node"><title>Node4</title>
<polygon fill="white" stroke="#bfbfbf" points="532.336,-372.5 532.336,-391.5 609.336,-391.5 609.336,-372.5 532.336,-372.5"/>
<text text-anchor="middle" x="570.836" y="-379.5" font-family="Helvetica,sans-Serif" font-size="10.00">unsigned char</text>
</g>
<!-- Node4&#45;&gt;Node3 -->
<g id="edge3" class="edge"><title>Node4&#45;&gt;Node3</title>
<path fill="none" stroke="#9a32cd" stroke-dasharray="5,2" d="M566.315,-362.464C556.877,-328.084 531.616,-254.776 480.836,-220 451.655,-200.015 346.385,-187.534 300.953,-182.967"/>
<polygon fill="#9a32cd" stroke="#9a32cd" points="562.932,-363.363 568.835,-372.161 569.707,-361.602 562.932,-363.363"/>
<text text-anchor="middle" x="558.336" y="-289.5" font-family="Helvetica,sans-Serif" font-size="10.00"> alpha</text>
</g>
<!-- Node10 -->
<g id="node10" class="node"><title>Node10</title>
<g id="a_node10"><a xlink:href="structColor.html" target="_top" xlink:title="Struct para armazenar informações de cor. ">
<polygon fill="white" stroke="black" points="591.836,-282.5 591.836,-301.5 631.836,-301.5 631.836,-282.5 591.836,-282.5"/>
<text text-anchor="middle" x="611.836" y="-289.5" font-family="Helvetica,sans-Serif" font-size="10.00">Color</text>
</a>
</g>
</g>
<!-- Node4&#45;&gt;Node10 -->
<g id="edge10" class="edge"><title>Node4&#45;&gt;Node10</title>
<path fill="none" stroke="#9a32cd" stroke-dasharray="5,2" d="M579.211,-363.025C587.909,-344.357 601.152,-315.933 607.772,-301.724"/>
<polygon fill="#9a32cd" stroke="#9a32cd" points="575.968,-361.698 574.918,-372.241 582.313,-364.654 575.968,-361.698"/>
<text text-anchor="middle" x="602.336" y="-345.5" font-family="Helvetica,sans-Serif" font-size="10.00"> g</text>
<text text-anchor="middle" x="602.336" y="-334.5" font-family="Helvetica,sans-Serif" font-size="10.00">r</text>
<text text-anchor="middle" x="602.336" y="-323.5" font-family="Helvetica,sans-Serif" font-size="10.00">b</text>
</g>
<!-- Node5 -->
<g id="node5" class="node"><title>Node5</title>
<polygon fill="white" stroke="#bfbfbf" points="131.336,-282.5 131.336,-301.5 166.336,-301.5 166.336,-282.5 131.336,-282.5"/>
<text text-anchor="middle" x="148.836" y="-289.5" font-family="Helvetica,sans-Serif" font-size="10.00">float</text>
</g>
<!-- Node5&#45;&gt;Node3 -->
<g id="edge4" class="edge"><title>Node5&#45;&gt;Node3</title>
<path fill="none" stroke="#9a32cd" stroke-dasharray="5,2" d="M150.694,-272.147C153.203,-256.315 159.083,-234.082 172.836,-220 196.046,-196.237 234.874,-186.867 258.826,-183.233"/>
<polygon fill="#9a32cd" stroke="#9a32cd" points="147.188,-271.975 149.399,-282.337 154.132,-272.858 147.188,-271.975"/>
<text text-anchor="middle" x="200.336" y="-256" font-family="Helvetica,sans-Serif" font-size="10.00"> scaleY</text>
<text text-anchor="middle" x="200.336" y="-245" font-family="Helvetica,sans-Serif" font-size="10.00">frameTime</text>
<text text-anchor="middle" x="200.336" y="-234" font-family="Helvetica,sans-Serif" font-size="10.00">timeElapsed</text>
<text text-anchor="middle" x="200.336" y="-223" font-family="Helvetica,sans-Serif" font-size="10.00">scaleX</text>
</g>
<!-- Node6 -->
<g id="node6" class="node"><title>Node6</title>
<polygon fill="white" stroke="#bfbfbf" points="184.836,-282.5 184.836,-301.5 246.836,-301.5 246.836,-282.5 184.836,-282.5"/>
<text text-anchor="middle" x="215.836" y="-289.5" font-family="Helvetica,sans-Serif" font-size="10.00">SDL_Rect</text>
</g>
<!-- Node6&#45;&gt;Node3 -->
<g id="edge5" class="edge"><title>Node6&#45;&gt;Node3</title>
<path fill="none" stroke="#9a32cd" stroke-dasharray="5,2" d="M225.922,-273.431C234.194,-259.047 246.227,-238.179 256.836,-220 262.938,-209.545 270.022,-197.555 274.698,-189.661"/>
<polygon fill="#9a32cd" stroke="#9a32cd" points="222.808,-271.826 220.86,-282.241 228.877,-275.314 222.808,-271.826"/>
<text text-anchor="middle" x="276.836" y="-239.5" font-family="Helvetica,sans-Serif" font-size="10.00"> clipRect</text>
</g>
<!-- Node7 -->
<g id="node7" class="node"><title>Node7</title>
<polygon fill="white" stroke="#bfbfbf" points="42.3364,-282.5 42.3364,-301.5 71.3364,-301.5 71.3364,-282.5 42.3364,-282.5"/>
<text text-anchor="middle" x="56.8364" y="-289.5" font-family="Helvetica,sans-Serif" font-size="10.00">int</text>
</g>
<!-- Node7&#45;&gt;Node1 -->
<g id="edge14" class="edge"><title>Node7&#45;&gt;Node1</title>
<path fill="none" stroke="#9a32cd" stroke-dasharray="5,2" d="M45.4285,-273.371C25.6508,-240.606 -11.4884,-168.021 3.83643,-106 8.41454,-87.472 10.2733,-81.4271 23.8364,-68 48.1608,-43.9196 84.7419,-27.8509 109.185,-19.0773"/>
<polygon fill="#9a32cd" stroke="#9a32cd" points="42.6734,-275.567 50.9317,-282.205 48.6148,-271.866 42.6734,-275.567"/>
<text text-anchor="middle" x="28.3364" y="-131.5" font-family="Helvetica,sans-Serif" font-size="10.00"> mapDepth</text>
<text text-anchor="middle" x="28.3364" y="-120.5" font-family="Helvetica,sans-Serif" font-size="10.00">mapHeight</text>
<text text-anchor="middle" x="28.3364" y="-109.5" font-family="Helvetica,sans-Serif" font-size="10.00">mapWidth</text>
</g>
<!-- Node7&#45;&gt;Node2 -->
<g id="edge11" class="edge"><title>Node7&#45;&gt;Node2</title>
<path fill="none" stroke="#9a32cd" stroke-dasharray="5,2" d="M56.8364,-272.289C56.8364,-228.326 56.8364,-119.759 56.8364,-87.915"/>
<polygon fill="#9a32cd" stroke="#9a32cd" points="53.3365,-272.427 56.8364,-282.427 60.3365,-272.427 53.3365,-272.427"/>
<text text-anchor="middle" x="79.3364" y="-194" font-family="Helvetica,sans-Serif" font-size="10.00"> tileHeight</text>
<text text-anchor="middle" x="79.3364" y="-183" font-family="Helvetica,sans-Serif" font-size="10.00">rows</text>
<text text-anchor="middle" x="79.3364" y="-172" font-family="Helvetica,sans-Serif" font-size="10.00">tileWidth</text>
<text text-anchor="middle" x="79.3364" y="-161" font-family="Helvetica,sans-Serif" font-size="10.00">columns</text>
</g>
<!-- Node7&#45;&gt;Node3 -->
<g id="edge6" class="edge"><title>Node7&#45;&gt;Node3</title>
<path fill="none" stroke="#9a32cd" stroke-dasharray="5,2" d="M64.4314,-273.068C72.9895,-253.223 86.299,-223.55 90.8364,-220 116.895,-199.615 215.237,-187.471 258.821,-182.985"/>
<polygon fill="#9a32cd" stroke="#9a32cd" points="61.172,-271.789 60.4608,-282.36 67.6089,-274.54 61.172,-271.789"/>
<text text-anchor="middle" x="119.836" y="-256" font-family="Helvetica,sans-Serif" font-size="10.00"> width</text>
<text text-anchor="middle" x="119.836" y="-245" font-family="Helvetica,sans-Serif" font-size="10.00">currentFrame</text>
<text text-anchor="middle" x="119.836" y="-234" font-family="Helvetica,sans-Serif" font-size="10.00">height</text>
<text text-anchor="middle" x="119.836" y="-223" font-family="Helvetica,sans-Serif" font-size="10.00">frameCount</text>
</g>
<!-- Node8 -->
<g id="node8" class="node"><title>Node8</title>
<polygon fill="white" stroke="#bfbfbf" points="264.836,-282.5 264.836,-301.5 402.836,-301.5 402.836,-282.5 264.836,-282.5"/>
<text text-anchor="middle" x="333.836" y="-289.5" font-family="Helvetica,sans-Serif" font-size="10.00">shared_ptr&lt; SDL_Texture &gt;</text>
</g>
<!-- Node8&#45;&gt;Node3 -->
<g id="edge7" class="edge"><title>Node8&#45;&gt;Node3</title>
<path fill="none" stroke="#9a32cd" stroke-dasharray="5,2" d="M325.157,-273.32C313.4,-249.37 292.869,-207.548 284.054,-189.591"/>
<polygon fill="#9a32cd" stroke="#9a32cd" points="322.051,-274.934 329.599,-282.368 328.334,-271.849 322.051,-274.934"/>
<text text-anchor="middle" x="336.836" y="-239.5" font-family="Helvetica,sans-Serif" font-size="10.00"> texture</text>
</g>
<!-- Node9 -->
<g id="node9" class="node"><title>Node9</title>
<polygon fill="white" stroke="#bfbfbf" points="420.836,-282.5 420.836,-301.5 510.836,-301.5 510.836,-282.5 420.836,-282.5"/>
<text text-anchor="middle" x="465.836" y="-289.5" font-family="Helvetica,sans-Serif" font-size="10.00">SDL_BlendMode</text>
</g>
<!-- Node9&#45;&gt;Node3 -->
<g id="edge8" class="edge"><title>Node9&#45;&gt;Node3</title>
<path fill="none" stroke="#9a32cd" stroke-dasharray="5,2" d="M445.537,-276.616C424.163,-261.72 389.311,-238.13 357.836,-220 338.026,-208.589 314.449,-197.071 298.44,-189.542"/>
<polygon fill="#9a32cd" stroke="#9a32cd" points="443.626,-279.551 453.823,-282.427 447.645,-273.82 443.626,-279.551"/>
<text text-anchor="middle" x="451.336" y="-239.5" font-family="Helvetica,sans-Serif" font-size="10.00"> blendMode</text>
</g>
<!-- Node10&#45;&gt;Node3 -->
<g id="edge9" class="edge"><title>Node10&#45;&gt;Node3</title>
<path fill="none" stroke="#9a32cd" stroke-dasharray="5,2" d="M604.061,-272.99C595.861,-256.33 581.283,-232.337 560.836,-220 516.979,-193.537 358.886,-184.33 301.143,-181.808"/>
<polygon fill="#9a32cd" stroke="#9a32cd" points="600.966,-274.637 608.338,-282.246 607.321,-271.7 600.966,-274.637"/>
<text text-anchor="middle" x="629.836" y="-239.5" font-family="Helvetica,sans-Serif" font-size="10.00"> colorMultiplier</text>
</g>
<!-- Node11 -->
<g id="node11" class="node"><title>Node11</title>
<polygon fill="white" stroke="#bfbfbf" points="98.8364,-68.5 98.8364,-87.5 170.836,-87.5 170.836,-68.5 98.8364,-68.5"/>
<text text-anchor="middle" x="134.836" y="-75.5" font-family="Helvetica,sans-Serif" font-size="10.00">vector&lt; int &gt;</text>
</g>
<!-- Node11&#45;&gt;Node1 -->
<g id="edge12" class="edge"><title>Node11&#45;&gt;Node1</title>
<path fill="none" stroke="#9a32cd" stroke-dasharray="5,2" d="M134.836,-58.0413C134.836,-45.4724 134.836,-29.5631 134.836,-19.8411"/>
<polygon fill="#9a32cd" stroke="#9a32cd" points="131.337,-58.3716 134.836,-68.3717 138.337,-58.3717 131.337,-58.3716"/>
<text text-anchor="middle" x="156.336" y="-41.5" font-family="Helvetica,sans-Serif" font-size="10.00"> tileMatrix</text>
</g>
<!-- Node12 -->
<g id="node12" class="node"><title>Node12</title>
<polygon fill="white" stroke="#bfbfbf" points="189.336,-68.5 189.336,-87.5 312.336,-87.5 312.336,-68.5 189.336,-68.5"/>
<text text-anchor="middle" x="250.836" y="-75.5" font-family="Helvetica,sans-Serif" font-size="10.00">vector&lt; GameObject * &gt;</text>
</g>
<!-- Node12&#45;&gt;Node1 -->
<g id="edge13" class="edge"><title>Node12&#45;&gt;Node1</title>
<path fill="none" stroke="#9a32cd" stroke-dasharray="5,2" d="M226.828,-63.3401C203.74,-50.2036 169.546,-30.7487 150.005,-19.6305"/>
<polygon fill="#9a32cd" stroke="#9a32cd" points="225.249,-66.4684 235.671,-68.3717 228.711,-60.3843 225.249,-66.4684"/>
<text text-anchor="middle" x="245.336" y="-41.5" font-family="Helvetica,sans-Serif" font-size="10.00"> gameObjectMatrix</text>
</g>
<!-- Node13 -->
<g id="node13" class="node"><title>Node13</title>
<polygon fill="white" stroke="#bfbfbf" points="334.336,-68.5 334.336,-87.5 369.336,-87.5 369.336,-68.5 334.336,-68.5"/>
<text text-anchor="middle" x="351.836" y="-75.5" font-family="Helvetica,sans-Serif" font-size="10.00">bool</text>
</g>
<!-- Node13&#45;&gt;Node1 -->
<g id="edge15" class="edge"><title>Node13&#45;&gt;Node1</title>
<path fill="none" stroke="#9a32cd" stroke-dasharray="5,2" d="M333.306,-62.3854C321.727,-53.981 306.151,-43.942 290.836,-38 247.018,-20.9987 192.134,-14.6632 160.518,-12.3303"/>
<polygon fill="#9a32cd" stroke="#9a32cd" points="331.213,-65.1909 341.311,-68.3987 335.417,-59.5941 331.213,-65.1909"/>
<text text-anchor="middle" x="358.836" y="-41.5" font-family="Helvetica,sans-Serif" font-size="10.00"> displayCollisionInfo</text>
</g>
</g>
</svg>
