<?xml version="1.0" encoding="UTF-8" standalone="no"?>
<!DOCTYPE svg PUBLIC "-//W3C//DTD SVG 1.1//EN"
 "http://www.w3.org/Graphics/SVG/1.1/DTD/svg11.dtd">
<!-- Generated by graphviz version 2.38.0 (20140413.2041)
 -->
<!-- Title: StageState Pages: 1 -->
<svg width="918pt" height="580pt"
 viewBox="0.00 0.00 918.00 580.22" xmlns="http://www.w3.org/2000/svg" xmlns:xlink="http://www.w3.org/1999/xlink">
<g id="graph0" class="graph" transform="scale(1 1) rotate(0) translate(4 576.216)">
<title>StageState</title>
<polygon fill="white" stroke="none" points="-4,4 -4,-576.216 914,-576.216 914,4 -4,4"/>
<!-- Node2 -->
<g id="node1" class="node"><title>Node2</title>
<polygon fill="#bfbfbf" stroke="black" points="845,-364.716 845,-383.716 910,-383.716 910,-364.716 845,-364.716"/>
<text text-anchor="middle" x="877.5" y="-371.716" font-family="Helvetica,sans-Serif" font-size="10.00">StageState</text>
</g>
<!-- Node3 -->
<g id="node2" class="node"><title>Node3</title>
<g id="a_node2"><a xlink:href="classState.html" target="_top" xlink:title="Classe virtual que modela um estado do jogo. ">
<polygon fill="white" stroke="black" points="549,-345.716 549,-364.716 589,-364.716 589,-345.716 549,-345.716"/>
<text text-anchor="middle" x="569" y="-352.716" font-family="Helvetica,sans-Serif" font-size="10.00">State</text>
</a>
</g>
</g>
<!-- Node3&#45;&gt;Node2 -->
<g id="edge1" class="edge"><title>Node3&#45;&gt;Node2</title>
<path fill="none" stroke="midnightblue" d="M599.426,-357.04C657.153,-360.619 784.81,-368.532 844.528,-372.234"/>
<polygon fill="midnightblue" stroke="midnightblue" points="599.37,-353.53 589.173,-356.405 598.937,-360.517 599.37,-353.53"/>
</g>
<!-- Node4 -->
<g id="node3" class="node"><title>Node4</title>
<polygon fill="white" stroke="#bfbfbf" points="238.5,-334.216 238.5,-364.216 353.5,-364.216 353.5,-334.216 238.5,-334.216"/>
<text text-anchor="start" x="246.5" y="-352.216" font-family="Helvetica,sans-Serif" font-size="10.00">vector&lt; std::unique</text>
<text text-anchor="middle" x="296" y="-341.216" font-family="Helvetica,sans-Serif" font-size="10.00">_ptr&lt; GameObject &gt; &gt;</text>
</g>
<!-- Node4&#45;&gt;Node3 -->
<g id="edge2" class="edge"><title>Node4&#45;&gt;Node3</title>
<path fill="none" stroke="#9a32cd" stroke-dasharray="5,2" d="M364.123,-350.702C425.068,-352.052 511.025,-353.955 548.858,-354.792"/>
<polygon fill="#9a32cd" stroke="#9a32cd" points="363.886,-347.196 353.81,-350.474 363.731,-354.195 363.886,-347.196"/>
<text text-anchor="middle" x="432.5" y="-357.216" font-family="Helvetica,sans-Serif" font-size="10.00"> objectArray</text>
</g>
<!-- Node5 -->
<g id="node4" class="node"><title>Node5</title>
<polygon fill="white" stroke="#bfbfbf" points="278.5,-246.716 278.5,-265.716 313.5,-265.716 313.5,-246.716 278.5,-246.716"/>
<text text-anchor="middle" x="296" y="-253.716" font-family="Helvetica,sans-Serif" font-size="10.00">bool</text>
</g>
<!-- Node5&#45;&gt;Node3 -->
<g id="edge3" class="edge"><title>Node5&#45;&gt;Node3</title>
<path fill="none" stroke="#9a32cd" stroke-dasharray="5,2" d="M323.475,-260.196C335.449,-262.956 349.284,-267.568 360,-275.216 371.144,-283.17 366.594,-292.643 378,-300.216 419.407,-327.708 439.374,-311 487,-325.216 508.554,-331.65 532.659,-340.844 548.925,-347.355"/>
<polygon fill="#9a32cd" stroke="#9a32cd" points="324.048,-256.741 313.556,-258.217 322.678,-263.606 324.048,-256.741"/>
<text text-anchor="middle" x="432.5" y="-339.216" font-family="Helvetica,sans-Serif" font-size="10.00"> quitRequested</text>
<text text-anchor="middle" x="432.5" y="-328.216" font-family="Helvetica,sans-Serif" font-size="10.00">popRequested</text>
</g>
<!-- Node16 -->
<g id="node15" class="node"><title>Node16</title>
<g id="a_node15"><a xlink:href="classInputManager.html" target="_top" xlink:title="Classe que organiza entradas do usuário. ">
<polygon fill="white" stroke="black" points="531,-205.716 531,-224.716 607,-224.716 607,-205.716 531,-205.716"/>
<text text-anchor="middle" x="569" y="-212.716" font-family="Helvetica,sans-Serif" font-size="10.00">InputManager</text>
</a>
</g>
</g>
<!-- Node5&#45;&gt;Node16 -->
<g id="edge22" class="edge"><title>Node5&#45;&gt;Node16</title>
<path fill="none" stroke="#9a32cd" stroke-dasharray="5,2" d="M323.119,-247.489C338.85,-242.564 359.378,-236.712 378,-233.216 430.592,-223.344 492.445,-218.764 530.943,-216.728"/>
<polygon fill="#9a32cd" stroke="#9a32cd" points="321.997,-244.174 313.542,-250.559 324.134,-250.84 321.997,-244.174"/>
<text text-anchor="middle" x="432.5" y="-247.216" font-family="Helvetica,sans-Serif" font-size="10.00"> quitRequested</text>
<text text-anchor="middle" x="432.5" y="-236.216" font-family="Helvetica,sans-Serif" font-size="10.00">mouseState</text>
</g>
<!-- Node6 -->
<g id="node5" class="node"><title>Node6</title>
<g id="a_node5"><a xlink:href="classMusic.html" target="_top" xlink:title="Classe que modela músicas. ">
<polygon fill="white" stroke="black" points="721.5,-191.716 721.5,-210.716 764.5,-210.716 764.5,-191.716 721.5,-191.716"/>
<text text-anchor="middle" x="743" y="-198.716" font-family="Helvetica,sans-Serif" font-size="10.00">Music</text>
</a>
</g>
</g>
<!-- Node6&#45;&gt;Node2 -->
<g id="edge4" class="edge"><title>Node6&#45;&gt;Node2</title>
<path fill="none" stroke="#9a32cd" stroke-dasharray="5,2" d="M768.672,-216.651C786.668,-228.887 810.667,-247.356 827,-268.216 851.541,-299.56 867.52,-345.044 873.662,-364.643"/>
<polygon fill="#9a32cd" stroke="#9a32cd" points="770.153,-213.435 759.881,-210.841 766.294,-219.274 770.153,-213.435"/>
<text text-anchor="middle" x="809.5" y="-271.216" font-family="Helvetica,sans-Serif" font-size="10.00"> music</text>
</g>
<!-- Node7 -->
<g id="node6" class="node"><title>Node7</title>
<polygon fill="white" stroke="#bfbfbf" points="505,-167.716 505,-186.716 633,-186.716 633,-167.716 505,-167.716"/>
<text text-anchor="middle" x="569" y="-174.716" font-family="Helvetica,sans-Serif" font-size="10.00">shared_ptr&lt; Mix_Music &gt;</text>
</g>
<!-- Node7&#45;&gt;Node6 -->
<g id="edge5" class="edge"><title>Node7&#45;&gt;Node6</title>
<path fill="none" stroke="#9a32cd" stroke-dasharray="5,2" d="M643.021,-187.405C671.443,-191.371 701.801,-195.607 721.29,-198.327"/>
<polygon fill="#9a32cd" stroke="#9a32cd" points="643.458,-183.932 633.07,-186.017 642.49,-190.865 643.458,-183.932"/>
<text text-anchor="middle" x="672.5" y="-197.216" font-family="Helvetica,sans-Serif" font-size="10.00"> music</text>
</g>
<!-- Node8 -->
<g id="node7" class="node"><title>Node8</title>
<g id="a_node7"><a xlink:href="classSprite.html" target="_top" xlink:title="Classe que modela uma sprite. ">
<polygon fill="white" stroke="black" points="275,-383.716 275,-402.716 317,-402.716 317,-383.716 275,-383.716"/>
<text text-anchor="middle" x="296" y="-390.716" font-family="Helvetica,sans-Serif" font-size="10.00">Sprite</text>
</a>
</g>
</g>
<!-- Node8&#45;&gt;Node2 -->
<g id="edge6" class="edge"><title>Node8&#45;&gt;Node2</title>
<path fill="none" stroke="#9a32cd" stroke-dasharray="5,2" d="M327.249,-393.203C408.304,-392.997 637.108,-391.298 827,-379.216 832.775,-378.849 838.918,-378.331 844.841,-377.767"/>
<polygon fill="#9a32cd" stroke="#9a32cd" points="327.235,-389.703 317.242,-393.222 327.249,-396.703 327.235,-389.703"/>
<text text-anchor="middle" x="672.5" y="-391.216" font-family="Helvetica,sans-Serif" font-size="10.00"> bg</text>
</g>
<!-- Node13 -->
<g id="node12" class="node"><title>Node13</title>
<g id="a_node12"><a xlink:href="classTileSet.html" target="_top" xlink:title="Classe responsável por modelar um tileset. ">
<polygon fill="white" stroke="black" points="545.5,-438.716 545.5,-457.716 592.5,-457.716 592.5,-438.716 545.5,-438.716"/>
<text text-anchor="middle" x="569" y="-445.716" font-family="Helvetica,sans-Serif" font-size="10.00">TileSet</text>
</a>
</g>
</g>
<!-- Node8&#45;&gt;Node13 -->
<g id="edge12" class="edge"><title>Node8&#45;&gt;Node13</title>
<path fill="none" stroke="#9a32cd" stroke-dasharray="5,2" d="M327.344,-397.91C364.968,-403.9 430.986,-414.962 487,-427.216 506.869,-431.563 529.231,-437.436 545.417,-441.866"/>
<polygon fill="#9a32cd" stroke="#9a32cd" points="327.492,-394.391 317.069,-396.289 326.401,-401.305 327.492,-394.391"/>
<text text-anchor="middle" x="432.5" y="-430.216" font-family="Helvetica,sans-Serif" font-size="10.00"> tileSet</text>
</g>
<!-- Node9 -->
<g id="node8" class="node"><title>Node9</title>
<polygon fill="white" stroke="#bfbfbf" points="51.5,-125.716 51.5,-144.716 86.5,-144.716 86.5,-125.716 51.5,-125.716"/>
<text text-anchor="middle" x="69" y="-132.716" font-family="Helvetica,sans-Serif" font-size="10.00">float</text>
</g>
<!-- Node9&#45;&gt;Node8 -->
<g id="edge7" class="edge"><title>Node9&#45;&gt;Node8</title>
<path fill="none" stroke="#9a32cd" stroke-dasharray="5,2" d="M92.0443,-151.255C124.274,-175.97 183.707,-226.585 214,-284.216 232.777,-319.938 205.043,-343.184 232,-373.216 242.808,-385.258 260.822,-390.102 274.825,-392.024"/>
<polygon fill="#9a32cd" stroke="#9a32cd" points="93.8155,-148.207 83.722,-144.986 89.604,-153.798 93.8155,-148.207"/>
<text text-anchor="middle" x="185" y="-320.216" font-family="Helvetica,sans-Serif" font-size="10.00"> scaleY</text>
<text text-anchor="middle" x="185" y="-309.216" font-family="Helvetica,sans-Serif" font-size="10.00">frameTime</text>
<text text-anchor="middle" x="185" y="-298.216" font-family="Helvetica,sans-Serif" font-size="10.00">timeElapsed</text>
<text text-anchor="middle" x="185" y="-287.216" font-family="Helvetica,sans-Serif" font-size="10.00">scaleX</text>
</g>
<!-- Node17 -->
<g id="node16" class="node"><title>Node17</title>
<g id="a_node16"><a xlink:href="classVec2.html" target="_top" xlink:title="Classe que modela um vetor(no sentido físico) ">
<polygon fill="white" stroke="black" points="276.5,-55.7163 276.5,-74.7163 315.5,-74.7163 315.5,-55.7163 276.5,-55.7163"/>
<text text-anchor="middle" x="296" y="-62.7163" font-family="Helvetica,sans-Serif" font-size="10.00">Vec2</text>
</a>
</g>
</g>
<!-- Node9&#45;&gt;Node17 -->
<g id="edge20" class="edge"><title>Node9&#45;&gt;Node17</title>
<path fill="none" stroke="#9a32cd" stroke-dasharray="5,2" d="M87.7894,-118.815C104.172,-104.799 129.836,-85.4754 156,-76.2163 197.077,-61.6796 249.109,-62.1469 276.383,-63.7056"/>
<polygon fill="#9a32cd" stroke="#9a32cd" points="85.3025,-116.341 80.1147,-125.579 89.931,-121.592 85.3025,-116.341"/>
<text text-anchor="middle" x="185" y="-90.2163" font-family="Helvetica,sans-Serif" font-size="10.00"> x</text>
<text text-anchor="middle" x="185" y="-79.2163" font-family="Helvetica,sans-Serif" font-size="10.00">y</text>
</g>
<!-- Node10 -->
<g id="node9" class="node"><title>Node10</title>
<polygon fill="white" stroke="#bfbfbf" points="38,-349.716 38,-368.716 100,-368.716 100,-349.716 38,-349.716"/>
<text text-anchor="middle" x="69" y="-356.716" font-family="Helvetica,sans-Serif" font-size="10.00">SDL_Rect</text>
</g>
<!-- Node10&#45;&gt;Node8 -->
<g id="edge8" class="edge"><title>Node10&#45;&gt;Node8</title>
<path fill="none" stroke="#9a32cd" stroke-dasharray="5,2" d="M110.337,-362.523C139.296,-365.183 179.193,-369.433 214,-375.216 234.89,-378.687 258.497,-384.107 274.813,-388.093"/>
<polygon fill="#9a32cd" stroke="#9a32cd" points="110.465,-359.021 100.193,-361.615 109.841,-365.993 110.465,-359.021"/>
<text text-anchor="middle" x="185" y="-378.216" font-family="Helvetica,sans-Serif" font-size="10.00"> clipRect</text>
</g>
<!-- Node11 -->
<g id="node10" class="node"><title>Node11</title>
<polygon fill="white" stroke="#bfbfbf" points="54.5,-414.716 54.5,-433.716 83.5,-433.716 83.5,-414.716 54.5,-414.716"/>
<text text-anchor="middle" x="69" y="-421.716" font-family="Helvetica,sans-Serif" font-size="10.00">int</text>
</g>
<!-- Node11&#45;&gt;Node8 -->
<g id="edge9" class="edge"><title>Node11&#45;&gt;Node8</title>
<path fill="none" stroke="#9a32cd" stroke-dasharray="5,2" d="M93.2508,-413.763C110.247,-406.707 134.065,-398.014 156,-394.216 197.613,-387.012 247.288,-389.19 274.557,-391.29"/>
<polygon fill="#9a32cd" stroke="#9a32cd" points="91.4409,-410.731 83.6277,-417.887 94.1979,-417.165 91.4409,-410.731"/>
<text text-anchor="middle" x="185" y="-430.216" font-family="Helvetica,sans-Serif" font-size="10.00"> width</text>
<text text-anchor="middle" x="185" y="-419.216" font-family="Helvetica,sans-Serif" font-size="10.00">currentFrame</text>
<text text-anchor="middle" x="185" y="-408.216" font-family="Helvetica,sans-Serif" font-size="10.00">height</text>
<text text-anchor="middle" x="185" y="-397.216" font-family="Helvetica,sans-Serif" font-size="10.00">frameCount</text>
</g>
<!-- Node11&#45;&gt;Node13 -->
<g id="edge13" class="edge"><title>Node11&#45;&gt;Node13</title>
<path fill="none" stroke="#9a32cd" stroke-dasharray="5,2" d="M93.8815,-429.007C111.077,-432.235 134.872,-436.25 156,-438.216 303.825,-451.977 482.69,-450 545.157,-448.757"/>
<polygon fill="#9a32cd" stroke="#9a32cd" points="94.1107,-425.487 83.6288,-427.029 92.7846,-432.36 94.1107,-425.487"/>
<text text-anchor="middle" x="296" y="-485.216" font-family="Helvetica,sans-Serif" font-size="10.00"> tileHeight</text>
<text text-anchor="middle" x="296" y="-474.216" font-family="Helvetica,sans-Serif" font-size="10.00">rows</text>
<text text-anchor="middle" x="296" y="-463.216" font-family="Helvetica,sans-Serif" font-size="10.00">tileWidth</text>
<text text-anchor="middle" x="296" y="-452.216" font-family="Helvetica,sans-Serif" font-size="10.00">columns</text>
</g>
<!-- Node14 -->
<g id="node13" class="node"><title>Node14</title>
<g id="a_node13"><a xlink:href="classTileMap.html" target="_top" xlink:title="Classe que modela o TileMap. ">
<polygon fill="white" stroke="black" points="717.5,-481.716 717.5,-500.716 768.5,-500.716 768.5,-481.716 717.5,-481.716"/>
<text text-anchor="middle" x="743" y="-488.716" font-family="Helvetica,sans-Serif" font-size="10.00">TileMap</text>
</a>
</g>
</g>
<!-- Node11&#45;&gt;Node14 -->
<g id="edge17" class="edge"><title>Node11&#45;&gt;Node14</title>
<path fill="none" stroke="#9a32cd" stroke-dasharray="5,2" d="M92.5114,-438.093C122.862,-455.907 179.203,-485.87 232,-497.216 414.882,-536.518 643.22,-506.871 717.461,-495.305"/>
<polygon fill="#9a32cd" stroke="#9a32cd" points="93.9879,-434.898 83.6079,-432.775 90.3984,-440.908 93.9879,-434.898"/>
<text text-anchor="middle" x="432.5" y="-542.216" font-family="Helvetica,sans-Serif" font-size="10.00"> mapDepth</text>
<text text-anchor="middle" x="432.5" y="-531.216" font-family="Helvetica,sans-Serif" font-size="10.00">mapHeight</text>
<text text-anchor="middle" x="432.5" y="-520.216" font-family="Helvetica,sans-Serif" font-size="10.00">mapWidth</text>
</g>
<!-- Node11&#45;&gt;Node16 -->
<g id="edge21" class="edge"><title>Node11&#45;&gt;Node16</title>
<path fill="none" stroke="#9a32cd" stroke-dasharray="5,2" d="M93.0994,-414.898C108.524,-407.393 127.788,-395.269 138,-378.216 177.943,-311.515 124.139,-275.134 156,-204.216 176.497,-158.592 186.222,-141.369 232,-121.216 347.163,-70.5182 388.388,-148.945 505,-196.216 513.682,-199.736 523.265,-202.95 532.283,-205.693"/>
<polygon fill="#9a32cd" stroke="#9a32cd" points="91.3225,-411.86 83.6516,-419.168 94.2056,-418.239 91.3225,-411.86"/>
<text text-anchor="middle" x="296" y="-179.216" font-family="Helvetica,sans-Serif" font-size="10.00"> mouseX</text>
<text text-anchor="middle" x="296" y="-168.216" font-family="Helvetica,sans-Serif" font-size="10.00">mouseY</text>
<text text-anchor="middle" x="296" y="-157.216" font-family="Helvetica,sans-Serif" font-size="10.00">controllerStickUpdate</text>
<text text-anchor="middle" x="296" y="-146.216" font-family="Helvetica,sans-Serif" font-size="10.00">mouseScroolUpdate</text>
<text text-anchor="middle" x="296" y="-135.216" font-family="Helvetica,sans-Serif" font-size="10.00">updateCounter</text>
<text text-anchor="middle" x="296" y="-124.216" font-family="Helvetica,sans-Serif" font-size="10.00">mouseUpdate</text>
</g>
<!-- Node12 -->
<g id="node11" class="node"><title>Node12</title>
<polygon fill="white" stroke="#bfbfbf" points="0,-311.716 0,-330.716 138,-330.716 138,-311.716 0,-311.716"/>
<text text-anchor="middle" x="69" y="-318.716" font-family="Helvetica,sans-Serif" font-size="10.00">shared_ptr&lt; SDL_Texture &gt;</text>
</g>
<!-- Node12&#45;&gt;Node8 -->
<g id="edge10" class="edge"><title>Node12&#45;&gt;Node8</title>
<path fill="none" stroke="#9a32cd" stroke-dasharray="5,2" d="M147.893,-329.451C170.303,-334.167 194.059,-341.577 214,-353.216 224.328,-359.245 221.949,-366.736 232,-373.216 245.02,-381.611 261.828,-386.714 274.808,-389.662"/>
<polygon fill="#9a32cd" stroke="#9a32cd" points="148.534,-326.01 138.049,-327.53 147.193,-332.881 148.534,-326.01"/>
<text text-anchor="middle" x="185" y="-356.216" font-family="Helvetica,sans-Serif" font-size="10.00"> texture</text>
</g>
<!-- Node13&#45;&gt;Node2 -->
<g id="edge11" class="edge"><title>Node13&#45;&gt;Node2</title>
<path fill="none" stroke="#9a32cd" stroke-dasharray="5,2" d="M603.085,-447.421C653.188,-445.238 750.565,-437.136 827,-407.216 841.234,-401.644 855.555,-391.486 865.104,-383.906"/>
<polygon fill="#9a32cd" stroke="#9a32cd" points="602.706,-443.933 592.847,-447.812 602.973,-450.928 602.706,-443.933"/>
<text text-anchor="middle" x="743" y="-440.216" font-family="Helvetica,sans-Serif" font-size="10.00"> tileSet</text>
</g>
<!-- Node13&#45;&gt;Node14 -->
<g id="edge15" class="edge"><title>Node13&#45;&gt;Node14</title>
<path fill="none" stroke="#9a32cd" stroke-dasharray="5,2" d="M602.596,-456.365C636.012,-464.719 687.231,-477.524 717.395,-485.065"/>
<polygon fill="#9a32cd" stroke="#9a32cd" points="603.391,-452.956 592.84,-453.926 601.693,-459.747 603.391,-452.956"/>
<text text-anchor="middle" x="672.5" y="-482.216" font-family="Helvetica,sans-Serif" font-size="10.00"> tileSet</text>
</g>
<!-- Node14&#45;&gt;Node2 -->
<g id="edge14" class="edge"><title>Node14&#45;&gt;Node2</title>
<path fill="none" stroke="#9a32cd" stroke-dasharray="5,2" d="M778.356,-482.14C794.451,-476.614 813.094,-468.25 827,-456.216 850.765,-435.65 866.42,-400.756 872.986,-383.9"/>
<polygon fill="#9a32cd" stroke="#9a32cd" points="777.186,-478.839 768.729,-485.221 779.32,-485.506 777.186,-478.839"/>
<text text-anchor="middle" x="809.5" y="-480.216" font-family="Helvetica,sans-Serif" font-size="10.00"> tileMap</text>
</g>
<!-- Node15 -->
<g id="node14" class="node"><title>Node15</title>
<polygon fill="white" stroke="#bfbfbf" points="533,-552.716 533,-571.716 605,-571.716 605,-552.716 533,-552.716"/>
<text text-anchor="middle" x="569" y="-559.716" font-family="Helvetica,sans-Serif" font-size="10.00">vector&lt; int &gt;</text>
</g>
<!-- Node15&#45;&gt;Node14 -->
<g id="edge16" class="edge"><title>Node15&#45;&gt;Node14</title>
<path fill="none" stroke="#9a32cd" stroke-dasharray="5,2" d="M615.295,-559.774C639.745,-556.937 669.787,-550.915 694,-538.216 711.352,-529.116 726.601,-511.718 735.035,-500.833"/>
<polygon fill="#9a32cd" stroke="#9a32cd" points="614.785,-556.308 605.192,-560.805 615.496,-563.272 614.785,-556.308"/>
<text text-anchor="middle" x="672.5" y="-557.216" font-family="Helvetica,sans-Serif" font-size="10.00"> tileMatrix</text>
</g>
<!-- Node16&#45;&gt;Node2 -->
<g id="edge18" class="edge"><title>Node16&#45;&gt;Node2</title>
<path fill="none" stroke="#9a32cd" stroke-dasharray="5,2" d="M597.853,-229.665C659.532,-261.662 806.269,-337.783 858.033,-364.637"/>
<polygon fill="#9a32cd" stroke="#9a32cd" points="599.2,-226.421 588.712,-224.923 595.977,-232.635 599.2,-226.421"/>
<text text-anchor="middle" x="743" y="-324.216" font-family="Helvetica,sans-Serif" font-size="10.00"> inputManager</text>
</g>
<!-- Node17&#45;&gt;Node16 -->
<g id="edge19" class="edge"><title>Node17&#45;&gt;Node16</title>
<path fill="none" stroke="#9a32cd" stroke-dasharray="5,2" d="M325.958,-60.9605C373.171,-54.7235 463.805,-45.9037 487,-66.2163 530.881,-104.644 467.079,-151.896 505,-196.216 511.61,-203.942 521.238,-208.592 530.988,-211.372"/>
<polygon fill="#9a32cd" stroke="#9a32cd" points="325.2,-57.5315 315.768,-62.356 326.15,-64.4668 325.2,-57.5315"/>
<text text-anchor="middle" x="432.5" y="-91.2163" font-family="Helvetica,sans-Serif" font-size="10.00"> controllerLeftStickState</text>
<text text-anchor="middle" x="432.5" y="-80.2163" font-family="Helvetica,sans-Serif" font-size="10.00">controllerRightStickState</text>
<text text-anchor="middle" x="432.5" y="-69.2163" font-family="Helvetica,sans-Serif" font-size="10.00">mouseScroolState</text>
</g>
<!-- Node18 -->
<g id="node17" class="node"><title>Node18</title>
<polygon fill="white" stroke="#bfbfbf" points="243,-285.216 243,-315.216 349,-315.216 349,-285.216 243,-285.216"/>
<text text-anchor="start" x="251" y="-303.216" font-family="Helvetica,sans-Serif" font-size="10.00">unordered_map&lt; int,</text>
<text text-anchor="middle" x="296" y="-292.216" font-family="Helvetica,sans-Serif" font-size="10.00"> int &gt;</text>
</g>
<!-- Node18&#45;&gt;Node16 -->
<g id="edge23" class="edge"><title>Node18&#45;&gt;Node16</title>
<path fill="none" stroke="#9a32cd" stroke-dasharray="5,2" d="M359.123,-282.956C365.486,-281.304 371.864,-279.696 378,-278.216 426.132,-266.612 440.214,-271.416 487,-255.216 510.416,-247.108 535.783,-233.772 551.772,-224.749"/>
<polygon fill="#9a32cd" stroke="#9a32cd" points="357.954,-279.644 349.174,-285.574 359.736,-286.414 357.954,-279.644"/>
<text text-anchor="middle" x="432.5" y="-292.216" font-family="Helvetica,sans-Serif" font-size="10.00"> controllerUpdate</text>
<text text-anchor="middle" x="432.5" y="-281.216" font-family="Helvetica,sans-Serif" font-size="10.00">keyUpdate</text>
</g>
<!-- Node19 -->
<g id="node18" class="node"><title>Node19</title>
<polygon fill="white" stroke="#bfbfbf" points="243,-5.21631 243,-35.2163 349,-35.2163 349,-5.21631 243,-5.21631"/>
<text text-anchor="start" x="251" y="-23.2163" font-family="Helvetica,sans-Serif" font-size="10.00">unordered_map&lt; int,</text>
<text text-anchor="middle" x="296" y="-12.2163" font-family="Helvetica,sans-Serif" font-size="10.00"> bool &gt;</text>
</g>
<!-- Node19&#45;&gt;Node16 -->
<g id="edge24" class="edge"><title>Node19&#45;&gt;Node16</title>
<path fill="none" stroke="#9a32cd" stroke-dasharray="5,2" d="M359.186,-3.97265C400.706,2.83116 453.621,3.07181 487,-28.2163 514.394,-53.894 481.033,-167.314 505,-196.216 511.49,-204.043 521.082,-208.724 530.835,-211.501"/>
<polygon fill="#9a32cd" stroke="#9a32cd" points="358.387,-0.560013 349.165,-5.77548 359.627,-7.4494 358.387,-0.560013"/>
<text text-anchor="middle" x="432.5" y="-42.2163" font-family="Helvetica,sans-Serif" font-size="10.00"> keyState</text>
<text text-anchor="middle" x="432.5" y="-31.2163" font-family="Helvetica,sans-Serif" font-size="10.00">controllerState</text>
</g>
<!-- Node20 -->
<g id="node19" class="node"><title>Node20</title>
<polygon fill="white" stroke="#bfbfbf" points="232,-197.216 232,-227.216 360,-227.216 360,-197.216 232,-197.216"/>
<text text-anchor="start" x="240" y="-215.216" font-family="Helvetica,sans-Serif" font-size="10.00">unordered_map&lt; int,</text>
<text text-anchor="middle" x="296" y="-204.216" font-family="Helvetica,sans-Serif" font-size="10.00"> SDL_GameController * &gt;</text>
</g>
<!-- Node20&#45;&gt;Node16 -->
<g id="edge25" class="edge"><title>Node20&#45;&gt;Node16</title>
<path fill="none" stroke="#9a32cd" stroke-dasharray="5,2" d="M370.256,-199.926C372.866,-199.658 375.453,-199.419 378,-199.216 426.291,-195.366 438.786,-194.5 487,-199.216 501.409,-200.626 517.056,-203.414 530.722,-206.273"/>
<polygon fill="#9a32cd" stroke="#9a32cd" points="369.65,-196.472 360.115,-201.092 370.45,-203.426 369.65,-196.472"/>
<text text-anchor="middle" x="432.5" y="-202.216" font-family="Helvetica,sans-Serif" font-size="10.00"> padToController</text>
</g>
</g>
</svg>
