<?xml version="1.0" encoding="UTF-8" standalone="no"?>
<!DOCTYPE svg PUBLIC "-//W3C//DTD SVG 1.1//EN"
 "http://www.w3.org/Graphics/SVG/1.1/DTD/svg11.dtd">
<!-- Generated by graphviz version 2.38.0 (20140413.2041)
 -->
<!-- Title: TileMap Pages: 1 -->
<svg width="646pt" height="319pt"
 viewBox="0.00 0.00 646.00 319.00" xmlns="http://www.w3.org/2000/svg" xmlns:xlink="http://www.w3.org/1999/xlink">
<g id="graph0" class="graph" transform="scale(1 1) rotate(0) translate(4 315)">
<title>TileMap</title>
<polygon fill="white" stroke="none" points="-4,4 -4,-315 642,-315 642,4 -4,4"/>
<!-- Node1 -->
<g id="node1" class="node"><title>Node1</title>
<polygon fill="#bfbfbf" stroke="black" points="403,-0.5 403,-19.5 454,-19.5 454,-0.5 403,-0.5"/>
<text text-anchor="middle" x="428.5" y="-7.5" font-family="Helvetica,sans-Serif" font-size="10.00">TileMap</text>
</g>
<!-- Node2 -->
<g id="node2" class="node"><title>Node2</title>
<g id="a_node2"><a xlink:href="classTileSet.html" target="_top" xlink:title="Classe responsável por modelar um tileset. ">
<polygon fill="white" stroke="black" points="300,-78.5 300,-97.5 347,-97.5 347,-78.5 300,-78.5"/>
<text text-anchor="middle" x="323.5" y="-85.5" font-family="Helvetica,sans-Serif" font-size="10.00">TileSet</text>
</a>
</g>
</g>
<!-- Node2&#45;&gt;Node1 -->
<g id="edge1" class="edge"><title>Node2&#45;&gt;Node1</title>
<path fill="none" stroke="#9a32cd" stroke-dasharray="5,2" d="M330.006,-69.1173C334.591,-58.7561 341.675,-46.1827 351.5,-38 366.086,-25.8519 386.5,-19.0237 402.643,-15.2745"/>
<polygon fill="#9a32cd" stroke="#9a32cd" points="326.719,-67.9124 326.246,-78.4967 333.216,-70.5173 326.719,-67.9124"/>
<text text-anchor="middle" x="367" y="-46.5" font-family="Helvetica,sans-Serif" font-size="10.00"> tileSet</text>
</g>
<!-- Node3 -->
<g id="node3" class="node"><title>Node3</title>
<g id="a_node3"><a xlink:href="classSprite.html" target="_top" xlink:title="Classe que modela uma sprite. ">
<polygon fill="white" stroke="black" points="172.5,-179.5 172.5,-198.5 214.5,-198.5 214.5,-179.5 172.5,-179.5"/>
<text text-anchor="middle" x="193.5" y="-186.5" font-family="Helvetica,sans-Serif" font-size="10.00">Sprite</text>
</a>
</g>
</g>
<!-- Node3&#45;&gt;Node2 -->
<g id="edge2" class="edge"><title>Node3&#45;&gt;Node2</title>
<path fill="none" stroke="#9a32cd" stroke-dasharray="5,2" d="M210.288,-172.36C226.972,-157.165 253.598,-133.838 278.5,-116 287.832,-109.315 298.879,-102.67 307.692,-97.6447"/>
<polygon fill="#9a32cd" stroke="#9a32cd" points="207.523,-170.148 202.531,-179.493 212.261,-175.3 207.523,-170.148"/>
<text text-anchor="middle" x="294" y="-130" font-family="Helvetica,sans-Serif" font-size="10.00"> tileSet</text>
</g>
<!-- Node4 -->
<g id="node4" class="node"><title>Node4</title>
<polygon fill="white" stroke="#bfbfbf" points="0,-291.5 0,-310.5 35,-310.5 35,-291.5 0,-291.5"/>
<text text-anchor="middle" x="17.5" y="-298.5" font-family="Helvetica,sans-Serif" font-size="10.00">float</text>
</g>
<!-- Node4&#45;&gt;Node3 -->
<g id="edge3" class="edge"><title>Node4&#45;&gt;Node3</title>
<path fill="none" stroke="#9a32cd" stroke-dasharray="5,2" d="M21.8135,-281.201C26.4735,-265.076 35.481,-242.387 51.5,-229 86.7135,-199.573 142.359,-192.239 172.471,-190.483"/>
<polygon fill="#9a32cd" stroke="#9a32cd" points="18.3635,-280.562 19.2491,-291.12 25.1407,-282.315 18.3635,-280.562"/>
<text text-anchor="middle" x="79" y="-265" font-family="Helvetica,sans-Serif" font-size="10.00"> scaleY</text>
<text text-anchor="middle" x="79" y="-254" font-family="Helvetica,sans-Serif" font-size="10.00">frameTime</text>
<text text-anchor="middle" x="79" y="-243" font-family="Helvetica,sans-Serif" font-size="10.00">timeElapsed</text>
<text text-anchor="middle" x="79" y="-232" font-family="Helvetica,sans-Serif" font-size="10.00">scaleX</text>
</g>
<!-- Node5 -->
<g id="node5" class="node"><title>Node5</title>
<polygon fill="white" stroke="#bfbfbf" points="58.5,-291.5 58.5,-310.5 120.5,-310.5 120.5,-291.5 58.5,-291.5"/>
<text text-anchor="middle" x="89.5" y="-298.5" font-family="Helvetica,sans-Serif" font-size="10.00">SDL_Rect</text>
</g>
<!-- Node5&#45;&gt;Node3 -->
<g id="edge4" class="edge"><title>Node5&#45;&gt;Node3</title>
<path fill="none" stroke="#9a32cd" stroke-dasharray="5,2" d="M101.654,-282.957C112.63,-268.053 129.607,-246.169 146.5,-229 157.655,-217.663 171.874,-206.222 181.736,-198.691"/>
<polygon fill="#9a32cd" stroke="#9a32cd" points="98.6905,-281.081 95.6493,-291.23 104.356,-285.193 98.6905,-281.081"/>
<text text-anchor="middle" x="166.5" y="-248.5" font-family="Helvetica,sans-Serif" font-size="10.00"> clipRect</text>
</g>
<!-- Node6 -->
<g id="node6" class="node"><title>Node6</title>
<polygon fill="white" stroke="#bfbfbf" points="309,-291.5 309,-310.5 338,-310.5 338,-291.5 309,-291.5"/>
<text text-anchor="middle" x="323.5" y="-298.5" font-family="Helvetica,sans-Serif" font-size="10.00">int</text>
</g>
<!-- Node6&#45;&gt;Node1 -->
<g id="edge10" class="edge"><title>Node6&#45;&gt;Node1</title>
<path fill="none" stroke="#9a32cd" stroke-dasharray="5,2" d="M334.434,-282.963C345.284,-265.468 361.798,-237.173 372.5,-211 401.704,-139.576 421.215,-47.8059 426.831,-19.6161"/>
<polygon fill="#9a32cd" stroke="#9a32cd" points="331.432,-281.162 329.062,-291.489 337.354,-284.894 331.432,-281.162"/>
<text text-anchor="middle" x="428" y="-141" font-family="Helvetica,sans-Serif" font-size="10.00"> mapDepth</text>
<text text-anchor="middle" x="428" y="-130" font-family="Helvetica,sans-Serif" font-size="10.00">mapHeight</text>
<text text-anchor="middle" x="428" y="-119" font-family="Helvetica,sans-Serif" font-size="10.00">mapWidth</text>
</g>
<!-- Node6&#45;&gt;Node2 -->
<g id="edge7" class="edge"><title>Node6&#45;&gt;Node2</title>
<path fill="none" stroke="#9a32cd" stroke-dasharray="5,2" d="M323.5,-281.378C323.5,-237.622 323.5,-129.567 323.5,-97.873"/>
<polygon fill="#9a32cd" stroke="#9a32cd" points="320,-281.467 323.5,-291.467 327,-281.467 320,-281.467"/>
<text text-anchor="middle" x="346" y="-203" font-family="Helvetica,sans-Serif" font-size="10.00"> tileHeight</text>
<text text-anchor="middle" x="346" y="-192" font-family="Helvetica,sans-Serif" font-size="10.00">rows</text>
<text text-anchor="middle" x="346" y="-181" font-family="Helvetica,sans-Serif" font-size="10.00">tileWidth</text>
<text text-anchor="middle" x="346" y="-170" font-family="Helvetica,sans-Serif" font-size="10.00">columns</text>
</g>
<!-- Node6&#45;&gt;Node3 -->
<g id="edge5" class="edge"><title>Node6&#45;&gt;Node3</title>
<path fill="none" stroke="#9a32cd" stroke-dasharray="5,2" d="M299.137,-292.919C281.234,-287.343 258.808,-279.461 251.5,-273 234.968,-258.384 241.078,-247.13 228.5,-229 220.721,-217.788 210.042,-206.325 202.532,-198.755"/>
<polygon fill="#9a32cd" stroke="#9a32cd" points="298.164,-296.282 308.749,-295.832 300.194,-289.583 298.164,-296.282"/>
<text text-anchor="middle" x="280.5" y="-265" font-family="Helvetica,sans-Serif" font-size="10.00"> width</text>
<text text-anchor="middle" x="280.5" y="-254" font-family="Helvetica,sans-Serif" font-size="10.00">currentFrame</text>
<text text-anchor="middle" x="280.5" y="-243" font-family="Helvetica,sans-Serif" font-size="10.00">height</text>
<text text-anchor="middle" x="280.5" y="-232" font-family="Helvetica,sans-Serif" font-size="10.00">frameCount</text>
</g>
<!-- Node7 -->
<g id="node7" class="node"><title>Node7</title>
<polygon fill="white" stroke="#bfbfbf" points="138.5,-291.5 138.5,-310.5 276.5,-310.5 276.5,-291.5 138.5,-291.5"/>
<text text-anchor="middle" x="207.5" y="-298.5" font-family="Helvetica,sans-Serif" font-size="10.00">shared_ptr&lt; SDL_Texture &gt;</text>
</g>
<!-- Node7&#45;&gt;Node3 -->
<g id="edge6" class="edge"><title>Node7&#45;&gt;Node3</title>
<path fill="none" stroke="#9a32cd" stroke-dasharray="5,2" d="M197.687,-282.394C196.379,-279.343 195.237,-276.14 194.5,-273 188.313,-246.624 190.674,-214.225 192.365,-198.874"/>
<polygon fill="#9a32cd" stroke="#9a32cd" points="194.558,-283.963 202.14,-291.362 200.828,-280.849 194.558,-283.963"/>
<text text-anchor="middle" x="211.5" y="-248.5" font-family="Helvetica,sans-Serif" font-size="10.00"> texture</text>
</g>
<!-- Node8 -->
<g id="node8" class="node"><title>Node8</title>
<polygon fill="white" stroke="#bfbfbf" points="424.5,-78.5 424.5,-97.5 496.5,-97.5 496.5,-78.5 424.5,-78.5"/>
<text text-anchor="middle" x="460.5" y="-85.5" font-family="Helvetica,sans-Serif" font-size="10.00">vector&lt; int &gt;</text>
</g>
<!-- Node8&#45;&gt;Node1 -->
<g id="edge8" class="edge"><title>Node8&#45;&gt;Node1</title>
<path fill="none" stroke="#9a32cd" stroke-dasharray="5,2" d="M452.784,-68.6744C446.232,-53.1127 437.12,-31.4722 432.128,-19.6165"/>
<polygon fill="#9a32cd" stroke="#9a32cd" points="449.723,-70.4237 456.829,-78.2818 456.174,-67.7073 449.723,-70.4237"/>
<text text-anchor="middle" x="483.5" y="-52" font-family="Helvetica,sans-Serif" font-size="10.00"> tileMatrix</text>
<text text-anchor="middle" x="483.5" y="-41" font-family="Helvetica,sans-Serif" font-size="10.00">collisionTileMap</text>
</g>
<!-- Node9 -->
<g id="node9" class="node"><title>Node9</title>
<polygon fill="white" stroke="#bfbfbf" points="515,-78.5 515,-97.5 638,-97.5 638,-78.5 515,-78.5"/>
<text text-anchor="middle" x="576.5" y="-85.5" font-family="Helvetica,sans-Serif" font-size="10.00">vector&lt; GameObject * &gt;</text>
</g>
<!-- Node9&#45;&gt;Node1 -->
<g id="edge9" class="edge"><title>Node9&#45;&gt;Node1</title>
<path fill="none" stroke="#9a32cd" stroke-dasharray="5,2" d="M562.529,-70.9372C552.399,-60.2062 537.834,-46.5429 522.5,-38 500.993,-26.0177 473.692,-18.947 454.061,-15.0682"/>
<polygon fill="#9a32cd" stroke="#9a32cd" points="560.033,-73.395 569.351,-78.4382 565.212,-68.6852 560.033,-73.395"/>
<text text-anchor="middle" x="593" y="-46.5" font-family="Helvetica,sans-Serif" font-size="10.00"> gameObjectMatrix</text>
</g>
</g>
</svg>
