<?xml version="1.0" encoding="UTF-8" standalone="no"?>
<!DOCTYPE svg PUBLIC "-//W3C//DTD SVG 1.1//EN"
 "http://www.w3.org/Graphics/SVG/1.1/DTD/svg11.dtd">
<!-- Generated by graphviz version 2.36.0 (20140111.2315)
 -->
<!-- Title: HitPoints Pages: 1 -->
<svg width="592pt" height="460pt"
 viewBox="0.00 0.00 592.00 460.00" xmlns="http://www.w3.org/2000/svg" xmlns:xlink="http://www.w3.org/1999/xlink">
<g id="graph0" class="graph" transform="scale(1 1) rotate(0) translate(4 456)">
<title>HitPoints</title>
<polygon fill="white" stroke="none" points="-4,4 -4,-456 588,-456 588,4 -4,4"/>
<!-- Node1 -->
<g id="node1" class="node"><title>Node1</title>
<polygon fill="#bfbfbf" stroke="black" points="526.5,-239.5 526.5,-258.5 583.5,-258.5 583.5,-239.5 526.5,-239.5"/>
<text text-anchor="middle" x="555" y="-246.5" font-family="Helvetica,sans-Serif" font-size="10.00">HitPoints</text>
</g>
<!-- Node2 -->
<g id="node2" class="node"><title>Node2</title>
<g id="a_node2"><a xlink:href="classComponent.html" target="_top" xlink:title="Modela os componentes. ">
<polygon fill="white" stroke="black" points="366.5,-375.5 366.5,-394.5 433.5,-394.5 433.5,-375.5 366.5,-375.5"/>
<text text-anchor="middle" x="400" y="-382.5" font-family="Helvetica,sans-Serif" font-size="10.00">Component</text>
</a>
</g>
</g>
<!-- Node2&#45;&gt;Node1 -->
<g id="edge1" class="edge"><title>Node2&#45;&gt;Node1</title>
<path fill="none" stroke="midnightblue" d="M436.781,-371.463C459.196,-361.659 487.598,-346.678 508,-327 529.047,-306.7 543.793,-274.723 550.284,-258.753"/>
<polygon fill="midnightblue" stroke="midnightblue" points="435.124,-368.363 427.269,-375.473 437.843,-374.813 435.124,-368.363"/>
</g>
<!-- Node3 -->
<g id="node3" class="node"><title>Node3</title>
<g id="a_node3"><a xlink:href="classGameObject.html" target="_top" xlink:title="Classe virtual que especifica o funcionamento de um GameObject. ">
<polygon fill="white" stroke="black" points="364.5,-337.5 364.5,-356.5 435.5,-356.5 435.5,-337.5 364.5,-337.5"/>
<text text-anchor="middle" x="400" y="-344.5" font-family="Helvetica,sans-Serif" font-size="10.00">GameObject</text>
</a>
</g>
</g>
<!-- Node3&#45;&gt;Node1 -->
<g id="edge2" class="edge"><title>Node3&#45;&gt;Node1</title>
<path fill="none" stroke="#9a32cd" stroke-dasharray="5,2" d="M424.611,-331.877C456.385,-311.525 512.002,-275.901 538.764,-258.759"/>
<polygon fill="#9a32cd" stroke="#9a32cd" points="422.482,-329.084 415.949,-337.425 426.257,-334.978 422.482,-329.084"/>
<text text-anchor="middle" x="481" y="-315" font-family="Helvetica,sans-Serif" font-size="10.00"> associated</text>
</g>
<!-- Node4 -->
<g id="node4" class="node"><title>Node4</title>
<g id="a_node4"><a xlink:href="classRect.html" target="_top" xlink:title="Classe que modela um rect. ">
<polygon fill="white" stroke="black" points="176,-394.5 176,-413.5 214,-413.5 214,-394.5 176,-394.5"/>
<text text-anchor="middle" x="195" y="-401.5" font-family="Helvetica,sans-Serif" font-size="10.00">Rect</text>
</a>
</g>
</g>
<!-- Node4&#45;&gt;Node3 -->
<g id="edge3" class="edge"><title>Node4&#45;&gt;Node3</title>
<path fill="none" stroke="#9a32cd" stroke-dasharray="5,2" d="M224.376,-403.115C255.356,-401.285 305.897,-395.734 346,-379 355.107,-375.2 355.646,-371.254 364,-366 369.15,-362.761 374.896,-359.503 380.218,-356.623"/>
<polygon fill="#9a32cd" stroke="#9a32cd" points="224.096,-399.624 214.283,-403.619 224.445,-406.615 224.096,-399.624"/>
<text text-anchor="middle" x="314" y="-399" font-family="Helvetica,sans-Serif" font-size="10.00"> box</text>
</g>
<!-- Node5 -->
<g id="node5" class="node"><title>Node5</title>
<polygon fill="white" stroke="#bfbfbf" points="21.5,-355.5 21.5,-374.5 56.5,-374.5 56.5,-355.5 21.5,-355.5"/>
<text text-anchor="middle" x="39" y="-362.5" font-family="Helvetica,sans-Serif" font-size="10.00">float</text>
</g>
<!-- Node5&#45;&gt;Node3 -->
<g id="edge5" class="edge"><title>Node5&#45;&gt;Node3</title>
<path fill="none" stroke="#9a32cd" stroke-dasharray="5,2" d="M66.8758,-364.038C120.152,-362.072 242.919,-357.247 346,-351 351.895,-350.643 358.155,-350.214 364.229,-349.772"/>
<polygon fill="#9a32cd" stroke="#9a32cd" points="66.4597,-360.551 56.5941,-364.414 66.7153,-367.546 66.4597,-360.551"/>
<text text-anchor="middle" x="195" y="-364" font-family="Helvetica,sans-Serif" font-size="10.00"> rotation</text>
</g>
<!-- Node5&#45;&gt;Node4 -->
<g id="edge4" class="edge"><title>Node5&#45;&gt;Node4</title>
<path fill="none" stroke="#9a32cd" stroke-dasharray="5,2" d="M66.5418,-371.722C97.7667,-379.629 148.77,-392.546 175.821,-399.396"/>
<polygon fill="#9a32cd" stroke="#9a32cd" points="67.3271,-368.31 56.7739,-369.248 65.6086,-375.096 67.3271,-368.31"/>
<text text-anchor="middle" x="102" y="-418" font-family="Helvetica,sans-Serif" font-size="10.00"> w</text>
<text text-anchor="middle" x="102" y="-407" font-family="Helvetica,sans-Serif" font-size="10.00">x</text>
<text text-anchor="middle" x="102" y="-396" font-family="Helvetica,sans-Serif" font-size="10.00">h</text>
<text text-anchor="middle" x="102" y="-385" font-family="Helvetica,sans-Serif" font-size="10.00">y</text>
</g>
<!-- Node8 -->
<g id="node8" class="node"><title>Node8</title>
<g id="a_node8"><a xlink:href="classSprite.html" target="_top" xlink:title="Classe que modela uma sprite. ">
<polygon fill="white" stroke="black" points="379,-171.5 379,-190.5 421,-190.5 421,-171.5 379,-171.5"/>
<text text-anchor="middle" x="400" y="-178.5" font-family="Helvetica,sans-Serif" font-size="10.00">Sprite</text>
</a>
</g>
</g>
<!-- Node5&#45;&gt;Node8 -->
<g id="edge9" class="edge"><title>Node5&#45;&gt;Node8</title>
<path fill="none" stroke="#9a32cd" stroke-dasharray="5,2" d="M49.4583,-346.216C62.9375,-321.47 90.0741,-278.464 126,-256 210.855,-202.941 251.751,-241.657 346,-208 358.837,-203.416 372.527,-196.381 382.777,-190.641"/>
<polygon fill="#9a32cd" stroke="#9a32cd" points="46.236,-344.824 44.6774,-355.304 52.431,-348.083 46.236,-344.824"/>
<text text-anchor="middle" x="195" y="-292" font-family="Helvetica,sans-Serif" font-size="10.00"> scaleY</text>
<text text-anchor="middle" x="195" y="-281" font-family="Helvetica,sans-Serif" font-size="10.00">frameTime</text>
<text text-anchor="middle" x="195" y="-270" font-family="Helvetica,sans-Serif" font-size="10.00">timeElapsed</text>
<text text-anchor="middle" x="195" y="-259" font-family="Helvetica,sans-Serif" font-size="10.00">scaleX</text>
</g>
<!-- Node6 -->
<g id="node6" class="node"><title>Node6</title>
<polygon fill="white" stroke="#bfbfbf" points="177.5,-309.5 177.5,-328.5 212.5,-328.5 212.5,-309.5 177.5,-309.5"/>
<text text-anchor="middle" x="195" y="-316.5" font-family="Helvetica,sans-Serif" font-size="10.00">bool</text>
</g>
<!-- Node6&#45;&gt;Node3 -->
<g id="edge6" class="edge"><title>Node6&#45;&gt;Node3</title>
<path fill="none" stroke="#9a32cd" stroke-dasharray="5,2" d="M222.943,-322.716C259.379,-327.742 324.395,-336.71 364.404,-342.228"/>
<polygon fill="#9a32cd" stroke="#9a32cd" points="222.997,-319.191 212.612,-321.291 222.04,-326.125 222.997,-319.191"/>
<text text-anchor="middle" x="314" y="-342" font-family="Helvetica,sans-Serif" font-size="10.00"> dead</text>
</g>
<!-- Node6&#45;&gt;Node8 -->
<g id="edge13" class="edge"><title>Node6&#45;&gt;Node8</title>
<path fill="none" stroke="#9a32cd" stroke-dasharray="5,2" d="M222.612,-314.07C254.797,-306.99 309.222,-291.315 346,-261 370.169,-241.078 387.423,-207.272 394.884,-190.718"/>
<polygon fill="#9a32cd" stroke="#9a32cd" points="221.685,-310.688 212.607,-316.151 223.11,-317.542 221.685,-310.688"/>
<text text-anchor="middle" x="314" y="-298" font-family="Helvetica,sans-Serif" font-size="10.00"> highlightable</text>
</g>
<!-- Node7 -->
<g id="node7" class="node"><title>Node7</title>
<polygon fill="white" stroke="#bfbfbf" points="135.5,-432.5 135.5,-451.5 254.5,-451.5 254.5,-432.5 135.5,-432.5"/>
<text text-anchor="middle" x="195" y="-439.5" font-family="Helvetica,sans-Serif" font-size="10.00">vector&lt; Component * &gt;</text>
</g>
<!-- Node7&#45;&gt;Node3 -->
<g id="edge7" class="edge"><title>Node7&#45;&gt;Node3</title>
<path fill="none" stroke="#9a32cd" stroke-dasharray="5,2" d="M264.837,-441.574C292.728,-438.141 323.573,-429.777 346,-411 362.516,-397.172 349.684,-382.095 364,-366 367.309,-362.28 371.525,-359.15 375.876,-356.572"/>
<polygon fill="#9a32cd" stroke="#9a32cd" points="264.301,-438.111 254.717,-442.626 265.025,-445.073 264.301,-438.111"/>
<text text-anchor="middle" x="314" y="-441" font-family="Helvetica,sans-Serif" font-size="10.00"> components</text>
</g>
<!-- Node8&#45;&gt;Node1 -->
<g id="edge8" class="edge"><title>Node8&#45;&gt;Node1</title>
<path fill="none" stroke="#9a32cd" stroke-dasharray="5,2" d="M430.487,-194.105C460.37,-207.387 505.884,-227.615 532.514,-239.451"/>
<polygon fill="#9a32cd" stroke="#9a32cd" points="431.562,-190.753 421.002,-189.89 428.719,-197.15 431.562,-190.753"/>
<text text-anchor="middle" x="481" y="-241" font-family="Helvetica,sans-Serif" font-size="10.00"> healthColor</text>
<text text-anchor="middle" x="481" y="-230" font-family="Helvetica,sans-Serif" font-size="10.00">healthBar</text>
</g>
<!-- Node9 -->
<g id="node9" class="node"><title>Node9</title>
<polygon fill="white" stroke="#bfbfbf" points="164,-77.5 164,-96.5 226,-96.5 226,-77.5 164,-77.5"/>
<text text-anchor="middle" x="195" y="-84.5" font-family="Helvetica,sans-Serif" font-size="10.00">SDL_Rect</text>
</g>
<!-- Node9&#45;&gt;Node8 -->
<g id="edge10" class="edge"><title>Node9&#45;&gt;Node8</title>
<path fill="none" stroke="#9a32cd" stroke-dasharray="5,2" d="M236.554,-87.8258C268.333,-90.1179 312.607,-97.062 346,-117 368.543,-130.46 385.821,-157.129 393.926,-171.423"/>
<polygon fill="#9a32cd" stroke="#9a32cd" points="236.48,-84.3153 226.29,-87.2148 236.064,-91.3029 236.48,-84.3153"/>
<text text-anchor="middle" x="314" y="-120" font-family="Helvetica,sans-Serif" font-size="10.00"> clipRect</text>
</g>
<!-- Node10 -->
<g id="node10" class="node"><title>Node10</title>
<polygon fill="white" stroke="#bfbfbf" points="180.5,-0.5 180.5,-19.5 209.5,-19.5 209.5,-0.5 180.5,-0.5"/>
<text text-anchor="middle" x="195" y="-7.5" font-family="Helvetica,sans-Serif" font-size="10.00">int</text>
</g>
<!-- Node10&#45;&gt;Node1 -->
<g id="edge17" class="edge"><title>Node10&#45;&gt;Node1</title>
<path fill="none" stroke="#9a32cd" stroke-dasharray="5,2" d="M219.841,-5.04078C250.593,0.142586 304.998,5.12604 346,-14 454.628,-64.6718 530.165,-201.805 549.262,-239.372"/>
<polygon fill="#9a32cd" stroke="#9a32cd" points="218.852,-1.66392 209.65,-6.91521 220.118,-8.54844 218.852,-1.66392"/>
<text text-anchor="middle" x="400" y="-81" font-family="Helvetica,sans-Serif" font-size="10.00"> hp</text>
</g>
<!-- Node10&#45;&gt;Node8 -->
<g id="edge11" class="edge"><title>Node10&#45;&gt;Node8</title>
<path fill="none" stroke="#9a32cd" stroke-dasharray="5,2" d="M220.251,-9.48064C252.735,-10.0867 310.402,-15.9042 346,-47 384.625,-80.7398 395.376,-146.371 398.127,-171.182"/>
<polygon fill="#9a32cd" stroke="#9a32cd" points="219.899,-5.9797 209.888,-9.45073 219.878,-12.9797 219.899,-5.9797"/>
<text text-anchor="middle" x="314" y="-83" font-family="Helvetica,sans-Serif" font-size="10.00"> width</text>
<text text-anchor="middle" x="314" y="-72" font-family="Helvetica,sans-Serif" font-size="10.00">currentFrame</text>
<text text-anchor="middle" x="314" y="-61" font-family="Helvetica,sans-Serif" font-size="10.00">height</text>
<text text-anchor="middle" x="314" y="-50" font-family="Helvetica,sans-Serif" font-size="10.00">frameCount</text>
</g>
<!-- Node11 -->
<g id="node11" class="node"><title>Node11</title>
<polygon fill="white" stroke="#bfbfbf" points="126,-153.5 126,-172.5 264,-172.5 264,-153.5 126,-153.5"/>
<text text-anchor="middle" x="195" y="-160.5" font-family="Helvetica,sans-Serif" font-size="10.00">shared_ptr&lt; SDL_Texture &gt;</text>
</g>
<!-- Node11&#45;&gt;Node8 -->
<g id="edge12" class="edge"><title>Node11&#45;&gt;Node8</title>
<path fill="none" stroke="#9a32cd" stroke-dasharray="5,2" d="M274.385,-160.794C297.548,-161.158 322.885,-162.556 346,-166 357.066,-167.649 369.088,-170.924 378.88,-173.994"/>
<polygon fill="#9a32cd" stroke="#9a32cd" points="274.292,-157.293 264.259,-160.697 274.225,-164.293 274.292,-157.293"/>
<text text-anchor="middle" x="314" y="-169" font-family="Helvetica,sans-Serif" font-size="10.00"> texture</text>
</g>
<!-- Node12 -->
<g id="node12" class="node"><title>Node12</title>
<polygon fill="white" stroke="#bfbfbf" points="150,-115.5 150,-134.5 240,-134.5 240,-115.5 150,-115.5"/>
<text text-anchor="middle" x="195" y="-122.5" font-family="Helvetica,sans-Serif" font-size="10.00">SDL_BlendMode</text>
</g>
<!-- Node12&#45;&gt;Node8 -->
<g id="edge14" class="edge"><title>Node12&#45;&gt;Node8</title>
<path fill="none" stroke="#9a32cd" stroke-dasharray="5,2" d="M250.209,-127.401C279.347,-130.054 315.459,-135.574 346,-147 361.358,-152.746 376.915,-163.431 387.164,-171.295"/>
<polygon fill="#9a32cd" stroke="#9a32cd" points="250.468,-123.91 240.214,-126.577 249.893,-130.887 250.468,-123.91"/>
<text text-anchor="middle" x="314" y="-150" font-family="Helvetica,sans-Serif" font-size="10.00"> blendMode</text>
</g>
<!-- Node13 -->
<g id="node13" class="node"><title>Node13</title>
<g id="a_node13"><a xlink:href="structColor.html" target="_top" xlink:title="Struct para armazenar informações de cor. ">
<polygon fill="white" stroke="black" points="175,-191.5 175,-210.5 215,-210.5 215,-191.5 175,-191.5"/>
<text text-anchor="middle" x="195" y="-198.5" font-family="Helvetica,sans-Serif" font-size="10.00">Color</text>
</a>
</g>
</g>
<!-- Node13&#45;&gt;Node8 -->
<g id="edge15" class="edge"><title>Node13&#45;&gt;Node8</title>
<path fill="none" stroke="#9a32cd" stroke-dasharray="5,2" d="M225.192,-198.124C266.997,-194.005 342.841,-186.533 378.906,-182.98"/>
<polygon fill="#9a32cd" stroke="#9a32cd" points="224.706,-194.655 215.098,-199.118 225.393,-201.621 224.706,-194.655"/>
<text text-anchor="middle" x="314" y="-196" font-family="Helvetica,sans-Serif" font-size="10.00"> colorMultiplier</text>
</g>
<!-- Node14 -->
<g id="node14" class="node"><title>Node14</title>
<polygon fill="white" stroke="#bfbfbf" points="0.5,-178.5 0.5,-197.5 77.5,-197.5 77.5,-178.5 0.5,-178.5"/>
<text text-anchor="middle" x="39" y="-185.5" font-family="Helvetica,sans-Serif" font-size="10.00">unsigned char</text>
</g>
<!-- Node14&#45;&gt;Node13 -->
<g id="edge16" class="edge"><title>Node14&#45;&gt;Node13</title>
<path fill="none" stroke="#9a32cd" stroke-dasharray="5,2" d="M88.1533,-187.968C94.8259,-188.179 101.588,-188.507 108,-189 131.148,-190.778 157.567,-194.76 174.946,-197.65"/>
<polygon fill="#9a32cd" stroke="#9a32cd" points="87.884,-184.46 77.8045,-187.724 87.7195,-191.458 87.884,-184.46"/>
<text text-anchor="middle" x="102" y="-225" font-family="Helvetica,sans-Serif" font-size="10.00"> g</text>
<text text-anchor="middle" x="102" y="-214" font-family="Helvetica,sans-Serif" font-size="10.00">a</text>
<text text-anchor="middle" x="102" y="-203" font-family="Helvetica,sans-Serif" font-size="10.00">r</text>
<text text-anchor="middle" x="102" y="-192" font-family="Helvetica,sans-Serif" font-size="10.00">b</text>
</g>
</g>
</svg>
