<?xml version="1.0" encoding="UTF-8" standalone="no"?>
<!DOCTYPE svg PUBLIC "-//W3C//DTD SVG 1.1//EN"
 "http://www.w3.org/Graphics/SVG/1.1/DTD/svg11.dtd">
<!-- Generated by graphviz version 2.38.0 (20140413.2041)
 -->
<!-- Title: TitleState Pages: 1 -->
<svg width="522pt" height="358pt"
 viewBox="0.00 0.00 522.00 357.50" xmlns="http://www.w3.org/2000/svg" xmlns:xlink="http://www.w3.org/1999/xlink">
<g id="graph0" class="graph" transform="scale(1 1) rotate(0) translate(4 353.5)">
<title>TitleState</title>
<polygon fill="white" stroke="none" points="-4,4 -4,-353.5 518,-353.5 518,4 -4,4"/>
<!-- Node2 -->
<g id="node1" class="node"><title>Node2</title>
<polygon fill="#bfbfbf" stroke="black" points="455,-212.5 455,-231.5 514,-231.5 514,-212.5 455,-212.5"/>
<text text-anchor="middle" x="484.5" y="-219.5" font-family="Helvetica,sans-Serif" font-size="10.00">TitleState</text>
</g>
<!-- Node3 -->
<g id="node2" class="node"><title>Node3</title>
<g id="a_node2"><a xlink:href="classState.html" target="_top" xlink:title="Classe virtual que modela um estado do jogo. ">
<polygon fill="white" stroke="black" points="364,-279.5 364,-298.5 404,-298.5 404,-279.5 364,-279.5"/>
<text text-anchor="middle" x="384" y="-286.5" font-family="Helvetica,sans-Serif" font-size="10.00">State</text>
</a>
</g>
</g>
<!-- Node3&#45;&gt;Node2 -->
<g id="edge1" class="edge"><title>Node3&#45;&gt;Node2</title>
<path fill="none" stroke="midnightblue" d="M407.513,-273.686C426.559,-260.731 453.26,-242.569 469.414,-231.582"/>
<polygon fill="midnightblue" stroke="midnightblue" points="405.413,-270.882 399.113,-279.401 409.35,-276.67 405.413,-270.882"/>
</g>
<!-- Node4 -->
<g id="node3" class="node"><title>Node4</title>
<polygon fill="white" stroke="#bfbfbf" points="133.5,-319 133.5,-349 248.5,-349 248.5,-319 133.5,-319"/>
<text text-anchor="start" x="141.5" y="-337" font-family="Helvetica,sans-Serif" font-size="10.00">vector&lt; std::unique</text>
<text text-anchor="middle" x="191" y="-326" font-family="Helvetica,sans-Serif" font-size="10.00">_ptr&lt; GameObject &gt; &gt;</text>
</g>
<!-- Node4&#45;&gt;Node3 -->
<g id="edge2" class="edge"><title>Node4&#45;&gt;Node3</title>
<path fill="none" stroke="#9a32cd" stroke-dasharray="5,2" d="M258.785,-330.246C286.112,-327.221 317.666,-321.778 345,-312 353.858,-308.831 362.904,-303.459 369.946,-298.703"/>
<polygon fill="#9a32cd" stroke="#9a32cd" points="258.13,-326.795 248.537,-331.291 258.84,-333.759 258.13,-326.795"/>
<text text-anchor="middle" x="311.5" y="-330" font-family="Helvetica,sans-Serif" font-size="10.00"> objectArray</text>
</g>
<!-- Node5 -->
<g id="node4" class="node"><title>Node5</title>
<polygon fill="white" stroke="#bfbfbf" points="173.5,-279.5 173.5,-298.5 208.5,-298.5 208.5,-279.5 173.5,-279.5"/>
<text text-anchor="middle" x="191" y="-286.5" font-family="Helvetica,sans-Serif" font-size="10.00">bool</text>
</g>
<!-- Node5&#45;&gt;Node3 -->
<g id="edge3" class="edge"><title>Node5&#45;&gt;Node3</title>
<path fill="none" stroke="#9a32cd" stroke-dasharray="5,2" d="M218.701,-289C257.739,-289 329.465,-289 363.756,-289"/>
<polygon fill="#9a32cd" stroke="#9a32cd" points="218.616,-285.5 208.616,-289 218.616,-292.5 218.616,-285.5"/>
<text text-anchor="middle" x="311.5" y="-303" font-family="Helvetica,sans-Serif" font-size="10.00"> quitRequested</text>
<text text-anchor="middle" x="311.5" y="-292" font-family="Helvetica,sans-Serif" font-size="10.00">popRequested</text>
</g>
<!-- Node6 -->
<g id="node5" class="node"><title>Node6</title>
<g id="a_node5"><a xlink:href="classSprite.html" target="_top" xlink:title="Classe que modela uma sprite. ">
<polygon fill="white" stroke="black" points="363,-110.5 363,-129.5 405,-129.5 405,-110.5 363,-110.5"/>
<text text-anchor="middle" x="384" y="-117.5" font-family="Helvetica,sans-Serif" font-size="10.00">Sprite</text>
</a>
</g>
</g>
<!-- Node6&#45;&gt;Node2 -->
<g id="edge4" class="edge"><title>Node6&#45;&gt;Node2</title>
<path fill="none" stroke="#9a32cd" stroke-dasharray="5,2" d="M401.413,-136.996C422.265,-158.59 457.544,-195.122 474.228,-212.398"/>
<polygon fill="#9a32cd" stroke="#9a32cd" points="403.909,-134.542 394.445,-129.78 398.873,-139.405 403.909,-134.542"/>
<text text-anchor="middle" x="430" y="-174" font-family="Helvetica,sans-Serif" font-size="10.00"> bg</text>
</g>
<!-- Node7 -->
<g id="node6" class="node"><title>Node7</title>
<polygon fill="white" stroke="#bfbfbf" points="173.5,-214.5 173.5,-233.5 208.5,-233.5 208.5,-214.5 173.5,-214.5"/>
<text text-anchor="middle" x="191" y="-221.5" font-family="Helvetica,sans-Serif" font-size="10.00">float</text>
</g>
<!-- Node7&#45;&gt;Node6 -->
<g id="edge5" class="edge"><title>Node7&#45;&gt;Node6</title>
<path fill="none" stroke="#9a32cd" stroke-dasharray="5,2" d="M218.87,-226.897C251.878,-228.988 308.033,-227.608 345,-200 368.407,-182.519 378.001,-146.919 381.393,-129.725"/>
<polygon fill="#9a32cd" stroke="#9a32cd" points="218.869,-223.386 208.624,-226.087 218.317,-230.364 218.869,-223.386"/>
<text text-anchor="middle" x="311.5" y="-261" font-family="Helvetica,sans-Serif" font-size="10.00"> scaleY</text>
<text text-anchor="middle" x="311.5" y="-250" font-family="Helvetica,sans-Serif" font-size="10.00">frameTime</text>
<text text-anchor="middle" x="311.5" y="-239" font-family="Helvetica,sans-Serif" font-size="10.00">timeElapsed</text>
<text text-anchor="middle" x="311.5" y="-228" font-family="Helvetica,sans-Serif" font-size="10.00">scaleX</text>
</g>
<!-- Node8 -->
<g id="node7" class="node"><title>Node8</title>
<polygon fill="white" stroke="#bfbfbf" points="160,-176.5 160,-195.5 222,-195.5 222,-176.5 160,-176.5"/>
<text text-anchor="middle" x="191" y="-183.5" font-family="Helvetica,sans-Serif" font-size="10.00">SDL_Rect</text>
</g>
<!-- Node8&#45;&gt;Node6 -->
<g id="edge6" class="edge"><title>Node8&#45;&gt;Node6</title>
<path fill="none" stroke="#9a32cd" stroke-dasharray="5,2" d="M232.163,-188.154C264.538,-188.157 310.237,-184.125 345,-165 359.872,-156.818 371.435,-140.326 377.727,-129.741"/>
<polygon fill="#9a32cd" stroke="#9a32cd" points="232.195,-184.654 222.151,-188.025 232.105,-191.653 232.195,-184.654"/>
<text text-anchor="middle" x="311.5" y="-188" font-family="Helvetica,sans-Serif" font-size="10.00"> clipRect</text>
</g>
<!-- Node9 -->
<g id="node8" class="node"><title>Node9</title>
<polygon fill="white" stroke="#bfbfbf" points="176.5,-114.5 176.5,-133.5 205.5,-133.5 205.5,-114.5 176.5,-114.5"/>
<text text-anchor="middle" x="191" y="-121.5" font-family="Helvetica,sans-Serif" font-size="10.00">int</text>
</g>
<!-- Node9&#45;&gt;Node6 -->
<g id="edge7" class="edge"><title>Node9&#45;&gt;Node6</title>
<path fill="none" stroke="#9a32cd" stroke-dasharray="5,2" d="M215.99,-123C233.237,-122.321 257.049,-121.465 278,-121 307.525,-120.345 341.73,-120.118 362.868,-120.04"/>
<polygon fill="#9a32cd" stroke="#9a32cd" points="215.551,-119.515 205.7,-123.415 215.833,-126.509 215.551,-119.515"/>
<text text-anchor="middle" x="311.5" y="-157" font-family="Helvetica,sans-Serif" font-size="10.00"> width</text>
<text text-anchor="middle" x="311.5" y="-146" font-family="Helvetica,sans-Serif" font-size="10.00">currentFrame</text>
<text text-anchor="middle" x="311.5" y="-135" font-family="Helvetica,sans-Serif" font-size="10.00">height</text>
<text text-anchor="middle" x="311.5" y="-124" font-family="Helvetica,sans-Serif" font-size="10.00">frameCount</text>
</g>
<!-- Node10 -->
<g id="node9" class="node"><title>Node10</title>
<polygon fill="white" stroke="#bfbfbf" points="122,-76.5 122,-95.5 260,-95.5 260,-76.5 122,-76.5"/>
<text text-anchor="middle" x="191" y="-83.5" font-family="Helvetica,sans-Serif" font-size="10.00">shared_ptr&lt; SDL_Texture &gt;</text>
</g>
<!-- Node10&#45;&gt;Node6 -->
<g id="edge8" class="edge"><title>Node10&#45;&gt;Node6</title>
<path fill="none" stroke="#9a32cd" stroke-dasharray="5,2" d="M270.214,-92.8203C294.399,-95.8367 320.988,-100.086 345,-106 350.871,-107.446 357.086,-109.5 362.751,-111.591"/>
<polygon fill="#9a32cd" stroke="#9a32cd" points="270.355,-89.3124 260.01,-91.6018 269.525,-96.263 270.355,-89.3124"/>
<text text-anchor="middle" x="311.5" y="-109" font-family="Helvetica,sans-Serif" font-size="10.00"> texture</text>
</g>
<!-- Node11 -->
<g id="node10" class="node"><title>Node11</title>
<polygon fill="white" stroke="#bfbfbf" points="146,-38.5 146,-57.5 236,-57.5 236,-38.5 146,-38.5"/>
<text text-anchor="middle" x="191" y="-45.5" font-family="Helvetica,sans-Serif" font-size="10.00">SDL_BlendMode</text>
</g>
<!-- Node11&#45;&gt;Node6 -->
<g id="edge9" class="edge"><title>Node11&#45;&gt;Node6</title>
<path fill="none" stroke="#9a32cd" stroke-dasharray="5,2" d="M246.117,-50.7963C276.753,-54.3165 314.851,-62.0713 345,-79 358.54,-86.6026 369.999,-100.718 376.689,-110.235"/>
<polygon fill="#9a32cd" stroke="#9a32cd" points="246.342,-47.301 236.036,-49.7577 245.624,-54.2641 246.342,-47.301"/>
<text text-anchor="middle" x="311.5" y="-82" font-family="Helvetica,sans-Serif" font-size="10.00"> blendMode</text>
</g>
<!-- Node12 -->
<g id="node11" class="node"><title>Node12</title>
<g id="a_node11"><a xlink:href="structColor.html" target="_top" xlink:title="Struct para armazenar informações de cor. ">
<polygon fill="white" stroke="black" points="171,-0.5 171,-19.5 211,-19.5 211,-0.5 171,-0.5"/>
<text text-anchor="middle" x="191" y="-7.5" font-family="Helvetica,sans-Serif" font-size="10.00">Color</text>
</a>
</g>
</g>
<!-- Node12&#45;&gt;Node6 -->
<g id="edge10" class="edge"><title>Node12&#45;&gt;Node6</title>
<path fill="none" stroke="#9a32cd" stroke-dasharray="5,2" d="M221.156,-8.81249C254.489,-8.96636 309.07,-14.0096 345,-42 367.459,-59.496 377.468,-93.6727 381.169,-110.364"/>
<polygon fill="#9a32cd" stroke="#9a32cd" points="221.096,-5.31282 211.131,-8.91145 221.165,-12.3125 221.096,-5.31282"/>
<text text-anchor="middle" x="311.5" y="-45" font-family="Helvetica,sans-Serif" font-size="10.00"> colorMultiplier</text>
</g>
<!-- Node13 -->
<g id="node12" class="node"><title>Node13</title>
<polygon fill="white" stroke="#bfbfbf" points="0,-0.5 0,-19.5 77,-19.5 77,-0.5 0,-0.5"/>
<text text-anchor="middle" x="38.5" y="-7.5" font-family="Helvetica,sans-Serif" font-size="10.00">unsigned char</text>
</g>
<!-- Node13&#45;&gt;Node12 -->
<g id="edge11" class="edge"><title>Node13&#45;&gt;Node12</title>
<path fill="none" stroke="#9a32cd" stroke-dasharray="5,2" d="M87.2041,-10C115.496,-10 149.815,-10 170.771,-10"/>
<polygon fill="#9a32cd" stroke="#9a32cd" points="87.0893,-6.5001 77.0893,-10 87.0892,-13.5001 87.0893,-6.5001"/>
<text text-anchor="middle" x="99.5" y="-46" font-family="Helvetica,sans-Serif" font-size="10.00"> g</text>
<text text-anchor="middle" x="99.5" y="-35" font-family="Helvetica,sans-Serif" font-size="10.00">a</text>
<text text-anchor="middle" x="99.5" y="-24" font-family="Helvetica,sans-Serif" font-size="10.00">r</text>
<text text-anchor="middle" x="99.5" y="-13" font-family="Helvetica,sans-Serif" font-size="10.00">b</text>
</g>
</g>
</svg>
