<?xml version="1.0" encoding="UTF-8" standalone="no"?>
<!DOCTYPE svg PUBLIC "-//W3C//DTD SVG 1.1//EN"
 "http://www.w3.org/Graphics/SVG/1.1/DTD/svg11.dtd">
<!-- Generated by graphviz version 2.36.0 (20140111.2315)
 -->
<!-- Title: HitPoints Pages: 1 -->
<svg width="627pt" height="306pt"
 viewBox="0.00 0.00 627.00 306.00" xmlns="http://www.w3.org/2000/svg" xmlns:xlink="http://www.w3.org/1999/xlink">
<g id="graph0" class="graph" transform="scale(1 1) rotate(0) translate(4 302)">
<title>HitPoints</title>
<polygon fill="white" stroke="none" points="-4,4 -4,-302 623,-302 623,4 -4,4"/>
<!-- Node1 -->
<g id="node1" class="node"><title>Node1</title>
<polygon fill="#bfbfbf" stroke="black" points="74.5,-0.5 74.5,-19.5 131.5,-19.5 131.5,-0.5 74.5,-0.5"/>
<text text-anchor="middle" x="103" y="-7.5" font-family="Helvetica,sans-Serif" font-size="10.00">HitPoints</text>
</g>
<!-- Node2 -->
<g id="node2" class="node"><title>Node2</title>
<g id="a_node2"><a xlink:href="classComponent.html" target="_top" xlink:title="Modela os componentes. ">
<polygon fill="white" stroke="black" points="-0.5,-78.5 -0.5,-97.5 66.5,-97.5 66.5,-78.5 -0.5,-78.5"/>
<text text-anchor="middle" x="33" y="-85.5" font-family="Helvetica,sans-Serif" font-size="10.00">Component</text>
</a>
</g>
</g>
<!-- Node2&#45;&gt;Node1 -->
<g id="edge1" class="edge"><title>Node2&#45;&gt;Node1</title>
<path fill="none" stroke="midnightblue" d="M47.852,-70.875C62.2746,-55.2161 83.6191,-32.0422 95.0638,-19.6165"/>
<polygon fill="midnightblue" stroke="midnightblue" points="45.2303,-68.5552 41.0299,-78.2818 50.3791,-73.2975 45.2303,-68.5552"/>
</g>
<!-- Node3 -->
<g id="node3" class="node"><title>Node3</title>
<g id="a_node3"><a xlink:href="classSprite.html" target="_top" xlink:title="Classe que modela uma sprite. ">
<polygon fill="white" stroke="black" points="263,-78.5 263,-97.5 305,-97.5 305,-78.5 263,-78.5"/>
<text text-anchor="middle" x="284" y="-85.5" font-family="Helvetica,sans-Serif" font-size="10.00">Sprite</text>
</a>
</g>
</g>
<!-- Node3&#45;&gt;Node1 -->
<g id="edge2" class="edge"><title>Node3&#45;&gt;Node1</title>
<path fill="none" stroke="#9a32cd" stroke-dasharray="5,2" d="M254.329,-74.5416C217.393,-59.0324 155.285,-32.9541 123.337,-19.5391"/>
<polygon fill="#9a32cd" stroke="#9a32cd" points="253.014,-77.7851 263.589,-78.4296 255.724,-71.331 253.014,-77.7851"/>
<text text-anchor="middle" x="242.5" y="-52" font-family="Helvetica,sans-Serif" font-size="10.00"> healthColor</text>
<text text-anchor="middle" x="242.5" y="-41" font-family="Helvetica,sans-Serif" font-size="10.00">healthBar</text>
</g>
<!-- Node4 -->
<g id="node4" class="node"><title>Node4</title>
<polygon fill="white" stroke="#bfbfbf" points="548.5,-178.5 548.5,-197.5 583.5,-197.5 583.5,-178.5 548.5,-178.5"/>
<text text-anchor="middle" x="566" y="-185.5" font-family="Helvetica,sans-Serif" font-size="10.00">float</text>
</g>
<!-- Node4&#45;&gt;Node3 -->
<g id="edge3" class="edge"><title>Node4&#45;&gt;Node3</title>
<path fill="none" stroke="#9a32cd" stroke-dasharray="5,2" d="M565.634,-168.29C564.23,-151.848 559.404,-128.633 544,-116 525.666,-100.963 363.973,-92.4827 305.219,-89.8756"/>
<polygon fill="#9a32cd" stroke="#9a32cd" points="562.144,-168.567 566.147,-178.376 569.134,-168.211 562.144,-168.567"/>
<text text-anchor="middle" x="591.5" y="-152" font-family="Helvetica,sans-Serif" font-size="10.00"> scaleY</text>
<text text-anchor="middle" x="591.5" y="-141" font-family="Helvetica,sans-Serif" font-size="10.00">frameTime</text>
<text text-anchor="middle" x="591.5" y="-130" font-family="Helvetica,sans-Serif" font-size="10.00">timeElapsed</text>
<text text-anchor="middle" x="591.5" y="-119" font-family="Helvetica,sans-Serif" font-size="10.00">scaleX</text>
</g>
<!-- Node5 -->
<g id="node5" class="node"><title>Node5</title>
<polygon fill="white" stroke="#bfbfbf" points="135,-178.5 135,-197.5 197,-197.5 197,-178.5 135,-178.5"/>
<text text-anchor="middle" x="166" y="-185.5" font-family="Helvetica,sans-Serif" font-size="10.00">SDL_Rect</text>
</g>
<!-- Node5&#45;&gt;Node3 -->
<g id="edge4" class="edge"><title>Node5&#45;&gt;Node3</title>
<path fill="none" stroke="#9a32cd" stroke-dasharray="5,2" d="M183.058,-171.248C186.997,-167.575 191.158,-163.665 195,-160 215.238,-140.691 217.942,-133.2 240,-116 248.764,-109.166 259.361,-102.618 267.959,-97.6819"/>
<polygon fill="#9a32cd" stroke="#9a32cd" points="180.406,-168.934 175.458,-178.303 185.168,-174.065 180.406,-168.934"/>
<text text-anchor="middle" x="260" y="-135.5" font-family="Helvetica,sans-Serif" font-size="10.00"> clipRect</text>
</g>
<!-- Node6 -->
<g id="node6" class="node"><title>Node6</title>
<polygon fill="white" stroke="#bfbfbf" points="88.5,-178.5 88.5,-197.5 117.5,-197.5 117.5,-178.5 88.5,-178.5"/>
<text text-anchor="middle" x="103" y="-185.5" font-family="Helvetica,sans-Serif" font-size="10.00">int</text>
</g>
<!-- Node6&#45;&gt;Node1 -->
<g id="edge10" class="edge"><title>Node6&#45;&gt;Node1</title>
<path fill="none" stroke="#9a32cd" stroke-dasharray="5,2" d="M103,-167.842C103,-129.973 103,-46.8574 103,-19.7429"/>
<polygon fill="#9a32cd" stroke="#9a32cd" points="99.5001,-168.03 103,-178.03 106.5,-168.03 99.5001,-168.03"/>
<text text-anchor="middle" x="110" y="-85.5" font-family="Helvetica,sans-Serif" font-size="10.00"> hp</text>
</g>
<!-- Node6&#45;&gt;Node3 -->
<g id="edge5" class="edge"><title>Node6&#45;&gt;Node3</title>
<path fill="none" stroke="#9a32cd" stroke-dasharray="5,2" d="M110.342,-169.045C118.858,-148.306 131.882,-116.893 133,-116 152.716,-100.252 225.983,-93.0239 262.717,-90.3313"/>
<polygon fill="#9a32cd" stroke="#9a32cd" points="107.044,-167.863 106.491,-178.444 113.521,-170.518 107.044,-167.863"/>
<text text-anchor="middle" x="162" y="-152" font-family="Helvetica,sans-Serif" font-size="10.00"> width</text>
<text text-anchor="middle" x="162" y="-141" font-family="Helvetica,sans-Serif" font-size="10.00">currentFrame</text>
<text text-anchor="middle" x="162" y="-130" font-family="Helvetica,sans-Serif" font-size="10.00">height</text>
<text text-anchor="middle" x="162" y="-119" font-family="Helvetica,sans-Serif" font-size="10.00">frameCount</text>
</g>
<!-- Node7 -->
<g id="node7" class="node"><title>Node7</title>
<polygon fill="white" stroke="#bfbfbf" points="215,-178.5 215,-197.5 353,-197.5 353,-178.5 215,-178.5"/>
<text text-anchor="middle" x="284" y="-185.5" font-family="Helvetica,sans-Serif" font-size="10.00">shared_ptr&lt; SDL_Texture &gt;</text>
</g>
<!-- Node7&#45;&gt;Node3 -->
<g id="edge6" class="edge"><title>Node7&#45;&gt;Node3</title>
<path fill="none" stroke="#9a32cd" stroke-dasharray="5,2" d="M284,-168.22C284,-146.951 284,-113.22 284,-97.5374"/>
<polygon fill="#9a32cd" stroke="#9a32cd" points="280.5,-168.303 284,-178.303 287.5,-168.303 280.5,-168.303"/>
<text text-anchor="middle" x="301" y="-135.5" font-family="Helvetica,sans-Serif" font-size="10.00"> texture</text>
</g>
<!-- Node8 -->
<g id="node8" class="node"><title>Node8</title>
<polygon fill="white" stroke="#bfbfbf" points="371,-178.5 371,-197.5 461,-197.5 461,-178.5 371,-178.5"/>
<text text-anchor="middle" x="416" y="-185.5" font-family="Helvetica,sans-Serif" font-size="10.00">SDL_BlendMode</text>
</g>
<!-- Node8&#45;&gt;Node3 -->
<g id="edge7" class="edge"><title>Node8&#45;&gt;Node3</title>
<path fill="none" stroke="#9a32cd" stroke-dasharray="5,2" d="M396.673,-172.143C377.756,-157.662 348.063,-135.096 322,-116 313.513,-109.782 303.847,-102.917 296.387,-97.6647"/>
<polygon fill="#9a32cd" stroke="#9a32cd" points="394.728,-175.061 404.793,-178.369 398.987,-169.506 394.728,-175.061"/>
<text text-anchor="middle" x="406.5" y="-135.5" font-family="Helvetica,sans-Serif" font-size="10.00"> blendMode</text>
</g>
<!-- Node9 -->
<g id="node9" class="node"><title>Node9</title>
<g id="a_node9"><a xlink:href="structColor.html" target="_top" xlink:title="Struct para armazenar informações de cor. ">
<polygon fill="white" stroke="black" points="479,-178.5 479,-197.5 519,-197.5 519,-178.5 479,-178.5"/>
<text text-anchor="middle" x="499" y="-185.5" font-family="Helvetica,sans-Serif" font-size="10.00">Color</text>
</a>
</g>
</g>
<!-- Node9&#45;&gt;Node3 -->
<g id="edge8" class="edge"><title>Node9&#45;&gt;Node3</title>
<path fill="none" stroke="#9a32cd" stroke-dasharray="5,2" d="M486.38,-170.398C471.771,-151.635 448.165,-122.811 436,-116 393.905,-92.4312 335.86,-88.6576 305.105,-88.4943"/>
<polygon fill="#9a32cd" stroke="#9a32cd" points="483.688,-172.64 492.562,-178.428 489.235,-168.369 483.688,-172.64"/>
<text text-anchor="middle" x="509" y="-135.5" font-family="Helvetica,sans-Serif" font-size="10.00"> colorMultiplier</text>
</g>
<!-- Node10 -->
<g id="node10" class="node"><title>Node10</title>
<polygon fill="white" stroke="#bfbfbf" points="460.5,-278.5 460.5,-297.5 537.5,-297.5 537.5,-278.5 460.5,-278.5"/>
<text text-anchor="middle" x="499" y="-285.5" font-family="Helvetica,sans-Serif" font-size="10.00">unsigned char</text>
</g>
<!-- Node10&#45;&gt;Node9 -->
<g id="edge9" class="edge"><title>Node10&#45;&gt;Node9</title>
<path fill="none" stroke="#9a32cd" stroke-dasharray="5,2" d="M499,-268.22C499,-246.951 499,-213.22 499,-197.537"/>
<polygon fill="#9a32cd" stroke="#9a32cd" points="495.5,-268.303 499,-278.303 502.5,-268.303 495.5,-268.303"/>
<text text-anchor="middle" x="503.5" y="-252" font-family="Helvetica,sans-Serif" font-size="10.00"> g</text>
<text text-anchor="middle" x="503.5" y="-241" font-family="Helvetica,sans-Serif" font-size="10.00">a</text>
<text text-anchor="middle" x="503.5" y="-230" font-family="Helvetica,sans-Serif" font-size="10.00">r</text>
<text text-anchor="middle" x="503.5" y="-219" font-family="Helvetica,sans-Serif" font-size="10.00">b</text>
</g>
</g>
</svg>
