<?xml version="1.0" encoding="UTF-8" standalone="no"?>
<!DOCTYPE svg PUBLIC "-//W3C//DTD SVG 1.1//EN"
 "http://www.w3.org/Graphics/SVG/1.1/DTD/svg11.dtd">
<!-- Generated by graphviz version 2.38.0 (20140413.2041)
 -->
<!-- Title: Enemy Pages: 1 -->
<svg width="590pt" height="473pt"
 viewBox="0.00 0.00 590.00 473.00" xmlns="http://www.w3.org/2000/svg" xmlns:xlink="http://www.w3.org/1999/xlink">
<g id="graph0" class="graph" transform="scale(1 1) rotate(0) translate(4 469)">
<title>Enemy</title>
<polygon fill="white" stroke="none" points="-4,4 -4,-469 586,-469 586,4 -4,4"/>
<!-- Node1 -->
<g id="node1" class="node"><title>Node1</title>
<polygon fill="#bfbfbf" stroke="black" points="535,-232.5 535,-251.5 582,-251.5 582,-232.5 535,-232.5"/>
<text text-anchor="middle" x="558.5" y="-239.5" font-family="Helvetica,sans-Serif" font-size="10.00">Enemy</text>
</g>
<!-- Node2 -->
<g id="node2" class="node"><title>Node2</title>
<g id="a_node2"><a xlink:href="classGameObject.html" target="_top" xlink:title="Classe virtual que especifica o funcionamento de um GameObject. ">
<polygon fill="white" stroke="black" points="362,-379.5 362,-398.5 433,-398.5 433,-379.5 362,-379.5"/>
<text text-anchor="middle" x="397.5" y="-386.5" font-family="Helvetica,sans-Serif" font-size="10.00">GameObject</text>
</a>
</g>
</g>
<!-- Node2&#45;&gt;Node1 -->
<g id="edge1" class="edge"><title>Node2&#45;&gt;Node1</title>
<path fill="none" stroke="midnightblue" d="M442.879,-377.797C467.376,-369.672 496.831,-356.448 517,-336 541.208,-311.457 551.984,-270.13 555.784,-251.551"/>
<polygon fill="midnightblue" stroke="midnightblue" points="441.568,-374.54 433.073,-380.87 443.662,-381.219 441.568,-374.54"/>
</g>
<!-- Node3 -->
<g id="node3" class="node"><title>Node3</title>
<g id="a_node3"><a xlink:href="classRect.html" target="_top" xlink:title="Classe que modela um rect. ">
<polygon fill="white" stroke="black" points="174,-413.5 174,-432.5 212,-432.5 212,-413.5 174,-413.5"/>
<text text-anchor="middle" x="193" y="-420.5" font-family="Helvetica,sans-Serif" font-size="10.00">Rect</text>
</a>
</g>
</g>
<!-- Node3&#45;&gt;Node2 -->
<g id="edge2" class="edge"><title>Node3&#45;&gt;Node2</title>
<path fill="none" stroke="#9a32cd" stroke-dasharray="5,2" d="M222.318,-419.525C252.56,-415.657 301.835,-408.898 344,-401 349.79,-399.916 355.909,-398.638 361.846,-397.328"/>
<polygon fill="#9a32cd" stroke="#9a32cd" points="221.569,-416.092 212.086,-420.817 222.446,-423.037 221.569,-416.092"/>
<text text-anchor="middle" x="312" y="-414" font-family="Helvetica,sans-Serif" font-size="10.00"> box</text>
</g>
<!-- Node4 -->
<g id="node4" class="node"><title>Node4</title>
<polygon fill="white" stroke="#bfbfbf" points="21,-400.5 21,-419.5 56,-419.5 56,-400.5 21,-400.5"/>
<text text-anchor="middle" x="38.5" y="-407.5" font-family="Helvetica,sans-Serif" font-size="10.00">float</text>
</g>
<!-- Node4&#45;&gt;Node2 -->
<g id="edge4" class="edge"><title>Node4&#45;&gt;Node2</title>
<path fill="none" stroke="#9a32cd" stroke-dasharray="5,2" d="M54.6543,-427.164C64.888,-437.4 79.3475,-449.452 95,-455 99.608,-456.633 101.115,-455.203 106,-455 212.468,-450.572 245.989,-467.821 344,-426 359.794,-419.261 375.585,-407.24 385.66,-398.731"/>
<polygon fill="#9a32cd" stroke="#9a32cd" points="57.1216,-424.679 47.7025,-419.828 52.0407,-429.494 57.1216,-424.679"/>
<text text-anchor="middle" x="193" y="-457" font-family="Helvetica,sans-Serif" font-size="10.00"> rotation</text>
</g>
<!-- Node4&#45;&gt;Node3 -->
<g id="edge3" class="edge"><title>Node4&#45;&gt;Node3</title>
<path fill="none" stroke="#9a32cd" stroke-dasharray="5,2" d="M66.5364,-409.65C78.6258,-409.689 93.0432,-410.002 106,-411 129.598,-412.817 156.598,-416.919 173.951,-419.819"/>
<polygon fill="#9a32cd" stroke="#9a32cd" points="66.1867,-406.151 56.1971,-409.681 66.2074,-413.151 66.1867,-406.151"/>
<text text-anchor="middle" x="100.5" y="-447" font-family="Helvetica,sans-Serif" font-size="10.00"> w</text>
<text text-anchor="middle" x="100.5" y="-436" font-family="Helvetica,sans-Serif" font-size="10.00">x</text>
<text text-anchor="middle" x="100.5" y="-425" font-family="Helvetica,sans-Serif" font-size="10.00">h</text>
<text text-anchor="middle" x="100.5" y="-414" font-family="Helvetica,sans-Serif" font-size="10.00">y</text>
</g>
<!-- Node8 -->
<g id="node8" class="node"><title>Node8</title>
<g id="a_node8"><a xlink:href="classSprite.html" target="_top" xlink:title="Classe que modela uma sprite. ">
<polygon fill="white" stroke="black" points="376.5,-127.5 376.5,-146.5 418.5,-146.5 418.5,-127.5 376.5,-127.5"/>
<text text-anchor="middle" x="397.5" y="-134.5" font-family="Helvetica,sans-Serif" font-size="10.00">Sprite</text>
</a>
</g>
</g>
<!-- Node4&#45;&gt;Node8 -->
<g id="edge9" class="edge"><title>Node4&#45;&gt;Node8</title>
<path fill="none" stroke="#9a32cd" stroke-dasharray="5,2" d="M40.3335,-390.107C43.3865,-344.747 57.622,-233.397 124,-179 162.69,-147.294 319.833,-139.364 376.23,-137.521"/>
<polygon fill="#9a32cd" stroke="#9a32cd" points="36.8362,-389.963 39.7733,-400.142 43.8253,-390.353 36.8362,-389.963"/>
<text text-anchor="middle" x="193" y="-215" font-family="Helvetica,sans-Serif" font-size="10.00"> scaleY</text>
<text text-anchor="middle" x="193" y="-204" font-family="Helvetica,sans-Serif" font-size="10.00">frameTime</text>
<text text-anchor="middle" x="193" y="-193" font-family="Helvetica,sans-Serif" font-size="10.00">timeElapsed</text>
<text text-anchor="middle" x="193" y="-182" font-family="Helvetica,sans-Serif" font-size="10.00">scaleX</text>
</g>
<!-- Node5 -->
<g id="node5" class="node"><title>Node5</title>
<polygon fill="white" stroke="#bfbfbf" points="175.5,-324.5 175.5,-343.5 210.5,-343.5 210.5,-324.5 175.5,-324.5"/>
<text text-anchor="middle" x="193" y="-331.5" font-family="Helvetica,sans-Serif" font-size="10.00">bool</text>
</g>
<!-- Node5&#45;&gt;Node1 -->
<g id="edge17" class="edge"><title>Node5&#45;&gt;Node1</title>
<path fill="none" stroke="#9a32cd" stroke-dasharray="5,2" d="M220.787,-330.724C265.381,-324.904 357.414,-311.328 433,-290 470.232,-279.494 511.869,-262.269 536.32,-251.561"/>
<polygon fill="#9a32cd" stroke="#9a32cd" points="220.235,-327.266 210.759,-332.006 221.122,-334.21 220.235,-327.266"/>
<text text-anchor="middle" x="397.5" y="-309" font-family="Helvetica,sans-Serif" font-size="10.00"> dead</text>
</g>
<!-- Node5&#45;&gt;Node2 -->
<g id="edge5" class="edge"><title>Node5&#45;&gt;Node2</title>
<path fill="none" stroke="#9a32cd" stroke-dasharray="5,2" d="M220.932,-339.887C251.104,-346.657 301.373,-358.462 344,-371 352.597,-373.529 361.876,-376.596 370.207,-379.476"/>
<polygon fill="#9a32cd" stroke="#9a32cd" points="221.298,-336.383 210.777,-337.629 219.778,-343.216 221.298,-336.383"/>
<text text-anchor="middle" x="312" y="-374" font-family="Helvetica,sans-Serif" font-size="10.00"> dead</text>
</g>
<!-- Node6 -->
<g id="node6" class="node"><title>Node6</title>
<polygon fill="white" stroke="#bfbfbf" points="133.5,-375.5 133.5,-394.5 252.5,-394.5 252.5,-375.5 133.5,-375.5"/>
<text text-anchor="middle" x="193" y="-382.5" font-family="Helvetica,sans-Serif" font-size="10.00">vector&lt; Component * &gt;</text>
</g>
<!-- Node6&#45;&gt;Node2 -->
<g id="edge6" class="edge"><title>Node6&#45;&gt;Node2</title>
<path fill="none" stroke="#9a32cd" stroke-dasharray="5,2" d="M262.732,-386.358C296.075,-387.016 334.681,-387.779 361.824,-388.315"/>
<polygon fill="#9a32cd" stroke="#9a32cd" points="262.639,-382.855 252.571,-386.157 262.5,-389.854 262.639,-382.855"/>
<text text-anchor="middle" x="312" y="-390" font-family="Helvetica,sans-Serif" font-size="10.00"> components</text>
</g>
<!-- Node7 -->
<g id="node7" class="node"><title>Node7</title>
<polygon fill="white" stroke="#bfbfbf" points="363,-89.5 363,-108.5 432,-108.5 432,-89.5 363,-89.5"/>
<text text-anchor="middle" x="397.5" y="-96.5" font-family="Helvetica,sans-Serif" font-size="10.00">EnemyType</text>
</g>
<!-- Node7&#45;&gt;Node1 -->
<g id="edge7" class="edge"><title>Node7&#45;&gt;Node1</title>
<path fill="none" stroke="#9a32cd" stroke-dasharray="5,2" d="M442.308,-100.261C466.976,-103.165 496.793,-110.649 517,-129 548.009,-157.161 555.291,-210.762 556.989,-232.493"/>
<polygon fill="#9a32cd" stroke="#9a32cd" points="442.384,-96.7518 432.094,-99.2781 441.713,-103.72 442.384,-96.7518"/>
<text text-anchor="middle" x="484" y="-132" font-family="Helvetica,sans-Serif" font-size="10.00"> type</text>
</g>
<!-- Node8&#45;&gt;Node1 -->
<g id="edge8" class="edge"><title>Node8&#45;&gt;Node1</title>
<path fill="none" stroke="#9a32cd" stroke-dasharray="5,2" d="M428.547,-139.976C454.344,-143.865 491.323,-152.763 517,-173 537.073,-188.821 549.213,-217.545 554.455,-232.45"/>
<polygon fill="#9a32cd" stroke="#9a32cd" points="428.956,-136.5 418.579,-138.638 428.024,-143.438 428.956,-136.5"/>
<text text-anchor="middle" x="484" y="-220" font-family="Helvetica,sans-Serif" font-size="10.00"> pantsSpName</text>
<text text-anchor="middle" x="484" y="-209" font-family="Helvetica,sans-Serif" font-size="10.00">headSpName</text>
<text text-anchor="middle" x="484" y="-198" font-family="Helvetica,sans-Serif" font-size="10.00">spName</text>
<text text-anchor="middle" x="484" y="-187" font-family="Helvetica,sans-Serif" font-size="10.00">bodySpName</text>
<text text-anchor="middle" x="484" y="-176" font-family="Helvetica,sans-Serif" font-size="10.00">sp</text>
</g>
<!-- Node9 -->
<g id="node9" class="node"><title>Node9</title>
<polygon fill="white" stroke="#bfbfbf" points="162,-38.5 162,-57.5 224,-57.5 224,-38.5 162,-38.5"/>
<text text-anchor="middle" x="193" y="-45.5" font-family="Helvetica,sans-Serif" font-size="10.00">SDL_Rect</text>
</g>
<!-- Node9&#45;&gt;Node8 -->
<g id="edge10" class="edge"><title>Node9&#45;&gt;Node8</title>
<path fill="none" stroke="#9a32cd" stroke-dasharray="5,2" d="M234.303,-46.0325C267.167,-46.53 313.052,-52.2773 344,-77 359.549,-89.4212 348.573,-103.311 362,-118 365.968,-122.34 371.163,-125.909 376.313,-128.734"/>
<polygon fill="#9a32cd" stroke="#9a32cd" points="234.123,-42.5325 224.125,-46.0381 234.127,-49.5325 234.123,-42.5325"/>
<text text-anchor="middle" x="312" y="-80" font-family="Helvetica,sans-Serif" font-size="10.00"> clipRect</text>
</g>
<!-- Node10 -->
<g id="node10" class="node"><title>Node10</title>
<polygon fill="white" stroke="#bfbfbf" points="178.5,-232.5 178.5,-251.5 207.5,-251.5 207.5,-232.5 178.5,-232.5"/>
<text text-anchor="middle" x="193" y="-239.5" font-family="Helvetica,sans-Serif" font-size="10.00">int</text>
</g>
<!-- Node10&#45;&gt;Node1 -->
<g id="edge16" class="edge"><title>Node10&#45;&gt;Node1</title>
<path fill="none" stroke="#9a32cd" stroke-dasharray="5,2" d="M218.115,-242C284.67,-242 470.265,-242 534.933,-242"/>
<polygon fill="#9a32cd" stroke="#9a32cd" points="217.806,-238.5 207.806,-242 217.806,-245.5 217.806,-238.5"/>
<text text-anchor="middle" x="397.5" y="-278" font-family="Helvetica,sans-Serif" font-size="10.00"> endPoint</text>
<text text-anchor="middle" x="397.5" y="-267" font-family="Helvetica,sans-Serif" font-size="10.00">baseHP</text>
<text text-anchor="middle" x="397.5" y="-256" font-family="Helvetica,sans-Serif" font-size="10.00">quant</text>
<text text-anchor="middle" x="397.5" y="-245" font-family="Helvetica,sans-Serif" font-size="10.00">enemyIndex</text>
</g>
<!-- Node10&#45;&gt;Node8 -->
<g id="edge11" class="edge"><title>Node10&#45;&gt;Node8</title>
<path fill="none" stroke="#9a32cd" stroke-dasharray="5,2" d="M217.764,-238.119C231.935,-234.788 249.534,-228.75 262,-218 274.949,-206.834 267.083,-195.203 280,-184 302.834,-164.196 316.009,-172.404 344,-161 354.952,-156.538 366.962,-151.09 376.727,-146.514"/>
<polygon fill="#9a32cd" stroke="#9a32cd" points="216.833,-234.737 207.738,-240.172 218.237,-241.595 216.833,-234.737"/>
<text text-anchor="middle" x="312" y="-220" font-family="Helvetica,sans-Serif" font-size="10.00"> width</text>
<text text-anchor="middle" x="312" y="-209" font-family="Helvetica,sans-Serif" font-size="10.00">currentFrame</text>
<text text-anchor="middle" x="312" y="-198" font-family="Helvetica,sans-Serif" font-size="10.00">height</text>
<text text-anchor="middle" x="312" y="-187" font-family="Helvetica,sans-Serif" font-size="10.00">frameCount</text>
</g>
<!-- Node11 -->
<g id="node11" class="node"><title>Node11</title>
<polygon fill="white" stroke="#bfbfbf" points="124,-114.5 124,-133.5 262,-133.5 262,-114.5 124,-114.5"/>
<text text-anchor="middle" x="193" y="-121.5" font-family="Helvetica,sans-Serif" font-size="10.00">shared_ptr&lt; SDL_Texture &gt;</text>
</g>
<!-- Node11&#45;&gt;Node8 -->
<g id="edge12" class="edge"><title>Node11&#45;&gt;Node8</title>
<path fill="none" stroke="#9a32cd" stroke-dasharray="5,2" d="M272.265,-121.304C295.424,-121.373 320.79,-122.303 344,-125 354.773,-126.252 366.562,-128.833 376.235,-131.282"/>
<polygon fill="#9a32cd" stroke="#9a32cd" points="272.134,-117.804 262.142,-121.327 272.15,-124.804 272.134,-117.804"/>
<text text-anchor="middle" x="312" y="-128" font-family="Helvetica,sans-Serif" font-size="10.00"> texture</text>
</g>
<!-- Node12 -->
<g id="node12" class="node"><title>Node12</title>
<polygon fill="white" stroke="#bfbfbf" points="148,-76.5 148,-95.5 238,-95.5 238,-76.5 148,-76.5"/>
<text text-anchor="middle" x="193" y="-83.5" font-family="Helvetica,sans-Serif" font-size="10.00">SDL_BlendMode</text>
</g>
<!-- Node12&#45;&gt;Node8 -->
<g id="edge13" class="edge"><title>Node12&#45;&gt;Node8</title>
<path fill="none" stroke="#9a32cd" stroke-dasharray="5,2" d="M248.274,-87.314C277.431,-89.4728 313.54,-94.5253 344,-106 352.998,-109.39 353.782,-113.01 362,-118 367.26,-121.194 373.086,-124.491 378.429,-127.423"/>
<polygon fill="#9a32cd" stroke="#9a32cd" points="248.478,-83.8199 238.272,-86.6652 248.025,-90.8052 248.478,-83.8199"/>
<text text-anchor="middle" x="312" y="-109" font-family="Helvetica,sans-Serif" font-size="10.00"> blendMode</text>
</g>
<!-- Node13 -->
<g id="node13" class="node"><title>Node13</title>
<g id="a_node13"><a xlink:href="structColor.html" target="_top" xlink:title="Struct para armazenar informações de cor. ">
<polygon fill="white" stroke="black" points="173,-0.5 173,-19.5 213,-19.5 213,-0.5 173,-0.5"/>
<text text-anchor="middle" x="193" y="-7.5" font-family="Helvetica,sans-Serif" font-size="10.00">Color</text>
</a>
</g>
</g>
<!-- Node13&#45;&gt;Node8 -->
<g id="edge14" class="edge"><title>Node13&#45;&gt;Node8</title>
<path fill="none" stroke="#9a32cd" stroke-dasharray="5,2" d="M223.17,-6.25817C256.86,-3.68871 311.772,-5.17353 344,-36 370.964,-61.7907 339.665,-88.1109 362,-118 365.684,-122.93 371.041,-126.742 376.441,-129.612"/>
<polygon fill="#9a32cd" stroke="#9a32cd" points="222.665,-2.78998 213.033,-7.20282 223.315,-9.75978 222.665,-2.78998"/>
<text text-anchor="middle" x="312" y="-39" font-family="Helvetica,sans-Serif" font-size="10.00"> colorMultiplier</text>
</g>
<!-- Node14 -->
<g id="node14" class="node"><title>Node14</title>
<polygon fill="white" stroke="#bfbfbf" points="0,-0.5 0,-19.5 77,-19.5 77,-0.5 0,-0.5"/>
<text text-anchor="middle" x="38.5" y="-7.5" font-family="Helvetica,sans-Serif" font-size="10.00">unsigned char</text>
</g>
<!-- Node14&#45;&gt;Node13 -->
<g id="edge15" class="edge"><title>Node14&#45;&gt;Node13</title>
<path fill="none" stroke="#9a32cd" stroke-dasharray="5,2" d="M87.5118,-10C116.384,-10 151.546,-10 172.831,-10"/>
<polygon fill="#9a32cd" stroke="#9a32cd" points="87.1967,-6.5001 77.1966,-10 87.1966,-13.5001 87.1967,-6.5001"/>
<text text-anchor="middle" x="100.5" y="-46" font-family="Helvetica,sans-Serif" font-size="10.00"> g</text>
<text text-anchor="middle" x="100.5" y="-35" font-family="Helvetica,sans-Serif" font-size="10.00">a</text>
<text text-anchor="middle" x="100.5" y="-24" font-family="Helvetica,sans-Serif" font-size="10.00">r</text>
<text text-anchor="middle" x="100.5" y="-13" font-family="Helvetica,sans-Serif" font-size="10.00">b</text>
</g>
</g>
</svg>
