<?xml version="1.0" encoding="UTF-8" standalone="no"?>
<!DOCTYPE svg PUBLIC "-//W3C//DTD SVG 1.1//EN"
 "http://www.w3.org/Graphics/SVG/1.1/DTD/svg11.dtd">
<!-- Generated by graphviz version 2.36.0 (20140111.2315)
 -->
<!-- Title: Shooter Pages: 1 -->
<svg width="771pt" height="306pt"
 viewBox="0.00 0.00 771.00 306.00" xmlns="http://www.w3.org/2000/svg" xmlns:xlink="http://www.w3.org/1999/xlink">
<g id="graph0" class="graph" transform="scale(1 1) rotate(0) translate(4 302)">
<title>Shooter</title>
<polygon fill="white" stroke="none" points="-4,4 -4,-302 767,-302 767,4 -4,4"/>
<!-- Node1 -->
<g id="node1" class="node"><title>Node1</title>
<polygon fill="#bfbfbf" stroke="black" points="414,-0.5 414,-19.5 464,-19.5 464,-0.5 414,-0.5"/>
<text text-anchor="middle" x="439" y="-7.5" font-family="Helvetica,sans-Serif" font-size="10.00">Shooter</text>
</g>
<!-- Node2 -->
<g id="node2" class="node"><title>Node2</title>
<g id="a_node2"><a xlink:href="classComponent.html" target="_top" xlink:title="Modela os componentes. ">
<polygon fill="white" stroke="black" points="-0.5,-78.5 -0.5,-97.5 66.5,-97.5 66.5,-78.5 -0.5,-78.5"/>
<text text-anchor="middle" x="33" y="-85.5" font-family="Helvetica,sans-Serif" font-size="10.00">Component</text>
</a>
</g>
</g>
<!-- Node2&#45;&gt;Node1 -->
<g id="edge1" class="edge"><title>Node2&#45;&gt;Node1</title>
<path fill="none" stroke="midnightblue" d="M44.5327,-69.9959C53.1539,-58.8039 66.0057,-44.9766 81,-38 140.267,-10.4242 342.744,-9.91067 413.971,-10.6252"/>
<polygon fill="midnightblue" stroke="midnightblue" points="41.6022,-68.0752 38.5656,-78.2256 47.2693,-72.1843 41.6022,-68.0752"/>
</g>
<!-- Node3 -->
<g id="node3" class="node"><title>Node3</title>
<g id="a_node3"><a xlink:href="classGameObject.html" target="_top" xlink:title="Classe virtual que especifica o funcionamento de um GameObject. ">
<polygon fill="white" stroke="black" points="360.5,-78.5 360.5,-97.5 431.5,-97.5 431.5,-78.5 360.5,-78.5"/>
<text text-anchor="middle" x="396" y="-85.5" font-family="Helvetica,sans-Serif" font-size="10.00">GameObject</text>
</a>
</g>
</g>
<!-- Node3&#45;&gt;Node1 -->
<g id="edge2" class="edge"><title>Node3&#45;&gt;Node1</title>
<path fill="none" stroke="#9a32cd" stroke-dasharray="5,2" d="M399.351,-68.427C401.64,-58.8491 405.315,-47.2656 411,-38 415.308,-30.9777 421.87,-24.5165 427.558,-19.6765"/>
<polygon fill="#9a32cd" stroke="#9a32cd" points="395.867,-67.9878 397.263,-78.4903 402.722,-69.4097 395.867,-67.9878"/>
<text text-anchor="middle" x="435" y="-52" font-family="Helvetica,sans-Serif" font-size="10.00"> target</text>
<text text-anchor="middle" x="435" y="-41" font-family="Helvetica,sans-Serif" font-size="10.00">associated</text>
</g>
<!-- Node4 -->
<g id="node4" class="node"><title>Node4</title>
<g id="a_node4"><a xlink:href="classRect.html" target="_top" xlink:title="Classe que modela um rect. ">
<polygon fill="white" stroke="black" points="404,-178.5 404,-197.5 442,-197.5 442,-178.5 404,-178.5"/>
<text text-anchor="middle" x="423" y="-185.5" font-family="Helvetica,sans-Serif" font-size="10.00">Rect</text>
</a>
</g>
</g>
<!-- Node4&#45;&gt;Node3 -->
<g id="edge3" class="edge"><title>Node4&#45;&gt;Node3</title>
<path fill="none" stroke="#9a32cd" stroke-dasharray="5,2" d="M404.188,-171.249C401.269,-167.859 398.671,-164.062 397,-160 388.37,-139.023 391.629,-111.522 394.145,-97.7116"/>
<polygon fill="#9a32cd" stroke="#9a32cd" points="401.75,-173.76 411.298,-178.351 406.696,-168.807 401.75,-173.76"/>
<text text-anchor="middle" x="406.5" y="-135.5" font-family="Helvetica,sans-Serif" font-size="10.00"> box</text>
</g>
<!-- Node5 -->
<g id="node5" class="node"><title>Node5</title>
<polygon fill="white" stroke="#bfbfbf" points="171.5,-278.5 171.5,-297.5 206.5,-297.5 206.5,-278.5 171.5,-278.5"/>
<text text-anchor="middle" x="189" y="-285.5" font-family="Helvetica,sans-Serif" font-size="10.00">float</text>
</g>
<!-- Node5&#45;&gt;Node1 -->
<g id="edge8" class="edge"><title>Node5&#45;&gt;Node1</title>
<path fill="none" stroke="#9a32cd" stroke-dasharray="5,2" d="M168.718,-272.015C130.195,-241.701 53.4992,-171.285 91,-116 128.374,-60.902 340.548,-25.2993 413.986,-14.4852"/>
<polygon fill="#9a32cd" stroke="#9a32cd" points="166.676,-274.86 176.737,-278.181 170.943,-269.311 166.676,-274.86"/>
<text text-anchor="middle" x="135" y="-152" font-family="Helvetica,sans-Serif" font-size="10.00"> bulletMaxDistance</text>
<text text-anchor="middle" x="135" y="-141" font-family="Helvetica,sans-Serif" font-size="10.00">range</text>
<text text-anchor="middle" x="135" y="-130" font-family="Helvetica,sans-Serif" font-size="10.00">bulletSpeed</text>
<text text-anchor="middle" x="135" y="-119" font-family="Helvetica,sans-Serif" font-size="10.00">betweetShootsTime</text>
</g>
<!-- Node5&#45;&gt;Node3 -->
<g id="edge5" class="edge"><title>Node5&#45;&gt;Node3</title>
<path fill="none" stroke="#9a32cd" stroke-dasharray="5,2" d="M195.315,-268.447C196.238,-265.624 197.16,-262.74 198,-260 209.099,-223.813 198.464,-208.411 221,-178 255.095,-131.993 319.806,-108.041 360.267,-97.0105"/>
<polygon fill="#9a32cd" stroke="#9a32cd" points="191.961,-267.441 192.109,-278.035 198.6,-269.661 191.961,-267.441"/>
<text text-anchor="middle" x="239" y="-185.5" font-family="Helvetica,sans-Serif" font-size="10.00"> rotation</text>
</g>
<!-- Node5&#45;&gt;Node4 -->
<g id="edge4" class="edge"><title>Node5&#45;&gt;Node4</title>
<path fill="none" stroke="#9a32cd" stroke-dasharray="5,2" d="M215.99,-275.697C263.838,-255.658 362.398,-214.38 403.907,-196.996"/>
<polygon fill="#9a32cd" stroke="#9a32cd" points="214.46,-272.543 206.588,-279.634 217.164,-278.999 214.46,-272.543"/>
<text text-anchor="middle" x="359.5" y="-252" font-family="Helvetica,sans-Serif" font-size="10.00"> w</text>
<text text-anchor="middle" x="359.5" y="-241" font-family="Helvetica,sans-Serif" font-size="10.00">x</text>
<text text-anchor="middle" x="359.5" y="-230" font-family="Helvetica,sans-Serif" font-size="10.00">h</text>
<text text-anchor="middle" x="359.5" y="-219" font-family="Helvetica,sans-Serif" font-size="10.00">y</text>
</g>
<!-- Node11 -->
<g id="node11" class="node"><title>Node11</title>
<g id="a_node11"><a xlink:href="classTimer.html" target="_top" xlink:title="Temporizador. ">
<polygon fill="white" stroke="black" points="188.5,-128.5 188.5,-147.5 229.5,-147.5 229.5,-128.5 188.5,-128.5"/>
<text text-anchor="middle" x="209" y="-135.5" font-family="Helvetica,sans-Serif" font-size="10.00">Timer</text>
</a>
</g>
</g>
<!-- Node5&#45;&gt;Node11 -->
<g id="edge14" class="edge"><title>Node5&#45;&gt;Node11</title>
<path fill="none" stroke="#9a32cd" stroke-dasharray="5,2" d="M179.155,-269.402C177.85,-266.35 176.718,-263.145 176,-260 171.649,-240.935 172.566,-235.252 176,-216 180.699,-189.655 195.691,-161.402 203.752,-147.595"/>
<polygon fill="#9a32cd" stroke="#9a32cd" points="176.026,-270.972 183.611,-278.369 182.295,-267.856 176.026,-270.972"/>
<text text-anchor="middle" x="187" y="-235.5" font-family="Helvetica,sans-Serif" font-size="10.00"> time</text>
</g>
<!-- Node6 -->
<g id="node6" class="node"><title>Node6</title>
<polygon fill="white" stroke="#bfbfbf" points="460.5,-178.5 460.5,-197.5 495.5,-197.5 495.5,-178.5 460.5,-178.5"/>
<text text-anchor="middle" x="478" y="-185.5" font-family="Helvetica,sans-Serif" font-size="10.00">bool</text>
</g>
<!-- Node6&#45;&gt;Node1 -->
<g id="edge10" class="edge"><title>Node6&#45;&gt;Node1</title>
<path fill="none" stroke="#9a32cd" stroke-dasharray="5,2" d="M478.592,-167.854C478.835,-138.727 476.694,-82.0207 459,-38 456.302,-31.2884 451.526,-24.744 447.317,-19.7794"/>
<polygon fill="#9a32cd" stroke="#9a32cd" points="475.086,-168.152 478.391,-178.218 482.085,-168.288 475.086,-168.152"/>
<text text-anchor="middle" x="490" y="-85.5" font-family="Helvetica,sans-Serif" font-size="10.00"> active</text>
</g>
<!-- Node6&#45;&gt;Node3 -->
<g id="edge6" class="edge"><title>Node6&#45;&gt;Node3</title>
<path fill="none" stroke="#9a32cd" stroke-dasharray="5,2" d="M453.333,-172.624C448.209,-168.931 443.121,-164.666 439,-160 424.393,-143.461 427.714,-134.7 416,-116 412.036,-109.672 407.036,-102.922 403.027,-97.7541"/>
<polygon fill="#9a32cd" stroke="#9a32cd" points="451.562,-175.649 461.827,-178.271 455.437,-169.82 451.562,-175.649"/>
<text text-anchor="middle" x="451.5" y="-135.5" font-family="Helvetica,sans-Serif" font-size="10.00"> dead</text>
</g>
<!-- Node7 -->
<g id="node7" class="node"><title>Node7</title>
<polygon fill="white" stroke="#bfbfbf" points="266.5,-178.5 266.5,-197.5 385.5,-197.5 385.5,-178.5 266.5,-178.5"/>
<text text-anchor="middle" x="326" y="-185.5" font-family="Helvetica,sans-Serif" font-size="10.00">vector&lt; Component * &gt;</text>
</g>
<!-- Node7&#45;&gt;Node3 -->
<g id="edge7" class="edge"><title>Node7&#45;&gt;Node3</title>
<path fill="none" stroke="#9a32cd" stroke-dasharray="5,2" d="M322.281,-168.199C320.318,-152.74 320.198,-131.013 331,-116 337.994,-106.279 349.159,-100.045 360.276,-96.051"/>
<polygon fill="#9a32cd" stroke="#9a32cd" points="318.842,-168.856 323.906,-178.162 325.75,-167.729 318.842,-168.856"/>
<text text-anchor="middle" x="359.5" y="-135.5" font-family="Helvetica,sans-Serif" font-size="10.00"> components</text>
</g>
<!-- Node8 -->
<g id="node8" class="node"><title>Node8</title>
<polygon fill="white" stroke="#bfbfbf" points="521.5,-78.5 521.5,-97.5 562.5,-97.5 562.5,-78.5 521.5,-78.5"/>
<text text-anchor="middle" x="542" y="-85.5" font-family="Helvetica,sans-Serif" font-size="10.00">string</text>
</g>
<!-- Node8&#45;&gt;Node1 -->
<g id="edge9" class="edge"><title>Node8&#45;&gt;Node1</title>
<path fill="none" stroke="#9a32cd" stroke-dasharray="5,2" d="M526.281,-71.3369C515.678,-61.201 501.099,-48.0672 487,-38 477.351,-31.1105 465.788,-24.5605 456.429,-19.6375"/>
<polygon fill="#9a32cd" stroke="#9a32cd" points="523.933,-73.9358 533.54,-78.403 528.815,-68.9198 523.933,-73.9358"/>
<text text-anchor="middle" x="540" y="-52" font-family="Helvetica,sans-Serif" font-size="10.00"> bulletSprite</text>
<text text-anchor="middle" x="540" y="-41" font-family="Helvetica,sans-Serif" font-size="10.00">targetType</text>
</g>
<!-- Node9 -->
<g id="node9" class="node"><title>Node9</title>
<g id="a_node9"><a xlink:href="classNearestGOFinder.html" target="_top" xlink:title="NearestGOFinder">
<polygon fill="white" stroke="black" points="580.5,-78.5 580.5,-97.5 673.5,-97.5 673.5,-78.5 580.5,-78.5"/>
<text text-anchor="middle" x="627" y="-85.5" font-family="Helvetica,sans-Serif" font-size="10.00">NearestGOFinder</text>
</a>
</g>
</g>
<!-- Node9&#45;&gt;Node1 -->
<g id="edge11" class="edge"><title>Node9&#45;&gt;Node1</title>
<path fill="none" stroke="#9a32cd" stroke-dasharray="5,2" d="M612.6,-70.9012C601.911,-59.9585 586.399,-46.057 570,-38 535.82,-21.2072 491.671,-14.8494 464.353,-12.4485"/>
<polygon fill="#9a32cd" stroke="#9a32cd" points="610.077,-73.3277 619.475,-78.2204 615.18,-68.5352 610.077,-73.3277"/>
<text text-anchor="middle" x="615" y="-46.5" font-family="Helvetica,sans-Serif" font-size="10.00"> finder</text>
</g>
<!-- Node10 -->
<g id="node10" class="node"><title>Node10</title>
<polygon fill="white" stroke="#bfbfbf" points="691.5,-78.5 691.5,-97.5 762.5,-97.5 762.5,-78.5 691.5,-78.5"/>
<text text-anchor="middle" x="727" y="-85.5" font-family="Helvetica,sans-Serif" font-size="10.00">TargetPolicy</text>
</g>
<!-- Node10&#45;&gt;Node1 -->
<g id="edge12" class="edge"><title>Node10&#45;&gt;Node1</title>
<path fill="none" stroke="#9a32cd" stroke-dasharray="5,2" d="M705.414,-73.0114C686.939,-61.7237 659.243,-46.3892 633,-38 574.373,-19.2587 501.669,-13.5216 464.101,-11.7687"/>
<polygon fill="#9a32cd" stroke="#9a32cd" points="703.601,-76.0055 713.937,-78.333 707.308,-70.0678 703.601,-76.0055"/>
<text text-anchor="middle" x="695.5" y="-46.5" font-family="Helvetica,sans-Serif" font-size="10.00"> policy</text>
</g>
<!-- Node11&#45;&gt;Node1 -->
<g id="edge13" class="edge"><title>Node11&#45;&gt;Node1</title>
<path fill="none" stroke="#9a32cd" stroke-dasharray="5,2" d="M220.091,-119.609C229.171,-106.591 243.083,-89.1736 259,-78 308.125,-43.5152 377.157,-24.4009 413.815,-16.091"/>
<polygon fill="#9a32cd" stroke="#9a32cd" points="217.023,-117.901 214.374,-128.159 222.842,-121.792 217.023,-117.901"/>
<text text-anchor="middle" x="305" y="-85.5" font-family="Helvetica,sans-Serif" font-size="10.00"> timerBetweetShoots</text>
</g>
</g>
</svg>
