<?xml version="1.0" encoding="UTF-8" standalone="no"?>
<!DOCTYPE svg PUBLIC "-//W3C//DTD SVG 1.1//EN"
 "http://www.w3.org/Graphics/SVG/1.1/DTD/svg11.dtd">
<!-- Generated by graphviz version 2.36.0 (20140111.2315)
 -->
<!-- Title: TileMap Pages: 1 -->
<svg width="646pt" height="320pt"
 viewBox="0.00 0.00 646.00 320.00" xmlns="http://www.w3.org/2000/svg" xmlns:xlink="http://www.w3.org/1999/xlink">
<g id="graph0" class="graph" transform="scale(1 1) rotate(0) translate(4 316)">
<title>TileMap</title>
<polygon fill="white" stroke="none" points="-4,4 -4,-316 642,-316 642,4 -4,4"/>
<!-- Node1 -->
<g id="node1" class="node"><title>Node1</title>
<polygon fill="#bfbfbf" stroke="black" points="402.5,-0.5 402.5,-19.5 453.5,-19.5 453.5,-0.5 402.5,-0.5"/>
<text text-anchor="middle" x="428" y="-7.5" font-family="Helvetica,sans-Serif" font-size="10.00">TileMap</text>
</g>
<!-- Node2 -->
<g id="node2" class="node"><title>Node2</title>
<g id="a_node2"><a xlink:href="classTileSet.html" target="_top" xlink:title="Classe responsável por modelar um tileset. ">
<polygon fill="white" stroke="black" points="299.5,-78.5 299.5,-97.5 346.5,-97.5 346.5,-78.5 299.5,-78.5"/>
<text text-anchor="middle" x="323" y="-85.5" font-family="Helvetica,sans-Serif" font-size="10.00">TileSet</text>
</a>
</g>
</g>
<!-- Node2&#45;&gt;Node1 -->
<g id="edge1" class="edge"><title>Node2&#45;&gt;Node1</title>
<path fill="none" stroke="#9a32cd" stroke-dasharray="5,2" d="M329.506,-69.1173C334.091,-58.7561 341.175,-46.1827 351,-38 365.586,-25.8519 386,-19.0237 402.143,-15.2745"/>
<polygon fill="#9a32cd" stroke="#9a32cd" points="326.219,-67.9124 325.746,-78.4967 332.716,-70.5173 326.219,-67.9124"/>
<text text-anchor="middle" x="366.5" y="-46.5" font-family="Helvetica,sans-Serif" font-size="10.00"> tileSet</text>
</g>
<!-- Node3 -->
<g id="node3" class="node"><title>Node3</title>
<g id="a_node3"><a xlink:href="classSprite.html" target="_top" xlink:title="Classe que modela uma sprite. ">
<polygon fill="white" stroke="black" points="172,-180.5 172,-199.5 214,-199.5 214,-180.5 172,-180.5"/>
<text text-anchor="middle" x="193" y="-187.5" font-family="Helvetica,sans-Serif" font-size="10.00">Sprite</text>
</a>
</g>
</g>
<!-- Node3&#45;&gt;Node2 -->
<g id="edge2" class="edge"><title>Node3&#45;&gt;Node2</title>
<path fill="none" stroke="#9a32cd" stroke-dasharray="5,2" d="M209.751,-173.117C226.408,-157.692 253.014,-134.027 278,-116 287.31,-109.283 298.356,-102.638 307.175,-97.6201"/>
<polygon fill="#9a32cd" stroke="#9a32cd" points="206.921,-170.972 202.009,-180.359 211.703,-176.084 206.921,-170.972"/>
<text text-anchor="middle" x="293.5" y="-130.5" font-family="Helvetica,sans-Serif" font-size="10.00"> tileSet</text>
</g>
<!-- Node4 -->
<g id="node4" class="node"><title>Node4</title>
<polygon fill="white" stroke="#bfbfbf" points="-0.5,-292.5 -0.5,-311.5 34.5,-311.5 34.5,-292.5 -0.5,-292.5"/>
<text text-anchor="middle" x="17" y="-299.5" font-family="Helvetica,sans-Serif" font-size="10.00">float</text>
</g>
<!-- Node4&#45;&gt;Node3 -->
<g id="edge3" class="edge"><title>Node4&#45;&gt;Node3</title>
<path fill="none" stroke="#9a32cd" stroke-dasharray="5,2" d="M21.3135,-282.201C25.9735,-266.076 34.981,-243.387 51,-230 86.2135,-200.573 141.859,-193.239 171.971,-191.483"/>
<polygon fill="#9a32cd" stroke="#9a32cd" points="17.8635,-281.562 18.7491,-292.12 24.6407,-283.315 17.8635,-281.562"/>
<text text-anchor="middle" x="78.5" y="-266" font-family="Helvetica,sans-Serif" font-size="10.00"> scaleY</text>
<text text-anchor="middle" x="78.5" y="-255" font-family="Helvetica,sans-Serif" font-size="10.00">frameTime</text>
<text text-anchor="middle" x="78.5" y="-244" font-family="Helvetica,sans-Serif" font-size="10.00">timeElapsed</text>
<text text-anchor="middle" x="78.5" y="-233" font-family="Helvetica,sans-Serif" font-size="10.00">scaleX</text>
</g>
<!-- Node5 -->
<g id="node5" class="node"><title>Node5</title>
<polygon fill="white" stroke="#bfbfbf" points="58,-292.5 58,-311.5 120,-311.5 120,-292.5 58,-292.5"/>
<text text-anchor="middle" x="89" y="-299.5" font-family="Helvetica,sans-Serif" font-size="10.00">SDL_Rect</text>
</g>
<!-- Node5&#45;&gt;Node3 -->
<g id="edge4" class="edge"><title>Node5&#45;&gt;Node3</title>
<path fill="none" stroke="#9a32cd" stroke-dasharray="5,2" d="M101.154,-283.957C112.13,-269.053 129.107,-247.169 146,-230 157.155,-218.663 171.374,-207.222 181.236,-199.691"/>
<polygon fill="#9a32cd" stroke="#9a32cd" points="98.1905,-282.081 95.1493,-292.23 103.856,-286.193 98.1905,-282.081"/>
<text text-anchor="middle" x="166" y="-249.5" font-family="Helvetica,sans-Serif" font-size="10.00"> clipRect</text>
</g>
<!-- Node6 -->
<g id="node6" class="node"><title>Node6</title>
<polygon fill="white" stroke="#bfbfbf" points="308.5,-292.5 308.5,-311.5 337.5,-311.5 337.5,-292.5 308.5,-292.5"/>
<text text-anchor="middle" x="323" y="-299.5" font-family="Helvetica,sans-Serif" font-size="10.00">int</text>
</g>
<!-- Node6&#45;&gt;Node1 -->
<g id="edge10" class="edge"><title>Node6&#45;&gt;Node1</title>
<path fill="none" stroke="#9a32cd" stroke-dasharray="5,2" d="M333.941,-283.965C344.797,-266.473 361.315,-238.18 372,-212 401.293,-140.226 420.744,-47.9922 426.338,-19.6597"/>
<polygon fill="#9a32cd" stroke="#9a32cd" points="330.939,-282.165 328.566,-292.491 336.86,-285.898 330.939,-282.165"/>
<text text-anchor="middle" x="428.5" y="-141.5" font-family="Helvetica,sans-Serif" font-size="10.00"> mapDepth</text>
<text text-anchor="middle" x="428.5" y="-130.5" font-family="Helvetica,sans-Serif" font-size="10.00">mapHeight</text>
<text text-anchor="middle" x="428.5" y="-119.5" font-family="Helvetica,sans-Serif" font-size="10.00">mapWidth</text>
</g>
<!-- Node6&#45;&gt;Node2 -->
<g id="edge7" class="edge"><title>Node6&#45;&gt;Node2</title>
<path fill="none" stroke="#9a32cd" stroke-dasharray="5,2" d="M323,-282.289C323,-238.326 323,-129.759 323,-97.915"/>
<polygon fill="#9a32cd" stroke="#9a32cd" points="319.5,-282.427 323,-292.427 326.5,-282.427 319.5,-282.427"/>
<text text-anchor="middle" x="345.5" y="-204" font-family="Helvetica,sans-Serif" font-size="10.00"> tileHeight</text>
<text text-anchor="middle" x="345.5" y="-193" font-family="Helvetica,sans-Serif" font-size="10.00">rows</text>
<text text-anchor="middle" x="345.5" y="-182" font-family="Helvetica,sans-Serif" font-size="10.00">tileWidth</text>
<text text-anchor="middle" x="345.5" y="-171" font-family="Helvetica,sans-Serif" font-size="10.00">columns</text>
</g>
<!-- Node6&#45;&gt;Node3 -->
<g id="edge5" class="edge"><title>Node6&#45;&gt;Node3</title>
<path fill="none" stroke="#9a32cd" stroke-dasharray="5,2" d="M298.637,-293.919C280.734,-288.343 258.308,-280.461 251,-274 234.468,-259.384 240.578,-248.13 228,-230 220.221,-218.788 209.542,-207.325 202.032,-199.755"/>
<polygon fill="#9a32cd" stroke="#9a32cd" points="297.664,-297.282 308.249,-296.832 299.694,-290.583 297.664,-297.282"/>
<text text-anchor="middle" x="280" y="-266" font-family="Helvetica,sans-Serif" font-size="10.00"> width</text>
<text text-anchor="middle" x="280" y="-255" font-family="Helvetica,sans-Serif" font-size="10.00">currentFrame</text>
<text text-anchor="middle" x="280" y="-244" font-family="Helvetica,sans-Serif" font-size="10.00">height</text>
<text text-anchor="middle" x="280" y="-233" font-family="Helvetica,sans-Serif" font-size="10.00">frameCount</text>
</g>
<!-- Node7 -->
<g id="node7" class="node"><title>Node7</title>
<polygon fill="white" stroke="#bfbfbf" points="138,-292.5 138,-311.5 276,-311.5 276,-292.5 138,-292.5"/>
<text text-anchor="middle" x="207" y="-299.5" font-family="Helvetica,sans-Serif" font-size="10.00">shared_ptr&lt; SDL_Texture &gt;</text>
</g>
<!-- Node7&#45;&gt;Node3 -->
<g id="edge6" class="edge"><title>Node7&#45;&gt;Node3</title>
<path fill="none" stroke="#9a32cd" stroke-dasharray="5,2" d="M197.187,-283.394C195.879,-280.343 194.737,-277.14 194,-274 187.813,-247.624 190.174,-215.225 191.865,-199.874"/>
<polygon fill="#9a32cd" stroke="#9a32cd" points="194.058,-284.963 201.64,-292.362 200.328,-281.849 194.058,-284.963"/>
<text text-anchor="middle" x="211" y="-249.5" font-family="Helvetica,sans-Serif" font-size="10.00"> texture</text>
</g>
<!-- Node8 -->
<g id="node8" class="node"><title>Node8</title>
<polygon fill="white" stroke="#bfbfbf" points="424,-78.5 424,-97.5 496,-97.5 496,-78.5 424,-78.5"/>
<text text-anchor="middle" x="460" y="-85.5" font-family="Helvetica,sans-Serif" font-size="10.00">vector&lt; int &gt;</text>
</g>
<!-- Node8&#45;&gt;Node1 -->
<g id="edge8" class="edge"><title>Node8&#45;&gt;Node1</title>
<path fill="none" stroke="#9a32cd" stroke-dasharray="5,2" d="M452.284,-68.6744C445.732,-53.1127 436.62,-31.4722 431.628,-19.6165"/>
<polygon fill="#9a32cd" stroke="#9a32cd" points="449.223,-70.4237 456.329,-78.2818 455.674,-67.7073 449.223,-70.4237"/>
<text text-anchor="middle" x="483" y="-52" font-family="Helvetica,sans-Serif" font-size="10.00"> tileMatrix</text>
<text text-anchor="middle" x="483" y="-41" font-family="Helvetica,sans-Serif" font-size="10.00">collisionTileMap</text>
</g>
<!-- Node9 -->
<g id="node9" class="node"><title>Node9</title>
<polygon fill="white" stroke="#bfbfbf" points="514.5,-78.5 514.5,-97.5 637.5,-97.5 637.5,-78.5 514.5,-78.5"/>
<text text-anchor="middle" x="576" y="-85.5" font-family="Helvetica,sans-Serif" font-size="10.00">vector&lt; GameObject * &gt;</text>
</g>
<!-- Node9&#45;&gt;Node1 -->
<g id="edge9" class="edge"><title>Node9&#45;&gt;Node1</title>
<path fill="none" stroke="#9a32cd" stroke-dasharray="5,2" d="M562.029,-70.9372C551.899,-60.2062 537.334,-46.5429 522,-38 500.493,-26.0177 473.192,-18.947 453.561,-15.0682"/>
<polygon fill="#9a32cd" stroke="#9a32cd" points="559.533,-73.395 568.851,-78.4382 564.712,-68.6852 559.533,-73.395"/>
<text text-anchor="middle" x="592.5" y="-46.5" font-family="Helvetica,sans-Serif" font-size="10.00"> gameObjectMatrix</text>
</g>
</g>
</svg>
