<?xml version="1.0" encoding="UTF-8" standalone="no"?>
<!DOCTYPE svg PUBLIC "-//W3C//DTD SVG 1.1//EN"
 "http://www.w3.org/Graphics/SVG/1.1/DTD/svg11.dtd">
<!-- Generated by graphviz version 2.38.0 (20140413.2041)
 -->
<!-- Title: StageState Pages: 1 -->
<svg width="944pt" height="603pt"
 viewBox="0.00 0.00 944.00 602.50" xmlns="http://www.w3.org/2000/svg" xmlns:xlink="http://www.w3.org/1999/xlink">
<g id="graph0" class="graph" transform="scale(1 1) rotate(0) translate(4 598.5)">
<title>StageState</title>
<polygon fill="white" stroke="none" points="-4,4 -4,-598.5 940,-598.5 940,4 -4,4"/>
<!-- Node2 -->
<g id="node1" class="node"><title>Node2</title>
<polygon fill="#bfbfbf" stroke="black" points="871,-216.5 871,-235.5 936,-235.5 936,-216.5 871,-216.5"/>
<text text-anchor="middle" x="903.5" y="-223.5" font-family="Helvetica,sans-Serif" font-size="10.00">StageState</text>
</g>
<!-- Node3 -->
<g id="node2" class="node"><title>Node3</title>
<g id="a_node2"><a xlink:href="classState.html" target="_top" xlink:title="Classe virtual que modela um estado do jogo. ">
<polygon fill="white" stroke="black" points="692.5,-524.5 692.5,-543.5 732.5,-543.5 732.5,-524.5 692.5,-524.5"/>
<text text-anchor="middle" x="712.5" y="-531.5" font-family="Helvetica,sans-Serif" font-size="10.00">State</text>
</a>
</g>
</g>
<!-- Node3&#45;&gt;Node2 -->
<g id="edge1" class="edge"><title>Node3&#45;&gt;Node2</title>
<path fill="none" stroke="midnightblue" d="M742.409,-524.915C774.523,-513.283 825.466,-489.963 853,-452 903.938,-381.769 904.158,-269.16 902.983,-235.685"/>
<polygon fill="midnightblue" stroke="midnightblue" points="740.998,-521.7 732.697,-528.285 743.292,-528.313 740.998,-521.7"/>
</g>
<!-- Node4 -->
<g id="node3" class="node"><title>Node4</title>
<polygon fill="white" stroke="#bfbfbf" points="408.5,-564 408.5,-594 523.5,-594 523.5,-564 408.5,-564"/>
<text text-anchor="start" x="416.5" y="-582" font-family="Helvetica,sans-Serif" font-size="10.00">vector&lt; std::unique</text>
<text text-anchor="middle" x="466" y="-571" font-family="Helvetica,sans-Serif" font-size="10.00">_ptr&lt; GameObject &gt; &gt;</text>
</g>
<!-- Node4&#45;&gt;Node3 -->
<g id="edge2" class="edge"><title>Node4&#45;&gt;Node3</title>
<path fill="none" stroke="#9a32cd" stroke-dasharray="5,2" d="M534.059,-572.863C565.258,-569.347 602.74,-564.179 636,-557 655.555,-552.779 677.362,-545.892 692.492,-540.752"/>
<polygon fill="#9a32cd" stroke="#9a32cd" points="533.295,-569.426 523.735,-573.993 534.056,-576.384 533.295,-569.426"/>
<text text-anchor="middle" x="592" y="-574" font-family="Helvetica,sans-Serif" font-size="10.00"> objectArray</text>
</g>
<!-- Node5 -->
<g id="node4" class="node"><title>Node5</title>
<polygon fill="white" stroke="#bfbfbf" points="448.5,-473.5 448.5,-492.5 483.5,-492.5 483.5,-473.5 448.5,-473.5"/>
<text text-anchor="middle" x="466" y="-480.5" font-family="Helvetica,sans-Serif" font-size="10.00">bool</text>
</g>
<!-- Node5&#45;&gt;Node3 -->
<g id="edge3" class="edge"><title>Node5&#45;&gt;Node3</title>
<path fill="none" stroke="#9a32cd" stroke-dasharray="5,2" d="M493.188,-491.661C508.944,-496.645 529.473,-502.743 548,-507 599.592,-518.855 661.485,-527.617 692.219,-531.607"/>
<polygon fill="#9a32cd" stroke="#9a32cd" points="494.185,-488.305 483.593,-488.577 492.043,-494.969 494.185,-488.305"/>
<text text-anchor="middle" x="592" y="-536" font-family="Helvetica,sans-Serif" font-size="10.00"> quitRequested</text>
<text text-anchor="middle" x="592" y="-525" font-family="Helvetica,sans-Serif" font-size="10.00">popRequested</text>
</g>
<!-- Node15 -->
<g id="node14" class="node"><title>Node15</title>
<g id="a_node14"><a xlink:href="classTileMap.html" target="_top" xlink:title="Classe que modela o TileMap. ">
<polygon fill="white" stroke="black" points="687,-274.5 687,-293.5 738,-293.5 738,-274.5 687,-274.5"/>
<text text-anchor="middle" x="712.5" y="-281.5" font-family="Helvetica,sans-Serif" font-size="10.00">TileMap</text>
</a>
</g>
</g>
<!-- Node5&#45;&gt;Node15 -->
<g id="edge20" class="edge"><title>Node5&#45;&gt;Node15</title>
<path fill="none" stroke="#9a32cd" stroke-dasharray="5,2" d="M487.483,-466.709C519.369,-441.306 582.748,-390.639 636,-347 658.843,-328.28 685.292,-306.091 700.041,-293.67"/>
<polygon fill="#9a32cd" stroke="#9a32cd" points="485.002,-464.21 479.359,-473.177 489.363,-469.686 485.002,-464.21"/>
<text text-anchor="middle" x="592" y="-420" font-family="Helvetica,sans-Serif" font-size="10.00"> displayCollisionInfo</text>
</g>
<!-- Node18 -->
<g id="node17" class="node"><title>Node18</title>
<g id="a_node17"><a xlink:href="classInputManager.html" target="_top" xlink:title="Classe que organiza entradas do usuário. ">
<polygon fill="white" stroke="black" points="674.5,-430.5 674.5,-449.5 750.5,-449.5 750.5,-430.5 674.5,-430.5"/>
<text text-anchor="middle" x="712.5" y="-437.5" font-family="Helvetica,sans-Serif" font-size="10.00">InputManager</text>
</a>
</g>
</g>
<!-- Node5&#45;&gt;Node18 -->
<g id="edge25" class="edge"><title>Node5&#45;&gt;Node18</title>
<path fill="none" stroke="#9a32cd" stroke-dasharray="5,2" d="M493.74,-479.153C527.117,-474.254 585.916,-465.302 636,-456 648.515,-453.676 662.138,-450.873 674.324,-448.267"/>
<polygon fill="#9a32cd" stroke="#9a32cd" points="493.23,-475.691 483.839,-480.597 494.24,-482.617 493.23,-475.691"/>
<text text-anchor="middle" x="592" y="-495" font-family="Helvetica,sans-Serif" font-size="10.00"> keyState</text>
<text text-anchor="middle" x="592" y="-484" font-family="Helvetica,sans-Serif" font-size="10.00">quitRequested</text>
<text text-anchor="middle" x="592" y="-473" font-family="Helvetica,sans-Serif" font-size="10.00">mouseState</text>
</g>
<!-- Node6 -->
<g id="node5" class="node"><title>Node6</title>
<polygon fill="white" stroke="#bfbfbf" points="654,-101.5 654,-120.5 771,-120.5 771,-101.5 654,-101.5"/>
<text text-anchor="middle" x="712.5" y="-108.5" font-family="Helvetica,sans-Serif" font-size="10.00">vector&lt; vector&lt; int &gt; &gt;</text>
</g>
<!-- Node6&#45;&gt;Node2 -->
<g id="edge4" class="edge"><title>Node6&#45;&gt;Node2</title>
<path fill="none" stroke="#9a32cd" stroke-dasharray="5,2" d="M781.195,-108.862C805.697,-111.102 832.382,-117.35 853,-132 882.469,-152.938 895.829,-196.916 900.474,-216.38"/>
<polygon fill="#9a32cd" stroke="#9a32cd" points="781.437,-105.371 771.214,-108.153 780.941,-112.353 781.437,-105.371"/>
<text text-anchor="middle" x="821" y="-135" font-family="Helvetica,sans-Serif" font-size="10.00"> spawnGroups</text>
</g>
<!-- Node7 -->
<g id="node6" class="node"><title>Node7</title>
<g id="a_node6"><a xlink:href="classMusic.html" target="_top" xlink:title="Classe que modela músicas. ">
<polygon fill="white" stroke="black" points="691,-32.5 691,-51.5 734,-51.5 734,-32.5 691,-32.5"/>
<text text-anchor="middle" x="712.5" y="-39.5" font-family="Helvetica,sans-Serif" font-size="10.00">Music</text>
</a>
</g>
</g>
<!-- Node7&#45;&gt;Node2 -->
<g id="edge5" class="edge"><title>Node7&#45;&gt;Node2</title>
<path fill="none" stroke="#9a32cd" stroke-dasharray="5,2" d="M744.282,-46.2051C775.529,-52.0082 823.401,-65.3471 853,-95 888.039,-130.102 898.668,-192.447 901.54,-216.326"/>
<polygon fill="#9a32cd" stroke="#9a32cd" points="744.82,-42.7463 734.373,-44.5133 743.642,-49.6464 744.82,-42.7463"/>
<text text-anchor="middle" x="821" y="-98" font-family="Helvetica,sans-Serif" font-size="10.00"> music</text>
</g>
<!-- Node8 -->
<g id="node7" class="node"><title>Node8</title>
<polygon fill="white" stroke="#bfbfbf" points="402,-0.5 402,-19.5 530,-19.5 530,-0.5 402,-0.5"/>
<text text-anchor="middle" x="466" y="-7.5" font-family="Helvetica,sans-Serif" font-size="10.00">shared_ptr&lt; Mix_Music &gt;</text>
</g>
<!-- Node8&#45;&gt;Node7 -->
<g id="edge6" class="edge"><title>Node8&#45;&gt;Node7</title>
<path fill="none" stroke="#9a32cd" stroke-dasharray="5,2" d="M540.446,-19.6126C592.265,-26.3945 658.08,-35.0084 690.916,-39.306"/>
<polygon fill="#9a32cd" stroke="#9a32cd" points="540.652,-16.1098 530.283,-18.2824 539.744,-23.0506 540.652,-16.1098"/>
<text text-anchor="middle" x="592" y="-35" font-family="Helvetica,sans-Serif" font-size="10.00"> music</text>
</g>
<!-- Node9 -->
<g id="node8" class="node"><title>Node9</title>
<g id="a_node8"><a xlink:href="classSprite.html" target="_top" xlink:title="Classe que modela uma sprite. ">
<polygon fill="white" stroke="black" points="233.5,-203.5 233.5,-222.5 275.5,-222.5 275.5,-203.5 233.5,-203.5"/>
<text text-anchor="middle" x="254.5" y="-210.5" font-family="Helvetica,sans-Serif" font-size="10.00">Sprite</text>
</a>
</g>
</g>
<!-- Node9&#45;&gt;Node2 -->
<g id="edge7" class="edge"><title>Node9&#45;&gt;Node2</title>
<path fill="none" stroke="#9a32cd" stroke-dasharray="5,2" d="M285.992,-211.804C350.565,-209.463 505.858,-204.853 636,-209 721.03,-211.709 821.089,-219.269 870.943,-223.334"/>
<polygon fill="#9a32cd" stroke="#9a32cd" points="285.582,-208.316 275.719,-212.185 285.842,-215.311 285.582,-208.316"/>
<text text-anchor="middle" x="592" y="-212" font-family="Helvetica,sans-Serif" font-size="10.00"> bg</text>
</g>
<!-- Node14 -->
<g id="node13" class="node"><title>Node14</title>
<g id="a_node13"><a xlink:href="classTileSet.html" target="_top" xlink:title="Classe responsável por modelar um tileset. ">
<polygon fill="white" stroke="black" points="442.5,-338.5 442.5,-357.5 489.5,-357.5 489.5,-338.5 442.5,-338.5"/>
<text text-anchor="middle" x="466" y="-345.5" font-family="Helvetica,sans-Serif" font-size="10.00">TileSet</text>
</a>
</g>
</g>
<!-- Node9&#45;&gt;Node14 -->
<g id="edge13" class="edge"><title>Node9&#45;&gt;Node14</title>
<path fill="none" stroke="#9a32cd" stroke-dasharray="5,2" d="M285.704,-215.512C314.972,-219.574 358.56,-230.201 384,-258 405.978,-282.015 379.5,-305.473 402,-329 412.422,-339.898 428.847,-344.609 442.312,-346.616"/>
<polygon fill="#9a32cd" stroke="#9a32cd" points="285.978,-212.019 275.63,-214.293 285.137,-218.969 285.978,-212.019"/>
<text text-anchor="middle" x="339.5" y="-261" font-family="Helvetica,sans-Serif" font-size="10.00"> tileSet</text>
</g>
<!-- Node10 -->
<g id="node9" class="node"><title>Node10</title>
<polygon fill="white" stroke="#bfbfbf" points="51.5,-74.5 51.5,-93.5 86.5,-93.5 86.5,-74.5 51.5,-74.5"/>
<text text-anchor="middle" x="69" y="-81.5" font-family="Helvetica,sans-Serif" font-size="10.00">float</text>
</g>
<!-- Node10&#45;&gt;Node9 -->
<g id="edge8" class="edge"><title>Node10&#45;&gt;Node9</title>
<path fill="none" stroke="#9a32cd" stroke-dasharray="5,2" d="M96.6899,-89.3357C127.932,-96.7428 179.749,-112.78 214,-143 233.044,-159.802 244.974,-188.094 250.28,-203.046"/>
<polygon fill="#9a32cd" stroke="#9a32cd" points="97.0828,-85.837 86.5596,-87.0665 95.5527,-92.6678 97.0828,-85.837"/>
<text text-anchor="middle" x="185" y="-179" font-family="Helvetica,sans-Serif" font-size="10.00"> scaleY</text>
<text text-anchor="middle" x="185" y="-168" font-family="Helvetica,sans-Serif" font-size="10.00">frameTime</text>
<text text-anchor="middle" x="185" y="-157" font-family="Helvetica,sans-Serif" font-size="10.00">timeElapsed</text>
<text text-anchor="middle" x="185" y="-146" font-family="Helvetica,sans-Serif" font-size="10.00">scaleX</text>
</g>
<!-- Node19 -->
<g id="node18" class="node"><title>Node19</title>
<g id="a_node18"><a xlink:href="classVec2.html" target="_top" xlink:title="Classe que modela um vetor(no sentido físico) ">
<polygon fill="white" stroke="black" points="320,-380.5 320,-399.5 359,-399.5 359,-380.5 320,-380.5"/>
<text text-anchor="middle" x="339.5" y="-387.5" font-family="Helvetica,sans-Serif" font-size="10.00">Vec2</text>
</a>
</g>
</g>
<!-- Node10&#45;&gt;Node19 -->
<g id="edge23" class="edge"><title>Node10&#45;&gt;Node19</title>
<path fill="none" stroke="#9a32cd" stroke-dasharray="5,2" d="M96.8772,-76.1402C127.466,-68.8408 177.86,-61.9565 214,-83 263.021,-111.544 258.894,-140.242 277,-194 296.181,-250.947 273.121,-272.034 295,-328 303.043,-348.574 319.264,-368.846 329.465,-380.352"/>
<polygon fill="#9a32cd" stroke="#9a32cd" points="95.7532,-72.8152 86.9392,-78.6942 97.4957,-79.5949 95.7532,-72.8152"/>
<text text-anchor="middle" x="185" y="-97" font-family="Helvetica,sans-Serif" font-size="10.00"> x</text>
<text text-anchor="middle" x="185" y="-86" font-family="Helvetica,sans-Serif" font-size="10.00">y</text>
</g>
<!-- Node20 -->
<g id="node19" class="node"><title>Node20</title>
<g id="a_node19"><a xlink:href="classTimer.html" target="_top" xlink:title="Temporizador. ">
<polygon fill="white" stroke="black" points="571.5,-93.5 571.5,-112.5 612.5,-112.5 612.5,-93.5 571.5,-93.5"/>
<text text-anchor="middle" x="592" y="-100.5" font-family="Helvetica,sans-Serif" font-size="10.00">Timer</text>
</a>
</g>
</g>
<!-- Node10&#45;&gt;Node20 -->
<g id="edge27" class="edge"><title>Node10&#45;&gt;Node20</title>
<path fill="none" stroke="#9a32cd" stroke-dasharray="5,2" d="M96.3811,-77.0044C113.285,-72.8896 135.77,-68.0944 156,-66 316.205,-49.4141 510.173,-85.8575 571.466,-98.7214"/>
<polygon fill="#9a32cd" stroke="#9a32cd" points="95.494,-73.6184 86.6473,-79.4482 97.1986,-80.4077 95.494,-73.6184"/>
<text text-anchor="middle" x="254.5" y="-66" font-family="Helvetica,sans-Serif" font-size="10.00"> time</text>
</g>
<!-- Node11 -->
<g id="node10" class="node"><title>Node11</title>
<polygon fill="white" stroke="#bfbfbf" points="38,-184.5 38,-203.5 100,-203.5 100,-184.5 38,-184.5"/>
<text text-anchor="middle" x="69" y="-191.5" font-family="Helvetica,sans-Serif" font-size="10.00">SDL_Rect</text>
</g>
<!-- Node11&#45;&gt;Node9 -->
<g id="edge9" class="edge"><title>Node11&#45;&gt;Node9</title>
<path fill="none" stroke="#9a32cd" stroke-dasharray="5,2" d="M110.336,-190.965C139.449,-189.709 179.534,-189.911 214,-197 220.667,-198.371 227.644,-200.823 233.847,-203.402"/>
<polygon fill="#9a32cd" stroke="#9a32cd" points="109.947,-187.48 100.138,-191.483 110.303,-194.471 109.947,-187.48"/>
<text text-anchor="middle" x="185" y="-200" font-family="Helvetica,sans-Serif" font-size="10.00"> clipRect</text>
</g>
<!-- Node12 -->
<g id="node11" class="node"><title>Node12</title>
<polygon fill="white" stroke="#bfbfbf" points="54.5,-325.5 54.5,-344.5 83.5,-344.5 83.5,-325.5 54.5,-325.5"/>
<text text-anchor="middle" x="69" y="-332.5" font-family="Helvetica,sans-Serif" font-size="10.00">int</text>
</g>
<!-- Node12&#45;&gt;Node9 -->
<g id="edge10" class="edge"><title>Node12&#45;&gt;Node9</title>
<path fill="none" stroke="#9a32cd" stroke-dasharray="5,2" d="M87.282,-318.633C103.954,-303.421 130.367,-280.797 156,-265 180.049,-250.179 189.233,-252.588 214,-239 222.925,-234.103 232.472,-227.85 239.943,-222.704"/>
<polygon fill="#9a32cd" stroke="#9a32cd" points="84.8867,-316.08 79.9264,-325.442 89.6423,-321.217 84.8867,-316.08"/>
<text text-anchor="middle" x="185" y="-301" font-family="Helvetica,sans-Serif" font-size="10.00"> width</text>
<text text-anchor="middle" x="185" y="-290" font-family="Helvetica,sans-Serif" font-size="10.00">currentFrame</text>
<text text-anchor="middle" x="185" y="-279" font-family="Helvetica,sans-Serif" font-size="10.00">height</text>
<text text-anchor="middle" x="185" y="-268" font-family="Helvetica,sans-Serif" font-size="10.00">frameCount</text>
</g>
<!-- Node12&#45;&gt;Node14 -->
<g id="edge14" class="edge"><title>Node12&#45;&gt;Node14</title>
<path fill="none" stroke="#9a32cd" stroke-dasharray="5,2" d="M93.7106,-335.78C164.367,-338.106 372.881,-344.968 442.259,-347.252"/>
<polygon fill="#9a32cd" stroke="#9a32cd" points="93.7065,-332.278 83.5968,-335.447 93.4762,-339.275 93.7065,-332.278"/>
<text text-anchor="middle" x="254.5" y="-378" font-family="Helvetica,sans-Serif" font-size="10.00"> tileHeight</text>
<text text-anchor="middle" x="254.5" y="-367" font-family="Helvetica,sans-Serif" font-size="10.00">rows</text>
<text text-anchor="middle" x="254.5" y="-356" font-family="Helvetica,sans-Serif" font-size="10.00">tileWidth</text>
<text text-anchor="middle" x="254.5" y="-345" font-family="Helvetica,sans-Serif" font-size="10.00">columns</text>
</g>
<!-- Node12&#45;&gt;Node15 -->
<g id="edge19" class="edge"><title>Node12&#45;&gt;Node15</title>
<path fill="none" stroke="#9a32cd" stroke-dasharray="5,2" d="M93.7711,-331.101C122.381,-326.318 171.84,-317.76 214,-309 289.996,-293.21 315.112,-304.765 384,-269 393.5,-264.068 391.995,-256.804 402,-253 455.175,-232.783 473.162,-250.591 530,-253 577.238,-255.002 589.519,-253.344 636,-262 653.314,-265.224 672.35,-270.786 686.976,-275.51"/>
<polygon fill="#9a32cd" stroke="#9a32cd" points="92.8378,-327.708 83.5457,-332.798 93.9838,-334.614 92.8378,-327.708"/>
<text text-anchor="middle" x="339.5" y="-323" font-family="Helvetica,sans-Serif" font-size="10.00"> mapDepth</text>
<text text-anchor="middle" x="339.5" y="-312" font-family="Helvetica,sans-Serif" font-size="10.00">mapHeight</text>
<text text-anchor="middle" x="339.5" y="-301" font-family="Helvetica,sans-Serif" font-size="10.00">mapWidth</text>
</g>
<!-- Node12&#45;&gt;Node18 -->
<g id="edge24" class="edge"><title>Node12&#45;&gt;Node18</title>
<path fill="none" stroke="#9a32cd" stroke-dasharray="5,2" d="M93.4202,-343.234C124.845,-354.217 182.446,-374.121 232,-390 259.851,-398.925 266.616,-401.953 295,-409 342.035,-420.678 353.847,-424.533 402,-430 499.754,-441.098 615.905,-441.44 674.199,-440.732"/>
<polygon fill="#9a32cd" stroke="#9a32cd" points="94.4106,-339.872 83.8158,-339.87 92.0966,-346.479 94.4106,-339.872"/>
<text text-anchor="middle" x="339.5" y="-485" font-family="Helvetica,sans-Serif" font-size="10.00"> keyUpdate</text>
<text text-anchor="middle" x="339.5" y="-474" font-family="Helvetica,sans-Serif" font-size="10.00">mouseX</text>
<text text-anchor="middle" x="339.5" y="-463" font-family="Helvetica,sans-Serif" font-size="10.00">mouseY</text>
<text text-anchor="middle" x="339.5" y="-452" font-family="Helvetica,sans-Serif" font-size="10.00">mouseScroolUpdate</text>
<text text-anchor="middle" x="339.5" y="-441" font-family="Helvetica,sans-Serif" font-size="10.00">updateCounter</text>
<text text-anchor="middle" x="339.5" y="-430" font-family="Helvetica,sans-Serif" font-size="10.00">mouseUpdate</text>
</g>
<!-- Node13 -->
<g id="node12" class="node"><title>Node13</title>
<polygon fill="white" stroke="#bfbfbf" points="0,-222.5 0,-241.5 138,-241.5 138,-222.5 0,-222.5"/>
<text text-anchor="middle" x="69" y="-229.5" font-family="Helvetica,sans-Serif" font-size="10.00">shared_ptr&lt; SDL_Texture &gt;</text>
</g>
<!-- Node13&#45;&gt;Node9 -->
<g id="edge11" class="edge"><title>Node13&#45;&gt;Node9</title>
<path fill="none" stroke="#9a32cd" stroke-dasharray="5,2" d="M148.102,-223.913C179.298,-220.683 212.647,-217.23 233.287,-215.093"/>
<polygon fill="#9a32cd" stroke="#9a32cd" points="147.654,-220.441 138.068,-224.952 148.375,-227.403 147.654,-220.441"/>
<text text-anchor="middle" x="185" y="-227" font-family="Helvetica,sans-Serif" font-size="10.00"> texture</text>
</g>
<!-- Node14&#45;&gt;Node2 -->
<g id="edge12" class="edge"><title>Node14&#45;&gt;Node2</title>
<path fill="none" stroke="#9a32cd" stroke-dasharray="5,2" d="M494.104,-362.126C509.464,-369.333 529.297,-377.336 548,-381 586.382,-388.518 597.878,-389.739 636,-381 740.433,-357.062 765.834,-338.3 853,-276 869.496,-264.21 885.412,-246.686 894.564,-235.822"/>
<polygon fill="#9a32cd" stroke="#9a32cd" points="495.237,-358.785 484.713,-357.559 492.175,-365.08 495.237,-358.785"/>
<text text-anchor="middle" x="712.5" y="-380" font-family="Helvetica,sans-Serif" font-size="10.00"> tileSet</text>
</g>
<!-- Node14&#45;&gt;Node15 -->
<g id="edge16" class="edge"><title>Node14&#45;&gt;Node15</title>
<path fill="none" stroke="#9a32cd" stroke-dasharray="5,2" d="M499.646,-342.861C533.97,-337.082 589.362,-326.688 636,-313 654.323,-307.622 674.486,-299.774 689.363,-293.598"/>
<polygon fill="#9a32cd" stroke="#9a32cd" points="498.998,-339.421 489.703,-344.505 500.14,-346.327 498.998,-339.421"/>
<text text-anchor="middle" x="592" y="-337" font-family="Helvetica,sans-Serif" font-size="10.00"> tileSet</text>
</g>
<!-- Node15&#45;&gt;Node2 -->
<g id="edge15" class="edge"><title>Node15&#45;&gt;Node2</title>
<path fill="none" stroke="#9a32cd" stroke-dasharray="5,2" d="M748.062,-273.394C783.337,-262.569 837.586,-245.921 871.509,-235.511"/>
<polygon fill="#9a32cd" stroke="#9a32cd" points="746.742,-270.138 738.208,-276.418 748.795,-276.83 746.742,-270.138"/>
<text text-anchor="middle" x="821" y="-264" font-family="Helvetica,sans-Serif" font-size="10.00"> tileMap</text>
</g>
<!-- Node16 -->
<g id="node15" class="node"><title>Node16</title>
<polygon fill="white" stroke="#bfbfbf" points="430,-262.5 430,-281.5 502,-281.5 502,-262.5 430,-262.5"/>
<text text-anchor="middle" x="466" y="-269.5" font-family="Helvetica,sans-Serif" font-size="10.00">vector&lt; int &gt;</text>
</g>
<!-- Node16&#45;&gt;Node15 -->
<g id="edge17" class="edge"><title>Node16&#45;&gt;Node15</title>
<path fill="none" stroke="#9a32cd" stroke-dasharray="5,2" d="M512.183,-267.803C546.294,-265.391 594.205,-263.62 636,-268 653.19,-269.801 672.227,-273.85 686.884,-277.424"/>
<polygon fill="#9a32cd" stroke="#9a32cd" points="511.77,-264.324 502.062,-268.565 512.297,-271.304 511.77,-264.324"/>
<text text-anchor="middle" x="592" y="-271" font-family="Helvetica,sans-Serif" font-size="10.00"> tileMatrix</text>
</g>
<!-- Node17 -->
<g id="node16" class="node"><title>Node17</title>
<polygon fill="white" stroke="#bfbfbf" points="404.5,-300.5 404.5,-319.5 527.5,-319.5 527.5,-300.5 404.5,-300.5"/>
<text text-anchor="middle" x="466" y="-307.5" font-family="Helvetica,sans-Serif" font-size="10.00">vector&lt; GameObject * &gt;</text>
</g>
<!-- Node17&#45;&gt;Node15 -->
<g id="edge18" class="edge"><title>Node17&#45;&gt;Node15</title>
<path fill="none" stroke="#9a32cd" stroke-dasharray="5,2" d="M537.909,-302.46C588.09,-297.123 652.375,-290.287 686.916,-286.614"/>
<polygon fill="#9a32cd" stroke="#9a32cd" points="537.326,-299.002 527.752,-303.54 538.066,-305.962 537.326,-299.002"/>
<text text-anchor="middle" x="592" y="-304" font-family="Helvetica,sans-Serif" font-size="10.00"> gameObjectMatrix</text>
</g>
<!-- Node18&#45;&gt;Node2 -->
<g id="edge21" class="edge"><title>Node18&#45;&gt;Node2</title>
<path fill="none" stroke="#9a32cd" stroke-dasharray="5,2" d="M760.957,-441.298C791.025,-439.55 828.691,-432.228 853,-409 903.686,-360.57 904.295,-266.044 903.07,-235.656"/>
<polygon fill="#9a32cd" stroke="#9a32cd" points="760.528,-437.812 750.673,-441.701 760.802,-444.807 760.528,-437.812"/>
<text text-anchor="middle" x="821" y="-440" font-family="Helvetica,sans-Serif" font-size="10.00"> inputManager</text>
</g>
<!-- Node19&#45;&gt;Node18 -->
<g id="edge22" class="edge"><title>Node19&#45;&gt;Node18</title>
<path fill="none" stroke="#9a32cd" stroke-dasharray="5,2" d="M369.333,-393.886C435.934,-402.862 600.414,-425.029 674.397,-435"/>
<polygon fill="#9a32cd" stroke="#9a32cd" points="369.53,-390.381 359.152,-392.514 368.595,-397.318 369.53,-390.381"/>
<text text-anchor="middle" x="466" y="-418" font-family="Helvetica,sans-Serif" font-size="10.00"> mouseScroolState</text>
</g>
<!-- Node20&#45;&gt;Node2 -->
<g id="edge26" class="edge"><title>Node20&#45;&gt;Node2</title>
<path fill="none" stroke="#9a32cd" stroke-dasharray="5,2" d="M621.624,-116.809C631.715,-121.371 643.229,-126.237 654,-130 740.298,-160.153 772.39,-138.888 853,-182 869.628,-190.893 885.266,-206.45 894.359,-216.482"/>
<polygon fill="#9a32cd" stroke="#9a32cd" points="623.002,-113.591 612.456,-112.574 620.066,-119.945 623.002,-113.591"/>
<text text-anchor="middle" x="712.5" y="-157" font-family="Helvetica,sans-Serif" font-size="10.00"> spawnTimer</text>
</g>
</g>
</svg>
