<?xml version="1.0" encoding="UTF-8" standalone="no"?>
<!DOCTYPE svg PUBLIC "-//W3C//DTD SVG 1.1//EN"
 "http://www.w3.org/Graphics/SVG/1.1/DTD/svg11.dtd">
<!-- Generated by graphviz version 2.36.0 (20140111.2315)
 -->
<!-- Title: AIMedic Pages: 1 -->
<svg width="1460pt" height="903pt"
 viewBox="0.00 0.00 1460.00 903.29" xmlns="http://www.w3.org/2000/svg" xmlns:xlink="http://www.w3.org/1999/xlink">
<g id="graph0" class="graph" transform="scale(1 1) rotate(0) translate(4 899.291)">
<title>AIMedic</title>
<polygon fill="white" stroke="none" points="-4,4 -4,-899.291 1456,-899.291 1456,4 -4,4"/>
<!-- Node1 -->
<g id="node1" class="node"><title>Node1</title>
<polygon fill="#bfbfbf" stroke="black" points="1398.5,-603.791 1398.5,-622.791 1451.5,-622.791 1451.5,-603.791 1398.5,-603.791"/>
<text text-anchor="middle" x="1425" y="-610.791" font-family="Helvetica,sans-Serif" font-size="10.00">AIMedic</text>
</g>
<!-- Node2 -->
<g id="node2" class="node"><title>Node2</title>
<g id="a_node2"><a xlink:href="classComponent.html" target="_top" xlink:title="Modela os componentes. ">
<polygon fill="white" stroke="black" points="919.5,-673.791 919.5,-692.791 986.5,-692.791 986.5,-673.791 919.5,-673.791"/>
<text text-anchor="middle" x="953" y="-680.791" font-family="Helvetica,sans-Serif" font-size="10.00">Component</text>
</a>
</g>
</g>
<!-- Node2&#45;&gt;Node1 -->
<g id="edge1" class="edge"><title>Node2&#45;&gt;Node1</title>
<path fill="none" stroke="midnightblue" d="M996.963,-682.384C1061.97,-680.564 1189.09,-675.261 1296,-660.291 1333.81,-654.996 1344.79,-657.051 1380,-642.291 1391.64,-637.41 1403.52,-629.365 1411.99,-622.984"/>
<polygon fill="midnightblue" stroke="midnightblue" points="996.601,-678.892 986.698,-682.656 996.787,-685.889 996.601,-678.892"/>
</g>
<!-- Node12 -->
<g id="node12" class="node"><title>Node12</title>
<g id="a_node12"><a xlink:href="classWaveManager.html" target="_top" xlink:title="Classe que gerencia as waves do jogo. Responsavel por iniciar, encerrar e contar as waves...">
<polygon fill="white" stroke="black" points="1197,-539.791 1197,-558.791 1277,-558.791 1277,-539.791 1197,-539.791"/>
<text text-anchor="middle" x="1237" y="-546.791" font-family="Helvetica,sans-Serif" font-size="10.00">WaveManager</text>
</a>
</g>
</g>
<!-- Node2&#45;&gt;Node12 -->
<g id="edge15" class="edge"><title>Node2&#45;&gt;Node12</title>
<path fill="none" stroke="midnightblue" d="M996.96,-677.66C1053.81,-669.832 1148.26,-655.374 1160,-644.291 1183.99,-621.652 1156.27,-597.108 1178,-572.291 1183.07,-566.505 1189.78,-562.159 1196.85,-558.899"/>
<polygon fill="midnightblue" stroke="midnightblue" points="996.247,-674.225 986.811,-679.042 997.192,-681.161 996.247,-674.225"/>
</g>
<!-- Node3 -->
<g id="node3" class="node"><title>Node3</title>
<g id="a_node3"><a xlink:href="classTileMapObserver.html" target="_top" xlink:title="TileMapObserver">
<polygon fill="white" stroke="black" points="1191.5,-825.791 1191.5,-844.791 1282.5,-844.791 1282.5,-825.791 1191.5,-825.791"/>
<text text-anchor="middle" x="1237" y="-832.791" font-family="Helvetica,sans-Serif" font-size="10.00">TileMapObserver</text>
</a>
</g>
</g>
<!-- Node3&#45;&gt;Node1 -->
<g id="edge2" class="edge"><title>Node3&#45;&gt;Node1</title>
<path fill="none" stroke="midnightblue" d="M1292.9,-839.798C1322.33,-839.155 1357.14,-833.011 1380,-811.291 1407.95,-784.733 1420.28,-658.712 1423.26,-622.839"/>
<polygon fill="midnightblue" stroke="midnightblue" points="1292.74,-836.298 1282.75,-839.813 1292.75,-843.298 1292.74,-836.298"/>
</g>
<!-- Node4 -->
<g id="node4" class="node"><title>Node4</title>
<g id="a_node4"><a xlink:href="classVec2.html" target="_top" xlink:title="Classe que modela um vetor(no sentido físico) ">
<polygon fill="white" stroke="black" points="524.5,-862.791 524.5,-881.791 563.5,-881.791 563.5,-862.791 524.5,-862.791"/>
<text text-anchor="middle" x="544" y="-869.791" font-family="Helvetica,sans-Serif" font-size="10.00">Vec2</text>
</a>
</g>
</g>
<!-- Node4&#45;&gt;Node1 -->
<g id="edge3" class="edge"><title>Node4&#45;&gt;Node1</title>
<path fill="none" stroke="#9a32cd" stroke-dasharray="5,2" d="M573.622,-872.47C622.075,-872.758 723.352,-873.291 809,-873.291 809,-873.291 809,-873.291 1238,-873.291 1303,-873.291 1335.17,-885.355 1380,-838.291 1410.34,-806.446 1421.09,-661.901 1423.46,-622.972"/>
<polygon fill="#9a32cd" stroke="#9a32cd" points="573.585,-868.97 563.564,-872.41 573.543,-875.97 573.585,-868.97"/>
<text text-anchor="middle" x="953" y="-887.291" font-family="Helvetica,sans-Serif" font-size="10.00"> tempDestination</text>
<text text-anchor="middle" x="953" y="-876.291" font-family="Helvetica,sans-Serif" font-size="10.00">vecSpeed</text>
</g>
<!-- Node5 -->
<g id="node5" class="node"><title>Node5</title>
<polygon fill="white" stroke="#bfbfbf" points="175.5,-725.791 175.5,-744.791 210.5,-744.791 210.5,-725.791 175.5,-725.791"/>
<text text-anchor="middle" x="193" y="-732.791" font-family="Helvetica,sans-Serif" font-size="10.00">float</text>
</g>
<!-- Node5&#45;&gt;Node1 -->
<g id="edge12" class="edge"><title>Node5&#45;&gt;Node1</title>
<path fill="none" stroke="#9a32cd" stroke-dasharray="5,2" d="M212.277,-751.695C228.81,-765.651 254.418,-785.151 280,-796.291 362.604,-832.26 392.114,-819.427 482,-813.291 846.338,-788.42 935.349,-758.664 1296,-701.291 1333.45,-695.333 1348.75,-707.784 1380,-686.291 1402.8,-670.609 1415.77,-638.886 1421.1,-622.924"/>
<polygon fill="#9a32cd" stroke="#9a32cd" points="214.361,-748.87 204.507,-744.977 209.782,-754.165 214.361,-748.87"/>
<text text-anchor="middle" x="810" y="-811.291" font-family="Helvetica,sans-Serif" font-size="10.00"> speed</text>
<text text-anchor="middle" x="810" y="-800.291" font-family="Helvetica,sans-Serif" font-size="10.00">lastDistance</text>
<text text-anchor="middle" x="810" y="-789.291" font-family="Helvetica,sans-Serif" font-size="10.00">actualTileweight</text>
</g>
<!-- Node5&#45;&gt;Node4 -->
<g id="edge4" class="edge"><title>Node5&#45;&gt;Node4</title>
<path fill="none" stroke="#9a32cd" stroke-dasharray="5,2" d="M202.44,-753.936C215.183,-779.664 241.955,-825.255 280,-846.291 361.511,-891.36 479.125,-881.301 524.331,-875.205"/>
<polygon fill="#9a32cd" stroke="#9a32cd" points="205.57,-752.369 198.113,-744.844 199.25,-755.377 205.57,-752.369"/>
<text text-anchor="middle" x="312" y="-883.291" font-family="Helvetica,sans-Serif" font-size="10.00"> x</text>
<text text-anchor="middle" x="312" y="-872.291" font-family="Helvetica,sans-Serif" font-size="10.00">y</text>
</g>
<!-- Node6 -->
<g id="node6" class="node"><title>Node6</title>
<g id="a_node6"><a xlink:href="classGameObject.html" target="_top" xlink:title="Classe virtual que especifica o funcionamento de um GameObject. ">
<polygon fill="white" stroke="black" points="642.5,-711.791 642.5,-730.791 713.5,-730.791 713.5,-711.791 642.5,-711.791"/>
<text text-anchor="middle" x="678" y="-718.791" font-family="Helvetica,sans-Serif" font-size="10.00">GameObject</text>
</a>
</g>
</g>
<!-- Node5&#45;&gt;Node6 -->
<g id="edge8" class="edge"><title>Node5&#45;&gt;Node6</title>
<path fill="none" stroke="#9a32cd" stroke-dasharray="5,2" d="M220.928,-733.535C254.096,-731.445 312.17,-728.021 362,-726.291 463.944,-722.753 584.534,-721.716 642.497,-721.414"/>
<polygon fill="#9a32cd" stroke="#9a32cd" points="220.439,-730.059 210.682,-734.189 220.885,-737.045 220.439,-730.059"/>
<text text-anchor="middle" x="422" y="-729.291" font-family="Helvetica,sans-Serif" font-size="10.00"> rotation</text>
</g>
<!-- Node7 -->
<g id="node7" class="node"><title>Node7</title>
<g id="a_node7"><a xlink:href="classRect.html" target="_top" xlink:title="Classe que modela um rect. ">
<polygon fill="white" stroke="black" points="403,-746.791 403,-765.791 441,-765.791 441,-746.791 403,-746.791"/>
<text text-anchor="middle" x="422" y="-753.791" font-family="Helvetica,sans-Serif" font-size="10.00">Rect</text>
</a>
</g>
</g>
<!-- Node5&#45;&gt;Node7 -->
<g id="edge7" class="edge"><title>Node5&#45;&gt;Node7</title>
<path fill="none" stroke="#9a32cd" stroke-dasharray="5,2" d="M220.666,-737.758C267.354,-742.077 362.73,-750.9 402.717,-754.6"/>
<polygon fill="#9a32cd" stroke="#9a32cd" points="220.972,-734.271 210.692,-736.835 220.327,-741.242 220.972,-734.271"/>
<text text-anchor="middle" x="312" y="-784.291" font-family="Helvetica,sans-Serif" font-size="10.00"> w</text>
<text text-anchor="middle" x="312" y="-773.291" font-family="Helvetica,sans-Serif" font-size="10.00">x</text>
<text text-anchor="middle" x="312" y="-762.291" font-family="Helvetica,sans-Serif" font-size="10.00">h</text>
<text text-anchor="middle" x="312" y="-751.291" font-family="Helvetica,sans-Serif" font-size="10.00">y</text>
</g>
<!-- Node19 -->
<g id="node19" class="node"><title>Node19</title>
<g id="a_node19"><a xlink:href="classSprite.html" target="_top" xlink:title="Classe que modela uma sprite. ">
<polygon fill="white" stroke="black" points="401,-373.791 401,-392.791 443,-392.791 443,-373.791 401,-373.791"/>
<text text-anchor="middle" x="422" y="-380.791" font-family="Helvetica,sans-Serif" font-size="10.00">Sprite</text>
</a>
</g>
</g>
<!-- Node5&#45;&gt;Node19 -->
<g id="edge24" class="edge"><title>Node5&#45;&gt;Node19</title>
<path fill="none" stroke="#9a32cd" stroke-dasharray="5,2" d="M206.58,-717.271C242.225,-666.187 341.495,-523.753 344,-518.291 357.212,-489.483 347.02,-477.22 362,-449.291 374.35,-426.266 396.315,-404.717 409.68,-392.836"/>
<polygon fill="#9a32cd" stroke="#9a32cd" points="203.555,-715.489 200.702,-725.692 209.296,-719.495 203.555,-715.489"/>
<text text-anchor="middle" x="312" y="-646.291" font-family="Helvetica,sans-Serif" font-size="10.00"> scaleY</text>
<text text-anchor="middle" x="312" y="-635.291" font-family="Helvetica,sans-Serif" font-size="10.00">frameTime</text>
<text text-anchor="middle" x="312" y="-624.291" font-family="Helvetica,sans-Serif" font-size="10.00">timeElapsed</text>
<text text-anchor="middle" x="312" y="-613.291" font-family="Helvetica,sans-Serif" font-size="10.00">scaleX</text>
</g>
<!-- Node30 -->
<g id="node30" class="node"><title>Node30</title>
<g id="a_node30"><a xlink:href="classTimer.html" target="_top" xlink:title="Temporizador. ">
<polygon fill="white" stroke="black" points="789.5,-640.791 789.5,-659.791 830.5,-659.791 830.5,-640.791 789.5,-640.791"/>
<text text-anchor="middle" x="810" y="-647.791" font-family="Helvetica,sans-Serif" font-size="10.00">Timer</text>
</a>
</g>
</g>
<!-- Node5&#45;&gt;Node30 -->
<g id="edge42" class="edge"><title>Node5&#45;&gt;Node30</title>
<path fill="none" stroke="#9a32cd" stroke-dasharray="5,2" d="M220.903,-730.709C254.046,-725.125 312.096,-715.537 362,-708.291 526.953,-684.34 726.861,-660.093 789.364,-652.623"/>
<polygon fill="#9a32cd" stroke="#9a32cd" points="219.942,-727.322 210.666,-732.441 221.11,-734.224 219.942,-727.322"/>
<text text-anchor="middle" x="422" y="-711.291" font-family="Helvetica,sans-Serif" font-size="10.00"> time</text>
</g>
<!-- Node6&#45;&gt;Node1 -->
<g id="edge5" class="edge"><title>Node6&#45;&gt;Node1</title>
<path fill="none" stroke="#9a32cd" stroke-dasharray="5,2" d="M723.885,-720.697C825.982,-718.842 1083.24,-711.315 1296,-681.291 1333.72,-675.968 1347.12,-683.524 1380,-664.291 1397.36,-654.135 1411.26,-634.604 1418.5,-622.88"/>
<polygon fill="#9a32cd" stroke="#9a32cd" points="723.575,-717.202 713.637,-720.874 723.696,-724.201 723.575,-717.202"/>
<text text-anchor="middle" x="1107" y="-708.291" font-family="Helvetica,sans-Serif" font-size="10.00"> associated</text>
</g>
<!-- Node7&#45;&gt;Node6 -->
<g id="edge6" class="edge"><title>Node7&#45;&gt;Node6</title>
<path fill="none" stroke="#9a32cd" stroke-dasharray="5,2" d="M451.325,-752.388C498.179,-745.932 591.669,-733.049 642.372,-726.063"/>
<polygon fill="#9a32cd" stroke="#9a32cd" points="450.696,-748.942 441.267,-753.774 451.651,-755.876 450.696,-748.942"/>
<text text-anchor="middle" x="544" y="-747.291" font-family="Helvetica,sans-Serif" font-size="10.00"> box</text>
</g>
<!-- Node8 -->
<g id="node8" class="node"><title>Node8</title>
<polygon fill="white" stroke="#bfbfbf" points="175.5,-530.791 175.5,-549.791 210.5,-549.791 210.5,-530.791 175.5,-530.791"/>
<text text-anchor="middle" x="193" y="-537.791" font-family="Helvetica,sans-Serif" font-size="10.00">bool</text>
</g>
<!-- Node8&#45;&gt;Node6 -->
<g id="edge9" class="edge"><title>Node8&#45;&gt;Node6</title>
<path fill="none" stroke="#9a32cd" stroke-dasharray="5,2" d="M204.996,-558.796C219.19,-580.696 246.137,-616.101 280,-631.291 300.488,-640.481 460.078,-632.43 482,-637.291 551.996,-652.813 628.193,-693.237 660.764,-711.764"/>
<polygon fill="#9a32cd" stroke="#9a32cd" points="207.815,-556.702 199.552,-550.071 201.876,-560.407 207.815,-556.702"/>
<text text-anchor="middle" x="422" y="-640.291" font-family="Helvetica,sans-Serif" font-size="10.00"> dead</text>
</g>
<!-- Node8&#45;&gt;Node12 -->
<g id="edge18" class="edge"><title>Node8&#45;&gt;Node12</title>
<path fill="none" stroke="#9a32cd" stroke-dasharray="5,2" d="M220.94,-540.863C254.121,-541.547 312.207,-542.676 362,-543.291 684.422,-547.276 1073.79,-548.78 1196.8,-549.175"/>
<polygon fill="#9a32cd" stroke="#9a32cd" points="220.761,-537.359 210.691,-540.65 220.616,-544.357 220.761,-537.359"/>
<text text-anchor="middle" x="678" y="-561.291" font-family="Helvetica,sans-Serif" font-size="10.00"> endWave</text>
<text text-anchor="middle" x="678" y="-550.291" font-family="Helvetica,sans-Serif" font-size="10.00">victory</text>
</g>
<!-- Node15 -->
<g id="node15" class="node"><title>Node15</title>
<g id="a_node15"><a xlink:href="classTileMap.html" target="_top" xlink:title="Classe que modela o TileMap. ">
<polygon fill="white" stroke="black" points="927.5,-244.791 927.5,-263.791 978.5,-263.791 978.5,-244.791 927.5,-244.791"/>
<text text-anchor="middle" x="953" y="-251.791" font-family="Helvetica,sans-Serif" font-size="10.00">TileMap</text>
</a>
</g>
</g>
<!-- Node8&#45;&gt;Node15 -->
<g id="edge36" class="edge"><title>Node8&#45;&gt;Node15</title>
<path fill="none" stroke="#9a32cd" stroke-dasharray="5,2" d="M220.796,-539.675C341.407,-536.779 829.06,-523.713 852,-501.291 886.92,-467.158 839.989,-320.811 870,-282.291 883.591,-264.847 908.611,-258.204 927.454,-255.71"/>
<polygon fill="#9a32cd" stroke="#9a32cd" points="220.513,-536.18 210.598,-539.916 220.678,-543.179 220.513,-536.18"/>
<text text-anchor="middle" x="544" y="-534.291" font-family="Helvetica,sans-Serif" font-size="10.00"> displayCollisionInfo</text>
</g>
<!-- Node8&#45;&gt;Node19 -->
<g id="edge28" class="edge"><title>Node8&#45;&gt;Node19</title>
<path fill="none" stroke="#9a32cd" stroke-dasharray="5,2" d="M219.952,-528.633C236.928,-521.13 259.65,-511.317 280,-503.291 308.118,-492.202 320.783,-499.644 344,-480.291 356.238,-470.09 352.643,-462.185 362,-449.291 377.526,-427.896 398.823,-405.457 411.127,-393.035"/>
<polygon fill="#9a32cd" stroke="#9a32cd" points="218.399,-525.493 210.682,-532.753 221.242,-531.89 218.399,-525.493"/>
<text text-anchor="middle" x="312" y="-506.291" font-family="Helvetica,sans-Serif" font-size="10.00"> highlightable</text>
</g>
<!-- Node9 -->
<g id="node9" class="node"><title>Node9</title>
<polygon fill="white" stroke="#bfbfbf" points="362.5,-784.791 362.5,-803.791 481.5,-803.791 481.5,-784.791 362.5,-784.791"/>
<text text-anchor="middle" x="422" y="-791.791" font-family="Helvetica,sans-Serif" font-size="10.00">vector&lt; Component * &gt;</text>
</g>
<!-- Node9&#45;&gt;Node6 -->
<g id="edge10" class="edge"><title>Node9&#45;&gt;Node6</title>
<path fill="none" stroke="#9a32cd" stroke-dasharray="5,2" d="M491.322,-782.891C521.33,-777.095 556.769,-769.167 588,-759.291 612.669,-751.49 639.865,-739.323 657.621,-730.866"/>
<polygon fill="#9a32cd" stroke="#9a32cd" points="490.542,-779.476 481.367,-784.775 491.843,-786.354 490.542,-779.476"/>
<text text-anchor="middle" x="544" y="-783.291" font-family="Helvetica,sans-Serif" font-size="10.00"> components</text>
</g>
<!-- Node10 -->
<g id="node10" class="node"><title>Node10</title>
<polygon fill="white" stroke="#bfbfbf" points="1178,-621.291 1178,-651.291 1296,-651.291 1296,-621.291 1178,-621.291"/>
<text text-anchor="start" x="1186" y="-639.291" font-family="Helvetica,sans-Serif" font-size="10.00">shared_ptr&lt; std::vector</text>
<text text-anchor="middle" x="1237" y="-628.291" font-family="Helvetica,sans-Serif" font-size="10.00">&lt; int &gt; &gt;</text>
</g>
<!-- Node10&#45;&gt;Node1 -->
<g id="edge11" class="edge"><title>Node10&#45;&gt;Node1</title>
<path fill="none" stroke="#9a32cd" stroke-dasharray="5,2" d="M1306.33,-627.841C1338.41,-623.874 1374.72,-619.385 1398.41,-616.456"/>
<polygon fill="#9a32cd" stroke="#9a32cd" points="1305.58,-624.407 1296.09,-629.108 1306.44,-631.355 1305.58,-624.407"/>
<text text-anchor="middle" x="1347" y="-630.291" font-family="Helvetica,sans-Serif" font-size="10.00"> path</text>
</g>
<!-- Node11 -->
<g id="node11" class="node"><title>Node11</title>
<polygon fill="white" stroke="#bfbfbf" points="1212,-581.791 1212,-600.791 1262,-600.791 1262,-581.791 1212,-581.791"/>
<text text-anchor="middle" x="1237" y="-588.791" font-family="Helvetica,sans-Serif" font-size="10.00">AIState</text>
</g>
<!-- Node11&#45;&gt;Node1 -->
<g id="edge13" class="edge"><title>Node11&#45;&gt;Node1</title>
<path fill="none" stroke="#9a32cd" stroke-dasharray="5,2" d="M1272.3,-587.401C1301.36,-585.081 1343.94,-583.994 1380,-592.291 1389.9,-594.569 1400.19,-599.325 1408.32,-603.736"/>
<polygon fill="#9a32cd" stroke="#9a32cd" points="1271.89,-583.924 1262.24,-588.297 1272.51,-590.896 1271.89,-583.924"/>
<text text-anchor="middle" x="1347" y="-606.291" font-family="Helvetica,sans-Serif" font-size="10.00"> actualState</text>
<text text-anchor="middle" x="1347" y="-595.291" font-family="Helvetica,sans-Serif" font-size="10.00">dfa</text>
</g>
<!-- Node12&#45;&gt;Node1 -->
<g id="edge14" class="edge"><title>Node12&#45;&gt;Node1</title>
<path fill="none" stroke="#9a32cd" stroke-dasharray="5,2" d="M1287.35,-549.692C1315.72,-551.653 1351.3,-557.147 1380,-571.291 1395.35,-578.854 1408.89,-593.664 1416.77,-603.521"/>
<polygon fill="#9a32cd" stroke="#9a32cd" points="1287.44,-546.191 1277.25,-549.12 1287.04,-553.18 1287.44,-546.191"/>
<text text-anchor="middle" x="1347" y="-574.291" font-family="Helvetica,sans-Serif" font-size="10.00"> waveManager</text>
</g>
<!-- Node13 -->
<g id="node13" class="node"><title>Node13</title>
<polygon fill="white" stroke="#bfbfbf" points="894.5,-577.791 894.5,-596.791 1011.5,-596.791 1011.5,-577.791 894.5,-577.791"/>
<text text-anchor="middle" x="953" y="-584.791" font-family="Helvetica,sans-Serif" font-size="10.00">vector&lt; vector&lt; int &gt; &gt;</text>
</g>
<!-- Node13&#45;&gt;Node12 -->
<g id="edge16" class="edge"><title>Node13&#45;&gt;Node12</title>
<path fill="none" stroke="#9a32cd" stroke-dasharray="5,2" d="M1021.82,-580.531C1062.07,-576.236 1114.05,-570.193 1160,-563.291 1171.94,-561.498 1184.88,-559.235 1196.64,-557.054"/>
<polygon fill="#9a32cd" stroke="#9a32cd" points="1021.43,-577.053 1011.85,-581.585 1022.17,-584.014 1021.43,-577.053"/>
<text text-anchor="middle" x="1107" y="-591.291" font-family="Helvetica,sans-Serif" font-size="10.00"> endGroups</text>
<text text-anchor="middle" x="1107" y="-580.291" font-family="Helvetica,sans-Serif" font-size="10.00">spawnGroups</text>
</g>
<!-- Node14 -->
<g id="node14" class="node"><title>Node14</title>
<polygon fill="white" stroke="#bfbfbf" points="178.5,-175.791 178.5,-194.791 207.5,-194.791 207.5,-175.791 178.5,-175.791"/>
<text text-anchor="middle" x="193" y="-182.791" font-family="Helvetica,sans-Serif" font-size="10.00">int</text>
</g>
<!-- Node14&#45;&gt;Node1 -->
<g id="edge45" class="edge"><title>Node14&#45;&gt;Node1</title>
<path fill="none" stroke="#9a32cd" stroke-dasharray="5,2" d="M214.789,-169.42C253.265,-141.678 339.136,-87.2911 421,-87.2911 421,-87.2911 421,-87.2911 1238,-87.2911 1352.05,-87.2911 1413.67,-532.422 1422.81,-603.712"/>
<polygon fill="#9a32cd" stroke="#9a32cd" points="212.457,-166.791 206.476,-175.536 216.605,-172.429 212.457,-166.791"/>
<text text-anchor="middle" x="810" y="-101.291" font-family="Helvetica,sans-Serif" font-size="10.00"> destTile</text>
<text text-anchor="middle" x="810" y="-90.2911" font-family="Helvetica,sans-Serif" font-size="10.00">pathIndex</text>
</g>
<!-- Node14&#45;&gt;Node12 -->
<g id="edge17" class="edge"><title>Node14&#45;&gt;Node12</title>
<path fill="none" stroke="#9a32cd" stroke-dasharray="5,2" d="M218.011,-186.091C248.526,-187.883 302.247,-193.667 344,-212.291 353.256,-216.42 353.214,-221.238 362,-226.291 455.865,-280.274 496.827,-258.876 588,-317.291 597.265,-323.227 596.559,-328.638 606,-334.291 633.839,-350.962 1129.51,-508.191 1160,-519.291 1177.86,-525.793 1197.85,-533.708 1212.84,-539.775"/>
<polygon fill="#9a32cd" stroke="#9a32cd" points="218.043,-182.589 207.884,-185.595 217.701,-189.581 218.043,-182.589"/>
<text text-anchor="start" x="606" y="-465.291" font-family="Helvetica,sans-Serif" font-size="10.00"> maxNumberOfEnemiesInSpawn</text>
<text text-anchor="middle" x="678" y="-454.291" font-family="Helvetica,sans-Serif" font-size="10.00">Point</text>
<text text-anchor="middle" x="678" y="-443.291" font-family="Helvetica,sans-Serif" font-size="10.00">totalWaves</text>
<text text-anchor="middle" x="678" y="-432.291" font-family="Helvetica,sans-Serif" font-size="10.00">waveTotalEnemies</text>
<text text-anchor="middle" x="678" y="-421.291" font-family="Helvetica,sans-Serif" font-size="10.00">enemiesLeft</text>
<text text-anchor="middle" x="678" y="-410.291" font-family="Helvetica,sans-Serif" font-size="10.00">waveIndex</text>
<text text-anchor="middle" x="678" y="-399.291" font-family="Helvetica,sans-Serif" font-size="10.00">waveCount</text>
<text text-anchor="middle" x="678" y="-388.291" font-family="Helvetica,sans-Serif" font-size="10.00">enemyIndex</text>
</g>
<!-- Node14&#45;&gt;Node15 -->
<g id="edge35" class="edge"><title>Node14&#45;&gt;Node15</title>
<path fill="none" stroke="#9a32cd" stroke-dasharray="5,2" d="M217.639,-179.661C268.767,-167.809 393.608,-140.607 500,-131.291 538.962,-127.88 548.92,-129.726 588,-131.291 660.174,-134.182 678.859,-131.787 750,-144.291 796.301,-152.429 810.245,-150.693 852,-172.291 889.889,-191.89 926.621,-227.566 943.042,-244.658"/>
<polygon fill="#9a32cd" stroke="#9a32cd" points="216.55,-176.322 207.611,-182.01 218.146,-183.137 216.55,-176.322"/>
<text text-anchor="middle" x="544" y="-156.291" font-family="Helvetica,sans-Serif" font-size="10.00"> mapDepth</text>
<text text-anchor="middle" x="544" y="-145.291" font-family="Helvetica,sans-Serif" font-size="10.00">mapHeight</text>
<text text-anchor="middle" x="544" y="-134.291" font-family="Helvetica,sans-Serif" font-size="10.00">mapWidth</text>
</g>
<!-- Node18 -->
<g id="node18" class="node"><title>Node18</title>
<g id="a_node18"><a xlink:href="classTileSet.html" target="_top" xlink:title="Classe responsável por modelar um tileset. ">
<polygon fill="white" stroke="black" points="654.5,-153.791 654.5,-172.791 701.5,-172.791 701.5,-153.791 654.5,-153.791"/>
<text text-anchor="middle" x="678" y="-160.791" font-family="Helvetica,sans-Serif" font-size="10.00">TileSet</text>
</a>
</g>
</g>
<!-- Node14&#45;&gt;Node18 -->
<g id="edge32" class="edge"><title>Node14&#45;&gt;Node18</title>
<path fill="none" stroke="#9a32cd" stroke-dasharray="5,2" d="M217.815,-184.206C300.368,-180.446 573.613,-168 654.348,-164.323"/>
<polygon fill="#9a32cd" stroke="#9a32cd" points="217.508,-180.717 207.677,-184.668 217.826,-187.709 217.508,-180.717"/>
<text text-anchor="middle" x="422" y="-214.291" font-family="Helvetica,sans-Serif" font-size="10.00"> tileHeight</text>
<text text-anchor="middle" x="422" y="-203.291" font-family="Helvetica,sans-Serif" font-size="10.00">rows</text>
<text text-anchor="middle" x="422" y="-192.291" font-family="Helvetica,sans-Serif" font-size="10.00">tileWidth</text>
<text text-anchor="middle" x="422" y="-181.291" font-family="Helvetica,sans-Serif" font-size="10.00">columns</text>
</g>
<!-- Node14&#45;&gt;Node19 -->
<g id="edge26" class="edge"><title>Node14&#45;&gt;Node19</title>
<path fill="none" stroke="#9a32cd" stroke-dasharray="5,2" d="M217.615,-191.178C255.08,-200.935 325.772,-221.181 344,-239.291 360.458,-255.643 351.827,-267.44 362,-288.291 378.004,-321.095 402.321,-356.952 414.111,-373.687"/>
<polygon fill="#9a32cd" stroke="#9a32cd" points="218.129,-187.697 207.574,-188.607 216.393,-194.478 218.129,-187.697"/>
<text text-anchor="middle" x="312" y="-275.291" font-family="Helvetica,sans-Serif" font-size="10.00"> width</text>
<text text-anchor="middle" x="312" y="-264.291" font-family="Helvetica,sans-Serif" font-size="10.00">currentFrame</text>
<text text-anchor="middle" x="312" y="-253.291" font-family="Helvetica,sans-Serif" font-size="10.00">height</text>
<text text-anchor="middle" x="312" y="-242.291" font-family="Helvetica,sans-Serif" font-size="10.00">frameCount</text>
</g>
<!-- Node27 -->
<g id="node27" class="node"><title>Node27</title>
<g id="a_node27"><a xlink:href="classSound.html" target="_top" xlink:title="Classe que modela sons. ">
<polygon fill="white" stroke="black" points="400,-458.791 400,-477.791 444,-477.791 444,-458.791 400,-458.791"/>
<text text-anchor="middle" x="422" y="-465.791" font-family="Helvetica,sans-Serif" font-size="10.00">Sound</text>
</a>
</g>
</g>
<!-- Node14&#45;&gt;Node27 -->
<g id="edge38" class="edge"><title>Node14&#45;&gt;Node27</title>
<path fill="none" stroke="#9a32cd" stroke-dasharray="5,2" d="M207.696,-203.089C221.836,-221.719 244.271,-252.003 262,-279.291 270.68,-292.651 269.047,-298.722 280,-310.291 303.391,-334.997 322.931,-325.577 344,-352.291 358.626,-370.836 349.908,-382.003 362,-402.291 375.377,-424.734 397.006,-446.475 410.027,-458.549"/>
<polygon fill="#9a32cd" stroke="#9a32cd" points="210.328,-200.768 201.478,-194.943 204.764,-205.016 210.328,-200.768"/>
<text text-anchor="middle" x="312" y="-355.291" font-family="Helvetica,sans-Serif" font-size="10.00"> channel</text>
</g>
<!-- Node15&#45;&gt;Node1 -->
<g id="edge46" class="edge"><title>Node15&#45;&gt;Node1</title>
<path fill="none" stroke="#9a32cd" stroke-dasharray="5,2" d="M988.511,-248.485C1031.4,-243.022 1105.57,-239.454 1160,-268.291 1310.95,-348.265 1401.45,-556.792 1420.3,-603.789"/>
<polygon fill="#9a32cd" stroke="#9a32cd" points="987.996,-245.022 978.568,-249.857 988.953,-251.957 987.996,-245.022"/>
<text text-anchor="middle" x="1237" y="-386.291" font-family="Helvetica,sans-Serif" font-size="10.00"> tileMap</text>
</g>
<!-- Node15&#45;&gt;Node12 -->
<g id="edge19" class="edge"><title>Node15&#45;&gt;Node12</title>
<path fill="none" stroke="#9a32cd" stroke-dasharray="5,2" d="M988.945,-258.017C1044.34,-264.225 1147.39,-277.107 1160,-288.291 1237.86,-357.339 1237.98,-501.073 1236.51,-539.609"/>
<polygon fill="#9a32cd" stroke="#9a32cd" points="989.188,-254.523 978.864,-256.903 988.418,-261.481 989.188,-254.523"/>
<text text-anchor="middle" x="1107" y="-291.291" font-family="Helvetica,sans-Serif" font-size="10.00"> tileMap</text>
</g>
<!-- Node16 -->
<g id="node16" class="node"><title>Node16</title>
<g id="a_node16"><a xlink:href="classNearestGOFinder.html" target="_top" xlink:title="NearestGOFinder">
<polygon fill="white" stroke="black" points="631.5,-305.791 631.5,-324.791 724.5,-324.791 724.5,-305.791 631.5,-305.791"/>
<text text-anchor="middle" x="678" y="-312.791" font-family="Helvetica,sans-Serif" font-size="10.00">NearestGOFinder</text>
</a>
</g>
</g>
<!-- Node16&#45;&gt;Node15 -->
<g id="edge20" class="edge"><title>Node16&#45;&gt;Node15</title>
<path fill="none" stroke="midnightblue" d="M735.042,-306.913C769.07,-301.414 813.269,-293.539 852,-284.291 877.916,-278.103 907.042,-269.13 927.146,-262.61"/>
<polygon fill="midnightblue" stroke="midnightblue" points="734.149,-303.511 724.825,-308.542 735.251,-310.423 734.149,-303.511"/>
</g>
<!-- Node17 -->
<g id="node17" class="node"><title>Node17</title>
<polygon fill="white" stroke="#bfbfbf" points="606.5,-267.791 606.5,-286.791 749.5,-286.791 749.5,-267.791 606.5,-267.791"/>
<text text-anchor="middle" x="678" y="-274.791" font-family="Helvetica,sans-Serif" font-size="10.00">vector&lt; TileMapObserver * &gt;</text>
</g>
<!-- Node17&#45;&gt;Node15 -->
<g id="edge21" class="edge"><title>Node17&#45;&gt;Node15</title>
<path fill="none" stroke="#9a32cd" stroke-dasharray="5,2" d="M759.785,-270.485C817.007,-265.664 890,-259.515 927.43,-256.361"/>
<polygon fill="#9a32cd" stroke="#9a32cd" points="759.33,-267.011 749.659,-271.338 759.918,-273.986 759.33,-267.011"/>
<text text-anchor="middle" x="810" y="-272.291" font-family="Helvetica,sans-Serif" font-size="10.00"> observers</text>
</g>
<!-- Node18&#45;&gt;Node15 -->
<g id="edge22" class="edge"><title>Node18&#45;&gt;Node15</title>
<path fill="none" stroke="#9a32cd" stroke-dasharray="5,2" d="M711.987,-166.869C747.43,-171.419 805.001,-180.865 852,-198.291 884.65,-210.396 919.391,-232.12 938.107,-244.656"/>
<polygon fill="#9a32cd" stroke="#9a32cd" points="712.086,-163.355 701.734,-165.611 711.233,-170.303 712.086,-163.355"/>
<text text-anchor="middle" x="810" y="-201.291" font-family="Helvetica,sans-Serif" font-size="10.00"> tileSet</text>
</g>
<!-- Node19&#45;&gt;Node18 -->
<g id="edge23" class="edge"><title>Node19&#45;&gt;Node18</title>
<path fill="none" stroke="#9a32cd" stroke-dasharray="5,2" d="M434.554,-364.619C460.228,-324.74 526.105,-230.931 606,-182.291 620.714,-173.333 639.654,-168.539 654.271,-166.009"/>
<polygon fill="#9a32cd" stroke="#9a32cd" points="431.301,-363.214 428.909,-373.536 437.216,-366.959 431.301,-363.214"/>
<text text-anchor="middle" x="544" y="-278.291" font-family="Helvetica,sans-Serif" font-size="10.00"> tileSet</text>
</g>
<!-- Node20 -->
<g id="node20" class="node"><title>Node20</title>
<polygon fill="white" stroke="#bfbfbf" points="162,-288.791 162,-307.791 224,-307.791 224,-288.791 162,-288.791"/>
<text text-anchor="middle" x="193" y="-295.791" font-family="Helvetica,sans-Serif" font-size="10.00">SDL_Rect</text>
</g>
<!-- Node20&#45;&gt;Node19 -->
<g id="edge25" class="edge"><title>Node20&#45;&gt;Node19</title>
<path fill="none" stroke="#9a32cd" stroke-dasharray="5,2" d="M234.327,-290.101C265.619,-285.698 309.356,-283.913 344,-299.291 379.079,-314.862 405.211,-355.073 415.811,-373.637"/>
<polygon fill="#9a32cd" stroke="#9a32cd" points="233.566,-286.677 224.223,-291.673 234.642,-293.594 233.566,-286.677"/>
<text text-anchor="middle" x="312" y="-302.291" font-family="Helvetica,sans-Serif" font-size="10.00"> clipRect</text>
</g>
<!-- Node21 -->
<g id="node21" class="node"><title>Node21</title>
<polygon fill="white" stroke="#bfbfbf" points="124,-424.791 124,-443.791 262,-443.791 262,-424.791 124,-424.791"/>
<text text-anchor="middle" x="193" y="-431.791" font-family="Helvetica,sans-Serif" font-size="10.00">shared_ptr&lt; SDL_Texture &gt;</text>
</g>
<!-- Node21&#45;&gt;Node19 -->
<g id="edge27" class="edge"><title>Node21&#45;&gt;Node19</title>
<path fill="none" stroke="#9a32cd" stroke-dasharray="5,2" d="M266.772,-423.062C291.429,-418.763 319.039,-413.402 344,-407.291 363.585,-402.496 385.5,-395.501 400.927,-390.299"/>
<polygon fill="#9a32cd" stroke="#9a32cd" points="266.028,-419.639 256.763,-424.778 267.211,-426.538 266.028,-419.639"/>
<text text-anchor="middle" x="312" y="-423.291" font-family="Helvetica,sans-Serif" font-size="10.00"> texture</text>
</g>
<!-- Node22 -->
<g id="node22" class="node"><title>Node22</title>
<polygon fill="white" stroke="#bfbfbf" points="148,-386.791 148,-405.791 238,-405.791 238,-386.791 148,-386.791"/>
<text text-anchor="middle" x="193" y="-393.791" font-family="Helvetica,sans-Serif" font-size="10.00">SDL_BlendMode</text>
</g>
<!-- Node22&#45;&gt;Node19 -->
<g id="edge29" class="edge"><title>Node22&#45;&gt;Node19</title>
<path fill="none" stroke="#9a32cd" stroke-dasharray="5,2" d="M248.176,-393.188C297.249,-390.378 366.903,-386.389 400.844,-384.445"/>
<polygon fill="#9a32cd" stroke="#9a32cd" points="247.821,-389.703 238.037,-393.769 248.221,-396.692 247.821,-389.703"/>
<text text-anchor="middle" x="312" y="-395.291" font-family="Helvetica,sans-Serif" font-size="10.00"> blendMode</text>
</g>
<!-- Node23 -->
<g id="node23" class="node"><title>Node23</title>
<g id="a_node23"><a xlink:href="structColor.html" target="_top" xlink:title="Struct para armazenar informações de cor. ">
<polygon fill="white" stroke="black" points="173,-348.791 173,-367.791 213,-367.791 213,-348.791 173,-348.791"/>
<text text-anchor="middle" x="193" y="-355.791" font-family="Helvetica,sans-Serif" font-size="10.00">Color</text>
</a>
</g>
</g>
<!-- Node23&#45;&gt;Node19 -->
<g id="edge30" class="edge"><title>Node23&#45;&gt;Node19</title>
<path fill="none" stroke="#9a32cd" stroke-dasharray="5,2" d="M223.733,-361.004C254.017,-363.828 302.318,-368.501 344,-373.291 363.285,-375.507 385.237,-378.394 400.755,-380.496"/>
<polygon fill="#9a32cd" stroke="#9a32cd" points="223.717,-357.488 213.437,-360.05 223.071,-364.458 223.717,-357.488"/>
<text text-anchor="middle" x="312" y="-376.291" font-family="Helvetica,sans-Serif" font-size="10.00"> colorMultiplier</text>
</g>
<!-- Node24 -->
<g id="node24" class="node"><title>Node24</title>
<polygon fill="white" stroke="#bfbfbf" points="0.5,-348.791 0.5,-367.791 77.5,-367.791 77.5,-348.791 0.5,-348.791"/>
<text text-anchor="middle" x="39" y="-355.791" font-family="Helvetica,sans-Serif" font-size="10.00">unsigned char</text>
</g>
<!-- Node24&#45;&gt;Node23 -->
<g id="edge31" class="edge"><title>Node24&#45;&gt;Node23</title>
<path fill="none" stroke="#9a32cd" stroke-dasharray="5,2" d="M87.8544,-358.291C116.632,-358.291 151.679,-358.291 172.893,-358.291"/>
<polygon fill="#9a32cd" stroke="#9a32cd" points="87.5731,-354.791 77.573,-358.291 87.573,-361.791 87.5731,-354.791"/>
<text text-anchor="middle" x="101" y="-394.291" font-family="Helvetica,sans-Serif" font-size="10.00"> g</text>
<text text-anchor="middle" x="101" y="-383.291" font-family="Helvetica,sans-Serif" font-size="10.00">a</text>
<text text-anchor="middle" x="101" y="-372.291" font-family="Helvetica,sans-Serif" font-size="10.00">r</text>
<text text-anchor="middle" x="101" y="-361.291" font-family="Helvetica,sans-Serif" font-size="10.00">b</text>
</g>
<!-- Node25 -->
<g id="node25" class="node"><title>Node25</title>
<polygon fill="white" stroke="#bfbfbf" points="642,-229.791 642,-248.791 714,-248.791 714,-229.791 642,-229.791"/>
<text text-anchor="middle" x="678" y="-236.791" font-family="Helvetica,sans-Serif" font-size="10.00">vector&lt; int &gt;</text>
</g>
<!-- Node25&#45;&gt;Node15 -->
<g id="edge33" class="edge"><title>Node25&#45;&gt;Node15</title>
<path fill="none" stroke="#9a32cd" stroke-dasharray="5,2" d="M724.504,-239.728C759.416,-240.275 808.793,-241.51 852,-244.291 877.769,-245.95 907.166,-249.033 927.383,-251.339"/>
<polygon fill="#9a32cd" stroke="#9a32cd" points="724.205,-236.223 714.156,-239.579 724.104,-243.222 724.205,-236.223"/>
<text text-anchor="middle" x="810" y="-247.291" font-family="Helvetica,sans-Serif" font-size="10.00"> tileMatrix</text>
</g>
<!-- Node26 -->
<g id="node26" class="node"><title>Node26</title>
<polygon fill="white" stroke="#bfbfbf" points="616.5,-191.791 616.5,-210.791 739.5,-210.791 739.5,-191.791 616.5,-191.791"/>
<text text-anchor="middle" x="678" y="-198.791" font-family="Helvetica,sans-Serif" font-size="10.00">vector&lt; GameObject * &gt;</text>
</g>
<!-- Node26&#45;&gt;Node15 -->
<g id="edge34" class="edge"><title>Node26&#45;&gt;Node15</title>
<path fill="none" stroke="#9a32cd" stroke-dasharray="5,2" d="M749.782,-209.414C781.249,-213.566 818.645,-219.242 852,-226.291 877.93,-231.771 907.053,-240.19 927.153,-246.366"/>
<polygon fill="#9a32cd" stroke="#9a32cd" points="750.153,-205.933 739.786,-208.12 749.254,-212.875 750.153,-205.933"/>
<text text-anchor="middle" x="810" y="-229.291" font-family="Helvetica,sans-Serif" font-size="10.00"> gameObjectMatrix</text>
</g>
<!-- Node27&#45;&gt;Node12 -->
<g id="edge37" class="edge"><title>Node27&#45;&gt;Node12</title>
<path fill="none" stroke="#9a32cd" stroke-dasharray="5,2" d="M454.418,-470.115C556.503,-476.262 887.975,-497.951 1160,-535.291 1171.96,-536.933 1184.91,-539.151 1196.67,-541.337"/>
<polygon fill="#9a32cd" stroke="#9a32cd" points="454.377,-466.606 444.187,-469.505 453.96,-473.594 454.377,-466.606"/>
<text text-anchor="middle" x="810" y="-504.291" font-family="Helvetica,sans-Serif" font-size="10.00"> waveStartSound</text>
</g>
<!-- Node28 -->
<g id="node28" class="node"><title>Node28</title>
<polygon fill="white" stroke="#bfbfbf" points="128,-462.791 128,-481.791 258,-481.791 258,-462.791 128,-462.791"/>
<text text-anchor="middle" x="193" y="-469.791" font-family="Helvetica,sans-Serif" font-size="10.00">shared_ptr&lt; Mix_Chunk &gt;</text>
</g>
<!-- Node28&#45;&gt;Node27 -->
<g id="edge39" class="edge"><title>Node28&#45;&gt;Node27</title>
<path fill="none" stroke="#9a32cd" stroke-dasharray="5,2" d="M268.593,-469.562C272.451,-469.461 276.271,-469.369 280,-469.291 322.585,-468.397 372.42,-468.257 399.976,-468.258"/>
<polygon fill="#9a32cd" stroke="#9a32cd" points="268.228,-466.071 258.331,-469.852 268.426,-473.068 268.228,-466.071"/>
<text text-anchor="middle" x="312" y="-472.291" font-family="Helvetica,sans-Serif" font-size="10.00"> sound</text>
</g>
<!-- Node29 -->
<g id="node29" class="node"><title>Node29</title>
<polygon fill="white" stroke="#bfbfbf" points="870,-291.791 870,-332.791 1036,-332.791 1036,-291.791 870,-291.791"/>
<text text-anchor="start" x="878" y="-320.791" font-family="Helvetica,sans-Serif" font-size="10.00">shared_ptr&lt; std::pair</text>
<text text-anchor="start" x="878" y="-309.791" font-family="Helvetica,sans-Serif" font-size="10.00">&lt; std::vector&lt; WaveData</text>
<text text-anchor="middle" x="953" y="-298.791" font-family="Helvetica,sans-Serif" font-size="10.00"> &gt;, std::vector&lt; EnemyData &gt; &gt; &gt;</text>
</g>
<!-- Node29&#45;&gt;Node12 -->
<g id="edge40" class="edge"><title>Node29&#45;&gt;Node12</title>
<path fill="none" stroke="#9a32cd" stroke-dasharray="5,2" d="M1046.5,-302.703C1085.25,-303.486 1128.51,-311.238 1160,-336.291 1226.67,-389.334 1234.92,-505.498 1235.89,-539.66"/>
<polygon fill="#9a32cd" stroke="#9a32cd" points="1046.25,-299.202 1036.24,-302.653 1046.22,-306.202 1046.25,-299.202"/>
<text text-anchor="middle" x="1107" y="-339.291" font-family="Helvetica,sans-Serif" font-size="10.00"> wavesAndEnemysData</text>
</g>
<!-- Node30&#45;&gt;Node12 -->
<g id="edge41" class="edge"><title>Node30&#45;&gt;Node12</title>
<path fill="none" stroke="#9a32cd" stroke-dasharray="5,2" d="M840.711,-646.256C850.082,-644.985 860.473,-643.578 870,-642.291 934.44,-633.589 1105.94,-639.425 1160,-603.291 1173.25,-594.438 1165.93,-582.69 1178,-572.291 1184.65,-566.564 1192.89,-562.159 1201.06,-558.812"/>
<polygon fill="#9a32cd" stroke="#9a32cd" points="840.105,-642.806 830.666,-647.619 841.046,-649.743 840.105,-642.806"/>
<text text-anchor="middle" x="953" y="-656.291" font-family="Helvetica,sans-Serif" font-size="10.00"> spawnTimer</text>
<text text-anchor="middle" x="953" y="-645.291" font-family="Helvetica,sans-Serif" font-size="10.00">waveTimer</text>
</g>
<!-- Node31 -->
<g id="node31" class="node"><title>Node31</title>
<g id="a_node31"><a xlink:href="classManhattanDistance.html" target="_top" xlink:title="ManhattanDistance">
<polygon fill="white" stroke="black" points="1186.5,-39.7911 1186.5,-58.7911 1287.5,-58.7911 1287.5,-39.7911 1186.5,-39.7911"/>
<text text-anchor="middle" x="1237" y="-46.7911" font-family="Helvetica,sans-Serif" font-size="10.00">ManhattanDistance</text>
</a>
</g>
</g>
<!-- Node31&#45;&gt;Node1 -->
<g id="edge43" class="edge"><title>Node31&#45;&gt;Node1</title>
<path fill="none" stroke="#9a32cd" stroke-dasharray="5,2" d="M1293.61,-38.7881C1323.26,-36.6041 1358.05,-40.0844 1380,-62.2911 1419.63,-102.388 1423.58,-533.179 1423.96,-603.586"/>
<polygon fill="#9a32cd" stroke="#9a32cd" points="1292.98,-35.3321 1283.37,-39.7754 1293.66,-42.2998 1292.98,-35.3321"/>
<text text-anchor="middle" x="1347" y="-65.2911" font-family="Helvetica,sans-Serif" font-size="10.00"> heuristic</text>
</g>
<!-- Node32 -->
<g id="node32" class="node"><title>Node32</title>
<g id="a_node32"><a xlink:href="classAStarHeuristic.html" target="_top" xlink:title="AStarHeuristic">
<polygon fill="white" stroke="black" points="913,-39.7911 913,-58.7911 993,-58.7911 993,-39.7911 913,-39.7911"/>
<text text-anchor="middle" x="953" y="-46.7911" font-family="Helvetica,sans-Serif" font-size="10.00">AStarHeuristic</text>
</a>
</g>
</g>
<!-- Node32&#45;&gt;Node31 -->
<g id="edge44" class="edge"><title>Node32&#45;&gt;Node31</title>
<path fill="none" stroke="midnightblue" d="M1003.4,-49.2911C1054.76,-49.2911 1134.7,-49.2911 1186.2,-49.2911"/>
<polygon fill="midnightblue" stroke="midnightblue" points="1003.21,-45.7912 993.211,-49.2911 1003.21,-52.7912 1003.21,-45.7912"/>
</g>
<!-- Node33 -->
<g id="node33" class="node"><title>Node33</title>
<polygon fill="white" stroke="#bfbfbf" points="1188,-1.79106 1188,-20.7911 1286,-20.7911 1286,-1.79106 1188,-1.79106"/>
<text text-anchor="middle" x="1237" y="-8.79106" font-family="Helvetica,sans-Serif" font-size="10.00">map&lt; int, double &gt;</text>
</g>
<!-- Node33&#45;&gt;Node1 -->
<g id="edge47" class="edge"><title>Node33&#45;&gt;Node1</title>
<path fill="none" stroke="#9a32cd" stroke-dasharray="5,2" d="M1293.34,-0.768313C1323.07,1.47735 1358.03,-1.94927 1380,-24.2911 1422.33,-67.3358 1424.01,-529.63 1424.01,-603.393"/>
<polygon fill="#9a32cd" stroke="#9a32cd" points="1292.68,2.68387 1283.07,-1.77748 1293.36,-4.28257 1292.68,2.68387"/>
<text text-anchor="middle" x="1347" y="-27.2911" font-family="Helvetica,sans-Serif" font-size="10.00"> tileWeightMap</text>
</g>
</g>
</svg>
