<?xml version="1.0" encoding="UTF-8" standalone="no"?>
<!DOCTYPE svg PUBLIC "-//W3C//DTD SVG 1.1//EN"
 "http://www.w3.org/Graphics/SVG/1.1/DTD/svg11.dtd">
<!-- Generated by graphviz version 2.36.0 (20140111.2315)
 -->
<!-- Title: UItextButton Pages: 1 -->
<svg width="716pt" height="606pt"
 viewBox="0.00 0.00 716.00 605.89" xmlns="http://www.w3.org/2000/svg" xmlns:xlink="http://www.w3.org/1999/xlink">
<g id="graph0" class="graph" transform="scale(1 1) rotate(0) translate(4 601.892)">
<title>UItextButton</title>
<polygon fill="white" stroke="none" points="-4,4 -4,-601.892 712,-601.892 712,4 -4,4"/>
<!-- Node1 -->
<g id="node1" class="node"><title>Node1</title>
<polygon fill="#bfbfbf" stroke="black" points="636,-380.392 636,-399.392 708,-399.392 708,-380.392 636,-380.392"/>
<text text-anchor="middle" x="672" y="-387.392" font-family="Helvetica,sans-Serif" font-size="10.00">UItextButton</text>
</g>
<!-- Node2 -->
<g id="node2" class="node"><title>Node2</title>
<g id="a_node2"><a xlink:href="classUItext.html" target="_top" xlink:title="Classe que modela textos. ">
<polygon fill="white" stroke="black" points="541,-380.392 541,-399.392 585,-399.392 585,-380.392 541,-380.392"/>
<text text-anchor="middle" x="563" y="-387.392" font-family="Helvetica,sans-Serif" font-size="10.00">UItext</text>
</a>
</g>
</g>
<!-- Node2&#45;&gt;Node1 -->
<g id="edge1" class="edge"><title>Node2&#45;&gt;Node1</title>
<path fill="none" stroke="midnightblue" d="M595.209,-389.892C607.858,-389.892 622.532,-389.892 635.58,-389.892"/>
<polygon fill="midnightblue" stroke="midnightblue" points="595.14,-386.392 585.14,-389.892 595.14,-393.392 595.14,-386.392"/>
</g>
<!-- Node3 -->
<g id="node3" class="node"><title>Node3</title>
<g id="a_node3"><a xlink:href="classUIelement.html" target="_top" xlink:title="UIelement">
<polygon fill="white" stroke="black" points="313,-359.392 313,-378.392 375,-378.392 375,-359.392 313,-359.392"/>
<text text-anchor="middle" x="344" y="-366.392" font-family="Helvetica,sans-Serif" font-size="10.00">UIelement</text>
</a>
</g>
</g>
<!-- Node3&#45;&gt;Node2 -->
<g id="edge2" class="edge"><title>Node3&#45;&gt;Node2</title>
<path fill="none" stroke="midnightblue" d="M385.404,-372.802C431.459,-377.259 504.989,-384.375 540.891,-387.849"/>
<polygon fill="midnightblue" stroke="midnightblue" points="385.464,-369.292 375.173,-371.812 384.789,-376.259 385.464,-369.292"/>
</g>
<!-- Node4 -->
<g id="node4" class="node"><title>Node4</title>
<g id="a_node4"><a xlink:href="classVec2.html" target="_top" xlink:title="Classe que modela um vetor(no sentido físico) ">
<polygon fill="white" stroke="black" points="113.5,-274.392 113.5,-293.392 152.5,-293.392 152.5,-274.392 113.5,-274.392"/>
<text text-anchor="middle" x="133" y="-281.392" font-family="Helvetica,sans-Serif" font-size="10.00">Vec2</text>
</a>
</g>
</g>
<!-- Node4&#45;&gt;Node3 -->
<g id="edge3" class="edge"><title>Node4&#45;&gt;Node3</title>
<path fill="none" stroke="#9a32cd" stroke-dasharray="5,2" d="M162.941,-282.761C191.386,-283.118 234.679,-287.76 264,-309.892 277.961,-320.431 269.027,-333.158 282,-344.892 290.693,-352.755 302.266,-358.176 312.994,-361.847"/>
<polygon fill="#9a32cd" stroke="#9a32cd" points="162.811,-279.262 152.827,-282.806 162.842,-286.262 162.811,-279.262"/>
<text text-anchor="middle" x="227" y="-312.892" font-family="Helvetica,sans-Serif" font-size="10.00"> kernelSize</text>
</g>
<!-- Node5 -->
<g id="node5" class="node"><title>Node5</title>
<polygon fill="white" stroke="#bfbfbf" points="0.5,-308.392 0.5,-327.392 35.5,-327.392 35.5,-308.392 0.5,-308.392"/>
<text text-anchor="middle" x="18" y="-315.392" font-family="Helvetica,sans-Serif" font-size="10.00">float</text>
</g>
<!-- Node5&#45;&gt;Node2 -->
<g id="edge11" class="edge"><title>Node5&#45;&gt;Node2</title>
<path fill="none" stroke="#9a32cd" stroke-dasharray="5,2" d="M23.3434,-337.418C28.0261,-353.528 37.1856,-375.519 54,-386.892 134.817,-441.554 455.387,-403.973 540.927,-392.763"/>
<polygon fill="#9a32cd" stroke="#9a32cd" points="26.6509,-336.226 20.7776,-327.408 19.8701,-337.964 26.6509,-336.226"/>
<text text-anchor="middle" x="227" y="-428.892" font-family="Helvetica,sans-Serif" font-size="10.00"> timeShown</text>
<text text-anchor="middle" x="227" y="-417.892" font-family="Helvetica,sans-Serif" font-size="10.00">strobeFrequency</text>
</g>
<!-- Node5&#45;&gt;Node4 -->
<g id="edge4" class="edge"><title>Node5&#45;&gt;Node4</title>
<path fill="none" stroke="#9a32cd" stroke-dasharray="5,2" d="M44.9103,-306.224C47.9468,-305.025 51.0231,-303.885 54,-302.892 73.9647,-296.234 97.5147,-290.82 113.474,-287.499"/>
<polygon fill="#9a32cd" stroke="#9a32cd" points="43.3962,-303.064 35.5164,-310.146 46.0929,-309.523 43.3962,-303.064"/>
<text text-anchor="middle" x="65" y="-316.892" font-family="Helvetica,sans-Serif" font-size="10.00"> x</text>
<text text-anchor="middle" x="65" y="-305.892" font-family="Helvetica,sans-Serif" font-size="10.00">y</text>
</g>
<!-- Node6 -->
<g id="node6" class="node"><title>Node6</title>
<g id="a_node6"><a xlink:href="classRect.html" target="_top" xlink:title="Classe que modela um rect. ">
<polygon fill="white" stroke="black" points="114,-350.392 114,-369.392 152,-369.392 152,-350.392 114,-350.392"/>
<text text-anchor="middle" x="133" y="-357.392" font-family="Helvetica,sans-Serif" font-size="10.00">Rect</text>
</a>
</g>
</g>
<!-- Node5&#45;&gt;Node6 -->
<g id="edge6" class="edge"><title>Node5&#45;&gt;Node6</title>
<path fill="none" stroke="#9a32cd" stroke-dasharray="5,2" d="M45.2748,-327.658C66.2898,-335.469 95.2108,-346.218 113.758,-353.112"/>
<polygon fill="#9a32cd" stroke="#9a32cd" points="46.2664,-324.293 35.6735,-324.089 43.8276,-330.854 46.2664,-324.293"/>
<text text-anchor="middle" x="65" y="-374.892" font-family="Helvetica,sans-Serif" font-size="10.00"> w</text>
<text text-anchor="middle" x="65" y="-363.892" font-family="Helvetica,sans-Serif" font-size="10.00">x</text>
<text text-anchor="middle" x="65" y="-352.892" font-family="Helvetica,sans-Serif" font-size="10.00">h</text>
<text text-anchor="middle" x="65" y="-341.892" font-family="Helvetica,sans-Serif" font-size="10.00">y</text>
</g>
<!-- Node14 -->
<g id="node14" class="node"><title>Node14</title>
<g id="a_node14"><a xlink:href="classTimer.html" target="_top" xlink:title="Temporizador. ">
<polygon fill="white" stroke="black" points="206.5,-238.392 206.5,-257.392 247.5,-257.392 247.5,-238.392 206.5,-238.392"/>
<text text-anchor="middle" x="227" y="-245.392" font-family="Helvetica,sans-Serif" font-size="10.00">Timer</text>
</a>
</g>
</g>
<!-- Node5&#45;&gt;Node14 -->
<g id="edge16" class="edge"><title>Node5&#45;&gt;Node14</title>
<path fill="none" stroke="#9a32cd" stroke-dasharray="5,2" d="M32.836,-300.261C38.7935,-293.529 46.1836,-286.203 54,-280.892 101.406,-248.679 172.254,-246.013 206.32,-246.846"/>
<polygon fill="#9a32cd" stroke="#9a32cd" points="29.864,-298.359 26.1318,-308.274 35.2329,-302.85 29.864,-298.359"/>
<text text-anchor="middle" x="65" y="-283.892" font-family="Helvetica,sans-Serif" font-size="10.00"> time</text>
</g>
<!-- Node6&#45;&gt;Node3 -->
<g id="edge5" class="edge"><title>Node6&#45;&gt;Node3</title>
<path fill="none" stroke="#9a32cd" stroke-dasharray="5,2" d="M162.335,-356.868C171.184,-356.057 180.988,-355.294 190,-354.892 222.856,-353.428 231.238,-352.012 264,-354.892 280.234,-356.319 298.131,-359.366 312.779,-362.254"/>
<polygon fill="#9a32cd" stroke="#9a32cd" points="161.745,-353.409 152.131,-357.861 162.423,-360.376 161.745,-353.409"/>
<text text-anchor="middle" x="227" y="-390.892" font-family="Helvetica,sans-Serif" font-size="10.00"> offsets</text>
<text text-anchor="middle" x="227" y="-379.892" font-family="Helvetica,sans-Serif" font-size="10.00">box</text>
<text text-anchor="middle" x="227" y="-368.892" font-family="Helvetica,sans-Serif" font-size="10.00">anchors</text>
<text text-anchor="middle" x="227" y="-357.892" font-family="Helvetica,sans-Serif" font-size="10.00">boundingBox</text>
</g>
<!-- Node7 -->
<g id="node7" class="node"><title>Node7</title>
<polygon fill="white" stroke="#bfbfbf" points="94.5,-312.392 94.5,-331.392 171.5,-331.392 171.5,-312.392 94.5,-312.392"/>
<text text-anchor="middle" x="133" y="-319.392" font-family="Helvetica,sans-Serif" font-size="10.00">BehaviorType</text>
</g>
<!-- Node7&#45;&gt;Node3 -->
<g id="edge7" class="edge"><title>Node7&#45;&gt;Node3</title>
<path fill="none" stroke="#9a32cd" stroke-dasharray="5,2" d="M181.96,-324.898C206.732,-327.176 237.287,-331.122 264,-337.892 264.719,-338.074 295.78,-350.288 318.734,-359.329"/>
<polygon fill="#9a32cd" stroke="#9a32cd" points="181.988,-321.388 171.725,-324.02 181.39,-328.362 181.988,-321.388"/>
<text text-anchor="middle" x="227" y="-340.892" font-family="Helvetica,sans-Serif" font-size="10.00"> behavior</text>
</g>
<!-- Node8 -->
<g id="node8" class="node"><title>Node8</title>
<polygon fill="white" stroke="#bfbfbf" points="282.5,-274.392 282.5,-293.392 405.5,-293.392 405.5,-274.392 282.5,-274.392"/>
<text text-anchor="middle" x="344" y="-281.392" font-family="Helvetica,sans-Serif" font-size="10.00">shared_ptr&lt; TTF_Font &gt;</text>
</g>
<!-- Node8&#45;&gt;Node2 -->
<g id="edge8" class="edge"><title>Node8&#45;&gt;Node2</title>
<path fill="none" stroke="#9a32cd" stroke-dasharray="5,2" d="M416.122,-279.632C447.116,-280.978 482.553,-287.137 510,-304.892 538.034,-323.027 553.353,-362.13 559.196,-380.277"/>
<polygon fill="#9a32cd" stroke="#9a32cd" points="415.891,-276.124 405.799,-279.35 415.7,-283.121 415.891,-276.124"/>
<text text-anchor="middle" x="467" y="-307.892" font-family="Helvetica,sans-Serif" font-size="10.00"> font</text>
</g>
<!-- Node9 -->
<g id="node9" class="node"><title>Node9</title>
<polygon fill="white" stroke="#bfbfbf" points="311.5,-559.392 311.5,-578.392 376.5,-578.392 376.5,-559.392 311.5,-559.392"/>
<text text-anchor="middle" x="344" y="-566.392" font-family="Helvetica,sans-Serif" font-size="10.00">SDL_Color</text>
</g>
<!-- Node9&#45;&gt;Node1 -->
<g id="edge22" class="edge"><title>Node9&#45;&gt;Node1</title>
<path fill="none" stroke="#9a32cd" stroke-dasharray="5,2" d="M386.957,-576.269C421.565,-580.376 471.116,-581.595 510,-563.892 590.157,-527.398 648.807,-430.328 665.894,-399.459"/>
<polygon fill="#9a32cd" stroke="#9a32cd" points="387.096,-572.757 376.724,-574.919 386.181,-579.697 387.096,-572.757"/>
<text text-anchor="middle" x="563" y="-589.892" font-family="Helvetica,sans-Serif" font-size="10.00"> pressedColor</text>
<text text-anchor="middle" x="563" y="-578.892" font-family="Helvetica,sans-Serif" font-size="10.00">disabledColor</text>
<text text-anchor="middle" x="563" y="-567.892" font-family="Helvetica,sans-Serif" font-size="10.00">highlightedColor</text>
<text text-anchor="middle" x="563" y="-556.892" font-family="Helvetica,sans-Serif" font-size="10.00">enabledColor</text>
</g>
<!-- Node9&#45;&gt;Node2 -->
<g id="edge9" class="edge"><title>Node9&#45;&gt;Node2</title>
<path fill="none" stroke="#9a32cd" stroke-dasharray="5,2" d="M386.744,-560.052C434.069,-549.877 505.312,-534.034 510,-529.892 550.221,-494.356 559.396,-424.753 561.435,-399.41"/>
<polygon fill="#9a32cd" stroke="#9a32cd" points="385.794,-556.676 376.749,-562.193 387.261,-563.521 385.794,-556.676"/>
<text text-anchor="middle" x="467" y="-553.892" font-family="Helvetica,sans-Serif" font-size="10.00"> color</text>
</g>
<!-- Node10 -->
<g id="node10" class="node"><title>Node10</title>
<polygon fill="white" stroke="#bfbfbf" points="303.5,-198.392 303.5,-217.392 384.5,-217.392 384.5,-198.392 303.5,-198.392"/>
<text text-anchor="middle" x="344" y="-205.392" font-family="Helvetica,sans-Serif" font-size="10.00">SDL_Texture *</text>
</g>
<!-- Node10&#45;&gt;Node2 -->
<g id="edge10" class="edge"><title>Node10&#45;&gt;Node2</title>
<path fill="none" stroke="#9a32cd" stroke-dasharray="5,2" d="M394.811,-199.291C430.683,-196.015 478.174,-198.053 510,-223.892 559.471,-264.057 562.718,-350.782 562.33,-380.031"/>
<polygon fill="#9a32cd" stroke="#9a32cd" points="394.121,-195.845 384.554,-200.398 394.872,-202.804 394.121,-195.845"/>
<text text-anchor="middle" x="467" y="-226.892" font-family="Helvetica,sans-Serif" font-size="10.00"> texture</text>
</g>
<!-- Node11 -->
<g id="node11" class="node"><title>Node11</title>
<polygon fill="white" stroke="#bfbfbf" points="329.5,-512.392 329.5,-531.392 358.5,-531.392 358.5,-512.392 329.5,-512.392"/>
<text text-anchor="middle" x="344" y="-519.392" font-family="Helvetica,sans-Serif" font-size="10.00">int</text>
</g>
<!-- Node11&#45;&gt;Node2 -->
<g id="edge12" class="edge"><title>Node11&#45;&gt;Node2</title>
<path fill="none" stroke="#9a32cd" stroke-dasharray="5,2" d="M368.905,-520.47C409.107,-517.654 488.02,-510.176 510,-493.892 542.278,-469.978 555.796,-420.4 560.215,-399.507"/>
<polygon fill="#9a32cd" stroke="#9a32cd" points="368.42,-516.994 358.672,-521.144 368.881,-523.979 368.42,-516.994"/>
<text text-anchor="middle" x="467" y="-517.892" font-family="Helvetica,sans-Serif" font-size="10.00"> fontSize</text>
</g>
<!-- Node12 -->
<g id="node12" class="node"><title>Node12</title>
<polygon fill="white" stroke="#bfbfbf" points="326.5,-474.392 326.5,-493.392 361.5,-493.392 361.5,-474.392 326.5,-474.392"/>
<text text-anchor="middle" x="344" y="-481.392" font-family="Helvetica,sans-Serif" font-size="10.00">bool</text>
</g>
<!-- Node12&#45;&gt;Node2 -->
<g id="edge13" class="edge"><title>Node12&#45;&gt;Node2</title>
<path fill="none" stroke="#9a32cd" stroke-dasharray="5,2" d="M371.668,-482.875C412.257,-480.909 487.232,-475.507 510,-461.892 534.747,-447.094 551.087,-415.497 558.097,-399.539"/>
<polygon fill="#9a32cd" stroke="#9a32cd" points="371.505,-479.379 361.672,-483.324 371.818,-486.372 371.505,-479.379"/>
<text text-anchor="middle" x="467" y="-481.892" font-family="Helvetica,sans-Serif" font-size="10.00"> isStrobe</text>
</g>
<!-- Node13 -->
<g id="node13" class="node"><title>Node13</title>
<polygon fill="white" stroke="#bfbfbf" points="323.5,-435.392 323.5,-454.392 364.5,-454.392 364.5,-435.392 323.5,-435.392"/>
<text text-anchor="middle" x="344" y="-442.392" font-family="Helvetica,sans-Serif" font-size="10.00">string</text>
</g>
<!-- Node13&#45;&gt;Node2 -->
<g id="edge14" class="edge"><title>Node13&#45;&gt;Node2</title>
<path fill="none" stroke="#9a32cd" stroke-dasharray="5,2" d="M374.593,-442.656C408.144,-439.488 464.137,-432.269 510,-416.892 522.924,-412.559 536.565,-405.364 546.632,-399.491"/>
<polygon fill="#9a32cd" stroke="#9a32cd" points="374.181,-439.179 364.529,-443.548 374.799,-446.151 374.181,-439.179"/>
<text text-anchor="middle" x="467" y="-449.892" font-family="Helvetica,sans-Serif" font-size="10.00"> fontFile</text>
<text text-anchor="middle" x="467" y="-438.892" font-family="Helvetica,sans-Serif" font-size="10.00">text</text>
</g>
<!-- Node14&#45;&gt;Node2 -->
<g id="edge15" class="edge"><title>Node14&#45;&gt;Node2</title>
<path fill="none" stroke="#9a32cd" stroke-dasharray="5,2" d="M247.525,-264.104C253.043,-268.986 258.923,-274.486 264,-279.892 272.887,-289.353 271.248,-295.62 282,-302.892 329.536,-335.041 351.164,-321.974 406,-338.892 454.465,-353.845 510.953,-372.66 540.876,-382.738"/>
<polygon fill="#9a32cd" stroke="#9a32cd" points="249.698,-261.356 239.837,-257.479 245.128,-266.659 249.698,-261.356"/>
<text text-anchor="middle" x="344" y="-341.892" font-family="Helvetica,sans-Serif" font-size="10.00"> textTime</text>
</g>
<!-- Node15 -->
<g id="node15" class="node"><title>Node15</title>
<polygon fill="white" stroke="#bfbfbf" points="314.5,-236.392 314.5,-255.392 373.5,-255.392 373.5,-236.392 314.5,-236.392"/>
<text text-anchor="middle" x="344" y="-243.392" font-family="Helvetica,sans-Serif" font-size="10.00">TextStyle</text>
</g>
<!-- Node15&#45;&gt;Node2 -->
<g id="edge17" class="edge"><title>Node15&#45;&gt;Node2</title>
<path fill="none" stroke="#9a32cd" stroke-dasharray="5,2" d="M383.718,-239.998C419.973,-236.678 473.84,-237.653 510,-264.892 548.298,-293.742 558.579,-355.989 561.176,-380.086"/>
<polygon fill="#9a32cd" stroke="#9a32cd" points="383.103,-236.544 373.531,-241.086 383.846,-243.504 383.103,-236.544"/>
<text text-anchor="middle" x="467" y="-267.892" font-family="Helvetica,sans-Serif" font-size="10.00"> style</text>
</g>
<!-- Node16 -->
<g id="node16" class="node"><title>Node16</title>
<g id="a_node16"><a xlink:href="classUIbutton.html" target="_top" xlink:title="Classe virtual que modela o comportamento de um botão na interface gráfica. ">
<polygon fill="white" stroke="black" points="536,-121.392 536,-140.392 590,-140.392 590,-121.392 536,-121.392"/>
<text text-anchor="middle" x="563" y="-128.392" font-family="Helvetica,sans-Serif" font-size="10.00">UIbutton</text>
</a>
</g>
</g>
<!-- Node16&#45;&gt;Node1 -->
<g id="edge18" class="edge"><title>Node16&#45;&gt;Node1</title>
<path fill="none" stroke="midnightblue" d="M571.76,-149.676C592.951,-200.969 651.268,-342.129 667.029,-380.28"/>
<polygon fill="midnightblue" stroke="midnightblue" points="574.988,-148.323 567.935,-140.417 568.519,-150.996 574.988,-148.323"/>
</g>
<!-- Node17 -->
<g id="node17" class="node"><title>Node17</title>
<polygon fill="white" stroke="#bfbfbf" points="306.5,-4.39209 306.5,-23.3921 381.5,-23.3921 381.5,-4.39209 306.5,-4.39209"/>
<text text-anchor="middle" x="344" y="-11.3921" font-family="Helvetica,sans-Serif" font-size="10.00">void(*)(void *)</text>
</g>
<!-- Node17&#45;&gt;Node16 -->
<g id="edge19" class="edge"><title>Node17&#45;&gt;Node16</title>
<path fill="none" stroke="#9a32cd" stroke-dasharray="5,2" d="M391.82,-3.33129C427.196,1.92598 475.405,2.99771 510,-19.8921 545.85,-43.6122 557.5,-99.0098 560.82,-121.325"/>
<polygon fill="#9a32cd" stroke="#9a32cd" points="391.042,0.0878364 381.744,-4.9915 392.18,-6.81903 391.042,0.0878364"/>
<text text-anchor="middle" x="467" y="-66.8921" font-family="Helvetica,sans-Serif" font-size="10.00"> pressedCallback</text>
<text text-anchor="middle" x="467" y="-55.8921" font-family="Helvetica,sans-Serif" font-size="10.00">disabledCallback</text>
<text text-anchor="middle" x="467" y="-44.8921" font-family="Helvetica,sans-Serif" font-size="10.00">highlightedCallback</text>
<text text-anchor="middle" x="467" y="-33.8921" font-family="Helvetica,sans-Serif" font-size="10.00">enabledCallback</text>
<text text-anchor="middle" x="467" y="-22.8921" font-family="Helvetica,sans-Serif" font-size="10.00">clickedCallback</text>
</g>
<!-- Node18 -->
<g id="node18" class="node"><title>Node18</title>
<polygon fill="white" stroke="#bfbfbf" points="324,-160.392 324,-179.392 364,-179.392 364,-160.392 324,-160.392"/>
<text text-anchor="middle" x="344" y="-167.392" font-family="Helvetica,sans-Serif" font-size="10.00">State</text>
</g>
<!-- Node18&#45;&gt;Node16 -->
<g id="edge20" class="edge"><title>Node18&#45;&gt;Node16</title>
<path fill="none" stroke="#9a32cd" stroke-dasharray="5,2" d="M374.372,-167.614C407.595,-164.659 463.169,-158.574 510,-147.892 518.612,-145.928 527.829,-143.147 536.076,-140.402"/>
<polygon fill="#9a32cd" stroke="#9a32cd" points="373.673,-164.16 364.007,-168.498 374.268,-171.135 373.673,-164.16"/>
<text text-anchor="middle" x="467" y="-165.892" font-family="Helvetica,sans-Serif" font-size="10.00"> actualState</text>
</g>
<!-- Node19 -->
<g id="node19" class="node"><title>Node19</title>
<polygon fill="white" stroke="#bfbfbf" points="323.5,-82.3921 323.5,-101.392 364.5,-101.392 364.5,-82.3921 323.5,-82.3921"/>
<text text-anchor="middle" x="344" y="-89.3921" font-family="Helvetica,sans-Serif" font-size="10.00">void *</text>
</g>
<!-- Node19&#45;&gt;Node16 -->
<g id="edge21" class="edge"><title>Node19&#45;&gt;Node16</title>
<path fill="none" stroke="#9a32cd" stroke-dasharray="5,2" d="M374.645,-85.2682C408.462,-79.0785 464.906,-72.9555 510,-88.8921 528.163,-95.311 544.635,-111.065 553.973,-121.349"/>
<polygon fill="#9a32cd" stroke="#9a32cd" points="373.645,-81.8973 364.503,-87.2523 374.989,-88.7671 373.645,-81.8973"/>
<text text-anchor="middle" x="467" y="-135.892" font-family="Helvetica,sans-Serif" font-size="10.00"> clickCaller</text>
<text text-anchor="middle" x="467" y="-124.892" font-family="Helvetica,sans-Serif" font-size="10.00">disableCaller</text>
<text text-anchor="middle" x="467" y="-113.892" font-family="Helvetica,sans-Serif" font-size="10.00">highlightedCaller</text>
<text text-anchor="middle" x="467" y="-102.892" font-family="Helvetica,sans-Serif" font-size="10.00">pressedCaller</text>
<text text-anchor="middle" x="467" y="-91.8921" font-family="Helvetica,sans-Serif" font-size="10.00">enabledCaller</text>
</g>
</g>
</svg>
