<?xml version="1.0" encoding="UTF-8" standalone="no"?>
<!DOCTYPE svg PUBLIC "-//W3C//DTD SVG 1.1//EN"
 "http://www.w3.org/Graphics/SVG/1.1/DTD/svg11.dtd">
<!-- Generated by graphviz version 2.38.0 (20140413.2041)
 -->
<!-- Title: Enemy Pages: 1 -->
<svg width="753pt" height="691pt"
 viewBox="0.00 0.00 753.00 691.00" xmlns="http://www.w3.org/2000/svg" xmlns:xlink="http://www.w3.org/1999/xlink">
<g id="graph0" class="graph" transform="scale(1 1) rotate(0) translate(4 687)">
<title>Enemy</title>
<polygon fill="white" stroke="none" points="-4,4 -4,-687 749,-687 749,4 -4,4"/>
<!-- Node1 -->
<g id="node1" class="node"><title>Node1</title>
<polygon fill="#bfbfbf" stroke="black" points="698,-425.5 698,-444.5 745,-444.5 745,-425.5 698,-425.5"/>
<text text-anchor="middle" x="721.5" y="-432.5" font-family="Helvetica,sans-Serif" font-size="10.00">Enemy</text>
</g>
<!-- Node2 -->
<g id="node2" class="node"><title>Node2</title>
<g id="a_node2"><a xlink:href="classGameObject.html" target="_top" xlink:title="Classe virtual que especifica o funcionamento de um GameObject. ">
<polygon fill="white" stroke="black" points="362,-582.5 362,-601.5 433,-601.5 433,-582.5 362,-582.5"/>
<text text-anchor="middle" x="397.5" y="-589.5" font-family="Helvetica,sans-Serif" font-size="10.00">GameObject</text>
</a>
</g>
</g>
<!-- Node2&#45;&gt;Node1 -->
<g id="edge1" class="edge"><title>Node2&#45;&gt;Node1</title>
<path fill="none" stroke="midnightblue" d="M443.327,-597.762C504.051,-602.975 612.59,-602.769 680,-547 712.022,-520.508 718.727,-466.572 720.129,-444.619"/>
<polygon fill="midnightblue" stroke="midnightblue" points="443.57,-594.269 433.285,-596.812 442.911,-601.238 443.57,-594.269"/>
</g>
<!-- Node13 -->
<g id="node13" class="node"><title>Node13</title>
<g id="a_node13"><a xlink:href="classHitPoints.html" target="_top" xlink:title="HitPoints">
<polygon fill="white" stroke="black" points="544,-261.5 544,-280.5 601,-280.5 601,-261.5 544,-261.5"/>
<text text-anchor="middle" x="572.5" y="-268.5" font-family="Helvetica,sans-Serif" font-size="10.00">HitPoints</text>
</a>
</g>
</g>
<!-- Node2&#45;&gt;Node13 -->
<g id="edge17" class="edge"><title>Node2&#45;&gt;Node13</title>
<path fill="none" stroke="#9a32cd" stroke-dasharray="5,2" d="M400.395,-572.181C405.827,-518.86 422.885,-373.825 451,-336 473.971,-305.095 516.124,-287.275 543.983,-278.355"/>
<polygon fill="#9a32cd" stroke="#9a32cd" points="396.89,-572.063 399.388,-582.359 403.856,-572.752 396.89,-572.063"/>
<text text-anchor="middle" x="478" y="-339" font-family="Helvetica,sans-Serif" font-size="10.00"> associated</text>
</g>
<!-- Node3 -->
<g id="node3" class="node"><title>Node3</title>
<g id="a_node3"><a xlink:href="classRect.html" target="_top" xlink:title="Classe que modela um rect. ">
<polygon fill="white" stroke="black" points="174,-651.5 174,-670.5 212,-670.5 212,-651.5 174,-651.5"/>
<text text-anchor="middle" x="193" y="-658.5" font-family="Helvetica,sans-Serif" font-size="10.00">Rect</text>
</a>
</g>
</g>
<!-- Node3&#45;&gt;Node2 -->
<g id="edge2" class="edge"><title>Node3&#45;&gt;Node2</title>
<path fill="none" stroke="#9a32cd" stroke-dasharray="5,2" d="M222.616,-660.663C253.805,-659.308 304.526,-654.168 344,-636 361.717,-627.846 378.28,-612.082 387.897,-601.804"/>
<polygon fill="#9a32cd" stroke="#9a32cd" points="222.328,-657.17 212.45,-660.999 222.56,-664.167 222.328,-657.17"/>
<text text-anchor="middle" x="312" y="-658" font-family="Helvetica,sans-Serif" font-size="10.00"> box</text>
</g>
<!-- Node4 -->
<g id="node4" class="node"><title>Node4</title>
<polygon fill="white" stroke="#bfbfbf" points="21,-612.5 21,-631.5 56,-631.5 56,-612.5 21,-612.5"/>
<text text-anchor="middle" x="38.5" y="-619.5" font-family="Helvetica,sans-Serif" font-size="10.00">float</text>
</g>
<!-- Node4&#45;&gt;Node2 -->
<g id="edge4" class="edge"><title>Node4&#45;&gt;Node2</title>
<path fill="none" stroke="#9a32cd" stroke-dasharray="5,2" d="M66.3573,-621.623C119.571,-620.589 242.072,-616.785 344,-603 349.814,-602.214 355.946,-601.148 361.887,-599.989"/>
<polygon fill="#9a32cd" stroke="#9a32cd" points="66.0227,-618.128 56.0859,-621.804 66.1461,-625.127 66.0227,-618.128"/>
<text text-anchor="middle" x="193" y="-623" font-family="Helvetica,sans-Serif" font-size="10.00"> rotation</text>
</g>
<!-- Node4&#45;&gt;Node3 -->
<g id="edge3" class="edge"><title>Node4&#45;&gt;Node3</title>
<path fill="none" stroke="#9a32cd" stroke-dasharray="5,2" d="M66.1877,-628.825C97.1428,-636.741 147.327,-649.575 173.998,-656.396"/>
<polygon fill="#9a32cd" stroke="#9a32cd" points="66.6659,-625.335 56.1105,-626.248 64.9315,-632.117 66.6659,-625.335"/>
<text text-anchor="middle" x="100.5" y="-675" font-family="Helvetica,sans-Serif" font-size="10.00"> w</text>
<text text-anchor="middle" x="100.5" y="-664" font-family="Helvetica,sans-Serif" font-size="10.00">x</text>
<text text-anchor="middle" x="100.5" y="-653" font-family="Helvetica,sans-Serif" font-size="10.00">h</text>
<text text-anchor="middle" x="100.5" y="-642" font-family="Helvetica,sans-Serif" font-size="10.00">y</text>
</g>
<!-- Node15 -->
<g id="node15" class="node"><title>Node15</title>
<g id="a_node15"><a xlink:href="classSprite.html" target="_top" xlink:title="Classe que modela uma sprite. ">
<polygon fill="white" stroke="black" points="376.5,-127.5 376.5,-146.5 418.5,-146.5 418.5,-127.5 376.5,-127.5"/>
<text text-anchor="middle" x="397.5" y="-134.5" font-family="Helvetica,sans-Serif" font-size="10.00">Sprite</text>
</a>
</g>
</g>
<!-- Node4&#45;&gt;Node15 -->
<g id="edge19" class="edge"><title>Node4&#45;&gt;Node15</title>
<path fill="none" stroke="#9a32cd" stroke-dasharray="5,2" d="M41.686,-602.299C49.7036,-533.021 79.3725,-301.688 124,-244 187.909,-161.388 324.808,-142.458 376.332,-138.204"/>
<polygon fill="#9a32cd" stroke="#9a32cd" points="38.2005,-601.974 40.5494,-612.305 45.1558,-602.764 38.2005,-601.974"/>
<text text-anchor="middle" x="193" y="-280" font-family="Helvetica,sans-Serif" font-size="10.00"> scaleY</text>
<text text-anchor="middle" x="193" y="-269" font-family="Helvetica,sans-Serif" font-size="10.00">frameTime</text>
<text text-anchor="middle" x="193" y="-258" font-family="Helvetica,sans-Serif" font-size="10.00">timeElapsed</text>
<text text-anchor="middle" x="193" y="-247" font-family="Helvetica,sans-Serif" font-size="10.00">scaleX</text>
</g>
<!-- Node5 -->
<g id="node5" class="node"><title>Node5</title>
<polygon fill="white" stroke="#bfbfbf" points="175.5,-519.5 175.5,-538.5 210.5,-538.5 210.5,-519.5 175.5,-519.5"/>
<text text-anchor="middle" x="193" y="-526.5" font-family="Helvetica,sans-Serif" font-size="10.00">bool</text>
</g>
<!-- Node5&#45;&gt;Node1 -->
<g id="edge11" class="edge"><title>Node5&#45;&gt;Node1</title>
<path fill="none" stroke="#9a32cd" stroke-dasharray="5,2" d="M220.762,-530.925C288.624,-535.19 472.643,-542.912 622,-514 648.916,-508.79 658.247,-509.685 680,-493 697.151,-479.845 709.862,-457.364 716.131,-444.598"/>
<polygon fill="#9a32cd" stroke="#9a32cd" points="220.742,-527.416 210.534,-530.251 220.283,-534.401 220.742,-527.416"/>
<text text-anchor="middle" x="478" y="-536" font-family="Helvetica,sans-Serif" font-size="10.00"> dead</text>
</g>
<!-- Node5&#45;&gt;Node2 -->
<g id="edge5" class="edge"><title>Node5&#45;&gt;Node2</title>
<path fill="none" stroke="#9a32cd" stroke-dasharray="5,2" d="M220.716,-534.826C251.005,-541.729 301.676,-554.183 344,-569 354.895,-572.814 366.695,-577.894 376.344,-582.31"/>
<polygon fill="#9a32cd" stroke="#9a32cd" points="221.423,-531.398 210.899,-532.621 219.889,-538.228 221.423,-531.398"/>
<text text-anchor="middle" x="312" y="-572" font-family="Helvetica,sans-Serif" font-size="10.00"> dead</text>
</g>
<!-- Node5&#45;&gt;Node15 -->
<g id="edge23" class="edge"><title>Node5&#45;&gt;Node15</title>
<path fill="none" stroke="#9a32cd" stroke-dasharray="5,2" d="M202.659,-510.118C216.383,-479.754 243.47,-418.003 262,-364 271.729,-335.646 265.579,-325.28 280,-299 300.437,-261.756 319.025,-262.367 344,-228 364.266,-200.114 383.223,-163.803 391.758,-146.707"/>
<polygon fill="#9a32cd" stroke="#9a32cd" points="199.353,-508.933 198.398,-519.485 205.725,-511.832 199.353,-508.933"/>
<text text-anchor="middle" x="312" y="-302" font-family="Helvetica,sans-Serif" font-size="10.00"> highlightable</text>
</g>
<!-- Node6 -->
<g id="node6" class="node"><title>Node6</title>
<polygon fill="white" stroke="#bfbfbf" points="133.5,-566.5 133.5,-585.5 252.5,-585.5 252.5,-566.5 133.5,-566.5"/>
<text text-anchor="middle" x="193" y="-573.5" font-family="Helvetica,sans-Serif" font-size="10.00">vector&lt; Component * &gt;</text>
</g>
<!-- Node6&#45;&gt;Node2 -->
<g id="edge6" class="edge"><title>Node6&#45;&gt;Node2</title>
<path fill="none" stroke="#9a32cd" stroke-dasharray="5,2" d="M262.732,-581.431C296.075,-584.065 334.681,-587.116 361.824,-589.26"/>
<polygon fill="#9a32cd" stroke="#9a32cd" points="262.816,-577.926 252.571,-580.628 262.265,-584.905 262.816,-577.926"/>
<text text-anchor="middle" x="312" y="-591" font-family="Helvetica,sans-Serif" font-size="10.00"> components</text>
</g>
<!-- Node7 -->
<g id="node7" class="node"><title>Node7</title>
<polygon fill="white" stroke="#bfbfbf" points="526.5,-485.5 526.5,-504.5 618.5,-504.5 618.5,-485.5 526.5,-485.5"/>
<text text-anchor="middle" x="572.5" y="-492.5" font-family="Helvetica,sans-Serif" font-size="10.00">EnemyDirections</text>
</g>
<!-- Node7&#45;&gt;Node1 -->
<g id="edge7" class="edge"><title>Node7&#45;&gt;Node1</title>
<path fill="none" stroke="#9a32cd" stroke-dasharray="5,2" d="M623.573,-482.703C641.776,-477.403 662.23,-470.458 680,-462 689.919,-457.279 700.208,-450.39 707.933,-444.752"/>
<polygon fill="#9a32cd" stroke="#9a32cd" points="622.4,-479.397 613.724,-485.477 624.298,-486.135 622.4,-479.397"/>
<text text-anchor="middle" x="660" y="-481" font-family="Helvetica,sans-Serif" font-size="10.00"> direction</text>
</g>
<!-- Node8 -->
<g id="node8" class="node"><title>Node8</title>
<polygon fill="white" stroke="#bfbfbf" points="538,-447.5 538,-466.5 607,-466.5 607,-447.5 538,-447.5"/>
<text text-anchor="middle" x="572.5" y="-454.5" font-family="Helvetica,sans-Serif" font-size="10.00">EnemyType</text>
</g>
<!-- Node8&#45;&gt;Node1 -->
<g id="edge8" class="edge"><title>Node8&#45;&gt;Node1</title>
<path fill="none" stroke="#9a32cd" stroke-dasharray="5,2" d="M617.406,-450.429C643.892,-446.465 676.532,-441.58 697.899,-438.383"/>
<polygon fill="#9a32cd" stroke="#9a32cd" points="616.597,-447.011 607.225,-451.953 617.633,-453.934 616.597,-447.011"/>
<text text-anchor="middle" x="660" y="-450" font-family="Helvetica,sans-Serif" font-size="10.00"> type</text>
</g>
<!-- Node9 -->
<g id="node9" class="node"><title>Node9</title>
<polygon fill="white" stroke="#bfbfbf" points="523,-398 523,-428 622,-428 622,-398 523,-398"/>
<text text-anchor="start" x="531" y="-416" font-family="Helvetica,sans-Serif" font-size="10.00">vector&lt; std::vector</text>
<text text-anchor="middle" x="572.5" y="-405" font-family="Helvetica,sans-Serif" font-size="10.00">&lt; Sprite &gt; &gt;</text>
</g>
<!-- Node9&#45;&gt;Node1 -->
<g id="edge9" class="edge"><title>Node9&#45;&gt;Node1</title>
<path fill="none" stroke="#9a32cd" stroke-dasharray="5,2" d="M632.147,-420.021C647.73,-422.075 664.527,-424.458 680,-427 685.799,-427.953 692.039,-429.116 697.841,-430.257"/>
<polygon fill="#9a32cd" stroke="#9a32cd" points="632.474,-416.535 622.108,-418.721 631.575,-423.477 632.474,-416.535"/>
<text text-anchor="middle" x="660" y="-430" font-family="Helvetica,sans-Serif" font-size="10.00"> sp</text>
</g>
<!-- Node10 -->
<g id="node10" class="node"><title>Node10</title>
<polygon fill="white" stroke="#bfbfbf" points="178.5,-335.5 178.5,-354.5 207.5,-354.5 207.5,-335.5 178.5,-335.5"/>
<text text-anchor="middle" x="193" y="-342.5" font-family="Helvetica,sans-Serif" font-size="10.00">int</text>
</g>
<!-- Node10&#45;&gt;Node1 -->
<g id="edge10" class="edge"><title>Node10&#45;&gt;Node1</title>
<path fill="none" stroke="#9a32cd" stroke-dasharray="5,2" d="M217.991,-347.544C235.239,-349.365 259.051,-351.862 280,-354 431.96,-369.505 474.873,-346.941 622,-388 652.843,-396.607 685.891,-414.333 704.79,-425.387"/>
<polygon fill="#9a32cd" stroke="#9a32cd" points="218.014,-344.027 207.701,-346.456 217.277,-350.988 218.014,-344.027"/>
<text text-anchor="middle" x="478" y="-390" font-family="Helvetica,sans-Serif" font-size="10.00"> endPoint</text>
<text text-anchor="middle" x="478" y="-379" font-family="Helvetica,sans-Serif" font-size="10.00">baseHP</text>
<text text-anchor="middle" x="478" y="-368" font-family="Helvetica,sans-Serif" font-size="10.00">enemyIndex</text>
</g>
<!-- Node11 -->
<g id="node11" class="node"><title>Node11</title>
<g id="a_node11"><a xlink:href="classSound.html" target="_top" xlink:title="Classe que modela sons. ">
<polygon fill="white" stroke="black" points="375.5,-320.5 375.5,-339.5 419.5,-339.5 419.5,-320.5 375.5,-320.5"/>
<text text-anchor="middle" x="397.5" y="-327.5" font-family="Helvetica,sans-Serif" font-size="10.00">Sound</text>
</a>
</g>
</g>
<!-- Node10&#45;&gt;Node11 -->
<g id="edge13" class="edge"><title>Node10&#45;&gt;Node11</title>
<path fill="none" stroke="#9a32cd" stroke-dasharray="5,2" d="M217.711,-343.244C257.544,-340.293 337.263,-334.388 375.326,-331.568"/>
<polygon fill="#9a32cd" stroke="#9a32cd" points="217.315,-339.763 207.601,-343.993 217.832,-346.744 217.315,-339.763"/>
<text text-anchor="middle" x="312" y="-342" font-family="Helvetica,sans-Serif" font-size="10.00"> channel</text>
</g>
<!-- Node10&#45;&gt;Node13 -->
<g id="edge27" class="edge"><title>Node10&#45;&gt;Node13</title>
<path fill="none" stroke="#9a32cd" stroke-dasharray="5,2" d="M217.725,-341.125C231.273,-338.253 248.246,-333.506 262,-326 271.396,-320.873 270.27,-314.46 280,-310 369.812,-268.83 490.394,-267.616 543.919,-269.477"/>
<polygon fill="#9a32cd" stroke="#9a32cd" points="216.883,-337.723 207.721,-343.044 218.202,-344.598 216.883,-337.723"/>
<text text-anchor="middle" x="397.5" y="-287" font-family="Helvetica,sans-Serif" font-size="10.00"> hp</text>
</g>
<!-- Node10&#45;&gt;Node15 -->
<g id="edge21" class="edge"><title>Node10&#45;&gt;Node15</title>
<path fill="none" stroke="#9a32cd" stroke-dasharray="5,2" d="M217.638,-344.707C232.597,-343.191 251.106,-338.618 262,-326 303.574,-277.848 240.2,-233.628 280,-184 298.91,-160.421 316.009,-172.404 344,-161 354.952,-156.538 366.962,-151.09 376.727,-146.514"/>
<polygon fill="#9a32cd" stroke="#9a32cd" points="217.293,-341.222 207.532,-345.341 217.732,-348.208 217.293,-341.222"/>
<text text-anchor="middle" x="312" y="-220" font-family="Helvetica,sans-Serif" font-size="10.00"> width</text>
<text text-anchor="middle" x="312" y="-209" font-family="Helvetica,sans-Serif" font-size="10.00">currentFrame</text>
<text text-anchor="middle" x="312" y="-198" font-family="Helvetica,sans-Serif" font-size="10.00">height</text>
<text text-anchor="middle" x="312" y="-187" font-family="Helvetica,sans-Serif" font-size="10.00">frameCount</text>
</g>
<!-- Node11&#45;&gt;Node1 -->
<g id="edge12" class="edge"><title>Node11&#45;&gt;Node1</title>
<path fill="none" stroke="#9a32cd" stroke-dasharray="5,2" d="M429.81,-328.758C494.75,-326.811 641.276,-325.879 680,-355 703.639,-372.777 714.498,-408.234 718.526,-425.334"/>
<polygon fill="#9a32cd" stroke="#9a32cd" points="429.636,-325.262 419.756,-329.088 429.865,-332.258 429.636,-325.262"/>
<text text-anchor="middle" x="572.5" y="-340" font-family="Helvetica,sans-Serif" font-size="10.00"> walkingSound</text>
</g>
<!-- Node12 -->
<g id="node12" class="node"><title>Node12</title>
<polygon fill="white" stroke="#bfbfbf" points="128,-297.5 128,-316.5 258,-316.5 258,-297.5 128,-297.5"/>
<text text-anchor="middle" x="193" y="-304.5" font-family="Helvetica,sans-Serif" font-size="10.00">shared_ptr&lt; Mix_Chunk &gt;</text>
</g>
<!-- Node12&#45;&gt;Node11 -->
<g id="edge14" class="edge"><title>Node12&#45;&gt;Node11</title>
<path fill="none" stroke="#9a32cd" stroke-dasharray="5,2" d="M268.221,-311.928C292.439,-313.937 319.418,-316.603 344,-320 354.386,-321.435 365.832,-323.552 375.379,-325.469"/>
<polygon fill="#9a32cd" stroke="#9a32cd" points="268.275,-308.421 258.027,-311.107 267.713,-315.399 268.275,-308.421"/>
<text text-anchor="middle" x="312" y="-323" font-family="Helvetica,sans-Serif" font-size="10.00"> sound</text>
</g>
<!-- Node13&#45;&gt;Node1 -->
<g id="edge15" class="edge"><title>Node13&#45;&gt;Node1</title>
<path fill="none" stroke="#9a32cd" stroke-dasharray="5,2" d="M611.199,-274.347C633.911,-278.262 661.855,-286.727 680,-305 713.98,-339.219 719.522,-401.453 720.372,-425.323"/>
<polygon fill="#9a32cd" stroke="#9a32cd" points="611.594,-270.867 601.186,-272.85 610.558,-277.79 611.594,-270.867"/>
<text text-anchor="middle" x="660" y="-308" font-family="Helvetica,sans-Serif" font-size="10.00"> hitpoints</text>
</g>
<!-- Node14 -->
<g id="node14" class="node"><title>Node14</title>
<g id="a_node14"><a xlink:href="classComponent.html" target="_top" xlink:title="Modela os componentes. ">
<polygon fill="white" stroke="black" points="364,-220.5 364,-239.5 431,-239.5 431,-220.5 364,-220.5"/>
<text text-anchor="middle" x="397.5" y="-227.5" font-family="Helvetica,sans-Serif" font-size="10.00">Component</text>
</a>
</g>
</g>
<!-- Node14&#45;&gt;Node13 -->
<g id="edge16" class="edge"><title>Node14&#45;&gt;Node13</title>
<path fill="none" stroke="midnightblue" d="M441.042,-240.082C473.143,-247.69 516.244,-257.905 543.952,-264.471"/>
<polygon fill="midnightblue" stroke="midnightblue" points="441.578,-236.612 431.04,-237.712 439.963,-243.424 441.578,-236.612"/>
</g>
<!-- Node15&#45;&gt;Node13 -->
<g id="edge18" class="edge"><title>Node15&#45;&gt;Node13</title>
<path fill="none" stroke="#9a32cd" stroke-dasharray="5,2" d="M419.486,-152.741C441.044,-168.962 475.52,-195.046 505,-218 524.104,-232.875 546.023,-250.442 559.309,-261.148"/>
<polygon fill="#9a32cd" stroke="#9a32cd" points="421.455,-149.842 411.359,-146.632 417.25,-155.438 421.455,-149.842"/>
<text text-anchor="middle" x="478" y="-232" font-family="Helvetica,sans-Serif" font-size="10.00"> healthColor</text>
<text text-anchor="middle" x="478" y="-221" font-family="Helvetica,sans-Serif" font-size="10.00">healthBar</text>
</g>
<!-- Node16 -->
<g id="node16" class="node"><title>Node16</title>
<polygon fill="white" stroke="#bfbfbf" points="162,-114.5 162,-133.5 224,-133.5 224,-114.5 162,-114.5"/>
<text text-anchor="middle" x="193" y="-121.5" font-family="Helvetica,sans-Serif" font-size="10.00">SDL_Rect</text>
</g>
<!-- Node16&#45;&gt;Node15 -->
<g id="edge20" class="edge"><title>Node16&#45;&gt;Node15</title>
<path fill="none" stroke="#9a32cd" stroke-dasharray="5,2" d="M234.459,-121.893C264.731,-120.892 307.092,-120.711 344,-125 354.773,-126.252 366.562,-128.833 376.235,-131.282"/>
<polygon fill="#9a32cd" stroke="#9a32cd" points="234.147,-118.402 224.285,-122.275 234.409,-125.397 234.147,-118.402"/>
<text text-anchor="middle" x="312" y="-128" font-family="Helvetica,sans-Serif" font-size="10.00"> clipRect</text>
</g>
<!-- Node17 -->
<g id="node17" class="node"><title>Node17</title>
<polygon fill="white" stroke="#bfbfbf" points="124,-76.5 124,-95.5 262,-95.5 262,-76.5 124,-76.5"/>
<text text-anchor="middle" x="193" y="-83.5" font-family="Helvetica,sans-Serif" font-size="10.00">shared_ptr&lt; SDL_Texture &gt;</text>
</g>
<!-- Node17&#45;&gt;Node15 -->
<g id="edge22" class="edge"><title>Node17&#45;&gt;Node15</title>
<path fill="none" stroke="#9a32cd" stroke-dasharray="5,2" d="M272.054,-91.2427C295.611,-94.3298 321.246,-99.2287 344,-107 358.107,-111.818 372.717,-120.521 382.932,-127.317"/>
<polygon fill="#9a32cd" stroke="#9a32cd" points="272.451,-87.7653 262.101,-90.0276 271.603,-94.7137 272.451,-87.7653"/>
<text text-anchor="middle" x="312" y="-110" font-family="Helvetica,sans-Serif" font-size="10.00"> texture</text>
</g>
<!-- Node18 -->
<g id="node18" class="node"><title>Node18</title>
<polygon fill="white" stroke="#bfbfbf" points="148,-38.5 148,-57.5 238,-57.5 238,-38.5 148,-38.5"/>
<text text-anchor="middle" x="193" y="-45.5" font-family="Helvetica,sans-Serif" font-size="10.00">SDL_BlendMode</text>
</g>
<!-- Node18&#45;&gt;Node15 -->
<g id="edge24" class="edge"><title>Node18&#45;&gt;Node15</title>
<path fill="none" stroke="#9a32cd" stroke-dasharray="5,2" d="M248.526,-50.5027C278.364,-53.869 315.043,-61.4004 344,-78 365.174,-90.1376 382.284,-113.92 390.745,-127.286"/>
<polygon fill="#9a32cd" stroke="#9a32cd" points="248.579,-46.9907 238.28,-49.4777 247.882,-53.9559 248.579,-46.9907"/>
<text text-anchor="middle" x="312" y="-81" font-family="Helvetica,sans-Serif" font-size="10.00"> blendMode</text>
</g>
<!-- Node19 -->
<g id="node19" class="node"><title>Node19</title>
<g id="a_node19"><a xlink:href="structColor.html" target="_top" xlink:title="Struct para armazenar informações de cor. ">
<polygon fill="white" stroke="black" points="173,-0.5 173,-19.5 213,-19.5 213,-0.5 173,-0.5"/>
<text text-anchor="middle" x="193" y="-7.5" font-family="Helvetica,sans-Serif" font-size="10.00">Color</text>
</a>
</g>
</g>
<!-- Node19&#45;&gt;Node15 -->
<g id="edge25" class="edge"><title>Node19&#45;&gt;Node15</title>
<path fill="none" stroke="#9a32cd" stroke-dasharray="5,2" d="M223.302,-9.06255C255.846,-9.48932 308.471,-14.7084 344,-41 373.929,-63.1476 388.804,-107.655 394.132,-127.301"/>
<polygon fill="#9a32cd" stroke="#9a32cd" points="223.083,-5.56278 213.089,-9.07802 223.094,-12.5628 223.083,-5.56278"/>
<text text-anchor="middle" x="312" y="-44" font-family="Helvetica,sans-Serif" font-size="10.00"> colorMultiplier</text>
</g>
<!-- Node20 -->
<g id="node20" class="node"><title>Node20</title>
<polygon fill="white" stroke="#bfbfbf" points="0,-0.5 0,-19.5 77,-19.5 77,-0.5 0,-0.5"/>
<text text-anchor="middle" x="38.5" y="-7.5" font-family="Helvetica,sans-Serif" font-size="10.00">unsigned char</text>
</g>
<!-- Node20&#45;&gt;Node19 -->
<g id="edge26" class="edge"><title>Node20&#45;&gt;Node19</title>
<path fill="none" stroke="#9a32cd" stroke-dasharray="5,2" d="M87.5118,-10C116.384,-10 151.546,-10 172.831,-10"/>
<polygon fill="#9a32cd" stroke="#9a32cd" points="87.1967,-6.5001 77.1966,-10 87.1966,-13.5001 87.1967,-6.5001"/>
<text text-anchor="middle" x="100.5" y="-46" font-family="Helvetica,sans-Serif" font-size="10.00"> g</text>
<text text-anchor="middle" x="100.5" y="-35" font-family="Helvetica,sans-Serif" font-size="10.00">a</text>
<text text-anchor="middle" x="100.5" y="-24" font-family="Helvetica,sans-Serif" font-size="10.00">r</text>
<text text-anchor="middle" x="100.5" y="-13" font-family="Helvetica,sans-Serif" font-size="10.00">b</text>
</g>
</g>
</svg>
