<?xml version="1.0" encoding="UTF-8" standalone="no"?>
<!DOCTYPE svg PUBLIC "-//W3C//DTD SVG 1.1//EN"
 "http://www.w3.org/Graphics/SVG/1.1/DTD/svg11.dtd">
<!-- Generated by graphviz version 2.38.0 (20140413.2041)
 -->
<!-- Title: GameObject Pages: 1 -->
<svg width="235pt" height="195pt"
 viewBox="0.00 0.00 234.90 195.00" xmlns="http://www.w3.org/2000/svg" xmlns:xlink="http://www.w3.org/1999/xlink">
<g id="graph0" class="graph" transform="scale(1 1) rotate(0) translate(4 191)">
<title>GameObject</title>
<polygon fill="white" stroke="none" points="-4,4 -4,-191 230.896,-191 230.896,4 -4,4"/>
<!-- Node1 -->
<g id="node1" class="node"><title>Node1</title>
<polygon fill="#bfbfbf" stroke="black" points="34.8962,-0.5 34.8962,-19.5 105.896,-19.5 105.896,-0.5 34.8962,-0.5"/>
<text text-anchor="middle" x="70.3962" y="-7.5" font-family="Helvetica,sans-Serif" font-size="10.00">GameObject</text>
</g>
<!-- Node2 -->
<g id="node2" class="node"><title>Node2</title>
<g id="a_node2"><a xlink:href="classRect.html" target="_top" xlink:title="Classe que modela um rect. ">
<polygon fill="white" stroke="black" points="51.3962,-67.5 51.3962,-86.5 89.3962,-86.5 89.3962,-67.5 51.3962,-67.5"/>
<text text-anchor="middle" x="70.3962" y="-74.5" font-family="Helvetica,sans-Serif" font-size="10.00">Rect</text>
</a>
</g>
</g>
<!-- Node2&#45;&gt;Node1 -->
<g id="edge1" class="edge"><title>Node2&#45;&gt;Node1</title>
<path fill="none" stroke="#9a32cd" stroke-dasharray="5,2" d="M70.3962,-57.037C70.3962,-44.6703 70.3962,-29.1198 70.3962,-19.6273"/>
<polygon fill="#9a32cd" stroke="#9a32cd" points="66.8963,-57.2338 70.3962,-67.2338 73.8963,-57.2338 66.8963,-57.2338"/>
<text text-anchor="middle" x="79.8962" y="-41" font-family="Helvetica,sans-Serif" font-size="10.00"> box</text>
</g>
<!-- Node3 -->
<g id="node3" class="node"><title>Node3</title>
<polygon fill="white" stroke="#bfbfbf" points="5.89622,-167.5 5.89622,-186.5 40.8962,-186.5 40.8962,-167.5 5.89622,-167.5"/>
<text text-anchor="middle" x="23.3962" y="-174.5" font-family="Helvetica,sans-Serif" font-size="10.00">float</text>
</g>
<!-- Node3&#45;&gt;Node1 -->
<g id="edge3" class="edge"><title>Node3&#45;&gt;Node1</title>
<path fill="none" stroke="#9a32cd" stroke-dasharray="5,2" d="M14.6751,-158.103C5.10758,-135.797 -7.19961,-96.9621 6.39622,-67 16.1574,-45.4885 38.7171,-28.9914 54.2642,-19.6436"/>
<polygon fill="#9a32cd" stroke="#9a32cd" points="11.5631,-159.714 18.9008,-167.357 17.9305,-156.807 11.5631,-159.714"/>
<text text-anchor="middle" x="24.3962" y="-74.5" font-family="Helvetica,sans-Serif" font-size="10.00"> rotation</text>
</g>
<!-- Node3&#45;&gt;Node2 -->
<g id="edge2" class="edge"><title>Node3&#45;&gt;Node2</title>
<path fill="none" stroke="#9a32cd" stroke-dasharray="5,2" d="M31.9832,-158.095C42.1543,-136.887 58.6767,-102.436 66.3017,-86.5374"/>
<polygon fill="#9a32cd" stroke="#9a32cd" points="28.7357,-156.773 27.5672,-167.303 35.0474,-159.8 28.7357,-156.773"/>
<text text-anchor="middle" x="62.8962" y="-141" font-family="Helvetica,sans-Serif" font-size="10.00"> w</text>
<text text-anchor="middle" x="62.8962" y="-130" font-family="Helvetica,sans-Serif" font-size="10.00">x</text>
<text text-anchor="middle" x="62.8962" y="-119" font-family="Helvetica,sans-Serif" font-size="10.00">h</text>
<text text-anchor="middle" x="62.8962" y="-108" font-family="Helvetica,sans-Serif" font-size="10.00">y</text>
</g>
<!-- Node4 -->
<g id="node4" class="node"><title>Node4</title>
<polygon fill="white" stroke="#bfbfbf" points="107.896,-67.5 107.896,-86.5 226.896,-86.5 226.896,-67.5 107.896,-67.5"/>
<text text-anchor="middle" x="167.396" y="-74.5" font-family="Helvetica,sans-Serif" font-size="10.00">vector&lt; Component * &gt;</text>
</g>
<!-- Node4&#45;&gt;Node1 -->
<g id="edge4" class="edge"><title>Node4&#45;&gt;Node1</title>
<path fill="none" stroke="#9a32cd" stroke-dasharray="5,2" d="M145.899,-61.5945C126.71,-48.7359 99.2434,-30.3306 83.2708,-19.6273"/>
<polygon fill="#9a32cd" stroke="#9a32cd" points="144.059,-64.5746 154.314,-67.2338 147.955,-58.7595 144.059,-64.5746"/>
<text text-anchor="middle" x="153.896" y="-41" font-family="Helvetica,sans-Serif" font-size="10.00"> components</text>
</g>
</g>
</svg>
