<?xml version="1.0" encoding="UTF-8" standalone="no"?>
<!DOCTYPE svg PUBLIC "-//W3C//DTD SVG 1.1//EN"
 "http://www.w3.org/Graphics/SVG/1.1/DTD/svg11.dtd">
<!-- Generated by graphviz version 2.38.0 (20140413.2041)
 -->
<!-- Title: StageState Pages: 1 -->
<svg width="1364pt" height="893pt"
 viewBox="0.00 0.00 1364.00 892.91" xmlns="http://www.w3.org/2000/svg" xmlns:xlink="http://www.w3.org/1999/xlink">
<g id="graph0" class="graph" transform="scale(1 1) rotate(0) translate(4 888.907)">
<title>StageState</title>
<polygon fill="white" stroke="none" points="-4,4 -4,-888.907 1360,-888.907 1360,4 -4,4"/>
<!-- Node2 -->
<g id="node1" class="node"><title>Node2</title>
<polygon fill="#bfbfbf" stroke="black" points="1291,-371.5 1291,-390.5 1356,-390.5 1356,-371.5 1291,-371.5"/>
<text text-anchor="middle" x="1323.5" y="-378.5" font-family="Helvetica,sans-Serif" font-size="10.00">StageState</text>
</g>
<!-- Node3 -->
<g id="node2" class="node"><title>Node3</title>
<g id="a_node2"><a xlink:href="classState.html" target="_top" xlink:title="Classe virtual que modela um estado do jogo. ">
<polygon fill="white" stroke="black" points="866,-839.5 866,-858.5 906,-858.5 906,-839.5 866,-839.5"/>
<text text-anchor="middle" x="886" y="-846.5" font-family="Helvetica,sans-Serif" font-size="10.00">State</text>
</a>
</g>
</g>
<!-- Node3&#45;&gt;Node2 -->
<g id="edge1" class="edge"><title>Node3&#45;&gt;Node2</title>
<path fill="none" stroke="midnightblue" d="M916.063,-858.133C987.646,-878.625 1173.82,-919.441 1273,-825 1305.65,-793.911 1319.82,-453.067 1322.15,-390.751"/>
<polygon fill="midnightblue" stroke="midnightblue" points="916.939,-854.742 906.358,-855.275 914.962,-861.457 916.939,-854.742"/>
</g>
<!-- Node4 -->
<g id="node3" class="node"><title>Node4</title>
<polygon fill="white" stroke="#bfbfbf" points="549.5,-834 549.5,-864 664.5,-864 664.5,-834 549.5,-834"/>
<text text-anchor="start" x="557.5" y="-852" font-family="Helvetica,sans-Serif" font-size="10.00">vector&lt; std::unique</text>
<text text-anchor="middle" x="607" y="-841" font-family="Helvetica,sans-Serif" font-size="10.00">_ptr&lt; GameObject &gt; &gt;</text>
</g>
<!-- Node4&#45;&gt;Node3 -->
<g id="edge2" class="edge"><title>Node4&#45;&gt;Node3</title>
<path fill="none" stroke="#9a32cd" stroke-dasharray="5,2" d="M674.917,-849C737.528,-849 827.056,-849 865.855,-849"/>
<polygon fill="#9a32cd" stroke="#9a32cd" points="674.724,-845.5 664.724,-849 674.723,-852.5 674.724,-845.5"/>
<text text-anchor="middle" x="741" y="-852" font-family="Helvetica,sans-Serif" font-size="10.00"> objectArray</text>
</g>
<!-- Node5 -->
<g id="node4" class="node"><title>Node5</title>
<polygon fill="white" stroke="#bfbfbf" points="589.5,-633.5 589.5,-652.5 624.5,-652.5 624.5,-633.5 589.5,-633.5"/>
<text text-anchor="middle" x="607" y="-640.5" font-family="Helvetica,sans-Serif" font-size="10.00">bool</text>
</g>
<!-- Node5&#45;&gt;Node2 -->
<g id="edge30" class="edge"><title>Node5&#45;&gt;Node2</title>
<path fill="none" stroke="#9a32cd" stroke-dasharray="5,2" d="M634.69,-644.312C735.986,-648.821 1095.74,-660.412 1191,-603 1274.64,-552.592 1311.19,-427.05 1320.2,-390.89"/>
<polygon fill="#9a32cd" stroke="#9a32cd" points="634.822,-640.815 624.672,-643.851 634.5,-647.807 634.822,-640.815"/>
<text text-anchor="middle" x="1040" y="-647" font-family="Helvetica,sans-Serif" font-size="10.00"> isLightning</text>
</g>
<!-- Node5&#45;&gt;Node3 -->
<g id="edge3" class="edge"><title>Node5&#45;&gt;Node3</title>
<path fill="none" stroke="#9a32cd" stroke-dasharray="5,2" d="M634.857,-643.534C649.869,-645.281 667.761,-650.017 679,-662 706.906,-691.754 672.446,-719.426 697,-752 740.22,-809.337 827.069,-835.67 865.705,-844.915"/>
<polygon fill="#9a32cd" stroke="#9a32cd" points="634.815,-640.02 624.573,-642.729 634.269,-646.999 634.815,-640.02"/>
<text text-anchor="middle" x="741" y="-830" font-family="Helvetica,sans-Serif" font-size="10.00"> quitRequested</text>
<text text-anchor="middle" x="741" y="-819" font-family="Helvetica,sans-Serif" font-size="10.00">popRequested</text>
</g>
<!-- Node17 -->
<g id="node16" class="node"><title>Node17</title>
<g id="a_node16"><a xlink:href="classWaveManager.html" target="_top" xlink:title="Classe que gerencia as waves do jogo. Responsavel por iniciar, encerrar e contar as waves...">
<polygon fill="white" stroke="black" points="1111,-452.5 1111,-471.5 1191,-471.5 1191,-452.5 1111,-452.5"/>
<text text-anchor="middle" x="1151" y="-459.5" font-family="Helvetica,sans-Serif" font-size="10.00">WaveManager</text>
</a>
</g>
</g>
<!-- Node5&#45;&gt;Node17 -->
<g id="edge20" class="edge"><title>Node5&#45;&gt;Node17</title>
<path fill="none" stroke="#9a32cd" stroke-dasharray="5,2" d="M634.489,-637.331C648.462,-633.555 665.464,-627.665 679,-619 746.52,-575.778 730.598,-522.424 803,-488 816.708,-481.483 1022.81,-469.171 1110.73,-464.182"/>
<polygon fill="#9a32cd" stroke="#9a32cd" points="633.36,-634.006 624.502,-639.818 635.052,-640.798 633.36,-634.006"/>
<text text-anchor="middle" x="886" y="-502" font-family="Helvetica,sans-Serif" font-size="10.00"> endWave</text>
<text text-anchor="middle" x="886" y="-491" font-family="Helvetica,sans-Serif" font-size="10.00">victory</text>
</g>
<!-- Node20 -->
<g id="node19" class="node"><title>Node20</title>
<g id="a_node19"><a xlink:href="classTileMap.html" target="_top" xlink:title="Classe que modela o TileMap. ">
<polygon fill="white" stroke="black" points="860.5,-601.5 860.5,-620.5 911.5,-620.5 911.5,-601.5 860.5,-601.5"/>
<text text-anchor="middle" x="886" y="-608.5" font-family="Helvetica,sans-Serif" font-size="10.00">TileMap</text>
</a>
</g>
</g>
<!-- Node5&#45;&gt;Node20 -->
<g id="edge26" class="edge"><title>Node5&#45;&gt;Node20</title>
<path fill="none" stroke="#9a32cd" stroke-dasharray="5,2" d="M634.676,-635.851C652.249,-631.429 675.839,-626.034 697,-623 755.112,-614.669 824.16,-612.121 860.237,-611.342"/>
<polygon fill="#9a32cd" stroke="#9a32cd" points="633.397,-632.566 624.586,-638.45 635.143,-639.345 633.397,-632.566"/>
<text text-anchor="middle" x="741" y="-626" font-family="Helvetica,sans-Serif" font-size="10.00"> displayCollisionInfo</text>
</g>
<!-- Node25 -->
<g id="node24" class="node"><title>Node25</title>
<g id="a_node24"><a xlink:href="classInputManager.html" target="_top" xlink:title="Classe que organiza entradas do usuário. ">
<polygon fill="white" stroke="black" points="848,-232.5 848,-251.5 924,-251.5 924,-232.5 848,-232.5"/>
<text text-anchor="middle" x="886" y="-239.5" font-family="Helvetica,sans-Serif" font-size="10.00">InputManager</text>
</a>
</g>
</g>
<!-- Node5&#45;&gt;Node25 -->
<g id="edge37" class="edge"><title>Node5&#45;&gt;Node25</title>
<path fill="none" stroke="#9a32cd" stroke-dasharray="5,2" d="M634.664,-640.9C650.01,-638.223 668.314,-632.248 679,-619 701.325,-591.323 684.021,-493.106 697,-460 726.007,-386.013 749.674,-374.922 803,-316 825.776,-290.835 856.256,-265.093 872.9,-251.602"/>
<polygon fill="#9a32cd" stroke="#9a32cd" points="634.074,-637.448 624.642,-642.274 635.025,-644.383 634.074,-637.448"/>
<text text-anchor="middle" x="741" y="-474" font-family="Helvetica,sans-Serif" font-size="10.00"> quitRequested</text>
<text text-anchor="middle" x="741" y="-463" font-family="Helvetica,sans-Serif" font-size="10.00">mouseState</text>
</g>
<!-- Node6 -->
<g id="node5" class="node"><title>Node6</title>
<g id="a_node5"><a xlink:href="classMusic.html" target="_top" xlink:title="Classe que modela músicas. ">
<polygon fill="white" stroke="black" points="1129.5,-0.5 1129.5,-19.5 1172.5,-19.5 1172.5,-0.5 1129.5,-0.5"/>
<text text-anchor="middle" x="1151" y="-7.5" font-family="Helvetica,sans-Serif" font-size="10.00">Music</text>
</a>
</g>
</g>
<!-- Node6&#45;&gt;Node2 -->
<g id="edge4" class="edge"><title>Node6&#45;&gt;Node2</title>
<path fill="none" stroke="#9a32cd" stroke-dasharray="5,2" d="M1182.94,-3.79095C1210.35,-0.241928 1249.57,-0.272548 1273,-23 1324.45,-72.9135 1323.49,-318.941 1322.69,-371.222"/>
<polygon fill="#9a32cd" stroke="#9a32cd" points="1182.06,-0.383178 1172.7,-5.34879 1183.12,-7.3034 1182.06,-0.383178"/>
<text text-anchor="middle" x="1241" y="-26" font-family="Helvetica,sans-Serif" font-size="10.00"> music</text>
</g>
<!-- Node7 -->
<g id="node6" class="node"><title>Node7</title>
<polygon fill="white" stroke="#bfbfbf" points="822,-0.5 822,-19.5 950,-19.5 950,-0.5 822,-0.5"/>
<text text-anchor="middle" x="886" y="-7.5" font-family="Helvetica,sans-Serif" font-size="10.00">shared_ptr&lt; Mix_Music &gt;</text>
</g>
<!-- Node7&#45;&gt;Node6 -->
<g id="edge5" class="edge"><title>Node7&#45;&gt;Node6</title>
<path fill="none" stroke="#9a32cd" stroke-dasharray="5,2" d="M960.446,-10C1017.79,-10 1093.55,-10 1129.45,-10"/>
<polygon fill="#9a32cd" stroke="#9a32cd" points="960.33,-6.5001 950.33,-10 960.33,-13.5001 960.33,-6.5001"/>
<text text-anchor="middle" x="1040" y="-13" font-family="Helvetica,sans-Serif" font-size="10.00"> music</text>
</g>
<!-- Node8 -->
<g id="node7" class="node"><title>Node8</title>
<g id="a_node7"><a xlink:href="classTileSet.html" target="_top" xlink:title="Classe responsável por modelar um tileset. ">
<polygon fill="white" stroke="black" points="583.5,-416.5 583.5,-435.5 630.5,-435.5 630.5,-416.5 583.5,-416.5"/>
<text text-anchor="middle" x="607" y="-423.5" font-family="Helvetica,sans-Serif" font-size="10.00">TileSet</text>
</a>
</g>
</g>
<!-- Node8&#45;&gt;Node2 -->
<g id="edge6" class="edge"><title>Node8&#45;&gt;Node2</title>
<path fill="none" stroke="#9a32cd" stroke-dasharray="5,2" d="M640.917,-429.494C680.495,-431.747 746.401,-428.982 785,-392 810.065,-367.985 775.773,-337.532 803,-316 961.274,-190.834 1235.71,-331.634 1305.82,-371.241"/>
<polygon fill="#9a32cd" stroke="#9a32cd" points="640.959,-425.988 630.736,-428.77 640.463,-432.97 640.959,-425.988"/>
<text text-anchor="middle" x="1040" y="-286" font-family="Helvetica,sans-Serif" font-size="10.00"> tileSet</text>
</g>
<!-- Node8&#45;&gt;Node20 -->
<g id="edge22" class="edge"><title>Node8&#45;&gt;Node20</title>
<path fill="none" stroke="#9a32cd" stroke-dasharray="5,2" d="M630.919,-441.307C686.174,-478.21 825.497,-571.26 870.641,-601.41"/>
<polygon fill="#9a32cd" stroke="#9a32cd" points="632.763,-438.329 622.503,-435.686 628.875,-444.15 632.763,-438.329"/>
<text text-anchor="middle" x="741" y="-544" font-family="Helvetica,sans-Serif" font-size="10.00"> tileSet</text>
</g>
<!-- Node9 -->
<g id="node8" class="node"><title>Node9</title>
<g id="a_node8"><a xlink:href="classSprite.html" target="_top" xlink:title="Classe que modela uma sprite. ">
<polygon fill="white" stroke="black" points="361.5,-282.5 361.5,-301.5 403.5,-301.5 403.5,-282.5 361.5,-282.5"/>
<text text-anchor="middle" x="382.5" y="-289.5" font-family="Helvetica,sans-Serif" font-size="10.00">Sprite</text>
</a>
</g>
</g>
<!-- Node9&#45;&gt;Node8 -->
<g id="edge7" class="edge"><title>Node9&#45;&gt;Node8</title>
<path fill="none" stroke="#9a32cd" stroke-dasharray="5,2" d="M387.239,-311.59C392.063,-331.478 402.412,-361.729 423,-379 447.377,-399.449 539.901,-415.896 583.287,-422.663"/>
<polygon fill="#9a32cd" stroke="#9a32cd" points="390.645,-310.782 385.097,-301.756 383.805,-312.272 390.645,-310.782"/>
<text text-anchor="middle" x="470" y="-414" font-family="Helvetica,sans-Serif" font-size="10.00"> tileSet</text>
</g>
<!-- Node10 -->
<g id="node9" class="node"><title>Node10</title>
<polygon fill="white" stroke="#bfbfbf" points="173.5,-148.5 173.5,-167.5 208.5,-167.5 208.5,-148.5 173.5,-148.5"/>
<text text-anchor="middle" x="191" y="-155.5" font-family="Helvetica,sans-Serif" font-size="10.00">float</text>
</g>
<!-- Node10&#45;&gt;Node9 -->
<g id="edge8" class="edge"><title>Node10&#45;&gt;Node9</title>
<path fill="none" stroke="#9a32cd" stroke-dasharray="5,2" d="M219.009,-162.671C251.593,-169.529 306.416,-185.13 342,-217 362.39,-235.262 374.003,-266.579 378.829,-282.34"/>
<polygon fill="#9a32cd" stroke="#9a32cd" points="219.36,-159.173 208.872,-160.669 218.005,-166.04 219.36,-159.173"/>
<text text-anchor="middle" x="310" y="-253" font-family="Helvetica,sans-Serif" font-size="10.00"> scaleY</text>
<text text-anchor="middle" x="310" y="-242" font-family="Helvetica,sans-Serif" font-size="10.00">frameTime</text>
<text text-anchor="middle" x="310" y="-231" font-family="Helvetica,sans-Serif" font-size="10.00">timeElapsed</text>
<text text-anchor="middle" x="310" y="-220" font-family="Helvetica,sans-Serif" font-size="10.00">scaleX</text>
</g>
<!-- Node24 -->
<g id="node23" class="node"><title>Node24</title>
<g id="a_node23"><a xlink:href="classTimer.html" target="_top" xlink:title="Temporizador. ">
<polygon fill="white" stroke="black" points="865.5,-325.5 865.5,-344.5 906.5,-344.5 906.5,-325.5 865.5,-325.5"/>
<text text-anchor="middle" x="886" y="-332.5" font-family="Helvetica,sans-Serif" font-size="10.00">Timer</text>
</a>
</g>
</g>
<!-- Node10&#45;&gt;Node24 -->
<g id="edge29" class="edge"><title>Node10&#45;&gt;Node24</title>
<path fill="none" stroke="#9a32cd" stroke-dasharray="5,2" d="M218.911,-158.163C249.448,-159.044 300.411,-162.639 342,-176 435.174,-205.932 442.299,-250.634 535,-282 656.086,-322.971 811.462,-332.352 865.471,-334.43"/>
<polygon fill="#9a32cd" stroke="#9a32cd" points="218.711,-154.659 208.64,-157.949 218.564,-161.657 218.711,-154.659"/>
<text text-anchor="middle" x="470" y="-279" font-family="Helvetica,sans-Serif" font-size="10.00"> time</text>
</g>
<!-- Node26 -->
<g id="node25" class="node"><title>Node26</title>
<g id="a_node25"><a xlink:href="classVec2.html" target="_top" xlink:title="Classe que modela um vetor(no sentido físico) ">
<polygon fill="white" stroke="black" points="450.5,-155.5 450.5,-174.5 489.5,-174.5 489.5,-155.5 450.5,-155.5"/>
<text text-anchor="middle" x="470" y="-162.5" font-family="Helvetica,sans-Serif" font-size="10.00">Vec2</text>
</a>
</g>
</g>
<!-- Node10&#45;&gt;Node26 -->
<g id="edge35" class="edge"><title>Node10&#45;&gt;Node26</title>
<path fill="none" stroke="#9a32cd" stroke-dasharray="5,2" d="M211.627,-141.859C234.569,-123.166 270.381,-94.5865 278,-92 304.935,-82.8559 314.518,-84.6643 342,-92 388.685,-104.461 436.029,-138.637 457.338,-155.43"/>
<polygon fill="#9a32cd" stroke="#9a32cd" points="209.359,-139.192 203.834,-148.232 213.79,-144.611 209.359,-139.192"/>
<text text-anchor="middle" x="310" y="-106" font-family="Helvetica,sans-Serif" font-size="10.00"> x</text>
<text text-anchor="middle" x="310" y="-95" font-family="Helvetica,sans-Serif" font-size="10.00">y</text>
</g>
<!-- Node11 -->
<g id="node10" class="node"><title>Node11</title>
<polygon fill="white" stroke="#bfbfbf" points="160,-320.5 160,-339.5 222,-339.5 222,-320.5 160,-320.5"/>
<text text-anchor="middle" x="191" y="-327.5" font-family="Helvetica,sans-Serif" font-size="10.00">SDL_Rect</text>
</g>
<!-- Node11&#45;&gt;Node9 -->
<g id="edge9" class="edge"><title>Node11&#45;&gt;Node9</title>
<path fill="none" stroke="#9a32cd" stroke-dasharray="5,2" d="M232.304,-324.394C262.66,-319.838 305.197,-312.745 342,-304 348.276,-302.509 355.021,-300.583 361.13,-298.712"/>
<polygon fill="#9a32cd" stroke="#9a32cd" points="231.486,-320.976 222.104,-325.898 232.508,-327.901 231.486,-320.976"/>
<text text-anchor="middle" x="310" y="-320" font-family="Helvetica,sans-Serif" font-size="10.00"> clipRect</text>
</g>
<!-- Node12 -->
<g id="node11" class="node"><title>Node12</title>
<polygon fill="white" stroke="#bfbfbf" points="176.5,-434.5 176.5,-453.5 205.5,-453.5 205.5,-434.5 176.5,-434.5"/>
<text text-anchor="middle" x="191" y="-441.5" font-family="Helvetica,sans-Serif" font-size="10.00">int</text>
</g>
<!-- Node12&#45;&gt;Node8 -->
<g id="edge15" class="edge"><title>Node12&#45;&gt;Node8</title>
<path fill="none" stroke="#9a32cd" stroke-dasharray="5,2" d="M215.879,-442.962C289.39,-439.766 511.638,-430.103 583.397,-426.983"/>
<polygon fill="#9a32cd" stroke="#9a32cd" points="215.613,-439.47 205.775,-443.401 215.917,-446.463 215.613,-439.47"/>
<text text-anchor="middle" x="382.5" y="-473" font-family="Helvetica,sans-Serif" font-size="10.00"> tileHeight</text>
<text text-anchor="middle" x="382.5" y="-462" font-family="Helvetica,sans-Serif" font-size="10.00">rows</text>
<text text-anchor="middle" x="382.5" y="-451" font-family="Helvetica,sans-Serif" font-size="10.00">tileWidth</text>
<text text-anchor="middle" x="382.5" y="-440" font-family="Helvetica,sans-Serif" font-size="10.00">columns</text>
</g>
<!-- Node12&#45;&gt;Node9 -->
<g id="edge10" class="edge"><title>Node12&#45;&gt;Node9</title>
<path fill="none" stroke="#9a32cd" stroke-dasharray="5,2" d="M206.896,-426.427C222.998,-408.253 250.119,-379.934 278,-361 303.835,-343.456 316.378,-349.853 342,-332 354.492,-323.296 366.427,-310.346 373.845,-301.558"/>
<polygon fill="#9a32cd" stroke="#9a32cd" points="203.842,-424.605 199.922,-434.448 209.125,-429.198 203.842,-424.605"/>
<text text-anchor="middle" x="310" y="-397" font-family="Helvetica,sans-Serif" font-size="10.00"> width</text>
<text text-anchor="middle" x="310" y="-386" font-family="Helvetica,sans-Serif" font-size="10.00">currentFrame</text>
<text text-anchor="middle" x="310" y="-375" font-family="Helvetica,sans-Serif" font-size="10.00">height</text>
<text text-anchor="middle" x="310" y="-364" font-family="Helvetica,sans-Serif" font-size="10.00">frameCount</text>
</g>
<!-- Node12&#45;&gt;Node17 -->
<g id="edge19" class="edge"><title>Node12&#45;&gt;Node17</title>
<path fill="none" stroke="#9a32cd" stroke-dasharray="5,2" d="M215.689,-450.692C248.051,-459.625 308.006,-475.428 360,-485 500.527,-510.87 537.805,-503.072 679,-525 734.387,-533.602 747.184,-542.867 803,-548 876.468,-554.756 895.677,-556.176 969,-548 1025.15,-541.739 1043.64,-547.487 1093,-520 1114.71,-507.911 1133.51,-485.031 1143.14,-471.911"/>
<polygon fill="#9a32cd" stroke="#9a32cd" points="216.395,-447.256 205.823,-447.945 214.517,-453.999 216.395,-447.256"/>
<text text-anchor="start" x="535" y="-616" font-family="Helvetica,sans-Serif" font-size="10.00"> maxNumberOfEnemiesInSpawn</text>
<text text-anchor="middle" x="607" y="-605" font-family="Helvetica,sans-Serif" font-size="10.00">Point</text>
<text text-anchor="middle" x="607" y="-594" font-family="Helvetica,sans-Serif" font-size="10.00">totalWaves</text>
<text text-anchor="middle" x="607" y="-583" font-family="Helvetica,sans-Serif" font-size="10.00">waveTotalEnemies</text>
<text text-anchor="middle" x="607" y="-572" font-family="Helvetica,sans-Serif" font-size="10.00">playerLifes</text>
<text text-anchor="middle" x="607" y="-561" font-family="Helvetica,sans-Serif" font-size="10.00">enemiesLeft</text>
<text text-anchor="middle" x="607" y="-550" font-family="Helvetica,sans-Serif" font-size="10.00">waveIndex</text>
<text text-anchor="middle" x="607" y="-539" font-family="Helvetica,sans-Serif" font-size="10.00">waveCount</text>
<text text-anchor="middle" x="607" y="-528" font-family="Helvetica,sans-Serif" font-size="10.00">enemyIndex</text>
</g>
<!-- Node12&#45;&gt;Node20 -->
<g id="edge25" class="edge"><title>Node12&#45;&gt;Node20</title>
<path fill="none" stroke="#9a32cd" stroke-dasharray="5,2" d="M206.563,-461.235C250.063,-511.127 385.336,-654.979 535,-700 641.975,-732.179 682.167,-717.642 785,-674 818.999,-659.571 854.626,-634.286 872.782,-620.546"/>
<polygon fill="#9a32cd" stroke="#9a32cd" points="209.128,-458.85 199.95,-453.557 203.824,-463.419 209.128,-458.85"/>
<text text-anchor="middle" x="470" y="-718" font-family="Helvetica,sans-Serif" font-size="10.00"> mapDepth</text>
<text text-anchor="middle" x="470" y="-707" font-family="Helvetica,sans-Serif" font-size="10.00">mapHeight</text>
<text text-anchor="middle" x="470" y="-696" font-family="Helvetica,sans-Serif" font-size="10.00">mapWidth</text>
</g>
<!-- Node12&#45;&gt;Node25 -->
<g id="edge36" class="edge"><title>Node12&#45;&gt;Node25</title>
<path fill="none" stroke="#9a32cd" stroke-dasharray="5,2" d="M215.816,-442.272C246.97,-439.062 302.258,-430.036 342,-405 389.234,-375.245 373.678,-335.15 423,-309 473.54,-282.204 622.365,-290.052 679,-282 726.385,-275.263 738.019,-272.141 785,-263 805.722,-258.968 828.787,-254.147 847.539,-250.141"/>
<polygon fill="#9a32cd" stroke="#9a32cd" points="215.145,-438.818 205.503,-443.21 215.779,-445.789 215.145,-438.818"/>
<text text-anchor="middle" x="470" y="-367" font-family="Helvetica,sans-Serif" font-size="10.00"> mouseX</text>
<text text-anchor="middle" x="470" y="-356" font-family="Helvetica,sans-Serif" font-size="10.00">mouseY</text>
<text text-anchor="middle" x="470" y="-345" font-family="Helvetica,sans-Serif" font-size="10.00">controllerStickUpdate</text>
<text text-anchor="middle" x="470" y="-334" font-family="Helvetica,sans-Serif" font-size="10.00">mouseScroolUpdate</text>
<text text-anchor="middle" x="470" y="-323" font-family="Helvetica,sans-Serif" font-size="10.00">updateCounter</text>
<text text-anchor="middle" x="470" y="-312" font-family="Helvetica,sans-Serif" font-size="10.00">mouseUpdate</text>
</g>
<!-- Node13 -->
<g id="node12" class="node"><title>Node13</title>
<polygon fill="white" stroke="#bfbfbf" points="122,-282.5 122,-301.5 260,-301.5 260,-282.5 122,-282.5"/>
<text text-anchor="middle" x="191" y="-289.5" font-family="Helvetica,sans-Serif" font-size="10.00">shared_ptr&lt; SDL_Texture &gt;</text>
</g>
<!-- Node13&#45;&gt;Node9 -->
<g id="edge11" class="edge"><title>Node13&#45;&gt;Node9</title>
<path fill="none" stroke="#9a32cd" stroke-dasharray="5,2" d="M270.36,-292C303.62,-292 339.659,-292 361.406,-292"/>
<polygon fill="#9a32cd" stroke="#9a32cd" points="270.146,-288.5 260.146,-292 270.146,-295.5 270.146,-288.5"/>
<text text-anchor="middle" x="310" y="-295" font-family="Helvetica,sans-Serif" font-size="10.00"> texture</text>
</g>
<!-- Node14 -->
<g id="node13" class="node"><title>Node14</title>
<polygon fill="white" stroke="#bfbfbf" points="146,-244.5 146,-263.5 236,-263.5 236,-244.5 146,-244.5"/>
<text text-anchor="middle" x="191" y="-251.5" font-family="Helvetica,sans-Serif" font-size="10.00">SDL_BlendMode</text>
</g>
<!-- Node14&#45;&gt;Node9 -->
<g id="edge12" class="edge"><title>Node14&#45;&gt;Node9</title>
<path fill="none" stroke="#9a32cd" stroke-dasharray="5,2" d="M246.397,-259.538C275.126,-263.164 310.8,-268.782 342,-277 348.384,-278.682 355.162,-281.035 361.267,-283.379"/>
<polygon fill="#9a32cd" stroke="#9a32cd" points="246.497,-256.024 236.148,-258.291 245.652,-262.973 246.497,-256.024"/>
<text text-anchor="middle" x="310" y="-280" font-family="Helvetica,sans-Serif" font-size="10.00"> blendMode</text>
</g>
<!-- Node15 -->
<g id="node14" class="node"><title>Node15</title>
<g id="a_node14"><a xlink:href="structColor.html" target="_top" xlink:title="Struct para armazenar informações de cor. ">
<polygon fill="white" stroke="black" points="171,-74.5 171,-93.5 211,-93.5 211,-74.5 171,-74.5"/>
<text text-anchor="middle" x="191" y="-81.5" font-family="Helvetica,sans-Serif" font-size="10.00">Color</text>
</a>
</g>
</g>
<!-- Node15&#45;&gt;Node2 -->
<g id="edge41" class="edge"><title>Node15&#45;&gt;Node2</title>
<path fill="none" stroke="#9a32cd" stroke-dasharray="5,2" d="M221.202,-74.9193C258.142,-64.2547 323.895,-48 381.5,-48 381.5,-48 381.5,-48 1152,-48 1301.38,-48 1319.97,-316.794 1322.2,-371.393"/>
<polygon fill="#9a32cd" stroke="#9a32cd" points="219.738,-71.7022 211.14,-77.8931 221.722,-78.4152 219.738,-71.7022"/>
<text text-anchor="middle" x="741" y="-51" font-family="Helvetica,sans-Serif" font-size="10.00"> lightningColor</text>
</g>
<!-- Node15&#45;&gt;Node9 -->
<g id="edge13" class="edge"><title>Node15&#45;&gt;Node9</title>
<path fill="none" stroke="#9a32cd" stroke-dasharray="5,2" d="M220.904,-92.2331C254.72,-103.323 310.128,-126.273 342,-165 371.639,-201.014 379.098,-259.266 380.925,-282.239"/>
<polygon fill="#9a32cd" stroke="#9a32cd" points="221.742,-88.8277 211.152,-89.1678 219.642,-95.5055 221.742,-88.8277"/>
<text text-anchor="middle" x="310" y="-168" font-family="Helvetica,sans-Serif" font-size="10.00"> colorMultiplier</text>
</g>
<!-- Node16 -->
<g id="node15" class="node"><title>Node16</title>
<polygon fill="white" stroke="#bfbfbf" points="0,-74.5 0,-93.5 77,-93.5 77,-74.5 0,-74.5"/>
<text text-anchor="middle" x="38.5" y="-81.5" font-family="Helvetica,sans-Serif" font-size="10.00">unsigned char</text>
</g>
<!-- Node16&#45;&gt;Node15 -->
<g id="edge14" class="edge"><title>Node16&#45;&gt;Node15</title>
<path fill="none" stroke="#9a32cd" stroke-dasharray="5,2" d="M87.2041,-84C115.496,-84 149.815,-84 170.771,-84"/>
<polygon fill="#9a32cd" stroke="#9a32cd" points="87.0893,-80.5001 77.0893,-84 87.0892,-87.5001 87.0893,-80.5001"/>
<text text-anchor="middle" x="99.5" y="-120" font-family="Helvetica,sans-Serif" font-size="10.00"> g</text>
<text text-anchor="middle" x="99.5" y="-109" font-family="Helvetica,sans-Serif" font-size="10.00">a</text>
<text text-anchor="middle" x="99.5" y="-98" font-family="Helvetica,sans-Serif" font-size="10.00">r</text>
<text text-anchor="middle" x="99.5" y="-87" font-family="Helvetica,sans-Serif" font-size="10.00">b</text>
</g>
<!-- Node17&#45;&gt;Node2 -->
<g id="edge16" class="edge"><title>Node17&#45;&gt;Node2</title>
<path fill="none" stroke="#9a32cd" stroke-dasharray="5,2" d="M1181.35,-448.057C1215.89,-431.649 1272.32,-404.839 1302.3,-390.597"/>
<polygon fill="#9a32cd" stroke="#9a32cd" points="1179.76,-444.938 1172.23,-452.39 1182.76,-451.26 1179.76,-444.938"/>
<text text-anchor="middle" x="1241" y="-437" font-family="Helvetica,sans-Serif" font-size="10.00"> waveManager</text>
</g>
<!-- Node18 -->
<g id="node17" class="node"><title>Node18</title>
<g id="a_node17"><a xlink:href="classComponent.html" target="_top" xlink:title="Modela os componentes. ">
<polygon fill="white" stroke="black" points="852.5,-519.5 852.5,-538.5 919.5,-538.5 919.5,-519.5 852.5,-519.5"/>
<text text-anchor="middle" x="886" y="-526.5" font-family="Helvetica,sans-Serif" font-size="10.00">Component</text>
</a>
</g>
</g>
<!-- Node18&#45;&gt;Node17 -->
<g id="edge17" class="edge"><title>Node18&#45;&gt;Node17</title>
<path fill="none" stroke="midnightblue" d="M929.549,-525.628C971.928,-521.335 1038.37,-512.052 1093,-493 1108.32,-487.658 1124.44,-478.517 1135.61,-471.542"/>
<polygon fill="midnightblue" stroke="midnightblue" points="929.195,-522.146 919.577,-526.591 929.868,-529.113 929.195,-522.146"/>
</g>
<!-- Node19 -->
<g id="node18" class="node"><title>Node19</title>
<polygon fill="white" stroke="#bfbfbf" points="827.5,-423.5 827.5,-442.5 944.5,-442.5 944.5,-423.5 827.5,-423.5"/>
<text text-anchor="middle" x="886" y="-430.5" font-family="Helvetica,sans-Serif" font-size="10.00">vector&lt; vector&lt; int &gt; &gt;</text>
</g>
<!-- Node19&#45;&gt;Node17 -->
<g id="edge18" class="edge"><title>Node19&#45;&gt;Node17</title>
<path fill="none" stroke="#9a32cd" stroke-dasharray="5,2" d="M954.743,-439.255C994.963,-443.131 1046.94,-448.422 1093,-454 1098.75,-454.697 1104.83,-455.489 1110.78,-456.296"/>
<polygon fill="#9a32cd" stroke="#9a32cd" points="955.07,-435.77 944.782,-438.301 954.403,-442.738 955.07,-435.77"/>
<text text-anchor="middle" x="1040" y="-457" font-family="Helvetica,sans-Serif" font-size="10.00"> spawnGroups</text>
</g>
<!-- Node20&#45;&gt;Node2 -->
<g id="edge31" class="edge"><title>Node20&#45;&gt;Node2</title>
<path fill="none" stroke="#9a32cd" stroke-dasharray="5,2" d="M921.543,-614.904C963.64,-618.276 1036.18,-619.563 1093,-597 1203.86,-552.978 1292.34,-427.297 1316.16,-390.955"/>
<polygon fill="#9a32cd" stroke="#9a32cd" points="921.795,-611.412 911.524,-614.014 921.176,-618.385 921.795,-611.412"/>
<text text-anchor="middle" x="1151" y="-591" font-family="Helvetica,sans-Serif" font-size="10.00"> tileMap</text>
</g>
<!-- Node20&#45;&gt;Node17 -->
<g id="edge21" class="edge"><title>Node20&#45;&gt;Node17</title>
<path fill="none" stroke="#9a32cd" stroke-dasharray="5,2" d="M921.436,-602.108C940.687,-597.209 965.137,-591.103 987,-586 1033.95,-575.042 1054.2,-591.608 1093,-563 1125.09,-539.342 1141.64,-491.861 1147.49,-471.561"/>
<polygon fill="#9a32cd" stroke="#9a32cd" points="920.428,-598.754 911.605,-604.62 922.161,-605.536 920.428,-598.754"/>
<text text-anchor="middle" x="1040" y="-589" font-family="Helvetica,sans-Serif" font-size="10.00"> tileMap</text>
</g>
<!-- Node21 -->
<g id="node20" class="node"><title>Node21</title>
<polygon fill="white" stroke="#bfbfbf" points="571,-771.5 571,-790.5 643,-790.5 643,-771.5 571,-771.5"/>
<text text-anchor="middle" x="607" y="-778.5" font-family="Helvetica,sans-Serif" font-size="10.00">vector&lt; int &gt;</text>
</g>
<!-- Node21&#45;&gt;Node2 -->
<g id="edge32" class="edge"><title>Node21&#45;&gt;Node2</title>
<path fill="none" stroke="#9a32cd" stroke-dasharray="5,2" d="M653.418,-792.15C689.395,-799.295 740.783,-805.739 785,-797 976.411,-759.171 1022.31,-728.043 1191,-630 1230.97,-606.769 1247.48,-604.549 1273,-566 1311.72,-507.503 1320.24,-419.757 1322.04,-390.717"/>
<polygon fill="#9a32cd" stroke="#9a32cd" points="653.74,-788.641 643.236,-790.027 652.311,-795.494 653.74,-788.641"/>
<text text-anchor="middle" x="1040" y="-742" font-family="Helvetica,sans-Serif" font-size="10.00"> waves</text>
</g>
<!-- Node21&#45;&gt;Node20 -->
<g id="edge23" class="edge"><title>Node21&#45;&gt;Node20</title>
<path fill="none" stroke="#9a32cd" stroke-dasharray="5,2" d="M635.719,-767.1C653.039,-758.78 675.972,-748.415 697,-741 735.124,-727.556 750.274,-738.694 785,-718 828.465,-692.098 864.782,-641.809 878.799,-620.699"/>
<polygon fill="#9a32cd" stroke="#9a32cd" points="634.181,-763.956 626.723,-771.481 637.246,-770.25 634.181,-763.956"/>
<text text-anchor="middle" x="741" y="-744" font-family="Helvetica,sans-Serif" font-size="10.00"> tileMatrix</text>
</g>
<!-- Node22 -->
<g id="node21" class="node"><title>Node22</title>
<polygon fill="white" stroke="#bfbfbf" points="545.5,-671.5 545.5,-690.5 668.5,-690.5 668.5,-671.5 545.5,-671.5"/>
<text text-anchor="middle" x="607" y="-678.5" font-family="Helvetica,sans-Serif" font-size="10.00">vector&lt; GameObject * &gt;</text>
</g>
<!-- Node22&#45;&gt;Node20 -->
<g id="edge24" class="edge"><title>Node22&#45;&gt;Node20</title>
<path fill="none" stroke="#9a32cd" stroke-dasharray="5,2" d="M658.593,-669.07C694.039,-660.623 742.483,-648.902 785,-638 810.78,-631.389 840.175,-623.398 860.388,-617.832"/>
<polygon fill="#9a32cd" stroke="#9a32cd" points="657.413,-665.753 648.494,-671.471 659.033,-672.563 657.413,-665.753"/>
<text text-anchor="middle" x="741" y="-662" font-family="Helvetica,sans-Serif" font-size="10.00"> gameObjectMatrix</text>
</g>
<!-- Node23 -->
<g id="node22" class="node"><title>Node23</title>
<polygon fill="white" stroke="#bfbfbf" points="803,-363.5 803,-404.5 969,-404.5 969,-363.5 803,-363.5"/>
<text text-anchor="start" x="811" y="-392.5" font-family="Helvetica,sans-Serif" font-size="10.00">shared_ptr&lt; std::pair</text>
<text text-anchor="start" x="811" y="-381.5" font-family="Helvetica,sans-Serif" font-size="10.00">&lt; std::vector&lt; WaveData</text>
<text text-anchor="middle" x="886" y="-370.5" font-family="Helvetica,sans-Serif" font-size="10.00"> &gt;, std::vector&lt; EnemyData &gt; &gt; &gt;</text>
</g>
<!-- Node23&#45;&gt;Node17 -->
<g id="edge27" class="edge"><title>Node23&#45;&gt;Node17</title>
<path fill="none" stroke="#9a32cd" stroke-dasharray="5,2" d="M979.097,-397.018C1015.37,-403.848 1056.91,-413.829 1093,-428 1108.87,-434.232 1125.44,-444.622 1136.6,-452.28"/>
<polygon fill="#9a32cd" stroke="#9a32cd" points="979.48,-393.53 969.013,-395.174 978.221,-400.416 979.48,-393.53"/>
<text text-anchor="middle" x="1040" y="-431" font-family="Helvetica,sans-Serif" font-size="10.00"> wavesAndEnemysData</text>
</g>
<!-- Node24&#45;&gt;Node2 -->
<g id="edge42" class="edge"><title>Node24&#45;&gt;Node2</title>
<path fill="none" stroke="#9a32cd" stroke-dasharray="5,2" d="M916.768,-338.144C995.67,-346.478 1209.67,-369.082 1290.77,-377.648"/>
<polygon fill="#9a32cd" stroke="#9a32cd" points="916.871,-334.636 906.559,-337.066 916.136,-341.597 916.871,-334.636"/>
<text text-anchor="middle" x="1151" y="-370" font-family="Helvetica,sans-Serif" font-size="10.00"> lightningTimer</text>
</g>
<!-- Node24&#45;&gt;Node17 -->
<g id="edge28" class="edge"><title>Node24&#45;&gt;Node17</title>
<path fill="none" stroke="#9a32cd" stroke-dasharray="5,2" d="M916.67,-340.867C970.104,-351.606 1078.34,-374.218 1093,-384 1119.37,-401.598 1137.87,-435.726 1145.75,-452.385"/>
<polygon fill="#9a32cd" stroke="#9a32cd" points="917.251,-337.413 906.758,-338.884 915.878,-344.278 917.251,-337.413"/>
<text text-anchor="middle" x="1040" y="-387" font-family="Helvetica,sans-Serif" font-size="10.00"> spawnTimer</text>
</g>
<!-- Node25&#45;&gt;Node2 -->
<g id="edge33" class="edge"><title>Node25&#45;&gt;Node2</title>
<path fill="none" stroke="#9a32cd" stroke-dasharray="5,2" d="M934.103,-233.341C1012.32,-221.703 1170.51,-210.109 1273,-283 1303.6,-304.763 1316.42,-351.065 1320.7,-371.251"/>
<polygon fill="#9a32cd" stroke="#9a32cd" points="933.407,-229.907 924.063,-234.901 934.482,-236.824 933.407,-229.907"/>
<text text-anchor="middle" x="1151" y="-247" font-family="Helvetica,sans-Serif" font-size="10.00"> inputManager</text>
</g>
<!-- Node26&#45;&gt;Node25 -->
<g id="edge34" class="edge"><title>Node26&#45;&gt;Node25</title>
<path fill="none" stroke="#9a32cd" stroke-dasharray="5,2" d="M487.326,-181.763C499.367,-192.978 516.766,-206.932 535,-214 642.564,-255.697 782.369,-251.047 847.962,-245.786"/>
<polygon fill="#9a32cd" stroke="#9a32cd" points="489.514,-179.009 479.901,-174.555 484.638,-184.032 489.514,-179.009"/>
<text text-anchor="middle" x="607" y="-270" font-family="Helvetica,sans-Serif" font-size="10.00"> controllerLeftStickState</text>
<text text-anchor="middle" x="607" y="-259" font-family="Helvetica,sans-Serif" font-size="10.00">controllerRightStickState</text>
<text text-anchor="middle" x="607" y="-248" font-family="Helvetica,sans-Serif" font-size="10.00">mouseScroolState</text>
</g>
<!-- Node27 -->
<g id="node26" class="node"><title>Node27</title>
<polygon fill="white" stroke="#bfbfbf" points="554,-175 554,-205 660,-205 660,-175 554,-175"/>
<text text-anchor="start" x="562" y="-193" font-family="Helvetica,sans-Serif" font-size="10.00">unordered_map&lt; int,</text>
<text text-anchor="middle" x="607" y="-182" font-family="Helvetica,sans-Serif" font-size="10.00"> int &gt;</text>
</g>
<!-- Node27&#45;&gt;Node25 -->
<g id="edge38" class="edge"><title>Node27&#45;&gt;Node25</title>
<path fill="none" stroke="#9a32cd" stroke-dasharray="5,2" d="M670.35,-191.751C704.53,-193.679 747.461,-197.69 785,-206 812.924,-212.182 843.693,-224.075 863.625,-232.497"/>
<polygon fill="#9a32cd" stroke="#9a32cd" points="670.207,-188.239 660.039,-191.217 669.845,-195.229 670.207,-188.239"/>
<text text-anchor="middle" x="741" y="-220" font-family="Helvetica,sans-Serif" font-size="10.00"> controllerUpdate</text>
<text text-anchor="middle" x="741" y="-209" font-family="Helvetica,sans-Serif" font-size="10.00">keyUpdate</text>
</g>
<!-- Node28 -->
<g id="node27" class="node"><title>Node28</title>
<polygon fill="white" stroke="#bfbfbf" points="554,-126 554,-156 660,-156 660,-126 554,-126"/>
<text text-anchor="start" x="562" y="-144" font-family="Helvetica,sans-Serif" font-size="10.00">unordered_map&lt; int,</text>
<text text-anchor="middle" x="607" y="-133" font-family="Helvetica,sans-Serif" font-size="10.00"> bool &gt;</text>
</g>
<!-- Node28&#45;&gt;Node25 -->
<g id="edge39" class="edge"><title>Node28&#45;&gt;Node25</title>
<path fill="none" stroke="#9a32cd" stroke-dasharray="5,2" d="M670.175,-143.142C705.042,-146.126 748.691,-152.895 785,-168 822.489,-183.595 858.847,-216.194 875.517,-232.411"/>
<polygon fill="#9a32cd" stroke="#9a32cd" points="670.361,-139.646 660.121,-142.365 669.822,-146.625 670.361,-139.646"/>
<text text-anchor="middle" x="741" y="-182" font-family="Helvetica,sans-Serif" font-size="10.00"> keyState</text>
<text text-anchor="middle" x="741" y="-171" font-family="Helvetica,sans-Serif" font-size="10.00">controllerState</text>
</g>
<!-- Node29 -->
<g id="node28" class="node"><title>Node29</title>
<polygon fill="white" stroke="#bfbfbf" points="543,-77 543,-107 671,-107 671,-77 543,-77"/>
<text text-anchor="start" x="551" y="-95" font-family="Helvetica,sans-Serif" font-size="10.00">unordered_map&lt; int,</text>
<text text-anchor="middle" x="607" y="-84" font-family="Helvetica,sans-Serif" font-size="10.00"> SDL_GameController * &gt;</text>
</g>
<!-- Node29&#45;&gt;Node25 -->
<g id="edge40" class="edge"><title>Node29&#45;&gt;Node25</title>
<path fill="none" stroke="#9a32cd" stroke-dasharray="5,2" d="M681.366,-98.4226C714.736,-103.819 753.672,-113.744 785,-132 829.599,-157.989 865.547,-210.509 879.14,-232.243"/>
<polygon fill="#9a32cd" stroke="#9a32cd" points="681.614,-94.9204 671.204,-96.8892 680.569,-101.842 681.614,-94.9204"/>
<text text-anchor="middle" x="741" y="-135" font-family="Helvetica,sans-Serif" font-size="10.00"> padToController</text>
</g>
</g>
</svg>
