<?xml version="1.0" encoding="UTF-8" standalone="no"?>
<!DOCTYPE svg PUBLIC "-//W3C//DTD SVG 1.1//EN"
 "http://www.w3.org/Graphics/SVG/1.1/DTD/svg11.dtd">
<!-- Generated by graphviz version 2.38.0 (20140413.2041)
 -->
<!-- Title: TileMap Pages: 1 -->
<svg width="850pt" height="538pt"
 viewBox="0.00 0.00 850.00 538.20" xmlns="http://www.w3.org/2000/svg" xmlns:xlink="http://www.w3.org/1999/xlink">
<g id="graph0" class="graph" transform="scale(1 1) rotate(0) translate(4 534.202)">
<title>TileMap</title>
<polygon fill="white" stroke="none" points="-4,4 -4,-534.202 846,-534.202 846,4 -4,4"/>
<!-- Node1 -->
<g id="node1" class="node"><title>Node1</title>
<polygon fill="#bfbfbf" stroke="black" points="791,-141.979 791,-160.979 842,-160.979 842,-141.979 791,-141.979"/>
<text text-anchor="middle" x="816.5" y="-148.979" font-family="Helvetica,sans-Serif" font-size="10.00">TileMap</text>
</g>
<!-- Node2 -->
<g id="node2" class="node"><title>Node2</title>
<g id="a_node2"><a xlink:href="classNearestGOFinder.html" target="_top" xlink:title="NearestGOFinder">
<polygon fill="white" stroke="black" points="554,-507.979 554,-526.979 647,-526.979 647,-507.979 554,-507.979"/>
<text text-anchor="middle" x="600.5" y="-514.979" font-family="Helvetica,sans-Serif" font-size="10.00">NearestGOFinder</text>
</a>
</g>
</g>
<!-- Node2&#45;&gt;Node1 -->
<g id="edge1" class="edge"><title>Node2&#45;&gt;Node1</title>
<path fill="none" stroke="midnightblue" d="M655.019,-528.386C693.027,-532.773 742.53,-531.113 773,-501.479 798.176,-476.994 812.369,-215.12 815.037,-161.167"/>
<polygon fill="midnightblue" stroke="midnightblue" points="655.002,-524.853 644.629,-527.007 654.081,-531.793 655.002,-524.853"/>
</g>
<!-- Node3 -->
<g id="node3" class="node"><title>Node3</title>
<polygon fill="white" stroke="#bfbfbf" points="529,-469.979 529,-488.979 672,-488.979 672,-469.979 529,-469.979"/>
<text text-anchor="middle" x="600.5" y="-476.979" font-family="Helvetica,sans-Serif" font-size="10.00">vector&lt; TileMapObserver * &gt;</text>
</g>
<!-- Node3&#45;&gt;Node1 -->
<g id="edge2" class="edge"><title>Node3&#45;&gt;Node1</title>
<path fill="none" stroke="#9a32cd" stroke-dasharray="5,2" d="M682.724,-487.772C714.896,-486.534 749.695,-478.788 773,-455.479 815.578,-412.895 816.102,-208.574 815.64,-161.271"/>
<polygon fill="#9a32cd" stroke="#9a32cd" points="682.324,-484.278 672.388,-487.957 682.449,-491.277 682.324,-484.278"/>
<text text-anchor="middle" x="731.5" y="-489.479" font-family="Helvetica,sans-Serif" font-size="10.00"> observers</text>
</g>
<!-- Node4 -->
<g id="node4" class="node"><title>Node4</title>
<g id="a_node4"><a xlink:href="classTileSet.html" target="_top" xlink:title="Classe responsável por modelar um tileset. ">
<polygon fill="white" stroke="black" points="577,-141.979 577,-160.979 624,-160.979 624,-141.979 577,-141.979"/>
<text text-anchor="middle" x="600.5" y="-148.979" font-family="Helvetica,sans-Serif" font-size="10.00">TileSet</text>
</a>
</g>
</g>
<!-- Node4&#45;&gt;Node1 -->
<g id="edge3" class="edge"><title>Node4&#45;&gt;Node1</title>
<path fill="none" stroke="#9a32cd" stroke-dasharray="5,2" d="M634.66,-151.479C677.82,-151.479 752.265,-151.479 790.795,-151.479"/>
<polygon fill="#9a32cd" stroke="#9a32cd" points="634.402,-147.979 624.402,-151.479 634.402,-154.979 634.402,-147.979"/>
<text text-anchor="middle" x="731.5" y="-154.479" font-family="Helvetica,sans-Serif" font-size="10.00"> tileSet</text>
</g>
<!-- Node5 -->
<g id="node5" class="node"><title>Node5</title>
<g id="a_node5"><a xlink:href="classSprite.html" target="_top" xlink:title="Classe que modela uma sprite. ">
<polygon fill="white" stroke="black" points="361.5,-253.979 361.5,-272.979 403.5,-272.979 403.5,-253.979 361.5,-253.979"/>
<text text-anchor="middle" x="382.5" y="-260.979" font-family="Helvetica,sans-Serif" font-size="10.00">Sprite</text>
</a>
</g>
</g>
<!-- Node5&#45;&gt;Node4 -->
<g id="edge4" class="edge"><title>Node5&#45;&gt;Node4</title>
<path fill="none" stroke="#9a32cd" stroke-dasharray="5,2" d="M411.045,-249.196C455.808,-225.986 543.152,-180.696 581.131,-161.004"/>
<polygon fill="#9a32cd" stroke="#9a32cd" points="409.182,-246.22 401.916,-253.93 412.405,-252.434 409.182,-246.22"/>
<text text-anchor="middle" x="467" y="-244.479" font-family="Helvetica,sans-Serif" font-size="10.00"> tileSet</text>
</g>
<!-- Node6 -->
<g id="node6" class="node"><title>Node6</title>
<polygon fill="white" stroke="#bfbfbf" points="173.5,-308.979 173.5,-327.979 208.5,-327.979 208.5,-308.979 173.5,-308.979"/>
<text text-anchor="middle" x="191" y="-315.979" font-family="Helvetica,sans-Serif" font-size="10.00">float</text>
</g>
<!-- Node6&#45;&gt;Node5 -->
<g id="edge5" class="edge"><title>Node6&#45;&gt;Node5</title>
<path fill="none" stroke="#9a32cd" stroke-dasharray="5,2" d="M219.049,-315.709C249.712,-311.933 300.788,-303.696 342,-287.479 351.259,-283.836 360.816,-278.091 368.21,-273.135"/>
<polygon fill="#9a32cd" stroke="#9a32cd" points="218.263,-312.277 208.732,-316.905 219.069,-319.23 218.263,-312.277"/>
<text text-anchor="middle" x="310" y="-340.479" font-family="Helvetica,sans-Serif" font-size="10.00"> scaleY</text>
<text text-anchor="middle" x="310" y="-329.479" font-family="Helvetica,sans-Serif" font-size="10.00">frameTime</text>
<text text-anchor="middle" x="310" y="-318.479" font-family="Helvetica,sans-Serif" font-size="10.00">timeElapsed</text>
<text text-anchor="middle" x="310" y="-307.479" font-family="Helvetica,sans-Serif" font-size="10.00">scaleX</text>
</g>
<!-- Node7 -->
<g id="node7" class="node"><title>Node7</title>
<polygon fill="white" stroke="#bfbfbf" points="160,-270.979 160,-289.979 222,-289.979 222,-270.979 160,-270.979"/>
<text text-anchor="middle" x="191" y="-277.979" font-family="Helvetica,sans-Serif" font-size="10.00">SDL_Rect</text>
</g>
<!-- Node7&#45;&gt;Node5 -->
<g id="edge6" class="edge"><title>Node7&#45;&gt;Node5</title>
<path fill="none" stroke="#9a32cd" stroke-dasharray="5,2" d="M232.165,-276.876C271.84,-273.317 330.894,-268.019 361.496,-265.274"/>
<polygon fill="#9a32cd" stroke="#9a32cd" points="231.674,-273.406 222.027,-277.785 232.3,-280.378 231.674,-273.406"/>
<text text-anchor="middle" x="310" y="-275.479" font-family="Helvetica,sans-Serif" font-size="10.00"> clipRect</text>
</g>
<!-- Node8 -->
<g id="node8" class="node"><title>Node8</title>
<polygon fill="white" stroke="#bfbfbf" points="176.5,-102.979 176.5,-121.979 205.5,-121.979 205.5,-102.979 176.5,-102.979"/>
<text text-anchor="middle" x="191" y="-109.979" font-family="Helvetica,sans-Serif" font-size="10.00">int</text>
</g>
<!-- Node8&#45;&gt;Node1 -->
<g id="edge16" class="edge"><title>Node8&#45;&gt;Node1</title>
<path fill="none" stroke="#9a32cd" stroke-dasharray="5,2" d="M215.515,-110.311C257.249,-106.583 347.026,-99.107 423,-96.479 462.088,-95.127 472.045,-92.9892 511,-96.479 616.139,-105.898 739.277,-133.262 790.838,-145.473"/>
<polygon fill="#9a32cd" stroke="#9a32cd" points="215.166,-106.828 205.522,-111.214 215.797,-113.799 215.166,-106.828"/>
<text text-anchor="middle" x="467" y="-121.479" font-family="Helvetica,sans-Serif" font-size="10.00"> mapDepth</text>
<text text-anchor="middle" x="467" y="-110.479" font-family="Helvetica,sans-Serif" font-size="10.00">mapHeight</text>
<text text-anchor="middle" x="467" y="-99.479" font-family="Helvetica,sans-Serif" font-size="10.00">mapWidth</text>
</g>
<!-- Node8&#45;&gt;Node4 -->
<g id="edge13" class="edge"><title>Node8&#45;&gt;Node4</title>
<path fill="none" stroke="#9a32cd" stroke-dasharray="5,2" d="M215.832,-114.676C245.423,-117.41 297.441,-122.237 342,-126.479 428.743,-134.738 531.893,-144.836 576.769,-149.243"/>
<polygon fill="#9a32cd" stroke="#9a32cd" points="215.931,-111.17 205.652,-113.736 215.288,-118.141 215.931,-111.17"/>
<text text-anchor="middle" x="382.5" y="-168.479" font-family="Helvetica,sans-Serif" font-size="10.00"> tileHeight</text>
<text text-anchor="middle" x="382.5" y="-157.479" font-family="Helvetica,sans-Serif" font-size="10.00">rows</text>
<text text-anchor="middle" x="382.5" y="-146.479" font-family="Helvetica,sans-Serif" font-size="10.00">tileWidth</text>
<text text-anchor="middle" x="382.5" y="-135.479" font-family="Helvetica,sans-Serif" font-size="10.00">columns</text>
</g>
<!-- Node8&#45;&gt;Node5 -->
<g id="edge7" class="edge"><title>Node8&#45;&gt;Node5</title>
<path fill="none" stroke="#9a32cd" stroke-dasharray="5,2" d="M215.917,-114.062C248.493,-117.455 306.78,-128.102 342,-161.479 369.154,-187.212 377.907,-233.742 380.5,-253.823"/>
<polygon fill="#9a32cd" stroke="#9a32cd" points="215.818,-110.539 205.547,-113.139 215.197,-117.512 215.818,-110.539"/>
<text text-anchor="middle" x="310" y="-197.479" font-family="Helvetica,sans-Serif" font-size="10.00"> width</text>
<text text-anchor="middle" x="310" y="-186.479" font-family="Helvetica,sans-Serif" font-size="10.00">currentFrame</text>
<text text-anchor="middle" x="310" y="-175.479" font-family="Helvetica,sans-Serif" font-size="10.00">height</text>
<text text-anchor="middle" x="310" y="-164.479" font-family="Helvetica,sans-Serif" font-size="10.00">frameCount</text>
</g>
<!-- Node9 -->
<g id="node9" class="node"><title>Node9</title>
<polygon fill="white" stroke="#bfbfbf" points="122,-194.979 122,-213.979 260,-213.979 260,-194.979 122,-194.979"/>
<text text-anchor="middle" x="191" y="-201.979" font-family="Helvetica,sans-Serif" font-size="10.00">shared_ptr&lt; SDL_Texture &gt;</text>
</g>
<!-- Node9&#45;&gt;Node5 -->
<g id="edge8" class="edge"><title>Node9&#45;&gt;Node5</title>
<path fill="none" stroke="#9a32cd" stroke-dasharray="5,2" d="M270.223,-208.55C294.109,-211.988 319.888,-218.019 342,-228.479 354.589,-234.434 366.154,-245.657 373.473,-253.792"/>
<polygon fill="#9a32cd" stroke="#9a32cd" points="270.487,-205.055 260.118,-207.23 269.58,-211.996 270.487,-205.055"/>
<text text-anchor="middle" x="310" y="-231.479" font-family="Helvetica,sans-Serif" font-size="10.00"> texture</text>
</g>
<!-- Node10 -->
<g id="node10" class="node"><title>Node10</title>
<polygon fill="white" stroke="#bfbfbf" points="173.5,-420.979 173.5,-439.979 208.5,-439.979 208.5,-420.979 173.5,-420.979"/>
<text text-anchor="middle" x="191" y="-427.979" font-family="Helvetica,sans-Serif" font-size="10.00">bool</text>
</g>
<!-- Node10&#45;&gt;Node1 -->
<g id="edge17" class="edge"><title>Node10&#45;&gt;Node1</title>
<path fill="none" stroke="#9a32cd" stroke-dasharray="5,2" d="M218.847,-433.934C249.327,-436.948 300.236,-439.212 342,-427.479 546.278,-370.091 753.959,-203.254 804.108,-161.195"/>
<polygon fill="#9a32cd" stroke="#9a32cd" points="218.918,-430.421 208.597,-432.814 218.158,-437.379 218.918,-430.421"/>
<text text-anchor="middle" x="467" y="-399.479" font-family="Helvetica,sans-Serif" font-size="10.00"> displayCollisionInfo</text>
</g>
<!-- Node10&#45;&gt;Node5 -->
<g id="edge9" class="edge"><title>Node10&#45;&gt;Node5</title>
<path fill="none" stroke="#9a32cd" stroke-dasharray="5,2" d="M218.762,-425.367C259.431,-417.377 333.044,-401.971 342,-393.479 376.918,-360.369 381.268,-297.477 381.595,-273.293"/>
<polygon fill="#9a32cd" stroke="#9a32cd" points="217.866,-421.975 208.718,-427.32 219.202,-428.846 217.866,-421.975"/>
<text text-anchor="middle" x="310" y="-415.479" font-family="Helvetica,sans-Serif" font-size="10.00"> highlightable</text>
</g>
<!-- Node11 -->
<g id="node11" class="node"><title>Node11</title>
<polygon fill="white" stroke="#bfbfbf" points="146,-371.979 146,-390.979 236,-390.979 236,-371.979 146,-371.979"/>
<text text-anchor="middle" x="191" y="-378.979" font-family="Helvetica,sans-Serif" font-size="10.00">SDL_BlendMode</text>
</g>
<!-- Node11&#45;&gt;Node5 -->
<g id="edge10" class="edge"><title>Node11&#45;&gt;Node5</title>
<path fill="none" stroke="#9a32cd" stroke-dasharray="5,2" d="M246.405,-382.874C277.389,-380.97 315.24,-373.769 342,-352.479 367.664,-332.061 377.115,-291.478 380.188,-273.018"/>
<polygon fill="#9a32cd" stroke="#9a32cd" points="246.021,-379.387 236.187,-383.329 246.333,-386.38 246.021,-379.387"/>
<text text-anchor="middle" x="310" y="-381.479" font-family="Helvetica,sans-Serif" font-size="10.00"> blendMode</text>
</g>
<!-- Node12 -->
<g id="node12" class="node"><title>Node12</title>
<g id="a_node12"><a xlink:href="structColor.html" target="_top" xlink:title="Struct para armazenar informações de cor. ">
<polygon fill="white" stroke="black" points="171,-232.979 171,-251.979 211,-251.979 211,-232.979 171,-232.979"/>
<text text-anchor="middle" x="191" y="-239.979" font-family="Helvetica,sans-Serif" font-size="10.00">Color</text>
</a>
</g>
</g>
<!-- Node12&#45;&gt;Node5 -->
<g id="edge11" class="edge"><title>Node12&#45;&gt;Node5</title>
<path fill="none" stroke="#9a32cd" stroke-dasharray="5,2" d="M221.443,-242.214C251.864,-242.413 300.605,-244.056 342,-251.479 348.349,-252.618 355.116,-254.439 361.222,-256.322"/>
<polygon fill="#9a32cd" stroke="#9a32cd" points="221.118,-238.713 211.112,-242.198 221.107,-245.713 221.118,-238.713"/>
<text text-anchor="middle" x="310" y="-254.479" font-family="Helvetica,sans-Serif" font-size="10.00"> colorMultiplier</text>
</g>
<!-- Node13 -->
<g id="node13" class="node"><title>Node13</title>
<polygon fill="white" stroke="#bfbfbf" points="0,-232.979 0,-251.979 77,-251.979 77,-232.979 0,-232.979"/>
<text text-anchor="middle" x="38.5" y="-239.979" font-family="Helvetica,sans-Serif" font-size="10.00">unsigned char</text>
</g>
<!-- Node13&#45;&gt;Node12 -->
<g id="edge12" class="edge"><title>Node13&#45;&gt;Node12</title>
<path fill="none" stroke="#9a32cd" stroke-dasharray="5,2" d="M87.2041,-242.479C115.496,-242.479 149.815,-242.479 170.771,-242.479"/>
<polygon fill="#9a32cd" stroke="#9a32cd" points="87.0893,-238.979 77.0893,-242.479 87.0892,-245.979 87.0893,-238.979"/>
<text text-anchor="middle" x="99.5" y="-278.479" font-family="Helvetica,sans-Serif" font-size="10.00"> g</text>
<text text-anchor="middle" x="99.5" y="-267.479" font-family="Helvetica,sans-Serif" font-size="10.00">a</text>
<text text-anchor="middle" x="99.5" y="-256.479" font-family="Helvetica,sans-Serif" font-size="10.00">r</text>
<text text-anchor="middle" x="99.5" y="-245.479" font-family="Helvetica,sans-Serif" font-size="10.00">b</text>
</g>
<!-- Node14 -->
<g id="node14" class="node"><title>Node14</title>
<polygon fill="white" stroke="#bfbfbf" points="564.5,-39.979 564.5,-58.979 636.5,-58.979 636.5,-39.979 564.5,-39.979"/>
<text text-anchor="middle" x="600.5" y="-46.979" font-family="Helvetica,sans-Serif" font-size="10.00">vector&lt; int &gt;</text>
</g>
<!-- Node14&#45;&gt;Node1 -->
<g id="edge14" class="edge"><title>Node14&#45;&gt;Node1</title>
<path fill="none" stroke="#9a32cd" stroke-dasharray="5,2" d="M646.763,-41.2564C683.903,-37.0592 736.181,-37.2644 773,-62.479 800.548,-81.3451 810.788,-123.109 814.103,-141.941"/>
<polygon fill="#9a32cd" stroke="#9a32cd" points="646.19,-37.801 636.715,-42.5398 647.077,-44.7446 646.19,-37.801"/>
<text text-anchor="middle" x="731.5" y="-65.479" font-family="Helvetica,sans-Serif" font-size="10.00"> tileMatrix</text>
</g>
<!-- Node15 -->
<g id="node15" class="node"><title>Node15</title>
<polygon fill="white" stroke="#bfbfbf" points="539,-1.97903 539,-20.979 662,-20.979 662,-1.97903 539,-1.97903"/>
<text text-anchor="middle" x="600.5" y="-8.97903" font-family="Helvetica,sans-Serif" font-size="10.00">vector&lt; GameObject * &gt;</text>
</g>
<!-- Node15&#45;&gt;Node1 -->
<g id="edge15" class="edge"><title>Node15&#45;&gt;Node1</title>
<path fill="none" stroke="#9a32cd" stroke-dasharray="5,2" d="M662.132,-0.998671C697.94,1.7258 742.153,-1.36678 773,-25.479 810.286,-54.6248 815.109,-117.889 815.551,-141.94"/>
<polygon fill="#9a32cd" stroke="#9a32cd" points="661.427,2.45093 651.794,-1.96091 662.076,-4.51894 661.427,2.45093"/>
<text text-anchor="middle" x="731.5" y="-28.479" font-family="Helvetica,sans-Serif" font-size="10.00"> gameObjectMatrix</text>
</g>
</g>
</svg>
