<?xml version="1.0" encoding="UTF-8" standalone="no"?>
<!DOCTYPE svg PUBLIC "-//W3C//DTD SVG 1.1//EN"
 "http://www.w3.org/Graphics/SVG/1.1/DTD/svg11.dtd">
<!-- Generated by graphviz version 2.36.0 (20140111.2315)
 -->
<!-- Title: DragAndDrop Pages: 1 -->
<svg width="1012pt" height="470pt"
 viewBox="0.00 0.00 1012.32 470.00" xmlns="http://www.w3.org/2000/svg" xmlns:xlink="http://www.w3.org/1999/xlink">
<g id="graph0" class="graph" transform="scale(1 1) rotate(0) translate(4 466)">
<title>DragAndDrop</title>
<polygon fill="white" stroke="none" points="-4,4 -4,-466 1008.32,-466 1008.32,4 -4,4"/>
<!-- Node1 -->
<g id="node1" class="node"><title>Node1</title>
<polygon fill="#bfbfbf" stroke="black" points="524.322,-0.5 524.322,-19.5 600.322,-19.5 600.322,-0.5 524.322,-0.5"/>
<text text-anchor="middle" x="562.322" y="-7.5" font-family="Helvetica,sans-Serif" font-size="10.00">DragAndDrop</text>
</g>
<!-- Node2 -->
<g id="node2" class="node"><title>Node2</title>
<g id="a_node2"><a xlink:href="classComponent.html" target="_top" xlink:title="Modela os componentes. ">
<polygon fill="white" stroke="black" points="406.822,-69.5 406.822,-88.5 473.822,-88.5 473.822,-69.5 406.822,-69.5"/>
<text text-anchor="middle" x="440.322" y="-76.5" font-family="Helvetica,sans-Serif" font-size="10.00">Component</text>
</a>
</g>
</g>
<!-- Node2&#45;&gt;Node1 -->
<g id="edge1" class="edge"><title>Node2&#45;&gt;Node1</title>
<path fill="none" stroke="midnightblue" d="M456.141,-62.4211C465.032,-54.3096 476.661,-44.712 488.322,-38 501.833,-30.2225 517.986,-24.0176 531.747,-19.5271"/>
<polygon fill="midnightblue" stroke="midnightblue" points="453.694,-59.9182 448.824,-69.3273 458.499,-65.009 453.694,-59.9182"/>
</g>
<!-- Node3 -->
<g id="node3" class="node"><title>Node3</title>
<g id="a_node3"><a xlink:href="classVec2.html" target="_top" xlink:title="Classe que modela um vetor(no sentido físico) ">
<polygon fill="white" stroke="black" points="123.822,-183.5 123.822,-202.5 162.822,-202.5 162.822,-183.5 123.822,-183.5"/>
<text text-anchor="middle" x="143.322" y="-190.5" font-family="Helvetica,sans-Serif" font-size="10.00">Vec2</text>
</a>
</g>
</g>
<!-- Node3&#45;&gt;Node1 -->
<g id="edge2" class="edge"><title>Node3&#45;&gt;Node1</title>
<path fill="none" stroke="#9a32cd" stroke-dasharray="5,2" d="M173.181,-187.981C234.729,-178.674 378.618,-151.557 482.322,-90 514.549,-70.8703 543.435,-35.9976 555.864,-19.7569"/>
<polygon fill="#9a32cd" stroke="#9a32cd" points="172.4,-184.558 163.012,-189.469 173.414,-191.485 172.4,-184.558"/>
<text text-anchor="middle" x="493.822" y="-111.5" font-family="Helvetica,sans-Serif" font-size="10.00"> associatedInitialPos</text>
</g>
<!-- Node4 -->
<g id="node4" class="node"><title>Node4</title>
<polygon fill="white" stroke="#bfbfbf" points="0.821759,-352.5 0.821759,-371.5 35.8218,-371.5 35.8218,-352.5 0.821759,-352.5"/>
<text text-anchor="middle" x="18.3218" y="-359.5" font-family="Helvetica,sans-Serif" font-size="10.00">float</text>
</g>
<!-- Node4&#45;&gt;Node3 -->
<g id="edge3" class="edge"><title>Node4&#45;&gt;Node3</title>
<path fill="none" stroke="#9a32cd" stroke-dasharray="5,2" d="M8.47633,-343.402C7.17194,-340.35 6.0394,-337.145 5.32176,-334 0.97096,-314.935 -3.73455,-307.332 5.32176,-290 30.4613,-241.887 91.9192,-213.011 123.649,-200.816"/>
<polygon fill="#9a32cd" stroke="#9a32cd" points="5.34815,-344.972 12.9329,-352.369 11.6167,-341.856 5.34815,-344.972"/>
<text text-anchor="middle" x="9.82176" y="-315" font-family="Helvetica,sans-Serif" font-size="10.00"> x</text>
<text text-anchor="middle" x="9.82176" y="-304" font-family="Helvetica,sans-Serif" font-size="10.00">y</text>
</g>
<!-- Node7 -->
<g id="node7" class="node"><title>Node7</title>
<g id="a_node7"><a xlink:href="classSprite.html" target="_top" xlink:title="Classe que modela uma sprite. ">
<polygon fill="white" stroke="black" points="305.322,-240.5 305.322,-259.5 347.322,-259.5 347.322,-240.5 305.322,-240.5"/>
<text text-anchor="middle" x="326.322" y="-247.5" font-family="Helvetica,sans-Serif" font-size="10.00">Sprite</text>
</a>
</g>
</g>
<!-- Node4&#45;&gt;Node7 -->
<g id="edge8" class="edge"><title>Node4&#45;&gt;Node7</title>
<path fill="none" stroke="#9a32cd" stroke-dasharray="5,2" d="M17.3743,-342.045C17.6728,-325.787 20.9397,-302.988 35.3218,-290 74.9486,-254.214 244.604,-250.881 304.929,-250.851"/>
<polygon fill="#9a32cd" stroke="#9a32cd" points="13.883,-342.56 17.5651,-352.494 20.8819,-342.432 13.883,-342.56"/>
<text text-anchor="middle" x="62.8218" y="-326" font-family="Helvetica,sans-Serif" font-size="10.00"> scaleY</text>
<text text-anchor="middle" x="62.8218" y="-315" font-family="Helvetica,sans-Serif" font-size="10.00">frameTime</text>
<text text-anchor="middle" x="62.8218" y="-304" font-family="Helvetica,sans-Serif" font-size="10.00">timeElapsed</text>
<text text-anchor="middle" x="62.8218" y="-293" font-family="Helvetica,sans-Serif" font-size="10.00">scaleX</text>
</g>
<!-- Node5 -->
<g id="node5" class="node"><title>Node5</title>
<g id="a_node5"><a xlink:href="classTileMap.html" target="_top" xlink:title="Classe que modela o TileMap. ">
<polygon fill="white" stroke="black" points="660.822,-69.5 660.822,-88.5 711.822,-88.5 711.822,-69.5 660.822,-69.5"/>
<text text-anchor="middle" x="686.322" y="-76.5" font-family="Helvetica,sans-Serif" font-size="10.00">TileMap</text>
</a>
</g>
</g>
<!-- Node5&#45;&gt;Node1 -->
<g id="edge4" class="edge"><title>Node5&#45;&gt;Node1</title>
<path fill="none" stroke="#9a32cd" stroke-dasharray="5,2" d="M661.535,-64.607C636.725,-51.202 599.298,-30.9793 578.217,-19.5888"/>
<polygon fill="#9a32cd" stroke="#9a32cd" points="659.903,-67.7036 670.365,-69.3781 663.231,-61.5451 659.903,-67.7036"/>
<text text-anchor="middle" x="648.822" y="-41.5" font-family="Helvetica,sans-Serif" font-size="10.00"> tileMap</text>
</g>
<!-- Node6 -->
<g id="node6" class="node"><title>Node6</title>
<g id="a_node6"><a xlink:href="classTileSet.html" target="_top" xlink:title="Classe responsável por modelar um tileset. ">
<polygon fill="white" stroke="black" points="565.822,-138.5 565.822,-157.5 612.822,-157.5 612.822,-138.5 565.822,-138.5"/>
<text text-anchor="middle" x="589.322" y="-145.5" font-family="Helvetica,sans-Serif" font-size="10.00">TileSet</text>
</a>
</g>
</g>
<!-- Node6&#45;&gt;Node5 -->
<g id="edge5" class="edge"><title>Node6&#45;&gt;Node5</title>
<path fill="none" stroke="#9a32cd" stroke-dasharray="5,2" d="M598.729,-129.72C603.496,-122.24 609.861,-113.872 617.322,-108 630.02,-98.0054 646.769,-91.0954 660.585,-86.6407"/>
<polygon fill="#9a32cd" stroke="#9a32cd" points="595.638,-128.071 593.583,-138.465 601.671,-131.621 595.638,-128.071"/>
<text text-anchor="middle" x="632.822" y="-111.5" font-family="Helvetica,sans-Serif" font-size="10.00"> tileSet</text>
</g>
<!-- Node7&#45;&gt;Node6 -->
<g id="edge6" class="edge"><title>Node7&#45;&gt;Node6</title>
<path fill="none" stroke="#9a32cd" stroke-dasharray="5,2" d="M357.01,-237.331C410.459,-217.009 519.432,-175.574 566.657,-157.618"/>
<polygon fill="#9a32cd" stroke="#9a32cd" points="355.503,-234.16 347.4,-240.986 357.991,-240.703 355.503,-234.16"/>
<text text-anchor="middle" x="526.822" y="-190.5" font-family="Helvetica,sans-Serif" font-size="10.00"> tileSet</text>
</g>
<!-- Node8 -->
<g id="node8" class="node"><title>Node8</title>
<polygon fill="white" stroke="#bfbfbf" points="175.822,-442.5 175.822,-461.5 252.822,-461.5 252.822,-442.5 175.822,-442.5"/>
<text text-anchor="middle" x="214.322" y="-449.5" font-family="Helvetica,sans-Serif" font-size="10.00">unsigned char</text>
</g>
<!-- Node8&#45;&gt;Node7 -->
<g id="edge7" class="edge"><title>Node8&#45;&gt;Node7</title>
<path fill="none" stroke="#9a32cd" stroke-dasharray="5,2" d="M182.953,-438.313C146.572,-421.54 93.9117,-389.667 113.322,-352 150.721,-279.422 259.186,-258.626 305.241,-252.982"/>
<polygon fill="#9a32cd" stroke="#9a32cd" points="181.693,-441.583 192.253,-442.441 184.533,-435.185 181.693,-441.583"/>
<text text-anchor="middle" x="126.822" y="-359.5" font-family="Helvetica,sans-Serif" font-size="10.00"> alpha</text>
</g>
<!-- Node13 -->
<g id="node13" class="node"><title>Node13</title>
<g id="a_node13"><a xlink:href="structColor.html" target="_top" xlink:title="Struct para armazenar informações de cor. ">
<polygon fill="white" stroke="black" points="493.322,-352.5 493.322,-371.5 533.322,-371.5 533.322,-352.5 493.322,-352.5"/>
<text text-anchor="middle" x="513.322" y="-359.5" font-family="Helvetica,sans-Serif" font-size="10.00">Color</text>
</a>
</g>
</g>
<!-- Node8&#45;&gt;Node13 -->
<g id="edge14" class="edge"><title>Node8&#45;&gt;Node13</title>
<path fill="none" stroke="#9a32cd" stroke-dasharray="5,2" d="M253.967,-439.619C306.653,-424.444 402.611,-396.631 484.322,-372 487.148,-371.148 490.126,-370.238 493.053,-369.336"/>
<polygon fill="#9a32cd" stroke="#9a32cd" points="252.976,-436.262 244.335,-442.391 254.913,-442.989 252.976,-436.262"/>
<text text-anchor="middle" x="422.822" y="-415.5" font-family="Helvetica,sans-Serif" font-size="10.00"> g</text>
<text text-anchor="middle" x="422.822" y="-404.5" font-family="Helvetica,sans-Serif" font-size="10.00">r</text>
<text text-anchor="middle" x="422.822" y="-393.5" font-family="Helvetica,sans-Serif" font-size="10.00">b</text>
</g>
<!-- Node9 -->
<g id="node9" class="node"><title>Node9</title>
<polygon fill="white" stroke="#bfbfbf" points="149.322,-352.5 149.322,-371.5 211.322,-371.5 211.322,-352.5 149.322,-352.5"/>
<text text-anchor="middle" x="180.322" y="-359.5" font-family="Helvetica,sans-Serif" font-size="10.00">SDL_Rect</text>
</g>
<!-- Node9&#45;&gt;Node7 -->
<g id="edge9" class="edge"><title>Node9&#45;&gt;Node7</title>
<path fill="none" stroke="#9a32cd" stroke-dasharray="5,2" d="M194.076,-344.598C207.562,-329.199 229.256,-306.172 251.322,-290 268.486,-277.421 290.268,-266.579 305.929,-259.543"/>
<polygon fill="#9a32cd" stroke="#9a32cd" points="191.341,-342.411 187.478,-352.277 196.65,-346.973 191.341,-342.411"/>
<text text-anchor="middle" x="271.322" y="-309.5" font-family="Helvetica,sans-Serif" font-size="10.00"> clipRect</text>
</g>
<!-- Node10 -->
<g id="node10" class="node"><title>Node10</title>
<polygon fill="white" stroke="#bfbfbf" points="574.822,-352.5 574.822,-371.5 603.822,-371.5 603.822,-352.5 574.822,-352.5"/>
<text text-anchor="middle" x="589.322" y="-359.5" font-family="Helvetica,sans-Serif" font-size="10.00">int</text>
</g>
<!-- Node10&#45;&gt;Node5 -->
<g id="edge18" class="edge"><title>Node10&#45;&gt;Node5</title>
<path fill="none" stroke="#9a32cd" stroke-dasharray="5,2" d="M600.759,-343.47C611.73,-325.983 628.097,-298.044 638.322,-272 665.068,-203.877 680.536,-116.198 684.978,-88.6653"/>
<polygon fill="#9a32cd" stroke="#9a32cd" points="597.724,-341.719 595.292,-352.031 603.624,-345.486 597.724,-341.719"/>
<text text-anchor="middle" x="690.822" y="-201.5" font-family="Helvetica,sans-Serif" font-size="10.00"> mapDepth</text>
<text text-anchor="middle" x="690.822" y="-190.5" font-family="Helvetica,sans-Serif" font-size="10.00">mapHeight</text>
<text text-anchor="middle" x="690.822" y="-179.5" font-family="Helvetica,sans-Serif" font-size="10.00">mapWidth</text>
</g>
<!-- Node10&#45;&gt;Node6 -->
<g id="edge15" class="edge"><title>Node10&#45;&gt;Node6</title>
<path fill="none" stroke="#9a32cd" stroke-dasharray="5,2" d="M589.322,-342.289C589.322,-298.326 589.322,-189.759 589.322,-157.915"/>
<polygon fill="#9a32cd" stroke="#9a32cd" points="585.822,-342.427 589.322,-352.427 592.822,-342.427 585.822,-342.427"/>
<text text-anchor="middle" x="611.822" y="-264" font-family="Helvetica,sans-Serif" font-size="10.00"> tileHeight</text>
<text text-anchor="middle" x="611.822" y="-253" font-family="Helvetica,sans-Serif" font-size="10.00">rows</text>
<text text-anchor="middle" x="611.822" y="-242" font-family="Helvetica,sans-Serif" font-size="10.00">tileWidth</text>
<text text-anchor="middle" x="611.822" y="-231" font-family="Helvetica,sans-Serif" font-size="10.00">columns</text>
</g>
<!-- Node10&#45;&gt;Node7 -->
<g id="edge10" class="edge"><title>Node10&#45;&gt;Node7</title>
<path fill="none" stroke="#9a32cd" stroke-dasharray="5,2" d="M564.565,-356.416C549.474,-352.565 530.601,-345.74 517.322,-334 500.79,-319.384 511.773,-303.505 494.322,-290 450.396,-256.006 381.919,-250.8 347.534,-250.51"/>
<polygon fill="#9a32cd" stroke="#9a32cd" points="564.226,-359.927 574.752,-358.721 565.772,-353.1 564.226,-359.927"/>
<text text-anchor="middle" x="546.322" y="-326" font-family="Helvetica,sans-Serif" font-size="10.00"> width</text>
<text text-anchor="middle" x="546.322" y="-315" font-family="Helvetica,sans-Serif" font-size="10.00">currentFrame</text>
<text text-anchor="middle" x="546.322" y="-304" font-family="Helvetica,sans-Serif" font-size="10.00">height</text>
<text text-anchor="middle" x="546.322" y="-293" font-family="Helvetica,sans-Serif" font-size="10.00">frameCount</text>
</g>
<!-- Node11 -->
<g id="node11" class="node"><title>Node11</title>
<polygon fill="white" stroke="#bfbfbf" points="229.322,-352.5 229.322,-371.5 367.322,-371.5 367.322,-352.5 229.322,-352.5"/>
<text text-anchor="middle" x="298.322" y="-359.5" font-family="Helvetica,sans-Serif" font-size="10.00">shared_ptr&lt; SDL_Texture &gt;</text>
</g>
<!-- Node11&#45;&gt;Node7 -->
<g id="edge11" class="edge"><title>Node11&#45;&gt;Node7</title>
<path fill="none" stroke="#9a32cd" stroke-dasharray="5,2" d="M295.654,-342.189C294.276,-327.594 293.865,-307.046 299.322,-290 303.038,-278.392 311.481,-267.171 317.944,-259.769"/>
<polygon fill="#9a32cd" stroke="#9a32cd" points="292.217,-342.92 296.873,-352.437 299.168,-342.093 292.217,-342.92"/>
<text text-anchor="middle" x="316.322" y="-309.5" font-family="Helvetica,sans-Serif" font-size="10.00"> texture</text>
</g>
<!-- Node12 -->
<g id="node12" class="node"><title>Node12</title>
<polygon fill="white" stroke="#bfbfbf" points="385.322,-352.5 385.322,-371.5 475.322,-371.5 475.322,-352.5 385.322,-352.5"/>
<text text-anchor="middle" x="430.322" y="-359.5" font-family="Helvetica,sans-Serif" font-size="10.00">SDL_BlendMode</text>
</g>
<!-- Node12&#45;&gt;Node7 -->
<g id="edge12" class="edge"><title>Node12&#45;&gt;Node7</title>
<path fill="none" stroke="#9a32cd" stroke-dasharray="5,2" d="M378.028,-348.548C370.035,-344.872 362.429,-340.126 356.322,-334 345.504,-323.149 333.278,-278.594 328.447,-259.62"/>
<polygon fill="#9a32cd" stroke="#9a32cd" points="376.938,-351.883 387.52,-352.389 379.563,-345.394 376.938,-351.883"/>
<text text-anchor="middle" x="381.822" y="-309.5" font-family="Helvetica,sans-Serif" font-size="10.00"> blendMode</text>
</g>
<!-- Node13&#45;&gt;Node7 -->
<g id="edge13" class="edge"><title>Node13&#45;&gt;Node7</title>
<path fill="none" stroke="#9a32cd" stroke-dasharray="5,2" d="M483.612,-351.621C460.237,-344.197 431.417,-334.926 430.322,-334 413.471,-319.754 423.18,-305.344 407.322,-290 390.385,-273.612 365.247,-262.988 347.475,-257.03"/>
<polygon fill="#9a32cd" stroke="#9a32cd" points="482.609,-354.974 493.199,-354.659 484.724,-348.302 482.609,-354.974"/>
<text text-anchor="middle" x="462.322" y="-309.5" font-family="Helvetica,sans-Serif" font-size="10.00"> colorMultiplier</text>
</g>
<!-- Node14 -->
<g id="node14" class="node"><title>Node14</title>
<polygon fill="white" stroke="#bfbfbf" points="690.322,-138.5 690.322,-157.5 762.322,-157.5 762.322,-138.5 690.322,-138.5"/>
<text text-anchor="middle" x="726.322" y="-145.5" font-family="Helvetica,sans-Serif" font-size="10.00">vector&lt; int &gt;</text>
</g>
<!-- Node14&#45;&gt;Node5 -->
<g id="edge16" class="edge"><title>Node14&#45;&gt;Node5</title>
<path fill="none" stroke="#9a32cd" stroke-dasharray="5,2" d="M715.918,-129.574C708.045,-116.386 697.57,-98.8416 691.426,-88.5494"/>
<polygon fill="#9a32cd" stroke="#9a32cd" points="712.961,-131.449 721.092,-138.241 718.971,-127.861 712.961,-131.449"/>
<text text-anchor="middle" x="730.822" y="-111.5" font-family="Helvetica,sans-Serif" font-size="10.00"> tileMatrix</text>
</g>
<!-- Node15 -->
<g id="node15" class="node"><title>Node15</title>
<polygon fill="white" stroke="#bfbfbf" points="780.822,-138.5 780.822,-157.5 903.822,-157.5 903.822,-138.5 780.822,-138.5"/>
<text text-anchor="middle" x="842.322" y="-145.5" font-family="Helvetica,sans-Serif" font-size="10.00">vector&lt; GameObject * &gt;</text>
</g>
<!-- Node15&#45;&gt;Node5 -->
<g id="edge17" class="edge"><title>Node15&#45;&gt;Node5</title>
<path fill="none" stroke="#9a32cd" stroke-dasharray="5,2" d="M811.002,-134.636C800.238,-130.217 788.17,-125.071 777.322,-120 766.877,-115.117 764.774,-112.867 754.322,-108 739.275,-100.994 721.975,-93.8835 708.59,-88.5807"/>
<polygon fill="#9a32cd" stroke="#9a32cd" points="809.866,-137.952 820.449,-138.468 812.498,-131.466 809.866,-137.952"/>
<text text-anchor="middle" x="818.822" y="-111.5" font-family="Helvetica,sans-Serif" font-size="10.00"> gameObjectMatrix</text>
</g>
<!-- Node16 -->
<g id="node16" class="node"><title>Node16</title>
<polygon fill="white" stroke="#bfbfbf" points="936.822,-138.5 936.822,-157.5 971.822,-157.5 971.822,-138.5 936.822,-138.5"/>
<text text-anchor="middle" x="954.322" y="-145.5" font-family="Helvetica,sans-Serif" font-size="10.00">bool</text>
</g>
<!-- Node16&#45;&gt;Node1 -->
<g id="edge20" class="edge"><title>Node16&#45;&gt;Node1</title>
<path fill="none" stroke="#9a32cd" stroke-dasharray="5,2" d="M969.387,-129.846C973.881,-122.632 976.411,-114.437 971.322,-108 925.158,-49.6077 692.849,-22.6822 600.378,-14.1529"/>
<polygon fill="#9a32cd" stroke="#9a32cd" points="966.279,-128.157 963.07,-138.255 971.875,-132.362 966.279,-128.157"/>
<text text-anchor="middle" x="976.822" y="-82" font-family="Helvetica,sans-Serif" font-size="10.00"> dragOnHold</text>
<text text-anchor="middle" x="976.822" y="-71" font-family="Helvetica,sans-Serif" font-size="10.00">redrag</text>
</g>
<!-- Node16&#45;&gt;Node5 -->
<g id="edge19" class="edge"><title>Node16&#45;&gt;Node5</title>
<path fill="none" stroke="#9a32cd" stroke-dasharray="5,2" d="M927.024,-137.472C913.694,-132.604 897.51,-126.372 883.322,-120 872.804,-115.276 871.266,-111.629 860.322,-108 809.354,-91.0973 746.492,-84.2105 711.998,-81.5507"/>
<polygon fill="#9a32cd" stroke="#9a32cd" points="925.986,-140.818 936.581,-140.908 928.355,-134.231 925.986,-140.818"/>
<text text-anchor="middle" x="927.322" y="-111.5" font-family="Helvetica,sans-Serif" font-size="10.00"> displayCollisionInfo</text>
</g>
</g>
</svg>
