<?xml version="1.0" encoding="UTF-8" standalone="no"?>
<!DOCTYPE svg PUBLIC "-//W3C//DTD SVG 1.1//EN"
 "http://www.w3.org/Graphics/SVG/1.1/DTD/svg11.dtd">
<!-- Generated by graphviz version 2.38.0 (20140413.2041)
 -->
<!-- Title: TileMap Pages: 1 -->
<svg width="670pt" height="397pt"
 viewBox="0.00 0.00 669.81 397.00" xmlns="http://www.w3.org/2000/svg" xmlns:xlink="http://www.w3.org/1999/xlink">
<g id="graph0" class="graph" transform="scale(1 1) rotate(0) translate(4 393)">
<title>TileMap</title>
<polygon fill="white" stroke="none" points="-4,4 -4,-393 665.807,-393 665.807,4 -4,4"/>
<!-- Node1 -->
<g id="node1" class="node"><title>Node1</title>
<polygon fill="#bfbfbf" stroke="black" points="109.307,-0.5 109.307,-19.5 160.307,-19.5 160.307,-0.5 109.307,-0.5"/>
<text text-anchor="middle" x="134.807" y="-7.5" font-family="Helvetica,sans-Serif" font-size="10.00">TileMap</text>
</g>
<!-- Node2 -->
<g id="node2" class="node"><title>Node2</title>
<g id="a_node2"><a xlink:href="classTileSet.html" target="_top" xlink:title="Classe responsável por modelar um tileset. ">
<polygon fill="white" stroke="black" points="33.3066,-67.5 33.3066,-86.5 80.3066,-86.5 80.3066,-67.5 33.3066,-67.5"/>
<text text-anchor="middle" x="56.8066" y="-74.5" font-family="Helvetica,sans-Serif" font-size="10.00">TileSet</text>
</a>
</g>
</g>
<!-- Node2&#45;&gt;Node1 -->
<g id="edge1" class="edge"><title>Node2&#45;&gt;Node1</title>
<path fill="none" stroke="#9a32cd" stroke-dasharray="5,2" d="M73.9244,-60.4041C81.7162,-53.4273 91.1198,-45.1755 99.8066,-38 107.498,-31.6463 116.404,-24.783 123.307,-19.5661"/>
<polygon fill="#9a32cd" stroke="#9a32cd" points="71.292,-58.0652 66.2124,-67.3629 75.9815,-63.2622 71.292,-58.0652"/>
<text text-anchor="middle" x="115.307" y="-41" font-family="Helvetica,sans-Serif" font-size="10.00"> tileSet</text>
</g>
<!-- Node3 -->
<g id="node3" class="node"><title>Node3</title>
<g id="a_node3"><a xlink:href="classSprite.html" target="_top" xlink:title="Classe que modela uma sprite. ">
<polygon fill="white" stroke="black" points="258.807,-168.5 258.807,-187.5 300.807,-187.5 300.807,-168.5 258.807,-168.5"/>
<text text-anchor="middle" x="279.807" y="-175.5" font-family="Helvetica,sans-Serif" font-size="10.00">Sprite</text>
</a>
</g>
</g>
<!-- Node3&#45;&gt;Node2 -->
<g id="edge2" class="edge"><title>Node3&#45;&gt;Node2</title>
<path fill="none" stroke="#9a32cd" stroke-dasharray="5,2" d="M251.254,-164.324C205.097,-143.833 115.302,-103.969 76.0026,-86.522"/>
<polygon fill="#9a32cd" stroke="#9a32cd" points="249.847,-167.529 260.407,-168.388 252.687,-161.131 249.847,-167.529"/>
<text text-anchor="middle" x="204.307" y="-119" font-family="Helvetica,sans-Serif" font-size="10.00"> tileSet</text>
</g>
<!-- Node4 -->
<g id="node4" class="node"><title>Node4</title>
<polygon fill="white" stroke="#bfbfbf" points="532.307,-369.5 532.307,-388.5 609.307,-388.5 609.307,-369.5 532.307,-369.5"/>
<text text-anchor="middle" x="570.807" y="-376.5" font-family="Helvetica,sans-Serif" font-size="10.00">unsigned char</text>
</g>
<!-- Node4&#45;&gt;Node3 -->
<g id="edge3" class="edge"><title>Node4&#45;&gt;Node3</title>
<path fill="none" stroke="#9a32cd" stroke-dasharray="5,2" d="M566.116,-359.144C556.508,-324.809 531.128,-252.462 480.807,-218 451.625,-198.015 346.355,-185.534 300.923,-180.967"/>
<polygon fill="#9a32cd" stroke="#9a32cd" points="562.841,-360.449 568.783,-369.221 569.608,-358.658 562.841,-360.449"/>
<text text-anchor="middle" x="558.307" y="-287.5" font-family="Helvetica,sans-Serif" font-size="10.00"> alpha</text>
</g>
<!-- Node10 -->
<g id="node10" class="node"><title>Node10</title>
<g id="a_node10"><a xlink:href="structColor.html" target="_top" xlink:title="Struct para armazenar informações de cor. ">
<polygon fill="white" stroke="black" points="591.807,-280.5 591.807,-299.5 631.807,-299.5 631.807,-280.5 591.807,-280.5"/>
<text text-anchor="middle" x="611.807" y="-287.5" font-family="Helvetica,sans-Serif" font-size="10.00">Color</text>
</a>
</g>
</g>
<!-- Node4&#45;&gt;Node10 -->
<g id="edge10" class="edge"><title>Node4&#45;&gt;Node10</title>
<path fill="none" stroke="#9a32cd" stroke-dasharray="5,2" d="M579.181,-360.23C587.879,-341.774 601.122,-313.672 607.742,-299.625"/>
<polygon fill="#9a32cd" stroke="#9a32cd" points="575.985,-358.802 574.888,-369.34 582.317,-361.786 575.985,-358.802"/>
<text text-anchor="middle" x="602.307" y="-343" font-family="Helvetica,sans-Serif" font-size="10.00"> g</text>
<text text-anchor="middle" x="602.307" y="-332" font-family="Helvetica,sans-Serif" font-size="10.00">r</text>
<text text-anchor="middle" x="602.307" y="-321" font-family="Helvetica,sans-Serif" font-size="10.00">b</text>
</g>
<!-- Node5 -->
<g id="node5" class="node"><title>Node5</title>
<polygon fill="white" stroke="#bfbfbf" points="131.307,-280.5 131.307,-299.5 166.307,-299.5 166.307,-280.5 131.307,-280.5"/>
<text text-anchor="middle" x="148.807" y="-287.5" font-family="Helvetica,sans-Serif" font-size="10.00">float</text>
</g>
<!-- Node5&#45;&gt;Node3 -->
<g id="edge4" class="edge"><title>Node5&#45;&gt;Node3</title>
<path fill="none" stroke="#9a32cd" stroke-dasharray="5,2" d="M150.665,-270.147C153.173,-254.315 159.053,-232.082 172.807,-218 196.016,-194.237 234.844,-184.867 258.796,-181.233"/>
<polygon fill="#9a32cd" stroke="#9a32cd" points="147.158,-269.975 149.369,-280.337 154.102,-270.858 147.158,-269.975"/>
<text text-anchor="middle" x="200.307" y="-254" font-family="Helvetica,sans-Serif" font-size="10.00"> scaleY</text>
<text text-anchor="middle" x="200.307" y="-243" font-family="Helvetica,sans-Serif" font-size="10.00">frameTime</text>
<text text-anchor="middle" x="200.307" y="-232" font-family="Helvetica,sans-Serif" font-size="10.00">timeElapsed</text>
<text text-anchor="middle" x="200.307" y="-221" font-family="Helvetica,sans-Serif" font-size="10.00">scaleX</text>
</g>
<!-- Node6 -->
<g id="node6" class="node"><title>Node6</title>
<polygon fill="white" stroke="#bfbfbf" points="184.807,-280.5 184.807,-299.5 246.807,-299.5 246.807,-280.5 184.807,-280.5"/>
<text text-anchor="middle" x="215.807" y="-287.5" font-family="Helvetica,sans-Serif" font-size="10.00">SDL_Rect</text>
</g>
<!-- Node6&#45;&gt;Node3 -->
<g id="edge5" class="edge"><title>Node6&#45;&gt;Node3</title>
<path fill="none" stroke="#9a32cd" stroke-dasharray="5,2" d="M225.893,-271.431C234.164,-257.047 246.197,-236.179 256.807,-218 262.908,-207.545 269.992,-195.555 274.668,-187.661"/>
<polygon fill="#9a32cd" stroke="#9a32cd" points="222.778,-269.826 220.83,-280.241 228.847,-273.314 222.778,-269.826"/>
<text text-anchor="middle" x="276.807" y="-237.5" font-family="Helvetica,sans-Serif" font-size="10.00"> clipRect</text>
</g>
<!-- Node7 -->
<g id="node7" class="node"><title>Node7</title>
<polygon fill="white" stroke="#bfbfbf" points="42.3066,-280.5 42.3066,-299.5 71.3066,-299.5 71.3066,-280.5 42.3066,-280.5"/>
<text text-anchor="middle" x="56.8066" y="-287.5" font-family="Helvetica,sans-Serif" font-size="10.00">int</text>
</g>
<!-- Node7&#45;&gt;Node1 -->
<g id="edge14" class="edge"><title>Node7&#45;&gt;Node1</title>
<path fill="none" stroke="#9a32cd" stroke-dasharray="5,2" d="M45.4134,-271.471C25.6597,-238.892 -11.4417,-166.711 3.80659,-105 8.3847,-86.472 10.1955,-80.3785 23.8066,-67 48.1282,-43.094 84.71,-27.3654 109.154,-18.8265"/>
<polygon fill="#9a32cd" stroke="#9a32cd" points="42.6382,-273.634 50.9097,-280.255 48.5723,-269.921 42.6382,-273.634"/>
<text text-anchor="middle" x="28.3066" y="-130" font-family="Helvetica,sans-Serif" font-size="10.00"> mapDepth</text>
<text text-anchor="middle" x="28.3066" y="-119" font-family="Helvetica,sans-Serif" font-size="10.00">mapHeight</text>
<text text-anchor="middle" x="28.3066" y="-108" font-family="Helvetica,sans-Serif" font-size="10.00">mapWidth</text>
</g>
<!-- Node7&#45;&gt;Node2 -->
<g id="edge11" class="edge"><title>Node7&#45;&gt;Node2</title>
<path fill="none" stroke="#9a32cd" stroke-dasharray="5,2" d="M56.8066,-270.378C56.8066,-226.622 56.8066,-118.567 56.8066,-86.873"/>
<polygon fill="#9a32cd" stroke="#9a32cd" points="53.3067,-270.467 56.8066,-280.467 60.3067,-270.467 53.3067,-270.467"/>
<text text-anchor="middle" x="79.3066" y="-192" font-family="Helvetica,sans-Serif" font-size="10.00"> tileHeight</text>
<text text-anchor="middle" x="79.3066" y="-181" font-family="Helvetica,sans-Serif" font-size="10.00">rows</text>
<text text-anchor="middle" x="79.3066" y="-170" font-family="Helvetica,sans-Serif" font-size="10.00">tileWidth</text>
<text text-anchor="middle" x="79.3066" y="-159" font-family="Helvetica,sans-Serif" font-size="10.00">columns</text>
</g>
<!-- Node7&#45;&gt;Node3 -->
<g id="edge6" class="edge"><title>Node7&#45;&gt;Node3</title>
<path fill="none" stroke="#9a32cd" stroke-dasharray="5,2" d="M64.4016,-271.068C72.9597,-251.223 86.2691,-221.55 90.8066,-218 116.865,-197.615 215.207,-185.471 258.791,-180.985"/>
<polygon fill="#9a32cd" stroke="#9a32cd" points="61.1421,-269.789 60.431,-280.36 67.579,-272.54 61.1421,-269.789"/>
<text text-anchor="middle" x="119.807" y="-254" font-family="Helvetica,sans-Serif" font-size="10.00"> width</text>
<text text-anchor="middle" x="119.807" y="-243" font-family="Helvetica,sans-Serif" font-size="10.00">currentFrame</text>
<text text-anchor="middle" x="119.807" y="-232" font-family="Helvetica,sans-Serif" font-size="10.00">height</text>
<text text-anchor="middle" x="119.807" y="-221" font-family="Helvetica,sans-Serif" font-size="10.00">frameCount</text>
</g>
<!-- Node8 -->
<g id="node8" class="node"><title>Node8</title>
<polygon fill="white" stroke="#bfbfbf" points="264.807,-280.5 264.807,-299.5 402.807,-299.5 402.807,-280.5 264.807,-280.5"/>
<text text-anchor="middle" x="333.807" y="-287.5" font-family="Helvetica,sans-Serif" font-size="10.00">shared_ptr&lt; SDL_Texture &gt;</text>
</g>
<!-- Node8&#45;&gt;Node3 -->
<g id="edge7" class="edge"><title>Node8&#45;&gt;Node3</title>
<path fill="none" stroke="#9a32cd" stroke-dasharray="5,2" d="M325.127,-271.32C313.37,-247.37 292.839,-205.548 284.024,-187.591"/>
<polygon fill="#9a32cd" stroke="#9a32cd" points="322.021,-272.934 329.569,-280.368 328.304,-269.849 322.021,-272.934"/>
<text text-anchor="middle" x="336.807" y="-237.5" font-family="Helvetica,sans-Serif" font-size="10.00"> texture</text>
</g>
<!-- Node9 -->
<g id="node9" class="node"><title>Node9</title>
<polygon fill="white" stroke="#bfbfbf" points="420.807,-280.5 420.807,-299.5 510.807,-299.5 510.807,-280.5 420.807,-280.5"/>
<text text-anchor="middle" x="465.807" y="-287.5" font-family="Helvetica,sans-Serif" font-size="10.00">SDL_BlendMode</text>
</g>
<!-- Node9&#45;&gt;Node3 -->
<g id="edge8" class="edge"><title>Node9&#45;&gt;Node3</title>
<path fill="none" stroke="#9a32cd" stroke-dasharray="5,2" d="M445.507,-274.616C424.134,-259.72 389.281,-236.13 357.807,-218 337.997,-206.589 314.419,-195.071 298.41,-187.542"/>
<polygon fill="#9a32cd" stroke="#9a32cd" points="443.596,-277.551 453.793,-280.427 447.615,-271.82 443.596,-277.551"/>
<text text-anchor="middle" x="451.307" y="-237.5" font-family="Helvetica,sans-Serif" font-size="10.00"> blendMode</text>
</g>
<!-- Node10&#45;&gt;Node3 -->
<g id="edge9" class="edge"><title>Node10&#45;&gt;Node3</title>
<path fill="none" stroke="#9a32cd" stroke-dasharray="5,2" d="M604.031,-270.99C595.831,-254.33 581.253,-230.337 560.807,-218 516.949,-191.537 358.856,-182.33 301.113,-179.808"/>
<polygon fill="#9a32cd" stroke="#9a32cd" points="600.936,-272.637 608.308,-280.246 607.291,-269.7 600.936,-272.637"/>
<text text-anchor="middle" x="629.807" y="-237.5" font-family="Helvetica,sans-Serif" font-size="10.00"> colorMultiplier</text>
</g>
<!-- Node11 -->
<g id="node11" class="node"><title>Node11</title>
<polygon fill="white" stroke="#bfbfbf" points="98.8066,-67.5 98.8066,-86.5 170.807,-86.5 170.807,-67.5 98.8066,-67.5"/>
<text text-anchor="middle" x="134.807" y="-74.5" font-family="Helvetica,sans-Serif" font-size="10.00">vector&lt; int &gt;</text>
</g>
<!-- Node11&#45;&gt;Node1 -->
<g id="edge12" class="edge"><title>Node11&#45;&gt;Node1</title>
<path fill="none" stroke="#9a32cd" stroke-dasharray="5,2" d="M134.807,-57.037C134.807,-44.6703 134.807,-29.1198 134.807,-19.6273"/>
<polygon fill="#9a32cd" stroke="#9a32cd" points="131.307,-57.2338 134.807,-67.2338 138.307,-57.2338 131.307,-57.2338"/>
<text text-anchor="middle" x="156.307" y="-41" font-family="Helvetica,sans-Serif" font-size="10.00"> tileMatrix</text>
</g>
<!-- Node12 -->
<g id="node12" class="node"><title>Node12</title>
<polygon fill="white" stroke="#bfbfbf" points="189.307,-67.5 189.307,-86.5 312.307,-86.5 312.307,-67.5 189.307,-67.5"/>
<text text-anchor="middle" x="250.807" y="-74.5" font-family="Helvetica,sans-Serif" font-size="10.00">vector&lt; GameObject * &gt;</text>
</g>
<!-- Node12&#45;&gt;Node1 -->
<g id="edge13" class="edge"><title>Node12&#45;&gt;Node1</title>
<path fill="none" stroke="#9a32cd" stroke-dasharray="5,2" d="M226.334,-62.2872C203.344,-49.4047 169.65,-30.5243 150.203,-19.6273"/>
<polygon fill="#9a32cd" stroke="#9a32cd" points="224.728,-65.3988 235.162,-67.2338 228.149,-59.2921 224.728,-65.3988"/>
<text text-anchor="middle" x="241.307" y="-41" font-family="Helvetica,sans-Serif" font-size="10.00"> gameObjectMatrix</text>
</g>
<!-- Node13 -->
<g id="node13" class="node"><title>Node13</title>
<polygon fill="white" stroke="#bfbfbf" points="334.307,-67.5 334.307,-86.5 369.307,-86.5 369.307,-67.5 334.307,-67.5"/>
<text text-anchor="middle" x="351.807" y="-74.5" font-family="Helvetica,sans-Serif" font-size="10.00">bool</text>
</g>
<!-- Node13&#45;&gt;Node1 -->
<g id="edge15" class="edge"><title>Node13&#45;&gt;Node1</title>
<path fill="none" stroke="#9a32cd" stroke-dasharray="5,2" d="M331.399,-61.5376C319.038,-53.4378 302.644,-43.8245 286.807,-38 244.169,-22.3194 191.358,-15.5668 160.537,-12.7939"/>
<polygon fill="#9a32cd" stroke="#9a32cd" points="329.746,-64.6449 339.99,-67.3487 333.668,-58.8468 329.746,-64.6449"/>
<text text-anchor="middle" x="353.807" y="-41" font-family="Helvetica,sans-Serif" font-size="10.00"> displayCollisionInfo</text>
</g>
</g>
</svg>
