<?xml version="1.0" encoding="UTF-8" standalone="no"?>
<!DOCTYPE svg PUBLIC "-//W3C//DTD SVG 1.1//EN"
 "http://www.w3.org/Graphics/SVG/1.1/DTD/svg11.dtd">
<!-- Generated by graphviz version 2.38.0 (20140413.2041)
 -->
<!-- Title: UIimage Pages: 1 -->
<svg width="788pt" height="319pt"
 viewBox="0.00 0.00 787.50 319.00" xmlns="http://www.w3.org/2000/svg" xmlns:xlink="http://www.w3.org/1999/xlink">
<g id="graph0" class="graph" transform="scale(1 1) rotate(0) translate(4 315)">
<title>UIimage</title>
<polygon fill="white" stroke="none" points="-4,4 -4,-315 783.5,-315 783.5,4 -4,4"/>
<!-- Node3 -->
<g id="node1" class="node"><title>Node3</title>
<polygon fill="#bfbfbf" stroke="black" points="354,-0.5 354,-19.5 407,-19.5 407,-0.5 354,-0.5"/>
<text text-anchor="middle" x="380.5" y="-7.5" font-family="Helvetica,sans-Serif" font-size="10.00">UIimage</text>
</g>
<!-- Node4 -->
<g id="node2" class="node"><title>Node4</title>
<g id="a_node2"><a xlink:href="classUIelement.html" target="_top" xlink:title="UIelement">
<polygon fill="white" stroke="black" points="93.5,-67.5 93.5,-86.5 155.5,-86.5 155.5,-67.5 93.5,-67.5"/>
<text text-anchor="middle" x="124.5" y="-74.5" font-family="Helvetica,sans-Serif" font-size="10.00">UIelement</text>
</a>
</g>
</g>
<!-- Node4&#45;&gt;Node3 -->
<g id="edge1" class="edge"><title>Node4&#45;&gt;Node3</title>
<path fill="none" stroke="midnightblue" d="M165.372,-65.6223C218.289,-52.1864 309.021,-29.149 353.842,-17.7687"/>
<polygon fill="midnightblue" stroke="midnightblue" points="164.466,-62.2413 155.635,-68.0947 166.189,-69.026 164.466,-62.2413"/>
</g>
<!-- Node5 -->
<g id="node3" class="node"><title>Node5</title>
<g id="a_node3"><a xlink:href="classVec2.html" target="_top" xlink:title="Classe que modela um vetor(no sentido físico) ">
<polygon fill="white" stroke="black" points="0,-179.5 0,-198.5 39,-198.5 39,-179.5 0,-179.5"/>
<text text-anchor="middle" x="19.5" y="-186.5" font-family="Helvetica,sans-Serif" font-size="10.00">Vec2</text>
</a>
</g>
</g>
<!-- Node5&#45;&gt;Node4 -->
<g id="edge2" class="edge"><title>Node5&#45;&gt;Node4</title>
<path fill="none" stroke="#9a32cd" stroke-dasharray="5,2" d="M14.0774,-169.283C9.97909,-150.9 7.2144,-123.059 21.5,-105 30.4171,-93.7276 66.5043,-86.1874 93.4642,-82.0045"/>
<polygon fill="#9a32cd" stroke="#9a32cd" points="10.7205,-170.283 16.5932,-179.101 17.5014,-168.545 10.7205,-170.283"/>
<text text-anchor="middle" x="46" y="-124.5" font-family="Helvetica,sans-Serif" font-size="10.00"> kernelSize</text>
</g>
<!-- Node6 -->
<g id="node4" class="node"><title>Node6</title>
<polygon fill="white" stroke="#bfbfbf" points="67,-291.5 67,-310.5 102,-310.5 102,-291.5 67,-291.5"/>
<text text-anchor="middle" x="84.5" y="-298.5" font-family="Helvetica,sans-Serif" font-size="10.00">float</text>
</g>
<!-- Node6&#45;&gt;Node5 -->
<g id="edge3" class="edge"><title>Node6&#45;&gt;Node5</title>
<path fill="none" stroke="#9a32cd" stroke-dasharray="5,2" d="M74.2416,-282.64C60.1212,-258.744 35.2351,-216.629 24.5767,-198.591"/>
<polygon fill="#9a32cd" stroke="#9a32cd" points="71.299,-284.54 79.3996,-291.368 77.3255,-280.979 71.299,-284.54"/>
<text text-anchor="middle" x="72" y="-254" font-family="Helvetica,sans-Serif" font-size="10.00"> x</text>
<text text-anchor="middle" x="72" y="-243" font-family="Helvetica,sans-Serif" font-size="10.00">y</text>
</g>
<!-- Node7 -->
<g id="node5" class="node"><title>Node7</title>
<g id="a_node5"><a xlink:href="classRect.html" target="_top" xlink:title="Classe que modela um rect. ">
<polygon fill="white" stroke="black" points="65.5,-179.5 65.5,-198.5 103.5,-198.5 103.5,-179.5 65.5,-179.5"/>
<text text-anchor="middle" x="84.5" y="-186.5" font-family="Helvetica,sans-Serif" font-size="10.00">Rect</text>
</a>
</g>
</g>
<!-- Node6&#45;&gt;Node7 -->
<g id="edge5" class="edge"><title>Node6&#45;&gt;Node7</title>
<path fill="none" stroke="#9a32cd" stroke-dasharray="5,2" d="M84.5,-281.348C84.5,-257.254 84.5,-216.308 84.5,-198.591"/>
<polygon fill="#9a32cd" stroke="#9a32cd" points="81.0001,-281.368 84.5,-291.368 88.0001,-281.369 81.0001,-281.368"/>
<text text-anchor="middle" x="90" y="-265" font-family="Helvetica,sans-Serif" font-size="10.00"> w</text>
<text text-anchor="middle" x="90" y="-254" font-family="Helvetica,sans-Serif" font-size="10.00">x</text>
<text text-anchor="middle" x="90" y="-243" font-family="Helvetica,sans-Serif" font-size="10.00">h</text>
<text text-anchor="middle" x="90" y="-232" font-family="Helvetica,sans-Serif" font-size="10.00">y</text>
</g>
<!-- Node9 -->
<g id="node7" class="node"><title>Node9</title>
<g id="a_node7"><a xlink:href="classSprite.html" target="_top" xlink:title="Classe que modela uma sprite. ">
<polygon fill="white" stroke="black" points="480.5,-67.5 480.5,-86.5 522.5,-86.5 522.5,-67.5 480.5,-67.5"/>
<text text-anchor="middle" x="501.5" y="-74.5" font-family="Helvetica,sans-Serif" font-size="10.00">Sprite</text>
</a>
</g>
</g>
<!-- Node6&#45;&gt;Node9 -->
<g id="edge8" class="edge"><title>Node6&#45;&gt;Node9</title>
<path fill="none" stroke="#9a32cd" stroke-dasharray="5,2" d="M112.666,-297.464C193.442,-289.612 423.366,-263.046 474.5,-211 508.846,-176.042 505.204,-110.09 502.631,-86.5869"/>
<polygon fill="#9a32cd" stroke="#9a32cd" points="111.916,-294.019 102.292,-298.448 112.578,-300.988 111.916,-294.019"/>
<text text-anchor="middle" x="526" y="-203" font-family="Helvetica,sans-Serif" font-size="10.00"> scaleY</text>
<text text-anchor="middle" x="526" y="-192" font-family="Helvetica,sans-Serif" font-size="10.00">frameTime</text>
<text text-anchor="middle" x="526" y="-181" font-family="Helvetica,sans-Serif" font-size="10.00">timeElapsed</text>
<text text-anchor="middle" x="526" y="-170" font-family="Helvetica,sans-Serif" font-size="10.00">scaleX</text>
</g>
<!-- Node7&#45;&gt;Node4 -->
<g id="edge4" class="edge"><title>Node7&#45;&gt;Node4</title>
<path fill="none" stroke="#9a32cd" stroke-dasharray="5,2" d="M78.686,-169.646C74.2112,-151.94 70.4647,-124.96 81.5,-105 86.0211,-96.8228 94.1704,-90.7882 102.168,-86.5239"/>
<polygon fill="#9a32cd" stroke="#9a32cd" points="75.3373,-170.666 81.4408,-179.326 82.07,-168.75 75.3373,-170.666"/>
<text text-anchor="middle" x="110" y="-141" font-family="Helvetica,sans-Serif" font-size="10.00"> offsets</text>
<text text-anchor="middle" x="110" y="-130" font-family="Helvetica,sans-Serif" font-size="10.00">box</text>
<text text-anchor="middle" x="110" y="-119" font-family="Helvetica,sans-Serif" font-size="10.00">anchors</text>
<text text-anchor="middle" x="110" y="-108" font-family="Helvetica,sans-Serif" font-size="10.00">boundingBox</text>
</g>
<!-- Node8 -->
<g id="node6" class="node"><title>Node8</title>
<polygon fill="white" stroke="#bfbfbf" points="124,-179.5 124,-198.5 201,-198.5 201,-179.5 124,-179.5"/>
<text text-anchor="middle" x="162.5" y="-186.5" font-family="Helvetica,sans-Serif" font-size="10.00">BehaviorType</text>
</g>
<!-- Node8&#45;&gt;Node4 -->
<g id="edge6" class="edge"><title>Node8&#45;&gt;Node4</title>
<path fill="none" stroke="#9a32cd" stroke-dasharray="5,2" d="M159.881,-169.057C157.051,-151.827 151.668,-125.965 142.5,-105 139.611,-98.393 135.111,-91.643 131.333,-86.5447"/>
<polygon fill="#9a32cd" stroke="#9a32cd" points="156.495,-170.073 161.447,-179.439 163.417,-169.029 156.495,-170.073"/>
<text text-anchor="middle" x="176.5" y="-124.5" font-family="Helvetica,sans-Serif" font-size="10.00"> behavior</text>
</g>
<!-- Node9&#45;&gt;Node3 -->
<g id="edge7" class="edge"><title>Node9&#45;&gt;Node3</title>
<path fill="none" stroke="#9a32cd" stroke-dasharray="5,2" d="M476.292,-62.4586C452.304,-49.5727 416.935,-30.5727 396.56,-19.6273"/>
<polygon fill="#9a32cd" stroke="#9a32cd" points="474.716,-65.5847 485.181,-67.2338 478.028,-59.4182 474.716,-65.5847"/>
<text text-anchor="middle" x="455.5" y="-41" font-family="Helvetica,sans-Serif" font-size="10.00"> sp</text>
</g>
<!-- Node10 -->
<g id="node8" class="node"><title>Node10</title>
<polygon fill="white" stroke="#bfbfbf" points="632.5,-179.5 632.5,-198.5 694.5,-198.5 694.5,-179.5 632.5,-179.5"/>
<text text-anchor="middle" x="663.5" y="-186.5" font-family="Helvetica,sans-Serif" font-size="10.00">SDL_Rect</text>
</g>
<!-- Node10&#45;&gt;Node9 -->
<g id="edge9" class="edge"><title>Node10&#45;&gt;Node9</title>
<path fill="none" stroke="#9a32cd" stroke-dasharray="5,2" d="M660.303,-169.519C656.005,-150.431 646.463,-121.213 626.5,-105 596.512,-80.6461 549.542,-76.925 522.529,-77.0398"/>
<polygon fill="#9a32cd" stroke="#9a32cd" points="656.886,-170.285 662.267,-179.412 663.753,-168.922 656.886,-170.285"/>
<text text-anchor="middle" x="673.5" y="-124.5" font-family="Helvetica,sans-Serif" font-size="10.00"> clipRect</text>
</g>
<!-- Node11 -->
<g id="node9" class="node"><title>Node11</title>
<polygon fill="white" stroke="#bfbfbf" points="713,-179.5 713,-198.5 742,-198.5 742,-179.5 713,-179.5"/>
<text text-anchor="middle" x="727.5" y="-186.5" font-family="Helvetica,sans-Serif" font-size="10.00">int</text>
</g>
<!-- Node11&#45;&gt;Node9 -->
<g id="edge10" class="edge"><title>Node11&#45;&gt;Node9</title>
<path fill="none" stroke="#9a32cd" stroke-dasharray="5,2" d="M726.185,-169.321C723.768,-150.068 716.914,-120.713 697.5,-105 671.001,-83.5522 567.755,-79.132 522.712,-78.2284"/>
<polygon fill="#9a32cd" stroke="#9a32cd" points="722.705,-169.696 727.158,-179.31 729.672,-169.018 722.705,-169.696"/>
<text text-anchor="middle" x="750.5" y="-141" font-family="Helvetica,sans-Serif" font-size="10.00"> width</text>
<text text-anchor="middle" x="750.5" y="-130" font-family="Helvetica,sans-Serif" font-size="10.00">currentFrame</text>
<text text-anchor="middle" x="750.5" y="-119" font-family="Helvetica,sans-Serif" font-size="10.00">height</text>
<text text-anchor="middle" x="750.5" y="-108" font-family="Helvetica,sans-Serif" font-size="10.00">frameCount</text>
</g>
<!-- Node12 -->
<g id="node10" class="node"><title>Node12</title>
<polygon fill="white" stroke="#bfbfbf" points="219.5,-179.5 219.5,-198.5 357.5,-198.5 357.5,-179.5 219.5,-179.5"/>
<text text-anchor="middle" x="288.5" y="-186.5" font-family="Helvetica,sans-Serif" font-size="10.00">shared_ptr&lt; SDL_Texture &gt;</text>
</g>
<!-- Node12&#45;&gt;Node9 -->
<g id="edge11" class="edge"><title>Node12&#45;&gt;Node9</title>
<path fill="none" stroke="#9a32cd" stroke-dasharray="5,2" d="M302.313,-171.602C319.238,-152.606 349.731,-121.779 382.5,-105 414.179,-88.7794 455.529,-82.2204 480.213,-79.6278"/>
<polygon fill="#9a32cd" stroke="#9a32cd" points="299.45,-169.56 295.531,-179.404 304.733,-174.152 299.45,-169.56"/>
<text text-anchor="middle" x="399.5" y="-124.5" font-family="Helvetica,sans-Serif" font-size="10.00"> texture</text>
</g>
<!-- Node13 -->
<g id="node11" class="node"><title>Node13</title>
<polygon fill="white" stroke="#bfbfbf" points="375.5,-179.5 375.5,-198.5 465.5,-198.5 465.5,-179.5 375.5,-179.5"/>
<text text-anchor="middle" x="420.5" y="-186.5" font-family="Helvetica,sans-Serif" font-size="10.00">SDL_BlendMode</text>
</g>
<!-- Node13&#45;&gt;Node9 -->
<g id="edge12" class="edge"><title>Node13&#45;&gt;Node9</title>
<path fill="none" stroke="#9a32cd" stroke-dasharray="5,2" d="M419.302,-169.072C419.158,-150.725 421.76,-123.088 436.5,-105 447.307,-91.7384 465.734,-84.9067 480.214,-81.4384"/>
<polygon fill="#9a32cd" stroke="#9a32cd" points="415.806,-169.259 419.663,-179.127 422.802,-169.008 415.806,-169.259"/>
<text text-anchor="middle" x="462" y="-124.5" font-family="Helvetica,sans-Serif" font-size="10.00"> blendMode</text>
</g>
<!-- Node14 -->
<g id="node12" class="node"><title>Node14</title>
<g id="a_node12"><a xlink:href="structColor.html" target="_top" xlink:title="Struct para armazenar informações de cor. ">
<polygon fill="white" stroke="black" points="574.5,-179.5 574.5,-198.5 614.5,-198.5 614.5,-179.5 574.5,-179.5"/>
<text text-anchor="middle" x="594.5" y="-186.5" font-family="Helvetica,sans-Serif" font-size="10.00">Color</text>
</a>
</g>
</g>
<!-- Node14&#45;&gt;Node9 -->
<g id="edge13" class="edge"><title>Node14&#45;&gt;Node9</title>
<path fill="none" stroke="#9a32cd" stroke-dasharray="5,2" d="M580.622,-171.586C560.573,-147.871 524.217,-104.869 508.764,-86.5914"/>
<polygon fill="#9a32cd" stroke="#9a32cd" points="578.073,-173.992 587.202,-179.368 583.419,-169.472 578.073,-173.992"/>
<text text-anchor="middle" x="590.5" y="-124.5" font-family="Helvetica,sans-Serif" font-size="10.00"> colorMultiplier</text>
</g>
<!-- Node15 -->
<g id="node13" class="node"><title>Node15</title>
<polygon fill="white" stroke="#bfbfbf" points="556,-291.5 556,-310.5 633,-310.5 633,-291.5 556,-291.5"/>
<text text-anchor="middle" x="594.5" y="-298.5" font-family="Helvetica,sans-Serif" font-size="10.00">unsigned char</text>
</g>
<!-- Node15&#45;&gt;Node14 -->
<g id="edge14" class="edge"><title>Node15&#45;&gt;Node14</title>
<path fill="none" stroke="#9a32cd" stroke-dasharray="5,2" d="M594.5,-281.348C594.5,-257.254 594.5,-216.308 594.5,-198.591"/>
<polygon fill="#9a32cd" stroke="#9a32cd" points="591,-281.368 594.5,-291.368 598,-281.369 591,-281.368"/>
<text text-anchor="middle" x="599" y="-265" font-family="Helvetica,sans-Serif" font-size="10.00"> g</text>
<text text-anchor="middle" x="599" y="-254" font-family="Helvetica,sans-Serif" font-size="10.00">a</text>
<text text-anchor="middle" x="599" y="-243" font-family="Helvetica,sans-Serif" font-size="10.00">r</text>
<text text-anchor="middle" x="599" y="-232" font-family="Helvetica,sans-Serif" font-size="10.00">b</text>
</g>
</g>
</svg>
