<?xml version="1.0" encoding="UTF-8" standalone="no"?>
<!DOCTYPE svg PUBLIC "-//W3C//DTD SVG 1.1//EN"
 "http://www.w3.org/Graphics/SVG/1.1/DTD/svg11.dtd">
<!-- Generated by graphviz version 2.38.0 (20140413.2041)
 -->
<!-- Title: TileSet Pages: 1 -->
<svg width="604pt" height="319pt"
 viewBox="0.00 0.00 603.50 319.00" xmlns="http://www.w3.org/2000/svg" xmlns:xlink="http://www.w3.org/1999/xlink">
<g id="graph0" class="graph" transform="scale(1 1) rotate(0) translate(4 315)">
<title>TileSet</title>
<polygon fill="white" stroke="none" points="-4,4 -4,-315 599.5,-315 599.5,4 -4,4"/>
<!-- Node1 -->
<g id="node1" class="node"><title>Node1</title>
<polygon fill="#bfbfbf" stroke="black" points="57,-0.5 57,-19.5 104,-19.5 104,-0.5 57,-0.5"/>
<text text-anchor="middle" x="80.5" y="-7.5" font-family="Helvetica,sans-Serif" font-size="10.00">TileSet</text>
</g>
<!-- Node2 -->
<g id="node2" class="node"><title>Node2</title>
<g id="a_node2"><a xlink:href="classSprite.html" target="_top" xlink:title="Classe que modela uma sprite. ">
<polygon fill="white" stroke="black" points="226.5,-79.5 226.5,-98.5 268.5,-98.5 268.5,-79.5 226.5,-79.5"/>
<text text-anchor="middle" x="247.5" y="-86.5" font-family="Helvetica,sans-Serif" font-size="10.00">Sprite</text>
</a>
</g>
</g>
<!-- Node2&#45;&gt;Node1 -->
<g id="edge1" class="edge"><title>Node2&#45;&gt;Node1</title>
<path fill="none" stroke="#9a32cd" stroke-dasharray="5,2" d="M219.574,-75.1241C185.365,-59.351 128.362,-33.0682 99.0929,-19.5728"/>
<polygon fill="#9a32cd" stroke="#9a32cd" points="218.443,-78.4567 228.99,-79.4655 221.374,-72.0998 218.443,-78.4567"/>
<text text-anchor="middle" x="175" y="-41" font-family="Helvetica,sans-Serif" font-size="10.00"> tileSet</text>
</g>
<!-- Node3 -->
<g id="node3" class="node"><title>Node3</title>
<polygon fill="white" stroke="#bfbfbf" points="525,-191.5 525,-210.5 560,-210.5 560,-191.5 525,-191.5"/>
<text text-anchor="middle" x="542.5" y="-198.5" font-family="Helvetica,sans-Serif" font-size="10.00">float</text>
</g>
<!-- Node3&#45;&gt;Node2 -->
<g id="edge2" class="edge"><title>Node3&#45;&gt;Node2</title>
<path fill="none" stroke="#9a32cd" stroke-dasharray="5,2" d="M542.018,-181.428C540.535,-165.082 535.658,-141.927 520.5,-129 482.614,-96.691 326.07,-91.138 268.698,-90.1915"/>
<polygon fill="#9a32cd" stroke="#9a32cd" points="538.526,-181.663 542.587,-191.448 545.514,-181.266 538.526,-181.663"/>
<text text-anchor="middle" x="568" y="-165" font-family="Helvetica,sans-Serif" font-size="10.00"> scaleY</text>
<text text-anchor="middle" x="568" y="-154" font-family="Helvetica,sans-Serif" font-size="10.00">frameTime</text>
<text text-anchor="middle" x="568" y="-143" font-family="Helvetica,sans-Serif" font-size="10.00">timeElapsed</text>
<text text-anchor="middle" x="568" y="-132" font-family="Helvetica,sans-Serif" font-size="10.00">scaleX</text>
</g>
<!-- Node4 -->
<g id="node4" class="node"><title>Node4</title>
<polygon fill="white" stroke="#bfbfbf" points="46.5,-191.5 46.5,-210.5 108.5,-210.5 108.5,-191.5 46.5,-191.5"/>
<text text-anchor="middle" x="77.5" y="-198.5" font-family="Helvetica,sans-Serif" font-size="10.00">SDL_Rect</text>
</g>
<!-- Node4&#45;&gt;Node2 -->
<g id="edge3" class="edge"><title>Node4&#45;&gt;Node2</title>
<path fill="none" stroke="#9a32cd" stroke-dasharray="5,2" d="M94.1772,-184.545C111.239,-169.229 138.939,-145.705 165.5,-129 185.116,-116.663 209.242,-105.635 226.231,-98.4803"/>
<polygon fill="#9a32cd" stroke="#9a32cd" points="91.751,-182.02 86.7078,-191.338 96.4608,-187.199 91.751,-182.02"/>
<text text-anchor="middle" x="185.5" y="-148.5" font-family="Helvetica,sans-Serif" font-size="10.00"> clipRect</text>
</g>
<!-- Node5 -->
<g id="node5" class="node"><title>Node5</title>
<polygon fill="white" stroke="#bfbfbf" points="0,-191.5 0,-210.5 29,-210.5 29,-191.5 0,-191.5"/>
<text text-anchor="middle" x="14.5" y="-198.5" font-family="Helvetica,sans-Serif" font-size="10.00">int</text>
</g>
<!-- Node5&#45;&gt;Node1 -->
<g id="edge10" class="edge"><title>Node5&#45;&gt;Node1</title>
<path fill="none" stroke="#9a32cd" stroke-dasharray="5,2" d="M17.0942,-180.913C19.3388,-166.455 23.084,-146.211 28.5,-129 41.8731,-86.5042 65.8769,-38.773 75.9031,-19.6245"/>
<polygon fill="#9a32cd" stroke="#9a32cd" points="13.5884,-180.7 15.6125,-191.1 20.5156,-181.708 13.5884,-180.7"/>
<text text-anchor="middle" x="76" y="-103" font-family="Helvetica,sans-Serif" font-size="10.00"> tileHeight</text>
<text text-anchor="middle" x="76" y="-92" font-family="Helvetica,sans-Serif" font-size="10.00">rows</text>
<text text-anchor="middle" x="76" y="-81" font-family="Helvetica,sans-Serif" font-size="10.00">tileWidth</text>
<text text-anchor="middle" x="76" y="-70" font-family="Helvetica,sans-Serif" font-size="10.00">columns</text>
</g>
<!-- Node5&#45;&gt;Node2 -->
<g id="edge4" class="edge"><title>Node5&#45;&gt;Node2</title>
<path fill="none" stroke="#9a32cd" stroke-dasharray="5,2" d="M22.1082,-182.035C30.8375,-161.594 44.244,-130.786 46.5,-129 74.2338,-107.05 180.307,-95.6592 226.168,-91.6748"/>
<polygon fill="#9a32cd" stroke="#9a32cd" points="18.8531,-180.746 18.1606,-191.318 25.2949,-183.485 18.8531,-180.746"/>
<text text-anchor="middle" x="75.5" y="-165" font-family="Helvetica,sans-Serif" font-size="10.00"> width</text>
<text text-anchor="middle" x="75.5" y="-154" font-family="Helvetica,sans-Serif" font-size="10.00">currentFrame</text>
<text text-anchor="middle" x="75.5" y="-143" font-family="Helvetica,sans-Serif" font-size="10.00">height</text>
<text text-anchor="middle" x="75.5" y="-132" font-family="Helvetica,sans-Serif" font-size="10.00">frameCount</text>
</g>
<!-- Node6 -->
<g id="node6" class="node"><title>Node6</title>
<polygon fill="white" stroke="#bfbfbf" points="126.5,-191.5 126.5,-210.5 264.5,-210.5 264.5,-191.5 126.5,-191.5"/>
<text text-anchor="middle" x="195.5" y="-198.5" font-family="Helvetica,sans-Serif" font-size="10.00">shared_ptr&lt; SDL_Texture &gt;</text>
</g>
<!-- Node6&#45;&gt;Node2 -->
<g id="edge5" class="edge"><title>Node6&#45;&gt;Node2</title>
<path fill="none" stroke="#9a32cd" stroke-dasharray="5,2" d="M203.858,-182.32C215.18,-158.37 234.95,-116.548 243.439,-98.5914"/>
<polygon fill="#9a32cd" stroke="#9a32cd" points="200.69,-180.832 199.58,-191.368 207.018,-183.824 200.69,-180.832"/>
<text text-anchor="middle" x="245.5" y="-148.5" font-family="Helvetica,sans-Serif" font-size="10.00"> texture</text>
</g>
<!-- Node7 -->
<g id="node7" class="node"><title>Node7</title>
<polygon fill="white" stroke="#bfbfbf" points="283,-191.5 283,-210.5 318,-210.5 318,-191.5 283,-191.5"/>
<text text-anchor="middle" x="300.5" y="-198.5" font-family="Helvetica,sans-Serif" font-size="10.00">bool</text>
</g>
<!-- Node7&#45;&gt;Node2 -->
<g id="edge6" class="edge"><title>Node7&#45;&gt;Node2</title>
<path fill="none" stroke="#9a32cd" stroke-dasharray="5,2" d="M291.933,-182.024C285.078,-167.662 275.206,-147.023 266.5,-129 261.455,-118.556 255.604,-106.564 251.743,-98.6662"/>
<polygon fill="#9a32cd" stroke="#9a32cd" points="288.867,-183.727 296.331,-191.247 295.186,-180.714 288.867,-183.727"/>
<text text-anchor="middle" x="317.5" y="-148.5" font-family="Helvetica,sans-Serif" font-size="10.00"> highlightable</text>
</g>
<!-- Node8 -->
<g id="node8" class="node"><title>Node8</title>
<polygon fill="white" stroke="#bfbfbf" points="336.5,-191.5 336.5,-210.5 426.5,-210.5 426.5,-191.5 336.5,-191.5"/>
<text text-anchor="middle" x="381.5" y="-198.5" font-family="Helvetica,sans-Serif" font-size="10.00">SDL_BlendMode</text>
</g>
<!-- Node8&#45;&gt;Node2 -->
<g id="edge7" class="edge"><title>Node8&#45;&gt;Node2</title>
<path fill="none" stroke="#9a32cd" stroke-dasharray="5,2" d="M377.703,-181.579C373.543,-165.702 365.384,-143.162 350.5,-129 327.644,-107.253 291.462,-97.3375 268.628,-93.0365"/>
<polygon fill="#9a32cd" stroke="#9a32cd" points="374.296,-182.38 379.978,-191.322 381.112,-180.788 374.296,-182.38"/>
<text text-anchor="middle" x="401" y="-148.5" font-family="Helvetica,sans-Serif" font-size="10.00"> blendMode</text>
</g>
<!-- Node9 -->
<g id="node9" class="node"><title>Node9</title>
<g id="a_node9"><a xlink:href="structColor.html" target="_top" xlink:title="Struct para armazenar informações de cor. ">
<polygon fill="white" stroke="black" points="444.5,-191.5 444.5,-210.5 484.5,-210.5 484.5,-191.5 444.5,-191.5"/>
<text text-anchor="middle" x="464.5" y="-198.5" font-family="Helvetica,sans-Serif" font-size="10.00">Color</text>
</a>
</g>
</g>
<!-- Node9&#45;&gt;Node2 -->
<g id="edge8" class="edge"><title>Node9&#45;&gt;Node2</title>
<path fill="none" stroke="#9a32cd" stroke-dasharray="5,2" d="M457.973,-181.976C450.867,-163.324 439.337,-135.959 430.5,-129 405.49,-109.304 311.505,-96.9064 268.824,-92.177"/>
<polygon fill="#9a32cd" stroke="#9a32cd" points="454.745,-183.337 461.506,-191.493 461.307,-180.9 454.745,-183.337"/>
<text text-anchor="middle" x="486.5" y="-148.5" font-family="Helvetica,sans-Serif" font-size="10.00"> colorMultiplier</text>
</g>
<!-- Node10 -->
<g id="node10" class="node"><title>Node10</title>
<polygon fill="white" stroke="#bfbfbf" points="426,-291.5 426,-310.5 503,-310.5 503,-291.5 426,-291.5"/>
<text text-anchor="middle" x="464.5" y="-298.5" font-family="Helvetica,sans-Serif" font-size="10.00">unsigned char</text>
</g>
<!-- Node10&#45;&gt;Node9 -->
<g id="edge9" class="edge"><title>Node10&#45;&gt;Node9</title>
<path fill="none" stroke="#9a32cd" stroke-dasharray="5,2" d="M464.5,-281.22C464.5,-259.951 464.5,-226.22 464.5,-210.537"/>
<polygon fill="#9a32cd" stroke="#9a32cd" points="461,-281.303 464.5,-291.303 468,-281.303 461,-281.303"/>
<text text-anchor="middle" x="469" y="-265" font-family="Helvetica,sans-Serif" font-size="10.00"> g</text>
<text text-anchor="middle" x="469" y="-254" font-family="Helvetica,sans-Serif" font-size="10.00">a</text>
<text text-anchor="middle" x="469" y="-243" font-family="Helvetica,sans-Serif" font-size="10.00">r</text>
<text text-anchor="middle" x="469" y="-232" font-family="Helvetica,sans-Serif" font-size="10.00">b</text>
</g>
</g>
</svg>
