<?xml version="1.0" encoding="UTF-8" standalone="no"?>
<!DOCTYPE svg PUBLIC "-//W3C//DTD SVG 1.1//EN"
 "http://www.w3.org/Graphics/SVG/1.1/DTD/svg11.dtd">
<!-- Generated by graphviz version 2.36.0 (20140111.2315)
 -->
<!-- Title: Text Pages: 1 -->
<svg width="552pt" height="206pt"
 viewBox="0.00 0.00 552.00 206.00" xmlns="http://www.w3.org/2000/svg" xmlns:xlink="http://www.w3.org/1999/xlink">
<g id="graph0" class="graph" transform="scale(1 1) rotate(0) translate(4 202)">
<title>Text</title>
<polygon fill="white" stroke="none" points="-4,4 -4,-202 548,-202 548,4 -4,4"/>
<!-- Node1 -->
<g id="node1" class="node"><title>Node1</title>
<polygon fill="#bfbfbf" stroke="black" points="303,-0.5 303,-19.5 339,-19.5 339,-0.5 303,-0.5"/>
<text text-anchor="middle" x="321" y="-7.5" font-family="Helvetica,sans-Serif" font-size="10.00">Text</text>
</g>
<!-- Node2 -->
<g id="node2" class="node"><title>Node2</title>
<polygon fill="white" stroke="#bfbfbf" points="-0.5,-78.5 -0.5,-97.5 122.5,-97.5 122.5,-78.5 -0.5,-78.5"/>
<text text-anchor="middle" x="61" y="-85.5" font-family="Helvetica,sans-Serif" font-size="10.00">shared_ptr&lt; TTF_Font &gt;</text>
</g>
<!-- Node2&#45;&gt;Node1 -->
<g id="edge1" class="edge"><title>Node2&#45;&gt;Node1</title>
<path fill="none" stroke="#9a32cd" stroke-dasharray="5,2" d="M88.9381,-74.4058C113.951,-63.5291 151.842,-48.0259 186,-38 227.052,-25.9507 276.698,-17.5511 302.849,-13.5883"/>
<polygon fill="#9a32cd" stroke="#9a32cd" points="87.4424,-71.24 79.697,-78.469 90.26,-77.6479 87.4424,-71.24"/>
<text text-anchor="middle" x="196" y="-46.5" font-family="Helvetica,sans-Serif" font-size="10.00"> font</text>
</g>
<!-- Node3 -->
<g id="node3" class="node"><title>Node3</title>
<polygon fill="white" stroke="#bfbfbf" points="140.5,-78.5 140.5,-97.5 205.5,-97.5 205.5,-78.5 140.5,-78.5"/>
<text text-anchor="middle" x="173" y="-85.5" font-family="Helvetica,sans-Serif" font-size="10.00">SDL_Color</text>
</g>
<!-- Node3&#45;&gt;Node1 -->
<g id="edge2" class="edge"><title>Node3&#45;&gt;Node1</title>
<path fill="none" stroke="#9a32cd" stroke-dasharray="5,2" d="M191.689,-72.0381C205.526,-61.4869 225.166,-47.5827 244,-38 263.191,-28.2355 286.738,-20.5478 302.703,-15.913"/>
<polygon fill="#9a32cd" stroke="#9a32cd" points="189.244,-69.5054 183.5,-78.4084 193.542,-75.0303 189.244,-69.5054"/>
<text text-anchor="middle" x="256.5" y="-46.5" font-family="Helvetica,sans-Serif" font-size="10.00"> color</text>
</g>
<!-- Node4 -->
<g id="node4" class="node"><title>Node4</title>
<g id="a_node4"><a xlink:href="classRect.html" target="_top" xlink:title="Classe que modela um rect. ">
<polygon fill="white" stroke="black" points="224,-78.5 224,-97.5 262,-97.5 262,-78.5 224,-78.5"/>
<text text-anchor="middle" x="243" y="-85.5" font-family="Helvetica,sans-Serif" font-size="10.00">Rect</text>
</a>
</g>
</g>
<!-- Node4&#45;&gt;Node1 -->
<g id="edge3" class="edge"><title>Node4&#45;&gt;Node1</title>
<path fill="none" stroke="#9a32cd" stroke-dasharray="5,2" d="M259.549,-70.875C275.62,-55.2161 299.404,-32.0422 312.157,-19.6165"/>
<polygon fill="#9a32cd" stroke="#9a32cd" points="256.667,-68.7963 251.948,-78.2818 261.552,-73.81 256.667,-68.7963"/>
<text text-anchor="middle" x="301.5" y="-46.5" font-family="Helvetica,sans-Serif" font-size="10.00"> box</text>
</g>
<!-- Node5 -->
<g id="node5" class="node"><title>Node5</title>
<polygon fill="white" stroke="#bfbfbf" points="225.5,-178.5 225.5,-197.5 260.5,-197.5 260.5,-178.5 225.5,-178.5"/>
<text text-anchor="middle" x="243" y="-185.5" font-family="Helvetica,sans-Serif" font-size="10.00">float</text>
</g>
<!-- Node5&#45;&gt;Node4 -->
<g id="edge4" class="edge"><title>Node5&#45;&gt;Node4</title>
<path fill="none" stroke="#9a32cd" stroke-dasharray="5,2" d="M243,-168.22C243,-146.951 243,-113.22 243,-97.5374"/>
<polygon fill="#9a32cd" stroke="#9a32cd" points="239.5,-168.303 243,-178.303 246.5,-168.303 239.5,-168.303"/>
<text text-anchor="middle" x="248.5" y="-152" font-family="Helvetica,sans-Serif" font-size="10.00"> w</text>
<text text-anchor="middle" x="248.5" y="-141" font-family="Helvetica,sans-Serif" font-size="10.00">x</text>
<text text-anchor="middle" x="248.5" y="-130" font-family="Helvetica,sans-Serif" font-size="10.00">h</text>
<text text-anchor="middle" x="248.5" y="-119" font-family="Helvetica,sans-Serif" font-size="10.00">y</text>
</g>
<!-- Node6 -->
<g id="node6" class="node"><title>Node6</title>
<polygon fill="white" stroke="#bfbfbf" points="280.5,-78.5 280.5,-97.5 361.5,-97.5 361.5,-78.5 280.5,-78.5"/>
<text text-anchor="middle" x="321" y="-85.5" font-family="Helvetica,sans-Serif" font-size="10.00">SDL_Texture *</text>
</g>
<!-- Node6&#45;&gt;Node1 -->
<g id="edge5" class="edge"><title>Node6&#45;&gt;Node1</title>
<path fill="none" stroke="#9a32cd" stroke-dasharray="5,2" d="M321,-68.2239C321,-52.6974 321,-31.3582 321,-19.6165"/>
<polygon fill="#9a32cd" stroke="#9a32cd" points="317.5,-68.2818 321,-78.2818 324.5,-68.2819 317.5,-68.2818"/>
<text text-anchor="middle" x="338" y="-46.5" font-family="Helvetica,sans-Serif" font-size="10.00"> texture</text>
</g>
<!-- Node7 -->
<g id="node7" class="node"><title>Node7</title>
<polygon fill="white" stroke="#bfbfbf" points="379.5,-78.5 379.5,-97.5 408.5,-97.5 408.5,-78.5 379.5,-78.5"/>
<text text-anchor="middle" x="394" y="-85.5" font-family="Helvetica,sans-Serif" font-size="10.00">int</text>
</g>
<!-- Node7&#45;&gt;Node1 -->
<g id="edge6" class="edge"><title>Node7&#45;&gt;Node1</title>
<path fill="none" stroke="#9a32cd" stroke-dasharray="5,2" d="M383.729,-69.7793C377.337,-59.8589 368.535,-47.5114 359,-38 352.01,-31.0272 343.052,-24.5683 335.589,-19.7171"/>
<polygon fill="#9a32cd" stroke="#9a32cd" points="380.817,-71.7244 389.064,-78.3752 386.764,-68.0329 380.817,-71.7244"/>
<text text-anchor="middle" x="397" y="-46.5" font-family="Helvetica,sans-Serif" font-size="10.00"> fontSize</text>
</g>
<!-- Node8 -->
<g id="node8" class="node"><title>Node8</title>
<polygon fill="white" stroke="#bfbfbf" points="426.5,-78.5 426.5,-97.5 467.5,-97.5 467.5,-78.5 426.5,-78.5"/>
<text text-anchor="middle" x="447" y="-85.5" font-family="Helvetica,sans-Serif" font-size="10.00">string</text>
</g>
<!-- Node8&#45;&gt;Node1 -->
<g id="edge7" class="edge"><title>Node8&#45;&gt;Node1</title>
<path fill="none" stroke="#9a32cd" stroke-dasharray="5,2" d="M441.464,-68.8682C437.389,-58.4172 430.825,-45.8371 421,-38 397.101,-18.9362 360.845,-13.2851 339.183,-11.6396"/>
<polygon fill="#9a32cd" stroke="#9a32cd" points="438.167,-70.0437 444.738,-78.3548 444.784,-67.7601 438.167,-70.0437"/>
<text text-anchor="middle" x="456" y="-52" font-family="Helvetica,sans-Serif" font-size="10.00"> fontFile</text>
<text text-anchor="middle" x="456" y="-41" font-family="Helvetica,sans-Serif" font-size="10.00">text</text>
</g>
<!-- Node9 -->
<g id="node9" class="node"><title>Node9</title>
<polygon fill="white" stroke="#bfbfbf" points="485.5,-78.5 485.5,-97.5 544.5,-97.5 544.5,-78.5 485.5,-78.5"/>
<text text-anchor="middle" x="515" y="-85.5" font-family="Helvetica,sans-Serif" font-size="10.00">TextStyle</text>
</g>
<!-- Node9&#45;&gt;Node1 -->
<g id="edge8" class="edge"><title>Node9&#45;&gt;Node1</title>
<path fill="none" stroke="#9a32cd" stroke-dasharray="5,2" d="M506.217,-69.4656C499.871,-58.6552 490.267,-45.4733 478,-38 454.853,-23.8985 375.119,-15.563 339.016,-12.4304"/>
<polygon fill="#9a32cd" stroke="#9a32cd" points="503.27,-71.3717 511.112,-78.4949 509.423,-68.0356 503.27,-71.3717"/>
<text text-anchor="middle" x="512.5" y="-46.5" font-family="Helvetica,sans-Serif" font-size="10.00"> style</text>
</g>
</g>
</svg>
