<?xml version="1.0" encoding="UTF-8" standalone="no"?>
<!DOCTYPE svg PUBLIC "-//W3C//DTD SVG 1.1//EN"
 "http://www.w3.org/Graphics/SVG/1.1/DTD/svg11.dtd">
<!-- Generated by graphviz version 2.36.0 (20140111.2315)
 -->
<!-- Title: UItext Pages: 1 -->
<svg width="534pt" height="444pt"
 viewBox="0.00 0.00 534.00 444.00" xmlns="http://www.w3.org/2000/svg" xmlns:xlink="http://www.w3.org/1999/xlink">
<g id="graph0" class="graph" transform="scale(1 1) rotate(0) translate(4 440)">
<title>UItext</title>
<polygon fill="white" stroke="none" points="-4,4 -4,-440 530,-440 530,4 -4,4"/>
<!-- Node1 -->
<g id="node1" class="node"><title>Node1</title>
<polygon fill="#bfbfbf" stroke="black" points="482,-172.5 482,-191.5 526,-191.5 526,-172.5 482,-172.5"/>
<text text-anchor="middle" x="504" y="-179.5" font-family="Helvetica,sans-Serif" font-size="10.00">UItext</text>
</g>
<!-- Node2 -->
<g id="node2" class="node"><title>Node2</title>
<g id="a_node2"><a xlink:href="classUIelement.html" target="_top" xlink:title="UIelement">
<polygon fill="white" stroke="black" points="313,-314.5 313,-333.5 375,-333.5 375,-314.5 313,-314.5"/>
<text text-anchor="middle" x="344" y="-321.5" font-family="Helvetica,sans-Serif" font-size="10.00">UIelement</text>
</a>
</g>
</g>
<!-- Node2&#45;&gt;Node1 -->
<g id="edge1" class="edge"><title>Node2&#45;&gt;Node1</title>
<path fill="none" stroke="midnightblue" d="M385.167,-325.245C410.63,-323.91 442.671,-318.014 464,-299 496.285,-270.22 501.903,-214.012 502.836,-191.58"/>
<polygon fill="midnightblue" stroke="midnightblue" points="384.949,-321.75 375.063,-325.559 385.167,-328.746 384.949,-321.75"/>
</g>
<!-- Node3 -->
<g id="node3" class="node"><title>Node3</title>
<g id="a_node3"><a xlink:href="classVec2.html" target="_top" xlink:title="Classe que modela um vetor(no sentido físico) ">
<polygon fill="white" stroke="black" points="113.5,-275.5 113.5,-294.5 152.5,-294.5 152.5,-275.5 113.5,-275.5"/>
<text text-anchor="middle" x="133" y="-282.5" font-family="Helvetica,sans-Serif" font-size="10.00">Vec2</text>
</a>
</g>
</g>
<!-- Node3&#45;&gt;Node2 -->
<g id="edge2" class="edge"><title>Node3&#45;&gt;Node2</title>
<path fill="none" stroke="#9a32cd" stroke-dasharray="5,2" d="M162.857,-285.706C189.398,-286.815 229.715,-289.668 264,-297 283.276,-301.122 304.367,-308.485 319.905,-314.481"/>
<polygon fill="#9a32cd" stroke="#9a32cd" points="162.843,-282.203 152.723,-285.339 162.59,-289.198 162.843,-282.203"/>
<text text-anchor="middle" x="227" y="-311" font-family="Helvetica,sans-Serif" font-size="10.00"> center</text>
<text text-anchor="middle" x="227" y="-300" font-family="Helvetica,sans-Serif" font-size="10.00">kernelSize</text>
</g>
<!-- Node4 -->
<g id="node4" class="node"><title>Node4</title>
<polygon fill="white" stroke="#bfbfbf" points="0.5,-309.5 0.5,-328.5 35.5,-328.5 35.5,-309.5 0.5,-309.5"/>
<text text-anchor="middle" x="18" y="-316.5" font-family="Helvetica,sans-Serif" font-size="10.00">float</text>
</g>
<!-- Node4&#45;&gt;Node1 -->
<g id="edge10" class="edge"><title>Node4&#45;&gt;Node1</title>
<path fill="none" stroke="#9a32cd" stroke-dasharray="5,2" d="M23.3225,-338.557C27.9922,-354.686 37.1442,-376.689 54,-388 131.607,-440.079 172.112,-416.077 264,-399 357.646,-381.596 399.952,-392.5 464,-322 498.95,-283.529 502.906,-216.319 503.118,-191.533"/>
<polygon fill="#9a32cd" stroke="#9a32cd" points="26.6288,-337.358 20.7662,-328.533 19.8459,-339.088 26.6288,-337.358"/>
<text text-anchor="middle" x="227" y="-428" font-family="Helvetica,sans-Serif" font-size="10.00"> timeShown</text>
<text text-anchor="middle" x="227" y="-417" font-family="Helvetica,sans-Serif" font-size="10.00">strobeFrequency</text>
</g>
<!-- Node4&#45;&gt;Node3 -->
<g id="edge3" class="edge"><title>Node4&#45;&gt;Node3</title>
<path fill="none" stroke="#9a32cd" stroke-dasharray="5,2" d="M44.9916,-305.544C47.9871,-304.243 51.0318,-303.028 54,-302 73.7757,-295.152 97.3597,-290.468 113.379,-287.777"/>
<polygon fill="#9a32cd" stroke="#9a32cd" points="43.3221,-302.461 35.7445,-309.866 46.2859,-308.803 43.3221,-302.461"/>
<text text-anchor="middle" x="65" y="-316" font-family="Helvetica,sans-Serif" font-size="10.00"> x</text>
<text text-anchor="middle" x="65" y="-305" font-family="Helvetica,sans-Serif" font-size="10.00">y</text>
</g>
<!-- Node5 -->
<g id="node5" class="node"><title>Node5</title>
<g id="a_node5"><a xlink:href="classRect.html" target="_top" xlink:title="Classe que modela um rect. ">
<polygon fill="white" stroke="black" points="114,-351.5 114,-370.5 152,-370.5 152,-351.5 114,-351.5"/>
<text text-anchor="middle" x="133" y="-358.5" font-family="Helvetica,sans-Serif" font-size="10.00">Rect</text>
</a>
</g>
</g>
<!-- Node4&#45;&gt;Node5 -->
<g id="edge5" class="edge"><title>Node4&#45;&gt;Node5</title>
<path fill="none" stroke="#9a32cd" stroke-dasharray="5,2" d="M45.2748,-328.766C66.2898,-336.577 95.2108,-347.326 113.758,-354.22"/>
<polygon fill="#9a32cd" stroke="#9a32cd" points="46.2664,-325.401 35.6735,-325.197 43.8276,-331.962 46.2664,-325.401"/>
<text text-anchor="middle" x="65" y="-376" font-family="Helvetica,sans-Serif" font-size="10.00"> w</text>
<text text-anchor="middle" x="65" y="-365" font-family="Helvetica,sans-Serif" font-size="10.00">x</text>
<text text-anchor="middle" x="65" y="-354" font-family="Helvetica,sans-Serif" font-size="10.00">h</text>
<text text-anchor="middle" x="65" y="-343" font-family="Helvetica,sans-Serif" font-size="10.00">y</text>
</g>
<!-- Node13 -->
<g id="node13" class="node"><title>Node13</title>
<g id="a_node13"><a xlink:href="classTimer.html" target="_top" xlink:title="Temporizador. ">
<polygon fill="white" stroke="black" points="206.5,-236.5 206.5,-255.5 247.5,-255.5 247.5,-236.5 206.5,-236.5"/>
<text text-anchor="middle" x="227" y="-243.5" font-family="Helvetica,sans-Serif" font-size="10.00">Timer</text>
</a>
</g>
</g>
<!-- Node4&#45;&gt;Node13 -->
<g id="edge15" class="edge"><title>Node4&#45;&gt;Node13</title>
<path fill="none" stroke="#9a32cd" stroke-dasharray="5,2" d="M31.6966,-301.253C37.7459,-293.842 45.5127,-285.659 54,-280 101.74,-248.171 172.43,-244.781 206.389,-245.206"/>
<polygon fill="#9a32cd" stroke="#9a32cd" points="28.7556,-299.336 25.4439,-309.4 34.3087,-303.598 28.7556,-299.336"/>
<text text-anchor="middle" x="65" y="-283" font-family="Helvetica,sans-Serif" font-size="10.00"> time</text>
</g>
<!-- Node5&#45;&gt;Node2 -->
<g id="edge4" class="edge"><title>Node5&#45;&gt;Node2</title>
<path fill="none" stroke="#9a32cd" stroke-dasharray="5,2" d="M162.135,-356.019C201.398,-349.068 272.338,-336.51 312.72,-329.361"/>
<polygon fill="#9a32cd" stroke="#9a32cd" points="161.418,-352.591 152.182,-357.781 162.639,-359.484 161.418,-352.591"/>
<text text-anchor="middle" x="227" y="-387" font-family="Helvetica,sans-Serif" font-size="10.00"> offsets</text>
<text text-anchor="middle" x="227" y="-376" font-family="Helvetica,sans-Serif" font-size="10.00">box</text>
<text text-anchor="middle" x="227" y="-365" font-family="Helvetica,sans-Serif" font-size="10.00">anchors</text>
<text text-anchor="middle" x="227" y="-354" font-family="Helvetica,sans-Serif" font-size="10.00">boundingBox</text>
</g>
<!-- Node6 -->
<g id="node6" class="node"><title>Node6</title>
<polygon fill="white" stroke="#bfbfbf" points="94.5,-313.5 94.5,-332.5 171.5,-332.5 171.5,-313.5 94.5,-313.5"/>
<text text-anchor="middle" x="133" y="-320.5" font-family="Helvetica,sans-Serif" font-size="10.00">BehaviorType</text>
</g>
<!-- Node6&#45;&gt;Node2 -->
<g id="edge6" class="edge"><title>Node6&#45;&gt;Node2</title>
<path fill="none" stroke="#9a32cd" stroke-dasharray="5,2" d="M181.985,-323.23C222.292,-323.422 278.645,-323.692 312.882,-323.856"/>
<polygon fill="#9a32cd" stroke="#9a32cd" points="181.865,-319.729 171.848,-323.181 181.831,-326.729 181.865,-319.729"/>
<text text-anchor="middle" x="227" y="-326" font-family="Helvetica,sans-Serif" font-size="10.00"> behavior</text>
</g>
<!-- Node7 -->
<g id="node7" class="node"><title>Node7</title>
<polygon fill="white" stroke="#bfbfbf" points="282.5,-229.5 282.5,-248.5 405.5,-248.5 405.5,-229.5 282.5,-229.5"/>
<text text-anchor="middle" x="344" y="-236.5" font-family="Helvetica,sans-Serif" font-size="10.00">shared_ptr&lt; TTF_Font &gt;</text>
</g>
<!-- Node7&#45;&gt;Node1 -->
<g id="edge7" class="edge"><title>Node7&#45;&gt;Node1</title>
<path fill="none" stroke="#9a32cd" stroke-dasharray="5,2" d="M400.715,-227.003C421.064,-221.73 443.986,-214.725 464,-206 472.891,-202.124 482.165,-196.492 489.438,-191.657"/>
<polygon fill="#9a32cd" stroke="#9a32cd" points="399.803,-223.623 390.956,-229.453 401.507,-230.413 399.803,-223.623"/>
<text text-anchor="middle" x="444" y="-222" font-family="Helvetica,sans-Serif" font-size="10.00"> font</text>
</g>
<!-- Node8 -->
<g id="node8" class="node"><title>Node8</title>
<polygon fill="white" stroke="#bfbfbf" points="311.5,-191.5 311.5,-210.5 376.5,-210.5 376.5,-191.5 311.5,-191.5"/>
<text text-anchor="middle" x="344" y="-198.5" font-family="Helvetica,sans-Serif" font-size="10.00">SDL_Color</text>
</g>
<!-- Node8&#45;&gt;Node1 -->
<g id="edge8" class="edge"><title>Node8&#45;&gt;Node1</title>
<path fill="none" stroke="#9a32cd" stroke-dasharray="5,2" d="M386.534,-196.005C417.05,-192.336 457.274,-187.499 481.58,-184.576"/>
<polygon fill="#9a32cd" stroke="#9a32cd" points="386.104,-192.532 376.594,-197.201 386.94,-199.482 386.104,-192.532"/>
<text text-anchor="middle" x="444" y="-194" font-family="Helvetica,sans-Serif" font-size="10.00"> color</text>
</g>
<!-- Node9 -->
<g id="node9" class="node"><title>Node9</title>
<polygon fill="white" stroke="#bfbfbf" points="303.5,-153.5 303.5,-172.5 384.5,-172.5 384.5,-153.5 303.5,-153.5"/>
<text text-anchor="middle" x="344" y="-160.5" font-family="Helvetica,sans-Serif" font-size="10.00">SDL_Texture *</text>
</g>
<!-- Node9&#45;&gt;Node1 -->
<g id="edge9" class="edge"><title>Node9&#45;&gt;Node1</title>
<path fill="none" stroke="#9a32cd" stroke-dasharray="5,2" d="M394.775,-164.814C416.183,-166.096 441.425,-168.282 464,-172 469.793,-172.954 475.984,-174.359 481.687,-175.816"/>
<polygon fill="#9a32cd" stroke="#9a32cd" points="394.78,-161.309 384.603,-164.254 394.395,-168.298 394.78,-161.309"/>
<text text-anchor="middle" x="444" y="-175" font-family="Helvetica,sans-Serif" font-size="10.00"> texture</text>
</g>
<!-- Node10 -->
<g id="node10" class="node"><title>Node10</title>
<polygon fill="white" stroke="#bfbfbf" points="329.5,-115.5 329.5,-134.5 358.5,-134.5 358.5,-115.5 329.5,-115.5"/>
<text text-anchor="middle" x="344" y="-122.5" font-family="Helvetica,sans-Serif" font-size="10.00">int</text>
</g>
<!-- Node10&#45;&gt;Node1 -->
<g id="edge11" class="edge"><title>Node10&#45;&gt;Node1</title>
<path fill="none" stroke="#9a32cd" stroke-dasharray="5,2" d="M368.729,-127.688C393.439,-131.139 432.818,-138.501 464,-153 474.558,-157.909 485.066,-165.953 492.51,-172.325"/>
<polygon fill="#9a32cd" stroke="#9a32cd" points="369.164,-124.215 358.797,-126.402 368.265,-131.157 369.164,-124.215"/>
<text text-anchor="middle" x="444" y="-156" font-family="Helvetica,sans-Serif" font-size="10.00"> fontSize</text>
</g>
<!-- Node11 -->
<g id="node11" class="node"><title>Node11</title>
<polygon fill="white" stroke="#bfbfbf" points="326.5,-77.5 326.5,-96.5 361.5,-96.5 361.5,-77.5 326.5,-77.5"/>
<text text-anchor="middle" x="344" y="-84.5" font-family="Helvetica,sans-Serif" font-size="10.00">bool</text>
</g>
<!-- Node11&#45;&gt;Node1 -->
<g id="edge12" class="edge"><title>Node11&#45;&gt;Node1</title>
<path fill="none" stroke="#9a32cd" stroke-dasharray="5,2" d="M371.731,-90.3708C397.5,-94.7349 436.525,-104.387 464,-125 480.881,-137.665 492.984,-159.857 498.9,-172.49"/>
<polygon fill="#9a32cd" stroke="#9a32cd" points="371.988,-86.8691 361.572,-88.8077 370.923,-93.7877 371.988,-86.8691"/>
<text text-anchor="middle" x="444" y="-128" font-family="Helvetica,sans-Serif" font-size="10.00"> isStrobe</text>
</g>
<!-- Node12 -->
<g id="node12" class="node"><title>Node12</title>
<polygon fill="white" stroke="#bfbfbf" points="323.5,-38.5 323.5,-57.5 364.5,-57.5 364.5,-38.5 323.5,-38.5"/>
<text text-anchor="middle" x="344" y="-45.5" font-family="Helvetica,sans-Serif" font-size="10.00">string</text>
</g>
<!-- Node12&#45;&gt;Node1 -->
<g id="edge13" class="edge"><title>Node12&#45;&gt;Node1</title>
<path fill="none" stroke="#9a32cd" stroke-dasharray="5,2" d="M375.07,-48.3859C401.54,-50.2911 439.571,-57.0571 464,-79 492.165,-104.299 500.092,-152.079 502.239,-172.43"/>
<polygon fill="#9a32cd" stroke="#9a32cd" points="375.024,-44.8787 364.854,-47.8483 374.656,-51.869 375.024,-44.8787"/>
<text text-anchor="middle" x="444" y="-93" font-family="Helvetica,sans-Serif" font-size="10.00"> fontFile</text>
<text text-anchor="middle" x="444" y="-82" font-family="Helvetica,sans-Serif" font-size="10.00">text</text>
</g>
<!-- Node13&#45;&gt;Node1 -->
<g id="edge14" class="edge"><title>Node13&#45;&gt;Node1</title>
<path fill="none" stroke="#9a32cd" stroke-dasharray="5,2" d="M257.476,-253.772C265.383,-255.52 273.968,-257.118 282,-258 336.782,-264.014 351.946,-268.742 406,-258 433.362,-252.562 441.958,-251.1 464,-234 479.157,-222.241 491.382,-203.168 497.885,-191.681"/>
<polygon fill="#9a32cd" stroke="#9a32cd" points="258.113,-250.326 247.576,-251.434 256.504,-257.138 258.113,-250.326"/>
<text text-anchor="middle" x="344" y="-267" font-family="Helvetica,sans-Serif" font-size="10.00"> textTime</text>
</g>
<!-- Node14 -->
<g id="node14" class="node"><title>Node14</title>
<polygon fill="white" stroke="#bfbfbf" points="314.5,-0.5 314.5,-19.5 373.5,-19.5 373.5,-0.5 314.5,-0.5"/>
<text text-anchor="middle" x="344" y="-7.5" font-family="Helvetica,sans-Serif" font-size="10.00">TextStyle</text>
</g>
<!-- Node14&#45;&gt;Node1 -->
<g id="edge16" class="edge"><title>Node14&#45;&gt;Node1</title>
<path fill="none" stroke="#9a32cd" stroke-dasharray="5,2" d="M383.956,-11.5998C409.915,-14.7127 442.999,-22.9382 464,-44 500.213,-80.3176 503.399,-147.545 503.262,-172.42"/>
<polygon fill="#9a32cd" stroke="#9a32cd" points="383.978,-8.08497 373.682,-10.584 383.289,-15.051 383.978,-8.08497"/>
<text text-anchor="middle" x="444" y="-47" font-family="Helvetica,sans-Serif" font-size="10.00"> style</text>
</g>
</g>
</svg>
