<?xml version="1.0" encoding="UTF-8" standalone="no"?>
<!DOCTYPE svg PUBLIC "-//W3C//DTD SVG 1.1//EN"
 "http://www.w3.org/Graphics/SVG/1.1/DTD/svg11.dtd">
<!-- Generated by graphviz version 2.36.0 (20140111.2315)
 -->
<!-- Title: Text Pages: 1 -->
<svg width="778pt" height="208pt"
 viewBox="0.00 0.00 778.00 208.00" xmlns="http://www.w3.org/2000/svg" xmlns:xlink="http://www.w3.org/1999/xlink">
<g id="graph0" class="graph" transform="scale(1 1) rotate(0) translate(4 204)">
<title>Text</title>
<polygon fill="white" stroke="none" points="-4,4 -4,-204 774,-204 774,4 -4,4"/>
<!-- Node1 -->
<g id="node1" class="node"><title>Node1</title>
<polygon fill="#bfbfbf" stroke="black" points="438,-0.5 438,-19.5 474,-19.5 474,-0.5 438,-0.5"/>
<text text-anchor="middle" x="456" y="-7.5" font-family="Helvetica,sans-Serif" font-size="10.00">Text</text>
</g>
<!-- Node2 -->
<g id="node2" class="node"><title>Node2</title>
<polygon fill="white" stroke="#bfbfbf" points="-0.5,-79.5 -0.5,-98.5 122.5,-98.5 122.5,-79.5 -0.5,-79.5"/>
<text text-anchor="middle" x="61" y="-86.5" font-family="Helvetica,sans-Serif" font-size="10.00">shared_ptr&lt; TTF_Font &gt;</text>
</g>
<!-- Node2&#45;&gt;Node1 -->
<g id="edge1" class="edge"><title>Node2&#45;&gt;Node1</title>
<path fill="none" stroke="#9a32cd" stroke-dasharray="5,2" d="M83.0108,-73.9755C102.648,-62.2163 132.604,-46.0873 161,-38 213.554,-23.0324 382.124,-14.3095 437.894,-11.7773"/>
<polygon fill="#9a32cd" stroke="#9a32cd" points="80.9496,-71.1337 74.2517,-79.3428 84.6069,-77.1023 80.9496,-71.1337"/>
<text text-anchor="middle" x="171" y="-46.5" font-family="Helvetica,sans-Serif" font-size="10.00"> font</text>
</g>
<!-- Node3 -->
<g id="node3" class="node"><title>Node3</title>
<polygon fill="white" stroke="#bfbfbf" points="140.5,-79.5 140.5,-98.5 205.5,-98.5 205.5,-79.5 140.5,-79.5"/>
<text text-anchor="middle" x="173" y="-86.5" font-family="Helvetica,sans-Serif" font-size="10.00">SDL_Color</text>
</g>
<!-- Node3&#45;&gt;Node1 -->
<g id="edge2" class="edge"><title>Node3&#45;&gt;Node1</title>
<path fill="none" stroke="#9a32cd" stroke-dasharray="5,2" d="M179.223,-69.576C183.956,-58.5339 191.621,-45.2672 203,-38 241.997,-13.095 386.604,-10.8702 437.85,-10.8837"/>
<polygon fill="#9a32cd" stroke="#9a32cd" points="175.841,-68.6217 175.559,-79.2128 182.384,-71.1096 175.841,-68.6217"/>
<text text-anchor="middle" x="215.5" y="-46.5" font-family="Helvetica,sans-Serif" font-size="10.00"> color</text>
</g>
<!-- Node4 -->
<g id="node4" class="node"><title>Node4</title>
<g id="a_node4"><a xlink:href="classRect.html" target="_top" xlink:title="Classe que modela um rect. ">
<polygon fill="white" stroke="black" points="333,-79.5 333,-98.5 371,-98.5 371,-79.5 333,-79.5"/>
<text text-anchor="middle" x="352" y="-86.5" font-family="Helvetica,sans-Serif" font-size="10.00">Rect</text>
</a>
</g>
</g>
<!-- Node4&#45;&gt;Node1 -->
<g id="edge3" class="edge"><title>Node4&#45;&gt;Node1</title>
<path fill="none" stroke="#9a32cd" stroke-dasharray="5,2" d="M362.044,-70.9849C369.043,-60.3348 379.215,-46.9784 391,-38 405.094,-27.2625 424.075,-20.0265 437.886,-15.7703"/>
<polygon fill="#9a32cd" stroke="#9a32cd" points="359.075,-69.1326 356.751,-79.4695 365.014,-72.838 359.075,-69.1326"/>
<text text-anchor="middle" x="400.5" y="-46.5" font-family="Helvetica,sans-Serif" font-size="10.00"> box</text>
</g>
<!-- Node5 -->
<g id="node5" class="node"><title>Node5</title>
<polygon fill="white" stroke="#bfbfbf" points="334.5,-180.5 334.5,-199.5 369.5,-199.5 369.5,-180.5 334.5,-180.5"/>
<text text-anchor="middle" x="352" y="-187.5" font-family="Helvetica,sans-Serif" font-size="10.00">float</text>
</g>
<!-- Node5&#45;&gt;Node1 -->
<g id="edge6" class="edge"><title>Node5&#45;&gt;Node1</title>
<path fill="none" stroke="#9a32cd" stroke-dasharray="5,2" d="M325.289,-176.538C286.82,-156.859 223.322,-116.821 251,-78 294.69,-16.7197 396.15,-10.3651 437.729,-10.4632"/>
<polygon fill="#9a32cd" stroke="#9a32cd" points="323.945,-179.779 334.459,-181.089 327.057,-173.508 323.945,-179.779"/>
<text text-anchor="middle" x="287.5" y="-92" font-family="Helvetica,sans-Serif" font-size="10.00"> timeShown</text>
<text text-anchor="middle" x="287.5" y="-81" font-family="Helvetica,sans-Serif" font-size="10.00">strobeFrequency</text>
</g>
<!-- Node5&#45;&gt;Node4 -->
<g id="edge4" class="edge"><title>Node5&#45;&gt;Node4</title>
<path fill="none" stroke="#9a32cd" stroke-dasharray="5,2" d="M352,-170.029C352,-148.543 352,-114.467 352,-98.6245"/>
<polygon fill="#9a32cd" stroke="#9a32cd" points="348.5,-170.214 352,-180.214 355.5,-170.214 348.5,-170.214"/>
<text text-anchor="middle" x="357.5" y="-154" font-family="Helvetica,sans-Serif" font-size="10.00"> w</text>
<text text-anchor="middle" x="357.5" y="-143" font-family="Helvetica,sans-Serif" font-size="10.00">x</text>
<text text-anchor="middle" x="357.5" y="-132" font-family="Helvetica,sans-Serif" font-size="10.00">h</text>
<text text-anchor="middle" x="357.5" y="-121" font-family="Helvetica,sans-Serif" font-size="10.00">y</text>
</g>
<!-- Node10 -->
<g id="node10" class="node"><title>Node10</title>
<g id="a_node10"><a xlink:href="classTimer.html" target="_top" xlink:title="Temporizador. ">
<polygon fill="white" stroke="black" points="389.5,-79.5 389.5,-98.5 430.5,-98.5 430.5,-79.5 389.5,-79.5"/>
<text text-anchor="middle" x="410" y="-86.5" font-family="Helvetica,sans-Serif" font-size="10.00">Timer</text>
</a>
</g>
</g>
<!-- Node5&#45;&gt;Node10 -->
<g id="edge11" class="edge"><title>Node5&#45;&gt;Node10</title>
<path fill="none" stroke="#9a32cd" stroke-dasharray="5,2" d="M362.256,-171.493C374.777,-150.123 395.452,-114.832 404.947,-98.6245"/>
<polygon fill="#9a32cd" stroke="#9a32cd" points="359.182,-169.817 357.147,-180.214 365.222,-173.355 359.182,-169.817"/>
<text text-anchor="middle" x="404" y="-137.5" font-family="Helvetica,sans-Serif" font-size="10.00"> time</text>
</g>
<!-- Node6 -->
<g id="node6" class="node"><title>Node6</title>
<polygon fill="white" stroke="#bfbfbf" points="448.5,-79.5 448.5,-98.5 529.5,-98.5 529.5,-79.5 448.5,-79.5"/>
<text text-anchor="middle" x="489" y="-86.5" font-family="Helvetica,sans-Serif" font-size="10.00">SDL_Texture *</text>
</g>
<!-- Node6&#45;&gt;Node1 -->
<g id="edge5" class="edge"><title>Node6&#45;&gt;Node1</title>
<path fill="none" stroke="#9a32cd" stroke-dasharray="5,2" d="M481.381,-70.2235C474.618,-54.4413 465.018,-32.0409 459.775,-19.8094"/>
<polygon fill="#9a32cd" stroke="#9a32cd" points="478.186,-71.6527 485.342,-79.4655 484.62,-68.8953 478.186,-71.6527"/>
<text text-anchor="middle" x="494" y="-46.5" font-family="Helvetica,sans-Serif" font-size="10.00"> texture</text>
</g>
<!-- Node7 -->
<g id="node7" class="node"><title>Node7</title>
<polygon fill="white" stroke="#bfbfbf" points="547.5,-79.5 547.5,-98.5 576.5,-98.5 576.5,-79.5 547.5,-79.5"/>
<text text-anchor="middle" x="562" y="-86.5" font-family="Helvetica,sans-Serif" font-size="10.00">int</text>
</g>
<!-- Node7&#45;&gt;Node1 -->
<g id="edge7" class="edge"><title>Node7&#45;&gt;Node1</title>
<path fill="none" stroke="#9a32cd" stroke-dasharray="5,2" d="M549.06,-71.189C540.306,-60.6485 528.004,-47.3375 515,-38 502.373,-28.9329 486.215,-21.7954 474.002,-17.1419"/>
<polygon fill="#9a32cd" stroke="#9a32cd" points="546.531,-73.6299 555.516,-79.2433 551.992,-69.2517 546.531,-73.6299"/>
<text text-anchor="middle" x="559" y="-46.5" font-family="Helvetica,sans-Serif" font-size="10.00"> fontSize</text>
</g>
<!-- Node8 -->
<g id="node8" class="node"><title>Node8</title>
<polygon fill="white" stroke="#bfbfbf" points="594.5,-79.5 594.5,-98.5 629.5,-98.5 629.5,-79.5 594.5,-79.5"/>
<text text-anchor="middle" x="612" y="-86.5" font-family="Helvetica,sans-Serif" font-size="10.00">bool</text>
</g>
<!-- Node8&#45;&gt;Node1 -->
<g id="edge8" class="edge"><title>Node8&#45;&gt;Node1</title>
<path fill="none" stroke="#9a32cd" stroke-dasharray="5,2" d="M605.871,-69.9817C601.252,-59.0984 593.836,-45.8565 583,-38 550.151,-14.1828 500.709,-10.5102 474.248,-10.4286"/>
<polygon fill="#9a32cd" stroke="#9a32cd" points="602.641,-71.3343 609.463,-79.4406 609.185,-68.8494 602.641,-71.3343"/>
<text text-anchor="middle" x="621" y="-46.5" font-family="Helvetica,sans-Serif" font-size="10.00"> isStrobe</text>
</g>
<!-- Node9 -->
<g id="node9" class="node"><title>Node9</title>
<polygon fill="white" stroke="#bfbfbf" points="652.5,-79.5 652.5,-98.5 693.5,-98.5 693.5,-79.5 652.5,-79.5"/>
<text text-anchor="middle" x="673" y="-86.5" font-family="Helvetica,sans-Serif" font-size="10.00">string</text>
</g>
<!-- Node9&#45;&gt;Node1 -->
<g id="edge9" class="edge"><title>Node9&#45;&gt;Node1</title>
<path fill="none" stroke="#9a32cd" stroke-dasharray="5,2" d="M667.414,-69.7394C663.084,-58.7613 655.943,-45.5046 645,-38 617.459,-19.1138 516.18,-13.231 474.306,-11.5822"/>
<polygon fill="#9a32cd" stroke="#9a32cd" points="664.149,-71.0067 670.737,-79.3046 670.762,-68.7098 664.149,-71.0067"/>
<text text-anchor="middle" x="681" y="-52" font-family="Helvetica,sans-Serif" font-size="10.00"> fontFile</text>
<text text-anchor="middle" x="681" y="-41" font-family="Helvetica,sans-Serif" font-size="10.00">text</text>
</g>
<!-- Node10&#45;&gt;Node1 -->
<g id="edge10" class="edge"><title>Node10&#45;&gt;Node1</title>
<path fill="none" stroke="#9a32cd" stroke-dasharray="5,2" d="M411.552,-69.1569C413.071,-59.2625 416.072,-47.2973 422,-38 426.782,-30.5003 434.379,-24.1779 441.18,-19.5409"/>
<polygon fill="#9a32cd" stroke="#9a32cd" points="408.063,-68.8593 410.391,-79.1954 415.017,-69.6641 408.063,-68.8593"/>
<text text-anchor="middle" x="443" y="-46.5" font-family="Helvetica,sans-Serif" font-size="10.00"> textTime</text>
</g>
<!-- Node11 -->
<g id="node11" class="node"><title>Node11</title>
<polygon fill="white" stroke="#bfbfbf" points="711.5,-79.5 711.5,-98.5 770.5,-98.5 770.5,-79.5 711.5,-79.5"/>
<text text-anchor="middle" x="741" y="-86.5" font-family="Helvetica,sans-Serif" font-size="10.00">TextStyle</text>
</g>
<!-- Node11&#45;&gt;Node1 -->
<g id="edge12" class="edge"><title>Node11&#45;&gt;Node1</title>
<path fill="none" stroke="#9a32cd" stroke-dasharray="5,2" d="M732.304,-70.185C725.842,-58.9821 715.917,-45.3088 703,-38 663.86,-15.8542 524.632,-11.8718 474.313,-11.1564"/>
<polygon fill="#9a32cd" stroke="#9a32cd" points="729.296,-71.9837 737.079,-79.1718 735.477,-68.6988 729.296,-71.9837"/>
<text text-anchor="middle" x="737.5" y="-46.5" font-family="Helvetica,sans-Serif" font-size="10.00"> style</text>
</g>
</g>
</svg>
