<?xml version="1.0" encoding="UTF-8" standalone="no"?>
<!DOCTYPE svg PUBLIC "-//W3C//DTD SVG 1.1//EN"
 "http://www.w3.org/Graphics/SVG/1.1/DTD/svg11.dtd">
<!-- Generated by graphviz version 2.36.0 (20140111.2315)
 -->
<!-- Title: Enemy Pages: 1 -->
<svg width="594pt" height="507pt"
 viewBox="0.00 0.00 594.00 506.96" xmlns="http://www.w3.org/2000/svg" xmlns:xlink="http://www.w3.org/1999/xlink">
<g id="graph0" class="graph" transform="scale(1 1) rotate(0) translate(4 502.962)">
<title>Enemy</title>
<polygon fill="white" stroke="none" points="-4,4 -4,-502.962 590,-502.962 590,4 -4,4"/>
<!-- Node1 -->
<g id="node1" class="node"><title>Node1</title>
<polygon fill="#bfbfbf" stroke="black" points="538.5,-310.462 538.5,-329.462 585.5,-329.462 585.5,-310.462 538.5,-310.462"/>
<text text-anchor="middle" x="562" y="-317.462" font-family="Helvetica,sans-Serif" font-size="10.00">Enemy</text>
</g>
<!-- Node2 -->
<g id="node2" class="node"><title>Node2</title>
<g id="a_node2"><a xlink:href="classGameObject.html" target="_top" xlink:title="Classe virtual que especifica o funcionamento de um GameObject. ">
<polygon fill="white" stroke="black" points="364.5,-384.462 364.5,-403.462 435.5,-403.462 435.5,-384.462 364.5,-384.462"/>
<text text-anchor="middle" x="400" y="-391.462" font-family="Helvetica,sans-Serif" font-size="10.00">GameObject</text>
</a>
</g>
</g>
<!-- Node2&#45;&gt;Node1 -->
<g id="edge1" class="edge"><title>Node2&#45;&gt;Node1</title>
<path fill="none" stroke="midnightblue" d="M430.865,-380.149C462.732,-365.41 512.379,-342.449 540.236,-329.565"/>
<polygon fill="midnightblue" stroke="midnightblue" points="429.197,-377.064 421.59,-384.439 432.135,-383.418 429.197,-377.064"/>
</g>
<!-- Node3 -->
<g id="node3" class="node"><title>Node3</title>
<g id="a_node3"><a xlink:href="classRect.html" target="_top" xlink:title="Classe que modela um rect. ">
<polygon fill="white" stroke="black" points="176,-384.462 176,-403.462 214,-403.462 214,-384.462 176,-384.462"/>
<text text-anchor="middle" x="195" y="-391.462" font-family="Helvetica,sans-Serif" font-size="10.00">Rect</text>
</a>
</g>
</g>
<!-- Node3&#45;&gt;Node2 -->
<g id="edge2" class="edge"><title>Node3&#45;&gt;Node2</title>
<path fill="none" stroke="#9a32cd" stroke-dasharray="5,2" d="M224.465,-393.962C261.114,-393.962 324.768,-393.962 364.238,-393.962"/>
<polygon fill="#9a32cd" stroke="#9a32cd" points="224.015,-390.462 214.015,-393.962 224.015,-397.462 224.015,-390.462"/>
<text text-anchor="middle" x="314" y="-396.962" font-family="Helvetica,sans-Serif" font-size="10.00"> box</text>
</g>
<!-- Node4 -->
<g id="node4" class="node"><title>Node4</title>
<polygon fill="white" stroke="#bfbfbf" points="21.5,-371.462 21.5,-390.462 56.5,-390.462 56.5,-371.462 21.5,-371.462"/>
<text text-anchor="middle" x="39" y="-378.462" font-family="Helvetica,sans-Serif" font-size="10.00">float</text>
</g>
<!-- Node4&#45;&gt;Node2 -->
<g id="edge4" class="edge"><title>Node4&#45;&gt;Node2</title>
<path fill="none" stroke="#9a32cd" stroke-dasharray="5,2" d="M55.3206,-398.129C65.6583,-408.366 80.2501,-420.418 96,-425.962 101.031,-427.733 102.67,-426.152 108,-425.962 213.98,-422.182 241.546,-427.275 346,-408.962 353.63,-407.624 361.737,-405.631 369.256,-403.532"/>
<polygon fill="#9a32cd" stroke="#9a32cd" points="57.7397,-395.594 48.2958,-390.792 52.6837,-400.435 57.7397,-395.594"/>
<text text-anchor="middle" x="195" y="-427.962" font-family="Helvetica,sans-Serif" font-size="10.00"> rotation</text>
</g>
<!-- Node4&#45;&gt;Node3 -->
<g id="edge3" class="edge"><title>Node4&#45;&gt;Node3</title>
<path fill="none" stroke="#9a32cd" stroke-dasharray="5,2" d="M66.7622,-380.591C79.3013,-380.613 94.4335,-380.919 108,-381.962 131.599,-383.775 158.598,-387.877 175.951,-390.779"/>
<polygon fill="#9a32cd" stroke="#9a32cd" points="66.5004,-377.092 56.515,-380.634 66.5295,-384.092 66.5004,-377.092"/>
<text text-anchor="middle" x="102" y="-417.962" font-family="Helvetica,sans-Serif" font-size="10.00"> w</text>
<text text-anchor="middle" x="102" y="-406.962" font-family="Helvetica,sans-Serif" font-size="10.00">x</text>
<text text-anchor="middle" x="102" y="-395.962" font-family="Helvetica,sans-Serif" font-size="10.00">h</text>
<text text-anchor="middle" x="102" y="-384.962" font-family="Helvetica,sans-Serif" font-size="10.00">y</text>
</g>
<!-- Node8 -->
<g id="node8" class="node"><title>Node8</title>
<g id="a_node8"><a xlink:href="classSprite.html" target="_top" xlink:title="Classe que modela uma sprite. ">
<polygon fill="white" stroke="black" points="379,-161.462 379,-180.462 421,-180.462 421,-161.462 379,-161.462"/>
<text text-anchor="middle" x="400" y="-168.462" font-family="Helvetica,sans-Serif" font-size="10.00">Sprite</text>
</a>
</g>
</g>
<!-- Node4&#45;&gt;Node8 -->
<g id="edge10" class="edge"><title>Node4&#45;&gt;Node8</title>
<path fill="none" stroke="#9a32cd" stroke-dasharray="5,2" d="M47.6678,-361.794C59.8908,-333.792 86.5136,-282.092 126,-254.962 208.81,-198.066 252.983,-240.941 346,-202.962 360.329,-197.111 375.308,-187.717 385.671,-180.618"/>
<polygon fill="#9a32cd" stroke="#9a32cd" points="44.3355,-360.689 43.6915,-371.265 50.7898,-363.399 44.3355,-360.689"/>
<text text-anchor="middle" x="195" y="-290.962" font-family="Helvetica,sans-Serif" font-size="10.00"> scaleY</text>
<text text-anchor="middle" x="195" y="-279.962" font-family="Helvetica,sans-Serif" font-size="10.00">frameTime</text>
<text text-anchor="middle" x="195" y="-268.962" font-family="Helvetica,sans-Serif" font-size="10.00">timeElapsed</text>
<text text-anchor="middle" x="195" y="-257.962" font-family="Helvetica,sans-Serif" font-size="10.00">scaleX</text>
</g>
<!-- Node5 -->
<g id="node5" class="node"><title>Node5</title>
<polygon fill="white" stroke="#bfbfbf" points="177.5,-479.462 177.5,-498.462 212.5,-498.462 212.5,-479.462 177.5,-479.462"/>
<text text-anchor="middle" x="195" y="-486.462" font-family="Helvetica,sans-Serif" font-size="10.00">bool</text>
</g>
<!-- Node5&#45;&gt;Node1 -->
<g id="edge18" class="edge"><title>Node5&#45;&gt;Node1</title>
<path fill="none" stroke="#9a32cd" stroke-dasharray="5,2" d="M223.016,-492.705C253.649,-495.942 304.698,-498.251 346,-484.962 434.948,-456.343 450.042,-428.903 520,-366.962 533.133,-355.333 546.063,-339.601 553.788,-329.615"/>
<polygon fill="#9a32cd" stroke="#9a32cd" points="223.049,-489.185 212.71,-491.498 222.235,-496.138 223.049,-489.185"/>
<text text-anchor="middle" x="400" y="-480.962" font-family="Helvetica,sans-Serif" font-size="10.00"> dead</text>
</g>
<!-- Node5&#45;&gt;Node2 -->
<g id="edge5" class="edge"><title>Node5&#45;&gt;Node2</title>
<path fill="none" stroke="#9a32cd" stroke-dasharray="5,2" d="M222.746,-484.079C260.002,-476.959 325.28,-463.239 346,-450.962 366.46,-438.838 383.838,-416.443 392.702,-403.63"/>
<polygon fill="#9a32cd" stroke="#9a32cd" points="221.783,-480.698 212.602,-485.986 223.077,-487.578 221.783,-480.698"/>
<text text-anchor="middle" x="314" y="-472.962" font-family="Helvetica,sans-Serif" font-size="10.00"> dead</text>
</g>
<!-- Node6 -->
<g id="node6" class="node"><title>Node6</title>
<polygon fill="white" stroke="#bfbfbf" points="135.5,-346.462 135.5,-365.462 254.5,-365.462 254.5,-346.462 135.5,-346.462"/>
<text text-anchor="middle" x="195" y="-353.462" font-family="Helvetica,sans-Serif" font-size="10.00">vector&lt; Component * &gt;</text>
</g>
<!-- Node6&#45;&gt;Node2 -->
<g id="edge6" class="edge"><title>Node6&#45;&gt;Node2</title>
<path fill="none" stroke="#9a32cd" stroke-dasharray="5,2" d="M264.723,-364.678C290.361,-368.407 319.635,-373.233 346,-378.962 353.102,-380.505 360.658,-382.454 367.773,-384.432"/>
<polygon fill="#9a32cd" stroke="#9a32cd" points="265.115,-361.198 254.721,-363.252 264.127,-368.128 265.115,-361.198"/>
<text text-anchor="middle" x="314" y="-381.962" font-family="Helvetica,sans-Serif" font-size="10.00"> components</text>
</g>
<!-- Node7 -->
<g id="node7" class="node"><title>Node7</title>
<polygon fill="white" stroke="#bfbfbf" points="365.5,-310.462 365.5,-329.462 434.5,-329.462 434.5,-310.462 365.5,-310.462"/>
<text text-anchor="middle" x="400" y="-317.462" font-family="Helvetica,sans-Serif" font-size="10.00">EnemyType</text>
</g>
<!-- Node7&#45;&gt;Node1 -->
<g id="edge7" class="edge"><title>Node7&#45;&gt;Node1</title>
<path fill="none" stroke="#9a32cd" stroke-dasharray="5,2" d="M444.841,-319.962C475.098,-319.962 514.096,-319.962 538.323,-319.962"/>
<polygon fill="#9a32cd" stroke="#9a32cd" points="444.541,-316.462 434.541,-319.962 444.541,-323.462 444.541,-316.462"/>
<text text-anchor="middle" x="487" y="-322.962" font-family="Helvetica,sans-Serif" font-size="10.00"> type</text>
</g>
<!-- Node8&#45;&gt;Node1 -->
<g id="edge8" class="edge"><title>Node8&#45;&gt;Node1</title>
<path fill="none" stroke="#9a32cd" stroke-dasharray="5,2" d="M421.945,-187.055C446.424,-206.238 487.696,-239.759 520,-271.962 532.574,-284.496 545.653,-300.388 553.562,-310.369"/>
<polygon fill="#9a32cd" stroke="#9a32cd" points="423.775,-184.044 413.733,-180.665 419.476,-189.569 423.775,-184.044"/>
<text text-anchor="middle" x="487" y="-307.962" font-family="Helvetica,sans-Serif" font-size="10.00"> pantsSpName</text>
<text text-anchor="middle" x="487" y="-296.962" font-family="Helvetica,sans-Serif" font-size="10.00">headSpName</text>
<text text-anchor="middle" x="487" y="-285.962" font-family="Helvetica,sans-Serif" font-size="10.00">bodySpName</text>
<text text-anchor="middle" x="487" y="-274.962" font-family="Helvetica,sans-Serif" font-size="10.00">sp</text>
</g>
<!-- Node9 -->
<g id="node9" class="node"><title>Node9</title>
<polygon fill="white" stroke="#bfbfbf" points="0.5,-89.4617 0.5,-108.462 77.5,-108.462 77.5,-89.4617 0.5,-89.4617"/>
<text text-anchor="middle" x="39" y="-96.4617" font-family="Helvetica,sans-Serif" font-size="10.00">unsigned char</text>
</g>
<!-- Node9&#45;&gt;Node8 -->
<g id="edge9" class="edge"><title>Node9&#45;&gt;Node8</title>
<path fill="none" stroke="#9a32cd" stroke-dasharray="5,2" d="M87.7456,-107.622C90.5365,-108.087 93.3035,-108.537 96,-108.962 170.443,-120.699 190.271,-116.351 264,-131.962 305.29,-140.704 352.426,-155.441 378.65,-164.078"/>
<polygon fill="#9a32cd" stroke="#9a32cd" points="88.0642,-104.126 77.6182,-105.896 86.8878,-111.027 88.0642,-104.126"/>
<text text-anchor="middle" x="195" y="-134.962" font-family="Helvetica,sans-Serif" font-size="10.00"> alpha</text>
</g>
<!-- Node14 -->
<g id="node14" class="node"><title>Node14</title>
<g id="a_node14"><a xlink:href="structColor.html" target="_top" xlink:title="Struct para armazenar informações de cor. ">
<polygon fill="white" stroke="black" points="175,-66.4617 175,-85.4617 215,-85.4617 215,-66.4617 175,-66.4617"/>
<text text-anchor="middle" x="195" y="-73.4617" font-family="Helvetica,sans-Serif" font-size="10.00">Color</text>
</a>
</g>
</g>
<!-- Node9&#45;&gt;Node14 -->
<g id="edge16" class="edge"><title>Node9&#45;&gt;Node14</title>
<path fill="none" stroke="#9a32cd" stroke-dasharray="5,2" d="M67.2495,-85.2855C76.1824,-81.4838 86.3073,-77.8746 96,-75.9617 122.874,-70.6579 154.707,-72.0253 174.632,-73.7705"/>
<polygon fill="#9a32cd" stroke="#9a32cd" points="65.7754,-82.1108 58.1011,-89.4153 68.6555,-88.4909 65.7754,-82.1108"/>
<text text-anchor="middle" x="102" y="-100.962" font-family="Helvetica,sans-Serif" font-size="10.00"> g</text>
<text text-anchor="middle" x="102" y="-89.9617" font-family="Helvetica,sans-Serif" font-size="10.00">r</text>
<text text-anchor="middle" x="102" y="-78.9617" font-family="Helvetica,sans-Serif" font-size="10.00">b</text>
</g>
<!-- Node10 -->
<g id="node10" class="node"><title>Node10</title>
<polygon fill="white" stroke="#bfbfbf" points="164,-308.462 164,-327.462 226,-327.462 226,-308.462 164,-308.462"/>
<text text-anchor="middle" x="195" y="-315.462" font-family="Helvetica,sans-Serif" font-size="10.00">SDL_Rect</text>
</g>
<!-- Node10&#45;&gt;Node8 -->
<g id="edge11" class="edge"><title>Node10&#45;&gt;Node8</title>
<path fill="none" stroke="#9a32cd" stroke-dasharray="5,2" d="M236.296,-310.284C268.959,-302.344 314.566,-287.165 346,-259.962 372.109,-237.367 388.867,-198.602 395.614,-180.631"/>
<polygon fill="#9a32cd" stroke="#9a32cd" points="235.14,-306.959 226.181,-312.614 236.711,-313.78 235.14,-306.959"/>
<text text-anchor="middle" x="314" y="-296.962" font-family="Helvetica,sans-Serif" font-size="10.00"> clipRect</text>
</g>
<!-- Node11 -->
<g id="node11" class="node"><title>Node11</title>
<polygon fill="white" stroke="#bfbfbf" points="180.5,-4.46168 180.5,-23.4617 209.5,-23.4617 209.5,-4.46168 180.5,-4.46168"/>
<text text-anchor="middle" x="195" y="-11.4617" font-family="Helvetica,sans-Serif" font-size="10.00">int</text>
</g>
<!-- Node11&#45;&gt;Node1 -->
<g id="edge17" class="edge"><title>Node11&#45;&gt;Node1</title>
<path fill="none" stroke="#9a32cd" stroke-dasharray="5,2" d="M219.388,-7.74694C250.013,-0.890493 304.657,6.86921 346,-11.9617 479.527,-72.7808 544.421,-264.614 558.179,-310.182"/>
<polygon fill="#9a32cd" stroke="#9a32cd" points="218.527,-4.35412 209.619,-10.0894 220.159,-11.1612 218.527,-4.35412"/>
<text text-anchor="middle" x="400" y="-103.962" font-family="Helvetica,sans-Serif" font-size="10.00"> endPoint</text>
<text text-anchor="middle" x="400" y="-92.9617" font-family="Helvetica,sans-Serif" font-size="10.00">baseHP</text>
<text text-anchor="middle" x="400" y="-81.9617" font-family="Helvetica,sans-Serif" font-size="10.00">enemyIndex</text>
</g>
<!-- Node11&#45;&gt;Node8 -->
<g id="edge12" class="edge"><title>Node11&#45;&gt;Node8</title>
<path fill="none" stroke="#9a32cd" stroke-dasharray="5,2" d="M219.937,-13.5486C257.219,-13.385 326.869,-15.1517 346,-29.9617 389.013,-63.2587 397.118,-135.53 398.645,-161.461"/>
<polygon fill="#9a32cd" stroke="#9a32cd" points="219.889,-10.0488 209.923,-13.6428 219.955,-17.0485 219.889,-10.0488"/>
<text text-anchor="middle" x="314" y="-65.9617" font-family="Helvetica,sans-Serif" font-size="10.00"> width</text>
<text text-anchor="middle" x="314" y="-54.9617" font-family="Helvetica,sans-Serif" font-size="10.00">currentFrame</text>
<text text-anchor="middle" x="314" y="-43.9617" font-family="Helvetica,sans-Serif" font-size="10.00">height</text>
<text text-anchor="middle" x="314" y="-32.9617" font-family="Helvetica,sans-Serif" font-size="10.00">frameCount</text>
</g>
<!-- Node12 -->
<g id="node12" class="node"><title>Node12</title>
<polygon fill="white" stroke="#bfbfbf" points="126,-190.462 126,-209.462 264,-209.462 264,-190.462 126,-190.462"/>
<text text-anchor="middle" x="195" y="-197.462" font-family="Helvetica,sans-Serif" font-size="10.00">shared_ptr&lt; SDL_Texture &gt;</text>
</g>
<!-- Node12&#45;&gt;Node8 -->
<g id="edge13" class="edge"><title>Node12&#45;&gt;Node8</title>
<path fill="none" stroke="#9a32cd" stroke-dasharray="5,2" d="M272.857,-188.982C311.058,-183.525 354.217,-177.359 378.858,-173.839"/>
<polygon fill="#9a32cd" stroke="#9a32cd" points="272.155,-185.547 262.751,-190.426 273.145,-192.476 272.155,-185.547"/>
<text text-anchor="middle" x="314" y="-190.962" font-family="Helvetica,sans-Serif" font-size="10.00"> texture</text>
</g>
<!-- Node13 -->
<g id="node13" class="node"><title>Node13</title>
<polygon fill="white" stroke="#bfbfbf" points="150,-152.462 150,-171.462 240,-171.462 240,-152.462 150,-152.462"/>
<text text-anchor="middle" x="195" y="-159.462" font-family="Helvetica,sans-Serif" font-size="10.00">SDL_BlendMode</text>
</g>
<!-- Node13&#45;&gt;Node8 -->
<g id="edge14" class="edge"><title>Node13&#45;&gt;Node8</title>
<path fill="none" stroke="#9a32cd" stroke-dasharray="5,2" d="M250.481,-163.227C278.954,-164.028 314.37,-165.242 346,-166.962 356.872,-167.553 368.982,-168.449 378.879,-169.243"/>
<polygon fill="#9a32cd" stroke="#9a32cd" points="250.416,-159.724 240.325,-162.951 250.226,-166.722 250.416,-159.724"/>
<text text-anchor="middle" x="314" y="-169.962" font-family="Helvetica,sans-Serif" font-size="10.00"> blendMode</text>
</g>
<!-- Node14&#45;&gt;Node8 -->
<g id="edge15" class="edge"><title>Node14&#45;&gt;Node8</title>
<path fill="none" stroke="#9a32cd" stroke-dasharray="5,2" d="M225.121,-73.807C257.077,-72.8269 308.775,-75.4339 346,-97.9617 371.056,-113.125 387.787,-145.087 394.985,-161.216"/>
<polygon fill="#9a32cd" stroke="#9a32cd" points="224.924,-70.3122 215.089,-74.2532 225.235,-77.3052 224.924,-70.3122"/>
<text text-anchor="middle" x="314" y="-100.962" font-family="Helvetica,sans-Serif" font-size="10.00"> colorMultiplier</text>
</g>
</g>
</svg>
