<?xml version="1.0" encoding="UTF-8" standalone="no"?>
<!DOCTYPE svg PUBLIC "-//W3C//DTD SVG 1.1//EN"
 "http://www.w3.org/Graphics/SVG/1.1/DTD/svg11.dtd">
<!-- Generated by graphviz version 2.38.0 (20140413.2041)
 -->
<!-- Title: WaveManager Pages: 1 -->
<svg width="1154pt" height="529pt"
 viewBox="0.00 0.00 1154.00 529.00" xmlns="http://www.w3.org/2000/svg" xmlns:xlink="http://www.w3.org/1999/xlink">
<g id="graph0" class="graph" transform="scale(1 1) rotate(0) translate(4 525)">
<title>WaveManager</title>
<polygon fill="white" stroke="none" points="-4,4 -4,-525 1150,-525 1150,4 -4,4"/>
<!-- Node1 -->
<g id="node1" class="node"><title>Node1</title>
<polygon fill="#bfbfbf" stroke="black" points="1066,-373.5 1066,-392.5 1146,-392.5 1146,-373.5 1066,-373.5"/>
<text text-anchor="middle" x="1106" y="-380.5" font-family="Helvetica,sans-Serif" font-size="10.00">WaveManager</text>
</g>
<!-- Node2 -->
<g id="node2" class="node"><title>Node2</title>
<g id="a_node2"><a xlink:href="classComponent.html" target="_top" xlink:title="Modela os componentes. ">
<polygon fill="white" stroke="black" points="807.5,-488.5 807.5,-507.5 874.5,-507.5 874.5,-488.5 807.5,-488.5"/>
<text text-anchor="middle" x="841" y="-495.5" font-family="Helvetica,sans-Serif" font-size="10.00">Component</text>
</a>
</g>
</g>
<!-- Node2&#45;&gt;Node1 -->
<g id="edge1" class="edge"><title>Node2&#45;&gt;Node1</title>
<path fill="none" stroke="midnightblue" d="M884.984,-503.572C929.307,-507.084 998.717,-506.149 1048,-475 1079.13,-455.324 1096,-411.848 1102.2,-392.55"/>
<polygon fill="midnightblue" stroke="midnightblue" points="885.105,-500.069 874.831,-502.655 884.475,-507.04 885.105,-500.069"/>
</g>
<!-- Node3 -->
<g id="node3" class="node"><title>Node3</title>
<polygon fill="white" stroke="#bfbfbf" points="782.5,-450.5 782.5,-469.5 899.5,-469.5 899.5,-450.5 782.5,-450.5"/>
<text text-anchor="middle" x="841" y="-457.5" font-family="Helvetica,sans-Serif" font-size="10.00">vector&lt; vector&lt; int &gt; &gt;</text>
</g>
<!-- Node3&#45;&gt;Node1 -->
<g id="edge2" class="edge"><title>Node3&#45;&gt;Node1</title>
<path fill="none" stroke="#9a32cd" stroke-dasharray="5,2" d="M909.7,-462.586C951.341,-461.689 1004.81,-455.938 1048,-436 1069.35,-426.145 1088.01,-405.202 1097.77,-392.796"/>
<polygon fill="#9a32cd" stroke="#9a32cd" points="909.607,-459.087 899.653,-462.715 909.697,-466.087 909.607,-459.087"/>
<text text-anchor="middle" x="995" y="-463" font-family="Helvetica,sans-Serif" font-size="10.00"> spawnGroups</text>
</g>
<!-- Node4 -->
<g id="node4" class="node"><title>Node4</title>
<polygon fill="white" stroke="#bfbfbf" points="176.5,-303.5 176.5,-322.5 205.5,-322.5 205.5,-303.5 176.5,-303.5"/>
<text text-anchor="middle" x="191" y="-310.5" font-family="Helvetica,sans-Serif" font-size="10.00">int</text>
</g>
<!-- Node4&#45;&gt;Node1 -->
<g id="edge3" class="edge"><title>Node4&#45;&gt;Node1</title>
<path fill="none" stroke="#9a32cd" stroke-dasharray="5,2" d="M208.015,-330.101C238.577,-360.78 308.684,-422 381.5,-422 381.5,-422 381.5,-422 842,-422 922.086,-422 1014.42,-404.086 1065.61,-392.54"/>
<polygon fill="#9a32cd" stroke="#9a32cd" points="210.275,-327.404 200.796,-322.673 205.256,-332.283 210.275,-327.404"/>
<text text-anchor="start" x="490" y="-513" font-family="Helvetica,sans-Serif" font-size="10.00"> maxNumberOfEnemiesInSpawn</text>
<text text-anchor="middle" x="562" y="-502" font-family="Helvetica,sans-Serif" font-size="10.00">Point</text>
<text text-anchor="middle" x="562" y="-491" font-family="Helvetica,sans-Serif" font-size="10.00">totalWaves</text>
<text text-anchor="middle" x="562" y="-480" font-family="Helvetica,sans-Serif" font-size="10.00">waveTotalEnemies</text>
<text text-anchor="middle" x="562" y="-469" font-family="Helvetica,sans-Serif" font-size="10.00">playerLifes</text>
<text text-anchor="middle" x="562" y="-458" font-family="Helvetica,sans-Serif" font-size="10.00">enemiesLeft</text>
<text text-anchor="middle" x="562" y="-447" font-family="Helvetica,sans-Serif" font-size="10.00">waveIndex</text>
<text text-anchor="middle" x="562" y="-436" font-family="Helvetica,sans-Serif" font-size="10.00">waveCount</text>
<text text-anchor="middle" x="562" y="-425" font-family="Helvetica,sans-Serif" font-size="10.00">enemyIndex</text>
</g>
<!-- Node6 -->
<g id="node6" class="node"><title>Node6</title>
<g id="a_node6"><a xlink:href="classTileMap.html" target="_top" xlink:title="Classe que modela o TileMap. ">
<polygon fill="white" stroke="black" points="815.5,-315.5 815.5,-334.5 866.5,-334.5 866.5,-315.5 815.5,-315.5"/>
<text text-anchor="middle" x="841" y="-322.5" font-family="Helvetica,sans-Serif" font-size="10.00">TileMap</text>
</a>
</g>
</g>
<!-- Node4&#45;&gt;Node6 -->
<g id="edge18" class="edge"><title>Node4&#45;&gt;Node6</title>
<path fill="none" stroke="#9a32cd" stroke-dasharray="5,2" d="M216.295,-314.045C248.958,-315.409 308.845,-317.767 360,-319 534.338,-323.202 744.369,-324.543 815.266,-324.893"/>
<polygon fill="#9a32cd" stroke="#9a32cd" points="216.074,-310.532 205.936,-313.607 215.779,-317.526 216.074,-310.532"/>
<text text-anchor="middle" x="447.5" y="-346" font-family="Helvetica,sans-Serif" font-size="10.00"> mapDepth</text>
<text text-anchor="middle" x="447.5" y="-335" font-family="Helvetica,sans-Serif" font-size="10.00">mapHeight</text>
<text text-anchor="middle" x="447.5" y="-324" font-family="Helvetica,sans-Serif" font-size="10.00">mapWidth</text>
</g>
<!-- Node7 -->
<g id="node7" class="node"><title>Node7</title>
<g id="a_node7"><a xlink:href="classTileSet.html" target="_top" xlink:title="Classe responsável por modelar um tileset. ">
<polygon fill="white" stroke="black" points="538.5,-213.5 538.5,-232.5 585.5,-232.5 585.5,-213.5 538.5,-213.5"/>
<text text-anchor="middle" x="562" y="-220.5" font-family="Helvetica,sans-Serif" font-size="10.00">TileSet</text>
</a>
</g>
</g>
<!-- Node4&#45;&gt;Node7 -->
<g id="edge15" class="edge"><title>Node4&#45;&gt;Node7</title>
<path fill="none" stroke="#9a32cd" stroke-dasharray="5,2" d="M215.548,-307.257C282.426,-290.945 472.903,-244.487 538.487,-228.491"/>
<polygon fill="#9a32cd" stroke="#9a32cd" points="214.456,-303.92 205.571,-309.69 216.115,-310.721 214.456,-303.92"/>
<text text-anchor="middle" x="382.5" y="-307" font-family="Helvetica,sans-Serif" font-size="10.00"> tileHeight</text>
<text text-anchor="middle" x="382.5" y="-296" font-family="Helvetica,sans-Serif" font-size="10.00">rows</text>
<text text-anchor="middle" x="382.5" y="-285" font-family="Helvetica,sans-Serif" font-size="10.00">tileWidth</text>
<text text-anchor="middle" x="382.5" y="-274" font-family="Helvetica,sans-Serif" font-size="10.00">columns</text>
</g>
<!-- Node8 -->
<g id="node8" class="node"><title>Node8</title>
<g id="a_node8"><a xlink:href="classSprite.html" target="_top" xlink:title="Classe que modela uma sprite. ">
<polygon fill="white" stroke="black" points="361.5,-152.5 361.5,-171.5 403.5,-171.5 403.5,-152.5 361.5,-152.5"/>
<text text-anchor="middle" x="382.5" y="-159.5" font-family="Helvetica,sans-Serif" font-size="10.00">Sprite</text>
</a>
</g>
</g>
<!-- Node4&#45;&gt;Node8 -->
<g id="edge10" class="edge"><title>Node4&#45;&gt;Node8</title>
<path fill="none" stroke="#9a32cd" stroke-dasharray="5,2" d="M207.195,-295.366C223.362,-277.413 250.37,-249.641 278,-231 303.888,-213.534 316.378,-219.853 342,-202 354.492,-193.296 366.427,-180.346 373.845,-171.558"/>
<polygon fill="#9a32cd" stroke="#9a32cd" points="204.176,-293.498 200.175,-303.308 209.42,-298.134 204.176,-293.498"/>
<text text-anchor="middle" x="310" y="-267" font-family="Helvetica,sans-Serif" font-size="10.00"> width</text>
<text text-anchor="middle" x="310" y="-256" font-family="Helvetica,sans-Serif" font-size="10.00">currentFrame</text>
<text text-anchor="middle" x="310" y="-245" font-family="Helvetica,sans-Serif" font-size="10.00">height</text>
<text text-anchor="middle" x="310" y="-234" font-family="Helvetica,sans-Serif" font-size="10.00">frameCount</text>
</g>
<!-- Node5 -->
<g id="node5" class="node"><title>Node5</title>
<polygon fill="white" stroke="#bfbfbf" points="544.5,-366.5 544.5,-385.5 579.5,-385.5 579.5,-366.5 544.5,-366.5"/>
<text text-anchor="middle" x="562" y="-373.5" font-family="Helvetica,sans-Serif" font-size="10.00">bool</text>
</g>
<!-- Node5&#45;&gt;Node1 -->
<g id="edge4" class="edge"><title>Node5&#45;&gt;Node1</title>
<path fill="none" stroke="#9a32cd" stroke-dasharray="5,2" d="M589.769,-376.346C678.229,-377.488 961.457,-381.146 1065.87,-382.495"/>
<polygon fill="#9a32cd" stroke="#9a32cd" points="589.561,-372.843 579.517,-376.213 589.471,-379.842 589.561,-372.843"/>
<text text-anchor="middle" x="841" y="-383" font-family="Helvetica,sans-Serif" font-size="10.00"> endWave</text>
</g>
<!-- Node5&#45;&gt;Node6 -->
<g id="edge19" class="edge"><title>Node5&#45;&gt;Node6</title>
<path fill="none" stroke="#9a32cd" stroke-dasharray="5,2" d="M589.866,-370.797C607.518,-367.396 631.124,-362.881 652,-359 710.534,-348.117 779.412,-335.78 815.35,-329.378"/>
<polygon fill="#9a32cd" stroke="#9a32cd" points="588.878,-367.423 579.722,-372.755 590.204,-374.296 588.878,-367.423"/>
<text text-anchor="middle" x="696" y="-362" font-family="Helvetica,sans-Serif" font-size="10.00"> displayCollisionInfo</text>
</g>
<!-- Node6&#45;&gt;Node1 -->
<g id="edge5" class="edge"><title>Node6&#45;&gt;Node1</title>
<path fill="none" stroke="#9a32cd" stroke-dasharray="5,2" d="M876.662,-327.839C918.087,-331.85 989.184,-340.699 1048,-358 1061.27,-361.903 1075.52,-368.153 1086.45,-373.427"/>
<polygon fill="#9a32cd" stroke="#9a32cd" points="876.827,-324.34 866.547,-326.9 876.18,-331.31 876.827,-324.34"/>
<text text-anchor="middle" x="995" y="-361" font-family="Helvetica,sans-Serif" font-size="10.00"> tileMap</text>
</g>
<!-- Node7&#45;&gt;Node6 -->
<g id="edge6" class="edge"><title>Node7&#45;&gt;Node6</title>
<path fill="none" stroke="#9a32cd" stroke-dasharray="5,2" d="M595.908,-216.265C634.974,-210.308 699.869,-207.13 740,-241 762.908,-260.334 736.358,-285.258 758,-306 773.192,-320.56 797.239,-324.752 815.371,-325.633"/>
<polygon fill="#9a32cd" stroke="#9a32cd" points="594.9,-212.885 585.617,-217.99 596.058,-219.789 594.9,-212.885"/>
<text text-anchor="middle" x="696" y="-244" font-family="Helvetica,sans-Serif" font-size="10.00"> tileSet</text>
</g>
<!-- Node8&#45;&gt;Node7 -->
<g id="edge7" class="edge"><title>Node8&#45;&gt;Node7</title>
<path fill="none" stroke="#9a32cd" stroke-dasharray="5,2" d="M413.242,-172.221C448.483,-184.332 506.422,-204.243 538.268,-215.188"/>
<polygon fill="#9a32cd" stroke="#9a32cd" points="414.111,-168.819 403.516,-168.879 411.836,-175.439 414.111,-168.819"/>
<text text-anchor="middle" x="447.5" y="-194" font-family="Helvetica,sans-Serif" font-size="10.00"> tileSet</text>
</g>
<!-- Node9 -->
<g id="node9" class="node"><title>Node9</title>
<polygon fill="white" stroke="#bfbfbf" points="173.5,-0.5 173.5,-19.5 208.5,-19.5 208.5,-0.5 173.5,-0.5"/>
<text text-anchor="middle" x="191" y="-7.5" font-family="Helvetica,sans-Serif" font-size="10.00">float</text>
</g>
<!-- Node9&#45;&gt;Node8 -->
<g id="edge8" class="edge"><title>Node9&#45;&gt;Node8</title>
<path fill="none" stroke="#9a32cd" stroke-dasharray="5,2" d="M219.087,-9.72049C252.21,-10.8478 308.041,-17.7145 342,-49 372.569,-77.1623 379.483,-130.291 381.045,-152.187"/>
<polygon fill="#9a32cd" stroke="#9a32cd" points="218.852,-6.21567 208.79,-9.53125 218.724,-13.2145 218.852,-6.21567"/>
<text text-anchor="middle" x="310" y="-85" font-family="Helvetica,sans-Serif" font-size="10.00"> scaleY</text>
<text text-anchor="middle" x="310" y="-74" font-family="Helvetica,sans-Serif" font-size="10.00">frameTime</text>
<text text-anchor="middle" x="310" y="-63" font-family="Helvetica,sans-Serif" font-size="10.00">timeElapsed</text>
<text text-anchor="middle" x="310" y="-52" font-family="Helvetica,sans-Serif" font-size="10.00">scaleX</text>
</g>
<!-- Node18 -->
<g id="node18" class="node"><title>Node18</title>
<g id="a_node18"><a xlink:href="classTimer.html" target="_top" xlink:title="Temporizador. ">
<polygon fill="white" stroke="black" points="427,-25.5 427,-44.5 468,-44.5 468,-25.5 427,-25.5"/>
<text text-anchor="middle" x="447.5" y="-32.5" font-family="Helvetica,sans-Serif" font-size="10.00">Timer</text>
</a>
</g>
</g>
<!-- Node9&#45;&gt;Node18 -->
<g id="edge22" class="edge"><title>Node9&#45;&gt;Node18</title>
<path fill="none" stroke="#9a32cd" stroke-dasharray="5,2" d="M219.052,-7.23157C235.972,-5.6407 258.232,-3.80317 278,-3 306.421,-1.84524 313.869,1.21065 342,-3 372.399,-7.55013 406.172,-19.156 426.875,-27.0655"/>
<polygon fill="#9a32cd" stroke="#9a32cd" points="218.399,-3.77837 208.784,-8.22803 219.075,-10.7456 218.399,-3.77837"/>
<text text-anchor="middle" x="310" y="-6" font-family="Helvetica,sans-Serif" font-size="10.00"> time</text>
</g>
<!-- Node10 -->
<g id="node10" class="node"><title>Node10</title>
<polygon fill="white" stroke="#bfbfbf" points="160,-190.5 160,-209.5 222,-209.5 222,-190.5 160,-190.5"/>
<text text-anchor="middle" x="191" y="-197.5" font-family="Helvetica,sans-Serif" font-size="10.00">SDL_Rect</text>
</g>
<!-- Node10&#45;&gt;Node8 -->
<g id="edge9" class="edge"><title>Node10&#45;&gt;Node8</title>
<path fill="none" stroke="#9a32cd" stroke-dasharray="5,2" d="M232.304,-194.394C262.66,-189.838 305.197,-182.745 342,-174 348.276,-172.509 355.021,-170.583 361.13,-168.712"/>
<polygon fill="#9a32cd" stroke="#9a32cd" points="231.486,-190.976 222.104,-195.898 232.508,-197.901 231.486,-190.976"/>
<text text-anchor="middle" x="310" y="-190" font-family="Helvetica,sans-Serif" font-size="10.00"> clipRect</text>
</g>
<!-- Node11 -->
<g id="node11" class="node"><title>Node11</title>
<polygon fill="white" stroke="#bfbfbf" points="122,-152.5 122,-171.5 260,-171.5 260,-152.5 122,-152.5"/>
<text text-anchor="middle" x="191" y="-159.5" font-family="Helvetica,sans-Serif" font-size="10.00">shared_ptr&lt; SDL_Texture &gt;</text>
</g>
<!-- Node11&#45;&gt;Node8 -->
<g id="edge11" class="edge"><title>Node11&#45;&gt;Node8</title>
<path fill="none" stroke="#9a32cd" stroke-dasharray="5,2" d="M270.36,-162C303.62,-162 339.659,-162 361.406,-162"/>
<polygon fill="#9a32cd" stroke="#9a32cd" points="270.146,-158.5 260.146,-162 270.146,-165.5 270.146,-158.5"/>
<text text-anchor="middle" x="310" y="-165" font-family="Helvetica,sans-Serif" font-size="10.00"> texture</text>
</g>
<!-- Node12 -->
<g id="node12" class="node"><title>Node12</title>
<polygon fill="white" stroke="#bfbfbf" points="146,-114.5 146,-133.5 236,-133.5 236,-114.5 146,-114.5"/>
<text text-anchor="middle" x="191" y="-121.5" font-family="Helvetica,sans-Serif" font-size="10.00">SDL_BlendMode</text>
</g>
<!-- Node12&#45;&gt;Node8 -->
<g id="edge12" class="edge"><title>Node12&#45;&gt;Node8</title>
<path fill="none" stroke="#9a32cd" stroke-dasharray="5,2" d="M246.397,-129.538C275.126,-133.164 310.8,-138.782 342,-147 348.384,-148.682 355.162,-151.035 361.267,-153.379"/>
<polygon fill="#9a32cd" stroke="#9a32cd" points="246.497,-126.024 236.148,-128.291 245.652,-132.973 246.497,-126.024"/>
<text text-anchor="middle" x="310" y="-150" font-family="Helvetica,sans-Serif" font-size="10.00"> blendMode</text>
</g>
<!-- Node13 -->
<g id="node13" class="node"><title>Node13</title>
<g id="a_node13"><a xlink:href="structColor.html" target="_top" xlink:title="Struct para armazenar informações de cor. ">
<polygon fill="white" stroke="black" points="171,-76.5 171,-95.5 211,-95.5 211,-76.5 171,-76.5"/>
<text text-anchor="middle" x="191" y="-83.5" font-family="Helvetica,sans-Serif" font-size="10.00">Color</text>
</a>
</g>
</g>
<!-- Node13&#45;&gt;Node8 -->
<g id="edge13" class="edge"><title>Node13&#45;&gt;Node8</title>
<path fill="none" stroke="#9a32cd" stroke-dasharray="5,2" d="M221.639,-87.6098C253.304,-90.4499 304.055,-98.3003 342,-120 356.077,-128.05 368.155,-142.731 375.128,-152.426"/>
<polygon fill="#9a32cd" stroke="#9a32cd" points="221.53,-84.0907 211.287,-86.7997 220.984,-91.0693 221.53,-84.0907"/>
<text text-anchor="middle" x="310" y="-123" font-family="Helvetica,sans-Serif" font-size="10.00"> colorMultiplier</text>
</g>
<!-- Node14 -->
<g id="node14" class="node"><title>Node14</title>
<polygon fill="white" stroke="#bfbfbf" points="0,-76.5 0,-95.5 77,-95.5 77,-76.5 0,-76.5"/>
<text text-anchor="middle" x="38.5" y="-83.5" font-family="Helvetica,sans-Serif" font-size="10.00">unsigned char</text>
</g>
<!-- Node14&#45;&gt;Node13 -->
<g id="edge14" class="edge"><title>Node14&#45;&gt;Node13</title>
<path fill="none" stroke="#9a32cd" stroke-dasharray="5,2" d="M87.2041,-86C115.496,-86 149.815,-86 170.771,-86"/>
<polygon fill="#9a32cd" stroke="#9a32cd" points="87.0893,-82.5001 77.0893,-86 87.0892,-89.5001 87.0893,-82.5001"/>
<text text-anchor="middle" x="99.5" y="-122" font-family="Helvetica,sans-Serif" font-size="10.00"> g</text>
<text text-anchor="middle" x="99.5" y="-111" font-family="Helvetica,sans-Serif" font-size="10.00">a</text>
<text text-anchor="middle" x="99.5" y="-100" font-family="Helvetica,sans-Serif" font-size="10.00">r</text>
<text text-anchor="middle" x="99.5" y="-89" font-family="Helvetica,sans-Serif" font-size="10.00">b</text>
</g>
<!-- Node15 -->
<g id="node15" class="node"><title>Node15</title>
<polygon fill="white" stroke="#bfbfbf" points="526,-289.5 526,-308.5 598,-308.5 598,-289.5 526,-289.5"/>
<text text-anchor="middle" x="562" y="-296.5" font-family="Helvetica,sans-Serif" font-size="10.00">vector&lt; int &gt;</text>
</g>
<!-- Node15&#45;&gt;Node6 -->
<g id="edge16" class="edge"><title>Node15&#45;&gt;Node6</title>
<path fill="none" stroke="#9a32cd" stroke-dasharray="5,2" d="M608.378,-295.349C644.333,-293.392 695.71,-292.684 740,-300 748.32,-301.374 749.883,-303.712 758,-306 777.129,-311.391 799.076,-316.417 815.448,-319.943"/>
<polygon fill="#9a32cd" stroke="#9a32cd" points="607.975,-291.866 598.202,-295.958 608.394,-298.854 607.975,-291.866"/>
<text text-anchor="middle" x="696" y="-303" font-family="Helvetica,sans-Serif" font-size="10.00"> tileMatrix</text>
</g>
<!-- Node16 -->
<g id="node16" class="node"><title>Node16</title>
<polygon fill="white" stroke="#bfbfbf" points="500.5,-251.5 500.5,-270.5 623.5,-270.5 623.5,-251.5 500.5,-251.5"/>
<text text-anchor="middle" x="562" y="-258.5" font-family="Helvetica,sans-Serif" font-size="10.00">vector&lt; GameObject * &gt;</text>
</g>
<!-- Node16&#45;&gt;Node6 -->
<g id="edge17" class="edge"><title>Node16&#45;&gt;Node6</title>
<path fill="none" stroke="#9a32cd" stroke-dasharray="5,2" d="M634.009,-254.656C668.244,-254.839 708.587,-260.082 740,-279 752.355,-286.441 746.14,-297.794 758,-306 774.945,-317.723 798.099,-322.296 815.483,-324.039"/>
<polygon fill="#9a32cd" stroke="#9a32cd" points="633.564,-251.16 623.597,-254.753 633.629,-258.16 633.564,-251.16"/>
<text text-anchor="middle" x="696" y="-282" font-family="Helvetica,sans-Serif" font-size="10.00"> gameObjectMatrix</text>
</g>
<!-- Node17 -->
<g id="node17" class="node"><title>Node17</title>
<polygon fill="white" stroke="#bfbfbf" points="758,-255.5 758,-296.5 924,-296.5 924,-255.5 758,-255.5"/>
<text text-anchor="start" x="766" y="-284.5" font-family="Helvetica,sans-Serif" font-size="10.00">shared_ptr&lt; std::pair</text>
<text text-anchor="start" x="766" y="-273.5" font-family="Helvetica,sans-Serif" font-size="10.00">&lt; std::vector&lt; WaveData</text>
<text text-anchor="middle" x="841" y="-262.5" font-family="Helvetica,sans-Serif" font-size="10.00"> &gt;, std::vector&lt; EnemyData &gt; &gt; &gt;</text>
</g>
<!-- Node17&#45;&gt;Node1 -->
<g id="edge20" class="edge"><title>Node17&#45;&gt;Node1</title>
<path fill="none" stroke="#9a32cd" stroke-dasharray="5,2" d="M934.543,-283.323C971.703,-289.345 1013.75,-300.26 1048,-320 1071,-333.259 1089.84,-359.019 1098.99,-373.145"/>
<polygon fill="#9a32cd" stroke="#9a32cd" points="934.615,-279.793 924.202,-281.75 933.562,-286.714 934.615,-279.793"/>
<text text-anchor="middle" x="995" y="-323" font-family="Helvetica,sans-Serif" font-size="10.00"> wavesAndEnemysData</text>
</g>
<!-- Node18&#45;&gt;Node1 -->
<g id="edge21" class="edge"><title>Node18&#45;&gt;Node1</title>
<path fill="none" stroke="#9a32cd" stroke-dasharray="5,2" d="M478.011,-39.9677C571.963,-57.1295 868.449,-121.831 1048,-281 1077.9,-307.51 1095.54,-353.622 1102.08,-373.468"/>
<polygon fill="#9a32cd" stroke="#9a32cd" points="478.529,-36.5048 468.069,-38.1926 477.299,-43.3959 478.529,-36.5048"/>
<text text-anchor="middle" x="696" y="-113" font-family="Helvetica,sans-Serif" font-size="10.00"> spawnTimer</text>
</g>
</g>
</svg>
