<?xml version="1.0" encoding="UTF-8" standalone="no"?>
<!DOCTYPE svg PUBLIC "-//W3C//DTD SVG 1.1//EN"
 "http://www.w3.org/Graphics/SVG/1.1/DTD/svg11.dtd">
<!-- Generated by graphviz version 2.38.0 (20140413.2041)
 -->
<!-- Title: WaveManager Pages: 1 -->
<svg width="1198pt" height="687pt"
 viewBox="0.00 0.00 1198.00 686.62" xmlns="http://www.w3.org/2000/svg" xmlns:xlink="http://www.w3.org/1999/xlink">
<g id="graph0" class="graph" transform="scale(1 1) rotate(0) translate(4 682.62)">
<title>WaveManager</title>
<polygon fill="white" stroke="none" points="-4,4 -4,-682.62 1194,-682.62 1194,4 -4,4"/>
<!-- Node1 -->
<g id="node1" class="node"><title>Node1</title>
<polygon fill="#bfbfbf" stroke="black" points="1110,-375.86 1110,-394.86 1190,-394.86 1190,-375.86 1110,-375.86"/>
<text text-anchor="middle" x="1150" y="-382.86" font-family="Helvetica,sans-Serif" font-size="10.00">WaveManager</text>
</g>
<!-- Node2 -->
<g id="node2" class="node"><title>Node2</title>
<g id="a_node2"><a xlink:href="classComponent.html" target="_top" xlink:title="Modela os componentes. ">
<polygon fill="white" stroke="black" points="851.5,-651.86 851.5,-670.86 918.5,-670.86 918.5,-651.86 851.5,-651.86"/>
<text text-anchor="middle" x="885" y="-658.86" font-family="Helvetica,sans-Serif" font-size="10.00">Component</text>
</a>
</g>
</g>
<!-- Node2&#45;&gt;Node1 -->
<g id="edge1" class="edge"><title>Node2&#45;&gt;Node1</title>
<path fill="none" stroke="midnightblue" d="M928.597,-671.96C974.578,-680.655 1047.23,-686.018 1092,-647.36 1131.46,-613.289 1145.51,-438.249 1148.4,-395.021"/>
<polygon fill="midnightblue" stroke="midnightblue" points="929.14,-668.499 918.645,-669.948 927.753,-675.36 929.14,-668.499"/>
</g>
<!-- Node3 -->
<g id="node3" class="node"><title>Node3</title>
<polygon fill="white" stroke="#bfbfbf" points="826.5,-613.86 826.5,-632.86 943.5,-632.86 943.5,-613.86 826.5,-613.86"/>
<text text-anchor="middle" x="885" y="-620.86" font-family="Helvetica,sans-Serif" font-size="10.00">vector&lt; vector&lt; int &gt; &gt;</text>
</g>
<!-- Node3&#45;&gt;Node1 -->
<g id="edge2" class="edge"><title>Node3&#45;&gt;Node1</title>
<path fill="none" stroke="#9a32cd" stroke-dasharray="5,2" d="M953.92,-623.468C1005.83,-622.116 1071.8,-616.835 1092,-599.36 1124.06,-571.626 1143.18,-432.905 1147.87,-394.964"/>
<polygon fill="#9a32cd" stroke="#9a32cd" points="953.665,-619.972 943.743,-623.688 953.817,-626.971 953.665,-619.972"/>
<text text-anchor="middle" x="1039" y="-635.36" font-family="Helvetica,sans-Serif" font-size="10.00"> endGroups</text>
<text text-anchor="middle" x="1039" y="-624.36" font-family="Helvetica,sans-Serif" font-size="10.00">spawnGroups</text>
</g>
<!-- Node4 -->
<g id="node4" class="node"><title>Node4</title>
<polygon fill="white" stroke="#bfbfbf" points="176.5,-252.86 176.5,-271.86 205.5,-271.86 205.5,-252.86 176.5,-252.86"/>
<text text-anchor="middle" x="191" y="-259.86" font-family="Helvetica,sans-Serif" font-size="10.00">int</text>
</g>
<!-- Node4&#45;&gt;Node1 -->
<g id="edge3" class="edge"><title>Node4&#45;&gt;Node1</title>
<path fill="none" stroke="#9a32cd" stroke-dasharray="5,2" d="M215.627,-263.709C246.949,-266.504 302.821,-275.08 342,-301.36 353.073,-308.788 348.875,-318.011 360,-325.36 417.652,-363.446 452.959,-324.869 511,-362.36 521.904,-369.403 517.331,-379.675 529,-385.36 732.206,-484.367 1019.23,-420.941 1115.82,-394.95"/>
<polygon fill="#9a32cd" stroke="#9a32cd" points="215.878,-260.218 205.639,-262.942 215.342,-267.197 215.878,-260.218"/>
<text text-anchor="start" x="529" y="-519.36" font-family="Helvetica,sans-Serif" font-size="10.00"> maxNumberOfEnemiesInSpawn</text>
<text text-anchor="middle" x="601" y="-508.36" font-family="Helvetica,sans-Serif" font-size="10.00">Point</text>
<text text-anchor="middle" x="601" y="-497.36" font-family="Helvetica,sans-Serif" font-size="10.00">totalWaves</text>
<text text-anchor="middle" x="601" y="-486.36" font-family="Helvetica,sans-Serif" font-size="10.00">waveTotalEnemies</text>
<text text-anchor="middle" x="601" y="-475.36" font-family="Helvetica,sans-Serif" font-size="10.00">playerLifes</text>
<text text-anchor="middle" x="601" y="-464.36" font-family="Helvetica,sans-Serif" font-size="10.00">enemiesLeft</text>
<text text-anchor="middle" x="601" y="-453.36" font-family="Helvetica,sans-Serif" font-size="10.00">waveIndex</text>
<text text-anchor="middle" x="601" y="-442.36" font-family="Helvetica,sans-Serif" font-size="10.00">waveCount</text>
<text text-anchor="middle" x="601" y="-431.36" font-family="Helvetica,sans-Serif" font-size="10.00">enemyIndex</text>
</g>
<!-- Node6 -->
<g id="node6" class="node"><title>Node6</title>
<g id="a_node6"><a xlink:href="classTileMap.html" target="_top" xlink:title="Classe que modela o TileMap. ">
<polygon fill="white" stroke="black" points="859.5,-301.86 859.5,-320.86 910.5,-320.86 910.5,-301.86 859.5,-301.86"/>
<text text-anchor="middle" x="885" y="-308.86" font-family="Helvetica,sans-Serif" font-size="10.00">TileMap</text>
</a>
</g>
</g>
<!-- Node4&#45;&gt;Node6 -->
<g id="edge21" class="edge"><title>Node4&#45;&gt;Node6</title>
<path fill="none" stroke="#9a32cd" stroke-dasharray="5,2" d="M215.86,-257.907C286.133,-245.439 498.357,-212.425 673,-233.36 723.411,-239.403 736.396,-242.707 784,-260.36 814.881,-271.812 848.57,-290.37 867.901,-301.661"/>
<polygon fill="#9a32cd" stroke="#9a32cd" points="215.046,-254.497 205.828,-259.72 216.291,-261.386 215.046,-254.497"/>
<text text-anchor="middle" x="467" y="-257.36" font-family="Helvetica,sans-Serif" font-size="10.00"> mapDepth</text>
<text text-anchor="middle" x="467" y="-246.36" font-family="Helvetica,sans-Serif" font-size="10.00">mapHeight</text>
<text text-anchor="middle" x="467" y="-235.36" font-family="Helvetica,sans-Serif" font-size="10.00">mapWidth</text>
</g>
<!-- Node9 -->
<g id="node9" class="node"><title>Node9</title>
<g id="a_node9"><a xlink:href="classTileSet.html" target="_top" xlink:title="Classe responsável por modelar um tileset. ">
<polygon fill="white" stroke="black" points="577.5,-280.86 577.5,-299.86 624.5,-299.86 624.5,-280.86 577.5,-280.86"/>
<text text-anchor="middle" x="601" y="-287.86" font-family="Helvetica,sans-Serif" font-size="10.00">TileSet</text>
</a>
</g>
</g>
<!-- Node4&#45;&gt;Node9 -->
<g id="edge18" class="edge"><title>Node4&#45;&gt;Node9</title>
<path fill="none" stroke="#9a32cd" stroke-dasharray="5,2" d="M215.968,-264.005C288.761,-269.001 506.613,-283.951 577.465,-288.814"/>
<polygon fill="#9a32cd" stroke="#9a32cd" points="215.791,-260.485 205.575,-263.292 215.312,-267.468 215.791,-260.485"/>
<text text-anchor="middle" x="382.5" y="-313.36" font-family="Helvetica,sans-Serif" font-size="10.00"> tileHeight</text>
<text text-anchor="middle" x="382.5" y="-302.36" font-family="Helvetica,sans-Serif" font-size="10.00">rows</text>
<text text-anchor="middle" x="382.5" y="-291.36" font-family="Helvetica,sans-Serif" font-size="10.00">tileWidth</text>
<text text-anchor="middle" x="382.5" y="-280.36" font-family="Helvetica,sans-Serif" font-size="10.00">columns</text>
</g>
<!-- Node10 -->
<g id="node10" class="node"><title>Node10</title>
<g id="a_node10"><a xlink:href="classSprite.html" target="_top" xlink:title="Classe que modela uma sprite. ">
<polygon fill="white" stroke="black" points="361.5,-399.86 361.5,-418.86 403.5,-418.86 403.5,-399.86 361.5,-399.86"/>
<text text-anchor="middle" x="382.5" y="-406.86" font-family="Helvetica,sans-Serif" font-size="10.00">Sprite</text>
</a>
</g>
</g>
<!-- Node4&#45;&gt;Node10 -->
<g id="edge12" class="edge"><title>Node4&#45;&gt;Node10</title>
<path fill="none" stroke="#9a32cd" stroke-dasharray="5,2" d="M215.376,-272.368C252.419,-288.549 322.421,-320.539 342,-339.36 360.309,-356.96 372.549,-384.915 378.096,-399.606"/>
<polygon fill="#9a32cd" stroke="#9a32cd" points="216.439,-269.013 205.871,-268.247 213.654,-275.436 216.439,-269.013"/>
<text text-anchor="middle" x="310" y="-375.36" font-family="Helvetica,sans-Serif" font-size="10.00"> width</text>
<text text-anchor="middle" x="310" y="-364.36" font-family="Helvetica,sans-Serif" font-size="10.00">currentFrame</text>
<text text-anchor="middle" x="310" y="-353.36" font-family="Helvetica,sans-Serif" font-size="10.00">height</text>
<text text-anchor="middle" x="310" y="-342.36" font-family="Helvetica,sans-Serif" font-size="10.00">frameCount</text>
</g>
<!-- Node19 -->
<g id="node19" class="node"><title>Node19</title>
<g id="a_node19"><a xlink:href="classSound.html" target="_top" xlink:title="Classe que modela sons. ">
<polygon fill="white" stroke="black" points="360.5,-128.86 360.5,-147.86 404.5,-147.86 404.5,-128.86 360.5,-128.86"/>
<text text-anchor="middle" x="382.5" y="-135.86" font-family="Helvetica,sans-Serif" font-size="10.00">Sound</text>
</a>
</g>
</g>
<!-- Node4&#45;&gt;Node19 -->
<g id="edge24" class="edge"><title>Node4&#45;&gt;Node19</title>
<path fill="none" stroke="#9a32cd" stroke-dasharray="5,2" d="M208.345,-245.307C224.692,-229.068 251.194,-204.866 278,-189.36 304.164,-174.226 315.202,-180.34 342,-166.36 351.838,-161.228 362.032,-153.944 369.6,-148.092"/>
<polygon fill="#9a32cd" stroke="#9a32cd" points="205.714,-242.991 201.18,-252.567 210.695,-247.908 205.714,-242.991"/>
<text text-anchor="middle" x="310" y="-192.36" font-family="Helvetica,sans-Serif" font-size="10.00"> channel</text>
</g>
<!-- Node5 -->
<g id="node5" class="node"><title>Node5</title>
<polygon fill="white" stroke="#bfbfbf" points="173.5,-539.86 173.5,-558.86 208.5,-558.86 208.5,-539.86 173.5,-539.86"/>
<text text-anchor="middle" x="191" y="-546.86" font-family="Helvetica,sans-Serif" font-size="10.00">bool</text>
</g>
<!-- Node5&#45;&gt;Node1 -->
<g id="edge4" class="edge"><title>Node5&#45;&gt;Node1</title>
<path fill="none" stroke="#9a32cd" stroke-dasharray="5,2" d="M218.331,-557.607C254.658,-568.234 322.371,-585.36 381.5,-585.36 381.5,-585.36 381.5,-585.36 886,-585.36 1013.34,-585.36 1117.61,-434.957 1143.05,-395.007"/>
<polygon fill="#9a32cd" stroke="#9a32cd" points="219.113,-554.187 208.53,-554.672 217.106,-560.893 219.113,-554.187"/>
<text text-anchor="middle" x="601" y="-610.36" font-family="Helvetica,sans-Serif" font-size="10.00"> waitingForTheNextWave</text>
<text text-anchor="middle" x="601" y="-599.36" font-family="Helvetica,sans-Serif" font-size="10.00">endWave</text>
<text text-anchor="middle" x="601" y="-588.36" font-family="Helvetica,sans-Serif" font-size="10.00">victory</text>
</g>
<!-- Node5&#45;&gt;Node6 -->
<g id="edge22" class="edge"><title>Node5&#45;&gt;Node6</title>
<path fill="none" stroke="#9a32cd" stroke-dasharray="5,2" d="M218.698,-549.844C307.324,-551.084 590.799,-552.025 673,-515.36 773.979,-470.32 855.375,-355.059 877.832,-320.985"/>
<polygon fill="#9a32cd" stroke="#9a32cd" points="218.707,-546.343 208.654,-549.69 218.599,-553.343 218.707,-546.343"/>
<text text-anchor="middle" x="467" y="-550.36" font-family="Helvetica,sans-Serif" font-size="10.00"> displayCollisionInfo</text>
</g>
<!-- Node5&#45;&gt;Node10 -->
<g id="edge14" class="edge"><title>Node5&#45;&gt;Node10</title>
<path fill="none" stroke="#9a32cd" stroke-dasharray="5,2" d="M218.31,-541.559C260.061,-529.092 337.289,-505.64 342,-501.36 366.959,-478.685 376.774,-437.543 380.064,-418.945"/>
<polygon fill="#9a32cd" stroke="#9a32cd" points="217.109,-538.264 208.525,-544.474 219.108,-544.973 217.109,-538.264"/>
<text text-anchor="middle" x="310" y="-524.36" font-family="Helvetica,sans-Serif" font-size="10.00"> highlightable</text>
</g>
<!-- Node6&#45;&gt;Node1 -->
<g id="edge5" class="edge"><title>Node6&#45;&gt;Node1</title>
<path fill="none" stroke="#9a32cd" stroke-dasharray="5,2" d="M920.561,-321.085C971.172,-335.325 1064.87,-361.689 1115.1,-375.823"/>
<polygon fill="#9a32cd" stroke="#9a32cd" points="921.317,-317.661 910.742,-318.322 919.421,-324.4 921.317,-317.661"/>
<text text-anchor="middle" x="1039" y="-370.36" font-family="Helvetica,sans-Serif" font-size="10.00"> tileMap</text>
</g>
<!-- Node7 -->
<g id="node7" class="node"><title>Node7</title>
<g id="a_node7"><a xlink:href="classNearestGOFinder.html" target="_top" xlink:title="NearestGOFinder">
<polygon fill="white" stroke="black" points="554.5,-166.86 554.5,-185.86 647.5,-185.86 647.5,-166.86 554.5,-166.86"/>
<text text-anchor="middle" x="601" y="-173.86" font-family="Helvetica,sans-Serif" font-size="10.00">NearestGOFinder</text>
</a>
</g>
</g>
<!-- Node7&#45;&gt;Node6 -->
<g id="edge6" class="edge"><title>Node7&#45;&gt;Node6</title>
<path fill="none" stroke="midnightblue" d="M657.903,-173.911C695.543,-174.542 745.198,-179.947 784,-200.36 830.14,-224.634 865.473,-279.218 878.525,-301.552"/>
<polygon fill="midnightblue" stroke="midnightblue" points="657.645,-170.409 647.625,-173.85 657.604,-177.409 657.645,-170.409"/>
</g>
<!-- Node8 -->
<g id="node8" class="node"><title>Node8</title>
<polygon fill="white" stroke="#bfbfbf" points="529.5,-356.86 529.5,-375.86 672.5,-375.86 672.5,-356.86 529.5,-356.86"/>
<text text-anchor="middle" x="601" y="-363.86" font-family="Helvetica,sans-Serif" font-size="10.00">vector&lt; TileMapObserver * &gt;</text>
</g>
<!-- Node8&#45;&gt;Node6 -->
<g id="edge7" class="edge"><title>Node8&#45;&gt;Node6</title>
<path fill="none" stroke="#9a32cd" stroke-dasharray="5,2" d="M682.015,-355.314C713.876,-350.472 750.795,-344.305 784,-337.36 809.986,-331.925 839.349,-324.084 859.498,-318.436"/>
<polygon fill="#9a32cd" stroke="#9a32cd" points="681.229,-351.893 671.859,-356.839 682.268,-358.815 681.229,-351.893"/>
<text text-anchor="middle" x="737.5" y="-355.36" font-family="Helvetica,sans-Serif" font-size="10.00"> observers</text>
</g>
<!-- Node9&#45;&gt;Node6 -->
<g id="edge8" class="edge"><title>Node9&#45;&gt;Node6</title>
<path fill="none" stroke="#9a32cd" stroke-dasharray="5,2" d="M634.768,-292.284C671.218,-294.479 731.848,-298.295 784,-302.36 809.72,-304.365 839.124,-307.06 859.356,-308.977"/>
<polygon fill="#9a32cd" stroke="#9a32cd" points="634.903,-288.786 624.711,-291.683 634.485,-295.773 634.903,-288.786"/>
<text text-anchor="middle" x="737.5" y="-305.36" font-family="Helvetica,sans-Serif" font-size="10.00"> tileSet</text>
</g>
<!-- Node10&#45;&gt;Node9 -->
<g id="edge9" class="edge"><title>Node10&#45;&gt;Node9</title>
<path fill="none" stroke="#9a32cd" stroke-dasharray="5,2" d="M402.503,-393.103C429.115,-371.116 479.766,-332.048 529,-309.36 544.413,-302.258 562.975,-297.407 577.253,-294.385"/>
<polygon fill="#9a32cd" stroke="#9a32cd" points="400.163,-390.497 394.74,-399.599 404.655,-395.866 400.163,-390.497"/>
<text text-anchor="middle" x="467" y="-379.36" font-family="Helvetica,sans-Serif" font-size="10.00"> tileSet</text>
</g>
<!-- Node11 -->
<g id="node11" class="node"><title>Node11</title>
<polygon fill="white" stroke="#bfbfbf" points="173.5,-96.8602 173.5,-115.86 208.5,-115.86 208.5,-96.8602 173.5,-96.8602"/>
<text text-anchor="middle" x="191" y="-103.86" font-family="Helvetica,sans-Serif" font-size="10.00">float</text>
</g>
<!-- Node11&#45;&gt;Node10 -->
<g id="edge10" class="edge"><title>Node11&#45;&gt;Node10</title>
<path fill="none" stroke="#9a32cd" stroke-dasharray="5,2" d="M218.959,-104.561C257.404,-102.63 325.199,-101.787 342,-118.36 372.508,-148.455 353.441,-268.011 360,-310.36 365.115,-343.384 374.48,-381.921 378.97,-399.597"/>
<polygon fill="#9a32cd" stroke="#9a32cd" points="218.297,-101.092 208.509,-105.148 218.69,-108.081 218.297,-101.092"/>
<text text-anchor="middle" x="310" y="-154.36" font-family="Helvetica,sans-Serif" font-size="10.00"> scaleY</text>
<text text-anchor="middle" x="310" y="-143.36" font-family="Helvetica,sans-Serif" font-size="10.00">frameTime</text>
<text text-anchor="middle" x="310" y="-132.36" font-family="Helvetica,sans-Serif" font-size="10.00">timeElapsed</text>
<text text-anchor="middle" x="310" y="-121.36" font-family="Helvetica,sans-Serif" font-size="10.00">scaleX</text>
</g>
<!-- Node22 -->
<g id="node22" class="node"><title>Node22</title>
<g id="a_node22"><a xlink:href="classTimer.html" target="_top" xlink:title="Temporizador. ">
<polygon fill="white" stroke="black" points="446.5,-57.8602 446.5,-76.8602 487.5,-76.8602 487.5,-57.8602 446.5,-57.8602"/>
<text text-anchor="middle" x="467" y="-64.8602" font-family="Helvetica,sans-Serif" font-size="10.00">Timer</text>
</a>
</g>
</g>
<!-- Node11&#45;&gt;Node22 -->
<g id="edge28" class="edge"><title>Node11&#45;&gt;Node22</title>
<path fill="none" stroke="#9a32cd" stroke-dasharray="5,2" d="M218.989,-100.459C235.885,-96.905 258.143,-92.4797 278,-89.3602 339.194,-79.7467 412.2,-72.3627 446.445,-69.137"/>
<polygon fill="#9a32cd" stroke="#9a32cd" points="217.789,-97.1359 208.739,-102.646 219.249,-103.982 217.789,-97.1359"/>
<text text-anchor="middle" x="310" y="-92.3602" font-family="Helvetica,sans-Serif" font-size="10.00"> time</text>
</g>
<!-- Node12 -->
<g id="node12" class="node"><title>Node12</title>
<polygon fill="white" stroke="#bfbfbf" points="160,-449.86 160,-468.86 222,-468.86 222,-449.86 160,-449.86"/>
<text text-anchor="middle" x="191" y="-456.86" font-family="Helvetica,sans-Serif" font-size="10.00">SDL_Rect</text>
</g>
<!-- Node12&#45;&gt;Node10 -->
<g id="edge11" class="edge"><title>Node12&#45;&gt;Node10</title>
<path fill="none" stroke="#9a32cd" stroke-dasharray="5,2" d="M232.32,-454.877C263.018,-450.677 305.985,-443.092 342,-430.36 350.201,-427.461 358.787,-423.079 365.851,-419.067"/>
<polygon fill="#9a32cd" stroke="#9a32cd" points="231.468,-451.458 222.005,-456.224 232.374,-458.399 231.468,-451.458"/>
<text text-anchor="middle" x="310" y="-449.36" font-family="Helvetica,sans-Serif" font-size="10.00"> clipRect</text>
</g>
<!-- Node13 -->
<g id="node13" class="node"><title>Node13</title>
<polygon fill="white" stroke="#bfbfbf" points="122,-411.86 122,-430.86 260,-430.86 260,-411.86 122,-411.86"/>
<text text-anchor="middle" x="191" y="-418.86" font-family="Helvetica,sans-Serif" font-size="10.00">shared_ptr&lt; SDL_Texture &gt;</text>
</g>
<!-- Node13&#45;&gt;Node10 -->
<g id="edge13" class="edge"><title>Node13&#45;&gt;Node10</title>
<path fill="none" stroke="#9a32cd" stroke-dasharray="5,2" d="M270.36,-416.398C303.62,-414.292 339.659,-412.01 361.406,-410.633"/>
<polygon fill="#9a32cd" stroke="#9a32cd" points="269.905,-412.92 260.146,-417.045 270.347,-419.906 269.905,-412.92"/>
<text text-anchor="middle" x="310" y="-418.36" font-family="Helvetica,sans-Serif" font-size="10.00"> texture</text>
</g>
<!-- Node14 -->
<g id="node14" class="node"><title>Node14</title>
<polygon fill="white" stroke="#bfbfbf" points="146,-373.86 146,-392.86 236,-392.86 236,-373.86 146,-373.86"/>
<text text-anchor="middle" x="191" y="-380.86" font-family="Helvetica,sans-Serif" font-size="10.00">SDL_BlendMode</text>
</g>
<!-- Node14&#45;&gt;Node10 -->
<g id="edge15" class="edge"><title>Node14&#45;&gt;Node10</title>
<path fill="none" stroke="#9a32cd" stroke-dasharray="5,2" d="M246.267,-385.034C274.96,-386.679 310.642,-389.932 342,-396.36 348.365,-397.665 355.137,-399.659 361.243,-401.697"/>
<polygon fill="#9a32cd" stroke="#9a32cd" points="246.202,-381.526 236.033,-384.498 245.836,-388.516 246.202,-381.526"/>
<text text-anchor="middle" x="310" y="-399.36" font-family="Helvetica,sans-Serif" font-size="10.00"> blendMode</text>
</g>
<!-- Node15 -->
<g id="node15" class="node"><title>Node15</title>
<g id="a_node15"><a xlink:href="structColor.html" target="_top" xlink:title="Struct para armazenar informações de cor. ">
<polygon fill="white" stroke="black" points="171,-487.86 171,-506.86 211,-506.86 211,-487.86 171,-487.86"/>
<text text-anchor="middle" x="191" y="-494.86" font-family="Helvetica,sans-Serif" font-size="10.00">Color</text>
</a>
</g>
</g>
<!-- Node15&#45;&gt;Node10 -->
<g id="edge16" class="edge"><title>Node15&#45;&gt;Node10</title>
<path fill="none" stroke="#9a32cd" stroke-dasharray="5,2" d="M221.178,-496.119C253.185,-493.519 304.928,-485.562 342,-461.36 358.328,-450.701 370.546,-430.891 376.806,-419.039"/>
<polygon fill="#9a32cd" stroke="#9a32cd" points="220.865,-492.632 211.13,-496.811 221.347,-499.616 220.865,-492.632"/>
<text text-anchor="middle" x="310" y="-489.36" font-family="Helvetica,sans-Serif" font-size="10.00"> colorMultiplier</text>
</g>
<!-- Node16 -->
<g id="node16" class="node"><title>Node16</title>
<polygon fill="white" stroke="#bfbfbf" points="0,-487.86 0,-506.86 77,-506.86 77,-487.86 0,-487.86"/>
<text text-anchor="middle" x="38.5" y="-494.86" font-family="Helvetica,sans-Serif" font-size="10.00">unsigned char</text>
</g>
<!-- Node16&#45;&gt;Node15 -->
<g id="edge17" class="edge"><title>Node16&#45;&gt;Node15</title>
<path fill="none" stroke="#9a32cd" stroke-dasharray="5,2" d="M87.2041,-497.36C115.496,-497.36 149.815,-497.36 170.771,-497.36"/>
<polygon fill="#9a32cd" stroke="#9a32cd" points="87.0893,-493.86 77.0893,-497.36 87.0892,-500.86 87.0893,-493.86"/>
<text text-anchor="middle" x="99.5" y="-533.36" font-family="Helvetica,sans-Serif" font-size="10.00"> g</text>
<text text-anchor="middle" x="99.5" y="-522.36" font-family="Helvetica,sans-Serif" font-size="10.00">a</text>
<text text-anchor="middle" x="99.5" y="-511.36" font-family="Helvetica,sans-Serif" font-size="10.00">r</text>
<text text-anchor="middle" x="99.5" y="-500.36" font-family="Helvetica,sans-Serif" font-size="10.00">b</text>
</g>
<!-- Node17 -->
<g id="node17" class="node"><title>Node17</title>
<polygon fill="white" stroke="#bfbfbf" points="565,-318.86 565,-337.86 637,-337.86 637,-318.86 565,-318.86"/>
<text text-anchor="middle" x="601" y="-325.86" font-family="Helvetica,sans-Serif" font-size="10.00">vector&lt; int &gt;</text>
</g>
<!-- Node17&#45;&gt;Node6 -->
<g id="edge19" class="edge"><title>Node17&#45;&gt;Node6</title>
<path fill="none" stroke="#9a32cd" stroke-dasharray="5,2" d="M647.498,-325.617C707.727,-321.987 811.823,-315.711 859.214,-312.854"/>
<polygon fill="#9a32cd" stroke="#9a32cd" points="646.917,-322.146 637.145,-326.241 647.338,-329.133 646.917,-322.146"/>
<text text-anchor="middle" x="737.5" y="-325.36" font-family="Helvetica,sans-Serif" font-size="10.00"> tileMatrix</text>
</g>
<!-- Node18 -->
<g id="node18" class="node"><title>Node18</title>
<polygon fill="white" stroke="#bfbfbf" points="539.5,-242.86 539.5,-261.86 662.5,-261.86 662.5,-242.86 539.5,-242.86"/>
<text text-anchor="middle" x="601" y="-249.86" font-family="Helvetica,sans-Serif" font-size="10.00">vector&lt; GameObject * &gt;</text>
</g>
<!-- Node18&#45;&gt;Node6 -->
<g id="edge20" class="edge"><title>Node18&#45;&gt;Node6</title>
<path fill="none" stroke="#9a32cd" stroke-dasharray="5,2" d="M672.942,-260.793C706.789,-265.446 747.723,-271.995 784,-280.36 810.036,-286.364 839.144,-295.694 859.211,-302.551"/>
<polygon fill="#9a32cd" stroke="#9a32cd" points="673.057,-257.277 662.679,-259.409 672.121,-264.214 673.057,-257.277"/>
<text text-anchor="middle" x="737.5" y="-283.36" font-family="Helvetica,sans-Serif" font-size="10.00"> gameObjectMatrix</text>
</g>
<!-- Node19&#45;&gt;Node1 -->
<g id="edge23" class="edge"><title>Node19&#45;&gt;Node1</title>
<path fill="none" stroke="#9a32cd" stroke-dasharray="5,2" d="M415.081,-135.412C483.815,-130.015 651.437,-122.407 784,-161.36 934.845,-205.685 963.78,-244.373 1092,-335.36 1109.82,-348.006 1128.5,-365.275 1139.43,-375.855"/>
<polygon fill="#9a32cd" stroke="#9a32cd" points="414.597,-131.94 404.92,-136.252 415.174,-138.916 414.597,-131.94"/>
<text text-anchor="middle" x="737.5" y="-164.36" font-family="Helvetica,sans-Serif" font-size="10.00"> waveStartSound</text>
</g>
<!-- Node20 -->
<g id="node20" class="node"><title>Node20</title>
<polygon fill="white" stroke="#bfbfbf" points="126,-43.8602 126,-62.8602 256,-62.8602 256,-43.8602 126,-43.8602"/>
<text text-anchor="middle" x="191" y="-50.8602" font-family="Helvetica,sans-Serif" font-size="10.00">shared_ptr&lt; Mix_Chunk &gt;</text>
</g>
<!-- Node20&#45;&gt;Node19 -->
<g id="edge25" class="edge"><title>Node20&#45;&gt;Node19</title>
<path fill="none" stroke="#9a32cd" stroke-dasharray="5,2" d="M236.434,-41.8867C268.301,-36.2999 310.918,-34.4838 342,-54.3602 368.203,-71.1166 377.347,-110.351 380.261,-128.647"/>
<polygon fill="#9a32cd" stroke="#9a32cd" points="235.647,-38.4741 226.494,-43.8104 236.977,-45.3466 235.647,-38.4741"/>
<text text-anchor="middle" x="310" y="-57.3602" font-family="Helvetica,sans-Serif" font-size="10.00"> sound</text>
</g>
<!-- Node21 -->
<g id="node21" class="node"><title>Node21</title>
<polygon fill="white" stroke="#bfbfbf" points="802,-85.8602 802,-126.86 968,-126.86 968,-85.8602 802,-85.8602"/>
<text text-anchor="start" x="810" y="-114.86" font-family="Helvetica,sans-Serif" font-size="10.00">shared_ptr&lt; std::pair</text>
<text text-anchor="start" x="810" y="-103.86" font-family="Helvetica,sans-Serif" font-size="10.00">&lt; std::vector&lt; WaveData</text>
<text text-anchor="middle" x="885" y="-92.8602" font-family="Helvetica,sans-Serif" font-size="10.00"> &gt;, std::vector&lt; EnemyData &gt; &gt; &gt;</text>
</g>
<!-- Node21&#45;&gt;Node1 -->
<g id="edge26" class="edge"><title>Node21&#45;&gt;Node1</title>
<path fill="none" stroke="#9a32cd" stroke-dasharray="5,2" d="M978.332,-94.9616C1017.8,-95.203 1061.67,-103.032 1092,-130.36 1129.66,-164.296 1145.01,-333.34 1148.3,-375.715"/>
<polygon fill="#9a32cd" stroke="#9a32cd" points="978.101,-91.4637 968.136,-95.0632 978.171,-98.4633 978.101,-91.4637"/>
<text text-anchor="middle" x="1039" y="-133.36" font-family="Helvetica,sans-Serif" font-size="10.00"> wavesAndEnemysData</text>
</g>
<!-- Node22&#45;&gt;Node1 -->
<g id="edge27" class="edge"><title>Node22&#45;&gt;Node1</title>
<path fill="none" stroke="#9a32cd" stroke-dasharray="5,2" d="M497.242,-56.9606C596.092,-23.8697 921.126,67.774 1092,-91.3602 1134.99,-131.4 1146.5,-329.876 1148.61,-375.844"/>
<polygon fill="#9a32cd" stroke="#9a32cd" points="495.951,-53.7027 487.614,-60.2401 498.208,-60.3289 495.951,-53.7027"/>
<text text-anchor="middle" x="737.5" y="-24.3602" font-family="Helvetica,sans-Serif" font-size="10.00"> spawnTimer</text>
<text text-anchor="middle" x="737.5" y="-13.3602" font-family="Helvetica,sans-Serif" font-size="10.00">betweenWavesTimer</text>
</g>
</g>
</svg>
