<?xml version="1.0" encoding="UTF-8" standalone="no"?>
<!DOCTYPE svg PUBLIC "-//W3C//DTD SVG 1.1//EN"
 "http://www.w3.org/Graphics/SVG/1.1/DTD/svg11.dtd">
<!-- Generated by graphviz version 2.38.0 (20140413.2041)
 -->
<!-- Title: StageState Pages: 1 -->
<svg width="1029pt" height="564pt"
 viewBox="0.00 0.00 1029.00 563.50" xmlns="http://www.w3.org/2000/svg" xmlns:xlink="http://www.w3.org/1999/xlink">
<g id="graph0" class="graph" transform="scale(1 1) rotate(0) translate(4 559.5)">
<title>StageState</title>
<polygon fill="white" stroke="none" points="-4,4 -4,-559.5 1025,-559.5 1025,4 -4,4"/>
<!-- Node1 -->
<g id="node1" class="node"><title>Node1</title>
<polygon fill="#bfbfbf" stroke="black" points="956,-237.5 956,-256.5 1021,-256.5 1021,-237.5 956,-237.5"/>
<text text-anchor="middle" x="988.5" y="-244.5" font-family="Helvetica,sans-Serif" font-size="10.00">StageState</text>
</g>
<!-- Node2 -->
<g id="node2" class="node"><title>Node2</title>
<g id="a_node2"><a xlink:href="classState.html" target="_top" xlink:title="Classe virtual que modela um estado do jogo. ">
<polygon fill="white" stroke="black" points="800,-485.5 800,-504.5 840,-504.5 840,-485.5 800,-485.5"/>
<text text-anchor="middle" x="820" y="-492.5" font-family="Helvetica,sans-Serif" font-size="10.00">State</text>
</a>
</g>
</g>
<!-- Node2&#45;&gt;Node1 -->
<g id="edge1" class="edge"><title>Node2&#45;&gt;Node1</title>
<path fill="none" stroke="midnightblue" d="M838.043,-478.355C862.531,-453.764 908.016,-405.492 938,-358 960.078,-323.03 977.365,-276.542 984.256,-256.671"/>
<polygon fill="midnightblue" stroke="midnightblue" points="835.503,-475.945 830.876,-485.477 840.437,-480.911 835.503,-475.945"/>
</g>
<!-- Node3 -->
<g id="node3" class="node"><title>Node3</title>
<polygon fill="white" stroke="#bfbfbf" points="536.5,-525 536.5,-555 651.5,-555 651.5,-525 536.5,-525"/>
<text text-anchor="start" x="544.5" y="-543" font-family="Helvetica,sans-Serif" font-size="10.00">vector&lt; std::unique</text>
<text text-anchor="middle" x="594" y="-532" font-family="Helvetica,sans-Serif" font-size="10.00">_ptr&lt; GameObject &gt; &gt;</text>
</g>
<!-- Node3&#45;&gt;Node2 -->
<g id="edge2" class="edge"><title>Node3&#45;&gt;Node2</title>
<path fill="none" stroke="#9a32cd" stroke-dasharray="5,2" d="M661.651,-535.452C693.081,-532.264 730.87,-526.911 764,-518 776.293,-514.693 789.47,-509.255 799.844,-504.496"/>
<polygon fill="#9a32cd" stroke="#9a32cd" points="661.301,-531.97 651.683,-536.414 661.973,-538.938 661.301,-531.97"/>
<text text-anchor="middle" x="720" y="-536" font-family="Helvetica,sans-Serif" font-size="10.00"> objectArray</text>
</g>
<!-- Node4 -->
<g id="node4" class="node"><title>Node4</title>
<polygon fill="white" stroke="#bfbfbf" points="576.5,-406.5 576.5,-425.5 611.5,-425.5 611.5,-406.5 576.5,-406.5"/>
<text text-anchor="middle" x="594" y="-413.5" font-family="Helvetica,sans-Serif" font-size="10.00">bool</text>
</g>
<!-- Node4&#45;&gt;Node2 -->
<g id="edge3" class="edge"><title>Node4&#45;&gt;Node2</title>
<path fill="none" stroke="#9a32cd" stroke-dasharray="5,2" d="M621.39,-425.504C637.217,-431.19 657.75,-438.542 676,-445 720.133,-460.616 772.028,-478.689 799.555,-488.252"/>
<polygon fill="#9a32cd" stroke="#9a32cd" points="622.336,-422.125 611.741,-422.035 619.967,-428.712 622.336,-422.125"/>
<text text-anchor="middle" x="720" y="-489" font-family="Helvetica,sans-Serif" font-size="10.00"> quitRequested</text>
<text text-anchor="middle" x="720" y="-478" font-family="Helvetica,sans-Serif" font-size="10.00">popRequested</text>
</g>
<!-- Node16 -->
<g id="node16" class="node"><title>Node16</title>
<g id="a_node16"><a xlink:href="classTileMap.html" target="_top" xlink:title="Classe que modela o TileMap. ">
<polygon fill="white" stroke="black" points="794.5,-269.5 794.5,-288.5 845.5,-288.5 845.5,-269.5 794.5,-269.5"/>
<text text-anchor="middle" x="820" y="-276.5" font-family="Helvetica,sans-Serif" font-size="10.00">TileMap</text>
</a>
</g>
</g>
<!-- Node4&#45;&gt;Node16 -->
<g id="edge23" class="edge"><title>Node4&#45;&gt;Node16</title>
<path fill="none" stroke="#9a32cd" stroke-dasharray="5,2" d="M621.007,-405.458C655.304,-390.969 716.82,-362.919 764,-330 781.728,-317.631 799.591,-299.859 809.96,-288.892"/>
<polygon fill="#9a32cd" stroke="#9a32cd" points="619.57,-402.265 611.687,-409.344 622.264,-408.726 619.57,-402.265"/>
<text text-anchor="middle" x="720" y="-382" font-family="Helvetica,sans-Serif" font-size="10.00"> displayCollisionInfo</text>
</g>
<!-- Node19 -->
<g id="node19" class="node"><title>Node19</title>
<g id="a_node19"><a xlink:href="classInputManager.html" target="_top" xlink:title="Classe que organiza entradas do usuário. ">
<polygon fill="white" stroke="black" points="782,-385.5 782,-404.5 858,-404.5 858,-385.5 782,-385.5"/>
<text text-anchor="middle" x="820" y="-392.5" font-family="Helvetica,sans-Serif" font-size="10.00">InputManager</text>
</a>
</g>
</g>
<!-- Node4&#45;&gt;Node19 -->
<g id="edge28" class="edge"><title>Node4&#45;&gt;Node19</title>
<path fill="none" stroke="#9a32cd" stroke-dasharray="5,2" d="M621.871,-413.481C661.756,-409.742 736.754,-402.711 781.864,-398.482"/>
<polygon fill="#9a32cd" stroke="#9a32cd" points="621.466,-410.003 611.836,-414.422 622.119,-416.973 621.466,-410.003"/>
<text text-anchor="middle" x="720" y="-433" font-family="Helvetica,sans-Serif" font-size="10.00"> keyState</text>
<text text-anchor="middle" x="720" y="-422" font-family="Helvetica,sans-Serif" font-size="10.00">quitRequested</text>
<text text-anchor="middle" x="720" y="-411" font-family="Helvetica,sans-Serif" font-size="10.00">mouseState</text>
</g>
<!-- Node5 -->
<g id="node5" class="node"><title>Node5</title>
<g id="a_node5"><a xlink:href="classMusic.html" target="_top" xlink:title="Classe que modela músicas. ">
<polygon fill="white" stroke="black" points="798.5,-116.5 798.5,-135.5 841.5,-135.5 841.5,-116.5 798.5,-116.5"/>
<text text-anchor="middle" x="820" y="-123.5" font-family="Helvetica,sans-Serif" font-size="10.00">Music</text>
</a>
</g>
</g>
<!-- Node5&#45;&gt;Node1 -->
<g id="edge4" class="edge"><title>Node5&#45;&gt;Node1</title>
<path fill="none" stroke="#9a32cd" stroke-dasharray="5,2" d="M851.978,-121.59C877.435,-119.672 913.216,-121.087 938,-139 971.433,-163.164 982.839,-215.49 986.23,-237.226"/>
<polygon fill="#9a32cd" stroke="#9a32cd" points="851.379,-118.131 841.763,-122.577 852.053,-125.099 851.379,-118.131"/>
<text text-anchor="middle" x="907" y="-142" font-family="Helvetica,sans-Serif" font-size="10.00"> music</text>
</g>
<!-- Node6 -->
<g id="node6" class="node"><title>Node6</title>
<polygon fill="white" stroke="#bfbfbf" points="530,-116.5 530,-135.5 658,-135.5 658,-116.5 530,-116.5"/>
<text text-anchor="middle" x="594" y="-123.5" font-family="Helvetica,sans-Serif" font-size="10.00">shared_ptr&lt; Mix_Music &gt;</text>
</g>
<!-- Node6&#45;&gt;Node5 -->
<g id="edge5" class="edge"><title>Node6&#45;&gt;Node5</title>
<path fill="none" stroke="#9a32cd" stroke-dasharray="5,2" d="M668.421,-126C713.865,-126 768.961,-126 798.283,-126"/>
<polygon fill="#9a32cd" stroke="#9a32cd" points="668.291,-122.5 658.291,-126 668.291,-129.5 668.291,-122.5"/>
<text text-anchor="middle" x="720" y="-129" font-family="Helvetica,sans-Serif" font-size="10.00"> music</text>
</g>
<!-- Node7 -->
<g id="node7" class="node"><title>Node7</title>
<g id="a_node7"><a xlink:href="classSprite.html" target="_top" xlink:title="Classe que modela uma sprite. ">
<polygon fill="white" stroke="black" points="361.5,-154.5 361.5,-173.5 403.5,-173.5 403.5,-154.5 361.5,-154.5"/>
<text text-anchor="middle" x="382.5" y="-161.5" font-family="Helvetica,sans-Serif" font-size="10.00">Sprite</text>
</a>
</g>
</g>
<!-- Node7&#45;&gt;Node1 -->
<g id="edge6" class="edge"><title>Node7&#45;&gt;Node1</title>
<path fill="none" stroke="#9a32cd" stroke-dasharray="5,2" d="M414.225,-164.809C479.239,-166.926 635.323,-174.155 764,-197 832.902,-209.232 912.703,-228.278 955.849,-238.987"/>
<polygon fill="#9a32cd" stroke="#9a32cd" points="413.982,-161.3 403.879,-164.491 413.767,-168.297 413.982,-161.3"/>
<text text-anchor="middle" x="720" y="-200" font-family="Helvetica,sans-Serif" font-size="10.00"> bg</text>
</g>
<!-- Node15 -->
<g id="node15" class="node"><title>Node15</title>
<g id="a_node15"><a xlink:href="classTileSet.html" target="_top" xlink:title="Classe responsável por modelar um tileset. ">
<polygon fill="white" stroke="black" points="570.5,-233.5 570.5,-252.5 617.5,-252.5 617.5,-233.5 570.5,-233.5"/>
<text text-anchor="middle" x="594" y="-240.5" font-family="Helvetica,sans-Serif" font-size="10.00">TileSet</text>
</a>
</g>
</g>
<!-- Node7&#45;&gt;Node15 -->
<g id="edge16" class="edge"><title>Node7&#45;&gt;Node15</title>
<path fill="none" stroke="#9a32cd" stroke-dasharray="5,2" d="M413.113,-175.873C442.622,-187.622 489.284,-205.975 530,-221 543.369,-225.933 558.434,-231.205 570.48,-235.35"/>
<polygon fill="#9a32cd" stroke="#9a32cd" points="414.381,-172.611 403.796,-172.157 411.787,-179.113 414.381,-172.611"/>
<text text-anchor="middle" x="467.5" y="-217" font-family="Helvetica,sans-Serif" font-size="10.00"> tileSet</text>
</g>
<!-- Node8 -->
<g id="node8" class="node"><title>Node8</title>
<polygon fill="white" stroke="#bfbfbf" points="0,-60.5 0,-79.5 77,-79.5 77,-60.5 0,-60.5"/>
<text text-anchor="middle" x="38.5" y="-67.5" font-family="Helvetica,sans-Serif" font-size="10.00">unsigned char</text>
</g>
<!-- Node8&#45;&gt;Node7 -->
<g id="edge7" class="edge"><title>Node8&#45;&gt;Node7</title>
<path fill="none" stroke="#9a32cd" stroke-dasharray="5,2" d="M86.9555,-78.6794C89.6753,-79.1367 92.3715,-79.5802 95,-80 206.253,-97.7695 242.931,-83.35 342,-137 351.35,-142.063 361.225,-148.813 368.762,-154.297"/>
<polygon fill="#9a32cd" stroke="#9a32cd" points="87.5307,-75.227 77.082,-76.9802 86.3435,-82.1256 87.5307,-75.227"/>
<text text-anchor="middle" x="191" y="-106" font-family="Helvetica,sans-Serif" font-size="10.00"> alpha</text>
</g>
<!-- Node14 -->
<g id="node14" class="node"><title>Node14</title>
<g id="a_node14"><a xlink:href="structColor.html" target="_top" xlink:title="Struct para armazenar informações de cor. ">
<polygon fill="white" stroke="black" points="171,-38.5 171,-57.5 211,-57.5 211,-38.5 171,-38.5"/>
<text text-anchor="middle" x="191" y="-45.5" font-family="Helvetica,sans-Serif" font-size="10.00">Color</text>
</a>
</g>
</g>
<!-- Node8&#45;&gt;Node14 -->
<g id="edge14" class="edge"><title>Node8&#45;&gt;Node14</title>
<path fill="none" stroke="#9a32cd" stroke-dasharray="5,2" d="M66.7777,-56.2033C75.5608,-52.4462 85.4866,-48.8932 95,-47 120.883,-41.8493 151.521,-43.5276 170.861,-45.5106"/>
<polygon fill="#9a32cd" stroke="#9a32cd" points="65.0838,-53.1286 57.4297,-60.4542 67.9816,-59.5007 65.0838,-53.1286"/>
<text text-anchor="middle" x="99.5" y="-72" font-family="Helvetica,sans-Serif" font-size="10.00"> g</text>
<text text-anchor="middle" x="99.5" y="-61" font-family="Helvetica,sans-Serif" font-size="10.00">r</text>
<text text-anchor="middle" x="99.5" y="-50" font-family="Helvetica,sans-Serif" font-size="10.00">b</text>
</g>
<!-- Node9 -->
<g id="node9" class="node"><title>Node9</title>
<polygon fill="white" stroke="#bfbfbf" points="173.5,-368.5 173.5,-387.5 208.5,-387.5 208.5,-368.5 173.5,-368.5"/>
<text text-anchor="middle" x="191" y="-375.5" font-family="Helvetica,sans-Serif" font-size="10.00">float</text>
</g>
<!-- Node9&#45;&gt;Node7 -->
<g id="edge8" class="edge"><title>Node9&#45;&gt;Node7</title>
<path fill="none" stroke="#9a32cd" stroke-dasharray="5,2" d="M215.417,-362.883C247.522,-341.177 305.383,-298.421 342,-250 360.631,-225.363 373.2,-190.531 378.563,-173.765"/>
<polygon fill="#9a32cd" stroke="#9a32cd" points="213.466,-359.978 207.084,-368.435 217.347,-365.803 213.466,-359.978"/>
<text text-anchor="middle" x="310" y="-352" font-family="Helvetica,sans-Serif" font-size="10.00"> scaleY</text>
<text text-anchor="middle" x="310" y="-341" font-family="Helvetica,sans-Serif" font-size="10.00">frameTime</text>
<text text-anchor="middle" x="310" y="-330" font-family="Helvetica,sans-Serif" font-size="10.00">timeElapsed</text>
<text text-anchor="middle" x="310" y="-319" font-family="Helvetica,sans-Serif" font-size="10.00">scaleX</text>
</g>
<!-- Node20 -->
<g id="node20" class="node"><title>Node20</title>
<g id="a_node20"><a xlink:href="classVec2.html" target="_top" xlink:title="Classe que modela um vetor(no sentido físico) ">
<polygon fill="white" stroke="black" points="448,-450.5 448,-469.5 487,-469.5 487,-450.5 448,-450.5"/>
<text text-anchor="middle" x="467.5" y="-457.5" font-family="Helvetica,sans-Serif" font-size="10.00">Vec2</text>
</a>
</g>
</g>
<!-- Node9&#45;&gt;Node20 -->
<g id="edge26" class="edge"><title>Node9&#45;&gt;Node20</title>
<path fill="none" stroke="#9a32cd" stroke-dasharray="5,2" d="M218.519,-385.922C273.794,-402.434 400.14,-440.177 447.821,-454.42"/>
<polygon fill="#9a32cd" stroke="#9a32cd" points="219.341,-382.515 208.758,-383.006 217.338,-389.222 219.341,-382.515"/>
<text text-anchor="middle" x="310" y="-437" font-family="Helvetica,sans-Serif" font-size="10.00"> x</text>
<text text-anchor="middle" x="310" y="-426" font-family="Helvetica,sans-Serif" font-size="10.00">y</text>
</g>
<!-- Node10 -->
<g id="node10" class="node"><title>Node10</title>
<polygon fill="white" stroke="#bfbfbf" points="160,-161.5 160,-180.5 222,-180.5 222,-161.5 160,-161.5"/>
<text text-anchor="middle" x="191" y="-168.5" font-family="Helvetica,sans-Serif" font-size="10.00">SDL_Rect</text>
</g>
<!-- Node10&#45;&gt;Node7 -->
<g id="edge9" class="edge"><title>Node10&#45;&gt;Node7</title>
<path fill="none" stroke="#9a32cd" stroke-dasharray="5,2" d="M232.165,-169.516C271.84,-168.051 330.894,-165.869 361.496,-164.739"/>
<polygon fill="#9a32cd" stroke="#9a32cd" points="231.891,-166.024 222.027,-169.891 232.149,-173.019 231.891,-166.024"/>
<text text-anchor="middle" x="310" y="-171" font-family="Helvetica,sans-Serif" font-size="10.00"> clipRect</text>
</g>
<!-- Node11 -->
<g id="node11" class="node"><title>Node11</title>
<polygon fill="white" stroke="#bfbfbf" points="176.5,-263.5 176.5,-282.5 205.5,-282.5 205.5,-263.5 176.5,-263.5"/>
<text text-anchor="middle" x="191" y="-270.5" font-family="Helvetica,sans-Serif" font-size="10.00">int</text>
</g>
<!-- Node11&#45;&gt;Node7 -->
<g id="edge10" class="edge"><title>Node11&#45;&gt;Node7</title>
<path fill="none" stroke="#9a32cd" stroke-dasharray="5,2" d="M208.433,-256.444C224.845,-240.671 251.395,-217.148 278,-202 304.267,-187.045 313.648,-189.477 342,-179 348.33,-176.661 355.212,-174.066 361.431,-171.701"/>
<polygon fill="#9a32cd" stroke="#9a32cd" points="205.93,-253.996 201.235,-263.493 210.828,-258.997 205.93,-253.996"/>
<text text-anchor="middle" x="310" y="-238" font-family="Helvetica,sans-Serif" font-size="10.00"> width</text>
<text text-anchor="middle" x="310" y="-227" font-family="Helvetica,sans-Serif" font-size="10.00">currentFrame</text>
<text text-anchor="middle" x="310" y="-216" font-family="Helvetica,sans-Serif" font-size="10.00">height</text>
<text text-anchor="middle" x="310" y="-205" font-family="Helvetica,sans-Serif" font-size="10.00">frameCount</text>
</g>
<!-- Node11&#45;&gt;Node15 -->
<g id="edge17" class="edge"><title>Node11&#45;&gt;Node15</title>
<path fill="none" stroke="#9a32cd" stroke-dasharray="5,2" d="M216.098,-271.197C288.03,-265.816 500.534,-249.918 570.431,-244.688"/>
<polygon fill="#9a32cd" stroke="#9a32cd" points="215.514,-267.731 205.803,-271.967 216.037,-274.711 215.514,-267.731"/>
<text text-anchor="middle" x="382.5" y="-296" font-family="Helvetica,sans-Serif" font-size="10.00"> tileHeight</text>
<text text-anchor="middle" x="382.5" y="-285" font-family="Helvetica,sans-Serif" font-size="10.00">rows</text>
<text text-anchor="middle" x="382.5" y="-274" font-family="Helvetica,sans-Serif" font-size="10.00">tileWidth</text>
<text text-anchor="middle" x="382.5" y="-263" font-family="Helvetica,sans-Serif" font-size="10.00">columns</text>
</g>
<!-- Node11&#45;&gt;Node16 -->
<g id="edge22" class="edge"><title>Node11&#45;&gt;Node16</title>
<path fill="none" stroke="#9a32cd" stroke-dasharray="5,2" d="M215.968,-276.61C245.697,-281.25 297.853,-289.918 342,-300 350.095,-301.849 351.773,-303.879 360,-305 379.817,-307.701 385.001,-305.198 405,-305 517.461,-303.889 545.58,-303.232 658,-300 705.125,-298.645 717.525,-303.918 764,-296 774.148,-294.271 785.033,-291.181 794.42,-288.106"/>
<polygon fill="#9a32cd" stroke="#9a32cd" points="216.152,-273.098 205.736,-275.035 215.087,-280.016 216.152,-273.098"/>
<text text-anchor="middle" x="467.5" y="-330" font-family="Helvetica,sans-Serif" font-size="10.00"> mapDepth</text>
<text text-anchor="middle" x="467.5" y="-319" font-family="Helvetica,sans-Serif" font-size="10.00">mapHeight</text>
<text text-anchor="middle" x="467.5" y="-308" font-family="Helvetica,sans-Serif" font-size="10.00">mapWidth</text>
</g>
<!-- Node11&#45;&gt;Node19 -->
<g id="edge27" class="edge"><title>Node11&#45;&gt;Node19</title>
<path fill="none" stroke="#9a32cd" stroke-dasharray="5,2" d="M203.04,-291.408C217.279,-313.21 244.27,-348.518 278,-364 301.656,-374.858 486.012,-373.543 512,-375 609.323,-380.457 723.906,-388.298 781.679,-392.35"/>
<polygon fill="#9a32cd" stroke="#9a32cd" points="205.865,-289.324 197.577,-282.724 199.94,-293.052 205.865,-289.324"/>
<text text-anchor="middle" x="467.5" y="-433" font-family="Helvetica,sans-Serif" font-size="10.00"> keyUpdate</text>
<text text-anchor="middle" x="467.5" y="-422" font-family="Helvetica,sans-Serif" font-size="10.00">mouseX</text>
<text text-anchor="middle" x="467.5" y="-411" font-family="Helvetica,sans-Serif" font-size="10.00">mouseY</text>
<text text-anchor="middle" x="467.5" y="-400" font-family="Helvetica,sans-Serif" font-size="10.00">mouseScroolUpdate</text>
<text text-anchor="middle" x="467.5" y="-389" font-family="Helvetica,sans-Serif" font-size="10.00">updateCounter</text>
<text text-anchor="middle" x="467.5" y="-378" font-family="Helvetica,sans-Serif" font-size="10.00">mouseUpdate</text>
</g>
<!-- Node12 -->
<g id="node12" class="node"><title>Node12</title>
<polygon fill="white" stroke="#bfbfbf" points="122,-123.5 122,-142.5 260,-142.5 260,-123.5 122,-123.5"/>
<text text-anchor="middle" x="191" y="-130.5" font-family="Helvetica,sans-Serif" font-size="10.00">shared_ptr&lt; SDL_Texture &gt;</text>
</g>
<!-- Node12&#45;&gt;Node7 -->
<g id="edge11" class="edge"><title>Node12&#45;&gt;Node7</title>
<path fill="none" stroke="#9a32cd" stroke-dasharray="5,2" d="M270.227,-139.416C293.487,-142.121 318.916,-145.87 342,-151 348.343,-152.41 355.108,-154.435 361.214,-156.469"/>
<polygon fill="#9a32cd" stroke="#9a32cd" points="270.385,-135.912 260.059,-138.283 269.61,-142.869 270.385,-135.912"/>
<text text-anchor="middle" x="310" y="-154" font-family="Helvetica,sans-Serif" font-size="10.00"> texture</text>
</g>
<!-- Node13 -->
<g id="node13" class="node"><title>Node13</title>
<polygon fill="white" stroke="#bfbfbf" points="146,-0.5 146,-19.5 236,-19.5 236,-0.5 146,-0.5"/>
<text text-anchor="middle" x="191" y="-7.5" font-family="Helvetica,sans-Serif" font-size="10.00">SDL_BlendMode</text>
</g>
<!-- Node13&#45;&gt;Node7 -->
<g id="edge12" class="edge"><title>Node13&#45;&gt;Node7</title>
<path fill="none" stroke="#9a32cd" stroke-dasharray="5,2" d="M246.539,-4.0473C277.917,-3.64879 316.124,-8.73214 342,-31 379.61,-63.3661 382.269,-129.763 381.872,-154.465"/>
<polygon fill="#9a32cd" stroke="#9a32cd" points="246.072,-0.560273 236.188,-4.37569 246.294,-7.55675 246.072,-0.560273"/>
<text text-anchor="middle" x="310" y="-34" font-family="Helvetica,sans-Serif" font-size="10.00"> blendMode</text>
</g>
<!-- Node14&#45;&gt;Node7 -->
<g id="edge13" class="edge"><title>Node14&#45;&gt;Node7</title>
<path fill="none" stroke="#9a32cd" stroke-dasharray="5,2" d="M221.651,-44.0749C254.51,-41.4005 307.417,-42.2747 342,-69 369.702,-90.4074 378.139,-134.722 380.573,-154.318"/>
<polygon fill="#9a32cd" stroke="#9a32cd" points="220.943,-40.6274 211.331,-45.0857 221.625,-47.5941 220.943,-40.6274"/>
<text text-anchor="middle" x="310" y="-72" font-family="Helvetica,sans-Serif" font-size="10.00"> colorMultiplier</text>
</g>
<!-- Node15&#45;&gt;Node1 -->
<g id="edge15" class="edge"><title>Node15&#45;&gt;Node1</title>
<path fill="none" stroke="#9a32cd" stroke-dasharray="5,2" d="M627.67,-243.333C701.921,-244.09 882.582,-245.931 955.849,-246.677"/>
<polygon fill="#9a32cd" stroke="#9a32cd" points="627.547,-239.832 617.512,-243.229 627.476,-246.831 627.547,-239.832"/>
<text text-anchor="middle" x="820" y="-249" font-family="Helvetica,sans-Serif" font-size="10.00"> tileSet</text>
</g>
<!-- Node15&#45;&gt;Node16 -->
<g id="edge19" class="edge"><title>Node15&#45;&gt;Node16</title>
<path fill="none" stroke="#9a32cd" stroke-dasharray="5,2" d="M627.887,-246.102C662.08,-249.603 717.064,-256.005 764,-265 773.967,-266.91 784.817,-269.55 794.227,-272.022"/>
<polygon fill="#9a32cd" stroke="#9a32cd" points="627.852,-242.581 617.553,-245.068 627.155,-249.547 627.852,-242.581"/>
<text text-anchor="middle" x="720" y="-268" font-family="Helvetica,sans-Serif" font-size="10.00"> tileSet</text>
</g>
<!-- Node16&#45;&gt;Node1 -->
<g id="edge18" class="edge"><title>Node16&#45;&gt;Node1</title>
<path fill="none" stroke="#9a32cd" stroke-dasharray="5,2" d="M855.457,-272.378C885.034,-266.693 927.311,-258.568 955.999,-253.054"/>
<polygon fill="#9a32cd" stroke="#9a32cd" points="854.727,-268.954 845.568,-274.278 856.049,-275.828 854.727,-268.954"/>
<text text-anchor="middle" x="907" y="-271" font-family="Helvetica,sans-Serif" font-size="10.00"> tileMap</text>
</g>
<!-- Node17 -->
<g id="node17" class="node"><title>Node17</title>
<polygon fill="white" stroke="#bfbfbf" points="558,-271.5 558,-290.5 630,-290.5 630,-271.5 558,-271.5"/>
<text text-anchor="middle" x="594" y="-278.5" font-family="Helvetica,sans-Serif" font-size="10.00">vector&lt; int &gt;</text>
</g>
<!-- Node17&#45;&gt;Node16 -->
<g id="edge20" class="edge"><title>Node17&#45;&gt;Node16</title>
<path fill="none" stroke="#9a32cd" stroke-dasharray="5,2" d="M640.607,-280.593C687.097,-280.178 757.471,-279.549 794.398,-279.22"/>
<polygon fill="#9a32cd" stroke="#9a32cd" points="640.462,-277.094 630.493,-280.683 640.524,-284.094 640.462,-277.094"/>
<text text-anchor="middle" x="720" y="-284" font-family="Helvetica,sans-Serif" font-size="10.00"> tileMatrix</text>
</g>
<!-- Node18 -->
<g id="node18" class="node"><title>Node18</title>
<polygon fill="white" stroke="#bfbfbf" points="532.5,-192.5 532.5,-211.5 655.5,-211.5 655.5,-192.5 532.5,-192.5"/>
<text text-anchor="middle" x="594" y="-199.5" font-family="Helvetica,sans-Serif" font-size="10.00">vector&lt; GameObject * &gt;</text>
</g>
<!-- Node18&#45;&gt;Node16 -->
<g id="edge21" class="edge"><title>Node18&#45;&gt;Node16</title>
<path fill="none" stroke="#9a32cd" stroke-dasharray="5,2" d="M665.625,-209.43C696.795,-214.505 733.255,-222.967 764,-237 781.706,-245.082 799.028,-259.754 809.361,-269.439"/>
<polygon fill="#9a32cd" stroke="#9a32cd" points="666.121,-205.965 655.704,-207.898 665.053,-212.883 666.121,-205.965"/>
<text text-anchor="middle" x="720" y="-240" font-family="Helvetica,sans-Serif" font-size="10.00"> gameObjectMatrix</text>
</g>
<!-- Node19&#45;&gt;Node1 -->
<g id="edge24" class="edge"><title>Node19&#45;&gt;Node1</title>
<path fill="none" stroke="#9a32cd" stroke-dasharray="5,2" d="M839.511,-378.546C874.417,-347.518 948.951,-281.265 976.752,-256.554"/>
<polygon fill="#9a32cd" stroke="#9a32cd" points="837.073,-376.03 831.925,-385.289 841.724,-381.262 837.073,-376.03"/>
<text text-anchor="middle" x="907" y="-346" font-family="Helvetica,sans-Serif" font-size="10.00"> inputManager</text>
</g>
<!-- Node20&#45;&gt;Node19 -->
<g id="edge25" class="edge"><title>Node20&#45;&gt;Node19</title>
<path fill="none" stroke="#9a32cd" stroke-dasharray="5,2" d="M497.04,-464.682C551.426,-472.308 672.629,-483.015 764,-445 784.493,-436.474 802.276,-416.834 811.74,-404.863"/>
<polygon fill="#9a32cd" stroke="#9a32cd" points="497.486,-461.21 487.082,-463.213 496.465,-468.135 497.486,-461.21"/>
<text text-anchor="middle" x="594" y="-476" font-family="Helvetica,sans-Serif" font-size="10.00"> mouseScroolState</text>
</g>
</g>
</svg>
