<?xml version="1.0" encoding="UTF-8" standalone="no"?>
<!DOCTYPE svg PUBLIC "-//W3C//DTD SVG 1.1//EN"
 "http://www.w3.org/Graphics/SVG/1.1/DTD/svg11.dtd">
<!-- Generated by graphviz version 2.38.0 (20140413.2041)
 -->
<!-- Title: Minion Pages: 1 -->
<svg width="411pt" height="262pt"
 viewBox="0.00 0.00 410.86 262.00" xmlns="http://www.w3.org/2000/svg" xmlns:xlink="http://www.w3.org/1999/xlink">
<g id="graph0" class="graph" transform="scale(1 1) rotate(0) translate(4 258)">
<title>Minion</title>
<polygon fill="white" stroke="none" points="-4,4 -4,-258 406.858,-258 406.858,4 -4,4"/>
<!-- Node1 -->
<g id="node1" class="node"><title>Node1</title>
<polygon fill="#bfbfbf" stroke="black" points="106.358,-0.5 106.358,-19.5 151.358,-19.5 151.358,-0.5 106.358,-0.5"/>
<text text-anchor="middle" x="128.858" y="-7.5" font-family="Helvetica,sans-Serif" font-size="10.00">Minion</text>
</g>
<!-- Node2 -->
<g id="node2" class="node"><title>Node2</title>
<g id="a_node2"><a xlink:href="classGameObject.html" target="_top" xlink:title="GameObject">
<polygon fill="white" stroke="black" points="94.3578,-67.5 94.3578,-86.5 165.358,-86.5 165.358,-67.5 94.3578,-67.5"/>
<text text-anchor="middle" x="129.858" y="-74.5" font-family="Helvetica,sans-Serif" font-size="10.00">GameObject</text>
</a>
</g>
</g>
<!-- Node2&#45;&gt;Node1 -->
<g id="edge1" class="edge"><title>Node2&#45;&gt;Node1</title>
<path fill="none" stroke="midnightblue" d="M127.465,-56.8471C127.214,-54.2144 126.999,-51.5429 126.858,-49 126.302,-38.9737 127.112,-27.4572 127.861,-19.7547"/>
<polygon fill="midnightblue" stroke="midnightblue" points="124.013,-57.4742 128.608,-67.0208 130.97,-56.6925 124.013,-57.4742"/>
</g>
<!-- Node2&#45;&gt;Node1 -->
<g id="edge6" class="edge"><title>Node2&#45;&gt;Node1</title>
<path fill="none" stroke="#9a32cd" stroke-dasharray="5,2" d="M129.566,-57.037C129.376,-44.6703 129.137,-29.1198 128.99,-19.6273"/>
<polygon fill="#9a32cd" stroke="#9a32cd" points="126.069,-57.2889 129.723,-67.2338 133.069,-57.1811 126.069,-57.2889"/>
<text text-anchor="middle" x="145.358" y="-41" font-family="Helvetica,sans-Serif" font-size="10.00"> center</text>
</g>
<!-- Node3 -->
<g id="node3" class="node"><title>Node3</title>
<g id="a_node3"><a xlink:href="classRect.html" target="_top" xlink:title="Classe que modela um rect. ">
<polygon fill="white" stroke="black" points="207.858,-134.5 207.858,-153.5 245.858,-153.5 245.858,-134.5 207.858,-134.5"/>
<text text-anchor="middle" x="226.858" y="-141.5" font-family="Helvetica,sans-Serif" font-size="10.00">Rect</text>
</a>
</g>
</g>
<!-- Node3&#45;&gt;Node2 -->
<g id="edge2" class="edge"><title>Node3&#45;&gt;Node2</title>
<path fill="none" stroke="#9a32cd" stroke-dasharray="5,2" d="M213.656,-126.326C207.325,-119.1 199.29,-110.951 190.858,-105 179.976,-97.3206 166.561,-91.0921 155.085,-86.5607"/>
<polygon fill="#9a32cd" stroke="#9a32cd" points="211.132,-128.764 220.228,-134.197 216.506,-124.278 211.132,-128.764"/>
<text text-anchor="middle" x="213.358" y="-108" font-family="Helvetica,sans-Serif" font-size="10.00"> box</text>
</g>
<!-- Node4 -->
<g id="node4" class="node"><title>Node4</title>
<polygon fill="white" stroke="#bfbfbf" points="15.3578,-234.5 15.3578,-253.5 50.3578,-253.5 50.3578,-234.5 15.3578,-234.5"/>
<text text-anchor="middle" x="32.8578" y="-241.5" font-family="Helvetica,sans-Serif" font-size="10.00">float</text>
</g>
<!-- Node4&#45;&gt;Node1 -->
<g id="edge7" class="edge"><title>Node4&#45;&gt;Node1</title>
<path fill="none" stroke="#9a32cd" stroke-dasharray="5,2" d="M17.4145,-226.566C15.134,-223.284 13.1273,-219.7 11.8578,-216 -4.19424,-169.216 -5.21427,-147.636 19.8578,-105 43.1646,-65.366 89.2774,-34.1453 113.372,-19.7188"/>
<polygon fill="#9a32cd" stroke="#9a32cd" points="14.7606,-228.851 23.7718,-234.423 20.2023,-224.447 14.7606,-228.851"/>
<text text-anchor="middle" x="28.3578" y="-108" font-family="Helvetica,sans-Serif" font-size="10.00"> arc</text>
</g>
<!-- Node4&#45;&gt;Node2 -->
<g id="edge4" class="edge"><title>Node4&#45;&gt;Node2</title>
<path fill="none" stroke="#9a32cd" stroke-dasharray="5,2" d="M25.5066,-224.796C17.5219,-201.872 8.00252,-162.092 24.8578,-134 39.8983,-108.932 70.3911,-94.4675 94.659,-86.5427"/>
<polygon fill="#9a32cd" stroke="#9a32cd" points="22.2846,-226.172 29.0739,-234.306 28.8387,-223.714 22.2846,-226.172"/>
<text text-anchor="middle" x="42.8578" y="-141.5" font-family="Helvetica,sans-Serif" font-size="10.00"> rotation</text>
</g>
<!-- Node4&#45;&gt;Node3 -->
<g id="edge3" class="edge"><title>Node4&#45;&gt;Node3</title>
<path fill="none" stroke="#9a32cd" stroke-dasharray="5,2" d="M33.2891,-224.368C34.7378,-207.981 39.5924,-184.8 54.8578,-172 79.4005,-151.421 166.553,-160.773 197.858,-154 201.052,-153.309 204.4,-152.425 207.64,-151.481"/>
<polygon fill="#9a32cd" stroke="#9a32cd" points="29.7909,-224.242 32.7442,-234.417 36.7806,-224.621 29.7909,-224.242"/>
<text text-anchor="middle" x="60.3578" y="-208" font-family="Helvetica,sans-Serif" font-size="10.00"> w</text>
<text text-anchor="middle" x="60.3578" y="-197" font-family="Helvetica,sans-Serif" font-size="10.00">x</text>
<text text-anchor="middle" x="60.3578" y="-186" font-family="Helvetica,sans-Serif" font-size="10.00">h</text>
<text text-anchor="middle" x="60.3578" y="-175" font-family="Helvetica,sans-Serif" font-size="10.00">y</text>
</g>
<!-- Node6 -->
<g id="node6" class="node"><title>Node6</title>
<g id="a_node6"><a xlink:href="classSprite.html" target="_top" xlink:title="Classe que modela uma sprite. ">
<polygon fill="white" stroke="black" points="263.858,-134.5 263.858,-153.5 305.858,-153.5 305.858,-134.5 263.858,-134.5"/>
<text text-anchor="middle" x="284.858" y="-141.5" font-family="Helvetica,sans-Serif" font-size="10.00">Sprite</text>
</a>
</g>
</g>
<!-- Node4&#45;&gt;Node6 -->
<g id="edge9" class="edge"><title>Node4&#45;&gt;Node6</title>
<path fill="none" stroke="#9a32cd" stroke-dasharray="5,2" d="M52.2163,-228.389C77.2877,-209.74 119.898,-179.041 137.858,-172 186.84,-152.798 203.538,-165.587 254.858,-154 257.722,-153.353 260.713,-152.579 263.649,-151.76"/>
<polygon fill="#9a32cd" stroke="#9a32cd" points="50.0595,-225.632 44.1488,-234.425 54.2527,-231.237 50.0595,-225.632"/>
<text text-anchor="middle" x="165.358" y="-208" font-family="Helvetica,sans-Serif" font-size="10.00"> scaleY</text>
<text text-anchor="middle" x="165.358" y="-197" font-family="Helvetica,sans-Serif" font-size="10.00">frameTime</text>
<text text-anchor="middle" x="165.358" y="-186" font-family="Helvetica,sans-Serif" font-size="10.00">timeElapsed</text>
<text text-anchor="middle" x="165.358" y="-175" font-family="Helvetica,sans-Serif" font-size="10.00">scaleX</text>
</g>
<!-- Node5 -->
<g id="node5" class="node"><title>Node5</title>
<polygon fill="white" stroke="#bfbfbf" points="70.3578,-134.5 70.3578,-153.5 189.358,-153.5 189.358,-134.5 70.3578,-134.5"/>
<text text-anchor="middle" x="129.858" y="-141.5" font-family="Helvetica,sans-Serif" font-size="10.00">vector&lt; Component * &gt;</text>
</g>
<!-- Node5&#45;&gt;Node2 -->
<g id="edge5" class="edge"><title>Node5&#45;&gt;Node2</title>
<path fill="none" stroke="#9a32cd" stroke-dasharray="5,2" d="M129.858,-124.037C129.858,-111.67 129.858,-96.1198 129.858,-86.6273"/>
<polygon fill="#9a32cd" stroke="#9a32cd" points="126.358,-124.234 129.858,-134.234 133.358,-124.234 126.358,-124.234"/>
<text text-anchor="middle" x="158.358" y="-108" font-family="Helvetica,sans-Serif" font-size="10.00"> components</text>
</g>
<!-- Node6&#45;&gt;Node1 -->
<g id="edge8" class="edge"><title>Node6&#45;&gt;Node1</title>
<path fill="none" stroke="#9a32cd" stroke-dasharray="5,2" d="M267.9,-127.441C244.968,-106.567 202.589,-68.5845 164.858,-38 156.968,-31.6046 147.808,-24.742 140.702,-19.5358"/>
<polygon fill="#9a32cd" stroke="#9a32cd" points="265.68,-130.153 275.425,-134.311 270.4,-124.984 265.68,-130.153"/>
<text text-anchor="middle" x="229.858" y="-74.5" font-family="Helvetica,sans-Serif" font-size="10.00"> sp</text>
</g>
<!-- Node7 -->
<g id="node7" class="node"><title>Node7</title>
<polygon fill="white" stroke="#bfbfbf" points="253.858,-234.5 253.858,-253.5 315.858,-253.5 315.858,-234.5 253.858,-234.5"/>
<text text-anchor="middle" x="284.858" y="-241.5" font-family="Helvetica,sans-Serif" font-size="10.00">SDL_Rect</text>
</g>
<!-- Node7&#45;&gt;Node6 -->
<g id="edge10" class="edge"><title>Node7&#45;&gt;Node6</title>
<path fill="none" stroke="#9a32cd" stroke-dasharray="5,2" d="M284.858,-224.22C284.858,-202.951 284.858,-169.22 284.858,-153.537"/>
<polygon fill="#9a32cd" stroke="#9a32cd" points="281.358,-224.303 284.858,-234.303 288.358,-224.303 281.358,-224.303"/>
<text text-anchor="middle" x="304.858" y="-191.5" font-family="Helvetica,sans-Serif" font-size="10.00"> clipRect</text>
</g>
<!-- Node8 -->
<g id="node8" class="node"><title>Node8</title>
<polygon fill="white" stroke="#bfbfbf" points="333.358,-234.5 333.358,-253.5 362.358,-253.5 362.358,-234.5 333.358,-234.5"/>
<text text-anchor="middle" x="347.858" y="-241.5" font-family="Helvetica,sans-Serif" font-size="10.00">int</text>
</g>
<!-- Node8&#45;&gt;Node6 -->
<g id="edge11" class="edge"><title>Node8&#45;&gt;Node6</title>
<path fill="none" stroke="#9a32cd" stroke-dasharray="5,2" d="M345.553,-223.973C342.908,-208.676 337.349,-187.291 325.858,-172 320.021,-164.233 311.252,-158.029 303.32,-153.537"/>
<polygon fill="#9a32cd" stroke="#9a32cd" points="342.15,-224.892 347.057,-234.281 349.077,-223.881 342.15,-224.892"/>
<text text-anchor="middle" x="373.858" y="-208" font-family="Helvetica,sans-Serif" font-size="10.00"> width</text>
<text text-anchor="middle" x="373.858" y="-197" font-family="Helvetica,sans-Serif" font-size="10.00">currentFrame</text>
<text text-anchor="middle" x="373.858" y="-186" font-family="Helvetica,sans-Serif" font-size="10.00">height</text>
<text text-anchor="middle" x="373.858" y="-175" font-family="Helvetica,sans-Serif" font-size="10.00">frameCount</text>
</g>
<!-- Node9 -->
<g id="node9" class="node"><title>Node9</title>
<polygon fill="white" stroke="#bfbfbf" points="97.8578,-234.5 97.8578,-253.5 235.858,-253.5 235.858,-234.5 97.8578,-234.5"/>
<text text-anchor="middle" x="166.858" y="-241.5" font-family="Helvetica,sans-Serif" font-size="10.00">shared_ptr&lt; SDL_Texture &gt;</text>
</g>
<!-- Node9&#45;&gt;Node6 -->
<g id="edge12" class="edge"><title>Node9&#45;&gt;Node6</title>
<path fill="none" stroke="#9a32cd" stroke-dasharray="5,2" d="M183.353,-227.411C199.219,-212.649 224.084,-190.11 246.858,-172 254.966,-165.553 264.466,-158.803 271.939,-153.664"/>
<polygon fill="#9a32cd" stroke="#9a32cd" points="180.843,-224.967 175.936,-234.357 185.628,-230.076 180.843,-224.967"/>
<text text-anchor="middle" x="263.858" y="-191.5" font-family="Helvetica,sans-Serif" font-size="10.00"> texture</text>
</g>
</g>
</svg>
