<?xml version="1.0" encoding="UTF-8" standalone="no"?>
<!DOCTYPE svg PUBLIC "-//W3C//DTD SVG 1.1//EN"
 "http://www.w3.org/Graphics/SVG/1.1/DTD/svg11.dtd">
<!-- Generated by graphviz version 2.38.0 (20140413.2041)
 -->
<!-- Title: HitPoints Pages: 1 -->
<svg width="628pt" height="306pt"
 viewBox="0.00 0.00 627.50 306.00" xmlns="http://www.w3.org/2000/svg" xmlns:xlink="http://www.w3.org/1999/xlink">
<g id="graph0" class="graph" transform="scale(1 1) rotate(0) translate(4 302)">
<title>HitPoints</title>
<polygon fill="white" stroke="none" points="-4,4 -4,-302 623.5,-302 623.5,4 -4,4"/>
<!-- Node1 -->
<g id="node1" class="node"><title>Node1</title>
<polygon fill="#bfbfbf" stroke="black" points="75,-0.5 75,-19.5 132,-19.5 132,-0.5 75,-0.5"/>
<text text-anchor="middle" x="103.5" y="-7.5" font-family="Helvetica,sans-Serif" font-size="10.00">HitPoints</text>
</g>
<!-- Node2 -->
<g id="node2" class="node"><title>Node2</title>
<g id="a_node2"><a xlink:href="classComponent.html" target="_top" xlink:title="Modela os componentes. ">
<polygon fill="white" stroke="black" points="0,-78.5 0,-97.5 67,-97.5 67,-78.5 0,-78.5"/>
<text text-anchor="middle" x="33.5" y="-85.5" font-family="Helvetica,sans-Serif" font-size="10.00">Component</text>
</a>
</g>
</g>
<!-- Node2&#45;&gt;Node1 -->
<g id="edge1" class="edge"><title>Node2&#45;&gt;Node1</title>
<path fill="none" stroke="midnightblue" d="M48.352,-70.875C62.7746,-55.2161 84.1191,-32.0422 95.5638,-19.6165"/>
<polygon fill="midnightblue" stroke="midnightblue" points="45.7303,-68.5552 41.5299,-78.2818 50.8791,-73.2975 45.7303,-68.5552"/>
</g>
<!-- Node3 -->
<g id="node3" class="node"><title>Node3</title>
<g id="a_node3"><a xlink:href="classSprite.html" target="_top" xlink:title="Classe que modela uma sprite. ">
<polygon fill="white" stroke="black" points="263.5,-78.5 263.5,-97.5 305.5,-97.5 305.5,-78.5 263.5,-78.5"/>
<text text-anchor="middle" x="284.5" y="-85.5" font-family="Helvetica,sans-Serif" font-size="10.00">Sprite</text>
</a>
</g>
</g>
<!-- Node3&#45;&gt;Node1 -->
<g id="edge2" class="edge"><title>Node3&#45;&gt;Node1</title>
<path fill="none" stroke="#9a32cd" stroke-dasharray="5,2" d="M254.829,-74.5416C217.893,-59.0324 155.785,-32.9541 123.837,-19.5391"/>
<polygon fill="#9a32cd" stroke="#9a32cd" points="253.514,-77.7851 264.089,-78.4296 256.224,-71.331 253.514,-77.7851"/>
<text text-anchor="middle" x="243" y="-52" font-family="Helvetica,sans-Serif" font-size="10.00"> healthColor</text>
<text text-anchor="middle" x="243" y="-41" font-family="Helvetica,sans-Serif" font-size="10.00">healthBar</text>
</g>
<!-- Node4 -->
<g id="node4" class="node"><title>Node4</title>
<polygon fill="white" stroke="#bfbfbf" points="549,-178.5 549,-197.5 584,-197.5 584,-178.5 549,-178.5"/>
<text text-anchor="middle" x="566.5" y="-185.5" font-family="Helvetica,sans-Serif" font-size="10.00">float</text>
</g>
<!-- Node4&#45;&gt;Node3 -->
<g id="edge3" class="edge"><title>Node4&#45;&gt;Node3</title>
<path fill="none" stroke="#9a32cd" stroke-dasharray="5,2" d="M566.134,-168.29C564.73,-151.848 559.904,-128.633 544.5,-116 526.166,-100.963 364.473,-92.4827 305.719,-89.8756"/>
<polygon fill="#9a32cd" stroke="#9a32cd" points="562.644,-168.567 566.647,-178.376 569.634,-168.211 562.644,-168.567"/>
<text text-anchor="middle" x="592" y="-152" font-family="Helvetica,sans-Serif" font-size="10.00"> scaleY</text>
<text text-anchor="middle" x="592" y="-141" font-family="Helvetica,sans-Serif" font-size="10.00">frameTime</text>
<text text-anchor="middle" x="592" y="-130" font-family="Helvetica,sans-Serif" font-size="10.00">timeElapsed</text>
<text text-anchor="middle" x="592" y="-119" font-family="Helvetica,sans-Serif" font-size="10.00">scaleX</text>
</g>
<!-- Node5 -->
<g id="node5" class="node"><title>Node5</title>
<polygon fill="white" stroke="#bfbfbf" points="135.5,-178.5 135.5,-197.5 197.5,-197.5 197.5,-178.5 135.5,-178.5"/>
<text text-anchor="middle" x="166.5" y="-185.5" font-family="Helvetica,sans-Serif" font-size="10.00">SDL_Rect</text>
</g>
<!-- Node5&#45;&gt;Node3 -->
<g id="edge4" class="edge"><title>Node5&#45;&gt;Node3</title>
<path fill="none" stroke="#9a32cd" stroke-dasharray="5,2" d="M183.558,-171.248C187.497,-167.575 191.658,-163.665 195.5,-160 215.738,-140.691 218.442,-133.2 240.5,-116 249.264,-109.166 259.861,-102.618 268.459,-97.6819"/>
<polygon fill="#9a32cd" stroke="#9a32cd" points="180.906,-168.934 175.958,-178.303 185.668,-174.065 180.906,-168.934"/>
<text text-anchor="middle" x="260.5" y="-135.5" font-family="Helvetica,sans-Serif" font-size="10.00"> clipRect</text>
</g>
<!-- Node6 -->
<g id="node6" class="node"><title>Node6</title>
<polygon fill="white" stroke="#bfbfbf" points="89,-178.5 89,-197.5 118,-197.5 118,-178.5 89,-178.5"/>
<text text-anchor="middle" x="103.5" y="-185.5" font-family="Helvetica,sans-Serif" font-size="10.00">int</text>
</g>
<!-- Node6&#45;&gt;Node1 -->
<g id="edge10" class="edge"><title>Node6&#45;&gt;Node1</title>
<path fill="none" stroke="#9a32cd" stroke-dasharray="5,2" d="M103.5,-167.842C103.5,-129.973 103.5,-46.8574 103.5,-19.7429"/>
<polygon fill="#9a32cd" stroke="#9a32cd" points="100,-168.03 103.5,-178.03 107,-168.03 100,-168.03"/>
<text text-anchor="middle" x="110.5" y="-85.5" font-family="Helvetica,sans-Serif" font-size="10.00"> hp</text>
</g>
<!-- Node6&#45;&gt;Node3 -->
<g id="edge5" class="edge"><title>Node6&#45;&gt;Node3</title>
<path fill="none" stroke="#9a32cd" stroke-dasharray="5,2" d="M110.842,-169.045C119.358,-148.306 132.382,-116.893 133.5,-116 153.216,-100.252 226.483,-93.0239 263.217,-90.3313"/>
<polygon fill="#9a32cd" stroke="#9a32cd" points="107.544,-167.863 106.991,-178.444 114.021,-170.518 107.544,-167.863"/>
<text text-anchor="middle" x="162.5" y="-152" font-family="Helvetica,sans-Serif" font-size="10.00"> width</text>
<text text-anchor="middle" x="162.5" y="-141" font-family="Helvetica,sans-Serif" font-size="10.00">currentFrame</text>
<text text-anchor="middle" x="162.5" y="-130" font-family="Helvetica,sans-Serif" font-size="10.00">height</text>
<text text-anchor="middle" x="162.5" y="-119" font-family="Helvetica,sans-Serif" font-size="10.00">frameCount</text>
</g>
<!-- Node7 -->
<g id="node7" class="node"><title>Node7</title>
<polygon fill="white" stroke="#bfbfbf" points="215.5,-178.5 215.5,-197.5 353.5,-197.5 353.5,-178.5 215.5,-178.5"/>
<text text-anchor="middle" x="284.5" y="-185.5" font-family="Helvetica,sans-Serif" font-size="10.00">shared_ptr&lt; SDL_Texture &gt;</text>
</g>
<!-- Node7&#45;&gt;Node3 -->
<g id="edge6" class="edge"><title>Node7&#45;&gt;Node3</title>
<path fill="none" stroke="#9a32cd" stroke-dasharray="5,2" d="M284.5,-168.22C284.5,-146.951 284.5,-113.22 284.5,-97.5374"/>
<polygon fill="#9a32cd" stroke="#9a32cd" points="281,-168.303 284.5,-178.303 288,-168.303 281,-168.303"/>
<text text-anchor="middle" x="301.5" y="-135.5" font-family="Helvetica,sans-Serif" font-size="10.00"> texture</text>
</g>
<!-- Node8 -->
<g id="node8" class="node"><title>Node8</title>
<polygon fill="white" stroke="#bfbfbf" points="371.5,-178.5 371.5,-197.5 461.5,-197.5 461.5,-178.5 371.5,-178.5"/>
<text text-anchor="middle" x="416.5" y="-185.5" font-family="Helvetica,sans-Serif" font-size="10.00">SDL_BlendMode</text>
</g>
<!-- Node8&#45;&gt;Node3 -->
<g id="edge7" class="edge"><title>Node8&#45;&gt;Node3</title>
<path fill="none" stroke="#9a32cd" stroke-dasharray="5,2" d="M397.173,-172.143C378.256,-157.662 348.563,-135.096 322.5,-116 314.013,-109.782 304.347,-102.917 296.887,-97.6647"/>
<polygon fill="#9a32cd" stroke="#9a32cd" points="395.228,-175.061 405.293,-178.369 399.487,-169.506 395.228,-175.061"/>
<text text-anchor="middle" x="407" y="-135.5" font-family="Helvetica,sans-Serif" font-size="10.00"> blendMode</text>
</g>
<!-- Node9 -->
<g id="node9" class="node"><title>Node9</title>
<g id="a_node9"><a xlink:href="structColor.html" target="_top" xlink:title="Struct para armazenar informações de cor. ">
<polygon fill="white" stroke="black" points="479.5,-178.5 479.5,-197.5 519.5,-197.5 519.5,-178.5 479.5,-178.5"/>
<text text-anchor="middle" x="499.5" y="-185.5" font-family="Helvetica,sans-Serif" font-size="10.00">Color</text>
</a>
</g>
</g>
<!-- Node9&#45;&gt;Node3 -->
<g id="edge8" class="edge"><title>Node9&#45;&gt;Node3</title>
<path fill="none" stroke="#9a32cd" stroke-dasharray="5,2" d="M486.88,-170.398C472.271,-151.635 448.665,-122.811 436.5,-116 394.405,-92.4312 336.36,-88.6576 305.605,-88.4943"/>
<polygon fill="#9a32cd" stroke="#9a32cd" points="484.188,-172.64 493.062,-178.428 489.735,-168.369 484.188,-172.64"/>
<text text-anchor="middle" x="509.5" y="-135.5" font-family="Helvetica,sans-Serif" font-size="10.00"> colorMultiplier</text>
</g>
<!-- Node10 -->
<g id="node10" class="node"><title>Node10</title>
<polygon fill="white" stroke="#bfbfbf" points="461,-278.5 461,-297.5 538,-297.5 538,-278.5 461,-278.5"/>
<text text-anchor="middle" x="499.5" y="-285.5" font-family="Helvetica,sans-Serif" font-size="10.00">unsigned char</text>
</g>
<!-- Node10&#45;&gt;Node9 -->
<g id="edge9" class="edge"><title>Node10&#45;&gt;Node9</title>
<path fill="none" stroke="#9a32cd" stroke-dasharray="5,2" d="M499.5,-268.22C499.5,-246.951 499.5,-213.22 499.5,-197.537"/>
<polygon fill="#9a32cd" stroke="#9a32cd" points="496,-268.303 499.5,-278.303 503,-268.303 496,-268.303"/>
<text text-anchor="middle" x="504" y="-252" font-family="Helvetica,sans-Serif" font-size="10.00"> g</text>
<text text-anchor="middle" x="504" y="-241" font-family="Helvetica,sans-Serif" font-size="10.00">a</text>
<text text-anchor="middle" x="504" y="-230" font-family="Helvetica,sans-Serif" font-size="10.00">r</text>
<text text-anchor="middle" x="504" y="-219" font-family="Helvetica,sans-Serif" font-size="10.00">b</text>
</g>
</g>
</svg>
