<?xml version="1.0" encoding="UTF-8" standalone="no"?>
<!DOCTYPE svg PUBLIC "-//W3C//DTD SVG 1.1//EN"
 "http://www.w3.org/Graphics/SVG/1.1/DTD/svg11.dtd">
<!-- Generated by graphviz version 2.36.0 (20140111.2315)
 -->
<!-- Title: DragAndDrop Pages: 1 -->
<svg width="646pt" height="398pt"
 viewBox="0.00 0.00 646.00 398.00" xmlns="http://www.w3.org/2000/svg" xmlns:xlink="http://www.w3.org/1999/xlink">
<g id="graph0" class="graph" transform="scale(1 1) rotate(0) translate(4 394)">
<title>DragAndDrop</title>
<polygon fill="white" stroke="none" points="-4,4 -4,-394 642,-394 642,4 -4,4"/>
<!-- Node1 -->
<g id="node1" class="node"><title>Node1</title>
<polygon fill="#bfbfbf" stroke="black" points="390,-0.5 390,-19.5 466,-19.5 466,-0.5 390,-0.5"/>
<text text-anchor="middle" x="428" y="-7.5" font-family="Helvetica,sans-Serif" font-size="10.00">DragAndDrop</text>
</g>
<!-- Node2 -->
<g id="node2" class="node"><title>Node2</title>
<g id="a_node2"><a xlink:href="classComponent.html" target="_top" xlink:title="Component">
<polygon fill="white" stroke="black" points="317.5,-78.5 317.5,-97.5 384.5,-97.5 384.5,-78.5 317.5,-78.5"/>
<text text-anchor="middle" x="351" y="-85.5" font-family="Helvetica,sans-Serif" font-size="10.00">Component</text>
</a>
</g>
</g>
<!-- Node2&#45;&gt;Node1 -->
<g id="edge1" class="edge"><title>Node2&#45;&gt;Node1</title>
<path fill="none" stroke="midnightblue" d="M367.337,-70.875C383.202,-55.2161 406.681,-32.0422 419.27,-19.6165"/>
<polygon fill="midnightblue" stroke="midnightblue" points="364.491,-68.7661 359.833,-78.2818 369.409,-73.7481 364.491,-68.7661"/>
</g>
<!-- Node3 -->
<g id="node3" class="node"><title>Node3</title>
<g id="a_node3"><a xlink:href="classTileMap.html" target="_top" xlink:title="Classe que modela o TileMap. ">
<polygon fill="white" stroke="black" points="402.5,-78.5 402.5,-97.5 453.5,-97.5 453.5,-78.5 402.5,-78.5"/>
<text text-anchor="middle" x="428" y="-85.5" font-family="Helvetica,sans-Serif" font-size="10.00">TileMap</text>
</a>
</g>
</g>
<!-- Node3&#45;&gt;Node1 -->
<g id="edge2" class="edge"><title>Node3&#45;&gt;Node1</title>
<path fill="none" stroke="#9a32cd" stroke-dasharray="5,2" d="M428,-68.2239C428,-52.6974 428,-31.3582 428,-19.6165"/>
<polygon fill="#9a32cd" stroke="#9a32cd" points="424.5,-68.2818 428,-78.2818 431.5,-68.2819 424.5,-68.2818"/>
<text text-anchor="middle" x="445.5" y="-46.5" font-family="Helvetica,sans-Serif" font-size="10.00"> tileMap</text>
</g>
<!-- Node4 -->
<g id="node4" class="node"><title>Node4</title>
<g id="a_node4"><a xlink:href="classTileSet.html" target="_top" xlink:title="Classe responsável por modelar um tileset. ">
<polygon fill="white" stroke="black" points="299.5,-156.5 299.5,-175.5 346.5,-175.5 346.5,-156.5 299.5,-156.5"/>
<text text-anchor="middle" x="323" y="-163.5" font-family="Helvetica,sans-Serif" font-size="10.00">TileSet</text>
</a>
</g>
</g>
<!-- Node4&#45;&gt;Node3 -->
<g id="edge3" class="edge"><title>Node4&#45;&gt;Node3</title>
<path fill="none" stroke="#9a32cd" stroke-dasharray="5,2" d="M329.506,-147.117C334.091,-136.756 341.175,-124.183 351,-116 359.001,-109.337 383.202,-101.423 402.361,-95.8922"/>
<polygon fill="#9a32cd" stroke="#9a32cd" points="326.219,-145.912 325.746,-156.497 332.716,-148.517 326.219,-145.912"/>
<text text-anchor="middle" x="366.5" y="-124.5" font-family="Helvetica,sans-Serif" font-size="10.00"> tileSet</text>
</g>
<!-- Node5 -->
<g id="node5" class="node"><title>Node5</title>
<g id="a_node5"><a xlink:href="classSprite.html" target="_top" xlink:title="Classe que modela uma sprite. ">
<polygon fill="white" stroke="black" points="172,-258.5 172,-277.5 214,-277.5 214,-258.5 172,-258.5"/>
<text text-anchor="middle" x="193" y="-265.5" font-family="Helvetica,sans-Serif" font-size="10.00">Sprite</text>
</a>
</g>
</g>
<!-- Node5&#45;&gt;Node4 -->
<g id="edge4" class="edge"><title>Node5&#45;&gt;Node4</title>
<path fill="none" stroke="#9a32cd" stroke-dasharray="5,2" d="M209.751,-251.117C226.408,-235.692 253.014,-212.027 278,-194 287.31,-187.283 298.356,-180.638 307.175,-175.62"/>
<polygon fill="#9a32cd" stroke="#9a32cd" points="206.921,-248.972 202.009,-258.359 211.703,-254.084 206.921,-248.972"/>
<text text-anchor="middle" x="293.5" y="-208.5" font-family="Helvetica,sans-Serif" font-size="10.00"> tileSet</text>
</g>
<!-- Node6 -->
<g id="node6" class="node"><title>Node6</title>
<polygon fill="white" stroke="#bfbfbf" points="-0.5,-370.5 -0.5,-389.5 34.5,-389.5 34.5,-370.5 -0.5,-370.5"/>
<text text-anchor="middle" x="17" y="-377.5" font-family="Helvetica,sans-Serif" font-size="10.00">float</text>
</g>
<!-- Node6&#45;&gt;Node5 -->
<g id="edge5" class="edge"><title>Node6&#45;&gt;Node5</title>
<path fill="none" stroke="#9a32cd" stroke-dasharray="5,2" d="M21.3135,-360.201C25.9735,-344.076 34.981,-321.387 51,-308 86.2135,-278.573 141.859,-271.239 171.971,-269.483"/>
<polygon fill="#9a32cd" stroke="#9a32cd" points="17.8635,-359.562 18.7491,-370.12 24.6407,-361.315 17.8635,-359.562"/>
<text text-anchor="middle" x="78.5" y="-344" font-family="Helvetica,sans-Serif" font-size="10.00"> scaleY</text>
<text text-anchor="middle" x="78.5" y="-333" font-family="Helvetica,sans-Serif" font-size="10.00">frameTime</text>
<text text-anchor="middle" x="78.5" y="-322" font-family="Helvetica,sans-Serif" font-size="10.00">timeElapsed</text>
<text text-anchor="middle" x="78.5" y="-311" font-family="Helvetica,sans-Serif" font-size="10.00">scaleX</text>
</g>
<!-- Node7 -->
<g id="node7" class="node"><title>Node7</title>
<polygon fill="white" stroke="#bfbfbf" points="58,-370.5 58,-389.5 120,-389.5 120,-370.5 58,-370.5"/>
<text text-anchor="middle" x="89" y="-377.5" font-family="Helvetica,sans-Serif" font-size="10.00">SDL_Rect</text>
</g>
<!-- Node7&#45;&gt;Node5 -->
<g id="edge6" class="edge"><title>Node7&#45;&gt;Node5</title>
<path fill="none" stroke="#9a32cd" stroke-dasharray="5,2" d="M101.154,-361.957C112.13,-347.053 129.107,-325.169 146,-308 157.155,-296.663 171.374,-285.222 181.236,-277.691"/>
<polygon fill="#9a32cd" stroke="#9a32cd" points="98.1905,-360.081 95.1493,-370.23 103.856,-364.193 98.1905,-360.081"/>
<text text-anchor="middle" x="166" y="-327.5" font-family="Helvetica,sans-Serif" font-size="10.00"> clipRect</text>
</g>
<!-- Node8 -->
<g id="node8" class="node"><title>Node8</title>
<polygon fill="white" stroke="#bfbfbf" points="308.5,-370.5 308.5,-389.5 337.5,-389.5 337.5,-370.5 308.5,-370.5"/>
<text text-anchor="middle" x="323" y="-377.5" font-family="Helvetica,sans-Serif" font-size="10.00">int</text>
</g>
<!-- Node8&#45;&gt;Node3 -->
<g id="edge12" class="edge"><title>Node8&#45;&gt;Node3</title>
<path fill="none" stroke="#9a32cd" stroke-dasharray="5,2" d="M333.941,-361.965C344.797,-344.473 361.315,-316.18 372,-290 401.293,-218.226 420.744,-125.992 426.338,-97.6597"/>
<polygon fill="#9a32cd" stroke="#9a32cd" points="330.939,-360.165 328.566,-370.491 336.86,-363.898 330.939,-360.165"/>
<text text-anchor="middle" x="428.5" y="-219.5" font-family="Helvetica,sans-Serif" font-size="10.00"> mapDepth</text>
<text text-anchor="middle" x="428.5" y="-208.5" font-family="Helvetica,sans-Serif" font-size="10.00">mapHeight</text>
<text text-anchor="middle" x="428.5" y="-197.5" font-family="Helvetica,sans-Serif" font-size="10.00">mapWidth</text>
</g>
<!-- Node8&#45;&gt;Node4 -->
<g id="edge9" class="edge"><title>Node8&#45;&gt;Node4</title>
<path fill="none" stroke="#9a32cd" stroke-dasharray="5,2" d="M323,-360.289C323,-316.326 323,-207.759 323,-175.915"/>
<polygon fill="#9a32cd" stroke="#9a32cd" points="319.5,-360.427 323,-370.427 326.5,-360.427 319.5,-360.427"/>
<text text-anchor="middle" x="345.5" y="-282" font-family="Helvetica,sans-Serif" font-size="10.00"> tileHeight</text>
<text text-anchor="middle" x="345.5" y="-271" font-family="Helvetica,sans-Serif" font-size="10.00">rows</text>
<text text-anchor="middle" x="345.5" y="-260" font-family="Helvetica,sans-Serif" font-size="10.00">tileWidth</text>
<text text-anchor="middle" x="345.5" y="-249" font-family="Helvetica,sans-Serif" font-size="10.00">columns</text>
</g>
<!-- Node8&#45;&gt;Node5 -->
<g id="edge7" class="edge"><title>Node8&#45;&gt;Node5</title>
<path fill="none" stroke="#9a32cd" stroke-dasharray="5,2" d="M298.637,-371.919C280.734,-366.343 258.308,-358.461 251,-352 234.468,-337.384 240.578,-326.13 228,-308 220.221,-296.788 209.542,-285.325 202.032,-277.755"/>
<polygon fill="#9a32cd" stroke="#9a32cd" points="297.664,-375.282 308.249,-374.832 299.694,-368.583 297.664,-375.282"/>
<text text-anchor="middle" x="280" y="-344" font-family="Helvetica,sans-Serif" font-size="10.00"> width</text>
<text text-anchor="middle" x="280" y="-333" font-family="Helvetica,sans-Serif" font-size="10.00">currentFrame</text>
<text text-anchor="middle" x="280" y="-322" font-family="Helvetica,sans-Serif" font-size="10.00">height</text>
<text text-anchor="middle" x="280" y="-311" font-family="Helvetica,sans-Serif" font-size="10.00">frameCount</text>
</g>
<!-- Node9 -->
<g id="node9" class="node"><title>Node9</title>
<polygon fill="white" stroke="#bfbfbf" points="138,-370.5 138,-389.5 276,-389.5 276,-370.5 138,-370.5"/>
<text text-anchor="middle" x="207" y="-377.5" font-family="Helvetica,sans-Serif" font-size="10.00">shared_ptr&lt; SDL_Texture &gt;</text>
</g>
<!-- Node9&#45;&gt;Node5 -->
<g id="edge8" class="edge"><title>Node9&#45;&gt;Node5</title>
<path fill="none" stroke="#9a32cd" stroke-dasharray="5,2" d="M197.187,-361.394C195.879,-358.343 194.737,-355.14 194,-352 187.813,-325.624 190.174,-293.225 191.865,-277.874"/>
<polygon fill="#9a32cd" stroke="#9a32cd" points="194.058,-362.963 201.64,-370.362 200.328,-359.849 194.058,-362.963"/>
<text text-anchor="middle" x="211" y="-327.5" font-family="Helvetica,sans-Serif" font-size="10.00"> texture</text>
</g>
<!-- Node10 -->
<g id="node10" class="node"><title>Node10</title>
<polygon fill="white" stroke="#bfbfbf" points="424,-156.5 424,-175.5 496,-175.5 496,-156.5 424,-156.5"/>
<text text-anchor="middle" x="460" y="-163.5" font-family="Helvetica,sans-Serif" font-size="10.00">vector&lt; int &gt;</text>
</g>
<!-- Node10&#45;&gt;Node3 -->
<g id="edge10" class="edge"><title>Node10&#45;&gt;Node3</title>
<path fill="none" stroke="#9a32cd" stroke-dasharray="5,2" d="M452.284,-146.674C445.732,-131.113 436.62,-109.472 431.628,-97.6165"/>
<polygon fill="#9a32cd" stroke="#9a32cd" points="449.223,-148.424 456.329,-156.282 455.674,-145.707 449.223,-148.424"/>
<text text-anchor="middle" x="483" y="-130" font-family="Helvetica,sans-Serif" font-size="10.00"> tileMatrix</text>
<text text-anchor="middle" x="483" y="-119" font-family="Helvetica,sans-Serif" font-size="10.00">collisionTileMap</text>
</g>
<!-- Node11 -->
<g id="node11" class="node"><title>Node11</title>
<polygon fill="white" stroke="#bfbfbf" points="514.5,-156.5 514.5,-175.5 637.5,-175.5 637.5,-156.5 514.5,-156.5"/>
<text text-anchor="middle" x="576" y="-163.5" font-family="Helvetica,sans-Serif" font-size="10.00">vector&lt; GameObject * &gt;</text>
</g>
<!-- Node11&#45;&gt;Node3 -->
<g id="edge11" class="edge"><title>Node11&#45;&gt;Node3</title>
<path fill="none" stroke="#9a32cd" stroke-dasharray="5,2" d="M562.029,-148.937C551.899,-138.206 537.334,-124.543 522,-116 518.922,-114.285 480.312,-103.442 453.544,-96.0291"/>
<polygon fill="#9a32cd" stroke="#9a32cd" points="559.533,-151.395 568.851,-156.438 564.712,-146.685 559.533,-151.395"/>
<text text-anchor="middle" x="592.5" y="-124.5" font-family="Helvetica,sans-Serif" font-size="10.00"> gameObjectMatrix</text>
</g>
<!-- Node12 -->
<g id="node12" class="node"><title>Node12</title>
<polygon fill="white" stroke="#bfbfbf" points="471.5,-78.5 471.5,-97.5 506.5,-97.5 506.5,-78.5 471.5,-78.5"/>
<text text-anchor="middle" x="489" y="-85.5" font-family="Helvetica,sans-Serif" font-size="10.00">bool</text>
</g>
<!-- Node12&#45;&gt;Node1 -->
<g id="edge13" class="edge"><title>Node12&#45;&gt;Node1</title>
<path fill="none" stroke="#9a32cd" stroke-dasharray="5,2" d="M483.454,-68.6429C479.859,-58.8257 474.443,-46.9517 467,-38 460.787,-30.528 452.016,-24.2077 444.365,-19.565"/>
<polygon fill="#9a32cd" stroke="#9a32cd" points="480.173,-69.8689 486.651,-78.2527 486.815,-67.6592 480.173,-69.8689"/>
<text text-anchor="middle" x="507.5" y="-52" font-family="Helvetica,sans-Serif" font-size="10.00"> dragOnHold</text>
<text text-anchor="middle" x="507.5" y="-41" font-family="Helvetica,sans-Serif" font-size="10.00">isDragging</text>
</g>
</g>
</svg>
