<?xml version="1.0" encoding="UTF-8" standalone="no"?>
<!DOCTYPE svg PUBLIC "-//W3C//DTD SVG 1.1//EN"
 "http://www.w3.org/Graphics/SVG/1.1/DTD/svg11.dtd">
<!-- Generated by graphviz version 2.36.0 (20140111.2315)
 -->
<!-- Title: emptyGameObject Pages: 1 -->
<svg width="234pt" height="254pt"
 viewBox="0.00 0.00 234.31 254.00" xmlns="http://www.w3.org/2000/svg" xmlns:xlink="http://www.w3.org/1999/xlink">
<g id="graph0" class="graph" transform="scale(1 1) rotate(0) translate(4 250)">
<title>emptyGameObject</title>
<polygon fill="white" stroke="none" points="-4,4 -4,-250 230.314,-250 230.314,4 -4,4"/>
<!-- Node1 -->
<g id="node1" class="node"><title>Node1</title>
<polygon fill="#bfbfbf" stroke="black" points="21.3142,-0.5 21.3142,-19.5 119.314,-19.5 119.314,-0.5 21.3142,-0.5"/>
<text text-anchor="middle" x="70.3142" y="-7.5" font-family="Helvetica,sans-Serif" font-size="10.00">emptyGameObject</text>
</g>
<!-- Node2 -->
<g id="node2" class="node"><title>Node2</title>
<g id="a_node2"><a xlink:href="classGameObject.html" target="_top" xlink:title="Classe virtual que especifica o funcionamento de um GameObject. ">
<polygon fill="white" stroke="black" points="34.8142,-58.5 34.8142,-77.5 105.814,-77.5 105.814,-58.5 34.8142,-58.5"/>
<text text-anchor="middle" x="70.3142" y="-65.5" font-family="Helvetica,sans-Serif" font-size="10.00">GameObject</text>
</a>
</g>
</g>
<!-- Node2&#45;&gt;Node1 -->
<g id="edge1" class="edge"><title>Node2&#45;&gt;Node1</title>
<path fill="none" stroke="midnightblue" d="M70.3142,-47.953C70.3142,-38.2875 70.3142,-27.0312 70.3142,-19.5052"/>
<polygon fill="midnightblue" stroke="midnightblue" points="66.8143,-48.25 70.3142,-58.25 73.8143,-48.25 66.8143,-48.25"/>
</g>
<!-- Node3 -->
<g id="node3" class="node"><title>Node3</title>
<g id="a_node3"><a xlink:href="classRect.html" target="_top" xlink:title="Classe que modela um rect. ">
<polygon fill="white" stroke="black" points="51.3142,-126.5 51.3142,-145.5 89.3142,-145.5 89.3142,-126.5 51.3142,-126.5"/>
<text text-anchor="middle" x="70.3142" y="-133.5" font-family="Helvetica,sans-Serif" font-size="10.00">Rect</text>
</a>
</g>
</g>
<!-- Node3&#45;&gt;Node2 -->
<g id="edge2" class="edge"><title>Node3&#45;&gt;Node2</title>
<path fill="none" stroke="#9a32cd" stroke-dasharray="5,2" d="M70.3142,-116.041C70.3142,-103.472 70.3142,-87.5631 70.3142,-77.8411"/>
<polygon fill="#9a32cd" stroke="#9a32cd" points="66.8143,-116.372 70.3142,-126.372 73.8143,-116.372 66.8143,-116.372"/>
<text text-anchor="middle" x="79.8142" y="-99.5" font-family="Helvetica,sans-Serif" font-size="10.00"> box</text>
</g>
<!-- Node4 -->
<g id="node4" class="node"><title>Node4</title>
<polygon fill="white" stroke="#bfbfbf" points="5.81421,-226.5 5.81421,-245.5 40.8142,-245.5 40.8142,-226.5 5.81421,-226.5"/>
<text text-anchor="middle" x="23.3142" y="-233.5" font-family="Helvetica,sans-Serif" font-size="10.00">float</text>
</g>
<!-- Node4&#45;&gt;Node2 -->
<g id="edge4" class="edge"><title>Node4&#45;&gt;Node2</title>
<path fill="none" stroke="#9a32cd" stroke-dasharray="5,2" d="M14.6358,-217.123C5.11219,-194.836 -7.14994,-156.021 6.31421,-126 16.1779,-104.007 39.1868,-87.0229 54.754,-77.5157"/>
<polygon fill="#9a32cd" stroke="#9a32cd" points="11.5146,-218.714 18.8415,-226.367 17.8863,-215.816 11.5146,-218.714"/>
<text text-anchor="middle" x="24.3142" y="-133.5" font-family="Helvetica,sans-Serif" font-size="10.00"> rotation</text>
</g>
<!-- Node4&#45;&gt;Node3 -->
<g id="edge3" class="edge"><title>Node4&#45;&gt;Node3</title>
<path fill="none" stroke="#9a32cd" stroke-dasharray="5,2" d="M31.9012,-217.095C42.0723,-195.887 58.5947,-161.436 66.2197,-145.537"/>
<polygon fill="#9a32cd" stroke="#9a32cd" points="28.6537,-215.773 27.4851,-226.303 34.9654,-218.8 28.6537,-215.773"/>
<text text-anchor="middle" x="62.8142" y="-200" font-family="Helvetica,sans-Serif" font-size="10.00"> w</text>
<text text-anchor="middle" x="62.8142" y="-189" font-family="Helvetica,sans-Serif" font-size="10.00">x</text>
<text text-anchor="middle" x="62.8142" y="-178" font-family="Helvetica,sans-Serif" font-size="10.00">h</text>
<text text-anchor="middle" x="62.8142" y="-167" font-family="Helvetica,sans-Serif" font-size="10.00">y</text>
</g>
<!-- Node5 -->
<g id="node5" class="node"><title>Node5</title>
<polygon fill="white" stroke="#bfbfbf" points="107.814,-126.5 107.814,-145.5 226.814,-145.5 226.814,-126.5 107.814,-126.5"/>
<text text-anchor="middle" x="167.314" y="-133.5" font-family="Helvetica,sans-Serif" font-size="10.00">vector&lt; Component * &gt;</text>
</g>
<!-- Node5&#45;&gt;Node2 -->
<g id="edge5" class="edge"><title>Node5&#45;&gt;Node2</title>
<path fill="none" stroke="#9a32cd" stroke-dasharray="5,2" d="M146.2,-120.634C126.919,-107.515 99.0483,-88.551 82.9984,-77.6305"/>
<polygon fill="#9a32cd" stroke="#9a32cd" points="144.397,-123.64 154.633,-126.372 148.334,-117.852 144.397,-123.64"/>
<text text-anchor="middle" x="156.814" y="-99.5" font-family="Helvetica,sans-Serif" font-size="10.00"> components</text>
</g>
</g>
</svg>
