<?xml version="1.0" encoding="UTF-8" standalone="no"?>
<!DOCTYPE svg PUBLIC "-//W3C//DTD SVG 1.1//EN"
 "http://www.w3.org/Graphics/SVG/1.1/DTD/svg11.dtd">
<!-- Generated by graphviz version 2.38.0 (20140413.2041)
 -->
<!-- Title: UIelement Pages: 1 -->
<svg width="484pt" height="140pt"
 viewBox="0.00 0.00 483.50 140.00" xmlns="http://www.w3.org/2000/svg" xmlns:xlink="http://www.w3.org/1999/xlink">
<g id="graph0" class="graph" transform="scale(1 1) rotate(0) translate(4 136)">
<title>UIelement</title>
<polygon fill="white" stroke="none" points="-4,4 -4,-136 479.5,-136 479.5,4 -4,4"/>
<!-- Node0 -->
<g id="node1" class="node"><title>Node0</title>
<polygon fill="#bfbfbf" stroke="black" points="313.5,-112.5 313.5,-131.5 375.5,-131.5 375.5,-112.5 313.5,-112.5"/>
<text text-anchor="middle" x="344.5" y="-119.5" font-family="Helvetica,sans-Serif" font-size="10.00">UIelement</text>
</g>
<!-- Node1 -->
<g id="node2" class="node"><title>Node1</title>
<g id="a_node2"><a xlink:href="classUIcanvas.html" target="_top" xlink:title="UIcanvas">
<polygon fill="white" stroke="black" points="159,-56.5 159,-75.5 218,-75.5 218,-56.5 159,-56.5"/>
<text text-anchor="middle" x="188.5" y="-63.5" font-family="Helvetica,sans-Serif" font-size="10.00">UIcanvas</text>
</a>
</g>
</g>
<!-- Node0&#45;&gt;Node1 -->
<g id="edge1" class="edge"><title>Node0&#45;&gt;Node1</title>
<path fill="none" stroke="midnightblue" d="M310.33,-109.172C280.956,-99.0039 239.302,-84.5852 213.103,-75.5164"/>
<polygon fill="midnightblue" stroke="midnightblue" points="309.187,-112.48 319.781,-112.444 311.476,-105.865 309.187,-112.48"/>
</g>
<!-- Node5 -->
<g id="node6" class="node"><title>Node5</title>
<g id="a_node6"><a xlink:href="classUIimage.html" target="_top" xlink:title="UIimage">
<polygon fill="white" stroke="black" points="318,-56.5 318,-75.5 371,-75.5 371,-56.5 318,-56.5"/>
<text text-anchor="middle" x="344.5" y="-63.5" font-family="Helvetica,sans-Serif" font-size="10.00">UIimage</text>
</a>
</g>
</g>
<!-- Node0&#45;&gt;Node5 -->
<g id="edge5" class="edge"><title>Node0&#45;&gt;Node5</title>
<path fill="none" stroke="midnightblue" d="M344.5,-101.805C344.5,-92.9102 344.5,-82.7798 344.5,-75.7511"/>
<polygon fill="midnightblue" stroke="midnightblue" points="341,-102.083 344.5,-112.083 348,-102.083 341,-102.083"/>
</g>
<!-- Node7 -->
<g id="node8" class="node"><title>Node7</title>
<g id="a_node8"><a xlink:href="classUItext.html" target="_top" xlink:title="Classe que modela textos. ">
<polygon fill="white" stroke="black" points="403.5,-56.5 403.5,-75.5 447.5,-75.5 447.5,-56.5 403.5,-56.5"/>
<text text-anchor="middle" x="425.5" y="-63.5" font-family="Helvetica,sans-Serif" font-size="10.00">UItext</text>
</a>
</g>
</g>
<!-- Node0&#45;&gt;Node7 -->
<g id="edge7" class="edge"><title>Node0&#45;&gt;Node7</title>
<path fill="none" stroke="midnightblue" d="M366.067,-106.622C380.864,-96.7574 400.012,-83.9919 412.518,-75.6545"/>
<polygon fill="midnightblue" stroke="midnightblue" points="363.893,-103.865 357.514,-112.324 367.776,-109.689 363.893,-103.865"/>
</g>
<!-- Node2 -->
<g id="node3" class="node"><title>Node2</title>
<g id="a_node3"><a xlink:href="classUIgridGroup.html" target="_top" xlink:title="UIgridGroup">
<polygon fill="white" stroke="black" points="0,-0.5 0,-19.5 69,-19.5 69,-0.5 0,-0.5"/>
<text text-anchor="middle" x="34.5" y="-7.5" font-family="Helvetica,sans-Serif" font-size="10.00">UIgridGroup</text>
</a>
</g>
</g>
<!-- Node1&#45;&gt;Node2 -->
<g id="edge2" class="edge"><title>Node1&#45;&gt;Node2</title>
<path fill="none" stroke="midnightblue" d="M154.389,-53.0392C125.413,-42.8786 84.5378,-28.5457 58.7876,-19.5164"/>
<polygon fill="midnightblue" stroke="midnightblue" points="153.503,-56.4373 164.098,-56.4435 155.82,-49.8317 153.503,-56.4373"/>
</g>
<!-- Node3 -->
<g id="node4" class="node"><title>Node3</title>
<g id="a_node4"><a xlink:href="classUIhorizontalGroup.html" target="_top" xlink:title="UIhorizontalGroup">
<polygon fill="white" stroke="black" points="87,-0.5 87,-19.5 182,-19.5 182,-0.5 87,-0.5"/>
<text text-anchor="middle" x="134.5" y="-7.5" font-family="Helvetica,sans-Serif" font-size="10.00">UIhorizontalGroup</text>
</a>
</g>
</g>
<!-- Node1&#45;&gt;Node3 -->
<g id="edge3" class="edge"><title>Node1&#45;&gt;Node3</title>
<path fill="none" stroke="midnightblue" d="M172.502,-49.0024C162.933,-39.4329 151.139,-27.6389 143.251,-19.7511"/>
<polygon fill="midnightblue" stroke="midnightblue" points="170.037,-51.4868 179.583,-56.083 174.987,-46.537 170.037,-51.4868"/>
</g>
<!-- Node4 -->
<g id="node5" class="node"><title>Node4</title>
<g id="a_node5"><a xlink:href="classUIverticalGroup.html" target="_top" xlink:title="UIverticalGroup">
<polygon fill="white" stroke="black" points="200,-0.5 200,-19.5 285,-19.5 285,-0.5 200,-0.5"/>
<text text-anchor="middle" x="242.5" y="-7.5" font-family="Helvetica,sans-Serif" font-size="10.00">UIverticalGroup</text>
</a>
</g>
</g>
<!-- Node1&#45;&gt;Node4 -->
<g id="edge4" class="edge"><title>Node1&#45;&gt;Node4</title>
<path fill="none" stroke="midnightblue" d="M204.498,-49.0024C214.067,-39.4329 225.861,-27.6389 233.749,-19.7511"/>
<polygon fill="midnightblue" stroke="midnightblue" points="202.013,-46.537 197.417,-56.083 206.963,-51.4868 202.013,-46.537"/>
</g>
<!-- Node6 -->
<g id="node7" class="node"><title>Node6</title>
<g id="a_node7"><a xlink:href="classUIimageButton.html" target="_top" xlink:title="UIimageButton">
<polygon fill="white" stroke="black" points="303.5,-0.5 303.5,-19.5 385.5,-19.5 385.5,-0.5 303.5,-0.5"/>
<text text-anchor="middle" x="344.5" y="-7.5" font-family="Helvetica,sans-Serif" font-size="10.00">UIimageButton</text>
</a>
</g>
</g>
<!-- Node5&#45;&gt;Node6 -->
<g id="edge6" class="edge"><title>Node5&#45;&gt;Node6</title>
<path fill="none" stroke="midnightblue" d="M344.5,-45.8045C344.5,-36.9102 344.5,-26.7798 344.5,-19.7511"/>
<polygon fill="midnightblue" stroke="midnightblue" points="341,-46.083 344.5,-56.083 348,-46.083 341,-46.083"/>
</g>
<!-- Node8 -->
<g id="node9" class="node"><title>Node8</title>
<g id="a_node9"><a xlink:href="classUItextButton.html" target="_top" xlink:title="UItextButton">
<polygon fill="white" stroke="black" points="403.5,-0.5 403.5,-19.5 475.5,-19.5 475.5,-0.5 403.5,-0.5"/>
<text text-anchor="middle" x="439.5" y="-7.5" font-family="Helvetica,sans-Serif" font-size="10.00">UItextButton</text>
</a>
</g>
</g>
<!-- Node7&#45;&gt;Node8 -->
<g id="edge8" class="edge"><title>Node7&#45;&gt;Node8</title>
<path fill="none" stroke="midnightblue" d="M430.323,-46.3956C432.665,-37.362 435.368,-26.936 437.231,-19.7511"/>
<polygon fill="midnightblue" stroke="midnightblue" points="426.934,-45.5246 427.812,-56.083 433.71,-47.2814 426.934,-45.5246"/>
</g>
</g>
</svg>
