<?xml version="1.0" encoding="UTF-8" standalone="no"?>
<!DOCTYPE svg PUBLIC "-//W3C//DTD SVG 1.1//EN"
 "http://www.w3.org/Graphics/SVG/1.1/DTD/svg11.dtd">
<!-- Generated by graphviz version 2.38.0 (20140413.2041)
 -->
<!-- Title: StageState Pages: 1 -->
<svg width="269pt" height="84pt"
 viewBox="0.00 0.00 268.50 84.00" xmlns="http://www.w3.org/2000/svg" xmlns:xlink="http://www.w3.org/1999/xlink">
<g id="graph0" class="graph" transform="scale(1 1) rotate(0) translate(4 80)">
<title>StageState</title>
<polygon fill="white" stroke="none" points="-4,4 -4,-80 264.5,-80 264.5,4 -4,4"/>
<!-- Node1 -->
<g id="node1" class="node"><title>Node1</title>
<polygon fill="#bfbfbf" stroke="black" points="71.5,-0.5 71.5,-19.5 136.5,-19.5 136.5,-0.5 71.5,-0.5"/>
<text text-anchor="middle" x="104" y="-7.5" font-family="Helvetica,sans-Serif" font-size="10.00">StageState</text>
</g>
<!-- Node2 -->
<g id="node2" class="node"><title>Node2</title>
<g id="a_node2"><a xlink:href="classState.html" target="_top" xlink:title="Classe virtual que modela um estado do jogo. ">
<polygon fill="white" stroke="black" points="0,-56.5 0,-75.5 40,-75.5 40,-56.5 0,-56.5"/>
<text text-anchor="middle" x="20" y="-63.5" font-family="Helvetica,sans-Serif" font-size="10.00">State</text>
</a>
</g>
</g>
<!-- Node2&#45;&gt;Node1 -->
<g id="edge1" class="edge"><title>Node2&#45;&gt;Node1</title>
<path fill="none" stroke="midnightblue" d="M41.9325,-50.9005C57.3355,-40.9986 77.4458,-28.0705 90.5374,-19.6545"/>
<polygon fill="midnightblue" stroke="midnightblue" points="40.0152,-47.9722 33.4961,-56.324 43.8005,-53.8605 40.0152,-47.9722"/>
</g>
<!-- Node3 -->
<g id="node3" class="node"><title>Node3</title>
<g id="a_node3"><a xlink:href="classTileMapObserver.html" target="_top" xlink:title="TileMapObserver">
<polygon fill="white" stroke="black" points="58.5,-56.5 58.5,-75.5 149.5,-75.5 149.5,-56.5 58.5,-56.5"/>
<text text-anchor="middle" x="104" y="-63.5" font-family="Helvetica,sans-Serif" font-size="10.00">TileMapObserver</text>
</a>
</g>
</g>
<!-- Node3&#45;&gt;Node1 -->
<g id="edge2" class="edge"><title>Node3&#45;&gt;Node1</title>
<path fill="none" stroke="midnightblue" d="M104,-45.8045C104,-36.9102 104,-26.7798 104,-19.7511"/>
<polygon fill="midnightblue" stroke="midnightblue" points="100.5,-46.083 104,-56.083 107.5,-46.083 100.5,-46.083"/>
</g>
<!-- Node4 -->
<g id="node4" class="node"><title>Node4</title>
<g id="a_node4"><a xlink:href="classNearestGOFinder.html" target="_top" xlink:title="NearestGOFinder">
<polygon fill="white" stroke="black" points="167.5,-56.5 167.5,-75.5 260.5,-75.5 260.5,-56.5 167.5,-56.5"/>
<text text-anchor="middle" x="214" y="-63.5" font-family="Helvetica,sans-Serif" font-size="10.00">NearestGOFinder</text>
</a>
</g>
</g>
<!-- Node4&#45;&gt;Node1 -->
<g id="edge3" class="edge"><title>Node4&#45;&gt;Node1</title>
<path fill="none" stroke="midnightblue" d="M187.238,-51.8622C166.841,-41.8492 139.334,-28.3458 121.63,-19.6545"/>
<polygon fill="midnightblue" stroke="midnightblue" points="185.808,-55.059 196.327,-56.324 188.892,-48.7753 185.808,-55.059"/>
</g>
</g>
</svg>
