<?xml version="1.0" encoding="UTF-8" standalone="no"?>
<!DOCTYPE svg PUBLIC "-//W3C//DTD SVG 1.1//EN"
 "http://www.w3.org/Graphics/SVG/1.1/DTD/svg11.dtd">
<!-- Generated by graphviz version 2.38.0 (20140413.2041)
 -->
<!-- Title: StageState Pages: 1 -->
<svg width="1377pt" height="842pt"
 viewBox="0.00 0.00 1377.00 841.50" xmlns="http://www.w3.org/2000/svg" xmlns:xlink="http://www.w3.org/1999/xlink">
<g id="graph0" class="graph" transform="scale(1 1) rotate(0) translate(4 837.5)">
<title>StageState</title>
<polygon fill="white" stroke="none" points="-4,4 -4,-837.5 1373,-837.5 1373,4 -4,4"/>
<!-- Node1 -->
<g id="node1" class="node"><title>Node1</title>
<polygon fill="#bfbfbf" stroke="black" points="1304,-545 1304,-564 1369,-564 1369,-545 1304,-545"/>
<text text-anchor="middle" x="1336.5" y="-552" font-family="Helvetica,sans-Serif" font-size="10.00">StageState</text>
</g>
<!-- Node2 -->
<g id="node2" class="node"><title>Node2</title>
<g id="a_node2"><a xlink:href="classState.html" target="_top" xlink:title="Classe virtual que modela um estado do jogo. ">
<polygon fill="white" stroke="black" points="850,-612 850,-631 890,-631 890,-612 850,-612"/>
<text text-anchor="middle" x="870" y="-619" font-family="Helvetica,sans-Serif" font-size="10.00">State</text>
</a>
</g>
</g>
<!-- Node2&#45;&gt;Node1 -->
<g id="edge1" class="edge"><title>Node2&#45;&gt;Node1</title>
<path fill="none" stroke="midnightblue" d="M900.433,-620.892C969.054,-618.889 1144.56,-610.37 1286,-574.5 1295.88,-571.994 1306.41,-567.949 1315.21,-564.15"/>
<polygon fill="midnightblue" stroke="midnightblue" points="900.262,-617.395 890.359,-621.161 900.449,-624.393 900.262,-617.395"/>
</g>
<!-- Node3 -->
<g id="node3" class="node"><title>Node3</title>
<polygon fill="white" stroke="#bfbfbf" points="541.5,-606.5 541.5,-636.5 656.5,-636.5 656.5,-606.5 541.5,-606.5"/>
<text text-anchor="start" x="549.5" y="-624.5" font-family="Helvetica,sans-Serif" font-size="10.00">vector&lt; std::unique</text>
<text text-anchor="middle" x="599" y="-613.5" font-family="Helvetica,sans-Serif" font-size="10.00">_ptr&lt; GameObject &gt; &gt;</text>
</g>
<!-- Node3&#45;&gt;Node2 -->
<g id="edge2" class="edge"><title>Node3&#45;&gt;Node2</title>
<path fill="none" stroke="#9a32cd" stroke-dasharray="5,2" d="M666.932,-621.5C727.273,-621.5 812.126,-621.5 849.746,-621.5"/>
<polygon fill="#9a32cd" stroke="#9a32cd" points="666.719,-618 656.719,-621.5 666.719,-625 666.719,-618"/>
<text text-anchor="middle" x="725" y="-624.5" font-family="Helvetica,sans-Serif" font-size="10.00"> objectArray</text>
</g>
<!-- Node4 -->
<g id="node4" class="node"><title>Node4</title>
<polygon fill="white" stroke="#bfbfbf" points="581.5,-450 581.5,-469 616.5,-469 616.5,-450 581.5,-450"/>
<text text-anchor="middle" x="599" y="-457" font-family="Helvetica,sans-Serif" font-size="10.00">bool</text>
</g>
<!-- Node4&#45;&gt;Node2 -->
<g id="edge3" class="edge"><title>Node4&#45;&gt;Node2</title>
<path fill="none" stroke="#9a32cd" stroke-dasharray="5,2" d="M626.214,-468.841C668.615,-484.435 749.48,-516.34 769,-539.5 787.767,-561.766 765.894,-582.436 787,-602.5 803.84,-618.509 831.394,-621.961 849.857,-622.279"/>
<polygon fill="#9a32cd" stroke="#9a32cd" points="627.16,-465.461 616.566,-465.331 624.766,-472.039 627.16,-465.461"/>
<text text-anchor="middle" x="725" y="-553.5" font-family="Helvetica,sans-Serif" font-size="10.00"> quitRequested</text>
<text text-anchor="middle" x="725" y="-542.5" font-family="Helvetica,sans-Serif" font-size="10.00">popRequested</text>
</g>
<!-- Node17 -->
<g id="node17" class="node"><title>Node17</title>
<g id="a_node17"><a xlink:href="classWaveManager.html" target="_top" xlink:title="Classe que gerencia as waves do jogo. Responsavel por iniciar, encerrar e contar as waves...">
<polygon fill="white" stroke="black" points="1105,-462 1105,-481 1185,-481 1185,-462 1105,-462"/>
<text text-anchor="middle" x="1145" y="-469" font-family="Helvetica,sans-Serif" font-size="10.00">WaveManager</text>
</a>
</g>
</g>
<!-- Node4&#45;&gt;Node17 -->
<g id="edge23" class="edge"><title>Node4&#45;&gt;Node17</title>
<path fill="none" stroke="#9a32cd" stroke-dasharray="5,2" d="M626.859,-460.329C642.627,-460.775 662.943,-461.277 681,-461.5 720.108,-461.983 730.394,-467.765 769,-461.5 777.324,-460.149 778.676,-456.851 787,-455.5 859.825,-443.682 879.287,-452.418 953,-455.5 1005.7,-457.703 1066.36,-463.312 1104.92,-467.264"/>
<polygon fill="#9a32cd" stroke="#9a32cd" points="626.85,-456.828 616.752,-460.034 626.646,-463.825 626.85,-456.828"/>
<text text-anchor="middle" x="870" y="-458.5" font-family="Helvetica,sans-Serif" font-size="10.00"> endWave</text>
</g>
<!-- Node19 -->
<g id="node19" class="node"><title>Node19</title>
<g id="a_node19"><a xlink:href="classTileMap.html" target="_top" xlink:title="Classe que modela o TileMap. ">
<polygon fill="white" stroke="black" points="844.5,-353 844.5,-372 895.5,-372 895.5,-353 844.5,-353"/>
<text text-anchor="middle" x="870" y="-360" font-family="Helvetica,sans-Serif" font-size="10.00">TileMap</text>
</a>
</g>
</g>
<!-- Node4&#45;&gt;Node19 -->
<g id="edge29" class="edge"><title>Node4&#45;&gt;Node19</title>
<path fill="none" stroke="#9a32cd" stroke-dasharray="5,2" d="M626.821,-455.869C671.696,-449.582 758.171,-436.482 769,-427.5 785.897,-413.484 770.39,-395.856 787,-381.5 802.81,-367.835 826.543,-363.508 844.415,-362.35"/>
<polygon fill="#9a32cd" stroke="#9a32cd" points="626.061,-452.441 616.635,-457.279 627.021,-459.375 626.061,-452.441"/>
<text text-anchor="middle" x="725" y="-450.5" font-family="Helvetica,sans-Serif" font-size="10.00"> displayCollisionInfo</text>
</g>
<!-- Node25 -->
<g id="node25" class="node"><title>Node25</title>
<g id="a_node25"><a xlink:href="classInputManager.html" target="_top" xlink:title="Classe que organiza entradas do usuário. ">
<polygon fill="white" stroke="black" points="832,-158 832,-177 908,-177 908,-158 832,-158"/>
<text text-anchor="middle" x="870" y="-165" font-family="Helvetica,sans-Serif" font-size="10.00">InputManager</text>
</a>
</g>
</g>
<!-- Node4&#45;&gt;Node25 -->
<g id="edge40" class="edge"><title>Node4&#45;&gt;Node25</title>
<path fill="none" stroke="#9a32cd" stroke-dasharray="5,2" d="M620.324,-443.578C636.349,-431.365 659.504,-414.46 681,-401.5 718.448,-378.923 737.76,-388.096 769,-357.5 825.724,-301.945 857.283,-207.305 866.285,-177.079"/>
<polygon fill="#9a32cd" stroke="#9a32cd" points="617.999,-440.951 612.211,-449.825 622.269,-446.497 617.999,-440.951"/>
<text text-anchor="middle" x="725" y="-415.5" font-family="Helvetica,sans-Serif" font-size="10.00"> quitRequested</text>
<text text-anchor="middle" x="725" y="-404.5" font-family="Helvetica,sans-Serif" font-size="10.00">mouseState</text>
</g>
<!-- Node5 -->
<g id="node5" class="node"><title>Node5</title>
<polygon fill="white" stroke="#bfbfbf" points="811.5,-574 811.5,-593 928.5,-593 928.5,-574 811.5,-574"/>
<text text-anchor="middle" x="870" y="-581" font-family="Helvetica,sans-Serif" font-size="10.00">vector&lt; vector&lt; int &gt; &gt;</text>
</g>
<!-- Node5&#45;&gt;Node1 -->
<g id="edge4" class="edge"><title>Node5&#45;&gt;Node1</title>
<path fill="none" stroke="#9a32cd" stroke-dasharray="5,2" d="M939.084,-579.249C1041.07,-572.882 1229.47,-561.12 1303.98,-556.468"/>
<polygon fill="#9a32cd" stroke="#9a32cd" points="938.653,-575.769 928.89,-579.886 939.089,-582.756 938.653,-575.769"/>
<text text-anchor="middle" x="1145" y="-572.5" font-family="Helvetica,sans-Serif" font-size="10.00"> spawnGroups</text>
</g>
<!-- Node5&#45;&gt;Node17 -->
<g id="edge21" class="edge"><title>Node5&#45;&gt;Node17</title>
<path fill="none" stroke="#9a32cd" stroke-dasharray="5,2" d="M918.045,-571.416C934.74,-567.214 953.682,-562.543 971,-558.5 1017.95,-547.542 1034.42,-558.106 1077,-535.5 1102.86,-521.771 1125.81,-495.215 1136.92,-481.01"/>
<polygon fill="#9a32cd" stroke="#9a32cd" points="916.812,-568.118 907.975,-573.963 918.528,-574.904 916.812,-568.118"/>
<text text-anchor="middle" x="1024" y="-561.5" font-family="Helvetica,sans-Serif" font-size="10.00"> spawnGroups</text>
</g>
<!-- Node6 -->
<g id="node6" class="node"><title>Node6</title>
<g id="a_node6"><a xlink:href="classMusic.html" target="_top" xlink:title="Classe que modela músicas. ">
<polygon fill="white" stroke="black" points="1123.5,-688 1123.5,-707 1166.5,-707 1166.5,-688 1123.5,-688"/>
<text text-anchor="middle" x="1145" y="-695" font-family="Helvetica,sans-Serif" font-size="10.00">Music</text>
</a>
</g>
</g>
<!-- Node6&#45;&gt;Node1 -->
<g id="edge5" class="edge"><title>Node6&#45;&gt;Node1</title>
<path fill="none" stroke="#9a32cd" stroke-dasharray="5,2" d="M1176.7,-700.264C1207.58,-701.365 1254.96,-698.256 1286,-673.5 1321.51,-645.18 1331.83,-586.946 1334.58,-564.048"/>
<polygon fill="#9a32cd" stroke="#9a32cd" points="1176.68,-696.759 1166.51,-699.728 1176.32,-703.749 1176.68,-696.759"/>
<text text-anchor="middle" x="1249.5" y="-702.5" font-family="Helvetica,sans-Serif" font-size="10.00"> music</text>
</g>
<!-- Node7 -->
<g id="node7" class="node"><title>Node7</title>
<polygon fill="white" stroke="#bfbfbf" points="806,-688 806,-707 934,-707 934,-688 806,-688"/>
<text text-anchor="middle" x="870" y="-695" font-family="Helvetica,sans-Serif" font-size="10.00">shared_ptr&lt; Mix_Music &gt;</text>
</g>
<!-- Node7&#45;&gt;Node6 -->
<g id="edge6" class="edge"><title>Node7&#45;&gt;Node6</title>
<path fill="none" stroke="#9a32cd" stroke-dasharray="5,2" d="M944.527,-697.5C1004.63,-697.5 1085.6,-697.5 1123.2,-697.5"/>
<polygon fill="#9a32cd" stroke="#9a32cd" points="944.318,-694 934.318,-697.5 944.318,-701 944.318,-694"/>
<text text-anchor="middle" x="1024" y="-700.5" font-family="Helvetica,sans-Serif" font-size="10.00"> music</text>
</g>
<!-- Node8 -->
<g id="node8" class="node"><title>Node8</title>
<g id="a_node8"><a xlink:href="classSprite.html" target="_top" xlink:title="Classe que modela uma sprite. ">
<polygon fill="white" stroke="black" points="361.5,-681 361.5,-700 403.5,-700 403.5,-681 361.5,-681"/>
<text text-anchor="middle" x="382.5" y="-688" font-family="Helvetica,sans-Serif" font-size="10.00">Sprite</text>
</a>
</g>
</g>
<!-- Node8&#45;&gt;Node1 -->
<g id="edge7" class="edge"><title>Node8&#45;&gt;Node1</title>
<path fill="none" stroke="#9a32cd" stroke-dasharray="5,2" d="M413.156,-702.672C454.03,-718.321 530.314,-743.5 598,-743.5 598,-743.5 598,-743.5 1146,-743.5 1209.54,-743.5 1238.97,-757.229 1286,-714.5 1331.19,-673.44 1335.55,-592.078 1335.66,-564.164"/>
<polygon fill="#9a32cd" stroke="#9a32cd" points="414.381,-699.393 403.793,-699.015 411.835,-705.914 414.381,-699.393"/>
<text text-anchor="middle" x="870" y="-746.5" font-family="Helvetica,sans-Serif" font-size="10.00"> bg</text>
</g>
<!-- Node16 -->
<g id="node16" class="node"><title>Node16</title>
<g id="a_node16"><a xlink:href="classTileSet.html" target="_top" xlink:title="Classe responsável por modelar um tileset. ">
<polygon fill="white" stroke="black" points="575.5,-656 575.5,-675 622.5,-675 622.5,-656 575.5,-656"/>
<text text-anchor="middle" x="599" y="-663" font-family="Helvetica,sans-Serif" font-size="10.00">TileSet</text>
</a>
</g>
</g>
<!-- Node8&#45;&gt;Node16 -->
<g id="edge17" class="edge"><title>Node8&#45;&gt;Node16</title>
<path fill="none" stroke="#9a32cd" stroke-dasharray="5,2" d="M413.674,-686.983C457.212,-681.909 536.673,-672.648 575.475,-668.125"/>
<polygon fill="#9a32cd" stroke="#9a32cd" points="413.207,-683.514 403.68,-688.148 414.018,-690.467 413.207,-683.514"/>
<text text-anchor="middle" x="470" y="-689.5" font-family="Helvetica,sans-Serif" font-size="10.00"> tileSet</text>
</g>
<!-- Node9 -->
<g id="node9" class="node"><title>Node9</title>
<polygon fill="white" stroke="#bfbfbf" points="0,-783 0,-802 77,-802 77,-783 0,-783"/>
<text text-anchor="middle" x="38.5" y="-790" font-family="Helvetica,sans-Serif" font-size="10.00">unsigned char</text>
</g>
<!-- Node9&#45;&gt;Node8 -->
<g id="edge8" class="edge"><title>Node9&#45;&gt;Node8</title>
<path fill="none" stroke="#9a32cd" stroke-dasharray="5,2" d="M87.2339,-786.879C161.071,-777.574 298.966,-757.583 342,-733.5 356.507,-725.381 368.638,-710.017 375.483,-700.023"/>
<polygon fill="#9a32cd" stroke="#9a32cd" points="86.7481,-783.413 77.2568,-788.121 87.6125,-790.359 86.7481,-783.413"/>
<text text-anchor="middle" x="191" y="-784.5" font-family="Helvetica,sans-Serif" font-size="10.00"> alpha</text>
</g>
<!-- Node15 -->
<g id="node15" class="node"><title>Node15</title>
<g id="a_node15"><a xlink:href="structColor.html" target="_top" xlink:title="Struct para armazenar informações de cor. ">
<polygon fill="white" stroke="black" points="171,-804 171,-823 211,-823 211,-804 171,-804"/>
<text text-anchor="middle" x="191" y="-811" font-family="Helvetica,sans-Serif" font-size="10.00">Color</text>
</a>
</g>
</g>
<!-- Node9&#45;&gt;Node15 -->
<g id="edge15" class="edge"><title>Node9&#45;&gt;Node15</title>
<path fill="none" stroke="#9a32cd" stroke-dasharray="5,2" d="M87.2041,-799.156C115.496,-803.104 149.815,-807.893 170.771,-810.817"/>
<polygon fill="#9a32cd" stroke="#9a32cd" points="87.477,-795.661 77.0893,-797.745 86.5096,-802.593 87.477,-795.661"/>
<text text-anchor="middle" x="99.5" y="-825.5" font-family="Helvetica,sans-Serif" font-size="10.00"> g</text>
<text text-anchor="middle" x="99.5" y="-814.5" font-family="Helvetica,sans-Serif" font-size="10.00">r</text>
<text text-anchor="middle" x="99.5" y="-803.5" font-family="Helvetica,sans-Serif" font-size="10.00">b</text>
</g>
<!-- Node10 -->
<g id="node10" class="node"><title>Node10</title>
<polygon fill="white" stroke="#bfbfbf" points="173.5,-180 173.5,-199 208.5,-199 208.5,-180 173.5,-180"/>
<text text-anchor="middle" x="191" y="-187" font-family="Helvetica,sans-Serif" font-size="10.00">float</text>
</g>
<!-- Node10&#45;&gt;Node8 -->
<g id="edge9" class="edge"><title>Node10&#45;&gt;Node8</title>
<path fill="none" stroke="#9a32cd" stroke-dasharray="5,2" d="M202.144,-208.18C228.71,-257.804 301.086,-397.606 342,-521.5 353.836,-557.343 351.422,-567.741 360,-604.5 366.506,-632.376 374.907,-665.144 379.016,-680.979"/>
<polygon fill="#9a32cd" stroke="#9a32cd" points="205.154,-206.387 197.331,-199.243 198.991,-209.707 205.154,-206.387"/>
<text text-anchor="middle" x="310" y="-557.5" font-family="Helvetica,sans-Serif" font-size="10.00"> scaleY</text>
<text text-anchor="middle" x="310" y="-546.5" font-family="Helvetica,sans-Serif" font-size="10.00">frameTime</text>
<text text-anchor="middle" x="310" y="-535.5" font-family="Helvetica,sans-Serif" font-size="10.00">timeElapsed</text>
<text text-anchor="middle" x="310" y="-524.5" font-family="Helvetica,sans-Serif" font-size="10.00">scaleX</text>
</g>
<!-- Node23 -->
<g id="node23" class="node"><title>Node23</title>
<g id="a_node23"><a xlink:href="classTimer.html" target="_top" xlink:title="Temporizador. ">
<polygon fill="white" stroke="black" points="449.5,-301 449.5,-320 490.5,-320 490.5,-301 449.5,-301"/>
<text text-anchor="middle" x="470" y="-308" font-family="Helvetica,sans-Serif" font-size="10.00">Timer</text>
</a>
</g>
</g>
<!-- Node10&#45;&gt;Node23 -->
<g id="edge32" class="edge"><title>Node10&#45;&gt;Node23</title>
<path fill="none" stroke="#9a32cd" stroke-dasharray="5,2" d="M217.765,-202.869C259.914,-224.41 346.575,-267.331 423,-296.5 431.423,-299.715 440.926,-302.709 449.099,-305.096"/>
<polygon fill="#9a32cd" stroke="#9a32cd" points="219.246,-199.695 208.751,-198.241 216.049,-205.922 219.246,-199.695"/>
<text text-anchor="middle" x="310" y="-265.5" font-family="Helvetica,sans-Serif" font-size="10.00"> time</text>
</g>
<!-- Node26 -->
<g id="node26" class="node"><title>Node26</title>
<g id="a_node26"><a xlink:href="classVec2.html" target="_top" xlink:title="Classe que modela um vetor(no sentido físico) ">
<polygon fill="white" stroke="black" points="363,-78 363,-97 402,-97 402,-78 363,-78"/>
<text text-anchor="middle" x="382.5" y="-85" font-family="Helvetica,sans-Serif" font-size="10.00">Vec2</text>
</a>
</g>
</g>
<!-- Node10&#45;&gt;Node26 -->
<g id="edge38" class="edge"><title>Node10&#45;&gt;Node26</title>
<path fill="none" stroke="#9a32cd" stroke-dasharray="5,2" d="M217.978,-175.517C257.054,-154.484 329.958,-115.243 363.62,-97.1239"/>
<polygon fill="#9a32cd" stroke="#9a32cd" points="215.963,-172.627 208.817,-180.448 219.281,-178.79 215.963,-172.627"/>
<text text-anchor="middle" x="310" y="-156.5" font-family="Helvetica,sans-Serif" font-size="10.00"> x</text>
<text text-anchor="middle" x="310" y="-145.5" font-family="Helvetica,sans-Serif" font-size="10.00">y</text>
</g>
<!-- Node11 -->
<g id="node11" class="node"><title>Node11</title>
<polygon fill="white" stroke="#bfbfbf" points="160,-719 160,-738 222,-738 222,-719 160,-719"/>
<text text-anchor="middle" x="191" y="-726" font-family="Helvetica,sans-Serif" font-size="10.00">SDL_Rect</text>
</g>
<!-- Node11&#45;&gt;Node8 -->
<g id="edge10" class="edge"><title>Node11&#45;&gt;Node8</title>
<path fill="none" stroke="#9a32cd" stroke-dasharray="5,2" d="M232.502,-724.63C262.959,-721.158 305.536,-715.104 342,-705.5 348.384,-703.818 355.162,-701.465 361.267,-699.121"/>
<polygon fill="#9a32cd" stroke="#9a32cd" points="231.823,-721.184 222.264,-725.752 232.586,-728.142 231.823,-721.184"/>
<text text-anchor="middle" x="310" y="-721.5" font-family="Helvetica,sans-Serif" font-size="10.00"> clipRect</text>
</g>
<!-- Node12 -->
<g id="node12" class="node"><title>Node12</title>
<polygon fill="white" stroke="#bfbfbf" points="176.5,-501 176.5,-520 205.5,-520 205.5,-501 176.5,-501"/>
<text text-anchor="middle" x="191" y="-508" font-family="Helvetica,sans-Serif" font-size="10.00">int</text>
</g>
<!-- Node12&#45;&gt;Node8 -->
<g id="edge11" class="edge"><title>Node12&#45;&gt;Node8</title>
<path fill="none" stroke="#9a32cd" stroke-dasharray="5,2" d="M214.338,-525.286C253.643,-551.428 331.979,-604.13 342,-615.5 359.904,-635.814 372.477,-665.672 378.133,-680.86"/>
<polygon fill="#9a32cd" stroke="#9a32cd" points="215.959,-522.162 205.692,-519.546 212.087,-527.993 215.959,-522.162"/>
<text text-anchor="middle" x="310" y="-651.5" font-family="Helvetica,sans-Serif" font-size="10.00"> width</text>
<text text-anchor="middle" x="310" y="-640.5" font-family="Helvetica,sans-Serif" font-size="10.00">currentFrame</text>
<text text-anchor="middle" x="310" y="-629.5" font-family="Helvetica,sans-Serif" font-size="10.00">height</text>
<text text-anchor="middle" x="310" y="-618.5" font-family="Helvetica,sans-Serif" font-size="10.00">frameCount</text>
</g>
<!-- Node12&#45;&gt;Node16 -->
<g id="edge18" class="edge"><title>Node12&#45;&gt;Node16</title>
<path fill="none" stroke="#9a32cd" stroke-dasharray="5,2" d="M215.039,-519.672C286.714,-548.193 502.883,-634.096 535,-645.5 548.301,-650.223 563.364,-655.024 575.426,-658.739"/>
<polygon fill="#9a32cd" stroke="#9a32cd" points="216.137,-516.342 205.552,-515.896 213.549,-522.846 216.137,-516.342"/>
<text text-anchor="middle" x="382.5" y="-630.5" font-family="Helvetica,sans-Serif" font-size="10.00"> tileHeight</text>
<text text-anchor="middle" x="382.5" y="-619.5" font-family="Helvetica,sans-Serif" font-size="10.00">rows</text>
<text text-anchor="middle" x="382.5" y="-608.5" font-family="Helvetica,sans-Serif" font-size="10.00">tileWidth</text>
<text text-anchor="middle" x="382.5" y="-597.5" font-family="Helvetica,sans-Serif" font-size="10.00">columns</text>
</g>
<!-- Node12&#45;&gt;Node17 -->
<g id="edge22" class="edge"><title>Node12&#45;&gt;Node17</title>
<path fill="none" stroke="#9a32cd" stroke-dasharray="5,2" d="M215.835,-509.202C299.374,-504.926 578.41,-493.004 663,-519.5 672.175,-522.374 671.798,-528.714 681,-531.5 718.433,-542.834 729.892,-532.031 769,-531.5 850.8,-530.389 871.679,-535.414 953,-526.5 1008.8,-520.384 1023.58,-519.745 1077,-502.5 1094.32,-496.909 1113.04,-487.982 1126.28,-481.141"/>
<polygon fill="#9a32cd" stroke="#9a32cd" points="215.604,-505.71 205.801,-509.728 215.97,-512.7 215.604,-505.71"/>
<text text-anchor="middle" x="599" y="-588.5" font-family="Helvetica,sans-Serif" font-size="10.00"> totalWaves</text>
<text text-anchor="middle" x="599" y="-577.5" font-family="Helvetica,sans-Serif" font-size="10.00">waveTotalEnemies</text>
<text text-anchor="middle" x="599" y="-566.5" font-family="Helvetica,sans-Serif" font-size="10.00">playerLifes</text>
<text text-anchor="middle" x="599" y="-555.5" font-family="Helvetica,sans-Serif" font-size="10.00">enemiesLeft</text>
<text text-anchor="middle" x="599" y="-544.5" font-family="Helvetica,sans-Serif" font-size="10.00">waveIndex</text>
<text text-anchor="middle" x="599" y="-533.5" font-family="Helvetica,sans-Serif" font-size="10.00">waveCount</text>
<text text-anchor="middle" x="599" y="-522.5" font-family="Helvetica,sans-Serif" font-size="10.00">enemyIndex</text>
</g>
<!-- Node12&#45;&gt;Node19 -->
<g id="edge28" class="edge"><title>Node12&#45;&gt;Node19</title>
<path fill="none" stroke="#9a32cd" stroke-dasharray="5,2" d="M204.733,-492.886C219.784,-473.654 246.769,-443.819 278,-430.5 378.528,-387.628 671.051,-450.976 769,-402.5 780.017,-397.047 776.488,-387.872 787,-381.5 804.37,-370.971 827.053,-366.274 844.157,-364.181"/>
<polygon fill="#9a32cd" stroke="#9a32cd" points="201.928,-490.793 198.685,-500.88 207.51,-495.017 201.928,-490.793"/>
<text text-anchor="middle" x="470" y="-443.5" font-family="Helvetica,sans-Serif" font-size="10.00"> mapDepth</text>
<text text-anchor="middle" x="470" y="-432.5" font-family="Helvetica,sans-Serif" font-size="10.00">mapHeight</text>
<text text-anchor="middle" x="470" y="-421.5" font-family="Helvetica,sans-Serif" font-size="10.00">mapWidth</text>
</g>
<!-- Node12&#45;&gt;Node25 -->
<g id="edge39" class="edge"><title>Node12&#45;&gt;Node25</title>
<path fill="none" stroke="#9a32cd" stroke-dasharray="5,2" d="M200.508,-491.414C225.523,-437.909 304.596,-286.413 423,-225.5 457.249,-207.881 731.311,-212.435 769,-204.5 797.439,-198.513 828.608,-185.953 848.461,-177.134"/>
<polygon fill="#9a32cd" stroke="#9a32cd" points="197.213,-490.203 196.23,-500.753 203.577,-493.119 197.213,-490.203"/>
<text text-anchor="middle" x="470" y="-283.5" font-family="Helvetica,sans-Serif" font-size="10.00"> mouseX</text>
<text text-anchor="middle" x="470" y="-272.5" font-family="Helvetica,sans-Serif" font-size="10.00">mouseY</text>
<text text-anchor="middle" x="470" y="-261.5" font-family="Helvetica,sans-Serif" font-size="10.00">controllerStickUpdate</text>
<text text-anchor="middle" x="470" y="-250.5" font-family="Helvetica,sans-Serif" font-size="10.00">mouseScroolUpdate</text>
<text text-anchor="middle" x="470" y="-239.5" font-family="Helvetica,sans-Serif" font-size="10.00">updateCounter</text>
<text text-anchor="middle" x="470" y="-228.5" font-family="Helvetica,sans-Serif" font-size="10.00">mouseUpdate</text>
</g>
<!-- Node13 -->
<g id="node13" class="node"><title>Node13</title>
<polygon fill="white" stroke="#bfbfbf" points="122,-681 122,-700 260,-700 260,-681 122,-681"/>
<text text-anchor="middle" x="191" y="-688" font-family="Helvetica,sans-Serif" font-size="10.00">shared_ptr&lt; SDL_Texture &gt;</text>
</g>
<!-- Node13&#45;&gt;Node8 -->
<g id="edge12" class="edge"><title>Node13&#45;&gt;Node8</title>
<path fill="none" stroke="#9a32cd" stroke-dasharray="5,2" d="M270.36,-690.5C303.62,-690.5 339.659,-690.5 361.406,-690.5"/>
<polygon fill="#9a32cd" stroke="#9a32cd" points="270.146,-687 260.146,-690.5 270.146,-694 270.146,-687"/>
<text text-anchor="middle" x="310" y="-693.5" font-family="Helvetica,sans-Serif" font-size="10.00"> texture</text>
</g>
<!-- Node14 -->
<g id="node14" class="node"><title>Node14</title>
<polygon fill="white" stroke="#bfbfbf" points="146,-643 146,-662 236,-662 236,-643 146,-643"/>
<text text-anchor="middle" x="191" y="-650" font-family="Helvetica,sans-Serif" font-size="10.00">SDL_BlendMode</text>
</g>
<!-- Node14&#45;&gt;Node8 -->
<g id="edge13" class="edge"><title>Node14&#45;&gt;Node8</title>
<path fill="none" stroke="#9a32cd" stroke-dasharray="5,2" d="M246.397,-658.038C275.126,-661.664 310.8,-667.282 342,-675.5 348.384,-677.182 355.162,-679.535 361.267,-681.879"/>
<polygon fill="#9a32cd" stroke="#9a32cd" points="246.497,-654.524 236.148,-656.791 245.652,-661.473 246.497,-654.524"/>
<text text-anchor="middle" x="310" y="-678.5" font-family="Helvetica,sans-Serif" font-size="10.00"> blendMode</text>
</g>
<!-- Node15&#45;&gt;Node8 -->
<g id="edge14" class="edge"><title>Node15&#45;&gt;Node8</title>
<path fill="none" stroke="#9a32cd" stroke-dasharray="5,2" d="M221.518,-816.554C254.478,-818.32 307.688,-816.043 342,-788.5 370.181,-765.878 378.381,-720.039 380.663,-700.112"/>
<polygon fill="#9a32cd" stroke="#9a32cd" points="221.393,-813.037 211.173,-815.831 220.905,-820.02 221.393,-813.037"/>
<text text-anchor="middle" x="310" y="-816.5" font-family="Helvetica,sans-Serif" font-size="10.00"> colorMultiplier</text>
</g>
<!-- Node16&#45;&gt;Node1 -->
<g id="edge16" class="edge"><title>Node16&#45;&gt;Node1</title>
<path fill="none" stroke="#9a32cd" stroke-dasharray="5,2" d="M632.7,-664.332C722.822,-660.763 982.195,-648.119 1195,-614.5 1235.72,-608.067 1248.87,-614.412 1286,-596.5 1302.44,-588.567 1317.9,-573.856 1327.03,-564.121"/>
<polygon fill="#9a32cd" stroke="#9a32cd" points="632.421,-660.841 622.563,-664.724 632.691,-667.835 632.421,-660.841"/>
<text text-anchor="middle" x="1024" y="-644.5" font-family="Helvetica,sans-Serif" font-size="10.00"> tileSet</text>
</g>
<!-- Node16&#45;&gt;Node19 -->
<g id="edge25" class="edge"><title>Node16&#45;&gt;Node19</title>
<path fill="none" stroke="#9a32cd" stroke-dasharray="5,2" d="M632.567,-660.597C643.24,-657.664 654.522,-652.979 663,-645.5 677.316,-632.871 667.776,-620.268 681,-606.5 711.43,-574.819 744.237,-597.783 769,-561.5 791.661,-528.297 760.451,-411.685 787,-381.5 801.09,-365.479 825.78,-361.552 844.396,-361.136"/>
<polygon fill="#9a32cd" stroke="#9a32cd" points="631.579,-657.233 622.632,-662.907 633.165,-664.051 631.579,-657.233"/>
<text text-anchor="middle" x="725" y="-609.5" font-family="Helvetica,sans-Serif" font-size="10.00"> tileSet</text>
</g>
<!-- Node17&#45;&gt;Node1 -->
<g id="edge19" class="edge"><title>Node17&#45;&gt;Node1</title>
<path fill="none" stroke="#9a32cd" stroke-dasharray="5,2" d="M1176.92,-485.042C1215.39,-501.89 1280.09,-530.232 1313.72,-544.962"/>
<polygon fill="#9a32cd" stroke="#9a32cd" points="1178.3,-481.827 1167.74,-481.021 1175.49,-488.239 1178.3,-481.827"/>
<text text-anchor="middle" x="1249.5" y="-535.5" font-family="Helvetica,sans-Serif" font-size="10.00"> waveManager</text>
</g>
<!-- Node18 -->
<g id="node18" class="node"><title>Node18</title>
<g id="a_node18"><a xlink:href="classComponent.html" target="_top" xlink:title="Modela os componentes. ">
<polygon fill="white" stroke="black" points="836.5,-391 836.5,-410 903.5,-410 903.5,-391 836.5,-391"/>
<text text-anchor="middle" x="870" y="-398" font-family="Helvetica,sans-Serif" font-size="10.00">Component</text>
</a>
</g>
</g>
<!-- Node18&#45;&gt;Node17 -->
<g id="edge20" class="edge"><title>Node18&#45;&gt;Node17</title>
<path fill="none" stroke="midnightblue" d="M913.663,-402.5C956.129,-405.552 1022.64,-413.231 1077,-432.5 1097.04,-439.604 1117.87,-452.795 1130.87,-461.853"/>
<polygon fill="midnightblue" stroke="midnightblue" points="913.88,-399.007 903.67,-401.835 913.415,-405.991 913.88,-399.007"/>
</g>
<!-- Node19&#45;&gt;Node1 -->
<g id="edge33" class="edge"><title>Node19&#45;&gt;Node1</title>
<path fill="none" stroke="#9a32cd" stroke-dasharray="5,2" d="M905.686,-356.275C947.352,-350.163 1018.9,-344.049 1077,-361.5 1183.61,-393.52 1201.64,-426.878 1286,-499.5 1302.55,-513.748 1318.95,-533.327 1328.1,-544.873"/>
<polygon fill="#9a32cd" stroke="#9a32cd" points="905.108,-352.823 895.763,-357.815 906.181,-359.74 905.108,-352.823"/>
<text text-anchor="middle" x="1145" y="-421.5" font-family="Helvetica,sans-Serif" font-size="10.00"> tileMap</text>
</g>
<!-- Node19&#45;&gt;Node17 -->
<g id="edge24" class="edge"><title>Node19&#45;&gt;Node17</title>
<path fill="none" stroke="#9a32cd" stroke-dasharray="5,2" d="M905.778,-360.852C948.702,-360.336 1022.67,-364.507 1077,-394.5 1106.32,-410.686 1128.87,-444.942 1138.66,-461.764"/>
<polygon fill="#9a32cd" stroke="#9a32cd" points="905.487,-357.358 895.564,-361.072 905.637,-364.356 905.487,-357.358"/>
<text text-anchor="middle" x="1024" y="-397.5" font-family="Helvetica,sans-Serif" font-size="10.00"> tileMap</text>
</g>
<!-- Node20 -->
<g id="node20" class="node"><title>Node20</title>
<polygon fill="white" stroke="#bfbfbf" points="563,-262 563,-281 635,-281 635,-262 563,-262"/>
<text text-anchor="middle" x="599" y="-269" font-family="Helvetica,sans-Serif" font-size="10.00">vector&lt; int &gt;</text>
</g>
<!-- Node20&#45;&gt;Node1 -->
<g id="edge34" class="edge"><title>Node20&#45;&gt;Node1</title>
<path fill="none" stroke="#9a32cd" stroke-dasharray="5,2" d="M645.307,-264.25C656.911,-262.695 669.392,-261.285 681,-260.5 720.022,-257.862 730.102,-256.423 769,-260.5 962.832,-280.816 1019.38,-279.987 1195,-364.5 1240.26,-386.279 1255.23,-391.804 1286,-431.5 1314.34,-468.068 1328.69,-523.039 1333.55,-544.971"/>
<polygon fill="#9a32cd" stroke="#9a32cd" points="644.797,-260.787 635.38,-265.641 645.769,-267.719 644.797,-260.787"/>
<text text-anchor="middle" x="1024" y="-316.5" font-family="Helvetica,sans-Serif" font-size="10.00"> waves</text>
</g>
<!-- Node20&#45;&gt;Node19 -->
<g id="edge26" class="edge"><title>Node20&#45;&gt;Node19</title>
<path fill="none" stroke="#9a32cd" stroke-dasharray="5,2" d="M645.703,-265.596C680.662,-262.902 729.426,-263.149 769,-278.5 810.009,-294.407 846.292,-334.445 861.461,-352.905"/>
<polygon fill="#9a32cd" stroke="#9a32cd" points="644.976,-262.147 635.323,-266.514 645.592,-269.12 644.976,-262.147"/>
<text text-anchor="middle" x="725" y="-281.5" font-family="Helvetica,sans-Serif" font-size="10.00"> tileMatrix</text>
</g>
<!-- Node21 -->
<g id="node21" class="node"><title>Node21</title>
<polygon fill="white" stroke="#bfbfbf" points="537.5,-340 537.5,-359 660.5,-359 660.5,-340 537.5,-340"/>
<text text-anchor="middle" x="599" y="-347" font-family="Helvetica,sans-Serif" font-size="10.00">vector&lt; GameObject * &gt;</text>
</g>
<!-- Node21&#45;&gt;Node19 -->
<g id="edge27" class="edge"><title>Node21&#45;&gt;Node19</title>
<path fill="none" stroke="#9a32cd" stroke-dasharray="5,2" d="M670.896,-346.723C674.312,-346.636 677.694,-346.561 681,-346.5 720.104,-345.776 730.012,-343.401 769,-346.5 794.939,-348.562 824.309,-353.588 844.473,-357.461"/>
<polygon fill="#9a32cd" stroke="#9a32cd" points="670.487,-343.233 660.589,-347.011 670.683,-350.23 670.487,-343.233"/>
<text text-anchor="middle" x="725" y="-349.5" font-family="Helvetica,sans-Serif" font-size="10.00"> gameObjectMatrix</text>
</g>
<!-- Node22 -->
<g id="node22" class="node"><title>Node22</title>
<polygon fill="white" stroke="#bfbfbf" points="787,-476 787,-517 953,-517 953,-476 787,-476"/>
<text text-anchor="start" x="795" y="-505" font-family="Helvetica,sans-Serif" font-size="10.00">shared_ptr&lt; std::pair</text>
<text text-anchor="start" x="795" y="-494" font-family="Helvetica,sans-Serif" font-size="10.00">&lt; std::vector&lt; WaveData</text>
<text text-anchor="middle" x="870" y="-483" font-family="Helvetica,sans-Serif" font-size="10.00"> &gt;, std::vector&lt; EnemyData &gt; &gt; &gt;</text>
</g>
<!-- Node22&#45;&gt;Node17 -->
<g id="edge30" class="edge"><title>Node22&#45;&gt;Node17</title>
<path fill="none" stroke="#9a32cd" stroke-dasharray="5,2" d="M963.433,-488.035C1011.65,-483.62 1068.07,-478.453 1104.85,-475.085"/>
<polygon fill="#9a32cd" stroke="#9a32cd" points="962.918,-484.568 953.279,-488.965 963.557,-491.539 962.918,-484.568"/>
<text text-anchor="middle" x="1024" y="-490.5" font-family="Helvetica,sans-Serif" font-size="10.00"> wavesAndEnemysData</text>
</g>
<!-- Node23&#45;&gt;Node17 -->
<g id="edge31" class="edge"><title>Node23&#45;&gt;Node17</title>
<path fill="none" stroke="#9a32cd" stroke-dasharray="5,2" d="M500.73,-308.481C610.554,-301.682 991.441,-284.16 1077,-361.5 1101.47,-383.619 1076.98,-405.875 1095,-433.5 1102.76,-445.401 1115.55,-455.132 1126.11,-461.767"/>
<polygon fill="#9a32cd" stroke="#9a32cd" points="500.439,-304.992 490.681,-309.121 500.884,-311.978 500.439,-304.992"/>
<text text-anchor="middle" x="725" y="-306.5" font-family="Helvetica,sans-Serif" font-size="10.00"> spawnTimer</text>
</g>
<!-- Node24 -->
<g id="node24" class="node"><title>Node24</title>
<polygon fill="white" stroke="#bfbfbf" points="1095,-197 1095,-216 1195,-216 1195,-197 1095,-197"/>
<text text-anchor="middle" x="1145" y="-204" font-family="Helvetica,sans-Serif" font-size="10.00">EmptyGameObject</text>
</g>
<!-- Node24&#45;&gt;Node1 -->
<g id="edge35" class="edge"><title>Node24&#45;&gt;Node1</title>
<path fill="none" stroke="#9a32cd" stroke-dasharray="5,2" d="M1205.32,-196.518C1233.23,-195.317 1264.93,-199.54 1286,-219.5 1334.55,-265.491 1335.9,-494.302 1335.6,-544.679"/>
<polygon fill="#9a32cd" stroke="#9a32cd" points="1204.99,-193.032 1195.24,-197.186 1205.45,-200.017 1204.99,-193.032"/>
<text text-anchor="middle" x="1249.5" y="-222.5" font-family="Helvetica,sans-Serif" font-size="10.00"> nullGameObject</text>
</g>
<!-- Node25&#45;&gt;Node1 -->
<g id="edge36" class="edge"><title>Node25&#45;&gt;Node1</title>
<path fill="none" stroke="#9a32cd" stroke-dasharray="5,2" d="M909.401,-155.084C991.91,-131.087 1186.65,-89.2895 1286,-192.5 1336.26,-244.713 1336.23,-492.121 1335.65,-544.673"/>
<polygon fill="#9a32cd" stroke="#9a32cd" points="908.262,-151.771 899.678,-157.982 910.261,-158.48 908.262,-151.771"/>
<text text-anchor="middle" x="1145" y="-142.5" font-family="Helvetica,sans-Serif" font-size="10.00"> inputManager</text>
</g>
<!-- Node26&#45;&gt;Node25 -->
<g id="edge37" class="edge"><title>Node26&#45;&gt;Node25</title>
<path fill="none" stroke="#9a32cd" stroke-dasharray="5,2" d="M412.039,-81.815C463.047,-72.6584 572.949,-57.496 663,-76.5 738.554,-92.4448 820.139,-137.949 853.481,-157.914"/>
<polygon fill="#9a32cd" stroke="#9a32cd" points="411.27,-78.3978 402.076,-83.6633 412.547,-85.2803 411.27,-78.3978"/>
<text text-anchor="middle" x="599" y="-101.5" font-family="Helvetica,sans-Serif" font-size="10.00"> controllerLeftStickState</text>
<text text-anchor="middle" x="599" y="-90.5" font-family="Helvetica,sans-Serif" font-size="10.00">controllerRightStickState</text>
<text text-anchor="middle" x="599" y="-79.5" font-family="Helvetica,sans-Serif" font-size="10.00">mouseScroolState</text>
</g>
<!-- Node27 -->
<g id="node27" class="node"><title>Node27</title>
<polygon fill="white" stroke="#bfbfbf" points="546,-0.5 546,-30.5 652,-30.5 652,-0.5 546,-0.5"/>
<text text-anchor="start" x="554" y="-18.5" font-family="Helvetica,sans-Serif" font-size="10.00">unordered_map&lt; int,</text>
<text text-anchor="middle" x="599" y="-7.5" font-family="Helvetica,sans-Serif" font-size="10.00"> int &gt;</text>
</g>
<!-- Node27&#45;&gt;Node25 -->
<g id="edge41" class="edge"><title>Node27&#45;&gt;Node25</title>
<path fill="none" stroke="#9a32cd" stroke-dasharray="5,2" d="M662.242,-9.51327C695.865,-9.092 736.934,-13.3276 769,-31.5 821.779,-61.4105 854.587,-131.87 865.212,-157.747"/>
<polygon fill="#9a32cd" stroke="#9a32cd" points="661.968,-6.0192 652.065,-9.78324 662.154,-13.0167 661.968,-6.0192"/>
<text text-anchor="middle" x="725" y="-45.5" font-family="Helvetica,sans-Serif" font-size="10.00"> controllerUpdate</text>
<text text-anchor="middle" x="725" y="-34.5" font-family="Helvetica,sans-Serif" font-size="10.00">keyUpdate</text>
</g>
<!-- Node28 -->
<g id="node28" class="node"><title>Node28</title>
<polygon fill="white" stroke="#bfbfbf" points="546,-168.5 546,-198.5 652,-198.5 652,-168.5 546,-168.5"/>
<text text-anchor="start" x="554" y="-186.5" font-family="Helvetica,sans-Serif" font-size="10.00">unordered_map&lt; int,</text>
<text text-anchor="middle" x="599" y="-175.5" font-family="Helvetica,sans-Serif" font-size="10.00"> bool &gt;</text>
</g>
<!-- Node28&#45;&gt;Node25 -->
<g id="edge42" class="edge"><title>Node28&#45;&gt;Node25</title>
<path fill="none" stroke="#9a32cd" stroke-dasharray="5,2" d="M662.375,-179.79C714.78,-176.673 787.931,-172.322 831.671,-169.72"/>
<polygon fill="#9a32cd" stroke="#9a32cd" points="661.959,-176.308 652.185,-180.396 662.375,-183.296 661.959,-176.308"/>
<text text-anchor="middle" x="725" y="-192.5" font-family="Helvetica,sans-Serif" font-size="10.00"> keyState</text>
<text text-anchor="middle" x="725" y="-181.5" font-family="Helvetica,sans-Serif" font-size="10.00">controllerState</text>
</g>
<!-- Node29 -->
<g id="node29" class="node"><title>Node29</title>
<polygon fill="white" stroke="#bfbfbf" points="535,-119.5 535,-149.5 663,-149.5 663,-119.5 535,-119.5"/>
<text text-anchor="start" x="543" y="-137.5" font-family="Helvetica,sans-Serif" font-size="10.00">unordered_map&lt; int,</text>
<text text-anchor="middle" x="599" y="-126.5" font-family="Helvetica,sans-Serif" font-size="10.00"> SDL_GameController * &gt;</text>
</g>
<!-- Node29&#45;&gt;Node25 -->
<g id="edge43" class="edge"><title>Node29&#45;&gt;Node25</title>
<path fill="none" stroke="#9a32cd" stroke-dasharray="5,2" d="M673.107,-143.469C724.37,-149.757 790.781,-157.904 831.613,-162.914"/>
<polygon fill="#9a32cd" stroke="#9a32cd" points="673.42,-139.981 663.069,-142.237 672.568,-146.929 673.42,-139.981"/>
<text text-anchor="middle" x="725" y="-158.5" font-family="Helvetica,sans-Serif" font-size="10.00"> padToController</text>
</g>
</g>
</svg>
