<?xml version="1.0" encoding="UTF-8" standalone="no"?>
<!DOCTYPE svg PUBLIC "-//W3C//DTD SVG 1.1//EN"
 "http://www.w3.org/Graphics/SVG/1.1/DTD/svg11.dtd">
<!-- Generated by graphviz version 2.36.0 (20140111.2315)
 -->
<!-- Title: StageState Pages: 1 -->
<svg width="1426pt" height="854pt"
 viewBox="0.00 0.00 1426.00 854.08" xmlns="http://www.w3.org/2000/svg" xmlns:xlink="http://www.w3.org/1999/xlink">
<g id="graph0" class="graph" transform="scale(1 1) rotate(0) translate(4 850.077)">
<title>StageState</title>
<polygon fill="white" stroke="none" points="-4,4 -4,-850.077 1422,-850.077 1422,4 -4,4"/>
<!-- Node1 -->
<g id="node1" class="node"><title>Node1</title>
<polygon fill="#bfbfbf" stroke="black" points="1352.5,-384.577 1352.5,-403.577 1417.5,-403.577 1417.5,-384.577 1352.5,-384.577"/>
<text text-anchor="middle" x="1385" y="-391.577" font-family="Helvetica,sans-Serif" font-size="10.00">StageState</text>
</g>
<!-- Node2 -->
<g id="node2" class="node"><title>Node2</title>
<g id="a_node2"><a xlink:href="classState.html" target="_top" xlink:title="Classe virtual que modela um estado do jogo. ">
<polygon fill="white" stroke="black" points="927,-794.577 927,-813.577 967,-813.577 967,-794.577 927,-794.577"/>
<text text-anchor="middle" x="947" y="-801.577" font-family="Helvetica,sans-Serif" font-size="10.00">State</text>
</a>
</g>
</g>
<!-- Node2&#45;&gt;Node1 -->
<g id="edge1" class="edge"><title>Node2&#45;&gt;Node1</title>
<path fill="none" stroke="midnightblue" d="M977.26,-807.077C1035.01,-811.473 1165.53,-813.693 1252,-756.077 1378.37,-671.876 1384.42,-452.37 1384.17,-403.719"/>
<polygon fill="midnightblue" stroke="midnightblue" points="977.291,-803.567 967.032,-806.215 976.703,-810.542 977.291,-803.567"/>
</g>
<!-- Node3 -->
<g id="node3" class="node"><title>Node3</title>
<polygon fill="white" stroke="#bfbfbf" points="618.5,-816.077 618.5,-846.077 733.5,-846.077 733.5,-816.077 618.5,-816.077"/>
<text text-anchor="start" x="626.5" y="-834.077" font-family="Helvetica,sans-Serif" font-size="10.00">vector&lt; std::unique</text>
<text text-anchor="middle" x="676" y="-823.077" font-family="Helvetica,sans-Serif" font-size="10.00">_ptr&lt; GameObject &gt; &gt;</text>
</g>
<!-- Node3&#45;&gt;Node2 -->
<g id="edge2" class="edge"><title>Node3&#45;&gt;Node2</title>
<path fill="none" stroke="#9a32cd" stroke-dasharray="5,2" d="M743.932,-824.359C804.273,-818.302 889.126,-809.785 926.746,-806.009"/>
<polygon fill="#9a32cd" stroke="#9a32cd" points="743.32,-820.903 733.719,-825.384 744.019,-827.868 743.32,-820.903"/>
<text text-anchor="middle" x="802" y="-825.077" font-family="Helvetica,sans-Serif" font-size="10.00"> objectArray</text>
</g>
<!-- Node4 -->
<g id="node4" class="node"><title>Node4</title>
<polygon fill="white" stroke="#bfbfbf" points="658.5,-641.577 658.5,-660.577 693.5,-660.577 693.5,-641.577 658.5,-641.577"/>
<text text-anchor="middle" x="676" y="-648.577" font-family="Helvetica,sans-Serif" font-size="10.00">bool</text>
</g>
<!-- Node4&#45;&gt;Node2 -->
<g id="edge3" class="edge"><title>Node4&#45;&gt;Node2</title>
<path fill="none" stroke="#9a32cd" stroke-dasharray="5,2" d="M696.385,-667.074C729.113,-693.409 798.207,-746.148 864,-778.077 884.557,-788.053 909.832,-795.392 926.842,-799.682"/>
<polygon fill="#9a32cd" stroke="#9a32cd" points="698.48,-664.267 688.511,-660.681 694.068,-669.701 698.48,-664.267"/>
<text text-anchor="middle" x="802" y="-780.077" font-family="Helvetica,sans-Serif" font-size="10.00"> quitRequested</text>
<text text-anchor="middle" x="802" y="-769.077" font-family="Helvetica,sans-Serif" font-size="10.00">popRequested</text>
</g>
<!-- Node17 -->
<g id="node17" class="node"><title>Node17</title>
<g id="a_node17"><a xlink:href="classWaveManager.html" target="_top" xlink:title="Classe que gerenci´a as waves do jogo. Responsavel por iniciar, encerrar e contar as waves...">
<polygon fill="white" stroke="black" points="1172,-578.577 1172,-597.577 1252,-597.577 1252,-578.577 1172,-578.577"/>
<text text-anchor="middle" x="1212" y="-585.577" font-family="Helvetica,sans-Serif" font-size="10.00">WaveManager</text>
</a>
</g>
</g>
<!-- Node4&#45;&gt;Node17 -->
<g id="edge23" class="edge"><title>Node4&#45;&gt;Node17</title>
<path fill="none" stroke="#9a32cd" stroke-dasharray="5,2" d="M704.118,-650.871C737.513,-650.517 795.963,-649.571 846,-647.077 983.55,-640.221 1021.9,-652.012 1154,-613.077 1167.27,-609.166 1181.52,-602.916 1192.45,-597.644"/>
<polygon fill="#9a32cd" stroke="#9a32cd" points="703.768,-647.374 693.802,-650.97 703.835,-654.374 703.768,-647.374"/>
<text text-anchor="middle" x="947" y="-650.077" font-family="Helvetica,sans-Serif" font-size="10.00"> endWave</text>
</g>
<!-- Node19 -->
<g id="node19" class="node"><title>Node19</title>
<g id="a_node19"><a xlink:href="classTileMap.html" target="_top" xlink:title="Classe que modela o TileMap. ">
<polygon fill="white" stroke="black" points="921.5,-507.577 921.5,-526.577 972.5,-526.577 972.5,-507.577 921.5,-507.577"/>
<text text-anchor="middle" x="947" y="-514.577" font-family="Helvetica,sans-Serif" font-size="10.00">TileMap</text>
</a>
</g>
</g>
<!-- Node4&#45;&gt;Node19 -->
<g id="edge29" class="edge"><title>Node4&#45;&gt;Node19</title>
<path fill="none" stroke="#9a32cd" stroke-dasharray="5,2" d="M703.76,-645.832C750.115,-636.638 840.923,-618.111 846,-613.077 870.956,-588.331 839.125,-560.904 864,-536.077 878.894,-521.212 902.978,-517.058 921.2,-516.269"/>
<polygon fill="#9a32cd" stroke="#9a32cd" points="702.93,-642.428 693.798,-647.799 704.287,-649.295 702.93,-642.428"/>
<text text-anchor="middle" x="802" y="-638.077" font-family="Helvetica,sans-Serif" font-size="10.00"> displayCollisionInfo</text>
</g>
<!-- Node28 -->
<g id="node28" class="node"><title>Node28</title>
<g id="a_node28"><a xlink:href="classInputManager.html" target="_top" xlink:title="Classe que organiza entradas do usuário. ">
<polygon fill="white" stroke="black" points="909,-245.577 909,-264.577 985,-264.577 985,-245.577 909,-245.577"/>
<text text-anchor="middle" x="947" y="-252.577" font-family="Helvetica,sans-Serif" font-size="10.00">InputManager</text>
</a>
</g>
</g>
<!-- Node4&#45;&gt;Node28 -->
<g id="edge45" class="edge"><title>Node4&#45;&gt;Node28</title>
<path fill="none" stroke="#9a32cd" stroke-dasharray="5,2" d="M696.427,-634.38C710.268,-621.571 728.403,-602.789 740,-583.077 753.042,-560.908 738.895,-545.297 758,-528.077 787.721,-501.287 819.625,-539.166 846,-509.077 878.48,-472.023 834.783,-327.754 864,-288.077 874.555,-273.743 892.381,-265.623 908.722,-261.03"/>
<polygon fill="#9a32cd" stroke="#9a32cd" points="693.947,-631.903 688.856,-641.194 698.63,-637.106 693.947,-631.903"/>
<text text-anchor="middle" x="802" y="-542.077" font-family="Helvetica,sans-Serif" font-size="10.00"> quitRequested</text>
<text text-anchor="middle" x="802" y="-531.077" font-family="Helvetica,sans-Serif" font-size="10.00">mouseState</text>
</g>
<!-- Node5 -->
<g id="node5" class="node"><title>Node5</title>
<polygon fill="white" stroke="#bfbfbf" points="888.5,-749.577 888.5,-768.577 1005.5,-768.577 1005.5,-749.577 888.5,-749.577"/>
<text text-anchor="middle" x="947" y="-756.577" font-family="Helvetica,sans-Serif" font-size="10.00">vector&lt; vector&lt; int &gt; &gt;</text>
</g>
<!-- Node5&#45;&gt;Node1 -->
<g id="edge4" class="edge"><title>Node5&#45;&gt;Node1</title>
<path fill="none" stroke="#9a32cd" stroke-dasharray="5,2" d="M1015.71,-768.825C1057.36,-771.881 1110.83,-770.37 1154,-751.077 1259.03,-704.137 1276.17,-664.522 1334,-565.077 1366.5,-509.194 1379.26,-430.583 1382.85,-403.601"/>
<polygon fill="#9a32cd" stroke="#9a32cd" points="1015.92,-765.331 1005.66,-767.984 1015.34,-772.306 1015.92,-765.331"/>
<text text-anchor="middle" x="1212" y="-744.077" font-family="Helvetica,sans-Serif" font-size="10.00"> spawnGroups</text>
</g>
<!-- Node5&#45;&gt;Node17 -->
<g id="edge21" class="edge"><title>Node5&#45;&gt;Node17</title>
<path fill="none" stroke="#9a32cd" stroke-dasharray="5,2" d="M1007.55,-747.614C1067.35,-736.002 1151.09,-719.423 1154,-717.077 1193.09,-685.596 1206.13,-621.812 1209.77,-597.648"/>
<polygon fill="#9a32cd" stroke="#9a32cd" points="1006.58,-744.236 997.433,-749.576 1007.92,-751.108 1006.58,-744.236"/>
<text text-anchor="middle" x="1101" y="-742.077" font-family="Helvetica,sans-Serif" font-size="10.00"> spawnGroups</text>
</g>
<!-- Node6 -->
<g id="node6" class="node"><title>Node6</title>
<g id="a_node6"><a xlink:href="classMusic.html" target="_top" xlink:title="Classe que modela músicas. ">
<polygon fill="white" stroke="black" points="1190.5,-45.5768 1190.5,-64.5768 1233.5,-64.5768 1233.5,-45.5768 1190.5,-45.5768"/>
<text text-anchor="middle" x="1212" y="-52.5768" font-family="Helvetica,sans-Serif" font-size="10.00">Music</text>
</a>
</g>
</g>
<!-- Node6&#45;&gt;Node1 -->
<g id="edge5" class="edge"><title>Node6&#45;&gt;Node1</title>
<path fill="none" stroke="#9a32cd" stroke-dasharray="5,2" d="M1240.42,-69.6987C1268.49,-86.1466 1311.12,-115.538 1334,-153.077 1382.25,-232.259 1384.63,-350.366 1384.23,-384.514"/>
<polygon fill="#9a32cd" stroke="#9a32cd" points="1241.94,-66.5326 1231.52,-64.6239 1238.47,-72.6149 1241.94,-66.5326"/>
<text text-anchor="middle" x="1302" y="-156.077" font-family="Helvetica,sans-Serif" font-size="10.00"> music</text>
</g>
<!-- Node7 -->
<g id="node7" class="node"><title>Node7</title>
<polygon fill="white" stroke="#bfbfbf" points="883,-14.5768 883,-33.5768 1011,-33.5768 1011,-14.5768 883,-14.5768"/>
<text text-anchor="middle" x="947" y="-21.5768" font-family="Helvetica,sans-Serif" font-size="10.00">shared_ptr&lt; Mix_Music &gt;</text>
</g>
<!-- Node7&#45;&gt;Node6 -->
<g id="edge6" class="edge"><title>Node7&#45;&gt;Node6</title>
<path fill="none" stroke="#9a32cd" stroke-dasharray="5,2" d="M1021.45,-32.734C1078.79,-39.4926 1154.55,-48.423 1190.45,-52.6543"/>
<polygon fill="#9a32cd" stroke="#9a32cd" points="1021.67,-29.2363 1011.33,-31.5415 1020.85,-36.1882 1021.67,-29.2363"/>
<text text-anchor="middle" x="1101" y="-51.0768" font-family="Helvetica,sans-Serif" font-size="10.00"> music</text>
</g>
<!-- Node8 -->
<g id="node8" class="node"><title>Node8</title>
<g id="a_node8"><a xlink:href="classSprite.html" target="_top" xlink:title="Classe que modela uma sprite. ">
<polygon fill="white" stroke="black" points="401,-369.577 401,-388.577 443,-388.577 443,-369.577 401,-369.577"/>
<text text-anchor="middle" x="422" y="-376.577" font-family="Helvetica,sans-Serif" font-size="10.00">Sprite</text>
</a>
</g>
</g>
<!-- Node8&#45;&gt;Node1 -->
<g id="edge7" class="edge"><title>Node8&#45;&gt;Node1</title>
<path fill="none" stroke="#9a32cd" stroke-dasharray="5,2" d="M453.367,-376.896C539.389,-370.76 783.665,-353.625 864,-351.077 937.741,-348.738 956.27,-348.423 1030,-351.077 1128.86,-354.635 1153.48,-358.123 1252,-367.077 1288.51,-370.395 1298.28,-367.81 1334,-376.077 1342.99,-378.157 1352.58,-381.359 1360.94,-384.488"/>
<polygon fill="#9a32cd" stroke="#9a32cd" points="452.949,-373.417 443.224,-377.621 453.448,-380.4 452.949,-373.417"/>
<text text-anchor="middle" x="947" y="-354.077" font-family="Helvetica,sans-Serif" font-size="10.00"> bg</text>
</g>
<!-- Node16 -->
<g id="node16" class="node"><title>Node16</title>
<g id="a_node16"><a xlink:href="classTileSet.html" target="_top" xlink:title="Classe responsável por modelar um tileset. ">
<polygon fill="white" stroke="black" points="652.5,-464.577 652.5,-483.577 699.5,-483.577 699.5,-464.577 652.5,-464.577"/>
<text text-anchor="middle" x="676" y="-471.577" font-family="Helvetica,sans-Serif" font-size="10.00">TileSet</text>
</a>
</g>
</g>
<!-- Node8&#45;&gt;Node16 -->
<g id="edge17" class="edge"><title>Node8&#45;&gt;Node16</title>
<path fill="none" stroke="#9a32cd" stroke-dasharray="5,2" d="M452.648,-390.254C503.538,-409.438 606.443,-448.232 652.188,-465.477"/>
<polygon fill="#9a32cd" stroke="#9a32cd" points="453.788,-386.943 443.196,-386.69 451.319,-393.493 453.788,-386.943"/>
<text text-anchor="middle" x="547" y="-447.077" font-family="Helvetica,sans-Serif" font-size="10.00"> tileSet</text>
</g>
<!-- Node9 -->
<g id="node9" class="node"><title>Node9</title>
<polygon fill="white" stroke="#bfbfbf" points="0.5,-345.577 0.5,-364.577 77.5,-364.577 77.5,-345.577 0.5,-345.577"/>
<text text-anchor="middle" x="39" y="-352.577" font-family="Helvetica,sans-Serif" font-size="10.00">unsigned char</text>
</g>
<!-- Node9&#45;&gt;Node8 -->
<g id="edge8" class="edge"><title>Node9&#45;&gt;Node8</title>
<path fill="none" stroke="#9a32cd" stroke-dasharray="5,2" d="M87.7054,-364.038C90.5064,-364.426 93.2867,-364.777 96,-365.077 210.797,-377.742 349.579,-379.106 400.771,-379.143"/>
<polygon fill="#9a32cd" stroke="#9a32cd" points="87.966,-360.537 77.5535,-362.494 86.9138,-367.458 87.966,-360.537"/>
<text text-anchor="middle" x="193" y="-380.077" font-family="Helvetica,sans-Serif" font-size="10.00"> alpha</text>
</g>
<!-- Node15 -->
<g id="node15" class="node"><title>Node15</title>
<g id="a_node15"><a xlink:href="structColor.html" target="_top" xlink:title="Struct para armazenar informações de cor. ">
<polygon fill="white" stroke="black" points="173,-323.577 173,-342.577 213,-342.577 213,-323.577 173,-323.577"/>
<text text-anchor="middle" x="193" y="-330.577" font-family="Helvetica,sans-Serif" font-size="10.00">Color</text>
</a>
</g>
</g>
<!-- Node9&#45;&gt;Node15 -->
<g id="edge15" class="edge"><title>Node9&#45;&gt;Node15</title>
<path fill="none" stroke="#9a32cd" stroke-dasharray="5,2" d="M67.2495,-341.401C76.1824,-337.599 86.3073,-333.99 96,-332.077 122.163,-326.913 153.123,-328.595 172.663,-330.582"/>
<polygon fill="#9a32cd" stroke="#9a32cd" points="65.7754,-338.226 58.1011,-345.53 68.6555,-344.606 65.7754,-338.226"/>
<text text-anchor="middle" x="101" y="-357.077" font-family="Helvetica,sans-Serif" font-size="10.00"> g</text>
<text text-anchor="middle" x="101" y="-346.077" font-family="Helvetica,sans-Serif" font-size="10.00">r</text>
<text text-anchor="middle" x="101" y="-335.077" font-family="Helvetica,sans-Serif" font-size="10.00">b</text>
</g>
<!-- Node10 -->
<g id="node10" class="node"><title>Node10</title>
<polygon fill="white" stroke="#bfbfbf" points="175.5,-138.577 175.5,-157.577 210.5,-157.577 210.5,-138.577 175.5,-138.577"/>
<text text-anchor="middle" x="193" y="-145.577" font-family="Helvetica,sans-Serif" font-size="10.00">float</text>
</g>
<!-- Node10&#45;&gt;Node8 -->
<g id="edge9" class="edge"><title>Node10&#45;&gt;Node8</title>
<path fill="none" stroke="#9a32cd" stroke-dasharray="5,2" d="M218.629,-162.773C235.62,-172.675 258.868,-185.76 280,-196.077 307.743,-209.62 321.533,-201.904 344,-223.077 389.719,-266.163 411.977,-342.218 418.716,-369.225"/>
<polygon fill="#9a32cd" stroke="#9a32cd" points="220.282,-159.685 209.887,-157.638 216.736,-165.721 220.282,-159.685"/>
<text text-anchor="middle" x="312" y="-259.077" font-family="Helvetica,sans-Serif" font-size="10.00"> scaleY</text>
<text text-anchor="middle" x="312" y="-248.077" font-family="Helvetica,sans-Serif" font-size="10.00">frameTime</text>
<text text-anchor="middle" x="312" y="-237.077" font-family="Helvetica,sans-Serif" font-size="10.00">timeElapsed</text>
<text text-anchor="middle" x="312" y="-226.077" font-family="Helvetica,sans-Serif" font-size="10.00">scaleX</text>
</g>
<!-- Node23 -->
<g id="node23" class="node"><title>Node23</title>
<g id="a_node23"><a xlink:href="classTimer.html" target="_top" xlink:title="Temporizador. ">
<polygon fill="white" stroke="black" points="926.5,-384.577 926.5,-403.577 967.5,-403.577 967.5,-384.577 926.5,-384.577"/>
<text text-anchor="middle" x="947" y="-391.577" font-family="Helvetica,sans-Serif" font-size="10.00">Timer</text>
</a>
</g>
</g>
<!-- Node10&#45;&gt;Node23 -->
<g id="edge32" class="edge"><title>Node10&#45;&gt;Node23</title>
<path fill="none" stroke="#9a32cd" stroke-dasharray="5,2" d="M220.693,-155.387C304.57,-178.435 559.327,-249.063 594,-266.077 602.859,-270.424 603.24,-274.533 612,-279.077 724.687,-337.534 873.515,-376.645 926.36,-389.475"/>
<polygon fill="#9a32cd" stroke="#9a32cd" points="221.469,-151.97 210.899,-152.699 219.616,-158.721 221.469,-151.97"/>
<text text-anchor="middle" x="547" y="-269.077" font-family="Helvetica,sans-Serif" font-size="10.00"> time</text>
</g>
<!-- Node25 -->
<g id="node25" class="node"><title>Node25</title>
<g id="a_node25"><a xlink:href="classGameObject.html" target="_top" xlink:title="GameObject">
<polygon fill="white" stroke="black" points="640.5,-33.5768 640.5,-52.5768 711.5,-52.5768 711.5,-33.5768 640.5,-33.5768"/>
<text text-anchor="middle" x="676" y="-40.5768" font-family="Helvetica,sans-Serif" font-size="10.00">GameObject</text>
</a>
</g>
</g>
<!-- Node10&#45;&gt;Node25 -->
<g id="edge39" class="edge"><title>Node10&#45;&gt;Node25</title>
<path fill="none" stroke="#9a32cd" stroke-dasharray="5,2" d="M207.77,-130.485C233.782,-98.9624 293.703,-34.1726 362,-13.0768 463.969,18.4197 592.736,-15.6856 647.904,-33.5649"/>
<polygon fill="#9a32cd" stroke="#9a32cd" points="204.914,-128.451 201.353,-138.43 210.359,-132.85 204.914,-128.451"/>
<text text-anchor="middle" x="422" y="-16.0768" font-family="Helvetica,sans-Serif" font-size="10.00"> rotation</text>
</g>
<!-- Node26 -->
<g id="node26" class="node"><title>Node26</title>
<g id="a_node26"><a xlink:href="classRect.html" target="_top" xlink:title="Classe que modela um rect. ">
<polygon fill="white" stroke="black" points="403,-71.5768 403,-90.5768 441,-90.5768 441,-71.5768 403,-71.5768"/>
<text text-anchor="middle" x="422" y="-78.5768" font-family="Helvetica,sans-Serif" font-size="10.00">Rect</text>
</a>
</g>
</g>
<!-- Node10&#45;&gt;Node26 -->
<g id="edge38" class="edge"><title>Node10&#45;&gt;Node26</title>
<path fill="none" stroke="#9a32cd" stroke-dasharray="5,2" d="M209.242,-131.273C225.098,-115.149 251.548,-91.8488 280,-82.0768 321.906,-67.6841 375.039,-73.1437 402.575,-77.578"/>
<polygon fill="#9a32cd" stroke="#9a32cd" points="206.704,-128.864 202.347,-138.522 211.776,-133.689 206.704,-128.864"/>
<text text-anchor="middle" x="312" y="-118.077" font-family="Helvetica,sans-Serif" font-size="10.00"> w</text>
<text text-anchor="middle" x="312" y="-107.077" font-family="Helvetica,sans-Serif" font-size="10.00">x</text>
<text text-anchor="middle" x="312" y="-96.0768" font-family="Helvetica,sans-Serif" font-size="10.00">h</text>
<text text-anchor="middle" x="312" y="-85.0768" font-family="Helvetica,sans-Serif" font-size="10.00">y</text>
</g>
<!-- Node29 -->
<g id="node29" class="node"><title>Node29</title>
<g id="a_node29"><a xlink:href="classVec2.html" target="_top" xlink:title="Classe que modela um vetor(no sentido físico) ">
<polygon fill="white" stroke="black" points="527.5,-134.577 527.5,-153.577 566.5,-153.577 566.5,-134.577 527.5,-134.577"/>
<text text-anchor="middle" x="547" y="-141.577" font-family="Helvetica,sans-Serif" font-size="10.00">Vec2</text>
</a>
</g>
</g>
<!-- Node10&#45;&gt;Node29 -->
<g id="edge43" class="edge"><title>Node10&#45;&gt;Node29</title>
<path fill="none" stroke="#9a32cd" stroke-dasharray="5,2" d="M220.867,-147.772C289.343,-146.993 469.11,-144.951 527.438,-144.288"/>
<polygon fill="#9a32cd" stroke="#9a32cd" points="220.465,-144.276 210.506,-147.889 220.545,-151.275 220.465,-144.276"/>
<text text-anchor="middle" x="312" y="-161.077" font-family="Helvetica,sans-Serif" font-size="10.00"> x</text>
<text text-anchor="middle" x="312" y="-150.077" font-family="Helvetica,sans-Serif" font-size="10.00">y</text>
</g>
<!-- Node11 -->
<g id="node11" class="node"><title>Node11</title>
<polygon fill="white" stroke="#bfbfbf" points="162,-285.577 162,-304.577 224,-304.577 224,-285.577 162,-285.577"/>
<text text-anchor="middle" x="193" y="-292.577" font-family="Helvetica,sans-Serif" font-size="10.00">SDL_Rect</text>
</g>
<!-- Node11&#45;&gt;Node8 -->
<g id="edge10" class="edge"><title>Node11&#45;&gt;Node8</title>
<path fill="none" stroke="#9a32cd" stroke-dasharray="5,2" d="M234.005,-299.792C264.948,-304.398 308.376,-312.983 344,-328.077 369.246,-338.774 395.121,-357.936 409.52,-369.481"/>
<polygon fill="#9a32cd" stroke="#9a32cd" points="234.412,-296.315 224.02,-298.379 233.431,-303.246 234.412,-296.315"/>
<text text-anchor="middle" x="312" y="-331.077" font-family="Helvetica,sans-Serif" font-size="10.00"> clipRect</text>
</g>
<!-- Node12 -->
<g id="node12" class="node"><title>Node12</title>
<polygon fill="white" stroke="#bfbfbf" points="178.5,-520.577 178.5,-539.577 207.5,-539.577 207.5,-520.577 178.5,-520.577"/>
<text text-anchor="middle" x="193" y="-527.577" font-family="Helvetica,sans-Serif" font-size="10.00">int</text>
</g>
<!-- Node12&#45;&gt;Node8 -->
<g id="edge11" class="edge"><title>Node12&#45;&gt;Node8</title>
<path fill="none" stroke="#9a32cd" stroke-dasharray="5,2" d="M208.847,-512.43C224.908,-494.197 251.996,-465.828 280,-447.077 305.798,-429.802 315.986,-432.463 344,-419.077 364.66,-409.205 387.932,-396.954 403.43,-388.63"/>
<polygon fill="#9a32cd" stroke="#9a32cd" points="205.781,-510.625 201.892,-520.481 211.078,-515.201 205.781,-510.625"/>
<text text-anchor="middle" x="312" y="-483.077" font-family="Helvetica,sans-Serif" font-size="10.00"> width</text>
<text text-anchor="middle" x="312" y="-472.077" font-family="Helvetica,sans-Serif" font-size="10.00">currentFrame</text>
<text text-anchor="middle" x="312" y="-461.077" font-family="Helvetica,sans-Serif" font-size="10.00">height</text>
<text text-anchor="middle" x="312" y="-450.077" font-family="Helvetica,sans-Serif" font-size="10.00">frameCount</text>
</g>
<!-- Node12&#45;&gt;Node16 -->
<g id="edge18" class="edge"><title>Node12&#45;&gt;Node16</title>
<path fill="none" stroke="#9a32cd" stroke-dasharray="5,2" d="M217.855,-528.096C247.468,-525.58 299.508,-520.974 344,-516.077 460.02,-503.305 598.467,-484.618 652.157,-477.24"/>
<polygon fill="#9a32cd" stroke="#9a32cd" points="217.337,-524.627 207.666,-528.954 217.924,-531.602 217.337,-524.627"/>
<text text-anchor="middle" x="422" y="-550.077" font-family="Helvetica,sans-Serif" font-size="10.00"> tileHeight</text>
<text text-anchor="middle" x="422" y="-539.077" font-family="Helvetica,sans-Serif" font-size="10.00">rows</text>
<text text-anchor="middle" x="422" y="-528.077" font-family="Helvetica,sans-Serif" font-size="10.00">tileWidth</text>
<text text-anchor="middle" x="422" y="-517.077" font-family="Helvetica,sans-Serif" font-size="10.00">columns</text>
</g>
<!-- Node12&#45;&gt;Node17 -->
<g id="edge22" class="edge"><title>Node12&#45;&gt;Node17</title>
<path fill="none" stroke="#9a32cd" stroke-dasharray="5,2" d="M216.93,-543.834C299.786,-591.979 592.179,-748.324 846,-717.077 986.045,-699.837 1029.65,-706.765 1154,-640.077 1174.3,-629.188 1193.06,-609.457 1203.17,-597.681"/>
<polygon fill="#9a32cd" stroke="#9a32cd" points="218.276,-540.566 207.881,-538.519 214.731,-546.601 218.276,-540.566"/>
<text text-anchor="middle" x="676" y="-777.077" font-family="Helvetica,sans-Serif" font-size="10.00"> totalWaves</text>
<text text-anchor="middle" x="676" y="-766.077" font-family="Helvetica,sans-Serif" font-size="10.00">playerLifes</text>
<text text-anchor="middle" x="676" y="-755.077" font-family="Helvetica,sans-Serif" font-size="10.00">enemiesLeft</text>
<text text-anchor="middle" x="676" y="-744.077" font-family="Helvetica,sans-Serif" font-size="10.00">waveIndex</text>
<text text-anchor="middle" x="676" y="-733.077" font-family="Helvetica,sans-Serif" font-size="10.00">waveCount</text>
<text text-anchor="middle" x="676" y="-722.077" font-family="Helvetica,sans-Serif" font-size="10.00">enemyIndex</text>
</g>
<!-- Node12&#45;&gt;Node19 -->
<g id="edge28" class="edge"><title>Node12&#45;&gt;Node19</title>
<path fill="none" stroke="#9a32cd" stroke-dasharray="5,2" d="M217.745,-535.411C250.171,-542.51 310.199,-554.987 362,-562.077 468.693,-576.679 757.896,-647.999 846,-586.077 865.323,-572.496 846.345,-551.765 864,-536.077 879.621,-522.196 903.377,-517.894 921.305,-516.801"/>
<polygon fill="#9a32cd" stroke="#9a32cd" points="218.378,-531.967 207.858,-533.226 216.867,-538.802 218.378,-531.967"/>
<text text-anchor="middle" x="547" y="-626.077" font-family="Helvetica,sans-Serif" font-size="10.00"> mapDepth</text>
<text text-anchor="middle" x="547" y="-615.077" font-family="Helvetica,sans-Serif" font-size="10.00">mapHeight</text>
<text text-anchor="middle" x="547" y="-604.077" font-family="Helvetica,sans-Serif" font-size="10.00">mapWidth</text>
</g>
<!-- Node12&#45;&gt;Node28 -->
<g id="edge44" class="edge"><title>Node12&#45;&gt;Node28</title>
<path fill="none" stroke="#9a32cd" stroke-dasharray="5,2" d="M217.812,-526.452C248.118,-521.269 301.62,-510.19 344,-491.077 411.421,-460.67 437.869,-457.429 482,-398.077 498.105,-376.417 479.871,-358.058 500,-340.077 515.394,-326.325 804.284,-278.156 908.724,-261.11"/>
<polygon fill="#9a32cd" stroke="#9a32cd" points="217.062,-523.028 207.76,-528.099 218.194,-529.936 217.062,-523.028"/>
<text text-anchor="middle" x="547" y="-398.077" font-family="Helvetica,sans-Serif" font-size="10.00"> mouseX</text>
<text text-anchor="middle" x="547" y="-387.077" font-family="Helvetica,sans-Serif" font-size="10.00">mouseY</text>
<text text-anchor="middle" x="547" y="-376.077" font-family="Helvetica,sans-Serif" font-size="10.00">controllerStickUpdate</text>
<text text-anchor="middle" x="547" y="-365.077" font-family="Helvetica,sans-Serif" font-size="10.00">mouseScroolUpdate</text>
<text text-anchor="middle" x="547" y="-354.077" font-family="Helvetica,sans-Serif" font-size="10.00">updateCounter</text>
<text text-anchor="middle" x="547" y="-343.077" font-family="Helvetica,sans-Serif" font-size="10.00">mouseUpdate</text>
</g>
<!-- Node13 -->
<g id="node13" class="node"><title>Node13</title>
<polygon fill="white" stroke="#bfbfbf" points="124,-247.577 124,-266.577 262,-266.577 262,-247.577 124,-247.577"/>
<text text-anchor="middle" x="193" y="-254.577" font-family="Helvetica,sans-Serif" font-size="10.00">shared_ptr&lt; SDL_Texture &gt;</text>
</g>
<!-- Node13&#45;&gt;Node8 -->
<g id="edge12" class="edge"><title>Node13&#45;&gt;Node8</title>
<path fill="none" stroke="#9a32cd" stroke-dasharray="5,2" d="M272.103,-267.903C296.315,-273.555 322.311,-282.121 344,-295.077 376.439,-314.455 403.335,-351.676 414.902,-369.329"/>
<polygon fill="#9a32cd" stroke="#9a32cd" points="272.731,-264.458 262.213,-265.729 271.228,-271.295 272.731,-264.458"/>
<text text-anchor="middle" x="312" y="-298.077" font-family="Helvetica,sans-Serif" font-size="10.00"> texture</text>
</g>
<!-- Node14 -->
<g id="node14" class="node"><title>Node14</title>
<polygon fill="white" stroke="#bfbfbf" points="148,-408.577 148,-427.577 238,-427.577 238,-408.577 148,-408.577"/>
<text text-anchor="middle" x="193" y="-415.577" font-family="Helvetica,sans-Serif" font-size="10.00">SDL_BlendMode</text>
</g>
<!-- Node14&#45;&gt;Node8 -->
<g id="edge13" class="edge"><title>Node14&#45;&gt;Node8</title>
<path fill="none" stroke="#9a32cd" stroke-dasharray="5,2" d="M248.176,-408.769C297.249,-400.338 366.903,-388.371 400.844,-382.54"/>
<polygon fill="#9a32cd" stroke="#9a32cd" points="247.3,-405.368 238.037,-410.511 248.485,-412.267 247.3,-405.368"/>
<text text-anchor="middle" x="312" y="-407.077" font-family="Helvetica,sans-Serif" font-size="10.00"> blendMode</text>
</g>
<!-- Node15&#45;&gt;Node8 -->
<g id="edge14" class="edge"><title>Node15&#45;&gt;Node8</title>
<path fill="none" stroke="#9a32cd" stroke-dasharray="5,2" d="M223.48,-335.667C253.93,-338.699 302.693,-344.557 344,-354.077 363.585,-358.591 385.316,-365.862 400.685,-371.402"/>
<polygon fill="#9a32cd" stroke="#9a32cd" points="223.426,-332.146 213.138,-334.676 222.758,-339.114 223.426,-332.146"/>
<text text-anchor="middle" x="312" y="-357.077" font-family="Helvetica,sans-Serif" font-size="10.00"> colorMultiplier</text>
</g>
<!-- Node16&#45;&gt;Node1 -->
<g id="edge16" class="edge"><title>Node16&#45;&gt;Node1</title>
<path fill="none" stroke="#9a32cd" stroke-dasharray="5,2" d="M707.097,-460.536C722.087,-454.415 740.67,-447.745 758,-444.077 1008.94,-390.968 1081.1,-450.894 1334,-408.077 1340.49,-406.978 1347.34,-405.368 1353.82,-403.627"/>
<polygon fill="#9a32cd" stroke="#9a32cd" points="705.674,-457.337 697.815,-464.442 708.389,-463.789 705.674,-457.337"/>
<text text-anchor="middle" x="1101" y="-428.077" font-family="Helvetica,sans-Serif" font-size="10.00"> tileSet</text>
</g>
<!-- Node16&#45;&gt;Node19 -->
<g id="edge25" class="edge"><title>Node16&#45;&gt;Node19</title>
<path fill="none" stroke="#9a32cd" stroke-dasharray="5,2" d="M710.057,-478.307C744.177,-482.782 798.912,-490.264 846,-498.077 871.801,-502.358 901.193,-508.039 921.4,-512.071"/>
<polygon fill="#9a32cd" stroke="#9a32cd" points="710.108,-474.784 699.74,-476.963 709.204,-481.726 710.108,-474.784"/>
<text text-anchor="middle" x="802" y="-501.077" font-family="Helvetica,sans-Serif" font-size="10.00"> tileSet</text>
</g>
<!-- Node17&#45;&gt;Node1 -->
<g id="edge19" class="edge"><title>Node17&#45;&gt;Node1</title>
<path fill="none" stroke="#9a32cd" stroke-dasharray="5,2" d="M1238.04,-573.122C1264.54,-556.308 1306.29,-526.895 1334,-493.077 1357.68,-464.182 1374.18,-422.227 1380.79,-403.6"/>
<polygon fill="#9a32cd" stroke="#9a32cd" points="1235.99,-570.275 1229.35,-578.53 1239.69,-576.218 1235.99,-570.275"/>
<text text-anchor="middle" x="1302" y="-553.077" font-family="Helvetica,sans-Serif" font-size="10.00"> waveManager</text>
</g>
<!-- Node18 -->
<g id="node18" class="node"><title>Node18</title>
<g id="a_node18"><a xlink:href="classComponent.html" target="_top" xlink:title="Modela os componentes. ">
<polygon fill="white" stroke="black" points="913.5,-545.577 913.5,-564.577 980.5,-564.577 980.5,-545.577 913.5,-545.577"/>
<text text-anchor="middle" x="947" y="-552.577" font-family="Helvetica,sans-Serif" font-size="10.00">Component</text>
</a>
</g>
</g>
<!-- Node18&#45;&gt;Node17 -->
<g id="edge20" class="edge"><title>Node18&#45;&gt;Node17</title>
<path fill="none" stroke="midnightblue" d="M990.688,-560.433C1040.78,-566.718 1123.14,-577.053 1171.72,-583.148"/>
<polygon fill="midnightblue" stroke="midnightblue" points="990.871,-556.929 980.513,-559.156 989.999,-563.874 990.871,-556.929"/>
</g>
<!-- Node19&#45;&gt;Node1 -->
<g id="edge33" class="edge"><title>Node19&#45;&gt;Node1</title>
<path fill="none" stroke="#9a32cd" stroke-dasharray="5,2" d="M982.358,-508.148C1001.58,-503.323 1026.04,-497.472 1048,-493.077 1174.24,-467.814 1220.22,-507.326 1334,-447.077 1353.45,-436.776 1369.56,-415.993 1377.88,-403.736"/>
<polygon fill="#9a32cd" stroke="#9a32cd" points="981.376,-504.786 972.542,-510.635 983.096,-511.571 981.376,-504.786"/>
<text text-anchor="middle" x="1212" y="-487.077" font-family="Helvetica,sans-Serif" font-size="10.00"> tileMap</text>
</g>
<!-- Node19&#45;&gt;Node17 -->
<g id="edge24" class="edge"><title>Node19&#45;&gt;Node17</title>
<path fill="none" stroke="#9a32cd" stroke-dasharray="5,2" d="M982.784,-519.155C1024.61,-522.55 1096.37,-531.263 1154,-553.077 1170.51,-559.325 1187.51,-570.493 1198.6,-578.535"/>
<polygon fill="#9a32cd" stroke="#9a32cd" points="982.806,-515.646 972.571,-518.384 982.279,-522.627 982.806,-515.646"/>
<text text-anchor="middle" x="1101" y="-556.077" font-family="Helvetica,sans-Serif" font-size="10.00"> tileMap</text>
</g>
<!-- Node20 -->
<g id="node20" class="node"><title>Node20</title>
<polygon fill="white" stroke="#bfbfbf" points="640,-414.577 640,-433.577 712,-433.577 712,-414.577 640,-414.577"/>
<text text-anchor="middle" x="676" y="-421.577" font-family="Helvetica,sans-Serif" font-size="10.00">vector&lt; int &gt;</text>
</g>
<!-- Node20&#45;&gt;Node1 -->
<g id="edge34" class="edge"><title>Node20&#45;&gt;Node1</title>
<path fill="none" stroke="#9a32cd" stroke-dasharray="5,2" d="M714.369,-411.251C751.721,-399.157 811.059,-381.898 864,-375.077 1047.9,-351.383 1271.18,-377.896 1352.48,-389.339"/>
<polygon fill="#9a32cd" stroke="#9a32cd" points="712.849,-408.066 704.44,-414.512 715.033,-414.717 712.849,-408.066"/>
<text text-anchor="middle" x="1101" y="-373.077" font-family="Helvetica,sans-Serif" font-size="10.00"> waves</text>
</g>
<!-- Node20&#45;&gt;Node19 -->
<g id="edge26" class="edge"><title>Node20&#45;&gt;Node19</title>
<path fill="none" stroke="#9a32cd" stroke-dasharray="5,2" d="M721.956,-434.061C756.396,-442.247 804.832,-454.93 846,-470.077 875.525,-480.94 908.261,-497.174 927.977,-507.438"/>
<polygon fill="#9a32cd" stroke="#9a32cd" points="722.721,-430.645 712.186,-431.77 721.123,-437.46 722.721,-430.645"/>
<text text-anchor="middle" x="802" y="-473.077" font-family="Helvetica,sans-Serif" font-size="10.00"> tileMatrix</text>
</g>
<!-- Node21 -->
<g id="node21" class="node"><title>Node21</title>
<polygon fill="white" stroke="#bfbfbf" points="614.5,-554.577 614.5,-573.577 737.5,-573.577 737.5,-554.577 614.5,-554.577"/>
<text text-anchor="middle" x="676" y="-561.577" font-family="Helvetica,sans-Serif" font-size="10.00">vector&lt; GameObject * &gt;</text>
</g>
<!-- Node21&#45;&gt;Node19 -->
<g id="edge27" class="edge"><title>Node21&#45;&gt;Node19</title>
<path fill="none" stroke="#9a32cd" stroke-dasharray="5,2" d="M748.131,-570.945C779.385,-571.216 815.771,-567.658 846,-554.077 856.32,-549.44 854.107,-541.566 864,-536.077 881.762,-526.222 904.41,-521.467 921.402,-519.18"/>
<polygon fill="#9a32cd" stroke="#9a32cd" points="747.82,-567.437 737.745,-570.715 747.665,-574.435 747.82,-567.437"/>
<text text-anchor="middle" x="802" y="-574.077" font-family="Helvetica,sans-Serif" font-size="10.00"> gameObjectMatrix</text>
</g>
<!-- Node22 -->
<g id="node22" class="node"><title>Node22</title>
<polygon fill="white" stroke="#bfbfbf" points="864,-583.577 864,-624.577 1030,-624.577 1030,-583.577 864,-583.577"/>
<text text-anchor="start" x="872" y="-612.577" font-family="Helvetica,sans-Serif" font-size="10.00">shared_ptr&lt; std::pair</text>
<text text-anchor="start" x="872" y="-601.577" font-family="Helvetica,sans-Serif" font-size="10.00">&lt; std::vector&lt; WaveData</text>
<text text-anchor="middle" x="947" y="-590.577" font-family="Helvetica,sans-Serif" font-size="10.00"> &gt;, std::vector&lt; EnemyData &gt; &gt; &gt;</text>
</g>
<!-- Node22&#45;&gt;Node17 -->
<g id="edge30" class="edge"><title>Node22&#45;&gt;Node17</title>
<path fill="none" stroke="#9a32cd" stroke-dasharray="5,2" d="M1040.22,-598.466C1085.24,-595.728 1137.02,-592.578 1171.65,-590.471"/>
<polygon fill="#9a32cd" stroke="#9a32cd" points="1039.9,-594.979 1030.13,-599.08 1040.33,-601.966 1039.9,-594.979"/>
<text text-anchor="middle" x="1101" y="-601.077" font-family="Helvetica,sans-Serif" font-size="10.00"> wavesAndEnemysData</text>
</g>
<!-- Node23&#45;&gt;Node1 -->
<g id="edge49" class="edge"><title>Node23&#45;&gt;Node1</title>
<path fill="none" stroke="#9a32cd" stroke-dasharray="5,2" d="M977.802,-394.077C1056.79,-394.077 1271.04,-394.077 1352.23,-394.077"/>
<polygon fill="#9a32cd" stroke="#9a32cd" points="977.581,-390.577 967.581,-394.077 977.581,-397.577 977.581,-390.577"/>
<text text-anchor="middle" x="1212" y="-397.077" font-family="Helvetica,sans-Serif" font-size="10.00"> spawnTimer</text>
</g>
<!-- Node23&#45;&gt;Node17 -->
<g id="edge31" class="edge"><title>Node23&#45;&gt;Node17</title>
<path fill="none" stroke="#9a32cd" stroke-dasharray="5,2" d="M974.675,-408.567C1026.91,-437.055 1138.92,-498.748 1154,-512.077 1176.74,-532.173 1196.24,-562.642 1205.41,-578.192"/>
<polygon fill="#9a32cd" stroke="#9a32cd" points="976.111,-405.363 965.655,-403.653 972.762,-411.511 976.111,-405.363"/>
<text text-anchor="middle" x="1101" y="-515.077" font-family="Helvetica,sans-Serif" font-size="10.00"> spawnTimer</text>
</g>
<!-- Node24 -->
<g id="node24" class="node"><title>Node24</title>
<g id="a_node24"><a xlink:href="classEmptyGameObject.html" target="_top" xlink:title="EmptyGameObject">
<polygon fill="white" stroke="black" points="1051,-133.577 1051,-152.577 1151,-152.577 1151,-133.577 1051,-133.577"/>
<text text-anchor="middle" x="1101" y="-140.577" font-family="Helvetica,sans-Serif" font-size="10.00">EmptyGameObject</text>
</a>
</g>
</g>
<!-- Node24&#45;&gt;Node1 -->
<g id="edge35" class="edge"><title>Node24&#45;&gt;Node1</title>
<path fill="none" stroke="#9a32cd" stroke-dasharray="5,2" d="M1157.93,-155.182C1210.25,-169.267 1287.16,-197.484 1334,-249.077 1370.87,-289.69 1380.78,-358.832 1383.24,-384.291"/>
<polygon fill="#9a32cd" stroke="#9a32cd" points="1158.69,-151.765 1148.13,-152.633 1156.93,-158.539 1158.69,-151.765"/>
<text text-anchor="middle" x="1212" y="-193.077" font-family="Helvetica,sans-Serif" font-size="10.00"> nullGameObject</text>
</g>
<!-- Node25&#45;&gt;Node24 -->
<g id="edge36" class="edge"><title>Node25&#45;&gt;Node24</title>
<path fill="none" stroke="midnightblue" d="M721.879,-51.4003C756.021,-57.9028 804.108,-67.428 846,-77.0768 925.03,-95.2795 1016.96,-120.077 1065.64,-133.499"/>
<polygon fill="midnightblue" stroke="midnightblue" points="722.23,-47.9046 711.754,-49.4825 720.928,-54.7824 722.23,-47.9046"/>
</g>
<!-- Node26&#45;&gt;Node25 -->
<g id="edge37" class="edge"><title>Node26&#45;&gt;Node25</title>
<path fill="none" stroke="#9a32cd" stroke-dasharray="5,2" d="M451.368,-77.3755C485.325,-72.8802 543.89,-64.9218 594,-57.0768 609.227,-54.6929 626.023,-51.8287 640.353,-49.3138"/>
<polygon fill="#9a32cd" stroke="#9a32cd" points="450.707,-73.9323 441.25,-78.7088 451.621,-80.8723 450.707,-73.9323"/>
<text text-anchor="middle" x="547" y="-74.0768" font-family="Helvetica,sans-Serif" font-size="10.00"> box</text>
</g>
<!-- Node27 -->
<g id="node27" class="node"><title>Node27</title>
<polygon fill="white" stroke="#bfbfbf" points="362.5,-33.5768 362.5,-52.5768 481.5,-52.5768 481.5,-33.5768 362.5,-33.5768"/>
<text text-anchor="middle" x="422" y="-40.5768" font-family="Helvetica,sans-Serif" font-size="10.00">vector&lt; Component * &gt;</text>
</g>
<!-- Node27&#45;&gt;Node25 -->
<g id="edge40" class="edge"><title>Node27&#45;&gt;Node25</title>
<path fill="none" stroke="#9a32cd" stroke-dasharray="5,2" d="M491.8,-43.0768C539.894,-43.0768 602.103,-43.0768 640.249,-43.0768"/>
<polygon fill="#9a32cd" stroke="#9a32cd" points="491.765,-39.5769 481.765,-43.0768 491.765,-46.5769 491.765,-39.5769"/>
<text text-anchor="middle" x="547" y="-46.0768" font-family="Helvetica,sans-Serif" font-size="10.00"> components</text>
</g>
<!-- Node28&#45;&gt;Node1 -->
<g id="edge41" class="edge"><title>Node28&#45;&gt;Node1</title>
<path fill="none" stroke="#9a32cd" stroke-dasharray="5,2" d="M995.07,-246.464C1073.24,-234.893 1231.36,-223.394 1334,-296.077 1364.71,-317.823 1377.76,-364.134 1382.15,-384.325"/>
<polygon fill="#9a32cd" stroke="#9a32cd" points="994.385,-243.028 985.037,-248.015 995.455,-249.946 994.385,-243.028"/>
<text text-anchor="middle" x="1212" y="-260.077" font-family="Helvetica,sans-Serif" font-size="10.00"> inputManager</text>
</g>
<!-- Node29&#45;&gt;Node28 -->
<g id="edge42" class="edge"><title>Node29&#45;&gt;Node28</title>
<path fill="none" stroke="#9a32cd" stroke-dasharray="5,2" d="M576.983,-140.647C615.059,-137.048 683.695,-133.703 740,-148.077 818.878,-168.213 901.536,-223.192 932.898,-245.49"/>
<polygon fill="#9a32cd" stroke="#9a32cd" points="576.234,-137.205 566.642,-141.703 576.946,-144.169 576.234,-137.205"/>
<text text-anchor="middle" x="676" y="-173.077" font-family="Helvetica,sans-Serif" font-size="10.00"> controllerLeftStickState</text>
<text text-anchor="middle" x="676" y="-162.077" font-family="Helvetica,sans-Serif" font-size="10.00">controllerRightStickState</text>
<text text-anchor="middle" x="676" y="-151.077" font-family="Helvetica,sans-Serif" font-size="10.00">mouseScroolState</text>
</g>
<!-- Node30 -->
<g id="node30" class="node"><title>Node30</title>
<polygon fill="white" stroke="#bfbfbf" points="623,-191.077 623,-221.077 729,-221.077 729,-191.077 623,-191.077"/>
<text text-anchor="start" x="631" y="-209.077" font-family="Helvetica,sans-Serif" font-size="10.00">unordered_map&lt; int,</text>
<text text-anchor="middle" x="676" y="-198.077" font-family="Helvetica,sans-Serif" font-size="10.00"> int &gt;</text>
</g>
<!-- Node30&#45;&gt;Node28 -->
<g id="edge46" class="edge"><title>Node30&#45;&gt;Node28</title>
<path fill="none" stroke="#9a32cd" stroke-dasharray="5,2" d="M739.167,-212.741C771.228,-216.631 810.874,-222.146 846,-229.077 868.703,-233.556 893.917,-240.123 913.348,-245.537"/>
<polygon fill="#9a32cd" stroke="#9a32cd" points="739.384,-209.242 729.04,-211.535 738.556,-216.193 739.384,-209.242"/>
<text text-anchor="middle" x="802" y="-243.077" font-family="Helvetica,sans-Serif" font-size="10.00"> controllerUpdate</text>
<text text-anchor="middle" x="802" y="-232.077" font-family="Helvetica,sans-Serif" font-size="10.00">keyUpdate</text>
</g>
<!-- Node31 -->
<g id="node31" class="node"><title>Node31</title>
<polygon fill="white" stroke="#bfbfbf" points="623,-72.0768 623,-102.077 729,-102.077 729,-72.0768 623,-72.0768"/>
<text text-anchor="start" x="631" y="-90.0768" font-family="Helvetica,sans-Serif" font-size="10.00">unordered_map&lt; int,</text>
<text text-anchor="middle" x="676" y="-79.0768" font-family="Helvetica,sans-Serif" font-size="10.00"> bool &gt;</text>
</g>
<!-- Node31&#45;&gt;Node28 -->
<g id="edge47" class="edge"><title>Node31&#45;&gt;Node28</title>
<path fill="none" stroke="#9a32cd" stroke-dasharray="5,2" d="M739.256,-80.4461C773.062,-79.7898 814.304,-84.0062 846,-103.077 902.839,-137.275 933.718,-217.649 942.98,-245.43"/>
<polygon fill="#9a32cd" stroke="#9a32cd" points="738.896,-76.9562 729.021,-80.7952 739.135,-83.9522 738.896,-76.9562"/>
<text text-anchor="middle" x="802" y="-117.077" font-family="Helvetica,sans-Serif" font-size="10.00"> keyState</text>
<text text-anchor="middle" x="802" y="-106.077" font-family="Helvetica,sans-Serif" font-size="10.00">controllerState</text>
</g>
<!-- Node32 -->
<g id="node32" class="node"><title>Node32</title>
<polygon fill="white" stroke="#bfbfbf" points="612,-240.077 612,-270.077 740,-270.077 740,-240.077 612,-240.077"/>
<text text-anchor="start" x="620" y="-258.077" font-family="Helvetica,sans-Serif" font-size="10.00">unordered_map&lt; int,</text>
<text text-anchor="middle" x="676" y="-247.077" font-family="Helvetica,sans-Serif" font-size="10.00"> SDL_GameController * &gt;</text>
</g>
<!-- Node32&#45;&gt;Node28 -->
<g id="edge48" class="edge"><title>Node32&#45;&gt;Node28</title>
<path fill="none" stroke="#9a32cd" stroke-dasharray="5,2" d="M750.107,-255.077C801.37,-255.077 867.781,-255.077 908.613,-255.077"/>
<polygon fill="#9a32cd" stroke="#9a32cd" points="750.069,-251.577 740.069,-255.077 750.069,-258.577 750.069,-251.577"/>
<text text-anchor="middle" x="802" y="-258.077" font-family="Helvetica,sans-Serif" font-size="10.00"> padToController</text>
</g>
</g>
</svg>
