<?xml version="1.0" encoding="UTF-8" standalone="no"?>
<!DOCTYPE svg PUBLIC "-//W3C//DTD SVG 1.1//EN"
 "http://www.w3.org/Graphics/SVG/1.1/DTD/svg11.dtd">
<!-- Generated by graphviz version 2.38.0 (20140413.2041)
 -->
<!-- Title: DragAndDrop Pages: 1 -->
<svg width="1012pt" height="466pt"
 viewBox="0.00 0.00 1012.33 466.00" xmlns="http://www.w3.org/2000/svg" xmlns:xlink="http://www.w3.org/1999/xlink">
<g id="graph0" class="graph" transform="scale(1 1) rotate(0) translate(4 462)">
<title>DragAndDrop</title>
<polygon fill="white" stroke="none" points="-4,4 -4,-462 1008.33,-462 1008.33,4 -4,4"/>
<!-- Node1 -->
<g id="node1" class="node"><title>Node1</title>
<polygon fill="#bfbfbf" stroke="black" points="524.331,-0.5 524.331,-19.5 600.331,-19.5 600.331,-0.5 524.331,-0.5"/>
<text text-anchor="middle" x="562.331" y="-7.5" font-family="Helvetica,sans-Serif" font-size="10.00">DragAndDrop</text>
</g>
<!-- Node2 -->
<g id="node2" class="node"><title>Node2</title>
<g id="a_node2"><a xlink:href="classComponent.html" target="_top" xlink:title="Modela os componentes. ">
<polygon fill="white" stroke="black" points="406.831,-68.5 406.831,-87.5 473.831,-87.5 473.831,-68.5 406.831,-68.5"/>
<text text-anchor="middle" x="440.331" y="-75.5" font-family="Helvetica,sans-Serif" font-size="10.00">Component</text>
</a>
</g>
</g>
<!-- Node2&#45;&gt;Node1 -->
<g id="edge1" class="edge"><title>Node2&#45;&gt;Node1</title>
<path fill="none" stroke="midnightblue" d="M456.816,-61.299C465.643,-53.5122 477.008,-44.4246 488.331,-38 501.891,-30.3065 518.048,-24.1109 531.801,-19.6047"/>
<polygon fill="midnightblue" stroke="midnightblue" points="454.241,-58.9101 449.215,-68.2367 458.96,-64.0804 454.241,-58.9101"/>
</g>
<!-- Node3 -->
<g id="node3" class="node"><title>Node3</title>
<g id="a_node3"><a xlink:href="classVec2.html" target="_top" xlink:title="Classe que modela um vetor(no sentido físico) ">
<polygon fill="white" stroke="black" points="123.831,-181 123.831,-200 162.831,-200 162.831,-181 123.831,-181"/>
<text text-anchor="middle" x="143.331" y="-188" font-family="Helvetica,sans-Serif" font-size="10.00">Vec2</text>
</a>
</g>
</g>
<!-- Node3&#45;&gt;Node1 -->
<g id="edge2" class="edge"><title>Node3&#45;&gt;Node1</title>
<path fill="none" stroke="#9a32cd" stroke-dasharray="5,2" d="M173.159,-185.588C234.647,-176.505 378.434,-149.941 482.331,-89 514.456,-70.1567 543.394,-35.7034 555.855,-19.6544"/>
<polygon fill="#9a32cd" stroke="#9a32cd" points="172.405,-182.16 163,-187.039 173.394,-189.09 172.405,-182.16"/>
<text text-anchor="middle" x="493.831" y="-110" font-family="Helvetica,sans-Serif" font-size="10.00"> associatedInitialPos</text>
</g>
<!-- Node4 -->
<g id="node4" class="node"><title>Node4</title>
<polygon fill="white" stroke="#bfbfbf" points="0.831029,-349.5 0.831029,-368.5 35.831,-368.5 35.831,-349.5 0.831029,-349.5"/>
<text text-anchor="middle" x="18.331" y="-356.5" font-family="Helvetica,sans-Serif" font-size="10.00">float</text>
</g>
<!-- Node4&#45;&gt;Node3 -->
<g id="edge3" class="edge"><title>Node4&#45;&gt;Node3</title>
<path fill="none" stroke="#9a32cd" stroke-dasharray="5,2" d="M8.4856,-340.402C7.18121,-337.35 6.04867,-334.145 5.33103,-331 0.98023,-311.935 -3.74647,-304.321 5.33103,-287 30.4867,-239 91.9373,-210.336 123.662,-198.25"/>
<polygon fill="#9a32cd" stroke="#9a32cd" points="5.35742,-341.972 12.9422,-349.369 11.626,-338.856 5.35742,-341.972"/>
<text text-anchor="middle" x="9.83103" y="-312" font-family="Helvetica,sans-Serif" font-size="10.00"> x</text>
<text text-anchor="middle" x="9.83103" y="-301" font-family="Helvetica,sans-Serif" font-size="10.00">y</text>
</g>
<!-- Node7 -->
<g id="node7" class="node"><title>Node7</title>
<g id="a_node7"><a xlink:href="classSprite.html" target="_top" xlink:title="Classe que modela uma sprite. ">
<polygon fill="white" stroke="black" points="305.331,-237.5 305.331,-256.5 347.331,-256.5 347.331,-237.5 305.331,-237.5"/>
<text text-anchor="middle" x="326.331" y="-244.5" font-family="Helvetica,sans-Serif" font-size="10.00">Sprite</text>
</a>
</g>
</g>
<!-- Node4&#45;&gt;Node7 -->
<g id="edge8" class="edge"><title>Node4&#45;&gt;Node7</title>
<path fill="none" stroke="#9a32cd" stroke-dasharray="5,2" d="M17.3836,-339.045C17.6821,-322.787 20.949,-299.988 35.331,-287 74.9578,-251.214 244.613,-247.881 304.938,-247.851"/>
<polygon fill="#9a32cd" stroke="#9a32cd" points="13.8923,-339.56 17.5744,-349.494 20.8911,-339.432 13.8923,-339.56"/>
<text text-anchor="middle" x="62.831" y="-323" font-family="Helvetica,sans-Serif" font-size="10.00"> scaleY</text>
<text text-anchor="middle" x="62.831" y="-312" font-family="Helvetica,sans-Serif" font-size="10.00">frameTime</text>
<text text-anchor="middle" x="62.831" y="-301" font-family="Helvetica,sans-Serif" font-size="10.00">timeElapsed</text>
<text text-anchor="middle" x="62.831" y="-290" font-family="Helvetica,sans-Serif" font-size="10.00">scaleX</text>
</g>
<!-- Node5 -->
<g id="node5" class="node"><title>Node5</title>
<g id="a_node5"><a xlink:href="classTileMap.html" target="_top" xlink:title="Classe que modela o TileMap. ">
<polygon fill="white" stroke="black" points="660.831,-68.5 660.831,-87.5 711.831,-87.5 711.831,-68.5 660.831,-68.5"/>
<text text-anchor="middle" x="686.331" y="-75.5" font-family="Helvetica,sans-Serif" font-size="10.00">TileMap</text>
</a>
</g>
</g>
<!-- Node5&#45;&gt;Node1 -->
<g id="edge4" class="edge"><title>Node5&#45;&gt;Node1</title>
<path fill="none" stroke="#9a32cd" stroke-dasharray="5,2" d="M660.995,-63.5149C636.312,-50.3767 599.527,-30.7981 578.546,-19.6305"/>
<polygon fill="#9a32cd" stroke="#9a32cd" points="659.648,-66.7627 670.12,-68.3717 662.937,-60.5835 659.648,-66.7627"/>
<text text-anchor="middle" x="648.831" y="-41" font-family="Helvetica,sans-Serif" font-size="10.00"> tileMap</text>
</g>
<!-- Node6 -->
<g id="node6" class="node"><title>Node6</title>
<g id="a_node6"><a xlink:href="classTileSet.html" target="_top" xlink:title="Classe responsável por modelar um tileset. ">
<polygon fill="white" stroke="black" points="565.831,-136.5 565.831,-155.5 612.831,-155.5 612.831,-136.5 565.831,-136.5"/>
<text text-anchor="middle" x="589.331" y="-143.5" font-family="Helvetica,sans-Serif" font-size="10.00">TileSet</text>
</a>
</g>
</g>
<!-- Node6&#45;&gt;Node5 -->
<g id="edge5" class="edge"><title>Node6&#45;&gt;Node5</title>
<path fill="none" stroke="#9a32cd" stroke-dasharray="5,2" d="M599.319,-127.416C604.043,-120.325 610.213,-112.531 617.331,-107 630.091,-97.084 646.841,-90.1759 660.642,-85.7024"/>
<polygon fill="#9a32cd" stroke="#9a32cd" points="596.071,-126.017 593.823,-136.371 602.037,-129.679 596.071,-126.017"/>
<text text-anchor="middle" x="632.831" y="-110" font-family="Helvetica,sans-Serif" font-size="10.00"> tileSet</text>
</g>
<!-- Node7&#45;&gt;Node6 -->
<g id="edge6" class="edge"><title>Node7&#45;&gt;Node6</title>
<path fill="none" stroke="#9a32cd" stroke-dasharray="5,2" d="M357.02,-234.448C410.469,-214.328 519.441,-173.308 566.666,-155.532"/>
<polygon fill="#9a32cd" stroke="#9a32cd" points="355.535,-231.267 347.409,-238.066 358.001,-237.818 355.535,-231.267"/>
<text text-anchor="middle" x="526.831" y="-188" font-family="Helvetica,sans-Serif" font-size="10.00"> tileSet</text>
</g>
<!-- Node8 -->
<g id="node8" class="node"><title>Node8</title>
<polygon fill="white" stroke="#bfbfbf" points="175.831,-438.5 175.831,-457.5 252.831,-457.5 252.831,-438.5 175.831,-438.5"/>
<text text-anchor="middle" x="214.331" y="-445.5" font-family="Helvetica,sans-Serif" font-size="10.00">unsigned char</text>
</g>
<!-- Node8&#45;&gt;Node7 -->
<g id="edge7" class="edge"><title>Node8&#45;&gt;Node7</title>
<path fill="none" stroke="#9a32cd" stroke-dasharray="5,2" d="M182.702,-434.371C146.364,-417.797 94.0681,-386.381 113.331,-349 150.731,-276.422 259.195,-255.626 305.25,-249.982"/>
<polygon fill="#9a32cd" stroke="#9a32cd" points="181.436,-437.637 191.999,-438.452 184.25,-431.228 181.436,-437.637"/>
<text text-anchor="middle" x="126.831" y="-356.5" font-family="Helvetica,sans-Serif" font-size="10.00"> alpha</text>
</g>
<!-- Node13 -->
<g id="node13" class="node"><title>Node13</title>
<g id="a_node13"><a xlink:href="structColor.html" target="_top" xlink:title="Struct para armazenar informações de cor. ">
<polygon fill="white" stroke="black" points="493.331,-349.5 493.331,-368.5 533.331,-368.5 533.331,-349.5 493.331,-349.5"/>
<text text-anchor="middle" x="513.331" y="-356.5" font-family="Helvetica,sans-Serif" font-size="10.00">Color</text>
</a>
</g>
</g>
<!-- Node8&#45;&gt;Node13 -->
<g id="edge14" class="edge"><title>Node8&#45;&gt;Node13</title>
<path fill="none" stroke="#9a32cd" stroke-dasharray="5,2" d="M254.414,-435.687C307.203,-420.727 402.879,-393.402 484.331,-369 487.159,-368.153 490.137,-367.246 493.065,-366.345"/>
<polygon fill="#9a32cd" stroke="#9a32cd" points="253.425,-432.329 244.757,-438.421 255.332,-439.064 253.425,-432.329"/>
<text text-anchor="middle" x="422.831" y="-412" font-family="Helvetica,sans-Serif" font-size="10.00"> g</text>
<text text-anchor="middle" x="422.831" y="-401" font-family="Helvetica,sans-Serif" font-size="10.00">r</text>
<text text-anchor="middle" x="422.831" y="-390" font-family="Helvetica,sans-Serif" font-size="10.00">b</text>
</g>
<!-- Node9 -->
<g id="node9" class="node"><title>Node9</title>
<polygon fill="white" stroke="#bfbfbf" points="149.331,-349.5 149.331,-368.5 211.331,-368.5 211.331,-349.5 149.331,-349.5"/>
<text text-anchor="middle" x="180.331" y="-356.5" font-family="Helvetica,sans-Serif" font-size="10.00">SDL_Rect</text>
</g>
<!-- Node9&#45;&gt;Node7 -->
<g id="edge9" class="edge"><title>Node9&#45;&gt;Node7</title>
<path fill="none" stroke="#9a32cd" stroke-dasharray="5,2" d="M194.085,-341.598C207.571,-326.199 229.265,-303.172 251.331,-287 268.495,-274.421 290.277,-263.579 305.939,-256.543"/>
<polygon fill="#9a32cd" stroke="#9a32cd" points="191.35,-339.411 187.487,-349.277 196.659,-343.973 191.35,-339.411"/>
<text text-anchor="middle" x="271.331" y="-306.5" font-family="Helvetica,sans-Serif" font-size="10.00"> clipRect</text>
</g>
<!-- Node10 -->
<g id="node10" class="node"><title>Node10</title>
<polygon fill="white" stroke="#bfbfbf" points="574.831,-349.5 574.831,-368.5 603.831,-368.5 603.831,-349.5 574.831,-349.5"/>
<text text-anchor="middle" x="589.331" y="-356.5" font-family="Helvetica,sans-Serif" font-size="10.00">int</text>
</g>
<!-- Node10&#45;&gt;Node5 -->
<g id="edge18" class="edge"><title>Node10&#45;&gt;Node5</title>
<path fill="none" stroke="#9a32cd" stroke-dasharray="5,2" d="M600.754,-340.464C611.715,-322.973 628.074,-295.031 638.331,-269 664.899,-201.578 680.485,-114.818 684.972,-87.5742"/>
<polygon fill="#9a32cd" stroke="#9a32cd" points="597.719,-338.714 595.293,-349.028 603.621,-342.478 597.719,-338.714"/>
<text text-anchor="middle" x="690.831" y="-199" font-family="Helvetica,sans-Serif" font-size="10.00"> mapDepth</text>
<text text-anchor="middle" x="690.831" y="-188" font-family="Helvetica,sans-Serif" font-size="10.00">mapHeight</text>
<text text-anchor="middle" x="690.831" y="-177" font-family="Helvetica,sans-Serif" font-size="10.00">mapWidth</text>
</g>
<!-- Node10&#45;&gt;Node6 -->
<g id="edge15" class="edge"><title>Node10&#45;&gt;Node6</title>
<path fill="none" stroke="#9a32cd" stroke-dasharray="5,2" d="M589.331,-339.378C589.331,-295.622 589.331,-187.567 589.331,-155.873"/>
<polygon fill="#9a32cd" stroke="#9a32cd" points="585.831,-339.467 589.331,-349.467 592.831,-339.467 585.831,-339.467"/>
<text text-anchor="middle" x="611.831" y="-261" font-family="Helvetica,sans-Serif" font-size="10.00"> tileHeight</text>
<text text-anchor="middle" x="611.831" y="-250" font-family="Helvetica,sans-Serif" font-size="10.00">rows</text>
<text text-anchor="middle" x="611.831" y="-239" font-family="Helvetica,sans-Serif" font-size="10.00">tileWidth</text>
<text text-anchor="middle" x="611.831" y="-228" font-family="Helvetica,sans-Serif" font-size="10.00">columns</text>
</g>
<!-- Node10&#45;&gt;Node7 -->
<g id="edge10" class="edge"><title>Node10&#45;&gt;Node7</title>
<path fill="none" stroke="#9a32cd" stroke-dasharray="5,2" d="M564.575,-353.416C549.483,-349.565 530.611,-342.74 517.331,-331 500.799,-316.384 511.782,-300.505 494.331,-287 450.406,-253.006 381.928,-247.8 347.543,-247.51"/>
<polygon fill="#9a32cd" stroke="#9a32cd" points="564.236,-356.927 574.761,-355.721 565.781,-350.1 564.236,-356.927"/>
<text text-anchor="middle" x="546.331" y="-323" font-family="Helvetica,sans-Serif" font-size="10.00"> width</text>
<text text-anchor="middle" x="546.331" y="-312" font-family="Helvetica,sans-Serif" font-size="10.00">currentFrame</text>
<text text-anchor="middle" x="546.331" y="-301" font-family="Helvetica,sans-Serif" font-size="10.00">height</text>
<text text-anchor="middle" x="546.331" y="-290" font-family="Helvetica,sans-Serif" font-size="10.00">frameCount</text>
</g>
<!-- Node11 -->
<g id="node11" class="node"><title>Node11</title>
<polygon fill="white" stroke="#bfbfbf" points="229.331,-349.5 229.331,-368.5 367.331,-368.5 367.331,-349.5 229.331,-349.5"/>
<text text-anchor="middle" x="298.331" y="-356.5" font-family="Helvetica,sans-Serif" font-size="10.00">shared_ptr&lt; SDL_Texture &gt;</text>
</g>
<!-- Node11&#45;&gt;Node7 -->
<g id="edge11" class="edge"><title>Node11&#45;&gt;Node7</title>
<path fill="none" stroke="#9a32cd" stroke-dasharray="5,2" d="M295.664,-339.189C294.285,-324.594 293.874,-304.046 299.331,-287 303.047,-275.392 311.49,-264.171 317.953,-256.769"/>
<polygon fill="#9a32cd" stroke="#9a32cd" points="292.226,-339.92 296.883,-349.437 299.177,-339.093 292.226,-339.92"/>
<text text-anchor="middle" x="316.331" y="-306.5" font-family="Helvetica,sans-Serif" font-size="10.00"> texture</text>
</g>
<!-- Node12 -->
<g id="node12" class="node"><title>Node12</title>
<polygon fill="white" stroke="#bfbfbf" points="385.331,-349.5 385.331,-368.5 475.331,-368.5 475.331,-349.5 385.331,-349.5"/>
<text text-anchor="middle" x="430.331" y="-356.5" font-family="Helvetica,sans-Serif" font-size="10.00">SDL_BlendMode</text>
</g>
<!-- Node12&#45;&gt;Node7 -->
<g id="edge12" class="edge"><title>Node12&#45;&gt;Node7</title>
<path fill="none" stroke="#9a32cd" stroke-dasharray="5,2" d="M378.037,-345.548C370.045,-341.872 362.438,-337.126 356.331,-331 345.513,-320.149 333.288,-275.594 328.457,-256.62"/>
<polygon fill="#9a32cd" stroke="#9a32cd" points="376.947,-348.883 387.53,-349.389 379.573,-342.394 376.947,-348.883"/>
<text text-anchor="middle" x="381.831" y="-306.5" font-family="Helvetica,sans-Serif" font-size="10.00"> blendMode</text>
</g>
<!-- Node13&#45;&gt;Node7 -->
<g id="edge13" class="edge"><title>Node13&#45;&gt;Node7</title>
<path fill="none" stroke="#9a32cd" stroke-dasharray="5,2" d="M483.621,-348.621C460.247,-341.197 431.426,-331.926 430.331,-331 413.48,-316.754 423.189,-302.344 407.331,-287 390.394,-270.612 365.256,-259.988 347.485,-254.03"/>
<polygon fill="#9a32cd" stroke="#9a32cd" points="482.619,-351.974 493.209,-351.659 484.734,-345.302 482.619,-351.974"/>
<text text-anchor="middle" x="462.331" y="-306.5" font-family="Helvetica,sans-Serif" font-size="10.00"> colorMultiplier</text>
</g>
<!-- Node14 -->
<g id="node14" class="node"><title>Node14</title>
<polygon fill="white" stroke="#bfbfbf" points="690.331,-136.5 690.331,-155.5 762.331,-155.5 762.331,-136.5 690.331,-136.5"/>
<text text-anchor="middle" x="726.331" y="-143.5" font-family="Helvetica,sans-Serif" font-size="10.00">vector&lt; int &gt;</text>
</g>
<!-- Node14&#45;&gt;Node5 -->
<g id="edge16" class="edge"><title>Node14&#45;&gt;Node5</title>
<path fill="none" stroke="#9a32cd" stroke-dasharray="5,2" d="M715.763,-127.563C708.017,-114.781 697.822,-97.9599 691.689,-87.8411"/>
<polygon fill="#9a32cd" stroke="#9a32cd" points="712.925,-129.634 721.102,-136.372 718.912,-126.006 712.925,-129.634"/>
<text text-anchor="middle" x="730.831" y="-110" font-family="Helvetica,sans-Serif" font-size="10.00"> tileMatrix</text>
</g>
<!-- Node15 -->
<g id="node15" class="node"><title>Node15</title>
<polygon fill="white" stroke="#bfbfbf" points="780.831,-136.5 780.831,-155.5 903.831,-155.5 903.831,-136.5 780.831,-136.5"/>
<text text-anchor="middle" x="842.331" y="-143.5" font-family="Helvetica,sans-Serif" font-size="10.00">vector&lt; GameObject * &gt;</text>
</g>
<!-- Node15&#45;&gt;Node5 -->
<g id="edge17" class="edge"><title>Node15&#45;&gt;Node5</title>
<path fill="none" stroke="#9a32cd" stroke-dasharray="5,2" d="M811.362,-132.524C800.543,-128.063 788.351,-122.92 777.331,-118 766.984,-113.381 764.685,-111.603 754.331,-107 738.932,-100.153 721.334,-92.9231 707.899,-87.525"/>
<polygon fill="#9a32cd" stroke="#9a32cd" points="810.259,-135.854 820.839,-136.403 812.911,-129.375 810.259,-135.854"/>
<text text-anchor="middle" x="818.831" y="-110" font-family="Helvetica,sans-Serif" font-size="10.00"> gameObjectMatrix</text>
</g>
<!-- Node16 -->
<g id="node16" class="node"><title>Node16</title>
<polygon fill="white" stroke="#bfbfbf" points="936.831,-136.5 936.831,-155.5 971.831,-155.5 971.831,-136.5 936.831,-136.5"/>
<text text-anchor="middle" x="954.331" y="-143.5" font-family="Helvetica,sans-Serif" font-size="10.00">bool</text>
</g>
<!-- Node16&#45;&gt;Node1 -->
<g id="edge20" class="edge"><title>Node16&#45;&gt;Node1</title>
<path fill="none" stroke="#9a32cd" stroke-dasharray="5,2" d="M969.299,-128.306C973.775,-121.28 976.318,-113.293 971.331,-107 925.125,-48.693 692.841,-22.3519 600.382,-14.0565"/>
<polygon fill="#9a32cd" stroke="#9a32cd" points="966.328,-126.428 963.015,-136.492 971.881,-130.69 966.328,-126.428"/>
<text text-anchor="middle" x="976.831" y="-81" font-family="Helvetica,sans-Serif" font-size="10.00"> dragOnHold</text>
<text text-anchor="middle" x="976.831" y="-70" font-family="Helvetica,sans-Serif" font-size="10.00">redrag</text>
</g>
<!-- Node16&#45;&gt;Node5 -->
<g id="edge19" class="edge"><title>Node16&#45;&gt;Node5</title>
<path fill="none" stroke="#9a32cd" stroke-dasharray="5,2" d="M927.128,-135.255C913.82,-130.337 897.627,-124.125 883.331,-118 872.915,-113.538 871.147,-110.379 860.331,-107 809.077,-90.9862 746.321,-83.7695 711.922,-80.8144"/>
<polygon fill="#9a32cd" stroke="#9a32cd" points="926.069,-138.595 936.663,-138.742 928.473,-132.021 926.069,-138.595"/>
<text text-anchor="middle" x="927.331" y="-110" font-family="Helvetica,sans-Serif" font-size="10.00"> displayCollisionInfo</text>
</g>
</g>
</svg>
