<?xml version="1.0" encoding="UTF-8" standalone="no"?>
<!DOCTYPE svg PUBLIC "-//W3C//DTD SVG 1.1//EN"
 "http://www.w3.org/Graphics/SVG/1.1/DTD/svg11.dtd">
<!-- Generated by graphviz version 2.36.0 (20140111.2315)
 -->
<!-- Title: Alien Pages: 1 -->
<svg width="805pt" height="322pt"
 viewBox="0.00 0.00 805.24 322.00" xmlns="http://www.w3.org/2000/svg" xmlns:xlink="http://www.w3.org/1999/xlink">
<g id="graph0" class="graph" transform="scale(1 1) rotate(0) translate(4 318)">
<title>Alien</title>
<polygon fill="white" stroke="none" points="-4,4 -4,-318 801.242,-318 801.242,4 -4,4"/>
<!-- Node1 -->
<g id="node1" class="node"><title>Node1</title>
<polygon fill="#bfbfbf" stroke="black" points="395.242,-0.5 395.242,-19.5 433.242,-19.5 433.242,-0.5 395.242,-0.5"/>
<text text-anchor="middle" x="414.242" y="-7.5" font-family="Helvetica,sans-Serif" font-size="10.00">Alien</text>
</g>
<!-- Node2 -->
<g id="node2" class="node"><title>Node2</title>
<g id="a_node2"><a xlink:href="classGameObject.html" target="_top" xlink:title="GameObject">
<polygon fill="white" stroke="black" points="179.742,-69.5 179.742,-88.5 250.742,-88.5 250.742,-69.5 179.742,-69.5"/>
<text text-anchor="middle" x="215.242" y="-76.5" font-family="Helvetica,sans-Serif" font-size="10.00">GameObject</text>
</a>
</g>
</g>
<!-- Node2&#45;&gt;Node1 -->
<g id="edge1" class="edge"><title>Node2&#45;&gt;Node1</title>
<path fill="none" stroke="midnightblue" d="M233.052,-62.8138C243.981,-54.2664 258.641,-44.1126 273.242,-38 314.395,-20.7715 366.934,-14.4355 394.816,-12.1827"/>
<polygon fill="midnightblue" stroke="midnightblue" points="230.721,-60.1982 225.161,-69.2165 235.131,-65.6342 230.721,-60.1982"/>
</g>
<!-- Node3 -->
<g id="node3" class="node"><title>Node3</title>
<g id="a_node3"><a xlink:href="classRect.html" target="_top" xlink:title="Classe que modela um rect. ">
<polygon fill="white" stroke="black" points="293.242,-182.5 293.242,-201.5 331.242,-201.5 331.242,-182.5 293.242,-182.5"/>
<text text-anchor="middle" x="312.242" y="-189.5" font-family="Helvetica,sans-Serif" font-size="10.00">Rect</text>
</a>
</g>
</g>
<!-- Node3&#45;&gt;Node2 -->
<g id="edge2" class="edge"><title>Node3&#45;&gt;Node2</title>
<path fill="none" stroke="#9a32cd" stroke-dasharray="5,2" d="M305.853,-172.842C298.044,-151.459 284.702,-117.626 275.242,-108 266.701,-99.3099 254.946,-93.0157 244.103,-88.6233"/>
<polygon fill="#9a32cd" stroke="#9a32cd" points="302.624,-174.205 309.292,-182.438 309.213,-171.843 302.624,-174.205"/>
<text text-anchor="middle" x="306.742" y="-127.5" font-family="Helvetica,sans-Serif" font-size="10.00"> box</text>
</g>
<!-- Node4 -->
<g id="node4" class="node"><title>Node4</title>
<polygon fill="white" stroke="#bfbfbf" points="320.742,-294.5 320.742,-313.5 355.742,-313.5 355.742,-294.5 320.742,-294.5"/>
<text text-anchor="middle" x="338.242" y="-301.5" font-family="Helvetica,sans-Serif" font-size="10.00">float</text>
</g>
<!-- Node4&#45;&gt;Node1 -->
<g id="edge9" class="edge"><title>Node4&#45;&gt;Node1</title>
<path fill="none" stroke="#9a32cd" stroke-dasharray="5,2" d="M310.175,-301.974C259.477,-299.715 154.944,-293.082 123.242,-276 45.5192,-234.122 -35.3181,-178.937 17.2418,-108 63.5995,-45.4339 322.324,-18.8472 395.159,-12.5377"/>
<polygon fill="#9a32cd" stroke="#9a32cd" points="310.278,-305.481 320.416,-302.403 310.571,-298.487 310.278,-305.481"/>
<text text-anchor="middle" x="66.2418" y="-133" font-family="Helvetica,sans-Serif" font-size="10.00"> lastDistance</text>
<text text-anchor="middle" x="66.2418" y="-122" font-family="Helvetica,sans-Serif" font-size="10.00">alienRestingCooldown</text>
</g>
<!-- Node4&#45;&gt;Node2 -->
<g id="edge4" class="edge"><title>Node4&#45;&gt;Node2</title>
<path fill="none" stroke="#9a32cd" stroke-dasharray="5,2" d="M310.453,-301.661C260.392,-297.571 156.019,-281.011 110.242,-214 76.482,-164.581 161.83,-109.5 198.978,-88.636"/>
<polygon fill="#9a32cd" stroke="#9a32cd" points="310.329,-305.161 320.551,-302.375 310.823,-298.178 310.329,-305.161"/>
<text text-anchor="middle" x="128.242" y="-189.5" font-family="Helvetica,sans-Serif" font-size="10.00"> rotation</text>
</g>
<!-- Node4&#45;&gt;Node3 -->
<g id="edge3" class="edge"><title>Node4&#45;&gt;Node3</title>
<path fill="none" stroke="#9a32cd" stroke-dasharray="5,2" d="M329.472,-284.936C328.261,-281.996 327.13,-278.947 326.242,-276 318.316,-249.695 314.481,-217.263 313.003,-201.89"/>
<polygon fill="#9a32cd" stroke="#9a32cd" points="326.357,-286.542 333.663,-294.215 332.736,-283.661 326.357,-286.542"/>
<text text-anchor="middle" x="331.742" y="-268" font-family="Helvetica,sans-Serif" font-size="10.00"> w</text>
<text text-anchor="middle" x="331.742" y="-257" font-family="Helvetica,sans-Serif" font-size="10.00">x</text>
<text text-anchor="middle" x="331.742" y="-246" font-family="Helvetica,sans-Serif" font-size="10.00">h</text>
<text text-anchor="middle" x="331.742" y="-235" font-family="Helvetica,sans-Serif" font-size="10.00">y</text>
</g>
<!-- Node6 -->
<g id="node6" class="node"><title>Node6</title>
<g id="a_node6"><a xlink:href="classVec2.html" target="_top" xlink:title="Classe que modela um vetor(no sentido físico) ">
<polygon fill="white" stroke="black" points="327.742,-120.5 327.742,-139.5 366.742,-139.5 366.742,-120.5 327.742,-120.5"/>
<text text-anchor="middle" x="347.242" y="-127.5" font-family="Helvetica,sans-Serif" font-size="10.00">Vec2</text>
</a>
</g>
</g>
<!-- Node4&#45;&gt;Node6 -->
<g id="edge7" class="edge"><title>Node4&#45;&gt;Node6</title>
<path fill="none" stroke="#9a32cd" stroke-dasharray="5,2" d="M339.247,-283.797C341.195,-246.57 345.414,-165.928 346.795,-139.544"/>
<polygon fill="#9a32cd" stroke="#9a32cd" points="335.728,-284.065 338.7,-294.234 342.718,-284.431 335.728,-284.065"/>
<text text-anchor="middle" x="346.742" y="-257" font-family="Helvetica,sans-Serif" font-size="10.00"> x</text>
<text text-anchor="middle" x="346.742" y="-246" font-family="Helvetica,sans-Serif" font-size="10.00">y</text>
</g>
<!-- Node8 -->
<g id="node8" class="node"><title>Node8</title>
<g id="a_node8"><a xlink:href="classSprite.html" target="_top" xlink:title="Classe que modela uma sprite. ">
<polygon fill="white" stroke="black" points="520.242,-69.5 520.242,-88.5 562.242,-88.5 562.242,-69.5 520.242,-69.5"/>
<text text-anchor="middle" x="541.242" y="-76.5" font-family="Helvetica,sans-Serif" font-size="10.00">Sprite</text>
</a>
</g>
</g>
<!-- Node4&#45;&gt;Node8 -->
<g id="edge11" class="edge"><title>Node4&#45;&gt;Node8</title>
<path fill="none" stroke="#9a32cd" stroke-dasharray="5,2" d="M365.887,-298.94C433.191,-288.433 602.448,-258.062 635.242,-214 665.697,-173.081 629.182,-142.094 591.242,-108 582.362,-100.02 570.82,-93.3691 561.064,-88.5544"/>
<polygon fill="#9a32cd" stroke="#9a32cd" points="365.352,-295.481 355.997,-300.455 366.412,-302.4 365.352,-295.481"/>
<text text-anchor="middle" x="674.742" y="-206" font-family="Helvetica,sans-Serif" font-size="10.00"> scaleY</text>
<text text-anchor="middle" x="674.742" y="-195" font-family="Helvetica,sans-Serif" font-size="10.00">frameTime</text>
<text text-anchor="middle" x="674.742" y="-184" font-family="Helvetica,sans-Serif" font-size="10.00">timeElapsed</text>
<text text-anchor="middle" x="674.742" y="-173" font-family="Helvetica,sans-Serif" font-size="10.00">scaleX</text>
</g>
<!-- Node13 -->
<g id="node13" class="node"><title>Node13</title>
<g id="a_node13"><a xlink:href="classTimer.html" target="_top" xlink:title="Temporizador. ">
<polygon fill="white" stroke="black" points="374.742,-120.5 374.742,-139.5 415.742,-139.5 415.742,-120.5 374.742,-120.5"/>
<text text-anchor="middle" x="395.242" y="-127.5" font-family="Helvetica,sans-Serif" font-size="10.00">Timer</text>
</a>
</g>
</g>
<!-- Node4&#45;&gt;Node13 -->
<g id="edge18" class="edge"><title>Node4&#45;&gt;Node13</title>
<path fill="none" stroke="#9a32cd" stroke-dasharray="5,2" d="M350.171,-285.692C352.033,-282.553 353.811,-279.243 355.242,-276 376.958,-226.783 389.626,-162.884 393.745,-139.801"/>
<polygon fill="#9a32cd" stroke="#9a32cd" points="347.058,-284.061 344.595,-294.365 352.947,-287.846 347.058,-284.061"/>
<text text-anchor="middle" x="382.242" y="-251.5" font-family="Helvetica,sans-Serif" font-size="10.00"> time</text>
</g>
<!-- Node5 -->
<g id="node5" class="node"><title>Node5</title>
<polygon fill="white" stroke="#bfbfbf" points="155.742,-182.5 155.742,-201.5 274.742,-201.5 274.742,-182.5 155.742,-182.5"/>
<text text-anchor="middle" x="215.242" y="-189.5" font-family="Helvetica,sans-Serif" font-size="10.00">vector&lt; Component * &gt;</text>
</g>
<!-- Node5&#45;&gt;Node2 -->
<g id="edge5" class="edge"><title>Node5&#45;&gt;Node2</title>
<path fill="none" stroke="#9a32cd" stroke-dasharray="5,2" d="M215.242,-172.179C215.242,-147.865 215.242,-106.547 215.242,-88.6695"/>
<polygon fill="#9a32cd" stroke="#9a32cd" points="211.742,-172.29 215.242,-182.29 218.742,-172.29 211.742,-172.29"/>
<text text-anchor="middle" x="243.742" y="-127.5" font-family="Helvetica,sans-Serif" font-size="10.00"> components</text>
</g>
<!-- Node6&#45;&gt;Node1 -->
<g id="edge6" class="edge"><title>Node6&#45;&gt;Node1</title>
<path fill="none" stroke="#9a32cd" stroke-dasharray="5,2" d="M336.496,-111.233C330.351,-98.6157 325.146,-81.5747 332.242,-68 345.414,-42.8014 375.362,-26.4957 395.186,-18.0304"/>
<polygon fill="#9a32cd" stroke="#9a32cd" points="333.552,-113.145 341.408,-120.253 339.699,-109.797 333.552,-113.145"/>
<text text-anchor="middle" x="357.742" y="-82" font-family="Helvetica,sans-Serif" font-size="10.00"> destination</text>
<text text-anchor="middle" x="357.742" y="-71" font-family="Helvetica,sans-Serif" font-size="10.00">speed</text>
</g>
<!-- Node7 -->
<g id="node7" class="node"><title>Node7</title>
<polygon fill="white" stroke="#bfbfbf" points="580.242,-69.5 580.242,-88.5 642.242,-88.5 642.242,-69.5 580.242,-69.5"/>
<text text-anchor="middle" x="611.242" y="-76.5" font-family="Helvetica,sans-Serif" font-size="10.00">AlienState</text>
</g>
<!-- Node7&#45;&gt;Node1 -->
<g id="edge8" class="edge"><title>Node7&#45;&gt;Node1</title>
<path fill="none" stroke="#9a32cd" stroke-dasharray="5,2" d="M581.839,-65.5958C561.611,-57.2782 534.024,-46.3592 509.242,-38 483.247,-29.2318 452.636,-20.877 433.334,-15.8439"/>
<polygon fill="#9a32cd" stroke="#9a32cd" points="580.556,-68.8526 591.134,-69.4473 583.236,-62.3858 580.556,-68.8526"/>
<text text-anchor="middle" x="553.742" y="-41.5" font-family="Helvetica,sans-Serif" font-size="10.00"> state</text>
</g>
<!-- Node8&#45;&gt;Node1 -->
<g id="edge10" class="edge"><title>Node8&#45;&gt;Node1</title>
<path fill="none" stroke="#9a32cd" stroke-dasharray="5,2" d="M517.264,-64.2792C503.339,-56.4117 485.407,-46.4511 469.242,-38 456.987,-31.5933 442.996,-24.7308 432.191,-19.5275"/>
<polygon fill="#9a32cd" stroke="#9a32cd" points="515.768,-67.4548 526.193,-69.3472 519.224,-61.3671 515.768,-67.4548"/>
<text text-anchor="middle" x="498.242" y="-41.5" font-family="Helvetica,sans-Serif" font-size="10.00"> sp</text>
</g>
<!-- Node9 -->
<g id="node9" class="node"><title>Node9</title>
<polygon fill="white" stroke="#bfbfbf" points="735.242,-182.5 735.242,-201.5 797.242,-201.5 797.242,-182.5 735.242,-182.5"/>
<text text-anchor="middle" x="766.242" y="-189.5" font-family="Helvetica,sans-Serif" font-size="10.00">SDL_Rect</text>
</g>
<!-- Node9&#45;&gt;Node8 -->
<g id="edge12" class="edge"><title>Node9&#45;&gt;Node8</title>
<path fill="none" stroke="#9a32cd" stroke-dasharray="5,2" d="M753.563,-174.584C737.701,-155.31 708.656,-123.953 676.242,-108 633.761,-87.0919 617.166,-101.52 571.242,-90 568.366,-89.2787 565.369,-88.4168 562.429,-87.5056"/>
<polygon fill="#9a32cd" stroke="#9a32cd" points="750.908,-176.868 759.887,-182.491 756.374,-172.496 750.908,-176.868"/>
<text text-anchor="middle" x="751.242" y="-127.5" font-family="Helvetica,sans-Serif" font-size="10.00"> clipRect</text>
</g>
<!-- Node10 -->
<g id="node10" class="node"><title>Node10</title>
<polygon fill="white" stroke="#bfbfbf" points="440.742,-182.5 440.742,-201.5 469.742,-201.5 469.742,-182.5 440.742,-182.5"/>
<text text-anchor="middle" x="455.242" y="-189.5" font-family="Helvetica,sans-Serif" font-size="10.00">int</text>
</g>
<!-- Node10&#45;&gt;Node1 -->
<g id="edge15" class="edge"><title>Node10&#45;&gt;Node1</title>
<path fill="none" stroke="#9a32cd" stroke-dasharray="5,2" d="M452.755,-172.283C449.335,-148.015 442.532,-104.477 433.242,-68 428.814,-50.6134 421.759,-30.8594 417.606,-19.7677"/>
<polygon fill="#9a32cd" stroke="#9a32cd" points="449.297,-172.826 454.122,-182.258 456.232,-171.876 449.297,-172.826"/>
<text text-anchor="middle" x="461.742" y="-82" font-family="Helvetica,sans-Serif" font-size="10.00"> hp</text>
<text text-anchor="middle" x="461.742" y="-71" font-family="Helvetica,sans-Serif" font-size="10.00">alienCount</text>
</g>
<!-- Node10&#45;&gt;Node8 -->
<g id="edge13" class="edge"><title>Node10&#45;&gt;Node8</title>
<path fill="none" stroke="#9a32cd" stroke-dasharray="5,2" d="M460.16,-172.605C466.159,-151.262 476.57,-117.749 485.242,-108 494.489,-97.6043 508.489,-90.6043 520.177,-86.2032"/>
<polygon fill="#9a32cd" stroke="#9a32cd" points="456.725,-171.897 457.459,-182.466 463.477,-173.746 456.725,-171.897"/>
<text text-anchor="middle" x="514.242" y="-144" font-family="Helvetica,sans-Serif" font-size="10.00"> width</text>
<text text-anchor="middle" x="514.242" y="-133" font-family="Helvetica,sans-Serif" font-size="10.00">currentFrame</text>
<text text-anchor="middle" x="514.242" y="-122" font-family="Helvetica,sans-Serif" font-size="10.00">height</text>
<text text-anchor="middle" x="514.242" y="-111" font-family="Helvetica,sans-Serif" font-size="10.00">frameCount</text>
</g>
<!-- Node11 -->
<g id="node11" class="node"><title>Node11</title>
<polygon fill="white" stroke="#bfbfbf" points="488.242,-182.5 488.242,-201.5 626.242,-201.5 626.242,-182.5 488.242,-182.5"/>
<text text-anchor="middle" x="557.242" y="-189.5" font-family="Helvetica,sans-Serif" font-size="10.00">shared_ptr&lt; SDL_Texture &gt;</text>
</g>
<!-- Node11&#45;&gt;Node8 -->
<g id="edge14" class="edge"><title>Node11&#45;&gt;Node8</title>
<path fill="none" stroke="#9a32cd" stroke-dasharray="5,2" d="M555.456,-172.058C553.748,-155.189 550.894,-129.867 547.242,-108 546.161,-101.527 544.599,-94.2853 543.34,-88.7881"/>
<polygon fill="#9a32cd" stroke="#9a32cd" points="551.995,-172.627 556.451,-182.239 558.962,-171.946 551.995,-172.627"/>
<text text-anchor="middle" x="570.242" y="-127.5" font-family="Helvetica,sans-Serif" font-size="10.00"> texture</text>
</g>
<!-- Node12 -->
<g id="node12" class="node"><title>Node12</title>
<polygon fill="white" stroke="#bfbfbf" points="660.242,-69.5 660.242,-88.5 750.242,-88.5 750.242,-69.5 660.242,-69.5"/>
<text text-anchor="middle" x="705.242" y="-76.5" font-family="Helvetica,sans-Serif" font-size="10.00">vector&lt; Minion &gt;</text>
</g>
<!-- Node12&#45;&gt;Node1 -->
<g id="edge16" class="edge"><title>Node12&#45;&gt;Node1</title>
<path fill="none" stroke="#9a32cd" stroke-dasharray="5,2" d="M669.815,-66.2694C642.76,-57.6127 604.434,-45.9956 570.242,-38 521.531,-26.6093 463.234,-17.7681 433.6,-13.6085"/>
<polygon fill="#9a32cd" stroke="#9a32cd" points="669.009,-69.6869 679.601,-69.4286 671.16,-63.0254 669.009,-69.6869"/>
<text text-anchor="middle" x="642.742" y="-41.5" font-family="Helvetica,sans-Serif" font-size="10.00"> minionArray</text>
</g>
<!-- Node13&#45;&gt;Node1 -->
<g id="edge17" class="edge"><title>Node13&#45;&gt;Node1</title>
<path fill="none" stroke="#9a32cd" stroke-dasharray="5,2" d="M389.966,-110.357C387.292,-98.1971 385.192,-82.0365 388.242,-68 392.168,-49.9313 402.345,-30.7243 408.74,-19.8587"/>
<polygon fill="#9a32cd" stroke="#9a32cd" points="386.614,-111.381 392.451,-120.223 393.402,-109.671 386.614,-111.381"/>
<text text-anchor="middle" x="410.742" y="-76.5" font-family="Helvetica,sans-Serif" font-size="10.00"> restTimer</text>
</g>
</g>
</svg>
