<?xml version="1.0" encoding="UTF-8" standalone="no"?>
<!DOCTYPE svg PUBLIC "-//W3C//DTD SVG 1.1//EN"
 "http://www.w3.org/Graphics/SVG/1.1/DTD/svg11.dtd">
<!-- Generated by graphviz version 2.36.0 (20140111.2315)
 -->
<!-- Title: AIArt Pages: 1 -->
<svg width="1446pt" height="904pt"
 viewBox="0.00 0.00 1446.00 903.91" xmlns="http://www.w3.org/2000/svg" xmlns:xlink="http://www.w3.org/1999/xlink">
<g id="graph0" class="graph" transform="scale(1 1) rotate(0) translate(4 899.915)">
<title>AIArt</title>
<polygon fill="white" stroke="none" points="-4,4 -4,-899.915 1442,-899.915 1442,4 -4,4"/>
<!-- Node1 -->
<g id="node1" class="node"><title>Node1</title>
<polygon fill="#bfbfbf" stroke="black" points="1398.5,-604.415 1398.5,-623.415 1437.5,-623.415 1437.5,-604.415 1398.5,-604.415"/>
<text text-anchor="middle" x="1418" y="-611.415" font-family="Helvetica,sans-Serif" font-size="10.00">AIArt</text>
</g>
<!-- Node2 -->
<g id="node2" class="node"><title>Node2</title>
<g id="a_node2"><a xlink:href="classComponent.html" target="_top" xlink:title="Modela os componentes. ">
<polygon fill="white" stroke="black" points="919.5,-674.415 919.5,-693.415 986.5,-693.415 986.5,-674.415 919.5,-674.415"/>
<text text-anchor="middle" x="953" y="-681.415" font-family="Helvetica,sans-Serif" font-size="10.00">Component</text>
</a>
</g>
</g>
<!-- Node2&#45;&gt;Node1 -->
<g id="edge1" class="edge"><title>Node2&#45;&gt;Node1</title>
<path fill="none" stroke="midnightblue" d="M996.985,-683.162C1062.02,-681.541 1189.18,-676.491 1296,-660.915 1333.88,-655.392 1345.29,-658.049 1380,-641.915 1389.93,-637.296 1399.76,-629.683 1406.78,-623.56"/>
<polygon fill="midnightblue" stroke="midnightblue" points="996.631,-679.669 986.715,-683.402 996.794,-686.667 996.631,-679.669"/>
</g>
<!-- Node12 -->
<g id="node12" class="node"><title>Node12</title>
<g id="a_node12"><a xlink:href="classWaveManager.html" target="_top" xlink:title="Classe que gerencia as waves do jogo. Responsavel por iniciar, encerrar e contar as waves...">
<polygon fill="white" stroke="black" points="1197,-540.415 1197,-559.415 1277,-559.415 1277,-540.415 1197,-540.415"/>
<text text-anchor="middle" x="1237" y="-547.415" font-family="Helvetica,sans-Serif" font-size="10.00">WaveManager</text>
</a>
</g>
</g>
<!-- Node2&#45;&gt;Node12 -->
<g id="edge15" class="edge"><title>Node2&#45;&gt;Node12</title>
<path fill="none" stroke="midnightblue" d="M996.96,-678.283C1053.81,-670.455 1148.26,-655.998 1160,-644.915 1183.99,-622.275 1156.27,-597.732 1178,-572.915 1183.07,-567.128 1189.78,-562.782 1196.85,-559.523"/>
<polygon fill="midnightblue" stroke="midnightblue" points="996.247,-674.848 986.811,-679.666 997.192,-681.784 996.247,-674.848"/>
</g>
<!-- Node3 -->
<g id="node3" class="node"><title>Node3</title>
<g id="a_node3"><a xlink:href="classTileMapObserver.html" target="_top" xlink:title="TileMapObserver">
<polygon fill="white" stroke="black" points="1191.5,-826.415 1191.5,-845.415 1282.5,-845.415 1282.5,-826.415 1191.5,-826.415"/>
<text text-anchor="middle" x="1237" y="-833.415" font-family="Helvetica,sans-Serif" font-size="10.00">TileMapObserver</text>
</a>
</g>
</g>
<!-- Node3&#45;&gt;Node1 -->
<g id="edge2" class="edge"><title>Node3&#45;&gt;Node1</title>
<path fill="none" stroke="midnightblue" d="M1292.88,-840.724C1322.46,-840.212 1357.43,-834.098 1380,-811.915 1407.31,-785.073 1414.97,-659.254 1416.62,-623.445"/>
<polygon fill="midnightblue" stroke="midnightblue" points="1292.68,-837.223 1282.67,-840.689 1292.65,-844.223 1292.68,-837.223"/>
</g>
<!-- Node4 -->
<g id="node4" class="node"><title>Node4</title>
<g id="a_node4"><a xlink:href="classVec2.html" target="_top" xlink:title="Classe que modela um vetor(no sentido físico) ">
<polygon fill="white" stroke="black" points="524.5,-863.415 524.5,-882.415 563.5,-882.415 563.5,-863.415 524.5,-863.415"/>
<text text-anchor="middle" x="544" y="-870.415" font-family="Helvetica,sans-Serif" font-size="10.00">Vec2</text>
</a>
</g>
</g>
<!-- Node4&#45;&gt;Node1 -->
<g id="edge3" class="edge"><title>Node4&#45;&gt;Node1</title>
<path fill="none" stroke="#9a32cd" stroke-dasharray="5,2" d="M573.622,-873.094C622.075,-873.382 723.352,-873.915 809,-873.915 809,-873.915 809,-873.915 1238,-873.915 1303,-873.915 1335.88,-886.648 1380,-838.915 1409.69,-806.79 1415.69,-662.448 1416.78,-623.58"/>
<polygon fill="#9a32cd" stroke="#9a32cd" points="573.585,-869.594 563.564,-873.033 573.543,-876.594 573.585,-869.594"/>
<text text-anchor="middle" x="953" y="-887.915" font-family="Helvetica,sans-Serif" font-size="10.00"> tempDestination</text>
<text text-anchor="middle" x="953" y="-876.915" font-family="Helvetica,sans-Serif" font-size="10.00">vecSpeed</text>
</g>
<!-- Node5 -->
<g id="node5" class="node"><title>Node5</title>
<polygon fill="white" stroke="#bfbfbf" points="175.5,-726.415 175.5,-745.415 210.5,-745.415 210.5,-726.415 175.5,-726.415"/>
<text text-anchor="middle" x="193" y="-733.415" font-family="Helvetica,sans-Serif" font-size="10.00">float</text>
</g>
<!-- Node5&#45;&gt;Node1 -->
<g id="edge12" class="edge"><title>Node5&#45;&gt;Node1</title>
<path fill="none" stroke="#9a32cd" stroke-dasharray="5,2" d="M212.277,-752.319C228.81,-766.274 254.418,-785.775 280,-796.915 362.604,-832.884 392.114,-820.051 482,-813.915 846.338,-789.043 935.349,-759.287 1296,-701.915 1333.45,-695.957 1349.56,-709.538 1380,-686.915 1401.32,-671.064 1411.24,-639.419 1415.03,-623.511"/>
<polygon fill="#9a32cd" stroke="#9a32cd" points="214.361,-749.493 204.507,-745.6 209.782,-754.789 214.361,-749.493"/>
<text text-anchor="middle" x="810" y="-811.915" font-family="Helvetica,sans-Serif" font-size="10.00"> speed</text>
<text text-anchor="middle" x="810" y="-800.915" font-family="Helvetica,sans-Serif" font-size="10.00">lastDistance</text>
<text text-anchor="middle" x="810" y="-789.915" font-family="Helvetica,sans-Serif" font-size="10.00">actualTileweight</text>
</g>
<!-- Node5&#45;&gt;Node4 -->
<g id="edge4" class="edge"><title>Node5&#45;&gt;Node4</title>
<path fill="none" stroke="#9a32cd" stroke-dasharray="5,2" d="M202.44,-754.559C215.183,-780.288 241.955,-825.879 280,-846.915 361.511,-891.984 479.125,-881.925 524.331,-875.828"/>
<polygon fill="#9a32cd" stroke="#9a32cd" points="205.57,-752.993 198.113,-745.467 199.25,-756.001 205.57,-752.993"/>
<text text-anchor="middle" x="312" y="-883.915" font-family="Helvetica,sans-Serif" font-size="10.00"> x</text>
<text text-anchor="middle" x="312" y="-872.915" font-family="Helvetica,sans-Serif" font-size="10.00">y</text>
</g>
<!-- Node6 -->
<g id="node6" class="node"><title>Node6</title>
<g id="a_node6"><a xlink:href="classGameObject.html" target="_top" xlink:title="Classe virtual que especifica o funcionamento de um GameObject. ">
<polygon fill="white" stroke="black" points="642.5,-712.415 642.5,-731.415 713.5,-731.415 713.5,-712.415 642.5,-712.415"/>
<text text-anchor="middle" x="678" y="-719.415" font-family="Helvetica,sans-Serif" font-size="10.00">GameObject</text>
</a>
</g>
</g>
<!-- Node5&#45;&gt;Node6 -->
<g id="edge8" class="edge"><title>Node5&#45;&gt;Node6</title>
<path fill="none" stroke="#9a32cd" stroke-dasharray="5,2" d="M220.928,-734.159C254.096,-732.069 312.17,-728.644 362,-726.915 463.944,-723.376 584.534,-722.34 642.497,-722.038"/>
<polygon fill="#9a32cd" stroke="#9a32cd" points="220.439,-730.683 210.682,-734.812 220.885,-737.669 220.439,-730.683"/>
<text text-anchor="middle" x="422" y="-729.915" font-family="Helvetica,sans-Serif" font-size="10.00"> rotation</text>
</g>
<!-- Node7 -->
<g id="node7" class="node"><title>Node7</title>
<g id="a_node7"><a xlink:href="classRect.html" target="_top" xlink:title="Classe que modela um rect. ">
<polygon fill="white" stroke="black" points="403,-747.415 403,-766.415 441,-766.415 441,-747.415 403,-747.415"/>
<text text-anchor="middle" x="422" y="-754.415" font-family="Helvetica,sans-Serif" font-size="10.00">Rect</text>
</a>
</g>
</g>
<!-- Node5&#45;&gt;Node7 -->
<g id="edge7" class="edge"><title>Node5&#45;&gt;Node7</title>
<path fill="none" stroke="#9a32cd" stroke-dasharray="5,2" d="M220.666,-738.381C267.354,-742.701 362.73,-751.524 402.717,-755.223"/>
<polygon fill="#9a32cd" stroke="#9a32cd" points="220.972,-734.895 210.692,-737.459 220.327,-741.865 220.972,-734.895"/>
<text text-anchor="middle" x="312" y="-784.915" font-family="Helvetica,sans-Serif" font-size="10.00"> w</text>
<text text-anchor="middle" x="312" y="-773.915" font-family="Helvetica,sans-Serif" font-size="10.00">x</text>
<text text-anchor="middle" x="312" y="-762.915" font-family="Helvetica,sans-Serif" font-size="10.00">h</text>
<text text-anchor="middle" x="312" y="-751.915" font-family="Helvetica,sans-Serif" font-size="10.00">y</text>
</g>
<!-- Node19 -->
<g id="node19" class="node"><title>Node19</title>
<g id="a_node19"><a xlink:href="classSprite.html" target="_top" xlink:title="Classe que modela uma sprite. ">
<polygon fill="white" stroke="black" points="401,-374.415 401,-393.415 443,-393.415 443,-374.415 401,-374.415"/>
<text text-anchor="middle" x="422" y="-381.415" font-family="Helvetica,sans-Serif" font-size="10.00">Sprite</text>
</a>
</g>
</g>
<!-- Node5&#45;&gt;Node19 -->
<g id="edge24" class="edge"><title>Node5&#45;&gt;Node19</title>
<path fill="none" stroke="#9a32cd" stroke-dasharray="5,2" d="M206.58,-717.894C242.225,-666.81 341.495,-524.377 344,-518.915 357.212,-490.107 347.02,-477.844 362,-449.915 374.35,-426.89 396.315,-405.34 409.68,-393.46"/>
<polygon fill="#9a32cd" stroke="#9a32cd" points="203.555,-716.112 200.702,-726.316 209.296,-720.119 203.555,-716.112"/>
<text text-anchor="middle" x="312" y="-646.915" font-family="Helvetica,sans-Serif" font-size="10.00"> scaleY</text>
<text text-anchor="middle" x="312" y="-635.915" font-family="Helvetica,sans-Serif" font-size="10.00">frameTime</text>
<text text-anchor="middle" x="312" y="-624.915" font-family="Helvetica,sans-Serif" font-size="10.00">timeElapsed</text>
<text text-anchor="middle" x="312" y="-613.915" font-family="Helvetica,sans-Serif" font-size="10.00">scaleX</text>
</g>
<!-- Node30 -->
<g id="node30" class="node"><title>Node30</title>
<g id="a_node30"><a xlink:href="classTimer.html" target="_top" xlink:title="Temporizador. ">
<polygon fill="white" stroke="black" points="789.5,-641.415 789.5,-660.415 830.5,-660.415 830.5,-641.415 789.5,-641.415"/>
<text text-anchor="middle" x="810" y="-648.415" font-family="Helvetica,sans-Serif" font-size="10.00">Timer</text>
</a>
</g>
</g>
<!-- Node5&#45;&gt;Node30 -->
<g id="edge42" class="edge"><title>Node5&#45;&gt;Node30</title>
<path fill="none" stroke="#9a32cd" stroke-dasharray="5,2" d="M220.903,-731.333C254.046,-725.748 312.096,-716.161 362,-708.915 526.953,-684.963 726.861,-660.716 789.364,-653.247"/>
<polygon fill="#9a32cd" stroke="#9a32cd" points="219.942,-727.946 210.666,-733.064 221.11,-734.848 219.942,-727.946"/>
<text text-anchor="middle" x="422" y="-711.915" font-family="Helvetica,sans-Serif" font-size="10.00"> time</text>
</g>
<!-- Node6&#45;&gt;Node1 -->
<g id="edge5" class="edge"><title>Node6&#45;&gt;Node1</title>
<path fill="none" stroke="#9a32cd" stroke-dasharray="5,2" d="M723.885,-721.321C825.982,-719.466 1083.24,-711.939 1296,-681.915 1333.72,-676.592 1347.96,-685.515 1380,-664.915 1395.83,-654.739 1407.09,-635.215 1412.78,-623.497"/>
<polygon fill="#9a32cd" stroke="#9a32cd" points="723.575,-717.826 713.637,-721.497 723.696,-724.825 723.575,-717.826"/>
<text text-anchor="middle" x="1107" y="-708.915" font-family="Helvetica,sans-Serif" font-size="10.00"> associated</text>
</g>
<!-- Node7&#45;&gt;Node6 -->
<g id="edge6" class="edge"><title>Node7&#45;&gt;Node6</title>
<path fill="none" stroke="#9a32cd" stroke-dasharray="5,2" d="M451.325,-753.012C498.179,-746.555 591.669,-733.673 642.372,-726.686"/>
<polygon fill="#9a32cd" stroke="#9a32cd" points="450.696,-749.565 441.267,-754.397 451.651,-756.5 450.696,-749.565"/>
<text text-anchor="middle" x="544" y="-747.915" font-family="Helvetica,sans-Serif" font-size="10.00"> box</text>
</g>
<!-- Node8 -->
<g id="node8" class="node"><title>Node8</title>
<polygon fill="white" stroke="#bfbfbf" points="175.5,-531.415 175.5,-550.415 210.5,-550.415 210.5,-531.415 175.5,-531.415"/>
<text text-anchor="middle" x="193" y="-538.415" font-family="Helvetica,sans-Serif" font-size="10.00">bool</text>
</g>
<!-- Node8&#45;&gt;Node6 -->
<g id="edge9" class="edge"><title>Node8&#45;&gt;Node6</title>
<path fill="none" stroke="#9a32cd" stroke-dasharray="5,2" d="M204.996,-559.42C219.19,-581.319 246.137,-616.725 280,-631.915 300.488,-641.105 460.078,-633.053 482,-637.915 551.996,-653.436 628.193,-693.861 660.764,-712.388"/>
<polygon fill="#9a32cd" stroke="#9a32cd" points="207.815,-557.325 199.552,-550.694 201.876,-561.031 207.815,-557.325"/>
<text text-anchor="middle" x="422" y="-640.915" font-family="Helvetica,sans-Serif" font-size="10.00"> dead</text>
</g>
<!-- Node8&#45;&gt;Node12 -->
<g id="edge18" class="edge"><title>Node8&#45;&gt;Node12</title>
<path fill="none" stroke="#9a32cd" stroke-dasharray="5,2" d="M220.94,-541.487C254.121,-542.171 312.207,-543.299 362,-543.915 684.422,-547.9 1073.79,-549.403 1196.8,-549.799"/>
<polygon fill="#9a32cd" stroke="#9a32cd" points="220.761,-537.982 210.691,-541.273 220.616,-544.981 220.761,-537.982"/>
<text text-anchor="middle" x="678" y="-561.915" font-family="Helvetica,sans-Serif" font-size="10.00"> endWave</text>
<text text-anchor="middle" x="678" y="-550.915" font-family="Helvetica,sans-Serif" font-size="10.00">victory</text>
</g>
<!-- Node15 -->
<g id="node15" class="node"><title>Node15</title>
<g id="a_node15"><a xlink:href="classTileMap.html" target="_top" xlink:title="Classe que modela o TileMap. ">
<polygon fill="white" stroke="black" points="927.5,-245.415 927.5,-264.415 978.5,-264.415 978.5,-245.415 927.5,-245.415"/>
<text text-anchor="middle" x="953" y="-252.415" font-family="Helvetica,sans-Serif" font-size="10.00">TileMap</text>
</a>
</g>
</g>
<!-- Node8&#45;&gt;Node15 -->
<g id="edge36" class="edge"><title>Node8&#45;&gt;Node15</title>
<path fill="none" stroke="#9a32cd" stroke-dasharray="5,2" d="M220.796,-540.298C341.407,-537.402 829.06,-524.337 852,-501.915 886.92,-467.782 839.989,-321.434 870,-282.915 883.591,-265.471 908.611,-258.828 927.454,-256.333"/>
<polygon fill="#9a32cd" stroke="#9a32cd" points="220.513,-536.804 210.598,-540.54 220.678,-543.802 220.513,-536.804"/>
<text text-anchor="middle" x="544" y="-534.915" font-family="Helvetica,sans-Serif" font-size="10.00"> displayCollisionInfo</text>
</g>
<!-- Node8&#45;&gt;Node19 -->
<g id="edge28" class="edge"><title>Node8&#45;&gt;Node19</title>
<path fill="none" stroke="#9a32cd" stroke-dasharray="5,2" d="M219.952,-529.257C236.928,-521.753 259.65,-511.94 280,-503.915 308.118,-492.826 320.783,-500.267 344,-480.915 356.238,-470.714 352.643,-462.809 362,-449.915 377.526,-428.519 398.823,-406.081 411.127,-393.659"/>
<polygon fill="#9a32cd" stroke="#9a32cd" points="218.399,-526.117 210.682,-533.377 221.242,-532.514 218.399,-526.117"/>
<text text-anchor="middle" x="312" y="-506.915" font-family="Helvetica,sans-Serif" font-size="10.00"> highlightable</text>
</g>
<!-- Node9 -->
<g id="node9" class="node"><title>Node9</title>
<polygon fill="white" stroke="#bfbfbf" points="362.5,-785.415 362.5,-804.415 481.5,-804.415 481.5,-785.415 362.5,-785.415"/>
<text text-anchor="middle" x="422" y="-792.415" font-family="Helvetica,sans-Serif" font-size="10.00">vector&lt; Component * &gt;</text>
</g>
<!-- Node9&#45;&gt;Node6 -->
<g id="edge10" class="edge"><title>Node9&#45;&gt;Node6</title>
<path fill="none" stroke="#9a32cd" stroke-dasharray="5,2" d="M491.322,-783.515C521.33,-777.718 556.769,-769.791 588,-759.915 612.669,-752.113 639.865,-739.947 657.621,-731.49"/>
<polygon fill="#9a32cd" stroke="#9a32cd" points="490.542,-780.1 481.367,-785.398 491.843,-786.978 490.542,-780.1"/>
<text text-anchor="middle" x="544" y="-783.915" font-family="Helvetica,sans-Serif" font-size="10.00"> components</text>
</g>
<!-- Node10 -->
<g id="node10" class="node"><title>Node10</title>
<polygon fill="white" stroke="#bfbfbf" points="1178,-621.915 1178,-651.915 1296,-651.915 1296,-621.915 1178,-621.915"/>
<text text-anchor="start" x="1186" y="-639.915" font-family="Helvetica,sans-Serif" font-size="10.00">shared_ptr&lt; std::vector</text>
<text text-anchor="middle" x="1237" y="-628.915" font-family="Helvetica,sans-Serif" font-size="10.00">&lt; int &gt; &gt;</text>
</g>
<!-- Node10&#45;&gt;Node1 -->
<g id="edge11" class="edge"><title>Node10&#45;&gt;Node1</title>
<path fill="none" stroke="#9a32cd" stroke-dasharray="5,2" d="M1306.23,-628.148C1339.29,-623.899 1376.48,-619.121 1398.26,-616.323"/>
<polygon fill="#9a32cd" stroke="#9a32cd" points="1305.59,-624.701 1296.12,-629.447 1306.48,-631.644 1305.59,-624.701"/>
<text text-anchor="middle" x="1347" y="-629.915" font-family="Helvetica,sans-Serif" font-size="10.00"> path</text>
</g>
<!-- Node11 -->
<g id="node11" class="node"><title>Node11</title>
<polygon fill="white" stroke="#bfbfbf" points="1212,-582.415 1212,-601.415 1262,-601.415 1262,-582.415 1212,-582.415"/>
<text text-anchor="middle" x="1237" y="-589.415" font-family="Helvetica,sans-Serif" font-size="10.00">AIState</text>
</g>
<!-- Node11&#45;&gt;Node1 -->
<g id="edge13" class="edge"><title>Node11&#45;&gt;Node1</title>
<path fill="none" stroke="#9a32cd" stroke-dasharray="5,2" d="M1272.2,-587.395C1301.37,-584.659 1344.16,-583.316 1380,-592.915 1388.56,-595.207 1397.23,-599.965 1404.02,-604.373"/>
<polygon fill="#9a32cd" stroke="#9a32cd" points="1271.69,-583.929 1262.11,-588.449 1272.42,-590.892 1271.69,-583.929"/>
<text text-anchor="middle" x="1347" y="-606.915" font-family="Helvetica,sans-Serif" font-size="10.00"> actualState</text>
<text text-anchor="middle" x="1347" y="-595.915" font-family="Helvetica,sans-Serif" font-size="10.00">dfa</text>
</g>
<!-- Node12&#45;&gt;Node1 -->
<g id="edge14" class="edge"><title>Node12&#45;&gt;Node1</title>
<path fill="none" stroke="#9a32cd" stroke-dasharray="5,2" d="M1287.28,-548.834C1315.93,-550.18 1351.81,-555.385 1380,-570.915 1394.15,-578.708 1405.35,-594.163 1411.58,-604.265"/>
<polygon fill="#9a32cd" stroke="#9a32cd" points="1287.2,-545.329 1277.09,-548.501 1286.97,-552.326 1287.2,-545.329"/>
<text text-anchor="middle" x="1347" y="-573.915" font-family="Helvetica,sans-Serif" font-size="10.00"> waveManager</text>
</g>
<!-- Node13 -->
<g id="node13" class="node"><title>Node13</title>
<polygon fill="white" stroke="#bfbfbf" points="894.5,-578.415 894.5,-597.415 1011.5,-597.415 1011.5,-578.415 894.5,-578.415"/>
<text text-anchor="middle" x="953" y="-585.415" font-family="Helvetica,sans-Serif" font-size="10.00">vector&lt; vector&lt; int &gt; &gt;</text>
</g>
<!-- Node13&#45;&gt;Node12 -->
<g id="edge16" class="edge"><title>Node13&#45;&gt;Node12</title>
<path fill="none" stroke="#9a32cd" stroke-dasharray="5,2" d="M1021.82,-581.155C1062.07,-576.859 1114.05,-570.816 1160,-563.915 1171.94,-562.121 1184.88,-559.858 1196.64,-557.678"/>
<polygon fill="#9a32cd" stroke="#9a32cd" points="1021.43,-577.677 1011.85,-582.209 1022.17,-584.638 1021.43,-577.677"/>
<text text-anchor="middle" x="1107" y="-591.915" font-family="Helvetica,sans-Serif" font-size="10.00"> endGroups</text>
<text text-anchor="middle" x="1107" y="-580.915" font-family="Helvetica,sans-Serif" font-size="10.00">spawnGroups</text>
</g>
<!-- Node14 -->
<g id="node14" class="node"><title>Node14</title>
<polygon fill="white" stroke="#bfbfbf" points="178.5,-176.415 178.5,-195.415 207.5,-195.415 207.5,-176.415 178.5,-176.415"/>
<text text-anchor="middle" x="193" y="-183.415" font-family="Helvetica,sans-Serif" font-size="10.00">int</text>
</g>
<!-- Node14&#45;&gt;Node1 -->
<g id="edge45" class="edge"><title>Node14&#45;&gt;Node1</title>
<path fill="none" stroke="#9a32cd" stroke-dasharray="5,2" d="M214.789,-170.043C253.265,-142.302 339.136,-87.9145 421,-87.9145 421,-87.9145 421,-87.9145 1238,-87.9145 1351.58,-87.9145 1407.67,-533.045 1415.93,-604.336"/>
<polygon fill="#9a32cd" stroke="#9a32cd" points="212.457,-167.414 206.476,-176.16 216.605,-173.053 212.457,-167.414"/>
<text text-anchor="middle" x="810" y="-101.915" font-family="Helvetica,sans-Serif" font-size="10.00"> destTile</text>
<text text-anchor="middle" x="810" y="-90.9145" font-family="Helvetica,sans-Serif" font-size="10.00">pathIndex</text>
</g>
<!-- Node14&#45;&gt;Node12 -->
<g id="edge17" class="edge"><title>Node14&#45;&gt;Node12</title>
<path fill="none" stroke="#9a32cd" stroke-dasharray="5,2" d="M218.011,-186.715C248.526,-188.507 302.247,-194.29 344,-212.915 353.256,-217.043 353.214,-221.862 362,-226.915 455.865,-280.898 496.827,-259.499 588,-317.915 597.265,-323.851 596.559,-329.261 606,-334.915 633.839,-351.585 1129.51,-508.815 1160,-519.915 1177.86,-526.417 1197.85,-534.332 1212.84,-540.399"/>
<polygon fill="#9a32cd" stroke="#9a32cd" points="218.043,-183.212 207.884,-186.219 217.701,-190.204 218.043,-183.212"/>
<text text-anchor="start" x="606" y="-465.915" font-family="Helvetica,sans-Serif" font-size="10.00"> maxNumberOfEnemiesInSpawn</text>
<text text-anchor="middle" x="678" y="-454.915" font-family="Helvetica,sans-Serif" font-size="10.00">Point</text>
<text text-anchor="middle" x="678" y="-443.915" font-family="Helvetica,sans-Serif" font-size="10.00">totalWaves</text>
<text text-anchor="middle" x="678" y="-432.915" font-family="Helvetica,sans-Serif" font-size="10.00">waveTotalEnemies</text>
<text text-anchor="middle" x="678" y="-421.915" font-family="Helvetica,sans-Serif" font-size="10.00">enemiesLeft</text>
<text text-anchor="middle" x="678" y="-410.915" font-family="Helvetica,sans-Serif" font-size="10.00">waveIndex</text>
<text text-anchor="middle" x="678" y="-399.915" font-family="Helvetica,sans-Serif" font-size="10.00">waveCount</text>
<text text-anchor="middle" x="678" y="-388.915" font-family="Helvetica,sans-Serif" font-size="10.00">enemyIndex</text>
</g>
<!-- Node14&#45;&gt;Node15 -->
<g id="edge35" class="edge"><title>Node14&#45;&gt;Node15</title>
<path fill="none" stroke="#9a32cd" stroke-dasharray="5,2" d="M217.639,-180.285C268.767,-168.432 393.608,-141.23 500,-131.915 538.962,-128.503 548.92,-130.349 588,-131.915 660.174,-134.806 678.859,-132.41 750,-144.915 796.301,-153.053 810.245,-151.316 852,-172.915 889.889,-192.513 926.621,-228.189 943.042,-245.282"/>
<polygon fill="#9a32cd" stroke="#9a32cd" points="216.55,-176.945 207.611,-182.633 218.146,-183.761 216.55,-176.945"/>
<text text-anchor="middle" x="544" y="-156.915" font-family="Helvetica,sans-Serif" font-size="10.00"> mapDepth</text>
<text text-anchor="middle" x="544" y="-145.915" font-family="Helvetica,sans-Serif" font-size="10.00">mapHeight</text>
<text text-anchor="middle" x="544" y="-134.915" font-family="Helvetica,sans-Serif" font-size="10.00">mapWidth</text>
</g>
<!-- Node18 -->
<g id="node18" class="node"><title>Node18</title>
<g id="a_node18"><a xlink:href="classTileSet.html" target="_top" xlink:title="Classe responsável por modelar um tileset. ">
<polygon fill="white" stroke="black" points="654.5,-154.415 654.5,-173.415 701.5,-173.415 701.5,-154.415 654.5,-154.415"/>
<text text-anchor="middle" x="678" y="-161.415" font-family="Helvetica,sans-Serif" font-size="10.00">TileSet</text>
</a>
</g>
</g>
<!-- Node14&#45;&gt;Node18 -->
<g id="edge32" class="edge"><title>Node14&#45;&gt;Node18</title>
<path fill="none" stroke="#9a32cd" stroke-dasharray="5,2" d="M217.815,-184.83C300.368,-181.07 573.613,-168.624 654.348,-164.946"/>
<polygon fill="#9a32cd" stroke="#9a32cd" points="217.508,-181.34 207.677,-185.292 217.826,-188.333 217.508,-181.34"/>
<text text-anchor="middle" x="422" y="-214.915" font-family="Helvetica,sans-Serif" font-size="10.00"> tileHeight</text>
<text text-anchor="middle" x="422" y="-203.915" font-family="Helvetica,sans-Serif" font-size="10.00">rows</text>
<text text-anchor="middle" x="422" y="-192.915" font-family="Helvetica,sans-Serif" font-size="10.00">tileWidth</text>
<text text-anchor="middle" x="422" y="-181.915" font-family="Helvetica,sans-Serif" font-size="10.00">columns</text>
</g>
<!-- Node14&#45;&gt;Node19 -->
<g id="edge26" class="edge"><title>Node14&#45;&gt;Node19</title>
<path fill="none" stroke="#9a32cd" stroke-dasharray="5,2" d="M217.615,-191.801C255.08,-201.558 325.772,-221.805 344,-239.915 360.458,-256.267 351.827,-268.063 362,-288.915 378.004,-321.719 402.321,-357.576 414.111,-374.31"/>
<polygon fill="#9a32cd" stroke="#9a32cd" points="218.129,-188.32 207.574,-189.231 216.393,-195.101 218.129,-188.32"/>
<text text-anchor="middle" x="312" y="-275.915" font-family="Helvetica,sans-Serif" font-size="10.00"> width</text>
<text text-anchor="middle" x="312" y="-264.915" font-family="Helvetica,sans-Serif" font-size="10.00">currentFrame</text>
<text text-anchor="middle" x="312" y="-253.915" font-family="Helvetica,sans-Serif" font-size="10.00">height</text>
<text text-anchor="middle" x="312" y="-242.915" font-family="Helvetica,sans-Serif" font-size="10.00">frameCount</text>
</g>
<!-- Node27 -->
<g id="node27" class="node"><title>Node27</title>
<g id="a_node27"><a xlink:href="classSound.html" target="_top" xlink:title="Classe que modela sons. ">
<polygon fill="white" stroke="black" points="400,-459.415 400,-478.415 444,-478.415 444,-459.415 400,-459.415"/>
<text text-anchor="middle" x="422" y="-466.415" font-family="Helvetica,sans-Serif" font-size="10.00">Sound</text>
</a>
</g>
</g>
<!-- Node14&#45;&gt;Node27 -->
<g id="edge38" class="edge"><title>Node14&#45;&gt;Node27</title>
<path fill="none" stroke="#9a32cd" stroke-dasharray="5,2" d="M207.696,-203.712C221.836,-222.342 244.271,-252.626 262,-279.915 270.68,-293.274 269.047,-299.345 280,-310.915 303.391,-335.621 322.931,-326.201 344,-352.915 358.626,-371.459 349.908,-382.627 362,-402.915 375.377,-425.358 397.006,-447.098 410.027,-459.172"/>
<polygon fill="#9a32cd" stroke="#9a32cd" points="210.328,-201.392 201.478,-195.567 204.764,-205.639 210.328,-201.392"/>
<text text-anchor="middle" x="312" y="-355.915" font-family="Helvetica,sans-Serif" font-size="10.00"> channel</text>
</g>
<!-- Node15&#45;&gt;Node1 -->
<g id="edge46" class="edge"><title>Node15&#45;&gt;Node1</title>
<path fill="none" stroke="#9a32cd" stroke-dasharray="5,2" d="M988.494,-249.139C1031.37,-243.707 1105.52,-240.172 1160,-268.915 1309.62,-347.853 1395.67,-557.177 1413.51,-604.371"/>
<polygon fill="#9a32cd" stroke="#9a32cd" points="987.987,-245.675 978.556,-250.504 988.94,-252.61 987.987,-245.675"/>
<text text-anchor="middle" x="1237" y="-390.915" font-family="Helvetica,sans-Serif" font-size="10.00"> tileMap</text>
</g>
<!-- Node15&#45;&gt;Node12 -->
<g id="edge19" class="edge"><title>Node15&#45;&gt;Node12</title>
<path fill="none" stroke="#9a32cd" stroke-dasharray="5,2" d="M988.945,-258.641C1044.34,-264.848 1147.39,-277.73 1160,-288.915 1237.86,-357.963 1237.98,-501.697 1236.51,-540.233"/>
<polygon fill="#9a32cd" stroke="#9a32cd" points="989.188,-255.147 978.864,-257.526 988.418,-262.104 989.188,-255.147"/>
<text text-anchor="middle" x="1107" y="-291.915" font-family="Helvetica,sans-Serif" font-size="10.00"> tileMap</text>
</g>
<!-- Node16 -->
<g id="node16" class="node"><title>Node16</title>
<g id="a_node16"><a xlink:href="classNearestGOFinder.html" target="_top" xlink:title="NearestGOFinder">
<polygon fill="white" stroke="black" points="631.5,-306.415 631.5,-325.415 724.5,-325.415 724.5,-306.415 631.5,-306.415"/>
<text text-anchor="middle" x="678" y="-313.415" font-family="Helvetica,sans-Serif" font-size="10.00">NearestGOFinder</text>
</a>
</g>
</g>
<!-- Node16&#45;&gt;Node15 -->
<g id="edge20" class="edge"><title>Node16&#45;&gt;Node15</title>
<path fill="none" stroke="midnightblue" d="M735.042,-307.536C769.07,-302.037 813.269,-294.162 852,-284.915 877.916,-278.727 907.042,-269.753 927.146,-263.234"/>
<polygon fill="midnightblue" stroke="midnightblue" points="734.149,-304.134 724.825,-309.165 735.251,-311.047 734.149,-304.134"/>
</g>
<!-- Node17 -->
<g id="node17" class="node"><title>Node17</title>
<polygon fill="white" stroke="#bfbfbf" points="606.5,-268.415 606.5,-287.415 749.5,-287.415 749.5,-268.415 606.5,-268.415"/>
<text text-anchor="middle" x="678" y="-275.415" font-family="Helvetica,sans-Serif" font-size="10.00">vector&lt; TileMapObserver * &gt;</text>
</g>
<!-- Node17&#45;&gt;Node15 -->
<g id="edge21" class="edge"><title>Node17&#45;&gt;Node15</title>
<path fill="none" stroke="#9a32cd" stroke-dasharray="5,2" d="M759.785,-271.108C817.007,-266.288 890,-260.138 927.43,-256.985"/>
<polygon fill="#9a32cd" stroke="#9a32cd" points="759.33,-267.634 749.659,-271.962 759.918,-274.61 759.33,-267.634"/>
<text text-anchor="middle" x="810" y="-272.915" font-family="Helvetica,sans-Serif" font-size="10.00"> observers</text>
</g>
<!-- Node18&#45;&gt;Node15 -->
<g id="edge22" class="edge"><title>Node18&#45;&gt;Node15</title>
<path fill="none" stroke="#9a32cd" stroke-dasharray="5,2" d="M711.987,-167.492C747.43,-172.042 805.001,-181.489 852,-198.915 884.65,-211.02 919.391,-232.744 938.107,-245.279"/>
<polygon fill="#9a32cd" stroke="#9a32cd" points="712.086,-163.978 701.734,-166.234 711.233,-170.926 712.086,-163.978"/>
<text text-anchor="middle" x="810" y="-201.915" font-family="Helvetica,sans-Serif" font-size="10.00"> tileSet</text>
</g>
<!-- Node19&#45;&gt;Node18 -->
<g id="edge23" class="edge"><title>Node19&#45;&gt;Node18</title>
<path fill="none" stroke="#9a32cd" stroke-dasharray="5,2" d="M434.554,-365.243C460.228,-325.363 526.105,-231.554 606,-182.915 620.714,-173.957 639.654,-169.163 654.271,-166.632"/>
<polygon fill="#9a32cd" stroke="#9a32cd" points="431.301,-363.838 428.909,-374.159 437.216,-367.582 431.301,-363.838"/>
<text text-anchor="middle" x="544" y="-278.915" font-family="Helvetica,sans-Serif" font-size="10.00"> tileSet</text>
</g>
<!-- Node20 -->
<g id="node20" class="node"><title>Node20</title>
<polygon fill="white" stroke="#bfbfbf" points="162,-289.415 162,-308.415 224,-308.415 224,-289.415 162,-289.415"/>
<text text-anchor="middle" x="193" y="-296.415" font-family="Helvetica,sans-Serif" font-size="10.00">SDL_Rect</text>
</g>
<!-- Node20&#45;&gt;Node19 -->
<g id="edge25" class="edge"><title>Node20&#45;&gt;Node19</title>
<path fill="none" stroke="#9a32cd" stroke-dasharray="5,2" d="M234.327,-290.724C265.619,-286.321 309.356,-284.537 344,-299.915 379.079,-315.486 405.211,-355.696 415.811,-374.26"/>
<polygon fill="#9a32cd" stroke="#9a32cd" points="233.566,-287.301 224.223,-292.297 234.642,-294.217 233.566,-287.301"/>
<text text-anchor="middle" x="312" y="-302.915" font-family="Helvetica,sans-Serif" font-size="10.00"> clipRect</text>
</g>
<!-- Node21 -->
<g id="node21" class="node"><title>Node21</title>
<polygon fill="white" stroke="#bfbfbf" points="124,-425.415 124,-444.415 262,-444.415 262,-425.415 124,-425.415"/>
<text text-anchor="middle" x="193" y="-432.415" font-family="Helvetica,sans-Serif" font-size="10.00">shared_ptr&lt; SDL_Texture &gt;</text>
</g>
<!-- Node21&#45;&gt;Node19 -->
<g id="edge27" class="edge"><title>Node21&#45;&gt;Node19</title>
<path fill="none" stroke="#9a32cd" stroke-dasharray="5,2" d="M266.772,-423.686C291.429,-419.386 319.039,-414.026 344,-407.915 363.585,-403.119 385.5,-396.125 400.927,-390.923"/>
<polygon fill="#9a32cd" stroke="#9a32cd" points="266.028,-420.262 256.763,-425.402 267.211,-427.162 266.028,-420.262"/>
<text text-anchor="middle" x="312" y="-423.915" font-family="Helvetica,sans-Serif" font-size="10.00"> texture</text>
</g>
<!-- Node22 -->
<g id="node22" class="node"><title>Node22</title>
<polygon fill="white" stroke="#bfbfbf" points="148,-387.415 148,-406.415 238,-406.415 238,-387.415 148,-387.415"/>
<text text-anchor="middle" x="193" y="-394.415" font-family="Helvetica,sans-Serif" font-size="10.00">SDL_BlendMode</text>
</g>
<!-- Node22&#45;&gt;Node19 -->
<g id="edge29" class="edge"><title>Node22&#45;&gt;Node19</title>
<path fill="none" stroke="#9a32cd" stroke-dasharray="5,2" d="M248.176,-393.812C297.249,-391.002 366.903,-387.013 400.844,-385.069"/>
<polygon fill="#9a32cd" stroke="#9a32cd" points="247.821,-390.326 238.037,-394.393 248.221,-397.315 247.821,-390.326"/>
<text text-anchor="middle" x="312" y="-395.915" font-family="Helvetica,sans-Serif" font-size="10.00"> blendMode</text>
</g>
<!-- Node23 -->
<g id="node23" class="node"><title>Node23</title>
<g id="a_node23"><a xlink:href="structColor.html" target="_top" xlink:title="Struct para armazenar informações de cor. ">
<polygon fill="white" stroke="black" points="173,-349.415 173,-368.415 213,-368.415 213,-349.415 173,-349.415"/>
<text text-anchor="middle" x="193" y="-356.415" font-family="Helvetica,sans-Serif" font-size="10.00">Color</text>
</a>
</g>
</g>
<!-- Node23&#45;&gt;Node19 -->
<g id="edge30" class="edge"><title>Node23&#45;&gt;Node19</title>
<path fill="none" stroke="#9a32cd" stroke-dasharray="5,2" d="M223.733,-361.627C254.017,-364.452 302.318,-369.125 344,-373.915 363.285,-376.131 385.237,-379.018 400.755,-381.12"/>
<polygon fill="#9a32cd" stroke="#9a32cd" points="223.717,-358.111 213.437,-360.674 223.071,-365.081 223.717,-358.111"/>
<text text-anchor="middle" x="312" y="-376.915" font-family="Helvetica,sans-Serif" font-size="10.00"> colorMultiplier</text>
</g>
<!-- Node24 -->
<g id="node24" class="node"><title>Node24</title>
<polygon fill="white" stroke="#bfbfbf" points="0.5,-349.415 0.5,-368.415 77.5,-368.415 77.5,-349.415 0.5,-349.415"/>
<text text-anchor="middle" x="39" y="-356.415" font-family="Helvetica,sans-Serif" font-size="10.00">unsigned char</text>
</g>
<!-- Node24&#45;&gt;Node23 -->
<g id="edge31" class="edge"><title>Node24&#45;&gt;Node23</title>
<path fill="none" stroke="#9a32cd" stroke-dasharray="5,2" d="M87.8544,-358.915C116.632,-358.915 151.679,-358.915 172.893,-358.915"/>
<polygon fill="#9a32cd" stroke="#9a32cd" points="87.5731,-355.415 77.573,-358.915 87.573,-362.415 87.5731,-355.415"/>
<text text-anchor="middle" x="101" y="-394.915" font-family="Helvetica,sans-Serif" font-size="10.00"> g</text>
<text text-anchor="middle" x="101" y="-383.915" font-family="Helvetica,sans-Serif" font-size="10.00">a</text>
<text text-anchor="middle" x="101" y="-372.915" font-family="Helvetica,sans-Serif" font-size="10.00">r</text>
<text text-anchor="middle" x="101" y="-361.915" font-family="Helvetica,sans-Serif" font-size="10.00">b</text>
</g>
<!-- Node25 -->
<g id="node25" class="node"><title>Node25</title>
<polygon fill="white" stroke="#bfbfbf" points="642,-230.415 642,-249.415 714,-249.415 714,-230.415 642,-230.415"/>
<text text-anchor="middle" x="678" y="-237.415" font-family="Helvetica,sans-Serif" font-size="10.00">vector&lt; int &gt;</text>
</g>
<!-- Node25&#45;&gt;Node15 -->
<g id="edge33" class="edge"><title>Node25&#45;&gt;Node15</title>
<path fill="none" stroke="#9a32cd" stroke-dasharray="5,2" d="M724.504,-240.351C759.416,-240.899 808.793,-242.133 852,-244.915 877.769,-246.573 907.166,-249.656 927.383,-251.963"/>
<polygon fill="#9a32cd" stroke="#9a32cd" points="724.205,-236.847 714.156,-240.202 724.104,-243.846 724.205,-236.847"/>
<text text-anchor="middle" x="810" y="-247.915" font-family="Helvetica,sans-Serif" font-size="10.00"> tileMatrix</text>
</g>
<!-- Node26 -->
<g id="node26" class="node"><title>Node26</title>
<polygon fill="white" stroke="#bfbfbf" points="616.5,-192.415 616.5,-211.415 739.5,-211.415 739.5,-192.415 616.5,-192.415"/>
<text text-anchor="middle" x="678" y="-199.415" font-family="Helvetica,sans-Serif" font-size="10.00">vector&lt; GameObject * &gt;</text>
</g>
<!-- Node26&#45;&gt;Node15 -->
<g id="edge34" class="edge"><title>Node26&#45;&gt;Node15</title>
<path fill="none" stroke="#9a32cd" stroke-dasharray="5,2" d="M749.782,-210.038C781.249,-214.189 818.645,-219.866 852,-226.915 877.93,-232.394 907.053,-240.813 927.153,-246.989"/>
<polygon fill="#9a32cd" stroke="#9a32cd" points="750.153,-206.557 739.786,-208.744 749.254,-213.499 750.153,-206.557"/>
<text text-anchor="middle" x="810" y="-229.915" font-family="Helvetica,sans-Serif" font-size="10.00"> gameObjectMatrix</text>
</g>
<!-- Node27&#45;&gt;Node12 -->
<g id="edge37" class="edge"><title>Node27&#45;&gt;Node12</title>
<path fill="none" stroke="#9a32cd" stroke-dasharray="5,2" d="M454.418,-470.738C556.503,-476.885 887.975,-498.575 1160,-535.915 1171.96,-537.557 1184.91,-539.774 1196.67,-541.96"/>
<polygon fill="#9a32cd" stroke="#9a32cd" points="454.377,-467.23 444.187,-470.128 453.96,-474.218 454.377,-467.23"/>
<text text-anchor="middle" x="810" y="-504.915" font-family="Helvetica,sans-Serif" font-size="10.00"> waveStartSound</text>
</g>
<!-- Node28 -->
<g id="node28" class="node"><title>Node28</title>
<polygon fill="white" stroke="#bfbfbf" points="128,-463.415 128,-482.415 258,-482.415 258,-463.415 128,-463.415"/>
<text text-anchor="middle" x="193" y="-470.415" font-family="Helvetica,sans-Serif" font-size="10.00">shared_ptr&lt; Mix_Chunk &gt;</text>
</g>
<!-- Node28&#45;&gt;Node27 -->
<g id="edge39" class="edge"><title>Node28&#45;&gt;Node27</title>
<path fill="none" stroke="#9a32cd" stroke-dasharray="5,2" d="M268.593,-470.186C272.451,-470.084 276.271,-469.993 280,-469.915 322.585,-469.021 372.42,-468.88 399.976,-468.882"/>
<polygon fill="#9a32cd" stroke="#9a32cd" points="268.228,-466.695 258.331,-470.475 268.426,-473.692 268.228,-466.695"/>
<text text-anchor="middle" x="312" y="-472.915" font-family="Helvetica,sans-Serif" font-size="10.00"> sound</text>
</g>
<!-- Node29 -->
<g id="node29" class="node"><title>Node29</title>
<polygon fill="white" stroke="#bfbfbf" points="870,-292.415 870,-333.415 1036,-333.415 1036,-292.415 870,-292.415"/>
<text text-anchor="start" x="878" y="-321.415" font-family="Helvetica,sans-Serif" font-size="10.00">shared_ptr&lt; std::pair</text>
<text text-anchor="start" x="878" y="-310.415" font-family="Helvetica,sans-Serif" font-size="10.00">&lt; std::vector&lt; WaveData</text>
<text text-anchor="middle" x="953" y="-299.415" font-family="Helvetica,sans-Serif" font-size="10.00"> &gt;, std::vector&lt; EnemyData &gt; &gt; &gt;</text>
</g>
<!-- Node29&#45;&gt;Node12 -->
<g id="edge40" class="edge"><title>Node29&#45;&gt;Node12</title>
<path fill="none" stroke="#9a32cd" stroke-dasharray="5,2" d="M1046.5,-303.326C1085.25,-304.109 1128.51,-311.862 1160,-336.915 1226.67,-389.958 1234.92,-506.121 1235.89,-540.284"/>
<polygon fill="#9a32cd" stroke="#9a32cd" points="1046.25,-299.825 1036.24,-303.276 1046.22,-306.825 1046.25,-299.825"/>
<text text-anchor="middle" x="1107" y="-339.915" font-family="Helvetica,sans-Serif" font-size="10.00"> wavesAndEnemysData</text>
</g>
<!-- Node30&#45;&gt;Node12 -->
<g id="edge41" class="edge"><title>Node30&#45;&gt;Node12</title>
<path fill="none" stroke="#9a32cd" stroke-dasharray="5,2" d="M840.711,-646.879C850.082,-645.609 860.473,-644.201 870,-642.915 934.44,-634.213 1105.94,-640.049 1160,-603.915 1173.25,-595.061 1165.93,-583.313 1178,-572.915 1184.65,-567.188 1192.89,-562.782 1201.06,-559.435"/>
<polygon fill="#9a32cd" stroke="#9a32cd" points="840.105,-643.43 830.666,-648.243 841.046,-650.366 840.105,-643.43"/>
<text text-anchor="middle" x="953" y="-656.915" font-family="Helvetica,sans-Serif" font-size="10.00"> spawnTimer</text>
<text text-anchor="middle" x="953" y="-645.915" font-family="Helvetica,sans-Serif" font-size="10.00">waveTimer</text>
</g>
<!-- Node31 -->
<g id="node31" class="node"><title>Node31</title>
<g id="a_node31"><a xlink:href="classManhattanDistance.html" target="_top" xlink:title="ManhattanDistance">
<polygon fill="white" stroke="black" points="1186.5,-40.4145 1186.5,-59.4145 1287.5,-59.4145 1287.5,-40.4145 1186.5,-40.4145"/>
<text text-anchor="middle" x="1237" y="-47.4145" font-family="Helvetica,sans-Serif" font-size="10.00">ManhattanDistance</text>
</a>
</g>
</g>
<!-- Node31&#45;&gt;Node1 -->
<g id="edge43" class="edge"><title>Node31&#45;&gt;Node1</title>
<path fill="none" stroke="#9a32cd" stroke-dasharray="5,2" d="M1293.09,-39.3529C1322.91,-37.0388 1358.04,-40.4111 1380,-62.9145 1419.34,-103.223 1417.63,-533.837 1417.09,-604.213"/>
<polygon fill="#9a32cd" stroke="#9a32cd" points="1292.39,-35.905 1282.79,-40.3865 1293.09,-42.87 1292.39,-35.905"/>
<text text-anchor="middle" x="1347" y="-65.9145" font-family="Helvetica,sans-Serif" font-size="10.00"> heuristic</text>
</g>
<!-- Node32 -->
<g id="node32" class="node"><title>Node32</title>
<g id="a_node32"><a xlink:href="classAStarHeuristic.html" target="_top" xlink:title="AStarHeuristic">
<polygon fill="white" stroke="black" points="913,-40.4145 913,-59.4145 993,-59.4145 993,-40.4145 913,-40.4145"/>
<text text-anchor="middle" x="953" y="-47.4145" font-family="Helvetica,sans-Serif" font-size="10.00">AStarHeuristic</text>
</a>
</g>
</g>
<!-- Node32&#45;&gt;Node31 -->
<g id="edge44" class="edge"><title>Node32&#45;&gt;Node31</title>
<path fill="none" stroke="midnightblue" d="M1003.4,-49.9145C1054.76,-49.9145 1134.7,-49.9145 1186.2,-49.9145"/>
<polygon fill="midnightblue" stroke="midnightblue" points="1003.21,-46.4146 993.211,-49.9145 1003.21,-53.4146 1003.21,-46.4146"/>
</g>
<!-- Node33 -->
<g id="node33" class="node"><title>Node33</title>
<polygon fill="white" stroke="#bfbfbf" points="1188,-2.41455 1188,-21.4145 1286,-21.4145 1286,-2.41455 1188,-2.41455"/>
<text text-anchor="middle" x="1237" y="-9.41455" font-family="Helvetica,sans-Serif" font-size="10.00">map&lt; int, double &gt;</text>
</g>
<!-- Node33&#45;&gt;Node1 -->
<g id="edge47" class="edge"><title>Node33&#45;&gt;Node1</title>
<path fill="none" stroke="#9a32cd" stroke-dasharray="5,2" d="M1289.86,-1.1779C1320.33,1.87354 1357.22,-0.640172 1380,-23.9145 1422.26,-67.1017 1418.08,-530.122 1417.14,-604.001"/>
<polygon fill="#9a32cd" stroke="#9a32cd" points="1289.3,2.28038 1279.8,-2.40413 1290.15,-4.66817 1289.3,2.28038"/>
<text text-anchor="middle" x="1347" y="-26.9145" font-family="Helvetica,sans-Serif" font-size="10.00"> tileWeightMap</text>
</g>
</g>
</svg>
