<?xml version="1.0" encoding="UTF-8" standalone="no"?>
<!DOCTYPE svg PUBLIC "-//W3C//DTD SVG 1.1//EN"
 "http://www.w3.org/Graphics/SVG/1.1/DTD/svg11.dtd">
<!-- Generated by graphviz version 2.38.0 (20140413.2041)
 -->
<!-- Title: Bullet Pages: 1 -->
<svg width="529pt" height="271pt"
 viewBox="0.00 0.00 528.58 271.00" xmlns="http://www.w3.org/2000/svg" xmlns:xlink="http://www.w3.org/1999/xlink">
<g id="graph0" class="graph" transform="scale(1 1) rotate(0) translate(4 267)">
<title>Bullet</title>
<polygon fill="white" stroke="none" points="-4,4 -4,-267 524.579,-267 524.579,4 -4,4"/>
<!-- Node1 -->
<g id="node1" class="node"><title>Node1</title>
<polygon fill="#bfbfbf" stroke="black" points="156.079,-0.5 156.079,-19.5 197.079,-19.5 197.079,-0.5 156.079,-0.5"/>
<text text-anchor="middle" x="176.579" y="-7.5" font-family="Helvetica,sans-Serif" font-size="10.00">Bullet</text>
</g>
<!-- Node2 -->
<g id="node2" class="node"><title>Node2</title>
<g id="a_node2"><a xlink:href="classGameObject.html" target="_top" xlink:title="GameObject">
<polygon fill="white" stroke="black" points="69.0787,-67.5 69.0787,-86.5 140.079,-86.5 140.079,-67.5 69.0787,-67.5"/>
<text text-anchor="middle" x="104.579" y="-74.5" font-family="Helvetica,sans-Serif" font-size="10.00">GameObject</text>
</a>
</g>
</g>
<!-- Node2&#45;&gt;Node1 -->
<g id="edge1" class="edge"><title>Node2&#45;&gt;Node1</title>
<path fill="none" stroke="midnightblue" d="M121.907,-60.3564C136.062,-47.5777 155.542,-29.9915 167.022,-19.6273"/>
<polygon fill="midnightblue" stroke="midnightblue" points="119.366,-57.9348 114.289,-67.2338 124.057,-63.1307 119.366,-57.9348"/>
</g>
<!-- Node3 -->
<g id="node3" class="node"><title>Node3</title>
<g id="a_node3"><a xlink:href="classRect.html" target="_top" xlink:title="Rect">
<polygon fill="white" stroke="black" points="110.579,-143.5 110.579,-162.5 148.579,-162.5 148.579,-143.5 110.579,-143.5"/>
<text text-anchor="middle" x="129.579" y="-150.5" font-family="Helvetica,sans-Serif" font-size="10.00">Rect</text>
</a>
</g>
</g>
<!-- Node3&#45;&gt;Node2 -->
<g id="edge2" class="edge"><title>Node3&#45;&gt;Node2</title>
<path fill="none" stroke="#9a32cd" stroke-dasharray="5,2" d="M123.332,-133.509C118.286,-118.575 111.411,-98.2223 107.541,-86.7679"/>
<polygon fill="#9a32cd" stroke="#9a32cd" points="120.096,-134.867 126.613,-143.221 126.728,-132.626 120.096,-134.867"/>
<text text-anchor="middle" x="130.079" y="-112.5" font-family="Helvetica,sans-Serif" font-size="10.00"> box</text>
</g>
<!-- Node4 -->
<g id="node4" class="node"><title>Node4</title>
<polygon fill="white" stroke="#bfbfbf" points="112.079,-243.5 112.079,-262.5 147.079,-262.5 147.079,-243.5 112.079,-243.5"/>
<text text-anchor="middle" x="129.579" y="-250.5" font-family="Helvetica,sans-Serif" font-size="10.00">float</text>
</g>
<!-- Node4&#45;&gt;Node1 -->
<g id="edge7" class="edge"><title>Node4&#45;&gt;Node1</title>
<path fill="none" stroke="#9a32cd" stroke-dasharray="5,2" d="M102.33,-243.722C91.2872,-239.409 78.9564,-233.274 69.5787,-225 24.716,-185.417 -18.2616,-158.47 8.57865,-105 37.4415,-47.5005 117.89,-23.3241 156.024,-14.8681"/>
<polygon fill="#9a32cd" stroke="#9a32cd" points="101.393,-247.104 111.987,-247.179 103.752,-240.513 101.393,-247.104"/>
<text text-anchor="middle" x="37.0787" y="-112.5" font-family="Helvetica,sans-Serif" font-size="10.00"> distanceLeft</text>
</g>
<!-- Node4&#45;&gt;Node2 -->
<g id="edge4" class="edge"><title>Node4&#45;&gt;Node2</title>
<path fill="none" stroke="#9a32cd" stroke-dasharray="5,2" d="M113.223,-236.019C97.5386,-219.449 74.9085,-191.955 65.5787,-163 56.2172,-133.947 81.6384,-101.725 95.8038,-86.6562"/>
<polygon fill="#9a32cd" stroke="#9a32cd" points="110.782,-238.529 120.275,-243.233 115.788,-233.636 110.782,-238.529"/>
<text text-anchor="middle" x="83.5787" y="-150.5" font-family="Helvetica,sans-Serif" font-size="10.00"> rotation</text>
</g>
<!-- Node4&#45;&gt;Node3 -->
<g id="edge3" class="edge"><title>Node4&#45;&gt;Node3</title>
<path fill="none" stroke="#9a32cd" stroke-dasharray="5,2" d="M129.579,-233.22C129.579,-211.951 129.579,-178.22 129.579,-162.537"/>
<polygon fill="#9a32cd" stroke="#9a32cd" points="126.079,-233.303 129.579,-243.303 133.079,-233.303 126.079,-233.303"/>
<text text-anchor="middle" x="135.079" y="-217" font-family="Helvetica,sans-Serif" font-size="10.00"> w</text>
<text text-anchor="middle" x="135.079" y="-206" font-family="Helvetica,sans-Serif" font-size="10.00">x</text>
<text text-anchor="middle" x="135.079" y="-195" font-family="Helvetica,sans-Serif" font-size="10.00">h</text>
<text text-anchor="middle" x="135.079" y="-184" font-family="Helvetica,sans-Serif" font-size="10.00">y</text>
</g>
<!-- Node5 -->
<g id="node5" class="node"><title>Node5</title>
<g id="a_node5"><a xlink:href="classVec2.html" target="_top" xlink:title="Vec2">
<polygon fill="white" stroke="black" points="157.079,-105.5 157.079,-124.5 196.079,-124.5 196.079,-105.5 157.079,-105.5"/>
<text text-anchor="middle" x="176.579" y="-112.5" font-family="Helvetica,sans-Serif" font-size="10.00">Vec2</text>
</a>
</g>
</g>
<!-- Node4&#45;&gt;Node5 -->
<g id="edge6" class="edge"><title>Node4&#45;&gt;Node5</title>
<path fill="none" stroke="#9a32cd" stroke-dasharray="5,2" d="M140.154,-234.268C141.754,-231.232 143.295,-228.067 144.579,-225 159.653,-188.977 170.552,-143.473 174.717,-124.703"/>
<polygon fill="#9a32cd" stroke="#9a32cd" points="136.953,-232.819 135.091,-243.249 143.051,-236.256 136.953,-232.819"/>
<text text-anchor="middle" x="164.079" y="-206" font-family="Helvetica,sans-Serif" font-size="10.00"> x</text>
<text text-anchor="middle" x="164.079" y="-195" font-family="Helvetica,sans-Serif" font-size="10.00">y</text>
</g>
<!-- Node6 -->
<g id="node6" class="node"><title>Node6</title>
<g id="a_node6"><a xlink:href="classSprite.html" target="_top" xlink:title="Sprite">
<polygon fill="white" stroke="black" points="265.579,-143.5 265.579,-162.5 307.579,-162.5 307.579,-143.5 265.579,-143.5"/>
<text text-anchor="middle" x="286.579" y="-150.5" font-family="Helvetica,sans-Serif" font-size="10.00">Sprite</text>
</a>
</g>
</g>
<!-- Node4&#45;&gt;Node6 -->
<g id="edge9" class="edge"><title>Node4&#45;&gt;Node6</title>
<path fill="none" stroke="#9a32cd" stroke-dasharray="5,2" d="M156.64,-241.698C166.524,-237.302 177.498,-231.642 186.579,-225 208.153,-209.219 205.901,-196.638 227.579,-181 239.181,-172.63 253.792,-165.92 265.571,-161.283"/>
<polygon fill="#9a32cd" stroke="#9a32cd" points="155.086,-238.555 147.229,-245.663 157.803,-245.006 155.086,-238.555"/>
<text text-anchor="middle" x="255.079" y="-217" font-family="Helvetica,sans-Serif" font-size="10.00"> scaleY</text>
<text text-anchor="middle" x="255.079" y="-206" font-family="Helvetica,sans-Serif" font-size="10.00">frameTime</text>
<text text-anchor="middle" x="255.079" y="-195" font-family="Helvetica,sans-Serif" font-size="10.00">timeElapsed</text>
<text text-anchor="middle" x="255.079" y="-184" font-family="Helvetica,sans-Serif" font-size="10.00">scaleX</text>
</g>
<!-- Node5&#45;&gt;Node1 -->
<g id="edge5" class="edge"><title>Node5&#45;&gt;Node1</title>
<path fill="none" stroke="#9a32cd" stroke-dasharray="5,2" d="M176.579,-94.9386C176.579,-72.5337 176.579,-36.313 176.579,-19.7595"/>
<polygon fill="#9a32cd" stroke="#9a32cd" points="173.079,-95.2182 176.579,-105.218 180.079,-95.2183 173.079,-95.2182"/>
<text text-anchor="middle" x="191.579" y="-74.5" font-family="Helvetica,sans-Serif" font-size="10.00"> speed</text>
</g>
<!-- Node6&#45;&gt;Node1 -->
<g id="edge8" class="edge"><title>Node6&#45;&gt;Node1</title>
<path fill="none" stroke="#9a32cd" stroke-dasharray="5,2" d="M273.531,-135.276C250.047,-105.173 201.434,-42.8598 183.457,-19.8168"/>
<polygon fill="#9a32cd" stroke="#9a32cd" points="270.787,-137.448 279.698,-143.18 276.306,-133.142 270.787,-137.448"/>
<text text-anchor="middle" x="242.579" y="-74.5" font-family="Helvetica,sans-Serif" font-size="10.00"> sp</text>
</g>
<!-- Node7 -->
<g id="node7" class="node"><title>Node7</title>
<polygon fill="white" stroke="#bfbfbf" points="255.579,-243.5 255.579,-262.5 317.579,-262.5 317.579,-243.5 255.579,-243.5"/>
<text text-anchor="middle" x="286.579" y="-250.5" font-family="Helvetica,sans-Serif" font-size="10.00">SDL_Rect</text>
</g>
<!-- Node7&#45;&gt;Node6 -->
<g id="edge10" class="edge"><title>Node7&#45;&gt;Node6</title>
<path fill="none" stroke="#9a32cd" stroke-dasharray="5,2" d="M286.579,-233.22C286.579,-211.951 286.579,-178.22 286.579,-162.537"/>
<polygon fill="#9a32cd" stroke="#9a32cd" points="283.079,-233.303 286.579,-243.303 290.079,-233.303 283.079,-233.303"/>
<text text-anchor="middle" x="306.579" y="-200.5" font-family="Helvetica,sans-Serif" font-size="10.00"> clipRect</text>
</g>
<!-- Node8 -->
<g id="node8" class="node"><title>Node8</title>
<polygon fill="white" stroke="#bfbfbf" points="335.079,-243.5 335.079,-262.5 364.079,-262.5 364.079,-243.5 335.079,-243.5"/>
<text text-anchor="middle" x="349.579" y="-250.5" font-family="Helvetica,sans-Serif" font-size="10.00">int</text>
</g>
<!-- Node8&#45;&gt;Node6 -->
<g id="edge11" class="edge"><title>Node8&#45;&gt;Node6</title>
<path fill="none" stroke="#9a32cd" stroke-dasharray="5,2" d="M347.274,-232.973C344.629,-217.676 339.07,-196.291 327.579,-181 321.742,-173.233 312.973,-167.029 305.041,-162.537"/>
<polygon fill="#9a32cd" stroke="#9a32cd" points="343.871,-233.892 348.778,-243.281 350.797,-232.881 343.871,-233.892"/>
<text text-anchor="middle" x="375.579" y="-217" font-family="Helvetica,sans-Serif" font-size="10.00"> width</text>
<text text-anchor="middle" x="375.579" y="-206" font-family="Helvetica,sans-Serif" font-size="10.00">currentFrame</text>
<text text-anchor="middle" x="375.579" y="-195" font-family="Helvetica,sans-Serif" font-size="10.00">height</text>
<text text-anchor="middle" x="375.579" y="-184" font-family="Helvetica,sans-Serif" font-size="10.00">frameCount</text>
</g>
<!-- Node9 -->
<g id="node9" class="node"><title>Node9</title>
<polygon fill="white" stroke="#bfbfbf" points="382.579,-243.5 382.579,-262.5 520.579,-262.5 520.579,-243.5 382.579,-243.5"/>
<text text-anchor="middle" x="451.579" y="-250.5" font-family="Helvetica,sans-Serif" font-size="10.00">shared_ptr&lt; SDL_Texture &gt;</text>
</g>
<!-- Node9&#45;&gt;Node6 -->
<g id="edge12" class="edge"><title>Node9&#45;&gt;Node6</title>
<path fill="none" stroke="#9a32cd" stroke-dasharray="5,2" d="M445.366,-233.915C438.798,-217.556 426.832,-194.087 408.579,-181 378.431,-159.385 334.125,-154.6 308.026,-153.804"/>
<polygon fill="#9a32cd" stroke="#9a32cd" points="442.149,-235.304 448.915,-243.457 448.71,-232.864 442.149,-235.304"/>
<text text-anchor="middle" x="457.579" y="-200.5" font-family="Helvetica,sans-Serif" font-size="10.00"> texture</text>
</g>
<!-- Node10 -->
<g id="node10" class="node"><title>Node10</title>
<polygon fill="white" stroke="#bfbfbf" points="275.079,-67.5 275.079,-86.5 310.079,-86.5 310.079,-67.5 275.079,-67.5"/>
<text text-anchor="middle" x="292.579" y="-74.5" font-family="Helvetica,sans-Serif" font-size="10.00">bool</text>
</g>
<!-- Node10&#45;&gt;Node1 -->
<g id="edge13" class="edge"><title>Node10&#45;&gt;Node1</title>
<path fill="none" stroke="#9a32cd" stroke-dasharray="5,2" d="M279.859,-59.2396C273.542,-51.8706 265.383,-43.6304 256.579,-38 238.178,-26.2329 214.096,-19.0169 197.18,-15.0405"/>
<polygon fill="#9a32cd" stroke="#9a32cd" points="277.349,-61.7024 286.356,-67.2814 282.794,-57.3033 277.349,-61.7024"/>
<text text-anchor="middle" x="301.079" y="-41" font-family="Helvetica,sans-Serif" font-size="10.00"> targetsPlayer</text>
</g>
</g>
</svg>
