<?xml version="1.0" encoding="UTF-8" standalone="no"?>
<!DOCTYPE svg PUBLIC "-//W3C//DTD SVG 1.1//EN"
 "http://www.w3.org/Graphics/SVG/1.1/DTD/svg11.dtd">
<!-- Generated by graphviz version 2.38.0 (20140413.2041)
 -->
<!-- Title: Engine/include/Color.h Pages: 1 -->
<svg width="1421pt" height="420pt"
 viewBox="0.00 0.00 1420.50 420.00" xmlns="http://www.w3.org/2000/svg" xmlns:xlink="http://www.w3.org/1999/xlink">
<g id="graph0" class="graph" transform="scale(1 1) rotate(0) translate(4 416)">
<title>Engine/include/Color.h</title>
<polygon fill="white" stroke="none" points="-4,4 -4,-416 1416.5,-416 1416.5,4 -4,4"/>
<!-- Node1 -->
<g id="node1" class="node"><title>Node1</title>
<polygon fill="#bfbfbf" stroke="black" points="596,-392.5 596,-411.5 711,-411.5 711,-392.5 596,-392.5"/>
<text text-anchor="middle" x="653.5" y="-399.5" font-family="Helvetica,sans-Serif" font-size="10.00">Engine/include/Color.h</text>
</g>
<!-- Node2 -->
<g id="node2" class="node"><title>Node2</title>
<g id="a_node2"><a xlink:href="Sprite_8h.html" target="_top" xlink:title="Engine/include/Sprite.h">
<polygon fill="white" stroke="black" points="530,-336.5 530,-355.5 647,-355.5 647,-336.5 530,-336.5"/>
<text text-anchor="middle" x="588.5" y="-343.5" font-family="Helvetica,sans-Serif" font-size="10.00">Engine/include/Sprite.h</text>
</a>
</g>
</g>
<!-- Node1&#45;&gt;Node2 -->
<g id="edge1" class="edge"><title>Node1&#45;&gt;Node2</title>
<path fill="none" stroke="midnightblue" d="M635.227,-385.82C623.582,-376.145 608.901,-363.948 599.133,-355.834"/>
<polygon fill="midnightblue" stroke="midnightblue" points="633.128,-388.626 643.057,-392.324 637.601,-383.242 633.128,-388.626"/>
</g>
<!-- Node29 -->
<g id="node29" class="node"><title>Node29</title>
<g id="a_node29"><a xlink:href="Color_8cpp.html" target="_top" xlink:title="Engine/src/Color.cpp">
<polygon fill="white" stroke="black" points="665.5,-336.5 665.5,-355.5 773.5,-355.5 773.5,-336.5 665.5,-336.5"/>
<text text-anchor="middle" x="719.5" y="-343.5" font-family="Helvetica,sans-Serif" font-size="10.00">Engine/src/Color.cpp</text>
</a>
</g>
</g>
<!-- Node1&#45;&gt;Node29 -->
<g id="edge44" class="edge"><title>Node1&#45;&gt;Node29</title>
<path fill="none" stroke="midnightblue" d="M672.054,-385.82C683.878,-376.145 698.786,-363.948 708.703,-355.834"/>
<polygon fill="midnightblue" stroke="midnightblue" points="669.627,-383.283 664.104,-392.324 674.06,-388.7 669.627,-383.283"/>
</g>
<!-- Node3 -->
<g id="node3" class="node"><title>Node3</title>
<g id="a_node3"><a xlink:href="Animation_8h.html" target="_top" xlink:title="Engine/include/Animation.h">
<polygon fill="white" stroke="black" points="0,-280.5 0,-299.5 135,-299.5 135,-280.5 0,-280.5"/>
<text text-anchor="middle" x="67.5" y="-287.5" font-family="Helvetica,sans-Serif" font-size="10.00">Engine/include/Animation.h</text>
</a>
</g>
</g>
<!-- Node2&#45;&gt;Node3 -->
<g id="edge2" class="edge"><title>Node2&#45;&gt;Node3</title>
<path fill="none" stroke="midnightblue" d="M519.697,-338.101C433.254,-329.398 280.364,-313.889 149.5,-300 144.8,-299.501 139.95,-298.981 135.065,-298.454"/>
<polygon fill="midnightblue" stroke="midnightblue" points="519.604,-341.61 529.904,-339.128 520.305,-334.645 519.604,-341.61"/>
</g>
<!-- Node5 -->
<g id="node5" class="node"><title>Node5</title>
<g id="a_node5"><a xlink:href="Tileset_8h.html" target="_top" xlink:title="Engine/include/Tileset.h">
<polygon fill="white" stroke="black" points="528,-280.5 528,-299.5 649,-299.5 649,-280.5 528,-280.5"/>
<text text-anchor="middle" x="588.5" y="-287.5" font-family="Helvetica,sans-Serif" font-size="10.00">Engine/include/Tileset.h</text>
</a>
</g>
</g>
<!-- Node2&#45;&gt;Node5 -->
<g id="edge4" class="edge"><title>Node2&#45;&gt;Node5</title>
<path fill="none" stroke="midnightblue" d="M588.5,-325.805C588.5,-316.91 588.5,-306.78 588.5,-299.751"/>
<polygon fill="midnightblue" stroke="midnightblue" points="585,-326.083 588.5,-336.083 592,-326.083 585,-326.083"/>
</g>
<!-- Node9 -->
<g id="node9" class="node"><title>Node9</title>
<g id="a_node9"><a xlink:href="StageState_8h.html" target="_top" xlink:title="Game/include/StageState.h">
<polygon fill="white" stroke="black" points="192,-112.5 192,-131.5 329,-131.5 329,-112.5 192,-112.5"/>
<text text-anchor="middle" x="260.5" y="-119.5" font-family="Helvetica,sans-Serif" font-size="10.00">Game/include/StageState.h</text>
</a>
</g>
</g>
<!-- Node2&#45;&gt;Node9 -->
<g id="edge38" class="edge"><title>Node2&#45;&gt;Node9</title>
<path fill="none" stroke="midnightblue" d="M544.037,-333.845C489.173,-318.831 394.347,-288.735 322.5,-244 291.535,-224.72 277.551,-221.227 262.5,-188 254.115,-169.488 256.533,-144.874 258.707,-131.89"/>
<polygon fill="midnightblue" stroke="midnightblue" points="543.236,-337.254 553.802,-336.473 545.055,-330.494 543.236,-337.254"/>
</g>
<!-- Node10 -->
<g id="node10" class="node"><title>Node10</title>
<g id="a_node10"><a xlink:href="EndState_8h.html" target="_top" xlink:title="Game/include/EndState.h">
<polygon fill="white" stroke="black" points="196.5,-56.5 196.5,-75.5 324.5,-75.5 324.5,-56.5 196.5,-56.5"/>
<text text-anchor="middle" x="260.5" y="-63.5" font-family="Helvetica,sans-Serif" font-size="10.00">Game/include/EndState.h</text>
</a>
</g>
</g>
<!-- Node2&#45;&gt;Node10 -->
<g id="edge37" class="edge"><title>Node2&#45;&gt;Node10</title>
<path fill="none" stroke="midnightblue" d="M519.635,-341.364C399.317,-333.112 163.5,-307.669 163.5,-235 163.5,-235 163.5,-235 163.5,-177 163.5,-146.902 163.905,-135.667 182.5,-112 196.119,-94.6666 218.398,-82.7758 235.666,-75.5905"/>
<polygon fill="midnightblue" stroke="midnightblue" points="519.642,-344.872 529.852,-342.042 520.106,-337.888 519.642,-344.872"/>
</g>
<!-- Node18 -->
<g id="node18" class="node"><title>Node18</title>
<g id="a_node18"><a xlink:href="Enemy_8h.html" target="_top" xlink:title="Game/include/Enemy.h">
<polygon fill="white" stroke="black" points="956,-168.5 956,-187.5 1075,-187.5 1075,-168.5 956,-168.5"/>
<text text-anchor="middle" x="1015.5" y="-175.5" font-family="Helvetica,sans-Serif" font-size="10.00">Game/include/Enemy.h</text>
</a>
</g>
</g>
<!-- Node2&#45;&gt;Node18 -->
<g id="edge39" class="edge"><title>Node2&#45;&gt;Node18</title>
<path fill="none" stroke="midnightblue" d="M619.899,-332.793C702.28,-300.767 923.113,-214.916 993.574,-187.524"/>
<polygon fill="midnightblue" stroke="midnightblue" points="618.61,-329.539 610.558,-336.425 621.147,-336.063 618.61,-329.539"/>
</g>
<!-- Node22 -->
<g id="node22" class="node"><title>Node22</title>
<g id="a_node22"><a xlink:href="Tower_8h.html" target="_top" xlink:title="Game/include/Tower.h">
<polygon fill="white" stroke="black" points="478,-168.5 478,-187.5 593,-187.5 593,-168.5 478,-168.5"/>
<text text-anchor="middle" x="535.5" y="-175.5" font-family="Helvetica,sans-Serif" font-size="10.00">Game/include/Tower.h</text>
</a>
</g>
</g>
<!-- Node2&#45;&gt;Node22 -->
<g id="edge43" class="edge"><title>Node2&#45;&gt;Node22</title>
<path fill="none" stroke="midnightblue" d="M554.676,-331.964C540.862,-324.764 526.319,-314.321 518.5,-300 497.865,-262.203 520.645,-208.265 530.962,-187.551"/>
<polygon fill="midnightblue" stroke="midnightblue" points="553.499,-335.281 564.031,-336.438 556.519,-328.966 553.499,-335.281"/>
</g>
<!-- Node24 -->
<g id="node24" class="node"><title>Node24</title>
<g id="a_node24"><a xlink:href="HitPoints_8h.html" target="_top" xlink:title="Engine/include/HitPoints.h">
<polygon fill="white" stroke="black" points="988.5,-280.5 988.5,-299.5 1120.5,-299.5 1120.5,-280.5 988.5,-280.5"/>
<text text-anchor="middle" x="1054.5" y="-287.5" font-family="Helvetica,sans-Serif" font-size="10.00">Engine/include/HitPoints.h</text>
</a>
</g>
</g>
<!-- Node2&#45;&gt;Node24 -->
<g id="edge33" class="edge"><title>Node2&#45;&gt;Node24</title>
<path fill="none" stroke="midnightblue" d="M657.087,-335.949C780.28,-320.9 911.316,-306.435 988.258,-298.1"/>
<polygon fill="midnightblue" stroke="midnightblue" points="656.597,-332.483 647.096,-337.173 657.448,-339.431 656.597,-332.483"/>
</g>
<!-- Node26 -->
<g id="node26" class="node"><title>Node26</title>
<g id="a_node26"><a xlink:href="Sprite_8cpp.html" target="_top" xlink:title="Engine/src/Sprite.cpp">
<polygon fill="white" stroke="black" points="1302.5,-280.5 1302.5,-299.5 1412.5,-299.5 1412.5,-280.5 1302.5,-280.5"/>
<text text-anchor="middle" x="1357.5" y="-287.5" font-family="Helvetica,sans-Serif" font-size="10.00">Engine/src/Sprite.cpp</text>
</a>
</g>
</g>
<!-- Node2&#45;&gt;Node26 -->
<g id="edge36" class="edge"><title>Node2&#45;&gt;Node26</title>
<path fill="none" stroke="midnightblue" d="M657.24,-336.013C940.538,-309.803 1014.61,-327.442 1293.5,-300 1296.4,-299.714 1299.38,-299.394 1302.38,-299.049"/>
<polygon fill="midnightblue" stroke="midnightblue" points="656.704,-332.547 647.074,-336.964 657.356,-339.517 656.704,-332.547"/>
</g>
<!-- Node27 -->
<g id="node27" class="node"><title>Node27</title>
<g id="a_node27"><a xlink:href="TitleState_8h.html" target="_top" xlink:title="Game/include/TitleState.h">
<polygon fill="white" stroke="black" points="1154.5,-280.5 1154.5,-299.5 1284.5,-299.5 1284.5,-280.5 1154.5,-280.5"/>
<text text-anchor="middle" x="1219.5" y="-287.5" font-family="Helvetica,sans-Serif" font-size="10.00">Game/include/TitleState.h</text>
</a>
</g>
</g>
<!-- Node2&#45;&gt;Node27 -->
<g id="edge40" class="edge"><title>Node2&#45;&gt;Node27</title>
<path fill="none" stroke="midnightblue" d="M657.232,-335.984C867.899,-314.29 922.764,-318.202 1129.5,-300 1137.48,-299.298 1145.85,-298.518 1154.14,-297.72"/>
<polygon fill="midnightblue" stroke="midnightblue" points="656.667,-332.523 647.081,-337.036 657.389,-339.486 656.667,-332.523"/>
</g>
<!-- Node4 -->
<g id="node4" class="node"><title>Node4</title>
<g id="a_node4"><a xlink:href="Animation_8cpp.html" target="_top" xlink:title="Engine/src/Animation.cpp">
<polygon fill="white" stroke="black" points="3.5,-224.5 3.5,-243.5 131.5,-243.5 131.5,-224.5 3.5,-224.5"/>
<text text-anchor="middle" x="67.5" y="-231.5" font-family="Helvetica,sans-Serif" font-size="10.00">Engine/src/Animation.cpp</text>
</a>
</g>
</g>
<!-- Node3&#45;&gt;Node4 -->
<g id="edge3" class="edge"><title>Node3&#45;&gt;Node4</title>
<path fill="none" stroke="midnightblue" d="M67.5,-269.805C67.5,-260.91 67.5,-250.78 67.5,-243.751"/>
<polygon fill="midnightblue" stroke="midnightblue" points="64.0001,-270.083 67.5,-280.083 71.0001,-270.083 64.0001,-270.083"/>
</g>
<!-- Node6 -->
<g id="node6" class="node"><title>Node6</title>
<g id="a_node6"><a xlink:href="TileMap_8h.html" target="_top" xlink:title="Engine/include/TileMap.h">
<polygon fill="white" stroke="black" points="659.5,-224.5 659.5,-243.5 785.5,-243.5 785.5,-224.5 659.5,-224.5"/>
<text text-anchor="middle" x="722.5" y="-231.5" font-family="Helvetica,sans-Serif" font-size="10.00">Engine/include/TileMap.h</text>
</a>
</g>
</g>
<!-- Node5&#45;&gt;Node6 -->
<g id="edge5" class="edge"><title>Node5&#45;&gt;Node6</title>
<path fill="none" stroke="midnightblue" d="M619.177,-276.638C644.323,-266.504 679.254,-252.427 701.367,-243.516"/>
<polygon fill="midnightblue" stroke="midnightblue" points="617.7,-273.459 609.733,-280.444 620.316,-279.952 617.7,-273.459"/>
</g>
<!-- Node5&#45;&gt;Node9 -->
<g id="edge32" class="edge"><title>Node5&#45;&gt;Node9</title>
<path fill="none" stroke="midnightblue" d="M517.817,-285.073C447.162,-277.312 340.251,-254.514 277.5,-188 262.772,-172.389 260.433,-145.64 260.283,-131.828"/>
<polygon fill="midnightblue" stroke="midnightblue" points="517.664,-288.576 527.969,-286.113 518.377,-281.612 517.664,-288.576"/>
</g>
<!-- Node23 -->
<g id="node23" class="node"><title>Node23</title>
<g id="a_node23"><a xlink:href="Tileset_8cpp.html" target="_top" xlink:title="Engine/src/Tileset.cpp">
<polygon fill="white" stroke="black" points="527.5,-224.5 527.5,-243.5 641.5,-243.5 641.5,-224.5 527.5,-224.5"/>
<text text-anchor="middle" x="584.5" y="-231.5" font-family="Helvetica,sans-Serif" font-size="10.00">Engine/src/Tileset.cpp</text>
</a>
</g>
</g>
<!-- Node5&#45;&gt;Node23 -->
<g id="edge31" class="edge"><title>Node5&#45;&gt;Node23</title>
<path fill="none" stroke="midnightblue" d="M587.1,-270.101C586.436,-261.136 585.675,-250.858 585.148,-243.751"/>
<polygon fill="midnightblue" stroke="midnightblue" points="583.61,-270.369 587.839,-280.083 590.591,-269.852 583.61,-270.369"/>
</g>
<!-- Node7 -->
<g id="node7" class="node"><title>Node7</title>
<g id="a_node7"><a xlink:href="DragAndDrop_8h.html" target="_top" xlink:title="Engine/include/DragAndDrop.h">
<polygon fill="white" stroke="black" points="309,-168.5 309,-187.5 460,-187.5 460,-168.5 309,-168.5"/>
<text text-anchor="middle" x="384.5" y="-175.5" font-family="Helvetica,sans-Serif" font-size="10.00">Engine/include/DragAndDrop.h</text>
</a>
</g>
</g>
<!-- Node6&#45;&gt;Node7 -->
<g id="edge6" class="edge"><title>Node6&#45;&gt;Node7</title>
<path fill="none" stroke="midnightblue" d="M658.992,-222.854C595.13,-212.651 497.778,-197.098 437.807,-187.516"/>
<polygon fill="midnightblue" stroke="midnightblue" points="658.516,-226.322 668.943,-224.444 659.62,-219.41 658.516,-226.322"/>
</g>
<!-- Node6&#45;&gt;Node9 -->
<g id="edge16" class="edge"><title>Node6&#45;&gt;Node9</title>
<path fill="none" stroke="midnightblue" d="M649.158,-224.017C557.43,-216.166 363.214,-228.506 299.5,-188 278.621,-174.726 267.375,-145.893 262.874,-131.512"/>
<polygon fill="midnightblue" stroke="midnightblue" points="648.998,-227.518 659.293,-225.019 649.686,-220.552 648.998,-227.518"/>
</g>
<!-- Node15 -->
<g id="node15" class="node"><title>Node15</title>
<g id="a_node15"><a xlink:href="TileMap_8cpp.html" target="_top" xlink:title="Engine/src/TileMap.cpp">
<polygon fill="white" stroke="black" points="819,-168.5 819,-187.5 938,-187.5 938,-168.5 819,-168.5"/>
<text text-anchor="middle" x="878.5" y="-175.5" font-family="Helvetica,sans-Serif" font-size="10.00">Engine/src/TileMap.cpp</text>
</a>
</g>
</g>
<!-- Node6&#45;&gt;Node15 -->
<g id="edge15" class="edge"><title>Node6&#45;&gt;Node15</title>
<path fill="none" stroke="midnightblue" d="M756.67,-221.172C786.044,-211.004 827.698,-196.585 853.897,-187.516"/>
<polygon fill="midnightblue" stroke="midnightblue" points="755.524,-217.865 747.219,-224.444 757.813,-224.48 755.524,-217.865"/>
</g>
<!-- Node16 -->
<g id="node16" class="node"><title>Node16</title>
<g id="a_node16"><a xlink:href="WaveManager_8h.html" target="_top" xlink:title="Game/include/WaveManager.h">
<polygon fill="white" stroke="black" points="611,-168.5 611,-187.5 762,-187.5 762,-168.5 611,-168.5"/>
<text text-anchor="middle" x="686.5" y="-175.5" font-family="Helvetica,sans-Serif" font-size="10.00">Game/include/WaveManager.h</text>
</a>
</g>
</g>
<!-- Node6&#45;&gt;Node16 -->
<g id="edge17" class="edge"><title>Node6&#45;&gt;Node16</title>
<path fill="none" stroke="midnightblue" d="M710.877,-215.566C704.683,-206.275 697.332,-195.248 692.334,-187.751"/>
<polygon fill="midnightblue" stroke="midnightblue" points="708.096,-217.704 716.555,-224.083 713.92,-213.821 708.096,-217.704"/>
</g>
<!-- Node17 -->
<g id="node17" class="node"><title>Node17</title>
<g id="a_node17"><a xlink:href="WaveManager_8cpp.html" target="_top" xlink:title="Game/src/WaveManager.cpp">
<polygon fill="white" stroke="black" points="724.5,-56.5 724.5,-75.5 868.5,-75.5 868.5,-56.5 724.5,-56.5"/>
<text text-anchor="middle" x="796.5" y="-63.5" font-family="Helvetica,sans-Serif" font-size="10.00">Game/src/WaveManager.cpp</text>
</a>
</g>
</g>
<!-- Node6&#45;&gt;Node17 -->
<g id="edge30" class="edge"><title>Node6&#45;&gt;Node17</title>
<path fill="none" stroke="midnightblue" d="M743.63,-218.009C753.228,-210.133 763.89,-199.689 770.5,-188 791.97,-150.033 795.739,-96.1944 796.379,-75.5294"/>
<polygon fill="midnightblue" stroke="midnightblue" points="741.356,-215.343 735.598,-224.237 745.645,-220.876 741.356,-215.343"/>
</g>
<!-- Node6&#45;&gt;Node18 -->
<g id="edge20" class="edge"><title>Node6&#45;&gt;Node18</title>
<path fill="none" stroke="midnightblue" d="M778.926,-222.601C834.299,-212.395 917.731,-197.019 969.29,-187.516"/>
<polygon fill="midnightblue" stroke="midnightblue" points="778.127,-219.189 768.927,-224.444 779.395,-226.073 778.127,-219.189"/>
</g>
<!-- Node6&#45;&gt;Node22 -->
<g id="edge27" class="edge"><title>Node6&#45;&gt;Node22</title>
<path fill="none" stroke="midnightblue" d="M682.91,-221.568C647.634,-211.381 596.806,-196.703 564.992,-187.516"/>
<polygon fill="midnightblue" stroke="midnightblue" points="682.291,-225.032 692.869,-224.444 684.233,-218.307 682.291,-225.032"/>
</g>
<!-- Node8 -->
<g id="node8" class="node"><title>Node8</title>
<g id="a_node8"><a xlink:href="DragAndDrop_8cpp.html" target="_top" xlink:title="Engine/src/DragAndDrop.cpp">
<polygon fill="white" stroke="black" points="347.5,-112.5 347.5,-131.5 491.5,-131.5 491.5,-112.5 347.5,-112.5"/>
<text text-anchor="middle" x="419.5" y="-119.5" font-family="Helvetica,sans-Serif" font-size="10.00">Engine/src/DragAndDrop.cpp</text>
</a>
</g>
</g>
<!-- Node7&#45;&gt;Node8 -->
<g id="edge7" class="edge"><title>Node7&#45;&gt;Node8</title>
<path fill="none" stroke="midnightblue" d="M395.8,-159.566C401.822,-150.275 408.969,-139.248 413.828,-131.751"/>
<polygon fill="midnightblue" stroke="midnightblue" points="392.781,-157.788 390.28,-168.083 398.656,-161.595 392.781,-157.788"/>
</g>
<!-- Node7&#45;&gt;Node9 -->
<g id="edge8" class="edge"><title>Node7&#45;&gt;Node9</title>
<path fill="none" stroke="midnightblue" d="M355.493,-164.368C332.271,-154.255 300.337,-140.349 280.056,-131.516"/>
<polygon fill="midnightblue" stroke="midnightblue" points="354.286,-167.66 364.852,-168.444 357.081,-161.242 354.286,-167.66"/>
</g>
<!-- Node14 -->
<g id="node14" class="node"><title>Node14</title>
<g id="a_node14"><a xlink:href="Tower_8cpp.html" target="_top" xlink:title="Game/src/Tower.cpp">
<polygon fill="white" stroke="black" points="509.5,-112.5 509.5,-131.5 617.5,-131.5 617.5,-112.5 509.5,-112.5"/>
<text text-anchor="middle" x="563.5" y="-119.5" font-family="Helvetica,sans-Serif" font-size="10.00">Game/src/Tower.cpp</text>
</a>
</g>
</g>
<!-- Node7&#45;&gt;Node14 -->
<g id="edge14" class="edge"><title>Node7&#45;&gt;Node14</title>
<path fill="none" stroke="midnightblue" d="M422.831,-165.436C456.58,-155.255 504.947,-140.664 535.27,-131.516"/>
<polygon fill="midnightblue" stroke="midnightblue" points="421.426,-162.204 412.863,-168.444 423.448,-168.906 421.426,-162.204"/>
</g>
<!-- Node9&#45;&gt;Node10 -->
<g id="edge9" class="edge"><title>Node9&#45;&gt;Node10</title>
<path fill="none" stroke="midnightblue" d="M254.028,-102.101C253.396,-93.1357 253.843,-82.8579 255.369,-75.7511"/>
<polygon fill="midnightblue" stroke="midnightblue" points="250.566,-102.622 255.334,-112.083 257.507,-101.713 250.566,-102.622"/>
</g>
<!-- Node12 -->
<g id="node12" class="node"><title>Node12</title>
<g id="a_node12"><a xlink:href="StageState_8cpp.html" target="_top" xlink:title="Game/src/StageState.cpp">
<polygon fill="white" stroke="black" points="576.5,-56.5 576.5,-75.5 706.5,-75.5 706.5,-56.5 576.5,-56.5"/>
<text text-anchor="middle" x="641.5" y="-63.5" font-family="Helvetica,sans-Serif" font-size="10.00">Game/src/StageState.cpp</text>
</a>
</g>
</g>
<!-- Node9&#45;&gt;Node12 -->
<g id="edge12" class="edge"><title>Node9&#45;&gt;Node12</title>
<path fill="none" stroke="midnightblue" d="M331.201,-110.979C403.17,-100.779 513.532,-85.1372 581.412,-75.5164"/>
<polygon fill="midnightblue" stroke="midnightblue" points="330.28,-107.575 320.871,-112.444 331.263,-114.506 330.28,-107.575"/>
</g>
<!-- Node13 -->
<g id="node13" class="node"><title>Node13</title>
<g id="a_node13"><a xlink:href="TitleState_8cpp.html" target="_top" xlink:title="Game/src/TitleState.cpp">
<polygon fill="white" stroke="black" points="887,-56.5 887,-75.5 1010,-75.5 1010,-56.5 887,-56.5"/>
<text text-anchor="middle" x="948.5" y="-63.5" font-family="Helvetica,sans-Serif" font-size="10.00">Game/src/TitleState.cpp</text>
</a>
</g>
</g>
<!-- Node9&#45;&gt;Node13 -->
<g id="edge13" class="edge"><title>Node9&#45;&gt;Node13</title>
<path fill="none" stroke="midnightblue" d="M339.462,-111.959C579.3,-90.4703 641.792,-98.7904 877.5,-76 880.592,-75.7011 883.757,-75.3747 886.951,-75.029"/>
<polygon fill="midnightblue" stroke="midnightblue" points="339.029,-108.483 329.385,-112.869 339.659,-115.455 339.029,-108.483"/>
</g>
<!-- Node10&#45;&gt;Node9 -->
<g id="edge10" class="edge"><title>Node10&#45;&gt;Node9</title>
<path fill="none" stroke="midnightblue" d="M266.958,-85.6911C267.606,-94.6353 267.176,-104.927 265.666,-112.083"/>
<polygon fill="midnightblue" stroke="midnightblue" points="270.423,-85.2002 265.631,-75.7511 263.485,-86.1262 270.423,-85.2002"/>
</g>
<!-- Node11 -->
<g id="node11" class="node"><title>Node11</title>
<g id="a_node11"><a xlink:href="EndState_8cpp.html" target="_top" xlink:title="Game/src/EndState.cpp">
<polygon fill="white" stroke="black" points="199.5,-0.5 199.5,-19.5 321.5,-19.5 321.5,-0.5 199.5,-0.5"/>
<text text-anchor="middle" x="260.5" y="-7.5" font-family="Helvetica,sans-Serif" font-size="10.00">Game/src/EndState.cpp</text>
</a>
</g>
</g>
<!-- Node10&#45;&gt;Node11 -->
<g id="edge11" class="edge"><title>Node10&#45;&gt;Node11</title>
<path fill="none" stroke="midnightblue" d="M260.5,-45.8045C260.5,-36.9102 260.5,-26.7798 260.5,-19.7511"/>
<polygon fill="midnightblue" stroke="midnightblue" points="257,-46.083 260.5,-56.083 264,-46.083 257,-46.083"/>
</g>
<!-- Node16&#45;&gt;Node9 -->
<g id="edge18" class="edge"><title>Node16&#45;&gt;Node9</title>
<path fill="none" stroke="midnightblue" d="M608.928,-167.167C528.498,-156.972 404.049,-141.196 327.685,-131.516"/>
<polygon fill="midnightblue" stroke="midnightblue" points="608.638,-170.658 618.999,-168.444 609.519,-163.714 608.638,-170.658"/>
</g>
<!-- Node16&#45;&gt;Node17 -->
<g id="edge19" class="edge"><title>Node16&#45;&gt;Node17</title>
<path fill="none" stroke="midnightblue" d="M702.295,-161.205C725.873,-137.627 769.471,-94.0294 787.909,-75.5914"/>
<polygon fill="midnightblue" stroke="midnightblue" points="699.728,-158.823 695.132,-168.368 704.677,-163.772 699.728,-158.823"/>
</g>
<!-- Node18&#45;&gt;Node12 -->
<g id="edge25" class="edge"><title>Node18&#45;&gt;Node12</title>
<path fill="none" stroke="midnightblue" d="M965.74,-166.212C928.309,-157.78 875.878,-145.291 830.5,-132 769.728,-114.2 699.551,-88.7451 664.264,-75.5957"/>
<polygon fill="midnightblue" stroke="midnightblue" points="965.359,-169.713 975.882,-168.48 966.887,-162.882 965.359,-169.713"/>
</g>
<!-- Node18&#45;&gt;Node17 -->
<g id="edge26" class="edge"><title>Node18&#45;&gt;Node17</title>
<path fill="none" stroke="midnightblue" d="M949.779,-166.286C920.376,-159.505 886.181,-148.747 858.5,-132 833.682,-116.985 812.198,-89.4757 802.305,-75.5541"/>
<polygon fill="midnightblue" stroke="midnightblue" points="949.032,-169.705 959.55,-168.436 950.536,-162.868 949.032,-169.705"/>
</g>
<!-- Node19 -->
<g id="node19" class="node"><title>Node19</title>
<g id="a_node19"><a xlink:href="GameResources_8h.html" target="_top" xlink:title="Game/include/GameResources.h">
<polygon fill="white" stroke="black" points="868,-112.5 868,-131.5 1029,-131.5 1029,-112.5 868,-112.5"/>
<text text-anchor="middle" x="948.5" y="-119.5" font-family="Helvetica,sans-Serif" font-size="10.00">Game/include/GameResources.h</text>
</a>
</g>
</g>
<!-- Node18&#45;&gt;Node19 -->
<g id="edge21" class="edge"><title>Node18&#45;&gt;Node19</title>
<path fill="none" stroke="midnightblue" d="M996.665,-161.82C984.662,-152.145 969.528,-139.948 959.461,-131.834"/>
<polygon fill="midnightblue" stroke="midnightblue" points="994.753,-164.774 1004.74,-168.324 999.146,-159.324 994.753,-164.774"/>
</g>
<!-- Node21 -->
<g id="node21" class="node"><title>Node21</title>
<g id="a_node21"><a xlink:href="Enemy_8cpp.html" target="_top" xlink:title="Game/src/Enemy.cpp">
<polygon fill="white" stroke="black" points="1047.5,-112.5 1047.5,-131.5 1159.5,-131.5 1159.5,-112.5 1047.5,-112.5"/>
<text text-anchor="middle" x="1103.5" y="-119.5" font-family="Helvetica,sans-Serif" font-size="10.00">Game/src/Enemy.cpp</text>
</a>
</g>
</g>
<!-- Node18&#45;&gt;Node21 -->
<g id="edge24" class="edge"><title>Node18&#45;&gt;Node21</title>
<path fill="none" stroke="midnightblue" d="M1038.48,-162.901C1054.61,-152.999 1075.68,-140.071 1089.4,-131.655"/>
<polygon fill="midnightblue" stroke="midnightblue" points="1036.33,-160.111 1029.64,-168.324 1039.99,-166.077 1036.33,-160.111"/>
</g>
<!-- Node19&#45;&gt;Node17 -->
<g id="edge23" class="edge"><title>Node19&#45;&gt;Node17</title>
<path fill="none" stroke="midnightblue" d="M914.832,-109.039C886.232,-98.8786 845.888,-84.5457 820.472,-75.5164"/>
<polygon fill="midnightblue" stroke="midnightblue" points="913.82,-112.394 924.415,-112.444 916.164,-105.798 913.82,-112.394"/>
</g>
<!-- Node20 -->
<g id="node20" class="node"><title>Node20</title>
<g id="a_node20"><a xlink:href="GameResources_8cpp.html" target="_top" xlink:title="Game/src/GameResources.cpp">
<polygon fill="white" stroke="black" points="1028,-56.5 1028,-75.5 1183,-75.5 1183,-56.5 1028,-56.5"/>
<text text-anchor="middle" x="1105.5" y="-63.5" font-family="Helvetica,sans-Serif" font-size="10.00">Game/src/GameResources.cpp</text>
</a>
</g>
</g>
<!-- Node19&#45;&gt;Node20 -->
<g id="edge22" class="edge"><title>Node19&#45;&gt;Node20</title>
<path fill="none" stroke="midnightblue" d="M982.889,-109.172C1012.45,-99.0039 1054.37,-84.5852 1080.74,-75.5164"/>
<polygon fill="midnightblue" stroke="midnightblue" points="981.695,-105.881 973.377,-112.444 983.972,-112.501 981.695,-105.881"/>
</g>
<!-- Node22&#45;&gt;Node12 -->
<g id="edge28" class="edge"><title>Node22&#45;&gt;Node12</title>
<path fill="none" stroke="midnightblue" d="M578.155,-164.883C595.517,-157.913 614.323,-147.396 626.5,-132 639.719,-115.286 641.685,-89.0194 641.745,-75.5664"/>
<polygon fill="midnightblue" stroke="midnightblue" points="576.861,-161.63 568.71,-168.398 579.303,-168.19 576.861,-161.63"/>
</g>
<!-- Node22&#45;&gt;Node14 -->
<g id="edge29" class="edge"><title>Node22&#45;&gt;Node14</title>
<path fill="none" stroke="midnightblue" d="M544.842,-158.983C549.595,-149.817 555.156,-139.092 558.962,-131.751"/>
<polygon fill="midnightblue" stroke="midnightblue" points="541.62,-157.594 540.124,-168.083 547.834,-160.817 541.62,-157.594"/>
</g>
<!-- Node24&#45;&gt;Node21 -->
<g id="edge35" class="edge"><title>Node24&#45;&gt;Node21</title>
<path fill="none" stroke="midnightblue" d="M1059.88,-270.52C1063.67,-257.508 1068.88,-239.683 1073.5,-224 1083.58,-189.785 1095.71,-149.093 1100.92,-131.643"/>
<polygon fill="midnightblue" stroke="midnightblue" points="1056.51,-269.585 1057.07,-280.165 1063.23,-271.543 1056.51,-269.585"/>
</g>
<!-- Node25 -->
<g id="node25" class="node"><title>Node25</title>
<g id="a_node25"><a xlink:href="HitPoints_8cpp.html" target="_top" xlink:title="Engine/src/HitPoints.cpp">
<polygon fill="white" stroke="black" points="1083,-224.5 1083,-243.5 1208,-243.5 1208,-224.5 1083,-224.5"/>
<text text-anchor="middle" x="1145.5" y="-231.5" font-family="Helvetica,sans-Serif" font-size="10.00">Engine/src/HitPoints.cpp</text>
</a>
</g>
</g>
<!-- Node24&#45;&gt;Node25 -->
<g id="edge34" class="edge"><title>Node24&#45;&gt;Node25</title>
<path fill="none" stroke="midnightblue" d="M1077.79,-275.177C1094.54,-265.241 1116.6,-252.149 1130.92,-243.655"/>
<polygon fill="midnightblue" stroke="midnightblue" points="1075.93,-272.211 1069.12,-280.324 1079.51,-278.231 1075.93,-272.211"/>
</g>
<!-- Node27&#45;&gt;Node13 -->
<g id="edge42" class="edge"><title>Node27&#45;&gt;Node13</title>
<path fill="none" stroke="midnightblue" d="M1220.44,-269.782C1221.08,-232.636 1216.59,-151.196 1168.5,-112 1155.77,-101.625 1064.49,-85.4121 1003.57,-75.5414"/>
<polygon fill="midnightblue" stroke="midnightblue" points="1216.93,-270.067 1220.1,-280.177 1223.92,-270.297 1216.93,-270.067"/>
</g>
<!-- Node28 -->
<g id="node28" class="node"><title>Node28</title>
<g id="a_node28"><a xlink:href="main_8cpp.html" target="_top" xlink:title="Game/src/main.cpp">
<polygon fill="white" stroke="black" points="1264.5,-224.5 1264.5,-243.5 1366.5,-243.5 1366.5,-224.5 1264.5,-224.5"/>
<text text-anchor="middle" x="1315.5" y="-231.5" font-family="Helvetica,sans-Serif" font-size="10.00">Game/src/main.cpp</text>
</a>
</g>
</g>
<!-- Node27&#45;&gt;Node28 -->
<g id="edge41" class="edge"><title>Node27&#45;&gt;Node28</title>
<path fill="none" stroke="midnightblue" d="M1244.07,-275.177C1261.74,-265.241 1285.01,-252.149 1300.11,-243.655"/>
<polygon fill="midnightblue" stroke="midnightblue" points="1241.92,-272.371 1234.92,-280.324 1245.36,-278.472 1241.92,-272.371"/>
</g>
</g>
</svg>
