<?xml version="1.0" encoding="UTF-8" standalone="no"?>
<!DOCTYPE svg PUBLIC "-//W3C//DTD SVG 1.1//EN"
 "http://www.w3.org/Graphics/SVG/1.1/DTD/svg11.dtd">
<!-- Generated by graphviz version 2.38.0 (20140413.2041)
 -->
<!-- Title: Engine/src/Component.cpp Pages: 1 -->
<svg width="361pt" height="252pt"
 viewBox="0.00 0.00 361.00 252.00" xmlns="http://www.w3.org/2000/svg" xmlns:xlink="http://www.w3.org/1999/xlink">
<g id="graph0" class="graph" transform="scale(1 1) rotate(0) translate(4 248)">
<title>Engine/src/Component.cpp</title>
<polygon fill="white" stroke="none" points="-4,4 -4,-248 357,-248 357,4 -4,4"/>
<!-- Node0 -->
<g id="node1" class="node"><title>Node0</title>
<polygon fill="#bfbfbf" stroke="black" points="103,-224.5 103,-243.5 238,-243.5 238,-224.5 103,-224.5"/>
<text text-anchor="middle" x="170.5" y="-231.5" font-family="Helvetica,sans-Serif" font-size="10.00">Engine/src/Component.cpp</text>
</g>
<!-- Node1 -->
<g id="node2" class="node"><title>Node1</title>
<g id="a_node2"><a xlink:href="Component_8h.html" target="_top" xlink:title="Component.h">
<polygon fill="white" stroke="black" points="133,-168.5 133,-187.5 208,-187.5 208,-168.5 133,-168.5"/>
<text text-anchor="middle" x="170.5" y="-175.5" font-family="Helvetica,sans-Serif" font-size="10.00">Component.h</text>
</a>
</g>
</g>
<!-- Node0&#45;&gt;Node1 -->
<g id="edge1" class="edge"><title>Node0&#45;&gt;Node1</title>
<path fill="none" stroke="midnightblue" d="M170.5,-224.083C170.5,-217.006 170.5,-206.861 170.5,-197.986"/>
<polygon fill="midnightblue" stroke="midnightblue" points="174,-197.751 170.5,-187.751 167,-197.751 174,-197.751"/>
</g>
<!-- Node2 -->
<g id="node3" class="node"><title>Node2</title>
<g id="a_node3"><a xlink:href="ComponentType_8h.html" target="_top" xlink:title="ComponentType.h">
<polygon fill="white" stroke="black" points="0,-56.5 0,-75.5 97,-75.5 97,-56.5 0,-56.5"/>
<text text-anchor="middle" x="48.5" y="-63.5" font-family="Helvetica,sans-Serif" font-size="10.00">ComponentType.h</text>
</a>
</g>
</g>
<!-- Node1&#45;&gt;Node2 -->
<g id="edge2" class="edge"><title>Node1&#45;&gt;Node2</title>
<path fill="none" stroke="midnightblue" d="M160.927,-168.368C140.348,-149.814 91.658,-105.913 65.6217,-82.4376"/>
<polygon fill="midnightblue" stroke="midnightblue" points="67.7993,-79.6884 58.0287,-75.5914 63.1118,-84.8872 67.7993,-79.6884"/>
</g>
<!-- Node3 -->
<g id="node4" class="node"><title>Node3</title>
<g id="a_node4"><a xlink:href="GameObject_8h.html" target="_top" xlink:title="GameObject.h">
<polygon fill="white" stroke="black" points="130.5,-112.5 130.5,-131.5 210.5,-131.5 210.5,-112.5 130.5,-112.5"/>
<text text-anchor="middle" x="170.5" y="-119.5" font-family="Helvetica,sans-Serif" font-size="10.00">GameObject.h</text>
</a>
</g>
</g>
<!-- Node1&#45;&gt;Node3 -->
<g id="edge3" class="edge"><title>Node1&#45;&gt;Node3</title>
<path fill="none" stroke="midnightblue" d="M165.334,-168.083C163.824,-160.927 163.394,-150.635 164.042,-141.691"/>
<polygon fill="midnightblue" stroke="midnightblue" points="167.515,-142.126 165.369,-131.751 160.577,-141.2 167.515,-142.126"/>
</g>
<!-- Node3&#45;&gt;Node1 -->
<g id="edge11" class="edge"><title>Node3&#45;&gt;Node1</title>
<path fill="none" stroke="midnightblue" d="M175.631,-131.751C177.157,-138.858 177.604,-149.136 176.972,-158.101"/>
<polygon fill="midnightblue" stroke="midnightblue" points="173.493,-157.713 175.666,-168.083 180.434,-158.622 173.493,-157.713"/>
</g>
<!-- Node3&#45;&gt;Node2 -->
<g id="edge10" class="edge"><title>Node3&#45;&gt;Node2</title>
<path fill="none" stroke="midnightblue" d="M151.169,-112.444C131.18,-103.596 99.7569,-89.6875 76.9361,-79.5865"/>
<polygon fill="midnightblue" stroke="midnightblue" points="78.3018,-76.3635 67.7408,-75.5164 75.4685,-82.7645 78.3018,-76.3635"/>
</g>
<!-- Node4 -->
<g id="node5" class="node"><title>Node4</title>
<polygon fill="white" stroke="#bfbfbf" points="115.5,-56.5 115.5,-75.5 159.5,-75.5 159.5,-56.5 115.5,-56.5"/>
<text text-anchor="middle" x="137.5" y="-63.5" font-family="Helvetica,sans-Serif" font-size="10.00">vector</text>
</g>
<!-- Node3&#45;&gt;Node4 -->
<g id="edge4" class="edge"><title>Node3&#45;&gt;Node4</title>
<path fill="none" stroke="midnightblue" d="M165.051,-112.083C160.486,-104.613 153.832,-93.7244 148.207,-84.5199"/>
<polygon fill="midnightblue" stroke="midnightblue" points="151.049,-82.4588 142.848,-75.7511 145.076,-86.109 151.049,-82.4588"/>
</g>
<!-- Node5 -->
<g id="node6" class="node"><title>Node5</title>
<polygon fill="white" stroke="#bfbfbf" points="177.5,-56.5 177.5,-75.5 229.5,-75.5 229.5,-56.5 177.5,-56.5"/>
<text text-anchor="middle" x="203.5" y="-63.5" font-family="Helvetica,sans-Serif" font-size="10.00">memory</text>
</g>
<!-- Node3&#45;&gt;Node5 -->
<g id="edge5" class="edge"><title>Node3&#45;&gt;Node5</title>
<path fill="none" stroke="midnightblue" d="M175.949,-112.083C180.514,-104.613 187.168,-93.7244 192.793,-84.5199"/>
<polygon fill="midnightblue" stroke="midnightblue" points="195.924,-86.109 198.152,-75.7511 189.951,-82.4588 195.924,-86.109"/>
</g>
<!-- Node6 -->
<g id="node7" class="node"><title>Node6</title>
<g id="a_node7"><a xlink:href="Rect_8h.html" target="_top" xlink:title="Rect.h">
<polygon fill="white" stroke="black" points="247.5,-56.5 247.5,-75.5 293.5,-75.5 293.5,-56.5 247.5,-56.5"/>
<text text-anchor="middle" x="270.5" y="-63.5" font-family="Helvetica,sans-Serif" font-size="10.00">Rect.h</text>
</a>
</g>
</g>
<!-- Node3&#45;&gt;Node6 -->
<g id="edge6" class="edge"><title>Node3&#45;&gt;Node6</title>
<path fill="none" stroke="midnightblue" d="M186.567,-112.324C202.458,-103.743 227.007,-90.486 245.458,-80.5224"/>
<polygon fill="midnightblue" stroke="midnightblue" points="247.337,-83.4857 254.473,-75.6545 244.011,-77.3264 247.337,-83.4857"/>
</g>
<!-- Node9 -->
<g id="node10" class="node"><title>Node9</title>
<polygon fill="white" stroke="#bfbfbf" points="312,-56.5 312,-75.5 353,-75.5 353,-56.5 312,-56.5"/>
<text text-anchor="middle" x="332.5" y="-63.5" font-family="Helvetica,sans-Serif" font-size="10.00">string</text>
</g>
<!-- Node3&#45;&gt;Node9 -->
<g id="edge9" class="edge"><title>Node3&#45;&gt;Node9</title>
<path fill="none" stroke="midnightblue" d="M196.169,-112.444C224.866,-102.878 271.309,-87.3969 301.878,-77.2075"/>
<polygon fill="midnightblue" stroke="midnightblue" points="303.207,-80.4537 311.587,-73.971 300.993,-73.8129 303.207,-80.4537"/>
</g>
<!-- Node7 -->
<g id="node8" class="node"><title>Node7</title>
<g id="a_node8"><a xlink:href="Vec2_8h.html" target="_top" xlink:title="Vec2.h">
<polygon fill="white" stroke="black" points="215,-0.5 215,-19.5 262,-19.5 262,-0.5 215,-0.5"/>
<text text-anchor="middle" x="238.5" y="-7.5" font-family="Helvetica,sans-Serif" font-size="10.00">Vec2.h</text>
</a>
</g>
</g>
<!-- Node6&#45;&gt;Node7 -->
<g id="edge7" class="edge"><title>Node6&#45;&gt;Node7</title>
<path fill="none" stroke="midnightblue" d="M265.216,-56.083C260.789,-48.6127 254.337,-37.7244 248.882,-28.5199"/>
<polygon fill="midnightblue" stroke="midnightblue" points="251.795,-26.5697 243.686,-19.7511 245.773,-30.1383 251.795,-26.5697"/>
</g>
<!-- Node8 -->
<g id="node9" class="node"><title>Node8</title>
<polygon fill="white" stroke="#bfbfbf" points="280.5,-0.5 280.5,-19.5 324.5,-19.5 324.5,-0.5 280.5,-0.5"/>
<text text-anchor="middle" x="302.5" y="-7.5" font-family="Helvetica,sans-Serif" font-size="10.00">cmath</text>
</g>
<!-- Node6&#45;&gt;Node8 -->
<g id="edge8" class="edge"><title>Node6&#45;&gt;Node8</title>
<path fill="none" stroke="midnightblue" d="M275.784,-56.083C280.211,-48.6127 286.663,-37.7244 292.118,-28.5199"/>
<polygon fill="midnightblue" stroke="midnightblue" points="295.227,-30.1383 297.314,-19.7511 289.205,-26.5697 295.227,-30.1383"/>
</g>
</g>
</svg>
