<?xml version="1.0" encoding="UTF-8" standalone="no"?>
<!DOCTYPE svg PUBLIC "-//W3C//DTD SVG 1.1//EN"
 "http://www.w3.org/Graphics/SVG/1.1/DTD/svg11.dtd">
<!-- Generated by graphviz version 2.36.0 (20140111.2315)
 -->
<!-- Title: Engine/src/Component.cpp Pages: 1 -->
<svg width="289pt" height="308pt"
 viewBox="0.00 0.00 289.24 308.00" xmlns="http://www.w3.org/2000/svg" xmlns:xlink="http://www.w3.org/1999/xlink">
<g id="graph0" class="graph" transform="scale(1 1) rotate(0) translate(4 304)">
<title>Engine/src/Component.cpp</title>
<polygon fill="white" stroke="none" points="-4,4 -4,-304 285.24,-304 285.24,4 -4,4"/>
<!-- Node1 -->
<g id="node1" class="node"><title>Node1</title>
<polygon fill="#bfbfbf" stroke="black" points="32.7404,-280.5 32.7404,-299.5 167.74,-299.5 167.74,-280.5 32.7404,-280.5"/>
<text text-anchor="middle" x="100.24" y="-287.5" font-family="Helvetica,sans-Serif" font-size="10.00">Engine/src/Component.cpp</text>
</g>
<!-- Node2 -->
<g id="node2" class="node"><title>Node2</title>
<g id="a_node2"><a xlink:href="Component_8h.html" target="_top" xlink:title="Component.h">
<polygon fill="white" stroke="black" points="62.7404,-224.5 62.7404,-243.5 137.74,-243.5 137.74,-224.5 62.7404,-224.5"/>
<text text-anchor="middle" x="100.24" y="-231.5" font-family="Helvetica,sans-Serif" font-size="10.00">Component.h</text>
</a>
</g>
</g>
<!-- Node1&#45;&gt;Node2 -->
<g id="edge1" class="edge"><title>Node1&#45;&gt;Node2</title>
<path fill="none" stroke="midnightblue" d="M100.24,-280.083C100.24,-273.006 100.24,-262.861 100.24,-253.986"/>
<polygon fill="midnightblue" stroke="midnightblue" points="103.741,-253.751 100.24,-243.751 96.7405,-253.751 103.741,-253.751"/>
</g>
<!-- Node3 -->
<g id="node3" class="node"><title>Node3</title>
<g id="a_node3"><a xlink:href="GameObject_8h.html" target="_top" xlink:title="GameObject.h">
<polygon fill="white" stroke="black" points="60.2404,-168.5 60.2404,-187.5 140.24,-187.5 140.24,-168.5 60.2404,-168.5"/>
<text text-anchor="middle" x="100.24" y="-175.5" font-family="Helvetica,sans-Serif" font-size="10.00">GameObject.h</text>
</a>
</g>
</g>
<!-- Node2&#45;&gt;Node3 -->
<g id="edge2" class="edge"><title>Node2&#45;&gt;Node3</title>
<path fill="none" stroke="midnightblue" d="M95.0741,-224.083C93.5646,-216.927 93.1342,-206.635 93.7829,-197.691"/>
<polygon fill="midnightblue" stroke="midnightblue" points="97.2558,-198.126 95.1094,-187.751 90.3173,-197.2 97.2558,-198.126"/>
</g>
<!-- Node3&#45;&gt;Node2 -->
<g id="edge7" class="edge"><title>Node3&#45;&gt;Node2</title>
<path fill="none" stroke="midnightblue" d="M105.371,-187.751C106.898,-194.858 107.345,-205.136 106.713,-214.101"/>
<polygon fill="midnightblue" stroke="midnightblue" points="103.234,-213.713 105.407,-224.083 110.175,-214.622 103.234,-213.713"/>
</g>
<!-- Node4 -->
<g id="node4" class="node"><title>Node4</title>
<g id="a_node4"><a xlink:href="SDL__include_8h.html" target="_top" xlink:title="SDL_include.h">
<polygon fill="white" stroke="black" points="103.24,-0.5 103.24,-19.5 183.24,-19.5 183.24,-0.5 103.24,-0.5"/>
<text text-anchor="middle" x="143.24" y="-7.5" font-family="Helvetica,sans-Serif" font-size="10.00">SDL_include.h</text>
</a>
</g>
</g>
<!-- Node3&#45;&gt;Node4 -->
<g id="edge3" class="edge"><title>Node3&#45;&gt;Node4</title>
<path fill="none" stroke="midnightblue" d="M62.6918,-168.435C29.5334,-158.819 -11.4407,-140.694 3.24044,-112 25.6669,-68.1676 76.9645,-38.9987 110.843,-23.7243"/>
<polygon fill="midnightblue" stroke="midnightblue" points="112.544,-26.8012 120.321,-19.6064 109.755,-20.3809 112.544,-26.8012"/>
</g>
<!-- Node5 -->
<g id="node5" class="node"><title>Node5</title>
<polygon fill="white" stroke="#bfbfbf" points="12.2404,-112.5 12.2404,-131.5 56.2404,-131.5 56.2404,-112.5 12.2404,-112.5"/>
<text text-anchor="middle" x="34.2404" y="-119.5" font-family="Helvetica,sans-Serif" font-size="10.00">vector</text>
</g>
<!-- Node3&#45;&gt;Node5 -->
<g id="edge4" class="edge"><title>Node3&#45;&gt;Node5</title>
<path fill="none" stroke="midnightblue" d="M89.6364,-168.324C79.7843,-160.263 64.8895,-148.077 53.0253,-138.369"/>
<polygon fill="midnightblue" stroke="midnightblue" points="54.9934,-135.457 45.0374,-131.834 50.5607,-140.875 54.9934,-135.457"/>
</g>
<!-- Node6 -->
<g id="node6" class="node"><title>Node6</title>
<polygon fill="white" stroke="#bfbfbf" points="74.2404,-112.5 74.2404,-131.5 126.24,-131.5 126.24,-112.5 74.2404,-112.5"/>
<text text-anchor="middle" x="100.24" y="-119.5" font-family="Helvetica,sans-Serif" font-size="10.00">memory</text>
</g>
<!-- Node3&#45;&gt;Node6 -->
<g id="edge5" class="edge"><title>Node3&#45;&gt;Node6</title>
<path fill="none" stroke="midnightblue" d="M100.24,-168.083C100.24,-161.006 100.24,-150.861 100.24,-141.986"/>
<polygon fill="midnightblue" stroke="midnightblue" points="103.741,-141.751 100.24,-131.751 96.7405,-141.751 103.741,-141.751"/>
</g>
<!-- Node7 -->
<g id="node7" class="node"><title>Node7</title>
<polygon fill="white" stroke="#bfbfbf" points="144.74,-112.5 144.74,-131.5 185.74,-131.5 185.74,-112.5 144.74,-112.5"/>
<text text-anchor="middle" x="165.24" y="-119.5" font-family="Helvetica,sans-Serif" font-size="10.00">string</text>
</g>
<!-- Node3&#45;&gt;Node7 -->
<g id="edge6" class="edge"><title>Node3&#45;&gt;Node7</title>
<path fill="none" stroke="midnightblue" d="M110.684,-168.324C120.387,-160.263 135.056,-148.077 146.74,-138.369"/>
<polygon fill="midnightblue" stroke="midnightblue" points="149.152,-140.916 154.607,-131.834 144.679,-135.532 149.152,-140.916"/>
</g>
<!-- Node8 -->
<g id="node8" class="node"><title>Node8</title>
<g id="a_node8"><a xlink:href="Rect_8h.html" target="_top" xlink:title="Rect.h">
<polygon fill="white" stroke="black" points="204.24,-112.5 204.24,-131.5 250.24,-131.5 250.24,-112.5 204.24,-112.5"/>
<text text-anchor="middle" x="227.24" y="-119.5" font-family="Helvetica,sans-Serif" font-size="10.00">Rect.h</text>
</a>
</g>
</g>
<!-- Node3&#45;&gt;Node8 -->
<g id="edge8" class="edge"><title>Node3&#45;&gt;Node8</title>
<path fill="none" stroke="midnightblue" d="M120.364,-168.444C141.265,-159.557 174.175,-145.563 197.957,-135.451"/>
<polygon fill="midnightblue" stroke="midnightblue" points="199.378,-138.65 207.211,-131.516 196.639,-132.208 199.378,-138.65"/>
</g>
<!-- Node8&#45;&gt;Node4 -->
<g id="edge9" class="edge"><title>Node8&#45;&gt;Node4</title>
<path fill="none" stroke="midnightblue" d="M208.342,-112.373C193.723,-104.773 174.042,-92.3641 162.24,-76 152.462,-62.4414 147.684,-43.8923 145.369,-30.0791"/>
<polygon fill="midnightblue" stroke="midnightblue" points="148.785,-29.2294 143.948,-19.8033 141.851,-30.1886 148.785,-29.2294"/>
</g>
<!-- Node9 -->
<g id="node9" class="node"><title>Node9</title>
<g id="a_node9"><a xlink:href="Vec2_8h.html" target="_top" xlink:title="Vec2.h">
<polygon fill="white" stroke="black" points="171.74,-56.5 171.74,-75.5 218.74,-75.5 218.74,-56.5 171.74,-56.5"/>
<text text-anchor="middle" x="195.24" y="-63.5" font-family="Helvetica,sans-Serif" font-size="10.00">Vec2.h</text>
</a>
</g>
</g>
<!-- Node8&#45;&gt;Node9 -->
<g id="edge10" class="edge"><title>Node8&#45;&gt;Node9</title>
<path fill="none" stroke="midnightblue" d="M221.956,-112.083C217.529,-104.613 211.077,-93.7244 205.623,-84.5199"/>
<polygon fill="midnightblue" stroke="midnightblue" points="208.535,-82.5697 200.426,-75.7511 202.513,-86.1383 208.535,-82.5697"/>
</g>
<!-- Node10 -->
<g id="node10" class="node"><title>Node10</title>
<polygon fill="white" stroke="#bfbfbf" points="237.24,-56.5 237.24,-75.5 281.24,-75.5 281.24,-56.5 237.24,-56.5"/>
<text text-anchor="middle" x="259.24" y="-63.5" font-family="Helvetica,sans-Serif" font-size="10.00">cmath</text>
</g>
<!-- Node8&#45;&gt;Node10 -->
<g id="edge12" class="edge"><title>Node8&#45;&gt;Node10</title>
<path fill="none" stroke="midnightblue" d="M232.525,-112.083C236.951,-104.613 243.404,-93.7244 248.858,-84.5199"/>
<polygon fill="midnightblue" stroke="midnightblue" points="251.968,-86.1383 254.055,-75.7511 245.946,-82.5697 251.968,-86.1383"/>
</g>
<!-- Node9&#45;&gt;Node4 -->
<g id="edge11" class="edge"><title>Node9&#45;&gt;Node4</title>
<path fill="none" stroke="midnightblue" d="M186.654,-56.083C179.081,-48.2195 167.862,-36.5688 158.726,-27.0813"/>
<polygon fill="midnightblue" stroke="midnightblue" points="161.125,-24.5266 151.667,-19.7511 156.083,-29.3821 161.125,-24.5266"/>
</g>
</g>
</svg>
