<?xml version="1.0" encoding="UTF-8" standalone="no"?>
<!DOCTYPE svg PUBLIC "-//W3C//DTD SVG 1.1//EN"
 "http://www.w3.org/Graphics/SVG/1.1/DTD/svg11.dtd">
<!-- Generated by graphviz version 2.36.0 (20140111.2315)
 -->
<!-- Title: Engine/include/ComponentType.h Pages: 1 -->
<svg width="2776pt" height="432pt"
 viewBox="0.00 0.00 2775.55 432.00" xmlns="http://www.w3.org/2000/svg" xmlns:xlink="http://www.w3.org/1999/xlink">
<g id="graph0" class="graph" transform="scale(1 1) rotate(0) translate(4 428)">
<title>Engine/include/ComponentType.h</title>
<polygon fill="white" stroke="none" points="-4,4 -4,-428 2771.55,-428 2771.55,4 -4,4"/>
<!-- Node1 -->
<g id="node1" class="node"><title>Node1</title>
<polygon fill="#bfbfbf" stroke="black" points="1832.55,-393 1832.55,-423 1966.55,-423 1966.55,-393 1832.55,-393"/>
<text text-anchor="start" x="1840.55" y="-411" font-family="Helvetica,sans-Serif" font-size="10.00">Engine/include/Component</text>
<text text-anchor="middle" x="1899.55" y="-400" font-family="Helvetica,sans-Serif" font-size="10.00">Type.h</text>
</g>
<!-- Node2 -->
<g id="node2" class="node"><title>Node2</title>
<g id="a_node2"><a xlink:href="Component_8h.html" target="_top" xlink:title="Engine/include/Component.h">
<polygon fill="white" stroke="black" points="1878.55,-336.5 1878.55,-355.5 2020.55,-355.5 2020.55,-336.5 1878.55,-336.5"/>
<text text-anchor="middle" x="1949.55" y="-343.5" font-family="Helvetica,sans-Serif" font-size="10.00">Engine/include/Component.h</text>
</a>
</g>
</g>
<!-- Node1&#45;&gt;Node2 -->
<g id="edge1" class="edge"><title>Node1&#45;&gt;Node2</title>
<path fill="none" stroke="midnightblue" d="M1917.87,-385.021C1926.33,-374.868 1935.89,-363.393 1942.27,-355.731"/>
<polygon fill="midnightblue" stroke="midnightblue" points="1915.11,-382.858 1911.4,-392.781 1920.49,-387.339 1915.11,-382.858"/>
</g>
<!-- Node6 -->
<g id="node6" class="node"><title>Node6</title>
<g id="a_node6"><a xlink:href="GameObject_8h.html" target="_top" xlink:title="Engine/include/GameObject.h">
<polygon fill="white" stroke="black" points="1727.55,-280.5 1727.55,-299.5 1873.55,-299.5 1873.55,-280.5 1727.55,-280.5"/>
<text text-anchor="middle" x="1800.55" y="-287.5" font-family="Helvetica,sans-Serif" font-size="10.00">Engine/include/GameObject.h</text>
</a>
</g>
</g>
<!-- Node1&#45;&gt;Node6 -->
<g id="edge82" class="edge"><title>Node1&#45;&gt;Node6</title>
<path fill="none" stroke="midnightblue" d="M1880.77,-384.998C1858.74,-359.187 1823.29,-317.643 1807.98,-299.707"/>
<polygon fill="midnightblue" stroke="midnightblue" points="1878.26,-387.442 1887.41,-392.776 1883.58,-382.898 1878.26,-387.442"/>
</g>
<!-- Node3 -->
<g id="node3" class="node"><title>Node3</title>
<g id="a_node3"><a xlink:href="AIGoDown_8h.html" target="_top" xlink:title="Engine/include/AIGoDown.h">
<polygon fill="white" stroke="black" points="2287.55,-280.5 2287.55,-299.5 2427.55,-299.5 2427.55,-280.5 2287.55,-280.5"/>
<text text-anchor="middle" x="2357.55" y="-287.5" font-family="Helvetica,sans-Serif" font-size="10.00">Engine/include/AIGoDown.h</text>
</a>
</g>
</g>
<!-- Node2&#45;&gt;Node3 -->
<g id="edge2" class="edge"><title>Node2&#45;&gt;Node3</title>
<path fill="none" stroke="midnightblue" d="M2024.32,-335.105C2101.36,-324.907 2220.22,-309.177 2293.2,-299.516"/>
<polygon fill="midnightblue" stroke="midnightblue" points="2023.65,-331.662 2014.2,-336.444 2024.57,-338.601 2023.65,-331.662"/>
</g>
<!-- Node2&#45;&gt;Node6 -->
<g id="edge5" class="edge"><title>Node2&#45;&gt;Node6</title>
<path fill="none" stroke="midnightblue" d="M1911.22,-333.172C1881.57,-323.004 1841.99,-308.585 1818.97,-299.516"/>
<polygon fill="midnightblue" stroke="midnightblue" points="1910.26,-336.542 1920.85,-336.444 1912.51,-329.914 1910.26,-336.542"/>
</g>
<!-- Node22 -->
<g id="node22" class="node"><title>Node22</title>
<g id="a_node22"><a xlink:href="DragAndDrop_8h.html" target="_top" xlink:title="Engine/include/DragAndDrop.h">
<polygon fill="white" stroke="black" points="2031.05,-168.5 2031.05,-187.5 2182.05,-187.5 2182.05,-168.5 2031.05,-168.5"/>
<text text-anchor="middle" x="2106.55" y="-175.5" font-family="Helvetica,sans-Serif" font-size="10.00">Engine/include/DragAndDrop.h</text>
</a>
</g>
</g>
<!-- Node2&#45;&gt;Node22 -->
<g id="edge75" class="edge"><title>Node2&#45;&gt;Node22</title>
<path fill="none" stroke="midnightblue" d="M2015.3,-333.683C2036.42,-327.06 2058.28,-316.578 2073.55,-300 2103.8,-267.172 2106.76,-209.329 2106.74,-187.585"/>
<polygon fill="midnightblue" stroke="midnightblue" points="2014.31,-330.326 2005.67,-336.463 2016.25,-337.052 2014.31,-330.326"/>
</g>
<!-- Node25 -->
<g id="node25" class="node"><title>Node25</title>
<g id="a_node25"><a xlink:href="WaveManager_8h.html" target="_top" xlink:title="Game/include/WaveManager.h">
<polygon fill="white" stroke="black" points="1823.05,-168.5 1823.05,-187.5 1974.05,-187.5 1974.05,-168.5 1823.05,-168.5"/>
<text text-anchor="middle" x="1898.55" y="-175.5" font-family="Helvetica,sans-Serif" font-size="10.00">Game/include/WaveManager.h</text>
</a>
</g>
</g>
<!-- Node2&#45;&gt;Node25 -->
<g id="edge81" class="edge"><title>Node2&#45;&gt;Node25</title>
<path fill="none" stroke="midnightblue" d="M1936.39,-328.088C1930.71,-319.996 1924.47,-309.924 1920.55,-300 1904.71,-259.886 1900.17,-207.74 1898.96,-187.526"/>
<polygon fill="midnightblue" stroke="midnightblue" points="1933.67,-330.299 1942.43,-336.27 1939.31,-326.145 1933.67,-330.299"/>
</g>
<!-- Node39 -->
<g id="node39" class="node"><title>Node39</title>
<g id="a_node39"><a xlink:href="HitPoints_8h.html" target="_top" xlink:title="Engine/include/HitPoints.h">
<polygon fill="white" stroke="black" points="2547.55,-224.5 2547.55,-243.5 2679.55,-243.5 2679.55,-224.5 2547.55,-224.5"/>
<text text-anchor="middle" x="2613.55" y="-231.5" font-family="Helvetica,sans-Serif" font-size="10.00">Engine/include/HitPoints.h</text>
</a>
</g>
</g>
<!-- Node2&#45;&gt;Node39 -->
<g id="edge76" class="edge"><title>Node2&#45;&gt;Node39</title>
<path fill="none" stroke="midnightblue" d="M2030.69,-343.915C2128.18,-341.146 2296.16,-331.695 2436.55,-300 2496.42,-286.483 2563.54,-257.898 2595.17,-243.568"/>
<polygon fill="midnightblue" stroke="midnightblue" points="2030.51,-340.418 2020.61,-344.184 2030.7,-347.416 2030.51,-340.418"/>
</g>
<!-- Node41 -->
<g id="node41" class="node"><title>Node41</title>
<g id="a_node41"><a xlink:href="Component_8cpp.html" target="_top" xlink:title="Engine/src/Component.cpp">
<polygon fill="white" stroke="black" points="1930.05,-280.5 1930.05,-299.5 2065.05,-299.5 2065.05,-280.5 1930.05,-280.5"/>
<text text-anchor="middle" x="1997.55" y="-287.5" font-family="Helvetica,sans-Serif" font-size="10.00">Engine/src/Component.cpp</text>
</a>
</g>
</g>
<!-- Node2&#45;&gt;Node41 -->
<g id="edge80" class="edge"><title>Node2&#45;&gt;Node41</title>
<path fill="none" stroke="midnightblue" d="M1964.28,-328.431C1972.69,-318.967 1982.9,-307.483 1989.77,-299.751"/>
<polygon fill="midnightblue" stroke="midnightblue" points="1961.5,-326.284 1957.48,-336.083 1966.74,-330.934 1961.5,-326.284"/>
</g>
<!-- Node4 -->
<g id="node4" class="node"><title>Node4</title>
<g id="a_node4"><a xlink:href="AIGoDown_8cpp.html" target="_top" xlink:title="Engine/src/AIGoDown.cpp">
<polygon fill="white" stroke="black" points="2291.05,-224.5 2291.05,-243.5 2424.05,-243.5 2424.05,-224.5 2291.05,-224.5"/>
<text text-anchor="middle" x="2357.55" y="-231.5" font-family="Helvetica,sans-Serif" font-size="10.00">Engine/src/AIGoDown.cpp</text>
</a>
</g>
</g>
<!-- Node3&#45;&gt;Node4 -->
<g id="edge3" class="edge"><title>Node3&#45;&gt;Node4</title>
<path fill="none" stroke="midnightblue" d="M2357.55,-269.805C2357.55,-260.91 2357.55,-250.78 2357.55,-243.751"/>
<polygon fill="midnightblue" stroke="midnightblue" points="2354.05,-270.083 2357.55,-280.083 2361.05,-270.083 2354.05,-270.083"/>
</g>
<!-- Node5 -->
<g id="node5" class="node"><title>Node5</title>
<g id="a_node5"><a xlink:href="Enemy_8cpp.html" target="_top" xlink:title="Game/src/Enemy.cpp">
<polygon fill="white" stroke="black" points="2589.55,-112.5 2589.55,-131.5 2701.55,-131.5 2701.55,-112.5 2589.55,-112.5"/>
<text text-anchor="middle" x="2645.55" y="-119.5" font-family="Helvetica,sans-Serif" font-size="10.00">Game/src/Enemy.cpp</text>
</a>
</g>
</g>
<!-- Node3&#45;&gt;Node5 -->
<g id="edge4" class="edge"><title>Node3&#45;&gt;Node5</title>
<path fill="none" stroke="midnightblue" d="M2381.38,-275.265C2438.83,-242.152 2583.68,-158.659 2630.62,-131.605"/>
<polygon fill="midnightblue" stroke="midnightblue" points="2379.54,-272.283 2372.63,-280.309 2383.04,-278.347 2379.54,-272.283"/>
</g>
<!-- Node6&#45;&gt;Node2 -->
<g id="edge6" class="edge"><title>Node6&#45;&gt;Node2</title>
<path fill="none" stroke="midnightblue" d="M1838.75,-302.783C1868.37,-312.939 1907.96,-327.359 1931.03,-336.444"/>
<polygon fill="midnightblue" stroke="midnightblue" points="1839.72,-299.417 1829.13,-299.516 1837.47,-306.045 1839.72,-299.417"/>
</g>
<!-- Node7 -->
<g id="node7" class="node"><title>Node7</title>
<g id="a_node7"><a xlink:href="Animation_8h.html" target="_top" xlink:title="Engine/include/Animation.h">
<polygon fill="white" stroke="black" points="1312.05,-224.5 1312.05,-243.5 1447.05,-243.5 1447.05,-224.5 1312.05,-224.5"/>
<text text-anchor="middle" x="1379.55" y="-231.5" font-family="Helvetica,sans-Serif" font-size="10.00">Engine/include/Animation.h</text>
</a>
</g>
</g>
<!-- Node6&#45;&gt;Node7 -->
<g id="edge7" class="edge"><title>Node6&#45;&gt;Node7</title>
<path fill="none" stroke="midnightblue" d="M1723.89,-279.167C1644.4,-268.972 1521.41,-253.196 1445.95,-243.516"/>
<polygon fill="midnightblue" stroke="midnightblue" points="1723.48,-282.643 1733.84,-280.444 1724.37,-275.7 1723.48,-282.643"/>
</g>
<!-- Node9 -->
<g id="node9" class="node"><title>Node9</title>
<g id="a_node9"><a xlink:href="Camera_8h.html" target="_top" xlink:title="Engine/include/Camera.h">
<polygon fill="white" stroke="black" points="1369.55,-168.5 1369.55,-187.5 1495.55,-187.5 1495.55,-168.5 1369.55,-168.5"/>
<text text-anchor="middle" x="1432.55" y="-175.5" font-family="Helvetica,sans-Serif" font-size="10.00">Engine/include/Camera.h</text>
</a>
</g>
</g>
<!-- Node6&#45;&gt;Node9 -->
<g id="edge9" class="edge"><title>Node6&#45;&gt;Node9</title>
<path fill="none" stroke="midnightblue" d="M1739.45,-278.66C1697.62,-270.883 1641.14,-259.004 1592.55,-244 1539.84,-227.725 1480.24,-201.266 1450.89,-187.67"/>
<polygon fill="midnightblue" stroke="midnightblue" points="1739.01,-282.139 1749.48,-280.499 1740.28,-275.253 1739.01,-282.139"/>
</g>
<!-- Node12 -->
<g id="node12" class="node"><title>Node12</title>
<g id="a_node12"><a xlink:href="GameObject_8cpp.html" target="_top" xlink:title="Engine/src/GameObject.cpp">
<polygon fill="white" stroke="black" points="1479.55,-112.5 1479.55,-131.5 1619.55,-131.5 1619.55,-112.5 1479.55,-112.5"/>
<text text-anchor="middle" x="1549.55" y="-119.5" font-family="Helvetica,sans-Serif" font-size="10.00">Engine/src/GameObject.cpp</text>
</a>
</g>
</g>
<!-- Node6&#45;&gt;Node12 -->
<g id="edge69" class="edge"><title>Node6&#45;&gt;Node12</title>
<path fill="none" stroke="midnightblue" d="M1778.84,-274.645C1728.16,-241.121 1603.21,-158.491 1562.56,-131.605"/>
<polygon fill="midnightblue" stroke="midnightblue" points="1777.14,-277.712 1787.41,-280.309 1781,-271.873 1777.14,-277.712"/>
</g>
<!-- Node21 -->
<g id="node21" class="node"><title>Node21</title>
<g id="a_node21"><a xlink:href="TileMap_8h.html" target="_top" xlink:title="Engine/include/TileMap.h">
<polygon fill="white" stroke="black" points="1933.55,-224.5 1933.55,-243.5 2059.55,-243.5 2059.55,-224.5 1933.55,-224.5"/>
<text text-anchor="middle" x="1996.55" y="-231.5" font-family="Helvetica,sans-Serif" font-size="10.00">Engine/include/TileMap.h</text>
</a>
</g>
</g>
<!-- Node6&#45;&gt;Node21 -->
<g id="edge23" class="edge"><title>Node6&#45;&gt;Node21</title>
<path fill="none" stroke="midnightblue" d="M1841.57,-277.699C1878.56,-267.507 1932.15,-252.743 1965.64,-243.516"/>
<polygon fill="midnightblue" stroke="midnightblue" points="1840.32,-274.413 1831.61,-280.444 1842.18,-281.162 1840.32,-274.413"/>
</g>
<!-- Node23 -->
<g id="node23" class="node"><title>Node23</title>
<g id="a_node23"><a xlink:href="StageState_8h.html" target="_top" xlink:title="Game/include/StageState.h">
<polygon fill="white" stroke="black" points="1938.05,-112.5 1938.05,-131.5 2075.05,-131.5 2075.05,-112.5 1938.05,-112.5"/>
<text text-anchor="middle" x="2006.55" y="-119.5" font-family="Helvetica,sans-Serif" font-size="10.00">Game/include/StageState.h</text>
</a>
</g>
</g>
<!-- Node6&#45;&gt;Node23 -->
<g id="edge71" class="edge"><title>Node6&#45;&gt;Node23</title>
<path fill="none" stroke="midnightblue" d="M1796.54,-270.244C1792.1,-243.968 1788.55,-196.256 1813.55,-168 1823.1,-157.21 1902.78,-141.275 1956.72,-131.547"/>
<polygon fill="midnightblue" stroke="midnightblue" points="1793.16,-271.205 1798.47,-280.369 1800.03,-269.889 1793.16,-271.205"/>
</g>
<!-- Node24 -->
<g id="node24" class="node"><title>Node24</title>
<g id="a_node24"><a xlink:href="EndState_8h.html" target="_top" xlink:title="Game/include/EndState.h">
<polygon fill="white" stroke="black" points="1115.55,-56.5 1115.55,-75.5 1243.55,-75.5 1243.55,-56.5 1115.55,-56.5"/>
<text text-anchor="middle" x="1179.55" y="-63.5" font-family="Helvetica,sans-Serif" font-size="10.00">Game/include/EndState.h</text>
</a>
</g>
</g>
<!-- Node6&#45;&gt;Node24 -->
<g id="edge70" class="edge"><title>Node6&#45;&gt;Node24</title>
<path fill="none" stroke="midnightblue" d="M1717.24,-288.298C1378.74,-284.583 118.998,-262.05 4.55007,-132 -1.3223,-125.327 -1.61388,-118.405 4.55007,-112 43.3025,-71.735 875.648,-67.4287 1115.44,-67.025"/>
<polygon fill="midnightblue" stroke="midnightblue" points="1717.42,-291.8 1727.46,-288.408 1717.5,-284.801 1717.42,-291.8"/>
</g>
<!-- Node6&#45;&gt;Node25 -->
<g id="edge72" class="edge"><title>Node6&#45;&gt;Node25</title>
<path fill="none" stroke="midnightblue" d="M1814.9,-272.897C1835.96,-249.249 1874.54,-205.949 1890.9,-187.591"/>
<polygon fill="midnightblue" stroke="midnightblue" points="1812.28,-270.574 1808.24,-280.368 1817.51,-275.23 1812.28,-270.574"/>
</g>
<!-- Node27 -->
<g id="node27" class="node"><title>Node27</title>
<g id="a_node27"><a xlink:href="Enemy_8h.html" target="_top" xlink:title="Game/include/Enemy.h">
<polygon fill="white" stroke="black" points="2372.05,-168.5 2372.05,-187.5 2491.05,-187.5 2491.05,-168.5 2372.05,-168.5"/>
<text text-anchor="middle" x="2431.55" y="-175.5" font-family="Helvetica,sans-Serif" font-size="10.00">Game/include/Enemy.h</text>
</a>
</g>
</g>
<!-- Node6&#45;&gt;Node27 -->
<g id="edge73" class="edge"><title>Node6&#45;&gt;Node27</title>
<path fill="none" stroke="midnightblue" d="M1878.38,-279.164C1942.05,-270.803 2034.34,-257.958 2114.55,-244 2215.84,-226.374 2334.3,-200.733 2393.63,-187.542"/>
<polygon fill="midnightblue" stroke="midnightblue" points="1877.88,-275.7 1868.42,-280.467 1878.79,-282.641 1877.88,-275.7"/>
</g>
<!-- Node30 -->
<g id="node30" class="node"><title>Node30</title>
<g id="a_node30"><a xlink:href="Tower_8h.html" target="_top" xlink:title="Game/include/Tower.h">
<polygon fill="white" stroke="black" points="2200.05,-168.5 2200.05,-187.5 2315.05,-187.5 2315.05,-168.5 2200.05,-168.5"/>
<text text-anchor="middle" x="2257.55" y="-175.5" font-family="Helvetica,sans-Serif" font-size="10.00">Game/include/Tower.h</text>
</a>
</g>
</g>
<!-- Node6&#45;&gt;Node30 -->
<g id="edge74" class="edge"><title>Node6&#45;&gt;Node30</title>
<path fill="none" stroke="midnightblue" d="M1880.47,-279.097C1934.13,-271.591 2006.15,-259.853 2068.55,-244 2130.77,-228.193 2201.76,-201.287 2236.36,-187.578"/>
<polygon fill="midnightblue" stroke="midnightblue" points="1879.76,-275.662 1870.33,-280.495 1880.72,-282.596 1879.76,-275.662"/>
</g>
<!-- Node31 -->
<g id="node31" class="node"><title>Node31</title>
<g id="a_node31"><a xlink:href="State_8h.html" target="_top" xlink:title="Engine/include/State.h">
<polygon fill="white" stroke="black" points="1090.05,-224.5 1090.05,-243.5 1205.05,-243.5 1205.05,-224.5 1090.05,-224.5"/>
<text text-anchor="middle" x="1147.55" y="-231.5" font-family="Helvetica,sans-Serif" font-size="10.00">Engine/include/State.h</text>
</a>
</g>
</g>
<!-- Node6&#45;&gt;Node31 -->
<g id="edge50" class="edge"><title>Node6&#45;&gt;Node31</title>
<path fill="none" stroke="midnightblue" d="M1717.3,-282.116C1582.86,-270.998 1321.31,-249.369 1205.33,-239.778"/>
<polygon fill="midnightblue" stroke="midnightblue" points="1717.29,-285.627 1727.54,-282.963 1717.87,-278.65 1717.29,-285.627"/>
</g>
<!-- Node8 -->
<g id="node8" class="node"><title>Node8</title>
<g id="a_node8"><a xlink:href="Animation_8cpp.html" target="_top" xlink:title="Engine/src/Animation.cpp">
<polygon fill="white" stroke="black" points="1219.55,-112.5 1219.55,-131.5 1347.55,-131.5 1347.55,-112.5 1219.55,-112.5"/>
<text text-anchor="middle" x="1283.55" y="-119.5" font-family="Helvetica,sans-Serif" font-size="10.00">Engine/src/Animation.cpp</text>
</a>
</g>
</g>
<!-- Node7&#45;&gt;Node8 -->
<g id="edge8" class="edge"><title>Node7&#45;&gt;Node8</title>
<path fill="none" stroke="midnightblue" d="M1365.22,-216.586C1344.53,-192.871 1307,-149.869 1291.05,-131.591"/>
<polygon fill="midnightblue" stroke="midnightblue" points="1362.8,-219.136 1372.02,-224.368 1368.08,-214.533 1362.8,-219.136"/>
</g>
<!-- Node9&#45;&gt;Node5 -->
<g id="edge19" class="edge"><title>Node9&#45;&gt;Node5</title>
<path fill="none" stroke="midnightblue" d="M1505.77,-175.052C1724.31,-169.09 2369.71,-150.38 2579.55,-132 2582.78,-131.717 2586.09,-131.389 2589.42,-131.028"/>
<polygon fill="midnightblue" stroke="midnightblue" points="1505.59,-171.555 1495.69,-175.326 1505.78,-178.552 1505.59,-171.555"/>
</g>
<!-- Node9&#45;&gt;Node8 -->
<g id="edge10" class="edge"><title>Node9&#45;&gt;Node8</title>
<path fill="none" stroke="midnightblue" d="M1399.18,-164.906C1371.17,-154.754 1331.85,-140.506 1307.05,-131.516"/>
<polygon fill="midnightblue" stroke="midnightblue" points="1398.35,-168.327 1408.94,-168.444 1400.73,-161.746 1398.35,-168.327"/>
</g>
<!-- Node10 -->
<g id="node10" class="node"><title>Node10</title>
<g id="a_node10"><a xlink:href="Camera_8cpp.html" target="_top" xlink:title="Engine/src/Camera.cpp">
<polygon fill="white" stroke="black" points="696.05,-112.5 696.05,-131.5 815.05,-131.5 815.05,-112.5 696.05,-112.5"/>
<text text-anchor="middle" x="755.55" y="-119.5" font-family="Helvetica,sans-Serif" font-size="10.00">Engine/src/Camera.cpp</text>
</a>
</g>
</g>
<!-- Node9&#45;&gt;Node10 -->
<g id="edge11" class="edge"><title>Node9&#45;&gt;Node10</title>
<path fill="none" stroke="midnightblue" d="M1359.39,-172.908C1245.08,-166.217 1017.22,-151.68 824.55,-132 821.546,-131.693 818.47,-131.36 815.365,-131.01"/>
<polygon fill="midnightblue" stroke="midnightblue" points="1359.24,-176.405 1369.43,-173.493 1359.65,-169.417 1359.24,-176.405"/>
</g>
<!-- Node11 -->
<g id="node11" class="node"><title>Node11</title>
<g id="a_node11"><a xlink:href="DragAndDrop_8cpp.html" target="_top" xlink:title="Engine/src/DragAndDrop.cpp">
<polygon fill="white" stroke="black" points="1775.55,-112.5 1775.55,-131.5 1919.55,-131.5 1919.55,-112.5 1775.55,-112.5"/>
<text text-anchor="middle" x="1847.55" y="-119.5" font-family="Helvetica,sans-Serif" font-size="10.00">Engine/src/DragAndDrop.cpp</text>
</a>
</g>
</g>
<!-- Node9&#45;&gt;Node11 -->
<g id="edge12" class="edge"><title>Node9&#45;&gt;Node11</title>
<path fill="none" stroke="midnightblue" d="M1505.85,-167.462C1584.15,-157.274 1707.11,-141.274 1782.21,-131.502"/>
<polygon fill="midnightblue" stroke="midnightblue" points="1505.04,-164.037 1495.58,-168.799 1505.95,-170.979 1505.04,-164.037"/>
</g>
<!-- Node9&#45;&gt;Node12 -->
<g id="edge13" class="edge"><title>Node9&#45;&gt;Node12</title>
<path fill="none" stroke="midnightblue" d="M1460.21,-164.232C1482.1,-154.131 1512.05,-140.309 1531.1,-131.516"/>
<polygon fill="midnightblue" stroke="midnightblue" points="1458.7,-161.075 1451.09,-168.444 1461.64,-167.431 1458.7,-161.075"/>
</g>
<!-- Node13 -->
<g id="node13" class="node"><title>Node13</title>
<g id="a_node13"><a xlink:href="Sprite_8cpp.html" target="_top" xlink:title="Engine/src/Sprite.cpp">
<polygon fill="white" stroke="black" points="833.55,-112.5 833.55,-131.5 943.55,-131.5 943.55,-112.5 833.55,-112.5"/>
<text text-anchor="middle" x="888.55" y="-119.5" font-family="Helvetica,sans-Serif" font-size="10.00">Engine/src/Sprite.cpp</text>
</a>
</g>
</g>
<!-- Node9&#45;&gt;Node13 -->
<g id="edge14" class="edge"><title>Node9&#45;&gt;Node13</title>
<path fill="none" stroke="midnightblue" d="M1359.17,-171.181C1264.91,-163.464 1096.32,-148.839 952.55,-132 949.653,-131.661 946.683,-131.297 943.687,-130.919"/>
<polygon fill="midnightblue" stroke="midnightblue" points="1358.92,-174.673 1369.17,-171.997 1359.49,-167.696 1358.92,-174.673"/>
</g>
<!-- Node14 -->
<g id="node14" class="node"><title>Node14</title>
<g id="a_node14"><a xlink:href="State_8cpp.html" target="_top" xlink:title="Engine/src/State.cpp">
<polygon fill="white" stroke="black" points="1093.55,-112.5 1093.55,-131.5 1201.55,-131.5 1201.55,-112.5 1093.55,-112.5"/>
<text text-anchor="middle" x="1147.55" y="-119.5" font-family="Helvetica,sans-Serif" font-size="10.00">Engine/src/State.cpp</text>
</a>
</g>
</g>
<!-- Node9&#45;&gt;Node14 -->
<g id="edge15" class="edge"><title>Node9&#45;&gt;Node14</title>
<path fill="none" stroke="midnightblue" d="M1377.33,-166.537C1323.47,-156.332 1242.55,-140.999 1192.5,-131.516"/>
<polygon fill="midnightblue" stroke="midnightblue" points="1376.91,-170.021 1387.39,-168.444 1378.22,-163.143 1376.91,-170.021"/>
</g>
<!-- Node15 -->
<g id="node15" class="node"><title>Node15</title>
<g id="a_node15"><a xlink:href="TileMap_8cpp.html" target="_top" xlink:title="Engine/src/TileMap.cpp">
<polygon fill="white" stroke="black" points="1638.05,-112.5 1638.05,-131.5 1757.05,-131.5 1757.05,-112.5 1638.05,-112.5"/>
<text text-anchor="middle" x="1697.55" y="-119.5" font-family="Helvetica,sans-Serif" font-size="10.00">Engine/src/TileMap.cpp</text>
</a>
</g>
</g>
<!-- Node9&#45;&gt;Node15 -->
<g id="edge16" class="edge"><title>Node9&#45;&gt;Node15</title>
<path fill="none" stroke="midnightblue" d="M1484.52,-166.41C1534.6,-156.204 1609.41,-140.96 1655.76,-131.516"/>
<polygon fill="midnightblue" stroke="midnightblue" points="1483.64,-163.017 1474.54,-168.444 1485.04,-169.876 1483.64,-163.017"/>
</g>
<!-- Node16 -->
<g id="node16" class="node"><title>Node16</title>
<g id="a_node16"><a xlink:href="Tileset_8cpp.html" target="_top" xlink:title="Engine/src/Tileset.cpp">
<polygon fill="white" stroke="black" points="961.55,-112.5 961.55,-131.5 1075.55,-131.5 1075.55,-112.5 961.55,-112.5"/>
<text text-anchor="middle" x="1018.55" y="-119.5" font-family="Helvetica,sans-Serif" font-size="10.00">Engine/src/Tileset.cpp</text>
</a>
</g>
</g>
<!-- Node9&#45;&gt;Node16 -->
<g id="edge17" class="edge"><title>Node9&#45;&gt;Node16</title>
<path fill="none" stroke="midnightblue" d="M1359.25,-167.671C1288.81,-158.671 1179.38,-144.596 1084.55,-132 1081.68,-131.619 1078.75,-131.227 1075.78,-130.829"/>
<polygon fill="midnightblue" stroke="midnightblue" points="1358.99,-171.166 1369.35,-168.961 1359.87,-164.222 1358.99,-171.166"/>
</g>
<!-- Node17 -->
<g id="node17" class="node"><title>Node17</title>
<g id="a_node17"><a xlink:href="EndState_8cpp.html" target="_top" xlink:title="Game/src/EndState.cpp">
<polygon fill="white" stroke="black" points="1235.55,-0.5 1235.55,-19.5 1357.55,-19.5 1357.55,-0.5 1235.55,-0.5"/>
<text text-anchor="middle" x="1296.55" y="-7.5" font-family="Helvetica,sans-Serif" font-size="10.00">Game/src/EndState.cpp</text>
</a>
</g>
</g>
<!-- Node9&#45;&gt;Node17 -->
<g id="edge18" class="edge"><title>Node9&#45;&gt;Node17</title>
<path fill="none" stroke="midnightblue" d="M1431.13,-158.212C1428.24,-132.275 1419.53,-85.38 1393.55,-56 1377.32,-37.6438 1352.03,-26.2533 1331.35,-19.5255"/>
<polygon fill="midnightblue" stroke="midnightblue" points="1427.65,-158.597 1432.07,-168.226 1434.62,-157.942 1427.65,-158.597"/>
</g>
<!-- Node18 -->
<g id="node18" class="node"><title>Node18</title>
<g id="a_node18"><a xlink:href="StageState_8cpp.html" target="_top" xlink:title="Game/src/StageState.cpp">
<polygon fill="white" stroke="black" points="2026.55,-56.5 2026.55,-75.5 2156.55,-75.5 2156.55,-56.5 2026.55,-56.5"/>
<text text-anchor="middle" x="2091.55" y="-63.5" font-family="Helvetica,sans-Serif" font-size="10.00">Game/src/StageState.cpp</text>
</a>
</g>
</g>
<!-- Node9&#45;&gt;Node18 -->
<g id="edge20" class="edge"><title>Node9&#45;&gt;Node18</title>
<path fill="none" stroke="midnightblue" d="M1438,-158.517C1443.55,-143.252 1453.76,-122.455 1470.55,-112 1516.89,-83.1401 1876.74,-71.8068 2026.5,-68.3097"/>
<polygon fill="midnightblue" stroke="midnightblue" points="1434.54,-157.835 1434.75,-168.428 1441.19,-160.013 1434.54,-157.835"/>
</g>
<!-- Node19 -->
<g id="node19" class="node"><title>Node19</title>
<g id="a_node19"><a xlink:href="TitleState_8cpp.html" target="_top" xlink:title="Game/src/TitleState.cpp">
<polygon fill="white" stroke="black" points="1262.05,-56.5 1262.05,-75.5 1385.05,-75.5 1385.05,-56.5 1262.05,-56.5"/>
<text text-anchor="middle" x="1323.55" y="-63.5" font-family="Helvetica,sans-Serif" font-size="10.00">Game/src/TitleState.cpp</text>
</a>
</g>
</g>
<!-- Node9&#45;&gt;Node19 -->
<g id="edge21" class="edge"><title>Node9&#45;&gt;Node19</title>
<path fill="none" stroke="midnightblue" d="M1416.9,-161.205C1393.54,-137.627 1350.33,-94.0294 1332.06,-75.5914"/>
<polygon fill="midnightblue" stroke="midnightblue" points="1414.47,-163.729 1424,-168.368 1419.44,-158.802 1414.47,-163.729"/>
</g>
<!-- Node20 -->
<g id="node20" class="node"><title>Node20</title>
<g id="a_node20"><a xlink:href="Tower_8cpp.html" target="_top" xlink:title="Game/src/Tower.cpp">
<polygon fill="white" stroke="black" points="2131.55,-112.5 2131.55,-131.5 2239.55,-131.5 2239.55,-112.5 2131.55,-112.5"/>
<text text-anchor="middle" x="2185.55" y="-119.5" font-family="Helvetica,sans-Serif" font-size="10.00">Game/src/Tower.cpp</text>
</a>
</g>
</g>
<!-- Node9&#45;&gt;Node20 -->
<g id="edge22" class="edge"><title>Node9&#45;&gt;Node20</title>
<path fill="none" stroke="midnightblue" d="M1506.1,-172.372C1626.75,-164.679 1874.22,-148.469 2083.55,-132 2099.06,-130.78 2115.88,-129.343 2131.31,-127.979"/>
<polygon fill="midnightblue" stroke="midnightblue" points="1505.64,-168.895 1495.88,-173.023 1506.08,-175.881 1505.64,-168.895"/>
</g>
<!-- Node21&#45;&gt;Node15 -->
<g id="edge33" class="edge"><title>Node21&#45;&gt;Node15</title>
<path fill="none" stroke="midnightblue" d="M1936.54,-222.497C1900.19,-215.1 1853.33,-203.701 1813.55,-188 1773.83,-172.32 1730.94,-145.358 1710.2,-131.608"/>
<polygon fill="midnightblue" stroke="midnightblue" points="1936.01,-225.959 1946.5,-224.477 1937.37,-219.094 1936.01,-225.959"/>
</g>
<!-- Node21&#45;&gt;Node22 -->
<g id="edge24" class="edge"><title>Node21&#45;&gt;Node22</title>
<path fill="none" stroke="midnightblue" d="M2023.31,-219.862C2043.71,-209.849 2071.22,-196.346 2088.92,-187.655"/>
<polygon fill="midnightblue" stroke="midnightblue" points="2021.66,-216.775 2014.22,-224.324 2024.74,-223.059 2021.66,-216.775"/>
</g>
<!-- Node21&#45;&gt;Node23 -->
<g id="edge34" class="edge"><title>Node21&#45;&gt;Node23</title>
<path fill="none" stroke="midnightblue" d="M1998.25,-214.348C2000.44,-190.254 2004.16,-149.308 2005.77,-131.591"/>
<polygon fill="midnightblue" stroke="midnightblue" points="1994.75,-214.093 1997.33,-224.368 2001.73,-214.726 1994.75,-214.093"/>
</g>
<!-- Node21&#45;&gt;Node25 -->
<g id="edge35" class="edge"><title>Node21&#45;&gt;Node25</title>
<path fill="none" stroke="midnightblue" d="M1971.96,-219.453C1953.87,-209.483 1929.82,-196.228 1914.26,-187.655"/>
<polygon fill="midnightblue" stroke="midnightblue" points="1970.36,-222.563 1980.8,-224.324 1973.74,-216.432 1970.36,-222.563"/>
</g>
<!-- Node26 -->
<g id="node26" class="node"><title>Node26</title>
<g id="a_node26"><a xlink:href="WaveManager_8cpp.html" target="_top" xlink:title="Game/src/WaveManager.cpp">
<polygon fill="white" stroke="black" points="2260.55,-56.5 2260.55,-75.5 2404.55,-75.5 2404.55,-56.5 2260.55,-56.5"/>
<text text-anchor="middle" x="2332.55" y="-63.5" font-family="Helvetica,sans-Serif" font-size="10.00">Game/src/WaveManager.cpp</text>
</a>
</g>
</g>
<!-- Node21&#45;&gt;Node26 -->
<g id="edge49" class="edge"><title>Node21&#45;&gt;Node26</title>
<path fill="none" stroke="midnightblue" d="M2069.73,-225.27C2163.45,-215.03 2314.91,-197.193 2323.55,-188 2353.12,-156.526 2341.1,-97.8681 2335.14,-75.7459"/>
<polygon fill="midnightblue" stroke="midnightblue" points="2069.29,-221.797 2059.72,-226.358 2070.04,-228.756 2069.29,-221.797"/>
</g>
<!-- Node21&#45;&gt;Node27 -->
<g id="edge38" class="edge"><title>Node21&#45;&gt;Node27</title>
<path fill="none" stroke="midnightblue" d="M2069.89,-223.896C2154.79,-213.356 2293.02,-196.197 2371.72,-186.427"/>
<polygon fill="midnightblue" stroke="midnightblue" points="2069.3,-220.443 2059.8,-225.148 2070.16,-227.389 2069.3,-220.443"/>
</g>
<!-- Node21&#45;&gt;Node30 -->
<g id="edge46" class="edge"><title>Node21&#45;&gt;Node30</title>
<path fill="none" stroke="midnightblue" d="M2047.74,-222.41C2097.06,-212.204 2170.74,-196.96 2216.39,-187.516"/>
<polygon fill="midnightblue" stroke="midnightblue" points="2046.99,-218.99 2037.91,-224.444 2048.41,-225.845 2046.99,-218.99"/>
</g>
<!-- Node22&#45;&gt;Node11 -->
<g id="edge25" class="edge"><title>Node22&#45;&gt;Node11</title>
<path fill="none" stroke="midnightblue" d="M2055.45,-166.346C2006.5,-156.141 1933.6,-140.94 1888.4,-131.516"/>
<polygon fill="midnightblue" stroke="midnightblue" points="2055.01,-169.829 2065.51,-168.444 2056.44,-162.976 2055.01,-169.829"/>
</g>
<!-- Node22&#45;&gt;Node20 -->
<g id="edge32" class="edge"><title>Node22&#45;&gt;Node20</title>
<path fill="none" stroke="midnightblue" d="M2127.58,-162.622C2142.02,-152.757 2160.69,-139.992 2172.89,-131.655"/>
<polygon fill="midnightblue" stroke="midnightblue" points="2125.52,-159.791 2119.24,-168.324 2129.47,-165.57 2125.52,-159.791"/>
</g>
<!-- Node22&#45;&gt;Node23 -->
<g id="edge26" class="edge"><title>Node22&#45;&gt;Node23</title>
<path fill="none" stroke="midnightblue" d="M2081.46,-163.453C2063,-153.483 2038.45,-140.228 2022.58,-131.655"/>
<polygon fill="midnightblue" stroke="midnightblue" points="2080.02,-166.652 2090.48,-168.324 2083.35,-160.493 2080.02,-166.652"/>
</g>
<!-- Node23&#45;&gt;Node18 -->
<g id="edge30" class="edge"><title>Node23&#45;&gt;Node18</title>
<path fill="none" stroke="midnightblue" d="M2028.74,-106.901C2044.33,-96.9986 2064.68,-84.0705 2077.93,-75.6545"/>
<polygon fill="midnightblue" stroke="midnightblue" points="2026.77,-104.007 2020.21,-112.324 2030.52,-109.916 2026.77,-104.007"/>
</g>
<!-- Node23&#45;&gt;Node19 -->
<g id="edge31" class="edge"><title>Node23&#45;&gt;Node19</title>
<path fill="none" stroke="midnightblue" d="M1927.62,-111.949C1722.82,-92.705 1493.29,-77.5235 1385.46,-70.7714"/>
<polygon fill="midnightblue" stroke="midnightblue" points="1927.38,-115.441 1937.66,-112.898 1928.04,-108.473 1927.38,-115.441"/>
</g>
<!-- Node23&#45;&gt;Node24 -->
<g id="edge27" class="edge"><title>Node23&#45;&gt;Node24</title>
<path fill="none" stroke="midnightblue" d="M1927.81,-112.737C1925.02,-112.475 1922.26,-112.228 1919.55,-112 1619.74,-86.7445 1543.26,-102.423 1243.55,-76 1241.77,-75.843 1239.96,-75.6762 1238.15,-75.5013"/>
<polygon fill="midnightblue" stroke="midnightblue" points="1927.72,-116.245 1938.01,-113.742 1928.4,-109.279 1927.72,-116.245"/>
</g>
<!-- Node24&#45;&gt;Node17 -->
<g id="edge29" class="edge"><title>Node24&#45;&gt;Node17</title>
<path fill="none" stroke="midnightblue" d="M1207.21,-52.2321C1229.1,-42.1312 1259.05,-28.3091 1278.1,-19.5164"/>
<polygon fill="midnightblue" stroke="midnightblue" points="1205.7,-49.075 1198.09,-56.4435 1208.64,-55.4308 1205.7,-49.075"/>
</g>
<!-- Node24&#45;&gt;Node23 -->
<g id="edge28" class="edge"><title>Node24&#45;&gt;Node23</title>
<path fill="none" stroke="midnightblue" d="M1253.92,-75.2841C1256.49,-75.5392 1259.05,-75.7792 1261.55,-76 1561.26,-102.423 1637.74,-86.7445 1937.55,-112 1939.32,-112.149 1941.1,-112.306 1942.91,-112.469"/>
<polygon fill="midnightblue" stroke="midnightblue" points="1254.17,-71.7918 1243.86,-74.235 1253.44,-78.754 1254.17,-71.7918"/>
</g>
<!-- Node25&#45;&gt;Node23 -->
<g id="edge36" class="edge"><title>Node25&#45;&gt;Node23</title>
<path fill="none" stroke="midnightblue" d="M1925.1,-163.726C1945.1,-153.727 1971.94,-140.307 1989.24,-131.655"/>
<polygon fill="midnightblue" stroke="midnightblue" points="1923.28,-160.721 1915.9,-168.324 1926.41,-166.982 1923.28,-160.721"/>
</g>
<!-- Node25&#45;&gt;Node26 -->
<g id="edge37" class="edge"><title>Node25&#45;&gt;Node26</title>
<path fill="none" stroke="midnightblue" d="M1957.1,-166.435C1994.03,-158.878 2042.35,-147.331 2083.55,-132 2101.81,-125.207 2104.2,-118.542 2122.55,-112 2171.72,-94.4702 2229.91,-82.6554 2272.56,-75.5474"/>
<polygon fill="midnightblue" stroke="midnightblue" points="1956.12,-163.062 1947,-168.46 1957.5,-169.925 1956.12,-163.062"/>
</g>
<!-- Node27&#45;&gt;Node5 -->
<g id="edge43" class="edge"><title>Node27&#45;&gt;Node5</title>
<path fill="none" stroke="midnightblue" d="M2475.31,-165.959C2515.72,-155.76 2574.92,-140.822 2611.8,-131.516"/>
<polygon fill="midnightblue" stroke="midnightblue" points="2474.3,-162.603 2465.46,-168.444 2476.01,-169.39 2474.3,-162.603"/>
</g>
<!-- Node27&#45;&gt;Node18 -->
<g id="edge44" class="edge"><title>Node27&#45;&gt;Node18</title>
<path fill="none" stroke="midnightblue" d="M2403.1,-164.442C2370.7,-150.447 2315.99,-127.723 2267.55,-112 2221.2,-96.9576 2166.69,-83.6815 2130.76,-75.5185"/>
<polygon fill="midnightblue" stroke="midnightblue" points="2401.84,-167.71 2412.4,-168.488 2404.63,-161.291 2401.84,-167.71"/>
</g>
<!-- Node27&#45;&gt;Node26 -->
<g id="edge45" class="edge"><title>Node27&#45;&gt;Node26</title>
<path fill="none" stroke="midnightblue" d="M2417.06,-160.897C2395.77,-137.249 2356.8,-93.9493 2340.28,-75.5914"/>
<polygon fill="midnightblue" stroke="midnightblue" points="2414.49,-163.277 2423.78,-168.368 2419.69,-158.594 2414.49,-163.277"/>
</g>
<!-- Node28 -->
<g id="node28" class="node"><title>Node28</title>
<g id="a_node28"><a xlink:href="GameResources_8h.html" target="_top" xlink:title="Game/include/GameResources.h">
<polygon fill="white" stroke="black" points="2410.05,-112.5 2410.05,-131.5 2571.05,-131.5 2571.05,-112.5 2410.05,-112.5"/>
<text text-anchor="middle" x="2490.55" y="-119.5" font-family="Helvetica,sans-Serif" font-size="10.00">Game/include/GameResources.h</text>
</a>
</g>
</g>
<!-- Node27&#45;&gt;Node28 -->
<g id="edge39" class="edge"><title>Node27&#45;&gt;Node28</title>
<path fill="none" stroke="midnightblue" d="M2448.44,-161.537C2458.96,-151.909 2472.12,-139.869 2480.9,-131.834"/>
<polygon fill="midnightblue" stroke="midnightblue" points="2446.04,-158.99 2441.03,-168.324 2450.77,-164.154 2446.04,-158.99"/>
</g>
<!-- Node28&#45;&gt;Node18 -->
<g id="edge41" class="edge"><title>Node28&#45;&gt;Node18</title>
<path fill="none" stroke="midnightblue" d="M2416.97,-111.042C2341.61,-100.843 2225.71,-85.1569 2154.48,-75.5164"/>
<polygon fill="midnightblue" stroke="midnightblue" points="2416.95,-114.571 2427.33,-112.444 2417.89,-107.634 2416.95,-114.571"/>
</g>
<!-- Node28&#45;&gt;Node26 -->
<g id="edge42" class="edge"><title>Node28&#45;&gt;Node26</title>
<path fill="none" stroke="midnightblue" d="M2455.94,-109.172C2426.19,-99.0039 2384,-84.5852 2357.47,-75.5164"/>
<polygon fill="midnightblue" stroke="midnightblue" points="2454.92,-112.521 2465.51,-112.444 2457.18,-105.898 2454.92,-112.521"/>
</g>
<!-- Node29 -->
<g id="node29" class="node"><title>Node29</title>
<g id="a_node29"><a xlink:href="GameResources_8cpp.html" target="_top" xlink:title="Game/src/GameResources.cpp">
<polygon fill="white" stroke="black" points="2423.05,-56.5 2423.05,-75.5 2578.05,-75.5 2578.05,-56.5 2423.05,-56.5"/>
<text text-anchor="middle" x="2500.55" y="-63.5" font-family="Helvetica,sans-Serif" font-size="10.00">Game/src/GameResources.cpp</text>
</a>
</g>
</g>
<!-- Node28&#45;&gt;Node29 -->
<g id="edge40" class="edge"><title>Node28&#45;&gt;Node29</title>
<path fill="none" stroke="midnightblue" d="M2494.05,-102.101C2495.71,-93.1357 2497.61,-82.8579 2498.93,-75.7511"/>
<polygon fill="midnightblue" stroke="midnightblue" points="2490.58,-101.613 2492.2,-112.083 2497.46,-102.888 2490.58,-101.613"/>
</g>
<!-- Node30&#45;&gt;Node18 -->
<g id="edge47" class="edge"><title>Node30&#45;&gt;Node18</title>
<path fill="none" stroke="midnightblue" d="M2260.04,-158.029C2260.83,-143.723 2259.39,-124.494 2248.55,-112 2225.88,-85.8709 2189.16,-74.426 2156.93,-69.6038"/>
<polygon fill="midnightblue" stroke="midnightblue" points="2256.54,-157.938 2259.07,-168.225 2263.51,-158.601 2256.54,-157.938"/>
</g>
<!-- Node30&#45;&gt;Node20 -->
<g id="edge48" class="edge"><title>Node30&#45;&gt;Node20</title>
<path fill="none" stroke="midnightblue" d="M2237.68,-162.101C2224.73,-152.382 2208.25,-140.027 2197.33,-131.834"/>
<polygon fill="midnightblue" stroke="midnightblue" points="2235.88,-165.124 2245.98,-168.324 2240.08,-159.524 2235.88,-165.124"/>
</g>
<!-- Node31&#45;&gt;Node14 -->
<g id="edge64" class="edge"><title>Node31&#45;&gt;Node14</title>
<path fill="none" stroke="midnightblue" d="M1147.55,-214.348C1147.55,-190.254 1147.55,-149.308 1147.55,-131.591"/>
<polygon fill="midnightblue" stroke="midnightblue" points="1144.05,-214.368 1147.55,-224.368 1151.05,-214.369 1144.05,-214.368"/>
</g>
<!-- Node31&#45;&gt;Node23 -->
<g id="edge65" class="edge"><title>Node31&#45;&gt;Node23</title>
<path fill="none" stroke="midnightblue" d="M1215.32,-224.526C1287.14,-215.531 1403.85,-200.866 1504.55,-188 1661.24,-167.98 1845.38,-144.028 1941.18,-131.536"/>
<polygon fill="midnightblue" stroke="midnightblue" points="1214.55,-221.096 1205.06,-225.811 1215.42,-228.042 1214.55,-221.096"/>
</g>
<!-- Node32 -->
<g id="node32" class="node"><title>Node32</title>
<g id="a_node32"><a xlink:href="Game_8h.html" target="_top" xlink:title="Engine/include/Game.h">
<polygon fill="white" stroke="black" points="450.55,-168.5 450.55,-187.5 568.55,-187.5 568.55,-168.5 450.55,-168.5"/>
<text text-anchor="middle" x="509.55" y="-175.5" font-family="Helvetica,sans-Serif" font-size="10.00">Engine/include/Game.h</text>
</a>
</g>
</g>
<!-- Node31&#45;&gt;Node32 -->
<g id="edge51" class="edge"><title>Node31&#45;&gt;Node32</title>
<path fill="none" stroke="midnightblue" d="M1079.59,-228.044C975.061,-220.295 768.578,-204.482 593.55,-188 585.519,-187.244 577.061,-186.397 568.731,-185.534"/>
<polygon fill="midnightblue" stroke="midnightblue" points="1079.45,-231.544 1089.68,-228.791 1079.97,-224.563 1079.45,-231.544"/>
</g>
<!-- Node38 -->
<g id="node38" class="node"><title>Node38</title>
<g id="a_node38"><a xlink:href="TitleState_8h.html" target="_top" xlink:title="Game/include/TitleState.h">
<polygon fill="white" stroke="black" points="602.55,-168.5 602.55,-187.5 732.55,-187.5 732.55,-168.5 602.55,-168.5"/>
<text text-anchor="middle" x="667.55" y="-175.5" font-family="Helvetica,sans-Serif" font-size="10.00">Game/include/TitleState.h</text>
</a>
</g>
</g>
<!-- Node31&#45;&gt;Node38 -->
<g id="edge66" class="edge"><title>Node31&#45;&gt;Node38</title>
<path fill="none" stroke="midnightblue" d="M1079.59,-225.355C987.393,-214.982 823.789,-196.577 732.94,-186.356"/>
<polygon fill="midnightblue" stroke="midnightblue" points="1079.32,-228.846 1089.65,-226.486 1080.1,-221.89 1079.32,-228.846"/>
</g>
<!-- Node32&#45;&gt;Node10 -->
<g id="edge55" class="edge"><title>Node32&#45;&gt;Node10</title>
<path fill="none" stroke="midnightblue" d="M558.379,-166.281C604.866,-156.077 673.913,-140.92 716.753,-131.516"/>
<polygon fill="midnightblue" stroke="midnightblue" points="557.546,-162.881 548.529,-168.444 559.047,-169.718 557.546,-162.881"/>
</g>
<!-- Node32&#45;&gt;Node13 -->
<g id="edge58" class="edge"><title>Node32&#45;&gt;Node13</title>
<path fill="none" stroke="midnightblue" d="M578.822,-167.13C652.049,-156.697 766.082,-140.449 833.44,-130.852"/>
<polygon fill="midnightblue" stroke="midnightblue" points="578.175,-163.687 568.769,-168.562 579.163,-170.617 578.175,-163.687"/>
</g>
<!-- Node32&#45;&gt;Node16 -->
<g id="edge59" class="edge"><title>Node32&#45;&gt;Node16</title>
<path fill="none" stroke="midnightblue" d="M578.92,-169.53C583.87,-169.009 588.786,-168.494 593.55,-168 753.05,-151.458 793.304,-150.836 952.55,-132 955.421,-131.66 958.361,-131.301 961.329,-130.93"/>
<polygon fill="midnightblue" stroke="midnightblue" points="578.321,-166.074 568.745,-170.607 579.058,-173.035 578.321,-166.074"/>
</g>
<!-- Node32&#45;&gt;Node18 -->
<g id="edge61" class="edge"><title>Node32&#45;&gt;Node18</title>
<path fill="none" stroke="midnightblue" d="M498.275,-159.455C490.448,-144.85 483.405,-124.493 495.55,-112 522.662,-84.1131 1729.62,-70.5301 2026.24,-67.6096"/>
<polygon fill="midnightblue" stroke="midnightblue" points="495.257,-161.228 503.337,-168.081 501.294,-157.685 495.257,-161.228"/>
</g>
<!-- Node32&#45;&gt;Node19 -->
<g id="edge62" class="edge"><title>Node32&#45;&gt;Node19</title>
<path fill="none" stroke="midnightblue" d="M485.459,-162.888C465.181,-149.31 441.807,-128.472 457.55,-112 488.097,-80.0382 1208.5,-79.783 1252.55,-76 1255.64,-75.7342 1258.81,-75.4345 1262.01,-75.11"/>
<polygon fill="midnightblue" stroke="midnightblue" points="483.806,-165.985 494.122,-168.401 487.565,-160.079 483.806,-165.985"/>
</g>
<!-- Node32&#45;&gt;Node26 -->
<g id="edge63" class="edge"><title>Node32&#45;&gt;Node26</title>
<path fill="none" stroke="midnightblue" d="M509.464,-157.775C510.537,-142.718 514.722,-122.604 528.55,-112 564.643,-84.3224 2120.1,-77.724 2165.55,-76 2196.6,-74.8224 2230.86,-73.0569 2260.24,-71.4007"/>
<polygon fill="midnightblue" stroke="midnightblue" points="505.957,-157.958 509.143,-168.063 512.954,-158.177 505.957,-157.958"/>
</g>
<!-- Node33 -->
<g id="node33" class="node"><title>Node33</title>
<g id="a_node33"><a xlink:href="Text_8h.html" target="_top" xlink:title="Engine/include/Text.h">
<polygon fill="white" stroke="black" points="294.05,-112.5 294.05,-131.5 405.05,-131.5 405.05,-112.5 294.05,-112.5"/>
<text text-anchor="middle" x="349.55" y="-119.5" font-family="Helvetica,sans-Serif" font-size="10.00">Engine/include/Text.h</text>
</a>
</g>
</g>
<!-- Node32&#45;&gt;Node33 -->
<g id="edge52" class="edge"><title>Node32&#45;&gt;Node33</title>
<path fill="none" stroke="midnightblue" d="M474.504,-165.172C444.376,-155.004 401.654,-140.585 374.784,-131.516"/>
<polygon fill="midnightblue" stroke="midnightblue" points="473.603,-168.562 484.198,-168.444 475.842,-161.929 473.603,-168.562"/>
</g>
<!-- Node35 -->
<g id="node35" class="node"><title>Node35</title>
<g id="a_node35"><a xlink:href="Game_8cpp.html" target="_top" xlink:title="Engine/src/Game.cpp">
<polygon fill="white" stroke="black" points="14.0501,-112.5 14.0501,-131.5 125.05,-131.5 125.05,-112.5 14.0501,-112.5"/>
<text text-anchor="middle" x="69.5501" y="-119.5" font-family="Helvetica,sans-Serif" font-size="10.00">Engine/src/Game.cpp</text>
</a>
</g>
</g>
<!-- Node32&#45;&gt;Node35 -->
<g id="edge56" class="edge"><title>Node32&#45;&gt;Node35</title>
<path fill="none" stroke="midnightblue" d="M440.106,-169.049C364.797,-160.337 241.067,-145.764 134.55,-132 131.499,-131.606 128.369,-131.195 125.21,-130.774"/>
<polygon fill="midnightblue" stroke="midnightblue" points="440.069,-172.568 450.405,-170.239 440.872,-165.614 440.069,-172.568"/>
</g>
<!-- Node36 -->
<g id="node36" class="node"><title>Node36</title>
<g id="a_node36"><a xlink:href="Resources_8cpp.html" target="_top" xlink:title="Engine/src/Resources.cpp">
<polygon fill="white" stroke="black" points="143.55,-112.5 143.55,-131.5 275.55,-131.5 275.55,-112.5 143.55,-112.5"/>
<text text-anchor="middle" x="209.55" y="-119.5" font-family="Helvetica,sans-Serif" font-size="10.00">Engine/src/Resources.cpp</text>
</a>
</g>
</g>
<!-- Node32&#45;&gt;Node36 -->
<g id="edge57" class="edge"><title>Node32&#45;&gt;Node36</title>
<path fill="none" stroke="midnightblue" d="M452.129,-166.664C395.434,-156.459 309.764,-141.039 256.864,-131.516"/>
<polygon fill="midnightblue" stroke="midnightblue" points="451.552,-170.117 462.014,-168.444 452.792,-163.227 451.552,-170.117"/>
</g>
<!-- Node37 -->
<g id="node37" class="node"><title>Node37</title>
<g id="a_node37"><a xlink:href="main_8cpp.html" target="_top" xlink:title="Game/src/main.cpp">
<polygon fill="white" stroke="black" points="537.55,-112.5 537.55,-131.5 639.55,-131.5 639.55,-112.5 537.55,-112.5"/>
<text text-anchor="middle" x="588.55" y="-119.5" font-family="Helvetica,sans-Serif" font-size="10.00">Game/src/main.cpp</text>
</a>
</g>
</g>
<!-- Node32&#45;&gt;Node37 -->
<g id="edge60" class="edge"><title>Node32&#45;&gt;Node37</title>
<path fill="none" stroke="midnightblue" d="M530.584,-162.622C545.016,-152.757 563.692,-139.992 575.889,-131.655"/>
<polygon fill="midnightblue" stroke="midnightblue" points="528.523,-159.791 522.243,-168.324 532.474,-165.57 528.523,-159.791"/>
</g>
<!-- Node33&#45;&gt;Node24 -->
<g id="edge54" class="edge"><title>Node33&#45;&gt;Node24</title>
<path fill="none" stroke="midnightblue" d="M415.603,-112.383C416.929,-112.25 418.246,-112.122 419.55,-112 676.824,-87.873 984.38,-74.3525 1115.38,-69.3094"/>
<polygon fill="midnightblue" stroke="midnightblue" points="414.868,-108.941 405.296,-113.482 415.611,-115.901 414.868,-108.941"/>
</g>
<!-- Node34 -->
<g id="node34" class="node"><title>Node34</title>
<g id="a_node34"><a xlink:href="Text_8cpp.html" target="_top" xlink:title="Engine/src/Text.cpp">
<polygon fill="white" stroke="black" points="297.55,-56.5 297.55,-75.5 401.55,-75.5 401.55,-56.5 297.55,-56.5"/>
<text text-anchor="middle" x="349.55" y="-63.5" font-family="Helvetica,sans-Serif" font-size="10.00">Engine/src/Text.cpp</text>
</a>
</g>
</g>
<!-- Node33&#45;&gt;Node34 -->
<g id="edge53" class="edge"><title>Node33&#45;&gt;Node34</title>
<path fill="none" stroke="midnightblue" d="M349.55,-101.805C349.55,-92.9102 349.55,-82.7798 349.55,-75.7511"/>
<polygon fill="midnightblue" stroke="midnightblue" points="346.05,-102.083 349.55,-112.083 353.05,-102.083 346.05,-102.083"/>
</g>
<!-- Node38&#45;&gt;Node19 -->
<g id="edge68" class="edge"><title>Node38&#45;&gt;Node19</title>
<path fill="none" stroke="midnightblue" d="M667.583,-157.927C668.725,-142.958 672.945,-122.889 686.55,-112 735.748,-72.6232 1189.82,-81.9652 1252.55,-76 1255.64,-75.706 1258.81,-75.3835 1262,-75.041"/>
<polygon fill="midnightblue" stroke="midnightblue" points="664.077,-158.021 667.205,-168.143 671.073,-158.279 664.077,-158.021"/>
</g>
<!-- Node38&#45;&gt;Node37 -->
<g id="edge67" class="edge"><title>Node38&#45;&gt;Node37</title>
<path fill="none" stroke="midnightblue" d="M646.516,-162.622C632.084,-152.757 613.409,-139.992 601.211,-131.655"/>
<polygon fill="midnightblue" stroke="midnightblue" points="644.627,-165.57 654.857,-168.324 648.577,-159.791 644.627,-165.57"/>
</g>
<!-- Node39&#45;&gt;Node5 -->
<g id="edge79" class="edge"><title>Node39&#45;&gt;Node5</title>
<path fill="none" stroke="midnightblue" d="M2618.88,-214.674C2625.88,-190.625 2637.87,-149.388 2643.05,-131.591"/>
<polygon fill="midnightblue" stroke="midnightblue" points="2615.49,-213.789 2616.06,-224.368 2622.22,-215.744 2615.49,-213.789"/>
</g>
<!-- Node39&#45;&gt;Node27 -->
<g id="edge78" class="edge"><title>Node39&#45;&gt;Node27</title>
<path fill="none" stroke="midnightblue" d="M2575.02,-221.568C2540.69,-211.381 2491.22,-196.703 2460.25,-187.516"/>
<polygon fill="midnightblue" stroke="midnightblue" points="2574.13,-224.954 2584.71,-224.444 2576.12,-218.244 2574.13,-224.954"/>
</g>
<!-- Node40 -->
<g id="node40" class="node"><title>Node40</title>
<g id="a_node40"><a xlink:href="HitPoints_8cpp.html" target="_top" xlink:title="Engine/src/HitPoints.cpp">
<polygon fill="white" stroke="black" points="2642.05,-168.5 2642.05,-187.5 2767.05,-187.5 2767.05,-168.5 2642.05,-168.5"/>
<text text-anchor="middle" x="2704.55" y="-175.5" font-family="Helvetica,sans-Serif" font-size="10.00">Engine/src/HitPoints.cpp</text>
</a>
</g>
</g>
<!-- Node39&#45;&gt;Node40 -->
<g id="edge77" class="edge"><title>Node39&#45;&gt;Node40</title>
<path fill="none" stroke="midnightblue" d="M2636.84,-219.177C2653.59,-209.241 2675.65,-196.149 2689.97,-187.655"/>
<polygon fill="midnightblue" stroke="midnightblue" points="2634.98,-216.211 2628.17,-224.324 2638.56,-222.231 2634.98,-216.211"/>
</g>
</g>
</svg>
