<?xml version="1.0" encoding="UTF-8" standalone="no"?>
<!DOCTYPE svg PUBLIC "-//W3C//DTD SVG 1.1//EN"
 "http://www.w3.org/Graphics/SVG/1.1/DTD/svg11.dtd">
<!-- Generated by graphviz version 2.36.0 (20140111.2315)
 -->
<!-- Title: Engine/include/ComponentType.h Pages: 1 -->
<svg width="2709pt" height="432pt"
 viewBox="0.00 0.00 2709.36 432.00" xmlns="http://www.w3.org/2000/svg" xmlns:xlink="http://www.w3.org/1999/xlink">
<g id="graph0" class="graph" transform="scale(1 1) rotate(0) translate(4 428)">
<title>Engine/include/ComponentType.h</title>
<polygon fill="white" stroke="none" points="-4,4 -4,-428 2705.36,-428 2705.36,4 -4,4"/>
<!-- Node1 -->
<g id="node1" class="node"><title>Node1</title>
<polygon fill="#bfbfbf" stroke="black" points="1854.36,-393 1854.36,-423 1988.36,-423 1988.36,-393 1854.36,-393"/>
<text text-anchor="start" x="1862.36" y="-411" font-family="Helvetica,sans-Serif" font-size="10.00">Engine/include/Component</text>
<text text-anchor="middle" x="1921.36" y="-400" font-family="Helvetica,sans-Serif" font-size="10.00">Type.h</text>
</g>
<!-- Node2 -->
<g id="node2" class="node"><title>Node2</title>
<g id="a_node2"><a xlink:href="Component_8h.html" target="_top" xlink:title="Engine/include/Component.h">
<polygon fill="white" stroke="black" points="1900.36,-336.5 1900.36,-355.5 2042.36,-355.5 2042.36,-336.5 1900.36,-336.5"/>
<text text-anchor="middle" x="1971.36" y="-343.5" font-family="Helvetica,sans-Serif" font-size="10.00">Engine/include/Component.h</text>
</a>
</g>
</g>
<!-- Node1&#45;&gt;Node2 -->
<g id="edge1" class="edge"><title>Node1&#45;&gt;Node2</title>
<path fill="none" stroke="midnightblue" d="M1939.68,-385.021C1948.14,-374.868 1957.7,-363.393 1964.09,-355.731"/>
<polygon fill="midnightblue" stroke="midnightblue" points="1936.93,-382.858 1933.21,-392.781 1942.3,-387.339 1936.93,-382.858"/>
</g>
<!-- Node6 -->
<g id="node6" class="node"><title>Node6</title>
<g id="a_node6"><a xlink:href="GameObject_8h.html" target="_top" xlink:title="Engine/include/GameObject.h">
<polygon fill="white" stroke="black" points="1706.36,-280.5 1706.36,-299.5 1852.36,-299.5 1852.36,-280.5 1706.36,-280.5"/>
<text text-anchor="middle" x="1779.36" y="-287.5" font-family="Helvetica,sans-Serif" font-size="10.00">Engine/include/GameObject.h</text>
</a>
</g>
</g>
<!-- Node1&#45;&gt;Node6 -->
<g id="edge80" class="edge"><title>Node1&#45;&gt;Node6</title>
<path fill="none" stroke="midnightblue" d="M1896.05,-386.325C1864.6,-360.633 1812.36,-317.953 1790.02,-299.707"/>
<polygon fill="midnightblue" stroke="midnightblue" points="1893.99,-389.16 1903.95,-392.776 1898.42,-383.739 1893.99,-389.16"/>
</g>
<!-- Node3 -->
<g id="node3" class="node"><title>Node3</title>
<g id="a_node3"><a xlink:href="AIGoDown_8h.html" target="_top" xlink:title="Engine/include/AIGoDown.h">
<polygon fill="white" stroke="black" points="2506.36,-280.5 2506.36,-299.5 2646.36,-299.5 2646.36,-280.5 2506.36,-280.5"/>
<text text-anchor="middle" x="2576.36" y="-287.5" font-family="Helvetica,sans-Serif" font-size="10.00">Engine/include/AIGoDown.h</text>
</a>
</g>
</g>
<!-- Node2&#45;&gt;Node3 -->
<g id="edge2" class="edge"><title>Node2&#45;&gt;Node3</title>
<path fill="none" stroke="midnightblue" d="M2052.73,-337.738C2172.18,-327.076 2393.03,-307.364 2505.92,-297.287"/>
<polygon fill="midnightblue" stroke="midnightblue" points="2052.19,-334.271 2042.54,-338.647 2052.82,-341.244 2052.19,-334.271"/>
</g>
<!-- Node2&#45;&gt;Node6 -->
<g id="edge5" class="edge"><title>Node2&#45;&gt;Node6</title>
<path fill="none" stroke="midnightblue" d="M1926.06,-333.829C1888.1,-323.633 1835.47,-308.782 1804.56,-299.516"/>
<polygon fill="midnightblue" stroke="midnightblue" points="1925.29,-337.247 1935.85,-336.444 1927.09,-330.483 1925.29,-337.247"/>
</g>
<!-- Node22 -->
<g id="node22" class="node"><title>Node22</title>
<g id="a_node22"><a xlink:href="DragAndDrop_8h.html" target="_top" xlink:title="Engine/include/DragAndDrop.h">
<polygon fill="white" stroke="black" points="1992.86,-168.5 1992.86,-187.5 2143.86,-187.5 2143.86,-168.5 1992.86,-168.5"/>
<text text-anchor="middle" x="2068.36" y="-175.5" font-family="Helvetica,sans-Serif" font-size="10.00">Engine/include/DragAndDrop.h</text>
</a>
</g>
</g>
<!-- Node2&#45;&gt;Node22 -->
<g id="edge74" class="edge"><title>Node2&#45;&gt;Node22</title>
<path fill="none" stroke="midnightblue" d="M1985.14,-328.479C2000.77,-309.152 2026.3,-275.745 2043.36,-244 2053.67,-224.831 2061.84,-200.483 2065.79,-187.716"/>
<polygon fill="midnightblue" stroke="midnightblue" points="1982.36,-326.358 1978.72,-336.311 1987.77,-330.795 1982.36,-326.358"/>
</g>
<!-- Node25 -->
<g id="node25" class="node"><title>Node25</title>
<g id="a_node25"><a xlink:href="WaveManager_8h.html" target="_top" xlink:title="Game/include/WaveManager.h">
<polygon fill="white" stroke="black" points="1784.86,-168.5 1784.86,-187.5 1935.86,-187.5 1935.86,-168.5 1784.86,-168.5"/>
<text text-anchor="middle" x="1860.36" y="-175.5" font-family="Helvetica,sans-Serif" font-size="10.00">Game/include/WaveManager.h</text>
</a>
</g>
</g>
<!-- Node2&#45;&gt;Node25 -->
<g id="edge79" class="edge"><title>Node2&#45;&gt;Node25</title>
<path fill="none" stroke="midnightblue" d="M1958.78,-328.212C1944.07,-308.398 1919.21,-274.306 1899.36,-244 1886.39,-224.184 1872.38,-200.099 1865.2,-187.545"/>
<polygon fill="midnightblue" stroke="midnightblue" points="1955.98,-330.322 1964.77,-336.247 1961.6,-326.137 1955.98,-330.322"/>
</g>
<!-- Node39 -->
<g id="node39" class="node"><title>Node39</title>
<g id="a_node39"><a xlink:href="HitPoints_8h.html" target="_top" xlink:title="Engine/include/HitPoints.h">
<polygon fill="white" stroke="black" points="2287.36,-280.5 2287.36,-299.5 2419.36,-299.5 2419.36,-280.5 2287.36,-280.5"/>
<text text-anchor="middle" x="2353.36" y="-287.5" font-family="Helvetica,sans-Serif" font-size="10.00">Engine/include/HitPoints.h</text>
</a>
</g>
</g>
<!-- Node2&#45;&gt;Node39 -->
<g id="edge75" class="edge"><title>Node2&#45;&gt;Node39</title>
<path fill="none" stroke="midnightblue" d="M2041.81,-335.042C2113.95,-324.843 2224.92,-309.157 2293.12,-299.516"/>
<polygon fill="midnightblue" stroke="midnightblue" points="2041.3,-331.578 2031.89,-336.444 2042.28,-338.509 2041.3,-331.578"/>
</g>
<!-- Node41 -->
<g id="node41" class="node"><title>Node41</title>
<g id="a_node41"><a xlink:href="Component_8cpp.html" target="_top" xlink:title="Engine/src/Component.cpp">
<polygon fill="white" stroke="black" points="2090.86,-280.5 2090.86,-299.5 2225.86,-299.5 2225.86,-280.5 2090.86,-280.5"/>
<text text-anchor="middle" x="2158.36" y="-287.5" font-family="Helvetica,sans-Serif" font-size="10.00">Engine/src/Component.cpp</text>
</a>
</g>
</g>
<!-- Node2&#45;&gt;Node41 -->
<g id="edge78" class="edge"><title>Node2&#45;&gt;Node41</title>
<path fill="none" stroke="midnightblue" d="M2010.95,-333.568C2046.23,-323.381 2097.06,-308.703 2128.87,-299.516"/>
<polygon fill="midnightblue" stroke="midnightblue" points="2009.63,-330.307 2000.99,-336.444 2011.57,-337.032 2009.63,-330.307"/>
</g>
<!-- Node4 -->
<g id="node4" class="node"><title>Node4</title>
<g id="a_node4"><a xlink:href="AIGoDown_8cpp.html" target="_top" xlink:title="Engine/src/AIGoDown.cpp">
<polygon fill="white" stroke="black" points="2509.86,-224.5 2509.86,-243.5 2642.86,-243.5 2642.86,-224.5 2509.86,-224.5"/>
<text text-anchor="middle" x="2576.36" y="-231.5" font-family="Helvetica,sans-Serif" font-size="10.00">Engine/src/AIGoDown.cpp</text>
</a>
</g>
</g>
<!-- Node3&#45;&gt;Node4 -->
<g id="edge3" class="edge"><title>Node3&#45;&gt;Node4</title>
<path fill="none" stroke="midnightblue" d="M2576.36,-269.805C2576.36,-260.91 2576.36,-250.78 2576.36,-243.751"/>
<polygon fill="midnightblue" stroke="midnightblue" points="2572.86,-270.083 2576.36,-280.083 2579.86,-270.083 2572.86,-270.083"/>
</g>
<!-- Node5 -->
<g id="node5" class="node"><title>Node5</title>
<g id="a_node5"><a xlink:href="Enemy_8cpp.html" target="_top" xlink:title="Game/src/Enemy.cpp">
<polygon fill="white" stroke="black" points="2589.36,-112.5 2589.36,-131.5 2701.36,-131.5 2701.36,-112.5 2589.36,-112.5"/>
<text text-anchor="middle" x="2645.36" y="-119.5" font-family="Helvetica,sans-Serif" font-size="10.00">Game/src/Enemy.cpp</text>
</a>
</g>
</g>
<!-- Node3&#45;&gt;Node5 -->
<g id="edge4" class="edge"><title>Node3&#45;&gt;Node5</title>
<path fill="none" stroke="midnightblue" d="M2613.08,-276.268C2627.7,-269.181 2643.02,-258.742 2651.36,-244 2672.4,-206.846 2656.3,-152.531 2648.73,-131.634"/>
<polygon fill="midnightblue" stroke="midnightblue" points="2611.37,-273.197 2603.65,-280.453 2614.21,-279.596 2611.37,-273.197"/>
</g>
<!-- Node6&#45;&gt;Node2 -->
<g id="edge6" class="edge"><title>Node6&#45;&gt;Node2</title>
<path fill="none" stroke="midnightblue" d="M1824.51,-302.127C1862.42,-312.309 1915.06,-327.162 1946.03,-336.444"/>
<polygon fill="midnightblue" stroke="midnightblue" points="1825.29,-298.713 1814.72,-299.516 1823.48,-305.476 1825.29,-298.713"/>
</g>
<!-- Node7 -->
<g id="node7" class="node"><title>Node7</title>
<g id="a_node7"><a xlink:href="Animation_8h.html" target="_top" xlink:title="Engine/include/Animation.h">
<polygon fill="white" stroke="black" points="1424.86,-224.5 1424.86,-243.5 1559.86,-243.5 1559.86,-224.5 1424.86,-224.5"/>
<text text-anchor="middle" x="1492.36" y="-231.5" font-family="Helvetica,sans-Serif" font-size="10.00">Engine/include/Animation.h</text>
</a>
</g>
</g>
<!-- Node6&#45;&gt;Node7 -->
<g id="edge7" class="edge"><title>Node6&#45;&gt;Node7</title>
<path fill="none" stroke="midnightblue" d="M1723.76,-278.537C1669.52,-268.332 1588.03,-252.999 1537.63,-243.516"/>
<polygon fill="midnightblue" stroke="midnightblue" points="1723.41,-282.034 1733.89,-280.444 1724.71,-275.155 1723.41,-282.034"/>
</g>
<!-- Node9 -->
<g id="node9" class="node"><title>Node9</title>
<g id="a_node9"><a xlink:href="Camera_8h.html" target="_top" xlink:title="Engine/include/Camera.h">
<polygon fill="white" stroke="black" points="1489.36,-168.5 1489.36,-187.5 1615.36,-187.5 1615.36,-168.5 1489.36,-168.5"/>
<text text-anchor="middle" x="1552.36" y="-175.5" font-family="Helvetica,sans-Serif" font-size="10.00">Engine/include/Camera.h</text>
</a>
</g>
</g>
<!-- Node6&#45;&gt;Node9 -->
<g id="edge9" class="edge"><title>Node6&#45;&gt;Node9</title>
<path fill="none" stroke="midnightblue" d="M1752.29,-275.878C1705.23,-253.078 1609.63,-206.751 1570.09,-187.591"/>
<polygon fill="midnightblue" stroke="midnightblue" points="1751.03,-279.157 1761.55,-280.368 1754.08,-272.858 1751.03,-279.157"/>
</g>
<!-- Node12 -->
<g id="node12" class="node"><title>Node12</title>
<g id="a_node12"><a xlink:href="GameObject_8cpp.html" target="_top" xlink:title="Engine/src/GameObject.cpp">
<polygon fill="white" stroke="black" points="301.364,-112.5 301.364,-131.5 441.364,-131.5 441.364,-112.5 301.364,-112.5"/>
<text text-anchor="middle" x="371.364" y="-119.5" font-family="Helvetica,sans-Serif" font-size="10.00">Engine/src/GameObject.cpp</text>
</a>
</g>
</g>
<!-- Node6&#45;&gt;Node12 -->
<g id="edge68" class="edge"><title>Node6&#45;&gt;Node12</title>
<path fill="none" stroke="midnightblue" d="M1695.97,-283.963C1516.61,-272.491 1081.1,-241.217 719.364,-188 607.175,-171.495 475.94,-145.019 411.385,-131.517"/>
<polygon fill="midnightblue" stroke="midnightblue" points="1695.92,-287.467 1706.12,-284.608 1696.37,-280.481 1695.92,-287.467"/>
</g>
<!-- Node21 -->
<g id="node21" class="node"><title>Node21</title>
<g id="a_node21"><a xlink:href="TileMap_8h.html" target="_top" xlink:title="Engine/include/TileMap.h">
<polygon fill="white" stroke="black" points="1908.36,-224.5 1908.36,-243.5 2034.36,-243.5 2034.36,-224.5 1908.36,-224.5"/>
<text text-anchor="middle" x="1971.36" y="-231.5" font-family="Helvetica,sans-Serif" font-size="10.00">Engine/include/TileMap.h</text>
</a>
</g>
</g>
<!-- Node6&#45;&gt;Node21 -->
<g id="edge23" class="edge"><title>Node6&#45;&gt;Node21</title>
<path fill="none" stroke="midnightblue" d="M1819.55,-277.699C1855.78,-267.507 1908.28,-252.743 1941.08,-243.516"/>
<polygon fill="midnightblue" stroke="midnightblue" points="1818.47,-274.367 1809.79,-280.444 1820.36,-281.105 1818.47,-274.367"/>
</g>
<!-- Node23 -->
<g id="node23" class="node"><title>Node23</title>
<g id="a_node23"><a xlink:href="StageState_8h.html" target="_top" xlink:title="Game/include/StageState.h">
<polygon fill="white" stroke="black" points="1937.86,-112.5 1937.86,-131.5 2074.86,-131.5 2074.86,-112.5 1937.86,-112.5"/>
<text text-anchor="middle" x="2006.36" y="-119.5" font-family="Helvetica,sans-Serif" font-size="10.00">Game/include/StageState.h</text>
</a>
</g>
</g>
<!-- Node6&#45;&gt;Node23 -->
<g id="edge70" class="edge"><title>Node6&#45;&gt;Node23</title>
<path fill="none" stroke="midnightblue" d="M1772.06,-270.788C1762.98,-244.824 1751.39,-197.097 1775.36,-168 1785.9,-155.21 1875.87,-140.556 1940.36,-131.539"/>
<polygon fill="midnightblue" stroke="midnightblue" points="1768.9,-272.332 1775.69,-280.466 1775.45,-269.874 1768.9,-272.332"/>
</g>
<!-- Node24 -->
<g id="node24" class="node"><title>Node24</title>
<g id="a_node24"><a xlink:href="EndState_8h.html" target="_top" xlink:title="Game/include/EndState.h">
<polygon fill="white" stroke="black" points="1273.36,-56.5 1273.36,-75.5 1401.36,-75.5 1401.36,-56.5 1273.36,-56.5"/>
<text text-anchor="middle" x="1337.36" y="-63.5" font-family="Helvetica,sans-Serif" font-size="10.00">Game/include/EndState.h</text>
</a>
</g>
</g>
<!-- Node6&#45;&gt;Node24 -->
<g id="edge69" class="edge"><title>Node6&#45;&gt;Node24</title>
<path fill="none" stroke="midnightblue" d="M1695.93,-288.856C1357.77,-287.331 102.569,-272.208 4.36411,-132 -0.735422,-124.719 -1.81434,-118.391 4.36411,-112 48.9016,-65.9336 1013.21,-65.8883 1273.25,-66.7188"/>
<polygon fill="midnightblue" stroke="midnightblue" points="1696.13,-292.357 1706.14,-288.899 1696.16,-285.357 1696.13,-292.357"/>
</g>
<!-- Node6&#45;&gt;Node25 -->
<g id="edge71" class="edge"><title>Node6&#45;&gt;Node25</title>
<path fill="none" stroke="midnightblue" d="M1791.68,-272.272C1809.19,-248.494 1840.64,-205.789 1854.04,-187.591"/>
<polygon fill="midnightblue" stroke="midnightblue" points="1788.83,-270.241 1785.72,-280.368 1794.47,-274.391 1788.83,-270.241"/>
</g>
<!-- Node27 -->
<g id="node27" class="node"><title>Node27</title>
<g id="a_node27"><a xlink:href="Enemy_8h.html" target="_top" xlink:title="Game/include/Enemy.h">
<polygon fill="white" stroke="black" points="2333.86,-168.5 2333.86,-187.5 2452.86,-187.5 2452.86,-168.5 2333.86,-168.5"/>
<text text-anchor="middle" x="2393.36" y="-175.5" font-family="Helvetica,sans-Serif" font-size="10.00">Game/include/Enemy.h</text>
</a>
</g>
</g>
<!-- Node6&#45;&gt;Node27 -->
<g id="edge72" class="edge"><title>Node6&#45;&gt;Node27</title>
<path fill="none" stroke="midnightblue" d="M1856.42,-279.139C1918.85,-270.814 2009.01,-258.031 2087.36,-244 2185.2,-226.481 2299.53,-200.794 2356.77,-187.568"/>
<polygon fill="midnightblue" stroke="midnightblue" points="1855.71,-275.703 1846.25,-280.488 1856.63,-282.642 1855.71,-275.703"/>
</g>
<!-- Node30 -->
<g id="node30" class="node"><title>Node30</title>
<g id="a_node30"><a xlink:href="Tower_8h.html" target="_top" xlink:title="Game/include/Tower.h">
<polygon fill="white" stroke="black" points="2161.86,-168.5 2161.86,-187.5 2276.86,-187.5 2276.86,-168.5 2161.86,-168.5"/>
<text text-anchor="middle" x="2219.36" y="-175.5" font-family="Helvetica,sans-Serif" font-size="10.00">Game/include/Tower.h</text>
</a>
</g>
</g>
<!-- Node6&#45;&gt;Node30 -->
<g id="edge73" class="edge"><title>Node6&#45;&gt;Node30</title>
<path fill="none" stroke="midnightblue" d="M1860.68,-279.104C1913.31,-271.729 1983.02,-260.136 2043.36,-244 2101.74,-228.39 2167.92,-201.274 2199.95,-187.522"/>
<polygon fill="midnightblue" stroke="midnightblue" points="1860.15,-275.643 1850.72,-280.477 1861.11,-282.578 1860.15,-275.643"/>
</g>
<!-- Node31 -->
<g id="node31" class="node"><title>Node31</title>
<g id="a_node31"><a xlink:href="State_8h.html" target="_top" xlink:title="Engine/include/State.h">
<polygon fill="white" stroke="black" points="1247.86,-224.5 1247.86,-243.5 1362.86,-243.5 1362.86,-224.5 1247.86,-224.5"/>
<text text-anchor="middle" x="1305.36" y="-231.5" font-family="Helvetica,sans-Serif" font-size="10.00">Engine/include/State.h</text>
</a>
</g>
</g>
<!-- Node6&#45;&gt;Node31 -->
<g id="edge49" class="edge"><title>Node6&#45;&gt;Node31</title>
<path fill="none" stroke="midnightblue" d="M1696.14,-279.519C1600.61,-268.636 1446.44,-251.072 1363.17,-241.585"/>
<polygon fill="midnightblue" stroke="midnightblue" points="1696.01,-283.026 1706.34,-280.681 1696.8,-276.071 1696.01,-283.026"/>
</g>
<!-- Node8 -->
<g id="node8" class="node"><title>Node8</title>
<g id="a_node8"><a xlink:href="Animation_8cpp.html" target="_top" xlink:title="Engine/src/Animation.cpp">
<polygon fill="white" stroke="black" points="1377.36,-112.5 1377.36,-131.5 1505.36,-131.5 1505.36,-112.5 1377.36,-112.5"/>
<text text-anchor="middle" x="1441.36" y="-119.5" font-family="Helvetica,sans-Serif" font-size="10.00">Engine/src/Animation.cpp</text>
</a>
</g>
</g>
<!-- Node7&#45;&gt;Node8 -->
<g id="edge8" class="edge"><title>Node7&#45;&gt;Node8</title>
<path fill="none" stroke="midnightblue" d="M1484.02,-214.998C1472.89,-190.997 1453.64,-149.468 1445.35,-131.591"/>
<polygon fill="midnightblue" stroke="midnightblue" points="1480.98,-216.768 1488.36,-224.368 1487.33,-213.824 1480.98,-216.768"/>
</g>
<!-- Node9&#45;&gt;Node5 -->
<g id="edge19" class="edge"><title>Node9&#45;&gt;Node5</title>
<path fill="none" stroke="midnightblue" d="M1625.62,-173.975C1852.65,-164.576 2532.04,-136.254 2579.36,-132 2582.59,-131.71 2585.9,-131.376 2589.23,-131.011"/>
<polygon fill="midnightblue" stroke="midnightblue" points="1625.33,-170.484 1615.48,-174.395 1625.62,-177.478 1625.33,-170.484"/>
</g>
<!-- Node9&#45;&gt;Node8 -->
<g id="edge10" class="edge"><title>Node9&#45;&gt;Node8</title>
<path fill="none" stroke="midnightblue" d="M1525.36,-163.862C1504.78,-153.849 1477.02,-140.346 1459.15,-131.655"/>
<polygon fill="midnightblue" stroke="midnightblue" points="1524.01,-167.097 1534.53,-168.324 1527.07,-160.802 1524.01,-167.097"/>
</g>
<!-- Node10 -->
<g id="node10" class="node"><title>Node10</title>
<g id="a_node10"><a xlink:href="Camera_8cpp.html" target="_top" xlink:title="Engine/src/Camera.cpp">
<polygon fill="white" stroke="black" points="1113.86,-112.5 1113.86,-131.5 1232.86,-131.5 1232.86,-112.5 1113.86,-112.5"/>
<text text-anchor="middle" x="1173.36" y="-119.5" font-family="Helvetica,sans-Serif" font-size="10.00">Engine/src/Camera.cpp</text>
</a>
</g>
</g>
<!-- Node9&#45;&gt;Node10 -->
<g id="edge11" class="edge"><title>Node9&#45;&gt;Node10</title>
<path fill="none" stroke="midnightblue" d="M1482.03,-166.979C1410.44,-156.779 1300.66,-141.137 1233.14,-131.516"/>
<polygon fill="midnightblue" stroke="midnightblue" points="1481.92,-170.498 1492.31,-168.444 1482.9,-163.568 1481.92,-170.498"/>
</g>
<!-- Node11 -->
<g id="node11" class="node"><title>Node11</title>
<g id="a_node11"><a xlink:href="DragAndDrop_8cpp.html" target="_top" xlink:title="Engine/src/DragAndDrop.cpp">
<polygon fill="white" stroke="black" points="1775.36,-112.5 1775.36,-131.5 1919.36,-131.5 1919.36,-112.5 1775.36,-112.5"/>
<text text-anchor="middle" x="1847.36" y="-119.5" font-family="Helvetica,sans-Serif" font-size="10.00">Engine/src/DragAndDrop.cpp</text>
</a>
</g>
</g>
<!-- Node9&#45;&gt;Node11 -->
<g id="edge12" class="edge"><title>Node9&#45;&gt;Node11</title>
<path fill="none" stroke="midnightblue" d="M1609.17,-166.601C1664.93,-156.395 1748.93,-141.019 1800.84,-131.516"/>
<polygon fill="midnightblue" stroke="midnightblue" points="1608.31,-163.2 1599.11,-168.444 1609.57,-170.086 1608.31,-163.2"/>
</g>
<!-- Node9&#45;&gt;Node12 -->
<g id="edge13" class="edge"><title>Node9&#45;&gt;Node12</title>
<path fill="none" stroke="midnightblue" d="M1478.81,-174.764C1305.94,-169.316 860.268,-154.162 488.364,-132 473.213,-131.097 456.972,-129.958 441.558,-128.796"/>
<polygon fill="midnightblue" stroke="midnightblue" points="1478.96,-178.27 1489.06,-175.085 1479.18,-171.273 1478.96,-178.27"/>
</g>
<!-- Node13 -->
<g id="node13" class="node"><title>Node13</title>
<g id="a_node13"><a xlink:href="Sprite_8cpp.html" target="_top" xlink:title="Engine/src/Sprite.cpp">
<polygon fill="white" stroke="black" points="853.364,-112.5 853.364,-131.5 963.364,-131.5 963.364,-112.5 853.364,-112.5"/>
<text text-anchor="middle" x="908.364" y="-119.5" font-family="Helvetica,sans-Serif" font-size="10.00">Engine/src/Sprite.cpp</text>
</a>
</g>
</g>
<!-- Node9&#45;&gt;Node13 -->
<g id="edge14" class="edge"><title>Node9&#45;&gt;Node13</title>
<path fill="none" stroke="midnightblue" d="M1479.16,-172.787C1369.01,-166.117 1154.19,-151.819 972.364,-132 969.464,-131.684 966.493,-131.339 963.495,-130.975"/>
<polygon fill="midnightblue" stroke="midnightblue" points="1478.97,-176.282 1489.16,-173.389 1479.39,-169.295 1478.97,-176.282"/>
</g>
<!-- Node14 -->
<g id="node14" class="node"><title>Node14</title>
<g id="a_node14"><a xlink:href="State_8cpp.html" target="_top" xlink:title="Engine/src/State.cpp">
<polygon fill="white" stroke="black" points="1251.36,-112.5 1251.36,-131.5 1359.36,-131.5 1359.36,-112.5 1251.36,-112.5"/>
<text text-anchor="middle" x="1305.36" y="-119.5" font-family="Helvetica,sans-Serif" font-size="10.00">Engine/src/State.cpp</text>
</a>
</g>
</g>
<!-- Node9&#45;&gt;Node14 -->
<g id="edge15" class="edge"><title>Node9&#45;&gt;Node14</title>
<path fill="none" stroke="midnightblue" d="M1503.34,-166.281C1456.66,-156.077 1387.33,-140.92 1344.32,-131.516"/>
<polygon fill="midnightblue" stroke="midnightblue" points="1502.71,-169.727 1513.23,-168.444 1504.2,-162.888 1502.71,-169.727"/>
</g>
<!-- Node15 -->
<g id="node15" class="node"><title>Node15</title>
<g id="a_node15"><a xlink:href="TileMap_8cpp.html" target="_top" xlink:title="Engine/src/TileMap.cpp">
<polygon fill="white" stroke="black" points="1637.86,-112.5 1637.86,-131.5 1756.86,-131.5 1756.86,-112.5 1637.86,-112.5"/>
<text text-anchor="middle" x="1697.36" y="-119.5" font-family="Helvetica,sans-Serif" font-size="10.00">Engine/src/TileMap.cpp</text>
</a>
</g>
</g>
<!-- Node9&#45;&gt;Node15 -->
<g id="edge16" class="edge"><title>Node9&#45;&gt;Node15</title>
<path fill="none" stroke="midnightblue" d="M1584.84,-164.906C1612.1,-154.754 1650.36,-140.506 1674.5,-131.516"/>
<polygon fill="midnightblue" stroke="midnightblue" points="1583.49,-161.674 1575.34,-168.444 1585.93,-168.233 1583.49,-161.674"/>
</g>
<!-- Node16 -->
<g id="node16" class="node"><title>Node16</title>
<g id="a_node16"><a xlink:href="Tileset_8cpp.html" target="_top" xlink:title="Engine/src/Tileset.cpp">
<polygon fill="white" stroke="black" points="981.364,-112.5 981.364,-131.5 1095.36,-131.5 1095.36,-112.5 981.364,-112.5"/>
<text text-anchor="middle" x="1038.36" y="-119.5" font-family="Helvetica,sans-Serif" font-size="10.00">Engine/src/Tileset.cpp</text>
</a>
</g>
</g>
<!-- Node9&#45;&gt;Node16 -->
<g id="edge17" class="edge"><title>Node9&#45;&gt;Node16</title>
<path fill="none" stroke="midnightblue" d="M1479.26,-170.458C1390.5,-162.33 1236.29,-147.616 1104.36,-132 1101.49,-131.66 1098.55,-131.301 1095.59,-130.929"/>
<polygon fill="midnightblue" stroke="midnightblue" points="1478.95,-173.944 1489.22,-171.368 1479.58,-166.973 1478.95,-173.944"/>
</g>
<!-- Node17 -->
<g id="node17" class="node"><title>Node17</title>
<g id="a_node17"><a xlink:href="EndState_8cpp.html" target="_top" xlink:title="Game/src/EndState.cpp">
<polygon fill="white" stroke="black" points="1393.36,-0.5 1393.36,-19.5 1515.36,-19.5 1515.36,-0.5 1393.36,-0.5"/>
<text text-anchor="middle" x="1454.36" y="-7.5" font-family="Helvetica,sans-Serif" font-size="10.00">Game/src/EndState.cpp</text>
</a>
</g>
</g>
<!-- Node9&#45;&gt;Node17 -->
<g id="edge18" class="edge"><title>Node9&#45;&gt;Node17</title>
<path fill="none" stroke="midnightblue" d="M1557.91,-158.401C1564.29,-133.048 1571.48,-87.228 1551.36,-56 1539.2,-37.1171 1516.86,-26.0313 1496.69,-19.5904"/>
<polygon fill="midnightblue" stroke="midnightblue" points="1554.49,-157.629 1555.22,-168.198 1561.24,-159.479 1554.49,-157.629"/>
</g>
<!-- Node18 -->
<g id="node18" class="node"><title>Node18</title>
<g id="a_node18"><a xlink:href="StageState_8cpp.html" target="_top" xlink:title="Game/src/StageState.cpp">
<polygon fill="white" stroke="black" points="1941.36,-56.5 1941.36,-75.5 2071.36,-75.5 2071.36,-56.5 1941.36,-56.5"/>
<text text-anchor="middle" x="2006.36" y="-63.5" font-family="Helvetica,sans-Serif" font-size="10.00">Game/src/StageState.cpp</text>
</a>
</g>
</g>
<!-- Node9&#45;&gt;Node18 -->
<g id="edge20" class="edge"><title>Node9&#45;&gt;Node18</title>
<path fill="none" stroke="midnightblue" d="M1566.04,-160.739C1580,-145.365 1603.14,-123.054 1628.36,-112 1682.92,-88.0933 1848.05,-75.543 1940.99,-70.2088"/>
<polygon fill="midnightblue" stroke="midnightblue" points="1563.24,-158.625 1559.27,-168.451 1568.5,-163.241 1563.24,-158.625"/>
</g>
<!-- Node19 -->
<g id="node19" class="node"><title>Node19</title>
<g id="a_node19"><a xlink:href="TitleState_8cpp.html" target="_top" xlink:title="Game/src/TitleState.cpp">
<polygon fill="white" stroke="black" points="1419.86,-56.5 1419.86,-75.5 1542.86,-75.5 1542.86,-56.5 1419.86,-56.5"/>
<text text-anchor="middle" x="1481.36" y="-63.5" font-family="Helvetica,sans-Serif" font-size="10.00">Game/src/TitleState.cpp</text>
</a>
</g>
</g>
<!-- Node9&#45;&gt;Node19 -->
<g id="edge21" class="edge"><title>Node9&#45;&gt;Node19</title>
<path fill="none" stroke="midnightblue" d="M1542.75,-159.442C1535.34,-146.19 1524.65,-127.674 1514.36,-112 1505.86,-99.0416 1495.09,-84.7031 1488.22,-75.7715"/>
<polygon fill="midnightblue" stroke="midnightblue" points="1539.81,-161.362 1547.72,-168.416 1545.94,-157.972 1539.81,-161.362"/>
</g>
<!-- Node20 -->
<g id="node20" class="node"><title>Node20</title>
<g id="a_node20"><a xlink:href="Tower_8cpp.html" target="_top" xlink:title="Game/src/Tower.cpp">
<polygon fill="white" stroke="black" points="2131.36,-112.5 2131.36,-131.5 2239.36,-131.5 2239.36,-112.5 2131.36,-112.5"/>
<text text-anchor="middle" x="2185.36" y="-119.5" font-family="Helvetica,sans-Serif" font-size="10.00">Game/src/Tower.cpp</text>
</a>
</g>
</g>
<!-- Node9&#45;&gt;Node20 -->
<g id="edge22" class="edge"><title>Node9&#45;&gt;Node20</title>
<path fill="none" stroke="midnightblue" d="M1625.96,-170.844C1728.47,-162.251 1920.06,-146.124 2083.36,-132 2098.86,-130.66 2115.68,-129.184 2131.11,-127.822"/>
<polygon fill="midnightblue" stroke="midnightblue" points="1625.39,-167.38 1615.72,-171.703 1625.97,-174.355 1625.39,-167.38"/>
</g>
<!-- Node21&#45;&gt;Node15 -->
<g id="edge33" class="edge"><title>Node21&#45;&gt;Node15</title>
<path fill="none" stroke="midnightblue" d="M1898.36,-224.555C1860.25,-218.124 1813.7,-207.003 1775.36,-188 1745.99,-173.438 1718.12,-145.723 1705.08,-131.656"/>
<polygon fill="midnightblue" stroke="midnightblue" points="1897.93,-228.032 1908.36,-226.169 1899.05,-221.121 1897.93,-228.032"/>
</g>
<!-- Node21&#45;&gt;Node22 -->
<g id="edge24" class="edge"><title>Node21&#45;&gt;Node22</title>
<path fill="none" stroke="midnightblue" d="M1995.7,-219.453C2013.61,-209.483 2037.42,-196.228 2052.82,-187.655"/>
<polygon fill="midnightblue" stroke="midnightblue" points="1993.98,-216.402 1986.95,-224.324 1997.39,-222.518 1993.98,-216.402"/>
</g>
<!-- Node21&#45;&gt;Node23 -->
<g id="edge34" class="edge"><title>Node21&#45;&gt;Node23</title>
<path fill="none" stroke="midnightblue" d="M1973.37,-214.205C1975.13,-201.024 1978.22,-183.127 1983.36,-168 1987.88,-154.708 1995.74,-140.453 2000.99,-131.631"/>
<polygon fill="midnightblue" stroke="midnightblue" points="1969.86,-214.042 1972.15,-224.386 1976.81,-214.872 1969.86,-214.042"/>
</g>
<!-- Node21&#45;&gt;Node25 -->
<g id="edge35" class="edge"><title>Node21&#45;&gt;Node25</title>
<path fill="none" stroke="midnightblue" d="M1944.36,-219.862C1923.78,-209.849 1896.02,-196.346 1878.15,-187.655"/>
<polygon fill="midnightblue" stroke="midnightblue" points="1943.01,-223.097 1953.53,-224.324 1946.07,-216.802 1943.01,-223.097"/>
</g>
<!-- Node26 -->
<g id="node26" class="node"><title>Node26</title>
<g id="a_node26"><a xlink:href="WaveManager_8cpp.html" target="_top" xlink:title="Game/src/WaveManager.cpp">
<polygon fill="white" stroke="black" points="2233.36,-56.5 2233.36,-75.5 2377.36,-75.5 2377.36,-56.5 2233.36,-56.5"/>
<text text-anchor="middle" x="2305.36" y="-63.5" font-family="Helvetica,sans-Serif" font-size="10.00">Game/src/WaveManager.cpp</text>
</a>
</g>
</g>
<!-- Node21&#45;&gt;Node26 -->
<g id="edge48" class="edge"><title>Node21&#45;&gt;Node26</title>
<path fill="none" stroke="midnightblue" d="M2044.86,-227.02C2132.22,-219.215 2268.42,-204.582 2285.36,-188 2316.71,-157.32 2310.56,-97.6654 2306.96,-75.5333"/>
<polygon fill="midnightblue" stroke="midnightblue" points="2044.37,-223.549 2034.72,-227.914 2044.99,-230.522 2044.37,-223.549"/>
</g>
<!-- Node21&#45;&gt;Node27 -->
<g id="edge38" class="edge"><title>Node21&#45;&gt;Node27</title>
<path fill="none" stroke="midnightblue" d="M2044.54,-223.637C2126.53,-213.144 2257.89,-196.335 2333.85,-186.615"/>
<polygon fill="midnightblue" stroke="midnightblue" points="2044.02,-220.175 2034.54,-224.916 2044.91,-227.118 2044.02,-220.175"/>
</g>
<!-- Node21&#45;&gt;Node30 -->
<g id="edge45" class="edge"><title>Node21&#45;&gt;Node30</title>
<path fill="none" stroke="midnightblue" d="M2020.59,-222.281C2067.46,-212.077 2137.06,-196.92 2180.25,-187.516"/>
<polygon fill="midnightblue" stroke="midnightblue" points="2019.69,-218.896 2010.66,-224.444 2021.18,-225.736 2019.69,-218.896"/>
</g>
<!-- Node22&#45;&gt;Node11 -->
<g id="edge25" class="edge"><title>Node22&#45;&gt;Node11</title>
<path fill="none" stroke="midnightblue" d="M2023.44,-166.024C1981.7,-155.823 1920.38,-140.841 1882.22,-131.516"/>
<polygon fill="midnightblue" stroke="midnightblue" points="2022.8,-169.47 2033.35,-168.444 2024.46,-162.67 2022.8,-169.47"/>
</g>
<!-- Node22&#45;&gt;Node20 -->
<g id="edge32" class="edge"><title>Node22&#45;&gt;Node20</title>
<path fill="none" stroke="midnightblue" d="M2096.03,-164.232C2117.91,-154.131 2147.86,-140.309 2166.91,-131.516"/>
<polygon fill="midnightblue" stroke="midnightblue" points="2094.52,-161.075 2086.9,-168.444 2097.45,-167.431 2094.52,-161.075"/>
</g>
<!-- Node22&#45;&gt;Node23 -->
<g id="edge26" class="edge"><title>Node22&#45;&gt;Node23</title>
<path fill="none" stroke="midnightblue" d="M2050.61,-161.537C2039.56,-151.909 2025.73,-139.869 2016.51,-131.834"/>
<polygon fill="midnightblue" stroke="midnightblue" points="2048.56,-164.395 2058.4,-168.324 2053.16,-159.117 2048.56,-164.395"/>
</g>
<!-- Node23&#45;&gt;Node18 -->
<g id="edge30" class="edge"><title>Node23&#45;&gt;Node18</title>
<path fill="none" stroke="midnightblue" d="M2006.36,-101.805C2006.36,-92.9102 2006.36,-82.7798 2006.36,-75.7511"/>
<polygon fill="midnightblue" stroke="midnightblue" points="2002.86,-102.083 2006.36,-112.083 2009.86,-102.083 2002.86,-102.083"/>
</g>
<!-- Node23&#45;&gt;Node19 -->
<g id="edge31" class="edge"><title>Node23&#45;&gt;Node19</title>
<path fill="none" stroke="midnightblue" d="M1927.14,-111.881C1783.39,-96.4132 1627.49,-81.0968 1543.22,-72.94"/>
<polygon fill="midnightblue" stroke="midnightblue" points="1927.15,-115.403 1937.47,-112.995 1927.9,-108.443 1927.15,-115.403"/>
</g>
<!-- Node23&#45;&gt;Node24 -->
<g id="edge27" class="edge"><title>Node23&#45;&gt;Node24</title>
<path fill="none" stroke="midnightblue" d="M1927.62,-112.793C1924.83,-112.516 1922.07,-112.25 1919.36,-112 1689.57,-90.7682 1631.08,-98.127 1401.36,-76 1399.71,-75.8408 1398.04,-75.6746 1396.35,-75.5025"/>
<polygon fill="midnightblue" stroke="midnightblue" points="1927.51,-116.301 1937.82,-113.841 1928.23,-109.337 1927.51,-116.301"/>
</g>
<!-- Node24&#45;&gt;Node17 -->
<g id="edge29" class="edge"><title>Node24&#45;&gt;Node17</title>
<path fill="none" stroke="midnightblue" d="M1365.03,-52.2321C1386.91,-42.1312 1416.86,-28.3091 1435.91,-19.5164"/>
<polygon fill="midnightblue" stroke="midnightblue" points="1363.52,-49.075 1355.9,-56.4435 1366.45,-55.4308 1363.52,-49.075"/>
</g>
<!-- Node24&#45;&gt;Node23 -->
<g id="edge28" class="edge"><title>Node24&#45;&gt;Node23</title>
<path fill="none" stroke="midnightblue" d="M1411.73,-75.2323C1414.31,-75.5018 1416.86,-75.759 1419.36,-76 1649.08,-98.127 1707.57,-90.7682 1937.36,-112 1938.99,-112.15 1940.64,-112.307 1942.3,-112.468"/>
<polygon fill="midnightblue" stroke="midnightblue" points="1412,-71.7411 1401.68,-74.1406 1411.25,-78.7002 1412,-71.7411"/>
</g>
<!-- Node25&#45;&gt;Node23 -->
<g id="edge36" class="edge"><title>Node25&#45;&gt;Node23</title>
<path fill="none" stroke="midnightblue" d="M1893.06,-164.906C1920.51,-154.754 1959.03,-140.506 1983.34,-131.516"/>
<polygon fill="midnightblue" stroke="midnightblue" points="1891.66,-161.692 1883.5,-168.444 1894.09,-168.257 1891.66,-161.692"/>
</g>
<!-- Node25&#45;&gt;Node26 -->
<g id="edge37" class="edge"><title>Node25&#45;&gt;Node26</title>
<path fill="none" stroke="midnightblue" d="M1937,-166.869C1980.68,-159.783 2035.98,-148.574 2083.36,-132 2101.75,-125.568 2104.12,-118.816 2122.36,-112 2167.11,-95.2853 2220.34,-82.9993 2257.82,-75.527"/>
<polygon fill="midnightblue" stroke="midnightblue" points="1936.34,-163.429 1927.02,-168.45 1937.44,-170.343 1936.34,-163.429"/>
</g>
<!-- Node27&#45;&gt;Node5 -->
<g id="edge42" class="edge"><title>Node27&#45;&gt;Node5</title>
<path fill="none" stroke="midnightblue" d="M2443.08,-166.346C2490.71,-156.141 2561.64,-140.94 2605.62,-131.516"/>
<polygon fill="midnightblue" stroke="midnightblue" points="2442.34,-162.926 2433.29,-168.444 2443.81,-169.77 2442.34,-162.926"/>
</g>
<!-- Node27&#45;&gt;Node18 -->
<g id="edge43" class="edge"><title>Node27&#45;&gt;Node18</title>
<path fill="none" stroke="midnightblue" d="M2371.1,-163.098C2346.25,-148.206 2304.37,-124.968 2265.36,-112 2201.27,-90.6913 2124.72,-78.9805 2071.54,-72.892"/>
<polygon fill="midnightblue" stroke="midnightblue" points="2369.39,-166.154 2379.75,-168.358 2373.03,-160.173 2369.39,-166.154"/>
</g>
<!-- Node27&#45;&gt;Node26 -->
<g id="edge44" class="edge"><title>Node27&#45;&gt;Node26</title>
<path fill="none" stroke="midnightblue" d="M2385.58,-159.138C2379.14,-145.457 2369.15,-126.529 2357.36,-112 2345.63,-97.537 2328.89,-83.9905 2317.6,-75.6143"/>
<polygon fill="midnightblue" stroke="midnightblue" points="2382.47,-160.754 2389.79,-168.416 2388.85,-157.864 2382.47,-160.754"/>
</g>
<!-- Node28 -->
<g id="node28" class="node"><title>Node28</title>
<g id="a_node28"><a xlink:href="GameResources_8h.html" target="_top" xlink:title="Game/include/GameResources.h">
<polygon fill="white" stroke="black" points="2409.86,-112.5 2409.86,-131.5 2570.86,-131.5 2570.86,-112.5 2409.86,-112.5"/>
<text text-anchor="middle" x="2490.36" y="-119.5" font-family="Helvetica,sans-Serif" font-size="10.00">Game/include/GameResources.h</text>
</a>
</g>
</g>
<!-- Node27&#45;&gt;Node28 -->
<g id="edge39" class="edge"><title>Node27&#45;&gt;Node28</title>
<path fill="none" stroke="midnightblue" d="M2417.7,-163.453C2435.61,-153.483 2459.42,-140.228 2474.82,-131.655"/>
<polygon fill="midnightblue" stroke="midnightblue" points="2415.98,-160.402 2408.95,-168.324 2419.39,-166.518 2415.98,-160.402"/>
</g>
<!-- Node28&#45;&gt;Node26 -->
<g id="edge41" class="edge"><title>Node28&#45;&gt;Node26</title>
<path fill="none" stroke="midnightblue" d="M2451.2,-109.568C2416.3,-99.381 2366.01,-84.7034 2334.54,-75.5164"/>
<polygon fill="midnightblue" stroke="midnightblue" points="2450.47,-113.001 2461.05,-112.444 2452.43,-106.282 2450.47,-113.001"/>
</g>
<!-- Node29 -->
<g id="node29" class="node"><title>Node29</title>
<g id="a_node29"><a xlink:href="GameResources_8cpp.html" target="_top" xlink:title="Game/src/GameResources.cpp">
<polygon fill="white" stroke="black" points="2412.86,-56.5 2412.86,-75.5 2567.86,-75.5 2567.86,-56.5 2412.86,-56.5"/>
<text text-anchor="middle" x="2490.36" y="-63.5" font-family="Helvetica,sans-Serif" font-size="10.00">Game/src/GameResources.cpp</text>
</a>
</g>
</g>
<!-- Node28&#45;&gt;Node29 -->
<g id="edge40" class="edge"><title>Node28&#45;&gt;Node29</title>
<path fill="none" stroke="midnightblue" d="M2490.36,-101.805C2490.36,-92.9102 2490.36,-82.7798 2490.36,-75.7511"/>
<polygon fill="midnightblue" stroke="midnightblue" points="2486.86,-102.083 2490.36,-112.083 2493.86,-102.083 2486.86,-102.083"/>
</g>
<!-- Node30&#45;&gt;Node18 -->
<g id="edge46" class="edge"><title>Node30&#45;&gt;Node18</title>
<path fill="none" stroke="midnightblue" d="M2235.74,-160.724C2247.87,-146.688 2260.38,-126.458 2248.36,-112 2226.27,-85.4214 2135.49,-74.4647 2071.63,-69.9995"/>
<polygon fill="midnightblue" stroke="midnightblue" points="2233.06,-158.467 2228.84,-168.182 2238.2,-163.224 2233.06,-158.467"/>
</g>
<!-- Node30&#45;&gt;Node20 -->
<g id="edge47" class="edge"><title>Node30&#45;&gt;Node20</title>
<path fill="none" stroke="midnightblue" d="M2208.39,-159.566C2202.54,-150.275 2195.59,-139.248 2190.87,-131.751"/>
<polygon fill="midnightblue" stroke="midnightblue" points="2205.46,-161.486 2213.75,-168.083 2211.38,-157.756 2205.46,-161.486"/>
</g>
<!-- Node31&#45;&gt;Node14 -->
<g id="edge63" class="edge"><title>Node31&#45;&gt;Node14</title>
<path fill="none" stroke="midnightblue" d="M1305.36,-214.348C1305.36,-190.254 1305.36,-149.308 1305.36,-131.591"/>
<polygon fill="midnightblue" stroke="midnightblue" points="1301.86,-214.368 1305.36,-224.368 1308.86,-214.369 1301.86,-214.368"/>
</g>
<!-- Node31&#45;&gt;Node23 -->
<g id="edge64" class="edge"><title>Node31&#45;&gt;Node23</title>
<path fill="none" stroke="midnightblue" d="M1373.13,-224.009C1437.76,-215.299 1537.81,-201.467 1624.36,-188 1632.55,-186.727 1854.35,-148.921 1956.15,-131.563"/>
<polygon fill="midnightblue" stroke="midnightblue" points="1372.51,-220.56 1363.07,-225.362 1373.44,-227.498 1372.51,-220.56"/>
</g>
<!-- Node32 -->
<g id="node32" class="node"><title>Node32</title>
<g id="a_node32"><a xlink:href="Game_8h.html" target="_top" xlink:title="Engine/include/Game.h">
<polygon fill="white" stroke="black" points="728.364,-168.5 728.364,-187.5 846.364,-187.5 846.364,-168.5 728.364,-168.5"/>
<text text-anchor="middle" x="787.364" y="-175.5" font-family="Helvetica,sans-Serif" font-size="10.00">Engine/include/Game.h</text>
</a>
</g>
</g>
<!-- Node31&#45;&gt;Node32 -->
<g id="edge50" class="edge"><title>Node31&#45;&gt;Node32</title>
<path fill="none" stroke="midnightblue" d="M1237.49,-225.925C1135.26,-215.267 943.435,-195.27 846.561,-185.171"/>
<polygon fill="midnightblue" stroke="midnightblue" points="1237.39,-229.433 1247.7,-226.989 1238.12,-222.471 1237.39,-229.433"/>
</g>
<!-- Node38 -->
<g id="node38" class="node"><title>Node38</title>
<g id="a_node38"><a xlink:href="TitleState_8h.html" target="_top" xlink:title="Game/include/TitleState.h">
<polygon fill="white" stroke="black" points="167.364,-168.5 167.364,-187.5 297.364,-187.5 297.364,-168.5 167.364,-168.5"/>
<text text-anchor="middle" x="232.364" y="-175.5" font-family="Helvetica,sans-Serif" font-size="10.00">Game/include/TitleState.h</text>
</a>
</g>
</g>
<!-- Node31&#45;&gt;Node38 -->
<g id="edge65" class="edge"><title>Node31&#45;&gt;Node38</title>
<path fill="none" stroke="midnightblue" d="M1237.61,-229.59C1043.65,-219.829 487.918,-191.861 297.387,-182.272"/>
<polygon fill="midnightblue" stroke="midnightblue" points="1237.51,-233.09 1247.67,-230.097 1237.86,-226.098 1237.51,-233.09"/>
</g>
<!-- Node32&#45;&gt;Node10 -->
<g id="edge54" class="edge"><title>Node32&#45;&gt;Node10</title>
<path fill="none" stroke="midnightblue" d="M856.463,-167.333C929.72,-157.085 1044.23,-141.065 1113.69,-131.348"/>
<polygon fill="midnightblue" stroke="midnightblue" points="855.828,-163.888 846.409,-168.74 856.798,-170.82 855.828,-163.888"/>
</g>
<!-- Node32&#45;&gt;Node13 -->
<g id="edge57" class="edge"><title>Node32&#45;&gt;Node13</title>
<path fill="none" stroke="midnightblue" d="M815.67,-164.368C838.329,-154.255 869.49,-140.349 889.281,-131.516"/>
<polygon fill="midnightblue" stroke="midnightblue" points="814.242,-161.172 806.537,-168.444 817.095,-167.564 814.242,-161.172"/>
</g>
<!-- Node32&#45;&gt;Node16 -->
<g id="edge58" class="edge"><title>Node32&#45;&gt;Node16</title>
<path fill="none" stroke="midnightblue" d="M837.185,-166.281C884.618,-156.077 955.068,-140.92 998.778,-131.516"/>
<polygon fill="midnightblue" stroke="midnightblue" points="836.176,-162.918 827.136,-168.444 837.648,-169.762 836.176,-162.918"/>
</g>
<!-- Node32&#45;&gt;Node18 -->
<g id="edge60" class="edge"><title>Node32&#45;&gt;Node18</title>
<path fill="none" stroke="midnightblue" d="M788.796,-158.188C791.041,-143.036 796.774,-122.579 811.364,-112 834.396,-95.2998 1694.51,-74.1978 1940.98,-68.4833"/>
<polygon fill="midnightblue" stroke="midnightblue" points="785.277,-158.167 787.669,-168.488 792.236,-158.928 785.277,-158.167"/>
</g>
<!-- Node32&#45;&gt;Node19 -->
<g id="edge61" class="edge"><title>Node32&#45;&gt;Node19</title>
<path fill="none" stroke="midnightblue" d="M717.816,-176.604C638.904,-174.503 517.369,-165.697 488.364,-132 482.565,-125.263 482.203,-118.407 488.364,-112 523.897,-75.0525 1359.28,-80.2272 1410.36,-76 1413.46,-75.7438 1416.63,-75.4519 1419.82,-75.1336"/>
<polygon fill="midnightblue" stroke="midnightblue" points="718.095,-180.111 728.175,-176.848 718.26,-173.113 718.095,-180.111"/>
</g>
<!-- Node32&#45;&gt;Node26 -->
<g id="edge62" class="edge"><title>Node32&#45;&gt;Node26</title>
<path fill="none" stroke="midnightblue" d="M797.023,-159.465C806.714,-143.84 823.223,-121.953 844.364,-112 906.517,-82.7399 2011.71,-78.3729 2080.36,-76 2131.45,-74.2344 2189.04,-71.9246 2233.17,-70.0871"/>
<polygon fill="midnightblue" stroke="midnightblue" points="793.927,-157.825 791.889,-168.222 799.966,-161.365 793.927,-157.825"/>
</g>
<!-- Node33 -->
<g id="node33" class="node"><title>Node33</title>
<g id="a_node33"><a xlink:href="Text_8h.html" target="_top" xlink:title="Engine/include/Text.h">
<polygon fill="white" stroke="black" points="13.8641,-112.5 13.8641,-131.5 124.864,-131.5 124.864,-112.5 13.8641,-112.5"/>
<text text-anchor="middle" x="69.3641" y="-119.5" font-family="Helvetica,sans-Serif" font-size="10.00">Engine/include/Text.h</text>
</a>
</g>
</g>
<!-- Node32&#45;&gt;Node33 -->
<g id="edge51" class="edge"><title>Node32&#45;&gt;Node33</title>
<path fill="none" stroke="midnightblue" d="M717.99,-172.244C604.062,-164.362 370.215,-147.882 172.364,-132 156.977,-130.765 140.304,-129.344 124.945,-128.001"/>
<polygon fill="midnightblue" stroke="midnightblue" points="717.756,-175.736 727.974,-172.934 718.239,-168.753 717.756,-175.736"/>
</g>
<!-- Node35 -->
<g id="node35" class="node"><title>Node35</title>
<g id="a_node35"><a xlink:href="Game_8cpp.html" target="_top" xlink:title="Engine/src/Game.cpp">
<polygon fill="white" stroke="black" points="497.864,-112.5 497.864,-131.5 608.864,-131.5 608.864,-112.5 497.864,-112.5"/>
<text text-anchor="middle" x="553.364" y="-119.5" font-family="Helvetica,sans-Serif" font-size="10.00">Engine/src/Game.cpp</text>
</a>
</g>
</g>
<!-- Node32&#45;&gt;Node35 -->
<g id="edge55" class="edge"><title>Node32&#45;&gt;Node35</title>
<path fill="none" stroke="midnightblue" d="M740.36,-166.153C696.147,-155.95 630.848,-140.881 590.269,-131.516"/>
<polygon fill="midnightblue" stroke="midnightblue" points="739.755,-169.605 750.286,-168.444 741.329,-162.784 739.755,-169.605"/>
</g>
<!-- Node36 -->
<g id="node36" class="node"><title>Node36</title>
<g id="a_node36"><a xlink:href="Resources_8cpp.html" target="_top" xlink:title="Engine/src/Resources.cpp">
<polygon fill="white" stroke="black" points="627.364,-112.5 627.364,-131.5 759.364,-131.5 759.364,-112.5 627.364,-112.5"/>
<text text-anchor="middle" x="693.364" y="-119.5" font-family="Helvetica,sans-Serif" font-size="10.00">Engine/src/Resources.cpp</text>
</a>
</g>
</g>
<!-- Node32&#45;&gt;Node36 -->
<g id="edge56" class="edge"><title>Node32&#45;&gt;Node36</title>
<path fill="none" stroke="midnightblue" d="M763.302,-163.177C746.005,-153.241 723.216,-140.149 708.429,-131.655"/>
<polygon fill="midnightblue" stroke="midnightblue" points="761.847,-166.378 772.261,-168.324 765.334,-160.308 761.847,-166.378"/>
</g>
<!-- Node37 -->
<g id="node37" class="node"><title>Node37</title>
<g id="a_node37"><a xlink:href="main_8cpp.html" target="_top" xlink:title="Game/src/main.cpp">
<polygon fill="white" stroke="black" points="181.364,-112.5 181.364,-131.5 283.364,-131.5 283.364,-112.5 181.364,-112.5"/>
<text text-anchor="middle" x="232.364" y="-119.5" font-family="Helvetica,sans-Serif" font-size="10.00">Game/src/main.cpp</text>
</a>
</g>
</g>
<!-- Node32&#45;&gt;Node37 -->
<g id="edge59" class="edge"><title>Node32&#45;&gt;Node37</title>
<path fill="none" stroke="midnightblue" d="M718.051,-171.979C622.199,-164.744 443.842,-150.23 292.364,-132 289.436,-131.648 286.431,-131.265 283.4,-130.862"/>
<polygon fill="midnightblue" stroke="midnightblue" points="717.961,-175.482 728.195,-172.741 718.485,-168.502 717.961,-175.482"/>
</g>
<!-- Node33&#45;&gt;Node24 -->
<g id="edge53" class="edge"><title>Node33&#45;&gt;Node24</title>
<path fill="none" stroke="midnightblue" d="M135.413,-112.344C136.741,-112.223 138.059,-112.108 139.364,-112 571.578,-76.1709 1093.9,-68.8548 1273.28,-67.3727"/>
<polygon fill="midnightblue" stroke="midnightblue" points="134.703,-108.897 125.1,-113.373 135.399,-115.863 134.703,-108.897"/>
</g>
<!-- Node34 -->
<g id="node34" class="node"><title>Node34</title>
<g id="a_node34"><a xlink:href="Text_8cpp.html" target="_top" xlink:title="Engine/src/Text.cpp">
<polygon fill="white" stroke="black" points="17.3641,-56.5 17.3641,-75.5 121.364,-75.5 121.364,-56.5 17.3641,-56.5"/>
<text text-anchor="middle" x="69.3641" y="-63.5" font-family="Helvetica,sans-Serif" font-size="10.00">Engine/src/Text.cpp</text>
</a>
</g>
</g>
<!-- Node33&#45;&gt;Node34 -->
<g id="edge52" class="edge"><title>Node33&#45;&gt;Node34</title>
<path fill="none" stroke="midnightblue" d="M69.3641,-101.805C69.3641,-92.9102 69.3641,-82.7798 69.3641,-75.7511"/>
<polygon fill="midnightblue" stroke="midnightblue" points="65.8642,-102.083 69.3641,-112.083 72.8642,-102.083 65.8642,-102.083"/>
</g>
<!-- Node38&#45;&gt;Node19 -->
<g id="edge67" class="edge"><title>Node38&#45;&gt;Node19</title>
<path fill="none" stroke="midnightblue" d="M205.681,-163.596C182.584,-150.323 155.361,-129.505 172.364,-112 220.306,-62.6442 1341.76,-81.3327 1410.36,-76 1413.46,-75.7593 1416.63,-75.4797 1419.83,-75.1712"/>
<polygon fill="midnightblue" stroke="midnightblue" points="204.096,-166.719 214.547,-168.458 207.461,-160.581 204.096,-166.719"/>
</g>
<!-- Node38&#45;&gt;Node37 -->
<g id="edge66" class="edge"><title>Node38&#45;&gt;Node37</title>
<path fill="none" stroke="midnightblue" d="M232.364,-157.805C232.364,-148.91 232.364,-138.78 232.364,-131.751"/>
<polygon fill="midnightblue" stroke="midnightblue" points="228.864,-158.083 232.364,-168.083 235.864,-158.083 228.864,-158.083"/>
</g>
<!-- Node39&#45;&gt;Node5 -->
<g id="edge77" class="edge"><title>Node39&#45;&gt;Node5</title>
<path fill="none" stroke="midnightblue" d="M2377.52,-275.265C2435.77,-242.152 2582.64,-158.659 2630.23,-131.605"/>
<polygon fill="midnightblue" stroke="midnightblue" points="2375.62,-272.324 2368.65,-280.309 2379.08,-278.409 2375.62,-272.324"/>
</g>
<!-- Node40 -->
<g id="node40" class="node"><title>Node40</title>
<g id="a_node40"><a xlink:href="HitPoints_8cpp.html" target="_top" xlink:title="Engine/src/HitPoints.cpp">
<polygon fill="white" stroke="black" points="2290.86,-224.5 2290.86,-243.5 2415.86,-243.5 2415.86,-224.5 2290.86,-224.5"/>
<text text-anchor="middle" x="2353.36" y="-231.5" font-family="Helvetica,sans-Serif" font-size="10.00">Engine/src/HitPoints.cpp</text>
</a>
</g>
</g>
<!-- Node39&#45;&gt;Node40 -->
<g id="edge76" class="edge"><title>Node39&#45;&gt;Node40</title>
<path fill="none" stroke="midnightblue" d="M2353.36,-269.805C2353.36,-260.91 2353.36,-250.78 2353.36,-243.751"/>
<polygon fill="midnightblue" stroke="midnightblue" points="2349.86,-270.083 2353.36,-280.083 2356.86,-270.083 2349.86,-270.083"/>
</g>
</g>
</svg>
