<?xml version="1.0" encoding="UTF-8" standalone="no"?>
<!DOCTYPE svg PUBLIC "-//W3C//DTD SVG 1.1//EN"
 "http://www.w3.org/Graphics/SVG/1.1/DTD/svg11.dtd">
<!-- Generated by graphviz version 2.38.0 (20140413.2041)
 -->
<!-- Title: Engine/include/Component.h Pages: 1 -->
<svg width="2059pt" height="364pt"
 viewBox="0.00 0.00 2058.50 364.00" xmlns="http://www.w3.org/2000/svg" xmlns:xlink="http://www.w3.org/1999/xlink">
<g id="graph0" class="graph" transform="scale(1 1) rotate(0) translate(4 360)">
<title>Engine/include/Component.h</title>
<polygon fill="white" stroke="none" points="-4,4 -4,-360 2054.5,-360 2054.5,4 -4,4"/>
<!-- Node1 -->
<g id="node1" class="node"><title>Node1</title>
<polygon fill="#bfbfbf" stroke="black" points="1617,-336.5 1617,-355.5 1759,-355.5 1759,-336.5 1617,-336.5"/>
<text text-anchor="middle" x="1688" y="-343.5" font-family="Helvetica,sans-Serif" font-size="10.00">Engine/include/Component.h</text>
</g>
<!-- Node2 -->
<g id="node2" class="node"><title>Node2</title>
<g id="a_node2"><a xlink:href="AIGoDown_8h.html" target="_top" xlink:title="Engine/include/AIGoDown.h">
<polygon fill="white" stroke="black" points="1569,-280.5 1569,-299.5 1709,-299.5 1709,-280.5 1569,-280.5"/>
<text text-anchor="middle" x="1639" y="-287.5" font-family="Helvetica,sans-Serif" font-size="10.00">Engine/include/AIGoDown.h</text>
</a>
</g>
</g>
<!-- Node1&#45;&gt;Node2 -->
<g id="edge1" class="edge"><title>Node1&#45;&gt;Node2</title>
<path fill="none" stroke="midnightblue" d="M1672.97,-328.431C1664.38,-318.967 1653.96,-307.483 1646.94,-299.751"/>
<polygon fill="midnightblue" stroke="midnightblue" points="1670.6,-331.029 1679.91,-336.083 1675.78,-326.325 1670.6,-331.029"/>
</g>
<!-- Node5 -->
<g id="node5" class="node"><title>Node5</title>
<g id="a_node5"><a xlink:href="GameObject_8h.html" target="_top" xlink:title="Engine/include/GameObject.h">
<polygon fill="white" stroke="black" points="1078,-280.5 1078,-299.5 1224,-299.5 1224,-280.5 1078,-280.5"/>
<text text-anchor="middle" x="1151" y="-287.5" font-family="Helvetica,sans-Serif" font-size="10.00">Engine/include/GameObject.h</text>
</a>
</g>
</g>
<!-- Node1&#45;&gt;Node5 -->
<g id="edge4" class="edge"><title>Node1&#45;&gt;Node5</title>
<path fill="none" stroke="midnightblue" d="M1606.84,-337.33C1502.79,-327.115 1324.02,-309.14 1224.04,-298.84"/>
<polygon fill="midnightblue" stroke="midnightblue" points="1606.69,-340.832 1616.99,-338.324 1607.37,-333.865 1606.69,-340.832"/>
</g>
<!-- Node17 -->
<g id="node17" class="node"><title>Node17</title>
<g id="a_node17"><a xlink:href="DragAndDrop_8h.html" target="_top" xlink:title="Engine/include/DragAndDrop.h">
<polygon fill="white" stroke="black" points="1727.5,-168.5 1727.5,-187.5 1878.5,-187.5 1878.5,-168.5 1727.5,-168.5"/>
<text text-anchor="middle" x="1803" y="-175.5" font-family="Helvetica,sans-Serif" font-size="10.00">Engine/include/DragAndDrop.h</text>
</a>
</g>
</g>
<!-- Node1&#45;&gt;Node17 -->
<g id="edge61" class="edge"><title>Node1&#45;&gt;Node17</title>
<path fill="none" stroke="midnightblue" d="M1700.03,-327.774C1705.67,-319.493 1712.38,-309.354 1718,-300 1737.78,-267.108 1736.25,-254.911 1759,-224 1769.23,-210.096 1783.59,-196.213 1793.09,-187.622"/>
<polygon fill="midnightblue" stroke="midnightblue" points="1697.02,-325.974 1694.23,-336.193 1702.78,-329.947 1697.02,-325.974"/>
</g>
<!-- Node36 -->
<g id="node36" class="node"><title>Node36</title>
<g id="a_node36"><a xlink:href="HitPoints_8h.html" target="_top" xlink:title="Engine/include/HitPoints.h">
<polygon fill="white" stroke="black" points="1765,-280.5 1765,-299.5 1897,-299.5 1897,-280.5 1765,-280.5"/>
<text text-anchor="middle" x="1831" y="-287.5" font-family="Helvetica,sans-Serif" font-size="10.00">Engine/include/HitPoints.h</text>
</a>
</g>
</g>
<!-- Node1&#45;&gt;Node36 -->
<g id="edge62" class="edge"><title>Node1&#45;&gt;Node36</title>
<path fill="none" stroke="midnightblue" d="M1720.03,-332.906C1746.91,-322.754 1784.64,-308.506 1808.45,-299.516"/>
<polygon fill="midnightblue" stroke="midnightblue" points="1718.78,-329.636 1710.66,-336.444 1721.25,-336.185 1718.78,-329.636"/>
</g>
<!-- Node38 -->
<g id="node38" class="node"><title>Node38</title>
<g id="a_node38"><a xlink:href="Component_8cpp.html" target="_top" xlink:title="Engine/src/Component.cpp">
<polygon fill="white" stroke="black" points="1915.5,-280.5 1915.5,-299.5 2050.5,-299.5 2050.5,-280.5 1915.5,-280.5"/>
<text text-anchor="middle" x="1983" y="-287.5" font-family="Helvetica,sans-Serif" font-size="10.00">Engine/src/Component.cpp</text>
</a>
</g>
</g>
<!-- Node1&#45;&gt;Node38 -->
<g id="edge64" class="edge"><title>Node1&#45;&gt;Node38</title>
<path fill="none" stroke="midnightblue" d="M1744.81,-334.601C1800.56,-324.395 1884.56,-309.019 1936.48,-299.516"/>
<polygon fill="midnightblue" stroke="midnightblue" points="1743.95,-331.2 1734.74,-336.444 1745.21,-338.086 1743.95,-331.2"/>
</g>
<!-- Node3 -->
<g id="node3" class="node"><title>Node3</title>
<g id="a_node3"><a xlink:href="AIGoDown_8cpp.html" target="_top" xlink:title="Engine/src/AIGoDown.cpp">
<polygon fill="white" stroke="black" points="1537.5,-224.5 1537.5,-243.5 1670.5,-243.5 1670.5,-224.5 1537.5,-224.5"/>
<text text-anchor="middle" x="1604" y="-231.5" font-family="Helvetica,sans-Serif" font-size="10.00">Engine/src/AIGoDown.cpp</text>
</a>
</g>
</g>
<!-- Node2&#45;&gt;Node3 -->
<g id="edge2" class="edge"><title>Node2&#45;&gt;Node3</title>
<path fill="none" stroke="midnightblue" d="M1627.7,-271.566C1621.68,-262.275 1614.53,-251.248 1609.67,-243.751"/>
<polygon fill="midnightblue" stroke="midnightblue" points="1624.84,-273.595 1633.22,-280.083 1630.72,-269.788 1624.84,-273.595"/>
</g>
<!-- Node4 -->
<g id="node4" class="node"><title>Node4</title>
<g id="a_node4"><a xlink:href="Enemy_8cpp.html" target="_top" xlink:title="Game/src/Enemy.cpp">
<polygon fill="white" stroke="black" points="1463,-112.5 1463,-131.5 1575,-131.5 1575,-112.5 1463,-112.5"/>
<text text-anchor="middle" x="1519" y="-119.5" font-family="Helvetica,sans-Serif" font-size="10.00">Game/src/Enemy.cpp</text>
</a>
</g>
</g>
<!-- Node2&#45;&gt;Node4 -->
<g id="edge3" class="edge"><title>Node2&#45;&gt;Node4</title>
<path fill="none" stroke="midnightblue" d="M1658.78,-273.798C1673.18,-260.778 1688.61,-241.427 1679,-224 1651.09,-173.37 1585.93,-144.618 1547.93,-131.592"/>
<polygon fill="midnightblue" stroke="midnightblue" points="1656.43,-271.199 1651.05,-280.327 1660.95,-276.546 1656.43,-271.199"/>
</g>
<!-- Node5&#45;&gt;Node1 -->
<g id="edge5" class="edge"><title>Node5&#45;&gt;Node1</title>
<path fill="none" stroke="midnightblue" d="M1234.46,-298.896C1339.48,-309.212 1517.9,-327.156 1616.8,-337.349"/>
<polygon fill="midnightblue" stroke="midnightblue" points="1234.51,-295.385 1224.22,-297.892 1233.83,-302.351 1234.51,-295.385"/>
</g>
<!-- Node6 -->
<g id="node6" class="node"><title>Node6</title>
<g id="a_node6"><a xlink:href="Animation_8h.html" target="_top" xlink:title="Engine/include/Animation.h">
<polygon fill="white" stroke="black" points="1005.5,-224.5 1005.5,-243.5 1140.5,-243.5 1140.5,-224.5 1005.5,-224.5"/>
<text text-anchor="middle" x="1073" y="-231.5" font-family="Helvetica,sans-Serif" font-size="10.00">Engine/include/Animation.h</text>
</a>
</g>
</g>
<!-- Node5&#45;&gt;Node6 -->
<g id="edge6" class="edge"><title>Node5&#45;&gt;Node6</title>
<path fill="none" stroke="midnightblue" d="M1130.23,-274.622C1115.98,-264.757 1097.54,-251.992 1085.5,-243.655"/>
<polygon fill="midnightblue" stroke="midnightblue" points="1128.25,-277.51 1138.47,-280.324 1132.24,-271.754 1128.25,-277.51"/>
</g>
<!-- Node8 -->
<g id="node8" class="node"><title>Node8</title>
<g id="a_node8"><a xlink:href="Camera_8h.html" target="_top" xlink:title="Engine/include/Camera.h">
<polygon fill="white" stroke="black" points="1260,-168.5 1260,-187.5 1386,-187.5 1386,-168.5 1260,-168.5"/>
<text text-anchor="middle" x="1323" y="-175.5" font-family="Helvetica,sans-Serif" font-size="10.00">Engine/include/Camera.h</text>
</a>
</g>
</g>
<!-- Node5&#45;&gt;Node8 -->
<g id="edge8" class="edge"><title>Node5&#45;&gt;Node8</title>
<path fill="none" stroke="midnightblue" d="M1234.03,-281.933C1260.9,-275.673 1288.7,-264.333 1308,-244 1322.67,-228.543 1324,-201.726 1323.59,-187.865"/>
<polygon fill="midnightblue" stroke="midnightblue" points="1233.25,-278.52 1224.2,-284.016 1234.7,-285.368 1233.25,-278.52"/>
</g>
<!-- Node16 -->
<g id="node16" class="node"><title>Node16</title>
<g id="a_node16"><a xlink:href="TileMap_8h.html" target="_top" xlink:title="Engine/include/TileMap.h">
<polygon fill="white" stroke="black" points="1393,-224.5 1393,-243.5 1519,-243.5 1519,-224.5 1393,-224.5"/>
<text text-anchor="middle" x="1456" y="-231.5" font-family="Helvetica,sans-Serif" font-size="10.00">Engine/include/TileMap.h</text>
</a>
</g>
</g>
<!-- Node5&#45;&gt;Node16 -->
<g id="edge18" class="edge"><title>Node5&#45;&gt;Node16</title>
<path fill="none" stroke="midnightblue" d="M1209.38,-278.664C1267.02,-268.459 1354.12,-253.039 1407.9,-243.516"/>
<polygon fill="midnightblue" stroke="midnightblue" points="1208.56,-275.254 1199.33,-280.444 1209.79,-282.146 1208.56,-275.254"/>
</g>
<!-- Node18 -->
<g id="node18" class="node"><title>Node18</title>
<g id="a_node18"><a xlink:href="StageState_8h.html" target="_top" xlink:title="Game/include/StageState.h">
<polygon fill="white" stroke="black" points="163.5,-168.5 163.5,-187.5 300.5,-187.5 300.5,-168.5 163.5,-168.5"/>
<text text-anchor="middle" x="232" y="-175.5" font-family="Helvetica,sans-Serif" font-size="10.00">Game/include/StageState.h</text>
</a>
</g>
</g>
<!-- Node5&#45;&gt;Node18 -->
<g id="edge58" class="edge"><title>Node5&#45;&gt;Node18</title>
<path fill="none" stroke="midnightblue" d="M1067.53,-286.789C947.61,-282.747 719.871,-271.848 528,-244 430.633,-229.868 317.572,-201.699 263.699,-187.541"/>
<polygon fill="midnightblue" stroke="midnightblue" points="1067.63,-290.294 1077.74,-287.125 1067.86,-283.297 1067.63,-290.294"/>
</g>
<!-- Node19 -->
<g id="node19" class="node"><title>Node19</title>
<g id="a_node19"><a xlink:href="EndState_8h.html" target="_top" xlink:title="Game/include/EndState.h">
<polygon fill="white" stroke="black" points="0,-56.5 0,-75.5 128,-75.5 128,-56.5 0,-56.5"/>
<text text-anchor="middle" x="64" y="-63.5" font-family="Helvetica,sans-Serif" font-size="10.00">Game/include/EndState.h</text>
</a>
</g>
</g>
<!-- Node5&#45;&gt;Node19 -->
<g id="edge57" class="edge"><title>Node5&#45;&gt;Node19</title>
<path fill="none" stroke="midnightblue" d="M1067.65,-287.036C858.697,-281.088 317.586,-259.075 154,-188 114.194,-170.705 96.9201,-168.855 74,-132 63.0262,-114.354 62.6015,-88.9454 63.2728,-75.7304"/>
<polygon fill="midnightblue" stroke="midnightblue" points="1067.85,-290.543 1077.95,-287.324 1068.05,-283.546 1067.85,-290.543"/>
</g>
<!-- Node22 -->
<g id="node22" class="node"><title>Node22</title>
<g id="a_node22"><a xlink:href="Enemy_8h.html" target="_top" xlink:title="Game/include/Enemy.h">
<polygon fill="white" stroke="black" points="1042.5,-168.5 1042.5,-187.5 1161.5,-187.5 1161.5,-168.5 1042.5,-168.5"/>
<text text-anchor="middle" x="1102" y="-175.5" font-family="Helvetica,sans-Serif" font-size="10.00">Game/include/Enemy.h</text>
</a>
</g>
</g>
<!-- Node5&#45;&gt;Node22 -->
<g id="edge59" class="edge"><title>Node5&#45;&gt;Node22</title>
<path fill="none" stroke="midnightblue" d="M1087.41,-278.47C1049.8,-270.801 1007.35,-259.118 996,-244 975,-216.036 1023.03,-197.435 1061.13,-187.544"/>
<polygon fill="midnightblue" stroke="midnightblue" points="1086.87,-281.93 1097.36,-280.43 1088.22,-275.062 1086.87,-281.93"/>
</g>
<!-- Node23 -->
<g id="node23" class="node"><title>Node23</title>
<g id="a_node23"><a xlink:href="Face_8h.html" target="_top" xlink:title="Game/include/Face.h">
<polygon fill="white" stroke="black" points="1404,-168.5 1404,-187.5 1514,-187.5 1514,-168.5 1404,-168.5"/>
<text text-anchor="middle" x="1459" y="-175.5" font-family="Helvetica,sans-Serif" font-size="10.00">Game/include/Face.h</text>
</a>
</g>
</g>
<!-- Node5&#45;&gt;Node23 -->
<g id="edge60" class="edge"><title>Node5&#45;&gt;Node23</title>
<path fill="none" stroke="midnightblue" d="M1205.58,-278.258C1241.04,-270.519 1287.95,-258.837 1328,-244 1371.81,-227.772 1420.32,-201.293 1444.14,-187.682"/>
<polygon fill="midnightblue" stroke="midnightblue" points="1204.48,-274.916 1195.43,-280.434 1205.94,-281.76 1204.48,-274.916"/>
</g>
<!-- Node24 -->
<g id="node24" class="node"><title>Node24</title>
<g id="a_node24"><a xlink:href="State_8h.html" target="_top" xlink:title="Engine/include/State.h">
<polygon fill="white" stroke="black" points="537.5,-224.5 537.5,-243.5 652.5,-243.5 652.5,-224.5 537.5,-224.5"/>
<text text-anchor="middle" x="595" y="-231.5" font-family="Helvetica,sans-Serif" font-size="10.00">Engine/include/State.h</text>
</a>
</g>
</g>
<!-- Node5&#45;&gt;Node24 -->
<g id="edge35" class="edge"><title>Node5&#45;&gt;Node24</title>
<path fill="none" stroke="midnightblue" d="M1067.65,-280.905C953.552,-269.823 751.622,-250.212 652.773,-240.611"/>
<polygon fill="midnightblue" stroke="midnightblue" points="1067.45,-284.402 1077.74,-281.885 1068.13,-277.435 1067.45,-284.402"/>
</g>
<!-- Node33 -->
<g id="node33" class="node"><title>Node33</title>
<g id="a_node33"><a xlink:href="Wave_8h.html" target="_top" xlink:title="Engine/include/Wave.h">
<polygon fill="white" stroke="black" points="831.5,-224.5 831.5,-243.5 948.5,-243.5 948.5,-224.5 831.5,-224.5"/>
<text text-anchor="middle" x="890" y="-231.5" font-family="Helvetica,sans-Serif" font-size="10.00">Engine/include/Wave.h</text>
</a>
</g>
</g>
<!-- Node5&#45;&gt;Node33 -->
<g id="edge53" class="edge"><title>Node5&#45;&gt;Node33</title>
<path fill="none" stroke="midnightblue" d="M1099.81,-278.41C1050.49,-268.204 976.805,-252.96 931.163,-243.516"/>
<polygon fill="midnightblue" stroke="midnightblue" points="1099.14,-281.845 1109.64,-280.444 1100.56,-274.99 1099.14,-281.845"/>
</g>
<!-- Node35 -->
<g id="node35" class="node"><title>Node35</title>
<g id="a_node35"><a xlink:href="GameObject_8cpp.html" target="_top" xlink:title="Engine/src/GameObject.cpp">
<polygon fill="white" stroke="black" points="1159,-224.5 1159,-243.5 1299,-243.5 1299,-224.5 1159,-224.5"/>
<text text-anchor="middle" x="1229" y="-231.5" font-family="Helvetica,sans-Serif" font-size="10.00">Engine/src/GameObject.cpp</text>
</a>
</g>
</g>
<!-- Node5&#45;&gt;Node35 -->
<g id="edge56" class="edge"><title>Node5&#45;&gt;Node35</title>
<path fill="none" stroke="midnightblue" d="M1171.77,-274.622C1186.02,-264.757 1204.46,-251.992 1216.5,-243.655"/>
<polygon fill="midnightblue" stroke="midnightblue" points="1169.76,-271.754 1163.53,-280.324 1173.75,-277.51 1169.76,-271.754"/>
</g>
<!-- Node7 -->
<g id="node7" class="node"><title>Node7</title>
<g id="a_node7"><a xlink:href="Animation_8cpp.html" target="_top" xlink:title="Engine/src/Animation.cpp">
<polygon fill="white" stroke="black" points="1317,-112.5 1317,-131.5 1445,-131.5 1445,-112.5 1317,-112.5"/>
<text text-anchor="middle" x="1381" y="-119.5" font-family="Helvetica,sans-Serif" font-size="10.00">Engine/src/Animation.cpp</text>
</a>
</g>
</g>
<!-- Node6&#45;&gt;Node7 -->
<g id="edge7" class="edge"><title>Node6&#45;&gt;Node7</title>
<path fill="none" stroke="midnightblue" d="M1105.4,-220.982C1141.03,-207.81 1200,-186.137 1251,-168 1287.45,-155.036 1329.83,-140.459 1356.03,-131.502"/>
<polygon fill="midnightblue" stroke="midnightblue" points="1104.16,-217.709 1096,-224.462 1106.59,-224.274 1104.16,-217.709"/>
</g>
<!-- Node8&#45;&gt;Node4 -->
<g id="edge15" class="edge"><title>Node8&#45;&gt;Node4</title>
<path fill="none" stroke="midnightblue" d="M1364.02,-165.699C1401.01,-155.507 1454.6,-140.743 1488.09,-131.516"/>
<polygon fill="midnightblue" stroke="midnightblue" points="1362.77,-162.413 1354.06,-168.444 1364.63,-169.162 1362.77,-162.413"/>
</g>
<!-- Node8&#45;&gt;Node7 -->
<g id="edge9" class="edge"><title>Node8&#45;&gt;Node7</title>
<path fill="none" stroke="midnightblue" d="M1339.91,-161.253C1350.2,-151.673 1362.97,-139.791 1371.51,-131.834"/>
<polygon fill="midnightblue" stroke="midnightblue" points="1337.25,-158.948 1332.32,-168.324 1342.02,-164.071 1337.25,-158.948"/>
</g>
<!-- Node9 -->
<g id="node9" class="node"><title>Node9</title>
<g id="a_node9"><a xlink:href="Camera_8cpp.html" target="_top" xlink:title="Engine/src/Camera.cpp">
<polygon fill="white" stroke="black" points="771.5,-112.5 771.5,-131.5 890.5,-131.5 890.5,-112.5 771.5,-112.5"/>
<text text-anchor="middle" x="831" y="-119.5" font-family="Helvetica,sans-Serif" font-size="10.00">Engine/src/Camera.cpp</text>
</a>
</g>
</g>
<!-- Node8&#45;&gt;Node9 -->
<g id="edge10" class="edge"><title>Node8&#45;&gt;Node9</title>
<path fill="none" stroke="midnightblue" d="M1249.89,-169.754C1165.52,-161.268 1022.63,-146.518 900,-132 897.001,-131.645 893.929,-131.273 890.828,-130.892"/>
<polygon fill="midnightblue" stroke="midnightblue" points="1249.58,-173.241 1259.88,-170.757 1250.28,-166.276 1249.58,-173.241"/>
</g>
<!-- Node10 -->
<g id="node10" class="node"><title>Node10</title>
<g id="a_node10"><a xlink:href="DragAndDrop_8cpp.html" target="_top" xlink:title="Engine/src/DragAndDrop.cpp">
<polygon fill="white" stroke="black" points="1731,-112.5 1731,-131.5 1875,-131.5 1875,-112.5 1731,-112.5"/>
<text text-anchor="middle" x="1803" y="-119.5" font-family="Helvetica,sans-Serif" font-size="10.00">Engine/src/DragAndDrop.cpp</text>
</a>
</g>
</g>
<!-- Node8&#45;&gt;Node10 -->
<g id="edge11" class="edge"><title>Node8&#45;&gt;Node10</title>
<path fill="none" stroke="midnightblue" d="M1396.24,-167.895C1445.49,-162.32 1627.73,-142.268 1730.95,-130.919"/>
<polygon fill="midnightblue" stroke="midnightblue" points="1395.75,-164.429 1386.21,-169.046 1396.54,-171.383 1395.75,-164.429"/>
</g>
<!-- Node11 -->
<g id="node11" class="node"><title>Node11</title>
<g id="a_node11"><a xlink:href="Sprite_8cpp.html" target="_top" xlink:title="Engine/src/Sprite.cpp">
<polygon fill="white" stroke="black" points="909,-112.5 909,-131.5 1019,-131.5 1019,-112.5 909,-112.5"/>
<text text-anchor="middle" x="964" y="-119.5" font-family="Helvetica,sans-Serif" font-size="10.00">Engine/src/Sprite.cpp</text>
</a>
</g>
</g>
<!-- Node8&#45;&gt;Node11 -->
<g id="edge12" class="edge"><title>Node8&#45;&gt;Node11</title>
<path fill="none" stroke="midnightblue" d="M1255.89,-166.905C1187.54,-156.624 1082.82,-140.872 1019.15,-131.295"/>
<polygon fill="midnightblue" stroke="midnightblue" points="1255.71,-170.417 1266.12,-168.444 1256.75,-163.495 1255.71,-170.417"/>
</g>
<!-- Node12 -->
<g id="node12" class="node"><title>Node12</title>
<g id="a_node12"><a xlink:href="TileMap_8cpp.html" target="_top" xlink:title="Engine/src/TileMap.cpp">
<polygon fill="white" stroke="black" points="1593.5,-112.5 1593.5,-131.5 1712.5,-131.5 1712.5,-112.5 1593.5,-112.5"/>
<text text-anchor="middle" x="1653" y="-119.5" font-family="Helvetica,sans-Serif" font-size="10.00">Engine/src/TileMap.cpp</text>
</a>
</g>
</g>
<!-- Node8&#45;&gt;Node12 -->
<g id="edge13" class="edge"><title>Node8&#45;&gt;Node12</title>
<path fill="none" stroke="midnightblue" d="M1385.39,-166.791C1447.75,-156.587 1542.52,-141.078 1600.96,-131.516"/>
<polygon fill="midnightblue" stroke="midnightblue" points="1384.59,-163.375 1375.29,-168.444 1385.72,-170.283 1384.59,-163.375"/>
</g>
<!-- Node13 -->
<g id="node13" class="node"><title>Node13</title>
<g id="a_node13"><a xlink:href="Tileset_8cpp.html" target="_top" xlink:title="Engine/src/Tileset.cpp">
<polygon fill="white" stroke="black" points="1185,-112.5 1185,-131.5 1299,-131.5 1299,-112.5 1185,-112.5"/>
<text text-anchor="middle" x="1242" y="-119.5" font-family="Helvetica,sans-Serif" font-size="10.00">Engine/src/Tileset.cpp</text>
</a>
</g>
</g>
<!-- Node8&#45;&gt;Node13 -->
<g id="edge14" class="edge"><title>Node8&#45;&gt;Node13</title>
<path fill="none" stroke="midnightblue" d="M1301.43,-162.622C1286.64,-152.757 1267.49,-139.992 1254.98,-131.655"/>
<polygon fill="midnightblue" stroke="midnightblue" points="1299.72,-165.689 1309.99,-168.324 1303.61,-159.865 1299.72,-165.689"/>
</g>
<!-- Node14 -->
<g id="node14" class="node"><title>Node14</title>
<g id="a_node14"><a xlink:href="Face_8cpp.html" target="_top" xlink:title="Game/src/Face.cpp">
<polygon fill="white" stroke="black" points="1893.5,-112.5 1893.5,-131.5 1996.5,-131.5 1996.5,-112.5 1893.5,-112.5"/>
<text text-anchor="middle" x="1945" y="-119.5" font-family="Helvetica,sans-Serif" font-size="10.00">Game/src/Face.cpp</text>
</a>
</g>
</g>
<!-- Node8&#45;&gt;Node14 -->
<g id="edge16" class="edge"><title>Node8&#45;&gt;Node14</title>
<path fill="none" stroke="midnightblue" d="M1396.33,-167.919C1613.57,-146.756 1670.67,-155.558 1884,-132 1887.09,-131.659 1890.26,-131.28 1893.45,-130.876"/>
<polygon fill="midnightblue" stroke="midnightblue" points="1395.8,-164.453 1386.2,-168.916 1396.49,-171.42 1395.8,-164.453"/>
</g>
<!-- Node15 -->
<g id="node15" class="node"><title>Node15</title>
<g id="a_node15"><a xlink:href="StageState_8cpp.html" target="_top" xlink:title="Game/src/StageState.cpp">
<polygon fill="white" stroke="black" points="1037,-112.5 1037,-131.5 1167,-131.5 1167,-112.5 1037,-112.5"/>
<text text-anchor="middle" x="1102" y="-119.5" font-family="Helvetica,sans-Serif" font-size="10.00">Game/src/StageState.cpp</text>
</a>
</g>
</g>
<!-- Node8&#45;&gt;Node15 -->
<g id="edge17" class="edge"><title>Node8&#45;&gt;Node15</title>
<path fill="none" stroke="midnightblue" d="M1278.08,-166.024C1236.33,-155.823 1175.02,-140.841 1136.85,-131.516"/>
<polygon fill="midnightblue" stroke="midnightblue" points="1277.44,-169.47 1287.98,-168.444 1279.1,-162.67 1277.44,-169.47"/>
</g>
<!-- Node16&#45;&gt;Node12 -->
<g id="edge22" class="edge"><title>Node16&#45;&gt;Node12</title>
<path fill="none" stroke="midnightblue" d="M1480.27,-219.446C1521.37,-196.497 1603.52,-150.631 1637.61,-131.591"/>
<polygon fill="midnightblue" stroke="midnightblue" points="1478.48,-216.437 1471.46,-224.368 1481.9,-222.549 1478.48,-216.437"/>
</g>
<!-- Node16&#45;&gt;Node17 -->
<g id="edge19" class="edge"><title>Node16&#45;&gt;Node17</title>
<path fill="none" stroke="midnightblue" d="M1521.2,-222.854C1586.76,-212.651 1686.71,-197.098 1748.27,-187.516"/>
<polygon fill="midnightblue" stroke="midnightblue" points="1520.33,-219.447 1510.98,-224.444 1521.4,-226.364 1520.33,-219.447"/>
</g>
<!-- Node16&#45;&gt;Node18 -->
<g id="edge23" class="edge"><title>Node16&#45;&gt;Node18</title>
<path fill="none" stroke="midnightblue" d="M1382.62,-228.179C1358.82,-226.711 1332.3,-225.177 1308,-224 864.676,-202.528 752.581,-221.464 310,-188 307.01,-187.774 303.957,-187.52 300.875,-187.245"/>
<polygon fill="midnightblue" stroke="midnightblue" points="1382.44,-231.674 1392.64,-228.802 1382.88,-224.688 1382.44,-231.674"/>
</g>
<!-- Node16&#45;&gt;Node22 -->
<g id="edge29" class="edge"><title>Node16&#45;&gt;Node22</title>
<path fill="none" stroke="midnightblue" d="M1389.9,-222.917C1323.02,-212.715 1220.77,-197.117 1157.83,-187.516"/>
<polygon fill="midnightblue" stroke="midnightblue" points="1389.49,-226.395 1399.91,-224.444 1390.55,-219.475 1389.49,-226.395"/>
</g>
<!-- Node16&#45;&gt;Node23 -->
<g id="edge32" class="edge"><title>Node16&#45;&gt;Node23</title>
<path fill="none" stroke="midnightblue" d="M1457.07,-213.805C1457.56,-204.91 1458.12,-194.78 1458.51,-187.751"/>
<polygon fill="midnightblue" stroke="midnightblue" points="1453.56,-213.904 1456.5,-224.083 1460.54,-214.293 1453.56,-213.904"/>
</g>
<!-- Node17&#45;&gt;Node10 -->
<g id="edge20" class="edge"><title>Node17&#45;&gt;Node10</title>
<path fill="none" stroke="midnightblue" d="M1803,-157.805C1803,-148.91 1803,-138.78 1803,-131.751"/>
<polygon fill="midnightblue" stroke="midnightblue" points="1799.5,-158.083 1803,-168.083 1806.5,-158.083 1799.5,-158.083"/>
</g>
<!-- Node17&#45;&gt;Node14 -->
<g id="edge21" class="edge"><title>Node17&#45;&gt;Node14</title>
<path fill="none" stroke="midnightblue" d="M1835.16,-164.772C1861.83,-154.629 1899.07,-140.467 1922.6,-131.516"/>
<polygon fill="midnightblue" stroke="midnightblue" points="1833.6,-161.618 1825.5,-168.444 1836.09,-168.16 1833.6,-161.618"/>
</g>
<!-- Node18&#45;&gt;Node15 -->
<g id="edge27" class="edge"><title>Node18&#45;&gt;Node15</title>
<path fill="none" stroke="midnightblue" d="M310.878,-167.987C630.116,-142.031 712.921,-159.025 1028,-132 1030.84,-131.757 1033.73,-131.489 1036.66,-131.202"/>
<polygon fill="midnightblue" stroke="midnightblue" points="310.56,-164.501 300.88,-168.807 311.132,-171.478 310.56,-164.501"/>
</g>
<!-- Node18&#45;&gt;Node19 -->
<g id="edge24" class="edge"><title>Node18&#45;&gt;Node19</title>
<path fill="none" stroke="midnightblue" d="M153.433,-166.743C128.396,-160.205 102.267,-149.505 83,-132 66.2667,-116.797 59.1227,-89.8691 59.7696,-75.9249"/>
<polygon fill="midnightblue" stroke="midnightblue" points="152.785,-170.187 163.327,-169.133 154.428,-163.383 152.785,-170.187"/>
</g>
<!-- Node21 -->
<g id="node21" class="node"><title>Node21</title>
<g id="a_node21"><a xlink:href="TitleState_8cpp.html" target="_top" xlink:title="Game/src/TitleState.cpp">
<polygon fill="white" stroke="black" points="101.5,-112.5 101.5,-131.5 224.5,-131.5 224.5,-112.5 101.5,-112.5"/>
<text text-anchor="middle" x="163" y="-119.5" font-family="Helvetica,sans-Serif" font-size="10.00">Game/src/TitleState.cpp</text>
</a>
</g>
</g>
<!-- Node18&#45;&gt;Node21 -->
<g id="edge28" class="edge"><title>Node18&#45;&gt;Node21</title>
<path fill="none" stroke="midnightblue" d="M212.962,-162.101C200.544,-152.382 184.757,-140.027 174.288,-131.834"/>
<polygon fill="midnightblue" stroke="midnightblue" points="210.882,-164.917 220.914,-168.324 215.196,-159.405 210.882,-164.917"/>
</g>
<!-- Node19&#45;&gt;Node18 -->
<g id="edge25" class="edge"><title>Node19&#45;&gt;Node18</title>
<path fill="none" stroke="midnightblue" d="M74.813,-85.3971C80.2791,-99.9405 87.5349,-119.766 101,-132 122.069,-151.142 151.343,-162.146 176.934,-168.47"/>
<polygon fill="midnightblue" stroke="midnightblue" points="78.0045,-83.9489 71.086,-75.9249 71.4906,-86.512 78.0045,-83.9489"/>
</g>
<!-- Node20 -->
<g id="node20" class="node"><title>Node20</title>
<g id="a_node20"><a xlink:href="EndState_8cpp.html" target="_top" xlink:title="Game/src/EndState.cpp">
<polygon fill="white" stroke="black" points="3,-0.5 3,-19.5 125,-19.5 125,-0.5 3,-0.5"/>
<text text-anchor="middle" x="64" y="-7.5" font-family="Helvetica,sans-Serif" font-size="10.00">Game/src/EndState.cpp</text>
</a>
</g>
</g>
<!-- Node19&#45;&gt;Node20 -->
<g id="edge26" class="edge"><title>Node19&#45;&gt;Node20</title>
<path fill="none" stroke="midnightblue" d="M64,-45.8045C64,-36.9102 64,-26.7798 64,-19.7511"/>
<polygon fill="midnightblue" stroke="midnightblue" points="60.5001,-46.083 64,-56.083 67.5001,-46.083 60.5001,-46.083"/>
</g>
<!-- Node22&#45;&gt;Node4 -->
<g id="edge30" class="edge"><title>Node22&#45;&gt;Node4</title>
<path fill="none" stroke="midnightblue" d="M1171.67,-168.311C1242.7,-159.401 1356.07,-145.04 1454,-132 1456.94,-131.609 1459.95,-131.205 1462.99,-130.794"/>
<polygon fill="midnightblue" stroke="midnightblue" points="1170.99,-164.869 1161.5,-169.585 1171.86,-171.814 1170.99,-164.869"/>
</g>
<!-- Node22&#45;&gt;Node15 -->
<g id="edge31" class="edge"><title>Node22&#45;&gt;Node15</title>
<path fill="none" stroke="midnightblue" d="M1102,-157.805C1102,-148.91 1102,-138.78 1102,-131.751"/>
<polygon fill="midnightblue" stroke="midnightblue" points="1098.5,-158.083 1102,-168.083 1105.5,-158.083 1098.5,-158.083"/>
</g>
<!-- Node23&#45;&gt;Node14 -->
<g id="edge33" class="edge"><title>Node23&#45;&gt;Node14</title>
<path fill="none" stroke="midnightblue" d="M1524.2,-170.934C1607.69,-162.974 1756.81,-148.11 1884,-132 1887.08,-131.61 1890.24,-131.193 1893.44,-130.76"/>
<polygon fill="midnightblue" stroke="midnightblue" points="1523.72,-167.463 1514.1,-171.894 1524.39,-174.432 1523.72,-167.463"/>
</g>
<!-- Node23&#45;&gt;Node15 -->
<g id="edge34" class="edge"><title>Node23&#45;&gt;Node15</title>
<path fill="none" stroke="midnightblue" d="M1393.53,-167.097C1326.15,-156.905 1222.26,-141.191 1158.4,-131.532"/>
<polygon fill="midnightblue" stroke="midnightblue" points="1393.2,-170.587 1403.61,-168.622 1394.25,-163.665 1393.2,-170.587"/>
</g>
<!-- Node24&#45;&gt;Node18 -->
<g id="edge49" class="edge"><title>Node24&#45;&gt;Node18</title>
<path fill="none" stroke="midnightblue" d="M527.217,-222.917C458.64,-212.715 353.79,-197.117 289.249,-187.516"/>
<polygon fill="midnightblue" stroke="midnightblue" points="527.075,-226.434 537.482,-224.444 528.105,-219.51 527.075,-226.434"/>
</g>
<!-- Node25 -->
<g id="node25" class="node"><title>Node25</title>
<g id="a_node25"><a xlink:href="Game_8h.html" target="_top" xlink:title="Engine/include/Game.h">
<polygon fill="white" stroke="black" points="536,-168.5 536,-187.5 654,-187.5 654,-168.5 536,-168.5"/>
<text text-anchor="middle" x="595" y="-175.5" font-family="Helvetica,sans-Serif" font-size="10.00">Engine/include/Game.h</text>
</a>
</g>
</g>
<!-- Node24&#45;&gt;Node25 -->
<g id="edge36" class="edge"><title>Node24&#45;&gt;Node25</title>
<path fill="none" stroke="midnightblue" d="M595,-213.805C595,-204.91 595,-194.78 595,-187.751"/>
<polygon fill="midnightblue" stroke="midnightblue" points="591.5,-214.083 595,-224.083 598.5,-214.083 591.5,-214.083"/>
</g>
<!-- Node31 -->
<g id="node31" class="node"><title>Node31</title>
<g id="a_node31"><a xlink:href="State_8cpp.html" target="_top" xlink:title="Engine/src/State.cpp">
<polygon fill="white" stroke="black" points="672,-168.5 672,-187.5 780,-187.5 780,-168.5 672,-168.5"/>
<text text-anchor="middle" x="726" y="-175.5" font-family="Helvetica,sans-Serif" font-size="10.00">Engine/src/State.cpp</text>
</a>
</g>
</g>
<!-- Node24&#45;&gt;Node31 -->
<g id="edge48" class="edge"><title>Node24&#45;&gt;Node31</title>
<path fill="none" stroke="midnightblue" d="M625.317,-220.503C649.876,-210.38 683.818,-196.388 705.34,-187.516"/>
<polygon fill="midnightblue" stroke="midnightblue" points="623.669,-217.397 615.757,-224.444 626.337,-223.868 623.669,-217.397"/>
</g>
<!-- Node32 -->
<g id="node32" class="node"><title>Node32</title>
<g id="a_node32"><a xlink:href="TitleState_8h.html" target="_top" xlink:title="Game/include/TitleState.h">
<polygon fill="white" stroke="black" points="319,-168.5 319,-187.5 449,-187.5 449,-168.5 319,-168.5"/>
<text text-anchor="middle" x="384" y="-175.5" font-family="Helvetica,sans-Serif" font-size="10.00">Game/include/TitleState.h</text>
</a>
</g>
</g>
<!-- Node24&#45;&gt;Node32 -->
<g id="edge50" class="edge"><title>Node24&#45;&gt;Node32</title>
<path fill="none" stroke="midnightblue" d="M551.858,-221.959C512.006,-211.76 453.637,-196.822 417.277,-187.516"/>
<polygon fill="midnightblue" stroke="midnightblue" points="551.011,-225.355 561.566,-224.444 552.746,-218.573 551.011,-225.355"/>
</g>
<!-- Node25&#45;&gt;Node9 -->
<g id="edge40" class="edge"><title>Node25&#45;&gt;Node9</title>
<path fill="none" stroke="midnightblue" d="M642.406,-166.153C686.997,-155.95 752.854,-140.881 793.78,-131.516"/>
<polygon fill="midnightblue" stroke="midnightblue" points="641.362,-162.801 632.395,-168.444 642.924,-169.625 641.362,-162.801"/>
</g>
<!-- Node25&#45;&gt;Node11 -->
<g id="edge43" class="edge"><title>Node25&#45;&gt;Node11</title>
<path fill="none" stroke="midnightblue" d="M663.625,-166.957C734.407,-156.599 843.417,-140.646 908.818,-131.075"/>
<polygon fill="midnightblue" stroke="midnightblue" points="662.857,-163.532 653.469,-168.444 663.871,-170.459 662.857,-163.532"/>
</g>
<!-- Node25&#45;&gt;Node13 -->
<g id="edge44" class="edge"><title>Node25&#45;&gt;Node13</title>
<path fill="none" stroke="midnightblue" d="M664.575,-167.901C892.143,-145.294 951.976,-155.11 1176,-132 1178.88,-131.703 1181.82,-131.379 1184.79,-131.035"/>
<polygon fill="midnightblue" stroke="midnightblue" points="663.913,-164.45 654.313,-168.931 664.613,-171.415 663.913,-164.45"/>
</g>
<!-- Node25&#45;&gt;Node15 -->
<g id="edge46" class="edge"><title>Node25&#45;&gt;Node15</title>
<path fill="none" stroke="midnightblue" d="M664.659,-167.842C826.668,-149.318 869.293,-149.475 1028,-132 1030.83,-131.688 1033.72,-131.364 1036.64,-131.031"/>
<polygon fill="midnightblue" stroke="midnightblue" points="663.858,-164.411 654.324,-169.03 664.658,-171.365 663.858,-164.411"/>
</g>
<!-- Node25&#45;&gt;Node21 -->
<g id="edge47" class="edge"><title>Node25&#45;&gt;Node21</title>
<path fill="none" stroke="midnightblue" d="M525.956,-168.437C453.296,-159.415 335.596,-144.771 234,-132 230.918,-131.613 227.761,-131.215 224.573,-130.813"/>
<polygon fill="midnightblue" stroke="midnightblue" points="525.548,-171.913 535.903,-169.672 526.411,-164.966 525.548,-171.913"/>
</g>
<!-- Node26 -->
<g id="node26" class="node"><title>Node26</title>
<g id="a_node26"><a xlink:href="Text_8h.html" target="_top" xlink:title="Engine/include/Text.h">
<polygon fill="white" stroke="black" points="642.5,-112.5 642.5,-131.5 753.5,-131.5 753.5,-112.5 642.5,-112.5"/>
<text text-anchor="middle" x="698" y="-119.5" font-family="Helvetica,sans-Serif" font-size="10.00">Engine/include/Text.h</text>
</a>
</g>
</g>
<!-- Node25&#45;&gt;Node26 -->
<g id="edge37" class="edge"><title>Node25&#45;&gt;Node26</title>
<path fill="none" stroke="midnightblue" d="M620.579,-163.59C639.623,-153.605 665.064,-140.267 681.492,-131.655"/>
<polygon fill="midnightblue" stroke="midnightblue" points="618.78,-160.581 611.549,-168.324 622.031,-166.78 618.78,-160.581"/>
</g>
<!-- Node28 -->
<g id="node28" class="node"><title>Node28</title>
<g id="a_node28"><a xlink:href="Game_8cpp.html" target="_top" xlink:title="Engine/src/Game.cpp">
<polygon fill="white" stroke="black" points="362.5,-112.5 362.5,-131.5 473.5,-131.5 473.5,-112.5 362.5,-112.5"/>
<text text-anchor="middle" x="418" y="-119.5" font-family="Helvetica,sans-Serif" font-size="10.00">Engine/src/Game.cpp</text>
</a>
</g>
</g>
<!-- Node25&#45;&gt;Node28 -->
<g id="edge41" class="edge"><title>Node25&#45;&gt;Node28</title>
<path fill="none" stroke="midnightblue" d="M557.097,-165.436C523.725,-155.255 475.899,-140.664 445.915,-131.516"/>
<polygon fill="midnightblue" stroke="midnightblue" points="556.368,-168.873 566.954,-168.444 558.41,-162.178 556.368,-168.873"/>
</g>
<!-- Node29 -->
<g id="node29" class="node"><title>Node29</title>
<g id="a_node29"><a xlink:href="Resources_8cpp.html" target="_top" xlink:title="Engine/src/Resources.cpp">
<polygon fill="white" stroke="black" points="492,-112.5 492,-131.5 624,-131.5 624,-112.5 492,-112.5"/>
<text text-anchor="middle" x="558" y="-119.5" font-family="Helvetica,sans-Serif" font-size="10.00">Engine/src/Resources.cpp</text>
</a>
</g>
</g>
<!-- Node25&#45;&gt;Node29 -->
<g id="edge42" class="edge"><title>Node25&#45;&gt;Node29</title>
<path fill="none" stroke="midnightblue" d="M583.054,-159.566C576.688,-150.275 569.133,-139.248 563.996,-131.751"/>
<polygon fill="midnightblue" stroke="midnightblue" points="580.351,-161.812 588.89,-168.083 586.125,-157.855 580.351,-161.812"/>
</g>
<!-- Node30 -->
<g id="node30" class="node"><title>Node30</title>
<g id="a_node30"><a xlink:href="main_8cpp.html" target="_top" xlink:title="Game/src/main.cpp">
<polygon fill="white" stroke="black" points="243,-112.5 243,-131.5 345,-131.5 345,-112.5 243,-112.5"/>
<text text-anchor="middle" x="294" y="-119.5" font-family="Helvetica,sans-Serif" font-size="10.00">Game/src/main.cpp</text>
</a>
</g>
</g>
<!-- Node25&#45;&gt;Node30 -->
<g id="edge45" class="edge"><title>Node25&#45;&gt;Node30</title>
<path fill="none" stroke="midnightblue" d="M537.387,-166.664C480.504,-156.459 394.548,-141.039 341.471,-131.516"/>
<polygon fill="midnightblue" stroke="midnightblue" points="536.845,-170.123 547.306,-168.444 538.081,-163.233 536.845,-170.123"/>
</g>
<!-- Node26&#45;&gt;Node19 -->
<g id="edge39" class="edge"><title>Node26&#45;&gt;Node19</title>
<path fill="none" stroke="midnightblue" d="M632.205,-111.979C442.675,-91.6253 231.737,-77.3178 128.114,-70.8401"/>
<polygon fill="midnightblue" stroke="midnightblue" points="632.039,-115.481 642.357,-113.077 632.792,-108.522 632.039,-115.481"/>
</g>
<!-- Node27 -->
<g id="node27" class="node"><title>Node27</title>
<g id="a_node27"><a xlink:href="Text_8cpp.html" target="_top" xlink:title="Engine/src/Text.cpp">
<polygon fill="white" stroke="black" points="646,-56.5 646,-75.5 750,-75.5 750,-56.5 646,-56.5"/>
<text text-anchor="middle" x="698" y="-63.5" font-family="Helvetica,sans-Serif" font-size="10.00">Engine/src/Text.cpp</text>
</a>
</g>
</g>
<!-- Node26&#45;&gt;Node27 -->
<g id="edge38" class="edge"><title>Node26&#45;&gt;Node27</title>
<path fill="none" stroke="midnightblue" d="M698,-101.805C698,-92.9102 698,-82.7798 698,-75.7511"/>
<polygon fill="midnightblue" stroke="midnightblue" points="694.5,-102.083 698,-112.083 701.5,-102.083 694.5,-102.083"/>
</g>
<!-- Node32&#45;&gt;Node21 -->
<g id="edge52" class="edge"><title>Node32&#45;&gt;Node21</title>
<path fill="none" stroke="midnightblue" d="M339.079,-166.024C297.332,-155.823 236.018,-140.841 197.854,-131.516"/>
<polygon fill="midnightblue" stroke="midnightblue" points="338.437,-169.47 348.982,-168.444 340.098,-162.67 338.437,-169.47"/>
</g>
<!-- Node32&#45;&gt;Node30 -->
<g id="edge51" class="edge"><title>Node32&#45;&gt;Node30</title>
<path fill="none" stroke="midnightblue" d="M360.962,-163.177C344.401,-153.241 322.582,-140.149 308.424,-131.655"/>
<polygon fill="midnightblue" stroke="midnightblue" points="359.164,-166.18 369.54,-168.324 362.766,-160.178 359.164,-166.18"/>
</g>
<!-- Node33&#45;&gt;Node22 -->
<g id="edge55" class="edge"><title>Node33&#45;&gt;Node22</title>
<path fill="none" stroke="midnightblue" d="M933.346,-221.959C973.387,-211.76 1032.03,-196.822 1068.57,-187.516"/>
<polygon fill="midnightblue" stroke="midnightblue" points="932.419,-218.583 923.592,-224.444 934.147,-225.367 932.419,-218.583"/>
</g>
<!-- Node34 -->
<g id="node34" class="node"><title>Node34</title>
<g id="a_node34"><a xlink:href="Wave_8cpp.html" target="_top" xlink:title="Engine/src/Wave.cpp">
<polygon fill="white" stroke="black" points="835,-168.5 835,-187.5 945,-187.5 945,-168.5 835,-168.5"/>
<text text-anchor="middle" x="890" y="-175.5" font-family="Helvetica,sans-Serif" font-size="10.00">Engine/src/Wave.cpp</text>
</a>
</g>
</g>
<!-- Node33&#45;&gt;Node34 -->
<g id="edge54" class="edge"><title>Node33&#45;&gt;Node34</title>
<path fill="none" stroke="midnightblue" d="M890,-213.805C890,-204.91 890,-194.78 890,-187.751"/>
<polygon fill="midnightblue" stroke="midnightblue" points="886.5,-214.083 890,-224.083 893.5,-214.083 886.5,-214.083"/>
</g>
<!-- Node37 -->
<g id="node37" class="node"><title>Node37</title>
<g id="a_node37"><a xlink:href="HItPoints_8cpp.html" target="_top" xlink:title="Engine/src/HItPoints.cpp">
<polygon fill="white" stroke="black" points="1768,-224.5 1768,-243.5 1894,-243.5 1894,-224.5 1768,-224.5"/>
<text text-anchor="middle" x="1831" y="-231.5" font-family="Helvetica,sans-Serif" font-size="10.00">Engine/src/HItPoints.cpp</text>
</a>
</g>
</g>
<!-- Node36&#45;&gt;Node37 -->
<g id="edge63" class="edge"><title>Node36&#45;&gt;Node37</title>
<path fill="none" stroke="midnightblue" d="M1831,-269.805C1831,-260.91 1831,-250.78 1831,-243.751"/>
<polygon fill="midnightblue" stroke="midnightblue" points="1827.5,-270.083 1831,-280.083 1834.5,-270.083 1827.5,-270.083"/>
</g>
</g>
</svg>
