<?xml version="1.0" encoding="UTF-8" standalone="no"?>
<!DOCTYPE svg PUBLIC "-//W3C//DTD SVG 1.1//EN"
 "http://www.w3.org/Graphics/SVG/1.1/DTD/svg11.dtd">
<!-- Generated by graphviz version 2.38.0 (20140413.2041)
 -->
<!-- Title: Engine/include/Component.h Pages: 1 -->
<svg width="2473pt" height="364pt"
 viewBox="0.00 0.00 2472.90 364.00" xmlns="http://www.w3.org/2000/svg" xmlns:xlink="http://www.w3.org/1999/xlink">
<g id="graph0" class="graph" transform="scale(1 1) rotate(0) translate(4 360)">
<title>Engine/include/Component.h</title>
<polygon fill="white" stroke="none" points="-4,4 -4,-360 2468.9,-360 2468.9,4 -4,4"/>
<!-- Node1 -->
<g id="node1" class="node"><title>Node1</title>
<polygon fill="#bfbfbf" stroke="black" points="1940.4,-336.5 1940.4,-355.5 2082.4,-355.5 2082.4,-336.5 1940.4,-336.5"/>
<text text-anchor="middle" x="2011.4" y="-343.5" font-family="Helvetica,sans-Serif" font-size="10.00">Engine/include/Component.h</text>
</g>
<!-- Node2 -->
<g id="node2" class="node"><title>Node2</title>
<g id="a_node2"><a xlink:href="AIGoDown_8h.html" target="_top" xlink:title="Engine/include/AIGoDown.h">
<polygon fill="white" stroke="black" points="1299.4,-280.5 1299.4,-299.5 1439.4,-299.5 1439.4,-280.5 1299.4,-280.5"/>
<text text-anchor="middle" x="1369.4" y="-287.5" font-family="Helvetica,sans-Serif" font-size="10.00">Engine/include/AIGoDown.h</text>
</a>
</g>
</g>
<!-- Node1&#45;&gt;Node2 -->
<g id="edge1" class="edge"><title>Node1&#45;&gt;Node2</title>
<path fill="none" stroke="midnightblue" d="M1930.17,-338.168C1803.05,-327.475 1559.25,-306.969 1439.41,-296.889"/>
<polygon fill="midnightblue" stroke="midnightblue" points="1929.98,-341.664 1940.24,-339.015 1930.57,-334.689 1929.98,-341.664"/>
</g>
<!-- Node5 -->
<g id="node5" class="node"><title>Node5</title>
<g id="a_node5"><a xlink:href="GameObject_8h.html" target="_top" xlink:title="Engine/include/GameObject.h">
<polygon fill="white" stroke="black" points="1749.4,-280.5 1749.4,-299.5 1895.4,-299.5 1895.4,-280.5 1749.4,-280.5"/>
<text text-anchor="middle" x="1822.4" y="-287.5" font-family="Helvetica,sans-Serif" font-size="10.00">Engine/include/GameObject.h</text>
</a>
</g>
</g>
<!-- Node1&#45;&gt;Node5 -->
<g id="edge4" class="edge"><title>Node1&#45;&gt;Node5</title>
<path fill="none" stroke="midnightblue" d="M1966.23,-333.699C1928.88,-323.507 1877.38,-308.743 1847.12,-299.516"/>
<polygon fill="midnightblue" stroke="midnightblue" points="1965.79,-337.206 1976.36,-336.444 1967.62,-330.45 1965.79,-337.206"/>
</g>
<!-- Node20 -->
<g id="node20" class="node"><title>Node20</title>
<g id="a_node20"><a xlink:href="DragAndDrop_8h.html" target="_top" xlink:title="Engine/include/DragAndDrop.h">
<polygon fill="white" stroke="black" points="1888.9,-168.5 1888.9,-187.5 2039.9,-187.5 2039.9,-168.5 1888.9,-168.5"/>
<text text-anchor="middle" x="1964.4" y="-175.5" font-family="Helvetica,sans-Serif" font-size="10.00">Engine/include/DragAndDrop.h</text>
</a>
</g>
</g>
<!-- Node1&#45;&gt;Node20 -->
<g id="edge65" class="edge"><title>Node1&#45;&gt;Node20</title>
<path fill="none" stroke="midnightblue" d="M2034,-330.629C2066.98,-307.85 2121.54,-262.125 2094.4,-224 2080.89,-205.031 2058.82,-193.984 2036.66,-187.576"/>
<polygon fill="midnightblue" stroke="midnightblue" points="2031.72,-327.946 2025.36,-336.42 2035.61,-333.761 2031.72,-327.946"/>
</g>
<!-- Node36 -->
<g id="node36" class="node"><title>Node36</title>
<g id="a_node36"><a xlink:href="HitPoints_8h.html" target="_top" xlink:title="Engine/include/HitPoints.h">
<polygon fill="white" stroke="black" points="2179.4,-280.5 2179.4,-299.5 2311.4,-299.5 2311.4,-280.5 2179.4,-280.5"/>
<text text-anchor="middle" x="2245.4" y="-287.5" font-family="Helvetica,sans-Serif" font-size="10.00">Engine/include/HitPoints.h</text>
</a>
</g>
</g>
<!-- Node1&#45;&gt;Node36 -->
<g id="edge66" class="edge"><title>Node1&#45;&gt;Node36</title>
<path fill="none" stroke="midnightblue" d="M2058.4,-334.153C2102.61,-323.95 2167.91,-308.881 2208.49,-299.516"/>
<polygon fill="midnightblue" stroke="midnightblue" points="2057.43,-330.784 2048.48,-336.444 2059.01,-337.605 2057.43,-330.784"/>
</g>
<!-- Node38 -->
<g id="node38" class="node"><title>Node38</title>
<g id="a_node38"><a xlink:href="Component_8cpp.html" target="_top" xlink:title="Engine/src/Component.cpp">
<polygon fill="white" stroke="black" points="2329.9,-280.5 2329.9,-299.5 2464.9,-299.5 2464.9,-280.5 2329.9,-280.5"/>
<text text-anchor="middle" x="2397.4" y="-287.5" font-family="Helvetica,sans-Serif" font-size="10.00">Engine/src/Component.cpp</text>
</a>
</g>
</g>
<!-- Node1&#45;&gt;Node38 -->
<g id="edge68" class="edge"><title>Node1&#45;&gt;Node38</title>
<path fill="none" stroke="midnightblue" d="M2082.58,-335.042C2155.48,-324.843 2267.61,-309.157 2336.52,-299.516"/>
<polygon fill="midnightblue" stroke="midnightblue" points="2081.98,-331.592 2072.56,-336.444 2082.95,-338.524 2081.98,-331.592"/>
</g>
<!-- Node3 -->
<g id="node3" class="node"><title>Node3</title>
<g id="a_node3"><a xlink:href="AIGoDown_8cpp.html" target="_top" xlink:title="Engine/src/AIGoDown.cpp">
<polygon fill="white" stroke="black" points="968.897,-224.5 968.897,-243.5 1101.9,-243.5 1101.9,-224.5 968.897,-224.5"/>
<text text-anchor="middle" x="1035.4" y="-231.5" font-family="Helvetica,sans-Serif" font-size="10.00">Engine/src/AIGoDown.cpp</text>
</a>
</g>
</g>
<!-- Node2&#45;&gt;Node3 -->
<g id="edge2" class="edge"><title>Node2&#45;&gt;Node3</title>
<path fill="none" stroke="midnightblue" d="M1306.25,-278.791C1243.14,-268.587 1147.21,-253.078 1088.07,-243.516"/>
<polygon fill="midnightblue" stroke="midnightblue" points="1306.04,-282.303 1316.47,-280.444 1307.16,-275.392 1306.04,-282.303"/>
</g>
<!-- Node4 -->
<g id="node4" class="node"><title>Node4</title>
<g id="a_node4"><a xlink:href="Enemy_8cpp.html" target="_top" xlink:title="Game/src/Enemy.cpp">
<polygon fill="white" stroke="black" points="1403.4,-112.5 1403.4,-131.5 1515.4,-131.5 1515.4,-112.5 1403.4,-112.5"/>
<text text-anchor="middle" x="1459.4" y="-119.5" font-family="Helvetica,sans-Serif" font-size="10.00">Game/src/Enemy.cpp</text>
</a>
</g>
</g>
<!-- Node2&#45;&gt;Node4 -->
<g id="edge3" class="edge"><title>Node2&#45;&gt;Node4</title>
<path fill="none" stroke="midnightblue" d="M1373.13,-270.371C1376.2,-257.042 1381.23,-238.898 1388.4,-224 1406.34,-186.725 1437.58,-148.248 1451.87,-131.567"/>
<polygon fill="midnightblue" stroke="midnightblue" points="1369.68,-269.745 1371,-280.257 1376.53,-271.217 1369.68,-269.745"/>
</g>
<!-- Node5&#45;&gt;Node1 -->
<g id="edge5" class="edge"><title>Node5&#45;&gt;Node1</title>
<path fill="none" stroke="midnightblue" d="M1867.4,-302.257C1904.71,-312.436 1956.22,-327.201 1986.54,-336.444"/>
<polygon fill="midnightblue" stroke="midnightblue" points="1867.85,-298.753 1857.28,-299.516 1866.02,-305.51 1867.85,-298.753"/>
</g>
<!-- Node6 -->
<g id="node6" class="node"><title>Node6</title>
<g id="a_node6"><a xlink:href="Animation_8h.html" target="_top" xlink:title="Engine/include/Animation.h">
<polygon fill="white" stroke="black" points="1397.9,-224.5 1397.9,-243.5 1532.9,-243.5 1532.9,-224.5 1397.9,-224.5"/>
<text text-anchor="middle" x="1465.4" y="-231.5" font-family="Helvetica,sans-Serif" font-size="10.00">Engine/include/Animation.h</text>
</a>
</g>
</g>
<!-- Node5&#45;&gt;Node6 -->
<g id="edge6" class="edge"><title>Node5&#45;&gt;Node6</title>
<path fill="none" stroke="midnightblue" d="M1755.74,-278.917C1688.29,-268.715 1585.17,-253.117 1521.7,-243.516"/>
<polygon fill="midnightblue" stroke="midnightblue" points="1755.42,-282.408 1765.83,-280.444 1756.47,-275.487 1755.42,-282.408"/>
</g>
<!-- Node8 -->
<g id="node8" class="node"><title>Node8</title>
<g id="a_node8"><a xlink:href="Camera_8h.html" target="_top" xlink:title="Engine/include/Camera.h">
<polygon fill="white" stroke="black" points="1235.4,-168.5 1235.4,-187.5 1361.4,-187.5 1361.4,-168.5 1235.4,-168.5"/>
<text text-anchor="middle" x="1298.4" y="-175.5" font-family="Helvetica,sans-Serif" font-size="10.00">Engine/include/Camera.h</text>
</a>
</g>
</g>
<!-- Node5&#45;&gt;Node8 -->
<g id="edge8" class="edge"><title>Node5&#45;&gt;Node8</title>
<path fill="none" stroke="midnightblue" d="M1739.33,-279.621C1691.91,-272.775 1631.84,-261.555 1580.4,-244 1561.96,-237.709 1559.84,-230.284 1541.4,-224 1482.11,-203.792 1411.41,-191.997 1361.6,-185.592"/>
<polygon fill="midnightblue" stroke="midnightblue" points="1738.86,-283.089 1749.25,-281.016 1739.84,-276.157 1738.86,-283.089"/>
</g>
<!-- Node19 -->
<g id="node19" class="node"><title>Node19</title>
<g id="a_node19"><a xlink:href="TileMap_8h.html" target="_top" xlink:title="Engine/include/TileMap.h">
<polygon fill="white" stroke="black" points="1959.4,-224.5 1959.4,-243.5 2085.4,-243.5 2085.4,-224.5 1959.4,-224.5"/>
<text text-anchor="middle" x="2022.4" y="-231.5" font-family="Helvetica,sans-Serif" font-size="10.00">Engine/include/TileMap.h</text>
</a>
</g>
</g>
<!-- Node5&#45;&gt;Node19 -->
<g id="edge21" class="edge"><title>Node5&#45;&gt;Node19</title>
<path fill="none" stroke="midnightblue" d="M1863.77,-277.829C1901.53,-267.633 1956.54,-252.782 1990.86,-243.516"/>
<polygon fill="midnightblue" stroke="midnightblue" points="1862.83,-274.458 1854.09,-280.444 1864.65,-281.216 1862.83,-274.458"/>
</g>
<!-- Node21 -->
<g id="node21" class="node"><title>Node21</title>
<g id="a_node21"><a xlink:href="StageState_8h.html" target="_top" xlink:title="Game/include/StageState.h">
<polygon fill="white" stroke="black" points="1871.9,-112.5 1871.9,-131.5 2008.9,-131.5 2008.9,-112.5 1871.9,-112.5"/>
<text text-anchor="middle" x="1940.4" y="-119.5" font-family="Helvetica,sans-Serif" font-size="10.00">Game/include/StageState.h</text>
</a>
</g>
</g>
<!-- Node5&#45;&gt;Node21 -->
<g id="edge62" class="edge"><title>Node5&#45;&gt;Node21</title>
<path fill="none" stroke="midnightblue" d="M1806.3,-272.687C1795.25,-259.423 1783.97,-240.303 1792.4,-224 1817.89,-174.673 1879.79,-145.03 1914.93,-131.603"/>
<polygon fill="midnightblue" stroke="midnightblue" points="1804.02,-275.39 1813.32,-280.47 1809.22,-270.701 1804.02,-275.39"/>
</g>
<!-- Node22 -->
<g id="node22" class="node"><title>Node22</title>
<g id="a_node22"><a xlink:href="EndState_8h.html" target="_top" xlink:title="Game/include/EndState.h">
<polygon fill="white" stroke="black" points="1876.4,-56.5 1876.4,-75.5 2004.4,-75.5 2004.4,-56.5 1876.4,-56.5"/>
<text text-anchor="middle" x="1940.4" y="-63.5" font-family="Helvetica,sans-Serif" font-size="10.00">Game/include/EndState.h</text>
</a>
</g>
</g>
<!-- Node5&#45;&gt;Node22 -->
<g id="edge61" class="edge"><title>Node5&#45;&gt;Node22</title>
<path fill="none" stroke="midnightblue" d="M1905.95,-288.819C1966.7,-285.744 2049.48,-275.313 2115.4,-244 2148.94,-228.067 2162.32,-221.933 2177.4,-188 2188.7,-162.561 2156.82,-113.198 2155.4,-112 2132.93,-93.0211 2059.48,-80.5758 2004.64,-73.6811"/>
<polygon fill="midnightblue" stroke="midnightblue" points="1905.47,-285.337 1895.64,-289.281 1905.78,-292.33 1905.47,-285.337"/>
</g>
<!-- Node23 -->
<g id="node23" class="node"><title>Node23</title>
<g id="a_node23"><a xlink:href="Enemy_8h.html" target="_top" xlink:title="Game/include/Enemy.h">
<polygon fill="white" stroke="black" points="1625.9,-168.5 1625.9,-187.5 1744.9,-187.5 1744.9,-168.5 1625.9,-168.5"/>
<text text-anchor="middle" x="1685.4" y="-175.5" font-family="Helvetica,sans-Serif" font-size="10.00">Game/include/Enemy.h</text>
</a>
</g>
</g>
<!-- Node5&#45;&gt;Node23 -->
<g id="edge63" class="edge"><title>Node5&#45;&gt;Node23</title>
<path fill="none" stroke="midnightblue" d="M1801.22,-274.668C1788.81,-266.072 1772.96,-254.753 1759.4,-244 1735.28,-224.875 1708.49,-200.509 1694.71,-187.728"/>
<polygon fill="midnightblue" stroke="midnightblue" points="1799.35,-277.625 1809.57,-280.399 1803.31,-271.854 1799.35,-277.625"/>
</g>
<!-- Node24 -->
<g id="node24" class="node"><title>Node24</title>
<g id="a_node24"><a xlink:href="Face_8h.html" target="_top" xlink:title="Game/include/Face.h">
<polygon fill="white" stroke="black" points="2058.4,-168.5 2058.4,-187.5 2168.4,-187.5 2168.4,-168.5 2058.4,-168.5"/>
<text text-anchor="middle" x="2113.4" y="-175.5" font-family="Helvetica,sans-Serif" font-size="10.00">Game/include/Face.h</text>
</a>
</g>
</g>
<!-- Node5&#45;&gt;Node24 -->
<g id="edge64" class="edge"><title>Node5&#45;&gt;Node24</title>
<path fill="none" stroke="midnightblue" d="M1905.78,-284.8C1975.22,-279.613 2067,-268.283 2094.4,-244 2110.76,-229.496 2113.38,-201.755 2113.58,-187.669"/>
<polygon fill="midnightblue" stroke="midnightblue" points="1905.44,-281.316 1895.71,-285.522 1905.94,-288.298 1905.44,-281.316"/>
</g>
<!-- Node25 -->
<g id="node25" class="node"><title>Node25</title>
<g id="a_node25"><a xlink:href="State_8h.html" target="_top" xlink:title="Engine/include/State.h">
<polygon fill="white" stroke="black" points="1119.9,-224.5 1119.9,-243.5 1234.9,-243.5 1234.9,-224.5 1119.9,-224.5"/>
<text text-anchor="middle" x="1177.4" y="-231.5" font-family="Helvetica,sans-Serif" font-size="10.00">Engine/include/State.h</text>
</a>
</g>
</g>
<!-- Node5&#45;&gt;Node25 -->
<g id="edge39" class="edge"><title>Node5&#45;&gt;Node25</title>
<path fill="none" stroke="midnightblue" d="M1739.23,-282.037C1606.43,-270.919 1349.81,-249.435 1235.17,-239.837"/>
<polygon fill="midnightblue" stroke="midnightblue" points="1739.09,-285.538 1749.35,-282.884 1739.68,-278.562 1739.09,-285.538"/>
</g>
<!-- Node33 -->
<g id="node33" class="node"><title>Node33</title>
<g id="a_node33"><a xlink:href="Wave_8h.html" target="_top" xlink:title="Engine/include/Wave.h">
<polygon fill="white" stroke="black" points="1589.9,-224.5 1589.9,-243.5 1706.9,-243.5 1706.9,-224.5 1589.9,-224.5"/>
<text text-anchor="middle" x="1648.4" y="-231.5" font-family="Helvetica,sans-Serif" font-size="10.00">Engine/include/Wave.h</text>
</a>
</g>
</g>
<!-- Node5&#45;&gt;Node33 -->
<g id="edge57" class="edge"><title>Node5&#45;&gt;Node33</title>
<path fill="none" stroke="midnightblue" d="M1785.14,-277.436C1752.33,-267.255 1705.31,-252.664 1675.84,-243.516"/>
<polygon fill="midnightblue" stroke="midnightblue" points="1784.24,-280.822 1794.83,-280.444 1786.31,-274.137 1784.24,-280.822"/>
</g>
<!-- Node35 -->
<g id="node35" class="node"><title>Node35</title>
<g id="a_node35"><a xlink:href="GameObject_8cpp.html" target="_top" xlink:title="Engine/src/GameObject.cpp">
<polygon fill="white" stroke="black" points="1801.4,-224.5 1801.4,-243.5 1941.4,-243.5 1941.4,-224.5 1801.4,-224.5"/>
<text text-anchor="middle" x="1871.4" y="-231.5" font-family="Helvetica,sans-Serif" font-size="10.00">Engine/src/GameObject.cpp</text>
</a>
</g>
</g>
<!-- Node5&#45;&gt;Node35 -->
<g id="edge60" class="edge"><title>Node5&#45;&gt;Node35</title>
<path fill="none" stroke="midnightblue" d="M1837.43,-272.431C1846.02,-262.967 1856.44,-251.483 1863.46,-243.751"/>
<polygon fill="midnightblue" stroke="midnightblue" points="1834.62,-270.325 1830.49,-280.083 1839.8,-275.029 1834.62,-270.325"/>
</g>
<!-- Node7 -->
<g id="node7" class="node"><title>Node7</title>
<g id="a_node7"><a xlink:href="Animation_8cpp.html" target="_top" xlink:title="Engine/src/Animation.cpp">
<polygon fill="white" stroke="black" points="1143.4,-112.5 1143.4,-131.5 1271.4,-131.5 1271.4,-112.5 1143.4,-112.5"/>
<text text-anchor="middle" x="1207.4" y="-119.5" font-family="Helvetica,sans-Serif" font-size="10.00">Engine/src/Animation.cpp</text>
</a>
</g>
</g>
<!-- Node6&#45;&gt;Node7 -->
<g id="edge7" class="edge"><title>Node6&#45;&gt;Node7</title>
<path fill="none" stroke="midnightblue" d="M1387.41,-227.073C1326.97,-220.921 1249.72,-209.14 1226.4,-188 1210.19,-173.315 1207.51,-145.656 1207.25,-131.628"/>
<polygon fill="midnightblue" stroke="midnightblue" points="1387.42,-230.591 1397.71,-228.085 1388.1,-223.625 1387.42,-230.591"/>
</g>
<!-- Node8&#45;&gt;Node4 -->
<g id="edge17" class="edge"><title>Node8&#45;&gt;Node4</title>
<path fill="none" stroke="midnightblue" d="M1333.66,-165.172C1363.98,-155.004 1406.97,-140.585 1434.01,-131.516"/>
<polygon fill="midnightblue" stroke="midnightblue" points="1332.28,-161.945 1323.91,-168.444 1334.5,-168.582 1332.28,-161.945"/>
</g>
<!-- Node8&#45;&gt;Node7 -->
<g id="edge9" class="edge"><title>Node8&#45;&gt;Node7</title>
<path fill="none" stroke="midnightblue" d="M1275.1,-163.177C1258.36,-153.241 1236.3,-140.149 1221.98,-131.655"/>
<polygon fill="midnightblue" stroke="midnightblue" points="1273.39,-166.231 1283.78,-168.324 1276.96,-160.211 1273.39,-166.231"/>
</g>
<!-- Node9 -->
<g id="node9" class="node"><title>Node9</title>
<g id="a_node9"><a xlink:href="Camera_8cpp.html" target="_top" xlink:title="Engine/src/Camera.cpp">
<polygon fill="white" stroke="black" points="751.897,-112.5 751.897,-131.5 870.897,-131.5 870.897,-112.5 751.897,-112.5"/>
<text text-anchor="middle" x="811.397" y="-119.5" font-family="Helvetica,sans-Serif" font-size="10.00">Engine/src/Camera.cpp</text>
</a>
</g>
</g>
<!-- Node8&#45;&gt;Node9 -->
<g id="edge10" class="edge"><title>Node8&#45;&gt;Node9</title>
<path fill="none" stroke="midnightblue" d="M1225.18,-169.62C1141.68,-161.088 1001.11,-146.368 880.397,-132 877.398,-131.643 874.327,-131.27 871.226,-130.887"/>
<polygon fill="midnightblue" stroke="midnightblue" points="1225.02,-173.122 1235.32,-170.655 1225.73,-166.158 1225.02,-173.122"/>
</g>
<!-- Node10 -->
<g id="node10" class="node"><title>Node10</title>
<g id="a_node10"><a xlink:href="DragAndDrop_8cpp.html" target="_top" xlink:title="Engine/src/DragAndDrop.cpp">
<polygon fill="white" stroke="black" points="1671.4,-112.5 1671.4,-131.5 1815.4,-131.5 1815.4,-112.5 1671.4,-112.5"/>
<text text-anchor="middle" x="1743.4" y="-119.5" font-family="Helvetica,sans-Serif" font-size="10.00">Engine/src/DragAndDrop.cpp</text>
</a>
</g>
</g>
<!-- Node8&#45;&gt;Node10 -->
<g id="edge11" class="edge"><title>Node8&#45;&gt;Node10</title>
<path fill="none" stroke="midnightblue" d="M1371.85,-168.086C1455.37,-157.951 1590.76,-141.523 1672.99,-131.544"/>
<polygon fill="midnightblue" stroke="midnightblue" points="1371.19,-164.641 1361.68,-169.32 1372.03,-171.59 1371.19,-164.641"/>
</g>
<!-- Node11 -->
<g id="node11" class="node"><title>Node11</title>
<g id="a_node11"><a xlink:href="Sprite_8cpp.html" target="_top" xlink:title="Engine/src/Sprite.cpp">
<polygon fill="white" stroke="black" points="889.397,-112.5 889.397,-131.5 999.397,-131.5 999.397,-112.5 889.397,-112.5"/>
<text text-anchor="middle" x="944.397" y="-119.5" font-family="Helvetica,sans-Serif" font-size="10.00">Engine/src/Sprite.cpp</text>
</a>
</g>
</g>
<!-- Node8&#45;&gt;Node11 -->
<g id="edge12" class="edge"><title>Node8&#45;&gt;Node11</title>
<path fill="none" stroke="midnightblue" d="M1232.27,-166.912C1165.18,-156.679 1062.53,-141.019 999.645,-131.428"/>
<polygon fill="midnightblue" stroke="midnightblue" points="1231.89,-170.395 1242.31,-168.444 1232.95,-163.475 1231.89,-170.395"/>
</g>
<!-- Node12 -->
<g id="node12" class="node"><title>Node12</title>
<g id="a_node12"><a xlink:href="State_8cpp.html" target="_top" xlink:title="Engine/src/State.cpp">
<polygon fill="white" stroke="black" points="1017.4,-112.5 1017.4,-131.5 1125.4,-131.5 1125.4,-112.5 1017.4,-112.5"/>
<text text-anchor="middle" x="1071.4" y="-119.5" font-family="Helvetica,sans-Serif" font-size="10.00">Engine/src/State.cpp</text>
</a>
</g>
</g>
<!-- Node8&#45;&gt;Node12 -->
<g id="edge13" class="edge"><title>Node8&#45;&gt;Node12</title>
<path fill="none" stroke="midnightblue" d="M1252.53,-166.088C1209.64,-155.887 1146.48,-140.861 1107.2,-131.516"/>
<polygon fill="midnightblue" stroke="midnightblue" points="1251.89,-169.534 1262.43,-168.444 1253.51,-162.724 1251.89,-169.534"/>
</g>
<!-- Node13 -->
<g id="node13" class="node"><title>Node13</title>
<g id="a_node13"><a xlink:href="TileMap_8cpp.html" target="_top" xlink:title="Engine/src/TileMap.cpp">
<polygon fill="white" stroke="black" points="1533.9,-112.5 1533.9,-131.5 1652.9,-131.5 1652.9,-112.5 1533.9,-112.5"/>
<text text-anchor="middle" x="1593.4" y="-119.5" font-family="Helvetica,sans-Serif" font-size="10.00">Engine/src/TileMap.cpp</text>
</a>
</g>
</g>
<!-- Node8&#45;&gt;Node13 -->
<g id="edge14" class="edge"><title>Node8&#45;&gt;Node13</title>
<path fill="none" stroke="midnightblue" d="M1355.21,-166.601C1410.96,-156.395 1494.96,-141.019 1546.87,-131.516"/>
<polygon fill="midnightblue" stroke="midnightblue" points="1354.35,-163.2 1345.14,-168.444 1355.61,-170.086 1354.35,-163.2"/>
</g>
<!-- Node14 -->
<g id="node14" class="node"><title>Node14</title>
<g id="a_node14"><a xlink:href="Tileset_8cpp.html" target="_top" xlink:title="Engine/src/Tileset.cpp">
<polygon fill="white" stroke="black" points="619.397,-112.5 619.397,-131.5 733.397,-131.5 733.397,-112.5 619.397,-112.5"/>
<text text-anchor="middle" x="676.397" y="-119.5" font-family="Helvetica,sans-Serif" font-size="10.00">Engine/src/Tileset.cpp</text>
</a>
</g>
</g>
<!-- Node8&#45;&gt;Node14 -->
<g id="edge15" class="edge"><title>Node8&#45;&gt;Node14</title>
<path fill="none" stroke="midnightblue" d="M1225.35,-172.368C1118.95,-165.331 915.178,-150.758 742.397,-132 739.523,-131.688 736.581,-131.351 733.611,-130.997"/>
<polygon fill="midnightblue" stroke="midnightblue" points="1225.13,-175.861 1235.34,-173.025 1225.59,-168.876 1225.13,-175.861"/>
</g>
<!-- Node15 -->
<g id="node15" class="node"><title>Node15</title>
<g id="a_node15"><a xlink:href="EndState_8cpp.html" target="_top" xlink:title="Game/src/EndState.cpp">
<polygon fill="white" stroke="black" points="1577.4,-0.5 1577.4,-19.5 1699.4,-19.5 1699.4,-0.5 1577.4,-0.5"/>
<text text-anchor="middle" x="1638.4" y="-7.5" font-family="Helvetica,sans-Serif" font-size="10.00">Game/src/EndState.cpp</text>
</a>
</g>
</g>
<!-- Node8&#45;&gt;Node15 -->
<g id="edge16" class="edge"><title>Node8&#45;&gt;Node15</title>
<path fill="none" stroke="midnightblue" d="M1309.58,-159.563C1319.71,-145.026 1335.85,-124.707 1354.4,-112 1429.62,-60.4624 1534.02,-32.2908 1593.02,-19.5539"/>
<polygon fill="midnightblue" stroke="midnightblue" points="1306.49,-157.888 1303.83,-168.143 1312.3,-161.785 1306.49,-157.888"/>
</g>
<!-- Node16 -->
<g id="node16" class="node"><title>Node16</title>
<g id="a_node16"><a xlink:href="Face_8cpp.html" target="_top" xlink:title="Game/src/Face.cpp">
<polygon fill="white" stroke="black" points="2026.9,-112.5 2026.9,-131.5 2129.9,-131.5 2129.9,-112.5 2026.9,-112.5"/>
<text text-anchor="middle" x="2078.4" y="-119.5" font-family="Helvetica,sans-Serif" font-size="10.00">Game/src/Face.cpp</text>
</a>
</g>
</g>
<!-- Node8&#45;&gt;Node16 -->
<g id="edge18" class="edge"><title>Node8&#45;&gt;Node16</title>
<path fill="none" stroke="midnightblue" d="M1371.62,-173.201C1528.7,-164.924 1893.78,-144.965 2017.4,-132 2020.48,-131.676 2023.66,-131.31 2026.85,-130.916"/>
<polygon fill="midnightblue" stroke="midnightblue" points="1371.38,-169.709 1361.58,-173.73 1371.75,-176.699 1371.38,-169.709"/>
</g>
<!-- Node17 -->
<g id="node17" class="node"><title>Node17</title>
<g id="a_node17"><a xlink:href="StageState_8cpp.html" target="_top" xlink:title="Game/src/StageState.cpp">
<polygon fill="white" stroke="black" points="1728.4,-56.5 1728.4,-75.5 1858.4,-75.5 1858.4,-56.5 1728.4,-56.5"/>
<text text-anchor="middle" x="1793.4" y="-63.5" font-family="Helvetica,sans-Serif" font-size="10.00">Game/src/StageState.cpp</text>
</a>
</g>
</g>
<!-- Node8&#45;&gt;Node17 -->
<g id="edge19" class="edge"><title>Node8&#45;&gt;Node17</title>
<path fill="none" stroke="midnightblue" d="M1315.5,-161.589C1333.65,-146.2 1363.89,-123.265 1394.4,-112 1454.07,-89.9646 1631.44,-76.4773 1728.37,-70.549"/>
<polygon fill="midnightblue" stroke="midnightblue" points="1312.85,-159.249 1307.61,-168.452 1317.45,-164.531 1312.85,-159.249"/>
</g>
<!-- Node18 -->
<g id="node18" class="node"><title>Node18</title>
<g id="a_node18"><a xlink:href="TitleState_8cpp.html" target="_top" xlink:title="Game/src/TitleState.cpp">
<polygon fill="white" stroke="black" points="900.897,-56.5 900.897,-75.5 1023.9,-75.5 1023.9,-56.5 900.897,-56.5"/>
<text text-anchor="middle" x="962.397" y="-63.5" font-family="Helvetica,sans-Serif" font-size="10.00">Game/src/TitleState.cpp</text>
</a>
</g>
</g>
<!-- Node8&#45;&gt;Node18 -->
<g id="edge20" class="edge"><title>Node8&#45;&gt;Node18</title>
<path fill="none" stroke="midnightblue" d="M1298.45,-158.226C1297.41,-143.432 1293.44,-123.452 1280.4,-112 1243.32,-79.4393 1105.5,-70.392 1023.96,-67.9089"/>
<polygon fill="midnightblue" stroke="midnightblue" points="1294.95,-158.418 1298.77,-168.301 1301.95,-158.195 1294.95,-158.418"/>
</g>
<!-- Node19&#45;&gt;Node13 -->
<g id="edge31" class="edge"><title>Node19&#45;&gt;Node13</title>
<path fill="none" stroke="midnightblue" d="M1979.17,-221.916C1893.44,-199.934 1703.56,-151.247 1626.68,-131.535"/>
<polygon fill="midnightblue" stroke="midnightblue" points="1978.54,-225.367 1989.09,-224.46 1980.27,-218.586 1978.54,-225.367"/>
</g>
<!-- Node19&#45;&gt;Node20 -->
<g id="edge22" class="edge"><title>Node19&#45;&gt;Node20</title>
<path fill="none" stroke="midnightblue" d="M2005.48,-217.253C1995.19,-207.673 1982.43,-195.791 1973.89,-187.834"/>
<polygon fill="midnightblue" stroke="midnightblue" points="2003.37,-220.071 2013.08,-224.324 2008.14,-214.948 2003.37,-220.071"/>
</g>
<!-- Node19&#45;&gt;Node21 -->
<g id="edge32" class="edge"><title>Node19&#45;&gt;Node21</title>
<path fill="none" stroke="midnightblue" d="M1966.05,-222.364C1930.76,-214.429 1890.02,-202.482 1879.4,-188 1863.29,-166.039 1898.16,-143.552 1921.53,-131.642"/>
<polygon fill="midnightblue" stroke="midnightblue" points="1965.31,-225.786 1975.83,-224.495 1966.8,-218.947 1965.31,-225.786"/>
</g>
<!-- Node19&#45;&gt;Node23 -->
<g id="edge33" class="edge"><title>Node19&#45;&gt;Node23</title>
<path fill="none" stroke="midnightblue" d="M1959.08,-222.854C1895.4,-212.651 1798.34,-197.098 1738.55,-187.516"/>
<polygon fill="midnightblue" stroke="midnightblue" points="1958.57,-226.317 1969,-224.444 1959.68,-219.405 1958.57,-226.317"/>
</g>
<!-- Node19&#45;&gt;Node24 -->
<g id="edge36" class="edge"><title>Node19&#45;&gt;Node24</title>
<path fill="none" stroke="midnightblue" d="M2045.69,-219.177C2062.44,-209.241 2084.5,-196.149 2098.81,-187.655"/>
<polygon fill="midnightblue" stroke="midnightblue" points="2043.83,-216.211 2037.02,-224.324 2047.4,-222.231 2043.83,-216.211"/>
</g>
<!-- Node20&#45;&gt;Node10 -->
<g id="edge23" class="edge"><title>Node20&#45;&gt;Node10</title>
<path fill="none" stroke="midnightblue" d="M1919.48,-166.024C1877.73,-155.823 1816.42,-140.841 1778.25,-131.516"/>
<polygon fill="midnightblue" stroke="midnightblue" points="1918.83,-169.47 1929.38,-168.444 1920.5,-162.67 1918.83,-169.47"/>
</g>
<!-- Node20&#45;&gt;Node16 -->
<g id="edge30" class="edge"><title>Node20&#45;&gt;Node16</title>
<path fill="none" stroke="midnightblue" d="M1991.64,-164.096C2012.94,-154.007 2041.94,-140.27 2060.42,-131.516"/>
<polygon fill="midnightblue" stroke="midnightblue" points="1990,-161 1982.46,-168.444 1993,-167.326 1990,-161"/>
</g>
<!-- Node20&#45;&gt;Node21 -->
<g id="edge24" class="edge"><title>Node20&#45;&gt;Node21</title>
<path fill="none" stroke="midnightblue" d="M1956.26,-158.69C1952.21,-149.589 1947.51,-139.014 1944.29,-131.751"/>
<polygon fill="midnightblue" stroke="midnightblue" points="1953.17,-160.366 1960.43,-168.083 1959.57,-157.523 1953.17,-160.366"/>
</g>
<!-- Node21&#45;&gt;Node17 -->
<g id="edge28" class="edge"><title>Node21&#45;&gt;Node17</title>
<path fill="none" stroke="midnightblue" d="M1907.47,-108.906C1879.84,-98.7536 1841.05,-84.5063 1816.58,-75.5164"/>
<polygon fill="midnightblue" stroke="midnightblue" points="1906.51,-112.281 1917.1,-112.444 1908.93,-105.71 1906.51,-112.281"/>
</g>
<!-- Node21&#45;&gt;Node18 -->
<g id="edge29" class="edge"><title>Node21&#45;&gt;Node18</title>
<path fill="none" stroke="midnightblue" d="M1861.4,-114.602C1849.02,-113.677 1836.37,-112.777 1824.4,-112 1524.57,-92.5455 1165.64,-75.9613 1024.1,-69.6849"/>
<polygon fill="midnightblue" stroke="midnightblue" points="1861.48,-118.118 1871.72,-115.383 1862.01,-111.138 1861.48,-118.118"/>
</g>
<!-- Node21&#45;&gt;Node22 -->
<g id="edge25" class="edge"><title>Node21&#45;&gt;Node22</title>
<path fill="none" stroke="midnightblue" d="M1933.93,-102.101C1933.29,-93.1357 1933.74,-82.8579 1935.27,-75.7511"/>
<polygon fill="midnightblue" stroke="midnightblue" points="1930.46,-102.622 1935.23,-112.083 1937.4,-101.713 1930.46,-102.622"/>
</g>
<!-- Node22&#45;&gt;Node15 -->
<g id="edge27" class="edge"><title>Node22&#45;&gt;Node15</title>
<path fill="none" stroke="midnightblue" d="M1882.59,-54.6642C1825.52,-44.4592 1739.28,-29.0386 1686.03,-19.5164"/>
<polygon fill="midnightblue" stroke="midnightblue" points="1882.08,-58.1287 1892.54,-56.4435 1883.32,-51.2379 1882.08,-58.1287"/>
</g>
<!-- Node22&#45;&gt;Node21 -->
<g id="edge26" class="edge"><title>Node22&#45;&gt;Node21</title>
<path fill="none" stroke="midnightblue" d="M1946.85,-85.6911C1947.5,-94.6353 1947.07,-104.927 1945.56,-112.083"/>
<polygon fill="midnightblue" stroke="midnightblue" points="1950.32,-85.2002 1945.53,-75.7511 1943.38,-86.1262 1950.32,-85.2002"/>
</g>
<!-- Node23&#45;&gt;Node4 -->
<g id="edge34" class="edge"><title>Node23&#45;&gt;Node4</title>
<path fill="none" stroke="midnightblue" d="M1639.73,-166.088C1597.03,-155.887 1534.15,-140.861 1495.04,-131.516"/>
<polygon fill="midnightblue" stroke="midnightblue" points="1639.05,-169.524 1649.59,-168.444 1640.67,-162.715 1639.05,-169.524"/>
</g>
<!-- Node23&#45;&gt;Node17 -->
<g id="edge35" class="edge"><title>Node23&#45;&gt;Node17</title>
<path fill="none" stroke="midnightblue" d="M1739.95,-166.213C1774.32,-158.184 1814.08,-146.189 1824.4,-132 1837.78,-113.598 1816.47,-88.5085 1803.03,-75.541"/>
<polygon fill="midnightblue" stroke="midnightblue" points="1738.95,-162.852 1729.97,-168.473 1740.49,-169.679 1738.95,-162.852"/>
</g>
<!-- Node24&#45;&gt;Node16 -->
<g id="edge37" class="edge"><title>Node24&#45;&gt;Node16</title>
<path fill="none" stroke="midnightblue" d="M2102.1,-159.566C2096.08,-150.275 2088.93,-139.248 2084.07,-131.751"/>
<polygon fill="midnightblue" stroke="midnightblue" points="2099.24,-161.595 2107.62,-168.083 2105.12,-157.788 2099.24,-161.595"/>
</g>
<!-- Node24&#45;&gt;Node17 -->
<g id="edge38" class="edge"><title>Node24&#45;&gt;Node17</title>
<path fill="none" stroke="midnightblue" d="M2128.35,-160.476C2139.38,-146.236 2150.55,-125.844 2138.4,-112 2136.1,-109.383 1957.92,-87.1646 1858.56,-74.9576"/>
<polygon fill="midnightblue" stroke="midnightblue" points="2125.42,-158.515 2121.7,-168.434 2130.8,-163.001 2125.42,-158.515"/>
</g>
<!-- Node25&#45;&gt;Node12 -->
<g id="edge52" class="edge"><title>Node25&#45;&gt;Node12</title>
<path fill="none" stroke="midnightblue" d="M1161.88,-216.897C1139.09,-193.249 1097.37,-149.949 1079.68,-131.591"/>
<polygon fill="midnightblue" stroke="midnightblue" points="1159.62,-219.596 1169.08,-224.368 1164.66,-214.739 1159.62,-219.596"/>
</g>
<!-- Node25&#45;&gt;Node21 -->
<g id="edge53" class="edge"><title>Node25&#45;&gt;Node21</title>
<path fill="none" stroke="midnightblue" d="M1222.08,-222.091C1282.24,-207.764 1392.8,-182.706 1488.4,-168 1560.4,-156.924 1763.89,-138.398 1871.58,-128.943"/>
<polygon fill="midnightblue" stroke="midnightblue" points="1221.07,-218.735 1212.16,-224.466 1222.7,-225.542 1221.07,-218.735"/>
</g>
<!-- Node26 -->
<g id="node26" class="node"><title>Node26</title>
<g id="a_node26"><a xlink:href="Game_8h.html" target="_top" xlink:title="Engine/include/Game.h">
<polygon fill="white" stroke="black" points="444.397,-168.5 444.397,-187.5 562.397,-187.5 562.397,-168.5 444.397,-168.5"/>
<text text-anchor="middle" x="503.397" y="-175.5" font-family="Helvetica,sans-Serif" font-size="10.00">Engine/include/Game.h</text>
</a>
</g>
</g>
<!-- Node25&#45;&gt;Node26 -->
<g id="edge40" class="edge"><title>Node25&#45;&gt;Node26</title>
<path fill="none" stroke="midnightblue" d="M1109.52,-223.972C902.254,-202.649 669.441,-188.274 562.524,-182.211"/>
<polygon fill="midnightblue" stroke="midnightblue" points="1109.37,-227.475 1119.68,-225.025 1110.09,-220.513 1109.37,-227.475"/>
</g>
<!-- Node32 -->
<g id="node32" class="node"><title>Node32</title>
<g id="a_node32"><a xlink:href="TitleState_8h.html" target="_top" xlink:title="Game/include/TitleState.h">
<polygon fill="white" stroke="black" points="0.397429,-168.5 0.397429,-187.5 130.397,-187.5 130.397,-168.5 0.397429,-168.5"/>
<text text-anchor="middle" x="65.3974" y="-175.5" font-family="Helvetica,sans-Serif" font-size="10.00">Game/include/TitleState.h</text>
</a>
</g>
</g>
<!-- Node25&#45;&gt;Node32 -->
<g id="edge54" class="edge"><title>Node25&#45;&gt;Node32</title>
<path fill="none" stroke="midnightblue" d="M1109.67,-224.045C899.722,-206.397 324.655,-187.204 130.404,-181.027"/>
<polygon fill="midnightblue" stroke="midnightblue" points="1109.43,-227.537 1119.69,-224.911 1110.03,-220.563 1109.43,-227.537"/>
</g>
<!-- Node26&#45;&gt;Node9 -->
<g id="edge44" class="edge"><title>Node26&#45;&gt;Node9</title>
<path fill="none" stroke="midnightblue" d="M562.35,-166.664C620.556,-156.459 708.511,-141.039 762.822,-131.516"/>
<polygon fill="midnightblue" stroke="midnightblue" points="561.446,-163.269 552.201,-168.444 562.655,-170.164 561.446,-163.269"/>
</g>
<!-- Node26&#45;&gt;Node11 -->
<g id="edge47" class="edge"><title>Node26&#45;&gt;Node11</title>
<path fill="none" stroke="midnightblue" d="M573.027,-169.056C648.538,-160.351 772.598,-145.784 879.397,-132 882.561,-131.592 885.81,-131.165 889.088,-130.729"/>
<polygon fill="midnightblue" stroke="midnightblue" points="572.235,-165.624 562.701,-170.245 573.036,-172.579 572.235,-165.624"/>
</g>
<!-- Node26&#45;&gt;Node14 -->
<g id="edge48" class="edge"><title>Node26&#45;&gt;Node14</title>
<path fill="none" stroke="midnightblue" d="M540.444,-165.436C573.062,-155.255 619.807,-140.664 649.113,-131.516"/>
<polygon fill="midnightblue" stroke="midnightblue" points="539.313,-162.123 530.81,-168.444 541.398,-168.805 539.313,-162.123"/>
</g>
<!-- Node26&#45;&gt;Node17 -->
<g id="edge50" class="edge"><title>Node26&#45;&gt;Node17</title>
<path fill="none" stroke="midnightblue" d="M488.912,-160.119C478.285,-145.647 467.723,-125.117 480.397,-112 502.302,-89.332 1465.99,-72.2495 1728.15,-68.0158"/>
<polygon fill="midnightblue" stroke="midnightblue" points="486.379,-162.558 495.331,-168.226 491.868,-158.213 486.379,-162.558"/>
</g>
<!-- Node26&#45;&gt;Node18 -->
<g id="edge51" class="edge"><title>Node26&#45;&gt;Node18</title>
<path fill="none" stroke="midnightblue" d="M477.866,-163.218C456.397,-149.913 431.547,-129.296 447.397,-112 477.489,-79.1643 770.549,-70.1942 900.679,-67.8212"/>
<polygon fill="midnightblue" stroke="midnightblue" points="476.339,-166.381 486.732,-168.441 479.893,-160.35 476.339,-166.381"/>
</g>
<!-- Node27 -->
<g id="node27" class="node"><title>Node27</title>
<g id="a_node27"><a xlink:href="Text_8h.html" target="_top" xlink:title="Engine/include/Text.h">
<polygon fill="white" stroke="black" points="489.897,-112.5 489.897,-131.5 600.897,-131.5 600.897,-112.5 489.897,-112.5"/>
<text text-anchor="middle" x="545.397" y="-119.5" font-family="Helvetica,sans-Serif" font-size="10.00">Engine/include/Text.h</text>
</a>
</g>
</g>
<!-- Node26&#45;&gt;Node27 -->
<g id="edge41" class="edge"><title>Node26&#45;&gt;Node27</title>
<path fill="none" stroke="midnightblue" d="M516.508,-160.144C523.825,-150.736 532.638,-139.405 538.591,-131.751"/>
<polygon fill="midnightblue" stroke="midnightblue" points="513.71,-158.041 510.333,-168.083 519.235,-162.338 513.71,-158.041"/>
</g>
<!-- Node29 -->
<g id="node29" class="node"><title>Node29</title>
<g id="a_node29"><a xlink:href="Game_8cpp.html" target="_top" xlink:title="Engine/src/Game.cpp">
<polygon fill="white" stroke="black" points="133.897,-112.5 133.897,-131.5 244.897,-131.5 244.897,-112.5 133.897,-112.5"/>
<text text-anchor="middle" x="189.397" y="-119.5" font-family="Helvetica,sans-Serif" font-size="10.00">Engine/src/Game.cpp</text>
</a>
</g>
</g>
<!-- Node26&#45;&gt;Node29 -->
<g id="edge45" class="edge"><title>Node26&#45;&gt;Node29</title>
<path fill="none" stroke="midnightblue" d="M443.665,-166.727C384.328,-156.523 294.403,-141.058 238.919,-131.516"/>
<polygon fill="midnightblue" stroke="midnightblue" points="443.195,-170.198 453.643,-168.444 444.381,-163.299 443.195,-170.198"/>
</g>
<!-- Node30 -->
<g id="node30" class="node"><title>Node30</title>
<g id="a_node30"><a xlink:href="Resources_8cpp.html" target="_top" xlink:title="Engine/src/Resources.cpp">
<polygon fill="white" stroke="black" points="263.397,-112.5 263.397,-131.5 395.397,-131.5 395.397,-112.5 263.397,-112.5"/>
<text text-anchor="middle" x="329.397" y="-119.5" font-family="Helvetica,sans-Serif" font-size="10.00">Engine/src/Resources.cpp</text>
</a>
</g>
</g>
<!-- Node26&#45;&gt;Node30 -->
<g id="edge46" class="edge"><title>Node26&#45;&gt;Node30</title>
<path fill="none" stroke="midnightblue" d="M466.137,-165.436C433.33,-155.255 386.315,-140.664 356.839,-131.516"/>
<polygon fill="midnightblue" stroke="midnightblue" points="465.239,-168.822 475.827,-168.444 467.313,-162.137 465.239,-168.822"/>
</g>
<!-- Node31 -->
<g id="node31" class="node"><title>Node31</title>
<g id="a_node31"><a xlink:href="main_8cpp.html" target="_top" xlink:title="Game/src/main.cpp">
<polygon fill="white" stroke="black" points="14.3974,-112.5 14.3974,-131.5 116.397,-131.5 116.397,-112.5 14.3974,-112.5"/>
<text text-anchor="middle" x="65.3974" y="-119.5" font-family="Helvetica,sans-Serif" font-size="10.00">Game/src/main.cpp</text>
</a>
</g>
</g>
<!-- Node26&#45;&gt;Node31 -->
<g id="edge49" class="edge"><title>Node26&#45;&gt;Node31</title>
<path fill="none" stroke="midnightblue" d="M433.837,-169.441C357.753,-161.011 232.259,-146.626 124.397,-132 121.831,-131.652 119.202,-131.286 116.549,-130.909"/>
<polygon fill="midnightblue" stroke="midnightblue" points="433.914,-172.971 444.238,-170.591 434.683,-166.014 433.914,-172.971"/>
</g>
<!-- Node27&#45;&gt;Node22 -->
<g id="edge43" class="edge"><title>Node27&#45;&gt;Node22</title>
<path fill="none" stroke="midnightblue" d="M611.345,-112.037C1169.12,-66.243 1313.5,-117.982 1867.4,-76 1870.33,-75.778 1873.32,-75.5233 1876.34,-75.2435"/>
<polygon fill="midnightblue" stroke="midnightblue" points="610.699,-108.579 601.022,-112.892 611.277,-115.555 610.699,-108.579"/>
</g>
<!-- Node28 -->
<g id="node28" class="node"><title>Node28</title>
<g id="a_node28"><a xlink:href="Text_8cpp.html" target="_top" xlink:title="Engine/src/Text.cpp">
<polygon fill="white" stroke="black" points="493.397,-56.5 493.397,-75.5 597.397,-75.5 597.397,-56.5 493.397,-56.5"/>
<text text-anchor="middle" x="545.397" y="-63.5" font-family="Helvetica,sans-Serif" font-size="10.00">Engine/src/Text.cpp</text>
</a>
</g>
</g>
<!-- Node27&#45;&gt;Node28 -->
<g id="edge42" class="edge"><title>Node27&#45;&gt;Node28</title>
<path fill="none" stroke="midnightblue" d="M545.397,-101.805C545.397,-92.9102 545.397,-82.7798 545.397,-75.7511"/>
<polygon fill="midnightblue" stroke="midnightblue" points="541.898,-102.083 545.397,-112.083 548.898,-102.083 541.898,-102.083"/>
</g>
<!-- Node32&#45;&gt;Node18 -->
<g id="edge56" class="edge"><title>Node32&#45;&gt;Node18</title>
<path fill="none" stroke="midnightblue" d="M38.3975,-163.441C15.4364,-150.207 -11.3551,-129.559 5.39743,-112 20.8978,-95.7537 691.543,-74.8869 900.741,-68.7627"/>
<polygon fill="midnightblue" stroke="midnightblue" points="36.7786,-166.545 47.228,-168.294 40.1502,-160.41 36.7786,-166.545"/>
</g>
<!-- Node32&#45;&gt;Node31 -->
<g id="edge55" class="edge"><title>Node32&#45;&gt;Node31</title>
<path fill="none" stroke="midnightblue" d="M65.3974,-157.805C65.3974,-148.91 65.3974,-138.78 65.3974,-131.751"/>
<polygon fill="midnightblue" stroke="midnightblue" points="61.8975,-158.083 65.3974,-168.083 68.8975,-158.083 61.8975,-158.083"/>
</g>
<!-- Node33&#45;&gt;Node23 -->
<g id="edge59" class="edge"><title>Node33&#45;&gt;Node23</title>
<path fill="none" stroke="midnightblue" d="M1660.34,-215.566C1666.71,-206.275 1674.26,-195.248 1679.4,-187.751"/>
<polygon fill="midnightblue" stroke="midnightblue" points="1657.27,-213.855 1654.51,-224.083 1663.05,-217.812 1657.27,-213.855"/>
</g>
<!-- Node34 -->
<g id="node34" class="node"><title>Node34</title>
<g id="a_node34"><a xlink:href="Wave_8cpp.html" target="_top" xlink:title="Engine/src/Wave.cpp">
<polygon fill="white" stroke="black" points="1497.4,-168.5 1497.4,-187.5 1607.4,-187.5 1607.4,-168.5 1497.4,-168.5"/>
<text text-anchor="middle" x="1552.4" y="-175.5" font-family="Helvetica,sans-Serif" font-size="10.00">Engine/src/Wave.cpp</text>
</a>
</g>
</g>
<!-- Node33&#45;&gt;Node34 -->
<g id="edge58" class="edge"><title>Node33&#45;&gt;Node34</title>
<path fill="none" stroke="midnightblue" d="M1623.82,-219.177C1606.16,-209.241 1582.88,-196.149 1567.78,-187.655"/>
<polygon fill="midnightblue" stroke="midnightblue" points="1622.54,-222.472 1632.97,-224.324 1625.97,-216.371 1622.54,-222.472"/>
</g>
<!-- Node37 -->
<g id="node37" class="node"><title>Node37</title>
<g id="a_node37"><a xlink:href="HItPoints_8cpp.html" target="_top" xlink:title="Engine/src/HItPoints.cpp">
<polygon fill="white" stroke="black" points="2224.4,-224.5 2224.4,-243.5 2350.4,-243.5 2350.4,-224.5 2224.4,-224.5"/>
<text text-anchor="middle" x="2287.4" y="-231.5" font-family="Helvetica,sans-Serif" font-size="10.00">Engine/src/HItPoints.cpp</text>
</a>
</g>
</g>
<!-- Node36&#45;&gt;Node37 -->
<g id="edge67" class="edge"><title>Node36&#45;&gt;Node37</title>
<path fill="none" stroke="midnightblue" d="M2258.51,-272.144C2265.83,-262.736 2274.64,-251.405 2280.59,-243.751"/>
<polygon fill="midnightblue" stroke="midnightblue" points="2255.71,-270.041 2252.33,-280.083 2261.24,-274.338 2255.71,-270.041"/>
</g>
</g>
</svg>
