<?xml version="1.0" encoding="UTF-8" standalone="no"?>
<!DOCTYPE svg PUBLIC "-//W3C//DTD SVG 1.1//EN"
 "http://www.w3.org/Graphics/SVG/1.1/DTD/svg11.dtd">
<!-- Generated by graphviz version 2.36.0 (20140111.2315)
 -->
<!-- Title: Engine/src/DragAndDrop.cpp Pages: 1 -->
<svg width="862pt" height="420pt"
 viewBox="0.00 0.00 862.00 420.00" xmlns="http://www.w3.org/2000/svg" xmlns:xlink="http://www.w3.org/1999/xlink">
<g id="graph0" class="graph" transform="scale(1 1) rotate(0) translate(4 416)">
<title>Engine/src/DragAndDrop.cpp</title>
<polygon fill="white" stroke="none" points="-4,4 -4,-416 858,-416 858,4 -4,4"/>
<!-- Node1 -->
<g id="node1" class="node"><title>Node1</title>
<polygon fill="#bfbfbf" stroke="black" points="618,-392.5 618,-411.5 762,-411.5 762,-392.5 618,-392.5"/>
<text text-anchor="middle" x="690" y="-399.5" font-family="Helvetica,sans-Serif" font-size="10.00">Engine/src/DragAndDrop.cpp</text>
</g>
<!-- Node2 -->
<g id="node2" class="node"><title>Node2</title>
<g id="a_node2"><a xlink:href="DragAndDrop_8h.html" target="_top" xlink:title="DragAndDrop.h">
<polygon fill="white" stroke="black" points="399,-336.5 399,-355.5 483,-355.5 483,-336.5 399,-336.5"/>
<text text-anchor="middle" x="441" y="-343.5" font-family="Helvetica,sans-Serif" font-size="10.00">DragAndDrop.h</text>
</a>
</g>
</g>
<!-- Node1&#45;&gt;Node2 -->
<g id="edge1" class="edge"><title>Node1&#45;&gt;Node2</title>
<path fill="none" stroke="midnightblue" d="M650.545,-392.444C607.108,-383.023 537.214,-367.866 490.224,-357.675"/>
<polygon fill="midnightblue" stroke="midnightblue" points="490.785,-354.215 480.27,-355.516 489.301,-361.056 490.785,-354.215"/>
</g>
<!-- Node17 -->
<g id="node17" class="node"><title>Node17</title>
<g id="a_node17"><a xlink:href="InputManager_8h.html" target="_top" xlink:title="InputManager.h">
<polygon fill="white" stroke="black" points="588,-112.5 588,-131.5 672,-131.5 672,-112.5 588,-112.5"/>
<text text-anchor="middle" x="630" y="-119.5" font-family="Helvetica,sans-Serif" font-size="10.00">InputManager.h</text>
</a>
</g>
</g>
<!-- Node1&#45;&gt;Node17 -->
<g id="edge42" class="edge"><title>Node1&#45;&gt;Node17</title>
<path fill="none" stroke="midnightblue" d="M692.158,-392.223C696.525,-373.663 706,-329.017 706,-291 706,-291 706,-291 706,-233 706,-202.902 703.831,-192.952 687,-168 678.599,-155.546 665.671,-144.937 654.249,-137.153"/>
<polygon fill="midnightblue" stroke="midnightblue" points="655.83,-134.008 645.528,-131.535 652.039,-139.893 655.83,-134.008"/>
</g>
<!-- Node20 -->
<g id="node20" class="node"><title>Node20</title>
<g id="a_node20"><a xlink:href="Camera_8h.html" target="_top" xlink:title="Camera.h">
<polygon fill="white" stroke="black" points="566.5,-224.5 566.5,-243.5 625.5,-243.5 625.5,-224.5 566.5,-224.5"/>
<text text-anchor="middle" x="596" y="-231.5" font-family="Helvetica,sans-Serif" font-size="10.00">Camera.h</text>
</a>
</g>
</g>
<!-- Node1&#45;&gt;Node20 -->
<g id="edge34" class="edge"><title>Node1&#45;&gt;Node20</title>
<path fill="none" stroke="midnightblue" d="M684.946,-392.075C670.022,-365.719 625.943,-287.878 606.001,-252.661"/>
<polygon fill="midnightblue" stroke="midnightblue" points="608.825,-250.545 600.852,-243.568 602.734,-253.994 608.825,-250.545"/>
</g>
<!-- Node22 -->
<g id="node22" class="node"><title>Node22</title>
<g id="a_node22"><a xlink:href="Error_8h.html" target="_top" xlink:title="Error.h">
<polygon fill="white" stroke="black" points="738,-336.5 738,-355.5 784,-355.5 784,-336.5 738,-336.5"/>
<text text-anchor="middle" x="761" y="-343.5" font-family="Helvetica,sans-Serif" font-size="10.00">Error.h</text>
</a>
</g>
</g>
<!-- Node1&#45;&gt;Node22 -->
<g id="edge39" class="edge"><title>Node1&#45;&gt;Node22</title>
<path fill="none" stroke="midnightblue" d="M701.407,-392.324C712.109,-384.185 728.341,-371.839 741.163,-362.087"/>
<polygon fill="midnightblue" stroke="midnightblue" points="743.544,-364.673 749.385,-355.834 739.307,-359.102 743.544,-364.673"/>
</g>
<!-- Node3 -->
<g id="node3" class="node"><title>Node3</title>
<g id="a_node3"><a xlink:href="Component_8h.html" target="_top" xlink:title="Component.h">
<polygon fill="white" stroke="black" points="403.5,-224.5 403.5,-243.5 478.5,-243.5 478.5,-224.5 403.5,-224.5"/>
<text text-anchor="middle" x="441" y="-231.5" font-family="Helvetica,sans-Serif" font-size="10.00">Component.h</text>
</a>
</g>
</g>
<!-- Node2&#45;&gt;Node3 -->
<g id="edge2" class="edge"><title>Node2&#45;&gt;Node3</title>
<path fill="none" stroke="midnightblue" d="M441,-336.368C441,-318.617 441,-277.666 441,-253.597"/>
<polygon fill="midnightblue" stroke="midnightblue" points="444.5,-253.591 441,-243.591 437.5,-253.591 444.5,-253.591"/>
</g>
<!-- Node13 -->
<g id="node13" class="node"><title>Node13</title>
<g id="a_node13"><a xlink:href="TileMap_8h.html" target="_top" xlink:title="TileMap.h">
<polygon fill="white" stroke="black" points="311.5,-280.5 311.5,-299.5 370.5,-299.5 370.5,-280.5 311.5,-280.5"/>
<text text-anchor="middle" x="341" y="-287.5" font-family="Helvetica,sans-Serif" font-size="10.00">TileMap.h</text>
</a>
</g>
</g>
<!-- Node2&#45;&gt;Node13 -->
<g id="edge16" class="edge"><title>Node2&#45;&gt;Node13</title>
<path fill="none" stroke="midnightblue" d="M424.933,-336.324C409.042,-327.743 384.493,-314.486 366.042,-304.522"/>
<polygon fill="midnightblue" stroke="midnightblue" points="367.489,-301.326 357.027,-299.655 364.163,-307.486 367.489,-301.326"/>
</g>
<!-- Node4 -->
<g id="node4" class="node"><title>Node4</title>
<g id="a_node4"><a xlink:href="ComponentType_8h.html" target="_top" xlink:title="ComponentType.h">
<polygon fill="white" stroke="black" points="396.5,-112.5 396.5,-131.5 493.5,-131.5 493.5,-112.5 396.5,-112.5"/>
<text text-anchor="middle" x="445" y="-119.5" font-family="Helvetica,sans-Serif" font-size="10.00">ComponentType.h</text>
</a>
</g>
</g>
<!-- Node3&#45;&gt;Node4 -->
<g id="edge3" class="edge"><title>Node3&#45;&gt;Node4</title>
<path fill="none" stroke="midnightblue" d="M441.314,-224.368C441.959,-206.617 443.448,-165.666 444.324,-141.597"/>
<polygon fill="midnightblue" stroke="midnightblue" points="447.822,-141.712 444.688,-131.591 440.826,-141.458 447.822,-141.712"/>
</g>
<!-- Node5 -->
<g id="node5" class="node"><title>Node5</title>
<g id="a_node5"><a xlink:href="GameObject_8h.html" target="_top" xlink:title="GameObject.h">
<polygon fill="white" stroke="black" points="267,-168.5 267,-187.5 347,-187.5 347,-168.5 267,-168.5"/>
<text text-anchor="middle" x="307" y="-175.5" font-family="Helvetica,sans-Serif" font-size="10.00">GameObject.h</text>
</a>
</g>
</g>
<!-- Node3&#45;&gt;Node5 -->
<g id="edge4" class="edge"><title>Node3&#45;&gt;Node5</title>
<path fill="none" stroke="midnightblue" d="M414.679,-224.444C390.783,-215.596 356.029,-201.687 332.423,-191.586"/>
<polygon fill="midnightblue" stroke="midnightblue" points="333.62,-188.29 323.053,-187.516 330.831,-194.711 333.62,-188.29"/>
</g>
<!-- Node5&#45;&gt;Node3 -->
<g id="edge9" class="edge"><title>Node5&#45;&gt;Node3</title>
<path fill="none" stroke="midnightblue" d="M333.213,-187.516C357.076,-196.349 391.831,-210.255 415.47,-220.368"/>
<polygon fill="midnightblue" stroke="midnightblue" points="414.289,-223.671 424.856,-224.444 417.078,-217.25 414.289,-223.671"/>
</g>
<!-- Node5&#45;&gt;Node4 -->
<g id="edge10" class="edge"><title>Node5&#45;&gt;Node4</title>
<path fill="none" stroke="midnightblue" d="M328.867,-168.444C351.779,-159.478 387.975,-145.314 413.866,-135.183"/>
<polygon fill="midnightblue" stroke="midnightblue" points="415.199,-138.42 423.236,-131.516 412.648,-131.901 415.199,-138.42"/>
</g>
<!-- Node6 -->
<g id="node6" class="node"><title>Node6</title>
<g id="a_node6"><a xlink:href="SDL__include_8h.html" target="_top" xlink:title="SDL_include.h">
<polygon fill="white" stroke="black" points="267,-0.5 267,-19.5 347,-19.5 347,-0.5 267,-0.5"/>
<text text-anchor="middle" x="307" y="-7.5" font-family="Helvetica,sans-Serif" font-size="10.00">SDL_include.h</text>
</a>
</g>
</g>
<!-- Node5&#45;&gt;Node6 -->
<g id="edge5" class="edge"><title>Node5&#45;&gt;Node6</title>
<path fill="none" stroke="midnightblue" d="M307,-168.075C307,-141.945 307,-65.2106 307,-29.577"/>
<polygon fill="midnightblue" stroke="midnightblue" points="310.5,-29.5681 307,-19.5681 303.5,-29.5681 310.5,-29.5681"/>
</g>
<!-- Node7 -->
<g id="node7" class="node"><title>Node7</title>
<polygon fill="white" stroke="#bfbfbf" points="335,-112.5 335,-131.5 379,-131.5 379,-112.5 335,-112.5"/>
<text text-anchor="middle" x="357" y="-119.5" font-family="Helvetica,sans-Serif" font-size="10.00">vector</text>
</g>
<!-- Node5&#45;&gt;Node7 -->
<g id="edge6" class="edge"><title>Node5&#45;&gt;Node7</title>
<path fill="none" stroke="midnightblue" d="M315.256,-168.083C322.465,-160.298 333.11,-148.801 341.846,-139.367"/>
<polygon fill="midnightblue" stroke="midnightblue" points="344.671,-141.467 348.897,-131.751 339.535,-136.711 344.671,-141.467"/>
</g>
<!-- Node8 -->
<g id="node8" class="node"><title>Node8</title>
<polygon fill="white" stroke="#bfbfbf" points="163,-112.5 163,-131.5 215,-131.5 215,-112.5 163,-112.5"/>
<text text-anchor="middle" x="189" y="-119.5" font-family="Helvetica,sans-Serif" font-size="10.00">memory</text>
</g>
<!-- Node5&#45;&gt;Node8 -->
<g id="edge7" class="edge"><title>Node5&#45;&gt;Node8</title>
<path fill="none" stroke="midnightblue" d="M288.303,-168.444C269.056,-159.636 238.848,-145.812 216.8,-135.722"/>
<polygon fill="midnightblue" stroke="midnightblue" points="218.16,-132.495 207.61,-131.516 215.247,-138.86 218.16,-132.495"/>
</g>
<!-- Node9 -->
<g id="node9" class="node"><title>Node9</title>
<polygon fill="white" stroke="#bfbfbf" points="-0.5,-112.5 -0.5,-131.5 40.5,-131.5 40.5,-112.5 -0.5,-112.5"/>
<text text-anchor="middle" x="20" y="-119.5" font-family="Helvetica,sans-Serif" font-size="10.00">string</text>
</g>
<!-- Node5&#45;&gt;Node9 -->
<g id="edge8" class="edge"><title>Node5&#45;&gt;Node9</title>
<path fill="none" stroke="midnightblue" d="M266.792,-169.435C208.772,-158.518 102.829,-138.585 50.6724,-128.771"/>
<polygon fill="midnightblue" stroke="midnightblue" points="51.1665,-125.303 40.6917,-126.893 49.8721,-132.182 51.1665,-125.303"/>
</g>
<!-- Node10 -->
<g id="node10" class="node"><title>Node10</title>
<g id="a_node10"><a xlink:href="Rect_8h.html" target="_top" xlink:title="Rect.h">
<polygon fill="white" stroke="black" points="233,-112.5 233,-131.5 279,-131.5 279,-112.5 233,-112.5"/>
<text text-anchor="middle" x="256" y="-119.5" font-family="Helvetica,sans-Serif" font-size="10.00">Rect.h</text>
</a>
</g>
</g>
<!-- Node5&#45;&gt;Node10 -->
<g id="edge11" class="edge"><title>Node5&#45;&gt;Node10</title>
<path fill="none" stroke="midnightblue" d="M298.578,-168.083C291.152,-160.22 280.148,-148.569 271.188,-139.081"/>
<polygon fill="midnightblue" stroke="midnightblue" points="273.676,-136.618 264.265,-131.751 268.587,-141.424 273.676,-136.618"/>
</g>
<!-- Node10&#45;&gt;Node6 -->
<g id="edge12" class="edge"><title>Node10&#45;&gt;Node6</title>
<path fill="none" stroke="midnightblue" d="M260.002,-112.368C268.307,-94.4563 287.563,-52.9233 298.679,-28.9482"/>
<polygon fill="midnightblue" stroke="midnightblue" points="301.986,-30.136 303.017,-19.5914 295.635,-27.1916 301.986,-30.136"/>
</g>
<!-- Node11 -->
<g id="node11" class="node"><title>Node11</title>
<g id="a_node11"><a xlink:href="Vec2_8h.html" target="_top" xlink:title="Vec2.h">
<polygon fill="white" stroke="black" points="498.5,-56.5 498.5,-75.5 545.5,-75.5 545.5,-56.5 498.5,-56.5"/>
<text text-anchor="middle" x="522" y="-63.5" font-family="Helvetica,sans-Serif" font-size="10.00">Vec2.h</text>
</a>
</g>
</g>
<!-- Node10&#45;&gt;Node11 -->
<g id="edge13" class="edge"><title>Node10&#45;&gt;Node11</title>
<path fill="none" stroke="midnightblue" d="M279.14,-116.302C326.282,-106.732 433.612,-84.9434 488.428,-73.8153"/>
<polygon fill="midnightblue" stroke="midnightblue" points="489.238,-77.2223 498.342,-71.8027 487.846,-70.3622 489.238,-77.2223"/>
</g>
<!-- Node12 -->
<g id="node12" class="node"><title>Node12</title>
<polygon fill="white" stroke="#bfbfbf" points="197,-56.5 197,-75.5 241,-75.5 241,-56.5 197,-56.5"/>
<text text-anchor="middle" x="219" y="-63.5" font-family="Helvetica,sans-Serif" font-size="10.00">cmath</text>
</g>
<!-- Node10&#45;&gt;Node12 -->
<g id="edge15" class="edge"><title>Node10&#45;&gt;Node12</title>
<path fill="none" stroke="midnightblue" d="M249.89,-112.083C244.718,-104.534 237.154,-93.4948 230.806,-84.2298"/>
<polygon fill="midnightblue" stroke="midnightblue" points="233.536,-82.0221 224.996,-75.7511 227.761,-85.9787 233.536,-82.0221"/>
</g>
<!-- Node11&#45;&gt;Node6 -->
<g id="edge14" class="edge"><title>Node11&#45;&gt;Node6</title>
<path fill="none" stroke="midnightblue" d="M498.17,-59.0147C462.77,-50.1237 395.693,-33.2763 351.159,-22.0911"/>
<polygon fill="midnightblue" stroke="midnightblue" points="351.739,-18.6282 341.188,-19.5868 350.034,-25.4174 351.739,-18.6282"/>
</g>
<!-- Node13&#45;&gt;Node5 -->
<g id="edge19" class="edge"><title>Node13&#45;&gt;Node5</title>
<path fill="none" stroke="midnightblue" d="M338.332,-280.368C332.82,-262.537 320.073,-221.295 312.648,-197.272"/>
<polygon fill="midnightblue" stroke="midnightblue" points="315.953,-196.112 309.656,-187.591 309.265,-198.179 315.953,-196.112"/>
</g>
<!-- Node13&#45;&gt;Node7 -->
<g id="edge18" class="edge"><title>Node13&#45;&gt;Node7</title>
<path fill="none" stroke="midnightblue" d="M342.67,-280.398C345.957,-263.021 353.189,-222.453 356,-188 357.264,-172.514 357.457,-154.885 357.366,-141.898"/>
<polygon fill="midnightblue" stroke="midnightblue" points="360.866,-141.802 357.233,-131.849 353.866,-141.895 360.866,-141.802"/>
</g>
<!-- Node13&#45;&gt;Node9 -->
<g id="edge17" class="edge"><title>Node13&#45;&gt;Node9</title>
<path fill="none" stroke="midnightblue" d="M311.174,-287.006C270.925,-283.282 197.943,-272.82 143,-244 94.1178,-218.36 51.8772,-166.937 32.0444,-140.135"/>
<polygon fill="midnightblue" stroke="midnightblue" points="34.6863,-137.815 25.9897,-131.764 29.0145,-141.918 34.6863,-137.815"/>
</g>
<!-- Node13&#45;&gt;Node11 -->
<g id="edge33" class="edge"><title>Node13&#45;&gt;Node11</title>
<path fill="none" stroke="midnightblue" d="M370.618,-288.417C403.932,-286.082 457.256,-277.002 487,-244 527.496,-199.069 526.813,-121.213 524.034,-85.6672"/>
<polygon fill="midnightblue" stroke="midnightblue" points="527.518,-85.3412 523.107,-75.7085 520.548,-85.9899 527.518,-85.3412"/>
</g>
<!-- Node14 -->
<g id="node14" class="node"><title>Node14</title>
<g id="a_node14"><a xlink:href="Tileset_8h.html" target="_top" xlink:title="Tileset.h">
<polygon fill="white" stroke="black" points="152,-224.5 152,-243.5 206,-243.5 206,-224.5 152,-224.5"/>
<text text-anchor="middle" x="179" y="-231.5" font-family="Helvetica,sans-Serif" font-size="10.00">Tileset.h</text>
</a>
</g>
</g>
<!-- Node13&#45;&gt;Node14 -->
<g id="edge20" class="edge"><title>Node13&#45;&gt;Node14</title>
<path fill="none" stroke="midnightblue" d="M315.331,-280.444C288.077,-271.359 244.816,-256.939 214.349,-246.783"/>
<polygon fill="midnightblue" stroke="midnightblue" points="215.143,-243.358 204.549,-243.516 212.929,-249.999 215.143,-243.358"/>
</g>
<!-- Node14&#45;&gt;Node9 -->
<g id="edge21" class="edge"><title>Node14&#45;&gt;Node9</title>
<path fill="none" stroke="midnightblue" d="M166.524,-224.368C139.355,-205.573 74.5925,-160.768 41.0073,-137.533"/>
<polygon fill="midnightblue" stroke="midnightblue" points="42.6336,-134.403 32.4185,-131.591 38.651,-140.159 42.6336,-134.403"/>
</g>
<!-- Node15 -->
<g id="node15" class="node"><title>Node15</title>
<g id="a_node15"><a xlink:href="Sprite_8h.html" target="_top" xlink:title="Sprite.h">
<polygon fill="white" stroke="black" points="154,-168.5 154,-187.5 204,-187.5 204,-168.5 154,-168.5"/>
<text text-anchor="middle" x="179" y="-175.5" font-family="Helvetica,sans-Serif" font-size="10.00">Sprite.h</text>
</a>
</g>
</g>
<!-- Node14&#45;&gt;Node15 -->
<g id="edge22" class="edge"><title>Node14&#45;&gt;Node15</title>
<path fill="none" stroke="midnightblue" d="M179,-224.083C179,-217.006 179,-206.861 179,-197.986"/>
<polygon fill="midnightblue" stroke="midnightblue" points="182.5,-197.751 179,-187.751 175.5,-197.751 182.5,-197.751"/>
</g>
<!-- Node15&#45;&gt;Node6 -->
<g id="edge23" class="edge"><title>Node15&#45;&gt;Node6</title>
<path fill="none" stroke="midnightblue" d="M153.937,-170.878C121.346,-161.593 70.5249,-141.815 88,-112 122.907,-52.4442 203.689,-27.7075 256.777,-17.6431"/>
<polygon fill="midnightblue" stroke="midnightblue" points="257.448,-21.0788 266.677,-15.8746 256.217,-14.1879 257.448,-21.0788"/>
</g>
<!-- Node15&#45;&gt;Node8 -->
<g id="edge25" class="edge"><title>Node15&#45;&gt;Node8</title>
<path fill="none" stroke="midnightblue" d="M180.651,-168.083C181.976,-160.927 183.882,-150.635 185.539,-141.691"/>
<polygon fill="midnightblue" stroke="midnightblue" points="189,-142.221 187.379,-131.751 182.117,-140.947 189,-142.221"/>
</g>
<!-- Node15&#45;&gt;Node9 -->
<g id="edge24" class="edge"><title>Node15&#45;&gt;Node9</title>
<path fill="none" stroke="midnightblue" d="M153.806,-168.444C125.641,-158.878 80.0577,-143.397 50.0553,-133.207"/>
<polygon fill="midnightblue" stroke="midnightblue" points="51.12,-129.873 40.5257,-129.971 48.8689,-136.501 51.12,-129.873"/>
</g>
<!-- Node15&#45;&gt;Node10 -->
<g id="edge27" class="edge"><title>Node15&#45;&gt;Node10</title>
<path fill="none" stroke="midnightblue" d="M191.371,-168.324C203.158,-160.058 221.132,-147.453 235.136,-137.632"/>
<polygon fill="midnightblue" stroke="midnightblue" points="237.482,-140.262 243.659,-131.655 233.462,-134.531 237.482,-140.262"/>
</g>
<!-- Node16 -->
<g id="node16" class="node"><title>Node16</title>
<g id="a_node16"><a xlink:href="Color_8h.html" target="_top" xlink:title="Color.h">
<polygon fill="white" stroke="black" points="97,-112.5 97,-131.5 145,-131.5 145,-112.5 97,-112.5"/>
<text text-anchor="middle" x="121" y="-119.5" font-family="Helvetica,sans-Serif" font-size="10.00">Color.h</text>
</a>
</g>
</g>
<!-- Node15&#45;&gt;Node16 -->
<g id="edge26" class="edge"><title>Node15&#45;&gt;Node16</title>
<path fill="none" stroke="midnightblue" d="M169.681,-168.324C161.107,-160.341 148.188,-148.313 137.812,-138.653"/>
<polygon fill="midnightblue" stroke="midnightblue" points="140.192,-136.086 130.488,-131.834 135.422,-141.21 140.192,-136.086"/>
</g>
<!-- Node15&#45;&gt;Node17 -->
<g id="edge28" class="edge"><title>Node15&#45;&gt;Node17</title>
<path fill="none" stroke="midnightblue" d="M204.214,-173.981C275.628,-165.43 480.369,-140.916 577.566,-129.278"/>
<polygon fill="midnightblue" stroke="midnightblue" points="578.238,-132.723 587.751,-128.059 577.406,-125.772 578.238,-132.723"/>
</g>
<!-- Node17&#45;&gt;Node6 -->
<g id="edge29" class="edge"><title>Node17&#45;&gt;Node6</title>
<path fill="none" stroke="midnightblue" d="M622.602,-112.189C610.069,-97.8972 583.164,-69.8681 554,-56 490.474,-25.7918 408.883,-15.7869 357.249,-12.5179"/>
<polygon fill="midnightblue" stroke="midnightblue" points="357.203,-9.0096 347.019,-11.9337 356.803,-15.9982 357.203,-9.0096"/>
</g>
<!-- Node17&#45;&gt;Node11 -->
<g id="edge30" class="edge"><title>Node17&#45;&gt;Node11</title>
<path fill="none" stroke="midnightblue" d="M612.648,-112.324C595.328,-103.664 568.485,-90.2424 548.498,-80.249"/>
<polygon fill="midnightblue" stroke="midnightblue" points="549.819,-76.9962 539.309,-75.6545 546.688,-83.2572 549.819,-76.9962"/>
</g>
<!-- Node18 -->
<g id="node18" class="node"><title>Node18</title>
<polygon fill="white" stroke="#bfbfbf" points="669.5,-56.5 669.5,-75.5 752.5,-75.5 752.5,-56.5 669.5,-56.5"/>
<text text-anchor="middle" x="711" y="-63.5" font-family="Helvetica,sans-Serif" font-size="10.00">unordered_map</text>
</g>
<!-- Node17&#45;&gt;Node18 -->
<g id="edge31" class="edge"><title>Node17&#45;&gt;Node18</title>
<path fill="none" stroke="midnightblue" d="M643.014,-112.324C655.532,-103.979 674.682,-91.2122 689.471,-81.3524"/>
<polygon fill="midnightblue" stroke="midnightblue" points="691.639,-84.1137 698.018,-75.6545 687.756,-78.2894 691.639,-84.1137"/>
</g>
<!-- Node19 -->
<g id="node19" class="node"><title>Node19</title>
<polygon fill="white" stroke="#bfbfbf" points="605,-56.5 605,-75.5 651,-75.5 651,-56.5 605,-56.5"/>
<text text-anchor="middle" x="628" y="-63.5" font-family="Helvetica,sans-Serif" font-size="10.00">cstdint</text>
</g>
<!-- Node17&#45;&gt;Node19 -->
<g id="edge32" class="edge"><title>Node17&#45;&gt;Node19</title>
<path fill="none" stroke="midnightblue" d="M629.67,-112.083C629.408,-105.006 629.032,-94.8611 628.703,-85.9865"/>
<polygon fill="midnightblue" stroke="midnightblue" points="632.192,-85.6147 628.324,-75.7511 625.197,-85.8738 632.192,-85.6147"/>
</g>
<!-- Node20&#45;&gt;Node5 -->
<g id="edge35" class="edge"><title>Node20&#45;&gt;Node5</title>
<path fill="none" stroke="midnightblue" d="M566.43,-227.475C517.201,-218.276 417.887,-199.719 357.43,-188.423"/>
<polygon fill="midnightblue" stroke="midnightblue" points="357.817,-184.935 347.345,-186.538 356.532,-191.816 357.817,-184.935"/>
</g>
<!-- Node20&#45;&gt;Node11 -->
<g id="edge36" class="edge"><title>Node20&#45;&gt;Node11</title>
<path fill="none" stroke="midnightblue" d="M592.021,-224.075C580.323,-197.832 545.87,-120.545 530.076,-85.1165"/>
<polygon fill="midnightblue" stroke="midnightblue" points="533.088,-83.2766 525.82,-75.5681 526.694,-86.1268 533.088,-83.2766"/>
</g>
<!-- Node21 -->
<g id="node21" class="node"><title>Node21</title>
<g id="a_node21"><a xlink:href="ActionManager_8h.html" target="_top" xlink:title="ActionManager.h">
<polygon fill="white" stroke="black" points="588,-168.5 588,-187.5 678,-187.5 678,-168.5 588,-168.5"/>
<text text-anchor="middle" x="633" y="-175.5" font-family="Helvetica,sans-Serif" font-size="10.00">ActionManager.h</text>
</a>
</g>
</g>
<!-- Node20&#45;&gt;Node21 -->
<g id="edge37" class="edge"><title>Node20&#45;&gt;Node21</title>
<path fill="none" stroke="midnightblue" d="M602.11,-224.083C607.282,-216.534 614.846,-205.495 621.194,-196.23"/>
<polygon fill="midnightblue" stroke="midnightblue" points="624.239,-197.979 627.004,-187.751 618.464,-194.022 624.239,-197.979"/>
</g>
<!-- Node21&#45;&gt;Node17 -->
<g id="edge38" class="edge"><title>Node21&#45;&gt;Node17</title>
<path fill="none" stroke="midnightblue" d="M632.505,-168.083C632.111,-161.006 631.548,-150.861 631.055,-141.986"/>
<polygon fill="midnightblue" stroke="midnightblue" points="634.536,-141.542 630.486,-131.751 627.546,-141.93 634.536,-141.542"/>
</g>
<!-- Node23 -->
<g id="node23" class="node"><title>Node23</title>
<polygon fill="white" stroke="#bfbfbf" points="734,-280.5 734,-299.5 788,-299.5 788,-280.5 734,-280.5"/>
<text text-anchor="middle" x="761" y="-287.5" font-family="Helvetica,sans-Serif" font-size="10.00">iostream</text>
</g>
<!-- Node22&#45;&gt;Node23 -->
<g id="edge40" class="edge"><title>Node22&#45;&gt;Node23</title>
<path fill="none" stroke="midnightblue" d="M761,-336.083C761,-329.006 761,-318.861 761,-309.986"/>
<polygon fill="midnightblue" stroke="midnightblue" points="764.5,-309.751 761,-299.751 757.5,-309.751 764.5,-309.751"/>
</g>
<!-- Node24 -->
<g id="node24" class="node"><title>Node24</title>
<polygon fill="white" stroke="#bfbfbf" points="806,-280.5 806,-299.5 854,-299.5 854,-280.5 806,-280.5"/>
<text text-anchor="middle" x="830" y="-287.5" font-family="Helvetica,sans-Serif" font-size="10.00">stdlib.h</text>
</g>
<!-- Node22&#45;&gt;Node24 -->
<g id="edge41" class="edge"><title>Node22&#45;&gt;Node24</title>
<path fill="none" stroke="midnightblue" d="M772.086,-336.324C782.486,-328.185 798.261,-315.839 810.722,-306.087"/>
<polygon fill="midnightblue" stroke="midnightblue" points="812.994,-308.753 818.712,-299.834 808.68,-303.241 812.994,-308.753"/>
</g>
</g>
</svg>
