<?xml version="1.0" encoding="UTF-8" standalone="no"?>
<!DOCTYPE svg PUBLIC "-//W3C//DTD SVG 1.1//EN"
 "http://www.w3.org/Graphics/SVG/1.1/DTD/svg11.dtd">
<!-- Generated by graphviz version 2.38.0 (20140413.2041)
 -->
<!-- Title: Engine/src/DragAndDrop.cpp Pages: 1 -->
<svg width="643pt" height="308pt"
 viewBox="0.00 0.00 643.13 308.00" xmlns="http://www.w3.org/2000/svg" xmlns:xlink="http://www.w3.org/1999/xlink">
<g id="graph0" class="graph" transform="scale(1 1) rotate(0) translate(4 304)">
<title>Engine/src/DragAndDrop.cpp</title>
<polygon fill="white" stroke="none" points="-4,4 -4,-304 639.129,-304 639.129,4 -4,4"/>
<!-- Node0 -->
<g id="node1" class="node"><title>Node0</title>
<polygon fill="#bfbfbf" stroke="black" points="396.129,-280.5 396.129,-299.5 540.129,-299.5 540.129,-280.5 396.129,-280.5"/>
<text text-anchor="middle" x="468.129" y="-287.5" font-family="Helvetica,sans-Serif" font-size="10.00">Engine/src/DragAndDrop.cpp</text>
</g>
<!-- Node1 -->
<g id="node2" class="node"><title>Node1</title>
<g id="a_node2"><a xlink:href="DragAndDrop_8h.html" target="_top" xlink:title="DragAndDrop.h">
<polygon fill="white" stroke="black" points="158.129,-224.5 158.129,-243.5 242.129,-243.5 242.129,-224.5 158.129,-224.5"/>
<text text-anchor="middle" x="200.129" y="-231.5" font-family="Helvetica,sans-Serif" font-size="10.00">DragAndDrop.h</text>
</a>
</g>
</g>
<!-- Node0&#45;&gt;Node1 -->
<g id="edge1" class="edge"><title>Node0&#45;&gt;Node1</title>
<path fill="none" stroke="midnightblue" d="M425.663,-280.444C378.715,-270.984 303.053,-255.738 252.474,-245.547"/>
<polygon fill="midnightblue" stroke="midnightblue" points="252.89,-242.061 242.396,-243.516 251.507,-248.923 252.89,-242.061"/>
</g>
<!-- Node13 -->
<g id="node14" class="node"><title>Node13</title>
<g id="a_node14"><a xlink:href="InputManager_8h.html" target="_top" xlink:title="InputManager.h">
<polygon fill="white" stroke="black" points="372.129,-56.5 372.129,-75.5 456.129,-75.5 456.129,-56.5 372.129,-56.5"/>
<text text-anchor="middle" x="414.129" y="-63.5" font-family="Helvetica,sans-Serif" font-size="10.00">InputManager.h</text>
</a>
</g>
</g>
<!-- Node0&#45;&gt;Node13 -->
<g id="edge21" class="edge"><title>Node0&#45;&gt;Node13</title>
<path fill="none" stroke="midnightblue" d="M470.578,-280.339C477.627,-253.665 495.761,-170.995 468.129,-112 462.084,-99.0941 450.317,-88.5985 439.306,-80.9999"/>
<polygon fill="midnightblue" stroke="midnightblue" points="441.072,-77.9748 430.762,-75.5364 437.301,-83.8723 441.072,-77.9748"/>
</g>
<!-- Node16 -->
<g id="node17" class="node"><title>Node16</title>
<g id="a_node17"><a xlink:href="Camera_8h.html" target="_top" xlink:title="Camera.h">
<polygon fill="white" stroke="black" points="347.629,-168.5 347.629,-187.5 406.629,-187.5 406.629,-168.5 347.629,-168.5"/>
<text text-anchor="middle" x="377.129" y="-175.5" font-family="Helvetica,sans-Serif" font-size="10.00">Camera.h</text>
</a>
</g>
</g>
<!-- Node0&#45;&gt;Node16 -->
<g id="edge25" class="edge"><title>Node0&#45;&gt;Node16</title>
<path fill="none" stroke="midnightblue" d="M460.988,-280.368C445.838,-262.055 410.26,-219.049 390.665,-195.362"/>
<polygon fill="midnightblue" stroke="midnightblue" points="393.307,-193.066 384.236,-187.591 387.914,-197.528 393.307,-193.066"/>
</g>
<!-- Node18 -->
<g id="node19" class="node"><title>Node18</title>
<g id="a_node19"><a xlink:href="Error_8h.html" target="_top" xlink:title="Error.h">
<polygon fill="white" stroke="black" points="519.129,-224.5 519.129,-243.5 565.129,-243.5 565.129,-224.5 519.129,-224.5"/>
<text text-anchor="middle" x="542.129" y="-231.5" font-family="Helvetica,sans-Serif" font-size="10.00">Error.h</text>
</a>
</g>
</g>
<!-- Node0&#45;&gt;Node18 -->
<g id="edge30" class="edge"><title>Node0&#45;&gt;Node18</title>
<path fill="none" stroke="midnightblue" d="M480.018,-280.324C491.279,-272.107 508.415,-259.602 521.838,-249.807"/>
<polygon fill="midnightblue" stroke="midnightblue" points="524.008,-252.556 530.023,-243.834 519.882,-246.901 524.008,-252.556"/>
</g>
<!-- Node2 -->
<g id="node3" class="node"><title>Node2</title>
<g id="a_node3"><a xlink:href="Component_8h.html" target="_top" xlink:title="Component.h">
<polygon fill="white" stroke="black" points="162.629,-168.5 162.629,-187.5 237.629,-187.5 237.629,-168.5 162.629,-168.5"/>
<text text-anchor="middle" x="200.129" y="-175.5" font-family="Helvetica,sans-Serif" font-size="10.00">Component.h</text>
</a>
</g>
</g>
<!-- Node1&#45;&gt;Node2 -->
<g id="edge2" class="edge"><title>Node1&#45;&gt;Node2</title>
<path fill="none" stroke="midnightblue" d="M200.129,-224.083C200.129,-217.006 200.129,-206.861 200.129,-197.986"/>
<polygon fill="midnightblue" stroke="midnightblue" points="203.629,-197.751 200.129,-187.751 196.629,-197.751 203.629,-197.751"/>
</g>
<!-- Node10 -->
<g id="node11" class="node"><title>Node10</title>
<g id="a_node11"><a xlink:href="TileMap_8h.html" target="_top" xlink:title="TileMap.h">
<polygon fill="white" stroke="black" points="84.6288,-168.5 84.6288,-187.5 143.629,-187.5 143.629,-168.5 84.6288,-168.5"/>
<text text-anchor="middle" x="114.129" y="-175.5" font-family="Helvetica,sans-Serif" font-size="10.00">TileMap.h</text>
</a>
</g>
</g>
<!-- Node1&#45;&gt;Node10 -->
<g id="edge11" class="edge"><title>Node1&#45;&gt;Node10</title>
<path fill="none" stroke="midnightblue" d="M186.311,-224.324C172.896,-215.9 152.305,-202.971 136.543,-193.074"/>
<polygon fill="midnightblue" stroke="midnightblue" points="138.242,-190.008 127.912,-187.655 134.52,-195.936 138.242,-190.008"/>
</g>
<!-- Node3 -->
<g id="node4" class="node"><title>Node3</title>
<g id="a_node4"><a xlink:href="GameObject_8h.html" target="_top" xlink:title="GameObject.h">
<polygon fill="white" stroke="black" points="160.129,-112.5 160.129,-131.5 240.129,-131.5 240.129,-112.5 160.129,-112.5"/>
<text text-anchor="middle" x="200.129" y="-119.5" font-family="Helvetica,sans-Serif" font-size="10.00">GameObject.h</text>
</a>
</g>
</g>
<!-- Node2&#45;&gt;Node3 -->
<g id="edge3" class="edge"><title>Node2&#45;&gt;Node3</title>
<path fill="none" stroke="midnightblue" d="M194.962,-168.083C193.453,-160.927 193.023,-150.635 193.671,-141.691"/>
<polygon fill="midnightblue" stroke="midnightblue" points="197.144,-142.126 194.998,-131.751 190.206,-141.2 197.144,-142.126"/>
</g>
<!-- Node3&#45;&gt;Node2 -->
<g id="edge10" class="edge"><title>Node3&#45;&gt;Node2</title>
<path fill="none" stroke="midnightblue" d="M205.26,-131.751C206.786,-138.858 207.233,-149.136 206.601,-158.101"/>
<polygon fill="midnightblue" stroke="midnightblue" points="203.122,-157.713 205.295,-168.083 210.063,-158.622 203.122,-157.713"/>
</g>
<!-- Node4 -->
<g id="node5" class="node"><title>Node4</title>
<polygon fill="white" stroke="#bfbfbf" points="91.1288,-56.5 91.1288,-75.5 135.129,-75.5 135.129,-56.5 91.1288,-56.5"/>
<text text-anchor="middle" x="113.129" y="-63.5" font-family="Helvetica,sans-Serif" font-size="10.00">vector</text>
</g>
<!-- Node3&#45;&gt;Node4 -->
<g id="edge4" class="edge"><title>Node3&#45;&gt;Node4</title>
<path fill="none" stroke="midnightblue" d="M186.151,-112.324C172.579,-103.9 151.749,-90.9709 135.804,-81.0741"/>
<polygon fill="midnightblue" stroke="midnightblue" points="137.414,-77.9544 127.072,-75.6545 133.723,-83.9019 137.414,-77.9544"/>
</g>
<!-- Node5 -->
<g id="node6" class="node"><title>Node5</title>
<polygon fill="white" stroke="#bfbfbf" points="97.1288,-0.5 97.1288,-19.5 149.129,-19.5 149.129,-0.5 97.1288,-0.5"/>
<text text-anchor="middle" x="123.129" y="-7.5" font-family="Helvetica,sans-Serif" font-size="10.00">memory</text>
</g>
<!-- Node3&#45;&gt;Node5 -->
<g id="edge5" class="edge"><title>Node3&#45;&gt;Node5</title>
<path fill="none" stroke="midnightblue" d="M198.594,-112.328C195.949,-99.1905 189.575,-73.8809 177.129,-56 168.767,-43.9871 156.387,-33.353 145.59,-25.4426"/>
<polygon fill="midnightblue" stroke="midnightblue" points="147.58,-22.5633 137.377,-19.7082 143.573,-28.3027 147.58,-22.5633"/>
</g>
<!-- Node6 -->
<g id="node7" class="node"><title>Node6</title>
<g id="a_node7"><a xlink:href="Rect_8h.html" target="_top" xlink:title="Rect.h">
<polygon fill="white" stroke="black" points="229.129,-56.5 229.129,-75.5 275.129,-75.5 275.129,-56.5 229.129,-56.5"/>
<text text-anchor="middle" x="252.129" y="-63.5" font-family="Helvetica,sans-Serif" font-size="10.00">Rect.h</text>
</a>
</g>
</g>
<!-- Node3&#45;&gt;Node6 -->
<g id="edge6" class="edge"><title>Node3&#45;&gt;Node6</title>
<path fill="none" stroke="midnightblue" d="M208.716,-112.083C216.288,-104.22 227.507,-92.5688 236.643,-83.0813"/>
<polygon fill="midnightblue" stroke="midnightblue" points="239.287,-85.3821 243.702,-75.7511 234.244,-80.5266 239.287,-85.3821"/>
</g>
<!-- Node9 -->
<g id="node10" class="node"><title>Node9</title>
<polygon fill="white" stroke="#bfbfbf" points="0.628789,-0.5 0.628789,-19.5 41.6288,-19.5 41.6288,-0.5 0.628789,-0.5"/>
<text text-anchor="middle" x="21.1288" y="-7.5" font-family="Helvetica,sans-Serif" font-size="10.00">string</text>
</g>
<!-- Node3&#45;&gt;Node9 -->
<g id="edge9" class="edge"><title>Node3&#45;&gt;Node9</title>
<path fill="none" stroke="midnightblue" d="M194.68,-112.167C185.737,-98.3498 166.668,-71.5923 144.129,-56 115.734,-36.3572 77.7502,-24.1846 51.5423,-17.5311"/>
<polygon fill="midnightblue" stroke="midnightblue" points="52.3206,-14.1185 41.778,-15.1686 50.6744,-20.9222 52.3206,-14.1185"/>
</g>
<!-- Node7 -->
<g id="node8" class="node"><title>Node7</title>
<g id="a_node8"><a xlink:href="Vec2_8h.html" target="_top" xlink:title="Vec2.h">
<polygon fill="white" stroke="black" points="299.629,-0.5 299.629,-19.5 346.629,-19.5 346.629,-0.5 299.629,-0.5"/>
<text text-anchor="middle" x="323.129" y="-7.5" font-family="Helvetica,sans-Serif" font-size="10.00">Vec2.h</text>
</a>
</g>
</g>
<!-- Node6&#45;&gt;Node7 -->
<g id="edge7" class="edge"><title>Node6&#45;&gt;Node7</title>
<path fill="none" stroke="midnightblue" d="M263.536,-56.324C274.238,-48.1849 290.469,-35.8395 303.292,-26.0874"/>
<polygon fill="midnightblue" stroke="midnightblue" points="305.673,-28.6734 311.514,-19.8339 301.436,-23.1018 305.673,-28.6734"/>
</g>
<!-- Node8 -->
<g id="node9" class="node"><title>Node8</title>
<polygon fill="white" stroke="#bfbfbf" points="230.129,-0.5 230.129,-19.5 274.129,-19.5 274.129,-0.5 230.129,-0.5"/>
<text text-anchor="middle" x="252.129" y="-7.5" font-family="Helvetica,sans-Serif" font-size="10.00">cmath</text>
</g>
<!-- Node6&#45;&gt;Node8 -->
<g id="edge8" class="edge"><title>Node6&#45;&gt;Node8</title>
<path fill="none" stroke="midnightblue" d="M252.129,-56.083C252.129,-49.0059 252.129,-38.8611 252.129,-29.9865"/>
<polygon fill="midnightblue" stroke="midnightblue" points="255.629,-29.751 252.129,-19.7511 248.629,-29.7511 255.629,-29.751"/>
</g>
<!-- Node10&#45;&gt;Node3 -->
<g id="edge20" class="edge"><title>Node10&#45;&gt;Node3</title>
<path fill="none" stroke="midnightblue" d="M127.946,-168.324C141.362,-159.9 161.953,-146.971 177.714,-137.074"/>
<polygon fill="midnightblue" stroke="midnightblue" points="179.738,-139.936 186.346,-131.655 176.016,-134.008 179.738,-139.936"/>
</g>
<!-- Node10&#45;&gt;Node4 -->
<g id="edge13" class="edge"><title>Node10&#45;&gt;Node4</title>
<path fill="none" stroke="midnightblue" d="M114.05,-168.368C113.889,-150.617 113.517,-109.666 113.298,-85.5974"/>
<polygon fill="midnightblue" stroke="midnightblue" points="116.798,-85.5592 113.207,-75.5914 109.798,-85.6229 116.798,-85.5592"/>
</g>
<!-- Node10&#45;&gt;Node7 -->
<g id="edge19" class="edge"><title>Node10&#45;&gt;Node7</title>
<path fill="none" stroke="midnightblue" d="M143.709,-169.654C178.193,-160.664 232.581,-145.029 249.129,-132 283.987,-104.554 306.434,-55.8044 316.673,-29.3338"/>
<polygon fill="midnightblue" stroke="midnightblue" points="320.022,-30.3685 320.21,-19.7754 313.457,-27.939 320.022,-30.3685"/>
</g>
<!-- Node10&#45;&gt;Node9 -->
<g id="edge12" class="edge"><title>Node10&#45;&gt;Node9</title>
<path fill="none" stroke="midnightblue" d="M84.2664,-172.347C60.5581,-166.958 28.7278,-155.583 12.1288,-132 -9.51336,-101.252 3.40076,-54.5552 13.2033,-29.0999"/>
<polygon fill="midnightblue" stroke="midnightblue" points="16.5436,-30.1794 17.1041,-19.5994 10.0681,-27.5207 16.5436,-30.1794"/>
</g>
<!-- Node11 -->
<g id="node12" class="node"><title>Node11</title>
<g id="a_node12"><a xlink:href="Tileset_8h.html" target="_top" xlink:title="Tileset.h">
<polygon fill="white" stroke="black" points="21.1288,-112.5 21.1288,-131.5 75.1288,-131.5 75.1288,-112.5 21.1288,-112.5"/>
<text text-anchor="middle" x="48.1288" y="-119.5" font-family="Helvetica,sans-Serif" font-size="10.00">Tileset.h</text>
</a>
</g>
</g>
<!-- Node10&#45;&gt;Node11 -->
<g id="edge14" class="edge"><title>Node10&#45;&gt;Node11</title>
<path fill="none" stroke="midnightblue" d="M103.525,-168.324C93.6726,-160.263 78.7779,-148.077 66.9137,-138.369"/>
<polygon fill="midnightblue" stroke="midnightblue" points="68.8817,-135.457 58.9258,-131.834 64.449,-140.875 68.8817,-135.457"/>
</g>
<!-- Node11&#45;&gt;Node9 -->
<g id="edge15" class="edge"><title>Node11&#45;&gt;Node9</title>
<path fill="none" stroke="midnightblue" d="M38.8409,-112.395C30.5481,-104.025 18.9849,-90.4826 14.1288,-76 9.05467,-60.8671 11.6674,-42.7461 15.053,-29.4861"/>
<polygon fill="midnightblue" stroke="midnightblue" points="18.478,-30.2438 17.927,-19.6633 11.7597,-28.2781 18.478,-30.2438"/>
</g>
<!-- Node12 -->
<g id="node13" class="node"><title>Node12</title>
<g id="a_node13"><a xlink:href="Sprite_8h.html" target="_top" xlink:title="Sprite.h">
<polygon fill="white" stroke="black" points="23.1288,-56.5 23.1288,-75.5 73.1288,-75.5 73.1288,-56.5 23.1288,-56.5"/>
<text text-anchor="middle" x="48.1288" y="-63.5" font-family="Helvetica,sans-Serif" font-size="10.00">Sprite.h</text>
</a>
</g>
</g>
<!-- Node11&#45;&gt;Node12 -->
<g id="edge16" class="edge"><title>Node11&#45;&gt;Node12</title>
<path fill="none" stroke="midnightblue" d="M48.1288,-112.083C48.1288,-105.006 48.1288,-94.8611 48.1288,-85.9865"/>
<polygon fill="midnightblue" stroke="midnightblue" points="51.6289,-85.751 48.1288,-75.7511 44.6289,-85.7511 51.6289,-85.751"/>
</g>
<!-- Node12&#45;&gt;Node5 -->
<g id="edge18" class="edge"><title>Node12&#45;&gt;Node5</title>
<path fill="none" stroke="midnightblue" d="M60.1788,-56.324C71.5918,-48.1066 88.9598,-35.6017 102.564,-25.8069"/>
<polygon fill="midnightblue" stroke="midnightblue" points="104.789,-28.5174 110.859,-19.8339 100.699,-22.8366 104.789,-28.5174"/>
</g>
<!-- Node12&#45;&gt;Node9 -->
<g id="edge17" class="edge"><title>Node12&#45;&gt;Node9</title>
<path fill="none" stroke="midnightblue" d="M43.6703,-56.083C39.9745,-48.6913 34.6054,-37.9533 30.0343,-28.8111"/>
<polygon fill="midnightblue" stroke="midnightblue" points="33.107,-27.1301 25.5043,-19.7511 26.846,-30.2606 33.107,-27.1301"/>
</g>
<!-- Node13&#45;&gt;Node7 -->
<g id="edge22" class="edge"><title>Node13&#45;&gt;Node7</title>
<path fill="none" stroke="midnightblue" d="M399.508,-56.324C385.18,-47.8215 363.116,-34.7288 346.38,-24.7975"/>
<polygon fill="midnightblue" stroke="midnightblue" points="348.099,-21.7478 337.713,-19.6545 344.527,-27.7677 348.099,-21.7478"/>
</g>
<!-- Node14 -->
<g id="node15" class="node"><title>Node14</title>
<polygon fill="white" stroke="#bfbfbf" points="368.629,-0.5 368.629,-19.5 451.629,-19.5 451.629,-0.5 368.629,-0.5"/>
<text text-anchor="middle" x="410.129" y="-7.5" font-family="Helvetica,sans-Serif" font-size="10.00">unordered_map</text>
</g>
<!-- Node13&#45;&gt;Node14 -->
<g id="edge23" class="edge"><title>Node13&#45;&gt;Node14</title>
<path fill="none" stroke="midnightblue" d="M413.468,-56.083C412.944,-49.0059 412.193,-38.8611 411.535,-29.9865"/>
<polygon fill="midnightblue" stroke="midnightblue" points="415.006,-29.4652 410.777,-19.7511 408.025,-29.9823 415.006,-29.4652"/>
</g>
<!-- Node15 -->
<g id="node16" class="node"><title>Node15</title>
<polygon fill="white" stroke="#bfbfbf" points="470.129,-0.5 470.129,-19.5 516.129,-19.5 516.129,-0.5 470.129,-0.5"/>
<text text-anchor="middle" x="493.129" y="-7.5" font-family="Helvetica,sans-Serif" font-size="10.00">cstdint</text>
</g>
<!-- Node13&#45;&gt;Node15 -->
<g id="edge24" class="edge"><title>Node13&#45;&gt;Node15</title>
<path fill="none" stroke="midnightblue" d="M426.822,-56.324C439.03,-47.979 457.707,-35.2122 472.132,-25.3524"/>
<polygon fill="midnightblue" stroke="midnightblue" points="474.187,-28.1871 480.468,-19.6545 470.237,-22.4082 474.187,-28.1871"/>
</g>
<!-- Node16&#45;&gt;Node3 -->
<g id="edge26" class="edge"><title>Node16&#45;&gt;Node3</title>
<path fill="none" stroke="midnightblue" d="M349.083,-168.444C319.047,-159.28 271.216,-144.688 237.886,-134.519"/>
<polygon fill="midnightblue" stroke="midnightblue" points="238.63,-131.087 228.044,-131.516 236.587,-137.782 238.63,-131.087"/>
</g>
<!-- Node16&#45;&gt;Node7 -->
<g id="edge27" class="edge"><title>Node16&#45;&gt;Node7</title>
<path fill="none" stroke="midnightblue" d="M373.704,-168.433C370.146,-159.423 364.5,-144.804 360.129,-132 347.814,-95.9269 335.195,-53.1646 328.341,-29.354"/>
<polygon fill="midnightblue" stroke="midnightblue" points="331.658,-28.2215 325.543,-19.5692 324.928,-30.1461 331.658,-28.2215"/>
</g>
<!-- Node17 -->
<g id="node18" class="node"><title>Node17</title>
<g id="a_node18"><a xlink:href="ActionManager_8h.html" target="_top" xlink:title="ActionManager.h">
<polygon fill="white" stroke="black" points="369.129,-112.5 369.129,-131.5 459.129,-131.5 459.129,-112.5 369.129,-112.5"/>
<text text-anchor="middle" x="414.129" y="-119.5" font-family="Helvetica,sans-Serif" font-size="10.00">ActionManager.h</text>
</a>
</g>
</g>
<!-- Node16&#45;&gt;Node17 -->
<g id="edge28" class="edge"><title>Node16&#45;&gt;Node17</title>
<path fill="none" stroke="midnightblue" d="M383.239,-168.083C388.411,-160.534 395.975,-149.495 402.323,-140.23"/>
<polygon fill="midnightblue" stroke="midnightblue" points="405.368,-141.979 408.133,-131.751 399.593,-138.022 405.368,-141.979"/>
</g>
<!-- Node17&#45;&gt;Node13 -->
<g id="edge29" class="edge"><title>Node17&#45;&gt;Node13</title>
<path fill="none" stroke="midnightblue" d="M414.129,-112.083C414.129,-105.006 414.129,-94.8611 414.129,-85.9865"/>
<polygon fill="midnightblue" stroke="midnightblue" points="417.629,-85.751 414.129,-75.7511 410.629,-85.7511 417.629,-85.751"/>
</g>
<!-- Node19 -->
<g id="node20" class="node"><title>Node19</title>
<polygon fill="white" stroke="#bfbfbf" points="515.129,-168.5 515.129,-187.5 569.129,-187.5 569.129,-168.5 515.129,-168.5"/>
<text text-anchor="middle" x="542.129" y="-175.5" font-family="Helvetica,sans-Serif" font-size="10.00">iostream</text>
</g>
<!-- Node18&#45;&gt;Node19 -->
<g id="edge31" class="edge"><title>Node18&#45;&gt;Node19</title>
<path fill="none" stroke="midnightblue" d="M542.129,-224.083C542.129,-217.006 542.129,-206.861 542.129,-197.986"/>
<polygon fill="midnightblue" stroke="midnightblue" points="545.629,-197.751 542.129,-187.751 538.629,-197.751 545.629,-197.751"/>
</g>
<!-- Node20 -->
<g id="node21" class="node"><title>Node20</title>
<polygon fill="white" stroke="#bfbfbf" points="587.129,-168.5 587.129,-187.5 635.129,-187.5 635.129,-168.5 587.129,-168.5"/>
<text text-anchor="middle" x="611.129" y="-175.5" font-family="Helvetica,sans-Serif" font-size="10.00">stdlib.h</text>
</g>
<!-- Node18&#45;&gt;Node20 -->
<g id="edge32" class="edge"><title>Node18&#45;&gt;Node20</title>
<path fill="none" stroke="midnightblue" d="M553.215,-224.324C563.615,-216.185 579.389,-203.839 591.85,-194.087"/>
<polygon fill="midnightblue" stroke="midnightblue" points="594.123,-196.753 599.841,-187.834 589.809,-191.241 594.123,-196.753"/>
</g>
</g>
</svg>
