<?xml version="1.0" encoding="UTF-8" standalone="no"?>
<!DOCTYPE svg PUBLIC "-//W3C//DTD SVG 1.1//EN"
 "http://www.w3.org/Graphics/SVG/1.1/DTD/svg11.dtd">
<!-- Generated by graphviz version 2.38.0 (20140413.2041)
 -->
<!-- Title: Engine/include/DragAndDrop.h Pages: 1 -->
<svg width="504pt" height="252pt"
 viewBox="0.00 0.00 503.50 252.00" xmlns="http://www.w3.org/2000/svg" xmlns:xlink="http://www.w3.org/1999/xlink">
<g id="graph0" class="graph" transform="scale(1 1) rotate(0) translate(4 248)">
<title>Engine/include/DragAndDrop.h</title>
<polygon fill="white" stroke="none" points="-4,4 -4,-248 499.5,-248 499.5,4 -4,4"/>
<!-- Node0 -->
<g id="node1" class="node"><title>Node0</title>
<polygon fill="#bfbfbf" stroke="black" points="117,-224.5 117,-243.5 268,-243.5 268,-224.5 117,-224.5"/>
<text text-anchor="middle" x="192.5" y="-231.5" font-family="Helvetica,sans-Serif" font-size="10.00">Engine/include/DragAndDrop.h</text>
</g>
<!-- Node1 -->
<g id="node2" class="node"><title>Node1</title>
<g id="a_node2"><a xlink:href="Component_8h.html" target="_top" xlink:title="Component.h">
<polygon fill="white" stroke="black" points="108,-168.5 108,-187.5 183,-187.5 183,-168.5 108,-168.5"/>
<text text-anchor="middle" x="145.5" y="-175.5" font-family="Helvetica,sans-Serif" font-size="10.00">Component.h</text>
</a>
</g>
</g>
<!-- Node0&#45;&gt;Node1 -->
<g id="edge1" class="edge"><title>Node0&#45;&gt;Node1</title>
<path fill="none" stroke="midnightblue" d="M184.739,-224.083C177.963,-216.298 167.957,-204.801 159.745,-195.367"/>
<polygon fill="midnightblue" stroke="midnightblue" points="162.322,-192.996 153.117,-187.751 157.042,-197.592 162.322,-192.996"/>
</g>
<!-- Node10 -->
<g id="node11" class="node"><title>Node10</title>
<g id="a_node11"><a xlink:href="TileMap_8h.html" target="_top" xlink:title="TileMap.h">
<polygon fill="white" stroke="black" points="211,-168.5 211,-187.5 270,-187.5 270,-168.5 211,-168.5"/>
<text text-anchor="middle" x="240.5" y="-175.5" font-family="Helvetica,sans-Serif" font-size="10.00">TileMap.h</text>
</a>
</g>
</g>
<!-- Node0&#45;&gt;Node10 -->
<g id="edge12" class="edge"><title>Node0&#45;&gt;Node10</title>
<path fill="none" stroke="midnightblue" d="M200.426,-224.083C207.346,-216.298 217.565,-204.801 225.952,-195.367"/>
<polygon fill="midnightblue" stroke="midnightblue" points="228.694,-197.55 232.721,-187.751 223.462,-192.9 228.694,-197.55"/>
</g>
<!-- Node2 -->
<g id="node3" class="node"><title>Node2</title>
<g id="a_node3"><a xlink:href="ComponentType_8h.html" target="_top" xlink:title="ComponentType.h">
<polygon fill="white" stroke="black" points="0,-56.5 0,-75.5 97,-75.5 97,-56.5 0,-56.5"/>
<text text-anchor="middle" x="48.5" y="-63.5" font-family="Helvetica,sans-Serif" font-size="10.00">ComponentType.h</text>
</a>
</g>
</g>
<!-- Node1&#45;&gt;Node2 -->
<g id="edge2" class="edge"><title>Node1&#45;&gt;Node2</title>
<path fill="none" stroke="midnightblue" d="M134.818,-168.233C124.503,-159.534 108.697,-145.574 96.5,-132 82.7878,-116.739 69.0771,-97.701 59.8414,-84.182"/>
<polygon fill="midnightblue" stroke="midnightblue" points="62.702,-82.1638 54.2173,-75.8187 56.8933,-86.07 62.702,-82.1638"/>
</g>
<!-- Node3 -->
<g id="node4" class="node"><title>Node3</title>
<g id="a_node4"><a xlink:href="GameObject_8h.html" target="_top" xlink:title="GameObject.h">
<polygon fill="white" stroke="black" points="105.5,-112.5 105.5,-131.5 185.5,-131.5 185.5,-112.5 105.5,-112.5"/>
<text text-anchor="middle" x="145.5" y="-119.5" font-family="Helvetica,sans-Serif" font-size="10.00">GameObject.h</text>
</a>
</g>
</g>
<!-- Node1&#45;&gt;Node3 -->
<g id="edge3" class="edge"><title>Node1&#45;&gt;Node3</title>
<path fill="none" stroke="midnightblue" d="M140.334,-168.083C138.824,-160.927 138.394,-150.635 139.042,-141.691"/>
<polygon fill="midnightblue" stroke="midnightblue" points="142.515,-142.126 140.369,-131.751 135.577,-141.2 142.515,-142.126"/>
</g>
<!-- Node3&#45;&gt;Node1 -->
<g id="edge11" class="edge"><title>Node3&#45;&gt;Node1</title>
<path fill="none" stroke="midnightblue" d="M150.631,-131.751C152.157,-138.858 152.604,-149.136 151.972,-158.101"/>
<polygon fill="midnightblue" stroke="midnightblue" points="148.493,-157.713 150.666,-168.083 155.434,-158.622 148.493,-157.713"/>
</g>
<!-- Node3&#45;&gt;Node2 -->
<g id="edge10" class="edge"><title>Node3&#45;&gt;Node2</title>
<path fill="none" stroke="midnightblue" d="M129.915,-112.324C114.501,-103.743 90.6878,-90.486 72.7903,-80.5224"/>
<polygon fill="midnightblue" stroke="midnightblue" points="74.4858,-77.4606 64.0461,-75.6545 71.0809,-83.5767 74.4858,-77.4606"/>
</g>
<!-- Node4 -->
<g id="node5" class="node"><title>Node4</title>
<polygon fill="white" stroke="#bfbfbf" points="179.5,-56.5 179.5,-75.5 223.5,-75.5 223.5,-56.5 179.5,-56.5"/>
<text text-anchor="middle" x="201.5" y="-63.5" font-family="Helvetica,sans-Serif" font-size="10.00">vector</text>
</g>
<!-- Node3&#45;&gt;Node4 -->
<g id="edge4" class="edge"><title>Node3&#45;&gt;Node4</title>
<path fill="none" stroke="midnightblue" d="M154.497,-112.324C162.694,-104.42 175.006,-92.5482 184.972,-82.9377"/>
<polygon fill="midnightblue" stroke="midnightblue" points="187.57,-85.2947 192.339,-75.8339 182.711,-80.2558 187.57,-85.2947"/>
</g>
<!-- Node5 -->
<g id="node6" class="node"><title>Node5</title>
<polygon fill="white" stroke="#bfbfbf" points="377.5,-0.5 377.5,-19.5 429.5,-19.5 429.5,-0.5 377.5,-0.5"/>
<text text-anchor="middle" x="403.5" y="-7.5" font-family="Helvetica,sans-Serif" font-size="10.00">memory</text>
</g>
<!-- Node3&#45;&gt;Node5 -->
<g id="edge5" class="edge"><title>Node3&#45;&gt;Node5</title>
<path fill="none" stroke="midnightblue" d="M168.987,-112.476C192.738,-103.738 230.422,-89.546 262.5,-76 302.705,-59.0221 348.455,-37.5194 376.653,-24.0068"/>
<polygon fill="midnightblue" stroke="midnightblue" points="378.362,-27.0688 385.858,-19.5809 375.329,-20.7602 378.362,-27.0688"/>
</g>
<!-- Node6 -->
<g id="node7" class="node"><title>Node6</title>
<g id="a_node7"><a xlink:href="Rect_8h.html" target="_top" xlink:title="Rect.h">
<polygon fill="white" stroke="black" points="115.5,-56.5 115.5,-75.5 161.5,-75.5 161.5,-56.5 115.5,-56.5"/>
<text text-anchor="middle" x="138.5" y="-63.5" font-family="Helvetica,sans-Serif" font-size="10.00">Rect.h</text>
</a>
</g>
</g>
<!-- Node3&#45;&gt;Node6 -->
<g id="edge6" class="edge"><title>Node3&#45;&gt;Node6</title>
<path fill="none" stroke="midnightblue" d="M144.344,-112.083C143.416,-104.927 142.082,-94.6353 140.923,-85.6911"/>
<polygon fill="midnightblue" stroke="midnightblue" points="144.391,-85.2181 139.634,-75.7511 137.449,-86.1181 144.391,-85.2181"/>
</g>
<!-- Node9 -->
<g id="node10" class="node"><title>Node9</title>
<polygon fill="white" stroke="#bfbfbf" points="312,-0.5 312,-19.5 353,-19.5 353,-0.5 312,-0.5"/>
<text text-anchor="middle" x="332.5" y="-7.5" font-family="Helvetica,sans-Serif" font-size="10.00">string</text>
</g>
<!-- Node3&#45;&gt;Node9 -->
<g id="edge9" class="edge"><title>Node3&#45;&gt;Node9</title>
<path fill="none" stroke="midnightblue" d="M163.44,-112.37C181.228,-103.662 209.129,-89.5953 232.5,-76 260.593,-59.6578 291.83,-38.9201 311.794,-25.3204"/>
<polygon fill="midnightblue" stroke="midnightblue" points="313.85,-28.1546 320.122,-19.6156 309.894,-22.3797 313.85,-28.1546"/>
</g>
<!-- Node7 -->
<g id="node8" class="node"><title>Node7</title>
<g id="a_node8"><a xlink:href="Vec2_8h.html" target="_top" xlink:title="Vec2.h">
<polygon fill="white" stroke="black" points="203,-0.5 203,-19.5 250,-19.5 250,-0.5 203,-0.5"/>
<text text-anchor="middle" x="226.5" y="-7.5" font-family="Helvetica,sans-Serif" font-size="10.00">Vec2.h</text>
</a>
</g>
</g>
<!-- Node6&#45;&gt;Node7 -->
<g id="edge7" class="edge"><title>Node6&#45;&gt;Node7</title>
<path fill="none" stroke="midnightblue" d="M152.639,-56.324C166.366,-47.9002 187.436,-34.9709 203.564,-25.0741"/>
<polygon fill="midnightblue" stroke="midnightblue" points="205.704,-27.8678 212.396,-19.6545 202.043,-21.9016 205.704,-27.8678"/>
</g>
<!-- Node8 -->
<g id="node9" class="node"><title>Node8</title>
<polygon fill="white" stroke="#bfbfbf" points="116.5,-0.5 116.5,-19.5 160.5,-19.5 160.5,-0.5 116.5,-0.5"/>
<text text-anchor="middle" x="138.5" y="-7.5" font-family="Helvetica,sans-Serif" font-size="10.00">cmath</text>
</g>
<!-- Node6&#45;&gt;Node8 -->
<g id="edge8" class="edge"><title>Node6&#45;&gt;Node8</title>
<path fill="none" stroke="midnightblue" d="M138.5,-56.083C138.5,-49.0059 138.5,-38.8611 138.5,-29.9865"/>
<polygon fill="midnightblue" stroke="midnightblue" points="142,-29.751 138.5,-19.7511 135,-29.7511 142,-29.751"/>
</g>
<!-- Node10&#45;&gt;Node3 -->
<g id="edge22" class="edge"><title>Node10&#45;&gt;Node3</title>
<path fill="none" stroke="midnightblue" d="M225.237,-168.324C210.279,-159.822 187.245,-146.729 169.773,-136.797"/>
<polygon fill="midnightblue" stroke="midnightblue" points="171.149,-133.553 160.726,-131.655 167.69,-139.639 171.149,-133.553"/>
</g>
<!-- Node10&#45;&gt;Node4 -->
<g id="edge14" class="edge"><title>Node10&#45;&gt;Node4</title>
<path fill="none" stroke="midnightblue" d="M237.44,-168.368C231.118,-150.537 216.496,-109.295 207.978,-85.2717"/>
<polygon fill="midnightblue" stroke="midnightblue" points="211.187,-83.847 204.546,-75.5914 204.589,-86.1862 211.187,-83.847"/>
</g>
<!-- Node10&#45;&gt;Node7 -->
<g id="edge21" class="edge"><title>Node10&#45;&gt;Node7</title>
<path fill="none" stroke="midnightblue" d="M240.132,-168.475C239.234,-148.686 236.694,-98.1077 232.5,-56 231.64,-47.3643 230.41,-37.8324 229.287,-29.7727"/>
<polygon fill="midnightblue" stroke="midnightblue" points="232.712,-29.005 227.821,-19.6069 225.784,-30.0041 232.712,-29.005"/>
</g>
<!-- Node10&#45;&gt;Node9 -->
<g id="edge13" class="edge"><title>Node10&#45;&gt;Node9</title>
<path fill="none" stroke="midnightblue" d="M245.446,-168.075C260.053,-141.719 303.194,-63.878 322.712,-28.6608"/>
<polygon fill="midnightblue" stroke="midnightblue" points="325.965,-30.0113 327.751,-19.5681 319.843,-26.618 325.965,-30.0113"/>
</g>
<!-- Node11 -->
<g id="node12" class="node"><title>Node11</title>
<g id="a_node12"><a xlink:href="Tileset_8h.html" target="_top" xlink:title="Tileset.h">
<polygon fill="white" stroke="black" points="355.5,-112.5 355.5,-131.5 409.5,-131.5 409.5,-112.5 355.5,-112.5"/>
<text text-anchor="middle" x="382.5" y="-119.5" font-family="Helvetica,sans-Serif" font-size="10.00">Tileset.h</text>
</a>
</g>
</g>
<!-- Node10&#45;&gt;Node11 -->
<g id="edge15" class="edge"><title>Node10&#45;&gt;Node11</title>
<path fill="none" stroke="midnightblue" d="M263,-168.444C286.577,-159.478 323.822,-145.314 350.464,-135.183"/>
<polygon fill="midnightblue" stroke="midnightblue" points="352.002,-138.342 360.105,-131.516 349.514,-131.8 352.002,-138.342"/>
</g>
<!-- Node11&#45;&gt;Node9 -->
<g id="edge16" class="edge"><title>Node11&#45;&gt;Node9</title>
<path fill="none" stroke="midnightblue" d="M378.577,-112.368C370.435,-94.4563 351.556,-52.9233 340.658,-28.9482"/>
<polygon fill="midnightblue" stroke="midnightblue" points="343.73,-27.2468 336.405,-19.5914 337.357,-30.1434 343.73,-27.2468"/>
</g>
<!-- Node12 -->
<g id="node13" class="node"><title>Node12</title>
<g id="a_node13"><a xlink:href="Sprite_8h.html" target="_top" xlink:title="Sprite.h">
<polygon fill="white" stroke="black" points="431.5,-56.5 431.5,-75.5 481.5,-75.5 481.5,-56.5 431.5,-56.5"/>
<text text-anchor="middle" x="456.5" y="-63.5" font-family="Helvetica,sans-Serif" font-size="10.00">Sprite.h</text>
</a>
</g>
</g>
<!-- Node11&#45;&gt;Node12 -->
<g id="edge17" class="edge"><title>Node11&#45;&gt;Node12</title>
<path fill="none" stroke="midnightblue" d="M394.389,-112.324C405.65,-104.107 422.787,-91.6017 436.209,-81.8069"/>
<polygon fill="midnightblue" stroke="midnightblue" points="438.38,-84.5559 444.394,-75.8339 434.253,-78.9014 438.38,-84.5559"/>
</g>
<!-- Node12&#45;&gt;Node5 -->
<g id="edge20" class="edge"><title>Node12&#45;&gt;Node5</title>
<path fill="none" stroke="midnightblue" d="M447.748,-56.083C440.03,-48.2195 428.595,-36.5688 419.283,-27.0813"/>
<polygon fill="midnightblue" stroke="midnightblue" points="421.592,-24.4363 412.089,-19.7511 416.596,-29.3396 421.592,-24.4363"/>
</g>
<!-- Node12&#45;&gt;Node9 -->
<g id="edge19" class="edge"><title>Node12&#45;&gt;Node9</title>
<path fill="none" stroke="midnightblue" d="M436.852,-56.4435C416.535,-47.5961 384.597,-33.6875 361.402,-23.5865"/>
<polygon fill="midnightblue" stroke="midnightblue" points="362.622,-20.3002 352.056,-19.5164 359.827,-26.7181 362.622,-20.3002"/>
</g>
<!-- Node13 -->
<g id="node14" class="node"><title>Node13</title>
<g id="a_node14"><a xlink:href="Color_8h.html" target="_top" xlink:title="Color.h">
<polygon fill="white" stroke="black" points="447.5,-0.5 447.5,-19.5 495.5,-19.5 495.5,-0.5 447.5,-0.5"/>
<text text-anchor="middle" x="471.5" y="-7.5" font-family="Helvetica,sans-Serif" font-size="10.00">Color.h</text>
</a>
</g>
</g>
<!-- Node12&#45;&gt;Node13 -->
<g id="edge18" class="edge"><title>Node12&#45;&gt;Node13</title>
<path fill="none" stroke="midnightblue" d="M458.977,-56.083C460.986,-48.8486 463.886,-38.4087 466.39,-29.3968"/>
<polygon fill="midnightblue" stroke="midnightblue" points="469.765,-30.323 469.069,-19.7511 463.02,-28.4495 469.765,-30.323"/>
</g>
</g>
</svg>
