<?xml version="1.0" encoding="UTF-8" standalone="no"?>
<!DOCTYPE svg PUBLIC "-//W3C//DTD SVG 1.1//EN"
 "http://www.w3.org/Graphics/SVG/1.1/DTD/svg11.dtd">
<!-- Generated by graphviz version 2.38.0 (20140413.2041)
 -->
<!-- Title: Engine/src/DragAndDrop.cpp Pages: 1 -->
<svg width="863pt" height="420pt"
 viewBox="0.00 0.00 862.50 420.00" xmlns="http://www.w3.org/2000/svg" xmlns:xlink="http://www.w3.org/1999/xlink">
<g id="graph0" class="graph" transform="scale(1 1) rotate(0) translate(4 416)">
<title>Engine/src/DragAndDrop.cpp</title>
<polygon fill="white" stroke="none" points="-4,4 -4,-416 858.5,-416 858.5,4 -4,4"/>
<!-- Node1 -->
<g id="node1" class="node"><title>Node1</title>
<polygon fill="#bfbfbf" stroke="black" points="618.5,-392.5 618.5,-411.5 762.5,-411.5 762.5,-392.5 618.5,-392.5"/>
<text text-anchor="middle" x="690.5" y="-399.5" font-family="Helvetica,sans-Serif" font-size="10.00">Engine/src/DragAndDrop.cpp</text>
</g>
<!-- Node2 -->
<g id="node2" class="node"><title>Node2</title>
<g id="a_node2"><a xlink:href="DragAndDrop_8h.html" target="_top" xlink:title="DragAndDrop.h">
<polygon fill="white" stroke="black" points="399.5,-336.5 399.5,-355.5 483.5,-355.5 483.5,-336.5 399.5,-336.5"/>
<text text-anchor="middle" x="441.5" y="-343.5" font-family="Helvetica,sans-Serif" font-size="10.00">DragAndDrop.h</text>
</a>
</g>
</g>
<!-- Node1&#45;&gt;Node2 -->
<g id="edge1" class="edge"><title>Node1&#45;&gt;Node2</title>
<path fill="none" stroke="midnightblue" d="M651.045,-392.444C607.608,-383.023 537.714,-367.866 490.724,-357.675"/>
<polygon fill="midnightblue" stroke="midnightblue" points="491.285,-354.215 480.77,-355.516 489.801,-361.056 491.285,-354.215"/>
</g>
<!-- Node17 -->
<g id="node17" class="node"><title>Node17</title>
<g id="a_node17"><a xlink:href="InputManager_8h.html" target="_top" xlink:title="InputManager.h">
<polygon fill="white" stroke="black" points="588.5,-112.5 588.5,-131.5 672.5,-131.5 672.5,-112.5 588.5,-112.5"/>
<text text-anchor="middle" x="630.5" y="-119.5" font-family="Helvetica,sans-Serif" font-size="10.00">InputManager.h</text>
</a>
</g>
</g>
<!-- Node1&#45;&gt;Node17 -->
<g id="edge42" class="edge"><title>Node1&#45;&gt;Node17</title>
<path fill="none" stroke="midnightblue" d="M692.658,-392.223C697.025,-373.663 706.5,-329.017 706.5,-291 706.5,-291 706.5,-291 706.5,-233 706.5,-202.902 704.331,-192.952 687.5,-168 679.099,-155.546 666.171,-144.937 654.749,-137.153"/>
<polygon fill="midnightblue" stroke="midnightblue" points="656.33,-134.008 646.028,-131.535 652.539,-139.893 656.33,-134.008"/>
</g>
<!-- Node20 -->
<g id="node20" class="node"><title>Node20</title>
<g id="a_node20"><a xlink:href="Camera_8h.html" target="_top" xlink:title="Camera.h">
<polygon fill="white" stroke="black" points="567,-224.5 567,-243.5 626,-243.5 626,-224.5 567,-224.5"/>
<text text-anchor="middle" x="596.5" y="-231.5" font-family="Helvetica,sans-Serif" font-size="10.00">Camera.h</text>
</a>
</g>
</g>
<!-- Node1&#45;&gt;Node20 -->
<g id="edge34" class="edge"><title>Node1&#45;&gt;Node20</title>
<path fill="none" stroke="midnightblue" d="M685.446,-392.075C670.522,-365.719 626.443,-287.878 606.501,-252.661"/>
<polygon fill="midnightblue" stroke="midnightblue" points="609.325,-250.545 601.352,-243.568 603.234,-253.994 609.325,-250.545"/>
</g>
<!-- Node22 -->
<g id="node22" class="node"><title>Node22</title>
<g id="a_node22"><a xlink:href="Error_8h.html" target="_top" xlink:title="Error.h">
<polygon fill="white" stroke="black" points="738.5,-336.5 738.5,-355.5 784.5,-355.5 784.5,-336.5 738.5,-336.5"/>
<text text-anchor="middle" x="761.5" y="-343.5" font-family="Helvetica,sans-Serif" font-size="10.00">Error.h</text>
</a>
</g>
</g>
<!-- Node1&#45;&gt;Node22 -->
<g id="edge39" class="edge"><title>Node1&#45;&gt;Node22</title>
<path fill="none" stroke="midnightblue" d="M701.907,-392.324C712.609,-384.185 728.841,-371.839 741.663,-362.087"/>
<polygon fill="midnightblue" stroke="midnightblue" points="744.044,-364.673 749.885,-355.834 739.807,-359.102 744.044,-364.673"/>
</g>
<!-- Node3 -->
<g id="node3" class="node"><title>Node3</title>
<g id="a_node3"><a xlink:href="Component_8h.html" target="_top" xlink:title="Component.h">
<polygon fill="white" stroke="black" points="404,-224.5 404,-243.5 479,-243.5 479,-224.5 404,-224.5"/>
<text text-anchor="middle" x="441.5" y="-231.5" font-family="Helvetica,sans-Serif" font-size="10.00">Component.h</text>
</a>
</g>
</g>
<!-- Node2&#45;&gt;Node3 -->
<g id="edge2" class="edge"><title>Node2&#45;&gt;Node3</title>
<path fill="none" stroke="midnightblue" d="M441.5,-336.368C441.5,-318.617 441.5,-277.666 441.5,-253.597"/>
<polygon fill="midnightblue" stroke="midnightblue" points="445,-253.591 441.5,-243.591 438,-253.591 445,-253.591"/>
</g>
<!-- Node13 -->
<g id="node13" class="node"><title>Node13</title>
<g id="a_node13"><a xlink:href="TileMap_8h.html" target="_top" xlink:title="TileMap.h">
<polygon fill="white" stroke="black" points="312,-280.5 312,-299.5 371,-299.5 371,-280.5 312,-280.5"/>
<text text-anchor="middle" x="341.5" y="-287.5" font-family="Helvetica,sans-Serif" font-size="10.00">TileMap.h</text>
</a>
</g>
</g>
<!-- Node2&#45;&gt;Node13 -->
<g id="edge16" class="edge"><title>Node2&#45;&gt;Node13</title>
<path fill="none" stroke="midnightblue" d="M425.433,-336.324C409.542,-327.743 384.993,-314.486 366.542,-304.522"/>
<polygon fill="midnightblue" stroke="midnightblue" points="367.989,-301.326 357.527,-299.655 364.663,-307.486 367.989,-301.326"/>
</g>
<!-- Node4 -->
<g id="node4" class="node"><title>Node4</title>
<g id="a_node4"><a xlink:href="ComponentType_8h.html" target="_top" xlink:title="ComponentType.h">
<polygon fill="white" stroke="black" points="397,-112.5 397,-131.5 494,-131.5 494,-112.5 397,-112.5"/>
<text text-anchor="middle" x="445.5" y="-119.5" font-family="Helvetica,sans-Serif" font-size="10.00">ComponentType.h</text>
</a>
</g>
</g>
<!-- Node3&#45;&gt;Node4 -->
<g id="edge3" class="edge"><title>Node3&#45;&gt;Node4</title>
<path fill="none" stroke="midnightblue" d="M441.814,-224.368C442.459,-206.617 443.948,-165.666 444.824,-141.597"/>
<polygon fill="midnightblue" stroke="midnightblue" points="448.322,-141.712 445.188,-131.591 441.326,-141.458 448.322,-141.712"/>
</g>
<!-- Node5 -->
<g id="node5" class="node"><title>Node5</title>
<g id="a_node5"><a xlink:href="GameObject_8h.html" target="_top" xlink:title="GameObject.h">
<polygon fill="white" stroke="black" points="267.5,-168.5 267.5,-187.5 347.5,-187.5 347.5,-168.5 267.5,-168.5"/>
<text text-anchor="middle" x="307.5" y="-175.5" font-family="Helvetica,sans-Serif" font-size="10.00">GameObject.h</text>
</a>
</g>
</g>
<!-- Node3&#45;&gt;Node5 -->
<g id="edge4" class="edge"><title>Node3&#45;&gt;Node5</title>
<path fill="none" stroke="midnightblue" d="M415.179,-224.444C391.283,-215.596 356.529,-201.687 332.923,-191.586"/>
<polygon fill="midnightblue" stroke="midnightblue" points="334.12,-188.29 323.553,-187.516 331.331,-194.711 334.12,-188.29"/>
</g>
<!-- Node5&#45;&gt;Node3 -->
<g id="edge9" class="edge"><title>Node5&#45;&gt;Node3</title>
<path fill="none" stroke="midnightblue" d="M333.713,-187.516C357.576,-196.349 392.331,-210.255 415.97,-220.368"/>
<polygon fill="midnightblue" stroke="midnightblue" points="414.789,-223.671 425.356,-224.444 417.578,-217.25 414.789,-223.671"/>
</g>
<!-- Node5&#45;&gt;Node4 -->
<g id="edge10" class="edge"><title>Node5&#45;&gt;Node4</title>
<path fill="none" stroke="midnightblue" d="M329.367,-168.444C352.279,-159.478 388.475,-145.314 414.366,-135.183"/>
<polygon fill="midnightblue" stroke="midnightblue" points="415.699,-138.42 423.736,-131.516 413.148,-131.901 415.699,-138.42"/>
</g>
<!-- Node6 -->
<g id="node6" class="node"><title>Node6</title>
<g id="a_node6"><a xlink:href="SDL__include_8h.html" target="_top" xlink:title="SDL_include.h">
<polygon fill="white" stroke="black" points="267.5,-0.5 267.5,-19.5 347.5,-19.5 347.5,-0.5 267.5,-0.5"/>
<text text-anchor="middle" x="307.5" y="-7.5" font-family="Helvetica,sans-Serif" font-size="10.00">SDL_include.h</text>
</a>
</g>
</g>
<!-- Node5&#45;&gt;Node6 -->
<g id="edge5" class="edge"><title>Node5&#45;&gt;Node6</title>
<path fill="none" stroke="midnightblue" d="M307.5,-168.075C307.5,-141.945 307.5,-65.2106 307.5,-29.577"/>
<polygon fill="midnightblue" stroke="midnightblue" points="311,-29.5681 307.5,-19.5681 304,-29.5681 311,-29.5681"/>
</g>
<!-- Node7 -->
<g id="node7" class="node"><title>Node7</title>
<polygon fill="white" stroke="#bfbfbf" points="335.5,-112.5 335.5,-131.5 379.5,-131.5 379.5,-112.5 335.5,-112.5"/>
<text text-anchor="middle" x="357.5" y="-119.5" font-family="Helvetica,sans-Serif" font-size="10.00">vector</text>
</g>
<!-- Node5&#45;&gt;Node7 -->
<g id="edge6" class="edge"><title>Node5&#45;&gt;Node7</title>
<path fill="none" stroke="midnightblue" d="M315.756,-168.083C322.965,-160.298 333.61,-148.801 342.346,-139.367"/>
<polygon fill="midnightblue" stroke="midnightblue" points="345.171,-141.467 349.397,-131.751 340.035,-136.711 345.171,-141.467"/>
</g>
<!-- Node8 -->
<g id="node8" class="node"><title>Node8</title>
<polygon fill="white" stroke="#bfbfbf" points="163.5,-112.5 163.5,-131.5 215.5,-131.5 215.5,-112.5 163.5,-112.5"/>
<text text-anchor="middle" x="189.5" y="-119.5" font-family="Helvetica,sans-Serif" font-size="10.00">memory</text>
</g>
<!-- Node5&#45;&gt;Node8 -->
<g id="edge7" class="edge"><title>Node5&#45;&gt;Node8</title>
<path fill="none" stroke="midnightblue" d="M288.803,-168.444C269.556,-159.636 239.348,-145.812 217.3,-135.722"/>
<polygon fill="midnightblue" stroke="midnightblue" points="218.66,-132.495 208.11,-131.516 215.747,-138.86 218.66,-132.495"/>
</g>
<!-- Node9 -->
<g id="node9" class="node"><title>Node9</title>
<polygon fill="white" stroke="#bfbfbf" points="0,-112.5 0,-131.5 41,-131.5 41,-112.5 0,-112.5"/>
<text text-anchor="middle" x="20.5" y="-119.5" font-family="Helvetica,sans-Serif" font-size="10.00">string</text>
</g>
<!-- Node5&#45;&gt;Node9 -->
<g id="edge8" class="edge"><title>Node5&#45;&gt;Node9</title>
<path fill="none" stroke="midnightblue" d="M267.292,-169.435C209.272,-158.518 103.329,-138.585 51.1724,-128.771"/>
<polygon fill="midnightblue" stroke="midnightblue" points="51.6665,-125.303 41.1917,-126.893 50.3721,-132.182 51.6665,-125.303"/>
</g>
<!-- Node10 -->
<g id="node10" class="node"><title>Node10</title>
<g id="a_node10"><a xlink:href="Rect_8h.html" target="_top" xlink:title="Rect.h">
<polygon fill="white" stroke="black" points="233.5,-112.5 233.5,-131.5 279.5,-131.5 279.5,-112.5 233.5,-112.5"/>
<text text-anchor="middle" x="256.5" y="-119.5" font-family="Helvetica,sans-Serif" font-size="10.00">Rect.h</text>
</a>
</g>
</g>
<!-- Node5&#45;&gt;Node10 -->
<g id="edge11" class="edge"><title>Node5&#45;&gt;Node10</title>
<path fill="none" stroke="midnightblue" d="M299.078,-168.083C291.652,-160.22 280.648,-148.569 271.688,-139.081"/>
<polygon fill="midnightblue" stroke="midnightblue" points="274.176,-136.618 264.765,-131.751 269.087,-141.424 274.176,-136.618"/>
</g>
<!-- Node10&#45;&gt;Node6 -->
<g id="edge12" class="edge"><title>Node10&#45;&gt;Node6</title>
<path fill="none" stroke="midnightblue" d="M260.502,-112.368C268.807,-94.4563 288.063,-52.9233 299.179,-28.9482"/>
<polygon fill="midnightblue" stroke="midnightblue" points="302.486,-30.136 303.517,-19.5914 296.135,-27.1916 302.486,-30.136"/>
</g>
<!-- Node11 -->
<g id="node11" class="node"><title>Node11</title>
<g id="a_node11"><a xlink:href="Vec2_8h.html" target="_top" xlink:title="Vec2.h">
<polygon fill="white" stroke="black" points="499,-56.5 499,-75.5 546,-75.5 546,-56.5 499,-56.5"/>
<text text-anchor="middle" x="522.5" y="-63.5" font-family="Helvetica,sans-Serif" font-size="10.00">Vec2.h</text>
</a>
</g>
</g>
<!-- Node10&#45;&gt;Node11 -->
<g id="edge13" class="edge"><title>Node10&#45;&gt;Node11</title>
<path fill="none" stroke="midnightblue" d="M279.64,-116.302C326.782,-106.732 434.112,-84.9434 488.928,-73.8153"/>
<polygon fill="midnightblue" stroke="midnightblue" points="489.738,-77.2223 498.842,-71.8027 488.346,-70.3622 489.738,-77.2223"/>
</g>
<!-- Node12 -->
<g id="node12" class="node"><title>Node12</title>
<polygon fill="white" stroke="#bfbfbf" points="197.5,-56.5 197.5,-75.5 241.5,-75.5 241.5,-56.5 197.5,-56.5"/>
<text text-anchor="middle" x="219.5" y="-63.5" font-family="Helvetica,sans-Serif" font-size="10.00">cmath</text>
</g>
<!-- Node10&#45;&gt;Node12 -->
<g id="edge15" class="edge"><title>Node10&#45;&gt;Node12</title>
<path fill="none" stroke="midnightblue" d="M250.39,-112.083C245.218,-104.534 237.654,-93.4948 231.306,-84.2298"/>
<polygon fill="midnightblue" stroke="midnightblue" points="234.036,-82.0221 225.496,-75.7511 228.261,-85.9787 234.036,-82.0221"/>
</g>
<!-- Node11&#45;&gt;Node6 -->
<g id="edge14" class="edge"><title>Node11&#45;&gt;Node6</title>
<path fill="none" stroke="midnightblue" d="M498.67,-59.0147C463.27,-50.1237 396.193,-33.2763 351.659,-22.0911"/>
<polygon fill="midnightblue" stroke="midnightblue" points="352.239,-18.6282 341.688,-19.5868 350.534,-25.4174 352.239,-18.6282"/>
</g>
<!-- Node13&#45;&gt;Node5 -->
<g id="edge19" class="edge"><title>Node13&#45;&gt;Node5</title>
<path fill="none" stroke="midnightblue" d="M338.832,-280.368C333.32,-262.537 320.573,-221.295 313.148,-197.272"/>
<polygon fill="midnightblue" stroke="midnightblue" points="316.453,-196.112 310.156,-187.591 309.765,-198.179 316.453,-196.112"/>
</g>
<!-- Node13&#45;&gt;Node7 -->
<g id="edge18" class="edge"><title>Node13&#45;&gt;Node7</title>
<path fill="none" stroke="midnightblue" d="M343.17,-280.398C346.457,-263.021 353.689,-222.453 356.5,-188 357.764,-172.514 357.957,-154.885 357.866,-141.898"/>
<polygon fill="midnightblue" stroke="midnightblue" points="361.366,-141.802 357.733,-131.849 354.366,-141.895 361.366,-141.802"/>
</g>
<!-- Node13&#45;&gt;Node9 -->
<g id="edge17" class="edge"><title>Node13&#45;&gt;Node9</title>
<path fill="none" stroke="midnightblue" d="M311.674,-287.006C271.425,-283.282 198.443,-272.82 143.5,-244 94.6178,-218.36 52.3772,-166.937 32.5444,-140.135"/>
<polygon fill="midnightblue" stroke="midnightblue" points="35.1863,-137.815 26.4897,-131.764 29.5145,-141.918 35.1863,-137.815"/>
</g>
<!-- Node13&#45;&gt;Node11 -->
<g id="edge33" class="edge"><title>Node13&#45;&gt;Node11</title>
<path fill="none" stroke="midnightblue" d="M371.118,-288.417C404.432,-286.082 457.756,-277.002 487.5,-244 527.996,-199.069 527.313,-121.213 524.534,-85.6672"/>
<polygon fill="midnightblue" stroke="midnightblue" points="528.018,-85.3412 523.607,-75.7085 521.048,-85.9899 528.018,-85.3412"/>
</g>
<!-- Node14 -->
<g id="node14" class="node"><title>Node14</title>
<g id="a_node14"><a xlink:href="Tileset_8h.html" target="_top" xlink:title="Tileset.h">
<polygon fill="white" stroke="black" points="152.5,-224.5 152.5,-243.5 206.5,-243.5 206.5,-224.5 152.5,-224.5"/>
<text text-anchor="middle" x="179.5" y="-231.5" font-family="Helvetica,sans-Serif" font-size="10.00">Tileset.h</text>
</a>
</g>
</g>
<!-- Node13&#45;&gt;Node14 -->
<g id="edge20" class="edge"><title>Node13&#45;&gt;Node14</title>
<path fill="none" stroke="midnightblue" d="M315.831,-280.444C288.577,-271.359 245.316,-256.939 214.849,-246.783"/>
<polygon fill="midnightblue" stroke="midnightblue" points="215.643,-243.358 205.049,-243.516 213.429,-249.999 215.643,-243.358"/>
</g>
<!-- Node14&#45;&gt;Node9 -->
<g id="edge21" class="edge"><title>Node14&#45;&gt;Node9</title>
<path fill="none" stroke="midnightblue" d="M167.024,-224.368C139.855,-205.573 75.0925,-160.768 41.5073,-137.533"/>
<polygon fill="midnightblue" stroke="midnightblue" points="43.1336,-134.403 32.9185,-131.591 39.151,-140.159 43.1336,-134.403"/>
</g>
<!-- Node15 -->
<g id="node15" class="node"><title>Node15</title>
<g id="a_node15"><a xlink:href="Sprite_8h.html" target="_top" xlink:title="Sprite.h">
<polygon fill="white" stroke="black" points="154.5,-168.5 154.5,-187.5 204.5,-187.5 204.5,-168.5 154.5,-168.5"/>
<text text-anchor="middle" x="179.5" y="-175.5" font-family="Helvetica,sans-Serif" font-size="10.00">Sprite.h</text>
</a>
</g>
</g>
<!-- Node14&#45;&gt;Node15 -->
<g id="edge22" class="edge"><title>Node14&#45;&gt;Node15</title>
<path fill="none" stroke="midnightblue" d="M179.5,-224.083C179.5,-217.006 179.5,-206.861 179.5,-197.986"/>
<polygon fill="midnightblue" stroke="midnightblue" points="183,-197.751 179.5,-187.751 176,-197.751 183,-197.751"/>
</g>
<!-- Node15&#45;&gt;Node6 -->
<g id="edge23" class="edge"><title>Node15&#45;&gt;Node6</title>
<path fill="none" stroke="midnightblue" d="M154.437,-170.878C121.846,-161.593 71.0249,-141.815 88.5,-112 123.407,-52.4442 204.189,-27.7075 257.277,-17.6431"/>
<polygon fill="midnightblue" stroke="midnightblue" points="257.948,-21.0788 267.177,-15.8746 256.717,-14.1879 257.948,-21.0788"/>
</g>
<!-- Node15&#45;&gt;Node8 -->
<g id="edge25" class="edge"><title>Node15&#45;&gt;Node8</title>
<path fill="none" stroke="midnightblue" d="M181.151,-168.083C182.476,-160.927 184.382,-150.635 186.039,-141.691"/>
<polygon fill="midnightblue" stroke="midnightblue" points="189.5,-142.221 187.879,-131.751 182.617,-140.947 189.5,-142.221"/>
</g>
<!-- Node15&#45;&gt;Node9 -->
<g id="edge24" class="edge"><title>Node15&#45;&gt;Node9</title>
<path fill="none" stroke="midnightblue" d="M154.306,-168.444C126.141,-158.878 80.5577,-143.397 50.5553,-133.207"/>
<polygon fill="midnightblue" stroke="midnightblue" points="51.62,-129.873 41.0257,-129.971 49.3689,-136.501 51.62,-129.873"/>
</g>
<!-- Node15&#45;&gt;Node10 -->
<g id="edge27" class="edge"><title>Node15&#45;&gt;Node10</title>
<path fill="none" stroke="midnightblue" d="M191.871,-168.324C203.658,-160.058 221.632,-147.453 235.636,-137.632"/>
<polygon fill="midnightblue" stroke="midnightblue" points="237.982,-140.262 244.159,-131.655 233.962,-134.531 237.982,-140.262"/>
</g>
<!-- Node16 -->
<g id="node16" class="node"><title>Node16</title>
<g id="a_node16"><a xlink:href="Color_8h.html" target="_top" xlink:title="Color.h">
<polygon fill="white" stroke="black" points="97.5,-112.5 97.5,-131.5 145.5,-131.5 145.5,-112.5 97.5,-112.5"/>
<text text-anchor="middle" x="121.5" y="-119.5" font-family="Helvetica,sans-Serif" font-size="10.00">Color.h</text>
</a>
</g>
</g>
<!-- Node15&#45;&gt;Node16 -->
<g id="edge26" class="edge"><title>Node15&#45;&gt;Node16</title>
<path fill="none" stroke="midnightblue" d="M170.181,-168.324C161.607,-160.341 148.688,-148.313 138.312,-138.653"/>
<polygon fill="midnightblue" stroke="midnightblue" points="140.692,-136.086 130.988,-131.834 135.922,-141.21 140.692,-136.086"/>
</g>
<!-- Node15&#45;&gt;Node17 -->
<g id="edge28" class="edge"><title>Node15&#45;&gt;Node17</title>
<path fill="none" stroke="midnightblue" d="M204.714,-173.981C276.128,-165.43 480.869,-140.916 578.066,-129.278"/>
<polygon fill="midnightblue" stroke="midnightblue" points="578.738,-132.723 588.251,-128.059 577.906,-125.772 578.738,-132.723"/>
</g>
<!-- Node17&#45;&gt;Node6 -->
<g id="edge29" class="edge"><title>Node17&#45;&gt;Node6</title>
<path fill="none" stroke="midnightblue" d="M623.102,-112.189C610.569,-97.8972 583.664,-69.8681 554.5,-56 490.974,-25.7918 409.383,-15.7869 357.749,-12.5179"/>
<polygon fill="midnightblue" stroke="midnightblue" points="357.703,-9.0096 347.519,-11.9337 357.303,-15.9982 357.703,-9.0096"/>
</g>
<!-- Node17&#45;&gt;Node11 -->
<g id="edge30" class="edge"><title>Node17&#45;&gt;Node11</title>
<path fill="none" stroke="midnightblue" d="M613.148,-112.324C595.828,-103.664 568.985,-90.2424 548.998,-80.249"/>
<polygon fill="midnightblue" stroke="midnightblue" points="550.319,-76.9962 539.809,-75.6545 547.188,-83.2572 550.319,-76.9962"/>
</g>
<!-- Node18 -->
<g id="node18" class="node"><title>Node18</title>
<polygon fill="white" stroke="#bfbfbf" points="670,-56.5 670,-75.5 753,-75.5 753,-56.5 670,-56.5"/>
<text text-anchor="middle" x="711.5" y="-63.5" font-family="Helvetica,sans-Serif" font-size="10.00">unordered_map</text>
</g>
<!-- Node17&#45;&gt;Node18 -->
<g id="edge31" class="edge"><title>Node17&#45;&gt;Node18</title>
<path fill="none" stroke="midnightblue" d="M643.514,-112.324C656.032,-103.979 675.182,-91.2122 689.971,-81.3524"/>
<polygon fill="midnightblue" stroke="midnightblue" points="692.139,-84.1137 698.518,-75.6545 688.256,-78.2894 692.139,-84.1137"/>
</g>
<!-- Node19 -->
<g id="node19" class="node"><title>Node19</title>
<polygon fill="white" stroke="#bfbfbf" points="605.5,-56.5 605.5,-75.5 651.5,-75.5 651.5,-56.5 605.5,-56.5"/>
<text text-anchor="middle" x="628.5" y="-63.5" font-family="Helvetica,sans-Serif" font-size="10.00">cstdint</text>
</g>
<!-- Node17&#45;&gt;Node19 -->
<g id="edge32" class="edge"><title>Node17&#45;&gt;Node19</title>
<path fill="none" stroke="midnightblue" d="M630.17,-112.083C629.908,-105.006 629.532,-94.8611 629.203,-85.9865"/>
<polygon fill="midnightblue" stroke="midnightblue" points="632.692,-85.6147 628.824,-75.7511 625.697,-85.8738 632.692,-85.6147"/>
</g>
<!-- Node20&#45;&gt;Node5 -->
<g id="edge35" class="edge"><title>Node20&#45;&gt;Node5</title>
<path fill="none" stroke="midnightblue" d="M566.93,-227.475C517.701,-218.276 418.387,-199.719 357.93,-188.423"/>
<polygon fill="midnightblue" stroke="midnightblue" points="358.317,-184.935 347.845,-186.538 357.032,-191.816 358.317,-184.935"/>
</g>
<!-- Node20&#45;&gt;Node11 -->
<g id="edge36" class="edge"><title>Node20&#45;&gt;Node11</title>
<path fill="none" stroke="midnightblue" d="M592.521,-224.075C580.823,-197.832 546.37,-120.545 530.576,-85.1165"/>
<polygon fill="midnightblue" stroke="midnightblue" points="533.588,-83.2766 526.32,-75.5681 527.194,-86.1268 533.588,-83.2766"/>
</g>
<!-- Node21 -->
<g id="node21" class="node"><title>Node21</title>
<g id="a_node21"><a xlink:href="ActionManager_8h.html" target="_top" xlink:title="ActionManager.h">
<polygon fill="white" stroke="black" points="588.5,-168.5 588.5,-187.5 678.5,-187.5 678.5,-168.5 588.5,-168.5"/>
<text text-anchor="middle" x="633.5" y="-175.5" font-family="Helvetica,sans-Serif" font-size="10.00">ActionManager.h</text>
</a>
</g>
</g>
<!-- Node20&#45;&gt;Node21 -->
<g id="edge37" class="edge"><title>Node20&#45;&gt;Node21</title>
<path fill="none" stroke="midnightblue" d="M602.61,-224.083C607.782,-216.534 615.346,-205.495 621.694,-196.23"/>
<polygon fill="midnightblue" stroke="midnightblue" points="624.739,-197.979 627.504,-187.751 618.964,-194.022 624.739,-197.979"/>
</g>
<!-- Node21&#45;&gt;Node17 -->
<g id="edge38" class="edge"><title>Node21&#45;&gt;Node17</title>
<path fill="none" stroke="midnightblue" d="M633.005,-168.083C632.611,-161.006 632.048,-150.861 631.555,-141.986"/>
<polygon fill="midnightblue" stroke="midnightblue" points="635.036,-141.542 630.986,-131.751 628.046,-141.93 635.036,-141.542"/>
</g>
<!-- Node23 -->
<g id="node23" class="node"><title>Node23</title>
<polygon fill="white" stroke="#bfbfbf" points="734.5,-280.5 734.5,-299.5 788.5,-299.5 788.5,-280.5 734.5,-280.5"/>
<text text-anchor="middle" x="761.5" y="-287.5" font-family="Helvetica,sans-Serif" font-size="10.00">iostream</text>
</g>
<!-- Node22&#45;&gt;Node23 -->
<g id="edge40" class="edge"><title>Node22&#45;&gt;Node23</title>
<path fill="none" stroke="midnightblue" d="M761.5,-336.083C761.5,-329.006 761.5,-318.861 761.5,-309.986"/>
<polygon fill="midnightblue" stroke="midnightblue" points="765,-309.751 761.5,-299.751 758,-309.751 765,-309.751"/>
</g>
<!-- Node24 -->
<g id="node24" class="node"><title>Node24</title>
<polygon fill="white" stroke="#bfbfbf" points="806.5,-280.5 806.5,-299.5 854.5,-299.5 854.5,-280.5 806.5,-280.5"/>
<text text-anchor="middle" x="830.5" y="-287.5" font-family="Helvetica,sans-Serif" font-size="10.00">stdlib.h</text>
</g>
<!-- Node22&#45;&gt;Node24 -->
<g id="edge41" class="edge"><title>Node22&#45;&gt;Node24</title>
<path fill="none" stroke="midnightblue" d="M772.586,-336.324C782.986,-328.185 798.761,-315.839 811.222,-306.087"/>
<polygon fill="midnightblue" stroke="midnightblue" points="813.494,-308.753 819.212,-299.834 809.18,-303.241 813.494,-308.753"/>
</g>
</g>
</svg>
