<?xml version="1.0" encoding="UTF-8" standalone="no"?>
<!DOCTYPE svg PUBLIC "-//W3C//DTD SVG 1.1//EN"
 "http://www.w3.org/Graphics/SVG/1.1/DTD/svg11.dtd">
<!-- Generated by graphviz version 2.38.0 (20140413.2041)
 -->
<!-- Title: Engine/src/DragAndDrop.cpp Pages: 1 -->
<svg width="560pt" height="308pt"
 viewBox="0.00 0.00 559.50 308.00" xmlns="http://www.w3.org/2000/svg" xmlns:xlink="http://www.w3.org/1999/xlink">
<g id="graph0" class="graph" transform="scale(1 1) rotate(0) translate(4 304)">
<title>Engine/src/DragAndDrop.cpp</title>
<polygon fill="white" stroke="none" points="-4,4 -4,-304 555.5,-304 555.5,4 -4,4"/>
<!-- Node1 -->
<g id="node1" class="node"><title>Node1</title>
<polygon fill="#bfbfbf" stroke="black" points="312.5,-280.5 312.5,-299.5 456.5,-299.5 456.5,-280.5 312.5,-280.5"/>
<text text-anchor="middle" x="384.5" y="-287.5" font-family="Helvetica,sans-Serif" font-size="10.00">Engine/src/DragAndDrop.cpp</text>
</g>
<!-- Node2 -->
<g id="node2" class="node"><title>Node2</title>
<g id="a_node2"><a xlink:href="DragAndDrop_8h.html" target="_top" xlink:title="DragAndDrop.h">
<polygon fill="white" stroke="black" points="195.5,-224.5 195.5,-243.5 279.5,-243.5 279.5,-224.5 195.5,-224.5"/>
<text text-anchor="middle" x="237.5" y="-231.5" font-family="Helvetica,sans-Serif" font-size="10.00">DragAndDrop.h</text>
</a>
</g>
</g>
<!-- Node1&#45;&gt;Node2 -->
<g id="edge1" class="edge"><title>Node1&#45;&gt;Node2</title>
<path fill="none" stroke="midnightblue" d="M361.207,-280.444C336.693,-271.438 297.904,-257.189 270.3,-247.049"/>
<polygon fill="midnightblue" stroke="midnightblue" points="271.277,-243.679 260.684,-243.516 268.863,-250.25 271.277,-243.679"/>
</g>
<!-- Node15 -->
<g id="node15" class="node"><title>Node15</title>
<g id="a_node15"><a xlink:href="InputManager_8h.html" target="_top" xlink:title="InputManager.h">
<polygon fill="white" stroke="black" points="380.5,-112.5 380.5,-131.5 464.5,-131.5 464.5,-112.5 380.5,-112.5"/>
<text text-anchor="middle" x="422.5" y="-119.5" font-family="Helvetica,sans-Serif" font-size="10.00">InputManager.h</text>
</a>
</g>
</g>
<!-- Node1&#45;&gt;Node15 -->
<g id="edge22" class="edge"><title>Node1&#45;&gt;Node15</title>
<path fill="none" stroke="midnightblue" d="M386.543,-280.075C392.525,-253.945 410.09,-177.211 418.247,-141.577"/>
<polygon fill="midnightblue" stroke="midnightblue" points="421.719,-142.097 420.539,-131.568 414.895,-140.535 421.719,-142.097"/>
</g>
<!-- Node16 -->
<g id="node16" class="node"><title>Node16</title>
<g id="a_node16"><a xlink:href="Camera_8h.html" target="_top" xlink:title="Camera.h">
<polygon fill="white" stroke="black" points="316,-168.5 316,-187.5 375,-187.5 375,-168.5 316,-168.5"/>
<text text-anchor="middle" x="345.5" y="-175.5" font-family="Helvetica,sans-Serif" font-size="10.00">Camera.h</text>
</a>
</g>
</g>
<!-- Node1&#45;&gt;Node16 -->
<g id="edge24" class="edge"><title>Node1&#45;&gt;Node16</title>
<path fill="none" stroke="midnightblue" d="M381.44,-280.368C375.118,-262.537 360.496,-221.295 351.978,-197.272"/>
<polygon fill="midnightblue" stroke="midnightblue" points="355.187,-195.847 348.546,-187.591 348.589,-198.186 355.187,-195.847"/>
</g>
<!-- Node17 -->
<g id="node17" class="node"><title>Node17</title>
<g id="a_node17"><a xlink:href="Error_8h.html" target="_top" xlink:title="Error.h">
<polygon fill="white" stroke="black" points="435.5,-224.5 435.5,-243.5 481.5,-243.5 481.5,-224.5 435.5,-224.5"/>
<text text-anchor="middle" x="458.5" y="-231.5" font-family="Helvetica,sans-Serif" font-size="10.00">Error.h</text>
</a>
</g>
</g>
<!-- Node1&#45;&gt;Node17 -->
<g id="edge27" class="edge"><title>Node1&#45;&gt;Node17</title>
<path fill="none" stroke="midnightblue" d="M396.389,-280.324C407.65,-272.107 424.787,-259.602 438.209,-249.807"/>
<polygon fill="midnightblue" stroke="midnightblue" points="440.38,-252.556 446.394,-243.834 436.253,-246.901 440.38,-252.556"/>
</g>
<!-- Node3 -->
<g id="node3" class="node"><title>Node3</title>
<g id="a_node3"><a xlink:href="Component_8h.html" target="_top" xlink:title="Component.h">
<polygon fill="white" stroke="black" points="200,-168.5 200,-187.5 275,-187.5 275,-168.5 200,-168.5"/>
<text text-anchor="middle" x="237.5" y="-175.5" font-family="Helvetica,sans-Serif" font-size="10.00">Component.h</text>
</a>
</g>
</g>
<!-- Node2&#45;&gt;Node3 -->
<g id="edge2" class="edge"><title>Node2&#45;&gt;Node3</title>
<path fill="none" stroke="midnightblue" d="M237.5,-224.083C237.5,-217.006 237.5,-206.861 237.5,-197.986"/>
<polygon fill="midnightblue" stroke="midnightblue" points="241,-197.751 237.5,-187.751 234,-197.751 241,-197.751"/>
</g>
<!-- Node11 -->
<g id="node11" class="node"><title>Node11</title>
<g id="a_node11"><a xlink:href="TileMap_8h.html" target="_top" xlink:title="TileMap.h">
<polygon fill="white" stroke="black" points="123,-168.5 123,-187.5 182,-187.5 182,-168.5 123,-168.5"/>
<text text-anchor="middle" x="152.5" y="-175.5" font-family="Helvetica,sans-Serif" font-size="10.00">TileMap.h</text>
</a>
</g>
</g>
<!-- Node2&#45;&gt;Node11 -->
<g id="edge11" class="edge"><title>Node2&#45;&gt;Node11</title>
<path fill="none" stroke="midnightblue" d="M223.843,-224.324C210.584,-215.9 190.232,-202.971 174.654,-193.074"/>
<polygon fill="midnightblue" stroke="midnightblue" points="176.44,-190.063 166.123,-187.655 172.687,-195.971 176.44,-190.063"/>
</g>
<!-- Node4 -->
<g id="node4" class="node"><title>Node4</title>
<g id="a_node4"><a xlink:href="GameObject_8h.html" target="_top" xlink:title="GameObject.h">
<polygon fill="white" stroke="black" points="189.5,-112.5 189.5,-131.5 269.5,-131.5 269.5,-112.5 189.5,-112.5"/>
<text text-anchor="middle" x="229.5" y="-119.5" font-family="Helvetica,sans-Serif" font-size="10.00">GameObject.h</text>
</a>
</g>
</g>
<!-- Node3&#45;&gt;Node4 -->
<g id="edge3" class="edge"><title>Node3&#45;&gt;Node4</title>
<path fill="none" stroke="midnightblue" d="M231.013,-168.083C228.471,-161.006 226.531,-150.861 225.834,-141.986"/>
<polygon fill="midnightblue" stroke="midnightblue" points="229.33,-141.692 225.665,-131.751 222.331,-141.807 229.33,-141.692"/>
</g>
<!-- Node4&#45;&gt;Node3 -->
<g id="edge10" class="edge"><title>Node4&#45;&gt;Node3</title>
<path fill="none" stroke="midnightblue" d="M235.927,-131.751C238.478,-138.78 240.433,-148.91 241.149,-157.805"/>
<polygon fill="midnightblue" stroke="midnightblue" points="237.655,-158.152 241.345,-168.083 244.654,-158.018 237.655,-158.152"/>
</g>
<!-- Node5 -->
<g id="node5" class="node"><title>Node5</title>
<polygon fill="white" stroke="#bfbfbf" points="140.5,-56.5 140.5,-75.5 184.5,-75.5 184.5,-56.5 140.5,-56.5"/>
<text text-anchor="middle" x="162.5" y="-63.5" font-family="Helvetica,sans-Serif" font-size="10.00">vector</text>
</g>
<!-- Node4&#45;&gt;Node5 -->
<g id="edge4" class="edge"><title>Node4&#45;&gt;Node5</title>
<path fill="none" stroke="midnightblue" d="M218.735,-112.324C208.734,-104.263 193.613,-92.0765 181.57,-82.3695"/>
<polygon fill="midnightblue" stroke="midnightblue" points="183.443,-79.3841 173.461,-75.8339 179.05,-84.8343 183.443,-79.3841"/>
</g>
<!-- Node6 -->
<g id="node6" class="node"><title>Node6</title>
<polygon fill="white" stroke="#bfbfbf" points="155.5,-0.5 155.5,-19.5 207.5,-19.5 207.5,-0.5 155.5,-0.5"/>
<text text-anchor="middle" x="181.5" y="-7.5" font-family="Helvetica,sans-Serif" font-size="10.00">memory</text>
</g>
<!-- Node4&#45;&gt;Node6 -->
<g id="edge5" class="edge"><title>Node4&#45;&gt;Node6</title>
<path fill="none" stroke="midnightblue" d="M225.734,-112.368C217.917,-94.4563 199.794,-52.9233 189.332,-28.9482"/>
<polygon fill="midnightblue" stroke="midnightblue" points="192.456,-27.357 185.249,-19.5914 186.041,-30.1566 192.456,-27.357"/>
</g>
<!-- Node7 -->
<g id="node7" class="node"><title>Node7</title>
<g id="a_node7"><a xlink:href="Rect_8h.html" target="_top" xlink:title="Rect.h">
<polygon fill="white" stroke="black" points="240.5,-56.5 240.5,-75.5 286.5,-75.5 286.5,-56.5 240.5,-56.5"/>
<text text-anchor="middle" x="263.5" y="-63.5" font-family="Helvetica,sans-Serif" font-size="10.00">Rect.h</text>
</a>
</g>
</g>
<!-- Node4&#45;&gt;Node7 -->
<g id="edge6" class="edge"><title>Node4&#45;&gt;Node7</title>
<path fill="none" stroke="midnightblue" d="M235.114,-112.083C239.867,-104.534 246.818,-93.4948 252.652,-84.2298"/>
<polygon fill="midnightblue" stroke="midnightblue" points="255.624,-86.0783 257.99,-75.7511 249.7,-82.3486 255.624,-86.0783"/>
</g>
<!-- Node10 -->
<g id="node10" class="node"><title>Node10</title>
<polygon fill="white" stroke="#bfbfbf" points="0,-0.5 0,-19.5 41,-19.5 41,-0.5 0,-0.5"/>
<text text-anchor="middle" x="20.5" y="-7.5" font-family="Helvetica,sans-Serif" font-size="10.00">string</text>
</g>
<!-- Node4&#45;&gt;Node10 -->
<g id="edge9" class="edge"><title>Node4&#45;&gt;Node10</title>
<path fill="none" stroke="midnightblue" d="M189.195,-118.084C153.277,-113.74 100.777,-102.925 63.5,-76 46.9238,-64.027 34.9334,-43.5381 27.8912,-28.7602"/>
<polygon fill="midnightblue" stroke="midnightblue" points="31.0822,-27.3223 23.8107,-19.6167 24.6898,-30.175 31.0822,-27.3223"/>
</g>
<!-- Node8 -->
<g id="node8" class="node"><title>Node8</title>
<g id="a_node8"><a xlink:href="Vec2_8h.html" target="_top" xlink:title="Vec2.h">
<polygon fill="white" stroke="black" points="316,-0.5 316,-19.5 363,-19.5 363,-0.5 316,-0.5"/>
<text text-anchor="middle" x="339.5" y="-7.5" font-family="Helvetica,sans-Serif" font-size="10.00">Vec2.h</text>
</a>
</g>
</g>
<!-- Node7&#45;&gt;Node8 -->
<g id="edge7" class="edge"><title>Node7&#45;&gt;Node8</title>
<path fill="none" stroke="midnightblue" d="M275.711,-56.324C287.276,-48.1066 304.875,-35.6017 318.661,-25.8069"/>
<polygon fill="midnightblue" stroke="midnightblue" points="320.943,-28.4791 327.067,-19.8339 316.888,-22.7729 320.943,-28.4791"/>
</g>
<!-- Node9 -->
<g id="node9" class="node"><title>Node9</title>
<polygon fill="white" stroke="#bfbfbf" points="241.5,-0.5 241.5,-19.5 285.5,-19.5 285.5,-0.5 241.5,-0.5"/>
<text text-anchor="middle" x="263.5" y="-7.5" font-family="Helvetica,sans-Serif" font-size="10.00">cmath</text>
</g>
<!-- Node7&#45;&gt;Node9 -->
<g id="edge8" class="edge"><title>Node7&#45;&gt;Node9</title>
<path fill="none" stroke="midnightblue" d="M263.5,-56.083C263.5,-49.0059 263.5,-38.8611 263.5,-29.9865"/>
<polygon fill="midnightblue" stroke="midnightblue" points="267,-29.751 263.5,-19.7511 260,-29.7511 267,-29.751"/>
</g>
<!-- Node11&#45;&gt;Node4 -->
<g id="edge21" class="edge"><title>Node11&#45;&gt;Node4</title>
<path fill="none" stroke="midnightblue" d="M164.871,-168.324C176.658,-160.058 194.632,-147.453 208.636,-137.632"/>
<polygon fill="midnightblue" stroke="midnightblue" points="210.982,-140.262 217.159,-131.655 206.962,-134.531 210.982,-140.262"/>
</g>
<!-- Node11&#45;&gt;Node5 -->
<g id="edge13" class="edge"><title>Node11&#45;&gt;Node5</title>
<path fill="none" stroke="midnightblue" d="M153.285,-168.368C154.898,-150.617 158.621,-109.666 160.809,-85.5974"/>
<polygon fill="midnightblue" stroke="midnightblue" points="164.299,-85.8673 161.719,-75.5914 157.328,-85.2334 164.299,-85.8673"/>
</g>
<!-- Node11&#45;&gt;Node8 -->
<g id="edge20" class="edge"><title>Node11&#45;&gt;Node8</title>
<path fill="none" stroke="midnightblue" d="M182.036,-169.201C214.477,-160.168 263.919,-144.878 278.5,-132 310.129,-104.066 327.383,-55.8719 334.878,-29.524"/>
<polygon fill="midnightblue" stroke="midnightblue" points="338.304,-30.257 337.506,-19.6923 331.542,-28.4493 338.304,-30.257"/>
</g>
<!-- Node11&#45;&gt;Node10 -->
<g id="edge12" class="edge"><title>Node11&#45;&gt;Node10</title>
<path fill="none" stroke="midnightblue" d="M127.895,-168.478C108.475,-160.937 81.4277,-148.557 61.5,-132 37.5705,-112.118 29.3382,-105.515 19.5,-76 14.5313,-61.094 15.2626,-43.1771 16.9637,-29.9325"/>
<polygon fill="midnightblue" stroke="midnightblue" points="20.4786,-30.1141 18.5894,-19.6891 13.5651,-29.0169 20.4786,-30.1141"/>
</g>
<!-- Node12 -->
<g id="node12" class="node"><title>Node12</title>
<g id="a_node12"><a xlink:href="Tileset_8h.html" target="_top" xlink:title="Tileset.h">
<polygon fill="white" stroke="black" points="70.5,-112.5 70.5,-131.5 124.5,-131.5 124.5,-112.5 70.5,-112.5"/>
<text text-anchor="middle" x="97.5" y="-119.5" font-family="Helvetica,sans-Serif" font-size="10.00">Tileset.h</text>
</a>
</g>
</g>
<!-- Node11&#45;&gt;Node12 -->
<g id="edge14" class="edge"><title>Node11&#45;&gt;Node12</title>
<path fill="none" stroke="midnightblue" d="M143.418,-168.083C135.329,-160.141 123.305,-148.335 113.59,-138.797"/>
<polygon fill="midnightblue" stroke="midnightblue" points="116.001,-136.26 106.413,-131.751 111.097,-141.254 116.001,-136.26"/>
</g>
<!-- Node12&#45;&gt;Node10 -->
<g id="edge15" class="edge"><title>Node12&#45;&gt;Node10</title>
<path fill="none" stroke="midnightblue" d="M76.4618,-112.476C61.167,-105.14 41.3204,-93.0307 30.5,-76 21.7942,-62.2975 19.6742,-43.7643 19.51,-29.9937"/>
<polygon fill="midnightblue" stroke="midnightblue" points="23.0142,-29.8302 19.7303,-19.7571 16.0158,-29.6795 23.0142,-29.8302"/>
</g>
<!-- Node13 -->
<g id="node13" class="node"><title>Node13</title>
<g id="a_node13"><a xlink:href="Sprite_8h.html" target="_top" xlink:title="Sprite.h">
<polygon fill="white" stroke="black" points="72.5,-56.5 72.5,-75.5 122.5,-75.5 122.5,-56.5 72.5,-56.5"/>
<text text-anchor="middle" x="97.5" y="-63.5" font-family="Helvetica,sans-Serif" font-size="10.00">Sprite.h</text>
</a>
</g>
</g>
<!-- Node12&#45;&gt;Node13 -->
<g id="edge16" class="edge"><title>Node12&#45;&gt;Node13</title>
<path fill="none" stroke="midnightblue" d="M97.5,-112.083C97.5,-105.006 97.5,-94.8611 97.5,-85.9865"/>
<polygon fill="midnightblue" stroke="midnightblue" points="101,-85.751 97.5,-75.7511 94.0001,-85.7511 101,-85.751"/>
</g>
<!-- Node13&#45;&gt;Node6 -->
<g id="edge19" class="edge"><title>Node13&#45;&gt;Node6</title>
<path fill="none" stroke="midnightblue" d="M110.996,-56.324C124.1,-47.9002 144.212,-34.9709 159.607,-25.0741"/>
<polygon fill="midnightblue" stroke="midnightblue" points="161.518,-28.0063 168.037,-19.6545 157.733,-22.118 161.518,-28.0063"/>
</g>
<!-- Node13&#45;&gt;Node10 -->
<g id="edge18" class="edge"><title>Node13&#45;&gt;Node10</title>
<path fill="none" stroke="midnightblue" d="M85.1286,-56.324C73.3415,-48.0577 55.3677,-35.4527 41.3645,-25.6322"/>
<polygon fill="midnightblue" stroke="midnightblue" points="43.0376,-22.5307 32.8407,-19.6545 39.0184,-28.2619 43.0376,-22.5307"/>
</g>
<!-- Node14 -->
<g id="node14" class="node"><title>Node14</title>
<g id="a_node14"><a xlink:href="Color_8h.html" target="_top" xlink:title="Color.h">
<polygon fill="white" stroke="black" points="73.5,-0.5 73.5,-19.5 121.5,-19.5 121.5,-0.5 73.5,-0.5"/>
<text text-anchor="middle" x="97.5" y="-7.5" font-family="Helvetica,sans-Serif" font-size="10.00">Color.h</text>
</a>
</g>
</g>
<!-- Node13&#45;&gt;Node14 -->
<g id="edge17" class="edge"><title>Node13&#45;&gt;Node14</title>
<path fill="none" stroke="midnightblue" d="M97.5,-56.083C97.5,-49.0059 97.5,-38.8611 97.5,-29.9865"/>
<polygon fill="midnightblue" stroke="midnightblue" points="101,-29.751 97.5,-19.7511 94.0001,-29.7511 101,-29.751"/>
</g>
<!-- Node15&#45;&gt;Node8 -->
<g id="edge23" class="edge"><title>Node15&#45;&gt;Node8</title>
<path fill="none" stroke="midnightblue" d="M415.987,-112.368C402.229,-94.135 370.003,-51.4257 352.082,-27.6752"/>
<polygon fill="midnightblue" stroke="midnightblue" points="354.8,-25.4659 345.983,-19.5914 349.212,-29.6821 354.8,-25.4659"/>
</g>
<!-- Node16&#45;&gt;Node4 -->
<g id="edge25" class="edge"><title>Node16&#45;&gt;Node4</title>
<path fill="none" stroke="midnightblue" d="M327.119,-168.444C308.284,-159.675 278.769,-145.935 257.121,-135.858"/>
<polygon fill="midnightblue" stroke="midnightblue" points="258.338,-132.564 247.795,-131.516 255.383,-138.91 258.338,-132.564"/>
</g>
<!-- Node16&#45;&gt;Node8 -->
<g id="edge26" class="edge"><title>Node16&#45;&gt;Node8</title>
<path fill="none" stroke="midnightblue" d="M345.177,-168.075C344.233,-141.945 341.459,-65.2106 340.171,-29.577"/>
<polygon fill="midnightblue" stroke="midnightblue" points="343.669,-29.4351 339.81,-19.5681 336.673,-29.688 343.669,-29.4351"/>
</g>
<!-- Node18 -->
<g id="node18" class="node"><title>Node18</title>
<polygon fill="white" stroke="#bfbfbf" points="431.5,-168.5 431.5,-187.5 485.5,-187.5 485.5,-168.5 431.5,-168.5"/>
<text text-anchor="middle" x="458.5" y="-175.5" font-family="Helvetica,sans-Serif" font-size="10.00">iostream</text>
</g>
<!-- Node17&#45;&gt;Node18 -->
<g id="edge28" class="edge"><title>Node17&#45;&gt;Node18</title>
<path fill="none" stroke="midnightblue" d="M458.5,-224.083C458.5,-217.006 458.5,-206.861 458.5,-197.986"/>
<polygon fill="midnightblue" stroke="midnightblue" points="462,-197.751 458.5,-187.751 455,-197.751 462,-197.751"/>
</g>
<!-- Node19 -->
<g id="node19" class="node"><title>Node19</title>
<polygon fill="white" stroke="#bfbfbf" points="503.5,-168.5 503.5,-187.5 551.5,-187.5 551.5,-168.5 503.5,-168.5"/>
<text text-anchor="middle" x="527.5" y="-175.5" font-family="Helvetica,sans-Serif" font-size="10.00">stdlib.h</text>
</g>
<!-- Node17&#45;&gt;Node19 -->
<g id="edge29" class="edge"><title>Node17&#45;&gt;Node19</title>
<path fill="none" stroke="midnightblue" d="M469.586,-224.324C479.986,-216.185 495.761,-203.839 508.222,-194.087"/>
<polygon fill="midnightblue" stroke="midnightblue" points="510.494,-196.753 516.212,-187.834 506.18,-191.241 510.494,-196.753"/>
</g>
</g>
</svg>
