<?xml version="1.0" encoding="UTF-8" standalone="no"?>
<!DOCTYPE svg PUBLIC "-//W3C//DTD SVG 1.1//EN"
 "http://www.w3.org/Graphics/SVG/1.1/DTD/svg11.dtd">
<!-- Generated by graphviz version 2.38.0 (20140413.2041)
 -->
<!-- Title: Engine/include/DragAndDrop.h Pages: 1 -->
<svg width="646pt" height="364pt"
 viewBox="0.00 0.00 646.00 364.00" xmlns="http://www.w3.org/2000/svg" xmlns:xlink="http://www.w3.org/1999/xlink">
<g id="graph0" class="graph" transform="scale(1 1) rotate(0) translate(4 360)">
<title>Engine/include/DragAndDrop.h</title>
<polygon fill="white" stroke="none" points="-4,4 -4,-360 642,-360 642,4 -4,4"/>
<!-- Node1 -->
<g id="node1" class="node"><title>Node1</title>
<polygon fill="#bfbfbf" stroke="black" points="242.5,-336.5 242.5,-355.5 393.5,-355.5 393.5,-336.5 242.5,-336.5"/>
<text text-anchor="middle" x="318" y="-343.5" font-family="Helvetica,sans-Serif" font-size="10.00">Engine/include/DragAndDrop.h</text>
</g>
<!-- Node2 -->
<g id="node2" class="node"><title>Node2</title>
<g id="a_node2"><a xlink:href="Component_8h.html" target="_top" xlink:title="Component.h">
<polygon fill="white" stroke="black" points="203.5,-224.5 203.5,-243.5 278.5,-243.5 278.5,-224.5 203.5,-224.5"/>
<text text-anchor="middle" x="241" y="-231.5" font-family="Helvetica,sans-Serif" font-size="10.00">Component.h</text>
</a>
</g>
</g>
<!-- Node1&#45;&gt;Node2 -->
<g id="edge1" class="edge"><title>Node1&#45;&gt;Node2</title>
<path fill="none" stroke="midnightblue" d="M311.958,-336.368C299.251,-318.215 269.561,-275.802 252.893,-251.99"/>
<polygon fill="midnightblue" stroke="midnightblue" points="255.616,-249.777 247.014,-243.591 249.881,-253.791 255.616,-249.777"/>
</g>
<!-- Node12 -->
<g id="node12" class="node"><title>Node12</title>
<g id="a_node12"><a xlink:href="TileMap_8h.html" target="_top" xlink:title="TileMap.h">
<polygon fill="white" stroke="black" points="323.5,-280.5 323.5,-299.5 382.5,-299.5 382.5,-280.5 323.5,-280.5"/>
<text text-anchor="middle" x="353" y="-287.5" font-family="Helvetica,sans-Serif" font-size="10.00">TileMap.h</text>
</a>
</g>
</g>
<!-- Node1&#45;&gt;Node12 -->
<g id="edge15" class="edge"><title>Node1&#45;&gt;Node12</title>
<path fill="none" stroke="midnightblue" d="M323.78,-336.083C328.672,-328.534 335.827,-317.495 341.833,-308.23"/>
<polygon fill="midnightblue" stroke="midnightblue" points="344.826,-310.046 347.328,-299.751 338.952,-306.239 344.826,-310.046"/>
</g>
<!-- Node3 -->
<g id="node3" class="node"><title>Node3</title>
<g id="a_node3"><a xlink:href="ComponentType_8h.html" target="_top" xlink:title="ComponentType.h">
<polygon fill="white" stroke="black" points="61.5,-112.5 61.5,-131.5 158.5,-131.5 158.5,-112.5 61.5,-112.5"/>
<text text-anchor="middle" x="110" y="-119.5" font-family="Helvetica,sans-Serif" font-size="10.00">ComponentType.h</text>
</a>
</g>
</g>
<!-- Node2&#45;&gt;Node3 -->
<g id="edge2" class="edge"><title>Node2&#45;&gt;Node3</title>
<path fill="none" stroke="midnightblue" d="M230.721,-224.368C208.528,-205.733 155.889,-161.532 128.023,-138.134"/>
<polygon fill="midnightblue" stroke="midnightblue" points="130.141,-135.342 120.232,-131.591 125.639,-140.702 130.141,-135.342"/>
</g>
<!-- Node4 -->
<g id="node4" class="node"><title>Node4</title>
<g id="a_node4"><a xlink:href="GameObject_8h.html" target="_top" xlink:title="GameObject.h">
<polygon fill="white" stroke="black" points="201,-168.5 201,-187.5 281,-187.5 281,-168.5 201,-168.5"/>
<text text-anchor="middle" x="241" y="-175.5" font-family="Helvetica,sans-Serif" font-size="10.00">GameObject.h</text>
</a>
</g>
</g>
<!-- Node2&#45;&gt;Node4 -->
<g id="edge3" class="edge"><title>Node2&#45;&gt;Node4</title>
<path fill="none" stroke="midnightblue" d="M235.834,-224.083C234.324,-216.927 233.894,-206.635 234.542,-197.691"/>
<polygon fill="midnightblue" stroke="midnightblue" points="238.015,-198.126 235.869,-187.751 231.077,-197.2 238.015,-198.126"/>
</g>
<!-- Node4&#45;&gt;Node2 -->
<g id="edge8" class="edge"><title>Node4&#45;&gt;Node2</title>
<path fill="none" stroke="midnightblue" d="M246.131,-187.751C247.657,-194.858 248.104,-205.136 247.472,-214.101"/>
<polygon fill="midnightblue" stroke="midnightblue" points="243.993,-213.713 246.166,-224.083 250.934,-214.622 243.993,-213.713"/>
</g>
<!-- Node4&#45;&gt;Node3 -->
<g id="edge9" class="edge"><title>Node4&#45;&gt;Node3</title>
<path fill="none" stroke="midnightblue" d="M220.243,-168.444C198.684,-159.557 164.737,-145.563 140.206,-135.451"/>
<polygon fill="midnightblue" stroke="midnightblue" points="141.239,-132.092 130.66,-131.516 138.572,-138.563 141.239,-132.092"/>
</g>
<!-- Node5 -->
<g id="node5" class="node"><title>Node5</title>
<g id="a_node5"><a xlink:href="SDL__include_8h.html" target="_top" xlink:title="SDL_include.h">
<polygon fill="white" stroke="black" points="319,-0.5 319,-19.5 399,-19.5 399,-0.5 319,-0.5"/>
<text text-anchor="middle" x="359" y="-7.5" font-family="Helvetica,sans-Serif" font-size="10.00">SDL_include.h</text>
</a>
</g>
</g>
<!-- Node4&#45;&gt;Node5 -->
<g id="edge4" class="edge"><title>Node4&#45;&gt;Node5</title>
<path fill="none" stroke="midnightblue" d="M231.444,-168.45C222.912,-160.12 211.011,-146.604 206,-132 193.991,-96.9991 211.54,-79.6494 240,-56 259.755,-39.584 286.119,-28.7964 309.01,-21.9112"/>
<polygon fill="midnightblue" stroke="midnightblue" points="310.245,-25.1992 318.911,-19.1053 308.336,-18.4644 310.245,-25.1992"/>
</g>
<!-- Node6 -->
<g id="node6" class="node"><title>Node6</title>
<polygon fill="white" stroke="#bfbfbf" points="0,-112.5 0,-131.5 44,-131.5 44,-112.5 0,-112.5"/>
<text text-anchor="middle" x="22" y="-119.5" font-family="Helvetica,sans-Serif" font-size="10.00">vector</text>
</g>
<!-- Node4&#45;&gt;Node6 -->
<g id="edge5" class="edge"><title>Node4&#45;&gt;Node6</title>
<path fill="none" stroke="midnightblue" d="M202.104,-168.429C165.873,-160.292 110.142,-147.387 53.9862,-132.441"/>
<polygon fill="midnightblue" stroke="midnightblue" points="54.8048,-129.037 44.2395,-129.828 52.9916,-135.798 54.8048,-129.037"/>
</g>
<!-- Node7 -->
<g id="node7" class="node"><title>Node7</title>
<polygon fill="white" stroke="#bfbfbf" points="215,-112.5 215,-131.5 267,-131.5 267,-112.5 215,-112.5"/>
<text text-anchor="middle" x="241" y="-119.5" font-family="Helvetica,sans-Serif" font-size="10.00">memory</text>
</g>
<!-- Node4&#45;&gt;Node7 -->
<g id="edge6" class="edge"><title>Node4&#45;&gt;Node7</title>
<path fill="none" stroke="midnightblue" d="M241,-168.083C241,-161.006 241,-150.861 241,-141.986"/>
<polygon fill="midnightblue" stroke="midnightblue" points="244.5,-141.751 241,-131.751 237.5,-141.751 244.5,-141.751"/>
</g>
<!-- Node8 -->
<g id="node8" class="node"><title>Node8</title>
<polygon fill="white" stroke="#bfbfbf" points="555.5,-112.5 555.5,-131.5 596.5,-131.5 596.5,-112.5 555.5,-112.5"/>
<text text-anchor="middle" x="576" y="-119.5" font-family="Helvetica,sans-Serif" font-size="10.00">string</text>
</g>
<!-- Node4&#45;&gt;Node8 -->
<g id="edge7" class="edge"><title>Node4&#45;&gt;Node8</title>
<path fill="none" stroke="midnightblue" d="M281.306,-172.937C338.108,-166.801 445.04,-153.747 545.441,-131.815"/>
<polygon fill="midnightblue" stroke="midnightblue" points="546.443,-135.177 555.447,-129.594 544.926,-128.344 546.443,-135.177"/>
</g>
<!-- Node9 -->
<g id="node9" class="node"><title>Node9</title>
<g id="a_node9"><a xlink:href="Rect_8h.html" target="_top" xlink:title="Rect.h">
<polygon fill="white" stroke="black" points="285,-112.5 285,-131.5 331,-131.5 331,-112.5 285,-112.5"/>
<text text-anchor="middle" x="308" y="-119.5" font-family="Helvetica,sans-Serif" font-size="10.00">Rect.h</text>
</a>
</g>
</g>
<!-- Node4&#45;&gt;Node9 -->
<g id="edge10" class="edge"><title>Node4&#45;&gt;Node9</title>
<path fill="none" stroke="midnightblue" d="M251.765,-168.324C261.766,-160.263 276.887,-148.077 288.93,-138.369"/>
<polygon fill="midnightblue" stroke="midnightblue" points="291.45,-140.834 297.039,-131.834 287.057,-135.384 291.45,-140.834"/>
</g>
<!-- Node9&#45;&gt;Node5 -->
<g id="edge11" class="edge"><title>Node9&#45;&gt;Node5</title>
<path fill="none" stroke="midnightblue" d="M312.002,-112.368C320.307,-94.4563 339.563,-52.9233 350.679,-28.9482"/>
<polygon fill="midnightblue" stroke="midnightblue" points="353.986,-30.136 355.017,-19.5914 347.635,-27.1916 353.986,-30.136"/>
</g>
<!-- Node10 -->
<g id="node10" class="node"><title>Node10</title>
<g id="a_node10"><a xlink:href="Vec2_8h.html" target="_top" xlink:title="Vec2.h">
<polygon fill="white" stroke="black" points="425.5,-56.5 425.5,-75.5 472.5,-75.5 472.5,-56.5 425.5,-56.5"/>
<text text-anchor="middle" x="449" y="-63.5" font-family="Helvetica,sans-Serif" font-size="10.00">Vec2.h</text>
</a>
</g>
</g>
<!-- Node9&#45;&gt;Node10 -->
<g id="edge12" class="edge"><title>Node9&#45;&gt;Node10</title>
<path fill="none" stroke="midnightblue" d="M330.342,-112.444C353.753,-103.478 390.736,-89.314 417.19,-79.1827"/>
<polygon fill="midnightblue" stroke="midnightblue" points="418.676,-82.3615 426.763,-75.5164 416.172,-75.8245 418.676,-82.3615"/>
</g>
<!-- Node11 -->
<g id="node11" class="node"><title>Node11</title>
<polygon fill="white" stroke="#bfbfbf" points="249,-56.5 249,-75.5 293,-75.5 293,-56.5 249,-56.5"/>
<text text-anchor="middle" x="271" y="-63.5" font-family="Helvetica,sans-Serif" font-size="10.00">cmath</text>
</g>
<!-- Node9&#45;&gt;Node11 -->
<g id="edge14" class="edge"><title>Node9&#45;&gt;Node11</title>
<path fill="none" stroke="midnightblue" d="M301.89,-112.083C296.718,-104.534 289.154,-93.4948 282.806,-84.2298"/>
<polygon fill="midnightblue" stroke="midnightblue" points="285.536,-82.0221 276.996,-75.7511 279.761,-85.9787 285.536,-82.0221"/>
</g>
<!-- Node10&#45;&gt;Node5 -->
<g id="edge13" class="edge"><title>Node10&#45;&gt;Node5</title>
<path fill="none" stroke="midnightblue" d="M434.54,-56.324C420.5,-47.9002 398.952,-34.9709 382.457,-25.0741"/>
<polygon fill="midnightblue" stroke="midnightblue" points="383.8,-21.7983 373.424,-19.6545 380.198,-27.8007 383.8,-21.7983"/>
</g>
<!-- Node12&#45;&gt;Node4 -->
<g id="edge18" class="edge"><title>Node12&#45;&gt;Node4</title>
<path fill="none" stroke="midnightblue" d="M344.042,-280.159C331.358,-267.644 307.43,-244.053 287,-224 277.111,-214.293 266.006,-203.429 257.186,-194.808"/>
<polygon fill="midnightblue" stroke="midnightblue" points="259.426,-192.103 249.827,-187.618 254.534,-197.11 259.426,-192.103"/>
</g>
<!-- Node12&#45;&gt;Node6 -->
<g id="edge17" class="edge"><title>Node12&#45;&gt;Node6</title>
<path fill="none" stroke="midnightblue" d="M323.211,-283.699C290.435,-277.163 236.737,-264.352 194,-244 132.497,-214.712 69.2783,-163.841 39.5155,-138.405"/>
<polygon fill="midnightblue" stroke="midnightblue" points="41.5679,-135.553 31.7135,-131.662 36.9904,-140.849 41.5679,-135.553"/>
</g>
<!-- Node12&#45;&gt;Node8 -->
<g id="edge16" class="edge"><title>Node12&#45;&gt;Node8</title>
<path fill="none" stroke="midnightblue" d="M366.459,-280.45C380.3,-271.575 402.4,-257.172 421,-244 472,-207.882 529.321,-161.546 557.843,-138.074"/>
<polygon fill="midnightblue" stroke="midnightblue" points="560.249,-140.626 565.731,-131.56 555.792,-135.229 560.249,-140.626"/>
</g>
<!-- Node12&#45;&gt;Node10 -->
<g id="edge32" class="edge"><title>Node12&#45;&gt;Node10</title>
<path fill="none" stroke="midnightblue" d="M382.561,-281.352C438.728,-264.995 559.333,-220.673 605,-132 609.07,-124.098 610.344,-119.103 605,-112 604.525,-111.368 528.08,-89.5157 482.392,-76.4997"/>
<polygon fill="midnightblue" stroke="midnightblue" points="483.176,-73.0839 472.6,-73.7111 481.259,-79.8162 483.176,-73.0839"/>
</g>
<!-- Node13 -->
<g id="node13" class="node"><title>Node13</title>
<g id="a_node13"><a xlink:href="Tileset_8h.html" target="_top" xlink:title="Tileset.h">
<polygon fill="white" stroke="black" points="358,-224.5 358,-243.5 412,-243.5 412,-224.5 358,-224.5"/>
<text text-anchor="middle" x="385" y="-231.5" font-family="Helvetica,sans-Serif" font-size="10.00">Tileset.h</text>
</a>
</g>
</g>
<!-- Node12&#45;&gt;Node13 -->
<g id="edge19" class="edge"><title>Node12&#45;&gt;Node13</title>
<path fill="none" stroke="midnightblue" d="M358.284,-280.083C362.711,-272.613 369.163,-261.724 374.618,-252.52"/>
<polygon fill="midnightblue" stroke="midnightblue" points="377.727,-254.138 379.814,-243.751 371.705,-250.57 377.727,-254.138"/>
</g>
<!-- Node13&#45;&gt;Node8 -->
<g id="edge20" class="edge"><title>Node13&#45;&gt;Node8</title>
<path fill="none" stroke="midnightblue" d="M399.987,-224.368C433.042,-205.332 512.423,-159.615 552.298,-136.65"/>
<polygon fill="midnightblue" stroke="midnightblue" points="554.163,-139.615 561.082,-131.591 550.67,-133.549 554.163,-139.615"/>
</g>
<!-- Node14 -->
<g id="node14" class="node"><title>Node14</title>
<g id="a_node14"><a xlink:href="Sprite_8h.html" target="_top" xlink:title="Sprite.h">
<polygon fill="white" stroke="black" points="360,-168.5 360,-187.5 410,-187.5 410,-168.5 360,-168.5"/>
<text text-anchor="middle" x="385" y="-175.5" font-family="Helvetica,sans-Serif" font-size="10.00">Sprite.h</text>
</a>
</g>
</g>
<!-- Node13&#45;&gt;Node14 -->
<g id="edge21" class="edge"><title>Node13&#45;&gt;Node14</title>
<path fill="none" stroke="midnightblue" d="M385,-224.083C385,-217.006 385,-206.861 385,-197.986"/>
<polygon fill="midnightblue" stroke="midnightblue" points="388.5,-197.751 385,-187.751 381.5,-197.751 388.5,-197.751"/>
</g>
<!-- Node14&#45;&gt;Node5 -->
<g id="edge22" class="edge"><title>Node14&#45;&gt;Node5</title>
<path fill="none" stroke="midnightblue" d="M383.602,-168.075C379.51,-141.945 367.491,-65.2106 361.91,-29.577"/>
<polygon fill="midnightblue" stroke="midnightblue" points="365.347,-28.906 360.342,-19.5681 358.432,-29.9893 365.347,-28.906"/>
</g>
<!-- Node14&#45;&gt;Node7 -->
<g id="edge24" class="edge"><title>Node14&#45;&gt;Node7</title>
<path fill="none" stroke="midnightblue" d="M362.183,-168.444C338.168,-159.438 300.171,-145.189 273.131,-135.049"/>
<polygon fill="midnightblue" stroke="midnightblue" points="274.303,-131.751 263.71,-131.516 271.845,-138.305 274.303,-131.751"/>
</g>
<!-- Node14&#45;&gt;Node8 -->
<g id="edge23" class="edge"><title>Node14&#45;&gt;Node8</title>
<path fill="none" stroke="midnightblue" d="M410.14,-170.132C440.06,-161.923 491.765,-147.63 545.636,-132.065"/>
<polygon fill="midnightblue" stroke="midnightblue" points="546.727,-135.393 555.358,-129.248 544.779,-128.669 546.727,-135.393"/>
</g>
<!-- Node14&#45;&gt;Node9 -->
<g id="edge26" class="edge"><title>Node14&#45;&gt;Node9</title>
<path fill="none" stroke="midnightblue" d="M372.629,-168.324C360.842,-160.058 342.868,-147.453 328.864,-137.632"/>
<polygon fill="midnightblue" stroke="midnightblue" points="330.538,-134.531 320.341,-131.655 326.518,-140.262 330.538,-134.531"/>
</g>
<!-- Node15 -->
<g id="node15" class="node"><title>Node15</title>
<g id="a_node15"><a xlink:href="Color_8h.html" target="_top" xlink:title="Color.h">
<polygon fill="white" stroke="black" points="489,-112.5 489,-131.5 537,-131.5 537,-112.5 489,-112.5"/>
<text text-anchor="middle" x="513" y="-119.5" font-family="Helvetica,sans-Serif" font-size="10.00">Color.h</text>
</a>
</g>
</g>
<!-- Node14&#45;&gt;Node15 -->
<g id="edge25" class="edge"><title>Node14&#45;&gt;Node15</title>
<path fill="none" stroke="midnightblue" d="M405.282,-168.444C426.347,-159.557 459.517,-145.563 483.486,-135.451"/>
<polygon fill="midnightblue" stroke="midnightblue" points="484.96,-138.628 492.813,-131.516 482.239,-132.179 484.96,-138.628"/>
</g>
<!-- Node16 -->
<g id="node16" class="node"><title>Node16</title>
<g id="a_node16"><a xlink:href="InputManager_8h.html" target="_top" xlink:title="InputManager.h">
<polygon fill="white" stroke="black" points="387,-112.5 387,-131.5 471,-131.5 471,-112.5 387,-112.5"/>
<text text-anchor="middle" x="429" y="-119.5" font-family="Helvetica,sans-Serif" font-size="10.00">InputManager.h</text>
</a>
</g>
</g>
<!-- Node14&#45;&gt;Node16 -->
<g id="edge27" class="edge"><title>Node14&#45;&gt;Node16</title>
<path fill="none" stroke="midnightblue" d="M392.266,-168.083C398.545,-160.377 407.788,-149.033 415.431,-139.653"/>
<polygon fill="midnightblue" stroke="midnightblue" points="418.266,-141.714 421.869,-131.751 412.839,-137.293 418.266,-141.714"/>
</g>
<!-- Node16&#45;&gt;Node5 -->
<g id="edge28" class="edge"><title>Node16&#45;&gt;Node5</title>
<path fill="none" stroke="midnightblue" d="M423.507,-112.368C412.006,-94.2957 385.203,-52.1764 370.014,-28.3074"/>
<polygon fill="midnightblue" stroke="midnightblue" points="372.789,-26.149 364.467,-19.5914 366.883,-29.9071 372.789,-26.149"/>
</g>
<!-- Node16&#45;&gt;Node10 -->
<g id="edge29" class="edge"><title>Node16&#45;&gt;Node10</title>
<path fill="none" stroke="midnightblue" d="M432.303,-112.083C434.982,-104.849 438.849,-94.4087 442.186,-85.3968"/>
<polygon fill="midnightblue" stroke="midnightblue" points="445.568,-86.3442 445.759,-75.7511 439.004,-83.9129 445.568,-86.3442"/>
</g>
<!-- Node17 -->
<g id="node17" class="node"><title>Node17</title>
<polygon fill="white" stroke="#bfbfbf" points="490.5,-56.5 490.5,-75.5 573.5,-75.5 573.5,-56.5 490.5,-56.5"/>
<text text-anchor="middle" x="532" y="-63.5" font-family="Helvetica,sans-Serif" font-size="10.00">unordered_map</text>
</g>
<!-- Node16&#45;&gt;Node17 -->
<g id="edge30" class="edge"><title>Node16&#45;&gt;Node17</title>
<path fill="none" stroke="midnightblue" d="M445.549,-112.324C461.992,-103.703 487.435,-90.3643 506.468,-80.3855"/>
<polygon fill="midnightblue" stroke="midnightblue" points="508.261,-83.3977 515.492,-75.6545 505.011,-77.198 508.261,-83.3977"/>
</g>
<!-- Node18 -->
<g id="node18" class="node"><title>Node18</title>
<polygon fill="white" stroke="#bfbfbf" points="592,-56.5 592,-75.5 638,-75.5 638,-56.5 592,-56.5"/>
<text text-anchor="middle" x="615" y="-63.5" font-family="Helvetica,sans-Serif" font-size="10.00">cstdint</text>
</g>
<!-- Node16&#45;&gt;Node18 -->
<g id="edge31" class="edge"><title>Node16&#45;&gt;Node18</title>
<path fill="none" stroke="midnightblue" d="M458.472,-112.444C492.129,-102.672 547.05,-86.7275 582.082,-76.5567"/>
<polygon fill="midnightblue" stroke="midnightblue" points="583.208,-79.8745 591.836,-73.7251 581.257,-73.152 583.208,-79.8745"/>
</g>
</g>
</svg>
