<?xml version="1.0" encoding="UTF-8" standalone="no"?>
<!DOCTYPE svg PUBLIC "-//W3C//DTD SVG 1.1//EN"
 "http://www.w3.org/Graphics/SVG/1.1/DTD/svg11.dtd">
<!-- Generated by graphviz version 2.36.0 (20140111.2315)
 -->
<!-- Title: Game/include/EmptyGameObject.h Pages: 1 -->
<svg width="386pt" height="252pt"
 viewBox="0.00 0.00 385.52 252.00" xmlns="http://www.w3.org/2000/svg" xmlns:xlink="http://www.w3.org/1999/xlink">
<g id="graph0" class="graph" transform="scale(1 1) rotate(0) translate(4 248)">
<title>Game/include/EmptyGameObject.h</title>
<polygon fill="white" stroke="none" points="-4,4 -4,-248 381.518,-248 381.518,4 -4,4"/>
<!-- Node1 -->
<g id="node1" class="node"><title>Node1</title>
<polygon fill="#bfbfbf" stroke="black" points="160.018,-224.5 160.018,-243.5 331.018,-243.5 331.018,-224.5 160.018,-224.5"/>
<text text-anchor="middle" x="245.518" y="-231.5" font-family="Helvetica,sans-Serif" font-size="10.00">Game/include/EmptyGameObject.h</text>
</g>
<!-- Node2 -->
<g id="node2" class="node"><title>Node2</title>
<g id="a_node2"><a xlink:href="GameObject_8h.html" target="_top" xlink:title="GameObject.h">
<polygon fill="white" stroke="black" points="150.518,-168.5 150.518,-187.5 230.518,-187.5 230.518,-168.5 150.518,-168.5"/>
<text text-anchor="middle" x="190.518" y="-175.5" font-family="Helvetica,sans-Serif" font-size="10.00">GameObject.h</text>
</a>
</g>
</g>
<!-- Node1&#45;&gt;Node2 -->
<g id="edge1" class="edge"><title>Node1&#45;&gt;Node2</title>
<path fill="none" stroke="midnightblue" d="M236.436,-224.083C228.346,-216.141 216.322,-204.335 206.608,-194.797"/>
<polygon fill="midnightblue" stroke="midnightblue" points="209.019,-192.26 199.431,-187.751 204.114,-197.254 209.019,-192.26"/>
</g>
<!-- Node8 -->
<g id="node8" class="node"><title>Node8</title>
<g id="a_node8"><a xlink:href="Rect_8h.html" target="_top" xlink:title="Rect.h">
<polygon fill="white" stroke="black" points="300.518,-112.5 300.518,-131.5 346.518,-131.5 346.518,-112.5 300.518,-112.5"/>
<text text-anchor="middle" x="323.518" y="-119.5" font-family="Helvetica,sans-Serif" font-size="10.00">Rect.h</text>
</a>
</g>
</g>
<!-- Node1&#45;&gt;Node8 -->
<g id="edge13" class="edge"><title>Node1&#45;&gt;Node8</title>
<path fill="none" stroke="midnightblue" d="M251.638,-224.368C264.51,-206.215 294.586,-163.802 311.47,-139.99"/>
<polygon fill="midnightblue" stroke="midnightblue" points="314.496,-141.773 317.426,-131.591 308.786,-137.724 314.496,-141.773"/>
</g>
<!-- Node3 -->
<g id="node3" class="node"><title>Node3</title>
<g id="a_node3"><a xlink:href="SDL__include_8h.html" target="_top" xlink:title="SDL_include.h">
<polygon fill="white" stroke="black" points="199.518,-0.5 199.518,-19.5 279.518,-19.5 279.518,-0.5 199.518,-0.5"/>
<text text-anchor="middle" x="239.518" y="-7.5" font-family="Helvetica,sans-Serif" font-size="10.00">SDL_include.h</text>
</a>
</g>
</g>
<!-- Node2&#45;&gt;Node3 -->
<g id="edge2" class="edge"><title>Node2&#45;&gt;Node3</title>
<path fill="none" stroke="midnightblue" d="M150.302,-176.929C86.2617,-175.26 -28.2951,-165.033 6.51769,-112 46.9459,-50.4123 133.868,-26.1932 189.364,-16.7993"/>
<polygon fill="midnightblue" stroke="midnightblue" points="190.016,-20.2396 199.342,-15.2121 188.916,-13.3265 190.016,-20.2396"/>
</g>
<!-- Node4 -->
<g id="node4" class="node"><title>Node4</title>
<polygon fill="white" stroke="#bfbfbf" points="15.5177,-112.5 15.5177,-131.5 59.5177,-131.5 59.5177,-112.5 15.5177,-112.5"/>
<text text-anchor="middle" x="37.5177" y="-119.5" font-family="Helvetica,sans-Serif" font-size="10.00">vector</text>
</g>
<!-- Node2&#45;&gt;Node4 -->
<g id="edge3" class="edge"><title>Node2&#45;&gt;Node4</title>
<path fill="none" stroke="midnightblue" d="M166.274,-168.444C140.044,-159.186 98.1129,-144.387 69.2697,-134.207"/>
<polygon fill="midnightblue" stroke="midnightblue" points="70.2553,-130.843 59.6605,-130.815 67.9255,-137.444 70.2553,-130.843"/>
</g>
<!-- Node5 -->
<g id="node5" class="node"><title>Node5</title>
<polygon fill="white" stroke="#bfbfbf" points="77.5177,-112.5 77.5177,-131.5 129.518,-131.5 129.518,-112.5 77.5177,-112.5"/>
<text text-anchor="middle" x="103.518" y="-119.5" font-family="Helvetica,sans-Serif" font-size="10.00">memory</text>
</g>
<!-- Node2&#45;&gt;Node5 -->
<g id="edge4" class="edge"><title>Node2&#45;&gt;Node5</title>
<path fill="none" stroke="midnightblue" d="M176.54,-168.324C162.968,-159.9 142.137,-146.971 126.193,-137.074"/>
<polygon fill="midnightblue" stroke="midnightblue" points="127.803,-133.954 117.461,-131.655 124.112,-139.902 127.803,-133.954"/>
</g>
<!-- Node6 -->
<g id="node6" class="node"><title>Node6</title>
<polygon fill="white" stroke="#bfbfbf" points="148.018,-112.5 148.018,-131.5 189.018,-131.5 189.018,-112.5 148.018,-112.5"/>
<text text-anchor="middle" x="168.518" y="-119.5" font-family="Helvetica,sans-Serif" font-size="10.00">string</text>
</g>
<!-- Node2&#45;&gt;Node6 -->
<g id="edge5" class="edge"><title>Node2&#45;&gt;Node6</title>
<path fill="none" stroke="midnightblue" d="M186.885,-168.083C183.905,-160.77 179.592,-150.181 175.893,-141.103"/>
<polygon fill="midnightblue" stroke="midnightblue" points="179.097,-139.691 172.083,-131.751 172.615,-142.333 179.097,-139.691"/>
</g>
<!-- Node7 -->
<g id="node7" class="node"><title>Node7</title>
<g id="a_node7"><a xlink:href="Component_8h.html" target="_top" xlink:title="Component.h">
<polygon fill="white" stroke="black" points="207.018,-112.5 207.018,-131.5 282.018,-131.5 282.018,-112.5 207.018,-112.5"/>
<text text-anchor="middle" x="244.518" y="-119.5" font-family="Helvetica,sans-Serif" font-size="10.00">Component.h</text>
</a>
</g>
</g>
<!-- Node2&#45;&gt;Node7 -->
<g id="edge6" class="edge"><title>Node2&#45;&gt;Node7</title>
<path fill="none" stroke="midnightblue" d="M194.268,-168.083C200.597,-160.062 212.222,-148.101 222.828,-138.515"/>
<polygon fill="midnightblue" stroke="midnightblue" points="225.369,-140.944 230.636,-131.751 220.786,-135.653 225.369,-140.944"/>
</g>
<!-- Node2&#45;&gt;Node8 -->
<g id="edge8" class="edge"><title>Node2&#45;&gt;Node8</title>
<path fill="none" stroke="midnightblue" d="M211.592,-168.444C233.577,-159.517 268.252,-145.439 293.182,-135.317"/>
<polygon fill="midnightblue" stroke="midnightblue" points="294.593,-138.521 302.542,-131.516 291.96,-132.035 294.593,-138.521"/>
</g>
<!-- Node7&#45;&gt;Node2 -->
<g id="edge7" class="edge"><title>Node7&#45;&gt;Node2</title>
<path fill="none" stroke="midnightblue" d="M240.833,-131.834C234.507,-139.869 222.808,-151.909 212.15,-161.537"/>
<polygon fill="midnightblue" stroke="midnightblue" points="209.579,-159.133 204.309,-168.324 214.16,-164.426 209.579,-159.133"/>
</g>
<!-- Node8&#45;&gt;Node3 -->
<g id="edge9" class="edge"><title>Node8&#45;&gt;Node3</title>
<path fill="none" stroke="midnightblue" d="M304.62,-112.373C290,-104.773 270.32,-92.3641 258.518,-76 248.739,-62.4414 243.962,-43.8923 241.646,-30.0791"/>
<polygon fill="midnightblue" stroke="midnightblue" points="245.062,-29.2294 240.225,-19.8033 238.128,-30.1886 245.062,-29.2294"/>
</g>
<!-- Node9 -->
<g id="node9" class="node"><title>Node9</title>
<g id="a_node9"><a xlink:href="Vec2_8h.html" target="_top" xlink:title="Vec2.h">
<polygon fill="white" stroke="black" points="268.018,-56.5 268.018,-75.5 315.018,-75.5 315.018,-56.5 268.018,-56.5"/>
<text text-anchor="middle" x="291.518" y="-63.5" font-family="Helvetica,sans-Serif" font-size="10.00">Vec2.h</text>
</a>
</g>
</g>
<!-- Node8&#45;&gt;Node9 -->
<g id="edge10" class="edge"><title>Node8&#45;&gt;Node9</title>
<path fill="none" stroke="midnightblue" d="M318.234,-112.083C313.807,-104.613 307.354,-93.7244 301.9,-84.5199"/>
<polygon fill="midnightblue" stroke="midnightblue" points="304.813,-82.5697 296.704,-75.7511 298.791,-86.1383 304.813,-82.5697"/>
</g>
<!-- Node10 -->
<g id="node10" class="node"><title>Node10</title>
<polygon fill="white" stroke="#bfbfbf" points="333.518,-56.5 333.518,-75.5 377.518,-75.5 377.518,-56.5 333.518,-56.5"/>
<text text-anchor="middle" x="355.518" y="-63.5" font-family="Helvetica,sans-Serif" font-size="10.00">cmath</text>
</g>
<!-- Node8&#45;&gt;Node10 -->
<g id="edge12" class="edge"><title>Node8&#45;&gt;Node10</title>
<path fill="none" stroke="midnightblue" d="M328.802,-112.083C333.229,-104.613 339.681,-93.7244 345.136,-84.5199"/>
<polygon fill="midnightblue" stroke="midnightblue" points="348.245,-86.1383 350.332,-75.7511 342.223,-82.5697 348.245,-86.1383"/>
</g>
<!-- Node9&#45;&gt;Node3 -->
<g id="edge11" class="edge"><title>Node9&#45;&gt;Node3</title>
<path fill="none" stroke="midnightblue" d="M282.931,-56.083C275.359,-48.2195 264.14,-36.5688 255.003,-27.0813"/>
<polygon fill="midnightblue" stroke="midnightblue" points="257.402,-24.5266 247.945,-19.7511 252.36,-29.3821 257.402,-24.5266"/>
</g>
</g>
</svg>
