<?xml version="1.0" encoding="UTF-8" standalone="no"?>
<!DOCTYPE svg PUBLIC "-//W3C//DTD SVG 1.1//EN"
 "http://www.w3.org/Graphics/SVG/1.1/DTD/svg11.dtd">
<!-- Generated by graphviz version 2.36.0 (20140111.2315)
 -->
<!-- Title: Game/include/EmptyGameObject.h Pages: 1 -->
<svg width="370pt" height="196pt"
 viewBox="0.00 0.00 370.00 196.00" xmlns="http://www.w3.org/2000/svg" xmlns:xlink="http://www.w3.org/1999/xlink">
<g id="graph0" class="graph" transform="scale(1 1) rotate(0) translate(4 192)">
<title>Game/include/EmptyGameObject.h</title>
<polygon fill="white" stroke="none" points="-4,4 -4,-192 366,-192 366,4 -4,4"/>
<!-- Node1 -->
<g id="node1" class="node"><title>Node1</title>
<polygon fill="#bfbfbf" stroke="black" points="49.5,-168.5 49.5,-187.5 220.5,-187.5 220.5,-168.5 49.5,-168.5"/>
<text text-anchor="middle" x="135" y="-175.5" font-family="Helvetica,sans-Serif" font-size="10.00">Game/include/EmptyGameObject.h</text>
</g>
<!-- Node2 -->
<g id="node2" class="node"><title>Node2</title>
<g id="a_node2"><a xlink:href="GameObject_8h.html" target="_top" xlink:title="GameObject.h">
<polygon fill="white" stroke="black" points="144,-112.5 144,-131.5 224,-131.5 224,-112.5 144,-112.5"/>
<text text-anchor="middle" x="184" y="-119.5" font-family="Helvetica,sans-Serif" font-size="10.00">GameObject.h</text>
</a>
</g>
</g>
<!-- Node1&#45;&gt;Node2 -->
<g id="edge1" class="edge"><title>Node1&#45;&gt;Node2</title>
<path fill="none" stroke="midnightblue" d="M143.091,-168.083C150.155,-160.298 160.588,-148.801 169.149,-139.367"/>
<polygon fill="midnightblue" stroke="midnightblue" points="171.931,-141.509 176.059,-131.751 166.747,-136.805 171.931,-141.509"/>
</g>
<!-- Node5 -->
<g id="node5" class="node"><title>Node5</title>
<g id="a_node5"><a xlink:href="Rect_8h.html" target="_top" xlink:title="Rect.h">
<polygon fill="white" stroke="black" points="32,-56.5 32,-75.5 78,-75.5 78,-56.5 32,-56.5"/>
<text text-anchor="middle" x="55" y="-63.5" font-family="Helvetica,sans-Serif" font-size="10.00">Rect.h</text>
</a>
</g>
</g>
<!-- Node1&#45;&gt;Node5 -->
<g id="edge10" class="edge"><title>Node1&#45;&gt;Node5</title>
<path fill="none" stroke="midnightblue" d="M128.723,-168.368C115.52,-150.215 84.6738,-107.802 67.3565,-83.9902"/>
<polygon fill="midnightblue" stroke="midnightblue" points="69.9606,-81.6202 61.2483,-75.5914 64.2995,-85.7374 69.9606,-81.6202"/>
</g>
<!-- Node3 -->
<g id="node3" class="node"><title>Node3</title>
<polygon fill="white" stroke="#bfbfbf" points="96,-56.5 96,-75.5 140,-75.5 140,-56.5 96,-56.5"/>
<text text-anchor="middle" x="118" y="-63.5" font-family="Helvetica,sans-Serif" font-size="10.00">vector</text>
</g>
<!-- Node2&#45;&gt;Node3 -->
<g id="edge2" class="edge"><title>Node2&#45;&gt;Node3</title>
<path fill="none" stroke="midnightblue" d="M173.396,-112.324C163.544,-104.263 148.649,-92.0765 136.785,-82.3695"/>
<polygon fill="midnightblue" stroke="midnightblue" points="138.753,-79.4575 128.797,-75.8339 134.32,-84.8752 138.753,-79.4575"/>
</g>
<!-- Node4 -->
<g id="node4" class="node"><title>Node4</title>
<polygon fill="white" stroke="#bfbfbf" points="158,-56.5 158,-75.5 210,-75.5 210,-56.5 158,-56.5"/>
<text text-anchor="middle" x="184" y="-63.5" font-family="Helvetica,sans-Serif" font-size="10.00">memory</text>
</g>
<!-- Node2&#45;&gt;Node4 -->
<g id="edge3" class="edge"><title>Node2&#45;&gt;Node4</title>
<path fill="none" stroke="midnightblue" d="M184,-112.083C184,-105.006 184,-94.8611 184,-85.9865"/>
<polygon fill="midnightblue" stroke="midnightblue" points="187.5,-85.751 184,-75.7511 180.5,-85.7511 187.5,-85.751"/>
</g>
<!-- Node2&#45;&gt;Node5 -->
<g id="edge4" class="edge"><title>Node2&#45;&gt;Node5</title>
<path fill="none" stroke="midnightblue" d="M163.56,-112.444C142.33,-103.557 108.901,-89.5632 84.745,-79.4514"/>
<polygon fill="midnightblue" stroke="midnightblue" points="85.9207,-76.1493 75.3448,-75.5164 83.2177,-82.6064 85.9207,-76.1493"/>
</g>
<!-- Node8 -->
<g id="node8" class="node"><title>Node8</title>
<polygon fill="white" stroke="#bfbfbf" points="228.5,-56.5 228.5,-75.5 269.5,-75.5 269.5,-56.5 228.5,-56.5"/>
<text text-anchor="middle" x="249" y="-63.5" font-family="Helvetica,sans-Serif" font-size="10.00">string</text>
</g>
<!-- Node2&#45;&gt;Node8 -->
<g id="edge7" class="edge"><title>Node2&#45;&gt;Node8</title>
<path fill="none" stroke="midnightblue" d="M194.443,-112.324C204.146,-104.263 218.815,-92.0765 230.5,-82.3695"/>
<polygon fill="midnightblue" stroke="midnightblue" points="232.911,-84.9163 238.367,-75.8339 228.438,-79.532 232.911,-84.9163"/>
</g>
<!-- Node9 -->
<g id="node9" class="node"><title>Node9</title>
<g id="a_node9"><a xlink:href="Component_8h.html" target="_top" xlink:title="Component.h">
<polygon fill="white" stroke="black" points="287.5,-56.5 287.5,-75.5 362.5,-75.5 362.5,-56.5 287.5,-56.5"/>
<text text-anchor="middle" x="325" y="-63.5" font-family="Helvetica,sans-Serif" font-size="10.00">Component.h</text>
</a>
</g>
</g>
<!-- Node2&#45;&gt;Node9 -->
<g id="edge8" class="edge"><title>Node2&#45;&gt;Node9</title>
<path fill="none" stroke="midnightblue" d="M201.253,-112.444C222.886,-103.399 260.109,-89.064 288.177,-78.9158"/>
<polygon fill="midnightblue" stroke="midnightblue" points="289.445,-82.1794 297.683,-75.5164 287.088,-75.5882 289.445,-82.1794"/>
</g>
<!-- Node6 -->
<g id="node6" class="node"><title>Node6</title>
<g id="a_node6"><a xlink:href="Vec2_8h.html" target="_top" xlink:title="Vec2.h">
<polygon fill="white" stroke="black" points="-0.5,-0.5 -0.5,-19.5 46.5,-19.5 46.5,-0.5 -0.5,-0.5"/>
<text text-anchor="middle" x="23" y="-7.5" font-family="Helvetica,sans-Serif" font-size="10.00">Vec2.h</text>
</a>
</g>
</g>
<!-- Node5&#45;&gt;Node6 -->
<g id="edge5" class="edge"><title>Node5&#45;&gt;Node6</title>
<path fill="none" stroke="midnightblue" d="M49.7159,-56.083C45.289,-48.6127 38.8367,-37.7244 33.3821,-28.5199"/>
<polygon fill="midnightblue" stroke="midnightblue" points="36.2949,-26.5697 28.1858,-19.7511 30.2729,-30.1383 36.2949,-26.5697"/>
</g>
<!-- Node7 -->
<g id="node7" class="node"><title>Node7</title>
<polygon fill="white" stroke="#bfbfbf" points="65,-0.5 65,-19.5 109,-19.5 109,-0.5 65,-0.5"/>
<text text-anchor="middle" x="87" y="-7.5" font-family="Helvetica,sans-Serif" font-size="10.00">cmath</text>
</g>
<!-- Node5&#45;&gt;Node7 -->
<g id="edge6" class="edge"><title>Node5&#45;&gt;Node7</title>
<path fill="none" stroke="midnightblue" d="M60.2841,-56.083C64.711,-48.6127 71.1633,-37.7244 76.6179,-28.5199"/>
<polygon fill="midnightblue" stroke="midnightblue" points="79.7271,-30.1383 81.8142,-19.7511 73.7051,-26.5697 79.7271,-30.1383"/>
</g>
<!-- Node9&#45;&gt;Node2 -->
<g id="edge9" class="edge"><title>Node9&#45;&gt;Node2</title>
<path fill="none" stroke="midnightblue" d="M307.843,-75.5164C286.255,-84.5457 249.043,-98.8786 220.947,-109.039"/>
<polygon fill="midnightblue" stroke="midnightblue" points="219.667,-105.78 211.431,-112.444 222.025,-112.371 219.667,-105.78"/>
</g>
</g>
</svg>
