<?xml version="1.0" encoding="UTF-8" standalone="no"?>
<!DOCTYPE svg PUBLIC "-//W3C//DTD SVG 1.1//EN"
 "http://www.w3.org/Graphics/SVG/1.1/DTD/svg11.dtd">
<!-- Generated by graphviz version 2.38.0 (20140413.2041)
 -->
<!-- Title: Game/include/EndState.h Pages: 1 -->
<svg width="1103pt" height="364pt"
 viewBox="0.00 0.00 1103.35 364.00" xmlns="http://www.w3.org/2000/svg" xmlns:xlink="http://www.w3.org/1999/xlink">
<g id="graph0" class="graph" transform="scale(1 1) rotate(0) translate(4 360)">
<title>Game/include/EndState.h</title>
<polygon fill="white" stroke="none" points="-4,4 -4,-360 1099.35,-360 1099.35,4 -4,4"/>
<!-- Node1 -->
<g id="node1" class="node"><title>Node1</title>
<polygon fill="#bfbfbf" stroke="black" points="596.848,-336.5 596.848,-355.5 724.848,-355.5 724.848,-336.5 596.848,-336.5"/>
<text text-anchor="middle" x="660.848" y="-343.5" font-family="Helvetica,sans-Serif" font-size="10.00">Game/include/EndState.h</text>
</g>
<!-- Node2 -->
<g id="node2" class="node"><title>Node2</title>
<g id="a_node2"><a xlink:href="Gameobject_8h.html" target="_top" xlink:title="Gameobject.h">
<polygon fill="white" stroke="black" points="1018.35,-112.5 1018.35,-131.5 1095.35,-131.5 1095.35,-112.5 1018.35,-112.5"/>
<text text-anchor="middle" x="1056.85" y="-119.5" font-family="Helvetica,sans-Serif" font-size="10.00">Gameobject.h</text>
</a>
</g>
</g>
<!-- Node1&#45;&gt;Node2 -->
<g id="edge1" class="edge"><title>Node1&#45;&gt;Node2</title>
<path fill="none" stroke="midnightblue" d="M725.088,-343.409C804.815,-338.155 940.749,-318.018 1026.85,-244 1056.43,-218.568 1059.23,-168.963 1058.29,-141.833"/>
<polygon fill="midnightblue" stroke="midnightblue" points="1061.78,-141.509 1057.73,-131.718 1054.79,-141.897 1061.78,-141.509"/>
</g>
<!-- Node7 -->
<g id="node7" class="node"><title>Node7</title>
<g id="a_node7"><a xlink:href="Sprite_8h.html" target="_top" xlink:title="Sprite.h">
<polygon fill="white" stroke="black" points="723.848,-112.5 723.848,-131.5 773.848,-131.5 773.848,-112.5 723.848,-112.5"/>
<text text-anchor="middle" x="748.848" y="-119.5" font-family="Helvetica,sans-Serif" font-size="10.00">Sprite.h</text>
</a>
</g>
</g>
<!-- Node1&#45;&gt;Node7 -->
<g id="edge6" class="edge"><title>Node1&#45;&gt;Node7</title>
<path fill="none" stroke="midnightblue" d="M682.852,-336.459C714.61,-322.674 771.499,-292.102 789.848,-244 803.876,-207.227 778.758,-163.298 762.023,-139.8"/>
<polygon fill="midnightblue" stroke="midnightblue" points="764.69,-137.521 755.913,-131.587 759.074,-141.7 764.69,-137.521"/>
</g>
<!-- Node9 -->
<g id="node9" class="node"><title>Node9</title>
<g id="a_node9"><a xlink:href="Music_8h.html" target="_top" xlink:title="Music.h">
<polygon fill="white" stroke="black" points="428.348,-224.5 428.348,-243.5 479.348,-243.5 479.348,-224.5 428.348,-224.5"/>
<text text-anchor="middle" x="453.848" y="-231.5" font-family="Helvetica,sans-Serif" font-size="10.00">Music.h</text>
</a>
</g>
</g>
<!-- Node1&#45;&gt;Node9 -->
<g id="edge9" class="edge"><title>Node1&#45;&gt;Node9</title>
<path fill="none" stroke="midnightblue" d="M644.673,-336.365C621.318,-323.9 576.788,-300.15 538.848,-280 518.878,-269.394 496.25,-257.416 479.365,-248.486"/>
<polygon fill="midnightblue" stroke="midnightblue" points="480.626,-245.194 470.15,-243.614 477.354,-251.383 480.626,-245.194"/>
</g>
<!-- Node15 -->
<g id="node15" class="node"><title>Node15</title>
<g id="a_node15"><a xlink:href="Text_8h.html" target="_top" xlink:title="Text.h">
<polygon fill="white" stroke="black" points="485.848,-280.5 485.848,-299.5 529.848,-299.5 529.848,-280.5 485.848,-280.5"/>
<text text-anchor="middle" x="507.848" y="-287.5" font-family="Helvetica,sans-Serif" font-size="10.00">Text.h</text>
</a>
</g>
</g>
<!-- Node1&#45;&gt;Node15 -->
<g id="edge18" class="edge"><title>Node1&#45;&gt;Node15</title>
<path fill="none" stroke="midnightblue" d="M636.605,-336.444C610.374,-327.186 568.443,-312.387 539.6,-302.207"/>
<polygon fill="midnightblue" stroke="midnightblue" points="540.586,-298.843 529.991,-298.815 538.256,-305.444 540.586,-298.843"/>
</g>
<!-- Node20 -->
<g id="node20" class="node"><title>Node20</title>
<g id="a_node20"><a xlink:href="InputManager_8h.html" target="_top" xlink:title="InputManager.h">
<polygon fill="white" stroke="black" points="35.848,-168.5 35.848,-187.5 119.848,-187.5 119.848,-168.5 35.848,-168.5"/>
<text text-anchor="middle" x="77.848" y="-175.5" font-family="Helvetica,sans-Serif" font-size="10.00">InputManager.h</text>
</a>
</g>
</g>
<!-- Node1&#45;&gt;Node20 -->
<g id="edge37" class="edge"><title>Node1&#45;&gt;Node20</title>
<path fill="none" stroke="midnightblue" d="M596.841,-344.557C466.106,-342.92 172.904,-335.298 79.848,-300 35.7681,-283.279 -17.0062,-265.235 5.84803,-224 13.9373,-209.405 28.9513,-198.918 43.1841,-191.761"/>
<polygon fill="midnightblue" stroke="midnightblue" points="44.7341,-194.9 52.3436,-187.528 41.7978,-188.546 44.7341,-194.9"/>
</g>
<!-- Node21 -->
<g id="node21" class="node"><title>Node21</title>
<g id="a_node21"><a xlink:href="EndStateData_8h.html" target="_top" xlink:title="EndStateData.h">
<polygon fill="white" stroke="black" points="88.848,-280.5 88.848,-299.5 174.848,-299.5 174.848,-280.5 88.848,-280.5"/>
<text text-anchor="middle" x="131.848" y="-287.5" font-family="Helvetica,sans-Serif" font-size="10.00">EndStateData.h</text>
</a>
</g>
</g>
<!-- Node1&#45;&gt;Node21 -->
<g id="edge34" class="edge"><title>Node1&#45;&gt;Node21</title>
<path fill="none" stroke="midnightblue" d="M596.775,-338.459C491.302,-327.693 283.058,-306.435 185.123,-296.438"/>
<polygon fill="midnightblue" stroke="midnightblue" points="185.453,-292.954 175.149,-295.42 184.742,-299.918 185.453,-292.954"/>
</g>
<!-- Node24 -->
<g id="node24" class="node"><title>Node24</title>
<g id="a_node24"><a xlink:href="StageState_8h.html" target="_top" xlink:title="StageState.h">
<polygon fill="white" stroke="black" points="656.848,-280.5 656.848,-299.5 730.848,-299.5 730.848,-280.5 656.848,-280.5"/>
<text text-anchor="middle" x="693.848" y="-287.5" font-family="Helvetica,sans-Serif" font-size="10.00">StageState.h</text>
</a>
</g>
</g>
<!-- Node1&#45;&gt;Node24 -->
<g id="edge38" class="edge"><title>Node1&#45;&gt;Node24</title>
<path fill="none" stroke="midnightblue" d="M661.131,-336.083C664.183,-328.455 670.639,-317.264 677.18,-307.941"/>
<polygon fill="midnightblue" stroke="midnightblue" points="680.132,-309.839 683.369,-299.751 674.548,-305.619 680.132,-309.839"/>
</g>
<!-- Node3 -->
<g id="node3" class="node"><title>Node3</title>
<g id="a_node3"><a xlink:href="Rect_8h.html" target="_top" xlink:title="Rect.h">
<polygon fill="white" stroke="black" points="941.848,-56.5 941.848,-75.5 987.848,-75.5 987.848,-56.5 941.848,-56.5"/>
<text text-anchor="middle" x="964.848" y="-63.5" font-family="Helvetica,sans-Serif" font-size="10.00">Rect.h</text>
</a>
</g>
</g>
<!-- Node2&#45;&gt;Node3 -->
<g id="edge2" class="edge"><title>Node2&#45;&gt;Node3</title>
<path fill="none" stroke="midnightblue" d="M1042.07,-112.324C1027.58,-103.822 1005.27,-90.7288 988.355,-80.7975"/>
<polygon fill="midnightblue" stroke="midnightblue" points="989.989,-77.6981 979.593,-75.6545 986.445,-83.735 989.989,-77.6981"/>
</g>
<!-- Node6 -->
<g id="node6" class="node"><title>Node6</title>
<polygon fill="white" stroke="#bfbfbf" points="491.348,-56.5 491.348,-75.5 532.348,-75.5 532.348,-56.5 491.348,-56.5"/>
<text text-anchor="middle" x="511.848" y="-63.5" font-family="Helvetica,sans-Serif" font-size="10.00">string</text>
</g>
<!-- Node2&#45;&gt;Node6 -->
<g id="edge5" class="edge"><title>Node2&#45;&gt;Node6</title>
<path fill="none" stroke="midnightblue" d="M1018.09,-117.16C915.047,-106.95 635.835,-79.2849 542.617,-70.0486"/>
<polygon fill="midnightblue" stroke="midnightblue" points="542.738,-66.5436 532.441,-69.0404 542.047,-73.5095 542.738,-66.5436"/>
</g>
<!-- Node4 -->
<g id="node4" class="node"><title>Node4</title>
<g id="a_node4"><a xlink:href="Vec2_8h.html" target="_top" xlink:title="Vec2.h">
<polygon fill="white" stroke="black" points="500.348,-0.5 500.348,-19.5 547.348,-19.5 547.348,-0.5 500.348,-0.5"/>
<text text-anchor="middle" x="523.848" y="-7.5" font-family="Helvetica,sans-Serif" font-size="10.00">Vec2.h</text>
</a>
</g>
</g>
<!-- Node3&#45;&gt;Node4 -->
<g id="edge3" class="edge"><title>Node3&#45;&gt;Node4</title>
<path fill="none" stroke="midnightblue" d="M941.455,-58.8324C936.961,-57.7831 932.275,-56.7817 927.848,-56 791.953,-32.005 627.953,-18.4117 558.068,-13.3293"/>
<polygon fill="midnightblue" stroke="midnightblue" points="557.902,-9.80861 547.678,-12.5864 557.403,-16.7908 557.902,-9.80861"/>
</g>
<!-- Node5 -->
<g id="node5" class="node"><title>Node5</title>
<polygon fill="white" stroke="#bfbfbf" points="942.848,-0.5 942.848,-19.5 986.848,-19.5 986.848,-0.5 942.848,-0.5"/>
<text text-anchor="middle" x="964.848" y="-7.5" font-family="Helvetica,sans-Serif" font-size="10.00">cmath</text>
</g>
<!-- Node3&#45;&gt;Node5 -->
<g id="edge4" class="edge"><title>Node3&#45;&gt;Node5</title>
<path fill="none" stroke="midnightblue" d="M964.848,-56.083C964.848,-49.0059 964.848,-38.8611 964.848,-29.9865"/>
<polygon fill="midnightblue" stroke="midnightblue" points="968.348,-29.751 964.848,-19.7511 961.348,-29.7511 968.348,-29.751"/>
</g>
<!-- Node7&#45;&gt;Node6 -->
<g id="edge7" class="edge"><title>Node7&#45;&gt;Node6</title>
<path fill="none" stroke="midnightblue" d="M723.485,-115.221C679.633,-105.23 589.813,-84.7642 542.524,-73.9894"/>
<polygon fill="midnightblue" stroke="midnightblue" points="543.09,-70.5288 532.562,-71.7197 541.535,-77.3539 543.09,-70.5288"/>
</g>
<!-- Node8 -->
<g id="node8" class="node"><title>Node8</title>
<polygon fill="white" stroke="#bfbfbf" points="722.848,-56.5 722.848,-75.5 774.848,-75.5 774.848,-56.5 722.848,-56.5"/>
<text text-anchor="middle" x="748.848" y="-63.5" font-family="Helvetica,sans-Serif" font-size="10.00">memory</text>
</g>
<!-- Node7&#45;&gt;Node8 -->
<g id="edge8" class="edge"><title>Node7&#45;&gt;Node8</title>
<path fill="none" stroke="midnightblue" d="M748.848,-112.083C748.848,-105.006 748.848,-94.8611 748.848,-85.9865"/>
<polygon fill="midnightblue" stroke="midnightblue" points="752.348,-85.751 748.848,-75.7511 745.348,-85.7511 752.348,-85.751"/>
</g>
<!-- Node9&#45;&gt;Node6 -->
<g id="edge10" class="edge"><title>Node9&#45;&gt;Node6</title>
<path fill="none" stroke="midnightblue" d="M449.992,-224.249C446.29,-215.333 440.959,-201.006 438.848,-188 433.319,-153.928 435.632,-140.675 454.848,-112 463.211,-99.5207 476.136,-88.9099 487.566,-81.1315"/>
<polygon fill="midnightblue" stroke="midnightblue" points="489.777,-83.8711 496.296,-75.5191 485.991,-77.9829 489.777,-83.8711"/>
</g>
<!-- Node10 -->
<g id="node10" class="node"><title>Node10</title>
<g id="a_node10"><a xlink:href="Resources_8h.html" target="_top" xlink:title="Resources.h">
<polygon fill="white" stroke="black" points="447.848,-168.5 447.848,-187.5 519.848,-187.5 519.848,-168.5 447.848,-168.5"/>
<text text-anchor="middle" x="483.848" y="-175.5" font-family="Helvetica,sans-Serif" font-size="10.00">Resources.h</text>
</a>
</g>
</g>
<!-- Node9&#45;&gt;Node10 -->
<g id="edge11" class="edge"><title>Node9&#45;&gt;Node10</title>
<path fill="none" stroke="midnightblue" d="M458.802,-224.083C462.952,-216.613 469.001,-205.724 474.115,-196.52"/>
<polygon fill="midnightblue" stroke="midnightblue" points="477.189,-198.192 478.986,-187.751 471.07,-194.793 477.189,-198.192"/>
</g>
<!-- Node12 -->
<g id="node12" class="node"><title>Node12</title>
<g id="a_node12"><a xlink:href="Error_8h.html" target="_top" xlink:title="Error.h">
<polygon fill="white" stroke="black" points="329.848,-168.5 329.848,-187.5 375.848,-187.5 375.848,-168.5 329.848,-168.5"/>
<text text-anchor="middle" x="352.848" y="-175.5" font-family="Helvetica,sans-Serif" font-size="10.00">Error.h</text>
</a>
</g>
</g>
<!-- Node9&#45;&gt;Node12 -->
<g id="edge15" class="edge"><title>Node9&#45;&gt;Node12</title>
<path fill="none" stroke="midnightblue" d="M437.621,-224.324C421.497,-215.703 396.548,-202.364 377.884,-192.386"/>
<polygon fill="midnightblue" stroke="midnightblue" points="379.504,-189.283 369.035,-187.655 376.204,-195.456 379.504,-189.283"/>
</g>
<!-- Node10&#45;&gt;Node6 -->
<g id="edge12" class="edge"><title>Node10&#45;&gt;Node6</title>
<path fill="none" stroke="midnightblue" d="M476.627,-168.408C466.957,-155.796 451.985,-131.64 460.848,-112 466.464,-99.5553 477.411,-89.1723 487.727,-81.5273"/>
<polygon fill="midnightblue" stroke="midnightblue" points="489.854,-84.3123 496.114,-75.7643 485.89,-78.5431 489.854,-84.3123"/>
</g>
<!-- Node10&#45;&gt;Node8 -->
<g id="edge14" class="edge"><title>Node10&#45;&gt;Node8</title>
<path fill="none" stroke="midnightblue" d="M504.642,-168.368C551.277,-149.01 664.374,-102.065 718.717,-79.5074"/>
<polygon fill="midnightblue" stroke="midnightblue" points="720.256,-82.6578 728.151,-75.5914 717.573,-76.1927 720.256,-82.6578"/>
</g>
<!-- Node11 -->
<g id="node11" class="node"><title>Node11</title>
<polygon fill="white" stroke="#bfbfbf" points="470.348,-112.5 470.348,-131.5 553.348,-131.5 553.348,-112.5 470.348,-112.5"/>
<text text-anchor="middle" x="511.848" y="-119.5" font-family="Helvetica,sans-Serif" font-size="10.00">unordered_map</text>
</g>
<!-- Node10&#45;&gt;Node11 -->
<g id="edge13" class="edge"><title>Node10&#45;&gt;Node11</title>
<path fill="none" stroke="midnightblue" d="M488.472,-168.083C492.304,-160.691 497.872,-149.953 502.613,-140.811"/>
<polygon fill="midnightblue" stroke="midnightblue" points="505.814,-142.24 507.31,-131.751 499.6,-139.018 505.814,-142.24"/>
</g>
<!-- Node13 -->
<g id="node13" class="node"><title>Node13</title>
<polygon fill="white" stroke="#bfbfbf" points="255.848,-112.5 255.848,-131.5 309.848,-131.5 309.848,-112.5 255.848,-112.5"/>
<text text-anchor="middle" x="282.848" y="-119.5" font-family="Helvetica,sans-Serif" font-size="10.00">iostream</text>
</g>
<!-- Node12&#45;&gt;Node13 -->
<g id="edge16" class="edge"><title>Node12&#45;&gt;Node13</title>
<path fill="none" stroke="midnightblue" d="M341.601,-168.324C331.051,-160.185 315.047,-147.839 302.406,-138.087"/>
<polygon fill="midnightblue" stroke="midnightblue" points="304.355,-135.171 294.299,-131.834 300.079,-140.713 304.355,-135.171"/>
</g>
<!-- Node14 -->
<g id="node14" class="node"><title>Node14</title>
<polygon fill="white" stroke="#bfbfbf" points="327.848,-112.5 327.848,-131.5 375.848,-131.5 375.848,-112.5 327.848,-112.5"/>
<text text-anchor="middle" x="351.848" y="-119.5" font-family="Helvetica,sans-Serif" font-size="10.00">stdlib.h</text>
</g>
<!-- Node12&#45;&gt;Node14 -->
<g id="edge17" class="edge"><title>Node12&#45;&gt;Node14</title>
<path fill="none" stroke="midnightblue" d="M352.683,-168.083C352.552,-161.006 352.364,-150.861 352.2,-141.986"/>
<polygon fill="midnightblue" stroke="midnightblue" points="355.695,-141.685 352.01,-131.751 348.696,-141.814 355.695,-141.685"/>
</g>
<!-- Node15&#45;&gt;Node3 -->
<g id="edge19" class="edge"><title>Node15&#45;&gt;Node3</title>
<path fill="none" stroke="midnightblue" d="M529.883,-287.529C577.993,-283.878 695.667,-272.545 789.848,-244 846.945,-226.695 870.031,-230.554 911.848,-188 940.552,-158.789 955,-111.454 961.113,-85.4936"/>
<polygon fill="midnightblue" stroke="midnightblue" points="964.581,-86.0177 963.299,-75.5008 957.743,-84.5219 964.581,-86.0177"/>
</g>
<!-- Node15&#45;&gt;Node6 -->
<g id="edge21" class="edge"><title>Node15&#45;&gt;Node6</title>
<path fill="none" stroke="midnightblue" d="M485.625,-282.489C461.628,-274.984 422.699,-261.414 391.848,-244 315.955,-201.162 190.619,-178.582 246.848,-112 276.52,-76.8646 417.585,-69.1571 480.929,-67.4704"/>
<polygon fill="midnightblue" stroke="midnightblue" points="481.19,-70.9654 491.106,-67.234 481.027,-63.9673 481.19,-70.9654"/>
</g>
<!-- Node15&#45;&gt;Node8 -->
<g id="edge20" class="edge"><title>Node15&#45;&gt;Node8</title>
<path fill="none" stroke="midnightblue" d="M517.296,-280.297C553.664,-246.796 684.929,-125.88 731.947,-82.5688"/>
<polygon fill="midnightblue" stroke="midnightblue" points="734.482,-84.992 739.466,-75.6425 729.739,-79.8434 734.482,-84.992"/>
</g>
<!-- Node15&#45;&gt;Node10 -->
<g id="edge22" class="edge"><title>Node15&#45;&gt;Node10</title>
<path fill="none" stroke="midnightblue" d="M505.965,-280.368C502.092,-262.617 493.157,-221.666 487.906,-197.597"/>
<polygon fill="midnightblue" stroke="midnightblue" points="491.274,-196.615 485.723,-187.591 484.435,-198.108 491.274,-196.615"/>
</g>
<!-- Node15&#45;&gt;Node12 -->
<g id="edge33" class="edge"><title>Node15&#45;&gt;Node12</title>
<path fill="none" stroke="midnightblue" d="M486.3,-280.356C467.59,-272.34 440.222,-259.355 418.848,-244 399.162,-229.858 379.779,-209.838 367.166,-195.763"/>
<polygon fill="midnightblue" stroke="midnightblue" points="369.471,-193.083 360.245,-187.873 364.208,-197.699 369.471,-193.083"/>
</g>
<!-- Node16 -->
<g id="node16" class="node"><title>Node16</title>
<g id="a_node16"><a xlink:href="Game_8h.html" target="_top" xlink:title="Game.h">
<polygon fill="white" stroke="black" points="218.348,-224.5 218.348,-243.5 269.348,-243.5 269.348,-224.5 218.348,-224.5"/>
<text text-anchor="middle" x="243.848" y="-231.5" font-family="Helvetica,sans-Serif" font-size="10.00">Game.h</text>
</a>
</g>
</g>
<!-- Node15&#45;&gt;Node16 -->
<g id="edge23" class="edge"><title>Node15&#45;&gt;Node16</title>
<path fill="none" stroke="midnightblue" d="M485.557,-284.699C445.245,-276.88 357.561,-259.695 283.848,-244 282.412,-243.694 280.948,-243.379 279.469,-243.059"/>
<polygon fill="midnightblue" stroke="midnightblue" points="280.168,-239.629 269.65,-240.897 278.663,-246.465 280.168,-239.629"/>
</g>
<!-- Node16&#45;&gt;Node4 -->
<g id="edge32" class="edge"><title>Node16&#45;&gt;Node4</title>
<path fill="none" stroke="midnightblue" d="M218.149,-225.522C200.285,-218.83 177.791,-207.07 166.848,-188 148.022,-155.193 202.436,-115.897 207.848,-112 296.912,-47.865 428.474,-23.2476 489.917,-14.8527"/>
<polygon fill="midnightblue" stroke="midnightblue" points="490.738,-18.2753 500.201,-13.511 489.832,-11.3341 490.738,-18.2753"/>
</g>
<!-- Node16&#45;&gt;Node6 -->
<g id="edge24" class="edge"><title>Node16&#45;&gt;Node6</title>
<path fill="none" stroke="midnightblue" d="M241.546,-224.127C238.255,-211.574 231.927,-187.937 225.848,-168 220.929,-151.868 216.55,-148.648 213.848,-132 212.424,-123.226 208.051,-118.738 213.848,-112 248.102,-72.1855 411.9,-67.1426 480.995,-66.8201"/>
<polygon fill="midnightblue" stroke="midnightblue" points="481.242,-70.3198 491.236,-66.8043 481.231,-63.3198 481.242,-70.3198"/>
</g>
<!-- Node17 -->
<g id="node17" class="node"><title>Node17</title>
<polygon fill="white" stroke="#bfbfbf" points="176.348,-168.5 176.348,-187.5 217.348,-187.5 217.348,-168.5 176.348,-168.5"/>
<text text-anchor="middle" x="196.848" y="-175.5" font-family="Helvetica,sans-Serif" font-size="10.00">stack</text>
</g>
<!-- Node16&#45;&gt;Node17 -->
<g id="edge25" class="edge"><title>Node16&#45;&gt;Node17</title>
<path fill="none" stroke="midnightblue" d="M236.087,-224.083C229.311,-216.298 219.305,-204.801 211.093,-195.367"/>
<polygon fill="midnightblue" stroke="midnightblue" points="213.67,-192.996 204.465,-187.751 208.39,-197.592 213.67,-192.996"/>
</g>
<!-- Node18 -->
<g id="node18" class="node"><title>Node18</title>
<g id="a_node18"><a xlink:href="State_8h.html" target="_top" xlink:title="State.h">
<polygon fill="white" stroke="black" points="837.848,-168.5 837.848,-187.5 885.848,-187.5 885.848,-168.5 837.848,-168.5"/>
<text text-anchor="middle" x="861.848" y="-175.5" font-family="Helvetica,sans-Serif" font-size="10.00">State.h</text>
</a>
</g>
</g>
<!-- Node16&#45;&gt;Node18 -->
<g id="edge26" class="edge"><title>Node16&#45;&gt;Node18</title>
<path fill="none" stroke="midnightblue" d="M269.616,-230.748C367.542,-222.192 716.638,-191.688 827.675,-181.986"/>
<polygon fill="midnightblue" stroke="midnightblue" points="828.004,-185.471 837.661,-181.113 827.394,-178.497 828.004,-185.471"/>
</g>
<!-- Node16&#45;&gt;Node20 -->
<g id="edge30" class="edge"><title>Node16&#45;&gt;Node20</title>
<path fill="none" stroke="midnightblue" d="M218.274,-224.681C190.29,-215.578 145.224,-200.917 113.714,-190.667"/>
<polygon fill="midnightblue" stroke="midnightblue" points="114.591,-187.272 103.999,-187.507 112.426,-193.929 114.591,-187.272"/>
</g>
<!-- Node18&#45;&gt;Node2 -->
<g id="edge27" class="edge"><title>Node18&#45;&gt;Node2</title>
<path fill="none" stroke="midnightblue" d="M886.151,-170.27C918.741,-161.245 977.045,-145.099 1016.33,-134.22"/>
<polygon fill="midnightblue" stroke="midnightblue" points="1017.43,-137.549 1026.13,-131.507 1015.56,-130.803 1017.43,-137.549"/>
</g>
<!-- Node18&#45;&gt;Node8 -->
<g id="edge29" class="edge"><title>Node18&#45;&gt;Node8</title>
<path fill="none" stroke="midnightblue" d="M861.828,-168.382C861.353,-154.858 858.578,-128.496 844.848,-112 829.568,-93.6412 805.112,-82.3319 784.709,-75.6426"/>
<polygon fill="midnightblue" stroke="midnightblue" points="785.662,-72.2742 775.076,-72.7193 783.629,-78.9726 785.662,-72.2742"/>
</g>
<!-- Node19 -->
<g id="node19" class="node"><title>Node19</title>
<polygon fill="white" stroke="#bfbfbf" points="791.848,-112.5 791.848,-131.5 835.848,-131.5 835.848,-112.5 791.848,-112.5"/>
<text text-anchor="middle" x="813.848" y="-119.5" font-family="Helvetica,sans-Serif" font-size="10.00">vector</text>
</g>
<!-- Node18&#45;&gt;Node19 -->
<g id="edge28" class="edge"><title>Node18&#45;&gt;Node19</title>
<path fill="none" stroke="midnightblue" d="M853.922,-168.083C847.002,-160.298 836.783,-148.801 828.396,-139.367"/>
<polygon fill="midnightblue" stroke="midnightblue" points="830.886,-136.9 821.627,-131.751 825.654,-141.55 830.886,-136.9"/>
</g>
<!-- Node20&#45;&gt;Node4 -->
<g id="edge31" class="edge"><title>Node20&#45;&gt;Node4</title>
<path fill="none" stroke="midnightblue" d="M78.9501,-168.484C82.3705,-145.861 95.0213,-84.0784 133.848,-56 190.453,-15.0648 406.455,-10.833 490.299,-10.772"/>
<polygon fill="midnightblue" stroke="midnightblue" points="490.305,-14.2719 500.309,-10.7845 490.314,-7.27191 490.305,-14.2719"/>
</g>
<!-- Node22 -->
<g id="node22" class="node"><title>Node22</title>
<g id="a_node22"><a xlink:href="StateData_8h.html" target="_top" xlink:title="StateData.h">
<polygon fill="white" stroke="black" points="15.348,-224.5 15.348,-243.5 84.348,-243.5 84.348,-224.5 15.348,-224.5"/>
<text text-anchor="middle" x="49.848" y="-231.5" font-family="Helvetica,sans-Serif" font-size="10.00">StateData.h</text>
</a>
</g>
</g>
<!-- Node21&#45;&gt;Node22 -->
<g id="edge35" class="edge"><title>Node21&#45;&gt;Node22</title>
<path fill="none" stroke="midnightblue" d="M118.673,-280.324C106.001,-271.979 86.6147,-259.212 71.6424,-249.352"/>
<polygon fill="midnightblue" stroke="midnightblue" points="73.2668,-246.231 62.9901,-243.655 69.4168,-252.078 73.2668,-246.231"/>
</g>
<!-- Node23 -->
<g id="node23" class="node"><title>Node23</title>
<g id="a_node23"><a xlink:href="Defines_8h.html" target="_top" xlink:title="Defines.h">
<polygon fill="white" stroke="black" points="102.348,-224.5 102.348,-243.5 161.348,-243.5 161.348,-224.5 102.348,-224.5"/>
<text text-anchor="middle" x="131.848" y="-231.5" font-family="Helvetica,sans-Serif" font-size="10.00">Defines.h</text>
</a>
</g>
</g>
<!-- Node21&#45;&gt;Node23 -->
<g id="edge36" class="edge"><title>Node21&#45;&gt;Node23</title>
<path fill="none" stroke="midnightblue" d="M131.848,-280.083C131.848,-273.006 131.848,-262.861 131.848,-253.986"/>
<polygon fill="midnightblue" stroke="midnightblue" points="135.348,-253.751 131.848,-243.751 128.348,-253.751 135.348,-253.751"/>
</g>
<!-- Node24&#45;&gt;Node1 -->
<g id="edge54" class="edge"><title>Node24&#45;&gt;Node1</title>
<path fill="none" stroke="midnightblue" d="M693.631,-299.751C690.629,-307.327 684.198,-318.505 677.659,-327.855"/>
<polygon fill="midnightblue" stroke="midnightblue" points="674.683,-325.989 671.464,-336.083 680.275,-330.2 674.683,-325.989"/>
</g>
<!-- Node24&#45;&gt;Node2 -->
<g id="edge42" class="edge"><title>Node24&#45;&gt;Node2</title>
<path fill="none" stroke="midnightblue" d="M731.079,-288.026C803.881,-285.423 961.67,-276.134 1003.85,-244 1036.73,-218.948 1049.58,-169.188 1054.31,-141.933"/>
<polygon fill="midnightblue" stroke="midnightblue" points="1057.81,-142.184 1055.87,-131.768 1050.89,-141.12 1057.81,-142.184"/>
</g>
<!-- Node24&#45;&gt;Node7 -->
<g id="edge41" class="edge"><title>Node24&#45;&gt;Node7</title>
<path fill="none" stroke="midnightblue" d="M694.617,-280.474C696.664,-260.258 703.264,-208.109 719.848,-168 723.925,-158.14 730.177,-148.074 735.833,-139.97"/>
<polygon fill="midnightblue" stroke="midnightblue" points="738.751,-141.909 741.819,-131.768 733.097,-137.782 738.751,-141.909"/>
</g>
<!-- Node24&#45;&gt;Node8 -->
<g id="edge40" class="edge"><title>Node24&#45;&gt;Node8</title>
<path fill="none" stroke="midnightblue" d="M731.038,-288.533C798.347,-286.814 936.165,-278.997 965.848,-244 1028.67,-169.928 861.286,-103.671 784.737,-78.1427"/>
<polygon fill="midnightblue" stroke="midnightblue" points="785.598,-74.7416 775.005,-74.9534 783.418,-81.3935 785.598,-74.7416"/>
</g>
<!-- Node24&#45;&gt;Node9 -->
<g id="edge53" class="edge"><title>Node24&#45;&gt;Node9</title>
<path fill="none" stroke="midnightblue" d="M656.611,-280.622C610.928,-270.343 534.043,-253.044 489.226,-242.96"/>
<polygon fill="midnightblue" stroke="midnightblue" points="489.891,-239.522 479.366,-240.742 488.354,-246.351 489.891,-239.522"/>
</g>
<!-- Node24&#45;&gt;Node18 -->
<g id="edge52" class="edge"><title>Node24&#45;&gt;Node18</title>
<path fill="none" stroke="midnightblue" d="M730.88,-283.351C758.933,-277.495 797.084,-265.977 823.848,-244 838.806,-231.718 849.173,-211.9 855.256,-197.371"/>
<polygon fill="midnightblue" stroke="midnightblue" points="858.572,-198.499 858.932,-187.911 852.048,-195.964 858.572,-198.499"/>
</g>
<!-- Node24&#45;&gt;Node19 -->
<g id="edge39" class="edge"><title>Node24&#45;&gt;Node19</title>
<path fill="none" stroke="midnightblue" d="M730.956,-280.415C751.326,-273.803 775.326,-262.553 789.848,-244 813.2,-214.166 815.739,-167.783 815.078,-141.97"/>
<polygon fill="midnightblue" stroke="midnightblue" points="818.562,-141.522 814.613,-131.691 811.569,-141.839 818.562,-141.522"/>
</g>
<!-- Node24&#45;&gt;Node20 -->
<g id="edge51" class="edge"><title>Node24&#45;&gt;Node20</title>
<path fill="none" stroke="midnightblue" d="M656.626,-286.365C550.53,-278.739 251.475,-256.405 208.848,-244 190.144,-238.557 187.265,-232.724 169.848,-224 148.017,-213.065 123.136,-200.913 104.757,-191.996"/>
<polygon fill="midnightblue" stroke="midnightblue" points="106.059,-188.738 95.534,-187.528 103.008,-195.038 106.059,-188.738"/>
</g>
<!-- Node25 -->
<g id="node25" class="node"><title>Node25</title>
<g id="a_node25"><a xlink:href="Tileset_8h.html" target="_top" xlink:title="Tileset.h">
<polygon fill="white" stroke="black" points="537.848,-168.5 537.848,-187.5 591.848,-187.5 591.848,-168.5 537.848,-168.5"/>
<text text-anchor="middle" x="564.848" y="-175.5" font-family="Helvetica,sans-Serif" font-size="10.00">Tileset.h</text>
</a>
</g>
</g>
<!-- Node24&#45;&gt;Node25 -->
<g id="edge43" class="edge"><title>Node24&#45;&gt;Node25</title>
<path fill="none" stroke="midnightblue" d="M683.726,-280.368C661.872,-261.733 610.036,-217.532 582.596,-194.134"/>
<polygon fill="midnightblue" stroke="midnightblue" points="584.804,-191.417 574.923,-187.591 580.262,-196.743 584.804,-191.417"/>
</g>
<!-- Node26 -->
<g id="node26" class="node"><title>Node26</title>
<g id="a_node26"><a xlink:href="TileMap_8h.html" target="_top" xlink:title="TileMap.h">
<polygon fill="white" stroke="black" points="722.348,-224.5 722.348,-243.5 781.348,-243.5 781.348,-224.5 722.348,-224.5"/>
<text text-anchor="middle" x="751.848" y="-231.5" font-family="Helvetica,sans-Serif" font-size="10.00">TileMap.h</text>
</a>
</g>
</g>
<!-- Node24&#45;&gt;Node26 -->
<g id="edge46" class="edge"><title>Node24&#45;&gt;Node26</title>
<path fill="none" stroke="midnightblue" d="M703.167,-280.324C711.741,-272.341 724.66,-260.313 735.036,-250.653"/>
<polygon fill="midnightblue" stroke="midnightblue" points="737.426,-253.21 742.36,-243.834 732.656,-248.086 737.426,-253.21"/>
</g>
<!-- Node25&#45;&gt;Node6 -->
<g id="edge44" class="edge"><title>Node25&#45;&gt;Node6</title>
<path fill="none" stroke="midnightblue" d="M566.512,-168.075C568.496,-155.048 570.547,-130.38 561.848,-112 555.993,-99.6298 545.021,-89.1552 534.844,-81.4329"/>
<polygon fill="midnightblue" stroke="midnightblue" points="536.798,-78.5277 526.612,-75.6123 532.756,-84.2433 536.798,-78.5277"/>
</g>
<!-- Node25&#45;&gt;Node7 -->
<g id="edge45" class="edge"><title>Node25&#45;&gt;Node7</title>
<path fill="none" stroke="midnightblue" d="M591.998,-169.032C624.297,-159.553 678.295,-143.706 713.742,-133.303"/>
<polygon fill="midnightblue" stroke="midnightblue" points="715.049,-136.567 723.658,-130.393 713.077,-129.85 715.049,-136.567"/>
</g>
<!-- Node26&#45;&gt;Node4 -->
<g id="edge50" class="edge"><title>Node26&#45;&gt;Node4</title>
<path fill="none" stroke="midnightblue" d="M781.454,-233.215C815.162,-231.667 868.906,-223.359 894.848,-188 912.775,-163.565 877.595,-126.276 864.848,-112 784.243,-21.722 627.157,-10.4792 557.966,-10.1672"/>
<polygon fill="midnightblue" stroke="midnightblue" points="557.629,-6.6682 547.641,-10.2006 557.652,-13.6682 557.629,-6.6682"/>
</g>
<!-- Node26&#45;&gt;Node6 -->
<g id="edge47" class="edge"><title>Node26&#45;&gt;Node6</title>
<path fill="none" stroke="midnightblue" d="M739.738,-224.412C711.608,-204.49 639.614,-153.652 578.848,-112 563.635,-101.573 546.354,-89.9717 533.153,-81.1606"/>
<polygon fill="midnightblue" stroke="midnightblue" points="535.004,-78.1879 524.741,-75.555 531.122,-84.013 535.004,-78.1879"/>
</g>
<!-- Node26&#45;&gt;Node19 -->
<g id="edge48" class="edge"><title>Node26&#45;&gt;Node19</title>
<path fill="none" stroke="midnightblue" d="M756.713,-224.368C766.9,-206.296 790.64,-164.176 804.093,-140.307"/>
<polygon fill="midnightblue" stroke="midnightblue" points="807.144,-142.022 809.006,-131.591 801.046,-138.584 807.144,-142.022"/>
</g>
<!-- Node26&#45;&gt;Node25 -->
<g id="edge49" class="edge"><title>Node26&#45;&gt;Node25</title>
<path fill="none" stroke="midnightblue" d="M722.217,-224.444C689.598,-215.024 637.113,-199.868 601.824,-189.677"/>
<polygon fill="midnightblue" stroke="midnightblue" points="602.49,-186.227 591.911,-186.815 600.548,-192.952 602.49,-186.227"/>
</g>
</g>
</svg>
