<?xml version="1.0" encoding="UTF-8" standalone="no"?>
<!DOCTYPE svg PUBLIC "-//W3C//DTD SVG 1.1//EN"
 "http://www.w3.org/Graphics/SVG/1.1/DTD/svg11.dtd">
<!-- Generated by graphviz version 2.36.0 (20140111.2315)
 -->
<!-- Title: Game/include/EndState.h Pages: 1 -->
<svg width="1193pt" height="364pt"
 viewBox="0.00 0.00 1192.97 364.00" xmlns="http://www.w3.org/2000/svg" xmlns:xlink="http://www.w3.org/1999/xlink">
<g id="graph0" class="graph" transform="scale(1 1) rotate(0) translate(4 360)">
<title>Game/include/EndState.h</title>
<polygon fill="white" stroke="none" points="-4,4 -4,-360 1188.97,-360 1188.97,4 -4,4"/>
<!-- Node1 -->
<g id="node1" class="node"><title>Node1</title>
<polygon fill="#bfbfbf" stroke="black" points="690.058,-336.5 690.058,-355.5 818.058,-355.5 818.058,-336.5 690.058,-336.5"/>
<text text-anchor="middle" x="754.058" y="-343.5" font-family="Helvetica,sans-Serif" font-size="10.00">Game/include/EndState.h</text>
</g>
<!-- Node2 -->
<g id="node2" class="node"><title>Node2</title>
<g id="a_node2"><a xlink:href="Gameobject_8h.html" target="_top" xlink:title="Gameobject.h">
<polygon fill="white" stroke="black" points="738.558,-112.5 738.558,-131.5 815.558,-131.5 815.558,-112.5 738.558,-112.5"/>
<text text-anchor="middle" x="777.058" y="-119.5" font-family="Helvetica,sans-Serif" font-size="10.00">Gameobject.h</text>
</a>
</g>
</g>
<!-- Node1&#45;&gt;Node2 -->
<g id="edge1" class="edge"><title>Node1&#45;&gt;Node2</title>
<path fill="none" stroke="midnightblue" d="M772.032,-336.264C799.801,-321.629 852.114,-289.248 873.058,-244 883.072,-222.366 862.444,-174.821 857.058,-168 845.609,-153.5 828.122,-142.904 812.414,-135.65"/>
<polygon fill="midnightblue" stroke="midnightblue" points="813.502,-132.307 802.934,-131.56 810.73,-138.735 813.502,-132.307"/>
</g>
<!-- Node10 -->
<g id="node10" class="node"><title>Node10</title>
<g id="a_node10"><a xlink:href="Sprite_8h.html" target="_top" xlink:title="Sprite.h">
<polygon fill="white" stroke="black" points="518.058,-112.5 518.058,-131.5 568.058,-131.5 568.058,-112.5 518.058,-112.5"/>
<text text-anchor="middle" x="543.058" y="-119.5" font-family="Helvetica,sans-Serif" font-size="10.00">Sprite.h</text>
</a>
</g>
</g>
<!-- Node1&#45;&gt;Node10 -->
<g id="edge10" class="edge"><title>Node1&#45;&gt;Node10</title>
<path fill="none" stroke="midnightblue" d="M718.704,-336.449C674.033,-323.814 597.832,-295.855 555.058,-244 531.071,-214.92 534.71,-167.533 539.105,-141.529"/>
<polygon fill="midnightblue" stroke="midnightblue" points="542.578,-141.998 541.019,-131.519 535.703,-140.683 542.578,-141.998"/>
</g>
<!-- Node11 -->
<g id="node11" class="node"><title>Node11</title>
<g id="a_node11"><a xlink:href="Music_8h.html" target="_top" xlink:title="Music.h">
<polygon fill="white" stroke="black" points="376.558,-224.5 376.558,-243.5 427.558,-243.5 427.558,-224.5 376.558,-224.5"/>
<text text-anchor="middle" x="402.058" y="-231.5" font-family="Helvetica,sans-Serif" font-size="10.00">Music.h</text>
</a>
</g>
</g>
<!-- Node1&#45;&gt;Node11 -->
<g id="edge13" class="edge"><title>Node1&#45;&gt;Node11</title>
<path fill="none" stroke="midnightblue" d="M689.823,-343.93C632.462,-340.814 547.357,-330.764 480.058,-300 454.898,-288.499 431.273,-266.671 416.756,-251.5"/>
<polygon fill="midnightblue" stroke="midnightblue" points="419.042,-248.818 409.676,-243.865 413.909,-253.577 419.042,-248.818"/>
</g>
<!-- Node17 -->
<g id="node17" class="node"><title>Node17</title>
<g id="a_node17"><a xlink:href="Text_8h.html" target="_top" xlink:title="Text.h">
<polygon fill="white" stroke="black" points="288.058,-280.5 288.058,-299.5 332.058,-299.5 332.058,-280.5 288.058,-280.5"/>
<text text-anchor="middle" x="310.058" y="-287.5" font-family="Helvetica,sans-Serif" font-size="10.00">Text.h</text>
</a>
</g>
</g>
<!-- Node1&#45;&gt;Node17 -->
<g id="edge22" class="edge"><title>Node1&#45;&gt;Node17</title>
<path fill="none" stroke="midnightblue" d="M689.971,-337.206C593.607,-325.486 414.938,-303.756 342.161,-294.904"/>
<polygon fill="midnightblue" stroke="midnightblue" points="342.564,-291.428 332.214,-293.695 341.719,-298.376 342.564,-291.428"/>
</g>
<!-- Node21 -->
<g id="node21" class="node"><title>Node21</title>
<g id="a_node21"><a xlink:href="InputManager_8h.html" target="_top" xlink:title="InputManager.h">
<polygon fill="white" stroke="black" points="1062.06,-168.5 1062.06,-187.5 1146.06,-187.5 1146.06,-168.5 1062.06,-168.5"/>
<text text-anchor="middle" x="1104.06" y="-175.5" font-family="Helvetica,sans-Serif" font-size="10.00">InputManager.h</text>
</a>
</g>
</g>
<!-- Node1&#45;&gt;Node21 -->
<g id="edge41" class="edge"><title>Node1&#45;&gt;Node21</title>
<path fill="none" stroke="midnightblue" d="M818.074,-341.862C908.135,-336.647 1067.06,-324.275 1119.06,-300 1158.05,-281.794 1200.26,-261.449 1179.06,-224 1170.71,-209.258 1155.4,-198.819 1140.77,-191.732"/>
<polygon fill="midnightblue" stroke="midnightblue" points="1141.9,-188.404 1131.34,-187.547 1139.06,-194.803 1141.9,-188.404"/>
</g>
<!-- Node22 -->
<g id="node22" class="node"><title>Node22</title>
<g id="a_node22"><a xlink:href="EndStateData_8h.html" target="_top" xlink:title="EndStateData.h">
<polygon fill="white" stroke="black" points="1024.06,-280.5 1024.06,-299.5 1110.06,-299.5 1110.06,-280.5 1024.06,-280.5"/>
<text text-anchor="middle" x="1067.06" y="-287.5" font-family="Helvetica,sans-Serif" font-size="10.00">EndStateData.h</text>
</a>
</g>
</g>
<!-- Node1&#45;&gt;Node22 -->
<g id="edge38" class="edge"><title>Node1&#45;&gt;Node22</title>
<path fill="none" stroke="midnightblue" d="M803.654,-336.444C860.894,-326.568 954.683,-310.387 1013.53,-300.234"/>
<polygon fill="midnightblue" stroke="midnightblue" points="1014.48,-303.622 1023.74,-298.473 1013.29,-296.724 1014.48,-303.622"/>
</g>
<!-- Node25 -->
<g id="node25" class="node"><title>Node25</title>
<g id="a_node25"><a xlink:href="StageState_8h.html" target="_top" xlink:title="StageState.h">
<polygon fill="white" stroke="black" points="717.058,-280.5 717.058,-299.5 791.058,-299.5 791.058,-280.5 717.058,-280.5"/>
<text text-anchor="middle" x="754.058" y="-287.5" font-family="Helvetica,sans-Serif" font-size="10.00">StageState.h</text>
</a>
</g>
</g>
<!-- Node1&#45;&gt;Node25 -->
<g id="edge42" class="edge"><title>Node1&#45;&gt;Node25</title>
<path fill="none" stroke="midnightblue" d="M748.892,-336.083C747.382,-328.927 746.952,-318.635 747.601,-309.691"/>
<polygon fill="midnightblue" stroke="midnightblue" points="751.074,-310.126 748.927,-299.751 744.135,-309.2 751.074,-310.126"/>
</g>
<!-- Node3 -->
<g id="node3" class="node"><title>Node3</title>
<polygon fill="white" stroke="#bfbfbf" points="840.058,-56.5 840.058,-75.5 884.058,-75.5 884.058,-56.5 840.058,-56.5"/>
<text text-anchor="middle" x="862.058" y="-63.5" font-family="Helvetica,sans-Serif" font-size="10.00">vector</text>
</g>
<!-- Node2&#45;&gt;Node3 -->
<g id="edge2" class="edge"><title>Node2&#45;&gt;Node3</title>
<path fill="none" stroke="midnightblue" d="M790.715,-112.324C803.975,-103.9 824.326,-90.9709 839.904,-81.0741"/>
<polygon fill="midnightblue" stroke="midnightblue" points="841.871,-83.9711 848.435,-75.6545 838.118,-78.0626 841.871,-83.9711"/>
</g>
<!-- Node4 -->
<g id="node4" class="node"><title>Node4</title>
<polygon fill="white" stroke="#bfbfbf" points="442.058,-56.5 442.058,-75.5 494.058,-75.5 494.058,-56.5 442.058,-56.5"/>
<text text-anchor="middle" x="468.058" y="-63.5" font-family="Helvetica,sans-Serif" font-size="10.00">memory</text>
</g>
<!-- Node2&#45;&gt;Node4 -->
<g id="edge3" class="edge"><title>Node2&#45;&gt;Node4</title>
<path fill="none" stroke="midnightblue" d="M738.548,-114.27C678.416,-103.762 563.042,-83.5991 504.321,-73.3371"/>
<polygon fill="midnightblue" stroke="midnightblue" points="504.834,-69.8738 494.38,-71.6 503.629,-76.7693 504.834,-69.8738"/>
</g>
<!-- Node5 -->
<g id="node5" class="node"><title>Node5</title>
<g id="a_node5"><a xlink:href="Rect_8h.html" target="_top" xlink:title="Rect.h">
<polygon fill="white" stroke="black" points="86.0582,-56.5 86.0582,-75.5 132.058,-75.5 132.058,-56.5 86.0582,-56.5"/>
<text text-anchor="middle" x="109.058" y="-63.5" font-family="Helvetica,sans-Serif" font-size="10.00">Rect.h</text>
</a>
</g>
</g>
<!-- Node2&#45;&gt;Node5 -->
<g id="edge4" class="edge"><title>Node2&#45;&gt;Node5</title>
<path fill="none" stroke="midnightblue" d="M738.256,-117.863C618.217,-108.16 254.262,-78.738 142.234,-69.6819"/>
<polygon fill="midnightblue" stroke="midnightblue" points="142.446,-66.1877 132.196,-68.8704 141.882,-73.1649 142.446,-66.1877"/>
</g>
<!-- Node8 -->
<g id="node8" class="node"><title>Node8</title>
<polygon fill="white" stroke="#bfbfbf" points="567.558,-56.5 567.558,-75.5 608.558,-75.5 608.558,-56.5 567.558,-56.5"/>
<text text-anchor="middle" x="588.058" y="-63.5" font-family="Helvetica,sans-Serif" font-size="10.00">string</text>
</g>
<!-- Node2&#45;&gt;Node8 -->
<g id="edge7" class="edge"><title>Node2&#45;&gt;Node8</title>
<path fill="none" stroke="midnightblue" d="M747.111,-112.444C711.964,-102.402 653.996,-85.8394 618.596,-75.7251"/>
<polygon fill="midnightblue" stroke="midnightblue" points="619.393,-72.3127 608.816,-72.9308 617.47,-79.0434 619.393,-72.3127"/>
</g>
<!-- Node9 -->
<g id="node9" class="node"><title>Node9</title>
<g id="a_node9"><a xlink:href="Component_8h.html" target="_top" xlink:title="Component.h">
<polygon fill="white" stroke="black" points="739.558,-56.5 739.558,-75.5 814.558,-75.5 814.558,-56.5 739.558,-56.5"/>
<text text-anchor="middle" x="777.058" y="-63.5" font-family="Helvetica,sans-Serif" font-size="10.00">Component.h</text>
</a>
</g>
</g>
<!-- Node2&#45;&gt;Node9 -->
<g id="edge8" class="edge"><title>Node2&#45;&gt;Node9</title>
<path fill="none" stroke="midnightblue" d="M771.892,-112.083C770.382,-104.927 769.952,-94.6353 770.601,-85.6911"/>
<polygon fill="midnightblue" stroke="midnightblue" points="774.074,-86.1262 771.927,-75.7511 767.135,-85.2002 774.074,-86.1262"/>
</g>
<!-- Node6 -->
<g id="node6" class="node"><title>Node6</title>
<g id="a_node6"><a xlink:href="Vec2_8h.html" target="_top" xlink:title="Vec2.h">
<polygon fill="white" stroke="black" points="522.558,-0.5 522.558,-19.5 569.558,-19.5 569.558,-0.5 522.558,-0.5"/>
<text text-anchor="middle" x="546.058" y="-7.5" font-family="Helvetica,sans-Serif" font-size="10.00">Vec2.h</text>
</a>
</g>
</g>
<!-- Node5&#45;&gt;Node6 -->
<g id="edge5" class="edge"><title>Node5&#45;&gt;Node6</title>
<path fill="none" stroke="midnightblue" d="M132.452,-58.8363C136.946,-57.7867 141.632,-56.7841 146.058,-56 280.611,-32.1656 442.986,-18.4875 512.178,-13.3562"/>
<polygon fill="midnightblue" stroke="midnightblue" points="512.746,-16.8241 522.464,-12.6057 512.236,-9.8427 512.746,-16.8241"/>
</g>
<!-- Node7 -->
<g id="node7" class="node"><title>Node7</title>
<polygon fill="white" stroke="#bfbfbf" points="87.0582,-0.5 87.0582,-19.5 131.058,-19.5 131.058,-0.5 87.0582,-0.5"/>
<text text-anchor="middle" x="109.058" y="-7.5" font-family="Helvetica,sans-Serif" font-size="10.00">cmath</text>
</g>
<!-- Node5&#45;&gt;Node7 -->
<g id="edge6" class="edge"><title>Node5&#45;&gt;Node7</title>
<path fill="none" stroke="midnightblue" d="M109.058,-56.083C109.058,-49.0059 109.058,-38.8611 109.058,-29.9865"/>
<polygon fill="midnightblue" stroke="midnightblue" points="112.558,-29.751 109.058,-19.7511 105.558,-29.7511 112.558,-29.751"/>
</g>
<!-- Node9&#45;&gt;Node2 -->
<g id="edge9" class="edge"><title>Node9&#45;&gt;Node2</title>
<path fill="none" stroke="midnightblue" d="M782.189,-75.7511C783.715,-82.8579 784.163,-93.1357 783.531,-102.101"/>
<polygon fill="midnightblue" stroke="midnightblue" points="780.052,-101.713 782.225,-112.083 786.992,-102.622 780.052,-101.713"/>
</g>
<!-- Node10&#45;&gt;Node4 -->
<g id="edge12" class="edge"><title>Node10&#45;&gt;Node4</title>
<path fill="none" stroke="midnightblue" d="M531.008,-112.324C519.595,-104.107 502.227,-91.6017 488.623,-81.8069"/>
<polygon fill="midnightblue" stroke="midnightblue" points="490.488,-78.8366 480.328,-75.8339 486.398,-84.5174 490.488,-78.8366"/>
</g>
<!-- Node10&#45;&gt;Node8 -->
<g id="edge11" class="edge"><title>Node10&#45;&gt;Node8</title>
<path fill="none" stroke="midnightblue" d="M550.489,-112.083C556.911,-104.377 566.364,-93.0333 574.181,-83.6531"/>
<polygon fill="midnightblue" stroke="midnightblue" points="577.053,-85.674 580.766,-75.7511 571.675,-81.1927 577.053,-85.674"/>
</g>
<!-- Node11&#45;&gt;Node8 -->
<g id="edge14" class="edge"><title>Node11&#45;&gt;Node8</title>
<path fill="none" stroke="midnightblue" d="M408.237,-224.204C423.482,-202.947 464.875,-147.894 509.058,-112 524.581,-99.3896 544.09,-88.2387 559.837,-80.1915"/>
<polygon fill="midnightblue" stroke="midnightblue" points="561.687,-83.1804 569.086,-75.5969 558.573,-76.9112 561.687,-83.1804"/>
</g>
<!-- Node12 -->
<g id="node12" class="node"><title>Node12</title>
<g id="a_node12"><a xlink:href="Resources_8h.html" target="_top" xlink:title="Resources.h">
<polygon fill="white" stroke="black" points="280.058,-168.5 280.058,-187.5 352.058,-187.5 352.058,-168.5 280.058,-168.5"/>
<text text-anchor="middle" x="316.058" y="-175.5" font-family="Helvetica,sans-Serif" font-size="10.00">Resources.h</text>
</a>
</g>
</g>
<!-- Node11&#45;&gt;Node12 -->
<g id="edge15" class="edge"><title>Node11&#45;&gt;Node12</title>
<path fill="none" stroke="midnightblue" d="M388.241,-224.324C374.825,-215.9 354.234,-202.971 338.473,-193.074"/>
<polygon fill="midnightblue" stroke="midnightblue" points="340.171,-190.008 329.841,-187.655 336.449,-195.936 340.171,-190.008"/>
</g>
<!-- Node14 -->
<g id="node14" class="node"><title>Node14</title>
<g id="a_node14"><a xlink:href="Error_8h.html" target="_top" xlink:title="Error.h">
<polygon fill="white" stroke="black" points="84.0582,-168.5 84.0582,-187.5 130.058,-187.5 130.058,-168.5 84.0582,-168.5"/>
<text text-anchor="middle" x="107.058" y="-175.5" font-family="Helvetica,sans-Serif" font-size="10.00">Error.h</text>
</a>
</g>
</g>
<!-- Node11&#45;&gt;Node14 -->
<g id="edge19" class="edge"><title>Node11&#45;&gt;Node14</title>
<path fill="none" stroke="midnightblue" d="M376.539,-228.972C330.398,-221.588 230.081,-205.067 146.058,-188 144.117,-187.606 142.125,-187.188 140.118,-186.756"/>
<polygon fill="midnightblue" stroke="midnightblue" points="140.633,-183.285 130.111,-184.532 139.114,-190.119 140.633,-183.285"/>
</g>
<!-- Node12&#45;&gt;Node4 -->
<g id="edge18" class="edge"><title>Node12&#45;&gt;Node4</title>
<path fill="none" stroke="midnightblue" d="M320.227,-168.255C327.152,-154.556 342.25,-127.959 362.058,-112 382.714,-95.3579 410.432,-83.8787 432.343,-76.681"/>
<polygon fill="midnightblue" stroke="midnightblue" points="433.458,-79.9996 441.956,-73.6721 431.367,-73.3193 433.458,-79.9996"/>
</g>
<!-- Node12&#45;&gt;Node8 -->
<g id="edge16" class="edge"><title>Node12&#45;&gt;Node8</title>
<path fill="none" stroke="midnightblue" d="M329.891,-168.456C352.064,-155.034 397.224,-128.809 438.058,-112 478.265,-95.4495 526.774,-82.0161 557.523,-74.264"/>
<polygon fill="midnightblue" stroke="midnightblue" points="558.368,-77.6604 567.232,-71.8565 556.683,-70.8662 558.368,-77.6604"/>
</g>
<!-- Node13 -->
<g id="node13" class="node"><title>Node13</title>
<polygon fill="white" stroke="#bfbfbf" points="226.558,-112.5 226.558,-131.5 309.558,-131.5 309.558,-112.5 226.558,-112.5"/>
<text text-anchor="middle" x="268.058" y="-119.5" font-family="Helvetica,sans-Serif" font-size="10.00">unordered_map</text>
</g>
<!-- Node12&#45;&gt;Node13 -->
<g id="edge17" class="edge"><title>Node12&#45;&gt;Node13</title>
<path fill="none" stroke="midnightblue" d="M308.132,-168.083C301.212,-160.298 290.993,-148.801 282.606,-139.367"/>
<polygon fill="midnightblue" stroke="midnightblue" points="285.097,-136.9 275.837,-131.751 279.865,-141.55 285.097,-136.9"/>
</g>
<!-- Node15 -->
<g id="node15" class="node"><title>Node15</title>
<polygon fill="white" stroke="#bfbfbf" points="78.0582,-112.5 78.0582,-131.5 132.058,-131.5 132.058,-112.5 78.0582,-112.5"/>
<text text-anchor="middle" x="105.058" y="-119.5" font-family="Helvetica,sans-Serif" font-size="10.00">iostream</text>
</g>
<!-- Node14&#45;&gt;Node15 -->
<g id="edge20" class="edge"><title>Node14&#45;&gt;Node15</title>
<path fill="none" stroke="midnightblue" d="M106.728,-168.083C106.466,-161.006 106.09,-150.861 105.761,-141.986"/>
<polygon fill="midnightblue" stroke="midnightblue" points="109.25,-141.615 105.382,-131.751 102.255,-141.874 109.25,-141.615"/>
</g>
<!-- Node16 -->
<g id="node16" class="node"><title>Node16</title>
<polygon fill="white" stroke="#bfbfbf" points="12.0582,-112.5 12.0582,-131.5 60.0582,-131.5 60.0582,-112.5 12.0582,-112.5"/>
<text text-anchor="middle" x="36.0582" y="-119.5" font-family="Helvetica,sans-Serif" font-size="10.00">stdlib.h</text>
</g>
<!-- Node14&#45;&gt;Node16 -->
<g id="edge21" class="edge"><title>Node14&#45;&gt;Node16</title>
<path fill="none" stroke="midnightblue" d="M95.6508,-168.324C84.9494,-160.185 68.7175,-147.839 55.8954,-138.087"/>
<polygon fill="midnightblue" stroke="midnightblue" points="57.7514,-135.102 47.6731,-131.834 53.5138,-140.673 57.7514,-135.102"/>
</g>
<!-- Node17&#45;&gt;Node4 -->
<g id="edge24" class="edge"><title>Node17&#45;&gt;Node4</title>
<path fill="none" stroke="midnightblue" d="M299.052,-280.496C265.501,-253.583 169.613,-168.708 217.058,-112 243.98,-79.8222 368.623,-70.6247 431.53,-68.0179"/>
<polygon fill="midnightblue" stroke="midnightblue" points="431.937,-71.505 441.797,-67.6284 431.672,-64.5101 431.937,-71.505"/>
</g>
<!-- Node17&#45;&gt;Node5 -->
<g id="edge23" class="edge"><title>Node17&#45;&gt;Node5</title>
<path fill="none" stroke="midnightblue" d="M287.936,-286.371C227.052,-277.752 57.8964,-244.124 3.05821,-132 -13.11,-98.9418 39.2589,-81.0878 76.0556,-72.848"/>
<polygon fill="midnightblue" stroke="midnightblue" points="76.8818,-76.251 85.9513,-70.7742 75.446,-69.3998 76.8818,-76.251"/>
</g>
<!-- Node17&#45;&gt;Node8 -->
<g id="edge25" class="edge"><title>Node17&#45;&gt;Node8</title>
<path fill="none" stroke="midnightblue" d="M316.368,-280.388C337.258,-252.419 407.227,-162.995 484.058,-112 507.123,-96.691 536.254,-84.6157 557.814,-76.8445"/>
<polygon fill="midnightblue" stroke="midnightblue" points="559.149,-80.0854 567.433,-73.4804 556.838,-73.4779 559.149,-80.0854"/>
</g>
<!-- Node17&#45;&gt;Node12 -->
<g id="edge26" class="edge"><title>Node17&#45;&gt;Node12</title>
<path fill="none" stroke="midnightblue" d="M310.529,-280.368C311.497,-262.617 313.731,-221.666 315.044,-197.597"/>
<polygon fill="midnightblue" stroke="midnightblue" points="318.54,-197.767 315.59,-187.591 311.55,-197.386 318.54,-197.767"/>
</g>
<!-- Node17&#45;&gt;Node14 -->
<g id="edge37" class="edge"><title>Node17&#45;&gt;Node14</title>
<path fill="none" stroke="midnightblue" d="M287.619,-283.602C261.577,-276.758 217.884,-263.46 184.058,-244 160.516,-230.456 137.209,-209.434 122.511,-194.985"/>
<polygon fill="midnightblue" stroke="midnightblue" points="124.818,-192.342 115.283,-187.723 119.857,-197.28 124.818,-192.342"/>
</g>
<!-- Node18 -->
<g id="node18" class="node"><title>Node18</title>
<g id="a_node18"><a xlink:href="Game_8h.html" target="_top" xlink:title="Game.h">
<polygon fill="white" stroke="black" points="582.558,-224.5 582.558,-243.5 633.558,-243.5 633.558,-224.5 582.558,-224.5"/>
<text text-anchor="middle" x="608.058" y="-231.5" font-family="Helvetica,sans-Serif" font-size="10.00">Game.h</text>
</a>
</g>
</g>
<!-- Node17&#45;&gt;Node18 -->
<g id="edge27" class="edge"><title>Node17&#45;&gt;Node18</title>
<path fill="none" stroke="midnightblue" d="M332.457,-284.941C383.767,-275.643 510.171,-252.738 572.348,-241.471"/>
<polygon fill="midnightblue" stroke="midnightblue" points="573.252,-244.864 582.468,-239.637 572.004,-237.976 573.252,-244.864"/>
</g>
<!-- Node18&#45;&gt;Node6 -->
<g id="edge36" class="edge"><title>Node18&#45;&gt;Node6</title>
<path fill="none" stroke="midnightblue" d="M582.488,-231.755C513.622,-228.065 325.774,-215.668 271.058,-188 240.203,-172.398 229.999,-164.062 217.058,-132 213.731,-123.757 211.775,-119.148 217.058,-112 252.756,-63.6991 435.292,-28.9716 512.018,-16.2874"/>
<polygon fill="midnightblue" stroke="midnightblue" points="512.808,-19.7051 522.116,-14.6448 511.684,-12.7959 512.808,-19.7051"/>
</g>
<!-- Node18&#45;&gt;Node8 -->
<g id="edge28" class="edge"><title>Node18&#45;&gt;Node8</title>
<path fill="none" stroke="midnightblue" d="M608.555,-224.377C609.051,-215.322 609.777,-200.666 610.058,-188 610.256,-179.113 611.01,-176.838 610.058,-168 606.898,-138.643 598.713,-105.302 593.267,-85.2245"/>
<polygon fill="midnightblue" stroke="midnightblue" points="596.626,-84.2396 590.572,-75.5443 589.882,-86.1167 596.626,-84.2396"/>
</g>
<!-- Node19 -->
<g id="node19" class="node"><title>Node19</title>
<polygon fill="white" stroke="#bfbfbf" points="560.558,-168.5 560.558,-187.5 601.558,-187.5 601.558,-168.5 560.558,-168.5"/>
<text text-anchor="middle" x="581.058" y="-175.5" font-family="Helvetica,sans-Serif" font-size="10.00">stack</text>
</g>
<!-- Node18&#45;&gt;Node19 -->
<g id="edge29" class="edge"><title>Node18&#45;&gt;Node19</title>
<path fill="none" stroke="midnightblue" d="M603.6,-224.083C599.904,-216.691 594.535,-205.953 589.964,-196.811"/>
<polygon fill="midnightblue" stroke="midnightblue" points="593.036,-195.13 585.434,-187.751 586.775,-198.261 593.036,-195.13"/>
</g>
<!-- Node20 -->
<g id="node20" class="node"><title>Node20</title>
<g id="a_node20"><a xlink:href="State_8h.html" target="_top" xlink:title="State.h">
<polygon fill="white" stroke="black" points="730.058,-168.5 730.058,-187.5 778.058,-187.5 778.058,-168.5 730.058,-168.5"/>
<text text-anchor="middle" x="754.058" y="-175.5" font-family="Helvetica,sans-Serif" font-size="10.00">State.h</text>
</a>
</g>
</g>
<!-- Node18&#45;&gt;Node20 -->
<g id="edge30" class="edge"><title>Node18&#45;&gt;Node20</title>
<path fill="none" stroke="midnightblue" d="M631.192,-224.444C655.54,-215.438 694.065,-201.189 721.481,-191.049"/>
<polygon fill="midnightblue" stroke="midnightblue" points="722.867,-194.268 731.032,-187.516 720.439,-187.703 722.867,-194.268"/>
</g>
<!-- Node18&#45;&gt;Node21 -->
<g id="edge34" class="edge"><title>Node18&#45;&gt;Node21</title>
<path fill="none" stroke="midnightblue" d="M633.681,-230.21C711.529,-221.735 946.375,-196.167 1051.82,-184.687"/>
<polygon fill="midnightblue" stroke="midnightblue" points="1052.35,-188.151 1061.91,-183.589 1051.59,-181.192 1052.35,-188.151"/>
</g>
<!-- Node20&#45;&gt;Node2 -->
<g id="edge31" class="edge"><title>Node20&#45;&gt;Node2</title>
<path fill="none" stroke="midnightblue" d="M757.856,-168.083C760.971,-160.77 765.481,-150.181 769.348,-141.103"/>
<polygon fill="midnightblue" stroke="midnightblue" points="772.632,-142.323 773.331,-131.751 766.192,-139.58 772.632,-142.323"/>
</g>
<!-- Node20&#45;&gt;Node3 -->
<g id="edge32" class="edge"><title>Node20&#45;&gt;Node3</title>
<path fill="none" stroke="midnightblue" d="M772.107,-168.447C787.321,-160.575 808.962,-147.749 824.058,-132 837.177,-118.314 847.628,-99.2731 854.223,-85.3371"/>
<polygon fill="midnightblue" stroke="midnightblue" points="857.581,-86.4039 858.495,-75.8486 851.198,-83.53 857.581,-86.4039"/>
</g>
<!-- Node20&#45;&gt;Node4 -->
<g id="edge33" class="edge"><title>Node20&#45;&gt;Node4</title>
<path fill="none" stroke="midnightblue" d="M731.616,-168.368C681.077,-148.93 558.212,-101.674 499.851,-79.2278"/>
<polygon fill="midnightblue" stroke="midnightblue" points="500.986,-75.9146 490.396,-75.5914 498.473,-82.448 500.986,-75.9146"/>
</g>
<!-- Node21&#45;&gt;Node6 -->
<g id="edge35" class="edge"><title>Node21&#45;&gt;Node6</title>
<path fill="none" stroke="midnightblue" d="M1098.41,-168.445C1089.18,-155.008 1069.74,-128.763 1048.06,-112 1003.4,-77.4735 988.214,-71.9273 934.058,-56 807.154,-18.6777 648.372,-12.1054 579.972,-11.0912"/>
<polygon fill="midnightblue" stroke="midnightblue" points="579.83,-7.58943 569.789,-10.9723 579.748,-14.589 579.83,-7.58943"/>
</g>
<!-- Node23 -->
<g id="node23" class="node"><title>Node23</title>
<g id="a_node23"><a xlink:href="StateData_8h.html" target="_top" xlink:title="StateData.h">
<polygon fill="white" stroke="black" points="1024.56,-224.5 1024.56,-243.5 1093.56,-243.5 1093.56,-224.5 1024.56,-224.5"/>
<text text-anchor="middle" x="1059.06" y="-231.5" font-family="Helvetica,sans-Serif" font-size="10.00">StateData.h</text>
</a>
</g>
</g>
<!-- Node22&#45;&gt;Node23 -->
<g id="edge39" class="edge"><title>Node22&#45;&gt;Node23</title>
<path fill="none" stroke="midnightblue" d="M1065.74,-280.083C1064.68,-272.927 1063.15,-262.635 1061.83,-253.691"/>
<polygon fill="midnightblue" stroke="midnightblue" points="1065.28,-253.13 1060.35,-243.751 1058.36,-254.156 1065.28,-253.13"/>
</g>
<!-- Node24 -->
<g id="node24" class="node"><title>Node24</title>
<g id="a_node24"><a xlink:href="Defines_8h.html" target="_top" xlink:title="Defines.h">
<polygon fill="white" stroke="black" points="1111.56,-224.5 1111.56,-243.5 1170.56,-243.5 1170.56,-224.5 1111.56,-224.5"/>
<text text-anchor="middle" x="1141.06" y="-231.5" font-family="Helvetica,sans-Serif" font-size="10.00">Defines.h</text>
</a>
</g>
</g>
<!-- Node22&#45;&gt;Node24 -->
<g id="edge40" class="edge"><title>Node22&#45;&gt;Node24</title>
<path fill="none" stroke="midnightblue" d="M1078.95,-280.324C1090.21,-272.107 1107.34,-259.602 1120.77,-249.807"/>
<polygon fill="midnightblue" stroke="midnightblue" points="1122.94,-252.556 1128.95,-243.834 1118.81,-246.901 1122.94,-252.556"/>
</g>
<!-- Node25&#45;&gt;Node1 -->
<g id="edge59" class="edge"><title>Node25&#45;&gt;Node1</title>
<path fill="none" stroke="midnightblue" d="M759.189,-299.751C760.715,-306.858 761.163,-317.136 760.531,-326.101"/>
<polygon fill="midnightblue" stroke="midnightblue" points="757.052,-325.713 759.225,-336.083 763.992,-326.622 757.052,-325.713"/>
</g>
<!-- Node25&#45;&gt;Node2 -->
<g id="edge46" class="edge"><title>Node25&#45;&gt;Node2</title>
<path fill="none" stroke="midnightblue" d="M791.062,-283.079C814,-277.291 841.737,-265.971 856.058,-244 869.1,-223.991 847.432,-182.312 837.058,-168 827.924,-155.398 814.239,-144.754 802.244,-136.986"/>
<polygon fill="midnightblue" stroke="midnightblue" points="803.858,-133.87 793.504,-131.623 800.196,-139.836 803.858,-133.87"/>
</g>
<!-- Node25&#45;&gt;Node3 -->
<g id="edge43" class="edge"><title>Node25&#45;&gt;Node3</title>
<path fill="none" stroke="midnightblue" d="M791.221,-285.864C818.846,-281.361 854.789,-270.44 873.058,-244 906.843,-195.105 883.424,-119.312 869.859,-84.9837"/>
<polygon fill="midnightblue" stroke="midnightblue" points="873.093,-83.6437 866.04,-75.7372 866.623,-86.316 873.093,-83.6437"/>
</g>
<!-- Node25&#45;&gt;Node4 -->
<g id="edge44" class="edge"><title>Node25&#45;&gt;Node4</title>
<path fill="none" stroke="midnightblue" d="M717.011,-289.791C673.721,-288.819 602.047,-281.087 555.058,-244 502.915,-202.844 479.839,-122.415 471.72,-85.873"/>
<polygon fill="midnightblue" stroke="midnightblue" points="475.057,-84.7323 469.591,-75.6563 468.204,-86.1599 475.057,-84.7323"/>
</g>
<!-- Node25&#45;&gt;Node10 -->
<g id="edge45" class="edge"><title>Node25&#45;&gt;Node10</title>
<path fill="none" stroke="midnightblue" d="M716.931,-289.34C676.804,-287.742 613.223,-279.232 573.058,-244 543.731,-218.274 540.83,-168.789 541.68,-141.756"/>
<polygon fill="midnightblue" stroke="midnightblue" points="545.18,-141.849 542.209,-131.68 538.19,-141.483 545.18,-141.849"/>
</g>
<!-- Node25&#45;&gt;Node11 -->
<g id="edge58" class="edge"><title>Node25&#45;&gt;Node11</title>
<path fill="none" stroke="midnightblue" d="M716.924,-284.597C658.302,-277.432 540.819,-262.204 442.058,-244 440.614,-243.734 439.144,-243.452 437.66,-243.159"/>
<polygon fill="midnightblue" stroke="midnightblue" points="438.322,-239.722 427.818,-241.107 436.893,-246.575 438.322,-239.722"/>
</g>
<!-- Node25&#45;&gt;Node20 -->
<g id="edge57" class="edge"><title>Node25&#45;&gt;Node20</title>
<path fill="none" stroke="midnightblue" d="M754.058,-280.368C754.058,-262.617 754.058,-221.666 754.058,-197.597"/>
<polygon fill="midnightblue" stroke="midnightblue" points="757.558,-197.591 754.058,-187.591 750.558,-197.591 757.558,-197.591"/>
</g>
<!-- Node25&#45;&gt;Node21 -->
<g id="edge56" class="edge"><title>Node25&#45;&gt;Node21</title>
<path fill="none" stroke="midnightblue" d="M791.308,-281.063C827.964,-272.932 885.36,-259.336 934.058,-244 984.256,-228.191 1041.1,-205.439 1074.69,-191.47"/>
<polygon fill="midnightblue" stroke="midnightblue" points="1076.05,-194.693 1083.93,-187.605 1073.35,-188.235 1076.05,-194.693"/>
</g>
<!-- Node26 -->
<g id="node26" class="node"><title>Node26</title>
<g id="a_node26"><a xlink:href="Tileset_8h.html" target="_top" xlink:title="Tileset.h">
<polygon fill="white" stroke="black" points="658.058,-168.5 658.058,-187.5 712.058,-187.5 712.058,-168.5 658.058,-168.5"/>
<text text-anchor="middle" x="685.058" y="-175.5" font-family="Helvetica,sans-Serif" font-size="10.00">Tileset.h</text>
</a>
</g>
</g>
<!-- Node25&#45;&gt;Node26 -->
<g id="edge47" class="edge"><title>Node25&#45;&gt;Node26</title>
<path fill="none" stroke="midnightblue" d="M748.644,-280.368C737.307,-262.296 710.887,-220.176 695.915,-196.307"/>
<polygon fill="midnightblue" stroke="midnightblue" points="698.726,-194.203 690.447,-187.591 692.796,-197.923 698.726,-194.203"/>
</g>
<!-- Node27 -->
<g id="node27" class="node"><title>Node27</title>
<g id="a_node27"><a xlink:href="TileMap_8h.html" target="_top" xlink:title="TileMap.h">
<polygon fill="white" stroke="black" points="788.558,-224.5 788.558,-243.5 847.558,-243.5 847.558,-224.5 788.558,-224.5"/>
<text text-anchor="middle" x="818.058" y="-231.5" font-family="Helvetica,sans-Serif" font-size="10.00">TileMap.h</text>
</a>
</g>
</g>
<!-- Node25&#45;&gt;Node27 -->
<g id="edge50" class="edge"><title>Node25&#45;&gt;Node27</title>
<path fill="none" stroke="midnightblue" d="M764.341,-280.324C773.895,-272.263 788.338,-260.077 799.843,-250.369"/>
<polygon fill="midnightblue" stroke="midnightblue" points="802.203,-252.958 807.588,-243.834 797.688,-247.608 802.203,-252.958"/>
</g>
<!-- Node26&#45;&gt;Node8 -->
<g id="edge48" class="edge"><title>Node26&#45;&gt;Node8</title>
<path fill="none" stroke="midnightblue" d="M681.488,-168.291C675.793,-155.103 663.684,-129.73 648.058,-112 637.493,-100.012 623.27,-89.1767 611.323,-81.1436"/>
<polygon fill="midnightblue" stroke="midnightblue" points="613.024,-78.0757 602.729,-75.5742 609.217,-83.9499 613.024,-78.0757"/>
</g>
<!-- Node26&#45;&gt;Node10 -->
<g id="edge49" class="edge"><title>Node26&#45;&gt;Node10</title>
<path fill="none" stroke="midnightblue" d="M662.558,-168.444C638.981,-159.478 601.736,-145.314 575.094,-135.183"/>
<polygon fill="midnightblue" stroke="midnightblue" points="576.044,-131.8 565.453,-131.516 573.556,-138.342 576.044,-131.8"/>
</g>
<!-- Node27&#45;&gt;Node2 -->
<g id="edge55" class="edge"><title>Node27&#45;&gt;Node2</title>
<path fill="none" stroke="midnightblue" d="M820.482,-224.202C823.56,-211.335 827.621,-186.862 820.058,-168 815.378,-156.328 806.067,-145.969 797.303,-138.141"/>
<polygon fill="midnightblue" stroke="midnightblue" points="799.482,-135.401 789.556,-131.698 795.006,-140.783 799.482,-135.401"/>
</g>
<!-- Node27&#45;&gt;Node3 -->
<g id="edge52" class="edge"><title>Node27&#45;&gt;Node3</title>
<path fill="none" stroke="midnightblue" d="M822.369,-224.228C826.613,-215.295 833.027,-200.956 837.058,-188 848.066,-152.62 855.601,-109.896 859.338,-85.8466"/>
<polygon fill="midnightblue" stroke="midnightblue" points="862.844,-86.063 860.866,-75.6546 855.922,-85.0251 862.844,-86.063"/>
</g>
<!-- Node27&#45;&gt;Node6 -->
<g id="edge54" class="edge"><title>Node27&#45;&gt;Node6</title>
<path fill="none" stroke="midnightblue" d="M827.583,-224.208C856.558,-196.439 938.876,-109.301 892.058,-56 871.617,-32.7282 662.973,-17.9176 579.909,-12.9032"/>
<polygon fill="midnightblue" stroke="midnightblue" points="579.926,-9.39819 569.736,-12.3004 579.512,-16.3859 579.926,-9.39819"/>
</g>
<!-- Node27&#45;&gt;Node8 -->
<g id="edge51" class="edge"><title>Node27&#45;&gt;Node8</title>
<path fill="none" stroke="midnightblue" d="M815.893,-224.375C812.109,-210.841 803.123,-184.466 787.058,-168 774,-154.616 667.463,-103.978 615.864,-79.8871"/>
<polygon fill="midnightblue" stroke="midnightblue" points="617.154,-76.6272 606.612,-75.577 614.199,-82.9725 617.154,-76.6272"/>
</g>
<!-- Node27&#45;&gt;Node26 -->
<g id="edge53" class="edge"><title>Node27&#45;&gt;Node26</title>
<path fill="none" stroke="midnightblue" d="M796.984,-224.444C774.998,-215.517 740.324,-201.439 715.394,-191.317"/>
<polygon fill="midnightblue" stroke="midnightblue" points="716.616,-188.035 706.034,-187.516 713.983,-194.521 716.616,-188.035"/>
</g>
</g>
</svg>
