<?xml version="1.0" encoding="UTF-8" standalone="no"?>
<!DOCTYPE svg PUBLIC "-//W3C//DTD SVG 1.1//EN"
 "http://www.w3.org/Graphics/SVG/1.1/DTD/svg11.dtd">
<!-- Generated by graphviz version 2.38.0 (20140413.2041)
 -->
<!-- Title: Game/include/EndState.h Pages: 1 -->
<svg width="354pt" height="140pt"
 viewBox="0.00 0.00 354.00 140.00" xmlns="http://www.w3.org/2000/svg" xmlns:xlink="http://www.w3.org/1999/xlink">
<g id="graph0" class="graph" transform="scale(1 1) rotate(0) translate(4 136)">
<title>Game/include/EndState.h</title>
<polygon fill="white" stroke="none" points="-4,4 -4,-136 350,-136 350,4 -4,4"/>
<!-- Node31 -->
<g id="node1" class="node"><title>Node31</title>
<polygon fill="#bfbfbf" stroke="black" points="73,-112.5 73,-131.5 201,-131.5 201,-112.5 73,-112.5"/>
<text text-anchor="middle" x="137" y="-119.5" font-family="Helvetica,sans-Serif" font-size="10.00">Game/include/EndState.h</text>
</g>
<!-- Node32 -->
<g id="node2" class="node"><title>Node32</title>
<g id="a_node2"><a xlink:href="StageState_8h.html" target="_top" xlink:title="Game/include/StageState.h">
<polygon fill="white" stroke="black" points="68.5,-56.5 68.5,-75.5 205.5,-75.5 205.5,-56.5 68.5,-56.5"/>
<text text-anchor="middle" x="137" y="-63.5" font-family="Helvetica,sans-Serif" font-size="10.00">Game/include/StageState.h</text>
</a>
</g>
</g>
<!-- Node31&#45;&gt;Node32 -->
<g id="edge1" class="edge"><title>Node31&#45;&gt;Node32</title>
<path fill="none" stroke="midnightblue" d="M130.528,-102.101C129.896,-93.1357 130.343,-82.8579 131.869,-75.7511"/>
<polygon fill="midnightblue" stroke="midnightblue" points="127.066,-102.622 131.834,-112.083 134.007,-101.713 127.066,-102.622"/>
</g>
<!-- Node35 -->
<g id="node5" class="node"><title>Node35</title>
<g id="a_node5"><a xlink:href="EndState_8cpp.html" target="_top" xlink:title="Game/src/EndState.cpp">
<polygon fill="white" stroke="black" points="224,-56.5 224,-75.5 346,-75.5 346,-56.5 224,-56.5"/>
<text text-anchor="middle" x="285" y="-63.5" font-family="Helvetica,sans-Serif" font-size="10.00">Game/src/EndState.cpp</text>
</a>
</g>
</g>
<!-- Node31&#45;&gt;Node35 -->
<g id="edge5" class="edge"><title>Node31&#45;&gt;Node35</title>
<path fill="none" stroke="midnightblue" d="M170.147,-108.906C197.972,-98.7536 237.02,-84.5063 261.659,-75.5164"/>
<polygon fill="midnightblue" stroke="midnightblue" points="168.646,-105.728 160.451,-112.444 171.045,-112.304 168.646,-105.728"/>
</g>
<!-- Node32&#45;&gt;Node31 -->
<g id="edge2" class="edge"><title>Node32&#45;&gt;Node31</title>
<path fill="none" stroke="midnightblue" d="M143.458,-85.6911C144.106,-94.6353 143.676,-104.927 142.166,-112.083"/>
<polygon fill="midnightblue" stroke="midnightblue" points="146.923,-85.2002 142.131,-75.7511 139.985,-86.1262 146.923,-85.2002"/>
</g>
<!-- Node33 -->
<g id="node3" class="node"><title>Node33</title>
<g id="a_node3"><a xlink:href="StageState_8cpp.html" target="_top" xlink:title="Game/src/StageState.cpp">
<polygon fill="white" stroke="black" points="0,-0.5 0,-19.5 130,-19.5 130,-0.5 0,-0.5"/>
<text text-anchor="middle" x="65" y="-7.5" font-family="Helvetica,sans-Serif" font-size="10.00">Game/src/StageState.cpp</text>
</a>
</g>
</g>
<!-- Node32&#45;&gt;Node33 -->
<g id="edge3" class="edge"><title>Node32&#45;&gt;Node33</title>
<path fill="none" stroke="midnightblue" d="M117.134,-50.1008C104.177,-40.3824 87.7026,-28.0269 76.7785,-19.8339"/>
<polygon fill="midnightblue" stroke="midnightblue" points="115.332,-53.1239 125.432,-56.324 119.532,-47.5239 115.332,-53.1239"/>
</g>
<!-- Node34 -->
<g id="node4" class="node"><title>Node34</title>
<g id="a_node4"><a xlink:href="TitleState_8cpp.html" target="_top" xlink:title="Game/src/TitleState.cpp">
<polygon fill="white" stroke="black" points="148.5,-0.5 148.5,-19.5 271.5,-19.5 271.5,-0.5 148.5,-0.5"/>
<text text-anchor="middle" x="210" y="-7.5" font-family="Helvetica,sans-Serif" font-size="10.00">Game/src/TitleState.cpp</text>
</a>
</g>
</g>
<!-- Node32&#45;&gt;Node34 -->
<g id="edge4" class="edge"><title>Node32&#45;&gt;Node34</title>
<path fill="none" stroke="midnightblue" d="M157.142,-50.1008C170.279,-40.3824 186.982,-28.0269 198.058,-19.8339"/>
<polygon fill="midnightblue" stroke="midnightblue" points="154.687,-47.5631 148.729,-56.324 158.85,-53.1907 154.687,-47.5631"/>
</g>
</g>
</svg>
