<?xml version="1.0" encoding="UTF-8" standalone="no"?>
<!DOCTYPE svg PUBLIC "-//W3C//DTD SVG 1.1//EN"
 "http://www.w3.org/Graphics/SVG/1.1/DTD/svg11.dtd">
<!-- Generated by graphviz version 2.38.0 (20140413.2041)
 -->
<!-- Title: Game/include/Enemy.h Pages: 1 -->
<svg width="700pt" height="364pt"
 viewBox="0.00 0.00 700.13 364.00" xmlns="http://www.w3.org/2000/svg" xmlns:xlink="http://www.w3.org/1999/xlink">
<g id="graph0" class="graph" transform="scale(1 1) rotate(0) translate(4 360)">
<title>Game/include/Enemy.h</title>
<polygon fill="white" stroke="none" points="-4,4 -4,-360 696.133,-360 696.133,4 -4,4"/>
<!-- Node0 -->
<g id="node1" class="node"><title>Node0</title>
<polygon fill="#bfbfbf" stroke="black" points="267.633,-336.5 267.633,-355.5 386.633,-355.5 386.633,-336.5 267.633,-336.5"/>
<text text-anchor="middle" x="327.133" y="-343.5" font-family="Helvetica,sans-Serif" font-size="10.00">Game/include/Enemy.h</text>
</g>
<!-- Node1 -->
<g id="node2" class="node"><title>Node1</title>
<g id="a_node2"><a xlink:href="GameObject_8h.html" target="_top" xlink:title="GameObject.h">
<polygon fill="white" stroke="black" points="94.1333,-224.5 94.1333,-243.5 174.133,-243.5 174.133,-224.5 94.1333,-224.5"/>
<text text-anchor="middle" x="134.133" y="-231.5" font-family="Helvetica,sans-Serif" font-size="10.00">GameObject.h</text>
</a>
</g>
</g>
<!-- Node0&#45;&gt;Node1 -->
<g id="edge1" class="edge"><title>Node0&#45;&gt;Node1</title>
<path fill="none" stroke="midnightblue" d="M279.103,-336.466C250.853,-329.807 215.435,-318.492 188.133,-300 169.799,-287.582 154.313,-267.212 144.689,-252.583"/>
<polygon fill="midnightblue" stroke="midnightblue" points="147.535,-250.533 139.241,-243.94 141.613,-254.266 147.535,-250.533"/>
</g>
<!-- Node8 -->
<g id="node9" class="node"><title>Node8</title>
<g id="a_node9"><a xlink:href="Rect_8h.html" target="_top" xlink:title="Rect.h">
<polygon fill="white" stroke="black" points="18.1333,-112.5 18.1333,-131.5 64.1333,-131.5 64.1333,-112.5 18.1333,-112.5"/>
<text text-anchor="middle" x="41.1333" y="-119.5" font-family="Helvetica,sans-Serif" font-size="10.00">Rect.h</text>
</a>
</g>
</g>
<!-- Node0&#45;&gt;Node8 -->
<g id="edge26" class="edge"><title>Node0&#45;&gt;Node8</title>
<path fill="none" stroke="midnightblue" d="M267.451,-337.293C210.962,-326.627 128.537,-301.646 85.1333,-244 61.4643,-212.565 49.5413,-167.146 44.4022,-141.84"/>
<polygon fill="midnightblue" stroke="midnightblue" points="47.7923,-140.929 42.5006,-131.75 40.9134,-142.226 47.7923,-140.929"/>
</g>
<!-- Node11 -->
<g id="node12" class="node"><title>Node11</title>
<g id="a_node12"><a xlink:href="Sprite_8h.html" target="_top" xlink:title="Sprite.h">
<polygon fill="white" stroke="black" points="239.133,-168.5 239.133,-187.5 289.133,-187.5 289.133,-168.5 239.133,-168.5"/>
<text text-anchor="middle" x="264.133" y="-175.5" font-family="Helvetica,sans-Serif" font-size="10.00">Sprite.h</text>
</a>
</g>
</g>
<!-- Node0&#45;&gt;Node11 -->
<g id="edge15" class="edge"><title>Node0&#45;&gt;Node11</title>
<path fill="none" stroke="midnightblue" d="M312.262,-336.466C287.784,-321.445 239.853,-287.693 221.133,-244 213.221,-225.531 228.957,-206.617 243.568,-193.989"/>
<polygon fill="midnightblue" stroke="midnightblue" points="245.826,-196.665 251.413,-187.663 241.431,-191.216 245.826,-196.665"/>
</g>
<!-- Node16 -->
<g id="node17" class="node"><title>Node16</title>
<g id="a_node17"><a xlink:href="TileMap_8h.html" target="_top" xlink:title="TileMap.h">
<polygon fill="white" stroke="black" points="338.633,-280.5 338.633,-299.5 397.633,-299.5 397.633,-280.5 338.633,-280.5"/>
<text text-anchor="middle" x="368.133" y="-287.5" font-family="Helvetica,sans-Serif" font-size="10.00">TileMap.h</text>
</a>
</g>
</g>
<!-- Node0&#45;&gt;Node16 -->
<g id="edge27" class="edge"><title>Node0&#45;&gt;Node16</title>
<path fill="none" stroke="midnightblue" d="M333.904,-336.083C339.695,-328.455 348.192,-317.264 355.271,-307.941"/>
<polygon fill="midnightblue" stroke="midnightblue" points="358.229,-309.832 361.489,-299.751 352.654,-305.599 358.229,-309.832"/>
</g>
<!-- Node18 -->
<g id="node19" class="node"><title>Node18</title>
<g id="a_node19"><a xlink:href="Timer_8h.html" target="_top" xlink:title="Timer.h">
<polygon fill="white" stroke="black" points="628.133,-280.5 628.133,-299.5 678.133,-299.5 678.133,-280.5 628.133,-280.5"/>
<text text-anchor="middle" x="653.133" y="-287.5" font-family="Helvetica,sans-Serif" font-size="10.00">Timer.h</text>
</a>
</g>
</g>
<!-- Node0&#45;&gt;Node18 -->
<g id="edge35" class="edge"><title>Node0&#45;&gt;Node18</title>
<path fill="none" stroke="midnightblue" d="M386.713,-336.922C444.91,-328.734 535.897,-315.141 614.133,-300 615.4,-299.755 616.687,-299.498 617.987,-299.232"/>
<polygon fill="midnightblue" stroke="midnightblue" points="618.975,-302.6 628.014,-297.074 617.501,-295.757 618.975,-302.6"/>
</g>
<!-- Node19 -->
<g id="node20" class="node"><title>Node19</title>
<g id="a_node20"><a xlink:href="Error_8h.html" target="_top" xlink:title="Error.h">
<polygon fill="white" stroke="black" points="573.133,-168.5 573.133,-187.5 619.133,-187.5 619.133,-168.5 573.133,-168.5"/>
<text text-anchor="middle" x="596.133" y="-175.5" font-family="Helvetica,sans-Serif" font-size="10.00">Error.h</text>
</a>
</g>
</g>
<!-- Node0&#45;&gt;Node19 -->
<g id="edge36" class="edge"><title>Node0&#45;&gt;Node19</title>
<path fill="none" stroke="midnightblue" d="M386.692,-337.241C444.662,-326.482 530.992,-301.387 580.133,-244 591.108,-231.184 594.781,-211.998 595.904,-197.789"/>
<polygon fill="midnightblue" stroke="midnightblue" points="599.406,-197.823 596.349,-187.678 592.413,-197.515 599.406,-197.823"/>
</g>
<!-- Node22 -->
<g id="node23" class="node"><title>Node22</title>
<g id="a_node23"><a xlink:href="WaveData_8h.html" target="_top" xlink:title="WaveData.h">
<polygon fill="white" stroke="black" points="500.633,-224.5 500.633,-243.5 571.633,-243.5 571.633,-224.5 500.633,-224.5"/>
<text text-anchor="middle" x="536.133" y="-231.5" font-family="Helvetica,sans-Serif" font-size="10.00">WaveData.h</text>
</a>
</g>
</g>
<!-- Node0&#45;&gt;Node22 -->
<g id="edge39" class="edge"><title>Node0&#45;&gt;Node22</title>
<path fill="none" stroke="midnightblue" d="M343.533,-336.368C379.856,-317.251 467.298,-271.229 510.747,-248.361"/>
<polygon fill="midnightblue" stroke="midnightblue" points="512.591,-251.346 519.81,-243.591 509.33,-245.152 512.591,-251.346"/>
</g>
<!-- Node23 -->
<g id="node24" class="node"><title>Node23</title>
<g id="a_node24"><a xlink:href="HitPoints_8h.html" target="_top" xlink:title="HitPoints.h">
<polygon fill="white" stroke="black" points="230.633,-224.5 230.633,-243.5 295.633,-243.5 295.633,-224.5 230.633,-224.5"/>
<text text-anchor="middle" x="263.133" y="-231.5" font-family="Helvetica,sans-Serif" font-size="10.00">HitPoints.h</text>
</a>
</g>
</g>
<!-- Node0&#45;&gt;Node23 -->
<g id="edge43" class="edge"><title>Node0&#45;&gt;Node23</title>
<path fill="none" stroke="midnightblue" d="M322.111,-336.368C311.596,-318.296 287.09,-276.176 273.203,-252.307"/>
<polygon fill="midnightblue" stroke="midnightblue" points="276.186,-250.475 268.132,-243.591 270.136,-253.995 276.186,-250.475"/>
</g>
<!-- Node2 -->
<g id="node3" class="node"><title>Node2</title>
<g id="a_node3"><a xlink:href="SDL__include_8h.html" target="_top" xlink:title="SDL_include.h">
<polygon fill="white" stroke="black" points="238.133,-0.5 238.133,-19.5 318.133,-19.5 318.133,-0.5 238.133,-0.5"/>
<text text-anchor="middle" x="278.133" y="-7.5" font-family="Helvetica,sans-Serif" font-size="10.00">SDL_include.h</text>
</a>
</g>
</g>
<!-- Node1&#45;&gt;Node2 -->
<g id="edge2" class="edge"><title>Node1&#45;&gt;Node2</title>
<path fill="none" stroke="midnightblue" d="M114.712,-224.329C85.34,-209.99 30.7556,-178.253 9.13332,-132 2.36274,-117.517 -7.33528,-76.2764 10.1333,-56 37.7395,-23.9566 158.137,-14.7244 227.807,-12.0687"/>
<polygon fill="midnightblue" stroke="midnightblue" points="228.244,-15.5556 238.116,-11.7095 228,-8.55989 228.244,-15.5556"/>
</g>
<!-- Node3 -->
<g id="node4" class="node"><title>Node3</title>
<polygon fill="white" stroke="#bfbfbf" points="421.133,-168.5 421.133,-187.5 465.133,-187.5 465.133,-168.5 421.133,-168.5"/>
<text text-anchor="middle" x="443.133" y="-175.5" font-family="Helvetica,sans-Serif" font-size="10.00">vector</text>
</g>
<!-- Node1&#45;&gt;Node3 -->
<g id="edge3" class="edge"><title>Node1&#45;&gt;Node3</title>
<path fill="none" stroke="midnightblue" d="M174.213,-225.996C236.19,-215.165 354.055,-194.567 410.893,-184.634"/>
<polygon fill="midnightblue" stroke="midnightblue" points="411.843,-188.021 421.091,-182.852 410.638,-181.126 411.843,-188.021"/>
</g>
<!-- Node4 -->
<g id="node5" class="node"><title>Node4</title>
<polygon fill="white" stroke="#bfbfbf" points="198.133,-112.5 198.133,-131.5 250.133,-131.5 250.133,-112.5 198.133,-112.5"/>
<text text-anchor="middle" x="224.133" y="-119.5" font-family="Helvetica,sans-Serif" font-size="10.00">memory</text>
</g>
<!-- Node1&#45;&gt;Node4 -->
<g id="edge4" class="edge"><title>Node1&#45;&gt;Node4</title>
<path fill="none" stroke="midnightblue" d="M131.783,-224.198C128.768,-210.89 125.142,-185.361 136.133,-168 142.69,-157.644 169.333,-144.833 191.603,-135.531"/>
<polygon fill="midnightblue" stroke="midnightblue" points="193.183,-138.667 201.123,-131.652 190.541,-132.185 193.183,-138.667"/>
</g>
<!-- Node5 -->
<g id="node6" class="node"><title>Node5</title>
<polygon fill="white" stroke="#bfbfbf" points="512.633,-112.5 512.633,-131.5 553.633,-131.5 553.633,-112.5 512.633,-112.5"/>
<text text-anchor="middle" x="533.133" y="-119.5" font-family="Helvetica,sans-Serif" font-size="10.00">string</text>
</g>
<!-- Node1&#45;&gt;Node5 -->
<g id="edge5" class="edge"><title>Node1&#45;&gt;Node5</title>
<path fill="none" stroke="midnightblue" d="M166.289,-224.48C228.9,-207.83 371.755,-169.545 502.69,-132.074"/>
<polygon fill="midnightblue" stroke="midnightblue" points="503.848,-135.383 512.496,-129.263 501.919,-128.654 503.848,-135.383"/>
</g>
<!-- Node6 -->
<g id="node7" class="node"><title>Node6</title>
<g id="a_node7"><a xlink:href="Component_8h.html" target="_top" xlink:title="Component.h">
<polygon fill="white" stroke="black" points="145.633,-168.5 145.633,-187.5 220.633,-187.5 220.633,-168.5 145.633,-168.5"/>
<text text-anchor="middle" x="183.133" y="-175.5" font-family="Helvetica,sans-Serif" font-size="10.00">Component.h</text>
</a>
</g>
</g>
<!-- Node1&#45;&gt;Node6 -->
<g id="edge6" class="edge"><title>Node1&#45;&gt;Node6</title>
<path fill="none" stroke="midnightblue" d="M137.058,-224.083C142.59,-216.141 152.956,-204.335 162.594,-194.797"/>
<polygon fill="midnightblue" stroke="midnightblue" points="165.19,-197.16 170.062,-187.751 160.386,-192.068 165.19,-197.16"/>
</g>
<!-- Node7 -->
<g id="node8" class="node"><title>Node7</title>
<g id="a_node8"><a xlink:href="ComponentType_8h.html" target="_top" xlink:title="ComponentType.h">
<polygon fill="white" stroke="black" points="82.6333,-112.5 82.6333,-131.5 179.633,-131.5 179.633,-112.5 82.6333,-112.5"/>
<text text-anchor="middle" x="131.133" y="-119.5" font-family="Helvetica,sans-Serif" font-size="10.00">ComponentType.h</text>
</a>
</g>
</g>
<!-- Node1&#45;&gt;Node7 -->
<g id="edge9" class="edge"><title>Node1&#45;&gt;Node7</title>
<path fill="none" stroke="midnightblue" d="M125.651,-224.234C118.079,-215.75 107.53,-202.131 103.133,-188 97.8544,-171.032 107.476,-152.49 116.848,-139.569"/>
<polygon fill="midnightblue" stroke="midnightblue" points="119.677,-141.633 123.11,-131.609 114.176,-137.305 119.677,-141.633"/>
</g>
<!-- Node1&#45;&gt;Node8 -->
<g id="edge10" class="edge"><title>Node1&#45;&gt;Node8</title>
<path fill="none" stroke="midnightblue" d="M126.836,-224.368C111.352,-206.055 74.9929,-163.049 54.967,-139.362"/>
<polygon fill="midnightblue" stroke="midnightblue" points="57.5261,-136.968 48.397,-131.591 52.1805,-141.488 57.5261,-136.968"/>
</g>
<!-- Node6&#45;&gt;Node1 -->
<g id="edge8" class="edge"><title>Node6&#45;&gt;Node1</title>
<path fill="none" stroke="midnightblue" d="M180.266,-187.834C174.74,-195.791 164.308,-207.673 154.621,-217.253"/>
<polygon fill="midnightblue" stroke="midnightblue" points="151.997,-214.918 147.121,-224.324 156.798,-220.011 151.997,-214.918"/>
</g>
<!-- Node6&#45;&gt;Node7 -->
<g id="edge7" class="edge"><title>Node6&#45;&gt;Node7</title>
<path fill="none" stroke="midnightblue" d="M174.547,-168.083C166.974,-160.22 155.755,-148.569 146.619,-139.081"/>
<polygon fill="midnightblue" stroke="midnightblue" points="149.018,-136.527 139.56,-131.751 143.976,-141.382 149.018,-136.527"/>
</g>
<!-- Node8&#45;&gt;Node2 -->
<g id="edge11" class="edge"><title>Node8&#45;&gt;Node2</title>
<path fill="none" stroke="midnightblue" d="M59.7303,-112.368C101.178,-93.131 201.328,-46.6478 250.272,-23.9314"/>
<polygon fill="midnightblue" stroke="midnightblue" points="252.026,-26.9762 259.623,-19.5914 249.079,-20.6267 252.026,-26.9762"/>
</g>
<!-- Node9 -->
<g id="node10" class="node"><title>Node9</title>
<g id="a_node10"><a xlink:href="Vec2_8h.html" target="_top" xlink:title="Vec2.h">
<polygon fill="white" stroke="black" points="315.633,-56.5 315.633,-75.5 362.633,-75.5 362.633,-56.5 315.633,-56.5"/>
<text text-anchor="middle" x="339.133" y="-63.5" font-family="Helvetica,sans-Serif" font-size="10.00">Vec2.h</text>
</a>
</g>
</g>
<!-- Node8&#45;&gt;Node9 -->
<g id="edge12" class="edge"><title>Node8&#45;&gt;Node9</title>
<path fill="none" stroke="midnightblue" d="M64.4789,-114.124C67.3815,-113.361 70.3179,-112.632 73.1333,-112 155.902,-93.4151 254.699,-78.6031 305.415,-71.5279"/>
<polygon fill="midnightblue" stroke="midnightblue" points="306.057,-74.9725 315.484,-70.137 305.099,-68.0383 306.057,-74.9725"/>
</g>
<!-- Node10 -->
<g id="node11" class="node"><title>Node10</title>
<polygon fill="white" stroke="#bfbfbf" points="19.1333,-56.5 19.1333,-75.5 63.1333,-75.5 63.1333,-56.5 19.1333,-56.5"/>
<text text-anchor="middle" x="41.1333" y="-63.5" font-family="Helvetica,sans-Serif" font-size="10.00">cmath</text>
</g>
<!-- Node8&#45;&gt;Node10 -->
<g id="edge14" class="edge"><title>Node8&#45;&gt;Node10</title>
<path fill="none" stroke="midnightblue" d="M41.1333,-112.083C41.1333,-105.006 41.1333,-94.8611 41.1333,-85.9865"/>
<polygon fill="midnightblue" stroke="midnightblue" points="44.6334,-85.751 41.1333,-75.7511 37.6334,-85.7511 44.6334,-85.751"/>
</g>
<!-- Node9&#45;&gt;Node2 -->
<g id="edge13" class="edge"><title>Node9&#45;&gt;Node2</title>
<path fill="none" stroke="midnightblue" d="M329.333,-56.324C320.315,-48.3414 306.727,-36.3128 295.815,-26.6529"/>
<polygon fill="midnightblue" stroke="midnightblue" points="297.92,-23.8416 288.112,-19.8339 293.28,-29.083 297.92,-23.8416"/>
</g>
<!-- Node11&#45;&gt;Node2 -->
<g id="edge16" class="edge"><title>Node11&#45;&gt;Node2</title>
<path fill="none" stroke="midnightblue" d="M264.886,-168.075C267.09,-141.945 273.561,-65.2106 276.567,-29.577"/>
<polygon fill="midnightblue" stroke="midnightblue" points="280.058,-29.8269 277.411,-19.5681 273.083,-29.2386 280.058,-29.8269"/>
</g>
<!-- Node11&#45;&gt;Node4 -->
<g id="edge18" class="edge"><title>Node11&#45;&gt;Node4</title>
<path fill="none" stroke="midnightblue" d="M257.528,-168.083C251.878,-160.455 243.588,-149.264 236.682,-139.941"/>
<polygon fill="midnightblue" stroke="midnightblue" points="239.38,-137.703 230.616,-131.751 233.755,-141.87 239.38,-137.703"/>
</g>
<!-- Node11&#45;&gt;Node5 -->
<g id="edge17" class="edge"><title>Node11&#45;&gt;Node5</title>
<path fill="none" stroke="midnightblue" d="M289.269,-171.01C293.872,-169.967 298.641,-168.922 303.133,-168 388.496,-150.479 413.548,-152.813 502.568,-131.889"/>
<polygon fill="midnightblue" stroke="midnightblue" points="503.644,-135.23 512.56,-129.507 502.021,-128.421 503.644,-135.23"/>
</g>
<!-- Node11&#45;&gt;Node8 -->
<g id="edge20" class="edge"><title>Node11&#45;&gt;Node8</title>
<path fill="none" stroke="midnightblue" d="M238.917,-170.436C235.629,-169.603 232.303,-168.773 229.133,-168 162.975,-151.863 143.704,-149.795 73.8885,-132.1"/>
<polygon fill="midnightblue" stroke="midnightblue" points="74.7252,-128.702 64.1702,-129.62 72.994,-135.484 74.7252,-128.702"/>
</g>
<!-- Node12 -->
<g id="node13" class="node"><title>Node12</title>
<g id="a_node13"><a xlink:href="Color_8h.html" target="_top" xlink:title="Color.h">
<polygon fill="white" stroke="black" points="306.133,-112.5 306.133,-131.5 354.133,-131.5 354.133,-112.5 306.133,-112.5"/>
<text text-anchor="middle" x="330.133" y="-119.5" font-family="Helvetica,sans-Serif" font-size="10.00">Color.h</text>
</a>
</g>
</g>
<!-- Node11&#45;&gt;Node12 -->
<g id="edge19" class="edge"><title>Node11&#45;&gt;Node12</title>
<path fill="none" stroke="midnightblue" d="M274.737,-168.324C284.59,-160.263 299.484,-148.077 311.348,-138.369"/>
<polygon fill="midnightblue" stroke="midnightblue" points="313.813,-140.875 319.336,-131.834 309.38,-135.457 313.813,-140.875"/>
</g>
<!-- Node13 -->
<g id="node14" class="node"><title>Node13</title>
<g id="a_node14"><a xlink:href="InputManager_8h.html" target="_top" xlink:title="InputManager.h">
<polygon fill="white" stroke="black" points="410.133,-112.5 410.133,-131.5 494.133,-131.5 494.133,-112.5 410.133,-112.5"/>
<text text-anchor="middle" x="452.133" y="-119.5" font-family="Helvetica,sans-Serif" font-size="10.00">InputManager.h</text>
</a>
</g>
</g>
<!-- Node11&#45;&gt;Node13 -->
<g id="edge21" class="edge"><title>Node11&#45;&gt;Node13</title>
<path fill="none" stroke="midnightblue" d="M289.488,-169.717C321.003,-160.665 375.153,-145.111 412.249,-134.456"/>
<polygon fill="midnightblue" stroke="midnightblue" points="413.582,-137.715 422.227,-131.59 411.65,-130.987 413.582,-137.715"/>
</g>
<!-- Node13&#45;&gt;Node2 -->
<g id="edge22" class="edge"><title>Node13&#45;&gt;Node2</title>
<path fill="none" stroke="midnightblue" d="M442.696,-112.24C428.112,-98.9859 398.876,-73.527 371.133,-56 351.118,-43.355 327.019,-31.7867 308.369,-23.5463"/>
<polygon fill="midnightblue" stroke="midnightblue" points="309.73,-20.3216 299.163,-19.5524 306.944,-26.7433 309.73,-20.3216"/>
</g>
<!-- Node13&#45;&gt;Node9 -->
<g id="edge23" class="edge"><title>Node13&#45;&gt;Node9</title>
<path fill="none" stroke="midnightblue" d="M434.228,-112.444C415.879,-103.675 387.128,-89.9355 366.04,-79.8579"/>
<polygon fill="midnightblue" stroke="midnightblue" points="367.487,-76.6703 356.955,-75.5164 364.468,-82.9862 367.487,-76.6703"/>
</g>
<!-- Node14 -->
<g id="node15" class="node"><title>Node14</title>
<polygon fill="white" stroke="#bfbfbf" points="490.633,-56.5 490.633,-75.5 573.633,-75.5 573.633,-56.5 490.633,-56.5"/>
<text text-anchor="middle" x="532.133" y="-63.5" font-family="Helvetica,sans-Serif" font-size="10.00">unordered_map</text>
</g>
<!-- Node13&#45;&gt;Node14 -->
<g id="edge24" class="edge"><title>Node13&#45;&gt;Node14</title>
<path fill="none" stroke="midnightblue" d="M464.987,-112.324C477.35,-103.979 496.263,-91.2122 510.87,-81.3524"/>
<polygon fill="midnightblue" stroke="midnightblue" points="512.982,-84.1503 519.312,-75.6545 509.065,-78.3483 512.982,-84.1503"/>
</g>
<!-- Node15 -->
<g id="node16" class="node"><title>Node15</title>
<polygon fill="white" stroke="#bfbfbf" points="426.133,-56.5 426.133,-75.5 472.133,-75.5 472.133,-56.5 426.133,-56.5"/>
<text text-anchor="middle" x="449.133" y="-63.5" font-family="Helvetica,sans-Serif" font-size="10.00">cstdint</text>
</g>
<!-- Node13&#45;&gt;Node15 -->
<g id="edge25" class="edge"><title>Node13&#45;&gt;Node15</title>
<path fill="none" stroke="midnightblue" d="M451.638,-112.083C451.245,-105.006 450.681,-94.8611 450.188,-85.9865"/>
<polygon fill="midnightblue" stroke="midnightblue" points="453.669,-85.5415 449.619,-75.7511 446.68,-85.9299 453.669,-85.5415"/>
</g>
<!-- Node16&#45;&gt;Node1 -->
<g id="edge30" class="edge"><title>Node16&#45;&gt;Node1</title>
<path fill="none" stroke="midnightblue" d="M338.497,-282.161C298.855,-273.013 228.123,-256.69 181.163,-245.853"/>
<polygon fill="midnightblue" stroke="midnightblue" points="181.762,-242.399 171.232,-243.561 180.188,-249.22 181.762,-242.399"/>
</g>
<!-- Node16&#45;&gt;Node3 -->
<g id="edge29" class="edge"><title>Node16&#45;&gt;Node3</title>
<path fill="none" stroke="midnightblue" d="M377.631,-280.348C386.725,-271.735 400.456,-257.836 410.133,-244 420.436,-229.27 429.464,-210.877 435.461,-197.419"/>
<polygon fill="midnightblue" stroke="midnightblue" points="438.842,-198.418 439.587,-187.849 432.414,-195.647 438.842,-198.418"/>
</g>
<!-- Node16&#45;&gt;Node5 -->
<g id="edge28" class="edge"><title>Node16&#45;&gt;Node5</title>
<path fill="none" stroke="midnightblue" d="M382.153,-280.216C395.214,-271.72 414.906,-258.093 430.133,-244 466.579,-210.271 502.696,-164.151 520.927,-139.741"/>
<polygon fill="midnightblue" stroke="midnightblue" points="523.874,-141.643 527.002,-131.52 518.244,-137.483 523.874,-141.643"/>
</g>
<!-- Node16&#45;&gt;Node9 -->
<g id="edge34" class="edge"><title>Node16&#45;&gt;Node9</title>
<path fill="none" stroke="midnightblue" d="M370.368,-280.449C372.595,-271.453 375.862,-256.844 377.133,-244 381.65,-198.387 368.854,-130.034 363.133,-112 360.055,-102.294 354.899,-92.2276 350.153,-84.083"/>
<polygon fill="midnightblue" stroke="midnightblue" points="353.129,-82.2397 344.92,-75.5414 347.16,-85.8968 353.129,-82.2397"/>
</g>
<!-- Node17 -->
<g id="node18" class="node"><title>Node17</title>
<g id="a_node18"><a xlink:href="Tileset_8h.html" target="_top" xlink:title="Tileset.h">
<polygon fill="white" stroke="black" points="314.133,-224.5 314.133,-243.5 368.133,-243.5 368.133,-224.5 314.133,-224.5"/>
<text text-anchor="middle" x="341.133" y="-231.5" font-family="Helvetica,sans-Serif" font-size="10.00">Tileset.h</text>
</a>
</g>
</g>
<!-- Node16&#45;&gt;Node17 -->
<g id="edge31" class="edge"><title>Node16&#45;&gt;Node17</title>
<path fill="none" stroke="midnightblue" d="M363.675,-280.083C359.979,-272.691 354.61,-261.953 350.039,-252.811"/>
<polygon fill="midnightblue" stroke="midnightblue" points="353.112,-251.13 345.509,-243.751 346.851,-254.261 353.112,-251.13"/>
</g>
<!-- Node17&#45;&gt;Node5 -->
<g id="edge32" class="edge"><title>Node17&#45;&gt;Node5</title>
<path fill="none" stroke="midnightblue" d="M348.597,-224.273C360.697,-210.6 385.897,-184.038 412.133,-168 427.682,-158.495 472.301,-142.908 502.785,-132.801"/>
<polygon fill="midnightblue" stroke="midnightblue" points="504.112,-136.049 512.518,-129.6 501.925,-129.399 504.112,-136.049"/>
</g>
<!-- Node17&#45;&gt;Node11 -->
<g id="edge33" class="edge"><title>Node17&#45;&gt;Node11</title>
<path fill="none" stroke="midnightblue" d="M328.762,-224.324C316.975,-216.058 299.001,-203.453 284.998,-193.632"/>
<polygon fill="midnightblue" stroke="midnightblue" points="286.671,-190.531 276.474,-187.655 282.652,-196.262 286.671,-190.531"/>
</g>
<!-- Node20 -->
<g id="node21" class="node"><title>Node20</title>
<polygon fill="white" stroke="#bfbfbf" points="638.133,-112.5 638.133,-131.5 692.133,-131.5 692.133,-112.5 638.133,-112.5"/>
<text text-anchor="middle" x="665.133" y="-119.5" font-family="Helvetica,sans-Serif" font-size="10.00">iostream</text>
</g>
<!-- Node19&#45;&gt;Node20 -->
<g id="edge37" class="edge"><title>Node19&#45;&gt;Node20</title>
<path fill="none" stroke="midnightblue" d="M607.219,-168.324C617.619,-160.185 633.394,-147.839 645.855,-138.087"/>
<polygon fill="midnightblue" stroke="midnightblue" points="648.128,-140.753 653.846,-131.834 643.813,-135.241 648.128,-140.753"/>
</g>
<!-- Node21 -->
<g id="node22" class="node"><title>Node21</title>
<polygon fill="white" stroke="#bfbfbf" points="572.133,-112.5 572.133,-131.5 620.133,-131.5 620.133,-112.5 572.133,-112.5"/>
<text text-anchor="middle" x="596.133" y="-119.5" font-family="Helvetica,sans-Serif" font-size="10.00">stdlib.h</text>
</g>
<!-- Node19&#45;&gt;Node21 -->
<g id="edge38" class="edge"><title>Node19&#45;&gt;Node21</title>
<path fill="none" stroke="midnightblue" d="M596.133,-168.083C596.133,-161.006 596.133,-150.861 596.133,-141.986"/>
<polygon fill="midnightblue" stroke="midnightblue" points="599.633,-141.751 596.133,-131.751 592.633,-141.751 599.633,-141.751"/>
</g>
<!-- Node22&#45;&gt;Node3 -->
<g id="edge41" class="edge"><title>Node22&#45;&gt;Node3</title>
<path fill="none" stroke="midnightblue" d="M521.191,-224.324C506.548,-215.822 484,-202.729 466.896,-192.797"/>
<polygon fill="midnightblue" stroke="midnightblue" points="468.444,-189.649 458.038,-187.655 464.929,-195.703 468.444,-189.649"/>
</g>
<!-- Node22&#45;&gt;Node5 -->
<g id="edge40" class="edge"><title>Node22&#45;&gt;Node5</title>
<path fill="none" stroke="midnightblue" d="M535.898,-224.368C535.414,-206.617 534.297,-165.666 533.641,-141.597"/>
<polygon fill="midnightblue" stroke="midnightblue" points="537.139,-141.492 533.368,-131.591 530.142,-141.683 537.139,-141.492"/>
</g>
<!-- Node22&#45;&gt;Node19 -->
<g id="edge42" class="edge"><title>Node22&#45;&gt;Node19</title>
<path fill="none" stroke="midnightblue" d="M545.773,-224.324C554.643,-216.341 568.008,-204.313 578.741,-194.653"/>
<polygon fill="midnightblue" stroke="midnightblue" points="581.226,-197.125 586.318,-187.834 576.544,-191.922 581.226,-197.125"/>
</g>
<!-- Node23&#45;&gt;Node6 -->
<g id="edge44" class="edge"><title>Node23&#45;&gt;Node6</title>
<path fill="none" stroke="midnightblue" d="M250.28,-224.324C237.917,-215.979 219.003,-203.212 204.396,-193.352"/>
<polygon fill="midnightblue" stroke="midnightblue" points="206.201,-190.348 195.955,-187.655 202.285,-196.15 206.201,-190.348"/>
</g>
<!-- Node23&#45;&gt;Node11 -->
<g id="edge45" class="edge"><title>Node23&#45;&gt;Node11</title>
<path fill="none" stroke="midnightblue" d="M263.298,-224.083C263.43,-217.006 263.617,-206.861 263.782,-197.986"/>
<polygon fill="midnightblue" stroke="midnightblue" points="267.285,-197.814 263.971,-187.751 260.287,-197.685 267.285,-197.814"/>
</g>
<!-- Node23&#45;&gt;Node19 -->
<g id="edge46" class="edge"><title>Node23&#45;&gt;Node19</title>
<path fill="none" stroke="midnightblue" d="M295.656,-225.837C298.853,-225.191 302.053,-224.568 305.133,-224 398.22,-206.844 508.88,-190.964 562.998,-183.49"/>
<polygon fill="midnightblue" stroke="midnightblue" points="563.615,-186.938 573.046,-182.109 562.662,-180.003 563.615,-186.938"/>
</g>
</g>
</svg>
