<?xml version="1.0" encoding="UTF-8" standalone="no"?>
<!DOCTYPE svg PUBLIC "-//W3C//DTD SVG 1.1//EN"
 "http://www.w3.org/Graphics/SVG/1.1/DTD/svg11.dtd">
<!-- Generated by graphviz version 2.38.0 (20140413.2041)
 -->
<!-- Title: Game/include/Enemy.h Pages: 1 -->
<svg width="445pt" height="364pt"
 viewBox="0.00 0.00 445.39 364.00" xmlns="http://www.w3.org/2000/svg" xmlns:xlink="http://www.w3.org/1999/xlink">
<g id="graph0" class="graph" transform="scale(1 1) rotate(0) translate(4 360)">
<title>Game/include/Enemy.h</title>
<polygon fill="white" stroke="none" points="-4,4 -4,-360 441.385,-360 441.385,4 -4,4"/>
<!-- Node1 -->
<g id="node1" class="node"><title>Node1</title>
<polygon fill="#bfbfbf" stroke="black" points="219,-336.5 219,-355.5 338,-355.5 338,-336.5 219,-336.5"/>
<text text-anchor="middle" x="278.5" y="-343.5" font-family="Helvetica,sans-Serif" font-size="10.00">Game/include/Enemy.h</text>
</g>
<!-- Node2 -->
<g id="node2" class="node"><title>Node2</title>
<g id="a_node2"><a xlink:href="GameObject_8h.html" target="_top" xlink:title="GameObject.h">
<polygon fill="white" stroke="black" points="265.5,-224.5 265.5,-243.5 345.5,-243.5 345.5,-224.5 265.5,-224.5"/>
<text text-anchor="middle" x="305.5" y="-231.5" font-family="Helvetica,sans-Serif" font-size="10.00">GameObject.h</text>
</a>
</g>
</g>
<!-- Node1&#45;&gt;Node2 -->
<g id="edge1" class="edge"><title>Node1&#45;&gt;Node2</title>
<path fill="none" stroke="midnightblue" d="M280.619,-336.368C284.976,-318.617 295.027,-277.666 300.935,-253.597"/>
<polygon fill="midnightblue" stroke="midnightblue" points="304.406,-254.137 303.391,-243.591 297.608,-252.469 304.406,-254.137"/>
</g>
<!-- Node8 -->
<g id="node8" class="node"><title>Node8</title>
<g id="a_node8"><a xlink:href="Rect_8h.html" target="_top" xlink:title="Rect.h">
<polygon fill="white" stroke="black" points="299.5,-112.5 299.5,-131.5 345.5,-131.5 345.5,-112.5 299.5,-112.5"/>
<text text-anchor="middle" x="322.5" y="-119.5" font-family="Helvetica,sans-Serif" font-size="10.00">Rect.h</text>
</a>
</g>
</g>
<!-- Node1&#45;&gt;Node8 -->
<g id="edge13" class="edge"><title>Node1&#45;&gt;Node8</title>
<path fill="none" stroke="midnightblue" d="M323.419,-336.454C346.68,-329.962 374.004,-318.816 392.5,-300 429.767,-262.087 425.014,-240.31 434.5,-188 436.086,-179.254 439.478,-175.364 434.5,-168 416.992,-142.098 381.851,-131.103 355.575,-126.437"/>
<polygon fill="midnightblue" stroke="midnightblue" points="356.061,-122.97 345.643,-124.893 354.987,-129.887 356.061,-122.97"/>
</g>
<!-- Node11 -->
<g id="node11" class="node"><title>Node11</title>
<g id="a_node11"><a xlink:href="Sprite_8h.html" target="_top" xlink:title="Sprite.h">
<polygon fill="white" stroke="black" points="51.5,-168.5 51.5,-187.5 101.5,-187.5 101.5,-168.5 51.5,-168.5"/>
<text text-anchor="middle" x="76.5" y="-175.5" font-family="Helvetica,sans-Serif" font-size="10.00">Sprite.h</text>
</a>
</g>
</g>
<!-- Node1&#45;&gt;Node11 -->
<g id="edge14" class="edge"><title>Node1&#45;&gt;Node11</title>
<path fill="none" stroke="midnightblue" d="M232.783,-336.434C203.294,-329.567 164.912,-318.039 134.5,-300 103.681,-281.72 90.5022,-276.983 76.5,-244 70.2988,-229.393 70.9104,-211.22 72.7213,-197.806"/>
<polygon fill="midnightblue" stroke="midnightblue" points="76.1901,-198.284 74.4013,-187.841 69.2875,-197.12 76.1901,-198.284"/>
</g>
<!-- Node13 -->
<g id="node13" class="node"><title>Node13</title>
<g id="a_node13"><a xlink:href="TileMap_8h.html" target="_top" xlink:title="TileMap.h">
<polygon fill="white" stroke="black" points="144,-280.5 144,-299.5 203,-299.5 203,-280.5 144,-280.5"/>
<text text-anchor="middle" x="173.5" y="-287.5" font-family="Helvetica,sans-Serif" font-size="10.00">TileMap.h</text>
</a>
</g>
</g>
<!-- Node1&#45;&gt;Node13 -->
<g id="edge20" class="edge"><title>Node1&#45;&gt;Node13</title>
<path fill="none" stroke="midnightblue" d="M261.63,-336.324C244.791,-327.664 218.693,-314.242 199.262,-304.249"/>
<polygon fill="midnightblue" stroke="midnightblue" points="200.822,-301.116 190.328,-299.655 197.62,-307.341 200.822,-301.116"/>
</g>
<!-- Node15 -->
<g id="node15" class="node"><title>Node15</title>
<g id="a_node15"><a xlink:href="Timer_8h.html" target="_top" xlink:title="Timer.h">
<polygon fill="white" stroke="black" points="333.5,-280.5 333.5,-299.5 383.5,-299.5 383.5,-280.5 333.5,-280.5"/>
<text text-anchor="middle" x="358.5" y="-287.5" font-family="Helvetica,sans-Serif" font-size="10.00">Timer.h</text>
</a>
</g>
</g>
<!-- Node1&#45;&gt;Node15 -->
<g id="edge28" class="edge"><title>Node1&#45;&gt;Node15</title>
<path fill="none" stroke="midnightblue" d="M291.353,-336.324C303.716,-327.979 322.63,-315.212 337.237,-305.352"/>
<polygon fill="midnightblue" stroke="midnightblue" points="339.348,-308.15 345.679,-299.655 335.432,-302.348 339.348,-308.15"/>
</g>
<!-- Node16 -->
<g id="node16" class="node"><title>Node16</title>
<g id="a_node16"><a xlink:href="Wave_8h.html" target="_top" xlink:title="Wave.h">
<polygon fill="white" stroke="black" points="227.5,-280.5 227.5,-299.5 277.5,-299.5 277.5,-280.5 227.5,-280.5"/>
<text text-anchor="middle" x="252.5" y="-287.5" font-family="Helvetica,sans-Serif" font-size="10.00">Wave.h</text>
</a>
</g>
</g>
<!-- Node1&#45;&gt;Node16 -->
<g id="edge29" class="edge"><title>Node1&#45;&gt;Node16</title>
<path fill="none" stroke="midnightblue" d="M274.207,-336.083C270.648,-328.691 265.478,-317.953 261.076,-308.811"/>
<polygon fill="midnightblue" stroke="midnightblue" points="264.205,-307.243 256.713,-299.751 257.898,-310.279 264.205,-307.243"/>
</g>
<!-- Node3 -->
<g id="node3" class="node"><title>Node3</title>
<g id="a_node3"><a xlink:href="SDL__include_8h.html" target="_top" xlink:title="SDL_include.h">
<polygon fill="white" stroke="black" points="158.5,-0.5 158.5,-19.5 238.5,-19.5 238.5,-0.5 158.5,-0.5"/>
<text text-anchor="middle" x="198.5" y="-7.5" font-family="Helvetica,sans-Serif" font-size="10.00">SDL_include.h</text>
</a>
</g>
</g>
<!-- Node2&#45;&gt;Node3 -->
<g id="edge2" class="edge"><title>Node2&#45;&gt;Node3</title>
<path fill="none" stroke="midnightblue" d="M345.659,-229.161C389.245,-222.966 450.631,-207.192 434.5,-168 407.826,-103.192 382.589,-93.6843 323.5,-56 299.486,-40.685 269.554,-29.6744 245.001,-22.379"/>
<polygon fill="midnightblue" stroke="midnightblue" points="245.766,-18.9573 235.189,-19.5736 243.842,-25.6877 245.766,-18.9573"/>
</g>
<!-- Node4 -->
<g id="node4" class="node"><title>Node4</title>
<polygon fill="white" stroke="#bfbfbf" points="195.5,-168.5 195.5,-187.5 239.5,-187.5 239.5,-168.5 195.5,-168.5"/>
<text text-anchor="middle" x="217.5" y="-175.5" font-family="Helvetica,sans-Serif" font-size="10.00">vector</text>
</g>
<!-- Node2&#45;&gt;Node4 -->
<g id="edge3" class="edge"><title>Node2&#45;&gt;Node4</title>
<path fill="none" stroke="midnightblue" d="M291.361,-224.324C277.634,-215.9 256.564,-202.971 240.436,-193.074"/>
<polygon fill="midnightblue" stroke="midnightblue" points="241.957,-189.902 231.604,-187.655 238.296,-195.868 241.957,-189.902"/>
</g>
<!-- Node5 -->
<g id="node5" class="node"><title>Node5</title>
<polygon fill="white" stroke="#bfbfbf" points="229.5,-112.5 229.5,-131.5 281.5,-131.5 281.5,-112.5 229.5,-112.5"/>
<text text-anchor="middle" x="255.5" y="-119.5" font-family="Helvetica,sans-Serif" font-size="10.00">memory</text>
</g>
<!-- Node2&#45;&gt;Node5 -->
<g id="edge4" class="edge"><title>Node2&#45;&gt;Node5</title>
<path fill="none" stroke="midnightblue" d="M302.843,-224.398C298.827,-211.773 290.7,-187.601 281.5,-168 277.092,-158.607 271.397,-148.572 266.462,-140.367"/>
<polygon fill="midnightblue" stroke="midnightblue" points="269.363,-138.404 261.139,-131.725 263.403,-142.075 269.363,-138.404"/>
</g>
<!-- Node6 -->
<g id="node6" class="node"><title>Node6</title>
<polygon fill="white" stroke="#bfbfbf" points="170,-112.5 170,-131.5 211,-131.5 211,-112.5 170,-112.5"/>
<text text-anchor="middle" x="190.5" y="-119.5" font-family="Helvetica,sans-Serif" font-size="10.00">string</text>
</g>
<!-- Node2&#45;&gt;Node6 -->
<g id="edge5" class="edge"><title>Node2&#45;&gt;Node6</title>
<path fill="none" stroke="midnightblue" d="M298.612,-224.112C288.358,-211.132 268.169,-186.521 248.5,-168 236.818,-156.999 222.597,-145.934 211.161,-137.529"/>
<polygon fill="midnightblue" stroke="midnightblue" points="213.202,-134.686 203.046,-131.666 209.102,-140.36 213.202,-134.686"/>
</g>
<!-- Node7 -->
<g id="node7" class="node"><title>Node7</title>
<g id="a_node7"><a xlink:href="Component_8h.html" target="_top" xlink:title="Component.h">
<polygon fill="white" stroke="black" points="334,-168.5 334,-187.5 409,-187.5 409,-168.5 334,-168.5"/>
<text text-anchor="middle" x="371.5" y="-175.5" font-family="Helvetica,sans-Serif" font-size="10.00">Component.h</text>
</a>
</g>
</g>
<!-- Node2&#45;&gt;Node7 -->
<g id="edge6" class="edge"><title>Node2&#45;&gt;Node7</title>
<path fill="none" stroke="midnightblue" d="M311.232,-224.083C319.632,-215.777 334.649,-203.246 347.714,-193.502"/>
<polygon fill="midnightblue" stroke="midnightblue" points="349.869,-196.264 355.929,-187.573 345.772,-190.587 349.869,-196.264"/>
</g>
<!-- Node2&#45;&gt;Node8 -->
<g id="edge8" class="edge"><title>Node2&#45;&gt;Node8</title>
<path fill="none" stroke="midnightblue" d="M345.737,-228.171C370.929,-222.836 401.541,-211.611 417.5,-188 436.241,-160.272 389.808,-141.006 355.451,-130.996"/>
<polygon fill="midnightblue" stroke="midnightblue" points="356.274,-127.593 345.703,-128.303 354.41,-134.34 356.274,-127.593"/>
</g>
<!-- Node7&#45;&gt;Node2 -->
<g id="edge7" class="edge"><title>Node7&#45;&gt;Node2</title>
<path fill="none" stroke="midnightblue" d="M365.852,-187.834C357.502,-196.106 342.515,-208.62 329.443,-218.38"/>
<polygon fill="midnightblue" stroke="midnightblue" points="327.274,-215.63 321.219,-224.324 331.374,-221.303 327.274,-215.63"/>
</g>
<!-- Node8&#45;&gt;Node3 -->
<g id="edge9" class="edge"><title>Node8&#45;&gt;Node3</title>
<path fill="none" stroke="midnightblue" d="M322.241,-112.309C321.386,-98.686 317.848,-72.19 303.5,-56 289.153,-39.8105 267.97,-29.2477 248.382,-22.4557"/>
<polygon fill="midnightblue" stroke="midnightblue" points="249.222,-19.0495 238.631,-19.3272 247.083,-25.7149 249.222,-19.0495"/>
</g>
<!-- Node9 -->
<g id="node9" class="node"><title>Node9</title>
<g id="a_node9"><a xlink:href="Vec2_8h.html" target="_top" xlink:title="Vec2.h">
<polygon fill="white" stroke="black" points="0,-56.5 0,-75.5 47,-75.5 47,-56.5 0,-56.5"/>
<text text-anchor="middle" x="23.5" y="-63.5" font-family="Helvetica,sans-Serif" font-size="10.00">Vec2.h</text>
</a>
</g>
</g>
<!-- Node8&#45;&gt;Node9 -->
<g id="edge10" class="edge"><title>Node8&#45;&gt;Node9</title>
<path fill="none" stroke="midnightblue" d="M299.155,-114.122C296.252,-113.359 293.316,-112.631 290.5,-112 207.423,-93.3728 108.254,-78.5783 57.3459,-71.5171"/>
<polygon fill="midnightblue" stroke="midnightblue" points="57.6216,-68.0222 47.2384,-70.129 56.6692,-74.9571 57.6216,-68.0222"/>
</g>
<!-- Node10 -->
<g id="node10" class="node"><title>Node10</title>
<polygon fill="white" stroke="#bfbfbf" points="250.5,-56.5 250.5,-75.5 294.5,-75.5 294.5,-56.5 250.5,-56.5"/>
<text text-anchor="middle" x="272.5" y="-63.5" font-family="Helvetica,sans-Serif" font-size="10.00">cmath</text>
</g>
<!-- Node8&#45;&gt;Node10 -->
<g id="edge12" class="edge"><title>Node8&#45;&gt;Node10</title>
<path fill="none" stroke="midnightblue" d="M314.244,-112.083C307.035,-104.298 296.39,-92.8015 287.654,-83.3665"/>
<polygon fill="midnightblue" stroke="midnightblue" points="289.965,-80.7108 280.603,-75.7511 284.829,-85.4666 289.965,-80.7108"/>
</g>
<!-- Node9&#45;&gt;Node3 -->
<g id="edge11" class="edge"><title>Node9&#45;&gt;Node3</title>
<path fill="none" stroke="midnightblue" d="M47.1013,-57.7173C76.3116,-48.7038 126.412,-33.2443 160.93,-22.5929"/>
<polygon fill="midnightblue" stroke="midnightblue" points="162.139,-25.883 170.662,-19.59 160.075,-19.1942 162.139,-25.883"/>
</g>
<!-- Node11&#45;&gt;Node3 -->
<g id="edge15" class="edge"><title>Node11&#45;&gt;Node3</title>
<path fill="none" stroke="midnightblue" d="M77.4185,-168.442C79.1197,-155.451 83.633,-130.332 94.5,-112 116.009,-75.7155 153.927,-43.6532 177.552,-25.8352"/>
<polygon fill="midnightblue" stroke="midnightblue" points="179.869,-28.4752 185.842,-19.7246 175.716,-22.8403 179.869,-28.4752"/>
</g>
<!-- Node11&#45;&gt;Node5 -->
<g id="edge17" class="edge"><title>Node11&#45;&gt;Node5</title>
<path fill="none" stroke="midnightblue" d="M101.767,-169.378C132.554,-160.09 184.773,-144.337 219.692,-133.802"/>
<polygon fill="midnightblue" stroke="midnightblue" points="220.928,-137.086 229.491,-130.846 218.906,-130.384 220.928,-137.086"/>
</g>
<!-- Node11&#45;&gt;Node6 -->
<g id="edge16" class="edge"><title>Node11&#45;&gt;Node6</title>
<path fill="none" stroke="midnightblue" d="M94.5636,-168.444C113.075,-159.675 142.081,-145.935 163.355,-135.858"/>
<polygon fill="midnightblue" stroke="midnightblue" points="164.982,-138.96 172.521,-131.516 161.985,-132.634 164.982,-138.96"/>
</g>
<!-- Node11&#45;&gt;Node8 -->
<g id="edge19" class="edge"><title>Node11&#45;&gt;Node8</title>
<path fill="none" stroke="midnightblue" d="M101.662,-172.275C140.062,-164.944 215.783,-150.01 289.555,-132.103"/>
<polygon fill="midnightblue" stroke="midnightblue" points="290.596,-135.452 299.477,-129.674 288.931,-128.653 290.596,-135.452"/>
</g>
<!-- Node12 -->
<g id="node12" class="node"><title>Node12</title>
<g id="a_node12"><a xlink:href="Color_8h.html" target="_top" xlink:title="Color.h">
<polygon fill="white" stroke="black" points="103.5,-112.5 103.5,-131.5 151.5,-131.5 151.5,-112.5 103.5,-112.5"/>
<text text-anchor="middle" x="127.5" y="-119.5" font-family="Helvetica,sans-Serif" font-size="10.00">Color.h</text>
</a>
</g>
</g>
<!-- Node11&#45;&gt;Node12 -->
<g id="edge18" class="edge"><title>Node11&#45;&gt;Node12</title>
<path fill="none" stroke="midnightblue" d="M84.9216,-168.083C92.3482,-160.22 103.352,-148.569 112.312,-139.081"/>
<polygon fill="midnightblue" stroke="midnightblue" points="114.913,-141.424 119.235,-131.751 109.824,-136.618 114.913,-141.424"/>
</g>
<!-- Node13&#45;&gt;Node2 -->
<g id="edge23" class="edge"><title>Node13&#45;&gt;Node2</title>
<path fill="none" stroke="midnightblue" d="M194.416,-280.444C216.236,-271.517 250.65,-257.439 275.392,-247.317"/>
<polygon fill="midnightblue" stroke="midnightblue" points="276.752,-250.542 284.682,-243.516 274.101,-244.063 276.752,-250.542"/>
</g>
<!-- Node13&#45;&gt;Node4 -->
<g id="edge22" class="edge"><title>Node13&#45;&gt;Node4</title>
<path fill="none" stroke="midnightblue" d="M176.953,-280.368C184.117,-262.456 200.731,-220.923 210.321,-196.948"/>
<polygon fill="midnightblue" stroke="midnightblue" points="213.599,-198.176 214.063,-187.591 207.1,-195.576 213.599,-198.176"/>
</g>
<!-- Node13&#45;&gt;Node6 -->
<g id="edge21" class="edge"><title>Node13&#45;&gt;Node6</title>
<path fill="none" stroke="midnightblue" d="M174.414,-280.075C177.09,-253.945 184.948,-177.211 188.598,-141.577"/>
<polygon fill="midnightblue" stroke="midnightblue" points="192.085,-141.873 189.623,-131.568 185.122,-141.159 192.085,-141.873"/>
</g>
<!-- Node13&#45;&gt;Node9 -->
<g id="edge27" class="edge"><title>Node13&#45;&gt;Node9</title>
<path fill="none" stroke="midnightblue" d="M144.174,-280.481C123.454,-273.33 96.0096,-261.451 76.5,-244 30.1168,-202.511 23.5965,-122.254 23.1587,-85.8144"/>
<polygon fill="midnightblue" stroke="midnightblue" points="26.6591,-85.6377 23.1874,-75.6279 19.6591,-85.6179 26.6591,-85.6377"/>
</g>
<!-- Node14 -->
<g id="node14" class="node"><title>Node14</title>
<g id="a_node14"><a xlink:href="Tileset_8h.html" target="_top" xlink:title="Tileset.h">
<polygon fill="white" stroke="black" points="85.5,-224.5 85.5,-243.5 139.5,-243.5 139.5,-224.5 85.5,-224.5"/>
<text text-anchor="middle" x="112.5" y="-231.5" font-family="Helvetica,sans-Serif" font-size="10.00">Tileset.h</text>
</a>
</g>
</g>
<!-- Node13&#45;&gt;Node14 -->
<g id="edge24" class="edge"><title>Node13&#45;&gt;Node14</title>
<path fill="none" stroke="midnightblue" d="M163.699,-280.324C154.682,-272.341 141.094,-260.313 130.182,-250.653"/>
<polygon fill="midnightblue" stroke="midnightblue" points="132.287,-247.842 122.479,-243.834 127.647,-253.083 132.287,-247.842"/>
</g>
<!-- Node14&#45;&gt;Node6 -->
<g id="edge25" class="edge"><title>Node14&#45;&gt;Node6</title>
<path fill="none" stroke="midnightblue" d="M117.477,-224.363C124.882,-211.695 139.44,-187.47 153.5,-168 160.532,-158.263 169.001,-147.876 176.062,-139.538"/>
<polygon fill="midnightblue" stroke="midnightblue" points="178.93,-141.57 182.79,-131.704 173.62,-137.01 178.93,-141.57"/>
</g>
<!-- Node14&#45;&gt;Node11 -->
<g id="edge26" class="edge"><title>Node14&#45;&gt;Node11</title>
<path fill="none" stroke="midnightblue" d="M106.555,-224.083C101.523,-216.534 94.1632,-205.495 87.9865,-196.23"/>
<polygon fill="midnightblue" stroke="midnightblue" points="90.7933,-194.13 82.3341,-187.751 84.9689,-198.013 90.7933,-194.13"/>
</g>
<!-- Node16&#45;&gt;Node2 -->
<g id="edge30" class="edge"><title>Node16&#45;&gt;Node2</title>
<path fill="none" stroke="midnightblue" d="M261.252,-280.083C268.97,-272.22 280.405,-260.569 289.717,-251.081"/>
<polygon fill="midnightblue" stroke="midnightblue" points="292.404,-253.34 296.911,-243.751 287.408,-248.436 292.404,-253.34"/>
</g>
</g>
</svg>
