<?xml version="1.0" encoding="UTF-8" standalone="no"?>
<!DOCTYPE svg PUBLIC "-//W3C//DTD SVG 1.1//EN"
 "http://www.w3.org/Graphics/SVG/1.1/DTD/svg11.dtd">
<!-- Generated by graphviz version 2.36.0 (20140111.2315)
 -->
<!-- Title: Game/include/Enemy.h Pages: 1 -->
<svg width="1391pt" height="420pt"
 viewBox="0.00 0.00 1391.18 420.00" xmlns="http://www.w3.org/2000/svg" xmlns:xlink="http://www.w3.org/1999/xlink">
<g id="graph0" class="graph" transform="scale(1 1) rotate(0) translate(4 416)">
<title>Game/include/Enemy.h</title>
<polygon fill="white" stroke="none" points="-4,4 -4,-416 1387.18,-416 1387.18,4 -4,4"/>
<!-- Node1 -->
<g id="node1" class="node"><title>Node1</title>
<polygon fill="#bfbfbf" stroke="black" points="868.306,-392.5 868.306,-411.5 987.306,-411.5 987.306,-392.5 868.306,-392.5"/>
<text text-anchor="middle" x="927.806" y="-399.5" font-family="Helvetica,sans-Serif" font-size="10.00">Game/include/Enemy.h</text>
</g>
<!-- Node2 -->
<g id="node2" class="node"><title>Node2</title>
<g id="a_node2"><a xlink:href="GameObject_8h.html" target="_top" xlink:title="GameObject.h">
<polygon fill="white" stroke="black" points="973.806,-168.5 973.806,-187.5 1053.81,-187.5 1053.81,-168.5 973.806,-168.5"/>
<text text-anchor="middle" x="1013.81" y="-175.5" font-family="Helvetica,sans-Serif" font-size="10.00">GameObject.h</text>
</a>
</g>
</g>
<!-- Node1&#45;&gt;Node2 -->
<g id="edge1" class="edge"><title>Node1&#45;&gt;Node2</title>
<path fill="none" stroke="midnightblue" d="M931.178,-392.297C943.885,-359.494 989.059,-242.884 1006.69,-197.377"/>
<polygon fill="midnightblue" stroke="midnightblue" points="1010.02,-198.473 1010.36,-187.884 1003.49,-195.944 1010.02,-198.473"/>
</g>
<!-- Node9 -->
<g id="node9" class="node"><title>Node9</title>
<g id="a_node9"><a xlink:href="Rect_8h.html" target="_top" xlink:title="Rect.h">
<polygon fill="white" stroke="black" points="499.806,-112.5 499.806,-131.5 545.806,-131.5 545.806,-112.5 499.806,-112.5"/>
<text text-anchor="middle" x="522.806" y="-119.5" font-family="Helvetica,sans-Serif" font-size="10.00">Rect.h</text>
</a>
</g>
</g>
<!-- Node1&#45;&gt;Node9 -->
<g id="edge26" class="edge"><title>Node1&#45;&gt;Node9</title>
<path fill="none" stroke="midnightblue" d="M868.111,-399.031C727.295,-394.052 377.631,-379.647 262.806,-356 128.42,-328.324 52.0655,-316.44 3.80625,-188 0.679794,-179.679 -2.24302,-174.513 3.80625,-168 39.109,-129.991 403.201,-140.339 489.44,-131.483"/>
<polygon fill="midnightblue" stroke="midnightblue" points="490.066,-134.931 499.512,-130.134 489.136,-127.993 490.066,-134.931"/>
</g>
<!-- Node12 -->
<g id="node12" class="node"><title>Node12</title>
<g id="a_node12"><a xlink:href="Sprite_8h.html" target="_top" xlink:title="Sprite.h">
<polygon fill="white" stroke="black" points="591.806,-168.5 591.806,-187.5 641.806,-187.5 641.806,-168.5 591.806,-168.5"/>
<text text-anchor="middle" x="616.806" y="-175.5" font-family="Helvetica,sans-Serif" font-size="10.00">Sprite.h</text>
</a>
</g>
</g>
<!-- Node1&#45;&gt;Node12 -->
<g id="edge15" class="edge"><title>Node1&#45;&gt;Node12</title>
<path fill="none" stroke="midnightblue" d="M868.299,-399.738C689.66,-394.567 163.999,-368.824 60.8063,-244 55.1426,-237.149 54.7797,-230.534 60.8063,-224 96.1037,-185.73 464.404,-180.002 581.366,-179.148"/>
<polygon fill="midnightblue" stroke="midnightblue" points="581.59,-182.647 591.567,-179.082 581.545,-175.647 581.59,-182.647"/>
</g>
<!-- Node17 -->
<g id="node17" class="node"><title>Node17</title>
<g id="a_node17"><a xlink:href="TileMap_8h.html" target="_top" xlink:title="TileMap.h">
<polygon fill="white" stroke="black" points="426.306,-280.5 426.306,-299.5 485.306,-299.5 485.306,-280.5 426.306,-280.5"/>
<text text-anchor="middle" x="455.806" y="-287.5" font-family="Helvetica,sans-Serif" font-size="10.00">TileMap.h</text>
</a>
</g>
</g>
<!-- Node1&#45;&gt;Node17 -->
<g id="edge27" class="edge"><title>Node1&#45;&gt;Node17</title>
<path fill="none" stroke="midnightblue" d="M891.162,-392.46C804.088,-372.167 585.357,-321.192 495.395,-300.226"/>
<polygon fill="midnightblue" stroke="midnightblue" points="496.116,-296.8 485.582,-297.939 494.527,-303.618 496.116,-296.8"/>
</g>
<!-- Node29 -->
<g id="node29" class="node"><title>Node29</title>
<g id="a_node29"><a xlink:href="Timer_8h.html" target="_top" xlink:title="Timer.h">
<polygon fill="white" stroke="black" points="1317.81,-280.5 1317.81,-299.5 1367.81,-299.5 1367.81,-280.5 1317.81,-280.5"/>
<text text-anchor="middle" x="1342.81" y="-287.5" font-family="Helvetica,sans-Serif" font-size="10.00">Timer.h</text>
</a>
</g>
</g>
<!-- Node1&#45;&gt;Node29 -->
<g id="edge53" class="edge"><title>Node1&#45;&gt;Node29</title>
<path fill="none" stroke="midnightblue" d="M981.245,-392.452C1027.34,-384.582 1095.49,-371.757 1153.81,-356 1210.14,-340.778 1274.03,-317.501 1311.24,-303.324"/>
<polygon fill="midnightblue" stroke="midnightblue" points="1312.91,-306.431 1320.99,-299.581 1310.4,-299.895 1312.91,-306.431"/>
</g>
<!-- Node30 -->
<g id="node30" class="node"><title>Node30</title>
<g id="a_node30"><a xlink:href="Error_8h.html" target="_top" xlink:title="Error.h">
<polygon fill="white" stroke="black" points="1208.81,-224.5 1208.81,-243.5 1254.81,-243.5 1254.81,-224.5 1208.81,-224.5"/>
<text text-anchor="middle" x="1231.81" y="-231.5" font-family="Helvetica,sans-Serif" font-size="10.00">Error.h</text>
</a>
</g>
</g>
<!-- Node1&#45;&gt;Node30 -->
<g id="edge54" class="edge"><title>Node1&#45;&gt;Node30</title>
<path fill="none" stroke="midnightblue" d="M987.713,-396.955C1099.16,-388.003 1331.2,-362.165 1376.81,-300 1407.19,-258.59 1316.69,-243.033 1265.07,-237.627"/>
<polygon fill="midnightblue" stroke="midnightblue" points="1265.29,-234.133 1255,-236.649 1264.62,-241.1 1265.29,-234.133"/>
</g>
<!-- Node33 -->
<g id="node33" class="node"><title>Node33</title>
<g id="a_node33"><a xlink:href="WaveData_8h.html" target="_top" xlink:title="WaveData.h">
<polygon fill="white" stroke="black" points="1228.31,-280.5 1228.31,-299.5 1299.31,-299.5 1299.31,-280.5 1228.31,-280.5"/>
<text text-anchor="middle" x="1263.81" y="-287.5" font-family="Helvetica,sans-Serif" font-size="10.00">WaveData.h</text>
</a>
</g>
</g>
<!-- Node1&#45;&gt;Node33 -->
<g id="edge57" class="edge"><title>Node1&#45;&gt;Node33</title>
<path fill="none" stroke="midnightblue" d="M973.268,-392.496C1011.75,-384.737 1068.09,-372.045 1115.81,-356 1159.78,-341.214 1208.68,-318.419 1237.8,-304.125"/>
<polygon fill="midnightblue" stroke="midnightblue" points="1239.48,-307.201 1246.88,-299.627 1236.37,-300.928 1239.48,-307.201"/>
</g>
<!-- Node34 -->
<g id="node34" class="node"><title>Node34</title>
<g id="a_node34"><a xlink:href="HitPoints_8h.html" target="_top" xlink:title="HitPoints.h">
<polygon fill="white" stroke="black" points="1106.31,-280.5 1106.31,-299.5 1171.31,-299.5 1171.31,-280.5 1106.31,-280.5"/>
<text text-anchor="middle" x="1138.81" y="-287.5" font-family="Helvetica,sans-Serif" font-size="10.00">HitPoints.h</text>
</a>
</g>
</g>
<!-- Node1&#45;&gt;Node34 -->
<g id="edge61" class="edge"><title>Node1&#45;&gt;Node34</title>
<path fill="none" stroke="midnightblue" d="M987.686,-394.442C1020.71,-388.519 1061.11,-377.282 1091.81,-356 1109.1,-344.008 1122.36,-323.523 1130.31,-308.751"/>
<polygon fill="midnightblue" stroke="midnightblue" points="1133.55,-310.112 1134.96,-299.611 1127.31,-306.939 1133.55,-310.112"/>
</g>
<!-- Node35 -->
<g id="node35" class="node"><title>Node35</title>
<g id="a_node35"><a xlink:href="Sound_8h.html" target="_top" xlink:title="Sound.h">
<polygon fill="white" stroke="black" points="736.306,-168.5 736.306,-187.5 789.306,-187.5 789.306,-168.5 736.306,-168.5"/>
<text text-anchor="middle" x="762.806" y="-175.5" font-family="Helvetica,sans-Serif" font-size="10.00">Sound.h</text>
</a>
</g>
</g>
<!-- Node1&#45;&gt;Node35 -->
<g id="edge65" class="edge"><title>Node1&#45;&gt;Node35</title>
<path fill="none" stroke="midnightblue" d="M918.612,-392.17C895.252,-369.376 832.654,-305.991 792.806,-244 783.261,-229.151 775.073,-210.771 769.674,-197.348"/>
<polygon fill="midnightblue" stroke="midnightblue" points="772.853,-195.864 765.97,-187.809 766.327,-198.398 772.853,-195.864"/>
</g>
<!-- Node36 -->
<g id="node36" class="node"><title>Node36</title>
<g id="a_node36"><a xlink:href="WaveManager_8h.html" target="_top" xlink:title="WaveManager.h">
<polygon fill="white" stroke="black" points="995.806,-336.5 995.806,-355.5 1083.81,-355.5 1083.81,-336.5 995.806,-336.5"/>
<text text-anchor="middle" x="1039.81" y="-343.5" font-family="Helvetica,sans-Serif" font-size="10.00">WaveManager.h</text>
</a>
</g>
</g>
<!-- Node1&#45;&gt;Node36 -->
<g id="edge69" class="edge"><title>Node1&#45;&gt;Node36</title>
<path fill="none" stroke="midnightblue" d="M945.801,-392.324C963.844,-383.625 991.853,-370.12 1012.61,-360.113"/>
<polygon fill="midnightblue" stroke="midnightblue" points="1014.37,-363.15 1021.86,-355.655 1011.33,-356.845 1014.37,-363.15"/>
</g>
<!-- Node3 -->
<g id="node3" class="node"><title>Node3</title>
<g id="a_node3"><a xlink:href="SDL__include_8h.html" target="_top" xlink:title="SDL_include.h">
<polygon fill="white" stroke="black" points="635.806,-0.5 635.806,-19.5 715.806,-19.5 715.806,-0.5 635.806,-0.5"/>
<text text-anchor="middle" x="675.806" y="-7.5" font-family="Helvetica,sans-Serif" font-size="10.00">SDL_include.h</text>
</a>
</g>
</g>
<!-- Node2&#45;&gt;Node3 -->
<g id="edge2" class="edge"><title>Node2&#45;&gt;Node3</title>
<path fill="none" stroke="midnightblue" d="M1007.65,-168.298C991.206,-145.76 943.743,-85.2089 888.806,-56 837.567,-28.757 771.171,-18.0055 726.231,-13.7632"/>
<polygon fill="midnightblue" stroke="midnightblue" points="726.402,-10.265 716.137,-12.8857 725.796,-17.2387 726.402,-10.265"/>
</g>
<!-- Node4 -->
<g id="node4" class="node"><title>Node4</title>
<polygon fill="white" stroke="#bfbfbf" points="1129.81,-112.5 1129.81,-131.5 1173.81,-131.5 1173.81,-112.5 1129.81,-112.5"/>
<text text-anchor="middle" x="1151.81" y="-119.5" font-family="Helvetica,sans-Serif" font-size="10.00">vector</text>
</g>
<!-- Node2&#45;&gt;Node4 -->
<g id="edge3" class="edge"><title>Node2&#45;&gt;Node4</title>
<path fill="none" stroke="midnightblue" d="M1035.67,-168.444C1058.59,-159.478 1094.78,-145.314 1120.67,-135.183"/>
<polygon fill="midnightblue" stroke="midnightblue" points="1122.01,-138.42 1130.04,-131.516 1119.45,-131.901 1122.01,-138.42"/>
</g>
<!-- Node5 -->
<g id="node5" class="node"><title>Node5</title>
<polygon fill="white" stroke="#bfbfbf" points="801.806,-112.5 801.806,-131.5 853.806,-131.5 853.806,-112.5 801.806,-112.5"/>
<text text-anchor="middle" x="827.806" y="-119.5" font-family="Helvetica,sans-Serif" font-size="10.00">memory</text>
</g>
<!-- Node2&#45;&gt;Node5 -->
<g id="edge4" class="edge"><title>Node2&#45;&gt;Node5</title>
<path fill="none" stroke="midnightblue" d="M984.334,-168.444C951.609,-158.943 898.783,-143.606 863.68,-133.415"/>
<polygon fill="midnightblue" stroke="midnightblue" points="864.419,-129.985 853.839,-130.558 862.467,-136.707 864.419,-129.985"/>
</g>
<!-- Node6 -->
<g id="node6" class="node"><title>Node6</title>
<polygon fill="white" stroke="#bfbfbf" points="742.306,-112.5 742.306,-131.5 783.306,-131.5 783.306,-112.5 742.306,-112.5"/>
<text text-anchor="middle" x="762.806" y="-119.5" font-family="Helvetica,sans-Serif" font-size="10.00">string</text>
</g>
<!-- Node2&#45;&gt;Node6 -->
<g id="edge5" class="edge"><title>Node2&#45;&gt;Node6</title>
<path fill="none" stroke="midnightblue" d="M973.717,-169.29C923.517,-159.563 839.423,-143.011 793.201,-131.873"/>
<polygon fill="midnightblue" stroke="midnightblue" points="793.943,-128.451 783.395,-129.444 792.26,-135.246 793.943,-128.451"/>
</g>
<!-- Node7 -->
<g id="node7" class="node"><title>Node7</title>
<g id="a_node7"><a xlink:href="Component_8h.html" target="_top" xlink:title="Component.h">
<polygon fill="white" stroke="black" points="1037.31,-112.5 1037.31,-131.5 1112.31,-131.5 1112.31,-112.5 1037.31,-112.5"/>
<text text-anchor="middle" x="1074.81" y="-119.5" font-family="Helvetica,sans-Serif" font-size="10.00">Component.h</text>
</a>
</g>
</g>
<!-- Node2&#45;&gt;Node7 -->
<g id="edge6" class="edge"><title>Node2&#45;&gt;Node7</title>
<path fill="none" stroke="midnightblue" d="M1018.71,-168.083C1026.23,-159.905 1039.78,-147.631 1051.8,-137.954"/>
<polygon fill="midnightblue" stroke="midnightblue" points="1054.04,-140.648 1059.79,-131.751 1049.74,-135.119 1054.04,-140.648"/>
</g>
<!-- Node8 -->
<g id="node8" class="node"><title>Node8</title>
<g id="a_node8"><a xlink:href="ComponentType_8h.html" target="_top" xlink:title="ComponentType.h">
<polygon fill="white" stroke="black" points="1010.31,-56.5 1010.31,-75.5 1107.31,-75.5 1107.31,-56.5 1010.31,-56.5"/>
<text text-anchor="middle" x="1058.81" y="-63.5" font-family="Helvetica,sans-Serif" font-size="10.00">ComponentType.h</text>
</a>
</g>
</g>
<!-- Node2&#45;&gt;Node8 -->
<g id="edge9" class="edge"><title>Node2&#45;&gt;Node8</title>
<path fill="none" stroke="midnightblue" d="M1014.8,-168.276C1016.49,-155.499 1020.55,-131.14 1028.81,-112 1033.08,-102.103 1039.55,-92.0337 1045.39,-83.9363"/>
<polygon fill="midnightblue" stroke="midnightblue" points="1048.34,-85.838 1051.57,-75.7463 1042.75,-81.6235 1048.34,-85.838"/>
</g>
<!-- Node2&#45;&gt;Node9 -->
<g id="edge10" class="edge"><title>Node2&#45;&gt;Node9</title>
<path fill="none" stroke="midnightblue" d="M973.74,-169.354C970.722,-168.866 967.719,-168.408 964.806,-168 800.304,-144.975 757.868,-150.593 592.806,-132 580.874,-130.656 567.819,-129.022 556.25,-127.517"/>
<polygon fill="midnightblue" stroke="midnightblue" points="556.489,-124.018 546.117,-126.183 555.575,-130.959 556.489,-124.018"/>
</g>
<!-- Node7&#45;&gt;Node2 -->
<g id="edge8" class="edge"><title>Node7&#45;&gt;Node2</title>
<path fill="none" stroke="midnightblue" d="M1069.98,-131.834C1062.46,-140.027 1048.83,-152.382 1036.74,-162.101"/>
<polygon fill="midnightblue" stroke="midnightblue" points="1034.48,-159.429 1028.72,-168.324 1038.77,-164.96 1034.48,-159.429"/>
</g>
<!-- Node7&#45;&gt;Node8 -->
<g id="edge7" class="edge"><title>Node7&#45;&gt;Node8</title>
<path fill="none" stroke="midnightblue" d="M1072.16,-112.083C1070.02,-104.849 1066.93,-94.4087 1064.26,-85.3968"/>
<polygon fill="midnightblue" stroke="midnightblue" points="1067.6,-84.3447 1061.4,-75.7511 1060.88,-86.3334 1067.6,-84.3447"/>
</g>
<!-- Node9&#45;&gt;Node3 -->
<g id="edge11" class="edge"><title>Node9&#45;&gt;Node3</title>
<path fill="none" stroke="midnightblue" d="M525.647,-112.17C530.515,-98.3565 541.714,-71.6042 559.806,-56 578.615,-39.7781 603.93,-29.0502 626.112,-22.1535"/>
<polygon fill="midnightblue" stroke="midnightblue" points="627.109,-25.5084 635.722,-19.3381 625.141,-18.7907 627.109,-25.5084"/>
</g>
<!-- Node10 -->
<g id="node10" class="node"><title>Node10</title>
<g id="a_node10"><a xlink:href="Vec2_8h.html" target="_top" xlink:title="Vec2.h">
<polygon fill="white" stroke="black" points="352.306,-56.5 352.306,-75.5 399.306,-75.5 399.306,-56.5 352.306,-56.5"/>
<text text-anchor="middle" x="375.806" y="-63.5" font-family="Helvetica,sans-Serif" font-size="10.00">Vec2.h</text>
</a>
</g>
</g>
<!-- Node9&#45;&gt;Node10 -->
<g id="edge12" class="edge"><title>Node9&#45;&gt;Node10</title>
<path fill="none" stroke="midnightblue" d="M499.514,-112.444C474.999,-103.438 436.21,-89.1891 408.606,-79.049"/>
<polygon fill="midnightblue" stroke="midnightblue" points="409.583,-75.6793 398.99,-75.5164 407.17,-82.25 409.583,-75.6793"/>
</g>
<!-- Node11 -->
<g id="node11" class="node"><title>Node11</title>
<polygon fill="white" stroke="#bfbfbf" points="463.806,-56.5 463.806,-75.5 507.806,-75.5 507.806,-56.5 463.806,-56.5"/>
<text text-anchor="middle" x="485.806" y="-63.5" font-family="Helvetica,sans-Serif" font-size="10.00">cmath</text>
</g>
<!-- Node9&#45;&gt;Node11 -->
<g id="edge14" class="edge"><title>Node9&#45;&gt;Node11</title>
<path fill="none" stroke="midnightblue" d="M516.696,-112.083C511.524,-104.534 503.96,-93.4948 497.612,-84.2298"/>
<polygon fill="midnightblue" stroke="midnightblue" points="500.342,-82.0221 491.802,-75.7511 494.567,-85.9787 500.342,-82.0221"/>
</g>
<!-- Node10&#45;&gt;Node3 -->
<g id="edge13" class="edge"><title>Node10&#45;&gt;Node3</title>
<path fill="none" stroke="midnightblue" d="M399.347,-60.7627C447.859,-52.0305 559.902,-31.8628 625.489,-20.0571"/>
<polygon fill="midnightblue" stroke="midnightblue" points="626.378,-23.4534 635.6,-18.2371 625.138,-16.5641 626.378,-23.4534"/>
</g>
<!-- Node12&#45;&gt;Node3 -->
<g id="edge16" class="edge"><title>Node12&#45;&gt;Node3</title>
<path fill="none" stroke="midnightblue" d="M642.128,-169.662C660.052,-162.995 682.786,-151.204 693.806,-132 712.582,-99.2802 696.637,-53.7131 685.114,-28.879"/>
<polygon fill="midnightblue" stroke="midnightblue" points="688.109,-27.0374 680.561,-19.6031 681.825,-30.1222 688.109,-27.0374"/>
</g>
<!-- Node12&#45;&gt;Node5 -->
<g id="edge18" class="edge"><title>Node12&#45;&gt;Node5</title>
<path fill="none" stroke="midnightblue" d="M641.839,-170.593C679.03,-161.075 749.066,-143.151 791.77,-132.222"/>
<polygon fill="midnightblue" stroke="midnightblue" points="792.663,-135.607 801.483,-129.737 790.927,-128.825 792.663,-135.607"/>
</g>
<!-- Node12&#45;&gt;Node6 -->
<g id="edge17" class="edge"><title>Node12&#45;&gt;Node6</title>
<path fill="none" stroke="midnightblue" d="M639.94,-168.444C665.005,-159.173 705.092,-144.346 732.619,-134.165"/>
<polygon fill="midnightblue" stroke="midnightblue" points="733.976,-137.395 742.141,-130.643 731.548,-130.83 733.976,-137.395"/>
</g>
<!-- Node12&#45;&gt;Node9 -->
<g id="edge20" class="edge"><title>Node12&#45;&gt;Node9</title>
<path fill="none" stroke="midnightblue" d="M601.704,-168.324C586.903,-159.822 564.112,-146.729 546.824,-136.797"/>
<polygon fill="midnightblue" stroke="midnightblue" points="548.286,-133.601 537.871,-131.655 544.799,-139.671 548.286,-133.601"/>
</g>
<!-- Node13 -->
<g id="node13" class="node"><title>Node13</title>
<g id="a_node13"><a xlink:href="Color_8h.html" target="_top" xlink:title="Color.h">
<polygon fill="white" stroke="black" points="433.806,-112.5 433.806,-131.5 481.806,-131.5 481.806,-112.5 433.806,-112.5"/>
<text text-anchor="middle" x="457.806" y="-119.5" font-family="Helvetica,sans-Serif" font-size="10.00">Color.h</text>
</a>
</g>
</g>
<!-- Node12&#45;&gt;Node13 -->
<g id="edge19" class="edge"><title>Node12&#45;&gt;Node13</title>
<path fill="none" stroke="midnightblue" d="M591.612,-168.444C564.549,-159.252 521.402,-144.599 491.451,-134.426"/>
<polygon fill="midnightblue" stroke="midnightblue" points="492.436,-131.065 481.842,-131.163 490.185,-137.693 492.436,-131.065"/>
</g>
<!-- Node14 -->
<g id="node14" class="node"><title>Node14</title>
<g id="a_node14"><a xlink:href="InputManager_8h.html" target="_top" xlink:title="InputManager.h">
<polygon fill="white" stroke="black" points="601.806,-112.5 601.806,-131.5 685.806,-131.5 685.806,-112.5 601.806,-112.5"/>
<text text-anchor="middle" x="643.806" y="-119.5" font-family="Helvetica,sans-Serif" font-size="10.00">InputManager.h</text>
</a>
</g>
</g>
<!-- Node12&#45;&gt;Node14 -->
<g id="edge21" class="edge"><title>Node12&#45;&gt;Node14</title>
<path fill="none" stroke="midnightblue" d="M621.265,-168.083C624.961,-160.691 630.33,-149.953 634.901,-140.811"/>
<polygon fill="midnightblue" stroke="midnightblue" points="638.089,-142.261 639.431,-131.751 631.828,-139.13 638.089,-142.261"/>
</g>
<!-- Node14&#45;&gt;Node3 -->
<g id="edge22" class="edge"><title>Node14&#45;&gt;Node3</title>
<path fill="none" stroke="midnightblue" d="M646.317,-112.368C651.505,-94.5366 663.502,-53.2953 670.491,-29.2717"/>
<polygon fill="midnightblue" stroke="midnightblue" points="673.874,-30.1711 673.307,-19.5914 667.153,-28.2157 673.874,-30.1711"/>
</g>
<!-- Node14&#45;&gt;Node10 -->
<g id="edge23" class="edge"><title>Node14&#45;&gt;Node10</title>
<path fill="none" stroke="midnightblue" d="M601.636,-112.503C548.49,-101.794 458.208,-83.6034 409.447,-73.7783"/>
<polygon fill="midnightblue" stroke="midnightblue" points="409.909,-70.3012 399.415,-71.7569 408.526,-77.1633 409.909,-70.3012"/>
</g>
<!-- Node15 -->
<g id="node15" class="node"><title>Node15</title>
<polygon fill="white" stroke="#bfbfbf" points="775.306,-56.5 775.306,-75.5 858.306,-75.5 858.306,-56.5 775.306,-56.5"/>
<text text-anchor="middle" x="816.806" y="-63.5" font-family="Helvetica,sans-Serif" font-size="10.00">unordered_map</text>
</g>
<!-- Node14&#45;&gt;Node15 -->
<g id="edge24" class="edge"><title>Node14&#45;&gt;Node15</title>
<path fill="none" stroke="midnightblue" d="M671.219,-112.444C700.576,-103.28 747.326,-88.6876 779.902,-78.5192"/>
<polygon fill="midnightblue" stroke="midnightblue" points="781.019,-81.8371 789.522,-75.5164 778.933,-75.1551 781.019,-81.8371"/>
</g>
<!-- Node16 -->
<g id="node16" class="node"><title>Node16</title>
<polygon fill="white" stroke="#bfbfbf" points="601.806,-56.5 601.806,-75.5 647.806,-75.5 647.806,-56.5 601.806,-56.5"/>
<text text-anchor="middle" x="624.806" y="-63.5" font-family="Helvetica,sans-Serif" font-size="10.00">cstdint</text>
</g>
<!-- Node14&#45;&gt;Node16 -->
<g id="edge25" class="edge"><title>Node14&#45;&gt;Node16</title>
<path fill="none" stroke="midnightblue" d="M640.669,-112.083C638.123,-104.849 634.45,-94.4087 631.279,-85.3968"/>
<polygon fill="midnightblue" stroke="midnightblue" points="634.506,-84.0225 627.885,-75.7511 627.903,-86.3459 634.506,-84.0225"/>
</g>
<!-- Node17&#45;&gt;Node2 -->
<g id="edge40" class="edge"><title>Node17&#45;&gt;Node2</title>
<path fill="none" stroke="midnightblue" d="M485.448,-286.75C545.23,-281.855 684.314,-268.645 798.806,-244 864.136,-229.938 938.345,-205.575 980.27,-191.004"/>
<polygon fill="midnightblue" stroke="midnightblue" points="981.678,-194.219 989.96,-187.61 979.365,-187.613 981.678,-194.219"/>
</g>
<!-- Node17&#45;&gt;Node4 -->
<g id="edge29" class="edge"><title>Node17&#45;&gt;Node4</title>
<path fill="none" stroke="midnightblue" d="M485.321,-289.717C576.264,-290.785 858.393,-285.513 1062.81,-188 1089.86,-175.092 1117.14,-153.635 1134.23,-138.929"/>
<polygon fill="midnightblue" stroke="midnightblue" points="1136.99,-141.167 1142.19,-131.936 1132.37,-135.91 1136.99,-141.167"/>
</g>
<!-- Node17&#45;&gt;Node6 -->
<g id="edge28" class="edge"><title>Node17&#45;&gt;Node6</title>
<path fill="none" stroke="midnightblue" d="M485.393,-286.176C539.433,-280.531 651.434,-266.437 682.806,-244 714.553,-221.295 704.776,-200.218 726.806,-168 733.512,-158.193 741.743,-147.801 748.641,-139.478"/>
<polygon fill="midnightblue" stroke="midnightblue" points="751.459,-141.566 755.228,-131.664 746.107,-137.054 751.459,-141.566"/>
</g>
<!-- Node17&#45;&gt;Node10 -->
<g id="edge39" class="edge"><title>Node17&#45;&gt;Node10</title>
<path fill="none" stroke="midnightblue" d="M426.119,-288.996C342.284,-288.492 105.624,-283.515 40.8063,-244 15.3354,-228.472 12.3917,-216.569 3.80625,-188 1.24798,-179.487 -1.4691,-175.154 3.80625,-168 44.5121,-112.796 258.536,-81.2419 342.223,-70.8576"/>
<polygon fill="midnightblue" stroke="midnightblue" points="342.718,-74.3233 352.222,-69.6412 341.872,-67.3746 342.718,-74.3233"/>
</g>
<!-- Node18 -->
<g id="node18" class="node"><title>Node18</title>
<polygon fill="white" stroke="#bfbfbf" points="189.306,-224.5 189.306,-243.5 218.306,-243.5 218.306,-224.5 189.306,-224.5"/>
<text text-anchor="middle" x="203.806" y="-231.5" font-family="Helvetica,sans-Serif" font-size="10.00">list</text>
</g>
<!-- Node17&#45;&gt;Node18 -->
<g id="edge30" class="edge"><title>Node17&#45;&gt;Node18</title>
<path fill="none" stroke="midnightblue" d="M426.122,-284.905C383.873,-278.703 303.928,-265.592 228.426,-244.102"/>
<polygon fill="midnightblue" stroke="midnightblue" points="229.346,-240.724 218.766,-241.298 227.395,-247.447 229.346,-240.724"/>
</g>
<!-- Node19 -->
<g id="node19" class="node"><title>Node19</title>
<polygon fill="white" stroke="#bfbfbf" points="236.306,-224.5 236.306,-243.5 279.306,-243.5 279.306,-224.5 236.306,-224.5"/>
<text text-anchor="middle" x="257.806" y="-231.5" font-family="Helvetica,sans-Serif" font-size="10.00">queue</text>
</g>
<!-- Node17&#45;&gt;Node19 -->
<g id="edge31" class="edge"><title>Node17&#45;&gt;Node19</title>
<path fill="none" stroke="midnightblue" d="M426.296,-281.379C394.592,-273.13 342.499,-259.397 289.052,-244.299"/>
<polygon fill="midnightblue" stroke="midnightblue" points="289.989,-240.927 279.414,-241.566 288.079,-247.662 289.989,-240.927"/>
</g>
<!-- Node20 -->
<g id="node20" class="node"><title>Node20</title>
<polygon fill="white" stroke="#bfbfbf" points="120.806,-168.5 120.806,-187.5 160.806,-187.5 160.806,-168.5 120.806,-168.5"/>
<text text-anchor="middle" x="140.806" y="-175.5" font-family="Helvetica,sans-Serif" font-size="10.00">limits</text>
</g>
<!-- Node17&#45;&gt;Node20 -->
<g id="edge32" class="edge"><title>Node17&#45;&gt;Node20</title>
<path fill="none" stroke="midnightblue" d="M426.041,-287.849C338.266,-284.15 85.0786,-271.195 60.8063,-244 40.9139,-221.713 80.9817,-200.853 111.27,-189.036"/>
<polygon fill="midnightblue" stroke="midnightblue" points="112.527,-192.302 120.672,-185.526 110.079,-185.744 112.527,-192.302"/>
</g>
<!-- Node21 -->
<g id="node21" class="node"><title>Node21</title>
<polygon fill="white" stroke="#bfbfbf" points="297.306,-224.5 297.306,-243.5 332.306,-243.5 332.306,-224.5 297.306,-224.5"/>
<text text-anchor="middle" x="314.806" y="-231.5" font-family="Helvetica,sans-Serif" font-size="10.00">map</text>
</g>
<!-- Node17&#45;&gt;Node21 -->
<g id="edge33" class="edge"><title>Node17&#45;&gt;Node21</title>
<path fill="none" stroke="midnightblue" d="M433.464,-280.444C408.676,-270.95 368.673,-255.63 342.062,-245.439"/>
<polygon fill="midnightblue" stroke="midnightblue" points="343.17,-242.115 332.579,-241.807 340.666,-248.652 343.17,-242.115"/>
</g>
<!-- Node22 -->
<g id="node22" class="node"><title>Node22</title>
<polygon fill="white" stroke="#bfbfbf" points="350.306,-224.5 350.306,-243.5 409.306,-243.5 409.306,-224.5 350.306,-224.5"/>
<text text-anchor="middle" x="379.806" y="-231.5" font-family="Helvetica,sans-Serif" font-size="10.00">functional</text>
</g>
<!-- Node17&#45;&gt;Node22 -->
<g id="edge34" class="edge"><title>Node17&#45;&gt;Node22</title>
<path fill="none" stroke="midnightblue" d="M443.596,-280.324C432.03,-272.107 414.431,-259.602 400.646,-249.807"/>
<polygon fill="midnightblue" stroke="midnightblue" points="402.418,-246.773 392.239,-243.834 398.364,-252.479 402.418,-246.773"/>
</g>
<!-- Node23 -->
<g id="node23" class="node"><title>Node23</title>
<polygon fill="white" stroke="#bfbfbf" points="427.806,-224.5 427.806,-243.5 483.806,-243.5 483.806,-224.5 427.806,-224.5"/>
<text text-anchor="middle" x="455.806" y="-231.5" font-family="Helvetica,sans-Serif" font-size="10.00">algorithm</text>
</g>
<!-- Node17&#45;&gt;Node23 -->
<g id="edge35" class="edge"><title>Node17&#45;&gt;Node23</title>
<path fill="none" stroke="midnightblue" d="M455.806,-280.083C455.806,-273.006 455.806,-262.861 455.806,-253.986"/>
<polygon fill="midnightblue" stroke="midnightblue" points="459.306,-253.751 455.806,-243.751 452.306,-253.751 459.306,-253.751"/>
</g>
<!-- Node24 -->
<g id="node24" class="node"><title>Node24</title>
<g id="a_node24"><a xlink:href="Tileset_8h.html" target="_top" xlink:title="Tileset.h">
<polygon fill="white" stroke="black" points="619.806,-224.5 619.806,-243.5 673.806,-243.5 673.806,-224.5 619.806,-224.5"/>
<text text-anchor="middle" x="646.806" y="-231.5" font-family="Helvetica,sans-Serif" font-size="10.00">Tileset.h</text>
</a>
</g>
</g>
<!-- Node17&#45;&gt;Node24 -->
<g id="edge36" class="edge"><title>Node17&#45;&gt;Node24</title>
<path fill="none" stroke="midnightblue" d="M485.65,-280.562C519.216,-271.073 573.756,-255.653 609.953,-245.419"/>
<polygon fill="midnightblue" stroke="midnightblue" points="610.973,-248.768 619.643,-242.68 609.068,-242.032 610.973,-248.768"/>
</g>
<!-- Node25 -->
<g id="node25" class="node"><title>Node25</title>
<g id="a_node25"><a xlink:href="AStarHeuristic_8h.html" target="_top" xlink:title="AStarHeuristic.h">
<polygon fill="white" stroke="black" points="13.3063,-168.5 13.3063,-187.5 102.306,-187.5 102.306,-168.5 13.3063,-168.5"/>
<text text-anchor="middle" x="57.8063" y="-175.5" font-family="Helvetica,sans-Serif" font-size="10.00">AStarHeuristic.h</text>
</a>
</g>
</g>
<!-- Node17&#45;&gt;Node25 -->
<g id="edge41" class="edge"><title>Node17&#45;&gt;Node25</title>
<path fill="none" stroke="midnightblue" d="M426,-287.927C336.825,-284.413 76.7183,-271.841 51.8063,-244 40.6174,-231.496 44.3782,-211.712 49.5386,-197.253"/>
<polygon fill="midnightblue" stroke="midnightblue" points="52.8389,-198.428 53.3498,-187.845 46.351,-195.799 52.8389,-198.428"/>
</g>
<!-- Node26 -->
<g id="node26" class="node"><title>Node26</title>
<g id="a_node26"><a xlink:href="Resources_8h.html" target="_top" xlink:title="Resources.h">
<polygon fill="white" stroke="black" points="883.806,-168.5 883.806,-187.5 955.806,-187.5 955.806,-168.5 883.806,-168.5"/>
<text text-anchor="middle" x="919.806" y="-175.5" font-family="Helvetica,sans-Serif" font-size="10.00">Resources.h</text>
</a>
</g>
</g>
<!-- Node17&#45;&gt;Node26 -->
<g id="edge43" class="edge"><title>Node17&#45;&gt;Node26</title>
<path fill="none" stroke="midnightblue" d="M485.439,-286.731C539.519,-282.107 657.521,-269.773 753.806,-244 804.202,-230.51 860.202,-206.604 892.576,-191.847"/>
<polygon fill="midnightblue" stroke="midnightblue" points="894.215,-194.946 901.833,-187.583 891.286,-188.588 894.215,-194.946"/>
</g>
<!-- Node27 -->
<g id="node27" class="node"><title>Node27</title>
<g id="a_node27"><a xlink:href="TileMapObserver_8h.html" target="_top" xlink:title="TileMapObserver.h">
<polygon fill="white" stroke="black" points="502.306,-224.5 502.306,-243.5 601.306,-243.5 601.306,-224.5 502.306,-224.5"/>
<text text-anchor="middle" x="551.806" y="-231.5" font-family="Helvetica,sans-Serif" font-size="10.00">TileMapObserver.h</text>
</a>
</g>
</g>
<!-- Node17&#45;&gt;Node27 -->
<g id="edge48" class="edge"><title>Node17&#45;&gt;Node27</title>
<path fill="none" stroke="midnightblue" d="M471.23,-280.324C486.346,-271.822 509.622,-258.729 527.277,-248.797"/>
<polygon fill="midnightblue" stroke="midnightblue" points="529.421,-251.608 536.42,-243.655 525.989,-245.507 529.421,-251.608"/>
</g>
<!-- Node28 -->
<g id="node28" class="node"><title>Node28</title>
<g id="a_node28"><a xlink:href="NearestGOFinder_8h.html" target="_top" xlink:title="NearestGOFinder.h">
<polygon fill="white" stroke="black" points="70.3063,-224.5 70.3063,-243.5 171.306,-243.5 171.306,-224.5 70.3063,-224.5"/>
<text text-anchor="middle" x="120.806" y="-231.5" font-family="Helvetica,sans-Serif" font-size="10.00">NearestGOFinder.h</text>
</a>
</g>
</g>
<!-- Node17&#45;&gt;Node28 -->
<g id="edge49" class="edge"><title>Node17&#45;&gt;Node28</title>
<path fill="none" stroke="midnightblue" d="M426.077,-284.208C371.326,-275.382 253.56,-256.399 181.36,-244.761"/>
<polygon fill="midnightblue" stroke="midnightblue" points="181.916,-241.305 171.487,-243.169 180.802,-248.216 181.916,-241.305"/>
</g>
<!-- Node24&#45;&gt;Node6 -->
<g id="edge37" class="edge"><title>Node24&#45;&gt;Node6</title>
<path fill="none" stroke="midnightblue" d="M651.718,-224.229C659.444,-210.962 675.459,-185.485 693.806,-168 706.761,-155.655 723.536,-144.627 737.301,-136.578"/>
<polygon fill="midnightblue" stroke="midnightblue" points="739.289,-139.475 746.267,-131.502 735.84,-133.383 739.289,-139.475"/>
</g>
<!-- Node24&#45;&gt;Node12 -->
<g id="edge38" class="edge"><title>Node24&#45;&gt;Node12</title>
<path fill="none" stroke="midnightblue" d="M641.852,-224.083C637.702,-216.613 631.653,-205.724 626.54,-196.52"/>
<polygon fill="midnightblue" stroke="midnightblue" points="629.584,-194.793 621.668,-187.751 623.465,-198.192 629.584,-194.793"/>
</g>
<!-- Node25&#45;&gt;Node10 -->
<g id="edge42" class="edge"><title>Node25&#45;&gt;Node10</title>
<path fill="none" stroke="midnightblue" d="M82.4946,-168.46C139.149,-148.863 278.528,-100.65 342.604,-78.4849"/>
<polygon fill="midnightblue" stroke="midnightblue" points="343.911,-81.7365 352.217,-75.1596 341.623,-75.1211 343.911,-81.7365"/>
</g>
<!-- Node26&#45;&gt;Node3 -->
<g id="edge44" class="edge"><title>Node26&#45;&gt;Node3</title>
<path fill="none" stroke="midnightblue" d="M918.684,-168.417C915.303,-146.163 903.102,-86.242 866.806,-56 827.273,-23.0604 767.899,-13.3253 725.859,-10.8795"/>
<polygon fill="midnightblue" stroke="midnightblue" points="725.986,-7.38174 715.835,-10.4143 725.662,-14.3742 725.986,-7.38174"/>
</g>
<!-- Node26&#45;&gt;Node5 -->
<g id="edge47" class="edge"><title>Node26&#45;&gt;Node5</title>
<path fill="none" stroke="midnightblue" d="M905.025,-168.324C890.539,-159.822 868.233,-146.729 851.313,-136.797"/>
<polygon fill="midnightblue" stroke="midnightblue" points="852.947,-133.698 842.551,-131.655 849.403,-139.735 852.947,-133.698"/>
</g>
<!-- Node26&#45;&gt;Node6 -->
<g id="edge45" class="edge"><title>Node26&#45;&gt;Node6</title>
<path fill="none" stroke="midnightblue" d="M894.929,-168.444C867.394,-158.973 822.999,-143.703 793.369,-133.512"/>
<polygon fill="midnightblue" stroke="midnightblue" points="794.151,-130.08 783.556,-130.137 791.874,-136.699 794.151,-130.08"/>
</g>
<!-- Node26&#45;&gt;Node15 -->
<g id="edge46" class="edge"><title>Node26&#45;&gt;Node15</title>
<path fill="none" stroke="midnightblue" d="M912.63,-168.402C902.016,-155.782 881.382,-131.617 862.806,-112 853.396,-102.063 842.459,-91.3318 833.611,-82.8421"/>
<polygon fill="midnightblue" stroke="midnightblue" points="835.831,-80.1238 826.176,-75.7626 831.004,-85.1932 835.831,-80.1238"/>
</g>
<!-- Node28&#45;&gt;Node2 -->
<g id="edge52" class="edge"><title>Node28&#45;&gt;Node2</title>
<path fill="none" stroke="midnightblue" d="M171.612,-224.902C174.38,-224.569 177.125,-224.265 179.806,-224 524.056,-189.946 616.062,-226.921 963.665,-187.958"/>
<polygon fill="midnightblue" stroke="midnightblue" points="964.219,-191.417 973.761,-186.813 963.43,-184.462 964.219,-191.417"/>
</g>
<!-- Node28&#45;&gt;Node10 -->
<g id="edge51" class="edge"><title>Node28&#45;&gt;Node10</title>
<path fill="none" stroke="midnightblue" d="M134.157,-224.309C175.64,-197.304 302.583,-114.667 353.919,-81.2479"/>
<polygon fill="midnightblue" stroke="midnightblue" points="356.116,-83.9941 362.588,-75.6051 352.297,-78.1276 356.116,-83.9941"/>
</g>
<!-- Node28&#45;&gt;Node20 -->
<g id="edge50" class="edge"><title>Node28&#45;&gt;Node20</title>
<path fill="none" stroke="midnightblue" d="M124.109,-224.083C126.788,-216.849 130.655,-206.409 133.993,-197.397"/>
<polygon fill="midnightblue" stroke="midnightblue" points="137.374,-198.344 137.565,-187.751 130.81,-195.913 137.374,-198.344"/>
</g>
<!-- Node31 -->
<g id="node31" class="node"><title>Node31</title>
<polygon fill="white" stroke="#bfbfbf" points="1185.81,-168.5 1185.81,-187.5 1239.81,-187.5 1239.81,-168.5 1185.81,-168.5"/>
<text text-anchor="middle" x="1212.81" y="-175.5" font-family="Helvetica,sans-Serif" font-size="10.00">iostream</text>
</g>
<!-- Node30&#45;&gt;Node31 -->
<g id="edge55" class="edge"><title>Node30&#45;&gt;Node31</title>
<path fill="none" stroke="midnightblue" d="M1228.67,-224.083C1226.12,-216.849 1222.45,-206.409 1219.28,-197.397"/>
<polygon fill="midnightblue" stroke="midnightblue" points="1222.51,-196.023 1215.89,-187.751 1215.9,-198.346 1222.51,-196.023"/>
</g>
<!-- Node32 -->
<g id="node32" class="node"><title>Node32</title>
<polygon fill="white" stroke="#bfbfbf" points="1257.81,-168.5 1257.81,-187.5 1305.81,-187.5 1305.81,-168.5 1257.81,-168.5"/>
<text text-anchor="middle" x="1281.81" y="-175.5" font-family="Helvetica,sans-Serif" font-size="10.00">stdlib.h</text>
</g>
<!-- Node30&#45;&gt;Node32 -->
<g id="edge56" class="edge"><title>Node30&#45;&gt;Node32</title>
<path fill="none" stroke="midnightblue" d="M1240.06,-224.083C1247.27,-216.298 1257.92,-204.801 1266.65,-195.367"/>
<polygon fill="midnightblue" stroke="midnightblue" points="1269.48,-197.467 1273.7,-187.751 1264.34,-192.711 1269.48,-197.467"/>
</g>
<!-- Node33&#45;&gt;Node4 -->
<g id="edge59" class="edge"><title>Node33&#45;&gt;Node4</title>
<path fill="none" stroke="midnightblue" d="M1273.06,-280.323C1294.34,-259.331 1342.84,-204.82 1314.81,-168 1299.03,-147.284 1226.87,-133.672 1184.03,-127.265"/>
<polygon fill="midnightblue" stroke="midnightblue" points="1184.47,-123.793 1174.07,-125.827 1183.47,-130.721 1184.47,-123.793"/>
</g>
<!-- Node33&#45;&gt;Node6 -->
<g id="edge58" class="edge"><title>Node33&#45;&gt;Node6</title>
<path fill="none" stroke="midnightblue" d="M1228.17,-283.104C1158.44,-270.845 999.845,-239.389 874.806,-188 841.146,-174.166 805.273,-151.838 783.444,-137.289"/>
<polygon fill="midnightblue" stroke="midnightblue" points="785.24,-134.279 774.996,-131.578 781.32,-140.078 785.24,-134.279"/>
</g>
<!-- Node33&#45;&gt;Node30 -->
<g id="edge60" class="edge"><title>Node33&#45;&gt;Node30</title>
<path fill="none" stroke="midnightblue" d="M1258.52,-280.083C1254.1,-272.613 1247.64,-261.724 1242.19,-252.52"/>
<polygon fill="midnightblue" stroke="midnightblue" points="1245.1,-250.57 1236.99,-243.751 1239.08,-254.138 1245.1,-250.57"/>
</g>
<!-- Node34&#45;&gt;Node7 -->
<g id="edge62" class="edge"><title>Node34&#45;&gt;Node7</title>
<path fill="none" stroke="midnightblue" d="M1140.79,-280.456C1145.11,-259.758 1153.52,-205.852 1133.81,-168 1126.88,-154.708 1114.07,-144.203 1102.14,-136.697"/>
<polygon fill="midnightblue" stroke="midnightblue" points="1103.71,-133.561 1093.31,-131.546 1100.19,-139.608 1103.71,-133.561"/>
</g>
<!-- Node34&#45;&gt;Node12 -->
<g id="edge63" class="edge"><title>Node34&#45;&gt;Node12</title>
<path fill="none" stroke="midnightblue" d="M1106.15,-282.119C1013.21,-262.534 747.791,-206.602 651.902,-186.396"/>
<polygon fill="midnightblue" stroke="midnightblue" points="652.358,-182.915 641.851,-184.278 650.915,-189.765 652.358,-182.915"/>
</g>
<!-- Node34&#45;&gt;Node30 -->
<g id="edge64" class="edge"><title>Node34&#45;&gt;Node30</title>
<path fill="none" stroke="midnightblue" d="M1153.75,-280.324C1168.39,-271.822 1190.94,-258.729 1208.04,-248.797"/>
<polygon fill="midnightblue" stroke="midnightblue" points="1210.01,-251.703 1216.9,-243.655 1206.5,-245.649 1210.01,-251.703"/>
</g>
<!-- Node35&#45;&gt;Node3 -->
<g id="edge66" class="edge"><title>Node35&#45;&gt;Node3</title>
<path fill="none" stroke="midnightblue" d="M736.208,-173.885C692.902,-168.205 610.218,-154.621 592.806,-132 572.203,-105.233 575.527,-85.0236 592.806,-56 601.903,-40.7208 618.195,-30.3102 633.95,-23.3857"/>
<polygon fill="midnightblue" stroke="midnightblue" points="635.64,-26.4794 643.622,-19.5124 633.037,-19.9811 635.64,-26.4794"/>
</g>
<!-- Node35&#45;&gt;Node5 -->
<g id="edge67" class="edge"><title>Node35&#45;&gt;Node5</title>
<path fill="none" stroke="midnightblue" d="M773.25,-168.324C782.952,-160.263 797.622,-148.077 809.306,-138.369"/>
<polygon fill="midnightblue" stroke="midnightblue" points="811.718,-140.916 817.173,-131.834 807.244,-135.532 811.718,-140.916"/>
</g>
<!-- Node35&#45;&gt;Node6 -->
<g id="edge68" class="edge"><title>Node35&#45;&gt;Node6</title>
<path fill="none" stroke="midnightblue" d="M762.806,-168.083C762.806,-161.006 762.806,-150.861 762.806,-141.986"/>
<polygon fill="midnightblue" stroke="midnightblue" points="766.306,-141.751 762.806,-131.751 759.306,-141.751 766.306,-141.751"/>
</g>
<!-- Node36&#45;&gt;Node2 -->
<g id="edge71" class="edge"><title>Node36&#45;&gt;Node2</title>
<path fill="none" stroke="midnightblue" d="M1038.41,-336.075C1034.32,-309.945 1022.3,-233.211 1016.72,-197.577"/>
<polygon fill="midnightblue" stroke="midnightblue" points="1020.15,-196.906 1015.15,-187.568 1013.24,-197.989 1020.15,-196.906"/>
</g>
<!-- Node36&#45;&gt;Node5 -->
<g id="edge70" class="edge"><title>Node36&#45;&gt;Node5</title>
<path fill="none" stroke="midnightblue" d="M1029.52,-336.392C1002.58,-313.621 928.403,-249.338 874.806,-188 861.405,-172.664 847.977,-153.636 838.926,-140.14"/>
<polygon fill="midnightblue" stroke="midnightblue" points="841.845,-138.209 833.413,-131.794 836.004,-142.067 841.845,-138.209"/>
</g>
<!-- Node36&#45;&gt;Node7 -->
<g id="edge74" class="edge"><title>Node36&#45;&gt;Node7</title>
<path fill="none" stroke="midnightblue" d="M1041.18,-336.297C1046.33,-303.633 1064.58,-187.866 1071.82,-141.957"/>
<polygon fill="midnightblue" stroke="midnightblue" points="1075.31,-142.307 1073.41,-131.884 1068.39,-141.217 1075.31,-142.307"/>
</g>
<!-- Node36&#45;&gt;Node17 -->
<g id="edge73" class="edge"><title>Node36&#45;&gt;Node17</title>
<path fill="none" stroke="midnightblue" d="M995.432,-340.897C885.289,-330.712 600.716,-304.399 495.597,-294.679"/>
<polygon fill="midnightblue" stroke="midnightblue" points="495.695,-291.174 485.415,-293.738 495.051,-298.144 495.695,-291.174"/>
</g>
<!-- Node36&#45;&gt;Node29 -->
<g id="edge72" class="edge"><title>Node36&#45;&gt;Node29</title>
<path fill="none" stroke="midnightblue" d="M1084.13,-338.743C1137.45,-330.941 1229.58,-316.594 1307.81,-300 1307.91,-299.979 1308.01,-299.958 1308.11,-299.936"/>
<polygon fill="midnightblue" stroke="midnightblue" points="1308.67,-303.398 1317.63,-297.747 1307.1,-296.576 1308.67,-303.398"/>
</g>
<!-- Node36&#45;&gt;Node30 -->
<g id="edge76" class="edge"><title>Node36&#45;&gt;Node30</title>
<path fill="none" stroke="midnightblue" d="M1084.09,-337.667C1113.22,-331.259 1151.11,-319.778 1179.81,-300 1197.96,-287.486 1212.95,-266.799 1222.09,-252.127"/>
<polygon fill="midnightblue" stroke="midnightblue" points="1225.12,-253.882 1227.23,-243.5 1219.11,-250.299 1225.12,-253.882"/>
</g>
<!-- Node36&#45;&gt;Node33 -->
<g id="edge75" class="edge"><title>Node36&#45;&gt;Node33</title>
<path fill="none" stroke="midnightblue" d="M1075.3,-336.444C1114.13,-327.083 1176.46,-312.056 1218.72,-301.868"/>
<polygon fill="midnightblue" stroke="midnightblue" points="1219.58,-305.263 1228.48,-299.516 1217.94,-298.458 1219.58,-305.263"/>
</g>
<!-- Node36&#45;&gt;Node35 -->
<g id="edge77" class="edge"><title>Node36&#45;&gt;Node35</title>
<path fill="none" stroke="midnightblue" d="M995.664,-339.309C961.568,-333.415 914.215,-321.868 877.806,-300 832.225,-272.623 792.911,-222.338 774.293,-196.042"/>
<polygon fill="midnightblue" stroke="midnightblue" points="776.967,-193.756 768.396,-187.526 771.211,-197.74 776.967,-193.756"/>
</g>
</g>
</svg>
