<?xml version="1.0" encoding="UTF-8" standalone="no"?>
<!DOCTYPE svg PUBLIC "-//W3C//DTD SVG 1.1//EN"
 "http://www.w3.org/Graphics/SVG/1.1/DTD/svg11.dtd">
<!-- Generated by graphviz version 2.38.0 (20140413.2041)
 -->
<!-- Title: Game/include/Enemy.h Pages: 1 -->
<svg width="1696pt" height="252pt"
 viewBox="0.00 0.00 1696.00 252.00" xmlns="http://www.w3.org/2000/svg" xmlns:xlink="http://www.w3.org/1999/xlink">
<g id="graph0" class="graph" transform="scale(1 1) rotate(0) translate(4 248)">
<title>Game/include/Enemy.h</title>
<polygon fill="white" stroke="none" points="-4,4 -4,-248 1692,-248 1692,4 -4,4"/>
<!-- Node1 -->
<g id="node1" class="node"><title>Node1</title>
<polygon fill="#bfbfbf" stroke="black" points="963,-224.5 963,-243.5 1082,-243.5 1082,-224.5 963,-224.5"/>
<text text-anchor="middle" x="1022.5" y="-231.5" font-family="Helvetica,sans-Serif" font-size="10.00">Game/include/Enemy.h</text>
</g>
<!-- Node2 -->
<g id="node2" class="node"><title>Node2</title>
<g id="a_node2"><a xlink:href="GameResources_8h.html" target="_top" xlink:title="Game/include/GameResources.h">
<polygon fill="white" stroke="black" points="790,-168.5 790,-187.5 951,-187.5 951,-168.5 790,-168.5"/>
<text text-anchor="middle" x="870.5" y="-175.5" font-family="Helvetica,sans-Serif" font-size="10.00">Game/include/GameResources.h</text>
</a>
</g>
</g>
<!-- Node1&#45;&gt;Node2 -->
<g id="edge1" class="edge"><title>Node1&#45;&gt;Node2</title>
<path fill="none" stroke="midnightblue" d="M988.832,-221.039C960.232,-210.879 919.888,-196.546 894.472,-187.516"/>
<polygon fill="midnightblue" stroke="midnightblue" points="987.82,-224.394 998.415,-224.444 990.164,-217.798 987.82,-224.394"/>
</g>
<!-- Node5 -->
<g id="node5" class="node"><title>Node5</title>
<g id="a_node5"><a xlink:href="Enemy_8cpp.html" target="_top" xlink:title="Game/src/Enemy.cpp">
<polygon fill="white" stroke="black" points="523.5,-56.5 523.5,-75.5 635.5,-75.5 635.5,-56.5 523.5,-56.5"/>
<text text-anchor="middle" x="579.5" y="-63.5" font-family="Helvetica,sans-Serif" font-size="10.00">Game/src/Enemy.cpp</text>
</a>
</g>
</g>
<!-- Node1&#45;&gt;Node5 -->
<g id="edge35" class="edge"><title>Node1&#45;&gt;Node5</title>
<path fill="none" stroke="midnightblue" d="M952.856,-233.647C795.144,-233.472 418.286,-223.294 339.5,-132 333.693,-125.271 333.823,-118.84 339.5,-112 345.422,-104.864 455.4,-86.4557 524.402,-75.5212"/>
<polygon fill="midnightblue" stroke="midnightblue" points="952.922,-237.147 962.921,-233.644 952.92,-230.147 952.922,-237.147"/>
</g>
<!-- Node6 -->
<g id="node6" class="node"><title>Node6</title>
<g id="a_node6"><a xlink:href="StageState_8cpp.html" target="_top" xlink:title="Game/src/StageState.cpp">
<polygon fill="white" stroke="black" points="732.5,-0.5 732.5,-19.5 862.5,-19.5 862.5,-0.5 732.5,-0.5"/>
<text text-anchor="middle" x="797.5" y="-7.5" font-family="Helvetica,sans-Serif" font-size="10.00">Game/src/StageState.cpp</text>
</a>
</g>
</g>
<!-- Node1&#45;&gt;Node6 -->
<g id="edge36" class="edge"><title>Node1&#45;&gt;Node6</title>
<path fill="none" stroke="midnightblue" d="M1092.11,-226.037C1224.43,-211.307 1495.38,-173.227 1451.5,-112 1428.95,-80.5264 1324.37,-64.0521 1286.5,-56 1137.02,-24.221 957.128,-14.8827 862.697,-12.1398"/>
<polygon fill="midnightblue" stroke="midnightblue" points="1091.61,-222.57 1082.05,-227.141 1092.38,-229.528 1091.61,-222.57"/>
</g>
<!-- Node24 -->
<g id="node24" class="node"><title>Node24</title>
<g id="a_node24"><a xlink:href="WaveManager_8cpp.html" target="_top" xlink:title="Game/src/WaveManager.cpp">
<polygon fill="white" stroke="black" points="1298.5,-112.5 1298.5,-131.5 1442.5,-131.5 1442.5,-112.5 1298.5,-112.5"/>
<text text-anchor="middle" x="1370.5" y="-119.5" font-family="Helvetica,sans-Serif" font-size="10.00">Game/src/WaveManager.cpp</text>
</a>
</g>
</g>
<!-- Node1&#45;&gt;Node24 -->
<g id="edge37" class="edge"><title>Node1&#45;&gt;Node24</title>
<path fill="none" stroke="midnightblue" d="M1059.27,-221.378C1129.5,-199.179 1281.25,-151.212 1343.26,-131.61"/>
<polygon fill="midnightblue" stroke="midnightblue" points="1058,-218.109 1049.52,-224.46 1060.11,-224.783 1058,-218.109"/>
</g>
<!-- Node3 -->
<g id="node3" class="node"><title>Node3</title>
<g id="a_node3"><a xlink:href="AIArt_8h.html" target="_top" xlink:title="Game/include/AIArt.h">
<polygon fill="white" stroke="black" points="182.5,-112.5 182.5,-131.5 292.5,-131.5 292.5,-112.5 182.5,-112.5"/>
<text text-anchor="middle" x="237.5" y="-119.5" font-family="Helvetica,sans-Serif" font-size="10.00">Game/include/AIArt.h</text>
</a>
</g>
</g>
<!-- Node2&#45;&gt;Node3 -->
<g id="edge2" class="edge"><title>Node2&#45;&gt;Node3</title>
<path fill="none" stroke="midnightblue" d="M779.986,-169.425C674.291,-160.558 494.201,-145.38 339.5,-132 324.269,-130.683 307.76,-129.235 292.55,-127.893"/>
<polygon fill="midnightblue" stroke="midnightblue" points="779.721,-172.915 789.979,-170.264 780.306,-165.94 779.721,-172.915"/>
</g>
<!-- Node2&#45;&gt;Node6 -->
<g id="edge33" class="edge"><title>Node2&#45;&gt;Node6</title>
<path fill="none" stroke="midnightblue" d="M961.308,-170.048C1015.78,-163.828 1077.83,-152.416 1095.5,-132 1117.62,-106.441 1120.57,-81.6093 1098.5,-56 1068.71,-21.4251 942.061,-13.0215 862.84,-11.2123"/>
<polygon fill="midnightblue" stroke="midnightblue" points="960.797,-166.583 951.237,-171.15 961.559,-173.541 960.797,-166.583"/>
</g>
<!-- Node7 -->
<g id="node7" class="node"><title>Node7</title>
<g id="a_node7"><a xlink:href="AIEngineer_8h.html" target="_top" xlink:title="Game/include/AIEngineer.h">
<polygon fill="white" stroke="black" points="28.5,-112.5 28.5,-131.5 164.5,-131.5 164.5,-112.5 28.5,-112.5"/>
<text text-anchor="middle" x="96.5" y="-119.5" font-family="Helvetica,sans-Serif" font-size="10.00">Game/include/AIEngineer.h</text>
</a>
</g>
</g>
<!-- Node2&#45;&gt;Node7 -->
<g id="edge6" class="edge"><title>Node2&#45;&gt;Node7</title>
<path fill="none" stroke="midnightblue" d="M779.749,-172.647C646.627,-165.919 390.652,-151.687 173.5,-132 170.551,-131.733 167.54,-131.445 164.5,-131.142"/>
<polygon fill="midnightblue" stroke="midnightblue" points="779.738,-176.15 789.901,-173.157 780.089,-169.159 779.738,-176.15"/>
</g>
<!-- Node9 -->
<g id="node9" class="node"><title>Node9</title>
<g id="a_node9"><a xlink:href="AIGoDown_8h.html" target="_top" xlink:title="Game/include/AIGoDown.h">
<polygon fill="white" stroke="black" points="950.5,-112.5 950.5,-131.5 1086.5,-131.5 1086.5,-112.5 950.5,-112.5"/>
<text text-anchor="middle" x="1018.5" y="-119.5" font-family="Helvetica,sans-Serif" font-size="10.00">Game/include/AIGoDown.h</text>
</a>
</g>
</g>
<!-- Node2&#45;&gt;Node9 -->
<g id="edge10" class="edge"><title>Node2&#45;&gt;Node9</title>
<path fill="none" stroke="midnightblue" d="M903.647,-164.906C931.472,-154.754 970.52,-140.506 995.159,-131.516"/>
<polygon fill="midnightblue" stroke="midnightblue" points="902.146,-161.728 893.951,-168.444 904.545,-168.304 902.146,-161.728"/>
</g>
<!-- Node15 -->
<g id="node15" class="node"><title>Node15</title>
<g id="a_node15"><a xlink:href="AIGoTo_8h.html" target="_top" xlink:title="Game/include/AIGoTo.h">
<polygon fill="white" stroke="black" points="668.5,-112.5 668.5,-131.5 790.5,-131.5 790.5,-112.5 668.5,-112.5"/>
<text text-anchor="middle" x="729.5" y="-119.5" font-family="Helvetica,sans-Serif" font-size="10.00">Game/include/AIGoTo.h</text>
</a>
</g>
</g>
<!-- Node2&#45;&gt;Node15 -->
<g id="edge18" class="edge"><title>Node2&#45;&gt;Node15</title>
<path fill="none" stroke="midnightblue" d="M838.571,-164.772C812.086,-154.629 775.108,-140.467 751.737,-131.516"/>
<polygon fill="midnightblue" stroke="midnightblue" points="837.568,-168.136 848.158,-168.444 840.071,-161.599 837.568,-168.136"/>
</g>
<!-- Node17 -->
<g id="node17" class="node"><title>Node17</title>
<g id="a_node17"><a xlink:href="AIMedic_8h.html" target="_top" xlink:title="Game/include/AIMedic.h">
<polygon fill="white" stroke="black" points="808.5,-112.5 808.5,-131.5 932.5,-131.5 932.5,-112.5 808.5,-112.5"/>
<text text-anchor="middle" x="870.5" y="-119.5" font-family="Helvetica,sans-Serif" font-size="10.00">Game/include/AIMedic.h</text>
</a>
</g>
</g>
<!-- Node2&#45;&gt;Node17 -->
<g id="edge21" class="edge"><title>Node2&#45;&gt;Node17</title>
<path fill="none" stroke="midnightblue" d="M870.5,-157.805C870.5,-148.91 870.5,-138.78 870.5,-131.751"/>
<polygon fill="midnightblue" stroke="midnightblue" points="867,-158.083 870.5,-168.083 874,-158.083 867,-158.083"/>
</g>
<!-- Node19 -->
<g id="node19" class="node"><title>Node19</title>
<g id="a_node19"><a xlink:href="AIPrintPath_8h.html" target="_top" xlink:title="Game/include/AIPrintPath.h">
<polygon fill="white" stroke="black" points="1142.5,-112.5 1142.5,-131.5 1280.5,-131.5 1280.5,-112.5 1142.5,-112.5"/>
<text text-anchor="middle" x="1211.5" y="-119.5" font-family="Helvetica,sans-Serif" font-size="10.00">Game/include/AIPrintPath.h</text>
</a>
</g>
</g>
<!-- Node2&#45;&gt;Node19 -->
<g id="edge25" class="edge"><title>Node2&#45;&gt;Node19</title>
<path fill="none" stroke="midnightblue" d="M934.572,-166.854C999.001,-156.651 1097.22,-141.098 1157.72,-131.516"/>
<polygon fill="midnightblue" stroke="midnightblue" points="933.862,-163.422 924.532,-168.444 934.957,-170.336 933.862,-163.422"/>
</g>
<!-- Node21 -->
<g id="node21" class="node"><title>Node21</title>
<g id="a_node21"><a xlink:href="AIQuimic_8h.html" target="_top" xlink:title="Game/include/AIQuimic.h">
<polygon fill="white" stroke="black" points="522.5,-112.5 522.5,-131.5 650.5,-131.5 650.5,-112.5 522.5,-112.5"/>
<text text-anchor="middle" x="586.5" y="-119.5" font-family="Helvetica,sans-Serif" font-size="10.00">Game/include/AIQuimic.h</text>
</a>
</g>
</g>
<!-- Node2&#45;&gt;Node21 -->
<g id="edge28" class="edge"><title>Node2&#45;&gt;Node21</title>
<path fill="none" stroke="midnightblue" d="M815.473,-166.537C761.799,-156.332 681.162,-140.999 631.29,-131.516"/>
<polygon fill="midnightblue" stroke="midnightblue" points="815.022,-170.014 825.499,-168.444 816.329,-163.137 815.022,-170.014"/>
</g>
<!-- Node23 -->
<g id="node23" class="node"><title>Node23</title>
<g id="a_node23"><a xlink:href="GameResources_8cpp.html" target="_top" xlink:title="Game/src/GameResources.cpp">
<polygon fill="white" stroke="black" points="349,-112.5 349,-131.5 504,-131.5 504,-112.5 349,-112.5"/>
<text text-anchor="middle" x="426.5" y="-119.5" font-family="Helvetica,sans-Serif" font-size="10.00">Game/src/GameResources.cpp</text>
</a>
</g>
</g>
<!-- Node2&#45;&gt;Node23 -->
<g id="edge32" class="edge"><title>Node2&#45;&gt;Node23</title>
<path fill="none" stroke="midnightblue" d="M790.162,-167.229C706.351,-157.036 576.276,-141.216 496.524,-131.516"/>
<polygon fill="midnightblue" stroke="midnightblue" points="789.797,-170.711 800.147,-168.444 790.643,-163.762 789.797,-170.711"/>
</g>
<!-- Node2&#45;&gt;Node24 -->
<g id="edge34" class="edge"><title>Node2&#45;&gt;Node24</title>
<path fill="none" stroke="midnightblue" d="M960.954,-167.382C1045.82,-158.335 1176.28,-144.37 1289.5,-132 1292.31,-131.693 1295.18,-131.378 1298.08,-131.06"/>
<polygon fill="midnightblue" stroke="midnightblue" points="960.407,-163.921 950.835,-168.461 961.149,-170.881 960.407,-163.921"/>
</g>
<!-- Node4 -->
<g id="node4" class="node"><title>Node4</title>
<g id="a_node4"><a xlink:href="AIArt_8cpp.html" target="_top" xlink:title="Game/src/AIArt.cpp">
<polygon fill="white" stroke="black" points="185.5,-56.5 185.5,-75.5 289.5,-75.5 289.5,-56.5 185.5,-56.5"/>
<text text-anchor="middle" x="237.5" y="-63.5" font-family="Helvetica,sans-Serif" font-size="10.00">Game/src/AIArt.cpp</text>
</a>
</g>
</g>
<!-- Node3&#45;&gt;Node4 -->
<g id="edge3" class="edge"><title>Node3&#45;&gt;Node4</title>
<path fill="none" stroke="midnightblue" d="M237.5,-101.805C237.5,-92.9102 237.5,-82.7798 237.5,-75.7511"/>
<polygon fill="midnightblue" stroke="midnightblue" points="234,-102.083 237.5,-112.083 241,-102.083 234,-102.083"/>
</g>
<!-- Node3&#45;&gt;Node5 -->
<g id="edge4" class="edge"><title>Node3&#45;&gt;Node5</title>
<path fill="none" stroke="midnightblue" d="M301.76,-110.854C366.377,-100.651 464.881,-85.0977 525.563,-75.5164"/>
<polygon fill="midnightblue" stroke="midnightblue" points="301.023,-107.427 291.691,-112.444 302.114,-114.341 301.023,-107.427"/>
</g>
<!-- Node3&#45;&gt;Node6 -->
<g id="edge5" class="edge"><title>Node3&#45;&gt;Node6</title>
<path fill="none" stroke="midnightblue" d="M258.995,-107.087C283.813,-91.7735 326.385,-67.7697 366.5,-56 492.291,-19.0933 646.523,-11.5801 732.199,-10.5451"/>
<polygon fill="midnightblue" stroke="midnightblue" points="257.002,-104.206 250.394,-112.487 260.724,-110.134 257.002,-104.206"/>
</g>
<!-- Node7&#45;&gt;Node5 -->
<g id="edge8" class="edge"><title>Node7&#45;&gt;Node5</title>
<path fill="none" stroke="midnightblue" d="M174.69,-111.881C326.66,-95.1153 366.474,-94.0569 514.5,-76 517.44,-75.6413 520.454,-75.2627 523.495,-74.8718"/>
<polygon fill="midnightblue" stroke="midnightblue" points="174.069,-108.428 164.515,-113.008 174.84,-115.386 174.069,-108.428"/>
</g>
<!-- Node7&#45;&gt;Node6 -->
<g id="edge9" class="edge"><title>Node7&#45;&gt;Node6</title>
<path fill="none" stroke="midnightblue" d="M110.557,-104.911C125.257,-89.3293 149.866,-66.5555 176.5,-56 276.175,-16.4973 594.267,-11.1948 732.421,-10.8091"/>
<polygon fill="midnightblue" stroke="midnightblue" points="107.969,-102.555 103.815,-112.302 113.14,-107.273 107.969,-102.555"/>
</g>
<!-- Node8 -->
<g id="node8" class="node"><title>Node8</title>
<g id="a_node8"><a xlink:href="AIEngineer_8cpp.html" target="_top" xlink:title="Game/src/AIEngineer.cpp">
<polygon fill="white" stroke="black" points="0,-56.5 0,-75.5 129,-75.5 129,-56.5 0,-56.5"/>
<text text-anchor="middle" x="64.5" y="-63.5" font-family="Helvetica,sans-Serif" font-size="10.00">Game/src/AIEngineer.cpp</text>
</a>
</g>
</g>
<!-- Node7&#45;&gt;Node8 -->
<g id="edge7" class="edge"><title>Node7&#45;&gt;Node8</title>
<path fill="none" stroke="midnightblue" d="M85.9961,-103.275C80.5269,-94.0454 74.0824,-83.1703 69.6858,-75.7511"/>
<polygon fill="midnightblue" stroke="midnightblue" points="83.1068,-105.264 91.2159,-112.083 89.1288,-101.696 83.1068,-105.264"/>
</g>
<!-- Node9&#45;&gt;Node5 -->
<g id="edge17" class="edge"><title>Node9&#45;&gt;Node5</title>
<path fill="none" stroke="midnightblue" d="M940.276,-111.755C847.929,-100.811 699.904,-83.1682 644.5,-76 641.562,-75.6199 638.551,-75.2242 635.511,-74.82"/>
<polygon fill="midnightblue" stroke="midnightblue" points="940.076,-115.255 950.419,-112.956 940.9,-108.304 940.076,-115.255"/>
</g>
<!-- Node10 -->
<g id="node10" class="node"><title>Node10</title>
<g id="a_node10"><a xlink:href="StageState_8h.html" target="_top" xlink:title="Game/include/StageState.h">
<polygon fill="white" stroke="black" points="1417,-56.5 1417,-75.5 1554,-75.5 1554,-56.5 1417,-56.5"/>
<text text-anchor="middle" x="1485.5" y="-63.5" font-family="Helvetica,sans-Serif" font-size="10.00">Game/include/StageState.h</text>
</a>
</g>
</g>
<!-- Node9&#45;&gt;Node10 -->
<g id="edge11" class="edge"><title>Node9&#45;&gt;Node10</title>
<path fill="none" stroke="midnightblue" d="M1096.75,-111.951C1186.29,-101.598 1331.52,-84.8054 1416.83,-74.9403"/>
<polygon fill="midnightblue" stroke="midnightblue" points="1096.19,-108.493 1086.66,-113.119 1096.99,-115.447 1096.19,-108.493"/>
</g>
<!-- Node14 -->
<g id="node14" class="node"><title>Node14</title>
<g id="a_node14"><a xlink:href="AIGoDown_8cpp.html" target="_top" xlink:title="Game/src/AIGoDown.cpp">
<polygon fill="white" stroke="black" points="961,-56.5 961,-75.5 1090,-75.5 1090,-56.5 961,-56.5"/>
<text text-anchor="middle" x="1025.5" y="-63.5" font-family="Helvetica,sans-Serif" font-size="10.00">Game/src/AIGoDown.cpp</text>
</a>
</g>
</g>
<!-- Node9&#45;&gt;Node14 -->
<g id="edge16" class="edge"><title>Node9&#45;&gt;Node14</title>
<path fill="none" stroke="midnightblue" d="M1020.95,-102.101C1022.11,-93.1357 1023.44,-82.8579 1024.37,-75.7511"/>
<polygon fill="midnightblue" stroke="midnightblue" points="1017.47,-101.716 1019.66,-112.083 1024.41,-102.616 1017.47,-101.716"/>
</g>
<!-- Node10&#45;&gt;Node6 -->
<g id="edge13" class="edge"><title>Node10&#45;&gt;Node6</title>
<path fill="none" stroke="midnightblue" d="M1406.43,-56.3641C1405.11,-56.2402 1403.8,-56.1187 1402.5,-56 1206.36,-38.0766 973.949,-22.3268 862.915,-15.1388"/>
<polygon fill="midnightblue" stroke="midnightblue" points="1406.38,-59.8762 1416.68,-57.3562 1407.06,-52.9087 1406.38,-59.8762"/>
</g>
<!-- Node11 -->
<g id="node11" class="node"><title>Node11</title>
<g id="a_node11"><a xlink:href="EndState_8cpp.html" target="_top" xlink:title="Game/src/EndState.cpp">
<polygon fill="white" stroke="black" points="1424.5,-0.5 1424.5,-19.5 1546.5,-19.5 1546.5,-0.5 1424.5,-0.5"/>
<text text-anchor="middle" x="1485.5" y="-7.5" font-family="Helvetica,sans-Serif" font-size="10.00">Game/src/EndState.cpp</text>
</a>
</g>
</g>
<!-- Node10&#45;&gt;Node11 -->
<g id="edge12" class="edge"><title>Node10&#45;&gt;Node11</title>
<path fill="none" stroke="midnightblue" d="M1485.5,-45.8045C1485.5,-36.9102 1485.5,-26.7798 1485.5,-19.7511"/>
<polygon fill="midnightblue" stroke="midnightblue" points="1482,-46.083 1485.5,-56.083 1489,-46.083 1482,-46.083"/>
</g>
<!-- Node12 -->
<g id="node12" class="node"><title>Node12</title>
<g id="a_node12"><a xlink:href="TitleState_8cpp.html" target="_top" xlink:title="Game/src/TitleState.cpp">
<polygon fill="white" stroke="black" points="1565,-0.5 1565,-19.5 1688,-19.5 1688,-0.5 1565,-0.5"/>
<text text-anchor="middle" x="1626.5" y="-7.5" font-family="Helvetica,sans-Serif" font-size="10.00">Game/src/TitleState.cpp</text>
</a>
</g>
</g>
<!-- Node10&#45;&gt;Node12 -->
<g id="edge14" class="edge"><title>Node10&#45;&gt;Node12</title>
<path fill="none" stroke="midnightblue" d="M1517.43,-52.772C1543.91,-42.6287 1580.89,-28.4669 1604.26,-19.5164"/>
<polygon fill="midnightblue" stroke="midnightblue" points="1515.93,-49.5985 1507.84,-56.4435 1518.43,-56.1355 1515.93,-49.5985"/>
</g>
<!-- Node13 -->
<g id="node13" class="node"><title>Node13</title>
<g id="a_node13"><a xlink:href="Tower_8cpp.html" target="_top" xlink:title="Game/src/Tower.cpp">
<polygon fill="white" stroke="black" points="1298.5,-0.5 1298.5,-19.5 1406.5,-19.5 1406.5,-0.5 1298.5,-0.5"/>
<text text-anchor="middle" x="1352.5" y="-7.5" font-family="Helvetica,sans-Serif" font-size="10.00">Game/src/Tower.cpp</text>
</a>
</g>
</g>
<!-- Node10&#45;&gt;Node13 -->
<g id="edge15" class="edge"><title>Node10&#45;&gt;Node13</title>
<path fill="none" stroke="midnightblue" d="M1455.05,-52.6377C1430.09,-42.504 1395.42,-28.4274 1373.48,-19.5164"/>
<polygon fill="midnightblue" stroke="midnightblue" points="1453.84,-55.9245 1464.43,-56.4435 1456.48,-49.4387 1453.84,-55.9245"/>
</g>
<!-- Node15&#45;&gt;Node5 -->
<g id="edge20" class="edge"><title>Node15&#45;&gt;Node5</title>
<path fill="none" stroke="midnightblue" d="M696.275,-109.039C668.052,-98.8786 628.238,-84.5457 603.157,-75.5164"/>
<polygon fill="midnightblue" stroke="midnightblue" points="695.138,-112.349 705.732,-112.444 697.509,-105.763 695.138,-112.349"/>
</g>
<!-- Node16 -->
<g id="node16" class="node"><title>Node16</title>
<g id="a_node16"><a xlink:href="AIGoTo_8cpp.html" target="_top" xlink:title="Game/src/AIGoTo.cpp">
<polygon fill="white" stroke="black" points="654,-56.5 654,-75.5 769,-75.5 769,-56.5 654,-56.5"/>
<text text-anchor="middle" x="711.5" y="-63.5" font-family="Helvetica,sans-Serif" font-size="10.00">Game/src/AIGoTo.cpp</text>
</a>
</g>
</g>
<!-- Node15&#45;&gt;Node16 -->
<g id="edge19" class="edge"><title>Node15&#45;&gt;Node16</title>
<path fill="none" stroke="midnightblue" d="M723.299,-102.396C720.287,-93.362 716.812,-82.936 714.417,-75.7511"/>
<polygon fill="midnightblue" stroke="midnightblue" points="720.045,-103.703 726.528,-112.083 726.686,-101.489 720.045,-103.703"/>
</g>
<!-- Node17&#45;&gt;Node5 -->
<g id="edge23" class="edge"><title>Node17&#45;&gt;Node5</title>
<path fill="none" stroke="midnightblue" d="M814.459,-110.601C759.464,-100.395 676.602,-85.0189 625.394,-75.5164"/>
<polygon fill="midnightblue" stroke="midnightblue" points="813.919,-114.06 824.39,-112.444 815.197,-107.178 813.919,-114.06"/>
</g>
<!-- Node17&#45;&gt;Node6 -->
<g id="edge24" class="edge"><title>Node17&#45;&gt;Node6</title>
<path fill="none" stroke="midnightblue" d="M847.752,-106.751C836.882,-98.8896 824.524,-88.2412 816.5,-76 804.77,-58.1043 800.115,-32.8009 798.404,-19.6678"/>
<polygon fill="midnightblue" stroke="midnightblue" points="845.813,-109.665 856.04,-112.435 849.773,-103.892 845.813,-109.665"/>
</g>
<!-- Node18 -->
<g id="node18" class="node"><title>Node18</title>
<g id="a_node18"><a xlink:href="AIMedic_8cpp.html" target="_top" xlink:title="Game/src/AIMedic.cpp">
<polygon fill="white" stroke="black" points="826,-56.5 826,-75.5 943,-75.5 943,-56.5 826,-56.5"/>
<text text-anchor="middle" x="884.5" y="-63.5" font-family="Helvetica,sans-Serif" font-size="10.00">Game/src/AIMedic.cpp</text>
</a>
</g>
</g>
<!-- Node17&#45;&gt;Node18 -->
<g id="edge22" class="edge"><title>Node17&#45;&gt;Node18</title>
<path fill="none" stroke="midnightblue" d="M875.323,-102.396C877.665,-93.362 880.368,-82.936 882.231,-75.7511"/>
<polygon fill="midnightblue" stroke="midnightblue" points="871.934,-101.525 872.812,-112.083 878.71,-103.281 871.934,-101.525"/>
</g>
<!-- Node19&#45;&gt;Node10 -->
<g id="edge26" class="edge"><title>Node19&#45;&gt;Node10</title>
<path fill="none" stroke="midnightblue" d="M1264.91,-110.473C1316.7,-100.268 1394.27,-84.9794 1442.29,-75.5164"/>
<polygon fill="midnightblue" stroke="midnightblue" points="1264.05,-107.076 1254.92,-112.444 1265.4,-113.944 1264.05,-107.076"/>
</g>
<!-- Node20 -->
<g id="node20" class="node"><title>Node20</title>
<g id="a_node20"><a xlink:href="AIPrintPath_8cpp.html" target="_top" xlink:title="Game/src/AIPrintPath.cpp">
<polygon fill="white" stroke="black" points="1147,-56.5 1147,-75.5 1278,-75.5 1278,-56.5 1147,-56.5"/>
<text text-anchor="middle" x="1212.5" y="-63.5" font-family="Helvetica,sans-Serif" font-size="10.00">Game/src/AIPrintPath.cpp</text>
</a>
</g>
</g>
<!-- Node19&#45;&gt;Node20 -->
<g id="edge27" class="edge"><title>Node19&#45;&gt;Node20</title>
<path fill="none" stroke="midnightblue" d="M1211.86,-101.805C1212.02,-92.9102 1212.21,-82.7798 1212.34,-75.7511"/>
<polygon fill="midnightblue" stroke="midnightblue" points="1208.35,-102.02 1211.67,-112.083 1215.35,-102.15 1208.35,-102.02"/>
</g>
<!-- Node21&#45;&gt;Node5 -->
<g id="edge30" class="edge"><title>Node21&#45;&gt;Node5</title>
<path fill="none" stroke="midnightblue" d="M584.05,-102.101C582.888,-93.1357 581.556,-82.8579 580.634,-75.7511"/>
<polygon fill="midnightblue" stroke="midnightblue" points="580.588,-102.616 585.344,-112.083 587.529,-101.716 580.588,-102.616"/>
</g>
<!-- Node21&#45;&gt;Node6 -->
<g id="edge31" class="edge"><title>Node21&#45;&gt;Node6</title>
<path fill="none" stroke="midnightblue" d="M518.396,-110.895C459.952,-101.528 383.707,-87.3663 374.5,-76 368.905,-69.0928 368.556,-62.6095 374.5,-56 397.956,-29.9159 619.601,-17.7625 732.327,-13.2296"/>
<polygon fill="midnightblue" stroke="midnightblue" points="517.919,-114.363 528.344,-112.471 519.015,-107.45 517.919,-114.363"/>
</g>
<!-- Node22 -->
<g id="node22" class="node"><title>Node22</title>
<g id="a_node22"><a xlink:href="AIQuimic_8cpp.html" target="_top" xlink:title="Game/src/AIQuimic.cpp">
<polygon fill="white" stroke="black" points="383.5,-56.5 383.5,-75.5 505.5,-75.5 505.5,-56.5 383.5,-56.5"/>
<text text-anchor="middle" x="444.5" y="-63.5" font-family="Helvetica,sans-Serif" font-size="10.00">Game/src/AIQuimic.cpp</text>
</a>
</g>
</g>
<!-- Node21&#45;&gt;Node22 -->
<g id="edge29" class="edge"><title>Node21&#45;&gt;Node22</title>
<path fill="none" stroke="midnightblue" d="M554.345,-108.772C527.672,-98.6287 490.431,-84.4669 466.895,-75.5164"/>
<polygon fill="midnightblue" stroke="midnightblue" points="553.409,-112.16 564,-112.444 555.897,-105.618 553.409,-112.16"/>
</g>
</g>
</svg>
