<?xml version="1.0" encoding="UTF-8" standalone="no"?>
<!DOCTYPE svg PUBLIC "-//W3C//DTD SVG 1.1//EN"
 "http://www.w3.org/Graphics/SVG/1.1/DTD/svg11.dtd">
<!-- Generated by graphviz version 2.36.0 (20140111.2315)
 -->
<!-- Title: Game/include/Enemy.h Pages: 1 -->
<svg width="767pt" height="364pt"
 viewBox="0.00 0.00 766.61 364.00" xmlns="http://www.w3.org/2000/svg" xmlns:xlink="http://www.w3.org/1999/xlink">
<g id="graph0" class="graph" transform="scale(1 1) rotate(0) translate(4 360)">
<title>Game/include/Enemy.h</title>
<polygon fill="white" stroke="none" points="-4,4 -4,-360 762.608,-360 762.608,4 -4,4"/>
<!-- Node1 -->
<g id="node1" class="node"><title>Node1</title>
<polygon fill="#bfbfbf" stroke="black" points="347.108,-336.5 347.108,-355.5 466.108,-355.5 466.108,-336.5 347.108,-336.5"/>
<text text-anchor="middle" x="406.608" y="-343.5" font-family="Helvetica,sans-Serif" font-size="10.00">Game/include/Enemy.h</text>
</g>
<!-- Node2 -->
<g id="node2" class="node"><title>Node2</title>
<g id="a_node2"><a xlink:href="GameObject_8h.html" target="_top" xlink:title="GameObject.h">
<polygon fill="white" stroke="black" points="143.608,-168.5 143.608,-187.5 223.608,-187.5 223.608,-168.5 143.608,-168.5"/>
<text text-anchor="middle" x="183.608" y="-175.5" font-family="Helvetica,sans-Serif" font-size="10.00">GameObject.h</text>
</a>
</g>
</g>
<!-- Node1&#45;&gt;Node2 -->
<g id="edge1" class="edge"><title>Node1&#45;&gt;Node2</title>
<path fill="none" stroke="midnightblue" d="M378.025,-336.407C337.616,-322.909 263.797,-293.088 219.608,-244 207.091,-230.095 197.202,-211.083 190.981,-197.214"/>
<polygon fill="midnightblue" stroke="midnightblue" points="194.099,-195.604 186.955,-187.78 187.661,-198.351 194.099,-195.604"/>
</g>
<!-- Node8 -->
<g id="node8" class="node"><title>Node8</title>
<g id="a_node8"><a xlink:href="Rect_8h.html" target="_top" xlink:title="Rect.h">
<polygon fill="white" stroke="black" points="21.6078,-112.5 21.6078,-131.5 67.6078,-131.5 67.6078,-112.5 21.6078,-112.5"/>
<text text-anchor="middle" x="44.6078" y="-119.5" font-family="Helvetica,sans-Serif" font-size="10.00">Rect.h</text>
</a>
</g>
</g>
<!-- Node1&#45;&gt;Node8 -->
<g id="edge24" class="edge"><title>Node1&#45;&gt;Node8</title>
<path fill="none" stroke="midnightblue" d="M363.365,-336.47C333.111,-329.398 292.408,-317.618 259.608,-300 175.224,-254.675 92.6823,-173.496 59.67,-139.103"/>
<polygon fill="midnightblue" stroke="midnightblue" points="62.1347,-136.616 52.7099,-131.776 57.0595,-141.437 62.1347,-136.616"/>
</g>
<!-- Node11 -->
<g id="node11" class="node"><title>Node11</title>
<g id="a_node11"><a xlink:href="Sprite_8h.html" target="_top" xlink:title="Sprite.h">
<polygon fill="white" stroke="black" points="345.608,-168.5 345.608,-187.5 395.608,-187.5 395.608,-168.5 345.608,-168.5"/>
<text text-anchor="middle" x="370.608" y="-175.5" font-family="Helvetica,sans-Serif" font-size="10.00">Sprite.h</text>
</a>
</g>
</g>
<!-- Node1&#45;&gt;Node11 -->
<g id="edge13" class="edge"><title>Node1&#45;&gt;Node11</title>
<path fill="none" stroke="midnightblue" d="M408.483,-336.465C412.533,-316.23 420.654,-264.042 406.608,-224 402.823,-213.209 395.241,-203.084 388.008,-195.181"/>
<polygon fill="midnightblue" stroke="midnightblue" points="390.275,-192.494 380.77,-187.815 385.282,-197.4 390.275,-192.494"/>
</g>
<!-- Node16 -->
<g id="node16" class="node"><title>Node16</title>
<g id="a_node16"><a xlink:href="TileMap_8h.html" target="_top" xlink:title="TileMap.h">
<polygon fill="white" stroke="black" points="309.108,-280.5 309.108,-299.5 368.108,-299.5 368.108,-280.5 309.108,-280.5"/>
<text text-anchor="middle" x="338.608" y="-287.5" font-family="Helvetica,sans-Serif" font-size="10.00">TileMap.h</text>
</a>
</g>
</g>
<!-- Node1&#45;&gt;Node16 -->
<g id="edge25" class="edge"><title>Node1&#45;&gt;Node16</title>
<path fill="none" stroke="midnightblue" d="M395.682,-336.324C385.433,-328.185 369.887,-315.839 357.607,-306.087"/>
<polygon fill="midnightblue" stroke="midnightblue" points="359.74,-303.312 349.732,-299.834 355.386,-308.794 359.74,-303.312"/>
</g>
<!-- Node18 -->
<g id="node18" class="node"><title>Node18</title>
<g id="a_node18"><a xlink:href="Timer_8h.html" target="_top" xlink:title="Timer.h">
<polygon fill="white" stroke="black" points="541.608,-280.5 541.608,-299.5 591.608,-299.5 591.608,-280.5 541.608,-280.5"/>
<text text-anchor="middle" x="566.608" y="-287.5" font-family="Helvetica,sans-Serif" font-size="10.00">Timer.h</text>
</a>
</g>
</g>
<!-- Node1&#45;&gt;Node18 -->
<g id="edge33" class="edge"><title>Node1&#45;&gt;Node18</title>
<path fill="none" stroke="midnightblue" d="M431.96,-336.444C458.877,-327.359 501.604,-312.939 531.695,-302.783"/>
<polygon fill="midnightblue" stroke="midnightblue" points="533.018,-306.031 541.374,-299.516 530.78,-299.398 533.018,-306.031"/>
</g>
<!-- Node19 -->
<g id="node19" class="node"><title>Node19</title>
<g id="a_node19"><a xlink:href="WaveData_8h.html" target="_top" xlink:title="WaveData.h">
<polygon fill="white" stroke="black" points="516.108,-168.5 516.108,-187.5 587.108,-187.5 587.108,-168.5 516.108,-168.5"/>
<text text-anchor="middle" x="551.608" y="-175.5" font-family="Helvetica,sans-Serif" font-size="10.00">WaveData.h</text>
</a>
</g>
</g>
<!-- Node1&#45;&gt;Node19 -->
<g id="edge34" class="edge"><title>Node1&#45;&gt;Node19</title>
<path fill="none" stroke="midnightblue" d="M414.404,-336.075C437.722,-309.38 507.177,-229.865 537.351,-195.322"/>
<polygon fill="midnightblue" stroke="midnightblue" points="540.181,-197.402 544.124,-187.568 534.909,-192.797 540.181,-197.402"/>
</g>
<!-- Node3 -->
<g id="node3" class="node"><title>Node3</title>
<g id="a_node3"><a xlink:href="SDL__include_8h.html" target="_top" xlink:title="SDL_include.h">
<polygon fill="white" stroke="black" points="219.608,-0.5 219.608,-19.5 299.608,-19.5 299.608,-0.5 219.608,-0.5"/>
<text text-anchor="middle" x="259.608" y="-7.5" font-family="Helvetica,sans-Serif" font-size="10.00">SDL_include.h</text>
</a>
</g>
</g>
<!-- Node2&#45;&gt;Node3 -->
<g id="edge2" class="edge"><title>Node2&#45;&gt;Node3</title>
<path fill="none" stroke="midnightblue" d="M143.27,-172.059C97.8951,-165.575 28.4451,-152.544 12.6078,-132 3.57767,-120.286 -10.1885,-84.0315 13.6078,-56 38.2611,-26.9589 144.705,-16.5873 209.225,-12.9359"/>
<polygon fill="midnightblue" stroke="midnightblue" points="209.788,-16.4111 219.589,-12.3865 209.418,-9.42087 209.788,-16.4111"/>
</g>
<!-- Node4 -->
<g id="node4" class="node"><title>Node4</title>
<polygon fill="white" stroke="#bfbfbf" points="287.608,-112.5 287.608,-131.5 331.608,-131.5 331.608,-112.5 287.608,-112.5"/>
<text text-anchor="middle" x="309.608" y="-119.5" font-family="Helvetica,sans-Serif" font-size="10.00">vector</text>
</g>
<!-- Node2&#45;&gt;Node4 -->
<g id="edge3" class="edge"><title>Node2&#45;&gt;Node4</title>
<path fill="none" stroke="midnightblue" d="M203.573,-168.444C224.217,-159.596 256.67,-145.687 280.239,-135.586"/>
<polygon fill="midnightblue" stroke="midnightblue" points="281.923,-138.673 289.736,-131.516 279.166,-132.239 281.923,-138.673"/>
</g>
<!-- Node5 -->
<g id="node5" class="node"><title>Node5</title>
<polygon fill="white" stroke="#bfbfbf" points="179.608,-112.5 179.608,-131.5 231.608,-131.5 231.608,-112.5 179.608,-112.5"/>
<text text-anchor="middle" x="205.608" y="-119.5" font-family="Helvetica,sans-Serif" font-size="10.00">memory</text>
</g>
<!-- Node2&#45;&gt;Node5 -->
<g id="edge4" class="edge"><title>Node2&#45;&gt;Node5</title>
<path fill="none" stroke="midnightblue" d="M187.241,-168.083C190.22,-160.77 194.534,-150.181 198.232,-141.103"/>
<polygon fill="midnightblue" stroke="midnightblue" points="201.511,-142.333 202.043,-131.751 195.028,-139.691 201.511,-142.333"/>
</g>
<!-- Node6 -->
<g id="node6" class="node"><title>Node6</title>
<polygon fill="white" stroke="#bfbfbf" points="556.108,-112.5 556.108,-131.5 597.108,-131.5 597.108,-112.5 556.108,-112.5"/>
<text text-anchor="middle" x="576.608" y="-119.5" font-family="Helvetica,sans-Serif" font-size="10.00">string</text>
</g>
<!-- Node2&#45;&gt;Node6 -->
<g id="edge5" class="edge"><title>Node2&#45;&gt;Node6</title>
<path fill="none" stroke="midnightblue" d="M223.854,-174.098C291.042,-168.785 430.079,-155.794 545.608,-132 545.82,-131.956 546.034,-131.912 546.248,-131.866"/>
<polygon fill="midnightblue" stroke="midnightblue" points="547.166,-135.245 556.045,-129.464 545.499,-128.446 547.166,-135.245"/>
</g>
<!-- Node7 -->
<g id="node7" class="node"><title>Node7</title>
<g id="a_node7"><a xlink:href="Component_8h.html" target="_top" xlink:title="Component.h">
<polygon fill="white" stroke="black" points="86.1078,-112.5 86.1078,-131.5 161.108,-131.5 161.108,-112.5 86.1078,-112.5"/>
<text text-anchor="middle" x="123.608" y="-119.5" font-family="Helvetica,sans-Serif" font-size="10.00">Component.h</text>
</a>
</g>
</g>
<!-- Node2&#45;&gt;Node7 -->
<g id="edge6" class="edge"><title>Node2&#45;&gt;Node7</title>
<path fill="none" stroke="midnightblue" d="M168.853,-168.324C158.463,-160.498 145.069,-148.783 135.387,-139.224"/>
<polygon fill="midnightblue" stroke="midnightblue" points="137.731,-136.612 128.274,-131.834 132.687,-141.466 137.731,-136.612"/>
</g>
<!-- Node2&#45;&gt;Node8 -->
<g id="edge8" class="edge"><title>Node2&#45;&gt;Node8</title>
<path fill="none" stroke="midnightblue" d="M161.583,-168.444C138.504,-159.478 102.046,-145.314 75.9669,-135.183"/>
<polygon fill="midnightblue" stroke="midnightblue" points="77.1184,-131.875 66.5297,-131.516 74.5835,-138.4 77.1184,-131.875"/>
</g>
<!-- Node7&#45;&gt;Node2 -->
<g id="edge7" class="edge"><title>Node7&#45;&gt;Node2</title>
<path fill="none" stroke="midnightblue" d="M138.462,-131.751C148.817,-139.561 162.123,-151.2 171.769,-160.718"/>
<polygon fill="midnightblue" stroke="midnightblue" points="169.407,-163.31 178.866,-168.083 174.448,-158.453 169.407,-163.31"/>
</g>
<!-- Node8&#45;&gt;Node3 -->
<g id="edge9" class="edge"><title>Node8&#45;&gt;Node3</title>
<path fill="none" stroke="midnightblue" d="M61.4785,-112.368C98.922,-93.2113 189.175,-47.0355 233.774,-24.2172"/>
<polygon fill="midnightblue" stroke="midnightblue" points="235.507,-27.2621 242.815,-19.5914 232.319,-21.0304 235.507,-27.2621"/>
</g>
<!-- Node9 -->
<g id="node9" class="node"><title>Node9</title>
<g id="a_node9"><a xlink:href="Vec2_8h.html" target="_top" xlink:title="Vec2.h">
<polygon fill="white" stroke="black" points="236.108,-56.5 236.108,-75.5 283.108,-75.5 283.108,-56.5 236.108,-56.5"/>
<text text-anchor="middle" x="259.608" y="-63.5" font-family="Helvetica,sans-Serif" font-size="10.00">Vec2.h</text>
</a>
</g>
</g>
<!-- Node8&#45;&gt;Node9 -->
<g id="edge10" class="edge"><title>Node8&#45;&gt;Node9</title>
<path fill="none" stroke="midnightblue" d="M67.655,-114.42C70.6625,-113.59 73.7058,-112.765 76.6078,-112 128.439,-98.3426 188.877,-83.7361 225.679,-74.9885"/>
<polygon fill="midnightblue" stroke="midnightblue" points="226.932,-78.2884 235.855,-72.5758 225.318,-71.4772 226.932,-78.2884"/>
</g>
<!-- Node10 -->
<g id="node10" class="node"><title>Node10</title>
<polygon fill="white" stroke="#bfbfbf" points="22.6078,-56.5 22.6078,-75.5 66.6078,-75.5 66.6078,-56.5 22.6078,-56.5"/>
<text text-anchor="middle" x="44.6078" y="-63.5" font-family="Helvetica,sans-Serif" font-size="10.00">cmath</text>
</g>
<!-- Node8&#45;&gt;Node10 -->
<g id="edge12" class="edge"><title>Node8&#45;&gt;Node10</title>
<path fill="none" stroke="midnightblue" d="M44.6078,-112.083C44.6078,-105.006 44.6078,-94.8611 44.6078,-85.9865"/>
<polygon fill="midnightblue" stroke="midnightblue" points="48.1079,-85.751 44.6078,-75.7511 41.1079,-85.7511 48.1079,-85.751"/>
</g>
<!-- Node9&#45;&gt;Node3 -->
<g id="edge11" class="edge"><title>Node9&#45;&gt;Node3</title>
<path fill="none" stroke="midnightblue" d="M259.608,-56.083C259.608,-49.0059 259.608,-38.8611 259.608,-29.9865"/>
<polygon fill="midnightblue" stroke="midnightblue" points="263.108,-29.751 259.608,-19.7511 256.108,-29.7511 263.108,-29.751"/>
</g>
<!-- Node11&#45;&gt;Node3 -->
<g id="edge14" class="edge"><title>Node11&#45;&gt;Node3</title>
<path fill="none" stroke="midnightblue" d="M381.575,-168.234C395.719,-155.807 417.301,-132.32 406.608,-112 383.015,-67.1658 329.533,-38.3842 294.004,-23.4499"/>
<polygon fill="midnightblue" stroke="midnightblue" points="295.082,-20.1104 284.499,-19.6031 292.456,-26.5991 295.082,-20.1104"/>
</g>
<!-- Node11&#45;&gt;Node5 -->
<g id="edge16" class="edge"><title>Node11&#45;&gt;Node5</title>
<path fill="none" stroke="midnightblue" d="M345.548,-168.799C317.808,-159.72 272.868,-145.012 241.42,-134.72"/>
<polygon fill="midnightblue" stroke="midnightblue" points="242.315,-131.331 231.723,-131.547 240.138,-137.984 242.315,-131.331"/>
</g>
<!-- Node11&#45;&gt;Node6 -->
<g id="edge15" class="edge"><title>Node11&#45;&gt;Node6</title>
<path fill="none" stroke="midnightblue" d="M395.885,-170.76C429.966,-162.288 492.505,-146.532 545.608,-132 545.817,-131.943 546.027,-131.885 546.238,-131.827"/>
<polygon fill="midnightblue" stroke="midnightblue" points="547.278,-135.17 555.956,-129.092 545.381,-128.432 547.278,-135.17"/>
</g>
<!-- Node11&#45;&gt;Node8 -->
<g id="edge18" class="edge"><title>Node11&#45;&gt;Node8</title>
<path fill="none" stroke="midnightblue" d="M345.248,-174.179C295.69,-168.44 182.398,-154.214 78.0151,-132.085"/>
<polygon fill="midnightblue" stroke="midnightblue" points="78.4562,-128.6 67.9438,-129.919 76.9843,-135.444 78.4562,-128.6"/>
</g>
<!-- Node12 -->
<g id="node12" class="node"><title>Node12</title>
<g id="a_node12"><a xlink:href="Color_8h.html" target="_top" xlink:title="Color.h">
<polygon fill="white" stroke="black" points="349.608,-112.5 349.608,-131.5 397.608,-131.5 397.608,-112.5 349.608,-112.5"/>
<text text-anchor="middle" x="373.608" y="-119.5" font-family="Helvetica,sans-Serif" font-size="10.00">Color.h</text>
</a>
</g>
</g>
<!-- Node11&#45;&gt;Node12 -->
<g id="edge17" class="edge"><title>Node11&#45;&gt;Node12</title>
<path fill="none" stroke="midnightblue" d="M371.103,-168.083C371.496,-161.006 372.06,-150.861 372.553,-141.986"/>
<polygon fill="midnightblue" stroke="midnightblue" points="376.061,-141.93 373.122,-131.751 369.072,-141.542 376.061,-141.93"/>
</g>
<!-- Node13 -->
<g id="node13" class="node"><title>Node13</title>
<g id="a_node13"><a xlink:href="InputManager_8h.html" target="_top" xlink:title="InputManager.h">
<polygon fill="white" stroke="black" points="453.608,-112.5 453.608,-131.5 537.608,-131.5 537.608,-112.5 453.608,-112.5"/>
<text text-anchor="middle" x="495.608" y="-119.5" font-family="Helvetica,sans-Serif" font-size="10.00">InputManager.h</text>
</a>
</g>
</g>
<!-- Node11&#45;&gt;Node13 -->
<g id="edge19" class="edge"><title>Node11&#45;&gt;Node13</title>
<path fill="none" stroke="midnightblue" d="M390.414,-168.444C410.895,-159.596 443.09,-145.687 466.472,-135.586"/>
<polygon fill="midnightblue" stroke="midnightblue" points="468.102,-138.695 475.894,-131.516 465.326,-132.269 468.102,-138.695"/>
</g>
<!-- Node13&#45;&gt;Node3 -->
<g id="edge20" class="edge"><title>Node13&#45;&gt;Node3</title>
<path fill="none" stroke="midnightblue" d="M488.183,-112.482C475.637,-98.6128 448.835,-71.1767 420.608,-56 385.859,-37.3171 342.617,-25.7871 309.7,-19.0816"/>
<polygon fill="midnightblue" stroke="midnightblue" points="310.322,-15.6371 299.837,-17.1528 308.979,-22.507 310.322,-15.6371"/>
</g>
<!-- Node13&#45;&gt;Node9 -->
<g id="edge21" class="edge"><title>Node13&#45;&gt;Node9</title>
<path fill="none" stroke="midnightblue" d="M458.213,-112.444C412.73,-102.036 336.642,-84.6264 293.032,-74.648"/>
<polygon fill="midnightblue" stroke="midnightblue" points="293.732,-71.2176 283.203,-72.3989 292.17,-78.0413 293.732,-71.2176"/>
</g>
<!-- Node14 -->
<g id="node14" class="node"><title>Node14</title>
<polygon fill="white" stroke="#bfbfbf" points="473.108,-56.5 473.108,-75.5 556.108,-75.5 556.108,-56.5 473.108,-56.5"/>
<text text-anchor="middle" x="514.608" y="-63.5" font-family="Helvetica,sans-Serif" font-size="10.00">unordered_map</text>
</g>
<!-- Node13&#45;&gt;Node14 -->
<g id="edge22" class="edge"><title>Node13&#45;&gt;Node14</title>
<path fill="none" stroke="midnightblue" d="M498.745,-112.083C501.291,-104.849 504.964,-94.4087 508.135,-85.3968"/>
<polygon fill="midnightblue" stroke="midnightblue" points="511.511,-86.3459 511.529,-75.7511 504.908,-84.0225 511.511,-86.3459"/>
</g>
<!-- Node15 -->
<g id="node15" class="node"><title>Node15</title>
<polygon fill="white" stroke="#bfbfbf" points="574.608,-56.5 574.608,-75.5 620.608,-75.5 620.608,-56.5 574.608,-56.5"/>
<text text-anchor="middle" x="597.608" y="-63.5" font-family="Helvetica,sans-Serif" font-size="10.00">cstdint</text>
</g>
<!-- Node13&#45;&gt;Node15 -->
<g id="edge23" class="edge"><title>Node13&#45;&gt;Node15</title>
<path fill="none" stroke="midnightblue" d="M511.996,-112.324C528.279,-103.703 553.475,-90.3643 572.324,-80.3855"/>
<polygon fill="midnightblue" stroke="midnightblue" points="574.06,-83.4267 581.26,-75.6545 570.785,-77.2402 574.06,-83.4267"/>
</g>
<!-- Node16&#45;&gt;Node2 -->
<g id="edge28" class="edge"><title>Node16&#45;&gt;Node2</title>
<path fill="none" stroke="midnightblue" d="M315.161,-280.395C295.542,-272.573 267.35,-259.847 245.608,-244 226.404,-230.003 208.096,-209.64 196.42,-195.449"/>
<polygon fill="midnightblue" stroke="midnightblue" points="199.048,-193.13 190.059,-187.522 193.588,-197.512 199.048,-193.13"/>
</g>
<!-- Node16&#45;&gt;Node4 -->
<g id="edge27" class="edge"><title>Node16&#45;&gt;Node4</title>
<path fill="none" stroke="midnightblue" d="M337.049,-280.075C332.484,-253.945 319.078,-177.211 312.853,-141.577"/>
<polygon fill="midnightblue" stroke="midnightblue" points="316.273,-140.817 311.105,-131.568 309.378,-142.021 316.273,-140.817"/>
</g>
<!-- Node16&#45;&gt;Node6 -->
<g id="edge26" class="edge"><title>Node16&#45;&gt;Node6</title>
<path fill="none" stroke="midnightblue" d="M352.072,-280.458C365.918,-271.589 388.021,-257.192 406.608,-244 452.131,-211.69 460.872,-200.007 506.608,-168 521.996,-157.231 539.806,-145.795 553.611,-137.147"/>
<polygon fill="midnightblue" stroke="midnightblue" points="555.808,-139.902 562.449,-131.647 552.11,-133.959 555.808,-139.902"/>
</g>
<!-- Node16&#45;&gt;Node9 -->
<g id="edge32" class="edge"><title>Node16&#45;&gt;Node9</title>
<path fill="none" stroke="midnightblue" d="M334.973,-280.238C325.214,-256.565 297.878,-189.245 278.608,-132 273.392,-116.505 268.236,-98.6638 264.614,-85.5979"/>
<polygon fill="midnightblue" stroke="midnightblue" points="267.977,-84.6258 261.965,-75.9018 261.224,-86.4708 267.977,-84.6258"/>
</g>
<!-- Node17 -->
<g id="node17" class="node"><title>Node17</title>
<g id="a_node17"><a xlink:href="Tileset_8h.html" target="_top" xlink:title="Tileset.h">
<polygon fill="white" stroke="black" points="343.608,-224.5 343.608,-243.5 397.608,-243.5 397.608,-224.5 343.608,-224.5"/>
<text text-anchor="middle" x="370.608" y="-231.5" font-family="Helvetica,sans-Serif" font-size="10.00">Tileset.h</text>
</a>
</g>
</g>
<!-- Node16&#45;&gt;Node17 -->
<g id="edge29" class="edge"><title>Node16&#45;&gt;Node17</title>
<path fill="none" stroke="midnightblue" d="M343.892,-280.083C348.319,-272.613 354.771,-261.724 360.226,-252.52"/>
<polygon fill="midnightblue" stroke="midnightblue" points="363.335,-254.138 365.422,-243.751 357.313,-250.57 363.335,-254.138"/>
</g>
<!-- Node17&#45;&gt;Node6 -->
<g id="edge30" class="edge"><title>Node17&#45;&gt;Node6</title>
<path fill="none" stroke="midnightblue" d="M378.819,-224.252C392.102,-210.55 419.647,-183.949 447.608,-168 464.665,-158.271 513.624,-142.301 546.081,-132.235"/>
<polygon fill="midnightblue" stroke="midnightblue" points="547.449,-135.475 555.977,-129.189 545.39,-128.785 547.449,-135.475"/>
</g>
<!-- Node17&#45;&gt;Node11 -->
<g id="edge31" class="edge"><title>Node17&#45;&gt;Node11</title>
<path fill="none" stroke="midnightblue" d="M370.608,-224.083C370.608,-217.006 370.608,-206.861 370.608,-197.986"/>
<polygon fill="midnightblue" stroke="midnightblue" points="374.108,-197.751 370.608,-187.751 367.108,-197.751 374.108,-197.751"/>
</g>
<!-- Node19&#45;&gt;Node4 -->
<g id="edge36" class="edge"><title>Node19&#45;&gt;Node4</title>
<path fill="none" stroke="midnightblue" d="M515.96,-170.216C475.834,-162.401 408.504,-148.747 341.748,-132.153"/>
<polygon fill="midnightblue" stroke="midnightblue" points="342.457,-128.722 331.906,-129.683 340.754,-135.512 342.457,-128.722"/>
</g>
<!-- Node19&#45;&gt;Node6 -->
<g id="edge35" class="edge"><title>Node19&#45;&gt;Node6</title>
<path fill="none" stroke="midnightblue" d="M555.736,-168.083C559.122,-160.77 564.024,-150.181 568.227,-141.103"/>
<polygon fill="midnightblue" stroke="midnightblue" points="571.531,-142.296 572.556,-131.751 565.179,-139.355 571.531,-142.296"/>
</g>
<!-- Node20 -->
<g id="node20" class="node"><title>Node20</title>
<g id="a_node20"><a xlink:href="Error_8h.html" target="_top" xlink:title="Error.h">
<polygon fill="white" stroke="black" points="642.608,-112.5 642.608,-131.5 688.608,-131.5 688.608,-112.5 642.608,-112.5"/>
<text text-anchor="middle" x="665.608" y="-119.5" font-family="Helvetica,sans-Serif" font-size="10.00">Error.h</text>
</a>
</g>
</g>
<!-- Node19&#45;&gt;Node20 -->
<g id="edge37" class="edge"><title>Node19&#45;&gt;Node20</title>
<path fill="none" stroke="midnightblue" d="M569.671,-168.444C588.183,-159.675 617.188,-145.935 638.463,-135.858"/>
<polygon fill="midnightblue" stroke="midnightblue" points="640.09,-138.96 647.629,-131.516 637.093,-132.634 640.09,-138.96"/>
</g>
<!-- Node21 -->
<g id="node21" class="node"><title>Node21</title>
<polygon fill="white" stroke="#bfbfbf" points="638.608,-56.5 638.608,-75.5 692.608,-75.5 692.608,-56.5 638.608,-56.5"/>
<text text-anchor="middle" x="665.608" y="-63.5" font-family="Helvetica,sans-Serif" font-size="10.00">iostream</text>
</g>
<!-- Node20&#45;&gt;Node21 -->
<g id="edge38" class="edge"><title>Node20&#45;&gt;Node21</title>
<path fill="none" stroke="midnightblue" d="M665.608,-112.083C665.608,-105.006 665.608,-94.8611 665.608,-85.9865"/>
<polygon fill="midnightblue" stroke="midnightblue" points="669.108,-85.751 665.608,-75.7511 662.108,-85.7511 669.108,-85.751"/>
</g>
<!-- Node22 -->
<g id="node22" class="node"><title>Node22</title>
<polygon fill="white" stroke="#bfbfbf" points="710.608,-56.5 710.608,-75.5 758.608,-75.5 758.608,-56.5 710.608,-56.5"/>
<text text-anchor="middle" x="734.608" y="-63.5" font-family="Helvetica,sans-Serif" font-size="10.00">stdlib.h</text>
</g>
<!-- Node20&#45;&gt;Node22 -->
<g id="edge39" class="edge"><title>Node20&#45;&gt;Node22</title>
<path fill="none" stroke="midnightblue" d="M676.694,-112.324C687.094,-104.185 702.868,-91.8395 715.329,-82.0874"/>
<polygon fill="midnightblue" stroke="midnightblue" points="717.602,-84.7533 723.32,-75.8339 713.288,-79.2407 717.602,-84.7533"/>
</g>
</g>
</svg>
