<?xml version="1.0" encoding="UTF-8" standalone="no"?>
<!DOCTYPE svg PUBLIC "-//W3C//DTD SVG 1.1//EN"
 "http://www.w3.org/Graphics/SVG/1.1/DTD/svg11.dtd">
<!-- Generated by graphviz version 2.38.0 (20140413.2041)
 -->
<!-- Title: Game/src/Enemy.cpp Pages: 1 -->
<svg width="778pt" height="420pt"
 viewBox="0.00 0.00 778.29 420.00" xmlns="http://www.w3.org/2000/svg" xmlns:xlink="http://www.w3.org/1999/xlink">
<g id="graph0" class="graph" transform="scale(1 1) rotate(0) translate(4 416)">
<title>Game/src/Enemy.cpp</title>
<polygon fill="white" stroke="none" points="-4,4 -4,-416 774.286,-416 774.286,4 -4,4"/>
<!-- Node1 -->
<g id="node1" class="node"><title>Node1</title>
<polygon fill="#bfbfbf" stroke="black" points="312.786,-392.5 312.786,-411.5 424.786,-411.5 424.786,-392.5 312.786,-392.5"/>
<text text-anchor="middle" x="368.786" y="-399.5" font-family="Helvetica,sans-Serif" font-size="10.00">Game/src/Enemy.cpp</text>
</g>
<!-- Node2 -->
<g id="node2" class="node"><title>Node2</title>
<g id="a_node2"><a xlink:href="Enemy_8h.html" target="_top" xlink:title="Enemy.h">
<polygon fill="white" stroke="black" points="289.786,-336.5 289.786,-355.5 345.786,-355.5 345.786,-336.5 289.786,-336.5"/>
<text text-anchor="middle" x="317.786" y="-343.5" font-family="Helvetica,sans-Serif" font-size="10.00">Enemy.h</text>
</a>
</g>
</g>
<!-- Node1&#45;&gt;Node2 -->
<g id="edge1" class="edge"><title>Node1&#45;&gt;Node2</title>
<path fill="none" stroke="midnightblue" d="M360.365,-392.083C352.938,-384.22 341.935,-372.569 332.974,-363.081"/>
<polygon fill="midnightblue" stroke="midnightblue" points="335.462,-360.618 326.051,-355.751 330.373,-365.424 335.462,-360.618"/>
</g>
<!-- Node21 -->
<g id="node21" class="node"><title>Node21</title>
<g id="a_node21"><a xlink:href="AIGoDown_8h.html" target="_top" xlink:title="AIGoDown.h">
<polygon fill="white" stroke="black" points="119.286,-336.5 119.286,-355.5 192.286,-355.5 192.286,-336.5 119.286,-336.5"/>
<text text-anchor="middle" x="155.786" y="-343.5" font-family="Helvetica,sans-Serif" font-size="10.00">AIGoDown.h</text>
</a>
</g>
</g>
<!-- Node1&#45;&gt;Node21 -->
<g id="edge37" class="edge"><title>Node1&#45;&gt;Node21</title>
<path fill="none" stroke="midnightblue" d="M335.036,-392.444C298.268,-383.122 239.341,-368.183 199.164,-357.997"/>
<polygon fill="midnightblue" stroke="midnightblue" points="199.932,-354.581 189.379,-355.516 198.212,-361.367 199.932,-354.581"/>
</g>
<!-- Node22 -->
<g id="node22" class="node"><title>Node22</title>
<g id="a_node22"><a xlink:href="Camera_8h.html" target="_top" xlink:title="Camera.h">
<polygon fill="white" stroke="black" points="438.286,-280.5 438.286,-299.5 497.286,-299.5 497.286,-280.5 438.286,-280.5"/>
<text text-anchor="middle" x="467.786" y="-287.5" font-family="Helvetica,sans-Serif" font-size="10.00">Camera.h</text>
</a>
</g>
</g>
<!-- Node1&#45;&gt;Node22 -->
<g id="edge39" class="edge"><title>Node1&#45;&gt;Node22</title>
<path fill="none" stroke="midnightblue" d="M376.555,-392.368C393.109,-373.974 432.082,-330.671 453.34,-307.052"/>
<polygon fill="midnightblue" stroke="midnightblue" points="455.966,-309.366 460.054,-299.591 450.763,-304.683 455.966,-309.366"/>
</g>
<!-- Node24 -->
<g id="node24" class="node"><title>Node24</title>
<g id="a_node24"><a xlink:href="Error_8h.html" target="_top" xlink:title="Error.h">
<polygon fill="white" stroke="black" points="519.786,-336.5 519.786,-355.5 565.786,-355.5 565.786,-336.5 519.786,-336.5"/>
<text text-anchor="middle" x="542.786" y="-343.5" font-family="Helvetica,sans-Serif" font-size="10.00">Error.h</text>
</a>
</g>
</g>
<!-- Node1&#45;&gt;Node24 -->
<g id="edge44" class="edge"><title>Node1&#45;&gt;Node24</title>
<path fill="none" stroke="midnightblue" d="M396.357,-392.444C427.186,-382.876 477.087,-367.389 509.919,-357.2"/>
<polygon fill="midnightblue" stroke="midnightblue" points="511.008,-360.527 519.521,-354.22 508.933,-353.842 511.008,-360.527"/>
</g>
<!-- Node3 -->
<g id="node3" class="node"><title>Node3</title>
<g id="a_node3"><a xlink:href="GameObject_8h.html" target="_top" xlink:title="GameObject.h">
<polygon fill="white" stroke="black" points="219.786,-224.5 219.786,-243.5 299.786,-243.5 299.786,-224.5 219.786,-224.5"/>
<text text-anchor="middle" x="259.786" y="-231.5" font-family="Helvetica,sans-Serif" font-size="10.00">GameObject.h</text>
</a>
</g>
</g>
<!-- Node2&#45;&gt;Node3 -->
<g id="edge2" class="edge"><title>Node2&#45;&gt;Node3</title>
<path fill="none" stroke="midnightblue" d="M328.206,-336.357C342.183,-323.682 363.923,-299.447 351.786,-280 342.028,-264.364 325.089,-254.013 308.384,-247.23"/>
<polygon fill="midnightblue" stroke="midnightblue" points="309.225,-243.81 298.631,-243.636 306.804,-250.378 309.225,-243.81"/>
</g>
<!-- Node9 -->
<g id="node9" class="node"><title>Node9</title>
<g id="a_node9"><a xlink:href="Rect_8h.html" target="_top" xlink:title="Rect.h">
<polygon fill="white" stroke="black" points="172.786,-112.5 172.786,-131.5 218.786,-131.5 218.786,-112.5 172.786,-112.5"/>
<text text-anchor="middle" x="195.786" y="-119.5" font-family="Helvetica,sans-Serif" font-size="10.00">Rect.h</text>
</a>
</g>
</g>
<!-- Node2&#45;&gt;Node9 -->
<g id="edge14" class="edge"><title>Node2&#45;&gt;Node9</title>
<path fill="none" stroke="midnightblue" d="M289.64,-340.182C220.423,-327.672 45.3185,-291.774 14.7863,-244 -3.40345,-215.538 -6.01827,-194.61 14.7863,-168 32.7715,-144.996 115.256,-132.07 162.429,-126.439"/>
<polygon fill="midnightblue" stroke="midnightblue" points="162.947,-129.903 172.483,-125.286 162.149,-122.949 162.947,-129.903"/>
</g>
<!-- Node12 -->
<g id="node12" class="node"><title>Node12</title>
<g id="a_node12"><a xlink:href="Sprite_8h.html" target="_top" xlink:title="Sprite.h">
<polygon fill="white" stroke="black" points="439.786,-168.5 439.786,-187.5 489.786,-187.5 489.786,-168.5 439.786,-168.5"/>
<text text-anchor="middle" x="464.786" y="-175.5" font-family="Helvetica,sans-Serif" font-size="10.00">Sprite.h</text>
</a>
</g>
</g>
<!-- Node2&#45;&gt;Node12 -->
<g id="edge15" class="edge"><title>Node2&#45;&gt;Node12</title>
<path fill="none" stroke="midnightblue" d="M328.194,-336.493C338.632,-327.766 354.956,-313.584 367.786,-300 400.9,-264.941 435.162,-219.707 452.755,-195.699"/>
<polygon fill="midnightblue" stroke="midnightblue" points="455.592,-197.748 458.644,-187.603 449.931,-193.631 455.592,-197.748"/>
</g>
<!-- Node17 -->
<g id="node17" class="node"><title>Node17</title>
<g id="a_node17"><a xlink:href="TileMap_8h.html" target="_top" xlink:title="TileMap.h">
<polygon fill="white" stroke="black" points="145.286,-280.5 145.286,-299.5 204.286,-299.5 204.286,-280.5 145.286,-280.5"/>
<text text-anchor="middle" x="174.786" y="-287.5" font-family="Helvetica,sans-Serif" font-size="10.00">TileMap.h</text>
</a>
</g>
</g>
<!-- Node2&#45;&gt;Node17 -->
<g id="edge26" class="edge"><title>Node2&#45;&gt;Node17</title>
<path fill="none" stroke="midnightblue" d="M295.128,-336.444C271.384,-327.478 233.877,-313.314 207.048,-303.183"/>
<polygon fill="midnightblue" stroke="midnightblue" points="207.931,-299.775 197.339,-299.516 205.458,-306.324 207.931,-299.775"/>
</g>
<!-- Node19 -->
<g id="node19" class="node"><title>Node19</title>
<g id="a_node19"><a xlink:href="Timer_8h.html" target="_top" xlink:title="Timer.h">
<polygon fill="white" stroke="black" points="292.786,-280.5 292.786,-299.5 342.786,-299.5 342.786,-280.5 292.786,-280.5"/>
<text text-anchor="middle" x="317.786" y="-287.5" font-family="Helvetica,sans-Serif" font-size="10.00">Timer.h</text>
</a>
</g>
</g>
<!-- Node2&#45;&gt;Node19 -->
<g id="edge34" class="edge"><title>Node2&#45;&gt;Node19</title>
<path fill="none" stroke="midnightblue" d="M317.786,-336.083C317.786,-329.006 317.786,-318.861 317.786,-309.986"/>
<polygon fill="midnightblue" stroke="midnightblue" points="321.286,-309.751 317.786,-299.751 314.286,-309.751 321.286,-309.751"/>
</g>
<!-- Node20 -->
<g id="node20" class="node"><title>Node20</title>
<g id="a_node20"><a xlink:href="Wave_8h.html" target="_top" xlink:title="Wave.h">
<polygon fill="white" stroke="black" points="224.786,-280.5 224.786,-299.5 274.786,-299.5 274.786,-280.5 224.786,-280.5"/>
<text text-anchor="middle" x="249.786" y="-287.5" font-family="Helvetica,sans-Serif" font-size="10.00">Wave.h</text>
</a>
</g>
</g>
<!-- Node2&#45;&gt;Node20 -->
<g id="edge35" class="edge"><title>Node2&#45;&gt;Node20</title>
<path fill="none" stroke="midnightblue" d="M306.861,-336.324C296.612,-328.185 281.066,-315.839 268.785,-306.087"/>
<polygon fill="midnightblue" stroke="midnightblue" points="270.918,-303.312 260.91,-299.834 266.565,-308.794 270.918,-303.312"/>
</g>
<!-- Node4 -->
<g id="node4" class="node"><title>Node4</title>
<g id="a_node4"><a xlink:href="SDL__include_8h.html" target="_top" xlink:title="SDL_include.h">
<polygon fill="white" stroke="black" points="361.786,-0.5 361.786,-19.5 441.786,-19.5 441.786,-0.5 361.786,-0.5"/>
<text text-anchor="middle" x="401.786" y="-7.5" font-family="Helvetica,sans-Serif" font-size="10.00">SDL_include.h</text>
</a>
</g>
</g>
<!-- Node3&#45;&gt;Node4 -->
<g id="edge3" class="edge"><title>Node3&#45;&gt;Node4</title>
<path fill="none" stroke="midnightblue" d="M261.634,-224.228C266.28,-203.481 279.819,-150.267 303.786,-112 325.654,-77.0856 361.231,-44.3475 382.97,-26.0658"/>
<polygon fill="midnightblue" stroke="midnightblue" points="385.346,-28.6428 390.832,-19.5784 380.891,-23.2437 385.346,-28.6428"/>
</g>
<!-- Node5 -->
<g id="node5" class="node"><title>Node5</title>
<polygon fill="white" stroke="#bfbfbf" points="94.7863,-168.5 94.7863,-187.5 138.786,-187.5 138.786,-168.5 94.7863,-168.5"/>
<text text-anchor="middle" x="116.786" y="-175.5" font-family="Helvetica,sans-Serif" font-size="10.00">vector</text>
</g>
<!-- Node3&#45;&gt;Node5 -->
<g id="edge4" class="edge"><title>Node3&#45;&gt;Node5</title>
<path fill="none" stroke="midnightblue" d="M237.128,-224.444C213.245,-215.425 175.435,-201.147 148.576,-191.004"/>
<polygon fill="midnightblue" stroke="midnightblue" points="149.461,-187.597 138.869,-187.339 146.988,-194.146 149.461,-187.597"/>
</g>
<!-- Node6 -->
<g id="node6" class="node"><title>Node6</title>
<polygon fill="white" stroke="#bfbfbf" points="372.786,-112.5 372.786,-131.5 424.786,-131.5 424.786,-112.5 372.786,-112.5"/>
<text text-anchor="middle" x="398.786" y="-119.5" font-family="Helvetica,sans-Serif" font-size="10.00">memory</text>
</g>
<!-- Node3&#45;&gt;Node6 -->
<g id="edge5" class="edge"><title>Node3&#45;&gt;Node6</title>
<path fill="none" stroke="midnightblue" d="M275.587,-224.418C290.614,-215.962 313.567,-202.27 331.786,-188 351.016,-172.939 370.827,-153.082 383.869,-139.296"/>
<polygon fill="midnightblue" stroke="midnightblue" points="386.79,-141.296 391.049,-131.595 381.67,-136.522 386.79,-141.296"/>
</g>
<!-- Node7 -->
<g id="node7" class="node"><title>Node7</title>
<polygon fill="white" stroke="#bfbfbf" points="313.286,-112.5 313.286,-131.5 354.286,-131.5 354.286,-112.5 313.286,-112.5"/>
<text text-anchor="middle" x="333.786" y="-119.5" font-family="Helvetica,sans-Serif" font-size="10.00">string</text>
</g>
<!-- Node3&#45;&gt;Node7 -->
<g id="edge6" class="edge"><title>Node3&#45;&gt;Node7</title>
<path fill="none" stroke="midnightblue" d="M273.546,-224.21C285.228,-216.1 301.661,-203.06 311.786,-188 321.238,-173.942 326.977,-155.448 330.212,-141.783"/>
<polygon fill="midnightblue" stroke="midnightblue" points="333.711,-142.152 332.367,-131.643 326.864,-140.697 333.711,-142.152"/>
</g>
<!-- Node8 -->
<g id="node8" class="node"><title>Node8</title>
<g id="a_node8"><a xlink:href="Component_8h.html" target="_top" xlink:title="Component.h">
<polygon fill="white" stroke="black" points="156.286,-168.5 156.286,-187.5 231.286,-187.5 231.286,-168.5 156.286,-168.5"/>
<text text-anchor="middle" x="193.786" y="-175.5" font-family="Helvetica,sans-Serif" font-size="10.00">Component.h</text>
</a>
</g>
</g>
<!-- Node3&#45;&gt;Node8 -->
<g id="edge7" class="edge"><title>Node3&#45;&gt;Node8</title>
<path fill="none" stroke="midnightblue" d="M244.067,-224.324C232.695,-216.42 217.818,-204.548 207.047,-194.938"/>
<polygon fill="midnightblue" stroke="midnightblue" points="209.134,-192.098 199.435,-187.834 204.358,-197.215 209.134,-192.098"/>
</g>
<!-- Node3&#45;&gt;Node9 -->
<g id="edge9" class="edge"><title>Node3&#45;&gt;Node9</title>
<path fill="none" stroke="midnightblue" d="M258.491,-224.476C256.243,-211.532 250.767,-186.471 239.786,-168 233.118,-156.782 223.094,-146.236 214.298,-138.178"/>
<polygon fill="midnightblue" stroke="midnightblue" points="216.527,-135.477 206.696,-131.528 211.918,-140.746 216.527,-135.477"/>
</g>
<!-- Node8&#45;&gt;Node3 -->
<g id="edge8" class="edge"><title>Node8&#45;&gt;Node3</title>
<path fill="none" stroke="midnightblue" d="M209.357,-187.573C220.819,-195.526 235.894,-207.559 246.727,-217.242"/>
<polygon fill="midnightblue" stroke="midnightblue" points="244.356,-219.817 254.054,-224.083 249.133,-214.7 244.356,-219.817"/>
</g>
<!-- Node9&#45;&gt;Node4 -->
<g id="edge10" class="edge"><title>Node9&#45;&gt;Node4</title>
<path fill="none" stroke="midnightblue" d="M198.282,-112.386C202.794,-98.3774 213.659,-70.7463 232.786,-56 266.928,-29.6785 315.184,-18.7118 351.396,-14.1642"/>
<polygon fill="midnightblue" stroke="midnightblue" points="352.198,-17.596 361.742,-12.9966 351.413,-10.6402 352.198,-17.596"/>
</g>
<!-- Node10 -->
<g id="node10" class="node"><title>Node10</title>
<g id="a_node10"><a xlink:href="Vec2_8h.html" target="_top" xlink:title="Vec2.h">
<polygon fill="white" stroke="black" points="378.286,-56.5 378.286,-75.5 425.286,-75.5 425.286,-56.5 378.286,-56.5"/>
<text text-anchor="middle" x="401.786" y="-63.5" font-family="Helvetica,sans-Serif" font-size="10.00">Vec2.h</text>
</a>
</g>
</g>
<!-- Node9&#45;&gt;Node10 -->
<g id="edge11" class="edge"><title>Node9&#45;&gt;Node10</title>
<path fill="none" stroke="midnightblue" d="M219.017,-114.91C255.47,-105.355 326.27,-86.7956 368.247,-75.7919"/>
<polygon fill="midnightblue" stroke="midnightblue" points="369.221,-79.1548 378.007,-73.2334 367.446,-72.3836 369.221,-79.1548"/>
</g>
<!-- Node11 -->
<g id="node11" class="node"><title>Node11</title>
<polygon fill="white" stroke="#bfbfbf" points="136.786,-56.5 136.786,-75.5 180.786,-75.5 180.786,-56.5 136.786,-56.5"/>
<text text-anchor="middle" x="158.786" y="-63.5" font-family="Helvetica,sans-Serif" font-size="10.00">cmath</text>
</g>
<!-- Node9&#45;&gt;Node11 -->
<g id="edge13" class="edge"><title>Node9&#45;&gt;Node11</title>
<path fill="none" stroke="midnightblue" d="M189.676,-112.083C184.504,-104.534 176.94,-93.4948 170.592,-84.2298"/>
<polygon fill="midnightblue" stroke="midnightblue" points="173.322,-82.0221 164.782,-75.7511 167.547,-85.9787 173.322,-82.0221"/>
</g>
<!-- Node10&#45;&gt;Node4 -->
<g id="edge12" class="edge"><title>Node10&#45;&gt;Node4</title>
<path fill="none" stroke="midnightblue" d="M401.786,-56.083C401.786,-49.0059 401.786,-38.8611 401.786,-29.9865"/>
<polygon fill="midnightblue" stroke="midnightblue" points="405.286,-29.751 401.786,-19.7511 398.286,-29.7511 405.286,-29.751"/>
</g>
<!-- Node12&#45;&gt;Node4 -->
<g id="edge16" class="edge"><title>Node12&#45;&gt;Node4</title>
<path fill="none" stroke="midnightblue" d="M474.941,-168.463C488.088,-156.308 508.358,-133.142 499.786,-112 484.484,-74.2545 447.555,-42.8394 423.654,-25.5159"/>
<polygon fill="midnightblue" stroke="midnightblue" points="425.399,-22.4646 415.204,-19.5826 421.377,-28.1935 425.399,-22.4646"/>
</g>
<!-- Node12&#45;&gt;Node6 -->
<g id="edge18" class="edge"><title>Node12&#45;&gt;Node6</title>
<path fill="none" stroke="midnightblue" d="M454.182,-168.324C444.33,-160.263 429.435,-148.077 417.571,-138.369"/>
<polygon fill="midnightblue" stroke="midnightblue" points="419.539,-135.457 409.583,-131.834 415.107,-140.875 419.539,-135.457"/>
</g>
<!-- Node12&#45;&gt;Node7 -->
<g id="edge17" class="edge"><title>Node12&#45;&gt;Node7</title>
<path fill="none" stroke="midnightblue" d="M444.029,-168.444C422.47,-159.557 388.523,-145.563 363.992,-135.451"/>
<polygon fill="midnightblue" stroke="midnightblue" points="365.026,-132.092 354.447,-131.516 362.358,-138.563 365.026,-132.092"/>
</g>
<!-- Node12&#45;&gt;Node9 -->
<g id="edge20" class="edge"><title>Node12&#45;&gt;Node9</title>
<path fill="none" stroke="midnightblue" d="M439.479,-171.92C390.577,-162.103 283.136,-140.535 228.736,-129.614"/>
<polygon fill="midnightblue" stroke="midnightblue" points="229.402,-126.178 218.908,-127.642 228.024,-133.041 229.402,-126.178"/>
</g>
<!-- Node13 -->
<g id="node13" class="node"><title>Node13</title>
<g id="a_node13"><a xlink:href="Color_8h.html" target="_top" xlink:title="Color.h">
<polygon fill="white" stroke="black" points="442.786,-112.5 442.786,-131.5 490.786,-131.5 490.786,-112.5 442.786,-112.5"/>
<text text-anchor="middle" x="466.786" y="-119.5" font-family="Helvetica,sans-Serif" font-size="10.00">Color.h</text>
</a>
</g>
</g>
<!-- Node12&#45;&gt;Node13 -->
<g id="edge19" class="edge"><title>Node12&#45;&gt;Node13</title>
<path fill="none" stroke="midnightblue" d="M465.117,-168.083C465.379,-161.006 465.754,-150.861 466.083,-141.986"/>
<polygon fill="midnightblue" stroke="midnightblue" points="469.59,-141.874 466.462,-131.751 462.594,-141.615 469.59,-141.874"/>
</g>
<!-- Node14 -->
<g id="node14" class="node"><title>Node14</title>
<g id="a_node14"><a xlink:href="InputManager_8h.html" target="_top" xlink:title="InputManager.h">
<polygon fill="white" stroke="black" points="584.786,-112.5 584.786,-131.5 668.786,-131.5 668.786,-112.5 584.786,-112.5"/>
<text text-anchor="middle" x="626.786" y="-119.5" font-family="Helvetica,sans-Serif" font-size="10.00">InputManager.h</text>
</a>
</g>
</g>
<!-- Node12&#45;&gt;Node14 -->
<g id="edge21" class="edge"><title>Node12&#45;&gt;Node14</title>
<path fill="none" stroke="midnightblue" d="M490.099,-168.562C517.282,-159.501 560.684,-145.034 591.275,-134.837"/>
<polygon fill="midnightblue" stroke="midnightblue" points="592.737,-138.039 601.117,-131.556 590.523,-131.398 592.737,-138.039"/>
</g>
<!-- Node14&#45;&gt;Node4 -->
<g id="edge22" class="edge"><title>Node14&#45;&gt;Node4</title>
<path fill="none" stroke="midnightblue" d="M621.78,-112.379C613.186,-98.3604 594.26,-70.7151 570.786,-56 534.728,-33.3963 487.493,-22.0546 452.129,-16.4186"/>
<polygon fill="midnightblue" stroke="midnightblue" points="452.433,-12.9252 442.026,-14.911 451.4,-19.8486 452.433,-12.9252"/>
</g>
<!-- Node14&#45;&gt;Node10 -->
<g id="edge23" class="edge"><title>Node14&#45;&gt;Node10</title>
<path fill="none" stroke="midnightblue" d="M591.134,-112.444C548.411,-102.19 477.364,-85.1387 435.514,-75.0946"/>
<polygon fill="midnightblue" stroke="midnightblue" points="436.078,-71.6308 425.538,-72.7003 434.445,-78.4375 436.078,-71.6308"/>
</g>
<!-- Node15 -->
<g id="node15" class="node"><title>Node15</title>
<polygon fill="white" stroke="#bfbfbf" points="687.286,-56.5 687.286,-75.5 770.286,-75.5 770.286,-56.5 687.286,-56.5"/>
<text text-anchor="middle" x="728.786" y="-63.5" font-family="Helvetica,sans-Serif" font-size="10.00">unordered_map</text>
</g>
<!-- Node14&#45;&gt;Node15 -->
<g id="edge24" class="edge"><title>Node14&#45;&gt;Node15</title>
<path fill="none" stroke="midnightblue" d="M643.174,-112.324C659.458,-103.703 684.654,-90.3643 703.503,-80.3855"/>
<polygon fill="midnightblue" stroke="midnightblue" points="705.239,-83.4267 712.439,-75.6545 701.963,-77.2402 705.239,-83.4267"/>
</g>
<!-- Node16 -->
<g id="node16" class="node"><title>Node16</title>
<polygon fill="white" stroke="#bfbfbf" points="622.786,-56.5 622.786,-75.5 668.786,-75.5 668.786,-56.5 622.786,-56.5"/>
<text text-anchor="middle" x="645.786" y="-63.5" font-family="Helvetica,sans-Serif" font-size="10.00">cstdint</text>
</g>
<!-- Node14&#45;&gt;Node16 -->
<g id="edge25" class="edge"><title>Node14&#45;&gt;Node16</title>
<path fill="none" stroke="midnightblue" d="M629.924,-112.083C632.469,-104.849 636.142,-94.4087 639.313,-85.3968"/>
<polygon fill="midnightblue" stroke="midnightblue" points="642.69,-86.3459 642.707,-75.7511 636.086,-84.0225 642.69,-86.3459"/>
</g>
<!-- Node17&#45;&gt;Node3 -->
<g id="edge29" class="edge"><title>Node17&#45;&gt;Node3</title>
<path fill="none" stroke="midnightblue" d="M188.443,-280.324C201.703,-271.9 222.054,-258.971 237.633,-249.074"/>
<polygon fill="midnightblue" stroke="midnightblue" points="239.6,-251.971 246.163,-243.655 235.846,-246.063 239.6,-251.971"/>
</g>
<!-- Node17&#45;&gt;Node5 -->
<g id="edge28" class="edge"><title>Node17&#45;&gt;Node5</title>
<path fill="none" stroke="midnightblue" d="M170.235,-280.368C160.748,-262.376 138.695,-220.55 126.08,-196.627"/>
<polygon fill="midnightblue" stroke="midnightblue" points="129.076,-194.805 121.316,-187.591 122.884,-198.07 129.076,-194.805"/>
</g>
<!-- Node17&#45;&gt;Node7 -->
<g id="edge27" class="edge"><title>Node17&#45;&gt;Node7</title>
<path fill="none" stroke="midnightblue" d="M160.038,-280.49C126.854,-260.31 51.7834,-208.232 85.7863,-168 116.773,-131.336 251.832,-141.986 298.786,-132 300.244,-131.69 301.732,-131.36 303.233,-131.017"/>
<polygon fill="midnightblue" stroke="midnightblue" points="304.231,-134.376 313.126,-128.62 302.583,-127.573 304.231,-134.376"/>
</g>
<!-- Node17&#45;&gt;Node10 -->
<g id="edge33" class="edge"><title>Node17&#45;&gt;Node10</title>
<path fill="none" stroke="midnightblue" d="M145.255,-280.398C126.487,-273.471 103.111,-261.889 88.7863,-244 67.2657,-217.125 52.3906,-194.974 73.7863,-168 117.467,-112.931 160.504,-152.34 227.786,-132 279.339,-116.415 337.685,-93.4997 372.017,-79.4521"/>
<polygon fill="midnightblue" stroke="midnightblue" points="373.539,-82.6107 381.453,-75.5668 370.874,-76.138 373.539,-82.6107"/>
</g>
<!-- Node18 -->
<g id="node18" class="node"><title>Node18</title>
<g id="a_node18"><a xlink:href="Tileset_8h.html" target="_top" xlink:title="Tileset.h">
<polygon fill="white" stroke="black" points="327.786,-224.5 327.786,-243.5 381.786,-243.5 381.786,-224.5 327.786,-224.5"/>
<text text-anchor="middle" x="354.786" y="-231.5" font-family="Helvetica,sans-Serif" font-size="10.00">Tileset.h</text>
</a>
</g>
</g>
<!-- Node17&#45;&gt;Node18 -->
<g id="edge30" class="edge"><title>Node17&#45;&gt;Node18</title>
<path fill="none" stroke="midnightblue" d="M203.308,-280.444C234.212,-271.172 283.641,-256.343 317.579,-246.162"/>
<polygon fill="midnightblue" stroke="midnightblue" points="319.004,-249.389 327.576,-243.163 316.992,-242.684 319.004,-249.389"/>
</g>
<!-- Node18&#45;&gt;Node7 -->
<g id="edge31" class="edge"><title>Node18&#45;&gt;Node7</title>
<path fill="none" stroke="midnightblue" d="M354.845,-224.484C354.77,-211.967 354.017,-187.928 349.786,-168 347.871,-158.977 344.598,-149.298 341.51,-141.237"/>
<polygon fill="midnightblue" stroke="midnightblue" points="344.675,-139.726 337.686,-131.763 338.184,-142.347 344.675,-139.726"/>
</g>
<!-- Node18&#45;&gt;Node12 -->
<g id="edge32" class="edge"><title>Node18&#45;&gt;Node12</title>
<path fill="none" stroke="midnightblue" d="M372.46,-224.324C390.18,-215.625 417.69,-202.12 438.075,-192.113"/>
<polygon fill="midnightblue" stroke="midnightblue" points="439.722,-195.203 447.157,-187.655 436.638,-188.919 439.722,-195.203"/>
</g>
<!-- Node20&#45;&gt;Node3 -->
<g id="edge36" class="edge"><title>Node20&#45;&gt;Node3</title>
<path fill="none" stroke="midnightblue" d="M251.438,-280.083C252.763,-272.927 254.669,-262.635 256.325,-253.691"/>
<polygon fill="midnightblue" stroke="midnightblue" points="259.786,-254.221 258.166,-243.751 252.903,-252.947 259.786,-254.221"/>
</g>
<!-- Node21&#45;&gt;Node8 -->
<g id="edge38" class="edge"><title>Node21&#45;&gt;Node8</title>
<path fill="none" stroke="midnightblue" d="M149.839,-336.23C142.155,-323.799 130.37,-300.306 135.786,-280 144.423,-247.617 166.19,-214.828 180.464,-195.733"/>
<polygon fill="midnightblue" stroke="midnightblue" points="183.282,-197.81 186.6,-187.748 177.731,-193.545 183.282,-197.81"/>
</g>
<!-- Node22&#45;&gt;Node3 -->
<g id="edge40" class="edge"><title>Node22&#45;&gt;Node3</title>
<path fill="none" stroke="midnightblue" d="M437.985,-281.263C402.465,-272.042 342.852,-256.565 302.452,-246.077"/>
<polygon fill="midnightblue" stroke="midnightblue" points="303.179,-242.65 292.621,-243.524 301.42,-249.425 303.179,-242.65"/>
</g>
<!-- Node22&#45;&gt;Node10 -->
<g id="edge41" class="edge"><title>Node22&#45;&gt;Node10</title>
<path fill="none" stroke="midnightblue" d="M473.23,-280.435C489.694,-253.343 535.689,-167.992 499.786,-112 485.677,-89.996 457.809,-78.6083 435.386,-72.8019"/>
<polygon fill="midnightblue" stroke="midnightblue" points="436.068,-69.3674 425.535,-70.5088 434.481,-76.1851 436.068,-69.3674"/>
</g>
<!-- Node23 -->
<g id="node23" class="node"><title>Node23</title>
<g id="a_node23"><a xlink:href="ActionManager_8h.html" target="_top" xlink:title="ActionManager.h">
<polygon fill="white" stroke="black" points="563.786,-224.5 563.786,-243.5 653.786,-243.5 653.786,-224.5 563.786,-224.5"/>
<text text-anchor="middle" x="608.786" y="-231.5" font-family="Helvetica,sans-Serif" font-size="10.00">ActionManager.h</text>
</a>
</g>
</g>
<!-- Node22&#45;&gt;Node23 -->
<g id="edge42" class="edge"><title>Node22&#45;&gt;Node23</title>
<path fill="none" stroke="midnightblue" d="M490.128,-280.444C513.539,-271.478 550.522,-257.314 576.976,-247.183"/>
<polygon fill="midnightblue" stroke="midnightblue" points="578.462,-250.361 586.549,-243.516 575.959,-243.824 578.462,-250.361"/>
</g>
<!-- Node23&#45;&gt;Node14 -->
<g id="edge43" class="edge"><title>Node23&#45;&gt;Node14</title>
<path fill="none" stroke="midnightblue" d="M610.199,-224.368C613.104,-206.617 619.805,-165.666 623.743,-141.597"/>
<polygon fill="midnightblue" stroke="midnightblue" points="627.22,-142.025 625.38,-131.591 620.311,-140.895 627.22,-142.025"/>
</g>
<!-- Node25 -->
<g id="node25" class="node"><title>Node25</title>
<polygon fill="white" stroke="#bfbfbf" points="515.786,-280.5 515.786,-299.5 569.786,-299.5 569.786,-280.5 515.786,-280.5"/>
<text text-anchor="middle" x="542.786" y="-287.5" font-family="Helvetica,sans-Serif" font-size="10.00">iostream</text>
</g>
<!-- Node24&#45;&gt;Node25 -->
<g id="edge45" class="edge"><title>Node24&#45;&gt;Node25</title>
<path fill="none" stroke="midnightblue" d="M542.786,-336.083C542.786,-329.006 542.786,-318.861 542.786,-309.986"/>
<polygon fill="midnightblue" stroke="midnightblue" points="546.286,-309.751 542.786,-299.751 539.286,-309.751 546.286,-309.751"/>
</g>
<!-- Node26 -->
<g id="node26" class="node"><title>Node26</title>
<polygon fill="white" stroke="#bfbfbf" points="587.786,-280.5 587.786,-299.5 635.786,-299.5 635.786,-280.5 587.786,-280.5"/>
<text text-anchor="middle" x="611.786" y="-287.5" font-family="Helvetica,sans-Serif" font-size="10.00">stdlib.h</text>
</g>
<!-- Node24&#45;&gt;Node26 -->
<g id="edge46" class="edge"><title>Node24&#45;&gt;Node26</title>
<path fill="none" stroke="midnightblue" d="M553.872,-336.324C564.272,-328.185 580.047,-315.839 592.508,-306.087"/>
<polygon fill="midnightblue" stroke="midnightblue" points="594.781,-308.753 600.499,-299.834 590.466,-303.241 594.781,-308.753"/>
</g>
</g>
</svg>
