<?xml version="1.0" encoding="UTF-8" standalone="no"?>
<!DOCTYPE svg PUBLIC "-//W3C//DTD SVG 1.1//EN"
 "http://www.w3.org/Graphics/SVG/1.1/DTD/svg11.dtd">
<!-- Generated by graphviz version 2.38.0 (20140413.2041)
 -->
<!-- Title: Engine/include/Error.h Pages: 1 -->
<svg width="3442pt" height="252pt"
 viewBox="0.00 0.00 3441.88 252.00" xmlns="http://www.w3.org/2000/svg" xmlns:xlink="http://www.w3.org/1999/xlink">
<g id="graph0" class="graph" transform="scale(1 1) rotate(0) translate(4 248)">
<title>Engine/include/Error.h</title>
<polygon fill="white" stroke="none" points="-4,4 -4,-248 3437.88,-248 3437.88,4 -4,4"/>
<!-- Node3 -->
<g id="node1" class="node"><title>Node3</title>
<polygon fill="#bfbfbf" stroke="black" points="1475.38,-224.5 1475.38,-243.5 1588.38,-243.5 1588.38,-224.5 1475.38,-224.5"/>
<text text-anchor="middle" x="1531.88" y="-231.5" font-family="Helvetica,sans-Serif" font-size="10.00">Engine/include/Error.h</text>
</g>
<!-- Node4 -->
<g id="node2" class="node"><title>Node4</title>
<g id="a_node2"><a xlink:href="HitPoints_8h.html" target="_top" xlink:title="Engine/include/HitPoints.h">
<polygon fill="white" stroke="black" points="129.884,-168.5 129.884,-187.5 261.884,-187.5 261.884,-168.5 129.884,-168.5"/>
<text text-anchor="middle" x="195.884" y="-175.5" font-family="Helvetica,sans-Serif" font-size="10.00">Engine/include/HitPoints.h</text>
</a>
</g>
</g>
<!-- Node3&#45;&gt;Node4 -->
<g id="edge1" class="edge"><title>Node3&#45;&gt;Node4</title>
<path fill="none" stroke="midnightblue" d="M1465.03,-231.45C1281.21,-226.991 752.677,-212.83 313.884,-188 297.063,-187.048 278.912,-185.783 262.008,-184.502"/>
<polygon fill="midnightblue" stroke="midnightblue" points="1465,-234.951 1475.08,-231.693 1465.17,-227.953 1465,-234.951"/>
</g>
<!-- Node6 -->
<g id="node4" class="node"><title>Node6</title>
<g id="a_node4"><a xlink:href="Enemy_8h.html" target="_top" xlink:title="Game/include/Enemy.h">
<polygon fill="white" stroke="black" points="205.384,-112.5 205.384,-131.5 324.384,-131.5 324.384,-112.5 205.384,-112.5"/>
<text text-anchor="middle" x="264.884" y="-119.5" font-family="Helvetica,sans-Serif" font-size="10.00">Game/include/Enemy.h</text>
</a>
</g>
</g>
<!-- Node3&#45;&gt;Node6 -->
<g id="edge48" class="edge"><title>Node3&#45;&gt;Node6</title>
<path fill="none" stroke="midnightblue" d="M1464.79,-232.471C1232.43,-230.356 470.486,-220.955 365.884,-188 328.295,-176.158 291.157,-146.372 274.293,-131.593"/>
<polygon fill="midnightblue" stroke="midnightblue" points="1465.1,-235.974 1475.13,-232.564 1465.16,-228.974 1465.1,-235.974"/>
</g>
<!-- Node8 -->
<g id="node6" class="node"><title>Node8</title>
<g id="a_node6"><a xlink:href="GameResources_8cpp.html" target="_top" xlink:title="Game/src/GameResources.cpp">
<polygon fill="white" stroke="black" points="23.384,-0.5 23.384,-19.5 178.384,-19.5 178.384,-0.5 23.384,-0.5"/>
<text text-anchor="middle" x="100.884" y="-7.5" font-family="Helvetica,sans-Serif" font-size="10.00">Game/src/GameResources.cpp</text>
</a>
</g>
</g>
<!-- Node3&#45;&gt;Node8 -->
<g id="edge50" class="edge"><title>Node3&#45;&gt;Node8</title>
<path fill="none" stroke="midnightblue" d="M1465.06,-232.585C1184.14,-230.632 110.519,-221.032 46.884,-188 12.6312,-170.22 -9.43118,-147.839 4.88399,-112 21.7542,-69.7639 65.6197,-35.0921 87.733,-19.6528"/>
<polygon fill="midnightblue" stroke="midnightblue" points="1465.08,-236.085 1475.1,-232.653 1465.13,-229.085 1465.08,-236.085"/>
</g>
<!-- Node9 -->
<g id="node7" class="node"><title>Node9</title>
<g id="a_node7"><a xlink:href="StageState_8cpp.html" target="_top" xlink:title="Game/src/StageState.cpp">
<polygon fill="white" stroke="black" points="324.884,-0.5 324.884,-19.5 454.884,-19.5 454.884,-0.5 324.884,-0.5"/>
<text text-anchor="middle" x="389.884" y="-7.5" font-family="Helvetica,sans-Serif" font-size="10.00">Game/src/StageState.cpp</text>
</a>
</g>
</g>
<!-- Node3&#45;&gt;Node9 -->
<g id="edge51" class="edge"><title>Node3&#45;&gt;Node9</title>
<path fill="none" stroke="midnightblue" d="M1465.2,-232.595C1291.83,-231.043 830.169,-223.591 681.884,-188 622.295,-173.698 608.074,-164.119 555.884,-132 510.424,-104.023 506.366,-86.9625 462.884,-56 443.601,-42.2692 420.111,-28.2355 405.078,-19.572"/>
<polygon fill="midnightblue" stroke="midnightblue" points="1465.18,-236.095 1475.21,-232.681 1465.24,-229.095 1465.18,-236.095"/>
</g>
<!-- Node10 -->
<g id="node8" class="node"><title>Node10</title>
<g id="a_node8"><a xlink:href="WaveManager_8cpp.html" target="_top" xlink:title="Game/src/WaveManager.cpp">
<polygon fill="white" stroke="black" points="488.884,-0.5 488.884,-19.5 632.884,-19.5 632.884,-0.5 488.884,-0.5"/>
<text text-anchor="middle" x="560.884" y="-7.5" font-family="Helvetica,sans-Serif" font-size="10.00">Game/src/WaveManager.cpp</text>
</a>
</g>
</g>
<!-- Node3&#45;&gt;Node10 -->
<g id="edge53" class="edge"><title>Node3&#45;&gt;Node10</title>
<path fill="none" stroke="midnightblue" d="M1464.99,-231.995C1333.83,-229.327 1053.1,-219.914 1023.88,-188 1017.88,-181.443 1018.45,-175.034 1023.88,-168 1062.64,-117.84 1123.13,-182.16 1161.88,-132 1215.05,-63.1789 1226.25,-105.914 1036.88,-56 1017.68,-50.9389 761.18,-28.2967 632.9,-17.1877"/>
<polygon fill="midnightblue" stroke="midnightblue" points="1465.24,-235.5 1475.3,-232.197 1465.37,-228.502 1465.24,-235.5"/>
</g>
<!-- Node11 -->
<g id="node9" class="node"><title>Node11</title>
<g id="a_node9"><a xlink:href="Enemy_8cpp.html" target="_top" xlink:title="Game/src/Enemy.cpp">
<polygon fill="white" stroke="black" points="120.884,-56.5 120.884,-75.5 232.884,-75.5 232.884,-56.5 120.884,-56.5"/>
<text text-anchor="middle" x="176.884" y="-63.5" font-family="Helvetica,sans-Serif" font-size="10.00">Game/src/Enemy.cpp</text>
</a>
</g>
</g>
<!-- Node3&#45;&gt;Node11 -->
<g id="edge49" class="edge"><title>Node3&#45;&gt;Node11</title>
<path fill="none" stroke="midnightblue" d="M1464.86,-232.621C1202.26,-230.895 251.437,-222.314 120.884,-188 68.9723,-174.356 41.6786,-177.918 13.884,-132 -12.2649,-88.8009 63.7775,-74.2929 120.643,-69.4326"/>
<polygon fill="midnightblue" stroke="midnightblue" points="1464.99,-236.122 1475.01,-232.686 1465.03,-229.122 1464.99,-236.122"/>
</g>
<!-- Node12 -->
<g id="node10" class="node"><title>Node12</title>
<g id="a_node10"><a xlink:href="Music_8h.html" target="_top" xlink:title="Engine/include/Music.h">
<polygon fill="white" stroke="black" points="727.884,-168.5 727.884,-187.5 845.884,-187.5 845.884,-168.5 727.884,-168.5"/>
<text text-anchor="middle" x="786.884" y="-175.5" font-family="Helvetica,sans-Serif" font-size="10.00">Engine/include/Music.h</text>
</a>
</g>
</g>
<!-- Node3&#45;&gt;Node12 -->
<g id="edge12" class="edge"><title>Node3&#45;&gt;Node12</title>
<path fill="none" stroke="midnightblue" d="M1465,-229.952C1343.51,-224.103 1078.53,-209.909 855.884,-188 852.638,-187.681 849.309,-187.328 845.951,-186.954"/>
<polygon fill="midnightblue" stroke="midnightblue" points="1465.1,-233.461 1475.25,-230.442 1465.43,-226.469 1465.1,-233.461"/>
</g>
<!-- Node18 -->
<g id="node16" class="node"><title>Node18</title>
<g id="a_node16"><a xlink:href="Text_8h.html" target="_top" xlink:title="Engine/include/Text.h">
<polygon fill="white" stroke="black" points="864.384,-168.5 864.384,-187.5 975.384,-187.5 975.384,-168.5 864.384,-168.5"/>
<text text-anchor="middle" x="919.884" y="-175.5" font-family="Helvetica,sans-Serif" font-size="10.00">Engine/include/Text.h</text>
</a>
</g>
</g>
<!-- Node3&#45;&gt;Node18 -->
<g id="edge21" class="edge"><title>Node3&#45;&gt;Node18</title>
<path fill="none" stroke="midnightblue" d="M1465.04,-228.423C1362.62,-221.192 1160.78,-206.071 989.884,-188 985.254,-187.51 980.456,-186.968 975.642,-186.399"/>
<polygon fill="midnightblue" stroke="midnightblue" points="1465.01,-231.93 1475.23,-229.14 1465.5,-224.947 1465.01,-231.93"/>
</g>
<!-- Node20 -->
<g id="node18" class="node"><title>Node20</title>
<g id="a_node18"><a xlink:href="Camera_8cpp.html" target="_top" xlink:title="Engine/src/Camera.cpp">
<polygon fill="white" stroke="black" points="1032.38,-168.5 1032.38,-187.5 1151.38,-187.5 1151.38,-168.5 1032.38,-168.5"/>
<text text-anchor="middle" x="1091.88" y="-175.5" font-family="Helvetica,sans-Serif" font-size="10.00">Engine/src/Camera.cpp</text>
</a>
</g>
</g>
<!-- Node3&#45;&gt;Node20 -->
<g id="edge24" class="edge"><title>Node3&#45;&gt;Node20</title>
<path fill="none" stroke="midnightblue" d="M1465.15,-225.089C1390.86,-216.239 1267.25,-201.387 1160.88,-188 1157.89,-187.623 1154.82,-187.234 1151.72,-186.838"/>
<polygon fill="midnightblue" stroke="midnightblue" points="1464.95,-228.59 1475.3,-226.297 1465.78,-221.639 1464.95,-228.59"/>
</g>
<!-- Node21 -->
<g id="node19" class="node"><title>Node21</title>
<g id="a_node19"><a xlink:href="DragAndDrop_8cpp.html" target="_top" xlink:title="Engine/src/DragAndDrop.cpp">
<polygon fill="white" stroke="black" points="1169.88,-168.5 1169.88,-187.5 1313.88,-187.5 1313.88,-168.5 1169.88,-168.5"/>
<text text-anchor="middle" x="1241.88" y="-175.5" font-family="Helvetica,sans-Serif" font-size="10.00">Engine/src/DragAndDrop.cpp</text>
</a>
</g>
</g>
<!-- Node3&#45;&gt;Node21 -->
<g id="edge25" class="edge"><title>Node3&#45;&gt;Node21</title>
<path fill="none" stroke="midnightblue" d="M1476.04,-222.601C1421.23,-212.395 1338.65,-197.019 1287.62,-187.516"/>
<polygon fill="midnightblue" stroke="midnightblue" points="1475.46,-226.054 1485.93,-224.444 1476.74,-219.172 1475.46,-226.054"/>
</g>
<!-- Node22 -->
<g id="node20" class="node"><title>Node22</title>
<g id="a_node20"><a xlink:href="Game_8cpp.html" target="_top" xlink:title="Engine/src/Game.cpp">
<polygon fill="white" stroke="black" points="1332.38,-168.5 1332.38,-187.5 1443.38,-187.5 1443.38,-168.5 1332.38,-168.5"/>
<text text-anchor="middle" x="1387.88" y="-175.5" font-family="Helvetica,sans-Serif" font-size="10.00">Engine/src/Game.cpp</text>
</a>
</g>
</g>
<!-- Node3&#45;&gt;Node22 -->
<g id="edge26" class="edge"><title>Node3&#45;&gt;Node22</title>
<path fill="none" stroke="midnightblue" d="M1499.63,-220.906C1472.56,-210.754 1434.57,-196.506 1410.59,-187.516"/>
<polygon fill="midnightblue" stroke="midnightblue" points="1498.47,-224.209 1509.07,-224.444 1500.93,-217.655 1498.47,-224.209"/>
</g>
<!-- Node23 -->
<g id="node21" class="node"><title>Node23</title>
<g id="a_node21"><a xlink:href="GameObject_8cpp.html" target="_top" xlink:title="Engine/src/GameObject.cpp">
<polygon fill="white" stroke="black" points="1461.88,-168.5 1461.88,-187.5 1601.88,-187.5 1601.88,-168.5 1461.88,-168.5"/>
<text text-anchor="middle" x="1531.88" y="-175.5" font-family="Helvetica,sans-Serif" font-size="10.00">Engine/src/GameObject.cpp</text>
</a>
</g>
</g>
<!-- Node3&#45;&gt;Node23 -->
<g id="edge27" class="edge"><title>Node3&#45;&gt;Node23</title>
<path fill="none" stroke="midnightblue" d="M1531.88,-213.805C1531.88,-204.91 1531.88,-194.78 1531.88,-187.751"/>
<polygon fill="midnightblue" stroke="midnightblue" points="1528.38,-214.083 1531.88,-224.083 1535.38,-214.083 1528.38,-214.083"/>
</g>
<!-- Node24 -->
<g id="node22" class="node"><title>Node24</title>
<g id="a_node22"><a xlink:href="InputManager_8cpp.html" target="_top" xlink:title="Engine/src/InputManager.cpp">
<polygon fill="white" stroke="black" points="1619.88,-168.5 1619.88,-187.5 1763.88,-187.5 1763.88,-168.5 1619.88,-168.5"/>
<text text-anchor="middle" x="1691.88" y="-175.5" font-family="Helvetica,sans-Serif" font-size="10.00">Engine/src/InputManager.cpp</text>
</a>
</g>
</g>
<!-- Node3&#45;&gt;Node24 -->
<g id="edge28" class="edge"><title>Node3&#45;&gt;Node24</title>
<path fill="none" stroke="midnightblue" d="M1566.93,-221.172C1597.06,-211.004 1639.78,-196.585 1666.65,-187.516"/>
<polygon fill="midnightblue" stroke="midnightblue" points="1565.59,-217.929 1557.24,-224.444 1567.83,-224.562 1565.59,-217.929"/>
</g>
<!-- Node25 -->
<g id="node23" class="node"><title>Node25</title>
<g id="a_node23"><a xlink:href="Resources_8cpp.html" target="_top" xlink:title="Engine/src/Resources.cpp">
<polygon fill="white" stroke="black" points="1781.88,-168.5 1781.88,-187.5 1913.88,-187.5 1913.88,-168.5 1781.88,-168.5"/>
<text text-anchor="middle" x="1847.88" y="-175.5" font-family="Helvetica,sans-Serif" font-size="10.00">Engine/src/Resources.cpp</text>
</a>
</g>
</g>
<!-- Node3&#45;&gt;Node25 -->
<g id="edge29" class="edge"><title>Node3&#45;&gt;Node25</title>
<path fill="none" stroke="midnightblue" d="M1592,-222.727C1651.71,-212.523 1742.21,-197.058 1798.05,-187.516"/>
<polygon fill="midnightblue" stroke="midnightblue" points="1591.22,-219.309 1581.96,-224.444 1592.4,-226.209 1591.22,-219.309"/>
</g>
<!-- Node26 -->
<g id="node24" class="node"><title>Node26</title>
<g id="a_node24"><a xlink:href="Sprite_8cpp.html" target="_top" xlink:title="Engine/src/Sprite.cpp">
<polygon fill="white" stroke="black" points="1931.88,-168.5 1931.88,-187.5 2041.88,-187.5 2041.88,-168.5 1931.88,-168.5"/>
<text text-anchor="middle" x="1986.88" y="-175.5" font-family="Helvetica,sans-Serif" font-size="10.00">Engine/src/Sprite.cpp</text>
</a>
</g>
</g>
<!-- Node3&#45;&gt;Node26 -->
<g id="edge30" class="edge"><title>Node3&#45;&gt;Node26</title>
<path fill="none" stroke="midnightblue" d="M1598.75,-225.821C1676.65,-217.338 1809.21,-202.532 1922.88,-188 1925.78,-187.63 1928.74,-187.242 1931.74,-186.845"/>
<polygon fill="midnightblue" stroke="midnightblue" points="1598.16,-222.365 1588.6,-226.925 1598.92,-229.324 1598.16,-222.365"/>
</g>
<!-- Node27 -->
<g id="node25" class="node"><title>Node27</title>
<g id="a_node25"><a xlink:href="State_8cpp.html" target="_top" xlink:title="Engine/src/State.cpp">
<polygon fill="white" stroke="black" points="2059.88,-168.5 2059.88,-187.5 2167.88,-187.5 2167.88,-168.5 2059.88,-168.5"/>
<text text-anchor="middle" x="2113.88" y="-175.5" font-family="Helvetica,sans-Serif" font-size="10.00">Engine/src/State.cpp</text>
</a>
</g>
</g>
<!-- Node3&#45;&gt;Node27 -->
<g id="edge31" class="edge"><title>Node3&#45;&gt;Node27</title>
<path fill="none" stroke="midnightblue" d="M1598.58,-228.405C1697.49,-221.321 1888.82,-206.588 2050.88,-188 2053.74,-187.673 2056.66,-187.319 2059.61,-186.948"/>
<polygon fill="midnightblue" stroke="midnightblue" points="1598.16,-224.926 1588.43,-229.128 1598.66,-231.908 1598.16,-224.926"/>
</g>
<!-- Node28 -->
<g id="node26" class="node"><title>Node28</title>
<g id="a_node26"><a xlink:href="TileMap_8cpp.html" target="_top" xlink:title="Engine/src/TileMap.cpp">
<polygon fill="white" stroke="black" points="2186.38,-168.5 2186.38,-187.5 2305.38,-187.5 2305.38,-168.5 2186.38,-168.5"/>
<text text-anchor="middle" x="2245.88" y="-175.5" font-family="Helvetica,sans-Serif" font-size="10.00">Engine/src/TileMap.cpp</text>
</a>
</g>
</g>
<!-- Node3&#45;&gt;Node28 -->
<g id="edge32" class="edge"><title>Node3&#45;&gt;Node28</title>
<path fill="none" stroke="midnightblue" d="M1598.74,-229.662C1715.99,-223.511 1966.27,-209.063 2176.88,-188 2179.89,-187.699 2182.97,-187.372 2186.07,-187.025"/>
<polygon fill="midnightblue" stroke="midnightblue" points="1598.3,-226.18 1588.49,-230.196 1598.66,-233.171 1598.3,-226.18"/>
</g>
<!-- Node29 -->
<g id="node27" class="node"><title>Node29</title>
<g id="a_node27"><a xlink:href="Tileset_8cpp.html" target="_top" xlink:title="Engine/src/Tileset.cpp">
<polygon fill="white" stroke="black" points="2323.88,-168.5 2323.88,-187.5 2437.88,-187.5 2437.88,-168.5 2323.88,-168.5"/>
<text text-anchor="middle" x="2380.88" y="-175.5" font-family="Helvetica,sans-Serif" font-size="10.00">Engine/src/Tileset.cpp</text>
</a>
</g>
</g>
<!-- Node3&#45;&gt;Node29 -->
<g id="edge33" class="edge"><title>Node3&#45;&gt;Node29</title>
<path fill="none" stroke="midnightblue" d="M1598.71,-230.92C1734.09,-226.319 2050.38,-213.596 2314.88,-188 2317.76,-187.722 2320.71,-187.412 2323.68,-187.079"/>
<polygon fill="midnightblue" stroke="midnightblue" points="1598.38,-227.43 1588.5,-231.264 1598.61,-234.426 1598.38,-227.43"/>
</g>
<!-- Node30 -->
<g id="node28" class="node"><title>Node30</title>
<g id="a_node28"><a xlink:href="UIelement_8cpp.html" target="_top" xlink:title="Engine/src/UIelement.cpp">
<polygon fill="white" stroke="black" points="2455.88,-168.5 2455.88,-187.5 2585.88,-187.5 2585.88,-168.5 2455.88,-168.5"/>
<text text-anchor="middle" x="2520.88" y="-175.5" font-family="Helvetica,sans-Serif" font-size="10.00">Engine/src/UIelement.cpp</text>
</a>
</g>
</g>
<!-- Node3&#45;&gt;Node30 -->
<g id="edge34" class="edge"><title>Node3&#45;&gt;Node30</title>
<path fill="none" stroke="midnightblue" d="M1598.52,-231.364C1749.64,-227.296 2129.9,-215.036 2446.88,-188 2449.72,-187.758 2452.62,-187.491 2455.54,-187.206"/>
<polygon fill="midnightblue" stroke="midnightblue" points="1598.37,-227.867 1588.47,-231.632 1598.56,-234.865 1598.37,-227.867"/>
</g>
<!-- Node31 -->
<g id="node29" class="node"><title>Node31</title>
<g id="a_node29"><a xlink:href="UIimage_8cpp.html" target="_top" xlink:title="Engine/src/UIimage.cpp">
<polygon fill="white" stroke="black" points="2603.88,-168.5 2603.88,-187.5 2725.88,-187.5 2725.88,-168.5 2603.88,-168.5"/>
<text text-anchor="middle" x="2664.88" y="-175.5" font-family="Helvetica,sans-Serif" font-size="10.00">Engine/src/UIimage.cpp</text>
</a>
</g>
</g>
<!-- Node3&#45;&gt;Node31 -->
<g id="edge35" class="edge"><title>Node3&#45;&gt;Node31</title>
<path fill="none" stroke="midnightblue" d="M1598.62,-232.157C1766.35,-229.606 2219.02,-220.059 2594.88,-188 2597.81,-187.75 2600.81,-187.468 2603.83,-187.162"/>
<polygon fill="midnightblue" stroke="midnightblue" points="1598.41,-228.659 1588.46,-232.308 1598.51,-235.658 1598.41,-228.659"/>
</g>
<!-- Node32 -->
<g id="node30" class="node"><title>Node32</title>
<g id="a_node30"><a xlink:href="UIimageButton_8cpp.html" target="_top" xlink:title="Engine/src/UIimageButton.cpp">
<polygon fill="white" stroke="black" points="2743.88,-168.5 2743.88,-187.5 2893.88,-187.5 2893.88,-168.5 2743.88,-168.5"/>
<text text-anchor="middle" x="2818.88" y="-175.5" font-family="Helvetica,sans-Serif" font-size="10.00">Engine/src/UIimageButton.cpp</text>
</a>
</g>
</g>
<!-- Node3&#45;&gt;Node32 -->
<g id="edge36" class="edge"><title>Node3&#45;&gt;Node32</title>
<path fill="none" stroke="midnightblue" d="M1598.88,-232.123C1781.39,-229.381 2302.65,-219.202 2734.88,-188 2737.81,-187.789 2740.79,-187.556 2743.8,-187.305"/>
<polygon fill="midnightblue" stroke="midnightblue" points="1598.58,-228.627 1588.64,-232.274 1598.69,-235.626 1598.58,-228.627"/>
</g>
<!-- Node33 -->
<g id="node31" class="node"><title>Node33</title>
<g id="a_node31"><a xlink:href="UItext_8cpp.html" target="_top" xlink:title="Engine/src/UItext.cpp">
<polygon fill="white" stroke="black" points="2911.88,-168.5 2911.88,-187.5 3023.88,-187.5 3023.88,-168.5 2911.88,-168.5"/>
<text text-anchor="middle" x="2967.88" y="-175.5" font-family="Helvetica,sans-Serif" font-size="10.00">Engine/src/UItext.cpp</text>
</a>
</g>
</g>
<!-- Node3&#45;&gt;Node33 -->
<g id="edge37" class="edge"><title>Node3&#45;&gt;Node33</title>
<path fill="none" stroke="midnightblue" d="M1598.78,-233.283C1797.76,-233.592 2403.15,-230.68 2902.88,-188 2905.72,-187.758 2908.63,-187.477 2911.55,-187.167"/>
<polygon fill="midnightblue" stroke="midnightblue" points="1598.5,-229.783 1588.49,-233.263 1598.48,-236.783 1598.5,-229.783"/>
</g>
<!-- Node34 -->
<g id="node32" class="node"><title>Node34</title>
<g id="a_node32"><a xlink:href="UItextButton_8cpp.html" target="_top" xlink:title="Engine/src/UItextButton.cpp">
<polygon fill="white" stroke="black" points="3041.88,-168.5 3041.88,-187.5 3181.88,-187.5 3181.88,-168.5 3041.88,-168.5"/>
<text text-anchor="middle" x="3111.88" y="-175.5" font-family="Helvetica,sans-Serif" font-size="10.00">Engine/src/UItextButton.cpp</text>
</a>
</g>
</g>
<!-- Node3&#45;&gt;Node34 -->
<g id="edge38" class="edge"><title>Node3&#45;&gt;Node34</title>
<path fill="none" stroke="midnightblue" d="M1598.83,-232.983C1809.85,-232.502 2479.89,-227.72 3032.88,-188 3035.78,-187.792 3038.72,-187.558 3041.7,-187.303"/>
<polygon fill="midnightblue" stroke="midnightblue" points="1598.53,-229.483 1588.54,-233.003 1598.55,-236.483 1598.53,-229.483"/>
</g>
<!-- Node35 -->
<g id="node33" class="node"><title>Node35</title>
<g id="a_node33"><a xlink:href="Vec2_8cpp.html" target="_top" xlink:title="Engine/src/Vec2.cpp">
<polygon fill="white" stroke="black" points="3200.38,-168.5 3200.38,-187.5 3307.38,-187.5 3307.38,-168.5 3200.38,-168.5"/>
<text text-anchor="middle" x="3253.88" y="-175.5" font-family="Helvetica,sans-Serif" font-size="10.00">Engine/src/Vec2.cpp</text>
</a>
</g>
</g>
<!-- Node3&#45;&gt;Node35 -->
<g id="edge39" class="edge"><title>Node3&#45;&gt;Node35</title>
<path fill="none" stroke="midnightblue" d="M1598.53,-232.215C1867.46,-228.889 2873.59,-214.878 3190.88,-188 3193.97,-187.739 3197.13,-187.427 3200.32,-187.079"/>
<polygon fill="midnightblue" stroke="midnightblue" points="1598.48,-228.715 1588.52,-232.338 1598.56,-235.715 1598.48,-228.715"/>
</g>
<!-- Node36 -->
<g id="node34" class="node"><title>Node36</title>
<g id="a_node34"><a xlink:href="WaveData_8h.html" target="_top" xlink:title="Game/include/WaveData.h">
<polygon fill="white" stroke="black" points="374.884,-168.5 374.884,-187.5 508.884,-187.5 508.884,-168.5 374.884,-168.5"/>
<text text-anchor="middle" x="441.884" y="-175.5" font-family="Helvetica,sans-Serif" font-size="10.00">Game/include/WaveData.h</text>
</a>
</g>
</g>
<!-- Node3&#45;&gt;Node36 -->
<g id="edge40" class="edge"><title>Node3&#45;&gt;Node36</title>
<path fill="none" stroke="midnightblue" d="M1464.9,-231.543C1302.92,-227.685 877.2,-215.555 522.884,-188 518.37,-187.649 513.719,-187.245 509.035,-186.807"/>
<polygon fill="midnightblue" stroke="midnightblue" points="1465.11,-235.048 1475.19,-231.785 1465.27,-228.05 1465.11,-235.048"/>
</g>
<!-- Node37 -->
<g id="node35" class="node"><title>Node37</title>
<g id="a_node35"><a xlink:href="WaveManager_8h.html" target="_top" xlink:title="Game/include/WaveManager.h">
<polygon fill="white" stroke="black" points="565.384,-112.5 565.384,-131.5 716.384,-131.5 716.384,-112.5 565.384,-112.5"/>
<text text-anchor="middle" x="640.884" y="-119.5" font-family="Helvetica,sans-Serif" font-size="10.00">Game/include/WaveManager.h</text>
</a>
</g>
</g>
<!-- Node3&#45;&gt;Node37 -->
<g id="edge47" class="edge"><title>Node3&#45;&gt;Node37</title>
<path fill="none" stroke="midnightblue" d="M1464.94,-231.705C1282.81,-227.845 787.392,-214.968 718.884,-188 688.048,-175.861 660.436,-146.496 647.943,-131.753"/>
<polygon fill="midnightblue" stroke="midnightblue" points="1465.12,-235.21 1475.19,-231.92 1465.26,-228.211 1465.12,-235.21"/>
</g>
<!-- Node39 -->
<g id="node37" class="node"><title>Node39</title>
<g id="a_node37"><a xlink:href="Tower_8cpp.html" target="_top" xlink:title="Game/src/Tower.cpp">
<polygon fill="white" stroke="black" points="3325.88,-168.5 3325.88,-187.5 3433.88,-187.5 3433.88,-168.5 3325.88,-168.5"/>
<text text-anchor="middle" x="3379.88" y="-175.5" font-family="Helvetica,sans-Serif" font-size="10.00">Game/src/Tower.cpp</text>
</a>
</g>
</g>
<!-- Node3&#45;&gt;Node39 -->
<g id="edge52" class="edge"><title>Node3&#45;&gt;Node39</title>
<path fill="none" stroke="midnightblue" d="M1598.87,-232.359C1880.97,-229.497 2973.6,-216.749 3316.88,-188 3319.75,-187.76 3322.68,-187.476 3325.63,-187.16"/>
<polygon fill="midnightblue" stroke="midnightblue" points="1598.75,-228.86 1588.78,-232.461 1598.82,-235.86 1598.75,-228.86"/>
</g>
<!-- Node5 -->
<g id="node3" class="node"><title>Node5</title>
<g id="a_node3"><a xlink:href="HitPoints_8cpp.html" target="_top" xlink:title="Engine/src/HitPoints.cpp">
<polygon fill="white" stroke="black" points="23.384,-112.5 23.384,-131.5 148.384,-131.5 148.384,-112.5 23.384,-112.5"/>
<text text-anchor="middle" x="85.884" y="-119.5" font-family="Helvetica,sans-Serif" font-size="10.00">Engine/src/HitPoints.cpp</text>
</a>
</g>
</g>
<!-- Node4&#45;&gt;Node5 -->
<g id="edge2" class="edge"><title>Node4&#45;&gt;Node5</title>
<path fill="none" stroke="midnightblue" d="M169.122,-163.862C148.725,-153.849 121.218,-140.346 103.514,-131.655"/>
<polygon fill="midnightblue" stroke="midnightblue" points="167.692,-167.059 178.211,-168.324 170.776,-160.775 167.692,-167.059"/>
</g>
<!-- Node4&#45;&gt;Node6 -->
<g id="edge3" class="edge"><title>Node4&#45;&gt;Node6</title>
<path fill="none" stroke="midnightblue" d="M214.922,-162.101C227.34,-152.382 243.127,-140.027 253.596,-131.834"/>
<polygon fill="midnightblue" stroke="midnightblue" points="212.688,-159.405 206.97,-168.324 217.002,-164.917 212.688,-159.405"/>
</g>
<!-- Node4&#45;&gt;Node11 -->
<g id="edge11" class="edge"><title>Node4&#45;&gt;Node11</title>
<path fill="none" stroke="midnightblue" d="M192.662,-158.348C188.501,-134.254 181.428,-93.3079 178.368,-75.5914"/>
<polygon fill="midnightblue" stroke="midnightblue" points="189.242,-159.11 194.393,-168.368 196.14,-157.919 189.242,-159.11"/>
</g>
<!-- Node7 -->
<g id="node5" class="node"><title>Node7</title>
<g id="a_node5"><a xlink:href="GameResources_8h.html" target="_top" xlink:title="Game/include/GameResources.h">
<polygon fill="white" stroke="black" points="293.384,-56.5 293.384,-75.5 454.384,-75.5 454.384,-56.5 293.384,-56.5"/>
<text text-anchor="middle" x="373.884" y="-63.5" font-family="Helvetica,sans-Serif" font-size="10.00">Game/include/GameResources.h</text>
</a>
</g>
</g>
<!-- Node6&#45;&gt;Node7 -->
<g id="edge4" class="edge"><title>Node6&#45;&gt;Node7</title>
<path fill="none" stroke="midnightblue" d="M291.403,-107.862C311.614,-97.8492 338.871,-84.3458 356.415,-75.6545"/>
<polygon fill="midnightblue" stroke="midnightblue" points="289.804,-104.748 282.397,-112.324 292.911,-111.021 289.804,-104.748"/>
</g>
<!-- Node6&#45;&gt;Node9 -->
<g id="edge9" class="edge"><title>Node6&#45;&gt;Node9</title>
<path fill="none" stroke="midnightblue" d="M266.106,-102.177C267.953,-87.9498 272.541,-68.7556 283.884,-56 300.557,-37.2507 326.358,-26.0696 348.33,-19.5424"/>
<polygon fill="midnightblue" stroke="midnightblue" points="262.605,-102.015 265.136,-112.303 269.574,-102.683 262.605,-102.015"/>
</g>
<!-- Node6&#45;&gt;Node10 -->
<g id="edge10" class="edge"><title>Node6&#45;&gt;Node10</title>
<path fill="none" stroke="midnightblue" d="M334.836,-111.459C373.633,-104.615 422.13,-93.4501 462.884,-76 497.793,-61.0529 533.708,-33.5128 550.739,-19.5693"/>
<polygon fill="midnightblue" stroke="midnightblue" points="333.949,-108.06 324.68,-113.192 335.127,-114.96 333.949,-108.06"/>
</g>
<!-- Node6&#45;&gt;Node11 -->
<g id="edge8" class="edge"><title>Node6&#45;&gt;Node11</title>
<path fill="none" stroke="midnightblue" d="M241.907,-106.901C225.771,-96.9986 204.703,-84.0705 190.988,-75.6545"/>
<polygon fill="midnightblue" stroke="midnightblue" points="240.391,-110.077 250.745,-112.324 244.053,-104.111 240.391,-110.077"/>
</g>
<!-- Node7&#45;&gt;Node8 -->
<g id="edge5" class="edge"><title>Node7&#45;&gt;Node8</title>
<path fill="none" stroke="midnightblue" d="M320.666,-54.4734C269.071,-44.2678 191.78,-28.9794 143.939,-19.5164"/>
<polygon fill="midnightblue" stroke="midnightblue" points="320.137,-57.9365 330.626,-56.4435 321.496,-51.0696 320.137,-57.9365"/>
</g>
<!-- Node7&#45;&gt;Node9 -->
<g id="edge6" class="edge"><title>Node7&#45;&gt;Node9</title>
<path fill="none" stroke="midnightblue" d="M379.396,-46.3956C382.073,-37.362 385.162,-26.936 387.291,-19.7511"/>
<polygon fill="midnightblue" stroke="midnightblue" points="376.011,-45.5007 376.526,-56.083 382.723,-47.4893 376.011,-45.5007"/>
</g>
<!-- Node7&#45;&gt;Node10 -->
<g id="edge7" class="edge"><title>Node7&#45;&gt;Node10</title>
<path fill="none" stroke="midnightblue" d="M413.474,-53.5677C448.75,-43.381 499.578,-28.7034 531.392,-19.5164"/>
<polygon fill="midnightblue" stroke="midnightblue" points="412.151,-50.3065 403.515,-56.4435 414.093,-57.0317 412.151,-50.3065"/>
</g>
<!-- Node13 -->
<g id="node11" class="node"><title>Node13</title>
<g id="a_node11"><a xlink:href="Music_8cpp.html" target="_top" xlink:title="Engine/src/Music.cpp">
<polygon fill="white" stroke="black" points="773.384,-112.5 773.384,-131.5 884.384,-131.5 884.384,-112.5 773.384,-112.5"/>
<text text-anchor="middle" x="828.884" y="-119.5" font-family="Helvetica,sans-Serif" font-size="10.00">Engine/src/Music.cpp</text>
</a>
</g>
</g>
<!-- Node12&#45;&gt;Node13 -->
<g id="edge13" class="edge"><title>Node12&#45;&gt;Node13</title>
<path fill="none" stroke="midnightblue" d="M799.994,-160.144C807.312,-150.736 816.125,-139.405 822.078,-131.751"/>
<polygon fill="midnightblue" stroke="midnightblue" points="797.196,-158.041 793.819,-168.083 802.722,-162.338 797.196,-158.041"/>
</g>
<!-- Node14 -->
<g id="node12" class="node"><title>Node14</title>
<g id="a_node12"><a xlink:href="EndState_8h.html" target="_top" xlink:title="Game/include/EndState.h">
<polygon fill="white" stroke="black" points="902.884,-112.5 902.884,-131.5 1030.88,-131.5 1030.88,-112.5 902.884,-112.5"/>
<text text-anchor="middle" x="966.884" y="-119.5" font-family="Helvetica,sans-Serif" font-size="10.00">Game/include/EndState.h</text>
</a>
</g>
</g>
<!-- Node12&#45;&gt;Node14 -->
<g id="edge14" class="edge"><title>Node12&#45;&gt;Node14</title>
<path fill="none" stroke="midnightblue" d="M824.992,-165.568C858.947,-155.381 907.873,-140.703 938.496,-131.516"/>
<polygon fill="midnightblue" stroke="midnightblue" points="823.978,-162.218 815.406,-168.444 825.99,-168.922 823.978,-162.218"/>
</g>
<!-- Node15 -->
<g id="node13" class="node"><title>Node15</title>
<g id="a_node13"><a xlink:href="StageState_8h.html" target="_top" xlink:title="Game/include/StageState.h">
<polygon fill="white" stroke="black" points="676.384,-56.5 676.384,-75.5 813.384,-75.5 813.384,-56.5 676.384,-56.5"/>
<text text-anchor="middle" x="744.884" y="-63.5" font-family="Helvetica,sans-Serif" font-size="10.00">Game/include/StageState.h</text>
</a>
</g>
</g>
<!-- Node12&#45;&gt;Node15 -->
<g id="edge20" class="edge"><title>Node12&#45;&gt;Node15</title>
<path fill="none" stroke="midnightblue" d="M776.887,-159.349C772.523,-151.191 767.571,-141.274 763.884,-132 756.065,-112.335 749.848,-88.1888 746.846,-75.5853"/>
<polygon fill="midnightblue" stroke="midnightblue" points="773.907,-161.192 781.795,-168.265 780.039,-157.817 773.907,-161.192"/>
</g>
<!-- Node14&#45;&gt;Node15 -->
<g id="edge15" class="edge"><title>Node14&#45;&gt;Node15</title>
<path fill="none" stroke="midnightblue" d="M916.755,-110.153C873.05,-99.95 811.251,-84.8809 774.816,-75.5164"/>
<polygon fill="midnightblue" stroke="midnightblue" points="916.086,-113.591 926.619,-112.444 917.67,-106.772 916.086,-113.591"/>
</g>
<!-- Node17 -->
<g id="node15" class="node"><title>Node17</title>
<g id="a_node15"><a xlink:href="EndState_8cpp.html" target="_top" xlink:title="Game/src/EndState.cpp">
<polygon fill="white" stroke="black" points="905.884,-56.5 905.884,-75.5 1027.88,-75.5 1027.88,-56.5 905.884,-56.5"/>
<text text-anchor="middle" x="966.884" y="-63.5" font-family="Helvetica,sans-Serif" font-size="10.00">Game/src/EndState.cpp</text>
</a>
</g>
</g>
<!-- Node14&#45;&gt;Node17 -->
<g id="edge19" class="edge"><title>Node14&#45;&gt;Node17</title>
<path fill="none" stroke="midnightblue" d="M966.884,-101.805C966.884,-92.9102 966.884,-82.7798 966.884,-75.7511"/>
<polygon fill="midnightblue" stroke="midnightblue" points="963.384,-102.083 966.884,-112.083 970.384,-102.083 963.384,-102.083"/>
</g>
<!-- Node15&#45;&gt;Node9 -->
<g id="edge17" class="edge"><title>Node15&#45;&gt;Node9</title>
<path fill="none" stroke="midnightblue" d="M678.595,-54.9166C611.529,-44.715 508.989,-29.1174 445.872,-19.5164"/>
<polygon fill="midnightblue" stroke="midnightblue" points="678.221,-58.3998 688.633,-56.4435 679.273,-51.4794 678.221,-58.3998"/>
</g>
<!-- Node15&#45;&gt;Node14 -->
<g id="edge16" class="edge"><title>Node15&#45;&gt;Node14</title>
<path fill="none" stroke="midnightblue" d="M794.826,-77.8036C838.48,-87.9926 900.289,-103.063 936.796,-112.444"/>
<polygon fill="midnightblue" stroke="midnightblue" points="795.508,-74.369 784.976,-75.5164 793.925,-81.1876 795.508,-74.369"/>
</g>
<!-- Node16 -->
<g id="node14" class="node"><title>Node16</title>
<g id="a_node14"><a xlink:href="TitleState_8cpp.html" target="_top" xlink:title="Game/src/TitleState.cpp">
<polygon fill="white" stroke="black" points="683.384,-0.5 683.384,-19.5 806.384,-19.5 806.384,-0.5 683.384,-0.5"/>
<text text-anchor="middle" x="744.884" y="-7.5" font-family="Helvetica,sans-Serif" font-size="10.00">Game/src/TitleState.cpp</text>
</a>
</g>
</g>
<!-- Node15&#45;&gt;Node16 -->
<g id="edge18" class="edge"><title>Node15&#45;&gt;Node16</title>
<path fill="none" stroke="midnightblue" d="M744.884,-45.8045C744.884,-36.9102 744.884,-26.7798 744.884,-19.7511"/>
<polygon fill="midnightblue" stroke="midnightblue" points="741.384,-46.083 744.884,-56.083 748.384,-46.083 741.384,-46.083"/>
</g>
<!-- Node18&#45;&gt;Node14 -->
<g id="edge23" class="edge"><title>Node18&#45;&gt;Node14</title>
<path fill="none" stroke="midnightblue" d="M934.305,-160.431C942.542,-150.967 952.538,-139.483 959.267,-131.751"/>
<polygon fill="midnightblue" stroke="midnightblue" points="931.57,-158.242 927.645,-168.083 936.85,-162.838 931.57,-158.242"/>
</g>
<!-- Node19 -->
<g id="node17" class="node"><title>Node19</title>
<g id="a_node17"><a xlink:href="Text_8cpp.html" target="_top" xlink:title="Engine/src/Text.cpp">
<polygon fill="white" stroke="black" points="1048.88,-112.5 1048.88,-131.5 1152.88,-131.5 1152.88,-112.5 1048.88,-112.5"/>
<text text-anchor="middle" x="1100.88" y="-119.5" font-family="Helvetica,sans-Serif" font-size="10.00">Engine/src/Text.cpp</text>
</a>
</g>
</g>
<!-- Node18&#45;&gt;Node19 -->
<g id="edge22" class="edge"><title>Node18&#45;&gt;Node19</title>
<path fill="none" stroke="midnightblue" d="M958.203,-165.568C992.348,-155.381 1041.54,-140.703 1072.34,-131.516"/>
<polygon fill="midnightblue" stroke="midnightblue" points="957.146,-162.231 948.564,-168.444 959.147,-168.938 957.146,-162.231"/>
</g>
<!-- Node36&#45;&gt;Node6 -->
<g id="edge44" class="edge"><title>Node36&#45;&gt;Node6</title>
<path fill="none" stroke="midnightblue" d="M403.981,-165.436C370.609,-155.255 322.783,-140.664 292.799,-131.516"/>
<polygon fill="midnightblue" stroke="midnightblue" points="403.252,-168.873 413.838,-168.444 405.294,-162.178 403.252,-168.873"/>
</g>
<!-- Node36&#45;&gt;Node7 -->
<g id="edge45" class="edge"><title>Node36&#45;&gt;Node7</title>
<path fill="none" stroke="midnightblue" d="M408.06,-163.964C394.246,-156.764 379.703,-146.321 371.884,-132 362.038,-113.965 367.202,-88.7203 371.011,-75.6328"/>
<polygon fill="midnightblue" stroke="midnightblue" points="406.883,-167.281 417.415,-168.438 409.903,-160.966 406.883,-167.281"/>
</g>
<!-- Node36&#45;&gt;Node37 -->
<g id="edge41" class="edge"><title>Node36&#45;&gt;Node37</title>
<path fill="none" stroke="midnightblue" d="M483.532,-165.699C521.089,-155.507 575.498,-140.743 609.499,-131.516"/>
<polygon fill="midnightblue" stroke="midnightblue" points="482.15,-162.447 473.416,-168.444 483.984,-169.202 482.15,-162.447"/>
</g>
<!-- Node38 -->
<g id="node36" class="node"><title>Node38</title>
<g id="a_node36"><a xlink:href="WaveData_8cpp.html" target="_top" xlink:title="Game/src/WaveData.cpp">
<polygon fill="white" stroke="black" points="380.884,-112.5 380.884,-131.5 508.884,-131.5 508.884,-112.5 380.884,-112.5"/>
<text text-anchor="middle" x="444.884" y="-119.5" font-family="Helvetica,sans-Serif" font-size="10.00">Game/src/WaveData.cpp</text>
</a>
</g>
</g>
<!-- Node36&#45;&gt;Node38 -->
<g id="edge46" class="edge"><title>Node36&#45;&gt;Node38</title>
<path fill="none" stroke="midnightblue" d="M442.95,-157.805C443.445,-148.91 444.007,-138.78 444.398,-131.751"/>
<polygon fill="midnightblue" stroke="midnightblue" points="439.44,-157.904 442.379,-168.083 446.429,-158.293 439.44,-157.904"/>
</g>
<!-- Node37&#45;&gt;Node10 -->
<g id="edge43" class="edge"><title>Node37&#45;&gt;Node10</title>
<path fill="none" stroke="midnightblue" d="M628.719,-104.272C611.425,-80.4942 580.367,-37.7889 567.132,-19.5914"/>
<polygon fill="midnightblue" stroke="midnightblue" points="625.894,-106.34 634.607,-112.368 631.555,-102.222 625.894,-106.34"/>
</g>
<!-- Node37&#45;&gt;Node15 -->
<g id="edge42" class="edge"><title>Node37&#45;&gt;Node15</title>
<path fill="none" stroke="midnightblue" d="M666.712,-107.59C685.941,-97.6052 711.629,-84.2672 728.216,-75.6545"/>
<polygon fill="midnightblue" stroke="midnightblue" points="664.855,-104.61 657.593,-112.324 668.081,-110.822 664.855,-104.61"/>
</g>
</g>
</svg>
