<?xml version="1.0" encoding="UTF-8" standalone="no"?>
<!DOCTYPE svg PUBLIC "-//W3C//DTD SVG 1.1//EN"
 "http://www.w3.org/Graphics/SVG/1.1/DTD/svg11.dtd">
<!-- Generated by graphviz version 2.36.0 (20140111.2315)
 -->
<!-- Title: Game/src/Face.cpp Pages: 1 -->
<svg width="950pt" height="420pt"
 viewBox="0.00 0.00 950.00 420.00" xmlns="http://www.w3.org/2000/svg" xmlns:xlink="http://www.w3.org/1999/xlink">
<g id="graph0" class="graph" transform="scale(1 1) rotate(0) translate(4 416)">
<title>Game/src/Face.cpp</title>
<polygon fill="white" stroke="none" points="-4,4 -4,-416 946,-416 946,4 -4,4"/>
<!-- Node1 -->
<g id="node1" class="node"><title>Node1</title>
<polygon fill="#bfbfbf" stroke="black" points="369.5,-392.5 369.5,-411.5 472.5,-411.5 472.5,-392.5 369.5,-392.5"/>
<text text-anchor="middle" x="421" y="-399.5" font-family="Helvetica,sans-Serif" font-size="10.00">Game/src/Face.cpp</text>
</g>
<!-- Node2 -->
<g id="node2" class="node"><title>Node2</title>
<polygon fill="white" stroke="#bfbfbf" points="310.5,-336.5 310.5,-355.5 357.5,-355.5 357.5,-336.5 310.5,-336.5"/>
<text text-anchor="middle" x="334" y="-343.5" font-family="Helvetica,sans-Serif" font-size="10.00">Face.h</text>
</g>
<!-- Node1&#45;&gt;Node2 -->
<g id="edge1" class="edge"><title>Node1&#45;&gt;Node2</title>
<path fill="none" stroke="midnightblue" d="M407.022,-392.324C393.45,-383.9 372.62,-370.971 356.675,-361.074"/>
<polygon fill="midnightblue" stroke="midnightblue" points="358.286,-357.954 347.943,-355.655 354.594,-363.902 358.286,-357.954"/>
</g>
<!-- Node3 -->
<g id="node3" class="node"><title>Node3</title>
<g id="a_node3"><a xlink:href="Camera_8h.html" target="_top" xlink:title="Camera.h">
<polygon fill="white" stroke="black" points="68.5,-224.5 68.5,-243.5 127.5,-243.5 127.5,-224.5 68.5,-224.5"/>
<text text-anchor="middle" x="98" y="-231.5" font-family="Helvetica,sans-Serif" font-size="10.00">Camera.h</text>
</a>
</g>
</g>
<!-- Node1&#45;&gt;Node3 -->
<g id="edge2" class="edge"><title>Node1&#45;&gt;Node3</title>
<path fill="none" stroke="midnightblue" d="M415.669,-392.189C406.914,-378.4 388.224,-351.681 366,-336 293.864,-285.101 192.87,-256.221 137.75,-243.301"/>
<polygon fill="midnightblue" stroke="midnightblue" points="138.213,-239.816 127.684,-241 136.653,-246.64 138.213,-239.816"/>
</g>
<!-- Node18 -->
<g id="node18" class="node"><title>Node18</title>
<g id="a_node18"><a xlink:href="DragAndDrop_8h.html" target="_top" xlink:title="DragAndDrop.h">
<polygon fill="white" stroke="black" points="414,-336.5 414,-355.5 498,-355.5 498,-336.5 414,-336.5"/>
<text text-anchor="middle" x="456" y="-343.5" font-family="Helvetica,sans-Serif" font-size="10.00">DragAndDrop.h</text>
</a>
</g>
</g>
<!-- Node1&#45;&gt;Node18 -->
<g id="edge24" class="edge"><title>Node1&#45;&gt;Node18</title>
<path fill="none" stroke="midnightblue" d="M426.78,-392.083C431.672,-384.534 438.827,-373.495 444.833,-364.23"/>
<polygon fill="midnightblue" stroke="midnightblue" points="447.826,-366.046 450.328,-355.751 441.952,-362.239 447.826,-366.046"/>
</g>
<!-- Node30 -->
<g id="node30" class="node"><title>Node30</title>
<g id="a_node30"><a xlink:href="Error_8h.html" target="_top" xlink:title="Error.h">
<polygon fill="white" stroke="black" points="823,-336.5 823,-355.5 869,-355.5 869,-336.5 823,-336.5"/>
<text text-anchor="middle" x="846" y="-343.5" font-family="Helvetica,sans-Serif" font-size="10.00">Error.h</text>
</a>
</g>
</g>
<!-- Node1&#45;&gt;Node30 -->
<g id="edge52" class="edge"><title>Node1&#45;&gt;Node30</title>
<path fill="none" stroke="midnightblue" d="M472.688,-394.433C561.034,-383.207 738.683,-360.636 812.573,-351.247"/>
<polygon fill="midnightblue" stroke="midnightblue" points="813.219,-354.693 822.699,-349.961 812.337,-347.749 813.219,-354.693"/>
</g>
<!-- Node4 -->
<g id="node4" class="node"><title>Node4</title>
<g id="a_node4"><a xlink:href="GameObject_8h.html" target="_top" xlink:title="GameObject.h">
<polygon fill="white" stroke="black" points="514,-168.5 514,-187.5 594,-187.5 594,-168.5 514,-168.5"/>
<text text-anchor="middle" x="554" y="-175.5" font-family="Helvetica,sans-Serif" font-size="10.00">GameObject.h</text>
</a>
</g>
</g>
<!-- Node3&#45;&gt;Node4 -->
<g id="edge3" class="edge"><title>Node3&#45;&gt;Node4</title>
<path fill="none" stroke="midnightblue" d="M127.772,-229.948C193.668,-223.118 356.809,-205.8 493,-188 496.609,-187.528 500.335,-187.023 504.084,-186.502"/>
<polygon fill="midnightblue" stroke="midnightblue" points="504.586,-189.966 513.995,-185.095 503.603,-183.035 504.586,-189.966"/>
</g>
<!-- Node12 -->
<g id="node12" class="node"><title>Node12</title>
<g id="a_node12"><a xlink:href="Vec2_8h.html" target="_top" xlink:title="Vec2.h">
<polygon fill="white" stroke="black" points="130.5,-56.5 130.5,-75.5 177.5,-75.5 177.5,-56.5 130.5,-56.5"/>
<text text-anchor="middle" x="154" y="-63.5" font-family="Helvetica,sans-Serif" font-size="10.00">Vec2.h</text>
</a>
</g>
</g>
<!-- Node3&#45;&gt;Node12 -->
<g id="edge17" class="edge"><title>Node3&#45;&gt;Node12</title>
<path fill="none" stroke="midnightblue" d="M101.011,-224.075C109.864,-197.832 135.937,-120.545 147.888,-85.1165"/>
<polygon fill="midnightblue" stroke="midnightblue" points="151.229,-86.1623 151.11,-75.5681 144.597,-83.9247 151.229,-86.1623"/>
</g>
<!-- Node14 -->
<g id="node14" class="node"><title>Node14</title>
<g id="a_node14"><a xlink:href="ActionManager_8h.html" target="_top" xlink:title="ActionManager.h">
<polygon fill="white" stroke="black" points="0,-168.5 0,-187.5 90,-187.5 90,-168.5 0,-168.5"/>
<text text-anchor="middle" x="45" y="-175.5" font-family="Helvetica,sans-Serif" font-size="10.00">ActionManager.h</text>
</a>
</g>
</g>
<!-- Node3&#45;&gt;Node14 -->
<g id="edge18" class="edge"><title>Node3&#45;&gt;Node14</title>
<path fill="none" stroke="midnightblue" d="M89.2481,-224.083C81.5303,-216.22 70.0953,-204.569 60.7835,-195.081"/>
<polygon fill="midnightblue" stroke="midnightblue" points="63.0916,-192.436 53.589,-187.751 58.0958,-197.34 63.0916,-192.436"/>
</g>
<!-- Node5 -->
<g id="node5" class="node"><title>Node5</title>
<g id="a_node5"><a xlink:href="SDL__include_8h.html" target="_top" xlink:title="SDL_include.h">
<polygon fill="white" stroke="black" points="348,-0.5 348,-19.5 428,-19.5 428,-0.5 348,-0.5"/>
<text text-anchor="middle" x="388" y="-7.5" font-family="Helvetica,sans-Serif" font-size="10.00">SDL_include.h</text>
</a>
</g>
</g>
<!-- Node4&#45;&gt;Node5 -->
<g id="edge4" class="edge"><title>Node4&#45;&gt;Node5</title>
<path fill="none" stroke="midnightblue" d="M546.076,-168.487C534.384,-155.973 511.76,-131.938 492,-112 461.501,-81.2253 424.992,-46.1681 404.347,-26.5041"/>
<polygon fill="midnightblue" stroke="midnightblue" points="406.675,-23.8873 397.016,-19.533 401.851,-28.9602 406.675,-23.8873"/>
</g>
<!-- Node6 -->
<g id="node6" class="node"><title>Node6</title>
<polygon fill="white" stroke="#bfbfbf" points="271,-112.5 271,-131.5 315,-131.5 315,-112.5 271,-112.5"/>
<text text-anchor="middle" x="293" y="-119.5" font-family="Helvetica,sans-Serif" font-size="10.00">vector</text>
</g>
<!-- Node4&#45;&gt;Node6 -->
<g id="edge5" class="edge"><title>Node4&#45;&gt;Node6</title>
<path fill="none" stroke="midnightblue" d="M513.876,-170.271C469.862,-162.642 396.957,-149.281 325.376,-132.168"/>
<polygon fill="midnightblue" stroke="midnightblue" points="325.83,-128.677 315.287,-129.729 324.184,-135.481 325.83,-128.677"/>
</g>
<!-- Node7 -->
<g id="node7" class="node"><title>Node7</title>
<polygon fill="white" stroke="#bfbfbf" points="577,-112.5 577,-131.5 629,-131.5 629,-112.5 577,-112.5"/>
<text text-anchor="middle" x="603" y="-119.5" font-family="Helvetica,sans-Serif" font-size="10.00">memory</text>
</g>
<!-- Node4&#45;&gt;Node7 -->
<g id="edge6" class="edge"><title>Node4&#45;&gt;Node7</title>
<path fill="none" stroke="midnightblue" d="M562.091,-168.083C569.155,-160.298 579.588,-148.801 588.149,-139.367"/>
<polygon fill="midnightblue" stroke="midnightblue" points="590.931,-141.509 595.059,-131.751 585.747,-136.805 590.931,-141.509"/>
</g>
<!-- Node8 -->
<g id="node8" class="node"><title>Node8</title>
<polygon fill="white" stroke="#bfbfbf" points="647.5,-112.5 647.5,-131.5 688.5,-131.5 688.5,-112.5 647.5,-112.5"/>
<text text-anchor="middle" x="668" y="-119.5" font-family="Helvetica,sans-Serif" font-size="10.00">string</text>
</g>
<!-- Node4&#45;&gt;Node8 -->
<g id="edge7" class="edge"><title>Node4&#45;&gt;Node8</title>
<path fill="none" stroke="midnightblue" d="M572.064,-168.444C590.575,-159.675 619.581,-145.935 640.855,-135.858"/>
<polygon fill="midnightblue" stroke="midnightblue" points="642.482,-138.96 650.021,-131.516 639.485,-132.634 642.482,-138.96"/>
</g>
<!-- Node9 -->
<g id="node9" class="node"><title>Node9</title>
<g id="a_node9"><a xlink:href="Component_8h.html" target="_top" xlink:title="Component.h">
<polygon fill="white" stroke="black" points="745.5,-112.5 745.5,-131.5 820.5,-131.5 820.5,-112.5 745.5,-112.5"/>
<text text-anchor="middle" x="783" y="-119.5" font-family="Helvetica,sans-Serif" font-size="10.00">Component.h</text>
</a>
</g>
</g>
<!-- Node4&#45;&gt;Node9 -->
<g id="edge8" class="edge"><title>Node4&#45;&gt;Node9</title>
<path fill="none" stroke="midnightblue" d="M585.197,-168.444C624,-158.794 690.356,-143.125 735.473,-132.941"/>
<polygon fill="midnightblue" stroke="midnightblue" points="736.334,-136.335 745.324,-130.729 734.801,-129.505 736.334,-136.335"/>
</g>
<!-- Node10 -->
<g id="node10" class="node"><title>Node10</title>
<g id="a_node10"><a xlink:href="ComponentType_8h.html" target="_top" xlink:title="ComponentType.h">
<polygon fill="white" stroke="black" points="631.5,-56.5 631.5,-75.5 728.5,-75.5 728.5,-56.5 631.5,-56.5"/>
<text text-anchor="middle" x="680" y="-63.5" font-family="Helvetica,sans-Serif" font-size="10.00">ComponentType.h</text>
</a>
</g>
</g>
<!-- Node4&#45;&gt;Node10 -->
<g id="edge11" class="edge"><title>Node4&#45;&gt;Node10</title>
<path fill="none" stroke="midnightblue" d="M553.451,-168.321C553.067,-154.714 554.31,-128.239 568,-112 581.755,-95.6845 602.29,-85.2286 622.034,-78.5522"/>
<polygon fill="midnightblue" stroke="midnightblue" points="623.119,-81.88 631.629,-75.5692 621.041,-75.1956 623.119,-81.88"/>
</g>
<!-- Node11 -->
<g id="node11" class="node"><title>Node11</title>
<g id="a_node11"><a xlink:href="Rect_8h.html" target="_top" xlink:title="Rect.h">
<polygon fill="white" stroke="black" points="333,-112.5 333,-131.5 379,-131.5 379,-112.5 333,-112.5"/>
<text text-anchor="middle" x="356" y="-119.5" font-family="Helvetica,sans-Serif" font-size="10.00">Rect.h</text>
</a>
</g>
</g>
<!-- Node4&#45;&gt;Node11 -->
<g id="edge12" class="edge"><title>Node4&#45;&gt;Node11</title>
<path fill="none" stroke="midnightblue" d="M522.626,-168.444C486.146,-158.494 426.198,-142.145 389.026,-132.007"/>
<polygon fill="midnightblue" stroke="midnightblue" points="389.753,-128.578 379.184,-129.323 387.911,-135.331 389.753,-128.578"/>
</g>
<!-- Node9&#45;&gt;Node4 -->
<g id="edge10" class="edge"><title>Node9&#45;&gt;Node4</title>
<path fill="none" stroke="midnightblue" d="M751.922,-131.527C713.817,-141.004 649.015,-156.316 603.924,-166.517"/>
<polygon fill="midnightblue" stroke="midnightblue" points="603.039,-163.129 594.052,-168.74 604.577,-169.958 603.039,-163.129"/>
</g>
<!-- Node9&#45;&gt;Node10 -->
<g id="edge9" class="edge"><title>Node9&#45;&gt;Node10</title>
<path fill="none" stroke="midnightblue" d="M766.451,-112.324C750.008,-103.703 724.565,-90.3643 705.532,-80.3855"/>
<polygon fill="midnightblue" stroke="midnightblue" points="706.989,-77.198 696.508,-75.6545 703.739,-83.3977 706.989,-77.198"/>
</g>
<!-- Node11&#45;&gt;Node5 -->
<g id="edge13" class="edge"><title>Node11&#45;&gt;Node5</title>
<path fill="none" stroke="midnightblue" d="M358.511,-112.368C363.698,-94.5366 375.696,-53.2953 382.685,-29.2717"/>
<polygon fill="midnightblue" stroke="midnightblue" points="386.068,-30.1711 385.501,-19.5914 379.347,-28.2157 386.068,-30.1711"/>
</g>
<!-- Node11&#45;&gt;Node12 -->
<g id="edge14" class="edge"><title>Node11&#45;&gt;Node12</title>
<path fill="none" stroke="midnightblue" d="M332.928,-114.678C329.598,-113.775 326.212,-112.86 323,-112 265.155,-96.5125 248.365,-92.8663 187.488,-76.3743"/>
<polygon fill="midnightblue" stroke="midnightblue" points="188.321,-72.9737 177.753,-73.7296 186.486,-79.7289 188.321,-72.9737"/>
</g>
<!-- Node13 -->
<g id="node13" class="node"><title>Node13</title>
<polygon fill="white" stroke="#bfbfbf" points="297,-56.5 297,-75.5 341,-75.5 341,-56.5 297,-56.5"/>
<text text-anchor="middle" x="319" y="-63.5" font-family="Helvetica,sans-Serif" font-size="10.00">cmath</text>
</g>
<!-- Node11&#45;&gt;Node13 -->
<g id="edge16" class="edge"><title>Node11&#45;&gt;Node13</title>
<path fill="none" stroke="midnightblue" d="M349.89,-112.083C344.718,-104.534 337.154,-93.4948 330.806,-84.2298"/>
<polygon fill="midnightblue" stroke="midnightblue" points="333.536,-82.0221 324.996,-75.7511 327.761,-85.9787 333.536,-82.0221"/>
</g>
<!-- Node12&#45;&gt;Node5 -->
<g id="edge15" class="edge"><title>Node12&#45;&gt;Node5</title>
<path fill="none" stroke="midnightblue" d="M177.727,-58.1702C180.51,-57.4156 183.314,-56.6764 186,-56 237.552,-43.0188 296.991,-30.0108 337.979,-21.3434"/>
<polygon fill="midnightblue" stroke="midnightblue" points="338.922,-24.7216 347.987,-19.236 337.48,-17.8719 338.922,-24.7216"/>
</g>
<!-- Node15 -->
<g id="node15" class="node"><title>Node15</title>
<g id="a_node15"><a xlink:href="InputManager_8h.html" target="_top" xlink:title="InputManager.h">
<polygon fill="white" stroke="black" points="6,-112.5 6,-131.5 90,-131.5 90,-112.5 6,-112.5"/>
<text text-anchor="middle" x="48" y="-119.5" font-family="Helvetica,sans-Serif" font-size="10.00">InputManager.h</text>
</a>
</g>
</g>
<!-- Node14&#45;&gt;Node15 -->
<g id="edge19" class="edge"><title>Node14&#45;&gt;Node15</title>
<path fill="none" stroke="midnightblue" d="M45.4954,-168.083C45.8886,-161.006 46.4522,-150.861 46.9452,-141.986"/>
<polygon fill="midnightblue" stroke="midnightblue" points="50.4536,-141.93 47.5138,-131.751 43.4644,-141.542 50.4536,-141.93"/>
</g>
<!-- Node15&#45;&gt;Node5 -->
<g id="edge20" class="edge"><title>Node15&#45;&gt;Node5</title>
<path fill="none" stroke="midnightblue" d="M55.0058,-112.14C66.9003,-97.778 92.541,-69.6502 121,-56 191.08,-22.3864 282.014,-13.4212 337.63,-11.2869"/>
<polygon fill="midnightblue" stroke="midnightblue" points="338.046,-14.7754 347.928,-10.9546 337.821,-7.77903 338.046,-14.7754"/>
</g>
<!-- Node15&#45;&gt;Node12 -->
<g id="edge21" class="edge"><title>Node15&#45;&gt;Node12</title>
<path fill="none" stroke="midnightblue" d="M65.0307,-112.324C82.0298,-103.664 108.376,-90.2424 127.993,-80.249"/>
<polygon fill="midnightblue" stroke="midnightblue" points="129.69,-83.3125 137.012,-75.6545 126.512,-77.0752 129.69,-83.3125"/>
</g>
<!-- Node16 -->
<g id="node16" class="node"><title>Node16</title>
<polygon fill="white" stroke="#bfbfbf" points="195.5,-56.5 195.5,-75.5 278.5,-75.5 278.5,-56.5 195.5,-56.5"/>
<text text-anchor="middle" x="237" y="-63.5" font-family="Helvetica,sans-Serif" font-size="10.00">unordered_map</text>
</g>
<!-- Node15&#45;&gt;Node16 -->
<g id="edge22" class="edge"><title>Node15&#45;&gt;Node16</title>
<path fill="none" stroke="midnightblue" d="M77.9476,-112.444C110.158,-103.241 161.534,-88.5617 197.142,-78.3879"/>
<polygon fill="midnightblue" stroke="midnightblue" points="198.539,-81.629 207.192,-75.5164 196.616,-74.8984 198.539,-81.629"/>
</g>
<!-- Node17 -->
<g id="node17" class="node"><title>Node17</title>
<polygon fill="white" stroke="#bfbfbf" points="25,-56.5 25,-75.5 71,-75.5 71,-56.5 25,-56.5"/>
<text text-anchor="middle" x="48" y="-63.5" font-family="Helvetica,sans-Serif" font-size="10.00">cstdint</text>
</g>
<!-- Node15&#45;&gt;Node17 -->
<g id="edge23" class="edge"><title>Node15&#45;&gt;Node17</title>
<path fill="none" stroke="midnightblue" d="M48,-112.083C48,-105.006 48,-94.8611 48,-85.9865"/>
<polygon fill="midnightblue" stroke="midnightblue" points="51.5001,-85.751 48,-75.7511 44.5001,-85.7511 51.5001,-85.751"/>
</g>
<!-- Node18&#45;&gt;Node9 -->
<g id="edge25" class="edge"><title>Node18&#45;&gt;Node9</title>
<path fill="none" stroke="midnightblue" d="M492.009,-336.492C545.051,-322.839 645.904,-292.535 720,-244 749.182,-224.885 759.844,-219.421 775,-188 781.946,-173.599 783.675,-155.406 783.823,-141.932"/>
<polygon fill="midnightblue" stroke="midnightblue" points="787.322,-141.851 783.654,-131.911 780.323,-141.968 787.322,-141.851"/>
</g>
<!-- Node19 -->
<g id="node19" class="node"><title>Node19</title>
<g id="a_node19"><a xlink:href="TileMap_8h.html" target="_top" xlink:title="TileMap.h">
<polygon fill="white" stroke="black" points="420.5,-280.5 420.5,-299.5 479.5,-299.5 479.5,-280.5 420.5,-280.5"/>
<text text-anchor="middle" x="450" y="-287.5" font-family="Helvetica,sans-Serif" font-size="10.00">TileMap.h</text>
</a>
</g>
</g>
<!-- Node18&#45;&gt;Node19 -->
<g id="edge26" class="edge"><title>Node18&#45;&gt;Node19</title>
<path fill="none" stroke="midnightblue" d="M455.009,-336.083C454.214,-328.927 453.071,-318.635 452.077,-309.691"/>
<polygon fill="midnightblue" stroke="midnightblue" points="455.555,-309.303 450.972,-299.751 448.598,-310.076 455.555,-309.303"/>
</g>
<!-- Node19&#45;&gt;Node4 -->
<g id="edge44" class="edge"><title>Node19&#45;&gt;Node4</title>
<path fill="none" stroke="midnightblue" d="M479.53,-284.88C503.774,-279.78 536.676,-268.532 553,-244 561.979,-230.507 561.199,-211.697 558.783,-197.782"/>
<polygon fill="midnightblue" stroke="midnightblue" points="562.175,-196.907 556.65,-187.867 555.331,-198.38 562.175,-196.907"/>
</g>
<!-- Node19&#45;&gt;Node6 -->
<g id="edge28" class="edge"><title>Node19&#45;&gt;Node6</title>
<path fill="none" stroke="midnightblue" d="M420.241,-283.104C367.152,-272.446 261.149,-250.48 256,-244 238.929,-222.516 271.401,-213.311 282,-188 288.154,-173.303 290.868,-155.368 292.063,-142.063"/>
<polygon fill="midnightblue" stroke="midnightblue" points="295.577,-141.977 292.771,-131.76 288.594,-141.497 295.577,-141.977"/>
</g>
<!-- Node19&#45;&gt;Node8 -->
<g id="edge27" class="edge"><title>Node19&#45;&gt;Node8</title>
<path fill="none" stroke="midnightblue" d="M479.875,-287.141C533.039,-283.152 640.69,-271.771 664,-244 688.239,-215.123 680.474,-167.307 673.654,-141.27"/>
<polygon fill="midnightblue" stroke="midnightblue" points="676.994,-140.22 670.885,-131.564 670.263,-142.14 676.994,-140.22"/>
</g>
<!-- Node19&#45;&gt;Node12 -->
<g id="edge43" class="edge"><title>Node19&#45;&gt;Node12</title>
<path fill="none" stroke="midnightblue" d="M420.142,-286.196C364.331,-280.497 246.781,-266.186 213,-244 160.002,-209.193 153.557,-124.126 153.459,-86.0135"/>
<polygon fill="midnightblue" stroke="midnightblue" points="156.961,-85.8437 153.588,-75.8004 149.962,-85.7554 156.961,-85.8437"/>
</g>
<!-- Node20 -->
<g id="node20" class="node"><title>Node20</title>
<polygon fill="white" stroke="#bfbfbf" points="265.5,-224.5 265.5,-243.5 294.5,-243.5 294.5,-224.5 265.5,-224.5"/>
<text text-anchor="middle" x="280" y="-231.5" font-family="Helvetica,sans-Serif" font-size="10.00">list</text>
</g>
<!-- Node19&#45;&gt;Node20 -->
<g id="edge29" class="edge"><title>Node19&#45;&gt;Node20</title>
<path fill="none" stroke="midnightblue" d="M420.222,-280.605C392.355,-272.591 349.392,-259.835 304.209,-244.249"/>
<polygon fill="midnightblue" stroke="midnightblue" points="305.133,-240.865 294.539,-240.881 302.831,-247.476 305.133,-240.865"/>
</g>
<!-- Node21 -->
<g id="node21" class="node"><title>Node21</title>
<polygon fill="white" stroke="#bfbfbf" points="312.5,-224.5 312.5,-243.5 355.5,-243.5 355.5,-224.5 312.5,-224.5"/>
<text text-anchor="middle" x="334" y="-231.5" font-family="Helvetica,sans-Serif" font-size="10.00">queue</text>
</g>
<!-- Node19&#45;&gt;Node21 -->
<g id="edge30" class="edge"><title>Node19&#45;&gt;Node21</title>
<path fill="none" stroke="midnightblue" d="M431.619,-280.444C412.784,-271.675 383.269,-257.935 361.621,-247.858"/>
<polygon fill="midnightblue" stroke="midnightblue" points="362.838,-244.564 352.295,-243.516 359.883,-250.91 362.838,-244.564"/>
</g>
<!-- Node22 -->
<g id="node22" class="node"><title>Node22</title>
<polygon fill="white" stroke="#bfbfbf" points="374,-224.5 374,-243.5 414,-243.5 414,-224.5 374,-224.5"/>
<text text-anchor="middle" x="394" y="-231.5" font-family="Helvetica,sans-Serif" font-size="10.00">limits</text>
</g>
<!-- Node19&#45;&gt;Node22 -->
<g id="edge31" class="edge"><title>Node19&#45;&gt;Node22</title>
<path fill="none" stroke="midnightblue" d="M441.003,-280.324C432.806,-272.42 420.494,-260.548 410.528,-250.938"/>
<polygon fill="midnightblue" stroke="midnightblue" points="412.789,-248.256 403.161,-243.834 407.93,-253.295 412.789,-248.256"/>
</g>
<!-- Node23 -->
<g id="node23" class="node"><title>Node23</title>
<polygon fill="white" stroke="#bfbfbf" points="432.5,-224.5 432.5,-243.5 467.5,-243.5 467.5,-224.5 432.5,-224.5"/>
<text text-anchor="middle" x="450" y="-231.5" font-family="Helvetica,sans-Serif" font-size="10.00">map</text>
</g>
<!-- Node19&#45;&gt;Node23 -->
<g id="edge32" class="edge"><title>Node19&#45;&gt;Node23</title>
<path fill="none" stroke="midnightblue" d="M450,-280.083C450,-273.006 450,-262.861 450,-253.986"/>
<polygon fill="midnightblue" stroke="midnightblue" points="453.5,-253.751 450,-243.751 446.5,-253.751 453.5,-253.751"/>
</g>
<!-- Node24 -->
<g id="node24" class="node"><title>Node24</title>
<polygon fill="white" stroke="#bfbfbf" points="485.5,-224.5 485.5,-243.5 544.5,-243.5 544.5,-224.5 485.5,-224.5"/>
<text text-anchor="middle" x="515" y="-231.5" font-family="Helvetica,sans-Serif" font-size="10.00">functional</text>
</g>
<!-- Node19&#45;&gt;Node24 -->
<g id="edge33" class="edge"><title>Node19&#45;&gt;Node24</title>
<path fill="none" stroke="midnightblue" d="M460.443,-280.324C470.146,-272.263 484.815,-260.077 496.5,-250.369"/>
<polygon fill="midnightblue" stroke="midnightblue" points="498.911,-252.916 504.367,-243.834 494.438,-247.532 498.911,-252.916"/>
</g>
<!-- Node25 -->
<g id="node25" class="node"><title>Node25</title>
<g id="a_node25"><a xlink:href="Tileset_8h.html" target="_top" xlink:title="Tileset.h">
<polygon fill="white" stroke="black" points="601,-224.5 601,-243.5 655,-243.5 655,-224.5 601,-224.5"/>
<text text-anchor="middle" x="628" y="-231.5" font-family="Helvetica,sans-Serif" font-size="10.00">Tileset.h</text>
</a>
</g>
</g>
<!-- Node19&#45;&gt;Node25 -->
<g id="edge34" class="edge"><title>Node19&#45;&gt;Node25</title>
<path fill="none" stroke="midnightblue" d="M478.205,-280.444C508.677,-271.199 557.362,-256.43 590.913,-246.251"/>
<polygon fill="midnightblue" stroke="midnightblue" points="592.25,-249.503 600.803,-243.251 590.217,-242.805 592.25,-249.503"/>
</g>
<!-- Node28 -->
<g id="node28" class="node"><title>Node28</title>
<g id="a_node28"><a xlink:href="AStarHeuristic_8h.html" target="_top" xlink:title="AStarHeuristic.h">
<polygon fill="white" stroke="black" points="184.5,-168.5 184.5,-187.5 273.5,-187.5 273.5,-168.5 184.5,-168.5"/>
<text text-anchor="middle" x="229" y="-175.5" font-family="Helvetica,sans-Serif" font-size="10.00">AStarHeuristic.h</text>
</a>
</g>
</g>
<!-- Node19&#45;&gt;Node28 -->
<g id="edge45" class="edge"><title>Node19&#45;&gt;Node28</title>
<path fill="none" stroke="midnightblue" d="M420.349,-283.625C359.546,-272.535 226.147,-247.833 223,-244 212.351,-231.033 216.027,-211.322 221.02,-197.006"/>
<polygon fill="midnightblue" stroke="midnightblue" points="224.274,-198.295 224.703,-187.709 217.766,-195.717 224.274,-198.295"/>
</g>
<!-- Node29 -->
<g id="node29" class="node"><title>Node29</title>
<g id="a_node29"><a xlink:href="Resources_8h.html" target="_top" xlink:title="Resources.h">
<polygon fill="white" stroke="black" points="694,-168.5 694,-187.5 766,-187.5 766,-168.5 694,-168.5"/>
<text text-anchor="middle" x="730" y="-175.5" font-family="Helvetica,sans-Serif" font-size="10.00">Resources.h</text>
</a>
</g>
</g>
<!-- Node19&#45;&gt;Node29 -->
<g id="edge47" class="edge"><title>Node19&#45;&gt;Node29</title>
<path fill="none" stroke="midnightblue" d="M479.585,-286.879C537.449,-282.215 662.928,-269.401 697,-244 712.186,-232.679 720.895,-212.377 725.51,-197.466"/>
<polygon fill="midnightblue" stroke="midnightblue" points="728.9,-198.337 728.18,-187.766 722.151,-196.478 728.9,-198.337"/>
</g>
<!-- Node25&#45;&gt;Node8 -->
<g id="edge35" class="edge"><title>Node25&#45;&gt;Node8</title>
<path fill="none" stroke="midnightblue" d="M631.139,-224.368C637.623,-206.537 652.62,-165.295 661.356,-141.272"/>
<polygon fill="midnightblue" stroke="midnightblue" points="664.748,-142.185 664.876,-131.591 658.169,-139.793 664.748,-142.185"/>
</g>
<!-- Node26 -->
<g id="node26" class="node"><title>Node26</title>
<g id="a_node26"><a xlink:href="Sprite_8h.html" target="_top" xlink:title="Sprite.h">
<polygon fill="white" stroke="black" points="434,-168.5 434,-187.5 484,-187.5 484,-168.5 434,-168.5"/>
<text text-anchor="middle" x="459" y="-175.5" font-family="Helvetica,sans-Serif" font-size="10.00">Sprite.h</text>
</a>
</g>
</g>
<!-- Node25&#45;&gt;Node26 -->
<g id="edge36" class="edge"><title>Node25&#45;&gt;Node26</title>
<path fill="none" stroke="midnightblue" d="M601.221,-224.444C572.163,-215.159 525.66,-200.3 493.792,-190.117"/>
<polygon fill="midnightblue" stroke="midnightblue" points="494.591,-186.698 484,-186.988 492.461,-193.366 494.591,-186.698"/>
</g>
<!-- Node26&#45;&gt;Node5 -->
<g id="edge37" class="edge"><title>Node26&#45;&gt;Node5</title>
<path fill="none" stroke="midnightblue" d="M451.233,-168.27C443.863,-159.598 432.912,-145.658 426,-132 408.661,-97.7412 397.312,-54.0102 391.837,-29.608"/>
<polygon fill="midnightblue" stroke="midnightblue" points="395.205,-28.6218 389.678,-19.583 388.362,-30.0958 395.205,-28.6218"/>
</g>
<!-- Node26&#45;&gt;Node7 -->
<g id="edge39" class="edge"><title>Node26&#45;&gt;Node7</title>
<path fill="none" stroke="midnightblue" d="M481.817,-168.444C505.832,-159.438 543.829,-145.189 570.869,-135.049"/>
<polygon fill="midnightblue" stroke="midnightblue" points="572.155,-138.305 580.29,-131.516 569.697,-131.751 572.155,-138.305"/>
</g>
<!-- Node26&#45;&gt;Node8 -->
<g id="edge38" class="edge"><title>Node26&#45;&gt;Node8</title>
<path fill="none" stroke="midnightblue" d="M484.291,-171.023C517.283,-163.143 577.009,-148.599 637.643,-132.001"/>
<polygon fill="midnightblue" stroke="midnightblue" points="638.667,-135.349 647.379,-129.32 636.808,-128.6 638.667,-135.349"/>
</g>
<!-- Node26&#45;&gt;Node11 -->
<g id="edge41" class="edge"><title>Node26&#45;&gt;Node11</title>
<path fill="none" stroke="midnightblue" d="M442.451,-168.324C426.008,-159.703 400.565,-146.364 381.532,-136.386"/>
<polygon fill="midnightblue" stroke="midnightblue" points="382.989,-133.198 372.508,-131.655 379.739,-139.398 382.989,-133.198"/>
</g>
<!-- Node26&#45;&gt;Node15 -->
<g id="edge42" class="edge"><title>Node26&#45;&gt;Node15</title>
<path fill="none" stroke="midnightblue" d="M433.909,-173.703C368.107,-165.058 189.506,-141.592 100.244,-129.864"/>
<polygon fill="midnightblue" stroke="midnightblue" points="100.445,-126.361 90.0744,-128.528 99.5332,-133.301 100.445,-126.361"/>
</g>
<!-- Node27 -->
<g id="node27" class="node"><title>Node27</title>
<g id="a_node27"><a xlink:href="Color_8h.html" target="_top" xlink:title="Color.h">
<polygon fill="white" stroke="black" points="435,-112.5 435,-131.5 483,-131.5 483,-112.5 435,-112.5"/>
<text text-anchor="middle" x="459" y="-119.5" font-family="Helvetica,sans-Serif" font-size="10.00">Color.h</text>
</a>
</g>
</g>
<!-- Node26&#45;&gt;Node27 -->
<g id="edge40" class="edge"><title>Node26&#45;&gt;Node27</title>
<path fill="none" stroke="midnightblue" d="M459,-168.083C459,-161.006 459,-150.861 459,-141.986"/>
<polygon fill="midnightblue" stroke="midnightblue" points="462.5,-141.751 459,-131.751 455.5,-141.751 462.5,-141.751"/>
</g>
<!-- Node28&#45;&gt;Node12 -->
<g id="edge46" class="edge"><title>Node28&#45;&gt;Node12</title>
<path fill="none" stroke="midnightblue" d="M223.115,-168.368C210.738,-150.215 181.819,-107.802 165.584,-83.9902"/>
<polygon fill="midnightblue" stroke="midnightblue" points="168.383,-81.882 159.858,-75.5914 162.599,-85.8254 168.383,-81.882"/>
</g>
<!-- Node29&#45;&gt;Node5 -->
<g id="edge48" class="edge"><title>Node29&#45;&gt;Node5</title>
<path fill="none" stroke="midnightblue" d="M766.204,-169.065C800.794,-159.579 845.42,-141.217 829,-112 805.548,-70.2703 782.168,-71.851 737,-56 635.152,-20.2578 507.652,-12.4168 438.419,-10.9892"/>
<polygon fill="midnightblue" stroke="midnightblue" points="438.287,-7.48655 428.229,-10.8171 438.169,-14.4856 438.287,-7.48655"/>
</g>
<!-- Node29&#45;&gt;Node7 -->
<g id="edge51" class="edge"><title>Node29&#45;&gt;Node7</title>
<path fill="none" stroke="midnightblue" d="M709.876,-168.444C688.976,-159.557 656.065,-145.563 632.284,-135.451"/>
<polygon fill="midnightblue" stroke="midnightblue" points="633.602,-132.208 623.029,-131.516 630.862,-138.65 633.602,-132.208"/>
</g>
<!-- Node29&#45;&gt;Node8 -->
<g id="edge49" class="edge"><title>Node29&#45;&gt;Node8</title>
<path fill="none" stroke="midnightblue" d="M720.039,-168.324C710.873,-160.341 697.063,-148.313 685.972,-138.653"/>
<polygon fill="midnightblue" stroke="midnightblue" points="687.982,-135.762 678.143,-131.834 683.385,-141.041 687.982,-135.762"/>
</g>
<!-- Node29&#45;&gt;Node16 -->
<g id="edge50" class="edge"><title>Node29&#45;&gt;Node16</title>
<path fill="none" stroke="midnightblue" d="M728.424,-168.498C725.269,-154.133 716.712,-125.324 697,-112 623.845,-62.5507 393.941,-86.278 288.783,-75.8253"/>
<polygon fill="midnightblue" stroke="midnightblue" points="289.038,-72.3317 278.703,-74.6635 288.236,-79.2856 289.038,-72.3317"/>
</g>
<!-- Node31 -->
<g id="node31" class="node"><title>Node31</title>
<polygon fill="white" stroke="#bfbfbf" points="888,-280.5 888,-299.5 942,-299.5 942,-280.5 888,-280.5"/>
<text text-anchor="middle" x="915" y="-287.5" font-family="Helvetica,sans-Serif" font-size="10.00">iostream</text>
</g>
<!-- Node30&#45;&gt;Node31 -->
<g id="edge53" class="edge"><title>Node30&#45;&gt;Node31</title>
<path fill="none" stroke="midnightblue" d="M857.086,-336.324C867.486,-328.185 883.261,-315.839 895.722,-306.087"/>
<polygon fill="midnightblue" stroke="midnightblue" points="897.994,-308.753 903.712,-299.834 893.68,-303.241 897.994,-308.753"/>
</g>
<!-- Node32 -->
<g id="node32" class="node"><title>Node32</title>
<polygon fill="white" stroke="#bfbfbf" points="822,-280.5 822,-299.5 870,-299.5 870,-280.5 822,-280.5"/>
<text text-anchor="middle" x="846" y="-287.5" font-family="Helvetica,sans-Serif" font-size="10.00">stdlib.h</text>
</g>
<!-- Node30&#45;&gt;Node32 -->
<g id="edge54" class="edge"><title>Node30&#45;&gt;Node32</title>
<path fill="none" stroke="midnightblue" d="M846,-336.083C846,-329.006 846,-318.861 846,-309.986"/>
<polygon fill="midnightblue" stroke="midnightblue" points="849.5,-309.751 846,-299.751 842.5,-309.751 849.5,-309.751"/>
</g>
</g>
</svg>
