<?xml version="1.0" encoding="UTF-8" standalone="no"?>
<!DOCTYPE svg PUBLIC "-//W3C//DTD SVG 1.1//EN"
 "http://www.w3.org/Graphics/SVG/1.1/DTD/svg11.dtd">
<!-- Generated by graphviz version 2.36.0 (20140111.2315)
 -->
<!-- Title: Game/src/GameResources.cpp Pages: 1 -->
<svg width="779pt" height="476pt"
 viewBox="0.00 0.00 778.77 476.00" xmlns="http://www.w3.org/2000/svg" xmlns:xlink="http://www.w3.org/1999/xlink">
<g id="graph0" class="graph" transform="scale(1 1) rotate(0) translate(4 472)">
<title>Game/src/GameResources.cpp</title>
<polygon fill="white" stroke="none" points="-4,4 -4,-472 774.772,-472 774.772,4 -4,4"/>
<!-- Node1 -->
<g id="node1" class="node"><title>Node1</title>
<polygon fill="#bfbfbf" stroke="black" points="287.272,-448.5 287.272,-467.5 442.272,-467.5 442.272,-448.5 287.272,-448.5"/>
<text text-anchor="middle" x="364.772" y="-455.5" font-family="Helvetica,sans-Serif" font-size="10.00">Game/src/GameResources.cpp</text>
</g>
<!-- Node2 -->
<g id="node2" class="node"><title>Node2</title>
<polygon fill="white" stroke="#bfbfbf" points="142.772,-392.5 142.772,-411.5 192.772,-411.5 192.772,-392.5 142.772,-392.5"/>
<text text-anchor="middle" x="167.772" y="-399.5" font-family="Helvetica,sans-Serif" font-size="10.00">fstream</text>
</g>
<!-- Node1&#45;&gt;Node2 -->
<g id="edge1" class="edge"><title>Node1&#45;&gt;Node2</title>
<path fill="none" stroke="midnightblue" d="M333.557,-448.444C297.955,-438.685 239.889,-422.768 202.778,-412.596"/>
<polygon fill="midnightblue" stroke="midnightblue" points="203.472,-409.157 192.902,-409.889 201.621,-415.908 203.472,-409.157"/>
</g>
<!-- Node3 -->
<g id="node3" class="node"><title>Node3</title>
<polygon fill="white" stroke="#bfbfbf" points="211.272,-392.5 211.272,-411.5 260.272,-411.5 260.272,-392.5 211.272,-392.5"/>
<text text-anchor="middle" x="235.772" y="-399.5" font-family="Helvetica,sans-Serif" font-size="10.00">string.h</text>
</g>
<!-- Node1&#45;&gt;Node3 -->
<g id="edge2" class="edge"><title>Node1&#45;&gt;Node3</title>
<path fill="none" stroke="midnightblue" d="M344.331,-448.444C323.101,-439.557 289.673,-425.563 265.517,-415.451"/>
<polygon fill="midnightblue" stroke="midnightblue" points="266.692,-412.149 256.117,-411.516 263.989,-418.606 266.692,-412.149"/>
</g>
<!-- Node4 -->
<g id="node4" class="node"><title>Node4</title>
<g id="a_node4"><a xlink:href="GameResources_8h.html" target="_top" xlink:title="GameResources.h">
<polygon fill="white" stroke="black" points="426.772,-392.5 426.772,-411.5 524.772,-411.5 524.772,-392.5 426.772,-392.5"/>
<text text-anchor="middle" x="475.772" y="-399.5" font-family="Helvetica,sans-Serif" font-size="10.00">GameResources.h</text>
</a>
</g>
</g>
<!-- Node1&#45;&gt;Node4 -->
<g id="edge3" class="edge"><title>Node1&#45;&gt;Node4</title>
<path fill="none" stroke="midnightblue" d="M382.606,-448.324C400.488,-439.625 428.247,-426.12 448.817,-416.113"/>
<polygon fill="midnightblue" stroke="midnightblue" points="450.521,-419.177 457.982,-411.655 447.458,-412.882 450.521,-419.177"/>
</g>
<!-- Node7 -->
<g id="node7" class="node"><title>Node7</title>
<polygon fill="white" stroke="#bfbfbf" points="341.772,-168.5 341.772,-187.5 385.772,-187.5 385.772,-168.5 341.772,-168.5"/>
<text text-anchor="middle" x="363.772" y="-175.5" font-family="Helvetica,sans-Serif" font-size="10.00">vector</text>
</g>
<!-- Node1&#45;&gt;Node7 -->
<g id="edge54" class="edge"><title>Node1&#45;&gt;Node7</title>
<path fill="none" stroke="midnightblue" d="M353.229,-448.433C331.968,-431.571 288.772,-391.799 288.772,-347 288.772,-347 288.772,-347 288.772,-289 288.772,-249.444 322.289,-213.616 344.511,-194.209"/>
<polygon fill="midnightblue" stroke="midnightblue" points="346.973,-196.712 352.381,-187.602 342.472,-191.351 346.973,-196.712"/>
</g>
<!-- Node13 -->
<g id="node13" class="node"><title>Node13</title>
<g id="a_node13"><a xlink:href="Error_8h.html" target="_top" xlink:title="Error.h">
<polygon fill="white" stroke="black" points="609.772,-224.5 609.772,-243.5 655.772,-243.5 655.772,-224.5 609.772,-224.5"/>
<text text-anchor="middle" x="632.772" y="-231.5" font-family="Helvetica,sans-Serif" font-size="10.00">Error.h</text>
</a>
</g>
</g>
<!-- Node1&#45;&gt;Node13 -->
<g id="edge53" class="edge"><title>Node1&#45;&gt;Node13</title>
<path fill="none" stroke="midnightblue" d="M442.4,-454.854C512.008,-448.2 609.875,-426.009 654.772,-356 675.336,-323.933 656.55,-277.79 643.275,-252.768"/>
<polygon fill="midnightblue" stroke="midnightblue" points="646.152,-250.742 638.219,-243.72 640.042,-254.157 646.152,-250.742"/>
</g>
<!-- Node30 -->
<g id="node30" class="node"><title>Node30</title>
<polygon fill="white" stroke="#bfbfbf" points="724.772,-392.5 724.772,-411.5 770.772,-411.5 770.772,-392.5 724.772,-392.5"/>
<text text-anchor="middle" x="747.772" y="-399.5" font-family="Helvetica,sans-Serif" font-size="10.00">stdio.h</text>
</g>
<!-- Node1&#45;&gt;Node30 -->
<g id="edge52" class="edge"><title>Node1&#45;&gt;Node30</title>
<path fill="none" stroke="midnightblue" d="M442.45,-449.352C512.825,-441.842 619.209,-429.038 710.772,-412 712.051,-411.762 713.353,-411.507 714.666,-411.24"/>
<polygon fill="midnightblue" stroke="midnightblue" points="715.754,-414.584 724.763,-409.009 714.243,-407.749 715.754,-414.584"/>
</g>
<!-- Node5 -->
<g id="node5" class="node"><title>Node5</title>
<polygon fill="white" stroke="#bfbfbf" points="318.772,-112.5 318.772,-131.5 370.772,-131.5 370.772,-112.5 318.772,-112.5"/>
<text text-anchor="middle" x="344.772" y="-119.5" font-family="Helvetica,sans-Serif" font-size="10.00">memory</text>
</g>
<!-- Node4&#45;&gt;Node5 -->
<g id="edge4" class="edge"><title>Node4&#45;&gt;Node5</title>
<path fill="none" stroke="midnightblue" d="M473.348,-392.373C462.782,-355.091 420.102,-207.912 393.772,-168 386.196,-156.517 375.063,-145.977 365.322,-137.99"/>
<polygon fill="midnightblue" stroke="midnightblue" points="367.277,-135.075 357.245,-131.668 362.962,-140.587 367.277,-135.075"/>
</g>
<!-- Node6 -->
<g id="node6" class="node"><title>Node6</title>
<polygon fill="white" stroke="#bfbfbf" points="480.772,-336.5 480.772,-355.5 518.772,-355.5 518.772,-336.5 480.772,-336.5"/>
<text text-anchor="middle" x="499.772" y="-343.5" font-family="Helvetica,sans-Serif" font-size="10.00">array</text>
</g>
<!-- Node4&#45;&gt;Node6 -->
<g id="edge5" class="edge"><title>Node4&#45;&gt;Node6</title>
<path fill="none" stroke="midnightblue" d="M479.735,-392.083C482.985,-384.77 487.691,-374.181 491.726,-365.103"/>
<polygon fill="midnightblue" stroke="midnightblue" points="495.019,-366.311 495.882,-355.751 488.623,-363.468 495.019,-366.311"/>
</g>
<!-- Node4&#45;&gt;Node7 -->
<g id="edge6" class="edge"><title>Node4&#45;&gt;Node7</title>
<path fill="none" stroke="midnightblue" d="M451.477,-392.479C434.673,-385.327 413.181,-373.448 400.772,-356 365.952,-307.043 362.514,-232.372 362.998,-197.788"/>
<polygon fill="midnightblue" stroke="midnightblue" points="366.499,-197.783 363.272,-187.692 359.502,-197.593 366.499,-197.783"/>
</g>
<!-- Node8 -->
<g id="node8" class="node"><title>Node8</title>
<polygon fill="white" stroke="#bfbfbf" points="536.772,-336.5 536.772,-355.5 576.772,-355.5 576.772,-336.5 536.772,-336.5"/>
<text text-anchor="middle" x="556.772" y="-343.5" font-family="Helvetica,sans-Serif" font-size="10.00">utility</text>
</g>
<!-- Node4&#45;&gt;Node8 -->
<g id="edge7" class="edge"><title>Node4&#45;&gt;Node8</title>
<path fill="none" stroke="midnightblue" d="M488.786,-392.324C501.303,-383.979 520.453,-371.212 535.243,-361.352"/>
<polygon fill="midnightblue" stroke="midnightblue" points="537.411,-364.114 543.79,-355.655 533.528,-358.289 537.411,-364.114"/>
</g>
<!-- Node9 -->
<g id="node9" class="node"><title>Node9</title>
<polygon fill="white" stroke="#bfbfbf" points="410.272,-112.5 410.272,-131.5 451.272,-131.5 451.272,-112.5 410.272,-112.5"/>
<text text-anchor="middle" x="430.772" y="-119.5" font-family="Helvetica,sans-Serif" font-size="10.00">string</text>
</g>
<!-- Node4&#45;&gt;Node9 -->
<g id="edge8" class="edge"><title>Node4&#45;&gt;Node9</title>
<path fill="none" stroke="midnightblue" d="M474.867,-392.23C471.649,-361.251 460.64,-257.058 454.772,-224 449.589,-194.803 441.154,-161.416 435.789,-141.286"/>
<polygon fill="midnightblue" stroke="midnightblue" points="439.153,-140.317 433.164,-131.577 432.395,-142.144 439.153,-140.317"/>
</g>
<!-- Node10 -->
<g id="node10" class="node"><title>Node10</title>
<polygon fill="white" stroke="#bfbfbf" points="506.272,-56.5 506.272,-75.5 589.272,-75.5 589.272,-56.5 506.272,-56.5"/>
<text text-anchor="middle" x="547.772" y="-63.5" font-family="Helvetica,sans-Serif" font-size="10.00">unordered_map</text>
</g>
<!-- Node4&#45;&gt;Node10 -->
<g id="edge9" class="edge"><title>Node4&#45;&gt;Node10</title>
<path fill="none" stroke="midnightblue" d="M524.792,-401.155C599.879,-398.53 734.772,-381.255 734.772,-291 734.772,-291 734.772,-291 734.772,-177 734.772,-113.884 654.649,-86.2646 599.296,-74.7149"/>
<polygon fill="midnightblue" stroke="midnightblue" points="599.761,-71.2394 589.273,-72.7404 598.408,-78.1074 599.761,-71.2394"/>
</g>
<!-- Node11 -->
<g id="node11" class="node"><title>Node11</title>
<polygon fill="white" stroke="#bfbfbf" points="595.272,-336.5 595.272,-355.5 630.272,-355.5 630.272,-336.5 595.272,-336.5"/>
<text text-anchor="middle" x="612.772" y="-343.5" font-family="Helvetica,sans-Serif" font-size="10.00">map</text>
</g>
<!-- Node4&#45;&gt;Node11 -->
<g id="edge10" class="edge"><title>Node4&#45;&gt;Node11</title>
<path fill="none" stroke="midnightblue" d="M497.48,-392.444C521.325,-383.045 559.662,-367.934 585.514,-357.744"/>
<polygon fill="midnightblue" stroke="midnightblue" points="587.066,-360.894 595.086,-353.971 584.499,-354.382 587.066,-360.894"/>
</g>
<!-- Node12 -->
<g id="node12" class="node"><title>Node12</title>
<g id="a_node12"><a xlink:href="WaveData_8h.html" target="_top" xlink:title="WaveData.h">
<polygon fill="white" stroke="black" points="492.272,-280.5 492.272,-299.5 563.272,-299.5 563.272,-280.5 492.272,-280.5"/>
<text text-anchor="middle" x="527.772" y="-287.5" font-family="Helvetica,sans-Serif" font-size="10.00">WaveData.h</text>
</a>
</g>
</g>
<!-- Node4&#45;&gt;Node12 -->
<g id="edge11" class="edge"><title>Node4&#45;&gt;Node12</title>
<path fill="none" stroke="midnightblue" d="M525.018,-394.036C567.775,-386.862 624.945,-374.161 638.772,-356 660.222,-327.826 612.516,-309.617 573.094,-299.837"/>
<polygon fill="midnightblue" stroke="midnightblue" points="573.833,-296.415 563.297,-297.531 572.229,-303.229 573.833,-296.415"/>
</g>
<!-- Node16 -->
<g id="node16" class="node"><title>Node16</title>
<g id="a_node16"><a xlink:href="Enemy_8h.html" target="_top" xlink:title="Enemy.h">
<polygon fill="white" stroke="black" points="111.772,-336.5 111.772,-355.5 167.772,-355.5 167.772,-336.5 111.772,-336.5"/>
<text text-anchor="middle" x="139.772" y="-343.5" font-family="Helvetica,sans-Serif" font-size="10.00">Enemy.h</text>
</a>
</g>
</g>
<!-- Node4&#45;&gt;Node16 -->
<g id="edge17" class="edge"><title>Node4&#45;&gt;Node16</title>
<path fill="none" stroke="midnightblue" d="M426.555,-393.09C359.009,-382.234 239.013,-362.95 177.871,-353.123"/>
<polygon fill="midnightblue" stroke="midnightblue" points="178.301,-349.647 167.872,-351.516 177.19,-356.559 178.301,-349.647"/>
</g>
<!-- Node12&#45;&gt;Node7 -->
<g id="edge13" class="edge"><title>Node12&#45;&gt;Node7</title>
<path fill="none" stroke="midnightblue" d="M514.903,-280.368C486.76,-261.492 419.509,-216.385 384.997,-193.237"/>
<polygon fill="midnightblue" stroke="midnightblue" points="386.835,-190.255 376.581,-187.591 382.936,-196.069 386.835,-190.255"/>
</g>
<!-- Node12&#45;&gt;Node9 -->
<g id="edge12" class="edge"><title>Node12&#45;&gt;Node9</title>
<path fill="none" stroke="midnightblue" d="M528.288,-280.492C529.137,-259.413 528.696,-203.882 503.772,-168 493.321,-152.954 476.052,-141.976 460.933,-134.631"/>
<polygon fill="midnightblue" stroke="midnightblue" points="461.955,-131.252 451.401,-130.322 459.072,-137.631 461.955,-131.252"/>
</g>
<!-- Node12&#45;&gt;Node13 -->
<g id="edge14" class="edge"><title>Node12&#45;&gt;Node13</title>
<path fill="none" stroke="midnightblue" d="M544.642,-280.324C561.481,-271.664 587.578,-258.242 607.01,-248.249"/>
<polygon fill="midnightblue" stroke="midnightblue" points="608.651,-251.341 615.944,-243.655 605.45,-245.116 608.651,-251.341"/>
</g>
<!-- Node14 -->
<g id="node14" class="node"><title>Node14</title>
<polygon fill="white" stroke="#bfbfbf" points="571.772,-168.5 571.772,-187.5 625.772,-187.5 625.772,-168.5 571.772,-168.5"/>
<text text-anchor="middle" x="598.772" y="-175.5" font-family="Helvetica,sans-Serif" font-size="10.00">iostream</text>
</g>
<!-- Node13&#45;&gt;Node14 -->
<g id="edge15" class="edge"><title>Node13&#45;&gt;Node14</title>
<path fill="none" stroke="midnightblue" d="M627.157,-224.083C622.404,-216.534 615.454,-205.495 609.62,-196.23"/>
<polygon fill="midnightblue" stroke="midnightblue" points="612.572,-194.349 604.282,-187.751 606.648,-198.078 612.572,-194.349"/>
</g>
<!-- Node15 -->
<g id="node15" class="node"><title>Node15</title>
<polygon fill="white" stroke="#bfbfbf" points="643.772,-168.5 643.772,-187.5 691.772,-187.5 691.772,-168.5 643.772,-168.5"/>
<text text-anchor="middle" x="667.772" y="-175.5" font-family="Helvetica,sans-Serif" font-size="10.00">stdlib.h</text>
</g>
<!-- Node13&#45;&gt;Node15 -->
<g id="edge16" class="edge"><title>Node13&#45;&gt;Node15</title>
<path fill="none" stroke="midnightblue" d="M638.551,-224.083C643.444,-216.534 650.599,-205.495 656.604,-196.23"/>
<polygon fill="midnightblue" stroke="midnightblue" points="659.598,-198.046 662.1,-187.751 653.724,-194.239 659.598,-198.046"/>
</g>
<!-- Node16&#45;&gt;Node12 -->
<g id="edge51" class="edge"><title>Node16&#45;&gt;Node12</title>
<path fill="none" stroke="midnightblue" d="M167.988,-341.073C234.328,-331.84 400.708,-308.684 481.843,-297.392"/>
<polygon fill="midnightblue" stroke="midnightblue" points="482.818,-300.79 492.24,-295.945 481.853,-293.857 482.818,-300.79"/>
</g>
<!-- Node17 -->
<g id="node17" class="node"><title>Node17</title>
<g id="a_node17"><a xlink:href="GameObject_8h.html" target="_top" xlink:title="GameObject.h">
<polygon fill="white" stroke="black" points="63.7717,-224.5 63.7717,-243.5 143.772,-243.5 143.772,-224.5 63.7717,-224.5"/>
<text text-anchor="middle" x="103.772" y="-231.5" font-family="Helvetica,sans-Serif" font-size="10.00">GameObject.h</text>
</a>
</g>
</g>
<!-- Node16&#45;&gt;Node17 -->
<g id="edge18" class="edge"><title>Node16&#45;&gt;Node17</title>
<path fill="none" stroke="midnightblue" d="M130.586,-336.36C122.365,-327.965 110.85,-314.406 105.772,-300 100.546,-285.176 100.413,-267.252 101.378,-253.984"/>
<polygon fill="midnightblue" stroke="midnightblue" points="104.893,-254.017 102.41,-243.717 97.9276,-253.317 104.893,-254.017"/>
</g>
<!-- Node20 -->
<g id="node20" class="node"><title>Node20</title>
<g id="a_node20"><a xlink:href="Rect_8h.html" target="_top" xlink:title="Rect.h">
<polygon fill="white" stroke="black" points="10.7717,-112.5 10.7717,-131.5 56.7717,-131.5 56.7717,-112.5 10.7717,-112.5"/>
<text text-anchor="middle" x="33.7717" y="-119.5" font-family="Helvetica,sans-Serif" font-size="10.00">Rect.h</text>
</a>
</g>
</g>
<!-- Node16&#45;&gt;Node20 -->
<g id="edge41" class="edge"><title>Node16&#45;&gt;Node20</title>
<path fill="none" stroke="midnightblue" d="M112.29,-336.442C94.2162,-329.436 71.4572,-317.746 57.7717,-300 21.531,-253.008 26.0611,-177.364 30.6585,-142.164"/>
<polygon fill="midnightblue" stroke="midnightblue" points="34.179,-142.278 32.1615,-131.877 27.2525,-141.266 34.179,-142.278"/>
</g>
<!-- Node23 -->
<g id="node23" class="node"><title>Node23</title>
<g id="a_node23"><a xlink:href="Sprite_8h.html" target="_top" xlink:title="Sprite.h">
<polygon fill="white" stroke="black" points="159.772,-168.5 159.772,-187.5 209.772,-187.5 209.772,-168.5 159.772,-168.5"/>
<text text-anchor="middle" x="184.772" y="-175.5" font-family="Helvetica,sans-Serif" font-size="10.00">Sprite.h</text>
</a>
</g>
</g>
<!-- Node16&#45;&gt;Node23 -->
<g id="edge30" class="edge"><title>Node16&#45;&gt;Node23</title>
<path fill="none" stroke="midnightblue" d="M125.543,-336.465C94.3109,-316.654 24.8412,-266.034 54.7717,-224 60.5175,-215.931 113.413,-199.421 149.934,-188.8"/>
<polygon fill="midnightblue" stroke="midnightblue" points="151.108,-192.104 159.748,-185.972 149.17,-185.378 151.108,-192.104"/>
</g>
<!-- Node27 -->
<g id="node27" class="node"><title>Node27</title>
<g id="a_node27"><a xlink:href="TileMap_8h.html" target="_top" xlink:title="TileMap.h">
<polygon fill="white" stroke="black" points="183.272,-280.5 183.272,-299.5 242.272,-299.5 242.272,-280.5 183.272,-280.5"/>
<text text-anchor="middle" x="212.772" y="-287.5" font-family="Helvetica,sans-Serif" font-size="10.00">TileMap.h</text>
</a>
</g>
</g>
<!-- Node16&#45;&gt;Node27 -->
<g id="edge42" class="edge"><title>Node16&#45;&gt;Node27</title>
<path fill="none" stroke="midnightblue" d="M151.5,-336.324C162.609,-328.107 179.514,-315.602 192.755,-305.807"/>
<polygon fill="midnightblue" stroke="midnightblue" points="194.872,-308.595 200.83,-299.834 190.709,-302.967 194.872,-308.595"/>
</g>
<!-- Node29 -->
<g id="node29" class="node"><title>Node29</title>
<g id="a_node29"><a xlink:href="Timer_8h.html" target="_top" xlink:title="Timer.h">
<polygon fill="white" stroke="black" points="114.772,-280.5 114.772,-299.5 164.772,-299.5 164.772,-280.5 114.772,-280.5"/>
<text text-anchor="middle" x="139.772" y="-287.5" font-family="Helvetica,sans-Serif" font-size="10.00">Timer.h</text>
</a>
</g>
</g>
<!-- Node16&#45;&gt;Node29 -->
<g id="edge50" class="edge"><title>Node16&#45;&gt;Node29</title>
<path fill="none" stroke="midnightblue" d="M139.772,-336.083C139.772,-329.006 139.772,-318.861 139.772,-309.986"/>
<polygon fill="midnightblue" stroke="midnightblue" points="143.272,-309.751 139.772,-299.751 136.272,-309.751 143.272,-309.751"/>
</g>
<!-- Node17&#45;&gt;Node5 -->
<g id="edge21" class="edge"><title>Node17&#45;&gt;Node5</title>
<path fill="none" stroke="midnightblue" d="M127.857,-224.401C151.334,-215.826 187.906,-201.956 218.772,-188 254.967,-171.635 295.6,-150.072 320.692,-136.368"/>
<polygon fill="midnightblue" stroke="midnightblue" points="322.425,-139.409 329.506,-131.527 319.056,-133.273 322.425,-139.409"/>
</g>
<!-- Node17&#45;&gt;Node7 -->
<g id="edge20" class="edge"><title>Node17&#45;&gt;Node7</title>
<path fill="none" stroke="midnightblue" d="M143.827,-224.681C195.475,-213.954 284.273,-195.511 331.704,-185.66"/>
<polygon fill="midnightblue" stroke="midnightblue" points="332.642,-189.04 341.722,-183.58 331.219,-182.186 332.642,-189.04"/>
</g>
<!-- Node17&#45;&gt;Node9 -->
<g id="edge22" class="edge"><title>Node17&#45;&gt;Node9</title>
<path fill="none" stroke="midnightblue" d="M139.092,-224.491C169.732,-216.604 214.977,-203.732 252.772,-188 270.03,-180.817 272.571,-175.318 289.772,-168 326.835,-152.232 371.373,-138.902 400.337,-130.937"/>
<polygon fill="midnightblue" stroke="midnightblue" points="401.523,-134.242 410.261,-128.25 399.694,-127.485 401.523,-134.242"/>
</g>
<!-- Node18 -->
<g id="node18" class="node"><title>Node18</title>
<g id="a_node18"><a xlink:href="SDL__include_8h.html" target="_top" xlink:title="SDL_include.h">
<polygon fill="white" stroke="black" points="95.7717,-0.5 95.7717,-19.5 175.772,-19.5 175.772,-0.5 95.7717,-0.5"/>
<text text-anchor="middle" x="135.772" y="-7.5" font-family="Helvetica,sans-Serif" font-size="10.00">SDL_include.h</text>
</a>
</g>
</g>
<!-- Node17&#45;&gt;Node18 -->
<g id="edge19" class="edge"><title>Node17&#45;&gt;Node18</title>
<path fill="none" stroke="midnightblue" d="M86.6321,-224.29C54.5975,-206.657 -10.1009,-163.962 1.77175,-112 7.92637,-85.0635 8.74059,-75.0318 28.7717,-56 45.3446,-40.254 68.2396,-29.6268 88.5999,-22.6737"/>
<polygon fill="midnightblue" stroke="midnightblue" points="89.8971,-25.9334 98.3524,-19.5492 87.7614,-19.2671 89.8971,-25.9334"/>
</g>
<!-- Node19 -->
<g id="node19" class="node"><title>Node19</title>
<g id="a_node19"><a xlink:href="Component_8h.html" target="_top" xlink:title="Component.h">
<polygon fill="white" stroke="black" points="66.2717,-168.5 66.2717,-187.5 141.272,-187.5 141.272,-168.5 66.2717,-168.5"/>
<text text-anchor="middle" x="103.772" y="-175.5" font-family="Helvetica,sans-Serif" font-size="10.00">Component.h</text>
</a>
</g>
</g>
<!-- Node17&#45;&gt;Node19 -->
<g id="edge23" class="edge"><title>Node17&#45;&gt;Node19</title>
<path fill="none" stroke="midnightblue" d="M98.6054,-224.083C97.0959,-216.927 96.6655,-206.635 97.3142,-197.691"/>
<polygon fill="midnightblue" stroke="midnightblue" points="100.787,-198.126 98.6407,-187.751 93.8486,-197.2 100.787,-198.126"/>
</g>
<!-- Node17&#45;&gt;Node20 -->
<g id="edge25" class="edge"><title>Node17&#45;&gt;Node20</title>
<path fill="none" stroke="midnightblue" d="M91.8297,-224.22C81.3032,-215.929 66.2126,-202.612 56.7717,-188 47.5353,-173.704 41.4637,-155.236 37.8908,-141.642"/>
<polygon fill="midnightblue" stroke="midnightblue" points="41.2082,-140.468 35.4625,-131.567 34.4031,-142.108 41.2082,-140.468"/>
</g>
<!-- Node19&#45;&gt;Node17 -->
<g id="edge24" class="edge"><title>Node19&#45;&gt;Node17</title>
<path fill="none" stroke="midnightblue" d="M108.903,-187.751C110.429,-194.858 110.876,-205.136 110.244,-214.101"/>
<polygon fill="midnightblue" stroke="midnightblue" points="106.765,-213.713 108.938,-224.083 113.706,-214.622 106.765,-213.713"/>
</g>
<!-- Node20&#45;&gt;Node18 -->
<g id="edge26" class="edge"><title>Node20&#45;&gt;Node18</title>
<path fill="none" stroke="midnightblue" d="M32.1887,-112.067C30.3157,-98.5876 28.8055,-72.838 40.7717,-56 52.0109,-40.1851 70.2989,-29.7448 87.8429,-22.9426"/>
<polygon fill="midnightblue" stroke="midnightblue" points="89.211,-26.171 97.4636,-19.5268 86.8689,-19.5744 89.211,-26.171"/>
</g>
<!-- Node21 -->
<g id="node21" class="node"><title>Node21</title>
<g id="a_node21"><a xlink:href="Vec2_8h.html" target="_top" xlink:title="Vec2.h">
<polygon fill="white" stroke="black" points="112.272,-56.5 112.272,-75.5 159.272,-75.5 159.272,-56.5 112.272,-56.5"/>
<text text-anchor="middle" x="135.772" y="-63.5" font-family="Helvetica,sans-Serif" font-size="10.00">Vec2.h</text>
</a>
</g>
</g>
<!-- Node20&#45;&gt;Node21 -->
<g id="edge27" class="edge"><title>Node20&#45;&gt;Node21</title>
<path fill="none" stroke="midnightblue" d="M50.1598,-112.324C66.4431,-103.703 91.6392,-90.3643 110.488,-80.3855"/>
<polygon fill="midnightblue" stroke="midnightblue" points="112.224,-83.4267 119.424,-75.6545 108.949,-77.2402 112.224,-83.4267"/>
</g>
<!-- Node22 -->
<g id="node22" class="node"><title>Node22</title>
<polygon fill="white" stroke="#bfbfbf" points="49.7717,-56.5 49.7717,-75.5 93.7717,-75.5 93.7717,-56.5 49.7717,-56.5"/>
<text text-anchor="middle" x="71.7717" y="-63.5" font-family="Helvetica,sans-Serif" font-size="10.00">cmath</text>
</g>
<!-- Node20&#45;&gt;Node22 -->
<g id="edge29" class="edge"><title>Node20&#45;&gt;Node22</title>
<path fill="none" stroke="midnightblue" d="M40.0467,-112.083C45.4142,-104.455 53.2894,-93.2645 59.8504,-83.9408"/>
<polygon fill="midnightblue" stroke="midnightblue" points="62.7209,-85.9434 65.6136,-75.7511 56.9963,-81.9149 62.7209,-85.9434"/>
</g>
<!-- Node21&#45;&gt;Node18 -->
<g id="edge28" class="edge"><title>Node21&#45;&gt;Node18</title>
<path fill="none" stroke="midnightblue" d="M135.772,-56.083C135.772,-49.0059 135.772,-38.8611 135.772,-29.9865"/>
<polygon fill="midnightblue" stroke="midnightblue" points="139.272,-29.751 135.772,-19.7511 132.272,-29.7511 139.272,-29.751"/>
</g>
<!-- Node23&#45;&gt;Node5 -->
<g id="edge33" class="edge"><title>Node23&#45;&gt;Node5</title>
<path fill="none" stroke="midnightblue" d="M210.124,-168.444C237.041,-159.359 279.768,-144.939 309.859,-134.783"/>
<polygon fill="midnightblue" stroke="midnightblue" points="311.182,-138.031 319.538,-131.516 308.944,-131.398 311.182,-138.031"/>
</g>
<!-- Node23&#45;&gt;Node9 -->
<g id="edge32" class="edge"><title>Node23&#45;&gt;Node9</title>
<path fill="none" stroke="midnightblue" d="M210.172,-171.424C255.69,-161.433 350.978,-140.516 400.075,-129.738"/>
<polygon fill="midnightblue" stroke="midnightblue" points="401.082,-133.101 410.099,-127.538 399.581,-126.263 401.082,-133.101"/>
</g>
<!-- Node23&#45;&gt;Node18 -->
<g id="edge31" class="edge"><title>Node23&#45;&gt;Node18</title>
<path fill="none" stroke="midnightblue" d="M184.937,-168.434C185.043,-148.133 183.621,-95.8121 167.772,-56 163.658,-45.6656 156.699,-35.4547 150.32,-27.3785"/>
<polygon fill="midnightblue" stroke="midnightblue" points="152.881,-24.9844 143.787,-19.5479 147.505,-29.4687 152.881,-24.9844"/>
</g>
<!-- Node23&#45;&gt;Node20 -->
<g id="edge35" class="edge"><title>Node23&#45;&gt;Node20</title>
<path fill="none" stroke="midnightblue" d="M160.845,-168.444C135.404,-159.345 94.9973,-144.895 66.5924,-134.737"/>
<polygon fill="midnightblue" stroke="midnightblue" points="67.6846,-131.411 57.09,-131.339 65.3275,-138.002 67.6846,-131.411"/>
</g>
<!-- Node24 -->
<g id="node24" class="node"><title>Node24</title>
<g id="a_node24"><a xlink:href="Color_8h.html" target="_top" xlink:title="Color.h">
<polygon fill="white" stroke="black" points="112.772,-112.5 112.772,-131.5 160.772,-131.5 160.772,-112.5 112.772,-112.5"/>
<text text-anchor="middle" x="136.772" y="-119.5" font-family="Helvetica,sans-Serif" font-size="10.00">Color.h</text>
</a>
</g>
</g>
<!-- Node23&#45;&gt;Node24 -->
<g id="edge34" class="edge"><title>Node23&#45;&gt;Node24</title>
<path fill="none" stroke="midnightblue" d="M176.846,-168.083C169.926,-160.298 159.706,-148.801 151.32,-139.367"/>
<polygon fill="midnightblue" stroke="midnightblue" points="153.81,-136.9 144.55,-131.751 148.578,-141.55 153.81,-136.9"/>
</g>
<!-- Node25 -->
<g id="node25" class="node"><title>Node25</title>
<g id="a_node25"><a xlink:href="InputManager_8h.html" target="_top" xlink:title="InputManager.h">
<polygon fill="white" stroke="black" points="216.772,-112.5 216.772,-131.5 300.772,-131.5 300.772,-112.5 216.772,-112.5"/>
<text text-anchor="middle" x="258.772" y="-119.5" font-family="Helvetica,sans-Serif" font-size="10.00">InputManager.h</text>
</a>
</g>
</g>
<!-- Node23&#45;&gt;Node25 -->
<g id="edge36" class="edge"><title>Node23&#45;&gt;Node25</title>
<path fill="none" stroke="midnightblue" d="M196.661,-168.324C207.922,-160.107 225.058,-147.602 238.481,-137.807"/>
<polygon fill="midnightblue" stroke="midnightblue" points="240.651,-140.556 246.666,-131.834 236.525,-134.901 240.651,-140.556"/>
</g>
<!-- Node25&#45;&gt;Node10 -->
<g id="edge39" class="edge"><title>Node25&#45;&gt;Node10</title>
<path fill="none" stroke="midnightblue" d="M300.795,-113.148C352.524,-103.482 440.353,-87.0714 496.139,-76.6476"/>
<polygon fill="midnightblue" stroke="midnightblue" points="496.98,-80.0512 506.167,-74.7739 495.694,-73.1703 496.98,-80.0512"/>
</g>
<!-- Node25&#45;&gt;Node18 -->
<g id="edge37" class="edge"><title>Node25&#45;&gt;Node18</title>
<path fill="none" stroke="midnightblue" d="M264.477,-112.102C272.292,-98.6684 284.037,-72.9779 271.772,-56 252.275,-29.0129 215.981,-17.945 185.787,-13.5268"/>
<polygon fill="midnightblue" stroke="midnightblue" points="186.174,-10.0479 175.814,-12.27 185.298,-16.993 186.174,-10.0479"/>
</g>
<!-- Node25&#45;&gt;Node21 -->
<g id="edge38" class="edge"><title>Node25&#45;&gt;Node21</title>
<path fill="none" stroke="midnightblue" d="M239.282,-112.444C219.13,-103.596 187.449,-89.6875 164.441,-79.5865"/>
<polygon fill="midnightblue" stroke="midnightblue" points="165.734,-76.3316 155.17,-75.5164 162.92,-82.7411 165.734,-76.3316"/>
</g>
<!-- Node26 -->
<g id="node26" class="node"><title>Node26</title>
<polygon fill="white" stroke="#bfbfbf" points="216.772,-56.5 216.772,-75.5 262.772,-75.5 262.772,-56.5 216.772,-56.5"/>
<text text-anchor="middle" x="239.772" y="-63.5" font-family="Helvetica,sans-Serif" font-size="10.00">cstdint</text>
</g>
<!-- Node25&#45;&gt;Node26 -->
<g id="edge40" class="edge"><title>Node25&#45;&gt;Node26</title>
<path fill="none" stroke="midnightblue" d="M255.634,-112.083C253.089,-104.849 249.416,-94.4087 246.245,-85.3968"/>
<polygon fill="midnightblue" stroke="midnightblue" points="249.472,-84.0225 242.851,-75.7511 242.868,-86.3459 249.472,-84.0225"/>
</g>
<!-- Node27&#45;&gt;Node7 -->
<g id="edge44" class="edge"><title>Node27&#45;&gt;Node7</title>
<path fill="none" stroke="midnightblue" d="M219.606,-280.087C230.259,-266.634 251.982,-240.918 274.772,-224 292.484,-210.852 314.61,-199.645 332.37,-191.703"/>
<polygon fill="midnightblue" stroke="midnightblue" points="333.954,-194.831 341.731,-187.636 331.165,-188.411 333.954,-194.831"/>
</g>
<!-- Node27&#45;&gt;Node9 -->
<g id="edge43" class="edge"><title>Node27&#45;&gt;Node9</title>
<path fill="none" stroke="midnightblue" d="M236.818,-280.473C274.215,-266.227 346.882,-234.493 393.772,-188 407.292,-174.595 417.462,-155.222 423.685,-141.116"/>
<polygon fill="midnightblue" stroke="midnightblue" points="427.058,-142.118 427.664,-131.541 420.594,-139.432 427.058,-142.118"/>
</g>
<!-- Node27&#45;&gt;Node17 -->
<g id="edge45" class="edge"><title>Node27&#45;&gt;Node17</title>
<path fill="none" stroke="midnightblue" d="M195.259,-280.324C177.699,-271.625 150.44,-258.12 130.241,-248.113"/>
<polygon fill="midnightblue" stroke="midnightblue" points="131.755,-244.958 121.241,-243.655 128.648,-251.23 131.755,-244.958"/>
</g>
<!-- Node27&#45;&gt;Node21 -->
<g id="edge49" class="edge"><title>Node27&#45;&gt;Node21</title>
<path fill="none" stroke="midnightblue" d="M183.246,-281.566C138.618,-270.192 58.7243,-249.235 54.7717,-244 14.8084,-191.065 83.7313,-115.261 118.072,-82.7674"/>
<polygon fill="midnightblue" stroke="midnightblue" points="120.62,-85.1783 125.59,-75.8216 115.87,-80.0366 120.62,-85.1783"/>
</g>
<!-- Node28 -->
<g id="node28" class="node"><title>Node28</title>
<g id="a_node28"><a xlink:href="Tileset_8h.html" target="_top" xlink:title="Tileset.h">
<polygon fill="white" stroke="black" points="168.772,-224.5 168.772,-243.5 222.772,-243.5 222.772,-224.5 168.772,-224.5"/>
<text text-anchor="middle" x="195.772" y="-231.5" font-family="Helvetica,sans-Serif" font-size="10.00">Tileset.h</text>
</a>
</g>
</g>
<!-- Node27&#45;&gt;Node28 -->
<g id="edge46" class="edge"><title>Node27&#45;&gt;Node28</title>
<path fill="none" stroke="midnightblue" d="M209.965,-280.083C207.687,-272.849 204.4,-262.409 201.563,-253.397"/>
<polygon fill="midnightblue" stroke="midnightblue" points="204.868,-252.239 198.527,-243.751 198.191,-254.341 204.868,-252.239"/>
</g>
<!-- Node28&#45;&gt;Node9 -->
<g id="edge47" class="edge"><title>Node28&#45;&gt;Node9</title>
<path fill="none" stroke="midnightblue" d="M213.909,-224.306C240.105,-211.77 290.071,-187.932 332.772,-168 356.282,-157.025 383.058,-144.745 402.673,-135.789"/>
<polygon fill="midnightblue" stroke="midnightblue" points="404.306,-138.891 411.952,-131.557 401.401,-132.523 404.306,-138.891"/>
</g>
<!-- Node28&#45;&gt;Node23 -->
<g id="edge48" class="edge"><title>Node28&#45;&gt;Node23</title>
<path fill="none" stroke="midnightblue" d="M193.955,-224.083C192.498,-216.927 190.401,-206.635 188.579,-197.691"/>
<polygon fill="midnightblue" stroke="midnightblue" points="191.98,-196.851 186.554,-187.751 185.121,-198.248 191.98,-196.851"/>
</g>
</g>
</svg>
