<?xml version="1.0" encoding="UTF-8" standalone="no"?>
<!DOCTYPE svg PUBLIC "-//W3C//DTD SVG 1.1//EN"
 "http://www.w3.org/Graphics/SVG/1.1/DTD/svg11.dtd">
<!-- Generated by graphviz version 2.36.0 (20140111.2315)
 -->
<!-- Title: Engine/include/Game.h Pages: 1 -->
<svg width="475pt" height="252pt"
 viewBox="0.00 0.00 475.00 252.00" xmlns="http://www.w3.org/2000/svg" xmlns:xlink="http://www.w3.org/1999/xlink">
<g id="graph0" class="graph" transform="scale(1 1) rotate(0) translate(4 248)">
<title>Engine/include/Game.h</title>
<polygon fill="white" stroke="none" points="-4,4 -4,-248 471,-248 471,4 -4,4"/>
<!-- Node1 -->
<g id="node1" class="node"><title>Node1</title>
<polygon fill="#bfbfbf" stroke="black" points="268,-224.5 268,-243.5 386,-243.5 386,-224.5 268,-224.5"/>
<text text-anchor="middle" x="327" y="-231.5" font-family="Helvetica,sans-Serif" font-size="10.00">Engine/include/Game.h</text>
</g>
<!-- Node2 -->
<g id="node2" class="node"><title>Node2</title>
<polygon fill="white" stroke="#bfbfbf" points="-0.5,-56.5 -0.5,-75.5 40.5,-75.5 40.5,-56.5 -0.5,-56.5"/>
<text text-anchor="middle" x="20" y="-63.5" font-family="Helvetica,sans-Serif" font-size="10.00">string</text>
</g>
<!-- Node1&#45;&gt;Node2 -->
<g id="edge1" class="edge"><title>Node1&#45;&gt;Node2</title>
<path fill="none" stroke="midnightblue" d="M267.795,-225.874C231.515,-219.673 185.083,-208.345 148,-188 98.3807,-160.777 53.6049,-109.673 32.604,-83.4467"/>
<polygon fill="midnightblue" stroke="midnightblue" points="35.351,-81.2778 26.4207,-75.5767 29.8466,-85.6024 35.351,-81.2778"/>
</g>
<!-- Node3 -->
<g id="node3" class="node"><title>Node3</title>
<polygon fill="white" stroke="#bfbfbf" points="425.5,-168.5 425.5,-187.5 466.5,-187.5 466.5,-168.5 425.5,-168.5"/>
<text text-anchor="middle" x="446" y="-175.5" font-family="Helvetica,sans-Serif" font-size="10.00">stack</text>
</g>
<!-- Node1&#45;&gt;Node3 -->
<g id="edge2" class="edge"><title>Node1&#45;&gt;Node3</title>
<path fill="none" stroke="midnightblue" d="M345.856,-224.444C365.266,-215.636 395.73,-201.812 417.965,-191.722"/>
<polygon fill="midnightblue" stroke="midnightblue" points="419.572,-194.836 427.232,-187.516 416.68,-188.462 419.572,-194.836"/>
</g>
<!-- Node4 -->
<g id="node4" class="node"><title>Node4</title>
<g id="a_node4"><a xlink:href="State_8h.html" target="_top" xlink:title="State.h">
<polygon fill="white" stroke="black" points="157,-168.5 157,-187.5 205,-187.5 205,-168.5 157,-168.5"/>
<text text-anchor="middle" x="181" y="-175.5" font-family="Helvetica,sans-Serif" font-size="10.00">State.h</text>
</a>
</g>
</g>
<!-- Node1&#45;&gt;Node4 -->
<g id="edge3" class="edge"><title>Node1&#45;&gt;Node4</title>
<path fill="none" stroke="midnightblue" d="M303.866,-224.444C279.518,-215.438 240.993,-201.189 213.577,-191.049"/>
<polygon fill="midnightblue" stroke="midnightblue" points="214.619,-187.703 204.026,-187.516 212.191,-194.268 214.619,-187.703"/>
</g>
<!-- Node9 -->
<g id="node9" class="node"><title>Node9</title>
<g id="a_node9"><a xlink:href="Vec2_8h.html" target="_top" xlink:title="Vec2.h">
<polygon fill="white" stroke="black" points="335.5,-0.5 335.5,-19.5 382.5,-19.5 382.5,-0.5 335.5,-0.5"/>
<text text-anchor="middle" x="359" y="-7.5" font-family="Helvetica,sans-Serif" font-size="10.00">Vec2.h</text>
</a>
</g>
</g>
<!-- Node1&#45;&gt;Node9 -->
<g id="edge17" class="edge"><title>Node1&#45;&gt;Node9</title>
<path fill="none" stroke="midnightblue" d="M333.031,-224.341C344.347,-207.503 368.397,-168.769 377,-132 385.434,-95.9545 374.038,-52.8992 365.906,-29.0903"/>
<polygon fill="midnightblue" stroke="midnightblue" points="369.168,-27.8185 362.482,-19.5997 362.583,-30.194 369.168,-27.8185"/>
</g>
<!-- Node12 -->
<g id="node12" class="node"><title>Node12</title>
<g id="a_node12"><a xlink:href="InputManager_8h.html" target="_top" xlink:title="InputManager.h">
<polygon fill="white" stroke="black" points="285,-112.5 285,-131.5 369,-131.5 369,-112.5 285,-112.5"/>
<text text-anchor="middle" x="327" y="-119.5" font-family="Helvetica,sans-Serif" font-size="10.00">InputManager.h</text>
</a>
</g>
</g>
<!-- Node1&#45;&gt;Node12 -->
<g id="edge15" class="edge"><title>Node1&#45;&gt;Node12</title>
<path fill="none" stroke="midnightblue" d="M327,-224.368C327,-206.617 327,-165.666 327,-141.597"/>
<polygon fill="midnightblue" stroke="midnightblue" points="330.5,-141.591 327,-131.591 323.5,-141.591 330.5,-141.591"/>
</g>
<!-- Node5 -->
<g id="node5" class="node"><title>Node5</title>
<g id="a_node5"><a xlink:href="Gameobject_8h.html" target="_top" xlink:title="Gameobject.h">
<polygon fill="white" stroke="black" points="175.5,-112.5 175.5,-131.5 252.5,-131.5 252.5,-112.5 175.5,-112.5"/>
<text text-anchor="middle" x="214" y="-119.5" font-family="Helvetica,sans-Serif" font-size="10.00">Gameobject.h</text>
</a>
</g>
</g>
<!-- Node4&#45;&gt;Node5 -->
<g id="edge4" class="edge"><title>Node4&#45;&gt;Node5</title>
<path fill="none" stroke="midnightblue" d="M186.449,-168.083C191.014,-160.613 197.668,-149.724 203.293,-140.52"/>
<polygon fill="midnightblue" stroke="midnightblue" points="206.424,-142.109 208.652,-131.751 200.451,-138.459 206.424,-142.109"/>
</g>
<!-- Node6 -->
<g id="node6" class="node"><title>Node6</title>
<polygon fill="white" stroke="#bfbfbf" points="59,-56.5 59,-75.5 103,-75.5 103,-56.5 59,-56.5"/>
<text text-anchor="middle" x="81" y="-63.5" font-family="Helvetica,sans-Serif" font-size="10.00">vector</text>
</g>
<!-- Node4&#45;&gt;Node6 -->
<g id="edge13" class="edge"><title>Node4&#45;&gt;Node6</title>
<path fill="none" stroke="midnightblue" d="M173.153,-168.368C156.431,-149.974 117.065,-106.671 95.5926,-83.0519"/>
<polygon fill="midnightblue" stroke="midnightblue" points="98.1269,-80.6365 88.8104,-75.5914 92.9473,-85.3452 98.1269,-80.6365"/>
</g>
<!-- Node7 -->
<g id="node7" class="node"><title>Node7</title>
<polygon fill="white" stroke="#bfbfbf" points="121,-56.5 121,-75.5 173,-75.5 173,-56.5 121,-56.5"/>
<text text-anchor="middle" x="147" y="-63.5" font-family="Helvetica,sans-Serif" font-size="10.00">memory</text>
</g>
<!-- Node4&#45;&gt;Node7 -->
<g id="edge14" class="edge"><title>Node4&#45;&gt;Node7</title>
<path fill="none" stroke="midnightblue" d="M178.028,-168.404C174.931,-159.371 169.982,-144.733 166,-132 161.12,-116.396 155.936,-98.564 152.217,-85.5295"/>
<polygon fill="midnightblue" stroke="midnightblue" points="155.572,-84.5294 149.477,-75.8629 148.837,-86.4384 155.572,-84.5294"/>
</g>
<!-- Node5&#45;&gt;Node2 -->
<g id="edge10" class="edge"><title>Node5&#45;&gt;Node2</title>
<path fill="none" stroke="midnightblue" d="M181.884,-112.428C150.715,-104.057 101.841,-90.7899 50.2909,-76.0332"/>
<polygon fill="midnightblue" stroke="midnightblue" points="51.2155,-72.6573 40.6379,-73.2613 49.2835,-79.3854 51.2155,-72.6573"/>
</g>
<!-- Node5&#45;&gt;Node6 -->
<g id="edge5" class="edge"><title>Node5&#45;&gt;Node6</title>
<path fill="none" stroke="midnightblue" d="M192.926,-112.444C170.94,-103.517 136.266,-89.4387 111.336,-79.3168"/>
<polygon fill="midnightblue" stroke="midnightblue" points="112.558,-76.0355 101.976,-75.5164 109.924,-82.5213 112.558,-76.0355"/>
</g>
<!-- Node5&#45;&gt;Node7 -->
<g id="edge6" class="edge"><title>Node5&#45;&gt;Node7</title>
<path fill="none" stroke="midnightblue" d="M203.235,-112.324C193.234,-104.263 178.113,-92.0765 166.07,-82.3695"/>
<polygon fill="midnightblue" stroke="midnightblue" points="167.943,-79.3841 157.961,-75.8339 163.55,-84.8343 167.943,-79.3841"/>
</g>
<!-- Node8 -->
<g id="node8" class="node"><title>Node8</title>
<g id="a_node8"><a xlink:href="Rect_8h.html" target="_top" xlink:title="Rect.h">
<polygon fill="white" stroke="black" points="191,-56.5 191,-75.5 237,-75.5 237,-56.5 191,-56.5"/>
<text text-anchor="middle" x="214" y="-63.5" font-family="Helvetica,sans-Serif" font-size="10.00">Rect.h</text>
</a>
</g>
</g>
<!-- Node5&#45;&gt;Node8 -->
<g id="edge7" class="edge"><title>Node5&#45;&gt;Node8</title>
<path fill="none" stroke="midnightblue" d="M214,-112.083C214,-105.006 214,-94.8611 214,-85.9865"/>
<polygon fill="midnightblue" stroke="midnightblue" points="217.5,-85.751 214,-75.7511 210.5,-85.7511 217.5,-85.751"/>
</g>
<!-- Node11 -->
<g id="node11" class="node"><title>Node11</title>
<g id="a_node11"><a xlink:href="Component_8h.html" target="_top" xlink:title="Component.h">
<polygon fill="white" stroke="black" points="255.5,-56.5 255.5,-75.5 330.5,-75.5 330.5,-56.5 255.5,-56.5"/>
<text text-anchor="middle" x="293" y="-63.5" font-family="Helvetica,sans-Serif" font-size="10.00">Component.h</text>
</a>
</g>
</g>
<!-- Node5&#45;&gt;Node11 -->
<g id="edge11" class="edge"><title>Node5&#45;&gt;Node11</title>
<path fill="none" stroke="midnightblue" d="M221.578,-112.324C232.078,-103.9 250.695,-90.9709 266.401,-81.0741"/>
<polygon fill="midnightblue" stroke="midnightblue" points="268.538,-83.8693 275.229,-75.6545 264.875,-77.9038 268.538,-83.8693"/>
</g>
<!-- Node8&#45;&gt;Node9 -->
<g id="edge8" class="edge"><title>Node8&#45;&gt;Node9</title>
<path fill="none" stroke="midnightblue" d="M236.976,-56.4435C261.157,-47.4381 299.418,-33.1891 326.646,-23.049"/>
<polygon fill="midnightblue" stroke="midnightblue" points="327.982,-26.2864 336.132,-19.5164 325.539,-19.7265 327.982,-26.2864"/>
</g>
<!-- Node10 -->
<g id="node10" class="node"><title>Node10</title>
<polygon fill="white" stroke="#bfbfbf" points="192,-0.5 192,-19.5 236,-19.5 236,-0.5 192,-0.5"/>
<text text-anchor="middle" x="214" y="-7.5" font-family="Helvetica,sans-Serif" font-size="10.00">cmath</text>
</g>
<!-- Node8&#45;&gt;Node10 -->
<g id="edge9" class="edge"><title>Node8&#45;&gt;Node10</title>
<path fill="none" stroke="midnightblue" d="M214,-56.083C214,-49.0059 214,-38.8611 214,-29.9865"/>
<polygon fill="midnightblue" stroke="midnightblue" points="217.5,-29.751 214,-19.7511 210.5,-29.7511 217.5,-29.751"/>
</g>
<!-- Node11&#45;&gt;Node5 -->
<g id="edge12" class="edge"><title>Node11&#45;&gt;Node5</title>
<path fill="none" stroke="midnightblue" d="M285.225,-75.8339C274.687,-84.2633 256.196,-97.0987 240.585,-106.935"/>
<polygon fill="midnightblue" stroke="midnightblue" points="238.498,-104.109 231.808,-112.324 242.161,-110.074 238.498,-104.109"/>
</g>
<!-- Node12&#45;&gt;Node9 -->
<g id="edge16" class="edge"><title>Node12&#45;&gt;Node9</title>
<path fill="none" stroke="midnightblue" d="M329.511,-112.368C334.698,-94.5366 346.696,-53.2953 353.685,-29.2717"/>
<polygon fill="midnightblue" stroke="midnightblue" points="357.068,-30.1711 356.501,-19.5914 350.347,-28.2157 357.068,-30.1711"/>
</g>
</g>
</svg>
