<?xml version="1.0" encoding="UTF-8" standalone="no"?>
<!DOCTYPE svg PUBLIC "-//W3C//DTD SVG 1.1//EN"
 "http://www.w3.org/Graphics/SVG/1.1/DTD/svg11.dtd">
<!-- Generated by graphviz version 2.38.0 (20140413.2041)
 -->
<!-- Title: Game/include/GameResources.h Pages: 1 -->
<svg width="326pt" height="84pt"
 viewBox="0.00 0.00 325.50 84.00" xmlns="http://www.w3.org/2000/svg" xmlns:xlink="http://www.w3.org/1999/xlink">
<g id="graph0" class="graph" transform="scale(1 1) rotate(0) translate(4 80)">
<title>Game/include/GameResources.h</title>
<polygon fill="white" stroke="none" points="-4,4 -4,-80 321.5,-80 321.5,4 -4,4"/>
<!-- Node1 -->
<g id="node1" class="node"><title>Node1</title>
<polygon fill="#bfbfbf" stroke="black" points="81,-56.5 81,-75.5 242,-75.5 242,-56.5 81,-56.5"/>
<text text-anchor="middle" x="161.5" y="-63.5" font-family="Helvetica,sans-Serif" font-size="10.00">Game/include/GameResources.h</text>
</g>
<!-- Node2 -->
<g id="node2" class="node"><title>Node2</title>
<g id="a_node2"><a xlink:href="GameResources_8cpp.html" target="_top" xlink:title="Game/src/GameResources.cpp">
<polygon fill="white" stroke="black" points="0,-0.5 0,-19.5 155,-19.5 155,-0.5 0,-0.5"/>
<text text-anchor="middle" x="77.5" y="-7.5" font-family="Helvetica,sans-Serif" font-size="10.00">Game/src/GameResources.cpp</text>
</a>
</g>
</g>
<!-- Node1&#45;&gt;Node2 -->
<g id="edge1" class="edge"><title>Node1&#45;&gt;Node2</title>
<path fill="none" stroke="midnightblue" d="M139.568,-50.9005C124.165,-40.9986 104.054,-28.0705 90.9626,-19.6545"/>
<polygon fill="midnightblue" stroke="midnightblue" points="137.699,-53.8605 148.004,-56.324 141.485,-47.9722 137.699,-53.8605"/>
</g>
<!-- Node3 -->
<g id="node3" class="node"><title>Node3</title>
<g id="a_node3"><a xlink:href="WaveManager_8cpp.html" target="_top" xlink:title="Game/src/WaveManager.cpp">
<polygon fill="white" stroke="black" points="173.5,-0.5 173.5,-19.5 317.5,-19.5 317.5,-0.5 173.5,-0.5"/>
<text text-anchor="middle" x="245.5" y="-7.5" font-family="Helvetica,sans-Serif" font-size="10.00">Game/src/WaveManager.cpp</text>
</a>
</g>
</g>
<!-- Node1&#45;&gt;Node3 -->
<g id="edge2" class="edge"><title>Node1&#45;&gt;Node3</title>
<path fill="none" stroke="midnightblue" d="M183.432,-50.9005C198.835,-40.9986 218.946,-28.0705 232.037,-19.6545"/>
<polygon fill="midnightblue" stroke="midnightblue" points="181.515,-47.9722 174.996,-56.324 185.301,-53.8605 181.515,-47.9722"/>
</g>
</g>
</svg>
