<?xml version="1.0" encoding="UTF-8" standalone="no"?>
<!DOCTYPE svg PUBLIC "-//W3C//DTD SVG 1.1//EN"
 "http://www.w3.org/Graphics/SVG/1.1/DTD/svg11.dtd">
<!-- Generated by graphviz version 2.38.0 (20140413.2041)
 -->
<!-- Title: Engine/include/Game.h Pages: 1 -->
<svg width="2304pt" height="252pt"
 viewBox="0.00 0.00 2304.07 252.00" xmlns="http://www.w3.org/2000/svg" xmlns:xlink="http://www.w3.org/1999/xlink">
<g id="graph0" class="graph" transform="scale(1 1) rotate(0) translate(4 248)">
<title>Engine/include/Game.h</title>
<polygon fill="white" stroke="none" points="-4,4 -4,-248 2300.07,-248 2300.07,4 -4,4"/>
<!-- Node1 -->
<g id="node1" class="node"><title>Node1</title>
<polygon fill="#bfbfbf" stroke="black" points="970.07,-224.5 970.07,-243.5 1088.07,-243.5 1088.07,-224.5 970.07,-224.5"/>
<text text-anchor="middle" x="1029.07" y="-231.5" font-family="Helvetica,sans-Serif" font-size="10.00">Engine/include/Game.h</text>
</g>
<!-- Node2 -->
<g id="node2" class="node"><title>Node2</title>
<g id="a_node2"><a xlink:href="Text_8h.html" target="_top" xlink:title="Engine/include/Text.h">
<polygon fill="white" stroke="black" points="151.57,-168.5 151.57,-187.5 262.57,-187.5 262.57,-168.5 151.57,-168.5"/>
<text text-anchor="middle" x="207.07" y="-175.5" font-family="Helvetica,sans-Serif" font-size="10.00">Engine/include/Text.h</text>
</a>
</g>
</g>
<!-- Node1&#45;&gt;Node2 -->
<g id="edge1" class="edge"><title>Node1&#45;&gt;Node2</title>
<path fill="none" stroke="midnightblue" d="M959.767,-228.447C799.953,-217.949 408.159,-192.21 262.659,-182.652"/>
<polygon fill="midnightblue" stroke="midnightblue" points="959.746,-231.953 969.954,-229.116 960.205,-224.968 959.746,-231.953"/>
</g>
<!-- Node6 -->
<g id="node6" class="node"><title>Node6</title>
<g id="a_node6"><a xlink:href="EndState_8cpp.html" target="_top" xlink:title="Game/src/EndState.cpp">
<polygon fill="white" stroke="black" points="121.07,-0.5 121.07,-19.5 243.07,-19.5 243.07,-0.5 121.07,-0.5"/>
<text text-anchor="middle" x="182.07" y="-7.5" font-family="Helvetica,sans-Serif" font-size="10.00">Game/src/EndState.cpp</text>
</a>
</g>
</g>
<!-- Node1&#45;&gt;Node6 -->
<g id="edge28" class="edge"><title>Node1&#45;&gt;Node6</title>
<path fill="none" stroke="midnightblue" d="M959.693,-233.173C749.354,-233.234 128.245,-229.832 48.0698,-188 13.6622,-170.048 -10.6878,-147.466 5.06983,-112 29.0597,-58.0048 97.0731,-31.4757 141.464,-19.5558"/>
<polygon fill="midnightblue" stroke="midnightblue" points="959.992,-236.673 969.99,-233.167 959.988,-229.673 959.992,-236.673"/>
</g>
<!-- Node7 -->
<g id="node7" class="node"><title>Node7</title>
<g id="a_node7"><a xlink:href="StageState_8cpp.html" target="_top" xlink:title="Game/src/StageState.cpp">
<polygon fill="white" stroke="black" points="261.07,-0.5 261.07,-19.5 391.07,-19.5 391.07,-0.5 261.07,-0.5"/>
<text text-anchor="middle" x="326.07" y="-7.5" font-family="Helvetica,sans-Serif" font-size="10.00">Game/src/StageState.cpp</text>
</a>
</g>
</g>
<!-- Node1&#45;&gt;Node7 -->
<g id="edge32" class="edge"><title>Node1&#45;&gt;Node7</title>
<path fill="none" stroke="midnightblue" d="M959.775,-232.652C779.137,-231.238 297.12,-224.094 142.07,-188 80.7977,-173.736 46.6527,-184.552 12.0698,-132 -19.6439,-83.8077 184.465,-37.9568 279.405,-19.5181"/>
<polygon fill="midnightblue" stroke="midnightblue" points="959.924,-236.153 969.949,-232.728 959.976,-229.153 959.924,-236.153"/>
</g>
<!-- Node8 -->
<g id="node8" class="node"><title>Node8</title>
<g id="a_node8"><a xlink:href="TitleState_8cpp.html" target="_top" xlink:title="Game/src/TitleState.cpp">
<polygon fill="white" stroke="black" points="455.57,-0.5 455.57,-19.5 578.57,-19.5 578.57,-0.5 455.57,-0.5"/>
<text text-anchor="middle" x="517.07" y="-7.5" font-family="Helvetica,sans-Serif" font-size="10.00">Game/src/TitleState.cpp</text>
</a>
</g>
</g>
<!-- Node1&#45;&gt;Node8 -->
<g id="edge33" class="edge"><title>Node1&#45;&gt;Node8</title>
<path fill="none" stroke="midnightblue" d="M960.921,-222.182C933.211,-215.493 901.933,-204.834 877.07,-188 841.434,-163.872 850.637,-138.931 817.07,-112 772.416,-76.1747 754.949,-75.351 701.07,-56 655.418,-39.6039 601.29,-27.1629 563.608,-19.5625"/>
<polygon fill="midnightblue" stroke="midnightblue" points="960.422,-225.658 970.95,-224.471 961.979,-218.834 960.422,-225.658"/>
</g>
<!-- Node9 -->
<g id="node9" class="node"><title>Node9</title>
<g id="a_node9"><a xlink:href="Tower_8cpp.html" target="_top" xlink:title="Game/src/Tower.cpp">
<polygon fill="white" stroke="black" points="666.07,-0.5 666.07,-19.5 774.07,-19.5 774.07,-0.5 666.07,-0.5"/>
<text text-anchor="middle" x="720.07" y="-7.5" font-family="Helvetica,sans-Serif" font-size="10.00">Game/src/Tower.cpp</text>
</a>
</g>
</g>
<!-- Node1&#45;&gt;Node9 -->
<g id="edge34" class="edge"><title>Node1&#45;&gt;Node9</title>
<path fill="none" stroke="midnightblue" d="M959.911,-222.969C936.406,-216.456 911.664,-205.715 894.07,-188 850.59,-144.222 894.349,-99.9761 851.07,-56 830.744,-35.3471 800.529,-24.1667 774.237,-18.1172"/>
<polygon fill="midnightblue" stroke="midnightblue" points="959.329,-226.433 969.884,-225.509 961.057,-219.649 959.329,-226.433"/>
</g>
<!-- Node10 -->
<g id="node10" class="node"><title>Node10</title>
<g id="a_node10"><a xlink:href="Camera_8cpp.html" target="_top" xlink:title="Engine/src/Camera.cpp">
<polygon fill="white" stroke="black" points="903.57,-168.5 903.57,-187.5 1022.57,-187.5 1022.57,-168.5 903.57,-168.5"/>
<text text-anchor="middle" x="963.07" y="-175.5" font-family="Helvetica,sans-Serif" font-size="10.00">Engine/src/Camera.cpp</text>
</a>
</g>
</g>
<!-- Node1&#45;&gt;Node10 -->
<g id="edge10" class="edge"><title>Node1&#45;&gt;Node10</title>
<path fill="none" stroke="midnightblue" d="M1010.52,-217.82C998.692,-208.145 983.784,-195.948 973.867,-187.834"/>
<polygon fill="midnightblue" stroke="midnightblue" points="1008.51,-220.7 1018.47,-224.324 1012.94,-215.283 1008.51,-220.7"/>
</g>
<!-- Node11 -->
<g id="node11" class="node"><title>Node11</title>
<g id="a_node11"><a xlink:href="Game_8cpp.html" target="_top" xlink:title="Engine/src/Game.cpp">
<polygon fill="white" stroke="black" points="1040.57,-168.5 1040.57,-187.5 1151.57,-187.5 1151.57,-168.5 1040.57,-168.5"/>
<text text-anchor="middle" x="1096.07" y="-175.5" font-family="Helvetica,sans-Serif" font-size="10.00">Engine/src/Game.cpp</text>
</a>
</g>
</g>
<!-- Node1&#45;&gt;Node11 -->
<g id="edge11" class="edge"><title>Node1&#45;&gt;Node11</title>
<path fill="none" stroke="midnightblue" d="M1047.9,-217.82C1059.91,-208.145 1075.04,-195.948 1085.11,-187.834"/>
<polygon fill="midnightblue" stroke="midnightblue" points="1045.42,-215.324 1039.83,-224.324 1049.82,-220.774 1045.42,-215.324"/>
</g>
<!-- Node12 -->
<g id="node12" class="node"><title>Node12</title>
<g id="a_node12"><a xlink:href="Resources_8cpp.html" target="_top" xlink:title="Engine/src/Resources.cpp">
<polygon fill="white" stroke="black" points="1170.07,-168.5 1170.07,-187.5 1302.07,-187.5 1302.07,-168.5 1170.07,-168.5"/>
<text text-anchor="middle" x="1236.07" y="-175.5" font-family="Helvetica,sans-Serif" font-size="10.00">Engine/src/Resources.cpp</text>
</a>
</g>
</g>
<!-- Node1&#45;&gt;Node12 -->
<g id="edge12" class="edge"><title>Node1&#45;&gt;Node12</title>
<path fill="none" stroke="midnightblue" d="M1071.89,-221.829C1110.98,-211.633 1167.9,-196.782 1203.42,-187.516"/>
<polygon fill="midnightblue" stroke="midnightblue" points="1070.66,-218.533 1061.87,-224.444 1072.43,-225.306 1070.66,-218.533"/>
</g>
<!-- Node13 -->
<g id="node13" class="node"><title>Node13</title>
<g id="a_node13"><a xlink:href="Sprite_8cpp.html" target="_top" xlink:title="Engine/src/Sprite.cpp">
<polygon fill="white" stroke="black" points="1320.07,-168.5 1320.07,-187.5 1430.07,-187.5 1430.07,-168.5 1320.07,-168.5"/>
<text text-anchor="middle" x="1375.07" y="-175.5" font-family="Helvetica,sans-Serif" font-size="10.00">Engine/src/Sprite.cpp</text>
</a>
</g>
</g>
<!-- Node1&#45;&gt;Node13 -->
<g id="edge13" class="edge"><title>Node1&#45;&gt;Node13</title>
<path fill="none" stroke="midnightblue" d="M1094.08,-222.854C1159.45,-212.651 1259.11,-197.098 1320.5,-187.516"/>
<polygon fill="midnightblue" stroke="midnightblue" points="1093.24,-219.443 1083.89,-224.444 1094.31,-226.36 1093.24,-219.443"/>
</g>
<!-- Node14 -->
<g id="node14" class="node"><title>Node14</title>
<g id="a_node14"><a xlink:href="Tileset_8cpp.html" target="_top" xlink:title="Engine/src/Tileset.cpp">
<polygon fill="white" stroke="black" points="1448.07,-168.5 1448.07,-187.5 1562.07,-187.5 1562.07,-168.5 1448.07,-168.5"/>
<text text-anchor="middle" x="1505.07" y="-175.5" font-family="Helvetica,sans-Serif" font-size="10.00">Engine/src/Tileset.cpp</text>
</a>
</g>
</g>
<!-- Node1&#45;&gt;Node14 -->
<g id="edge14" class="edge"><title>Node1&#45;&gt;Node14</title>
<path fill="none" stroke="midnightblue" d="M1098.34,-225.957C1179.91,-217.533 1319.45,-202.717 1439.07,-188 1441.94,-187.647 1444.88,-187.277 1447.84,-186.897"/>
<polygon fill="midnightblue" stroke="midnightblue" points="1097.78,-222.495 1088.2,-227.002 1098.5,-229.458 1097.78,-222.495"/>
</g>
<!-- Node15 -->
<g id="node15" class="node"><title>Node15</title>
<g id="a_node15"><a xlink:href="UIelement_8cpp.html" target="_top" xlink:title="Engine/src/UIelement.cpp">
<polygon fill="white" stroke="black" points="1580.07,-168.5 1580.07,-187.5 1710.07,-187.5 1710.07,-168.5 1580.07,-168.5"/>
<text text-anchor="middle" x="1645.07" y="-175.5" font-family="Helvetica,sans-Serif" font-size="10.00">Engine/src/UIelement.cpp</text>
</a>
</g>
</g>
<!-- Node1&#45;&gt;Node15 -->
<g id="edge15" class="edge"><title>Node1&#45;&gt;Node15</title>
<path fill="none" stroke="midnightblue" d="M1098.37,-228.098C1201.51,-220.609 1401.48,-205.347 1571.07,-188 1573.9,-187.71 1576.79,-187.404 1579.72,-187.086"/>
<polygon fill="midnightblue" stroke="midnightblue" points="1097.81,-224.629 1088.09,-228.842 1098.31,-231.611 1097.81,-224.629"/>
</g>
<!-- Node16 -->
<g id="node16" class="node"><title>Node16</title>
<g id="a_node16"><a xlink:href="UItext_8cpp.html" target="_top" xlink:title="Engine/src/UItext.cpp">
<polygon fill="white" stroke="black" points="1728.07,-168.5 1728.07,-187.5 1840.07,-187.5 1840.07,-168.5 1728.07,-168.5"/>
<text text-anchor="middle" x="1784.07" y="-175.5" font-family="Helvetica,sans-Serif" font-size="10.00">Engine/src/UItext.cpp</text>
</a>
</g>
</g>
<!-- Node1&#45;&gt;Node16 -->
<g id="edge16" class="edge"><title>Node1&#45;&gt;Node16</title>
<path fill="none" stroke="midnightblue" d="M1098.41,-230.142C1222.93,-224.64 1492.55,-211.038 1719.07,-188 1721.9,-187.712 1724.8,-187.394 1727.73,-187.055"/>
<polygon fill="midnightblue" stroke="midnightblue" points="1098.1,-226.653 1088.26,-230.587 1098.4,-233.646 1098.1,-226.653"/>
</g>
<!-- Node17 -->
<g id="node17" class="node"><title>Node17</title>
<g id="a_node17"><a xlink:href="Bullet_8h.html" target="_top" xlink:title="Game/include/Bullet.h">
<polygon fill="white" stroke="black" points="565.57,-168.5 565.57,-187.5 678.57,-187.5 678.57,-168.5 565.57,-168.5"/>
<text text-anchor="middle" x="622.07" y="-175.5" font-family="Helvetica,sans-Serif" font-size="10.00">Game/include/Bullet.h</text>
</a>
</g>
</g>
<!-- Node1&#45;&gt;Node17 -->
<g id="edge17" class="edge"><title>Node1&#45;&gt;Node17</title>
<path fill="none" stroke="midnightblue" d="M959.514,-223.771C880.231,-213.252 752.149,-196.259 678.698,-186.513"/>
<polygon fill="midnightblue" stroke="midnightblue" points="959.515,-227.302 969.889,-225.148 960.436,-220.363 959.515,-227.302"/>
</g>
<!-- Node18 -->
<g id="node18" class="node"><title>Node18</title>
<g id="a_node18"><a xlink:href="AIQuimic_8h.html" target="_top" xlink:title="Game/include/AIQuimic.h">
<polygon fill="white" stroke="black" points="289.07,-112.5 289.07,-131.5 417.07,-131.5 417.07,-112.5 289.07,-112.5"/>
<text text-anchor="middle" x="353.07" y="-119.5" font-family="Helvetica,sans-Serif" font-size="10.00">Game/include/AIQuimic.h</text>
</a>
</g>
</g>
<!-- Node1&#45;&gt;Node18 -->
<g id="edge27" class="edge"><title>Node1&#45;&gt;Node18</title>
<path fill="none" stroke="midnightblue" d="M959.737,-231.061C866.942,-227.41 697.627,-217.044 556.07,-188 488.281,-174.091 411.21,-145.819 374.588,-131.589"/>
<polygon fill="midnightblue" stroke="midnightblue" points="959.72,-234.563 969.845,-231.444 959.985,-227.568 959.72,-234.563"/>
</g>
<!-- Node23 -->
<g id="node23" class="node"><title>Node23</title>
<g id="a_node23"><a xlink:href="Shooter_8cpp.html" target="_top" xlink:title="Game/src/Shooter.cpp">
<polygon fill="white" stroke="black" points="693.57,-112.5 693.57,-131.5 808.57,-131.5 808.57,-112.5 693.57,-112.5"/>
<text text-anchor="middle" x="751.07" y="-119.5" font-family="Helvetica,sans-Serif" font-size="10.00">Game/src/Shooter.cpp</text>
</a>
</g>
</g>
<!-- Node1&#45;&gt;Node23 -->
<g id="edge31" class="edge"><title>Node1&#45;&gt;Node23</title>
<path fill="none" stroke="midnightblue" d="M959.933,-226.932C918.44,-221.141 865.632,-209.873 823.07,-188 795.21,-173.683 769.826,-145.857 758.027,-131.711"/>
<polygon fill="midnightblue" stroke="midnightblue" points="959.582,-230.416 969.954,-228.255 960.498,-223.476 959.582,-230.416"/>
</g>
<!-- Node24 -->
<g id="node24" class="node"><title>Node24</title>
<g id="a_node24"><a xlink:href="GameResources_8cpp.html" target="_top" xlink:title="Game/src/GameResources.cpp">
<polygon fill="white" stroke="black" points="1858.57,-168.5 1858.57,-187.5 2013.57,-187.5 2013.57,-168.5 1858.57,-168.5"/>
<text text-anchor="middle" x="1936.07" y="-175.5" font-family="Helvetica,sans-Serif" font-size="10.00">Game/src/GameResources.cpp</text>
</a>
</g>
</g>
<!-- Node1&#45;&gt;Node24 -->
<g id="edge29" class="edge"><title>Node1&#45;&gt;Node24</title>
<path fill="none" stroke="midnightblue" d="M1098.56,-230.319C1239.99,-224.614 1571.4,-209.968 1849.07,-188 1852.1,-187.76 1855.18,-187.503 1858.3,-187.233"/>
<polygon fill="midnightblue" stroke="midnightblue" points="1098.16,-226.833 1088.3,-230.731 1098.44,-233.827 1098.16,-226.833"/>
</g>
<!-- Node25 -->
<g id="node25" class="node"><title>Node25</title>
<g id="a_node25"><a xlink:href="main_8cpp.html" target="_top" xlink:title="Game/src/main.cpp">
<polygon fill="white" stroke="black" points="2032.07,-168.5 2032.07,-187.5 2134.07,-187.5 2134.07,-168.5 2032.07,-168.5"/>
<text text-anchor="middle" x="2083.07" y="-175.5" font-family="Helvetica,sans-Serif" font-size="10.00">Game/src/main.cpp</text>
</a>
</g>
</g>
<!-- Node1&#45;&gt;Node25 -->
<g id="edge30" class="edge"><title>Node1&#45;&gt;Node25</title>
<path fill="none" stroke="midnightblue" d="M1098.64,-232.327C1260.95,-230.218 1677.13,-221.685 2023.07,-188 2026.01,-187.714 2029.02,-187.383 2032.05,-187.02"/>
<polygon fill="midnightblue" stroke="midnightblue" points="1098.28,-228.832 1088.32,-232.457 1098.36,-235.831 1098.28,-228.832"/>
</g>
<!-- Node26 -->
<g id="node26" class="node"><title>Node26</title>
<g id="a_node26"><a xlink:href="WaveManager_8cpp.html" target="_top" xlink:title="Game/src/WaveManager.cpp">
<polygon fill="white" stroke="black" points="2152.07,-168.5 2152.07,-187.5 2296.07,-187.5 2296.07,-168.5 2152.07,-168.5"/>
<text text-anchor="middle" x="2224.07" y="-175.5" font-family="Helvetica,sans-Serif" font-size="10.00">Game/src/WaveManager.cpp</text>
</a>
</g>
</g>
<!-- Node1&#45;&gt;Node26 -->
<g id="edge35" class="edge"><title>Node1&#45;&gt;Node26</title>
<path fill="none" stroke="midnightblue" d="M1098.45,-231.892C1273.73,-228.723 1748.51,-217.852 2143.07,-188 2145.89,-187.787 2148.77,-187.551 2151.67,-187.299"/>
<polygon fill="midnightblue" stroke="midnightblue" points="1098.27,-228.394 1088.33,-232.072 1098.39,-235.393 1098.27,-228.394"/>
</g>
<!-- Node3 -->
<g id="node3" class="node"><title>Node3</title>
<g id="a_node3"><a xlink:href="Text_8cpp.html" target="_top" xlink:title="Engine/src/Text.cpp">
<polygon fill="white" stroke="black" points="21.0698,-112.5 21.0698,-131.5 125.07,-131.5 125.07,-112.5 21.0698,-112.5"/>
<text text-anchor="middle" x="73.0698" y="-119.5" font-family="Helvetica,sans-Serif" font-size="10.00">Engine/src/Text.cpp</text>
</a>
</g>
</g>
<!-- Node2&#45;&gt;Node3 -->
<g id="edge2" class="edge"><title>Node2&#45;&gt;Node3</title>
<path fill="none" stroke="midnightblue" d="M176.393,-164.638C151.246,-154.504 116.316,-140.427 94.2032,-131.516"/>
<polygon fill="midnightblue" stroke="midnightblue" points="175.254,-167.952 185.837,-168.444 177.87,-161.459 175.254,-167.952"/>
</g>
<!-- Node4 -->
<g id="node4" class="node"><title>Node4</title>
<g id="a_node4"><a xlink:href="EndState_8h.html" target="_top" xlink:title="Game/include/EndState.h">
<polygon fill="white" stroke="black" points="143.07,-112.5 143.07,-131.5 271.07,-131.5 271.07,-112.5 143.07,-112.5"/>
<text text-anchor="middle" x="207.07" y="-119.5" font-family="Helvetica,sans-Serif" font-size="10.00">Game/include/EndState.h</text>
</a>
</g>
</g>
<!-- Node2&#45;&gt;Node4 -->
<g id="edge3" class="edge"><title>Node2&#45;&gt;Node4</title>
<path fill="none" stroke="midnightblue" d="M207.07,-157.805C207.07,-148.91 207.07,-138.78 207.07,-131.751"/>
<polygon fill="midnightblue" stroke="midnightblue" points="203.57,-158.083 207.07,-168.083 210.57,-158.083 203.57,-158.083"/>
</g>
<!-- Node5 -->
<g id="node5" class="node"><title>Node5</title>
<g id="a_node5"><a xlink:href="StageState_8h.html" target="_top" xlink:title="Game/include/StageState.h">
<polygon fill="white" stroke="black" points="424.57,-56.5 424.57,-75.5 561.57,-75.5 561.57,-56.5 424.57,-56.5"/>
<text text-anchor="middle" x="493.07" y="-63.5" font-family="Helvetica,sans-Serif" font-size="10.00">Game/include/StageState.h</text>
</a>
</g>
</g>
<!-- Node4&#45;&gt;Node5 -->
<g id="edge4" class="edge"><title>Node4&#45;&gt;Node5</title>
<path fill="none" stroke="midnightblue" d="M262.484,-110.537C316.536,-100.332 397.741,-84.9992 447.964,-75.5164"/>
<polygon fill="midnightblue" stroke="midnightblue" points="261.564,-107.149 252.387,-112.444 262.863,-114.027 261.564,-107.149"/>
</g>
<!-- Node4&#45;&gt;Node6 -->
<g id="edge9" class="edge"><title>Node4&#45;&gt;Node6</title>
<path fill="none" stroke="midnightblue" d="M202.831,-102.348C197.355,-78.2538 188.049,-37.3079 184.022,-19.5914"/>
<polygon fill="midnightblue" stroke="midnightblue" points="199.479,-103.393 205.108,-112.368 206.305,-101.841 199.479,-103.393"/>
</g>
<!-- Node5&#45;&gt;Node6 -->
<g id="edge5" class="edge"><title>Node5&#45;&gt;Node6</title>
<path fill="none" stroke="midnightblue" d="M433.908,-54.7275C375.138,-44.523 286.072,-29.0583 231.118,-19.5164"/>
<polygon fill="midnightblue" stroke="midnightblue" points="433.34,-58.1811 443.791,-56.4435 434.537,-51.2843 433.34,-58.1811"/>
</g>
<!-- Node5&#45;&gt;Node7 -->
<g id="edge6" class="edge"><title>Node5&#45;&gt;Node7</title>
<path fill="none" stroke="midnightblue" d="M456.9,-53.3044C425.433,-43.1294 380.575,-28.6246 352.408,-19.5164"/>
<polygon fill="midnightblue" stroke="midnightblue" points="456.016,-56.697 466.608,-56.4435 458.17,-50.0366 456.016,-56.697"/>
</g>
<!-- Node5&#45;&gt;Node8 -->
<g id="edge7" class="edge"><title>Node5&#45;&gt;Node8</title>
<path fill="none" stroke="midnightblue" d="M501.208,-46.6897C505.252,-37.589 509.952,-27.0141 513.18,-19.7511"/>
<polygon fill="midnightblue" stroke="midnightblue" points="497.896,-45.5234 497.033,-56.083 504.293,-48.3664 497.896,-45.5234"/>
</g>
<!-- Node5&#45;&gt;Node9 -->
<g id="edge8" class="edge"><title>Node5&#45;&gt;Node9</title>
<path fill="none" stroke="midnightblue" d="M538.939,-54.0884C581.825,-43.8865 644.987,-28.8612 684.269,-19.5164"/>
<polygon fill="midnightblue" stroke="midnightblue" points="537.957,-50.7242 529.039,-56.4435 539.577,-57.5342 537.957,-50.7242"/>
</g>
<!-- Node17&#45;&gt;Node18 -->
<g id="edge18" class="edge"><title>Node17&#45;&gt;Node18</title>
<path fill="none" stroke="midnightblue" d="M569.632,-166.473C518.793,-156.268 442.634,-140.979 395.494,-131.516"/>
<polygon fill="midnightblue" stroke="midnightblue" points="568.953,-169.907 579.446,-168.444 570.33,-163.044 568.953,-169.907"/>
</g>
<!-- Node21 -->
<g id="node21" class="node"><title>Node21</title>
<g id="a_node21"><a xlink:href="Tower_8h.html" target="_top" xlink:title="Game/include/Tower.h">
<polygon fill="white" stroke="black" points="435.57,-112.5 435.57,-131.5 550.57,-131.5 550.57,-112.5 435.57,-112.5"/>
<text text-anchor="middle" x="493.07" y="-119.5" font-family="Helvetica,sans-Serif" font-size="10.00">Game/include/Tower.h</text>
</a>
</g>
</g>
<!-- Node17&#45;&gt;Node21 -->
<g id="edge22" class="edge"><title>Node17&#45;&gt;Node21</title>
<path fill="none" stroke="midnightblue" d="M592.216,-164.503C568.032,-154.38 534.608,-140.388 513.415,-131.516"/>
<polygon fill="midnightblue" stroke="midnightblue" points="591.053,-167.811 601.629,-168.444 593.756,-161.354 591.053,-167.811"/>
</g>
<!-- Node22 -->
<g id="node22" class="node"><title>Node22</title>
<g id="a_node22"><a xlink:href="Bullet_8cpp.html" target="_top" xlink:title="Game/src/Bullet.cpp">
<polygon fill="white" stroke="black" points="569.07,-112.5 569.07,-131.5 675.07,-131.5 675.07,-112.5 569.07,-112.5"/>
<text text-anchor="middle" x="622.07" y="-119.5" font-family="Helvetica,sans-Serif" font-size="10.00">Game/src/Bullet.cpp</text>
</a>
</g>
</g>
<!-- Node17&#45;&gt;Node22 -->
<g id="edge25" class="edge"><title>Node17&#45;&gt;Node22</title>
<path fill="none" stroke="midnightblue" d="M622.07,-157.805C622.07,-148.91 622.07,-138.78 622.07,-131.751"/>
<polygon fill="midnightblue" stroke="midnightblue" points="618.57,-158.083 622.07,-168.083 625.57,-158.083 618.57,-158.083"/>
</g>
<!-- Node17&#45;&gt;Node23 -->
<g id="edge26" class="edge"><title>Node17&#45;&gt;Node23</title>
<path fill="none" stroke="midnightblue" d="M651.924,-164.503C676.108,-154.38 709.532,-140.388 730.725,-131.516"/>
<polygon fill="midnightblue" stroke="midnightblue" points="650.383,-161.354 642.51,-168.444 653.086,-167.811 650.383,-161.354"/>
</g>
<!-- Node18&#45;&gt;Node7 -->
<g id="edge21" class="edge"><title>Node18&#45;&gt;Node7</title>
<path fill="none" stroke="midnightblue" d="M314.686,-108.501C299.557,-101.477 283.746,-91.0228 275.07,-76 262.444,-54.1393 291.284,-31.6144 310.542,-19.6712"/>
<polygon fill="midnightblue" stroke="midnightblue" points="313.377,-111.747 323.949,-112.441 316.117,-105.306 313.377,-111.747"/>
</g>
<!-- Node19 -->
<g id="node19" class="node"><title>Node19</title>
<g id="a_node19"><a xlink:href="AIQuimic_8cpp.html" target="_top" xlink:title="Game/src/AIQuimic.cpp">
<polygon fill="white" stroke="black" points="284.07,-56.5 284.07,-75.5 406.07,-75.5 406.07,-56.5 284.07,-56.5"/>
<text text-anchor="middle" x="345.07" y="-63.5" font-family="Helvetica,sans-Serif" font-size="10.00">Game/src/AIQuimic.cpp</text>
</a>
</g>
</g>
<!-- Node18&#45;&gt;Node19 -->
<g id="edge19" class="edge"><title>Node18&#45;&gt;Node19</title>
<path fill="none" stroke="midnightblue" d="M350.27,-102.101C348.942,-93.1357 347.419,-82.8579 346.366,-75.7511"/>
<polygon fill="midnightblue" stroke="midnightblue" points="346.821,-102.704 351.749,-112.083 353.745,-101.678 346.821,-102.704"/>
</g>
<!-- Node20 -->
<g id="node20" class="node"><title>Node20</title>
<g id="a_node20"><a xlink:href="Enemy_8cpp.html" target="_top" xlink:title="Game/src/Enemy.cpp">
<polygon fill="white" stroke="black" points="580.07,-56.5 580.07,-75.5 692.07,-75.5 692.07,-56.5 580.07,-56.5"/>
<text text-anchor="middle" x="636.07" y="-63.5" font-family="Helvetica,sans-Serif" font-size="10.00">Game/src/Enemy.cpp</text>
</a>
</g>
</g>
<!-- Node18&#45;&gt;Node20 -->
<g id="edge20" class="edge"><title>Node18&#45;&gt;Node20</title>
<path fill="none" stroke="midnightblue" d="M407.903,-110.537C461.388,-100.332 541.741,-84.9992 591.437,-75.5164"/>
<polygon fill="midnightblue" stroke="midnightblue" points="407.079,-107.131 397.912,-112.444 408.391,-114.007 407.079,-107.131"/>
</g>
<!-- Node21&#45;&gt;Node5 -->
<g id="edge23" class="edge"><title>Node21&#45;&gt;Node5</title>
<path fill="none" stroke="midnightblue" d="M493.07,-101.805C493.07,-92.9102 493.07,-82.7798 493.07,-75.7511"/>
<polygon fill="midnightblue" stroke="midnightblue" points="489.57,-102.083 493.07,-112.083 496.57,-102.083 489.57,-102.083"/>
</g>
<!-- Node21&#45;&gt;Node9 -->
<g id="edge24" class="edge"><title>Node21&#45;&gt;Node9</title>
<path fill="none" stroke="midnightblue" d="M555.7,-110.772C612.96,-100.891 690.34,-85.9903 701.07,-76 717.074,-61.0982 719.852,-33.5375 720.175,-19.5795"/>
<polygon fill="midnightblue" stroke="midnightblue" points="554.89,-107.36 545.623,-112.496 556.07,-114.26 554.89,-107.36"/>
</g>
</g>
</svg>
