<?xml version="1.0" encoding="UTF-8" standalone="no"?>
<!DOCTYPE svg PUBLIC "-//W3C//DTD SVG 1.1//EN"
 "http://www.w3.org/Graphics/SVG/1.1/DTD/svg11.dtd">
<!-- Generated by graphviz version 2.38.0 (20140413.2041)
 -->
<!-- Title: Engine/src/Game.cpp Pages: 1 -->
<svg width="543pt" height="308pt"
 viewBox="0.00 0.00 543.15 308.00" xmlns="http://www.w3.org/2000/svg" xmlns:xlink="http://www.w3.org/1999/xlink">
<g id="graph0" class="graph" transform="scale(1 1) rotate(0) translate(4 304)">
<title>Engine/src/Game.cpp</title>
<polygon fill="white" stroke="none" points="-4,4 -4,-304 539.151,-304 539.151,4 -4,4"/>
<!-- Node0 -->
<g id="node1" class="node"><title>Node0</title>
<polygon fill="#bfbfbf" stroke="black" points="356.651,-280.5 356.651,-299.5 467.651,-299.5 467.651,-280.5 356.651,-280.5"/>
<text text-anchor="middle" x="412.151" y="-287.5" font-family="Helvetica,sans-Serif" font-size="10.00">Engine/src/Game.cpp</text>
</g>
<!-- Node1 -->
<g id="node2" class="node"><title>Node1</title>
<g id="a_node2"><a xlink:href="Game_8h.html" target="_top" xlink:title="Game.h">
<polygon fill="white" stroke="black" points="131.651,-224.5 131.651,-243.5 182.651,-243.5 182.651,-224.5 131.651,-224.5"/>
<text text-anchor="middle" x="157.151" y="-231.5" font-family="Helvetica,sans-Serif" font-size="10.00">Game.h</text>
</a>
</g>
</g>
<!-- Node0&#45;&gt;Node1 -->
<g id="edge1" class="edge"><title>Node0&#45;&gt;Node1</title>
<path fill="none" stroke="midnightblue" d="M371.746,-280.444C322.524,-270.02 240.13,-252.572 193.046,-242.601"/>
<polygon fill="midnightblue" stroke="midnightblue" points="193.507,-239.121 182.999,-240.474 192.057,-245.969 193.507,-239.121"/>
</g>
<!-- Node14 -->
<g id="node15" class="node"><title>Node14</title>
<g id="a_node15"><a xlink:href="Error_8h.html" target="_top" xlink:title="Error.h">
<polygon fill="white" stroke="black" points="389.151,-224.5 389.151,-243.5 435.151,-243.5 435.151,-224.5 389.151,-224.5"/>
<text text-anchor="middle" x="412.151" y="-231.5" font-family="Helvetica,sans-Serif" font-size="10.00">Error.h</text>
</a>
</g>
</g>
<!-- Node0&#45;&gt;Node14 -->
<g id="edge17" class="edge"><title>Node0&#45;&gt;Node14</title>
<path fill="none" stroke="midnightblue" d="M412.151,-280.083C412.151,-273.006 412.151,-262.861 412.151,-253.986"/>
<polygon fill="midnightblue" stroke="midnightblue" points="415.652,-253.751 412.151,-243.751 408.652,-253.751 415.652,-253.751"/>
</g>
<!-- Node16 -->
<g id="node17" class="node"><title>Node16</title>
<polygon fill="white" stroke="#bfbfbf" points="457.151,-168.5 457.151,-187.5 505.151,-187.5 505.151,-168.5 457.151,-168.5"/>
<text text-anchor="middle" x="481.151" y="-175.5" font-family="Helvetica,sans-Serif" font-size="10.00">stdlib.h</text>
</g>
<!-- Node0&#45;&gt;Node16 -->
<g id="edge24" class="edge"><title>Node0&#45;&gt;Node16</title>
<path fill="none" stroke="midnightblue" d="M418.797,-280.217C425.465,-271.277 435.903,-256.931 444.151,-244 454.168,-228.297 464.576,-209.785 471.792,-196.542"/>
<polygon fill="midnightblue" stroke="midnightblue" points="474.961,-198.038 476.628,-187.575 468.8,-194.714 474.961,-198.038"/>
</g>
<!-- Node17 -->
<g id="node18" class="node"><title>Node17</title>
<g id="a_node18"><a xlink:href="Resources_8h.html" target="_top" xlink:title="Resources.h">
<polygon fill="white" stroke="black" points="229.151,-168.5 229.151,-187.5 301.151,-187.5 301.151,-168.5 229.151,-168.5"/>
<text text-anchor="middle" x="265.151" y="-175.5" font-family="Helvetica,sans-Serif" font-size="10.00">Resources.h</text>
</a>
</g>
</g>
<!-- Node0&#45;&gt;Node17 -->
<g id="edge20" class="edge"><title>Node0&#45;&gt;Node17</title>
<path fill="none" stroke="midnightblue" d="M400.617,-280.368C375.606,-261.653 316.135,-217.151 284.973,-193.832"/>
<polygon fill="midnightblue" stroke="midnightblue" points="286.736,-190.78 276.633,-187.591 282.542,-196.385 286.736,-190.78"/>
</g>
<!-- Node18 -->
<g id="node19" class="node"><title>Node18</title>
<polygon fill="white" stroke="#bfbfbf" points="491.151,-224.5 491.151,-243.5 535.151,-243.5 535.151,-224.5 491.151,-224.5"/>
<text text-anchor="middle" x="513.151" y="-231.5" font-family="Helvetica,sans-Serif" font-size="10.00">time.h</text>
</g>
<!-- Node0&#45;&gt;Node18 -->
<g id="edge25" class="edge"><title>Node0&#45;&gt;Node18</title>
<path fill="none" stroke="midnightblue" d="M428.379,-280.324C444.502,-271.703 469.452,-258.364 488.116,-248.386"/>
<polygon fill="midnightblue" stroke="midnightblue" points="489.796,-251.456 496.964,-243.655 486.495,-245.283 489.796,-251.456"/>
</g>
<!-- Node2 -->
<g id="node3" class="node"><title>Node2</title>
<polygon fill="white" stroke="#bfbfbf" points="252.651,-56.5 252.651,-75.5 293.651,-75.5 293.651,-56.5 252.651,-56.5"/>
<text text-anchor="middle" x="273.151" y="-63.5" font-family="Helvetica,sans-Serif" font-size="10.00">string</text>
</g>
<!-- Node1&#45;&gt;Node2 -->
<g id="edge2" class="edge"><title>Node1&#45;&gt;Node2</title>
<path fill="none" stroke="midnightblue" d="M153.586,-224.41C145.382,-203.144 127.673,-147.22 152.151,-112 172.341,-82.9516 213.63,-72.6168 242.327,-68.9621"/>
<polygon fill="midnightblue" stroke="midnightblue" points="243.066,-72.4033 252.639,-67.8634 242.324,-65.4427 243.066,-72.4033"/>
</g>
<!-- Node3 -->
<g id="node4" class="node"><title>Node3</title>
<polygon fill="white" stroke="#bfbfbf" points="161.651,-168.5 161.651,-187.5 202.651,-187.5 202.651,-168.5 161.651,-168.5"/>
<text text-anchor="middle" x="182.151" y="-175.5" font-family="Helvetica,sans-Serif" font-size="10.00">stack</text>
</g>
<!-- Node1&#45;&gt;Node3 -->
<g id="edge3" class="edge"><title>Node1&#45;&gt;Node3</title>
<path fill="none" stroke="midnightblue" d="M161.28,-224.083C164.665,-216.77 169.568,-206.181 173.77,-197.103"/>
<polygon fill="midnightblue" stroke="midnightblue" points="177.075,-198.296 178.1,-187.751 170.723,-195.355 177.075,-198.296"/>
</g>
<!-- Node4 -->
<g id="node5" class="node"><title>Node4</title>
<g id="a_node5"><a xlink:href="State_8h.html" target="_top" xlink:title="State.h">
<polygon fill="white" stroke="black" points="319.151,-168.5 319.151,-187.5 367.151,-187.5 367.151,-168.5 319.151,-168.5"/>
<text text-anchor="middle" x="343.151" y="-175.5" font-family="Helvetica,sans-Serif" font-size="10.00">State.h</text>
</a>
</g>
</g>
<!-- Node1&#45;&gt;Node4 -->
<g id="edge4" class="edge"><title>Node1&#45;&gt;Node4</title>
<path fill="none" stroke="midnightblue" d="M183.014,-225.492C215.952,-215.929 272.949,-199.381 309.312,-188.824"/>
<polygon fill="midnightblue" stroke="midnightblue" points="310.357,-192.166 318.984,-186.016 308.405,-185.443 310.357,-192.166"/>
</g>
<!-- Node7 -->
<g id="node8" class="node"><title>Node7</title>
<g id="a_node8"><a xlink:href="Vec2_8h.html" target="_top" xlink:title="Vec2.h">
<polygon fill="white" stroke="black" points="71.6515,-0.5 71.6515,-19.5 118.651,-19.5 118.651,-0.5 71.6515,-0.5"/>
<text text-anchor="middle" x="95.1515" y="-7.5" font-family="Helvetica,sans-Serif" font-size="10.00">Vec2.h</text>
</a>
</g>
</g>
<!-- Node1&#45;&gt;Node7 -->
<g id="edge16" class="edge"><title>Node1&#45;&gt;Node7</title>
<path fill="none" stroke="midnightblue" d="M131.582,-233.505C97.8837,-232.613 39.6667,-225.349 12.1515,-188 -27.3582,-134.37 42.4983,-58.9365 77.2498,-26.6537"/>
<polygon fill="midnightblue" stroke="midnightblue" points="79.8004,-29.0656 84.8564,-19.755 75.0978,-23.8804 79.8004,-29.0656"/>
</g>
<!-- Node11 -->
<g id="node12" class="node"><title>Node11</title>
<g id="a_node12"><a xlink:href="InputManager_8h.html" target="_top" xlink:title="InputManager.h">
<polygon fill="white" stroke="black" points="21.1515,-168.5 21.1515,-187.5 105.151,-187.5 105.151,-168.5 21.1515,-168.5"/>
<text text-anchor="middle" x="63.1515" y="-175.5" font-family="Helvetica,sans-Serif" font-size="10.00">InputManager.h</text>
</a>
</g>
</g>
<!-- Node1&#45;&gt;Node11 -->
<g id="edge12" class="edge"><title>Node1&#45;&gt;Node11</title>
<path fill="none" stroke="midnightblue" d="M142.049,-224.324C127.248,-215.822 104.457,-202.729 87.1693,-192.797"/>
<polygon fill="midnightblue" stroke="midnightblue" points="88.6312,-189.601 78.2167,-187.655 85.1443,-195.671 88.6312,-189.601"/>
</g>
<!-- Node5 -->
<g id="node6" class="node"><title>Node5</title>
<g id="a_node6"><a xlink:href="Gameobject_8h.html" target="_top" xlink:title="Gameobject.h">
<polygon fill="white" stroke="black" points="433.651,-112.5 433.651,-131.5 510.651,-131.5 510.651,-112.5 433.651,-112.5"/>
<text text-anchor="middle" x="472.151" y="-119.5" font-family="Helvetica,sans-Serif" font-size="10.00">Gameobject.h</text>
</a>
</g>
</g>
<!-- Node4&#45;&gt;Node5 -->
<g id="edge5" class="edge"><title>Node4&#45;&gt;Node5</title>
<path fill="none" stroke="midnightblue" d="M363.592,-168.444C384.822,-159.557 418.25,-145.563 442.406,-135.451"/>
<polygon fill="midnightblue" stroke="midnightblue" points="443.934,-138.606 451.807,-131.516 441.231,-132.149 443.934,-138.606"/>
</g>
<!-- Node9 -->
<g id="node10" class="node"><title>Node9</title>
<polygon fill="white" stroke="#bfbfbf" points="371.151,-112.5 371.151,-131.5 415.151,-131.5 415.151,-112.5 371.151,-112.5"/>
<text text-anchor="middle" x="393.151" y="-119.5" font-family="Helvetica,sans-Serif" font-size="10.00">vector</text>
</g>
<!-- Node4&#45;&gt;Node9 -->
<g id="edge10" class="edge"><title>Node4&#45;&gt;Node9</title>
<path fill="none" stroke="midnightblue" d="M351.408,-168.083C358.616,-160.298 369.261,-148.801 377.997,-139.367"/>
<polygon fill="midnightblue" stroke="midnightblue" points="380.823,-141.467 385.049,-131.751 375.686,-136.711 380.823,-141.467"/>
</g>
<!-- Node10 -->
<g id="node11" class="node"><title>Node10</title>
<polygon fill="white" stroke="#bfbfbf" points="301.151,-112.5 301.151,-131.5 353.151,-131.5 353.151,-112.5 301.151,-112.5"/>
<text text-anchor="middle" x="327.151" y="-119.5" font-family="Helvetica,sans-Serif" font-size="10.00">memory</text>
</g>
<!-- Node4&#45;&gt;Node10 -->
<g id="edge11" class="edge"><title>Node4&#45;&gt;Node10</title>
<path fill="none" stroke="midnightblue" d="M340.509,-168.083C338.366,-160.849 335.273,-150.409 332.602,-141.397"/>
<polygon fill="midnightblue" stroke="midnightblue" points="335.941,-140.345 329.744,-131.751 329.23,-142.333 335.941,-140.345"/>
</g>
<!-- Node5&#45;&gt;Node2 -->
<g id="edge9" class="edge"><title>Node5&#45;&gt;Node2</title>
<path fill="none" stroke="midnightblue" d="M440.619,-112.444C403.053,-102.25 340.727,-85.3371 303.631,-75.2707"/>
<polygon fill="midnightblue" stroke="midnightblue" points="304.446,-71.8654 293.878,-72.6243 302.613,-78.6211 304.446,-71.8654"/>
</g>
<!-- Node6 -->
<g id="node7" class="node"><title>Node6</title>
<g id="a_node7"><a xlink:href="Rect_8h.html" target="_top" xlink:title="Rect.h">
<polygon fill="white" stroke="black" points="380.151,-56.5 380.151,-75.5 426.151,-75.5 426.151,-56.5 380.151,-56.5"/>
<text text-anchor="middle" x="403.151" y="-63.5" font-family="Helvetica,sans-Serif" font-size="10.00">Rect.h</text>
</a>
</g>
</g>
<!-- Node5&#45;&gt;Node6 -->
<g id="edge6" class="edge"><title>Node5&#45;&gt;Node6</title>
<path fill="none" stroke="midnightblue" d="M461.065,-112.324C450.665,-104.185 434.891,-91.8395 422.43,-82.0874"/>
<polygon fill="midnightblue" stroke="midnightblue" points="424.471,-79.2407 414.439,-75.8339 420.157,-84.7533 424.471,-79.2407"/>
</g>
<!-- Node6&#45;&gt;Node7 -->
<g id="edge7" class="edge"><title>Node6&#45;&gt;Node7</title>
<path fill="none" stroke="midnightblue" d="M380.001,-60.9412C326.176,-51.5043 192.397,-28.0495 129.22,-16.9731"/>
<polygon fill="midnightblue" stroke="midnightblue" points="129.448,-13.4597 118.994,-15.1801 128.239,-20.3545 129.448,-13.4597"/>
</g>
<!-- Node8 -->
<g id="node9" class="node"><title>Node8</title>
<polygon fill="white" stroke="#bfbfbf" points="381.151,-0.5 381.151,-19.5 425.151,-19.5 425.151,-0.5 381.151,-0.5"/>
<text text-anchor="middle" x="403.151" y="-7.5" font-family="Helvetica,sans-Serif" font-size="10.00">cmath</text>
</g>
<!-- Node6&#45;&gt;Node8 -->
<g id="edge8" class="edge"><title>Node6&#45;&gt;Node8</title>
<path fill="none" stroke="midnightblue" d="M403.151,-56.083C403.151,-49.0059 403.151,-38.8611 403.151,-29.9865"/>
<polygon fill="midnightblue" stroke="midnightblue" points="406.652,-29.751 403.151,-19.7511 399.652,-29.7511 406.652,-29.751"/>
</g>
<!-- Node11&#45;&gt;Node7 -->
<g id="edge13" class="edge"><title>Node11&#45;&gt;Node7</title>
<path fill="none" stroke="midnightblue" d="M65.9675,-168.456C68.8486,-159.465 73.2959,-144.861 76.1515,-132 84.1132,-96.1424 89.981,-53.5854 92.9558,-29.695"/>
<polygon fill="midnightblue" stroke="midnightblue" points="96.4533,-29.9257 94.1802,-19.5776 89.504,-29.0846 96.4533,-29.9257"/>
</g>
<!-- Node12 -->
<g id="node13" class="node"><title>Node12</title>
<polygon fill="white" stroke="#bfbfbf" points="161.651,-112.5 161.651,-131.5 244.651,-131.5 244.651,-112.5 161.651,-112.5"/>
<text text-anchor="middle" x="203.151" y="-119.5" font-family="Helvetica,sans-Serif" font-size="10.00">unordered_map</text>
</g>
<!-- Node11&#45;&gt;Node12 -->
<g id="edge14" class="edge"><title>Node11&#45;&gt;Node12</title>
<path fill="none" stroke="midnightblue" d="M85.3349,-168.444C108.58,-159.478 145.3,-145.314 171.567,-135.183"/>
<polygon fill="midnightblue" stroke="midnightblue" points="173.001,-138.381 181.072,-131.516 170.482,-131.85 173.001,-138.381"/>
</g>
<!-- Node13 -->
<g id="node14" class="node"><title>Node13</title>
<polygon fill="white" stroke="#bfbfbf" points="21.1515,-112.5 21.1515,-131.5 67.1515,-131.5 67.1515,-112.5 21.1515,-112.5"/>
<text text-anchor="middle" x="44.1515" y="-119.5" font-family="Helvetica,sans-Serif" font-size="10.00">cstdint</text>
</g>
<!-- Node11&#45;&gt;Node13 -->
<g id="edge15" class="edge"><title>Node11&#45;&gt;Node13</title>
<path fill="none" stroke="midnightblue" d="M60.014,-168.083C57.4686,-160.849 53.7953,-150.409 50.6244,-141.397"/>
<polygon fill="midnightblue" stroke="midnightblue" points="53.8513,-140.023 47.2306,-131.751 47.2481,-142.346 53.8513,-140.023"/>
</g>
<!-- Node15 -->
<g id="node16" class="node"><title>Node15</title>
<polygon fill="white" stroke="#bfbfbf" points="385.151,-168.5 385.151,-187.5 439.151,-187.5 439.151,-168.5 385.151,-168.5"/>
<text text-anchor="middle" x="412.151" y="-175.5" font-family="Helvetica,sans-Serif" font-size="10.00">iostream</text>
</g>
<!-- Node14&#45;&gt;Node15 -->
<g id="edge18" class="edge"><title>Node14&#45;&gt;Node15</title>
<path fill="none" stroke="midnightblue" d="M412.151,-224.083C412.151,-217.006 412.151,-206.861 412.151,-197.986"/>
<polygon fill="midnightblue" stroke="midnightblue" points="415.652,-197.751 412.151,-187.751 408.652,-197.751 415.652,-197.751"/>
</g>
<!-- Node14&#45;&gt;Node16 -->
<g id="edge19" class="edge"><title>Node14&#45;&gt;Node16</title>
<path fill="none" stroke="midnightblue" d="M423.238,-224.324C433.637,-216.185 449.412,-203.839 461.873,-194.087"/>
<polygon fill="midnightblue" stroke="midnightblue" points="464.146,-196.753 469.864,-187.834 459.832,-191.241 464.146,-196.753"/>
</g>
<!-- Node17&#45;&gt;Node2 -->
<g id="edge21" class="edge"><title>Node17&#45;&gt;Node2</title>
<path fill="none" stroke="midnightblue" d="M265.779,-168.368C267.07,-150.617 270.048,-109.666 271.799,-85.5974"/>
<polygon fill="midnightblue" stroke="midnightblue" points="275.292,-85.819 272.527,-75.5914 268.31,-85.3112 275.292,-85.819"/>
</g>
<!-- Node17&#45;&gt;Node10 -->
<g id="edge23" class="edge"><title>Node17&#45;&gt;Node10</title>
<path fill="none" stroke="midnightblue" d="M275.113,-168.324C284.278,-160.341 298.089,-148.313 309.18,-138.653"/>
<polygon fill="midnightblue" stroke="midnightblue" points="311.767,-141.041 317.009,-131.834 307.169,-135.762 311.767,-141.041"/>
</g>
<!-- Node17&#45;&gt;Node12 -->
<g id="edge22" class="edge"><title>Node17&#45;&gt;Node12</title>
<path fill="none" stroke="midnightblue" d="M255.19,-168.324C246.025,-160.341 232.214,-148.313 221.123,-138.653"/>
<polygon fill="midnightblue" stroke="midnightblue" points="223.134,-135.762 213.294,-131.834 218.536,-141.041 223.134,-135.762"/>
</g>
</g>
</svg>
