<?xml version="1.0" encoding="UTF-8" standalone="no"?>
<!DOCTYPE svg PUBLIC "-//W3C//DTD SVG 1.1//EN"
 "http://www.w3.org/Graphics/SVG/1.1/DTD/svg11.dtd">
<!-- Generated by graphviz version 2.38.0 (20140413.2041)
 -->
<!-- Title: Engine/include/Game.h Pages: 1 -->
<svg width="1573pt" height="252pt"
 viewBox="0.00 0.00 1572.62 252.00" xmlns="http://www.w3.org/2000/svg" xmlns:xlink="http://www.w3.org/1999/xlink">
<g id="graph0" class="graph" transform="scale(1 1) rotate(0) translate(4 248)">
<title>Engine/include/Game.h</title>
<polygon fill="white" stroke="none" points="-4,4 -4,-248 1568.62,-248 1568.62,4 -4,4"/>
<!-- Node17 -->
<g id="node1" class="node"><title>Node17</title>
<polygon fill="#bfbfbf" stroke="black" points="688.62,-224.5 688.62,-243.5 806.62,-243.5 806.62,-224.5 688.62,-224.5"/>
<text text-anchor="middle" x="747.62" y="-231.5" font-family="Helvetica,sans-Serif" font-size="10.00">Engine/include/Game.h</text>
</g>
<!-- Node18 -->
<g id="node2" class="node"><title>Node18</title>
<g id="a_node2"><a xlink:href="Text_8h.html" target="_top" xlink:title="Engine/include/Text.h">
<polygon fill="white" stroke="black" points="165.12,-168.5 165.12,-187.5 276.12,-187.5 276.12,-168.5 165.12,-168.5"/>
<text text-anchor="middle" x="220.62" y="-175.5" font-family="Helvetica,sans-Serif" font-size="10.00">Engine/include/Text.h</text>
</a>
</g>
</g>
<!-- Node17&#45;&gt;Node18 -->
<g id="edge1" class="edge"><title>Node17&#45;&gt;Node18</title>
<path fill="none" stroke="midnightblue" d="M678.301,-226.126C590.921,-217.426 436.111,-201.897 303.62,-188 294.827,-187.078 285.512,-186.084 276.422,-185.105"/>
<polygon fill="midnightblue" stroke="midnightblue" points="678.06,-229.619 688.357,-227.127 678.753,-222.654 678.06,-229.619"/>
</g>
<!-- Node22 -->
<g id="node6" class="node"><title>Node22</title>
<g id="a_node6"><a xlink:href="StageState_8cpp.html" target="_top" xlink:title="Game/src/StageState.cpp">
<polygon fill="white" stroke="black" points="12.62,-0.5 12.62,-19.5 142.62,-19.5 142.62,-0.5 12.62,-0.5"/>
<text text-anchor="middle" x="77.62" y="-7.5" font-family="Helvetica,sans-Serif" font-size="10.00">Game/src/StageState.cpp</text>
</a>
</g>
</g>
<!-- Node17&#45;&gt;Node22 -->
<g id="edge17" class="edge"><title>Node17&#45;&gt;Node22</title>
<path fill="none" stroke="midnightblue" d="M678.255,-230.599C543.919,-225.476 252.923,-211.946 155.62,-188 94.5323,-172.966 69.7239,-176.862 25.62,-132 6.75717,-112.813 7.82975,-102.397 2.62005,-76 0.898949,-67.2793 -1.7595,-63.7351 2.62005,-56 12.7949,-38.0293 33.326,-26.4522 50.3382,-19.5474"/>
<polygon fill="midnightblue" stroke="midnightblue" points="678.304,-234.103 688.429,-230.982 678.568,-227.108 678.304,-234.103"/>
</g>
<!-- Node23 -->
<g id="node7" class="node"><title>Node23</title>
<g id="a_node7"><a xlink:href="TitleState_8cpp.html" target="_top" xlink:title="Game/src/TitleState.cpp">
<polygon fill="white" stroke="black" points="207.12,-0.5 207.12,-19.5 330.12,-19.5 330.12,-0.5 207.12,-0.5"/>
<text text-anchor="middle" x="268.62" y="-7.5" font-family="Helvetica,sans-Serif" font-size="10.00">Game/src/TitleState.cpp</text>
</a>
</g>
</g>
<!-- Node17&#45;&gt;Node23 -->
<g id="edge18" class="edge"><title>Node17&#45;&gt;Node23</title>
<path fill="none" stroke="midnightblue" d="M678.314,-229.567C568.003,-223.491 362.254,-209.429 336.62,-188 289.686,-148.765 323.114,-111.608 297.62,-56 291.423,-42.4821 281.644,-28.2835 275.181,-19.5354"/>
<polygon fill="midnightblue" stroke="midnightblue" points="678.183,-233.064 688.358,-230.112 678.562,-226.075 678.183,-233.064"/>
</g>
<!-- Node25 -->
<g id="node9" class="node"><title>Node25</title>
<g id="a_node9"><a xlink:href="Camera_8cpp.html" target="_top" xlink:title="Engine/src/Camera.cpp">
<polygon fill="white" stroke="black" points="346.12,-168.5 346.12,-187.5 465.12,-187.5 465.12,-168.5 346.12,-168.5"/>
<text text-anchor="middle" x="405.62" y="-175.5" font-family="Helvetica,sans-Serif" font-size="10.00">Engine/src/Camera.cpp</text>
</a>
</g>
</g>
<!-- Node17&#45;&gt;Node25 -->
<g id="edge9" class="edge"><title>Node17&#45;&gt;Node25</title>
<path fill="none" stroke="midnightblue" d="M683.36,-222.854C618.743,-212.651 520.239,-197.098 459.557,-187.516"/>
<polygon fill="midnightblue" stroke="midnightblue" points="683.006,-226.341 693.429,-224.444 684.097,-219.427 683.006,-226.341"/>
</g>
<!-- Node26 -->
<g id="node10" class="node"><title>Node26</title>
<g id="a_node10"><a xlink:href="Game_8cpp.html" target="_top" xlink:title="Engine/src/Game.cpp">
<polygon fill="white" stroke="black" points="483.12,-168.5 483.12,-187.5 594.12,-187.5 594.12,-168.5 483.12,-168.5"/>
<text text-anchor="middle" x="538.62" y="-175.5" font-family="Helvetica,sans-Serif" font-size="10.00">Engine/src/Game.cpp</text>
</a>
</g>
</g>
<!-- Node17&#45;&gt;Node26 -->
<g id="edge10" class="edge"><title>Node17&#45;&gt;Node26</title>
<path fill="none" stroke="midnightblue" d="M704.636,-221.894C665.168,-211.697 607.52,-196.802 571.582,-187.516"/>
<polygon fill="midnightblue" stroke="midnightblue" points="703.946,-225.331 714.503,-224.444 705.697,-218.553 703.946,-225.331"/>
</g>
<!-- Node27 -->
<g id="node11" class="node"><title>Node27</title>
<g id="a_node11"><a xlink:href="Resources_8cpp.html" target="_top" xlink:title="Engine/src/Resources.cpp">
<polygon fill="white" stroke="black" points="612.62,-168.5 612.62,-187.5 744.62,-187.5 744.62,-168.5 612.62,-168.5"/>
<text text-anchor="middle" x="678.62" y="-175.5" font-family="Helvetica,sans-Serif" font-size="10.00">Engine/src/Resources.cpp</text>
</a>
</g>
</g>
<!-- Node17&#45;&gt;Node27 -->
<g id="edge11" class="edge"><title>Node17&#45;&gt;Node27</title>
<path fill="none" stroke="midnightblue" d="M728.582,-218.101C716.164,-208.382 700.377,-196.027 689.908,-187.834"/>
<polygon fill="midnightblue" stroke="midnightblue" points="726.502,-220.917 736.534,-224.324 730.816,-215.405 726.502,-220.917"/>
</g>
<!-- Node28 -->
<g id="node12" class="node"><title>Node28</title>
<g id="a_node12"><a xlink:href="Sprite_8cpp.html" target="_top" xlink:title="Engine/src/Sprite.cpp">
<polygon fill="white" stroke="black" points="762.62,-168.5 762.62,-187.5 872.62,-187.5 872.62,-168.5 762.62,-168.5"/>
<text text-anchor="middle" x="817.62" y="-175.5" font-family="Helvetica,sans-Serif" font-size="10.00">Engine/src/Sprite.cpp</text>
</a>
</g>
</g>
<!-- Node17&#45;&gt;Node28 -->
<g id="edge12" class="edge"><title>Node17&#45;&gt;Node28</title>
<path fill="none" stroke="midnightblue" d="M766.934,-218.101C779.532,-208.382 795.548,-196.027 806.169,-187.834"/>
<polygon fill="midnightblue" stroke="midnightblue" points="764.647,-215.445 758.867,-224.324 768.922,-220.987 764.647,-215.445"/>
</g>
<!-- Node29 -->
<g id="node13" class="node"><title>Node29</title>
<g id="a_node13"><a xlink:href="Tileset_8cpp.html" target="_top" xlink:title="Engine/src/Tileset.cpp">
<polygon fill="white" stroke="black" points="890.62,-168.5 890.62,-187.5 1004.62,-187.5 1004.62,-168.5 890.62,-168.5"/>
<text text-anchor="middle" x="947.62" y="-175.5" font-family="Helvetica,sans-Serif" font-size="10.00">Engine/src/Tileset.cpp</text>
</a>
</g>
</g>
<!-- Node17&#45;&gt;Node29 -->
<g id="edge13" class="edge"><title>Node17&#45;&gt;Node29</title>
<path fill="none" stroke="midnightblue" d="M788.994,-221.829C826.756,-211.633 881.76,-196.782 916.078,-187.516"/>
<polygon fill="midnightblue" stroke="midnightblue" points="788.053,-218.458 779.311,-224.444 789.877,-225.216 788.053,-218.458"/>
</g>
<!-- Node30 -->
<g id="node14" class="node"><title>Node30</title>
<g id="a_node14"><a xlink:href="UIelement_8cpp.html" target="_top" xlink:title="Engine/src/UIelement.cpp">
<polygon fill="white" stroke="black" points="1022.62,-168.5 1022.62,-187.5 1152.62,-187.5 1152.62,-168.5 1022.62,-168.5"/>
<text text-anchor="middle" x="1087.62" y="-175.5" font-family="Helvetica,sans-Serif" font-size="10.00">Engine/src/UIelement.cpp</text>
</a>
</g>
</g>
<!-- Node17&#45;&gt;Node30 -->
<g id="edge14" class="edge"><title>Node17&#45;&gt;Node30</title>
<path fill="none" stroke="midnightblue" d="M811.504,-222.854C875.744,-212.651 973.671,-197.098 1034,-187.516"/>
<polygon fill="midnightblue" stroke="midnightblue" points="810.821,-219.418 801.494,-224.444 811.919,-226.332 810.821,-219.418"/>
</g>
<!-- Node31 -->
<g id="node15" class="node"><title>Node31</title>
<g id="a_node15"><a xlink:href="UItext_8cpp.html" target="_top" xlink:title="Engine/src/UItext.cpp">
<polygon fill="white" stroke="black" points="1170.62,-168.5 1170.62,-187.5 1282.62,-187.5 1282.62,-168.5 1170.62,-168.5"/>
<text text-anchor="middle" x="1226.62" y="-175.5" font-family="Helvetica,sans-Serif" font-size="10.00">Engine/src/UItext.cpp</text>
</a>
</g>
</g>
<!-- Node17&#45;&gt;Node31 -->
<g id="edge15" class="edge"><title>Node17&#45;&gt;Node31</title>
<path fill="none" stroke="midnightblue" d="M816.618,-226.125C898.854,-217.786 1040.39,-202.978 1161.62,-188 1164.56,-187.637 1167.57,-187.255 1170.61,-186.861"/>
<polygon fill="midnightblue" stroke="midnightblue" points="816.24,-222.645 806.643,-227.134 816.945,-229.61 816.24,-222.645"/>
</g>
<!-- Node32 -->
<g id="node16" class="node"><title>Node32</title>
<g id="a_node16"><a xlink:href="main_8cpp.html" target="_top" xlink:title="Game/src/main.cpp">
<polygon fill="white" stroke="black" points="1300.62,-168.5 1300.62,-187.5 1402.62,-187.5 1402.62,-168.5 1300.62,-168.5"/>
<text text-anchor="middle" x="1351.62" y="-175.5" font-family="Helvetica,sans-Serif" font-size="10.00">Game/src/main.cpp</text>
</a>
</g>
</g>
<!-- Node17&#45;&gt;Node32 -->
<g id="edge16" class="edge"><title>Node17&#45;&gt;Node32</title>
<path fill="none" stroke="midnightblue" d="M816.926,-228.745C920.442,-222.056 1121.49,-207.774 1291.62,-188 1294.55,-187.659 1297.56,-187.286 1300.59,-186.89"/>
<polygon fill="midnightblue" stroke="midnightblue" points="816.669,-225.255 806.914,-229.388 817.118,-232.24 816.669,-225.255"/>
</g>
<!-- Node33 -->
<g id="node17" class="node"><title>Node33</title>
<g id="a_node17"><a xlink:href="WaveManager_8cpp.html" target="_top" xlink:title="Game/src/WaveManager.cpp">
<polygon fill="white" stroke="black" points="1420.62,-168.5 1420.62,-187.5 1564.62,-187.5 1564.62,-168.5 1420.62,-168.5"/>
<text text-anchor="middle" x="1492.62" y="-175.5" font-family="Helvetica,sans-Serif" font-size="10.00">Game/src/WaveManager.cpp</text>
</a>
</g>
</g>
<!-- Node17&#45;&gt;Node33 -->
<g id="edge19" class="edge"><title>Node17&#45;&gt;Node33</title>
<path fill="none" stroke="midnightblue" d="M816.977,-229.284C937.863,-222.587 1194.96,-207.369 1411.62,-188 1414.44,-187.748 1417.31,-187.48 1420.21,-187.201"/>
<polygon fill="midnightblue" stroke="midnightblue" points="816.55,-225.802 806.758,-229.848 816.936,-232.791 816.55,-225.802"/>
</g>
<!-- Node19 -->
<g id="node3" class="node"><title>Node19</title>
<g id="a_node3"><a xlink:href="Text_8cpp.html" target="_top" xlink:title="Engine/src/Text.cpp">
<polygon fill="white" stroke="black" points="34.62,-112.5 34.62,-131.5 138.62,-131.5 138.62,-112.5 34.62,-112.5"/>
<text text-anchor="middle" x="86.62" y="-119.5" font-family="Helvetica,sans-Serif" font-size="10.00">Engine/src/Text.cpp</text>
</a>
</g>
</g>
<!-- Node18&#45;&gt;Node19 -->
<g id="edge2" class="edge"><title>Node18&#45;&gt;Node19</title>
<path fill="none" stroke="midnightblue" d="M189.943,-164.638C164.797,-154.504 129.866,-140.427 107.753,-131.516"/>
<polygon fill="midnightblue" stroke="midnightblue" points="188.804,-167.952 199.387,-168.444 191.42,-161.459 188.804,-167.952"/>
</g>
<!-- Node20 -->
<g id="node4" class="node"><title>Node20</title>
<g id="a_node4"><a xlink:href="EndState_8h.html" target="_top" xlink:title="Game/include/EndState.h">
<polygon fill="white" stroke="black" points="156.62,-112.5 156.62,-131.5 284.62,-131.5 284.62,-112.5 156.62,-112.5"/>
<text text-anchor="middle" x="220.62" y="-119.5" font-family="Helvetica,sans-Serif" font-size="10.00">Game/include/EndState.h</text>
</a>
</g>
</g>
<!-- Node18&#45;&gt;Node20 -->
<g id="edge3" class="edge"><title>Node18&#45;&gt;Node20</title>
<path fill="none" stroke="midnightblue" d="M220.62,-157.805C220.62,-148.91 220.62,-138.78 220.62,-131.751"/>
<polygon fill="midnightblue" stroke="midnightblue" points="217.12,-158.083 220.62,-168.083 224.12,-158.083 217.12,-158.083"/>
</g>
<!-- Node21 -->
<g id="node5" class="node"><title>Node21</title>
<g id="a_node5"><a xlink:href="StageState_8h.html" target="_top" xlink:title="Game/include/StageState.h">
<polygon fill="white" stroke="black" points="152.12,-56.5 152.12,-75.5 289.12,-75.5 289.12,-56.5 152.12,-56.5"/>
<text text-anchor="middle" x="220.62" y="-63.5" font-family="Helvetica,sans-Serif" font-size="10.00">Game/include/StageState.h</text>
</a>
</g>
</g>
<!-- Node20&#45;&gt;Node21 -->
<g id="edge4" class="edge"><title>Node20&#45;&gt;Node21</title>
<path fill="none" stroke="midnightblue" d="M214.148,-102.101C213.516,-93.1357 213.963,-82.8579 215.489,-75.7511"/>
<polygon fill="midnightblue" stroke="midnightblue" points="210.686,-102.622 215.454,-112.083 217.627,-101.713 210.686,-102.622"/>
</g>
<!-- Node24 -->
<g id="node8" class="node"><title>Node24</title>
<g id="a_node8"><a xlink:href="EndState_8cpp.html" target="_top" xlink:title="Game/src/EndState.cpp">
<polygon fill="white" stroke="black" points="11.62,-56.5 11.62,-75.5 133.62,-75.5 133.62,-56.5 11.62,-56.5"/>
<text text-anchor="middle" x="72.62" y="-63.5" font-family="Helvetica,sans-Serif" font-size="10.00">Game/src/EndState.cpp</text>
</a>
</g>
</g>
<!-- Node20&#45;&gt;Node24 -->
<g id="edge8" class="edge"><title>Node20&#45;&gt;Node24</title>
<path fill="none" stroke="midnightblue" d="M187.473,-108.906C159.648,-98.7536 120.6,-84.5063 95.9614,-75.5164"/>
<polygon fill="midnightblue" stroke="midnightblue" points="186.575,-112.304 197.169,-112.444 188.974,-105.728 186.575,-112.304"/>
</g>
<!-- Node21&#45;&gt;Node20 -->
<g id="edge5" class="edge"><title>Node21&#45;&gt;Node20</title>
<path fill="none" stroke="midnightblue" d="M227.078,-85.6911C227.726,-94.6353 227.296,-104.927 225.786,-112.083"/>
<polygon fill="midnightblue" stroke="midnightblue" points="230.543,-85.2002 225.751,-75.7511 223.605,-86.1262 230.543,-85.2002"/>
</g>
<!-- Node21&#45;&gt;Node22 -->
<g id="edge6" class="edge"><title>Node21&#45;&gt;Node22</title>
<path fill="none" stroke="midnightblue" d="M188.593,-52.9058C161.708,-42.7536 123.979,-28.5063 100.173,-19.5164"/>
<polygon fill="midnightblue" stroke="midnightblue" points="187.37,-56.1851 197.961,-56.4435 189.843,-49.6364 187.37,-56.1851"/>
</g>
<!-- Node21&#45;&gt;Node23 -->
<g id="edge7" class="edge"><title>Node21&#45;&gt;Node23</title>
<path fill="none" stroke="midnightblue" d="M235.348,-48.4314C243.76,-38.9673 253.969,-27.4827 260.841,-19.7511"/>
<polygon fill="midnightblue" stroke="midnightblue" points="232.574,-46.2836 228.546,-56.083 237.806,-50.9342 232.574,-46.2836"/>
</g>
</g>
</svg>
