<?xml version="1.0" encoding="UTF-8" standalone="no"?>
<!DOCTYPE svg PUBLIC "-//W3C//DTD SVG 1.1//EN"
 "http://www.w3.org/Graphics/SVG/1.1/DTD/svg11.dtd">
<!-- Generated by graphviz version 2.38.0 (20140413.2041)
 -->
<!-- Title: Engine/src/Gameobject.cpp Pages: 1 -->
<svg width="163pt" height="196pt"
 viewBox="0.00 0.00 163.00 196.00" xmlns="http://www.w3.org/2000/svg" xmlns:xlink="http://www.w3.org/1999/xlink">
<g id="graph0" class="graph" transform="scale(1 1) rotate(0) translate(4 192)">
<title>Engine/src/Gameobject.cpp</title>
<polygon fill="white" stroke="none" points="-4,4 -4,-192 159,-192 159,4 -4,4"/>
<!-- Node0 -->
<g id="node1" class="node"><title>Node0</title>
<polygon fill="#bfbfbf" stroke="black" points="18,-168.5 18,-187.5 155,-187.5 155,-168.5 18,-168.5"/>
<text text-anchor="middle" x="86.5" y="-175.5" font-family="Helvetica,sans-Serif" font-size="10.00">Engine/src/Gameobject.cpp</text>
</g>
<!-- Node1 -->
<g id="node2" class="node"><title>Node1</title>
<g id="a_node2"><a xlink:href="Gameobject_8h.html" target="_top" xlink:title="Gameobject.h">
<polygon fill="white" stroke="black" points="48,-112.5 48,-131.5 125,-131.5 125,-112.5 48,-112.5"/>
<text text-anchor="middle" x="86.5" y="-119.5" font-family="Helvetica,sans-Serif" font-size="10.00">Gameobject.h</text>
</a>
</g>
</g>
<!-- Node0&#45;&gt;Node1 -->
<g id="edge1" class="edge"><title>Node0&#45;&gt;Node1</title>
<path fill="none" stroke="midnightblue" d="M86.5,-168.083C86.5,-161.006 86.5,-150.861 86.5,-141.986"/>
<polygon fill="midnightblue" stroke="midnightblue" points="90.0001,-141.751 86.5,-131.751 83.0001,-141.751 90.0001,-141.751"/>
</g>
<!-- Node2 -->
<g id="node3" class="node"><title>Node2</title>
<g id="a_node3"><a xlink:href="Rect_8h.html" target="_top" xlink:title="Rect.h">
<polygon fill="white" stroke="black" points="32.5,-56.5 32.5,-75.5 78.5,-75.5 78.5,-56.5 32.5,-56.5"/>
<text text-anchor="middle" x="55.5" y="-63.5" font-family="Helvetica,sans-Serif" font-size="10.00">Rect.h</text>
</a>
</g>
</g>
<!-- Node1&#45;&gt;Node2 -->
<g id="edge2" class="edge"><title>Node1&#45;&gt;Node2</title>
<path fill="none" stroke="midnightblue" d="M81.381,-112.083C77.0925,-104.613 70.8418,-93.7244 65.5577,-84.5199"/>
<polygon fill="midnightblue" stroke="midnightblue" points="68.5379,-82.6811 60.5238,-75.7511 62.4671,-86.1662 68.5379,-82.6811"/>
</g>
<!-- Node5 -->
<g id="node6" class="node"><title>Node5</title>
<polygon fill="white" stroke="#bfbfbf" points="97,-56.5 97,-75.5 138,-75.5 138,-56.5 97,-56.5"/>
<text text-anchor="middle" x="117.5" y="-63.5" font-family="Helvetica,sans-Serif" font-size="10.00">string</text>
</g>
<!-- Node1&#45;&gt;Node5 -->
<g id="edge5" class="edge"><title>Node1&#45;&gt;Node5</title>
<path fill="none" stroke="midnightblue" d="M91.619,-112.083C95.9075,-104.613 102.158,-93.7244 107.442,-84.5199"/>
<polygon fill="midnightblue" stroke="midnightblue" points="110.533,-86.1662 112.476,-75.7511 104.462,-82.6811 110.533,-86.1662"/>
</g>
<!-- Node3 -->
<g id="node4" class="node"><title>Node3</title>
<g id="a_node4"><a xlink:href="Vec2_8h.html" target="_top" xlink:title="Vec2.h">
<polygon fill="white" stroke="black" points="0,-0.5 0,-19.5 47,-19.5 47,-0.5 0,-0.5"/>
<text text-anchor="middle" x="23.5" y="-7.5" font-family="Helvetica,sans-Serif" font-size="10.00">Vec2.h</text>
</a>
</g>
</g>
<!-- Node2&#45;&gt;Node3 -->
<g id="edge3" class="edge"><title>Node2&#45;&gt;Node3</title>
<path fill="none" stroke="midnightblue" d="M50.2159,-56.083C45.789,-48.6127 39.3367,-37.7244 33.8821,-28.5199"/>
<polygon fill="midnightblue" stroke="midnightblue" points="36.7949,-26.5697 28.6858,-19.7511 30.7729,-30.1383 36.7949,-26.5697"/>
</g>
<!-- Node4 -->
<g id="node5" class="node"><title>Node4</title>
<polygon fill="white" stroke="#bfbfbf" points="65.5,-0.5 65.5,-19.5 109.5,-19.5 109.5,-0.5 65.5,-0.5"/>
<text text-anchor="middle" x="87.5" y="-7.5" font-family="Helvetica,sans-Serif" font-size="10.00">cmath</text>
</g>
<!-- Node2&#45;&gt;Node4 -->
<g id="edge4" class="edge"><title>Node2&#45;&gt;Node4</title>
<path fill="none" stroke="midnightblue" d="M60.7841,-56.083C65.211,-48.6127 71.6633,-37.7244 77.1179,-28.5199"/>
<polygon fill="midnightblue" stroke="midnightblue" points="80.2271,-30.1383 82.3142,-19.7511 74.2051,-26.5697 80.2271,-30.1383"/>
</g>
</g>
</svg>
