<?xml version="1.0" encoding="UTF-8" standalone="no"?>
<!DOCTYPE svg PUBLIC "-//W3C//DTD SVG 1.1//EN"
 "http://www.w3.org/Graphics/SVG/1.1/DTD/svg11.dtd">
<!-- Generated by graphviz version 2.38.0 (20140413.2041)
 -->
<!-- Title: Engine/include/GameObject.h Pages: 1 -->
<svg width="2551pt" height="308pt"
 viewBox="0.00 0.00 2551.29 308.00" xmlns="http://www.w3.org/2000/svg" xmlns:xlink="http://www.w3.org/1999/xlink">
<g id="graph0" class="graph" transform="scale(1 1) rotate(0) translate(4 304)">
<title>Engine/include/GameObject.h</title>
<polygon fill="white" stroke="none" points="-4,4 -4,-304 2547.29,-304 2547.29,4 -4,4"/>
<!-- Node1 -->
<g id="node1" class="node"><title>Node1</title>
<polygon fill="#bfbfbf" stroke="black" points="795.289,-280.5 795.289,-299.5 941.289,-299.5 941.289,-280.5 795.289,-280.5"/>
<text text-anchor="middle" x="868.289" y="-287.5" font-family="Helvetica,sans-Serif" font-size="10.00">Engine/include/GameObject.h</text>
</g>
<!-- Node2 -->
<g id="node2" class="node"><title>Node2</title>
<g id="a_node2"><a xlink:href="Component_8h.html" target="_top" xlink:title="Engine/include/Component.h">
<polygon fill="white" stroke="black" points="317.289,-224.5 317.289,-243.5 459.289,-243.5 459.289,-224.5 317.289,-224.5"/>
<text text-anchor="middle" x="388.289" y="-231.5" font-family="Helvetica,sans-Serif" font-size="10.00">Engine/include/Component.h</text>
</a>
</g>
</g>
<!-- Node1&#45;&gt;Node2 -->
<g id="edge1" class="edge"><title>Node1&#45;&gt;Node2</title>
<path fill="none" stroke="midnightblue" d="M785.012,-280.21C692.852,-270.085 546.008,-253.563 459.15,-243.544"/>
<polygon fill="midnightblue" stroke="midnightblue" points="784.818,-283.709 795.14,-281.32 785.581,-276.751 784.818,-283.709"/>
</g>
<!-- Node12 -->
<g id="node12" class="node"><title>Node12</title>
<g id="a_node12"><a xlink:href="Animation_8h.html" target="_top" xlink:title="Engine/include/Animation.h">
<polygon fill="white" stroke="black" points="41.7893,-224.5 41.7893,-243.5 176.789,-243.5 176.789,-224.5 41.7893,-224.5"/>
<text text-anchor="middle" x="109.289" y="-231.5" font-family="Helvetica,sans-Serif" font-size="10.00">Engine/include/Animation.h</text>
</a>
</g>
</g>
<!-- Node1&#45;&gt;Node12 -->
<g id="edge12" class="edge"><title>Node1&#45;&gt;Node12</title>
<path fill="none" stroke="midnightblue" d="M784.996,-283.074C633.533,-272.298 315.843,-249.696 176.838,-239.806"/>
<polygon fill="midnightblue" stroke="midnightblue" points="784.946,-286.579 795.169,-283.798 785.442,-279.597 784.946,-286.579"/>
</g>
<!-- Node14 -->
<g id="node14" class="node"><title>Node14</title>
<g id="a_node14"><a xlink:href="Camera_8h.html" target="_top" xlink:title="Engine/include/Camera.h">
<polygon fill="white" stroke="black" points="1117.29,-168.5 1117.29,-187.5 1243.29,-187.5 1243.29,-168.5 1117.29,-168.5"/>
<text text-anchor="middle" x="1180.29" y="-175.5" font-family="Helvetica,sans-Serif" font-size="10.00">Engine/include/Camera.h</text>
</a>
</g>
</g>
<!-- Node1&#45;&gt;Node14 -->
<g id="edge14" class="edge"><title>Node1&#45;&gt;Node14</title>
<path fill="none" stroke="midnightblue" d="M937.879,-278.716C977.055,-271.609 1026.38,-260.429 1068.29,-244 1107.01,-228.821 1148.26,-201.635 1168.16,-187.723"/>
<polygon fill="midnightblue" stroke="midnightblue" points="937.129,-275.294 927.89,-280.48 938.346,-282.188 937.129,-275.294"/>
</g>
<!-- Node23 -->
<g id="node23" class="node"><title>Node23</title>
<g id="a_node23"><a xlink:href="TileMap_8h.html" target="_top" xlink:title="Engine/include/TileMap.h">
<polygon fill="white" stroke="black" points="760.289,-224.5 760.289,-243.5 886.289,-243.5 886.289,-224.5 760.289,-224.5"/>
<text text-anchor="middle" x="823.289" y="-231.5" font-family="Helvetica,sans-Serif" font-size="10.00">Engine/include/TileMap.h</text>
</a>
</g>
</g>
<!-- Node1&#45;&gt;Node23 -->
<g id="edge27" class="edge"><title>Node1&#45;&gt;Node23</title>
<path fill="none" stroke="midnightblue" d="M854.243,-272.144C846.402,-262.736 836.96,-251.405 830.582,-243.751"/>
<polygon fill="midnightblue" stroke="midnightblue" points="851.768,-274.641 860.858,-280.083 857.145,-270.16 851.768,-274.641"/>
</g>
<!-- Node24 -->
<g id="node24" class="node"><title>Node24</title>
<g id="a_node24"><a xlink:href="StageState_8h.html" target="_top" xlink:title="Game/include/StageState.h">
<polygon fill="white" stroke="black" points="1261.79,-168.5 1261.79,-187.5 1398.79,-187.5 1398.79,-168.5 1261.79,-168.5"/>
<text text-anchor="middle" x="1330.29" y="-175.5" font-family="Helvetica,sans-Serif" font-size="10.00">Game/include/StageState.h</text>
</a>
</g>
</g>
<!-- Node1&#45;&gt;Node24 -->
<g id="edge65" class="edge"><title>Node1&#45;&gt;Node24</title>
<path fill="none" stroke="midnightblue" d="M930.061,-278.732C977.644,-270.447 1044.94,-257.911 1103.29,-244 1176.26,-226.603 1260.9,-200.863 1303.24,-187.598"/>
<polygon fill="midnightblue" stroke="midnightblue" points="929.174,-275.334 919.916,-280.486 930.366,-282.231 929.174,-275.334"/>
</g>
<!-- Node25 -->
<g id="node25" class="node"><title>Node25</title>
<g id="a_node25"><a xlink:href="EndState_8h.html" target="_top" xlink:title="Game/include/EndState.h">
<polygon fill="white" stroke="black" points="1266.29,-56.5 1266.29,-75.5 1394.29,-75.5 1394.29,-56.5 1266.29,-56.5"/>
<text text-anchor="middle" x="1330.29" y="-63.5" font-family="Helvetica,sans-Serif" font-size="10.00">Game/include/EndState.h</text>
</a>
</g>
</g>
<!-- Node1&#45;&gt;Node25 -->
<g id="edge64" class="edge"><title>Node1&#45;&gt;Node25</title>
<path fill="none" stroke="midnightblue" d="M811.152,-278.496C738.263,-263.886 609.306,-233.931 506.289,-188 495.704,-183.28 423.866,-142.16 418.289,-132 414.012,-124.208 412.161,-118.438 418.289,-112 447.475,-81.3385 1063.02,-70.5139 1266,-67.7704"/>
<polygon fill="midnightblue" stroke="midnightblue" points="810.567,-281.948 821.056,-280.456 811.926,-275.081 810.567,-281.948"/>
</g>
<!-- Node26 -->
<g id="node26" class="node"><title>Node26</title>
<g id="a_node26"><a xlink:href="Enemy_8h.html" target="_top" xlink:title="Game/include/Enemy.h">
<polygon fill="white" stroke="black" points="851.789,-168.5 851.789,-187.5 970.789,-187.5 970.789,-168.5 851.789,-168.5"/>
<text text-anchor="middle" x="911.289" y="-175.5" font-family="Helvetica,sans-Serif" font-size="10.00">Game/include/Enemy.h</text>
</a>
</g>
</g>
<!-- Node1&#45;&gt;Node26 -->
<g id="edge66" class="edge"><title>Node1&#45;&gt;Node26</title>
<path fill="none" stroke="midnightblue" d="M880.206,-271.9C885.443,-263.752 891.297,-253.687 895.289,-244 903.26,-224.659 907.932,-200.381 910.003,-187.671"/>
<polygon fill="midnightblue" stroke="midnightblue" points="877.139,-270.19 874.489,-280.448 882.958,-274.081 877.139,-270.19"/>
</g>
<!-- Node27 -->
<g id="node27" class="node"><title>Node27</title>
<g id="a_node27"><a xlink:href="Face_8h.html" target="_top" xlink:title="Game/include/Face.h">
<polygon fill="white" stroke="black" points="685.289,-168.5 685.289,-187.5 795.289,-187.5 795.289,-168.5 685.289,-168.5"/>
<text text-anchor="middle" x="740.289" y="-175.5" font-family="Helvetica,sans-Serif" font-size="10.00">Game/include/Face.h</text>
</a>
</g>
</g>
<!-- Node1&#45;&gt;Node27 -->
<g id="edge67" class="edge"><title>Node1&#45;&gt;Node27</title>
<path fill="none" stroke="midnightblue" d="M804.75,-277.506C784.913,-270.873 764.73,-260.431 751.289,-244 737.955,-227.7 738.106,-201.252 739.246,-187.665"/>
<polygon fill="midnightblue" stroke="midnightblue" points="803.843,-280.888 814.429,-280.465 805.89,-274.194 803.843,-280.888"/>
</g>
<!-- Node28 -->
<g id="node28" class="node"><title>Node28</title>
<g id="a_node28"><a xlink:href="State_8h.html" target="_top" xlink:title="Engine/include/State.h">
<polygon fill="white" stroke="black" points="1320.79,-224.5 1320.79,-243.5 1435.79,-243.5 1435.79,-224.5 1320.79,-224.5"/>
<text text-anchor="middle" x="1378.29" y="-231.5" font-family="Helvetica,sans-Serif" font-size="10.00">Engine/include/State.h</text>
</a>
</g>
</g>
<!-- Node1&#45;&gt;Node28 -->
<g id="edge42" class="edge"><title>Node1&#45;&gt;Node28</title>
<path fill="none" stroke="midnightblue" d="M951.501,-280.189C1055.44,-269.184 1230.55,-250.643 1320.76,-241.092"/>
<polygon fill="midnightblue" stroke="midnightblue" points="950.936,-276.73 941.36,-281.263 951.673,-283.691 950.936,-276.73"/>
</g>
<!-- Node36 -->
<g id="node36" class="node"><title>Node36</title>
<g id="a_node36"><a xlink:href="Wave_8h.html" target="_top" xlink:title="Engine/include/Wave.h">
<polygon fill="white" stroke="black" points="942.789,-224.5 942.789,-243.5 1059.79,-243.5 1059.79,-224.5 942.789,-224.5"/>
<text text-anchor="middle" x="1001.29" y="-231.5" font-family="Helvetica,sans-Serif" font-size="10.00">Engine/include/Wave.h</text>
</a>
</g>
</g>
<!-- Node1&#45;&gt;Node36 -->
<g id="edge60" class="edge"><title>Node1&#45;&gt;Node36</title>
<path fill="none" stroke="midnightblue" d="M898.737,-276.638C923.696,-266.504 958.366,-252.427 980.314,-243.516"/>
<polygon fill="midnightblue" stroke="midnightblue" points="897.312,-273.439 889.364,-280.444 899.946,-279.924 897.312,-273.439"/>
</g>
<!-- Node38 -->
<g id="node38" class="node"><title>Node38</title>
<g id="a_node38"><a xlink:href="GameObject_8cpp.html" target="_top" xlink:title="Engine/src/GameObject.cpp">
<polygon fill="white" stroke="black" points="1454.29,-224.5 1454.29,-243.5 1594.29,-243.5 1594.29,-224.5 1454.29,-224.5"/>
<text text-anchor="middle" x="1524.29" y="-231.5" font-family="Helvetica,sans-Serif" font-size="10.00">Engine/src/GameObject.cpp</text>
</a>
</g>
</g>
<!-- Node1&#45;&gt;Node38 -->
<g id="edge63" class="edge"><title>Node1&#45;&gt;Node38</title>
<path fill="none" stroke="midnightblue" d="M951.777,-283.373C1063.89,-275.612 1269.27,-260.677 1444.29,-244 1447.49,-243.695 1450.76,-243.372 1454.06,-243.037"/>
<polygon fill="midnightblue" stroke="midnightblue" points="951.289,-279.899 941.553,-284.079 951.771,-286.882 951.289,-279.899"/>
</g>
<!-- Node2&#45;&gt;Node1 -->
<g id="edge5" class="edge"><title>Node2&#45;&gt;Node1</title>
<path fill="none" stroke="midnightblue" d="M469.746,-243.591C561.835,-253.702 710.166,-270.39 797.579,-280.473"/>
<polygon fill="midnightblue" stroke="midnightblue" points="469.955,-240.093 459.633,-242.482 469.192,-247.051 469.955,-240.093"/>
</g>
<!-- Node3 -->
<g id="node3" class="node"><title>Node3</title>
<g id="a_node3"><a xlink:href="AIGoDown_8h.html" target="_top" xlink:title="Engine/include/AIGoDown.h">
<polygon fill="white" stroke="black" points="319.289,-168.5 319.289,-187.5 459.289,-187.5 459.289,-168.5 319.289,-168.5"/>
<text text-anchor="middle" x="389.289" y="-175.5" font-family="Helvetica,sans-Serif" font-size="10.00">Engine/include/AIGoDown.h</text>
</a>
</g>
</g>
<!-- Node2&#45;&gt;Node3 -->
<g id="edge2" class="edge"><title>Node2&#45;&gt;Node3</title>
<path fill="none" stroke="midnightblue" d="M388.645,-213.805C388.809,-204.91 388.997,-194.78 389.127,-187.751"/>
<polygon fill="midnightblue" stroke="midnightblue" points="385.14,-214.02 388.454,-224.083 392.139,-214.15 385.14,-214.02"/>
</g>
<!-- Node6 -->
<g id="node6" class="node"><title>Node6</title>
<g id="a_node6"><a xlink:href="DragAndDrop_8h.html" target="_top" xlink:title="Engine/include/DragAndDrop.h">
<polygon fill="white" stroke="black" points="515.789,-168.5 515.789,-187.5 666.789,-187.5 666.789,-168.5 515.789,-168.5"/>
<text text-anchor="middle" x="591.289" y="-175.5" font-family="Helvetica,sans-Serif" font-size="10.00">Engine/include/DragAndDrop.h</text>
</a>
</g>
</g>
<!-- Node2&#45;&gt;Node6 -->
<g id="edge6" class="edge"><title>Node2&#45;&gt;Node6</title>
<path fill="none" stroke="midnightblue" d="M430.284,-221.829C468.612,-211.633 524.441,-196.782 559.274,-187.516"/>
<polygon fill="midnightblue" stroke="midnightblue" points="429.219,-218.49 420.455,-224.444 431.019,-225.255 429.219,-218.49"/>
</g>
<!-- Node9 -->
<g id="node9" class="node"><title>Node9</title>
<g id="a_node9"><a xlink:href="HitPoints_8h.html" target="_top" xlink:title="Engine/include/HitPoints.h">
<polygon fill="white" stroke="black" points="15.2893,-168.5 15.2893,-187.5 147.289,-187.5 147.289,-168.5 15.2893,-168.5"/>
<text text-anchor="middle" x="81.2893" y="-175.5" font-family="Helvetica,sans-Serif" font-size="10.00">Engine/include/HitPoints.h</text>
</a>
</g>
</g>
<!-- Node2&#45;&gt;Node9 -->
<g id="edge9" class="edge"><title>Node2&#45;&gt;Node9</title>
<path fill="none" stroke="midnightblue" d="M329.528,-222.664C271.511,-212.459 183.842,-197.039 129.707,-187.516"/>
<polygon fill="midnightblue" stroke="midnightblue" points="329.189,-226.158 339.644,-224.444 330.402,-219.264 329.189,-226.158"/>
</g>
<!-- Node11 -->
<g id="node11" class="node"><title>Node11</title>
<g id="a_node11"><a xlink:href="Component_8cpp.html" target="_top" xlink:title="Engine/src/Component.cpp">
<polygon fill="white" stroke="black" points="165.789,-168.5 165.789,-187.5 300.789,-187.5 300.789,-168.5 165.789,-168.5"/>
<text text-anchor="middle" x="233.289" y="-175.5" font-family="Helvetica,sans-Serif" font-size="10.00">Engine/src/Component.cpp</text>
</a>
</g>
</g>
<!-- Node2&#45;&gt;Node11 -->
<g id="edge11" class="edge"><title>Node2&#45;&gt;Node11</title>
<path fill="none" stroke="midnightblue" d="M353.957,-221.039C324.793,-210.879 283.652,-196.546 257.735,-187.516"/>
<polygon fill="midnightblue" stroke="midnightblue" points="353.134,-224.459 363.729,-224.444 355.437,-217.848 353.134,-224.459"/>
</g>
<!-- Node4 -->
<g id="node4" class="node"><title>Node4</title>
<g id="a_node4"><a xlink:href="AIGoDown_8cpp.html" target="_top" xlink:title="Engine/src/AIGoDown.cpp">
<polygon fill="white" stroke="black" points="237.789,-112.5 237.789,-131.5 370.789,-131.5 370.789,-112.5 237.789,-112.5"/>
<text text-anchor="middle" x="304.289" y="-119.5" font-family="Helvetica,sans-Serif" font-size="10.00">Engine/src/AIGoDown.cpp</text>
</a>
</g>
</g>
<!-- Node3&#45;&gt;Node4 -->
<g id="edge3" class="edge"><title>Node3&#45;&gt;Node4</title>
<path fill="none" stroke="midnightblue" d="M367.096,-162.901C351.509,-152.999 331.16,-140.071 317.912,-131.655"/>
<polygon fill="midnightblue" stroke="midnightblue" points="365.315,-165.916 375.633,-168.324 369.069,-160.007 365.315,-165.916"/>
</g>
<!-- Node5 -->
<g id="node5" class="node"><title>Node5</title>
<g id="a_node5"><a xlink:href="Enemy_8cpp.html" target="_top" xlink:title="Game/src/Enemy.cpp">
<polygon fill="white" stroke="black" points="695.289,-112.5 695.289,-131.5 807.289,-131.5 807.289,-112.5 695.289,-112.5"/>
<text text-anchor="middle" x="751.289" y="-119.5" font-family="Helvetica,sans-Serif" font-size="10.00">Game/src/Enemy.cpp</text>
</a>
</g>
</g>
<!-- Node3&#45;&gt;Node5 -->
<g id="edge4" class="edge"><title>Node3&#45;&gt;Node5</title>
<path fill="none" stroke="midnightblue" d="M456.932,-166.91C525.639,-156.661 630.821,-140.97 695.091,-131.383"/>
<polygon fill="midnightblue" stroke="midnightblue" points="456.023,-163.506 446.649,-168.444 457.056,-170.43 456.023,-163.506"/>
</g>
<!-- Node7 -->
<g id="node7" class="node"><title>Node7</title>
<g id="a_node7"><a xlink:href="DragAndDrop_8cpp.html" target="_top" xlink:title="Engine/src/DragAndDrop.cpp">
<polygon fill="white" stroke="black" points="825.289,-112.5 825.289,-131.5 969.289,-131.5 969.289,-112.5 825.289,-112.5"/>
<text text-anchor="middle" x="897.289" y="-119.5" font-family="Helvetica,sans-Serif" font-size="10.00">Engine/src/DragAndDrop.cpp</text>
</a>
</g>
</g>
<!-- Node6&#45;&gt;Node7 -->
<g id="edge7" class="edge"><title>Node6&#45;&gt;Node7</title>
<path fill="none" stroke="midnightblue" d="M649.859,-166.664C707.687,-156.459 795.071,-141.039 849.03,-131.516"/>
<polygon fill="midnightblue" stroke="midnightblue" points="649.015,-163.259 639.776,-168.444 650.232,-170.152 649.015,-163.259"/>
</g>
<!-- Node8 -->
<g id="node8" class="node"><title>Node8</title>
<g id="a_node8"><a xlink:href="Face_8cpp.html" target="_top" xlink:title="Game/src/Face.cpp">
<polygon fill="white" stroke="black" points="573.789,-112.5 573.789,-131.5 676.789,-131.5 676.789,-112.5 573.789,-112.5"/>
<text text-anchor="middle" x="625.289" y="-119.5" font-family="Helvetica,sans-Serif" font-size="10.00">Game/src/Face.cpp</text>
</a>
</g>
</g>
<!-- Node6&#45;&gt;Node8 -->
<g id="edge8" class="edge"><title>Node6&#45;&gt;Node8</title>
<path fill="none" stroke="midnightblue" d="M602.267,-159.566C608.116,-150.275 615.059,-139.248 619.779,-131.751"/>
<polygon fill="midnightblue" stroke="midnightblue" points="599.27,-157.756 596.904,-168.083 605.194,-161.486 599.27,-157.756"/>
</g>
<!-- Node10 -->
<g id="node10" class="node"><title>Node10</title>
<g id="a_node10"><a xlink:href="HItPoints_8cpp.html" target="_top" xlink:title="Engine/src/HItPoints.cpp">
<polygon fill="white" stroke="black" points="18.2893,-112.5 18.2893,-131.5 144.289,-131.5 144.289,-112.5 18.2893,-112.5"/>
<text text-anchor="middle" x="81.2893" y="-119.5" font-family="Helvetica,sans-Serif" font-size="10.00">Engine/src/HItPoints.cpp</text>
</a>
</g>
</g>
<!-- Node9&#45;&gt;Node10 -->
<g id="edge10" class="edge"><title>Node9&#45;&gt;Node10</title>
<path fill="none" stroke="midnightblue" d="M81.2893,-157.805C81.2893,-148.91 81.2893,-138.78 81.2893,-131.751"/>
<polygon fill="midnightblue" stroke="midnightblue" points="77.7894,-158.083 81.2893,-168.083 84.7894,-158.083 77.7894,-158.083"/>
</g>
<!-- Node13 -->
<g id="node13" class="node"><title>Node13</title>
<g id="a_node13"><a xlink:href="Animation_8cpp.html" target="_top" xlink:title="Engine/src/Animation.cpp">
<polygon fill="white" stroke="black" points="427.289,-112.5 427.289,-131.5 555.289,-131.5 555.289,-112.5 427.289,-112.5"/>
<text text-anchor="middle" x="491.289" y="-119.5" font-family="Helvetica,sans-Serif" font-size="10.00">Engine/src/Animation.cpp</text>
</a>
</g>
</g>
<!-- Node12&#45;&gt;Node13 -->
<g id="edge13" class="edge"><title>Node12&#45;&gt;Node13</title>
<path fill="none" stroke="midnightblue" d="M62.6456,-221.676C25.9522,-210.641 -15.6127,-192.028 6.2893,-168 9.80073,-164.148 295.837,-139.516 426.938,-128.414"/>
<polygon fill="midnightblue" stroke="midnightblue" points="61.7397,-225.057 72.3171,-224.451 63.6704,-218.329 61.7397,-225.057"/>
</g>
<!-- Node14&#45;&gt;Node5 -->
<g id="edge23" class="edge"><title>Node14&#45;&gt;Node5</title>
<path fill="none" stroke="midnightblue" d="M1107.11,-167.857C976.876,-151.739 942.779,-148.553 816.289,-132 813.352,-131.616 810.341,-131.217 807.302,-130.81"/>
<polygon fill="midnightblue" stroke="midnightblue" points="1106.72,-171.335 1117.07,-169.092 1107.58,-164.388 1106.72,-171.335"/>
</g>
<!-- Node14&#45;&gt;Node7 -->
<g id="edge17" class="edge"><title>Node14&#45;&gt;Node7</title>
<path fill="none" stroke="midnightblue" d="M1125.46,-166.537C1071.97,-156.332 991.618,-140.999 941.922,-131.516"/>
<polygon fill="midnightblue" stroke="midnightblue" points="1124.97,-170.007 1135.45,-168.444 1126.28,-163.131 1124.97,-170.007"/>
</g>
<!-- Node14&#45;&gt;Node8 -->
<g id="edge24" class="edge"><title>Node14&#45;&gt;Node8</title>
<path fill="none" stroke="midnightblue" d="M1106.89,-167.893C919.36,-148.505 869.979,-153.366 686.289,-132 683.206,-131.641 680.038,-131.248 676.845,-130.834"/>
<polygon fill="midnightblue" stroke="midnightblue" points="1106.78,-171.401 1117.09,-168.958 1107.51,-164.439 1106.78,-171.401"/>
</g>
<!-- Node14&#45;&gt;Node13 -->
<g id="edge15" class="edge"><title>Node14&#45;&gt;Node13</title>
<path fill="none" stroke="midnightblue" d="M1106.95,-167.927C865.363,-145.227 802.22,-154.521 564.289,-132 561.365,-131.723 558.378,-131.424 555.361,-131.107"/>
<polygon fill="midnightblue" stroke="midnightblue" points="1106.81,-171.43 1117.1,-168.889 1107.47,-164.461 1106.81,-171.43"/>
</g>
<!-- Node15 -->
<g id="node15" class="node"><title>Node15</title>
<g id="a_node15"><a xlink:href="Camera_8cpp.html" target="_top" xlink:title="Engine/src/Camera.cpp">
<polygon fill="white" stroke="black" points="1493.79,-112.5 1493.79,-131.5 1612.79,-131.5 1612.79,-112.5 1493.79,-112.5"/>
<text text-anchor="middle" x="1553.29" y="-119.5" font-family="Helvetica,sans-Serif" font-size="10.00">Engine/src/Camera.cpp</text>
</a>
</g>
</g>
<!-- Node14&#45;&gt;Node15 -->
<g id="edge16" class="edge"><title>Node14&#45;&gt;Node15</title>
<path fill="none" stroke="midnightblue" d="M1249.51,-166.979C1319.96,-156.779 1428.01,-141.137 1494.46,-131.516"/>
<polygon fill="midnightblue" stroke="midnightblue" points="1248.79,-163.547 1239.39,-168.444 1249.79,-170.475 1248.79,-163.547"/>
</g>
<!-- Node16 -->
<g id="node16" class="node"><title>Node16</title>
<g id="a_node16"><a xlink:href="Sprite_8cpp.html" target="_top" xlink:title="Engine/src/Sprite.cpp">
<polygon fill="white" stroke="black" points="1631.29,-112.5 1631.29,-131.5 1741.29,-131.5 1741.29,-112.5 1631.29,-112.5"/>
<text text-anchor="middle" x="1686.29" y="-119.5" font-family="Helvetica,sans-Serif" font-size="10.00">Engine/src/Sprite.cpp</text>
</a>
</g>
</g>
<!-- Node14&#45;&gt;Node16 -->
<g id="edge18" class="edge"><title>Node14&#45;&gt;Node16</title>
<path fill="none" stroke="midnightblue" d="M1253.46,-167.898C1417.73,-149.831 1460.84,-150.927 1621.29,-132 1624.46,-131.626 1627.71,-131.227 1630.99,-130.811"/>
<polygon fill="midnightblue" stroke="midnightblue" points="1253.05,-164.422 1243.49,-169.001 1253.82,-171.38 1253.05,-164.422"/>
</g>
<!-- Node17 -->
<g id="node17" class="node"><title>Node17</title>
<g id="a_node17"><a xlink:href="State_8cpp.html" target="_top" xlink:title="Engine/src/State.cpp">
<polygon fill="white" stroke="black" points="1367.29,-112.5 1367.29,-131.5 1475.29,-131.5 1475.29,-112.5 1367.29,-112.5"/>
<text text-anchor="middle" x="1421.29" y="-119.5" font-family="Helvetica,sans-Serif" font-size="10.00">Engine/src/State.cpp</text>
</a>
</g>
</g>
<!-- Node14&#45;&gt;Node17 -->
<g id="edge19" class="edge"><title>Node14&#45;&gt;Node17</title>
<path fill="none" stroke="midnightblue" d="M1228.41,-166.217C1273.95,-156.013 1341.4,-140.901 1383.28,-131.516"/>
<polygon fill="midnightblue" stroke="midnightblue" points="1227.47,-162.842 1218.48,-168.444 1229,-169.672 1227.47,-162.842"/>
</g>
<!-- Node18 -->
<g id="node18" class="node"><title>Node18</title>
<g id="a_node18"><a xlink:href="TileMap_8cpp.html" target="_top" xlink:title="Engine/src/TileMap.cpp">
<polygon fill="white" stroke="black" points="987.789,-112.5 987.789,-131.5 1106.79,-131.5 1106.79,-112.5 987.789,-112.5"/>
<text text-anchor="middle" x="1047.29" y="-119.5" font-family="Helvetica,sans-Serif" font-size="10.00">Engine/src/TileMap.cpp</text>
</a>
</g>
</g>
<!-- Node14&#45;&gt;Node18 -->
<g id="edge20" class="edge"><title>Node14&#45;&gt;Node18</title>
<path fill="none" stroke="midnightblue" d="M1149.84,-164.638C1124.88,-154.504 1090.21,-140.427 1068.26,-131.516"/>
<polygon fill="midnightblue" stroke="midnightblue" points="1148.63,-167.924 1159.22,-168.444 1151.27,-161.439 1148.63,-167.924"/>
</g>
<!-- Node19 -->
<g id="node19" class="node"><title>Node19</title>
<g id="a_node19"><a xlink:href="Tileset_8cpp.html" target="_top" xlink:title="Engine/src/Tileset.cpp">
<polygon fill="white" stroke="black" points="1759.29,-112.5 1759.29,-131.5 1873.29,-131.5 1873.29,-112.5 1759.29,-112.5"/>
<text text-anchor="middle" x="1816.29" y="-119.5" font-family="Helvetica,sans-Serif" font-size="10.00">Engine/src/Tileset.cpp</text>
</a>
</g>
</g>
<!-- Node14&#45;&gt;Node19 -->
<g id="edge21" class="edge"><title>Node14&#45;&gt;Node19</title>
<path fill="none" stroke="midnightblue" d="M1253.47,-167.935C1474.82,-146.48 1532.81,-154.666 1750.29,-132 1753.16,-131.7 1756.11,-131.373 1759.08,-131.027"/>
<polygon fill="midnightblue" stroke="midnightblue" points="1253.1,-164.454 1243.48,-168.911 1253.78,-171.421 1253.1,-164.454"/>
</g>
<!-- Node20 -->
<g id="node20" class="node"><title>Node20</title>
<g id="a_node20"><a xlink:href="EndState_8cpp.html" target="_top" xlink:title="Game/src/EndState.cpp">
<polygon fill="white" stroke="black" points="1171.29,-0.5 1171.29,-19.5 1293.29,-19.5 1293.29,-0.5 1171.29,-0.5"/>
<text text-anchor="middle" x="1232.29" y="-7.5" font-family="Helvetica,sans-Serif" font-size="10.00">Game/src/EndState.cpp</text>
</a>
</g>
</g>
<!-- Node14&#45;&gt;Node20 -->
<g id="edge22" class="edge"><title>Node14&#45;&gt;Node20</title>
<path fill="none" stroke="midnightblue" d="M1166.58,-160.243C1157.65,-147.221 1148.61,-128.636 1154.29,-112 1167.88,-72.1606 1204.26,-35.8227 1222.12,-19.734"/>
<polygon fill="midnightblue" stroke="midnightblue" points="1163.79,-162.351 1172.57,-168.277 1169.4,-158.167 1163.79,-162.351"/>
</g>
<!-- Node21 -->
<g id="node21" class="node"><title>Node21</title>
<g id="a_node21"><a xlink:href="StageState_8cpp.html" target="_top" xlink:title="Game/src/StageState.cpp">
<polygon fill="white" stroke="black" points="1163.29,-112.5 1163.29,-131.5 1293.29,-131.5 1293.29,-112.5 1163.29,-112.5"/>
<text text-anchor="middle" x="1228.29" y="-119.5" font-family="Helvetica,sans-Serif" font-size="10.00">Game/src/StageState.cpp</text>
</a>
</g>
</g>
<!-- Node14&#45;&gt;Node21 -->
<g id="edge25" class="edge"><title>Node14&#45;&gt;Node21</title>
<path fill="none" stroke="midnightblue" d="M1195.02,-160.431C1203.43,-150.967 1213.64,-139.483 1220.51,-131.751"/>
<polygon fill="midnightblue" stroke="midnightblue" points="1192.24,-158.284 1188.22,-168.083 1197.48,-162.934 1192.24,-158.284"/>
</g>
<!-- Node22 -->
<g id="node22" class="node"><title>Node22</title>
<g id="a_node22"><a xlink:href="TitleState_8cpp.html" target="_top" xlink:title="Game/src/TitleState.cpp">
<polygon fill="white" stroke="black" points="1891.79,-112.5 1891.79,-131.5 2014.79,-131.5 2014.79,-112.5 1891.79,-112.5"/>
<text text-anchor="middle" x="1953.29" y="-119.5" font-family="Helvetica,sans-Serif" font-size="10.00">Game/src/TitleState.cpp</text>
</a>
</g>
</g>
<!-- Node14&#45;&gt;Node22 -->
<g id="edge26" class="edge"><title>Node14&#45;&gt;Node22</title>
<path fill="none" stroke="midnightblue" d="M1253.52,-167.951C1533.3,-142.94 1606.28,-157.349 1882.29,-132 1885.38,-131.716 1888.55,-131.401 1891.74,-131.065"/>
<polygon fill="midnightblue" stroke="midnightblue" points="1253.12,-164.472 1243.48,-168.857 1253.75,-171.444 1253.12,-164.472"/>
</g>
<!-- Node23&#45;&gt;Node6 -->
<g id="edge28" class="edge"><title>Node23&#45;&gt;Node6</title>
<path fill="none" stroke="midnightblue" d="M776.687,-222.153C732.852,-211.95 668.111,-196.881 627.878,-187.516"/>
<polygon fill="midnightblue" stroke="midnightblue" points="775.995,-225.585 786.528,-224.444 777.582,-218.768 775.995,-225.585"/>
</g>
<!-- Node23&#45;&gt;Node18 -->
<g id="edge29" class="edge"><title>Node23&#45;&gt;Node18</title>
<path fill="none" stroke="midnightblue" d="M823.827,-214.029C825.283,-199.415 829.679,-179.778 842.289,-168 853.507,-157.523 938.77,-141.343 995.745,-131.506"/>
<polygon fill="midnightblue" stroke="midnightblue" points="820.308,-214.23 823.189,-224.426 827.295,-214.659 820.308,-214.23"/>
</g>
<!-- Node23&#45;&gt;Node24 -->
<g id="edge30" class="edge"><title>Node23&#45;&gt;Node24</title>
<path fill="none" stroke="midnightblue" d="M896.667,-225.537C982.108,-216.792 1127.47,-201.747 1252.29,-188 1255.27,-187.672 1258.31,-187.333 1261.39,-186.989"/>
<polygon fill="midnightblue" stroke="midnightblue" points="896.142,-222.072 886.55,-226.571 896.854,-229.036 896.142,-222.072"/>
</g>
<!-- Node23&#45;&gt;Node26 -->
<g id="edge36" class="edge"><title>Node23&#45;&gt;Node26</title>
<path fill="none" stroke="midnightblue" d="M846.266,-218.901C862.403,-208.999 883.471,-196.071 897.186,-187.655"/>
<polygon fill="midnightblue" stroke="midnightblue" points="844.121,-216.111 837.428,-224.324 847.782,-222.077 844.121,-216.111"/>
</g>
<!-- Node23&#45;&gt;Node27 -->
<g id="edge39" class="edge"><title>Node23&#45;&gt;Node27</title>
<path fill="none" stroke="midnightblue" d="M801.19,-218.622C786.027,-208.757 766.406,-195.992 753.592,-187.655"/>
<polygon fill="midnightblue" stroke="midnightblue" points="799.663,-221.804 809.954,-224.324 803.48,-215.937 799.663,-221.804"/>
</g>
<!-- Node24&#45;&gt;Node21 -->
<g id="edge34" class="edge"><title>Node24&#45;&gt;Node21</title>
<path fill="none" stroke="midnightblue" d="M1304.96,-163.59C1286.1,-153.605 1260.91,-140.267 1244.64,-131.655"/>
<polygon fill="midnightblue" stroke="midnightblue" points="1303.43,-166.738 1313.9,-168.324 1306.7,-160.552 1303.43,-166.738"/>
</g>
<!-- Node24&#45;&gt;Node22 -->
<g id="edge35" class="edge"><title>Node24&#45;&gt;Node22</title>
<path fill="none" stroke="midnightblue" d="M1408.88,-171.705C1516.03,-164.231 1713.91,-149.527 1882.29,-132 1885.38,-131.678 1888.54,-131.334 1891.74,-130.974"/>
<polygon fill="midnightblue" stroke="midnightblue" points="1408.53,-168.22 1398.79,-172.405 1409.01,-175.204 1408.53,-168.22"/>
</g>
<!-- Node24&#45;&gt;Node25 -->
<g id="edge31" class="edge"><title>Node24&#45;&gt;Node25</title>
<path fill="none" stroke="midnightblue" d="M1325.07,-158.348C1322.64,-134.254 1323.1,-93.3079 1326.45,-75.5914"/>
<polygon fill="midnightblue" stroke="midnightblue" points="1321.62,-158.936 1326.45,-168.368 1328.56,-157.986 1321.62,-158.936"/>
</g>
<!-- Node25&#45;&gt;Node20 -->
<g id="edge33" class="edge"><title>Node25&#45;&gt;Node20</title>
<path fill="none" stroke="midnightblue" d="M1305.7,-51.4526C1287.61,-41.4835 1263.55,-28.2279 1248,-19.6545"/>
<polygon fill="midnightblue" stroke="midnightblue" points="1304.1,-54.5633 1314.54,-56.324 1307.47,-48.4324 1304.1,-54.5633"/>
</g>
<!-- Node25&#45;&gt;Node24 -->
<g id="edge32" class="edge"><title>Node25&#45;&gt;Node24</title>
<path fill="none" stroke="midnightblue" d="M1335.5,-85.5974C1337.94,-109.666 1337.48,-150.617 1334.13,-168.368"/>
<polygon fill="midnightblue" stroke="midnightblue" points="1338.95,-85.0217 1334.12,-75.5914 1332.02,-85.9749 1338.95,-85.0217"/>
</g>
<!-- Node26&#45;&gt;Node5 -->
<g id="edge37" class="edge"><title>Node26&#45;&gt;Node5</title>
<path fill="none" stroke="midnightblue" d="M876.243,-165.172C846.116,-155.004 803.393,-140.585 776.523,-131.516"/>
<polygon fill="midnightblue" stroke="midnightblue" points="875.343,-168.562 885.937,-168.444 877.581,-161.929 875.343,-168.562"/>
</g>
<!-- Node26&#45;&gt;Node21 -->
<g id="edge38" class="edge"><title>Node26&#45;&gt;Node21</title>
<path fill="none" stroke="midnightblue" d="M971.593,-166.727C1031.5,-156.523 1122.28,-141.058 1178.29,-131.516"/>
<polygon fill="midnightblue" stroke="midnightblue" points="970.789,-163.314 961.519,-168.444 971.965,-170.214 970.789,-163.314"/>
</g>
<!-- Node27&#45;&gt;Node8 -->
<g id="edge40" class="edge"><title>Node27&#45;&gt;Node8</title>
<path fill="none" stroke="midnightblue" d="M712.809,-164.096C691.323,-154.007 662.067,-140.27 643.426,-131.516"/>
<polygon fill="midnightblue" stroke="midnightblue" points="711.528,-167.361 722.067,-168.444 714.503,-161.025 711.528,-167.361"/>
</g>
<!-- Node27&#45;&gt;Node21 -->
<g id="edge41" class="edge"><title>Node27&#45;&gt;Node21</title>
<path fill="none" stroke="midnightblue" d="M805.485,-169.786C898.841,-159.455 1069.62,-140.558 1163.02,-130.223"/>
<polygon fill="midnightblue" stroke="midnightblue" points="804.875,-166.332 795.32,-170.91 805.645,-173.289 804.875,-166.332"/>
</g>
<!-- Node28&#45;&gt;Node17 -->
<g id="edge55" class="edge"><title>Node28&#45;&gt;Node17</title>
<path fill="none" stroke="midnightblue" d="M1391.3,-216.029C1396.96,-207.925 1403.21,-197.859 1407.29,-188 1415.23,-168.8 1418.93,-144.465 1420.42,-131.708"/>
<polygon fill="midnightblue" stroke="midnightblue" points="1388.38,-214.09 1385.32,-224.231 1394.04,-218.216 1388.38,-214.09"/>
</g>
<!-- Node28&#45;&gt;Node24 -->
<g id="edge56" class="edge"><title>Node28&#45;&gt;Node24</title>
<path fill="none" stroke="midnightblue" d="M1363.56,-216.431C1355.15,-206.967 1344.94,-195.483 1338.07,-187.751"/>
<polygon fill="midnightblue" stroke="midnightblue" points="1361.1,-218.934 1370.36,-224.083 1366.34,-214.284 1361.1,-218.934"/>
</g>
<!-- Node29 -->
<g id="node29" class="node"><title>Node29</title>
<g id="a_node29"><a xlink:href="Game_8h.html" target="_top" xlink:title="Engine/include/Game.h">
<polygon fill="white" stroke="black" points="1757.29,-168.5 1757.29,-187.5 1875.29,-187.5 1875.29,-168.5 1757.29,-168.5"/>
<text text-anchor="middle" x="1816.29" y="-175.5" font-family="Helvetica,sans-Serif" font-size="10.00">Engine/include/Game.h</text>
</a>
</g>
</g>
<!-- Node28&#45;&gt;Node29 -->
<g id="edge43" class="edge"><title>Node28&#45;&gt;Node29</title>
<path fill="none" stroke="midnightblue" d="M1446.18,-223.9C1562.58,-209.07 1685.98,-194.337 1757.15,-185.937"/>
<polygon fill="midnightblue" stroke="midnightblue" points="1445.5,-220.458 1436.03,-225.196 1446.39,-227.402 1445.5,-220.458"/>
</g>
<!-- Node35 -->
<g id="node35" class="node"><title>Node35</title>
<g id="a_node35"><a xlink:href="TitleState_8h.html" target="_top" xlink:title="Game/include/TitleState.h">
<polygon fill="white" stroke="black" points="1893.29,-168.5 1893.29,-187.5 2023.29,-187.5 2023.29,-168.5 1893.29,-168.5"/>
<text text-anchor="middle" x="1958.29" y="-175.5" font-family="Helvetica,sans-Serif" font-size="10.00">Game/include/TitleState.h</text>
</a>
</g>
</g>
<!-- Node28&#45;&gt;Node35 -->
<g id="edge57" class="edge"><title>Node28&#45;&gt;Node35</title>
<path fill="none" stroke="midnightblue" d="M1446.04,-223.976C1641.61,-203.116 1692.76,-207.492 1884.29,-188 1887.12,-187.712 1890.01,-187.407 1892.93,-187.089"/>
<polygon fill="midnightblue" stroke="midnightblue" points="1445.58,-220.505 1436.01,-225.054 1446.33,-227.465 1445.58,-220.505"/>
</g>
<!-- Node29&#45;&gt;Node15 -->
<g id="edge47" class="edge"><title>Node29&#45;&gt;Node15</title>
<path fill="none" stroke="midnightblue" d="M1764.71,-166.41C1715.01,-156.204 1640.76,-140.96 1594.77,-131.516"/>
<polygon fill="midnightblue" stroke="midnightblue" points="1764.12,-169.861 1774.62,-168.444 1765.52,-163.004 1764.12,-169.861"/>
</g>
<!-- Node29&#45;&gt;Node16 -->
<g id="edge50" class="edge"><title>Node29&#45;&gt;Node16</title>
<path fill="none" stroke="midnightblue" d="M1786.2,-164.503C1761.83,-154.38 1728.15,-140.388 1706.79,-131.516"/>
<polygon fill="midnightblue" stroke="midnightblue" points="1785.11,-167.84 1795.69,-168.444 1787.8,-161.375 1785.11,-167.84"/>
</g>
<!-- Node29&#45;&gt;Node19 -->
<g id="edge51" class="edge"><title>Node29&#45;&gt;Node19</title>
<path fill="none" stroke="midnightblue" d="M1816.29,-157.805C1816.29,-148.91 1816.29,-138.78 1816.29,-131.751"/>
<polygon fill="midnightblue" stroke="midnightblue" points="1812.79,-158.083 1816.29,-168.083 1819.79,-158.083 1812.79,-158.083"/>
</g>
<!-- Node29&#45;&gt;Node21 -->
<g id="edge53" class="edge"><title>Node29&#45;&gt;Node21</title>
<path fill="none" stroke="midnightblue" d="M1747.17,-170.652C1632.73,-160.142 1405.42,-139.267 1293.56,-128.995"/>
<polygon fill="midnightblue" stroke="midnightblue" points="1746.94,-174.146 1757.22,-171.575 1747.58,-167.175 1746.94,-174.146"/>
</g>
<!-- Node29&#45;&gt;Node22 -->
<g id="edge54" class="edge"><title>Node29&#45;&gt;Node22</title>
<path fill="none" stroke="midnightblue" d="M1847.31,-164.772C1873.05,-154.629 1908.98,-140.467 1931.68,-131.516"/>
<polygon fill="midnightblue" stroke="midnightblue" points="1846.02,-161.52 1838,-168.444 1848.58,-168.033 1846.02,-161.52"/>
</g>
<!-- Node30 -->
<g id="node30" class="node"><title>Node30</title>
<g id="a_node30"><a xlink:href="Text_8h.html" target="_top" xlink:title="Engine/include/Text.h">
<polygon fill="white" stroke="black" points="2312.79,-112.5 2312.79,-131.5 2423.79,-131.5 2423.79,-112.5 2312.79,-112.5"/>
<text text-anchor="middle" x="2368.29" y="-119.5" font-family="Helvetica,sans-Serif" font-size="10.00">Engine/include/Text.h</text>
</a>
</g>
</g>
<!-- Node29&#45;&gt;Node30 -->
<g id="edge44" class="edge"><title>Node29&#45;&gt;Node30</title>
<path fill="none" stroke="midnightblue" d="M1885.73,-167.889C2071.81,-147.904 2120.81,-152.458 2303.29,-132 2306.35,-131.657 2309.48,-131.287 2312.64,-130.898"/>
<polygon fill="midnightblue" stroke="midnightblue" points="1885.17,-164.429 1875.61,-168.986 1885.93,-171.388 1885.17,-164.429"/>
</g>
<!-- Node32 -->
<g id="node32" class="node"><title>Node32</title>
<g id="a_node32"><a xlink:href="Game_8cpp.html" target="_top" xlink:title="Engine/src/Game.cpp">
<polygon fill="white" stroke="black" points="2032.79,-112.5 2032.79,-131.5 2143.79,-131.5 2143.79,-112.5 2032.79,-112.5"/>
<text text-anchor="middle" x="2088.29" y="-119.5" font-family="Helvetica,sans-Serif" font-size="10.00">Engine/src/Game.cpp</text>
</a>
</g>
</g>
<!-- Node29&#45;&gt;Node32 -->
<g id="edge48" class="edge"><title>Node29&#45;&gt;Node32</title>
<path fill="none" stroke="midnightblue" d="M1869.31,-166.473C1920.72,-156.268 1997.73,-140.979 2045.39,-131.516"/>
<polygon fill="midnightblue" stroke="midnightblue" points="1868.52,-163.063 1859.39,-168.444 1869.88,-169.929 1868.52,-163.063"/>
</g>
<!-- Node33 -->
<g id="node33" class="node"><title>Node33</title>
<g id="a_node33"><a xlink:href="Resources_8cpp.html" target="_top" xlink:title="Engine/src/Resources.cpp">
<polygon fill="white" stroke="black" points="2162.29,-112.5 2162.29,-131.5 2294.29,-131.5 2294.29,-112.5 2162.29,-112.5"/>
<text text-anchor="middle" x="2228.29" y="-119.5" font-family="Helvetica,sans-Serif" font-size="10.00">Engine/src/Resources.cpp</text>
</a>
</g>
</g>
<!-- Node29&#45;&gt;Node33 -->
<g id="edge49" class="edge"><title>Node29&#45;&gt;Node33</title>
<path fill="none" stroke="midnightblue" d="M1885.55,-167.835C1988.31,-154.319 2095.94,-140.259 2162.98,-131.514"/>
<polygon fill="midnightblue" stroke="midnightblue" points="1885.08,-164.367 1875.63,-169.141 1886,-171.307 1885.08,-164.367"/>
</g>
<!-- Node34 -->
<g id="node34" class="node"><title>Node34</title>
<g id="a_node34"><a xlink:href="main_8cpp.html" target="_top" xlink:title="Game/src/main.cpp">
<polygon fill="white" stroke="black" points="2441.29,-112.5 2441.29,-131.5 2543.29,-131.5 2543.29,-112.5 2441.29,-112.5"/>
<text text-anchor="middle" x="2492.29" y="-119.5" font-family="Helvetica,sans-Serif" font-size="10.00">Game/src/main.cpp</text>
</a>
</g>
</g>
<!-- Node29&#45;&gt;Node34 -->
<g id="edge52" class="edge"><title>Node29&#45;&gt;Node34</title>
<path fill="none" stroke="midnightblue" d="M1885.83,-167.913C2129.37,-144.334 2193.52,-158.099 2433.29,-132 2435.86,-131.72 2438.5,-131.408 2441.16,-131.075"/>
<polygon fill="midnightblue" stroke="midnightblue" points="1885.21,-164.457 1875.6,-168.915 1885.89,-171.424 1885.21,-164.457"/>
</g>
<!-- Node30&#45;&gt;Node25 -->
<g id="edge46" class="edge"><title>Node30&#45;&gt;Node25</title>
<path fill="none" stroke="midnightblue" d="M2302.62,-112.036C1953.86,-80.329 1548.95,-70.6457 1394.47,-67.9418"/>
<polygon fill="midnightblue" stroke="midnightblue" points="2302.38,-115.529 2312.66,-112.957 2303.02,-108.559 2302.38,-115.529"/>
</g>
<!-- Node31 -->
<g id="node31" class="node"><title>Node31</title>
<g id="a_node31"><a xlink:href="Text_8cpp.html" target="_top" xlink:title="Engine/src/Text.cpp">
<polygon fill="white" stroke="black" points="2316.29,-56.5 2316.29,-75.5 2420.29,-75.5 2420.29,-56.5 2316.29,-56.5"/>
<text text-anchor="middle" x="2368.29" y="-63.5" font-family="Helvetica,sans-Serif" font-size="10.00">Engine/src/Text.cpp</text>
</a>
</g>
</g>
<!-- Node30&#45;&gt;Node31 -->
<g id="edge45" class="edge"><title>Node30&#45;&gt;Node31</title>
<path fill="none" stroke="midnightblue" d="M2368.29,-101.805C2368.29,-92.9102 2368.29,-82.7798 2368.29,-75.7511"/>
<polygon fill="midnightblue" stroke="midnightblue" points="2364.79,-102.083 2368.29,-112.083 2371.79,-102.083 2364.79,-102.083"/>
</g>
<!-- Node35&#45;&gt;Node22 -->
<g id="edge59" class="edge"><title>Node35&#45;&gt;Node22</title>
<path fill="none" stroke="midnightblue" d="M1956.54,-158.101C1955.71,-149.136 1954.76,-138.858 1954.1,-131.751"/>
<polygon fill="midnightblue" stroke="midnightblue" points="1953.06,-158.448 1957.46,-168.083 1960.03,-157.803 1953.06,-158.448"/>
</g>
<!-- Node35&#45;&gt;Node34 -->
<g id="edge58" class="edge"><title>Node35&#45;&gt;Node34</title>
<path fill="none" stroke="midnightblue" d="M2033.58,-171.198C2127.37,-163.665 2292.44,-149.4 2433.29,-132 2435.86,-131.682 2438.49,-131.341 2441.15,-130.983"/>
<polygon fill="midnightblue" stroke="midnightblue" points="2033.03,-167.731 2023.34,-172.017 2033.59,-174.709 2033.03,-167.731"/>
</g>
<!-- Node36&#45;&gt;Node26 -->
<g id="edge62" class="edge"><title>Node36&#45;&gt;Node26</title>
<path fill="none" stroke="midnightblue" d="M978.252,-219.177C961.69,-209.241 939.871,-196.149 925.713,-187.655"/>
<polygon fill="midnightblue" stroke="midnightblue" points="976.454,-222.18 986.829,-224.324 980.055,-216.178 976.454,-222.18"/>
</g>
<!-- Node37 -->
<g id="node37" class="node"><title>Node37</title>
<g id="a_node37"><a xlink:href="Wave_8cpp.html" target="_top" xlink:title="Engine/src/Wave.cpp">
<polygon fill="white" stroke="black" points="989.289,-168.5 989.289,-187.5 1099.29,-187.5 1099.29,-168.5 989.289,-168.5"/>
<text text-anchor="middle" x="1044.29" y="-175.5" font-family="Helvetica,sans-Serif" font-size="10.00">Engine/src/Wave.cpp</text>
</a>
</g>
</g>
<!-- Node36&#45;&gt;Node37 -->
<g id="edge61" class="edge"><title>Node36&#45;&gt;Node37</title>
<path fill="none" stroke="midnightblue" d="M1014.71,-216.144C1022.2,-206.736 1031.23,-195.405 1037.32,-187.751"/>
<polygon fill="midnightblue" stroke="midnightblue" points="1011.88,-214.08 1008.39,-224.083 1017.36,-218.44 1011.88,-214.08"/>
</g>
</g>
</svg>
