<?xml version="1.0" encoding="UTF-8" standalone="no"?>
<!DOCTYPE svg PUBLIC "-//W3C//DTD SVG 1.1//EN"
 "http://www.w3.org/Graphics/SVG/1.1/DTD/svg11.dtd">
<!-- Generated by graphviz version 2.36.0 (20140111.2315)
 -->
<!-- Title: Game/include/GameResources.h Pages: 1 -->
<svg width="1127pt" height="420pt"
 viewBox="0.00 0.00 1127.00 420.00" xmlns="http://www.w3.org/2000/svg" xmlns:xlink="http://www.w3.org/1999/xlink">
<g id="graph0" class="graph" transform="scale(1 1) rotate(0) translate(4 416)">
<title>Game/include/GameResources.h</title>
<polygon fill="white" stroke="none" points="-4,4 -4,-416 1123,-416 1123,4 -4,4"/>
<!-- Node1 -->
<g id="node1" class="node"><title>Node1</title>
<polygon fill="#bfbfbf" stroke="black" points="286.5,-392.5 286.5,-411.5 447.5,-411.5 447.5,-392.5 286.5,-392.5"/>
<text text-anchor="middle" x="367" y="-399.5" font-family="Helvetica,sans-Serif" font-size="10.00">Game/include/GameResources.h</text>
</g>
<!-- Node2 -->
<g id="node2" class="node"><title>Node2</title>
<polygon fill="white" stroke="#bfbfbf" points="652,-112.5 652,-131.5 704,-131.5 704,-112.5 652,-112.5"/>
<text text-anchor="middle" x="678" y="-119.5" font-family="Helvetica,sans-Serif" font-size="10.00">memory</text>
</g>
<!-- Node1&#45;&gt;Node2 -->
<g id="edge1" class="edge"><title>Node1&#45;&gt;Node2</title>
<path fill="none" stroke="midnightblue" d="M379.216,-392.371C400.937,-376.448 446.481,-340.364 473,-300 492.766,-269.915 477.738,-251.471 501,-224 522.256,-198.898 606.009,-156.979 650.26,-135.914"/>
<polygon fill="midnightblue" stroke="midnightblue" points="652.034,-138.947 659.578,-131.509 649.042,-132.618 652.034,-138.947"/>
</g>
<!-- Node3 -->
<g id="node3" class="node"><title>Node3</title>
<polygon fill="white" stroke="#bfbfbf" points="187,-336.5 187,-355.5 225,-355.5 225,-336.5 187,-336.5"/>
<text text-anchor="middle" x="206" y="-343.5" font-family="Helvetica,sans-Serif" font-size="10.00">array</text>
</g>
<!-- Node1&#45;&gt;Node3 -->
<g id="edge2" class="edge"><title>Node1&#45;&gt;Node3</title>
<path fill="none" stroke="midnightblue" d="M341.489,-392.444C312.492,-382.718 265.261,-366.876 234.919,-356.7"/>
<polygon fill="midnightblue" stroke="midnightblue" points="235.922,-353.344 225.328,-353.483 233.696,-359.981 235.922,-353.344"/>
</g>
<!-- Node4 -->
<g id="node4" class="node"><title>Node4</title>
<polygon fill="white" stroke="#bfbfbf" points="138,-168.5 138,-187.5 182,-187.5 182,-168.5 138,-168.5"/>
<text text-anchor="middle" x="160" y="-175.5" font-family="Helvetica,sans-Serif" font-size="10.00">vector</text>
</g>
<!-- Node1&#45;&gt;Node4 -->
<g id="edge3" class="edge"><title>Node1&#45;&gt;Node4</title>
<path fill="none" stroke="midnightblue" d="M304.098,-392.426C266.32,-385.735 217.987,-374.4 178,-356 139.559,-338.311 129.652,-331.139 101,-300 75.9444,-272.77 47.342,-255.35 67,-224 74.0768,-212.714 104.25,-199.375 128.335,-190.166"/>
<polygon fill="midnightblue" stroke="midnightblue" points="129.721,-193.384 137.867,-186.61 127.275,-186.826 129.721,-193.384"/>
</g>
<!-- Node5 -->
<g id="node5" class="node"><title>Node5</title>
<polygon fill="white" stroke="#bfbfbf" points="281,-336.5 281,-355.5 321,-355.5 321,-336.5 281,-336.5"/>
<text text-anchor="middle" x="301" y="-343.5" font-family="Helvetica,sans-Serif" font-size="10.00">utility</text>
</g>
<!-- Node1&#45;&gt;Node5 -->
<g id="edge4" class="edge"><title>Node1&#45;&gt;Node5</title>
<path fill="none" stroke="midnightblue" d="M356.396,-392.324C346.544,-384.263 331.649,-372.077 319.785,-362.369"/>
<polygon fill="midnightblue" stroke="midnightblue" points="321.753,-359.457 311.797,-355.834 317.32,-364.875 321.753,-359.457"/>
</g>
<!-- Node6 -->
<g id="node6" class="node"><title>Node6</title>
<polygon fill="white" stroke="#bfbfbf" points="722.5,-112.5 722.5,-131.5 763.5,-131.5 763.5,-112.5 722.5,-112.5"/>
<text text-anchor="middle" x="743" y="-119.5" font-family="Helvetica,sans-Serif" font-size="10.00">string</text>
</g>
<!-- Node1&#45;&gt;Node6 -->
<g id="edge5" class="edge"><title>Node1&#45;&gt;Node6</title>
<path fill="none" stroke="midnightblue" d="M447.69,-395.17C614.032,-381.283 985.826,-339.973 1061,-244 1066.48,-237.002 1066.79,-230.741 1061,-224 991.551,-143.205 921.562,-230.81 824,-188 810.059,-181.883 779.262,-155.551 759.915,-138.336"/>
<polygon fill="midnightblue" stroke="midnightblue" points="762.189,-135.673 752.407,-131.602 757.515,-140.884 762.189,-135.673"/>
</g>
<!-- Node7 -->
<g id="node7" class="node"><title>Node7</title>
<polygon fill="white" stroke="#bfbfbf" points="1017.5,-56.5 1017.5,-75.5 1100.5,-75.5 1100.5,-56.5 1017.5,-56.5"/>
<text text-anchor="middle" x="1059" y="-63.5" font-family="Helvetica,sans-Serif" font-size="10.00">unordered_map</text>
</g>
<!-- Node1&#45;&gt;Node7 -->
<g id="edge6" class="edge"><title>Node1&#45;&gt;Node7</title>
<path fill="none" stroke="midnightblue" d="M447.834,-397.54C642.058,-388.152 1119,-358.251 1119,-291 1119,-291 1119,-291 1119,-177 1119,-139.883 1092.35,-103.378 1074.57,-83.1581"/>
<polygon fill="midnightblue" stroke="midnightblue" points="1076.93,-80.552 1067.6,-75.5349 1071.76,-85.2762 1076.93,-80.552"/>
</g>
<!-- Node8 -->
<g id="node8" class="node"><title>Node8</title>
<polygon fill="white" stroke="#bfbfbf" points="1017.5,-224.5 1017.5,-243.5 1052.5,-243.5 1052.5,-224.5 1017.5,-224.5"/>
<text text-anchor="middle" x="1035" y="-231.5" font-family="Helvetica,sans-Serif" font-size="10.00">map</text>
</g>
<!-- Node1&#45;&gt;Node8 -->
<g id="edge7" class="edge"><title>Node1&#45;&gt;Node8</title>
<path fill="none" stroke="midnightblue" d="M401.508,-392.425C518.902,-363.252 901.39,-268.202 1007.49,-241.837"/>
<polygon fill="midnightblue" stroke="midnightblue" points="1008.56,-245.177 1017.42,-239.369 1006.87,-238.384 1008.56,-245.177"/>
</g>
<!-- Node9 -->
<g id="node9" class="node"><title>Node9</title>
<g id="a_node9"><a xlink:href="WaveData_8h.html" target="_top" xlink:title="WaveData.h">
<polygon fill="white" stroke="black" points="126.5,-280.5 126.5,-299.5 197.5,-299.5 197.5,-280.5 126.5,-280.5"/>
<text text-anchor="middle" x="162" y="-287.5" font-family="Helvetica,sans-Serif" font-size="10.00">WaveData.h</text>
</a>
</g>
</g>
<!-- Node1&#45;&gt;Node9 -->
<g id="edge8" class="edge"><title>Node1&#45;&gt;Node9</title>
<path fill="none" stroke="midnightblue" d="M347.457,-392.374C328.069,-383.67 297.63,-369.606 272,-356 240.97,-339.527 206.234,-318.559 184.252,-304.962"/>
<polygon fill="midnightblue" stroke="midnightblue" points="186.001,-301.928 175.661,-299.62 182.305,-307.873 186.001,-301.928"/>
</g>
<!-- Node13 -->
<g id="node13" class="node"><title>Node13</title>
<g id="a_node13"><a xlink:href="Enemy_8h.html" target="_top" xlink:title="Enemy.h">
<polygon fill="white" stroke="black" points="339,-336.5 339,-355.5 395,-355.5 395,-336.5 339,-336.5"/>
<text text-anchor="middle" x="367" y="-343.5" font-family="Helvetica,sans-Serif" font-size="10.00">Enemy.h</text>
</a>
</g>
</g>
<!-- Node1&#45;&gt;Node13 -->
<g id="edge14" class="edge"><title>Node1&#45;&gt;Node13</title>
<path fill="none" stroke="midnightblue" d="M367,-392.083C367,-385.006 367,-374.861 367,-365.986"/>
<polygon fill="midnightblue" stroke="midnightblue" points="370.5,-365.751 367,-355.751 363.5,-365.751 370.5,-365.751"/>
</g>
<!-- Node9&#45;&gt;Node4 -->
<g id="edge10" class="edge"><title>Node9&#45;&gt;Node4</title>
<path fill="none" stroke="midnightblue" d="M161.843,-280.368C161.52,-262.617 160.776,-221.666 160.338,-197.597"/>
<polygon fill="midnightblue" stroke="midnightblue" points="163.838,-197.526 160.156,-187.591 156.839,-197.653 163.838,-197.526"/>
</g>
<!-- Node9&#45;&gt;Node6 -->
<g id="edge9" class="edge"><title>Node9&#45;&gt;Node6</title>
<path fill="none" stroke="midnightblue" d="M197.646,-285.126C297.348,-274.286 571.899,-244.411 573,-244 636.949,-220.15 698.847,-165.869 727.077,-138.866"/>
<polygon fill="midnightblue" stroke="midnightblue" points="729.693,-141.203 734.422,-131.722 724.813,-136.185 729.693,-141.203"/>
</g>
<!-- Node10 -->
<g id="node10" class="node"><title>Node10</title>
<g id="a_node10"><a xlink:href="Error_8h.html" target="_top" xlink:title="Error.h">
<polygon fill="white" stroke="black" points="76,-224.5 76,-243.5 122,-243.5 122,-224.5 76,-224.5"/>
<text text-anchor="middle" x="99" y="-231.5" font-family="Helvetica,sans-Serif" font-size="10.00">Error.h</text>
</a>
</g>
</g>
<!-- Node9&#45;&gt;Node10 -->
<g id="edge11" class="edge"><title>Node9&#45;&gt;Node10</title>
<path fill="none" stroke="midnightblue" d="M151.878,-280.324C142.474,-272.263 128.256,-260.077 116.931,-250.369"/>
<polygon fill="midnightblue" stroke="midnightblue" points="119.177,-247.684 109.306,-243.834 114.621,-252.999 119.177,-247.684"/>
</g>
<!-- Node11 -->
<g id="node11" class="node"><title>Node11</title>
<polygon fill="white" stroke="#bfbfbf" points="0,-168.5 0,-187.5 54,-187.5 54,-168.5 0,-168.5"/>
<text text-anchor="middle" x="27" y="-175.5" font-family="Helvetica,sans-Serif" font-size="10.00">iostream</text>
</g>
<!-- Node10&#45;&gt;Node11 -->
<g id="edge12" class="edge"><title>Node10&#45;&gt;Node11</title>
<path fill="none" stroke="midnightblue" d="M87.432,-224.324C76.5798,-216.185 60.1193,-203.839 47.1166,-194.087"/>
<polygon fill="midnightblue" stroke="midnightblue" points="48.8786,-191.034 38.7785,-187.834 44.6785,-196.634 48.8786,-191.034"/>
</g>
<!-- Node12 -->
<g id="node12" class="node"><title>Node12</title>
<polygon fill="white" stroke="#bfbfbf" points="72,-168.5 72,-187.5 120,-187.5 120,-168.5 72,-168.5"/>
<text text-anchor="middle" x="96" y="-175.5" font-family="Helvetica,sans-Serif" font-size="10.00">stdlib.h</text>
</g>
<!-- Node10&#45;&gt;Node12 -->
<g id="edge13" class="edge"><title>Node10&#45;&gt;Node12</title>
<path fill="none" stroke="midnightblue" d="M98.5046,-224.083C98.1114,-217.006 97.5478,-206.861 97.0548,-197.986"/>
<polygon fill="midnightblue" stroke="midnightblue" points="100.536,-197.542 96.4862,-187.751 93.5464,-197.93 100.536,-197.542"/>
</g>
<!-- Node13&#45;&gt;Node9 -->
<g id="edge63" class="edge"><title>Node13&#45;&gt;Node9</title>
<path fill="none" stroke="midnightblue" d="M338.925,-337.605C304.151,-328.445 244.578,-312.752 204.268,-302.134"/>
<polygon fill="midnightblue" stroke="midnightblue" points="205.023,-298.714 194.462,-299.551 203.24,-305.483 205.023,-298.714"/>
</g>
<!-- Node13&#45;&gt;Node10 -->
<g id="edge62" class="edge"><title>Node13&#45;&gt;Node10</title>
<path fill="none" stroke="midnightblue" d="M338.765,-337.913C335.812,-337.237 332.849,-336.586 330,-336 235.963,-316.642 188.285,-364.314 117,-300 104.114,-288.374 100.115,-268.421 99.0328,-253.681"/>
<polygon fill="midnightblue" stroke="midnightblue" points="102.529,-253.518 98.6743,-243.65 95.5338,-253.768 102.529,-253.518"/>
</g>
<!-- Node14 -->
<g id="node14" class="node"><title>Node14</title>
<g id="a_node14"><a xlink:href="GameObject_8h.html" target="_top" xlink:title="GameObject.h">
<polygon fill="white" stroke="black" points="298,-224.5 298,-243.5 378,-243.5 378,-224.5 298,-224.5"/>
<text text-anchor="middle" x="338" y="-231.5" font-family="Helvetica,sans-Serif" font-size="10.00">GameObject.h</text>
</a>
</g>
</g>
<!-- Node13&#45;&gt;Node14 -->
<g id="edge15" class="edge"><title>Node13&#45;&gt;Node14</title>
<path fill="none" stroke="midnightblue" d="M364.724,-336.368C360.023,-318.537 349.151,-277.295 342.817,-253.272"/>
<polygon fill="midnightblue" stroke="midnightblue" points="346.199,-252.369 340.265,-243.591 339.43,-254.153 346.199,-252.369"/>
</g>
<!-- Node18 -->
<g id="node18" class="node"><title>Node18</title>
<g id="a_node18"><a xlink:href="Rect_8h.html" target="_top" xlink:title="Rect.h">
<polygon fill="white" stroke="black" points="344,-112.5 344,-131.5 390,-131.5 390,-112.5 344,-112.5"/>
<text text-anchor="middle" x="367" y="-119.5" font-family="Helvetica,sans-Serif" font-size="10.00">Rect.h</text>
</a>
</g>
</g>
<!-- Node13&#45;&gt;Node18 -->
<g id="edge40" class="edge"><title>Node13&#45;&gt;Node18</title>
<path fill="none" stroke="midnightblue" d="M338.745,-338.156C306.61,-329.784 257.025,-314.881 245,-300 207.856,-254.036 194.289,-215.828 229,-168 232.2,-163.591 294.058,-144.602 333.859,-132.744"/>
<polygon fill="midnightblue" stroke="midnightblue" points="335.108,-136.024 343.698,-129.824 333.116,-129.314 335.108,-136.024"/>
</g>
<!-- Node21 -->
<g id="node21" class="node"><title>Node21</title>
<g id="a_node21"><a xlink:href="Sprite_8h.html" target="_top" xlink:title="Sprite.h">
<polygon fill="white" stroke="black" points="484,-168.5 484,-187.5 534,-187.5 534,-168.5 484,-168.5"/>
<text text-anchor="middle" x="509" y="-175.5" font-family="Helvetica,sans-Serif" font-size="10.00">Sprite.h</text>
</a>
</g>
</g>
<!-- Node13&#45;&gt;Node21 -->
<g id="edge29" class="edge"><title>Node13&#45;&gt;Node21</title>
<path fill="none" stroke="midnightblue" d="M371.222,-336.113C377.598,-323.133 390.49,-298.522 405,-280 431.309,-246.417 468.371,-213.028 490.414,-194.298"/>
<polygon fill="midnightblue" stroke="midnightblue" points="492.928,-196.758 498.338,-187.649 488.428,-191.396 492.928,-196.758"/>
</g>
<!-- Node25 -->
<g id="node25" class="node"><title>Node25</title>
<g id="a_node25"><a xlink:href="TileMap_8h.html" target="_top" xlink:title="TileMap.h">
<polygon fill="white" stroke="black" points="697.5,-280.5 697.5,-299.5 756.5,-299.5 756.5,-280.5 697.5,-280.5"/>
<text text-anchor="middle" x="727" y="-287.5" font-family="Helvetica,sans-Serif" font-size="10.00">TileMap.h</text>
</a>
</g>
</g>
<!-- Node13&#45;&gt;Node25 -->
<g id="edge41" class="edge"><title>Node13&#45;&gt;Node25</title>
<path fill="none" stroke="midnightblue" d="M395.249,-340.763C458.917,-331.212 613.772,-307.984 687.161,-296.976"/>
<polygon fill="midnightblue" stroke="midnightblue" points="688.007,-300.388 697.377,-295.443 686.969,-293.466 688.007,-300.388"/>
</g>
<!-- Node33 -->
<g id="node33" class="node"><title>Node33</title>
<g id="a_node33"><a xlink:href="Timer_8h.html" target="_top" xlink:title="Timer.h">
<polygon fill="white" stroke="black" points="414,-280.5 414,-299.5 464,-299.5 464,-280.5 414,-280.5"/>
<text text-anchor="middle" x="439" y="-287.5" font-family="Helvetica,sans-Serif" font-size="10.00">Timer.h</text>
</a>
</g>
</g>
<!-- Node13&#45;&gt;Node33 -->
<g id="edge61" class="edge"><title>Node13&#45;&gt;Node33</title>
<path fill="none" stroke="midnightblue" d="M378.568,-336.324C389.42,-328.185 405.881,-315.839 418.883,-306.087"/>
<polygon fill="midnightblue" stroke="midnightblue" points="421.321,-308.634 427.221,-299.834 417.121,-303.034 421.321,-308.634"/>
</g>
<!-- Node34 -->
<g id="node34" class="node"><title>Node34</title>
<g id="a_node34"><a xlink:href="HitPoints_8h.html" target="_top" xlink:title="HitPoints.h">
<polygon fill="white" stroke="black" points="254.5,-280.5 254.5,-299.5 319.5,-299.5 319.5,-280.5 254.5,-280.5"/>
<text text-anchor="middle" x="287" y="-287.5" font-family="Helvetica,sans-Serif" font-size="10.00">HitPoints.h</text>
</a>
</g>
</g>
<!-- Node13&#45;&gt;Node34 -->
<g id="edge64" class="edge"><title>Node13&#45;&gt;Node34</title>
<path fill="none" stroke="midnightblue" d="M354.147,-336.324C341.784,-327.979 322.87,-315.212 308.263,-305.352"/>
<polygon fill="midnightblue" stroke="midnightblue" points="310.068,-302.348 299.821,-299.655 306.152,-308.15 310.068,-302.348"/>
</g>
<!-- Node14&#45;&gt;Node2 -->
<g id="edge18" class="edge"><title>Node14&#45;&gt;Node2</title>
<path fill="none" stroke="midnightblue" d="M355.987,-224.4C392.457,-206.972 471.931,-169.043 475,-168 543.939,-144.567 566.228,-148.797 641.695,-131.965"/>
<polygon fill="midnightblue" stroke="midnightblue" points="642.708,-135.324 651.678,-129.686 641.15,-128.5 642.708,-135.324"/>
</g>
<!-- Node14&#45;&gt;Node4 -->
<g id="edge17" class="edge"><title>Node14&#45;&gt;Node4</title>
<path fill="none" stroke="midnightblue" d="M309.795,-224.444C277.724,-214.714 225.478,-198.864 191.935,-188.688"/>
<polygon fill="midnightblue" stroke="midnightblue" points="192.753,-185.279 182.168,-185.725 190.721,-191.977 192.753,-185.279"/>
</g>
<!-- Node14&#45;&gt;Node6 -->
<g id="edge19" class="edge"><title>Node14&#45;&gt;Node6</title>
<path fill="none" stroke="midnightblue" d="M378.35,-225.36C419.899,-217.209 486.386,-203.374 543,-188 603.968,-171.444 673.891,-147.572 712.809,-133.839"/>
<polygon fill="midnightblue" stroke="midnightblue" points="714.216,-137.053 722.471,-130.412 711.876,-130.456 714.216,-137.053"/>
</g>
<!-- Node15 -->
<g id="node15" class="node"><title>Node15</title>
<g id="a_node15"><a xlink:href="SDL__include_8h.html" target="_top" xlink:title="SDL_include.h">
<polygon fill="white" stroke="black" points="501,-0.5 501,-19.5 581,-19.5 581,-0.5 501,-0.5"/>
<text text-anchor="middle" x="541" y="-7.5" font-family="Helvetica,sans-Serif" font-size="10.00">SDL_include.h</text>
</a>
</g>
</g>
<!-- Node14&#45;&gt;Node15 -->
<g id="edge16" class="edge"><title>Node14&#45;&gt;Node15</title>
<path fill="none" stroke="midnightblue" d="M344.846,-224.375C363.97,-200.32 417.814,-132.89 437,-112 466.157,-80.2518 502.849,-45.7786 523.944,-26.436"/>
<polygon fill="midnightblue" stroke="midnightblue" points="526.437,-28.8997 531.466,-19.5748 521.719,-23.7279 526.437,-28.8997"/>
</g>
<!-- Node16 -->
<g id="node16" class="node"><title>Node16</title>
<g id="a_node16"><a xlink:href="Component_8h.html" target="_top" xlink:title="Component.h">
<polygon fill="white" stroke="black" points="238.5,-168.5 238.5,-187.5 313.5,-187.5 313.5,-168.5 238.5,-168.5"/>
<text text-anchor="middle" x="276" y="-175.5" font-family="Helvetica,sans-Serif" font-size="10.00">Component.h</text>
</a>
</g>
</g>
<!-- Node14&#45;&gt;Node16 -->
<g id="edge20" class="edge"><title>Node14&#45;&gt;Node16</title>
<path fill="none" stroke="midnightblue" d="M322.924,-224.324C312.137,-216.42 298.139,-204.548 288.08,-194.938"/>
<polygon fill="midnightblue" stroke="midnightblue" points="290.534,-192.442 280.994,-187.834 285.578,-197.386 290.534,-192.442"/>
</g>
<!-- Node17 -->
<g id="node17" class="node"><title>Node17</title>
<g id="a_node17"><a xlink:href="ComponentType_8h.html" target="_top" xlink:title="ComponentType.h">
<polygon fill="white" stroke="black" points="227.5,-112.5 227.5,-131.5 324.5,-131.5 324.5,-112.5 227.5,-112.5"/>
<text text-anchor="middle" x="276" y="-119.5" font-family="Helvetica,sans-Serif" font-size="10.00">ComponentType.h</text>
</a>
</g>
</g>
<!-- Node14&#45;&gt;Node17 -->
<g id="edge23" class="edge"><title>Node14&#45;&gt;Node17</title>
<path fill="none" stroke="midnightblue" d="M337.391,-224.45C336.151,-211.472 332.489,-186.367 322,-168 315.468,-156.561 305.195,-146.114 296.013,-138.171"/>
<polygon fill="midnightblue" stroke="midnightblue" points="297.978,-135.256 288.025,-131.623 293.54,-140.67 297.978,-135.256"/>
</g>
<!-- Node14&#45;&gt;Node18 -->
<g id="edge24" class="edge"><title>Node14&#45;&gt;Node18</title>
<path fill="none" stroke="midnightblue" d="M342.158,-224.229C346.236,-215.298 352.356,-200.96 356,-188 360.313,-172.661 363.188,-154.782 364.914,-141.662"/>
<polygon fill="midnightblue" stroke="midnightblue" points="368.411,-141.89 366.141,-131.541 361.462,-141.047 368.411,-141.89"/>
</g>
<!-- Node16&#45;&gt;Node14 -->
<g id="edge22" class="edge"><title>Node16&#45;&gt;Node14</title>
<path fill="none" stroke="midnightblue" d="M291.179,-187.751C301.929,-195.639 315.835,-207.433 325.857,-217.002"/>
<polygon fill="midnightblue" stroke="midnightblue" points="323.385,-219.48 332.928,-224.083 328.339,-214.534 323.385,-219.48"/>
</g>
<!-- Node16&#45;&gt;Node17 -->
<g id="edge21" class="edge"><title>Node16&#45;&gt;Node17</title>
<path fill="none" stroke="midnightblue" d="M276,-168.083C276,-161.006 276,-150.861 276,-141.986"/>
<polygon fill="midnightblue" stroke="midnightblue" points="279.5,-141.751 276,-131.751 272.5,-141.751 279.5,-141.751"/>
</g>
<!-- Node18&#45;&gt;Node15 -->
<g id="edge25" class="edge"><title>Node18&#45;&gt;Node15</title>
<path fill="none" stroke="midnightblue" d="M369.744,-112.056C374.481,-98.0853 385.502,-71.1222 404,-56 428.771,-35.7488 462.955,-24.5022 490.978,-18.3167"/>
<polygon fill="midnightblue" stroke="midnightblue" points="491.904,-21.6997 500.995,-16.2595 490.496,-14.8428 491.904,-21.6997"/>
</g>
<!-- Node19 -->
<g id="node19" class="node"><title>Node19</title>
<g id="a_node19"><a xlink:href="Vec2_8h.html" target="_top" xlink:title="Vec2.h">
<polygon fill="white" stroke="black" points="652.5,-56.5 652.5,-75.5 699.5,-75.5 699.5,-56.5 652.5,-56.5"/>
<text text-anchor="middle" x="676" y="-63.5" font-family="Helvetica,sans-Serif" font-size="10.00">Vec2.h</text>
</a>
</g>
</g>
<!-- Node18&#45;&gt;Node19 -->
<g id="edge26" class="edge"><title>Node18&#45;&gt;Node19</title>
<path fill="none" stroke="midnightblue" d="M390.053,-118.072C436.093,-112.049 542.836,-97.2012 642.364,-75.9338"/>
<polygon fill="midnightblue" stroke="midnightblue" points="643.247,-79.3238 652.28,-73.7879 641.766,-72.4822 643.247,-79.3238"/>
</g>
<!-- Node20 -->
<g id="node20" class="node"><title>Node20</title>
<polygon fill="white" stroke="#bfbfbf" points="308,-56.5 308,-75.5 352,-75.5 352,-56.5 308,-56.5"/>
<text text-anchor="middle" x="330" y="-63.5" font-family="Helvetica,sans-Serif" font-size="10.00">cmath</text>
</g>
<!-- Node18&#45;&gt;Node20 -->
<g id="edge28" class="edge"><title>Node18&#45;&gt;Node20</title>
<path fill="none" stroke="midnightblue" d="M360.89,-112.083C355.718,-104.534 348.154,-93.4948 341.806,-84.2298"/>
<polygon fill="midnightblue" stroke="midnightblue" points="344.536,-82.0221 335.996,-75.7511 338.761,-85.9787 344.536,-82.0221"/>
</g>
<!-- Node19&#45;&gt;Node15 -->
<g id="edge27" class="edge"><title>Node19&#45;&gt;Node15</title>
<path fill="none" stroke="midnightblue" d="M654.609,-56.4435C632.293,-47.5171 597.097,-33.4387 571.792,-23.3168"/>
<polygon fill="midnightblue" stroke="midnightblue" points="572.876,-19.9807 562.291,-19.5164 570.276,-26.4801 572.876,-19.9807"/>
</g>
<!-- Node21&#45;&gt;Node2 -->
<g id="edge32" class="edge"><title>Node21&#45;&gt;Node2</title>
<path fill="none" stroke="midnightblue" d="M534.301,-168.916C563.007,-159.743 610.031,-144.718 642.423,-134.368"/>
<polygon fill="midnightblue" stroke="midnightblue" points="643.51,-137.695 651.97,-131.317 641.379,-131.027 643.51,-137.695"/>
</g>
<!-- Node21&#45;&gt;Node6 -->
<g id="edge31" class="edge"><title>Node21&#45;&gt;Node6</title>
<path fill="none" stroke="midnightblue" d="M534.165,-171.146C538.765,-170.089 543.525,-169.004 548,-168 618.232,-152.235 638.676,-150.887 712.613,-131.937"/>
<polygon fill="midnightblue" stroke="midnightblue" points="713.596,-135.298 722.402,-129.406 711.844,-128.52 713.596,-135.298"/>
</g>
<!-- Node21&#45;&gt;Node15 -->
<g id="edge30" class="edge"><title>Node21&#45;&gt;Node15</title>
<path fill="none" stroke="midnightblue" d="M510.72,-168.075C515.758,-141.945 530.55,-65.2106 537.419,-29.577"/>
<polygon fill="midnightblue" stroke="midnightblue" points="540.892,-30.0499 539.348,-19.5681 534.019,-28.7248 540.892,-30.0499"/>
</g>
<!-- Node21&#45;&gt;Node18 -->
<g id="edge34" class="edge"><title>Node21&#45;&gt;Node18</title>
<path fill="none" stroke="midnightblue" d="M486.5,-168.444C462.923,-159.478 425.678,-145.314 399.036,-135.183"/>
<polygon fill="midnightblue" stroke="midnightblue" points="399.986,-131.8 389.395,-131.516 397.498,-138.342 399.986,-131.8"/>
</g>
<!-- Node22 -->
<g id="node22" class="node"><title>Node22</title>
<g id="a_node22"><a xlink:href="Color_8h.html" target="_top" xlink:title="Color.h">
<polygon fill="white" stroke="black" points="446,-112.5 446,-131.5 494,-131.5 494,-112.5 446,-112.5"/>
<text text-anchor="middle" x="470" y="-119.5" font-family="Helvetica,sans-Serif" font-size="10.00">Color.h</text>
</a>
</g>
</g>
<!-- Node21&#45;&gt;Node22 -->
<g id="edge33" class="edge"><title>Node21&#45;&gt;Node22</title>
<path fill="none" stroke="midnightblue" d="M502.56,-168.083C497.051,-160.455 488.969,-149.264 482.235,-139.941"/>
<polygon fill="midnightblue" stroke="midnightblue" points="485.013,-137.809 476.32,-131.751 479.338,-141.907 485.013,-137.809"/>
</g>
<!-- Node23 -->
<g id="node23" class="node"><title>Node23</title>
<g id="a_node23"><a xlink:href="InputManager_8h.html" target="_top" xlink:title="InputManager.h">
<polygon fill="white" stroke="black" points="550,-112.5 550,-131.5 634,-131.5 634,-112.5 550,-112.5"/>
<text text-anchor="middle" x="592" y="-119.5" font-family="Helvetica,sans-Serif" font-size="10.00">InputManager.h</text>
</a>
</g>
</g>
<!-- Node21&#45;&gt;Node23 -->
<g id="edge35" class="edge"><title>Node21&#45;&gt;Node23</title>
<path fill="none" stroke="midnightblue" d="M522.335,-168.324C535.162,-159.979 554.785,-147.212 569.94,-137.352"/>
<polygon fill="midnightblue" stroke="midnightblue" points="572.224,-140.042 578.698,-131.655 568.407,-134.174 572.224,-140.042"/>
</g>
<!-- Node23&#45;&gt;Node7 -->
<g id="edge38" class="edge"><title>Node23&#45;&gt;Node7</title>
<path fill="none" stroke="midnightblue" d="M634.266,-113.317C637.218,-112.849 640.152,-112.405 643,-112 773.605,-93.4333 928.247,-78.5638 1007.1,-71.489"/>
<polygon fill="midnightblue" stroke="midnightblue" points="1007.61,-74.9579 1017.26,-70.5835 1006.99,-67.9856 1007.61,-74.9579"/>
</g>
<!-- Node23&#45;&gt;Node15 -->
<g id="edge36" class="edge"><title>Node23&#45;&gt;Node15</title>
<path fill="none" stroke="midnightblue" d="M587.998,-112.368C579.693,-94.4563 560.437,-52.9233 549.321,-28.9482"/>
<polygon fill="midnightblue" stroke="midnightblue" points="552.365,-27.1916 544.983,-19.5914 546.014,-30.136 552.365,-27.1916"/>
</g>
<!-- Node23&#45;&gt;Node19 -->
<g id="edge37" class="edge"><title>Node23&#45;&gt;Node19</title>
<path fill="none" stroke="midnightblue" d="M605.496,-112.324C618.6,-103.9 638.712,-90.9709 654.107,-81.0741"/>
<polygon fill="midnightblue" stroke="midnightblue" points="656.018,-84.0063 662.537,-75.6545 652.233,-78.118 656.018,-84.0063"/>
</g>
<!-- Node24 -->
<g id="node24" class="node"><title>Node24</title>
<polygon fill="white" stroke="#bfbfbf" points="588,-56.5 588,-75.5 634,-75.5 634,-56.5 588,-56.5"/>
<text text-anchor="middle" x="611" y="-63.5" font-family="Helvetica,sans-Serif" font-size="10.00">cstdint</text>
</g>
<!-- Node23&#45;&gt;Node24 -->
<g id="edge39" class="edge"><title>Node23&#45;&gt;Node24</title>
<path fill="none" stroke="midnightblue" d="M595.137,-112.083C597.683,-104.849 601.356,-94.4087 604.527,-85.3968"/>
<polygon fill="midnightblue" stroke="midnightblue" points="607.903,-86.3459 607.921,-75.7511 601.3,-84.0225 607.903,-86.3459"/>
</g>
<!-- Node25&#45;&gt;Node4 -->
<g id="edge43" class="edge"><title>Node25&#45;&gt;Node4</title>
<path fill="none" stroke="midnightblue" d="M697.339,-289.617C625.62,-290.327 437.753,-287.51 289,-244 248.875,-232.263 206.306,-208.25 181.491,-192.925"/>
<polygon fill="midnightblue" stroke="midnightblue" points="183.221,-189.878 172.892,-187.52 179.496,-195.805 183.221,-189.878"/>
</g>
<!-- Node25&#45;&gt;Node6 -->
<g id="edge42" class="edge"><title>Node25&#45;&gt;Node6</title>
<path fill="none" stroke="midnightblue" d="M756.81,-285.253C799.976,-279.146 876.535,-265.522 893,-244 934.557,-189.677 871.373,-247.468 791,-188 774.141,-175.526 760.603,-155.454 752.257,-140.912"/>
<polygon fill="midnightblue" stroke="midnightblue" points="755.195,-138.989 747.331,-131.889 749.051,-142.344 755.195,-138.989"/>
</g>
<!-- Node25&#45;&gt;Node8 -->
<g id="edge47" class="edge"><title>Node25&#45;&gt;Node8</title>
<path fill="none" stroke="midnightblue" d="M756.618,-285.285C807.379,-278.671 914.122,-263.678 1003,-244 1004.48,-243.673 1005.99,-243.318 1007.51,-242.944"/>
<polygon fill="midnightblue" stroke="midnightblue" points="1008.71,-246.248 1017.48,-240.31 1006.92,-239.481 1008.71,-246.248"/>
</g>
<!-- Node25&#45;&gt;Node14 -->
<g id="edge53" class="edge"><title>Node25&#45;&gt;Node14</title>
<path fill="none" stroke="midnightblue" d="M697.442,-284.897C631.216,-275.703 470.314,-253.367 388.123,-241.958"/>
<polygon fill="midnightblue" stroke="midnightblue" points="388.409,-238.464 378.022,-240.556 387.446,-245.398 388.409,-238.464"/>
</g>
<!-- Node25&#45;&gt;Node19 -->
<g id="edge52" class="edge"><title>Node25&#45;&gt;Node19</title>
<path fill="none" stroke="midnightblue" d="M756.759,-283.516C806.575,-274.091 902.552,-254.796 914,-244 939.181,-220.253 949.945,-196.967 931,-168 881.928,-92.9683 767.103,-73.6712 709.789,-68.7123"/>
<polygon fill="midnightblue" stroke="midnightblue" points="710.024,-65.2202 699.785,-67.943 709.487,-72.1996 710.024,-65.2202"/>
</g>
<!-- Node26 -->
<g id="node26" class="node"><title>Node26</title>
<polygon fill="white" stroke="#bfbfbf" points="658.5,-224.5 658.5,-243.5 687.5,-243.5 687.5,-224.5 658.5,-224.5"/>
<text text-anchor="middle" x="673" y="-231.5" font-family="Helvetica,sans-Serif" font-size="10.00">list</text>
</g>
<!-- Node25&#45;&gt;Node26 -->
<g id="edge44" class="edge"><title>Node25&#45;&gt;Node26</title>
<path fill="none" stroke="midnightblue" d="M718.083,-280.083C710.22,-272.22 698.569,-260.569 689.081,-251.081"/>
<polygon fill="midnightblue" stroke="midnightblue" points="691.297,-248.347 681.751,-243.751 686.347,-253.297 691.297,-248.347"/>
</g>
<!-- Node27 -->
<g id="node27" class="node"><title>Node27</title>
<polygon fill="white" stroke="#bfbfbf" points="705.5,-224.5 705.5,-243.5 748.5,-243.5 748.5,-224.5 705.5,-224.5"/>
<text text-anchor="middle" x="727" y="-231.5" font-family="Helvetica,sans-Serif" font-size="10.00">queue</text>
</g>
<!-- Node25&#45;&gt;Node27 -->
<g id="edge45" class="edge"><title>Node25&#45;&gt;Node27</title>
<path fill="none" stroke="midnightblue" d="M727,-280.083C727,-273.006 727,-262.861 727,-253.986"/>
<polygon fill="midnightblue" stroke="midnightblue" points="730.5,-253.751 727,-243.751 723.5,-253.751 730.5,-253.751"/>
</g>
<!-- Node28 -->
<g id="node28" class="node"><title>Node28</title>
<polygon fill="white" stroke="#bfbfbf" points="767,-224.5 767,-243.5 807,-243.5 807,-224.5 767,-224.5"/>
<text text-anchor="middle" x="787" y="-231.5" font-family="Helvetica,sans-Serif" font-size="10.00">limits</text>
</g>
<!-- Node25&#45;&gt;Node28 -->
<g id="edge46" class="edge"><title>Node25&#45;&gt;Node28</title>
<path fill="none" stroke="midnightblue" d="M736.64,-280.324C745.51,-272.341 758.875,-260.313 769.608,-250.653"/>
<polygon fill="midnightblue" stroke="midnightblue" points="772.093,-253.125 777.185,-243.834 767.41,-247.922 772.093,-253.125"/>
</g>
<!-- Node29 -->
<g id="node29" class="node"><title>Node29</title>
<polygon fill="white" stroke="#bfbfbf" points="825.5,-224.5 825.5,-243.5 884.5,-243.5 884.5,-224.5 825.5,-224.5"/>
<text text-anchor="middle" x="855" y="-231.5" font-family="Helvetica,sans-Serif" font-size="10.00">functional</text>
</g>
<!-- Node25&#45;&gt;Node29 -->
<g id="edge48" class="edge"><title>Node25&#45;&gt;Node29</title>
<path fill="none" stroke="midnightblue" d="M747.282,-280.444C768.347,-271.557 801.517,-257.563 825.486,-247.451"/>
<polygon fill="midnightblue" stroke="midnightblue" points="826.96,-250.628 834.813,-243.516 824.239,-244.179 826.96,-250.628"/>
</g>
<!-- Node30 -->
<g id="node30" class="node"><title>Node30</title>
<g id="a_node30"><a xlink:href="Tileset_8h.html" target="_top" xlink:title="Tileset.h">
<polygon fill="white" stroke="black" points="510,-224.5 510,-243.5 564,-243.5 564,-224.5 510,-224.5"/>
<text text-anchor="middle" x="537" y="-231.5" font-family="Helvetica,sans-Serif" font-size="10.00">Tileset.h</text>
</a>
</g>
</g>
<!-- Node25&#45;&gt;Node30 -->
<g id="edge49" class="edge"><title>Node25&#45;&gt;Node30</title>
<path fill="none" stroke="midnightblue" d="M697.312,-280.562C663.922,-271.073 609.668,-255.653 573.66,-245.419"/>
<polygon fill="midnightblue" stroke="midnightblue" points="574.597,-242.047 564.021,-242.68 572.683,-248.78 574.597,-242.047"/>
</g>
<!-- Node31 -->
<g id="node31" class="node"><title>Node31</title>
<g id="a_node31"><a xlink:href="AStarHeuristic_8h.html" target="_top" xlink:title="AStarHeuristic.h">
<polygon fill="white" stroke="black" points="833.5,-168.5 833.5,-187.5 922.5,-187.5 922.5,-168.5 833.5,-168.5"/>
<text text-anchor="middle" x="878" y="-175.5" font-family="Helvetica,sans-Serif" font-size="10.00">AStarHeuristic.h</text>
</a>
</g>
</g>
<!-- Node25&#45;&gt;Node31 -->
<g id="edge54" class="edge"><title>Node25&#45;&gt;Node31</title>
<path fill="none" stroke="midnightblue" d="M701.866,-280.458C672.305,-269.079 629.571,-247.619 649,-224 670.625,-197.711 762.519,-186.546 823.121,-181.977"/>
<polygon fill="midnightblue" stroke="midnightblue" points="823.58,-185.453 833.305,-181.248 823.081,-178.471 823.58,-185.453"/>
</g>
<!-- Node32 -->
<g id="node32" class="node"><title>Node32</title>
<g id="a_node32"><a xlink:href="Resources_8h.html" target="_top" xlink:title="Resources.h">
<polygon fill="white" stroke="black" points="979,-168.5 979,-187.5 1051,-187.5 1051,-168.5 979,-168.5"/>
<text text-anchor="middle" x="1015" y="-175.5" font-family="Helvetica,sans-Serif" font-size="10.00">Resources.h</text>
</a>
</g>
</g>
<!-- Node25&#45;&gt;Node32 -->
<g id="edge56" class="edge"><title>Node25&#45;&gt;Node32</title>
<path fill="none" stroke="midnightblue" d="M756.857,-289.935C804.455,-290.062 898.897,-284.618 965,-244 983.508,-232.628 997.715,-211.722 1006.17,-196.686"/>
<polygon fill="midnightblue" stroke="midnightblue" points="1009.29,-198.285 1010.89,-187.812 1003.11,-195 1009.29,-198.285"/>
</g>
<!-- Node30&#45;&gt;Node6 -->
<g id="edge50" class="edge"><title>Node30&#45;&gt;Node6</title>
<path fill="none" stroke="midnightblue" d="M553.164,-224.368C588.965,-205.251 675.153,-159.229 717.979,-136.361"/>
<polygon fill="midnightblue" stroke="midnightblue" points="719.738,-139.389 726.911,-131.591 716.441,-133.214 719.738,-139.389"/>
</g>
<!-- Node30&#45;&gt;Node21 -->
<g id="edge51" class="edge"><title>Node30&#45;&gt;Node21</title>
<path fill="none" stroke="midnightblue" d="M532.376,-224.083C528.544,-216.691 522.976,-205.953 518.235,-196.811"/>
<polygon fill="midnightblue" stroke="midnightblue" points="521.248,-195.018 513.538,-187.751 515.034,-198.24 521.248,-195.018"/>
</g>
<!-- Node31&#45;&gt;Node19 -->
<g id="edge55" class="edge"><title>Node31&#45;&gt;Node19</title>
<path fill="none" stroke="midnightblue" d="M864.894,-168.304C845.144,-155.353 806.398,-130.534 772,-112 749.959,-100.124 724.238,-88.1644 704.971,-79.5625"/>
<polygon fill="midnightblue" stroke="midnightblue" points="706.367,-76.3532 695.806,-75.5068 703.534,-82.7543 706.367,-76.3532"/>
</g>
<!-- Node32&#45;&gt;Node2 -->
<g id="edge60" class="edge"><title>Node32&#45;&gt;Node2</title>
<path fill="none" stroke="midnightblue" d="M978.994,-172.862C923.998,-166.275 815.615,-152.249 714.392,-132.109"/>
<polygon fill="midnightblue" stroke="midnightblue" points="714.8,-128.621 704.306,-130.076 713.417,-135.483 714.8,-128.621"/>
</g>
<!-- Node32&#45;&gt;Node6 -->
<g id="edge58" class="edge"><title>Node32&#45;&gt;Node6</title>
<path fill="none" stroke="midnightblue" d="M978.881,-169.829C924.915,-159.115 824.187,-139.118 773.62,-129.079"/>
<polygon fill="midnightblue" stroke="midnightblue" points="774.116,-125.609 763.626,-127.095 772.753,-132.475 774.116,-125.609"/>
</g>
<!-- Node32&#45;&gt;Node7 -->
<g id="edge59" class="edge"><title>Node32&#45;&gt;Node7</title>
<path fill="none" stroke="midnightblue" d="M1018.45,-168.368C1025.62,-150.456 1042.23,-108.923 1051.82,-84.9482"/>
<polygon fill="midnightblue" stroke="midnightblue" points="1055.1,-86.1761 1055.56,-75.5914 1048.6,-83.5763 1055.1,-86.1761"/>
</g>
<!-- Node32&#45;&gt;Node15 -->
<g id="edge57" class="edge"><title>Node32&#45;&gt;Node15</title>
<path fill="none" stroke="midnightblue" d="M1010.82,-168.306C1003.55,-154.182 987.23,-126.39 965,-112 846.393,-35.2256 675.252,-16.7149 591.301,-12.3189"/>
<polygon fill="midnightblue" stroke="midnightblue" points="591.417,-8.82057 581.261,-11.8393 591.083,-15.8126 591.417,-8.82057"/>
</g>
<!-- Node34&#45;&gt;Node10 -->
<g id="edge67" class="edge"><title>Node34&#45;&gt;Node10</title>
<path fill="none" stroke="midnightblue" d="M257.211,-280.444C223.098,-270.645 167.373,-254.639 131.978,-244.472"/>
<polygon fill="midnightblue" stroke="midnightblue" points="132.708,-241.041 122.13,-241.644 130.776,-247.769 132.708,-241.041"/>
</g>
<!-- Node34&#45;&gt;Node16 -->
<g id="edge65" class="edge"><title>Node34&#45;&gt;Node16</title>
<path fill="none" stroke="midnightblue" d="M286.137,-280.368C284.362,-262.617 280.267,-221.666 277.86,-197.597"/>
<polygon fill="midnightblue" stroke="midnightblue" points="281.337,-197.193 276.859,-187.591 274.372,-197.89 281.337,-197.193"/>
</g>
<!-- Node34&#45;&gt;Node21 -->
<g id="edge66" class="edge"><title>Node34&#45;&gt;Node21</title>
<path fill="none" stroke="midnightblue" d="M307.104,-280.423C327.428,-271.642 359.654,-257.419 387,-244 421.426,-227.106 460.407,-205.978 484.845,-192.483"/>
<polygon fill="midnightblue" stroke="midnightblue" points="486.713,-195.45 493.763,-187.541 483.32,-189.327 486.713,-195.45"/>
</g>
</g>
</svg>
