<?xml version="1.0" encoding="UTF-8" standalone="no"?>
<!DOCTYPE svg PUBLIC "-//W3C//DTD SVG 1.1//EN"
 "http://www.w3.org/Graphics/SVG/1.1/DTD/svg11.dtd">
<!-- Generated by graphviz version 2.36.0 (20140111.2315)
 -->
<!-- Title: Game/include/GameResources.h Pages: 1 -->
<svg width="907pt" height="420pt"
 viewBox="0.00 0.00 906.64 420.00" xmlns="http://www.w3.org/2000/svg" xmlns:xlink="http://www.w3.org/1999/xlink">
<g id="graph0" class="graph" transform="scale(1 1) rotate(0) translate(4 416)">
<title>Game/include/GameResources.h</title>
<polygon fill="white" stroke="none" points="-4,4 -4,-416 902.642,-416 902.642,4 -4,4"/>
<!-- Node1 -->
<g id="node1" class="node"><title>Node1</title>
<polygon fill="#bfbfbf" stroke="black" points="110.142,-392.5 110.142,-411.5 271.142,-411.5 271.142,-392.5 110.142,-392.5"/>
<text text-anchor="middle" x="190.642" y="-399.5" font-family="Helvetica,sans-Serif" font-size="10.00">Game/include/GameResources.h</text>
</g>
<!-- Node2 -->
<g id="node2" class="node"><title>Node2</title>
<polygon fill="white" stroke="#bfbfbf" points="706.642,-112.5 706.642,-131.5 758.642,-131.5 758.642,-112.5 706.642,-112.5"/>
<text text-anchor="middle" x="732.642" y="-119.5" font-family="Helvetica,sans-Serif" font-size="10.00">memory</text>
</g>
<!-- Node1&#45;&gt;Node2 -->
<g id="edge1" class="edge"><title>Node1&#45;&gt;Node2</title>
<path fill="none" stroke="midnightblue" d="M271.169,-396.807C456.736,-386.069 898.642,-353.895 898.642,-291 898.642,-291 898.642,-291 898.642,-233 898.642,-198.844 884.269,-189.392 857.642,-168 843.648,-156.757 800.46,-142.55 768.752,-133.14"/>
<polygon fill="midnightblue" stroke="midnightblue" points="769.493,-129.71 758.913,-130.263 767.529,-136.428 769.493,-129.71"/>
</g>
<!-- Node3 -->
<g id="node3" class="node"><title>Node3</title>
<polygon fill="white" stroke="#bfbfbf" points="28.6421,-336.5 28.6421,-355.5 66.6421,-355.5 66.6421,-336.5 28.6421,-336.5"/>
<text text-anchor="middle" x="47.6421" y="-343.5" font-family="Helvetica,sans-Serif" font-size="10.00">array</text>
</g>
<!-- Node1&#45;&gt;Node3 -->
<g id="edge2" class="edge"><title>Node1&#45;&gt;Node3</title>
<path fill="none" stroke="midnightblue" d="M167.983,-392.444C143.263,-383.108 103.621,-368.139 76.6455,-357.952"/>
<polygon fill="midnightblue" stroke="midnightblue" points="77.5763,-354.563 66.9846,-354.304 75.1034,-361.111 77.5763,-354.563"/>
</g>
<!-- Node4 -->
<g id="node4" class="node"><title>Node4</title>
<polygon fill="white" stroke="#bfbfbf" points="146.642,-168.5 146.642,-187.5 190.642,-187.5 190.642,-168.5 146.642,-168.5"/>
<text text-anchor="middle" x="168.642" y="-175.5" font-family="Helvetica,sans-Serif" font-size="10.00">vector</text>
</g>
<!-- Node1&#45;&gt;Node4 -->
<g id="edge3" class="edge"><title>Node1&#45;&gt;Node4</title>
<path fill="none" stroke="midnightblue" d="M189.78,-392.297C186.543,-359.633 175.07,-243.866 170.521,-197.957"/>
<polygon fill="midnightblue" stroke="midnightblue" points="173.992,-197.49 169.522,-187.884 167.026,-198.18 173.992,-197.49"/>
</g>
<!-- Node5 -->
<g id="node5" class="node"><title>Node5</title>
<polygon fill="white" stroke="#bfbfbf" points="122.642,-336.5 122.642,-355.5 162.642,-355.5 162.642,-336.5 122.642,-336.5"/>
<text text-anchor="middle" x="142.642" y="-343.5" font-family="Helvetica,sans-Serif" font-size="10.00">utility</text>
</g>
<!-- Node1&#45;&gt;Node5 -->
<g id="edge4" class="edge"><title>Node1&#45;&gt;Node5</title>
<path fill="none" stroke="midnightblue" d="M182.716,-392.083C175.796,-384.298 165.577,-372.801 157.19,-363.367"/>
<polygon fill="midnightblue" stroke="midnightblue" points="159.68,-360.9 150.421,-355.751 154.449,-365.55 159.68,-360.9"/>
</g>
<!-- Node6 -->
<g id="node6" class="node"><title>Node6</title>
<polygon fill="white" stroke="#bfbfbf" points="339.142,-112.5 339.142,-131.5 380.142,-131.5 380.142,-112.5 339.142,-112.5"/>
<text text-anchor="middle" x="359.642" y="-119.5" font-family="Helvetica,sans-Serif" font-size="10.00">string</text>
</g>
<!-- Node1&#45;&gt;Node6 -->
<g id="edge5" class="edge"><title>Node1&#45;&gt;Node6</title>
<path fill="none" stroke="midnightblue" d="M166.485,-392.485C149.388,-385.277 127.177,-373.327 113.642,-356 95.1138,-332.281 94.6421,-321.098 94.6421,-291 94.6421,-291 94.6421,-291 94.6421,-233 94.6421,-132.759 258.388,-122.141 328.448,-122.186"/>
<polygon fill="midnightblue" stroke="midnightblue" points="328.819,-125.689 338.848,-122.273 328.878,-118.689 328.819,-125.689"/>
</g>
<!-- Node7 -->
<g id="node7" class="node"><title>Node7</title>
<polygon fill="white" stroke="#bfbfbf" points="128.142,-56.5 128.142,-75.5 211.142,-75.5 211.142,-56.5 128.142,-56.5"/>
<text text-anchor="middle" x="169.642" y="-63.5" font-family="Helvetica,sans-Serif" font-size="10.00">unordered_map</text>
</g>
<!-- Node1&#45;&gt;Node7 -->
<g id="edge6" class="edge"><title>Node1&#45;&gt;Node7</title>
<path fill="none" stroke="midnightblue" d="M109.964,-396.613C78.1805,-390.961 43.6206,-379.338 19.6421,-356 -1.92626,-335.008 0.642088,-321.098 0.642088,-291 0.642088,-291 0.642088,-291 0.642088,-177 0.642088,-120.34 68.1928,-91.3557 117.88,-77.7001"/>
<polygon fill="midnightblue" stroke="midnightblue" points="119.076,-81.0053 127.867,-75.092 117.307,-74.2324 119.076,-81.0053"/>
</g>
<!-- Node8 -->
<g id="node8" class="node"><title>Node8</title>
<polygon fill="white" stroke="#bfbfbf" points="257.142,-336.5 257.142,-355.5 292.142,-355.5 292.142,-336.5 257.142,-336.5"/>
<text text-anchor="middle" x="274.642" y="-343.5" font-family="Helvetica,sans-Serif" font-size="10.00">map</text>
</g>
<!-- Node1&#45;&gt;Node8 -->
<g id="edge7" class="edge"><title>Node1&#45;&gt;Node8</title>
<path fill="none" stroke="midnightblue" d="M204.138,-392.324C217.242,-383.9 237.354,-370.971 252.749,-361.074"/>
<polygon fill="midnightblue" stroke="midnightblue" points="254.66,-364.006 261.18,-355.655 250.875,-358.118 254.66,-364.006"/>
</g>
<!-- Node9 -->
<g id="node9" class="node"><title>Node9</title>
<g id="a_node9"><a xlink:href="WaveData_8h.html" target="_top" xlink:title="WaveData.h">
<polygon fill="white" stroke="black" points="193.142,-280.5 193.142,-299.5 264.142,-299.5 264.142,-280.5 193.142,-280.5"/>
<text text-anchor="middle" x="228.642" y="-287.5" font-family="Helvetica,sans-Serif" font-size="10.00">WaveData.h</text>
</a>
</g>
</g>
<!-- Node1&#45;&gt;Node9 -->
<g id="edge8" class="edge"><title>Node1&#45;&gt;Node9</title>
<path fill="none" stroke="midnightblue" d="M193.624,-392.368C199.784,-374.537 214.031,-333.295 222.33,-309.272"/>
<polygon fill="midnightblue" stroke="midnightblue" points="225.717,-310.186 225.674,-299.591 219.101,-307.9 225.717,-310.186"/>
</g>
<!-- Node13 -->
<g id="node13" class="node"><title>Node13</title>
<g id="a_node13"><a xlink:href="Enemy_8h.html" target="_top" xlink:title="Enemy.h">
<polygon fill="white" stroke="black" points="491.642,-336.5 491.642,-355.5 547.642,-355.5 547.642,-336.5 491.642,-336.5"/>
<text text-anchor="middle" x="519.642" y="-343.5" font-family="Helvetica,sans-Serif" font-size="10.00">Enemy.h</text>
</a>
</g>
</g>
<!-- Node1&#45;&gt;Node13 -->
<g id="edge14" class="edge"><title>Node1&#45;&gt;Node13</title>
<path fill="none" stroke="midnightblue" d="M242.773,-392.444C309.264,-381.53 422.671,-362.916 481.586,-353.246"/>
<polygon fill="midnightblue" stroke="midnightblue" points="482.285,-356.678 491.586,-351.605 481.151,-349.771 482.285,-356.678"/>
</g>
<!-- Node9&#45;&gt;Node4 -->
<g id="edge10" class="edge"><title>Node9&#45;&gt;Node4</title>
<path fill="none" stroke="midnightblue" d="M223.934,-280.368C214.12,-262.376 191.306,-220.55 178.257,-196.627"/>
<polygon fill="midnightblue" stroke="midnightblue" points="181.19,-194.694 173.328,-187.591 175.044,-198.046 181.19,-194.694"/>
</g>
<!-- Node9&#45;&gt;Node6 -->
<g id="edge9" class="edge"><title>Node9&#45;&gt;Node6</title>
<path fill="none" stroke="midnightblue" d="M229.899,-280.311C233.415,-258.819 245.164,-202.419 275.642,-168 290.078,-151.697 311.876,-140.262 329.648,-133"/>
<polygon fill="midnightblue" stroke="midnightblue" points="330.958,-136.246 339.036,-129.39 328.446,-129.712 330.958,-136.246"/>
</g>
<!-- Node10 -->
<g id="node10" class="node"><title>Node10</title>
<g id="a_node10"><a xlink:href="Error_8h.html" target="_top" xlink:title="Error.h">
<polygon fill="white" stroke="black" points="357.642,-224.5 357.642,-243.5 403.642,-243.5 403.642,-224.5 357.642,-224.5"/>
<text text-anchor="middle" x="380.642" y="-231.5" font-family="Helvetica,sans-Serif" font-size="10.00">Error.h</text>
</a>
</g>
</g>
<!-- Node9&#45;&gt;Node10 -->
<g id="edge11" class="edge"><title>Node9&#45;&gt;Node10</title>
<path fill="none" stroke="midnightblue" d="M252.727,-280.444C278.337,-271.345 319.011,-256.895 347.604,-246.737"/>
<polygon fill="midnightblue" stroke="midnightblue" points="348.918,-249.985 357.169,-243.339 346.575,-243.389 348.918,-249.985"/>
</g>
<!-- Node11 -->
<g id="node11" class="node"><title>Node11</title>
<polygon fill="white" stroke="#bfbfbf" points="284.642,-168.5 284.642,-187.5 338.642,-187.5 338.642,-168.5 284.642,-168.5"/>
<text text-anchor="middle" x="311.642" y="-175.5" font-family="Helvetica,sans-Serif" font-size="10.00">iostream</text>
</g>
<!-- Node10&#45;&gt;Node11 -->
<g id="edge12" class="edge"><title>Node10&#45;&gt;Node11</title>
<path fill="none" stroke="midnightblue" d="M369.556,-224.324C359.156,-216.185 343.381,-203.839 330.92,-194.087"/>
<polygon fill="midnightblue" stroke="midnightblue" points="332.962,-191.241 322.93,-187.834 328.648,-196.753 332.962,-191.241"/>
</g>
<!-- Node12 -->
<g id="node12" class="node"><title>Node12</title>
<polygon fill="white" stroke="#bfbfbf" points="356.642,-168.5 356.642,-187.5 404.642,-187.5 404.642,-168.5 356.642,-168.5"/>
<text text-anchor="middle" x="380.642" y="-175.5" font-family="Helvetica,sans-Serif" font-size="10.00">stdlib.h</text>
</g>
<!-- Node10&#45;&gt;Node12 -->
<g id="edge13" class="edge"><title>Node10&#45;&gt;Node12</title>
<path fill="none" stroke="midnightblue" d="M380.642,-224.083C380.642,-217.006 380.642,-206.861 380.642,-197.986"/>
<polygon fill="midnightblue" stroke="midnightblue" points="384.142,-197.751 380.642,-187.751 377.142,-197.751 384.142,-197.751"/>
</g>
<!-- Node13&#45;&gt;Node9 -->
<g id="edge51" class="edge"><title>Node13&#45;&gt;Node9</title>
<path fill="none" stroke="midnightblue" d="M491.475,-339.773C441.182,-330.44 335.505,-310.83 274.58,-299.525"/>
<polygon fill="midnightblue" stroke="midnightblue" points="274.946,-296.033 264.475,-297.649 273.669,-302.915 274.946,-296.033"/>
</g>
<!-- Node13&#45;&gt;Node10 -->
<g id="edge50" class="edge"><title>Node13&#45;&gt;Node10</title>
<path fill="none" stroke="midnightblue" d="M491.518,-338.111C469.088,-331.444 438,-319.441 416.642,-300 402.655,-287.268 392.88,-267.797 387.081,-253.484"/>
<polygon fill="midnightblue" stroke="midnightblue" points="390.213,-251.869 383.418,-243.741 383.661,-254.333 390.213,-251.869"/>
</g>
<!-- Node14 -->
<g id="node14" class="node"><title>Node14</title>
<g id="a_node14"><a xlink:href="GameObject_8h.html" target="_top" xlink:title="GameObject.h">
<polygon fill="white" stroke="black" points="630.642,-224.5 630.642,-243.5 710.642,-243.5 710.642,-224.5 630.642,-224.5"/>
<text text-anchor="middle" x="670.642" y="-231.5" font-family="Helvetica,sans-Serif" font-size="10.00">GameObject.h</text>
</a>
</g>
</g>
<!-- Node13&#45;&gt;Node14 -->
<g id="edge15" class="edge"><title>Node13&#45;&gt;Node14</title>
<path fill="none" stroke="midnightblue" d="M547.805,-341.725C591.724,-335.975 673.305,-322.489 690.642,-300 701.404,-286.039 692.811,-266.255 683.778,-252.188"/>
<polygon fill="midnightblue" stroke="midnightblue" points="686.575,-250.08 677.978,-243.888 680.837,-254.089 686.575,-250.08"/>
</g>
<!-- Node18 -->
<g id="node18" class="node"><title>Node18</title>
<g id="a_node18"><a xlink:href="Rect_8h.html" target="_top" xlink:title="Rect.h">
<polygon fill="white" stroke="black" points="642.642,-112.5 642.642,-131.5 688.642,-131.5 688.642,-112.5 642.642,-112.5"/>
<text text-anchor="middle" x="665.642" y="-119.5" font-family="Helvetica,sans-Serif" font-size="10.00">Rect.h</text>
</a>
</g>
</g>
<!-- Node13&#45;&gt;Node18 -->
<g id="edge40" class="edge"><title>Node13&#45;&gt;Node18</title>
<path fill="none" stroke="midnightblue" d="M547.887,-342.342C615.96,-334.157 787.389,-302.465 840.642,-188 877.625,-108.507 787.693,-150.948 698.441,-131.901"/>
<polygon fill="midnightblue" stroke="midnightblue" points="699.234,-128.492 688.693,-129.565 697.602,-135.299 699.234,-128.492"/>
</g>
<!-- Node21 -->
<g id="node21" class="node"><title>Node21</title>
<g id="a_node21"><a xlink:href="Sprite_8h.html" target="_top" xlink:title="Sprite.h">
<polygon fill="white" stroke="black" points="536.642,-168.5 536.642,-187.5 586.642,-187.5 586.642,-168.5 536.642,-168.5"/>
<text text-anchor="middle" x="561.642" y="-175.5" font-family="Helvetica,sans-Serif" font-size="10.00">Sprite.h</text>
</a>
</g>
</g>
<!-- Node13&#45;&gt;Node21 -->
<g id="edge29" class="edge"><title>Node13&#45;&gt;Node21</title>
<path fill="none" stroke="midnightblue" d="M521.9,-336.075C528.511,-309.945 547.926,-233.211 556.942,-197.577"/>
<polygon fill="midnightblue" stroke="midnightblue" points="560.414,-198.121 559.474,-187.568 553.628,-196.404 560.414,-198.121"/>
</g>
<!-- Node25 -->
<g id="node25" class="node"><title>Node25</title>
<g id="a_node25"><a xlink:href="TileMap_8h.html" target="_top" xlink:title="TileMap.h">
<polygon fill="white" stroke="black" points="426.142,-280.5 426.142,-299.5 485.142,-299.5 485.142,-280.5 426.142,-280.5"/>
<text text-anchor="middle" x="455.642" y="-287.5" font-family="Helvetica,sans-Serif" font-size="10.00">TileMap.h</text>
</a>
</g>
</g>
<!-- Node13&#45;&gt;Node25 -->
<g id="edge41" class="edge"><title>Node13&#45;&gt;Node25</title>
<path fill="none" stroke="midnightblue" d="M509.359,-336.324C499.806,-328.263 485.362,-316.077 473.858,-306.369"/>
<polygon fill="midnightblue" stroke="midnightblue" points="476.012,-303.608 466.112,-299.834 471.498,-308.958 476.012,-303.608"/>
</g>
<!-- Node27 -->
<g id="node27" class="node"><title>Node27</title>
<g id="a_node27"><a xlink:href="Timer_8h.html" target="_top" xlink:title="Timer.h">
<polygon fill="white" stroke="black" points="631.642,-280.5 631.642,-299.5 681.642,-299.5 681.642,-280.5 631.642,-280.5"/>
<text text-anchor="middle" x="656.642" y="-287.5" font-family="Helvetica,sans-Serif" font-size="10.00">Timer.h</text>
</a>
</g>
</g>
<!-- Node13&#45;&gt;Node27 -->
<g id="edge49" class="edge"><title>Node13&#45;&gt;Node27</title>
<path fill="none" stroke="midnightblue" d="M541.35,-336.444C563.997,-327.517 599.714,-313.439 625.394,-303.317"/>
<polygon fill="midnightblue" stroke="midnightblue" points="627.016,-306.44 635.036,-299.516 624.449,-299.927 627.016,-306.44"/>
</g>
<!-- Node28 -->
<g id="node28" class="node"><title>Node28</title>
<g id="a_node28"><a xlink:href="HitPoints_8h.html" target="_top" xlink:title="HitPoints.h">
<polygon fill="white" stroke="black" points="548.142,-280.5 548.142,-299.5 613.142,-299.5 613.142,-280.5 548.142,-280.5"/>
<text text-anchor="middle" x="580.642" y="-287.5" font-family="Helvetica,sans-Serif" font-size="10.00">HitPoints.h</text>
</a>
</g>
</g>
<!-- Node13&#45;&gt;Node28 -->
<g id="edge52" class="edge"><title>Node13&#45;&gt;Node28</title>
<path fill="none" stroke="midnightblue" d="M529.443,-336.324C538.46,-328.341 552.048,-316.313 562.96,-306.653"/>
<polygon fill="midnightblue" stroke="midnightblue" points="565.495,-309.083 570.663,-299.834 560.855,-303.842 565.495,-309.083"/>
</g>
<!-- Node14&#45;&gt;Node2 -->
<g id="edge18" class="edge"><title>Node14&#45;&gt;Node2</title>
<path fill="none" stroke="midnightblue" d="M675.507,-224.368C685.694,-206.296 709.434,-164.176 722.887,-140.307"/>
<polygon fill="midnightblue" stroke="midnightblue" points="725.939,-142.022 727.8,-131.591 719.84,-138.584 725.939,-142.022"/>
</g>
<!-- Node14&#45;&gt;Node4 -->
<g id="edge17" class="edge"><title>Node14&#45;&gt;Node4</title>
<path fill="none" stroke="midnightblue" d="M630.41,-228.672C533.589,-218.257 289.108,-191.958 200.957,-182.476"/>
<polygon fill="midnightblue" stroke="midnightblue" points="201.082,-178.969 190.765,-181.38 200.334,-185.929 201.082,-178.969"/>
</g>
<!-- Node14&#45;&gt;Node6 -->
<g id="edge19" class="edge"><title>Node14&#45;&gt;Node6</title>
<path fill="none" stroke="midnightblue" d="M641.703,-224.49C612.689,-215.817 566.819,-201.727 527.642,-188 478.962,-170.943 423.272,-148.883 389.812,-135.348"/>
<polygon fill="midnightblue" stroke="midnightblue" points="390.756,-131.954 380.174,-131.436 388.124,-138.44 390.756,-131.954"/>
</g>
<!-- Node15 -->
<g id="node15" class="node"><title>Node15</title>
<g id="a_node15"><a xlink:href="SDL__include_8h.html" target="_top" xlink:title="SDL_include.h">
<polygon fill="white" stroke="black" points="536.642,-0.5 536.642,-19.5 616.642,-19.5 616.642,-0.5 536.642,-0.5"/>
<text text-anchor="middle" x="576.642" y="-7.5" font-family="Helvetica,sans-Serif" font-size="10.00">SDL_include.h</text>
</a>
</g>
</g>
<!-- Node14&#45;&gt;Node15 -->
<g id="edge16" class="edge"><title>Node14&#45;&gt;Node15</title>
<path fill="none" stroke="midnightblue" d="M666.957,-224.297C653.068,-191.494 603.692,-74.8835 584.424,-29.3774"/>
<polygon fill="midnightblue" stroke="midnightblue" points="587.526,-27.7276 580.404,-19.8837 581.08,-30.457 587.526,-27.7276"/>
</g>
<!-- Node16 -->
<g id="node16" class="node"><title>Node16</title>
<g id="a_node16"><a xlink:href="Component_8h.html" target="_top" xlink:title="Component.h">
<polygon fill="white" stroke="black" points="757.142,-168.5 757.142,-187.5 832.142,-187.5 832.142,-168.5 757.142,-168.5"/>
<text text-anchor="middle" x="794.642" y="-175.5" font-family="Helvetica,sans-Serif" font-size="10.00">Component.h</text>
</a>
</g>
</g>
<!-- Node14&#45;&gt;Node16 -->
<g id="edge20" class="edge"><title>Node14&#45;&gt;Node16</title>
<path fill="none" stroke="midnightblue" d="M685.201,-224.444C703.741,-215.517 735.842,-201.439 760.589,-191.317"/>
<polygon fill="midnightblue" stroke="midnightblue" points="762.042,-194.505 770.006,-187.516 759.423,-188.013 762.042,-194.505"/>
</g>
<!-- Node17 -->
<g id="node17" class="node"><title>Node17</title>
<g id="a_node17"><a xlink:href="ComponentType_8h.html" target="_top" xlink:title="ComponentType.h">
<polygon fill="white" stroke="black" points="777.142,-112.5 777.142,-131.5 874.142,-131.5 874.142,-112.5 777.142,-112.5"/>
<text text-anchor="middle" x="825.642" y="-119.5" font-family="Helvetica,sans-Serif" font-size="10.00">ComponentType.h</text>
</a>
</g>
</g>
<!-- Node14&#45;&gt;Node17 -->
<g id="edge23" class="edge"><title>Node14&#45;&gt;Node17</title>
<path fill="none" stroke="midnightblue" d="M679.843,-224.465C694.035,-211.506 722.38,-186.426 748.642,-168 765.227,-156.364 784.973,-144.867 800.317,-136.407"/>
<polygon fill="midnightblue" stroke="midnightblue" points="802.121,-139.41 809.234,-131.557 798.777,-133.26 802.121,-139.41"/>
</g>
<!-- Node14&#45;&gt;Node18 -->
<g id="edge24" class="edge"><title>Node14&#45;&gt;Node18</title>
<path fill="none" stroke="midnightblue" d="M670.25,-224.368C669.443,-206.617 667.581,-165.666 666.487,-141.597"/>
<polygon fill="midnightblue" stroke="midnightblue" points="669.983,-141.422 666.033,-131.591 662.99,-141.74 669.983,-141.422"/>
</g>
<!-- Node16&#45;&gt;Node14 -->
<g id="edge22" class="edge"><title>Node16&#45;&gt;Node14</title>
<path fill="none" stroke="midnightblue" d="M780.166,-187.516C761.667,-196.427 729.575,-210.504 704.807,-220.638"/>
<polygon fill="midnightblue" stroke="midnightblue" points="703.342,-217.455 695.379,-224.444 705.962,-223.946 703.342,-217.455"/>
</g>
<!-- Node16&#45;&gt;Node17 -->
<g id="edge21" class="edge"><title>Node16&#45;&gt;Node17</title>
<path fill="none" stroke="midnightblue" d="M799.761,-168.083C804.05,-160.613 810.3,-149.724 815.584,-140.52"/>
<polygon fill="midnightblue" stroke="midnightblue" points="818.675,-142.166 820.618,-131.751 812.604,-138.681 818.675,-142.166"/>
</g>
<!-- Node18&#45;&gt;Node15 -->
<g id="edge25" class="edge"><title>Node18&#45;&gt;Node15</title>
<path fill="none" stroke="midnightblue" d="M661.914,-112.425C656.013,-99.4123 643.639,-74.2646 628.642,-56 619.409,-44.7546 607.181,-34.0173 596.903,-25.8532"/>
<polygon fill="midnightblue" stroke="midnightblue" points="598.896,-22.9706 588.837,-19.6458 594.627,-28.5182 598.896,-22.9706"/>
</g>
<!-- Node19 -->
<g id="node19" class="node"><title>Node19</title>
<g id="a_node19"><a xlink:href="Vec2_8h.html" target="_top" xlink:title="Vec2.h">
<polygon fill="white" stroke="black" points="399.142,-56.5 399.142,-75.5 446.142,-75.5 446.142,-56.5 399.142,-56.5"/>
<text text-anchor="middle" x="422.642" y="-63.5" font-family="Helvetica,sans-Serif" font-size="10.00">Vec2.h</text>
</a>
</g>
</g>
<!-- Node18&#45;&gt;Node19 -->
<g id="edge26" class="edge"><title>Node18&#45;&gt;Node19</title>
<path fill="none" stroke="midnightblue" d="M642.553,-116.486C605.449,-109.139 530.056,-93.8305 456.314,-76.0548"/>
<polygon fill="midnightblue" stroke="midnightblue" points="456.938,-72.6048 446.395,-73.6461 455.286,-79.4071 456.938,-72.6048"/>
</g>
<!-- Node20 -->
<g id="node20" class="node"><title>Node20</title>
<polygon fill="white" stroke="#bfbfbf" points="680.642,-56.5 680.642,-75.5 724.642,-75.5 724.642,-56.5 680.642,-56.5"/>
<text text-anchor="middle" x="702.642" y="-63.5" font-family="Helvetica,sans-Serif" font-size="10.00">cmath</text>
</g>
<!-- Node18&#45;&gt;Node20 -->
<g id="edge28" class="edge"><title>Node18&#45;&gt;Node20</title>
<path fill="none" stroke="midnightblue" d="M671.752,-112.083C676.924,-104.534 684.488,-93.4948 690.837,-84.2298"/>
<polygon fill="midnightblue" stroke="midnightblue" points="693.881,-85.9787 696.646,-75.7511 688.106,-82.0221 693.881,-85.9787"/>
</g>
<!-- Node19&#45;&gt;Node15 -->
<g id="edge27" class="edge"><title>Node19&#45;&gt;Node15</title>
<path fill="none" stroke="midnightblue" d="M446.367,-56.6808C472.103,-47.6564 513.414,-33.1709 542.607,-22.9345"/>
<polygon fill="midnightblue" stroke="midnightblue" points="544.103,-26.1188 552.382,-19.5069 541.787,-19.5131 544.103,-26.1188"/>
</g>
<!-- Node21&#45;&gt;Node2 -->
<g id="edge32" class="edge"><title>Node21&#45;&gt;Node2</title>
<path fill="none" stroke="midnightblue" d="M586.874,-169.032C615.921,-159.859 663.849,-144.724 696.768,-134.329"/>
<polygon fill="midnightblue" stroke="midnightblue" points="697.982,-137.616 706.464,-131.267 695.875,-130.94 697.982,-137.616"/>
</g>
<!-- Node21&#45;&gt;Node6 -->
<g id="edge31" class="edge"><title>Node21&#45;&gt;Node6</title>
<path fill="none" stroke="midnightblue" d="M536.5,-170.72C504.698,-162.713 448.034,-148.231 389.976,-132.017"/>
<polygon fill="midnightblue" stroke="midnightblue" points="390.845,-128.626 380.271,-129.294 388.953,-135.365 390.845,-128.626"/>
</g>
<!-- Node21&#45;&gt;Node15 -->
<g id="edge30" class="edge"><title>Node21&#45;&gt;Node15</title>
<path fill="none" stroke="midnightblue" d="M562.449,-168.075C564.81,-141.945 571.744,-65.2106 574.963,-29.577"/>
<polygon fill="midnightblue" stroke="midnightblue" points="578.454,-29.8425 575.868,-19.5681 571.482,-29.2125 578.454,-29.8425"/>
</g>
<!-- Node21&#45;&gt;Node18 -->
<g id="edge34" class="edge"><title>Node21&#45;&gt;Node18</title>
<path fill="none" stroke="midnightblue" d="M578.351,-168.324C594.954,-159.703 620.644,-146.364 639.863,-136.386"/>
<polygon fill="midnightblue" stroke="midnightblue" points="641.712,-139.369 648.974,-131.655 638.486,-133.156 641.712,-139.369"/>
</g>
<!-- Node22 -->
<g id="node22" class="node"><title>Node22</title>
<g id="a_node22"><a xlink:href="Color_8h.html" target="_top" xlink:title="Color.h">
<polygon fill="white" stroke="black" points="398.642,-112.5 398.642,-131.5 446.642,-131.5 446.642,-112.5 398.642,-112.5"/>
<text text-anchor="middle" x="422.642" y="-119.5" font-family="Helvetica,sans-Serif" font-size="10.00">Color.h</text>
</a>
</g>
</g>
<!-- Node21&#45;&gt;Node22 -->
<g id="edge33" class="edge"><title>Node21&#45;&gt;Node22</title>
<path fill="none" stroke="midnightblue" d="M539.617,-168.444C516.538,-159.478 480.08,-145.314 454.001,-135.183"/>
<polygon fill="midnightblue" stroke="midnightblue" points="455.153,-131.875 444.564,-131.516 452.618,-138.4 455.153,-131.875"/>
</g>
<!-- Node23 -->
<g id="node23" class="node"><title>Node23</title>
<g id="a_node23"><a xlink:href="InputManager_8h.html" target="_top" xlink:title="InputManager.h">
<polygon fill="white" stroke="black" points="464.642,-112.5 464.642,-131.5 548.642,-131.5 548.642,-112.5 464.642,-112.5"/>
<text text-anchor="middle" x="506.642" y="-119.5" font-family="Helvetica,sans-Serif" font-size="10.00">InputManager.h</text>
</a>
</g>
</g>
<!-- Node21&#45;&gt;Node23 -->
<g id="edge35" class="edge"><title>Node21&#45;&gt;Node23</title>
<path fill="none" stroke="midnightblue" d="M552.56,-168.083C544.471,-160.141 532.447,-148.335 522.732,-138.797"/>
<polygon fill="midnightblue" stroke="midnightblue" points="525.143,-136.26 515.555,-131.751 520.239,-141.254 525.143,-136.26"/>
</g>
<!-- Node23&#45;&gt;Node7 -->
<g id="edge38" class="edge"><title>Node23&#45;&gt;Node7</title>
<path fill="none" stroke="midnightblue" d="M464.628,-113.522C461.588,-113 458.569,-112.488 455.642,-112 373.795,-98.3404 278.573,-83.5844 221.264,-74.8266"/>
<polygon fill="midnightblue" stroke="midnightblue" points="221.776,-71.3643 211.362,-73.3155 220.72,-78.2842 221.776,-71.3643"/>
</g>
<!-- Node23&#45;&gt;Node15 -->
<g id="edge36" class="edge"><title>Node23&#45;&gt;Node15</title>
<path fill="none" stroke="midnightblue" d="M512.135,-112.368C523.636,-94.2957 550.439,-52.1764 565.628,-28.3074"/>
<polygon fill="midnightblue" stroke="midnightblue" points="568.759,-29.9071 571.175,-19.5914 562.853,-26.149 568.759,-29.9071"/>
</g>
<!-- Node23&#45;&gt;Node19 -->
<g id="edge37" class="edge"><title>Node23&#45;&gt;Node19</title>
<path fill="none" stroke="midnightblue" d="M493.146,-112.324C480.042,-103.9 459.93,-90.9709 444.535,-81.0741"/>
<polygon fill="midnightblue" stroke="midnightblue" points="446.409,-78.118 436.105,-75.6545 442.624,-84.0063 446.409,-78.118"/>
</g>
<!-- Node24 -->
<g id="node24" class="node"><title>Node24</title>
<polygon fill="white" stroke="#bfbfbf" points="464.642,-56.5 464.642,-75.5 510.642,-75.5 510.642,-56.5 464.642,-56.5"/>
<text text-anchor="middle" x="487.642" y="-63.5" font-family="Helvetica,sans-Serif" font-size="10.00">cstdint</text>
</g>
<!-- Node23&#45;&gt;Node24 -->
<g id="edge39" class="edge"><title>Node23&#45;&gt;Node24</title>
<path fill="none" stroke="midnightblue" d="M503.505,-112.083C500.959,-104.849 497.286,-94.4087 494.115,-85.3968"/>
<polygon fill="midnightblue" stroke="midnightblue" points="497.342,-84.0225 490.721,-75.7511 490.739,-86.3459 497.342,-84.0225"/>
</g>
<!-- Node25&#45;&gt;Node4 -->
<g id="edge43" class="edge"><title>Node25&#45;&gt;Node4</title>
<path fill="none" stroke="midnightblue" d="M426.058,-283.962C390.612,-277.348 329.847,-264.155 280.642,-244 246.965,-230.205 211.097,-207.867 189.273,-193.305"/>
<polygon fill="midnightblue" stroke="midnightblue" points="191.07,-190.295 180.827,-187.588 187.146,-196.092 191.07,-190.295"/>
</g>
<!-- Node25&#45;&gt;Node6 -->
<g id="edge42" class="edge"><title>Node25&#45;&gt;Node6</title>
<path fill="none" stroke="midnightblue" d="M454.289,-280.362C450.683,-259.457 439.319,-205.126 413.642,-168 405.316,-155.962 392.939,-145.326 382.134,-137.421"/>
<polygon fill="midnightblue" stroke="midnightblue" points="384.119,-134.538 373.913,-131.692 380.116,-140.281 384.119,-134.538"/>
</g>
<!-- Node25&#45;&gt;Node14 -->
<g id="edge44" class="edge"><title>Node25&#45;&gt;Node14</title>
<path fill="none" stroke="midnightblue" d="M485.537,-281.492C522.283,-272.262 584.932,-256.527 627.044,-245.95"/>
<polygon fill="midnightblue" stroke="midnightblue" points="627.906,-249.342 636.753,-243.512 626.201,-242.553 627.906,-249.342"/>
</g>
<!-- Node25&#45;&gt;Node19 -->
<g id="edge48" class="edge"><title>Node25&#45;&gt;Node19</title>
<path fill="none" stroke="midnightblue" d="M426.091,-283.137C382.865,-272.718 304.411,-246.329 275.642,-188 248.501,-132.972 338.007,-94.1275 389.27,-76.9292"/>
<polygon fill="midnightblue" stroke="midnightblue" points="390.537,-80.1978 398.966,-73.7798 388.374,-73.5402 390.537,-80.1978"/>
</g>
<!-- Node26 -->
<g id="node26" class="node"><title>Node26</title>
<g id="a_node26"><a xlink:href="Tileset_8h.html" target="_top" xlink:title="Tileset.h">
<polygon fill="white" stroke="black" points="460.642,-224.5 460.642,-243.5 514.642,-243.5 514.642,-224.5 460.642,-224.5"/>
<text text-anchor="middle" x="487.642" y="-231.5" font-family="Helvetica,sans-Serif" font-size="10.00">Tileset.h</text>
</a>
</g>
</g>
<!-- Node25&#45;&gt;Node26 -->
<g id="edge45" class="edge"><title>Node25&#45;&gt;Node26</title>
<path fill="none" stroke="midnightblue" d="M460.926,-280.083C465.353,-272.613 471.805,-261.724 477.26,-252.52"/>
<polygon fill="midnightblue" stroke="midnightblue" points="480.369,-254.138 482.456,-243.751 474.347,-250.57 480.369,-254.138"/>
</g>
<!-- Node26&#45;&gt;Node6 -->
<g id="edge46" class="edge"><title>Node26&#45;&gt;Node6</title>
<path fill="none" stroke="midnightblue" d="M484.028,-224.407C477.995,-210.918 464.726,-184.602 446.642,-168 430.154,-152.863 407.621,-141.395 389.619,-133.826"/>
<polygon fill="midnightblue" stroke="midnightblue" points="390.735,-130.502 380.151,-130.023 388.126,-136.998 390.735,-130.502"/>
</g>
<!-- Node26&#45;&gt;Node21 -->
<g id="edge47" class="edge"><title>Node26&#45;&gt;Node21</title>
<path fill="none" stroke="midnightblue" d="M499.531,-224.324C510.792,-216.107 527.929,-203.602 541.351,-193.807"/>
<polygon fill="midnightblue" stroke="midnightblue" points="543.522,-196.556 549.536,-187.834 539.395,-190.901 543.522,-196.556"/>
</g>
<!-- Node28&#45;&gt;Node10 -->
<g id="edge55" class="edge"><title>Node28&#45;&gt;Node10</title>
<path fill="none" stroke="midnightblue" d="M548.951,-280.444C512.002,-270.467 451.218,-254.056 413.695,-243.924"/>
<polygon fill="midnightblue" stroke="midnightblue" points="414.334,-240.471 403.767,-241.244 412.509,-247.229 414.334,-240.471"/>
</g>
<!-- Node28&#45;&gt;Node16 -->
<g id="edge53" class="edge"><title>Node28&#45;&gt;Node16</title>
<path fill="none" stroke="midnightblue" d="M612.046,-280.414C647.021,-270.577 701.084,-254.468 719.642,-244 742.941,-230.857 765.564,-209.75 779.762,-195.172"/>
<polygon fill="midnightblue" stroke="midnightblue" points="782.382,-197.496 786.734,-187.836 777.308,-192.673 782.382,-197.496"/>
</g>
<!-- Node28&#45;&gt;Node21 -->
<g id="edge54" class="edge"><title>Node28&#45;&gt;Node21</title>
<path fill="none" stroke="midnightblue" d="M579.151,-280.368C576.085,-262.617 569.012,-221.666 564.854,-197.597"/>
<polygon fill="midnightblue" stroke="midnightblue" points="568.277,-196.85 563.126,-187.591 561.379,-198.041 568.277,-196.85"/>
</g>
</g>
</svg>
