<?xml version="1.0" encoding="UTF-8" standalone="no"?>
<!DOCTYPE svg PUBLIC "-//W3C//DTD SVG 1.1//EN"
 "http://www.w3.org/Graphics/SVG/1.1/DTD/svg11.dtd">
<!-- Generated by graphviz version 2.38.0 (20140413.2041)
 -->
<!-- Title: Engine/src/HitPoints.cpp Pages: 1 -->
<svg width="596pt" height="364pt"
 viewBox="0.00 0.00 596.47 364.00" xmlns="http://www.w3.org/2000/svg" xmlns:xlink="http://www.w3.org/1999/xlink">
<g id="graph0" class="graph" transform="scale(1 1) rotate(0) translate(4 360)">
<title>Engine/src/HitPoints.cpp</title>
<polygon fill="white" stroke="none" points="-4,4 -4,-360 592.471,-360 592.471,4 -4,4"/>
<!-- Node1 -->
<g id="node1" class="node"><title>Node1</title>
<polygon fill="#bfbfbf" stroke="black" points="209,-336.5 209,-355.5 334,-355.5 334,-336.5 209,-336.5"/>
<text text-anchor="middle" x="271.5" y="-343.5" font-family="Helvetica,sans-Serif" font-size="10.00">Engine/src/HitPoints.cpp</text>
</g>
<!-- Node2 -->
<g id="node2" class="node"><title>Node2</title>
<g id="a_node2"><a xlink:href="HitPoints_8h.html" target="_top" xlink:title="HitPoints.h">
<polygon fill="white" stroke="black" points="239,-280.5 239,-299.5 304,-299.5 304,-280.5 239,-280.5"/>
<text text-anchor="middle" x="271.5" y="-287.5" font-family="Helvetica,sans-Serif" font-size="10.00">HitPoints.h</text>
</a>
</g>
</g>
<!-- Node1&#45;&gt;Node2 -->
<g id="edge1" class="edge"><title>Node1&#45;&gt;Node2</title>
<path fill="none" stroke="midnightblue" d="M271.5,-336.083C271.5,-329.006 271.5,-318.861 271.5,-309.986"/>
<polygon fill="midnightblue" stroke="midnightblue" points="275,-309.751 271.5,-299.751 268,-309.751 275,-309.751"/>
</g>
<!-- Node3 -->
<g id="node3" class="node"><title>Node3</title>
<g id="a_node3"><a xlink:href="Component_8h.html" target="_top" xlink:title="Component.h">
<polygon fill="white" stroke="black" points="173,-224.5 173,-243.5 248,-243.5 248,-224.5 173,-224.5"/>
<text text-anchor="middle" x="210.5" y="-231.5" font-family="Helvetica,sans-Serif" font-size="10.00">Component.h</text>
</a>
</g>
</g>
<!-- Node2&#45;&gt;Node3 -->
<g id="edge2" class="edge"><title>Node2&#45;&gt;Node3</title>
<path fill="none" stroke="midnightblue" d="M261.699,-280.324C252.682,-272.341 239.094,-260.313 228.182,-250.653"/>
<polygon fill="midnightblue" stroke="midnightblue" points="230.287,-247.842 220.479,-243.834 225.647,-253.083 230.287,-247.842"/>
</g>
<!-- Node13 -->
<g id="node13" class="node"><title>Node13</title>
<g id="a_node13"><a xlink:href="Sprite_8h.html" target="_top" xlink:title="Sprite.h">
<polygon fill="white" stroke="black" points="339.5,-168.5 339.5,-187.5 389.5,-187.5 389.5,-168.5 339.5,-168.5"/>
<text text-anchor="middle" x="364.5" y="-175.5" font-family="Helvetica,sans-Serif" font-size="10.00">Sprite.h</text>
</a>
</g>
</g>
<!-- Node2&#45;&gt;Node13 -->
<g id="edge16" class="edge"><title>Node2&#45;&gt;Node13</title>
<path fill="none" stroke="midnightblue" d="M278.798,-280.368C294.281,-262.055 330.64,-219.049 350.666,-195.362"/>
<polygon fill="midnightblue" stroke="midnightblue" points="353.453,-197.488 357.236,-187.591 348.107,-192.968 353.453,-197.488"/>
</g>
<!-- Node4 -->
<g id="node4" class="node"><title>Node4</title>
<g id="a_node4"><a xlink:href="ComponentType_8h.html" target="_top" xlink:title="ComponentType.h">
<polygon fill="white" stroke="black" points="0,-112.5 0,-131.5 97,-131.5 97,-112.5 0,-112.5"/>
<text text-anchor="middle" x="48.5" y="-119.5" font-family="Helvetica,sans-Serif" font-size="10.00">ComponentType.h</text>
</a>
</g>
</g>
<!-- Node3&#45;&gt;Node4 -->
<g id="edge3" class="edge"><title>Node3&#45;&gt;Node4</title>
<path fill="none" stroke="midnightblue" d="M197.788,-224.368C169.989,-205.492 103.558,-160.385 69.4667,-137.237"/>
<polygon fill="midnightblue" stroke="midnightblue" points="71.392,-134.313 61.1528,-131.591 67.4598,-140.105 71.392,-134.313"/>
</g>
<!-- Node5 -->
<g id="node5" class="node"><title>Node5</title>
<g id="a_node5"><a xlink:href="GameObject_8h.html" target="_top" xlink:title="GameObject.h">
<polygon fill="white" stroke="black" points="170.5,-168.5 170.5,-187.5 250.5,-187.5 250.5,-168.5 170.5,-168.5"/>
<text text-anchor="middle" x="210.5" y="-175.5" font-family="Helvetica,sans-Serif" font-size="10.00">GameObject.h</text>
</a>
</g>
</g>
<!-- Node3&#45;&gt;Node5 -->
<g id="edge4" class="edge"><title>Node3&#45;&gt;Node5</title>
<path fill="none" stroke="midnightblue" d="M205.334,-224.083C203.824,-216.927 203.394,-206.635 204.042,-197.691"/>
<polygon fill="midnightblue" stroke="midnightblue" points="207.515,-198.126 205.369,-187.751 200.577,-197.2 207.515,-198.126"/>
</g>
<!-- Node5&#45;&gt;Node3 -->
<g id="edge9" class="edge"><title>Node5&#45;&gt;Node3</title>
<path fill="none" stroke="midnightblue" d="M215.631,-187.751C217.157,-194.858 217.604,-205.136 216.972,-214.101"/>
<polygon fill="midnightblue" stroke="midnightblue" points="213.493,-213.713 215.666,-224.083 220.434,-214.622 213.493,-213.713"/>
</g>
<!-- Node5&#45;&gt;Node4 -->
<g id="edge10" class="edge"><title>Node5&#45;&gt;Node4</title>
<path fill="none" stroke="midnightblue" d="M184.831,-168.444C157.577,-159.359 114.316,-144.939 83.8494,-134.783"/>
<polygon fill="midnightblue" stroke="midnightblue" points="84.6429,-131.358 74.0493,-131.516 82.4293,-137.999 84.6429,-131.358"/>
</g>
<!-- Node6 -->
<g id="node6" class="node"><title>Node6</title>
<g id="a_node6"><a xlink:href="SDL__include_8h.html" target="_top" xlink:title="SDL_include.h">
<polygon fill="white" stroke="black" points="298.5,-0.5 298.5,-19.5 378.5,-19.5 378.5,-0.5 298.5,-0.5"/>
<text text-anchor="middle" x="338.5" y="-7.5" font-family="Helvetica,sans-Serif" font-size="10.00">SDL_include.h</text>
</a>
</g>
</g>
<!-- Node5&#45;&gt;Node6 -->
<g id="edge5" class="edge"><title>Node5&#45;&gt;Node6</title>
<path fill="none" stroke="midnightblue" d="M206.87,-168.365C198.519,-146.994 180.5,-90.8512 205.5,-56 224.247,-29.866 259,-18.7173 288.279,-14.0491"/>
<polygon fill="midnightblue" stroke="midnightblue" points="288.946,-17.4904 298.372,-12.6543 287.987,-10.5563 288.946,-17.4904"/>
</g>
<!-- Node7 -->
<g id="node7" class="node"><title>Node7</title>
<polygon fill="white" stroke="#bfbfbf" points="114.5,-112.5 114.5,-131.5 158.5,-131.5 158.5,-112.5 114.5,-112.5"/>
<text text-anchor="middle" x="136.5" y="-119.5" font-family="Helvetica,sans-Serif" font-size="10.00">vector</text>
</g>
<!-- Node5&#45;&gt;Node7 -->
<g id="edge6" class="edge"><title>Node5&#45;&gt;Node7</title>
<path fill="none" stroke="midnightblue" d="M198.611,-168.324C187.35,-160.107 170.213,-147.602 156.791,-137.807"/>
<polygon fill="midnightblue" stroke="midnightblue" points="158.747,-134.901 148.606,-131.834 154.62,-140.556 158.747,-134.901"/>
</g>
<!-- Node8 -->
<g id="node8" class="node"><title>Node8</title>
<polygon fill="white" stroke="#bfbfbf" points="338.5,-112.5 338.5,-131.5 390.5,-131.5 390.5,-112.5 338.5,-112.5"/>
<text text-anchor="middle" x="364.5" y="-119.5" font-family="Helvetica,sans-Serif" font-size="10.00">memory</text>
</g>
<!-- Node5&#45;&gt;Node8 -->
<g id="edge7" class="edge"><title>Node5&#45;&gt;Node8</title>
<path fill="none" stroke="midnightblue" d="M234.902,-168.444C260.697,-159.399 301.577,-145.064 330.518,-134.916"/>
<polygon fill="midnightblue" stroke="midnightblue" points="331.934,-138.128 340.212,-131.516 329.618,-131.523 331.934,-138.128"/>
</g>
<!-- Node9 -->
<g id="node9" class="node"><title>Node9</title>
<polygon fill="white" stroke="#bfbfbf" points="215,-112.5 215,-131.5 256,-131.5 256,-112.5 215,-112.5"/>
<text text-anchor="middle" x="235.5" y="-119.5" font-family="Helvetica,sans-Serif" font-size="10.00">string</text>
</g>
<!-- Node5&#45;&gt;Node9 -->
<g id="edge8" class="edge"><title>Node5&#45;&gt;Node9</title>
<path fill="none" stroke="midnightblue" d="M214.628,-168.083C218.014,-160.77 222.916,-150.181 227.119,-141.103"/>
<polygon fill="midnightblue" stroke="midnightblue" points="230.423,-142.296 231.449,-131.751 224.071,-139.355 230.423,-142.296"/>
</g>
<!-- Node10 -->
<g id="node10" class="node"><title>Node10</title>
<g id="a_node10"><a xlink:href="Rect_8h.html" target="_top" xlink:title="Rect.h">
<polygon fill="white" stroke="black" points="274.5,-112.5 274.5,-131.5 320.5,-131.5 320.5,-112.5 274.5,-112.5"/>
<text text-anchor="middle" x="297.5" y="-119.5" font-family="Helvetica,sans-Serif" font-size="10.00">Rect.h</text>
</a>
</g>
</g>
<!-- Node5&#45;&gt;Node10 -->
<g id="edge11" class="edge"><title>Node5&#45;&gt;Node10</title>
<path fill="none" stroke="midnightblue" d="M224.478,-168.324C238.05,-159.9 258.88,-146.971 274.825,-137.074"/>
<polygon fill="midnightblue" stroke="midnightblue" points="276.906,-139.902 283.557,-131.655 273.214,-133.954 276.906,-139.902"/>
</g>
<!-- Node10&#45;&gt;Node6 -->
<g id="edge12" class="edge"><title>Node10&#45;&gt;Node6</title>
<path fill="none" stroke="midnightblue" d="M297.201,-112.245C297.065,-99.4305 297.954,-75.024 305.5,-56 309.592,-45.683 316.63,-35.588 323.159,-27.5824"/>
<polygon fill="midnightblue" stroke="midnightblue" points="325.99,-29.6593 329.878,-19.804 320.693,-25.0831 325.99,-29.6593"/>
</g>
<!-- Node11 -->
<g id="node11" class="node"><title>Node11</title>
<g id="a_node11"><a xlink:href="Vec2_8h.html" target="_top" xlink:title="Vec2.h">
<polygon fill="white" stroke="black" points="315,-56.5 315,-75.5 362,-75.5 362,-56.5 315,-56.5"/>
<text text-anchor="middle" x="338.5" y="-63.5" font-family="Helvetica,sans-Serif" font-size="10.00">Vec2.h</text>
</a>
</g>
</g>
<!-- Node10&#45;&gt;Node11 -->
<g id="edge13" class="edge"><title>Node10&#45;&gt;Node11</title>
<path fill="none" stroke="midnightblue" d="M304.27,-112.083C310.062,-104.455 318.558,-93.2645 325.638,-83.9408"/>
<polygon fill="midnightblue" stroke="midnightblue" points="328.596,-85.8321 331.856,-75.7511 323.021,-81.5991 328.596,-85.8321"/>
</g>
<!-- Node12 -->
<g id="node12" class="node"><title>Node12</title>
<polygon fill="white" stroke="#bfbfbf" points="214.5,-56.5 214.5,-75.5 258.5,-75.5 258.5,-56.5 214.5,-56.5"/>
<text text-anchor="middle" x="236.5" y="-63.5" font-family="Helvetica,sans-Serif" font-size="10.00">cmath</text>
</g>
<!-- Node10&#45;&gt;Node12 -->
<g id="edge15" class="edge"><title>Node10&#45;&gt;Node12</title>
<path fill="none" stroke="midnightblue" d="M287.699,-112.324C278.682,-104.341 265.094,-92.3128 254.182,-82.6529"/>
<polygon fill="midnightblue" stroke="midnightblue" points="256.287,-79.8416 246.479,-75.8339 251.647,-85.083 256.287,-79.8416"/>
</g>
<!-- Node11&#45;&gt;Node6 -->
<g id="edge14" class="edge"><title>Node11&#45;&gt;Node6</title>
<path fill="none" stroke="midnightblue" d="M338.5,-56.083C338.5,-49.0059 338.5,-38.8611 338.5,-29.9865"/>
<polygon fill="midnightblue" stroke="midnightblue" points="342,-29.751 338.5,-19.7511 335,-29.7511 342,-29.751"/>
</g>
<!-- Node13&#45;&gt;Node6 -->
<g id="edge17" class="edge"><title>Node13&#45;&gt;Node6</title>
<path fill="none" stroke="midnightblue" d="M389.549,-174.986C438.425,-170.513 543.807,-158.027 567.5,-132 590.335,-106.916 596.123,-82.1355 574.5,-56 551.392,-28.0689 450.859,-17.3214 388.698,-13.2995"/>
<polygon fill="midnightblue" stroke="midnightblue" points="388.888,-9.80472 378.694,-12.6886 388.462,-16.7917 388.888,-9.80472"/>
</g>
<!-- Node13&#45;&gt;Node8 -->
<g id="edge19" class="edge"><title>Node13&#45;&gt;Node8</title>
<path fill="none" stroke="midnightblue" d="M364.5,-168.083C364.5,-161.006 364.5,-150.861 364.5,-141.986"/>
<polygon fill="midnightblue" stroke="midnightblue" points="368,-141.751 364.5,-131.751 361,-141.751 368,-141.751"/>
</g>
<!-- Node13&#45;&gt;Node9 -->
<g id="edge18" class="edge"><title>Node13&#45;&gt;Node9</title>
<path fill="none" stroke="midnightblue" d="M344.06,-168.444C322.83,-159.557 289.401,-145.563 265.245,-135.451"/>
<polygon fill="midnightblue" stroke="midnightblue" points="266.421,-132.149 255.845,-131.516 263.718,-138.606 266.421,-132.149"/>
</g>
<!-- Node13&#45;&gt;Node10 -->
<g id="edge21" class="edge"><title>Node13&#45;&gt;Node10</title>
<path fill="none" stroke="midnightblue" d="M353.735,-168.324C343.734,-160.263 328.613,-148.077 316.57,-138.369"/>
<polygon fill="midnightblue" stroke="midnightblue" points="318.443,-135.384 308.461,-131.834 314.05,-140.834 318.443,-135.384"/>
</g>
<!-- Node14 -->
<g id="node14" class="node"><title>Node14</title>
<g id="a_node14"><a xlink:href="Color_8h.html" target="_top" xlink:title="Color.h">
<polygon fill="white" stroke="black" points="510.5,-112.5 510.5,-131.5 558.5,-131.5 558.5,-112.5 510.5,-112.5"/>
<text text-anchor="middle" x="534.5" y="-119.5" font-family="Helvetica,sans-Serif" font-size="10.00">Color.h</text>
</a>
</g>
</g>
<!-- Node13&#45;&gt;Node14 -->
<g id="edge20" class="edge"><title>Node13&#45;&gt;Node14</title>
<path fill="none" stroke="midnightblue" d="M389.584,-169.032C419.047,-159.673 468.051,-144.107 500.809,-133.702"/>
<polygon fill="midnightblue" stroke="midnightblue" points="501.943,-137.014 510.414,-130.651 499.823,-130.343 501.943,-137.014"/>
</g>
<!-- Node15 -->
<g id="node15" class="node"><title>Node15</title>
<g id="a_node15"><a xlink:href="InputManager_8h.html" target="_top" xlink:title="InputManager.h">
<polygon fill="white" stroke="black" points="408.5,-112.5 408.5,-131.5 492.5,-131.5 492.5,-112.5 408.5,-112.5"/>
<text text-anchor="middle" x="450.5" y="-119.5" font-family="Helvetica,sans-Serif" font-size="10.00">InputManager.h</text>
</a>
</g>
</g>
<!-- Node13&#45;&gt;Node15 -->
<g id="edge22" class="edge"><title>Node13&#45;&gt;Node15</title>
<path fill="none" stroke="midnightblue" d="M378.317,-168.324C391.733,-159.9 412.324,-146.971 428.086,-137.074"/>
<polygon fill="midnightblue" stroke="midnightblue" points="430.109,-139.936 436.717,-131.655 426.387,-134.008 430.109,-139.936"/>
</g>
<!-- Node15&#45;&gt;Node6 -->
<g id="edge23" class="edge"><title>Node15&#45;&gt;Node6</title>
<path fill="none" stroke="midnightblue" d="M458.125,-112.259C468.699,-99.0305 485.158,-73.6041 472.5,-56 453.533,-29.6219 418.346,-18.4917 388.788,-13.8931"/>
<polygon fill="midnightblue" stroke="midnightblue" points="388.98,-10.3876 378.603,-12.5247 388.048,-17.3253 388.98,-10.3876"/>
</g>
<!-- Node15&#45;&gt;Node11 -->
<g id="edge24" class="edge"><title>Node15&#45;&gt;Node11</title>
<path fill="none" stroke="midnightblue" d="M432.505,-112.324C414.462,-103.625 386.453,-90.1202 365.697,-80.113"/>
<polygon fill="midnightblue" stroke="midnightblue" points="366.978,-76.8449 356.45,-75.6545 363.938,-83.1502 366.978,-76.8449"/>
</g>
<!-- Node16 -->
<g id="node16" class="node"><title>Node16</title>
<polygon fill="white" stroke="#bfbfbf" points="380,-56.5 380,-75.5 463,-75.5 463,-56.5 380,-56.5"/>
<text text-anchor="middle" x="421.5" y="-63.5" font-family="Helvetica,sans-Serif" font-size="10.00">unordered_map</text>
</g>
<!-- Node15&#45;&gt;Node16 -->
<g id="edge25" class="edge"><title>Node15&#45;&gt;Node16</title>
<path fill="none" stroke="midnightblue" d="M445.711,-112.083C441.742,-104.691 435.975,-93.9533 431.065,-84.8111"/>
<polygon fill="midnightblue" stroke="midnightblue" points="434.014,-82.9051 426.2,-75.7511 427.847,-86.217 434.014,-82.9051"/>
</g>
<!-- Node17 -->
<g id="node17" class="node"><title>Node17</title>
<polygon fill="white" stroke="#bfbfbf" points="519.5,-56.5 519.5,-75.5 565.5,-75.5 565.5,-56.5 519.5,-56.5"/>
<text text-anchor="middle" x="542.5" y="-63.5" font-family="Helvetica,sans-Serif" font-size="10.00">cstdint</text>
</g>
<!-- Node15&#45;&gt;Node17 -->
<g id="edge26" class="edge"><title>Node15&#45;&gt;Node17</title>
<path fill="none" stroke="midnightblue" d="M465.281,-112.324C479.767,-103.822 502.073,-90.7288 518.993,-80.7975"/>
<polygon fill="midnightblue" stroke="midnightblue" points="520.903,-83.735 527.755,-75.6545 517.359,-77.6981 520.903,-83.735"/>
</g>
</g>
</svg>
