<?xml version="1.0" encoding="UTF-8" standalone="no"?>
<!DOCTYPE svg PUBLIC "-//W3C//DTD SVG 1.1//EN"
 "http://www.w3.org/Graphics/SVG/1.1/DTD/svg11.dtd">
<!-- Generated by graphviz version 2.38.0 (20140413.2041)
 -->
<!-- Title: Engine/include/HitPoints.h Pages: 1 -->
<svg width="598pt" height="308pt"
 viewBox="0.00 0.00 597.50 308.00" xmlns="http://www.w3.org/2000/svg" xmlns:xlink="http://www.w3.org/1999/xlink">
<g id="graph0" class="graph" transform="scale(1 1) rotate(0) translate(4 304)">
<title>Engine/include/HitPoints.h</title>
<polygon fill="white" stroke="none" points="-4,4 -4,-304 593.503,-304 593.503,4 -4,4"/>
<!-- Node0 -->
<g id="node1" class="node"><title>Node0</title>
<polygon fill="#bfbfbf" stroke="black" points="299.5,-280.5 299.5,-299.5 431.5,-299.5 431.5,-280.5 299.5,-280.5"/>
<text text-anchor="middle" x="365.5" y="-287.5" font-family="Helvetica,sans-Serif" font-size="10.00">Engine/include/HitPoints.h</text>
</g>
<!-- Node1 -->
<g id="node2" class="node"><title>Node1</title>
<g id="a_node2"><a xlink:href="Component_8h.html" target="_top" xlink:title="Component.h">
<polygon fill="white" stroke="black" points="175,-224.5 175,-243.5 250,-243.5 250,-224.5 175,-224.5"/>
<text text-anchor="middle" x="212.5" y="-231.5" font-family="Helvetica,sans-Serif" font-size="10.00">Component.h</text>
</a>
</g>
</g>
<!-- Node0&#45;&gt;Node1 -->
<g id="edge1" class="edge"><title>Node0&#45;&gt;Node1</title>
<path fill="none" stroke="midnightblue" d="M341.257,-280.444C315.629,-271.399 275.015,-257.064 246.262,-246.916"/>
<polygon fill="midnightblue" stroke="midnightblue" points="247.225,-243.544 236.63,-243.516 244.895,-250.145 247.225,-243.544"/>
</g>
<!-- Node11 -->
<g id="node12" class="node"><title>Node11</title>
<g id="a_node12"><a xlink:href="Sprite_8h.html" target="_top" xlink:title="Sprite.h">
<polygon fill="white" stroke="black" points="340.5,-168.5 340.5,-187.5 390.5,-187.5 390.5,-168.5 340.5,-168.5"/>
<text text-anchor="middle" x="365.5" y="-175.5" font-family="Helvetica,sans-Serif" font-size="10.00">Sprite.h</text>
</a>
</g>
</g>
<!-- Node0&#45;&gt;Node11 -->
<g id="edge15" class="edge"><title>Node0&#45;&gt;Node11</title>
<path fill="none" stroke="midnightblue" d="M365.5,-280.368C365.5,-262.617 365.5,-221.666 365.5,-197.597"/>
<polygon fill="midnightblue" stroke="midnightblue" points="369,-197.591 365.5,-187.591 362,-197.591 369,-197.591"/>
</g>
<!-- Node16 -->
<g id="node17" class="node"><title>Node16</title>
<g id="a_node17"><a xlink:href="Error_8h.html" target="_top" xlink:title="Error.h">
<polygon fill="white" stroke="black" points="412.5,-224.5 412.5,-243.5 458.5,-243.5 458.5,-224.5 412.5,-224.5"/>
<text text-anchor="middle" x="435.5" y="-231.5" font-family="Helvetica,sans-Serif" font-size="10.00">Error.h</text>
</a>
</g>
</g>
<!-- Node0&#45;&gt;Node16 -->
<g id="edge26" class="edge"><title>Node0&#45;&gt;Node16</title>
<path fill="none" stroke="midnightblue" d="M376.747,-280.324C387.297,-272.185 403.301,-259.839 415.942,-250.087"/>
<polygon fill="midnightblue" stroke="midnightblue" points="418.269,-252.713 424.049,-243.834 413.993,-247.171 418.269,-252.713"/>
</g>
<!-- Node2 -->
<g id="node3" class="node"><title>Node2</title>
<g id="a_node3"><a xlink:href="ComponentType_8h.html" target="_top" xlink:title="ComponentType.h">
<polygon fill="white" stroke="black" points="0,-112.5 0,-131.5 97,-131.5 97,-112.5 0,-112.5"/>
<text text-anchor="middle" x="48.5" y="-119.5" font-family="Helvetica,sans-Serif" font-size="10.00">ComponentType.h</text>
</a>
</g>
</g>
<!-- Node1&#45;&gt;Node2 -->
<g id="edge2" class="edge"><title>Node1&#45;&gt;Node2</title>
<path fill="none" stroke="midnightblue" d="M199.631,-224.368C171.489,-205.492 104.238,-160.385 69.7256,-137.237"/>
<polygon fill="midnightblue" stroke="midnightblue" points="71.5636,-134.255 61.309,-131.591 67.6643,-140.069 71.5636,-134.255"/>
</g>
<!-- Node3 -->
<g id="node4" class="node"><title>Node3</title>
<g id="a_node4"><a xlink:href="GameObject_8h.html" target="_top" xlink:title="GameObject.h">
<polygon fill="white" stroke="black" points="172.5,-168.5 172.5,-187.5 252.5,-187.5 252.5,-168.5 172.5,-168.5"/>
<text text-anchor="middle" x="212.5" y="-175.5" font-family="Helvetica,sans-Serif" font-size="10.00">GameObject.h</text>
</a>
</g>
</g>
<!-- Node1&#45;&gt;Node3 -->
<g id="edge3" class="edge"><title>Node1&#45;&gt;Node3</title>
<path fill="none" stroke="midnightblue" d="M207.334,-224.083C205.824,-216.927 205.394,-206.635 206.042,-197.691"/>
<polygon fill="midnightblue" stroke="midnightblue" points="209.515,-198.126 207.369,-187.751 202.577,-197.2 209.515,-198.126"/>
</g>
<!-- Node3&#45;&gt;Node1 -->
<g id="edge8" class="edge"><title>Node3&#45;&gt;Node1</title>
<path fill="none" stroke="midnightblue" d="M217.631,-187.751C219.157,-194.858 219.604,-205.136 218.972,-214.101"/>
<polygon fill="midnightblue" stroke="midnightblue" points="215.493,-213.713 217.666,-224.083 222.434,-214.622 215.493,-213.713"/>
</g>
<!-- Node3&#45;&gt;Node2 -->
<g id="edge9" class="edge"><title>Node3&#45;&gt;Node2</title>
<path fill="none" stroke="midnightblue" d="M186.514,-168.444C158.804,-159.32 114.748,-144.813 83.8843,-134.651"/>
<polygon fill="midnightblue" stroke="midnightblue" points="84.9577,-131.32 74.3647,-131.516 82.7684,-137.968 84.9577,-131.32"/>
</g>
<!-- Node4 -->
<g id="node5" class="node"><title>Node4</title>
<g id="a_node5"><a xlink:href="SDL__include_8h.html" target="_top" xlink:title="SDL_include.h">
<polygon fill="white" stroke="black" points="299.5,-0.5 299.5,-19.5 379.5,-19.5 379.5,-0.5 299.5,-0.5"/>
<text text-anchor="middle" x="339.5" y="-7.5" font-family="Helvetica,sans-Serif" font-size="10.00">SDL_include.h</text>
</a>
</g>
</g>
<!-- Node3&#45;&gt;Node4 -->
<g id="edge4" class="edge"><title>Node3&#45;&gt;Node4</title>
<path fill="none" stroke="midnightblue" d="M208.762,-168.366C200.15,-147 181.49,-90.8642 206.5,-56 225.247,-29.866 260,-18.7173 289.279,-14.0491"/>
<polygon fill="midnightblue" stroke="midnightblue" points="289.946,-17.4904 299.372,-12.6543 288.987,-10.5563 289.946,-17.4904"/>
</g>
<!-- Node5 -->
<g id="node6" class="node"><title>Node5</title>
<polygon fill="white" stroke="#bfbfbf" points="115.5,-112.5 115.5,-131.5 159.5,-131.5 159.5,-112.5 115.5,-112.5"/>
<text text-anchor="middle" x="137.5" y="-119.5" font-family="Helvetica,sans-Serif" font-size="10.00">vector</text>
</g>
<!-- Node3&#45;&gt;Node5 -->
<g id="edge5" class="edge"><title>Node3&#45;&gt;Node5</title>
<path fill="none" stroke="midnightblue" d="M200.45,-168.324C189.037,-160.107 171.669,-147.602 158.065,-137.807"/>
<polygon fill="midnightblue" stroke="midnightblue" points="159.93,-134.837 149.769,-131.834 155.84,-140.517 159.93,-134.837"/>
</g>
<!-- Node6 -->
<g id="node7" class="node"><title>Node6</title>
<polygon fill="white" stroke="#bfbfbf" points="339.5,-112.5 339.5,-131.5 391.5,-131.5 391.5,-112.5 339.5,-112.5"/>
<text text-anchor="middle" x="365.5" y="-119.5" font-family="Helvetica,sans-Serif" font-size="10.00">memory</text>
</g>
<!-- Node3&#45;&gt;Node6 -->
<g id="edge6" class="edge"><title>Node3&#45;&gt;Node6</title>
<path fill="none" stroke="midnightblue" d="M236.743,-168.444C262.371,-159.399 302.985,-145.064 331.738,-134.916"/>
<polygon fill="midnightblue" stroke="midnightblue" points="333.105,-138.145 341.37,-131.516 330.775,-131.544 333.105,-138.145"/>
</g>
<!-- Node7 -->
<g id="node8" class="node"><title>Node7</title>
<polygon fill="white" stroke="#bfbfbf" points="216,-112.5 216,-131.5 257,-131.5 257,-112.5 216,-112.5"/>
<text text-anchor="middle" x="236.5" y="-119.5" font-family="Helvetica,sans-Serif" font-size="10.00">string</text>
</g>
<!-- Node3&#45;&gt;Node7 -->
<g id="edge7" class="edge"><title>Node3&#45;&gt;Node7</title>
<path fill="none" stroke="midnightblue" d="M216.463,-168.083C219.713,-160.77 224.419,-150.181 228.454,-141.103"/>
<polygon fill="midnightblue" stroke="midnightblue" points="231.748,-142.311 232.611,-131.751 225.351,-139.468 231.748,-142.311"/>
</g>
<!-- Node8 -->
<g id="node9" class="node"><title>Node8</title>
<g id="a_node9"><a xlink:href="Rect_8h.html" target="_top" xlink:title="Rect.h">
<polygon fill="white" stroke="black" points="275.5,-112.5 275.5,-131.5 321.5,-131.5 321.5,-112.5 275.5,-112.5"/>
<text text-anchor="middle" x="298.5" y="-119.5" font-family="Helvetica,sans-Serif" font-size="10.00">Rect.h</text>
</a>
</g>
</g>
<!-- Node3&#45;&gt;Node8 -->
<g id="edge10" class="edge"><title>Node3&#45;&gt;Node8</title>
<path fill="none" stroke="midnightblue" d="M226.317,-168.324C239.733,-159.9 260.324,-146.971 276.086,-137.074"/>
<polygon fill="midnightblue" stroke="midnightblue" points="278.109,-139.936 284.717,-131.655 274.387,-134.008 278.109,-139.936"/>
</g>
<!-- Node8&#45;&gt;Node4 -->
<g id="edge11" class="edge"><title>Node8&#45;&gt;Node4</title>
<path fill="none" stroke="midnightblue" d="M298.201,-112.245C298.065,-99.4305 298.954,-75.024 306.5,-56 310.592,-45.683 317.63,-35.588 324.159,-27.5824"/>
<polygon fill="midnightblue" stroke="midnightblue" points="326.99,-29.6593 330.878,-19.804 321.693,-25.0831 326.99,-29.6593"/>
</g>
<!-- Node9 -->
<g id="node10" class="node"><title>Node9</title>
<g id="a_node10"><a xlink:href="Vec2_8h.html" target="_top" xlink:title="Vec2.h">
<polygon fill="white" stroke="black" points="316,-56.5 316,-75.5 363,-75.5 363,-56.5 316,-56.5"/>
<text text-anchor="middle" x="339.5" y="-63.5" font-family="Helvetica,sans-Serif" font-size="10.00">Vec2.h</text>
</a>
</g>
</g>
<!-- Node8&#45;&gt;Node9 -->
<g id="edge12" class="edge"><title>Node8&#45;&gt;Node9</title>
<path fill="none" stroke="midnightblue" d="M305.27,-112.083C311.062,-104.455 319.558,-93.2645 326.638,-83.9408"/>
<polygon fill="midnightblue" stroke="midnightblue" points="329.596,-85.8321 332.856,-75.7511 324.021,-81.5991 329.596,-85.8321"/>
</g>
<!-- Node10 -->
<g id="node11" class="node"><title>Node10</title>
<polygon fill="white" stroke="#bfbfbf" points="215.5,-56.5 215.5,-75.5 259.5,-75.5 259.5,-56.5 215.5,-56.5"/>
<text text-anchor="middle" x="237.5" y="-63.5" font-family="Helvetica,sans-Serif" font-size="10.00">cmath</text>
</g>
<!-- Node8&#45;&gt;Node10 -->
<g id="edge14" class="edge"><title>Node8&#45;&gt;Node10</title>
<path fill="none" stroke="midnightblue" d="M288.699,-112.324C279.682,-104.341 266.094,-92.3128 255.182,-82.6529"/>
<polygon fill="midnightblue" stroke="midnightblue" points="257.287,-79.8416 247.479,-75.8339 252.647,-85.083 257.287,-79.8416"/>
</g>
<!-- Node9&#45;&gt;Node4 -->
<g id="edge13" class="edge"><title>Node9&#45;&gt;Node4</title>
<path fill="none" stroke="midnightblue" d="M339.5,-56.083C339.5,-49.0059 339.5,-38.8611 339.5,-29.9865"/>
<polygon fill="midnightblue" stroke="midnightblue" points="343,-29.751 339.5,-19.7511 336,-29.7511 343,-29.751"/>
</g>
<!-- Node11&#45;&gt;Node4 -->
<g id="edge16" class="edge"><title>Node11&#45;&gt;Node4</title>
<path fill="none" stroke="midnightblue" d="M390.716,-170.178C393.672,-169.422 396.649,-168.681 399.5,-168 474.198,-150.169 516.568,-188.575 568.5,-132 591.438,-107.011 597.123,-82.1355 575.5,-56 552.392,-28.0689 451.859,-17.3214 389.698,-13.2995"/>
<polygon fill="midnightblue" stroke="midnightblue" points="389.888,-9.80472 379.694,-12.6886 389.462,-16.7917 389.888,-9.80472"/>
</g>
<!-- Node11&#45;&gt;Node6 -->
<g id="edge18" class="edge"><title>Node11&#45;&gt;Node6</title>
<path fill="none" stroke="midnightblue" d="M365.5,-168.083C365.5,-161.006 365.5,-150.861 365.5,-141.986"/>
<polygon fill="midnightblue" stroke="midnightblue" points="369,-141.751 365.5,-131.751 362,-141.751 369,-141.751"/>
</g>
<!-- Node11&#45;&gt;Node7 -->
<g id="edge17" class="edge"><title>Node11&#45;&gt;Node7</title>
<path fill="none" stroke="midnightblue" d="M345.06,-168.444C323.83,-159.557 290.401,-145.563 266.245,-135.451"/>
<polygon fill="midnightblue" stroke="midnightblue" points="267.421,-132.149 256.845,-131.516 264.718,-138.606 267.421,-132.149"/>
</g>
<!-- Node11&#45;&gt;Node8 -->
<g id="edge20" class="edge"><title>Node11&#45;&gt;Node8</title>
<path fill="none" stroke="midnightblue" d="M354.735,-168.324C344.734,-160.263 329.613,-148.077 317.57,-138.369"/>
<polygon fill="midnightblue" stroke="midnightblue" points="319.443,-135.384 309.461,-131.834 315.05,-140.834 319.443,-135.384"/>
</g>
<!-- Node12 -->
<g id="node13" class="node"><title>Node12</title>
<g id="a_node13"><a xlink:href="Color_8h.html" target="_top" xlink:title="Color.h">
<polygon fill="white" stroke="black" points="511.5,-112.5 511.5,-131.5 559.5,-131.5 559.5,-112.5 511.5,-112.5"/>
<text text-anchor="middle" x="535.5" y="-119.5" font-family="Helvetica,sans-Serif" font-size="10.00">Color.h</text>
</a>
</g>
</g>
<!-- Node11&#45;&gt;Node12 -->
<g id="edge19" class="edge"><title>Node11&#45;&gt;Node12</title>
<path fill="none" stroke="midnightblue" d="M390.584,-169.032C420.047,-159.673 469.051,-144.107 501.809,-133.702"/>
<polygon fill="midnightblue" stroke="midnightblue" points="502.943,-137.014 511.414,-130.651 500.823,-130.343 502.943,-137.014"/>
</g>
<!-- Node13 -->
<g id="node14" class="node"><title>Node13</title>
<g id="a_node14"><a xlink:href="InputManager_8h.html" target="_top" xlink:title="InputManager.h">
<polygon fill="white" stroke="black" points="409.5,-112.5 409.5,-131.5 493.5,-131.5 493.5,-112.5 409.5,-112.5"/>
<text text-anchor="middle" x="451.5" y="-119.5" font-family="Helvetica,sans-Serif" font-size="10.00">InputManager.h</text>
</a>
</g>
</g>
<!-- Node11&#45;&gt;Node13 -->
<g id="edge21" class="edge"><title>Node11&#45;&gt;Node13</title>
<path fill="none" stroke="midnightblue" d="M379.317,-168.324C392.733,-159.9 413.324,-146.971 429.086,-137.074"/>
<polygon fill="midnightblue" stroke="midnightblue" points="431.109,-139.936 437.717,-131.655 427.387,-134.008 431.109,-139.936"/>
</g>
<!-- Node13&#45;&gt;Node4 -->
<g id="edge22" class="edge"><title>Node13&#45;&gt;Node4</title>
<path fill="none" stroke="midnightblue" d="M459.125,-112.259C469.699,-99.0305 486.158,-73.6041 473.5,-56 454.533,-29.6219 419.346,-18.4917 389.788,-13.8931"/>
<polygon fill="midnightblue" stroke="midnightblue" points="389.98,-10.3876 379.603,-12.5247 389.048,-17.3253 389.98,-10.3876"/>
</g>
<!-- Node13&#45;&gt;Node9 -->
<g id="edge23" class="edge"><title>Node13&#45;&gt;Node9</title>
<path fill="none" stroke="midnightblue" d="M433.505,-112.324C415.462,-103.625 387.453,-90.1202 366.697,-80.113"/>
<polygon fill="midnightblue" stroke="midnightblue" points="367.978,-76.8449 357.45,-75.6545 364.938,-83.1502 367.978,-76.8449"/>
</g>
<!-- Node14 -->
<g id="node15" class="node"><title>Node14</title>
<polygon fill="white" stroke="#bfbfbf" points="381,-56.5 381,-75.5 464,-75.5 464,-56.5 381,-56.5"/>
<text text-anchor="middle" x="422.5" y="-63.5" font-family="Helvetica,sans-Serif" font-size="10.00">unordered_map</text>
</g>
<!-- Node13&#45;&gt;Node14 -->
<g id="edge24" class="edge"><title>Node13&#45;&gt;Node14</title>
<path fill="none" stroke="midnightblue" d="M446.711,-112.083C442.742,-104.691 436.975,-93.9533 432.065,-84.8111"/>
<polygon fill="midnightblue" stroke="midnightblue" points="435.014,-82.9051 427.2,-75.7511 428.847,-86.217 435.014,-82.9051"/>
</g>
<!-- Node15 -->
<g id="node16" class="node"><title>Node15</title>
<polygon fill="white" stroke="#bfbfbf" points="520.5,-56.5 520.5,-75.5 566.5,-75.5 566.5,-56.5 520.5,-56.5"/>
<text text-anchor="middle" x="543.5" y="-63.5" font-family="Helvetica,sans-Serif" font-size="10.00">cstdint</text>
</g>
<!-- Node13&#45;&gt;Node15 -->
<g id="edge25" class="edge"><title>Node13&#45;&gt;Node15</title>
<path fill="none" stroke="midnightblue" d="M466.281,-112.324C480.767,-103.822 503.073,-90.7288 519.993,-80.7975"/>
<polygon fill="midnightblue" stroke="midnightblue" points="521.903,-83.735 528.755,-75.6545 518.359,-77.6981 521.903,-83.735"/>
</g>
<!-- Node17 -->
<g id="node18" class="node"><title>Node17</title>
<polygon fill="white" stroke="#bfbfbf" points="408.5,-168.5 408.5,-187.5 462.5,-187.5 462.5,-168.5 408.5,-168.5"/>
<text text-anchor="middle" x="435.5" y="-175.5" font-family="Helvetica,sans-Serif" font-size="10.00">iostream</text>
</g>
<!-- Node16&#45;&gt;Node17 -->
<g id="edge27" class="edge"><title>Node16&#45;&gt;Node17</title>
<path fill="none" stroke="midnightblue" d="M435.5,-224.083C435.5,-217.006 435.5,-206.861 435.5,-197.986"/>
<polygon fill="midnightblue" stroke="midnightblue" points="439,-197.751 435.5,-187.751 432,-197.751 439,-197.751"/>
</g>
<!-- Node18 -->
<g id="node19" class="node"><title>Node18</title>
<polygon fill="white" stroke="#bfbfbf" points="480.5,-168.5 480.5,-187.5 528.5,-187.5 528.5,-168.5 480.5,-168.5"/>
<text text-anchor="middle" x="504.5" y="-175.5" font-family="Helvetica,sans-Serif" font-size="10.00">stdlib.h</text>
</g>
<!-- Node16&#45;&gt;Node18 -->
<g id="edge28" class="edge"><title>Node16&#45;&gt;Node18</title>
<path fill="none" stroke="midnightblue" d="M446.586,-224.324C456.986,-216.185 472.761,-203.839 485.222,-194.087"/>
<polygon fill="midnightblue" stroke="midnightblue" points="487.494,-196.753 493.212,-187.834 483.18,-191.241 487.494,-196.753"/>
</g>
</g>
</svg>
