<?xml version="1.0" encoding="UTF-8" standalone="no"?>
<!DOCTYPE svg PUBLIC "-//W3C//DTD SVG 1.1//EN"
 "http://www.w3.org/Graphics/SVG/1.1/DTD/svg11.dtd">
<!-- Generated by graphviz version 2.36.0 (20140111.2315)
 -->
<!-- Title: Engine/src/HitPoints.cpp Pages: 1 -->
<svg width="596pt" height="364pt"
 viewBox="0.00 0.00 595.97 364.00" xmlns="http://www.w3.org/2000/svg" xmlns:xlink="http://www.w3.org/1999/xlink">
<g id="graph0" class="graph" transform="scale(1 1) rotate(0) translate(4 360)">
<title>Engine/src/HitPoints.cpp</title>
<polygon fill="white" stroke="none" points="-4,4 -4,-360 591.971,-360 591.971,4 -4,4"/>
<!-- Node1 -->
<g id="node1" class="node"><title>Node1</title>
<polygon fill="#bfbfbf" stroke="black" points="208.5,-336.5 208.5,-355.5 333.5,-355.5 333.5,-336.5 208.5,-336.5"/>
<text text-anchor="middle" x="271" y="-343.5" font-family="Helvetica,sans-Serif" font-size="10.00">Engine/src/HitPoints.cpp</text>
</g>
<!-- Node2 -->
<g id="node2" class="node"><title>Node2</title>
<g id="a_node2"><a xlink:href="HitPoints_8h.html" target="_top" xlink:title="HitPoints.h">
<polygon fill="white" stroke="black" points="238.5,-280.5 238.5,-299.5 303.5,-299.5 303.5,-280.5 238.5,-280.5"/>
<text text-anchor="middle" x="271" y="-287.5" font-family="Helvetica,sans-Serif" font-size="10.00">HitPoints.h</text>
</a>
</g>
</g>
<!-- Node1&#45;&gt;Node2 -->
<g id="edge1" class="edge"><title>Node1&#45;&gt;Node2</title>
<path fill="none" stroke="midnightblue" d="M271,-336.083C271,-329.006 271,-318.861 271,-309.986"/>
<polygon fill="midnightblue" stroke="midnightblue" points="274.5,-309.751 271,-299.751 267.5,-309.751 274.5,-309.751"/>
</g>
<!-- Node3 -->
<g id="node3" class="node"><title>Node3</title>
<g id="a_node3"><a xlink:href="Component_8h.html" target="_top" xlink:title="Component.h">
<polygon fill="white" stroke="black" points="172.5,-224.5 172.5,-243.5 247.5,-243.5 247.5,-224.5 172.5,-224.5"/>
<text text-anchor="middle" x="210" y="-231.5" font-family="Helvetica,sans-Serif" font-size="10.00">Component.h</text>
</a>
</g>
</g>
<!-- Node2&#45;&gt;Node3 -->
<g id="edge2" class="edge"><title>Node2&#45;&gt;Node3</title>
<path fill="none" stroke="midnightblue" d="M261.199,-280.324C252.182,-272.341 238.594,-260.313 227.682,-250.653"/>
<polygon fill="midnightblue" stroke="midnightblue" points="229.787,-247.842 219.979,-243.834 225.147,-253.083 229.787,-247.842"/>
</g>
<!-- Node13 -->
<g id="node13" class="node"><title>Node13</title>
<g id="a_node13"><a xlink:href="Sprite_8h.html" target="_top" xlink:title="Sprite.h">
<polygon fill="white" stroke="black" points="339,-168.5 339,-187.5 389,-187.5 389,-168.5 339,-168.5"/>
<text text-anchor="middle" x="364" y="-175.5" font-family="Helvetica,sans-Serif" font-size="10.00">Sprite.h</text>
</a>
</g>
</g>
<!-- Node2&#45;&gt;Node13 -->
<g id="edge16" class="edge"><title>Node2&#45;&gt;Node13</title>
<path fill="none" stroke="midnightblue" d="M278.298,-280.368C293.781,-262.055 330.14,-219.049 350.166,-195.362"/>
<polygon fill="midnightblue" stroke="midnightblue" points="352.953,-197.488 356.736,-187.591 347.607,-192.968 352.953,-197.488"/>
</g>
<!-- Node4 -->
<g id="node4" class="node"><title>Node4</title>
<g id="a_node4"><a xlink:href="ComponentType_8h.html" target="_top" xlink:title="ComponentType.h">
<polygon fill="white" stroke="black" points="-0.5,-112.5 -0.5,-131.5 96.5,-131.5 96.5,-112.5 -0.5,-112.5"/>
<text text-anchor="middle" x="48" y="-119.5" font-family="Helvetica,sans-Serif" font-size="10.00">ComponentType.h</text>
</a>
</g>
</g>
<!-- Node3&#45;&gt;Node4 -->
<g id="edge3" class="edge"><title>Node3&#45;&gt;Node4</title>
<path fill="none" stroke="midnightblue" d="M197.288,-224.368C169.489,-205.492 103.058,-160.385 68.9667,-137.237"/>
<polygon fill="midnightblue" stroke="midnightblue" points="70.892,-134.313 60.6528,-131.591 66.9598,-140.105 70.892,-134.313"/>
</g>
<!-- Node5 -->
<g id="node5" class="node"><title>Node5</title>
<g id="a_node5"><a xlink:href="GameObject_8h.html" target="_top" xlink:title="GameObject.h">
<polygon fill="white" stroke="black" points="170,-168.5 170,-187.5 250,-187.5 250,-168.5 170,-168.5"/>
<text text-anchor="middle" x="210" y="-175.5" font-family="Helvetica,sans-Serif" font-size="10.00">GameObject.h</text>
</a>
</g>
</g>
<!-- Node3&#45;&gt;Node5 -->
<g id="edge4" class="edge"><title>Node3&#45;&gt;Node5</title>
<path fill="none" stroke="midnightblue" d="M204.834,-224.083C203.324,-216.927 202.894,-206.635 203.542,-197.691"/>
<polygon fill="midnightblue" stroke="midnightblue" points="207.015,-198.126 204.869,-187.751 200.077,-197.2 207.015,-198.126"/>
</g>
<!-- Node5&#45;&gt;Node3 -->
<g id="edge9" class="edge"><title>Node5&#45;&gt;Node3</title>
<path fill="none" stroke="midnightblue" d="M215.131,-187.751C216.657,-194.858 217.104,-205.136 216.472,-214.101"/>
<polygon fill="midnightblue" stroke="midnightblue" points="212.993,-213.713 215.166,-224.083 219.934,-214.622 212.993,-213.713"/>
</g>
<!-- Node5&#45;&gt;Node4 -->
<g id="edge10" class="edge"><title>Node5&#45;&gt;Node4</title>
<path fill="none" stroke="midnightblue" d="M184.331,-168.444C157.077,-159.359 113.816,-144.939 83.3494,-134.783"/>
<polygon fill="midnightblue" stroke="midnightblue" points="84.1429,-131.358 73.5493,-131.516 81.9293,-137.999 84.1429,-131.358"/>
</g>
<!-- Node6 -->
<g id="node6" class="node"><title>Node6</title>
<g id="a_node6"><a xlink:href="SDL__include_8h.html" target="_top" xlink:title="SDL_include.h">
<polygon fill="white" stroke="black" points="298,-0.5 298,-19.5 378,-19.5 378,-0.5 298,-0.5"/>
<text text-anchor="middle" x="338" y="-7.5" font-family="Helvetica,sans-Serif" font-size="10.00">SDL_include.h</text>
</a>
</g>
</g>
<!-- Node5&#45;&gt;Node6 -->
<g id="edge5" class="edge"><title>Node5&#45;&gt;Node6</title>
<path fill="none" stroke="midnightblue" d="M206.37,-168.365C198.019,-146.994 180,-90.8512 205,-56 223.747,-29.866 258.5,-18.7173 287.779,-14.0491"/>
<polygon fill="midnightblue" stroke="midnightblue" points="288.446,-17.4904 297.872,-12.6543 287.487,-10.5563 288.446,-17.4904"/>
</g>
<!-- Node7 -->
<g id="node7" class="node"><title>Node7</title>
<polygon fill="white" stroke="#bfbfbf" points="114,-112.5 114,-131.5 158,-131.5 158,-112.5 114,-112.5"/>
<text text-anchor="middle" x="136" y="-119.5" font-family="Helvetica,sans-Serif" font-size="10.00">vector</text>
</g>
<!-- Node5&#45;&gt;Node7 -->
<g id="edge6" class="edge"><title>Node5&#45;&gt;Node7</title>
<path fill="none" stroke="midnightblue" d="M198.111,-168.324C186.85,-160.107 169.713,-147.602 156.291,-137.807"/>
<polygon fill="midnightblue" stroke="midnightblue" points="158.247,-134.901 148.106,-131.834 154.12,-140.556 158.247,-134.901"/>
</g>
<!-- Node8 -->
<g id="node8" class="node"><title>Node8</title>
<polygon fill="white" stroke="#bfbfbf" points="338,-112.5 338,-131.5 390,-131.5 390,-112.5 338,-112.5"/>
<text text-anchor="middle" x="364" y="-119.5" font-family="Helvetica,sans-Serif" font-size="10.00">memory</text>
</g>
<!-- Node5&#45;&gt;Node8 -->
<g id="edge7" class="edge"><title>Node5&#45;&gt;Node8</title>
<path fill="none" stroke="midnightblue" d="M234.402,-168.444C260.197,-159.399 301.077,-145.064 330.018,-134.916"/>
<polygon fill="midnightblue" stroke="midnightblue" points="331.434,-138.128 339.712,-131.516 329.118,-131.523 331.434,-138.128"/>
</g>
<!-- Node9 -->
<g id="node9" class="node"><title>Node9</title>
<polygon fill="white" stroke="#bfbfbf" points="214.5,-112.5 214.5,-131.5 255.5,-131.5 255.5,-112.5 214.5,-112.5"/>
<text text-anchor="middle" x="235" y="-119.5" font-family="Helvetica,sans-Serif" font-size="10.00">string</text>
</g>
<!-- Node5&#45;&gt;Node9 -->
<g id="edge8" class="edge"><title>Node5&#45;&gt;Node9</title>
<path fill="none" stroke="midnightblue" d="M214.128,-168.083C217.514,-160.77 222.416,-150.181 226.619,-141.103"/>
<polygon fill="midnightblue" stroke="midnightblue" points="229.923,-142.296 230.949,-131.751 223.571,-139.355 229.923,-142.296"/>
</g>
<!-- Node10 -->
<g id="node10" class="node"><title>Node10</title>
<g id="a_node10"><a xlink:href="Rect_8h.html" target="_top" xlink:title="Rect.h">
<polygon fill="white" stroke="black" points="274,-112.5 274,-131.5 320,-131.5 320,-112.5 274,-112.5"/>
<text text-anchor="middle" x="297" y="-119.5" font-family="Helvetica,sans-Serif" font-size="10.00">Rect.h</text>
</a>
</g>
</g>
<!-- Node5&#45;&gt;Node10 -->
<g id="edge11" class="edge"><title>Node5&#45;&gt;Node10</title>
<path fill="none" stroke="midnightblue" d="M223.978,-168.324C237.55,-159.9 258.38,-146.971 274.325,-137.074"/>
<polygon fill="midnightblue" stroke="midnightblue" points="276.406,-139.902 283.057,-131.655 272.714,-133.954 276.406,-139.902"/>
</g>
<!-- Node10&#45;&gt;Node6 -->
<g id="edge12" class="edge"><title>Node10&#45;&gt;Node6</title>
<path fill="none" stroke="midnightblue" d="M296.701,-112.245C296.565,-99.4305 297.454,-75.024 305,-56 309.092,-45.683 316.13,-35.588 322.659,-27.5824"/>
<polygon fill="midnightblue" stroke="midnightblue" points="325.49,-29.6593 329.378,-19.804 320.193,-25.0831 325.49,-29.6593"/>
</g>
<!-- Node11 -->
<g id="node11" class="node"><title>Node11</title>
<g id="a_node11"><a xlink:href="Vec2_8h.html" target="_top" xlink:title="Vec2.h">
<polygon fill="white" stroke="black" points="314.5,-56.5 314.5,-75.5 361.5,-75.5 361.5,-56.5 314.5,-56.5"/>
<text text-anchor="middle" x="338" y="-63.5" font-family="Helvetica,sans-Serif" font-size="10.00">Vec2.h</text>
</a>
</g>
</g>
<!-- Node10&#45;&gt;Node11 -->
<g id="edge13" class="edge"><title>Node10&#45;&gt;Node11</title>
<path fill="none" stroke="midnightblue" d="M303.77,-112.083C309.562,-104.455 318.058,-93.2645 325.138,-83.9408"/>
<polygon fill="midnightblue" stroke="midnightblue" points="328.096,-85.8321 331.356,-75.7511 322.521,-81.5991 328.096,-85.8321"/>
</g>
<!-- Node12 -->
<g id="node12" class="node"><title>Node12</title>
<polygon fill="white" stroke="#bfbfbf" points="214,-56.5 214,-75.5 258,-75.5 258,-56.5 214,-56.5"/>
<text text-anchor="middle" x="236" y="-63.5" font-family="Helvetica,sans-Serif" font-size="10.00">cmath</text>
</g>
<!-- Node10&#45;&gt;Node12 -->
<g id="edge15" class="edge"><title>Node10&#45;&gt;Node12</title>
<path fill="none" stroke="midnightblue" d="M287.199,-112.324C278.182,-104.341 264.594,-92.3128 253.682,-82.6529"/>
<polygon fill="midnightblue" stroke="midnightblue" points="255.787,-79.8416 245.979,-75.8339 251.147,-85.083 255.787,-79.8416"/>
</g>
<!-- Node11&#45;&gt;Node6 -->
<g id="edge14" class="edge"><title>Node11&#45;&gt;Node6</title>
<path fill="none" stroke="midnightblue" d="M338,-56.083C338,-49.0059 338,-38.8611 338,-29.9865"/>
<polygon fill="midnightblue" stroke="midnightblue" points="341.5,-29.751 338,-19.7511 334.5,-29.7511 341.5,-29.751"/>
</g>
<!-- Node13&#45;&gt;Node6 -->
<g id="edge17" class="edge"><title>Node13&#45;&gt;Node6</title>
<path fill="none" stroke="midnightblue" d="M389.049,-174.986C437.925,-170.513 543.307,-158.027 567,-132 589.835,-106.916 595.623,-82.1355 574,-56 550.892,-28.0689 450.359,-17.3214 388.198,-13.2995"/>
<polygon fill="midnightblue" stroke="midnightblue" points="388.388,-9.80472 378.194,-12.6886 387.962,-16.7917 388.388,-9.80472"/>
</g>
<!-- Node13&#45;&gt;Node8 -->
<g id="edge19" class="edge"><title>Node13&#45;&gt;Node8</title>
<path fill="none" stroke="midnightblue" d="M364,-168.083C364,-161.006 364,-150.861 364,-141.986"/>
<polygon fill="midnightblue" stroke="midnightblue" points="367.5,-141.751 364,-131.751 360.5,-141.751 367.5,-141.751"/>
</g>
<!-- Node13&#45;&gt;Node9 -->
<g id="edge18" class="edge"><title>Node13&#45;&gt;Node9</title>
<path fill="none" stroke="midnightblue" d="M343.56,-168.444C322.33,-159.557 288.901,-145.563 264.745,-135.451"/>
<polygon fill="midnightblue" stroke="midnightblue" points="265.921,-132.149 255.345,-131.516 263.218,-138.606 265.921,-132.149"/>
</g>
<!-- Node13&#45;&gt;Node10 -->
<g id="edge21" class="edge"><title>Node13&#45;&gt;Node10</title>
<path fill="none" stroke="midnightblue" d="M353.235,-168.324C343.234,-160.263 328.113,-148.077 316.07,-138.369"/>
<polygon fill="midnightblue" stroke="midnightblue" points="317.943,-135.384 307.961,-131.834 313.55,-140.834 317.943,-135.384"/>
</g>
<!-- Node14 -->
<g id="node14" class="node"><title>Node14</title>
<g id="a_node14"><a xlink:href="Color_8h.html" target="_top" xlink:title="Color.h">
<polygon fill="white" stroke="black" points="510,-112.5 510,-131.5 558,-131.5 558,-112.5 510,-112.5"/>
<text text-anchor="middle" x="534" y="-119.5" font-family="Helvetica,sans-Serif" font-size="10.00">Color.h</text>
</a>
</g>
</g>
<!-- Node13&#45;&gt;Node14 -->
<g id="edge20" class="edge"><title>Node13&#45;&gt;Node14</title>
<path fill="none" stroke="midnightblue" d="M389.084,-169.032C418.547,-159.673 467.551,-144.107 500.309,-133.702"/>
<polygon fill="midnightblue" stroke="midnightblue" points="501.443,-137.014 509.914,-130.651 499.323,-130.343 501.443,-137.014"/>
</g>
<!-- Node15 -->
<g id="node15" class="node"><title>Node15</title>
<g id="a_node15"><a xlink:href="InputManager_8h.html" target="_top" xlink:title="InputManager.h">
<polygon fill="white" stroke="black" points="408,-112.5 408,-131.5 492,-131.5 492,-112.5 408,-112.5"/>
<text text-anchor="middle" x="450" y="-119.5" font-family="Helvetica,sans-Serif" font-size="10.00">InputManager.h</text>
</a>
</g>
</g>
<!-- Node13&#45;&gt;Node15 -->
<g id="edge22" class="edge"><title>Node13&#45;&gt;Node15</title>
<path fill="none" stroke="midnightblue" d="M377.817,-168.324C391.233,-159.9 411.824,-146.971 427.586,-137.074"/>
<polygon fill="midnightblue" stroke="midnightblue" points="429.609,-139.936 436.217,-131.655 425.887,-134.008 429.609,-139.936"/>
</g>
<!-- Node15&#45;&gt;Node6 -->
<g id="edge23" class="edge"><title>Node15&#45;&gt;Node6</title>
<path fill="none" stroke="midnightblue" d="M457.403,-112.243C467.659,-98.9921 483.581,-73.5378 471,-56 452.253,-29.866 417.5,-18.7173 388.221,-14.0491"/>
<polygon fill="midnightblue" stroke="midnightblue" points="388.513,-10.5563 378.128,-12.6543 387.554,-17.4904 388.513,-10.5563"/>
</g>
<!-- Node15&#45;&gt;Node11 -->
<g id="edge24" class="edge"><title>Node15&#45;&gt;Node11</title>
<path fill="none" stroke="midnightblue" d="M432.005,-112.324C413.962,-103.625 385.953,-90.1202 365.197,-80.113"/>
<polygon fill="midnightblue" stroke="midnightblue" points="366.478,-76.8449 355.95,-75.6545 363.438,-83.1502 366.478,-76.8449"/>
</g>
<!-- Node16 -->
<g id="node16" class="node"><title>Node16</title>
<polygon fill="white" stroke="#bfbfbf" points="379.5,-56.5 379.5,-75.5 462.5,-75.5 462.5,-56.5 379.5,-56.5"/>
<text text-anchor="middle" x="421" y="-63.5" font-family="Helvetica,sans-Serif" font-size="10.00">unordered_map</text>
</g>
<!-- Node15&#45;&gt;Node16 -->
<g id="edge25" class="edge"><title>Node15&#45;&gt;Node16</title>
<path fill="none" stroke="midnightblue" d="M445.211,-112.083C441.242,-104.691 435.475,-93.9533 430.565,-84.8111"/>
<polygon fill="midnightblue" stroke="midnightblue" points="433.514,-82.9051 425.7,-75.7511 427.347,-86.217 433.514,-82.9051"/>
</g>
<!-- Node17 -->
<g id="node17" class="node"><title>Node17</title>
<polygon fill="white" stroke="#bfbfbf" points="519,-56.5 519,-75.5 565,-75.5 565,-56.5 519,-56.5"/>
<text text-anchor="middle" x="542" y="-63.5" font-family="Helvetica,sans-Serif" font-size="10.00">cstdint</text>
</g>
<!-- Node15&#45;&gt;Node17 -->
<g id="edge26" class="edge"><title>Node15&#45;&gt;Node17</title>
<path fill="none" stroke="midnightblue" d="M464.781,-112.324C479.267,-103.822 501.573,-90.7288 518.493,-80.7975"/>
<polygon fill="midnightblue" stroke="midnightblue" points="520.403,-83.735 527.255,-75.6545 516.859,-77.6981 520.403,-83.735"/>
</g>
</g>
</svg>
