<?xml version="1.0" encoding="UTF-8" standalone="no"?>
<!DOCTYPE svg PUBLIC "-//W3C//DTD SVG 1.1//EN"
 "http://www.w3.org/Graphics/SVG/1.1/DTD/svg11.dtd">
<!-- Generated by graphviz version 2.38.0 (20140413.2041)
 -->
<!-- Title: Engine/include/HitPoints.h Pages: 1 -->
<svg width="428pt" height="252pt"
 viewBox="0.00 0.00 427.50 252.00" xmlns="http://www.w3.org/2000/svg" xmlns:xlink="http://www.w3.org/1999/xlink">
<g id="graph0" class="graph" transform="scale(1 1) rotate(0) translate(4 248)">
<title>Engine/include/HitPoints.h</title>
<polygon fill="white" stroke="none" points="-4,4 -4,-248 423.5,-248 423.5,4 -4,4"/>
<!-- Node0 -->
<g id="node1" class="node"><title>Node0</title>
<polygon fill="#bfbfbf" stroke="black" points="178.5,-224.5 178.5,-243.5 310.5,-243.5 310.5,-224.5 178.5,-224.5"/>
<text text-anchor="middle" x="244.5" y="-231.5" font-family="Helvetica,sans-Serif" font-size="10.00">Engine/include/HitPoints.h</text>
</g>
<!-- Node1 -->
<g id="node2" class="node"><title>Node1</title>
<g id="a_node2"><a xlink:href="Component_8h.html" target="_top" xlink:title="Component.h">
<polygon fill="white" stroke="black" points="164,-168.5 164,-187.5 239,-187.5 239,-168.5 164,-168.5"/>
<text text-anchor="middle" x="201.5" y="-175.5" font-family="Helvetica,sans-Serif" font-size="10.00">Component.h</text>
</a>
</g>
</g>
<!-- Node0&#45;&gt;Node1 -->
<g id="edge1" class="edge"><title>Node0&#45;&gt;Node1</title>
<path fill="none" stroke="midnightblue" d="M237.399,-224.083C231.263,-216.377 222.23,-205.033 214.761,-195.653"/>
<polygon fill="midnightblue" stroke="midnightblue" points="217.436,-193.394 208.468,-187.751 211.96,-197.754 217.436,-193.394"/>
</g>
<!-- Node10 -->
<g id="node11" class="node"><title>Node10</title>
<g id="a_node11"><a xlink:href="Sprite_8h.html" target="_top" xlink:title="Sprite.h">
<polygon fill="white" stroke="black" points="283.5,-112.5 283.5,-131.5 333.5,-131.5 333.5,-112.5 283.5,-112.5"/>
<text text-anchor="middle" x="308.5" y="-119.5" font-family="Helvetica,sans-Serif" font-size="10.00">Sprite.h</text>
</a>
</g>
</g>
<!-- Node0&#45;&gt;Node10 -->
<g id="edge12" class="edge"><title>Node0&#45;&gt;Node10</title>
<path fill="none" stroke="midnightblue" d="M249.522,-224.368C260.037,-206.296 284.543,-164.176 298.43,-140.307"/>
<polygon fill="midnightblue" stroke="midnightblue" points="301.498,-141.995 303.501,-131.591 295.447,-138.475 301.498,-141.995"/>
</g>
<!-- Node2 -->
<g id="node3" class="node"><title>Node2</title>
<g id="a_node3"><a xlink:href="ComponentType_8h.html" target="_top" xlink:title="ComponentType.h">
<polygon fill="white" stroke="black" points="0,-56.5 0,-75.5 97,-75.5 97,-56.5 0,-56.5"/>
<text text-anchor="middle" x="48.5" y="-63.5" font-family="Helvetica,sans-Serif" font-size="10.00">ComponentType.h</text>
</a>
</g>
</g>
<!-- Node1&#45;&gt;Node2 -->
<g id="edge2" class="edge"><title>Node1&#45;&gt;Node2</title>
<path fill="none" stroke="midnightblue" d="M189.494,-168.368C163.351,-149.573 101.032,-104.768 68.7146,-81.5334"/>
<polygon fill="midnightblue" stroke="midnightblue" points="70.6124,-78.5871 60.4499,-75.5914 66.5261,-84.2707 70.6124,-78.5871"/>
</g>
<!-- Node3 -->
<g id="node4" class="node"><title>Node3</title>
<g id="a_node4"><a xlink:href="GameObject_8h.html" target="_top" xlink:title="GameObject.h">
<polygon fill="white" stroke="black" points="161.5,-112.5 161.5,-131.5 241.5,-131.5 241.5,-112.5 161.5,-112.5"/>
<text text-anchor="middle" x="201.5" y="-119.5" font-family="Helvetica,sans-Serif" font-size="10.00">GameObject.h</text>
</a>
</g>
</g>
<!-- Node1&#45;&gt;Node3 -->
<g id="edge3" class="edge"><title>Node1&#45;&gt;Node3</title>
<path fill="none" stroke="midnightblue" d="M196.334,-168.083C194.824,-160.927 194.394,-150.635 195.042,-141.691"/>
<polygon fill="midnightblue" stroke="midnightblue" points="198.515,-142.126 196.369,-131.751 191.577,-141.2 198.515,-142.126"/>
</g>
<!-- Node3&#45;&gt;Node1 -->
<g id="edge11" class="edge"><title>Node3&#45;&gt;Node1</title>
<path fill="none" stroke="midnightblue" d="M206.631,-131.751C208.157,-138.858 208.604,-149.136 207.972,-158.101"/>
<polygon fill="midnightblue" stroke="midnightblue" points="204.493,-157.713 206.666,-168.083 211.434,-158.622 204.493,-157.713"/>
</g>
<!-- Node3&#45;&gt;Node2 -->
<g id="edge10" class="edge"><title>Node3&#45;&gt;Node2</title>
<path fill="none" stroke="midnightblue" d="M177.257,-112.444C151.629,-103.399 111.015,-89.064 82.2616,-78.9158"/>
<polygon fill="midnightblue" stroke="midnightblue" points="83.2247,-75.5442 72.6299,-75.5164 80.8949,-82.1452 83.2247,-75.5442"/>
</g>
<!-- Node4 -->
<g id="node5" class="node"><title>Node4</title>
<polygon fill="white" stroke="#bfbfbf" points="179.5,-56.5 179.5,-75.5 223.5,-75.5 223.5,-56.5 179.5,-56.5"/>
<text text-anchor="middle" x="201.5" y="-63.5" font-family="Helvetica,sans-Serif" font-size="10.00">vector</text>
</g>
<!-- Node3&#45;&gt;Node4 -->
<g id="edge4" class="edge"><title>Node3&#45;&gt;Node4</title>
<path fill="none" stroke="midnightblue" d="M201.5,-112.083C201.5,-105.006 201.5,-94.8611 201.5,-85.9865"/>
<polygon fill="midnightblue" stroke="midnightblue" points="205,-85.751 201.5,-75.7511 198,-85.7511 205,-85.751"/>
</g>
<!-- Node5 -->
<g id="node6" class="node"><title>Node5</title>
<polygon fill="white" stroke="#bfbfbf" points="241.5,-56.5 241.5,-75.5 293.5,-75.5 293.5,-56.5 241.5,-56.5"/>
<text text-anchor="middle" x="267.5" y="-63.5" font-family="Helvetica,sans-Serif" font-size="10.00">memory</text>
</g>
<!-- Node3&#45;&gt;Node5 -->
<g id="edge5" class="edge"><title>Node3&#45;&gt;Node5</title>
<path fill="none" stroke="midnightblue" d="M212.104,-112.324C221.956,-104.263 236.851,-92.0765 248.715,-82.3695"/>
<polygon fill="midnightblue" stroke="midnightblue" points="251.18,-84.8752 256.703,-75.8339 246.747,-79.4575 251.18,-84.8752"/>
</g>
<!-- Node6 -->
<g id="node7" class="node"><title>Node6</title>
<g id="a_node7"><a xlink:href="Rect_8h.html" target="_top" xlink:title="Rect.h">
<polygon fill="white" stroke="black" points="115.5,-56.5 115.5,-75.5 161.5,-75.5 161.5,-56.5 115.5,-56.5"/>
<text text-anchor="middle" x="138.5" y="-63.5" font-family="Helvetica,sans-Serif" font-size="10.00">Rect.h</text>
</a>
</g>
</g>
<!-- Node3&#45;&gt;Node6 -->
<g id="edge6" class="edge"><title>Node3&#45;&gt;Node6</title>
<path fill="none" stroke="midnightblue" d="M191.378,-112.324C181.974,-104.263 167.756,-92.0765 156.431,-82.3695"/>
<polygon fill="midnightblue" stroke="midnightblue" points="158.677,-79.6844 148.806,-75.8339 154.121,-84.9993 158.677,-79.6844"/>
</g>
<!-- Node9 -->
<g id="node10" class="node"><title>Node9</title>
<polygon fill="white" stroke="#bfbfbf" points="312,-56.5 312,-75.5 353,-75.5 353,-56.5 312,-56.5"/>
<text text-anchor="middle" x="332.5" y="-63.5" font-family="Helvetica,sans-Serif" font-size="10.00">string</text>
</g>
<!-- Node3&#45;&gt;Node9 -->
<g id="edge9" class="edge"><title>Node3&#45;&gt;Node9</title>
<path fill="none" stroke="midnightblue" d="M222.257,-112.444C243.816,-103.557 277.763,-89.5632 302.294,-79.4514"/>
<polygon fill="midnightblue" stroke="midnightblue" points="303.928,-82.5634 311.84,-75.5164 301.261,-76.0917 303.928,-82.5634"/>
</g>
<!-- Node7 -->
<g id="node8" class="node"><title>Node7</title>
<g id="a_node8"><a xlink:href="Vec2_8h.html" target="_top" xlink:title="Vec2.h">
<polygon fill="white" stroke="black" points="83,-0.5 83,-19.5 130,-19.5 130,-0.5 83,-0.5"/>
<text text-anchor="middle" x="106.5" y="-7.5" font-family="Helvetica,sans-Serif" font-size="10.00">Vec2.h</text>
</a>
</g>
</g>
<!-- Node6&#45;&gt;Node7 -->
<g id="edge7" class="edge"><title>Node6&#45;&gt;Node7</title>
<path fill="none" stroke="midnightblue" d="M133.216,-56.083C128.789,-48.6127 122.337,-37.7244 116.882,-28.5199"/>
<polygon fill="midnightblue" stroke="midnightblue" points="119.795,-26.5697 111.686,-19.7511 113.773,-30.1383 119.795,-26.5697"/>
</g>
<!-- Node8 -->
<g id="node9" class="node"><title>Node8</title>
<polygon fill="white" stroke="#bfbfbf" points="148.5,-0.5 148.5,-19.5 192.5,-19.5 192.5,-0.5 148.5,-0.5"/>
<text text-anchor="middle" x="170.5" y="-7.5" font-family="Helvetica,sans-Serif" font-size="10.00">cmath</text>
</g>
<!-- Node6&#45;&gt;Node8 -->
<g id="edge8" class="edge"><title>Node6&#45;&gt;Node8</title>
<path fill="none" stroke="midnightblue" d="M143.784,-56.083C148.211,-48.6127 154.663,-37.7244 160.118,-28.5199"/>
<polygon fill="midnightblue" stroke="midnightblue" points="163.227,-30.1383 165.314,-19.7511 157.205,-26.5697 163.227,-30.1383"/>
</g>
<!-- Node10&#45;&gt;Node5 -->
<g id="edge15" class="edge"><title>Node10&#45;&gt;Node5</title>
<path fill="none" stroke="midnightblue" d="M301.73,-112.083C295.938,-104.455 287.442,-93.2645 280.362,-83.9408"/>
<polygon fill="midnightblue" stroke="midnightblue" points="282.979,-81.5991 274.144,-75.7511 277.404,-85.8321 282.979,-81.5991"/>
</g>
<!-- Node10&#45;&gt;Node9 -->
<g id="edge14" class="edge"><title>Node10&#45;&gt;Node9</title>
<path fill="none" stroke="midnightblue" d="M312.463,-112.083C315.713,-104.77 320.419,-94.1814 324.454,-85.1034"/>
<polygon fill="midnightblue" stroke="midnightblue" points="327.748,-86.3107 328.611,-75.7511 321.351,-83.4677 327.748,-86.3107"/>
</g>
<!-- Node11 -->
<g id="node12" class="node"><title>Node11</title>
<g id="a_node12"><a xlink:href="Color_8h.html" target="_top" xlink:title="Color.h">
<polygon fill="white" stroke="black" points="371.5,-56.5 371.5,-75.5 419.5,-75.5 419.5,-56.5 371.5,-56.5"/>
<text text-anchor="middle" x="395.5" y="-63.5" font-family="Helvetica,sans-Serif" font-size="10.00">Color.h</text>
</a>
</g>
</g>
<!-- Node10&#45;&gt;Node11 -->
<g id="edge13" class="edge"><title>Node10&#45;&gt;Node11</title>
<path fill="none" stroke="midnightblue" d="M322.478,-112.324C336.05,-103.9 356.88,-90.9709 372.825,-81.0741"/>
<polygon fill="midnightblue" stroke="midnightblue" points="374.906,-83.9019 381.557,-75.6545 371.214,-77.9544 374.906,-83.9019"/>
</g>
</g>
</svg>
