<?xml version="1.0" encoding="UTF-8" standalone="no"?>
<!DOCTYPE svg PUBLIC "-//W3C//DTD SVG 1.1//EN"
 "http://www.w3.org/Graphics/SVG/1.1/DTD/svg11.dtd">
<!-- Generated by graphviz version 2.38.0 (20140413.2041)
 -->
<!-- Title: Gráfico de Hierarquia de Classes Pages: 1 -->
<svg width="217pt" height="560pt"
 viewBox="0.00 0.00 217.00 560.00" xmlns="http://www.w3.org/2000/svg" xmlns:xlink="http://www.w3.org/1999/xlink">
<g id="graph0" class="graph" transform="scale(1 1) rotate(0) translate(4 556)">
<title>Gráfico de Hierarquia de Classes</title>
<polygon fill="white" stroke="none" points="-4,4 -4,-556 213,-556 213,4 -4,4"/>
<!-- Node1 -->
<g id="node1" class="node"><title>Node1</title>
<g id="a_node1"><a xlink:href="classComponent.html" target="_top" xlink:title="Modela os componentes. ">
<polygon fill="white" stroke="black" points="13,-190.5 13,-209.5 80,-209.5 80,-190.5 13,-190.5"/>
<text text-anchor="middle" x="46.5" y="-197.5" font-family="Helvetica,sans-Serif" font-size="10.00">Component</text>
</a>
</g>
</g>
<!-- Node2 -->
<g id="node2" class="node"><title>Node2</title>
<g id="a_node2"><a xlink:href="classAIArt.html" target="_top" xlink:title="Componete IA que se move para ponto de destino. ">
<polygon fill="white" stroke="black" points="149.5,-342.5 149.5,-361.5 188.5,-361.5 188.5,-342.5 149.5,-342.5"/>
<text text-anchor="middle" x="169" y="-349.5" font-family="Helvetica,sans-Serif" font-size="10.00">AIArt</text>
</a>
</g>
</g>
<!-- Node1&#45;&gt;Node2 -->
<g id="edge1" class="edge"><title>Node1&#45;&gt;Node2</title>
<path fill="none" stroke="midnightblue" d="M55.0642,-219.125C67.0263,-247.272 92.7322,-300.071 129,-333 134.799,-338.265 142.323,-342.388 149.213,-345.428"/>
<polygon fill="midnightblue" stroke="midnightblue" points="58.2019,-217.552 51.1592,-209.637 51.7287,-220.216 58.2019,-217.552"/>
</g>
<!-- Node3 -->
<g id="node3" class="node"><title>Node3</title>
<g id="a_node3"><a xlink:href="classAIEngineer.html" target="_top" xlink:title="Componete IA que se move para ponto de destino. ">
<polygon fill="white" stroke="black" points="136.5,-304.5 136.5,-323.5 201.5,-323.5 201.5,-304.5 136.5,-304.5"/>
<text text-anchor="middle" x="169" y="-311.5" font-family="Helvetica,sans-Serif" font-size="10.00">AIEngineer</text>
</a>
</g>
</g>
<!-- Node1&#45;&gt;Node3 -->
<g id="edge2" class="edge"><title>Node1&#45;&gt;Node3</title>
<path fill="none" stroke="midnightblue" d="M59.6914,-218.284C74.2315,-239.003 100.213,-272.772 129,-295 133.65,-298.59 139.087,-301.757 144.399,-304.424"/>
<polygon fill="midnightblue" stroke="midnightblue" points="62.3924,-216.034 53.8469,-209.771 56.6215,-219.996 62.3924,-216.034"/>
</g>
<!-- Node4 -->
<g id="node4" class="node"><title>Node4</title>
<g id="a_node4"><a xlink:href="classAIGoDown.html" target="_top" xlink:title="Componete IA que se move para baixo. ">
<polygon fill="white" stroke="black" points="136.5,-114.5 136.5,-133.5 201.5,-133.5 201.5,-114.5 136.5,-114.5"/>
<text text-anchor="middle" x="169" y="-121.5" font-family="Helvetica,sans-Serif" font-size="10.00">AIGoDown</text>
</a>
</g>
</g>
<!-- Node1&#45;&gt;Node4 -->
<g id="edge3" class="edge"><title>Node1&#45;&gt;Node4</title>
<path fill="none" stroke="midnightblue" d="M67.9674,-184.336C84.1008,-172.325 107.403,-155.707 129,-143 134.583,-139.715 140.816,-136.493 146.632,-133.663"/>
<polygon fill="midnightblue" stroke="midnightblue" points="65.686,-181.673 59.7983,-190.481 69.8938,-187.267 65.686,-181.673"/>
</g>
<!-- Node5 -->
<g id="node5" class="node"><title>Node5</title>
<g id="a_node5"><a xlink:href="classAIGoTo.html" target="_top" xlink:title="Componete IA que se move para ponto de destino. ">
<polygon fill="white" stroke="black" points="144,-76.5 144,-95.5 194,-95.5 194,-76.5 144,-76.5"/>
<text text-anchor="middle" x="169" y="-83.5" font-family="Helvetica,sans-Serif" font-size="10.00">AIGoTo</text>
</a>
</g>
</g>
<!-- Node1&#45;&gt;Node5 -->
<g id="edge4" class="edge"><title>Node1&#45;&gt;Node5</title>
<path fill="none" stroke="midnightblue" d="M59.6914,-181.716C74.2315,-160.997 100.213,-127.228 129,-105 133.65,-101.41 139.087,-98.2432 144.399,-95.5758"/>
<polygon fill="midnightblue" stroke="midnightblue" points="56.6215,-180.004 53.8469,-190.229 62.3924,-183.966 56.6215,-180.004"/>
</g>
<!-- Node6 -->
<g id="node6" class="node"><title>Node6</title>
<g id="a_node6"><a xlink:href="classAIMedic.html" target="_top" xlink:title="Componete IA que se move para ponto de destino. ">
<polygon fill="white" stroke="black" points="142.5,-266.5 142.5,-285.5 195.5,-285.5 195.5,-266.5 142.5,-266.5"/>
<text text-anchor="middle" x="169" y="-273.5" font-family="Helvetica,sans-Serif" font-size="10.00">AIMedic</text>
</a>
</g>
</g>
<!-- Node1&#45;&gt;Node6 -->
<g id="edge5" class="edge"><title>Node1&#45;&gt;Node6</title>
<path fill="none" stroke="midnightblue" d="M67.9674,-215.664C84.1008,-227.675 107.403,-244.293 129,-257 134.583,-260.285 140.816,-263.507 146.632,-266.337"/>
<polygon fill="midnightblue" stroke="midnightblue" points="69.8938,-212.733 59.7983,-209.519 65.686,-218.327 69.8938,-212.733"/>
</g>
<!-- Node7 -->
<g id="node7" class="node"><title>Node7</title>
<g id="a_node7"><a xlink:href="classAIPrintPath.html" target="_top" xlink:title="Componete IA que se move para ponto de destino. ">
<polygon fill="white" stroke="black" points="135.5,-38.5 135.5,-57.5 202.5,-57.5 202.5,-38.5 135.5,-38.5"/>
<text text-anchor="middle" x="169" y="-45.5" font-family="Helvetica,sans-Serif" font-size="10.00">AIPrintPath</text>
</a>
</g>
</g>
<!-- Node1&#45;&gt;Node7 -->
<g id="edge6" class="edge"><title>Node1&#45;&gt;Node7</title>
<path fill="none" stroke="midnightblue" d="M55.0642,-180.875C67.0263,-152.728 92.7322,-99.929 129,-67 133.015,-63.3548 137.856,-60.2571 142.742,-57.6872"/>
<polygon fill="midnightblue" stroke="midnightblue" points="51.7287,-179.784 51.1592,-190.363 58.2019,-182.448 51.7287,-179.784"/>
</g>
<!-- Node8 -->
<g id="node8" class="node"><title>Node8</title>
<g id="a_node8"><a xlink:href="classAIQuimic.html" target="_top" xlink:title="Componete IA que reproduz o comportamento do estudande de quimica. ">
<polygon fill="white" stroke="black" points="140.5,-380.5 140.5,-399.5 197.5,-399.5 197.5,-380.5 140.5,-380.5"/>
<text text-anchor="middle" x="169" y="-387.5" font-family="Helvetica,sans-Serif" font-size="10.00">AIQuimic</text>
</a>
</g>
</g>
<!-- Node1&#45;&gt;Node8 -->
<g id="edge7" class="edge"><title>Node1&#45;&gt;Node8</title>
<path fill="none" stroke="midnightblue" d="M52.26,-219.667C61.5483,-254.315 85.1238,-326.746 129,-371 132.712,-374.744 137.31,-377.861 142.032,-380.414"/>
<polygon fill="midnightblue" stroke="midnightblue" points="55.6118,-218.647 49.7387,-209.829 48.8309,-220.385 55.6118,-218.647"/>
</g>
<!-- Node9 -->
<g id="node9" class="node"><title>Node9</title>
<g id="a_node9"><a xlink:href="classDragAndDrop.html" target="_top" xlink:title="Classe responsável por arrastar e posicionar Objetos. ">
<polygon fill="white" stroke="black" points="131,-0.5 131,-19.5 207,-19.5 207,-0.5 131,-0.5"/>
<text text-anchor="middle" x="169" y="-7.5" font-family="Helvetica,sans-Serif" font-size="10.00">DragAndDrop</text>
</a>
</g>
</g>
<!-- Node1&#45;&gt;Node9 -->
<g id="edge8" class="edge"><title>Node1&#45;&gt;Node9</title>
<path fill="none" stroke="midnightblue" d="M52.26,-180.333C61.5483,-145.685 85.1238,-73.2542 129,-29 132.712,-25.2561 137.31,-22.139 142.032,-19.586"/>
<polygon fill="midnightblue" stroke="midnightblue" points="48.8309,-179.615 49.7387,-190.171 55.6118,-181.353 48.8309,-179.615"/>
</g>
<!-- Node10 -->
<g id="node10" class="node"><title>Node10</title>
<g id="a_node10"><a xlink:href="classHitPoints.html" target="_top" xlink:title="HitPoints">
<polygon fill="white" stroke="black" points="140.5,-228.5 140.5,-247.5 197.5,-247.5 197.5,-228.5 140.5,-228.5"/>
<text text-anchor="middle" x="169" y="-235.5" font-family="Helvetica,sans-Serif" font-size="10.00">HitPoints</text>
</a>
</g>
</g>
<!-- Node1&#45;&gt;Node10 -->
<g id="edge9" class="edge"><title>Node1&#45;&gt;Node10</title>
<path fill="none" stroke="midnightblue" d="M87.7666,-212.698C105.085,-218.16 124.888,-224.405 140.487,-229.324"/>
<polygon fill="midnightblue" stroke="midnightblue" points="88.4969,-209.259 77.9072,-209.589 86.3916,-215.935 88.4969,-209.259"/>
</g>
<!-- Node11 -->
<g id="node11" class="node"><title>Node11</title>
<g id="a_node11"><a xlink:href="classShooter.html" target="_top" xlink:title="Shooter">
<polygon fill="white" stroke="black" points="144,-190.5 144,-209.5 194,-209.5 194,-190.5 144,-190.5"/>
<text text-anchor="middle" x="169" y="-197.5" font-family="Helvetica,sans-Serif" font-size="10.00">Shooter</text>
</a>
</g>
</g>
<!-- Node1&#45;&gt;Node11 -->
<g id="edge10" class="edge"><title>Node1&#45;&gt;Node11</title>
<path fill="none" stroke="midnightblue" d="M90.3571,-200C108.296,-200 128.484,-200 143.778,-200"/>
<polygon fill="midnightblue" stroke="midnightblue" points="90.1091,-196.5 80.109,-200 90.109,-203.5 90.1091,-196.5"/>
</g>
<!-- Node12 -->
<g id="node12" class="node"><title>Node12</title>
<g id="a_node12"><a xlink:href="classWaveManager.html" target="_top" xlink:title="Classe que gerencia as waves do jogo. Responsavel por iniciar, encerrar e contar as waves...">
<polygon fill="white" stroke="black" points="129,-152.5 129,-171.5 209,-171.5 209,-152.5 129,-152.5"/>
<text text-anchor="middle" x="169" y="-159.5" font-family="Helvetica,sans-Serif" font-size="10.00">WaveManager</text>
</a>
</g>
</g>
<!-- Node1&#45;&gt;Node12 -->
<g id="edge11" class="edge"><title>Node1&#45;&gt;Node12</title>
<path fill="none" stroke="midnightblue" d="M87.7103,-187.32C103.992,-182.185 122.477,-176.356 137.602,-171.586"/>
<polygon fill="midnightblue" stroke="midnightblue" points="86.3916,-184.065 77.9072,-190.411 88.4969,-190.741 86.3916,-184.065"/>
</g>
<!-- Node13 -->
<g id="node13" class="node"><title>Node13</title>
<g id="a_node13"><a xlink:href="classNearestGOFinder.html" target="_top" xlink:title="NearestGOFinder">
<polygon fill="white" stroke="black" points="0,-513.5 0,-532.5 93,-532.5 93,-513.5 0,-513.5"/>
<text text-anchor="middle" x="46.5" y="-520.5" font-family="Helvetica,sans-Serif" font-size="10.00">NearestGOFinder</text>
</a>
</g>
</g>
<!-- Node14 -->
<g id="node14" class="node"><title>Node14</title>
<g id="a_node14"><a xlink:href="classStageState.html" target="_top" xlink:title="StageState">
<polygon fill="white" stroke="black" points="136.5,-494.5 136.5,-513.5 201.5,-513.5 201.5,-494.5 136.5,-494.5"/>
<text text-anchor="middle" x="169" y="-501.5" font-family="Helvetica,sans-Serif" font-size="10.00">StageState</text>
</a>
</g>
</g>
<!-- Node13&#45;&gt;Node14 -->
<g id="edge12" class="edge"><title>Node13&#45;&gt;Node14</title>
<path fill="none" stroke="midnightblue" d="M102.983,-514.252C114.393,-512.453 126.033,-510.617 136.251,-509.006"/>
<polygon fill="midnightblue" stroke="midnightblue" points="102.389,-510.802 93.0559,-515.817 103.479,-517.717 102.389,-510.802"/>
</g>
<!-- Node15 -->
<g id="node15" class="node"><title>Node15</title>
<g id="a_node15"><a xlink:href="classTileMap.html" target="_top" xlink:title="Classe que modela o TileMap. ">
<polygon fill="white" stroke="black" points="143.5,-532.5 143.5,-551.5 194.5,-551.5 194.5,-532.5 143.5,-532.5"/>
<text text-anchor="middle" x="169" y="-539.5" font-family="Helvetica,sans-Serif" font-size="10.00">TileMap</text>
</a>
</g>
</g>
<!-- Node13&#45;&gt;Node15 -->
<g id="edge13" class="edge"><title>Node13&#45;&gt;Node15</title>
<path fill="none" stroke="midnightblue" d="M103.2,-531.783C117.274,-534.002 131.68,-536.273 143.324,-538.109"/>
<polygon fill="midnightblue" stroke="midnightblue" points="103.479,-528.283 93.0559,-530.183 102.389,-535.198 103.479,-528.283"/>
</g>
<!-- Node16 -->
<g id="node16" class="node"><title>Node16</title>
<g id="a_node16"><a xlink:href="classState.html" target="_top" xlink:title="Classe virtual que modela um estado do jogo. ">
<polygon fill="white" stroke="black" points="26.5,-456.5 26.5,-475.5 66.5,-475.5 66.5,-456.5 26.5,-456.5"/>
<text text-anchor="middle" x="46.5" y="-463.5" font-family="Helvetica,sans-Serif" font-size="10.00">State</text>
</a>
</g>
</g>
<!-- Node16&#45;&gt;Node14 -->
<g id="edge15" class="edge"><title>Node16&#45;&gt;Node14</title>
<path fill="none" stroke="midnightblue" d="M76.2593,-475.069C94.8063,-480.918 118.891,-488.513 137.729,-494.454"/>
<polygon fill="midnightblue" stroke="midnightblue" points="77.1833,-471.691 66.5936,-472.021 75.078,-478.367 77.1833,-471.691"/>
</g>
<!-- Node17 -->
<g id="node17" class="node"><title>Node17</title>
<g id="a_node17"><a xlink:href="classEndState.html" target="_top" xlink:title="EndState">
<polygon fill="white" stroke="black" points="140.5,-418.5 140.5,-437.5 197.5,-437.5 197.5,-418.5 140.5,-418.5"/>
<text text-anchor="middle" x="169" y="-425.5" font-family="Helvetica,sans-Serif" font-size="10.00">EndState</text>
</a>
</g>
</g>
<!-- Node16&#45;&gt;Node17 -->
<g id="edge14" class="edge"><title>Node16&#45;&gt;Node17</title>
<path fill="none" stroke="midnightblue" d="M76.152,-456.965C95.6282,-450.823 121.248,-442.743 140.48,-436.679"/>
<polygon fill="midnightblue" stroke="midnightblue" points="75.078,-453.633 66.5936,-459.979 77.1833,-460.309 75.078,-453.633"/>
</g>
<!-- Node18 -->
<g id="node18" class="node"><title>Node18</title>
<g id="a_node18"><a xlink:href="classTitleState.html" target="_top" xlink:title="TitleState">
<polygon fill="white" stroke="black" points="139.5,-456.5 139.5,-475.5 198.5,-475.5 198.5,-456.5 139.5,-456.5"/>
<text text-anchor="middle" x="169" y="-463.5" font-family="Helvetica,sans-Serif" font-size="10.00">TitleState</text>
</a>
</g>
</g>
<!-- Node16&#45;&gt;Node18 -->
<g id="edge16" class="edge"><title>Node16&#45;&gt;Node18</title>
<path fill="none" stroke="midnightblue" d="M76.7381,-466C95.6797,-466 120.243,-466 139.115,-466"/>
<polygon fill="midnightblue" stroke="midnightblue" points="76.5936,-462.5 66.5936,-466 76.5935,-469.5 76.5936,-462.5"/>
</g>
<!-- Node19 -->
<g id="node19" class="node"><title>Node19</title>
<g id="a_node19"><a xlink:href="classTileMapObserver.html" target="_top" xlink:title="TileMapObserver">
<polygon fill="white" stroke="black" points="1,-342.5 1,-361.5 92,-361.5 92,-342.5 1,-342.5"/>
<text text-anchor="middle" x="46.5" y="-349.5" font-family="Helvetica,sans-Serif" font-size="10.00">TileMapObserver</text>
</a>
</g>
</g>
<!-- Node19&#45;&gt;Node2 -->
<g id="edge17" class="edge"><title>Node19&#45;&gt;Node2</title>
<path fill="none" stroke="midnightblue" d="M102.429,-352C119.328,-352 136.789,-352 149.44,-352"/>
<polygon fill="midnightblue" stroke="midnightblue" points="102.027,-348.5 92.0274,-352 102.027,-355.5 102.027,-348.5"/>
</g>
<!-- Node19&#45;&gt;Node3 -->
<g id="edge18" class="edge"><title>Node19&#45;&gt;Node3</title>
<path fill="none" stroke="midnightblue" d="M87.7103,-339.32C103.992,-334.185 122.477,-328.356 137.602,-323.586"/>
<polygon fill="midnightblue" stroke="midnightblue" points="86.3916,-336.065 77.9072,-342.411 88.4969,-342.741 86.3916,-336.065"/>
</g>
<!-- Node19&#45;&gt;Node6 -->
<g id="edge19" class="edge"><title>Node19&#45;&gt;Node6</title>
<path fill="none" stroke="midnightblue" d="M67.9674,-336.336C84.1008,-324.325 107.403,-307.707 129,-295 134.583,-291.715 140.816,-288.493 146.632,-285.663"/>
<polygon fill="midnightblue" stroke="midnightblue" points="65.686,-333.673 59.7983,-342.481 69.8938,-339.267 65.686,-333.673"/>
</g>
<!-- Node19&#45;&gt;Node8 -->
<g id="edge20" class="edge"><title>Node19&#45;&gt;Node8</title>
<path fill="none" stroke="midnightblue" d="M87.7666,-364.698C105.085,-370.16 124.888,-376.405 140.487,-381.324"/>
<polygon fill="midnightblue" stroke="midnightblue" points="88.4969,-361.259 77.9072,-361.589 86.3916,-367.935 88.4969,-361.259"/>
</g>
<!-- Node19&#45;&gt;Node14 -->
<g id="edge21" class="edge"><title>Node19&#45;&gt;Node14</title>
<path fill="none" stroke="midnightblue" d="M55.0642,-371.125C67.0263,-399.272 92.7322,-452.071 129,-485 133.015,-488.645 137.856,-491.743 142.742,-494.313"/>
<polygon fill="midnightblue" stroke="midnightblue" points="58.2019,-369.552 51.1592,-361.637 51.7287,-372.216 58.2019,-369.552"/>
</g>
</g>
</svg>
