<?xml version="1.0" encoding="UTF-8" standalone="no"?>
<!DOCTYPE svg PUBLIC "-//W3C//DTD SVG 1.1//EN"
 "http://www.w3.org/Graphics/SVG/1.1/DTD/svg11.dtd">
<!-- Generated by graphviz version 2.38.0 (20140413.2041)
 -->
<!-- Title: Engine/include/InputManager.h Pages: 1 -->
<svg width="1320pt" height="308pt"
 viewBox="0.00 0.00 1320.00 308.00" xmlns="http://www.w3.org/2000/svg" xmlns:xlink="http://www.w3.org/1999/xlink">
<g id="graph0" class="graph" transform="scale(1 1) rotate(0) translate(4 304)">
<title>Engine/include/InputManager.h</title>
<polygon fill="white" stroke="none" points="-4,4 -4,-304 1316,-304 1316,4 -4,4"/>
<!-- Node2 -->
<g id="node1" class="node"><title>Node2</title>
<polygon fill="#bfbfbf" stroke="black" points="462.5,-280.5 462.5,-299.5 613.5,-299.5 613.5,-280.5 462.5,-280.5"/>
<text text-anchor="middle" x="538" y="-287.5" font-family="Helvetica,sans-Serif" font-size="10.00">Engine/include/InputManager.h</text>
</g>
<!-- Node3 -->
<g id="node2" class="node"><title>Node3</title>
<g id="a_node2"><a xlink:href="Game_8h.html" target="_top" xlink:title="Engine/include/Game.h">
<polygon fill="white" stroke="black" points="479,-224.5 479,-243.5 597,-243.5 597,-224.5 479,-224.5"/>
<text text-anchor="middle" x="538" y="-231.5" font-family="Helvetica,sans-Serif" font-size="10.00">Engine/include/Game.h</text>
</a>
</g>
</g>
<!-- Node2&#45;&gt;Node3 -->
<g id="edge1" class="edge"><title>Node2&#45;&gt;Node3</title>
<path fill="none" stroke="midnightblue" d="M538,-269.805C538,-260.91 538,-250.78 538,-243.751"/>
<polygon fill="midnightblue" stroke="midnightblue" points="534.5,-270.083 538,-280.083 541.5,-270.083 534.5,-270.083"/>
</g>
<!-- Node6 -->
<g id="node5" class="node"><title>Node6</title>
<g id="a_node5"><a xlink:href="EndState_8h.html" target="_top" xlink:title="Game/include/EndState.h">
<polygon fill="white" stroke="black" points="125,-112.5 125,-131.5 253,-131.5 253,-112.5 125,-112.5"/>
<text text-anchor="middle" x="189" y="-119.5" font-family="Helvetica,sans-Serif" font-size="10.00">Game/include/EndState.h</text>
</a>
</g>
</g>
<!-- Node2&#45;&gt;Node6 -->
<g id="edge23" class="edge"><title>Node2&#45;&gt;Node6</title>
<path fill="none" stroke="midnightblue" d="M463.623,-278.949C368.246,-264.344 211.052,-233.886 177,-188 164.417,-171.044 176.121,-144.883 183.7,-131.509"/>
<polygon fill="midnightblue" stroke="midnightblue" points="463.383,-282.453 473.793,-280.483 464.427,-275.531 463.383,-282.453"/>
</g>
<!-- Node7 -->
<g id="node6" class="node"><title>Node7</title>
<g id="a_node6"><a xlink:href="StageState_8h.html" target="_top" xlink:title="Game/include/StageState.h">
<polygon fill="white" stroke="black" points="28.5,-56.5 28.5,-75.5 165.5,-75.5 165.5,-56.5 28.5,-56.5"/>
<text text-anchor="middle" x="97" y="-63.5" font-family="Helvetica,sans-Serif" font-size="10.00">Game/include/StageState.h</text>
</a>
</g>
</g>
<!-- Node2&#45;&gt;Node7 -->
<g id="edge24" class="edge"><title>Node2&#45;&gt;Node7</title>
<path fill="none" stroke="midnightblue" d="M452.239,-282.08C375.14,-274.849 268.314,-262.03 230,-244 165.733,-213.757 151.069,-193.767 116,-132 105.551,-113.597 100.403,-88.9381 98.2667,-75.919"/>
<polygon fill="midnightblue" stroke="midnightblue" points="452.156,-285.587 462.436,-283.02 452.799,-278.617 452.156,-285.587"/>
</g>
<!-- Node9 -->
<g id="node8" class="node"><title>Node9</title>
<g id="a_node8"><a xlink:href="TitleState_8cpp.html" target="_top" xlink:title="Game/src/TitleState.cpp">
<polygon fill="white" stroke="black" points="35.5,-0.5 35.5,-19.5 158.5,-19.5 158.5,-0.5 35.5,-0.5"/>
<text text-anchor="middle" x="97" y="-7.5" font-family="Helvetica,sans-Serif" font-size="10.00">Game/src/TitleState.cpp</text>
</a>
</g>
</g>
<!-- Node2&#45;&gt;Node9 -->
<g id="edge26" class="edge"><title>Node2&#45;&gt;Node9</title>
<path fill="none" stroke="midnightblue" d="M452.112,-288.944C300.206,-286.506 0,-270.155 0,-179 0,-179 0,-179 0,-121 0,-90.9022 0.405363,-79.6668 19,-56 32.6186,-38.6666 54.8976,-26.7758 72.1656,-19.5905"/>
<polygon fill="midnightblue" stroke="midnightblue" points="452.294,-292.447 462.343,-289.091 452.394,-285.448 452.294,-292.447"/>
</g>
<!-- Node11 -->
<g id="node10" class="node"><title>Node11</title>
<g id="a_node10"><a xlink:href="Camera_8cpp.html" target="_top" xlink:title="Engine/src/Camera.cpp">
<polygon fill="white" stroke="black" points="186.5,-168.5 186.5,-187.5 305.5,-187.5 305.5,-168.5 186.5,-168.5"/>
<text text-anchor="middle" x="246" y="-175.5" font-family="Helvetica,sans-Serif" font-size="10.00">Engine/src/Camera.cpp</text>
</a>
</g>
</g>
<!-- Node2&#45;&gt;Node11 -->
<g id="edge19" class="edge"><title>Node2&#45;&gt;Node11</title>
<path fill="none" stroke="midnightblue" d="M505.418,-276.726C445.741,-254.245 320.304,-206.991 268.806,-187.591"/>
<polygon fill="midnightblue" stroke="midnightblue" points="504.495,-280.118 515.087,-280.368 506.963,-273.568 504.495,-280.118"/>
</g>
<!-- Node17 -->
<g id="node16" class="node"><title>Node17</title>
<g id="a_node16"><a xlink:href="Penguins_8cpp.html" target="_top" xlink:title="Game/src/Penguins.cpp">
<polygon fill="white" stroke="black" points="1190,-168.5 1190,-187.5 1312,-187.5 1312,-168.5 1190,-168.5"/>
<text text-anchor="middle" x="1251" y="-175.5" font-family="Helvetica,sans-Serif" font-size="10.00">Game/src/Penguins.cpp</text>
</a>
</g>
</g>
<!-- Node2&#45;&gt;Node17 -->
<g id="edge25" class="edge"><title>Node2&#45;&gt;Node17</title>
<path fill="none" stroke="midnightblue" d="M559.52,-275.036C587.785,-256.815 634.906,-226.898 644,-224 757.955,-187.685 1061.97,-199.631 1181,-188 1183.93,-187.714 1186.92,-187.403 1189.94,-187.073"/>
<polygon fill="midnightblue" stroke="midnightblue" points="557.577,-272.124 551.078,-280.491 561.377,-278.003 557.577,-272.124"/>
</g>
<!-- Node18 -->
<g id="node17" class="node"><title>Node18</title>
<g id="a_node17"><a xlink:href="DragAndDrop_8cpp.html" target="_top" xlink:title="Engine/src/DragAndDrop.cpp">
<polygon fill="white" stroke="black" points="653,-224.5 653,-243.5 797,-243.5 797,-224.5 653,-224.5"/>
<text text-anchor="middle" x="725" y="-231.5" font-family="Helvetica,sans-Serif" font-size="10.00">Engine/src/DragAndDrop.cpp</text>
</a>
</g>
</g>
<!-- Node2&#45;&gt;Node18 -->
<g id="edge20" class="edge"><title>Node2&#45;&gt;Node18</title>
<path fill="none" stroke="midnightblue" d="M577.59,-277.568C612.866,-267.381 663.694,-252.703 695.508,-243.516"/>
<polygon fill="midnightblue" stroke="midnightblue" points="576.267,-274.307 567.631,-280.444 578.209,-281.032 576.267,-274.307"/>
</g>
<!-- Node19 -->
<g id="node18" class="node"><title>Node19</title>
<g id="a_node18"><a xlink:href="InputManager_8cpp.html" target="_top" xlink:title="Engine/src/InputManager.cpp">
<polygon fill="white" stroke="black" points="815,-224.5 815,-243.5 959,-243.5 959,-224.5 815,-224.5"/>
<text text-anchor="middle" x="887" y="-231.5" font-family="Helvetica,sans-Serif" font-size="10.00">Engine/src/InputManager.cpp</text>
</a>
</g>
</g>
<!-- Node2&#45;&gt;Node19 -->
<g id="edge21" class="edge"><title>Node2&#45;&gt;Node19</title>
<path fill="none" stroke="midnightblue" d="M603.575,-278.854C669.515,-268.651 770.035,-253.098 831.959,-243.516"/>
<polygon fill="midnightblue" stroke="midnightblue" points="602.647,-275.456 593.3,-280.444 603.718,-282.373 602.647,-275.456"/>
</g>
<!-- Node20 -->
<g id="node19" class="node"><title>Node20</title>
<g id="a_node19"><a xlink:href="TileMap_8cpp.html" target="_top" xlink:title="Engine/src/TileMap.cpp">
<polygon fill="white" stroke="black" points="977.5,-224.5 977.5,-243.5 1096.5,-243.5 1096.5,-224.5 977.5,-224.5"/>
<text text-anchor="middle" x="1037" y="-231.5" font-family="Helvetica,sans-Serif" font-size="10.00">Engine/src/TileMap.cpp</text>
</a>
</g>
</g>
<!-- Node2&#45;&gt;Node20 -->
<g id="edge22" class="edge"><title>Node2&#45;&gt;Node20</title>
<path fill="none" stroke="midnightblue" d="M623.868,-280.662C710.716,-272.077 848.785,-258.011 968,-244 971,-243.647 974.071,-243.278 977.172,-242.898"/>
<polygon fill="midnightblue" stroke="midnightblue" points="623.406,-277.191 613.798,-281.656 624.093,-284.157 623.406,-277.191"/>
</g>
<!-- Node4 -->
<g id="node3" class="node"><title>Node4</title>
<g id="a_node3"><a xlink:href="Text_8h.html" target="_top" xlink:title="Engine/include/Text.h">
<polygon fill="white" stroke="black" points="482.5,-168.5 482.5,-187.5 593.5,-187.5 593.5,-168.5 482.5,-168.5"/>
<text text-anchor="middle" x="538" y="-175.5" font-family="Helvetica,sans-Serif" font-size="10.00">Engine/include/Text.h</text>
</a>
</g>
</g>
<!-- Node3&#45;&gt;Node4 -->
<g id="edge2" class="edge"><title>Node3&#45;&gt;Node4</title>
<path fill="none" stroke="midnightblue" d="M538,-213.805C538,-204.91 538,-194.78 538,-187.751"/>
<polygon fill="midnightblue" stroke="midnightblue" points="534.5,-214.083 538,-224.083 541.5,-214.083 534.5,-214.083"/>
</g>
<!-- Node8 -->
<g id="node7" class="node"><title>Node8</title>
<g id="a_node7"><a xlink:href="StageState_8cpp.html" target="_top" xlink:title="Game/src/StageState.cpp">
<polygon fill="white" stroke="black" points="367,-0.5 367,-19.5 497,-19.5 497,-0.5 367,-0.5"/>
<text text-anchor="middle" x="432" y="-7.5" font-family="Helvetica,sans-Serif" font-size="10.00">Game/src/StageState.cpp</text>
</a>
</g>
</g>
<!-- Node3&#45;&gt;Node8 -->
<g id="edge17" class="edge"><title>Node3&#45;&gt;Node8</title>
<path fill="none" stroke="midnightblue" d="M568.553,-219.559C581.329,-212.217 594.847,-201.774 602,-188 608.807,-174.892 613.612,-136.366 599,-112 568.417,-61.0023 501.281,-32.4598 462.082,-19.552"/>
<polygon fill="midnightblue" stroke="midnightblue" points="566.683,-216.588 559.483,-224.36 569.958,-222.775 566.683,-216.588"/>
</g>
<!-- Node3&#45;&gt;Node9 -->
<g id="edge18" class="edge"><title>Node3&#45;&gt;Node9</title>
<path fill="none" stroke="midnightblue" d="M468.676,-223.507C423.399,-215.959 369.689,-204.007 353,-188 308.941,-145.741 359.792,-97.4807 315,-56 292.6,-35.2562 214.809,-22.9766 158.534,-16.615"/>
<polygon fill="midnightblue" stroke="midnightblue" points="468.354,-227.001 478.785,-225.144 469.473,-220.091 468.354,-227.001"/>
</g>
<!-- Node3&#45;&gt;Node11 -->
<g id="edge10" class="edge"><title>Node3&#45;&gt;Node11</title>
<path fill="none" stroke="midnightblue" d="M481.767,-222.601C426.582,-212.395 343.435,-197.019 292.052,-187.516"/>
<polygon fill="midnightblue" stroke="midnightblue" points="481.262,-226.067 491.732,-224.444 482.535,-219.183 481.262,-226.067"/>
</g>
<!-- Node12 -->
<g id="node11" class="node"><title>Node12</title>
<g id="a_node11"><a xlink:href="Game_8cpp.html" target="_top" xlink:title="Engine/src/Game.cpp">
<polygon fill="white" stroke="black" points="650.5,-168.5 650.5,-187.5 761.5,-187.5 761.5,-168.5 650.5,-168.5"/>
<text text-anchor="middle" x="706" y="-175.5" font-family="Helvetica,sans-Serif" font-size="10.00">Engine/src/Game.cpp</text>
</a>
</g>
</g>
<!-- Node3&#45;&gt;Node12 -->
<g id="edge11" class="edge"><title>Node3&#45;&gt;Node12</title>
<path fill="none" stroke="midnightblue" d="M574.386,-221.304C606.042,-211.129 651.168,-196.625 679.504,-187.516"/>
<polygon fill="midnightblue" stroke="midnightblue" points="573.069,-218.051 564.62,-224.444 575.211,-224.715 573.069,-218.051"/>
</g>
<!-- Node13 -->
<g id="node12" class="node"><title>Node13</title>
<g id="a_node12"><a xlink:href="Resources_8cpp.html" target="_top" xlink:title="Engine/src/Resources.cpp">
<polygon fill="white" stroke="black" points="780,-168.5 780,-187.5 912,-187.5 912,-168.5 780,-168.5"/>
<text text-anchor="middle" x="846" y="-175.5" font-family="Helvetica,sans-Serif" font-size="10.00">Engine/src/Resources.cpp</text>
</a>
</g>
</g>
<!-- Node3&#45;&gt;Node13 -->
<g id="edge12" class="edge"><title>Node3&#45;&gt;Node13</title>
<path fill="none" stroke="midnightblue" d="M596.952,-222.664C655.159,-212.459 743.113,-197.039 797.425,-187.516"/>
<polygon fill="midnightblue" stroke="midnightblue" points="596.049,-219.269 586.804,-224.444 597.258,-226.164 596.049,-219.269"/>
</g>
<!-- Node14 -->
<g id="node13" class="node"><title>Node14</title>
<g id="a_node13"><a xlink:href="Sprite_8cpp.html" target="_top" xlink:title="Engine/src/Sprite.cpp">
<polygon fill="white" stroke="black" points="930,-168.5 930,-187.5 1040,-187.5 1040,-168.5 930,-168.5"/>
<text text-anchor="middle" x="985" y="-175.5" font-family="Helvetica,sans-Serif" font-size="10.00">Engine/src/Sprite.cpp</text>
</a>
</g>
</g>
<!-- Node3&#45;&gt;Node14 -->
<g id="edge13" class="edge"><title>Node3&#45;&gt;Node14</title>
<path fill="none" stroke="midnightblue" d="M607.645,-224.402C608.772,-224.267 609.891,-224.133 611,-224 748.72,-207.514 783.425,-205.659 921,-188 923.894,-187.629 926.86,-187.24 929.853,-186.841"/>
<polygon fill="midnightblue" stroke="midnightblue" points="606.866,-220.971 597.358,-225.646 607.706,-227.921 606.866,-220.971"/>
</g>
<!-- Node15 -->
<g id="node14" class="node"><title>Node15</title>
<g id="a_node14"><a xlink:href="Tileset_8cpp.html" target="_top" xlink:title="Engine/src/Tileset.cpp">
<polygon fill="white" stroke="black" points="1058,-168.5 1058,-187.5 1172,-187.5 1172,-168.5 1058,-168.5"/>
<text text-anchor="middle" x="1115" y="-175.5" font-family="Helvetica,sans-Serif" font-size="10.00">Engine/src/Tileset.cpp</text>
</a>
</g>
</g>
<!-- Node3&#45;&gt;Node15 -->
<g id="edge14" class="edge"><title>Node3&#45;&gt;Node15</title>
<path fill="none" stroke="midnightblue" d="M607.64,-224.35C608.768,-224.231 609.889,-224.114 611,-224 805.301,-204.046 854.831,-209.203 1049,-188 1051.87,-187.686 1054.82,-187.348 1057.79,-186.993"/>
<polygon fill="midnightblue" stroke="midnightblue" points="606.898,-220.91 597.339,-225.48 607.661,-227.869 606.898,-220.91"/>
</g>
<!-- Node16 -->
<g id="node15" class="node"><title>Node16</title>
<g id="a_node15"><a xlink:href="main_8cpp.html" target="_top" xlink:title="Game/src/main.cpp">
<polygon fill="white" stroke="black" points="362,-168.5 362,-187.5 464,-187.5 464,-168.5 362,-168.5"/>
<text text-anchor="middle" x="413" y="-175.5" font-family="Helvetica,sans-Serif" font-size="10.00">Game/src/main.cpp</text>
</a>
</g>
</g>
<!-- Node3&#45;&gt;Node16 -->
<g id="edge15" class="edge"><title>Node3&#45;&gt;Node16</title>
<path fill="none" stroke="midnightblue" d="M508.759,-220.368C485.35,-210.255 453.159,-196.349 432.714,-187.516"/>
<polygon fill="midnightblue" stroke="midnightblue" points="507.625,-223.691 518.193,-224.444 510.401,-217.265 507.625,-223.691"/>
</g>
<!-- Node3&#45;&gt;Node17 -->
<g id="edge16" class="edge"><title>Node3&#45;&gt;Node17</title>
<path fill="none" stroke="midnightblue" d="M607.637,-224.321C608.766,-224.211 609.887,-224.104 611,-224 863.744,-200.46 928.318,-212.198 1181,-188 1183.93,-187.72 1186.92,-187.413 1189.94,-187.087"/>
<polygon fill="midnightblue" stroke="midnightblue" points="606.918,-220.876 597.33,-225.385 607.637,-227.839 606.918,-220.876"/>
</g>
<!-- Node5 -->
<g id="node4" class="node"><title>Node5</title>
<g id="a_node4"><a xlink:href="Text_8cpp.html" target="_top" xlink:title="Engine/src/Text.cpp">
<polygon fill="white" stroke="black" points="486,-112.5 486,-131.5 590,-131.5 590,-112.5 486,-112.5"/>
<text text-anchor="middle" x="538" y="-119.5" font-family="Helvetica,sans-Serif" font-size="10.00">Engine/src/Text.cpp</text>
</a>
</g>
</g>
<!-- Node4&#45;&gt;Node5 -->
<g id="edge3" class="edge"><title>Node4&#45;&gt;Node5</title>
<path fill="none" stroke="midnightblue" d="M538,-157.805C538,-148.91 538,-138.78 538,-131.751"/>
<polygon fill="midnightblue" stroke="midnightblue" points="534.5,-158.083 538,-168.083 541.5,-158.083 534.5,-158.083"/>
</g>
<!-- Node4&#45;&gt;Node6 -->
<g id="edge4" class="edge"><title>Node4&#45;&gt;Node6</title>
<path fill="none" stroke="midnightblue" d="M472.425,-166.854C406.485,-156.651 305.965,-141.098 244.041,-131.516"/>
<polygon fill="midnightblue" stroke="midnightblue" points="472.282,-170.373 482.7,-168.444 473.353,-163.456 472.282,-170.373"/>
</g>
<!-- Node6&#45;&gt;Node7 -->
<g id="edge5" class="edge"><title>Node6&#45;&gt;Node7</title>
<path fill="none" stroke="midnightblue" d="M160.229,-107.59C141.892,-97.6052 119.439,-84.2672 106.635,-75.6545"/>
<polygon fill="midnightblue" stroke="midnightblue" points="158.633,-110.705 169.104,-112.324 161.928,-104.529 158.633,-110.705"/>
</g>
<!-- Node10 -->
<g id="node9" class="node"><title>Node10</title>
<g id="a_node9"><a xlink:href="EndState_8cpp.html" target="_top" xlink:title="Game/src/EndState.cpp">
<polygon fill="white" stroke="black" points="184,-56.5 184,-75.5 306,-75.5 306,-56.5 184,-56.5"/>
<text text-anchor="middle" x="245" y="-63.5" font-family="Helvetica,sans-Serif" font-size="10.00">Game/src/EndState.cpp</text>
</a>
</g>
</g>
<!-- Node6&#45;&gt;Node10 -->
<g id="edge9" class="edge"><title>Node6&#45;&gt;Node10</title>
<path fill="none" stroke="midnightblue" d="M205.33,-105.253C215.265,-95.6731 227.588,-83.7906 235.839,-75.8339"/>
<polygon fill="midnightblue" stroke="midnightblue" points="202.766,-102.863 197.997,-112.324 207.625,-107.902 202.766,-102.863"/>
</g>
<!-- Node7&#45;&gt;Node6 -->
<g id="edge6" class="edge"><title>Node7&#45;&gt;Node6</title>
<path fill="none" stroke="midnightblue" d="M125.726,-80.3855C144.056,-90.3643 166.513,-103.703 179.333,-112.324"/>
<polygon fill="midnightblue" stroke="midnightblue" points="127.325,-77.2721 116.855,-75.6545 124.031,-83.4486 127.325,-77.2721"/>
</g>
<!-- Node7&#45;&gt;Node8 -->
<g id="edge7" class="edge"><title>Node7&#45;&gt;Node8</title>
<path fill="none" stroke="midnightblue" d="M160.336,-54.7907C223.636,-44.587 319.849,-29.078 379.167,-19.5164"/>
<polygon fill="midnightblue" stroke="midnightblue" points="159.397,-51.3967 150.082,-56.4435 160.511,-58.3075 159.397,-51.3967"/>
</g>
<!-- Node7&#45;&gt;Node9 -->
<g id="edge8" class="edge"><title>Node7&#45;&gt;Node9</title>
<path fill="none" stroke="midnightblue" d="M97,-45.8045C97,-36.9102 97,-26.7798 97,-19.7511"/>
<polygon fill="midnightblue" stroke="midnightblue" points="93.5001,-46.083 97,-56.083 100.5,-46.083 93.5001,-46.083"/>
</g>
</g>
</svg>
