<?xml version="1.0" encoding="UTF-8" standalone="no"?>
<!DOCTYPE svg PUBLIC "-//W3C//DTD SVG 1.1//EN"
 "http://www.w3.org/Graphics/SVG/1.1/DTD/svg11.dtd">
<!-- Generated by graphviz version 2.38.0 (20140413.2041)
 -->
<!-- Title: Engine/include/InputManager.h Pages: 1 -->
<svg width="2941pt" height="420pt"
 viewBox="0.00 0.00 2941.00 420.00" xmlns="http://www.w3.org/2000/svg" xmlns:xlink="http://www.w3.org/1999/xlink">
<g id="graph0" class="graph" transform="scale(1 1) rotate(0) translate(4 416)">
<title>Engine/include/InputManager.h</title>
<polygon fill="white" stroke="none" points="-4,4 -4,-416 2937,-416 2937,4 -4,4"/>
<!-- Node1 -->
<g id="node1" class="node"><title>Node1</title>
<polygon fill="#bfbfbf" stroke="black" points="1506.5,-392.5 1506.5,-411.5 1657.5,-411.5 1657.5,-392.5 1506.5,-392.5"/>
<text text-anchor="middle" x="1582" y="-399.5" font-family="Helvetica,sans-Serif" font-size="10.00">Engine/include/InputManager.h</text>
</g>
<!-- Node2 -->
<g id="node2" class="node"><title>Node2</title>
<g id="a_node2"><a xlink:href="ActionManager_8h.html" target="_top" xlink:title="Engine/include/ActionManager.h">
<polygon fill="white" stroke="black" points="1265.5,-224.5 1265.5,-243.5 1422.5,-243.5 1422.5,-224.5 1265.5,-224.5"/>
<text text-anchor="middle" x="1344" y="-231.5" font-family="Helvetica,sans-Serif" font-size="10.00">Engine/include/ActionManager.h</text>
</a>
</g>
</g>
<!-- Node1&#45;&gt;Node2 -->
<g id="edge1" class="edge"><title>Node1&#45;&gt;Node2</title>
<path fill="none" stroke="midnightblue" d="M1496.11,-392.593C1444.75,-385.782 1386.05,-374.256 1368,-356 1337.13,-324.778 1340.31,-265.969 1342.8,-243.776"/>
<polygon fill="midnightblue" stroke="midnightblue" points="1495.91,-396.096 1506.27,-393.893 1496.8,-389.153 1495.91,-396.096"/>
</g>
<!-- Node5 -->
<g id="node5" class="node"><title>Node5</title>
<g id="a_node5"><a xlink:href="Camera_8cpp.html" target="_top" xlink:title="Engine/src/Camera.cpp">
<polygon fill="white" stroke="black" points="672.5,-112.5 672.5,-131.5 791.5,-131.5 791.5,-112.5 672.5,-112.5"/>
<text text-anchor="middle" x="732" y="-119.5" font-family="Helvetica,sans-Serif" font-size="10.00">Engine/src/Camera.cpp</text>
</a>
</g>
</g>
<!-- Node1&#45;&gt;Node5 -->
<g id="edge77" class="edge"><title>Node1&#45;&gt;Node5</title>
<path fill="none" stroke="midnightblue" d="M1496.22,-393.235C1336.82,-377.644 1011,-339.806 1011,-291 1011,-291 1011,-291 1011,-233 1011,-183.797 858.928,-147.289 779.329,-131.549"/>
<polygon fill="midnightblue" stroke="midnightblue" points="1496.18,-396.748 1506.47,-394.23 1496.85,-389.781 1496.18,-396.748"/>
</g>
<!-- Node6 -->
<g id="node6" class="node"><title>Node6</title>
<g id="a_node6"><a xlink:href="DragAndDrop_8cpp.html" target="_top" xlink:title="Engine/src/DragAndDrop.cpp">
<polygon fill="white" stroke="black" points="1578,-112.5 1578,-131.5 1722,-131.5 1722,-112.5 1578,-112.5"/>
<text text-anchor="middle" x="1650" y="-119.5" font-family="Helvetica,sans-Serif" font-size="10.00">Engine/src/DragAndDrop.cpp</text>
</a>
</g>
</g>
<!-- Node1&#45;&gt;Node6 -->
<g id="edge78" class="edge"><title>Node1&#45;&gt;Node6</title>
<path fill="none" stroke="midnightblue" d="M1555.62,-387.591C1520.1,-367.495 1463.08,-326.879 1479,-280 1499.18,-220.574 1517.06,-208.5 1565,-168 1584.01,-151.945 1609.68,-139.335 1627.83,-131.598"/>
<polygon fill="midnightblue" stroke="midnightblue" points="1554.1,-390.752 1564.55,-392.477 1557.46,-384.61 1554.1,-390.752"/>
</g>
<!-- Node9 -->
<g id="node9" class="node"><title>Node9</title>
<g id="a_node9"><a xlink:href="TileMap_8cpp.html" target="_top" xlink:title="Engine/src/TileMap.cpp">
<polygon fill="white" stroke="black" points="2034.5,-112.5 2034.5,-131.5 2153.5,-131.5 2153.5,-112.5 2034.5,-112.5"/>
<text text-anchor="middle" x="2094" y="-119.5" font-family="Helvetica,sans-Serif" font-size="10.00">Engine/src/TileMap.cpp</text>
</a>
</g>
</g>
<!-- Node1&#45;&gt;Node9 -->
<g id="edge80" class="edge"><title>Node1&#45;&gt;Node9</title>
<path fill="none" stroke="midnightblue" d="M1667.81,-395.768C1848.98,-383.572 2254,-349.738 2254,-291 2254,-291 2254,-291 2254,-233 2254,-202.775 2255.24,-189.506 2234,-168 2219.87,-153.695 2170.14,-139.959 2133.95,-131.506"/>
<polygon fill="midnightblue" stroke="midnightblue" points="1667.53,-392.28 1657.78,-396.437 1667.99,-399.264 1667.53,-392.28"/>
</g>
<!-- Node15 -->
<g id="node15" class="node"><title>Node15</title>
<g id="a_node15"><a xlink:href="TitleState_8cpp.html" target="_top" xlink:title="Game/src/TitleState.cpp">
<polygon fill="white" stroke="black" points="390.5,-56.5 390.5,-75.5 513.5,-75.5 513.5,-56.5 390.5,-56.5"/>
<text text-anchor="middle" x="452" y="-63.5" font-family="Helvetica,sans-Serif" font-size="10.00">Game/src/TitleState.cpp</text>
</a>
</g>
</g>
<!-- Node1&#45;&gt;Node15 -->
<g id="edge83" class="edge"><title>Node1&#45;&gt;Node15</title>
<path fill="none" stroke="midnightblue" d="M1496.05,-399.561C1166.23,-393.483 0,-366.643 0,-291 0,-291 0,-291 0,-177 0,-141.088 16.8853,-129.932 48,-112 104.788,-79.2718 291.863,-70.3465 390.258,-67.9125"/>
<polygon fill="midnightblue" stroke="midnightblue" points="1496.43,-403.069 1506.5,-399.752 1496.56,-396.07 1496.43,-403.069"/>
</g>
<!-- Node18 -->
<g id="node18" class="node"><title>Node18</title>
<g id="a_node18"><a xlink:href="StageState_8h.html" target="_top" xlink:title="Game/include/StageState.h">
<polygon fill="white" stroke="black" points="2171.5,-112.5 2171.5,-131.5 2308.5,-131.5 2308.5,-112.5 2171.5,-112.5"/>
<text text-anchor="middle" x="2240" y="-119.5" font-family="Helvetica,sans-Serif" font-size="10.00">Game/include/StageState.h</text>
</a>
</g>
</g>
<!-- Node1&#45;&gt;Node18 -->
<g id="edge82" class="edge"><title>Node1&#45;&gt;Node18</title>
<path fill="none" stroke="midnightblue" d="M1667.84,-401.831C1776.78,-401.099 1969.79,-393.807 2130,-356 2205.51,-338.181 2292,-368.579 2292,-291 2292,-291 2292,-291 2292,-233 2292,-191.809 2261.83,-149.546 2247.45,-131.744"/>
<polygon fill="midnightblue" stroke="midnightblue" points="1667.54,-398.332 1657.56,-401.882 1667.58,-405.332 1667.54,-398.332"/>
</g>
<!-- Node19 -->
<g id="node19" class="node"><title>Node19</title>
<g id="a_node19"><a xlink:href="EndState_8h.html" target="_top" xlink:title="Game/include/EndState.h">
<polygon fill="white" stroke="black" points="2377,-56.5 2377,-75.5 2505,-75.5 2505,-56.5 2377,-56.5"/>
<text text-anchor="middle" x="2441" y="-63.5" font-family="Helvetica,sans-Serif" font-size="10.00">Game/include/EndState.h</text>
</a>
</g>
</g>
<!-- Node1&#45;&gt;Node19 -->
<g id="edge81" class="edge"><title>Node1&#45;&gt;Node19</title>
<path fill="none" stroke="midnightblue" d="M1667.73,-397.489C1939.04,-385.818 2761,-345.928 2761,-291 2761,-291 2761,-291 2761,-177 2761,-146.902 2764.68,-131.787 2742,-112 2707.66,-82.0391 2582.93,-72.0232 2505.22,-68.6769"/>
<polygon fill="midnightblue" stroke="midnightblue" points="1667.39,-394.001 1657.55,-397.925 1667.69,-400.994 1667.39,-394.001"/>
</g>
<!-- Node22 -->
<g id="node22" class="node"><title>Node22</title>
<g id="a_node22"><a xlink:href="Sprite_8h.html" target="_top" xlink:title="Engine/include/Sprite.h">
<polygon fill="white" stroke="black" points="1724.5,-336.5 1724.5,-355.5 1841.5,-355.5 1841.5,-336.5 1724.5,-336.5"/>
<text text-anchor="middle" x="1783" y="-343.5" font-family="Helvetica,sans-Serif" font-size="10.00">Engine/include/Sprite.h</text>
</a>
</g>
</g>
<!-- Node1&#45;&gt;Node22 -->
<g id="edge26" class="edge"><title>Node1&#45;&gt;Node22</title>
<path fill="none" stroke="midnightblue" d="M1623.58,-389.829C1661.53,-379.633 1716.81,-364.782 1751.3,-355.516"/>
<polygon fill="midnightblue" stroke="midnightblue" points="1622.6,-386.469 1613.85,-392.444 1624.41,-393.229 1622.6,-386.469"/>
</g>
<!-- Node33 -->
<g id="node33" class="node"><title>Node33</title>
<g id="a_node33"><a xlink:href="State_8h.html" target="_top" xlink:title="Engine/include/State.h">
<polygon fill="white" stroke="black" points="867.5,-224.5 867.5,-243.5 982.5,-243.5 982.5,-224.5 867.5,-224.5"/>
<text text-anchor="middle" x="925" y="-231.5" font-family="Helvetica,sans-Serif" font-size="10.00">Engine/include/State.h</text>
</a>
</g>
</g>
<!-- Node1&#45;&gt;Node33 -->
<g id="edge56" class="edge"><title>Node1&#45;&gt;Node33</title>
<path fill="none" stroke="midnightblue" d="M1495.97,-398.729C1343.59,-394.072 1038.33,-381.645 997,-356 954.005,-329.319 933.466,-266.674 927.178,-243.67"/>
<polygon fill="midnightblue" stroke="midnightblue" points="1496.13,-402.235 1506.23,-399.038 1496.34,-395.239 1496.13,-402.235"/>
</g>
<!-- Node34 -->
<g id="node34" class="node"><title>Node34</title>
<g id="a_node34"><a xlink:href="Game_8h.html" target="_top" xlink:title="Engine/include/Game.h">
<polygon fill="white" stroke="black" points="624,-168.5 624,-187.5 742,-187.5 742,-168.5 624,-168.5"/>
<text text-anchor="middle" x="683" y="-175.5" font-family="Helvetica,sans-Serif" font-size="10.00">Engine/include/Game.h</text>
</a>
</g>
</g>
<!-- Node1&#45;&gt;Node34 -->
<g id="edge72" class="edge"><title>Node1&#45;&gt;Node34</title>
<path fill="none" stroke="midnightblue" d="M1496.25,-399.675C1351.77,-396.613 1066.26,-386.757 971,-356 850.365,-317.052 728.27,-217.82 693.061,-187.761"/>
<polygon fill="midnightblue" stroke="midnightblue" points="1496.33,-403.178 1506.4,-399.884 1496.48,-396.179 1496.33,-403.178"/>
</g>
<!-- Node39 -->
<g id="node39" class="node"><title>Node39</title>
<g id="a_node39"><a xlink:href="Music_8h.html" target="_top" xlink:title="Engine/include/Music.h">
<polygon fill="white" stroke="black" points="2446,-168.5 2446,-187.5 2564,-187.5 2564,-168.5 2446,-168.5"/>
<text text-anchor="middle" x="2505" y="-175.5" font-family="Helvetica,sans-Serif" font-size="10.00">Engine/include/Music.h</text>
</a>
</g>
</g>
<!-- Node1&#45;&gt;Node39 -->
<g id="edge73" class="edge"><title>Node1&#45;&gt;Node39</title>
<path fill="none" stroke="midnightblue" d="M1667.7,-398.809C1846.7,-393.781 2248.44,-379.964 2306,-356 2398.2,-317.613 2476.48,-217.995 2498.7,-187.802"/>
<polygon fill="midnightblue" stroke="midnightblue" points="1667.44,-395.315 1657.54,-399.092 1667.63,-402.312 1667.44,-395.315"/>
</g>
<!-- Node41 -->
<g id="node41" class="node"><title>Node41</title>
<g id="a_node41"><a xlink:href="InputManager_8cpp.html" target="_top" xlink:title="Engine/src/InputManager.cpp">
<polygon fill="white" stroke="black" points="2789,-336.5 2789,-355.5 2933,-355.5 2933,-336.5 2789,-336.5"/>
<text text-anchor="middle" x="2861" y="-343.5" font-family="Helvetica,sans-Serif" font-size="10.00">Engine/src/InputManager.cpp</text>
</a>
</g>
</g>
<!-- Node1&#45;&gt;Node41 -->
<g id="edge79" class="edge"><title>Node1&#45;&gt;Node41</title>
<path fill="none" stroke="midnightblue" d="M1668.07,-399.718C1864.51,-396.361 2360.91,-385.444 2775,-356 2779.49,-355.681 2784.11,-355.312 2788.77,-354.911"/>
<polygon fill="midnightblue" stroke="midnightblue" points="1667.75,-396.222 1657.81,-399.891 1667.87,-403.221 1667.75,-396.222"/>
</g>
<!-- Node3 -->
<g id="node3" class="node"><title>Node3</title>
<g id="a_node3"><a xlink:href="Camera_8h.html" target="_top" xlink:title="Engine/include/Camera.h">
<polygon fill="white" stroke="black" points="1321,-168.5 1321,-187.5 1447,-187.5 1447,-168.5 1321,-168.5"/>
<text text-anchor="middle" x="1384" y="-175.5" font-family="Helvetica,sans-Serif" font-size="10.00">Engine/include/Camera.h</text>
</a>
</g>
</g>
<!-- Node2&#45;&gt;Node3 -->
<g id="edge2" class="edge"><title>Node2&#45;&gt;Node3</title>
<path fill="none" stroke="midnightblue" d="M1356.7,-215.855C1363.63,-206.505 1371.91,-195.327 1377.52,-187.751"/>
<polygon fill="midnightblue" stroke="midnightblue" points="1353.75,-213.964 1350.61,-224.083 1359.37,-218.131 1353.75,-213.964"/>
</g>
<!-- Node17 -->
<g id="node17" class="node"><title>Node17</title>
<g id="a_node17"><a xlink:href="ActionManager_8cpp.html" target="_top" xlink:title="Engine/src/ActionManager.cpp">
<polygon fill="white" stroke="black" points="1153,-168.5 1153,-187.5 1303,-187.5 1303,-168.5 1153,-168.5"/>
<text text-anchor="middle" x="1228" y="-175.5" font-family="Helvetica,sans-Serif" font-size="10.00">Engine/src/ActionManager.cpp</text>
</a>
</g>
</g>
<!-- Node2&#45;&gt;Node17 -->
<g id="edge16" class="edge"><title>Node2&#45;&gt;Node17</title>
<path fill="none" stroke="midnightblue" d="M1316.28,-220.096C1294.61,-210.007 1265.1,-196.27 1246.29,-187.516"/>
<polygon fill="midnightblue" stroke="midnightblue" points="1315.08,-223.396 1325.62,-224.444 1318.03,-217.05 1315.08,-223.396"/>
</g>
<!-- Node2&#45;&gt;Node18 -->
<g id="edge17" class="edge"><title>Node2&#45;&gt;Node18</title>
<path fill="none" stroke="midnightblue" d="M1432.79,-230.037C1543.97,-225.377 1740.02,-214.019 1906,-188 1944.34,-181.99 1953,-175.898 1991,-168 2058.96,-153.875 2137.88,-140.044 2188.34,-131.525"/>
<polygon fill="midnightblue" stroke="midnightblue" points="1432.48,-226.547 1422.63,-230.454 1432.76,-233.541 1432.48,-226.547"/>
</g>
<!-- Node20 -->
<g id="node20" class="node"><title>Node20</title>
<g id="a_node20"><a xlink:href="TitleState_8h.html" target="_top" xlink:title="Game/include/TitleState.h">
<polygon fill="white" stroke="black" points="476,-168.5 476,-187.5 606,-187.5 606,-168.5 476,-168.5"/>
<text text-anchor="middle" x="541" y="-175.5" font-family="Helvetica,sans-Serif" font-size="10.00">Game/include/TitleState.h</text>
</a>
</g>
</g>
<!-- Node2&#45;&gt;Node20 -->
<g id="edge23" class="edge"><title>Node2&#45;&gt;Node20</title>
<path fill="none" stroke="midnightblue" d="M1255.5,-226.869C1240.96,-225.891 1226.06,-224.903 1212,-224 946.731,-206.959 879.724,-212.057 615,-188 612.164,-187.742 609.27,-187.462 606.347,-187.166"/>
<polygon fill="midnightblue" stroke="midnightblue" points="1255.27,-230.362 1265.48,-227.545 1255.74,-223.378 1255.27,-230.362"/>
</g>
<!-- Node4 -->
<g id="node4" class="node"><title>Node4</title>
<g id="a_node4"><a xlink:href="Animation_8cpp.html" target="_top" xlink:title="Engine/src/Animation.cpp">
<polygon fill="white" stroke="black" points="1310,-112.5 1310,-131.5 1438,-131.5 1438,-112.5 1310,-112.5"/>
<text text-anchor="middle" x="1374" y="-119.5" font-family="Helvetica,sans-Serif" font-size="10.00">Engine/src/Animation.cpp</text>
</a>
</g>
</g>
<!-- Node3&#45;&gt;Node4 -->
<g id="edge3" class="edge"><title>Node3&#45;&gt;Node4</title>
<path fill="none" stroke="midnightblue" d="M1380.5,-158.101C1378.84,-149.136 1376.94,-138.858 1375.62,-131.751"/>
<polygon fill="midnightblue" stroke="midnightblue" points="1377.09,-158.888 1382.35,-168.083 1383.97,-157.613 1377.09,-158.888"/>
</g>
<!-- Node3&#45;&gt;Node5 -->
<g id="edge4" class="edge"><title>Node3&#45;&gt;Node5</title>
<path fill="none" stroke="midnightblue" d="M1310.57,-167.913C1083.67,-146.125 1024.22,-154.401 801,-132 797.995,-131.698 794.919,-131.37 791.814,-131.023"/>
<polygon fill="midnightblue" stroke="midnightblue" points="1310.51,-171.423 1320.81,-168.905 1311.19,-164.456 1310.51,-171.423"/>
</g>
<!-- Node3&#45;&gt;Node6 -->
<g id="edge5" class="edge"><title>Node3&#45;&gt;Node6</title>
<path fill="none" stroke="midnightblue" d="M1436.17,-166.41C1486.44,-156.204 1561.53,-140.96 1608.05,-131.516"/>
<polygon fill="midnightblue" stroke="midnightblue" points="1435.25,-163.024 1426.15,-168.444 1436.64,-169.884 1435.25,-163.024"/>
</g>
<!-- Node7 -->
<g id="node7" class="node"><title>Node7</title>
<g id="a_node7"><a xlink:href="Sprite_8cpp.html" target="_top" xlink:title="Engine/src/Sprite.cpp">
<polygon fill="white" stroke="black" points="810,-112.5 810,-131.5 920,-131.5 920,-112.5 810,-112.5"/>
<text text-anchor="middle" x="865" y="-119.5" font-family="Helvetica,sans-Serif" font-size="10.00">Engine/src/Sprite.cpp</text>
</a>
</g>
</g>
<!-- Node3&#45;&gt;Node7 -->
<g id="edge6" class="edge"><title>Node3&#45;&gt;Node7</title>
<path fill="none" stroke="midnightblue" d="M1310.73,-167.893C1140.35,-149.482 1095.58,-151.531 929,-132 926.103,-131.66 923.133,-131.297 920.137,-130.918"/>
<polygon fill="midnightblue" stroke="midnightblue" points="1310.48,-171.386 1320.8,-168.988 1311.23,-164.427 1310.48,-171.386"/>
</g>
<!-- Node8 -->
<g id="node8" class="node"><title>Node8</title>
<g id="a_node8"><a xlink:href="State_8cpp.html" target="_top" xlink:title="Engine/src/State.cpp">
<polygon fill="white" stroke="black" points="1070,-112.5 1070,-131.5 1178,-131.5 1178,-112.5 1070,-112.5"/>
<text text-anchor="middle" x="1124" y="-119.5" font-family="Helvetica,sans-Serif" font-size="10.00">Engine/src/State.cpp</text>
</a>
</g>
</g>
<!-- Node3&#45;&gt;Node8 -->
<g id="edge7" class="edge"><title>Node3&#45;&gt;Node8</title>
<path fill="none" stroke="midnightblue" d="M1333.01,-166.41C1283.87,-156.204 1210.47,-140.96 1165.01,-131.516"/>
<polygon fill="midnightblue" stroke="midnightblue" points="1332.3,-169.837 1342.8,-168.444 1333.72,-162.983 1332.3,-169.837"/>
</g>
<!-- Node3&#45;&gt;Node9 -->
<g id="edge8" class="edge"><title>Node3&#45;&gt;Node9</title>
<path fill="none" stroke="midnightblue" d="M1457.7,-171.725C1571.35,-163.539 1796.21,-147.142 1987,-132 2002.33,-130.783 2018.89,-129.416 2034.3,-128.122"/>
<polygon fill="midnightblue" stroke="midnightblue" points="1457.11,-168.258 1447.39,-172.467 1457.62,-175.24 1457.11,-168.258"/>
</g>
<!-- Node10 -->
<g id="node10" class="node"><title>Node10</title>
<g id="a_node10"><a xlink:href="Tileset_8cpp.html" target="_top" xlink:title="Engine/src/Tileset.cpp">
<polygon fill="white" stroke="black" points="938,-112.5 938,-131.5 1052,-131.5 1052,-112.5 938,-112.5"/>
<text text-anchor="middle" x="995" y="-119.5" font-family="Helvetica,sans-Serif" font-size="10.00">Engine/src/Tileset.cpp</text>
</a>
</g>
</g>
<!-- Node3&#45;&gt;Node10 -->
<g id="edge9" class="edge"><title>Node3&#45;&gt;Node10</title>
<path fill="none" stroke="midnightblue" d="M1312.07,-167.015C1237.12,-156.611 1121.2,-140.518 1052.23,-130.945"/>
<polygon fill="midnightblue" stroke="midnightblue" points="1311.98,-170.535 1322.36,-168.444 1312.94,-163.602 1311.98,-170.535"/>
</g>
<!-- Node11 -->
<g id="node11" class="node"><title>Node11</title>
<g id="a_node11"><a xlink:href="EndState_8cpp.html" target="_top" xlink:title="Game/src/EndState.cpp">
<polygon fill="white" stroke="black" points="1781,-0.5 1781,-19.5 1903,-19.5 1903,-0.5 1781,-0.5"/>
<text text-anchor="middle" x="1842" y="-7.5" font-family="Helvetica,sans-Serif" font-size="10.00">Game/src/EndState.cpp</text>
</a>
</g>
</g>
<!-- Node3&#45;&gt;Node11 -->
<g id="edge10" class="edge"><title>Node3&#45;&gt;Node11</title>
<path fill="none" stroke="midnightblue" d="M1342.81,-165.346C1310.06,-154.028 1272.69,-135.18 1292,-112 1353.67,-37.9693 1650.38,-18.0197 1780.56,-12.7928"/>
<polygon fill="midnightblue" stroke="midnightblue" points="1341.73,-168.673 1352.32,-168.475 1343.92,-162.024 1341.73,-168.673"/>
</g>
<!-- Node12 -->
<g id="node12" class="node"><title>Node12</title>
<g id="a_node12"><a xlink:href="Enemy_8cpp.html" target="_top" xlink:title="Game/src/Enemy.cpp">
<polygon fill="white" stroke="black" points="1866,-112.5 1866,-131.5 1978,-131.5 1978,-112.5 1866,-112.5"/>
<text text-anchor="middle" x="1922" y="-119.5" font-family="Helvetica,sans-Serif" font-size="10.00">Game/src/Enemy.cpp</text>
</a>
</g>
</g>
<!-- Node3&#45;&gt;Node12 -->
<g id="edge11" class="edge"><title>Node3&#45;&gt;Node12</title>
<path fill="none" stroke="midnightblue" d="M1457.37,-170.998C1550.44,-163.16 1715.84,-148.48 1857,-132 1859.94,-131.657 1862.96,-131.29 1866,-130.909"/>
<polygon fill="midnightblue" stroke="midnightblue" points="1456.88,-167.527 1447.21,-171.851 1457.47,-174.502 1456.88,-167.527"/>
</g>
<!-- Node13 -->
<g id="node13" class="node"><title>Node13</title>
<g id="a_node13"><a xlink:href="Face_8cpp.html" target="_top" xlink:title="Game/src/Face.cpp">
<polygon fill="white" stroke="black" points="1456.5,-112.5 1456.5,-131.5 1559.5,-131.5 1559.5,-112.5 1456.5,-112.5"/>
<text text-anchor="middle" x="1508" y="-119.5" font-family="Helvetica,sans-Serif" font-size="10.00">Game/src/Face.cpp</text>
</a>
</g>
</g>
<!-- Node3&#45;&gt;Node13 -->
<g id="edge12" class="edge"><title>Node3&#45;&gt;Node13</title>
<path fill="none" stroke="midnightblue" d="M1413.01,-164.368C1436.23,-154.255 1468.16,-140.349 1488.44,-131.516"/>
<polygon fill="midnightblue" stroke="midnightblue" points="1411.42,-161.242 1403.65,-168.444 1414.21,-167.66 1411.42,-161.242"/>
</g>
<!-- Node14 -->
<g id="node14" class="node"><title>Node14</title>
<g id="a_node14"><a xlink:href="StageState_8cpp.html" target="_top" xlink:title="Game/src/StageState.cpp">
<polygon fill="white" stroke="black" points="1941,-56.5 1941,-75.5 2071,-75.5 2071,-56.5 1941,-56.5"/>
<text text-anchor="middle" x="2006" y="-63.5" font-family="Helvetica,sans-Serif" font-size="10.00">Game/src/StageState.cpp</text>
</a>
</g>
</g>
<!-- Node3&#45;&gt;Node14 -->
<g id="edge13" class="edge"><title>Node3&#45;&gt;Node14</title>
<path fill="none" stroke="midnightblue" d="M1347.55,-164.76C1317.01,-152.657 1281.34,-132.957 1301,-112 1322.71,-88.8567 1770.26,-73.7184 1940.79,-68.7711"/>
<polygon fill="midnightblue" stroke="midnightblue" points="1346.61,-168.148 1357.2,-168.414 1349.09,-161.601 1346.61,-168.148"/>
</g>
<!-- Node3&#45;&gt;Node15 -->
<g id="edge14" class="edge"><title>Node3&#45;&gt;Node15</title>
<path fill="none" stroke="midnightblue" d="M1339.58,-165.929C1308.5,-157.721 1266.23,-145.629 1230,-132 1210.27,-124.579 1207.45,-117.107 1187,-112 900.264,-40.383 817.345,-102.6 523,-76 519.906,-75.7204 516.74,-75.4096 513.544,-75.0764"/>
<polygon fill="midnightblue" stroke="midnightblue" points="1338.7,-169.316 1349.26,-168.455 1340.47,-162.542 1338.7,-169.316"/>
</g>
<!-- Node16 -->
<g id="node16" class="node"><title>Node16</title>
<g id="a_node16"><a xlink:href="Tower_8cpp.html" target="_top" xlink:title="Game/src/Tower.cpp">
<polygon fill="white" stroke="black" points="1740,-112.5 1740,-131.5 1848,-131.5 1848,-112.5 1740,-112.5"/>
<text text-anchor="middle" x="1794" y="-119.5" font-family="Helvetica,sans-Serif" font-size="10.00">Game/src/Tower.cpp</text>
</a>
</g>
</g>
<!-- Node3&#45;&gt;Node16 -->
<g id="edge15" class="edge"><title>Node3&#45;&gt;Node16</title>
<path fill="none" stroke="midnightblue" d="M1457.11,-167.798C1527.36,-158.89 1636.48,-144.879 1731,-132 1733.85,-131.612 1736.76,-131.21 1739.71,-130.801"/>
<polygon fill="midnightblue" stroke="midnightblue" points="1456.52,-164.345 1447.04,-169.074 1457.4,-171.289 1456.52,-164.345"/>
</g>
<!-- Node18&#45;&gt;Node14 -->
<g id="edge21" class="edge"><title>Node18&#45;&gt;Node14</title>
<path fill="none" stroke="midnightblue" d="M2193,-110.153C2148.78,-99.95 2083.48,-84.8809 2042.9,-75.5164"/>
<polygon fill="midnightblue" stroke="midnightblue" points="2192.39,-113.605 2202.92,-112.444 2193.97,-106.784 2192.39,-113.605"/>
</g>
<!-- Node18&#45;&gt;Node15 -->
<g id="edge22" class="edge"><title>Node18&#45;&gt;Node15</title>
<path fill="none" stroke="midnightblue" d="M2160.92,-112.007C1433.35,-62.813 1246.25,-129.637 523,-76 519.902,-75.7703 516.732,-75.4996 513.534,-75.1981"/>
<polygon fill="midnightblue" stroke="midnightblue" points="2160.91,-115.514 2171.13,-112.702 2161.39,-108.53 2160.91,-115.514"/>
</g>
<!-- Node18&#45;&gt;Node19 -->
<g id="edge18" class="edge"><title>Node18&#45;&gt;Node19</title>
<path fill="none" stroke="midnightblue" d="M2276.45,-109.699C2312.71,-99.507 2367.84,-84.7429 2404.22,-75.5164"/>
<polygon fill="midnightblue" stroke="midnightblue" points="2275.43,-106.352 2266.76,-112.444 2277.34,-113.087 2275.43,-106.352"/>
</g>
<!-- Node19&#45;&gt;Node11 -->
<g id="edge20" class="edge"><title>Node19&#45;&gt;Node11</title>
<path fill="none" stroke="midnightblue" d="M2366.68,-56.0055C2191.83,-38.0312 1999.2,-22.809 1903.09,-15.5287"/>
<polygon fill="midnightblue" stroke="midnightblue" points="2366.53,-59.5091 2376.84,-57.0554 2367.25,-52.5462 2366.53,-59.5091"/>
</g>
<!-- Node19&#45;&gt;Node18 -->
<g id="edge19" class="edge"><title>Node19&#45;&gt;Node18</title>
<path fill="none" stroke="midnightblue" d="M2404.7,-78.2572C2368.5,-88.4356 2313.37,-103.201 2276.94,-112.444"/>
<polygon fill="midnightblue" stroke="midnightblue" points="2405.71,-81.609 2414.38,-75.5164 2403.8,-74.8738 2405.71,-81.609"/>
</g>
<!-- Node20&#45;&gt;Node15 -->
<g id="edge25" class="edge"><title>Node20&#45;&gt;Node15</title>
<path fill="none" stroke="midnightblue" d="M465.676,-175.456C336.503,-172.022 83.946,-161.568 57,-132 11.0062,-81.5316 268.345,-70.2436 390.451,-67.7228"/>
<polygon fill="midnightblue" stroke="midnightblue" points="465.805,-178.961 475.892,-175.72 465.986,-171.963 465.805,-178.961"/>
</g>
<!-- Node21 -->
<g id="node21" class="node"><title>Node21</title>
<g id="a_node21"><a xlink:href="main_8cpp.html" target="_top" xlink:title="Game/src/main.cpp">
<polygon fill="white" stroke="black" points="66,-112.5 66,-131.5 168,-131.5 168,-112.5 66,-112.5"/>
<text text-anchor="middle" x="117" y="-119.5" font-family="Helvetica,sans-Serif" font-size="10.00">Game/src/main.cpp</text>
</a>
</g>
</g>
<!-- Node20&#45;&gt;Node21 -->
<g id="edge24" class="edge"><title>Node20&#45;&gt;Node21</title>
<path fill="none" stroke="midnightblue" d="M465.727,-168.271C392.067,-159.592 276.72,-145.641 177,-132 174.078,-131.6 171.077,-131.18 168.05,-130.749"/>
<polygon fill="midnightblue" stroke="midnightblue" points="465.498,-171.768 475.838,-169.46 466.315,-164.816 465.498,-171.768"/>
</g>
<!-- Node22&#45;&gt;Node7 -->
<g id="edge50" class="edge"><title>Node22&#45;&gt;Node7</title>
<path fill="none" stroke="midnightblue" d="M1714.31,-336.96C1540.43,-316.382 1094.65,-262.158 1068,-244 1035.93,-222.147 1055.54,-191.949 1025,-168 1007.06,-153.933 950.319,-140.088 909.504,-131.55"/>
<polygon fill="midnightblue" stroke="midnightblue" points="1714.04,-340.451 1724.38,-338.149 1714.86,-333.499 1714.04,-340.451"/>
</g>
<!-- Node22&#45;&gt;Node18 -->
<g id="edge52" class="edge"><title>Node22&#45;&gt;Node18</title>
<path fill="none" stroke="midnightblue" d="M1851.75,-344.145C1898.36,-340.592 1959.52,-329.864 2005,-300 2064.77,-260.748 2039.37,-210.331 2097,-168 2122.7,-149.127 2156.54,-138.012 2184.86,-131.552"/>
<polygon fill="midnightblue" stroke="midnightblue" points="1851.48,-340.655 1841.74,-344.816 1851.95,-347.64 1851.48,-340.655"/>
</g>
<!-- Node22&#45;&gt;Node19 -->
<g id="edge51" class="edge"><title>Node22&#45;&gt;Node19</title>
<path fill="none" stroke="midnightblue" d="M1851.93,-340.968C1920.38,-335.749 2027.85,-324.264 2118,-300 2266.16,-260.12 2294.07,-223.798 2437,-168 2480.22,-151.126 2508.44,-170.049 2535,-132 2553.79,-105.073 2509,-85.7959 2474.98,-75.5311"/>
<polygon fill="midnightblue" stroke="midnightblue" points="1851.42,-337.496 1841.7,-341.723 1851.93,-344.477 1851.42,-337.496"/>
</g>
<!-- Node22&#45;&gt;Node20 -->
<g id="edge54" class="edge"><title>Node22&#45;&gt;Node20</title>
<path fill="none" stroke="midnightblue" d="M1714.06,-339.691C1559.98,-327.342 1176.26,-293.893 858,-244 755.321,-227.903 635.498,-201.126 576.931,-187.512"/>
<polygon fill="midnightblue" stroke="midnightblue" points="1714.06,-343.203 1724.31,-340.509 1714.62,-336.225 1714.06,-343.203"/>
</g>
<!-- Node23 -->
<g id="node23" class="node"><title>Node23</title>
<g id="a_node23"><a xlink:href="Animation_8h.html" target="_top" xlink:title="Engine/include/Animation.h">
<polygon fill="white" stroke="black" points="1661.5,-280.5 1661.5,-299.5 1796.5,-299.5 1796.5,-280.5 1661.5,-280.5"/>
<text text-anchor="middle" x="1729" y="-287.5" font-family="Helvetica,sans-Serif" font-size="10.00">Engine/include/Animation.h</text>
</a>
</g>
</g>
<!-- Node22&#45;&gt;Node23 -->
<g id="edge27" class="edge"><title>Node22&#45;&gt;Node23</title>
<path fill="none" stroke="midnightblue" d="M1767,-329.002C1757.43,-319.433 1745.64,-307.639 1737.75,-299.751"/>
<polygon fill="midnightblue" stroke="midnightblue" points="1764.54,-331.487 1774.08,-336.083 1769.49,-326.537 1764.54,-331.487"/>
</g>
<!-- Node24 -->
<g id="node24" class="node"><title>Node24</title>
<g id="a_node24"><a xlink:href="Tileset_8h.html" target="_top" xlink:title="Engine/include/Tileset.h">
<polygon fill="white" stroke="black" points="1875.5,-280.5 1875.5,-299.5 1996.5,-299.5 1996.5,-280.5 1875.5,-280.5"/>
<text text-anchor="middle" x="1936" y="-287.5" font-family="Helvetica,sans-Serif" font-size="10.00">Engine/include/Tileset.h</text>
</a>
</g>
</g>
<!-- Node22&#45;&gt;Node24 -->
<g id="edge29" class="edge"><title>Node22&#45;&gt;Node24</title>
<path fill="none" stroke="midnightblue" d="M1816.89,-333.039C1845.68,-322.879 1886.29,-308.546 1911.87,-299.516"/>
<polygon fill="midnightblue" stroke="midnightblue" points="1815.51,-329.815 1807.24,-336.444 1817.84,-336.416 1815.51,-329.815"/>
</g>
<!-- Node27 -->
<g id="node27" class="node"><title>Node27</title>
<g id="a_node27"><a xlink:href="Enemy_8h.html" target="_top" xlink:title="Game/include/Enemy.h">
<polygon fill="white" stroke="black" points="2106.5,-168.5 2106.5,-187.5 2225.5,-187.5 2225.5,-168.5 2106.5,-168.5"/>
<text text-anchor="middle" x="2166" y="-175.5" font-family="Helvetica,sans-Serif" font-size="10.00">Game/include/Enemy.h</text>
</a>
</g>
</g>
<!-- Node22&#45;&gt;Node27 -->
<g id="edge53" class="edge"><title>Node22&#45;&gt;Node27</title>
<path fill="none" stroke="midnightblue" d="M1852.01,-341.717C1930.78,-336.813 2053.68,-325.288 2092,-300 2134.54,-271.927 2156.67,-210.141 2163.58,-187.517"/>
<polygon fill="midnightblue" stroke="midnightblue" points="1851.45,-338.244 1841.68,-342.338 1851.87,-345.231 1851.45,-338.244"/>
</g>
<!-- Node30 -->
<g id="node30" class="node"><title>Node30</title>
<g id="a_node30"><a xlink:href="Tower_8h.html" target="_top" xlink:title="Game/include/Tower.h">
<polygon fill="white" stroke="black" points="1782.5,-168.5 1782.5,-187.5 1897.5,-187.5 1897.5,-168.5 1782.5,-168.5"/>
<text text-anchor="middle" x="1840" y="-175.5" font-family="Helvetica,sans-Serif" font-size="10.00">Game/include/Tower.h</text>
</a>
</g>
</g>
<!-- Node22&#45;&gt;Node30 -->
<g id="edge55" class="edge"><title>Node22&#45;&gt;Node30</title>
<path fill="none" stroke="midnightblue" d="M1792.53,-327.307C1796.7,-319.141 1801.44,-309.229 1805,-300 1820.82,-258.99 1833.37,-207.786 1838.04,-187.677"/>
<polygon fill="midnightblue" stroke="midnightblue" points="1789.39,-325.757 1787.85,-336.238 1795.59,-329.007 1789.39,-325.757"/>
</g>
<!-- Node31 -->
<g id="node31" class="node"><title>Node31</title>
<g id="a_node31"><a xlink:href="HitPoints_8h.html" target="_top" xlink:title="Engine/include/HitPoints.h">
<polygon fill="white" stroke="black" points="1488,-280.5 1488,-299.5 1620,-299.5 1620,-280.5 1488,-280.5"/>
<text text-anchor="middle" x="1554" y="-287.5" font-family="Helvetica,sans-Serif" font-size="10.00">Engine/include/HitPoints.h</text>
</a>
</g>
</g>
<!-- Node22&#45;&gt;Node31 -->
<g id="edge48" class="edge"><title>Node22&#45;&gt;Node31</title>
<path fill="none" stroke="midnightblue" d="M1736.73,-334.088C1693.46,-323.887 1629.74,-308.861 1590.12,-299.516"/>
<polygon fill="midnightblue" stroke="midnightblue" points="1736.18,-337.555 1746.71,-336.444 1737.78,-330.742 1736.18,-337.555"/>
</g>
<!-- Node23&#45;&gt;Node4 -->
<g id="edge28" class="edge"><title>Node23&#45;&gt;Node4</title>
<path fill="none" stroke="midnightblue" d="M1700.93,-275.874C1631.03,-243.187 1450.62,-158.826 1392.4,-131.605"/>
<polygon fill="midnightblue" stroke="midnightblue" points="1699.87,-279.243 1710.41,-280.309 1702.84,-272.902 1699.87,-279.243"/>
</g>
<!-- Node24&#45;&gt;Node10 -->
<g id="edge46" class="edge"><title>Node24&#45;&gt;Node10</title>
<path fill="none" stroke="midnightblue" d="M1865.3,-284.102C1845.77,-282.76 1824.56,-281.313 1805,-280 1561.03,-263.62 1492.93,-304.447 1256,-244 1252.76,-243.174 1072.55,-159.175 1013.51,-131.635"/>
<polygon fill="midnightblue" stroke="midnightblue" points="1865.13,-287.599 1875.35,-284.794 1865.61,-280.615 1865.13,-287.599"/>
</g>
<!-- Node24&#45;&gt;Node18 -->
<g id="edge47" class="edge"><title>Node24&#45;&gt;Node18</title>
<path fill="none" stroke="midnightblue" d="M1967.01,-276.033C1982.9,-268.34 2001.84,-257.454 2016,-244 2044.96,-216.479 2031.69,-191.501 2064,-168 2083.96,-153.483 2145.29,-139.897 2189.95,-131.53"/>
<polygon fill="midnightblue" stroke="midnightblue" points="1965.17,-273.025 1957.57,-280.405 1968.12,-279.376 1965.17,-273.025"/>
</g>
<!-- Node25 -->
<g id="node25" class="node"><title>Node25</title>
<g id="a_node25"><a xlink:href="TileMap_8h.html" target="_top" xlink:title="Engine/include/TileMap.h">
<polygon fill="white" stroke="black" points="1881,-224.5 1881,-243.5 2007,-243.5 2007,-224.5 1881,-224.5"/>
<text text-anchor="middle" x="1944" y="-231.5" font-family="Helvetica,sans-Serif" font-size="10.00">Engine/include/TileMap.h</text>
</a>
</g>
</g>
<!-- Node24&#45;&gt;Node25 -->
<g id="edge30" class="edge"><title>Node24&#45;&gt;Node25</title>
<path fill="none" stroke="midnightblue" d="M1938.8,-270.101C1940.13,-261.136 1941.65,-250.858 1942.7,-243.751"/>
<polygon fill="midnightblue" stroke="midnightblue" points="1935.32,-269.678 1937.32,-280.083 1942.25,-270.704 1935.32,-269.678"/>
</g>
<!-- Node25&#45;&gt;Node9 -->
<g id="edge36" class="edge"><title>Node25&#45;&gt;Node9</title>
<path fill="none" stroke="midnightblue" d="M1952.56,-214.916C1960.14,-200.555 1972.42,-180.821 1988,-168 2009.46,-150.341 2038.86,-138.592 2061.26,-131.541"/>
<polygon fill="midnightblue" stroke="midnightblue" points="1949.24,-213.74 1947.89,-224.248 1955.5,-216.873 1949.24,-213.74"/>
</g>
<!-- Node25&#45;&gt;Node18 -->
<g id="edge37" class="edge"><title>Node25&#45;&gt;Node18</title>
<path fill="none" stroke="midnightblue" d="M1959.31,-217.188C1974.75,-202.204 1999.95,-180.224 2026,-168 2053.75,-154.976 2131.66,-140.476 2185.39,-131.545"/>
<polygon fill="midnightblue" stroke="midnightblue" points="1956.79,-214.759 1952.18,-224.298 1961.73,-219.717 1956.79,-214.759"/>
</g>
<!-- Node26 -->
<g id="node26" class="node"><title>Node26</title>
<g id="a_node26"><a xlink:href="DragAndDrop_8h.html" target="_top" xlink:title="Engine/include/DragAndDrop.h">
<polygon fill="white" stroke="black" points="1574.5,-168.5 1574.5,-187.5 1725.5,-187.5 1725.5,-168.5 1574.5,-168.5"/>
<text text-anchor="middle" x="1650" y="-175.5" font-family="Helvetica,sans-Serif" font-size="10.00">Engine/include/DragAndDrop.h</text>
</a>
</g>
</g>
<!-- Node25&#45;&gt;Node26 -->
<g id="edge31" class="edge"><title>Node25&#45;&gt;Node26</title>
<path fill="none" stroke="midnightblue" d="M1887.38,-222.601C1831.82,-212.395 1748.1,-197.019 1696.37,-187.516"/>
<polygon fill="midnightblue" stroke="midnightblue" points="1886.95,-226.079 1897.41,-224.444 1888.21,-219.195 1886.95,-226.079"/>
</g>
<!-- Node25&#45;&gt;Node27 -->
<g id="edge38" class="edge"><title>Node25&#45;&gt;Node27</title>
<path fill="none" stroke="midnightblue" d="M1989.12,-222.024C2031.06,-211.823 2092.65,-196.841 2130.99,-187.516"/>
<polygon fill="midnightblue" stroke="midnightblue" points="1988.07,-218.679 1979.18,-224.444 1989.72,-225.481 1988.07,-218.679"/>
</g>
<!-- Node25&#45;&gt;Node30 -->
<g id="edge43" class="edge"><title>Node25&#45;&gt;Node30</title>
<path fill="none" stroke="midnightblue" d="M1918.17,-219.59C1898.94,-209.605 1873.26,-196.267 1856.67,-187.655"/>
<polygon fill="midnightblue" stroke="midnightblue" points="1916.8,-222.822 1927.29,-224.324 1920.03,-216.61 1916.8,-222.822"/>
</g>
<!-- Node26&#45;&gt;Node6 -->
<g id="edge32" class="edge"><title>Node26&#45;&gt;Node6</title>
<path fill="none" stroke="midnightblue" d="M1650,-157.805C1650,-148.91 1650,-138.78 1650,-131.751"/>
<polygon fill="midnightblue" stroke="midnightblue" points="1646.5,-158.083 1650,-168.083 1653.5,-158.083 1646.5,-158.083"/>
</g>
<!-- Node26&#45;&gt;Node13 -->
<g id="edge34" class="edge"><title>Node26&#45;&gt;Node13</title>
<path fill="none" stroke="midnightblue" d="M1617.84,-164.772C1591.17,-154.629 1553.93,-140.467 1530.4,-131.516"/>
<polygon fill="midnightblue" stroke="midnightblue" points="1616.91,-168.16 1627.5,-168.444 1619.4,-161.618 1616.91,-168.16"/>
</g>
<!-- Node26&#45;&gt;Node16 -->
<g id="edge35" class="edge"><title>Node26&#45;&gt;Node16</title>
<path fill="none" stroke="midnightblue" d="M1682.25,-164.906C1709.32,-154.754 1747.32,-140.506 1771.29,-131.516"/>
<polygon fill="midnightblue" stroke="midnightblue" points="1680.95,-161.655 1672.82,-168.444 1683.41,-168.209 1680.95,-161.655"/>
</g>
<!-- Node26&#45;&gt;Node18 -->
<g id="edge33" class="edge"><title>Node26&#45;&gt;Node18</title>
<path fill="none" stroke="midnightblue" d="M1736.01,-168.372C1737.35,-168.246 1738.68,-168.122 1740,-168 1927.43,-150.634 1974.7,-150.79 2162,-132 2164.98,-131.701 2168.03,-131.386 2171.11,-131.062"/>
<polygon fill="midnightblue" stroke="midnightblue" points="1735.24,-164.929 1725.61,-169.358 1735.9,-171.898 1735.24,-164.929"/>
</g>
<!-- Node27&#45;&gt;Node12 -->
<g id="edge41" class="edge"><title>Node27&#45;&gt;Node12</title>
<path fill="none" stroke="midnightblue" d="M2117.57,-166.281C2071.46,-156.077 2002.97,-140.92 1960.48,-131.516"/>
<polygon fill="midnightblue" stroke="midnightblue" points="2116.82,-169.7 2127.34,-168.444 2118.33,-162.865 2116.82,-169.7"/>
</g>
<!-- Node27&#45;&gt;Node14 -->
<g id="edge42" class="edge"><title>Node27&#45;&gt;Node14</title>
<path fill="none" stroke="midnightblue" d="M2235.59,-169.612C2287.59,-161.347 2345.21,-144.587 2317,-112 2301.15,-93.697 2157.77,-79.1415 2071.32,-71.9359"/>
<polygon fill="midnightblue" stroke="midnightblue" points="2235,-166.162 2225.63,-171.107 2236.04,-173.084 2235,-166.162"/>
</g>
<!-- Node28 -->
<g id="node28" class="node"><title>Node28</title>
<g id="a_node28"><a xlink:href="GameResources_8h.html" target="_top" xlink:title="Game/include/GameResources.h">
<polygon fill="white" stroke="black" points="2365.5,-112.5 2365.5,-131.5 2526.5,-131.5 2526.5,-112.5 2365.5,-112.5"/>
<text text-anchor="middle" x="2446" y="-119.5" font-family="Helvetica,sans-Serif" font-size="10.00">Game/include/GameResources.h</text>
</a>
</g>
</g>
<!-- Node27&#45;&gt;Node28 -->
<g id="edge39" class="edge"><title>Node27&#45;&gt;Node28</title>
<path fill="none" stroke="midnightblue" d="M2220.25,-166.537C2273.17,-156.332 2352.67,-140.999 2401.84,-131.516"/>
<polygon fill="midnightblue" stroke="midnightblue" points="2219.52,-163.113 2210.37,-168.444 2220.85,-169.986 2219.52,-163.113"/>
</g>
<!-- Node29 -->
<g id="node29" class="node"><title>Node29</title>
<g id="a_node29"><a xlink:href="GameResources_8cpp.html" target="_top" xlink:title="Game/src/GameResources.cpp">
<polygon fill="white" stroke="black" points="2203.5,-56.5 2203.5,-75.5 2358.5,-75.5 2358.5,-56.5 2203.5,-56.5"/>
<text text-anchor="middle" x="2281" y="-63.5" font-family="Helvetica,sans-Serif" font-size="10.00">Game/src/GameResources.cpp</text>
</a>
</g>
</g>
<!-- Node28&#45;&gt;Node29 -->
<g id="edge40" class="edge"><title>Node28&#45;&gt;Node29</title>
<path fill="none" stroke="midnightblue" d="M2410.26,-109.304C2379.17,-99.1294 2334.85,-84.6246 2307.02,-75.5164"/>
<polygon fill="midnightblue" stroke="midnightblue" points="2409.26,-112.659 2419.86,-112.444 2411.44,-106.007 2409.26,-112.659"/>
</g>
<!-- Node30&#45;&gt;Node14 -->
<g id="edge44" class="edge"><title>Node30&#45;&gt;Node14</title>
<path fill="none" stroke="midnightblue" d="M1893.46,-166.223C1929.83,-157.879 1973.67,-145.497 1987,-132 2002.2,-116.607 2005.37,-89.7621 2005.94,-75.8797"/>
<polygon fill="midnightblue" stroke="midnightblue" points="1892.43,-162.867 1883.44,-168.467 1893.96,-169.698 1892.43,-162.867"/>
</g>
<!-- Node30&#45;&gt;Node16 -->
<g id="edge45" class="edge"><title>Node30&#45;&gt;Node16</title>
<path fill="none" stroke="midnightblue" d="M1825.89,-160.431C1817.82,-150.967 1808.04,-139.483 1801.45,-131.751"/>
<polygon fill="midnightblue" stroke="midnightblue" points="1823.25,-162.74 1832.4,-168.083 1828.58,-158.201 1823.25,-162.74"/>
</g>
<!-- Node32 -->
<g id="node32" class="node"><title>Node32</title>
<g id="a_node32"><a xlink:href="HItPoints_8cpp.html" target="_top" xlink:title="Engine/src/HItPoints.cpp">
<polygon fill="white" stroke="black" points="1077,-224.5 1077,-243.5 1203,-243.5 1203,-224.5 1077,-224.5"/>
<text text-anchor="middle" x="1140" y="-231.5" font-family="Helvetica,sans-Serif" font-size="10.00">Engine/src/HItPoints.cpp</text>
</a>
</g>
</g>
<!-- Node31&#45;&gt;Node32 -->
<g id="edge49" class="edge"><title>Node31&#45;&gt;Node32</title>
<path fill="none" stroke="midnightblue" d="M1478.04,-279.092C1399.14,-268.801 1277.1,-252.882 1203.26,-243.251"/>
<polygon fill="midnightblue" stroke="midnightblue" points="1478.03,-282.621 1488.4,-280.444 1478.94,-275.679 1478.03,-282.621"/>
</g>
<!-- Node33&#45;&gt;Node8 -->
<g id="edge69" class="edge"><title>Node33&#45;&gt;Node8</title>
<path fill="none" stroke="midnightblue" d="M949.52,-219.446C991.037,-196.497 1074.01,-150.631 1108.46,-131.591"/>
<polygon fill="midnightblue" stroke="midnightblue" points="947.674,-216.468 940.615,-224.368 951.06,-222.594 947.674,-216.468"/>
</g>
<!-- Node33&#45;&gt;Node18 -->
<g id="edge70" class="edge"><title>Node33&#45;&gt;Node18</title>
<path fill="none" stroke="midnightblue" d="M992.733,-228.614C1016.53,-227.106 1043.45,-225.436 1068,-224 1215.96,-215.345 1590.92,-226.666 1734,-188 1752.81,-182.918 1754.3,-173.441 1773,-168 1939.72,-119.506 1989.3,-149.952 2162,-132 2164.98,-131.69 2168.03,-131.367 2171.11,-131.035"/>
<polygon fill="midnightblue" stroke="midnightblue" points="992.501,-225.121 982.743,-229.249 992.945,-232.107 992.501,-225.121"/>
</g>
<!-- Node33&#45;&gt;Node20 -->
<g id="edge71" class="edge"><title>Node33&#45;&gt;Node20</title>
<path fill="none" stroke="midnightblue" d="M857.161,-223.46C784.755,-213.278 671.1,-197.295 601.598,-187.522"/>
<polygon fill="midnightblue" stroke="midnightblue" points="856.706,-226.93 867.096,-224.857 857.68,-219.999 856.706,-226.93"/>
</g>
<!-- Node33&#45;&gt;Node34 -->
<g id="edge57" class="edge"><title>Node33&#45;&gt;Node34</title>
<path fill="none" stroke="midnightblue" d="M876.677,-222.217C830.949,-212.013 763.221,-196.901 721.166,-187.516"/>
<polygon fill="midnightblue" stroke="midnightblue" points="876.132,-225.682 886.654,-224.444 877.657,-218.85 876.132,-225.682"/>
</g>
<!-- Node34&#45;&gt;Node5 -->
<g id="edge61" class="edge"><title>Node34&#45;&gt;Node5</title>
<path fill="none" stroke="midnightblue" d="M698.034,-160.431C706.622,-150.967 717.043,-139.483 724.059,-131.751"/>
<polygon fill="midnightblue" stroke="midnightblue" points="695.219,-158.325 691.091,-168.083 700.403,-163.029 695.219,-158.325"/>
</g>
<!-- Node34&#45;&gt;Node7 -->
<g id="edge64" class="edge"><title>Node34&#45;&gt;Node7</title>
<path fill="none" stroke="midnightblue" d="M721.531,-165.568C755.864,-155.381 805.333,-140.703 836.296,-131.516"/>
<polygon fill="midnightblue" stroke="midnightblue" points="720.43,-162.244 711.838,-168.444 722.421,-168.954 720.43,-162.244"/>
</g>
<!-- Node34&#45;&gt;Node10 -->
<g id="edge65" class="edge"><title>Node34&#45;&gt;Node10</title>
<path fill="none" stroke="midnightblue" d="M742.352,-166.727C801.311,-156.523 890.663,-141.058 945.794,-131.516"/>
<polygon fill="midnightblue" stroke="midnightblue" points="741.694,-163.289 732.437,-168.444 742.888,-170.187 741.694,-163.289"/>
</g>
<!-- Node34&#45;&gt;Node14 -->
<g id="edge67" class="edge"><title>Node34&#45;&gt;Node14</title>
<path fill="none" stroke="midnightblue" d="M669.674,-160.028C659.961,-145.498 650.494,-124.933 663,-112 707.852,-65.6203 1678.32,-65.7963 1940.96,-66.6986"/>
<polygon fill="midnightblue" stroke="midnightblue" points="666.866,-162.118 675.56,-168.173 672.54,-158.018 666.866,-162.118"/>
</g>
<!-- Node34&#45;&gt;Node15 -->
<g id="edge68" class="edge"><title>Node34&#45;&gt;Node15</title>
<path fill="none" stroke="midnightblue" d="M618.289,-166.723C572.127,-158.432 514.852,-145.894 495,-132 474.381,-117.569 461.025,-89.7952 455.262,-75.6852"/>
<polygon fill="midnightblue" stroke="midnightblue" points="617.796,-170.19 628.252,-168.478 619.011,-163.296 617.796,-170.19"/>
</g>
<!-- Node34&#45;&gt;Node21 -->
<g id="edge66" class="edge"><title>Node34&#45;&gt;Node21</title>
<path fill="none" stroke="midnightblue" d="M613.703,-167.911C419.098,-147.414 367.802,-154.126 177,-132 174.07,-131.66 171.064,-131.287 168.032,-130.892"/>
<polygon fill="midnightblue" stroke="midnightblue" points="613.368,-171.396 623.683,-168.973 614.109,-164.435 613.368,-171.396"/>
</g>
<!-- Node35 -->
<g id="node35" class="node"><title>Node35</title>
<g id="a_node35"><a xlink:href="Text_8h.html" target="_top" xlink:title="Engine/include/Text.h">
<polygon fill="white" stroke="black" points="504.5,-112.5 504.5,-131.5 615.5,-131.5 615.5,-112.5 504.5,-112.5"/>
<text text-anchor="middle" x="560" y="-119.5" font-family="Helvetica,sans-Serif" font-size="10.00">Engine/include/Text.h</text>
</a>
</g>
</g>
<!-- Node34&#45;&gt;Node35 -->
<g id="edge58" class="edge"><title>Node34&#45;&gt;Node35</title>
<path fill="none" stroke="midnightblue" d="M654.227,-164.368C631.193,-154.255 599.516,-140.349 579.399,-131.516"/>
<polygon fill="midnightblue" stroke="midnightblue" points="652.947,-167.628 663.51,-168.444 655.761,-161.219 652.947,-167.628"/>
</g>
<!-- Node37 -->
<g id="node37" class="node"><title>Node37</title>
<g id="a_node37"><a xlink:href="Game_8cpp.html" target="_top" xlink:title="Engine/src/Game.cpp">
<polygon fill="white" stroke="black" points="336.5,-112.5 336.5,-131.5 447.5,-131.5 447.5,-112.5 336.5,-112.5"/>
<text text-anchor="middle" x="392" y="-119.5" font-family="Helvetica,sans-Serif" font-size="10.00">Engine/src/Game.cpp</text>
</a>
</g>
</g>
<!-- Node34&#45;&gt;Node37 -->
<g id="edge62" class="edge"><title>Node34&#45;&gt;Node37</title>
<path fill="none" stroke="midnightblue" d="M626.959,-166.601C571.964,-156.395 489.102,-141.019 437.894,-131.516"/>
<polygon fill="midnightblue" stroke="midnightblue" points="626.419,-170.06 636.89,-168.444 627.697,-163.178 626.419,-170.06"/>
</g>
<!-- Node38 -->
<g id="node38" class="node"><title>Node38</title>
<g id="a_node38"><a xlink:href="Resources_8cpp.html" target="_top" xlink:title="Engine/src/Resources.cpp">
<polygon fill="white" stroke="black" points="186,-112.5 186,-131.5 318,-131.5 318,-112.5 186,-112.5"/>
<text text-anchor="middle" x="252" y="-119.5" font-family="Helvetica,sans-Serif" font-size="10.00">Engine/src/Resources.cpp</text>
</a>
</g>
</g>
<!-- Node34&#45;&gt;Node38 -->
<g id="edge63" class="edge"><title>Node34&#45;&gt;Node38</title>
<path fill="none" stroke="midnightblue" d="M613.448,-167.809C504.142,-153.831 388.843,-139.658 318.26,-131.048"/>
<polygon fill="midnightblue" stroke="midnightblue" points="613.302,-171.319 623.666,-169.118 614.191,-164.376 613.302,-171.319"/>
</g>
<!-- Node35&#45;&gt;Node19 -->
<g id="edge60" class="edge"><title>Node35&#45;&gt;Node19</title>
<path fill="none" stroke="midnightblue" d="M625.787,-114.599C638.141,-113.583 650.957,-112.653 663,-112 1419.39,-71.0085 1611.41,-129.794 2367,-76 2370.23,-75.7702 2373.53,-75.4995 2376.86,-75.198"/>
<polygon fill="midnightblue" stroke="midnightblue" points="625.213,-111.135 615.546,-115.47 625.806,-118.11 625.213,-111.135"/>
</g>
<!-- Node36 -->
<g id="node36" class="node"><title>Node36</title>
<g id="a_node36"><a xlink:href="Text_8cpp.html" target="_top" xlink:title="Engine/src/Text.cpp">
<polygon fill="white" stroke="black" points="532,-56.5 532,-75.5 636,-75.5 636,-56.5 532,-56.5"/>
<text text-anchor="middle" x="584" y="-63.5" font-family="Helvetica,sans-Serif" font-size="10.00">Engine/src/Text.cpp</text>
</a>
</g>
</g>
<!-- Node35&#45;&gt;Node36 -->
<g id="edge59" class="edge"><title>Node35&#45;&gt;Node36</title>
<path fill="none" stroke="midnightblue" d="M568.138,-102.69C572.183,-93.589 576.883,-83.0141 580.111,-75.7511"/>
<polygon fill="midnightblue" stroke="midnightblue" points="564.826,-101.523 563.963,-112.083 571.223,-104.366 564.826,-101.523"/>
</g>
<!-- Node39&#45;&gt;Node18 -->
<g id="edge76" class="edge"><title>Node39&#45;&gt;Node18</title>
<path fill="none" stroke="midnightblue" d="M2453.03,-166.41C2402.95,-156.204 2328.14,-140.96 2281.79,-131.516"/>
<polygon fill="midnightblue" stroke="midnightblue" points="2452.51,-169.876 2463.01,-168.444 2453.91,-163.017 2452.51,-169.876"/>
</g>
<!-- Node39&#45;&gt;Node19 -->
<g id="edge75" class="edge"><title>Node39&#45;&gt;Node19</title>
<path fill="none" stroke="midnightblue" d="M2534.18,-163.698C2557.14,-151.332 2583.08,-131.876 2569,-112 2554.29,-91.2414 2529.21,-79.9888 2505.13,-73.9161"/>
<polygon fill="midnightblue" stroke="midnightblue" points="2532.3,-160.73 2524.98,-168.388 2535.48,-166.967 2532.3,-160.73"/>
</g>
<!-- Node40 -->
<g id="node40" class="node"><title>Node40</title>
<g id="a_node40"><a xlink:href="Music_8cpp.html" target="_top" xlink:title="Engine/src/Music.cpp">
<polygon fill="white" stroke="black" points="2621.5,-112.5 2621.5,-131.5 2732.5,-131.5 2732.5,-112.5 2621.5,-112.5"/>
<text text-anchor="middle" x="2677" y="-119.5" font-family="Helvetica,sans-Serif" font-size="10.00">Engine/src/Music.cpp</text>
</a>
</g>
</g>
<!-- Node39&#45;&gt;Node40 -->
<g id="edge74" class="edge"><title>Node39&#45;&gt;Node40</title>
<path fill="none" stroke="midnightblue" d="M2541.83,-165.436C2574.26,-155.255 2620.74,-140.664 2649.87,-131.516"/>
<polygon fill="midnightblue" stroke="midnightblue" points="2540.75,-162.109 2532.25,-168.444 2542.84,-168.787 2540.75,-162.109"/>
</g>
</g>
</svg>
