<?xml version="1.0" encoding="UTF-8" standalone="no"?>
<!DOCTYPE svg PUBLIC "-//W3C//DTD SVG 1.1//EN"
 "http://www.w3.org/Graphics/SVG/1.1/DTD/svg11.dtd">
<!-- Generated by graphviz version 2.36.0 (20140111.2315)
 -->
<!-- Title: Game/src/main.cpp Pages: 1 -->
<svg width="795pt" height="364pt"
 viewBox="0.00 0.00 795.00 364.00" xmlns="http://www.w3.org/2000/svg" xmlns:xlink="http://www.w3.org/1999/xlink">
<g id="graph0" class="graph" transform="scale(1 1) rotate(0) translate(4 360)">
<title>Game/src/main.cpp</title>
<polygon fill="white" stroke="none" points="-4,4 -4,-360 791,-360 791,4 -4,4"/>
<!-- Node1 -->
<g id="node1" class="node"><title>Node1</title>
<polygon fill="#bfbfbf" stroke="black" points="168,-336.5 168,-355.5 270,-355.5 270,-336.5 168,-336.5"/>
<text text-anchor="middle" x="219" y="-343.5" font-family="Helvetica,sans-Serif" font-size="10.00">Game/src/main.cpp</text>
</g>
<!-- Node2 -->
<g id="node2" class="node"><title>Node2</title>
<polygon fill="white" stroke="#bfbfbf" points="113,-280.5 113,-299.5 167,-299.5 167,-280.5 113,-280.5"/>
<text text-anchor="middle" x="140" y="-287.5" font-family="Helvetica,sans-Serif" font-size="10.00">iostream</text>
</g>
<!-- Node1&#45;&gt;Node2 -->
<g id="edge1" class="edge"><title>Node1&#45;&gt;Node2</title>
<path fill="none" stroke="midnightblue" d="M206.307,-336.324C194.099,-327.979 175.422,-315.212 160.997,-305.352"/>
<polygon fill="midnightblue" stroke="midnightblue" points="162.892,-302.408 152.661,-299.655 158.942,-308.187 162.892,-302.408"/>
</g>
<!-- Node3 -->
<g id="node3" class="node"><title>Node3</title>
<g id="a_node3"><a xlink:href="Game_8h.html" target="_top" xlink:title="Game.h">
<polygon fill="white" stroke="black" points="307.5,-280.5 307.5,-299.5 358.5,-299.5 358.5,-280.5 307.5,-280.5"/>
<text text-anchor="middle" x="333" y="-287.5" font-family="Helvetica,sans-Serif" font-size="10.00">Game.h</text>
</a>
</g>
</g>
<!-- Node1&#45;&gt;Node3 -->
<g id="edge2" class="edge"><title>Node1&#45;&gt;Node3</title>
<path fill="none" stroke="midnightblue" d="M237.064,-336.444C255.575,-327.675 284.581,-313.935 305.855,-303.858"/>
<polygon fill="midnightblue" stroke="midnightblue" points="307.482,-306.96 315.021,-299.516 304.485,-300.634 307.482,-306.96"/>
</g>
<!-- Node20 -->
<g id="node20" class="node"><title>Node20</title>
<g id="a_node20"><a xlink:href="TitleState_8h.html" target="_top" xlink:title="TitleState.h">
<polygon fill="white" stroke="black" points="185.5,-280.5 185.5,-299.5 252.5,-299.5 252.5,-280.5 185.5,-280.5"/>
<text text-anchor="middle" x="219" y="-287.5" font-family="Helvetica,sans-Serif" font-size="10.00">TitleState.h</text>
</a>
</g>
</g>
<!-- Node1&#45;&gt;Node20 -->
<g id="edge35" class="edge"><title>Node1&#45;&gt;Node20</title>
<path fill="none" stroke="midnightblue" d="M219,-336.083C219,-329.006 219,-318.861 219,-309.986"/>
<polygon fill="midnightblue" stroke="midnightblue" points="222.5,-309.751 219,-299.751 215.5,-309.751 222.5,-309.751"/>
</g>
<!-- Node4 -->
<g id="node4" class="node"><title>Node4</title>
<polygon fill="white" stroke="#bfbfbf" points="486.5,-112.5 486.5,-131.5 527.5,-131.5 527.5,-112.5 486.5,-112.5"/>
<text text-anchor="middle" x="507" y="-119.5" font-family="Helvetica,sans-Serif" font-size="10.00">string</text>
</g>
<!-- Node3&#45;&gt;Node4 -->
<g id="edge3" class="edge"><title>Node3&#45;&gt;Node4</title>
<path fill="none" stroke="midnightblue" d="M358.504,-280.642C378.232,-273.264 405.399,-261.021 425,-244 459.354,-214.168 485.81,-166.769 498.579,-141.044"/>
<polygon fill="midnightblue" stroke="midnightblue" points="501.871,-142.275 503.063,-131.748 495.566,-139.235 501.871,-142.275"/>
</g>
<!-- Node5 -->
<g id="node5" class="node"><title>Node5</title>
<polygon fill="white" stroke="#bfbfbf" points="375.5,-224.5 375.5,-243.5 416.5,-243.5 416.5,-224.5 375.5,-224.5"/>
<text text-anchor="middle" x="396" y="-231.5" font-family="Helvetica,sans-Serif" font-size="10.00">stack</text>
</g>
<!-- Node3&#45;&gt;Node5 -->
<g id="edge4" class="edge"><title>Node3&#45;&gt;Node5</title>
<path fill="none" stroke="midnightblue" d="M343.122,-280.324C352.526,-272.263 366.744,-260.077 378.069,-250.369"/>
<polygon fill="midnightblue" stroke="midnightblue" points="380.379,-252.999 385.694,-243.834 375.823,-247.684 380.379,-252.999"/>
</g>
<!-- Node6 -->
<g id="node6" class="node"><title>Node6</title>
<g id="a_node6"><a xlink:href="State_8h.html" target="_top" xlink:title="State.h">
<polygon fill="white" stroke="black" points="309,-224.5 309,-243.5 357,-243.5 357,-224.5 309,-224.5"/>
<text text-anchor="middle" x="333" y="-231.5" font-family="Helvetica,sans-Serif" font-size="10.00">State.h</text>
</a>
</g>
</g>
<!-- Node3&#45;&gt;Node6 -->
<g id="edge5" class="edge"><title>Node3&#45;&gt;Node6</title>
<path fill="none" stroke="midnightblue" d="M333,-280.083C333,-273.006 333,-262.861 333,-253.986"/>
<polygon fill="midnightblue" stroke="midnightblue" points="336.5,-253.751 333,-243.751 329.5,-253.751 336.5,-253.751"/>
</g>
<!-- Node9 -->
<g id="node9" class="node"><title>Node9</title>
<g id="a_node9"><a xlink:href="InputManager_8h.html" target="_top" xlink:title="InputManager.h">
<polygon fill="white" stroke="black" points="136,-112.5 136,-131.5 220,-131.5 220,-112.5 136,-112.5"/>
<text text-anchor="middle" x="178" y="-119.5" font-family="Helvetica,sans-Serif" font-size="10.00">InputManager.h</text>
</a>
</g>
</g>
<!-- Node3&#45;&gt;Node9 -->
<g id="edge32" class="edge"><title>Node3&#45;&gt;Node9</title>
<path fill="none" stroke="midnightblue" d="M307.37,-282.374C268.662,-270.772 196.949,-242.638 170,-188 162.777,-173.356 166.176,-154.687 170.552,-141.117"/>
<polygon fill="midnightblue" stroke="midnightblue" points="173.921,-142.095 174.087,-131.502 167.351,-139.68 173.921,-142.095"/>
</g>
<!-- Node10 -->
<g id="node10" class="node"><title>Node10</title>
<g id="a_node10"><a xlink:href="SDL__include_8h.html" target="_top" xlink:title="SDL_include.h">
<polygon fill="white" stroke="black" points="343,-0.5 343,-19.5 423,-19.5 423,-0.5 343,-0.5"/>
<text text-anchor="middle" x="383" y="-7.5" font-family="Helvetica,sans-Serif" font-size="10.00">SDL_include.h</text>
</a>
</g>
</g>
<!-- Node3&#45;&gt;Node10 -->
<g id="edge34" class="edge"><title>Node3&#45;&gt;Node10</title>
<path fill="none" stroke="midnightblue" d="M358.71,-288.336C454.751,-285.171 787,-267.804 787,-179 787,-179 787,-179 787,-121 787,-73.7946 746.495,-74.3451 703,-56 613.391,-18.2052 498.41,-10.9619 433.506,-10.2244"/>
<polygon fill="midnightblue" stroke="midnightblue" points="433.168,-6.72222 423.145,-10.1575 433.123,-13.7221 433.168,-6.72222"/>
</g>
<!-- Node11 -->
<g id="node11" class="node"><title>Node11</title>
<g id="a_node11"><a xlink:href="Vec2_8h.html" target="_top" xlink:title="Vec2.h">
<polygon fill="white" stroke="black" points="307.5,-56.5 307.5,-75.5 354.5,-75.5 354.5,-56.5 307.5,-56.5"/>
<text text-anchor="middle" x="331" y="-63.5" font-family="Helvetica,sans-Serif" font-size="10.00">Vec2.h</text>
</a>
</g>
</g>
<!-- Node3&#45;&gt;Node11 -->
<g id="edge33" class="edge"><title>Node3&#45;&gt;Node11</title>
<path fill="none" stroke="midnightblue" d="M325.18,-280.296C317.769,-271.645 306.791,-257.718 300,-244 276.979,-197.492 274.409,-183.362 267,-132 265.731,-123.202 262.903,-119.889 267,-112 274.153,-98.2262 287.671,-87.783 300.447,-80.4413"/>
<polygon fill="midnightblue" stroke="midnightblue" points="302.317,-83.412 309.517,-75.6403 299.042,-77.2252 302.317,-83.412"/>
</g>
<!-- Node7 -->
<g id="node7" class="node"><title>Node7</title>
<polygon fill="white" stroke="#bfbfbf" points="715,-112.5 715,-131.5 759,-131.5 759,-112.5 715,-112.5"/>
<text text-anchor="middle" x="737" y="-119.5" font-family="Helvetica,sans-Serif" font-size="10.00">vector</text>
</g>
<!-- Node6&#45;&gt;Node7 -->
<g id="edge6" class="edge"><title>Node6&#45;&gt;Node7</title>
<path fill="none" stroke="midnightblue" d="M357.071,-226.086C360.065,-225.33 363.095,-224.613 366,-224 471.108,-201.83 502.49,-220.108 605,-188 645.421,-175.34 688.858,-151.81 714.446,-136.803"/>
<polygon fill="midnightblue" stroke="midnightblue" points="716.535,-139.633 723.336,-131.509 712.953,-133.619 716.535,-139.633"/>
</g>
<!-- Node8 -->
<g id="node8" class="node"><title>Node8</title>
<polygon fill="white" stroke="#bfbfbf" points="276,-112.5 276,-131.5 328,-131.5 328,-112.5 276,-112.5"/>
<text text-anchor="middle" x="302" y="-119.5" font-family="Helvetica,sans-Serif" font-size="10.00">memory</text>
</g>
<!-- Node6&#45;&gt;Node8 -->
<g id="edge7" class="edge"><title>Node6&#45;&gt;Node8</title>
<path fill="none" stroke="midnightblue" d="M330.567,-224.368C325.542,-206.537 313.92,-165.295 307.149,-141.272"/>
<polygon fill="midnightblue" stroke="midnightblue" points="310.503,-140.267 304.421,-131.591 303.765,-142.166 310.503,-140.267"/>
</g>
<!-- Node6&#45;&gt;Node9 -->
<g id="edge8" class="edge"><title>Node6&#45;&gt;Node9</title>
<path fill="none" stroke="midnightblue" d="M320.837,-224.368C294.353,-205.573 231.219,-160.768 198.479,-137.533"/>
<polygon fill="midnightblue" stroke="midnightblue" points="200.287,-134.525 190.106,-131.591 196.236,-140.233 200.287,-134.525"/>
</g>
<!-- Node14 -->
<g id="node14" class="node"><title>Node14</title>
<g id="a_node14"><a xlink:href="Resources_8h.html" target="_top" xlink:title="Resources.h">
<polygon fill="white" stroke="black" points="361,-168.5 361,-187.5 433,-187.5 433,-168.5 361,-168.5"/>
<text text-anchor="middle" x="397" y="-175.5" font-family="Helvetica,sans-Serif" font-size="10.00">Resources.h</text>
</a>
</g>
</g>
<!-- Node6&#45;&gt;Node14 -->
<g id="edge14" class="edge"><title>Node6&#45;&gt;Node14</title>
<path fill="none" stroke="midnightblue" d="M343.283,-224.324C352.836,-216.263 367.28,-204.077 378.784,-194.369"/>
<polygon fill="midnightblue" stroke="midnightblue" points="381.144,-196.958 386.53,-187.834 376.63,-191.608 381.144,-196.958"/>
</g>
<!-- Node15 -->
<g id="node15" class="node"><title>Node15</title>
<g id="a_node15"><a xlink:href="GameObject_8h.html" target="_top" xlink:title="GameObject.h">
<polygon fill="white" stroke="black" points="516,-168.5 516,-187.5 596,-187.5 596,-168.5 516,-168.5"/>
<text text-anchor="middle" x="556" y="-175.5" font-family="Helvetica,sans-Serif" font-size="10.00">GameObject.h</text>
</a>
</g>
</g>
<!-- Node6&#45;&gt;Node15 -->
<g id="edge19" class="edge"><title>Node6&#45;&gt;Node15</title>
<path fill="none" stroke="midnightblue" d="M357.126,-226.32C360.11,-225.523 363.123,-224.733 366,-224 414.399,-211.672 470.022,-198.629 508.522,-189.777"/>
<polygon fill="midnightblue" stroke="midnightblue" points="509.451,-193.155 518.416,-187.508 507.887,-186.332 509.451,-193.155"/>
</g>
<!-- Node9&#45;&gt;Node10 -->
<g id="edge9" class="edge"><title>Node9&#45;&gt;Node10</title>
<path fill="none" stroke="midnightblue" d="M177.936,-112.464C178.317,-98.5683 181.178,-71.0953 197,-56 216.3,-37.5867 284.57,-24.5678 332.783,-17.4207"/>
<polygon fill="midnightblue" stroke="midnightblue" points="333.343,-20.8762 342.742,-15.9849 332.344,-13.9478 333.343,-20.8762"/>
</g>
<!-- Node9&#45;&gt;Node11 -->
<g id="edge10" class="edge"><title>Node9&#45;&gt;Node11</title>
<path fill="none" stroke="midnightblue" d="M202.243,-112.444C228.021,-103.345 268.964,-88.8952 297.745,-78.7372"/>
<polygon fill="midnightblue" stroke="midnightblue" points="299.108,-81.9677 307.373,-75.339 296.778,-75.3668 299.108,-81.9677"/>
</g>
<!-- Node12 -->
<g id="node12" class="node"><title>Node12</title>
<polygon fill="white" stroke="#bfbfbf" points="206.5,-56.5 206.5,-75.5 289.5,-75.5 289.5,-56.5 206.5,-56.5"/>
<text text-anchor="middle" x="248" y="-63.5" font-family="Helvetica,sans-Serif" font-size="10.00">unordered_map</text>
</g>
<!-- Node9&#45;&gt;Node12 -->
<g id="edge12" class="edge"><title>Node9&#45;&gt;Node12</title>
<path fill="none" stroke="midnightblue" d="M189.247,-112.324C199.797,-104.185 215.801,-91.8395 228.442,-82.0874"/>
<polygon fill="midnightblue" stroke="midnightblue" points="230.769,-84.7132 236.549,-75.8339 226.493,-79.1707 230.769,-84.7132"/>
</g>
<!-- Node13 -->
<g id="node13" class="node"><title>Node13</title>
<polygon fill="white" stroke="#bfbfbf" points="104,-56.5 104,-75.5 150,-75.5 150,-56.5 104,-56.5"/>
<text text-anchor="middle" x="127" y="-63.5" font-family="Helvetica,sans-Serif" font-size="10.00">cstdint</text>
</g>
<!-- Node9&#45;&gt;Node13 -->
<g id="edge13" class="edge"><title>Node9&#45;&gt;Node13</title>
<path fill="none" stroke="midnightblue" d="M169.578,-112.083C162.152,-104.22 151.148,-92.5688 142.188,-83.0813"/>
<polygon fill="midnightblue" stroke="midnightblue" points="144.676,-80.618 135.265,-75.7511 139.587,-85.4244 144.676,-80.618"/>
</g>
<!-- Node11&#45;&gt;Node10 -->
<g id="edge11" class="edge"><title>Node11&#45;&gt;Node10</title>
<path fill="none" stroke="midnightblue" d="M339.587,-56.083C347.159,-48.2195 358.378,-36.5688 367.514,-27.0813"/>
<polygon fill="midnightblue" stroke="midnightblue" points="370.158,-29.3821 374.573,-19.7511 365.115,-24.5266 370.158,-29.3821"/>
</g>
<!-- Node14&#45;&gt;Node4 -->
<g id="edge16" class="edge"><title>Node14&#45;&gt;Node4</title>
<path fill="none" stroke="midnightblue" d="M414.673,-168.324C432.394,-159.625 459.903,-146.12 480.288,-136.113"/>
<polygon fill="midnightblue" stroke="midnightblue" points="481.936,-139.203 489.37,-131.655 478.851,-132.919 481.936,-139.203"/>
</g>
<!-- Node14&#45;&gt;Node8 -->
<g id="edge18" class="edge"><title>Node14&#45;&gt;Node8</title>
<path fill="none" stroke="midnightblue" d="M381.737,-168.324C366.779,-159.822 343.745,-146.729 326.273,-136.797"/>
<polygon fill="midnightblue" stroke="midnightblue" points="327.649,-133.553 317.226,-131.655 324.19,-139.639 327.649,-133.553"/>
</g>
<!-- Node14&#45;&gt;Node10 -->
<g id="edge15" class="edge"><title>Node14&#45;&gt;Node10</title>
<path fill="none" stroke="midnightblue" d="M408.193,-168.394C432.746,-148.433 487.281,-97.5176 463,-56 454.139,-40.8495 438.095,-30.406 422.688,-23.4236"/>
<polygon fill="midnightblue" stroke="midnightblue" points="423.825,-20.1064 413.247,-19.5122 421.146,-26.5733 423.825,-20.1064"/>
</g>
<!-- Node14&#45;&gt;Node12 -->
<g id="edge17" class="edge"><title>Node14&#45;&gt;Node12</title>
<path fill="none" stroke="midnightblue" d="M390.45,-168.068C380.221,-154.59 359.306,-128.843 337,-112 319.396,-98.7071 297.27,-87.4995 279.484,-79.5941"/>
<polygon fill="midnightblue" stroke="midnightblue" points="280.674,-76.2958 270.105,-75.5497 277.902,-82.7236 280.674,-76.2958"/>
</g>
<!-- Node15&#45;&gt;Node4 -->
<g id="edge23" class="edge"><title>Node15&#45;&gt;Node4</title>
<path fill="none" stroke="midnightblue" d="M547.909,-168.083C540.845,-160.298 530.412,-148.801 521.851,-139.367"/>
<polygon fill="midnightblue" stroke="midnightblue" points="524.253,-136.805 514.941,-131.751 519.069,-141.509 524.253,-136.805"/>
</g>
<!-- Node15&#45;&gt;Node7 -->
<g id="edge21" class="edge"><title>Node15&#45;&gt;Node7</title>
<path fill="none" stroke="midnightblue" d="M584.68,-168.444C617.382,-158.687 670.712,-142.776 704.81,-132.604"/>
<polygon fill="midnightblue" stroke="midnightblue" points="706.149,-135.857 714.731,-129.644 704.147,-129.149 706.149,-135.857"/>
</g>
<!-- Node15&#45;&gt;Node8 -->
<g id="edge22" class="edge"><title>Node15&#45;&gt;Node8</title>
<path fill="none" stroke="midnightblue" d="M515.753,-168.444C466.854,-158.048 385.088,-140.664 338.128,-130.681"/>
<polygon fill="midnightblue" stroke="midnightblue" points="338.609,-127.205 328.1,-128.549 337.153,-134.052 338.609,-127.205"/>
</g>
<!-- Node15&#45;&gt;Node10 -->
<g id="edge20" class="edge"><title>Node15&#45;&gt;Node10</title>
<path fill="none" stroke="midnightblue" d="M554.731,-168.461C552.517,-155.496 547.084,-130.409 536,-112 517.845,-81.8455 508.853,-76.1605 480,-56 460.473,-42.3556 436.15,-31.0834 416.746,-23.2334"/>
<polygon fill="midnightblue" stroke="midnightblue" points="417.966,-19.9524 407.379,-19.5528 415.406,-26.4675 417.966,-19.9524"/>
</g>
<!-- Node16 -->
<g id="node16" class="node"><title>Node16</title>
<g id="a_node16"><a xlink:href="Component_8h.html" target="_top" xlink:title="Component.h">
<polygon fill="white" stroke="black" points="622.5,-112.5 622.5,-131.5 697.5,-131.5 697.5,-112.5 622.5,-112.5"/>
<text text-anchor="middle" x="660" y="-119.5" font-family="Helvetica,sans-Serif" font-size="10.00">Component.h</text>
</a>
</g>
</g>
<!-- Node15&#45;&gt;Node16 -->
<g id="edge24" class="edge"><title>Node15&#45;&gt;Node16</title>
<path fill="none" stroke="midnightblue" d="M567.595,-168.324C582.533,-159.585 608.451,-145.998 629.141,-135.977"/>
<polygon fill="midnightblue" stroke="midnightblue" points="630.697,-139.113 638.222,-131.655 627.688,-132.793 630.697,-139.113"/>
</g>
<!-- Node17 -->
<g id="node17" class="node"><title>Node17</title>
<g id="a_node17"><a xlink:href="ComponentType_8h.html" target="_top" xlink:title="ComponentType.h">
<polygon fill="white" stroke="black" points="597.5,-56.5 597.5,-75.5 694.5,-75.5 694.5,-56.5 597.5,-56.5"/>
<text text-anchor="middle" x="646" y="-63.5" font-family="Helvetica,sans-Serif" font-size="10.00">ComponentType.h</text>
</a>
</g>
</g>
<!-- Node15&#45;&gt;Node17 -->
<g id="edge27" class="edge"><title>Node15&#45;&gt;Node17</title>
<path fill="none" stroke="midnightblue" d="M563.062,-168.368C578.046,-150.055 613.233,-107.049 632.613,-83.3624"/>
<polygon fill="midnightblue" stroke="midnightblue" points="635.347,-85.5474 638.971,-75.5914 629.929,-81.1147 635.347,-85.5474"/>
</g>
<!-- Node18 -->
<g id="node18" class="node"><title>Node18</title>
<g id="a_node18"><a xlink:href="Rect_8h.html" target="_top" xlink:title="Rect.h">
<polygon fill="white" stroke="black" points="384,-112.5 384,-131.5 430,-131.5 430,-112.5 384,-112.5"/>
<text text-anchor="middle" x="407" y="-119.5" font-family="Helvetica,sans-Serif" font-size="10.00">Rect.h</text>
</a>
</g>
</g>
<!-- Node15&#45;&gt;Node18 -->
<g id="edge28" class="edge"><title>Node15&#45;&gt;Node18</title>
<path fill="none" stroke="midnightblue" d="M532.391,-168.444C507.396,-159.385 467.763,-145.021 439.754,-134.871"/>
<polygon fill="midnightblue" stroke="midnightblue" points="440.604,-131.456 430.009,-131.339 438.218,-138.037 440.604,-131.456"/>
</g>
<!-- Node16&#45;&gt;Node15 -->
<g id="edge26" class="edge"><title>Node16&#45;&gt;Node15</title>
<path fill="none" stroke="midnightblue" d="M648.678,-131.516C633.748,-140.27 607.549,-154.007 586.707,-164.096"/>
<polygon fill="midnightblue" stroke="midnightblue" points="585.095,-160.987 577.568,-168.444 588.102,-167.308 585.095,-160.987"/>
</g>
<!-- Node16&#45;&gt;Node17 -->
<g id="edge25" class="edge"><title>Node16&#45;&gt;Node17</title>
<path fill="none" stroke="midnightblue" d="M657.688,-112.083C655.833,-104.927 653.165,-94.6353 650.846,-85.6911"/>
<polygon fill="midnightblue" stroke="midnightblue" points="654.166,-84.5527 648.269,-75.7511 647.391,-86.3094 654.166,-84.5527"/>
</g>
<!-- Node18&#45;&gt;Node10 -->
<g id="edge29" class="edge"><title>Node18&#45;&gt;Node10</title>
<path fill="none" stroke="midnightblue" d="M405.117,-112.368C401.244,-94.617 392.309,-53.6664 387.058,-29.5974"/>
<polygon fill="midnightblue" stroke="midnightblue" points="390.426,-28.6155 384.874,-19.5914 383.587,-30.1077 390.426,-28.6155"/>
</g>
<!-- Node18&#45;&gt;Node11 -->
<g id="edge30" class="edge"><title>Node18&#45;&gt;Node11</title>
<path fill="none" stroke="midnightblue" d="M394.789,-112.324C383.224,-104.107 365.625,-91.6017 351.839,-81.8069"/>
<polygon fill="midnightblue" stroke="midnightblue" points="353.612,-78.7729 343.433,-75.8339 349.557,-84.4791 353.612,-78.7729"/>
</g>
<!-- Node19 -->
<g id="node19" class="node"><title>Node19</title>
<polygon fill="white" stroke="#bfbfbf" points="411,-56.5 411,-75.5 455,-75.5 455,-56.5 411,-56.5"/>
<text text-anchor="middle" x="433" y="-63.5" font-family="Helvetica,sans-Serif" font-size="10.00">cmath</text>
</g>
<!-- Node18&#45;&gt;Node19 -->
<g id="edge31" class="edge"><title>Node18&#45;&gt;Node19</title>
<path fill="none" stroke="midnightblue" d="M411.293,-112.083C414.852,-104.691 420.022,-93.9533 424.424,-84.8111"/>
<polygon fill="midnightblue" stroke="midnightblue" points="427.602,-86.2795 428.787,-75.7511 421.295,-83.2427 427.602,-86.2795"/>
</g>
<!-- Node20&#45;&gt;Node6 -->
<g id="edge45" class="edge"><title>Node20&#45;&gt;Node6</title>
<path fill="none" stroke="midnightblue" d="M237.064,-280.444C255.575,-271.675 284.581,-257.935 305.855,-247.858"/>
<polygon fill="midnightblue" stroke="midnightblue" points="307.482,-250.96 315.021,-243.516 304.485,-244.634 307.482,-250.96"/>
</g>
<!-- Node21 -->
<g id="node21" class="node"><title>Node21</title>
<g id="a_node21"><a xlink:href="ActionManager_8h.html" target="_top" xlink:title="ActionManager.h">
<polygon fill="white" stroke="black" points="63,-224.5 63,-243.5 153,-243.5 153,-224.5 63,-224.5"/>
<text text-anchor="middle" x="108" y="-231.5" font-family="Helvetica,sans-Serif" font-size="10.00">ActionManager.h</text>
</a>
</g>
</g>
<!-- Node20&#45;&gt;Node21 -->
<g id="edge36" class="edge"><title>Node20&#45;&gt;Node21</title>
<path fill="none" stroke="midnightblue" d="M201.166,-280.324C183.284,-271.625 155.525,-258.12 134.954,-248.113"/>
<polygon fill="midnightblue" stroke="midnightblue" points="136.313,-244.882 125.79,-243.655 133.251,-251.177 136.313,-244.882"/>
</g>
<!-- Node22 -->
<g id="node22" class="node"><title>Node22</title>
<g id="a_node22"><a xlink:href="Sprite_8h.html" target="_top" xlink:title="Sprite.h">
<polygon fill="white" stroke="black" points="179,-168.5 179,-187.5 229,-187.5 229,-168.5 179,-168.5"/>
<text text-anchor="middle" x="204" y="-175.5" font-family="Helvetica,sans-Serif" font-size="10.00">Sprite.h</text>
</a>
</g>
</g>
<!-- Node20&#45;&gt;Node22 -->
<g id="edge38" class="edge"><title>Node20&#45;&gt;Node22</title>
<path fill="none" stroke="midnightblue" d="M217.823,-280.368C215.402,-262.617 209.818,-221.666 206.536,-197.597"/>
<polygon fill="midnightblue" stroke="midnightblue" points="209.991,-197.027 205.172,-187.591 203.055,-197.973 209.991,-197.027"/>
</g>
<!-- Node21&#45;&gt;Node9 -->
<g id="edge37" class="edge"><title>Node21&#45;&gt;Node9</title>
<path fill="none" stroke="midnightblue" d="M110.931,-224.137C115.433,-211.187 124.824,-186.614 137,-168 143.927,-157.41 153.344,-146.882 161.405,-138.675"/>
<polygon fill="midnightblue" stroke="midnightblue" points="163.928,-141.103 168.594,-131.591 159.015,-136.117 163.928,-141.103"/>
</g>
<!-- Node22&#45;&gt;Node4 -->
<g id="edge40" class="edge"><title>Node22&#45;&gt;Node4</title>
<path fill="none" stroke="midnightblue" d="M229.054,-172.535C284.295,-162.69 416.409,-139.145 476.415,-128.451"/>
<polygon fill="midnightblue" stroke="midnightblue" points="477.181,-131.87 486.411,-126.669 475.952,-124.978 477.181,-131.87"/>
</g>
<!-- Node22&#45;&gt;Node8 -->
<g id="edge41" class="edge"><title>Node22&#45;&gt;Node8</title>
<path fill="none" stroke="midnightblue" d="M219.745,-168.324C235.319,-159.743 259.377,-146.486 277.459,-136.522"/>
<polygon fill="midnightblue" stroke="midnightblue" points="279.224,-139.546 286.294,-131.655 275.846,-133.415 279.224,-139.546"/>
</g>
<!-- Node22&#45;&gt;Node9 -->
<g id="edge44" class="edge"><title>Node22&#45;&gt;Node9</title>
<path fill="none" stroke="midnightblue" d="M199.707,-168.083C196.148,-160.691 190.978,-149.953 186.576,-140.811"/>
<polygon fill="midnightblue" stroke="midnightblue" points="189.705,-139.243 182.213,-131.751 183.398,-142.279 189.705,-139.243"/>
</g>
<!-- Node22&#45;&gt;Node10 -->
<g id="edge39" class="edge"><title>Node22&#45;&gt;Node10</title>
<path fill="none" stroke="midnightblue" d="M185.655,-168.477C145.879,-148.896 58.1389,-99.0679 95,-56 125.014,-20.9322 258.49,-12.9919 332.739,-11.3245"/>
<polygon fill="midnightblue" stroke="midnightblue" points="332.876,-14.8226 342.806,-11.1287 332.739,-7.82396 332.876,-14.8226"/>
</g>
<!-- Node22&#45;&gt;Node18 -->
<g id="edge43" class="edge"><title>Node22&#45;&gt;Node18</title>
<path fill="none" stroke="midnightblue" d="M229.3,-170.27C265.867,-160.543 333.53,-142.544 373.986,-131.782"/>
<polygon fill="midnightblue" stroke="midnightblue" points="375.13,-135.1 383.894,-129.146 373.33,-128.335 375.13,-135.1"/>
</g>
<!-- Node23 -->
<g id="node23" class="node"><title>Node23</title>
<g id="a_node23"><a xlink:href="Color_8h.html" target="_top" xlink:title="Color.h">
<polygon fill="white" stroke="black" points="0,-112.5 0,-131.5 48,-131.5 48,-112.5 0,-112.5"/>
<text text-anchor="middle" x="24" y="-119.5" font-family="Helvetica,sans-Serif" font-size="10.00">Color.h</text>
</a>
</g>
</g>
<!-- Node22&#45;&gt;Node23 -->
<g id="edge42" class="edge"><title>Node22&#45;&gt;Node23</title>
<path fill="none" stroke="midnightblue" d="M178.972,-169.492C147.496,-160.049 93.3186,-143.796 58.0817,-133.225"/>
<polygon fill="midnightblue" stroke="midnightblue" points="58.8245,-129.793 48.2405,-130.272 56.8131,-136.498 58.8245,-129.793"/>
</g>
</g>
</svg>
