<?xml version="1.0" encoding="UTF-8" standalone="no"?>
<!DOCTYPE svg PUBLIC "-//W3C//DTD SVG 1.1//EN"
 "http://www.w3.org/Graphics/SVG/1.1/DTD/svg11.dtd">
<!-- Generated by graphviz version 2.38.0 (20140413.2041)
 -->
<!-- Title: Game/src/main.cpp Pages: 1 -->
<svg width="1339pt" height="476pt"
 viewBox="0.00 0.00 1338.72 476.00" xmlns="http://www.w3.org/2000/svg" xmlns:xlink="http://www.w3.org/1999/xlink">
<g id="graph0" class="graph" transform="scale(1 1) rotate(0) translate(4 472)">
<title>Game/src/main.cpp</title>
<polygon fill="white" stroke="none" points="-4,4 -4,-472 1334.72,-472 1334.72,4 -4,4"/>
<!-- Node0 -->
<g id="node1" class="node"><title>Node0</title>
<polygon fill="#bfbfbf" stroke="black" points="577,-448.5 577,-467.5 679,-467.5 679,-448.5 577,-448.5"/>
<text text-anchor="middle" x="628" y="-455.5" font-family="Helvetica,sans-Serif" font-size="10.00">Game/src/main.cpp</text>
</g>
<!-- Node1 -->
<g id="node2" class="node"><title>Node1</title>
<polygon fill="white" stroke="#bfbfbf" points="522,-392.5 522,-411.5 576,-411.5 576,-392.5 522,-392.5"/>
<text text-anchor="middle" x="549" y="-399.5" font-family="Helvetica,sans-Serif" font-size="10.00">iostream</text>
</g>
<!-- Node0&#45;&gt;Node1 -->
<g id="edge1" class="edge"><title>Node0&#45;&gt;Node1</title>
<path fill="none" stroke="midnightblue" d="M615.307,-448.324C603.099,-439.979 584.422,-427.212 569.997,-417.352"/>
<polygon fill="midnightblue" stroke="midnightblue" points="571.892,-414.408 561.661,-411.655 567.942,-420.187 571.892,-414.408"/>
</g>
<!-- Node2 -->
<g id="node3" class="node"><title>Node2</title>
<g id="a_node3"><a xlink:href="Game_8h.html" target="_top" xlink:title="Game.h">
<polygon fill="white" stroke="black" points="1004.5,-280.5 1004.5,-299.5 1055.5,-299.5 1055.5,-280.5 1004.5,-280.5"/>
<text text-anchor="middle" x="1030" y="-287.5" font-family="Helvetica,sans-Serif" font-size="10.00">Game.h</text>
</a>
</g>
</g>
<!-- Node0&#45;&gt;Node2 -->
<g id="edge2" class="edge"><title>Node0&#45;&gt;Node2</title>
<path fill="none" stroke="midnightblue" d="M666.169,-448.494C726.138,-434.276 845.162,-402.579 938,-356 965.64,-342.132 994.235,-320.597 1012.06,-306.157"/>
<polygon fill="midnightblue" stroke="midnightblue" points="1014.4,-308.763 1019.89,-299.703 1009.95,-303.361 1014.4,-308.763"/>
</g>
<!-- Node19 -->
<g id="node20" class="node"><title>Node19</title>
<g id="a_node20"><a xlink:href="TitleState_8h.html" target="_top" xlink:title="TitleState.h">
<polygon fill="white" stroke="black" points="594.5,-392.5 594.5,-411.5 661.5,-411.5 661.5,-392.5 594.5,-392.5"/>
<text text-anchor="middle" x="628" y="-399.5" font-family="Helvetica,sans-Serif" font-size="10.00">TitleState.h</text>
</a>
</g>
</g>
<!-- Node0&#45;&gt;Node19 -->
<g id="edge35" class="edge"><title>Node0&#45;&gt;Node19</title>
<path fill="none" stroke="midnightblue" d="M628,-448.083C628,-441.006 628,-430.861 628,-421.986"/>
<polygon fill="midnightblue" stroke="midnightblue" points="631.5,-421.751 628,-411.751 624.5,-421.751 631.5,-421.751"/>
</g>
<!-- Node3 -->
<g id="node4" class="node"><title>Node3</title>
<polygon fill="white" stroke="#bfbfbf" points="621.5,-112.5 621.5,-131.5 662.5,-131.5 662.5,-112.5 621.5,-112.5"/>
<text text-anchor="middle" x="642" y="-119.5" font-family="Helvetica,sans-Serif" font-size="10.00">string</text>
</g>
<!-- Node2&#45;&gt;Node3 -->
<g id="edge3" class="edge"><title>Node2&#45;&gt;Node3</title>
<path fill="none" stroke="midnightblue" d="M1007.75,-280.497C963.876,-263.62 863.212,-224.371 780,-188 740.711,-170.827 695.918,-149.376 668.3,-135.928"/>
<polygon fill="midnightblue" stroke="midnightblue" points="669.806,-132.768 659.284,-131.525 666.734,-139.058 669.806,-132.768"/>
</g>
<!-- Node4 -->
<g id="node5" class="node"><title>Node4</title>
<polygon fill="white" stroke="#bfbfbf" points="1070.5,-224.5 1070.5,-243.5 1111.5,-243.5 1111.5,-224.5 1070.5,-224.5"/>
<text text-anchor="middle" x="1091" y="-231.5" font-family="Helvetica,sans-Serif" font-size="10.00">stack</text>
</g>
<!-- Node2&#45;&gt;Node4 -->
<g id="edge4" class="edge"><title>Node2&#45;&gt;Node4</title>
<path fill="none" stroke="midnightblue" d="M1039.8,-280.324C1048.82,-272.341 1062.41,-260.313 1073.32,-250.653"/>
<polygon fill="midnightblue" stroke="midnightblue" points="1075.85,-253.083 1081.02,-243.834 1071.21,-247.842 1075.85,-253.083"/>
</g>
<!-- Node5 -->
<g id="node6" class="node"><title>Node5</title>
<g id="a_node6"><a xlink:href="State_8h.html" target="_top" xlink:title="State.h">
<polygon fill="white" stroke="black" points="1004,-224.5 1004,-243.5 1052,-243.5 1052,-224.5 1004,-224.5"/>
<text text-anchor="middle" x="1028" y="-231.5" font-family="Helvetica,sans-Serif" font-size="10.00">State.h</text>
</a>
</g>
</g>
<!-- Node2&#45;&gt;Node5 -->
<g id="edge5" class="edge"><title>Node2&#45;&gt;Node5</title>
<path fill="none" stroke="midnightblue" d="M1029.67,-280.083C1029.41,-273.006 1029.03,-262.861 1028.7,-253.986"/>
<polygon fill="midnightblue" stroke="midnightblue" points="1032.19,-253.615 1028.32,-243.751 1025.2,-253.874 1032.19,-253.615"/>
</g>
<!-- Node8 -->
<g id="node9" class="node"><title>Node8</title>
<g id="a_node9"><a xlink:href="InputManager_8h.html" target="_top" xlink:title="InputManager.h">
<polygon fill="white" stroke="black" points="999,-112.5 999,-131.5 1083,-131.5 1083,-112.5 999,-112.5"/>
<text text-anchor="middle" x="1041" y="-119.5" font-family="Helvetica,sans-Serif" font-size="10.00">InputManager.h</text>
</a>
</g>
</g>
<!-- Node2&#45;&gt;Node8 -->
<g id="edge32" class="edge"><title>Node2&#45;&gt;Node8</title>
<path fill="none" stroke="midnightblue" d="M1055.85,-284.022C1077.43,-278.355 1106.87,-266.758 1121,-244 1145.29,-204.891 1094.09,-159.934 1062.83,-137.425"/>
<polygon fill="midnightblue" stroke="midnightblue" points="1064.83,-134.549 1054.62,-131.695 1060.82,-140.289 1064.83,-134.549"/>
</g>
<!-- Node9 -->
<g id="node10" class="node"><title>Node9</title>
<g id="a_node10"><a xlink:href="SDL__include_8h.html" target="_top" xlink:title="SDL_include.h">
<polygon fill="white" stroke="black" points="804,-0.5 804,-19.5 884,-19.5 884,-0.5 804,-0.5"/>
<text text-anchor="middle" x="844" y="-7.5" font-family="Helvetica,sans-Serif" font-size="10.00">SDL_include.h</text>
</a>
</g>
</g>
<!-- Node2&#45;&gt;Node9 -->
<g id="edge34" class="edge"><title>Node2&#45;&gt;Node9</title>
<path fill="none" stroke="midnightblue" d="M1055.6,-285.58C1136.06,-273.58 1375.49,-227.678 1323,-112 1307.38,-77.5817 1293.61,-71.1844 1259,-56 1194.73,-27.8034 990.143,-16.5138 894.363,-12.6886"/>
<polygon fill="midnightblue" stroke="midnightblue" points="894.466,-9.19009 884.338,-12.2997 894.195,-16.1848 894.466,-9.19009"/>
</g>
<!-- Node10 -->
<g id="node11" class="node"><title>Node10</title>
<g id="a_node11"><a xlink:href="Vec2_8h.html" target="_top" xlink:title="Vec2.h">
<polygon fill="white" stroke="black" points="445.5,-56.5 445.5,-75.5 492.5,-75.5 492.5,-56.5 445.5,-56.5"/>
<text text-anchor="middle" x="469" y="-63.5" font-family="Helvetica,sans-Serif" font-size="10.00">Vec2.h</text>
</a>
</g>
</g>
<!-- Node2&#45;&gt;Node10 -->
<g id="edge33" class="edge"><title>Node2&#45;&gt;Node10</title>
<path fill="none" stroke="midnightblue" d="M1013.76,-280.439C989.839,-267.865 943.657,-243.756 904,-224 801.156,-172.768 779.562,-149.627 671,-112 613.226,-91.9758 542.994,-78.6879 502.401,-72.0294"/>
<polygon fill="midnightblue" stroke="midnightblue" points="502.93,-68.5696 492.502,-70.4412 501.821,-75.4812 502.93,-68.5696"/>
</g>
<!-- Node6 -->
<g id="node7" class="node"><title>Node6</title>
<polygon fill="white" stroke="#bfbfbf" points="1270,-112.5 1270,-131.5 1314,-131.5 1314,-112.5 1270,-112.5"/>
<text text-anchor="middle" x="1292" y="-119.5" font-family="Helvetica,sans-Serif" font-size="10.00">vector</text>
</g>
<!-- Node5&#45;&gt;Node6 -->
<g id="edge6" class="edge"><title>Node5&#45;&gt;Node6</title>
<path fill="none" stroke="midnightblue" d="M1052.11,-226.452C1055.42,-225.6 1058.79,-224.76 1062,-224 1138,-206.001 1166.39,-227.097 1234,-188 1254.17,-176.338 1271.06,-155.178 1281.32,-140.172"/>
<polygon fill="midnightblue" stroke="midnightblue" points="1284.28,-142.048 1286.82,-131.763 1278.42,-138.215 1284.28,-142.048"/>
</g>
<!-- Node7 -->
<g id="node8" class="node"><title>Node7</title>
<polygon fill="white" stroke="#bfbfbf" points="929,-112.5 929,-131.5 981,-131.5 981,-112.5 929,-112.5"/>
<text text-anchor="middle" x="955" y="-119.5" font-family="Helvetica,sans-Serif" font-size="10.00">memory</text>
</g>
<!-- Node5&#45;&gt;Node7 -->
<g id="edge7" class="edge"><title>Node5&#45;&gt;Node7</title>
<path fill="none" stroke="midnightblue" d="M1022.27,-224.368C1010.22,-206.215 982.077,-163.802 966.275,-139.99"/>
<polygon fill="midnightblue" stroke="midnightblue" points="969.147,-137.988 960.702,-131.591 963.315,-141.859 969.147,-137.988"/>
</g>
<!-- Node5&#45;&gt;Node8 -->
<g id="edge8" class="edge"><title>Node5&#45;&gt;Node8</title>
<path fill="none" stroke="midnightblue" d="M1033.64,-224.481C1039.05,-215.745 1046.86,-201.556 1050,-188 1053.61,-172.392 1050.54,-154.318 1047.04,-141.196"/>
<polygon fill="midnightblue" stroke="midnightblue" points="1050.35,-140.076 1044.13,-131.502 1043.65,-142.086 1050.35,-140.076"/>
</g>
<!-- Node13 -->
<g id="node14" class="node"><title>Node13</title>
<g id="a_node14"><a xlink:href="Resources_8h.html" target="_top" xlink:title="Resources.h">
<polygon fill="white" stroke="black" points="860,-168.5 860,-187.5 932,-187.5 932,-168.5 860,-168.5"/>
<text text-anchor="middle" x="896" y="-175.5" font-family="Helvetica,sans-Serif" font-size="10.00">Resources.h</text>
</a>
</g>
</g>
<!-- Node5&#45;&gt;Node13 -->
<g id="edge14" class="edge"><title>Node5&#45;&gt;Node13</title>
<path fill="none" stroke="midnightblue" d="M1007.08,-224.444C985.264,-215.517 950.85,-201.439 926.108,-191.317"/>
<polygon fill="midnightblue" stroke="midnightblue" points="927.399,-188.063 916.818,-187.516 924.748,-194.542 927.399,-188.063"/>
</g>
<!-- Node14 -->
<g id="node15" class="node"><title>Node14</title>
<g id="a_node15"><a xlink:href="GameObject_8h.html" target="_top" xlink:title="GameObject.h">
<polygon fill="white" stroke="black" points="1145,-168.5 1145,-187.5 1225,-187.5 1225,-168.5 1145,-168.5"/>
<text text-anchor="middle" x="1185" y="-175.5" font-family="Helvetica,sans-Serif" font-size="10.00">GameObject.h</text>
</a>
</g>
</g>
<!-- Node5&#45;&gt;Node14 -->
<g id="edge19" class="edge"><title>Node5&#45;&gt;Node14</title>
<path fill="none" stroke="midnightblue" d="M1052.19,-224.681C1078.54,-215.617 1120.91,-201.044 1150.69,-190.801"/>
<polygon fill="midnightblue" stroke="midnightblue" points="1151.95,-194.069 1160.27,-187.507 1149.67,-187.45 1151.95,-194.069"/>
</g>
<!-- Node8&#45;&gt;Node9 -->
<g id="edge9" class="edge"><title>Node8&#45;&gt;Node9</title>
<path fill="none" stroke="midnightblue" d="M1045.45,-112.331C1051.74,-98.7367 1061.08,-72.2802 1048,-56 1029.06,-32.427 948.238,-20.4707 894.188,-14.9992"/>
<polygon fill="midnightblue" stroke="midnightblue" points="894.386,-11.502 884.095,-14.0207 893.71,-18.4694 894.386,-11.502"/>
</g>
<!-- Node8&#45;&gt;Node10 -->
<g id="edge10" class="edge"><title>Node8&#45;&gt;Node10</title>
<path fill="none" stroke="midnightblue" d="M998.744,-113.246C995.789,-112.795 992.853,-112.374 990,-112 806.962,-87.9927 585.999,-73.7327 502.835,-68.8816"/>
<polygon fill="midnightblue" stroke="midnightblue" points="502.893,-65.3793 492.708,-68.2979 502.49,-72.3677 502.893,-65.3793"/>
</g>
<!-- Node11 -->
<g id="node12" class="node"><title>Node11</title>
<polygon fill="white" stroke="#bfbfbf" points="891.5,-56.5 891.5,-75.5 974.5,-75.5 974.5,-56.5 891.5,-56.5"/>
<text text-anchor="middle" x="933" y="-63.5" font-family="Helvetica,sans-Serif" font-size="10.00">unordered_map</text>
</g>
<!-- Node8&#45;&gt;Node11 -->
<g id="edge12" class="edge"><title>Node8&#45;&gt;Node11</title>
<path fill="none" stroke="midnightblue" d="M1023.65,-112.324C1006.33,-103.664 979.485,-90.2424 959.498,-80.249"/>
<polygon fill="midnightblue" stroke="midnightblue" points="960.819,-76.9962 950.309,-75.6545 957.688,-83.2572 960.819,-76.9962"/>
</g>
<!-- Node12 -->
<g id="node13" class="node"><title>Node12</title>
<polygon fill="white" stroke="#bfbfbf" points="993,-56.5 993,-75.5 1039,-75.5 1039,-56.5 993,-56.5"/>
<text text-anchor="middle" x="1016" y="-63.5" font-family="Helvetica,sans-Serif" font-size="10.00">cstdint</text>
</g>
<!-- Node8&#45;&gt;Node12 -->
<g id="edge13" class="edge"><title>Node8&#45;&gt;Node12</title>
<path fill="none" stroke="midnightblue" d="M1036.87,-112.083C1033.49,-104.77 1028.58,-94.1814 1024.38,-85.1034"/>
<polygon fill="midnightblue" stroke="midnightblue" points="1027.43,-83.3553 1020.05,-75.7511 1021.08,-86.2962 1027.43,-83.3553"/>
</g>
<!-- Node10&#45;&gt;Node9 -->
<g id="edge11" class="edge"><title>Node10&#45;&gt;Node9</title>
<path fill="none" stroke="midnightblue" d="M492.742,-61.5811C552.803,-52.9324 711.813,-30.035 793.698,-18.2435"/>
<polygon fill="midnightblue" stroke="midnightblue" points="794.369,-21.6831 803.768,-16.7935 793.371,-14.7546 794.369,-21.6831"/>
</g>
<!-- Node13&#45;&gt;Node3 -->
<g id="edge16" class="edge"><title>Node13&#45;&gt;Node3</title>
<path fill="none" stroke="midnightblue" d="M859.878,-169.32C809.709,-158.655 719.807,-139.542 672.703,-129.527"/>
<polygon fill="midnightblue" stroke="midnightblue" points="673.294,-126.075 662.785,-127.419 671.839,-132.922 673.294,-126.075"/>
</g>
<!-- Node13&#45;&gt;Node7 -->
<g id="edge18" class="edge"><title>Node13&#45;&gt;Node7</title>
<path fill="none" stroke="midnightblue" d="M905.479,-168.324C914.201,-160.341 927.343,-148.313 937.898,-138.653"/>
<polygon fill="midnightblue" stroke="midnightblue" points="940.334,-141.167 945.348,-131.834 935.608,-136.004 940.334,-141.167"/>
</g>
<!-- Node13&#45;&gt;Node9 -->
<g id="edge15" class="edge"><title>Node13&#45;&gt;Node9</title>
<path fill="none" stroke="midnightblue" d="M893.204,-168.075C884.984,-141.832 860.773,-64.5453 849.675,-29.1165"/>
<polygon fill="midnightblue" stroke="midnightblue" points="853.013,-28.0646 846.684,-19.5681 846.333,-30.1571 853.013,-28.0646"/>
</g>
<!-- Node13&#45;&gt;Node11 -->
<g id="edge17" class="edge"><title>Node13&#45;&gt;Node11</title>
<path fill="none" stroke="midnightblue" d="M898.903,-168.368C904.901,-150.537 918.773,-109.295 926.854,-85.2717"/>
<polygon fill="midnightblue" stroke="midnightblue" points="930.239,-86.1855 930.11,-75.5914 923.605,-83.9537 930.239,-86.1855"/>
</g>
<!-- Node14&#45;&gt;Node3 -->
<g id="edge23" class="edge"><title>Node14&#45;&gt;Node3</title>
<path fill="none" stroke="midnightblue" d="M1144.63,-172.985C1040.6,-162.64 765.095,-135.241 672.699,-126.053"/>
<polygon fill="midnightblue" stroke="midnightblue" points="672.905,-122.556 662.608,-125.049 672.212,-129.522 672.905,-122.556"/>
</g>
<!-- Node14&#45;&gt;Node6 -->
<g id="edge21" class="edge"><title>Node14&#45;&gt;Node6</title>
<path fill="none" stroke="midnightblue" d="M1202.19,-168.324C1219.35,-159.664 1245.95,-146.242 1265.75,-136.249"/>
<polygon fill="midnightblue" stroke="midnightblue" points="1267.5,-139.285 1274.85,-131.655 1264.35,-133.035 1267.5,-139.285"/>
</g>
<!-- Node14&#45;&gt;Node7 -->
<g id="edge22" class="edge"><title>Node14&#45;&gt;Node7</title>
<path fill="none" stroke="midnightblue" d="M1146.82,-168.485C1109.54,-160.103 1050.94,-146.757 991.318,-132.28"/>
<polygon fill="midnightblue" stroke="midnightblue" points="991.9,-128.819 981.356,-129.852 990.243,-135.62 991.9,-128.819"/>
</g>
<!-- Node14&#45;&gt;Node9 -->
<g id="edge20" class="edge"><title>Node14&#45;&gt;Node9</title>
<path fill="none" stroke="midnightblue" d="M1179.19,-168.27C1163.65,-145.664 1118.63,-84.9629 1065,-56 1011.35,-27.0242 941.196,-16.649 894.468,-12.9669"/>
<polygon fill="midnightblue" stroke="midnightblue" points="894.508,-9.46097 884.285,-12.2411 894.011,-16.4433 894.508,-9.46097"/>
</g>
<!-- Node15 -->
<g id="node16" class="node"><title>Node15</title>
<g id="a_node16"><a xlink:href="Component_8h.html" target="_top" xlink:title="Component.h">
<polygon fill="white" stroke="black" points="1177.5,-112.5 1177.5,-131.5 1252.5,-131.5 1252.5,-112.5 1177.5,-112.5"/>
<text text-anchor="middle" x="1215" y="-119.5" font-family="Helvetica,sans-Serif" font-size="10.00">Component.h</text>
</a>
</g>
</g>
<!-- Node14&#45;&gt;Node15 -->
<g id="edge24" class="edge"><title>Node14&#45;&gt;Node15</title>
<path fill="none" stroke="midnightblue" d="M1184.79,-168.083C1187.39,-160.534 1193.13,-149.495 1199.09,-140.23"/>
<polygon fill="midnightblue" stroke="midnightblue" points="1202.15,-141.954 1205.01,-131.751 1196.41,-137.946 1202.15,-141.954"/>
</g>
<!-- Node16 -->
<g id="node17" class="node"><title>Node16</title>
<g id="a_node17"><a xlink:href="ComponentType_8h.html" target="_top" xlink:title="ComponentType.h">
<polygon fill="white" stroke="black" points="1152.5,-56.5 1152.5,-75.5 1249.5,-75.5 1249.5,-56.5 1152.5,-56.5"/>
<text text-anchor="middle" x="1201" y="-63.5" font-family="Helvetica,sans-Serif" font-size="10.00">ComponentType.h</text>
</a>
</g>
</g>
<!-- Node14&#45;&gt;Node16 -->
<g id="edge27" class="edge"><title>Node14&#45;&gt;Node16</title>
<path fill="none" stroke="midnightblue" d="M1179.92,-168.484C1173.13,-155.967 1162.64,-131.928 1169,-112 1172.34,-101.538 1179.1,-91.4277 1185.55,-83.4496"/>
<polygon fill="midnightblue" stroke="midnightblue" points="1188.35,-85.5641 1192.25,-75.7136 1183.06,-80.9815 1188.35,-85.5641"/>
</g>
<!-- Node17 -->
<g id="node18" class="node"><title>Node17</title>
<g id="a_node18"><a xlink:href="Rect_8h.html" target="_top" xlink:title="Rect.h">
<polygon fill="white" stroke="black" points="205,-112.5 205,-131.5 251,-131.5 251,-112.5 205,-112.5"/>
<text text-anchor="middle" x="228" y="-119.5" font-family="Helvetica,sans-Serif" font-size="10.00">Rect.h</text>
</a>
</g>
</g>
<!-- Node14&#45;&gt;Node17 -->
<g id="edge28" class="edge"><title>Node14&#45;&gt;Node17</title>
<path fill="none" stroke="midnightblue" d="M1144.79,-174.731C986.282,-165.787 406.212,-133.056 261.086,-124.867"/>
<polygon fill="midnightblue" stroke="midnightblue" points="261.202,-121.368 251.021,-124.299 260.808,-128.357 261.202,-121.368"/>
</g>
<!-- Node15&#45;&gt;Node14 -->
<g id="edge26" class="edge"><title>Node15&#45;&gt;Node14</title>
<path fill="none" stroke="midnightblue" d="M1215.27,-131.751C1212.69,-139.327 1206.88,-150.505 1200.86,-159.855"/>
<polygon fill="midnightblue" stroke="midnightblue" points="1197.97,-157.879 1195.12,-168.083 1203.71,-161.883 1197.97,-157.879"/>
</g>
<!-- Node15&#45;&gt;Node16 -->
<g id="edge25" class="edge"><title>Node15&#45;&gt;Node16</title>
<path fill="none" stroke="midnightblue" d="M1212.69,-112.083C1210.83,-104.927 1208.16,-94.6353 1205.85,-85.6911"/>
<polygon fill="midnightblue" stroke="midnightblue" points="1209.17,-84.5527 1203.27,-75.7511 1202.39,-86.3094 1209.17,-84.5527"/>
</g>
<!-- Node17&#45;&gt;Node9 -->
<g id="edge29" class="edge"><title>Node17&#45;&gt;Node9</title>
<path fill="none" stroke="midnightblue" d="M223.67,-112.086C217.605,-98.1564 208.816,-71.2485 223,-56 261.56,-14.5444 652.925,-10.8032 793.808,-10.8116"/>
<polygon fill="midnightblue" stroke="midnightblue" points="793.902,-14.3116 803.904,-10.8187 793.907,-7.31157 793.902,-14.3116"/>
</g>
<!-- Node17&#45;&gt;Node10 -->
<g id="edge30" class="edge"><title>Node17&#45;&gt;Node10</title>
<path fill="none" stroke="midnightblue" d="M251.108,-115.822C293.894,-106.235 385.609,-85.685 435.315,-74.5476"/>
<polygon fill="midnightblue" stroke="midnightblue" points="436.259,-77.9231 445.251,-72.3213 434.728,-71.0925 436.259,-77.9231"/>
</g>
<!-- Node18 -->
<g id="node19" class="node"><title>Node18</title>
<polygon fill="white" stroke="#bfbfbf" points="232,-56.5 232,-75.5 276,-75.5 276,-56.5 232,-56.5"/>
<text text-anchor="middle" x="254" y="-63.5" font-family="Helvetica,sans-Serif" font-size="10.00">cmath</text>
</g>
<!-- Node17&#45;&gt;Node18 -->
<g id="edge31" class="edge"><title>Node17&#45;&gt;Node18</title>
<path fill="none" stroke="midnightblue" d="M232.293,-112.083C235.852,-104.691 241.022,-93.9533 245.424,-84.8111"/>
<polygon fill="midnightblue" stroke="midnightblue" points="248.602,-86.2795 249.787,-75.7511 242.295,-83.2427 248.602,-86.2795"/>
</g>
<!-- Node19&#45;&gt;Node5 -->
<g id="edge81" class="edge"><title>Node19&#45;&gt;Node5</title>
<path fill="none" stroke="midnightblue" d="M661.84,-398.199C726.624,-392.411 865.517,-377.818 908,-356 956.732,-330.972 997.749,-278.845 1016.72,-251.916"/>
<polygon fill="midnightblue" stroke="midnightblue" points="1019.7,-253.751 1022.48,-243.527 1013.93,-249.786 1019.7,-253.751"/>
</g>
<!-- Node19&#45;&gt;Node17 -->
<g id="edge38" class="edge"><title>Node19&#45;&gt;Node17</title>
<path fill="none" stroke="midnightblue" d="M594.222,-393.812C591.107,-393.185 587.997,-392.572 585,-392 455.417,-367.261 0,-422.923 0,-291 0,-291 0,-291 0,-233 0,-190.223 131.832,-148.898 195.006,-131.551"/>
<polygon fill="midnightblue" stroke="midnightblue" points="196.143,-134.869 204.883,-128.881 194.317,-128.112 196.143,-134.869"/>
</g>
<!-- Node20 -->
<g id="node21" class="node"><title>Node20</title>
<g id="a_node21"><a xlink:href="ActionManager_8h.html" target="_top" xlink:title="ActionManager.h">
<polygon fill="white" stroke="black" points="809,-336.5 809,-355.5 899,-355.5 899,-336.5 809,-336.5"/>
<text text-anchor="middle" x="854" y="-343.5" font-family="Helvetica,sans-Serif" font-size="10.00">ActionManager.h</text>
</a>
</g>
</g>
<!-- Node19&#45;&gt;Node20 -->
<g id="edge36" class="edge"><title>Node19&#45;&gt;Node20</title>
<path fill="none" stroke="midnightblue" d="M661.834,-392.916C700.79,-383.608 764.971,-368.272 808.332,-357.912"/>
<polygon fill="midnightblue" stroke="midnightblue" points="809.151,-361.315 818.064,-355.587 807.524,-354.506 809.151,-361.315"/>
</g>
<!-- Node21 -->
<g id="node22" class="node"><title>Node21</title>
<g id="a_node22"><a xlink:href="UIimage_8h.html" target="_top" xlink:title="UIimage.h">
<polygon fill="white" stroke="black" points="296,-280.5 296,-299.5 358,-299.5 358,-280.5 296,-280.5"/>
<text text-anchor="middle" x="327" y="-287.5" font-family="Helvetica,sans-Serif" font-size="10.00">UIimage.h</text>
</a>
</g>
</g>
<!-- Node19&#45;&gt;Node21 -->
<g id="edge39" class="edge"><title>Node19&#45;&gt;Node21</title>
<path fill="none" stroke="midnightblue" d="M594.407,-393.965C542.199,-382.935 445.997,-362.193 431,-356 399.256,-342.893 366.228,-320.498 346.135,-305.723"/>
<polygon fill="midnightblue" stroke="midnightblue" points="347.967,-302.723 337.864,-299.532 343.772,-308.327 347.967,-302.723"/>
</g>
<!-- Node25 -->
<g id="node26" class="node"><title>Node25</title>
<g id="a_node26"><a xlink:href="UIcanvas_8h.html" target="_top" xlink:title="UIcanvas.h">
<polygon fill="white" stroke="black" points="376.5,-280.5 376.5,-299.5 443.5,-299.5 443.5,-280.5 376.5,-280.5"/>
<text text-anchor="middle" x="410" y="-287.5" font-family="Helvetica,sans-Serif" font-size="10.00">UIcanvas.h</text>
</a>
</g>
</g>
<!-- Node19&#45;&gt;Node25 -->
<g id="edge55" class="edge"><title>Node19&#45;&gt;Node25</title>
<path fill="none" stroke="midnightblue" d="M594.133,-393.597C546.835,-383.053 465.473,-364.094 454,-356 437.172,-344.128 424.879,-323.621 417.63,-308.811"/>
<polygon fill="midnightblue" stroke="midnightblue" points="420.776,-307.274 413.425,-299.645 414.414,-310.193 420.776,-307.274"/>
</g>
<!-- Node26 -->
<g id="node27" class="node"><title>Node26</title>
<g id="a_node27"><a xlink:href="UItext_8h.html" target="_top" xlink:title="UItext.h">
<polygon fill="white" stroke="black" points="708,-280.5 708,-299.5 760,-299.5 760,-280.5 708,-280.5"/>
<text text-anchor="middle" x="734" y="-287.5" font-family="Helvetica,sans-Serif" font-size="10.00">UItext.h</text>
</a>
</g>
</g>
<!-- Node19&#45;&gt;Node26 -->
<g id="edge60" class="edge"><title>Node19&#45;&gt;Node26</title>
<path fill="none" stroke="midnightblue" d="M638.055,-392.337C648.172,-383.49 664.083,-369.216 677,-356 692.49,-340.15 709.074,-320.96 720.337,-307.556"/>
<polygon fill="midnightblue" stroke="midnightblue" points="723.19,-309.599 726.904,-299.676 717.813,-305.117 723.19,-309.599"/>
</g>
<!-- Node28 -->
<g id="node29" class="node"><title>Node28</title>
<g id="a_node29"><a xlink:href="UItextButton_8h.html" target="_top" xlink:title="UItextButton.h">
<polygon fill="white" stroke="black" points="588,-336.5 588,-355.5 668,-355.5 668,-336.5 588,-336.5"/>
<text text-anchor="middle" x="628" y="-343.5" font-family="Helvetica,sans-Serif" font-size="10.00">UItextButton.h</text>
</a>
</g>
</g>
<!-- Node19&#45;&gt;Node28 -->
<g id="edge67" class="edge"><title>Node19&#45;&gt;Node28</title>
<path fill="none" stroke="midnightblue" d="M628,-392.083C628,-385.006 628,-374.861 628,-365.986"/>
<polygon fill="midnightblue" stroke="midnightblue" points="631.5,-365.751 628,-355.751 624.5,-365.751 631.5,-365.751"/>
</g>
<!-- Node30 -->
<g id="node31" class="node"><title>Node30</title>
<g id="a_node31"><a xlink:href="UIverticalGroup_8h.html" target="_top" xlink:title="UIverticalGroup.h">
<polygon fill="white" stroke="black" points="463.5,-336.5 463.5,-355.5 556.5,-355.5 556.5,-336.5 463.5,-336.5"/>
<text text-anchor="middle" x="510" y="-343.5" font-family="Helvetica,sans-Serif" font-size="10.00">UIverticalGroup.h</text>
</a>
</g>
</g>
<!-- Node19&#45;&gt;Node30 -->
<g id="edge75" class="edge"><title>Node19&#45;&gt;Node30</title>
<path fill="none" stroke="midnightblue" d="M609.303,-392.444C590.056,-383.636 559.848,-369.812 537.8,-359.722"/>
<polygon fill="midnightblue" stroke="midnightblue" points="539.16,-356.495 528.61,-355.516 536.247,-362.86 539.16,-356.495"/>
</g>
<!-- Node20&#45;&gt;Node8 -->
<g id="edge37" class="edge"><title>Node20&#45;&gt;Node8</title>
<path fill="none" stroke="midnightblue" d="M861.331,-336.297C889.312,-303.079 989.686,-183.918 1026.95,-139.684"/>
<polygon fill="midnightblue" stroke="midnightblue" points="1029.75,-141.787 1033.52,-131.884 1024.4,-137.277 1029.75,-141.787"/>
</g>
<!-- Node21&#45;&gt;Node3 -->
<g id="edge54" class="edge"><title>Node21&#45;&gt;Node3</title>
<path fill="none" stroke="midnightblue" d="M356.729,-280.467C382.942,-272.478 421.857,-259.47 454,-244 496.45,-223.569 504.366,-213.467 544,-188 570.69,-170.85 601.086,-150.571 620.855,-137.281"/>
<polygon fill="midnightblue" stroke="midnightblue" points="623.052,-140.021 629.391,-131.532 619.142,-134.215 623.052,-140.021"/>
</g>
<!-- Node21&#45;&gt;Node17 -->
<g id="edge48" class="edge"><title>Node21&#45;&gt;Node17</title>
<path fill="none" stroke="midnightblue" d="M295.913,-286.186C247.429,-281.081 157.339,-268.484 138,-244 117.064,-217.493 120.242,-196.733 138,-168 150.414,-147.914 174.808,-136.494 195.071,-130.188"/>
<polygon fill="midnightblue" stroke="midnightblue" points="196.236,-133.496 204.91,-127.412 194.336,-126.759 196.236,-133.496"/>
</g>
<!-- Node22 -->
<g id="node23" class="node"><title>Node22</title>
<g id="a_node23"><a xlink:href="Color_8h.html" target="_top" xlink:title="Color.h">
<polygon fill="white" stroke="black" points="76,-112.5 76,-131.5 124,-131.5 124,-112.5 76,-112.5"/>
<text text-anchor="middle" x="100" y="-119.5" font-family="Helvetica,sans-Serif" font-size="10.00">Color.h</text>
</a>
</g>
</g>
<!-- Node21&#45;&gt;Node22 -->
<g id="edge40" class="edge"><title>Node21&#45;&gt;Node22</title>
<path fill="none" stroke="midnightblue" d="M295.678,-286.257C244.587,-281.125 146.625,-268.327 123,-244 96.3974,-216.607 95.7169,-168.554 97.7388,-141.992"/>
<polygon fill="midnightblue" stroke="midnightblue" points="101.25,-142.042 98.7386,-131.749 94.2836,-141.362 101.25,-142.042"/>
</g>
<!-- Node23 -->
<g id="node24" class="node"><title>Node23</title>
<g id="a_node24"><a xlink:href="Sprite_8h.html" target="_top" xlink:title="Sprite.h">
<polygon fill="white" stroke="black" points="332,-168.5 332,-187.5 382,-187.5 382,-168.5 332,-168.5"/>
<text text-anchor="middle" x="357" y="-175.5" font-family="Helvetica,sans-Serif" font-size="10.00">Sprite.h</text>
</a>
</g>
</g>
<!-- Node21&#45;&gt;Node23 -->
<g id="edge41" class="edge"><title>Node21&#45;&gt;Node23</title>
<path fill="none" stroke="midnightblue" d="M329.354,-280.368C334.217,-262.537 345.465,-221.295 352.017,-197.272"/>
<polygon fill="midnightblue" stroke="midnightblue" points="355.402,-198.16 354.657,-187.591 348.649,-196.318 355.402,-198.16"/>
</g>
<!-- Node24 -->
<g id="node25" class="node"><title>Node24</title>
<g id="a_node25"><a xlink:href="UIelement_8h.html" target="_top" xlink:title="UIelement.h">
<polygon fill="white" stroke="black" points="375,-224.5 375,-243.5 445,-243.5 445,-224.5 375,-224.5"/>
<text text-anchor="middle" x="410" y="-231.5" font-family="Helvetica,sans-Serif" font-size="10.00">UIelement.h</text>
</a>
</g>
</g>
<!-- Node21&#45;&gt;Node24 -->
<g id="edge49" class="edge"><title>Node21&#45;&gt;Node24</title>
<path fill="none" stroke="midnightblue" d="M340.335,-280.324C353.162,-271.979 372.785,-259.212 387.94,-249.352"/>
<polygon fill="midnightblue" stroke="midnightblue" points="390.224,-252.042 396.698,-243.655 386.407,-246.174 390.224,-252.042"/>
</g>
<!-- Node23&#45;&gt;Node3 -->
<g id="edge43" class="edge"><title>Node23&#45;&gt;Node3</title>
<path fill="none" stroke="midnightblue" d="M382.292,-172.208C434.637,-162.29 554.682,-139.545 611.334,-128.81"/>
<polygon fill="midnightblue" stroke="midnightblue" points="612.289,-132.192 621.462,-126.891 610.986,-125.314 612.289,-132.192"/>
</g>
<!-- Node23&#45;&gt;Node7 -->
<g id="edge44" class="edge"><title>Node23&#45;&gt;Node7</title>
<path fill="none" stroke="midnightblue" d="M382.296,-173.593C396.087,-171.797 413.465,-169.635 429,-168 612.782,-148.66 833.357,-131.87 918.765,-125.61"/>
<polygon fill="midnightblue" stroke="midnightblue" points="919.25,-129.084 928.969,-124.866 918.74,-122.103 919.25,-129.084"/>
</g>
<!-- Node23&#45;&gt;Node8 -->
<g id="edge47" class="edge"><title>Node23&#45;&gt;Node8</title>
<path fill="none" stroke="midnightblue" d="M382.283,-173.461C396.07,-171.627 413.449,-169.47 429,-168 674.459,-144.804 740.207,-161.307 988.695,-132.025"/>
<polygon fill="midnightblue" stroke="midnightblue" points="989.237,-135.485 998.753,-130.826 988.409,-128.534 989.237,-135.485"/>
</g>
<!-- Node23&#45;&gt;Node9 -->
<g id="edge42" class="edge"><title>Node23&#45;&gt;Node9</title>
<path fill="none" stroke="midnightblue" d="M359.712,-168.387C367.411,-145.523 391.757,-83.1937 436,-56 494.797,-19.8607 698.185,-12.6475 793.706,-11.2771"/>
<polygon fill="midnightblue" stroke="midnightblue" points="793.752,-14.7769 803.706,-11.1494 793.662,-7.77743 793.752,-14.7769"/>
</g>
<!-- Node23&#45;&gt;Node17 -->
<g id="edge46" class="edge"><title>Node23&#45;&gt;Node17</title>
<path fill="none" stroke="midnightblue" d="M336.56,-168.444C315.33,-159.557 281.901,-145.563 257.745,-135.451"/>
<polygon fill="midnightblue" stroke="midnightblue" points="258.921,-132.149 248.345,-131.516 256.218,-138.606 258.921,-132.149"/>
</g>
<!-- Node23&#45;&gt;Node22 -->
<g id="edge45" class="edge"><title>Node23&#45;&gt;Node22</title>
<path fill="none" stroke="midnightblue" d="M331.89,-171.724C285.473,-161.971 186.22,-141.116 133.894,-130.122"/>
<polygon fill="midnightblue" stroke="midnightblue" points="134.59,-126.692 124.084,-128.06 133.151,-133.542 134.59,-126.692"/>
</g>
<!-- Node24&#45;&gt;Node3 -->
<g id="edge53" class="edge"><title>Node24&#45;&gt;Node3</title>
<path fill="none" stroke="midnightblue" d="M429.423,-224.364C449.438,-215.42 481.507,-200.964 509,-188 546.266,-170.428 589.015,-149.374 615.765,-136.09"/>
<polygon fill="midnightblue" stroke="midnightblue" points="617.462,-139.155 624.857,-131.568 614.345,-132.888 617.462,-139.155"/>
</g>
<!-- Node24&#45;&gt;Node10 -->
<g id="edge52" class="edge"><title>Node24&#45;&gt;Node10</title>
<path fill="none" stroke="midnightblue" d="M412.324,-224.087C415.673,-211.486 422.204,-187.793 429,-168 439.123,-138.516 452.85,-104.999 461.306,-84.9497"/>
<polygon fill="midnightblue" stroke="midnightblue" points="464.612,-86.1183 465.303,-75.546 458.17,-83.3799 464.612,-86.1183"/>
</g>
<!-- Node24&#45;&gt;Node17 -->
<g id="edge51" class="edge"><title>Node24&#45;&gt;Node17</title>
<path fill="none" stroke="midnightblue" d="M375.221,-224.463C350.159,-217.274 316.268,-205.356 290,-188 270.174,-174.9 251.984,-154.366 240.507,-139.889"/>
<polygon fill="midnightblue" stroke="midnightblue" points="243.142,-137.575 234.273,-131.779 237.592,-141.84 243.142,-137.575"/>
</g>
<!-- Node24&#45;&gt;Node23 -->
<g id="edge50" class="edge"><title>Node24&#45;&gt;Node23</title>
<path fill="none" stroke="midnightblue" d="M401.248,-224.083C393.53,-216.22 382.095,-204.569 372.783,-195.081"/>
<polygon fill="midnightblue" stroke="midnightblue" points="375.092,-192.436 365.589,-187.751 370.096,-197.34 375.092,-192.436"/>
</g>
<!-- Node25&#45;&gt;Node3 -->
<g id="edge59" class="edge"><title>Node25&#45;&gt;Node3</title>
<path fill="none" stroke="midnightblue" d="M428.628,-280.441C461.331,-264.891 530.312,-229.725 580,-188 598,-172.885 616.296,-153.037 628.3,-139.269"/>
<polygon fill="midnightblue" stroke="midnightblue" points="631.044,-141.446 634.902,-131.578 625.732,-136.886 631.044,-141.446"/>
</g>
<!-- Node25&#45;&gt;Node10 -->
<g id="edge58" class="edge"><title>Node25&#45;&gt;Node10</title>
<path fill="none" stroke="midnightblue" d="M395.426,-280.458C364.926,-261.423 299.096,-213.603 323,-168 346.674,-122.836 400.728,-93.8643 436.006,-79.0189"/>
<polygon fill="midnightblue" stroke="midnightblue" points="437.464,-82.2044 445.418,-75.2046 434.835,-75.7169 437.464,-82.2044"/>
</g>
<!-- Node25&#45;&gt;Node17 -->
<g id="edge57" class="edge"><title>Node25&#45;&gt;Node17</title>
<path fill="none" stroke="midnightblue" d="M376.204,-280.879C336.665,-271.117 273.827,-254.712 252,-244 214.335,-225.515 194.923,-225.448 176,-188 166.198,-168.602 185.859,-149.563 203.748,-137.156"/>
<polygon fill="midnightblue" stroke="midnightblue" points="205.777,-140.011 212.251,-131.625 201.96,-134.143 205.777,-140.011"/>
</g>
<!-- Node25&#45;&gt;Node24 -->
<g id="edge56" class="edge"><title>Node25&#45;&gt;Node24</title>
<path fill="none" stroke="midnightblue" d="M410,-280.083C410,-273.006 410,-262.861 410,-253.986"/>
<polygon fill="midnightblue" stroke="midnightblue" points="413.5,-253.751 410,-243.751 406.5,-253.751 413.5,-253.751"/>
</g>
<!-- Node26&#45;&gt;Node3 -->
<g id="edge66" class="edge"><title>Node26&#45;&gt;Node3</title>
<path fill="none" stroke="midnightblue" d="M732.772,-280.393C729.473,-259.555 718.927,-205.362 694,-168 686.132,-156.206 674.374,-145.671 664.028,-137.765"/>
<polygon fill="midnightblue" stroke="midnightblue" points="665.933,-134.822 655.787,-131.772 661.816,-140.484 665.933,-134.822"/>
</g>
<!-- Node26&#45;&gt;Node7 -->
<g id="edge65" class="edge"><title>Node26&#45;&gt;Node7</title>
<path fill="none" stroke="midnightblue" d="M760.165,-284.224C804.952,-274.584 895.836,-248.347 941,-188 950.835,-174.859 954.063,-156.264 954.991,-142.327"/>
<polygon fill="midnightblue" stroke="midnightblue" points="958.501,-142.044 955.322,-131.937 951.505,-141.82 958.501,-142.044"/>
</g>
<!-- Node26&#45;&gt;Node9 -->
<g id="edge61" class="edge"><title>Node26&#45;&gt;Node9</title>
<path fill="none" stroke="midnightblue" d="M756.882,-280.449C772.95,-273.224 793.542,-261.267 805,-244 850.396,-175.59 848.644,-71.6991 845.721,-29.6452"/>
<polygon fill="midnightblue" stroke="midnightblue" points="849.196,-29.1911 844.904,-19.5045 842.218,-29.7534 849.196,-29.1911"/>
</g>
<!-- Node26&#45;&gt;Node17 -->
<g id="edge62" class="edge"><title>Node26&#45;&gt;Node17</title>
<path fill="none" stroke="midnightblue" d="M707.752,-282.823C619.961,-262.127 341.069,-196.08 323,-188 307.471,-181.055 270.58,-154.6 247.609,-137.656"/>
<polygon fill="midnightblue" stroke="midnightblue" points="249.677,-134.832 239.56,-131.688 245.508,-140.455 249.677,-134.832"/>
</g>
<!-- Node26&#45;&gt;Node24 -->
<g id="edge64" class="edge"><title>Node26&#45;&gt;Node24</title>
<path fill="none" stroke="midnightblue" d="M707.76,-284.627C652.592,-275.432 524.017,-254.003 455.264,-242.544"/>
<polygon fill="midnightblue" stroke="midnightblue" points="455.606,-239.053 445.167,-240.861 454.455,-245.958 455.606,-239.053"/>
</g>
<!-- Node27 -->
<g id="node28" class="node"><title>Node27</title>
<g id="a_node28"><a xlink:href="Timer_8h.html" target="_top" xlink:title="Timer.h">
<polygon fill="white" stroke="black" points="746,-224.5 746,-243.5 796,-243.5 796,-224.5 746,-224.5"/>
<text text-anchor="middle" x="771" y="-231.5" font-family="Helvetica,sans-Serif" font-size="10.00">Timer.h</text>
</a>
</g>
</g>
<!-- Node26&#45;&gt;Node27 -->
<g id="edge63" class="edge"><title>Node26&#45;&gt;Node27</title>
<path fill="none" stroke="midnightblue" d="M740.11,-280.083C745.282,-272.534 752.846,-261.495 759.194,-252.23"/>
<polygon fill="midnightblue" stroke="midnightblue" points="762.239,-253.979 765.004,-243.751 756.464,-250.022 762.239,-253.979"/>
</g>
<!-- Node28&#45;&gt;Node3 -->
<g id="edge74" class="edge"><title>Node28&#45;&gt;Node3</title>
<path fill="none" stroke="midnightblue" d="M631.294,-336.252C637.615,-318.945 651.241,-278.978 656,-244 660.553,-210.531 661.075,-201.394 656,-168 654.632,-159.001 651.81,-149.325 649.055,-141.26"/>
<polygon fill="midnightblue" stroke="midnightblue" points="652.312,-139.976 645.6,-131.778 645.735,-142.372 652.312,-139.976"/>
</g>
<!-- Node28&#45;&gt;Node17 -->
<g id="edge73" class="edge"><title>Node28&#45;&gt;Node17</title>
<path fill="none" stroke="midnightblue" d="M604.73,-336.487C549.325,-316.143 410.872,-264.852 366,-244 319.1,-222.206 300.637,-224.501 264,-188 250.601,-174.65 240.741,-155.27 234.761,-141.146"/>
<polygon fill="midnightblue" stroke="midnightblue" points="237.896,-139.558 230.951,-131.557 231.391,-142.143 237.896,-139.558"/>
</g>
<!-- Node28&#45;&gt;Node26 -->
<g id="edge68" class="edge"><title>Node28&#45;&gt;Node26</title>
<path fill="none" stroke="midnightblue" d="M645.031,-336.324C662.03,-327.664 688.376,-314.242 707.993,-304.249"/>
<polygon fill="midnightblue" stroke="midnightblue" points="709.69,-307.312 717.012,-299.655 706.512,-301.075 709.69,-307.312"/>
</g>
<!-- Node29 -->
<g id="node30" class="node"><title>Node29</title>
<g id="a_node30"><a xlink:href="UIbutton_8h.html" target="_top" xlink:title="UIbutton.h">
<polygon fill="white" stroke="black" points="438,-168.5 438,-187.5 500,-187.5 500,-168.5 438,-168.5"/>
<text text-anchor="middle" x="469" y="-175.5" font-family="Helvetica,sans-Serif" font-size="10.00">UIbutton.h</text>
</a>
</g>
</g>
<!-- Node28&#45;&gt;Node29 -->
<g id="edge69" class="edge"><title>Node28&#45;&gt;Node29</title>
<path fill="none" stroke="midnightblue" d="M619.451,-336.075C593.773,-309.267 517.074,-229.19 484.215,-194.885"/>
<polygon fill="midnightblue" stroke="midnightblue" points="486.652,-192.369 477.207,-187.568 481.596,-197.211 486.652,-192.369"/>
</g>
<!-- Node29&#45;&gt;Node3 -->
<g id="edge72" class="edge"><title>Node29&#45;&gt;Node3</title>
<path fill="none" stroke="midnightblue" d="M496.412,-168.444C527.792,-158.649 579.044,-142.651 611.618,-132.484"/>
<polygon fill="midnightblue" stroke="midnightblue" points="612.985,-135.723 621.488,-129.403 610.899,-129.041 612.985,-135.723"/>
</g>
<!-- Node29&#45;&gt;Node10 -->
<g id="edge71" class="edge"><title>Node29&#45;&gt;Node10</title>
<path fill="none" stroke="midnightblue" d="M469,-168.368C469,-150.617 469,-109.666 469,-85.5974"/>
<polygon fill="midnightblue" stroke="midnightblue" points="472.5,-85.5914 469,-75.5914 465.5,-85.5915 472.5,-85.5914"/>
</g>
<!-- Node29&#45;&gt;Node17 -->
<g id="edge70" class="edge"><title>Node29&#45;&gt;Node17</title>
<path fill="none" stroke="midnightblue" d="M437.987,-170.051C392.483,-159.855 307.978,-140.92 261.239,-130.448"/>
<polygon fill="midnightblue" stroke="midnightblue" points="261.839,-126.996 251.316,-128.224 260.309,-133.826 261.839,-126.996"/>
</g>
<!-- Node30&#45;&gt;Node3 -->
<g id="edge80" class="edge"><title>Node30&#45;&gt;Node3</title>
<path fill="none" stroke="midnightblue" d="M515.44,-336.197C530.106,-312.422 571.615,-244.872 605,-188 614.324,-172.116 624.675,-153.879 632.052,-140.773"/>
<polygon fill="midnightblue" stroke="midnightblue" points="635.204,-142.308 637.047,-131.874 629.1,-138.881 635.204,-142.308"/>
</g>
<!-- Node30&#45;&gt;Node6 -->
<g id="edge79" class="edge"><title>Node30&#45;&gt;Node6</title>
<path fill="none" stroke="midnightblue" d="M556.725,-338.547C564.168,-337.623 571.789,-336.737 579,-336 794.47,-313.985 857.932,-363.52 1065,-300 1160.55,-270.689 1191.62,-260.892 1260,-188 1272.62,-174.549 1281.28,-155.183 1286.38,-141.091"/>
<polygon fill="midnightblue" stroke="midnightblue" points="1289.72,-142.121 1289.59,-131.527 1283.09,-139.893 1289.72,-142.121"/>
</g>
<!-- Node30&#45;&gt;Node17 -->
<g id="edge78" class="edge"><title>Node30&#45;&gt;Node17</title>
<path fill="none" stroke="midnightblue" d="M463.433,-340.161C369.46,-329.301 162.688,-299.49 123,-244 115.211,-233.11 103.68,-198.339 124,-168 139.806,-144.401 170.862,-133.107 194.939,-127.745"/>
<polygon fill="midnightblue" stroke="midnightblue" points="195.641,-131.175 204.766,-125.792 194.276,-124.309 195.641,-131.175"/>
</g>
<!-- Node30&#45;&gt;Node24 -->
<g id="edge76" class="edge"><title>Node30&#45;&gt;Node24</title>
<path fill="none" stroke="midnightblue" d="M502.182,-336.112C491.099,-323.542 470.147,-299.885 452,-280 443.156,-270.309 433.136,-259.564 425.101,-251.005"/>
<polygon fill="midnightblue" stroke="midnightblue" points="427.511,-248.458 418.109,-243.574 422.413,-253.255 427.511,-248.458"/>
</g>
<!-- Node30&#45;&gt;Node25 -->
<g id="edge77" class="edge"><title>Node30&#45;&gt;Node25</title>
<path fill="none" stroke="midnightblue" d="M493.933,-336.324C478.042,-327.743 453.493,-314.486 435.042,-304.522"/>
<polygon fill="midnightblue" stroke="midnightblue" points="436.489,-301.326 426.027,-299.655 433.163,-307.486 436.489,-301.326"/>
</g>
</g>
</svg>
