<?xml version="1.0" encoding="UTF-8" standalone="no"?>
<!DOCTYPE svg PUBLIC "-//W3C//DTD SVG 1.1//EN"
 "http://www.w3.org/Graphics/SVG/1.1/DTD/svg11.dtd">
<!-- Generated by graphviz version 2.38.0 (20140413.2041)
 -->
<!-- Title: Game/src/main.cpp Pages: 1 -->
<svg width="463pt" height="308pt"
 viewBox="0.00 0.00 462.82 308.00" xmlns="http://www.w3.org/2000/svg" xmlns:xlink="http://www.w3.org/1999/xlink">
<g id="graph0" class="graph" transform="scale(1 1) rotate(0) translate(4 304)">
<title>Game/src/main.cpp</title>
<polygon fill="white" stroke="none" points="-4,4 -4,-304 458.818,-304 458.818,4 -4,4"/>
<!-- Node0 -->
<g id="node1" class="node"><title>Node0</title>
<polygon fill="#bfbfbf" stroke="black" points="125.906,-280.5 125.906,-299.5 227.906,-299.5 227.906,-280.5 125.906,-280.5"/>
<text text-anchor="middle" x="176.906" y="-287.5" font-family="Helvetica,sans-Serif" font-size="10.00">Game/src/main.cpp</text>
</g>
<!-- Node1 -->
<g id="node2" class="node"><title>Node1</title>
<polygon fill="white" stroke="#bfbfbf" points="78.9056,-224.5 78.9056,-243.5 132.906,-243.5 132.906,-224.5 78.9056,-224.5"/>
<text text-anchor="middle" x="105.906" y="-231.5" font-family="Helvetica,sans-Serif" font-size="10.00">iostream</text>
</g>
<!-- Node0&#45;&gt;Node1 -->
<g id="edge1" class="edge"><title>Node0&#45;&gt;Node1</title>
<path fill="none" stroke="midnightblue" d="M165.498,-280.324C154.797,-272.185 138.565,-259.839 125.743,-250.087"/>
<polygon fill="midnightblue" stroke="midnightblue" points="127.599,-247.102 117.52,-243.834 123.361,-252.673 127.599,-247.102"/>
</g>
<!-- Node2 -->
<g id="node3" class="node"><title>Node2</title>
<g id="a_node3"><a xlink:href="Game_8h.html" target="_top" xlink:title="Game.h">
<polygon fill="white" stroke="black" points="151.406,-224.5 151.406,-243.5 202.406,-243.5 202.406,-224.5 151.406,-224.5"/>
<text text-anchor="middle" x="176.906" y="-231.5" font-family="Helvetica,sans-Serif" font-size="10.00">Game.h</text>
</a>
</g>
</g>
<!-- Node0&#45;&gt;Node2 -->
<g id="edge2" class="edge"><title>Node0&#45;&gt;Node2</title>
<path fill="none" stroke="midnightblue" d="M176.906,-280.083C176.906,-273.006 176.906,-262.861 176.906,-253.986"/>
<polygon fill="midnightblue" stroke="midnightblue" points="180.406,-253.751 176.906,-243.751 173.406,-253.751 180.406,-253.751"/>
</g>
<!-- Node15 -->
<g id="node16" class="node"><title>Node15</title>
<g id="a_node16"><a xlink:href="TitleState_8h.html" target="_top" xlink:title="TitleState.h">
<polygon fill="white" stroke="black" points="281.406,-224.5 281.406,-243.5 348.406,-243.5 348.406,-224.5 281.406,-224.5"/>
<text text-anchor="middle" x="314.906" y="-231.5" font-family="Helvetica,sans-Serif" font-size="10.00">TitleState.h</text>
</a>
</g>
</g>
<!-- Node0&#45;&gt;Node15 -->
<g id="edge18" class="edge"><title>Node0&#45;&gt;Node15</title>
<path fill="none" stroke="midnightblue" d="M198.772,-280.444C221.685,-271.478 257.881,-257.314 283.772,-247.183"/>
<polygon fill="midnightblue" stroke="midnightblue" points="285.104,-250.42 293.141,-243.516 282.553,-243.901 285.104,-250.42"/>
</g>
<!-- Node3 -->
<g id="node4" class="node"><title>Node3</title>
<polygon fill="white" stroke="#bfbfbf" points="227.406,-56.5 227.406,-75.5 268.406,-75.5 268.406,-56.5 227.406,-56.5"/>
<text text-anchor="middle" x="247.906" y="-63.5" font-family="Helvetica,sans-Serif" font-size="10.00">string</text>
</g>
<!-- Node2&#45;&gt;Node3 -->
<g id="edge3" class="edge"><title>Node2&#45;&gt;Node3</title>
<path fill="none" stroke="midnightblue" d="M179.726,-224.317C186.365,-204.194 203.862,-152.962 222.906,-112 227.239,-102.68 232.724,-92.6528 237.451,-84.4342"/>
<polygon fill="midnightblue" stroke="midnightblue" points="240.494,-86.1637 242.539,-75.768 234.458,-82.6199 240.494,-86.1637"/>
</g>
<!-- Node4 -->
<g id="node5" class="node"><title>Node4</title>
<polygon fill="white" stroke="#bfbfbf" points="88.4056,-168.5 88.4056,-187.5 129.406,-187.5 129.406,-168.5 88.4056,-168.5"/>
<text text-anchor="middle" x="108.906" y="-175.5" font-family="Helvetica,sans-Serif" font-size="10.00">stack</text>
</g>
<!-- Node2&#45;&gt;Node4 -->
<g id="edge4" class="edge"><title>Node2&#45;&gt;Node4</title>
<path fill="none" stroke="midnightblue" d="M165.98,-224.324C155.731,-216.185 140.185,-203.839 127.905,-194.087"/>
<polygon fill="midnightblue" stroke="midnightblue" points="130.037,-191.312 120.03,-187.834 125.684,-196.794 130.037,-191.312"/>
</g>
<!-- Node5 -->
<g id="node6" class="node"><title>Node5</title>
<g id="a_node6"><a xlink:href="State_8h.html" target="_top" xlink:title="State.h">
<polygon fill="white" stroke="black" points="331.906,-168.5 331.906,-187.5 379.906,-187.5 379.906,-168.5 331.906,-168.5"/>
<text text-anchor="middle" x="355.906" y="-175.5" font-family="Helvetica,sans-Serif" font-size="10.00">State.h</text>
</a>
</g>
</g>
<!-- Node2&#45;&gt;Node5 -->
<g id="edge5" class="edge"><title>Node2&#45;&gt;Node5</title>
<path fill="none" stroke="midnightblue" d="M202.552,-225.263C233.963,-215.787 287.268,-199.706 322.027,-189.22"/>
<polygon fill="midnightblue" stroke="midnightblue" points="323.177,-192.529 331.74,-186.29 321.155,-185.828 323.177,-192.529"/>
</g>
<!-- Node8 -->
<g id="node9" class="node"><title>Node8</title>
<g id="a_node9"><a xlink:href="Vec2_8h.html" target="_top" xlink:title="Vec2.h">
<polygon fill="white" stroke="black" points="175.406,-0.5 175.406,-19.5 222.406,-19.5 222.406,-0.5 175.406,-0.5"/>
<text text-anchor="middle" x="198.906" y="-7.5" font-family="Helvetica,sans-Serif" font-size="10.00">Vec2.h</text>
</a>
</g>
</g>
<!-- Node2&#45;&gt;Node8 -->
<g id="edge17" class="edge"><title>Node2&#45;&gt;Node8</title>
<path fill="none" stroke="midnightblue" d="M151.103,-225.959C129.761,-219.091 99.6872,-206.888 78.9056,-188 30.5132,-144.017 -26.5025,-107.415 13.9056,-56 32.3635,-32.5141 116.971,-19.7605 165.124,-14.2915"/>
<polygon fill="midnightblue" stroke="midnightblue" points="165.533,-17.7678 175.094,-13.204 164.774,-10.8091 165.533,-17.7678"/>
</g>
<!-- Node12 -->
<g id="node13" class="node"><title>Node12</title>
<g id="a_node13"><a xlink:href="InputManager_8h.html" target="_top" xlink:title="InputManager.h">
<polygon fill="white" stroke="black" points="86.9056,-112.5 86.9056,-131.5 170.906,-131.5 170.906,-112.5 86.9056,-112.5"/>
<text text-anchor="middle" x="128.906" y="-119.5" font-family="Helvetica,sans-Serif" font-size="10.00">InputManager.h</text>
</a>
</g>
</g>
<!-- Node2&#45;&gt;Node12 -->
<g id="edge13" class="edge"><title>Node2&#45;&gt;Node12</title>
<path fill="none" stroke="midnightblue" d="M173.139,-224.368C165.323,-206.456 147.199,-164.923 136.737,-140.948"/>
<polygon fill="midnightblue" stroke="midnightblue" points="139.862,-139.357 132.655,-131.591 133.446,-142.157 139.862,-139.357"/>
</g>
<!-- Node6 -->
<g id="node7" class="node"><title>Node6</title>
<g id="a_node7"><a xlink:href="Gameobject_8h.html" target="_top" xlink:title="Gameobject.h">
<polygon fill="white" stroke="black" points="231.406,-112.5 231.406,-131.5 308.406,-131.5 308.406,-112.5 231.406,-112.5"/>
<text text-anchor="middle" x="269.906" y="-119.5" font-family="Helvetica,sans-Serif" font-size="10.00">Gameobject.h</text>
</a>
</g>
</g>
<!-- Node5&#45;&gt;Node6 -->
<g id="edge6" class="edge"><title>Node5&#45;&gt;Node6</title>
<path fill="none" stroke="midnightblue" d="M342.088,-168.324C328.673,-159.9 308.081,-146.971 292.32,-137.074"/>
<polygon fill="midnightblue" stroke="midnightblue" points="294.019,-134.008 283.689,-131.655 290.296,-139.936 294.019,-134.008"/>
</g>
<!-- Node10 -->
<g id="node11" class="node"><title>Node10</title>
<polygon fill="white" stroke="#bfbfbf" points="326.906,-112.5 326.906,-131.5 370.906,-131.5 370.906,-112.5 326.906,-112.5"/>
<text text-anchor="middle" x="348.906" y="-119.5" font-family="Helvetica,sans-Serif" font-size="10.00">vector</text>
</g>
<!-- Node5&#45;&gt;Node10 -->
<g id="edge11" class="edge"><title>Node5&#45;&gt;Node10</title>
<path fill="none" stroke="midnightblue" d="M354.75,-168.083C353.822,-160.927 352.488,-150.635 351.328,-141.691"/>
<polygon fill="midnightblue" stroke="midnightblue" points="354.797,-141.218 350.04,-131.751 347.855,-142.118 354.797,-141.218"/>
</g>
<!-- Node11 -->
<g id="node12" class="node"><title>Node11</title>
<polygon fill="white" stroke="#bfbfbf" points="388.906,-112.5 388.906,-131.5 440.906,-131.5 440.906,-112.5 388.906,-112.5"/>
<text text-anchor="middle" x="414.906" y="-119.5" font-family="Helvetica,sans-Serif" font-size="10.00">memory</text>
</g>
<!-- Node5&#45;&gt;Node11 -->
<g id="edge12" class="edge"><title>Node5&#45;&gt;Node11</title>
<path fill="none" stroke="midnightblue" d="M365.385,-168.324C374.107,-160.341 387.249,-148.313 397.803,-138.653"/>
<polygon fill="midnightblue" stroke="midnightblue" points="400.24,-141.167 405.254,-131.834 395.514,-136.004 400.24,-141.167"/>
</g>
<!-- Node6&#45;&gt;Node3 -->
<g id="edge10" class="edge"><title>Node6&#45;&gt;Node3</title>
<path fill="none" stroke="midnightblue" d="M266.273,-112.083C263.293,-104.77 258.979,-94.1814 255.281,-85.1034"/>
<polygon fill="midnightblue" stroke="midnightblue" points="258.485,-83.6914 251.471,-75.7511 252.003,-86.3326 258.485,-83.6914"/>
</g>
<!-- Node7 -->
<g id="node8" class="node"><title>Node7</title>
<g id="a_node8"><a xlink:href="Rect_8h.html" target="_top" xlink:title="Rect.h">
<polygon fill="white" stroke="black" points="286.906,-56.5 286.906,-75.5 332.906,-75.5 332.906,-56.5 286.906,-56.5"/>
<text text-anchor="middle" x="309.906" y="-63.5" font-family="Helvetica,sans-Serif" font-size="10.00">Rect.h</text>
</a>
</g>
</g>
<!-- Node6&#45;&gt;Node7 -->
<g id="edge7" class="edge"><title>Node6&#45;&gt;Node7</title>
<path fill="none" stroke="midnightblue" d="M276.511,-112.083C282.161,-104.455 290.45,-93.2645 297.357,-83.9408"/>
<polygon fill="midnightblue" stroke="midnightblue" points="300.283,-85.87 303.423,-75.7511 294.659,-81.7034 300.283,-85.87"/>
</g>
<!-- Node7&#45;&gt;Node8 -->
<g id="edge8" class="edge"><title>Node7&#45;&gt;Node8</title>
<path fill="none" stroke="midnightblue" d="M292.071,-56.324C274.19,-47.6247 246.431,-34.1202 225.86,-24.113"/>
<polygon fill="midnightblue" stroke="midnightblue" points="227.219,-20.8819 216.695,-19.6545 224.157,-27.1765 227.219,-20.8819"/>
</g>
<!-- Node9 -->
<g id="node10" class="node"><title>Node9</title>
<polygon fill="white" stroke="#bfbfbf" points="287.906,-0.5 287.906,-19.5 331.906,-19.5 331.906,-0.5 287.906,-0.5"/>
<text text-anchor="middle" x="309.906" y="-7.5" font-family="Helvetica,sans-Serif" font-size="10.00">cmath</text>
</g>
<!-- Node7&#45;&gt;Node9 -->
<g id="edge9" class="edge"><title>Node7&#45;&gt;Node9</title>
<path fill="none" stroke="midnightblue" d="M309.906,-56.083C309.906,-49.0059 309.906,-38.8611 309.906,-29.9865"/>
<polygon fill="midnightblue" stroke="midnightblue" points="313.406,-29.751 309.906,-19.7511 306.406,-29.7511 313.406,-29.751"/>
</g>
<!-- Node12&#45;&gt;Node8 -->
<g id="edge14" class="edge"><title>Node12&#45;&gt;Node8</title>
<path fill="none" stroke="midnightblue" d="M142.551,-112.254C154.105,-104.172 170.279,-91.1484 179.906,-76 188.872,-61.891 193.739,-43.4029 196.295,-29.7527"/>
<polygon fill="midnightblue" stroke="midnightblue" points="199.791,-30.0581 197.937,-19.6267 192.881,-28.9373 199.791,-30.0581"/>
</g>
<!-- Node13 -->
<g id="node14" class="node"><title>Node13</title>
<polygon fill="white" stroke="#bfbfbf" points="23.4056,-56.5 23.4056,-75.5 106.406,-75.5 106.406,-56.5 23.4056,-56.5"/>
<text text-anchor="middle" x="64.9056" y="-63.5" font-family="Helvetica,sans-Serif" font-size="10.00">unordered_map</text>
</g>
<!-- Node12&#45;&gt;Node13 -->
<g id="edge15" class="edge"><title>Node12&#45;&gt;Node13</title>
<path fill="none" stroke="midnightblue" d="M118.623,-112.324C109.069,-104.263 94.6259,-92.0765 83.1212,-82.3695"/>
<polygon fill="midnightblue" stroke="midnightblue" points="85.2754,-79.6076 75.3754,-75.8339 80.7612,-84.9577 85.2754,-79.6076"/>
</g>
<!-- Node14 -->
<g id="node15" class="node"><title>Node14</title>
<polygon fill="white" stroke="#bfbfbf" points="124.906,-56.5 124.906,-75.5 170.906,-75.5 170.906,-56.5 124.906,-56.5"/>
<text text-anchor="middle" x="147.906" y="-63.5" font-family="Helvetica,sans-Serif" font-size="10.00">cstdint</text>
</g>
<!-- Node12&#45;&gt;Node14 -->
<g id="edge16" class="edge"><title>Node12&#45;&gt;Node14</title>
<path fill="none" stroke="midnightblue" d="M132.043,-112.083C134.588,-104.849 138.262,-94.4087 141.433,-85.3968"/>
<polygon fill="midnightblue" stroke="midnightblue" points="144.809,-86.3459 144.826,-75.7511 138.206,-84.0225 144.809,-86.3459"/>
</g>
<!-- Node15&#45;&gt;Node5 -->
<g id="edge19" class="edge"><title>Node15&#45;&gt;Node5</title>
<path fill="none" stroke="midnightblue" d="M321.676,-224.083C327.467,-216.455 335.964,-205.264 343.043,-195.941"/>
<polygon fill="midnightblue" stroke="midnightblue" points="346.002,-197.832 349.261,-187.751 340.427,-193.599 346.002,-197.832"/>
</g>
<!-- Node16 -->
<g id="node17" class="node"><title>Node16</title>
<g id="a_node17"><a xlink:href="Sprite_8h.html" target="_top" xlink:title="Sprite.h">
<polygon fill="white" stroke="black" points="397.906,-168.5 397.906,-187.5 447.906,-187.5 447.906,-168.5 397.906,-168.5"/>
<text text-anchor="middle" x="422.906" y="-175.5" font-family="Helvetica,sans-Serif" font-size="10.00">Sprite.h</text>
</a>
</g>
</g>
<!-- Node15&#45;&gt;Node16 -->
<g id="edge20" class="edge"><title>Node15&#45;&gt;Node16</title>
<path fill="none" stroke="midnightblue" d="M332.258,-224.324C349.577,-215.664 376.421,-202.242 396.408,-192.249"/>
<polygon fill="midnightblue" stroke="midnightblue" points="398.218,-195.257 405.597,-187.655 395.087,-188.996 398.218,-195.257"/>
</g>
<!-- Node17 -->
<g id="node18" class="node"><title>Node17</title>
<g id="a_node18"><a xlink:href="ActionManager_8h.html" target="_top" xlink:title="ActionManager.h">
<polygon fill="white" stroke="black" points="223.906,-168.5 223.906,-187.5 313.906,-187.5 313.906,-168.5 223.906,-168.5"/>
<text text-anchor="middle" x="268.906" y="-175.5" font-family="Helvetica,sans-Serif" font-size="10.00">ActionManager.h</text>
</a>
</g>
</g>
<!-- Node15&#45;&gt;Node17 -->
<g id="edge23" class="edge"><title>Node15&#45;&gt;Node17</title>
<path fill="none" stroke="midnightblue" d="M307.31,-224.083C300.678,-216.298 290.885,-204.801 282.847,-195.367"/>
<polygon fill="midnightblue" stroke="midnightblue" points="285.509,-193.094 276.36,-187.751 280.181,-197.633 285.509,-193.094"/>
</g>
<!-- Node16&#45;&gt;Node3 -->
<g id="edge21" class="edge"><title>Node16&#45;&gt;Node3</title>
<path fill="none" stroke="midnightblue" d="M431.885,-168.173C444.366,-154.832 463.928,-129.262 449.906,-112 402.584,-53.7488 357.28,-91.9715 278.299,-75.6945"/>
<polygon fill="midnightblue" stroke="midnightblue" points="279.029,-72.2711 268.498,-73.4292 277.453,-79.0913 279.029,-72.2711"/>
</g>
<!-- Node16&#45;&gt;Node11 -->
<g id="edge22" class="edge"><title>Node16&#45;&gt;Node11</title>
<path fill="none" stroke="midnightblue" d="M421.585,-168.083C420.524,-160.927 419,-150.635 417.675,-141.691"/>
<polygon fill="midnightblue" stroke="midnightblue" points="421.13,-141.13 416.202,-131.751 414.205,-142.156 421.13,-141.13"/>
</g>
<!-- Node17&#45;&gt;Node12 -->
<g id="edge24" class="edge"><title>Node17&#45;&gt;Node12</title>
<path fill="none" stroke="midnightblue" d="M246.722,-168.444C223.477,-159.478 186.757,-145.314 160.49,-135.183"/>
<polygon fill="midnightblue" stroke="midnightblue" points="161.575,-131.85 150.985,-131.516 159.056,-138.381 161.575,-131.85"/>
</g>
</g>
</svg>
