<?xml version="1.0" encoding="UTF-8" standalone="no"?>
<!DOCTYPE svg PUBLIC "-//W3C//DTD SVG 1.1//EN"
 "http://www.w3.org/Graphics/SVG/1.1/DTD/svg11.dtd">
<!-- Generated by graphviz version 2.36.0 (20140111.2315)
 -->
<!-- Title: Engine/src/ManhattanDistance.cpp Pages: 1 -->
<svg width="178pt" height="252pt"
 viewBox="0.00 0.00 178.00 252.00" xmlns="http://www.w3.org/2000/svg" xmlns:xlink="http://www.w3.org/1999/xlink">
<g id="graph0" class="graph" transform="scale(1 1) rotate(0) translate(4 248)">
<title>Engine/src/ManhattanDistance.cpp</title>
<polygon fill="white" stroke="none" points="-4,4 -4,-248 174,-248 174,4 -4,4"/>
<!-- Node1 -->
<g id="node1" class="node"><title>Node1</title>
<polygon fill="#bfbfbf" stroke="black" points="0,-224.5 0,-243.5 170,-243.5 170,-224.5 0,-224.5"/>
<text text-anchor="middle" x="85" y="-231.5" font-family="Helvetica,sans-Serif" font-size="10.00">Engine/src/ManhattanDistance.cpp</text>
</g>
<!-- Node2 -->
<g id="node2" class="node"><title>Node2</title>
<g id="a_node2"><a xlink:href="ManhattanDistance_8h.html" target="_top" xlink:title="ManhattanDistance.h">
<polygon fill="white" stroke="black" points="30,-168.5 30,-187.5 140,-187.5 140,-168.5 30,-168.5"/>
<text text-anchor="middle" x="85" y="-175.5" font-family="Helvetica,sans-Serif" font-size="10.00">ManhattanDistance.h</text>
</a>
</g>
</g>
<!-- Node1&#45;&gt;Node2 -->
<g id="edge1" class="edge"><title>Node1&#45;&gt;Node2</title>
<path fill="none" stroke="midnightblue" d="M85,-224.083C85,-217.006 85,-206.861 85,-197.986"/>
<polygon fill="midnightblue" stroke="midnightblue" points="88.5001,-197.751 85,-187.751 81.5001,-197.751 88.5001,-197.751"/>
</g>
<!-- Node3 -->
<g id="node3" class="node"><title>Node3</title>
<g id="a_node3"><a xlink:href="AStarHeuristic_8h.html" target="_top" xlink:title="AStarHeuristic.h">
<polygon fill="white" stroke="black" points="40.5,-112.5 40.5,-131.5 129.5,-131.5 129.5,-112.5 40.5,-112.5"/>
<text text-anchor="middle" x="85" y="-119.5" font-family="Helvetica,sans-Serif" font-size="10.00">AStarHeuristic.h</text>
</a>
</g>
</g>
<!-- Node2&#45;&gt;Node3 -->
<g id="edge2" class="edge"><title>Node2&#45;&gt;Node3</title>
<path fill="none" stroke="midnightblue" d="M85,-168.083C85,-161.006 85,-150.861 85,-141.986"/>
<polygon fill="midnightblue" stroke="midnightblue" points="88.5001,-141.751 85,-131.751 81.5001,-141.751 88.5001,-141.751"/>
</g>
<!-- Node4 -->
<g id="node4" class="node"><title>Node4</title>
<g id="a_node4"><a xlink:href="Vec2_8h.html" target="_top" xlink:title="Vec2.h">
<polygon fill="white" stroke="black" points="61.5,-56.5 61.5,-75.5 108.5,-75.5 108.5,-56.5 61.5,-56.5"/>
<text text-anchor="middle" x="85" y="-63.5" font-family="Helvetica,sans-Serif" font-size="10.00">Vec2.h</text>
</a>
</g>
</g>
<!-- Node3&#45;&gt;Node4 -->
<g id="edge3" class="edge"><title>Node3&#45;&gt;Node4</title>
<path fill="none" stroke="midnightblue" d="M85,-112.083C85,-105.006 85,-94.8611 85,-85.9865"/>
<polygon fill="midnightblue" stroke="midnightblue" points="88.5001,-85.751 85,-75.7511 81.5001,-85.7511 88.5001,-85.751"/>
</g>
<!-- Node5 -->
<g id="node5" class="node"><title>Node5</title>
<g id="a_node5"><a xlink:href="SDL__include_8h.html" target="_top" xlink:title="SDL_include.h">
<polygon fill="white" stroke="black" points="45,-0.5 45,-19.5 125,-19.5 125,-0.5 45,-0.5"/>
<text text-anchor="middle" x="85" y="-7.5" font-family="Helvetica,sans-Serif" font-size="10.00">SDL_include.h</text>
</a>
</g>
</g>
<!-- Node4&#45;&gt;Node5 -->
<g id="edge4" class="edge"><title>Node4&#45;&gt;Node5</title>
<path fill="none" stroke="midnightblue" d="M85,-56.083C85,-49.0059 85,-38.8611 85,-29.9865"/>
<polygon fill="midnightblue" stroke="midnightblue" points="88.5001,-29.751 85,-19.7511 81.5001,-29.7511 88.5001,-29.751"/>
</g>
</g>
</svg>
