<?xml version="1.0" encoding="UTF-8" standalone="no"?>
<!DOCTYPE svg PUBLIC "-//W3C//DTD SVG 1.1//EN"
 "http://www.w3.org/Graphics/SVG/1.1/DTD/svg11.dtd">
<!-- Generated by graphviz version 2.38.0 (20140413.2041)
 -->
<!-- Title: Engine/src/Music.cpp Pages: 1 -->
<svg width="490pt" height="196pt"
 viewBox="0.00 0.00 489.50 196.00" xmlns="http://www.w3.org/2000/svg" xmlns:xlink="http://www.w3.org/1999/xlink">
<g id="graph0" class="graph" transform="scale(1 1) rotate(0) translate(4 192)">
<title>Engine/src/Music.cpp</title>
<polygon fill="white" stroke="none" points="-4,4 -4,-192 485.5,-192 485.5,4 -4,4"/>
<!-- Node0 -->
<g id="node1" class="node"><title>Node0</title>
<polygon fill="#bfbfbf" stroke="black" points="94,-168.5 94,-187.5 205,-187.5 205,-168.5 94,-168.5"/>
<text text-anchor="middle" x="149.5" y="-175.5" font-family="Helvetica,sans-Serif" font-size="10.00">Engine/src/Music.cpp</text>
</g>
<!-- Node1 -->
<g id="node2" class="node"><title>Node1</title>
<g id="a_node2"><a xlink:href="Music_8h.html" target="_top" xlink:title="Music.h">
<polygon fill="white" stroke="black" points="124,-112.5 124,-131.5 175,-131.5 175,-112.5 124,-112.5"/>
<text text-anchor="middle" x="149.5" y="-119.5" font-family="Helvetica,sans-Serif" font-size="10.00">Music.h</text>
</a>
</g>
</g>
<!-- Node0&#45;&gt;Node1 -->
<g id="edge1" class="edge"><title>Node0&#45;&gt;Node1</title>
<path fill="none" stroke="midnightblue" d="M149.5,-168.083C149.5,-161.006 149.5,-150.861 149.5,-141.986"/>
<polygon fill="midnightblue" stroke="midnightblue" points="153,-141.751 149.5,-131.751 146,-141.751 153,-141.751"/>
</g>
<!-- Node2 -->
<g id="node3" class="node"><title>Node2</title>
<polygon fill="white" stroke="#bfbfbf" points="0,-0.5 0,-19.5 41,-19.5 41,-0.5 0,-0.5"/>
<text text-anchor="middle" x="20.5" y="-7.5" font-family="Helvetica,sans-Serif" font-size="10.00">string</text>
</g>
<!-- Node1&#45;&gt;Node2 -->
<g id="edge2" class="edge"><title>Node1&#45;&gt;Node2</title>
<path fill="none" stroke="midnightblue" d="M137.967,-112.253C126.325,-103.34 107.912,-89.016 92.5,-76 73.1409,-59.6504 51.6652,-40.0647 37.249,-26.6954"/>
<polygon fill="midnightblue" stroke="midnightblue" points="39.3491,-23.8683 29.6461,-19.6135 34.5779,-28.9905 39.3491,-23.8683"/>
</g>
<!-- Node3 -->
<g id="node4" class="node"><title>Node3</title>
<polygon fill="white" stroke="#bfbfbf" points="59.5,-0.5 59.5,-19.5 111.5,-19.5 111.5,-0.5 59.5,-0.5"/>
<text text-anchor="middle" x="85.5" y="-7.5" font-family="Helvetica,sans-Serif" font-size="10.00">memory</text>
</g>
<!-- Node1&#45;&gt;Node3 -->
<g id="edge3" class="edge"><title>Node1&#45;&gt;Node3</title>
<path fill="none" stroke="midnightblue" d="M137.892,-112.233C127.696,-103.949 113.173,-90.6382 104.5,-76 95.9786,-61.618 91.0618,-43.1602 88.3742,-29.5908"/>
<polygon fill="midnightblue" stroke="midnightblue" points="91.7862,-28.7839 86.6108,-19.5391 84.8915,-29.9935 91.7862,-28.7839"/>
</g>
<!-- Node4 -->
<g id="node5" class="node"><title>Node4</title>
<g id="a_node5"><a xlink:href="Resources_8h.html" target="_top" xlink:title="Resources.h">
<polygon fill="white" stroke="black" points="113.5,-56.5 113.5,-75.5 185.5,-75.5 185.5,-56.5 113.5,-56.5"/>
<text text-anchor="middle" x="149.5" y="-63.5" font-family="Helvetica,sans-Serif" font-size="10.00">Resources.h</text>
</a>
</g>
</g>
<!-- Node1&#45;&gt;Node4 -->
<g id="edge4" class="edge"><title>Node1&#45;&gt;Node4</title>
<path fill="none" stroke="midnightblue" d="M149.5,-112.083C149.5,-105.006 149.5,-94.8611 149.5,-85.9865"/>
<polygon fill="midnightblue" stroke="midnightblue" points="153,-85.751 149.5,-75.7511 146,-85.7511 153,-85.751"/>
</g>
<!-- Node6 -->
<g id="node7" class="node"><title>Node6</title>
<g id="a_node7"><a xlink:href="Error_8h.html" target="_top" xlink:title="Error.h">
<polygon fill="white" stroke="black" points="362.5,-56.5 362.5,-75.5 408.5,-75.5 408.5,-56.5 362.5,-56.5"/>
<text text-anchor="middle" x="385.5" y="-63.5" font-family="Helvetica,sans-Serif" font-size="10.00">Error.h</text>
</a>
</g>
</g>
<!-- Node1&#45;&gt;Node6 -->
<g id="edge8" class="edge"><title>Node1&#45;&gt;Node6</title>
<path fill="none" stroke="midnightblue" d="M175.205,-115.118C218.278,-105.263 304.969,-85.4265 352.489,-74.5534"/>
<polygon fill="midnightblue" stroke="midnightblue" points="353.316,-77.9546 362.284,-72.3122 351.755,-71.1309 353.316,-77.9546"/>
</g>
<!-- Node9 -->
<g id="node10" class="node"><title>Node9</title>
<g id="a_node10"><a xlink:href="InputManager_8h.html" target="_top" xlink:title="InputManager.h">
<polygon fill="white" stroke="black" points="207.5,-56.5 207.5,-75.5 291.5,-75.5 291.5,-56.5 207.5,-56.5"/>
<text text-anchor="middle" x="249.5" y="-63.5" font-family="Helvetica,sans-Serif" font-size="10.00">InputManager.h</text>
</a>
</g>
</g>
<!-- Node1&#45;&gt;Node9 -->
<g id="edge11" class="edge"><title>Node1&#45;&gt;Node9</title>
<path fill="none" stroke="midnightblue" d="M165.567,-112.324C181.458,-103.743 206.007,-90.486 224.458,-80.5224"/>
<polygon fill="midnightblue" stroke="midnightblue" points="226.337,-83.4857 233.473,-75.6545 223.011,-77.3264 226.337,-83.4857"/>
</g>
<!-- Node4&#45;&gt;Node2 -->
<g id="edge5" class="edge"><title>Node4&#45;&gt;Node2</title>
<path fill="none" stroke="midnightblue" d="M129.06,-56.4435C107.83,-47.5566 74.401,-33.5632 50.245,-23.4514"/>
<polygon fill="midnightblue" stroke="midnightblue" points="51.4207,-20.1493 40.8448,-19.5164 48.7177,-26.6064 51.4207,-20.1493"/>
</g>
<!-- Node4&#45;&gt;Node3 -->
<g id="edge7" class="edge"><title>Node4&#45;&gt;Node3</title>
<path fill="none" stroke="midnightblue" d="M139.217,-56.324C129.664,-48.2631 115.22,-36.0765 103.716,-26.3695"/>
<polygon fill="midnightblue" stroke="midnightblue" points="105.87,-23.6076 95.9698,-19.8339 101.356,-28.9577 105.87,-23.6076"/>
</g>
<!-- Node5 -->
<g id="node6" class="node"><title>Node5</title>
<polygon fill="white" stroke="#bfbfbf" points="130,-0.5 130,-19.5 213,-19.5 213,-0.5 130,-0.5"/>
<text text-anchor="middle" x="171.5" y="-7.5" font-family="Helvetica,sans-Serif" font-size="10.00">unordered_map</text>
</g>
<!-- Node4&#45;&gt;Node5 -->
<g id="edge6" class="edge"><title>Node4&#45;&gt;Node5</title>
<path fill="none" stroke="midnightblue" d="M153.133,-56.083C156.112,-48.77 160.426,-38.1814 164.125,-29.1034"/>
<polygon fill="midnightblue" stroke="midnightblue" points="167.403,-30.3326 167.935,-19.7511 160.92,-27.6914 167.403,-30.3326"/>
</g>
<!-- Node7 -->
<g id="node8" class="node"><title>Node7</title>
<polygon fill="white" stroke="#bfbfbf" points="427.5,-0.5 427.5,-19.5 481.5,-19.5 481.5,-0.5 427.5,-0.5"/>
<text text-anchor="middle" x="454.5" y="-7.5" font-family="Helvetica,sans-Serif" font-size="10.00">iostream</text>
</g>
<!-- Node6&#45;&gt;Node7 -->
<g id="edge9" class="edge"><title>Node6&#45;&gt;Node7</title>
<path fill="none" stroke="midnightblue" d="M396.586,-56.324C406.986,-48.1849 422.761,-35.8395 435.222,-26.0874"/>
<polygon fill="midnightblue" stroke="midnightblue" points="437.494,-28.7533 443.212,-19.8339 433.18,-23.2407 437.494,-28.7533"/>
</g>
<!-- Node8 -->
<g id="node9" class="node"><title>Node8</title>
<polygon fill="white" stroke="#bfbfbf" points="361.5,-0.5 361.5,-19.5 409.5,-19.5 409.5,-0.5 361.5,-0.5"/>
<text text-anchor="middle" x="385.5" y="-7.5" font-family="Helvetica,sans-Serif" font-size="10.00">stdlib.h</text>
</g>
<!-- Node6&#45;&gt;Node8 -->
<g id="edge10" class="edge"><title>Node6&#45;&gt;Node8</title>
<path fill="none" stroke="midnightblue" d="M385.5,-56.083C385.5,-49.0059 385.5,-38.8611 385.5,-29.9865"/>
<polygon fill="midnightblue" stroke="midnightblue" points="389,-29.751 385.5,-19.7511 382,-29.7511 389,-29.751"/>
</g>
<!-- Node9&#45;&gt;Node5 -->
<g id="edge13" class="edge"><title>Node9&#45;&gt;Node5</title>
<path fill="none" stroke="midnightblue" d="M236.968,-56.324C224.914,-47.979 206.473,-35.2122 192.231,-25.3524"/>
<polygon fill="midnightblue" stroke="midnightblue" points="194.215,-22.469 184.001,-19.6545 190.231,-28.2243 194.215,-22.469"/>
</g>
<!-- Node10 -->
<g id="node11" class="node"><title>Node10</title>
<g id="a_node11"><a xlink:href="Vec2_8h.html" target="_top" xlink:title="Vec2.h">
<polygon fill="white" stroke="black" points="296,-0.5 296,-19.5 343,-19.5 343,-0.5 296,-0.5"/>
<text text-anchor="middle" x="319.5" y="-7.5" font-family="Helvetica,sans-Serif" font-size="10.00">Vec2.h</text>
</a>
</g>
</g>
<!-- Node9&#45;&gt;Node10 -->
<g id="edge12" class="edge"><title>Node9&#45;&gt;Node10</title>
<path fill="none" stroke="midnightblue" d="M260.747,-56.324C271.297,-48.1849 287.301,-35.8395 299.942,-26.0874"/>
<polygon fill="midnightblue" stroke="midnightblue" points="302.269,-28.7132 308.049,-19.8339 297.993,-23.1707 302.269,-28.7132"/>
</g>
<!-- Node11 -->
<g id="node12" class="node"><title>Node11</title>
<polygon fill="white" stroke="#bfbfbf" points="231.5,-0.5 231.5,-19.5 277.5,-19.5 277.5,-0.5 231.5,-0.5"/>
<text text-anchor="middle" x="254.5" y="-7.5" font-family="Helvetica,sans-Serif" font-size="10.00">cstdint</text>
</g>
<!-- Node9&#45;&gt;Node11 -->
<g id="edge14" class="edge"><title>Node9&#45;&gt;Node11</title>
<path fill="none" stroke="midnightblue" d="M250.326,-56.083C250.981,-49.0059 251.92,-38.8611 252.742,-29.9865"/>
<polygon fill="midnightblue" stroke="midnightblue" points="256.253,-30.0312 253.69,-19.7511 249.283,-29.3858 256.253,-30.0312"/>
</g>
</g>
</svg>
