<?xml version="1.0" encoding="UTF-8" standalone="no"?>
<!DOCTYPE svg PUBLIC "-//W3C//DTD SVG 1.1//EN"
 "http://www.w3.org/Graphics/SVG/1.1/DTD/svg11.dtd">
<!-- Generated by graphviz version 2.36.0 (20140111.2315)
 -->
<!-- Title: Engine/include/Music.h Pages: 1 -->
<svg width="837pt" height="196pt"
 viewBox="0.00 0.00 837.00 196.00" xmlns="http://www.w3.org/2000/svg" xmlns:xlink="http://www.w3.org/1999/xlink">
<g id="graph0" class="graph" transform="scale(1 1) rotate(0) translate(4 192)">
<title>Engine/include/Music.h</title>
<polygon fill="white" stroke="none" points="-4,4 -4,-192 833,-192 833,4 -4,4"/>
<!-- Node1 -->
<g id="node1" class="node"><title>Node1</title>
<polygon fill="#bfbfbf" stroke="black" points="346,-168.5 346,-187.5 464,-187.5 464,-168.5 346,-168.5"/>
<text text-anchor="middle" x="405" y="-175.5" font-family="Helvetica,sans-Serif" font-size="10.00">Engine/include/Music.h</text>
</g>
<!-- Node2 -->
<g id="node2" class="node"><title>Node2</title>
<g id="a_node2"><a xlink:href="Music_8cpp.html" target="_top" xlink:title="Engine/src/Music.cpp">
<polygon fill="white" stroke="black" points="165.5,-112.5 165.5,-131.5 276.5,-131.5 276.5,-112.5 165.5,-112.5"/>
<text text-anchor="middle" x="221" y="-119.5" font-family="Helvetica,sans-Serif" font-size="10.00">Engine/src/Music.cpp</text>
</a>
</g>
</g>
<!-- Node1&#45;&gt;Node2 -->
<g id="edge1" class="edge"><title>Node1&#45;&gt;Node2</title>
<path fill="none" stroke="midnightblue" d="M366.046,-165.568C331.335,-155.381 281.323,-140.703 250.019,-131.516"/>
<polygon fill="midnightblue" stroke="midnightblue" points="365.264,-168.986 375.845,-168.444 367.235,-162.269 365.264,-168.986"/>
</g>
<!-- Node3 -->
<g id="node3" class="node"><title>Node3</title>
<g id="a_node3"><a xlink:href="EndState_8h.html" target="_top" xlink:title="Game/include/EndState.h">
<polygon fill="white" stroke="black" points="295,-112.5 295,-131.5 423,-131.5 423,-112.5 295,-112.5"/>
<text text-anchor="middle" x="359" y="-119.5" font-family="Helvetica,sans-Serif" font-size="10.00">Game/include/EndState.h</text>
</a>
</g>
</g>
<!-- Node1&#45;&gt;Node3 -->
<g id="edge2" class="edge"><title>Node1&#45;&gt;Node3</title>
<path fill="none" stroke="midnightblue" d="M390.886,-160.431C382.824,-150.967 373.041,-139.483 366.455,-131.751"/>
<polygon fill="midnightblue" stroke="midnightblue" points="388.255,-162.74 397.404,-168.083 393.584,-158.201 388.255,-162.74"/>
</g>
<!-- Node4 -->
<g id="node4" class="node"><title>Node4</title>
<g id="a_node4"><a xlink:href="StageState_8h.html" target="_top" xlink:title="Game/include/StageState.h">
<polygon fill="white" stroke="black" points="334.5,-56.5 334.5,-75.5 471.5,-75.5 471.5,-56.5 334.5,-56.5"/>
<text text-anchor="middle" x="403" y="-63.5" font-family="Helvetica,sans-Serif" font-size="10.00">Game/include/StageState.h</text>
</a>
</g>
</g>
<!-- Node1&#45;&gt;Node4 -->
<g id="edge11" class="edge"><title>Node1&#45;&gt;Node4</title>
<path fill="none" stroke="midnightblue" d="M418.978,-160.048C427.901,-147.14 436.942,-128.791 432,-112 427.854,-97.9125 417.779,-84.0728 410.673,-75.5413"/>
<polygon fill="midnightblue" stroke="midnightblue" points="415.92,-158.291 412.702,-168.386 421.513,-162.501 415.92,-158.291"/>
</g>
<!-- Node11 -->
<g id="node11" class="node"><title>Node11</title>
<g id="a_node11"><a xlink:href="TitleState_8h.html" target="_top" xlink:title="Game/include/TitleState.h">
<polygon fill="white" stroke="black" points="625,-112.5 625,-131.5 755,-131.5 755,-112.5 625,-112.5"/>
<text text-anchor="middle" x="690" y="-119.5" font-family="Helvetica,sans-Serif" font-size="10.00">Game/include/TitleState.h</text>
</a>
</g>
</g>
<!-- Node1&#45;&gt;Node11 -->
<g id="edge12" class="edge"><title>Node1&#45;&gt;Node11</title>
<path fill="none" stroke="midnightblue" d="M460.221,-166.537C514.083,-156.332 595.004,-140.999 645.052,-131.516"/>
<polygon fill="midnightblue" stroke="midnightblue" points="459.333,-163.143 450.159,-168.444 460.636,-170.021 459.333,-163.143"/>
</g>
<!-- Node3&#45;&gt;Node4 -->
<g id="edge3" class="edge"><title>Node3&#45;&gt;Node4</title>
<path fill="none" stroke="midnightblue" d="M372.735,-104.144C380.401,-94.7357 389.633,-83.4046 395.869,-75.7511"/>
<polygon fill="midnightblue" stroke="midnightblue" points="369.869,-102.12 366.266,-112.083 375.296,-106.541 369.869,-102.12"/>
</g>
<!-- Node5 -->
<g id="node5" class="node"><title>Node5</title>
<g id="a_node5"><a xlink:href="EndState_8cpp.html" target="_top" xlink:title="Game/src/EndState.cpp">
<polygon fill="white" stroke="black" points="0,-0.5 0,-19.5 122,-19.5 122,-0.5 0,-0.5"/>
<text text-anchor="middle" x="61" y="-7.5" font-family="Helvetica,sans-Serif" font-size="10.00">Game/src/EndState.cpp</text>
</a>
</g>
</g>
<!-- Node3&#45;&gt;Node5 -->
<g id="edge10" class="edge"><title>Node3&#45;&gt;Node5</title>
<path fill="none" stroke="midnightblue" d="M326.125,-108.865C265.375,-86.4404 136.94,-39.0315 84.2749,-19.5914"/>
<polygon fill="midnightblue" stroke="midnightblue" points="325.023,-112.189 335.616,-112.368 327.447,-105.622 325.023,-112.189"/>
</g>
<!-- Node4&#45;&gt;Node5 -->
<g id="edge4" class="edge"><title>Node4&#45;&gt;Node5</title>
<path fill="none" stroke="midnightblue" d="M338.74,-54.8537C274.123,-44.6509 175.619,-29.0977 114.937,-19.5164"/>
<polygon fill="midnightblue" stroke="midnightblue" points="338.386,-58.341 348.809,-56.4435 339.477,-51.4267 338.386,-58.341"/>
</g>
<!-- Node6 -->
<g id="node6" class="node"><title>Node6</title>
<g id="a_node6"><a xlink:href="Enemy_8cpp.html" target="_top" xlink:title="Game/src/Enemy.cpp">
<polygon fill="white" stroke="black" points="140,-0.5 140,-19.5 252,-19.5 252,-0.5 140,-0.5"/>
<text text-anchor="middle" x="196" y="-7.5" font-family="Helvetica,sans-Serif" font-size="10.00">Game/src/Enemy.cpp</text>
</a>
</g>
</g>
<!-- Node4&#45;&gt;Node6 -->
<g id="edge5" class="edge"><title>Node4&#45;&gt;Node6</title>
<path fill="none" stroke="midnightblue" d="M360.178,-53.8291C321.094,-43.6333 264.165,-28.7823 228.646,-19.5164"/>
<polygon fill="midnightblue" stroke="midnightblue" points="359.641,-57.3059 370.2,-56.4435 361.408,-50.5326 359.641,-57.3059"/>
</g>
<!-- Node7 -->
<g id="node7" class="node"><title>Node7</title>
<g id="a_node7"><a xlink:href="StageState_8cpp.html" target="_top" xlink:title="Game/src/StageState.cpp">
<polygon fill="white" stroke="black" points="270,-0.5 270,-19.5 400,-19.5 400,-0.5 270,-0.5"/>
<text text-anchor="middle" x="335" y="-7.5" font-family="Helvetica,sans-Serif" font-size="10.00">Game/src/StageState.cpp</text>
</a>
</g>
</g>
<!-- Node4&#45;&gt;Node7 -->
<g id="edge6" class="edge"><title>Node4&#45;&gt;Node7</title>
<path fill="none" stroke="midnightblue" d="M384.238,-50.1008C372,-40.3824 356.441,-28.0269 346.124,-19.8339"/>
<polygon fill="midnightblue" stroke="midnightblue" points="382.067,-52.846 392.075,-56.324 386.42,-47.3642 382.067,-52.846"/>
</g>
<!-- Node8 -->
<g id="node8" class="node"><title>Node8</title>
<g id="a_node8"><a xlink:href="TitleState_8cpp.html" target="_top" xlink:title="Game/src/TitleState.cpp">
<polygon fill="white" stroke="black" points="706.5,-0.5 706.5,-19.5 829.5,-19.5 829.5,-0.5 706.5,-0.5"/>
<text text-anchor="middle" x="768" y="-7.5" font-family="Helvetica,sans-Serif" font-size="10.00">Game/src/TitleState.cpp</text>
</a>
</g>
</g>
<!-- Node4&#45;&gt;Node8 -->
<g id="edge7" class="edge"><title>Node4&#45;&gt;Node8</title>
<path fill="none" stroke="midnightblue" d="M470.732,-54.9794C539.679,-44.7791 645.406,-29.1372 710.435,-19.5164"/>
<polygon fill="midnightblue" stroke="midnightblue" points="470.215,-51.5176 460.835,-56.4435 471.24,-58.4422 470.215,-51.5176"/>
</g>
<!-- Node9 -->
<g id="node9" class="node"><title>Node9</title>
<g id="a_node9"><a xlink:href="Tower_8cpp.html" target="_top" xlink:title="Game/src/Tower.cpp">
<polygon fill="white" stroke="black" points="418,-0.5 418,-19.5 526,-19.5 526,-0.5 418,-0.5"/>
<text text-anchor="middle" x="472" y="-7.5" font-family="Helvetica,sans-Serif" font-size="10.00">Game/src/Tower.cpp</text>
</a>
</g>
</g>
<!-- Node4&#45;&gt;Node9 -->
<g id="edge8" class="edge"><title>Node4&#45;&gt;Node9</title>
<path fill="none" stroke="midnightblue" d="M422.038,-50.1008C434.456,-40.3824 450.243,-28.0269 460.712,-19.8339"/>
<polygon fill="midnightblue" stroke="midnightblue" points="419.804,-47.4046 414.086,-56.324 424.118,-52.9171 419.804,-47.4046"/>
</g>
<!-- Node10 -->
<g id="node10" class="node"><title>Node10</title>
<g id="a_node10"><a xlink:href="WaveManager_8cpp.html" target="_top" xlink:title="Game/src/WaveManager.cpp">
<polygon fill="white" stroke="black" points="544,-0.5 544,-19.5 688,-19.5 688,-0.5 544,-0.5"/>
<text text-anchor="middle" x="616" y="-7.5" font-family="Helvetica,sans-Serif" font-size="10.00">Game/src/WaveManager.cpp</text>
</a>
</g>
</g>
<!-- Node4&#45;&gt;Node10 -->
<g id="edge9" class="edge"><title>Node4&#45;&gt;Node10</title>
<path fill="none" stroke="midnightblue" d="M446.551,-53.959C486.781,-43.7598 545.703,-28.8217 582.407,-19.5164"/>
<polygon fill="midnightblue" stroke="midnightblue" points="445.584,-50.5933 436.75,-56.4435 447.304,-57.3787 445.584,-50.5933"/>
</g>
<!-- Node11&#45;&gt;Node8 -->
<g id="edge14" class="edge"><title>Node11&#45;&gt;Node8</title>
<path fill="none" stroke="midnightblue" d="M692.315,-102.052C694.724,-88.3046 699.536,-69.7801 709,-56 719.94,-40.0712 738.315,-27.3595 751.657,-19.5635"/>
<polygon fill="midnightblue" stroke="midnightblue" points="688.805,-101.864 690.808,-112.268 695.73,-102.886 688.805,-101.864"/>
</g>
<!-- Node12 -->
<g id="node12" class="node"><title>Node12</title>
<g id="a_node12"><a xlink:href="main_8cpp.html" target="_top" xlink:title="Game/src/main.cpp">
<polygon fill="white" stroke="black" points="718,-56.5 718,-75.5 820,-75.5 820,-56.5 718,-56.5"/>
<text text-anchor="middle" x="769" y="-63.5" font-family="Helvetica,sans-Serif" font-size="10.00">Game/src/main.cpp</text>
</a>
</g>
</g>
<!-- Node11&#45;&gt;Node12 -->
<g id="edge13" class="edge"><title>Node11&#45;&gt;Node12</title>
<path fill="none" stroke="midnightblue" d="M711.034,-106.622C725.466,-96.7574 744.141,-83.9919 756.339,-75.6545"/>
<polygon fill="midnightblue" stroke="midnightblue" points="708.973,-103.791 702.693,-112.324 712.923,-109.57 708.973,-103.791"/>
</g>
</g>
</svg>
