<?xml version="1.0" encoding="UTF-8" standalone="no"?>
<!DOCTYPE svg PUBLIC "-//W3C//DTD SVG 1.1//EN"
 "http://www.w3.org/Graphics/SVG/1.1/DTD/svg11.dtd">
<!-- Generated by graphviz version 2.36.0 (20140111.2315)
 -->
<!-- Title: Engine/src/Music.cpp Pages: 1 -->
<svg width="358pt" height="196pt"
 viewBox="0.00 0.00 358.00 196.00" xmlns="http://www.w3.org/2000/svg" xmlns:xlink="http://www.w3.org/1999/xlink">
<g id="graph0" class="graph" transform="scale(1 1) rotate(0) translate(4 192)">
<title>Engine/src/Music.cpp</title>
<polygon fill="white" stroke="none" points="-4,4 -4,-192 354,-192 354,4 -4,4"/>
<!-- Node1 -->
<g id="node1" class="node"><title>Node1</title>
<polygon fill="#bfbfbf" stroke="black" points="44.5,-168.5 44.5,-187.5 155.5,-187.5 155.5,-168.5 44.5,-168.5"/>
<text text-anchor="middle" x="100" y="-175.5" font-family="Helvetica,sans-Serif" font-size="10.00">Engine/src/Music.cpp</text>
</g>
<!-- Node2 -->
<g id="node2" class="node"><title>Node2</title>
<g id="a_node2"><a xlink:href="Music_8h.html" target="_top" xlink:title="Music.h">
<polygon fill="white" stroke="black" points="74.5,-112.5 74.5,-131.5 125.5,-131.5 125.5,-112.5 74.5,-112.5"/>
<text text-anchor="middle" x="100" y="-119.5" font-family="Helvetica,sans-Serif" font-size="10.00">Music.h</text>
</a>
</g>
</g>
<!-- Node1&#45;&gt;Node2 -->
<g id="edge1" class="edge"><title>Node1&#45;&gt;Node2</title>
<path fill="none" stroke="midnightblue" d="M100,-168.083C100,-161.006 100,-150.861 100,-141.986"/>
<polygon fill="midnightblue" stroke="midnightblue" points="103.5,-141.751 100,-131.751 96.5001,-141.751 103.5,-141.751"/>
</g>
<!-- Node3 -->
<g id="node3" class="node"><title>Node3</title>
<polygon fill="white" stroke="#bfbfbf" points="-0.5,-0.5 -0.5,-19.5 40.5,-19.5 40.5,-0.5 -0.5,-0.5"/>
<text text-anchor="middle" x="20" y="-7.5" font-family="Helvetica,sans-Serif" font-size="10.00">string</text>
</g>
<!-- Node2&#45;&gt;Node3 -->
<g id="edge2" class="edge"><title>Node2&#45;&gt;Node3</title>
<path fill="none" stroke="midnightblue" d="M89.8465,-112.423C80.1196,-103.864 65.4204,-90.0054 55,-76 44.0261,-61.2507 34.3617,-42.6235 27.9846,-29.0944"/>
<polygon fill="midnightblue" stroke="midnightblue" points="31.1194,-27.5333 23.7814,-19.891 24.752,-30.4413 31.1194,-27.5333"/>
</g>
<!-- Node4 -->
<g id="node4" class="node"><title>Node4</title>
<g id="a_node4"><a xlink:href="Resources_8h.html" target="_top" xlink:title="Resources.h">
<polygon fill="white" stroke="black" points="64,-56.5 64,-75.5 136,-75.5 136,-56.5 64,-56.5"/>
<text text-anchor="middle" x="100" y="-63.5" font-family="Helvetica,sans-Serif" font-size="10.00">Resources.h</text>
</a>
</g>
</g>
<!-- Node2&#45;&gt;Node4 -->
<g id="edge3" class="edge"><title>Node2&#45;&gt;Node4</title>
<path fill="none" stroke="midnightblue" d="M100,-112.083C100,-105.006 100,-94.8611 100,-85.9865"/>
<polygon fill="midnightblue" stroke="midnightblue" points="103.5,-85.751 100,-75.7511 96.5001,-85.7511 103.5,-85.751"/>
</g>
<!-- Node7 -->
<g id="node7" class="node"><title>Node7</title>
<g id="a_node7"><a xlink:href="Error_8h.html" target="_top" xlink:title="Error.h">
<polygon fill="white" stroke="black" points="234,-56.5 234,-75.5 280,-75.5 280,-56.5 234,-56.5"/>
<text text-anchor="middle" x="257" y="-63.5" font-family="Helvetica,sans-Serif" font-size="10.00">Error.h</text>
</a>
</g>
</g>
<!-- Node2&#45;&gt;Node7 -->
<g id="edge7" class="edge"><title>Node2&#45;&gt;Node7</title>
<path fill="none" stroke="midnightblue" d="M124.877,-112.444C151.755,-103.199 194.7,-88.4281 224.293,-78.2495"/>
<polygon fill="midnightblue" stroke="midnightblue" points="225.457,-81.5506 233.775,-74.9883 223.18,-74.9312 225.457,-81.5506"/>
</g>
<!-- Node4&#45;&gt;Node3 -->
<g id="edge4" class="edge"><title>Node4&#45;&gt;Node3</title>
<path fill="none" stroke="midnightblue" d="M87.1466,-56.324C74.7836,-47.979 55.8699,-35.2122 41.2628,-25.3524"/>
<polygon fill="midnightblue" stroke="midnightblue" points="43.0682,-22.3483 32.8215,-19.6545 39.1518,-28.1503 43.0682,-22.3483"/>
</g>
<!-- Node5 -->
<g id="node5" class="node"><title>Node5</title>
<polygon fill="white" stroke="#bfbfbf" points="58.5,-0.5 58.5,-19.5 141.5,-19.5 141.5,-0.5 58.5,-0.5"/>
<text text-anchor="middle" x="100" y="-7.5" font-family="Helvetica,sans-Serif" font-size="10.00">unordered_map</text>
</g>
<!-- Node4&#45;&gt;Node5 -->
<g id="edge5" class="edge"><title>Node4&#45;&gt;Node5</title>
<path fill="none" stroke="midnightblue" d="M100,-56.083C100,-49.0059 100,-38.8611 100,-29.9865"/>
<polygon fill="midnightblue" stroke="midnightblue" points="103.5,-29.751 100,-19.7511 96.5001,-29.7511 103.5,-29.751"/>
</g>
<!-- Node6 -->
<g id="node6" class="node"><title>Node6</title>
<polygon fill="white" stroke="#bfbfbf" points="160,-0.5 160,-19.5 212,-19.5 212,-0.5 160,-0.5"/>
<text text-anchor="middle" x="186" y="-7.5" font-family="Helvetica,sans-Serif" font-size="10.00">memory</text>
</g>
<!-- Node4&#45;&gt;Node6 -->
<g id="edge6" class="edge"><title>Node4&#45;&gt;Node6</title>
<path fill="none" stroke="midnightblue" d="M113.817,-56.324C127.233,-47.9002 147.824,-34.9709 163.586,-25.0741"/>
<polygon fill="midnightblue" stroke="midnightblue" points="165.609,-27.9364 172.217,-19.6545 161.887,-22.0081 165.609,-27.9364"/>
</g>
<!-- Node8 -->
<g id="node8" class="node"><title>Node8</title>
<polygon fill="white" stroke="#bfbfbf" points="230,-0.5 230,-19.5 284,-19.5 284,-0.5 230,-0.5"/>
<text text-anchor="middle" x="257" y="-7.5" font-family="Helvetica,sans-Serif" font-size="10.00">iostream</text>
</g>
<!-- Node7&#45;&gt;Node8 -->
<g id="edge8" class="edge"><title>Node7&#45;&gt;Node8</title>
<path fill="none" stroke="midnightblue" d="M257,-56.083C257,-49.0059 257,-38.8611 257,-29.9865"/>
<polygon fill="midnightblue" stroke="midnightblue" points="260.5,-29.751 257,-19.7511 253.5,-29.7511 260.5,-29.751"/>
</g>
<!-- Node9 -->
<g id="node9" class="node"><title>Node9</title>
<polygon fill="white" stroke="#bfbfbf" points="302,-0.5 302,-19.5 350,-19.5 350,-0.5 302,-0.5"/>
<text text-anchor="middle" x="326" y="-7.5" font-family="Helvetica,sans-Serif" font-size="10.00">stdlib.h</text>
</g>
<!-- Node7&#45;&gt;Node9 -->
<g id="edge9" class="edge"><title>Node7&#45;&gt;Node9</title>
<path fill="none" stroke="midnightblue" d="M268.086,-56.324C278.486,-48.1849 294.261,-35.8395 306.722,-26.0874"/>
<polygon fill="midnightblue" stroke="midnightblue" points="308.994,-28.7533 314.712,-19.8339 304.68,-23.2407 308.994,-28.7533"/>
</g>
</g>
</svg>
