<?xml version="1.0" encoding="UTF-8" standalone="no"?>
<!DOCTYPE svg PUBLIC "-//W3C//DTD SVG 1.1//EN"
 "http://www.w3.org/Graphics/SVG/1.1/DTD/svg11.dtd">
<!-- Generated by graphviz version 2.36.0 (20140111.2315)
 -->
<!-- Title: Engine/include/NearestGOFinder.h Pages: 1 -->
<svg width="443pt" height="252pt"
 viewBox="0.00 0.00 443.07 252.00" xmlns="http://www.w3.org/2000/svg" xmlns:xlink="http://www.w3.org/1999/xlink">
<g id="graph0" class="graph" transform="scale(1 1) rotate(0) translate(4 248)">
<title>Engine/include/NearestGOFinder.h</title>
<polygon fill="white" stroke="none" points="-4,4 -4,-248 439.074,-248 439.074,4 -4,4"/>
<!-- Node1 -->
<g id="node1" class="node"><title>Node1</title>
<polygon fill="#bfbfbf" stroke="black" points="131.074,-224.5 131.074,-243.5 299.074,-243.5 299.074,-224.5 131.074,-224.5"/>
<text text-anchor="middle" x="215.074" y="-231.5" font-family="Helvetica,sans-Serif" font-size="10.00">Engine/include/NearestGOFinder.h</text>
</g>
<!-- Node2 -->
<g id="node2" class="node"><title>Node2</title>
<polygon fill="white" stroke="#bfbfbf" points="117.074,-168.5 117.074,-187.5 157.074,-187.5 157.074,-168.5 117.074,-168.5"/>
<text text-anchor="middle" x="137.074" y="-175.5" font-family="Helvetica,sans-Serif" font-size="10.00">limits</text>
</g>
<!-- Node1&#45;&gt;Node2 -->
<g id="edge1" class="edge"><title>Node1&#45;&gt;Node2</title>
<path fill="none" stroke="midnightblue" d="M202.542,-224.324C190.488,-215.979 172.048,-203.212 157.806,-193.352"/>
<polygon fill="midnightblue" stroke="midnightblue" points="159.79,-190.469 149.575,-187.655 155.805,-196.224 159.79,-190.469"/>
</g>
<!-- Node3 -->
<g id="node3" class="node"><title>Node3</title>
<g id="a_node3"><a xlink:href="Vec2_8h.html" target="_top" xlink:title="Vec2.h">
<polygon fill="white" stroke="black" points="387.574,-56.5 387.574,-75.5 434.574,-75.5 434.574,-56.5 387.574,-56.5"/>
<text text-anchor="middle" x="411.074" y="-63.5" font-family="Helvetica,sans-Serif" font-size="10.00">Vec2.h</text>
</a>
</g>
</g>
<!-- Node1&#45;&gt;Node3 -->
<g id="edge2" class="edge"><title>Node1&#45;&gt;Node3</title>
<path fill="none" stroke="midnightblue" d="M243.158,-224.463C282.326,-211.115 352.94,-181.567 392.074,-132 402.652,-118.603 407.343,-99.4946 409.422,-85.4626"/>
<polygon fill="midnightblue" stroke="midnightblue" points="412.901,-85.8436 410.592,-75.5035 405.949,-85.0268 412.901,-85.8436"/>
</g>
<!-- Node5 -->
<g id="node5" class="node"><title>Node5</title>
<g id="a_node5"><a xlink:href="GameObject_8h.html" target="_top" xlink:title="GameObject.h">
<polygon fill="white" stroke="black" points="175.074,-168.5 175.074,-187.5 255.074,-187.5 255.074,-168.5 175.074,-168.5"/>
<text text-anchor="middle" x="215.074" y="-175.5" font-family="Helvetica,sans-Serif" font-size="10.00">GameObject.h</text>
</a>
</g>
</g>
<!-- Node1&#45;&gt;Node5 -->
<g id="edge4" class="edge"><title>Node1&#45;&gt;Node5</title>
<path fill="none" stroke="midnightblue" d="M215.074,-224.083C215.074,-217.006 215.074,-206.861 215.074,-197.986"/>
<polygon fill="midnightblue" stroke="midnightblue" points="218.575,-197.751 215.074,-187.751 211.575,-197.751 218.575,-197.751"/>
</g>
<!-- Node4 -->
<g id="node4" class="node"><title>Node4</title>
<g id="a_node4"><a xlink:href="SDL__include_8h.html" target="_top" xlink:title="SDL_include.h">
<polygon fill="white" stroke="black" points="319.074,-0.5 319.074,-19.5 399.074,-19.5 399.074,-0.5 319.074,-0.5"/>
<text text-anchor="middle" x="359.074" y="-7.5" font-family="Helvetica,sans-Serif" font-size="10.00">SDL_include.h</text>
</a>
</g>
</g>
<!-- Node3&#45;&gt;Node4 -->
<g id="edge3" class="edge"><title>Node3&#45;&gt;Node4</title>
<path fill="none" stroke="midnightblue" d="M402.488,-56.083C394.915,-48.2195 383.696,-36.5688 374.56,-27.0813"/>
<polygon fill="midnightblue" stroke="midnightblue" points="376.959,-24.5266 367.501,-19.7511 371.917,-29.3821 376.959,-24.5266"/>
</g>
<!-- Node5&#45;&gt;Node4 -->
<g id="edge5" class="edge"><title>Node5&#45;&gt;Node4</title>
<path fill="none" stroke="midnightblue" d="M175.035,-169.118C114.602,-157.131 6.78403,-135.348 4.07443,-132 -1.51717,-125.09 -1.0401,-119.27 4.07443,-112 39.2736,-61.966 219.454,-30.3817 308.763,-17.5596"/>
<polygon fill="midnightblue" stroke="midnightblue" points="309.517,-20.988 318.929,-16.1248 308.538,-14.0567 309.517,-20.988"/>
</g>
<!-- Node6 -->
<g id="node6" class="node"><title>Node6</title>
<polygon fill="white" stroke="#bfbfbf" points="13.0744,-112.5 13.0744,-131.5 57.0744,-131.5 57.0744,-112.5 13.0744,-112.5"/>
<text text-anchor="middle" x="35.0744" y="-119.5" font-family="Helvetica,sans-Serif" font-size="10.00">vector</text>
</g>
<!-- Node5&#45;&gt;Node6 -->
<g id="edge6" class="edge"><title>Node5&#45;&gt;Node6</title>
<path fill="none" stroke="midnightblue" d="M186.553,-168.444C154.032,-158.687 100.996,-142.776 67.0863,-132.604"/>
<polygon fill="midnightblue" stroke="midnightblue" points="67.8047,-129.165 57.2206,-129.644 65.7932,-135.87 67.8047,-129.165"/>
</g>
<!-- Node7 -->
<g id="node7" class="node"><title>Node7</title>
<polygon fill="white" stroke="#bfbfbf" points="75.0744,-112.5 75.0744,-131.5 127.074,-131.5 127.074,-112.5 75.0744,-112.5"/>
<text text-anchor="middle" x="101.074" y="-119.5" font-family="Helvetica,sans-Serif" font-size="10.00">memory</text>
</g>
<!-- Node5&#45;&gt;Node7 -->
<g id="edge7" class="edge"><title>Node5&#45;&gt;Node7</title>
<path fill="none" stroke="midnightblue" d="M197.011,-168.444C178.5,-159.675 149.494,-145.935 128.219,-135.858"/>
<polygon fill="midnightblue" stroke="midnightblue" points="129.589,-132.634 119.054,-131.516 126.593,-138.96 129.589,-132.634"/>
</g>
<!-- Node8 -->
<g id="node8" class="node"><title>Node8</title>
<polygon fill="white" stroke="#bfbfbf" points="145.574,-112.5 145.574,-131.5 186.574,-131.5 186.574,-112.5 145.574,-112.5"/>
<text text-anchor="middle" x="166.074" y="-119.5" font-family="Helvetica,sans-Serif" font-size="10.00">string</text>
</g>
<!-- Node5&#45;&gt;Node8 -->
<g id="edge8" class="edge"><title>Node5&#45;&gt;Node8</title>
<path fill="none" stroke="midnightblue" d="M206.983,-168.083C199.919,-160.298 189.487,-148.801 180.926,-139.367"/>
<polygon fill="midnightblue" stroke="midnightblue" points="183.327,-136.805 174.015,-131.751 178.143,-141.509 183.327,-136.805"/>
</g>
<!-- Node9 -->
<g id="node9" class="node"><title>Node9</title>
<g id="a_node9"><a xlink:href="Component_8h.html" target="_top" xlink:title="Component.h">
<polygon fill="white" stroke="black" points="243.574,-112.5 243.574,-131.5 318.574,-131.5 318.574,-112.5 243.574,-112.5"/>
<text text-anchor="middle" x="281.074" y="-119.5" font-family="Helvetica,sans-Serif" font-size="10.00">Component.h</text>
</a>
</g>
</g>
<!-- Node5&#45;&gt;Node9 -->
<g id="edge9" class="edge"><title>Node5&#45;&gt;Node9</title>
<path fill="none" stroke="midnightblue" d="M220.807,-168.083C229.206,-159.777 244.224,-147.246 257.289,-137.502"/>
<polygon fill="midnightblue" stroke="midnightblue" points="259.443,-140.264 265.504,-131.573 255.347,-134.587 259.443,-140.264"/>
</g>
<!-- Node10 -->
<g id="node10" class="node"><title>Node10</title>
<g id="a_node10"><a xlink:href="ComponentType_8h.html" target="_top" xlink:title="ComponentType.h">
<polygon fill="white" stroke="black" points="169.574,-56.5 169.574,-75.5 266.574,-75.5 266.574,-56.5 169.574,-56.5"/>
<text text-anchor="middle" x="218.074" y="-63.5" font-family="Helvetica,sans-Serif" font-size="10.00">ComponentType.h</text>
</a>
</g>
</g>
<!-- Node5&#45;&gt;Node10 -->
<g id="edge12" class="edge"><title>Node5&#45;&gt;Node10</title>
<path fill="none" stroke="midnightblue" d="M215.31,-168.368C215.794,-150.617 216.911,-109.666 217.567,-85.5974"/>
<polygon fill="midnightblue" stroke="midnightblue" points="221.066,-85.6832 217.84,-75.5914 214.069,-85.4922 221.066,-85.6832"/>
</g>
<!-- Node11 -->
<g id="node11" class="node"><title>Node11</title>
<g id="a_node11"><a xlink:href="Rect_8h.html" target="_top" xlink:title="Rect.h">
<polygon fill="white" stroke="black" points="337.074,-112.5 337.074,-131.5 383.074,-131.5 383.074,-112.5 337.074,-112.5"/>
<text text-anchor="middle" x="360.074" y="-119.5" font-family="Helvetica,sans-Serif" font-size="10.00">Rect.h</text>
</a>
</g>
</g>
<!-- Node5&#45;&gt;Node11 -->
<g id="edge13" class="edge"><title>Node5&#45;&gt;Node11</title>
<path fill="none" stroke="midnightblue" d="M238.05,-168.444C262.231,-159.438 300.492,-145.189 327.721,-135.049"/>
<polygon fill="midnightblue" stroke="midnightblue" points="329.057,-138.286 337.206,-131.516 326.613,-131.727 329.057,-138.286"/>
</g>
<!-- Node9&#45;&gt;Node5 -->
<g id="edge11" class="edge"><title>Node9&#45;&gt;Node5</title>
<path fill="none" stroke="midnightblue" d="M275.426,-131.834C267.077,-140.106 252.09,-152.62 239.018,-162.38"/>
<polygon fill="midnightblue" stroke="midnightblue" points="236.848,-159.63 230.793,-168.324 240.948,-165.303 236.848,-159.63"/>
</g>
<!-- Node9&#45;&gt;Node10 -->
<g id="edge10" class="edge"><title>Node9&#45;&gt;Node10</title>
<path fill="none" stroke="midnightblue" d="M270.952,-112.324C261.548,-104.263 247.33,-92.0765 236.005,-82.3695"/>
<polygon fill="midnightblue" stroke="midnightblue" points="238.251,-79.6844 228.381,-75.8339 233.695,-84.9993 238.251,-79.6844"/>
</g>
<!-- Node11&#45;&gt;Node3 -->
<g id="edge15" class="edge"><title>Node11&#45;&gt;Node3</title>
<path fill="none" stroke="midnightblue" d="M368.496,-112.083C375.923,-104.22 386.926,-92.5688 395.887,-83.0813"/>
<polygon fill="midnightblue" stroke="midnightblue" points="398.488,-85.4244 402.81,-75.7511 393.399,-80.618 398.488,-85.4244"/>
</g>
<!-- Node11&#45;&gt;Node4 -->
<g id="edge14" class="edge"><title>Node11&#45;&gt;Node4</title>
<path fill="none" stroke="midnightblue" d="M359.996,-112.368C359.835,-94.617 359.462,-53.6664 359.244,-29.5974"/>
<polygon fill="midnightblue" stroke="midnightblue" points="362.743,-29.5592 359.153,-19.5914 355.744,-29.6229 362.743,-29.5592"/>
</g>
<!-- Node12 -->
<g id="node12" class="node"><title>Node12</title>
<polygon fill="white" stroke="#bfbfbf" points="287.074,-56.5 287.074,-75.5 331.074,-75.5 331.074,-56.5 287.074,-56.5"/>
<text text-anchor="middle" x="309.074" y="-63.5" font-family="Helvetica,sans-Serif" font-size="10.00">cmath</text>
</g>
<!-- Node11&#45;&gt;Node12 -->
<g id="edge16" class="edge"><title>Node11&#45;&gt;Node12</title>
<path fill="none" stroke="midnightblue" d="M351.653,-112.083C344.226,-104.22 333.223,-92.5688 324.262,-83.0813"/>
<polygon fill="midnightblue" stroke="midnightblue" points="326.75,-80.618 317.339,-75.7511 321.661,-85.4244 326.75,-80.618"/>
</g>
</g>
</svg>
