<?xml version="1.0" encoding="UTF-8" standalone="no"?>
<!DOCTYPE svg PUBLIC "-//W3C//DTD SVG 1.1//EN"
 "http://www.w3.org/Graphics/SVG/1.1/DTD/svg11.dtd">
<!-- Generated by graphviz version 2.36.0 (20140111.2315)
 -->
<!-- Title: Game/include/Penguins.h Pages: 1 -->
<svg width="338pt" height="196pt"
 viewBox="0.00 0.00 338.00 196.00" xmlns="http://www.w3.org/2000/svg" xmlns:xlink="http://www.w3.org/1999/xlink">
<g id="graph0" class="graph" transform="scale(1 1) rotate(0) translate(4 192)">
<title>Game/include/Penguins.h</title>
<polygon fill="white" stroke="none" points="-4,4 -4,-192 334,-192 334,4 -4,4"/>
<!-- Node1 -->
<g id="node1" class="node"><title>Node1</title>
<polygon fill="#bfbfbf" stroke="black" points="95,-168.5 95,-187.5 223,-187.5 223,-168.5 95,-168.5"/>
<text text-anchor="middle" x="159" y="-175.5" font-family="Helvetica,sans-Serif" font-size="10.00">Game/include/Penguins.h</text>
</g>
<!-- Node2 -->
<g id="node2" class="node"><title>Node2</title>
<g id="a_node2"><a xlink:href="Gameobject_8h.html" target="_top" xlink:title="Gameobject.h">
<polygon fill="white" stroke="black" points="120.5,-112.5 120.5,-131.5 197.5,-131.5 197.5,-112.5 120.5,-112.5"/>
<text text-anchor="middle" x="159" y="-119.5" font-family="Helvetica,sans-Serif" font-size="10.00">Gameobject.h</text>
</a>
</g>
</g>
<!-- Node1&#45;&gt;Node2 -->
<g id="edge1" class="edge"><title>Node1&#45;&gt;Node2</title>
<path fill="none" stroke="midnightblue" d="M159,-168.083C159,-161.006 159,-150.861 159,-141.986"/>
<polygon fill="midnightblue" stroke="midnightblue" points="162.5,-141.751 159,-131.751 155.5,-141.751 162.5,-141.751"/>
</g>
<!-- Node10 -->
<g id="node10" class="node"><title>Node10</title>
<g id="a_node10"><a xlink:href="Sprite_8h.html" target="_top" xlink:title="Sprite.h">
<polygon fill="white" stroke="black" points="52,-112.5 52,-131.5 102,-131.5 102,-112.5 52,-112.5"/>
<text text-anchor="middle" x="77" y="-119.5" font-family="Helvetica,sans-Serif" font-size="10.00">Sprite.h</text>
</a>
</g>
</g>
<!-- Node1&#45;&gt;Node10 -->
<g id="edge10" class="edge"><title>Node1&#45;&gt;Node10</title>
<path fill="none" stroke="midnightblue" d="M145.825,-168.324C133.153,-159.979 113.767,-147.212 98.7944,-137.352"/>
<polygon fill="midnightblue" stroke="midnightblue" points="100.419,-134.231 90.142,-131.655 96.5688,-140.078 100.419,-134.231"/>
</g>
<!-- Node11 -->
<g id="node11" class="node"><title>Node11</title>
<g id="a_node11"><a xlink:href="Timer_8h.html" target="_top" xlink:title="Timer.h">
<polygon fill="white" stroke="black" points="216,-112.5 216,-131.5 266,-131.5 266,-112.5 216,-112.5"/>
<text text-anchor="middle" x="241" y="-119.5" font-family="Helvetica,sans-Serif" font-size="10.00">Timer.h</text>
</a>
</g>
</g>
<!-- Node1&#45;&gt;Node11 -->
<g id="edge13" class="edge"><title>Node1&#45;&gt;Node11</title>
<path fill="none" stroke="midnightblue" d="M172.175,-168.324C184.847,-159.979 204.233,-147.212 219.206,-137.352"/>
<polygon fill="midnightblue" stroke="midnightblue" points="221.431,-140.078 227.858,-131.655 217.581,-134.231 221.431,-140.078"/>
</g>
<!-- Node3 -->
<g id="node3" class="node"><title>Node3</title>
<polygon fill="white" stroke="#bfbfbf" points="129,-56.5 129,-75.5 173,-75.5 173,-56.5 129,-56.5"/>
<text text-anchor="middle" x="151" y="-63.5" font-family="Helvetica,sans-Serif" font-size="10.00">vector</text>
</g>
<!-- Node2&#45;&gt;Node3 -->
<g id="edge2" class="edge"><title>Node2&#45;&gt;Node3</title>
<path fill="none" stroke="midnightblue" d="M157.679,-112.083C156.619,-104.927 155.094,-94.6353 153.769,-85.6911"/>
<polygon fill="midnightblue" stroke="midnightblue" points="157.224,-85.1302 152.296,-75.7511 150.3,-86.1561 157.224,-85.1302"/>
</g>
<!-- Node4 -->
<g id="node4" class="node"><title>Node4</title>
<polygon fill="white" stroke="#bfbfbf" points="59,-56.5 59,-75.5 111,-75.5 111,-56.5 59,-56.5"/>
<text text-anchor="middle" x="85" y="-63.5" font-family="Helvetica,sans-Serif" font-size="10.00">memory</text>
</g>
<!-- Node2&#45;&gt;Node4 -->
<g id="edge3" class="edge"><title>Node2&#45;&gt;Node4</title>
<path fill="none" stroke="midnightblue" d="M147.111,-112.324C135.85,-104.107 118.713,-91.6017 105.291,-81.8069"/>
<polygon fill="midnightblue" stroke="midnightblue" points="107.247,-78.9014 97.1057,-75.8339 103.12,-84.5559 107.247,-78.9014"/>
</g>
<!-- Node5 -->
<g id="node5" class="node"><title>Node5</title>
<g id="a_node5"><a xlink:href="Rect_8h.html" target="_top" xlink:title="Rect.h">
<polygon fill="white" stroke="black" points="191,-56.5 191,-75.5 237,-75.5 237,-56.5 191,-56.5"/>
<text text-anchor="middle" x="214" y="-63.5" font-family="Helvetica,sans-Serif" font-size="10.00">Rect.h</text>
</a>
</g>
</g>
<!-- Node2&#45;&gt;Node5 -->
<g id="edge4" class="edge"><title>Node2&#45;&gt;Node5</title>
<path fill="none" stroke="midnightblue" d="M168.082,-112.083C176.171,-104.141 188.195,-92.3354 197.91,-82.7973"/>
<polygon fill="midnightblue" stroke="midnightblue" points="200.403,-85.2545 205.087,-75.7511 195.499,-80.2595 200.403,-85.2545"/>
</g>
<!-- Node8 -->
<g id="node8" class="node"><title>Node8</title>
<polygon fill="white" stroke="#bfbfbf" points="-0.5,-56.5 -0.5,-75.5 40.5,-75.5 40.5,-56.5 -0.5,-56.5"/>
<text text-anchor="middle" x="20" y="-63.5" font-family="Helvetica,sans-Serif" font-size="10.00">string</text>
</g>
<!-- Node2&#45;&gt;Node8 -->
<g id="edge7" class="edge"><title>Node2&#45;&gt;Node8</title>
<path fill="none" stroke="midnightblue" d="M136.975,-112.444C113.489,-103.319 76.147,-88.8125 49.9883,-78.6501"/>
<polygon fill="midnightblue" stroke="midnightblue" points="51.1513,-75.3471 40.5625,-74.9883 48.6164,-81.8721 51.1513,-75.3471"/>
</g>
<!-- Node9 -->
<g id="node9" class="node"><title>Node9</title>
<g id="a_node9"><a xlink:href="Component_8h.html" target="_top" xlink:title="Component.h">
<polygon fill="white" stroke="black" points="255.5,-56.5 255.5,-75.5 330.5,-75.5 330.5,-56.5 255.5,-56.5"/>
<text text-anchor="middle" x="293" y="-63.5" font-family="Helvetica,sans-Serif" font-size="10.00">Component.h</text>
</a>
</g>
</g>
<!-- Node2&#45;&gt;Node9 -->
<g id="edge8" class="edge"><title>Node2&#45;&gt;Node9</title>
<path fill="none" stroke="midnightblue" d="M175.144,-112.444C195.515,-103.438 230.66,-89.1891 257.371,-79.049"/>
<polygon fill="midnightblue" stroke="midnightblue" points="258.653,-82.3061 266.787,-75.5164 256.194,-75.7521 258.653,-82.3061"/>
</g>
<!-- Node6 -->
<g id="node6" class="node"><title>Node6</title>
<g id="a_node6"><a xlink:href="Vec2_8h.html" target="_top" xlink:title="Vec2.h">
<polygon fill="white" stroke="black" points="158.5,-0.5 158.5,-19.5 205.5,-19.5 205.5,-0.5 158.5,-0.5"/>
<text text-anchor="middle" x="182" y="-7.5" font-family="Helvetica,sans-Serif" font-size="10.00">Vec2.h</text>
</a>
</g>
</g>
<!-- Node5&#45;&gt;Node6 -->
<g id="edge5" class="edge"><title>Node5&#45;&gt;Node6</title>
<path fill="none" stroke="midnightblue" d="M208.716,-56.083C204.289,-48.6127 197.837,-37.7244 192.382,-28.5199"/>
<polygon fill="midnightblue" stroke="midnightblue" points="195.295,-26.5697 187.186,-19.7511 189.273,-30.1383 195.295,-26.5697"/>
</g>
<!-- Node7 -->
<g id="node7" class="node"><title>Node7</title>
<polygon fill="white" stroke="#bfbfbf" points="224,-0.5 224,-19.5 268,-19.5 268,-0.5 224,-0.5"/>
<text text-anchor="middle" x="246" y="-7.5" font-family="Helvetica,sans-Serif" font-size="10.00">cmath</text>
</g>
<!-- Node5&#45;&gt;Node7 -->
<g id="edge6" class="edge"><title>Node5&#45;&gt;Node7</title>
<path fill="none" stroke="midnightblue" d="M219.284,-56.083C223.711,-48.6127 230.163,-37.7244 235.618,-28.5199"/>
<polygon fill="midnightblue" stroke="midnightblue" points="238.727,-30.1383 240.814,-19.7511 232.705,-26.5697 238.727,-30.1383"/>
</g>
<!-- Node9&#45;&gt;Node2 -->
<g id="edge9" class="edge"><title>Node9&#45;&gt;Node2</title>
<path fill="none" stroke="midnightblue" d="M276.947,-75.5164C256.619,-84.5063 221.484,-98.7536 194.748,-108.906"/>
<polygon fill="midnightblue" stroke="midnightblue" points="193.454,-105.653 185.321,-112.444 195.914,-112.207 193.454,-105.653"/>
</g>
<!-- Node10&#45;&gt;Node4 -->
<g id="edge12" class="edge"><title>Node10&#45;&gt;Node4</title>
<path fill="none" stroke="midnightblue" d="M78.321,-112.083C79.3811,-104.927 80.9059,-94.6353 82.2309,-85.6911"/>
<polygon fill="midnightblue" stroke="midnightblue" points="85.7002,-86.1561 83.7035,-75.7511 78.7758,-85.1302 85.7002,-86.1561"/>
</g>
<!-- Node10&#45;&gt;Node8 -->
<g id="edge11" class="edge"><title>Node10&#45;&gt;Node8</title>
<path fill="none" stroke="midnightblue" d="M67.842,-112.324C59.4985,-104.42 46.9676,-92.5482 36.8231,-82.9377"/>
<polygon fill="midnightblue" stroke="midnightblue" points="38.9913,-80.1705 29.3247,-75.8339 34.1771,-85.2522 38.9913,-80.1705"/>
</g>
</g>
</svg>
