<?xml version="1.0" encoding="UTF-8" standalone="no"?>
<!DOCTYPE svg PUBLIC "-//W3C//DTD SVG 1.1//EN"
 "http://www.w3.org/Graphics/SVG/1.1/DTD/svg11.dtd">
<!-- Generated by graphviz version 2.36.0 (20140111.2315)
 -->
<!-- Title: Game/include/Penguins.h Pages: 1 -->
<svg width="399pt" height="84pt"
 viewBox="0.00 0.00 399.00 84.00" xmlns="http://www.w3.org/2000/svg" xmlns:xlink="http://www.w3.org/1999/xlink">
<g id="graph0" class="graph" transform="scale(1 1) rotate(0) translate(4 80)">
<title>Game/include/Penguins.h</title>
<polygon fill="white" stroke="none" points="-4,4 -4,-80 395,-80 395,4 -4,4"/>
<!-- Node1 -->
<g id="node1" class="node"><title>Node1</title>
<polygon fill="#bfbfbf" stroke="black" points="118,-56.5 118,-75.5 246,-75.5 246,-56.5 118,-56.5"/>
<text text-anchor="middle" x="182" y="-63.5" font-family="Helvetica,sans-Serif" font-size="10.00">Game/include/Penguins.h</text>
</g>
<!-- Node2 -->
<g id="node2" class="node"><title>Node2</title>
<g id="a_node2"><a xlink:href="Alien_8cpp.html" target="_top" xlink:title="Game/src/Alien.cpp">
<polygon fill="white" stroke="black" points="-0.5,-0.5 -0.5,-19.5 102.5,-19.5 102.5,-0.5 -0.5,-0.5"/>
<text text-anchor="middle" x="51" y="-7.5" font-family="Helvetica,sans-Serif" font-size="10.00">Game/src/Alien.cpp</text>
</a>
</g>
</g>
<!-- Node1&#45;&gt;Node2 -->
<g id="edge1" class="edge"><title>Node1&#45;&gt;Node2</title>
<path fill="none" stroke="midnightblue" d="M151.683,-52.503C127.124,-42.3795 93.182,-28.388 71.6602,-19.5164"/>
<polygon fill="midnightblue" stroke="midnightblue" points="150.663,-55.8683 161.243,-56.4435 153.331,-49.3966 150.663,-55.8683"/>
</g>
<!-- Node3 -->
<g id="node3" class="node"><title>Node3</title>
<g id="a_node3"><a xlink:href="Penguins_8cpp.html" target="_top" xlink:title="Game/src/Penguins.cpp">
<polygon fill="white" stroke="black" points="121,-0.5 121,-19.5 243,-19.5 243,-0.5 121,-0.5"/>
<text text-anchor="middle" x="182" y="-7.5" font-family="Helvetica,sans-Serif" font-size="10.00">Game/src/Penguins.cpp</text>
</a>
</g>
</g>
<!-- Node1&#45;&gt;Node3 -->
<g id="edge2" class="edge"><title>Node1&#45;&gt;Node3</title>
<path fill="none" stroke="midnightblue" d="M182,-45.8045C182,-36.9102 182,-26.7798 182,-19.7511"/>
<polygon fill="midnightblue" stroke="midnightblue" points="178.5,-46.083 182,-56.083 185.5,-46.083 178.5,-46.083"/>
</g>
<!-- Node4 -->
<g id="node4" class="node"><title>Node4</title>
<g id="a_node4"><a xlink:href="StageState_8cpp.html" target="_top" xlink:title="Game/src/StageState.cpp">
<polygon fill="white" stroke="black" points="261,-0.5 261,-19.5 391,-19.5 391,-0.5 261,-0.5"/>
<text text-anchor="middle" x="326" y="-7.5" font-family="Helvetica,sans-Serif" font-size="10.00">Game/src/StageState.cpp</text>
</a>
</g>
</g>
<!-- Node1&#45;&gt;Node4 -->
<g id="edge3" class="edge"><title>Node1&#45;&gt;Node4</title>
<path fill="none" stroke="midnightblue" d="M214.251,-52.9058C241.324,-42.7536 279.317,-28.5063 303.29,-19.5164"/>
<polygon fill="midnightblue" stroke="midnightblue" points="212.952,-49.6551 204.817,-56.4435 215.409,-56.2094 212.952,-49.6551"/>
</g>
</g>
</svg>
