<?xml version="1.0" encoding="UTF-8" standalone="no"?>
<!DOCTYPE svg PUBLIC "-//W3C//DTD SVG 1.1//EN"
 "http://www.w3.org/Graphics/SVG/1.1/DTD/svg11.dtd">
<!-- Generated by graphviz version 2.38.0 (20140413.2041)
 -->
<!-- Title: Game/src/Penguins.cpp Pages: 1 -->
<svg width="843pt" height="308pt"
 viewBox="0.00 0.00 842.50 308.00" xmlns="http://www.w3.org/2000/svg" xmlns:xlink="http://www.w3.org/1999/xlink">
<g id="graph0" class="graph" transform="scale(1 1) rotate(0) translate(4 304)">
<title>Game/src/Penguins.cpp</title>
<polygon fill="white" stroke="none" points="-4,4 -4,-304 838.5,-304 838.5,4 -4,4"/>
<!-- Node0 -->
<g id="node1" class="node"><title>Node0</title>
<polygon fill="#bfbfbf" stroke="black" points="413.5,-280.5 413.5,-299.5 535.5,-299.5 535.5,-280.5 413.5,-280.5"/>
<text text-anchor="middle" x="474.5" y="-287.5" font-family="Helvetica,sans-Serif" font-size="10.00">Game/src/Penguins.cpp</text>
</g>
<!-- Node1 -->
<g id="node2" class="node"><title>Node1</title>
<polygon fill="white" stroke="#bfbfbf" points="0,-224.5 0,-243.5 65,-243.5 65,-224.5 0,-224.5"/>
<text text-anchor="middle" x="32.5" y="-231.5" font-family="Helvetica,sans-Serif" font-size="10.00">Penguins.h</text>
</g>
<!-- Node0&#45;&gt;Node1 -->
<g id="edge1" class="edge"><title>Node0&#45;&gt;Node1</title>
<path fill="none" stroke="midnightblue" d="M413.409,-283.489C335.628,-276.14 197.199,-261.947 79.5,-244 78.0371,-243.777 76.5501,-243.541 75.0497,-243.296"/>
<polygon fill="midnightblue" stroke="midnightblue" points="75.5116,-239.824 65.061,-241.566 74.317,-246.721 75.5116,-239.824"/>
</g>
<!-- Node2 -->
<g id="node3" class="node"><title>Node2</title>
<g id="a_node3"><a xlink:href="InputManager_8h.html" target="_top" xlink:title="InputManager.h">
<polygon fill="white" stroke="black" points="103.5,-112.5 103.5,-131.5 187.5,-131.5 187.5,-112.5 103.5,-112.5"/>
<text text-anchor="middle" x="145.5" y="-119.5" font-family="Helvetica,sans-Serif" font-size="10.00">InputManager.h</text>
</a>
</g>
</g>
<!-- Node0&#45;&gt;Node2 -->
<g id="edge2" class="edge"><title>Node0&#45;&gt;Node2</title>
<path fill="none" stroke="midnightblue" d="M413.233,-281.265C319.29,-267.957 146.881,-237.306 112.5,-188 101.608,-172.38 114.921,-152.666 127.747,-139.067"/>
<polygon fill="midnightblue" stroke="midnightblue" points="130.404,-141.363 135.056,-131.844 125.483,-136.384 130.404,-141.363"/>
</g>
<!-- Node6 -->
<g id="node7" class="node"><title>Node6</title>
<g id="a_node7"><a xlink:href="Camera_8h.html" target="_top" xlink:title="Camera.h">
<polygon fill="white" stroke="black" points="274,-224.5 274,-243.5 333,-243.5 333,-224.5 274,-224.5"/>
<text text-anchor="middle" x="303.5" y="-231.5" font-family="Helvetica,sans-Serif" font-size="10.00">Camera.h</text>
</a>
</g>
</g>
<!-- Node0&#45;&gt;Node6 -->
<g id="edge6" class="edge"><title>Node0&#45;&gt;Node6</title>
<path fill="none" stroke="midnightblue" d="M447.405,-280.444C418.512,-271.32 372.575,-256.813 340.395,-246.651"/>
<polygon fill="midnightblue" stroke="midnightblue" points="341.059,-243.19 330.469,-243.516 338.951,-249.865 341.059,-243.19"/>
</g>
<!-- Node15 -->
<g id="node16" class="node"><title>Node15</title>
<g id="a_node16"><a xlink:href="Error_8h.html" target="_top" xlink:title="Error.h">
<polygon fill="white" stroke="black" points="716.5,-224.5 716.5,-243.5 762.5,-243.5 762.5,-224.5 716.5,-224.5"/>
<text text-anchor="middle" x="739.5" y="-231.5" font-family="Helvetica,sans-Serif" font-size="10.00">Error.h</text>
</a>
</g>
</g>
<!-- Node0&#45;&gt;Node15 -->
<g id="edge19" class="edge"><title>Node0&#45;&gt;Node15</title>
<path fill="none" stroke="midnightblue" d="M519.606,-280.435C565.283,-271.664 637.918,-257.448 700.5,-244 702.436,-243.584 704.425,-243.149 706.43,-242.704"/>
<polygon fill="midnightblue" stroke="midnightblue" points="707.446,-246.063 716.429,-240.446 705.903,-239.235 707.446,-246.063"/>
</g>
<!-- Node18 -->
<g id="node19" class="node"><title>Node18</title>
<polygon fill="white" stroke="#bfbfbf" points="780.5,-224.5 780.5,-243.5 830.5,-243.5 830.5,-224.5 780.5,-224.5"/>
<text text-anchor="middle" x="805.5" y="-231.5" font-family="Helvetica,sans-Serif" font-size="10.00">Bullet.h</text>
</g>
<!-- Node0&#45;&gt;Node18 -->
<g id="edge22" class="edge"><title>Node0&#45;&gt;Node18</title>
<path fill="none" stroke="midnightblue" d="M535.707,-281.697C593.762,-274.325 683.593,-261.768 770.311,-244.06"/>
<polygon fill="midnightblue" stroke="midnightblue" points="771.237,-247.443 780.321,-241.99 769.82,-240.588 771.237,-247.443"/>
</g>
<!-- Node19 -->
<g id="node20" class="node"><title>Node19</title>
<g id="a_node20"><a xlink:href="Game_8h.html" target="_top" xlink:title="Game.h">
<polygon fill="white" stroke="black" points="401,-224.5 401,-243.5 452,-243.5 452,-224.5 401,-224.5"/>
<text text-anchor="middle" x="426.5" y="-231.5" font-family="Helvetica,sans-Serif" font-size="10.00">Game.h</text>
</a>
</g>
</g>
<!-- Node0&#45;&gt;Node19 -->
<g id="edge23" class="edge"><title>Node0&#45;&gt;Node19</title>
<path fill="none" stroke="midnightblue" d="M466.574,-280.083C459.654,-272.298 449.435,-260.801 441.048,-251.367"/>
<polygon fill="midnightblue" stroke="midnightblue" points="443.538,-248.9 434.279,-243.751 438.306,-253.55 443.538,-248.9"/>
</g>
<!-- Node22 -->
<g id="node23" class="node"><title>Node22</title>
<g id="a_node23"><a xlink:href="Animation_8h.html" target="_top" xlink:title="Animation.h">
<polygon fill="white" stroke="black" points="514.5,-168.5 514.5,-187.5 582.5,-187.5 582.5,-168.5 514.5,-168.5"/>
<text text-anchor="middle" x="548.5" y="-175.5" font-family="Helvetica,sans-Serif" font-size="10.00">Animation.h</text>
</a>
</g>
</g>
<!-- Node0&#45;&gt;Node22 -->
<g id="edge32" class="edge"><title>Node0&#45;&gt;Node22</title>
<path fill="none" stroke="midnightblue" d="M480.307,-280.368C492.519,-262.215 521.052,-219.802 537.07,-195.99"/>
<polygon fill="midnightblue" stroke="midnightblue" points="540.043,-197.842 542.72,-187.591 534.234,-193.935 540.043,-197.842"/>
</g>
<!-- Node25 -->
<g id="node26" class="node"><title>Node25</title>
<g id="a_node26"><a xlink:href="Sound_8h.html" target="_top" xlink:title="Sound.h">
<polygon fill="white" stroke="black" points="660,-112.5 660,-131.5 713,-131.5 713,-112.5 660,-112.5"/>
<text text-anchor="middle" x="686.5" y="-119.5" font-family="Helvetica,sans-Serif" font-size="10.00">Sound.h</text>
</a>
</g>
</g>
<!-- Node0&#45;&gt;Node25 -->
<g id="edge38" class="edge"><title>Node0&#45;&gt;Node25</title>
<path fill="none" stroke="midnightblue" d="M485.6,-280.309C519.873,-253.472 624.313,-171.694 667.5,-137.878"/>
<polygon fill="midnightblue" stroke="midnightblue" points="669.795,-140.526 675.51,-131.605 665.479,-135.015 669.795,-140.526"/>
</g>
<!-- Node3 -->
<g id="node4" class="node"><title>Node3</title>
<g id="a_node4"><a xlink:href="Vec2_8h.html" target="_top" xlink:title="Vec2.h">
<polygon fill="white" stroke="black" points="273,-0.5 273,-19.5 320,-19.5 320,-0.5 273,-0.5"/>
<text text-anchor="middle" x="296.5" y="-7.5" font-family="Helvetica,sans-Serif" font-size="10.00">Vec2.h</text>
</a>
</g>
</g>
<!-- Node2&#45;&gt;Node3 -->
<g id="edge3" class="edge"><title>Node2&#45;&gt;Node3</title>
<path fill="none" stroke="midnightblue" d="M129.569,-112.41C108.592,-100.001 76.1756,-76.3179 92.5,-56 113.486,-29.88 210.45,-18.0225 262.783,-13.4463"/>
<polygon fill="midnightblue" stroke="midnightblue" points="263.249,-16.9196 272.925,-12.6018 262.669,-9.94378 263.249,-16.9196"/>
</g>
<!-- Node4 -->
<g id="node5" class="node"><title>Node4</title>
<polygon fill="white" stroke="#bfbfbf" points="166,-56.5 166,-75.5 249,-75.5 249,-56.5 166,-56.5"/>
<text text-anchor="middle" x="207.5" y="-63.5" font-family="Helvetica,sans-Serif" font-size="10.00">unordered_map</text>
</g>
<!-- Node2&#45;&gt;Node4 -->
<g id="edge4" class="edge"><title>Node2&#45;&gt;Node4</title>
<path fill="none" stroke="midnightblue" d="M155.461,-112.324C164.627,-104.341 178.437,-92.3128 189.528,-82.6529"/>
<polygon fill="midnightblue" stroke="midnightblue" points="192.115,-85.041 197.357,-75.8339 187.518,-79.7624 192.115,-85.041"/>
</g>
<!-- Node5 -->
<g id="node6" class="node"><title>Node5</title>
<polygon fill="white" stroke="#bfbfbf" points="101.5,-56.5 101.5,-75.5 147.5,-75.5 147.5,-56.5 101.5,-56.5"/>
<text text-anchor="middle" x="124.5" y="-63.5" font-family="Helvetica,sans-Serif" font-size="10.00">cstdint</text>
</g>
<!-- Node2&#45;&gt;Node5 -->
<g id="edge5" class="edge"><title>Node2&#45;&gt;Node5</title>
<path fill="none" stroke="midnightblue" d="M142.032,-112.083C139.188,-104.77 135.071,-94.1814 131.54,-85.1034"/>
<polygon fill="midnightblue" stroke="midnightblue" points="134.79,-83.8025 127.903,-75.7511 128.266,-86.3397 134.79,-83.8025"/>
</g>
<!-- Node6&#45;&gt;Node3 -->
<g id="edge16" class="edge"><title>Node6&#45;&gt;Node3</title>
<path fill="none" stroke="midnightblue" d="M303.075,-224.375C302.639,-215.318 301.96,-200.66 301.5,-188 299.412,-130.542 297.706,-62.5645 296.938,-30.1074"/>
<polygon fill="midnightblue" stroke="midnightblue" points="300.431,-29.7576 296.699,-19.8419 293.433,-29.9208 300.431,-29.7576"/>
</g>
<!-- Node7 -->
<g id="node8" class="node"><title>Node7</title>
<g id="a_node8"><a xlink:href="GameObject_8h.html" target="_top" xlink:title="GameObject.h">
<polygon fill="white" stroke="black" points="387.5,-112.5 387.5,-131.5 467.5,-131.5 467.5,-112.5 387.5,-112.5"/>
<text text-anchor="middle" x="427.5" y="-119.5" font-family="Helvetica,sans-Serif" font-size="10.00">GameObject.h</text>
</a>
</g>
</g>
<!-- Node6&#45;&gt;Node7 -->
<g id="edge7" class="edge"><title>Node6&#45;&gt;Node7</title>
<path fill="none" stroke="midnightblue" d="M312.248,-224.384C325.172,-211.741 350.242,-187.547 372.5,-168 384.203,-157.722 397.74,-146.637 408.455,-138.041"/>
<polygon fill="midnightblue" stroke="midnightblue" points="410.717,-140.713 416.355,-131.743 406.354,-135.24 410.717,-140.713"/>
</g>
<!-- Node14 -->
<g id="node15" class="node"><title>Node14</title>
<g id="a_node15"><a xlink:href="ActionManager_8h.html" target="_top" xlink:title="ActionManager.h">
<polygon fill="white" stroke="black" points="121.5,-168.5 121.5,-187.5 211.5,-187.5 211.5,-168.5 121.5,-168.5"/>
<text text-anchor="middle" x="166.5" y="-175.5" font-family="Helvetica,sans-Serif" font-size="10.00">ActionManager.h</text>
</a>
</g>
</g>
<!-- Node6&#45;&gt;Node14 -->
<g id="edge17" class="edge"><title>Node6&#45;&gt;Node14</title>
<path fill="none" stroke="midnightblue" d="M281.792,-224.444C259.145,-215.517 223.428,-201.439 197.748,-191.317"/>
<polygon fill="midnightblue" stroke="midnightblue" points="198.693,-187.927 188.106,-187.516 196.126,-194.44 198.693,-187.927"/>
</g>
<!-- Node8 -->
<g id="node9" class="node"><title>Node8</title>
<polygon fill="white" stroke="#bfbfbf" points="343.5,-56.5 343.5,-75.5 387.5,-75.5 387.5,-56.5 343.5,-56.5"/>
<text text-anchor="middle" x="365.5" y="-63.5" font-family="Helvetica,sans-Serif" font-size="10.00">vector</text>
</g>
<!-- Node7&#45;&gt;Node8 -->
<g id="edge8" class="edge"><title>Node7&#45;&gt;Node8</title>
<path fill="none" stroke="midnightblue" d="M417.539,-112.324C408.373,-104.341 394.563,-92.3128 383.472,-82.6529"/>
<polygon fill="midnightblue" stroke="midnightblue" points="385.482,-79.7624 375.643,-75.8339 380.885,-85.041 385.482,-79.7624"/>
</g>
<!-- Node9 -->
<g id="node10" class="node"><title>Node9</title>
<polygon fill="white" stroke="#bfbfbf" points="563.5,-56.5 563.5,-75.5 615.5,-75.5 615.5,-56.5 563.5,-56.5"/>
<text text-anchor="middle" x="589.5" y="-63.5" font-family="Helvetica,sans-Serif" font-size="10.00">memory</text>
</g>
<!-- Node7&#45;&gt;Node9 -->
<g id="edge9" class="edge"><title>Node7&#45;&gt;Node9</title>
<path fill="none" stroke="midnightblue" d="M453.169,-112.444C480.423,-103.359 523.684,-88.9388 554.151,-78.7831"/>
<polygon fill="midnightblue" stroke="midnightblue" points="555.571,-81.9992 563.951,-75.5164 553.357,-75.3584 555.571,-81.9992"/>
</g>
<!-- Node10 -->
<g id="node11" class="node"><title>Node10</title>
<g id="a_node11"><a xlink:href="Rect_8h.html" target="_top" xlink:title="Rect.h">
<polygon fill="white" stroke="black" points="499.5,-56.5 499.5,-75.5 545.5,-75.5 545.5,-56.5 499.5,-56.5"/>
<text text-anchor="middle" x="522.5" y="-63.5" font-family="Helvetica,sans-Serif" font-size="10.00">Rect.h</text>
</a>
</g>
</g>
<!-- Node7&#45;&gt;Node10 -->
<g id="edge10" class="edge"><title>Node7&#45;&gt;Node10</title>
<path fill="none" stroke="midnightblue" d="M442.763,-112.324C457.721,-103.822 480.755,-90.7288 498.227,-80.7975"/>
<polygon fill="midnightblue" stroke="midnightblue" points="500.31,-83.639 507.274,-75.6545 496.851,-77.5534 500.31,-83.639"/>
</g>
<!-- Node12 -->
<g id="node13" class="node"><title>Node12</title>
<polygon fill="white" stroke="#bfbfbf" points="650,-56.5 650,-75.5 691,-75.5 691,-56.5 650,-56.5"/>
<text text-anchor="middle" x="670.5" y="-63.5" font-family="Helvetica,sans-Serif" font-size="10.00">string</text>
</g>
<!-- Node7&#45;&gt;Node12 -->
<g id="edge13" class="edge"><title>Node7&#45;&gt;Node12</title>
<path fill="none" stroke="midnightblue" d="M466.004,-112.444C514.199,-101.734 595.768,-83.6072 639.917,-73.7961"/>
<polygon fill="midnightblue" stroke="midnightblue" points="640.775,-77.191 649.778,-71.6049 639.257,-70.3576 640.775,-77.191"/>
</g>
<!-- Node13 -->
<g id="node14" class="node"><title>Node13</title>
<g id="a_node14"><a xlink:href="Component_8h.html" target="_top" xlink:title="Component.h">
<polygon fill="white" stroke="black" points="406,-56.5 406,-75.5 481,-75.5 481,-56.5 406,-56.5"/>
<text text-anchor="middle" x="443.5" y="-63.5" font-family="Helvetica,sans-Serif" font-size="10.00">Component.h</text>
</a>
</g>
</g>
<!-- Node7&#45;&gt;Node13 -->
<g id="edge14" class="edge"><title>Node7&#45;&gt;Node13</title>
<path fill="none" stroke="midnightblue" d="M424.976,-112.083C425.6,-104.77 428.322,-94.1814 431.723,-85.1034"/>
<polygon fill="midnightblue" stroke="midnightblue" points="435.011,-86.3183 435.776,-75.7511 428.588,-83.5346 435.011,-86.3183"/>
</g>
<!-- Node10&#45;&gt;Node3 -->
<g id="edge11" class="edge"><title>Node10&#45;&gt;Node3</title>
<path fill="none" stroke="midnightblue" d="M499.45,-58.5963C496.117,-57.7044 492.724,-56.8152 489.5,-56 433.857,-41.9306 368.78,-27.0894 330.19,-18.4564"/>
<polygon fill="midnightblue" stroke="midnightblue" points="330.561,-14.953 320.039,-16.1919 329.037,-21.7851 330.561,-14.953"/>
</g>
<!-- Node11 -->
<g id="node12" class="node"><title>Node11</title>
<polygon fill="white" stroke="#bfbfbf" points="500.5,-0.5 500.5,-19.5 544.5,-19.5 544.5,-0.5 500.5,-0.5"/>
<text text-anchor="middle" x="522.5" y="-7.5" font-family="Helvetica,sans-Serif" font-size="10.00">cmath</text>
</g>
<!-- Node10&#45;&gt;Node11 -->
<g id="edge12" class="edge"><title>Node10&#45;&gt;Node11</title>
<path fill="none" stroke="midnightblue" d="M522.5,-56.083C522.5,-49.0059 522.5,-38.8611 522.5,-29.9865"/>
<polygon fill="midnightblue" stroke="midnightblue" points="526,-29.751 522.5,-19.7511 519,-29.7511 526,-29.751"/>
</g>
<!-- Node13&#45;&gt;Node7 -->
<g id="edge15" class="edge"><title>Node13&#45;&gt;Node7</title>
<path fill="none" stroke="midnightblue" d="M446.038,-75.7511C445.446,-83.0141 442.745,-93.589 439.354,-102.69"/>
<polygon fill="midnightblue" stroke="midnightblue" points="436.05,-101.514 435.308,-112.083 442.479,-104.283 436.05,-101.514"/>
</g>
<!-- Node14&#45;&gt;Node2 -->
<g id="edge18" class="edge"><title>Node14&#45;&gt;Node2</title>
<path fill="none" stroke="midnightblue" d="M163.032,-168.083C160.188,-160.77 156.071,-150.181 152.54,-141.103"/>
<polygon fill="midnightblue" stroke="midnightblue" points="155.79,-139.803 148.903,-131.751 149.266,-142.34 155.79,-139.803"/>
</g>
<!-- Node16 -->
<g id="node17" class="node"><title>Node16</title>
<polygon fill="white" stroke="#bfbfbf" points="714.5,-168.5 714.5,-187.5 768.5,-187.5 768.5,-168.5 714.5,-168.5"/>
<text text-anchor="middle" x="741.5" y="-175.5" font-family="Helvetica,sans-Serif" font-size="10.00">iostream</text>
</g>
<!-- Node15&#45;&gt;Node16 -->
<g id="edge20" class="edge"><title>Node15&#45;&gt;Node16</title>
<path fill="none" stroke="midnightblue" d="M739.83,-224.083C740.092,-217.006 740.468,-206.861 740.797,-197.986"/>
<polygon fill="midnightblue" stroke="midnightblue" points="744.303,-197.874 741.176,-187.751 737.308,-197.615 744.303,-197.874"/>
</g>
<!-- Node17 -->
<g id="node18" class="node"><title>Node17</title>
<polygon fill="white" stroke="#bfbfbf" points="786.5,-168.5 786.5,-187.5 834.5,-187.5 834.5,-168.5 786.5,-168.5"/>
<text text-anchor="middle" x="810.5" y="-175.5" font-family="Helvetica,sans-Serif" font-size="10.00">stdlib.h</text>
</g>
<!-- Node15&#45;&gt;Node17 -->
<g id="edge21" class="edge"><title>Node15&#45;&gt;Node17</title>
<path fill="none" stroke="midnightblue" d="M750.907,-224.324C761.609,-216.185 777.841,-203.839 790.663,-194.087"/>
<polygon fill="midnightblue" stroke="midnightblue" points="793.044,-196.673 798.885,-187.834 788.807,-191.102 793.044,-196.673"/>
</g>
<!-- Node19&#45;&gt;Node2 -->
<g id="edge30" class="edge"><title>Node19&#45;&gt;Node2</title>
<path fill="none" stroke="midnightblue" d="M401.463,-224.394C376.131,-215.591 335.904,-201.351 301.5,-188 256.826,-170.664 205.659,-148.991 174.467,-135.572"/>
<polygon fill="midnightblue" stroke="midnightblue" points="175.644,-132.268 165.075,-131.521 172.871,-138.695 175.644,-132.268"/>
</g>
<!-- Node19&#45;&gt;Node3 -->
<g id="edge31" class="edge"><title>Node19&#45;&gt;Node3</title>
<path fill="none" stroke="midnightblue" d="M412.964,-224.436C400.995,-216.289 383.736,-203.065 372.5,-188 334.419,-136.94 310.933,-63.8785 301.404,-29.8194"/>
<polygon fill="midnightblue" stroke="midnightblue" points="304.698,-28.5908 298.707,-19.8523 297.941,-30.4194 304.698,-28.5908"/>
</g>
<!-- Node19&#45;&gt;Node12 -->
<g id="edge24" class="edge"><title>Node19&#45;&gt;Node12</title>
<path fill="none" stroke="midnightblue" d="M452.316,-233.607C512.468,-233.421 661.388,-223.346 721.5,-132 733.548,-113.691 713.044,-94.0817 694.555,-81.2467"/>
<polygon fill="midnightblue" stroke="midnightblue" points="696.345,-78.2349 686.06,-75.6905 692.513,-84.0933 696.345,-78.2349"/>
</g>
<!-- Node20 -->
<g id="node21" class="node"><title>Node20</title>
<polygon fill="white" stroke="#bfbfbf" points="382,-168.5 382,-187.5 423,-187.5 423,-168.5 382,-168.5"/>
<text text-anchor="middle" x="402.5" y="-175.5" font-family="Helvetica,sans-Serif" font-size="10.00">stack</text>
</g>
<!-- Node19&#45;&gt;Node20 -->
<g id="edge25" class="edge"><title>Node19&#45;&gt;Node20</title>
<path fill="none" stroke="midnightblue" d="M422.537,-224.083C419.287,-216.77 414.581,-206.181 410.546,-197.103"/>
<polygon fill="midnightblue" stroke="midnightblue" points="413.649,-195.468 406.389,-187.751 407.252,-198.311 413.649,-195.468"/>
</g>
<!-- Node21 -->
<g id="node22" class="node"><title>Node21</title>
<g id="a_node22"><a xlink:href="State_8h.html" target="_top" xlink:title="State.h">
<polygon fill="white" stroke="black" points="441.5,-168.5 441.5,-187.5 489.5,-187.5 489.5,-168.5 441.5,-168.5"/>
<text text-anchor="middle" x="465.5" y="-175.5" font-family="Helvetica,sans-Serif" font-size="10.00">State.h</text>
</a>
</g>
</g>
<!-- Node19&#45;&gt;Node21 -->
<g id="edge26" class="edge"><title>Node19&#45;&gt;Node21</title>
<path fill="none" stroke="midnightblue" d="M432.94,-224.083C438.449,-216.455 446.531,-205.264 453.265,-195.941"/>
<polygon fill="midnightblue" stroke="midnightblue" points="456.162,-197.907 459.18,-187.751 450.487,-193.809 456.162,-197.907"/>
</g>
<!-- Node21&#45;&gt;Node7 -->
<g id="edge27" class="edge"><title>Node21&#45;&gt;Node7</title>
<path fill="none" stroke="midnightblue" d="M459.225,-168.083C453.858,-160.455 445.982,-149.264 439.421,-139.941"/>
<polygon fill="midnightblue" stroke="midnightblue" points="442.275,-137.915 433.658,-131.751 436.551,-141.943 442.275,-137.915"/>
</g>
<!-- Node21&#45;&gt;Node8 -->
<g id="edge28" class="edge"><title>Node21&#45;&gt;Node8</title>
<path fill="none" stroke="midnightblue" d="M441.394,-170.851C421.439,-164.483 393.946,-152.512 378.5,-132 368.549,-118.785 365.674,-99.9157 365.067,-85.9093"/>
<polygon fill="midnightblue" stroke="midnightblue" points="368.563,-85.4903 364.984,-75.5185 361.564,-85.5461 368.563,-85.4903"/>
</g>
<!-- Node21&#45;&gt;Node9 -->
<g id="edge29" class="edge"><title>Node21&#45;&gt;Node9</title>
<path fill="none" stroke="midnightblue" d="M470.623,-168.158C478.68,-154.798 495.379,-129.202 514.5,-112 528.576,-99.3368 546.732,-88.3338 561.655,-80.3779"/>
<polygon fill="midnightblue" stroke="midnightblue" points="563.634,-83.2955 570.919,-75.6029 560.427,-77.0734 563.634,-83.2955"/>
</g>
<!-- Node22&#45;&gt;Node7 -->
<g id="edge33" class="edge"><title>Node22&#45;&gt;Node7</title>
<path fill="none" stroke="midnightblue" d="M529.327,-168.444C509.591,-159.636 478.615,-145.812 456.007,-135.722"/>
<polygon fill="midnightblue" stroke="midnightblue" points="457.141,-132.396 446.583,-131.516 454.289,-138.788 457.141,-132.396"/>
</g>
<!-- Node23 -->
<g id="node24" class="node"><title>Node23</title>
<g id="a_node24"><a xlink:href="Timer_8h.html" target="_top" xlink:title="Timer.h">
<polygon fill="white" stroke="black" points="591.5,-112.5 591.5,-131.5 641.5,-131.5 641.5,-112.5 591.5,-112.5"/>
<text text-anchor="middle" x="616.5" y="-119.5" font-family="Helvetica,sans-Serif" font-size="10.00">Timer.h</text>
</a>
</g>
</g>
<!-- Node22&#45;&gt;Node23 -->
<g id="edge34" class="edge"><title>Node22&#45;&gt;Node23</title>
<path fill="none" stroke="midnightblue" d="M559.425,-168.324C569.675,-160.185 585.221,-147.839 597.501,-138.087"/>
<polygon fill="midnightblue" stroke="midnightblue" points="599.721,-140.794 605.376,-131.834 595.368,-135.312 599.721,-140.794"/>
</g>
<!-- Node24 -->
<g id="node25" class="node"><title>Node24</title>
<g id="a_node25"><a xlink:href="Sprite_8h.html" target="_top" xlink:title="Sprite.h">
<polygon fill="white" stroke="black" points="523.5,-112.5 523.5,-131.5 573.5,-131.5 573.5,-112.5 523.5,-112.5"/>
<text text-anchor="middle" x="548.5" y="-119.5" font-family="Helvetica,sans-Serif" font-size="10.00">Sprite.h</text>
</a>
</g>
</g>
<!-- Node22&#45;&gt;Node24 -->
<g id="edge35" class="edge"><title>Node22&#45;&gt;Node24</title>
<path fill="none" stroke="midnightblue" d="M548.5,-168.083C548.5,-161.006 548.5,-150.861 548.5,-141.986"/>
<polygon fill="midnightblue" stroke="midnightblue" points="552,-141.751 548.5,-131.751 545,-141.751 552,-141.751"/>
</g>
<!-- Node24&#45;&gt;Node9 -->
<g id="edge37" class="edge"><title>Node24&#45;&gt;Node9</title>
<path fill="none" stroke="midnightblue" d="M555.27,-112.083C561.062,-104.455 569.558,-93.2645 576.638,-83.9408"/>
<polygon fill="midnightblue" stroke="midnightblue" points="579.596,-85.8321 582.856,-75.7511 574.021,-81.5991 579.596,-85.8321"/>
</g>
<!-- Node24&#45;&gt;Node12 -->
<g id="edge36" class="edge"><title>Node24&#45;&gt;Node12</title>
<path fill="none" stroke="midnightblue" d="M567.831,-112.444C587.82,-103.596 619.243,-89.6875 642.064,-79.5865"/>
<polygon fill="midnightblue" stroke="midnightblue" points="643.532,-82.7645 651.259,-75.5164 640.698,-76.3635 643.532,-82.7645"/>
</g>
<!-- Node25&#45;&gt;Node9 -->
<g id="edge39" class="edge"><title>Node25&#45;&gt;Node9</title>
<path fill="none" stroke="midnightblue" d="M670.915,-112.324C655.501,-103.743 631.688,-90.486 613.79,-80.5224"/>
<polygon fill="midnightblue" stroke="midnightblue" points="615.486,-77.4606 605.046,-75.6545 612.081,-83.5767 615.486,-77.4606"/>
</g>
<!-- Node25&#45;&gt;Node12 -->
<g id="edge40" class="edge"><title>Node25&#45;&gt;Node12</title>
<path fill="none" stroke="midnightblue" d="M683.858,-112.083C681.714,-104.849 678.621,-94.4087 675.951,-85.3968"/>
<polygon fill="midnightblue" stroke="midnightblue" points="679.29,-84.3447 673.093,-75.7511 672.578,-86.3334 679.29,-84.3447"/>
</g>
</g>
</svg>
