<?xml version="1.0" encoding="UTF-8" standalone="no"?>
<!DOCTYPE svg PUBLIC "-//W3C//DTD SVG 1.1//EN"
 "http://www.w3.org/Graphics/SVG/1.1/DTD/svg11.dtd">
<!-- Generated by graphviz version 2.38.0 (20140413.2041)
 -->
<!-- Title: Engine/include/Rect.h Pages: 1 -->
<svg width="2096pt" height="364pt"
 viewBox="0.00 0.00 2096.00 364.00" xmlns="http://www.w3.org/2000/svg" xmlns:xlink="http://www.w3.org/1999/xlink">
<g id="graph0" class="graph" transform="scale(1 1) rotate(0) translate(4 360)">
<title>Engine/include/Rect.h</title>
<polygon fill="white" stroke="none" points="-4,4 -4,-360 2092,-360 2092,4 -4,4"/>
<!-- Node3 -->
<g id="node1" class="node"><title>Node3</title>
<polygon fill="#bfbfbf" stroke="black" points="657,-336.5 657,-355.5 770,-355.5 770,-336.5 657,-336.5"/>
<text text-anchor="middle" x="713.5" y="-343.5" font-family="Helvetica,sans-Serif" font-size="10.00">Engine/include/Rect.h</text>
</g>
<!-- Node4 -->
<g id="node2" class="node"><title>Node4</title>
<g id="a_node2"><a xlink:href="Gameobject_8h.html" target="_top" xlink:title="Engine/include/Gameobject.h">
<polygon fill="white" stroke="black" points="641.5,-280.5 641.5,-299.5 785.5,-299.5 785.5,-280.5 641.5,-280.5"/>
<text text-anchor="middle" x="713.5" y="-287.5" font-family="Helvetica,sans-Serif" font-size="10.00">Engine/include/Gameobject.h</text>
</a>
</g>
</g>
<!-- Node3&#45;&gt;Node4 -->
<g id="edge1" class="edge"><title>Node3&#45;&gt;Node4</title>
<path fill="none" stroke="midnightblue" d="M713.5,-325.805C713.5,-316.91 713.5,-306.78 713.5,-299.751"/>
<polygon fill="midnightblue" stroke="midnightblue" points="710,-326.083 713.5,-336.083 717,-326.083 710,-326.083"/>
</g>
<!-- Node24 -->
<g id="node22" class="node"><title>Node24</title>
<g id="a_node22"><a xlink:href="Face_8h.html" target="_top" xlink:title="Game/include/Face.h">
<polygon fill="white" stroke="black" points="86.5,-168.5 86.5,-187.5 196.5,-187.5 196.5,-168.5 86.5,-168.5"/>
<text text-anchor="middle" x="141.5" y="-175.5" font-family="Helvetica,sans-Serif" font-size="10.00">Game/include/Face.h</text>
</a>
</g>
</g>
<!-- Node3&#45;&gt;Node24 -->
<g id="edge63" class="edge"><title>Node3&#45;&gt;Node24</title>
<path fill="none" stroke="midnightblue" d="M646.814,-343.333C546.479,-338.331 353.156,-318.846 209.5,-244 182.561,-229.964 158.871,-202.011 147.93,-187.774"/>
<polygon fill="midnightblue" stroke="midnightblue" points="646.665,-346.83 656.817,-343.799 646.99,-339.837 646.665,-346.83"/>
</g>
<!-- Node27 -->
<g id="node25" class="node"><title>Node27</title>
<g id="a_node25"><a xlink:href="Text_8h.html" target="_top" xlink:title="Engine/include/Text.h">
<polygon fill="white" stroke="black" points="1977,-112.5 1977,-131.5 2088,-131.5 2088,-112.5 1977,-112.5"/>
<text text-anchor="middle" x="2032.5" y="-119.5" font-family="Helvetica,sans-Serif" font-size="10.00">Engine/include/Text.h</text>
</a>
</g>
</g>
<!-- Node3&#45;&gt;Node27 -->
<g id="edge61" class="edge"><title>Node3&#45;&gt;Node27</title>
<path fill="none" stroke="midnightblue" d="M780.343,-336.684C906.165,-320.759 1186.67,-283.973 1421.5,-244 1638.44,-207.073 1896.57,-152.394 1993.32,-131.52"/>
<polygon fill="midnightblue" stroke="midnightblue" points="779.585,-333.251 770.103,-337.977 780.462,-340.196 779.585,-333.251"/>
</g>
<!-- Node36 -->
<g id="node34" class="node"><title>Node36</title>
<g id="a_node34"><a xlink:href="Collision_8h.html" target="_top" xlink:title="Engine/include/Collision.h">
<polygon fill="white" stroke="black" points="0,-280.5 0,-299.5 129,-299.5 129,-280.5 0,-280.5"/>
<text text-anchor="middle" x="64.5" y="-287.5" font-family="Helvetica,sans-Serif" font-size="10.00">Engine/include/Collision.h</text>
</a>
</g>
</g>
<!-- Node3&#45;&gt;Node36 -->
<g id="edge59" class="edge"><title>Node3&#45;&gt;Node36</title>
<path fill="none" stroke="midnightblue" d="M646.416,-340.212C540.692,-332.538 328.872,-316.649 149.5,-300 142.999,-299.397 136.221,-298.735 129.454,-298.052"/>
<polygon fill="midnightblue" stroke="midnightblue" points="646.393,-343.719 656.619,-340.951 646.898,-336.737 646.393,-343.719"/>
</g>
<!-- Node37 -->
<g id="node35" class="node"><title>Node37</title>
<g id="a_node35"><a xlink:href="Rect_8cpp.html" target="_top" xlink:title="Engine/src/Rect.cpp">
<polygon fill="white" stroke="black" points="1744.5,-280.5 1744.5,-299.5 1850.5,-299.5 1850.5,-280.5 1744.5,-280.5"/>
<text text-anchor="middle" x="1797.5" y="-287.5" font-family="Helvetica,sans-Serif" font-size="10.00">Engine/src/Rect.cpp</text>
</a>
</g>
</g>
<!-- Node3&#45;&gt;Node37 -->
<g id="edge62" class="edge"><title>Node3&#45;&gt;Node37</title>
<path fill="none" stroke="midnightblue" d="M780.465,-344.104C943.383,-341.474 1373.28,-331.831 1730.5,-300 1734.94,-299.604 1739.54,-299.128 1744.15,-298.603"/>
<polygon fill="midnightblue" stroke="midnightblue" points="780.067,-340.61 770.123,-344.267 780.177,-347.609 780.067,-340.61"/>
</g>
<!-- Node5 -->
<g id="node3" class="node"><title>Node5</title>
<g id="a_node3"><a xlink:href="Animation_8h.html" target="_top" xlink:title="Engine/include/Animation.h">
<polygon fill="white" stroke="black" points="867,-168.5 867,-187.5 1002,-187.5 1002,-168.5 867,-168.5"/>
<text text-anchor="middle" x="934.5" y="-175.5" font-family="Helvetica,sans-Serif" font-size="10.00">Engine/include/Animation.h</text>
</a>
</g>
</g>
<!-- Node4&#45;&gt;Node5 -->
<g id="edge2" class="edge"><title>Node4&#45;&gt;Node5</title>
<path fill="none" stroke="midnightblue" d="M741.8,-276.308C761.239,-267.484 787.573,-255.319 810.5,-244 849.731,-224.632 895.097,-200.365 918.576,-187.664"/>
<polygon fill="midnightblue" stroke="midnightblue" points="740.257,-273.165 732.588,-280.475 743.141,-279.543 740.257,-273.165"/>
</g>
<!-- Node8 -->
<g id="node6" class="node"><title>Node8</title>
<g id="a_node6"><a xlink:href="Component_8h.html" target="_top" xlink:title="Engine/include/Component.h">
<polygon fill="white" stroke="black" points="642.5,-224.5 642.5,-243.5 784.5,-243.5 784.5,-224.5 642.5,-224.5"/>
<text text-anchor="middle" x="713.5" y="-231.5" font-family="Helvetica,sans-Serif" font-size="10.00">Engine/include/Component.h</text>
</a>
</g>
</g>
<!-- Node4&#45;&gt;Node8 -->
<g id="edge5" class="edge"><title>Node4&#45;&gt;Node8</title>
<path fill="none" stroke="midnightblue" d="M707.028,-270.101C706.396,-261.136 706.843,-250.858 708.369,-243.751"/>
<polygon fill="midnightblue" stroke="midnightblue" points="703.566,-270.622 708.334,-280.083 710.507,-269.713 703.566,-270.622"/>
</g>
<!-- Node13 -->
<g id="node11" class="node"><title>Node13</title>
<g id="a_node11"><a xlink:href="Camera_8h.html" target="_top" xlink:title="Engine/include/Camera.h">
<polygon fill="white" stroke="black" points="722.5,-168.5 722.5,-187.5 848.5,-187.5 848.5,-168.5 722.5,-168.5"/>
<text text-anchor="middle" x="785.5" y="-175.5" font-family="Helvetica,sans-Serif" font-size="10.00">Engine/include/Camera.h</text>
</a>
</g>
</g>
<!-- Node4&#45;&gt;Node13 -->
<g id="edge11" class="edge"><title>Node4&#45;&gt;Node13</title>
<path fill="none" stroke="midnightblue" d="M753.188,-276.576C768.595,-269.594 784.639,-259.15 793.5,-244 803.947,-226.137 795.496,-200.82 789.738,-187.676"/>
<polygon fill="midnightblue" stroke="midnightblue" points="751.646,-273.427 743.747,-280.488 754.325,-279.894 751.646,-273.427"/>
</g>
<!-- Node19 -->
<g id="node17" class="node"><title>Node19</title>
<g id="a_node17"><a xlink:href="TileMap_8h.html" target="_top" xlink:title="Engine/include/TileMap.h">
<polygon fill="white" stroke="black" points="265.5,-224.5 265.5,-243.5 391.5,-243.5 391.5,-224.5 265.5,-224.5"/>
<text text-anchor="middle" x="328.5" y="-231.5" font-family="Helvetica,sans-Serif" font-size="10.00">Engine/include/TileMap.h</text>
</a>
</g>
</g>
<!-- Node4&#45;&gt;Node19 -->
<g id="edge21" class="edge"><title>Node4&#45;&gt;Node19</title>
<path fill="none" stroke="midnightblue" d="M642.504,-279.042C569.789,-268.843 457.952,-253.157 389.219,-243.516"/>
<polygon fill="midnightblue" stroke="midnightblue" points="642.106,-282.521 652.496,-280.444 643.079,-275.588 642.106,-282.521"/>
</g>
<!-- Node20 -->
<g id="node18" class="node"><title>Node20</title>
<g id="a_node18"><a xlink:href="StageState_8h.html" target="_top" xlink:title="Game/include/StageState.h">
<polygon fill="white" stroke="black" points="1059,-168.5 1059,-187.5 1196,-187.5 1196,-168.5 1059,-168.5"/>
<text text-anchor="middle" x="1127.5" y="-175.5" font-family="Helvetica,sans-Serif" font-size="10.00">Game/include/StageState.h</text>
</a>
</g>
</g>
<!-- Node4&#45;&gt;Node20 -->
<g id="edge54" class="edge"><title>Node4&#45;&gt;Node20</title>
<path fill="none" stroke="midnightblue" d="M796.012,-282.744C879.105,-275.562 1001.04,-262.363 1044.5,-244 1075.86,-230.751 1105.46,-202.441 1119.31,-187.95"/>
<polygon fill="midnightblue" stroke="midnightblue" points="795.493,-279.275 785.826,-283.611 796.087,-286.25 795.493,-279.275"/>
</g>
<!-- Node21 -->
<g id="node19" class="node"><title>Node21</title>
<g id="a_node19"><a xlink:href="EndState_8h.html" target="_top" xlink:title="Game/include/EndState.h">
<polygon fill="white" stroke="black" points="937.5,-56.5 937.5,-75.5 1065.5,-75.5 1065.5,-56.5 937.5,-56.5"/>
<text text-anchor="middle" x="1001.5" y="-63.5" font-family="Helvetica,sans-Serif" font-size="10.00">Game/include/EndState.h</text>
</a>
</g>
</g>
<!-- Node4&#45;&gt;Node21 -->
<g id="edge53" class="edge"><title>Node4&#45;&gt;Node21</title>
<path fill="none" stroke="midnightblue" d="M795.844,-285.969C865.702,-278.512 962.065,-255.63 1010.5,-188 1017,-178.923 1006.56,-101.899 1002.78,-75.6903"/>
<polygon fill="midnightblue" stroke="midnightblue" points="795.349,-282.501 785.738,-286.96 796.032,-289.467 795.349,-282.501"/>
</g>
<!-- Node4&#45;&gt;Node24 -->
<g id="edge55" class="edge"><title>Node4&#45;&gt;Node24</title>
<path fill="none" stroke="midnightblue" d="M630.814,-284.966C518.546,-278.785 324.131,-265.389 256.5,-244 215.391,-230.999 172.641,-202.038 152.83,-187.57"/>
<polygon fill="midnightblue" stroke="midnightblue" points="630.907,-288.476 641.082,-285.524 631.286,-281.486 630.907,-288.476"/>
</g>
<!-- Node25 -->
<g id="node23" class="node"><title>Node25</title>
<g id="a_node23"><a xlink:href="State_8h.html" target="_top" xlink:title="Engine/include/State.h">
<polygon fill="white" stroke="black" points="1298,-224.5 1298,-243.5 1413,-243.5 1413,-224.5 1298,-224.5"/>
<text text-anchor="middle" x="1355.5" y="-231.5" font-family="Helvetica,sans-Serif" font-size="10.00">Engine/include/State.h</text>
</a>
</g>
</g>
<!-- Node4&#45;&gt;Node25 -->
<g id="edge33" class="edge"><title>Node4&#45;&gt;Node25</title>
<path fill="none" stroke="midnightblue" d="M795.642,-282.091C927.587,-270.993 1183.51,-249.467 1297.87,-239.848"/>
<polygon fill="midnightblue" stroke="midnightblue" points="795.258,-278.611 785.587,-282.937 795.845,-285.586 795.258,-278.611"/>
</g>
<!-- Node34 -->
<g id="node32" class="node"><title>Node34</title>
<g id="a_node32"><a xlink:href="Gameobject_8cpp.html" target="_top" xlink:title="Engine/src/Gameobject.cpp">
<polygon fill="white" stroke="black" points="487,-224.5 487,-243.5 624,-243.5 624,-224.5 487,-224.5"/>
<text text-anchor="middle" x="555.5" y="-231.5" font-family="Helvetica,sans-Serif" font-size="10.00">Engine/src/Gameobject.cpp</text>
</a>
</g>
</g>
<!-- Node4&#45;&gt;Node34 -->
<g id="edge52" class="edge"><title>Node4&#45;&gt;Node34</title>
<path fill="none" stroke="midnightblue" d="M678.892,-277.172C649.141,-267.004 606.953,-252.585 580.418,-243.516"/>
<polygon fill="midnightblue" stroke="midnightblue" points="677.87,-280.521 688.464,-280.444 680.134,-273.898 677.87,-280.521"/>
</g>
<!-- Node35 -->
<g id="node33" class="node"><title>Node35</title>
<g id="a_node33"><a xlink:href="Penguins_8h.html" target="_top" xlink:title="Game/include/Penguins.h">
<polygon fill="white" stroke="black" points="422.5,-168.5 422.5,-187.5 550.5,-187.5 550.5,-168.5 422.5,-168.5"/>
<text text-anchor="middle" x="486.5" y="-175.5" font-family="Helvetica,sans-Serif" font-size="10.00">Game/include/Penguins.h</text>
</a>
</g>
</g>
<!-- Node4&#45;&gt;Node35 -->
<g id="edge56" class="edge"><title>Node4&#45;&gt;Node35</title>
<path fill="none" stroke="midnightblue" d="M631.04,-284.215C570.992,-278.806 496.916,-267.468 477.5,-244 464.138,-227.849 474.633,-201.336 481.594,-187.7"/>
<polygon fill="midnightblue" stroke="midnightblue" points="631.045,-287.728 641.307,-285.095 631.643,-280.754 631.045,-287.728"/>
</g>
<!-- Node6 -->
<g id="node4" class="node"><title>Node6</title>
<g id="a_node4"><a xlink:href="Animation_8cpp.html" target="_top" xlink:title="Engine/src/Animation.cpp">
<polygon fill="white" stroke="black" points="658.5,-112.5 658.5,-131.5 786.5,-131.5 786.5,-112.5 658.5,-112.5"/>
<text text-anchor="middle" x="722.5" y="-119.5" font-family="Helvetica,sans-Serif" font-size="10.00">Engine/src/Animation.cpp</text>
</a>
</g>
</g>
<!-- Node5&#45;&gt;Node6 -->
<g id="edge3" class="edge"><title>Node5&#45;&gt;Node6</title>
<path fill="none" stroke="midnightblue" d="M891.154,-165.959C851.113,-155.76 792.467,-140.822 755.935,-131.516"/>
<polygon fill="midnightblue" stroke="midnightblue" points="890.353,-169.367 900.908,-168.444 892.081,-162.583 890.353,-169.367"/>
</g>
<!-- Node7 -->
<g id="node5" class="node"><title>Node7</title>
<g id="a_node5"><a xlink:href="Penguins_8cpp.html" target="_top" xlink:title="Game/src/Penguins.cpp">
<polygon fill="white" stroke="black" points="804.5,-112.5 804.5,-131.5 926.5,-131.5 926.5,-112.5 804.5,-112.5"/>
<text text-anchor="middle" x="865.5" y="-119.5" font-family="Helvetica,sans-Serif" font-size="10.00">Game/src/Penguins.cpp</text>
</a>
</g>
</g>
<!-- Node5&#45;&gt;Node7 -->
<g id="edge4" class="edge"><title>Node5&#45;&gt;Node7</title>
<path fill="none" stroke="midnightblue" d="M915.462,-162.101C903.044,-152.382 887.257,-140.027 876.788,-131.834"/>
<polygon fill="midnightblue" stroke="midnightblue" points="913.382,-164.917 923.414,-168.324 917.696,-159.405 913.382,-164.917"/>
</g>
<!-- Node8&#45;&gt;Node4 -->
<g id="edge6" class="edge"><title>Node8&#45;&gt;Node4</title>
<path fill="none" stroke="midnightblue" d="M719.958,-253.691C720.606,-262.635 720.176,-272.927 718.666,-280.083"/>
<polygon fill="midnightblue" stroke="midnightblue" points="723.423,-253.2 718.631,-243.751 716.485,-254.126 723.423,-253.2"/>
</g>
<!-- Node9 -->
<g id="node7" class="node"><title>Node9</title>
<g id="a_node7"><a xlink:href="DragAndDrop_8h.html" target="_top" xlink:title="Engine/include/DragAndDrop.h">
<polygon fill="white" stroke="black" points="253,-168.5 253,-187.5 404,-187.5 404,-168.5 253,-168.5"/>
<text text-anchor="middle" x="328.5" y="-175.5" font-family="Helvetica,sans-Serif" font-size="10.00">Engine/include/DragAndDrop.h</text>
</a>
</g>
</g>
<!-- Node8&#45;&gt;Node9 -->
<g id="edge7" class="edge"><title>Node8&#45;&gt;Node9</title>
<path fill="none" stroke="midnightblue" d="M642.504,-223.042C569.789,-212.843 457.952,-197.157 389.219,-187.516"/>
<polygon fill="midnightblue" stroke="midnightblue" points="642.106,-226.521 652.496,-224.444 643.079,-219.588 642.106,-226.521"/>
</g>
<!-- Node12 -->
<g id="node10" class="node"><title>Node12</title>
<g id="a_node10"><a xlink:href="Component_8cpp.html" target="_top" xlink:title="Engine/src/Component.cpp">
<polygon fill="white" stroke="black" points="569,-168.5 569,-187.5 704,-187.5 704,-168.5 569,-168.5"/>
<text text-anchor="middle" x="636.5" y="-175.5" font-family="Helvetica,sans-Serif" font-size="10.00">Engine/src/Component.cpp</text>
</a>
</g>
</g>
<!-- Node8&#45;&gt;Node12 -->
<g id="edge10" class="edge"><title>Node8&#45;&gt;Node12</title>
<path fill="none" stroke="midnightblue" d="M692.599,-218.342C678.589,-208.517 660.617,-195.913 648.841,-187.655"/>
<polygon fill="midnightblue" stroke="midnightblue" points="690.932,-221.448 701.129,-224.324 694.951,-215.717 690.932,-221.448"/>
</g>
<!-- Node10 -->
<g id="node8" class="node"><title>Node10</title>
<g id="a_node8"><a xlink:href="DragAndDrop_8cpp.html" target="_top" xlink:title="Engine/src/DragAndDrop.cpp">
<polygon fill="white" stroke="black" points="348.5,-112.5 348.5,-131.5 492.5,-131.5 492.5,-112.5 348.5,-112.5"/>
<text text-anchor="middle" x="420.5" y="-119.5" font-family="Helvetica,sans-Serif" font-size="10.00">Engine/src/DragAndDrop.cpp</text>
</a>
</g>
</g>
<!-- Node9&#45;&gt;Node10 -->
<g id="edge8" class="edge"><title>Node9&#45;&gt;Node10</title>
<path fill="none" stroke="midnightblue" d="M352.05,-163.177C368.979,-153.241 391.283,-140.149 405.755,-131.655"/>
<polygon fill="midnightblue" stroke="midnightblue" points="350.134,-160.243 343.281,-168.324 353.677,-166.28 350.134,-160.243"/>
</g>
<!-- Node11 -->
<g id="node9" class="node"><title>Node11</title>
<g id="a_node9"><a xlink:href="Face_8cpp.html" target="_top" xlink:title="Game/src/Face.cpp">
<polygon fill="white" stroke="black" points="90,-112.5 90,-131.5 193,-131.5 193,-112.5 90,-112.5"/>
<text text-anchor="middle" x="141.5" y="-119.5" font-family="Helvetica,sans-Serif" font-size="10.00">Game/src/Face.cpp</text>
</a>
</g>
</g>
<!-- Node9&#45;&gt;Node11 -->
<g id="edge9" class="edge"><title>Node9&#45;&gt;Node11</title>
<path fill="none" stroke="midnightblue" d="M288.91,-165.568C253.634,-155.381 202.806,-140.703 170.992,-131.516"/>
<polygon fill="midnightblue" stroke="midnightblue" points="288.291,-169.032 298.869,-168.444 290.233,-162.307 288.291,-169.032"/>
</g>
<!-- Node13&#45;&gt;Node6 -->
<g id="edge12" class="edge"><title>Node13&#45;&gt;Node6</title>
<path fill="none" stroke="midnightblue" d="M767.46,-161.537C756.227,-151.909 742.181,-139.869 732.806,-131.834"/>
<polygon fill="midnightblue" stroke="midnightblue" points="765.508,-164.473 775.378,-168.324 770.063,-159.159 765.508,-164.473"/>
</g>
<!-- Node13&#45;&gt;Node7 -->
<g id="edge19" class="edge"><title>Node13&#45;&gt;Node7</title>
<path fill="none" stroke="midnightblue" d="M806.801,-162.622C821.415,-152.757 840.327,-139.992 852.679,-131.655"/>
<polygon fill="midnightblue" stroke="midnightblue" points="804.684,-159.828 798.353,-168.324 808.6,-165.63 804.684,-159.828"/>
</g>
<!-- Node13&#45;&gt;Node10 -->
<g id="edge14" class="edge"><title>Node13&#45;&gt;Node10</title>
<path fill="none" stroke="midnightblue" d="M717.768,-166.979C648.821,-156.779 543.094,-141.137 478.065,-131.516"/>
<polygon fill="midnightblue" stroke="midnightblue" points="717.26,-170.442 727.665,-168.444 718.285,-163.518 717.26,-170.442"/>
</g>
<!-- Node13&#45;&gt;Node11 -->
<g id="edge18" class="edge"><title>Node13&#45;&gt;Node11</title>
<path fill="none" stroke="midnightblue" d="M711.942,-168.006C484.148,-146.373 424.493,-156.541 201.5,-132 198.778,-131.7 195.99,-131.369 193.177,-131.015"/>
<polygon fill="midnightblue" stroke="midnightblue" points="711.926,-171.52 722.214,-168.992 712.595,-164.552 711.926,-171.52"/>
</g>
<!-- Node14 -->
<g id="node12" class="node"><title>Node14</title>
<g id="a_node12"><a xlink:href="Camera_8cpp.html" target="_top" xlink:title="Engine/src/Camera.cpp">
<polygon fill="white" stroke="black" points="1299,-112.5 1299,-131.5 1418,-131.5 1418,-112.5 1299,-112.5"/>
<text text-anchor="middle" x="1358.5" y="-119.5" font-family="Helvetica,sans-Serif" font-size="10.00">Engine/src/Camera.cpp</text>
</a>
</g>
</g>
<!-- Node13&#45;&gt;Node14 -->
<g id="edge13" class="edge"><title>Node13&#45;&gt;Node14</title>
<path fill="none" stroke="midnightblue" d="M858.844,-167.901C1050.84,-148.191 1101.2,-152.115 1289.5,-132 1292.5,-131.679 1295.58,-131.335 1298.68,-130.976"/>
<polygon fill="midnightblue" stroke="midnightblue" points="858.286,-164.44 848.699,-168.951 859.006,-171.403 858.286,-164.44"/>
</g>
<!-- Node15 -->
<g id="node13" class="node"><title>Node15</title>
<g id="a_node13"><a xlink:href="Sprite_8cpp.html" target="_top" xlink:title="Engine/src/Sprite.cpp">
<polygon fill="white" stroke="black" points="1038.5,-112.5 1038.5,-131.5 1148.5,-131.5 1148.5,-112.5 1038.5,-112.5"/>
<text text-anchor="middle" x="1093.5" y="-119.5" font-family="Helvetica,sans-Serif" font-size="10.00">Engine/src/Sprite.cpp</text>
</a>
</g>
</g>
<!-- Node13&#45;&gt;Node15 -->
<g id="edge15" class="edge"><title>Node13&#45;&gt;Node15</title>
<path fill="none" stroke="midnightblue" d="M844.452,-166.664C902.659,-156.459 990.613,-141.039 1044.92,-131.516"/>
<polygon fill="midnightblue" stroke="midnightblue" points="843.549,-163.269 834.304,-168.444 844.758,-170.164 843.549,-163.269"/>
</g>
<!-- Node16 -->
<g id="node14" class="node"><title>Node16</title>
<g id="a_node14"><a xlink:href="TileMap_8cpp.html" target="_top" xlink:title="Engine/src/TileMap.cpp">
<polygon fill="white" stroke="black" points="211,-112.5 211,-131.5 330,-131.5 330,-112.5 211,-112.5"/>
<text text-anchor="middle" x="270.5" y="-119.5" font-family="Helvetica,sans-Serif" font-size="10.00">Engine/src/TileMap.cpp</text>
</a>
</g>
</g>
<!-- Node13&#45;&gt;Node16 -->
<g id="edge16" class="edge"><title>Node13&#45;&gt;Node16</title>
<path fill="none" stroke="midnightblue" d="M712.086,-167.985C545.262,-149.839 501.755,-150.407 339.5,-132 336.499,-131.66 333.426,-131.3 330.324,-130.928"/>
<polygon fill="midnightblue" stroke="midnightblue" points="711.883,-171.484 722.204,-169.092 712.644,-164.526 711.883,-171.484"/>
</g>
<!-- Node17 -->
<g id="node15" class="node"><title>Node17</title>
<g id="a_node15"><a xlink:href="Tileset_8cpp.html" target="_top" xlink:title="Engine/src/Tileset.cpp">
<polygon fill="white" stroke="black" points="1166.5,-112.5 1166.5,-131.5 1280.5,-131.5 1280.5,-112.5 1166.5,-112.5"/>
<text text-anchor="middle" x="1223.5" y="-119.5" font-family="Helvetica,sans-Serif" font-size="10.00">Engine/src/Tileset.cpp</text>
</a>
</g>
</g>
<!-- Node13&#45;&gt;Node17 -->
<g id="edge17" class="edge"><title>Node13&#45;&gt;Node17</title>
<path fill="none" stroke="midnightblue" d="M858.929,-167.831C992.489,-151.536 1027.55,-148.656 1157.5,-132 1160.37,-131.632 1163.3,-131.251 1166.27,-130.861"/>
<polygon fill="midnightblue" stroke="midnightblue" points="858.215,-164.393 848.714,-169.08 859.065,-171.341 858.215,-164.393"/>
</g>
<!-- Node18 -->
<g id="node16" class="node"><title>Node18</title>
<g id="a_node16"><a xlink:href="StageState_8cpp.html" target="_top" xlink:title="Game/src/StageState.cpp">
<polygon fill="white" stroke="black" points="510.5,-112.5 510.5,-131.5 640.5,-131.5 640.5,-112.5 510.5,-112.5"/>
<text text-anchor="middle" x="575.5" y="-119.5" font-family="Helvetica,sans-Serif" font-size="10.00">Game/src/StageState.cpp</text>
</a>
</g>
</g>
<!-- Node13&#45;&gt;Node18 -->
<g id="edge20" class="edge"><title>Node13&#45;&gt;Node18</title>
<path fill="none" stroke="midnightblue" d="M742.31,-165.894C702.653,-155.697 644.73,-140.802 608.619,-131.516"/>
<polygon fill="midnightblue" stroke="midnightblue" points="741.668,-169.343 752.225,-168.444 743.412,-162.563 741.668,-169.343"/>
</g>
<!-- Node19&#45;&gt;Node9 -->
<g id="edge22" class="edge"><title>Node19&#45;&gt;Node9</title>
<path fill="none" stroke="midnightblue" d="M328.5,-213.805C328.5,-204.91 328.5,-194.78 328.5,-187.751"/>
<polygon fill="midnightblue" stroke="midnightblue" points="325,-214.083 328.5,-224.083 332,-214.083 325,-214.083"/>
</g>
<!-- Node19&#45;&gt;Node16 -->
<g id="edge23" class="edge"><title>Node19&#45;&gt;Node16</title>
<path fill="none" stroke="midnightblue" d="M285.374,-220.729C269.333,-213.84 252.787,-203.426 243.5,-188 232.155,-169.157 250.112,-144.677 261.774,-131.803"/>
<polygon fill="midnightblue" stroke="midnightblue" points="284.114,-223.994 294.701,-224.388 286.67,-217.478 284.114,-223.994"/>
</g>
<!-- Node19&#45;&gt;Node20 -->
<g id="edge24" class="edge"><title>Node19&#45;&gt;Node20</title>
<path fill="none" stroke="midnightblue" d="M401.717,-228.431C526.622,-220.578 788.89,-203.834 1010.5,-188 1026.15,-186.882 1042.97,-185.622 1058.84,-184.407"/>
<polygon fill="midnightblue" stroke="midnightblue" points="401.274,-224.952 391.513,-229.072 401.713,-231.938 401.274,-224.952"/>
</g>
<!-- Node19&#45;&gt;Node24 -->
<g id="edge30" class="edge"><title>Node19&#45;&gt;Node24</title>
<path fill="none" stroke="midnightblue" d="M288.91,-221.568C253.634,-211.381 202.806,-196.703 170.992,-187.516"/>
<polygon fill="midnightblue" stroke="midnightblue" points="288.291,-225.032 298.869,-224.444 290.233,-218.307 288.291,-225.032"/>
</g>
<!-- Node20&#45;&gt;Node18 -->
<g id="edge28" class="edge"><title>Node20&#45;&gt;Node18</title>
<path fill="none" stroke="midnightblue" d="M1048.89,-170.259C954.114,-161.979 790.028,-147.158 649.5,-132 646.669,-131.695 643.778,-131.375 640.859,-131.047"/>
<polygon fill="midnightblue" stroke="midnightblue" points="1048.7,-173.756 1058.97,-171.138 1049.31,-166.782 1048.7,-173.756"/>
</g>
<!-- Node20&#45;&gt;Node21 -->
<g id="edge25" class="edge"><title>Node20&#45;&gt;Node21</title>
<path fill="none" stroke="midnightblue" d="M1077.09,-165.289C1057.22,-158.237 1035.68,-147.54 1020.5,-132 1004.7,-115.825 997.15,-89.3224 997.492,-75.6942"/>
<polygon fill="midnightblue" stroke="midnightblue" points="1076.08,-168.64 1086.67,-168.463 1078.28,-161.996 1076.08,-168.64"/>
</g>
<!-- Node23 -->
<g id="node21" class="node"><title>Node23</title>
<g id="a_node21"><a xlink:href="TitleState_8cpp.html" target="_top" xlink:title="Game/src/TitleState.cpp">
<polygon fill="white" stroke="black" points="1436,-112.5 1436,-131.5 1559,-131.5 1559,-112.5 1436,-112.5"/>
<text text-anchor="middle" x="1497.5" y="-119.5" font-family="Helvetica,sans-Serif" font-size="10.00">Game/src/TitleState.cpp</text>
</a>
</g>
</g>
<!-- Node20&#45;&gt;Node23 -->
<g id="edge29" class="edge"><title>Node20&#45;&gt;Node23</title>
<path fill="none" stroke="midnightblue" d="M1196.16,-166.979C1266.05,-156.779 1373.23,-141.137 1439.15,-131.516"/>
<polygon fill="midnightblue" stroke="midnightblue" points="1195.52,-163.536 1186.13,-168.444 1196.53,-170.463 1195.52,-163.536"/>
</g>
<!-- Node21&#45;&gt;Node20 -->
<g id="edge26" class="edge"><title>Node21&#45;&gt;Node20</title>
<path fill="none" stroke="midnightblue" d="M1012.72,-84.98C1018.42,-99.281 1025.79,-118.984 1038.5,-132 1056.16,-150.082 1082.45,-161.608 1102.03,-168.463"/>
<polygon fill="midnightblue" stroke="midnightblue" points="1015.91,-83.5543 1008.81,-75.6942 1009.46,-86.269 1015.91,-83.5543"/>
</g>
<!-- Node22 -->
<g id="node20" class="node"><title>Node22</title>
<g id="a_node20"><a xlink:href="EndState_8cpp.html" target="_top" xlink:title="Game/src/EndState.cpp">
<polygon fill="white" stroke="black" points="940.5,-0.5 940.5,-19.5 1062.5,-19.5 1062.5,-0.5 940.5,-0.5"/>
<text text-anchor="middle" x="1001.5" y="-7.5" font-family="Helvetica,sans-Serif" font-size="10.00">Game/src/EndState.cpp</text>
</a>
</g>
</g>
<!-- Node21&#45;&gt;Node22 -->
<g id="edge27" class="edge"><title>Node21&#45;&gt;Node22</title>
<path fill="none" stroke="midnightblue" d="M1001.5,-45.8045C1001.5,-36.9102 1001.5,-26.7798 1001.5,-19.7511"/>
<polygon fill="midnightblue" stroke="midnightblue" points="998,-46.083 1001.5,-56.083 1005,-46.083 998,-46.083"/>
</g>
<!-- Node24&#45;&gt;Node11 -->
<g id="edge31" class="edge"><title>Node24&#45;&gt;Node11</title>
<path fill="none" stroke="midnightblue" d="M141.5,-157.805C141.5,-148.91 141.5,-138.78 141.5,-131.751"/>
<polygon fill="midnightblue" stroke="midnightblue" points="138,-158.083 141.5,-168.083 145,-158.083 138,-158.083"/>
</g>
<!-- Node24&#45;&gt;Node18 -->
<g id="edge32" class="edge"><title>Node24&#45;&gt;Node18</title>
<path fill="none" stroke="midnightblue" d="M206.846,-168.869C288.742,-158.68 428.274,-141.318 510.166,-131.129"/>
<polygon fill="midnightblue" stroke="midnightblue" points="206.399,-165.398 196.907,-170.106 207.263,-172.344 206.399,-165.398"/>
</g>
<!-- Node25&#45;&gt;Node20 -->
<g id="edge48" class="edge"><title>Node25&#45;&gt;Node20</title>
<path fill="none" stroke="midnightblue" d="M1309.43,-222.088C1266.35,-211.887 1202.91,-196.861 1163.46,-187.516"/>
<polygon fill="midnightblue" stroke="midnightblue" points="1308.84,-225.545 1319.37,-224.444 1310.45,-218.733 1308.84,-225.545"/>
</g>
<!-- Node26 -->
<g id="node24" class="node"><title>Node26</title>
<g id="a_node24"><a xlink:href="Game_8h.html" target="_top" xlink:title="Engine/include/Game.h">
<polygon fill="white" stroke="black" points="1296.5,-168.5 1296.5,-187.5 1414.5,-187.5 1414.5,-168.5 1296.5,-168.5"/>
<text text-anchor="middle" x="1355.5" y="-175.5" font-family="Helvetica,sans-Serif" font-size="10.00">Engine/include/Game.h</text>
</a>
</g>
</g>
<!-- Node25&#45;&gt;Node26 -->
<g id="edge34" class="edge"><title>Node25&#45;&gt;Node26</title>
<path fill="none" stroke="midnightblue" d="M1355.5,-213.805C1355.5,-204.91 1355.5,-194.78 1355.5,-187.751"/>
<polygon fill="midnightblue" stroke="midnightblue" points="1352,-214.083 1355.5,-224.083 1359,-214.083 1352,-214.083"/>
</g>
<!-- Node32 -->
<g id="node30" class="node"><title>Node32</title>
<g id="a_node30"><a xlink:href="State_8cpp.html" target="_top" xlink:title="Engine/src/State.cpp">
<polygon fill="white" stroke="black" points="1580.5,-168.5 1580.5,-187.5 1688.5,-187.5 1688.5,-168.5 1580.5,-168.5"/>
<text text-anchor="middle" x="1634.5" y="-175.5" font-family="Helvetica,sans-Serif" font-size="10.00">Engine/src/State.cpp</text>
</a>
</g>
</g>
<!-- Node25&#45;&gt;Node32 -->
<g id="edge47" class="edge"><title>Node25&#45;&gt;Node32</title>
<path fill="none" stroke="midnightblue" d="M1409.56,-222.537C1462.29,-212.332 1541.5,-196.999 1590.5,-187.516"/>
<polygon fill="midnightblue" stroke="midnightblue" points="1408.86,-219.107 1399.71,-224.444 1410.19,-225.979 1408.86,-219.107"/>
</g>
<!-- Node33 -->
<g id="node31" class="node"><title>Node33</title>
<g id="a_node31"><a xlink:href="TitleState_8h.html" target="_top" xlink:title="Game/include/TitleState.h">
<polygon fill="white" stroke="black" points="1432.5,-168.5 1432.5,-187.5 1562.5,-187.5 1562.5,-168.5 1432.5,-168.5"/>
<text text-anchor="middle" x="1497.5" y="-175.5" font-family="Helvetica,sans-Serif" font-size="10.00">Game/include/TitleState.h</text>
</a>
</g>
</g>
<!-- Node25&#45;&gt;Node33 -->
<g id="edge49" class="edge"><title>Node25&#45;&gt;Node33</title>
<path fill="none" stroke="midnightblue" d="M1387.66,-220.772C1414.33,-210.629 1451.57,-196.467 1475.1,-187.516"/>
<polygon fill="midnightblue" stroke="midnightblue" points="1386.1,-217.618 1378,-224.444 1388.59,-224.16 1386.1,-217.618"/>
</g>
<!-- Node26&#45;&gt;Node7 -->
<g id="edge44" class="edge"><title>Node26&#45;&gt;Node7</title>
<path fill="none" stroke="midnightblue" d="M1286.21,-169.364C1190.21,-158.785 1018.26,-139.835 926.739,-129.749"/>
<polygon fill="midnightblue" stroke="midnightblue" points="1286.07,-172.87 1296.39,-170.486 1286.84,-165.912 1286.07,-172.87"/>
</g>
<!-- Node26&#45;&gt;Node14 -->
<g id="edge38" class="edge"><title>Node26&#45;&gt;Node14</title>
<path fill="none" stroke="midnightblue" d="M1356.57,-157.805C1357.06,-148.91 1357.62,-138.78 1358.01,-131.751"/>
<polygon fill="midnightblue" stroke="midnightblue" points="1353.06,-157.904 1356,-168.083 1360.04,-158.293 1353.06,-157.904"/>
</g>
<!-- Node26&#45;&gt;Node15 -->
<g id="edge41" class="edge"><title>Node26&#45;&gt;Node15</title>
<path fill="none" stroke="midnightblue" d="M1304.12,-166.41C1254.6,-156.204 1180.64,-140.96 1134.82,-131.516"/>
<polygon fill="midnightblue" stroke="midnightblue" points="1303.48,-169.853 1313.99,-168.444 1304.9,-162.997 1303.48,-169.853"/>
</g>
<!-- Node26&#45;&gt;Node17 -->
<g id="edge42" class="edge"><title>Node26&#45;&gt;Node17</title>
<path fill="none" stroke="midnightblue" d="M1325.28,-164.638C1300.51,-154.504 1266.1,-140.427 1244.32,-131.516"/>
<polygon fill="midnightblue" stroke="midnightblue" points="1324,-167.897 1334.58,-168.444 1326.65,-161.418 1324,-167.897"/>
</g>
<!-- Node26&#45;&gt;Node18 -->
<g id="edge45" class="edge"><title>Node26&#45;&gt;Node18</title>
<path fill="none" stroke="midnightblue" d="M1286.43,-172.824C1121.1,-162.796 711.714,-137.761 649.5,-132 646.665,-131.737 643.771,-131.454 640.848,-131.154"/>
<polygon fill="midnightblue" stroke="midnightblue" points="1286.29,-176.322 1296.48,-173.434 1286.71,-169.335 1286.29,-176.322"/>
</g>
<!-- Node26&#45;&gt;Node23 -->
<g id="edge46" class="edge"><title>Node26&#45;&gt;Node23</title>
<path fill="none" stroke="midnightblue" d="M1387.66,-164.772C1414.33,-154.629 1451.57,-140.467 1475.1,-131.516"/>
<polygon fill="midnightblue" stroke="midnightblue" points="1386.1,-161.618 1378,-168.444 1388.59,-168.16 1386.1,-161.618"/>
</g>
<!-- Node26&#45;&gt;Node27 -->
<g id="edge35" class="edge"><title>Node26&#45;&gt;Node27</title>
<path fill="none" stroke="midnightblue" d="M1424.95,-167.92C1666.35,-144.427 1729.74,-156.296 1967.5,-132 1970.56,-131.687 1973.7,-131.34 1976.86,-130.97"/>
<polygon fill="midnightblue" stroke="midnightblue" points="1424.42,-164.455 1414.81,-168.917 1425.11,-171.422 1424.42,-164.455"/>
</g>
<!-- Node29 -->
<g id="node27" class="node"><title>Node29</title>
<g id="a_node27"><a xlink:href="Game_8cpp.html" target="_top" xlink:title="Engine/src/Game.cpp">
<polygon fill="white" stroke="black" points="1577,-112.5 1577,-131.5 1688,-131.5 1688,-112.5 1577,-112.5"/>
<text text-anchor="middle" x="1632.5" y="-119.5" font-family="Helvetica,sans-Serif" font-size="10.00">Engine/src/Game.cpp</text>
</a>
</g>
</g>
<!-- Node26&#45;&gt;Node29 -->
<g id="edge39" class="edge"><title>Node26&#45;&gt;Node29</title>
<path fill="none" stroke="midnightblue" d="M1409.5,-166.473C1461.85,-156.268 1540.27,-140.979 1588.81,-131.516"/>
<polygon fill="midnightblue" stroke="midnightblue" points="1408.54,-163.095 1399.39,-168.444 1409.88,-169.965 1408.54,-163.095"/>
</g>
<!-- Node30 -->
<g id="node28" class="node"><title>Node30</title>
<g id="a_node28"><a xlink:href="Resources_8cpp.html" target="_top" xlink:title="Engine/src/Resources.cpp">
<polygon fill="white" stroke="black" points="1706.5,-112.5 1706.5,-131.5 1838.5,-131.5 1838.5,-112.5 1706.5,-112.5"/>
<text text-anchor="middle" x="1772.5" y="-119.5" font-family="Helvetica,sans-Serif" font-size="10.00">Engine/src/Resources.cpp</text>
</a>
</g>
</g>
<!-- Node26&#45;&gt;Node30 -->
<g id="edge40" class="edge"><title>Node26&#45;&gt;Node30</title>
<path fill="none" stroke="midnightblue" d="M1424.9,-167.821C1529.03,-154.228 1638.22,-140.193 1706.24,-131.477"/>
<polygon fill="midnightblue" stroke="midnightblue" points="1424.3,-164.369 1414.84,-169.135 1425.21,-171.31 1424.3,-164.369"/>
</g>
<!-- Node31 -->
<g id="node29" class="node"><title>Node31</title>
<g id="a_node29"><a xlink:href="main_8cpp.html" target="_top" xlink:title="Game/src/main.cpp">
<polygon fill="white" stroke="black" points="1856.5,-112.5 1856.5,-131.5 1958.5,-131.5 1958.5,-112.5 1856.5,-112.5"/>
<text text-anchor="middle" x="1907.5" y="-119.5" font-family="Helvetica,sans-Serif" font-size="10.00">Game/src/main.cpp</text>
</a>
</g>
</g>
<!-- Node26&#45;&gt;Node31 -->
<g id="edge43" class="edge"><title>Node26&#45;&gt;Node31</title>
<path fill="none" stroke="midnightblue" d="M1424.77,-167.91C1613.2,-147.799 1662.88,-153.662 1847.5,-132 1850.43,-131.656 1853.44,-131.28 1856.47,-130.883"/>
<polygon fill="midnightblue" stroke="midnightblue" points="1424.39,-164.431 1414.82,-168.983 1425.14,-171.391 1424.39,-164.431"/>
</g>
<!-- Node27&#45;&gt;Node21 -->
<g id="edge37" class="edge"><title>Node27&#45;&gt;Node21</title>
<path fill="none" stroke="midnightblue" d="M1966.9,-112.043C1620.8,-80.5156 1219.09,-70.7277 1065.5,-67.9689"/>
<polygon fill="midnightblue" stroke="midnightblue" points="1966.59,-115.529 1976.87,-112.958 1967.23,-108.558 1966.59,-115.529"/>
</g>
<!-- Node28 -->
<g id="node26" class="node"><title>Node28</title>
<g id="a_node26"><a xlink:href="Text_8cpp.html" target="_top" xlink:title="Engine/src/Text.cpp">
<polygon fill="white" stroke="black" points="1980.5,-56.5 1980.5,-75.5 2084.5,-75.5 2084.5,-56.5 1980.5,-56.5"/>
<text text-anchor="middle" x="2032.5" y="-63.5" font-family="Helvetica,sans-Serif" font-size="10.00">Engine/src/Text.cpp</text>
</a>
</g>
</g>
<!-- Node27&#45;&gt;Node28 -->
<g id="edge36" class="edge"><title>Node27&#45;&gt;Node28</title>
<path fill="none" stroke="midnightblue" d="M2032.5,-101.805C2032.5,-92.9102 2032.5,-82.7798 2032.5,-75.7511"/>
<polygon fill="midnightblue" stroke="midnightblue" points="2029,-102.083 2032.5,-112.083 2036,-102.083 2029,-102.083"/>
</g>
<!-- Node33&#45;&gt;Node23 -->
<g id="edge51" class="edge"><title>Node33&#45;&gt;Node23</title>
<path fill="none" stroke="midnightblue" d="M1497.5,-157.805C1497.5,-148.91 1497.5,-138.78 1497.5,-131.751"/>
<polygon fill="midnightblue" stroke="midnightblue" points="1494,-158.083 1497.5,-168.083 1501,-158.083 1494,-158.083"/>
</g>
<!-- Node33&#45;&gt;Node31 -->
<g id="edge50" class="edge"><title>Node33&#45;&gt;Node31</title>
<path fill="none" stroke="midnightblue" d="M1572.89,-167.772C1643.81,-158.98 1752.94,-145.169 1847.5,-132 1850.42,-131.593 1853.42,-131.168 1856.45,-130.732"/>
<polygon fill="midnightblue" stroke="midnightblue" points="1572.2,-164.33 1562.71,-169.032 1573.06,-171.277 1572.2,-164.33"/>
</g>
<!-- Node35&#45;&gt;Node7 -->
<g id="edge57" class="edge"><title>Node35&#45;&gt;Node7</title>
<path fill="none" stroke="midnightblue" d="M556.83,-166.979C628.421,-156.779 738.204,-141.137 805.727,-131.516"/>
<polygon fill="midnightblue" stroke="midnightblue" points="555.96,-163.568 546.554,-168.444 556.947,-170.498 555.96,-163.568"/>
</g>
<!-- Node35&#45;&gt;Node18 -->
<g id="edge58" class="edge"><title>Node35&#45;&gt;Node18</title>
<path fill="none" stroke="midnightblue" d="M509.738,-162.901C526.058,-152.999 547.365,-140.071 561.236,-131.655"/>
<polygon fill="midnightblue" stroke="midnightblue" points="507.533,-160.144 500.799,-168.324 511.164,-166.129 507.533,-160.144"/>
</g>
<!-- Node36&#45;&gt;Node18 -->
<g id="edge60" class="edge"><title>Node36&#45;&gt;Node18</title>
<path fill="none" stroke="midnightblue" d="M60.0893,-270.481C54.9419,-243.744 50.2724,-194.626 77.5,-168 111.304,-134.943 454.469,-136.855 501.5,-132 504.332,-131.708 507.224,-131.399 510.145,-131.079"/>
<polygon fill="midnightblue" stroke="midnightblue" points="56.7066,-271.399 62.2329,-280.438 63.5498,-269.925 56.7066,-271.399"/>
</g>
</g>
</svg>
