<?xml version="1.0" encoding="UTF-8" standalone="no"?>
<!DOCTYPE svg PUBLIC "-//W3C//DTD SVG 1.1//EN"
 "http://www.w3.org/Graphics/SVG/1.1/DTD/svg11.dtd">
<!-- Generated by graphviz version 2.38.0 (20140413.2041)
 -->
<!-- Title: Engine/include/Rect.h Pages: 1 -->
<svg width="2356pt" height="364pt"
 viewBox="0.00 0.00 2355.98 364.00" xmlns="http://www.w3.org/2000/svg" xmlns:xlink="http://www.w3.org/1999/xlink">
<g id="graph0" class="graph" transform="scale(1 1) rotate(0) translate(4 360)">
<title>Engine/include/Rect.h</title>
<polygon fill="white" stroke="none" points="-4,4 -4,-360 2351.98,-360 2351.98,4 -4,4"/>
<!-- Node3 -->
<g id="node1" class="node"><title>Node3</title>
<polygon fill="#bfbfbf" stroke="black" points="502.482,-336.5 502.482,-355.5 615.482,-355.5 615.482,-336.5 502.482,-336.5"/>
<text text-anchor="middle" x="558.982" y="-343.5" font-family="Helvetica,sans-Serif" font-size="10.00">Engine/include/Rect.h</text>
</g>
<!-- Node4 -->
<g id="node2" class="node"><title>Node4</title>
<g id="a_node2"><a xlink:href="GameObject_8h.html" target="_top" xlink:title="Engine/include/GameObject.h">
<polygon fill="white" stroke="black" points="674.982,-280.5 674.982,-299.5 820.982,-299.5 820.982,-280.5 674.982,-280.5"/>
<text text-anchor="middle" x="747.982" y="-287.5" font-family="Helvetica,sans-Serif" font-size="10.00">Engine/include/GameObject.h</text>
</a>
</g>
</g>
<!-- Node3&#45;&gt;Node4 -->
<g id="edge1" class="edge"><title>Node3&#45;&gt;Node4</title>
<path fill="none" stroke="midnightblue" d="M598.995,-333.568C634.648,-323.381 686.02,-308.703 718.174,-299.516"/>
<polygon fill="midnightblue" stroke="midnightblue" points="597.583,-330.331 588.929,-336.444 599.506,-337.062 597.583,-330.331"/>
</g>
<!-- Node28 -->
<g id="node26" class="node"><title>Node28</title>
<g id="a_node26"><a xlink:href="Enemy_8h.html" target="_top" xlink:title="Game/include/Enemy.h">
<polygon fill="white" stroke="black" points="215.482,-168.5 215.482,-187.5 334.482,-187.5 334.482,-168.5 215.482,-168.5"/>
<text text-anchor="middle" x="274.982" y="-175.5" font-family="Helvetica,sans-Serif" font-size="10.00">Game/include/Enemy.h</text>
</a>
</g>
</g>
<!-- Node3&#45;&gt;Node28 -->
<g id="edge71" class="edge"><title>Node3&#45;&gt;Node28</title>
<path fill="none" stroke="midnightblue" d="M520.175,-333.308C495.907,-325.336 464.359,-313.748 437.982,-300 399.171,-279.771 392.149,-270.052 356.982,-244 330.707,-224.536 300.841,-200.308 285.424,-187.638"/>
<polygon fill="midnightblue" stroke="midnightblue" points="519.167,-336.661 529.759,-336.394 521.313,-329.997 519.167,-336.661"/>
</g>
<!-- Node29 -->
<g id="node27" class="node"><title>Node29</title>
<g id="a_node27"><a xlink:href="Face_8h.html" target="_top" xlink:title="Game/include/Face.h">
<polygon fill="white" stroke="black" points="352.982,-168.5 352.982,-187.5 462.982,-187.5 462.982,-168.5 352.982,-168.5"/>
<text text-anchor="middle" x="407.982" y="-175.5" font-family="Helvetica,sans-Serif" font-size="10.00">Game/include/Face.h</text>
</a>
</g>
</g>
<!-- Node3&#45;&gt;Node29 -->
<g id="edge72" class="edge"><title>Node3&#45;&gt;Node29</title>
<path fill="none" stroke="midnightblue" d="M525.058,-332.524C489.639,-317.495 435.855,-288.568 410.982,-244 400.962,-226.047 403.673,-200.768 406.077,-187.653"/>
<polygon fill="midnightblue" stroke="midnightblue" points="523.941,-335.848 534.522,-336.395 526.592,-329.369 523.941,-335.848"/>
</g>
<!-- Node32 -->
<g id="node30" class="node"><title>Node32</title>
<g id="a_node30"><a xlink:href="Text_8h.html" target="_top" xlink:title="Engine/include/Text.h">
<polygon fill="white" stroke="black" points="2204.48,-112.5 2204.48,-131.5 2315.48,-131.5 2315.48,-112.5 2204.48,-112.5"/>
<text text-anchor="middle" x="2259.98" y="-119.5" font-family="Helvetica,sans-Serif" font-size="10.00">Engine/include/Text.h</text>
</a>
</g>
</g>
<!-- Node3&#45;&gt;Node32 -->
<g id="edge69" class="edge"><title>Node3&#45;&gt;Node32</title>
<path fill="none" stroke="midnightblue" d="M626.091,-343.099C874.697,-335.627 1742.7,-305.618 2011.98,-244 2109.12,-221.773 2212.13,-155.786 2247.34,-131.822"/>
<polygon fill="midnightblue" stroke="midnightblue" points="625.657,-339.61 615.766,-343.407 625.866,-346.607 625.657,-339.61"/>
</g>
<!-- Node42 -->
<g id="node40" class="node"><title>Node42</title>
<g id="a_node40"><a xlink:href="Collision_8h.html" target="_top" xlink:title="Engine/include/Collision.h">
<polygon fill="white" stroke="black" points="24.4816,-280.5 24.4816,-299.5 153.482,-299.5 153.482,-280.5 24.4816,-280.5"/>
<text text-anchor="middle" x="88.9816" y="-287.5" font-family="Helvetica,sans-Serif" font-size="10.00">Engine/include/Collision.h</text>
</a>
</g>
</g>
<!-- Node3&#45;&gt;Node42 -->
<g id="edge67" class="edge"><title>Node3&#45;&gt;Node42</title>
<path fill="none" stroke="midnightblue" d="M492.192,-337.326C402.131,-326.979 242.806,-308.673 153.779,-298.445"/>
<polygon fill="midnightblue" stroke="midnightblue" points="491.954,-340.822 502.289,-338.486 492.754,-333.868 491.954,-340.822"/>
</g>
<!-- Node43 -->
<g id="node41" class="node"><title>Node43</title>
<g id="a_node41"><a xlink:href="Rect_8cpp.html" target="_top" xlink:title="Engine/src/Rect.cpp">
<polygon fill="white" stroke="black" points="2241.98,-280.5 2241.98,-299.5 2347.98,-299.5 2347.98,-280.5 2241.98,-280.5"/>
<text text-anchor="middle" x="2294.98" y="-287.5" font-family="Helvetica,sans-Serif" font-size="10.00">Engine/src/Rect.cpp</text>
</a>
</g>
</g>
<!-- Node3&#45;&gt;Node43 -->
<g id="edge70" class="edge"><title>Node3&#45;&gt;Node43</title>
<path fill="none" stroke="midnightblue" d="M625.566,-344.154C895.421,-340.578 1908.49,-325.692 2227.98,-300 2232.43,-299.643 2237.03,-299.193 2241.64,-298.686"/>
<polygon fill="midnightblue" stroke="midnightblue" points="625.481,-340.655 615.528,-344.286 625.573,-347.654 625.481,-340.655"/>
</g>
<!-- Node5 -->
<g id="node3" class="node"><title>Node5</title>
<g id="a_node3"><a xlink:href="Component_8h.html" target="_top" xlink:title="Engine/include/Component.h">
<polygon fill="white" stroke="black" points="929.982,-224.5 929.982,-243.5 1071.98,-243.5 1071.98,-224.5 929.982,-224.5"/>
<text text-anchor="middle" x="1000.98" y="-231.5" font-family="Helvetica,sans-Serif" font-size="10.00">Engine/include/Component.h</text>
</a>
</g>
</g>
<!-- Node4&#45;&gt;Node5 -->
<g id="edge2" class="edge"><title>Node4&#45;&gt;Node5</title>
<path fill="none" stroke="midnightblue" d="M792.977,-278.217C839.012,-268.013 909.967,-252.901 956.001,-243.516"/>
<polygon fill="midnightblue" stroke="midnightblue" points="791.981,-274.853 782.981,-280.444 793.503,-281.686 791.981,-274.853"/>
</g>
<!-- Node11 -->
<g id="node9" class="node"><title>Node11</title>
<g id="a_node9"><a xlink:href="StageState_8h.html" target="_top" xlink:title="Game/include/StageState.h">
<polygon fill="white" stroke="black" points="1852.48,-112.5 1852.48,-131.5 1989.48,-131.5 1989.48,-112.5 1852.48,-112.5"/>
<text text-anchor="middle" x="1920.98" y="-119.5" font-family="Helvetica,sans-Serif" font-size="10.00">Game/include/StageState.h</text>
</a>
</g>
</g>
<!-- Node4&#45;&gt;Node11 -->
<g id="edge64" class="edge"><title>Node4&#45;&gt;Node11</title>
<path fill="none" stroke="midnightblue" d="M831.398,-289.052C1065.85,-288.696 1719.32,-284.077 1806.98,-244 1861.58,-219.039 1902.71,-154.761 1916.22,-131.534"/>
<polygon fill="midnightblue" stroke="midnightblue" points="831.218,-285.552 821.222,-289.065 831.227,-292.552 831.218,-285.552"/>
</g>
<!-- Node12 -->
<g id="node10" class="node"><title>Node12</title>
<g id="a_node10"><a xlink:href="EndState_8h.html" target="_top" xlink:title="Game/include/EndState.h">
<polygon fill="white" stroke="black" points="2031.98,-56.5 2031.98,-75.5 2159.98,-75.5 2159.98,-56.5 2031.98,-56.5"/>
<text text-anchor="middle" x="2095.98" y="-63.5" font-family="Helvetica,sans-Serif" font-size="10.00">Game/include/EndState.h</text>
</a>
</g>
</g>
<!-- Node4&#45;&gt;Node12 -->
<g id="edge63" class="edge"><title>Node4&#45;&gt;Node12</title>
<path fill="none" stroke="midnightblue" d="M831.34,-289.601C1117.66,-290.775 2048.02,-286.9 2132.98,-188 2155,-162.37 2146.79,-143.658 2134.98,-112 2129.42,-97.0832 2116.43,-83.8287 2106.97,-75.6346"/>
<polygon fill="midnightblue" stroke="midnightblue" points="831.039,-286.099 821.023,-289.555 831.007,-293.099 831.039,-286.099"/>
</g>
<!-- Node20 -->
<g id="node18" class="node"><title>Node20</title>
<g id="a_node18"><a xlink:href="Animation_8h.html" target="_top" xlink:title="Engine/include/Animation.h">
<polygon fill="white" stroke="black" points="776.482,-224.5 776.482,-243.5 911.482,-243.5 911.482,-224.5 776.482,-224.5"/>
<text text-anchor="middle" x="843.982" y="-231.5" font-family="Helvetica,sans-Serif" font-size="10.00">Engine/include/Animation.h</text>
</a>
</g>
</g>
<!-- Node4&#45;&gt;Node20 -->
<g id="edge19" class="edge"><title>Node4&#45;&gt;Node20</title>
<path fill="none" stroke="midnightblue" d="M772.555,-275.177C790.22,-265.241 813.494,-252.149 828.596,-243.655"/>
<polygon fill="midnightblue" stroke="midnightblue" points="770.406,-272.371 763.406,-280.324 773.837,-278.472 770.406,-272.371"/>
</g>
<!-- Node22 -->
<g id="node20" class="node"><title>Node22</title>
<g id="a_node20"><a xlink:href="Camera_8h.html" target="_top" xlink:title="Engine/include/Camera.h">
<polygon fill="white" stroke="black" points="518.982,-168.5 518.982,-187.5 644.982,-187.5 644.982,-168.5 518.982,-168.5"/>
<text text-anchor="middle" x="581.982" y="-175.5" font-family="Helvetica,sans-Serif" font-size="10.00">Engine/include/Camera.h</text>
</a>
</g>
</g>
<!-- Node4&#45;&gt;Node22 -->
<g id="edge21" class="edge"><title>Node4&#45;&gt;Node22</title>
<path fill="none" stroke="midnightblue" d="M747.125,-269.834C745.476,-255.422 740.975,-236.146 728.982,-224 714.402,-209.234 663.297,-195.803 625.418,-187.533"/>
<polygon fill="midnightblue" stroke="midnightblue" points="743.66,-270.422 747.925,-280.12 750.639,-269.879 743.66,-270.422"/>
</g>
<!-- Node27 -->
<g id="node25" class="node"><title>Node27</title>
<g id="a_node25"><a xlink:href="TileMap_8h.html" target="_top" xlink:title="Engine/include/TileMap.h">
<polygon fill="white" stroke="black" points="435.982,-224.5 435.982,-243.5 561.982,-243.5 561.982,-224.5 435.982,-224.5"/>
<text text-anchor="middle" x="498.982" y="-231.5" font-family="Helvetica,sans-Serif" font-size="10.00">Engine/include/TileMap.h</text>
</a>
</g>
</g>
<!-- Node4&#45;&gt;Node27 -->
<g id="edge31" class="edge"><title>Node4&#45;&gt;Node27</title>
<path fill="none" stroke="midnightblue" d="M698.557,-278.281C651.503,-268.077 581.614,-252.92 538.252,-243.516"/>
<polygon fill="midnightblue" stroke="midnightblue" points="698.012,-281.745 708.527,-280.444 699.496,-274.904 698.012,-281.745"/>
</g>
<!-- Node4&#45;&gt;Node28 -->
<g id="edge65" class="edge"><title>Node4&#45;&gt;Node28</title>
<path fill="none" stroke="midnightblue" d="M664.557,-285.123C595.418,-280.197 495.196,-269.066 410.982,-244 364.079,-230.04 313.131,-201.791 289.074,-187.578"/>
<polygon fill="midnightblue" stroke="midnightblue" points="664.737,-288.643 674.953,-285.833 665.215,-281.66 664.737,-288.643"/>
</g>
<!-- Node4&#45;&gt;Node29 -->
<g id="edge66" class="edge"><title>Node4&#45;&gt;Node29</title>
<path fill="none" stroke="midnightblue" d="M664.601,-287.341C581.549,-283.971 461.565,-273.897 426.982,-244 410.438,-229.699 407.905,-201.866 407.756,-187.714"/>
<polygon fill="midnightblue" stroke="midnightblue" points="664.666,-290.846 674.792,-287.729 664.932,-283.851 664.666,-290.846"/>
</g>
<!-- Node30 -->
<g id="node28" class="node"><title>Node30</title>
<g id="a_node28"><a xlink:href="State_8h.html" target="_top" xlink:title="Engine/include/State.h">
<polygon fill="white" stroke="black" points="1683.48,-224.5 1683.48,-243.5 1798.48,-243.5 1798.48,-224.5 1683.48,-224.5"/>
<text text-anchor="middle" x="1740.98" y="-231.5" font-family="Helvetica,sans-Serif" font-size="10.00">Engine/include/State.h</text>
</a>
</g>
</g>
<!-- Node4&#45;&gt;Node30 -->
<g id="edge41" class="edge"><title>Node4&#45;&gt;Node30</title>
<path fill="none" stroke="midnightblue" d="M831.254,-284.472C1027.57,-273.796 1515.43,-247.266 1683.22,-238.141"/>
<polygon fill="midnightblue" stroke="midnightblue" points="830.794,-280.991 820.999,-285.029 831.175,-287.981 830.794,-280.991"/>
</g>
<!-- Node39 -->
<g id="node37" class="node"><title>Node39</title>
<g id="a_node37"><a xlink:href="Wave_8h.html" target="_top" xlink:title="Engine/include/Wave.h">
<polygon fill="white" stroke="black" points="148.482,-224.5 148.482,-243.5 265.482,-243.5 265.482,-224.5 148.482,-224.5"/>
<text text-anchor="middle" x="206.982" y="-231.5" font-family="Helvetica,sans-Serif" font-size="10.00">Engine/include/Wave.h</text>
</a>
</g>
</g>
<!-- Node4&#45;&gt;Node39 -->
<g id="edge59" class="edge"><title>Node4&#45;&gt;Node39</title>
<path fill="none" stroke="midnightblue" d="M664.631,-280.68C554.102,-269.648 361.807,-250.454 265.485,-240.839"/>
<polygon fill="midnightblue" stroke="midnightblue" points="664.44,-284.179 674.739,-281.689 665.136,-277.213 664.44,-284.179"/>
</g>
<!-- Node41 -->
<g id="node39" class="node"><title>Node41</title>
<g id="a_node39"><a xlink:href="GameObject_8cpp.html" target="_top" xlink:title="Engine/src/GameObject.cpp">
<polygon fill="white" stroke="black" points="579.982,-224.5 579.982,-243.5 719.982,-243.5 719.982,-224.5 579.982,-224.5"/>
<text text-anchor="middle" x="649.982" y="-231.5" font-family="Helvetica,sans-Serif" font-size="10.00">Engine/src/GameObject.cpp</text>
</a>
</g>
</g>
<!-- Node4&#45;&gt;Node41 -->
<g id="edge62" class="edge"><title>Node4&#45;&gt;Node41</title>
<path fill="none" stroke="midnightblue" d="M723.396,-275.453C705.304,-265.483 681.247,-252.228 665.688,-243.655"/>
<polygon fill="midnightblue" stroke="midnightblue" points="721.789,-278.563 732.236,-280.324 725.167,-272.432 721.789,-278.563"/>
</g>
<!-- Node5&#45;&gt;Node4 -->
<g id="edge6" class="edge"><title>Node5&#45;&gt;Node4</title>
<path fill="none" stroke="midnightblue" d="M956.182,-245.739C910.218,-255.929 839.264,-271.043 793.159,-280.444"/>
<polygon fill="midnightblue" stroke="midnightblue" points="957.161,-249.107 966.161,-243.516 955.639,-242.275 957.161,-249.107"/>
</g>
<!-- Node6 -->
<g id="node4" class="node"><title>Node6</title>
<g id="a_node4"><a xlink:href="AIGoDown_8h.html" target="_top" xlink:title="Engine/include/AIGoDown.h">
<polygon fill="white" stroke="black" points="900.982,-168.5 900.982,-187.5 1040.98,-187.5 1040.98,-168.5 900.982,-168.5"/>
<text text-anchor="middle" x="970.982" y="-175.5" font-family="Helvetica,sans-Serif" font-size="10.00">Engine/include/AIGoDown.h</text>
</a>
</g>
</g>
<!-- Node5&#45;&gt;Node6 -->
<g id="edge3" class="edge"><title>Node5&#45;&gt;Node6</title>
<path fill="none" stroke="midnightblue" d="M991.134,-215.275C986.007,-206.045 979.965,-195.17 975.843,-187.751"/>
<polygon fill="midnightblue" stroke="midnightblue" points="988.112,-217.041 996.028,-224.083 994.231,-213.642 988.112,-217.041"/>
</g>
<!-- Node9 -->
<g id="node7" class="node"><title>Node9</title>
<g id="a_node7"><a xlink:href="DragAndDrop_8h.html" target="_top" xlink:title="Engine/include/DragAndDrop.h">
<polygon fill="white" stroke="black" points="663.482,-168.5 663.482,-187.5 814.482,-187.5 814.482,-168.5 663.482,-168.5"/>
<text text-anchor="middle" x="738.982" y="-175.5" font-family="Helvetica,sans-Serif" font-size="10.00">Engine/include/DragAndDrop.h</text>
</a>
</g>
</g>
<!-- Node5&#45;&gt;Node9 -->
<g id="edge7" class="edge"><title>Node5&#45;&gt;Node9</title>
<path fill="none" stroke="midnightblue" d="M949.598,-222.41C900.083,-212.204 826.12,-196.96 780.302,-187.516"/>
<polygon fill="midnightblue" stroke="midnightblue" points="948.966,-225.853 959.467,-224.444 950.379,-218.997 948.966,-225.853"/>
</g>
<!-- Node17 -->
<g id="node15" class="node"><title>Node17</title>
<g id="a_node15"><a xlink:href="HitPoints_8h.html" target="_top" xlink:title="Engine/include/HitPoints.h">
<polygon fill="white" stroke="black" points="1058.98,-168.5 1058.98,-187.5 1190.98,-187.5 1190.98,-168.5 1058.98,-168.5"/>
<text text-anchor="middle" x="1124.98" y="-175.5" font-family="Helvetica,sans-Serif" font-size="10.00">Engine/include/HitPoints.h</text>
</a>
</g>
</g>
<!-- Node5&#45;&gt;Node17 -->
<g id="edge16" class="edge"><title>Node5&#45;&gt;Node17</title>
<path fill="none" stroke="midnightblue" d="M1029.99,-220.368C1053.21,-210.255 1085.14,-196.349 1105.43,-187.516"/>
<polygon fill="midnightblue" stroke="midnightblue" points="1028.4,-217.242 1020.63,-224.444 1031.2,-223.66 1028.4,-217.242"/>
</g>
<!-- Node19 -->
<g id="node17" class="node"><title>Node19</title>
<g id="a_node17"><a xlink:href="Component_8cpp.html" target="_top" xlink:title="Engine/src/Component.cpp">
<polygon fill="white" stroke="black" points="1209.48,-168.5 1209.48,-187.5 1344.48,-187.5 1344.48,-168.5 1209.48,-168.5"/>
<text text-anchor="middle" x="1276.98" y="-175.5" font-family="Helvetica,sans-Serif" font-size="10.00">Engine/src/Component.cpp</text>
</a>
</g>
</g>
<!-- Node5&#45;&gt;Node19 -->
<g id="edge18" class="edge"><title>Node5&#45;&gt;Node19</title>
<path fill="none" stroke="midnightblue" d="M1054.78,-222.473C1106.95,-212.268 1185.09,-196.979 1233.45,-187.516"/>
<polygon fill="midnightblue" stroke="midnightblue" points="1053.86,-219.088 1044.71,-224.444 1055.2,-225.958 1053.86,-219.088"/>
</g>
<!-- Node7 -->
<g id="node5" class="node"><title>Node7</title>
<g id="a_node5"><a xlink:href="AIGoDown_8cpp.html" target="_top" xlink:title="Engine/src/AIGoDown.cpp">
<polygon fill="white" stroke="black" points="934.482,-112.5 934.482,-131.5 1067.48,-131.5 1067.48,-112.5 934.482,-112.5"/>
<text text-anchor="middle" x="1000.98" y="-119.5" font-family="Helvetica,sans-Serif" font-size="10.00">Engine/src/AIGoDown.cpp</text>
</a>
</g>
</g>
<!-- Node6&#45;&gt;Node7 -->
<g id="edge4" class="edge"><title>Node6&#45;&gt;Node7</title>
<path fill="none" stroke="midnightblue" d="M980.829,-159.275C985.956,-150.045 991.998,-139.17 996.12,-131.751"/>
<polygon fill="midnightblue" stroke="midnightblue" points="977.732,-157.642 975.936,-168.083 983.852,-161.041 977.732,-157.642"/>
</g>
<!-- Node8 -->
<g id="node6" class="node"><title>Node8</title>
<g id="a_node6"><a xlink:href="Enemy_8cpp.html" target="_top" xlink:title="Game/src/Enemy.cpp">
<polygon fill="white" stroke="black" points="203.982,-112.5 203.982,-131.5 315.982,-131.5 315.982,-112.5 203.982,-112.5"/>
<text text-anchor="middle" x="259.982" y="-119.5" font-family="Helvetica,sans-Serif" font-size="10.00">Game/src/Enemy.cpp</text>
</a>
</g>
</g>
<!-- Node6&#45;&gt;Node8 -->
<g id="edge5" class="edge"><title>Node6&#45;&gt;Node8</title>
<path fill="none" stroke="midnightblue" d="M890.494,-171.385C774.076,-163.185 551.929,-147.247 362.982,-132 347.773,-130.773 331.309,-129.368 316.1,-128.04"/>
<polygon fill="midnightblue" stroke="midnightblue" points="890.521,-174.895 900.742,-172.106 891.013,-167.912 890.521,-174.895"/>
</g>
<!-- Node10 -->
<g id="node8" class="node"><title>Node10</title>
<g id="a_node8"><a xlink:href="DragAndDrop_8cpp.html" target="_top" xlink:title="Engine/src/DragAndDrop.cpp">
<polygon fill="white" stroke="black" points="493.982,-112.5 493.982,-131.5 637.982,-131.5 637.982,-112.5 493.982,-112.5"/>
<text text-anchor="middle" x="565.982" y="-119.5" font-family="Helvetica,sans-Serif" font-size="10.00">Engine/src/DragAndDrop.cpp</text>
</a>
</g>
</g>
<!-- Node9&#45;&gt;Node10 -->
<g id="edge8" class="edge"><title>Node9&#45;&gt;Node10</title>
<path fill="none" stroke="midnightblue" d="M701.935,-165.436C669.317,-155.255 622.572,-140.664 593.266,-131.516"/>
<polygon fill="midnightblue" stroke="midnightblue" points="700.981,-168.805 711.569,-168.444 703.066,-162.123 700.981,-168.805"/>
</g>
<!-- Node9&#45;&gt;Node11 -->
<g id="edge9" class="edge"><title>Node9&#45;&gt;Node11</title>
<path fill="none" stroke="midnightblue" d="M825.077,-171.619C846.899,-170.342 870.3,-169.048 891.982,-168 1314.46,-147.58 1421.24,-164.265 1842.98,-132 1845.97,-131.771 1849.02,-131.515 1852.11,-131.239"/>
<polygon fill="midnightblue" stroke="midnightblue" points="824.618,-168.14 814.841,-172.223 825.03,-175.128 824.618,-168.14"/>
</g>
<!-- Node16 -->
<g id="node14" class="node"><title>Node16</title>
<g id="a_node14"><a xlink:href="Face_8cpp.html" target="_top" xlink:title="Game/src/Face.cpp">
<polygon fill="white" stroke="black" points="372.482,-112.5 372.482,-131.5 475.482,-131.5 475.482,-112.5 372.482,-112.5"/>
<text text-anchor="middle" x="423.982" y="-119.5" font-family="Helvetica,sans-Serif" font-size="10.00">Game/src/Face.cpp</text>
</a>
</g>
</g>
<!-- Node9&#45;&gt;Node16 -->
<g id="edge15" class="edge"><title>Node9&#45;&gt;Node16</title>
<path fill="none" stroke="midnightblue" d="M679.059,-166.727C619.533,-156.523 529.322,-141.058 473.661,-131.516"/>
<polygon fill="midnightblue" stroke="midnightblue" points="678.621,-170.203 689.069,-168.444 679.804,-163.304 678.621,-170.203"/>
</g>
<!-- Node11&#45;&gt;Node12 -->
<g id="edge10" class="edge"><title>Node11&#45;&gt;Node12</title>
<path fill="none" stroke="midnightblue" d="M1953.21,-109.304C1984.57,-99.1294 2031.78,-84.6246 2063.3,-75.5164"/>
<polygon fill="midnightblue" stroke="midnightblue" points="1952.04,-106.005 1943.62,-112.444 1954.21,-112.658 1952.04,-106.005"/>
</g>
<!-- Node14 -->
<g id="node12" class="node"><title>Node14</title>
<g id="a_node12"><a xlink:href="StageState_8cpp.html" target="_top" xlink:title="Game/src/StageState.cpp">
<polygon fill="white" stroke="black" points="125.982,-56.5 125.982,-75.5 255.982,-75.5 255.982,-56.5 125.982,-56.5"/>
<text text-anchor="middle" x="190.982" y="-63.5" font-family="Helvetica,sans-Serif" font-size="10.00">Game/src/StageState.cpp</text>
</a>
</g>
</g>
<!-- Node11&#45;&gt;Node14 -->
<g id="edge13" class="edge"><title>Node11&#45;&gt;Node14</title>
<path fill="none" stroke="midnightblue" d="M1842.02,-112.007C1218.58,-68.1092 476.876,-66.228 256.018,-66.7257"/>
<polygon fill="midnightblue" stroke="midnightblue" points="1841.89,-115.506 1852.11,-112.722 1842.38,-108.524 1841.89,-115.506"/>
</g>
<!-- Node15 -->
<g id="node13" class="node"><title>Node15</title>
<g id="a_node13"><a xlink:href="TitleState_8cpp.html" target="_top" xlink:title="Game/src/TitleState.cpp">
<polygon fill="white" stroke="black" points="1859.48,-56.5 1859.48,-75.5 1982.48,-75.5 1982.48,-56.5 1859.48,-56.5"/>
<text text-anchor="middle" x="1920.98" y="-63.5" font-family="Helvetica,sans-Serif" font-size="10.00">Game/src/TitleState.cpp</text>
</a>
</g>
</g>
<!-- Node11&#45;&gt;Node15 -->
<g id="edge14" class="edge"><title>Node11&#45;&gt;Node15</title>
<path fill="none" stroke="midnightblue" d="M1920.98,-101.805C1920.98,-92.9102 1920.98,-82.7798 1920.98,-75.7511"/>
<polygon fill="midnightblue" stroke="midnightblue" points="1917.48,-102.083 1920.98,-112.083 1924.48,-102.083 1917.48,-102.083"/>
</g>
<!-- Node12&#45;&gt;Node11 -->
<g id="edge11" class="edge"><title>Node12&#45;&gt;Node11</title>
<path fill="none" stroke="midnightblue" d="M2063.89,-78.6509C2032.57,-88.8133 1985.37,-103.32 1953.8,-112.444"/>
<polygon fill="midnightblue" stroke="midnightblue" points="2065.05,-81.9552 2073.46,-75.5164 2062.87,-75.3029 2065.05,-81.9552"/>
</g>
<!-- Node13 -->
<g id="node11" class="node"><title>Node13</title>
<g id="a_node11"><a xlink:href="EndState_8cpp.html" target="_top" xlink:title="Game/src/EndState.cpp">
<polygon fill="white" stroke="black" points="2034.98,-0.5 2034.98,-19.5 2156.98,-19.5 2156.98,-0.5 2034.98,-0.5"/>
<text text-anchor="middle" x="2095.98" y="-7.5" font-family="Helvetica,sans-Serif" font-size="10.00">Game/src/EndState.cpp</text>
</a>
</g>
</g>
<!-- Node12&#45;&gt;Node13 -->
<g id="edge12" class="edge"><title>Node12&#45;&gt;Node13</title>
<path fill="none" stroke="midnightblue" d="M2095.98,-45.8045C2095.98,-36.9102 2095.98,-26.7798 2095.98,-19.7511"/>
<polygon fill="midnightblue" stroke="midnightblue" points="2092.48,-46.083 2095.98,-56.083 2099.48,-46.083 2092.48,-46.083"/>
</g>
<!-- Node18 -->
<g id="node16" class="node"><title>Node18</title>
<g id="a_node16"><a xlink:href="HItPoints_8cpp.html" target="_top" xlink:title="Engine/src/HItPoints.cpp">
<polygon fill="white" stroke="black" points="1085.98,-112.5 1085.98,-131.5 1211.98,-131.5 1211.98,-112.5 1085.98,-112.5"/>
<text text-anchor="middle" x="1148.98" y="-119.5" font-family="Helvetica,sans-Serif" font-size="10.00">Engine/src/HItPoints.cpp</text>
</a>
</g>
</g>
<!-- Node17&#45;&gt;Node18 -->
<g id="edge17" class="edge"><title>Node17&#45;&gt;Node18</title>
<path fill="none" stroke="midnightblue" d="M1133.12,-158.69C1137.16,-149.589 1141.86,-139.014 1145.09,-131.751"/>
<polygon fill="midnightblue" stroke="midnightblue" points="1129.81,-157.523 1128.94,-168.083 1136.2,-160.366 1129.81,-157.523"/>
</g>
<!-- Node21 -->
<g id="node19" class="node"><title>Node21</title>
<g id="a_node19"><a xlink:href="Animation_8cpp.html" target="_top" xlink:title="Engine/src/Animation.cpp">
<polygon fill="white" stroke="black" points="655.982,-112.5 655.982,-131.5 783.982,-131.5 783.982,-112.5 655.982,-112.5"/>
<text text-anchor="middle" x="719.982" y="-119.5" font-family="Helvetica,sans-Serif" font-size="10.00">Engine/src/Animation.cpp</text>
</a>
</g>
</g>
<!-- Node20&#45;&gt;Node21 -->
<g id="edge20" class="edge"><title>Node20&#45;&gt;Node21</title>
<path fill="none" stroke="midnightblue" d="M842.079,-214.182C839.74,-199.958 834.537,-180.765 822.982,-168 806.153,-149.41 780.268,-138.144 758.657,-131.534"/>
<polygon fill="midnightblue" stroke="midnightblue" points="838.636,-214.847 843.408,-224.306 845.577,-213.936 838.636,-214.847"/>
</g>
<!-- Node22&#45;&gt;Node8 -->
<g id="edge28" class="edge"><title>Node22&#45;&gt;Node8</title>
<path fill="none" stroke="midnightblue" d="M520.727,-166.727C459.878,-156.523 367.663,-141.058 310.765,-131.516"/>
<polygon fill="midnightblue" stroke="midnightblue" points="520.519,-170.241 530.96,-168.444 521.676,-163.338 520.519,-170.241"/>
</g>
<!-- Node22&#45;&gt;Node10 -->
<g id="edge24" class="edge"><title>Node22&#45;&gt;Node10</title>
<path fill="none" stroke="midnightblue" d="M576.469,-158.396C573.793,-149.362 570.703,-138.936 568.575,-131.751"/>
<polygon fill="midnightblue" stroke="midnightblue" points="573.143,-159.489 579.34,-168.083 579.854,-157.501 573.143,-159.489"/>
</g>
<!-- Node22&#45;&gt;Node14 -->
<g id="edge30" class="edge"><title>Node22&#45;&gt;Node14</title>
<path fill="none" stroke="midnightblue" d="M508.994,-167.285C465.726,-160.235 410.28,-148.921 362.982,-132 345.012,-125.571 342.529,-119.506 324.982,-112 290.009,-97.0391 248.263,-83.6983 220.766,-75.5003"/>
<polygon fill="midnightblue" stroke="midnightblue" points="508.448,-170.742 518.874,-168.856 509.547,-163.829 508.448,-170.742"/>
</g>
<!-- Node22&#45;&gt;Node16 -->
<g id="edge29" class="edge"><title>Node22&#45;&gt;Node16</title>
<path fill="none" stroke="midnightblue" d="M547.374,-165.172C517.623,-155.004 475.434,-140.585 448.9,-131.516"/>
<polygon fill="midnightblue" stroke="midnightblue" points="546.352,-168.521 556.946,-168.444 548.615,-161.898 546.352,-168.521"/>
</g>
<!-- Node22&#45;&gt;Node21 -->
<g id="edge22" class="edge"><title>Node22&#45;&gt;Node21</title>
<path fill="none" stroke="midnightblue" d="M613.231,-164.772C639.153,-154.629 675.344,-140.467 698.217,-131.516"/>
<polygon fill="midnightblue" stroke="midnightblue" points="611.885,-161.54 603.848,-168.444 614.436,-168.059 611.885,-161.54"/>
</g>
<!-- Node23 -->
<g id="node21" class="node"><title>Node23</title>
<g id="a_node21"><a xlink:href="Camera_8cpp.html" target="_top" xlink:title="Engine/src/Camera.cpp">
<polygon fill="white" stroke="black" points="1230.48,-112.5 1230.48,-131.5 1349.48,-131.5 1349.48,-112.5 1230.48,-112.5"/>
<text text-anchor="middle" x="1289.98" y="-119.5" font-family="Helvetica,sans-Serif" font-size="10.00">Engine/src/Camera.cpp</text>
</a>
</g>
</g>
<!-- Node22&#45;&gt;Node23 -->
<g id="edge23" class="edge"><title>Node22&#45;&gt;Node23</title>
<path fill="none" stroke="midnightblue" d="M655.364,-167.928C907.104,-144.64 972.964,-156.022 1220.98,-132 1223.99,-131.709 1227.06,-131.389 1230.17,-131.048"/>
<polygon fill="midnightblue" stroke="midnightblue" points="654.805,-164.465 645.174,-168.88 655.456,-171.434 654.805,-164.465"/>
</g>
<!-- Node24 -->
<g id="node22" class="node"><title>Node24</title>
<g id="a_node22"><a xlink:href="Sprite_8cpp.html" target="_top" xlink:title="Engine/src/Sprite.cpp">
<polygon fill="white" stroke="black" points="1367.98,-112.5 1367.98,-131.5 1477.98,-131.5 1477.98,-112.5 1367.98,-112.5"/>
<text text-anchor="middle" x="1422.98" y="-119.5" font-family="Helvetica,sans-Serif" font-size="10.00">Engine/src/Sprite.cpp</text>
</a>
</g>
</g>
<!-- Node22&#45;&gt;Node24 -->
<g id="edge25" class="edge"><title>Node22&#45;&gt;Node24</title>
<path fill="none" stroke="midnightblue" d="M655.429,-167.941C967.82,-140.996 1049.43,-161.195 1357.98,-132 1361.16,-131.7 1364.42,-131.357 1367.7,-130.986"/>
<polygon fill="midnightblue" stroke="midnightblue" points="654.828,-164.48 645.17,-168.836 655.436,-171.454 654.828,-164.48"/>
</g>
<!-- Node25 -->
<g id="node23" class="node"><title>Node25</title>
<g id="a_node23"><a xlink:href="TileMap_8cpp.html" target="_top" xlink:title="Engine/src/TileMap.cpp">
<polygon fill="white" stroke="black" points="66.4816,-112.5 66.4816,-131.5 185.482,-131.5 185.482,-112.5 66.4816,-112.5"/>
<text text-anchor="middle" x="125.982" y="-119.5" font-family="Helvetica,sans-Serif" font-size="10.00">Engine/src/TileMap.cpp</text>
</a>
</g>
</g>
<!-- Node22&#45;&gt;Node25 -->
<g id="edge26" class="edge"><title>Node22&#45;&gt;Node25</title>
<path fill="none" stroke="midnightblue" d="M508.85,-168.451C507.55,-168.299 506.26,-168.149 504.982,-168 367.21,-151.949 332.643,-148.97 194.982,-132 191.984,-131.63 188.914,-131.247 185.814,-130.857"/>
<polygon fill="midnightblue" stroke="midnightblue" points="508.612,-171.947 518.95,-169.629 509.423,-164.994 508.612,-171.947"/>
</g>
<!-- Node26 -->
<g id="node24" class="node"><title>Node26</title>
<g id="a_node24"><a xlink:href="Tileset_8cpp.html" target="_top" xlink:title="Engine/src/Tileset.cpp">
<polygon fill="white" stroke="black" points="801.982,-112.5 801.982,-131.5 915.982,-131.5 915.982,-112.5 801.982,-112.5"/>
<text text-anchor="middle" x="858.982" y="-119.5" font-family="Helvetica,sans-Serif" font-size="10.00">Engine/src/Tileset.cpp</text>
</a>
</g>
</g>
<!-- Node22&#45;&gt;Node26 -->
<g id="edge27" class="edge"><title>Node22&#45;&gt;Node26</title>
<path fill="none" stroke="midnightblue" d="M635.979,-166.473C688.33,-156.268 766.754,-140.979 815.296,-131.516"/>
<polygon fill="midnightblue" stroke="midnightblue" points="635.019,-163.095 625.873,-168.444 636.358,-169.965 635.019,-163.095"/>
</g>
<!-- Node27&#45;&gt;Node9 -->
<g id="edge32" class="edge"><title>Node27&#45;&gt;Node9</title>
<path fill="none" stroke="midnightblue" d="M546.905,-222.217C592.255,-212.013 659.423,-196.901 701.131,-187.516"/>
<polygon fill="midnightblue" stroke="midnightblue" points="545.998,-218.834 537.01,-224.444 547.535,-225.663 545.998,-218.834"/>
</g>
<!-- Node27&#45;&gt;Node11 -->
<g id="edge34" class="edge"><title>Node27&#45;&gt;Node11</title>
<path fill="none" stroke="midnightblue" d="M572.209,-224.012C818.286,-206.172 1389.35,-226.947 1614.98,-188 1643.93,-183.003 1649.48,-175.133 1677.98,-168 1740.83,-152.27 1814.08,-139.44 1863.6,-131.562"/>
<polygon fill="midnightblue" stroke="midnightblue" points="571.87,-220.527 562.165,-224.776 572.402,-227.507 571.87,-220.527"/>
</g>
<!-- Node27&#45;&gt;Node25 -->
<g id="edge33" class="edge"><title>Node27&#45;&gt;Node25</title>
<path fill="none" stroke="midnightblue" d="M496.303,-213.989C493.144,-199.057 486.365,-179.007 471.982,-168 422.685,-130.278 256.535,-140.014 194.982,-132 191.987,-131.61 188.919,-131.21 185.821,-130.807"/>
<polygon fill="midnightblue" stroke="midnightblue" points="492.913,-214.926 498.078,-224.176 499.809,-213.724 492.913,-214.926"/>
</g>
<!-- Node27&#45;&gt;Node28 -->
<g id="edge35" class="edge"><title>Node27&#45;&gt;Node28</title>
<path fill="none" stroke="midnightblue" d="M453.718,-222.088C411.4,-211.887 349.072,-196.861 310.309,-187.516"/>
<polygon fill="midnightblue" stroke="midnightblue" points="452.946,-225.502 463.488,-224.444 454.587,-218.697 452.946,-225.502"/>
</g>
<!-- Node27&#45;&gt;Node29 -->
<g id="edge38" class="edge"><title>Node27&#45;&gt;Node29</title>
<path fill="none" stroke="midnightblue" d="M475.688,-219.177C458.943,-209.241 436.881,-196.149 422.566,-187.655"/>
<polygon fill="midnightblue" stroke="midnightblue" points="473.975,-222.231 484.361,-224.324 477.547,-216.211 473.975,-222.231"/>
</g>
<!-- Node28&#45;&gt;Node8 -->
<g id="edge36" class="edge"><title>Node28&#45;&gt;Node8</title>
<path fill="none" stroke="midnightblue" d="M269.814,-158.396C267.304,-149.362 264.408,-138.936 262.412,-131.751"/>
<polygon fill="midnightblue" stroke="midnightblue" points="266.456,-159.385 272.505,-168.083 273.2,-157.511 266.456,-159.385"/>
</g>
<!-- Node28&#45;&gt;Node14 -->
<g id="edge37" class="edge"><title>Node28&#45;&gt;Node14</title>
<path fill="none" stroke="midnightblue" d="M206.774,-166.968C134.493,-156.009 29.8998,-139.074 23.9816,-132 -8.16056,-93.5828 66.1785,-77.7782 125.778,-71.3387"/>
<polygon fill="midnightblue" stroke="midnightblue" points="206.335,-170.442 216.745,-168.473 207.379,-163.52 206.335,-170.442"/>
</g>
<!-- Node29&#45;&gt;Node14 -->
<g id="edge40" class="edge"><title>Node29&#45;&gt;Node14</title>
<path fill="none" stroke="midnightblue" d="M342.662,-168.204C264.252,-161.237 97.5334,-177.976 56.9816,-132 30.6423,-102.137 84.484,-84.6812 131.571,-75.5115"/>
<polygon fill="midnightblue" stroke="midnightblue" points="342.349,-171.691 352.67,-169.294 343.107,-164.732 342.349,-171.691"/>
</g>
<!-- Node29&#45;&gt;Node16 -->
<g id="edge39" class="edge"><title>Node29&#45;&gt;Node16</title>
<path fill="none" stroke="midnightblue" d="M413.494,-158.396C416.171,-149.362 419.26,-138.936 421.389,-131.751"/>
<polygon fill="midnightblue" stroke="midnightblue" points="410.109,-157.501 410.624,-168.083 416.82,-159.489 410.109,-157.501"/>
</g>
<!-- Node30&#45;&gt;Node11 -->
<g id="edge55" class="edge"><title>Node30&#45;&gt;Node11</title>
<path fill="none" stroke="midnightblue" d="M1763.88,-219.009C1801.66,-195.919 1875.96,-150.51 1906.92,-131.591"/>
<polygon fill="midnightblue" stroke="midnightblue" points="1761.81,-216.167 1755.11,-224.368 1765.46,-222.14 1761.81,-216.167"/>
</g>
<!-- Node31 -->
<g id="node29" class="node"><title>Node31</title>
<g id="a_node29"><a xlink:href="Game_8h.html" target="_top" xlink:title="Engine/include/Game.h">
<polygon fill="white" stroke="black" points="1487.98,-168.5 1487.98,-187.5 1605.98,-187.5 1605.98,-168.5 1487.98,-168.5"/>
<text text-anchor="middle" x="1546.98" y="-175.5" font-family="Helvetica,sans-Serif" font-size="10.00">Engine/include/Game.h</text>
</a>
</g>
</g>
<!-- Node30&#45;&gt;Node31 -->
<g id="edge42" class="edge"><title>Node30&#45;&gt;Node31</title>
<path fill="none" stroke="midnightblue" d="M1700.38,-221.699C1663.77,-211.507 1610.72,-196.743 1577.58,-187.516"/>
<polygon fill="midnightblue" stroke="midnightblue" points="1699.67,-225.134 1710.24,-224.444 1701.55,-218.39 1699.67,-225.134"/>
</g>
<!-- Node37 -->
<g id="node35" class="node"><title>Node37</title>
<g id="a_node35"><a xlink:href="State_8cpp.html" target="_top" xlink:title="Engine/src/State.cpp">
<polygon fill="white" stroke="black" points="1686.98,-168.5 1686.98,-187.5 1794.98,-187.5 1794.98,-168.5 1686.98,-168.5"/>
<text text-anchor="middle" x="1740.98" y="-175.5" font-family="Helvetica,sans-Serif" font-size="10.00">Engine/src/State.cpp</text>
</a>
</g>
</g>
<!-- Node30&#45;&gt;Node37 -->
<g id="edge54" class="edge"><title>Node30&#45;&gt;Node37</title>
<path fill="none" stroke="midnightblue" d="M1740.98,-213.805C1740.98,-204.91 1740.98,-194.78 1740.98,-187.751"/>
<polygon fill="midnightblue" stroke="midnightblue" points="1737.48,-214.083 1740.98,-224.083 1744.48,-214.083 1737.48,-214.083"/>
</g>
<!-- Node38 -->
<g id="node36" class="node"><title>Node38</title>
<g id="a_node36"><a xlink:href="TitleState_8h.html" target="_top" xlink:title="Game/include/TitleState.h">
<polygon fill="white" stroke="black" points="1993.98,-168.5 1993.98,-187.5 2123.98,-187.5 2123.98,-168.5 1993.98,-168.5"/>
<text text-anchor="middle" x="2058.98" y="-175.5" font-family="Helvetica,sans-Serif" font-size="10.00">Game/include/TitleState.h</text>
</a>
</g>
</g>
<!-- Node30&#45;&gt;Node38 -->
<g id="edge56" class="edge"><title>Node30&#45;&gt;Node38</title>
<path fill="none" stroke="midnightblue" d="M1801.48,-222.727C1861.57,-212.523 1952.64,-197.058 2008.83,-187.516"/>
<polygon fill="midnightblue" stroke="midnightblue" points="1800.64,-219.319 1791.37,-224.444 1801.81,-226.22 1800.64,-219.319"/>
</g>
<!-- Node31&#45;&gt;Node14 -->
<g id="edge52" class="edge"><title>Node31&#45;&gt;Node14</title>
<path fill="none" stroke="midnightblue" d="M1536.57,-159.472C1526.2,-143.852 1508.71,-121.968 1486.98,-112 1430.61,-86.1442 510.898,-71.4568 256.015,-67.8697"/>
<polygon fill="midnightblue" stroke="midnightblue" points="1533.8,-161.628 1542.09,-168.226 1539.72,-157.898 1533.8,-161.628"/>
</g>
<!-- Node31&#45;&gt;Node15 -->
<g id="edge53" class="edge"><title>Node31&#45;&gt;Node15</title>
<path fill="none" stroke="midnightblue" d="M1546.26,-158.226C1546.78,-143.432 1550.11,-123.452 1562.98,-112 1605.56,-74.103 1768.54,-67.3464 1859.21,-66.6067"/>
<polygon fill="midnightblue" stroke="midnightblue" points="1542.76,-158.314 1546.29,-168.301 1549.76,-158.289 1542.76,-158.314"/>
</g>
<!-- Node31&#45;&gt;Node23 -->
<g id="edge46" class="edge"><title>Node31&#45;&gt;Node23</title>
<path fill="none" stroke="midnightblue" d="M1496.27,-166.346C1447.71,-156.141 1375.36,-140.94 1330.51,-131.516"/>
<polygon fill="midnightblue" stroke="midnightblue" points="1495.75,-169.812 1506.26,-168.444 1497.19,-162.962 1495.75,-169.812"/>
</g>
<!-- Node31&#45;&gt;Node24 -->
<g id="edge49" class="edge"><title>Node31&#45;&gt;Node24</title>
<path fill="none" stroke="midnightblue" d="M1517.97,-164.368C1494.75,-154.255 1462.82,-140.349 1442.54,-131.516"/>
<polygon fill="midnightblue" stroke="midnightblue" points="1516.77,-167.66 1527.33,-168.444 1519.56,-161.242 1516.77,-167.66"/>
</g>
<!-- Node31&#45;&gt;Node26 -->
<g id="edge50" class="edge"><title>Node31&#45;&gt;Node26</title>
<path fill="none" stroke="midnightblue" d="M1477.62,-173.419C1362.58,-167.157 1125.16,-152.868 924.982,-132 922.106,-131.7 919.163,-131.373 916.192,-131.027"/>
<polygon fill="midnightblue" stroke="midnightblue" points="1477.52,-176.919 1487.7,-173.964 1477.9,-169.929 1477.52,-176.919"/>
</g>
<!-- Node31&#45;&gt;Node32 -->
<g id="edge43" class="edge"><title>Node31&#45;&gt;Node32</title>
<path fill="none" stroke="midnightblue" d="M1616.51,-171.734C1757.79,-161.034 2075.89,-136.942 2204.48,-127.203"/>
<polygon fill="midnightblue" stroke="midnightblue" points="1615.95,-168.267 1606.24,-172.512 1616.48,-175.247 1615.95,-168.267"/>
</g>
<!-- Node34 -->
<g id="node32" class="node"><title>Node34</title>
<g id="a_node32"><a xlink:href="Game_8cpp.html" target="_top" xlink:title="Engine/src/Game.cpp">
<polygon fill="white" stroke="black" points="1572.48,-112.5 1572.48,-131.5 1683.48,-131.5 1683.48,-112.5 1572.48,-112.5"/>
<text text-anchor="middle" x="1627.98" y="-119.5" font-family="Helvetica,sans-Serif" font-size="10.00">Engine/src/Game.cpp</text>
</a>
</g>
</g>
<!-- Node31&#45;&gt;Node34 -->
<g id="edge47" class="edge"><title>Node31&#45;&gt;Node34</title>
<path fill="none" stroke="midnightblue" d="M1568.55,-162.622C1583.35,-152.757 1602.49,-139.992 1615,-131.655"/>
<polygon fill="midnightblue" stroke="midnightblue" points="1566.37,-159.865 1560,-168.324 1570.26,-165.689 1566.37,-159.865"/>
</g>
<!-- Node35 -->
<g id="node33" class="node"><title>Node35</title>
<g id="a_node33"><a xlink:href="Resources_8cpp.html" target="_top" xlink:title="Engine/src/Resources.cpp">
<polygon fill="white" stroke="black" points="1701.98,-112.5 1701.98,-131.5 1833.98,-131.5 1833.98,-112.5 1701.98,-112.5"/>
<text text-anchor="middle" x="1767.98" y="-119.5" font-family="Helvetica,sans-Serif" font-size="10.00">Engine/src/Resources.cpp</text>
</a>
</g>
</g>
<!-- Node31&#45;&gt;Node35 -->
<g id="edge48" class="edge"><title>Node31&#45;&gt;Node35</title>
<path fill="none" stroke="midnightblue" d="M1591.9,-166.024C1633.65,-155.823 1694.96,-140.841 1733.13,-131.516"/>
<polygon fill="midnightblue" stroke="midnightblue" points="1590.88,-162.67 1582,-168.444 1592.54,-169.47 1590.88,-162.67"/>
</g>
<!-- Node36 -->
<g id="node34" class="node"><title>Node36</title>
<g id="a_node34"><a xlink:href="main_8cpp.html" target="_top" xlink:title="Game/src/main.cpp">
<polygon fill="white" stroke="black" points="2007.98,-112.5 2007.98,-131.5 2109.98,-131.5 2109.98,-112.5 2007.98,-112.5"/>
<text text-anchor="middle" x="2058.98" y="-119.5" font-family="Helvetica,sans-Serif" font-size="10.00">Game/src/main.cpp</text>
</a>
</g>
</g>
<!-- Node31&#45;&gt;Node36 -->
<g id="edge51" class="edge"><title>Node31&#45;&gt;Node36</title>
<path fill="none" stroke="midnightblue" d="M1616.54,-171.155C1705.39,-163.441 1863.87,-148.849 1998.98,-132 2001.91,-131.635 2004.91,-131.242 2007.94,-130.832"/>
<polygon fill="midnightblue" stroke="midnightblue" points="1615.98,-167.69 1606.32,-172.039 1616.58,-174.664 1615.98,-167.69"/>
</g>
<!-- Node32&#45;&gt;Node12 -->
<g id="edge45" class="edge"><title>Node32&#45;&gt;Node12</title>
<path fill="none" stroke="midnightblue" d="M2224.46,-109.304C2193.56,-99.1294 2149.51,-84.6246 2121.85,-75.5164"/>
<polygon fill="midnightblue" stroke="midnightblue" points="2223.4,-112.64 2234,-112.444 2225.59,-105.992 2223.4,-112.64"/>
</g>
<!-- Node33 -->
<g id="node31" class="node"><title>Node33</title>
<g id="a_node31"><a xlink:href="Text_8cpp.html" target="_top" xlink:title="Engine/src/Text.cpp">
<polygon fill="white" stroke="black" points="2207.98,-56.5 2207.98,-75.5 2311.98,-75.5 2311.98,-56.5 2207.98,-56.5"/>
<text text-anchor="middle" x="2259.98" y="-63.5" font-family="Helvetica,sans-Serif" font-size="10.00">Engine/src/Text.cpp</text>
</a>
</g>
</g>
<!-- Node32&#45;&gt;Node33 -->
<g id="edge44" class="edge"><title>Node32&#45;&gt;Node33</title>
<path fill="none" stroke="midnightblue" d="M2259.98,-101.805C2259.98,-92.9102 2259.98,-82.7798 2259.98,-75.7511"/>
<polygon fill="midnightblue" stroke="midnightblue" points="2256.48,-102.083 2259.98,-112.083 2263.48,-102.083 2256.48,-102.083"/>
</g>
<!-- Node38&#45;&gt;Node15 -->
<g id="edge58" class="edge"><title>Node38&#45;&gt;Node15</title>
<path fill="none" stroke="midnightblue" d="M2086.32,-163.458C2108.52,-150.654 2133.89,-130.672 2118.98,-112 2102.1,-90.8549 2034.28,-78.8885 1982.67,-72.6958"/>
<polygon fill="midnightblue" stroke="midnightblue" points="2084.53,-160.448 2077.44,-168.32 2087.89,-166.588 2084.53,-160.448"/>
</g>
<!-- Node38&#45;&gt;Node36 -->
<g id="edge57" class="edge"><title>Node38&#45;&gt;Node36</title>
<path fill="none" stroke="midnightblue" d="M2058.98,-157.805C2058.98,-148.91 2058.98,-138.78 2058.98,-131.751"/>
<polygon fill="midnightblue" stroke="midnightblue" points="2055.48,-158.083 2058.98,-168.083 2062.48,-158.083 2055.48,-158.083"/>
</g>
<!-- Node39&#45;&gt;Node28 -->
<g id="edge61" class="edge"><title>Node39&#45;&gt;Node28</title>
<path fill="none" stroke="midnightblue" d="M225.744,-218.101C237.982,-208.382 253.54,-196.027 263.857,-187.834"/>
<polygon fill="midnightblue" stroke="midnightblue" points="223.562,-215.364 217.907,-224.324 227.915,-220.846 223.562,-215.364"/>
</g>
<!-- Node40 -->
<g id="node38" class="node"><title>Node40</title>
<g id="a_node38"><a xlink:href="Wave_8cpp.html" target="_top" xlink:title="Engine/src/Wave.cpp">
<polygon fill="white" stroke="black" points="86.9816,-168.5 86.9816,-187.5 196.982,-187.5 196.982,-168.5 86.9816,-168.5"/>
<text text-anchor="middle" x="141.982" y="-175.5" font-family="Helvetica,sans-Serif" font-size="10.00">Engine/src/Wave.cpp</text>
</a>
</g>
</g>
<!-- Node39&#45;&gt;Node40 -->
<g id="edge60" class="edge"><title>Node39&#45;&gt;Node40</title>
<path fill="none" stroke="midnightblue" d="M188.709,-217.82C177.064,-208.145 162.382,-195.948 152.615,-187.834"/>
<polygon fill="midnightblue" stroke="midnightblue" points="186.61,-220.626 196.538,-224.324 191.083,-215.242 186.61,-220.626"/>
</g>
<!-- Node42&#45;&gt;Node14 -->
<g id="edge68" class="edge"><title>Node42&#45;&gt;Node14</title>
<path fill="none" stroke="midnightblue" d="M71.9598,-273.092C38.8971,-240.276 -27.3621,-163.812 12.9816,-112 26.9835,-94.0178 80.8835,-82.0839 125.739,-75.0521"/>
<polygon fill="midnightblue" stroke="midnightblue" points="69.9454,-276.014 79.5652,-280.453 74.8137,-270.984 69.9454,-276.014"/>
</g>
</g>
</svg>
