<?xml version="1.0" encoding="UTF-8" standalone="no"?>
<!DOCTYPE svg PUBLIC "-//W3C//DTD SVG 1.1//EN"
 "http://www.w3.org/Graphics/SVG/1.1/DTD/svg11.dtd">
<!-- Generated by graphviz version 2.38.0 (20140413.2041)
 -->
<!-- Title: Engine/src/Resources.cpp Pages: 1 -->
<svg width="653pt" height="308pt"
 viewBox="0.00 0.00 653.00 308.00" xmlns="http://www.w3.org/2000/svg" xmlns:xlink="http://www.w3.org/1999/xlink">
<g id="graph0" class="graph" transform="scale(1 1) rotate(0) translate(4 304)">
<title>Engine/src/Resources.cpp</title>
<polygon fill="white" stroke="none" points="-4,4 -4,-304 649,-304 649,4 -4,4"/>
<!-- Node1 -->
<g id="node1" class="node"><title>Node1</title>
<polygon fill="#bfbfbf" stroke="black" points="352,-280.5 352,-299.5 484,-299.5 484,-280.5 352,-280.5"/>
<text text-anchor="middle" x="418" y="-287.5" font-family="Helvetica,sans-Serif" font-size="10.00">Engine/src/Resources.cpp</text>
</g>
<!-- Node2 -->
<g id="node2" class="node"><title>Node2</title>
<g id="a_node2"><a xlink:href="Resources_8h.html" target="_top" xlink:title="Resources.h">
<polygon fill="white" stroke="black" points="276,-112.5 276,-131.5 348,-131.5 348,-112.5 276,-112.5"/>
<text text-anchor="middle" x="312" y="-119.5" font-family="Helvetica,sans-Serif" font-size="10.00">Resources.h</text>
</a>
</g>
</g>
<!-- Node1&#45;&gt;Node2 -->
<g id="edge1" class="edge"><title>Node1&#45;&gt;Node2</title>
<path fill="none" stroke="midnightblue" d="M409.939,-280.4C394.569,-263.665 360.673,-225.098 339,-188 330.245,-173.014 322.894,-154.649 318.084,-141.267"/>
<polygon fill="midnightblue" stroke="midnightblue" points="321.372,-140.067 314.792,-131.763 314.757,-142.358 321.372,-140.067"/>
</g>
<!-- Node6 -->
<g id="node6" class="node"><title>Node6</title>
<g id="a_node6"><a xlink:href="Error_8h.html" target="_top" xlink:title="Error.h">
<polygon fill="white" stroke="black" points="529,-224.5 529,-243.5 575,-243.5 575,-224.5 529,-224.5"/>
<text text-anchor="middle" x="552" y="-231.5" font-family="Helvetica,sans-Serif" font-size="10.00">Error.h</text>
</a>
</g>
</g>
<!-- Node1&#45;&gt;Node6 -->
<g id="edge5" class="edge"><title>Node1&#45;&gt;Node6</title>
<path fill="none" stroke="midnightblue" d="M439.233,-280.444C461.384,-271.517 496.319,-257.439 521.436,-247.317"/>
<polygon fill="midnightblue" stroke="midnightblue" points="522.9,-250.501 530.867,-243.516 520.283,-244.008 522.9,-250.501"/>
</g>
<!-- Node9 -->
<g id="node9" class="node"><title>Node9</title>
<g id="a_node9"><a xlink:href="Game_8h.html" target="_top" xlink:title="Game.h">
<polygon fill="white" stroke="black" points="392.5,-224.5 392.5,-243.5 443.5,-243.5 443.5,-224.5 392.5,-224.5"/>
<text text-anchor="middle" x="418" y="-231.5" font-family="Helvetica,sans-Serif" font-size="10.00">Game.h</text>
</a>
</g>
</g>
<!-- Node1&#45;&gt;Node9 -->
<g id="edge8" class="edge"><title>Node1&#45;&gt;Node9</title>
<path fill="none" stroke="midnightblue" d="M418,-280.083C418,-273.006 418,-262.861 418,-253.986"/>
<polygon fill="midnightblue" stroke="midnightblue" points="421.5,-253.751 418,-243.751 414.5,-253.751 421.5,-253.751"/>
</g>
<!-- Node3 -->
<g id="node3" class="node"><title>Node3</title>
<polygon fill="white" stroke="#bfbfbf" points="289.5,-56.5 289.5,-75.5 330.5,-75.5 330.5,-56.5 289.5,-56.5"/>
<text text-anchor="middle" x="310" y="-63.5" font-family="Helvetica,sans-Serif" font-size="10.00">string</text>
</g>
<!-- Node2&#45;&gt;Node3 -->
<g id="edge2" class="edge"><title>Node2&#45;&gt;Node3</title>
<path fill="none" stroke="midnightblue" d="M311.67,-112.083C311.408,-105.006 311.032,-94.8611 310.703,-85.9865"/>
<polygon fill="midnightblue" stroke="midnightblue" points="314.192,-85.6147 310.324,-75.7511 307.197,-85.8738 314.192,-85.6147"/>
</g>
<!-- Node4 -->
<g id="node4" class="node"><title>Node4</title>
<polygon fill="white" stroke="#bfbfbf" points="348.5,-56.5 348.5,-75.5 431.5,-75.5 431.5,-56.5 348.5,-56.5"/>
<text text-anchor="middle" x="390" y="-63.5" font-family="Helvetica,sans-Serif" font-size="10.00">unordered_map</text>
</g>
<!-- Node2&#45;&gt;Node4 -->
<g id="edge3" class="edge"><title>Node2&#45;&gt;Node4</title>
<path fill="none" stroke="midnightblue" d="M324.532,-112.324C336.586,-103.979 355.027,-91.2122 369.269,-81.3524"/>
<polygon fill="midnightblue" stroke="midnightblue" points="371.269,-84.2243 377.499,-75.6545 367.285,-78.469 371.269,-84.2243"/>
</g>
<!-- Node5 -->
<g id="node5" class="node"><title>Node5</title>
<polygon fill="white" stroke="#bfbfbf" points="219,-56.5 219,-75.5 271,-75.5 271,-56.5 219,-56.5"/>
<text text-anchor="middle" x="245" y="-63.5" font-family="Helvetica,sans-Serif" font-size="10.00">memory</text>
</g>
<!-- Node2&#45;&gt;Node5 -->
<g id="edge4" class="edge"><title>Node2&#45;&gt;Node5</title>
<path fill="none" stroke="midnightblue" d="M301.235,-112.324C291.234,-104.263 276.113,-92.0765 264.07,-82.3695"/>
<polygon fill="midnightblue" stroke="midnightblue" points="265.943,-79.3841 255.961,-75.8339 261.55,-84.8343 265.943,-79.3841"/>
</g>
<!-- Node7 -->
<g id="node7" class="node"><title>Node7</title>
<polygon fill="white" stroke="#bfbfbf" points="525,-168.5 525,-187.5 579,-187.5 579,-168.5 525,-168.5"/>
<text text-anchor="middle" x="552" y="-175.5" font-family="Helvetica,sans-Serif" font-size="10.00">iostream</text>
</g>
<!-- Node6&#45;&gt;Node7 -->
<g id="edge6" class="edge"><title>Node6&#45;&gt;Node7</title>
<path fill="none" stroke="midnightblue" d="M552,-224.083C552,-217.006 552,-206.861 552,-197.986"/>
<polygon fill="midnightblue" stroke="midnightblue" points="555.5,-197.751 552,-187.751 548.5,-197.751 555.5,-197.751"/>
</g>
<!-- Node8 -->
<g id="node8" class="node"><title>Node8</title>
<polygon fill="white" stroke="#bfbfbf" points="597,-168.5 597,-187.5 645,-187.5 645,-168.5 597,-168.5"/>
<text text-anchor="middle" x="621" y="-175.5" font-family="Helvetica,sans-Serif" font-size="10.00">stdlib.h</text>
</g>
<!-- Node6&#45;&gt;Node8 -->
<g id="edge7" class="edge"><title>Node6&#45;&gt;Node8</title>
<path fill="none" stroke="midnightblue" d="M563.086,-224.324C573.486,-216.185 589.261,-203.839 601.722,-194.087"/>
<polygon fill="midnightblue" stroke="midnightblue" points="603.994,-196.753 609.712,-187.834 599.68,-191.241 603.994,-196.753"/>
</g>
<!-- Node9&#45;&gt;Node3 -->
<g id="edge9" class="edge"><title>Node9&#45;&gt;Node3</title>
<path fill="none" stroke="midnightblue" d="M416.279,-224.237C413.549,-211.412 407.535,-186.994 398,-168 380.485,-133.108 348.1,-100.546 327.879,-82.2624"/>
<polygon fill="midnightblue" stroke="midnightblue" points="330.095,-79.5498 320.284,-75.5494 325.459,-84.7946 330.095,-79.5498"/>
</g>
<!-- Node10 -->
<g id="node10" class="node"><title>Node10</title>
<polygon fill="white" stroke="#bfbfbf" points="348.5,-168.5 348.5,-187.5 389.5,-187.5 389.5,-168.5 348.5,-168.5"/>
<text text-anchor="middle" x="369" y="-175.5" font-family="Helvetica,sans-Serif" font-size="10.00">stack</text>
</g>
<!-- Node9&#45;&gt;Node10 -->
<g id="edge10" class="edge"><title>Node9&#45;&gt;Node10</title>
<path fill="none" stroke="midnightblue" d="M409.909,-224.083C402.845,-216.298 392.412,-204.801 383.851,-195.367"/>
<polygon fill="midnightblue" stroke="midnightblue" points="386.253,-192.805 376.941,-187.751 381.069,-197.509 386.253,-192.805"/>
</g>
<!-- Node11 -->
<g id="node11" class="node"><title>Node11</title>
<g id="a_node11"><a xlink:href="State_8h.html" target="_top" xlink:title="State.h">
<polygon fill="white" stroke="black" points="187,-168.5 187,-187.5 235,-187.5 235,-168.5 187,-168.5"/>
<text text-anchor="middle" x="211" y="-175.5" font-family="Helvetica,sans-Serif" font-size="10.00">State.h</text>
</a>
</g>
</g>
<!-- Node9&#45;&gt;Node11 -->
<g id="edge11" class="edge"><title>Node9&#45;&gt;Node11</title>
<path fill="none" stroke="midnightblue" d="M392.202,-226.27C355.035,-216.574 286.364,-198.66 245.066,-187.887"/>
<polygon fill="midnightblue" stroke="midnightblue" points="245.752,-184.449 235.192,-185.311 243.985,-191.222 245.752,-184.449"/>
</g>
<!-- Node15 -->
<g id="node15" class="node"><title>Node15</title>
<g id="a_node15"><a xlink:href="Vec2_8h.html" target="_top" xlink:title="Vec2.h">
<polygon fill="white" stroke="black" points="436.5,-0.5 436.5,-19.5 483.5,-19.5 483.5,-0.5 436.5,-0.5"/>
<text text-anchor="middle" x="460" y="-7.5" font-family="Helvetica,sans-Serif" font-size="10.00">Vec2.h</text>
</a>
</g>
</g>
<!-- Node9&#45;&gt;Node15 -->
<g id="edge27" class="edge"><title>Node9&#45;&gt;Node15</title>
<path fill="none" stroke="midnightblue" d="M419.646,-224.297C425.826,-191.633 447.728,-75.8661 456.413,-29.9573"/>
<polygon fill="midnightblue" stroke="midnightblue" points="459.899,-30.3601 458.319,-19.8837 453.021,-29.0588 459.899,-30.3601"/>
</g>
<!-- Node18 -->
<g id="node18" class="node"><title>Node18</title>
<g id="a_node18"><a xlink:href="InputManager_8h.html" target="_top" xlink:title="InputManager.h">
<polygon fill="white" stroke="black" points="487,-112.5 487,-131.5 571,-131.5 571,-112.5 487,-112.5"/>
<text text-anchor="middle" x="529" y="-119.5" font-family="Helvetica,sans-Serif" font-size="10.00">InputManager.h</text>
</a>
</g>
</g>
<!-- Node9&#45;&gt;Node18 -->
<g id="edge23" class="edge"><title>Node9&#45;&gt;Node18</title>
<path fill="none" stroke="midnightblue" d="M429.873,-224.248C441.363,-215.56 459.042,-201.607 473,-188 488.748,-172.647 504.96,-153.381 515.861,-139.823"/>
<polygon fill="midnightblue" stroke="midnightblue" points="518.725,-141.845 522.2,-131.836 513.242,-137.493 518.725,-141.845"/>
</g>
<!-- Node11&#45;&gt;Node5 -->
<g id="edge22" class="edge"><title>Node11&#45;&gt;Node5</title>
<path fill="none" stroke="midnightblue" d="M213.972,-168.404C217.069,-159.371 222.018,-144.733 226,-132 230.88,-116.396 236.064,-98.564 239.783,-85.5295"/>
<polygon fill="midnightblue" stroke="midnightblue" points="243.163,-86.4384 242.523,-75.8629 236.428,-84.5294 243.163,-86.4384"/>
</g>
<!-- Node12 -->
<g id="node12" class="node"><title>Node12</title>
<g id="a_node12"><a xlink:href="GameObject_8h.html" target="_top" xlink:title="GameObject.h">
<polygon fill="white" stroke="black" points="137,-112.5 137,-131.5 217,-131.5 217,-112.5 137,-112.5"/>
<text text-anchor="middle" x="177" y="-119.5" font-family="Helvetica,sans-Serif" font-size="10.00">GameObject.h</text>
</a>
</g>
</g>
<!-- Node11&#45;&gt;Node12 -->
<g id="edge12" class="edge"><title>Node11&#45;&gt;Node12</title>
<path fill="none" stroke="midnightblue" d="M205.386,-168.083C200.633,-160.534 193.682,-149.495 187.848,-140.23"/>
<polygon fill="midnightblue" stroke="midnightblue" points="190.8,-138.349 182.51,-131.751 184.876,-142.078 190.8,-138.349"/>
</g>
<!-- Node13 -->
<g id="node13" class="node"><title>Node13</title>
<polygon fill="white" stroke="#bfbfbf" points="0,-56.5 0,-75.5 44,-75.5 44,-56.5 0,-56.5"/>
<text text-anchor="middle" x="22" y="-63.5" font-family="Helvetica,sans-Serif" font-size="10.00">vector</text>
</g>
<!-- Node11&#45;&gt;Node13 -->
<g id="edge21" class="edge"><title>Node11&#45;&gt;Node13</title>
<path fill="none" stroke="midnightblue" d="M194.636,-168.458C177.792,-159.589 150.856,-145.191 128,-132 98.6841,-115.081 65.5145,-94.5028 44.2095,-81.0953"/>
<polygon fill="midnightblue" stroke="midnightblue" points="45.9061,-78.0273 35.5816,-75.6492 42.1696,-83.9467 45.9061,-78.0273"/>
</g>
<!-- Node12&#45;&gt;Node3 -->
<g id="edge18" class="edge"><title>Node12&#45;&gt;Node3</title>
<path fill="none" stroke="midnightblue" d="M198.074,-112.444C220.189,-103.465 255.143,-89.2729 280.103,-79.1386"/>
<polygon fill="midnightblue" stroke="midnightblue" points="281.513,-82.3439 289.461,-75.339 278.879,-75.8581 281.513,-82.3439"/>
</g>
<!-- Node12&#45;&gt;Node5 -->
<g id="edge14" class="edge"><title>Node12&#45;&gt;Node5</title>
<path fill="none" stroke="midnightblue" d="M187.925,-112.324C198.175,-104.185 213.721,-91.8395 226.001,-82.0874"/>
<polygon fill="midnightblue" stroke="midnightblue" points="228.221,-84.7937 233.876,-75.8339 223.868,-79.3119 228.221,-84.7937"/>
</g>
<!-- Node12&#45;&gt;Node13 -->
<g id="edge13" class="edge"><title>Node12&#45;&gt;Node13</title>
<path fill="none" stroke="midnightblue" d="M152.44,-112.444C125.867,-103.186 83.3873,-88.3866 54.167,-78.2066"/>
<polygon fill="midnightblue" stroke="midnightblue" points="55.0271,-74.7999 44.4322,-74.8151 52.7241,-81.4103 55.0271,-74.7999"/>
</g>
<!-- Node14 -->
<g id="node14" class="node"><title>Node14</title>
<g id="a_node14"><a xlink:href="Rect_8h.html" target="_top" xlink:title="Rect.h">
<polygon fill="white" stroke="black" points="155,-56.5 155,-75.5 201,-75.5 201,-56.5 155,-56.5"/>
<text text-anchor="middle" x="178" y="-63.5" font-family="Helvetica,sans-Serif" font-size="10.00">Rect.h</text>
</a>
</g>
</g>
<!-- Node12&#45;&gt;Node14 -->
<g id="edge15" class="edge"><title>Node12&#45;&gt;Node14</title>
<path fill="none" stroke="midnightblue" d="M177.165,-112.083C177.296,-105.006 177.484,-94.8611 177.648,-85.9865"/>
<polygon fill="midnightblue" stroke="midnightblue" points="181.152,-85.8142 177.838,-75.7511 174.153,-85.6845 181.152,-85.8142"/>
</g>
<!-- Node17 -->
<g id="node17" class="node"><title>Node17</title>
<g id="a_node17"><a xlink:href="Component_8h.html" target="_top" xlink:title="Component.h">
<polygon fill="white" stroke="black" points="61.5,-56.5 61.5,-75.5 136.5,-75.5 136.5,-56.5 61.5,-56.5"/>
<text text-anchor="middle" x="99" y="-63.5" font-family="Helvetica,sans-Serif" font-size="10.00">Component.h</text>
</a>
</g>
</g>
<!-- Node12&#45;&gt;Node17 -->
<g id="edge19" class="edge"><title>Node12&#45;&gt;Node17</title>
<path fill="none" stroke="midnightblue" d="M159.353,-112.324C145.834,-104.185 127.664,-91.8395 114.665,-82.0874"/>
<polygon fill="midnightblue" stroke="midnightblue" points="116.656,-79.2028 106.611,-75.8339 112.363,-84.7316 116.656,-79.2028"/>
</g>
<!-- Node14&#45;&gt;Node15 -->
<g id="edge16" class="edge"><title>Node14&#45;&gt;Node15</title>
<path fill="none" stroke="midnightblue" d="M201.004,-58.2449C204.019,-57.4437 207.075,-56.6728 210,-56 286.715,-38.3506 377.993,-23.4358 426.229,-16.0228"/>
<polygon fill="midnightblue" stroke="midnightblue" points="427.051,-19.4381 436.409,-14.4717 425.996,-12.5179 427.051,-19.4381"/>
</g>
<!-- Node16 -->
<g id="node16" class="node"><title>Node16</title>
<polygon fill="white" stroke="#bfbfbf" points="156,-0.5 156,-19.5 200,-19.5 200,-0.5 156,-0.5"/>
<text text-anchor="middle" x="178" y="-7.5" font-family="Helvetica,sans-Serif" font-size="10.00">cmath</text>
</g>
<!-- Node14&#45;&gt;Node16 -->
<g id="edge17" class="edge"><title>Node14&#45;&gt;Node16</title>
<path fill="none" stroke="midnightblue" d="M178,-56.083C178,-49.0059 178,-38.8611 178,-29.9865"/>
<polygon fill="midnightblue" stroke="midnightblue" points="181.5,-29.751 178,-19.7511 174.5,-29.7511 181.5,-29.751"/>
</g>
<!-- Node17&#45;&gt;Node12 -->
<g id="edge20" class="edge"><title>Node17&#45;&gt;Node12</title>
<path fill="none" stroke="midnightblue" d="M116.611,-75.6545C130.202,-83.8346 148.509,-96.2772 161.533,-106.061"/>
<polygon fill="midnightblue" stroke="midnightblue" points="159.541,-108.946 169.583,-112.324 163.84,-103.421 159.541,-108.946"/>
</g>
<!-- Node18&#45;&gt;Node4 -->
<g id="edge25" class="edge"><title>Node18&#45;&gt;Node4</title>
<path fill="none" stroke="midnightblue" d="M506.975,-112.444C483.896,-103.478 447.438,-89.314 421.359,-79.1827"/>
<polygon fill="midnightblue" stroke="midnightblue" points="422.511,-75.8753 411.922,-75.5164 419.976,-82.4002 422.511,-75.8753"/>
</g>
<!-- Node18&#45;&gt;Node15 -->
<g id="edge24" class="edge"><title>Node18&#45;&gt;Node15</title>
<path fill="none" stroke="midnightblue" d="M534.527,-112.371C542.137,-99.2895 553.747,-74.0522 543,-56 532.246,-37.9369 511.436,-26.6782 493.345,-19.9397"/>
<polygon fill="midnightblue" stroke="midnightblue" points="494.249,-16.5505 483.655,-16.6465 491.996,-23.1782 494.249,-16.5505"/>
</g>
<!-- Node19 -->
<g id="node19" class="node"><title>Node19</title>
<polygon fill="white" stroke="#bfbfbf" points="488,-56.5 488,-75.5 534,-75.5 534,-56.5 488,-56.5"/>
<text text-anchor="middle" x="511" y="-63.5" font-family="Helvetica,sans-Serif" font-size="10.00">cstdint</text>
</g>
<!-- Node18&#45;&gt;Node19 -->
<g id="edge26" class="edge"><title>Node18&#45;&gt;Node19</title>
<path fill="none" stroke="midnightblue" d="M526.028,-112.083C523.616,-104.849 520.136,-94.4087 517.132,-85.3968"/>
<polygon fill="midnightblue" stroke="midnightblue" points="520.4,-84.1311 513.917,-75.7511 513.759,-86.3447 520.4,-84.1311"/>
</g>
</g>
</svg>
