<?xml version="1.0" encoding="UTF-8" standalone="no"?>
<!DOCTYPE svg PUBLIC "-//W3C//DTD SVG 1.1//EN"
 "http://www.w3.org/Graphics/SVG/1.1/DTD/svg11.dtd">
<!-- Generated by graphviz version 2.38.0 (20140413.2041)
 -->
<!-- Title: Engine/src/Resources.cpp Pages: 1 -->
<svg width="552pt" height="308pt"
 viewBox="0.00 0.00 551.79 308.00" xmlns="http://www.w3.org/2000/svg" xmlns:xlink="http://www.w3.org/1999/xlink">
<g id="graph0" class="graph" transform="scale(1 1) rotate(0) translate(4 304)">
<title>Engine/src/Resources.cpp</title>
<polygon fill="white" stroke="none" points="-4,4 -4,-304 547.787,-304 547.787,4 -4,4"/>
<!-- Node0 -->
<g id="node1" class="node"><title>Node0</title>
<polygon fill="#bfbfbf" stroke="black" points="329.787,-280.5 329.787,-299.5 461.787,-299.5 461.787,-280.5 329.787,-280.5"/>
<text text-anchor="middle" x="395.787" y="-287.5" font-family="Helvetica,sans-Serif" font-size="10.00">Engine/src/Resources.cpp</text>
</g>
<!-- Node1 -->
<g id="node2" class="node"><title>Node1</title>
<g id="a_node2"><a xlink:href="Resources_8h.html" target="_top" xlink:title="Resources.h">
<polygon fill="white" stroke="black" points="343.787,-112.5 343.787,-131.5 415.787,-131.5 415.787,-112.5 343.787,-112.5"/>
<text text-anchor="middle" x="379.787" y="-119.5" font-family="Helvetica,sans-Serif" font-size="10.00">Resources.h</text>
</a>
</g>
</g>
<!-- Node0&#45;&gt;Node1 -->
<g id="edge1" class="edge"><title>Node0&#45;&gt;Node1</title>
<path fill="none" stroke="midnightblue" d="M394.927,-280.075C392.409,-253.945 385.013,-177.211 381.578,-141.577"/>
<polygon fill="midnightblue" stroke="midnightblue" points="385.057,-141.186 380.613,-131.568 378.089,-141.858 385.057,-141.186"/>
</g>
<!-- Node5 -->
<g id="node6" class="node"><title>Node5</title>
<g id="a_node6"><a xlink:href="Error_8h.html" target="_top" xlink:title="Error.h">
<polygon fill="white" stroke="black" points="427.787,-224.5 427.787,-243.5 473.787,-243.5 473.787,-224.5 427.787,-224.5"/>
<text text-anchor="middle" x="450.787" y="-231.5" font-family="Helvetica,sans-Serif" font-size="10.00">Error.h</text>
</a>
</g>
</g>
<!-- Node0&#45;&gt;Node5 -->
<g id="edge5" class="edge"><title>Node0&#45;&gt;Node5</title>
<path fill="none" stroke="midnightblue" d="M404.87,-280.083C412.959,-272.141 424.983,-260.335 434.698,-250.797"/>
<polygon fill="midnightblue" stroke="midnightblue" points="437.191,-253.254 441.874,-243.751 432.287,-248.26 437.191,-253.254"/>
</g>
<!-- Node8 -->
<g id="node9" class="node"><title>Node8</title>
<g id="a_node9"><a xlink:href="Game_8h.html" target="_top" xlink:title="Game.h">
<polygon fill="white" stroke="black" points="236.287,-224.5 236.287,-243.5 287.287,-243.5 287.287,-224.5 236.287,-224.5"/>
<text text-anchor="middle" x="261.787" y="-231.5" font-family="Helvetica,sans-Serif" font-size="10.00">Game.h</text>
</a>
</g>
</g>
<!-- Node0&#45;&gt;Node8 -->
<g id="edge8" class="edge"><title>Node0&#45;&gt;Node8</title>
<path fill="none" stroke="midnightblue" d="M374.555,-280.444C352.404,-271.517 317.469,-257.439 292.351,-247.317"/>
<polygon fill="midnightblue" stroke="midnightblue" points="293.504,-244.008 282.921,-243.516 290.888,-250.501 293.504,-244.008"/>
</g>
<!-- Node2 -->
<g id="node3" class="node"><title>Node2</title>
<polygon fill="white" stroke="#bfbfbf" points="351.287,-56.5 351.287,-75.5 392.287,-75.5 392.287,-56.5 351.287,-56.5"/>
<text text-anchor="middle" x="371.787" y="-63.5" font-family="Helvetica,sans-Serif" font-size="10.00">string</text>
</g>
<!-- Node1&#45;&gt;Node2 -->
<g id="edge2" class="edge"><title>Node1&#45;&gt;Node2</title>
<path fill="none" stroke="midnightblue" d="M378.466,-112.083C377.406,-104.927 375.882,-94.6353 374.557,-85.6911"/>
<polygon fill="midnightblue" stroke="midnightblue" points="378.012,-85.1302 373.084,-75.7511 371.087,-86.1561 378.012,-85.1302"/>
</g>
<!-- Node3 -->
<g id="node4" class="node"><title>Node3</title>
<polygon fill="white" stroke="#bfbfbf" points="410.287,-56.5 410.287,-75.5 493.287,-75.5 493.287,-56.5 410.287,-56.5"/>
<text text-anchor="middle" x="451.787" y="-63.5" font-family="Helvetica,sans-Serif" font-size="10.00">unordered_map</text>
</g>
<!-- Node1&#45;&gt;Node3 -->
<g id="edge3" class="edge"><title>Node1&#45;&gt;Node3</title>
<path fill="none" stroke="midnightblue" d="M391.356,-112.324C402.208,-104.185 418.668,-91.8395 431.671,-82.0874"/>
<polygon fill="midnightblue" stroke="midnightblue" points="434.109,-84.6339 440.009,-75.8339 429.909,-79.0339 434.109,-84.6339"/>
</g>
<!-- Node4 -->
<g id="node5" class="node"><title>Node4</title>
<polygon fill="white" stroke="#bfbfbf" points="280.787,-56.5 280.787,-75.5 332.787,-75.5 332.787,-56.5 280.787,-56.5"/>
<text text-anchor="middle" x="306.787" y="-63.5" font-family="Helvetica,sans-Serif" font-size="10.00">memory</text>
</g>
<!-- Node1&#45;&gt;Node4 -->
<g id="edge4" class="edge"><title>Node1&#45;&gt;Node4</title>
<path fill="none" stroke="midnightblue" d="M368.059,-112.324C356.95,-104.107 340.045,-91.6017 326.804,-81.8069"/>
<polygon fill="midnightblue" stroke="midnightblue" points="328.851,-78.9671 318.73,-75.8339 324.688,-84.5948 328.851,-78.9671"/>
</g>
<!-- Node6 -->
<g id="node7" class="node"><title>Node6</title>
<polygon fill="white" stroke="#bfbfbf" points="423.787,-168.5 423.787,-187.5 477.787,-187.5 477.787,-168.5 423.787,-168.5"/>
<text text-anchor="middle" x="450.787" y="-175.5" font-family="Helvetica,sans-Serif" font-size="10.00">iostream</text>
</g>
<!-- Node5&#45;&gt;Node6 -->
<g id="edge6" class="edge"><title>Node5&#45;&gt;Node6</title>
<path fill="none" stroke="midnightblue" d="M450.787,-224.083C450.787,-217.006 450.787,-206.861 450.787,-197.986"/>
<polygon fill="midnightblue" stroke="midnightblue" points="454.288,-197.751 450.787,-187.751 447.288,-197.751 454.288,-197.751"/>
</g>
<!-- Node7 -->
<g id="node8" class="node"><title>Node7</title>
<polygon fill="white" stroke="#bfbfbf" points="495.787,-168.5 495.787,-187.5 543.787,-187.5 543.787,-168.5 495.787,-168.5"/>
<text text-anchor="middle" x="519.787" y="-175.5" font-family="Helvetica,sans-Serif" font-size="10.00">stdlib.h</text>
</g>
<!-- Node5&#45;&gt;Node7 -->
<g id="edge7" class="edge"><title>Node5&#45;&gt;Node7</title>
<path fill="none" stroke="midnightblue" d="M461.874,-224.324C472.274,-216.185 488.048,-203.839 500.509,-194.087"/>
<polygon fill="midnightblue" stroke="midnightblue" points="502.782,-196.753 508.5,-187.834 498.468,-191.241 502.782,-196.753"/>
</g>
<!-- Node8&#45;&gt;Node2 -->
<g id="edge9" class="edge"><title>Node8&#45;&gt;Node2</title>
<path fill="none" stroke="midnightblue" d="M266.506,-224.22C277.551,-203.894 306.316,-152.264 334.787,-112 341.722,-102.193 350.185,-91.802 357.265,-83.4784"/>
<polygon fill="midnightblue" stroke="midnightblue" points="360.129,-85.5177 364.022,-75.664 354.834,-80.9392 360.129,-85.5177"/>
</g>
<!-- Node9 -->
<g id="node10" class="node"><title>Node9</title>
<polygon fill="white" stroke="#bfbfbf" points="326.287,-168.5 326.287,-187.5 367.287,-187.5 367.287,-168.5 326.287,-168.5"/>
<text text-anchor="middle" x="346.787" y="-175.5" font-family="Helvetica,sans-Serif" font-size="10.00">stack</text>
</g>
<!-- Node8&#45;&gt;Node9 -->
<g id="edge10" class="edge"><title>Node8&#45;&gt;Node9</title>
<path fill="none" stroke="midnightblue" d="M275.444,-224.324C288.704,-215.9 309.056,-202.971 324.634,-193.074"/>
<polygon fill="midnightblue" stroke="midnightblue" points="326.601,-195.971 333.165,-187.655 322.847,-190.063 326.601,-195.971"/>
</g>
<!-- Node10 -->
<g id="node11" class="node"><title>Node10</title>
<g id="a_node11"><a xlink:href="State_8h.html" target="_top" xlink:title="State.h">
<polygon fill="white" stroke="black" points="191.787,-168.5 191.787,-187.5 239.787,-187.5 239.787,-168.5 191.787,-168.5"/>
<text text-anchor="middle" x="215.787" y="-175.5" font-family="Helvetica,sans-Serif" font-size="10.00">State.h</text>
</a>
</g>
</g>
<!-- Node8&#45;&gt;Node10 -->
<g id="edge11" class="edge"><title>Node8&#45;&gt;Node10</title>
<path fill="none" stroke="midnightblue" d="M254.192,-224.083C247.56,-216.298 237.767,-204.801 229.729,-195.367"/>
<polygon fill="midnightblue" stroke="midnightblue" points="232.391,-193.094 223.242,-187.751 227.062,-197.633 232.391,-193.094"/>
</g>
<!-- Node14 -->
<g id="node15" class="node"><title>Node14</title>
<g id="a_node15"><a xlink:href="Vec2_8h.html" target="_top" xlink:title="Vec2.h">
<polygon fill="white" stroke="black" points="9.28749,-0.5 9.28749,-19.5 56.2875,-19.5 56.2875,-0.5 9.28749,-0.5"/>
<text text-anchor="middle" x="32.7875" y="-7.5" font-family="Helvetica,sans-Serif" font-size="10.00">Vec2.h</text>
</a>
</g>
</g>
<!-- Node8&#45;&gt;Node14 -->
<g id="edge25" class="edge"><title>Node8&#45;&gt;Node14</title>
<path fill="none" stroke="midnightblue" d="M235.935,-231.738C182.544,-227.562 60.8299,-209.564 9.78749,-132 -11.2781,-99.9886 8.42132,-53.4987 22.1346,-28.4889"/>
<polygon fill="midnightblue" stroke="midnightblue" points="25.2106,-30.1609 27.1699,-19.7488 19.1452,-26.6665 25.2106,-30.1609"/>
</g>
<!-- Node17 -->
<g id="node18" class="node"><title>Node17</title>
<g id="a_node18"><a xlink:href="InputManager_8h.html" target="_top" xlink:title="InputManager.h">
<polygon fill="white" stroke="black" points="18.7875,-112.5 18.7875,-131.5 102.787,-131.5 102.787,-112.5 18.7875,-112.5"/>
<text text-anchor="middle" x="60.7875" y="-119.5" font-family="Helvetica,sans-Serif" font-size="10.00">InputManager.h</text>
</a>
</g>
</g>
<!-- Node8&#45;&gt;Node17 -->
<g id="edge23" class="edge"><title>Node8&#45;&gt;Node17</title>
<path fill="none" stroke="midnightblue" d="M246.015,-224.368C211.157,-205.292 127.341,-159.422 85.4656,-136.505"/>
<polygon fill="midnightblue" stroke="midnightblue" points="86.9389,-133.322 76.4864,-131.591 83.5784,-139.463 86.9389,-133.322"/>
</g>
<!-- Node10&#45;&gt;Node4 -->
<g id="edge22" class="edge"><title>Node10&#45;&gt;Node4</title>
<path fill="none" stroke="midnightblue" d="M222.928,-168.368C238.079,-150.055 273.656,-107.049 293.251,-83.3624"/>
<polygon fill="midnightblue" stroke="midnightblue" points="296.003,-85.5276 299.68,-75.5914 290.609,-81.0656 296.003,-85.5276"/>
</g>
<!-- Node11 -->
<g id="node12" class="node"><title>Node11</title>
<g id="a_node12"><a xlink:href="Gameobject_8h.html" target="_top" xlink:title="Gameobject.h">
<polygon fill="white" stroke="black" points="159.287,-112.5 159.287,-131.5 236.287,-131.5 236.287,-112.5 159.287,-112.5"/>
<text text-anchor="middle" x="197.787" y="-119.5" font-family="Helvetica,sans-Serif" font-size="10.00">Gameobject.h</text>
</a>
</g>
</g>
<!-- Node10&#45;&gt;Node11 -->
<g id="edge12" class="edge"><title>Node10&#45;&gt;Node11</title>
<path fill="none" stroke="midnightblue" d="M212.815,-168.083C210.404,-160.849 206.924,-150.409 203.92,-141.397"/>
<polygon fill="midnightblue" stroke="midnightblue" points="207.187,-140.131 200.705,-131.751 200.546,-142.345 207.187,-140.131"/>
</g>
<!-- Node12 -->
<g id="node13" class="node"><title>Node12</title>
<polygon fill="white" stroke="#bfbfbf" points="60.7875,-56.5 60.7875,-75.5 104.787,-75.5 104.787,-56.5 60.7875,-56.5"/>
<text text-anchor="middle" x="82.7875" y="-63.5" font-family="Helvetica,sans-Serif" font-size="10.00">vector</text>
</g>
<!-- Node10&#45;&gt;Node12 -->
<g id="edge21" class="edge"><title>Node10&#45;&gt;Node12</title>
<path fill="none" stroke="midnightblue" d="M201.641,-168.355C187.927,-159.747 166.766,-145.852 149.787,-132 130.893,-116.585 111.063,-96.8348 97.9246,-83.1716"/>
<polygon fill="midnightblue" stroke="midnightblue" points="100.447,-80.7449 91.0201,-75.909 95.3736,-85.568 100.447,-80.7449"/>
</g>
<!-- Node11&#45;&gt;Node2 -->
<g id="edge18" class="edge"><title>Node11&#45;&gt;Node2</title>
<path fill="none" stroke="midnightblue" d="M225.358,-112.444C256.919,-102.649 308.468,-86.6509 341.229,-76.4836"/>
<polygon fill="midnightblue" stroke="midnightblue" points="342.644,-79.7094 351.157,-73.4026 340.569,-73.0239 342.644,-79.7094"/>
</g>
<!-- Node11&#45;&gt;Node4 -->
<g id="edge14" class="edge"><title>Node11&#45;&gt;Node4</title>
<path fill="none" stroke="midnightblue" d="M215.3,-112.324C232.86,-103.625 260.119,-90.1202 280.319,-80.113"/>
<polygon fill="midnightblue" stroke="midnightblue" points="281.911,-83.23 289.318,-75.6545 278.804,-76.9575 281.911,-83.23"/>
</g>
<!-- Node11&#45;&gt;Node12 -->
<g id="edge13" class="edge"><title>Node11&#45;&gt;Node12</title>
<path fill="none" stroke="midnightblue" d="M179.565,-112.444C160.892,-103.675 131.632,-89.9355 110.17,-79.8579"/>
<polygon fill="midnightblue" stroke="midnightblue" points="111.464,-76.5988 100.924,-75.5164 108.488,-82.935 111.464,-76.5988"/>
</g>
<!-- Node13 -->
<g id="node14" class="node"><title>Node13</title>
<g id="a_node14"><a xlink:href="Rect_8h.html" target="_top" xlink:title="Rect.h">
<polygon fill="white" stroke="black" points="216.787,-56.5 216.787,-75.5 262.787,-75.5 262.787,-56.5 216.787,-56.5"/>
<text text-anchor="middle" x="239.787" y="-63.5" font-family="Helvetica,sans-Serif" font-size="10.00">Rect.h</text>
</a>
</g>
</g>
<!-- Node11&#45;&gt;Node13 -->
<g id="edge15" class="edge"><title>Node11&#45;&gt;Node13</title>
<path fill="none" stroke="midnightblue" d="M204.723,-112.083C210.717,-104.377 219.539,-93.0333 226.835,-83.6531"/>
<polygon fill="midnightblue" stroke="midnightblue" points="229.604,-85.7934 232.981,-75.7511 224.079,-81.4958 229.604,-85.7934"/>
</g>
<!-- Node16 -->
<g id="node17" class="node"><title>Node16</title>
<g id="a_node17"><a xlink:href="Component_8h.html" target="_top" xlink:title="Component.h">
<polygon fill="white" stroke="black" points="123.287,-56.5 123.287,-75.5 198.287,-75.5 198.287,-56.5 123.287,-56.5"/>
<text text-anchor="middle" x="160.787" y="-63.5" font-family="Helvetica,sans-Serif" font-size="10.00">Component.h</text>
</a>
</g>
</g>
<!-- Node11&#45;&gt;Node16 -->
<g id="edge19" class="edge"><title>Node11&#45;&gt;Node16</title>
<path fill="none" stroke="midnightblue" d="M186.511,-112.083C179.887,-104.691 172.122,-93.9533 166.602,-84.8111"/>
<polygon fill="midnightblue" stroke="midnightblue" points="169.518,-82.8493 161.653,-75.7511 163.375,-86.205 169.518,-82.8493"/>
</g>
<!-- Node13&#45;&gt;Node14 -->
<g id="edge16" class="edge"><title>Node13&#45;&gt;Node14</title>
<path fill="none" stroke="midnightblue" d="M216.719,-58.667C213.389,-57.7648 210.002,-56.8538 206.787,-56 157.932,-43.021 101.227,-28.4473 66.1735,-19.4952"/>
<polygon fill="midnightblue" stroke="midnightblue" points="67.0091,-16.0963 56.4542,-17.0154 65.2785,-22.8791 67.0091,-16.0963"/>
</g>
<!-- Node15 -->
<g id="node16" class="node"><title>Node15</title>
<polygon fill="white" stroke="#bfbfbf" points="217.787,-0.5 217.787,-19.5 261.787,-19.5 261.787,-0.5 217.787,-0.5"/>
<text text-anchor="middle" x="239.787" y="-7.5" font-family="Helvetica,sans-Serif" font-size="10.00">cmath</text>
</g>
<!-- Node13&#45;&gt;Node15 -->
<g id="edge17" class="edge"><title>Node13&#45;&gt;Node15</title>
<path fill="none" stroke="midnightblue" d="M239.787,-56.083C239.787,-49.0059 239.787,-38.8611 239.787,-29.9865"/>
<polygon fill="midnightblue" stroke="midnightblue" points="243.288,-29.751 239.787,-19.7511 236.288,-29.7511 243.288,-29.751"/>
</g>
<!-- Node16&#45;&gt;Node11 -->
<g id="edge20" class="edge"><title>Node16&#45;&gt;Node11</title>
<path fill="none" stroke="midnightblue" d="M171.915,-75.7511C178.591,-83.1703 186.46,-94.0454 192.025,-103.275"/>
<polygon fill="midnightblue" stroke="midnightblue" points="188.974,-104.99 196.844,-112.083 195.115,-101.63 188.974,-104.99"/>
</g>
<!-- Node17&#45;&gt;Node14 -->
<g id="edge24" class="edge"><title>Node17&#45;&gt;Node14</title>
<path fill="none" stroke="midnightblue" d="M58.5904,-112.368C54.0718,-94.617 43.648,-53.6664 37.5214,-29.5974"/>
<polygon fill="midnightblue" stroke="midnightblue" points="40.8331,-28.419 34.9744,-19.5914 34.0494,-30.1458 40.8331,-28.419"/>
</g>
</g>
</svg>
