<?xml version="1.0" encoding="UTF-8" standalone="no"?>
<!DOCTYPE svg PUBLIC "-//W3C//DTD SVG 1.1//EN"
 "http://www.w3.org/Graphics/SVG/1.1/DTD/svg11.dtd">
<!-- Generated by graphviz version 2.38.0 (20140413.2041)
 -->
<!-- Title: Engine/include/Resources.h Pages: 1 -->
<svg width="1685pt" height="364pt"
 viewBox="0.00 0.00 1684.50 364.00" xmlns="http://www.w3.org/2000/svg" xmlns:xlink="http://www.w3.org/1999/xlink">
<g id="graph0" class="graph" transform="scale(1 1) rotate(0) translate(4 360)">
<title>Engine/include/Resources.h</title>
<polygon fill="white" stroke="none" points="-4,4 -4,-360 1680.5,-360 1680.5,4 -4,4"/>
<!-- Node5 -->
<g id="node1" class="node"><title>Node5</title>
<polygon fill="#bfbfbf" stroke="black" points="1162,-336.5 1162,-355.5 1301,-355.5 1301,-336.5 1162,-336.5"/>
<text text-anchor="middle" x="1231.5" y="-343.5" font-family="Helvetica,sans-Serif" font-size="10.00">Engine/include/Resources.h</text>
</g>
<!-- Node6 -->
<g id="node2" class="node"><title>Node6</title>
<g id="a_node2"><a xlink:href="State_8h.html" target="_top" xlink:title="Engine/include/State.h">
<polygon fill="white" stroke="black" points="370,-280.5 370,-299.5 485,-299.5 485,-280.5 370,-280.5"/>
<text text-anchor="middle" x="427.5" y="-287.5" font-family="Helvetica,sans-Serif" font-size="10.00">Engine/include/State.h</text>
</a>
</g>
</g>
<!-- Node5&#45;&gt;Node6 -->
<g id="edge1" class="edge"><title>Node5&#45;&gt;Node6</title>
<path fill="none" stroke="midnightblue" d="M1151.54,-339.629C989.638,-328.756 626.468,-304.364 485.234,-294.878"/>
<polygon fill="midnightblue" stroke="midnightblue" points="1151.69,-343.148 1161.91,-340.326 1152.16,-336.163 1151.69,-343.148"/>
</g>
<!-- Node8 -->
<g id="node4" class="node"><title>Node8</title>
<g id="a_node4"><a xlink:href="Text_8h.html" target="_top" xlink:title="Engine/include/Text.h">
<polygon fill="white" stroke="black" points="214,-168.5 214,-187.5 325,-187.5 325,-168.5 214,-168.5"/>
<text text-anchor="middle" x="269.5" y="-175.5" font-family="Helvetica,sans-Serif" font-size="10.00">Engine/include/Text.h</text>
</a>
</g>
</g>
<!-- Node5&#45;&gt;Node8 -->
<g id="edge31" class="edge"><title>Node5&#45;&gt;Node8</title>
<path fill="none" stroke="midnightblue" d="M1151.5,-343.405C966.02,-339.296 511.023,-326.743 360.5,-300 277.592,-285.27 229.475,-311.774 179.5,-244 160.283,-217.939 205.048,-198.09 238.095,-187.523"/>
<polygon fill="midnightblue" stroke="midnightblue" points="1151.65,-346.909 1161.72,-343.629 1151.8,-339.911 1151.65,-346.909"/>
</g>
<!-- Node16 -->
<g id="node12" class="node"><title>Node16</title>
<g id="a_node12"><a xlink:href="Game_8cpp.html" target="_top" xlink:title="Engine/src/Game.cpp">
<polygon fill="white" stroke="black" points="1157,-168.5 1157,-187.5 1268,-187.5 1268,-168.5 1157,-168.5"/>
<text text-anchor="middle" x="1212.5" y="-175.5" font-family="Helvetica,sans-Serif" font-size="10.00">Engine/src/Game.cpp</text>
</a>
</g>
</g>
<!-- Node5&#45;&gt;Node16 -->
<g id="edge32" class="edge"><title>Node5&#45;&gt;Node16</title>
<path fill="none" stroke="midnightblue" d="M1229.32,-325.93C1225.2,-289.92 1216.42,-213.231 1213.48,-187.568"/>
<polygon fill="midnightblue" stroke="midnightblue" points="1225.86,-326.538 1230.48,-336.075 1232.82,-325.742 1225.86,-326.538"/>
</g>
<!-- Node17 -->
<g id="node13" class="node"><title>Node17</title>
<g id="a_node13"><a xlink:href="Resources_8cpp.html" target="_top" xlink:title="Engine/src/Resources.cpp">
<polygon fill="white" stroke="black" points="1286.5,-168.5 1286.5,-187.5 1418.5,-187.5 1418.5,-168.5 1286.5,-168.5"/>
<text text-anchor="middle" x="1352.5" y="-175.5" font-family="Helvetica,sans-Serif" font-size="10.00">Engine/src/Resources.cpp</text>
</a>
</g>
</g>
<!-- Node5&#45;&gt;Node17 -->
<g id="edge33" class="edge"><title>Node5&#45;&gt;Node17</title>
<path fill="none" stroke="midnightblue" d="M1234.05,-326.165C1238.37,-300.508 1249.26,-254.305 1274.5,-224 1288.81,-206.822 1311.47,-194.794 1328.69,-187.522"/>
<polygon fill="midnightblue" stroke="midnightblue" points="1230.54,-325.964 1232.5,-336.376 1237.46,-327.015 1230.54,-325.964"/>
</g>
<!-- Node18 -->
<g id="node14" class="node"><title>Node18</title>
<g id="a_node14"><a xlink:href="Sprite_8cpp.html" target="_top" xlink:title="Engine/src/Sprite.cpp">
<polygon fill="white" stroke="black" points="1436.5,-168.5 1436.5,-187.5 1546.5,-187.5 1546.5,-168.5 1436.5,-168.5"/>
<text text-anchor="middle" x="1491.5" y="-175.5" font-family="Helvetica,sans-Serif" font-size="10.00">Engine/src/Sprite.cpp</text>
</a>
</g>
</g>
<!-- Node5&#45;&gt;Node18 -->
<g id="edge35" class="edge"><title>Node5&#45;&gt;Node18</title>
<path fill="none" stroke="midnightblue" d="M1241.32,-327.143C1258.25,-296.946 1293,-237.732 1312.5,-224 1333,-209.562 1395.33,-195.959 1440.69,-187.566"/>
<polygon fill="midnightblue" stroke="midnightblue" points="1238.1,-325.723 1236.3,-336.164 1244.22,-329.122 1238.1,-325.723"/>
</g>
<!-- Node21 -->
<g id="node17" class="node"><title>Node21</title>
<g id="a_node17"><a xlink:href="UItext_8cpp.html" target="_top" xlink:title="Engine/src/UItext.cpp">
<polygon fill="white" stroke="black" points="1564.5,-168.5 1564.5,-187.5 1676.5,-187.5 1676.5,-168.5 1564.5,-168.5"/>
<text text-anchor="middle" x="1620.5" y="-175.5" font-family="Helvetica,sans-Serif" font-size="10.00">Engine/src/UItext.cpp</text>
</a>
</g>
</g>
<!-- Node5&#45;&gt;Node21 -->
<g id="edge36" class="edge"><title>Node5&#45;&gt;Node21</title>
<path fill="none" stroke="midnightblue" d="M1253.57,-330.948C1276.12,-316.948 1312.42,-295.376 1345.5,-280 1433.13,-239.269 1542.17,-203.363 1592.56,-187.556"/>
<polygon fill="midnightblue" stroke="midnightblue" points="1251.42,-328.169 1244.8,-336.445 1255.13,-334.101 1251.42,-328.169"/>
</g>
<!-- Node26 -->
<g id="node22" class="node"><title>Node26</title>
<g id="a_node22"><a xlink:href="Music_8h.html" target="_top" xlink:title="Engine/include/Music.h">
<polygon fill="white" stroke="black" points="39.5,-168.5 39.5,-187.5 157.5,-187.5 157.5,-168.5 39.5,-168.5"/>
<text text-anchor="middle" x="98.5" y="-175.5" font-family="Helvetica,sans-Serif" font-size="10.00">Engine/include/Music.h</text>
</a>
</g>
</g>
<!-- Node5&#45;&gt;Node26 -->
<g id="edge27" class="edge"><title>Node5&#45;&gt;Node26</title>
<path fill="none" stroke="midnightblue" d="M1151.73,-344.803C927.392,-343.781 301.819,-337.558 217.5,-300 161.518,-275.064 117.948,-210.77 103.578,-187.537"/>
<polygon fill="midnightblue" stroke="midnightblue" points="1151.77,-348.303 1161.78,-344.846 1151.8,-341.303 1151.77,-348.303"/>
</g>
<!-- Node28 -->
<g id="node24" class="node"><title>Node28</title>
<g id="a_node24"><a xlink:href="Sound_8cpp.html" target="_top" xlink:title="Engine/src/Sound.cpp">
<polygon fill="white" stroke="black" points="1355,-280.5 1355,-299.5 1468,-299.5 1468,-280.5 1355,-280.5"/>
<text text-anchor="middle" x="1411.5" y="-287.5" font-family="Helvetica,sans-Serif" font-size="10.00">Engine/src/Sound.cpp</text>
</a>
</g>
</g>
<!-- Node5&#45;&gt;Node28 -->
<g id="edge34" class="edge"><title>Node5&#45;&gt;Node28</title>
<path fill="none" stroke="midnightblue" d="M1269.61,-333.568C1303.56,-323.381 1352.49,-308.703 1383.11,-299.516"/>
<polygon fill="midnightblue" stroke="midnightblue" points="1268.59,-330.218 1260.02,-336.444 1270.61,-336.922 1268.59,-330.218"/>
</g>
<!-- Node7 -->
<g id="node3" class="node"><title>Node7</title>
<g id="a_node3"><a xlink:href="Game_8h.html" target="_top" xlink:title="Engine/include/Game.h">
<polygon fill="white" stroke="black" points="770.5,-224.5 770.5,-243.5 888.5,-243.5 888.5,-224.5 770.5,-224.5"/>
<text text-anchor="middle" x="829.5" y="-231.5" font-family="Helvetica,sans-Serif" font-size="10.00">Engine/include/Game.h</text>
</a>
</g>
</g>
<!-- Node6&#45;&gt;Node7 -->
<g id="edge2" class="edge"><title>Node6&#45;&gt;Node7</title>
<path fill="none" stroke="midnightblue" d="M495.184,-279.908C572.28,-269.552 697.034,-252.794 770.374,-242.942"/>
<polygon fill="midnightblue" stroke="midnightblue" points="494.542,-276.463 485.097,-281.263 495.474,-283.401 494.542,-276.463"/>
</g>
<!-- Node11 -->
<g id="node7" class="node"><title>Node11</title>
<g id="a_node7"><a xlink:href="StageState_8h.html" target="_top" xlink:title="Game/include/StageState.h">
<polygon fill="white" stroke="black" points="178,-56.5 178,-75.5 315,-75.5 315,-56.5 178,-56.5"/>
<text text-anchor="middle" x="246.5" y="-63.5" font-family="Helvetica,sans-Serif" font-size="10.00">Game/include/StageState.h</text>
</a>
</g>
</g>
<!-- Node6&#45;&gt;Node11 -->
<g id="edge23" class="edge"><title>Node6&#45;&gt;Node11</title>
<path fill="none" stroke="midnightblue" d="M404.418,-275.384C380.255,-261.446 340.966,-239.667 305.5,-224 261.909,-204.744 234.656,-224.901 204.5,-188 183.008,-161.701 182.682,-143.026 196.5,-112 203.627,-95.9975 219.568,-83.2984 231.548,-75.5256"/>
<polygon fill="midnightblue" stroke="midnightblue" points="402.792,-278.487 413.197,-280.487 406.31,-272.435 402.792,-278.487"/>
</g>
<!-- Node24 -->
<g id="node20" class="node"><title>Node24</title>
<g id="a_node20"><a xlink:href="State_8cpp.html" target="_top" xlink:title="Engine/src/State.cpp">
<polygon fill="white" stroke="black" points="188.5,-224.5 188.5,-243.5 296.5,-243.5 296.5,-224.5 188.5,-224.5"/>
<text text-anchor="middle" x="242.5" y="-231.5" font-family="Helvetica,sans-Serif" font-size="10.00">Engine/src/State.cpp</text>
</a>
</g>
</g>
<!-- Node6&#45;&gt;Node24 -->
<g id="edge22" class="edge"><title>Node6&#45;&gt;Node24</title>
<path fill="none" stroke="midnightblue" d="M388.334,-277.568C353.435,-267.381 303.151,-252.703 271.677,-243.516"/>
<polygon fill="midnightblue" stroke="midnightblue" points="387.606,-281.001 398.186,-280.444 389.567,-274.282 387.606,-281.001"/>
</g>
<!-- Node25 -->
<g id="node21" class="node"><title>Node25</title>
<g id="a_node21"><a xlink:href="TitleState_8h.html" target="_top" xlink:title="Game/include/TitleState.h">
<polygon fill="white" stroke="black" points="362.5,-224.5 362.5,-243.5 492.5,-243.5 492.5,-224.5 362.5,-224.5"/>
<text text-anchor="middle" x="427.5" y="-231.5" font-family="Helvetica,sans-Serif" font-size="10.00">Game/include/TitleState.h</text>
</a>
</g>
</g>
<!-- Node6&#45;&gt;Node25 -->
<g id="edge24" class="edge"><title>Node6&#45;&gt;Node25</title>
<path fill="none" stroke="midnightblue" d="M427.5,-269.805C427.5,-260.91 427.5,-250.78 427.5,-243.751"/>
<polygon fill="midnightblue" stroke="midnightblue" points="424,-270.083 427.5,-280.083 431,-270.083 424,-270.083"/>
</g>
<!-- Node7&#45;&gt;Node8 -->
<g id="edge3" class="edge"><title>Node7&#45;&gt;Node8</title>
<path fill="none" stroke="midnightblue" d="M760.155,-226.313C647.718,-215.471 427.87,-194.271 325.028,-184.355"/>
<polygon fill="midnightblue" stroke="midnightblue" points="760.075,-229.822 770.365,-227.298 760.747,-222.854 760.075,-229.822"/>
</g>
<!-- Node12 -->
<g id="node8" class="node"><title>Node12</title>
<g id="a_node8"><a xlink:href="StageState_8cpp.html" target="_top" xlink:title="Game/src/StageState.cpp">
<polygon fill="white" stroke="black" points="663.5,-0.5 663.5,-19.5 793.5,-19.5 793.5,-0.5 663.5,-0.5"/>
<text text-anchor="middle" x="728.5" y="-7.5" font-family="Helvetica,sans-Serif" font-size="10.00">Game/src/StageState.cpp</text>
</a>
</g>
</g>
<!-- Node7&#45;&gt;Node12 -->
<g id="edge19" class="edge"><title>Node7&#45;&gt;Node12</title>
<path fill="none" stroke="midnightblue" d="M831.981,-214.29C835.541,-179.834 838.435,-105.366 805.5,-56 793.642,-38.2254 772.193,-26.5375 754.939,-19.5393"/>
<polygon fill="midnightblue" stroke="midnightblue" points="828.49,-214.007 830.799,-224.347 835.442,-214.824 828.49,-214.007"/>
</g>
<!-- Node13 -->
<g id="node9" class="node"><title>Node13</title>
<g id="a_node9"><a xlink:href="TitleState_8cpp.html" target="_top" xlink:title="Game/src/TitleState.cpp">
<polygon fill="white" stroke="black" points="422,-0.5 422,-19.5 545,-19.5 545,-0.5 422,-0.5"/>
<text text-anchor="middle" x="483.5" y="-7.5" font-family="Helvetica,sans-Serif" font-size="10.00">Game/src/TitleState.cpp</text>
</a>
</g>
</g>
<!-- Node7&#45;&gt;Node13 -->
<g id="edge20" class="edge"><title>Node7&#45;&gt;Node13</title>
<path fill="none" stroke="midnightblue" d="M817.17,-215.828C806.478,-201.769 790.004,-181.99 772.5,-168 682.623,-96.1686 555.185,-40.1476 504.997,-19.5504"/>
<polygon fill="midnightblue" stroke="midnightblue" points="814.549,-218.169 823.314,-224.121 820.174,-214.003 814.549,-218.169"/>
</g>
<!-- Node15 -->
<g id="node11" class="node"><title>Node15</title>
<g id="a_node11"><a xlink:href="Camera_8cpp.html" target="_top" xlink:title="Engine/src/Camera.cpp">
<polygon fill="white" stroke="black" points="1020,-168.5 1020,-187.5 1139,-187.5 1139,-168.5 1020,-168.5"/>
<text text-anchor="middle" x="1079.5" y="-175.5" font-family="Helvetica,sans-Serif" font-size="10.00">Engine/src/Camera.cpp</text>
</a>
</g>
</g>
<!-- Node7&#45;&gt;Node15 -->
<g id="edge11" class="edge"><title>Node7&#45;&gt;Node15</title>
<path fill="none" stroke="midnightblue" d="M879.123,-222.281C926.366,-212.077 996.536,-196.92 1040.07,-187.516"/>
<polygon fill="midnightblue" stroke="midnightblue" points="878.149,-218.911 869.113,-224.444 879.627,-225.753 878.149,-218.911"/>
</g>
<!-- Node7&#45;&gt;Node16 -->
<g id="edge12" class="edge"><title>Node7&#45;&gt;Node16</title>
<path fill="none" stroke="midnightblue" d="M898.656,-223.25C972.638,-212.819 1088.53,-196.479 1156.85,-186.846"/>
<polygon fill="midnightblue" stroke="midnightblue" points="897.918,-219.819 888.504,-224.681 898.895,-226.75 897.918,-219.819"/>
</g>
<!-- Node7&#45;&gt;Node17 -->
<g id="edge13" class="edge"><title>Node7&#45;&gt;Node17</title>
<path fill="none" stroke="midnightblue" d="M898.943,-226.39C986.871,-217.932 1143,-202.623 1276.5,-188 1279.67,-187.653 1282.91,-187.292 1286.19,-186.922"/>
<polygon fill="midnightblue" stroke="midnightblue" points="898.445,-222.921 888.825,-227.362 899.114,-229.889 898.445,-222.921"/>
</g>
<!-- Node7&#45;&gt;Node18 -->
<g id="edge14" class="edge"><title>Node7&#45;&gt;Node18</title>
<path fill="none" stroke="midnightblue" d="M898.711,-229.248C1010.23,-222.875 1236.53,-208.591 1427.5,-188 1430.4,-187.687 1433.37,-187.345 1436.37,-186.983"/>
<polygon fill="midnightblue" stroke="midnightblue" points="898.391,-225.76 888.606,-229.822 898.788,-232.749 898.391,-225.76"/>
</g>
<!-- Node19 -->
<g id="node15" class="node"><title>Node19</title>
<g id="a_node15"><a xlink:href="Tileset_8cpp.html" target="_top" xlink:title="Engine/src/Tileset.cpp">
<polygon fill="white" stroke="black" points="501.5,-168.5 501.5,-187.5 615.5,-187.5 615.5,-168.5 501.5,-168.5"/>
<text text-anchor="middle" x="558.5" y="-175.5" font-family="Helvetica,sans-Serif" font-size="10.00">Engine/src/Tileset.cpp</text>
</a>
</g>
</g>
<!-- Node7&#45;&gt;Node19 -->
<g id="edge15" class="edge"><title>Node7&#45;&gt;Node19</title>
<path fill="none" stroke="midnightblue" d="M776.672,-222.473C725.455,-212.268 648.73,-196.979 601.24,-187.516"/>
<polygon fill="midnightblue" stroke="midnightblue" points="776.068,-225.922 786.559,-224.444 777.436,-219.057 776.068,-225.922"/>
</g>
<!-- Node20 -->
<g id="node16" class="node"><title>Node20</title>
<g id="a_node16"><a xlink:href="UIelement_8cpp.html" target="_top" xlink:title="Engine/src/UIelement.cpp">
<polygon fill="white" stroke="black" points="633.5,-168.5 633.5,-187.5 763.5,-187.5 763.5,-168.5 633.5,-168.5"/>
<text text-anchor="middle" x="698.5" y="-175.5" font-family="Helvetica,sans-Serif" font-size="10.00">Engine/src/UIelement.cpp</text>
</a>
</g>
</g>
<!-- Node7&#45;&gt;Node20 -->
<g id="edge16" class="edge"><title>Node7&#45;&gt;Node20</title>
<path fill="none" stroke="midnightblue" d="M799.183,-220.503C774.624,-210.38 740.682,-196.388 719.16,-187.516"/>
<polygon fill="midnightblue" stroke="midnightblue" points="798.163,-223.868 808.743,-224.444 800.831,-217.397 798.163,-223.868"/>
</g>
<!-- Node7&#45;&gt;Node21 -->
<g id="edge17" class="edge"><title>Node7&#45;&gt;Node21</title>
<path fill="none" stroke="midnightblue" d="M899.078,-230.441C1028.54,-225.291 1315.1,-212.059 1555.5,-188 1558.33,-187.716 1561.23,-187.402 1564.16,-187.066"/>
<polygon fill="midnightblue" stroke="midnightblue" points="898.765,-226.951 888.91,-230.842 899.04,-233.945 898.765,-226.951"/>
</g>
<!-- Node22 -->
<g id="node18" class="node"><title>Node22</title>
<g id="a_node18"><a xlink:href="main_8cpp.html" target="_top" xlink:title="Game/src/main.cpp">
<polygon fill="white" stroke="black" points="381.5,-168.5 381.5,-187.5 483.5,-187.5 483.5,-168.5 381.5,-168.5"/>
<text text-anchor="middle" x="432.5" y="-175.5" font-family="Helvetica,sans-Serif" font-size="10.00">Game/src/main.cpp</text>
</a>
</g>
</g>
<!-- Node7&#45;&gt;Node22 -->
<g id="edge18" class="edge"><title>Node7&#45;&gt;Node22</title>
<path fill="none" stroke="midnightblue" d="M760.227,-224.082C692.067,-215.229 585.055,-201.12 492.5,-188 489.58,-187.586 486.581,-187.155 483.555,-186.716"/>
<polygon fill="midnightblue" stroke="midnightblue" points="760.043,-227.587 770.41,-225.403 760.943,-220.646 760.043,-227.587"/>
</g>
<!-- Node23 -->
<g id="node19" class="node"><title>Node23</title>
<g id="a_node19"><a xlink:href="WaveManager_8cpp.html" target="_top" xlink:title="Game/src/WaveManager.cpp">
<polygon fill="white" stroke="black" points="857.5,-168.5 857.5,-187.5 1001.5,-187.5 1001.5,-168.5 857.5,-168.5"/>
<text text-anchor="middle" x="929.5" y="-175.5" font-family="Helvetica,sans-Serif" font-size="10.00">Game/src/WaveManager.cpp</text>
</a>
</g>
</g>
<!-- Node7&#45;&gt;Node23 -->
<g id="edge21" class="edge"><title>Node7&#45;&gt;Node23</title>
<path fill="none" stroke="midnightblue" d="M854.588,-219.453C873.049,-209.483 897.597,-196.228 913.473,-187.655"/>
<polygon fill="midnightblue" stroke="midnightblue" points="852.703,-216.493 845.567,-224.324 856.029,-222.652 852.703,-216.493"/>
</g>
<!-- Node9 -->
<g id="node5" class="node"><title>Node9</title>
<g id="a_node5"><a xlink:href="Text_8cpp.html" target="_top" xlink:title="Engine/src/Text.cpp">
<polygon fill="white" stroke="black" points="351.5,-112.5 351.5,-131.5 455.5,-131.5 455.5,-112.5 351.5,-112.5"/>
<text text-anchor="middle" x="403.5" y="-119.5" font-family="Helvetica,sans-Serif" font-size="10.00">Engine/src/Text.cpp</text>
</a>
</g>
</g>
<!-- Node8&#45;&gt;Node9 -->
<g id="edge4" class="edge"><title>Node8&#45;&gt;Node9</title>
<path fill="none" stroke="midnightblue" d="M300.177,-164.638C325.323,-154.504 360.254,-140.427 382.367,-131.516"/>
<polygon fill="midnightblue" stroke="midnightblue" points="298.7,-161.459 290.733,-168.444 301.316,-167.952 298.7,-161.459"/>
</g>
<!-- Node10 -->
<g id="node6" class="node"><title>Node10</title>
<g id="a_node6"><a xlink:href="EndState_8h.html" target="_top" xlink:title="Game/include/EndState.h">
<polygon fill="white" stroke="black" points="205.5,-112.5 205.5,-131.5 333.5,-131.5 333.5,-112.5 205.5,-112.5"/>
<text text-anchor="middle" x="269.5" y="-119.5" font-family="Helvetica,sans-Serif" font-size="10.00">Game/include/EndState.h</text>
</a>
</g>
</g>
<!-- Node8&#45;&gt;Node10 -->
<g id="edge5" class="edge"><title>Node8&#45;&gt;Node10</title>
<path fill="none" stroke="midnightblue" d="M269.5,-157.805C269.5,-148.91 269.5,-138.78 269.5,-131.751"/>
<polygon fill="midnightblue" stroke="midnightblue" points="266,-158.083 269.5,-168.083 273,-158.083 266,-158.083"/>
</g>
<!-- Node10&#45;&gt;Node11 -->
<g id="edge6" class="edge"><title>Node10&#45;&gt;Node11</title>
<path fill="none" stroke="midnightblue" d="M255.568,-103.275C250.878,-94.0454 246.663,-83.1703 245.096,-75.7511"/>
<polygon fill="midnightblue" stroke="midnightblue" points="252.574,-105.092 260.536,-112.083 258.671,-101.653 252.574,-105.092"/>
</g>
<!-- Node14 -->
<g id="node10" class="node"><title>Node14</title>
<g id="a_node10"><a xlink:href="EndState_8cpp.html" target="_top" xlink:title="Game/src/EndState.cpp">
<polygon fill="white" stroke="black" points="333.5,-56.5 333.5,-75.5 455.5,-75.5 455.5,-56.5 333.5,-56.5"/>
<text text-anchor="middle" x="394.5" y="-63.5" font-family="Helvetica,sans-Serif" font-size="10.00">Game/src/EndState.cpp</text>
</a>
</g>
</g>
<!-- Node10&#45;&gt;Node14 -->
<g id="edge10" class="edge"><title>Node10&#45;&gt;Node14</title>
<path fill="none" stroke="midnightblue" d="M298.741,-108.368C322.15,-98.2553 354.341,-84.3486 374.786,-75.5164"/>
<polygon fill="midnightblue" stroke="midnightblue" points="297.099,-105.265 289.307,-112.444 299.875,-111.691 297.099,-105.265"/>
</g>
<!-- Node11&#45;&gt;Node10 -->
<g id="edge7" class="edge"><title>Node11&#45;&gt;Node10</title>
<path fill="none" stroke="midnightblue" d="M260.328,-84.5199C265.025,-93.7244 269.262,-104.613 270.868,-112.083"/>
<polygon fill="midnightblue" stroke="midnightblue" points="263.334,-82.7254 255.358,-75.7511 257.244,-86.1768 263.334,-82.7254"/>
</g>
<!-- Node11&#45;&gt;Node12 -->
<g id="edge8" class="edge"><title>Node11&#45;&gt;Node12</title>
<path fill="none" stroke="midnightblue" d="M325.6,-55.879C451.376,-41.633 585.673,-26.7514 663.418,-18.1693"/>
<polygon fill="midnightblue" stroke="midnightblue" points="324.944,-52.4309 315.402,-57.0349 325.732,-59.3863 324.944,-52.4309"/>
</g>
<!-- Node11&#45;&gt;Node13 -->
<g id="edge9" class="edge"><title>Node11&#45;&gt;Node13</title>
<path fill="none" stroke="midnightblue" d="M293.824,-54.2172C338.608,-44.0134 404.936,-28.9006 446.122,-19.5164"/>
<polygon fill="midnightblue" stroke="midnightblue" points="293.026,-50.8094 284.053,-56.4435 294.581,-57.6345 293.026,-50.8094"/>
</g>
<!-- Node25&#45;&gt;Node13 -->
<g id="edge26" class="edge"><title>Node25&#45;&gt;Node13</title>
<path fill="none" stroke="midnightblue" d="M402.223,-219.267C382.23,-206.553 359.651,-186.825 372.5,-168 397.253,-131.734 437.001,-166.23 464.5,-132 491.668,-98.1818 487.602,-41.4252 484.829,-19.7631"/>
<polygon fill="midnightblue" stroke="midnightblue" points="400.432,-222.273 410.806,-224.425 404.037,-216.273 400.432,-222.273"/>
</g>
<!-- Node25&#45;&gt;Node22 -->
<g id="edge25" class="edge"><title>Node25&#45;&gt;Node22</title>
<path fill="none" stroke="midnightblue" d="M429.25,-214.101C430.08,-205.136 431.032,-194.858 431.69,-187.751"/>
<polygon fill="midnightblue" stroke="midnightblue" points="425.763,-213.803 428.326,-224.083 432.733,-214.448 425.763,-213.803"/>
</g>
<!-- Node26&#45;&gt;Node10 -->
<g id="edge29" class="edge"><title>Node26&#45;&gt;Node10</title>
<path fill="none" stroke="midnightblue" d="M135.536,-165.304C167.757,-155.129 213.689,-140.625 242.531,-131.516"/>
<polygon fill="midnightblue" stroke="midnightblue" points="134.077,-162.095 125.595,-168.444 136.185,-168.77 134.077,-162.095"/>
</g>
<!-- Node26&#45;&gt;Node11 -->
<g id="edge30" class="edge"><title>Node26&#45;&gt;Node11</title>
<path fill="none" stroke="midnightblue" d="M112.657,-160.361C125.114,-146.363 144.223,-126.386 163.5,-112 183.73,-96.9029 209.657,-83.685 227.105,-75.5487"/>
<polygon fill="midnightblue" stroke="midnightblue" points="109.755,-158.364 105.819,-168.201 115.03,-162.966 109.755,-158.364"/>
</g>
<!-- Node27 -->
<g id="node23" class="node"><title>Node27</title>
<g id="a_node23"><a xlink:href="Music_8cpp.html" target="_top" xlink:title="Engine/src/Music.cpp">
<polygon fill="white" stroke="black" points="0,-112.5 0,-131.5 111,-131.5 111,-112.5 0,-112.5"/>
<text text-anchor="middle" x="55.5" y="-119.5" font-family="Helvetica,sans-Serif" font-size="10.00">Engine/src/Music.cpp</text>
</a>
</g>
</g>
<!-- Node26&#45;&gt;Node27 -->
<g id="edge28" class="edge"><title>Node26&#45;&gt;Node27</title>
<path fill="none" stroke="midnightblue" d="M85.0776,-160.144C77.5858,-150.736 68.5629,-139.405 62.4685,-131.751"/>
<polygon fill="midnightblue" stroke="midnightblue" points="82.4321,-162.44 91.3994,-168.083 87.9081,-158.08 82.4321,-162.44"/>
</g>
</g>
</svg>
