<?xml version="1.0" encoding="UTF-8" standalone="no"?>
<!DOCTYPE svg PUBLIC "-//W3C//DTD SVG 1.1//EN"
 "http://www.w3.org/Graphics/SVG/1.1/DTD/svg11.dtd">
<!-- Generated by graphviz version 2.38.0 (20140413.2041)
 -->
<!-- Title: Engine/include/Resources.h Pages: 1 -->
<svg width="1376pt" height="364pt"
 viewBox="0.00 0.00 1375.50 364.00" xmlns="http://www.w3.org/2000/svg" xmlns:xlink="http://www.w3.org/1999/xlink">
<g id="graph0" class="graph" transform="scale(1 1) rotate(0) translate(4 360)">
<title>Engine/include/Resources.h</title>
<polygon fill="white" stroke="none" points="-4,4 -4,-360 1371.5,-360 1371.5,4 -4,4"/>
<!-- Node1 -->
<g id="node1" class="node"><title>Node1</title>
<polygon fill="#bfbfbf" stroke="black" points="946,-336.5 946,-355.5 1085,-355.5 1085,-336.5 946,-336.5"/>
<text text-anchor="middle" x="1015.5" y="-343.5" font-family="Helvetica,sans-Serif" font-size="10.00">Engine/include/Resources.h</text>
</g>
<!-- Node2 -->
<g id="node2" class="node"><title>Node2</title>
<g id="a_node2"><a xlink:href="State_8h.html" target="_top" xlink:title="Engine/include/State.h">
<polygon fill="white" stroke="black" points="688,-280.5 688,-299.5 803,-299.5 803,-280.5 688,-280.5"/>
<text text-anchor="middle" x="745.5" y="-287.5" font-family="Helvetica,sans-Serif" font-size="10.00">Engine/include/State.h</text>
</a>
</g>
</g>
<!-- Node1&#45;&gt;Node2 -->
<g id="edge1" class="edge"><title>Node1&#45;&gt;Node2</title>
<path fill="none" stroke="midnightblue" d="M962.867,-334.473C911.839,-324.268 835.397,-308.979 788.082,-299.516"/>
<polygon fill="midnightblue" stroke="midnightblue" points="962.225,-337.914 972.718,-336.444 963.598,-331.05 962.225,-337.914"/>
</g>
<!-- Node4 -->
<g id="node4" class="node"><title>Node4</title>
<g id="a_node4"><a xlink:href="Text_8h.html" target="_top" xlink:title="Engine/include/Text.h">
<polygon fill="white" stroke="black" points="286,-168.5 286,-187.5 397,-187.5 397,-168.5 286,-168.5"/>
<text text-anchor="middle" x="341.5" y="-175.5" font-family="Helvetica,sans-Serif" font-size="10.00">Engine/include/Text.h</text>
</a>
</g>
</g>
<!-- Node1&#45;&gt;Node4 -->
<g id="edge28" class="edge"><title>Node1&#45;&gt;Node4</title>
<path fill="none" stroke="midnightblue" d="M935.756,-345.919C770.357,-345.935 398.828,-335.533 320.5,-244 306.313,-227.421 323.368,-201.095 334.084,-187.598"/>
<polygon fill="midnightblue" stroke="midnightblue" points="935.874,-349.419 945.869,-345.905 935.864,-342.419 935.874,-349.419"/>
</g>
<!-- Node12 -->
<g id="node12" class="node"><title>Node12</title>
<g id="a_node12"><a xlink:href="Game_8cpp.html" target="_top" xlink:title="Engine/src/Game.cpp">
<polygon fill="white" stroke="black" points="978,-168.5 978,-187.5 1089,-187.5 1089,-168.5 978,-168.5"/>
<text text-anchor="middle" x="1033.5" y="-175.5" font-family="Helvetica,sans-Serif" font-size="10.00">Engine/src/Game.cpp</text>
</a>
</g>
</g>
<!-- Node1&#45;&gt;Node12 -->
<g id="edge29" class="edge"><title>Node1&#45;&gt;Node12</title>
<path fill="none" stroke="midnightblue" d="M1017.57,-325.93C1021.47,-289.92 1029.79,-213.231 1032.57,-187.568"/>
<polygon fill="midnightblue" stroke="midnightblue" points="1014.07,-325.756 1016.47,-336.075 1021.03,-326.511 1014.07,-325.756"/>
</g>
<!-- Node13 -->
<g id="node13" class="node"><title>Node13</title>
<g id="a_node13"><a xlink:href="Resources_8cpp.html" target="_top" xlink:title="Engine/src/Resources.cpp">
<polygon fill="white" stroke="black" points="1107.5,-168.5 1107.5,-187.5 1239.5,-187.5 1239.5,-168.5 1107.5,-168.5"/>
<text text-anchor="middle" x="1173.5" y="-175.5" font-family="Helvetica,sans-Serif" font-size="10.00">Engine/src/Resources.cpp</text>
</a>
</g>
</g>
<!-- Node1&#45;&gt;Node13 -->
<g id="edge30" class="edge"><title>Node1&#45;&gt;Node13</title>
<path fill="none" stroke="midnightblue" d="M1023.82,-327.221C1038.77,-295.528 1069.38,-231.841 1077.5,-224 1095.77,-206.357 1122.24,-194.659 1142.76,-187.623"/>
<polygon fill="midnightblue" stroke="midnightblue" points="1020.65,-325.736 1019.57,-336.275 1026.99,-328.714 1020.65,-325.736"/>
</g>
<!-- Node14 -->
<g id="node14" class="node"><title>Node14</title>
<g id="a_node14"><a xlink:href="Sprite_8cpp.html" target="_top" xlink:title="Engine/src/Sprite.cpp">
<polygon fill="white" stroke="black" points="1257.5,-168.5 1257.5,-187.5 1367.5,-187.5 1367.5,-168.5 1257.5,-168.5"/>
<text text-anchor="middle" x="1312.5" y="-175.5" font-family="Helvetica,sans-Serif" font-size="10.00">Engine/src/Sprite.cpp</text>
</a>
</g>
</g>
<!-- Node1&#45;&gt;Node14 -->
<g id="edge32" class="edge"><title>Node1&#45;&gt;Node14</title>
<path fill="none" stroke="midnightblue" d="M1034.96,-330.525C1053.81,-316.785 1083.44,-295.923 1110.5,-280 1175.38,-241.823 1256.57,-204.099 1293.1,-187.623"/>
<polygon fill="midnightblue" stroke="midnightblue" points="1032.85,-327.729 1026.87,-336.47 1037,-333.37 1032.85,-327.729"/>
</g>
<!-- Node19 -->
<g id="node19" class="node"><title>Node19</title>
<g id="a_node19"><a xlink:href="Music_8h.html" target="_top" xlink:title="Engine/include/Music.h">
<polygon fill="white" stroke="black" points="96.5,-168.5 96.5,-187.5 214.5,-187.5 214.5,-168.5 96.5,-168.5"/>
<text text-anchor="middle" x="155.5" y="-175.5" font-family="Helvetica,sans-Serif" font-size="10.00">Engine/include/Music.h</text>
</a>
</g>
</g>
<!-- Node1&#45;&gt;Node19 -->
<g id="edge24" class="edge"><title>Node1&#45;&gt;Node19</title>
<path fill="none" stroke="midnightblue" d="M935.445,-343.564C788.343,-340.23 480.747,-329.827 378.5,-300 290.97,-274.467 199.19,-211.113 167.262,-187.796"/>
<polygon fill="midnightblue" stroke="midnightblue" points="935.679,-347.07 945.754,-343.792 935.834,-340.072 935.679,-347.07"/>
</g>
<!-- Node21 -->
<g id="node21" class="node"><title>Node21</title>
<g id="a_node21"><a xlink:href="Sound_8cpp.html" target="_top" xlink:title="Engine/src/Sound.cpp">
<polygon fill="white" stroke="black" points="1120,-280.5 1120,-299.5 1233,-299.5 1233,-280.5 1120,-280.5"/>
<text text-anchor="middle" x="1176.5" y="-287.5" font-family="Helvetica,sans-Serif" font-size="10.00">Engine/src/Sound.cpp</text>
</a>
</g>
</g>
<!-- Node1&#45;&gt;Node21 -->
<g id="edge31" class="edge"><title>Node1&#45;&gt;Node21</title>
<path fill="none" stroke="midnightblue" d="M1050.76,-333.172C1081.08,-323.004 1124.07,-308.585 1151.11,-299.516"/>
<polygon fill="midnightblue" stroke="midnightblue" points="1049.38,-329.945 1041.01,-336.444 1051.6,-336.582 1049.38,-329.945"/>
</g>
<!-- Node3 -->
<g id="node3" class="node"><title>Node3</title>
<g id="a_node3"><a xlink:href="Game_8h.html" target="_top" xlink:title="Engine/include/Game.h">
<polygon fill="white" stroke="black" points="686.5,-224.5 686.5,-243.5 804.5,-243.5 804.5,-224.5 686.5,-224.5"/>
<text text-anchor="middle" x="745.5" y="-231.5" font-family="Helvetica,sans-Serif" font-size="10.00">Engine/include/Game.h</text>
</a>
</g>
</g>
<!-- Node2&#45;&gt;Node3 -->
<g id="edge2" class="edge"><title>Node2&#45;&gt;Node3</title>
<path fill="none" stroke="midnightblue" d="M745.5,-269.805C745.5,-260.91 745.5,-250.78 745.5,-243.751"/>
<polygon fill="midnightblue" stroke="midnightblue" points="742,-270.083 745.5,-280.083 749,-270.083 742,-270.083"/>
</g>
<!-- Node7 -->
<g id="node7" class="node"><title>Node7</title>
<g id="a_node7"><a xlink:href="StageState_8h.html" target="_top" xlink:title="Game/include/StageState.h">
<polygon fill="white" stroke="black" points="163,-56.5 163,-75.5 300,-75.5 300,-56.5 163,-56.5"/>
<text text-anchor="middle" x="231.5" y="-63.5" font-family="Helvetica,sans-Serif" font-size="10.00">Game/include/StageState.h</text>
</a>
</g>
</g>
<!-- Node2&#45;&gt;Node7 -->
<g id="edge20" class="edge"><title>Node2&#45;&gt;Node7</title>
<path fill="none" stroke="midnightblue" d="M692.111,-278.153C635.363,-264.571 545.203,-236.919 481.5,-188 448.431,-162.605 461.248,-135.044 426.5,-112 404.06,-97.1183 337.308,-83.7607 288.129,-75.5372"/>
<polygon fill="midnightblue" stroke="midnightblue" points="691.424,-281.587 701.958,-280.449 693.014,-274.77 691.424,-281.587"/>
</g>
<!-- Node17 -->
<g id="node17" class="node"><title>Node17</title>
<g id="a_node17"><a xlink:href="State_8cpp.html" target="_top" xlink:title="Engine/src/State.cpp">
<polygon fill="white" stroke="black" points="329.5,-224.5 329.5,-243.5 437.5,-243.5 437.5,-224.5 329.5,-224.5"/>
<text text-anchor="middle" x="383.5" y="-231.5" font-family="Helvetica,sans-Serif" font-size="10.00">Engine/src/State.cpp</text>
</a>
</g>
</g>
<!-- Node2&#45;&gt;Node17 -->
<g id="edge19" class="edge"><title>Node2&#45;&gt;Node17</title>
<path fill="none" stroke="midnightblue" d="M678.177,-278.957C608.737,-268.599 501.796,-252.646 437.635,-243.075"/>
<polygon fill="midnightblue" stroke="midnightblue" points="677.733,-282.43 688.14,-280.444 678.766,-275.506 677.733,-282.43"/>
</g>
<!-- Node18 -->
<g id="node18" class="node"><title>Node18</title>
<g id="a_node18"><a xlink:href="TitleState_8h.html" target="_top" xlink:title="Game/include/TitleState.h">
<polygon fill="white" stroke="black" points="822.5,-224.5 822.5,-243.5 952.5,-243.5 952.5,-224.5 822.5,-224.5"/>
<text text-anchor="middle" x="887.5" y="-231.5" font-family="Helvetica,sans-Serif" font-size="10.00">Game/include/TitleState.h</text>
</a>
</g>
</g>
<!-- Node2&#45;&gt;Node18 -->
<g id="edge21" class="edge"><title>Node2&#45;&gt;Node18</title>
<path fill="none" stroke="midnightblue" d="M777.655,-276.772C804.328,-266.629 841.569,-252.467 865.105,-243.516"/>
<polygon fill="midnightblue" stroke="midnightblue" points="776.103,-273.618 768,-280.444 778.591,-280.16 776.103,-273.618"/>
</g>
<!-- Node3&#45;&gt;Node4 -->
<g id="edge3" class="edge"><title>Node3&#45;&gt;Node4</title>
<path fill="none" stroke="midnightblue" d="M675.996,-223.71C597.099,-213.164 469.952,-196.169 397.258,-186.453"/>
<polygon fill="midnightblue" stroke="midnightblue" points="675.947,-227.234 686.322,-225.09 676.874,-220.296 675.947,-227.234"/>
</g>
<!-- Node8 -->
<g id="node8" class="node"><title>Node8</title>
<g id="a_node8"><a xlink:href="StageState_8cpp.html" target="_top" xlink:title="Game/src/StageState.cpp">
<polygon fill="white" stroke="black" points="292.5,-0.5 292.5,-19.5 422.5,-19.5 422.5,-0.5 292.5,-0.5"/>
<text text-anchor="middle" x="357.5" y="-7.5" font-family="Helvetica,sans-Serif" font-size="10.00">Game/src/StageState.cpp</text>
</a>
</g>
</g>
<!-- Node3&#45;&gt;Node8 -->
<g id="edge17" class="edge"><title>Node3&#45;&gt;Node8</title>
<path fill="none" stroke="midnightblue" d="M676.288,-227.589C614.062,-221.429 528.562,-209.337 502.5,-188 453.584,-147.952 492.539,-102.306 449.5,-56 432.916,-38.1574 407.734,-26.5243 387.906,-19.5646"/>
<polygon fill="midnightblue" stroke="midnightblue" points="676.161,-231.093 686.449,-228.564 676.829,-224.125 676.161,-231.093"/>
</g>
<!-- Node9 -->
<g id="node9" class="node"><title>Node9</title>
<g id="a_node9"><a xlink:href="TitleState_8cpp.html" target="_top" xlink:title="Game/src/TitleState.cpp">
<polygon fill="white" stroke="black" points="730,-0.5 730,-19.5 853,-19.5 853,-0.5 730,-0.5"/>
<text text-anchor="middle" x="791.5" y="-7.5" font-family="Helvetica,sans-Serif" font-size="10.00">Game/src/TitleState.cpp</text>
</a>
</g>
</g>
<!-- Node3&#45;&gt;Node9 -->
<g id="edge18" class="edge"><title>Node3&#45;&gt;Node9</title>
<path fill="none" stroke="midnightblue" d="M758.218,-215.82C763.525,-207.771 769.209,-197.809 772.5,-188 793.241,-126.175 792.699,-46.0222 791.868,-19.7537"/>
<polygon fill="midnightblue" stroke="midnightblue" points="755.178,-214.061 752.328,-224.265 760.919,-218.065 755.178,-214.061"/>
</g>
<!-- Node11 -->
<g id="node11" class="node"><title>Node11</title>
<g id="a_node11"><a xlink:href="Camera_8cpp.html" target="_top" xlink:title="Engine/src/Camera.cpp">
<polygon fill="white" stroke="black" points="512,-168.5 512,-187.5 631,-187.5 631,-168.5 512,-168.5"/>
<text text-anchor="middle" x="571.5" y="-175.5" font-family="Helvetica,sans-Serif" font-size="10.00">Engine/src/Camera.cpp</text>
</a>
</g>
</g>
<!-- Node3&#45;&gt;Node11 -->
<g id="edge11" class="edge"><title>Node3&#45;&gt;Node11</title>
<path fill="none" stroke="midnightblue" d="M708.239,-221.436C675.433,-211.255 628.417,-196.664 598.942,-187.516"/>
<polygon fill="midnightblue" stroke="midnightblue" points="707.341,-224.822 717.929,-224.444 709.416,-218.137 707.341,-224.822"/>
</g>
<!-- Node3&#45;&gt;Node12 -->
<g id="edge12" class="edge"><title>Node3&#45;&gt;Node12</title>
<path fill="none" stroke="midnightblue" d="M801.302,-222.537C855.732,-212.332 937.504,-196.999 988.079,-187.516"/>
<polygon fill="midnightblue" stroke="midnightblue" points="800.318,-219.161 791.134,-224.444 801.608,-226.041 800.318,-219.161"/>
</g>
<!-- Node3&#45;&gt;Node13 -->
<g id="edge13" class="edge"><title>Node3&#45;&gt;Node13</title>
<path fill="none" stroke="midnightblue" d="M814.961,-223.819C923.279,-209.907 1037.43,-195.742 1107.46,-187.11"/>
<polygon fill="midnightblue" stroke="midnightblue" points="814.307,-220.374 804.835,-225.121 815.2,-227.317 814.307,-220.374"/>
</g>
<!-- Node3&#45;&gt;Node14 -->
<g id="edge14" class="edge"><title>Node3&#45;&gt;Node14</title>
<path fill="none" stroke="midnightblue" d="M815.02,-223.886C1008.11,-203.472 1059,-209.148 1248.5,-188 1251.4,-187.676 1254.37,-187.326 1257.37,-186.957"/>
<polygon fill="midnightblue" stroke="midnightblue" points="814.39,-220.434 804.818,-224.975 815.133,-227.394 814.39,-220.434"/>
</g>
<!-- Node15 -->
<g id="node15" class="node"><title>Node15</title>
<g id="a_node15"><a xlink:href="Tileset_8cpp.html" target="_top" xlink:title="Engine/src/Tileset.cpp">
<polygon fill="white" stroke="black" points="649.5,-168.5 649.5,-187.5 763.5,-187.5 763.5,-168.5 649.5,-168.5"/>
<text text-anchor="middle" x="706.5" y="-175.5" font-family="Helvetica,sans-Serif" font-size="10.00">Engine/src/Tileset.cpp</text>
</a>
</g>
</g>
<!-- Node3&#45;&gt;Node15 -->
<g id="edge15" class="edge"><title>Node3&#45;&gt;Node15</title>
<path fill="none" stroke="midnightblue" d="M733.118,-215.855C726.365,-206.505 718.291,-195.327 712.82,-187.751"/>
<polygon fill="midnightblue" stroke="midnightblue" points="730.368,-218.025 739.06,-224.083 736.042,-213.927 730.368,-218.025"/>
</g>
<!-- Node16 -->
<g id="node16" class="node"><title>Node16</title>
<g id="a_node16"><a xlink:href="main_8cpp.html" target="_top" xlink:title="Game/src/main.cpp">
<polygon fill="white" stroke="black" points="819.5,-168.5 819.5,-187.5 921.5,-187.5 921.5,-168.5 819.5,-168.5"/>
<text text-anchor="middle" x="870.5" y="-175.5" font-family="Helvetica,sans-Serif" font-size="10.00">Game/src/main.cpp</text>
</a>
</g>
</g>
<!-- Node3&#45;&gt;Node16 -->
<g id="edge16" class="edge"><title>Node3&#45;&gt;Node16</title>
<path fill="none" stroke="midnightblue" d="M774.741,-220.368C798.15,-210.255 830.341,-196.349 850.786,-187.516"/>
<polygon fill="midnightblue" stroke="midnightblue" points="773.099,-217.265 765.307,-224.444 775.875,-223.691 773.099,-217.265"/>
</g>
<!-- Node5 -->
<g id="node5" class="node"><title>Node5</title>
<g id="a_node5"><a xlink:href="Text_8cpp.html" target="_top" xlink:title="Engine/src/Text.cpp">
<polygon fill="white" stroke="black" points="313.5,-112.5 313.5,-131.5 417.5,-131.5 417.5,-112.5 313.5,-112.5"/>
<text text-anchor="middle" x="365.5" y="-119.5" font-family="Helvetica,sans-Serif" font-size="10.00">Engine/src/Text.cpp</text>
</a>
</g>
</g>
<!-- Node4&#45;&gt;Node5 -->
<g id="edge4" class="edge"><title>Node4&#45;&gt;Node5</title>
<path fill="none" stroke="midnightblue" d="M349.638,-158.69C353.683,-149.589 358.383,-139.014 361.611,-131.751"/>
<polygon fill="midnightblue" stroke="midnightblue" points="346.326,-157.523 345.463,-168.083 352.723,-160.366 346.326,-157.523"/>
</g>
<!-- Node6 -->
<g id="node6" class="node"><title>Node6</title>
<g id="a_node6"><a xlink:href="EndState_8h.html" target="_top" xlink:title="Game/include/EndState.h">
<polygon fill="white" stroke="black" points="167.5,-112.5 167.5,-131.5 295.5,-131.5 295.5,-112.5 167.5,-112.5"/>
<text text-anchor="middle" x="231.5" y="-119.5" font-family="Helvetica,sans-Serif" font-size="10.00">Game/include/EndState.h</text>
</a>
</g>
</g>
<!-- Node4&#45;&gt;Node6 -->
<g id="edge5" class="edge"><title>Node4&#45;&gt;Node6</title>
<path fill="none" stroke="midnightblue" d="M314.738,-163.862C294.341,-153.849 266.834,-140.346 249.13,-131.655"/>
<polygon fill="midnightblue" stroke="midnightblue" points="313.308,-167.059 323.827,-168.324 316.392,-160.775 313.308,-167.059"/>
</g>
<!-- Node6&#45;&gt;Node7 -->
<g id="edge6" class="edge"><title>Node6&#45;&gt;Node7</title>
<path fill="none" stroke="midnightblue" d="M225.028,-102.101C224.396,-93.1357 224.843,-82.8579 226.369,-75.7511"/>
<polygon fill="midnightblue" stroke="midnightblue" points="221.566,-102.622 226.334,-112.083 228.507,-101.713 221.566,-102.622"/>
</g>
<!-- Node10 -->
<g id="node10" class="node"><title>Node10</title>
<g id="a_node10"><a xlink:href="EndState_8cpp.html" target="_top" xlink:title="Game/src/EndState.cpp">
<polygon fill="white" stroke="black" points="318.5,-56.5 318.5,-75.5 440.5,-75.5 440.5,-56.5 318.5,-56.5"/>
<text text-anchor="middle" x="379.5" y="-63.5" font-family="Helvetica,sans-Serif" font-size="10.00">Game/src/EndState.cpp</text>
</a>
</g>
</g>
<!-- Node6&#45;&gt;Node10 -->
<g id="edge10" class="edge"><title>Node6&#45;&gt;Node10</title>
<path fill="none" stroke="midnightblue" d="M264.647,-108.906C292.472,-98.7536 331.52,-84.5063 356.159,-75.5164"/>
<polygon fill="midnightblue" stroke="midnightblue" points="263.146,-105.728 254.951,-112.444 265.545,-112.304 263.146,-105.728"/>
</g>
<!-- Node7&#45;&gt;Node6 -->
<g id="edge7" class="edge"><title>Node7&#45;&gt;Node6</title>
<path fill="none" stroke="midnightblue" d="M237.958,-85.6911C238.606,-94.6353 238.176,-104.927 236.666,-112.083"/>
<polygon fill="midnightblue" stroke="midnightblue" points="241.423,-85.2002 236.631,-75.7511 234.485,-86.1262 241.423,-85.2002"/>
</g>
<!-- Node7&#45;&gt;Node8 -->
<g id="edge8" class="edge"><title>Node7&#45;&gt;Node8</title>
<path fill="none" stroke="midnightblue" d="M260.66,-52.503C284.281,-42.3795 316.928,-28.388 337.628,-19.5164"/>
<polygon fill="midnightblue" stroke="midnightblue" points="259.278,-49.2873 251.465,-56.4435 262.035,-55.7213 259.278,-49.2873"/>
</g>
<!-- Node7&#45;&gt;Node9 -->
<g id="edge9" class="edge"><title>Node7&#45;&gt;Node9</title>
<path fill="none" stroke="midnightblue" d="M310.73,-55.8921C467.978,-39.5739 640.086,-24.169 729.827,-16.3248"/>
<polygon fill="midnightblue" stroke="midnightblue" points="309.978,-52.4513 300.395,-56.9682 310.703,-59.4137 309.978,-52.4513"/>
</g>
<!-- Node18&#45;&gt;Node9 -->
<g id="edge23" class="edge"><title>Node18&#45;&gt;Node9</title>
<path fill="none" stroke="midnightblue" d="M907.744,-217.859C916.509,-210.031 925.82,-199.672 930.5,-188 933.808,-179.75 933.651,-176.312 930.5,-168 904.305,-98.8969 832.251,-40.6655 803.538,-19.5159"/>
<polygon fill="midnightblue" stroke="midnightblue" points="905.448,-215.217 899.997,-224.302 909.924,-220.599 905.448,-215.217"/>
</g>
<!-- Node18&#45;&gt;Node16 -->
<g id="edge22" class="edge"><title>Node18&#45;&gt;Node16</title>
<path fill="none" stroke="midnightblue" d="M881.643,-214.396C878.799,-205.362 875.517,-194.936 873.255,-187.751"/>
<polygon fill="midnightblue" stroke="midnightblue" points="878.351,-215.596 884.693,-224.083 885.028,-213.493 878.351,-215.596"/>
</g>
<!-- Node19&#45;&gt;Node6 -->
<g id="edge26" class="edge"><title>Node19&#45;&gt;Node6</title>
<path fill="none" stroke="midnightblue" d="M176.076,-162.38C189.812,-152.62 207.425,-140.106 219.067,-131.834"/>
<polygon fill="midnightblue" stroke="midnightblue" points="173.835,-159.679 167.711,-168.324 177.89,-165.385 173.835,-159.679"/>
</g>
<!-- Node19&#45;&gt;Node7 -->
<g id="edge27" class="edge"><title>Node19&#45;&gt;Node7</title>
<path fill="none" stroke="midnightblue" d="M151.918,-158.088C150.327,-144.358 150.349,-125.841 158.5,-112 168.926,-94.2965 189.325,-82.6031 205.914,-75.5846"/>
<polygon fill="midnightblue" stroke="midnightblue" points="148.508,-158.938 153.492,-168.287 155.426,-157.87 148.508,-158.938"/>
</g>
<!-- Node20 -->
<g id="node20" class="node"><title>Node20</title>
<g id="a_node20"><a xlink:href="Music_8cpp.html" target="_top" xlink:title="Engine/src/Music.cpp">
<polygon fill="white" stroke="black" points="0,-112.5 0,-131.5 111,-131.5 111,-112.5 0,-112.5"/>
<text text-anchor="middle" x="55.5" y="-119.5" font-family="Helvetica,sans-Serif" font-size="10.00">Engine/src/Music.cpp</text>
</a>
</g>
</g>
<!-- Node19&#45;&gt;Node20 -->
<g id="edge25" class="edge"><title>Node19&#45;&gt;Node20</title>
<path fill="none" stroke="midnightblue" d="M130.412,-163.453C111.951,-153.483 87.4034,-140.228 71.5269,-131.655"/>
<polygon fill="midnightblue" stroke="midnightblue" points="128.971,-166.652 139.433,-168.324 132.297,-160.493 128.971,-166.652"/>
</g>
</g>
</svg>
