<?xml version="1.0" encoding="UTF-8" standalone="no"?>
<!DOCTYPE svg PUBLIC "-//W3C//DTD SVG 1.1//EN"
 "http://www.w3.org/Graphics/SVG/1.1/DTD/svg11.dtd">
<!-- Generated by graphviz version 2.38.0 (20140413.2041)
 -->
<!-- Title: Engine/src/Resources.cpp Pages: 1 -->
<svg width="624pt" height="308pt"
 viewBox="0.00 0.00 624.00 308.00" xmlns="http://www.w3.org/2000/svg" xmlns:xlink="http://www.w3.org/1999/xlink">
<g id="graph0" class="graph" transform="scale(1 1) rotate(0) translate(4 304)">
<title>Engine/src/Resources.cpp</title>
<polygon fill="white" stroke="none" points="-4,4 -4,-304 620,-304 620,4 -4,4"/>
<!-- Node1 -->
<g id="node1" class="node"><title>Node1</title>
<polygon fill="#bfbfbf" stroke="black" points="108,-280.5 108,-299.5 240,-299.5 240,-280.5 108,-280.5"/>
<text text-anchor="middle" x="174" y="-287.5" font-family="Helvetica,sans-Serif" font-size="10.00">Engine/src/Resources.cpp</text>
</g>
<!-- Node2 -->
<g id="node2" class="node"><title>Node2</title>
<g id="a_node2"><a xlink:href="Resources_8h.html" target="_top" xlink:title="Resources.h">
<polygon fill="white" stroke="black" points="138,-168.5 138,-187.5 210,-187.5 210,-168.5 138,-168.5"/>
<text text-anchor="middle" x="174" y="-175.5" font-family="Helvetica,sans-Serif" font-size="10.00">Resources.h</text>
</a>
</g>
</g>
<!-- Node1&#45;&gt;Node2 -->
<g id="edge1" class="edge"><title>Node1&#45;&gt;Node2</title>
<path fill="none" stroke="midnightblue" d="M174,-280.368C174,-262.617 174,-221.666 174,-197.597"/>
<polygon fill="midnightblue" stroke="midnightblue" points="177.5,-197.591 174,-187.591 170.5,-197.591 177.5,-197.591"/>
</g>
<!-- Node6 -->
<g id="node6" class="node"><title>Node6</title>
<g id="a_node6"><a xlink:href="Error_8h.html" target="_top" xlink:title="Error.h">
<polygon fill="white" stroke="black" points="73,-224.5 73,-243.5 119,-243.5 119,-224.5 73,-224.5"/>
<text text-anchor="middle" x="96" y="-231.5" font-family="Helvetica,sans-Serif" font-size="10.00">Error.h</text>
</a>
</g>
</g>
<!-- Node1&#45;&gt;Node6 -->
<g id="edge5" class="edge"><title>Node1&#45;&gt;Node6</title>
<path fill="none" stroke="midnightblue" d="M161.468,-280.324C149.414,-271.979 130.973,-259.212 116.731,-249.352"/>
<polygon fill="midnightblue" stroke="midnightblue" points="118.715,-246.469 108.501,-243.655 114.731,-252.224 118.715,-246.469"/>
</g>
<!-- Node9 -->
<g id="node9" class="node"><title>Node9</title>
<g id="a_node9"><a xlink:href="Game_8h.html" target="_top" xlink:title="Game.h">
<polygon fill="white" stroke="black" points="300.5,-224.5 300.5,-243.5 351.5,-243.5 351.5,-224.5 300.5,-224.5"/>
<text text-anchor="middle" x="326" y="-231.5" font-family="Helvetica,sans-Serif" font-size="10.00">Game.h</text>
</a>
</g>
</g>
<!-- Node1&#45;&gt;Node9 -->
<g id="edge8" class="edge"><title>Node1&#45;&gt;Node9</title>
<path fill="none" stroke="midnightblue" d="M198.085,-280.444C223.545,-271.399 263.894,-257.064 292.459,-246.916"/>
<polygon fill="midnightblue" stroke="midnightblue" points="293.777,-250.162 302.028,-243.516 291.433,-243.566 293.777,-250.162"/>
</g>
<!-- Node3 -->
<g id="node3" class="node"><title>Node3</title>
<polygon fill="white" stroke="#bfbfbf" points="217.5,-56.5 217.5,-75.5 258.5,-75.5 258.5,-56.5 217.5,-56.5"/>
<text text-anchor="middle" x="238" y="-63.5" font-family="Helvetica,sans-Serif" font-size="10.00">string</text>
</g>
<!-- Node2&#45;&gt;Node3 -->
<g id="edge2" class="edge"><title>Node2&#45;&gt;Node3</title>
<path fill="none" stroke="midnightblue" d="M179.022,-168.368C189.537,-150.296 214.043,-108.176 227.93,-84.3074"/>
<polygon fill="midnightblue" stroke="midnightblue" points="230.998,-85.9951 233.001,-75.5914 224.947,-82.4748 230.998,-85.9951"/>
</g>
<!-- Node4 -->
<g id="node4" class="node"><title>Node4</title>
<polygon fill="white" stroke="#bfbfbf" points="88.5,-112.5 88.5,-131.5 171.5,-131.5 171.5,-112.5 88.5,-112.5"/>
<text text-anchor="middle" x="130" y="-119.5" font-family="Helvetica,sans-Serif" font-size="10.00">unordered_map</text>
</g>
<!-- Node2&#45;&gt;Node4 -->
<g id="edge3" class="edge"><title>Node2&#45;&gt;Node4</title>
<path fill="none" stroke="midnightblue" d="M166.734,-168.083C160.455,-160.377 151.212,-149.033 143.569,-139.653"/>
<polygon fill="midnightblue" stroke="midnightblue" points="146.161,-137.293 137.131,-131.751 140.734,-141.714 146.161,-137.293"/>
</g>
<!-- Node5 -->
<g id="node5" class="node"><title>Node5</title>
<polygon fill="white" stroke="#bfbfbf" points="266,-112.5 266,-131.5 318,-131.5 318,-112.5 266,-112.5"/>
<text text-anchor="middle" x="292" y="-119.5" font-family="Helvetica,sans-Serif" font-size="10.00">memory</text>
</g>
<!-- Node2&#45;&gt;Node5 -->
<g id="edge4" class="edge"><title>Node2&#45;&gt;Node5</title>
<path fill="none" stroke="midnightblue" d="M192.697,-168.444C211.944,-159.636 242.152,-145.812 264.2,-135.722"/>
<polygon fill="midnightblue" stroke="midnightblue" points="265.753,-138.86 273.39,-131.516 262.84,-132.495 265.753,-138.86"/>
</g>
<!-- Node7 -->
<g id="node7" class="node"><title>Node7</title>
<polygon fill="white" stroke="#bfbfbf" points="0,-168.5 0,-187.5 54,-187.5 54,-168.5 0,-168.5"/>
<text text-anchor="middle" x="27" y="-175.5" font-family="Helvetica,sans-Serif" font-size="10.00">iostream</text>
</g>
<!-- Node6&#45;&gt;Node7 -->
<g id="edge6" class="edge"><title>Node6&#45;&gt;Node7</title>
<path fill="none" stroke="midnightblue" d="M84.914,-224.324C74.514,-216.185 58.7394,-203.839 46.2784,-194.087"/>
<polygon fill="midnightblue" stroke="midnightblue" points="48.3199,-191.241 38.2878,-187.834 44.0057,-196.753 48.3199,-191.241"/>
</g>
<!-- Node8 -->
<g id="node8" class="node"><title>Node8</title>
<polygon fill="white" stroke="#bfbfbf" points="72,-168.5 72,-187.5 120,-187.5 120,-168.5 72,-168.5"/>
<text text-anchor="middle" x="96" y="-175.5" font-family="Helvetica,sans-Serif" font-size="10.00">stdlib.h</text>
</g>
<!-- Node6&#45;&gt;Node8 -->
<g id="edge7" class="edge"><title>Node6&#45;&gt;Node8</title>
<path fill="none" stroke="midnightblue" d="M96,-224.083C96,-217.006 96,-206.861 96,-197.986"/>
<polygon fill="midnightblue" stroke="midnightblue" points="99.5001,-197.751 96,-187.751 92.5001,-197.751 99.5001,-197.751"/>
</g>
<!-- Node9&#45;&gt;Node3 -->
<g id="edge9" class="edge"><title>Node9&#45;&gt;Node3</title>
<path fill="none" stroke="midnightblue" d="M308.267,-224.444C294.358,-216.81 275.631,-204.32 265,-188 244.319,-156.252 239.313,-110.95 238.204,-85.7481"/>
<polygon fill="midnightblue" stroke="midnightblue" points="241.701,-85.6033 237.926,-75.7039 234.704,-85.7969 241.701,-85.6033"/>
</g>
<!-- Node10 -->
<g id="node10" class="node"><title>Node10</title>
<polygon fill="white" stroke="#bfbfbf" points="274.5,-168.5 274.5,-187.5 315.5,-187.5 315.5,-168.5 274.5,-168.5"/>
<text text-anchor="middle" x="295" y="-175.5" font-family="Helvetica,sans-Serif" font-size="10.00">stack</text>
</g>
<!-- Node9&#45;&gt;Node10 -->
<g id="edge10" class="edge"><title>Node9&#45;&gt;Node10</title>
<path fill="none" stroke="midnightblue" d="M320.881,-224.083C316.592,-216.613 310.342,-205.724 305.058,-196.52"/>
<polygon fill="midnightblue" stroke="midnightblue" points="308.038,-194.681 300.024,-187.751 301.967,-198.166 308.038,-194.681"/>
</g>
<!-- Node11 -->
<g id="node11" class="node"><title>Node11</title>
<g id="a_node11"><a xlink:href="State_8h.html" target="_top" xlink:title="State.h">
<polygon fill="white" stroke="black" points="334,-168.5 334,-187.5 382,-187.5 382,-168.5 334,-168.5"/>
<text text-anchor="middle" x="358" y="-175.5" font-family="Helvetica,sans-Serif" font-size="10.00">State.h</text>
</a>
</g>
</g>
<!-- Node9&#45;&gt;Node11 -->
<g id="edge11" class="edge"><title>Node9&#45;&gt;Node11</title>
<path fill="none" stroke="midnightblue" d="M331.284,-224.083C335.711,-216.613 342.163,-205.724 347.618,-196.52"/>
<polygon fill="midnightblue" stroke="midnightblue" points="350.727,-198.138 352.814,-187.751 344.705,-194.57 350.727,-198.138"/>
</g>
<!-- Node14 -->
<g id="node14" class="node"><title>Node14</title>
<g id="a_node14"><a xlink:href="Vec2_8h.html" target="_top" xlink:title="Vec2.h">
<polygon fill="white" stroke="black" points="480.5,-0.5 480.5,-19.5 527.5,-19.5 527.5,-0.5 480.5,-0.5"/>
<text text-anchor="middle" x="504" y="-7.5" font-family="Helvetica,sans-Serif" font-size="10.00">Vec2.h</text>
</a>
</g>
</g>
<!-- Node9&#45;&gt;Node14 -->
<g id="edge21" class="edge"><title>Node9&#45;&gt;Node14</title>
<path fill="none" stroke="midnightblue" d="M351.277,-224.403C387.095,-210.814 451.832,-180.788 484,-132 504.632,-100.708 506.346,-55.235 505.404,-29.8814"/>
<polygon fill="midnightblue" stroke="midnightblue" points="508.892,-29.5619 504.843,-19.7714 501.903,-29.9501 508.892,-29.5619"/>
</g>
<!-- Node17 -->
<g id="node17" class="node"><title>Node17</title>
<g id="a_node17"><a xlink:href="InputManager_8h.html" target="_top" xlink:title="InputManager.h">
<polygon fill="white" stroke="black" points="532,-56.5 532,-75.5 616,-75.5 616,-56.5 532,-56.5"/>
<text text-anchor="middle" x="574" y="-63.5" font-family="Helvetica,sans-Serif" font-size="10.00">InputManager.h</text>
</a>
</g>
</g>
<!-- Node9&#45;&gt;Node17 -->
<g id="edge19" class="edge"><title>Node9&#45;&gt;Node17</title>
<path fill="none" stroke="midnightblue" d="M351.757,-233.766C391.766,-233.6 469.299,-227.688 518,-188 550.344,-161.642 564.903,-112.415 570.688,-85.5897"/>
<polygon fill="midnightblue" stroke="midnightblue" points="574.158,-86.0848 572.656,-75.597 567.29,-84.7321 574.158,-86.0848"/>
</g>
<!-- Node11&#45;&gt;Node5 -->
<g id="edge18" class="edge"><title>Node11&#45;&gt;Node5</title>
<path fill="none" stroke="midnightblue" d="M347.396,-168.324C337.544,-160.263 322.649,-148.077 310.785,-138.369"/>
<polygon fill="midnightblue" stroke="midnightblue" points="312.753,-135.457 302.797,-131.834 308.32,-140.875 312.753,-135.457"/>
</g>
<!-- Node12 -->
<g id="node12" class="node"><title>Node12</title>
<g id="a_node12"><a xlink:href="Gameobject_8h.html" target="_top" xlink:title="Gameobject.h">
<polygon fill="white" stroke="black" points="398.5,-112.5 398.5,-131.5 475.5,-131.5 475.5,-112.5 398.5,-112.5"/>
<text text-anchor="middle" x="437" y="-119.5" font-family="Helvetica,sans-Serif" font-size="10.00">Gameobject.h</text>
</a>
</g>
</g>
<!-- Node11&#45;&gt;Node12 -->
<g id="edge12" class="edge"><title>Node11&#45;&gt;Node12</title>
<path fill="none" stroke="midnightblue" d="M370.693,-168.324C382.901,-159.979 401.578,-147.212 416.003,-137.352"/>
<polygon fill="midnightblue" stroke="midnightblue" points="418.058,-140.187 424.339,-131.655 414.108,-134.408 418.058,-140.187"/>
</g>
<!-- Node16 -->
<g id="node16" class="node"><title>Node16</title>
<polygon fill="white" stroke="#bfbfbf" points="336,-112.5 336,-131.5 380,-131.5 380,-112.5 336,-112.5"/>
<text text-anchor="middle" x="358" y="-119.5" font-family="Helvetica,sans-Serif" font-size="10.00">vector</text>
</g>
<!-- Node11&#45;&gt;Node16 -->
<g id="edge17" class="edge"><title>Node11&#45;&gt;Node16</title>
<path fill="none" stroke="midnightblue" d="M358,-168.083C358,-161.006 358,-150.861 358,-141.986"/>
<polygon fill="midnightblue" stroke="midnightblue" points="361.5,-141.751 358,-131.751 354.5,-141.751 361.5,-141.751"/>
</g>
<!-- Node12&#45;&gt;Node3 -->
<g id="edge16" class="edge"><title>Node12&#45;&gt;Node3</title>
<path fill="none" stroke="midnightblue" d="M405.468,-112.444C367.902,-102.25 305.575,-85.3371 268.479,-75.2707"/>
<polygon fill="midnightblue" stroke="midnightblue" points="269.294,-71.8654 258.727,-72.6243 267.461,-78.6211 269.294,-71.8654"/>
</g>
<!-- Node13 -->
<g id="node13" class="node"><title>Node13</title>
<g id="a_node13"><a xlink:href="Rect_8h.html" target="_top" xlink:title="Rect.h">
<polygon fill="white" stroke="black" points="416,-56.5 416,-75.5 462,-75.5 462,-56.5 416,-56.5"/>
<text text-anchor="middle" x="439" y="-63.5" font-family="Helvetica,sans-Serif" font-size="10.00">Rect.h</text>
</a>
</g>
</g>
<!-- Node12&#45;&gt;Node13 -->
<g id="edge13" class="edge"><title>Node12&#45;&gt;Node13</title>
<path fill="none" stroke="midnightblue" d="M437.33,-112.083C437.592,-105.006 437.968,-94.8611 438.297,-85.9865"/>
<polygon fill="midnightblue" stroke="midnightblue" points="441.803,-85.8738 438.676,-75.7511 434.808,-85.6147 441.803,-85.8738"/>
</g>
<!-- Node13&#45;&gt;Node14 -->
<g id="edge14" class="edge"><title>Node13&#45;&gt;Node14</title>
<path fill="none" stroke="midnightblue" d="M449.443,-56.324C459.146,-48.2631 473.815,-36.0765 485.5,-26.3695"/>
<polygon fill="midnightblue" stroke="midnightblue" points="487.911,-28.9163 493.367,-19.8339 483.438,-23.532 487.911,-28.9163"/>
</g>
<!-- Node15 -->
<g id="node15" class="node"><title>Node15</title>
<polygon fill="white" stroke="#bfbfbf" points="417,-0.5 417,-19.5 461,-19.5 461,-0.5 417,-0.5"/>
<text text-anchor="middle" x="439" y="-7.5" font-family="Helvetica,sans-Serif" font-size="10.00">cmath</text>
</g>
<!-- Node13&#45;&gt;Node15 -->
<g id="edge15" class="edge"><title>Node13&#45;&gt;Node15</title>
<path fill="none" stroke="midnightblue" d="M439,-56.083C439,-49.0059 439,-38.8611 439,-29.9865"/>
<polygon fill="midnightblue" stroke="midnightblue" points="442.5,-29.751 439,-19.7511 435.5,-29.7511 442.5,-29.751"/>
</g>
<!-- Node17&#45;&gt;Node14 -->
<g id="edge20" class="edge"><title>Node17&#45;&gt;Node14</title>
<path fill="none" stroke="midnightblue" d="M562.753,-56.324C552.203,-48.1849 536.199,-35.8395 523.558,-26.0874"/>
<polygon fill="midnightblue" stroke="midnightblue" points="525.507,-23.1707 515.451,-19.8339 521.231,-28.7132 525.507,-23.1707"/>
</g>
</g>
</svg>
