<?xml version="1.0" encoding="UTF-8" standalone="no"?>
<!DOCTYPE svg PUBLIC "-//W3C//DTD SVG 1.1//EN"
 "http://www.w3.org/Graphics/SVG/1.1/DTD/svg11.dtd">
<!-- Generated by graphviz version 2.38.0 (20140413.2041)
 -->
<!-- Title: Engine/include/Resources.h Pages: 1 -->
<svg width="876pt" height="252pt"
 viewBox="0.00 0.00 875.50 252.00" xmlns="http://www.w3.org/2000/svg" xmlns:xlink="http://www.w3.org/1999/xlink">
<g id="graph0" class="graph" transform="scale(1 1) rotate(0) translate(4 248)">
<title>Engine/include/Resources.h</title>
<polygon fill="white" stroke="none" points="-4,4 -4,-248 871.5,-248 871.5,4 -4,4"/>
<!-- Node4 -->
<g id="node1" class="node"><title>Node4</title>
<polygon fill="#bfbfbf" stroke="black" points="402,-224.5 402,-243.5 541,-243.5 541,-224.5 402,-224.5"/>
<text text-anchor="middle" x="471.5" y="-231.5" font-family="Helvetica,sans-Serif" font-size="10.00">Engine/include/Resources.h</text>
</g>
<!-- Node5 -->
<g id="node2" class="node"><title>Node5</title>
<g id="a_node2"><a xlink:href="Music_8h.html" target="_top" xlink:title="Engine/include/Music.h">
<polygon fill="white" stroke="black" points="80.5,-168.5 80.5,-187.5 198.5,-187.5 198.5,-168.5 80.5,-168.5"/>
<text text-anchor="middle" x="139.5" y="-175.5" font-family="Helvetica,sans-Serif" font-size="10.00">Engine/include/Music.h</text>
</a>
</g>
</g>
<!-- Node4&#45;&gt;Node5 -->
<g id="edge1" class="edge"><title>Node4&#45;&gt;Node5</title>
<path fill="none" stroke="midnightblue" d="M408.732,-222.791C345.998,-212.587 250.646,-197.078 191.86,-187.516"/>
<polygon fill="midnightblue" stroke="midnightblue" points="408.461,-226.293 418.894,-224.444 409.585,-219.383 408.461,-226.293"/>
</g>
<!-- Node12 -->
<g id="node9" class="node"><title>Node12</title>
<g id="a_node9"><a xlink:href="Text_8h.html" target="_top" xlink:title="Engine/include/Text.h">
<polygon fill="white" stroke="black" points="217,-168.5 217,-187.5 328,-187.5 328,-168.5 217,-168.5"/>
<text text-anchor="middle" x="272.5" y="-175.5" font-family="Helvetica,sans-Serif" font-size="10.00">Engine/include/Text.h</text>
</a>
</g>
</g>
<!-- Node4&#45;&gt;Node12 -->
<g id="edge10" class="edge"><title>Node4&#45;&gt;Node12</title>
<path fill="none" stroke="midnightblue" d="M429.852,-221.699C392.294,-211.507 337.886,-196.743 303.885,-187.516"/>
<polygon fill="midnightblue" stroke="midnightblue" points="429.4,-225.202 439.968,-224.444 431.233,-218.447 429.4,-225.202"/>
</g>
<!-- Node14 -->
<g id="node11" class="node"><title>Node14</title>
<g id="a_node11"><a xlink:href="Game_8cpp.html" target="_top" xlink:title="Engine/src/Game.cpp">
<polygon fill="white" stroke="black" points="346,-168.5 346,-187.5 457,-187.5 457,-168.5 346,-168.5"/>
<text text-anchor="middle" x="401.5" y="-175.5" font-family="Helvetica,sans-Serif" font-size="10.00">Engine/src/Game.cpp</text>
</a>
</g>
</g>
<!-- Node4&#45;&gt;Node14 -->
<g id="edge13" class="edge"><title>Node4&#45;&gt;Node14</title>
<path fill="none" stroke="midnightblue" d="M452.186,-218.101C439.588,-208.382 423.572,-196.027 412.951,-187.834"/>
<polygon fill="midnightblue" stroke="midnightblue" points="450.198,-220.987 460.253,-224.324 454.473,-215.445 450.198,-220.987"/>
</g>
<!-- Node15 -->
<g id="node12" class="node"><title>Node15</title>
<g id="a_node12"><a xlink:href="Resources_8cpp.html" target="_top" xlink:title="Engine/src/Resources.cpp">
<polygon fill="white" stroke="black" points="475.5,-168.5 475.5,-187.5 607.5,-187.5 607.5,-168.5 475.5,-168.5"/>
<text text-anchor="middle" x="541.5" y="-175.5" font-family="Helvetica,sans-Serif" font-size="10.00">Engine/src/Resources.cpp</text>
</a>
</g>
</g>
<!-- Node4&#45;&gt;Node15 -->
<g id="edge14" class="edge"><title>Node4&#45;&gt;Node15</title>
<path fill="none" stroke="midnightblue" d="M490.814,-218.101C503.412,-208.382 519.428,-196.027 530.049,-187.834"/>
<polygon fill="midnightblue" stroke="midnightblue" points="488.527,-215.445 482.747,-224.324 492.802,-220.987 488.527,-215.445"/>
</g>
<!-- Node16 -->
<g id="node13" class="node"><title>Node16</title>
<g id="a_node13"><a xlink:href="Sound_8cpp.html" target="_top" xlink:title="Engine/src/Sound.cpp">
<polygon fill="white" stroke="black" points="626,-168.5 626,-187.5 739,-187.5 739,-168.5 626,-168.5"/>
<text text-anchor="middle" x="682.5" y="-175.5" font-family="Helvetica,sans-Serif" font-size="10.00">Engine/src/Sound.cpp</text>
</a>
</g>
</g>
<!-- Node4&#45;&gt;Node16 -->
<g id="edge15" class="edge"><title>Node4&#45;&gt;Node16</title>
<path fill="none" stroke="midnightblue" d="M514.642,-221.959C554.494,-211.76 612.863,-196.822 649.223,-187.516"/>
<polygon fill="midnightblue" stroke="midnightblue" points="513.754,-218.573 504.934,-224.444 515.489,-225.355 513.754,-218.573"/>
</g>
<!-- Node17 -->
<g id="node14" class="node"><title>Node17</title>
<g id="a_node14"><a xlink:href="Sprite_8cpp.html" target="_top" xlink:title="Engine/src/Sprite.cpp">
<polygon fill="white" stroke="black" points="757.5,-168.5 757.5,-187.5 867.5,-187.5 867.5,-168.5 757.5,-168.5"/>
<text text-anchor="middle" x="812.5" y="-175.5" font-family="Helvetica,sans-Serif" font-size="10.00">Engine/src/Sprite.cpp</text>
</a>
</g>
</g>
<!-- Node4&#45;&gt;Node17 -->
<g id="edge16" class="edge"><title>Node4&#45;&gt;Node17</title>
<path fill="none" stroke="midnightblue" d="M535.572,-222.854C600.001,-212.651 698.216,-197.098 758.72,-187.516"/>
<polygon fill="midnightblue" stroke="midnightblue" points="534.862,-219.422 525.532,-224.444 535.957,-226.336 534.862,-219.422"/>
</g>
<!-- Node6 -->
<g id="node3" class="node"><title>Node6</title>
<g id="a_node3"><a xlink:href="Music_8cpp.html" target="_top" xlink:title="Engine/src/Music.cpp">
<polygon fill="white" stroke="black" points="0,-112.5 0,-131.5 111,-131.5 111,-112.5 0,-112.5"/>
<text text-anchor="middle" x="55.5" y="-119.5" font-family="Helvetica,sans-Serif" font-size="10.00">Engine/src/Music.cpp</text>
</a>
</g>
</g>
<!-- Node5&#45;&gt;Node6 -->
<g id="edge2" class="edge"><title>Node5&#45;&gt;Node6</title>
<path fill="none" stroke="midnightblue" d="M117.568,-162.901C102.165,-152.999 82.0542,-140.071 68.9626,-131.655"/>
<polygon fill="midnightblue" stroke="midnightblue" points="115.699,-165.86 126.004,-168.324 119.485,-159.972 115.699,-165.86"/>
</g>
<!-- Node7 -->
<g id="node4" class="node"><title>Node7</title>
<g id="a_node4"><a xlink:href="EndState_8h.html" target="_top" xlink:title="Game/include/EndState.h">
<polygon fill="white" stroke="black" points="167.5,-112.5 167.5,-131.5 295.5,-131.5 295.5,-112.5 167.5,-112.5"/>
<text text-anchor="middle" x="231.5" y="-119.5" font-family="Helvetica,sans-Serif" font-size="10.00">Game/include/EndState.h</text>
</a>
</g>
</g>
<!-- Node5&#45;&gt;Node7 -->
<g id="edge3" class="edge"><title>Node5&#45;&gt;Node7</title>
<path fill="none" stroke="midnightblue" d="M163.05,-163.177C179.979,-153.241 202.283,-140.149 216.755,-131.655"/>
<polygon fill="midnightblue" stroke="midnightblue" points="161.134,-160.243 154.281,-168.324 164.677,-166.28 161.134,-160.243"/>
</g>
<!-- Node8 -->
<g id="node5" class="node"><title>Node8</title>
<g id="a_node5"><a xlink:href="StageState_8h.html" target="_top" xlink:title="Game/include/StageState.h">
<polygon fill="white" stroke="black" points="117,-56.5 117,-75.5 254,-75.5 254,-56.5 117,-56.5"/>
<text text-anchor="middle" x="185.5" y="-63.5" font-family="Helvetica,sans-Serif" font-size="10.00">Game/include/StageState.h</text>
</a>
</g>
</g>
<!-- Node5&#45;&gt;Node8 -->
<g id="edge9" class="edge"><title>Node5&#45;&gt;Node8</title>
<path fill="none" stroke="midnightblue" d="M143.561,-158.523C146.794,-145.267 151.873,-127.147 158.5,-112 164.343,-98.6448 173.429,-84.4055 179.422,-75.604"/>
<polygon fill="midnightblue" stroke="midnightblue" points="140.134,-157.81 141.287,-168.342 146.953,-159.389 140.134,-157.81"/>
</g>
<!-- Node7&#45;&gt;Node8 -->
<g id="edge4" class="edge"><title>Node7&#45;&gt;Node8</title>
<path fill="none" stroke="midnightblue" d="M211.887,-105.253C202.733,-95.6731 192.961,-83.7906 187.876,-75.8339"/>
<polygon fill="midnightblue" stroke="midnightblue" points="209.437,-107.753 218.994,-112.324 214.373,-102.79 209.437,-107.753"/>
</g>
<!-- Node11 -->
<g id="node8" class="node"><title>Node11</title>
<g id="a_node8"><a xlink:href="EndState_8cpp.html" target="_top" xlink:title="Game/src/EndState.cpp">
<polygon fill="white" stroke="black" points="272.5,-56.5 272.5,-75.5 394.5,-75.5 394.5,-56.5 272.5,-56.5"/>
<text text-anchor="middle" x="333.5" y="-63.5" font-family="Helvetica,sans-Serif" font-size="10.00">Game/src/EndState.cpp</text>
</a>
</g>
</g>
<!-- Node7&#45;&gt;Node11 -->
<g id="edge8" class="edge"><title>Node7&#45;&gt;Node11</title>
<path fill="none" stroke="midnightblue" d="M256.831,-107.59C275.69,-97.6052 300.884,-84.2672 317.153,-75.6545"/>
<polygon fill="midnightblue" stroke="midnightblue" points="255.088,-104.552 247.888,-112.324 258.364,-110.738 255.088,-104.552"/>
</g>
<!-- Node8&#45;&gt;Node7 -->
<g id="edge5" class="edge"><title>Node8&#45;&gt;Node7</title>
<path fill="none" stroke="midnightblue" d="M205.432,-83.0813C214.462,-92.5688 224.031,-104.22 229.07,-112.083"/>
<polygon fill="midnightblue" stroke="midnightblue" points="207.637,-80.3366 198.086,-75.7511 202.693,-85.2919 207.637,-80.3366"/>
</g>
<!-- Node9 -->
<g id="node6" class="node"><title>Node9</title>
<g id="a_node6"><a xlink:href="StageState_8cpp.html" target="_top" xlink:title="Game/src/StageState.cpp">
<polygon fill="white" stroke="black" points="48.5,-0.5 48.5,-19.5 178.5,-19.5 178.5,-0.5 48.5,-0.5"/>
<text text-anchor="middle" x="113.5" y="-7.5" font-family="Helvetica,sans-Serif" font-size="10.00">Game/src/StageState.cpp</text>
</a>
</g>
</g>
<!-- Node8&#45;&gt;Node9 -->
<g id="edge6" class="edge"><title>Node8&#45;&gt;Node9</title>
<path fill="none" stroke="midnightblue" d="M165.634,-50.1008C152.677,-40.3824 136.203,-28.0269 125.279,-19.8339"/>
<polygon fill="midnightblue" stroke="midnightblue" points="163.832,-53.1239 173.932,-56.324 168.032,-47.5239 163.832,-53.1239"/>
</g>
<!-- Node10 -->
<g id="node7" class="node"><title>Node10</title>
<g id="a_node7"><a xlink:href="TitleState_8cpp.html" target="_top" xlink:title="Game/src/TitleState.cpp">
<polygon fill="white" stroke="black" points="197,-0.5 197,-19.5 320,-19.5 320,-0.5 197,-0.5"/>
<text text-anchor="middle" x="258.5" y="-7.5" font-family="Helvetica,sans-Serif" font-size="10.00">Game/src/TitleState.cpp</text>
</a>
</g>
</g>
<!-- Node8&#45;&gt;Node10 -->
<g id="edge7" class="edge"><title>Node8&#45;&gt;Node10</title>
<path fill="none" stroke="midnightblue" d="M205.642,-50.1008C218.779,-40.3824 235.482,-28.0269 246.558,-19.8339"/>
<polygon fill="midnightblue" stroke="midnightblue" points="203.187,-47.5631 197.229,-56.324 207.35,-53.1907 203.187,-47.5631"/>
</g>
<!-- Node12&#45;&gt;Node7 -->
<g id="edge12" class="edge"><title>Node12&#45;&gt;Node7</title>
<path fill="none" stroke="midnightblue" d="M259.483,-159.855C252.383,-150.505 243.896,-139.327 238.144,-131.751"/>
<polygon fill="midnightblue" stroke="midnightblue" points="256.895,-162.235 265.73,-168.083 262.47,-158.002 256.895,-162.235"/>
</g>
<!-- Node13 -->
<g id="node10" class="node"><title>Node13</title>
<g id="a_node10"><a xlink:href="Text_8cpp.html" target="_top" xlink:title="Engine/src/Text.cpp">
<polygon fill="white" stroke="black" points="313.5,-112.5 313.5,-131.5 417.5,-131.5 417.5,-112.5 313.5,-112.5"/>
<text text-anchor="middle" x="365.5" y="-119.5" font-family="Helvetica,sans-Serif" font-size="10.00">Engine/src/Text.cpp</text>
</a>
</g>
</g>
<!-- Node12&#45;&gt;Node13 -->
<g id="edge11" class="edge"><title>Node12&#45;&gt;Node13</title>
<path fill="none" stroke="midnightblue" d="M296.306,-163.177C313.419,-153.241 335.965,-140.149 350.595,-131.655"/>
<polygon fill="midnightblue" stroke="midnightblue" points="294.332,-160.276 287.442,-168.324 297.847,-166.329 294.332,-160.276"/>
</g>
</g>
</svg>
