<?xml version="1.0" encoding="UTF-8" standalone="no"?>
<!DOCTYPE svg PUBLIC "-//W3C//DTD SVG 1.1//EN"
 "http://www.w3.org/Graphics/SVG/1.1/DTD/svg11.dtd">
<!-- Generated by graphviz version 2.38.0 (20140413.2041)
 -->
<!-- Title: Game/include/Shooter.h Pages: 1 -->
<svg width="450pt" height="308pt"
 viewBox="0.00 0.00 450.00 308.00" xmlns="http://www.w3.org/2000/svg" xmlns:xlink="http://www.w3.org/1999/xlink">
<g id="graph0" class="graph" transform="scale(1 1) rotate(0) translate(4 304)">
<title>Game/include/Shooter.h</title>
<polygon fill="white" stroke="none" points="-4,4 -4,-304 446,-304 446,4 -4,4"/>
<!-- Node1 -->
<g id="node1" class="node"><title>Node1</title>
<polygon fill="#bfbfbf" stroke="black" points="123.5,-280.5 123.5,-299.5 245.5,-299.5 245.5,-280.5 123.5,-280.5"/>
<text text-anchor="middle" x="184.5" y="-287.5" font-family="Helvetica,sans-Serif" font-size="10.00">Game/include/Shooter.h</text>
</g>
<!-- Node2 -->
<g id="node2" class="node"><title>Node2</title>
<polygon fill="white" stroke="#bfbfbf" points="0,-112.5 0,-131.5 41,-131.5 41,-112.5 0,-112.5"/>
<text text-anchor="middle" x="20.5" y="-119.5" font-family="Helvetica,sans-Serif" font-size="10.00">string</text>
</g>
<!-- Node1&#45;&gt;Node2 -->
<g id="edge1" class="edge"><title>Node1&#45;&gt;Node2</title>
<path fill="none" stroke="midnightblue" d="M141.651,-280.46C118.391,-273.906 90.5755,-262.699 71.5,-244 42.4293,-215.502 29.0997,-167.886 23.6959,-141.689"/>
<polygon fill="midnightblue" stroke="midnightblue" points="27.0855,-140.776 21.7923,-131.598 20.2068,-142.074 27.0855,-140.776"/>
</g>
<!-- Node3 -->
<g id="node3" class="node"><title>Node3</title>
<g id="a_node3"><a xlink:href="Component_8h.html" target="_top" xlink:title="Component.h">
<polygon fill="white" stroke="black" points="81,-224.5 81,-243.5 156,-243.5 156,-224.5 81,-224.5"/>
<text text-anchor="middle" x="118.5" y="-231.5" font-family="Helvetica,sans-Serif" font-size="10.00">Component.h</text>
</a>
</g>
</g>
<!-- Node1&#45;&gt;Node3 -->
<g id="edge2" class="edge"><title>Node1&#45;&gt;Node3</title>
<path fill="none" stroke="midnightblue" d="M173.896,-280.324C164.044,-272.263 149.149,-260.077 137.285,-250.369"/>
<polygon fill="midnightblue" stroke="midnightblue" points="139.253,-247.457 129.297,-243.834 134.82,-252.875 139.253,-247.457"/>
</g>
<!-- Node5 -->
<g id="node5" class="node"><title>Node5</title>
<g id="a_node5"><a xlink:href="GameObject_8h.html" target="_top" xlink:title="GameObject.h">
<polygon fill="white" stroke="black" points="144.5,-168.5 144.5,-187.5 224.5,-187.5 224.5,-168.5 144.5,-168.5"/>
<text text-anchor="middle" x="184.5" y="-175.5" font-family="Helvetica,sans-Serif" font-size="10.00">GameObject.h</text>
</a>
</g>
</g>
<!-- Node1&#45;&gt;Node5 -->
<g id="edge16" class="edge"><title>Node1&#45;&gt;Node5</title>
<path fill="none" stroke="midnightblue" d="M184.5,-280.368C184.5,-262.617 184.5,-221.666 184.5,-197.597"/>
<polygon fill="midnightblue" stroke="midnightblue" points="188,-197.591 184.5,-187.591 181,-197.591 188,-197.591"/>
</g>
<!-- Node12 -->
<g id="node12" class="node"><title>Node12</title>
<g id="a_node12"><a xlink:href="NearestGOFinder_8h.html" target="_top" xlink:title="NearestGOFinder.h">
<polygon fill="white" stroke="black" points="213,-224.5 213,-243.5 314,-243.5 314,-224.5 213,-224.5"/>
<text text-anchor="middle" x="263.5" y="-231.5" font-family="Helvetica,sans-Serif" font-size="10.00">NearestGOFinder.h</text>
</a>
</g>
</g>
<!-- Node1&#45;&gt;Node12 -->
<g id="edge17" class="edge"><title>Node1&#45;&gt;Node12</title>
<path fill="none" stroke="midnightblue" d="M197.193,-280.324C209.401,-271.979 228.078,-259.212 242.503,-249.352"/>
<polygon fill="midnightblue" stroke="midnightblue" points="244.558,-252.187 250.839,-243.655 240.608,-246.408 244.558,-252.187"/>
</g>
<!-- Node14 -->
<g id="node14" class="node"><title>Node14</title>
<g id="a_node14"><a xlink:href="Timer_8h.html" target="_top" xlink:title="Timer.h">
<polygon fill="white" stroke="black" points="332.5,-224.5 332.5,-243.5 382.5,-243.5 382.5,-224.5 332.5,-224.5"/>
<text text-anchor="middle" x="357.5" y="-231.5" font-family="Helvetica,sans-Serif" font-size="10.00">Timer.h</text>
</a>
</g>
</g>
<!-- Node1&#45;&gt;Node14 -->
<g id="edge21" class="edge"><title>Node1&#45;&gt;Node14</title>
<path fill="none" stroke="midnightblue" d="M211.912,-280.444C241.96,-271.064 290.229,-255.998 322.872,-245.809"/>
<polygon fill="midnightblue" stroke="midnightblue" points="323.96,-249.136 332.463,-242.815 321.874,-242.454 323.96,-249.136"/>
</g>
<!-- Node4 -->
<g id="node4" class="node"><title>Node4</title>
<g id="a_node4"><a xlink:href="ComponentType_8h.html" target="_top" xlink:title="ComponentType.h">
<polygon fill="white" stroke="black" points="59,-112.5 59,-131.5 156,-131.5 156,-112.5 59,-112.5"/>
<text text-anchor="middle" x="107.5" y="-119.5" font-family="Helvetica,sans-Serif" font-size="10.00">ComponentType.h</text>
</a>
</g>
</g>
<!-- Node3&#45;&gt;Node4 -->
<g id="edge3" class="edge"><title>Node3&#45;&gt;Node4</title>
<path fill="none" stroke="midnightblue" d="M117.637,-224.368C115.862,-206.617 111.767,-165.666 109.36,-141.597"/>
<polygon fill="midnightblue" stroke="midnightblue" points="112.837,-141.193 108.359,-131.591 105.872,-141.89 112.837,-141.193"/>
</g>
<!-- Node3&#45;&gt;Node5 -->
<g id="edge4" class="edge"><title>Node3&#45;&gt;Node5</title>
<path fill="none" stroke="midnightblue" d="M124.232,-224.083C132.632,-215.777 147.649,-203.246 160.714,-193.502"/>
<polygon fill="midnightblue" stroke="midnightblue" points="162.869,-196.264 168.929,-187.573 158.772,-190.587 162.869,-196.264"/>
</g>
<!-- Node5&#45;&gt;Node2 -->
<g id="edge8" class="edge"><title>Node5&#45;&gt;Node2</title>
<path fill="none" stroke="midnightblue" d="M158.514,-168.444C129.301,-158.825 81.9204,-143.224 50.9833,-133.037"/>
<polygon fill="midnightblue" stroke="midnightblue" points="51.7651,-129.61 41.1721,-129.807 49.5758,-136.259 51.7651,-129.61"/>
</g>
<!-- Node5&#45;&gt;Node3 -->
<g id="edge9" class="edge"><title>Node5&#45;&gt;Node3</title>
<path fill="none" stroke="midnightblue" d="M178.852,-187.834C170.502,-196.106 155.515,-208.62 142.443,-218.38"/>
<polygon fill="midnightblue" stroke="midnightblue" points="140.274,-215.63 134.219,-224.324 144.374,-221.303 140.274,-215.63"/>
</g>
<!-- Node5&#45;&gt;Node4 -->
<g id="edge10" class="edge"><title>Node5&#45;&gt;Node4</title>
<path fill="none" stroke="midnightblue" d="M172.129,-168.324C160.342,-160.058 142.368,-147.453 128.364,-137.632"/>
<polygon fill="midnightblue" stroke="midnightblue" points="130.038,-134.531 119.841,-131.655 126.018,-140.262 130.038,-134.531"/>
</g>
<!-- Node6 -->
<g id="node6" class="node"><title>Node6</title>
<g id="a_node6"><a xlink:href="SDL__include_8h.html" target="_top" xlink:title="SDL_include.h">
<polygon fill="white" stroke="black" points="264.5,-0.5 264.5,-19.5 344.5,-19.5 344.5,-0.5 264.5,-0.5"/>
<text text-anchor="middle" x="304.5" y="-7.5" font-family="Helvetica,sans-Serif" font-size="10.00">SDL_include.h</text>
</a>
</g>
</g>
<!-- Node5&#45;&gt;Node6 -->
<g id="edge5" class="edge"><title>Node5&#45;&gt;Node6</title>
<path fill="none" stroke="midnightblue" d="M185.611,-168.461C187.591,-155.496 192.593,-130.409 203.5,-112 224.797,-76.0569 261.806,-43.6788 284.623,-25.7406"/>
<polygon fill="midnightblue" stroke="midnightblue" points="286.819,-28.4671 292.611,-19.5954 282.551,-22.9191 286.819,-28.4671"/>
</g>
<!-- Node7 -->
<g id="node7" class="node"><title>Node7</title>
<polygon fill="white" stroke="#bfbfbf" points="212.5,-112.5 212.5,-131.5 256.5,-131.5 256.5,-112.5 212.5,-112.5"/>
<text text-anchor="middle" x="234.5" y="-119.5" font-family="Helvetica,sans-Serif" font-size="10.00">vector</text>
</g>
<!-- Node5&#45;&gt;Node7 -->
<g id="edge6" class="edge"><title>Node5&#45;&gt;Node7</title>
<path fill="none" stroke="midnightblue" d="M192.756,-168.083C199.965,-160.298 210.61,-148.801 219.346,-139.367"/>
<polygon fill="midnightblue" stroke="midnightblue" points="222.171,-141.467 226.397,-131.751 217.035,-136.711 222.171,-141.467"/>
</g>
<!-- Node8 -->
<g id="node8" class="node"><title>Node8</title>
<polygon fill="white" stroke="#bfbfbf" points="274.5,-112.5 274.5,-131.5 326.5,-131.5 326.5,-112.5 274.5,-112.5"/>
<text text-anchor="middle" x="300.5" y="-119.5" font-family="Helvetica,sans-Serif" font-size="10.00">memory</text>
</g>
<!-- Node5&#45;&gt;Node8 -->
<g id="edge7" class="edge"><title>Node5&#45;&gt;Node8</title>
<path fill="none" stroke="midnightblue" d="M202.881,-168.444C221.716,-159.675 251.231,-145.935 272.879,-135.858"/>
<polygon fill="midnightblue" stroke="midnightblue" points="274.617,-138.91 282.205,-131.516 271.662,-132.564 274.617,-138.91"/>
</g>
<!-- Node9 -->
<g id="node9" class="node"><title>Node9</title>
<g id="a_node9"><a xlink:href="Rect_8h.html" target="_top" xlink:title="Rect.h">
<polygon fill="white" stroke="black" points="344.5,-112.5 344.5,-131.5 390.5,-131.5 390.5,-112.5 344.5,-112.5"/>
<text text-anchor="middle" x="367.5" y="-119.5" font-family="Helvetica,sans-Serif" font-size="10.00">Rect.h</text>
</a>
</g>
</g>
<!-- Node5&#45;&gt;Node9 -->
<g id="edge11" class="edge"><title>Node5&#45;&gt;Node9</title>
<path fill="none" stroke="midnightblue" d="M213.497,-168.444C246.519,-158.699 300.347,-142.816 334.826,-132.641"/>
<polygon fill="midnightblue" stroke="midnightblue" points="335.832,-135.994 344.433,-129.807 333.851,-129.28 335.832,-135.994"/>
</g>
<!-- Node9&#45;&gt;Node6 -->
<g id="edge12" class="edge"><title>Node9&#45;&gt;Node6</title>
<path fill="none" stroke="midnightblue" d="M356.157,-112.179C346.193,-103.859 331.996,-90.5244 323.5,-76 315.06,-61.5704 310.134,-43.1178 307.422,-29.5626"/>
<polygon fill="midnightblue" stroke="midnightblue" points="310.834,-28.7564 305.637,-19.5238 303.942,-29.9822 310.834,-28.7564"/>
</g>
<!-- Node10 -->
<g id="node10" class="node"><title>Node10</title>
<g id="a_node10"><a xlink:href="Vec2_8h.html" target="_top" xlink:title="Vec2.h">
<polygon fill="white" stroke="black" points="395,-56.5 395,-75.5 442,-75.5 442,-56.5 395,-56.5"/>
<text text-anchor="middle" x="418.5" y="-63.5" font-family="Helvetica,sans-Serif" font-size="10.00">Vec2.h</text>
</a>
</g>
</g>
<!-- Node9&#45;&gt;Node10 -->
<g id="edge13" class="edge"><title>Node9&#45;&gt;Node10</title>
<path fill="none" stroke="midnightblue" d="M375.922,-112.083C383.348,-104.22 394.352,-92.5688 403.312,-83.0813"/>
<polygon fill="midnightblue" stroke="midnightblue" points="405.913,-85.4244 410.235,-75.7511 400.824,-80.618 405.913,-85.4244"/>
</g>
<!-- Node11 -->
<g id="node11" class="node"><title>Node11</title>
<polygon fill="white" stroke="#bfbfbf" points="332.5,-56.5 332.5,-75.5 376.5,-75.5 376.5,-56.5 332.5,-56.5"/>
<text text-anchor="middle" x="354.5" y="-63.5" font-family="Helvetica,sans-Serif" font-size="10.00">cmath</text>
</g>
<!-- Node9&#45;&gt;Node11 -->
<g id="edge15" class="edge"><title>Node9&#45;&gt;Node11</title>
<path fill="none" stroke="midnightblue" d="M365.353,-112.083C363.631,-104.927 361.153,-94.6353 359,-85.6911"/>
<polygon fill="midnightblue" stroke="midnightblue" points="362.35,-84.6541 356.607,-75.7511 355.545,-86.2925 362.35,-84.6541"/>
</g>
<!-- Node10&#45;&gt;Node6 -->
<g id="edge14" class="edge"><title>Node10&#45;&gt;Node6</title>
<path fill="none" stroke="midnightblue" d="M400.436,-56.4435C381.925,-47.6751 352.919,-33.9355 331.645,-23.8579"/>
<polygon fill="midnightblue" stroke="midnightblue" points="333.015,-20.6343 322.479,-19.5164 330.018,-26.9604 333.015,-20.6343"/>
</g>
<!-- Node12&#45;&gt;Node5 -->
<g id="edge20" class="edge"><title>Node12&#45;&gt;Node5</title>
<path fill="none" stroke="midnightblue" d="M250.807,-224.324C238.599,-215.979 219.922,-203.212 205.497,-193.352"/>
<polygon fill="midnightblue" stroke="midnightblue" points="207.392,-190.408 197.161,-187.655 203.442,-196.187 207.392,-190.408"/>
</g>
<!-- Node12&#45;&gt;Node10 -->
<g id="edge19" class="edge"><title>Node12&#45;&gt;Node10</title>
<path fill="none" stroke="midnightblue" d="M281.907,-224.306C311.232,-209.513 368.411,-176.652 399.5,-132 409.052,-118.281 413.855,-99.7495 416.237,-85.9838"/>
<polygon fill="midnightblue" stroke="midnightblue" points="419.749,-86.1505 417.72,-75.7518 412.822,-85.1463 419.749,-86.1505"/>
</g>
<!-- Node13 -->
<g id="node13" class="node"><title>Node13</title>
<polygon fill="white" stroke="#bfbfbf" points="243.5,-168.5 243.5,-187.5 283.5,-187.5 283.5,-168.5 243.5,-168.5"/>
<text text-anchor="middle" x="263.5" y="-175.5" font-family="Helvetica,sans-Serif" font-size="10.00">limits</text>
</g>
<!-- Node12&#45;&gt;Node13 -->
<g id="edge18" class="edge"><title>Node12&#45;&gt;Node13</title>
<path fill="none" stroke="midnightblue" d="M263.5,-224.083C263.5,-217.006 263.5,-206.861 263.5,-197.986"/>
<polygon fill="midnightblue" stroke="midnightblue" points="267,-197.751 263.5,-187.751 260,-197.751 267,-197.751"/>
</g>
</g>
</svg>
