<?xml version="1.0" encoding="UTF-8" standalone="no"?>
<!DOCTYPE svg PUBLIC "-//W3C//DTD SVG 1.1//EN"
 "http://www.w3.org/Graphics/SVG/1.1/DTD/svg11.dtd">
<!-- Generated by graphviz version 2.36.0 (20140111.2315)
 -->
<!-- Title: Engine/include/Sprite.h Pages: 1 -->
<svg width="1539pt" height="308pt"
 viewBox="0.00 0.00 1539.00 308.00" xmlns="http://www.w3.org/2000/svg" xmlns:xlink="http://www.w3.org/1999/xlink">
<g id="graph0" class="graph" transform="scale(1 1) rotate(0) translate(4 304)">
<title>Engine/include/Sprite.h</title>
<polygon fill="white" stroke="none" points="-4,4 -4,-304 1535,-304 1535,4 -4,4"/>
<!-- Node1 -->
<g id="node1" class="node"><title>Node1</title>
<polygon fill="#bfbfbf" stroke="black" points="631.5,-280.5 631.5,-299.5 748.5,-299.5 748.5,-280.5 631.5,-280.5"/>
<text text-anchor="middle" x="690" y="-287.5" font-family="Helvetica,sans-Serif" font-size="10.00">Engine/include/Sprite.h</text>
</g>
<!-- Node2 -->
<g id="node2" class="node"><title>Node2</title>
<g id="a_node2"><a xlink:href="Animation_8h.html" target="_top" xlink:title="Engine/include/Animation.h">
<polygon fill="white" stroke="black" points="897.5,-224.5 897.5,-243.5 1032.5,-243.5 1032.5,-224.5 897.5,-224.5"/>
<text text-anchor="middle" x="965" y="-231.5" font-family="Helvetica,sans-Serif" font-size="10.00">Engine/include/Animation.h</text>
</a>
</g>
</g>
<!-- Node1&#45;&gt;Node2 -->
<g id="edge1" class="edge"><title>Node1&#45;&gt;Node2</title>
<path fill="none" stroke="midnightblue" d="M743.608,-278.473C795.581,-268.268 873.438,-252.979 921.629,-243.516"/>
<polygon fill="midnightblue" stroke="midnightblue" points="742.713,-275.082 733.575,-280.444 744.062,-281.951 742.713,-275.082"/>
</g>
<!-- Node6 -->
<g id="node6" class="node"><title>Node6</title>
<g id="a_node6"><a xlink:href="Tileset_8h.html" target="_top" xlink:title="Engine/include/Tileset.h">
<polygon fill="white" stroke="black" points="402.5,-224.5 402.5,-243.5 523.5,-243.5 523.5,-224.5 402.5,-224.5"/>
<text text-anchor="middle" x="463" y="-231.5" font-family="Helvetica,sans-Serif" font-size="10.00">Engine/include/Tileset.h</text>
</a>
</g>
</g>
<!-- Node1&#45;&gt;Node6 -->
<g id="edge5" class="edge"><title>Node1&#45;&gt;Node6</title>
<path fill="none" stroke="midnightblue" d="M644.131,-278.088C601.245,-267.887 538.083,-252.861 498.801,-243.516"/>
<polygon fill="midnightblue" stroke="midnightblue" points="643.493,-281.534 654.031,-280.444 645.113,-274.724 643.493,-281.534"/>
</g>
<!-- Node12 -->
<g id="node12" class="node"><title>Node12</title>
<g id="a_node12"><a xlink:href="StageState_8h.html" target="_top" xlink:title="Game/include/StageState.h">
<polygon fill="white" stroke="black" points="472.5,-112.5 472.5,-131.5 609.5,-131.5 609.5,-112.5 472.5,-112.5"/>
<text text-anchor="middle" x="541" y="-119.5" font-family="Helvetica,sans-Serif" font-size="10.00">Game/include/StageState.h</text>
</a>
</g>
</g>
<!-- Node1&#45;&gt;Node12 -->
<g id="edge35" class="edge"><title>Node1&#45;&gt;Node12</title>
<path fill="none" stroke="midnightblue" d="M663.317,-275.744C649.094,-267.824 631.916,-256.817 619,-244 582.809,-208.086 554.767,-152.574 544.868,-131.504"/>
<polygon fill="midnightblue" stroke="midnightblue" points="661.697,-278.846 672.163,-280.49 665.006,-272.678 661.697,-278.846"/>
</g>
<!-- Node13 -->
<g id="node13" class="node"><title>Node13</title>
<g id="a_node13"><a xlink:href="EndState_8h.html" target="_top" xlink:title="Game/include/EndState.h">
<polygon fill="white" stroke="black" points="441,-56.5 441,-75.5 569,-75.5 569,-56.5 441,-56.5"/>
<text text-anchor="middle" x="505" y="-63.5" font-family="Helvetica,sans-Serif" font-size="10.00">Game/include/EndState.h</text>
</a>
</g>
</g>
<!-- Node1&#45;&gt;Node13 -->
<g id="edge34" class="edge"><title>Node1&#45;&gt;Node13</title>
<path fill="none" stroke="midnightblue" d="M621.13,-286.41C522.503,-281.837 346.577,-270.212 289,-244 230.627,-217.425 213.613,-194.208 198,-132 195.836,-123.379 192.188,-118.726 198,-112 228.73,-76.4376 360.209,-68.4482 440.809,-66.9656"/>
<polygon fill="midnightblue" stroke="midnightblue" points="621.154,-289.915 631.302,-286.87 621.47,-282.922 621.154,-289.915"/>
</g>
<!-- Node17 -->
<g id="node17" class="node"><title>Node17</title>
<g id="a_node17"><a xlink:href="Face_8h.html" target="_top" xlink:title="Game/include/Face.h">
<polygon fill="white" stroke="black" points="207,-112.5 207,-131.5 317,-131.5 317,-112.5 207,-112.5"/>
<text text-anchor="middle" x="262" y="-119.5" font-family="Helvetica,sans-Serif" font-size="10.00">Game/include/Face.h</text>
</a>
</g>
</g>
<!-- Node1&#45;&gt;Node17 -->
<g id="edge36" class="edge"><title>Node1&#45;&gt;Node17</title>
<path fill="none" stroke="midnightblue" d="M621.21,-284.619C505.416,-275.576 279.866,-250.219 236,-188 223.254,-169.921 241.772,-144.695 253.543,-131.622"/>
<polygon fill="midnightblue" stroke="midnightblue" points="621.149,-288.124 631.386,-285.394 621.681,-281.144 621.149,-288.124"/>
</g>
<!-- Node19 -->
<g id="node19" class="node"><title>Node19</title>
<g id="a_node19"><a xlink:href="Sprite_8cpp.html" target="_top" xlink:title="Engine/src/Sprite.cpp">
<polygon fill="white" stroke="black" points="635,-224.5 635,-243.5 745,-243.5 745,-224.5 635,-224.5"/>
<text text-anchor="middle" x="690" y="-231.5" font-family="Helvetica,sans-Serif" font-size="10.00">Engine/src/Sprite.cpp</text>
</a>
</g>
</g>
<!-- Node1&#45;&gt;Node19 -->
<g id="edge22" class="edge"><title>Node1&#45;&gt;Node19</title>
<path fill="none" stroke="midnightblue" d="M690,-269.805C690,-260.91 690,-250.78 690,-243.751"/>
<polygon fill="midnightblue" stroke="midnightblue" points="686.5,-270.083 690,-280.083 693.5,-270.083 686.5,-270.083"/>
</g>
<!-- Node20 -->
<g id="node20" class="node"><title>Node20</title>
<g id="a_node20"><a xlink:href="Minion_8h.html" target="_top" xlink:title="Game/include/Minion.h">
<polygon fill="white" stroke="black" points="763,-224.5 763,-243.5 879,-243.5 879,-224.5 763,-224.5"/>
<text text-anchor="middle" x="821" y="-231.5" font-family="Helvetica,sans-Serif" font-size="10.00">Game/include/Minion.h</text>
</a>
</g>
</g>
<!-- Node1&#45;&gt;Node20 -->
<g id="edge23" class="edge"><title>Node1&#45;&gt;Node20</title>
<path fill="none" stroke="midnightblue" d="M720.317,-276.503C744.876,-266.38 778.818,-252.388 800.34,-243.516"/>
<polygon fill="midnightblue" stroke="midnightblue" points="718.669,-273.397 710.757,-280.444 721.337,-279.868 718.669,-273.397"/>
</g>
<!-- Node21 -->
<g id="node21" class="node"><title>Node21</title>
<g id="a_node21"><a xlink:href="Alien_8h.html" target="_top" xlink:title="Game/include/Alien.h">
<polygon fill="white" stroke="black" points="597,-168.5 597,-187.5 707,-187.5 707,-168.5 597,-168.5"/>
<text text-anchor="middle" x="652" y="-175.5" font-family="Helvetica,sans-Serif" font-size="10.00">Game/include/Alien.h</text>
</a>
</g>
</g>
<!-- Node1&#45;&gt;Node21 -->
<g id="edge28" class="edge"><title>Node1&#45;&gt;Node21</title>
<path fill="none" stroke="midnightblue" d="M659.447,-275.559C646.671,-268.217 633.153,-257.774 626,-244 615.917,-224.585 632.867,-200.337 643.82,-187.651"/>
<polygon fill="midnightblue" stroke="midnightblue" points="658.042,-278.775 668.517,-280.36 661.317,-272.588 658.042,-278.775"/>
</g>
<!-- Node23 -->
<g id="node23" class="node"><title>Node23</title>
<g id="a_node23"><a xlink:href="Bullet_8h.html" target="_top" xlink:title="Game/include/Bullet.h">
<polygon fill="white" stroke="black" points="1050.5,-224.5 1050.5,-243.5 1163.5,-243.5 1163.5,-224.5 1050.5,-224.5"/>
<text text-anchor="middle" x="1107" y="-231.5" font-family="Helvetica,sans-Serif" font-size="10.00">Game/include/Bullet.h</text>
</a>
</g>
</g>
<!-- Node1&#45;&gt;Node23 -->
<g id="edge29" class="edge"><title>Node1&#45;&gt;Node23</title>
<path fill="none" stroke="midnightblue" d="M758.835,-280.341C829.62,-271.397 943.039,-256.958 1041,-244 1044.1,-243.591 1047.27,-243.167 1050.48,-242.738"/>
<polygon fill="midnightblue" stroke="midnightblue" points="758.19,-276.894 748.708,-281.619 759.067,-283.839 758.19,-276.894"/>
</g>
<!-- Node25 -->
<g id="node25" class="node"><title>Node25</title>
<g id="a_node25"><a xlink:href="Penguins_8h.html" target="_top" xlink:title="Game/include/Penguins.h">
<polygon fill="white" stroke="black" points="1219,-224.5 1219,-243.5 1347,-243.5 1347,-224.5 1219,-224.5"/>
<text text-anchor="middle" x="1283" y="-231.5" font-family="Helvetica,sans-Serif" font-size="10.00">Game/include/Penguins.h</text>
</a>
</g>
</g>
<!-- Node1&#45;&gt;Node25 -->
<g id="edge37" class="edge"><title>Node1&#45;&gt;Node25</title>
<path fill="none" stroke="midnightblue" d="M758.907,-282.725C874.612,-272.189 1106.3,-251.091 1218.78,-240.848"/>
<polygon fill="midnightblue" stroke="midnightblue" points="758.396,-279.257 748.754,-283.65 759.031,-286.228 758.396,-279.257"/>
</g>
<!-- Node26 -->
<g id="node26" class="node"><title>Node26</title>
<g id="a_node26"><a xlink:href="TitleState_8h.html" target="_top" xlink:title="Game/include/TitleState.h">
<polygon fill="white" stroke="black" points="1401,-224.5 1401,-243.5 1531,-243.5 1531,-224.5 1401,-224.5"/>
<text text-anchor="middle" x="1466" y="-231.5" font-family="Helvetica,sans-Serif" font-size="10.00">Game/include/TitleState.h</text>
</a>
</g>
</g>
<!-- Node1&#45;&gt;Node26 -->
<g id="edge41" class="edge"><title>Node1&#45;&gt;Node26</title>
<path fill="none" stroke="midnightblue" d="M759.043,-284.658C880.014,-276.979 1138.15,-260.271 1356,-244 1370.52,-242.915 1386.12,-241.682 1400.87,-240.483"/>
<polygon fill="midnightblue" stroke="midnightblue" points="758.578,-281.181 748.819,-285.307 759.021,-288.167 758.578,-281.181"/>
</g>
<!-- Node3 -->
<g id="node3" class="node"><title>Node3</title>
<g id="a_node3"><a xlink:href="Animation_8cpp.html" target="_top" xlink:title="Engine/src/Animation.cpp">
<polygon fill="white" stroke="black" points="725,-168.5 725,-187.5 853,-187.5 853,-168.5 725,-168.5"/>
<text text-anchor="middle" x="789" y="-175.5" font-family="Helvetica,sans-Serif" font-size="10.00">Engine/src/Animation.cpp</text>
</a>
</g>
</g>
<!-- Node2&#45;&gt;Node3 -->
<g id="edge2" class="edge"><title>Node2&#45;&gt;Node3</title>
<path fill="none" stroke="midnightblue" d="M927.311,-221.436C894.128,-211.255 846.572,-196.664 816.757,-187.516"/>
<polygon fill="midnightblue" stroke="midnightblue" points="926.525,-224.856 937.112,-224.444 928.579,-218.164 926.525,-224.856"/>
</g>
<!-- Node4 -->
<g id="node4" class="node"><title>Node4</title>
<g id="a_node4"><a xlink:href="Alien_8cpp.html" target="_top" xlink:title="Game/src/Alien.cpp">
<polygon fill="white" stroke="black" points="982.5,-112.5 982.5,-131.5 1085.5,-131.5 1085.5,-112.5 982.5,-112.5"/>
<text text-anchor="middle" x="1034" y="-119.5" font-family="Helvetica,sans-Serif" font-size="10.00">Game/src/Alien.cpp</text>
</a>
</g>
</g>
<!-- Node2&#45;&gt;Node4 -->
<g id="edge3" class="edge"><title>Node2&#45;&gt;Node4</title>
<path fill="none" stroke="midnightblue" d="M935.657,-219.887C912.258,-207.547 885.606,-188.018 900,-168 918.697,-141.999 953.153,-130.813 982.443,-126.094"/>
<polygon fill="midnightblue" stroke="midnightblue" points="934.189,-223.067 944.699,-224.406 937.318,-216.805 934.189,-223.067"/>
</g>
<!-- Node5 -->
<g id="node5" class="node"><title>Node5</title>
<g id="a_node5"><a xlink:href="Penguins_8cpp.html" target="_top" xlink:title="Game/src/Penguins.cpp">
<polygon fill="white" stroke="black" points="1037,-168.5 1037,-187.5 1159,-187.5 1159,-168.5 1037,-168.5"/>
<text text-anchor="middle" x="1098" y="-175.5" font-family="Helvetica,sans-Serif" font-size="10.00">Game/src/Penguins.cpp</text>
</a>
</g>
</g>
<!-- Node2&#45;&gt;Node5 -->
<g id="edge4" class="edge"><title>Node2&#45;&gt;Node5</title>
<path fill="none" stroke="midnightblue" d="M995.448,-220.638C1020.41,-210.504 1055.08,-196.427 1077.02,-187.516"/>
<polygon fill="midnightblue" stroke="midnightblue" points="994.023,-217.439 986.074,-224.444 996.656,-223.924 994.023,-217.439"/>
</g>
<!-- Node7 -->
<g id="node7" class="node"><title>Node7</title>
<g id="a_node7"><a xlink:href="TileMap_8h.html" target="_top" xlink:title="Engine/include/TileMap.h">
<polygon fill="white" stroke="black" points="245,-168.5 245,-187.5 371,-187.5 371,-168.5 245,-168.5"/>
<text text-anchor="middle" x="308" y="-175.5" font-family="Helvetica,sans-Serif" font-size="10.00">Engine/include/TileMap.h</text>
</a>
</g>
</g>
<!-- Node6&#45;&gt;Node7 -->
<g id="edge6" class="edge"><title>Node6&#45;&gt;Node7</title>
<path fill="none" stroke="midnightblue" d="M428.668,-221.039C399.503,-210.879 358.363,-196.546 332.445,-187.516"/>
<polygon fill="midnightblue" stroke="midnightblue" points="427.845,-224.459 438.44,-224.444 430.148,-217.848 427.845,-224.459"/>
</g>
<!-- Node6&#45;&gt;Node12 -->
<g id="edge21" class="edge"><title>Node6&#45;&gt;Node12</title>
<path fill="none" stroke="midnightblue" d="M482.78,-218.051C492.508,-209.956 503.86,-199.311 512,-188 525.136,-169.746 534.252,-144.594 538.424,-131.578"/>
<polygon fill="midnightblue" stroke="midnightblue" points="480.392,-215.479 474.771,-224.46 484.766,-220.944 480.392,-215.479"/>
</g>
<!-- Node18 -->
<g id="node18" class="node"><title>Node18</title>
<g id="a_node18"><a xlink:href="Tileset_8cpp.html" target="_top" xlink:title="Engine/src/Tileset.cpp">
<polygon fill="white" stroke="black" points="389,-168.5 389,-187.5 503,-187.5 503,-168.5 389,-168.5"/>
<text text-anchor="middle" x="446" y="-175.5" font-family="Helvetica,sans-Serif" font-size="10.00">Engine/src/Tileset.cpp</text>
</a>
</g>
</g>
<!-- Node6&#45;&gt;Node18 -->
<g id="edge20" class="edge"><title>Node6&#45;&gt;Node18</title>
<path fill="none" stroke="midnightblue" d="M457.143,-214.396C454.299,-205.362 451.017,-194.936 448.755,-187.751"/>
<polygon fill="midnightblue" stroke="midnightblue" points="453.851,-215.596 460.193,-224.083 460.528,-213.493 453.851,-215.596"/>
</g>
<!-- Node8 -->
<g id="node8" class="node"><title>Node8</title>
<g id="a_node8"><a xlink:href="DragAndDrop_8h.html" target="_top" xlink:title="Engine/include/DragAndDrop.h">
<polygon fill="white" stroke="black" points="-0.5,-112.5 -0.5,-131.5 150.5,-131.5 150.5,-112.5 -0.5,-112.5"/>
<text text-anchor="middle" x="75" y="-119.5" font-family="Helvetica,sans-Serif" font-size="10.00">Engine/include/DragAndDrop.h</text>
</a>
</g>
</g>
<!-- Node7&#45;&gt;Node8 -->
<g id="edge7" class="edge"><title>Node7&#45;&gt;Node8</title>
<path fill="none" stroke="midnightblue" d="M261.197,-166.153C217.173,-155.95 152.153,-140.881 111.747,-131.516"/>
<polygon fill="midnightblue" stroke="midnightblue" points="260.548,-169.595 271.08,-168.444 262.129,-162.776 260.548,-169.595"/>
</g>
<!-- Node11 -->
<g id="node11" class="node"><title>Node11</title>
<g id="a_node11"><a xlink:href="TileMap_8cpp.html" target="_top" xlink:title="Engine/src/TileMap.cpp">
<polygon fill="white" stroke="black" points="335.5,-112.5 335.5,-131.5 454.5,-131.5 454.5,-112.5 335.5,-112.5"/>
<text text-anchor="middle" x="395" y="-119.5" font-family="Helvetica,sans-Serif" font-size="10.00">Engine/src/TileMap.cpp</text>
</a>
</g>
</g>
<!-- Node7&#45;&gt;Node11 -->
<g id="edge10" class="edge"><title>Node7&#45;&gt;Node11</title>
<path fill="none" stroke="midnightblue" d="M330.716,-162.901C346.669,-152.999 367.497,-140.071 381.057,-131.655"/>
<polygon fill="midnightblue" stroke="midnightblue" points="328.629,-160.077 321.978,-168.324 332.32,-166.024 328.629,-160.077"/>
</g>
<!-- Node7&#45;&gt;Node12 -->
<g id="edge11" class="edge"><title>Node7&#45;&gt;Node12</title>
<path fill="none" stroke="midnightblue" d="M354.803,-166.153C398.827,-155.95 463.847,-140.881 504.253,-131.516"/>
<polygon fill="midnightblue" stroke="midnightblue" points="353.871,-162.776 344.92,-168.444 355.452,-169.595 353.871,-162.776"/>
</g>
<!-- Node7&#45;&gt;Node17 -->
<g id="edge17" class="edge"><title>Node7&#45;&gt;Node17</title>
<path fill="none" stroke="midnightblue" d="M293.886,-160.431C285.824,-150.967 276.041,-139.483 269.455,-131.751"/>
<polygon fill="midnightblue" stroke="midnightblue" points="291.255,-162.74 300.404,-168.083 296.584,-158.201 291.255,-162.74"/>
</g>
<!-- Node9 -->
<g id="node9" class="node"><title>Node9</title>
<g id="a_node9"><a xlink:href="DragAndDrop_8cpp.html" target="_top" xlink:title="Engine/src/DragAndDrop.cpp">
<polygon fill="white" stroke="black" points="3,-56.5 3,-75.5 147,-75.5 147,-56.5 3,-56.5"/>
<text text-anchor="middle" x="75" y="-63.5" font-family="Helvetica,sans-Serif" font-size="10.00">Engine/src/DragAndDrop.cpp</text>
</a>
</g>
</g>
<!-- Node8&#45;&gt;Node9 -->
<g id="edge8" class="edge"><title>Node8&#45;&gt;Node9</title>
<path fill="none" stroke="midnightblue" d="M75,-101.805C75,-92.9102 75,-82.7798 75,-75.7511"/>
<polygon fill="midnightblue" stroke="midnightblue" points="71.5001,-102.083 75,-112.083 78.5001,-102.083 71.5001,-102.083"/>
</g>
<!-- Node10 -->
<g id="node10" class="node"><title>Node10</title>
<g id="a_node10"><a xlink:href="Face_8cpp.html" target="_top" xlink:title="Game/src/Face.cpp">
<polygon fill="white" stroke="black" points="188.5,-56.5 188.5,-75.5 291.5,-75.5 291.5,-56.5 188.5,-56.5"/>
<text text-anchor="middle" x="240" y="-63.5" font-family="Helvetica,sans-Serif" font-size="10.00">Game/src/Face.cpp</text>
</a>
</g>
</g>
<!-- Node8&#45;&gt;Node10 -->
<g id="edge9" class="edge"><title>Node8&#45;&gt;Node10</title>
<path fill="none" stroke="midnightblue" d="M110.736,-109.304C141.827,-99.1294 186.147,-84.6246 213.978,-75.5164"/>
<polygon fill="midnightblue" stroke="midnightblue" points="109.56,-106.007 101.145,-112.444 111.737,-112.659 109.56,-106.007"/>
</g>
<!-- Node12&#45;&gt;Node13 -->
<g id="edge12" class="edge"><title>Node12&#45;&gt;Node13</title>
<path fill="none" stroke="midnightblue" d="M523.455,-104.144C516.324,-94.7357 509.162,-83.4046 505.703,-75.7511"/>
<polygon fill="midnightblue" stroke="midnightblue" points="520.874,-106.517 529.889,-112.083 526.312,-102.11 520.874,-106.517"/>
</g>
<!-- Node15 -->
<g id="node15" class="node"><title>Node15</title>
<g id="a_node15"><a xlink:href="StageState_8cpp.html" target="_top" xlink:title="Game/src/StageState.cpp">
<polygon fill="white" stroke="black" points="587,-56.5 587,-75.5 717,-75.5 717,-56.5 587,-56.5"/>
<text text-anchor="middle" x="652" y="-63.5" font-family="Helvetica,sans-Serif" font-size="10.00">Game/src/StageState.cpp</text>
</a>
</g>
</g>
<!-- Node12&#45;&gt;Node15 -->
<g id="edge15" class="edge"><title>Node12&#45;&gt;Node15</title>
<path fill="none" stroke="midnightblue" d="M568.005,-107.862C588.588,-97.8492 616.345,-84.3458 634.21,-75.6545"/>
<polygon fill="midnightblue" stroke="midnightblue" points="566.295,-104.802 558.834,-112.324 569.358,-111.097 566.295,-104.802"/>
</g>
<!-- Node16 -->
<g id="node16" class="node"><title>Node16</title>
<g id="a_node16"><a xlink:href="TitleState_8cpp.html" target="_top" xlink:title="Game/src/TitleState.cpp">
<polygon fill="white" stroke="black" points="1109.5,-56.5 1109.5,-75.5 1232.5,-75.5 1232.5,-56.5 1109.5,-56.5"/>
<text text-anchor="middle" x="1171" y="-63.5" font-family="Helvetica,sans-Serif" font-size="10.00">Game/src/TitleState.cpp</text>
</a>
</g>
</g>
<!-- Node12&#45;&gt;Node16 -->
<g id="edge16" class="edge"><title>Node12&#45;&gt;Node16</title>
<path fill="none" stroke="midnightblue" d="M619.671,-114.257C746.711,-103.368 994.395,-82.1376 1109.48,-72.2729"/>
<polygon fill="midnightblue" stroke="midnightblue" points="619.285,-110.777 609.62,-115.118 619.883,-117.751 619.285,-110.777"/>
</g>
<!-- Node13&#45;&gt;Node12 -->
<g id="edge13" class="edge"><title>Node13&#45;&gt;Node12</title>
<path fill="none" stroke="midnightblue" d="M522.391,-83.6531C529.522,-93.0333 536.71,-104.377 540.222,-112.083"/>
<polygon fill="midnightblue" stroke="midnightblue" points="524.99,-81.3015 515.965,-75.7511 519.559,-85.7179 524.99,-81.3015"/>
</g>
<!-- Node14 -->
<g id="node14" class="node"><title>Node14</title>
<g id="a_node14"><a xlink:href="EndState_8cpp.html" target="_top" xlink:title="Game/src/EndState.cpp">
<polygon fill="white" stroke="black" points="444,-0.5 444,-19.5 566,-19.5 566,-0.5 444,-0.5"/>
<text text-anchor="middle" x="505" y="-7.5" font-family="Helvetica,sans-Serif" font-size="10.00">Game/src/EndState.cpp</text>
</a>
</g>
</g>
<!-- Node13&#45;&gt;Node14 -->
<g id="edge14" class="edge"><title>Node13&#45;&gt;Node14</title>
<path fill="none" stroke="midnightblue" d="M505,-45.8045C505,-36.9102 505,-26.7798 505,-19.7511"/>
<polygon fill="midnightblue" stroke="midnightblue" points="501.5,-46.083 505,-56.083 508.5,-46.083 501.5,-46.083"/>
</g>
<!-- Node17&#45;&gt;Node10 -->
<g id="edge18" class="edge"><title>Node17&#45;&gt;Node10</title>
<path fill="none" stroke="midnightblue" d="M254.54,-102.69C250.833,-93.589 246.524,-83.0141 243.565,-75.7511"/>
<polygon fill="midnightblue" stroke="midnightblue" points="251.353,-104.143 258.367,-112.083 257.835,-101.502 251.353,-104.143"/>
</g>
<!-- Node17&#45;&gt;Node15 -->
<g id="edge19" class="edge"><title>Node17&#45;&gt;Node15</title>
<path fill="none" stroke="midnightblue" d="M327.2,-111.835C424.832,-98.2408 526.374,-84.2552 589.801,-75.538"/>
<polygon fill="midnightblue" stroke="midnightblue" points="326.578,-108.388 317.157,-113.235 327.544,-115.321 326.578,-108.388"/>
</g>
<!-- Node20&#45;&gt;Node21 -->
<g id="edge24" class="edge"><title>Node20&#45;&gt;Node21</title>
<path fill="none" stroke="midnightblue" d="M784.397,-221.304C752.553,-211.129 707.158,-196.625 678.653,-187.516"/>
<polygon fill="midnightblue" stroke="midnightblue" points="783.631,-224.734 794.221,-224.444 785.761,-218.066 783.631,-224.734"/>
</g>
<!-- Node22 -->
<g id="node22" class="node"><title>Node22</title>
<g id="a_node22"><a xlink:href="Minion_8cpp.html" target="_top" xlink:title="Game/src/Minion.cpp">
<polygon fill="white" stroke="black" points="909,-168.5 909,-187.5 1019,-187.5 1019,-168.5 909,-168.5"/>
<text text-anchor="middle" x="964" y="-175.5" font-family="Helvetica,sans-Serif" font-size="10.00">Game/src/Minion.cpp</text>
</a>
</g>
</g>
<!-- Node20&#45;&gt;Node22 -->
<g id="edge27" class="edge"><title>Node20&#45;&gt;Node22</title>
<path fill="none" stroke="midnightblue" d="M853.027,-220.906C879.912,-210.754 917.641,-196.506 941.447,-187.516"/>
<polygon fill="midnightblue" stroke="midnightblue" points="851.778,-217.636 843.659,-224.444 854.25,-224.185 851.778,-217.636"/>
</g>
<!-- Node21&#45;&gt;Node4 -->
<g id="edge25" class="edge"><title>Node21&#45;&gt;Node4</title>
<path fill="none" stroke="midnightblue" d="M717.393,-167.756C792.32,-157.164 913.579,-140.023 982.247,-130.316"/>
<polygon fill="midnightblue" stroke="midnightblue" points="716.55,-164.34 707.138,-169.206 717.53,-171.271 716.55,-164.34"/>
</g>
<!-- Node21&#45;&gt;Node15 -->
<g id="edge26" class="edge"><title>Node21&#45;&gt;Node15</title>
<path fill="none" stroke="midnightblue" d="M652,-158.348C652,-134.254 652,-93.3079 652,-75.5914"/>
<polygon fill="midnightblue" stroke="midnightblue" points="648.5,-158.368 652,-168.368 655.5,-158.369 648.5,-158.368"/>
</g>
<!-- Node23&#45;&gt;Node4 -->
<g id="edge30" class="edge"><title>Node23&#45;&gt;Node4</title>
<path fill="none" stroke="midnightblue" d="M1134.67,-219.649C1156.79,-207.116 1181.98,-187.436 1168,-168 1149.3,-141.999 1114.85,-130.813 1085.56,-126.094"/>
<polygon fill="midnightblue" stroke="midnightblue" points="1132.96,-216.591 1125.81,-224.403 1136.27,-222.759 1132.96,-216.591"/>
</g>
<!-- Node23&#45;&gt;Node5 -->
<g id="edge33" class="edge"><title>Node23&#45;&gt;Node5</title>
<path fill="none" stroke="midnightblue" d="M1103.85,-214.101C1102.36,-205.136 1100.64,-194.858 1099.46,-187.751"/>
<polygon fill="midnightblue" stroke="midnightblue" points="1100.42,-214.794 1105.51,-224.083 1107.32,-213.644 1100.42,-214.794"/>
</g>
<!-- Node23&#45;&gt;Node22 -->
<g id="edge32" class="edge"><title>Node23&#45;&gt;Node22</title>
<path fill="none" stroke="midnightblue" d="M1074.97,-220.906C1048.09,-210.754 1010.36,-196.506 986.553,-187.516"/>
<polygon fill="midnightblue" stroke="midnightblue" points="1073.75,-224.185 1084.34,-224.444 1076.22,-217.636 1073.75,-224.185"/>
</g>
<!-- Node24 -->
<g id="node24" class="node"><title>Node24</title>
<g id="a_node24"><a xlink:href="Bullet_8cpp.html" target="_top" xlink:title="Game/src/Bullet.cpp">
<polygon fill="white" stroke="black" points="1215,-168.5 1215,-187.5 1321,-187.5 1321,-168.5 1215,-168.5"/>
<text text-anchor="middle" x="1268" y="-175.5" font-family="Helvetica,sans-Serif" font-size="10.00">Game/src/Bullet.cpp</text>
</a>
</g>
</g>
<!-- Node23&#45;&gt;Node24 -->
<g id="edge31" class="edge"><title>Node23&#45;&gt;Node24</title>
<path fill="none" stroke="midnightblue" d="M1142.26,-221.172C1172.58,-211.004 1215.57,-196.585 1242.61,-187.516"/>
<polygon fill="midnightblue" stroke="midnightblue" points="1140.88,-217.945 1132.51,-224.444 1143.1,-224.582 1140.88,-217.945"/>
</g>
<!-- Node25&#45;&gt;Node4 -->
<g id="edge38" class="edge"><title>Node25&#45;&gt;Node4</title>
<path fill="none" stroke="midnightblue" d="M1305.16,-218.364C1323.01,-204.798 1343.01,-184.312 1329,-168 1298.24,-132.189 1161.76,-124.56 1085.68,-123.136"/>
<polygon fill="midnightblue" stroke="midnightblue" points="1302.81,-215.744 1296.73,-224.419 1306.89,-221.43 1302.81,-215.744"/>
</g>
<!-- Node25&#45;&gt;Node5 -->
<g id="edge39" class="edge"><title>Node25&#45;&gt;Node5</title>
<path fill="none" stroke="midnightblue" d="M1243.83,-221.568C1208.93,-211.381 1158.65,-196.703 1127.18,-187.516"/>
<polygon fill="midnightblue" stroke="midnightblue" points="1243.11,-225.001 1253.69,-224.444 1245.07,-218.282 1243.11,-225.001"/>
</g>
<!-- Node25&#45;&gt;Node15 -->
<g id="edge40" class="edge"><title>Node25&#45;&gt;Node15</title>
<path fill="none" stroke="midnightblue" d="M1311.24,-219.811C1334.5,-207.143 1361.37,-187.155 1346,-168 1306.81,-119.148 882.325,-83.5805 717.191,-71.4999"/>
<polygon fill="midnightblue" stroke="midnightblue" points="1309.54,-216.746 1302.27,-224.449 1312.76,-222.964 1309.54,-216.746"/>
</g>
<!-- Node26&#45;&gt;Node16 -->
<g id="edge43" class="edge"><title>Node26&#45;&gt;Node16</title>
<path fill="none" stroke="midnightblue" d="M1493.06,-219.444C1514.06,-207.013 1537.66,-187.605 1525,-168 1493.24,-118.804 1325.56,-88.2869 1232.82,-74.915"/>
<polygon fill="midnightblue" stroke="midnightblue" points="1491.35,-216.391 1484.33,-224.325 1494.76,-222.501 1491.35,-216.391"/>
</g>
<!-- Node27 -->
<g id="node27" class="node"><title>Node27</title>
<g id="a_node27"><a xlink:href="main_8cpp.html" target="_top" xlink:title="Game/src/main.cpp">
<polygon fill="white" stroke="black" points="1415,-168.5 1415,-187.5 1517,-187.5 1517,-168.5 1415,-168.5"/>
<text text-anchor="middle" x="1466" y="-175.5" font-family="Helvetica,sans-Serif" font-size="10.00">Game/src/main.cpp</text>
</a>
</g>
</g>
<!-- Node26&#45;&gt;Node27 -->
<g id="edge42" class="edge"><title>Node26&#45;&gt;Node27</title>
<path fill="none" stroke="midnightblue" d="M1466,-213.805C1466,-204.91 1466,-194.78 1466,-187.751"/>
<polygon fill="midnightblue" stroke="midnightblue" points="1462.5,-214.083 1466,-224.083 1469.5,-214.083 1462.5,-214.083"/>
</g>
</g>
</svg>
