<?xml version="1.0" encoding="UTF-8" standalone="no"?>
<!DOCTYPE svg PUBLIC "-//W3C//DTD SVG 1.1//EN"
 "http://www.w3.org/Graphics/SVG/1.1/DTD/svg11.dtd">
<!-- Generated by graphviz version 2.38.0 (20140413.2041)
 -->
<!-- Title: Engine/include/Sprite.h Pages: 1 -->
<svg width="1122pt" height="308pt"
 viewBox="0.00 0.00 1121.50 308.00" xmlns="http://www.w3.org/2000/svg" xmlns:xlink="http://www.w3.org/1999/xlink">
<g id="graph0" class="graph" transform="scale(1 1) rotate(0) translate(4 304)">
<title>Engine/include/Sprite.h</title>
<polygon fill="white" stroke="none" points="-4,4 -4,-304 1117.5,-304 1117.5,4 -4,4"/>
<!-- Node3 -->
<g id="node1" class="node"><title>Node3</title>
<polygon fill="#bfbfbf" stroke="black" points="683,-280.5 683,-299.5 800,-299.5 800,-280.5 683,-280.5"/>
<text text-anchor="middle" x="741.5" y="-287.5" font-family="Helvetica,sans-Serif" font-size="10.00">Engine/include/Sprite.h</text>
</g>
<!-- Node4 -->
<g id="node2" class="node"><title>Node4</title>
<g id="a_node2"><a xlink:href="Animation_8h.html" target="_top" xlink:title="Engine/include/Animation.h">
<polygon fill="white" stroke="black" points="626,-224.5 626,-243.5 761,-243.5 761,-224.5 626,-224.5"/>
<text text-anchor="middle" x="693.5" y="-231.5" font-family="Helvetica,sans-Serif" font-size="10.00">Engine/include/Animation.h</text>
</a>
</g>
</g>
<!-- Node3&#45;&gt;Node4 -->
<g id="edge1" class="edge"><title>Node3&#45;&gt;Node4</title>
<path fill="none" stroke="midnightblue" d="M726.772,-272.431C718.36,-262.967 708.151,-251.483 701.279,-243.751"/>
<polygon fill="midnightblue" stroke="midnightblue" points="724.314,-274.934 733.574,-280.083 729.546,-270.284 724.314,-274.934"/>
</g>
<!-- Node7 -->
<g id="node5" class="node"><title>Node7</title>
<g id="a_node5"><a xlink:href="Tileset_8h.html" target="_top" xlink:title="Engine/include/Tileset.h">
<polygon fill="white" stroke="black" points="273,-224.5 273,-243.5 394,-243.5 394,-224.5 273,-224.5"/>
<text text-anchor="middle" x="333.5" y="-231.5" font-family="Helvetica,sans-Serif" font-size="10.00">Engine/include/Tileset.h</text>
</a>
</g>
</g>
<!-- Node3&#45;&gt;Node7 -->
<g id="edge4" class="edge"><title>Node3&#45;&gt;Node7</title>
<path fill="none" stroke="midnightblue" d="M672.388,-279.853C594.294,-269.517 468.408,-252.856 394.037,-243.012"/>
<polygon fill="midnightblue" stroke="midnightblue" points="672.236,-283.363 682.609,-281.206 673.155,-276.424 672.236,-283.363"/>
</g>
<!-- Node13 -->
<g id="node11" class="node"><title>Node13</title>
<g id="a_node11"><a xlink:href="StageState_8h.html" target="_top" xlink:title="Game/include/StageState.h">
<polygon fill="white" stroke="black" points="648,-112.5 648,-131.5 785,-131.5 785,-112.5 648,-112.5"/>
<text text-anchor="middle" x="716.5" y="-119.5" font-family="Helvetica,sans-Serif" font-size="10.00">Game/include/StageState.h</text>
</a>
</g>
</g>
<!-- Node3&#45;&gt;Node13 -->
<g id="edge23" class="edge"><title>Node3&#45;&gt;Node13</title>
<path fill="none" stroke="midnightblue" d="M755.396,-272.319C773.579,-248.333 801.063,-203.125 782.5,-168 773.363,-150.712 754.269,-138.816 738.959,-131.618"/>
<polygon fill="midnightblue" stroke="midnightblue" points="752.456,-270.393 748.998,-280.407 757.947,-274.736 752.456,-270.393"/>
</g>
<!-- Node14 -->
<g id="node12" class="node"><title>Node14</title>
<g id="a_node12"><a xlink:href="EndState_8h.html" target="_top" xlink:title="Game/include/EndState.h">
<polygon fill="white" stroke="black" points="652.5,-56.5 652.5,-75.5 780.5,-75.5 780.5,-56.5 652.5,-56.5"/>
<text text-anchor="middle" x="716.5" y="-63.5" font-family="Helvetica,sans-Serif" font-size="10.00">Game/include/EndState.h</text>
</a>
</g>
</g>
<!-- Node3&#45;&gt;Node14 -->
<g id="edge22" class="edge"><title>Node3&#45;&gt;Node14</title>
<path fill="none" stroke="midnightblue" d="M810.357,-282.139C859.943,-275.609 920.767,-263.778 936.5,-244 942.034,-237.044 940.392,-231.992 936.5,-224 896.541,-141.948 790.307,-93.9491 741.572,-75.6228"/>
<polygon fill="midnightblue" stroke="midnightblue" points="809.768,-278.685 800.287,-283.414 810.647,-285.63 809.768,-278.685"/>
</g>
<!-- Node18 -->
<g id="node16" class="node"><title>Node18</title>
<g id="a_node16"><a xlink:href="Face_8h.html" target="_top" xlink:title="Game/include/Face.h">
<polygon fill="white" stroke="black" points="328.5,-112.5 328.5,-131.5 438.5,-131.5 438.5,-112.5 328.5,-112.5"/>
<text text-anchor="middle" x="383.5" y="-119.5" font-family="Helvetica,sans-Serif" font-size="10.00">Game/include/Face.h</text>
</a>
</g>
</g>
<!-- Node3&#45;&gt;Node18 -->
<g id="edge24" class="edge"><title>Node3&#45;&gt;Node18</title>
<path fill="none" stroke="midnightblue" d="M672.516,-283.551C603.628,-277.058 503.396,-264.441 470.5,-244 425.229,-215.87 396.482,-154.661 386.979,-131.825"/>
<polygon fill="midnightblue" stroke="midnightblue" points="672.586,-287.072 682.864,-284.502 673.227,-280.101 672.586,-287.072"/>
</g>
<!-- Node20 -->
<g id="node18" class="node"><title>Node20</title>
<g id="a_node18"><a xlink:href="Sprite_8cpp.html" target="_top" xlink:title="Engine/src/Sprite.cpp">
<polygon fill="white" stroke="black" points="817.5,-224.5 817.5,-243.5 927.5,-243.5 927.5,-224.5 817.5,-224.5"/>
<text text-anchor="middle" x="872.5" y="-231.5" font-family="Helvetica,sans-Serif" font-size="10.00">Engine/src/Sprite.cpp</text>
</a>
</g>
</g>
<!-- Node3&#45;&gt;Node20 -->
<g id="edge21" class="edge"><title>Node3&#45;&gt;Node20</title>
<path fill="none" stroke="midnightblue" d="M771.817,-276.503C796.376,-266.38 830.318,-252.388 851.84,-243.516"/>
<polygon fill="midnightblue" stroke="midnightblue" points="770.169,-273.397 762.257,-280.444 772.837,-279.868 770.169,-273.397"/>
</g>
<!-- Node21 -->
<g id="node19" class="node"><title>Node21</title>
<g id="a_node19"><a xlink:href="Penguins_8h.html" target="_top" xlink:title="Game/include/Penguins.h">
<polygon fill="white" stroke="black" points="479.5,-224.5 479.5,-243.5 607.5,-243.5 607.5,-224.5 479.5,-224.5"/>
<text text-anchor="middle" x="543.5" y="-231.5" font-family="Helvetica,sans-Serif" font-size="10.00">Game/include/Penguins.h</text>
</a>
</g>
</g>
<!-- Node3&#45;&gt;Node21 -->
<g id="edge25" class="edge"><title>Node3&#45;&gt;Node21</title>
<path fill="none" stroke="midnightblue" d="M700.062,-277.699C662.693,-267.507 608.557,-252.743 574.727,-243.516"/>
<polygon fill="midnightblue" stroke="midnightblue" points="699.558,-281.189 710.126,-280.444 701.4,-274.436 699.558,-281.189"/>
</g>
<!-- Node22 -->
<g id="node20" class="node"><title>Node22</title>
<g id="a_node20"><a xlink:href="TitleState_8h.html" target="_top" xlink:title="Game/include/TitleState.h">
<polygon fill="white" stroke="black" points="983.5,-224.5 983.5,-243.5 1113.5,-243.5 1113.5,-224.5 983.5,-224.5"/>
<text text-anchor="middle" x="1048.5" y="-231.5" font-family="Helvetica,sans-Serif" font-size="10.00">Game/include/TitleState.h</text>
</a>
</g>
</g>
<!-- Node3&#45;&gt;Node22 -->
<g id="edge28" class="edge"><title>Node3&#45;&gt;Node22</title>
<path fill="none" stroke="midnightblue" d="M800.261,-278.664C858.278,-268.459 945.947,-253.039 1000.08,-243.516"/>
<polygon fill="midnightblue" stroke="midnightblue" points="799.388,-275.264 790.145,-280.444 800.6,-282.158 799.388,-275.264"/>
</g>
<!-- Node5 -->
<g id="node3" class="node"><title>Node5</title>
<g id="a_node3"><a xlink:href="Animation_8cpp.html" target="_top" xlink:title="Engine/src/Animation.cpp">
<polygon fill="white" stroke="black" points="645.5,-168.5 645.5,-187.5 773.5,-187.5 773.5,-168.5 645.5,-168.5"/>
<text text-anchor="middle" x="709.5" y="-175.5" font-family="Helvetica,sans-Serif" font-size="10.00">Engine/src/Animation.cpp</text>
</a>
</g>
</g>
<!-- Node4&#45;&gt;Node5 -->
<g id="edge2" class="edge"><title>Node4&#45;&gt;Node5</title>
<path fill="none" stroke="midnightblue" d="M699.012,-214.396C701.689,-205.362 704.778,-194.936 706.907,-187.751"/>
<polygon fill="midnightblue" stroke="midnightblue" points="695.627,-213.501 696.142,-224.083 702.339,-215.489 695.627,-213.501"/>
</g>
<!-- Node6 -->
<g id="node4" class="node"><title>Node6</title>
<g id="a_node4"><a xlink:href="Penguins_8cpp.html" target="_top" xlink:title="Game/src/Penguins.cpp">
<polygon fill="white" stroke="black" points="505.5,-168.5 505.5,-187.5 627.5,-187.5 627.5,-168.5 505.5,-168.5"/>
<text text-anchor="middle" x="566.5" y="-175.5" font-family="Helvetica,sans-Serif" font-size="10.00">Game/src/Penguins.cpp</text>
</a>
</g>
</g>
<!-- Node4&#45;&gt;Node6 -->
<g id="edge3" class="edge"><title>Node4&#45;&gt;Node6</title>
<path fill="none" stroke="midnightblue" d="M664.109,-220.503C640.3,-210.38 607.394,-196.388 586.529,-187.516"/>
<polygon fill="midnightblue" stroke="midnightblue" points="662.804,-223.751 673.376,-224.444 665.543,-217.31 662.804,-223.751"/>
</g>
<!-- Node8 -->
<g id="node6" class="node"><title>Node8</title>
<g id="a_node6"><a xlink:href="TileMap_8h.html" target="_top" xlink:title="Engine/include/TileMap.h">
<polygon fill="white" stroke="black" points="115.5,-168.5 115.5,-187.5 241.5,-187.5 241.5,-168.5 115.5,-168.5"/>
<text text-anchor="middle" x="178.5" y="-175.5" font-family="Helvetica,sans-Serif" font-size="10.00">Engine/include/TileMap.h</text>
</a>
</g>
</g>
<!-- Node7&#45;&gt;Node8 -->
<g id="edge5" class="edge"><title>Node7&#45;&gt;Node8</title>
<path fill="none" stroke="midnightblue" d="M299.168,-221.039C270.003,-210.879 228.863,-196.546 202.945,-187.516"/>
<polygon fill="midnightblue" stroke="midnightblue" points="298.345,-224.459 308.94,-224.444 300.648,-217.848 298.345,-224.459"/>
</g>
<!-- Node7&#45;&gt;Node13 -->
<g id="edge20" class="edge"><title>Node7&#45;&gt;Node13</title>
<path fill="none" stroke="midnightblue" d="M361.374,-220.115C393.406,-205.728 447.829,-182.556 496.5,-168 551.592,-151.523 616.234,-139.095 661.131,-131.519"/>
<polygon fill="midnightblue" stroke="midnightblue" points="359.848,-216.964 352.183,-224.279 362.736,-223.34 359.848,-216.964"/>
</g>
<!-- Node19 -->
<g id="node17" class="node"><title>Node19</title>
<g id="a_node17"><a xlink:href="Tileset_8cpp.html" target="_top" xlink:title="Engine/src/Tileset.cpp">
<polygon fill="white" stroke="black" points="259.5,-168.5 259.5,-187.5 373.5,-187.5 373.5,-168.5 259.5,-168.5"/>
<text text-anchor="middle" x="316.5" y="-175.5" font-family="Helvetica,sans-Serif" font-size="10.00">Engine/src/Tileset.cpp</text>
</a>
</g>
</g>
<!-- Node7&#45;&gt;Node19 -->
<g id="edge19" class="edge"><title>Node7&#45;&gt;Node19</title>
<path fill="none" stroke="midnightblue" d="M327.643,-214.396C324.799,-205.362 321.517,-194.936 319.255,-187.751"/>
<polygon fill="midnightblue" stroke="midnightblue" points="324.351,-215.596 330.693,-224.083 331.028,-213.493 324.351,-215.596"/>
</g>
<!-- Node9 -->
<g id="node7" class="node"><title>Node9</title>
<g id="a_node7"><a xlink:href="DragAndDrop_8h.html" target="_top" xlink:title="Engine/include/DragAndDrop.h">
<polygon fill="white" stroke="black" points="137,-112.5 137,-131.5 288,-131.5 288,-112.5 137,-112.5"/>
<text text-anchor="middle" x="212.5" y="-119.5" font-family="Helvetica,sans-Serif" font-size="10.00">Engine/include/DragAndDrop.h</text>
</a>
</g>
</g>
<!-- Node8&#45;&gt;Node9 -->
<g id="edge6" class="edge"><title>Node8&#45;&gt;Node9</title>
<path fill="none" stroke="midnightblue" d="M189.477,-159.566C195.327,-150.275 202.27,-139.248 206.99,-131.751"/>
<polygon fill="midnightblue" stroke="midnightblue" points="186.481,-157.756 184.114,-168.083 192.404,-161.486 186.481,-157.756"/>
</g>
<!-- Node12 -->
<g id="node10" class="node"><title>Node12</title>
<g id="a_node10"><a xlink:href="TileMap_8cpp.html" target="_top" xlink:title="Engine/src/TileMap.cpp">
<polygon fill="white" stroke="black" points="0,-112.5 0,-131.5 119,-131.5 119,-112.5 0,-112.5"/>
<text text-anchor="middle" x="59.5" y="-119.5" font-family="Helvetica,sans-Serif" font-size="10.00">Engine/src/TileMap.cpp</text>
</a>
</g>
</g>
<!-- Node8&#45;&gt;Node12 -->
<g id="edge9" class="edge"><title>Node8&#45;&gt;Node12</title>
<path fill="none" stroke="midnightblue" d="M150.363,-164.232C128.104,-154.131 97.6442,-140.309 78.2677,-131.516"/>
<polygon fill="midnightblue" stroke="midnightblue" points="149.091,-167.498 159.644,-168.444 151.984,-161.124 149.091,-167.498"/>
</g>
<!-- Node8&#45;&gt;Node13 -->
<g id="edge10" class="edge"><title>Node8&#45;&gt;Node13</title>
<path fill="none" stroke="midnightblue" d="M251.818,-167.88C398.858,-151.705 558.821,-136.967 647.744,-129.031"/>
<polygon fill="midnightblue" stroke="midnightblue" points="251.259,-164.421 241.704,-168.998 252.028,-171.378 251.259,-164.421"/>
</g>
<!-- Node8&#45;&gt;Node18 -->
<g id="edge16" class="edge"><title>Node8&#45;&gt;Node18</title>
<path fill="none" stroke="midnightblue" d="M220.908,-165.829C259.614,-155.633 315.993,-140.782 351.169,-131.516"/>
<polygon fill="midnightblue" stroke="midnightblue" points="219.761,-162.512 210.983,-168.444 221.545,-169.281 219.761,-162.512"/>
</g>
<!-- Node10 -->
<g id="node8" class="node"><title>Node10</title>
<g id="a_node8"><a xlink:href="DragAndDrop_8cpp.html" target="_top" xlink:title="Engine/src/DragAndDrop.cpp">
<polygon fill="white" stroke="black" points="134.5,-56.5 134.5,-75.5 278.5,-75.5 278.5,-56.5 134.5,-56.5"/>
<text text-anchor="middle" x="206.5" y="-63.5" font-family="Helvetica,sans-Serif" font-size="10.00">Engine/src/DragAndDrop.cpp</text>
</a>
</g>
</g>
<!-- Node9&#45;&gt;Node10 -->
<g id="edge7" class="edge"><title>Node9&#45;&gt;Node10</title>
<path fill="none" stroke="midnightblue" d="M210.4,-102.101C209.404,-93.1357 208.262,-82.8579 207.472,-75.7511"/>
<polygon fill="midnightblue" stroke="midnightblue" points="206.926,-102.531 211.509,-112.083 213.883,-101.758 206.926,-102.531"/>
</g>
<!-- Node11 -->
<g id="node9" class="node"><title>Node11</title>
<g id="a_node9"><a xlink:href="Face_8cpp.html" target="_top" xlink:title="Game/src/Face.cpp">
<polygon fill="white" stroke="black" points="297,-56.5 297,-75.5 400,-75.5 400,-56.5 297,-56.5"/>
<text text-anchor="middle" x="348.5" y="-63.5" font-family="Helvetica,sans-Serif" font-size="10.00">Game/src/Face.cpp</text>
</a>
</g>
</g>
<!-- Node9&#45;&gt;Node11 -->
<g id="edge8" class="edge"><title>Node9&#45;&gt;Node11</title>
<path fill="none" stroke="midnightblue" d="M243.635,-108.638C269.157,-98.504 304.609,-84.4274 327.051,-75.5164"/>
<polygon fill="midnightblue" stroke="midnightblue" points="242.052,-105.5 234.05,-112.444 244.635,-112.006 242.052,-105.5"/>
</g>
<!-- Node13&#45;&gt;Node14 -->
<g id="edge11" class="edge"><title>Node13&#45;&gt;Node14</title>
<path fill="none" stroke="midnightblue" d="M710.028,-102.101C709.396,-93.1357 709.843,-82.8579 711.369,-75.7511"/>
<polygon fill="midnightblue" stroke="midnightblue" points="706.566,-102.622 711.334,-112.083 713.507,-101.713 706.566,-102.622"/>
</g>
<!-- Node16 -->
<g id="node14" class="node"><title>Node16</title>
<g id="a_node14"><a xlink:href="StageState_8cpp.html" target="_top" xlink:title="Game/src/StageState.cpp">
<polygon fill="white" stroke="black" points="418.5,-56.5 418.5,-75.5 548.5,-75.5 548.5,-56.5 418.5,-56.5"/>
<text text-anchor="middle" x="483.5" y="-63.5" font-family="Helvetica,sans-Serif" font-size="10.00">Game/src/StageState.cpp</text>
</a>
</g>
</g>
<!-- Node13&#45;&gt;Node16 -->
<g id="edge14" class="edge"><title>Node13&#45;&gt;Node16</title>
<path fill="none" stroke="midnightblue" d="M669.697,-110.153C625.673,-99.95 560.653,-84.8809 520.247,-75.5164"/>
<polygon fill="midnightblue" stroke="midnightblue" points="669.048,-113.595 679.58,-112.444 670.629,-106.776 669.048,-113.595"/>
</g>
<!-- Node17 -->
<g id="node15" class="node"><title>Node17</title>
<g id="a_node15"><a xlink:href="TitleState_8cpp.html" target="_top" xlink:title="Game/src/TitleState.cpp">
<polygon fill="white" stroke="black" points="971,-56.5 971,-75.5 1094,-75.5 1094,-56.5 971,-56.5"/>
<text text-anchor="middle" x="1032.5" y="-63.5" font-family="Helvetica,sans-Serif" font-size="10.00">Game/src/TitleState.cpp</text>
</a>
</g>
</g>
<!-- Node13&#45;&gt;Node17 -->
<g id="edge15" class="edge"><title>Node13&#45;&gt;Node17</title>
<path fill="none" stroke="midnightblue" d="M776.613,-110.727C836.328,-100.523 926.825,-85.0583 982.663,-75.5164"/>
<polygon fill="midnightblue" stroke="midnightblue" points="775.839,-107.309 766.571,-112.444 777.018,-114.209 775.839,-107.309"/>
</g>
<!-- Node14&#45;&gt;Node13 -->
<g id="edge12" class="edge"><title>Node14&#45;&gt;Node13</title>
<path fill="none" stroke="midnightblue" d="M722.958,-85.6911C723.606,-94.6353 723.176,-104.927 721.666,-112.083"/>
<polygon fill="midnightblue" stroke="midnightblue" points="726.423,-85.2002 721.631,-75.7511 719.485,-86.1262 726.423,-85.2002"/>
</g>
<!-- Node15 -->
<g id="node13" class="node"><title>Node15</title>
<g id="a_node13"><a xlink:href="EndState_8cpp.html" target="_top" xlink:title="Game/src/EndState.cpp">
<polygon fill="white" stroke="black" points="655.5,-0.5 655.5,-19.5 777.5,-19.5 777.5,-0.5 655.5,-0.5"/>
<text text-anchor="middle" x="716.5" y="-7.5" font-family="Helvetica,sans-Serif" font-size="10.00">Game/src/EndState.cpp</text>
</a>
</g>
</g>
<!-- Node14&#45;&gt;Node15 -->
<g id="edge13" class="edge"><title>Node14&#45;&gt;Node15</title>
<path fill="none" stroke="midnightblue" d="M716.5,-45.8045C716.5,-36.9102 716.5,-26.7798 716.5,-19.7511"/>
<polygon fill="midnightblue" stroke="midnightblue" points="713,-46.083 716.5,-56.083 720,-46.083 713,-46.083"/>
</g>
<!-- Node18&#45;&gt;Node11 -->
<g id="edge17" class="edge"><title>Node18&#45;&gt;Node11</title>
<path fill="none" stroke="midnightblue" d="M372.2,-103.566C366.178,-94.2747 359.031,-83.2484 354.172,-75.7511"/>
<polygon fill="midnightblue" stroke="midnightblue" points="369.344,-105.595 377.72,-112.083 375.219,-101.788 369.344,-105.595"/>
</g>
<!-- Node18&#45;&gt;Node16 -->
<g id="edge18" class="edge"><title>Node18&#45;&gt;Node16</title>
<path fill="none" stroke="midnightblue" d="M408.588,-107.453C427.049,-97.4835 451.597,-84.2279 467.473,-75.6545"/>
<polygon fill="midnightblue" stroke="midnightblue" points="406.703,-104.493 399.567,-112.324 410.029,-110.652 406.703,-104.493"/>
</g>
<!-- Node21&#45;&gt;Node6 -->
<g id="edge26" class="edge"><title>Node21&#45;&gt;Node6</title>
<path fill="none" stroke="midnightblue" d="M551.299,-214.69C555.175,-205.589 559.679,-195.014 562.773,-187.751"/>
<polygon fill="midnightblue" stroke="midnightblue" points="547.997,-213.511 547.298,-224.083 554.437,-216.254 547.997,-213.511"/>
</g>
<!-- Node21&#45;&gt;Node16 -->
<g id="edge27" class="edge"><title>Node21&#45;&gt;Node16</title>
<path fill="none" stroke="midnightblue" d="M522.274,-218.209C512.751,-210.379 502.361,-199.917 496.5,-188 477.665,-149.703 480.46,-96.5064 482.477,-75.7682"/>
<polygon fill="midnightblue" stroke="midnightblue" points="520.227,-221.05 530.284,-224.383 524.5,-215.506 520.227,-221.05"/>
</g>
<!-- Node22&#45;&gt;Node17 -->
<g id="edge30" class="edge"><title>Node22&#45;&gt;Node17</title>
<path fill="none" stroke="midnightblue" d="M1070.21,-218.066C1079.56,-210.308 1089.47,-199.947 1094.5,-188 1097.95,-179.807 1096.92,-176.554 1094.5,-168 1083.76,-129.983 1054.26,-92.1792 1040.17,-75.6531"/>
<polygon fill="midnightblue" stroke="midnightblue" points="1068.06,-215.306 1062.29,-224.189 1072.34,-220.845 1068.06,-215.306"/>
</g>
<!-- Node23 -->
<g id="node21" class="node"><title>Node23</title>
<g id="a_node21"><a xlink:href="main_8cpp.html" target="_top" xlink:title="Game/src/main.cpp">
<polygon fill="white" stroke="black" points="983.5,-168.5 983.5,-187.5 1085.5,-187.5 1085.5,-168.5 983.5,-168.5"/>
<text text-anchor="middle" x="1034.5" y="-175.5" font-family="Helvetica,sans-Serif" font-size="10.00">Game/src/main.cpp</text>
</a>
</g>
</g>
<!-- Node22&#45;&gt;Node23 -->
<g id="edge29" class="edge"><title>Node22&#45;&gt;Node23</title>
<path fill="none" stroke="midnightblue" d="M1043.68,-214.396C1041.33,-205.362 1038.63,-194.936 1036.77,-187.751"/>
<polygon fill="midnightblue" stroke="midnightblue" points="1040.29,-215.281 1046.19,-224.083 1047.07,-213.525 1040.29,-215.281"/>
</g>
</g>
</svg>
