<?xml version="1.0" encoding="UTF-8" standalone="no"?>
<!DOCTYPE svg PUBLIC "-//W3C//DTD SVG 1.1//EN"
 "http://www.w3.org/Graphics/SVG/1.1/DTD/svg11.dtd">
<!-- Generated by graphviz version 2.38.0 (20140413.2041)
 -->
<!-- Title: Engine/src/Sprite.cpp Pages: 1 -->
<svg width="761pt" height="308pt"
 viewBox="0.00 0.00 761.00 308.00" xmlns="http://www.w3.org/2000/svg" xmlns:xlink="http://www.w3.org/1999/xlink">
<g id="graph0" class="graph" transform="scale(1 1) rotate(0) translate(4 304)">
<title>Engine/src/Sprite.cpp</title>
<polygon fill="white" stroke="none" points="-4,4 -4,-304 757,-304 757,4 -4,4"/>
<!-- Node0 -->
<g id="node1" class="node"><title>Node0</title>
<polygon fill="#bfbfbf" stroke="black" points="272,-280.5 272,-299.5 382,-299.5 382,-280.5 272,-280.5"/>
<text text-anchor="middle" x="327" y="-287.5" font-family="Helvetica,sans-Serif" font-size="10.00">Engine/src/Sprite.cpp</text>
</g>
<!-- Node1 -->
<g id="node2" class="node"><title>Node1</title>
<g id="a_node2"><a xlink:href="Sprite_8h.html" target="_top" xlink:title="Sprite.h">
<polygon fill="white" stroke="black" points="0,-112.5 0,-131.5 50,-131.5 50,-112.5 0,-112.5"/>
<text text-anchor="middle" x="25" y="-119.5" font-family="Helvetica,sans-Serif" font-size="10.00">Sprite.h</text>
</a>
</g>
</g>
<!-- Node0&#45;&gt;Node1 -->
<g id="edge1" class="edge"><title>Node0&#45;&gt;Node1</title>
<path fill="none" stroke="midnightblue" d="M311.188,-280.309C261.652,-253.08 109.217,-169.292 49.4259,-136.426"/>
<polygon fill="midnightblue" stroke="midnightblue" points="51.1045,-133.355 40.6551,-131.605 47.7325,-139.489 51.1045,-133.355"/>
</g>
<!-- Node4 -->
<g id="node5" class="node"><title>Node4</title>
<g id="a_node5"><a xlink:href="Game_8h.html" target="_top" xlink:title="Game.h">
<polygon fill="white" stroke="black" points="301.5,-224.5 301.5,-243.5 352.5,-243.5 352.5,-224.5 301.5,-224.5"/>
<text text-anchor="middle" x="327" y="-231.5" font-family="Helvetica,sans-Serif" font-size="10.00">Game.h</text>
</a>
</g>
</g>
<!-- Node0&#45;&gt;Node4 -->
<g id="edge4" class="edge"><title>Node0&#45;&gt;Node4</title>
<path fill="none" stroke="midnightblue" d="M327,-280.083C327,-273.006 327,-262.861 327,-253.986"/>
<polygon fill="midnightblue" stroke="midnightblue" points="330.5,-253.751 327,-243.751 323.5,-253.751 330.5,-253.751"/>
</g>
<!-- Node16 -->
<g id="node17" class="node"><title>Node16</title>
<g id="a_node17"><a xlink:href="Resources_8h.html" target="_top" xlink:title="Resources.h">
<polygon fill="white" stroke="black" points="106,-112.5 106,-131.5 178,-131.5 178,-112.5 106,-112.5"/>
<text text-anchor="middle" x="142" y="-119.5" font-family="Helvetica,sans-Serif" font-size="10.00">Resources.h</text>
</a>
</g>
</g>
<!-- Node0&#45;&gt;Node16 -->
<g id="edge24" class="edge"><title>Node0&#45;&gt;Node16</title>
<path fill="none" stroke="midnightblue" d="M317.314,-280.309C287.593,-253.64 197.406,-172.716 159.295,-138.519"/>
<polygon fill="midnightblue" stroke="midnightblue" points="161.371,-135.679 151.59,-131.605 156.696,-140.889 161.371,-135.679"/>
</g>
<!-- Node17 -->
<g id="node18" class="node"><title>Node17</title>
<g id="a_node18"><a xlink:href="Error_8h.html" target="_top" xlink:title="Error.h">
<polygon fill="white" stroke="black" points="637,-224.5 637,-243.5 683,-243.5 683,-224.5 637,-224.5"/>
<text text-anchor="middle" x="660" y="-231.5" font-family="Helvetica,sans-Serif" font-size="10.00">Error.h</text>
</a>
</g>
</g>
<!-- Node0&#45;&gt;Node17 -->
<g id="edge28" class="edge"><title>Node0&#45;&gt;Node17</title>
<path fill="none" stroke="midnightblue" d="M379.765,-280.444C449.169,-269.189 569.078,-249.744 626.911,-240.366"/>
<polygon fill="midnightblue" stroke="midnightblue" points="627.651,-243.792 636.962,-238.736 626.53,-236.882 627.651,-243.792"/>
</g>
<!-- Node20 -->
<g id="node21" class="node"><title>Node20</title>
<g id="a_node21"><a xlink:href="Camera_8h.html" target="_top" xlink:title="Camera.h">
<polygon fill="white" stroke="black" points="465.5,-224.5 465.5,-243.5 524.5,-243.5 524.5,-224.5 465.5,-224.5"/>
<text text-anchor="middle" x="495" y="-231.5" font-family="Helvetica,sans-Serif" font-size="10.00">Camera.h</text>
</a>
</g>
</g>
<!-- Node0&#45;&gt;Node20 -->
<g id="edge31" class="edge"><title>Node0&#45;&gt;Node20</title>
<path fill="none" stroke="midnightblue" d="M353.62,-280.444C382.006,-271.32 427.137,-256.813 458.753,-246.651"/>
<polygon fill="midnightblue" stroke="midnightblue" points="460.055,-249.909 468.504,-243.516 457.913,-243.244 460.055,-249.909"/>
</g>
<!-- Node2 -->
<g id="node3" class="node"><title>Node2</title>
<polygon fill="white" stroke="#bfbfbf" points="4.5,-56.5 4.5,-75.5 45.5,-75.5 45.5,-56.5 4.5,-56.5"/>
<text text-anchor="middle" x="25" y="-63.5" font-family="Helvetica,sans-Serif" font-size="10.00">string</text>
</g>
<!-- Node1&#45;&gt;Node2 -->
<g id="edge2" class="edge"><title>Node1&#45;&gt;Node2</title>
<path fill="none" stroke="midnightblue" d="M25,-112.083C25,-105.006 25,-94.8611 25,-85.9865"/>
<polygon fill="midnightblue" stroke="midnightblue" points="28.5001,-85.751 25,-75.7511 21.5001,-85.7511 28.5001,-85.751"/>
</g>
<!-- Node3 -->
<g id="node4" class="node"><title>Node3</title>
<polygon fill="white" stroke="#bfbfbf" points="64,-56.5 64,-75.5 116,-75.5 116,-56.5 64,-56.5"/>
<text text-anchor="middle" x="90" y="-63.5" font-family="Helvetica,sans-Serif" font-size="10.00">memory</text>
</g>
<!-- Node1&#45;&gt;Node3 -->
<g id="edge3" class="edge"><title>Node1&#45;&gt;Node3</title>
<path fill="none" stroke="midnightblue" d="M35.4434,-112.324C45.1462,-104.263 59.8153,-92.0765 71.4997,-82.3695"/>
<polygon fill="midnightblue" stroke="midnightblue" points="73.9113,-84.9163 79.3666,-75.8339 69.4381,-79.532 73.9113,-84.9163"/>
</g>
<!-- Node4&#45;&gt;Node2 -->
<g id="edge5" class="edge"><title>Node4&#45;&gt;Node2</title>
<path fill="none" stroke="midnightblue" d="M301.416,-224.974C257.38,-210.482 165.405,-177.199 97,-132 75.624,-117.876 54.2257,-97.582 40.3814,-83.4405"/>
<polygon fill="midnightblue" stroke="midnightblue" points="42.6104,-80.7084 33.1603,-75.9183 37.5606,-85.5561 42.6104,-80.7084"/>
</g>
<!-- Node5 -->
<g id="node6" class="node"><title>Node5</title>
<polygon fill="white" stroke="#bfbfbf" points="306.5,-168.5 306.5,-187.5 347.5,-187.5 347.5,-168.5 306.5,-168.5"/>
<text text-anchor="middle" x="327" y="-175.5" font-family="Helvetica,sans-Serif" font-size="10.00">stack</text>
</g>
<!-- Node4&#45;&gt;Node5 -->
<g id="edge6" class="edge"><title>Node4&#45;&gt;Node5</title>
<path fill="none" stroke="midnightblue" d="M327,-224.083C327,-217.006 327,-206.861 327,-197.986"/>
<polygon fill="midnightblue" stroke="midnightblue" points="330.5,-197.751 327,-187.751 323.5,-197.751 330.5,-197.751"/>
</g>
<!-- Node6 -->
<g id="node7" class="node"><title>Node6</title>
<g id="a_node7"><a xlink:href="State_8h.html" target="_top" xlink:title="State.h">
<polygon fill="white" stroke="black" points="227,-168.5 227,-187.5 275,-187.5 275,-168.5 227,-168.5"/>
<text text-anchor="middle" x="251" y="-175.5" font-family="Helvetica,sans-Serif" font-size="10.00">State.h</text>
</a>
</g>
</g>
<!-- Node4&#45;&gt;Node6 -->
<g id="edge7" class="edge"><title>Node4&#45;&gt;Node6</title>
<path fill="none" stroke="midnightblue" d="M314.789,-224.324C303.224,-216.107 285.625,-203.602 271.839,-193.807"/>
<polygon fill="midnightblue" stroke="midnightblue" points="273.612,-190.773 263.433,-187.834 269.557,-196.479 273.612,-190.773"/>
</g>
<!-- Node10 -->
<g id="node11" class="node"><title>Node10</title>
<g id="a_node11"><a xlink:href="Vec2_8h.html" target="_top" xlink:title="Vec2.h">
<polygon fill="white" stroke="black" points="460.5,-0.5 460.5,-19.5 507.5,-19.5 507.5,-0.5 460.5,-0.5"/>
<text text-anchor="middle" x="484" y="-7.5" font-family="Helvetica,sans-Serif" font-size="10.00">Vec2.h</text>
</a>
</g>
</g>
<!-- Node4&#45;&gt;Node10 -->
<g id="edge23" class="edge"><title>Node4&#45;&gt;Node10</title>
<path fill="none" stroke="midnightblue" d="M333.982,-224.382C352.761,-201.065 405.587,-134.552 445,-76 455.541,-60.3407 466.513,-41.8232 474.124,-28.5666"/>
<polygon fill="midnightblue" stroke="midnightblue" points="477.328,-30.0124 479.227,-19.589 471.243,-26.5536 477.328,-30.0124"/>
</g>
<!-- Node13 -->
<g id="node14" class="node"><title>Node13</title>
<g id="a_node14"><a xlink:href="InputManager_8h.html" target="_top" xlink:title="InputManager.h">
<polygon fill="white" stroke="black" points="461,-112.5 461,-131.5 545,-131.5 545,-112.5 461,-112.5"/>
<text text-anchor="middle" x="503" y="-119.5" font-family="Helvetica,sans-Serif" font-size="10.00">InputManager.h</text>
</a>
</g>
</g>
<!-- Node4&#45;&gt;Node13 -->
<g id="edge19" class="edge"><title>Node4&#45;&gt;Node13</title>
<path fill="none" stroke="midnightblue" d="M340.81,-224.368C371.141,-205.412 443.799,-160.001 480.692,-136.942"/>
<polygon fill="midnightblue" stroke="midnightblue" points="482.629,-139.859 489.254,-131.591 478.919,-133.923 482.629,-139.859"/>
</g>
<!-- Node6&#45;&gt;Node3 -->
<g id="edge18" class="edge"><title>Node6&#45;&gt;Node3</title>
<path fill="none" stroke="midnightblue" d="M244.313,-168.45C233.462,-155.019 210.821,-128.783 187,-112 167.526,-98.2801 143.203,-87.008 123.785,-79.177"/>
<polygon fill="midnightblue" stroke="midnightblue" points="124.998,-75.8933 114.411,-75.5073 122.447,-82.4117 124.998,-75.8933"/>
</g>
<!-- Node7 -->
<g id="node8" class="node"><title>Node7</title>
<g id="a_node8"><a xlink:href="GameObject_8h.html" target="_top" xlink:title="GameObject.h">
<polygon fill="white" stroke="black" points="272,-112.5 272,-131.5 352,-131.5 352,-112.5 272,-112.5"/>
<text text-anchor="middle" x="312" y="-119.5" font-family="Helvetica,sans-Serif" font-size="10.00">GameObject.h</text>
</a>
</g>
</g>
<!-- Node6&#45;&gt;Node7 -->
<g id="edge8" class="edge"><title>Node6&#45;&gt;Node7</title>
<path fill="none" stroke="midnightblue" d="M260.801,-168.324C269.818,-160.341 283.406,-148.313 294.318,-138.653"/>
<polygon fill="midnightblue" stroke="midnightblue" points="296.853,-141.083 302.021,-131.834 292.213,-135.842 296.853,-141.083"/>
</g>
<!-- Node8 -->
<g id="node9" class="node"><title>Node8</title>
<polygon fill="white" stroke="#bfbfbf" points="134,-56.5 134,-75.5 178,-75.5 178,-56.5 134,-56.5"/>
<text text-anchor="middle" x="156" y="-63.5" font-family="Helvetica,sans-Serif" font-size="10.00">vector</text>
</g>
<!-- Node6&#45;&gt;Node8 -->
<g id="edge17" class="edge"><title>Node6&#45;&gt;Node8</title>
<path fill="none" stroke="midnightblue" d="M248.408,-168.203C244.158,-154.902 234.685,-129.382 220,-112 209.349,-99.3929 194.391,-88.6157 181.613,-80.7715"/>
<polygon fill="midnightblue" stroke="midnightblue" points="183.184,-77.6352 172.788,-75.5939 179.642,-83.6729 183.184,-77.6352"/>
</g>
<!-- Node7&#45;&gt;Node2 -->
<g id="edge14" class="edge"><title>Node7&#45;&gt;Node2</title>
<path fill="none" stroke="midnightblue" d="M271.637,-115.44C222.706,-108.369 137.611,-95.0114 55.3283,-75.8261"/>
<polygon fill="midnightblue" stroke="midnightblue" points="56.1072,-72.4138 45.5702,-73.5199 54.4971,-79.2261 56.1072,-72.4138"/>
</g>
<!-- Node7&#45;&gt;Node3 -->
<g id="edge10" class="edge"><title>Node7&#45;&gt;Node3</title>
<path fill="none" stroke="midnightblue" d="M275.761,-112.456C240.12,-104.013 183.905,-90.5935 126.359,-76.312"/>
<polygon fill="midnightblue" stroke="midnightblue" points="126.911,-72.8428 116.362,-73.8256 125.222,-79.6359 126.911,-72.8428"/>
</g>
<!-- Node7&#45;&gt;Node8 -->
<g id="edge9" class="edge"><title>Node7&#45;&gt;Node8</title>
<path fill="none" stroke="midnightblue" d="M287.281,-112.444C260.383,-103.133 217.291,-88.2163 187.869,-78.0315"/>
<polygon fill="midnightblue" stroke="midnightblue" points="188.676,-74.607 178.081,-74.6433 186.386,-81.222 188.676,-74.607"/>
</g>
<!-- Node9 -->
<g id="node10" class="node"><title>Node9</title>
<g id="a_node10"><a xlink:href="Rect_8h.html" target="_top" xlink:title="Rect.h">
<polygon fill="white" stroke="black" points="196,-56.5 196,-75.5 242,-75.5 242,-56.5 196,-56.5"/>
<text text-anchor="middle" x="219" y="-63.5" font-family="Helvetica,sans-Serif" font-size="10.00">Rect.h</text>
</a>
</g>
</g>
<!-- Node7&#45;&gt;Node9 -->
<g id="edge11" class="edge"><title>Node7&#45;&gt;Node9</title>
<path fill="none" stroke="midnightblue" d="M297.058,-112.324C282.415,-103.822 259.866,-90.7288 242.762,-80.7975"/>
<polygon fill="midnightblue" stroke="midnightblue" points="244.31,-77.6491 233.905,-75.6545 240.795,-83.7027 244.31,-77.6491"/>
</g>
<!-- Node12 -->
<g id="node13" class="node"><title>Node12</title>
<g id="a_node13"><a xlink:href="Component_8h.html" target="_top" xlink:title="Component.h">
<polygon fill="white" stroke="black" points="361.5,-56.5 361.5,-75.5 436.5,-75.5 436.5,-56.5 361.5,-56.5"/>
<text text-anchor="middle" x="399" y="-63.5" font-family="Helvetica,sans-Serif" font-size="10.00">Component.h</text>
</a>
</g>
</g>
<!-- Node7&#45;&gt;Node12 -->
<g id="edge15" class="edge"><title>Node7&#45;&gt;Node12</title>
<path fill="none" stroke="midnightblue" d="M320.863,-112.324C332.721,-103.822 353.528,-90.7288 370.796,-80.7975"/>
<polygon fill="midnightblue" stroke="midnightblue" points="372.944,-83.6054 379.946,-75.6545 369.514,-77.5032 372.944,-83.6054"/>
</g>
<!-- Node9&#45;&gt;Node10 -->
<g id="edge12" class="edge"><title>Node9&#45;&gt;Node10</title>
<path fill="none" stroke="midnightblue" d="M242.012,-58.2803C245.026,-57.4732 248.08,-56.6914 251,-56 321.482,-39.313 405.044,-24.3227 450.481,-16.5685"/>
<polygon fill="midnightblue" stroke="midnightblue" points="451.106,-20.0126 460.38,-14.8908 449.936,-13.111 451.106,-20.0126"/>
</g>
<!-- Node11 -->
<g id="node12" class="node"><title>Node11</title>
<polygon fill="white" stroke="#bfbfbf" points="197,-0.5 197,-19.5 241,-19.5 241,-0.5 197,-0.5"/>
<text text-anchor="middle" x="219" y="-7.5" font-family="Helvetica,sans-Serif" font-size="10.00">cmath</text>
</g>
<!-- Node9&#45;&gt;Node11 -->
<g id="edge13" class="edge"><title>Node9&#45;&gt;Node11</title>
<path fill="none" stroke="midnightblue" d="M219,-56.083C219,-49.0059 219,-38.8611 219,-29.9865"/>
<polygon fill="midnightblue" stroke="midnightblue" points="222.5,-29.751 219,-19.7511 215.5,-29.7511 222.5,-29.751"/>
</g>
<!-- Node12&#45;&gt;Node7 -->
<g id="edge16" class="edge"><title>Node12&#45;&gt;Node7</title>
<path fill="none" stroke="midnightblue" d="M389.916,-75.8339C378.02,-84.342 357.355,-97.339 340.191,-107.21"/>
<polygon fill="midnightblue" stroke="midnightblue" points="338.095,-104.373 331.093,-112.324 341.525,-110.475 338.095,-104.373"/>
</g>
<!-- Node13&#45;&gt;Node10 -->
<g id="edge20" class="edge"><title>Node13&#45;&gt;Node10</title>
<path fill="none" stroke="midnightblue" d="M501.509,-112.368C498.443,-94.617 491.37,-53.6664 487.212,-29.5974"/>
<polygon fill="midnightblue" stroke="midnightblue" points="490.635,-28.8498 485.484,-19.5914 483.737,-30.0413 490.635,-28.8498"/>
</g>
<!-- Node14 -->
<g id="node15" class="node"><title>Node14</title>
<polygon fill="white" stroke="#bfbfbf" points="260.5,-56.5 260.5,-75.5 343.5,-75.5 343.5,-56.5 260.5,-56.5"/>
<text text-anchor="middle" x="302" y="-63.5" font-family="Helvetica,sans-Serif" font-size="10.00">unordered_map</text>
</g>
<!-- Node13&#45;&gt;Node14 -->
<g id="edge21" class="edge"><title>Node13&#45;&gt;Node14</title>
<path fill="none" stroke="midnightblue" d="M471.151,-112.444C436.602,-103.162 381.318,-88.3093 343.417,-78.127"/>
<polygon fill="midnightblue" stroke="midnightblue" points="344.266,-74.7309 333.7,-75.5164 342.449,-81.4912 344.266,-74.7309"/>
</g>
<!-- Node15 -->
<g id="node16" class="node"><title>Node15</title>
<polygon fill="white" stroke="#bfbfbf" points="531,-56.5 531,-75.5 577,-75.5 577,-56.5 531,-56.5"/>
<text text-anchor="middle" x="554" y="-63.5" font-family="Helvetica,sans-Serif" font-size="10.00">cstdint</text>
</g>
<!-- Node13&#45;&gt;Node15 -->
<g id="edge22" class="edge"><title>Node13&#45;&gt;Node15</title>
<path fill="none" stroke="midnightblue" d="M511.422,-112.083C518.848,-104.22 529.852,-92.5688 538.812,-83.0813"/>
<polygon fill="midnightblue" stroke="midnightblue" points="541.413,-85.4244 545.735,-75.7511 536.324,-80.618 541.413,-85.4244"/>
</g>
<!-- Node16&#45;&gt;Node2 -->
<g id="edge25" class="edge"><title>Node16&#45;&gt;Node2</title>
<path fill="none" stroke="midnightblue" d="M123.461,-112.444C104.377,-103.636 74.4251,-89.8116 52.5643,-79.722"/>
<polygon fill="midnightblue" stroke="midnightblue" points="53.9986,-76.5292 43.4523,-75.5164 51.0651,-82.8849 53.9986,-76.5292"/>
</g>
<!-- Node16&#45;&gt;Node3 -->
<g id="edge27" class="edge"><title>Node16&#45;&gt;Node3</title>
<path fill="none" stroke="midnightblue" d="M133.413,-112.083C125.841,-104.22 114.622,-92.5688 105.486,-83.0813"/>
<polygon fill="midnightblue" stroke="midnightblue" points="107.885,-80.5266 98.427,-75.7511 102.842,-85.3821 107.885,-80.5266"/>
</g>
<!-- Node16&#45;&gt;Node14 -->
<g id="edge26" class="edge"><title>Node16&#45;&gt;Node14</title>
<path fill="none" stroke="midnightblue" d="M167.352,-112.444C194.269,-103.359 236.996,-88.9388 267.087,-78.7831"/>
<polygon fill="midnightblue" stroke="midnightblue" points="268.41,-82.0305 276.766,-75.5164 266.172,-75.3981 268.41,-82.0305"/>
</g>
<!-- Node18 -->
<g id="node19" class="node"><title>Node18</title>
<polygon fill="white" stroke="#bfbfbf" points="633,-168.5 633,-187.5 687,-187.5 687,-168.5 633,-168.5"/>
<text text-anchor="middle" x="660" y="-175.5" font-family="Helvetica,sans-Serif" font-size="10.00">iostream</text>
</g>
<!-- Node17&#45;&gt;Node18 -->
<g id="edge29" class="edge"><title>Node17&#45;&gt;Node18</title>
<path fill="none" stroke="midnightblue" d="M660,-224.083C660,-217.006 660,-206.861 660,-197.986"/>
<polygon fill="midnightblue" stroke="midnightblue" points="663.5,-197.751 660,-187.751 656.5,-197.751 663.5,-197.751"/>
</g>
<!-- Node19 -->
<g id="node20" class="node"><title>Node19</title>
<polygon fill="white" stroke="#bfbfbf" points="705,-168.5 705,-187.5 753,-187.5 753,-168.5 705,-168.5"/>
<text text-anchor="middle" x="729" y="-175.5" font-family="Helvetica,sans-Serif" font-size="10.00">stdlib.h</text>
</g>
<!-- Node17&#45;&gt;Node19 -->
<g id="edge30" class="edge"><title>Node17&#45;&gt;Node19</title>
<path fill="none" stroke="midnightblue" d="M671.086,-224.324C681.486,-216.185 697.261,-203.839 709.722,-194.087"/>
<polygon fill="midnightblue" stroke="midnightblue" points="711.994,-196.753 717.712,-187.834 707.68,-191.241 711.994,-196.753"/>
</g>
<!-- Node20&#45;&gt;Node7 -->
<g id="edge32" class="edge"><title>Node20&#45;&gt;Node7</title>
<path fill="none" stroke="midnightblue" d="M480.64,-224.368C449.104,-205.412 373.556,-160.001 335.195,-136.942"/>
<polygon fill="midnightblue" stroke="midnightblue" points="336.667,-133.744 326.293,-131.591 333.061,-139.743 336.667,-133.744"/>
</g>
<!-- Node20&#45;&gt;Node10 -->
<g id="edge33" class="edge"><title>Node20&#45;&gt;Node10</title>
<path fill="none" stroke="midnightblue" d="M524.766,-226.952C545.866,-220.942 572.703,-209.41 586,-188 616.953,-138.163 618.035,-105.148 586,-56 570.993,-32.977 541.255,-21.6498 517.744,-16.127"/>
<polygon fill="midnightblue" stroke="midnightblue" points="518.288,-12.6651 507.783,-14.0373 516.851,-19.516 518.288,-12.6651"/>
</g>
<!-- Node21 -->
<g id="node22" class="node"><title>Node21</title>
<g id="a_node22"><a xlink:href="ActionManager_8h.html" target="_top" xlink:title="ActionManager.h">
<polygon fill="white" stroke="black" points="487,-168.5 487,-187.5 577,-187.5 577,-168.5 487,-168.5"/>
<text text-anchor="middle" x="532" y="-175.5" font-family="Helvetica,sans-Serif" font-size="10.00">ActionManager.h</text>
</a>
</g>
</g>
<!-- Node20&#45;&gt;Node21 -->
<g id="edge34" class="edge"><title>Node20&#45;&gt;Node21</title>
<path fill="none" stroke="midnightblue" d="M501.11,-224.083C506.282,-216.534 513.846,-205.495 520.194,-196.23"/>
<polygon fill="midnightblue" stroke="midnightblue" points="523.239,-197.979 526.004,-187.751 517.464,-194.022 523.239,-197.979"/>
</g>
<!-- Node21&#45;&gt;Node13 -->
<g id="edge35" class="edge"><title>Node21&#45;&gt;Node13</title>
<path fill="none" stroke="midnightblue" d="M527.211,-168.083C523.242,-160.691 517.475,-149.953 512.565,-140.811"/>
<polygon fill="midnightblue" stroke="midnightblue" points="515.514,-138.905 507.7,-131.751 509.347,-142.217 515.514,-138.905"/>
</g>
</g>
</svg>
