<?xml version="1.0" encoding="UTF-8" standalone="no"?>
<!DOCTYPE svg PUBLIC "-//W3C//DTD SVG 1.1//EN"
 "http://www.w3.org/Graphics/SVG/1.1/DTD/svg11.dtd">
<!-- Generated by graphviz version 2.38.0 (20140413.2041)
 -->
<!-- Title: Engine/include/Sprite.h Pages: 1 -->
<svg width="1142pt" height="364pt"
 viewBox="0.00 0.00 1141.50 364.00" xmlns="http://www.w3.org/2000/svg" xmlns:xlink="http://www.w3.org/1999/xlink">
<g id="graph0" class="graph" transform="scale(1 1) rotate(0) translate(4 360)">
<title>Engine/include/Sprite.h</title>
<polygon fill="white" stroke="none" points="-4,4 -4,-360 1137.5,-360 1137.5,4 -4,4"/>
<!-- Node4 -->
<g id="node1" class="node"><title>Node4</title>
<polygon fill="#bfbfbf" stroke="black" points="601,-336.5 601,-355.5 718,-355.5 718,-336.5 601,-336.5"/>
<text text-anchor="middle" x="659.5" y="-343.5" font-family="Helvetica,sans-Serif" font-size="10.00">Engine/include/Sprite.h</text>
</g>
<!-- Node5 -->
<g id="node2" class="node"><title>Node5</title>
<g id="a_node2"><a xlink:href="Animation_8h.html" target="_top" xlink:title="Engine/include/Animation.h">
<polygon fill="white" stroke="black" points="106,-280.5 106,-299.5 241,-299.5 241,-280.5 106,-280.5"/>
<text text-anchor="middle" x="173.5" y="-287.5" font-family="Helvetica,sans-Serif" font-size="10.00">Engine/include/Animation.h</text>
</a>
</g>
</g>
<!-- Node4&#45;&gt;Node5 -->
<g id="edge1" class="edge"><title>Node4&#45;&gt;Node5</title>
<path fill="none" stroke="midnightblue" d="M590.749,-337.361C497.947,-327.05 333.615,-308.791 241.303,-298.534"/>
<polygon fill="midnightblue" stroke="midnightblue" points="590.552,-340.861 600.877,-338.486 591.325,-333.903 590.552,-340.861"/>
</g>
<!-- Node7 -->
<g id="node4" class="node"><title>Node7</title>
<g id="a_node4"><a xlink:href="Tileset_8h.html" target="_top" xlink:title="Engine/include/Tileset.h">
<polygon fill="white" stroke="black" points="493,-280.5 493,-299.5 614,-299.5 614,-280.5 493,-280.5"/>
<text text-anchor="middle" x="553.5" y="-287.5" font-family="Helvetica,sans-Serif" font-size="10.00">Engine/include/Tileset.h</text>
</a>
</g>
</g>
<!-- Node4&#45;&gt;Node7 -->
<g id="edge3" class="edge"><title>Node4&#45;&gt;Node7</title>
<path fill="none" stroke="midnightblue" d="M633.444,-331.726C613.816,-321.727 587.472,-308.307 570.488,-299.655"/>
<polygon fill="midnightblue" stroke="midnightblue" points="631.97,-334.903 642.469,-336.324 635.148,-328.666 631.97,-334.903"/>
</g>
<!-- Node11 -->
<g id="node8" class="node"><title>Node11</title>
<g id="a_node8"><a xlink:href="StageState_8h.html" target="_top" xlink:title="Game/include/StageState.h">
<polygon fill="white" stroke="black" points="523,-112.5 523,-131.5 660,-131.5 660,-112.5 523,-112.5"/>
<text text-anchor="middle" x="591.5" y="-119.5" font-family="Helvetica,sans-Serif" font-size="10.00">Game/include/StageState.h</text>
</a>
</g>
</g>
<!-- Node4&#45;&gt;Node11 -->
<g id="edge28" class="edge"><title>Node4&#45;&gt;Node11</title>
<path fill="none" stroke="midnightblue" d="M657.79,-326.085C654.287,-292.928 644.587,-222.645 621.5,-168 615.726,-154.334 605.652,-140.396 598.785,-131.727"/>
<polygon fill="midnightblue" stroke="midnightblue" points="654.321,-326.569 658.783,-336.178 661.287,-325.883 654.321,-326.569"/>
</g>
<!-- Node12 -->
<g id="node9" class="node"><title>Node12</title>
<g id="a_node9"><a xlink:href="EndState_8h.html" target="_top" xlink:title="Game/include/EndState.h">
<polygon fill="white" stroke="black" points="527.5,-56.5 527.5,-75.5 655.5,-75.5 655.5,-56.5 527.5,-56.5"/>
<text text-anchor="middle" x="591.5" y="-63.5" font-family="Helvetica,sans-Serif" font-size="10.00">Game/include/EndState.h</text>
</a>
</g>
</g>
<!-- Node4&#45;&gt;Node12 -->
<g id="edge27" class="edge"><title>Node4&#45;&gt;Node12</title>
<path fill="none" stroke="midnightblue" d="M669.643,-327.429C680.9,-306.236 697.5,-269.187 697.5,-235 697.5,-235 697.5,-235 697.5,-177 697.5,-145.366 689.614,-135.556 668.5,-112 653.515,-95.2817 630.802,-83.0654 613.923,-75.6146"/>
<polygon fill="midnightblue" stroke="midnightblue" points="666.553,-325.785 664.784,-336.231 672.681,-329.168 666.553,-325.785"/>
</g>
<!-- Node18 -->
<g id="node15" class="node"><title>Node18</title>
<g id="a_node15"><a xlink:href="Enemy_8h.html" target="_top" xlink:title="Game/include/Enemy.h">
<polygon fill="white" stroke="black" points="0,-168.5 0,-187.5 119,-187.5 119,-168.5 0,-168.5"/>
<text text-anchor="middle" x="59.5" y="-175.5" font-family="Helvetica,sans-Serif" font-size="10.00">Game/include/Enemy.h</text>
</a>
</g>
</g>
<!-- Node4&#45;&gt;Node18 -->
<g id="edge29" class="edge"><title>Node4&#45;&gt;Node18</title>
<path fill="none" stroke="midnightblue" d="M590.821,-336.193C541.87,-328.961 474.848,-317.104 417.5,-300 355.645,-281.552 341.741,-271.826 283.5,-244 266.633,-235.942 263.956,-230.687 246.5,-224 201.754,-206.858 148.414,-194.794 110.175,-187.502"/>
<polygon fill="midnightblue" stroke="midnightblue" points="590.584,-339.696 600.983,-337.667 591.589,-332.768 590.584,-339.696"/>
</g>
<!-- Node20 -->
<g id="node17" class="node"><title>Node20</title>
<g id="a_node17"><a xlink:href="Face_8h.html" target="_top" xlink:title="Game/include/Face.h">
<polygon fill="white" stroke="black" points="137.5,-168.5 137.5,-187.5 247.5,-187.5 247.5,-168.5 137.5,-168.5"/>
<text text-anchor="middle" x="192.5" y="-175.5" font-family="Helvetica,sans-Serif" font-size="10.00">Game/include/Face.h</text>
</a>
</g>
</g>
<!-- Node4&#45;&gt;Node20 -->
<g id="edge30" class="edge"><title>Node4&#45;&gt;Node20</title>
<path fill="none" stroke="midnightblue" d="M611.69,-334.039C576.104,-325.575 526.463,-313.124 483.5,-300 412.648,-278.357 394.818,-272.653 326.5,-244 314.906,-239.137 243.579,-204.143 209.977,-187.61"/>
<polygon fill="midnightblue" stroke="midnightblue" points="611.261,-337.534 621.798,-336.425 612.87,-330.721 611.261,-337.534"/>
</g>
<!-- Node22 -->
<g id="node19" class="node"><title>Node22</title>
<g id="a_node19"><a xlink:href="HitPoints_8h.html" target="_top" xlink:title="Engine/include/HitPoints.h">
<polygon fill="white" stroke="black" points="873.5,-280.5 873.5,-299.5 1005.5,-299.5 1005.5,-280.5 873.5,-280.5"/>
<text text-anchor="middle" x="939.5" y="-287.5" font-family="Helvetica,sans-Serif" font-size="10.00">Engine/include/HitPoints.h</text>
</a>
</g>
</g>
<!-- Node4&#45;&gt;Node22 -->
<g id="edge24" class="edge"><title>Node4&#45;&gt;Node22</title>
<path fill="none" stroke="midnightblue" d="M713.752,-334.537C766.67,-324.332 846.171,-308.999 895.341,-299.516"/>
<polygon fill="midnightblue" stroke="midnightblue" points="713.023,-331.113 703.867,-336.444 714.349,-337.986 713.023,-331.113"/>
</g>
<!-- Node24 -->
<g id="node21" class="node"><title>Node24</title>
<g id="a_node21"><a xlink:href="Sprite_8cpp.html" target="_top" xlink:title="Engine/src/Sprite.cpp">
<polygon fill="white" stroke="black" points="1023.5,-280.5 1023.5,-299.5 1133.5,-299.5 1133.5,-280.5 1023.5,-280.5"/>
<text text-anchor="middle" x="1078.5" y="-287.5" font-family="Helvetica,sans-Serif" font-size="10.00">Engine/src/Sprite.cpp</text>
</a>
</g>
</g>
<!-- Node4&#45;&gt;Node24 -->
<g id="edge26" class="edge"><title>Node4&#45;&gt;Node24</title>
<path fill="none" stroke="midnightblue" d="M728.499,-336.536C800.058,-327.692 915.166,-313.28 1014.5,-300 1017.39,-299.613 1020.36,-299.213 1023.35,-298.804"/>
<polygon fill="midnightblue" stroke="midnightblue" points="727.76,-333.101 718.264,-337.8 728.618,-340.048 727.76,-333.101"/>
</g>
<!-- Node25 -->
<g id="node22" class="node"><title>Node25</title>
<g id="a_node22"><a xlink:href="TitleState_8h.html" target="_top" xlink:title="Game/include/TitleState.h">
<polygon fill="white" stroke="black" points="725.5,-280.5 725.5,-299.5 855.5,-299.5 855.5,-280.5 725.5,-280.5"/>
<text text-anchor="middle" x="790.5" y="-287.5" font-family="Helvetica,sans-Serif" font-size="10.00">Game/include/TitleState.h</text>
</a>
</g>
</g>
<!-- Node4&#45;&gt;Node25 -->
<g id="edge31" class="edge"><title>Node4&#45;&gt;Node25</title>
<path fill="none" stroke="midnightblue" d="M689.817,-332.503C714.376,-322.38 748.318,-308.388 769.84,-299.516"/>
<polygon fill="midnightblue" stroke="midnightblue" points="688.169,-329.397 680.257,-336.444 690.837,-335.868 688.169,-329.397"/>
</g>
<!-- Node6 -->
<g id="node3" class="node"><title>Node6</title>
<g id="a_node3"><a xlink:href="Animation_8cpp.html" target="_top" xlink:title="Engine/src/Animation.cpp">
<polygon fill="white" stroke="black" points="109.5,-224.5 109.5,-243.5 237.5,-243.5 237.5,-224.5 109.5,-224.5"/>
<text text-anchor="middle" x="173.5" y="-231.5" font-family="Helvetica,sans-Serif" font-size="10.00">Engine/src/Animation.cpp</text>
</a>
</g>
</g>
<!-- Node5&#45;&gt;Node6 -->
<g id="edge2" class="edge"><title>Node5&#45;&gt;Node6</title>
<path fill="none" stroke="midnightblue" d="M173.5,-269.805C173.5,-260.91 173.5,-250.78 173.5,-243.751"/>
<polygon fill="midnightblue" stroke="midnightblue" points="170,-270.083 173.5,-280.083 177,-270.083 170,-270.083"/>
</g>
<!-- Node8 -->
<g id="node5" class="node"><title>Node8</title>
<g id="a_node5"><a xlink:href="TileMap_8h.html" target="_top" xlink:title="Engine/include/TileMap.h">
<polygon fill="white" stroke="black" points="335.5,-224.5 335.5,-243.5 461.5,-243.5 461.5,-224.5 335.5,-224.5"/>
<text text-anchor="middle" x="398.5" y="-231.5" font-family="Helvetica,sans-Serif" font-size="10.00">Engine/include/TileMap.h</text>
</a>
</g>
</g>
<!-- Node7&#45;&gt;Node8 -->
<g id="edge4" class="edge"><title>Node7&#45;&gt;Node8</title>
<path fill="none" stroke="midnightblue" d="M519.168,-277.039C490.003,-266.879 448.863,-252.546 422.945,-243.516"/>
<polygon fill="midnightblue" stroke="midnightblue" points="518.345,-280.459 528.94,-280.444 520.648,-273.848 518.345,-280.459"/>
</g>
<!-- Node7&#45;&gt;Node11 -->
<g id="edge23" class="edge"><title>Node7&#45;&gt;Node11</title>
<path fill="none" stroke="midnightblue" d="M576.596,-274.354C586.542,-266.659 597.11,-256.268 602.5,-244 619.639,-204.99 602.882,-152.206 595.05,-131.673"/>
<polygon fill="midnightblue" stroke="midnightblue" points="574.248,-271.73 568.161,-280.402 578.328,-277.419 574.248,-271.73"/>
</g>
<!-- Node21 -->
<g id="node18" class="node"><title>Node21</title>
<g id="a_node18"><a xlink:href="Tileset_8cpp.html" target="_top" xlink:title="Engine/src/Tileset.cpp">
<polygon fill="white" stroke="black" points="479.5,-224.5 479.5,-243.5 593.5,-243.5 593.5,-224.5 479.5,-224.5"/>
<text text-anchor="middle" x="536.5" y="-231.5" font-family="Helvetica,sans-Serif" font-size="10.00">Engine/src/Tileset.cpp</text>
</a>
</g>
</g>
<!-- Node7&#45;&gt;Node21 -->
<g id="edge22" class="edge"><title>Node7&#45;&gt;Node21</title>
<path fill="none" stroke="midnightblue" d="M547.643,-270.396C544.799,-261.362 541.517,-250.936 539.255,-243.751"/>
<polygon fill="midnightblue" stroke="midnightblue" points="544.351,-271.596 550.693,-280.083 551.028,-269.493 544.351,-271.596"/>
</g>
<!-- Node9 -->
<g id="node6" class="node"><title>Node9</title>
<g id="a_node6"><a xlink:href="DragAndDrop_8h.html" target="_top" xlink:title="Engine/include/DragAndDrop.h">
<polygon fill="white" stroke="black" points="266,-168.5 266,-187.5 417,-187.5 417,-168.5 266,-168.5"/>
<text text-anchor="middle" x="341.5" y="-175.5" font-family="Helvetica,sans-Serif" font-size="10.00">Engine/include/DragAndDrop.h</text>
</a>
</g>
</g>
<!-- Node8&#45;&gt;Node9 -->
<g id="edge5" class="edge"><title>Node8&#45;&gt;Node9</title>
<path fill="none" stroke="midnightblue" d="M381.879,-217.253C371.766,-207.673 359.223,-195.791 350.825,-187.834"/>
<polygon fill="midnightblue" stroke="midnightblue" points="379.675,-219.987 389.342,-224.324 384.49,-214.906 379.675,-219.987"/>
</g>
<!-- Node8&#45;&gt;Node11 -->
<g id="edge15" class="edge"><title>Node8&#45;&gt;Node11</title>
<path fill="none" stroke="midnightblue" d="M411.63,-216.47C423.934,-201.94 443.531,-181.122 464.5,-168 492.36,-150.566 527.894,-138.714 554.286,-131.568"/>
<polygon fill="midnightblue" stroke="midnightblue" points="408.926,-214.247 405.273,-224.192 414.33,-218.696 408.926,-214.247"/>
</g>
<!-- Node17 -->
<g id="node14" class="node"><title>Node17</title>
<g id="a_node14"><a xlink:href="TileMap_8cpp.html" target="_top" xlink:title="Engine/src/TileMap.cpp">
<polygon fill="white" stroke="black" points="474,-168.5 474,-187.5 593,-187.5 593,-168.5 474,-168.5"/>
<text text-anchor="middle" x="533.5" y="-175.5" font-family="Helvetica,sans-Serif" font-size="10.00">Engine/src/TileMap.cpp</text>
</a>
</g>
</g>
<!-- Node8&#45;&gt;Node17 -->
<g id="edge14" class="edge"><title>Node8&#45;&gt;Node17</title>
<path fill="none" stroke="midnightblue" d="M429.406,-220.638C454.74,-210.504 489.931,-196.427 512.209,-187.516"/>
<polygon fill="midnightblue" stroke="midnightblue" points="427.876,-217.48 419.891,-224.444 430.476,-223.979 427.876,-217.48"/>
</g>
<!-- Node8&#45;&gt;Node18 -->
<g id="edge16" class="edge"><title>Node8&#45;&gt;Node18</title>
<path fill="none" stroke="midnightblue" d="M334.804,-222.854C270.753,-212.651 173.114,-197.098 112.964,-187.516"/>
<polygon fill="midnightblue" stroke="midnightblue" points="334.358,-226.327 344.784,-224.444 335.46,-219.414 334.358,-226.327"/>
</g>
<!-- Node8&#45;&gt;Node20 -->
<g id="edge19" class="edge"><title>Node8&#45;&gt;Node20</title>
<path fill="none" stroke="midnightblue" d="M355.885,-221.829C316.99,-211.633 260.336,-196.782 224.989,-187.516"/>
<polygon fill="midnightblue" stroke="midnightblue" points="355.298,-225.293 365.859,-224.444 357.073,-218.522 355.298,-225.293"/>
</g>
<!-- Node10 -->
<g id="node7" class="node"><title>Node10</title>
<g id="a_node7"><a xlink:href="DragAndDrop_8cpp.html" target="_top" xlink:title="Engine/src/DragAndDrop.cpp">
<polygon fill="white" stroke="black" points="342.5,-112.5 342.5,-131.5 486.5,-131.5 486.5,-112.5 342.5,-112.5"/>
<text text-anchor="middle" x="414.5" y="-119.5" font-family="Helvetica,sans-Serif" font-size="10.00">Engine/src/DragAndDrop.cpp</text>
</a>
</g>
</g>
<!-- Node9&#45;&gt;Node10 -->
<g id="edge6" class="edge"><title>Node9&#45;&gt;Node10</title>
<path fill="none" stroke="midnightblue" d="M361.642,-162.101C374.779,-152.382 391.482,-140.027 402.558,-131.834"/>
<polygon fill="midnightblue" stroke="midnightblue" points="359.187,-159.563 353.229,-168.324 363.35,-165.191 359.187,-159.563"/>
</g>
<!-- Node9&#45;&gt;Node11 -->
<g id="edge7" class="edge"><title>Node9&#45;&gt;Node11</title>
<path fill="none" stroke="midnightblue" d="M391.123,-166.281C438.366,-156.077 508.536,-140.92 552.072,-131.516"/>
<polygon fill="midnightblue" stroke="midnightblue" points="390.149,-162.911 381.113,-168.444 391.627,-169.753 390.149,-162.911"/>
</g>
<!-- Node16 -->
<g id="node13" class="node"><title>Node16</title>
<g id="a_node13"><a xlink:href="Face_8cpp.html" target="_top" xlink:title="Game/src/Face.cpp">
<polygon fill="white" stroke="black" points="221,-112.5 221,-131.5 324,-131.5 324,-112.5 221,-112.5"/>
<text text-anchor="middle" x="272.5" y="-119.5" font-family="Helvetica,sans-Serif" font-size="10.00">Game/src/Face.cpp</text>
</a>
</g>
</g>
<!-- Node9&#45;&gt;Node16 -->
<g id="edge13" class="edge"><title>Node9&#45;&gt;Node16</title>
<path fill="none" stroke="midnightblue" d="M322.462,-162.101C310.044,-152.382 294.257,-140.027 283.788,-131.834"/>
<polygon fill="midnightblue" stroke="midnightblue" points="320.382,-164.917 330.414,-168.324 324.696,-159.405 320.382,-164.917"/>
</g>
<!-- Node11&#45;&gt;Node12 -->
<g id="edge8" class="edge"><title>Node11&#45;&gt;Node12</title>
<path fill="none" stroke="midnightblue" d="M585.028,-102.101C584.396,-93.1357 584.843,-82.8579 586.369,-75.7511"/>
<polygon fill="midnightblue" stroke="midnightblue" points="581.566,-102.622 586.334,-112.083 588.507,-101.713 581.566,-102.622"/>
</g>
<!-- Node14 -->
<g id="node11" class="node"><title>Node14</title>
<g id="a_node11"><a xlink:href="StageState_8cpp.html" target="_top" xlink:title="Game/src/StageState.cpp">
<polygon fill="white" stroke="black" points="127.5,-56.5 127.5,-75.5 257.5,-75.5 257.5,-56.5 127.5,-56.5"/>
<text text-anchor="middle" x="192.5" y="-63.5" font-family="Helvetica,sans-Serif" font-size="10.00">Game/src/StageState.cpp</text>
</a>
</g>
</g>
<!-- Node11&#45;&gt;Node14 -->
<g id="edge11" class="edge"><title>Node11&#45;&gt;Node14</title>
<path fill="none" stroke="midnightblue" d="M517.922,-111.042C442.564,-100.843 326.659,-85.1569 255.427,-75.5164"/>
<polygon fill="midnightblue" stroke="midnightblue" points="517.898,-114.571 528.277,-112.444 518.837,-107.634 517.898,-114.571"/>
</g>
<!-- Node15 -->
<g id="node12" class="node"><title>Node15</title>
<g id="a_node12"><a xlink:href="TitleState_8cpp.html" target="_top" xlink:title="Game/src/TitleState.cpp">
<polygon fill="white" stroke="black" points="674,-56.5 674,-75.5 797,-75.5 797,-56.5 674,-56.5"/>
<text text-anchor="middle" x="735.5" y="-63.5" font-family="Helvetica,sans-Serif" font-size="10.00">Game/src/TitleState.cpp</text>
</a>
</g>
</g>
<!-- Node11&#45;&gt;Node15 -->
<g id="edge12" class="edge"><title>Node11&#45;&gt;Node15</title>
<path fill="none" stroke="midnightblue" d="M623.751,-108.906C650.824,-98.7536 688.817,-84.5063 712.79,-75.5164"/>
<polygon fill="midnightblue" stroke="midnightblue" points="622.452,-105.655 614.317,-112.444 624.909,-112.209 622.452,-105.655"/>
</g>
<!-- Node12&#45;&gt;Node11 -->
<g id="edge9" class="edge"><title>Node12&#45;&gt;Node11</title>
<path fill="none" stroke="midnightblue" d="M597.958,-85.6911C598.606,-94.6353 598.176,-104.927 596.666,-112.083"/>
<polygon fill="midnightblue" stroke="midnightblue" points="601.423,-85.2002 596.631,-75.7511 594.485,-86.1262 601.423,-85.2002"/>
</g>
<!-- Node13 -->
<g id="node10" class="node"><title>Node13</title>
<g id="a_node10"><a xlink:href="EndState_8cpp.html" target="_top" xlink:title="Game/src/EndState.cpp">
<polygon fill="white" stroke="black" points="530.5,-0.5 530.5,-19.5 652.5,-19.5 652.5,-0.5 530.5,-0.5"/>
<text text-anchor="middle" x="591.5" y="-7.5" font-family="Helvetica,sans-Serif" font-size="10.00">Game/src/EndState.cpp</text>
</a>
</g>
</g>
<!-- Node12&#45;&gt;Node13 -->
<g id="edge10" class="edge"><title>Node12&#45;&gt;Node13</title>
<path fill="none" stroke="midnightblue" d="M591.5,-45.8045C591.5,-36.9102 591.5,-26.7798 591.5,-19.7511"/>
<polygon fill="midnightblue" stroke="midnightblue" points="588,-46.083 591.5,-56.083 595,-46.083 588,-46.083"/>
</g>
<!-- Node18&#45;&gt;Node14 -->
<g id="edge18" class="edge"><title>Node18&#45;&gt;Node14</title>
<path fill="none" stroke="midnightblue" d="M47.8651,-159.393C40.1838,-145.343 33.2542,-125.797 43.5,-112 62.8323,-85.9666 96.7799,-74.4518 127.393,-69.5647"/>
<polygon fill="midnightblue" stroke="midnightblue" points="44.9493,-161.336 53.1012,-168.103 50.9487,-157.729 44.9493,-161.336"/>
</g>
<!-- Node19 -->
<g id="node16" class="node"><title>Node19</title>
<g id="a_node16"><a xlink:href="Enemy_8cpp.html" target="_top" xlink:title="Game/src/Enemy.cpp">
<polygon fill="white" stroke="black" points="52.5,-112.5 52.5,-131.5 164.5,-131.5 164.5,-112.5 52.5,-112.5"/>
<text text-anchor="middle" x="108.5" y="-119.5" font-family="Helvetica,sans-Serif" font-size="10.00">Game/src/Enemy.cpp</text>
</a>
</g>
</g>
<!-- Node18&#45;&gt;Node19 -->
<g id="edge17" class="edge"><title>Node18&#45;&gt;Node19</title>
<path fill="none" stroke="midnightblue" d="M74.5345,-160.431C83.1222,-150.967 93.5435,-139.483 100.559,-131.751"/>
<polygon fill="midnightblue" stroke="midnightblue" points="71.7193,-158.325 67.5914,-168.083 76.9033,-163.029 71.7193,-158.325"/>
</g>
<!-- Node20&#45;&gt;Node14 -->
<g id="edge21" class="edge"><title>Node20&#45;&gt;Node14</title>
<path fill="none" stroke="midnightblue" d="M192.5,-158.348C192.5,-134.254 192.5,-93.3079 192.5,-75.5914"/>
<polygon fill="midnightblue" stroke="midnightblue" points="189,-158.368 192.5,-168.368 196,-158.369 189,-158.368"/>
</g>
<!-- Node20&#45;&gt;Node16 -->
<g id="edge20" class="edge"><title>Node20&#45;&gt;Node16</title>
<path fill="none" stroke="midnightblue" d="M213.801,-162.622C228.415,-152.757 247.327,-139.992 259.679,-131.655"/>
<polygon fill="midnightblue" stroke="midnightblue" points="211.684,-159.828 205.353,-168.324 215.6,-165.63 211.684,-159.828"/>
</g>
<!-- Node23 -->
<g id="node20" class="node"><title>Node23</title>
<g id="a_node20"><a xlink:href="HItPoints_8cpp.html" target="_top" xlink:title="Engine/src/HItPoints.cpp">
<polygon fill="white" stroke="black" points="883.5,-224.5 883.5,-243.5 1009.5,-243.5 1009.5,-224.5 883.5,-224.5"/>
<text text-anchor="middle" x="946.5" y="-231.5" font-family="Helvetica,sans-Serif" font-size="10.00">Engine/src/HItPoints.cpp</text>
</a>
</g>
</g>
<!-- Node22&#45;&gt;Node23 -->
<g id="edge25" class="edge"><title>Node22&#45;&gt;Node23</title>
<path fill="none" stroke="midnightblue" d="M941.95,-270.101C943.112,-261.136 944.444,-250.858 945.366,-243.751"/>
<polygon fill="midnightblue" stroke="midnightblue" points="938.471,-269.716 940.656,-280.083 945.412,-270.616 938.471,-269.716"/>
</g>
<!-- Node25&#45;&gt;Node15 -->
<g id="edge33" class="edge"><title>Node25&#45;&gt;Node15</title>
<path fill="none" stroke="midnightblue" d="M773.902,-272.928C766.698,-264.937 758.913,-254.71 754.5,-244 729.539,-183.421 732.89,-101.791 734.779,-75.5202"/>
<polygon fill="midnightblue" stroke="midnightblue" points="771.588,-275.572 781.034,-280.371 776.643,-270.729 771.588,-275.572"/>
</g>
<!-- Node26 -->
<g id="node23" class="node"><title>Node26</title>
<g id="a_node23"><a xlink:href="main_8cpp.html" target="_top" xlink:title="Game/src/main.cpp">
<polygon fill="white" stroke="black" points="763.5,-224.5 763.5,-243.5 865.5,-243.5 865.5,-224.5 763.5,-224.5"/>
<text text-anchor="middle" x="814.5" y="-231.5" font-family="Helvetica,sans-Serif" font-size="10.00">Game/src/main.cpp</text>
</a>
</g>
</g>
<!-- Node25&#45;&gt;Node26 -->
<g id="edge32" class="edge"><title>Node25&#45;&gt;Node26</title>
<path fill="none" stroke="midnightblue" d="M798.638,-270.69C802.683,-261.589 807.383,-251.014 810.611,-243.751"/>
<polygon fill="midnightblue" stroke="midnightblue" points="795.326,-269.523 794.463,-280.083 801.723,-272.366 795.326,-269.523"/>
</g>
</g>
</svg>
