<?xml version="1.0" encoding="UTF-8" standalone="no"?>
<!DOCTYPE svg PUBLIC "-//W3C//DTD SVG 1.1//EN"
 "http://www.w3.org/Graphics/SVG/1.1/DTD/svg11.dtd">
<!-- Generated by graphviz version 2.38.0 (20140413.2041)
 -->
<!-- Title: Engine/src/Sprite.cpp Pages: 1 -->
<svg width="753pt" height="308pt"
 viewBox="0.00 0.00 752.58 308.00" xmlns="http://www.w3.org/2000/svg" xmlns:xlink="http://www.w3.org/1999/xlink">
<g id="graph0" class="graph" transform="scale(1 1) rotate(0) translate(4 304)">
<title>Engine/src/Sprite.cpp</title>
<polygon fill="white" stroke="none" points="-4,4 -4,-304 748.577,-304 748.577,4 -4,4"/>
<!-- Node0 -->
<g id="node1" class="node"><title>Node0</title>
<polygon fill="#bfbfbf" stroke="black" points="275,-280.5 275,-299.5 385,-299.5 385,-280.5 275,-280.5"/>
<text text-anchor="middle" x="330" y="-287.5" font-family="Helvetica,sans-Serif" font-size="10.00">Engine/src/Sprite.cpp</text>
</g>
<!-- Node1 -->
<g id="node2" class="node"><title>Node1</title>
<g id="a_node2"><a xlink:href="Sprite_8h.html" target="_top" xlink:title="Sprite.h">
<polygon fill="white" stroke="black" points="26,-112.5 26,-131.5 76,-131.5 76,-112.5 26,-112.5"/>
<text text-anchor="middle" x="51" y="-119.5" font-family="Helvetica,sans-Serif" font-size="10.00">Sprite.h</text>
</a>
</g>
</g>
<!-- Node0&#45;&gt;Node1 -->
<g id="edge1" class="edge"><title>Node0&#45;&gt;Node1</title>
<path fill="none" stroke="midnightblue" d="M315.393,-280.309C269.817,-253.192 129.961,-169.98 74.2519,-136.834"/>
<polygon fill="midnightblue" stroke="midnightblue" points="75.8464,-133.711 65.4628,-131.605 72.2671,-139.726 75.8464,-133.711"/>
</g>
<!-- Node5 -->
<g id="node6" class="node"><title>Node5</title>
<g id="a_node6"><a xlink:href="Game_8h.html" target="_top" xlink:title="Game.h">
<polygon fill="white" stroke="black" points="304.5,-224.5 304.5,-243.5 355.5,-243.5 355.5,-224.5 304.5,-224.5"/>
<text text-anchor="middle" x="330" y="-231.5" font-family="Helvetica,sans-Serif" font-size="10.00">Game.h</text>
</a>
</g>
</g>
<!-- Node0&#45;&gt;Node5 -->
<g id="edge5" class="edge"><title>Node0&#45;&gt;Node5</title>
<path fill="none" stroke="midnightblue" d="M330,-280.083C330,-273.006 330,-262.861 330,-253.986"/>
<polygon fill="midnightblue" stroke="midnightblue" points="333.5,-253.751 330,-243.751 326.5,-253.751 333.5,-253.751"/>
</g>
<!-- Node18 -->
<g id="node19" class="node"><title>Node18</title>
<g id="a_node19"><a xlink:href="Resources_8h.html" target="_top" xlink:title="Resources.h">
<polygon fill="white" stroke="black" points="132,-112.5 132,-131.5 204,-131.5 204,-112.5 132,-112.5"/>
<text text-anchor="middle" x="168" y="-119.5" font-family="Helvetica,sans-Serif" font-size="10.00">Resources.h</text>
</a>
</g>
</g>
<!-- Node0&#45;&gt;Node18 -->
<g id="edge27" class="edge"><title>Node0&#45;&gt;Node18</title>
<path fill="none" stroke="midnightblue" d="M321.29,-280.075C295.128,-253.267 216.981,-173.19 183.502,-138.885"/>
<polygon fill="midnightblue" stroke="midnightblue" points="185.851,-136.28 176.362,-131.568 180.841,-141.169 185.851,-136.28"/>
</g>
<!-- Node19 -->
<g id="node20" class="node"><title>Node19</title>
<g id="a_node20"><a xlink:href="Error_8h.html" target="_top" xlink:title="Error.h">
<polygon fill="white" stroke="black" points="449,-224.5 449,-243.5 495,-243.5 495,-224.5 449,-224.5"/>
<text text-anchor="middle" x="472" y="-231.5" font-family="Helvetica,sans-Serif" font-size="10.00">Error.h</text>
</a>
</g>
</g>
<!-- Node0&#45;&gt;Node19 -->
<g id="edge31" class="edge"><title>Node0&#45;&gt;Node19</title>
<path fill="none" stroke="midnightblue" d="M352.5,-280.444C376.077,-271.478 413.322,-257.314 439.964,-247.183"/>
<polygon fill="midnightblue" stroke="midnightblue" points="441.502,-250.342 449.605,-243.516 439.014,-243.8 441.502,-250.342"/>
</g>
<!-- Node22 -->
<g id="node23" class="node"><title>Node22</title>
<g id="a_node23"><a xlink:href="Camera_8h.html" target="_top" xlink:title="Camera.h">
<polygon fill="white" stroke="black" points="599.5,-224.5 599.5,-243.5 658.5,-243.5 658.5,-224.5 599.5,-224.5"/>
<text text-anchor="middle" x="629" y="-231.5" font-family="Helvetica,sans-Serif" font-size="10.00">Camera.h</text>
</a>
</g>
</g>
<!-- Node0&#45;&gt;Node22 -->
<g id="edge34" class="edge"><title>Node0&#45;&gt;Node22</title>
<path fill="none" stroke="midnightblue" d="M377.377,-280.444C435.853,-269.883 534.258,-252.111 589.073,-242.211"/>
<polygon fill="midnightblue" stroke="midnightblue" points="589.888,-245.62 599.106,-240.399 588.643,-238.732 589.888,-245.62"/>
</g>
<!-- Node2 -->
<g id="node3" class="node"><title>Node2</title>
<g id="a_node3"><a xlink:href="Color_8h.html" target="_top" xlink:title="Color.h">
<polygon fill="white" stroke="black" points="0,-56.5 0,-75.5 48,-75.5 48,-56.5 0,-56.5"/>
<text text-anchor="middle" x="24" y="-63.5" font-family="Helvetica,sans-Serif" font-size="10.00">Color.h</text>
</a>
</g>
</g>
<!-- Node1&#45;&gt;Node2 -->
<g id="edge2" class="edge"><title>Node1&#45;&gt;Node2</title>
<path fill="none" stroke="midnightblue" d="M46.5415,-112.083C42.8457,-104.691 37.4766,-93.9533 32.9055,-84.8111"/>
<polygon fill="midnightblue" stroke="midnightblue" points="35.9782,-83.1301 28.3755,-75.7511 29.7172,-86.2606 35.9782,-83.1301"/>
</g>
<!-- Node3 -->
<g id="node4" class="node"><title>Node3</title>
<polygon fill="white" stroke="#bfbfbf" points="66.5,-56.5 66.5,-75.5 107.5,-75.5 107.5,-56.5 66.5,-56.5"/>
<text text-anchor="middle" x="87" y="-63.5" font-family="Helvetica,sans-Serif" font-size="10.00">string</text>
</g>
<!-- Node1&#45;&gt;Node3 -->
<g id="edge3" class="edge"><title>Node1&#45;&gt;Node3</title>
<path fill="none" stroke="midnightblue" d="M56.9447,-112.083C61.9773,-104.534 69.3368,-93.4948 75.5135,-84.2298"/>
<polygon fill="midnightblue" stroke="midnightblue" points="78.5311,-86.0131 81.1659,-75.7511 72.7067,-82.1301 78.5311,-86.0131"/>
</g>
<!-- Node4 -->
<g id="node5" class="node"><title>Node4</title>
<polygon fill="white" stroke="#bfbfbf" points="126,-56.5 126,-75.5 178,-75.5 178,-56.5 126,-56.5"/>
<text text-anchor="middle" x="152" y="-63.5" font-family="Helvetica,sans-Serif" font-size="10.00">memory</text>
</g>
<!-- Node1&#45;&gt;Node4 -->
<g id="edge4" class="edge"><title>Node1&#45;&gt;Node4</title>
<path fill="none" stroke="midnightblue" d="M67.2274,-112.324C83.351,-103.703 108.3,-90.3643 126.964,-80.3855"/>
<polygon fill="midnightblue" stroke="midnightblue" points="128.644,-83.456 135.813,-75.6545 125.344,-77.283 128.644,-83.456"/>
</g>
<!-- Node5&#45;&gt;Node3 -->
<g id="edge6" class="edge"><title>Node5&#45;&gt;Node3</title>
<path fill="none" stroke="midnightblue" d="M304.396,-226.143C262.041,-213.68 176.74,-183.707 123,-132 109.37,-118.886 99.5437,-99.4709 93.6351,-85.2749"/>
<polygon fill="midnightblue" stroke="midnightblue" points="96.7695,-83.6782 89.8823,-75.6273 90.2457,-86.2159 96.7695,-83.6782"/>
</g>
<!-- Node6 -->
<g id="node7" class="node"><title>Node6</title>
<polygon fill="white" stroke="#bfbfbf" points="309.5,-168.5 309.5,-187.5 350.5,-187.5 350.5,-168.5 309.5,-168.5"/>
<text text-anchor="middle" x="330" y="-175.5" font-family="Helvetica,sans-Serif" font-size="10.00">stack</text>
</g>
<!-- Node5&#45;&gt;Node6 -->
<g id="edge7" class="edge"><title>Node5&#45;&gt;Node6</title>
<path fill="none" stroke="midnightblue" d="M330,-224.083C330,-217.006 330,-206.861 330,-197.986"/>
<polygon fill="midnightblue" stroke="midnightblue" points="333.5,-197.751 330,-187.751 326.5,-197.751 333.5,-197.751"/>
</g>
<!-- Node7 -->
<g id="node8" class="node"><title>Node7</title>
<g id="a_node8"><a xlink:href="State_8h.html" target="_top" xlink:title="State.h">
<polygon fill="white" stroke="black" points="243,-168.5 243,-187.5 291,-187.5 291,-168.5 243,-168.5"/>
<text text-anchor="middle" x="267" y="-175.5" font-family="Helvetica,sans-Serif" font-size="10.00">State.h</text>
</a>
</g>
</g>
<!-- Node5&#45;&gt;Node7 -->
<g id="edge8" class="edge"><title>Node5&#45;&gt;Node7</title>
<path fill="none" stroke="midnightblue" d="M319.878,-224.324C310.474,-216.263 296.256,-204.077 284.931,-194.369"/>
<polygon fill="midnightblue" stroke="midnightblue" points="287.177,-191.684 277.306,-187.834 282.621,-196.999 287.177,-191.684"/>
</g>
<!-- Node11 -->
<g id="node12" class="node"><title>Node11</title>
<g id="a_node12"><a xlink:href="Vec2_8h.html" target="_top" xlink:title="Vec2.h">
<polygon fill="white" stroke="black" points="510.5,-0.5 510.5,-19.5 557.5,-19.5 557.5,-0.5 510.5,-0.5"/>
<text text-anchor="middle" x="534" y="-7.5" font-family="Helvetica,sans-Serif" font-size="10.00">Vec2.h</text>
</a>
</g>
</g>
<!-- Node5&#45;&gt;Node11 -->
<g id="edge26" class="edge"><title>Node5&#45;&gt;Node11</title>
<path fill="none" stroke="midnightblue" d="M336.932,-224.162C357.865,-197.656 422.707,-116.91 483,-56 493.384,-45.51 505.786,-34.5353 515.761,-26.0503"/>
<polygon fill="midnightblue" stroke="midnightblue" points="518.065,-28.6858 523.47,-19.5737 513.562,-23.326 518.065,-28.6858"/>
</g>
<!-- Node15 -->
<g id="node16" class="node"><title>Node15</title>
<g id="a_node16"><a xlink:href="InputManager_8h.html" target="_top" xlink:title="InputManager.h">
<polygon fill="white" stroke="black" points="562,-112.5 562,-131.5 646,-131.5 646,-112.5 562,-112.5"/>
<text text-anchor="middle" x="604" y="-119.5" font-family="Helvetica,sans-Serif" font-size="10.00">InputManager.h</text>
</a>
</g>
</g>
<!-- Node5&#45;&gt;Node15 -->
<g id="edge22" class="edge"><title>Node5&#45;&gt;Node15</title>
<path fill="none" stroke="midnightblue" d="M341.471,-224.413C360.291,-210.692 399.309,-183.768 436,-168 473.334,-151.955 517.843,-140.344 551.666,-132.939"/>
<polygon fill="midnightblue" stroke="midnightblue" points="552.751,-136.286 561.8,-130.775 551.29,-129.44 552.751,-136.286"/>
</g>
<!-- Node7&#45;&gt;Node4 -->
<g id="edge21" class="edge"><title>Node7&#45;&gt;Node4</title>
<path fill="none" stroke="midnightblue" d="M260.94,-168.441C251.519,-155.449 232.417,-130.329 213,-112 201.103,-100.77 186.377,-89.8354 174.374,-81.5573"/>
<polygon fill="midnightblue" stroke="midnightblue" points="176.065,-78.4762 165.818,-75.7839 172.149,-84.2788 176.065,-78.4762"/>
</g>
<!-- Node8 -->
<g id="node9" class="node"><title>Node8</title>
<g id="a_node9"><a xlink:href="GameObject_8h.html" target="_top" xlink:title="GameObject.h">
<polygon fill="white" stroke="black" points="260,-112.5 260,-131.5 340,-131.5 340,-112.5 260,-112.5"/>
<text text-anchor="middle" x="300" y="-119.5" font-family="Helvetica,sans-Serif" font-size="10.00">GameObject.h</text>
</a>
</g>
</g>
<!-- Node7&#45;&gt;Node8 -->
<g id="edge9" class="edge"><title>Node7&#45;&gt;Node8</title>
<path fill="none" stroke="midnightblue" d="M272.449,-168.083C277.014,-160.613 283.668,-149.724 289.293,-140.52"/>
<polygon fill="midnightblue" stroke="midnightblue" points="292.424,-142.109 294.652,-131.751 286.451,-138.459 292.424,-142.109"/>
</g>
<!-- Node9 -->
<g id="node10" class="node"><title>Node9</title>
<polygon fill="white" stroke="#bfbfbf" points="392,-56.5 392,-75.5 436,-75.5 436,-56.5 392,-56.5"/>
<text text-anchor="middle" x="414" y="-63.5" font-family="Helvetica,sans-Serif" font-size="10.00">vector</text>
</g>
<!-- Node7&#45;&gt;Node9 -->
<g id="edge20" class="edge"><title>Node7&#45;&gt;Node9</title>
<path fill="none" stroke="midnightblue" d="M286.153,-168.409C303.385,-160.244 328.996,-147.008 349,-132 368.24,-117.565 387.356,-97.5969 399.824,-83.6141"/>
<polygon fill="midnightblue" stroke="midnightblue" points="402.723,-85.6163 406.67,-75.7843 397.453,-81.0086 402.723,-85.6163"/>
</g>
<!-- Node8&#45;&gt;Node3 -->
<g id="edge15" class="edge"><title>Node8&#45;&gt;Node3</title>
<path fill="none" stroke="midnightblue" d="M263.056,-112.492C228.02,-104.295 173.695,-91.2571 117.404,-76.0031"/>
<polygon fill="midnightblue" stroke="midnightblue" points="118.186,-72.5888 107.618,-73.334 116.344,-79.3421 118.186,-72.5888"/>
</g>
<!-- Node8&#45;&gt;Node4 -->
<g id="edge11" class="edge"><title>Node8&#45;&gt;Node4</title>
<path fill="none" stroke="midnightblue" d="M276.549,-112.444C251.867,-103.438 212.815,-89.1891 185.023,-79.049"/>
<polygon fill="midnightblue" stroke="midnightblue" points="185.935,-75.6561 175.341,-75.5164 183.536,-82.2321 185.935,-75.6561"/>
</g>
<!-- Node8&#45;&gt;Node9 -->
<g id="edge10" class="edge"><title>Node8&#45;&gt;Node9</title>
<path fill="none" stroke="midnightblue" d="M318.064,-112.444C336.575,-103.675 365.581,-89.9355 386.855,-79.8579"/>
<polygon fill="midnightblue" stroke="midnightblue" points="388.482,-82.9604 396.021,-75.5164 385.485,-76.6343 388.482,-82.9604"/>
</g>
<!-- Node10 -->
<g id="node11" class="node"><title>Node10</title>
<g id="a_node11"><a xlink:href="Rect_8h.html" target="_top" xlink:title="Rect.h">
<polygon fill="white" stroke="black" points="328,-56.5 328,-75.5 374,-75.5 374,-56.5 328,-56.5"/>
<text text-anchor="middle" x="351" y="-63.5" font-family="Helvetica,sans-Serif" font-size="10.00">Rect.h</text>
</a>
</g>
</g>
<!-- Node8&#45;&gt;Node10 -->
<g id="edge12" class="edge"><title>Node8&#45;&gt;Node10</title>
<path fill="none" stroke="midnightblue" d="M308.422,-112.083C315.848,-104.22 326.852,-92.5688 335.812,-83.0813"/>
<polygon fill="midnightblue" stroke="midnightblue" points="338.413,-85.4244 342.735,-75.7511 333.324,-80.618 338.413,-85.4244"/>
</g>
<!-- Node13 -->
<g id="node14" class="node"><title>Node13</title>
<g id="a_node14"><a xlink:href="ComponentType_8h.html" target="_top" xlink:title="ComponentType.h">
<polygon fill="white" stroke="black" points="199.5,-0.5 199.5,-19.5 296.5,-19.5 296.5,-0.5 199.5,-0.5"/>
<text text-anchor="middle" x="248" y="-7.5" font-family="Helvetica,sans-Serif" font-size="10.00">ComponentType.h</text>
</a>
</g>
</g>
<!-- Node8&#45;&gt;Node13 -->
<g id="edge16" class="edge"><title>Node8&#45;&gt;Node13</title>
<path fill="none" stroke="midnightblue" d="M298.245,-112.254C295.471,-99.4513 289.403,-75.059 280,-56 275.079,-46.0247 268.045,-35.8475 261.824,-27.7006"/>
<polygon fill="midnightblue" stroke="midnightblue" points="264.487,-25.4253 255.532,-19.7629 259.001,-29.7737 264.487,-25.4253"/>
</g>
<!-- Node14 -->
<g id="node15" class="node"><title>Node14</title>
<g id="a_node15"><a xlink:href="Component_8h.html" target="_top" xlink:title="Component.h">
<polygon fill="white" stroke="black" points="196.5,-56.5 196.5,-75.5 271.5,-75.5 271.5,-56.5 196.5,-56.5"/>
<text text-anchor="middle" x="234" y="-63.5" font-family="Helvetica,sans-Serif" font-size="10.00">Component.h</text>
</a>
</g>
</g>
<!-- Node8&#45;&gt;Node14 -->
<g id="edge17" class="edge"><title>Node8&#45;&gt;Node14</title>
<path fill="none" stroke="midnightblue" d="M284.281,-112.324C272.909,-104.42 258.031,-92.5482 247.26,-82.9377"/>
<polygon fill="midnightblue" stroke="midnightblue" points="249.347,-80.0978 239.648,-75.8339 244.571,-85.2155 249.347,-80.0978"/>
</g>
<!-- Node10&#45;&gt;Node11 -->
<g id="edge13" class="edge"><title>Node10&#45;&gt;Node11</title>
<path fill="none" stroke="midnightblue" d="M374.177,-58.1609C406.177,-48.7182 464.079,-31.6323 500.706,-20.8245"/>
<polygon fill="midnightblue" stroke="midnightblue" points="501.833,-24.1413 510.433,-17.9542 499.851,-17.4275 501.833,-24.1413"/>
</g>
<!-- Node12 -->
<g id="node13" class="node"><title>Node12</title>
<polygon fill="white" stroke="#bfbfbf" points="329,-0.5 329,-19.5 373,-19.5 373,-0.5 329,-0.5"/>
<text text-anchor="middle" x="351" y="-7.5" font-family="Helvetica,sans-Serif" font-size="10.00">cmath</text>
</g>
<!-- Node10&#45;&gt;Node12 -->
<g id="edge14" class="edge"><title>Node10&#45;&gt;Node12</title>
<path fill="none" stroke="midnightblue" d="M351,-56.083C351,-49.0059 351,-38.8611 351,-29.9865"/>
<polygon fill="midnightblue" stroke="midnightblue" points="354.5,-29.751 351,-19.7511 347.5,-29.7511 354.5,-29.751"/>
</g>
<!-- Node14&#45;&gt;Node8 -->
<g id="edge19" class="edge"><title>Node14&#45;&gt;Node8</title>
<path fill="none" stroke="midnightblue" d="M249.571,-75.5732C261.033,-83.5263 276.108,-95.5587 286.941,-105.242"/>
<polygon fill="midnightblue" stroke="midnightblue" points="284.57,-107.817 294.268,-112.083 289.347,-102.7 284.57,-107.817"/>
</g>
<!-- Node14&#45;&gt;Node13 -->
<g id="edge18" class="edge"><title>Node14&#45;&gt;Node13</title>
<path fill="none" stroke="midnightblue" d="M236.312,-56.083C238.167,-48.9272 240.835,-38.6353 243.154,-29.6911"/>
<polygon fill="midnightblue" stroke="midnightblue" points="246.609,-30.3094 245.731,-19.7511 239.834,-28.5527 246.609,-30.3094"/>
</g>
<!-- Node15&#45;&gt;Node11 -->
<g id="edge23" class="edge"><title>Node15&#45;&gt;Node11</title>
<path fill="none" stroke="midnightblue" d="M602.851,-112.386C600.794,-99.3238 595.564,-74.1115 584,-56 576.439,-44.1574 564.941,-33.5069 554.877,-25.5437"/>
<polygon fill="midnightblue" stroke="midnightblue" points="556.972,-22.7398 546.878,-19.5194 552.76,-28.3313 556.972,-22.7398"/>
</g>
<!-- Node16 -->
<g id="node17" class="node"><title>Node16</title>
<polygon fill="white" stroke="#bfbfbf" points="492.5,-56.5 492.5,-75.5 575.5,-75.5 575.5,-56.5 492.5,-56.5"/>
<text text-anchor="middle" x="534" y="-63.5" font-family="Helvetica,sans-Serif" font-size="10.00">unordered_map</text>
</g>
<!-- Node15&#45;&gt;Node16 -->
<g id="edge24" class="edge"><title>Node15&#45;&gt;Node16</title>
<path fill="none" stroke="midnightblue" d="M592.753,-112.324C582.203,-104.185 566.199,-91.8395 553.558,-82.0874"/>
<polygon fill="midnightblue" stroke="midnightblue" points="555.507,-79.1707 545.451,-75.8339 551.231,-84.7132 555.507,-79.1707"/>
</g>
<!-- Node17 -->
<g id="node18" class="node"><title>Node17</title>
<polygon fill="white" stroke="#bfbfbf" points="632,-56.5 632,-75.5 678,-75.5 678,-56.5 632,-56.5"/>
<text text-anchor="middle" x="655" y="-63.5" font-family="Helvetica,sans-Serif" font-size="10.00">cstdint</text>
</g>
<!-- Node15&#45;&gt;Node17 -->
<g id="edge25" class="edge"><title>Node15&#45;&gt;Node17</title>
<path fill="none" stroke="midnightblue" d="M612.422,-112.083C619.848,-104.22 630.852,-92.5688 639.812,-83.0813"/>
<polygon fill="midnightblue" stroke="midnightblue" points="642.413,-85.4244 646.735,-75.7511 637.324,-80.618 642.413,-85.4244"/>
</g>
<!-- Node18&#45;&gt;Node3 -->
<g id="edge28" class="edge"><title>Node18&#45;&gt;Node3</title>
<path fill="none" stroke="midnightblue" d="M154.986,-112.324C142.468,-103.979 123.318,-91.2122 108.529,-81.3524"/>
<polygon fill="midnightblue" stroke="midnightblue" points="110.244,-78.2894 99.9818,-75.6545 106.361,-84.1137 110.244,-78.2894"/>
</g>
<!-- Node18&#45;&gt;Node4 -->
<g id="edge30" class="edge"><title>Node18&#45;&gt;Node4</title>
<path fill="none" stroke="midnightblue" d="M165.358,-112.083C163.214,-104.849 160.121,-94.4087 157.451,-85.3968"/>
<polygon fill="midnightblue" stroke="midnightblue" points="160.79,-84.3447 154.593,-75.7511 154.078,-86.3334 160.79,-84.3447"/>
</g>
<!-- Node18&#45;&gt;Node16 -->
<g id="edge29" class="edge"><title>Node18&#45;&gt;Node16</title>
<path fill="none" stroke="midnightblue" d="M204.095,-115.674C269.289,-106.056 406.882,-85.7551 482.14,-74.6515"/>
<polygon fill="midnightblue" stroke="midnightblue" points="482.95,-78.07 492.332,-73.1478 481.928,-71.145 482.95,-78.07"/>
</g>
<!-- Node20 -->
<g id="node21" class="node"><title>Node20</title>
<polygon fill="white" stroke="#bfbfbf" points="445,-168.5 445,-187.5 499,-187.5 499,-168.5 445,-168.5"/>
<text text-anchor="middle" x="472" y="-175.5" font-family="Helvetica,sans-Serif" font-size="10.00">iostream</text>
</g>
<!-- Node19&#45;&gt;Node20 -->
<g id="edge32" class="edge"><title>Node19&#45;&gt;Node20</title>
<path fill="none" stroke="midnightblue" d="M472,-224.083C472,-217.006 472,-206.861 472,-197.986"/>
<polygon fill="midnightblue" stroke="midnightblue" points="475.5,-197.751 472,-187.751 468.5,-197.751 475.5,-197.751"/>
</g>
<!-- Node21 -->
<g id="node22" class="node"><title>Node21</title>
<polygon fill="white" stroke="#bfbfbf" points="517,-168.5 517,-187.5 565,-187.5 565,-168.5 517,-168.5"/>
<text text-anchor="middle" x="541" y="-175.5" font-family="Helvetica,sans-Serif" font-size="10.00">stdlib.h</text>
</g>
<!-- Node19&#45;&gt;Node21 -->
<g id="edge33" class="edge"><title>Node19&#45;&gt;Node21</title>
<path fill="none" stroke="midnightblue" d="M483.086,-224.324C493.486,-216.185 509.261,-203.839 521.722,-194.087"/>
<polygon fill="midnightblue" stroke="midnightblue" points="523.994,-196.753 529.712,-187.834 519.68,-191.241 523.994,-196.753"/>
</g>
<!-- Node22&#45;&gt;Node8 -->
<g id="edge35" class="edge"><title>Node22&#45;&gt;Node8</title>
<path fill="none" stroke="midnightblue" d="M624.278,-224.119C616.115,-209.728 597.92,-181.558 574,-168 536.653,-146.831 418.645,-133.336 350.291,-127.084"/>
<polygon fill="midnightblue" stroke="midnightblue" points="350.447,-123.584 340.174,-126.178 349.823,-130.556 350.447,-123.584"/>
</g>
<!-- Node22&#45;&gt;Node11 -->
<g id="edge36" class="edge"><title>Node22&#45;&gt;Node11</title>
<path fill="none" stroke="midnightblue" d="M658.766,-226.952C679.866,-220.942 706.703,-209.41 720,-188 742.794,-151.299 773.56,-142.518 687,-56 655.233,-24.2484 602.291,-14.6676 567.765,-11.9092"/>
<polygon fill="midnightblue" stroke="midnightblue" points="567.891,-8.41012 557.685,-11.2552 567.437,-15.3954 567.891,-8.41012"/>
</g>
<!-- Node23 -->
<g id="node24" class="node"><title>Node23</title>
<g id="a_node24"><a xlink:href="ActionManager_8h.html" target="_top" xlink:title="ActionManager.h">
<polygon fill="white" stroke="black" points="621,-168.5 621,-187.5 711,-187.5 711,-168.5 621,-168.5"/>
<text text-anchor="middle" x="666" y="-175.5" font-family="Helvetica,sans-Serif" font-size="10.00">ActionManager.h</text>
</a>
</g>
</g>
<!-- Node22&#45;&gt;Node23 -->
<g id="edge37" class="edge"><title>Node22&#45;&gt;Node23</title>
<path fill="none" stroke="midnightblue" d="M635.11,-224.083C640.282,-216.534 647.846,-205.495 654.194,-196.23"/>
<polygon fill="midnightblue" stroke="midnightblue" points="657.239,-197.979 660.004,-187.751 651.464,-194.022 657.239,-197.979"/>
</g>
<!-- Node23&#45;&gt;Node15 -->
<g id="edge38" class="edge"><title>Node23&#45;&gt;Node15</title>
<path fill="none" stroke="midnightblue" d="M656.039,-168.324C646.873,-160.341 633.063,-148.313 621.972,-138.653"/>
<polygon fill="midnightblue" stroke="midnightblue" points="623.982,-135.762 614.143,-131.834 619.385,-141.041 623.982,-135.762"/>
</g>
</g>
</svg>
