<?xml version="1.0" encoding="UTF-8" standalone="no"?>
<!DOCTYPE svg PUBLIC "-//W3C//DTD SVG 1.1//EN"
 "http://www.w3.org/Graphics/SVG/1.1/DTD/svg11.dtd">
<!-- Generated by graphviz version 2.36.0 (20140111.2315)
 -->
<!-- Title: Engine/include/Sprite.h Pages: 1 -->
<svg width="1439pt" height="364pt"
 viewBox="0.00 0.00 1439.00 364.00" xmlns="http://www.w3.org/2000/svg" xmlns:xlink="http://www.w3.org/1999/xlink">
<g id="graph0" class="graph" transform="scale(1 1) rotate(0) translate(4 360)">
<title>Engine/include/Sprite.h</title>
<polygon fill="white" stroke="none" points="-4,4 -4,-360 1435,-360 1435,4 -4,4"/>
<!-- Node1 -->
<g id="node1" class="node"><title>Node1</title>
<polygon fill="#bfbfbf" stroke="black" points="866.5,-336.5 866.5,-355.5 983.5,-355.5 983.5,-336.5 866.5,-336.5"/>
<text text-anchor="middle" x="925" y="-343.5" font-family="Helvetica,sans-Serif" font-size="10.00">Engine/include/Sprite.h</text>
</g>
<!-- Node2 -->
<g id="node2" class="node"><title>Node2</title>
<g id="a_node2"><a xlink:href="Animation_8h.html" target="_top" xlink:title="Engine/include/Animation.h">
<polygon fill="white" stroke="black" points="-0.5,-280.5 -0.5,-299.5 134.5,-299.5 134.5,-280.5 -0.5,-280.5"/>
<text text-anchor="middle" x="67" y="-287.5" font-family="Helvetica,sans-Serif" font-size="10.00">Engine/include/Animation.h</text>
</a>
</g>
</g>
<!-- Node1&#45;&gt;Node2 -->
<g id="edge1" class="edge"><title>Node1&#45;&gt;Node2</title>
<path fill="none" stroke="midnightblue" d="M855.783,-342.181C720.057,-336.39 409.487,-321.833 149,-300 144.29,-299.605 139.432,-299.163 134.543,-298.691"/>
<polygon fill="midnightblue" stroke="midnightblue" points="855.892,-345.689 866.031,-342.616 856.189,-338.695 855.892,-345.689"/>
</g>
<!-- Node4 -->
<g id="node4" class="node"><title>Node4</title>
<g id="a_node4"><a xlink:href="Tileset_8h.html" target="_top" xlink:title="Engine/include/Tileset.h">
<polygon fill="white" stroke="black" points="527.5,-280.5 527.5,-299.5 648.5,-299.5 648.5,-280.5 527.5,-280.5"/>
<text text-anchor="middle" x="588" y="-287.5" font-family="Helvetica,sans-Serif" font-size="10.00">Engine/include/Tileset.h</text>
</a>
</g>
</g>
<!-- Node1&#45;&gt;Node4 -->
<g id="edge3" class="edge"><title>Node1&#45;&gt;Node4</title>
<path fill="none" stroke="midnightblue" d="M861.68,-334.854C798.007,-324.651 700.943,-309.098 641.149,-299.516"/>
<polygon fill="midnightblue" stroke="midnightblue" points="861.174,-338.317 871.601,-336.444 862.281,-331.405 861.174,-338.317"/>
</g>
<!-- Node8 -->
<g id="node8" class="node"><title>Node8</title>
<g id="a_node8"><a xlink:href="StageState_8h.html" target="_top" xlink:title="Game/include/StageState.h">
<polygon fill="white" stroke="black" points="386.5,-112.5 386.5,-131.5 523.5,-131.5 523.5,-112.5 386.5,-112.5"/>
<text text-anchor="middle" x="455" y="-119.5" font-family="Helvetica,sans-Serif" font-size="10.00">Game/include/StageState.h</text>
</a>
</g>
</g>
<!-- Node1&#45;&gt;Node8 -->
<g id="edge39" class="edge"><title>Node1&#45;&gt;Node8</title>
<path fill="none" stroke="midnightblue" d="M929.561,-326.302C937.165,-290.067 947.695,-210.15 905,-168 898.286,-161.372 647.872,-139.321 523.57,-128.749"/>
<polygon fill="midnightblue" stroke="midnightblue" points="926.063,-325.902 927.266,-336.429 932.89,-327.449 926.063,-325.902"/>
</g>
<!-- Node9 -->
<g id="node9" class="node"><title>Node9</title>
<g id="a_node9"><a xlink:href="EndState_8h.html" target="_top" xlink:title="Game/include/EndState.h">
<polygon fill="white" stroke="black" points="391,-56.5 391,-75.5 519,-75.5 519,-56.5 391,-56.5"/>
<text text-anchor="middle" x="455" y="-63.5" font-family="Helvetica,sans-Serif" font-size="10.00">Game/include/EndState.h</text>
</a>
</g>
</g>
<!-- Node1&#45;&gt;Node9 -->
<g id="edge38" class="edge"><title>Node1&#45;&gt;Node9</title>
<path fill="none" stroke="midnightblue" d="M856.467,-342.26C669.241,-333.866 163,-304.726 163,-235 163,-235 163,-235 163,-177 163,-126.214 319.641,-90.8127 403.468,-75.5039"/>
<polygon fill="midnightblue" stroke="midnightblue" points="856.328,-345.757 866.472,-342.702 856.637,-338.764 856.328,-345.757"/>
</g>
<!-- Node17 -->
<g id="node17" class="node"><title>Node17</title>
<g id="a_node17"><a xlink:href="Enemy_8h.html" target="_top" xlink:title="Game/include/Enemy.h">
<polygon fill="white" stroke="black" points="953.5,-168.5 953.5,-187.5 1072.5,-187.5 1072.5,-168.5 953.5,-168.5"/>
<text text-anchor="middle" x="1013" y="-175.5" font-family="Helvetica,sans-Serif" font-size="10.00">Game/include/Enemy.h</text>
</a>
</g>
</g>
<!-- Node1&#45;&gt;Node17 -->
<g id="edge40" class="edge"><title>Node1&#45;&gt;Node17</title>
<path fill="none" stroke="midnightblue" d="M934.619,-326.856C953.493,-291.252 994.736,-213.453 1008.46,-187.568"/>
<polygon fill="midnightblue" stroke="midnightblue" points="931.323,-325.6 929.731,-336.075 937.507,-328.879 931.323,-325.6"/>
</g>
<!-- Node21 -->
<g id="node21" class="node"><title>Node21</title>
<g id="a_node21"><a xlink:href="Tower_8h.html" target="_top" xlink:title="Game/include/Tower.h">
<polygon fill="white" stroke="black" points="781.5,-168.5 781.5,-187.5 896.5,-187.5 896.5,-168.5 781.5,-168.5"/>
<text text-anchor="middle" x="839" y="-175.5" font-family="Helvetica,sans-Serif" font-size="10.00">Game/include/Tower.h</text>
</a>
</g>
</g>
<!-- Node1&#45;&gt;Node21 -->
<g id="edge44" class="edge"><title>Node1&#45;&gt;Node21</title>
<path fill="none" stroke="midnightblue" d="M915.6,-326.856C897.155,-291.252 856.849,-213.453 843.439,-187.568"/>
<polygon fill="midnightblue" stroke="midnightblue" points="912.668,-328.806 920.376,-336.075 918.884,-325.586 912.668,-328.806"/>
</g>
<!-- Node23 -->
<g id="node23" class="node"><title>Node23</title>
<g id="a_node23"><a xlink:href="HitPoints_8h.html" target="_top" xlink:title="Engine/include/HitPoints.h">
<polygon fill="white" stroke="black" points="1024,-224.5 1024,-243.5 1156,-243.5 1156,-224.5 1024,-224.5"/>
<text text-anchor="middle" x="1090" y="-231.5" font-family="Helvetica,sans-Serif" font-size="10.00">Engine/include/HitPoints.h</text>
</a>
</g>
</g>
<!-- Node1&#45;&gt;Node23 -->
<g id="edge33" class="edge"><title>Node1&#45;&gt;Node23</title>
<path fill="none" stroke="midnightblue" d="M946.429,-330.714C981.198,-307.535 1048.85,-262.43 1077.11,-243.591"/>
<polygon fill="midnightblue" stroke="midnightblue" points="944.326,-327.909 937.947,-336.368 948.209,-333.734 944.326,-327.909"/>
</g>
<!-- Node25 -->
<g id="node25" class="node"><title>Node25</title>
<g id="a_node25"><a xlink:href="Sprite_8cpp.html" target="_top" xlink:title="Engine/src/Sprite.cpp">
<polygon fill="white" stroke="black" points="1306,-280.5 1306,-299.5 1416,-299.5 1416,-280.5 1306,-280.5"/>
<text text-anchor="middle" x="1361" y="-287.5" font-family="Helvetica,sans-Serif" font-size="10.00">Engine/src/Sprite.cpp</text>
</a>
</g>
</g>
<!-- Node1&#45;&gt;Node25 -->
<g id="edge37" class="edge"><title>Node1&#45;&gt;Node25</title>
<path fill="none" stroke="midnightblue" d="M993.892,-337.07C1068.6,-328.376 1191.34,-313.818 1297,-300 1299.89,-299.622 1302.86,-299.227 1305.85,-298.824"/>
<polygon fill="midnightblue" stroke="midnightblue" points="993.204,-333.626 983.675,-338.257 994.012,-340.579 993.204,-333.626"/>
</g>
<!-- Node26 -->
<g id="node26" class="node"><title>Node26</title>
<g id="a_node26"><a xlink:href="TitleState_8h.html" target="_top" xlink:title="Game/include/TitleState.h">
<polygon fill="white" stroke="black" points="1158,-280.5 1158,-299.5 1288,-299.5 1288,-280.5 1158,-280.5"/>
<text text-anchor="middle" x="1223" y="-287.5" font-family="Helvetica,sans-Serif" font-size="10.00">Game/include/TitleState.h</text>
</a>
</g>
</g>
<!-- Node1&#45;&gt;Node26 -->
<g id="edge41" class="edge"><title>Node1&#45;&gt;Node26</title>
<path fill="none" stroke="midnightblue" d="M982.389,-334.601C1038.71,-324.395 1123.56,-309.019 1176,-299.516"/>
<polygon fill="midnightblue" stroke="midnightblue" points="981.435,-331.217 972.219,-336.444 982.683,-338.104 981.435,-331.217"/>
</g>
<!-- Node3 -->
<g id="node3" class="node"><title>Node3</title>
<g id="a_node3"><a xlink:href="Animation_8cpp.html" target="_top" xlink:title="Engine/src/Animation.cpp">
<polygon fill="white" stroke="black" points="3,-224.5 3,-243.5 131,-243.5 131,-224.5 3,-224.5"/>
<text text-anchor="middle" x="67" y="-231.5" font-family="Helvetica,sans-Serif" font-size="10.00">Engine/src/Animation.cpp</text>
</a>
</g>
</g>
<!-- Node2&#45;&gt;Node3 -->
<g id="edge2" class="edge"><title>Node2&#45;&gt;Node3</title>
<path fill="none" stroke="midnightblue" d="M67,-269.805C67,-260.91 67,-250.78 67,-243.751"/>
<polygon fill="midnightblue" stroke="midnightblue" points="63.5001,-270.083 67,-280.083 70.5001,-270.083 63.5001,-270.083"/>
</g>
<!-- Node5 -->
<g id="node5" class="node"><title>Node5</title>
<g id="a_node5"><a xlink:href="TileMap_8h.html" target="_top" xlink:title="Engine/include/TileMap.h">
<polygon fill="white" stroke="black" points="456,-224.5 456,-243.5 582,-243.5 582,-224.5 456,-224.5"/>
<text text-anchor="middle" x="519" y="-231.5" font-family="Helvetica,sans-Serif" font-size="10.00">Engine/include/TileMap.h</text>
</a>
</g>
</g>
<!-- Node4&#45;&gt;Node5 -->
<g id="edge4" class="edge"><title>Node4&#45;&gt;Node5</title>
<path fill="none" stroke="midnightblue" d="M568.962,-274.101C556.544,-264.382 540.757,-252.027 530.288,-243.834"/>
<polygon fill="midnightblue" stroke="midnightblue" points="566.882,-276.917 576.914,-280.324 571.196,-271.405 566.882,-276.917"/>
</g>
<!-- Node4&#45;&gt;Node8 -->
<g id="edge32" class="edge"><title>Node4&#45;&gt;Node8</title>
<path fill="none" stroke="midnightblue" d="M517.385,-279.805C420.949,-265.633 255.889,-235.066 220,-188 214.61,-180.932 214.336,-174.851 220,-168 240.81,-142.827 324.723,-131.6 386.364,-126.685"/>
<polygon fill="midnightblue" stroke="midnightblue" points="516.959,-283.28 527.357,-281.248 517.961,-276.352 516.959,-283.28"/>
</g>
<!-- Node22 -->
<g id="node22" class="node"><title>Node22</title>
<g id="a_node22"><a xlink:href="Tileset_8cpp.html" target="_top" xlink:title="Engine/src/Tileset.cpp">
<polygon fill="white" stroke="black" points="600,-224.5 600,-243.5 714,-243.5 714,-224.5 600,-224.5"/>
<text text-anchor="middle" x="657" y="-231.5" font-family="Helvetica,sans-Serif" font-size="10.00">Engine/src/Tileset.cpp</text>
</a>
</g>
</g>
<!-- Node4&#45;&gt;Node22 -->
<g id="edge31" class="edge"><title>Node4&#45;&gt;Node22</title>
<path fill="none" stroke="midnightblue" d="M607.038,-274.101C619.456,-264.382 635.243,-252.027 645.712,-243.834"/>
<polygon fill="midnightblue" stroke="midnightblue" points="604.804,-271.405 599.086,-280.324 609.118,-276.917 604.804,-271.405"/>
</g>
<!-- Node6 -->
<g id="node6" class="node"><title>Node6</title>
<g id="a_node6"><a xlink:href="DragAndDrop_8h.html" target="_top" xlink:title="Engine/include/DragAndDrop.h">
<polygon fill="white" stroke="black" points="612.5,-168.5 612.5,-187.5 763.5,-187.5 763.5,-168.5 612.5,-168.5"/>
<text text-anchor="middle" x="688" y="-175.5" font-family="Helvetica,sans-Serif" font-size="10.00">Engine/include/DragAndDrop.h</text>
</a>
</g>
</g>
<!-- Node5&#45;&gt;Node6 -->
<g id="edge5" class="edge"><title>Node5&#45;&gt;Node6</title>
<path fill="none" stroke="midnightblue" d="M555.603,-221.304C587.447,-211.129 632.842,-196.625 661.347,-187.516"/>
<polygon fill="midnightblue" stroke="midnightblue" points="554.239,-218.066 545.779,-224.444 556.369,-224.734 554.239,-218.066"/>
</g>
<!-- Node5&#45;&gt;Node8 -->
<g id="edge15" class="edge"><title>Node5&#45;&gt;Node8</title>
<path fill="none" stroke="midnightblue" d="M475.874,-220.729C459.833,-213.84 443.287,-203.426 434,-188 422.867,-169.509 438.178,-144.457 447.96,-131.519"/>
<polygon fill="midnightblue" stroke="midnightblue" points="474.614,-223.994 485.201,-224.388 477.17,-217.478 474.614,-223.994"/>
</g>
<!-- Node14 -->
<g id="node14" class="node"><title>Node14</title>
<g id="a_node14"><a xlink:href="TileMap_8cpp.html" target="_top" xlink:title="Engine/src/TileMap.cpp">
<polygon fill="white" stroke="black" points="229.5,-168.5 229.5,-187.5 348.5,-187.5 348.5,-168.5 229.5,-168.5"/>
<text text-anchor="middle" x="289" y="-175.5" font-family="Helvetica,sans-Serif" font-size="10.00">Engine/src/TileMap.cpp</text>
</a>
</g>
</g>
<!-- Node5&#45;&gt;Node14 -->
<g id="edge14" class="edge"><title>Node5&#45;&gt;Node14</title>
<path fill="none" stroke="midnightblue" d="M472.799,-222.153C429.342,-211.95 365.159,-196.881 325.274,-187.516"/>
<polygon fill="midnightblue" stroke="midnightblue" points="472.021,-225.565 482.556,-224.444 473.621,-218.75 472.021,-225.565"/>
</g>
<!-- Node15 -->
<g id="node15" class="node"><title>Node15</title>
<g id="a_node15"><a xlink:href="WaveManager_8h.html" target="_top" xlink:title="Game/include/WaveManager.h">
<polygon fill="white" stroke="black" points="443.5,-168.5 443.5,-187.5 594.5,-187.5 594.5,-168.5 443.5,-168.5"/>
<text text-anchor="middle" x="519" y="-175.5" font-family="Helvetica,sans-Serif" font-size="10.00">Game/include/WaveManager.h</text>
</a>
</g>
</g>
<!-- Node5&#45;&gt;Node15 -->
<g id="edge16" class="edge"><title>Node5&#45;&gt;Node15</title>
<path fill="none" stroke="midnightblue" d="M519,-213.805C519,-204.91 519,-194.78 519,-187.751"/>
<polygon fill="midnightblue" stroke="midnightblue" points="515.5,-214.083 519,-224.083 522.5,-214.083 515.5,-214.083"/>
</g>
<!-- Node16 -->
<g id="node16" class="node"><title>Node16</title>
<g id="a_node16"><a xlink:href="WaveManager_8cpp.html" target="_top" xlink:title="Game/src/WaveManager.cpp">
<polygon fill="white" stroke="black" points="594,-56.5 594,-75.5 738,-75.5 738,-56.5 594,-56.5"/>
<text text-anchor="middle" x="666" y="-63.5" font-family="Helvetica,sans-Serif" font-size="10.00">Game/src/WaveManager.cpp</text>
</a>
</g>
</g>
<!-- Node5&#45;&gt;Node16 -->
<g id="edge30" class="edge"><title>Node5&#45;&gt;Node16</title>
<path fill="none" stroke="midnightblue" d="M483.695,-220.893C429.991,-200.647 337.93,-157.625 377,-112 390.975,-95.6805 512.792,-81.2704 593.747,-73.3781"/>
<polygon fill="midnightblue" stroke="midnightblue" points="482.642,-224.235 493.236,-224.404 485.06,-217.666 482.642,-224.235"/>
</g>
<!-- Node5&#45;&gt;Node17 -->
<g id="edge19" class="edge"><title>Node5&#45;&gt;Node17</title>
<path fill="none" stroke="midnightblue" d="M592.323,-223.864C727.349,-208.299 873.397,-193.159 953.211,-185.031"/>
<polygon fill="midnightblue" stroke="midnightblue" points="591.74,-220.408 582.208,-225.033 592.544,-227.362 591.74,-220.408"/>
</g>
<!-- Node5&#45;&gt;Node21 -->
<g id="edge27" class="edge"><title>Node5&#45;&gt;Node21</title>
<path fill="none" stroke="midnightblue" d="M579.874,-222.727C640.345,-212.523 731.988,-197.058 788.532,-187.516"/>
<polygon fill="midnightblue" stroke="midnightblue" points="578.983,-219.328 569.705,-224.444 580.148,-226.231 578.983,-219.328"/>
</g>
<!-- Node7 -->
<g id="node7" class="node"><title>Node7</title>
<g id="a_node7"><a xlink:href="DragAndDrop_8cpp.html" target="_top" xlink:title="Engine/src/DragAndDrop.cpp">
<polygon fill="white" stroke="black" points="580,-112.5 580,-131.5 724,-131.5 724,-112.5 580,-112.5"/>
<text text-anchor="middle" x="652" y="-119.5" font-family="Helvetica,sans-Serif" font-size="10.00">Engine/src/DragAndDrop.cpp</text>
</a>
</g>
</g>
<!-- Node6&#45;&gt;Node7 -->
<g id="edge6" class="edge"><title>Node6&#45;&gt;Node7</title>
<path fill="none" stroke="midnightblue" d="M676.377,-159.566C670.183,-150.275 662.832,-139.248 657.834,-131.751"/>
<polygon fill="midnightblue" stroke="midnightblue" points="673.596,-161.704 682.055,-168.083 679.42,-157.821 673.596,-161.704"/>
</g>
<!-- Node6&#45;&gt;Node8 -->
<g id="edge7" class="edge"><title>Node6&#45;&gt;Node8</title>
<path fill="none" stroke="midnightblue" d="M641.197,-166.153C597.173,-155.95 532.153,-140.881 491.747,-131.516"/>
<polygon fill="midnightblue" stroke="midnightblue" points="640.548,-169.595 651.08,-168.444 642.129,-162.776 640.548,-169.595"/>
</g>
<!-- Node13 -->
<g id="node13" class="node"><title>Node13</title>
<g id="a_node13"><a xlink:href="Tower_8cpp.html" target="_top" xlink:title="Game/src/Tower.cpp">
<polygon fill="white" stroke="black" points="742,-112.5 742,-131.5 850,-131.5 850,-112.5 742,-112.5"/>
<text text-anchor="middle" x="796" y="-119.5" font-family="Helvetica,sans-Serif" font-size="10.00">Game/src/Tower.cpp</text>
</a>
</g>
</g>
<!-- Node6&#45;&gt;Node13 -->
<g id="edge13" class="edge"><title>Node6&#45;&gt;Node13</title>
<path fill="none" stroke="midnightblue" d="M714.548,-163.726C734.546,-153.727 761.387,-140.307 778.691,-131.655"/>
<polygon fill="midnightblue" stroke="midnightblue" points="712.731,-160.721 705.352,-168.324 715.862,-166.982 712.731,-160.721"/>
</g>
<!-- Node8&#45;&gt;Node9 -->
<g id="edge8" class="edge"><title>Node8&#45;&gt;Node9</title>
<path fill="none" stroke="midnightblue" d="M448.528,-102.101C447.896,-93.1357 448.343,-82.8579 449.869,-75.7511"/>
<polygon fill="midnightblue" stroke="midnightblue" points="445.066,-102.622 449.834,-112.083 452.007,-101.713 445.066,-102.622"/>
</g>
<!-- Node11 -->
<g id="node11" class="node"><title>Node11</title>
<g id="a_node11"><a xlink:href="StageState_8cpp.html" target="_top" xlink:title="Game/src/StageState.cpp">
<polygon fill="white" stroke="black" points="813,-56.5 813,-75.5 943,-75.5 943,-56.5 813,-56.5"/>
<text text-anchor="middle" x="878" y="-63.5" font-family="Helvetica,sans-Serif" font-size="10.00">Game/src/StageState.cpp</text>
</a>
</g>
</g>
<!-- Node8&#45;&gt;Node11 -->
<g id="edge11" class="edge"><title>Node8&#45;&gt;Node11</title>
<path fill="none" stroke="midnightblue" d="M532.086,-111.159C612.441,-100.901 736.999,-85.0002 812.678,-75.339"/>
<polygon fill="midnightblue" stroke="midnightblue" points="531.502,-107.705 522.026,-112.444 532.388,-114.649 531.502,-107.705"/>
</g>
<!-- Node12 -->
<g id="node12" class="node"><title>Node12</title>
<g id="a_node12"><a xlink:href="TitleState_8cpp.html" target="_top" xlink:title="Game/src/TitleState.cpp">
<polygon fill="white" stroke="black" points="961.5,-56.5 961.5,-75.5 1084.5,-75.5 1084.5,-56.5 961.5,-56.5"/>
<text text-anchor="middle" x="1023" y="-63.5" font-family="Helvetica,sans-Serif" font-size="10.00">Game/src/TitleState.cpp</text>
</a>
</g>
</g>
<!-- Node8&#45;&gt;Node12 -->
<g id="edge12" class="edge"><title>Node8&#45;&gt;Node12</title>
<path fill="none" stroke="midnightblue" d="M533.948,-114.729C632.055,-106.735 804.551,-92.0155 952,-76 955.088,-75.6646 958.25,-75.3088 961.442,-74.94"/>
<polygon fill="midnightblue" stroke="midnightblue" points="533.5,-111.254 523.816,-115.552 534.067,-118.231 533.5,-111.254"/>
</g>
<!-- Node9&#45;&gt;Node8 -->
<g id="edge9" class="edge"><title>Node9&#45;&gt;Node8</title>
<path fill="none" stroke="midnightblue" d="M461.458,-85.6911C462.106,-94.6353 461.676,-104.927 460.166,-112.083"/>
<polygon fill="midnightblue" stroke="midnightblue" points="464.923,-85.2002 460.131,-75.7511 457.985,-86.1262 464.923,-85.2002"/>
</g>
<!-- Node10 -->
<g id="node10" class="node"><title>Node10</title>
<g id="a_node10"><a xlink:href="EndState_8cpp.html" target="_top" xlink:title="Game/src/EndState.cpp">
<polygon fill="white" stroke="black" points="394,-0.5 394,-19.5 516,-19.5 516,-0.5 394,-0.5"/>
<text text-anchor="middle" x="455" y="-7.5" font-family="Helvetica,sans-Serif" font-size="10.00">Game/src/EndState.cpp</text>
</a>
</g>
</g>
<!-- Node9&#45;&gt;Node10 -->
<g id="edge10" class="edge"><title>Node9&#45;&gt;Node10</title>
<path fill="none" stroke="midnightblue" d="M455,-45.8045C455,-36.9102 455,-26.7798 455,-19.7511"/>
<polygon fill="midnightblue" stroke="midnightblue" points="451.5,-46.083 455,-56.083 458.5,-46.083 451.5,-46.083"/>
</g>
<!-- Node15&#45;&gt;Node8 -->
<g id="edge17" class="edge"><title>Node15&#45;&gt;Node8</title>
<path fill="none" stroke="midnightblue" d="M501.009,-161.82C489.542,-152.145 475.087,-139.948 465.47,-131.834"/>
<polygon fill="midnightblue" stroke="midnightblue" points="498.817,-164.55 508.717,-168.324 503.331,-159.2 498.817,-164.55"/>
</g>
<!-- Node15&#45;&gt;Node16 -->
<g id="edge18" class="edge"><title>Node15&#45;&gt;Node16</title>
<path fill="none" stroke="midnightblue" d="M529.713,-159.57C539.167,-145.319 554.055,-125.403 571,-112 591.898,-95.4704 619.858,-83.1583 640.029,-75.6295"/>
<polygon fill="midnightblue" stroke="midnightblue" points="526.517,-158.072 524.077,-168.382 532.414,-161.844 526.517,-158.072"/>
</g>
<!-- Node17&#45;&gt;Node11 -->
<g id="edge25" class="edge"><title>Node17&#45;&gt;Node11</title>
<path fill="none" stroke="midnightblue" d="M994.365,-161.816C965.612,-138.387 911.369,-94.1898 888.544,-75.5914"/>
<polygon fill="midnightblue" stroke="midnightblue" points="992.444,-164.765 1002.41,-168.368 996.865,-159.338 992.444,-164.765"/>
</g>
<!-- Node17&#45;&gt;Node16 -->
<g id="edge26" class="edge"><title>Node17&#45;&gt;Node16</title>
<path fill="none" stroke="midnightblue" d="M986.286,-164.076C955.985,-149.809 904.823,-126.892 859,-112 809.919,-96.0486 752.093,-83.3407 712.621,-75.5518"/>
<polygon fill="midnightblue" stroke="midnightblue" points="984.823,-167.256 995.358,-168.384 987.826,-160.933 984.823,-167.256"/>
</g>
<!-- Node18 -->
<g id="node18" class="node"><title>Node18</title>
<g id="a_node18"><a xlink:href="GameResources_8h.html" target="_top" xlink:title="Game/include/GameResources.h">
<polygon fill="white" stroke="black" points="982.5,-112.5 982.5,-131.5 1143.5,-131.5 1143.5,-112.5 982.5,-112.5"/>
<text text-anchor="middle" x="1063" y="-119.5" font-family="Helvetica,sans-Serif" font-size="10.00">Game/include/GameResources.h</text>
</a>
</g>
</g>
<!-- Node17&#45;&gt;Node18 -->
<g id="edge20" class="edge"><title>Node17&#45;&gt;Node18</title>
<path fill="none" stroke="midnightblue" d="M1028.08,-160.718C1036.89,-151.2 1047.67,-139.561 1054.9,-131.751"/>
<polygon fill="midnightblue" stroke="midnightblue" points="1025.48,-158.367 1021.26,-168.083 1030.62,-163.123 1025.48,-158.367"/>
</g>
<!-- Node20 -->
<g id="node20" class="node"><title>Node20</title>
<g id="a_node20"><a xlink:href="Enemy_8cpp.html" target="_top" xlink:title="Game/src/Enemy.cpp">
<polygon fill="white" stroke="black" points="1162,-112.5 1162,-131.5 1274,-131.5 1274,-112.5 1162,-112.5"/>
<text text-anchor="middle" x="1218" y="-119.5" font-family="Helvetica,sans-Serif" font-size="10.00">Game/src/Enemy.cpp</text>
</a>
</g>
</g>
<!-- Node17&#45;&gt;Node20 -->
<g id="edge24" class="edge"><title>Node17&#45;&gt;Node20</title>
<path fill="none" stroke="midnightblue" d="M1055.41,-165.829C1094.11,-155.633 1150.49,-140.782 1185.67,-131.516"/>
<polygon fill="midnightblue" stroke="midnightblue" points="1054.26,-162.512 1045.48,-168.444 1056.04,-169.281 1054.26,-162.512"/>
</g>
<!-- Node18&#45;&gt;Node11 -->
<g id="edge22" class="edge"><title>Node18&#45;&gt;Node11</title>
<path fill="none" stroke="midnightblue" d="M1023.83,-109.568C988.935,-99.381 938.651,-84.7034 907.177,-75.5164"/>
<polygon fill="midnightblue" stroke="midnightblue" points="1023.11,-113.001 1033.69,-112.444 1025.07,-106.282 1023.11,-113.001"/>
</g>
<!-- Node18&#45;&gt;Node16 -->
<g id="edge23" class="edge"><title>Node18&#45;&gt;Node16</title>
<path fill="none" stroke="midnightblue" d="M989.791,-111.042C914.81,-100.843 799.487,-85.1569 728.612,-75.5164"/>
<polygon fill="midnightblue" stroke="midnightblue" points="989.714,-114.564 1000.09,-112.444 990.657,-107.628 989.714,-114.564"/>
</g>
<!-- Node19 -->
<g id="node19" class="node"><title>Node19</title>
<g id="a_node19"><a xlink:href="GameResources_8cpp.html" target="_top" xlink:title="Game/src/GameResources.cpp">
<polygon fill="white" stroke="black" points="1102.5,-56.5 1102.5,-75.5 1257.5,-75.5 1257.5,-56.5 1102.5,-56.5"/>
<text text-anchor="middle" x="1180" y="-63.5" font-family="Helvetica,sans-Serif" font-size="10.00">Game/src/GameResources.cpp</text>
</a>
</g>
</g>
<!-- Node18&#45;&gt;Node19 -->
<g id="edge21" class="edge"><title>Node18&#45;&gt;Node19</title>
<path fill="none" stroke="midnightblue" d="M1090.66,-108.232C1112.55,-98.1312 1142.5,-84.3091 1161.55,-75.5164"/>
<polygon fill="midnightblue" stroke="midnightblue" points="1089.15,-105.075 1081.54,-112.444 1092.09,-111.431 1089.15,-105.075"/>
</g>
<!-- Node21&#45;&gt;Node11 -->
<g id="edge28" class="edge"><title>Node21&#45;&gt;Node11</title>
<path fill="none" stroke="midnightblue" d="M847.688,-158.946C851.427,-150.815 855.69,-141.031 859,-132 866.283,-112.13 872.717,-88.0672 875.896,-75.5311"/>
<polygon fill="midnightblue" stroke="midnightblue" points="844.433,-157.642 843.342,-168.18 850.767,-160.622 844.433,-157.642"/>
</g>
<!-- Node21&#45;&gt;Node13 -->
<g id="edge29" class="edge"><title>Node21&#45;&gt;Node13</title>
<path fill="none" stroke="midnightblue" d="M825.578,-160.144C818.086,-150.736 809.063,-139.405 802.968,-131.751"/>
<polygon fill="midnightblue" stroke="midnightblue" points="822.932,-162.44 831.899,-168.083 828.408,-158.08 822.932,-162.44"/>
</g>
<!-- Node23&#45;&gt;Node17 -->
<g id="edge35" class="edge"><title>Node23&#45;&gt;Node17</title>
<path fill="none" stroke="midnightblue" d="M1069.1,-218.342C1055.09,-208.517 1037.12,-195.913 1025.34,-187.655"/>
<polygon fill="midnightblue" stroke="midnightblue" points="1067.43,-221.448 1077.63,-224.324 1071.45,-215.717 1067.43,-221.448"/>
</g>
<!-- Node23&#45;&gt;Node20 -->
<g id="edge36" class="edge"><title>Node23&#45;&gt;Node20</title>
<path fill="none" stroke="midnightblue" d="M1094.69,-214.593C1099.14,-200.323 1107.1,-180.873 1120,-168 1138.02,-150.013 1164.55,-138.437 1185.47,-131.537"/>
<polygon fill="midnightblue" stroke="midnightblue" points="1091.29,-213.726 1091.94,-224.301 1098.03,-215.629 1091.29,-213.726"/>
</g>
<!-- Node24 -->
<g id="node24" class="node"><title>Node24</title>
<g id="a_node24"><a xlink:href="HitPoints_8cpp.html" target="_top" xlink:title="Engine/src/HitPoints.cpp">
<polygon fill="white" stroke="black" points="1129.5,-168.5 1129.5,-187.5 1254.5,-187.5 1254.5,-168.5 1129.5,-168.5"/>
<text text-anchor="middle" x="1192" y="-175.5" font-family="Helvetica,sans-Serif" font-size="10.00">Engine/src/HitPoints.cpp</text>
</a>
</g>
</g>
<!-- Node23&#45;&gt;Node24 -->
<g id="edge34" class="edge"><title>Node23&#45;&gt;Node24</title>
<path fill="none" stroke="midnightblue" d="M1115.33,-219.59C1134.19,-209.605 1159.38,-196.267 1175.65,-187.655"/>
<polygon fill="midnightblue" stroke="midnightblue" points="1113.59,-216.552 1106.39,-224.324 1116.86,-222.738 1113.59,-216.552"/>
</g>
<!-- Node26&#45;&gt;Node12 -->
<g id="edge43" class="edge"><title>Node26&#45;&gt;Node12</title>
<path fill="none" stroke="midnightblue" d="M1237.78,-272.581C1266.37,-238.813 1322.94,-160.672 1282,-112 1275.6,-104.393 1157.92,-86.2929 1083.41,-75.5087"/>
<polygon fill="midnightblue" stroke="midnightblue" points="1235.11,-270.32 1231.19,-280.165 1240.39,-274.911 1235.11,-270.32"/>
</g>
<!-- Node27 -->
<g id="node27" class="node"><title>Node27</title>
<g id="a_node27"><a xlink:href="main_8cpp.html" target="_top" xlink:title="Game/src/main.cpp">
<polygon fill="white" stroke="black" points="1330,-224.5 1330,-243.5 1432,-243.5 1432,-224.5 1330,-224.5"/>
<text text-anchor="middle" x="1381" y="-231.5" font-family="Helvetica,sans-Serif" font-size="10.00">Game/src/main.cpp</text>
</a>
</g>
</g>
<!-- Node26&#45;&gt;Node27 -->
<g id="edge42" class="edge"><title>Node26&#45;&gt;Node27</title>
<path fill="none" stroke="midnightblue" d="M1257.61,-277.172C1287.36,-267.004 1329.55,-252.585 1356.08,-243.516"/>
<polygon fill="midnightblue" stroke="midnightblue" points="1256.37,-273.898 1248.04,-280.444 1258.63,-280.521 1256.37,-273.898"/>
</g>
</g>
</svg>
