<?xml version="1.0" encoding="UTF-8" standalone="no"?>
<!DOCTYPE svg PUBLIC "-//W3C//DTD SVG 1.1//EN"
 "http://www.w3.org/Graphics/SVG/1.1/DTD/svg11.dtd">
<!-- Generated by graphviz version 2.36.0 (20140111.2315)
 -->
<!-- Title: Game/src/StageState.cpp Pages: 1 -->
<svg width="3173pt" height="644pt"
 viewBox="0.00 0.00 3173.00 644.00" xmlns="http://www.w3.org/2000/svg" xmlns:xlink="http://www.w3.org/1999/xlink">
<g id="graph0" class="graph" transform="scale(1 1) rotate(0) translate(4 640)">
<title>Game/src/StageState.cpp</title>
<polygon fill="white" stroke="none" points="-4,4 -4,-640 3169,-640 3169,4 -4,4"/>
<!-- Node1 -->
<g id="node1" class="node"><title>Node1</title>
<polygon fill="#bfbfbf" stroke="black" points="1849,-616.5 1849,-635.5 1979,-635.5 1979,-616.5 1849,-616.5"/>
<text text-anchor="middle" x="1914" y="-623.5" font-family="Helvetica,sans-Serif" font-size="10.00">Game/src/StageState.cpp</text>
</g>
<!-- Node2 -->
<g id="node2" class="node"><title>Node2</title>
<g id="a_node2"><a xlink:href="StageState_8h.html" target="_top" xlink:title="StageState.h">
<polygon fill="white" stroke="black" points="1101,-560.5 1101,-579.5 1175,-579.5 1175,-560.5 1101,-560.5"/>
<text text-anchor="middle" x="1138" y="-567.5" font-family="Helvetica,sans-Serif" font-size="10.00">StageState.h</text>
</a>
</g>
</g>
<!-- Node1&#45;&gt;Node2 -->
<g id="edge1" class="edge"><title>Node1&#45;&gt;Node2</title>
<path fill="none" stroke="midnightblue" d="M1848.88,-622.667C1723.17,-617.772 1438.43,-604.778 1200,-580 1195.25,-579.506 1190.3,-578.917 1185.36,-578.279"/>
<polygon fill="midnightblue" stroke="midnightblue" points="1185.69,-574.792 1175.31,-576.917 1184.75,-581.728 1185.69,-574.792"/>
</g>
<!-- Node7 -->
<g id="node7" class="node"><title>Node7</title>
<g id="a_node7"><a xlink:href="SDL__include_8h.html" target="_top" xlink:title="SDL_include.h">
<polygon fill="white" stroke="black" points="2112,-0.5 2112,-19.5 2192,-19.5 2192,-0.5 2112,-0.5"/>
<text text-anchor="middle" x="2152" y="-7.5" font-family="Helvetica,sans-Serif" font-size="10.00">SDL_include.h</text>
</a>
</g>
</g>
<!-- Node1&#45;&gt;Node7 -->
<g id="edge190" class="edge"><title>Node1&#45;&gt;Node7</title>
<path fill="none" stroke="midnightblue" d="M1979.27,-624.613C2178.9,-623.053 2779.33,-615.457 2971,-580 3060.42,-563.459 3165,-605.933 3165,-515 3165,-515 3165,-515 3165,-121 3165,-54.0067 3093.93,-72.4806 3029,-56 2870.85,-15.86 2364.04,-11.3845 2202.19,-10.9955"/>
<polygon fill="midnightblue" stroke="midnightblue" points="2202.04,-7.49529 2192.04,-10.9755 2202.03,-14.4953 2202.04,-7.49529"/>
</g>
<!-- Node8 -->
<g id="node8" class="node"><title>Node8</title>
<g id="a_node8"><a xlink:href="Vec2_8h.html" target="_top" xlink:title="Vec2.h">
<polygon fill="white" stroke="black" points="564.5,-56.5 564.5,-75.5 611.5,-75.5 611.5,-56.5 564.5,-56.5"/>
<text text-anchor="middle" x="588" y="-63.5" font-family="Helvetica,sans-Serif" font-size="10.00">Vec2.h</text>
</a>
</g>
</g>
<!-- Node1&#45;&gt;Node8 -->
<g id="edge188" class="edge"><title>Node1&#45;&gt;Node8</title>
<path fill="none" stroke="midnightblue" d="M1848.66,-624.666C1551.18,-622.962 332.063,-613.952 165,-580 87.7605,-564.303 0,-593.818 0,-515 0,-515 0,-515 0,-177 0,-120.977 54.7794,-129.497 108,-112 191.165,-84.6588 458.92,-71.9535 554.062,-68.2211"/>
<polygon fill="midnightblue" stroke="midnightblue" points="554.414,-71.7103 564.273,-67.8292 554.146,-64.7154 554.414,-71.7103"/>
</g>
<!-- Node20 -->
<g id="node20" class="node"><title>Node20</title>
<g id="a_node20"><a xlink:href="GameResources_8h.html" target="_top" xlink:title="GameResources.h">
<polygon fill="white" stroke="red" points="1546,-448.5 1546,-467.5 1644,-467.5 1644,-448.5 1546,-448.5"/>
<text text-anchor="middle" x="1595" y="-455.5" font-family="Helvetica,sans-Serif" font-size="10.00">GameResources.h</text>
</a>
</g>
</g>
<!-- Node1&#45;&gt;Node20 -->
<g id="edge187" class="edge"><title>Node1&#45;&gt;Node20</title>
<path fill="none" stroke="midnightblue" d="M1868.09,-616.406C1811.07,-603.914 1713.02,-576.299 1645,-524 1628.13,-511.026 1613.91,-491.038 1605,-476.652"/>
<polygon fill="midnightblue" stroke="midnightblue" points="1607.83,-474.557 1599.71,-467.743 1601.81,-478.129 1607.83,-474.557"/>
</g>
<!-- Node21 -->
<g id="node21" class="node"><title>Node21</title>
<g id="a_node21"><a xlink:href="Enemy_8h.html" target="_top" xlink:title="Enemy.h">
<polygon fill="white" stroke="red" points="1536,-392.5 1536,-411.5 1592,-411.5 1592,-392.5 1536,-392.5"/>
<text text-anchor="middle" x="1564" y="-399.5" font-family="Helvetica,sans-Serif" font-size="10.00">Enemy.h</text>
</a>
</g>
</g>
<!-- Node1&#45;&gt;Node21 -->
<g id="edge184" class="edge"><title>Node1&#45;&gt;Node21</title>
<path fill="none" stroke="midnightblue" d="M1848.9,-623.455C1713.83,-618.732 1410.44,-599.74 1347,-524 1292.51,-458.941 1449.95,-422.414 1525.75,-408.99"/>
<polygon fill="midnightblue" stroke="midnightblue" points="1526.61,-412.393 1535.87,-407.249 1525.42,-405.495 1526.61,-412.393"/>
</g>
<!-- Node23 -->
<g id="node23" class="node"><title>Node23</title>
<g id="a_node23"><a xlink:href="Error_8h.html" target="_top" xlink:title="Error.h">
<polygon fill="white" stroke="red" points="2587,-280.5 2587,-299.5 2633,-299.5 2633,-280.5 2587,-280.5"/>
<text text-anchor="middle" x="2610" y="-287.5" font-family="Helvetica,sans-Serif" font-size="10.00">Error.h</text>
</a>
</g>
</g>
<!-- Node1&#45;&gt;Node23 -->
<g id="edge185" class="edge"><title>Node1&#45;&gt;Node23</title>
<path fill="none" stroke="midnightblue" d="M1979.05,-623.651C2181.84,-618.59 2789,-596.624 2789,-515 2789,-515 2789,-515 2789,-457 2789,-435.35 2674.96,-342.507 2628.93,-305.911"/>
<polygon fill="midnightblue" stroke="midnightblue" points="2630.94,-303.036 2620.93,-299.57 2626.59,-308.523 2630.94,-303.036"/>
</g>
<!-- Node28 -->
<g id="node28" class="node"><title>Node28</title>
<g id="a_node28"><a xlink:href="Camera_8h.html" target="_top" xlink:title="Camera.h">
<polygon fill="white" stroke="black" points="722.5,-280.5 722.5,-299.5 781.5,-299.5 781.5,-280.5 722.5,-280.5"/>
<text text-anchor="middle" x="752" y="-287.5" font-family="Helvetica,sans-Serif" font-size="10.00">Camera.h</text>
</a>
</g>
</g>
<!-- Node1&#45;&gt;Node28 -->
<g id="edge178" class="edge"><title>Node1&#45;&gt;Node28</title>
<path fill="none" stroke="midnightblue" d="M1848.7,-623.669C1620.4,-618.41 867.488,-595.722 789,-524 731.764,-471.698 752.542,-432.814 742,-356 739.841,-340.27 742.979,-322.449 746.295,-309.451"/>
<polygon fill="midnightblue" stroke="midnightblue" points="749.666,-310.393 749.011,-299.818 742.929,-308.493 749.666,-310.393"/>
</g>
<!-- Node31 -->
<g id="node31" class="node"><title>Node31</title>
<g id="a_node31"><a xlink:href="Obstacle_8h.html" target="_top" xlink:title="Obstacle.h">
<polygon fill="white" stroke="red" points="598,-336.5 598,-355.5 662,-355.5 662,-336.5 598,-336.5"/>
<text text-anchor="middle" x="630" y="-343.5" font-family="Helvetica,sans-Serif" font-size="10.00">Obstacle.h</text>
</a>
</g>
</g>
<!-- Node1&#45;&gt;Node31 -->
<g id="edge189" class="edge"><title>Node1&#45;&gt;Node31</title>
<path fill="none" stroke="midnightblue" d="M1848.92,-624.541C1537.33,-622.19 211.634,-610.414 182,-580 134.758,-531.514 195.327,-473.589 258,-448 363.965,-404.735 404.486,-448.403 513,-412 549.208,-399.853 587.149,-376.512 609.674,-361.356"/>
<polygon fill="midnightblue" stroke="midnightblue" points="611.79,-364.149 618.061,-355.609 607.834,-358.374 611.79,-364.149"/>
</g>
<!-- Node35 -->
<g id="node35" class="node"><title>Node35</title>
<g id="a_node35"><a xlink:href="Game_8h.html" target="_top" xlink:title="Game.h">
<polygon fill="white" stroke="red" points="2803.5,-280.5 2803.5,-299.5 2854.5,-299.5 2854.5,-280.5 2803.5,-280.5"/>
<text text-anchor="middle" x="2829" y="-287.5" font-family="Helvetica,sans-Serif" font-size="10.00">Game.h</text>
</a>
</g>
</g>
<!-- Node1&#45;&gt;Node35 -->
<g id="edge186" class="edge"><title>Node1&#45;&gt;Node35</title>
<path fill="none" stroke="midnightblue" d="M1979.37,-624.314C2194.22,-621.202 2865,-604.335 2865,-515 2865,-515 2865,-515 2865,-401 2865,-366.982 2849.26,-329.85 2838.59,-308.6"/>
<polygon fill="midnightblue" stroke="midnightblue" points="2841.59,-306.772 2833.86,-299.527 2835.38,-310.012 2841.59,-306.772"/>
</g>
<!-- Node43 -->
<g id="node43" class="node"><title>Node43</title>
<g id="a_node43"><a xlink:href="EndStateData_8h.html" target="_top" xlink:title="EndStateData.h">
<polygon fill="white" stroke="red" points="2893,-336.5 2893,-355.5 2979,-355.5 2979,-336.5 2893,-336.5"/>
<text text-anchor="middle" x="2936" y="-343.5" font-family="Helvetica,sans-Serif" font-size="10.00">EndStateData.h</text>
</a>
</g>
</g>
<!-- Node1&#45;&gt;Node43 -->
<g id="edge183" class="edge"><title>Node1&#45;&gt;Node43</title>
<path fill="none" stroke="midnightblue" d="M1979.28,-625.419C2183.58,-626.253 2801.73,-624.996 2879,-580 2908.52,-562.812 2920,-549.156 2920,-515 2920,-515 2920,-515 2920,-457 2920,-424.626 2926.87,-387.445 2931.61,-365.659"/>
<polygon fill="midnightblue" stroke="midnightblue" points="2935.05,-366.303 2933.84,-355.777 2928.22,-364.759 2935.05,-366.303"/>
</g>
<!-- Node45 -->
<g id="node45" class="node"><title>Node45</title>
<g id="a_node45"><a xlink:href="AIArt_8h.html" target="_top" xlink:title="AIArt.h">
<polygon fill="white" stroke="black" points="2213.5,-504.5 2213.5,-523.5 2260.5,-523.5 2260.5,-504.5 2213.5,-504.5"/>
<text text-anchor="middle" x="2237" y="-511.5" font-family="Helvetica,sans-Serif" font-size="10.00">AIArt.h</text>
</a>
</g>
</g>
<!-- Node1&#45;&gt;Node45 -->
<g id="edge144" class="edge"><title>Node1&#45;&gt;Node45</title>
<path fill="none" stroke="midnightblue" d="M1939.08,-616.46C1996.76,-596.815 2138.89,-548.414 2203.75,-526.323"/>
<polygon fill="midnightblue" stroke="midnightblue" points="2205.14,-529.549 2213.47,-523.012 2202.88,-522.922 2205.14,-529.549"/>
</g>
<!-- Node46 -->
<g id="node46" class="node"><title>Node46</title>
<g id="a_node46"><a xlink:href="AIEngineer_8h.html" target="_top" xlink:title="AIEngineer.h">
<polygon fill="white" stroke="black" points="1654.5,-504.5 1654.5,-523.5 1727.5,-523.5 1727.5,-504.5 1654.5,-504.5"/>
<text text-anchor="middle" x="1691" y="-511.5" font-family="Helvetica,sans-Serif" font-size="10.00">AIEngineer.h</text>
</a>
</g>
</g>
<!-- Node1&#45;&gt;Node46 -->
<g id="edge152" class="edge"><title>Node1&#45;&gt;Node46</title>
<path fill="none" stroke="midnightblue" d="M1896.5,-616.368C1857.58,-597.171 1763.66,-550.842 1717.5,-528.074"/>
<polygon fill="midnightblue" stroke="midnightblue" points="1718.93,-524.876 1708.42,-523.591 1715.84,-531.154 1718.93,-524.876"/>
</g>
<!-- Node47 -->
<g id="node47" class="node"><title>Node47</title>
<g id="a_node47"><a xlink:href="AIMedic_8h.html" target="_top" xlink:title="AIMedic.h">
<polygon fill="white" stroke="black" points="1883.5,-504.5 1883.5,-523.5 1944.5,-523.5 1944.5,-504.5 1883.5,-504.5"/>
<text text-anchor="middle" x="1914" y="-511.5" font-family="Helvetica,sans-Serif" font-size="10.00">AIMedic.h</text>
</a>
</g>
</g>
<!-- Node1&#45;&gt;Node47 -->
<g id="edge158" class="edge"><title>Node1&#45;&gt;Node47</title>
<path fill="none" stroke="midnightblue" d="M1914,-616.368C1914,-598.617 1914,-557.666 1914,-533.597"/>
<polygon fill="midnightblue" stroke="midnightblue" points="1917.5,-533.591 1914,-523.591 1910.5,-533.591 1917.5,-533.591"/>
</g>
<!-- Node48 -->
<g id="node48" class="node"><title>Node48</title>
<g id="a_node48"><a xlink:href="AIQuimic_8h.html" target="_top" xlink:title="AIQuimic.h">
<polygon fill="white" stroke="black" points="1979.5,-504.5 1979.5,-523.5 2044.5,-523.5 2044.5,-504.5 1979.5,-504.5"/>
<text text-anchor="middle" x="2012" y="-511.5" font-family="Helvetica,sans-Serif" font-size="10.00">AIQuimic.h</text>
</a>
</g>
</g>
<!-- Node1&#45;&gt;Node48 -->
<g id="edge164" class="edge"><title>Node1&#45;&gt;Node48</title>
<path fill="none" stroke="midnightblue" d="M1921.69,-616.368C1938.01,-598.055 1976.32,-555.049 1997.42,-531.362"/>
<polygon fill="midnightblue" stroke="midnightblue" points="2000.31,-533.386 2004.35,-523.591 1995.08,-528.73 2000.31,-533.386"/>
</g>
<!-- Node50 -->
<g id="node50" class="node"><title>Node50</title>
<g id="a_node50"><a xlink:href="Collision_8h.html" target="_top" xlink:title="Collision.h">
<polygon fill="white" stroke="black" points="3037,-280.5 3037,-299.5 3099,-299.5 3099,-280.5 3037,-280.5"/>
<text text-anchor="middle" x="3068" y="-287.5" font-family="Helvetica,sans-Serif" font-size="10.00">Collision.h</text>
</a>
</g>
</g>
<!-- Node1&#45;&gt;Node50 -->
<g id="edge179" class="edge"><title>Node1&#45;&gt;Node50</title>
<path fill="none" stroke="midnightblue" d="M1979.2,-625.619C2221.75,-627.075 3058,-624.179 3058,-515 3058,-515 3058,-515 3058,-401 3058,-368.816 3062.3,-331.552 3065.26,-309.702"/>
<polygon fill="midnightblue" stroke="midnightblue" points="3068.76,-309.925 3066.69,-299.534 3061.83,-308.947 3068.76,-309.925"/>
</g>
<!-- Node3 -->
<g id="node3" class="node"><title>Node3</title>
<polygon fill="white" stroke="#bfbfbf" points="2044,-112.5 2044,-131.5 2096,-131.5 2096,-112.5 2044,-112.5"/>
<text text-anchor="middle" x="2070" y="-119.5" font-family="Helvetica,sans-Serif" font-size="10.00">memory</text>
</g>
<!-- Node2&#45;&gt;Node3 -->
<g id="edge2" class="edge"><title>Node2&#45;&gt;Node3</title>
<path fill="none" stroke="midnightblue" d="M1175.19,-568.826C1363.73,-567.776 2209.36,-561.024 2320,-524 2361.33,-510.169 2621.82,-338.628 2642,-300 2646.12,-292.122 2646.61,-287.6 2642,-280 2628.03,-256.97 2452.71,-176.033 2427,-168 2313.75,-132.618 2172.04,-124.967 2106.44,-123.375"/>
<polygon fill="midnightblue" stroke="midnightblue" points="2106.28,-119.871 2096.21,-123.161 2106.13,-126.869 2106.28,-119.871"/>
</g>
<!-- Node4 -->
<g id="node4" class="node"><title>Node4</title>
<polygon fill="white" stroke="#bfbfbf" points="788,-112.5 788,-131.5 832,-131.5 832,-112.5 788,-112.5"/>
<text text-anchor="middle" x="810" y="-119.5" font-family="Helvetica,sans-Serif" font-size="10.00">vector</text>
</g>
<!-- Node2&#45;&gt;Node4 -->
<g id="edge3" class="edge"><title>Node2&#45;&gt;Node4</title>
<path fill="none" stroke="midnightblue" d="M1100.71,-566.735C1070.36,-564.898 1026.41,-562.253 988,-560 918.228,-555.907 421.793,-556.657 360,-524 327.776,-506.97 310,-495.447 310,-459 310,-459 310,-459 310,-401 310,-367.31 325.312,-359.956 349,-336 382.391,-302.232 395.244,-295.878 440,-280 556.171,-238.787 607.886,-305 715,-244 757.599,-219.74 787.949,-168.065 801.716,-140.759"/>
<polygon fill="midnightblue" stroke="midnightblue" points="804.947,-142.119 806.171,-131.595 798.651,-139.058 804.947,-142.119"/>
</g>
<!-- Node5 -->
<g id="node5" class="node"><title>Node5</title>
<g id="a_node5"><a xlink:href="ActionManager_8h.html" target="_top" xlink:title="ActionManager.h">
<polygon fill="white" stroke="black" points="2659,-224.5 2659,-243.5 2749,-243.5 2749,-224.5 2659,-224.5"/>
<text text-anchor="middle" x="2704" y="-231.5" font-family="Helvetica,sans-Serif" font-size="10.00">ActionManager.h</text>
</a>
</g>
</g>
<!-- Node2&#45;&gt;Node5 -->
<g id="edge4" class="edge"><title>Node2&#45;&gt;Node5</title>
<path fill="none" stroke="midnightblue" d="M1175.1,-568.773C1410.6,-567.232 2690,-557.344 2765,-524 2801.48,-507.782 2827,-498.923 2827,-459 2827,-459 2827,-459 2827,-401 2827,-333.545 2760.62,-275.613 2725.39,-249.616"/>
<polygon fill="midnightblue" stroke="midnightblue" points="2727.33,-246.698 2717.16,-243.708 2723.24,-252.384 2727.33,-246.698"/>
</g>
<!-- Node6 -->
<g id="node6" class="node"><title>Node6</title>
<g id="a_node6"><a xlink:href="InputManager_8h.html" target="_top" xlink:title="InputManager.h">
<polygon fill="white" stroke="red" points="2513,-112.5 2513,-131.5 2597,-131.5 2597,-112.5 2513,-112.5"/>
<text text-anchor="middle" x="2555" y="-119.5" font-family="Helvetica,sans-Serif" font-size="10.00">InputManager.h</text>
</a>
</g>
</g>
<!-- Node2&#45;&gt;Node6 -->
<g id="edge72" class="edge"><title>Node2&#45;&gt;Node6</title>
<path fill="none" stroke="midnightblue" d="M1175.2,-569.064C1407.17,-569.323 2647.4,-568.611 2713,-524 2784.78,-475.18 2802.76,-414.643 2766,-336 2738.13,-276.39 2696.76,-290.299 2650,-244 2620,-214.292 2619.3,-201.032 2593,-168 2585.26,-158.28 2576.31,-147.65 2569.04,-139.163"/>
<polygon fill="midnightblue" stroke="midnightblue" points="2571.62,-136.793 2562.43,-131.504 2566.31,-141.363 2571.62,-136.793"/>
</g>
<!-- Node9 -->
<g id="node9" class="node"><title>Node9</title>
<g id="a_node9"><a xlink:href="AIGoDown_8h.html" target="_top" xlink:title="AIGoDown.h">
<polygon fill="white" stroke="black" points="1449.5,-504.5 1449.5,-523.5 1522.5,-523.5 1522.5,-504.5 1449.5,-504.5"/>
<text text-anchor="middle" x="1486" y="-511.5" font-family="Helvetica,sans-Serif" font-size="10.00">AIGoDown.h</text>
</a>
</g>
</g>
<!-- Node2&#45;&gt;Node9 -->
<g id="edge9" class="edge"><title>Node2&#45;&gt;Node9</title>
<path fill="none" stroke="midnightblue" d="M1175.28,-563.999C1230.55,-556.463 1337.73,-541.388 1439.25,-524.06"/>
<polygon fill="midnightblue" stroke="midnightblue" points="1440.11,-527.464 1449.37,-522.322 1438.92,-520.565 1440.11,-527.464"/>
</g>
<!-- Node11 -->
<g id="node11" class="node"><title>Node11</title>
<g id="a_node11"><a xlink:href="GameObject_8h.html" target="_top" xlink:title="GameObject.h">
<polygon fill="white" stroke="red" points="1542,-168.5 1542,-187.5 1622,-187.5 1622,-168.5 1542,-168.5"/>
<text text-anchor="middle" x="1582" y="-175.5" font-family="Helvetica,sans-Serif" font-size="10.00">GameObject.h</text>
</a>
</g>
</g>
<!-- Node2&#45;&gt;Node11 -->
<g id="edge71" class="edge"><title>Node2&#45;&gt;Node11</title>
<path fill="none" stroke="midnightblue" d="M1129.82,-560.463C1122.14,-551.934 1110.97,-538.096 1105,-524 1072.43,-447.052 1045.1,-395.271 1104,-336 1120.21,-319.683 1433.46,-223.896 1543.88,-190.488"/>
<polygon fill="midnightblue" stroke="midnightblue" points="1545.05,-193.79 1553.61,-187.546 1543.02,-187.089 1545.05,-193.79"/>
</g>
<!-- Node14 -->
<g id="node14" class="node"><title>Node14</title>
<g id="a_node14"><a xlink:href="TileMap_8h.html" target="_top" xlink:title="TileMap.h">
<polygon fill="white" stroke="red" points="1333.5,-280.5 1333.5,-299.5 1392.5,-299.5 1392.5,-280.5 1333.5,-280.5"/>
<text text-anchor="middle" x="1363" y="-287.5" font-family="Helvetica,sans-Serif" font-size="10.00">TileMap.h</text>
</a>
</g>
</g>
<!-- Node2&#45;&gt;Node14 -->
<g id="edge91" class="edge"><title>Node2&#45;&gt;Node14</title>
<path fill="none" stroke="midnightblue" d="M1132.72,-560.231C1122.27,-542.043 1100,-498.601 1100,-459 1100,-459 1100,-459 1100,-401 1100,-370.205 1100.44,-355.835 1124,-336 1191.42,-279.236 1232.49,-316.831 1319,-300 1320.44,-299.721 1321.9,-299.434 1323.37,-299.143"/>
<polygon fill="midnightblue" stroke="midnightblue" points="1324.07,-302.572 1333.19,-297.177 1322.7,-295.708 1324.07,-302.572"/>
</g>
<!-- Node17 -->
<g id="node17" class="node"><title>Node17</title>
<g id="a_node17"><a xlink:href="Tileset_8h.html" target="_top" xlink:title="Tileset.h">
<polygon fill="white" stroke="red" points="1066,-224.5 1066,-243.5 1120,-243.5 1120,-224.5 1066,-224.5"/>
<text text-anchor="middle" x="1093" y="-231.5" font-family="Helvetica,sans-Serif" font-size="10.00">Tileset.h</text>
</a>
</g>
</g>
<!-- Node2&#45;&gt;Node17 -->
<g id="edge92" class="edge"><title>Node2&#45;&gt;Node17</title>
<path fill="none" stroke="midnightblue" d="M1100.83,-565.705C1068.76,-561.116 1022.86,-550.153 992,-524 949.544,-488.017 952.127,-465.265 936,-412 926.17,-379.535 912.458,-365.614 929,-336 956.058,-287.558 1016.94,-259.48 1056.43,-245.719"/>
<polygon fill="midnightblue" stroke="midnightblue" points="1057.61,-249.018 1065.98,-242.526 1055.39,-242.379 1057.61,-249.018"/>
</g>
<!-- Node18 -->
<g id="node18" class="node"><title>Node18</title>
<g id="a_node18"><a xlink:href="Sprite_8h.html" target="_top" xlink:title="Sprite.h">
<polygon fill="white" stroke="red" points="1096,-168.5 1096,-187.5 1146,-187.5 1146,-168.5 1096,-168.5"/>
<text text-anchor="middle" x="1121" y="-175.5" font-family="Helvetica,sans-Serif" font-size="10.00">Sprite.h</text>
</a>
</g>
</g>
<!-- Node2&#45;&gt;Node18 -->
<g id="edge85" class="edge"><title>Node2&#45;&gt;Node18</title>
<path fill="none" stroke="midnightblue" d="M1100.74,-566.52C982.323,-558.574 619.245,-533.701 567,-524 467.176,-505.465 348,-560.53 348,-459 348,-459 348,-459 348,-401 348,-370.902 345.219,-356.771 367,-336 430.033,-275.889 664.337,-268.228 748,-244 774.595,-236.298 780.07,-230.436 807,-224 906.588,-200.2 1027.15,-187.234 1085.69,-181.919"/>
<polygon fill="midnightblue" stroke="midnightblue" points="1086.22,-185.385 1095.88,-181.015 1085.61,-178.413 1086.22,-185.385"/>
</g>
<!-- Node19 -->
<g id="node19" class="node"><title>Node19</title>
<g id="a_node19"><a xlink:href="NearestGOFinder_8h.html" target="_top" xlink:title="NearestGOFinder.h">
<polygon fill="white" stroke="red" points="1810.5,-224.5 1810.5,-243.5 1911.5,-243.5 1911.5,-224.5 1810.5,-224.5"/>
<text text-anchor="middle" x="1861" y="-231.5" font-family="Helvetica,sans-Serif" font-size="10.00">NearestGOFinder.h</text>
</a>
</g>
</g>
<!-- Node2&#45;&gt;Node19 -->
<g id="edge137" class="edge"><title>Node2&#45;&gt;Node19</title>
<path fill="none" stroke="midnightblue" d="M1175.18,-568.95C1366.24,-568.514 2230.26,-564.315 2269,-524 2396.22,-391.615 2034.67,-280.697 1905.19,-246.152"/>
<polygon fill="midnightblue" stroke="midnightblue" points="1905.76,-242.682 1895.2,-243.514 1903.97,-249.45 1905.76,-242.682"/>
</g>
<!-- Node22 -->
<g id="node22" class="node"><title>Node22</title>
<g id="a_node22"><a xlink:href="Timer_8h.html" target="_top" xlink:title="Timer.h">
<polygon fill="white" stroke="black" points="1610,-280.5 1610,-299.5 1660,-299.5 1660,-280.5 1610,-280.5"/>
<text text-anchor="middle" x="1635" y="-287.5" font-family="Helvetica,sans-Serif" font-size="10.00">Timer.h</text>
</a>
</g>
</g>
<!-- Node2&#45;&gt;Node22 -->
<g id="edge93" class="edge"><title>Node2&#45;&gt;Node22</title>
<path fill="none" stroke="midnightblue" d="M1138,-560.442C1138,-541.936 1138,-496.812 1138,-459 1138,-459 1138,-459 1138,-401 1138,-306.4 1485.6,-293.094 1599.41,-291.273"/>
<polygon fill="midnightblue" stroke="midnightblue" points="1599.72,-294.769 1609.67,-291.13 1599.62,-287.77 1599.72,-294.769"/>
</g>
<!-- Node24 -->
<g id="node24" class="node"><title>Node24</title>
<g id="a_node24"><a xlink:href="Sound_8h.html" target="_top" xlink:title="Sound.h">
<polygon fill="white" stroke="red" points="2515.5,-280.5 2515.5,-299.5 2568.5,-299.5 2568.5,-280.5 2515.5,-280.5"/>
<text text-anchor="middle" x="2542" y="-287.5" font-family="Helvetica,sans-Serif" font-size="10.00">Sound.h</text>
</a>
</g>
</g>
<!-- Node2&#45;&gt;Node24 -->
<g id="edge136" class="edge"><title>Node2&#45;&gt;Node24</title>
<path fill="none" stroke="midnightblue" d="M1175.34,-568.879C1393.81,-568.042 2498.8,-561.936 2559,-524 2613.21,-489.836 2637.12,-452.84 2617,-392 2605.54,-357.345 2577.08,-324.892 2558.7,-306.536"/>
<polygon fill="midnightblue" stroke="midnightblue" points="2561.13,-304.02 2551.52,-299.567 2556.26,-309.043 2561.13,-304.02"/>
</g>
<!-- Node25 -->
<g id="node25" class="node"><title>Node25</title>
<g id="a_node25"><a xlink:href="WaveManager_8h.html" target="_top" xlink:title="WaveManager.h">
<polygon fill="white" stroke="red" points="1686,-336.5 1686,-355.5 1774,-355.5 1774,-336.5 1686,-336.5"/>
<text text-anchor="middle" x="1730" y="-343.5" font-family="Helvetica,sans-Serif" font-size="10.00">WaveManager.h</text>
</a>
</g>
</g>
<!-- Node2&#45;&gt;Node25 -->
<g id="edge129" class="edge"><title>Node2&#45;&gt;Node25</title>
<path fill="none" stroke="midnightblue" d="M1158.24,-560.381C1208.26,-539.287 1342.01,-484.149 1457,-448 1519.52,-428.345 1539.36,-436.867 1600,-412 1616.22,-405.348 1618.49,-400.174 1634,-392 1656.15,-380.327 1681.86,-368.354 1701.1,-359.696"/>
<polygon fill="midnightblue" stroke="midnightblue" points="1702.55,-362.884 1710.25,-355.609 1699.69,-356.493 1702.55,-362.884"/>
</g>
<!-- Node27 -->
<g id="node27" class="node"><title>Node27</title>
<g id="a_node27"><a xlink:href="AIPrintPath_8h.html" target="_top" xlink:title="AIPrintPath.h">
<polygon fill="white" stroke="black" points="1356.5,-504.5 1356.5,-523.5 1431.5,-523.5 1431.5,-504.5 1356.5,-504.5"/>
<text text-anchor="middle" x="1394" y="-511.5" font-family="Helvetica,sans-Serif" font-size="10.00">AIPrintPath.h</text>
</a>
</g>
</g>
<!-- Node2&#45;&gt;Node27 -->
<g id="edge58" class="edge"><title>Node2&#45;&gt;Node27</title>
<path fill="none" stroke="midnightblue" d="M1175.22,-561.148C1220.5,-551.597 1297,-535.461 1346.49,-525.022"/>
<polygon fill="midnightblue" stroke="midnightblue" points="1347.25,-528.438 1356.31,-522.95 1345.81,-521.589 1347.25,-528.438"/>
</g>
<!-- Node29 -->
<g id="node29" class="node"><title>Node29</title>
<g id="a_node29"><a xlink:href="DragAndDrop_8h.html" target="_top" xlink:title="DragAndDrop.h">
<polygon fill="white" stroke="black" points="1356,-336.5 1356,-355.5 1440,-355.5 1440,-336.5 1356,-336.5"/>
<text text-anchor="middle" x="1398" y="-343.5" font-family="Helvetica,sans-Serif" font-size="10.00">DragAndDrop.h</text>
</a>
</g>
</g>
<!-- Node2&#45;&gt;Node29 -->
<g id="edge68" class="edge"><title>Node2&#45;&gt;Node29</title>
<path fill="none" stroke="midnightblue" d="M1140.42,-560.262C1146.78,-538.656 1165.92,-482.018 1200,-448 1245.48,-402.602 1315.58,-373.528 1359.02,-358.752"/>
<polygon fill="midnightblue" stroke="midnightblue" points="1360.27,-362.025 1368.66,-355.558 1358.06,-355.38 1360.27,-362.025"/>
</g>
<!-- Node30 -->
<g id="node30" class="node"><title>Node30</title>
<g id="a_node30"><a xlink:href="Music_8h.html" target="_top" xlink:title="Music.h">
<polygon fill="white" stroke="red" points="2706.5,-336.5 2706.5,-355.5 2757.5,-355.5 2757.5,-336.5 2706.5,-336.5"/>
<text text-anchor="middle" x="2732" y="-343.5" font-family="Helvetica,sans-Serif" font-size="10.00">Music.h</text>
</a>
</g>
</g>
<!-- Node2&#45;&gt;Node30 -->
<g id="edge73" class="edge"><title>Node2&#45;&gt;Node30</title>
<path fill="none" stroke="midnightblue" d="M1175.11,-569.186C1405.12,-570.18 2628.32,-573.141 2689,-524 2736.88,-485.221 2736.79,-402.939 2734.01,-365.838"/>
<polygon fill="midnightblue" stroke="midnightblue" points="2737.49,-365.519 2733.11,-355.873 2730.52,-366.147 2737.49,-365.519"/>
</g>
<!-- Node2&#45;&gt;Node31 -->
<g id="edge78" class="edge"><title>Node2&#45;&gt;Node31</title>
<path fill="none" stroke="midnightblue" d="M1100.82,-566.33C1029.21,-560.747 874.989,-546.465 827,-524 744.082,-485.183 670.967,-399.663 642.572,-363.58"/>
<polygon fill="midnightblue" stroke="midnightblue" points="645.228,-361.293 636.338,-355.529 639.694,-365.579 645.228,-361.293"/>
</g>
<!-- Node32 -->
<g id="node32" class="node"><title>Node32</title>
<g id="a_node32"><a xlink:href="State_8h.html" target="_top" xlink:title="State.h">
<polygon fill="white" stroke="red" points="2441,-224.5 2441,-243.5 2489,-243.5 2489,-224.5 2441,-224.5"/>
<text text-anchor="middle" x="2465" y="-231.5" font-family="Helvetica,sans-Serif" font-size="10.00">State.h</text>
</a>
</g>
</g>
<!-- Node2&#45;&gt;Node32 -->
<g id="edge86" class="edge"><title>Node2&#45;&gt;Node32</title>
<path fill="none" stroke="midnightblue" d="M1175.23,-568.537C1367.6,-566.022 2241.91,-553.024 2291,-524 2396.9,-461.392 2446.16,-306.948 2460.43,-253.533"/>
<polygon fill="midnightblue" stroke="midnightblue" points="2463.85,-254.294 2462.95,-243.737 2457.07,-252.549 2463.85,-254.294"/>
</g>
<!-- Node33 -->
<g id="node33" class="node"><title>Node33</title>
<g id="a_node33"><a xlink:href="Tower_8h.html" target="_top" xlink:title="Tower.h">
<polygon fill="white" stroke="red" points="945,-392.5 945,-411.5 997,-411.5 997,-392.5 945,-392.5"/>
<text text-anchor="middle" x="971" y="-399.5" font-family="Helvetica,sans-Serif" font-size="10.00">Tower.h</text>
</a>
</g>
</g>
<!-- Node2&#45;&gt;Node33 -->
<g id="edge94" class="edge"><title>Node2&#45;&gt;Node33</title>
<path fill="none" stroke="midnightblue" d="M1100.99,-564.912C1072.52,-559.884 1034.08,-548.72 1010,-524 982.499,-495.767 974.388,-448.045 971.998,-421.762"/>
<polygon fill="midnightblue" stroke="midnightblue" points="975.478,-421.357 971.268,-411.634 968.496,-421.86 975.478,-421.357"/>
</g>
<!-- Node36 -->
<g id="node36" class="node"><title>Node36</title>
<g id="a_node36"><a xlink:href="UIcanvas_8h.html" target="_top" xlink:title="UIcanvas.h">
<polygon fill="white" stroke="red" points="450.5,-168.5 450.5,-187.5 517.5,-187.5 517.5,-168.5 450.5,-168.5"/>
<text text-anchor="middle" x="484" y="-175.5" font-family="Helvetica,sans-Serif" font-size="10.00">UIcanvas.h</text>
</a>
</g>
</g>
<!-- Node2&#45;&gt;Node36 -->
<g id="edge109" class="edge"><title>Node2&#45;&gt;Node36</title>
<path fill="none" stroke="midnightblue" d="M1100.62,-569.024C953.774,-568.821 416.528,-565.218 252,-524 186.236,-507.525 114,-526.796 114,-459 114,-459 114,-459 114,-345 114,-218.542 266.729,-300.225 380,-244 410.402,-228.909 443.268,-207.409 463.74,-193.332"/>
<polygon fill="midnightblue" stroke="midnightblue" points="465.752,-196.197 471.967,-187.616 461.758,-190.448 465.752,-196.197"/>
</g>
<!-- Node37 -->
<g id="node37" class="node"><title>Node37</title>
<g id="a_node37"><a xlink:href="UIgridGroup_8h.html" target="_top" xlink:title="UIgridGroup.h">
<polygon fill="white" stroke="red" points="294.5,-224.5 294.5,-243.5 371.5,-243.5 371.5,-224.5 294.5,-224.5"/>
<text text-anchor="middle" x="333" y="-231.5" font-family="Helvetica,sans-Serif" font-size="10.00">UIgridGroup.h</text>
</a>
</g>
</g>
<!-- Node2&#45;&gt;Node37 -->
<g id="edge112" class="edge"><title>Node2&#45;&gt;Node37</title>
<path fill="none" stroke="midnightblue" d="M1100.96,-569.026C926.646,-568.929 192.541,-566.013 100,-524 63.6475,-507.496 38,-498.923 38,-459 38,-459 38,-459 38,-345 38,-305.077 64.962,-299.137 100,-280 158.061,-248.289 234.958,-238.654 284.217,-235.878"/>
<polygon fill="midnightblue" stroke="midnightblue" points="284.475,-239.37 294.292,-235.384 284.132,-232.378 284.475,-239.37"/>
</g>
<!-- Node38 -->
<g id="node38" class="node"><title>Node38</title>
<g id="a_node38"><a xlink:href="UIimageButton_8h.html" target="_top" xlink:title="UIimageButton.h">
<polygon fill="white" stroke="red" points="616,-224.5 616,-243.5 706,-243.5 706,-224.5 616,-224.5"/>
<text text-anchor="middle" x="661" y="-231.5" font-family="Helvetica,sans-Serif" font-size="10.00">UIimageButton.h</text>
</a>
</g>
</g>
<!-- Node2&#45;&gt;Node38 -->
<g id="edge117" class="edge"><title>Node2&#45;&gt;Node38</title>
<path fill="none" stroke="midnightblue" d="M1100.76,-568.421C941.458,-565.767 324.058,-553.598 296,-524 238.515,-463.361 252.596,-407.398 296,-336 328.262,-282.931 511.682,-253.184 605.593,-241.239"/>
<polygon fill="midnightblue" stroke="midnightblue" points="606.274,-244.681 615.764,-239.97 605.408,-237.735 606.274,-244.681"/>
</g>
<!-- Node39 -->
<g id="node39" class="node"><title>Node39</title>
<g id="a_node39"><a xlink:href="UItext_8h.html" target="_top" xlink:title="UItext.h">
<polygon fill="white" stroke="red" points="376,-336.5 376,-355.5 428,-355.5 428,-336.5 376,-336.5"/>
<text text-anchor="middle" x="402" y="-343.5" font-family="Helvetica,sans-Serif" font-size="10.00">UItext.h</text>
</a>
</g>
</g>
<!-- Node2&#45;&gt;Node39 -->
<g id="edge120" class="edge"><title>Node2&#45;&gt;Node39</title>
<path fill="none" stroke="midnightblue" d="M1100.85,-567.395C1001.39,-562.815 730.762,-548.414 645,-524 537.947,-493.525 492.345,-497.435 421,-412 410.059,-398.898 405.417,-379.75 403.448,-365.629"/>
<polygon fill="midnightblue" stroke="midnightblue" points="406.918,-365.163 402.373,-355.592 399.958,-365.908 406.918,-365.163"/>
</g>
<!-- Node40 -->
<g id="node40" class="node"><title>Node40</title>
<g id="a_node40"><a xlink:href="UIverticalGroup_8h.html" target="_top" xlink:title="UIverticalGroup.h">
<polygon fill="white" stroke="red" points="466.5,-224.5 466.5,-243.5 559.5,-243.5 559.5,-224.5 466.5,-224.5"/>
<text text-anchor="middle" x="513" y="-231.5" font-family="Helvetica,sans-Serif" font-size="10.00">UIverticalGroup.h</text>
</a>
</g>
</g>
<!-- Node2&#45;&gt;Node40 -->
<g id="edge125" class="edge"><title>Node2&#45;&gt;Node40</title>
<path fill="none" stroke="midnightblue" d="M1100.77,-569.423C944.085,-570.886 343.215,-573.223 276,-524 208.564,-474.615 232.643,-404.177 281,-336 302.674,-305.443 311.006,-297.744 344,-280 378.897,-261.232 422.131,-249.905 456.135,-243.31"/>
<polygon fill="midnightblue" stroke="midnightblue" points="457.178,-246.676 466.372,-241.412 455.902,-239.793 457.178,-246.676"/>
</g>
<!-- Node41 -->
<g id="node41" class="node"><title>Node41</title>
<g id="a_node41"><a xlink:href="PlayerData_8h.html" target="_top" xlink:title="PlayerData.h">
<polygon fill="white" stroke="red" points="430,-392.5 430,-411.5 504,-411.5 504,-392.5 430,-392.5"/>
<text text-anchor="middle" x="467" y="-399.5" font-family="Helvetica,sans-Serif" font-size="10.00">PlayerData.h</text>
</a>
</g>
</g>
<!-- Node2&#45;&gt;Node41 -->
<g id="edge130" class="edge"><title>Node2&#45;&gt;Node41</title>
<path fill="none" stroke="midnightblue" d="M1100.93,-569.752C1024.59,-570.314 844.957,-566.531 702,-524 617.533,-498.87 527.549,-443.352 487.859,-417.179"/>
<polygon fill="midnightblue" stroke="midnightblue" points="489.788,-414.258 479.526,-411.625 485.906,-420.083 489.788,-414.258"/>
</g>
<!-- Node42 -->
<g id="node42" class="node"><title>Node42</title>
<g id="a_node42"><a xlink:href="EndState_8h.html" target="_top" xlink:title="EndState.h">
<polygon fill="white" stroke="red" points="2543.5,-392.5 2543.5,-411.5 2608.5,-411.5 2608.5,-392.5 2543.5,-392.5"/>
<text text-anchor="middle" x="2576" y="-399.5" font-family="Helvetica,sans-Serif" font-size="10.00">EndState.h</text>
</a>
</g>
</g>
<!-- Node2&#45;&gt;Node42 -->
<g id="edge138" class="edge"><title>Node2&#45;&gt;Node42</title>
<path fill="none" stroke="midnightblue" d="M1175.18,-568.996C1391.47,-568.826 2479.96,-565.888 2536,-524 2568.1,-500.009 2574.8,-449.395 2575.97,-421.841"/>
<polygon fill="midnightblue" stroke="midnightblue" points="2579.48,-421.662 2576.2,-411.588 2572.48,-421.51 2579.48,-421.662"/>
</g>
<!-- Node5&#45;&gt;Node6 -->
<g id="edge5" class="edge"><title>Node5&#45;&gt;Node6</title>
<path fill="none" stroke="midnightblue" d="M2697.93,-224.488C2688.05,-211.109 2667.35,-184.942 2645,-168 2627.38,-154.643 2605.19,-143.494 2587.25,-135.635"/>
<polygon fill="midnightblue" stroke="midnightblue" points="2588.35,-132.299 2577.77,-131.614 2585.61,-138.743 2588.35,-132.299"/>
</g>
<!-- Node6&#45;&gt;Node7 -->
<g id="edge6" class="edge"><title>Node6&#45;&gt;Node7</title>
<path fill="none" stroke="midnightblue" d="M2523.71,-112.46C2451.62,-92.7821 2273.83,-44.2525 2193.08,-22.2128"/>
<polygon fill="midnightblue" stroke="midnightblue" points="2193.84,-18.7913 2183.27,-19.5345 2191.99,-25.5443 2193.84,-18.7913"/>
</g>
<!-- Node6&#45;&gt;Node8 -->
<g id="edge7" class="edge"><title>Node6&#45;&gt;Node8</title>
<path fill="none" stroke="midnightblue" d="M2512.55,-119.835C2250.62,-112.644 857.698,-74.404 621.918,-67.9312"/>
<polygon fill="midnightblue" stroke="midnightblue" points="621.667,-64.423 611.574,-67.6472 621.474,-71.4204 621.667,-64.423"/>
</g>
<!-- Node8&#45;&gt;Node7 -->
<g id="edge8" class="edge"><title>Node8&#45;&gt;Node7</title>
<path fill="none" stroke="midnightblue" d="M611.631,-64.1841C784.652,-58.2102 1856.15,-21.2148 2101.84,-12.732"/>
<polygon fill="midnightblue" stroke="midnightblue" points="2102.03,-16.2274 2111.91,-12.3843 2101.79,-9.23154 2102.03,-16.2274"/>
</g>
<!-- Node10 -->
<g id="node10" class="node"><title>Node10</title>
<g id="a_node10"><a xlink:href="Component_8h.html" target="_top" xlink:title="Component.h">
<polygon fill="white" stroke="red" points="1802.5,-280.5 1802.5,-299.5 1877.5,-299.5 1877.5,-280.5 1802.5,-280.5"/>
<text text-anchor="middle" x="1840" y="-287.5" font-family="Helvetica,sans-Serif" font-size="10.00">Component.h</text>
</a>
</g>
</g>
<!-- Node9&#45;&gt;Node10 -->
<g id="edge10" class="edge"><title>Node9&#45;&gt;Node10</title>
<path fill="none" stroke="midnightblue" d="M1490.2,-504.125C1497.52,-489.742 1514.04,-461.584 1537,-448 1621.9,-397.776 1667.48,-455.519 1756,-412 1788.73,-395.907 1795.8,-386.375 1816,-356 1825.47,-341.757 1831.82,-323.284 1835.6,-309.673"/>
<polygon fill="midnightblue" stroke="midnightblue" points="1839.1,-310.139 1838.18,-299.584 1832.31,-308.405 1839.1,-310.139"/>
</g>
<!-- Node9&#45;&gt;Node14 -->
<g id="edge20" class="edge"><title>Node9&#45;&gt;Node14</title>
<path fill="none" stroke="midnightblue" d="M1453.47,-504.446C1396.39,-487.403 1280.24,-443.119 1238,-356 1234.12,-348.002 1232.89,-343.272 1238,-336 1248.16,-321.549 1290.9,-308.283 1323.61,-299.956"/>
<polygon fill="midnightblue" stroke="midnightblue" points="1324.52,-303.335 1333.39,-297.534 1322.84,-296.54 1324.52,-303.335"/>
</g>
<!-- Node9&#45;&gt;Node20 -->
<g id="edge35" class="edge"><title>Node9&#45;&gt;Node20</title>
<path fill="none" stroke="midnightblue" d="M1503.51,-504.324C1521.07,-495.625 1548.33,-482.12 1568.53,-472.113"/>
<polygon fill="midnightblue" stroke="midnightblue" points="1570.12,-475.23 1577.53,-467.655 1567.02,-468.958 1570.12,-475.23"/>
</g>
<!-- Node9&#45;&gt;Node25 -->
<g id="edge57" class="edge"><title>Node9&#45;&gt;Node25</title>
<path fill="none" stroke="midnightblue" d="M1478.9,-504.476C1468.65,-491.082 1452.34,-464.894 1466,-448 1514.01,-388.616 1563.76,-441.957 1634,-412 1663.59,-399.378 1693.66,-377.177 1712.07,-362.28"/>
<polygon fill="midnightblue" stroke="midnightblue" points="1714.64,-364.696 1720.12,-355.628 1710.18,-359.301 1714.64,-364.696"/>
</g>
<!-- Node26 -->
<g id="node26" class="node"><title>Node26</title>
<g id="a_node26"><a xlink:href="ManhattanDistance_8h.html" target="_top" xlink:title="ManhattanDistance.h">
<polygon fill="white" stroke="red" points="1738,-448.5 1738,-467.5 1848,-467.5 1848,-448.5 1738,-448.5"/>
<text text-anchor="middle" x="1793" y="-455.5" font-family="Helvetica,sans-Serif" font-size="10.00">ManhattanDistance.h</text>
</a>
</g>
</g>
<!-- Node9&#45;&gt;Node26 -->
<g id="edge56" class="edge"><title>Node9&#45;&gt;Node26</title>
<path fill="none" stroke="midnightblue" d="M1522.73,-506.54C1575.19,-497.312 1672.14,-480.259 1734.54,-469.284"/>
<polygon fill="midnightblue" stroke="midnightblue" points="1735.38,-472.689 1744.62,-467.509 1734.17,-465.795 1735.38,-472.689"/>
</g>
<!-- Node10&#45;&gt;Node11 -->
<g id="edge11" class="edge"><title>Node10&#45;&gt;Node11</title>
<path fill="none" stroke="midnightblue" d="M1816.96,-280.333C1787.86,-267.417 1737.16,-242.644 1693,-224 1664.61,-212.014 1631.81,-199.825 1609.11,-191.162"/>
<polygon fill="midnightblue" stroke="midnightblue" points="1610.34,-187.883 1599.75,-187.56 1607.83,-194.416 1610.34,-187.883"/>
</g>
<!-- Node11&#45;&gt;Node3 -->
<g id="edge14" class="edge"><title>Node11&#45;&gt;Node3</title>
<path fill="none" stroke="midnightblue" d="M1622.28,-172.904C1696.73,-165.279 1860.87,-148.207 1999,-132 2010.22,-130.683 2022.43,-129.166 2033.51,-127.758"/>
<polygon fill="midnightblue" stroke="midnightblue" points="2034.24,-131.193 2043.71,-126.45 2033.35,-124.249 2034.24,-131.193"/>
</g>
<!-- Node11&#45;&gt;Node4 -->
<g id="edge13" class="edge"><title>Node11&#45;&gt;Node4</title>
<path fill="none" stroke="midnightblue" d="M1541.85,-174.192C1406.05,-164.693 965.556,-133.881 842.308,-125.26"/>
<polygon fill="midnightblue" stroke="midnightblue" points="842.252,-121.748 832.032,-124.541 841.764,-128.73 842.252,-121.748"/>
</g>
<!-- Node11&#45;&gt;Node7 -->
<g id="edge12" class="edge"><title>Node11&#45;&gt;Node7</title>
<path fill="none" stroke="midnightblue" d="M1622.01,-175.268C1683.12,-171.752 1802.88,-161.418 1900,-132 1989.17,-104.99 2086.32,-50.4424 2129.33,-24.8492"/>
<polygon fill="midnightblue" stroke="midnightblue" points="2131.36,-27.7119 2138.14,-19.5637 2127.76,-21.7105 2131.36,-27.7119"/>
</g>
<!-- Node11&#45;&gt;Node10 -->
<g id="edge15" class="edge"><title>Node11&#45;&gt;Node10</title>
<path fill="none" stroke="midnightblue" d="M1613.44,-187.56C1640.01,-196.214 1678.41,-210.24 1711,-224 1749.98,-240.459 1794.07,-261.695 1819.51,-275.332"/>
<polygon fill="midnightblue" stroke="midnightblue" points="1818.15,-278.579 1828.6,-280.333 1821.52,-272.446 1818.15,-278.579"/>
</g>
<!-- Node12 -->
<g id="node12" class="node"><title>Node12</title>
<g id="a_node12"><a xlink:href="Rect_8h.html" target="_top" xlink:title="Rect.h">
<polygon fill="white" stroke="black" points="565,-112.5 565,-131.5 611,-131.5 611,-112.5 565,-112.5"/>
<text text-anchor="middle" x="588" y="-119.5" font-family="Helvetica,sans-Serif" font-size="10.00">Rect.h</text>
</a>
</g>
</g>
<!-- Node11&#45;&gt;Node12 -->
<g id="edge16" class="edge"><title>Node11&#45;&gt;Node12</title>
<path fill="none" stroke="midnightblue" d="M1541.8,-174.816C1379.16,-165.981 771.428,-132.965 621.563,-124.823"/>
<polygon fill="midnightblue" stroke="midnightblue" points="621.361,-121.307 611.186,-124.26 620.982,-128.297 621.361,-121.307"/>
</g>
<!-- Node12&#45;&gt;Node7 -->
<g id="edge17" class="edge"><title>Node12&#45;&gt;Node7</title>
<path fill="none" stroke="midnightblue" d="M611.016,-119.381C782.075,-107.35 1855.56,-31.8494 2101.73,-14.5353"/>
<polygon fill="midnightblue" stroke="midnightblue" points="2102.1,-18.0187 2111.82,-13.8256 2101.6,-11.0359 2102.1,-18.0187"/>
</g>
<!-- Node12&#45;&gt;Node8 -->
<g id="edge18" class="edge"><title>Node12&#45;&gt;Node8</title>
<path fill="none" stroke="midnightblue" d="M588,-112.083C588,-105.006 588,-94.8611 588,-85.9865"/>
<polygon fill="midnightblue" stroke="midnightblue" points="591.5,-85.751 588,-75.7511 584.5,-85.7511 591.5,-85.751"/>
</g>
<!-- Node13 -->
<g id="node13" class="node"><title>Node13</title>
<polygon fill="white" stroke="#bfbfbf" points="2131,-56.5 2131,-75.5 2175,-75.5 2175,-56.5 2131,-56.5"/>
<text text-anchor="middle" x="2153" y="-63.5" font-family="Helvetica,sans-Serif" font-size="10.00">cmath</text>
</g>
<!-- Node12&#45;&gt;Node13 -->
<g id="edge19" class="edge"><title>Node12&#45;&gt;Node13</title>
<path fill="none" stroke="midnightblue" d="M611.223,-119.798C647.171,-117.962 718.465,-114.417 779,-112 1315.23,-90.5864 1969.48,-72.0732 2120.75,-67.8853"/>
<polygon fill="midnightblue" stroke="midnightblue" points="2120.86,-71.3836 2130.76,-67.6087 2120.67,-64.3863 2120.86,-71.3836"/>
</g>
<!-- Node14&#45;&gt;Node4 -->
<g id="edge21" class="edge"><title>Node14&#45;&gt;Node4</title>
<path fill="none" stroke="midnightblue" d="M1333.98,-280.438C1310.01,-272.722 1275.58,-260.123 1248,-244 1201.92,-217.058 1204.01,-189.151 1155,-168 1099.1,-143.876 917.313,-129.841 842.558,-124.965"/>
<polygon fill="midnightblue" stroke="midnightblue" points="842.536,-121.457 832.333,-124.312 842.09,-128.442 842.536,-121.457"/>
</g>
<!-- Node14&#45;&gt;Node8 -->
<g id="edge30" class="edge"><title>Node14&#45;&gt;Node8</title>
<path fill="none" stroke="midnightblue" d="M1351.84,-280.246C1324.52,-259.081 1251.65,-204.218 1185,-168 1128.65,-137.376 1114.18,-127.719 1052,-112 894.625,-72.2174 699.035,-67.1495 621.709,-66.8201"/>
<polygon fill="midnightblue" stroke="midnightblue" points="621.606,-63.32 611.6,-66.802 621.593,-70.32 621.606,-63.32"/>
</g>
<!-- Node14&#45;&gt;Node11 -->
<g id="edge31" class="edge"><title>Node14&#45;&gt;Node11</title>
<path fill="none" stroke="midnightblue" d="M1380.18,-280.368C1418.32,-261.211 1510.26,-215.036 1555.69,-192.217"/>
<polygon fill="midnightblue" stroke="midnightblue" points="1557.53,-195.208 1564.9,-187.591 1554.39,-188.952 1557.53,-195.208"/>
</g>
<!-- Node15 -->
<g id="node15" class="node"><title>Node15</title>
<polygon fill="white" stroke="#bfbfbf" points="2188.5,-224.5 2188.5,-243.5 2217.5,-243.5 2217.5,-224.5 2188.5,-224.5"/>
<text text-anchor="middle" x="2203" y="-231.5" font-family="Helvetica,sans-Serif" font-size="10.00">list</text>
</g>
<!-- Node14&#45;&gt;Node15 -->
<g id="edge22" class="edge"><title>Node14&#45;&gt;Node15</title>
<path fill="none" stroke="midnightblue" d="M1392.9,-287.078C1525.25,-278.57 2057.24,-244.37 2178.37,-236.583"/>
<polygon fill="midnightblue" stroke="midnightblue" points="2178.73,-240.067 2188.49,-235.933 2178.29,-233.082 2178.73,-240.067"/>
</g>
<!-- Node16 -->
<g id="node16" class="node"><title>Node16</title>
<polygon fill="white" stroke="#bfbfbf" points="2957,-224.5 2957,-243.5 3013,-243.5 3013,-224.5 2957,-224.5"/>
<text text-anchor="middle" x="2985" y="-231.5" font-family="Helvetica,sans-Serif" font-size="10.00">algorithm</text>
</g>
<!-- Node14&#45;&gt;Node16 -->
<g id="edge23" class="edge"><title>Node14&#45;&gt;Node16</title>
<path fill="none" stroke="midnightblue" d="M1392.68,-287.814C1437.71,-286.028 1526,-282.585 1601,-280 2115.17,-262.279 2243.85,-262.191 2758,-244 2824.23,-241.657 2901.31,-238.512 2946.47,-236.628"/>
<polygon fill="midnightblue" stroke="midnightblue" points="2946.85,-240.115 2956.69,-236.2 2946.55,-233.121 2946.85,-240.115"/>
</g>
<!-- Node14&#45;&gt;Node17 -->
<g id="edge24" class="edge"><title>Node14&#45;&gt;Node17</title>
<path fill="none" stroke="midnightblue" d="M1333.33,-283.067C1283.79,-273.157 1184.31,-253.261 1130.17,-242.433"/>
<polygon fill="midnightblue" stroke="midnightblue" points="1130.78,-238.987 1120.29,-240.458 1129.41,-245.851 1130.78,-238.987"/>
</g>
<!-- Node14&#45;&gt;Node19 -->
<g id="edge32" class="edge"><title>Node14&#45;&gt;Node19</title>
<path fill="none" stroke="midnightblue" d="M1392.66,-285.784C1472.38,-277.139 1692.5,-253.271 1800.14,-241.599"/>
<polygon fill="midnightblue" stroke="midnightblue" points="1800.63,-245.066 1810.2,-240.509 1799.88,-238.107 1800.63,-245.066"/>
</g>
<!-- Node17&#45;&gt;Node18 -->
<g id="edge25" class="edge"><title>Node17&#45;&gt;Node18</title>
<path fill="none" stroke="midnightblue" d="M1097.62,-224.083C1101.46,-216.691 1107.02,-205.953 1111.76,-196.811"/>
<polygon fill="midnightblue" stroke="midnightblue" points="1114.97,-198.24 1116.46,-187.751 1108.75,-195.018 1114.97,-198.24"/>
</g>
<!-- Node18&#45;&gt;Node3 -->
<g id="edge27" class="edge"><title>Node18&#45;&gt;Node3</title>
<path fill="none" stroke="midnightblue" d="M1146.38,-175.556C1277.5,-168.095 1877.94,-133.928 2033.25,-125.091"/>
<polygon fill="midnightblue" stroke="midnightblue" points="2033.86,-128.562 2043.65,-124.5 2033.46,-121.573 2033.86,-128.562"/>
</g>
<!-- Node18&#45;&gt;Node6 -->
<g id="edge29" class="edge"><title>Node18&#45;&gt;Node6</title>
<path fill="none" stroke="midnightblue" d="M1146.19,-176.051C1313.72,-169.743 2267.16,-133.839 2502.49,-124.977"/>
<polygon fill="midnightblue" stroke="midnightblue" points="2502.97,-128.462 2512.83,-124.588 2502.71,-121.467 2502.97,-128.462"/>
</g>
<!-- Node18&#45;&gt;Node7 -->
<g id="edge26" class="edge"><title>Node18&#45;&gt;Node7</title>
<path fill="none" stroke="midnightblue" d="M1146.23,-172.938C1281.1,-151.223 1917.71,-48.7229 2101.94,-19.06"/>
<polygon fill="midnightblue" stroke="midnightblue" points="2102.58,-22.5019 2111.9,-17.4567 2101.47,-15.5909 2102.58,-22.5019"/>
</g>
<!-- Node18&#45;&gt;Node12 -->
<g id="edge28" class="edge"><title>Node18&#45;&gt;Node12</title>
<path fill="none" stroke="midnightblue" d="M1095.65,-174.432C1008.22,-165.574 719.27,-136.299 621.03,-126.346"/>
<polygon fill="midnightblue" stroke="midnightblue" points="621.371,-122.863 611.069,-125.337 620.666,-129.827 621.371,-122.863"/>
</g>
<!-- Node19&#45;&gt;Node8 -->
<g id="edge33" class="edge"><title>Node19&#45;&gt;Node8</title>
<path fill="none" stroke="midnightblue" d="M1834.7,-224.46C1792.24,-210.925 1705.78,-184.404 1631,-168 1241.25,-82.5031 753.729,-69.369 622.073,-67.3606"/>
<polygon fill="midnightblue" stroke="midnightblue" points="621.872,-63.8575 611.823,-67.2162 621.773,-70.8568 621.872,-63.8575"/>
</g>
<!-- Node19&#45;&gt;Node11 -->
<g id="edge34" class="edge"><title>Node19&#45;&gt;Node11</title>
<path fill="none" stroke="midnightblue" d="M1816.79,-224.444C1766.66,-214.741 1685.09,-198.952 1632.49,-188.773"/>
<polygon fill="midnightblue" stroke="midnightblue" points="1632.86,-185.279 1622.38,-186.815 1631.53,-192.152 1632.86,-185.279"/>
</g>
<!-- Node20&#45;&gt;Node3 -->
<g id="edge36" class="edge"><title>Node20&#45;&gt;Node3</title>
<path fill="none" stroke="midnightblue" d="M1644.27,-450.465C1763.5,-434.161 2059.83,-390.524 2088,-356 2139.89,-292.399 2098.52,-183.799 2078.89,-141.049"/>
<polygon fill="midnightblue" stroke="midnightblue" points="2081.99,-139.416 2074.54,-131.88 2075.66,-142.416 2081.99,-139.416"/>
</g>
<!-- Node20&#45;&gt;Node4 -->
<g id="edge37" class="edge"><title>Node20&#45;&gt;Node4</title>
<path fill="none" stroke="midnightblue" d="M1545.53,-457.142C1412.2,-456.969 1047.96,-452.677 936,-412 896.228,-397.55 882,-391.519 859,-356 814.23,-286.861 809.468,-184.185 809.557,-142.072"/>
<polygon fill="midnightblue" stroke="midnightblue" points="813.059,-141.92 809.681,-131.878 806.059,-141.834 813.059,-141.92"/>
</g>
<!-- Node20&#45;&gt;Node21 -->
<g id="edge38" class="edge"><title>Node20&#45;&gt;Node21</title>
<path fill="none" stroke="midnightblue" d="M1589.88,-448.083C1585.59,-440.613 1579.34,-429.724 1574.06,-420.52"/>
<polygon fill="midnightblue" stroke="midnightblue" points="1577.04,-418.681 1569.02,-411.751 1570.97,-422.166 1577.04,-418.681"/>
</g>
<!-- Node21&#45;&gt;Node11 -->
<g id="edge39" class="edge"><title>Node21&#45;&gt;Node11</title>
<path fill="none" stroke="midnightblue" d="M1564.71,-392.297C1567.35,-359.633 1576.74,-243.866 1580.46,-197.957"/>
<polygon fill="midnightblue" stroke="midnightblue" points="1583.96,-198.134 1581.28,-187.884 1576.98,-197.568 1583.96,-198.134"/>
</g>
<!-- Node21&#45;&gt;Node12 -->
<g id="edge41" class="edge"><title>Node21&#45;&gt;Node12</title>
<path fill="none" stroke="midnightblue" d="M1535.7,-400.481C1429.11,-398.293 1052.03,-388.382 937,-356 866.203,-336.07 859.443,-304.229 790,-280 711.735,-252.693 664.475,-303.731 607,-244 580.671,-216.638 581.829,-168.572 584.937,-142.001"/>
<polygon fill="midnightblue" stroke="midnightblue" points="588.452,-142.14 586.363,-131.753 581.518,-141.176 588.452,-142.14"/>
</g>
<!-- Node21&#45;&gt;Node14 -->
<g id="edge42" class="edge"><title>Node21&#45;&gt;Node14</title>
<path fill="none" stroke="midnightblue" d="M1555.09,-392.38C1540.72,-378.854 1511.08,-352.489 1482,-336 1456.95,-321.794 1426.55,-310.386 1402.75,-302.611"/>
<polygon fill="midnightblue" stroke="midnightblue" points="1403.58,-299.202 1392.99,-299.504 1401.45,-305.872 1403.58,-299.202"/>
</g>
<!-- Node21&#45;&gt;Node18 -->
<g id="edge40" class="edge"><title>Node21&#45;&gt;Node18</title>
<path fill="none" stroke="midnightblue" d="M1558.73,-392.459C1550.11,-379.041 1531.85,-352.822 1511,-336 1399.46,-246.02 1229.6,-201.71 1156.49,-185.945"/>
<polygon fill="midnightblue" stroke="midnightblue" points="1156.93,-182.461 1146.43,-183.824 1155.49,-189.311 1156.93,-182.461"/>
</g>
<!-- Node21&#45;&gt;Node22 -->
<g id="edge43" class="edge"><title>Node21&#45;&gt;Node22</title>
<path fill="none" stroke="midnightblue" d="M1570.58,-392.177C1577.2,-383.205 1587.6,-368.836 1596,-356 1606.33,-340.203 1617.33,-321.702 1625,-308.487"/>
<polygon fill="midnightblue" stroke="midnightblue" points="1628.2,-309.955 1630.16,-299.543 1622.13,-306.46 1628.2,-309.955"/>
</g>
<!-- Node21&#45;&gt;Node23 -->
<g id="edge44" class="edge"><title>Node21&#45;&gt;Node23</title>
<path fill="none" stroke="midnightblue" d="M1592.21,-399.6C1679.47,-395.125 1952.69,-380.041 2178,-356 2352.84,-337.344 2399.91,-336.115 2576.76,-299.801"/>
<polygon fill="midnightblue" stroke="midnightblue" points="2577.57,-303.208 2586.65,-297.761 2576.15,-296.353 2577.57,-303.208"/>
</g>
<!-- Node21&#45;&gt;Node24 -->
<g id="edge45" class="edge"><title>Node21&#45;&gt;Node24</title>
<path fill="none" stroke="midnightblue" d="M1592.17,-399.144C1670.77,-393.843 1899.09,-377.618 2088,-356 2243.64,-338.19 2428.21,-309.363 2505.31,-296.972"/>
<polygon fill="midnightblue" stroke="midnightblue" points="2506.14,-300.383 2515.46,-295.336 2505.03,-293.472 2506.14,-300.383"/>
</g>
<!-- Node21&#45;&gt;Node25 -->
<g id="edge48" class="edge"><title>Node21&#45;&gt;Node25</title>
<path fill="none" stroke="midnightblue" d="M1590.3,-392.444C1618.35,-383.32 1662.94,-368.813 1694.18,-358.651"/>
<polygon fill="midnightblue" stroke="midnightblue" points="1695.39,-361.938 1703.82,-355.516 1693.23,-355.282 1695.39,-361.938"/>
</g>
<!-- Node24&#45;&gt;Node3 -->
<g id="edge47" class="edge"><title>Node24&#45;&gt;Node3</title>
<path fill="none" stroke="midnightblue" d="M2538.57,-280.357C2532.55,-266.307 2518.71,-238.618 2498,-224 2374.25,-136.637 2185.21,-124.025 2106.44,-122.771"/>
<polygon fill="midnightblue" stroke="midnightblue" points="2106.11,-119.267 2096.07,-122.663 2106.03,-126.267 2106.11,-119.267"/>
</g>
<!-- Node24&#45;&gt;Node7 -->
<g id="edge46" class="edge"><title>Node24&#45;&gt;Node7</title>
<path fill="none" stroke="midnightblue" d="M2568.7,-282.174C2571.83,-281.419 2574.98,-280.678 2578,-280 2659.74,-261.619 2795.9,-298.718 2758,-224 2672.62,-55.686 2552.24,-96.9498 2368,-56 2311.28,-43.3932 2245.94,-29.9274 2202.11,-21.0465"/>
<polygon fill="midnightblue" stroke="midnightblue" points="2202.77,-17.609 2192.28,-19.0573 2201.38,-24.4701 2202.77,-17.609"/>
</g>
<!-- Node25&#45;&gt;Node3 -->
<g id="edge49" class="edge"><title>Node25&#45;&gt;Node3</title>
<path fill="none" stroke="midnightblue" d="M1735.93,-336.441C1746.02,-322.513 1767.91,-294.994 1793,-280 1843.36,-249.906 1867.89,-270.962 1920,-244 1974.97,-215.557 2028.82,-165.042 2054.46,-139.203"/>
<polygon fill="midnightblue" stroke="midnightblue" points="2057.27,-141.336 2061.77,-131.74 2052.27,-136.44 2057.27,-141.336"/>
</g>
<!-- Node25&#45;&gt;Node10 -->
<g id="edge53" class="edge"><title>Node25&#45;&gt;Node10</title>
<path fill="none" stroke="midnightblue" d="M1747.67,-336.324C1765.39,-327.625 1792.9,-314.12 1813.29,-304.113"/>
<polygon fill="midnightblue" stroke="midnightblue" points="1814.94,-307.203 1822.37,-299.655 1811.85,-300.919 1814.94,-307.203"/>
</g>
<!-- Node25&#45;&gt;Node11 -->
<g id="edge50" class="edge"><title>Node25&#45;&gt;Node11</title>
<path fill="none" stroke="midnightblue" d="M1722.04,-336.075C1698.24,-309.38 1627.35,-229.865 1596.55,-195.322"/>
<polygon fill="midnightblue" stroke="midnightblue" points="1598.91,-192.703 1589.64,-187.568 1593.68,-197.361 1598.91,-192.703"/>
</g>
<!-- Node25&#45;&gt;Node14 -->
<g id="edge52" class="edge"><title>Node25&#45;&gt;Node14</title>
<path fill="none" stroke="midnightblue" d="M1685.73,-338.486C1613.56,-327.867 1471.68,-306.991 1402.63,-296.831"/>
<polygon fill="midnightblue" stroke="midnightblue" points="1402.99,-293.347 1392.59,-295.354 1401.97,-300.272 1402.99,-293.347"/>
</g>
<!-- Node25&#45;&gt;Node22 -->
<g id="edge51" class="edge"><title>Node25&#45;&gt;Node22</title>
<path fill="none" stroke="midnightblue" d="M1714.74,-336.324C1699.78,-327.822 1676.75,-314.729 1659.27,-304.797"/>
<polygon fill="midnightblue" stroke="midnightblue" points="1660.65,-301.553 1650.23,-299.655 1657.19,-307.639 1660.65,-301.553"/>
</g>
<!-- Node25&#45;&gt;Node23 -->
<g id="edge54" class="edge"><title>Node25&#45;&gt;Node23</title>
<path fill="none" stroke="midnightblue" d="M1774.09,-343.209C1931.46,-336.744 2461.85,-314.301 2576.64,-299.471"/>
<polygon fill="midnightblue" stroke="midnightblue" points="2577.3,-302.912 2586.7,-298.015 2576.3,-295.984 2577.3,-302.912"/>
</g>
<!-- Node25&#45;&gt;Node24 -->
<g id="edge55" class="edge"><title>Node25&#45;&gt;Node24</title>
<path fill="none" stroke="midnightblue" d="M1774.23,-342.058C1918.27,-332.48 2372.18,-302.293 2505.09,-293.454"/>
<polygon fill="midnightblue" stroke="midnightblue" points="2505.43,-296.94 2515.17,-292.784 2504.96,-289.955 2505.43,-296.94"/>
</g>
<!-- Node27&#45;&gt;Node10 -->
<g id="edge59" class="edge"><title>Node27&#45;&gt;Node10</title>
<path fill="none" stroke="midnightblue" d="M1395.95,-504.212C1399.59,-489.955 1408.87,-461.973 1428,-448 1503.05,-393.173 1544.36,-436.555 1634,-412 1701.83,-393.419 1724.03,-395.826 1782,-356 1800.82,-343.073 1817.61,-322.794 1828.22,-308.326"/>
<polygon fill="midnightblue" stroke="midnightblue" points="1831.34,-309.977 1834.26,-299.793 1825.62,-305.932 1831.34,-309.977"/>
</g>
<!-- Node27&#45;&gt;Node14 -->
<g id="edge60" class="edge"><title>Node27&#45;&gt;Node14</title>
<path fill="none" stroke="midnightblue" d="M1379.57,-504.261C1346.82,-483.466 1267.44,-427.401 1238,-356 1234.61,-347.782 1232.89,-343.272 1238,-336 1248.16,-321.549 1290.9,-308.283 1323.61,-299.956"/>
<polygon fill="midnightblue" stroke="midnightblue" points="1324.52,-303.335 1333.39,-297.534 1322.84,-296.54 1324.52,-303.335"/>
</g>
<!-- Node27&#45;&gt;Node15 -->
<g id="edge67" class="edge"><title>Node27&#45;&gt;Node15</title>
<path fill="none" stroke="midnightblue" d="M1409.35,-504.397C1434.98,-490.405 1488.48,-462.798 1537,-448 1774.48,-375.57 1868.72,-472.437 2088,-356 2135.19,-330.943 2174.05,-279.223 2192.11,-252.237"/>
<polygon fill="midnightblue" stroke="midnightblue" points="2195.27,-253.799 2197.8,-243.51 2189.4,-249.977 2195.27,-253.799"/>
</g>
<!-- Node27&#45;&gt;Node20 -->
<g id="edge61" class="edge"><title>Node27&#45;&gt;Node20</title>
<path fill="none" stroke="midnightblue" d="M1425.85,-504.444C1460.4,-495.162 1515.68,-480.309 1553.58,-470.127"/>
<polygon fill="midnightblue" stroke="midnightblue" points="1554.55,-473.491 1563.3,-467.516 1552.73,-466.731 1554.55,-473.491"/>
</g>
<!-- Node27&#45;&gt;Node26 -->
<g id="edge62" class="edge"><title>Node27&#45;&gt;Node26</title>
<path fill="none" stroke="midnightblue" d="M1431.62,-505.429C1434.45,-504.923 1437.27,-504.441 1440,-504 1539.99,-487.864 1656.68,-473.94 1727.67,-466.013"/>
<polygon fill="midnightblue" stroke="midnightblue" points="1728.25,-469.47 1737.81,-464.887 1727.48,-462.512 1728.25,-469.47"/>
</g>
<!-- Node27&#45;&gt;Node28 -->
<g id="edge63" class="edge"><title>Node27&#45;&gt;Node28</title>
<path fill="none" stroke="midnightblue" d="M1356.26,-507.253C1273.32,-494.183 1069.28,-459.635 903,-412 834.19,-392.288 792.877,-414.757 752,-356 742.745,-342.697 743.874,-323.864 746.648,-309.892"/>
<polygon fill="midnightblue" stroke="midnightblue" points="750.11,-310.47 749.06,-299.928 743.306,-308.824 750.11,-310.47"/>
</g>
<!-- Node28&#45;&gt;Node5 -->
<g id="edge66" class="edge"><title>Node28&#45;&gt;Node5</title>
<path fill="none" stroke="midnightblue" d="M781.622,-288.435C949.853,-285.185 1802.14,-268.166 2498,-244 2548.96,-242.23 2606.98,-239.644 2648.43,-237.697"/>
<polygon fill="midnightblue" stroke="midnightblue" points="2648.77,-241.185 2658.6,-237.217 2648.44,-234.193 2648.77,-241.185"/>
</g>
<!-- Node28&#45;&gt;Node8 -->
<g id="edge65" class="edge"><title>Node28&#45;&gt;Node8</title>
<path fill="none" stroke="midnightblue" d="M722.166,-288.401C623.821,-286.121 314.435,-276.408 285,-244 198.834,-149.132 458.879,-90.6579 554.332,-72.8247"/>
<polygon fill="midnightblue" stroke="midnightblue" points="555.14,-76.235 564.346,-70.9907 553.879,-69.3496 555.14,-76.235"/>
</g>
<!-- Node28&#45;&gt;Node11 -->
<g id="edge64" class="edge"><title>Node28&#45;&gt;Node11</title>
<path fill="none" stroke="midnightblue" d="M781.648,-281.394C835.905,-267.762 954.986,-239.182 1057,-224 1230.34,-198.203 1438.24,-185.816 1531.91,-181.214"/>
<polygon fill="midnightblue" stroke="midnightblue" points="1532.14,-184.708 1541.96,-180.729 1531.8,-177.716 1532.14,-184.708"/>
</g>
<!-- Node29&#45;&gt;Node10 -->
<g id="edge69" class="edge"><title>Node29&#45;&gt;Node10</title>
<path fill="none" stroke="midnightblue" d="M1440.38,-339.822C1523.12,-329.714 1705.64,-307.416 1792.39,-296.816"/>
<polygon fill="midnightblue" stroke="midnightblue" points="1792.98,-300.27 1802.49,-295.583 1792.14,-293.322 1792.98,-300.27"/>
</g>
<!-- Node29&#45;&gt;Node14 -->
<g id="edge70" class="edge"><title>Node29&#45;&gt;Node14</title>
<path fill="none" stroke="midnightblue" d="M1392.22,-336.083C1387.33,-328.534 1380.17,-317.495 1374.17,-308.23"/>
<polygon fill="midnightblue" stroke="midnightblue" points="1377.05,-306.239 1368.67,-299.751 1371.17,-310.046 1377.05,-306.239"/>
</g>
<!-- Node30&#45;&gt;Node3 -->
<g id="edge75" class="edge"><title>Node30&#45;&gt;Node3</title>
<path fill="none" stroke="midnightblue" d="M2725.69,-336.274C2715.86,-323.065 2695.84,-297.664 2675,-280 2651.86,-260.381 2638.54,-265.369 2617,-244 2588.64,-215.861 2603.09,-188.838 2569,-168 2529.72,-143.988 2214.16,-128.916 2106.13,-124.419"/>
<polygon fill="midnightblue" stroke="midnightblue" points="2106.18,-120.918 2096.04,-124.005 2105.89,-127.912 2106.18,-120.918"/>
</g>
<!-- Node30&#45;&gt;Node6 -->
<g id="edge77" class="edge"><title>Node30&#45;&gt;Node6</title>
<path fill="none" stroke="midnightblue" d="M2757.7,-342.85C2801.82,-337.98 2885.21,-322.965 2863,-280 2813.38,-184.012 2681.23,-145.385 2607.16,-130.913"/>
<polygon fill="midnightblue" stroke="midnightblue" points="2607.59,-127.431 2597.11,-129.028 2606.3,-134.311 2607.59,-127.431"/>
</g>
<!-- Node30&#45;&gt;Node7 -->
<g id="edge74" class="edge"><title>Node30&#45;&gt;Node7</title>
<path fill="none" stroke="midnightblue" d="M2757.64,-343.529C2837.83,-338.71 3080.17,-322.41 3107,-300 3130.2,-280.624 3127,-265.225 3127,-235 3127,-235 3127,-235 3127,-121 3127,-26.97 2401.7,-13.3121 2202.23,-11.3339"/>
<polygon fill="midnightblue" stroke="midnightblue" points="2202.07,-7.83231 2192.04,-11.2385 2202.01,-14.832 2202.07,-7.83231"/>
</g>
<!-- Node30&#45;&gt;Node23 -->
<g id="edge76" class="edge"><title>Node30&#45;&gt;Node23</title>
<path fill="none" stroke="midnightblue" d="M2712.67,-336.444C2692.68,-327.596 2661.26,-313.687 2638.44,-303.586"/>
<polygon fill="midnightblue" stroke="midnightblue" points="2639.8,-300.363 2629.24,-299.516 2636.97,-306.764 2639.8,-300.363"/>
</g>
<!-- Node31&#45;&gt;Node8 -->
<g id="edge84" class="edge"><title>Node31&#45;&gt;Node8</title>
<path fill="none" stroke="midnightblue" d="M597.787,-342.755C548.113,-338.55 450.357,-327.307 372,-300 322.796,-282.853 295.629,-288.788 269,-244 251.738,-214.966 253.959,-198.244 269,-168 287.366,-131.07 305.252,-128.619 343,-112 413.834,-80.814 505.366,-71.2389 554.039,-68.3003"/>
<polygon fill="midnightblue" stroke="midnightblue" points="554.524,-71.7791 564.319,-67.7409 554.144,-64.7895 554.524,-71.7791"/>
</g>
<!-- Node31&#45;&gt;Node11 -->
<g id="edge79" class="edge"><title>Node31&#45;&gt;Node11</title>
<path fill="none" stroke="midnightblue" d="M638.274,-336.242C652.241,-322.028 682.018,-294.107 713,-280 790.028,-244.927 819.356,-269.691 900,-244 920.467,-237.48 923.179,-229.284 944,-224 1054.95,-195.845 1400.98,-183.853 1531.5,-180.251"/>
<polygon fill="midnightblue" stroke="midnightblue" points="1531.72,-183.747 1541.62,-179.977 1531.53,-176.749 1531.72,-183.747"/>
</g>
<!-- Node31&#45;&gt;Node12 -->
<g id="edge82" class="edge"><title>Node31&#45;&gt;Node12</title>
<path fill="none" stroke="midnightblue" d="M597.864,-337.89C515.923,-319.448 304.272,-269.722 285,-244 213.861,-149.049 461.972,-128.472 554.541,-124.129"/>
<polygon fill="midnightblue" stroke="midnightblue" points="554.936,-127.615 564.775,-123.686 554.633,-120.622 554.936,-127.615"/>
</g>
<!-- Node31&#45;&gt;Node14 -->
<g id="edge80" class="edge"><title>Node31&#45;&gt;Node14</title>
<path fill="none" stroke="midnightblue" d="M662.442,-342.61C781.287,-333.855 1192.7,-303.546 1323.06,-293.943"/>
<polygon fill="midnightblue" stroke="midnightblue" points="1323.65,-297.408 1333.37,-293.183 1323.14,-290.427 1323.65,-297.408"/>
</g>
<!-- Node31&#45;&gt;Node18 -->
<g id="edge81" class="edge"><title>Node31&#45;&gt;Node18</title>
<path fill="none" stroke="midnightblue" d="M634.192,-336.318C641.468,-322.213 657.806,-294.445 680,-280 714.457,-257.574 987.532,-204.273 1085.87,-185.6"/>
<polygon fill="midnightblue" stroke="midnightblue" points="1086.73,-188.999 1095.9,-183.7 1085.42,-182.122 1086.73,-188.999"/>
</g>
<!-- Node31&#45;&gt;Node28 -->
<g id="edge83" class="edge"><title>Node31&#45;&gt;Node28</title>
<path fill="none" stroke="midnightblue" d="M649.331,-336.444C669.32,-327.596 700.743,-313.687 723.564,-303.586"/>
<polygon fill="midnightblue" stroke="midnightblue" points="725.032,-306.764 732.759,-299.516 722.198,-300.363 725.032,-306.764"/>
</g>
<!-- Node32&#45;&gt;Node3 -->
<g id="edge88" class="edge"><title>Node32&#45;&gt;Node3</title>
<path fill="none" stroke="midnightblue" d="M2440.89,-226.285C2373.96,-207.647 2185.62,-155.197 2106.12,-133.059"/>
<polygon fill="midnightblue" stroke="midnightblue" points="2106.67,-129.578 2096.09,-130.266 2104.79,-136.321 2106.67,-129.578"/>
</g>
<!-- Node32&#45;&gt;Node4 -->
<g id="edge87" class="edge"><title>Node32&#45;&gt;Node4</title>
<path fill="none" stroke="midnightblue" d="M2440.99,-226.693C2436.37,-225.656 2431.56,-224.695 2427,-224 1794.4,-127.488 1009.11,-122.748 842.129,-122.888"/>
<polygon fill="midnightblue" stroke="midnightblue" points="842.028,-119.388 832.033,-122.904 842.038,-126.388 842.028,-119.388"/>
</g>
<!-- Node32&#45;&gt;Node6 -->
<g id="edge89" class="edge"><title>Node32&#45;&gt;Node6</title>
<path fill="none" stroke="midnightblue" d="M2472.06,-224.368C2487.05,-206.055 2522.23,-163.049 2541.61,-139.362"/>
<polygon fill="midnightblue" stroke="midnightblue" points="2544.35,-141.547 2547.97,-131.591 2538.93,-137.115 2544.35,-141.547"/>
</g>
<!-- Node32&#45;&gt;Node11 -->
<g id="edge90" class="edge"><title>Node32&#45;&gt;Node11</title>
<path fill="none" stroke="midnightblue" d="M2440.6,-226.531C2436.1,-225.537 2431.43,-224.632 2427,-224 2116.41,-179.664 2035.22,-206.064 1722,-188 1692.27,-186.285 1659,-184.156 1632.36,-182.398"/>
<polygon fill="midnightblue" stroke="midnightblue" points="1632.33,-178.889 1622.12,-181.72 1631.87,-185.874 1632.33,-178.889"/>
</g>
<!-- Node33&#45;&gt;Node8 -->
<g id="edge99" class="edge"><title>Node33&#45;&gt;Node8</title>
<path fill="none" stroke="midnightblue" d="M944.758,-401.479C860.072,-402.511 586.774,-401.815 367,-356 293.245,-340.625 276.434,-329.244 207,-300 147.101,-274.772 76,-299.995 76,-235 76,-235 76,-235 76,-177 76,-78.9053 439.788,-68.0261 554.072,-67.0286"/>
<polygon fill="midnightblue" stroke="midnightblue" points="554.356,-70.5269 564.332,-66.9603 554.309,-63.5271 554.356,-70.5269"/>
</g>
<!-- Node33&#45;&gt;Node11 -->
<g id="edge95" class="edge"><title>Node33&#45;&gt;Node11</title>
<path fill="none" stroke="midnightblue" d="M960.172,-392.078C945.686,-379.056 923.319,-354.393 937,-336 943.457,-327.32 1299.46,-226.443 1310,-224 1386.44,-206.277 1476.52,-192.8 1531.42,-185.398"/>
<polygon fill="midnightblue" stroke="midnightblue" points="1532.14,-188.833 1541.59,-184.043 1531.21,-181.895 1532.14,-188.833"/>
</g>
<!-- Node33&#45;&gt;Node12 -->
<g id="edge97" class="edge"><title>Node33&#45;&gt;Node12</title>
<path fill="none" stroke="midnightblue" d="M944.639,-399.907C825.714,-394.319 341.87,-364.329 271,-244 260.897,-226.846 264.759,-183.025 280,-168 318.252,-130.29 482.825,-124.011 554.465,-123.088"/>
<polygon fill="midnightblue" stroke="midnightblue" points="554.769,-126.585 564.734,-122.984 554.699,-119.585 554.769,-126.585"/>
</g>
<!-- Node33&#45;&gt;Node14 -->
<g id="edge98" class="edge"><title>Node33&#45;&gt;Node14</title>
<path fill="none" stroke="midnightblue" d="M982.741,-392.476C1002.83,-378.344 1045.54,-350.211 1086,-336 1129.09,-320.867 1257.62,-303.766 1323.34,-295.694"/>
<polygon fill="midnightblue" stroke="midnightblue" points="1323.82,-299.161 1333.33,-294.478 1322.98,-292.213 1323.82,-299.161"/>
</g>
<!-- Node33&#45;&gt;Node18 -->
<g id="edge96" class="edge"><title>Node33&#45;&gt;Node18</title>
<path fill="none" stroke="midnightblue" d="M944.805,-393.4C916.771,-384.673 875.089,-369.784 866,-356 861.107,-348.579 861.665,-343.76 866,-336 913.48,-251.01 1027.94,-206.353 1085.98,-188.497"/>
<polygon fill="midnightblue" stroke="midnightblue" points="1087.22,-191.781 1095.8,-185.568 1085.22,-185.073 1087.22,-191.781"/>
</g>
<!-- Node34 -->
<g id="node34" class="node"><title>Node34</title>
<g id="a_node34"><a xlink:href="Bullet_8h.html" target="_top" xlink:title="Bullet.h">
<polygon fill="white" stroke="red" points="946,-336.5 946,-355.5 996,-355.5 996,-336.5 946,-336.5"/>
<text text-anchor="middle" x="971" y="-343.5" font-family="Helvetica,sans-Serif" font-size="10.00">Bullet.h</text>
</a>
</g>
</g>
<!-- Node33&#45;&gt;Node34 -->
<g id="edge100" class="edge"><title>Node33&#45;&gt;Node34</title>
<path fill="none" stroke="midnightblue" d="M971,-392.083C971,-385.006 971,-374.861 971,-365.986"/>
<polygon fill="midnightblue" stroke="midnightblue" points="974.5,-365.751 971,-355.751 967.5,-365.751 974.5,-365.751"/>
</g>
<!-- Node34&#45;&gt;Node8 -->
<g id="edge108" class="edge"><title>Node34&#45;&gt;Node8</title>
<path fill="none" stroke="midnightblue" d="M969.038,-336.418C960.619,-301.703 924.078,-170.728 840,-112 805.2,-87.6923 682.015,-74.6045 621.73,-69.5271"/>
<polygon fill="midnightblue" stroke="midnightblue" points="621.836,-66.0242 611.584,-68.6985 621.266,-73.001 621.836,-66.0242"/>
</g>
<!-- Node34&#45;&gt;Node11 -->
<g id="edge101" class="edge"><title>Node34&#45;&gt;Node11</title>
<path fill="none" stroke="midnightblue" d="M996.259,-338.569C1053.45,-323.789 1196.98,-285.471 1314,-244 1335.78,-236.28 1339.91,-230.792 1362,-224 1419.04,-206.462 1486.53,-193.809 1531.57,-186.468"/>
<polygon fill="midnightblue" stroke="midnightblue" points="1532.35,-189.888 1541.67,-184.85 1531.25,-182.976 1532.35,-189.888"/>
</g>
<!-- Node34&#45;&gt;Node18 -->
<g id="edge102" class="edge"><title>Node34&#45;&gt;Node18</title>
<path fill="none" stroke="midnightblue" d="M996.144,-337.485C1033.06,-324.934 1100.62,-295.827 1129,-244 1136.84,-229.679 1133.37,-210.97 1128.81,-197.303"/>
<polygon fill="midnightblue" stroke="midnightblue" points="1131.94,-195.702 1125.11,-187.604 1125.4,-198.195 1131.94,-195.702"/>
</g>
<!-- Node34&#45;&gt;Node35 -->
<g id="edge103" class="edge"><title>Node34&#45;&gt;Node35</title>
<path fill="none" stroke="midnightblue" d="M996.009,-344.399C1178,-340.018 2301.24,-312.787 2642,-300 2694.47,-298.031 2755.19,-294.963 2792.85,-292.967"/>
<polygon fill="midnightblue" stroke="midnightblue" points="2793.5,-296.438 2803.3,-292.41 2793.12,-289.448 2793.5,-296.438"/>
</g>
<!-- Node35&#45;&gt;Node6 -->
<g id="edge105" class="edge"><title>Node35&#45;&gt;Node6</title>
<path fill="none" stroke="midnightblue" d="M2820.68,-280.485C2807.84,-267.551 2782.14,-242.504 2758,-224 2721.21,-195.796 2711.33,-188.989 2670,-168 2644.36,-154.978 2614.01,-143.247 2590.93,-135.03"/>
<polygon fill="midnightblue" stroke="midnightblue" points="2591.8,-131.624 2581.2,-131.619 2589.48,-138.23 2591.8,-131.624"/>
</g>
<!-- Node35&#45;&gt;Node7 -->
<g id="edge107" class="edge"><title>Node35&#45;&gt;Node7</title>
<path fill="none" stroke="midnightblue" d="M2838.15,-280.253C2855.39,-262.77 2891,-221.528 2891,-179 2891,-179 2891,-179 2891,-121 2891,-51.2704 2369.62,-21.0725 2202.73,-13.1926"/>
<polygon fill="midnightblue" stroke="midnightblue" points="2202.41,-9.67407 2192.26,-12.7057 2202.08,-16.6665 2202.41,-9.67407"/>
</g>
<!-- Node35&#45;&gt;Node8 -->
<g id="edge106" class="edge"><title>Node35&#45;&gt;Node8</title>
<path fill="none" stroke="midnightblue" d="M2824.32,-280.273C2816.96,-267.061 2801.67,-241.658 2784,-224 2717.62,-157.663 2695.43,-137.097 2605,-112 2505.55,-84.3977 878.893,-69.472 622.034,-67.2823"/>
<polygon fill="midnightblue" stroke="midnightblue" points="621.851,-63.7807 611.822,-67.1958 621.792,-70.7805 621.851,-63.7807"/>
</g>
<!-- Node35&#45;&gt;Node32 -->
<g id="edge104" class="edge"><title>Node35&#45;&gt;Node32</title>
<path fill="none" stroke="midnightblue" d="M2803.4,-285.203C2739.24,-275.684 2571.51,-250.801 2499.1,-240.058"/>
<polygon fill="midnightblue" stroke="midnightblue" points="2499.54,-236.585 2489.13,-238.58 2498.51,-243.509 2499.54,-236.585"/>
</g>
<!-- Node36&#45;&gt;Node8 -->
<g id="edge111" class="edge"><title>Node36&#45;&gt;Node8</title>
<path fill="none" stroke="midnightblue" d="M492.161,-168.368C509.552,-149.974 550.493,-106.671 572.824,-83.0519"/>
<polygon fill="midnightblue" stroke="midnightblue" points="575.55,-85.2625 579.877,-75.5914 570.464,-80.4534 575.55,-85.2625"/>
</g>
<!-- Node36&#45;&gt;Node12 -->
<g id="edge110" class="edge"><title>Node36&#45;&gt;Node12</title>
<path fill="none" stroke="midnightblue" d="M500.709,-168.324C517.312,-159.703 543.002,-146.364 562.22,-136.386"/>
<polygon fill="midnightblue" stroke="midnightblue" points="564.07,-139.369 571.332,-131.655 560.844,-133.156 564.07,-139.369"/>
</g>
<!-- Node37&#45;&gt;Node4 -->
<g id="edge116" class="edge"><title>Node37&#45;&gt;Node4</title>
<path fill="none" stroke="midnightblue" d="M347.159,-224.374C375.87,-206.896 438.452,-168.877 441,-168 503.069,-146.631 699.506,-130.808 777.563,-125.21"/>
<polygon fill="midnightblue" stroke="midnightblue" points="778.038,-128.685 787.766,-124.489 777.544,-121.703 778.038,-128.685"/>
</g>
<!-- Node37&#45;&gt;Node8 -->
<g id="edge115" class="edge"><title>Node37&#45;&gt;Node8</title>
<path fill="none" stroke="midnightblue" d="M336.687,-224.335C342.848,-210.748 356.414,-184.3 375,-168 429.237,-120.435 509.768,-90.4872 554.67,-76.4469"/>
<polygon fill="midnightblue" stroke="midnightblue" points="555.94,-79.7188 564.485,-73.4547 553.899,-73.023 555.94,-79.7188"/>
</g>
<!-- Node37&#45;&gt;Node12 -->
<g id="edge114" class="edge"><title>Node37&#45;&gt;Node12</title>
<path fill="none" stroke="midnightblue" d="M340.252,-224.386C352.526,-210.379 378.821,-182.749 407,-168 454.856,-142.951 517.199,-131.439 554.829,-126.459"/>
<polygon fill="midnightblue" stroke="midnightblue" points="555.264,-129.932 564.754,-125.221 554.398,-122.985 555.264,-129.932"/>
</g>
<!-- Node37&#45;&gt;Node36 -->
<g id="edge113" class="edge"><title>Node37&#45;&gt;Node36</title>
<path fill="none" stroke="midnightblue" d="M356.926,-224.444C382.219,-215.399 422.302,-201.064 450.68,-190.916"/>
<polygon fill="midnightblue" stroke="midnightblue" points="451.948,-194.179 460.186,-187.516 449.591,-187.588 451.948,-194.179"/>
</g>
<!-- Node38&#45;&gt;Node12 -->
<g id="edge119" class="edge"><title>Node38&#45;&gt;Node12</title>
<path fill="none" stroke="midnightblue" d="M655.272,-224.368C643.225,-206.215 615.077,-163.802 599.275,-139.99"/>
<polygon fill="midnightblue" stroke="midnightblue" points="602.147,-137.988 593.702,-131.591 596.315,-141.859 602.147,-137.988"/>
</g>
<!-- Node38&#45;&gt;Node18 -->
<g id="edge118" class="edge"><title>Node38&#45;&gt;Node18</title>
<path fill="none" stroke="midnightblue" d="M706.365,-227.674C798,-216.917 1003.44,-192.8 1085.83,-183.129"/>
<polygon fill="midnightblue" stroke="midnightblue" points="1086.41,-186.584 1095.94,-181.942 1085.6,-179.632 1086.41,-186.584"/>
</g>
<!-- Node39&#45;&gt;Node3 -->
<g id="edge124" class="edge"><title>Node39&#45;&gt;Node3</title>
<path fill="none" stroke="midnightblue" d="M428.402,-342.382C491.197,-336.058 654.351,-319.059 790,-300 941.223,-278.753 978.619,-270.562 1129,-244 1308.92,-212.22 1351.95,-192.55 1533,-168 1720.56,-142.568 1947.05,-129.228 2033.8,-124.752"/>
<polygon fill="midnightblue" stroke="midnightblue" points="2034.1,-128.241 2043.91,-124.238 2033.75,-121.25 2034.1,-128.241"/>
</g>
<!-- Node39&#45;&gt;Node7 -->
<g id="edge121" class="edge"><title>Node39&#45;&gt;Node7</title>
<path fill="none" stroke="midnightblue" d="M375.822,-345.064C292.36,-343.77 38,-327.635 38,-179 38,-179 38,-179 38,-121 38,-14.2562 1779.61,-10.6634 2101.25,-10.9101"/>
<polygon fill="midnightblue" stroke="midnightblue" points="2101.65,-14.4104 2111.66,-10.9198 2101.66,-7.41036 2101.65,-14.4104"/>
</g>
<!-- Node39&#45;&gt;Node12 -->
<g id="edge122" class="edge"><title>Node39&#45;&gt;Node12</title>
<path fill="none" stroke="midnightblue" d="M375.643,-342.451C326.037,-336.057 219.854,-314.402 176,-244 171.3,-236.455 171.991,-231.934 176,-224 194.923,-186.552 213.1,-183.722 252,-168 356.454,-125.785 492.567,-121.542 554.588,-122.087"/>
<polygon fill="midnightblue" stroke="midnightblue" points="554.54,-125.587 564.587,-122.223 554.636,-118.587 554.54,-125.587"/>
</g>
<!-- Node39&#45;&gt;Node22 -->
<g id="edge123" class="edge"><title>Node39&#45;&gt;Node22</title>
<path fill="none" stroke="midnightblue" d="M428.014,-343.706C464.136,-341.919 531.53,-338.619 589,-336 985.493,-317.93 1466.62,-297.946 1599.53,-292.46"/>
<polygon fill="midnightblue" stroke="midnightblue" points="1600.05,-295.942 1609.9,-292.032 1599.77,-288.948 1600.05,-295.942"/>
</g>
<!-- Node40&#45;&gt;Node4 -->
<g id="edge128" class="edge"><title>Node40&#45;&gt;Node4</title>
<path fill="none" stroke="midnightblue" d="M536.305,-224.368C589.047,-204.834 717.638,-157.208 777.876,-134.898"/>
<polygon fill="midnightblue" stroke="midnightblue" points="779.454,-138.046 787.616,-131.29 777.023,-131.481 779.454,-138.046"/>
</g>
<!-- Node40&#45;&gt;Node12 -->
<g id="edge127" class="edge"><title>Node40&#45;&gt;Node12</title>
<path fill="none" stroke="midnightblue" d="M518.885,-224.368C531.262,-206.215 560.181,-163.802 576.416,-139.99"/>
<polygon fill="midnightblue" stroke="midnightblue" points="579.401,-141.825 582.142,-131.591 573.617,-137.882 579.401,-141.825"/>
</g>
<!-- Node40&#45;&gt;Node36 -->
<g id="edge126" class="edge"><title>Node40&#45;&gt;Node36</title>
<path fill="none" stroke="midnightblue" d="M508.211,-224.083C504.242,-216.691 498.475,-205.953 493.565,-196.811"/>
<polygon fill="midnightblue" stroke="midnightblue" points="496.514,-194.905 488.7,-187.751 490.347,-198.217 496.514,-194.905"/>
</g>
<!-- Node41&#45;&gt;Node11 -->
<g id="edge131" class="edge"><title>Node41&#45;&gt;Node11</title>
<path fill="none" stroke="midnightblue" d="M479.229,-392.367C510.715,-370.509 597.734,-312.422 678,-280 725.176,-260.945 849.743,-231.93 900,-224 1134.14,-187.056 1418.15,-180.368 1531.62,-179.212"/>
<polygon fill="midnightblue" stroke="midnightblue" points="1531.78,-182.711 1541.75,-179.119 1531.71,-175.711 1531.78,-182.711"/>
</g>
<!-- Node41&#45;&gt;Node25 -->
<g id="edge132" class="edge"><title>Node41&#45;&gt;Node25</title>
<path fill="none" stroke="midnightblue" d="M504.115,-399.413C683.715,-391.734 1462.64,-358.431 1675.87,-349.315"/>
<polygon fill="midnightblue" stroke="midnightblue" points="1676.04,-352.81 1685.88,-348.886 1675.74,-345.817 1676.04,-352.81"/>
</g>
<!-- Node41&#45;&gt;Node36 -->
<g id="edge134" class="edge"><title>Node41&#45;&gt;Node36</title>
<path fill="none" stroke="midnightblue" d="M464.575,-392.317C457.699,-366.245 439.665,-286.586 457,-224 459.792,-213.921 465.509,-203.832 470.967,-195.769"/>
<polygon fill="midnightblue" stroke="midnightblue" points="473.825,-197.79 476.849,-187.636 468.153,-193.688 473.825,-197.79"/>
</g>
<!-- Node41&#45;&gt;Node39 -->
<g id="edge133" class="edge"><title>Node41&#45;&gt;Node39</title>
<path fill="none" stroke="midnightblue" d="M456.557,-392.324C446.854,-384.263 432.185,-372.077 420.5,-362.369"/>
<polygon fill="midnightblue" stroke="midnightblue" points="422.562,-359.532 412.633,-355.834 418.089,-364.916 422.562,-359.532"/>
</g>
<!-- Node41&#45;&gt;Node40 -->
<g id="edge135" class="edge"><title>Node41&#45;&gt;Node40</title>
<path fill="none" stroke="midnightblue" d="M469.473,-392.075C476.714,-365.945 497.978,-289.211 507.852,-253.577"/>
<polygon fill="midnightblue" stroke="midnightblue" points="511.328,-254.14 510.626,-243.568 504.582,-252.27 511.328,-254.14"/>
</g>
<!-- Node42&#45;&gt;Node11 -->
<g id="edge141" class="edge"><title>Node42&#45;&gt;Node11</title>
<path fill="none" stroke="midnightblue" d="M2570.64,-392.255C2551.11,-361.362 2480.06,-257.422 2389,-224 2318.27,-198.039 1798.16,-183.964 1632.52,-180.105"/>
<polygon fill="midnightblue" stroke="midnightblue" points="1632.21,-176.597 1622.13,-179.865 1632.05,-183.595 1632.21,-176.597"/>
</g>
<!-- Node42&#45;&gt;Node18 -->
<g id="edge143" class="edge"><title>Node42&#45;&gt;Node18</title>
<path fill="none" stroke="midnightblue" d="M2564.62,-392.349C2536.06,-370.942 2458.49,-314.721 2387,-280 2318.85,-246.904 2300.43,-238.138 2226,-224 2118.96,-203.667 1333,-184.013 1156.23,-179.819"/>
<polygon fill="midnightblue" stroke="midnightblue" points="1156.25,-176.319 1146.17,-179.582 1156.09,-183.317 1156.25,-176.319"/>
</g>
<!-- Node42&#45;&gt;Node30 -->
<g id="edge142" class="edge"><title>Node42&#45;&gt;Node30</title>
<path fill="none" stroke="midnightblue" d="M2600.72,-392.444C2626.85,-383.399 2668.26,-369.064 2697.58,-358.916"/>
<polygon fill="midnightblue" stroke="midnightblue" points="2699.09,-362.095 2707.4,-355.516 2696.8,-355.48 2699.09,-362.095"/>
</g>
<!-- Node42&#45;&gt;Node43 -->
<g id="edge139" class="edge"><title>Node42&#45;&gt;Node43</title>
<path fill="none" stroke="midnightblue" d="M2608.58,-394.558C2613.41,-393.663 2618.33,-392.782 2623,-392 2714.04,-376.748 2820.51,-362.119 2882.87,-353.874"/>
<polygon fill="midnightblue" stroke="midnightblue" points="2883.41,-357.333 2892.87,-352.557 2882.5,-350.393 2883.41,-357.333"/>
</g>
<!-- Node44 -->
<g id="node44" class="node"><title>Node44</title>
<g id="a_node44"><a xlink:href="StateData_8h.html" target="_top" xlink:title="StateData.h">
<polygon fill="white" stroke="black" points="2911.5,-280.5 2911.5,-299.5 2980.5,-299.5 2980.5,-280.5 2911.5,-280.5"/>
<text text-anchor="middle" x="2946" y="-287.5" font-family="Helvetica,sans-Serif" font-size="10.00">StateData.h</text>
</a>
</g>
</g>
<!-- Node43&#45;&gt;Node44 -->
<g id="edge140" class="edge"><title>Node43&#45;&gt;Node44</title>
<path fill="none" stroke="midnightblue" d="M2937.65,-336.083C2938.98,-328.927 2940.88,-318.635 2942.54,-309.691"/>
<polygon fill="midnightblue" stroke="midnightblue" points="2946,-310.221 2944.38,-299.751 2939.12,-308.947 2946,-310.221"/>
</g>
<!-- Node45&#45;&gt;Node10 -->
<g id="edge145" class="edge"><title>Node45&#45;&gt;Node10</title>
<path fill="none" stroke="midnightblue" d="M2242.49,-504.395C2250.04,-491.345 2261.58,-466.148 2251,-448 2225.53,-404.333 2198.9,-410.862 2152,-392 2091.99,-367.867 2072.56,-375.844 2011,-356 1987.83,-348.53 1982.73,-344.719 1960,-336 1930.42,-324.655 1896.62,-312.009 1872.45,-303.02"/>
<polygon fill="midnightblue" stroke="midnightblue" points="1873.64,-299.726 1863.04,-299.525 1871.2,-306.288 1873.64,-299.726"/>
</g>
<!-- Node45&#45;&gt;Node14 -->
<g id="edge146" class="edge"><title>Node45&#45;&gt;Node14</title>
<path fill="none" stroke="midnightblue" d="M2213.21,-507.087C2161.14,-494.358 2032.97,-464.201 1924,-448 1836.38,-434.973 1607.58,-448.786 1527,-412 1482.68,-391.768 1487.47,-364.565 1448,-336 1430.59,-323.398 1409.19,-312.09 1392.22,-303.963"/>
<polygon fill="midnightblue" stroke="midnightblue" points="1393.35,-300.625 1382.81,-299.559 1390.38,-306.966 1393.35,-300.625"/>
</g>
<!-- Node45&#45;&gt;Node15 -->
<g id="edge150" class="edge"><title>Node45&#45;&gt;Node15</title>
<path fill="none" stroke="midnightblue" d="M2247.36,-504.468C2284.94,-472.501 2408.83,-357.699 2349,-280 2315.16,-236.059 2280.89,-261.458 2227.33,-245.516"/>
<polygon fill="midnightblue" stroke="midnightblue" points="2228.43,-242.194 2217.83,-242.313 2226.19,-248.827 2228.43,-242.194"/>
</g>
<!-- Node45&#45;&gt;Node16 -->
<g id="edge151" class="edge"><title>Node45&#45;&gt;Node16</title>
<path fill="none" stroke="midnightblue" d="M2260.79,-511.856C2377.95,-505.686 2891.83,-472.219 2988,-356 3012.03,-326.96 3000.91,-279.21 2992.1,-253.227"/>
<polygon fill="midnightblue" stroke="midnightblue" points="2995.29,-251.742 2988.58,-243.542 2988.71,-254.136 2995.29,-251.742"/>
</g>
<!-- Node45&#45;&gt;Node20 -->
<g id="edge147" class="edge"><title>Node45&#45;&gt;Node20</title>
<path fill="none" stroke="midnightblue" d="M2213.39,-511.014C2122.11,-503.337 1790.65,-475.457 1654.26,-463.984"/>
<polygon fill="midnightblue" stroke="midnightblue" points="1654.26,-460.472 1644,-463.122 1653.67,-467.447 1654.26,-460.472"/>
</g>
<!-- Node45&#45;&gt;Node25 -->
<g id="edge149" class="edge"><title>Node45&#45;&gt;Node25</title>
<path fill="none" stroke="midnightblue" d="M2239.31,-504.168C2242.35,-490.351 2245.8,-463.594 2232,-448 2173.31,-381.684 1901.91,-357.416 1784.44,-349.914"/>
<polygon fill="midnightblue" stroke="midnightblue" points="1784.43,-346.407 1774.23,-349.28 1784,-353.393 1784.43,-346.407"/>
</g>
<!-- Node45&#45;&gt;Node26 -->
<g id="edge148" class="edge"><title>Node45&#45;&gt;Node26</title>
<path fill="none" stroke="midnightblue" d="M2213.44,-510.135C2147.4,-502.103 1958.77,-479.161 1858.12,-466.92"/>
<polygon fill="midnightblue" stroke="midnightblue" points="1858.42,-463.431 1848.07,-465.698 1857.58,-470.38 1858.42,-463.431"/>
</g>
<!-- Node46&#45;&gt;Node10 -->
<g id="edge153" class="edge"><title>Node46&#45;&gt;Node10</title>
<path fill="none" stroke="midnightblue" d="M1688.89,-504.334C1686.12,-490.746 1683.03,-464.296 1696,-448 1729.35,-406.091 1767.09,-442.667 1811,-412 1836.73,-394.032 1843.91,-385.713 1854,-356 1859.27,-340.476 1854.39,-322.169 1848.99,-308.947"/>
<polygon fill="midnightblue" stroke="midnightblue" points="1852.06,-307.24 1844.74,-299.583 1845.68,-310.135 1852.06,-307.24"/>
</g>
<!-- Node46&#45;&gt;Node14 -->
<g id="edge154" class="edge"><title>Node46&#45;&gt;Node14</title>
<path fill="none" stroke="midnightblue" d="M1654.2,-512.305C1569.48,-508.451 1361.42,-485.604 1276,-356 1260.22,-332.064 1293.88,-313.632 1323.81,-302.609"/>
<polygon fill="midnightblue" stroke="midnightblue" points="1325.04,-305.888 1333.33,-299.293 1322.73,-299.277 1325.04,-305.888"/>
</g>
<!-- Node46&#45;&gt;Node15 -->
<g id="edge157" class="edge"><title>Node46&#45;&gt;Node15</title>
<path fill="none" stroke="midnightblue" d="M1693.4,-504.058C1697.8,-489.579 1708.64,-461.286 1729,-448 1846.27,-371.479 1907.38,-450.537 2042,-412 2097.81,-396.024 2121.09,-399.08 2160,-356 2186.55,-326.599 2196.96,-279.712 2200.85,-253.782"/>
<polygon fill="midnightblue" stroke="midnightblue" points="2204.33,-254.144 2202.17,-243.771 2197.39,-253.225 2204.33,-254.144"/>
</g>
<!-- Node46&#45;&gt;Node20 -->
<g id="edge155" class="edge"><title>Node46&#45;&gt;Node20</title>
<path fill="none" stroke="midnightblue" d="M1675.58,-504.324C1660.46,-495.822 1637.18,-482.729 1619.53,-472.797"/>
<polygon fill="midnightblue" stroke="midnightblue" points="1620.82,-469.507 1610.39,-467.655 1617.39,-475.608 1620.82,-469.507"/>
</g>
<!-- Node46&#45;&gt;Node26 -->
<g id="edge156" class="edge"><title>Node46&#45;&gt;Node26</title>
<path fill="none" stroke="midnightblue" d="M1707.39,-504.324C1723.67,-495.703 1748.87,-482.364 1767.72,-472.386"/>
<polygon fill="midnightblue" stroke="midnightblue" points="1769.45,-475.427 1776.65,-467.655 1766.18,-469.24 1769.45,-475.427"/>
</g>
<!-- Node47&#45;&gt;Node10 -->
<g id="edge159" class="edge"><title>Node47&#45;&gt;Node10</title>
<path fill="none" stroke="midnightblue" d="M1917.6,-504.222C1921.06,-495.285 1926.03,-480.942 1928,-468 1937.14,-407.881 1925.54,-386.724 1892,-336 1884.18,-324.174 1872.43,-313.637 1862.07,-305.737"/>
<polygon fill="midnightblue" stroke="midnightblue" points="1863.97,-302.789 1853.82,-299.751 1859.86,-308.456 1863.97,-302.789"/>
</g>
<!-- Node47&#45;&gt;Node14 -->
<g id="edge160" class="edge"><title>Node47&#45;&gt;Node14</title>
<path fill="none" stroke="midnightblue" d="M1909.4,-504.384C1901.1,-489.847 1882.15,-460.784 1857,-448 1638.79,-337.101 1451.72,-558.354 1314,-356 1301.84,-338.129 1321.7,-318.407 1339.67,-305.427"/>
<polygon fill="midnightblue" stroke="midnightblue" points="1341.88,-308.152 1348.18,-299.634 1337.95,-302.364 1341.88,-308.152"/>
</g>
<!-- Node47&#45;&gt;Node15 -->
<g id="edge163" class="edge"><title>Node47&#45;&gt;Node15</title>
<path fill="none" stroke="midnightblue" d="M1944.75,-507.133C2006.68,-493.438 2144.99,-452.869 2198,-356 2215.77,-323.531 2211.46,-278.5 2207.04,-253.537"/>
<polygon fill="midnightblue" stroke="midnightblue" points="2210.45,-252.73 2205.08,-243.597 2203.58,-254.085 2210.45,-252.73"/>
</g>
<!-- Node47&#45;&gt;Node20 -->
<g id="edge161" class="edge"><title>Node47&#45;&gt;Node20</title>
<path fill="none" stroke="midnightblue" d="M1883.41,-507.822C1830.76,-498.909 1722.11,-480.517 1654.23,-469.026"/>
<polygon fill="midnightblue" stroke="midnightblue" points="1654.55,-465.531 1644.11,-467.313 1653.38,-472.433 1654.55,-465.531"/>
</g>
<!-- Node47&#45;&gt;Node26 -->
<g id="edge162" class="edge"><title>Node47&#45;&gt;Node26</title>
<path fill="none" stroke="midnightblue" d="M1894.83,-504.444C1875.09,-495.636 1844.11,-481.812 1821.51,-471.722"/>
<polygon fill="midnightblue" stroke="midnightblue" points="1822.64,-468.396 1812.08,-467.516 1819.79,-474.788 1822.64,-468.396"/>
</g>
<!-- Node48&#45;&gt;Node10 -->
<g id="edge166" class="edge"><title>Node48&#45;&gt;Node10</title>
<path fill="none" stroke="midnightblue" d="M2021.21,-504.18C2033.09,-491.691 2051.18,-468.128 2042,-448 2008.12,-373.71 1918.73,-325.155 1871.03,-303.684"/>
<polygon fill="midnightblue" stroke="midnightblue" points="1872.36,-300.445 1861.79,-299.632 1869.55,-306.855 1872.36,-300.445"/>
</g>
<!-- Node48&#45;&gt;Node14 -->
<g id="edge167" class="edge"><title>Node48&#45;&gt;Node14</title>
<path fill="none" stroke="midnightblue" d="M1999.23,-504.428C1976.95,-489.957 1929.02,-460.992 1884,-448 1716.76,-399.734 1663.56,-451.347 1494,-412 1425.9,-396.197 1386.67,-413.567 1347,-356 1337.25,-341.849 1344.1,-322.358 1351.63,-308.418"/>
<polygon fill="midnightblue" stroke="midnightblue" points="1354.66,-310.173 1356.75,-299.788 1348.64,-306.6 1354.66,-310.173"/>
</g>
<!-- Node48&#45;&gt;Node15 -->
<g id="edge165" class="edge"><title>Node48&#45;&gt;Node15</title>
<path fill="none" stroke="midnightblue" d="M2044.78,-508.468C2094.6,-499.667 2188.2,-475.221 2232,-412 2240.61,-399.577 2237.17,-283.582 2236,-280 2232.51,-269.34 2225.43,-259.117 2218.71,-251.117"/>
<polygon fill="midnightblue" stroke="midnightblue" points="2221.3,-248.763 2212.02,-243.66 2216.1,-253.439 2221.3,-248.763"/>
</g>
<!-- Node48&#45;&gt;Node20 -->
<g id="edge168" class="edge"><title>Node48&#45;&gt;Node20</title>
<path fill="none" stroke="midnightblue" d="M1979.25,-507.848C1970.71,-506.547 1961.52,-505.185 1953,-504 1848.03,-489.4 1725.45,-474.444 1654.38,-465.979"/>
<polygon fill="midnightblue" stroke="midnightblue" points="1654.62,-462.483 1644.28,-464.778 1653.79,-469.434 1654.62,-462.483"/>
</g>
<!-- Node48&#45;&gt;Node22 -->
<g id="edge172" class="edge"><title>Node48&#45;&gt;Node22</title>
<path fill="none" stroke="midnightblue" d="M2013.69,-504.234C2015.8,-490.507 2017.63,-463.872 2004,-448 1905.65,-333.457 1798.48,-445.64 1677,-356 1660.82,-344.06 1649.2,-323.864 1642.34,-309.146"/>
<polygon fill="midnightblue" stroke="midnightblue" points="1645.39,-307.371 1638.19,-299.594 1638.97,-310.16 1645.39,-307.371"/>
</g>
<!-- Node48&#45;&gt;Node26 -->
<g id="edge169" class="edge"><title>Node48&#45;&gt;Node26</title>
<path fill="none" stroke="midnightblue" d="M1979.21,-504.916C1941.62,-495.647 1879.79,-480.401 1837.79,-470.043"/>
<polygon fill="midnightblue" stroke="midnightblue" points="1838.37,-466.582 1827.82,-467.587 1836.69,-473.379 1838.37,-466.582"/>
</g>
<!-- Node48&#45;&gt;Node34 -->
<g id="edge170" class="edge"><title>Node48&#45;&gt;Node34</title>
<path fill="none" stroke="midnightblue" d="M1996.27,-504.475C1968.88,-490.076 1910.24,-461.216 1857,-448 1683.33,-404.891 1633.83,-431.889 1456,-412 1287.13,-393.113 1086.07,-364.059 1006.21,-352.256"/>
<polygon fill="midnightblue" stroke="midnightblue" points="1006.6,-348.776 996.197,-350.773 1005.58,-355.701 1006.6,-348.776"/>
</g>
<!-- Node48&#45;&gt;Node35 -->
<g id="edge171" class="edge"><title>Node48&#45;&gt;Node35</title>
<path fill="none" stroke="midnightblue" d="M2044.62,-505.241C2081.1,-496.492 2141.9,-481.698 2194,-468 2423.34,-407.699 2697.42,-329.06 2793.57,-301.27"/>
<polygon fill="midnightblue" stroke="midnightblue" points="2794.73,-304.578 2803.37,-298.438 2792.79,-297.854 2794.73,-304.578"/>
</g>
<!-- Node49 -->
<g id="node49" class="node"><title>Node49</title>
<g id="a_node49"><a xlink:href="Shooter_8h.html" target="_top" xlink:title="Shooter.h">
<polygon fill="white" stroke="red" points="2020.5,-336.5 2020.5,-355.5 2079.5,-355.5 2079.5,-336.5 2020.5,-336.5"/>
<text text-anchor="middle" x="2050" y="-343.5" font-family="Helvetica,sans-Serif" font-size="10.00">Shooter.h</text>
</a>
</g>
</g>
<!-- Node48&#45;&gt;Node49 -->
<g id="edge173" class="edge"><title>Node48&#45;&gt;Node49</title>
<path fill="none" stroke="midnightblue" d="M2035.45,-504.408C2051.16,-497.28 2070.62,-485.458 2080,-468 2095.99,-438.246 2089.79,-424.328 2080,-392 2076.88,-381.705 2070.55,-371.612 2064.5,-363.602"/>
<polygon fill="midnightblue" stroke="midnightblue" points="2067.22,-361.399 2058.21,-355.818 2061.77,-365.797 2067.22,-361.399"/>
</g>
<!-- Node49&#45;&gt;Node10 -->
<g id="edge174" class="edge"><title>Node49&#45;&gt;Node10</title>
<path fill="none" stroke="midnightblue" d="M2020.36,-337.378C1984.53,-328.165 1923.97,-312.592 1883.01,-302.06"/>
<polygon fill="midnightblue" stroke="midnightblue" points="1883.86,-298.664 1873.3,-299.564 1882.12,-305.444 1883.86,-298.664"/>
</g>
<!-- Node49&#45;&gt;Node11 -->
<g id="edge175" class="edge"><title>Node49&#45;&gt;Node11</title>
<path fill="none" stroke="midnightblue" d="M2027.92,-336.468C2004.74,-327.487 1967.25,-312.891 1935,-300 1893.16,-283.275 1789.71,-238.373 1747,-224 1707.34,-210.654 1661.35,-198.366 1628.01,-190.014"/>
<polygon fill="midnightblue" stroke="midnightblue" points="1628.64,-186.564 1618.09,-187.552 1626.95,-193.358 1628.64,-186.564"/>
</g>
<!-- Node49&#45;&gt;Node19 -->
<g id="edge176" class="edge"><title>Node49&#45;&gt;Node19</title>
<path fill="none" stroke="midnightblue" d="M2035.17,-336.368C2002.46,-317.332 1923.91,-271.615 1884.45,-248.65"/>
<polygon fill="midnightblue" stroke="midnightblue" points="1886.16,-245.597 1875.76,-243.591 1882.64,-251.647 1886.16,-245.597"/>
</g>
<!-- Node49&#45;&gt;Node22 -->
<g id="edge177" class="edge"><title>Node49&#45;&gt;Node22</title>
<path fill="none" stroke="midnightblue" d="M2020.49,-341.16C1945.97,-331.463 1750.44,-306.021 1670.17,-295.576"/>
<polygon fill="midnightblue" stroke="midnightblue" points="1670.44,-292.082 1660.07,-294.263 1669.54,-299.024 1670.44,-292.082"/>
</g>
<!-- Node50&#45;&gt;Node12 -->
<g id="edge182" class="edge"><title>Node50&#45;&gt;Node12</title>
<path fill="none" stroke="midnightblue" d="M3064.7,-280.3C3058.6,-265.636 3044.06,-236.388 3021,-224 2801.36,-106.03 1028.08,-142.979 779,-132 723.676,-129.561 659.352,-126.479 621.248,-124.628"/>
<polygon fill="midnightblue" stroke="midnightblue" points="621.384,-121.131 611.225,-124.14 621.043,-128.122 621.384,-121.131"/>
</g>
<!-- Node50&#45;&gt;Node13 -->
<g id="edge180" class="edge"><title>Node50&#45;&gt;Node13</title>
<path fill="none" stroke="midnightblue" d="M3067.43,-280.307C3066.08,-266.681 3061.64,-240.181 3047,-224 2963.68,-131.908 2911.59,-141.691 2791,-112 2674.15,-83.229 2297.78,-70.9181 2185.14,-67.8199"/>
<polygon fill="midnightblue" stroke="midnightblue" points="2185.17,-64.3195 2175.08,-67.5485 2184.98,-71.317 2185.17,-64.3195"/>
</g>
<!-- Node50&#45;&gt;Node16 -->
<g id="edge181" class="edge"><title>Node50&#45;&gt;Node16</title>
<path fill="none" stroke="midnightblue" d="M3054.66,-280.324C3041.84,-271.979 3022.22,-259.212 3007.06,-249.352"/>
<polygon fill="midnightblue" stroke="midnightblue" points="3008.59,-246.174 2998.3,-243.655 3004.78,-252.042 3008.59,-246.174"/>
</g>
</g>
</svg>
