<?xml version="1.0" encoding="UTF-8" standalone="no"?>
<!DOCTYPE svg PUBLIC "-//W3C//DTD SVG 1.1//EN"
 "http://www.w3.org/Graphics/SVG/1.1/DTD/svg11.dtd">
<!-- Generated by graphviz version 2.38.0 (20140413.2041)
 -->
<!-- Title: Game/include/StageState.h Pages: 1 -->
<svg width="1338pt" height="476pt"
 viewBox="0.00 0.00 1337.65 476.00" xmlns="http://www.w3.org/2000/svg" xmlns:xlink="http://www.w3.org/1999/xlink">
<g id="graph0" class="graph" transform="scale(1 1) rotate(0) translate(4 472)">
<title>Game/include/StageState.h</title>
<polygon fill="white" stroke="none" points="-4,4 -4,-472 1333.65,-472 1333.65,4 -4,4"/>
<!-- Node1 -->
<g id="node1" class="node"><title>Node1</title>
<polygon fill="#bfbfbf" stroke="black" points="462.015,-448.5 462.015,-467.5 599.015,-467.5 599.015,-448.5 462.015,-448.5"/>
<text text-anchor="middle" x="530.515" y="-455.5" font-family="Helvetica,sans-Serif" font-size="10.00">Game/include/StageState.h</text>
</g>
<!-- Node2 -->
<g id="node2" class="node"><title>Node2</title>
<polygon fill="white" stroke="#bfbfbf" points="29.5149,-112.5 29.5149,-131.5 73.5149,-131.5 73.5149,-112.5 29.5149,-112.5"/>
<text text-anchor="middle" x="51.5149" y="-119.5" font-family="Helvetica,sans-Serif" font-size="10.00">vector</text>
</g>
<!-- Node1&#45;&gt;Node2 -->
<g id="edge1" class="edge"><title>Node1&#45;&gt;Node2</title>
<path fill="none" stroke="midnightblue" d="M461.9,-456.928C318.765,-454.921 1.51489,-439.984 1.51489,-347 1.51489,-347 1.51489,-347 1.51489,-233 1.51489,-197.184 23.7547,-160.214 38.5696,-139.56"/>
<polygon fill="midnightblue" stroke="midnightblue" points="41.3928,-141.629 44.5626,-131.519 35.7802,-137.446 41.3928,-141.629"/>
</g>
<!-- Node3 -->
<g id="node3" class="node"><title>Node3</title>
<polygon fill="white" stroke="#bfbfbf" points="573.515,-112.5 573.515,-131.5 625.515,-131.5 625.515,-112.5 573.515,-112.5"/>
<text text-anchor="middle" x="599.515" y="-119.5" font-family="Helvetica,sans-Serif" font-size="10.00">memory</text>
</g>
<!-- Node1&#45;&gt;Node3 -->
<g id="edge2" class="edge"><title>Node1&#45;&gt;Node3</title>
<path fill="none" stroke="midnightblue" d="M531.33,-448.44C534.359,-417.737 545.873,-310.389 566.515,-224 573.601,-194.343 585.294,-160.877 592.691,-140.885"/>
<polygon fill="midnightblue" stroke="midnightblue" points="595.972,-142.104 596.211,-131.511 589.419,-139.643 595.972,-142.104"/>
</g>
<!-- Node4 -->
<g id="node4" class="node"><title>Node4</title>
<g id="a_node4"><a xlink:href="ActionManager_8h.html" target="_top" xlink:title="ActionManager.h">
<polygon fill="white" stroke="black" points="1210.51,-392.5 1210.51,-411.5 1300.51,-411.5 1300.51,-392.5 1210.51,-392.5"/>
<text text-anchor="middle" x="1255.51" y="-399.5" font-family="Helvetica,sans-Serif" font-size="10.00">ActionManager.h</text>
</a>
</g>
</g>
<!-- Node1&#45;&gt;Node4 -->
<g id="edge3" class="edge"><title>Node1&#45;&gt;Node4</title>
<path fill="none" stroke="midnightblue" d="M599.234,-454.261C720.229,-449.013 979.083,-435.887 1196.51,-412 1197.79,-411.86 1199.08,-411.712 1200.38,-411.559"/>
<polygon fill="midnightblue" stroke="midnightblue" points="1200.99,-415.009 1210.47,-410.269 1200.11,-408.065 1200.99,-415.009"/>
</g>
<!-- Node5 -->
<g id="node5" class="node"><title>Node5</title>
<g id="a_node5"><a xlink:href="InputManager_8h.html" target="_top" xlink:title="InputManager.h">
<polygon fill="white" stroke="black" points="1091.51,-112.5 1091.51,-131.5 1175.51,-131.5 1175.51,-112.5 1091.51,-112.5"/>
<text text-anchor="middle" x="1133.51" y="-119.5" font-family="Helvetica,sans-Serif" font-size="10.00">InputManager.h</text>
</a>
</g>
</g>
<!-- Node1&#45;&gt;Node5 -->
<g id="edge39" class="edge"><title>Node1&#45;&gt;Node5</title>
<path fill="none" stroke="midnightblue" d="M599.179,-457.482C779.185,-458.131 1254.65,-455.647 1309.51,-412 1333.07,-393.261 1328.51,-377.098 1328.51,-347 1328.51,-347 1328.51,-347 1328.51,-233 1328.51,-167.365 1243.67,-140.458 1185.91,-129.744"/>
<polygon fill="midnightblue" stroke="midnightblue" points="1186.28,-126.255 1175.83,-127.985 1185.08,-133.151 1186.28,-126.255"/>
</g>
<!-- Node10 -->
<g id="node10" class="node"><title>Node10</title>
<g id="a_node10"><a xlink:href="DragAndDrop_8h.html" target="_top" xlink:title="DragAndDrop.h">
<polygon fill="white" stroke="black" points="71.5149,-336.5 71.5149,-355.5 155.515,-355.5 155.515,-336.5 71.5149,-336.5"/>
<text text-anchor="middle" x="113.515" y="-343.5" font-family="Helvetica,sans-Serif" font-size="10.00">DragAndDrop.h</text>
</a>
</g>
</g>
<!-- Node1&#45;&gt;Node10 -->
<g id="edge10" class="edge"><title>Node1&#45;&gt;Node10</title>
<path fill="none" stroke="midnightblue" d="M461.909,-454.291C371.63,-449.739 218.646,-438.321 169.515,-412 149.266,-401.152 133.091,-379.785 123.43,-364.51"/>
<polygon fill="midnightblue" stroke="midnightblue" points="126.187,-362.302 118.045,-355.523 120.183,-365.9 126.187,-362.302"/>
</g>
<!-- Node13 -->
<g id="node13" class="node"><title>Node13</title>
<g id="a_node13"><a xlink:href="GameObject_8h.html" target="_top" xlink:title="GameObject.h">
<polygon fill="white" stroke="black" points="133.515,-168.5 133.515,-187.5 213.515,-187.5 213.515,-168.5 133.515,-168.5"/>
<text text-anchor="middle" x="173.515" y="-175.5" font-family="Helvetica,sans-Serif" font-size="10.00">GameObject.h</text>
</a>
</g>
</g>
<!-- Node1&#45;&gt;Node13 -->
<g id="edge38" class="edge"><title>Node1&#45;&gt;Node13</title>
<path fill="none" stroke="midnightblue" d="M481.753,-448.463C452.495,-441.768 415.466,-430.416 386.515,-412 291.932,-351.835 212.521,-239.079 184.413,-196.172"/>
<polygon fill="midnightblue" stroke="midnightblue" points="187.298,-194.188 178.931,-187.688 181.418,-197.987 187.298,-194.188"/>
</g>
<!-- Node17 -->
<g id="node17" class="node"><title>Node17</title>
<g id="a_node17"><a xlink:href="TileMap_8h.html" target="_top" xlink:title="TileMap.h">
<polygon fill="white" stroke="black" points="134.015,-280.5 134.015,-299.5 193.015,-299.5 193.015,-280.5 134.015,-280.5"/>
<text text-anchor="middle" x="163.515" y="-287.5" font-family="Helvetica,sans-Serif" font-size="10.00">TileMap.h</text>
</a>
</g>
</g>
<!-- Node1&#45;&gt;Node17 -->
<g id="edge60" class="edge"><title>Node1&#45;&gt;Node17</title>
<path fill="none" stroke="midnightblue" d="M461.958,-455.564C378.937,-452.468 245.479,-442.714 207.515,-412 176.192,-386.658 167.164,-337.016 164.565,-309.857"/>
<polygon fill="midnightblue" stroke="midnightblue" points="168.043,-309.437 163.798,-299.73 161.063,-309.966 168.043,-309.437"/>
</g>
<!-- Node18 -->
<g id="node18" class="node"><title>Node18</title>
<g id="a_node18"><a xlink:href="Tileset_8h.html" target="_top" xlink:title="Tileset.h">
<polygon fill="white" stroke="black" points="351.515,-224.5 351.515,-243.5 405.515,-243.5 405.515,-224.5 351.515,-224.5"/>
<text text-anchor="middle" x="378.515" y="-231.5" font-family="Helvetica,sans-Serif" font-size="10.00">Tileset.h</text>
</a>
</g>
</g>
<!-- Node1&#45;&gt;Node18 -->
<g id="edge61" class="edge"><title>Node1&#45;&gt;Node18</title>
<path fill="none" stroke="midnightblue" d="M465.426,-448.422C442.248,-442.084 418.065,-431.082 402.515,-412 364.851,-365.78 370.224,-289.148 375.233,-253.856"/>
<polygon fill="midnightblue" stroke="midnightblue" points="378.754,-253.999 376.856,-243.575 371.84,-252.907 378.754,-253.999"/>
</g>
<!-- Node19 -->
<g id="node19" class="node"><title>Node19</title>
<g id="a_node19"><a xlink:href="Sprite_8h.html" target="_top" xlink:title="Sprite.h">
<polygon fill="white" stroke="black" points="407.515,-168.5 407.515,-187.5 457.515,-187.5 457.515,-168.5 407.515,-168.5"/>
<text text-anchor="middle" x="432.515" y="-175.5" font-family="Helvetica,sans-Serif" font-size="10.00">Sprite.h</text>
</a>
</g>
</g>
<!-- Node1&#45;&gt;Node19 -->
<g id="edge53" class="edge"><title>Node1&#45;&gt;Node19</title>
<path fill="none" stroke="midnightblue" d="M515.778,-448.209C503.816,-440.274 487.509,-427.486 478.515,-412 437.251,-340.952 432.355,-239.34 432.211,-197.79"/>
<polygon fill="midnightblue" stroke="midnightblue" points="435.711,-197.76 432.271,-187.74 428.712,-197.719 435.711,-197.76"/>
</g>
<!-- Node21 -->
<g id="node21" class="node"><title>Node21</title>
<g id="a_node21"><a xlink:href="Music_8h.html" target="_top" xlink:title="Music.h">
<polygon fill="white" stroke="black" points="946.015,-224.5 946.015,-243.5 997.015,-243.5 997.015,-224.5 946.015,-224.5"/>
<text text-anchor="middle" x="971.515" y="-231.5" font-family="Helvetica,sans-Serif" font-size="10.00">Music.h</text>
</a>
</g>
</g>
<!-- Node1&#45;&gt;Node21 -->
<g id="edge40" class="edge"><title>Node1&#45;&gt;Node21</title>
<path fill="none" stroke="midnightblue" d="M599.03,-450.405C731.313,-436.785 1016.44,-402.856 1102.51,-356 1134.55,-338.561 1147.98,-333.455 1162.51,-300 1166.06,-291.848 1168.03,-286.969 1162.51,-280 1143.51,-256 1057.06,-243.519 1007.22,-238.213"/>
<polygon fill="midnightblue" stroke="midnightblue" points="1007.49,-234.721 997.183,-237.187 1006.78,-241.685 1007.49,-234.721"/>
</g>
<!-- Node26 -->
<g id="node26" class="node"><title>Node26</title>
<g id="a_node26"><a xlink:href="State_8h.html" target="_top" xlink:title="State.h">
<polygon fill="white" stroke="black" points="575.515,-224.5 575.515,-243.5 623.515,-243.5 623.515,-224.5 575.515,-224.5"/>
<text text-anchor="middle" x="599.515" y="-231.5" font-family="Helvetica,sans-Serif" font-size="10.00">State.h</text>
</a>
</g>
</g>
<!-- Node1&#45;&gt;Node26 -->
<g id="edge54" class="edge"><title>Node1&#45;&gt;Node26</title>
<path fill="none" stroke="midnightblue" d="M533.22,-448.297C543.394,-415.563 579.506,-299.375 593.713,-253.666"/>
<polygon fill="midnightblue" stroke="midnightblue" points="597.128,-254.472 596.754,-243.884 590.443,-252.394 597.128,-254.472"/>
</g>
<!-- Node27 -->
<g id="node27" class="node"><title>Node27</title>
<g id="a_node27"><a xlink:href="Timer_8h.html" target="_top" xlink:title="Timer.h">
<polygon fill="white" stroke="black" points="901.515,-280.5 901.515,-299.5 951.515,-299.5 951.515,-280.5 901.515,-280.5"/>
<text text-anchor="middle" x="926.515" y="-287.5" font-family="Helvetica,sans-Serif" font-size="10.00">Timer.h</text>
</a>
</g>
</g>
<!-- Node1&#45;&gt;Node27 -->
<g id="edge62" class="edge"><title>Node1&#45;&gt;Node27</title>
<path fill="none" stroke="midnightblue" d="M550.972,-448.425C616.148,-421.103 819.163,-336.001 896.333,-303.652"/>
<polygon fill="midnightblue" stroke="midnightblue" points="898.073,-306.718 905.943,-299.624 895.367,-300.262 898.073,-306.718"/>
</g>
<!-- Node28 -->
<g id="node28" class="node"><title>Node28</title>
<g id="a_node28"><a xlink:href="EndState_8h.html" target="_top" xlink:title="EndState.h">
<polygon fill="white" stroke="black" points="806.015,-392.5 806.015,-411.5 871.015,-411.5 871.015,-392.5 806.015,-392.5"/>
<text text-anchor="middle" x="838.515" y="-399.5" font-family="Helvetica,sans-Serif" font-size="10.00">EndState.h</text>
</a>
</g>
</g>
<!-- Node1&#45;&gt;Node28 -->
<g id="edge63" class="edge"><title>Node1&#45;&gt;Node28</title>
<path fill="none" stroke="midnightblue" d="M574.815,-448.483C625.227,-439.633 709.681,-425.251 782.515,-412 786.815,-411.218 791.333,-410.377 795.875,-409.534"/>
<polygon fill="midnightblue" stroke="midnightblue" points="796.582,-412.963 805.783,-407.71 795.315,-406.079 796.582,-412.963"/>
</g>
<!-- Node4&#45;&gt;Node5 -->
<g id="edge4" class="edge"><title>Node4&#45;&gt;Node5</title>
<path fill="none" stroke="midnightblue" d="M1255.91,-392.444C1256.72,-373.943 1258.51,-328.827 1258.51,-291 1258.51,-291 1258.51,-291 1258.51,-233 1258.51,-202.205 1255.57,-190.476 1234.51,-168 1219.81,-152.299 1198.62,-141.721 1179.45,-134.789"/>
<polygon fill="midnightblue" stroke="midnightblue" points="1180.54,-131.463 1169.94,-131.581 1178.3,-138.095 1180.54,-131.463"/>
</g>
<!-- Node6 -->
<g id="node6" class="node"><title>Node6</title>
<g id="a_node6"><a xlink:href="SDL__include_8h.html" target="_top" xlink:title="SDL_include.h">
<polygon fill="white" stroke="black" points="649.515,-0.5 649.515,-19.5 729.515,-19.5 729.515,-0.5 649.515,-0.5"/>
<text text-anchor="middle" x="689.515" y="-7.5" font-family="Helvetica,sans-Serif" font-size="10.00">SDL_include.h</text>
</a>
</g>
</g>
<!-- Node5&#45;&gt;Node6 -->
<g id="edge5" class="edge"><title>Node5&#45;&gt;Node6</title>
<path fill="none" stroke="midnightblue" d="M1146.61,-112.44C1164.94,-99.447 1194.23,-74.3247 1177.51,-56 1148.44,-24.1162 858.964,-14.5058 740.079,-11.8902"/>
<polygon fill="midnightblue" stroke="midnightblue" points="739.864,-8.38495 729.792,-11.6721 739.716,-15.3834 739.864,-8.38495"/>
</g>
<!-- Node7 -->
<g id="node7" class="node"><title>Node7</title>
<g id="a_node7"><a xlink:href="Vec2_8h.html" target="_top" xlink:title="Vec2.h">
<polygon fill="white" stroke="black" points="614.015,-56.5 614.015,-75.5 661.015,-75.5 661.015,-56.5 614.015,-56.5"/>
<text text-anchor="middle" x="637.515" y="-63.5" font-family="Helvetica,sans-Serif" font-size="10.00">Vec2.h</text>
</a>
</g>
</g>
<!-- Node5&#45;&gt;Node7 -->
<g id="edge6" class="edge"><title>Node5&#45;&gt;Node7</title>
<path fill="none" stroke="midnightblue" d="M1091.23,-116.396C994.537,-105.869 758.91,-80.2165 671.169,-70.664"/>
<polygon fill="midnightblue" stroke="midnightblue" points="671.541,-67.1839 661.221,-69.5809 670.784,-74.1428 671.541,-67.1839"/>
</g>
<!-- Node8 -->
<g id="node8" class="node"><title>Node8</title>
<polygon fill="white" stroke="#bfbfbf" points="1086.01,-56.5 1086.01,-75.5 1169.01,-75.5 1169.01,-56.5 1086.01,-56.5"/>
<text text-anchor="middle" x="1127.51" y="-63.5" font-family="Helvetica,sans-Serif" font-size="10.00">unordered_map</text>
</g>
<!-- Node5&#45;&gt;Node8 -->
<g id="edge8" class="edge"><title>Node5&#45;&gt;Node8</title>
<path fill="none" stroke="midnightblue" d="M1132.52,-112.083C1131.73,-104.927 1130.59,-94.6353 1129.59,-85.6911"/>
<polygon fill="midnightblue" stroke="midnightblue" points="1133.07,-85.3034 1128.49,-75.7511 1126.11,-86.0765 1133.07,-85.3034"/>
</g>
<!-- Node9 -->
<g id="node9" class="node"><title>Node9</title>
<polygon fill="white" stroke="#bfbfbf" points="1225.51,-56.5 1225.51,-75.5 1271.51,-75.5 1271.51,-56.5 1225.51,-56.5"/>
<text text-anchor="middle" x="1248.51" y="-63.5" font-family="Helvetica,sans-Serif" font-size="10.00">cstdint</text>
</g>
<!-- Node5&#45;&gt;Node9 -->
<g id="edge9" class="edge"><title>Node5&#45;&gt;Node9</title>
<path fill="none" stroke="midnightblue" d="M1151.74,-112.444C1170.41,-103.675 1199.67,-89.9355 1221.13,-79.8579"/>
<polygon fill="midnightblue" stroke="midnightblue" points="1222.81,-82.935 1230.38,-75.5164 1219.84,-76.5988 1222.81,-82.935"/>
</g>
<!-- Node7&#45;&gt;Node6 -->
<g id="edge7" class="edge"><title>Node7&#45;&gt;Node6</title>
<path fill="none" stroke="midnightblue" d="M646.102,-56.083C653.674,-48.2195 664.893,-36.5688 674.029,-27.0813"/>
<polygon fill="midnightblue" stroke="midnightblue" points="676.673,-29.3821 681.088,-19.7511 671.63,-24.5266 676.673,-29.3821"/>
</g>
<!-- Node11 -->
<g id="node11" class="node"><title>Node11</title>
<g id="a_node11"><a xlink:href="Component_8h.html" target="_top" xlink:title="Component.h">
<polygon fill="white" stroke="black" points="68.0149,-224.5 68.0149,-243.5 143.015,-243.5 143.015,-224.5 68.0149,-224.5"/>
<text text-anchor="middle" x="105.515" y="-231.5" font-family="Helvetica,sans-Serif" font-size="10.00">Component.h</text>
</a>
</g>
</g>
<!-- Node10&#45;&gt;Node11 -->
<g id="edge11" class="edge"><title>Node10&#45;&gt;Node11</title>
<path fill="none" stroke="midnightblue" d="M112.887,-336.368C111.596,-318.617 108.618,-277.666 106.867,-253.597"/>
<polygon fill="midnightblue" stroke="midnightblue" points="110.356,-253.311 106.14,-243.591 103.374,-253.819 110.356,-253.311"/>
</g>
<!-- Node10&#45;&gt;Node17 -->
<g id="edge24" class="edge"><title>Node10&#45;&gt;Node17</title>
<path fill="none" stroke="midnightblue" d="M121.771,-336.083C128.98,-328.298 139.625,-316.801 148.361,-307.367"/>
<polygon fill="midnightblue" stroke="midnightblue" points="151.186,-309.467 155.412,-299.751 146.05,-304.711 151.186,-309.467"/>
</g>
<!-- Node12 -->
<g id="node12" class="node"><title>Node12</title>
<g id="a_node12"><a xlink:href="ComponentType_8h.html" target="_top" xlink:title="ComponentType.h">
<polygon fill="white" stroke="black" points="114.015,-112.5 114.015,-131.5 211.015,-131.5 211.015,-112.5 114.015,-112.5"/>
<text text-anchor="middle" x="162.515" y="-119.5" font-family="Helvetica,sans-Serif" font-size="10.00">ComponentType.h</text>
</a>
</g>
</g>
<!-- Node11&#45;&gt;Node12 -->
<g id="edge12" class="edge"><title>Node11&#45;&gt;Node12</title>
<path fill="none" stroke="midnightblue" d="M106.897,-224.145C109.177,-211.205 114.503,-186.644 124.515,-168 130.175,-157.46 138.599,-147.155 146.078,-139.071"/>
<polygon fill="midnightblue" stroke="midnightblue" points="148.671,-141.424 153.105,-131.802 143.638,-136.559 148.671,-141.424"/>
</g>
<!-- Node11&#45;&gt;Node13 -->
<g id="edge13" class="edge"><title>Node11&#45;&gt;Node13</title>
<path fill="none" stroke="midnightblue" d="M111.325,-224.324C119.945,-216.058 135.498,-203.453 149.013,-193.632"/>
<polygon fill="midnightblue" stroke="midnightblue" points="151.343,-196.272 157.506,-187.655 147.314,-190.548 151.343,-196.272"/>
</g>
<!-- Node13&#45;&gt;Node2 -->
<g id="edge15" class="edge"><title>Node13&#45;&gt;Node2</title>
<path fill="none" stroke="midnightblue" d="M154.184,-168.444C134.195,-159.596 102.772,-145.687 79.951,-135.586"/>
<polygon fill="midnightblue" stroke="midnightblue" points="81.3166,-132.363 70.7557,-131.516 78.4834,-138.764 81.3166,-132.363"/>
</g>
<!-- Node13&#45;&gt;Node3 -->
<g id="edge16" class="edge"><title>Node13&#45;&gt;Node3</title>
<path fill="none" stroke="midnightblue" d="M213.752,-172.458C281.338,-164.741 421.913,-148.314 540.515,-132 547.925,-130.981 555.847,-129.821 563.404,-128.68"/>
<polygon fill="midnightblue" stroke="midnightblue" points="564.043,-132.123 573.399,-127.152 562.985,-125.204 564.043,-132.123"/>
</g>
<!-- Node13&#45;&gt;Node6 -->
<g id="edge14" class="edge"><title>Node13&#45;&gt;Node6</title>
<path fill="none" stroke="midnightblue" d="M182.166,-168.368C207.777,-143.016 283.363,-69.6999 314.515,-56 371.603,-30.8942 550.895,-18.2527 639.266,-13.4137"/>
<polygon fill="midnightblue" stroke="midnightblue" points="639.524,-16.905 649.323,-12.8754 639.15,-9.91506 639.524,-16.905"/>
</g>
<!-- Node13&#45;&gt;Node11 -->
<g id="edge18" class="edge"><title>Node13&#45;&gt;Node11</title>
<path fill="none" stroke="midnightblue" d="M167.539,-187.834C158.884,-196.106 143.433,-208.62 130,-218.38"/>
<polygon fill="midnightblue" stroke="midnightblue" points="127.718,-215.706 121.555,-224.324 131.747,-221.43 127.718,-215.706"/>
</g>
<!-- Node13&#45;&gt;Node12 -->
<g id="edge19" class="edge"><title>Node13&#45;&gt;Node12</title>
<path fill="none" stroke="midnightblue" d="M171.698,-168.083C170.241,-160.927 168.144,-150.635 166.322,-141.691"/>
<polygon fill="midnightblue" stroke="midnightblue" points="169.723,-140.851 164.298,-131.751 162.864,-142.248 169.723,-140.851"/>
</g>
<!-- Node14 -->
<g id="node14" class="node"><title>Node14</title>
<polygon fill="white" stroke="#bfbfbf" points="491.015,-112.5 491.015,-131.5 532.015,-131.5 532.015,-112.5 491.015,-112.5"/>
<text text-anchor="middle" x="511.515" y="-119.5" font-family="Helvetica,sans-Serif" font-size="10.00">string</text>
</g>
<!-- Node13&#45;&gt;Node14 -->
<g id="edge17" class="edge"><title>Node13&#45;&gt;Node14</title>
<path fill="none" stroke="midnightblue" d="M213.615,-170.593C281.91,-159.682 419.35,-137.725 480.71,-127.922"/>
<polygon fill="midnightblue" stroke="midnightblue" points="481.585,-131.326 490.908,-126.292 480.481,-124.414 481.585,-131.326"/>
</g>
<!-- Node15 -->
<g id="node15" class="node"><title>Node15</title>
<g id="a_node15"><a xlink:href="Rect_8h.html" target="_top" xlink:title="Rect.h">
<polygon fill="white" stroke="black" points="322.515,-112.5 322.515,-131.5 368.515,-131.5 368.515,-112.5 322.515,-112.5"/>
<text text-anchor="middle" x="345.515" y="-119.5" font-family="Helvetica,sans-Serif" font-size="10.00">Rect.h</text>
</a>
</g>
</g>
<!-- Node13&#45;&gt;Node15 -->
<g id="edge20" class="edge"><title>Node13&#45;&gt;Node15</title>
<path fill="none" stroke="midnightblue" d="M200.769,-168.444C231.027,-158.944 279.87,-143.609 312.331,-133.418"/>
<polygon fill="midnightblue" stroke="midnightblue" points="313.757,-136.639 322.25,-130.304 311.66,-129.96 313.757,-136.639"/>
</g>
<!-- Node15&#45;&gt;Node6 -->
<g id="edge21" class="edge"><title>Node15&#45;&gt;Node6</title>
<path fill="none" stroke="midnightblue" d="M356.194,-112.299C374.119,-98.1664 411.901,-70.3605 448.515,-56 511.589,-31.2618 589.401,-19.8895 639.238,-14.8259"/>
<polygon fill="midnightblue" stroke="midnightblue" points="639.816,-18.2864 649.432,-13.8386 639.141,-11.319 639.816,-18.2864"/>
</g>
<!-- Node15&#45;&gt;Node7 -->
<g id="edge22" class="edge"><title>Node15&#45;&gt;Node7</title>
<path fill="none" stroke="midnightblue" d="M368.863,-114.134C371.765,-113.369 374.701,-112.638 377.515,-112 458.017,-93.7635 554,-78.9055 603.791,-71.7044"/>
<polygon fill="midnightblue" stroke="midnightblue" points="604.291,-75.1687 613.693,-70.2855 603.298,-68.2395 604.291,-75.1687"/>
</g>
<!-- Node16 -->
<g id="node16" class="node"><title>Node16</title>
<polygon fill="white" stroke="#bfbfbf" points="323.515,-56.5 323.515,-75.5 367.515,-75.5 367.515,-56.5 323.515,-56.5"/>
<text text-anchor="middle" x="345.515" y="-63.5" font-family="Helvetica,sans-Serif" font-size="10.00">cmath</text>
</g>
<!-- Node15&#45;&gt;Node16 -->
<g id="edge23" class="edge"><title>Node15&#45;&gt;Node16</title>
<path fill="none" stroke="midnightblue" d="M345.515,-112.083C345.515,-105.006 345.515,-94.8611 345.515,-85.9865"/>
<polygon fill="midnightblue" stroke="midnightblue" points="349.015,-85.751 345.515,-75.7511 342.015,-85.7511 349.015,-85.751"/>
</g>
<!-- Node17&#45;&gt;Node2 -->
<g id="edge26" class="edge"><title>Node17&#45;&gt;Node2</title>
<path fill="none" stroke="midnightblue" d="M133.694,-284.871C109.156,-279.766 75.7161,-268.515 58.5149,-244 37.0375,-213.391 42.0043,-166.973 47.0516,-141.443"/>
<polygon fill="midnightblue" stroke="midnightblue" points="50.4867,-142.118 49.2121,-131.6 43.6495,-140.617 50.4867,-142.118"/>
</g>
<!-- Node17&#45;&gt;Node7 -->
<g id="edge37" class="edge"><title>Node17&#45;&gt;Node7</title>
<path fill="none" stroke="midnightblue" d="M133.807,-285.608C106.812,-280.922 67.8885,-269.871 45.5149,-244 6.45671,-198.837 -20.1416,-155.73 20.5149,-112 40.5226,-90.4799 477.323,-72.8642 603.606,-68.2071"/>
<polygon fill="midnightblue" stroke="midnightblue" points="603.973,-71.6962 613.838,-67.8332 603.717,-64.7008 603.973,-71.6962"/>
</g>
<!-- Node17&#45;&gt;Node13 -->
<g id="edge27" class="edge"><title>Node17&#45;&gt;Node13</title>
<path fill="none" stroke="midnightblue" d="M164.3,-280.368C165.913,-262.617 169.636,-221.666 171.824,-197.597"/>
<polygon fill="midnightblue" stroke="midnightblue" points="175.314,-197.867 172.734,-187.591 168.343,-197.233 175.314,-197.867"/>
</g>
<!-- Node17&#45;&gt;Node14 -->
<g id="edge25" class="edge"><title>Node17&#45;&gt;Node14</title>
<path fill="none" stroke="midnightblue" d="M177.26,-280.389C211.282,-259.311 302.535,-204.208 383.515,-168 415.977,-153.485 454.664,-140.441 480.946,-132.18"/>
<polygon fill="midnightblue" stroke="midnightblue" points="482.199,-135.456 490.713,-129.151 480.125,-128.77 482.199,-135.456"/>
</g>
<!-- Node17&#45;&gt;Node18 -->
<g id="edge28" class="edge"><title>Node17&#45;&gt;Node18</title>
<path fill="none" stroke="midnightblue" d="M193.41,-281.492C232.103,-271.773 299.52,-254.841 341.434,-244.313"/>
<polygon fill="midnightblue" stroke="midnightblue" points="342.405,-247.678 351.251,-241.848 340.7,-240.889 342.405,-247.678"/>
</g>
<!-- Node18&#45;&gt;Node14 -->
<g id="edge29" class="edge"><title>Node18&#45;&gt;Node14</title>
<path fill="none" stroke="midnightblue" d="M378.875,-224.256C379.897,-210.561 383.784,-183.967 398.515,-168 420.161,-144.538 455.646,-133.093 481.078,-127.655"/>
<polygon fill="midnightblue" stroke="midnightblue" points="481.808,-131.079 490.955,-125.733 480.471,-124.207 481.808,-131.079"/>
</g>
<!-- Node18&#45;&gt;Node19 -->
<g id="edge30" class="edge"><title>Node18&#45;&gt;Node19</title>
<path fill="none" stroke="midnightblue" d="M387.432,-224.083C395.295,-216.22 406.946,-204.569 416.434,-195.081"/>
<polygon fill="midnightblue" stroke="midnightblue" points="419.168,-197.297 423.764,-187.751 414.218,-192.347 419.168,-197.297"/>
</g>
<!-- Node19&#45;&gt;Node3 -->
<g id="edge33" class="edge"><title>Node19&#45;&gt;Node3</title>
<path fill="none" stroke="midnightblue" d="M457.516,-168.916C485.596,-159.836 531.414,-145.021 563.385,-134.683"/>
<polygon fill="midnightblue" stroke="midnightblue" points="564.801,-137.903 573.239,-131.496 562.647,-131.243 564.801,-137.903"/>
</g>
<!-- Node19&#45;&gt;Node5 -->
<g id="edge36" class="edge"><title>Node19&#45;&gt;Node5</title>
<path fill="none" stroke="midnightblue" d="M457.878,-175.046C559.771,-167.197 940.565,-137.863 1081.03,-127.043"/>
<polygon fill="midnightblue" stroke="midnightblue" points="1081.42,-130.524 1091.12,-126.266 1080.88,-123.544 1081.42,-130.524"/>
</g>
<!-- Node19&#45;&gt;Node6 -->
<g id="edge31" class="edge"><title>Node19&#45;&gt;Node6</title>
<path fill="none" stroke="midnightblue" d="M437.197,-168.388C444.906,-154.872 461.434,-128.52 481.515,-112 534.145,-68.6999 608.45,-38.4105 652.533,-22.9188"/>
<polygon fill="midnightblue" stroke="midnightblue" points="653.944,-26.1345 662.26,-19.5688 651.665,-19.516 653.944,-26.1345"/>
</g>
<!-- Node19&#45;&gt;Node14 -->
<g id="edge32" class="edge"><title>Node19&#45;&gt;Node14</title>
<path fill="none" stroke="midnightblue" d="M445.208,-168.324C457.416,-159.979 476.093,-147.212 490.518,-137.352"/>
<polygon fill="midnightblue" stroke="midnightblue" points="492.573,-140.187 498.854,-131.655 488.623,-134.408 492.573,-140.187"/>
</g>
<!-- Node19&#45;&gt;Node15 -->
<g id="edge35" class="edge"><title>Node19&#45;&gt;Node15</title>
<path fill="none" stroke="midnightblue" d="M418.537,-168.324C404.965,-159.9 384.135,-146.971 368.19,-137.074"/>
<polygon fill="midnightblue" stroke="midnightblue" points="369.8,-133.954 359.458,-131.655 366.109,-139.902 369.8,-133.954"/>
</g>
<!-- Node20 -->
<g id="node20" class="node"><title>Node20</title>
<g id="a_node20"><a xlink:href="Color_8h.html" target="_top" xlink:title="Color.h">
<polygon fill="white" stroke="black" points="386.515,-112.5 386.515,-131.5 434.515,-131.5 434.515,-112.5 386.515,-112.5"/>
<text text-anchor="middle" x="410.515" y="-119.5" font-family="Helvetica,sans-Serif" font-size="10.00">Color.h</text>
</a>
</g>
</g>
<!-- Node19&#45;&gt;Node20 -->
<g id="edge34" class="edge"><title>Node19&#45;&gt;Node20</title>
<path fill="none" stroke="midnightblue" d="M428.882,-168.083C425.903,-160.77 421.589,-150.181 417.89,-141.103"/>
<polygon fill="midnightblue" stroke="midnightblue" points="421.094,-139.691 414.08,-131.751 414.612,-142.333 421.094,-139.691"/>
</g>
<!-- Node21&#45;&gt;Node3 -->
<g id="edge43" class="edge"><title>Node21&#45;&gt;Node3</title>
<path fill="none" stroke="midnightblue" d="M954.379,-224.453C926.375,-210.788 868.781,-183.941 817.515,-168 754.957,-148.547 679.657,-135.125 635.921,-128.276"/>
<polygon fill="midnightblue" stroke="midnightblue" points="636.187,-124.776 625.772,-126.717 635.124,-131.695 636.187,-124.776"/>
</g>
<!-- Node21&#45;&gt;Node5 -->
<g id="edge52" class="edge"><title>Node21&#45;&gt;Node5</title>
<path fill="none" stroke="midnightblue" d="M984.227,-224.368C1012.03,-205.492 1078.46,-160.385 1112.55,-137.237"/>
<polygon fill="midnightblue" stroke="midnightblue" points="1114.56,-140.105 1120.86,-131.591 1110.62,-134.313 1114.56,-140.105"/>
</g>
<!-- Node21&#45;&gt;Node6 -->
<g id="edge41" class="edge"><title>Node21&#45;&gt;Node6</title>
<path fill="none" stroke="midnightblue" d="M977.907,-224.246C992.514,-203.083 1025.23,-148.223 1000.51,-112 970.713,-68.3234 819.608,-34.7314 739.517,-19.6743"/>
<polygon fill="midnightblue" stroke="midnightblue" points="740.116,-16.2257 729.646,-17.8447 738.84,-23.1085 740.116,-16.2257"/>
</g>
<!-- Node21&#45;&gt;Node14 -->
<g id="edge42" class="edge"><title>Node21&#45;&gt;Node14</title>
<path fill="none" stroke="midnightblue" d="M945.772,-225.494C888.828,-208.901 756.425,-170.375 746.515,-168 708.076,-158.788 596.914,-138.403 542.399,-128.548"/>
<polygon fill="midnightblue" stroke="midnightblue" points="542.752,-125.056 532.29,-126.724 541.509,-131.944 542.752,-125.056"/>
</g>
<!-- Node22 -->
<g id="node22" class="node"><title>Node22</title>
<g id="a_node22"><a xlink:href="Resources_8h.html" target="_top" xlink:title="Resources.h">
<polygon fill="white" stroke="black" points="665.515,-168.5 665.515,-187.5 737.515,-187.5 737.515,-168.5 665.515,-168.5"/>
<text text-anchor="middle" x="701.515" y="-175.5" font-family="Helvetica,sans-Serif" font-size="10.00">Resources.h</text>
</a>
</g>
</g>
<!-- Node21&#45;&gt;Node22 -->
<g id="edge44" class="edge"><title>Node21&#45;&gt;Node22</title>
<path fill="none" stroke="midnightblue" d="M945.626,-227.822C900.054,-218.708 804.935,-199.684 747.817,-188.26"/>
<polygon fill="midnightblue" stroke="midnightblue" points="748.451,-184.818 737.959,-186.289 747.078,-191.682 748.451,-184.818"/>
</g>
<!-- Node23 -->
<g id="node23" class="node"><title>Node23</title>
<g id="a_node23"><a xlink:href="Error_8h.html" target="_top" xlink:title="Error.h">
<polygon fill="white" stroke="black" points="907.515,-168.5 907.515,-187.5 953.515,-187.5 953.515,-168.5 907.515,-168.5"/>
<text text-anchor="middle" x="930.515" y="-175.5" font-family="Helvetica,sans-Serif" font-size="10.00">Error.h</text>
</a>
</g>
</g>
<!-- Node21&#45;&gt;Node23 -->
<g id="edge49" class="edge"><title>Node21&#45;&gt;Node23</title>
<path fill="none" stroke="midnightblue" d="M964.745,-224.083C958.953,-216.455 950.456,-205.264 943.377,-195.941"/>
<polygon fill="midnightblue" stroke="midnightblue" points="945.994,-193.599 937.159,-187.751 940.419,-197.832 945.994,-193.599"/>
</g>
<!-- Node22&#45;&gt;Node3 -->
<g id="edge48" class="edge"><title>Node22&#45;&gt;Node3</title>
<path fill="none" stroke="midnightblue" d="M685.127,-168.324C668.844,-159.703 643.647,-146.364 624.799,-136.386"/>
<polygon fill="midnightblue" stroke="midnightblue" points="626.338,-133.24 615.862,-131.655 623.063,-139.427 626.338,-133.24"/>
</g>
<!-- Node22&#45;&gt;Node6 -->
<g id="edge45" class="edge"><title>Node22&#45;&gt;Node6</title>
<path fill="none" stroke="midnightblue" d="M700.87,-168.075C698.981,-141.945 693.434,-65.2106 690.858,-29.577"/>
<polygon fill="midnightblue" stroke="midnightblue" points="694.346,-29.2897 690.134,-19.5681 687.364,-29.7945 694.346,-29.2897"/>
</g>
<!-- Node22&#45;&gt;Node8 -->
<g id="edge47" class="edge"><title>Node22&#45;&gt;Node8</title>
<path fill="none" stroke="midnightblue" d="M719.416,-168.28C748.674,-154.373 808.86,-127.194 862.515,-112 935.067,-91.4543 1021.61,-78.917 1075.57,-72.4639"/>
<polygon fill="midnightblue" stroke="midnightblue" points="1076.06,-75.9304 1085.59,-71.2915 1075.25,-68.9779 1076.06,-75.9304"/>
</g>
<!-- Node22&#45;&gt;Node14 -->
<g id="edge46" class="edge"><title>Node22&#45;&gt;Node14</title>
<path fill="none" stroke="midnightblue" d="M671.409,-168.444C635.981,-158.374 577.487,-141.75 541.927,-131.643"/>
<polygon fill="midnightblue" stroke="midnightblue" points="542.687,-128.221 532.111,-128.854 540.773,-134.954 542.687,-128.221"/>
</g>
<!-- Node24 -->
<g id="node24" class="node"><title>Node24</title>
<polygon fill="white" stroke="#bfbfbf" points="937.515,-112.5 937.515,-131.5 991.515,-131.5 991.515,-112.5 937.515,-112.5"/>
<text text-anchor="middle" x="964.515" y="-119.5" font-family="Helvetica,sans-Serif" font-size="10.00">iostream</text>
</g>
<!-- Node23&#45;&gt;Node24 -->
<g id="edge50" class="edge"><title>Node23&#45;&gt;Node24</title>
<path fill="none" stroke="midnightblue" d="M936.129,-168.083C940.882,-160.534 947.833,-149.495 953.667,-140.23"/>
<polygon fill="midnightblue" stroke="midnightblue" points="956.639,-142.078 959.005,-131.751 950.715,-138.349 956.639,-142.078"/>
</g>
<!-- Node25 -->
<g id="node25" class="node"><title>Node25</title>
<polygon fill="white" stroke="#bfbfbf" points="871.515,-112.5 871.515,-131.5 919.515,-131.5 919.515,-112.5 871.515,-112.5"/>
<text text-anchor="middle" x="895.515" y="-119.5" font-family="Helvetica,sans-Serif" font-size="10.00">stdlib.h</text>
</g>
<!-- Node23&#45;&gt;Node25 -->
<g id="edge51" class="edge"><title>Node23&#45;&gt;Node25</title>
<path fill="none" stroke="midnightblue" d="M924.735,-168.083C919.843,-160.534 912.687,-149.495 906.682,-140.23"/>
<polygon fill="midnightblue" stroke="midnightblue" points="909.563,-138.239 901.187,-131.751 903.689,-142.046 909.563,-138.239"/>
</g>
<!-- Node26&#45;&gt;Node2 -->
<g id="edge55" class="edge"><title>Node26&#45;&gt;Node2</title>
<path fill="none" stroke="midnightblue" d="M575.261,-228.132C487.125,-210.44 183.76,-149.545 83.7666,-129.474"/>
<polygon fill="midnightblue" stroke="midnightblue" points="84.1598,-125.983 73.6665,-127.446 82.7821,-132.846 84.1598,-125.983"/>
</g>
<!-- Node26&#45;&gt;Node3 -->
<g id="edge56" class="edge"><title>Node26&#45;&gt;Node3</title>
<path fill="none" stroke="midnightblue" d="M599.515,-224.368C599.515,-206.617 599.515,-165.666 599.515,-141.597"/>
<polygon fill="midnightblue" stroke="midnightblue" points="603.015,-141.591 599.515,-131.591 596.015,-141.591 603.015,-141.591"/>
</g>
<!-- Node26&#45;&gt;Node5 -->
<g id="edge57" class="edge"><title>Node26&#45;&gt;Node5</title>
<path fill="none" stroke="midnightblue" d="M623.661,-232.005C682.455,-229.155 837.4,-219.055 962.515,-188 1014.75,-175.034 1072.77,-150.75 1106.02,-135.815"/>
<polygon fill="midnightblue" stroke="midnightblue" points="1107.85,-138.826 1115.51,-131.503 1104.95,-132.453 1107.85,-138.826"/>
</g>
<!-- Node26&#45;&gt;Node13 -->
<g id="edge59" class="edge"><title>Node26&#45;&gt;Node13</title>
<path fill="none" stroke="midnightblue" d="M575.091,-230.428C515.553,-224.076 358.231,-206.79 227.515,-188 226.245,-187.817 224.959,-187.629 223.661,-187.436"/>
<polygon fill="midnightblue" stroke="midnightblue" points="224.005,-183.948 213.588,-185.884 222.939,-190.866 224.005,-183.948"/>
</g>
<!-- Node26&#45;&gt;Node22 -->
<g id="edge58" class="edge"><title>Node26&#45;&gt;Node22</title>
<path fill="none" stroke="midnightblue" d="M615.903,-224.324C632.186,-215.703 657.382,-202.364 676.231,-192.386"/>
<polygon fill="midnightblue" stroke="midnightblue" points="677.967,-195.427 685.167,-187.655 674.692,-189.24 677.967,-195.427"/>
</g>
<!-- Node28&#45;&gt;Node1 -->
<g id="edge86" class="edge"><title>Node28&#45;&gt;Node1</title>
<path fill="none" stroke="midnightblue" d="M805.998,-410.992C804.149,-411.335 802.313,-411.673 800.515,-412 731.949,-424.475 653.084,-437.952 598.282,-446.872"/>
<polygon fill="midnightblue" stroke="midnightblue" points="597.649,-443.428 588.338,-448.483 598.769,-450.338 597.649,-443.428"/>
</g>
<!-- Node28&#45;&gt;Node5 -->
<g id="edge85" class="edge"><title>Node28&#45;&gt;Node5</title>
<path fill="none" stroke="midnightblue" d="M871.084,-398.641C963.462,-391.062 1220.51,-363.465 1220.51,-291 1220.51,-291 1220.51,-291 1220.51,-233 1220.51,-191.4 1181.76,-156.331 1155.98,-137.605"/>
<polygon fill="midnightblue" stroke="midnightblue" points="1157.7,-134.531 1147.49,-131.679 1153.69,-140.272 1157.7,-134.531"/>
</g>
<!-- Node28&#45;&gt;Node13 -->
<g id="edge67" class="edge"><title>Node28&#45;&gt;Node13</title>
<path fill="none" stroke="midnightblue" d="M805.986,-396.542C731.995,-385.755 546.147,-355 399.515,-300 320.43,-270.336 234.395,-218.153 195.18,-193.144"/>
<polygon fill="midnightblue" stroke="midnightblue" points="196.983,-190.142 186.679,-187.678 193.197,-196.03 196.983,-190.142"/>
</g>
<!-- Node28&#45;&gt;Node19 -->
<g id="edge69" class="edge"><title>Node28&#45;&gt;Node19</title>
<path fill="none" stroke="midnightblue" d="M805.849,-392.997C776.536,-385.27 732.689,-372.348 696.515,-356 596.051,-310.599 491.603,-228.258 450.579,-194.287"/>
<polygon fill="midnightblue" stroke="midnightblue" points="452.731,-191.524 442.812,-187.803 448.245,-196.898 452.731,-191.524"/>
</g>
<!-- Node28&#45;&gt;Node21 -->
<g id="edge68" class="edge"><title>Node28&#45;&gt;Node21</title>
<path fill="none" stroke="midnightblue" d="M855.157,-392.411C882.13,-377.541 934.949,-344.296 960.515,-300 968.65,-285.906 971.142,-267.416 971.749,-253.761"/>
<polygon fill="midnightblue" stroke="midnightblue" points="975.251,-253.682 971.899,-243.631 968.251,-253.579 975.251,-253.682"/>
</g>
<!-- Node29 -->
<g id="node29" class="node"><title>Node29</title>
<g id="a_node29"><a xlink:href="EndStateData_8h.html" target="_top" xlink:title="EndStateData.h">
<polygon fill="white" stroke="black" points="1007.51,-336.5 1007.51,-355.5 1093.51,-355.5 1093.51,-336.5 1007.51,-336.5"/>
<text text-anchor="middle" x="1050.51" y="-343.5" font-family="Helvetica,sans-Serif" font-size="10.00">EndStateData.h</text>
</a>
</g>
</g>
<!-- Node28&#45;&gt;Node29 -->
<g id="edge64" class="edge"><title>Node28&#45;&gt;Node29</title>
<path fill="none" stroke="midnightblue" d="M871.175,-392.681C907.687,-383.381 966.971,-368.28 1007.3,-358.008"/>
<polygon fill="midnightblue" stroke="midnightblue" points="1008.29,-361.367 1017.12,-355.507 1006.56,-354.584 1008.29,-361.367"/>
</g>
<!-- Node32 -->
<g id="node32" class="node"><title>Node32</title>
<g id="a_node32"><a xlink:href="Text_8h.html" target="_top" xlink:title="Text.h">
<polygon fill="white" stroke="black" points="705.515,-336.5 705.515,-355.5 749.515,-355.5 749.515,-336.5 705.515,-336.5"/>
<text text-anchor="middle" x="727.515" y="-343.5" font-family="Helvetica,sans-Serif" font-size="10.00">Text.h</text>
</a>
</g>
</g>
<!-- Node28&#45;&gt;Node32 -->
<g id="edge70" class="edge"><title>Node28&#45;&gt;Node32</title>
<path fill="none" stroke="midnightblue" d="M820.681,-392.324C802.799,-383.625 775.04,-370.12 754.469,-360.113"/>
<polygon fill="midnightblue" stroke="midnightblue" points="755.828,-356.882 745.305,-355.655 752.766,-363.177 755.828,-356.882"/>
</g>
<!-- Node30 -->
<g id="node30" class="node"><title>Node30</title>
<g id="a_node30"><a xlink:href="StateData_8h.html" target="_top" xlink:title="StateData.h">
<polygon fill="white" stroke="black" points="1085.01,-280.5 1085.01,-299.5 1154.01,-299.5 1154.01,-280.5 1085.01,-280.5"/>
<text text-anchor="middle" x="1119.51" y="-287.5" font-family="Helvetica,sans-Serif" font-size="10.00">StateData.h</text>
</a>
</g>
</g>
<!-- Node29&#45;&gt;Node30 -->
<g id="edge65" class="edge"><title>Node29&#45;&gt;Node30</title>
<path fill="none" stroke="midnightblue" d="M1061.6,-336.324C1072,-328.185 1087.78,-315.839 1100.24,-306.087"/>
<polygon fill="midnightblue" stroke="midnightblue" points="1102.51,-308.753 1108.23,-299.834 1098.19,-303.241 1102.51,-308.753"/>
</g>
<!-- Node31 -->
<g id="node31" class="node"><title>Node31</title>
<g id="a_node31"><a xlink:href="Defines_8h.html" target="_top" xlink:title="Defines.h">
<polygon fill="white" stroke="black" points="1008.01,-280.5 1008.01,-299.5 1067.01,-299.5 1067.01,-280.5 1008.01,-280.5"/>
<text text-anchor="middle" x="1037.51" y="-287.5" font-family="Helvetica,sans-Serif" font-size="10.00">Defines.h</text>
</a>
</g>
</g>
<!-- Node29&#45;&gt;Node31 -->
<g id="edge66" class="edge"><title>Node29&#45;&gt;Node31</title>
<path fill="none" stroke="midnightblue" d="M1048.37,-336.083C1046.65,-328.927 1044.17,-318.635 1042.01,-309.691"/>
<polygon fill="midnightblue" stroke="midnightblue" points="1045.37,-308.654 1039.62,-299.751 1038.56,-310.293 1045.37,-308.654"/>
</g>
<!-- Node32&#45;&gt;Node3 -->
<g id="edge74" class="edge"><title>Node32&#45;&gt;Node3</title>
<path fill="none" stroke="midnightblue" d="M722.497,-336.297C703.504,-303.356 635.78,-185.898 609.781,-140.805"/>
<polygon fill="midnightblue" stroke="midnightblue" points="612.664,-138.799 604.637,-131.884 606.6,-142.295 612.664,-138.799"/>
</g>
<!-- Node32&#45;&gt;Node6 -->
<g id="edge71" class="edge"><title>Node32&#45;&gt;Node6</title>
<path fill="none" stroke="midnightblue" d="M749.581,-336.721C773.156,-327.827 811.585,-313.19 844.515,-300 865.969,-291.407 870.818,-287.96 892.515,-280 942,-261.847 970.437,-283.342 1005.51,-244 1044.75,-200 1046.47,-163.899 1018.51,-112 997.06,-72.1717 975.486,-72.8838 933.515,-56 869.582,-30.2816 790.268,-19.1335 739.763,-14.3888"/>
<polygon fill="midnightblue" stroke="midnightblue" points="740.021,-10.898 729.75,-13.4967 739.399,-17.8703 740.021,-10.898"/>
</g>
<!-- Node32&#45;&gt;Node14 -->
<g id="edge75" class="edge"><title>Node32&#45;&gt;Node14</title>
<path fill="none" stroke="midnightblue" d="M706.232,-336.489C672.527,-322.059 606.592,-289.825 566.515,-244 539.52,-213.133 523.501,-166.815 516.227,-141.37"/>
<polygon fill="midnightblue" stroke="midnightblue" points="519.562,-140.297 513.565,-131.563 512.807,-142.131 519.562,-140.297"/>
</g>
<!-- Node32&#45;&gt;Node15 -->
<g id="edge72" class="edge"><title>Node32&#45;&gt;Node15</title>
<path fill="none" stroke="midnightblue" d="M705.333,-342.672C630.286,-334.296 388.049,-303.02 342.515,-244 319.603,-214.302 330.101,-167.191 338.557,-141.389"/>
<polygon fill="midnightblue" stroke="midnightblue" points="341.932,-142.343 341.953,-131.748 335.329,-140.017 341.932,-142.343"/>
</g>
<!-- Node32&#45;&gt;Node22 -->
<g id="edge76" class="edge"><title>Node32&#45;&gt;Node22</title>
<path fill="none" stroke="midnightblue" d="M726.117,-336.075C722.024,-309.945 710.006,-233.211 704.425,-197.577"/>
<polygon fill="midnightblue" stroke="midnightblue" points="707.862,-196.906 702.857,-187.568 700.947,-197.989 707.862,-196.906"/>
</g>
<!-- Node32&#45;&gt;Node23 -->
<g id="edge84" class="edge"><title>Node32&#45;&gt;Node23</title>
<path fill="none" stroke="midnightblue" d="M747.016,-336.416C765.273,-328.061 793.032,-314.529 815.515,-300 848.977,-278.376 858.334,-273.13 885.515,-244 899.228,-229.303 911.979,-210.149 920.38,-196.447"/>
<polygon fill="midnightblue" stroke="midnightblue" points="923.556,-197.955 925.68,-187.576 917.547,-194.365 923.556,-197.955"/>
</g>
<!-- Node32&#45;&gt;Node27 -->
<g id="edge73" class="edge"><title>Node32&#45;&gt;Node27</title>
<path fill="none" stroke="midnightblue" d="M749.572,-339.015C783.902,-329.699 850.423,-311.648 891.402,-300.528"/>
<polygon fill="midnightblue" stroke="midnightblue" points="892.501,-303.856 901.236,-297.86 890.668,-297.101 892.501,-303.856"/>
</g>
<!-- Node33 -->
<g id="node33" class="node"><title>Node33</title>
<g id="a_node33"><a xlink:href="Game_8h.html" target="_top" xlink:title="Game.h">
<polygon fill="white" stroke="black" points="756.015,-280.5 756.015,-299.5 807.015,-299.5 807.015,-280.5 756.015,-280.5"/>
<text text-anchor="middle" x="781.515" y="-287.5" font-family="Helvetica,sans-Serif" font-size="10.00">Game.h</text>
</a>
</g>
</g>
<!-- Node32&#45;&gt;Node33 -->
<g id="edge77" class="edge"><title>Node32&#45;&gt;Node33</title>
<path fill="none" stroke="midnightblue" d="M736.432,-336.083C744.295,-328.22 755.946,-316.569 765.434,-307.081"/>
<polygon fill="midnightblue" stroke="midnightblue" points="768.168,-309.297 772.764,-299.751 763.218,-304.347 768.168,-309.297"/>
</g>
<!-- Node33&#45;&gt;Node5 -->
<g id="edge81" class="edge"><title>Node33&#45;&gt;Node5</title>
<path fill="none" stroke="midnightblue" d="M807.152,-288.283C850.351,-286.137 939.399,-277.624 1005.51,-244 1055.96,-218.344 1100.37,-166.541 1121.1,-139.808"/>
<polygon fill="midnightblue" stroke="midnightblue" points="1123.94,-141.857 1127.2,-131.776 1118.36,-137.624 1123.94,-141.857"/>
</g>
<!-- Node33&#45;&gt;Node6 -->
<g id="edge83" class="edge"><title>Node33&#45;&gt;Node6</title>
<path fill="none" stroke="midnightblue" d="M801.737,-280.495C816.286,-273.168 834.816,-261.063 843.515,-244 847.552,-236.081 846.252,-232.457 843.515,-224 815.938,-138.791 740.129,-59.04 706.252,-26.4613"/>
<polygon fill="midnightblue" stroke="midnightblue" points="708.627,-23.8904 698.959,-19.5569 703.815,-28.9737 708.627,-23.8904"/>
</g>
<!-- Node33&#45;&gt;Node7 -->
<g id="edge82" class="edge"><title>Node33&#45;&gt;Node7</title>
<path fill="none" stroke="midnightblue" d="M780.631,-280.447C778.17,-259.731 769.814,-205.787 746.515,-168 723.723,-131.035 683.778,-99.0144 659.091,-81.4175"/>
<polygon fill="midnightblue" stroke="midnightblue" points="660.953,-78.4486 650.747,-75.6046 656.951,-84.1924 660.953,-78.4486"/>
</g>
<!-- Node33&#45;&gt;Node14 -->
<g id="edge78" class="edge"><title>Node33&#45;&gt;Node14</title>
<path fill="none" stroke="midnightblue" d="M767.379,-280.309C723.364,-253.248 588.487,-170.324 534.352,-137.041"/>
<polygon fill="midnightblue" stroke="midnightblue" points="535.863,-133.861 525.511,-131.605 532.197,-139.824 535.863,-133.861"/>
</g>
<!-- Node33&#45;&gt;Node26 -->
<g id="edge80" class="edge"><title>Node33&#45;&gt;Node26</title>
<path fill="none" stroke="midnightblue" d="M755.825,-281.378C723.808,-271.878 668.996,-255.615 633.523,-245.09"/>
<polygon fill="midnightblue" stroke="midnightblue" points="634.206,-241.642 623.624,-242.153 632.215,-248.353 634.206,-241.642"/>
</g>
<!-- Node34 -->
<g id="node34" class="node"><title>Node34</title>
<polygon fill="white" stroke="#bfbfbf" points="794.015,-224.5 794.015,-243.5 835.015,-243.5 835.015,-224.5 794.015,-224.5"/>
<text text-anchor="middle" x="814.515" y="-231.5" font-family="Helvetica,sans-Serif" font-size="10.00">stack</text>
</g>
<!-- Node33&#45;&gt;Node34 -->
<g id="edge79" class="edge"><title>Node33&#45;&gt;Node34</title>
<path fill="none" stroke="midnightblue" d="M786.964,-280.083C791.529,-272.613 798.183,-261.724 803.808,-252.52"/>
<polygon fill="midnightblue" stroke="midnightblue" points="806.939,-254.109 809.167,-243.751 800.966,-250.459 806.939,-254.109"/>
</g>
</g>
</svg>
