<?xml version="1.0" encoding="UTF-8" standalone="no"?>
<!DOCTYPE svg PUBLIC "-//W3C//DTD SVG 1.1//EN"
 "http://www.w3.org/Graphics/SVG/1.1/DTD/svg11.dtd">
<!-- Generated by graphviz version 2.38.0 (20140413.2041)
 -->
<!-- Title: Game/include/StageState.h Pages: 1 -->
<svg width="1139pt" height="420pt"
 viewBox="0.00 0.00 1139.26 420.00" xmlns="http://www.w3.org/2000/svg" xmlns:xlink="http://www.w3.org/1999/xlink">
<g id="graph0" class="graph" transform="scale(1 1) rotate(0) translate(4 416)">
<title>Game/include/StageState.h</title>
<polygon fill="white" stroke="none" points="-4,4 -4,-416 1135.26,-416 1135.26,4 -4,4"/>
<!-- Node1 -->
<g id="node1" class="node"><title>Node1</title>
<polygon fill="#bfbfbf" stroke="black" points="538.277,-392.5 538.277,-411.5 675.277,-411.5 675.277,-392.5 538.277,-392.5"/>
<text text-anchor="middle" x="606.777" y="-399.5" font-family="Helvetica,sans-Serif" font-size="10.00">Game/include/StageState.h</text>
</g>
<!-- Node2 -->
<g id="node2" class="node"><title>Node2</title>
<polygon fill="white" stroke="#bfbfbf" points="21.7775,-112.5 21.7775,-131.5 65.7775,-131.5 65.7775,-112.5 21.7775,-112.5"/>
<text text-anchor="middle" x="43.7775" y="-119.5" font-family="Helvetica,sans-Serif" font-size="10.00">vector</text>
</g>
<!-- Node1&#45;&gt;Node2 -->
<g id="edge1" class="edge"><title>Node1&#45;&gt;Node2</title>
<path fill="none" stroke="midnightblue" d="M538.257,-399.86C422.221,-397.075 192.467,-387.625 118.777,-356 84.0448,-341.094 71.4559,-333.917 54.7775,-300 29.0127,-247.605 35.3838,-175.706 40.418,-141.952"/>
<polygon fill="midnightblue" stroke="midnightblue" points="43.9349,-142.131 42.088,-131.698 37.026,-141.005 43.9349,-142.131"/>
</g>
<!-- Node3 -->
<g id="node3" class="node"><title>Node3</title>
<polygon fill="white" stroke="#bfbfbf" points="603.777,-112.5 603.777,-131.5 655.777,-131.5 655.777,-112.5 603.777,-112.5"/>
<text text-anchor="middle" x="629.777" y="-119.5" font-family="Helvetica,sans-Serif" font-size="10.00">memory</text>
</g>
<!-- Node1&#45;&gt;Node3 -->
<g id="edge2" class="edge"><title>Node1&#45;&gt;Node3</title>
<path fill="none" stroke="midnightblue" d="M616.917,-392.32C626.167,-383.897 639.604,-370.319 647.777,-356 662.762,-329.75 667.777,-321.225 667.777,-291 667.777,-291 667.777,-291 667.777,-233 667.777,-198.813 651.177,-161.764 639.92,-140.571"/>
<polygon fill="midnightblue" stroke="midnightblue" points="642.958,-138.832 635.061,-131.769 636.83,-142.215 642.958,-138.832"/>
</g>
<!-- Node4 -->
<g id="node4" class="node"><title>Node4</title>
<g id="a_node4"><a xlink:href="Sprite_8h.html" target="_top" xlink:title="Sprite.h">
<polygon fill="white" stroke="black" points="159.777,-168.5 159.777,-187.5 209.777,-187.5 209.777,-168.5 159.777,-168.5"/>
<text text-anchor="middle" x="184.777" y="-175.5" font-family="Helvetica,sans-Serif" font-size="10.00">Sprite.h</text>
</a>
</g>
</g>
<!-- Node1&#45;&gt;Node4 -->
<g id="edge3" class="edge"><title>Node1&#45;&gt;Node4</title>
<path fill="none" stroke="midnightblue" d="M565.848,-392.486C491.948,-375.39 334.403,-330.867 231.777,-244 215.887,-230.549 202.527,-210.641 194.162,-196.405"/>
<polygon fill="midnightblue" stroke="midnightblue" points="197.159,-194.595 189.198,-187.604 191.062,-198.034 197.159,-194.595"/>
</g>
<!-- Node6 -->
<g id="node6" class="node"><title>Node6</title>
<g id="a_node6"><a xlink:href="Gameobject_8h.html" target="_top" xlink:title="Gameobject.h">
<polygon fill="white" stroke="black" points="936.277,-112.5 936.277,-131.5 1013.28,-131.5 1013.28,-112.5 936.277,-112.5"/>
<text text-anchor="middle" x="974.777" y="-119.5" font-family="Helvetica,sans-Serif" font-size="10.00">Gameobject.h</text>
</a>
</g>
</g>
<!-- Node1&#45;&gt;Node6 -->
<g id="edge6" class="edge"><title>Node1&#45;&gt;Node6</title>
<path fill="none" stroke="midnightblue" d="M675.281,-400.791C817.318,-398.502 1130.78,-383.026 1130.78,-291 1130.78,-291 1130.78,-291 1130.78,-233 1130.78,-202.902 1132.71,-189.63 1111.78,-168 1088.65,-144.1 1052.64,-132.887 1023.34,-127.629"/>
<polygon fill="midnightblue" stroke="midnightblue" points="1023.72,-124.145 1013.29,-126.007 1022.6,-131.056 1023.72,-124.145"/>
</g>
<!-- Node10 -->
<g id="node10" class="node"><title>Node10</title>
<g id="a_node10"><a xlink:href="Tileset_8h.html" target="_top" xlink:title="Tileset.h">
<polygon fill="white" stroke="black" points="121.777,-224.5 121.777,-243.5 175.777,-243.5 175.777,-224.5 121.777,-224.5"/>
<text text-anchor="middle" x="148.777" y="-231.5" font-family="Helvetica,sans-Serif" font-size="10.00">Tileset.h</text>
</a>
</g>
</g>
<!-- Node1&#45;&gt;Node10 -->
<g id="edge11" class="edge"><title>Node1&#45;&gt;Node10</title>
<path fill="none" stroke="midnightblue" d="M538.015,-397.596C426.599,-391.49 216.337,-377.294 189.777,-356 158.585,-330.992 150.992,-281.213 149.229,-253.944"/>
<polygon fill="midnightblue" stroke="midnightblue" points="152.718,-253.609 148.779,-243.774 145.725,-253.919 152.718,-253.609"/>
</g>
<!-- Node11 -->
<g id="node11" class="node"><title>Node11</title>
<g id="a_node11"><a xlink:href="TileMap_8h.html" target="_top" xlink:title="TileMap.h">
<polygon fill="white" stroke="black" points="64.2775,-280.5 64.2775,-299.5 123.277,-299.5 123.277,-280.5 64.2775,-280.5"/>
<text text-anchor="middle" x="93.7775" y="-287.5" font-family="Helvetica,sans-Serif" font-size="10.00">TileMap.h</text>
</a>
</g>
</g>
<!-- Node1&#45;&gt;Node11 -->
<g id="edge14" class="edge"><title>Node1&#45;&gt;Node11</title>
<path fill="none" stroke="midnightblue" d="M538.134,-400.841C426.337,-399.511 210.768,-392.162 144.777,-356 125.379,-345.37 110.844,-323.958 102.353,-308.613"/>
<polygon fill="midnightblue" stroke="midnightblue" points="105.374,-306.837 97.6554,-299.579 99.1636,-310.066 105.374,-306.837"/>
</g>
<!-- Node12 -->
<g id="node12" class="node"><title>Node12</title>
<g id="a_node12"><a xlink:href="InputManager_8h.html" target="_top" xlink:title="InputManager.h">
<polygon fill="white" stroke="black" points="1018.78,-168.5 1018.78,-187.5 1102.78,-187.5 1102.78,-168.5 1018.78,-168.5"/>
<text text-anchor="middle" x="1060.78" y="-175.5" font-family="Helvetica,sans-Serif" font-size="10.00">InputManager.h</text>
</a>
</g>
</g>
<!-- Node1&#45;&gt;Node12 -->
<g id="edge19" class="edge"><title>Node1&#45;&gt;Node12</title>
<path fill="none" stroke="midnightblue" d="M675.571,-393.32C786.14,-379.709 996.689,-348.169 1052.78,-300 1079.45,-277.09 1080.06,-258.765 1074.78,-224 1073.41,-215.001 1070.59,-205.325 1067.83,-197.26"/>
<polygon fill="midnightblue" stroke="midnightblue" points="1071.09,-195.976 1064.38,-187.778 1064.51,-198.372 1071.09,-195.976"/>
</g>
<!-- Node13 -->
<g id="node13" class="node"><title>Node13</title>
<g id="a_node13"><a xlink:href="State_8h.html" target="_top" xlink:title="State.h">
<polygon fill="white" stroke="black" points="695.777,-168.5 695.777,-187.5 743.777,-187.5 743.777,-168.5 695.777,-168.5"/>
<text text-anchor="middle" x="719.777" y="-175.5" font-family="Helvetica,sans-Serif" font-size="10.00">State.h</text>
</a>
</g>
</g>
<!-- Node1&#45;&gt;Node13 -->
<g id="edge21" class="edge"><title>Node1&#45;&gt;Node13</title>
<path fill="none" stroke="midnightblue" d="M631.043,-392.458C647.834,-385.297 669.321,-373.414 681.777,-356 716.77,-307.081 720.681,-232.392 720.425,-197.796"/>
<polygon fill="midnightblue" stroke="midnightblue" points="723.923,-197.621 720.218,-187.695 716.924,-197.765 723.923,-197.621"/>
</g>
<!-- Node14 -->
<g id="node14" class="node"><title>Node14</title>
<g id="a_node14"><a xlink:href="Music_8h.html" target="_top" xlink:title="Music.h">
<polygon fill="white" stroke="black" points="516.277,-280.5 516.277,-299.5 567.277,-299.5 567.277,-280.5 516.277,-280.5"/>
<text text-anchor="middle" x="541.777" y="-287.5" font-family="Helvetica,sans-Serif" font-size="10.00">Music.h</text>
</a>
</g>
</g>
<!-- Node1&#45;&gt;Node14 -->
<g id="edge25" class="edge"><title>Node1&#45;&gt;Node14</title>
<path fill="none" stroke="midnightblue" d="M596.518,-392.289C587.131,-383.844 573.427,-370.251 564.777,-356 556.043,-341.61 549.965,-323.416 546.259,-309.939"/>
<polygon fill="midnightblue" stroke="midnightblue" points="549.565,-308.737 543.699,-299.915 542.783,-310.47 549.565,-308.737"/>
</g>
<!-- Node20 -->
<g id="node20" class="node"><title>Node20</title>
<g id="a_node20"><a xlink:href="EndState_8h.html" target="_top" xlink:title="EndState.h">
<polygon fill="white" stroke="black" points="574.277,-336.5 574.277,-355.5 639.277,-355.5 639.277,-336.5 574.277,-336.5"/>
<text text-anchor="middle" x="606.777" y="-343.5" font-family="Helvetica,sans-Serif" font-size="10.00">EndState.h</text>
</a>
</g>
</g>
<!-- Node1&#45;&gt;Node20 -->
<g id="edge34" class="edge"><title>Node1&#45;&gt;Node20</title>
<path fill="none" stroke="midnightblue" d="M601.611,-392.083C600.102,-384.927 599.671,-374.635 600.32,-365.691"/>
<polygon fill="midnightblue" stroke="midnightblue" points="603.793,-366.126 601.646,-355.751 596.854,-365.2 603.793,-366.126"/>
</g>
<!-- Node4&#45;&gt;Node3 -->
<g id="edge5" class="edge"><title>Node4&#45;&gt;Node3</title>
<path fill="none" stroke="midnightblue" d="M209.978,-173.942C284.89,-164.852 506.418,-137.97 593.776,-127.369"/>
<polygon fill="midnightblue" stroke="midnightblue" points="594.24,-130.838 603.745,-126.159 593.396,-123.889 594.24,-130.838"/>
</g>
<!-- Node5 -->
<g id="node5" class="node"><title>Node5</title>
<polygon fill="white" stroke="#bfbfbf" points="236.277,-56.5 236.277,-75.5 277.277,-75.5 277.277,-56.5 236.277,-56.5"/>
<text text-anchor="middle" x="256.777" y="-63.5" font-family="Helvetica,sans-Serif" font-size="10.00">string</text>
</g>
<!-- Node4&#45;&gt;Node5 -->
<g id="edge4" class="edge"><title>Node4&#45;&gt;Node5</title>
<path fill="none" stroke="midnightblue" d="M189.582,-168.431C196.711,-155.849 210.666,-131.728 223.777,-112 230.078,-102.519 237.547,-92.2617 243.785,-83.9375"/>
<polygon fill="midnightblue" stroke="midnightblue" points="246.707,-85.8764 249.956,-75.792 241.127,-81.6492 246.707,-85.8764"/>
</g>
<!-- Node6&#45;&gt;Node5 -->
<g id="edge10" class="edge"><title>Node6&#45;&gt;Node5</title>
<path fill="none" stroke="midnightblue" d="M936.175,-118.097C808.771,-108.515 403.225,-78.0142 287.737,-69.3284"/>
<polygon fill="midnightblue" stroke="midnightblue" points="287.72,-65.8173 277.485,-68.5574 287.195,-72.7976 287.72,-65.8173"/>
</g>
<!-- Node7 -->
<g id="node7" class="node"><title>Node7</title>
<g id="a_node7"><a xlink:href="Rect_8h.html" target="_top" xlink:title="Rect.h">
<polygon fill="white" stroke="black" points="904.777,-56.5 904.777,-75.5 950.777,-75.5 950.777,-56.5 904.777,-56.5"/>
<text text-anchor="middle" x="927.777" y="-63.5" font-family="Helvetica,sans-Serif" font-size="10.00">Rect.h</text>
</a>
</g>
</g>
<!-- Node6&#45;&gt;Node7 -->
<g id="edge7" class="edge"><title>Node6&#45;&gt;Node7</title>
<path fill="none" stroke="midnightblue" d="M967.016,-112.083C960.241,-104.298 950.234,-92.8015 942.022,-83.3665"/>
<polygon fill="midnightblue" stroke="midnightblue" points="944.6,-80.9963 935.394,-75.7511 939.319,-85.592 944.6,-80.9963"/>
</g>
<!-- Node8 -->
<g id="node8" class="node"><title>Node8</title>
<g id="a_node8"><a xlink:href="Vec2_8h.html" target="_top" xlink:title="Vec2.h">
<polygon fill="white" stroke="black" points="846.277,-0.5 846.277,-19.5 893.277,-19.5 893.277,-0.5 846.277,-0.5"/>
<text text-anchor="middle" x="869.777" y="-7.5" font-family="Helvetica,sans-Serif" font-size="10.00">Vec2.h</text>
</a>
</g>
</g>
<!-- Node7&#45;&gt;Node8 -->
<g id="edge8" class="edge"><title>Node7&#45;&gt;Node8</title>
<path fill="none" stroke="midnightblue" d="M918.459,-56.324C909.885,-48.3414 896.965,-36.3128 886.59,-26.6529"/>
<polygon fill="midnightblue" stroke="midnightblue" points="888.97,-24.0865 879.266,-19.8339 884.2,-29.2098 888.97,-24.0865"/>
</g>
<!-- Node9 -->
<g id="node9" class="node"><title>Node9</title>
<polygon fill="white" stroke="#bfbfbf" points="911.777,-0.5 911.777,-19.5 955.777,-19.5 955.777,-0.5 911.777,-0.5"/>
<text text-anchor="middle" x="933.777" y="-7.5" font-family="Helvetica,sans-Serif" font-size="10.00">cmath</text>
</g>
<!-- Node7&#45;&gt;Node9 -->
<g id="edge9" class="edge"><title>Node7&#45;&gt;Node9</title>
<path fill="none" stroke="midnightblue" d="M928.768,-56.083C929.563,-48.9272 930.707,-38.6353 931.701,-29.6911"/>
<polygon fill="midnightblue" stroke="midnightblue" points="935.179,-30.0765 932.805,-19.7511 928.222,-29.3034 935.179,-30.0765"/>
</g>
<!-- Node10&#45;&gt;Node4 -->
<g id="edge13" class="edge"><title>Node10&#45;&gt;Node4</title>
<path fill="none" stroke="midnightblue" d="M154.722,-224.083C159.755,-216.534 167.114,-205.495 173.291,-196.23"/>
<polygon fill="midnightblue" stroke="midnightblue" points="176.309,-198.013 178.943,-187.751 170.484,-194.13 176.309,-198.013"/>
</g>
<!-- Node10&#45;&gt;Node5 -->
<g id="edge12" class="edge"><title>Node10&#45;&gt;Node5</title>
<path fill="none" stroke="midnightblue" d="M147.047,-224.138C144.951,-211.189 142.63,-186.617 150.777,-168 167.824,-129.046 207.852,-97.8757 233.549,-80.9488"/>
<polygon fill="midnightblue" stroke="midnightblue" points="235.435,-83.8976 241.98,-75.5662 231.668,-77.9975 235.435,-83.8976"/>
</g>
<!-- Node11&#45;&gt;Node2 -->
<g id="edge16" class="edge"><title>Node11&#45;&gt;Node2</title>
<path fill="none" stroke="midnightblue" d="M91.0617,-280.383C88.2175,-271.333 83.6362,-256.68 79.7775,-244 68.706,-207.617 56.1039,-164.965 49.1326,-141.258"/>
<polygon fill="midnightblue" stroke="midnightblue" points="52.4488,-140.128 46.2726,-131.519 45.7324,-142.101 52.4488,-140.128"/>
</g>
<!-- Node11&#45;&gt;Node5 -->
<g id="edge15" class="edge"><title>Node11&#45;&gt;Node5</title>
<path fill="none" stroke="midnightblue" d="M95.288,-280.378C100.615,-252.377 121.015,-162.867 171.777,-112 187.203,-96.543 209.051,-85.1347 226.734,-77.6724"/>
<polygon fill="midnightblue" stroke="midnightblue" points="228.083,-80.9023 236.062,-73.9319 225.478,-74.4052 228.083,-80.9023"/>
</g>
<!-- Node11&#45;&gt;Node8 -->
<g id="edge18" class="edge"><title>Node11&#45;&gt;Node8</title>
<path fill="none" stroke="midnightblue" d="M83.5416,-280.137C53.2772,-252.879 -31.0025,-168.711 12.7775,-112 72.8552,-34.1781 129.765,-71.9452 226.777,-56 457.504,-18.077 739.948,-12.0813 835.98,-11.1584"/>
<polygon fill="midnightblue" stroke="midnightblue" points="836.268,-14.6562 846.239,-11.0728 836.21,-7.65646 836.268,-14.6562"/>
</g>
<!-- Node11&#45;&gt;Node10 -->
<g id="edge17" class="edge"><title>Node11&#45;&gt;Node10</title>
<path fill="none" stroke="midnightblue" d="M102.86,-280.083C110.949,-272.141 122.973,-260.335 132.688,-250.797"/>
<polygon fill="midnightblue" stroke="midnightblue" points="135.181,-253.254 139.864,-243.751 130.277,-248.26 135.181,-253.254"/>
</g>
<!-- Node12&#45;&gt;Node8 -->
<g id="edge20" class="edge"><title>Node12&#45;&gt;Node8</title>
<path fill="none" stroke="midnightblue" d="M1056.7,-168.483C1050.29,-155.547 1036.99,-130.498 1021.78,-112 998.19,-83.3224 990.442,-76.9392 959.777,-56 941.032,-43.1996 918.129,-31.8002 900.119,-23.6773"/>
<polygon fill="midnightblue" stroke="midnightblue" points="901.236,-20.3449 890.674,-19.5136 898.413,-26.7501 901.236,-20.3449"/>
</g>
<!-- Node13&#45;&gt;Node2 -->
<g id="edge23" class="edge"><title>Node13&#45;&gt;Node2</title>
<path fill="none" stroke="midnightblue" d="M695.536,-174.976C673.448,-173.137 639.924,-170.36 610.777,-168 407.164,-151.514 162.369,-132.287 75.9118,-125.514"/>
<polygon fill="midnightblue" stroke="midnightblue" points="76.1772,-122.024 65.9345,-124.733 75.6307,-129.003 76.1772,-122.024"/>
</g>
<!-- Node13&#45;&gt;Node3 -->
<g id="edge24" class="edge"><title>Node13&#45;&gt;Node3</title>
<path fill="none" stroke="midnightblue" d="M705.317,-168.324C691.278,-159.9 669.729,-146.971 653.234,-137.074"/>
<polygon fill="midnightblue" stroke="midnightblue" points="654.577,-133.798 644.202,-131.655 650.976,-139.801 654.577,-133.798"/>
</g>
<!-- Node13&#45;&gt;Node6 -->
<g id="edge22" class="edge"><title>Node13&#45;&gt;Node6</title>
<path fill="none" stroke="midnightblue" d="M743.881,-170.228C746.869,-169.447 749.889,-168.686 752.777,-168 812.057,-153.925 880.896,-140.404 926.012,-131.922"/>
<polygon fill="midnightblue" stroke="midnightblue" points="926.921,-135.313 936.107,-130.034 925.634,-128.432 926.921,-135.313"/>
</g>
<!-- Node14&#45;&gt;Node5 -->
<g id="edge26" class="edge"><title>Node14&#45;&gt;Node5</title>
<path fill="none" stroke="midnightblue" d="M516.224,-287.058C477.356,-283.267 401.874,-272.58 344.777,-244 288.656,-215.908 270.439,-193.667 258.777,-132 255.857,-116.556 255.521,-98.6861 255.823,-85.5965"/>
<polygon fill="midnightblue" stroke="midnightblue" points="259.324,-85.6298 256.203,-75.5051 252.329,-85.3663 259.324,-85.6298"/>
</g>
<!-- Node15 -->
<g id="node15" class="node"><title>Node15</title>
<g id="a_node15"><a xlink:href="Resources_8h.html" target="_top" xlink:title="Resources.h">
<polygon fill="white" stroke="black" points="353.777,-224.5 353.777,-243.5 425.777,-243.5 425.777,-224.5 353.777,-224.5"/>
<text text-anchor="middle" x="389.777" y="-231.5" font-family="Helvetica,sans-Serif" font-size="10.00">Resources.h</text>
</a>
</g>
</g>
<!-- Node14&#45;&gt;Node15 -->
<g id="edge27" class="edge"><title>Node14&#45;&gt;Node15</title>
<path fill="none" stroke="midnightblue" d="M517.693,-280.444C492.233,-271.399 451.884,-257.064 423.318,-246.916"/>
<polygon fill="midnightblue" stroke="midnightblue" points="424.344,-243.566 413.75,-243.516 422.001,-250.162 424.344,-243.566"/>
</g>
<!-- Node17 -->
<g id="node17" class="node"><title>Node17</title>
<g id="a_node17"><a xlink:href="Error_8h.html" target="_top" xlink:title="Error.h">
<polygon fill="white" stroke="black" points="535.777,-224.5 535.777,-243.5 581.777,-243.5 581.777,-224.5 535.777,-224.5"/>
<text text-anchor="middle" x="558.777" y="-231.5" font-family="Helvetica,sans-Serif" font-size="10.00">Error.h</text>
</a>
</g>
</g>
<!-- Node14&#45;&gt;Node17 -->
<g id="edge31" class="edge"><title>Node14&#45;&gt;Node17</title>
<path fill="none" stroke="midnightblue" d="M544.585,-280.083C546.862,-272.849 550.149,-262.409 552.986,-253.397"/>
<polygon fill="midnightblue" stroke="midnightblue" points="556.358,-254.341 556.022,-243.751 549.681,-252.239 556.358,-254.341"/>
</g>
<!-- Node15&#45;&gt;Node3 -->
<g id="edge30" class="edge"><title>Node15&#45;&gt;Node3</title>
<path fill="none" stroke="midnightblue" d="M398.662,-224.099C413.025,-210.188 442.779,-183.304 472.777,-168 511.75,-148.117 560.779,-135.854 593.583,-129.249"/>
<polygon fill="midnightblue" stroke="midnightblue" points="594.48,-132.641 603.631,-127.301 593.147,-125.769 594.48,-132.641"/>
</g>
<!-- Node15&#45;&gt;Node5 -->
<g id="edge28" class="edge"><title>Node15&#45;&gt;Node5</title>
<path fill="none" stroke="midnightblue" d="M356.097,-224.496C335.735,-217.737 310.716,-206.306 294.777,-188 269.085,-158.49 260.751,-111.645 258.057,-85.751"/>
<polygon fill="midnightblue" stroke="midnightblue" points="261.541,-85.4174 257.193,-75.7558 254.567,-86.02 261.541,-85.4174"/>
</g>
<!-- Node16 -->
<g id="node16" class="node"><title>Node16</title>
<polygon fill="white" stroke="#bfbfbf" points="304.277,-168.5 304.277,-187.5 387.277,-187.5 387.277,-168.5 304.277,-168.5"/>
<text text-anchor="middle" x="345.777" y="-175.5" font-family="Helvetica,sans-Serif" font-size="10.00">unordered_map</text>
</g>
<!-- Node15&#45;&gt;Node16 -->
<g id="edge29" class="edge"><title>Node15&#45;&gt;Node16</title>
<path fill="none" stroke="midnightblue" d="M382.512,-224.083C376.233,-216.377 366.99,-205.033 359.347,-195.653"/>
<polygon fill="midnightblue" stroke="midnightblue" points="361.938,-193.293 352.908,-187.751 356.511,-197.714 361.938,-193.293"/>
</g>
<!-- Node18 -->
<g id="node18" class="node"><title>Node18</title>
<polygon fill="white" stroke="#bfbfbf" points="547.777,-168.5 547.777,-187.5 601.777,-187.5 601.777,-168.5 547.777,-168.5"/>
<text text-anchor="middle" x="574.777" y="-175.5" font-family="Helvetica,sans-Serif" font-size="10.00">iostream</text>
</g>
<!-- Node17&#45;&gt;Node18 -->
<g id="edge32" class="edge"><title>Node17&#45;&gt;Node18</title>
<path fill="none" stroke="midnightblue" d="M561.42,-224.083C563.563,-216.849 566.656,-206.409 569.327,-197.397"/>
<polygon fill="midnightblue" stroke="midnightblue" points="572.699,-198.333 572.185,-187.751 565.988,-196.345 572.699,-198.333"/>
</g>
<!-- Node19 -->
<g id="node19" class="node"><title>Node19</title>
<polygon fill="white" stroke="#bfbfbf" points="481.777,-168.5 481.777,-187.5 529.777,-187.5 529.777,-168.5 481.777,-168.5"/>
<text text-anchor="middle" x="505.777" y="-175.5" font-family="Helvetica,sans-Serif" font-size="10.00">stdlib.h</text>
</g>
<!-- Node17&#45;&gt;Node19 -->
<g id="edge33" class="edge"><title>Node17&#45;&gt;Node19</title>
<path fill="none" stroke="midnightblue" d="M550.026,-224.083C542.308,-216.22 530.873,-204.569 521.561,-195.081"/>
<polygon fill="midnightblue" stroke="midnightblue" points="523.869,-192.436 514.366,-187.751 518.873,-197.34 523.869,-192.436"/>
</g>
<!-- Node20&#45;&gt;Node1 -->
<g id="edge54" class="edge"><title>Node20&#45;&gt;Node1</title>
<path fill="none" stroke="midnightblue" d="M611.908,-355.751C613.435,-362.858 613.882,-373.136 613.25,-382.101"/>
<polygon fill="midnightblue" stroke="midnightblue" points="609.771,-381.713 611.944,-392.083 616.712,-382.622 609.771,-381.713"/>
</g>
<!-- Node20&#45;&gt;Node4 -->
<g id="edge36" class="edge"><title>Node20&#45;&gt;Node4</title>
<path fill="none" stroke="midnightblue" d="M574.17,-339.698C511.56,-328.599 371.361,-299.25 265.777,-244 240.976,-231.022 216.466,-209.879 201.015,-195.248"/>
<polygon fill="midnightblue" stroke="midnightblue" points="203.035,-192.331 193.42,-187.882 198.162,-197.357 203.035,-192.331"/>
</g>
<!-- Node20&#45;&gt;Node6 -->
<g id="edge35" class="edge"><title>Node20&#45;&gt;Node6</title>
<path fill="none" stroke="midnightblue" d="M639.707,-345.725C698.953,-345.879 826.406,-340.904 923.777,-300 961.478,-284.163 978.689,-280.673 996.777,-244 1013.47,-210.154 996.626,-165.365 984.597,-140.878"/>
<polygon fill="midnightblue" stroke="midnightblue" points="987.557,-138.984 979.848,-131.717 981.343,-142.206 987.557,-138.984"/>
</g>
<!-- Node20&#45;&gt;Node12 -->
<g id="edge53" class="edge"><title>Node20&#45;&gt;Node12</title>
<path fill="none" stroke="midnightblue" d="M639.415,-343.666C733.662,-339.522 1001.41,-325.591 1030.78,-300 1060.19,-274.372 1063.06,-224.847 1062.18,-197.781"/>
<polygon fill="midnightblue" stroke="midnightblue" points="1065.67,-197.491 1061.64,-187.692 1058.68,-197.865 1065.67,-197.491"/>
</g>
<!-- Node20&#45;&gt;Node14 -->
<g id="edge37" class="edge"><title>Node20&#45;&gt;Node14</title>
<path fill="none" stroke="midnightblue" d="M596.334,-336.324C586.631,-328.263 571.962,-316.077 560.278,-306.369"/>
<polygon fill="midnightblue" stroke="midnightblue" points="562.339,-303.532 552.411,-299.834 557.866,-308.916 562.339,-303.532"/>
</g>
<!-- Node21 -->
<g id="node21" class="node"><title>Node21</title>
<g id="a_node21"><a xlink:href="Text_8h.html" target="_top" xlink:title="Text.h">
<polygon fill="white" stroke="black" points="585.777,-280.5 585.777,-299.5 629.777,-299.5 629.777,-280.5 585.777,-280.5"/>
<text text-anchor="middle" x="607.777" y="-287.5" font-family="Helvetica,sans-Serif" font-size="10.00">Text.h</text>
</a>
</g>
</g>
<!-- Node20&#45;&gt;Node21 -->
<g id="edge38" class="edge"><title>Node20&#45;&gt;Node21</title>
<path fill="none" stroke="midnightblue" d="M606.943,-336.083C607.074,-329.006 607.262,-318.861 607.426,-309.986"/>
<polygon fill="midnightblue" stroke="midnightblue" points="610.93,-309.814 607.615,-299.751 603.931,-309.685 610.93,-309.814"/>
</g>
<!-- Node24 -->
<g id="node24" class="node"><title>Node24</title>
<g id="a_node24"><a xlink:href="EndStateData_8h.html" target="_top" xlink:title="EndStateData.h">
<polygon fill="white" stroke="black" points="828.777,-280.5 828.777,-299.5 914.777,-299.5 914.777,-280.5 828.777,-280.5"/>
<text text-anchor="middle" x="871.777" y="-287.5" font-family="Helvetica,sans-Serif" font-size="10.00">EndStateData.h</text>
</a>
</g>
</g>
<!-- Node20&#45;&gt;Node24 -->
<g id="edge50" class="edge"><title>Node20&#45;&gt;Node24</title>
<path fill="none" stroke="midnightblue" d="M639.537,-338.324C684.68,-329.126 766.485,-312.456 819.966,-301.558"/>
<polygon fill="midnightblue" stroke="midnightblue" points="820.837,-304.952 829.937,-299.526 819.439,-298.093 820.837,-304.952"/>
</g>
<!-- Node21&#45;&gt;Node3 -->
<g id="edge40" class="edge"><title>Node21&#45;&gt;Node3</title>
<path fill="none" stroke="midnightblue" d="M608.96,-280.075C612.423,-253.945 622.593,-177.211 627.315,-141.577"/>
<polygon fill="midnightblue" stroke="midnightblue" points="630.798,-141.941 628.642,-131.568 623.858,-141.022 630.798,-141.941"/>
</g>
<!-- Node21&#45;&gt;Node5 -->
<g id="edge41" class="edge"><title>Node21&#45;&gt;Node5</title>
<path fill="none" stroke="midnightblue" d="M591.442,-280.379C574.939,-271.564 548.805,-257.315 526.777,-244 431.865,-186.63 322.372,-112.204 277.539,-81.3609"/>
<polygon fill="midnightblue" stroke="midnightblue" points="279.44,-78.42 269.22,-75.6267 275.467,-84.1836 279.44,-78.42"/>
</g>
<!-- Node21&#45;&gt;Node7 -->
<g id="edge39" class="edge"><title>Node21&#45;&gt;Node7</title>
<path fill="none" stroke="midnightblue" d="M629.867,-287.639C666.27,-284.561 740.165,-274.73 793.777,-244 859.515,-206.319 903.312,-122.128 920.099,-85.0833"/>
<polygon fill="midnightblue" stroke="midnightblue" points="923.456,-86.1443 924.275,-75.5812 917.047,-83.3275 923.456,-86.1443"/>
</g>
<!-- Node21&#45;&gt;Node15 -->
<g id="edge42" class="edge"><title>Node21&#45;&gt;Node15</title>
<path fill="none" stroke="midnightblue" d="M585.773,-282.696C582.429,-281.772 579.016,-280.847 575.777,-280 528.328,-267.592 473.753,-254.531 436.048,-245.695"/>
<polygon fill="midnightblue" stroke="midnightblue" points="436.415,-242.187 425.881,-243.32 434.822,-249.003 436.415,-242.187"/>
</g>
<!-- Node21&#45;&gt;Node17 -->
<g id="edge49" class="edge"><title>Node21&#45;&gt;Node17</title>
<path fill="none" stroke="midnightblue" d="M599.686,-280.083C592.622,-272.298 582.19,-260.801 573.629,-251.367"/>
<polygon fill="midnightblue" stroke="midnightblue" points="576.03,-248.805 566.718,-243.751 570.846,-253.509 576.03,-248.805"/>
</g>
<!-- Node22 -->
<g id="node22" class="node"><title>Node22</title>
<g id="a_node22"><a xlink:href="Game_8h.html" target="_top" xlink:title="Game.h">
<polygon fill="white" stroke="black" points="734.277,-224.5 734.277,-243.5 785.277,-243.5 785.277,-224.5 734.277,-224.5"/>
<text text-anchor="middle" x="759.777" y="-231.5" font-family="Helvetica,sans-Serif" font-size="10.00">Game.h</text>
</a>
</g>
</g>
<!-- Node21&#45;&gt;Node22 -->
<g id="edge43" class="edge"><title>Node21&#45;&gt;Node22</title>
<path fill="none" stroke="midnightblue" d="M629.88,-281.148C655.179,-272.16 696.896,-257.339 726.213,-246.924"/>
<polygon fill="midnightblue" stroke="midnightblue" points="727.388,-250.221 735.639,-243.576 725.044,-243.625 727.388,-250.221"/>
</g>
<!-- Node22&#45;&gt;Node5 -->
<g id="edge44" class="edge"><title>Node22&#45;&gt;Node5</title>
<path fill="none" stroke="midnightblue" d="M775.383,-224.473C795.533,-212.332 826.374,-189.181 811.777,-168 751.534,-80.5828 395.27,-68.7916 287.588,-67.2302"/>
<polygon fill="midnightblue" stroke="midnightblue" points="287.438,-63.7282 277.395,-67.1029 287.351,-70.7276 287.438,-63.7282"/>
</g>
<!-- Node22&#45;&gt;Node8 -->
<g id="edge48" class="edge"><title>Node22&#45;&gt;Node8</title>
<path fill="none" stroke="midnightblue" d="M780.415,-224.448C795.771,-217.031 816.025,-204.83 827.777,-188 862.38,-138.447 868.719,-64.0715 869.715,-29.6743"/>
<polygon fill="midnightblue" stroke="midnightblue" points="873.215,-29.692 869.881,-19.6355 866.216,-29.5763 873.215,-29.692"/>
</g>
<!-- Node22&#45;&gt;Node12 -->
<g id="edge47" class="edge"><title>Node22&#45;&gt;Node12</title>
<path fill="none" stroke="midnightblue" d="M785.441,-228.396C834.697,-219.559 943.37,-200.063 1008.49,-188.38"/>
<polygon fill="midnightblue" stroke="midnightblue" points="1009.33,-191.786 1018.55,-186.575 1008.09,-184.896 1009.33,-191.786"/>
</g>
<!-- Node22&#45;&gt;Node13 -->
<g id="edge46" class="edge"><title>Node22&#45;&gt;Node13</title>
<path fill="none" stroke="midnightblue" d="M753.172,-224.083C747.522,-216.455 739.233,-205.264 732.326,-195.941"/>
<polygon fill="midnightblue" stroke="midnightblue" points="735.025,-193.703 726.26,-187.751 729.4,-197.87 735.025,-193.703"/>
</g>
<!-- Node23 -->
<g id="node23" class="node"><title>Node23</title>
<polygon fill="white" stroke="#bfbfbf" points="762.277,-168.5 762.277,-187.5 803.277,-187.5 803.277,-168.5 762.277,-168.5"/>
<text text-anchor="middle" x="782.777" y="-175.5" font-family="Helvetica,sans-Serif" font-size="10.00">stack</text>
</g>
<!-- Node22&#45;&gt;Node23 -->
<g id="edge45" class="edge"><title>Node22&#45;&gt;Node23</title>
<path fill="none" stroke="midnightblue" d="M763.575,-224.083C766.69,-216.77 771.2,-206.181 775.067,-197.103"/>
<polygon fill="midnightblue" stroke="midnightblue" points="778.352,-198.323 779.05,-187.751 771.911,-195.58 778.352,-198.323"/>
</g>
<!-- Node25 -->
<g id="node25" class="node"><title>Node25</title>
<g id="a_node25"><a xlink:href="StateData_8h.html" target="_top" xlink:title="StateData.h">
<polygon fill="white" stroke="black" points="919.277,-224.5 919.277,-243.5 988.277,-243.5 988.277,-224.5 919.277,-224.5"/>
<text text-anchor="middle" x="953.777" y="-231.5" font-family="Helvetica,sans-Serif" font-size="10.00">StateData.h</text>
</a>
</g>
</g>
<!-- Node24&#45;&gt;Node25 -->
<g id="edge51" class="edge"><title>Node24&#45;&gt;Node25</title>
<path fill="none" stroke="midnightblue" d="M884.952,-280.324C897.624,-271.979 917.011,-259.212 931.983,-249.352"/>
<polygon fill="midnightblue" stroke="midnightblue" points="934.209,-252.078 940.635,-243.655 930.359,-246.231 934.209,-252.078"/>
</g>
<!-- Node26 -->
<g id="node26" class="node"><title>Node26</title>
<g id="a_node26"><a xlink:href="Defines_8h.html" target="_top" xlink:title="Defines.h">
<polygon fill="white" stroke="black" points="842.277,-224.5 842.277,-243.5 901.277,-243.5 901.277,-224.5 842.277,-224.5"/>
<text text-anchor="middle" x="871.777" y="-231.5" font-family="Helvetica,sans-Serif" font-size="10.00">Defines.h</text>
</a>
</g>
</g>
<!-- Node24&#45;&gt;Node26 -->
<g id="edge52" class="edge"><title>Node24&#45;&gt;Node26</title>
<path fill="none" stroke="midnightblue" d="M871.777,-280.083C871.777,-273.006 871.777,-262.861 871.777,-253.986"/>
<polygon fill="midnightblue" stroke="midnightblue" points="875.278,-253.751 871.777,-243.751 868.278,-253.751 875.278,-253.751"/>
</g>
</g>
</svg>
