<?xml version="1.0" encoding="UTF-8" standalone="no"?>
<!DOCTYPE svg PUBLIC "-//W3C//DTD SVG 1.1//EN"
 "http://www.w3.org/Graphics/SVG/1.1/DTD/svg11.dtd">
<!-- Generated by graphviz version 2.38.0 (20140413.2041)
 -->
<!-- Title: Game/src/StageState.cpp Pages: 1 -->
<svg width="1403pt" height="476pt"
 viewBox="0.00 0.00 1403.00 476.00" xmlns="http://www.w3.org/2000/svg" xmlns:xlink="http://www.w3.org/1999/xlink">
<g id="graph0" class="graph" transform="scale(1 1) rotate(0) translate(4 472)">
<title>Game/src/StageState.cpp</title>
<polygon fill="white" stroke="none" points="-4,4 -4,-472 1399,-472 1399,4 -4,4"/>
<!-- Node0 -->
<g id="node1" class="node"><title>Node0</title>
<polygon fill="#bfbfbf" stroke="black" points="923,-448.5 923,-467.5 1053,-467.5 1053,-448.5 923,-448.5"/>
<text text-anchor="middle" x="988" y="-455.5" font-family="Helvetica,sans-Serif" font-size="10.00">Game/src/StageState.cpp</text>
</g>
<!-- Node1 -->
<g id="node2" class="node"><title>Node1</title>
<g id="a_node2"><a xlink:href="StageState_8h.html" target="_top" xlink:title="StageState.h">
<polygon fill="white" stroke="black" points="630,-392.5 630,-411.5 704,-411.5 704,-392.5 630,-392.5"/>
<text text-anchor="middle" x="667" y="-399.5" font-family="Helvetica,sans-Serif" font-size="10.00">StageState.h</text>
</a>
</g>
</g>
<!-- Node0&#45;&gt;Node1 -->
<g id="edge1" class="edge"><title>Node0&#45;&gt;Node1</title>
<path fill="none" stroke="midnightblue" d="M937.137,-448.444C875.805,-438.126 773.56,-420.926 714.006,-410.908"/>
<polygon fill="midnightblue" stroke="midnightblue" points="714.558,-407.451 704.116,-409.244 713.396,-414.354 714.558,-407.451"/>
</g>
<!-- Node20 -->
<g id="node21" class="node"><title>Node20</title>
<g id="a_node21"><a xlink:href="Error_8h.html" target="_top" xlink:title="Error.h">
<polygon fill="white" stroke="black" points="625,-224.5 625,-243.5 671,-243.5 671,-224.5 625,-224.5"/>
<text text-anchor="middle" x="648" y="-231.5" font-family="Helvetica,sans-Serif" font-size="10.00">Error.h</text>
</a>
</g>
</g>
<!-- Node0&#45;&gt;Node20 -->
<g id="edge67" class="edge"><title>Node0&#45;&gt;Node20</title>
<path fill="none" stroke="midnightblue" d="M974.672,-448.297C922.832,-414.449 734.328,-291.367 669.823,-249.249"/>
<polygon fill="midnightblue" stroke="midnightblue" points="671.523,-246.179 661.236,-243.643 667.696,-252.04 671.523,-246.179"/>
</g>
<!-- Node26 -->
<g id="node27" class="node"><title>Node26</title>
<g id="a_node27"><a xlink:href="Game_8h.html" target="_top" xlink:title="Game.h">
<polygon fill="white" stroke="black" points="212.5,-224.5 212.5,-243.5 263.5,-243.5 263.5,-224.5 212.5,-224.5"/>
<text text-anchor="middle" x="238" y="-231.5" font-family="Helvetica,sans-Serif" font-size="10.00">Game.h</text>
</a>
</g>
</g>
<!-- Node0&#45;&gt;Node26 -->
<g id="edge66" class="edge"><title>Node0&#45;&gt;Node26</title>
<path fill="none" stroke="midnightblue" d="M922.863,-451.678C783.847,-439.479 462.958,-406.593 367,-356 316.729,-329.495 271.721,-278.071 250.642,-251.612"/>
<polygon fill="midnightblue" stroke="midnightblue" points="253.351,-249.395 244.437,-243.668 247.834,-253.704 253.351,-249.395"/>
</g>
<!-- Node28 -->
<g id="node29" class="node"><title>Node28</title>
<g id="a_node29"><a xlink:href="EndStateData_8h.html" target="_top" xlink:title="EndStateData.h">
<polygon fill="white" stroke="black" points="1046,-280.5 1046,-299.5 1132,-299.5 1132,-280.5 1046,-280.5"/>
<text text-anchor="middle" x="1089" y="-287.5" font-family="Helvetica,sans-Serif" font-size="10.00">EndStateData.h</text>
</a>
</g>
</g>
<!-- Node0&#45;&gt;Node28 -->
<g id="edge76" class="edge"><title>Node0&#45;&gt;Node28</title>
<path fill="none" stroke="midnightblue" d="M993.43,-448.075C1009.53,-421.606 1057.23,-343.209 1078.53,-308.21"/>
<polygon fill="midnightblue" stroke="midnightblue" points="1081.58,-309.93 1083.79,-299.568 1075.6,-306.292 1081.58,-309.93"/>
</g>
<!-- Node31 -->
<g id="node32" class="node"><title>Node31</title>
<g id="a_node32"><a xlink:href="Camera_8h.html" target="_top" xlink:title="Camera.h">
<polygon fill="white" stroke="black" points="20.5,-280.5 20.5,-299.5 79.5,-299.5 79.5,-280.5 20.5,-280.5"/>
<text text-anchor="middle" x="50" y="-287.5" font-family="Helvetica,sans-Serif" font-size="10.00">Camera.h</text>
</a>
</g>
</g>
<!-- Node0&#45;&gt;Node31 -->
<g id="edge68" class="edge"><title>Node0&#45;&gt;Node31</title>
<path fill="none" stroke="midnightblue" d="M922.991,-455.437C747.717,-450.915 274.121,-436.556 208,-412 146.947,-389.326 90.1397,-334.44 64.4274,-307.072"/>
<polygon fill="midnightblue" stroke="midnightblue" points="66.8261,-304.51 57.4757,-299.528 61.6785,-309.253 66.8261,-304.51"/>
</g>
<!-- Node32 -->
<g id="node33" class="node"><title>Node32</title>
<g id="a_node33"><a xlink:href="Collision_8h.html" target="_top" xlink:title="Collision.h">
<polygon fill="white" stroke="black" points="1333,-112.5 1333,-131.5 1395,-131.5 1395,-112.5 1333,-112.5"/>
<text text-anchor="middle" x="1364" y="-119.5" font-family="Helvetica,sans-Serif" font-size="10.00">Collision.h</text>
</a>
</g>
</g>
<!-- Node0&#45;&gt;Node32 -->
<g id="edge72" class="edge"><title>Node0&#45;&gt;Node32</title>
<path fill="none" stroke="midnightblue" d="M1053.25,-450.821C1158.24,-439.052 1353,-408.881 1353,-347 1353,-347 1353,-347 1353,-233 1353,-200.788 1357.73,-163.532 1360.98,-141.692"/>
<polygon fill="midnightblue" stroke="midnightblue" points="1364.49,-141.947 1362.56,-131.529 1357.57,-140.874 1364.49,-141.947"/>
</g>
<!-- Node34 -->
<g id="node35" class="node"><title>Node34</title>
<g id="a_node35"><a xlink:href="Face_8h.html" target="_top" xlink:title="Face.h">
<polygon fill="white" stroke="black" points="1173.5,-280.5 1173.5,-299.5 1220.5,-299.5 1220.5,-280.5 1173.5,-280.5"/>
<text text-anchor="middle" x="1197" y="-287.5" font-family="Helvetica,sans-Serif" font-size="10.00">Face.h</text>
</a>
</g>
</g>
<!-- Node0&#45;&gt;Node34 -->
<g id="edge77" class="edge"><title>Node0&#45;&gt;Node34</title>
<path fill="none" stroke="midnightblue" d="M998.942,-448.309C1032.73,-421.472 1135.69,-339.694 1178.27,-305.878"/>
<polygon fill="midnightblue" stroke="midnightblue" points="1180.51,-308.565 1186.17,-299.605 1176.16,-303.084 1180.51,-308.565"/>
</g>
<!-- Node2 -->
<g id="node3" class="node"><title>Node2</title>
<polygon fill="white" stroke="#bfbfbf" points="1082,-56.5 1082,-75.5 1126,-75.5 1126,-56.5 1082,-56.5"/>
<text text-anchor="middle" x="1104" y="-63.5" font-family="Helvetica,sans-Serif" font-size="10.00">vector</text>
</g>
<!-- Node1&#45;&gt;Node2 -->
<g id="edge2" class="edge"><title>Node1&#45;&gt;Node2</title>
<path fill="none" stroke="midnightblue" d="M704.313,-400.241C818.802,-397.05 1161.43,-380.797 1229,-300 1289.7,-227.416 1171.62,-120.663 1123.3,-81.821"/>
<polygon fill="midnightblue" stroke="midnightblue" points="1125.42,-79.0361 1115.4,-75.5812 1121.08,-84.5279 1125.42,-79.0361"/>
</g>
<!-- Node3 -->
<g id="node4" class="node"><title>Node3</title>
<polygon fill="white" stroke="#bfbfbf" points="781,-56.5 781,-75.5 833,-75.5 833,-56.5 781,-56.5"/>
<text text-anchor="middle" x="807" y="-63.5" font-family="Helvetica,sans-Serif" font-size="10.00">memory</text>
</g>
<!-- Node1&#45;&gt;Node3 -->
<g id="edge3" class="edge"><title>Node1&#45;&gt;Node3</title>
<path fill="none" stroke="midnightblue" d="M688.995,-392.465C705.11,-385.123 726.305,-373.012 739,-356 742.861,-350.826 799.838,-138.351 801,-132 803.809,-116.653 805.332,-99.0141 806.14,-85.9869"/>
<polygon fill="midnightblue" stroke="midnightblue" points="809.64,-86.0722 806.68,-75.8994 802.65,-85.6979 809.64,-86.0722"/>
</g>
<!-- Node4 -->
<g id="node5" class="node"><title>Node4</title>
<g id="a_node5"><a xlink:href="Sprite_8h.html" target="_top" xlink:title="Sprite.h">
<polygon fill="white" stroke="black" points="558,-112.5 558,-131.5 608,-131.5 608,-112.5 558,-112.5"/>
<text text-anchor="middle" x="583" y="-119.5" font-family="Helvetica,sans-Serif" font-size="10.00">Sprite.h</text>
</a>
</g>
</g>
<!-- Node1&#45;&gt;Node4 -->
<g id="edge4" class="edge"><title>Node1&#45;&gt;Node4</title>
<path fill="none" stroke="midnightblue" d="M633.337,-392.483C589.112,-379.036 517,-348.321 517,-291 517,-291 517,-291 517,-233 517,-194.857 546.54,-158.517 566.094,-138.64"/>
<polygon fill="midnightblue" stroke="midnightblue" points="568.561,-141.123 573.261,-131.628 563.666,-136.119 568.561,-141.123"/>
</g>
<!-- Node6 -->
<g id="node7" class="node"><title>Node6</title>
<g id="a_node7"><a xlink:href="GameObject_8h.html" target="_top" xlink:title="GameObject.h">
<polygon fill="white" stroke="black" points="990,-112.5 990,-131.5 1070,-131.5 1070,-112.5 990,-112.5"/>
<text text-anchor="middle" x="1030" y="-119.5" font-family="Helvetica,sans-Serif" font-size="10.00">GameObject.h</text>
</a>
</g>
</g>
<!-- Node1&#45;&gt;Node6 -->
<g id="edge7" class="edge"><title>Node1&#45;&gt;Node6</title>
<path fill="none" stroke="midnightblue" d="M704.032,-394.321C736.563,-387.534 784.565,-375.25 823,-356 836.829,-349.074 1038.11,-201.849 1045,-188 1052.4,-173.126 1046.8,-154.514 1040.44,-141.022"/>
<polygon fill="midnightblue" stroke="midnightblue" points="1043.38,-139.084 1035.64,-131.85 1037.18,-142.332 1043.38,-139.084"/>
</g>
<!-- Node11 -->
<g id="node12" class="node"><title>Node11</title>
<g id="a_node12"><a xlink:href="Tileset_8h.html" target="_top" xlink:title="Tileset.h">
<polygon fill="white" stroke="black" points="435,-168.5 435,-187.5 489,-187.5 489,-168.5 435,-168.5"/>
<text text-anchor="middle" x="462" y="-175.5" font-family="Helvetica,sans-Serif" font-size="10.00">Tileset.h</text>
</a>
</g>
</g>
<!-- Node1&#45;&gt;Node11 -->
<g id="edge16" class="edge"><title>Node1&#45;&gt;Node11</title>
<path fill="none" stroke="midnightblue" d="M629.96,-401.188C592.657,-399.296 536.032,-390.387 503,-356 460.804,-312.074 458.937,-233.707 460.567,-197.849"/>
<polygon fill="midnightblue" stroke="midnightblue" points="464.065,-197.991 461.173,-187.799 457.078,-197.57 464.065,-197.991"/>
</g>
<!-- Node12 -->
<g id="node13" class="node"><title>Node12</title>
<g id="a_node13"><a xlink:href="TileMap_8h.html" target="_top" xlink:title="TileMap.h">
<polygon fill="white" stroke="black" points="786.5,-224.5 786.5,-243.5 845.5,-243.5 845.5,-224.5 786.5,-224.5"/>
<text text-anchor="middle" x="816" y="-231.5" font-family="Helvetica,sans-Serif" font-size="10.00">TileMap.h</text>
</a>
</g>
</g>
<!-- Node1&#45;&gt;Node12 -->
<g id="edge19" class="edge"><title>Node1&#45;&gt;Node12</title>
<path fill="none" stroke="midnightblue" d="M704.128,-393.018C726.454,-386.479 753.947,-375.096 772,-356 799.422,-326.994 809.997,-279.578 813.885,-253.55"/>
<polygon fill="midnightblue" stroke="midnightblue" points="817.369,-253.9 815.205,-243.529 810.429,-252.986 817.369,-253.9"/>
</g>
<!-- Node13 -->
<g id="node14" class="node"><title>Node13</title>
<g id="a_node14"><a xlink:href="InputManager_8h.html" target="_top" xlink:title="InputManager.h">
<polygon fill="white" stroke="black" points="31,-168.5 31,-187.5 115,-187.5 115,-168.5 31,-168.5"/>
<text text-anchor="middle" x="73" y="-175.5" font-family="Helvetica,sans-Serif" font-size="10.00">InputManager.h</text>
</a>
</g>
</g>
<!-- Node1&#45;&gt;Node13 -->
<g id="edge25" class="edge"><title>Node1&#45;&gt;Node13</title>
<path fill="none" stroke="midnightblue" d="M629.556,-399.533C571.811,-396.358 458.163,-386.456 367,-356 267.787,-322.855 248.133,-300.342 160,-244 135.38,-228.261 108.683,-207.755 91.4478,-194.023"/>
<polygon fill="midnightblue" stroke="midnightblue" points="93.3454,-191.058 83.3584,-187.521 88.9598,-196.514 93.3454,-191.058"/>
</g>
<!-- Node16 -->
<g id="node17" class="node"><title>Node16</title>
<g id="a_node17"><a xlink:href="ActionManager_8h.html" target="_top" xlink:title="ActionManager.h">
<polygon fill="white" stroke="black" points="28,-224.5 28,-243.5 118,-243.5 118,-224.5 28,-224.5"/>
<text text-anchor="middle" x="73" y="-231.5" font-family="Helvetica,sans-Serif" font-size="10.00">ActionManager.h</text>
</a>
</g>
</g>
<!-- Node1&#45;&gt;Node16 -->
<g id="edge29" class="edge"><title>Node1&#45;&gt;Node16</title>
<path fill="none" stroke="midnightblue" d="M629.849,-401.335C555.449,-401.075 383.518,-395.774 246,-356 191.773,-340.316 177.103,-333.945 132,-300 113.621,-286.167 96.4041,-266.05 85.3684,-251.868"/>
<polygon fill="midnightblue" stroke="midnightblue" points="87.8845,-249.393 79.0589,-243.531 82.3028,-253.617 87.8845,-249.393"/>
</g>
<!-- Node17 -->
<g id="node18" class="node"><title>Node17</title>
<g id="a_node18"><a xlink:href="State_8h.html" target="_top" xlink:title="State.h">
<polygon fill="white" stroke="black" points="949,-168.5 949,-187.5 997,-187.5 997,-168.5 949,-168.5"/>
<text text-anchor="middle" x="973" y="-175.5" font-family="Helvetica,sans-Serif" font-size="10.00">State.h</text>
</a>
</g>
</g>
<!-- Node1&#45;&gt;Node17 -->
<g id="edge31" class="edge"><title>Node1&#45;&gt;Node17</title>
<path fill="none" stroke="midnightblue" d="M704.225,-392.449C730.622,-385.311 766.157,-373.462 794,-356 866.733,-310.384 933.245,-230.55 960.254,-195.874"/>
<polygon fill="midnightblue" stroke="midnightblue" points="963.205,-197.778 966.525,-187.717 957.655,-193.512 963.205,-197.778"/>
</g>
<!-- Node18 -->
<g id="node19" class="node"><title>Node18</title>
<g id="a_node19"><a xlink:href="Music_8h.html" target="_top" xlink:title="Music.h">
<polygon fill="white" stroke="black" points="323.5,-280.5 323.5,-299.5 374.5,-299.5 374.5,-280.5 323.5,-280.5"/>
<text text-anchor="middle" x="349" y="-287.5" font-family="Helvetica,sans-Serif" font-size="10.00">Music.h</text>
</a>
</g>
</g>
<!-- Node1&#45;&gt;Node18 -->
<g id="edge35" class="edge"><title>Node1&#45;&gt;Node18</title>
<path fill="none" stroke="midnightblue" d="M629.839,-398.793C563.455,-394.238 427.803,-381.97 389,-356 372.519,-344.969 361.636,-324.619 355.44,-309.616"/>
<polygon fill="midnightblue" stroke="midnightblue" points="358.556,-307.961 351.743,-299.847 352.009,-310.439 358.556,-307.961"/>
</g>
<!-- Node23 -->
<g id="node24" class="node"><title>Node23</title>
<g id="a_node24"><a xlink:href="Timer_8h.html" target="_top" xlink:title="Timer.h">
<polygon fill="white" stroke="black" points="680,-336.5 680,-355.5 730,-355.5 730,-336.5 680,-336.5"/>
<text text-anchor="middle" x="705" y="-343.5" font-family="Helvetica,sans-Serif" font-size="10.00">Timer.h</text>
</a>
</g>
</g>
<!-- Node1&#45;&gt;Node23 -->
<g id="edge44" class="edge"><title>Node1&#45;&gt;Node23</title>
<path fill="none" stroke="midnightblue" d="M673.275,-392.083C678.642,-384.455 686.518,-373.264 693.079,-363.941"/>
<polygon fill="midnightblue" stroke="midnightblue" points="695.949,-365.943 698.842,-355.751 690.225,-361.915 695.949,-365.943"/>
</g>
<!-- Node24 -->
<g id="node25" class="node"><title>Node24</title>
<g id="a_node25"><a xlink:href="EndState_8h.html" target="_top" xlink:title="EndState.h">
<polygon fill="white" stroke="black" points="596.5,-336.5 596.5,-355.5 661.5,-355.5 661.5,-336.5 596.5,-336.5"/>
<text text-anchor="middle" x="629" y="-343.5" font-family="Helvetica,sans-Serif" font-size="10.00">EndState.h</text>
</a>
</g>
</g>
<!-- Node1&#45;&gt;Node24 -->
<g id="edge45" class="edge"><title>Node1&#45;&gt;Node24</title>
<path fill="none" stroke="midnightblue" d="M655.559,-392.083C648.726,-384.613 640.664,-373.724 634.963,-364.52"/>
<polygon fill="midnightblue" stroke="midnightblue" points="637.982,-362.749 630.027,-355.751 631.882,-366.182 637.982,-362.749"/>
</g>
<!-- Node4&#45;&gt;Node3 -->
<g id="edge6" class="edge"><title>Node4&#45;&gt;Node3</title>
<path fill="none" stroke="midnightblue" d="M608.26,-114.91C648.044,-105.32 725.449,-86.6597 771.03,-75.6714"/>
<polygon fill="midnightblue" stroke="midnightblue" points="771.894,-79.0633 780.795,-73.3172 770.254,-72.2583 771.894,-79.0633"/>
</g>
<!-- Node5 -->
<g id="node6" class="node"><title>Node5</title>
<polygon fill="white" stroke="#bfbfbf" points="436.5,-56.5 436.5,-75.5 477.5,-75.5 477.5,-56.5 436.5,-56.5"/>
<text text-anchor="middle" x="457" y="-63.5" font-family="Helvetica,sans-Serif" font-size="10.00">string</text>
</g>
<!-- Node4&#45;&gt;Node5 -->
<g id="edge5" class="edge"><title>Node4&#45;&gt;Node5</title>
<path fill="none" stroke="midnightblue" d="M563.035,-112.444C542.391,-103.596 509.937,-89.6875 486.368,-79.5865"/>
<polygon fill="midnightblue" stroke="midnightblue" points="487.442,-76.2387 476.872,-75.5164 484.684,-82.6727 487.442,-76.2387"/>
</g>
<!-- Node6&#45;&gt;Node2 -->
<g id="edge8" class="edge"><title>Node6&#45;&gt;Node2</title>
<path fill="none" stroke="midnightblue" d="M1041.89,-112.324C1053.15,-104.107 1070.29,-91.6017 1083.71,-81.8069"/>
<polygon fill="midnightblue" stroke="midnightblue" points="1085.88,-84.5559 1091.89,-75.8339 1081.75,-78.9014 1085.88,-84.5559"/>
</g>
<!-- Node6&#45;&gt;Node3 -->
<g id="edge9" class="edge"><title>Node6&#45;&gt;Node3</title>
<path fill="none" stroke="midnightblue" d="M994.665,-112.444C953.14,-102.388 884.616,-85.7949 842.863,-75.6844"/>
<polygon fill="midnightblue" stroke="midnightblue" points="843.654,-72.2749 833.112,-73.323 842.007,-79.0782 843.654,-72.2749"/>
</g>
<!-- Node6&#45;&gt;Node5 -->
<g id="edge13" class="edge"><title>Node6&#45;&gt;Node5</title>
<path fill="none" stroke="midnightblue" d="M989.708,-117.203C881.058,-106.964 583.759,-78.9459 487.508,-69.8751"/>
<polygon fill="midnightblue" stroke="midnightblue" points="487.835,-66.3905 477.551,-68.9368 487.179,-73.3597 487.835,-66.3905"/>
</g>
<!-- Node7 -->
<g id="node8" class="node"><title>Node7</title>
<g id="a_node8"><a xlink:href="Rect_8h.html" target="_top" xlink:title="Rect.h">
<polygon fill="white" stroke="black" points="1244,-56.5 1244,-75.5 1290,-75.5 1290,-56.5 1244,-56.5"/>
<text text-anchor="middle" x="1267" y="-63.5" font-family="Helvetica,sans-Serif" font-size="10.00">Rect.h</text>
</a>
</g>
</g>
<!-- Node6&#45;&gt;Node7 -->
<g id="edge10" class="edge"><title>Node6&#45;&gt;Node7</title>
<path fill="none" stroke="midnightblue" d="M1067.55,-112.444C1113.47,-101.981 1190.45,-84.442 1234.13,-74.4902"/>
<polygon fill="midnightblue" stroke="midnightblue" points="1234.98,-77.8848 1243.96,-72.2506 1233.43,-71.0597 1234.98,-77.8848"/>
</g>
<!-- Node10 -->
<g id="node11" class="node"><title>Node10</title>
<g id="a_node11"><a xlink:href="Component_8h.html" target="_top" xlink:title="Component.h">
<polygon fill="white" stroke="black" points="989.5,-56.5 989.5,-75.5 1064.5,-75.5 1064.5,-56.5 989.5,-56.5"/>
<text text-anchor="middle" x="1027" y="-63.5" font-family="Helvetica,sans-Serif" font-size="10.00">Component.h</text>
</a>
</g>
</g>
<!-- Node6&#45;&gt;Node10 -->
<g id="edge14" class="edge"><title>Node6&#45;&gt;Node10</title>
<path fill="none" stroke="midnightblue" d="M1024.34,-112.083C1022.45,-105.006 1021.45,-94.8611 1021.58,-85.9865"/>
<polygon fill="midnightblue" stroke="midnightblue" points="1025.09,-85.9878 1022.36,-75.7511 1018.11,-85.4567 1025.09,-85.9878"/>
</g>
<!-- Node8 -->
<g id="node9" class="node"><title>Node8</title>
<g id="a_node9"><a xlink:href="Vec2_8h.html" target="_top" xlink:title="Vec2.h">
<polygon fill="white" stroke="black" points="119.5,-0.5 119.5,-19.5 166.5,-19.5 166.5,-0.5 119.5,-0.5"/>
<text text-anchor="middle" x="143" y="-7.5" font-family="Helvetica,sans-Serif" font-size="10.00">Vec2.h</text>
</a>
</g>
</g>
<!-- Node7&#45;&gt;Node8 -->
<g id="edge11" class="edge"><title>Node7&#45;&gt;Node8</title>
<path fill="none" stroke="midnightblue" d="M1243.64,-63.2463C1217.27,-61.3037 1173.07,-58.161 1135,-56 759.529,-34.6864 303.653,-17.0215 177.033,-12.2629"/>
<polygon fill="midnightblue" stroke="midnightblue" points="176.935,-8.7569 166.81,-11.88 176.672,-15.752 176.935,-8.7569"/>
</g>
<!-- Node9 -->
<g id="node10" class="node"><title>Node9</title>
<polygon fill="white" stroke="#bfbfbf" points="1307,-0.5 1307,-19.5 1351,-19.5 1351,-0.5 1307,-0.5"/>
<text text-anchor="middle" x="1329" y="-7.5" font-family="Helvetica,sans-Serif" font-size="10.00">cmath</text>
</g>
<!-- Node7&#45;&gt;Node9 -->
<g id="edge12" class="edge"><title>Node7&#45;&gt;Node9</title>
<path fill="none" stroke="midnightblue" d="M1276.96,-56.324C1286.13,-48.3414 1299.94,-36.3128 1311.03,-26.6529"/>
<polygon fill="midnightblue" stroke="midnightblue" points="1313.62,-29.041 1318.86,-19.8339 1309.02,-23.7624 1313.62,-29.041"/>
</g>
<!-- Node10&#45;&gt;Node6 -->
<g id="edge15" class="edge"><title>Node10&#45;&gt;Node6</title>
<path fill="none" stroke="midnightblue" d="M1032.62,-75.7511C1034.54,-82.8579 1035.56,-93.1357 1035.42,-102.101"/>
<polygon fill="midnightblue" stroke="midnightblue" points="1031.93,-101.848 1034.67,-112.083 1038.91,-102.374 1031.93,-101.848"/>
</g>
<!-- Node11&#45;&gt;Node4 -->
<g id="edge18" class="edge"><title>Node11&#45;&gt;Node4</title>
<path fill="none" stroke="midnightblue" d="M481.173,-168.444C500.909,-159.636 531.885,-145.812 554.493,-135.722"/>
<polygon fill="midnightblue" stroke="midnightblue" points="556.211,-138.788 563.917,-131.516 553.359,-132.396 556.211,-138.788"/>
</g>
<!-- Node11&#45;&gt;Node5 -->
<g id="edge17" class="edge"><title>Node11&#45;&gt;Node5</title>
<path fill="none" stroke="midnightblue" d="M461.608,-168.368C460.801,-150.617 458.939,-109.666 457.845,-85.5974"/>
<polygon fill="midnightblue" stroke="midnightblue" points="461.341,-85.4221 457.391,-75.5914 454.348,-85.7401 461.341,-85.4221"/>
</g>
<!-- Node12&#45;&gt;Node2 -->
<g id="edge21" class="edge"><title>Node12&#45;&gt;Node2</title>
<path fill="none" stroke="midnightblue" d="M845.555,-226.936C902.683,-215.184 1023.03,-190.253 1027,-188 1056.54,-171.234 1061.02,-160.817 1079,-132 1088.09,-117.43 1094.79,-99.0195 1098.95,-85.5146"/>
<polygon fill="midnightblue" stroke="midnightblue" points="1102.32,-86.4821 1101.74,-75.9027 1095.59,-84.5293 1102.32,-86.4821"/>
</g>
<!-- Node12&#45;&gt;Node5 -->
<g id="edge20" class="edge"><title>Node12&#45;&gt;Node5</title>
<path fill="none" stroke="midnightblue" d="M809.117,-224.363C797.944,-210.814 774.619,-184.418 750,-168 664.63,-111.069 543.85,-82.9093 487.795,-72.2486"/>
<polygon fill="midnightblue" stroke="midnightblue" points="488.26,-68.7752 477.791,-70.4024 486.99,-75.659 488.26,-68.7752"/>
</g>
<!-- Node12&#45;&gt;Node6 -->
<g id="edge24" class="edge"><title>Node12&#45;&gt;Node6</title>
<path fill="none" stroke="midnightblue" d="M845.763,-226.721C897.696,-215.657 999.957,-193.352 1006,-188 1019.35,-176.179 1025.28,-156.257 1027.92,-141.577"/>
<polygon fill="midnightblue" stroke="midnightblue" points="1031.39,-141.991 1029.36,-131.595 1024.47,-140.994 1031.39,-141.991"/>
</g>
<!-- Node12&#45;&gt;Node8 -->
<g id="edge23" class="edge"><title>Node12&#45;&gt;Node8</title>
<path fill="none" stroke="midnightblue" d="M821.557,-224.439C839.921,-195.031 894.577,-97.6696 842,-56 789.51,-14.3994 309.694,-11.0731 176.915,-10.9543"/>
<polygon fill="midnightblue" stroke="midnightblue" points="176.558,-7.4543 166.557,-10.9511 176.556,-14.4543 176.558,-7.4543"/>
</g>
<!-- Node12&#45;&gt;Node11 -->
<g id="edge22" class="edge"><title>Node12&#45;&gt;Node11</title>
<path fill="none" stroke="midnightblue" d="M786.427,-228.489C722.255,-218.7 570.322,-195.524 499.523,-184.724"/>
<polygon fill="midnightblue" stroke="midnightblue" points="499.697,-181.21 489.284,-183.162 498.642,-188.13 499.697,-181.21"/>
</g>
<!-- Node13&#45;&gt;Node8 -->
<g id="edge26" class="edge"><title>Node13&#45;&gt;Node8</title>
<path fill="none" stroke="midnightblue" d="M68.3962,-168.371C62.2796,-155.714 53.015,-131.502 60,-112 72.78,-76.3192 104.204,-44.2118 124.511,-26.1984"/>
<polygon fill="midnightblue" stroke="midnightblue" points="126.9,-28.7604 132.194,-19.583 122.332,-23.456 126.9,-28.7604"/>
</g>
<!-- Node14 -->
<g id="node15" class="node"><title>Node14</title>
<polygon fill="white" stroke="#bfbfbf" points="288.5,-112.5 288.5,-131.5 371.5,-131.5 371.5,-112.5 288.5,-112.5"/>
<text text-anchor="middle" x="330" y="-119.5" font-family="Helvetica,sans-Serif" font-size="10.00">unordered_map</text>
</g>
<!-- Node13&#45;&gt;Node14 -->
<g id="edge27" class="edge"><title>Node13&#45;&gt;Node14</title>
<path fill="none" stroke="midnightblue" d="M113.722,-168.444C158.649,-159.004 230.998,-143.802 279.499,-133.611"/>
<polygon fill="midnightblue" stroke="midnightblue" points="280.402,-136.998 289.468,-131.516 278.962,-130.148 280.402,-136.998"/>
</g>
<!-- Node15 -->
<g id="node16" class="node"><title>Node15</title>
<polygon fill="white" stroke="#bfbfbf" points="69,-112.5 69,-131.5 115,-131.5 115,-112.5 69,-112.5"/>
<text text-anchor="middle" x="92" y="-119.5" font-family="Helvetica,sans-Serif" font-size="10.00">cstdint</text>
</g>
<!-- Node13&#45;&gt;Node15 -->
<g id="edge28" class="edge"><title>Node13&#45;&gt;Node15</title>
<path fill="none" stroke="midnightblue" d="M76.1375,-168.083C78.6829,-160.849 82.3562,-150.409 85.5271,-141.397"/>
<polygon fill="midnightblue" stroke="midnightblue" points="88.9034,-142.346 88.9209,-131.751 82.3002,-140.023 88.9034,-142.346"/>
</g>
<!-- Node16&#45;&gt;Node13 -->
<g id="edge30" class="edge"><title>Node16&#45;&gt;Node13</title>
<path fill="none" stroke="midnightblue" d="M73,-224.083C73,-217.006 73,-206.861 73,-197.986"/>
<polygon fill="midnightblue" stroke="midnightblue" points="76.5001,-197.751 73,-187.751 69.5001,-197.751 76.5001,-197.751"/>
</g>
<!-- Node17&#45;&gt;Node2 -->
<g id="edge33" class="edge"><title>Node17&#45;&gt;Node2</title>
<path fill="none" stroke="midnightblue" d="M971.455,-168.355C969.548,-154.794 967.988,-128.382 981,-112 986.921,-104.546 1037.73,-87.5866 1072.17,-76.7485"/>
<polygon fill="midnightblue" stroke="midnightblue" points="1073.33,-80.0538 1081.83,-73.7329 1071.24,-73.3719 1073.33,-80.0538"/>
</g>
<!-- Node17&#45;&gt;Node3 -->
<g id="edge34" class="edge"><title>Node17&#45;&gt;Node3</title>
<path fill="none" stroke="midnightblue" d="M959.974,-168.368C931.489,-149.492 863.417,-104.385 828.484,-81.2367"/>
<polygon fill="midnightblue" stroke="midnightblue" points="830.235,-78.1977 819.965,-75.5914 826.368,-84.0328 830.235,-78.1977"/>
</g>
<!-- Node17&#45;&gt;Node6 -->
<g id="edge32" class="edge"><title>Node17&#45;&gt;Node6</title>
<path fill="none" stroke="midnightblue" d="M982.158,-168.324C990.501,-160.42 1003.03,-148.548 1013.18,-138.938"/>
<polygon fill="midnightblue" stroke="midnightblue" points="1015.82,-141.252 1020.68,-131.834 1011.01,-136.171 1015.82,-141.252"/>
</g>
<!-- Node18&#45;&gt;Node5 -->
<g id="edge36" class="edge"><title>Node18&#45;&gt;Node5</title>
<path fill="none" stroke="midnightblue" d="M340.079,-280.397C312.932,-253.189 235.757,-167.536 279,-112 296.941,-88.9592 380.385,-75.8482 426.376,-70.256"/>
<polygon fill="midnightblue" stroke="midnightblue" points="426.867,-73.7226 436.392,-69.085 426.054,-66.7699 426.867,-73.7226"/>
</g>
<!-- Node19 -->
<g id="node20" class="node"><title>Node19</title>
<g id="a_node20"><a xlink:href="Resources_8h.html" target="_top" xlink:title="Resources.h">
<polygon fill="white" stroke="black" points="307,-168.5 307,-187.5 379,-187.5 379,-168.5 307,-168.5"/>
<text text-anchor="middle" x="343" y="-175.5" font-family="Helvetica,sans-Serif" font-size="10.00">Resources.h</text>
</a>
</g>
</g>
<!-- Node18&#45;&gt;Node19 -->
<g id="edge37" class="edge"><title>Node18&#45;&gt;Node19</title>
<path fill="none" stroke="midnightblue" d="M348.529,-280.368C347.561,-262.617 345.327,-221.666 344.014,-197.597"/>
<polygon fill="midnightblue" stroke="midnightblue" points="347.508,-197.386 343.469,-187.591 340.519,-197.767 347.508,-197.386"/>
</g>
<!-- Node18&#45;&gt;Node20 -->
<g id="edge41" class="edge"><title>Node18&#45;&gt;Node20</title>
<path fill="none" stroke="midnightblue" d="M374.751,-284.349C428.872,-274.575 554.375,-251.909 614.592,-241.034"/>
<polygon fill="midnightblue" stroke="midnightblue" points="615.484,-244.429 624.703,-239.208 614.24,-237.541 615.484,-244.429"/>
</g>
<!-- Node19&#45;&gt;Node3 -->
<g id="edge40" class="edge"><title>Node19&#45;&gt;Node3</title>
<path fill="none" stroke="midnightblue" d="M366.501,-168.457C404.451,-154.918 481.778,-128.391 549,-112 627.15,-92.9445 720.503,-78.7352 770.722,-71.7746"/>
<polygon fill="midnightblue" stroke="midnightblue" points="771.329,-75.2241 780.762,-70.4001 770.38,-68.2888 771.329,-75.2241"/>
</g>
<!-- Node19&#45;&gt;Node5 -->
<g id="edge38" class="edge"><title>Node19&#45;&gt;Node5</title>
<path fill="none" stroke="midnightblue" d="M351.945,-168.368C371.092,-149.894 416.279,-106.293 440.684,-82.7436"/>
<polygon fill="midnightblue" stroke="midnightblue" points="443.33,-85.0538 448.096,-75.5914 438.47,-80.0165 443.33,-85.0538"/>
</g>
<!-- Node19&#45;&gt;Node14 -->
<g id="edge39" class="edge"><title>Node19&#45;&gt;Node14</title>
<path fill="none" stroke="midnightblue" d="M340.853,-168.083C339.131,-160.927 336.653,-150.635 334.5,-141.691"/>
<polygon fill="midnightblue" stroke="midnightblue" points="337.85,-140.654 332.107,-131.751 331.045,-142.293 337.85,-140.654"/>
</g>
<!-- Node21 -->
<g id="node22" class="node"><title>Node21</title>
<polygon fill="white" stroke="#bfbfbf" points="621,-168.5 621,-187.5 675,-187.5 675,-168.5 621,-168.5"/>
<text text-anchor="middle" x="648" y="-175.5" font-family="Helvetica,sans-Serif" font-size="10.00">iostream</text>
</g>
<!-- Node20&#45;&gt;Node21 -->
<g id="edge42" class="edge"><title>Node20&#45;&gt;Node21</title>
<path fill="none" stroke="midnightblue" d="M648,-224.083C648,-217.006 648,-206.861 648,-197.986"/>
<polygon fill="midnightblue" stroke="midnightblue" points="651.5,-197.751 648,-187.751 644.5,-197.751 651.5,-197.751"/>
</g>
<!-- Node22 -->
<g id="node23" class="node"><title>Node22</title>
<polygon fill="white" stroke="#bfbfbf" points="693,-168.5 693,-187.5 741,-187.5 741,-168.5 693,-168.5"/>
<text text-anchor="middle" x="717" y="-175.5" font-family="Helvetica,sans-Serif" font-size="10.00">stdlib.h</text>
</g>
<!-- Node20&#45;&gt;Node22 -->
<g id="edge43" class="edge"><title>Node20&#45;&gt;Node22</title>
<path fill="none" stroke="midnightblue" d="M659.086,-224.324C669.486,-216.185 685.261,-203.839 697.722,-194.087"/>
<polygon fill="midnightblue" stroke="midnightblue" points="699.994,-196.753 705.712,-187.834 695.68,-191.241 699.994,-196.753"/>
</g>
<!-- Node24&#45;&gt;Node1 -->
<g id="edge65" class="edge"><title>Node24&#45;&gt;Node1</title>
<path fill="none" stroke="midnightblue" d="M640.289,-355.751C647.103,-363.17 655.174,-374.045 660.909,-383.275"/>
<polygon fill="midnightblue" stroke="midnightblue" points="657.922,-385.102 665.891,-392.083 664.015,-381.656 657.922,-385.102"/>
</g>
<!-- Node24&#45;&gt;Node4 -->
<g id="edge47" class="edge"><title>Node24&#45;&gt;Node4</title>
<path fill="none" stroke="midnightblue" d="M625.08,-336.207C621.234,-327.258 615.458,-312.907 612,-300 596.855,-243.477 588.318,-174.56 584.849,-141.903"/>
<polygon fill="midnightblue" stroke="midnightblue" points="588.295,-141.194 583.797,-131.602 581.331,-141.906 588.295,-141.194"/>
</g>
<!-- Node24&#45;&gt;Node6 -->
<g id="edge46" class="edge"><title>Node24&#45;&gt;Node6</title>
<path fill="none" stroke="midnightblue" d="M655.458,-336.417C740.684,-308.524 1003.86,-220.367 1027,-188 1036.54,-174.657 1036.22,-155.542 1034.16,-141.493"/>
<polygon fill="midnightblue" stroke="midnightblue" points="1037.57,-140.703 1032.29,-131.52 1030.69,-141.994 1037.57,-140.703"/>
</g>
<!-- Node24&#45;&gt;Node13 -->
<g id="edge64" class="edge"><title>Node24&#45;&gt;Node13</title>
<path fill="none" stroke="midnightblue" d="M596.499,-343.804C538.503,-340.917 413.897,-331.297 314,-300 302.706,-296.462 158.847,-222.997 98.9252,-192.298"/>
<polygon fill="midnightblue" stroke="midnightblue" points="100.231,-189.035 89.7355,-187.589 97.0384,-195.264 100.231,-189.035"/>
</g>
<!-- Node24&#45;&gt;Node18 -->
<g id="edge48" class="edge"><title>Node24&#45;&gt;Node18</title>
<path fill="none" stroke="midnightblue" d="M596.332,-338.7C543.478,-328.506 439.614,-308.476 384.811,-297.906"/>
<polygon fill="midnightblue" stroke="midnightblue" points="385.335,-294.443 374.854,-295.986 384.01,-301.316 385.335,-294.443"/>
</g>
<!-- Node25 -->
<g id="node26" class="node"><title>Node25</title>
<g id="a_node26"><a xlink:href="Text_8h.html" target="_top" xlink:title="Text.h">
<polygon fill="white" stroke="black" points="621,-280.5 621,-299.5 665,-299.5 665,-280.5 621,-280.5"/>
<text text-anchor="middle" x="643" y="-287.5" font-family="Helvetica,sans-Serif" font-size="10.00">Text.h</text>
</a>
</g>
</g>
<!-- Node24&#45;&gt;Node25 -->
<g id="edge49" class="edge"><title>Node24&#45;&gt;Node25</title>
<path fill="none" stroke="midnightblue" d="M631.312,-336.083C633.167,-328.927 635.835,-318.635 638.154,-309.691"/>
<polygon fill="midnightblue" stroke="midnightblue" points="641.609,-310.309 640.731,-299.751 634.834,-308.553 641.609,-310.309"/>
</g>
<!-- Node24&#45;&gt;Node28 -->
<g id="edge61" class="edge"><title>Node24&#45;&gt;Node28</title>
<path fill="none" stroke="midnightblue" d="M661.954,-337.6C665.005,-337.018 668.055,-336.473 671,-336 801.18,-315.103 955.768,-301.291 1035.5,-294.97"/>
<polygon fill="midnightblue" stroke="midnightblue" points="1036.08,-298.435 1045.78,-294.164 1035.54,-291.457 1036.08,-298.435"/>
</g>
<!-- Node25&#45;&gt;Node3 -->
<g id="edge51" class="edge"><title>Node25&#45;&gt;Node3</title>
<path fill="none" stroke="midnightblue" d="M654.653,-280.413C675.896,-264.283 721.364,-227.504 750,-188 774.1,-154.754 792.103,-109.704 800.932,-85.0199"/>
<polygon fill="midnightblue" stroke="midnightblue" points="804.263,-86.0986 804.24,-75.5038 797.651,-83.8005 804.263,-86.0986"/>
</g>
<!-- Node25&#45;&gt;Node5 -->
<g id="edge52" class="edge"><title>Node25&#45;&gt;Node5</title>
<path fill="none" stroke="midnightblue" d="M625.468,-280.43C599.635,-267.846 549.776,-243.724 507,-224 471.224,-207.504 447.467,-221.033 426,-188 404.73,-155.27 428.698,-108.744 444.803,-84.0056"/>
<polygon fill="midnightblue" stroke="midnightblue" points="447.746,-85.9014 450.48,-75.6651 441.959,-81.9627 447.746,-85.9014"/>
</g>
<!-- Node25&#45;&gt;Node7 -->
<g id="edge50" class="edge"><title>Node25&#45;&gt;Node7</title>
<path fill="none" stroke="midnightblue" d="M665.279,-284.718C703.878,-277.194 785.617,-260.801 854,-244 944.057,-221.874 969.412,-223.701 1055,-188 1128.92,-157.168 1209.23,-105.916 1246.22,-81.196"/>
<polygon fill="midnightblue" stroke="midnightblue" points="1248.32,-84.001 1254.66,-75.5113 1244.41,-78.1953 1248.32,-84.001"/>
</g>
<!-- Node25&#45;&gt;Node19 -->
<g id="edge53" class="edge"><title>Node25&#45;&gt;Node19</title>
<path fill="none" stroke="midnightblue" d="M620.94,-280.911C568.771,-261.783 437.573,-213.677 375.945,-191.08"/>
<polygon fill="midnightblue" stroke="midnightblue" points="376.919,-187.709 366.325,-187.552 374.509,-194.281 376.919,-187.709"/>
</g>
<!-- Node25&#45;&gt;Node20 -->
<g id="edge60" class="edge"><title>Node25&#45;&gt;Node20</title>
<path fill="none" stroke="midnightblue" d="M643.826,-280.083C644.481,-273.006 645.42,-262.861 646.242,-253.986"/>
<polygon fill="midnightblue" stroke="midnightblue" points="649.753,-254.031 647.19,-243.751 642.783,-253.386 649.753,-254.031"/>
</g>
<!-- Node25&#45;&gt;Node26 -->
<g id="edge54" class="edge"><title>Node25&#45;&gt;Node26</title>
<path fill="none" stroke="midnightblue" d="M620.938,-286.058C554.442,-277.192 355.524,-250.67 273.728,-239.764"/>
<polygon fill="midnightblue" stroke="midnightblue" points="274.043,-236.275 263.669,-238.422 273.118,-243.213 274.043,-236.275"/>
</g>
<!-- Node26&#45;&gt;Node5 -->
<g id="edge55" class="edge"><title>Node26&#45;&gt;Node5</title>
<path fill="none" stroke="midnightblue" d="M227.286,-224.305C218.062,-216.069 205.409,-202.789 200,-188 186.438,-150.919 212.27,-132.524 246,-112 303.079,-77.2694 383.061,-69.0905 426.314,-67.3236"/>
<polygon fill="midnightblue" stroke="midnightblue" points="426.599,-70.8164 436.483,-67.0003 426.376,-63.82 426.599,-70.8164"/>
</g>
<!-- Node26&#45;&gt;Node8 -->
<g id="edge59" class="edge"><title>Node26&#45;&gt;Node8</title>
<path fill="none" stroke="midnightblue" d="M226.36,-224.251C216.143,-215.981 201.607,-202.677 193,-188 162.369,-135.763 149.682,-63.7881 145.163,-29.9839"/>
<polygon fill="midnightblue" stroke="midnightblue" points="148.593,-29.2068 143.889,-19.7137 141.646,-30.0685 148.593,-29.2068"/>
</g>
<!-- Node26&#45;&gt;Node13 -->
<g id="edge58" class="edge"><title>Node26&#45;&gt;Node13</title>
<path fill="none" stroke="midnightblue" d="M212.219,-224.562C184.412,-215.462 139.942,-200.908 108.763,-190.704"/>
<polygon fill="midnightblue" stroke="midnightblue" points="109.737,-187.341 99.1447,-187.556 107.56,-193.993 109.737,-187.341"/>
</g>
<!-- Node26&#45;&gt;Node17 -->
<g id="edge57" class="edge"><title>Node26&#45;&gt;Node17</title>
<path fill="none" stroke="midnightblue" d="M263.728,-231.11C374.703,-222.956 812.493,-190.792 938.749,-181.516"/>
<polygon fill="midnightblue" stroke="midnightblue" points="939.262,-184.988 948.979,-180.765 938.749,-178.007 939.262,-184.988"/>
</g>
<!-- Node27 -->
<g id="node28" class="node"><title>Node27</title>
<polygon fill="white" stroke="#bfbfbf" points="209.5,-168.5 209.5,-187.5 250.5,-187.5 250.5,-168.5 209.5,-168.5"/>
<text text-anchor="middle" x="230" y="-175.5" font-family="Helvetica,sans-Serif" font-size="10.00">stack</text>
</g>
<!-- Node26&#45;&gt;Node27 -->
<g id="edge56" class="edge"><title>Node26&#45;&gt;Node27</title>
<path fill="none" stroke="midnightblue" d="M236.679,-224.083C235.619,-216.927 234.094,-206.635 232.769,-197.691"/>
<polygon fill="midnightblue" stroke="midnightblue" points="236.224,-197.13 231.296,-187.751 229.3,-198.156 236.224,-197.13"/>
</g>
<!-- Node29 -->
<g id="node30" class="node"><title>Node29</title>
<g id="a_node30"><a xlink:href="StateData_8h.html" target="_top" xlink:title="StateData.h">
<polygon fill="white" stroke="black" points="1016.5,-224.5 1016.5,-243.5 1085.5,-243.5 1085.5,-224.5 1016.5,-224.5"/>
<text text-anchor="middle" x="1051" y="-231.5" font-family="Helvetica,sans-Serif" font-size="10.00">StateData.h</text>
</a>
</g>
</g>
<!-- Node28&#45;&gt;Node29 -->
<g id="edge62" class="edge"><title>Node28&#45;&gt;Node29</title>
<path fill="none" stroke="midnightblue" d="M1082.73,-280.083C1077.36,-272.455 1069.48,-261.264 1062.92,-251.941"/>
<polygon fill="midnightblue" stroke="midnightblue" points="1065.78,-249.915 1057.16,-243.751 1060.05,-253.943 1065.78,-249.915"/>
</g>
<!-- Node30 -->
<g id="node31" class="node"><title>Node30</title>
<g id="a_node31"><a xlink:href="Defines_8h.html" target="_top" xlink:title="Defines.h">
<polygon fill="white" stroke="black" points="1103.5,-224.5 1103.5,-243.5 1162.5,-243.5 1162.5,-224.5 1103.5,-224.5"/>
<text text-anchor="middle" x="1133" y="-231.5" font-family="Helvetica,sans-Serif" font-size="10.00">Defines.h</text>
</a>
</g>
</g>
<!-- Node28&#45;&gt;Node30 -->
<g id="edge63" class="edge"><title>Node28&#45;&gt;Node30</title>
<path fill="none" stroke="midnightblue" d="M1096.27,-280.083C1102.54,-272.377 1111.79,-261.033 1119.43,-251.653"/>
<polygon fill="midnightblue" stroke="midnightblue" points="1122.27,-253.714 1125.87,-243.751 1116.84,-249.293 1122.27,-253.714"/>
</g>
<!-- Node31&#45;&gt;Node6 -->
<g id="edge69" class="edge"><title>Node31&#45;&gt;Node6</title>
<path fill="none" stroke="midnightblue" d="M79.8427,-283.147C122.5,-274.736 203.345,-258.63 272,-244 423.44,-211.729 459.227,-193.216 612,-168 743.81,-146.244 900.813,-132.595 979.607,-126.581"/>
<polygon fill="midnightblue" stroke="midnightblue" points="980.029,-130.059 989.737,-125.817 979.502,-123.079 980.029,-130.059"/>
</g>
<!-- Node31&#45;&gt;Node8 -->
<g id="edge70" class="edge"><title>Node31&#45;&gt;Node8</title>
<path fill="none" stroke="midnightblue" d="M42.679,-280.217C35.7362,-271.506 25.4361,-257.537 19,-244 6.07658,-216.818 0,-209.098 0,-179 0,-179 0,-179 0,-121 0,-65.9055 67.5119,-34.59 109.76,-20.387"/>
<polygon fill="midnightblue" stroke="midnightblue" points="110.934,-23.6861 119.386,-17.2976 108.795,-17.021 110.934,-23.6861"/>
</g>
<!-- Node31&#45;&gt;Node16 -->
<g id="edge71" class="edge"><title>Node31&#45;&gt;Node16</title>
<path fill="none" stroke="midnightblue" d="M53.798,-280.083C56.9128,-272.77 61.4228,-262.181 65.2893,-253.103"/>
<polygon fill="midnightblue" stroke="midnightblue" points="68.5741,-254.323 69.2727,-243.751 62.1339,-251.58 68.5741,-254.323"/>
</g>
<!-- Node32&#45;&gt;Node7 -->
<g id="edge75" class="edge"><title>Node32&#45;&gt;Node7</title>
<path fill="none" stroke="midnightblue" d="M1348.42,-112.324C1333,-103.743 1309.19,-90.486 1291.29,-80.5224"/>
<polygon fill="midnightblue" stroke="midnightblue" points="1292.99,-77.4606 1282.55,-75.6545 1289.58,-83.5767 1292.99,-77.4606"/>
</g>
<!-- Node32&#45;&gt;Node9 -->
<g id="edge73" class="edge"><title>Node32&#45;&gt;Node9</title>
<path fill="none" stroke="midnightblue" d="M1367.96,-112.236C1373.15,-99.4098 1380.74,-74.9891 1373,-56 1368.2,-44.2251 1358.67,-33.8564 1349.71,-26.0486"/>
<polygon fill="midnightblue" stroke="midnightblue" points="1351.75,-23.2048 1341.78,-19.6314 1347.35,-28.6448 1351.75,-23.2048"/>
</g>
<!-- Node33 -->
<g id="node34" class="node"><title>Node33</title>
<polygon fill="white" stroke="#bfbfbf" points="1308,-56.5 1308,-75.5 1364,-75.5 1364,-56.5 1308,-56.5"/>
<text text-anchor="middle" x="1336" y="-63.5" font-family="Helvetica,sans-Serif" font-size="10.00">algorithm</text>
</g>
<!-- Node32&#45;&gt;Node33 -->
<g id="edge74" class="edge"><title>Node32&#45;&gt;Node33</title>
<path fill="none" stroke="midnightblue" d="M1359.38,-112.083C1355.54,-104.691 1349.98,-93.9533 1345.24,-84.8111"/>
<polygon fill="midnightblue" stroke="midnightblue" points="1348.25,-83.0175 1340.54,-75.7511 1342.03,-86.2398 1348.25,-83.0175"/>
</g>
<!-- Node34&#45;&gt;Node4 -->
<g id="edge79" class="edge"><title>Node34&#45;&gt;Node4</title>
<path fill="none" stroke="midnightblue" d="M1196.2,-280.237C1194.4,-266.014 1188.69,-238.082 1171,-224 1089.71,-159.277 1042.45,-205.308 940,-188 821.727,-168.02 681.905,-141.805 618.013,-129.681"/>
<polygon fill="midnightblue" stroke="midnightblue" points="618.543,-126.219 608.065,-127.791 617.236,-133.096 618.543,-126.219"/>
</g>
<!-- Node34&#45;&gt;Node6 -->
<g id="edge78" class="edge"><title>Node34&#45;&gt;Node6</title>
<path fill="none" stroke="midnightblue" d="M1200.67,-280.252C1205.49,-267.446 1212.48,-243.05 1205,-224 1192.59,-192.386 1181.29,-186.8 1153,-168 1129.78,-152.569 1100.59,-141.597 1076.47,-134.352"/>
<polygon fill="midnightblue" stroke="midnightblue" points="1077.4,-130.977 1066.82,-131.568 1075.46,-137.702 1077.4,-130.977"/>
</g>
<!-- Node34&#45;&gt;Node7 -->
<g id="edge80" class="edge"><title>Node34&#45;&gt;Node7</title>
<path fill="none" stroke="midnightblue" d="M1207.93,-280.448C1227.13,-264.648 1266.27,-228.752 1281,-188 1293.59,-153.163 1282.4,-109.347 1274.07,-85.1513"/>
<polygon fill="midnightblue" stroke="midnightblue" points="1277.27,-83.7046 1270.54,-75.5178 1270.7,-86.1116 1277.27,-83.7046"/>
</g>
<!-- Node34&#45;&gt;Node12 -->
<g id="edge81" class="edge"><title>Node34&#45;&gt;Node12</title>
<path fill="none" stroke="midnightblue" d="M1173.31,-285.076C1163.34,-283.455 1151.62,-281.588 1141,-280 1038.22,-264.627 916.867,-248.31 855.618,-240.203"/>
<polygon fill="midnightblue" stroke="midnightblue" points="855.979,-236.72 845.606,-238.88 855.062,-243.66 855.979,-236.72"/>
</g>
</g>
</svg>
