<?xml version="1.0" encoding="UTF-8" standalone="no"?>
<!DOCTYPE svg PUBLIC "-//W3C//DTD SVG 1.1//EN"
 "http://www.w3.org/Graphics/SVG/1.1/DTD/svg11.dtd">
<!-- Generated by graphviz version 2.38.0 (20140413.2041)
 -->
<!-- Title: Game/src/StageState.cpp Pages: 1 -->
<svg width="1645pt" height="476pt"
 viewBox="0.00 0.00 1645.14 476.00" xmlns="http://www.w3.org/2000/svg" xmlns:xlink="http://www.w3.org/1999/xlink">
<g id="graph0" class="graph" transform="scale(1 1) rotate(0) translate(4 472)">
<title>Game/src/StageState.cpp</title>
<polygon fill="white" stroke="none" points="-4,4 -4,-472 1641.14,-472 1641.14,4 -4,4"/>
<!-- Node0 -->
<g id="node1" class="node"><title>Node0</title>
<polygon fill="#bfbfbf" stroke="black" points="1028.66,-448.5 1028.66,-467.5 1158.66,-467.5 1158.66,-448.5 1028.66,-448.5"/>
<text text-anchor="middle" x="1093.66" y="-455.5" font-family="Helvetica,sans-Serif" font-size="10.00">Game/src/StageState.cpp</text>
</g>
<!-- Node1 -->
<g id="node2" class="node"><title>Node1</title>
<g id="a_node2"><a xlink:href="StageState_8h.html" target="_top" xlink:title="StageState.h">
<polygon fill="white" stroke="black" points="777.664,-392.5 777.664,-411.5 851.664,-411.5 851.664,-392.5 777.664,-392.5"/>
<text text-anchor="middle" x="814.664" y="-399.5" font-family="Helvetica,sans-Serif" font-size="10.00">StageState.h</text>
</a>
</g>
</g>
<!-- Node0&#45;&gt;Node1 -->
<g id="edge1" class="edge"><title>Node0&#45;&gt;Node1</title>
<path fill="none" stroke="midnightblue" d="M1049.46,-448.444C998.318,-438.546 914.455,-422.314 862.018,-412.165"/>
<polygon fill="midnightblue" stroke="midnightblue" points="862.452,-408.684 851.969,-410.22 861.122,-415.557 862.452,-408.684"/>
</g>
<!-- Node19 -->
<g id="node20" class="node"><title>Node19</title>
<g id="a_node20"><a xlink:href="Error_8h.html" target="_top" xlink:title="Error.h">
<polygon fill="white" stroke="black" points="984.664,-224.5 984.664,-243.5 1030.66,-243.5 1030.66,-224.5 984.664,-224.5"/>
<text text-anchor="middle" x="1007.66" y="-231.5" font-family="Helvetica,sans-Serif" font-size="10.00">Error.h</text>
</a>
</g>
</g>
<!-- Node0&#45;&gt;Node19 -->
<g id="edge60" class="edge"><title>Node0&#45;&gt;Node19</title>
<path fill="none" stroke="midnightblue" d="M1090.29,-448.297C1077.59,-415.494 1032.41,-298.884 1014.78,-253.377"/>
<polygon fill="midnightblue" stroke="midnightblue" points="1017.98,-251.944 1011.11,-243.884 1011.45,-254.473 1017.98,-251.944"/>
</g>
<!-- Node24 -->
<g id="node25" class="node"><title>Node24</title>
<g id="a_node25"><a xlink:href="Game_8h.html" target="_top" xlink:title="Game.h">
<polygon fill="white" stroke="black" points="915.164,-224.5 915.164,-243.5 966.164,-243.5 966.164,-224.5 915.164,-224.5"/>
<text text-anchor="middle" x="940.664" y="-231.5" font-family="Helvetica,sans-Serif" font-size="10.00">Game.h</text>
</a>
</g>
</g>
<!-- Node0&#45;&gt;Node24 -->
<g id="edge59" class="edge"><title>Node0&#45;&gt;Node24</title>
<path fill="none" stroke="midnightblue" d="M1087.67,-448.297C1064.87,-415.217 983.331,-296.909 952.546,-252.241"/>
<polygon fill="midnightblue" stroke="midnightblue" points="955.343,-250.132 946.787,-243.884 949.579,-254.104 955.343,-250.132"/>
</g>
<!-- Node26 -->
<g id="node27" class="node"><title>Node26</title>
<g id="a_node27"><a xlink:href="EndStateData_8h.html" target="_top" xlink:title="EndStateData.h">
<polygon fill="white" stroke="black" points="1231.66,-280.5 1231.66,-299.5 1317.66,-299.5 1317.66,-280.5 1231.66,-280.5"/>
<text text-anchor="middle" x="1274.66" y="-287.5" font-family="Helvetica,sans-Serif" font-size="10.00">EndStateData.h</text>
</a>
</g>
</g>
<!-- Node0&#45;&gt;Node26 -->
<g id="edge84" class="edge"><title>Node0&#45;&gt;Node26</title>
<path fill="none" stroke="midnightblue" d="M1142.75,-448.473C1167.65,-442.019 1196.93,-430.903 1217.66,-412 1248.44,-383.934 1264.07,-335.793 1270.67,-309.489"/>
<polygon fill="midnightblue" stroke="midnightblue" points="1274.1,-310.209 1272.97,-299.674 1267.28,-308.616 1274.1,-310.209"/>
</g>
<!-- Node29 -->
<g id="node30" class="node"><title>Node29</title>
<g id="a_node30"><a xlink:href="Camera_8h.html" target="_top" xlink:title="Camera.h">
<polygon fill="white" stroke="black" points="1455.16,-280.5 1455.16,-299.5 1514.16,-299.5 1514.16,-280.5 1455.16,-280.5"/>
<text text-anchor="middle" x="1484.66" y="-287.5" font-family="Helvetica,sans-Serif" font-size="10.00">Camera.h</text>
</a>
</g>
</g>
<!-- Node0&#45;&gt;Node29 -->
<g id="edge61" class="edge"><title>Node0&#45;&gt;Node29</title>
<path fill="none" stroke="midnightblue" d="M1126.89,-448.499C1157.04,-440.394 1202.47,-427.197 1240.66,-412 1323.99,-378.844 1417.77,-328.404 1460.78,-304.487"/>
<polygon fill="midnightblue" stroke="midnightblue" points="1462.62,-307.469 1469.65,-299.535 1459.21,-301.358 1462.62,-307.469"/>
</g>
<!-- Node30 -->
<g id="node31" class="node"><title>Node30</title>
<g id="a_node31"><a xlink:href="Alien_8h.html" target="_top" xlink:title="Alien.h">
<polygon fill="white" stroke="black" points="173.164,-280.5 173.164,-299.5 220.164,-299.5 220.164,-280.5 173.164,-280.5"/>
<text text-anchor="middle" x="196.664" y="-287.5" font-family="Helvetica,sans-Serif" font-size="10.00">Alien.h</text>
</a>
</g>
</g>
<!-- Node0&#45;&gt;Node30 -->
<g id="edge65" class="edge"><title>Node0&#45;&gt;Node30</title>
<path fill="none" stroke="midnightblue" d="M1028.59,-457.678C921.686,-457.504 702.797,-451.719 522.664,-412 407.542,-386.616 278.364,-329.553 223.558,-303.91"/>
<polygon fill="midnightblue" stroke="midnightblue" points="225.047,-300.743 214.51,-299.645 222.062,-307.074 225.047,-300.743"/>
</g>
<!-- Node34 -->
<g id="node35" class="node"><title>Node34</title>
<g id="a_node35"><a xlink:href="Penguins_8h.html" target="_top" xlink:title="Penguins.h">
<polygon fill="white" stroke="black" points="336.164,-280.5 336.164,-299.5 401.164,-299.5 401.164,-280.5 336.164,-280.5"/>
<text text-anchor="middle" x="368.664" y="-287.5" font-family="Helvetica,sans-Serif" font-size="10.00">Penguins.h</text>
</a>
</g>
</g>
<!-- Node0&#45;&gt;Node34 -->
<g id="edge76" class="edge"><title>Node0&#45;&gt;Node34</title>
<path fill="none" stroke="midnightblue" d="M1028.59,-453.673C879.653,-445.056 518.968,-418.196 416.664,-356 398.549,-344.987 385.094,-324.325 377.11,-309.244"/>
<polygon fill="midnightblue" stroke="midnightblue" points="380.046,-307.285 372.467,-299.882 373.775,-310.395 380.046,-307.285"/>
</g>
<!-- Node35 -->
<g id="node36" class="node"><title>Node35</title>
<g id="a_node36"><a xlink:href="Collision_8h.html" target="_top" xlink:title="Collision.h">
<polygon fill="white" stroke="black" points="1566.66,-112.5 1566.66,-131.5 1628.66,-131.5 1628.66,-112.5 1566.66,-112.5"/>
<text text-anchor="middle" x="1597.66" y="-119.5" font-family="Helvetica,sans-Serif" font-size="10.00">Collision.h</text>
</a>
</g>
</g>
<!-- Node0&#45;&gt;Node35 -->
<g id="edge80" class="edge"><title>Node0&#45;&gt;Node35</title>
<path fill="none" stroke="midnightblue" d="M1158.78,-456.292C1295.03,-453.044 1597.66,-435.832 1597.66,-347 1597.66,-347 1597.66,-347 1597.66,-233 1597.66,-200.948 1597.66,-163.643 1597.66,-141.749"/>
<polygon fill="midnightblue" stroke="midnightblue" points="1601.16,-141.558 1597.66,-131.558 1594.16,-141.558 1601.16,-141.558"/>
</g>
<!-- Node2 -->
<g id="node3" class="node"><title>Node2</title>
<polygon fill="white" stroke="#bfbfbf" points="97.664,-112.5 97.664,-131.5 141.664,-131.5 141.664,-112.5 97.664,-112.5"/>
<text text-anchor="middle" x="119.664" y="-119.5" font-family="Helvetica,sans-Serif" font-size="10.00">vector</text>
</g>
<!-- Node1&#45;&gt;Node2 -->
<g id="edge2" class="edge"><title>Node1&#45;&gt;Node2</title>
<path fill="none" stroke="midnightblue" d="M777.6,-400.151C632.558,-395.927 107.139,-371.874 19.664,-244 -8.63462,-202.632 55.3389,-158.252 93.6108,-136.539"/>
<polygon fill="midnightblue" stroke="midnightblue" points="95.6458,-139.414 102.715,-131.523 92.2678,-133.283 95.6458,-139.414"/>
</g>
<!-- Node3 -->
<g id="node4" class="node"><title>Node3</title>
<polygon fill="white" stroke="#bfbfbf" points="552.664,-112.5 552.664,-131.5 604.664,-131.5 604.664,-112.5 552.664,-112.5"/>
<text text-anchor="middle" x="578.664" y="-119.5" font-family="Helvetica,sans-Serif" font-size="10.00">memory</text>
</g>
<!-- Node1&#45;&gt;Node3 -->
<g id="edge3" class="edge"><title>Node1&#45;&gt;Node3</title>
<path fill="none" stroke="midnightblue" d="M807.342,-392.375C774.099,-353.216 637.079,-191.811 592.645,-139.469"/>
<polygon fill="midnightblue" stroke="midnightblue" points="595.04,-136.883 585.9,-131.524 589.704,-141.413 595.04,-136.883"/>
</g>
<!-- Node4 -->
<g id="node5" class="node"><title>Node4</title>
<g id="a_node5"><a xlink:href="Sprite_8h.html" target="_top" xlink:title="Sprite.h">
<polygon fill="white" stroke="black" points="386.664,-168.5 386.664,-187.5 436.664,-187.5 436.664,-168.5 386.664,-168.5"/>
<text text-anchor="middle" x="411.664" y="-175.5" font-family="Helvetica,sans-Serif" font-size="10.00">Sprite.h</text>
</a>
</g>
</g>
<!-- Node1&#45;&gt;Node4 -->
<g id="edge4" class="edge"><title>Node1&#45;&gt;Node4</title>
<path fill="none" stroke="midnightblue" d="M777.652,-398.321C711.857,-393.019 577.687,-379.608 537.664,-356 473.793,-318.324 433.714,-234.131 418.552,-197.084"/>
<polygon fill="midnightblue" stroke="midnightblue" points="421.726,-195.592 414.791,-187.582 415.217,-198.168 421.726,-195.592"/>
</g>
<!-- Node6 -->
<g id="node7" class="node"><title>Node6</title>
<g id="a_node7"><a xlink:href="Gameobject_8h.html" target="_top" xlink:title="Gameobject.h">
<polygon fill="white" stroke="black" points="641.164,-112.5 641.164,-131.5 718.164,-131.5 718.164,-112.5 641.164,-112.5"/>
<text text-anchor="middle" x="679.664" y="-119.5" font-family="Helvetica,sans-Serif" font-size="10.00">Gameobject.h</text>
</a>
</g>
</g>
<!-- Node1&#45;&gt;Node6 -->
<g id="edge7" class="edge"><title>Node1&#45;&gt;Node6</title>
<path fill="none" stroke="midnightblue" d="M838.068,-392.444C929.636,-358.372 1255.77,-231.145 1197.66,-168 1165.05,-132.555 813.619,-136.507 765.664,-132 753.52,-130.859 740.422,-129.535 728.198,-128.26"/>
<polygon fill="midnightblue" stroke="midnightblue" points="728.488,-124.772 718.176,-127.206 727.755,-131.733 728.488,-124.772"/>
</g>
<!-- Node10 -->
<g id="node11" class="node"><title>Node10</title>
<g id="a_node11"><a xlink:href="Tileset_8h.html" target="_top" xlink:title="Tileset.h">
<polygon fill="white" stroke="black" points="458.664,-224.5 458.664,-243.5 512.664,-243.5 512.664,-224.5 458.664,-224.5"/>
<text text-anchor="middle" x="485.664" y="-231.5" font-family="Helvetica,sans-Serif" font-size="10.00">Tileset.h</text>
</a>
</g>
</g>
<!-- Node1&#45;&gt;Node10 -->
<g id="edge12" class="edge"><title>Node1&#45;&gt;Node10</title>
<path fill="none" stroke="midnightblue" d="M777.504,-397.852C716.697,-392.125 599.237,-378.471 564.664,-356 526.41,-331.136 502.639,-280.536 492.079,-253.312"/>
<polygon fill="midnightblue" stroke="midnightblue" points="495.32,-251.986 488.569,-243.821 488.755,-254.414 495.32,-251.986"/>
</g>
<!-- Node11 -->
<g id="node12" class="node"><title>Node11</title>
<g id="a_node12"><a xlink:href="TileMap_8h.html" target="_top" xlink:title="TileMap.h">
<polygon fill="white" stroke="black" points="258.164,-280.5 258.164,-299.5 317.164,-299.5 317.164,-280.5 258.164,-280.5"/>
<text text-anchor="middle" x="287.664" y="-287.5" font-family="Helvetica,sans-Serif" font-size="10.00">TileMap.h</text>
</a>
</g>
</g>
<!-- Node1&#45;&gt;Node11 -->
<g id="edge15" class="edge"><title>Node1&#45;&gt;Node11</title>
<path fill="none" stroke="midnightblue" d="M777.584,-401.13C706.18,-400.444 545.28,-394.334 416.664,-356 376.813,-344.122 334.465,-320.361 309.575,-305.094"/>
<polygon fill="midnightblue" stroke="midnightblue" points="311.269,-302.026 300.932,-299.701 307.563,-307.964 311.269,-302.026"/>
</g>
<!-- Node12 -->
<g id="node13" class="node"><title>Node12</title>
<g id="a_node13"><a xlink:href="InputManager_8h.html" target="_top" xlink:title="InputManager.h">
<polygon fill="white" stroke="black" points="1264.66,-168.5 1264.66,-187.5 1348.66,-187.5 1348.66,-168.5 1264.66,-168.5"/>
<text text-anchor="middle" x="1306.66" y="-175.5" font-family="Helvetica,sans-Serif" font-size="10.00">InputManager.h</text>
</a>
</g>
</g>
<!-- Node1&#45;&gt;Node12 -->
<g id="edge19" class="edge"><title>Node1&#45;&gt;Node12</title>
<path fill="none" stroke="midnightblue" d="M851.714,-399.682C926.826,-396.41 1093.95,-385.897 1141.66,-356 1201.41,-318.56 1178.36,-272.362 1229.66,-224 1243.66,-210.808 1262.2,-199.823 1277.58,-192.009"/>
<polygon fill="midnightblue" stroke="midnightblue" points="1279.24,-195.098 1286.68,-187.563 1276.16,-188.808 1279.24,-195.098"/>
</g>
<!-- Node15 -->
<g id="node16" class="node"><title>Node15</title>
<g id="a_node16"><a xlink:href="ActionManager_8h.html" target="_top" xlink:title="ActionManager.h">
<polygon fill="white" stroke="black" points="1403.66,-224.5 1403.66,-243.5 1493.66,-243.5 1493.66,-224.5 1403.66,-224.5"/>
<text text-anchor="middle" x="1448.66" y="-231.5" font-family="Helvetica,sans-Serif" font-size="10.00">ActionManager.h</text>
</a>
</g>
</g>
<!-- Node1&#45;&gt;Node15 -->
<g id="edge23" class="edge"><title>Node1&#45;&gt;Node15</title>
<path fill="none" stroke="midnightblue" d="M851.722,-399.383C918.277,-395.83 1062.08,-385.189 1179.66,-356 1247.52,-339.156 1263.02,-328.939 1326.66,-300 1361.77,-284.039 1400.86,-262.509 1425.11,-248.687"/>
<polygon fill="midnightblue" stroke="midnightblue" points="1427.01,-251.634 1433.94,-243.622 1423.53,-245.563 1427.01,-251.634"/>
</g>
<!-- Node16 -->
<g id="node17" class="node"><title>Node16</title>
<g id="a_node17"><a xlink:href="State_8h.html" target="_top" xlink:title="State.h">
<polygon fill="white" stroke="black" points="720.664,-168.5 720.664,-187.5 768.664,-187.5 768.664,-168.5 720.664,-168.5"/>
<text text-anchor="middle" x="744.664" y="-175.5" font-family="Helvetica,sans-Serif" font-size="10.00">State.h</text>
</a>
</g>
</g>
<!-- Node1&#45;&gt;Node16 -->
<g id="edge25" class="edge"><title>Node1&#45;&gt;Node16</title>
<path fill="none" stroke="midnightblue" d="M811.515,-392.404C805.193,-375.038 790.62,-334.489 779.664,-300 768.176,-263.835 756.181,-221.106 749.645,-197.326"/>
<polygon fill="midnightblue" stroke="midnightblue" points="752.987,-196.278 746.974,-187.555 746.235,-198.124 752.987,-196.278"/>
</g>
<!-- Node17 -->
<g id="node18" class="node"><title>Node17</title>
<g id="a_node18"><a xlink:href="Music_8h.html" target="_top" xlink:title="Music.h">
<polygon fill="white" stroke="black" points="789.164,-280.5 789.164,-299.5 840.164,-299.5 840.164,-280.5 789.164,-280.5"/>
<text text-anchor="middle" x="814.664" y="-287.5" font-family="Helvetica,sans-Serif" font-size="10.00">Music.h</text>
</a>
</g>
</g>
<!-- Node1&#45;&gt;Node17 -->
<g id="edge29" class="edge"><title>Node1&#45;&gt;Node17</title>
<path fill="none" stroke="midnightblue" d="M814.664,-392.368C814.664,-374.617 814.664,-333.666 814.664,-309.597"/>
<polygon fill="midnightblue" stroke="midnightblue" points="818.164,-309.591 814.664,-299.591 811.164,-309.591 818.164,-309.591"/>
</g>
<!-- Node22 -->
<g id="node23" class="node"><title>Node22</title>
<g id="a_node23"><a xlink:href="EndState_8h.html" target="_top" xlink:title="EndState.h">
<polygon fill="white" stroke="black" points="847.164,-336.5 847.164,-355.5 912.164,-355.5 912.164,-336.5 847.164,-336.5"/>
<text text-anchor="middle" x="879.664" y="-343.5" font-family="Helvetica,sans-Serif" font-size="10.00">EndState.h</text>
</a>
</g>
</g>
<!-- Node1&#45;&gt;Node22 -->
<g id="edge38" class="edge"><title>Node1&#45;&gt;Node22</title>
<path fill="none" stroke="midnightblue" d="M820.231,-392.083C828.428,-383.826 843.087,-371.394 855.918,-361.675"/>
<polygon fill="midnightblue" stroke="midnightblue" points="858.003,-364.486 863.999,-355.751 853.865,-358.841 858.003,-364.486"/>
</g>
<!-- Node4&#45;&gt;Node3 -->
<g id="edge6" class="edge"><title>Node4&#45;&gt;Node3</title>
<path fill="none" stroke="midnightblue" d="M436.666,-168.916C464.746,-159.836 510.563,-145.021 542.534,-134.683"/>
<polygon fill="midnightblue" stroke="midnightblue" points="543.95,-137.903 552.388,-131.496 541.796,-131.243 543.95,-137.903"/>
</g>
<!-- Node5 -->
<g id="node6" class="node"><title>Node5</title>
<polygon fill="white" stroke="#bfbfbf" points="570.164,-56.5 570.164,-75.5 611.164,-75.5 611.164,-56.5 570.164,-56.5"/>
<text text-anchor="middle" x="590.664" y="-63.5" font-family="Helvetica,sans-Serif" font-size="10.00">string</text>
</g>
<!-- Node4&#45;&gt;Node5 -->
<g id="edge5" class="edge"><title>Node4&#45;&gt;Node5</title>
<path fill="none" stroke="midnightblue" d="M414.516,-168.49C419.589,-154.633 431.488,-127.214 450.664,-112 482.689,-86.5925 529.422,-75.3636 559.937,-70.5166"/>
<polygon fill="midnightblue" stroke="midnightblue" points="560.609,-73.9557 570.003,-69.0555 559.604,-67.0283 560.609,-73.9557"/>
</g>
<!-- Node6&#45;&gt;Node5 -->
<g id="edge11" class="edge"><title>Node6&#45;&gt;Node5</title>
<path fill="none" stroke="midnightblue" d="M665.365,-112.324C651.481,-103.9 630.172,-90.9709 613.86,-81.0741"/>
<polygon fill="midnightblue" stroke="midnightblue" points="615.293,-77.8495 604.928,-75.6545 611.662,-83.8341 615.293,-77.8495"/>
</g>
<!-- Node7 -->
<g id="node8" class="node"><title>Node7</title>
<g id="a_node8"><a xlink:href="Rect_8h.html" target="_top" xlink:title="Rect.h">
<polygon fill="white" stroke="black" points="1505.66,-56.5 1505.66,-75.5 1551.66,-75.5 1551.66,-56.5 1505.66,-56.5"/>
<text text-anchor="middle" x="1528.66" y="-63.5" font-family="Helvetica,sans-Serif" font-size="10.00">Rect.h</text>
</a>
</g>
</g>
<!-- Node6&#45;&gt;Node7 -->
<g id="edge8" class="edge"><title>Node6&#45;&gt;Node7</title>
<path fill="none" stroke="midnightblue" d="M718.587,-116.549C733.321,-114.963 750.253,-113.26 765.664,-112 1047.6,-88.9454 1389.08,-73.0826 1495.43,-68.4208"/>
<polygon fill="midnightblue" stroke="midnightblue" points="1495.7,-71.9123 1505.54,-67.9803 1495.4,-64.9189 1495.7,-71.9123"/>
</g>
<!-- Node8 -->
<g id="node9" class="node"><title>Node8</title>
<g id="a_node9"><a xlink:href="Vec2_8h.html" target="_top" xlink:title="Vec2.h">
<polygon fill="white" stroke="black" points="1022.16,-0.5 1022.16,-19.5 1069.16,-19.5 1069.16,-0.5 1022.16,-0.5"/>
<text text-anchor="middle" x="1045.66" y="-7.5" font-family="Helvetica,sans-Serif" font-size="10.00">Vec2.h</text>
</a>
</g>
</g>
<!-- Node7&#45;&gt;Node8 -->
<g id="edge9" class="edge"><title>Node7&#45;&gt;Node8</title>
<path fill="none" stroke="midnightblue" d="M1505.28,-58.7952C1500.78,-57.7493 1496.09,-56.7587 1491.66,-56 1339.23,-29.8985 1154.69,-17.2037 1079.76,-12.8299"/>
<polygon fill="midnightblue" stroke="midnightblue" points="1079.7,-9.32082 1069.51,-12.2444 1079.3,-16.3094 1079.7,-9.32082"/>
</g>
<!-- Node9 -->
<g id="node10" class="node"><title>Node9</title>
<polygon fill="white" stroke="#bfbfbf" points="1568.66,-0.5 1568.66,-19.5 1612.66,-19.5 1612.66,-0.5 1568.66,-0.5"/>
<text text-anchor="middle" x="1590.66" y="-7.5" font-family="Helvetica,sans-Serif" font-size="10.00">cmath</text>
</g>
<!-- Node7&#45;&gt;Node9 -->
<g id="edge10" class="edge"><title>Node7&#45;&gt;Node9</title>
<path fill="none" stroke="midnightblue" d="M1538.63,-56.324C1547.79,-48.3414 1561.6,-36.3128 1572.69,-26.6529"/>
<polygon fill="midnightblue" stroke="midnightblue" points="1575.28,-29.041 1580.52,-19.8339 1570.68,-23.7624 1575.28,-29.041"/>
</g>
<!-- Node10&#45;&gt;Node4 -->
<g id="edge14" class="edge"><title>Node10&#45;&gt;Node4</title>
<path fill="none" stroke="midnightblue" d="M473.775,-224.324C462.514,-216.107 445.377,-203.602 431.955,-193.807"/>
<polygon fill="midnightblue" stroke="midnightblue" points="433.911,-190.901 423.77,-187.834 429.784,-196.556 433.911,-190.901"/>
</g>
<!-- Node10&#45;&gt;Node5 -->
<g id="edge13" class="edge"><title>Node10&#45;&gt;Node5</title>
<path fill="none" stroke="midnightblue" d="M483.033,-224.46C477.069,-203.306 464.813,-147.619 488.664,-112 504.612,-88.1842 536.24,-76.8636 560.071,-71.5515"/>
<polygon fill="midnightblue" stroke="midnightblue" points="560.936,-74.9481 570.063,-69.5669 559.573,-68.0822 560.936,-74.9481"/>
</g>
<!-- Node11&#45;&gt;Node2 -->
<g id="edge17" class="edge"><title>Node11&#45;&gt;Node2</title>
<path fill="none" stroke="midnightblue" d="M260.763,-280.375C241.06,-273.051 214.569,-261.002 195.664,-244 162.593,-214.258 138.566,-166.823 127.137,-141.068"/>
<polygon fill="midnightblue" stroke="midnightblue" points="130.302,-139.568 123.14,-131.76 123.87,-142.33 130.302,-139.568"/>
</g>
<!-- Node11&#45;&gt;Node5 -->
<g id="edge16" class="edge"><title>Node11&#45;&gt;Node5</title>
<path fill="none" stroke="midnightblue" d="M288.5,-280.392C290.093,-267.336 294.467,-242.133 305.664,-224 344.682,-160.812 364.619,-147.836 429.664,-112 471.525,-88.9368 526.152,-76.9244 559.798,-71.2891"/>
<polygon fill="midnightblue" stroke="midnightblue" points="560.616,-74.7032 569.943,-69.6776 559.517,-67.7899 560.616,-74.7032"/>
</g>
<!-- Node11&#45;&gt;Node10 -->
<g id="edge18" class="edge"><title>Node11&#45;&gt;Node10</title>
<path fill="none" stroke="midnightblue" d="M317.307,-280.916C352.364,-271.355 410.74,-255.434 448.712,-245.078"/>
<polygon fill="midnightblue" stroke="midnightblue" points="449.645,-248.451 458.372,-242.443 447.803,-241.698 449.645,-248.451"/>
</g>
<!-- Node12&#45;&gt;Node8 -->
<g id="edge20" class="edge"><title>Node12&#45;&gt;Node8</title>
<path fill="none" stroke="midnightblue" d="M1293,-168.309C1250.45,-141.248 1120.07,-58.3239 1067.74,-25.0406"/>
<polygon fill="midnightblue" stroke="midnightblue" points="1069.51,-22.0185 1059.19,-19.6051 1065.75,-27.9251 1069.51,-22.0185"/>
</g>
<!-- Node13 -->
<g id="node14" class="node"><title>Node13</title>
<polygon fill="white" stroke="#bfbfbf" points="775.164,-112.5 775.164,-131.5 858.164,-131.5 858.164,-112.5 775.164,-112.5"/>
<text text-anchor="middle" x="816.664" y="-119.5" font-family="Helvetica,sans-Serif" font-size="10.00">unordered_map</text>
</g>
<!-- Node12&#45;&gt;Node13 -->
<g id="edge21" class="edge"><title>Node12&#45;&gt;Node13</title>
<path fill="none" stroke="midnightblue" d="M1264.5,-169.965C1259.84,-169.264 1255.15,-168.593 1250.66,-168 1112.93,-149.806 949.789,-134.584 868.341,-127.414"/>
<polygon fill="midnightblue" stroke="midnightblue" points="868.615,-123.925 858.348,-126.539 868.004,-130.898 868.615,-123.925"/>
</g>
<!-- Node14 -->
<g id="node15" class="node"><title>Node14</title>
<polygon fill="white" stroke="#bfbfbf" points="1283.66,-112.5 1283.66,-131.5 1329.66,-131.5 1329.66,-112.5 1283.66,-112.5"/>
<text text-anchor="middle" x="1306.66" y="-119.5" font-family="Helvetica,sans-Serif" font-size="10.00">cstdint</text>
</g>
<!-- Node12&#45;&gt;Node14 -->
<g id="edge22" class="edge"><title>Node12&#45;&gt;Node14</title>
<path fill="none" stroke="midnightblue" d="M1306.66,-168.083C1306.66,-161.006 1306.66,-150.861 1306.66,-141.986"/>
<polygon fill="midnightblue" stroke="midnightblue" points="1310.16,-141.751 1306.66,-131.751 1303.16,-141.751 1310.16,-141.751"/>
</g>
<!-- Node15&#45;&gt;Node12 -->
<g id="edge24" class="edge"><title>Node15&#45;&gt;Node12</title>
<path fill="none" stroke="midnightblue" d="M1426.16,-224.444C1402.59,-215.478 1365.34,-201.314 1338.7,-191.183"/>
<polygon fill="midnightblue" stroke="midnightblue" points="1339.65,-187.8 1329.06,-187.516 1337.16,-194.342 1339.65,-187.8"/>
</g>
<!-- Node16&#45;&gt;Node2 -->
<g id="edge27" class="edge"><title>Node16&#45;&gt;Node2</title>
<path fill="none" stroke="midnightblue" d="M720.546,-174.916C623.608,-166.541 262.299,-135.324 151.906,-125.786"/>
<polygon fill="midnightblue" stroke="midnightblue" points="151.996,-122.281 141.732,-124.907 151.394,-129.255 151.996,-122.281"/>
</g>
<!-- Node16&#45;&gt;Node3 -->
<g id="edge28" class="edge"><title>Node16&#45;&gt;Node3</title>
<path fill="none" stroke="midnightblue" d="M720.526,-169.148C692.695,-160.094 646.673,-145.123 614.622,-134.697"/>
<polygon fill="midnightblue" stroke="midnightblue" points="615.34,-131.25 604.748,-131.485 613.174,-137.907 615.34,-131.25"/>
</g>
<!-- Node16&#45;&gt;Node6 -->
<g id="edge26" class="edge"><title>Node16&#45;&gt;Node6</title>
<path fill="none" stroke="midnightblue" d="M734.221,-168.324C724.518,-160.263 709.849,-148.077 698.164,-138.369"/>
<polygon fill="midnightblue" stroke="midnightblue" points="700.226,-135.532 690.297,-131.834 695.753,-140.916 700.226,-135.532"/>
</g>
<!-- Node17&#45;&gt;Node5 -->
<g id="edge30" class="edge"><title>Node17&#45;&gt;Node5</title>
<path fill="none" stroke="midnightblue" d="M788.805,-283.167C732.153,-268.831 597.832,-225.983 543.664,-132 533.183,-113.815 551.336,-94.5107 568.04,-81.7095"/>
<polygon fill="midnightblue" stroke="midnightblue" points="570.4,-84.3234 576.483,-75.6485 566.318,-78.637 570.4,-84.3234"/>
</g>
<!-- Node18 -->
<g id="node19" class="node"><title>Node18</title>
<g id="a_node19"><a xlink:href="Resources_8h.html" target="_top" xlink:title="Resources.h">
<polygon fill="white" stroke="black" points="786.664,-168.5 786.664,-187.5 858.664,-187.5 858.664,-168.5 786.664,-168.5"/>
<text text-anchor="middle" x="822.664" y="-175.5" font-family="Helvetica,sans-Serif" font-size="10.00">Resources.h</text>
</a>
</g>
</g>
<!-- Node17&#45;&gt;Node18 -->
<g id="edge31" class="edge"><title>Node17&#45;&gt;Node18</title>
<path fill="none" stroke="midnightblue" d="M815.292,-280.368C816.583,-262.617 819.561,-221.666 821.311,-197.597"/>
<polygon fill="midnightblue" stroke="midnightblue" points="824.804,-197.819 822.039,-187.591 817.823,-197.311 824.804,-197.819"/>
</g>
<!-- Node17&#45;&gt;Node19 -->
<g id="edge35" class="edge"><title>Node17&#45;&gt;Node19</title>
<path fill="none" stroke="midnightblue" d="M840.293,-281.829C874.878,-272.153 936.531,-254.903 974.58,-244.257"/>
<polygon fill="midnightblue" stroke="midnightblue" points="975.956,-247.506 984.643,-241.441 974.07,-240.765 975.956,-247.506"/>
</g>
<!-- Node18&#45;&gt;Node3 -->
<g id="edge34" class="edge"><title>Node18&#45;&gt;Node3</title>
<path fill="none" stroke="midnightblue" d="M786.661,-169.032C740.445,-158.804 660.729,-141.162 614.563,-130.945"/>
<polygon fill="midnightblue" stroke="midnightblue" points="615.213,-127.504 604.693,-128.761 613.701,-134.339 615.213,-127.504"/>
</g>
<!-- Node18&#45;&gt;Node5 -->
<g id="edge32" class="edge"><title>Node18&#45;&gt;Node5</title>
<path fill="none" stroke="midnightblue" d="M812.039,-168.348C794.949,-154.778 759.892,-128.354 726.664,-112 691.886,-94.8833 649.044,-81.9286 620.849,-74.4128"/>
<polygon fill="midnightblue" stroke="midnightblue" points="621.725,-71.0243 611.166,-71.8922 619.962,-77.7986 621.725,-71.0243"/>
</g>
<!-- Node18&#45;&gt;Node13 -->
<g id="edge33" class="edge"><title>Node18&#45;&gt;Node13</title>
<path fill="none" stroke="midnightblue" d="M821.673,-168.083C820.878,-160.927 819.735,-150.635 818.741,-141.691"/>
<polygon fill="midnightblue" stroke="midnightblue" points="822.219,-141.303 817.636,-131.751 815.262,-142.076 822.219,-141.303"/>
</g>
<!-- Node20 -->
<g id="node21" class="node"><title>Node20</title>
<polygon fill="white" stroke="#bfbfbf" points="1116.66,-168.5 1116.66,-187.5 1170.66,-187.5 1170.66,-168.5 1116.66,-168.5"/>
<text text-anchor="middle" x="1143.66" y="-175.5" font-family="Helvetica,sans-Serif" font-size="10.00">iostream</text>
</g>
<!-- Node19&#45;&gt;Node20 -->
<g id="edge36" class="edge"><title>Node19&#45;&gt;Node20</title>
<path fill="none" stroke="midnightblue" d="M1029.21,-224.444C1051.7,-215.517 1087.15,-201.439 1112.64,-191.317"/>
<polygon fill="midnightblue" stroke="midnightblue" points="1114.21,-194.46 1122.22,-187.516 1111.63,-187.954 1114.21,-194.46"/>
</g>
<!-- Node21 -->
<g id="node22" class="node"><title>Node21</title>
<polygon fill="white" stroke="#bfbfbf" points="1050.66,-168.5 1050.66,-187.5 1098.66,-187.5 1098.66,-168.5 1050.66,-168.5"/>
<text text-anchor="middle" x="1074.66" y="-175.5" font-family="Helvetica,sans-Serif" font-size="10.00">stdlib.h</text>
</g>
<!-- Node19&#45;&gt;Node21 -->
<g id="edge37" class="edge"><title>Node19&#45;&gt;Node21</title>
<path fill="none" stroke="midnightblue" d="M1018.43,-224.324C1028.43,-216.263 1043.55,-204.077 1055.59,-194.369"/>
<polygon fill="midnightblue" stroke="midnightblue" points="1058.11,-196.834 1063.7,-187.834 1053.72,-191.384 1058.11,-196.834"/>
</g>
<!-- Node22&#45;&gt;Node1 -->
<g id="edge58" class="edge"><title>Node22&#45;&gt;Node1</title>
<path fill="none" stroke="midnightblue" d="M874.179,-355.834C865.983,-364.106 851.228,-376.62 838.337,-386.38"/>
<polygon fill="midnightblue" stroke="midnightblue" points="836.221,-383.591 830.222,-392.324 840.358,-389.238 836.221,-383.591"/>
</g>
<!-- Node22&#45;&gt;Node4 -->
<g id="edge40" class="edge"><title>Node22&#45;&gt;Node4</title>
<path fill="none" stroke="midnightblue" d="M855.488,-336.425C777.899,-308.904 535.027,-222.757 445.362,-190.953"/>
<polygon fill="midnightblue" stroke="midnightblue" points="446.29,-187.568 435.696,-187.524 443.95,-194.166 446.29,-187.568"/>
</g>
<!-- Node22&#45;&gt;Node6 -->
<g id="edge39" class="edge"><title>Node22&#45;&gt;Node6</title>
<path fill="none" stroke="midnightblue" d="M892.504,-336.213C923.911,-314.975 1007.54,-259.961 1082.66,-224 1127.56,-202.507 1213.3,-204.693 1179.66,-168 1148.46,-133.966 811.627,-136.403 765.664,-132 753.522,-130.837 740.425,-129.505 728.201,-128.23"/>
<polygon fill="midnightblue" stroke="midnightblue" points="728.49,-124.741 718.179,-127.176 727.758,-131.703 728.49,-124.741"/>
</g>
<!-- Node22&#45;&gt;Node12 -->
<g id="edge57" class="edge"><title>Node22&#45;&gt;Node12</title>
<path fill="none" stroke="midnightblue" d="M912.464,-340.013C950.327,-333.591 1014.02,-320.721 1065.66,-300 1128.13,-274.937 1136.26,-253.702 1196.66,-224 1221.87,-211.604 1251.38,-199.665 1273.49,-191.203"/>
<polygon fill="midnightblue" stroke="midnightblue" points="1274.97,-194.385 1283.08,-187.571 1272.49,-187.839 1274.97,-194.385"/>
</g>
<!-- Node22&#45;&gt;Node17 -->
<g id="edge41" class="edge"><title>Node22&#45;&gt;Node17</title>
<path fill="none" stroke="midnightblue" d="M869.221,-336.324C859.518,-328.263 844.849,-316.077 833.164,-306.369"/>
<polygon fill="midnightblue" stroke="midnightblue" points="835.226,-303.532 825.297,-299.834 830.753,-308.916 835.226,-303.532"/>
</g>
<!-- Node23 -->
<g id="node24" class="node"><title>Node23</title>
<g id="a_node24"><a xlink:href="Text_8h.html" target="_top" xlink:title="Text.h">
<polygon fill="white" stroke="black" points="864.664,-280.5 864.664,-299.5 908.664,-299.5 908.664,-280.5 864.664,-280.5"/>
<text text-anchor="middle" x="886.664" y="-287.5" font-family="Helvetica,sans-Serif" font-size="10.00">Text.h</text>
</a>
</g>
</g>
<!-- Node22&#45;&gt;Node23 -->
<g id="edge42" class="edge"><title>Node22&#45;&gt;Node23</title>
<path fill="none" stroke="midnightblue" d="M880.82,-336.083C881.747,-328.927 883.082,-318.635 884.241,-309.691"/>
<polygon fill="midnightblue" stroke="midnightblue" points="887.715,-310.118 885.53,-299.751 880.773,-309.218 887.715,-310.118"/>
</g>
<!-- Node22&#45;&gt;Node26 -->
<g id="edge54" class="edge"><title>Node22&#45;&gt;Node26</title>
<path fill="none" stroke="midnightblue" d="M912.325,-340.535C980.46,-331.22 1138.31,-309.641 1221.37,-298.286"/>
<polygon fill="midnightblue" stroke="midnightblue" points="1221.92,-301.743 1231.36,-296.92 1220.97,-294.807 1221.92,-301.743"/>
</g>
<!-- Node23&#45;&gt;Node3 -->
<g id="edge44" class="edge"><title>Node23&#45;&gt;Node3</title>
<path fill="none" stroke="midnightblue" d="M870.538,-280.309C820.017,-253.08 664.554,-169.292 603.575,-136.426"/>
<polygon fill="midnightblue" stroke="midnightblue" points="605.094,-133.269 594.63,-131.605 601.772,-139.431 605.094,-133.269"/>
</g>
<!-- Node23&#45;&gt;Node5 -->
<g id="edge45" class="edge"><title>Node23&#45;&gt;Node5</title>
<path fill="none" stroke="midnightblue" d="M888.91,-280.141C895.613,-251.413 912.297,-159.93 866.664,-112 833.515,-77.182 686.478,-69.3039 621.6,-67.5213"/>
<polygon fill="midnightblue" stroke="midnightblue" points="621.285,-64.0127 611.203,-67.2691 621.116,-71.0107 621.285,-64.0127"/>
</g>
<!-- Node23&#45;&gt;Node7 -->
<g id="edge43" class="edge"><title>Node23&#45;&gt;Node7</title>
<path fill="none" stroke="midnightblue" d="M908.888,-284.781C996.528,-268.068 1315.45,-206.525 1357.66,-188 1420.1,-160.6 1482.81,-108.431 1511.89,-82.4714"/>
<polygon fill="midnightblue" stroke="midnightblue" points="1514.42,-84.9026 1519.49,-75.5991 1509.73,-79.7109 1514.42,-84.9026"/>
</g>
<!-- Node23&#45;&gt;Node18 -->
<g id="edge46" class="edge"><title>Node23&#45;&gt;Node18</title>
<path fill="none" stroke="midnightblue" d="M881.642,-280.368C871.127,-262.296 846.621,-220.176 832.734,-196.307"/>
<polygon fill="midnightblue" stroke="midnightblue" points="835.717,-194.475 827.663,-187.591 829.666,-197.995 835.717,-194.475"/>
</g>
<!-- Node23&#45;&gt;Node19 -->
<g id="edge53" class="edge"><title>Node23&#45;&gt;Node19</title>
<path fill="none" stroke="midnightblue" d="M905.837,-280.444C925.573,-271.636 956.549,-257.812 979.157,-247.722"/>
<polygon fill="midnightblue" stroke="midnightblue" points="980.875,-250.788 988.581,-243.516 978.023,-244.396 980.875,-250.788"/>
</g>
<!-- Node23&#45;&gt;Node24 -->
<g id="edge47" class="edge"><title>Node23&#45;&gt;Node24</title>
<path fill="none" stroke="midnightblue" d="M895.581,-280.083C903.444,-272.22 915.095,-260.569 924.583,-251.081"/>
<polygon fill="midnightblue" stroke="midnightblue" points="927.317,-253.297 931.913,-243.751 922.367,-248.347 927.317,-253.297"/>
</g>
<!-- Node24&#45;&gt;Node5 -->
<g id="edge48" class="edge"><title>Node24&#45;&gt;Node5</title>
<path fill="none" stroke="midnightblue" d="M940.679,-224.307C940.207,-201.79 935.587,-141.287 900.664,-112 858.835,-76.9223 691.963,-69.1868 621.894,-67.4818"/>
<polygon fill="midnightblue" stroke="midnightblue" points="621.588,-63.9744 611.514,-67.2566 621.436,-70.9727 621.588,-63.9744"/>
</g>
<!-- Node24&#45;&gt;Node8 -->
<g id="edge52" class="edge"><title>Node24&#45;&gt;Node8</title>
<path fill="none" stroke="midnightblue" d="M944.78,-224.297C960.328,-191.425 1015.68,-74.3911 1037.11,-29.0904"/>
<polygon fill="midnightblue" stroke="midnightblue" points="1040.35,-30.4201 1041.46,-19.8837 1034.02,-27.4271 1040.35,-30.4201"/>
</g>
<!-- Node24&#45;&gt;Node12 -->
<g id="edge51" class="edge"><title>Node24&#45;&gt;Node12</title>
<path fill="none" stroke="midnightblue" d="M966.2,-226.067C969.374,-225.314 972.585,-224.603 975.664,-224 1073.44,-204.849 1189.07,-191.135 1254.54,-184.186"/>
<polygon fill="midnightblue" stroke="midnightblue" points="1255.03,-187.654 1264.61,-183.129 1254.29,-180.692 1255.03,-187.654"/>
</g>
<!-- Node24&#45;&gt;Node16 -->
<g id="edge50" class="edge"><title>Node24&#45;&gt;Node16</title>
<path fill="none" stroke="midnightblue" d="M915.04,-225.94C880.082,-216.309 817.363,-199.029 778.551,-188.336"/>
<polygon fill="midnightblue" stroke="midnightblue" points="779.326,-184.919 768.756,-185.638 777.467,-191.668 779.326,-184.919"/>
</g>
<!-- Node25 -->
<g id="node26" class="node"><title>Node25</title>
<polygon fill="white" stroke="#bfbfbf" points="991.164,-168.5 991.164,-187.5 1032.16,-187.5 1032.16,-168.5 991.164,-168.5"/>
<text text-anchor="middle" x="1011.66" y="-175.5" font-family="Helvetica,sans-Serif" font-size="10.00">stack</text>
</g>
<!-- Node24&#45;&gt;Node25 -->
<g id="edge49" class="edge"><title>Node24&#45;&gt;Node25</title>
<path fill="none" stroke="midnightblue" d="M952.071,-224.324C962.773,-216.185 979.005,-203.839 991.827,-194.087"/>
<polygon fill="midnightblue" stroke="midnightblue" points="994.208,-196.673 1000.05,-187.834 989.971,-191.102 994.208,-196.673"/>
</g>
<!-- Node27 -->
<g id="node28" class="node"><title>Node27</title>
<g id="a_node28"><a xlink:href="StateData_8h.html" target="_top" xlink:title="StateData.h">
<polygon fill="white" stroke="black" points="1316.16,-224.5 1316.16,-243.5 1385.16,-243.5 1385.16,-224.5 1316.16,-224.5"/>
<text text-anchor="middle" x="1350.66" y="-231.5" font-family="Helvetica,sans-Serif" font-size="10.00">StateData.h</text>
</a>
</g>
</g>
<!-- Node26&#45;&gt;Node27 -->
<g id="edge55" class="edge"><title>Node26&#45;&gt;Node27</title>
<path fill="none" stroke="midnightblue" d="M1286.87,-280.324C1298.44,-272.107 1316.04,-259.602 1329.82,-249.807"/>
<polygon fill="midnightblue" stroke="midnightblue" points="1332.11,-252.479 1338.23,-243.834 1328.05,-246.773 1332.11,-252.479"/>
</g>
<!-- Node28 -->
<g id="node29" class="node"><title>Node28</title>
<g id="a_node29"><a xlink:href="Defines_8h.html" target="_top" xlink:title="Defines.h">
<polygon fill="white" stroke="black" points="1239.16,-224.5 1239.16,-243.5 1298.16,-243.5 1298.16,-224.5 1239.16,-224.5"/>
<text text-anchor="middle" x="1268.66" y="-231.5" font-family="Helvetica,sans-Serif" font-size="10.00">Defines.h</text>
</a>
</g>
</g>
<!-- Node26&#45;&gt;Node28 -->
<g id="edge56" class="edge"><title>Node26&#45;&gt;Node28</title>
<path fill="none" stroke="midnightblue" d="M1273.67,-280.083C1272.88,-272.927 1271.73,-262.635 1270.74,-253.691"/>
<polygon fill="midnightblue" stroke="midnightblue" points="1274.22,-253.303 1269.64,-243.751 1267.26,-254.076 1274.22,-253.303"/>
</g>
<!-- Node29&#45;&gt;Node6 -->
<g id="edge62" class="edge"><title>Node29&#45;&gt;Node6</title>
<path fill="none" stroke="midnightblue" d="M1491.33,-280.252C1500.53,-267.014 1514.72,-241.575 1502.66,-224 1463.59,-167.027 1425.16,-182.715 1357.66,-168 1100.12,-111.853 1028.36,-153.723 765.664,-132 753.625,-131.004 740.657,-129.746 728.534,-128.487"/>
<polygon fill="midnightblue" stroke="midnightblue" points="728.901,-125.007 718.589,-127.436 728.165,-131.968 728.901,-125.007"/>
</g>
<!-- Node29&#45;&gt;Node8 -->
<g id="edge63" class="edge"><title>Node29&#45;&gt;Node8</title>
<path fill="none" stroke="midnightblue" d="M1495.52,-280.125C1509.51,-267.569 1530.77,-243.929 1519.66,-224 1473.62,-141.362 1424.13,-152.553 1338.66,-112 1248.28,-69.1148 1134.63,-35.2471 1079.19,-19.9197"/>
<polygon fill="midnightblue" stroke="midnightblue" points="1080.1,-16.5409 1069.53,-17.2755 1078.25,-23.2923 1080.1,-16.5409"/>
</g>
<!-- Node29&#45;&gt;Node15 -->
<g id="edge64" class="edge"><title>Node29&#45;&gt;Node15</title>
<path fill="none" stroke="midnightblue" d="M1478.72,-280.083C1473.69,-272.534 1466.33,-261.495 1460.15,-252.23"/>
<polygon fill="midnightblue" stroke="midnightblue" points="1462.96,-250.13 1454.5,-243.751 1457.13,-254.013 1462.96,-250.13"/>
</g>
<!-- Node30&#45;&gt;Node2 -->
<g id="edge75" class="edge"><title>Node30&#45;&gt;Node2</title>
<path fill="none" stroke="midnightblue" d="M173.157,-281.088C156.485,-274.128 135.261,-262.222 124.664,-244 106.057,-212.005 110.676,-166.796 115.377,-141.676"/>
<polygon fill="midnightblue" stroke="midnightblue" points="118.849,-142.171 117.459,-131.667 111.995,-140.745 118.849,-142.171"/>
</g>
<!-- Node30&#45;&gt;Node4 -->
<g id="edge71" class="edge"><title>Node30&#45;&gt;Node4</title>
<path fill="none" stroke="midnightblue" d="M193.362,-280.291C188.811,-266.642 182.563,-240.112 195.664,-224 218.027,-196.498 320.946,-185.242 376.259,-181.116"/>
<polygon fill="midnightblue" stroke="midnightblue" points="376.598,-184.6 386.326,-180.404 376.104,-177.618 376.598,-184.6"/>
</g>
<!-- Node30&#45;&gt;Node6 -->
<g id="edge70" class="edge"><title>Node30&#45;&gt;Node6</title>
<path fill="none" stroke="midnightblue" d="M220.187,-284.722C229.095,-283.156 239.335,-281.422 248.664,-280 369.651,-261.561 408.579,-290.793 521.664,-244 581.554,-219.219 638.513,-165.782 664.677,-138.993"/>
<polygon fill="midnightblue" stroke="midnightblue" points="667.378,-141.234 671.778,-131.597 662.328,-136.387 667.378,-141.234"/>
</g>
<!-- Node30&#45;&gt;Node8 -->
<g id="edge72" class="edge"><title>Node30&#45;&gt;Node8</title>
<path fill="none" stroke="midnightblue" d="M173.111,-289.936C135.51,-290.096 61.8691,-284.736 19.664,-244 -1.99194,-223.098 0.66398,-209.098 0.66398,-179 0.66398,-179 0.66398,-179 0.66398,-121 0.66398,-16.8642 832.012,-10.9829 1011.69,-10.9278"/>
<polygon fill="midnightblue" stroke="midnightblue" points="1011.87,-14.4278 1021.87,-10.9309 1011.88,-7.42777 1011.87,-14.4278"/>
</g>
<!-- Node31 -->
<g id="node32" class="node"><title>Node31</title>
<g id="a_node32"><a xlink:href="Minion_8h.html" target="_top" xlink:title="Minion.h">
<polygon fill="white" stroke="black" points="205.164,-224.5 205.164,-243.5 258.164,-243.5 258.164,-224.5 205.164,-224.5"/>
<text text-anchor="middle" x="231.664" y="-231.5" font-family="Helvetica,sans-Serif" font-size="10.00">Minion.h</text>
</a>
</g>
</g>
<!-- Node30&#45;&gt;Node31 -->
<g id="edge66" class="edge"><title>Node30&#45;&gt;Node31</title>
<path fill="none" stroke="midnightblue" d="M202.444,-280.083C207.336,-272.534 214.491,-261.495 220.497,-252.23"/>
<polygon fill="midnightblue" stroke="midnightblue" points="223.49,-254.046 225.992,-243.751 217.616,-250.239 223.49,-254.046"/>
</g>
<!-- Node32 -->
<g id="node33" class="node"><title>Node32</title>
<g id="a_node33"><a xlink:href="Timer_8h.html" target="_top" xlink:title="Timer.h">
<polygon fill="white" stroke="black" points="314.664,-224.5 314.664,-243.5 364.664,-243.5 364.664,-224.5 314.664,-224.5"/>
<text text-anchor="middle" x="339.664" y="-231.5" font-family="Helvetica,sans-Serif" font-size="10.00">Timer.h</text>
</a>
</g>
</g>
<!-- Node30&#45;&gt;Node32 -->
<g id="edge73" class="edge"><title>Node30&#45;&gt;Node32</title>
<path fill="none" stroke="midnightblue" d="M219.323,-280.444C243.066,-271.478 280.573,-257.314 307.402,-247.183"/>
<polygon fill="midnightblue" stroke="midnightblue" points="308.992,-250.324 317.111,-243.516 306.52,-243.775 308.992,-250.324"/>
</g>
<!-- Node33 -->
<g id="node34" class="node"><title>Node33</title>
<polygon fill="white" stroke="#bfbfbf" points="29.164,-224.5 29.164,-243.5 72.164,-243.5 72.164,-224.5 29.164,-224.5"/>
<text text-anchor="middle" x="50.664" y="-231.5" font-family="Helvetica,sans-Serif" font-size="10.00">queue</text>
</g>
<!-- Node30&#45;&gt;Node33 -->
<g id="edge74" class="edge"><title>Node30&#45;&gt;Node33</title>
<path fill="none" stroke="midnightblue" d="M173.53,-280.444C148.752,-271.279 109.293,-256.685 81.8001,-246.516"/>
<polygon fill="midnightblue" stroke="midnightblue" points="82.8552,-243.175 72.262,-242.988 80.4269,-249.74 82.8552,-243.175"/>
</g>
<!-- Node31&#45;&gt;Node4 -->
<g id="edge69" class="edge"><title>Node31&#45;&gt;Node4</title>
<path fill="none" stroke="midnightblue" d="M258.224,-225.032C289.643,-215.606 342.05,-199.884 376.734,-189.479"/>
<polygon fill="midnightblue" stroke="midnightblue" points="377.877,-192.79 386.449,-186.564 375.865,-186.086 377.877,-192.79"/>
</g>
<!-- Node31&#45;&gt;Node6 -->
<g id="edge67" class="edge"><title>Node31&#45;&gt;Node6</title>
<path fill="none" stroke="midnightblue" d="M258.477,-227.931C299.13,-220.118 378.717,-204.319 445.664,-188 515.121,-171.069 595.224,-148.051 641.4,-134.437"/>
<polygon fill="midnightblue" stroke="midnightblue" points="642.402,-137.79 650.999,-131.598 640.417,-131.078 642.402,-137.79"/>
</g>
<!-- Node31&#45;&gt;Node8 -->
<g id="edge68" class="edge"><title>Node31&#45;&gt;Node8</title>
<path fill="none" stroke="midnightblue" d="M240.659,-224.46C263.881,-202.821 328.461,-145.205 391.664,-112 461.713,-75.199 483.214,-72.2043 560.664,-56 727.465,-21.1016 932.198,-13.2615 1011.78,-11.505"/>
<polygon fill="midnightblue" stroke="midnightblue" points="1012.24,-14.9967 1022.16,-11.2954 1012.09,-7.9981 1012.24,-14.9967"/>
</g>
<!-- Node34&#45;&gt;Node4 -->
<g id="edge78" class="edge"><title>Node34&#45;&gt;Node4</title>
<path fill="none" stroke="midnightblue" d="M372.038,-280.368C379.04,-262.456 395.276,-220.923 404.648,-196.948"/>
<polygon fill="midnightblue" stroke="midnightblue" points="407.924,-198.179 408.306,-187.591 401.405,-195.631 407.924,-198.179"/>
</g>
<!-- Node34&#45;&gt;Node6 -->
<g id="edge77" class="edge"><title>Node34&#45;&gt;Node6</title>
<path fill="none" stroke="midnightblue" d="M401.311,-288.97C471.372,-288.166 632.704,-282.117 668.664,-244 694.628,-216.478 689.608,-168.119 684.276,-141.635"/>
<polygon fill="midnightblue" stroke="midnightblue" points="687.663,-140.741 682.061,-131.748 680.832,-142.272 687.663,-140.741"/>
</g>
<!-- Node34&#45;&gt;Node32 -->
<g id="edge79" class="edge"><title>Node34&#45;&gt;Node32</title>
<path fill="none" stroke="midnightblue" d="M363.875,-280.083C359.906,-272.691 354.139,-261.953 349.229,-252.811"/>
<polygon fill="midnightblue" stroke="midnightblue" points="352.178,-250.905 344.364,-243.751 346.011,-254.217 352.178,-250.905"/>
</g>
<!-- Node35&#45;&gt;Node7 -->
<g id="edge83" class="edge"><title>Node35&#45;&gt;Node7</title>
<path fill="none" stroke="midnightblue" d="M1586.58,-112.324C1576.18,-104.185 1560.4,-91.8395 1547.94,-82.0874"/>
<polygon fill="midnightblue" stroke="midnightblue" points="1549.98,-79.2407 1539.95,-75.8339 1545.67,-84.7533 1549.98,-79.2407"/>
</g>
<!-- Node35&#45;&gt;Node9 -->
<g id="edge81" class="edge"><title>Node35&#45;&gt;Node9</title>
<path fill="none" stroke="midnightblue" d="M1608.77,-112.124C1622.57,-99.9493 1643.29,-77.1626 1634.66,-56 1629.86,-44.2251 1620.34,-33.8564 1611.37,-26.0486"/>
<polygon fill="midnightblue" stroke="midnightblue" points="1613.42,-23.2048 1603.44,-19.6314 1609.01,-28.6448 1613.42,-23.2048"/>
</g>
<!-- Node36 -->
<g id="node37" class="node"><title>Node36</title>
<polygon fill="white" stroke="#bfbfbf" points="1569.66,-56.5 1569.66,-75.5 1625.66,-75.5 1625.66,-56.5 1569.66,-56.5"/>
<text text-anchor="middle" x="1597.66" y="-63.5" font-family="Helvetica,sans-Serif" font-size="10.00">algorithm</text>
</g>
<!-- Node35&#45;&gt;Node36 -->
<g id="edge82" class="edge"><title>Node35&#45;&gt;Node36</title>
<path fill="none" stroke="midnightblue" d="M1597.66,-112.083C1597.66,-105.006 1597.66,-94.8611 1597.66,-85.9865"/>
<polygon fill="midnightblue" stroke="midnightblue" points="1601.16,-85.751 1597.66,-75.7511 1594.16,-85.7511 1601.16,-85.751"/>
</g>
</g>
</svg>
