<?xml version="1.0" encoding="UTF-8" standalone="no"?>
<!DOCTYPE svg PUBLIC "-//W3C//DTD SVG 1.1//EN"
 "http://www.w3.org/Graphics/SVG/1.1/DTD/svg11.dtd">
<!-- Generated by graphviz version 2.38.0 (20140413.2041)
 -->
<!-- Title: Game/include/StageState.h Pages: 1 -->
<svg width="1172pt" height="420pt"
 viewBox="0.00 0.00 1172.12 420.00" xmlns="http://www.w3.org/2000/svg" xmlns:xlink="http://www.w3.org/1999/xlink">
<g id="graph0" class="graph" transform="scale(1 1) rotate(0) translate(4 416)">
<title>Game/include/StageState.h</title>
<polygon fill="white" stroke="none" points="-4,4 -4,-416 1168.12,-416 1168.12,4 -4,4"/>
<!-- Node1 -->
<g id="node1" class="node"><title>Node1</title>
<polygon fill="#bfbfbf" stroke="black" points="376.5,-392.5 376.5,-411.5 513.5,-411.5 513.5,-392.5 376.5,-392.5"/>
<text text-anchor="middle" x="445" y="-399.5" font-family="Helvetica,sans-Serif" font-size="10.00">Game/include/StageState.h</text>
</g>
<!-- Node2 -->
<g id="node2" class="node"><title>Node2</title>
<polygon fill="white" stroke="#bfbfbf" points="73,-56.5 73,-75.5 117,-75.5 117,-56.5 73,-56.5"/>
<text text-anchor="middle" x="95" y="-63.5" font-family="Helvetica,sans-Serif" font-size="10.00">vector</text>
</g>
<!-- Node1&#45;&gt;Node2 -->
<g id="edge1" class="edge"><title>Node1&#45;&gt;Node2</title>
<path fill="none" stroke="midnightblue" d="M376.444,-398.192C251.618,-391.197 0,-367.598 0,-291 0,-291 0,-291 0,-233 0,-170.743 50.9577,-110.637 78.2312,-82.9258"/>
<polygon fill="midnightblue" stroke="midnightblue" points="80.8936,-85.2154 85.5437,-75.6955 75.9719,-80.2377 80.8936,-85.2154"/>
</g>
<!-- Node3 -->
<g id="node3" class="node"><title>Node3</title>
<polygon fill="white" stroke="#bfbfbf" points="575,-56.5 575,-75.5 627,-75.5 627,-56.5 575,-56.5"/>
<text text-anchor="middle" x="601" y="-63.5" font-family="Helvetica,sans-Serif" font-size="10.00">memory</text>
</g>
<!-- Node1&#45;&gt;Node3 -->
<g id="edge2" class="edge"><title>Node1&#45;&gt;Node3</title>
<path fill="none" stroke="midnightblue" d="M441.912,-392.173C438.948,-383.198 434.681,-368.827 433,-356 425.321,-297.405 419.869,-275.417 449,-224 483.849,-162.489 548.504,-107.339 581.106,-81.882"/>
<polygon fill="midnightblue" stroke="midnightblue" points="583.241,-84.6558 589.034,-75.7854 578.973,-79.1067 583.241,-84.6558"/>
</g>
<!-- Node4 -->
<g id="node4" class="node"><title>Node4</title>
<g id="a_node4"><a xlink:href="ActionManager_8h.html" target="_top" xlink:title="ActionManager.h">
<polygon fill="white" stroke="black" points="1045,-336.5 1045,-355.5 1135,-355.5 1135,-336.5 1045,-336.5"/>
<text text-anchor="middle" x="1090" y="-343.5" font-family="Helvetica,sans-Serif" font-size="10.00">ActionManager.h</text>
</a>
</g>
</g>
<!-- Node1&#45;&gt;Node4 -->
<g id="edge3" class="edge"><title>Node1&#45;&gt;Node4</title>
<path fill="none" stroke="midnightblue" d="M513.723,-397.392C623.35,-391.261 844.473,-377.358 1031,-356 1032.27,-355.854 1033.56,-355.701 1034.86,-355.543"/>
<polygon fill="midnightblue" stroke="midnightblue" points="1035.49,-358.991 1044.95,-354.227 1034.58,-352.05 1035.49,-358.991"/>
</g>
<!-- Node5 -->
<g id="node5" class="node"><title>Node5</title>
<g id="a_node5"><a xlink:href="InputManager_8h.html" target="_top" xlink:title="InputManager.h">
<polygon fill="white" stroke="black" points="910,-112.5 910,-131.5 994,-131.5 994,-112.5 910,-112.5"/>
<text text-anchor="middle" x="952" y="-119.5" font-family="Helvetica,sans-Serif" font-size="10.00">InputManager.h</text>
</a>
</g>
</g>
<!-- Node1&#45;&gt;Node5 -->
<g id="edge17" class="edge"><title>Node1&#45;&gt;Node5</title>
<path fill="none" stroke="midnightblue" d="M513.508,-400.985C679.955,-400.333 1095.57,-394.796 1144,-356 1167.49,-337.184 1163,-321.098 1163,-291 1163,-291 1163,-291 1163,-233 1163,-161.583 1066.78,-136.459 1004.29,-127.672"/>
<polygon fill="midnightblue" stroke="midnightblue" points="1004.56,-124.178 994.192,-126.352 1003.65,-131.119 1004.56,-124.178"/>
</g>
<!-- Node9 -->
<g id="node9" class="node"><title>Node9</title>
<g id="a_node9"><a xlink:href="GameObject_8h.html" target="_top" xlink:title="GameObject.h">
<polygon fill="white" stroke="black" points="196,-112.5 196,-131.5 276,-131.5 276,-112.5 196,-112.5"/>
<text text-anchor="middle" x="236" y="-119.5" font-family="Helvetica,sans-Serif" font-size="10.00">GameObject.h</text>
</a>
</g>
</g>
<!-- Node1&#45;&gt;Node9 -->
<g id="edge8" class="edge"><title>Node1&#45;&gt;Node9</title>
<path fill="none" stroke="midnightblue" d="M376.329,-399.73C300.802,-394.256 190,-372.361 190,-291 190,-291 190,-291 190,-233 190,-197.817 210.278,-160.863 223.907,-139.999"/>
<polygon fill="midnightblue" stroke="midnightblue" points="226.881,-141.848 229.604,-131.609 221.09,-137.916 226.881,-141.848"/>
</g>
<!-- Node14 -->
<g id="node14" class="node"><title>Node14</title>
<g id="a_node14"><a xlink:href="Music_8h.html" target="_top" xlink:title="Music.h">
<polygon fill="white" stroke="black" points="796.5,-168.5 796.5,-187.5 847.5,-187.5 847.5,-168.5 796.5,-168.5"/>
<text text-anchor="middle" x="822" y="-175.5" font-family="Helvetica,sans-Serif" font-size="10.00">Music.h</text>
</a>
</g>
</g>
<!-- Node1&#45;&gt;Node14 -->
<g id="edge18" class="edge"><title>Node1&#45;&gt;Node14</title>
<path fill="none" stroke="midnightblue" d="M513.757,-399.815C618.252,-395.453 820.847,-376.807 972,-300 1004.52,-283.475 1017.46,-277.455 1032,-244 1035.54,-235.848 1037.59,-230.913 1032,-224 1010.52,-197.428 912.156,-185.838 858.007,-181.398"/>
<polygon fill="midnightblue" stroke="midnightblue" points="858.045,-177.89 847.803,-180.603 857.501,-184.869 858.045,-177.89"/>
</g>
<!-- Node19 -->
<g id="node19" class="node"><title>Node19</title>
<g id="a_node19"><a xlink:href="Sprite_8h.html" target="_top" xlink:title="Sprite.h">
<polygon fill="white" stroke="black" points="333,-112.5 333,-131.5 383,-131.5 383,-112.5 333,-112.5"/>
<text text-anchor="middle" x="358" y="-119.5" font-family="Helvetica,sans-Serif" font-size="10.00">Sprite.h</text>
</a>
</g>
</g>
<!-- Node1&#45;&gt;Node19 -->
<g id="edge29" class="edge"><title>Node1&#45;&gt;Node19</title>
<path fill="none" stroke="midnightblue" d="M376.34,-394.706C312.766,-384.654 228,-358.58 228,-291 228,-291 228,-291 228,-233 228,-182.851 285.075,-150.865 323.589,-134.99"/>
<polygon fill="midnightblue" stroke="midnightblue" points="324.919,-138.228 332.935,-131.3 322.348,-131.717 324.919,-138.228"/>
</g>
<!-- Node21 -->
<g id="node21" class="node"><title>Node21</title>
<g id="a_node21"><a xlink:href="State_8h.html" target="_top" xlink:title="State.h">
<polygon fill="white" stroke="black" points="556,-168.5 556,-187.5 604,-187.5 604,-168.5 556,-168.5"/>
<text text-anchor="middle" x="580" y="-175.5" font-family="Helvetica,sans-Serif" font-size="10.00">State.h</text>
</a>
</g>
</g>
<!-- Node1&#45;&gt;Node21 -->
<g id="edge34" class="edge"><title>Node1&#45;&gt;Node21</title>
<path fill="none" stroke="midnightblue" d="M443.039,-392.119C437.396,-364.086 423.96,-276.252 464,-224 483.37,-198.722 518.902,-187.634 545.557,-182.776"/>
<polygon fill="midnightblue" stroke="midnightblue" points="546.327,-186.198 555.643,-181.153 545.214,-179.286 546.327,-186.198"/>
</g>
<!-- Node22 -->
<g id="node22" class="node"><title>Node22</title>
<g id="a_node22"><a xlink:href="TileMap_8h.html" target="_top" xlink:title="TileMap.h">
<polygon fill="white" stroke="black" points="93.5,-224.5 93.5,-243.5 152.5,-243.5 152.5,-224.5 93.5,-224.5"/>
<text text-anchor="middle" x="123" y="-231.5" font-family="Helvetica,sans-Serif" font-size="10.00">TileMap.h</text>
</a>
</g>
</g>
<!-- Node1&#45;&gt;Node22 -->
<g id="edge40" class="edge"><title>Node1&#45;&gt;Node22</title>
<path fill="none" stroke="midnightblue" d="M376.344,-396.889C307.174,-391.475 206.442,-379.717 176,-356 143.39,-330.594 130.426,-280.978 125.61,-253.84"/>
<polygon fill="midnightblue" stroke="midnightblue" points="129.029,-253.053 124.011,-243.722 122.115,-254.145 129.029,-253.053"/>
</g>
<!-- Node23 -->
<g id="node23" class="node"><title>Node23</title>
<g id="a_node23"><a xlink:href="Tileset_8h.html" target="_top" xlink:title="Tileset.h">
<polygon fill="white" stroke="black" points="332,-168.5 332,-187.5 386,-187.5 386,-168.5 332,-168.5"/>
<text text-anchor="middle" x="359" y="-175.5" font-family="Helvetica,sans-Serif" font-size="10.00">Tileset.h</text>
</a>
</g>
</g>
<!-- Node1&#45;&gt;Node23 -->
<g id="edge48" class="edge"><title>Node1&#45;&gt;Node23</title>
<path fill="none" stroke="midnightblue" d="M431.243,-392.209C419.563,-384.097 403.13,-371.056 393,-356 358.92,-305.349 352.295,-284.989 355,-224 355.383,-215.372 356.176,-205.841 356.956,-197.78"/>
<polygon fill="midnightblue" stroke="midnightblue" points="360.461,-197.918 358.006,-187.612 353.498,-197.199 360.461,-197.918"/>
</g>
<!-- Node24 -->
<g id="node24" class="node"><title>Node24</title>
<g id="a_node24"><a xlink:href="Timer_8h.html" target="_top" xlink:title="Timer.h">
<polygon fill="white" stroke="black" points="473,-224.5 473,-243.5 523,-243.5 523,-224.5 473,-224.5"/>
<text text-anchor="middle" x="498" y="-231.5" font-family="Helvetica,sans-Serif" font-size="10.00">Timer.h</text>
</a>
</g>
</g>
<!-- Node1&#45;&gt;Node24 -->
<g id="edge49" class="edge"><title>Node1&#45;&gt;Node24</title>
<path fill="none" stroke="midnightblue" d="M447.85,-392.075C456.228,-365.832 480.904,-288.545 492.216,-253.117"/>
<polygon fill="midnightblue" stroke="midnightblue" points="495.557,-254.159 495.264,-243.568 488.889,-252.03 495.557,-254.159"/>
</g>
<!-- Node25 -->
<g id="node25" class="node"><title>Node25</title>
<g id="a_node25"><a xlink:href="EndState_8h.html" target="_top" xlink:title="EndState.h">
<polygon fill="white" stroke="black" points="589.5,-336.5 589.5,-355.5 654.5,-355.5 654.5,-336.5 589.5,-336.5"/>
<text text-anchor="middle" x="622" y="-343.5" font-family="Helvetica,sans-Serif" font-size="10.00">EndState.h</text>
</a>
</g>
</g>
<!-- Node1&#45;&gt;Node25 -->
<g id="edge50" class="edge"><title>Node1&#45;&gt;Node25</title>
<path fill="none" stroke="midnightblue" d="M467.957,-392.444C496.187,-383.214 544.321,-368.475 579.356,-358.298"/>
<polygon fill="midnightblue" stroke="midnightblue" points="580.677,-361.56 589.316,-355.428 578.738,-354.834 580.677,-361.56"/>
</g>
<!-- Node4&#45;&gt;Node5 -->
<g id="edge4" class="edge"><title>Node4&#45;&gt;Node5</title>
<path fill="none" stroke="midnightblue" d="M1090.12,-336.438C1090.05,-315.699 1087.63,-261.711 1066,-224 1043.99,-185.633 1002.07,-154.282 975.657,-137.16"/>
<polygon fill="midnightblue" stroke="midnightblue" points="977.344,-134.086 967.019,-131.709 973.608,-140.006 977.344,-134.086"/>
</g>
<!-- Node6 -->
<g id="node6" class="node"><title>Node6</title>
<g id="a_node6"><a xlink:href="Vec2_8h.html" target="_top" xlink:title="Vec2.h">
<polygon fill="white" stroke="black" points="525.5,-0.5 525.5,-19.5 572.5,-19.5 572.5,-0.5 525.5,-0.5"/>
<text text-anchor="middle" x="549" y="-7.5" font-family="Helvetica,sans-Serif" font-size="10.00">Vec2.h</text>
</a>
</g>
</g>
<!-- Node5&#45;&gt;Node6 -->
<g id="edge5" class="edge"><title>Node5&#45;&gt;Node6</title>
<path fill="none" stroke="midnightblue" d="M960.777,-112.432C973.517,-98.9759 994.048,-72.7055 979,-56 952.579,-26.6702 679.224,-15.1569 582.604,-11.9841"/>
<polygon fill="midnightblue" stroke="midnightblue" points="582.612,-8.48265 572.505,-11.6619 582.388,-15.4791 582.612,-8.48265"/>
</g>
<!-- Node7 -->
<g id="node7" class="node"><title>Node7</title>
<polygon fill="white" stroke="#bfbfbf" points="814.5,-56.5 814.5,-75.5 897.5,-75.5 897.5,-56.5 814.5,-56.5"/>
<text text-anchor="middle" x="856" y="-63.5" font-family="Helvetica,sans-Serif" font-size="10.00">unordered_map</text>
</g>
<!-- Node5&#45;&gt;Node7 -->
<g id="edge6" class="edge"><title>Node5&#45;&gt;Node7</title>
<path fill="none" stroke="midnightblue" d="M936.576,-112.324C921.46,-103.822 898.185,-90.7288 880.529,-80.7975"/>
<polygon fill="midnightblue" stroke="midnightblue" points="881.817,-77.5066 871.386,-75.6545 878.386,-83.6077 881.817,-77.5066"/>
</g>
<!-- Node8 -->
<g id="node8" class="node"><title>Node8</title>
<polygon fill="white" stroke="#bfbfbf" points="1026,-56.5 1026,-75.5 1072,-75.5 1072,-56.5 1026,-56.5"/>
<text text-anchor="middle" x="1049" y="-63.5" font-family="Helvetica,sans-Serif" font-size="10.00">cstdint</text>
</g>
<!-- Node5&#45;&gt;Node8 -->
<g id="edge7" class="edge"><title>Node5&#45;&gt;Node8</title>
<path fill="none" stroke="midnightblue" d="M967.585,-112.324C982.999,-103.743 1006.81,-90.486 1024.71,-80.5224"/>
<polygon fill="midnightblue" stroke="midnightblue" points="1026.42,-83.5767 1033.45,-75.6545 1023.01,-77.4606 1026.42,-83.5767"/>
</g>
<!-- Node9&#45;&gt;Node2 -->
<g id="edge11" class="edge"><title>Node9&#45;&gt;Node2</title>
<path fill="none" stroke="midnightblue" d="M213.658,-112.444C190.247,-103.478 153.264,-89.314 126.81,-79.1827"/>
<polygon fill="midnightblue" stroke="midnightblue" points="127.828,-75.8245 117.237,-75.5164 125.324,-82.3615 127.828,-75.8245"/>
</g>
<!-- Node9&#45;&gt;Node3 -->
<g id="edge9" class="edge"><title>Node9&#45;&gt;Node3</title>
<path fill="none" stroke="midnightblue" d="M276.105,-115.067C347.621,-104.486 496.086,-82.5216 564.737,-72.365"/>
<polygon fill="midnightblue" stroke="midnightblue" points="565.277,-75.8232 574.657,-70.8973 564.253,-68.8986 565.277,-75.8232"/>
</g>
<!-- Node10 -->
<g id="node10" class="node"><title>Node10</title>
<polygon fill="white" stroke="#bfbfbf" points="425.5,-56.5 425.5,-75.5 466.5,-75.5 466.5,-56.5 425.5,-56.5"/>
<text text-anchor="middle" x="446" y="-63.5" font-family="Helvetica,sans-Serif" font-size="10.00">string</text>
</g>
<!-- Node9&#45;&gt;Node10 -->
<g id="edge10" class="edge"><title>Node9&#45;&gt;Node10</title>
<path fill="none" stroke="midnightblue" d="M270.308,-112.464C306,-103.541 363.483,-89.0457 413,-76 413.879,-75.7683 414.772,-75.5322 415.672,-75.2929"/>
<polygon fill="midnightblue" stroke="midnightblue" points="416.671,-78.6488 425.419,-72.6721 414.853,-71.8889 416.671,-78.6488"/>
</g>
<!-- Node11 -->
<g id="node11" class="node"><title>Node11</title>
<g id="a_node11"><a xlink:href="Component_8h.html" target="_top" xlink:title="Component.h">
<polygon fill="white" stroke="black" points="198.5,-56.5 198.5,-75.5 273.5,-75.5 273.5,-56.5 198.5,-56.5"/>
<text text-anchor="middle" x="236" y="-63.5" font-family="Helvetica,sans-Serif" font-size="10.00">Component.h</text>
</a>
</g>
</g>
<!-- Node9&#45;&gt;Node11 -->
<g id="edge12" class="edge"><title>Node9&#45;&gt;Node11</title>
<path fill="none" stroke="midnightblue" d="M230.834,-112.083C229.324,-104.927 228.894,-94.6353 229.542,-85.6911"/>
<polygon fill="midnightblue" stroke="midnightblue" points="233.015,-86.1262 230.869,-75.7511 226.077,-85.2002 233.015,-86.1262"/>
</g>
<!-- Node12 -->
<g id="node12" class="node"><title>Node12</title>
<g id="a_node12"><a xlink:href="Rect_8h.html" target="_top" xlink:title="Rect.h">
<polygon fill="white" stroke="black" points="292,-56.5 292,-75.5 338,-75.5 338,-56.5 292,-56.5"/>
<text text-anchor="middle" x="315" y="-63.5" font-family="Helvetica,sans-Serif" font-size="10.00">Rect.h</text>
</a>
</g>
</g>
<!-- Node9&#45;&gt;Node12 -->
<g id="edge14" class="edge"><title>Node9&#45;&gt;Node12</title>
<path fill="none" stroke="midnightblue" d="M248.693,-112.324C260.901,-103.979 279.578,-91.2122 294.003,-81.3524"/>
<polygon fill="midnightblue" stroke="midnightblue" points="296.058,-84.1871 302.339,-75.6545 292.108,-78.4082 296.058,-84.1871"/>
</g>
<!-- Node11&#45;&gt;Node9 -->
<g id="edge13" class="edge"><title>Node11&#45;&gt;Node9</title>
<path fill="none" stroke="midnightblue" d="M241.131,-75.7511C242.657,-82.8579 243.104,-93.1357 242.472,-102.101"/>
<polygon fill="midnightblue" stroke="midnightblue" points="238.993,-101.713 241.166,-112.083 245.934,-102.622 238.993,-101.713"/>
</g>
<!-- Node12&#45;&gt;Node6 -->
<g id="edge15" class="edge"><title>Node12&#45;&gt;Node6</title>
<path fill="none" stroke="midnightblue" d="M338.032,-58.3592C341.042,-57.5392 344.09,-56.7328 347,-56 405.975,-41.1497 475.272,-26.2643 515.459,-17.8824"/>
<polygon fill="midnightblue" stroke="midnightblue" points="516.186,-21.306 525.266,-15.8456 514.763,-14.4523 516.186,-21.306"/>
</g>
<!-- Node13 -->
<g id="node13" class="node"><title>Node13</title>
<polygon fill="white" stroke="#bfbfbf" points="293,-0.5 293,-19.5 337,-19.5 337,-0.5 293,-0.5"/>
<text text-anchor="middle" x="315" y="-7.5" font-family="Helvetica,sans-Serif" font-size="10.00">cmath</text>
</g>
<!-- Node12&#45;&gt;Node13 -->
<g id="edge16" class="edge"><title>Node12&#45;&gt;Node13</title>
<path fill="none" stroke="midnightblue" d="M315,-56.083C315,-49.0059 315,-38.8611 315,-29.9865"/>
<polygon fill="midnightblue" stroke="midnightblue" points="318.5,-29.751 315,-19.7511 311.5,-29.7511 318.5,-29.751"/>
</g>
<!-- Node14&#45;&gt;Node3 -->
<g id="edge20" class="edge"><title>Node14&#45;&gt;Node3</title>
<path fill="none" stroke="midnightblue" d="M814.252,-168.105C801.684,-154.202 775.476,-127.329 748,-112 712.715,-92.314 667.756,-80.1743 636.904,-73.54"/>
<polygon fill="midnightblue" stroke="midnightblue" points="637.517,-70.0929 627.016,-71.4982 636.101,-76.9483 637.517,-70.0929"/>
</g>
<!-- Node14&#45;&gt;Node5 -->
<g id="edge28" class="edge"><title>Node14&#45;&gt;Node5</title>
<path fill="none" stroke="midnightblue" d="M842.599,-168.444C863.993,-159.557 897.681,-145.563 922.024,-135.451"/>
<polygon fill="midnightblue" stroke="midnightblue" points="923.605,-138.585 931.497,-131.516 920.92,-132.12 923.605,-138.585"/>
</g>
<!-- Node14&#45;&gt;Node10 -->
<g id="edge19" class="edge"><title>Node14&#45;&gt;Node10</title>
<path fill="none" stroke="midnightblue" d="M796.368,-170.219C764.036,-161.608 706.767,-146.163 658,-132 593.076,-113.144 517.461,-89.5696 476.376,-76.624"/>
<polygon fill="midnightblue" stroke="midnightblue" points="477.292,-73.243 466.702,-73.5711 475.185,-79.9185 477.292,-73.243"/>
</g>
<!-- Node15 -->
<g id="node15" class="node"><title>Node15</title>
<g id="a_node15"><a xlink:href="Resources_8h.html" target="_top" xlink:title="Resources.h">
<polygon fill="white" stroke="black" points="667,-112.5 667,-131.5 739,-131.5 739,-112.5 667,-112.5"/>
<text text-anchor="middle" x="703" y="-119.5" font-family="Helvetica,sans-Serif" font-size="10.00">Resources.h</text>
</a>
</g>
</g>
<!-- Node14&#45;&gt;Node15 -->
<g id="edge21" class="edge"><title>Node14&#45;&gt;Node15</title>
<path fill="none" stroke="midnightblue" d="M803.144,-168.444C783.734,-159.636 753.27,-145.812 731.035,-135.722"/>
<polygon fill="midnightblue" stroke="midnightblue" points="732.32,-132.462 721.768,-131.516 729.428,-138.836 732.32,-132.462"/>
</g>
<!-- Node16 -->
<g id="node16" class="node"><title>Node16</title>
<g id="a_node16"><a xlink:href="Error_8h.html" target="_top" xlink:title="Error.h">
<polygon fill="white" stroke="black" points="842,-112.5 842,-131.5 888,-131.5 888,-112.5 842,-112.5"/>
<text text-anchor="middle" x="865" y="-119.5" font-family="Helvetica,sans-Serif" font-size="10.00">Error.h</text>
</a>
</g>
</g>
<!-- Node14&#45;&gt;Node16 -->
<g id="edge25" class="edge"><title>Node14&#45;&gt;Node16</title>
<path fill="none" stroke="midnightblue" d="M829.101,-168.083C835.237,-160.377 844.27,-149.033 851.739,-139.653"/>
<polygon fill="midnightblue" stroke="midnightblue" points="854.54,-141.754 858.032,-131.751 849.064,-137.394 854.54,-141.754"/>
</g>
<!-- Node15&#45;&gt;Node3 -->
<g id="edge24" class="edge"><title>Node15&#45;&gt;Node3</title>
<path fill="none" stroke="midnightblue" d="M686.612,-112.324C670.329,-103.703 645.133,-90.3643 626.284,-80.3855"/>
<polygon fill="midnightblue" stroke="midnightblue" points="627.823,-77.2402 617.347,-75.6545 624.548,-83.4267 627.823,-77.2402"/>
</g>
<!-- Node15&#45;&gt;Node7 -->
<g id="edge23" class="edge"><title>Node15&#45;&gt;Node7</title>
<path fill="none" stroke="midnightblue" d="M727.243,-112.444C752.871,-103.399 793.485,-89.064 822.238,-78.9158"/>
<polygon fill="midnightblue" stroke="midnightblue" points="823.605,-82.1452 831.87,-75.5164 821.275,-75.5442 823.605,-82.1452"/>
</g>
<!-- Node15&#45;&gt;Node10 -->
<g id="edge22" class="edge"><title>Node15&#45;&gt;Node10</title>
<path fill="none" stroke="midnightblue" d="M666.995,-113.435C616.264,-102.775 524.619,-83.5191 476.847,-73.4815"/>
<polygon fill="midnightblue" stroke="midnightblue" points="477.304,-70.0011 466.798,-71.37 475.865,-76.8516 477.304,-70.0011"/>
</g>
<!-- Node17 -->
<g id="node17" class="node"><title>Node17</title>
<polygon fill="white" stroke="#bfbfbf" points="916,-56.5 916,-75.5 970,-75.5 970,-56.5 916,-56.5"/>
<text text-anchor="middle" x="943" y="-63.5" font-family="Helvetica,sans-Serif" font-size="10.00">iostream</text>
</g>
<!-- Node16&#45;&gt;Node17 -->
<g id="edge26" class="edge"><title>Node16&#45;&gt;Node17</title>
<path fill="none" stroke="midnightblue" d="M877.532,-112.324C889.586,-103.979 908.027,-91.2122 922.269,-81.3524"/>
<polygon fill="midnightblue" stroke="midnightblue" points="924.269,-84.2243 930.499,-75.6545 920.285,-78.469 924.269,-84.2243"/>
</g>
<!-- Node18 -->
<g id="node18" class="node"><title>Node18</title>
<polygon fill="white" stroke="#bfbfbf" points="748,-56.5 748,-75.5 796,-75.5 796,-56.5 748,-56.5"/>
<text text-anchor="middle" x="772" y="-63.5" font-family="Helvetica,sans-Serif" font-size="10.00">stdlib.h</text>
</g>
<!-- Node16&#45;&gt;Node18 -->
<g id="edge27" class="edge"><title>Node16&#45;&gt;Node18</title>
<path fill="none" stroke="midnightblue" d="M850.058,-112.324C835.415,-103.822 812.866,-90.7288 795.762,-80.7975"/>
<polygon fill="midnightblue" stroke="midnightblue" points="797.31,-77.6491 786.905,-75.6545 793.795,-83.7027 797.31,-77.6491"/>
</g>
<!-- Node19&#45;&gt;Node3 -->
<g id="edge31" class="edge"><title>Node19&#45;&gt;Node3</title>
<path fill="none" stroke="midnightblue" d="M383.09,-115.424C426.336,-105.814 515.062,-86.0974 564.927,-75.0162"/>
<polygon fill="midnightblue" stroke="midnightblue" points="565.945,-78.3754 574.948,-72.7894 564.427,-71.5421 565.945,-78.3754"/>
</g>
<!-- Node19&#45;&gt;Node10 -->
<g id="edge30" class="edge"><title>Node19&#45;&gt;Node10</title>
<path fill="none" stroke="midnightblue" d="M372.139,-112.324C385.866,-103.9 406.936,-90.9709 423.064,-81.0741"/>
<polygon fill="midnightblue" stroke="midnightblue" points="425.204,-83.8678 431.896,-75.6545 421.543,-77.9016 425.204,-83.8678"/>
</g>
<!-- Node19&#45;&gt;Node12 -->
<g id="edge33" class="edge"><title>Node19&#45;&gt;Node12</title>
<path fill="none" stroke="midnightblue" d="M350.899,-112.083C344.763,-104.377 335.73,-93.0333 328.261,-83.6531"/>
<polygon fill="midnightblue" stroke="midnightblue" points="330.936,-81.3936 321.968,-75.7511 325.46,-85.7542 330.936,-81.3936"/>
</g>
<!-- Node20 -->
<g id="node20" class="node"><title>Node20</title>
<g id="a_node20"><a xlink:href="Color_8h.html" target="_top" xlink:title="Color.h">
<polygon fill="white" stroke="black" points="356,-56.5 356,-75.5 404,-75.5 404,-56.5 356,-56.5"/>
<text text-anchor="middle" x="380" y="-63.5" font-family="Helvetica,sans-Serif" font-size="10.00">Color.h</text>
</a>
</g>
</g>
<!-- Node19&#45;&gt;Node20 -->
<g id="edge32" class="edge"><title>Node19&#45;&gt;Node20</title>
<path fill="none" stroke="midnightblue" d="M361.633,-112.083C364.612,-104.77 368.926,-94.1814 372.625,-85.1034"/>
<polygon fill="midnightblue" stroke="midnightblue" points="375.903,-86.3326 376.435,-75.7511 369.42,-83.6914 375.903,-86.3326"/>
</g>
<!-- Node21&#45;&gt;Node2 -->
<g id="edge35" class="edge"><title>Node21&#45;&gt;Node2</title>
<path fill="none" stroke="midnightblue" d="M555.983,-175.811C481.488,-171.88 255.252,-158.045 187,-132 157.48,-120.735 128.578,-97.7999 111.271,-82.4114"/>
<polygon fill="midnightblue" stroke="midnightblue" points="113.499,-79.7062 103.754,-75.5475 108.779,-84.8753 113.499,-79.7062"/>
</g>
<!-- Node21&#45;&gt;Node3 -->
<g id="edge36" class="edge"><title>Node21&#45;&gt;Node3</title>
<path fill="none" stroke="midnightblue" d="M581.648,-168.368C585.037,-150.617 592.855,-109.666 597.45,-85.5974"/>
<polygon fill="midnightblue" stroke="midnightblue" points="600.922,-86.0704 599.36,-75.5914 594.047,-84.7577 600.922,-86.0704"/>
</g>
<!-- Node21&#45;&gt;Node5 -->
<g id="edge37" class="edge"><title>Node21&#45;&gt;Node5</title>
<path fill="none" stroke="midnightblue" d="M604.285,-173.731C657.412,-166.541 787.926,-148.664 897,-132 897.921,-131.859 898.85,-131.717 899.785,-131.572"/>
<polygon fill="midnightblue" stroke="midnightblue" points="900.639,-134.981 909.974,-129.971 899.552,-128.066 900.639,-134.981"/>
</g>
<!-- Node21&#45;&gt;Node9 -->
<g id="edge39" class="edge"><title>Node21&#45;&gt;Node9</title>
<path fill="none" stroke="midnightblue" d="M555.811,-173.203C500.015,-164.444 361.347,-142.677 286.245,-130.887"/>
<polygon fill="midnightblue" stroke="midnightblue" points="286.506,-127.386 276.084,-129.292 285.421,-134.301 286.506,-127.386"/>
</g>
<!-- Node21&#45;&gt;Node15 -->
<g id="edge38" class="edge"><title>Node21&#45;&gt;Node15</title>
<path fill="none" stroke="midnightblue" d="M599.49,-168.444C619.642,-159.596 651.323,-145.687 674.331,-135.586"/>
<polygon fill="midnightblue" stroke="midnightblue" points="675.852,-138.741 683.601,-131.516 673.038,-132.332 675.852,-138.741"/>
</g>
<!-- Node22&#45;&gt;Node2 -->
<g id="edge42" class="edge"><title>Node22&#45;&gt;Node2</title>
<path fill="none" stroke="midnightblue" d="M117.227,-224.49C111.659,-215.761 103.567,-201.577 100,-188 90.7725,-152.875 91.721,-110.062 93.3142,-85.9274"/>
<polygon fill="midnightblue" stroke="midnightblue" points="96.8239,-85.936 94.1063,-75.6956 89.8448,-85.3956 96.8239,-85.936"/>
</g>
<!-- Node22&#45;&gt;Node6 -->
<g id="edge47" class="edge"><title>Node22&#45;&gt;Node6</title>
<path fill="none" stroke="midnightblue" d="M114.986,-224.407C89.9066,-196.496 17.3041,-107.229 64,-56 79.2316,-39.2898 407.619,-19.087 515.205,-12.8947"/>
<polygon fill="midnightblue" stroke="midnightblue" points="515.703,-16.372 525.487,-12.307 515.304,-9.38344 515.703,-16.372"/>
</g>
<!-- Node22&#45;&gt;Node9 -->
<g id="edge43" class="edge"><title>Node22&#45;&gt;Node9</title>
<path fill="none" stroke="midnightblue" d="M128.934,-224.447C138.161,-211.464 156.885,-186.355 176,-168 187.675,-156.789 202.16,-145.855 213.972,-137.572"/>
<polygon fill="midnightblue" stroke="midnightblue" points="216.128,-140.338 222.394,-131.795 212.168,-134.566 216.128,-140.338"/>
</g>
<!-- Node22&#45;&gt;Node10 -->
<g id="edge41" class="edge"><title>Node22&#45;&gt;Node10</title>
<path fill="none" stroke="midnightblue" d="M124.689,-224.472C129.664,-201.82 146.534,-139.971 187,-112 270.668,-54.1669 313.569,-97.4123 413,-76 413.889,-75.8086 414.79,-75.6078 415.697,-75.3996"/>
<polygon fill="midnightblue" stroke="midnightblue" points="416.629,-78.7745 425.488,-72.9634 414.939,-71.9816 416.629,-78.7745"/>
</g>
<!-- Node22&#45;&gt;Node23 -->
<g id="edge44" class="edge"><title>Node22&#45;&gt;Node23</title>
<path fill="none" stroke="midnightblue" d="M152.89,-226.161C195.901,-216.319 275.197,-198.175 321.898,-187.49"/>
<polygon fill="midnightblue" stroke="midnightblue" points="322.937,-190.842 331.904,-185.2 321.376,-184.019 322.937,-190.842"/>
</g>
<!-- Node23&#45;&gt;Node10 -->
<g id="edge45" class="edge"><title>Node23&#45;&gt;Node10</title>
<path fill="none" stroke="midnightblue" d="M365.827,-168.368C380.248,-150.135 414.027,-107.426 432.811,-83.6752"/>
<polygon fill="midnightblue" stroke="midnightblue" points="435.747,-85.606 439.205,-75.5914 430.256,-81.2636 435.747,-85.606"/>
</g>
<!-- Node23&#45;&gt;Node19 -->
<g id="edge46" class="edge"><title>Node23&#45;&gt;Node19</title>
<path fill="none" stroke="midnightblue" d="M358.835,-168.083C358.704,-161.006 358.516,-150.861 358.352,-141.986"/>
<polygon fill="midnightblue" stroke="midnightblue" points="361.847,-141.685 358.162,-131.751 354.848,-141.814 361.847,-141.685"/>
</g>
<!-- Node25&#45;&gt;Node1 -->
<g id="edge71" class="edge"><title>Node25&#45;&gt;Node1</title>
<path fill="none" stroke="midnightblue" d="M599.165,-355.516C571.076,-364.703 523.151,-379.381 488.105,-389.568"/>
<polygon fill="midnightblue" stroke="midnightblue" points="486.773,-386.309 478.135,-392.444 488.713,-393.035 486.773,-386.309"/>
</g>
<!-- Node25&#45;&gt;Node5 -->
<g id="edge70" class="edge"><title>Node25&#45;&gt;Node5</title>
<path fill="none" stroke="midnightblue" d="M641.6,-336.425C677.673,-320.315 756.517,-283.567 818,-244 851.796,-222.251 859.171,-214.934 889,-188 906.387,-172.301 924.886,-152.846 937.307,-139.332"/>
<polygon fill="midnightblue" stroke="midnightblue" points="940.046,-141.523 944.191,-131.772 934.87,-136.81 940.046,-141.523"/>
</g>
<!-- Node25&#45;&gt;Node9 -->
<g id="edge54" class="edge"><title>Node25&#45;&gt;Node9</title>
<path fill="none" stroke="midnightblue" d="M597.579,-336.443C574.218,-328.006 538.178,-314.326 508,-300 415.966,-256.309 390.773,-247.395 308,-188 287.184,-173.063 265.68,-152.923 251.658,-139.039"/>
<polygon fill="midnightblue" stroke="midnightblue" points="253.863,-136.294 244.328,-131.675 248.902,-141.231 253.863,-136.294"/>
</g>
<!-- Node25&#45;&gt;Node14 -->
<g id="edge55" class="edge"><title>Node25&#45;&gt;Node14</title>
<path fill="none" stroke="midnightblue" d="M632.471,-336.309C664.737,-309.528 762.922,-228.035 803.819,-194.09"/>
<polygon fill="midnightblue" stroke="midnightblue" points="806.173,-196.685 811.632,-187.605 801.702,-191.299 806.173,-196.685"/>
</g>
<!-- Node25&#45;&gt;Node19 -->
<g id="edge56" class="edge"><title>Node25&#45;&gt;Node19</title>
<path fill="none" stroke="midnightblue" d="M605.263,-336.363C575.219,-320.427 510.907,-284.324 464,-244 443.944,-226.759 395.541,-168.794 371.715,-139.804"/>
<polygon fill="midnightblue" stroke="midnightblue" points="374.214,-137.331 365.169,-131.814 368.8,-141.767 374.214,-137.331"/>
</g>
<!-- Node26 -->
<g id="node26" class="node"><title>Node26</title>
<g id="a_node26"><a xlink:href="EndStateData_8h.html" target="_top" xlink:title="EndStateData.h">
<polygon fill="white" stroke="black" points="877,-280.5 877,-299.5 963,-299.5 963,-280.5 877,-280.5"/>
<text text-anchor="middle" x="920" y="-287.5" font-family="Helvetica,sans-Serif" font-size="10.00">EndStateData.h</text>
</a>
</g>
</g>
<!-- Node25&#45;&gt;Node26 -->
<g id="edge51" class="edge"><title>Node25&#45;&gt;Node26</title>
<path fill="none" stroke="midnightblue" d="M654.744,-339.067C705.946,-329.788 805.459,-311.756 866.976,-300.608"/>
<polygon fill="midnightblue" stroke="midnightblue" points="867.666,-304.04 876.882,-298.813 866.418,-297.153 867.666,-304.04"/>
</g>
<!-- Node29 -->
<g id="node29" class="node"><title>Node29</title>
<g id="a_node29"><a xlink:href="Text_8h.html" target="_top" xlink:title="Text.h">
<polygon fill="white" stroke="black" points="603,-280.5 603,-299.5 647,-299.5 647,-280.5 603,-280.5"/>
<text text-anchor="middle" x="625" y="-287.5" font-family="Helvetica,sans-Serif" font-size="10.00">Text.h</text>
</a>
</g>
</g>
<!-- Node25&#45;&gt;Node29 -->
<g id="edge57" class="edge"><title>Node25&#45;&gt;Node29</title>
<path fill="none" stroke="midnightblue" d="M622.495,-336.083C622.889,-329.006 623.452,-318.861 623.945,-309.986"/>
<polygon fill="midnightblue" stroke="midnightblue" points="627.454,-309.93 624.514,-299.751 620.464,-309.542 627.454,-309.93"/>
</g>
<!-- Node27 -->
<g id="node27" class="node"><title>Node27</title>
<g id="a_node27"><a xlink:href="StateData_8h.html" target="_top" xlink:title="StateData.h">
<polygon fill="white" stroke="black" points="954.5,-224.5 954.5,-243.5 1023.5,-243.5 1023.5,-224.5 954.5,-224.5"/>
<text text-anchor="middle" x="989" y="-231.5" font-family="Helvetica,sans-Serif" font-size="10.00">StateData.h</text>
</a>
</g>
</g>
<!-- Node26&#45;&gt;Node27 -->
<g id="edge52" class="edge"><title>Node26&#45;&gt;Node27</title>
<path fill="none" stroke="midnightblue" d="M931.086,-280.324C941.486,-272.185 957.261,-259.839 969.722,-250.087"/>
<polygon fill="midnightblue" stroke="midnightblue" points="971.994,-252.753 977.712,-243.834 967.68,-247.241 971.994,-252.753"/>
</g>
<!-- Node28 -->
<g id="node28" class="node"><title>Node28</title>
<g id="a_node28"><a xlink:href="Defines_8h.html" target="_top" xlink:title="Defines.h">
<polygon fill="white" stroke="black" points="877.5,-224.5 877.5,-243.5 936.5,-243.5 936.5,-224.5 877.5,-224.5"/>
<text text-anchor="middle" x="907" y="-231.5" font-family="Helvetica,sans-Serif" font-size="10.00">Defines.h</text>
</a>
</g>
</g>
<!-- Node26&#45;&gt;Node28 -->
<g id="edge53" class="edge"><title>Node26&#45;&gt;Node28</title>
<path fill="none" stroke="midnightblue" d="M917.853,-280.083C916.131,-272.927 913.653,-262.635 911.5,-253.691"/>
<polygon fill="midnightblue" stroke="midnightblue" points="914.85,-252.654 909.107,-243.751 908.045,-254.293 914.85,-252.654"/>
</g>
<!-- Node29&#45;&gt;Node3 -->
<g id="edge60" class="edge"><title>Node29&#45;&gt;Node3</title>
<path fill="none" stroke="midnightblue" d="M624.213,-280.486C622.373,-260.718 617.597,-210.181 613,-168 609.867,-139.252 605.832,-105.951 603.33,-85.6883"/>
<polygon fill="midnightblue" stroke="midnightblue" points="606.788,-85.1332 602.084,-75.6402 599.842,-85.9951 606.788,-85.1332"/>
</g>
<!-- Node29&#45;&gt;Node10 -->
<g id="edge61" class="edge"><title>Node29&#45;&gt;Node10</title>
<path fill="none" stroke="midnightblue" d="M617.623,-280.198C606.672,-267.324 585.225,-242.844 565,-224 546.261,-206.54 538.506,-205.707 520,-188 496.105,-165.136 488.088,-160.315 471,-132 462.215,-117.443 455.538,-99.2653 451.303,-85.8371"/>
<polygon fill="midnightblue" stroke="midnightblue" points="454.54,-84.4416 448.329,-75.8583 447.831,-86.4414 454.54,-84.4416"/>
</g>
<!-- Node29&#45;&gt;Node12 -->
<g id="edge58" class="edge"><title>Node29&#45;&gt;Node12</title>
<path fill="none" stroke="midnightblue" d="M614.069,-280.442C593.511,-264.504 549.58,-231.232 532,-224 444.831,-188.139 386.076,-258.041 323,-188 297.729,-159.938 303.944,-111.796 309.929,-85.4897"/>
<polygon fill="midnightblue" stroke="midnightblue" points="313.353,-86.2257 312.387,-75.6749 306.562,-84.5249 313.353,-86.2257"/>
</g>
<!-- Node29&#45;&gt;Node15 -->
<g id="edge62" class="edge"><title>Node29&#45;&gt;Node15</title>
<path fill="none" stroke="midnightblue" d="M647.277,-284.792C668.823,-279.41 700.305,-267.776 715,-244 734.713,-212.103 721.293,-166.217 711.229,-141.111"/>
<polygon fill="midnightblue" stroke="midnightblue" points="714.368,-139.55 707.227,-131.724 707.929,-142.296 714.368,-139.55"/>
</g>
<!-- Node29&#45;&gt;Node16 -->
<g id="edge69" class="edge"><title>Node29&#45;&gt;Node16</title>
<path fill="none" stroke="midnightblue" d="M647.223,-286.496C694.345,-279.904 804.205,-257.484 856,-188 865.885,-174.739 867.453,-155.612 866.958,-141.539"/>
<polygon fill="midnightblue" stroke="midnightblue" points="870.447,-141.267 866.238,-131.544 863.465,-141.77 870.447,-141.267"/>
</g>
<!-- Node29&#45;&gt;Node24 -->
<g id="edge59" class="edge"><title>Node29&#45;&gt;Node24</title>
<path fill="none" stroke="midnightblue" d="M604.876,-280.444C583.976,-271.557 551.065,-257.563 527.284,-247.451"/>
<polygon fill="midnightblue" stroke="midnightblue" points="528.602,-244.208 518.029,-243.516 525.862,-250.65 528.602,-244.208"/>
</g>
<!-- Node30 -->
<g id="node30" class="node"><title>Node30</title>
<g id="a_node30"><a xlink:href="Game_8h.html" target="_top" xlink:title="Game.h">
<polygon fill="white" stroke="black" points="655.5,-224.5 655.5,-243.5 706.5,-243.5 706.5,-224.5 655.5,-224.5"/>
<text text-anchor="middle" x="681" y="-231.5" font-family="Helvetica,sans-Serif" font-size="10.00">Game.h</text>
</a>
</g>
</g>
<!-- Node29&#45;&gt;Node30 -->
<g id="edge63" class="edge"><title>Node29&#45;&gt;Node30</title>
<path fill="none" stroke="midnightblue" d="M633.997,-280.324C642.194,-272.42 654.506,-260.548 664.472,-250.938"/>
<polygon fill="midnightblue" stroke="midnightblue" points="667.07,-253.295 671.839,-243.834 662.211,-248.256 667.07,-253.295"/>
</g>
<!-- Node30&#45;&gt;Node5 -->
<g id="edge67" class="edge"><title>Node30&#45;&gt;Node5</title>
<path fill="none" stroke="midnightblue" d="M706.544,-229.258C741.463,-223.521 805.521,-210.751 856,-188 885.306,-174.792 915.41,-152.766 933.91,-138.065"/>
<polygon fill="midnightblue" stroke="midnightblue" points="936.207,-140.708 941.777,-131.695 931.802,-135.268 936.207,-140.708"/>
</g>
<!-- Node30&#45;&gt;Node6 -->
<g id="edge68" class="edge"><title>Node30&#45;&gt;Node6</title>
<path fill="none" stroke="midnightblue" d="M692.445,-224.34C717.546,-204.267 773.251,-153.133 748,-112 711.819,-53.0621 629.344,-27.2108 582.724,-16.9602"/>
<polygon fill="midnightblue" stroke="midnightblue" points="583.3,-13.5053 572.797,-14.8946 581.874,-20.3585 583.3,-13.5053"/>
</g>
<!-- Node30&#45;&gt;Node10 -->
<g id="edge64" class="edge"><title>Node30&#45;&gt;Node10</title>
<path fill="none" stroke="midnightblue" d="M655.429,-228.749C626.99,-223.086 580.631,-210.989 547,-188 505.937,-159.93 472.265,-110.716 456.192,-84.5373"/>
<polygon fill="midnightblue" stroke="midnightblue" points="459.055,-82.5057 450.915,-75.7243 453.049,-86.1019 459.055,-82.5057"/>
</g>
<!-- Node30&#45;&gt;Node21 -->
<g id="edge66" class="edge"><title>Node30&#45;&gt;Node21</title>
<path fill="none" stroke="midnightblue" d="M664.773,-224.324C648.649,-215.703 623.7,-202.364 605.036,-192.386"/>
<polygon fill="midnightblue" stroke="midnightblue" points="606.656,-189.283 596.187,-187.655 603.356,-195.456 606.656,-189.283"/>
</g>
<!-- Node31 -->
<g id="node31" class="node"><title>Node31</title>
<polygon fill="white" stroke="#bfbfbf" points="660.5,-168.5 660.5,-187.5 701.5,-187.5 701.5,-168.5 660.5,-168.5"/>
<text text-anchor="middle" x="681" y="-175.5" font-family="Helvetica,sans-Serif" font-size="10.00">stack</text>
</g>
<!-- Node30&#45;&gt;Node31 -->
<g id="edge65" class="edge"><title>Node30&#45;&gt;Node31</title>
<path fill="none" stroke="midnightblue" d="M681,-224.083C681,-217.006 681,-206.861 681,-197.986"/>
<polygon fill="midnightblue" stroke="midnightblue" points="684.5,-197.751 681,-187.751 677.5,-197.751 684.5,-197.751"/>
</g>
</g>
</svg>
