<?xml version="1.0" encoding="UTF-8" standalone="no"?>
<!DOCTYPE svg PUBLIC "-//W3C//DTD SVG 1.1//EN"
 "http://www.w3.org/Graphics/SVG/1.1/DTD/svg11.dtd">
<!-- Generated by graphviz version 2.38.0 (20140413.2041)
 -->
<!-- Title: Game/include/StageState.h Pages: 1 -->
<svg width="546pt" height="84pt"
 viewBox="0.00 0.00 546.00 84.00" xmlns="http://www.w3.org/2000/svg" xmlns:xlink="http://www.w3.org/1999/xlink">
<g id="graph0" class="graph" transform="scale(1 1) rotate(0) translate(4 80)">
<title>Game/include/StageState.h</title>
<polygon fill="white" stroke="none" points="-4,4 -4,-80 542,-80 542,4 -4,4"/>
<!-- Node1 -->
<g id="node1" class="node"><title>Node1</title>
<polygon fill="#bfbfbf" stroke="black" points="208.5,-56.5 208.5,-75.5 345.5,-75.5 345.5,-56.5 208.5,-56.5"/>
<text text-anchor="middle" x="277" y="-63.5" font-family="Helvetica,sans-Serif" font-size="10.00">Game/include/StageState.h</text>
</g>
<!-- Node2 -->
<g id="node2" class="node"><title>Node2</title>
<g id="a_node2"><a xlink:href="EndState_8cpp.html" target="_top" xlink:title="Game/src/EndState.cpp">
<polygon fill="white" stroke="black" points="0,-0.5 0,-19.5 122,-19.5 122,-0.5 0,-0.5"/>
<text text-anchor="middle" x="61" y="-7.5" font-family="Helvetica,sans-Serif" font-size="10.00">Game/src/EndState.cpp</text>
</a>
</g>
</g>
<!-- Node1&#45;&gt;Node2 -->
<g id="edge1" class="edge"><title>Node1&#45;&gt;Node2</title>
<path fill="none" stroke="midnightblue" d="M232.836,-53.959C192.039,-43.7598 132.287,-28.8217 95.0657,-19.5164"/>
<polygon fill="midnightblue" stroke="midnightblue" points="232.224,-57.4136 242.774,-56.4435 233.922,-50.6226 232.224,-57.4136"/>
</g>
<!-- Node3 -->
<g id="node3" class="node"><title>Node3</title>
<g id="a_node3"><a xlink:href="StageState_8cpp.html" target="_top" xlink:title="Game/src/StageState.cpp">
<polygon fill="white" stroke="black" points="140,-0.5 140,-19.5 270,-19.5 270,-0.5 140,-0.5"/>
<text text-anchor="middle" x="205" y="-7.5" font-family="Helvetica,sans-Serif" font-size="10.00">Game/src/StageState.cpp</text>
</a>
</g>
</g>
<!-- Node1&#45;&gt;Node3 -->
<g id="edge2" class="edge"><title>Node1&#45;&gt;Node3</title>
<path fill="none" stroke="midnightblue" d="M257.134,-50.1008C244.177,-40.3824 227.703,-28.0269 216.779,-19.8339"/>
<polygon fill="midnightblue" stroke="midnightblue" points="255.332,-53.1239 265.432,-56.324 259.532,-47.5239 255.332,-53.1239"/>
</g>
<!-- Node4 -->
<g id="node4" class="node"><title>Node4</title>
<g id="a_node4"><a xlink:href="TitleState_8cpp.html" target="_top" xlink:title="Game/src/TitleState.cpp">
<polygon fill="white" stroke="black" points="288.5,-0.5 288.5,-19.5 411.5,-19.5 411.5,-0.5 288.5,-0.5"/>
<text text-anchor="middle" x="350" y="-7.5" font-family="Helvetica,sans-Serif" font-size="10.00">Game/src/TitleState.cpp</text>
</a>
</g>
</g>
<!-- Node1&#45;&gt;Node4 -->
<g id="edge3" class="edge"><title>Node1&#45;&gt;Node4</title>
<path fill="none" stroke="midnightblue" d="M297.142,-50.1008C310.279,-40.3824 326.982,-28.0269 338.058,-19.8339"/>
<polygon fill="midnightblue" stroke="midnightblue" points="294.687,-47.5631 288.729,-56.324 298.85,-53.1907 294.687,-47.5631"/>
</g>
<!-- Node5 -->
<g id="node5" class="node"><title>Node5</title>
<g id="a_node5"><a xlink:href="Tower_8cpp.html" target="_top" xlink:title="Game/src/Tower.cpp">
<polygon fill="white" stroke="black" points="430,-0.5 430,-19.5 538,-19.5 538,-0.5 430,-0.5"/>
<text text-anchor="middle" x="484" y="-7.5" font-family="Helvetica,sans-Serif" font-size="10.00">Game/src/Tower.cpp</text>
</a>
</g>
</g>
<!-- Node1&#45;&gt;Node5 -->
<g id="edge4" class="edge"><title>Node1&#45;&gt;Node5</title>
<path fill="none" stroke="midnightblue" d="M319.822,-53.8291C358.906,-43.6333 415.835,-28.7823 451.354,-19.5164"/>
<polygon fill="midnightblue" stroke="midnightblue" points="318.592,-50.5326 309.8,-56.4435 320.359,-57.3059 318.592,-50.5326"/>
</g>
</g>
</svg>
