<?xml version="1.0" encoding="UTF-8" standalone="no"?>
<!DOCTYPE svg PUBLIC "-//W3C//DTD SVG 1.1//EN"
 "http://www.w3.org/Graphics/SVG/1.1/DTD/svg11.dtd">
<!-- Generated by graphviz version 2.38.0 (20140413.2041)
 -->
<!-- Title: Game/include/StageState.h Pages: 1 -->
<svg width="1351pt" height="420pt"
 viewBox="0.00 0.00 1351.00 420.00" xmlns="http://www.w3.org/2000/svg" xmlns:xlink="http://www.w3.org/1999/xlink">
<g id="graph0" class="graph" transform="scale(1 1) rotate(0) translate(4 416)">
<title>Game/include/StageState.h</title>
<polygon fill="white" stroke="none" points="-4,4 -4,-416 1347,-416 1347,4 -4,4"/>
<!-- Node0 -->
<g id="node1" class="node"><title>Node0</title>
<polygon fill="#bfbfbf" stroke="black" points="564.5,-392.5 564.5,-411.5 701.5,-411.5 701.5,-392.5 564.5,-392.5"/>
<text text-anchor="middle" x="633" y="-399.5" font-family="Helvetica,sans-Serif" font-size="10.00">Game/include/StageState.h</text>
</g>
<!-- Node1 -->
<g id="node2" class="node"><title>Node1</title>
<polygon fill="white" stroke="#bfbfbf" points="28,-56.5 28,-75.5 72,-75.5 72,-56.5 28,-56.5"/>
<text text-anchor="middle" x="50" y="-63.5" font-family="Helvetica,sans-Serif" font-size="10.00">vector</text>
</g>
<!-- Node0&#45;&gt;Node1 -->
<g id="edge1" class="edge"><title>Node0&#45;&gt;Node1</title>
<path fill="none" stroke="midnightblue" d="M564.263,-398.531C421.277,-392.978 101.364,-378.225 57,-356 22.6465,-338.79 0,-329.423 0,-291 0,-291 0,-291 0,-177 0,-141.184 22.2399,-104.214 37.0547,-83.5601"/>
<polygon fill="midnightblue" stroke="midnightblue" points="39.8779,-85.6289 43.0477,-75.5193 34.2654,-81.4456 39.8779,-85.6289"/>
</g>
<!-- Node2 -->
<g id="node3" class="node"><title>Node2</title>
<polygon fill="white" stroke="#bfbfbf" points="759,-56.5 759,-75.5 811,-75.5 811,-56.5 759,-56.5"/>
<text text-anchor="middle" x="785" y="-63.5" font-family="Helvetica,sans-Serif" font-size="10.00">memory</text>
</g>
<!-- Node0&#45;&gt;Node2 -->
<g id="edge2" class="edge"><title>Node0&#45;&gt;Node2</title>
<path fill="none" stroke="midnightblue" d="M694.175,-392.472C818.086,-373.631 1090.36,-323.705 1130,-244 1155.88,-191.954 1088.36,-180.854 928,-112 918.011,-107.711 860.155,-89.8542 821.164,-77.9655"/>
<polygon fill="midnightblue" stroke="midnightblue" points="821.796,-74.4995 811.211,-74.9352 819.758,-81.1961 821.796,-74.4995"/>
</g>
<!-- Node3 -->
<g id="node4" class="node"><title>Node3</title>
<g id="a_node4"><a xlink:href="Sprite_8h.html" target="_top" xlink:title="Sprite.h">
<polygon fill="white" stroke="black" points="631,-112.5 631,-131.5 681,-131.5 681,-112.5 631,-112.5"/>
<text text-anchor="middle" x="656" y="-119.5" font-family="Helvetica,sans-Serif" font-size="10.00">Sprite.h</text>
</a>
</g>
</g>
<!-- Node0&#45;&gt;Node3 -->
<g id="edge3" class="edge"><title>Node0&#45;&gt;Node3</title>
<path fill="none" stroke="midnightblue" d="M636.102,-392.289C642.38,-373.856 656,-329.435 656,-291 656,-291 656,-291 656,-233 656,-200.948 656,-163.643 656,-141.749"/>
<polygon fill="midnightblue" stroke="midnightblue" points="659.5,-141.558 656,-131.558 652.5,-141.558 659.5,-141.558"/>
</g>
<!-- Node6 -->
<g id="node7" class="node"><title>Node6</title>
<g id="a_node7"><a xlink:href="GameObject_8h.html" target="_top" xlink:title="GameObject.h">
<polygon fill="white" stroke="black" points="150,-112.5 150,-131.5 230,-131.5 230,-112.5 150,-112.5"/>
<text text-anchor="middle" x="190" y="-119.5" font-family="Helvetica,sans-Serif" font-size="10.00">GameObject.h</text>
</a>
</g>
</g>
<!-- Node0&#45;&gt;Node6 -->
<g id="edge7" class="edge"><title>Node0&#45;&gt;Node6</title>
<path fill="none" stroke="midnightblue" d="M564.408,-400.069C477.271,-397.501 322.846,-388.298 195,-356 121.779,-337.502 38,-366.522 38,-291 38,-291 38,-291 38,-233 38,-179.437 100.712,-149.3 145.573,-134.593"/>
<polygon fill="midnightblue" stroke="midnightblue" points="146.63,-137.93 155.128,-131.602 144.539,-131.25 146.63,-137.93"/>
</g>
<!-- Node12 -->
<g id="node13" class="node"><title>Node12</title>
<g id="a_node13"><a xlink:href="Tileset_8h.html" target="_top" xlink:title="Tileset.h">
<polygon fill="white" stroke="black" points="360,-168.5 360,-187.5 414,-187.5 414,-168.5 360,-168.5"/>
<text text-anchor="middle" x="387" y="-175.5" font-family="Helvetica,sans-Serif" font-size="10.00">Tileset.h</text>
</a>
</g>
</g>
<!-- Node0&#45;&gt;Node12 -->
<g id="edge18" class="edge"><title>Node0&#45;&gt;Node12</title>
<path fill="none" stroke="midnightblue" d="M623.357,-392.297C586.233,-358.796 452.245,-237.88 404.252,-194.569"/>
<polygon fill="midnightblue" stroke="midnightblue" points="406.346,-191.744 396.577,-187.643 401.656,-196.941 406.346,-191.744"/>
</g>
<!-- Node13 -->
<g id="node14" class="node"><title>Node13</title>
<g id="a_node14"><a xlink:href="TileMap_8h.html" target="_top" xlink:title="TileMap.h">
<polygon fill="white" stroke="black" points="264.5,-224.5 264.5,-243.5 323.5,-243.5 323.5,-224.5 264.5,-224.5"/>
<text text-anchor="middle" x="294" y="-231.5" font-family="Helvetica,sans-Serif" font-size="10.00">TileMap.h</text>
</a>
</g>
</g>
<!-- Node0&#45;&gt;Node13 -->
<g id="edge21" class="edge"><title>Node0&#45;&gt;Node13</title>
<path fill="none" stroke="midnightblue" d="M564.428,-399.403C515.714,-395.595 450.291,-384.867 400,-356 355.562,-330.492 320.375,-279.398 304.004,-252.493"/>
<polygon fill="midnightblue" stroke="midnightblue" points="306.945,-250.591 298.841,-243.767 300.921,-254.155 306.945,-250.591"/>
</g>
<!-- Node14 -->
<g id="node15" class="node"><title>Node14</title>
<g id="a_node15"><a xlink:href="InputManager_8h.html" target="_top" xlink:title="InputManager.h">
<polygon fill="white" stroke="black" points="1145,-168.5 1145,-187.5 1229,-187.5 1229,-168.5 1145,-168.5"/>
<text text-anchor="middle" x="1187" y="-175.5" font-family="Helvetica,sans-Serif" font-size="10.00">InputManager.h</text>
</a>
</g>
</g>
<!-- Node0&#45;&gt;Node14 -->
<g id="edge27" class="edge"><title>Node0&#45;&gt;Node14</title>
<path fill="none" stroke="midnightblue" d="M701.551,-399.877C837.329,-396.984 1130.23,-387.165 1163,-356 1206.59,-314.538 1197.9,-234.266 1191.13,-197.819"/>
<polygon fill="midnightblue" stroke="midnightblue" points="1194.48,-196.738 1189.07,-187.63 1187.62,-198.126 1194.48,-196.738"/>
</g>
<!-- Node17 -->
<g id="node18" class="node"><title>Node17</title>
<g id="a_node18"><a xlink:href="ActionManager_8h.html" target="_top" xlink:title="ActionManager.h">
<polygon fill="white" stroke="black" points="1253,-336.5 1253,-355.5 1343,-355.5 1343,-336.5 1253,-336.5"/>
<text text-anchor="middle" x="1298" y="-343.5" font-family="Helvetica,sans-Serif" font-size="10.00">ActionManager.h</text>
</a>
</g>
</g>
<!-- Node0&#45;&gt;Node17 -->
<g id="edge31" class="edge"><title>Node0&#45;&gt;Node17</title>
<path fill="none" stroke="midnightblue" d="M701.776,-397.627C814.334,-391.718 1044.81,-377.988 1239,-356 1240.27,-355.856 1241.56,-355.704 1242.86,-355.547"/>
<polygon fill="midnightblue" stroke="midnightblue" points="1243.48,-358.996 1252.95,-354.238 1242.58,-352.054 1243.48,-358.996"/>
</g>
<!-- Node18 -->
<g id="node19" class="node"><title>Node18</title>
<g id="a_node19"><a xlink:href="State_8h.html" target="_top" xlink:title="State.h">
<polygon fill="white" stroke="black" points="218,-168.5 218,-187.5 266,-187.5 266,-168.5 218,-168.5"/>
<text text-anchor="middle" x="242" y="-175.5" font-family="Helvetica,sans-Serif" font-size="10.00">State.h</text>
</a>
</g>
</g>
<!-- Node0&#45;&gt;Node18 -->
<g id="edge33" class="edge"><title>Node0&#45;&gt;Node18</title>
<path fill="none" stroke="midnightblue" d="M564.398,-400.458C508.93,-397.474 430.266,-387.329 369,-356 305.761,-323.662 288.792,-306.474 255,-244 247.215,-229.607 244.068,-211.151 242.808,-197.584"/>
<polygon fill="midnightblue" stroke="midnightblue" points="246.295,-197.279 242.133,-187.536 239.311,-197.748 246.295,-197.279"/>
</g>
<!-- Node19 -->
<g id="node20" class="node"><title>Node19</title>
<g id="a_node20"><a xlink:href="Music_8h.html" target="_top" xlink:title="Music.h">
<polygon fill="white" stroke="black" points="576.5,-280.5 576.5,-299.5 627.5,-299.5 627.5,-280.5 576.5,-280.5"/>
<text text-anchor="middle" x="602" y="-287.5" font-family="Helvetica,sans-Serif" font-size="10.00">Music.h</text>
</a>
</g>
</g>
<!-- Node0&#45;&gt;Node19 -->
<g id="edge37" class="edge"><title>Node0&#45;&gt;Node19</title>
<path fill="none" stroke="midnightblue" d="M630.567,-392.368C625.542,-374.537 613.92,-333.295 607.149,-309.272"/>
<polygon fill="midnightblue" stroke="midnightblue" points="610.503,-308.267 604.421,-299.591 603.765,-310.166 610.503,-308.267"/>
</g>
<!-- Node24 -->
<g id="node25" class="node"><title>Node24</title>
<g id="a_node25"><a xlink:href="DragAndDrop_8h.html" target="_top" xlink:title="DragAndDrop.h">
<polygon fill="white" stroke="black" points="124,-280.5 124,-299.5 208,-299.5 208,-280.5 124,-280.5"/>
<text text-anchor="middle" x="166" y="-287.5" font-family="Helvetica,sans-Serif" font-size="10.00">DragAndDrop.h</text>
</a>
</g>
</g>
<!-- Node0&#45;&gt;Node24 -->
<g id="edge46" class="edge"><title>Node0&#45;&gt;Node24</title>
<path fill="none" stroke="midnightblue" d="M564.319,-399.518C463.152,-396.328 279.807,-386.415 222,-356 201.671,-345.304 185.512,-323.906 175.877,-308.582"/>
<polygon fill="midnightblue" stroke="midnightblue" points="178.631,-306.365 170.509,-299.562 172.616,-309.945 178.631,-306.365"/>
</g>
<!-- Node25 -->
<g id="node26" class="node"><title>Node25</title>
<g id="a_node26"><a xlink:href="Timer_8h.html" target="_top" xlink:title="Timer.h">
<polygon fill="white" stroke="black" points="906,-224.5 906,-243.5 956,-243.5 956,-224.5 906,-224.5"/>
<text text-anchor="middle" x="931" y="-231.5" font-family="Helvetica,sans-Serif" font-size="10.00">Timer.h</text>
</a>
</g>
</g>
<!-- Node0&#45;&gt;Node25 -->
<g id="edge49" class="edge"><title>Node0&#45;&gt;Node25</title>
<path fill="none" stroke="midnightblue" d="M663.745,-392.429C689.644,-384.628 727.28,-371.913 758,-356 818.427,-324.699 882.204,-275.152 912.686,-250.291"/>
<polygon fill="midnightblue" stroke="midnightblue" points="915.207,-252.749 920.704,-243.692 910.758,-247.345 915.207,-252.749"/>
</g>
<!-- Node26 -->
<g id="node27" class="node"><title>Node26</title>
<g id="a_node27"><a xlink:href="EndState_8h.html" target="_top" xlink:title="EndState.h">
<polygon fill="white" stroke="black" points="684.5,-336.5 684.5,-355.5 749.5,-355.5 749.5,-336.5 684.5,-336.5"/>
<text text-anchor="middle" x="717" y="-343.5" font-family="Helvetica,sans-Serif" font-size="10.00">EndState.h</text>
</a>
</g>
</g>
<!-- Node0&#45;&gt;Node26 -->
<g id="edge50" class="edge"><title>Node0&#45;&gt;Node26</title>
<path fill="none" stroke="midnightblue" d="M641.381,-392.324C652.766,-383.822 672.846,-370.729 689.563,-360.797"/>
<polygon fill="midnightblue" stroke="midnightblue" points="691.534,-363.7 698.427,-355.655 688.021,-357.646 691.534,-363.7"/>
</g>
<!-- Node3&#45;&gt;Node2 -->
<g id="edge6" class="edge"><title>Node3&#45;&gt;Node2</title>
<path fill="none" stroke="midnightblue" d="M676.44,-112.444C697.67,-103.557 731.099,-89.5632 755.255,-79.4514"/>
<polygon fill="midnightblue" stroke="midnightblue" points="756.782,-82.6064 764.655,-75.5164 754.079,-76.1493 756.782,-82.6064"/>
</g>
<!-- Node4 -->
<g id="node5" class="node"><title>Node4</title>
<g id="a_node5"><a xlink:href="Color_8h.html" target="_top" xlink:title="Color.h">
<polygon fill="white" stroke="black" points="632,-56.5 632,-75.5 680,-75.5 680,-56.5 632,-56.5"/>
<text text-anchor="middle" x="656" y="-63.5" font-family="Helvetica,sans-Serif" font-size="10.00">Color.h</text>
</a>
</g>
</g>
<!-- Node3&#45;&gt;Node4 -->
<g id="edge4" class="edge"><title>Node3&#45;&gt;Node4</title>
<path fill="none" stroke="midnightblue" d="M656,-112.083C656,-105.006 656,-94.8611 656,-85.9865"/>
<polygon fill="midnightblue" stroke="midnightblue" points="659.5,-85.751 656,-75.7511 652.5,-85.7511 659.5,-85.751"/>
</g>
<!-- Node5 -->
<g id="node6" class="node"><title>Node5</title>
<polygon fill="white" stroke="#bfbfbf" points="515.5,-56.5 515.5,-75.5 556.5,-75.5 556.5,-56.5 515.5,-56.5"/>
<text text-anchor="middle" x="536" y="-63.5" font-family="Helvetica,sans-Serif" font-size="10.00">string</text>
</g>
<!-- Node3&#45;&gt;Node5 -->
<g id="edge5" class="edge"><title>Node3&#45;&gt;Node5</title>
<path fill="none" stroke="midnightblue" d="M636.986,-112.444C617.412,-103.636 586.692,-89.8116 564.271,-79.722"/>
<polygon fill="midnightblue" stroke="midnightblue" points="565.481,-76.4284 554.925,-75.5164 562.608,-82.8119 565.481,-76.4284"/>
</g>
<!-- Node6&#45;&gt;Node1 -->
<g id="edge8" class="edge"><title>Node6&#45;&gt;Node1</title>
<path fill="none" stroke="midnightblue" d="M167.817,-112.444C144.572,-103.478 107.851,-89.314 81.5848,-79.1827"/>
<polygon fill="midnightblue" stroke="midnightblue" points="82.6692,-75.8497 72.0796,-75.5164 80.1501,-82.3807 82.6692,-75.8497"/>
</g>
<!-- Node6&#45;&gt;Node2 -->
<g id="edge9" class="edge"><title>Node6&#45;&gt;Node2</title>
<path fill="none" stroke="midnightblue" d="M230.297,-116.976C246.378,-115.392 265.062,-113.578 282,-112 462.813,-95.1596 508.154,-92.4752 689,-76 708.789,-74.1972 730.866,-72.1313 748.855,-70.4338"/>
<polygon fill="midnightblue" stroke="midnightblue" points="749.3,-73.9074 758.927,-69.4817 748.641,-66.9385 749.3,-73.9074"/>
</g>
<!-- Node6&#45;&gt;Node5 -->
<g id="edge13" class="edge"><title>Node6&#45;&gt;Node5</title>
<path fill="none" stroke="midnightblue" d="M230.029,-114.753C299.814,-103.861 442.291,-81.6251 505.094,-71.8235"/>
<polygon fill="midnightblue" stroke="midnightblue" points="505.823,-75.2521 515.164,-70.2519 504.744,-68.3358 505.823,-75.2521"/>
</g>
<!-- Node7 -->
<g id="node8" class="node"><title>Node7</title>
<g id="a_node8"><a xlink:href="Rect_8h.html" target="_top" xlink:title="Rect.h">
<polygon fill="white" stroke="black" points="235,-56.5 235,-75.5 281,-75.5 281,-56.5 235,-56.5"/>
<text text-anchor="middle" x="258" y="-63.5" font-family="Helvetica,sans-Serif" font-size="10.00">Rect.h</text>
</a>
</g>
</g>
<!-- Node6&#45;&gt;Node7 -->
<g id="edge10" class="edge"><title>Node6&#45;&gt;Node7</title>
<path fill="none" stroke="midnightblue" d="M200.925,-112.324C211.175,-104.185 226.721,-91.8395 239.001,-82.0874"/>
<polygon fill="midnightblue" stroke="midnightblue" points="241.221,-84.7937 246.876,-75.8339 236.868,-79.3119 241.221,-84.7937"/>
</g>
<!-- Node10 -->
<g id="node11" class="node"><title>Node10</title>
<g id="a_node11"><a xlink:href="ComponentType_8h.html" target="_top" xlink:title="ComponentType.h">
<polygon fill="white" stroke="black" points="102.5,-0.5 102.5,-19.5 199.5,-19.5 199.5,-0.5 102.5,-0.5"/>
<text text-anchor="middle" x="151" y="-7.5" font-family="Helvetica,sans-Serif" font-size="10.00">ComponentType.h</text>
</a>
</g>
</g>
<!-- Node6&#45;&gt;Node10 -->
<g id="edge14" class="edge"><title>Node6&#45;&gt;Node10</title>
<path fill="none" stroke="midnightblue" d="M189.597,-112.309C188.772,-99.5738 186.298,-75.2653 179,-56 175.258,-46.1221 169.242,-36.0544 163.743,-27.9534"/>
<polygon fill="midnightblue" stroke="midnightblue" points="166.557,-25.8711 157.904,-19.7577 160.856,-29.9329 166.557,-25.8711"/>
</g>
<!-- Node11 -->
<g id="node12" class="node"><title>Node11</title>
<g id="a_node12"><a xlink:href="Component_8h.html" target="_top" xlink:title="Component.h">
<polygon fill="white" stroke="black" points="95.5,-56.5 95.5,-75.5 170.5,-75.5 170.5,-56.5 95.5,-56.5"/>
<text text-anchor="middle" x="133" y="-63.5" font-family="Helvetica,sans-Serif" font-size="10.00">Component.h</text>
</a>
</g>
</g>
<!-- Node6&#45;&gt;Node11 -->
<g id="edge15" class="edge"><title>Node6&#45;&gt;Node11</title>
<path fill="none" stroke="midnightblue" d="M175.727,-112.324C165.871,-104.576 153.283,-93.0168 144.153,-83.5112"/>
<polygon fill="midnightblue" stroke="midnightblue" points="146.492,-80.8804 137.176,-75.8339 141.311,-85.5883 146.492,-80.8804"/>
</g>
<!-- Node8 -->
<g id="node9" class="node"><title>Node8</title>
<g id="a_node9"><a xlink:href="Vec2_8h.html" target="_top" xlink:title="Vec2.h">
<polygon fill="white" stroke="black" points="660.5,-0.5 660.5,-19.5 707.5,-19.5 707.5,-0.5 660.5,-0.5"/>
<text text-anchor="middle" x="684" y="-7.5" font-family="Helvetica,sans-Serif" font-size="10.00">Vec2.h</text>
</a>
</g>
</g>
<!-- Node7&#45;&gt;Node8 -->
<g id="edge11" class="edge"><title>Node7&#45;&gt;Node8</title>
<path fill="none" stroke="midnightblue" d="M281.243,-61.5072C292.873,-59.7897 307.172,-57.7238 320,-56 441.354,-39.6926 585.777,-22.4936 650.141,-14.9435"/>
<polygon fill="midnightblue" stroke="midnightblue" points="650.603,-18.4134 660.128,-13.7741 649.789,-11.4609 650.603,-18.4134"/>
</g>
<!-- Node9 -->
<g id="node10" class="node"><title>Node9</title>
<polygon fill="white" stroke="#bfbfbf" points="236,-0.5 236,-19.5 280,-19.5 280,-0.5 236,-0.5"/>
<text text-anchor="middle" x="258" y="-7.5" font-family="Helvetica,sans-Serif" font-size="10.00">cmath</text>
</g>
<!-- Node7&#45;&gt;Node9 -->
<g id="edge12" class="edge"><title>Node7&#45;&gt;Node9</title>
<path fill="none" stroke="midnightblue" d="M258,-56.083C258,-49.0059 258,-38.8611 258,-29.9865"/>
<polygon fill="midnightblue" stroke="midnightblue" points="261.5,-29.751 258,-19.7511 254.5,-29.7511 261.5,-29.751"/>
</g>
<!-- Node11&#45;&gt;Node6 -->
<g id="edge17" class="edge"><title>Node11&#45;&gt;Node6</title>
<path fill="none" stroke="midnightblue" d="M147.368,-75.7511C157.19,-83.4827 169.696,-94.9673 178.792,-104.431"/>
<polygon fill="midnightblue" stroke="midnightblue" points="176.435,-107.042 185.754,-112.083 181.613,-102.331 176.435,-107.042"/>
</g>
<!-- Node11&#45;&gt;Node10 -->
<g id="edge16" class="edge"><title>Node11&#45;&gt;Node10</title>
<path fill="none" stroke="midnightblue" d="M135.972,-56.083C138.384,-48.8486 141.864,-38.4087 144.868,-29.3968"/>
<polygon fill="midnightblue" stroke="midnightblue" points="148.241,-30.3447 148.083,-19.7511 141.6,-28.1311 148.241,-30.3447"/>
</g>
<!-- Node12&#45;&gt;Node3 -->
<g id="edge20" class="edge"><title>Node12&#45;&gt;Node3</title>
<path fill="none" stroke="midnightblue" d="M414.024,-171.575C463.089,-161.726 566.758,-140.915 621.097,-130.007"/>
<polygon fill="midnightblue" stroke="midnightblue" points="621.846,-133.426 630.961,-128.026 620.468,-126.563 621.846,-133.426"/>
</g>
<!-- Node12&#45;&gt;Node5 -->
<g id="edge19" class="edge"><title>Node12&#45;&gt;Node5</title>
<path fill="none" stroke="midnightblue" d="M396.923,-168.195C411.605,-155.317 440.166,-130.833 466,-112 481.082,-101.005 498.768,-89.6478 512.59,-81.0933"/>
<polygon fill="midnightblue" stroke="midnightblue" points="514.763,-83.8665 521.461,-75.6577 511.106,-77.8977 514.763,-83.8665"/>
</g>
<!-- Node13&#45;&gt;Node1 -->
<g id="edge23" class="edge"><title>Node13&#45;&gt;Node1</title>
<path fill="none" stroke="midnightblue" d="M270.932,-224.44C233.403,-209.724 158.093,-176.833 106,-132 89.1447,-117.494 72.9029,-97.8001 62.2916,-83.9033"/>
<polygon fill="midnightblue" stroke="midnightblue" points="64.9694,-81.6395 56.1818,-75.7209 59.3605,-85.8277 64.9694,-81.6395"/>
</g>
<!-- Node13&#45;&gt;Node5 -->
<g id="edge22" class="edge"><title>Node13&#45;&gt;Node5</title>
<path fill="none" stroke="midnightblue" d="M300.348,-224.317C310.228,-211.164 330.309,-185.835 351,-168 399.088,-126.55 466.967,-94.8931 505.724,-78.7937"/>
<polygon fill="midnightblue" stroke="midnightblue" points="507.444,-81.8721 515.382,-74.8545 504.801,-75.3905 507.444,-81.8721"/>
</g>
<!-- Node13&#45;&gt;Node6 -->
<g id="edge26" class="edge"><title>Node13&#45;&gt;Node6</title>
<path fill="none" stroke="midnightblue" d="M265.347,-224.361C246.784,-217.369 223.457,-205.728 209,-188 198.212,-174.772 193.549,-155.641 191.534,-141.558"/>
<polygon fill="midnightblue" stroke="midnightblue" points="195.005,-141.105 190.419,-131.554 188.048,-141.881 195.005,-141.105"/>
</g>
<!-- Node13&#45;&gt;Node8 -->
<g id="edge25" class="edge"><title>Node13&#45;&gt;Node8</title>
<path fill="none" stroke="midnightblue" d="M297.187,-224.331C302.296,-211.196 313.264,-185.891 328,-168 353.33,-137.247 364.599,-133.719 398,-112 443.329,-82.5253 455.454,-75.1982 506,-56 554.818,-37.4583 614.051,-24.2189 650.377,-17.089"/>
<polygon fill="midnightblue" stroke="midnightblue" points="651.273,-20.481 660.433,-15.1569 649.952,-13.6067 651.273,-20.481"/>
</g>
<!-- Node13&#45;&gt;Node12 -->
<g id="edge24" class="edge"><title>Node13&#45;&gt;Node12</title>
<path fill="none" stroke="midnightblue" d="M308.942,-224.324C323.585,-215.822 346.134,-202.729 363.238,-192.797"/>
<polygon fill="midnightblue" stroke="midnightblue" points="365.205,-195.703 372.095,-187.655 361.69,-189.649 365.205,-195.703"/>
</g>
<!-- Node14&#45;&gt;Node8 -->
<g id="edge28" class="edge"><title>Node14&#45;&gt;Node8</title>
<path fill="none" stroke="midnightblue" d="M1196.84,-168.493C1210.59,-155.569 1232.43,-130.536 1219,-112 1159.67,-30.1446 825.971,-14.5652 717.829,-11.6548"/>
<polygon fill="midnightblue" stroke="midnightblue" points="717.589,-8.14788 707.505,-11.3976 717.415,-15.1457 717.589,-8.14788"/>
</g>
<!-- Node15 -->
<g id="node16" class="node"><title>Node15</title>
<polygon fill="white" stroke="#bfbfbf" points="1062.5,-112.5 1062.5,-131.5 1145.5,-131.5 1145.5,-112.5 1062.5,-112.5"/>
<text text-anchor="middle" x="1104" y="-119.5" font-family="Helvetica,sans-Serif" font-size="10.00">unordered_map</text>
</g>
<!-- Node14&#45;&gt;Node15 -->
<g id="edge29" class="edge"><title>Node14&#45;&gt;Node15</title>
<path fill="none" stroke="midnightblue" d="M1173.66,-168.324C1160.84,-159.979 1141.22,-147.212 1126.06,-137.352"/>
<polygon fill="midnightblue" stroke="midnightblue" points="1127.59,-134.174 1117.3,-131.655 1123.78,-140.042 1127.59,-134.174"/>
</g>
<!-- Node16 -->
<g id="node17" class="node"><title>Node16</title>
<polygon fill="white" stroke="#bfbfbf" points="1164,-112.5 1164,-131.5 1210,-131.5 1210,-112.5 1164,-112.5"/>
<text text-anchor="middle" x="1187" y="-119.5" font-family="Helvetica,sans-Serif" font-size="10.00">cstdint</text>
</g>
<!-- Node14&#45;&gt;Node16 -->
<g id="edge30" class="edge"><title>Node14&#45;&gt;Node16</title>
<path fill="none" stroke="midnightblue" d="M1187,-168.083C1187,-161.006 1187,-150.861 1187,-141.986"/>
<polygon fill="midnightblue" stroke="midnightblue" points="1190.5,-141.751 1187,-131.751 1183.5,-141.751 1190.5,-141.751"/>
</g>
<!-- Node17&#45;&gt;Node14 -->
<g id="edge32" class="edge"><title>Node17&#45;&gt;Node14</title>
<path fill="none" stroke="midnightblue" d="M1295.18,-336.425C1288.07,-315.657 1267.92,-261.609 1239,-224 1230.24,-212.614 1218.23,-201.991 1207.96,-193.928"/>
<polygon fill="midnightblue" stroke="midnightblue" points="1209.94,-191.035 1199.85,-187.798 1205.72,-196.62 1209.94,-191.035"/>
</g>
<!-- Node18&#45;&gt;Node1 -->
<g id="edge35" class="edge"><title>Node18&#45;&gt;Node1</title>
<path fill="none" stroke="midnightblue" d="M219.301,-168.414C198.404,-160.156 166.826,-146.777 141,-132 114.498,-116.837 86.2152,-95.7735 68.341,-81.7815"/>
<polygon fill="midnightblue" stroke="midnightblue" points="70.4684,-79.0017 60.4559,-75.5377 66.1228,-84.4896 70.4684,-79.0017"/>
</g>
<!-- Node18&#45;&gt;Node2 -->
<g id="edge36" class="edge"><title>Node18&#45;&gt;Node2</title>
<path fill="none" stroke="midnightblue" d="M266.033,-172.132C352.153,-154.685 645.658,-95.2277 748.801,-74.3331"/>
<polygon fill="midnightblue" stroke="midnightblue" points="749.632,-77.7359 758.738,-72.32 748.243,-70.8752 749.632,-77.7359"/>
</g>
<!-- Node18&#45;&gt;Node6 -->
<g id="edge34" class="edge"><title>Node18&#45;&gt;Node6</title>
<path fill="none" stroke="midnightblue" d="M233.413,-168.083C225.841,-160.22 214.622,-148.569 205.486,-139.081"/>
<polygon fill="midnightblue" stroke="midnightblue" points="207.885,-136.527 198.427,-131.751 202.842,-141.382 207.885,-136.527"/>
</g>
<!-- Node19&#45;&gt;Node5 -->
<g id="edge38" class="edge"><title>Node19&#45;&gt;Node5</title>
<path fill="none" stroke="midnightblue" d="M585.477,-280.444C571.007,-272.394 550.006,-259.311 535,-244 514.289,-222.869 507.338,-216.389 499,-188 488.119,-150.951 509.625,-107.732 524.172,-84.2837"/>
<polygon fill="midnightblue" stroke="midnightblue" points="527.179,-86.0797 529.686,-75.7856 521.307,-82.2697 527.179,-86.0797"/>
</g>
<!-- Node20 -->
<g id="node21" class="node"><title>Node20</title>
<g id="a_node21"><a xlink:href="Resources_8h.html" target="_top" xlink:title="Resources.h">
<polygon fill="white" stroke="black" points="798,-168.5 798,-187.5 870,-187.5 870,-168.5 798,-168.5"/>
<text text-anchor="middle" x="834" y="-175.5" font-family="Helvetica,sans-Serif" font-size="10.00">Resources.h</text>
</a>
</g>
</g>
<!-- Node19&#45;&gt;Node20 -->
<g id="edge39" class="edge"><title>Node19&#45;&gt;Node20</title>
<path fill="none" stroke="midnightblue" d="M620.205,-280.368C660.778,-261.131 758.815,-214.648 806.727,-191.931"/>
<polygon fill="midnightblue" stroke="midnightblue" points="808.344,-195.038 815.88,-187.591 805.345,-188.713 808.344,-195.038"/>
</g>
<!-- Node21 -->
<g id="node22" class="node"><title>Node21</title>
<g id="a_node22"><a xlink:href="Error_8h.html" target="_top" xlink:title="Error.h">
<polygon fill="white" stroke="black" points="544,-224.5 544,-243.5 590,-243.5 590,-224.5 544,-224.5"/>
<text text-anchor="middle" x="567" y="-231.5" font-family="Helvetica,sans-Serif" font-size="10.00">Error.h</text>
</a>
</g>
</g>
<!-- Node19&#45;&gt;Node21 -->
<g id="edge43" class="edge"><title>Node19&#45;&gt;Node21</title>
<path fill="none" stroke="midnightblue" d="M596.22,-280.083C591.328,-272.534 584.173,-261.495 578.167,-252.23"/>
<polygon fill="midnightblue" stroke="midnightblue" points="581.048,-250.239 572.672,-243.751 575.174,-254.046 581.048,-250.239"/>
</g>
<!-- Node20&#45;&gt;Node2 -->
<g id="edge42" class="edge"><title>Node20&#45;&gt;Node2</title>
<path fill="none" stroke="midnightblue" d="M833.758,-168.167C833.105,-155.255 830.711,-130.729 822,-112 817.009,-101.27 808.852,-90.9486 801.465,-82.9033"/>
<polygon fill="midnightblue" stroke="midnightblue" points="803.95,-80.438 794.48,-75.686 798.92,-85.306 803.95,-80.438"/>
</g>
<!-- Node20&#45;&gt;Node5 -->
<g id="edge40" class="edge"><title>Node20&#45;&gt;Node5</title>
<path fill="none" stroke="midnightblue" d="M829.901,-168.169C822.761,-153.849 806.613,-125.78 784,-112 747.855,-89.9735 624.711,-75.5392 566.7,-69.8011"/>
<polygon fill="midnightblue" stroke="midnightblue" points="566.952,-66.3093 556.662,-68.831 566.279,-73.2768 566.952,-66.3093"/>
</g>
<!-- Node20&#45;&gt;Node15 -->
<g id="edge41" class="edge"><title>Node20&#45;&gt;Node15</title>
<path fill="none" stroke="midnightblue" d="M870.133,-169.773C916.977,-160.405 998.976,-144.005 1052.37,-133.325"/>
<polygon fill="midnightblue" stroke="midnightblue" points="1053.21,-136.728 1062.33,-131.335 1051.83,-129.864 1053.21,-136.728"/>
</g>
<!-- Node22 -->
<g id="node23" class="node"><title>Node22</title>
<polygon fill="white" stroke="#bfbfbf" points="574,-168.5 574,-187.5 628,-187.5 628,-168.5 574,-168.5"/>
<text text-anchor="middle" x="601" y="-175.5" font-family="Helvetica,sans-Serif" font-size="10.00">iostream</text>
</g>
<!-- Node21&#45;&gt;Node22 -->
<g id="edge44" class="edge"><title>Node21&#45;&gt;Node22</title>
<path fill="none" stroke="midnightblue" d="M572.614,-224.083C577.367,-216.534 584.318,-205.495 590.152,-196.23"/>
<polygon fill="midnightblue" stroke="midnightblue" points="593.124,-198.078 595.49,-187.751 587.2,-194.349 593.124,-198.078"/>
</g>
<!-- Node23 -->
<g id="node24" class="node"><title>Node23</title>
<polygon fill="white" stroke="#bfbfbf" points="508,-168.5 508,-187.5 556,-187.5 556,-168.5 508,-168.5"/>
<text text-anchor="middle" x="532" y="-175.5" font-family="Helvetica,sans-Serif" font-size="10.00">stdlib.h</text>
</g>
<!-- Node21&#45;&gt;Node23 -->
<g id="edge45" class="edge"><title>Node21&#45;&gt;Node23</title>
<path fill="none" stroke="midnightblue" d="M561.22,-224.083C556.328,-216.534 549.173,-205.495 543.167,-196.23"/>
<polygon fill="midnightblue" stroke="midnightblue" points="546.048,-194.239 537.672,-187.751 540.174,-198.046 546.048,-194.239"/>
</g>
<!-- Node24&#45;&gt;Node11 -->
<g id="edge47" class="edge"><title>Node24&#45;&gt;Node11</title>
<path fill="none" stroke="midnightblue" d="M157.839,-280.446C142.864,-264.085 111.477,-226.545 100,-188 89.0712,-151.297 108.734,-107.915 122.114,-84.3538"/>
<polygon fill="midnightblue" stroke="midnightblue" points="125.248,-85.9302 127.355,-75.547 119.233,-82.35 125.248,-85.9302"/>
</g>
<!-- Node24&#45;&gt;Node13 -->
<g id="edge48" class="edge"><title>Node24&#45;&gt;Node13</title>
<path fill="none" stroke="midnightblue" d="M186.282,-280.444C207.347,-271.557 240.517,-257.563 264.486,-247.451"/>
<polygon fill="midnightblue" stroke="midnightblue" points="265.96,-250.628 273.813,-243.516 263.239,-244.179 265.96,-250.628"/>
</g>
<!-- Node26&#45;&gt;Node0 -->
<g id="edge71" class="edge"><title>Node26&#45;&gt;Node0</title>
<path fill="none" stroke="midnightblue" d="M708.407,-355.834C696.983,-364.342 677.041,-377.339 660.425,-387.21"/>
<polygon fill="midnightblue" stroke="midnightblue" points="658.504,-384.278 651.611,-392.324 662.017,-390.333 658.504,-384.278"/>
</g>
<!-- Node26&#45;&gt;Node3 -->
<g id="edge52" class="edge"><title>Node26&#45;&gt;Node3</title>
<path fill="none" stroke="midnightblue" d="M714.876,-336.491C708.46,-310.905 688.577,-232.462 670,-168 667.448,-159.144 664.431,-149.37 661.853,-141.199"/>
<polygon fill="midnightblue" stroke="midnightblue" points="665.163,-140.059 658.792,-131.594 658.494,-142.185 665.163,-140.059"/>
</g>
<!-- Node26&#45;&gt;Node6 -->
<g id="edge51" class="edge"><title>Node26&#45;&gt;Node6</title>
<path fill="none" stroke="midnightblue" d="M684.482,-343.745C606.117,-339.52 402.415,-321.323 255,-244 222.697,-227.056 210.811,-220.872 195,-188 188.025,-173.497 187.255,-155.053 187.95,-141.519"/>
<polygon fill="midnightblue" stroke="midnightblue" points="191.442,-141.754 188.774,-131.5 184.466,-141.18 191.442,-141.754"/>
</g>
<!-- Node26&#45;&gt;Node14 -->
<g id="edge70" class="edge"><title>Node26&#45;&gt;Node14</title>
<path fill="none" stroke="midnightblue" d="M749.577,-342.802C823.302,-337.486 1000.81,-322.679 1056,-300 1109.51,-278.009 1154.71,-223.647 1175.21,-195.892"/>
<polygon fill="midnightblue" stroke="midnightblue" points="1178.19,-197.745 1181.19,-187.585 1172.51,-193.654 1178.19,-197.745"/>
</g>
<!-- Node26&#45;&gt;Node19 -->
<g id="edge53" class="edge"><title>Node26&#45;&gt;Node19</title>
<path fill="none" stroke="midnightblue" d="M698.778,-336.444C680.104,-327.675 650.844,-313.935 629.383,-303.858"/>
<polygon fill="midnightblue" stroke="midnightblue" points="630.676,-300.599 620.137,-299.516 627.701,-306.935 630.676,-300.599"/>
</g>
<!-- Node27 -->
<g id="node28" class="node"><title>Node27</title>
<g id="a_node28"><a xlink:href="Text_8h.html" target="_top" xlink:title="Text.h">
<polygon fill="white" stroke="black" points="735,-280.5 735,-299.5 779,-299.5 779,-280.5 735,-280.5"/>
<text text-anchor="middle" x="757" y="-287.5" font-family="Helvetica,sans-Serif" font-size="10.00">Text.h</text>
</a>
</g>
</g>
<!-- Node26&#45;&gt;Node27 -->
<g id="edge54" class="edge"><title>Node26&#45;&gt;Node27</title>
<path fill="none" stroke="midnightblue" d="M723.605,-336.083C729.255,-328.455 737.545,-317.264 744.451,-307.941"/>
<polygon fill="midnightblue" stroke="midnightblue" points="747.378,-309.87 750.518,-299.751 741.753,-305.703 747.378,-309.87"/>
</g>
<!-- Node30 -->
<g id="node31" class="node"><title>Node30</title>
<g id="a_node31"><a xlink:href="EndStateData_8h.html" target="_top" xlink:title="EndStateData.h">
<polygon fill="white" stroke="black" points="961,-280.5 961,-299.5 1047,-299.5 1047,-280.5 961,-280.5"/>
<text text-anchor="middle" x="1004" y="-287.5" font-family="Helvetica,sans-Serif" font-size="10.00">EndStateData.h</text>
</a>
</g>
</g>
<!-- Node26&#45;&gt;Node30 -->
<g id="edge67" class="edge"><title>Node26&#45;&gt;Node30</title>
<path fill="none" stroke="midnightblue" d="M749.643,-338.858C798.669,-329.634 891.835,-312.104 950.779,-301.014"/>
<polygon fill="midnightblue" stroke="midnightblue" points="951.47,-304.445 960.65,-299.156 950.175,-297.566 951.47,-304.445"/>
</g>
<!-- Node27&#45;&gt;Node2 -->
<g id="edge57" class="edge"><title>Node27&#45;&gt;Node2</title>
<path fill="none" stroke="midnightblue" d="M778.802,-280.388C823.271,-262.301 921.631,-219.439 938,-188 966.797,-132.691 875.014,-94.3468 821.212,-77.1771"/>
<polygon fill="midnightblue" stroke="midnightblue" points="821.913,-73.7304 811.325,-74.1224 819.847,-80.4185 821.913,-73.7304"/>
</g>
<!-- Node27&#45;&gt;Node5 -->
<g id="edge58" class="edge"><title>Node27&#45;&gt;Node5</title>
<path fill="none" stroke="midnightblue" d="M756.349,-280.127C753.754,-251.355 741.61,-159.754 690,-112 655.963,-80.5059 601.067,-70.9431 566.836,-68.1062"/>
<polygon fill="midnightblue" stroke="midnightblue" points="566.716,-64.59 556.501,-67.4022 566.24,-71.5738 566.716,-64.59"/>
</g>
<!-- Node27&#45;&gt;Node7 -->
<g id="edge55" class="edge"><title>Node27&#45;&gt;Node7</title>
<path fill="none" stroke="midnightblue" d="M734.723,-287.402C693.738,-283.836 604.238,-273.118 535,-244 479.548,-220.68 473.556,-200.601 423,-168 373.16,-135.861 313.578,-100.008 281.402,-80.8539"/>
<polygon fill="midnightblue" stroke="midnightblue" points="283.095,-77.7888 272.711,-75.6893 279.519,-83.8066 283.095,-77.7888"/>
</g>
<!-- Node27&#45;&gt;Node20 -->
<g id="edge59" class="edge"><title>Node27&#45;&gt;Node20</title>
<path fill="none" stroke="midnightblue" d="M760.301,-280.082C765.353,-267.065 775.819,-242.408 789,-224 796.683,-213.271 806.992,-202.758 815.804,-194.595"/>
<polygon fill="midnightblue" stroke="midnightblue" points="818.251,-197.102 823.359,-187.82 813.577,-191.891 818.251,-197.102"/>
</g>
<!-- Node27&#45;&gt;Node21 -->
<g id="edge66" class="edge"><title>Node27&#45;&gt;Node21</title>
<path fill="none" stroke="midnightblue" d="M734.833,-282.7C701.584,-273.25 638.591,-255.347 599.948,-244.364"/>
<polygon fill="midnightblue" stroke="midnightblue" points="600.786,-240.964 590.21,-241.597 598.872,-247.697 600.786,-240.964"/>
</g>
<!-- Node27&#45;&gt;Node25 -->
<g id="edge56" class="edge"><title>Node27&#45;&gt;Node25</title>
<path fill="none" stroke="midnightblue" d="M779.037,-282.161C808.501,-273.017 861.06,-256.705 895.98,-245.868"/>
<polygon fill="midnightblue" stroke="midnightblue" points="897.253,-249.138 905.766,-242.831 895.178,-242.453 897.253,-249.138"/>
</g>
<!-- Node28 -->
<g id="node29" class="node"><title>Node28</title>
<g id="a_node29"><a xlink:href="Game_8h.html" target="_top" xlink:title="Game.h">
<polygon fill="white" stroke="black" points="798.5,-224.5 798.5,-243.5 849.5,-243.5 849.5,-224.5 798.5,-224.5"/>
<text text-anchor="middle" x="824" y="-231.5" font-family="Helvetica,sans-Serif" font-size="10.00">Game.h</text>
</a>
</g>
</g>
<!-- Node27&#45;&gt;Node28 -->
<g id="edge60" class="edge"><title>Node27&#45;&gt;Node28</title>
<path fill="none" stroke="midnightblue" d="M767.765,-280.324C777.766,-272.263 792.887,-260.077 804.93,-250.369"/>
<polygon fill="midnightblue" stroke="midnightblue" points="807.45,-252.834 813.039,-243.834 803.057,-247.384 807.45,-252.834"/>
</g>
<!-- Node28&#45;&gt;Node5 -->
<g id="edge61" class="edge"><title>Node28&#45;&gt;Node5</title>
<path fill="none" stroke="midnightblue" d="M816.631,-224.321C809.26,-215.46 797.784,-201.176 789,-188 767.474,-155.708 777.279,-134.974 746,-112 717.804,-91.2905 618.109,-76.7627 566.884,-70.4815"/>
<polygon fill="midnightblue" stroke="midnightblue" points="567.077,-66.9798 556.732,-69.2671 566.246,-73.9302 567.077,-66.9798"/>
</g>
<!-- Node28&#45;&gt;Node8 -->
<g id="edge65" class="edge"><title>Node28&#45;&gt;Node8</title>
<path fill="none" stroke="midnightblue" d="M849.593,-229.659C888.054,-223.336 954.591,-206.621 938,-168 909.461,-101.564 882.039,-93.1401 820,-56 787.882,-36.7725 746.518,-24.5987 717.884,-17.8309"/>
<polygon fill="midnightblue" stroke="midnightblue" points="718.477,-14.3767 707.951,-15.5791 716.929,-21.2035 718.477,-14.3767"/>
</g>
<!-- Node28&#45;&gt;Node14 -->
<g id="edge64" class="edge"><title>Node28&#45;&gt;Node14</title>
<path fill="none" stroke="midnightblue" d="M849.525,-229.203C908.601,-220.415 1055.71,-198.53 1134.78,-186.769"/>
<polygon fill="midnightblue" stroke="midnightblue" points="1135.62,-190.181 1145,-185.248 1134.59,-183.258 1135.62,-190.181"/>
</g>
<!-- Node28&#45;&gt;Node18 -->
<g id="edge63" class="edge"><title>Node28&#45;&gt;Node18</title>
<path fill="none" stroke="midnightblue" d="M798.241,-230.61C704.66,-221.927 382.609,-192.046 276.332,-182.185"/>
<polygon fill="midnightblue" stroke="midnightblue" points="276.444,-178.681 266.163,-181.242 275.797,-185.651 276.444,-178.681"/>
</g>
<!-- Node29 -->
<g id="node30" class="node"><title>Node29</title>
<polygon fill="white" stroke="#bfbfbf" points="888.5,-168.5 888.5,-187.5 929.5,-187.5 929.5,-168.5 888.5,-168.5"/>
<text text-anchor="middle" x="909" y="-175.5" font-family="Helvetica,sans-Serif" font-size="10.00">stack</text>
</g>
<!-- Node28&#45;&gt;Node29 -->
<g id="edge62" class="edge"><title>Node28&#45;&gt;Node29</title>
<path fill="none" stroke="midnightblue" d="M837.657,-224.324C850.916,-215.9 871.268,-202.971 886.846,-193.074"/>
<polygon fill="midnightblue" stroke="midnightblue" points="888.813,-195.971 895.377,-187.655 885.06,-190.063 888.813,-195.971"/>
</g>
<!-- Node31 -->
<g id="node32" class="node"><title>Node31</title>
<g id="a_node32"><a xlink:href="StateData_8h.html" target="_top" xlink:title="StateData.h">
<polygon fill="white" stroke="black" points="1051.5,-224.5 1051.5,-243.5 1120.5,-243.5 1120.5,-224.5 1051.5,-224.5"/>
<text text-anchor="middle" x="1086" y="-231.5" font-family="Helvetica,sans-Serif" font-size="10.00">StateData.h</text>
</a>
</g>
</g>
<!-- Node30&#45;&gt;Node31 -->
<g id="edge68" class="edge"><title>Node30&#45;&gt;Node31</title>
<path fill="none" stroke="midnightblue" d="M1017.17,-280.324C1029.85,-271.979 1049.23,-259.212 1064.21,-249.352"/>
<polygon fill="midnightblue" stroke="midnightblue" points="1066.43,-252.078 1072.86,-243.655 1062.58,-246.231 1066.43,-252.078"/>
</g>
<!-- Node32 -->
<g id="node33" class="node"><title>Node32</title>
<g id="a_node33"><a xlink:href="Defines_8h.html" target="_top" xlink:title="Defines.h">
<polygon fill="white" stroke="black" points="974.5,-224.5 974.5,-243.5 1033.5,-243.5 1033.5,-224.5 974.5,-224.5"/>
<text text-anchor="middle" x="1004" y="-231.5" font-family="Helvetica,sans-Serif" font-size="10.00">Defines.h</text>
</a>
</g>
</g>
<!-- Node30&#45;&gt;Node32 -->
<g id="edge69" class="edge"><title>Node30&#45;&gt;Node32</title>
<path fill="none" stroke="midnightblue" d="M1004,-280.083C1004,-273.006 1004,-262.861 1004,-253.986"/>
<polygon fill="midnightblue" stroke="midnightblue" points="1007.5,-253.751 1004,-243.751 1000.5,-253.751 1007.5,-253.751"/>
</g>
</g>
</svg>
