<?xml version="1.0" encoding="UTF-8" standalone="no"?>
<!DOCTYPE svg PUBLIC "-//W3C//DTD SVG 1.1//EN"
 "http://www.w3.org/Graphics/SVG/1.1/DTD/svg11.dtd">
<!-- Generated by graphviz version 2.38.0 (20140413.2041)
 -->
<!-- Title: Game/src/StageState.cpp Pages: 1 -->
<svg width="1645pt" height="476pt"
 viewBox="0.00 0.00 1645.00 476.00" xmlns="http://www.w3.org/2000/svg" xmlns:xlink="http://www.w3.org/1999/xlink">
<g id="graph0" class="graph" transform="scale(1 1) rotate(0) translate(4 472)">
<title>Game/src/StageState.cpp</title>
<polygon fill="white" stroke="none" points="-4,4 -4,-472 1641,-472 1641,4 -4,4"/>
<!-- Node0 -->
<g id="node1" class="node"><title>Node0</title>
<polygon fill="#bfbfbf" stroke="black" points="1232,-448.5 1232,-467.5 1362,-467.5 1362,-448.5 1232,-448.5"/>
<text text-anchor="middle" x="1297" y="-455.5" font-family="Helvetica,sans-Serif" font-size="10.00">Game/src/StageState.cpp</text>
</g>
<!-- Node1 -->
<g id="node2" class="node"><title>Node1</title>
<g id="a_node2"><a xlink:href="StageState_8h.html" target="_top" xlink:title="StageState.h">
<polygon fill="white" stroke="black" points="625,-392.5 625,-411.5 699,-411.5 699,-392.5 625,-392.5"/>
<text text-anchor="middle" x="662" y="-399.5" font-family="Helvetica,sans-Serif" font-size="10.00">StageState.h</text>
</a>
</g>
</g>
<!-- Node0&#45;&gt;Node1 -->
<g id="edge1" class="edge"><title>Node0&#45;&gt;Node1</title>
<path fill="none" stroke="midnightblue" d="M1231.73,-451.45C1103.45,-440.54 821.192,-416.538 709.167,-407.011"/>
<polygon fill="midnightblue" stroke="midnightblue" points="709.443,-403.522 699.183,-406.162 708.85,-410.497 709.443,-403.522"/>
</g>
<!-- Node20 -->
<g id="node21" class="node"><title>Node20</title>
<g id="a_node21"><a xlink:href="Error_8h.html" target="_top" xlink:title="Error.h">
<polygon fill="white" stroke="black" points="136,-224.5 136,-243.5 182,-243.5 182,-224.5 136,-224.5"/>
<text text-anchor="middle" x="159" y="-231.5" font-family="Helvetica,sans-Serif" font-size="10.00">Error.h</text>
</a>
</g>
</g>
<!-- Node0&#45;&gt;Node20 -->
<g id="edge67" class="edge"><title>Node0&#45;&gt;Node20</title>
<path fill="none" stroke="midnightblue" d="M1231.74,-456.82C1109.92,-455.57 839.949,-448.494 616,-412 519.391,-396.257 495.714,-387.392 403,-356 341.862,-335.3 326.7,-328.932 269,-300 237.422,-284.166 202.565,-262.879 180.728,-249.05"/>
<polygon fill="midnightblue" stroke="midnightblue" points="182.526,-246.046 172.214,-243.618 178.761,-251.947 182.526,-246.046"/>
</g>
<!-- Node26 -->
<g id="node27" class="node"><title>Node26</title>
<g id="a_node27"><a xlink:href="Game_8h.html" target="_top" xlink:title="Game.h">
<polygon fill="white" stroke="black" points="636.5,-224.5 636.5,-243.5 687.5,-243.5 687.5,-224.5 636.5,-224.5"/>
<text text-anchor="middle" x="662" y="-231.5" font-family="Helvetica,sans-Serif" font-size="10.00">Game.h</text>
</a>
</g>
</g>
<!-- Node0&#45;&gt;Node26 -->
<g id="edge66" class="edge"><title>Node0&#45;&gt;Node26</title>
<path fill="none" stroke="midnightblue" d="M1267.06,-448.452C1190.38,-426.319 980.996,-364.357 811,-300 767.841,-283.661 719.027,-261.676 689.391,-247.923"/>
<polygon fill="midnightblue" stroke="midnightblue" points="690.653,-244.65 680.111,-243.595 687.694,-250.994 690.653,-244.65"/>
</g>
<!-- Node28 -->
<g id="node29" class="node"><title>Node28</title>
<g id="a_node29"><a xlink:href="EndStateData_8h.html" target="_top" xlink:title="EndStateData.h">
<polygon fill="white" stroke="black" points="820,-280.5 820,-299.5 906,-299.5 906,-280.5 820,-280.5"/>
<text text-anchor="middle" x="863" y="-287.5" font-family="Helvetica,sans-Serif" font-size="10.00">EndStateData.h</text>
</a>
</g>
</g>
<!-- Node0&#45;&gt;Node28 -->
<g id="edge76" class="edge"><title>Node0&#45;&gt;Node28</title>
<path fill="none" stroke="midnightblue" d="M1294.06,-448.421C1285.74,-425.643 1259.75,-363.509 1215,-336 1166.14,-305.965 1002.17,-295.816 916.362,-292.514"/>
<polygon fill="midnightblue" stroke="midnightblue" points="916.42,-289.014 906.299,-292.144 916.163,-296.009 916.42,-289.014"/>
</g>
<!-- Node31 -->
<g id="node32" class="node"><title>Node31</title>
<g id="a_node32"><a xlink:href="Camera_8h.html" target="_top" xlink:title="Camera.h">
<polygon fill="white" stroke="black" points="1362.5,-280.5 1362.5,-299.5 1421.5,-299.5 1421.5,-280.5 1362.5,-280.5"/>
<text text-anchor="middle" x="1392" y="-287.5" font-family="Helvetica,sans-Serif" font-size="10.00">Camera.h</text>
</a>
</g>
</g>
<!-- Node0&#45;&gt;Node31 -->
<g id="edge68" class="edge"><title>Node0&#45;&gt;Node31</title>
<path fill="none" stroke="midnightblue" d="M1302.11,-448.075C1317.19,-421.719 1361.74,-343.878 1381.89,-308.661"/>
<polygon fill="midnightblue" stroke="midnightblue" points="1385.17,-309.986 1387.1,-299.568 1379.09,-306.509 1385.17,-309.986"/>
</g>
<!-- Node32 -->
<g id="node33" class="node"><title>Node32</title>
<g id="a_node33"><a xlink:href="Collision_8h.html" target="_top" xlink:title="Collision.h">
<polygon fill="white" stroke="black" points="1575,-112.5 1575,-131.5 1637,-131.5 1637,-112.5 1575,-112.5"/>
<text text-anchor="middle" x="1606" y="-119.5" font-family="Helvetica,sans-Serif" font-size="10.00">Collision.h</text>
</a>
</g>
</g>
<!-- Node0&#45;&gt;Node32 -->
<g id="edge72" class="edge"><title>Node0&#45;&gt;Node32</title>
<path fill="none" stroke="midnightblue" d="M1353.11,-448.472C1440.95,-433.521 1601,-399.128 1601,-347 1601,-347 1601,-347 1601,-233 1601,-200.915 1603.15,-163.62 1604.63,-141.737"/>
<polygon fill="midnightblue" stroke="midnightblue" points="1608.14,-141.773 1605.35,-131.552 1601.15,-141.281 1608.14,-141.773"/>
</g>
<!-- Node34 -->
<g id="node35" class="node"><title>Node34</title>
<g id="a_node35"><a xlink:href="Face_8h.html" target="_top" xlink:title="Face.h">
<polygon fill="white" stroke="black" points="1453.5,-280.5 1453.5,-299.5 1500.5,-299.5 1500.5,-280.5 1453.5,-280.5"/>
<text text-anchor="middle" x="1477" y="-287.5" font-family="Helvetica,sans-Serif" font-size="10.00">Face.h</text>
</a>
</g>
</g>
<!-- Node0&#45;&gt;Node34 -->
<g id="edge77" class="edge"><title>Node0&#45;&gt;Node34</title>
<path fill="none" stroke="midnightblue" d="M1306.68,-448.075C1335.87,-421.153 1423.31,-340.514 1460.24,-306.453"/>
<polygon fill="midnightblue" stroke="midnightblue" points="1462.73,-308.92 1467.71,-299.568 1457.99,-303.775 1462.73,-308.92"/>
</g>
<!-- Node35 -->
<g id="node36" class="node"><title>Node35</title>
<g id="a_node36"><a xlink:href="Enemy_8h.html" target="_top" xlink:title="Enemy.h">
<polygon fill="white" stroke="black" points="1268,-280.5 1268,-299.5 1324,-299.5 1324,-280.5 1268,-280.5"/>
<text text-anchor="middle" x="1296" y="-287.5" font-family="Helvetica,sans-Serif" font-size="10.00">Enemy.h</text>
</a>
</g>
</g>
<!-- Node0&#45;&gt;Node35 -->
<g id="edge82" class="edge"><title>Node0&#45;&gt;Node35</title>
<path fill="none" stroke="midnightblue" d="M1296.95,-448.075C1296.79,-421.945 1296.33,-345.211 1296.11,-309.577"/>
<polygon fill="midnightblue" stroke="midnightblue" points="1299.61,-309.547 1296.05,-299.568 1292.61,-309.589 1299.61,-309.547"/>
</g>
<!-- Node2 -->
<g id="node3" class="node"><title>Node2</title>
<polygon fill="white" stroke="#bfbfbf" points="1079,-56.5 1079,-75.5 1123,-75.5 1123,-56.5 1079,-56.5"/>
<text text-anchor="middle" x="1101" y="-63.5" font-family="Helvetica,sans-Serif" font-size="10.00">vector</text>
</g>
<!-- Node1&#45;&gt;Node2 -->
<g id="edge2" class="edge"><title>Node1&#45;&gt;Node2</title>
<path fill="none" stroke="midnightblue" d="M699.214,-400.375C784.316,-396.658 992.234,-374.059 1076,-244 1108.16,-194.07 1106.21,-119.881 1103.17,-85.6023"/>
<polygon fill="midnightblue" stroke="midnightblue" points="1106.65,-85.192 1102.15,-75.6 1099.69,-85.9042 1106.65,-85.192"/>
</g>
<!-- Node3 -->
<g id="node4" class="node"><title>Node3</title>
<polygon fill="white" stroke="#bfbfbf" points="650,-56.5 650,-75.5 702,-75.5 702,-56.5 650,-56.5"/>
<text text-anchor="middle" x="676" y="-63.5" font-family="Helvetica,sans-Serif" font-size="10.00">memory</text>
</g>
<!-- Node1&#45;&gt;Node3 -->
<g id="edge3" class="edge"><title>Node1&#45;&gt;Node3</title>
<path fill="none" stroke="midnightblue" d="M624.915,-396.754C611.131,-395.209 595.356,-393.479 581,-392 450.643,-378.568 0,-422.047 0,-291 0,-291 0,-291 0,-177 0,-111.597 499.325,-77.3635 639.69,-69.0322"/>
<polygon fill="midnightblue" stroke="midnightblue" points="640.136,-72.5122 649.914,-68.4337 639.727,-65.5242 640.136,-72.5122"/>
</g>
<!-- Node4 -->
<g id="node5" class="node"><title>Node4</title>
<g id="a_node5"><a xlink:href="Sprite_8h.html" target="_top" xlink:title="Sprite.h">
<polygon fill="white" stroke="black" points="650,-112.5 650,-131.5 700,-131.5 700,-112.5 650,-112.5"/>
<text text-anchor="middle" x="675" y="-119.5" font-family="Helvetica,sans-Serif" font-size="10.00">Sprite.h</text>
</a>
</g>
</g>
<!-- Node1&#45;&gt;Node4 -->
<g id="edge4" class="edge"><title>Node1&#45;&gt;Node4</title>
<path fill="none" stroke="midnightblue" d="M624.835,-396.43C490.499,-379.667 38,-320.976 38,-291 38,-291 38,-291 38,-233 38,-202.902 33.5236,-186.834 57,-168 104.423,-129.954 542.476,-137.773 603,-132 614.906,-130.864 627.883,-129.333 639.5,-127.856"/>
<polygon fill="midnightblue" stroke="midnightblue" points="640.251,-131.288 649.716,-126.528 639.348,-124.347 640.251,-131.288"/>
</g>
<!-- Node6 -->
<g id="node7" class="node"><title>Node6</title>
<g id="a_node7"><a xlink:href="GameObject_8h.html" target="_top" xlink:title="GameObject.h">
<polygon fill="white" stroke="black" points="1205,-112.5 1205,-131.5 1285,-131.5 1285,-112.5 1205,-112.5"/>
<text text-anchor="middle" x="1245" y="-119.5" font-family="Helvetica,sans-Serif" font-size="10.00">GameObject.h</text>
</a>
</g>
</g>
<!-- Node1&#45;&gt;Node6 -->
<g id="edge7" class="edge"><title>Node1&#45;&gt;Node6</title>
<path fill="none" stroke="midnightblue" d="M699.001,-399.615C808.218,-395.261 1124.02,-380.652 1163,-356 1237.17,-309.089 1245.16,-188.272 1245.38,-141.697"/>
<polygon fill="midnightblue" stroke="midnightblue" points="1248.88,-141.519 1245.3,-131.545 1241.88,-141.571 1248.88,-141.519"/>
</g>
<!-- Node11 -->
<g id="node12" class="node"><title>Node11</title>
<g id="a_node12"><a xlink:href="Tileset_8h.html" target="_top" xlink:title="Tileset.h">
<polygon fill="white" stroke="black" points="673,-168.5 673,-187.5 727,-187.5 727,-168.5 673,-168.5"/>
<text text-anchor="middle" x="700" y="-175.5" font-family="Helvetica,sans-Serif" font-size="10.00">Tileset.h</text>
</a>
</g>
</g>
<!-- Node1&#45;&gt;Node11 -->
<g id="edge16" class="edge"><title>Node1&#45;&gt;Node11</title>
<path fill="none" stroke="midnightblue" d="M656.385,-392.25C639.875,-365.317 594.629,-281.983 627,-224 635.156,-209.391 650.22,-198.936 664.554,-191.804"/>
<polygon fill="midnightblue" stroke="midnightblue" points="666.146,-194.924 673.789,-187.586 663.238,-188.557 666.146,-194.924"/>
</g>
<!-- Node12 -->
<g id="node13" class="node"><title>Node12</title>
<g id="a_node13"><a xlink:href="TileMap_8h.html" target="_top" xlink:title="TileMap.h">
<polygon fill="white" stroke="black" points="1161.5,-224.5 1161.5,-243.5 1220.5,-243.5 1220.5,-224.5 1161.5,-224.5"/>
<text text-anchor="middle" x="1191" y="-231.5" font-family="Helvetica,sans-Serif" font-size="10.00">TileMap.h</text>
</a>
</g>
</g>
<!-- Node1&#45;&gt;Node12 -->
<g id="edge19" class="edge"><title>Node1&#45;&gt;Node12</title>
<path fill="none" stroke="midnightblue" d="M699.25,-399.654C805.335,-395.52 1103.7,-381.71 1139,-356 1172.48,-331.619 1184.61,-281.167 1188.85,-253.741"/>
<polygon fill="midnightblue" stroke="midnightblue" points="1192.36,-253.917 1190.22,-243.539 1185.42,-252.984 1192.36,-253.917"/>
</g>
<!-- Node13 -->
<g id="node14" class="node"><title>Node13</title>
<g id="a_node14"><a xlink:href="InputManager_8h.html" target="_top" xlink:title="InputManager.h">
<polygon fill="white" stroke="black" points="529,-168.5 529,-187.5 613,-187.5 613,-168.5 529,-168.5"/>
<text text-anchor="middle" x="571" y="-175.5" font-family="Helvetica,sans-Serif" font-size="10.00">InputManager.h</text>
</a>
</g>
</g>
<!-- Node1&#45;&gt;Node13 -->
<g id="edge25" class="edge"><title>Node1&#45;&gt;Node13</title>
<path fill="none" stroke="midnightblue" d="M653.204,-392.457C644.875,-383.925 632.551,-370.084 625,-356 596.212,-302.304 580.442,-231.031 574.201,-197.69"/>
<polygon fill="midnightblue" stroke="midnightblue" points="577.596,-196.794 572.385,-187.569 570.706,-198.03 577.596,-196.794"/>
</g>
<!-- Node16 -->
<g id="node17" class="node"><title>Node16</title>
<g id="a_node17"><a xlink:href="ActionManager_8h.html" target="_top" xlink:title="ActionManager.h">
<polygon fill="white" stroke="black" points="977,-224.5 977,-243.5 1067,-243.5 1067,-224.5 977,-224.5"/>
<text text-anchor="middle" x="1022" y="-231.5" font-family="Helvetica,sans-Serif" font-size="10.00">ActionManager.h</text>
</a>
</g>
</g>
<!-- Node1&#45;&gt;Node16 -->
<g id="edge29" class="edge"><title>Node1&#45;&gt;Node16</title>
<path fill="none" stroke="midnightblue" d="M699.144,-398.024C741.877,-393.468 813.308,-382.327 869,-356 926.157,-328.98 981.317,-277.02 1007,-250.865"/>
<polygon fill="midnightblue" stroke="midnightblue" points="1009.55,-253.254 1013.99,-243.632 1004.52,-248.389 1009.55,-253.254"/>
</g>
<!-- Node17 -->
<g id="node18" class="node"><title>Node17</title>
<g id="a_node18"><a xlink:href="State_8h.html" target="_top" xlink:title="State.h">
<polygon fill="white" stroke="black" points="945,-168.5 945,-187.5 993,-187.5 993,-168.5 945,-168.5"/>
<text text-anchor="middle" x="969" y="-175.5" font-family="Helvetica,sans-Serif" font-size="10.00">State.h</text>
</a>
</g>
</g>
<!-- Node1&#45;&gt;Node17 -->
<g id="edge31" class="edge"><title>Node1&#45;&gt;Node17</title>
<path fill="none" stroke="midnightblue" d="M662.758,-392.313C665.78,-363.324 679.646,-269.204 735,-224 750.334,-211.477 873.575,-192.521 934.772,-183.755"/>
<polygon fill="midnightblue" stroke="midnightblue" points="935.329,-187.211 944.737,-182.339 934.345,-180.281 935.329,-187.211"/>
</g>
<!-- Node18 -->
<g id="node19" class="node"><title>Node18</title>
<g id="a_node19"><a xlink:href="Music_8h.html" target="_top" xlink:title="Music.h">
<polygon fill="white" stroke="black" points="278.5,-280.5 278.5,-299.5 329.5,-299.5 329.5,-280.5 278.5,-280.5"/>
<text text-anchor="middle" x="304" y="-287.5" font-family="Helvetica,sans-Serif" font-size="10.00">Music.h</text>
</a>
</g>
</g>
<!-- Node1&#45;&gt;Node18 -->
<g id="edge35" class="edge"><title>Node1&#45;&gt;Node18</title>
<path fill="none" stroke="midnightblue" d="M624.803,-394.821C583.688,-387.515 515.767,-374.035 459,-356 412.826,-341.331 361.348,-318.348 330.867,-304.006"/>
<polygon fill="midnightblue" stroke="midnightblue" points="332.277,-300.801 321.742,-299.675 329.275,-307.125 332.277,-300.801"/>
</g>
<!-- Node23 -->
<g id="node24" class="node"><title>Node23</title>
<g id="a_node24"><a xlink:href="Timer_8h.html" target="_top" xlink:title="Timer.h">
<polygon fill="white" stroke="black" points="909,-224.5 909,-243.5 959,-243.5 959,-224.5 909,-224.5"/>
<text text-anchor="middle" x="934" y="-231.5" font-family="Helvetica,sans-Serif" font-size="10.00">Timer.h</text>
</a>
</g>
</g>
<!-- Node1&#45;&gt;Node23 -->
<g id="edge44" class="edge"><title>Node1&#45;&gt;Node23</title>
<path fill="none" stroke="midnightblue" d="M699.141,-396.457C754.225,-387.741 857.267,-363.524 915,-300 926.481,-287.368 931.05,-268.157 932.855,-253.893"/>
<polygon fill="midnightblue" stroke="midnightblue" points="936.359,-254.012 933.789,-243.734 929.388,-253.371 936.359,-254.012"/>
</g>
<!-- Node24 -->
<g id="node25" class="node"><title>Node24</title>
<g id="a_node25"><a xlink:href="EndState_8h.html" target="_top" xlink:title="EndState.h">
<polygon fill="white" stroke="black" points="468.5,-336.5 468.5,-355.5 533.5,-355.5 533.5,-336.5 468.5,-336.5"/>
<text text-anchor="middle" x="501" y="-343.5" font-family="Helvetica,sans-Serif" font-size="10.00">EndState.h</text>
</a>
</g>
</g>
<!-- Node1&#45;&gt;Node24 -->
<g id="edge45" class="edge"><title>Node1&#45;&gt;Node24</title>
<path fill="none" stroke="midnightblue" d="M631.4,-392.444C602.449,-383.399 559.504,-369.064 530.817,-358.916"/>
<polygon fill="midnightblue" stroke="midnightblue" points="531.906,-355.588 521.312,-355.516 529.549,-362.179 531.906,-355.588"/>
</g>
<!-- Node4&#45;&gt;Node3 -->
<g id="edge6" class="edge"><title>Node4&#45;&gt;Node3</title>
<path fill="none" stroke="midnightblue" d="M675.165,-112.083C675.296,-105.006 675.484,-94.8611 675.648,-85.9865"/>
<polygon fill="midnightblue" stroke="midnightblue" points="679.152,-85.8142 675.838,-75.7511 672.153,-85.6845 679.152,-85.8142"/>
</g>
<!-- Node5 -->
<g id="node6" class="node"><title>Node5</title>
<polygon fill="white" stroke="#bfbfbf" points="733.5,-56.5 733.5,-75.5 774.5,-75.5 774.5,-56.5 733.5,-56.5"/>
<text text-anchor="middle" x="754" y="-63.5" font-family="Helvetica,sans-Serif" font-size="10.00">string</text>
</g>
<!-- Node4&#45;&gt;Node5 -->
<g id="edge5" class="edge"><title>Node4&#45;&gt;Node5</title>
<path fill="none" stroke="midnightblue" d="M687.693,-112.324C699.901,-103.979 718.578,-91.2122 733.003,-81.3524"/>
<polygon fill="midnightblue" stroke="midnightblue" points="735.058,-84.1871 741.339,-75.6545 731.108,-78.4082 735.058,-84.1871"/>
</g>
<!-- Node6&#45;&gt;Node2 -->
<g id="edge8" class="edge"><title>Node6&#45;&gt;Node2</title>
<path fill="none" stroke="midnightblue" d="M1222.18,-112.444C1198.03,-103.385 1159.72,-89.0213 1132.65,-78.8705"/>
<polygon fill="midnightblue" stroke="midnightblue" points="1133.83,-75.5731 1123.24,-75.339 1131.37,-82.1274 1133.83,-75.5731"/>
</g>
<!-- Node6&#45;&gt;Node3 -->
<g id="edge9" class="edge"><title>Node6&#45;&gt;Node3</title>
<path fill="none" stroke="midnightblue" d="M1204.98,-118.9C1117.45,-114.012 902.556,-100.39 724,-76 720.095,-75.4666 716.026,-74.8302 711.98,-74.1457"/>
<polygon fill="midnightblue" stroke="midnightblue" points="712.541,-70.6905 702.081,-72.3767 711.309,-77.5814 712.541,-70.6905"/>
</g>
<!-- Node6&#45;&gt;Node5 -->
<g id="edge13" class="edge"><title>Node6&#45;&gt;Node5</title>
<path fill="none" stroke="midnightblue" d="M1204.82,-116.581C1109.17,-106.061 869.602,-79.7139 784.547,-70.3596"/>
<polygon fill="midnightblue" stroke="midnightblue" points="784.828,-66.8694 774.505,-69.2552 784.063,-73.8275 784.828,-66.8694"/>
</g>
<!-- Node7 -->
<g id="node8" class="node"><title>Node7</title>
<g id="a_node8"><a xlink:href="Rect_8h.html" target="_top" xlink:title="Rect.h">
<polygon fill="white" stroke="black" points="1421,-56.5 1421,-75.5 1467,-75.5 1467,-56.5 1421,-56.5"/>
<text text-anchor="middle" x="1444" y="-63.5" font-family="Helvetica,sans-Serif" font-size="10.00">Rect.h</text>
</a>
</g>
</g>
<!-- Node6&#45;&gt;Node7 -->
<g id="edge10" class="edge"><title>Node6&#45;&gt;Node7</title>
<path fill="none" stroke="midnightblue" d="M1276.53,-112.444C1313.3,-102.467 1373.78,-86.0556 1411.11,-75.9242"/>
<polygon fill="midnightblue" stroke="midnightblue" points="1412.26,-79.2405 1420.99,-73.2437 1410.42,-72.4848 1412.26,-79.2405"/>
</g>
<!-- Node10 -->
<g id="node11" class="node"><title>Node10</title>
<g id="a_node11"><a xlink:href="Component_8h.html" target="_top" xlink:title="Component.h">
<polygon fill="white" stroke="black" points="1207.5,-56.5 1207.5,-75.5 1282.5,-75.5 1282.5,-56.5 1207.5,-56.5"/>
<text text-anchor="middle" x="1245" y="-63.5" font-family="Helvetica,sans-Serif" font-size="10.00">Component.h</text>
</a>
</g>
</g>
<!-- Node6&#45;&gt;Node10 -->
<g id="edge14" class="edge"><title>Node6&#45;&gt;Node10</title>
<path fill="none" stroke="midnightblue" d="M1239.83,-112.083C1238.32,-104.927 1237.89,-94.6353 1238.54,-85.6911"/>
<polygon fill="midnightblue" stroke="midnightblue" points="1242.02,-86.1262 1239.87,-75.7511 1235.08,-85.2002 1242.02,-86.1262"/>
</g>
<!-- Node8 -->
<g id="node9" class="node"><title>Node8</title>
<g id="a_node9"><a xlink:href="Vec2_8h.html" target="_top" xlink:title="Vec2.h">
<polygon fill="white" stroke="black" points="1149.5,-0.5 1149.5,-19.5 1196.5,-19.5 1196.5,-0.5 1149.5,-0.5"/>
<text text-anchor="middle" x="1173" y="-7.5" font-family="Helvetica,sans-Serif" font-size="10.00">Vec2.h</text>
</a>
</g>
</g>
<!-- Node7&#45;&gt;Node8 -->
<g id="edge11" class="edge"><title>Node7&#45;&gt;Node8</title>
<path fill="none" stroke="midnightblue" d="M1420.95,-59.2093C1416.34,-58.103 1411.52,-56.9841 1407,-56 1335.93,-40.5331 1252.12,-25.0871 1206.58,-16.9277"/>
<polygon fill="midnightblue" stroke="midnightblue" points="1207.12,-13.4686 1196.66,-15.1571 1205.89,-20.3597 1207.12,-13.4686"/>
</g>
<!-- Node9 -->
<g id="node10" class="node"><title>Node9</title>
<polygon fill="white" stroke="#bfbfbf" points="1461,-0.5 1461,-19.5 1505,-19.5 1505,-0.5 1461,-0.5"/>
<text text-anchor="middle" x="1483" y="-7.5" font-family="Helvetica,sans-Serif" font-size="10.00">cmath</text>
</g>
<!-- Node7&#45;&gt;Node9 -->
<g id="edge12" class="edge"><title>Node7&#45;&gt;Node9</title>
<path fill="none" stroke="midnightblue" d="M1450.44,-56.083C1455.95,-48.4554 1464.03,-37.2645 1470.76,-27.9408"/>
<polygon fill="midnightblue" stroke="midnightblue" points="1473.66,-29.9071 1476.68,-19.7511 1467.99,-25.8087 1473.66,-29.9071"/>
</g>
<!-- Node10&#45;&gt;Node6 -->
<g id="edge15" class="edge"><title>Node10&#45;&gt;Node6</title>
<path fill="none" stroke="midnightblue" d="M1250.13,-75.7511C1251.66,-82.8579 1252.1,-93.1357 1251.47,-102.101"/>
<polygon fill="midnightblue" stroke="midnightblue" points="1247.99,-101.713 1250.17,-112.083 1254.93,-102.622 1247.99,-101.713"/>
</g>
<!-- Node11&#45;&gt;Node4 -->
<g id="edge18" class="edge"><title>Node11&#45;&gt;Node4</title>
<path fill="none" stroke="midnightblue" d="M695.872,-168.083C692.486,-160.77 687.584,-150.181 683.381,-141.103"/>
<polygon fill="midnightblue" stroke="midnightblue" points="686.429,-139.355 679.051,-131.751 680.077,-142.296 686.429,-139.355"/>
</g>
<!-- Node11&#45;&gt;Node5 -->
<g id="edge17" class="edge"><title>Node11&#45;&gt;Node5</title>
<path fill="none" stroke="midnightblue" d="M704.237,-168.368C713.07,-150.376 733.603,-108.55 745.347,-84.6267"/>
<polygon fill="midnightblue" stroke="midnightblue" points="748.517,-86.1105 749.782,-75.5914 742.234,-83.0257 748.517,-86.1105"/>
</g>
<!-- Node12&#45;&gt;Node2 -->
<g id="edge21" class="edge"><title>Node12&#45;&gt;Node2</title>
<path fill="none" stroke="midnightblue" d="M1184.16,-224.336C1177.34,-215.489 1166.79,-201.214 1159,-188 1138.29,-152.861 1118.78,-109.187 1108.51,-85.0899"/>
<polygon fill="midnightblue" stroke="midnightblue" points="1111.69,-83.6281 1104.59,-75.7695 1105.24,-86.3441 1111.69,-83.6281"/>
</g>
<!-- Node12&#45;&gt;Node5 -->
<g id="edge20" class="edge"><title>Node12&#45;&gt;Node5</title>
<path fill="none" stroke="midnightblue" d="M1168.43,-224.425C1095.61,-196.765 866.891,-109.883 784.205,-78.4738"/>
<polygon fill="midnightblue" stroke="midnightblue" points="785.234,-75.1207 774.643,-74.8414 782.748,-81.6645 785.234,-75.1207"/>
</g>
<!-- Node12&#45;&gt;Node6 -->
<g id="edge24" class="edge"><title>Node12&#45;&gt;Node6</title>
<path fill="none" stroke="midnightblue" d="M1195.24,-224.368C1204.07,-206.376 1224.6,-164.55 1236.35,-140.627"/>
<polygon fill="midnightblue" stroke="midnightblue" points="1239.52,-142.11 1240.78,-131.591 1233.23,-139.026 1239.52,-142.11"/>
</g>
<!-- Node12&#45;&gt;Node8 -->
<g id="edge23" class="edge"><title>Node12&#45;&gt;Node8</title>
<path fill="none" stroke="midnightblue" d="M1190.29,-224.297C1187.65,-191.633 1178.26,-75.8661 1174.54,-29.9573"/>
<polygon fill="midnightblue" stroke="midnightblue" points="1178.02,-29.5681 1173.72,-19.8837 1171.04,-30.1339 1178.02,-29.5681"/>
</g>
<!-- Node12&#45;&gt;Node11 -->
<g id="edge22" class="edge"><title>Node12&#45;&gt;Node11</title>
<path fill="none" stroke="midnightblue" d="M1161.39,-229.744C1076.35,-220.39 831.426,-193.454 737.386,-183.112"/>
<polygon fill="midnightblue" stroke="midnightblue" points="737.526,-179.606 727.204,-181.992 736.761,-186.564 737.526,-179.606"/>
</g>
<!-- Node13&#45;&gt;Node8 -->
<g id="edge26" class="edge"><title>Node13&#45;&gt;Node8</title>
<path fill="none" stroke="midnightblue" d="M577.793,-168.309C584.577,-159.44 595.102,-145.149 603,-132 622.445,-99.6263 609.741,-77.1914 641,-56 682.162,-28.0946 1028.17,-15.3519 1139,-11.9604"/>
<polygon fill="midnightblue" stroke="midnightblue" points="1139.37,-15.4508 1149.26,-11.6525 1139.16,-8.4539 1139.37,-15.4508"/>
</g>
<!-- Node14 -->
<g id="node15" class="node"><title>Node14</title>
<polygon fill="white" stroke="#bfbfbf" points="446.5,-112.5 446.5,-131.5 529.5,-131.5 529.5,-112.5 446.5,-112.5"/>
<text text-anchor="middle" x="488" y="-119.5" font-family="Helvetica,sans-Serif" font-size="10.00">unordered_map</text>
</g>
<!-- Node13&#45;&gt;Node14 -->
<g id="edge27" class="edge"><title>Node13&#45;&gt;Node14</title>
<path fill="none" stroke="midnightblue" d="M557.665,-168.324C544.838,-159.979 525.215,-147.212 510.06,-137.352"/>
<polygon fill="midnightblue" stroke="midnightblue" points="511.593,-134.174 501.302,-131.655 507.776,-140.042 511.593,-134.174"/>
</g>
<!-- Node15 -->
<g id="node16" class="node"><title>Node15</title>
<polygon fill="white" stroke="#bfbfbf" points="548,-112.5 548,-131.5 594,-131.5 594,-112.5 548,-112.5"/>
<text text-anchor="middle" x="571" y="-119.5" font-family="Helvetica,sans-Serif" font-size="10.00">cstdint</text>
</g>
<!-- Node13&#45;&gt;Node15 -->
<g id="edge28" class="edge"><title>Node13&#45;&gt;Node15</title>
<path fill="none" stroke="midnightblue" d="M571,-168.083C571,-161.006 571,-150.861 571,-141.986"/>
<polygon fill="midnightblue" stroke="midnightblue" points="574.5,-141.751 571,-131.751 567.5,-141.751 574.5,-141.751"/>
</g>
<!-- Node16&#45;&gt;Node13 -->
<g id="edge30" class="edge"><title>Node16&#45;&gt;Node13</title>
<path fill="none" stroke="midnightblue" d="M976.946,-225.31C973.921,-224.85 970.918,-224.408 968,-224 844.817,-206.765 699.42,-191.596 623.367,-184.055"/>
<polygon fill="midnightblue" stroke="midnightblue" points="623.4,-180.541 613.105,-183.042 622.713,-187.508 623.4,-180.541"/>
</g>
<!-- Node17&#45;&gt;Node2 -->
<g id="edge33" class="edge"><title>Node17&#45;&gt;Node2</title>
<path fill="none" stroke="midnightblue" d="M979.358,-168.368C1001.72,-149.733 1054.76,-105.532 1082.84,-82.1338"/>
<polygon fill="midnightblue" stroke="midnightblue" points="1085.25,-84.6821 1090.69,-75.5914 1080.77,-79.3045 1085.25,-84.6821"/>
</g>
<!-- Node17&#45;&gt;Node3 -->
<g id="edge34" class="edge"><title>Node17&#45;&gt;Node3</title>
<path fill="none" stroke="midnightblue" d="M946.009,-168.368C894.232,-148.93 768.36,-101.674 708.57,-79.2278"/>
<polygon fill="midnightblue" stroke="midnightblue" points="709.477,-75.8295 698.884,-75.5914 707.016,-82.3829 709.477,-75.8295"/>
</g>
<!-- Node17&#45;&gt;Node6 -->
<g id="edge32" class="edge"><title>Node17&#45;&gt;Node6</title>
<path fill="none" stroke="midnightblue" d="M993.01,-172.302C1037.77,-163.546 1134.81,-144.56 1194.55,-132.87"/>
<polygon fill="midnightblue" stroke="midnightblue" points="1195.39,-136.273 1204.53,-130.918 1194.04,-129.404 1195.39,-136.273"/>
</g>
<!-- Node18&#45;&gt;Node5 -->
<g id="edge36" class="edge"><title>Node18&#45;&gt;Node5</title>
<path fill="none" stroke="midnightblue" d="M297.671,-280.411C283.508,-260.061 251.947,-207.643 271,-168 288.259,-132.091 304.088,-126.995 341,-112 494.073,-49.8171 547.675,-100.961 711,-76 714.958,-75.3951 719.101,-74.6597 723.187,-73.8729"/>
<polygon fill="midnightblue" stroke="midnightblue" points="723.987,-77.2819 733.087,-71.856 722.59,-70.4228 723.987,-77.2819"/>
</g>
<!-- Node19 -->
<g id="node20" class="node"><title>Node19</title>
<g id="a_node20"><a xlink:href="Resources_8h.html" target="_top" xlink:title="Resources.h">
<polygon fill="white" stroke="black" points="280,-168.5 280,-187.5 352,-187.5 352,-168.5 280,-168.5"/>
<text text-anchor="middle" x="316" y="-175.5" font-family="Helvetica,sans-Serif" font-size="10.00">Resources.h</text>
</a>
</g>
</g>
<!-- Node18&#45;&gt;Node19 -->
<g id="edge37" class="edge"><title>Node18&#45;&gt;Node19</title>
<path fill="none" stroke="midnightblue" d="M304.942,-280.368C306.878,-262.617 311.345,-221.666 313.971,-197.597"/>
<polygon fill="midnightblue" stroke="midnightblue" points="317.458,-197.912 315.063,-187.591 310.499,-197.153 317.458,-197.912"/>
</g>
<!-- Node18&#45;&gt;Node20 -->
<g id="edge41" class="edge"><title>Node18&#45;&gt;Node20</title>
<path fill="none" stroke="midnightblue" d="M281.024,-280.444C256.843,-271.438 218.582,-257.189 191.354,-247.049"/>
<polygon fill="midnightblue" stroke="midnightblue" points="192.461,-243.727 181.868,-243.516 190.018,-250.286 192.461,-243.727"/>
</g>
<!-- Node19&#45;&gt;Node3 -->
<g id="edge40" class="edge"><title>Node19&#45;&gt;Node3</title>
<path fill="none" stroke="midnightblue" d="M314.726,-168.371C313.192,-154.341 312.506,-126.68 328,-112 372.228,-70.097 559.787,-66.2026 639.7,-66.5032"/>
<polygon fill="midnightblue" stroke="midnightblue" points="639.769,-70.0036 649.79,-66.566 639.812,-63.0037 639.769,-70.0036"/>
</g>
<!-- Node19&#45;&gt;Node5 -->
<g id="edge38" class="edge"><title>Node19&#45;&gt;Node5</title>
<path fill="none" stroke="midnightblue" d="M319.763,-168.441C326.622,-153.991 342.634,-125.056 366,-112 433.291,-74.4011 634.843,-87.9113 711,-76 714.956,-75.3812 719.098,-74.6378 723.183,-73.8467"/>
<polygon fill="midnightblue" stroke="midnightblue" points="723.985,-77.2554 733.083,-71.8264 722.585,-70.3968 723.985,-77.2554"/>
</g>
<!-- Node19&#45;&gt;Node14 -->
<g id="edge39" class="edge"><title>Node19&#45;&gt;Node14</title>
<path fill="none" stroke="midnightblue" d="M343.254,-168.444C372.441,-159.28 418.921,-144.688 451.309,-134.519"/>
<polygon fill="midnightblue" stroke="midnightblue" points="452.381,-137.851 460.874,-131.516 450.284,-131.173 452.381,-137.851"/>
</g>
<!-- Node21 -->
<g id="node22" class="node"><title>Node21</title>
<polygon fill="white" stroke="#bfbfbf" points="132,-168.5 132,-187.5 186,-187.5 186,-168.5 132,-168.5"/>
<text text-anchor="middle" x="159" y="-175.5" font-family="Helvetica,sans-Serif" font-size="10.00">iostream</text>
</g>
<!-- Node20&#45;&gt;Node21 -->
<g id="edge42" class="edge"><title>Node20&#45;&gt;Node21</title>
<path fill="none" stroke="midnightblue" d="M159,-224.083C159,-217.006 159,-206.861 159,-197.986"/>
<polygon fill="midnightblue" stroke="midnightblue" points="162.5,-197.751 159,-187.751 155.5,-197.751 162.5,-197.751"/>
</g>
<!-- Node22 -->
<g id="node23" class="node"><title>Node22</title>
<polygon fill="white" stroke="#bfbfbf" points="66,-168.5 66,-187.5 114,-187.5 114,-168.5 66,-168.5"/>
<text text-anchor="middle" x="90" y="-175.5" font-family="Helvetica,sans-Serif" font-size="10.00">stdlib.h</text>
</g>
<!-- Node20&#45;&gt;Node22 -->
<g id="edge43" class="edge"><title>Node20&#45;&gt;Node22</title>
<path fill="none" stroke="midnightblue" d="M147.914,-224.324C137.514,-216.185 121.739,-203.839 109.278,-194.087"/>
<polygon fill="midnightblue" stroke="midnightblue" points="111.32,-191.241 101.288,-187.834 107.006,-196.753 111.32,-191.241"/>
</g>
<!-- Node24&#45;&gt;Node1 -->
<g id="edge65" class="edge"><title>Node24&#45;&gt;Node1</title>
<path fill="none" stroke="midnightblue" d="M531.472,-355.516C560.381,-364.546 603.327,-378.879 632.055,-389.039"/>
<polygon fill="midnightblue" stroke="midnightblue" points="630.983,-392.373 641.578,-392.444 633.34,-385.781 630.983,-392.373"/>
</g>
<!-- Node24&#45;&gt;Node4 -->
<g id="edge47" class="edge"><title>Node24&#45;&gt;Node4</title>
<path fill="none" stroke="midnightblue" d="M496.161,-336.455C481.147,-308.691 438.774,-219.824 480,-168 489.936,-155.51 586.072,-137.766 639.545,-128.745"/>
<polygon fill="midnightblue" stroke="midnightblue" points="640.345,-132.16 649.633,-127.061 639.193,-125.256 640.345,-132.16"/>
</g>
<!-- Node24&#45;&gt;Node6 -->
<g id="edge46" class="edge"><title>Node24&#45;&gt;Node6</title>
<path fill="none" stroke="midnightblue" d="M498.61,-336.367C491.214,-307.553 471.971,-213.918 520,-168 568.536,-121.598 1038.12,-121.258 1194.57,-122.454"/>
<polygon fill="midnightblue" stroke="midnightblue" points="1194.83,-125.956 1204.85,-122.539 1194.88,-118.957 1194.83,-125.956"/>
</g>
<!-- Node24&#45;&gt;Node13 -->
<g id="edge64" class="edge"><title>Node24&#45;&gt;Node13</title>
<path fill="none" stroke="midnightblue" d="M504.764,-336.075C515.83,-309.832 548.421,-232.545 563.36,-197.117"/>
<polygon fill="midnightblue" stroke="midnightblue" points="566.726,-198.142 567.387,-187.568 560.276,-195.422 566.726,-198.142"/>
</g>
<!-- Node24&#45;&gt;Node18 -->
<g id="edge48" class="edge"><title>Node24&#45;&gt;Node18</title>
<path fill="none" stroke="midnightblue" d="M469.785,-336.444C434.381,-326.739 376.763,-310.945 339.628,-300.766"/>
<polygon fill="midnightblue" stroke="midnightblue" points="340.303,-297.322 329.733,-298.054 338.452,-304.073 340.303,-297.322"/>
</g>
<!-- Node25 -->
<g id="node26" class="node"><title>Node25</title>
<g id="a_node26"><a xlink:href="Text_8h.html" target="_top" xlink:title="Text.h">
<polygon fill="white" stroke="black" points="358,-280.5 358,-299.5 402,-299.5 402,-280.5 358,-280.5"/>
<text text-anchor="middle" x="380" y="-287.5" font-family="Helvetica,sans-Serif" font-size="10.00">Text.h</text>
</a>
</g>
</g>
<!-- Node24&#45;&gt;Node25 -->
<g id="edge49" class="edge"><title>Node24&#45;&gt;Node25</title>
<path fill="none" stroke="midnightblue" d="M481.827,-336.444C462.091,-327.636 431.115,-313.812 408.507,-303.722"/>
<polygon fill="midnightblue" stroke="midnightblue" points="409.641,-300.396 399.083,-299.516 406.789,-306.788 409.641,-300.396"/>
</g>
<!-- Node24&#45;&gt;Node28 -->
<g id="edge61" class="edge"><title>Node24&#45;&gt;Node28</title>
<path fill="none" stroke="midnightblue" d="M533.764,-340.113C596.347,-330.777 733.42,-310.33 809.482,-298.983"/>
<polygon fill="midnightblue" stroke="midnightblue" points="810.421,-302.382 819.796,-297.445 809.389,-295.459 810.421,-302.382"/>
</g>
<!-- Node25&#45;&gt;Node3 -->
<g id="edge51" class="edge"><title>Node25&#45;&gt;Node3</title>
<path fill="none" stroke="midnightblue" d="M363.559,-280.422C315.515,-254.318 182.174,-173.855 238,-112 264.746,-82.3652 539.469,-71.1313 639.676,-68.0002"/>
<polygon fill="midnightblue" stroke="midnightblue" points="640.025,-71.4913 649.915,-67.6897 639.813,-64.4945 640.025,-71.4913"/>
</g>
<!-- Node25&#45;&gt;Node5 -->
<g id="edge52" class="edge"><title>Node25&#45;&gt;Node5</title>
<path fill="none" stroke="midnightblue" d="M377.989,-280.429C371.835,-251.809 356.432,-158.717 404,-112 453.007,-63.8692 643.204,-87.0471 711,-76 714.952,-75.356 719.092,-74.5977 723.176,-73.7989"/>
<polygon fill="midnightblue" stroke="midnightblue" points="723.979,-77.207 733.074,-71.7724 722.575,-70.3493 723.979,-77.207"/>
</g>
<!-- Node25&#45;&gt;Node7 -->
<g id="edge50" class="edge"><title>Node25&#45;&gt;Node7</title>
<path fill="none" stroke="midnightblue" d="M381.465,-280.318C387.155,-247.723 408.873,-133.413 437,-112 474.783,-83.2357 1243.57,-78.3943 1291,-76 1332.24,-73.9178 1379.71,-71.0524 1410.7,-69.1187"/>
<polygon fill="midnightblue" stroke="midnightblue" points="1411.18,-72.5959 1420.94,-68.4764 1410.74,-65.6096 1411.18,-72.5959"/>
</g>
<!-- Node25&#45;&gt;Node19 -->
<g id="edge53" class="edge"><title>Node25&#45;&gt;Node19</title>
<path fill="none" stroke="midnightblue" d="M374.978,-280.368C364.463,-262.296 339.957,-220.176 326.07,-196.307"/>
<polygon fill="midnightblue" stroke="midnightblue" points="329.053,-194.475 320.999,-187.591 323.002,-197.995 329.053,-194.475"/>
</g>
<!-- Node25&#45;&gt;Node20 -->
<g id="edge60" class="edge"><title>Node25&#45;&gt;Node20</title>
<path fill="none" stroke="midnightblue" d="M357.593,-283.525C318.5,-273.973 237.662,-254.221 192.098,-243.087"/>
<polygon fill="midnightblue" stroke="midnightblue" points="192.674,-239.625 182.129,-240.651 191.013,-246.425 192.674,-239.625"/>
</g>
<!-- Node25&#45;&gt;Node26 -->
<g id="edge54" class="edge"><title>Node25&#45;&gt;Node26</title>
<path fill="none" stroke="midnightblue" d="M402.128,-284.763C450.755,-275.451 567.289,-253.136 626.367,-241.823"/>
<polygon fill="midnightblue" stroke="midnightblue" points="627.197,-245.228 636.36,-239.91 625.88,-238.353 627.197,-245.228"/>
</g>
<!-- Node26&#45;&gt;Node5 -->
<g id="edge55" class="edge"><title>Node26&#45;&gt;Node5</title>
<path fill="none" stroke="midnightblue" d="M686.641,-224.458C703.317,-217.352 724.357,-205.538 736,-188 756.678,-156.852 757.429,-111.325 755.881,-85.9235"/>
<polygon fill="midnightblue" stroke="midnightblue" points="759.357,-85.482 755.071,-75.7928 752.379,-86.0399 759.357,-85.482"/>
</g>
<!-- Node26&#45;&gt;Node8 -->
<g id="edge59" class="edge"><title>Node26&#45;&gt;Node8</title>
<path fill="none" stroke="midnightblue" d="M687.663,-228.244C733.614,-219.546 828.035,-200.793 859,-188 961.235,-145.761 972.164,-107.616 1070,-56 1093.39,-43.6587 1120.89,-31.7717 1141.58,-23.3172"/>
<polygon fill="midnightblue" stroke="midnightblue" points="1142.9,-26.5604 1150.86,-19.5705 1140.28,-20.0697 1142.9,-26.5604"/>
</g>
<!-- Node26&#45;&gt;Node13 -->
<g id="edge58" class="edge"><title>Node26&#45;&gt;Node13</title>
<path fill="none" stroke="midnightblue" d="M647.379,-224.324C633.051,-215.822 610.987,-202.729 594.251,-192.797"/>
<polygon fill="midnightblue" stroke="midnightblue" points="595.97,-189.748 585.584,-187.655 592.398,-195.768 595.97,-189.748"/>
</g>
<!-- Node26&#45;&gt;Node17 -->
<g id="edge57" class="edge"><title>Node26&#45;&gt;Node17</title>
<path fill="none" stroke="midnightblue" d="M687.777,-226.984C692.499,-225.944 697.39,-224.906 702,-224 785.325,-207.617 884.007,-191.947 934.88,-184.143"/>
<polygon fill="midnightblue" stroke="midnightblue" points="935.63,-187.569 944.987,-182.599 934.573,-180.649 935.63,-187.569"/>
</g>
<!-- Node27 -->
<g id="node28" class="node"><title>Node27</title>
<polygon fill="white" stroke="#bfbfbf" points="809.5,-168.5 809.5,-187.5 850.5,-187.5 850.5,-168.5 809.5,-168.5"/>
<text text-anchor="middle" x="830" y="-175.5" font-family="Helvetica,sans-Serif" font-size="10.00">stack</text>
</g>
<!-- Node26&#45;&gt;Node27 -->
<g id="edge56" class="edge"><title>Node26&#45;&gt;Node27</title>
<path fill="none" stroke="midnightblue" d="M687.516,-224.799C717.582,-215.134 767.494,-199.091 799.554,-188.786"/>
<polygon fill="midnightblue" stroke="midnightblue" points="800.839,-192.05 809.288,-185.657 798.697,-185.385 800.839,-192.05"/>
</g>
<!-- Node29 -->
<g id="node30" class="node"><title>Node29</title>
<g id="a_node30"><a xlink:href="StateData_8h.html" target="_top" xlink:title="StateData.h">
<polygon fill="white" stroke="black" points="821.5,-224.5 821.5,-243.5 890.5,-243.5 890.5,-224.5 821.5,-224.5"/>
<text text-anchor="middle" x="856" y="-231.5" font-family="Helvetica,sans-Serif" font-size="10.00">StateData.h</text>
</a>
</g>
</g>
<!-- Node28&#45;&gt;Node29 -->
<g id="edge62" class="edge"><title>Node28&#45;&gt;Node29</title>
<path fill="none" stroke="midnightblue" d="M861.844,-280.083C860.916,-272.927 859.582,-262.635 858.423,-253.691"/>
<polygon fill="midnightblue" stroke="midnightblue" points="861.891,-253.218 857.134,-243.751 854.949,-254.118 861.891,-253.218"/>
</g>
<!-- Node30 -->
<g id="node31" class="node"><title>Node30</title>
<g id="a_node31"><a xlink:href="Defines_8h.html" target="_top" xlink:title="Defines.h">
<polygon fill="white" stroke="black" points="744.5,-224.5 744.5,-243.5 803.5,-243.5 803.5,-224.5 744.5,-224.5"/>
<text text-anchor="middle" x="774" y="-231.5" font-family="Helvetica,sans-Serif" font-size="10.00">Defines.h</text>
</a>
</g>
</g>
<!-- Node28&#45;&gt;Node30 -->
<g id="edge63" class="edge"><title>Node28&#45;&gt;Node30</title>
<path fill="none" stroke="midnightblue" d="M848.701,-280.324C834.817,-271.9 813.508,-258.971 797.196,-249.074"/>
<polygon fill="midnightblue" stroke="midnightblue" points="798.629,-245.85 788.264,-243.655 794.998,-251.834 798.629,-245.85"/>
</g>
<!-- Node31&#45;&gt;Node6 -->
<g id="edge69" class="edge"><title>Node31&#45;&gt;Node6</title>
<path fill="none" stroke="midnightblue" d="M1393.45,-280.5C1396.6,-258.955 1401.76,-201.539 1374,-168 1354.76,-144.75 1322.77,-133.495 1295.47,-128.055"/>
<polygon fill="midnightblue" stroke="midnightblue" points="1295.73,-124.546 1285.27,-126.242 1294.5,-131.438 1295.73,-124.546"/>
</g>
<!-- Node31&#45;&gt;Node8 -->
<g id="edge70" class="edge"><title>Node31&#45;&gt;Node8</title>
<path fill="none" stroke="midnightblue" d="M1396.62,-280.339C1401.06,-271.493 1407.45,-257.22 1410,-244 1416.53,-210.105 1410.88,-198.11 1394,-168 1360.93,-109.01 1346.98,-93.9494 1291,-56 1265,-38.3738 1231.15,-26.3828 1206.37,-19.2398"/>
<polygon fill="midnightblue" stroke="midnightblue" points="1207.26,-15.8552 1196.69,-16.5614 1205.4,-22.6017 1207.26,-15.8552"/>
</g>
<!-- Node31&#45;&gt;Node16 -->
<g id="edge71" class="edge"><title>Node31&#45;&gt;Node16</title>
<path fill="none" stroke="midnightblue" d="M1362.29,-284.423C1352.92,-282.992 1342.53,-281.417 1333,-280 1243.42,-266.687 1139.24,-251.717 1077.06,-242.837"/>
<polygon fill="midnightblue" stroke="midnightblue" points="1077.48,-239.361 1067.08,-241.412 1076.49,-246.29 1077.48,-239.361"/>
</g>
<!-- Node32&#45;&gt;Node7 -->
<g id="edge75" class="edge"><title>Node32&#45;&gt;Node7</title>
<path fill="none" stroke="midnightblue" d="M1580.33,-112.444C1552.36,-103.119 1507.51,-88.1716 1476.96,-77.9858"/>
<polygon fill="midnightblue" stroke="midnightblue" points="1477.78,-74.571 1467.19,-74.729 1475.57,-81.2118 1477.78,-74.571"/>
</g>
<!-- Node32&#45;&gt;Node9 -->
<g id="edge73" class="edge"><title>Node32&#45;&gt;Node9</title>
<path fill="none" stroke="midnightblue" d="M1596.35,-112.368C1575.6,-93.8137 1526.51,-49.9129 1500.26,-26.4376"/>
<polygon fill="midnightblue" stroke="midnightblue" points="1502.39,-23.6487 1492.61,-19.5914 1497.73,-28.8665 1502.39,-23.6487"/>
</g>
<!-- Node33 -->
<g id="node34" class="node"><title>Node33</title>
<polygon fill="white" stroke="#bfbfbf" points="1578,-56.5 1578,-75.5 1634,-75.5 1634,-56.5 1578,-56.5"/>
<text text-anchor="middle" x="1606" y="-63.5" font-family="Helvetica,sans-Serif" font-size="10.00">algorithm</text>
</g>
<!-- Node32&#45;&gt;Node33 -->
<g id="edge74" class="edge"><title>Node32&#45;&gt;Node33</title>
<path fill="none" stroke="midnightblue" d="M1606,-112.083C1606,-105.006 1606,-94.8611 1606,-85.9865"/>
<polygon fill="midnightblue" stroke="midnightblue" points="1609.5,-85.751 1606,-75.7511 1602.5,-85.7511 1609.5,-85.751"/>
</g>
<!-- Node34&#45;&gt;Node4 -->
<g id="edge79" class="edge"><title>Node34&#45;&gt;Node4</title>
<path fill="none" stroke="midnightblue" d="M1453.44,-282.702C1409.4,-270.961 1311.61,-245.013 1229,-224 1128.29,-198.382 1104.06,-187.555 1002,-168 896.608,-147.806 770.437,-133.078 710.275,-126.623"/>
<polygon fill="midnightblue" stroke="midnightblue" points="710.485,-123.126 700.172,-125.551 709.746,-130.087 710.485,-123.126"/>
</g>
<!-- Node34&#45;&gt;Node6 -->
<g id="edge78" class="edge"><title>Node34&#45;&gt;Node6</title>
<path fill="none" stroke="midnightblue" d="M1482.47,-280.407C1490,-267.372 1501.5,-242.194 1491,-224 1451.5,-155.59 1354.91,-133.508 1295.19,-126.385"/>
<polygon fill="midnightblue" stroke="midnightblue" points="1295.53,-122.902 1285.21,-125.293 1294.77,-129.861 1295.53,-122.902"/>
</g>
<!-- Node34&#45;&gt;Node7 -->
<g id="edge80" class="edge"><title>Node34&#45;&gt;Node7</title>
<path fill="none" stroke="midnightblue" d="M1485.48,-280.234C1493.05,-271.75 1503.6,-258.131 1508,-244 1510.64,-235.512 1509.71,-232.723 1508,-224 1497.61,-171.005 1469.24,-113.332 1454,-84.905"/>
<polygon fill="midnightblue" stroke="midnightblue" points="1456.9,-82.916 1449.04,-75.8181 1450.76,-86.272 1456.9,-82.916"/>
</g>
<!-- Node34&#45;&gt;Node12 -->
<g id="edge81" class="edge"><title>Node34&#45;&gt;Node12</title>
<path fill="none" stroke="midnightblue" d="M1453.09,-284.407C1445.69,-282.989 1437.51,-281.426 1430,-280 1359.86,-266.681 1278.1,-251.324 1230.68,-242.432"/>
<polygon fill="midnightblue" stroke="midnightblue" points="1231.29,-238.985 1220.81,-240.583 1230,-245.865 1231.29,-238.985"/>
</g>
<!-- Node35&#45;&gt;Node4 -->
<g id="edge86" class="edge"><title>Node35&#45;&gt;Node4</title>
<path fill="none" stroke="midnightblue" d="M1268.31,-280.474C1226.69,-267.738 1145.48,-243.192 1076,-224 1014.07,-206.895 998.203,-204.076 936,-188 901.767,-179.153 893.285,-176.645 859,-168 807.117,-154.918 746.86,-140.288 709.83,-131.362"/>
<polygon fill="midnightblue" stroke="midnightblue" points="710.569,-127.94 700.028,-129.001 708.93,-134.745 710.569,-127.94"/>
</g>
<!-- Node35&#45;&gt;Node6 -->
<g id="edge83" class="edge"><title>Node35&#45;&gt;Node6</title>
<path fill="none" stroke="midnightblue" d="M1294.01,-280.391C1289.32,-260.424 1276.91,-209.498 1263,-168 1259.95,-158.912 1256.06,-149.003 1252.67,-140.802"/>
<polygon fill="midnightblue" stroke="midnightblue" points="1255.86,-139.37 1248.75,-131.518 1249.41,-142.092 1255.86,-139.37"/>
</g>
<!-- Node35&#45;&gt;Node7 -->
<g id="edge87" class="edge"><title>Node35&#45;&gt;Node7</title>
<path fill="none" stroke="midnightblue" d="M1302.98,-280.437C1310.29,-271.43 1322.07,-256.813 1332,-244 1351.05,-219.406 1356.85,-213.955 1374,-188 1397.53,-152.391 1421.77,-108.599 1434.64,-84.6751"/>
<polygon fill="midnightblue" stroke="midnightblue" points="1437.8,-86.1898 1439.42,-75.7201 1431.62,-82.892 1437.8,-86.1898"/>
</g>
<!-- Node35&#45;&gt;Node12 -->
<g id="edge88" class="edge"><title>Node35&#45;&gt;Node12</title>
<path fill="none" stroke="midnightblue" d="M1279.13,-280.324C1262.29,-271.664 1236.19,-258.242 1216.76,-248.249"/>
<polygon fill="midnightblue" stroke="midnightblue" points="1218.32,-245.116 1207.83,-243.655 1215.12,-251.341 1218.32,-245.116"/>
</g>
<!-- Node35&#45;&gt;Node23 -->
<g id="edge89" class="edge"><title>Node35&#45;&gt;Node23</title>
<path fill="none" stroke="midnightblue" d="M1267.73,-286.3C1212.3,-280.755 1085.36,-266.818 969.29,-244.044"/>
<polygon fill="midnightblue" stroke="midnightblue" points="969.661,-240.549 959.171,-242.03 968.295,-247.415 969.661,-240.549"/>
</g>
<!-- Node36 -->
<g id="node37" class="node"><title>Node36</title>
<g id="a_node37"><a xlink:href="Wave_8h.html" target="_top" xlink:title="Wave.h">
<polygon fill="white" stroke="black" points="1315,-168.5 1315,-187.5 1365,-187.5 1365,-168.5 1315,-168.5"/>
<text text-anchor="middle" x="1340" y="-175.5" font-family="Helvetica,sans-Serif" font-size="10.00">Wave.h</text>
</a>
</g>
</g>
<!-- Node35&#45;&gt;Node36 -->
<g id="edge84" class="edge"><title>Node35&#45;&gt;Node36</title>
<path fill="none" stroke="midnightblue" d="M1299.45,-280.368C1306.62,-262.456 1323.23,-220.923 1332.82,-196.948"/>
<polygon fill="midnightblue" stroke="midnightblue" points="1336.1,-198.176 1336.56,-187.591 1329.6,-195.576 1336.1,-198.176"/>
</g>
<!-- Node36&#45;&gt;Node6 -->
<g id="edge85" class="edge"><title>Node36&#45;&gt;Node6</title>
<path fill="none" stroke="midnightblue" d="M1324.74,-168.324C1309.78,-159.822 1286.75,-146.729 1269.27,-136.797"/>
<polygon fill="midnightblue" stroke="midnightblue" points="1270.65,-133.553 1260.23,-131.655 1267.19,-139.639 1270.65,-133.553"/>
</g>
</g>
</svg>
