<?xml version="1.0" encoding="UTF-8" standalone="no"?>
<!DOCTYPE svg PUBLIC "-//W3C//DTD SVG 1.1//EN"
 "http://www.w3.org/Graphics/SVG/1.1/DTD/svg11.dtd">
<!-- Generated by graphviz version 2.38.0 (20140413.2041)
 -->
<!-- Title: Game/include/StageState.h Pages: 1 -->
<svg width="1284pt" height="420pt"
 viewBox="0.00 0.00 1284.00 420.00" xmlns="http://www.w3.org/2000/svg" xmlns:xlink="http://www.w3.org/1999/xlink">
<g id="graph0" class="graph" transform="scale(1 1) rotate(0) translate(4 416)">
<title>Game/include/StageState.h</title>
<polygon fill="white" stroke="none" points="-4,4 -4,-416 1280,-416 1280,4 -4,4"/>
<!-- Node1 -->
<g id="node1" class="node"><title>Node1</title>
<polygon fill="#bfbfbf" stroke="black" points="586.5,-392.5 586.5,-411.5 723.5,-411.5 723.5,-392.5 586.5,-392.5"/>
<text text-anchor="middle" x="655" y="-399.5" font-family="Helvetica,sans-Serif" font-size="10.00">Game/include/StageState.h</text>
</g>
<!-- Node2 -->
<g id="node2" class="node"><title>Node2</title>
<polygon fill="white" stroke="#bfbfbf" points="79,-56.5 79,-75.5 123,-75.5 123,-56.5 79,-56.5"/>
<text text-anchor="middle" x="101" y="-63.5" font-family="Helvetica,sans-Serif" font-size="10.00">vector</text>
</g>
<!-- Node1&#45;&gt;Node2 -->
<g id="edge1" class="edge"><title>Node1&#45;&gt;Node2</title>
<path fill="none" stroke="midnightblue" d="M586.159,-401.905C487.521,-401.633 300.999,-395.259 148,-356 78.4123,-338.144 0,-362.842 0,-291 0,-291 0,-291 0,-177 0,-132.593 45.2128,-98.3671 75.1375,-80.5772"/>
<polygon fill="midnightblue" stroke="midnightblue" points="76.9196,-83.5901 83.8667,-75.5909 73.4475,-77.5119 76.9196,-83.5901"/>
</g>
<!-- Node3 -->
<g id="node3" class="node"><title>Node3</title>
<polygon fill="white" stroke="#bfbfbf" points="766,-56.5 766,-75.5 818,-75.5 818,-56.5 766,-56.5"/>
<text text-anchor="middle" x="792" y="-63.5" font-family="Helvetica,sans-Serif" font-size="10.00">memory</text>
</g>
<!-- Node1&#45;&gt;Node3 -->
<g id="edge2" class="edge"><title>Node1&#45;&gt;Node3</title>
<path fill="none" stroke="midnightblue" d="M723.723,-399.016C829.935,-395.102 1028.46,-384.172 1093,-356 1133.12,-338.488 1167,-334.775 1167,-291 1167,-291 1167,-291 1167,-177 1167,-125.105 1118.41,-130.705 1070,-112 971.143,-73.8016 936.074,-96.2164 828.269,-76.0261"/>
<polygon fill="midnightblue" stroke="midnightblue" points="828.791,-72.5619 818.305,-74.0787 827.448,-79.432 828.791,-72.5619"/>
</g>
<!-- Node4 -->
<g id="node4" class="node"><title>Node4</title>
<g id="a_node4"><a xlink:href="ActionManager_8h.html" target="_top" xlink:title="ActionManager.h">
<polygon fill="white" stroke="black" points="918,-336.5 918,-355.5 1008,-355.5 1008,-336.5 918,-336.5"/>
<text text-anchor="middle" x="963" y="-343.5" font-family="Helvetica,sans-Serif" font-size="10.00">ActionManager.h</text>
</a>
</g>
</g>
<!-- Node1&#45;&gt;Node4 -->
<g id="edge3" class="edge"><title>Node1&#45;&gt;Node4</title>
<path fill="none" stroke="midnightblue" d="M703.804,-392.444C759.329,-382.708 849.805,-366.846 907.843,-356.67"/>
<polygon fill="midnightblue" stroke="midnightblue" points="908.687,-360.076 917.932,-354.902 907.478,-353.181 908.687,-360.076"/>
</g>
<!-- Node5 -->
<g id="node5" class="node"><title>Node5</title>
<g id="a_node5"><a xlink:href="InputManager_8h.html" target="_top" xlink:title="InputManager.h">
<polygon fill="white" stroke="black" points="921,-112.5 921,-131.5 1005,-131.5 1005,-112.5 921,-112.5"/>
<text text-anchor="middle" x="963" y="-119.5" font-family="Helvetica,sans-Serif" font-size="10.00">InputManager.h</text>
</a>
</g>
</g>
<!-- Node1&#45;&gt;Node5 -->
<g id="edge17" class="edge"><title>Node1&#45;&gt;Node5</title>
<path fill="none" stroke="midnightblue" d="M723.884,-397.282C823.485,-391.192 997.949,-377.566 1017,-356 1073.09,-292.506 1005.47,-182.22 975.708,-140.059"/>
<polygon fill="midnightblue" stroke="midnightblue" points="978.524,-137.98 969.831,-131.924 972.85,-142.079 978.524,-137.98"/>
</g>
<!-- Node9 -->
<g id="node9" class="node"><title>Node9</title>
<g id="a_node9"><a xlink:href="GameObject_8h.html" target="_top" xlink:title="GameObject.h">
<polygon fill="white" stroke="black" points="151,-112.5 151,-131.5 231,-131.5 231,-112.5 151,-112.5"/>
<text text-anchor="middle" x="191" y="-119.5" font-family="Helvetica,sans-Serif" font-size="10.00">GameObject.h</text>
</a>
</g>
</g>
<!-- Node1&#45;&gt;Node9 -->
<g id="edge8" class="edge"><title>Node1&#45;&gt;Node9</title>
<path fill="none" stroke="midnightblue" d="M586.482,-401.252C440.906,-399.937 114,-386.366 114,-291 114,-291 114,-291 114,-233 114,-192.93 148.715,-157.077 171.526,-137.844"/>
<polygon fill="midnightblue" stroke="midnightblue" points="173.745,-140.551 179.305,-131.532 169.334,-135.115 173.745,-140.551"/>
</g>
<!-- Node14 -->
<g id="node14" class="node"><title>Node14</title>
<g id="a_node14"><a xlink:href="Music_8h.html" target="_top" xlink:title="Music.h">
<polygon fill="white" stroke="black" points="1049.5,-168.5 1049.5,-187.5 1100.5,-187.5 1100.5,-168.5 1049.5,-168.5"/>
<text text-anchor="middle" x="1075" y="-175.5" font-family="Helvetica,sans-Serif" font-size="10.00">Music.h</text>
</a>
</g>
</g>
<!-- Node1&#45;&gt;Node14 -->
<g id="edge18" class="edge"><title>Node1&#45;&gt;Node14</title>
<path fill="none" stroke="midnightblue" d="M723.827,-398.498C836.456,-393.693 1050,-381.325 1073,-356 1113.07,-311.885 1093.58,-233.028 1081.77,-197.386"/>
<polygon fill="midnightblue" stroke="midnightblue" points="1085.02,-196.089 1078.43,-187.799 1078.41,-198.393 1085.02,-196.089"/>
</g>
<!-- Node19 -->
<g id="node19" class="node"><title>Node19</title>
<g id="a_node19"><a xlink:href="Sprite_8h.html" target="_top" xlink:title="Sprite.h">
<polygon fill="white" stroke="black" points="337,-168.5 337,-187.5 387,-187.5 387,-168.5 337,-168.5"/>
<text text-anchor="middle" x="362" y="-175.5" font-family="Helvetica,sans-Serif" font-size="10.00">Sprite.h</text>
</a>
</g>
</g>
<!-- Node1&#45;&gt;Node19 -->
<g id="edge29" class="edge"><title>Node1&#45;&gt;Node19</title>
<path fill="none" stroke="midnightblue" d="M586.122,-395.28C497.527,-383.709 347.619,-348.837 285,-244 271.418,-221.26 300.835,-202.682 327.141,-191.297"/>
<polygon fill="midnightblue" stroke="midnightblue" points="328.67,-194.453 336.606,-187.434 326.025,-187.972 328.67,-194.453"/>
</g>
<!-- Node21 -->
<g id="node21" class="node"><title>Node21</title>
<g id="a_node21"><a xlink:href="State_8h.html" target="_top" xlink:title="State.h">
<polygon fill="white" stroke="black" points="793,-168.5 793,-187.5 841,-187.5 841,-168.5 793,-168.5"/>
<text text-anchor="middle" x="817" y="-175.5" font-family="Helvetica,sans-Serif" font-size="10.00">State.h</text>
</a>
</g>
</g>
<!-- Node1&#45;&gt;Node21 -->
<g id="edge35" class="edge"><title>Node1&#45;&gt;Node21</title>
<path fill="none" stroke="midnightblue" d="M664.285,-392.259C687.843,-369.672 750.777,-306.735 789,-244 798.08,-229.097 805.704,-210.722 810.692,-197.316"/>
<polygon fill="midnightblue" stroke="midnightblue" points="814.026,-198.385 814.105,-187.791 807.437,-196.024 814.026,-198.385"/>
</g>
<!-- Node22 -->
<g id="node22" class="node"><title>Node22</title>
<g id="a_node22"><a xlink:href="TileMap_8h.html" target="_top" xlink:title="TileMap.h">
<polygon fill="white" stroke="black" points="142.5,-280.5 142.5,-299.5 201.5,-299.5 201.5,-280.5 142.5,-280.5"/>
<text text-anchor="middle" x="172" y="-287.5" font-family="Helvetica,sans-Serif" font-size="10.00">TileMap.h</text>
</a>
</g>
</g>
<!-- Node1&#45;&gt;Node22 -->
<g id="edge41" class="edge"><title>Node1&#45;&gt;Node22</title>
<path fill="none" stroke="midnightblue" d="M586.463,-400.929C478.998,-399.675 276.823,-392.371 216,-356 198.135,-345.317 185.924,-324.241 178.981,-308.978"/>
<polygon fill="midnightblue" stroke="midnightblue" points="182.114,-307.4 175.01,-299.539 175.661,-310.114 182.114,-307.4"/>
</g>
<!-- Node23 -->
<g id="node23" class="node"><title>Node23</title>
<g id="a_node23"><a xlink:href="Tileset_8h.html" target="_top" xlink:title="Tileset.h">
<polygon fill="white" stroke="black" points="294,-224.5 294,-243.5 348,-243.5 348,-224.5 294,-224.5"/>
<text text-anchor="middle" x="321" y="-231.5" font-family="Helvetica,sans-Serif" font-size="10.00">Tileset.h</text>
</a>
</g>
</g>
<!-- Node1&#45;&gt;Node23 -->
<g id="edge49" class="edge"><title>Node1&#45;&gt;Node23</title>
<path fill="none" stroke="midnightblue" d="M632.735,-392.382C591.24,-376.06 499.62,-338.782 426,-300 395.928,-284.158 362.832,-263.009 341.992,-249.201"/>
<polygon fill="midnightblue" stroke="midnightblue" points="343.855,-246.237 333.595,-243.595 339.968,-252.058 343.855,-246.237"/>
</g>
<!-- Node24 -->
<g id="node24" class="node"><title>Node24</title>
<g id="a_node24"><a xlink:href="Timer_8h.html" target="_top" xlink:title="Timer.h">
<polygon fill="white" stroke="black" points="569,-224.5 569,-243.5 619,-243.5 619,-224.5 569,-224.5"/>
<text text-anchor="middle" x="594" y="-231.5" font-family="Helvetica,sans-Serif" font-size="10.00">Timer.h</text>
</a>
</g>
</g>
<!-- Node1&#45;&gt;Node24 -->
<g id="edge50" class="edge"><title>Node1&#45;&gt;Node24</title>
<path fill="none" stroke="midnightblue" d="M643.743,-392.307C633.943,-384.074 620.208,-370.795 613,-356 596.759,-322.664 593.828,-278.599 593.61,-253.889"/>
<polygon fill="midnightblue" stroke="midnightblue" points="597.111,-253.746 593.668,-243.726 590.111,-253.705 597.111,-253.746"/>
</g>
<!-- Node25 -->
<g id="node25" class="node"><title>Node25</title>
<g id="a_node25"><a xlink:href="EndState_8h.html" target="_top" xlink:title="EndState.h">
<polygon fill="white" stroke="black" points="622.5,-336.5 622.5,-355.5 687.5,-355.5 687.5,-336.5 622.5,-336.5"/>
<text text-anchor="middle" x="655" y="-343.5" font-family="Helvetica,sans-Serif" font-size="10.00">EndState.h</text>
</a>
</g>
</g>
<!-- Node1&#45;&gt;Node25 -->
<g id="edge51" class="edge"><title>Node1&#45;&gt;Node25</title>
<path fill="none" stroke="midnightblue" d="M649.834,-392.083C648.324,-384.927 647.894,-374.635 648.542,-365.691"/>
<polygon fill="midnightblue" stroke="midnightblue" points="652.015,-366.126 649.869,-355.751 645.077,-365.2 652.015,-366.126"/>
</g>
<!-- Node4&#45;&gt;Node5 -->
<g id="edge4" class="edge"><title>Node4&#45;&gt;Node5</title>
<path fill="none" stroke="midnightblue" d="M963,-336.297C963,-303.633 963,-187.866 963,-141.957"/>
<polygon fill="midnightblue" stroke="midnightblue" points="966.5,-141.884 963,-131.884 959.5,-141.884 966.5,-141.884"/>
</g>
<!-- Node6 -->
<g id="node6" class="node"><title>Node6</title>
<g id="a_node6"><a xlink:href="Vec2_8h.html" target="_top" xlink:title="Vec2.h">
<polygon fill="white" stroke="black" points="533.5,-0.5 533.5,-19.5 580.5,-19.5 580.5,-0.5 533.5,-0.5"/>
<text text-anchor="middle" x="557" y="-7.5" font-family="Helvetica,sans-Serif" font-size="10.00">Vec2.h</text>
</a>
</g>
</g>
<!-- Node5&#45;&gt;Node6 -->
<g id="edge5" class="edge"><title>Node5&#45;&gt;Node6</title>
<path fill="none" stroke="midnightblue" d="M960.997,-112.092C957.245,-97.6611 947.692,-69.4365 928,-56 873.503,-18.8143 671.458,-12.3111 590.685,-11.2088"/>
<polygon fill="midnightblue" stroke="midnightblue" points="590.603,-7.7077 580.563,-11.0907 590.522,-14.7072 590.603,-7.7077"/>
</g>
<!-- Node7 -->
<g id="node7" class="node"><title>Node7</title>
<polygon fill="white" stroke="#bfbfbf" points="836.5,-56.5 836.5,-75.5 919.5,-75.5 919.5,-56.5 836.5,-56.5"/>
<text text-anchor="middle" x="878" y="-63.5" font-family="Helvetica,sans-Serif" font-size="10.00">unordered_map</text>
</g>
<!-- Node5&#45;&gt;Node7 -->
<g id="edge6" class="edge"><title>Node5&#45;&gt;Node7</title>
<path fill="none" stroke="midnightblue" d="M949.343,-112.324C936.084,-103.9 915.732,-90.9709 900.154,-81.0741"/>
<polygon fill="midnightblue" stroke="midnightblue" points="901.94,-78.0626 891.623,-75.6545 898.187,-83.9711 901.94,-78.0626"/>
</g>
<!-- Node8 -->
<g id="node8" class="node"><title>Node8</title>
<polygon fill="white" stroke="#bfbfbf" points="976,-56.5 976,-75.5 1022,-75.5 1022,-56.5 976,-56.5"/>
<text text-anchor="middle" x="999" y="-63.5" font-family="Helvetica,sans-Serif" font-size="10.00">cstdint</text>
</g>
<!-- Node5&#45;&gt;Node8 -->
<g id="edge7" class="edge"><title>Node5&#45;&gt;Node8</title>
<path fill="none" stroke="midnightblue" d="M968.945,-112.083C973.977,-104.534 981.337,-93.4948 987.513,-84.2298"/>
<polygon fill="midnightblue" stroke="midnightblue" points="990.531,-86.0131 993.166,-75.7511 984.707,-82.1301 990.531,-86.0131"/>
</g>
<!-- Node9&#45;&gt;Node2 -->
<g id="edge11" class="edge"><title>Node9&#45;&gt;Node2</title>
<path fill="none" stroke="midnightblue" d="M176.54,-112.324C162.5,-103.9 140.952,-90.9709 124.457,-81.0741"/>
<polygon fill="midnightblue" stroke="midnightblue" points="125.8,-77.7983 115.424,-75.6545 122.198,-83.8007 125.8,-77.7983"/>
</g>
<!-- Node9&#45;&gt;Node3 -->
<g id="edge9" class="edge"><title>Node9&#45;&gt;Node3</title>
<path fill="none" stroke="midnightblue" d="M231.367,-117.373C342.179,-107.417 649.868,-79.7706 755.696,-70.262"/>
<polygon fill="midnightblue" stroke="midnightblue" points="756.222,-73.7288 765.869,-69.3479 755.596,-66.7569 756.222,-73.7288"/>
</g>
<!-- Node10 -->
<g id="node10" class="node"><title>Node10</title>
<polygon fill="white" stroke="#bfbfbf" points="513.5,-56.5 513.5,-75.5 554.5,-75.5 554.5,-56.5 513.5,-56.5"/>
<text text-anchor="middle" x="534" y="-63.5" font-family="Helvetica,sans-Serif" font-size="10.00">string</text>
</g>
<!-- Node9&#45;&gt;Node10 -->
<g id="edge10" class="edge"><title>Node9&#45;&gt;Node10</title>
<path fill="none" stroke="midnightblue" d="M231.097,-114.268C235.783,-113.496 240.496,-112.726 245,-112 339.035,-96.8432 450.426,-79.7381 503.253,-71.6773"/>
<polygon fill="midnightblue" stroke="midnightblue" points="503.954,-75.1109 513.312,-70.1437 502.899,-68.1909 503.954,-75.1109"/>
</g>
<!-- Node11 -->
<g id="node11" class="node"><title>Node11</title>
<g id="a_node11"><a xlink:href="Component_8h.html" target="_top" xlink:title="Component.h">
<polygon fill="white" stroke="black" points="153.5,-56.5 153.5,-75.5 228.5,-75.5 228.5,-56.5 153.5,-56.5"/>
<text text-anchor="middle" x="191" y="-63.5" font-family="Helvetica,sans-Serif" font-size="10.00">Component.h</text>
</a>
</g>
</g>
<!-- Node9&#45;&gt;Node11 -->
<g id="edge12" class="edge"><title>Node9&#45;&gt;Node11</title>
<path fill="none" stroke="midnightblue" d="M185.834,-112.083C184.324,-104.927 183.894,-94.6353 184.542,-85.6911"/>
<polygon fill="midnightblue" stroke="midnightblue" points="188.015,-86.1262 185.869,-75.7511 181.077,-85.2002 188.015,-86.1262"/>
</g>
<!-- Node12 -->
<g id="node12" class="node"><title>Node12</title>
<g id="a_node12"><a xlink:href="Rect_8h.html" target="_top" xlink:title="Rect.h">
<polygon fill="white" stroke="black" points="361,-56.5 361,-75.5 407,-75.5 407,-56.5 361,-56.5"/>
<text text-anchor="middle" x="384" y="-63.5" font-family="Helvetica,sans-Serif" font-size="10.00">Rect.h</text>
</a>
</g>
</g>
<!-- Node9&#45;&gt;Node12 -->
<g id="edge14" class="edge"><title>Node9&#45;&gt;Node12</title>
<path fill="none" stroke="midnightblue" d="M221.581,-112.444C256.795,-102.591 314.441,-86.4621 350.746,-76.3044"/>
<polygon fill="midnightblue" stroke="midnightblue" points="352.144,-79.5477 360.831,-73.4826 350.257,-72.8066 352.144,-79.5477"/>
</g>
<!-- Node11&#45;&gt;Node9 -->
<g id="edge13" class="edge"><title>Node11&#45;&gt;Node9</title>
<path fill="none" stroke="midnightblue" d="M196.131,-75.7511C197.657,-82.8579 198.104,-93.1357 197.472,-102.101"/>
<polygon fill="midnightblue" stroke="midnightblue" points="193.993,-101.713 196.166,-112.083 200.934,-102.622 193.993,-101.713"/>
</g>
<!-- Node12&#45;&gt;Node6 -->
<g id="edge15" class="edge"><title>Node12&#45;&gt;Node6</title>
<path fill="none" stroke="midnightblue" d="M407.332,-57.7173C437.254,-48.3773 489.352,-32.1156 523.506,-21.4547"/>
<polygon fill="midnightblue" stroke="midnightblue" points="524.983,-24.6605 533.486,-18.3398 522.897,-17.9784 524.983,-24.6605"/>
</g>
<!-- Node13 -->
<g id="node13" class="node"><title>Node13</title>
<polygon fill="white" stroke="#bfbfbf" points="362,-0.5 362,-19.5 406,-19.5 406,-0.5 362,-0.5"/>
<text text-anchor="middle" x="384" y="-7.5" font-family="Helvetica,sans-Serif" font-size="10.00">cmath</text>
</g>
<!-- Node12&#45;&gt;Node13 -->
<g id="edge16" class="edge"><title>Node12&#45;&gt;Node13</title>
<path fill="none" stroke="midnightblue" d="M384,-56.083C384,-49.0059 384,-38.8611 384,-29.9865"/>
<polygon fill="midnightblue" stroke="midnightblue" points="387.5,-29.751 384,-19.7511 380.5,-29.7511 387.5,-29.751"/>
</g>
<!-- Node14&#45;&gt;Node3 -->
<g id="edge20" class="edge"><title>Node14&#45;&gt;Node3</title>
<path fill="none" stroke="midnightblue" d="M1074.05,-168.241C1072,-154.025 1065.83,-126.101 1048,-112 972.468,-52.2468 927.371,-93.5498 828.385,-75.9932"/>
<polygon fill="midnightblue" stroke="midnightblue" points="828.797,-72.5081 818.314,-74.0376 827.463,-79.3797 828.797,-72.5081"/>
</g>
<!-- Node14&#45;&gt;Node5 -->
<g id="edge28" class="edge"><title>Node14&#45;&gt;Node5</title>
<path fill="none" stroke="midnightblue" d="M1057.01,-168.324C1038.96,-159.625 1010.95,-146.12 990.197,-136.113"/>
<polygon fill="midnightblue" stroke="midnightblue" points="991.478,-132.845 980.95,-131.655 988.438,-139.15 991.478,-132.845"/>
</g>
<!-- Node14&#45;&gt;Node10 -->
<g id="edge19" class="edge"><title>Node14&#45;&gt;Node10</title>
<path fill="none" stroke="midnightblue" d="M1069.91,-168.386C1060.78,-153.852 1040.13,-124.794 1014,-112 973.701,-92.269 664.125,-74.019 564.663,-68.6131"/>
<polygon fill="midnightblue" stroke="midnightblue" points="564.824,-65.1168 554.651,-68.0739 564.448,-72.1067 564.824,-65.1168"/>
</g>
<!-- Node15 -->
<g id="node15" class="node"><title>Node15</title>
<g id="a_node15"><a xlink:href="Resources_8h.html" target="_top" xlink:title="Resources.h">
<polygon fill="white" stroke="black" points="831,-112.5 831,-131.5 903,-131.5 903,-112.5 831,-112.5"/>
<text text-anchor="middle" x="867" y="-119.5" font-family="Helvetica,sans-Serif" font-size="10.00">Resources.h</text>
</a>
</g>
</g>
<!-- Node14&#45;&gt;Node15 -->
<g id="edge21" class="edge"><title>Node14&#45;&gt;Node15</title>
<path fill="none" stroke="midnightblue" d="M1049.5,-170.379C1014.65,-161.331 951.685,-144.985 909.607,-134.061"/>
<polygon fill="midnightblue" stroke="midnightblue" points="910.474,-130.671 899.915,-131.545 908.715,-137.446 910.474,-130.671"/>
</g>
<!-- Node16 -->
<g id="node16" class="node"><title>Node16</title>
<g id="a_node16"><a xlink:href="Error_8h.html" target="_top" xlink:title="Error.h">
<polygon fill="white" stroke="black" points="1195,-112.5 1195,-131.5 1241,-131.5 1241,-112.5 1195,-112.5"/>
<text text-anchor="middle" x="1218" y="-119.5" font-family="Helvetica,sans-Serif" font-size="10.00">Error.h</text>
</a>
</g>
</g>
<!-- Node14&#45;&gt;Node16 -->
<g id="edge25" class="edge"><title>Node14&#45;&gt;Node16</title>
<path fill="none" stroke="midnightblue" d="M1097.66,-168.444C1121.4,-159.478 1158.91,-145.314 1185.74,-135.183"/>
<polygon fill="midnightblue" stroke="midnightblue" points="1187.33,-138.324 1195.45,-131.516 1184.86,-131.775 1187.33,-138.324"/>
</g>
<!-- Node15&#45;&gt;Node3 -->
<g id="edge24" class="edge"><title>Node15&#45;&gt;Node3</title>
<path fill="none" stroke="midnightblue" d="M854.95,-112.324C843.537,-104.107 826.169,-91.6017 812.565,-81.8069"/>
<polygon fill="midnightblue" stroke="midnightblue" points="814.43,-78.8366 804.269,-75.8339 810.34,-84.5174 814.43,-78.8366"/>
</g>
<!-- Node15&#45;&gt;Node7 -->
<g id="edge23" class="edge"><title>Node15&#45;&gt;Node7</title>
<path fill="none" stroke="midnightblue" d="M868.816,-112.083C870.274,-104.927 872.371,-94.6353 874.193,-85.6911"/>
<polygon fill="midnightblue" stroke="midnightblue" points="877.651,-86.2485 876.217,-75.7511 870.792,-84.8512 877.651,-86.2485"/>
</g>
<!-- Node15&#45;&gt;Node10 -->
<g id="edge22" class="edge"><title>Node15&#45;&gt;Node10</title>
<path fill="none" stroke="midnightblue" d="M830.729,-115.118C764.759,-104.42 626.271,-81.9629 564.671,-71.9737"/>
<polygon fill="midnightblue" stroke="midnightblue" points="565.213,-68.5159 554.781,-70.37 564.092,-75.4256 565.213,-68.5159"/>
</g>
<!-- Node17 -->
<g id="node17" class="node"><title>Node17</title>
<polygon fill="white" stroke="#bfbfbf" points="1156,-56.5 1156,-75.5 1210,-75.5 1210,-56.5 1156,-56.5"/>
<text text-anchor="middle" x="1183" y="-63.5" font-family="Helvetica,sans-Serif" font-size="10.00">iostream</text>
</g>
<!-- Node16&#45;&gt;Node17 -->
<g id="edge26" class="edge"><title>Node16&#45;&gt;Node17</title>
<path fill="none" stroke="midnightblue" d="M1212.22,-112.083C1207.33,-104.534 1200.17,-93.4948 1194.17,-84.2298"/>
<polygon fill="midnightblue" stroke="midnightblue" points="1197.05,-82.239 1188.67,-75.7511 1191.17,-86.0463 1197.05,-82.239"/>
</g>
<!-- Node18 -->
<g id="node18" class="node"><title>Node18</title>
<polygon fill="white" stroke="#bfbfbf" points="1228,-56.5 1228,-75.5 1276,-75.5 1276,-56.5 1228,-56.5"/>
<text text-anchor="middle" x="1252" y="-63.5" font-family="Helvetica,sans-Serif" font-size="10.00">stdlib.h</text>
</g>
<!-- Node16&#45;&gt;Node18 -->
<g id="edge27" class="edge"><title>Node16&#45;&gt;Node18</title>
<path fill="none" stroke="midnightblue" d="M1223.61,-112.083C1228.37,-104.534 1235.32,-93.4948 1241.15,-84.2298"/>
<polygon fill="midnightblue" stroke="midnightblue" points="1244.12,-86.0783 1246.49,-75.7511 1238.2,-82.3486 1244.12,-86.0783"/>
</g>
<!-- Node19&#45;&gt;Node3 -->
<g id="edge31" class="edge"><title>Node19&#45;&gt;Node3</title>
<path fill="none" stroke="midnightblue" d="M387.293,-170.53C460.222,-151.873 671.103,-97.9273 755.98,-76.2145"/>
<polygon fill="midnightblue" stroke="midnightblue" points="757.103,-79.54 765.923,-73.6708 755.368,-72.7584 757.103,-79.54"/>
</g>
<!-- Node19&#45;&gt;Node5 -->
<g id="edge34" class="edge"><title>Node19&#45;&gt;Node5</title>
<path fill="none" stroke="midnightblue" d="M387.029,-175.783C463.735,-171.88 702.458,-158.432 910.547,-132.074"/>
<polygon fill="midnightblue" stroke="midnightblue" points="911.271,-135.51 920.746,-130.769 910.382,-128.567 911.271,-135.51"/>
</g>
<!-- Node19&#45;&gt;Node10 -->
<g id="edge30" class="edge"><title>Node19&#45;&gt;Node10</title>
<path fill="none" stroke="midnightblue" d="M375.497,-168.368C405.012,-149.492 475.544,-104.385 511.739,-81.2367"/>
<polygon fill="midnightblue" stroke="midnightblue" points="514.027,-83.9278 520.566,-75.5914 510.256,-78.0306 514.027,-83.9278"/>
</g>
<!-- Node19&#45;&gt;Node12 -->
<g id="edge33" class="edge"><title>Node19&#45;&gt;Node12</title>
<path fill="none" stroke="midnightblue" d="M348.253,-168.408C330.841,-156.376 304.417,-133.555 316,-112 323.677,-97.714 338.101,-87.2023 351.696,-79.9479"/>
<polygon fill="midnightblue" stroke="midnightblue" points="353.447,-82.9873 360.882,-75.4396 350.363,-76.7033 353.447,-82.9873"/>
</g>
<!-- Node20 -->
<g id="node20" class="node"><title>Node20</title>
<g id="a_node20"><a xlink:href="Color_8h.html" target="_top" xlink:title="Color.h">
<polygon fill="white" stroke="black" points="325,-112.5 325,-131.5 373,-131.5 373,-112.5 325,-112.5"/>
<text text-anchor="middle" x="349" y="-119.5" font-family="Helvetica,sans-Serif" font-size="10.00">Color.h</text>
</a>
</g>
</g>
<!-- Node19&#45;&gt;Node20 -->
<g id="edge32" class="edge"><title>Node19&#45;&gt;Node20</title>
<path fill="none" stroke="midnightblue" d="M359.853,-168.083C358.131,-160.927 355.653,-150.635 353.5,-141.691"/>
<polygon fill="midnightblue" stroke="midnightblue" points="356.85,-140.654 351.107,-131.751 350.045,-142.293 356.85,-140.654"/>
</g>
<!-- Node21&#45;&gt;Node2 -->
<g id="edge36" class="edge"><title>Node21&#45;&gt;Node2</title>
<path fill="none" stroke="midnightblue" d="M792.905,-173.403C674.625,-155.745 160.462,-78.9556 144,-76 140.516,-75.3745 136.883,-74.6801 133.268,-73.9622"/>
<polygon fill="midnightblue" stroke="midnightblue" points="133.769,-70.4924 123.27,-71.9149 132.365,-77.3501 133.769,-70.4924"/>
</g>
<!-- Node21&#45;&gt;Node3 -->
<g id="edge37" class="edge"><title>Node21&#45;&gt;Node3</title>
<path fill="none" stroke="midnightblue" d="M815.038,-168.368C811.004,-150.617 801.697,-109.666 796.227,-85.5974"/>
<polygon fill="midnightblue" stroke="midnightblue" points="799.582,-84.567 793.953,-75.5914 792.756,-86.1185 799.582,-84.567"/>
</g>
<!-- Node21&#45;&gt;Node5 -->
<g id="edge38" class="edge"><title>Node21&#45;&gt;Node5</title>
<path fill="none" stroke="midnightblue" d="M840.134,-168.444C864.482,-159.438 903.007,-145.189 930.423,-135.049"/>
<polygon fill="midnightblue" stroke="midnightblue" points="931.809,-138.268 939.974,-131.516 929.381,-131.703 931.809,-138.268"/>
</g>
<!-- Node21&#45;&gt;Node9 -->
<g id="edge40" class="edge"><title>Node21&#45;&gt;Node9</title>
<path fill="none" stroke="midnightblue" d="M792.701,-173.697C778.758,-171.868 760.914,-169.64 745,-168 647.98,-158.001 358.742,-135.734 241.35,-126.809"/>
<polygon fill="midnightblue" stroke="midnightblue" points="241.437,-123.305 231.201,-126.038 240.907,-130.285 241.437,-123.305"/>
</g>
<!-- Node21&#45;&gt;Node15 -->
<g id="edge39" class="edge"><title>Node21&#45;&gt;Node15</title>
<path fill="none" stroke="midnightblue" d="M825.256,-168.083C832.465,-160.298 843.11,-148.801 851.846,-139.367"/>
<polygon fill="midnightblue" stroke="midnightblue" points="854.671,-141.467 858.897,-131.751 849.535,-136.711 854.671,-141.467"/>
</g>
<!-- Node22&#45;&gt;Node2 -->
<g id="edge43" class="edge"><title>Node22&#45;&gt;Node2</title>
<path fill="none" stroke="midnightblue" d="M169.217,-280.297C158.748,-247.563 121.588,-131.375 106.97,-85.6664"/>
<polygon fill="midnightblue" stroke="midnightblue" points="110.221,-84.3423 103.841,-75.8837 103.554,-86.4747 110.221,-84.3423"/>
</g>
<!-- Node22&#45;&gt;Node6 -->
<g id="edge48" class="edge"><title>Node22&#45;&gt;Node6</title>
<path fill="none" stroke="midnightblue" d="M144.883,-280.471C105.728,-266.267 38,-233.779 38,-179 38,-179 38,-179 38,-121 38,-88.8 43.474,-74.254 70,-56 88.6813,-43.1444 415.417,-20.4014 522.978,-13.2305"/>
<polygon fill="midnightblue" stroke="midnightblue" points="523.517,-16.7025 533.264,-12.5478 523.054,-9.71785 523.517,-16.7025"/>
</g>
<!-- Node22&#45;&gt;Node9 -->
<g id="edge44" class="edge"><title>Node22&#45;&gt;Node9</title>
<path fill="none" stroke="midnightblue" d="M172.303,-280.149C172.788,-267.622 173.902,-244.015 176,-224 179.027,-195.127 184.32,-161.861 187.741,-141.64"/>
<polygon fill="midnightblue" stroke="midnightblue" points="191.219,-142.063 189.465,-131.615 184.32,-140.877 191.219,-142.063"/>
</g>
<!-- Node22&#45;&gt;Node10 -->
<g id="edge42" class="edge"><title>Node22&#45;&gt;Node10</title>
<path fill="none" stroke="midnightblue" d="M176.296,-280.236C191.112,-251.004 243.199,-156.205 316,-112 375.354,-75.9597 458.786,-68.3428 503.255,-67.0044"/>
<polygon fill="midnightblue" stroke="midnightblue" points="503.501,-70.5001 513.425,-66.789 503.353,-63.5016 503.501,-70.5001"/>
</g>
<!-- Node22&#45;&gt;Node23 -->
<g id="edge45" class="edge"><title>Node22&#45;&gt;Node23</title>
<path fill="none" stroke="midnightblue" d="M195.609,-280.444C220.458,-271.438 259.774,-257.189 287.754,-247.049"/>
<polygon fill="midnightblue" stroke="midnightblue" points="289.292,-250.214 297.501,-243.516 286.907,-243.633 289.292,-250.214"/>
</g>
<!-- Node23&#45;&gt;Node10 -->
<g id="edge46" class="edge"><title>Node23&#45;&gt;Node10</title>
<path fill="none" stroke="midnightblue" d="M336.986,-224.411C352.503,-215.844 376.502,-201.98 396,-188 443.229,-154.138 493.207,-107.11 518.045,-82.8629"/>
<polygon fill="midnightblue" stroke="midnightblue" points="520.789,-85.0728 525.464,-75.5651 515.88,-80.0824 520.789,-85.0728"/>
</g>
<!-- Node23&#45;&gt;Node19 -->
<g id="edge47" class="edge"><title>Node23&#45;&gt;Node19</title>
<path fill="none" stroke="midnightblue" d="M327.77,-224.083C333.562,-216.455 342.058,-205.264 349.138,-195.941"/>
<polygon fill="midnightblue" stroke="midnightblue" points="352.096,-197.832 355.356,-187.751 346.521,-193.599 352.096,-197.832"/>
</g>
<!-- Node25&#45;&gt;Node1 -->
<g id="edge72" class="edge"><title>Node25&#45;&gt;Node1</title>
<path fill="none" stroke="midnightblue" d="M660.131,-355.751C661.657,-362.858 662.104,-373.136 661.472,-382.101"/>
<polygon fill="midnightblue" stroke="midnightblue" points="657.993,-381.713 660.166,-392.083 664.934,-382.622 657.993,-381.713"/>
</g>
<!-- Node25&#45;&gt;Node5 -->
<g id="edge71" class="edge"><title>Node25&#45;&gt;Node5</title>
<path fill="none" stroke="midnightblue" d="M672.776,-336.488C690.726,-327.759 719.135,-313.574 743,-300 783.623,-276.894 794.9,-272.42 832,-244 876.605,-209.831 923.804,-163.297 947.502,-139.102"/>
<polygon fill="midnightblue" stroke="midnightblue" points="950.137,-141.413 954.6,-131.804 945.119,-136.533 950.137,-141.413"/>
</g>
<!-- Node25&#45;&gt;Node9 -->
<g id="edge55" class="edge"><title>Node25&#45;&gt;Node9</title>
<path fill="none" stroke="midnightblue" d="M622.34,-343.96C553.277,-340.209 390.152,-322.978 285,-244 246.507,-215.088 215.46,-166.583 200.57,-140.636"/>
<polygon fill="midnightblue" stroke="midnightblue" points="203.449,-138.614 195.514,-131.594 197.339,-142.03 203.449,-138.614"/>
</g>
<!-- Node25&#45;&gt;Node14 -->
<g id="edge56" class="edge"><title>Node25&#45;&gt;Node14</title>
<path fill="none" stroke="midnightblue" d="M687.67,-339.845C726.121,-333.193 791.511,-320.038 845,-300 925.188,-269.961 1012.89,-217.959 1052.89,-193.068"/>
<polygon fill="midnightblue" stroke="midnightblue" points="1054.95,-195.908 1061.57,-187.63 1051.23,-189.977 1054.95,-195.908"/>
</g>
<!-- Node25&#45;&gt;Node19 -->
<g id="edge57" class="edge"><title>Node25&#45;&gt;Node19</title>
<path fill="none" stroke="midnightblue" d="M622.416,-341.821C583.153,-336.999 515.983,-325.533 464,-300 428.55,-282.587 419.816,-274.725 395,-244 383.467,-229.721 374.41,-210.759 368.725,-197.003"/>
<polygon fill="midnightblue" stroke="midnightblue" points="371.969,-195.686 365.05,-187.662 365.455,-198.249 371.969,-195.686"/>
</g>
<!-- Node26 -->
<g id="node26" class="node"><title>Node26</title>
<g id="a_node26"><a xlink:href="EndStateData_8h.html" target="_top" xlink:title="EndStateData.h">
<polygon fill="white" stroke="black" points="473,-280.5 473,-299.5 559,-299.5 559,-280.5 473,-280.5"/>
<text text-anchor="middle" x="516" y="-287.5" font-family="Helvetica,sans-Serif" font-size="10.00">EndStateData.h</text>
</a>
</g>
</g>
<!-- Node25&#45;&gt;Node26 -->
<g id="edge52" class="edge"><title>Node25&#45;&gt;Node26</title>
<path fill="none" stroke="midnightblue" d="M632.975,-336.444C609.896,-327.478 573.438,-313.314 547.359,-303.183"/>
<polygon fill="midnightblue" stroke="midnightblue" points="548.511,-299.875 537.922,-299.516 545.976,-306.4 548.511,-299.875"/>
</g>
<!-- Node29 -->
<g id="node29" class="node"><title>Node29</title>
<g id="a_node29"><a xlink:href="Text_8h.html" target="_top" xlink:title="Text.h">
<polygon fill="white" stroke="black" points="690,-280.5 690,-299.5 734,-299.5 734,-280.5 690,-280.5"/>
<text text-anchor="middle" x="712" y="-287.5" font-family="Helvetica,sans-Serif" font-size="10.00">Text.h</text>
</a>
</g>
</g>
<!-- Node25&#45;&gt;Node29 -->
<g id="edge58" class="edge"><title>Node25&#45;&gt;Node29</title>
<path fill="none" stroke="midnightblue" d="M664.158,-336.324C672.501,-328.42 685.032,-316.548 695.177,-306.938"/>
<polygon fill="midnightblue" stroke="midnightblue" points="697.823,-309.252 702.675,-299.834 693.009,-304.171 697.823,-309.252"/>
</g>
<!-- Node27 -->
<g id="node27" class="node"><title>Node27</title>
<g id="a_node27"><a xlink:href="StateData_8h.html" target="_top" xlink:title="StateData.h">
<polygon fill="white" stroke="black" points="481.5,-224.5 481.5,-243.5 550.5,-243.5 550.5,-224.5 481.5,-224.5"/>
<text text-anchor="middle" x="516" y="-231.5" font-family="Helvetica,sans-Serif" font-size="10.00">StateData.h</text>
</a>
</g>
</g>
<!-- Node26&#45;&gt;Node27 -->
<g id="edge53" class="edge"><title>Node26&#45;&gt;Node27</title>
<path fill="none" stroke="midnightblue" d="M516,-280.083C516,-273.006 516,-262.861 516,-253.986"/>
<polygon fill="midnightblue" stroke="midnightblue" points="519.5,-253.751 516,-243.751 512.5,-253.751 519.5,-253.751"/>
</g>
<!-- Node28 -->
<g id="node28" class="node"><title>Node28</title>
<g id="a_node28"><a xlink:href="Defines_8h.html" target="_top" xlink:title="Defines.h">
<polygon fill="white" stroke="black" points="404.5,-224.5 404.5,-243.5 463.5,-243.5 463.5,-224.5 404.5,-224.5"/>
<text text-anchor="middle" x="434" y="-231.5" font-family="Helvetica,sans-Serif" font-size="10.00">Defines.h</text>
</a>
</g>
</g>
<!-- Node26&#45;&gt;Node28 -->
<g id="edge54" class="edge"><title>Node26&#45;&gt;Node28</title>
<path fill="none" stroke="midnightblue" d="M502.825,-280.324C490.153,-271.979 470.767,-259.212 455.794,-249.352"/>
<polygon fill="midnightblue" stroke="midnightblue" points="457.419,-246.231 447.142,-243.655 453.569,-252.078 457.419,-246.231"/>
</g>
<!-- Node29&#45;&gt;Node3 -->
<g id="edge61" class="edge"><title>Node29&#45;&gt;Node3</title>
<path fill="none" stroke="midnightblue" d="M730.811,-280.445C744.94,-272.957 763.435,-260.664 773,-244 776.902,-237.203 786.551,-130.022 790.389,-85.828"/>
<polygon fill="midnightblue" stroke="midnightblue" points="793.898,-85.8693 791.27,-75.6056 786.924,-85.268 793.898,-85.8693"/>
</g>
<!-- Node29&#45;&gt;Node10 -->
<g id="edge62" class="edge"><title>Node29&#45;&gt;Node10</title>
<path fill="none" stroke="midnightblue" d="M705.713,-280.323C696.383,-267.606 678.128,-243.319 661,-224 622.639,-180.731 603.518,-178.393 569,-132 558.026,-117.251 548.362,-98.6235 541.985,-85.0944"/>
<polygon fill="midnightblue" stroke="midnightblue" points="545.119,-83.5333 537.781,-75.891 538.752,-86.4413 545.119,-83.5333"/>
</g>
<!-- Node29&#45;&gt;Node12 -->
<g id="edge59" class="edge"><title>Node29&#45;&gt;Node12</title>
<path fill="none" stroke="midnightblue" d="M701.614,-280.491C685.962,-267.779 655.257,-243.261 628,-224 548.856,-168.075 450.866,-107.539 407.052,-80.9064"/>
<polygon fill="midnightblue" stroke="midnightblue" points="408.677,-77.7986 398.312,-75.6067 405.048,-83.7843 408.677,-77.7986"/>
</g>
<!-- Node29&#45;&gt;Node15 -->
<g id="edge63" class="edge"><title>Node29&#45;&gt;Node15</title>
<path fill="none" stroke="midnightblue" d="M734.022,-281.951C754.417,-274.681 784.848,-261.883 807,-244 831.416,-224.289 836.201,-216.183 850,-188 857.213,-173.268 861.631,-155.108 864.149,-141.73"/>
<polygon fill="midnightblue" stroke="midnightblue" points="867.612,-142.244 865.836,-131.799 860.711,-141.072 867.612,-142.244"/>
</g>
<!-- Node29&#45;&gt;Node16 -->
<g id="edge70" class="edge"><title>Node29&#45;&gt;Node16</title>
<path fill="none" stroke="midnightblue" d="M734.296,-285.699C795.939,-276.08 973.149,-245.079 1110,-188 1142.55,-174.424 1176.92,-152.183 1197.91,-137.565"/>
<polygon fill="midnightblue" stroke="midnightblue" points="1200.16,-140.261 1206.31,-131.63 1196.12,-134.545 1200.16,-140.261"/>
</g>
<!-- Node29&#45;&gt;Node24 -->
<g id="edge60" class="edge"><title>Node29&#45;&gt;Node24</title>
<path fill="none" stroke="midnightblue" d="M693.303,-280.444C674.056,-271.636 643.848,-257.812 621.8,-247.722"/>
<polygon fill="midnightblue" stroke="midnightblue" points="623.16,-244.495 612.61,-243.516 620.247,-250.86 623.16,-244.495"/>
</g>
<!-- Node30 -->
<g id="node30" class="node"><title>Node30</title>
<g id="a_node30"><a xlink:href="Game_8h.html" target="_top" xlink:title="Game.h">
<polygon fill="white" stroke="black" points="713.5,-224.5 713.5,-243.5 764.5,-243.5 764.5,-224.5 713.5,-224.5"/>
<text text-anchor="middle" x="739" y="-231.5" font-family="Helvetica,sans-Serif" font-size="10.00">Game.h</text>
</a>
</g>
</g>
<!-- Node29&#45;&gt;Node30 -->
<g id="edge64" class="edge"><title>Node29&#45;&gt;Node30</title>
<path fill="none" stroke="midnightblue" d="M716.459,-280.083C720.154,-272.691 725.523,-261.953 730.094,-252.811"/>
<polygon fill="midnightblue" stroke="midnightblue" points="733.283,-254.261 734.624,-243.751 727.022,-251.13 733.283,-254.261"/>
</g>
<!-- Node30&#45;&gt;Node5 -->
<g id="edge68" class="edge"><title>Node30&#45;&gt;Node5</title>
<path fill="none" stroke="midnightblue" d="M762.795,-224.434C785.554,-215.989 820.654,-202.305 850,-188 882.397,-172.207 918.216,-150.91 940.662,-137.067"/>
<polygon fill="midnightblue" stroke="midnightblue" points="942.767,-139.88 949.414,-131.629 939.073,-133.934 942.767,-139.88"/>
</g>
<!-- Node30&#45;&gt;Node6 -->
<g id="edge69" class="edge"><title>Node30&#45;&gt;Node6</title>
<path fill="none" stroke="midnightblue" d="M727.351,-224.41C716.124,-215.842 698.977,-201.976 686,-188 636.293,-134.464 588.538,-61.5919 567.802,-28.5602"/>
<polygon fill="midnightblue" stroke="midnightblue" points="570.515,-26.2962 562.262,-19.6535 564.571,-29.9935 570.515,-26.2962"/>
</g>
<!-- Node30&#45;&gt;Node10 -->
<g id="edge65" class="edge"><title>Node30&#45;&gt;Node10</title>
<path fill="none" stroke="midnightblue" d="M718.496,-224.464C700.385,-216.429 673.712,-203.354 653,-188 609.807,-155.981 567.725,-108.127 547.118,-83.2829"/>
<polygon fill="midnightblue" stroke="midnightblue" points="549.803,-81.0367 540.758,-75.5186 544.387,-85.4724 549.803,-81.0367"/>
</g>
<!-- Node30&#45;&gt;Node21 -->
<g id="edge67" class="edge"><title>Node30&#45;&gt;Node21</title>
<path fill="none" stroke="midnightblue" d="M751.532,-224.324C763.586,-215.979 782.027,-203.212 796.269,-193.352"/>
<polygon fill="midnightblue" stroke="midnightblue" points="798.269,-196.224 804.499,-187.655 794.285,-190.469 798.269,-196.224"/>
</g>
<!-- Node31 -->
<g id="node31" class="node"><title>Node31</title>
<polygon fill="white" stroke="#bfbfbf" points="695.5,-168.5 695.5,-187.5 736.5,-187.5 736.5,-168.5 695.5,-168.5"/>
<text text-anchor="middle" x="716" y="-175.5" font-family="Helvetica,sans-Serif" font-size="10.00">stack</text>
</g>
<!-- Node30&#45;&gt;Node31 -->
<g id="edge66" class="edge"><title>Node30&#45;&gt;Node31</title>
<path fill="none" stroke="midnightblue" d="M735.202,-224.083C732.087,-216.77 727.577,-206.181 723.711,-197.103"/>
<polygon fill="midnightblue" stroke="midnightblue" points="726.866,-195.58 719.727,-187.751 720.426,-198.323 726.866,-195.58"/>
</g>
</g>
</svg>
