<?xml version="1.0" encoding="UTF-8" standalone="no"?>
<!DOCTYPE svg PUBLIC "-//W3C//DTD SVG 1.1//EN"
 "http://www.w3.org/Graphics/SVG/1.1/DTD/svg11.dtd">
<!-- Generated by graphviz version 2.38.0 (20140413.2041)
 -->
<!-- Title: Engine/include/State.h Pages: 1 -->
<svg width="2272pt" height="308pt"
 viewBox="0.00 0.00 2272.00 308.00" xmlns="http://www.w3.org/2000/svg" xmlns:xlink="http://www.w3.org/1999/xlink">
<g id="graph0" class="graph" transform="scale(1 1) rotate(0) translate(4 304)">
<title>Engine/include/State.h</title>
<polygon fill="white" stroke="none" points="-4,4 -4,-304 2268,-304 2268,4 -4,4"/>
<!-- Node1 -->
<g id="node1" class="node"><title>Node1</title>
<polygon fill="#bfbfbf" stroke="black" points="1581.5,-280.5 1581.5,-299.5 1696.5,-299.5 1696.5,-280.5 1581.5,-280.5"/>
<text text-anchor="middle" x="1639" y="-287.5" font-family="Helvetica,sans-Serif" font-size="10.00">Engine/include/State.h</text>
</g>
<!-- Node2 -->
<g id="node2" class="node"><title>Node2</title>
<g id="a_node2"><a xlink:href="Game_8h.html" target="_top" xlink:title="Engine/include/Game.h">
<polygon fill="white" stroke="black" points="1146,-224.5 1146,-243.5 1264,-243.5 1264,-224.5 1146,-224.5"/>
<text text-anchor="middle" x="1205" y="-231.5" font-family="Helvetica,sans-Serif" font-size="10.00">Engine/include/Game.h</text>
</a>
</g>
</g>
<!-- Node1&#45;&gt;Node2 -->
<g id="edge1" class="edge"><title>Node1&#45;&gt;Node2</title>
<path fill="none" stroke="midnightblue" d="M1571.39,-280.588C1487.12,-270.102 1344.44,-252.35 1264.26,-242.374"/>
<polygon fill="midnightblue" stroke="midnightblue" points="1571.01,-284.068 1581.37,-281.829 1571.88,-277.121 1571.01,-284.068"/>
</g>
<!-- Node6 -->
<g id="node6" class="node"><title>Node6</title>
<g id="a_node6"><a xlink:href="StageState_8h.html" target="_top" xlink:title="Game/include/StageState.h">
<polygon fill="white" stroke="black" points="1774.5,-56.5 1774.5,-75.5 1911.5,-75.5 1911.5,-56.5 1774.5,-56.5"/>
<text text-anchor="middle" x="1843" y="-63.5" font-family="Helvetica,sans-Serif" font-size="10.00">Game/include/StageState.h</text>
</a>
</g>
</g>
<!-- Node1&#45;&gt;Node6 -->
<g id="edge38" class="edge"><title>Node1&#45;&gt;Node6</title>
<path fill="none" stroke="midnightblue" d="M1706.87,-285.783C1802.64,-277.149 1974.41,-245.711 2052,-132 2057.01,-124.658 2057.58,-118.915 2052,-112 2034.48,-90.3073 1965.53,-78.577 1911.56,-72.5875"/>
<polygon fill="midnightblue" stroke="midnightblue" points="1706.38,-282.312 1696.71,-286.639 1706.97,-289.287 1706.38,-282.312"/>
</g>
<!-- Node28 -->
<g id="node28" class="node"><title>Node28</title>
<g id="a_node28"><a xlink:href="State_8cpp.html" target="_top" xlink:title="Engine/src/State.cpp">
<polygon fill="white" stroke="black" points="2156,-224.5 2156,-243.5 2264,-243.5 2264,-224.5 2156,-224.5"/>
<text text-anchor="middle" x="2210" y="-231.5" font-family="Helvetica,sans-Serif" font-size="10.00">Engine/src/State.cpp</text>
</a>
</g>
</g>
<!-- Node1&#45;&gt;Node28 -->
<g id="edge37" class="edge"><title>Node1&#45;&gt;Node28</title>
<path fill="none" stroke="midnightblue" d="M1707.02,-283.834C1803.78,-276.277 1986.67,-261.22 2142,-244 2146.5,-243.501 2151.16,-242.953 2155.83,-242.379"/>
<polygon fill="midnightblue" stroke="midnightblue" points="1706.49,-280.365 1696.79,-284.63 1707.03,-287.344 1706.49,-280.365"/>
</g>
<!-- Node29 -->
<g id="node29" class="node"><title>Node29</title>
<g id="a_node29"><a xlink:href="TitleState_8h.html" target="_top" xlink:title="Game/include/TitleState.h">
<polygon fill="white" stroke="black" points="0,-224.5 0,-243.5 130,-243.5 130,-224.5 0,-224.5"/>
<text text-anchor="middle" x="65" y="-231.5" font-family="Helvetica,sans-Serif" font-size="10.00">Game/include/TitleState.h</text>
</a>
</g>
</g>
<!-- Node1&#45;&gt;Node29 -->
<g id="edge39" class="edge"><title>Node1&#45;&gt;Node29</title>
<path fill="none" stroke="midnightblue" d="M1571.08,-286.67C1311.65,-277.769 385.09,-245.981 130.268,-237.239"/>
<polygon fill="midnightblue" stroke="midnightblue" points="1571,-290.169 1581.11,-287.014 1571.24,-283.173 1571,-290.169"/>
</g>
<!-- Node3 -->
<g id="node3" class="node"><title>Node3</title>
<g id="a_node3"><a xlink:href="Text_8h.html" target="_top" xlink:title="Engine/include/Text.h">
<polygon fill="white" stroke="black" points="1789.5,-168.5 1789.5,-187.5 1900.5,-187.5 1900.5,-168.5 1789.5,-168.5"/>
<text text-anchor="middle" x="1845" y="-175.5" font-family="Helvetica,sans-Serif" font-size="10.00">Engine/include/Text.h</text>
</a>
</g>
</g>
<!-- Node2&#45;&gt;Node3 -->
<g id="edge2" class="edge"><title>Node2&#45;&gt;Node3</title>
<path fill="none" stroke="midnightblue" d="M1274.12,-227.168C1401.84,-216.392 1672.4,-193.563 1789.29,-183.701"/>
<polygon fill="midnightblue" stroke="midnightblue" points="1273.73,-223.688 1264.06,-228.017 1274.32,-230.663 1273.73,-223.688"/>
</g>
<!-- Node7 -->
<g id="node7" class="node"><title>Node7</title>
<g id="a_node7"><a xlink:href="EndState_8cpp.html" target="_top" xlink:title="Game/src/EndState.cpp">
<polygon fill="white" stroke="black" points="2048,-0.5 2048,-19.5 2170,-19.5 2170,-0.5 2048,-0.5"/>
<text text-anchor="middle" x="2109" y="-7.5" font-family="Helvetica,sans-Serif" font-size="10.00">Game/src/EndState.cpp</text>
</a>
</g>
</g>
<!-- Node2&#45;&gt;Node7 -->
<g id="edge29" class="edge"><title>Node2&#45;&gt;Node7</title>
<path fill="none" stroke="midnightblue" d="M1274.7,-233.06C1438.74,-232.539 1845.17,-227.199 1975,-188 2022.29,-173.723 2040.19,-170.609 2071,-132 2099.02,-96.8906 2106.51,-40.9006 2108.4,-19.6033"/>
<polygon fill="midnightblue" stroke="midnightblue" points="1274.24,-229.562 1264.25,-233.088 1274.26,-236.562 1274.24,-229.562"/>
</g>
<!-- Node8 -->
<g id="node8" class="node"><title>Node8</title>
<g id="a_node8"><a xlink:href="StageState_8cpp.html" target="_top" xlink:title="Game/src/StageState.cpp">
<polygon fill="white" stroke="black" points="1778,-0.5 1778,-19.5 1908,-19.5 1908,-0.5 1778,-0.5"/>
<text text-anchor="middle" x="1843" y="-7.5" font-family="Helvetica,sans-Serif" font-size="10.00">Game/src/StageState.cpp</text>
</a>
</g>
</g>
<!-- Node2&#45;&gt;Node8 -->
<g id="edge33" class="edge"><title>Node2&#45;&gt;Node8</title>
<path fill="none" stroke="midnightblue" d="M1274.37,-231.288C1427.34,-227.071 1789.5,-214.54 1909,-188 1975.63,-173.202 2013.53,-188.381 2052,-132 2095.19,-68.7084 1970.21,-34.118 1895.15,-19.505"/>
<polygon fill="midnightblue" stroke="midnightblue" points="1274.07,-227.795 1264.17,-231.566 1274.26,-234.792 1274.07,-227.795"/>
</g>
<!-- Node9 -->
<g id="node9" class="node"><title>Node9</title>
<g id="a_node9"><a xlink:href="TitleState_8cpp.html" target="_top" xlink:title="Game/src/TitleState.cpp">
<polygon fill="white" stroke="black" points="82.5,-0.5 82.5,-19.5 205.5,-19.5 205.5,-0.5 82.5,-0.5"/>
<text text-anchor="middle" x="144" y="-7.5" font-family="Helvetica,sans-Serif" font-size="10.00">Game/src/TitleState.cpp</text>
</a>
</g>
</g>
<!-- Node2&#45;&gt;Node9 -->
<g id="edge34" class="edge"><title>Node2&#45;&gt;Node9</title>
<path fill="none" stroke="midnightblue" d="M1135.55,-232.464C908.161,-230.39 198.46,-221.268 163,-188 114.541,-142.537 134.076,-48.5928 141.577,-19.6675"/>
<polygon fill="midnightblue" stroke="midnightblue" points="1135.66,-235.965 1145.69,-232.555 1135.72,-228.965 1135.66,-235.965"/>
</g>
<!-- Node10 -->
<g id="node10" class="node"><title>Node10</title>
<g id="a_node10"><a xlink:href="Tower_8cpp.html" target="_top" xlink:title="Game/src/Tower.cpp">
<polygon fill="white" stroke="black" points="1530,-0.5 1530,-19.5 1638,-19.5 1638,-0.5 1530,-0.5"/>
<text text-anchor="middle" x="1584" y="-7.5" font-family="Helvetica,sans-Serif" font-size="10.00">Game/src/Tower.cpp</text>
</a>
</g>
</g>
<!-- Node2&#45;&gt;Node10 -->
<g id="edge35" class="edge"><title>Node2&#45;&gt;Node10</title>
<path fill="none" stroke="midnightblue" d="M1274.15,-231.088C1344.39,-227.515 1446.26,-217.281 1471,-188 1476.74,-181.211 1475.79,-175.487 1471,-168 1450.42,-135.839 1413.58,-164.161 1393,-132 1388.21,-124.513 1388.41,-119.614 1393,-112 1425.42,-58.181 1497.18,-31.5507 1542.93,-19.5702"/>
<polygon fill="midnightblue" stroke="midnightblue" points="1273.85,-227.598 1264.03,-231.568 1274.19,-234.59 1273.85,-227.598"/>
</g>
<!-- Node11 -->
<g id="node11" class="node"><title>Node11</title>
<g id="a_node11"><a xlink:href="Camera_8cpp.html" target="_top" xlink:title="Engine/src/Camera.cpp">
<polygon fill="white" stroke="black" points="172.5,-168.5 172.5,-187.5 291.5,-187.5 291.5,-168.5 172.5,-168.5"/>
<text text-anchor="middle" x="232" y="-175.5" font-family="Helvetica,sans-Serif" font-size="10.00">Engine/src/Camera.cpp</text>
</a>
</g>
</g>
<!-- Node2&#45;&gt;Node11 -->
<g id="edge11" class="edge"><title>Node2&#45;&gt;Node11</title>
<path fill="none" stroke="midnightblue" d="M1135.75,-231.49C984.048,-227.759 611.081,-216.272 300,-188 297.272,-187.752 294.486,-187.476 291.673,-187.179"/>
<polygon fill="midnightblue" stroke="midnightblue" points="1135.77,-234.992 1145.85,-231.735 1135.94,-227.994 1135.77,-234.992"/>
</g>
<!-- Node12 -->
<g id="node12" class="node"><title>Node12</title>
<g id="a_node12"><a xlink:href="Game_8cpp.html" target="_top" xlink:title="Engine/src/Game.cpp">
<polygon fill="white" stroke="black" points="309.5,-168.5 309.5,-187.5 420.5,-187.5 420.5,-168.5 309.5,-168.5"/>
<text text-anchor="middle" x="365" y="-175.5" font-family="Helvetica,sans-Serif" font-size="10.00">Engine/src/Game.cpp</text>
</a>
</g>
</g>
<!-- Node2&#45;&gt;Node12 -->
<g id="edge12" class="edge"><title>Node2&#45;&gt;Node12</title>
<path fill="none" stroke="midnightblue" d="M1135.3,-230.813C999.378,-226.137 689.49,-213.458 430,-188 426.939,-187.7 423.8,-187.363 420.635,-187"/>
<polygon fill="midnightblue" stroke="midnightblue" points="1135.45,-234.32 1145.57,-231.162 1135.69,-227.324 1135.45,-234.32"/>
</g>
<!-- Node13 -->
<g id="node13" class="node"><title>Node13</title>
<g id="a_node13"><a xlink:href="Resources_8cpp.html" target="_top" xlink:title="Engine/src/Resources.cpp">
<polygon fill="white" stroke="black" points="439,-168.5 439,-187.5 571,-187.5 571,-168.5 439,-168.5"/>
<text text-anchor="middle" x="505" y="-175.5" font-family="Helvetica,sans-Serif" font-size="10.00">Engine/src/Resources.cpp</text>
</a>
</g>
</g>
<!-- Node2&#45;&gt;Node13 -->
<g id="edge13" class="edge"><title>Node2&#45;&gt;Node13</title>
<path fill="none" stroke="midnightblue" d="M1135.79,-229.095C1020.42,-222.345 781.564,-207.339 580,-188 577.128,-187.724 574.196,-187.43 571.235,-187.121"/>
<polygon fill="midnightblue" stroke="midnightblue" points="1135.71,-232.596 1145.89,-229.684 1136.12,-225.608 1135.71,-232.596"/>
</g>
<!-- Node14 -->
<g id="node14" class="node"><title>Node14</title>
<g id="a_node14"><a xlink:href="Sprite_8cpp.html" target="_top" xlink:title="Engine/src/Sprite.cpp">
<polygon fill="white" stroke="black" points="589,-168.5 589,-187.5 699,-187.5 699,-168.5 589,-168.5"/>
<text text-anchor="middle" x="644" y="-175.5" font-family="Helvetica,sans-Serif" font-size="10.00">Engine/src/Sprite.cpp</text>
</a>
</g>
</g>
<!-- Node2&#45;&gt;Node14 -->
<g id="edge14" class="edge"><title>Node2&#45;&gt;Node14</title>
<path fill="none" stroke="midnightblue" d="M1135.82,-227.822C1039.71,-220.381 860.378,-205.602 708,-188 705.102,-187.665 702.132,-187.306 699.136,-186.93"/>
<polygon fill="midnightblue" stroke="midnightblue" points="1135.75,-231.327 1145.99,-228.606 1136.29,-224.348 1135.75,-231.327"/>
</g>
<!-- Node15 -->
<g id="node15" class="node"><title>Node15</title>
<g id="a_node15"><a xlink:href="Tileset_8cpp.html" target="_top" xlink:title="Engine/src/Tileset.cpp">
<polygon fill="white" stroke="black" points="717,-168.5 717,-187.5 831,-187.5 831,-168.5 717,-168.5"/>
<text text-anchor="middle" x="774" y="-175.5" font-family="Helvetica,sans-Serif" font-size="10.00">Engine/src/Tileset.cpp</text>
</a>
</g>
</g>
<!-- Node2&#45;&gt;Node15 -->
<g id="edge15" class="edge"><title>Node2&#45;&gt;Node15</title>
<path fill="none" stroke="midnightblue" d="M1135.81,-224.738C1062.38,-215.907 942.954,-201.366 840,-188 837.133,-187.628 834.196,-187.242 831.231,-186.85"/>
<polygon fill="midnightblue" stroke="midnightblue" points="1135.52,-228.228 1145.86,-225.946 1136.35,-221.278 1135.52,-228.228"/>
</g>
<!-- Node16 -->
<g id="node16" class="node"><title>Node16</title>
<g id="a_node16"><a xlink:href="UIelement_8cpp.html" target="_top" xlink:title="Engine/src/UIelement.cpp">
<polygon fill="white" stroke="black" points="849,-168.5 849,-187.5 979,-187.5 979,-168.5 849,-168.5"/>
<text text-anchor="middle" x="914" y="-175.5" font-family="Helvetica,sans-Serif" font-size="10.00">Engine/src/UIelement.cpp</text>
</a>
</g>
</g>
<!-- Node2&#45;&gt;Node16 -->
<g id="edge16" class="edge"><title>Node2&#45;&gt;Node16</title>
<path fill="none" stroke="midnightblue" d="M1148.96,-222.601C1093.96,-212.395 1011.1,-197.019 959.894,-187.516"/>
<polygon fill="midnightblue" stroke="midnightblue" points="1148.42,-226.06 1158.89,-224.444 1149.7,-219.178 1148.42,-226.06"/>
</g>
<!-- Node17 -->
<g id="node17" class="node"><title>Node17</title>
<g id="a_node17"><a xlink:href="UItext_8cpp.html" target="_top" xlink:title="Engine/src/UItext.cpp">
<polygon fill="white" stroke="black" points="997,-168.5 997,-187.5 1109,-187.5 1109,-168.5 997,-168.5"/>
<text text-anchor="middle" x="1053" y="-175.5" font-family="Helvetica,sans-Serif" font-size="10.00">Engine/src/UItext.cpp</text>
</a>
</g>
</g>
<!-- Node2&#45;&gt;Node17 -->
<g id="edge17" class="edge"><title>Node2&#45;&gt;Node17</title>
<path fill="none" stroke="midnightblue" d="M1171.33,-221.039C1142.73,-210.879 1102.39,-196.546 1076.97,-187.516"/>
<polygon fill="midnightblue" stroke="midnightblue" points="1170.32,-224.394 1180.92,-224.444 1172.66,-217.798 1170.32,-224.394"/>
</g>
<!-- Node18 -->
<g id="node18" class="node"><title>Node18</title>
<g id="a_node18"><a xlink:href="Bullet_8h.html" target="_top" xlink:title="Game/include/Bullet.h">
<polygon fill="white" stroke="black" points="1539.5,-168.5 1539.5,-187.5 1652.5,-187.5 1652.5,-168.5 1539.5,-168.5"/>
<text text-anchor="middle" x="1596" y="-175.5" font-family="Helvetica,sans-Serif" font-size="10.00">Game/include/Bullet.h</text>
</a>
</g>
</g>
<!-- Node2&#45;&gt;Node18 -->
<g id="edge18" class="edge"><title>Node2&#45;&gt;Node18</title>
<path fill="none" stroke="midnightblue" d="M1274.74,-223.368C1350.24,-212.941 1469.23,-196.508 1539.24,-186.839"/>
<polygon fill="midnightblue" stroke="midnightblue" points="1273.81,-219.963 1264.38,-224.799 1274.77,-226.897 1273.81,-219.963"/>
</g>
<!-- Node19 -->
<g id="node19" class="node"><title>Node19</title>
<g id="a_node19"><a xlink:href="AIQuimic_8h.html" target="_top" xlink:title="Game/include/AIQuimic.h">
<polygon fill="white" stroke="black" points="1218,-112.5 1218,-131.5 1346,-131.5 1346,-112.5 1218,-112.5"/>
<text text-anchor="middle" x="1282" y="-119.5" font-family="Helvetica,sans-Serif" font-size="10.00">Game/include/AIQuimic.h</text>
</a>
</g>
</g>
<!-- Node2&#45;&gt;Node19 -->
<g id="edge28" class="edge"><title>Node2&#45;&gt;Node19</title>
<path fill="none" stroke="midnightblue" d="M1274.35,-230.135C1339.9,-225.798 1431.48,-214.96 1454,-188 1459.7,-181.179 1459.43,-175.036 1454,-168 1440.61,-150.653 1389.15,-138.705 1345.98,-131.504"/>
<polygon fill="midnightblue" stroke="midnightblue" points="1273.83,-226.66 1264.07,-230.777 1274.27,-233.647 1273.83,-226.66"/>
</g>
<!-- Node24 -->
<g id="node24" class="node"><title>Node24</title>
<g id="a_node24"><a xlink:href="Shooter_8cpp.html" target="_top" xlink:title="Game/src/Shooter.cpp">
<polygon fill="white" stroke="black" points="1659.5,-112.5 1659.5,-131.5 1774.5,-131.5 1774.5,-112.5 1659.5,-112.5"/>
<text text-anchor="middle" x="1717" y="-119.5" font-family="Helvetica,sans-Serif" font-size="10.00">Game/src/Shooter.cpp</text>
</a>
</g>
</g>
<!-- Node2&#45;&gt;Node24 -->
<g id="edge32" class="edge"><title>Node2&#45;&gt;Node24</title>
<path fill="none" stroke="midnightblue" d="M1274.44,-232.385C1385.05,-230.376 1595.45,-222.044 1661,-188 1685.85,-175.094 1704.4,-146.089 1712.51,-131.59"/>
<polygon fill="midnightblue" stroke="midnightblue" points="1274.32,-228.887 1264.38,-232.555 1274.44,-235.886 1274.32,-228.887"/>
</g>
<!-- Node25 -->
<g id="node25" class="node"><title>Node25</title>
<g id="a_node25"><a xlink:href="GameResources_8cpp.html" target="_top" xlink:title="Game/src/GameResources.cpp">
<polygon fill="white" stroke="black" points="1127.5,-168.5 1127.5,-187.5 1282.5,-187.5 1282.5,-168.5 1127.5,-168.5"/>
<text text-anchor="middle" x="1205" y="-175.5" font-family="Helvetica,sans-Serif" font-size="10.00">Game/src/GameResources.cpp</text>
</a>
</g>
</g>
<!-- Node2&#45;&gt;Node25 -->
<g id="edge30" class="edge"><title>Node2&#45;&gt;Node25</title>
<path fill="none" stroke="midnightblue" d="M1205,-213.805C1205,-204.91 1205,-194.78 1205,-187.751"/>
<polygon fill="midnightblue" stroke="midnightblue" points="1201.5,-214.083 1205,-224.083 1208.5,-214.083 1201.5,-214.083"/>
</g>
<!-- Node26 -->
<g id="node26" class="node"><title>Node26</title>
<g id="a_node26"><a xlink:href="main_8cpp.html" target="_top" xlink:title="Game/src/main.cpp">
<polygon fill="white" stroke="black" points="14,-168.5 14,-187.5 116,-187.5 116,-168.5 14,-168.5"/>
<text text-anchor="middle" x="65" y="-175.5" font-family="Helvetica,sans-Serif" font-size="10.00">Game/src/main.cpp</text>
</a>
</g>
</g>
<!-- Node2&#45;&gt;Node26 -->
<g id="edge31" class="edge"><title>Node2&#45;&gt;Node26</title>
<path fill="none" stroke="midnightblue" d="M1135.6,-232.395C964.437,-230.401 508.541,-222.051 130,-188 125.461,-187.592 120.754,-187.091 116.042,-186.538"/>
<polygon fill="midnightblue" stroke="midnightblue" points="1135.69,-235.896 1145.73,-232.509 1135.77,-228.896 1135.69,-235.896"/>
</g>
<!-- Node27 -->
<g id="node27" class="node"><title>Node27</title>
<g id="a_node27"><a xlink:href="WaveManager_8cpp.html" target="_top" xlink:title="Game/src/WaveManager.cpp">
<polygon fill="white" stroke="black" points="1301,-168.5 1301,-187.5 1445,-187.5 1445,-168.5 1301,-168.5"/>
<text text-anchor="middle" x="1373" y="-175.5" font-family="Helvetica,sans-Serif" font-size="10.00">Game/src/WaveManager.cpp</text>
</a>
</g>
</g>
<!-- Node2&#45;&gt;Node27 -->
<g id="edge36" class="edge"><title>Node2&#45;&gt;Node27</title>
<path fill="none" stroke="midnightblue" d="M1241.39,-221.304C1273.04,-211.129 1318.17,-196.625 1346.5,-187.516"/>
<polygon fill="midnightblue" stroke="midnightblue" points="1240.07,-218.051 1231.62,-224.444 1242.21,-224.715 1240.07,-218.051"/>
</g>
<!-- Node4 -->
<g id="node4" class="node"><title>Node4</title>
<g id="a_node4"><a xlink:href="Text_8cpp.html" target="_top" xlink:title="Engine/src/Text.cpp">
<polygon fill="white" stroke="black" points="1793,-112.5 1793,-131.5 1897,-131.5 1897,-112.5 1793,-112.5"/>
<text text-anchor="middle" x="1845" y="-119.5" font-family="Helvetica,sans-Serif" font-size="10.00">Engine/src/Text.cpp</text>
</a>
</g>
</g>
<!-- Node3&#45;&gt;Node4 -->
<g id="edge3" class="edge"><title>Node3&#45;&gt;Node4</title>
<path fill="none" stroke="midnightblue" d="M1845,-157.805C1845,-148.91 1845,-138.78 1845,-131.751"/>
<polygon fill="midnightblue" stroke="midnightblue" points="1841.5,-158.083 1845,-168.083 1848.5,-158.083 1841.5,-158.083"/>
</g>
<!-- Node5 -->
<g id="node5" class="node"><title>Node5</title>
<g id="a_node5"><a xlink:href="EndState_8h.html" target="_top" xlink:title="Game/include/EndState.h">
<polygon fill="white" stroke="black" points="1915,-112.5 1915,-131.5 2043,-131.5 2043,-112.5 1915,-112.5"/>
<text text-anchor="middle" x="1979" y="-119.5" font-family="Helvetica,sans-Serif" font-size="10.00">Game/include/EndState.h</text>
</a>
</g>
</g>
<!-- Node3&#45;&gt;Node5 -->
<g id="edge4" class="edge"><title>Node3&#45;&gt;Node5</title>
<path fill="none" stroke="midnightblue" d="M1875.68,-164.638C1900.82,-154.504 1935.75,-140.427 1957.87,-131.516"/>
<polygon fill="midnightblue" stroke="midnightblue" points="1874.2,-161.459 1866.23,-168.444 1876.82,-167.952 1874.2,-161.459"/>
</g>
<!-- Node5&#45;&gt;Node6 -->
<g id="edge5" class="edge"><title>Node5&#45;&gt;Node6</title>
<path fill="none" stroke="midnightblue" d="M1947.87,-108.638C1922.34,-98.504 1886.89,-84.4274 1864.45,-75.5164"/>
<polygon fill="midnightblue" stroke="midnightblue" points="1946.86,-112.006 1957.45,-112.444 1949.45,-105.5 1946.86,-112.006"/>
</g>
<!-- Node5&#45;&gt;Node7 -->
<g id="edge10" class="edge"><title>Node5&#45;&gt;Node7</title>
<path fill="none" stroke="midnightblue" d="M1996.95,-105.816C2024.63,-82.3874 2076.87,-38.1898 2098.85,-19.5914"/>
<polygon fill="midnightblue" stroke="midnightblue" points="1994.57,-103.237 1989.2,-112.368 1999.1,-108.581 1994.57,-103.237"/>
</g>
<!-- Node6&#45;&gt;Node7 -->
<g id="edge6" class="edge"><title>Node6&#45;&gt;Node7</title>
<path fill="none" stroke="midnightblue" d="M1895.17,-54.4096C1945.44,-44.2042 2020.53,-28.9597 2067.05,-19.5164"/>
<polygon fill="midnightblue" stroke="midnightblue" points="1894.25,-51.0239 1885.15,-56.4435 1895.64,-57.884 1894.25,-51.0239"/>
</g>
<!-- Node6&#45;&gt;Node8 -->
<g id="edge7" class="edge"><title>Node6&#45;&gt;Node8</title>
<path fill="none" stroke="midnightblue" d="M1843,-45.8045C1843,-36.9102 1843,-26.7798 1843,-19.7511"/>
<polygon fill="midnightblue" stroke="midnightblue" points="1839.5,-46.083 1843,-56.083 1846.5,-46.083 1839.5,-46.083"/>
</g>
<!-- Node6&#45;&gt;Node9 -->
<g id="edge8" class="edge"><title>Node6&#45;&gt;Node9</title>
<path fill="none" stroke="midnightblue" d="M1764.27,-62.4976C1473.87,-53.2679 466.215,-21.2411 205.809,-12.9645"/>
<polygon fill="midnightblue" stroke="midnightblue" points="1764.19,-65.9967 1774.29,-62.8163 1764.41,-59.0003 1764.19,-65.9967"/>
</g>
<!-- Node6&#45;&gt;Node10 -->
<g id="edge9" class="edge"><title>Node6&#45;&gt;Node10</title>
<path fill="none" stroke="midnightblue" d="M1791.9,-54.3456C1742.95,-44.1405 1670.05,-28.94 1624.85,-19.5164"/>
<polygon fill="midnightblue" stroke="midnightblue" points="1791.46,-57.8287 1801.96,-56.4435 1792.89,-50.9761 1791.46,-57.8287"/>
</g>
<!-- Node18&#45;&gt;Node19 -->
<g id="edge19" class="edge"><title>Node18&#45;&gt;Node19</title>
<path fill="none" stroke="midnightblue" d="M1536.27,-166.727C1476.93,-156.523 1387.01,-141.058 1331.52,-131.516"/>
<polygon fill="midnightblue" stroke="midnightblue" points="1535.8,-170.198 1546.25,-168.444 1536.98,-163.299 1535.8,-170.198"/>
</g>
<!-- Node22 -->
<g id="node22" class="node"><title>Node22</title>
<g id="a_node22"><a xlink:href="Tower_8h.html" target="_top" xlink:title="Game/include/Tower.h">
<polygon fill="white" stroke="black" points="1526.5,-112.5 1526.5,-131.5 1641.5,-131.5 1641.5,-112.5 1526.5,-112.5"/>
<text text-anchor="middle" x="1584" y="-119.5" font-family="Helvetica,sans-Serif" font-size="10.00">Game/include/Tower.h</text>
</a>
</g>
</g>
<!-- Node18&#45;&gt;Node22 -->
<g id="edge23" class="edge"><title>Node18&#45;&gt;Node22</title>
<path fill="none" stroke="midnightblue" d="M1591.8,-158.101C1589.81,-149.136 1587.52,-138.858 1585.94,-131.751"/>
<polygon fill="midnightblue" stroke="midnightblue" points="1588.43,-159.08 1594.02,-168.083 1595.27,-157.562 1588.43,-159.08"/>
</g>
<!-- Node23 -->
<g id="node23" class="node"><title>Node23</title>
<g id="a_node23"><a xlink:href="Bullet_8cpp.html" target="_top" xlink:title="Game/src/Bullet.cpp">
<polygon fill="white" stroke="black" points="1402,-112.5 1402,-131.5 1508,-131.5 1508,-112.5 1402,-112.5"/>
<text text-anchor="middle" x="1455" y="-119.5" font-family="Helvetica,sans-Serif" font-size="10.00">Game/src/Bullet.cpp</text>
</a>
</g>
</g>
<!-- Node18&#45;&gt;Node23 -->
<g id="edge26" class="edge"><title>Node18&#45;&gt;Node23</title>
<path fill="none" stroke="midnightblue" d="M1564.07,-164.772C1537.59,-154.629 1500.61,-140.467 1477.24,-131.516"/>
<polygon fill="midnightblue" stroke="midnightblue" points="1563.07,-168.136 1573.66,-168.444 1565.57,-161.599 1563.07,-168.136"/>
</g>
<!-- Node18&#45;&gt;Node24 -->
<g id="edge27" class="edge"><title>Node18&#45;&gt;Node24</title>
<path fill="none" stroke="midnightblue" d="M1624.31,-164.368C1646.97,-154.255 1678.13,-140.349 1697.92,-131.516"/>
<polygon fill="midnightblue" stroke="midnightblue" points="1622.88,-161.172 1615.17,-168.444 1625.73,-167.564 1622.88,-161.172"/>
</g>
<!-- Node19&#45;&gt;Node8 -->
<g id="edge22" class="edge"><title>Node19&#45;&gt;Node8</title>
<path fill="none" stroke="midnightblue" d="M1335.49,-110.512C1446.08,-88.8274 1698.02,-39.4275 1799.47,-19.5345"/>
<polygon fill="midnightblue" stroke="midnightblue" points="1334.69,-107.101 1325.55,-112.46 1336.04,-113.97 1334.69,-107.101"/>
</g>
<!-- Node20 -->
<g id="node20" class="node"><title>Node20</title>
<g id="a_node20"><a xlink:href="AIQuimic_8cpp.html" target="_top" xlink:title="Game/src/AIQuimic.cpp">
<polygon fill="white" stroke="black" points="1223,-56.5 1223,-75.5 1345,-75.5 1345,-56.5 1223,-56.5"/>
<text text-anchor="middle" x="1284" y="-63.5" font-family="Helvetica,sans-Serif" font-size="10.00">Game/src/AIQuimic.cpp</text>
</a>
</g>
</g>
<!-- Node19&#45;&gt;Node20 -->
<g id="edge20" class="edge"><title>Node19&#45;&gt;Node20</title>
<path fill="none" stroke="midnightblue" d="M1282.71,-101.805C1283.04,-92.9102 1283.42,-82.7798 1283.68,-75.7511"/>
<polygon fill="midnightblue" stroke="midnightblue" points="1279.2,-101.96 1282.33,-112.083 1286.2,-102.219 1279.2,-101.96"/>
</g>
<!-- Node21 -->
<g id="node21" class="node"><title>Node21</title>
<g id="a_node21"><a xlink:href="Enemy_8cpp.html" target="_top" xlink:title="Game/src/Enemy.cpp">
<polygon fill="white" stroke="black" points="1093,-56.5 1093,-75.5 1205,-75.5 1205,-56.5 1093,-56.5"/>
<text text-anchor="middle" x="1149" y="-63.5" font-family="Helvetica,sans-Serif" font-size="10.00">Game/src/Enemy.cpp</text>
</a>
</g>
</g>
<!-- Node19&#45;&gt;Node21 -->
<g id="edge21" class="edge"><title>Node19&#45;&gt;Node21</title>
<path fill="none" stroke="midnightblue" d="M1251.55,-108.638C1226.59,-98.504 1191.92,-84.4274 1169.98,-75.5164"/>
<polygon fill="midnightblue" stroke="midnightblue" points="1250.34,-111.924 1260.93,-112.444 1252.98,-105.439 1250.34,-111.924"/>
</g>
<!-- Node22&#45;&gt;Node6 -->
<g id="edge24" class="edge"><title>Node22&#45;&gt;Node6</title>
<path fill="none" stroke="midnightblue" d="M1635.1,-110.346C1684.05,-100.141 1756.95,-84.94 1802.15,-75.5164"/>
<polygon fill="midnightblue" stroke="midnightblue" points="1634.11,-106.976 1625.04,-112.444 1635.54,-113.829 1634.11,-106.976"/>
</g>
<!-- Node22&#45;&gt;Node10 -->
<g id="edge25" class="edge"><title>Node22&#45;&gt;Node10</title>
<path fill="none" stroke="midnightblue" d="M1584,-102.348C1584,-78.2538 1584,-37.3079 1584,-19.5914"/>
<polygon fill="midnightblue" stroke="midnightblue" points="1580.5,-102.368 1584,-112.368 1587.5,-102.369 1580.5,-102.368"/>
</g>
<!-- Node29&#45;&gt;Node9 -->
<g id="edge41" class="edge"><title>Node29&#45;&gt;Node9</title>
<path fill="none" stroke="midnightblue" d="M36.7117,-219.379C24.6063,-211.933 11.7284,-201.457 5,-188 1.02477,-180.05 1.84929,-176.312 5,-168 31.1947,-98.8969 103.249,-40.6655 131.962,-19.5159"/>
<polygon fill="midnightblue" stroke="midnightblue" points="35.2788,-222.59 45.7036,-224.48 38.7332,-216.502 35.2788,-222.59"/>
</g>
<!-- Node29&#45;&gt;Node26 -->
<g id="edge40" class="edge"><title>Node29&#45;&gt;Node26</title>
<path fill="none" stroke="midnightblue" d="M65,-213.805C65,-204.91 65,-194.78 65,-187.751"/>
<polygon fill="midnightblue" stroke="midnightblue" points="61.5001,-214.083 65,-224.083 68.5001,-214.083 61.5001,-214.083"/>
</g>
</g>
</svg>
