<?xml version="1.0" encoding="UTF-8" standalone="no"?>
<!DOCTYPE svg PUBLIC "-//W3C//DTD SVG 1.1//EN"
 "http://www.w3.org/Graphics/SVG/1.1/DTD/svg11.dtd">
<!-- Generated by graphviz version 2.38.0 (20140413.2041)
 -->
<!-- Title: Engine/src/State.cpp Pages: 1 -->
<svg width="266pt" height="252pt"
 viewBox="0.00 0.00 265.50 252.00" xmlns="http://www.w3.org/2000/svg" xmlns:xlink="http://www.w3.org/1999/xlink">
<g id="graph0" class="graph" transform="scale(1 1) rotate(0) translate(4 248)">
<title>Engine/src/State.cpp</title>
<polygon fill="white" stroke="none" points="-4,4 -4,-248 261.5,-248 261.5,4 -4,4"/>
<!-- Node0 -->
<g id="node1" class="node"><title>Node0</title>
<polygon fill="#bfbfbf" stroke="black" points="111.5,-224.5 111.5,-243.5 219.5,-243.5 219.5,-224.5 111.5,-224.5"/>
<text text-anchor="middle" x="165.5" y="-231.5" font-family="Helvetica,sans-Serif" font-size="10.00">Engine/src/State.cpp</text>
</g>
<!-- Node1 -->
<g id="node2" class="node"><title>Node1</title>
<g id="a_node2"><a xlink:href="State_8h.html" target="_top" xlink:title="State.h">
<polygon fill="white" stroke="black" points="141.5,-168.5 141.5,-187.5 189.5,-187.5 189.5,-168.5 141.5,-168.5"/>
<text text-anchor="middle" x="165.5" y="-175.5" font-family="Helvetica,sans-Serif" font-size="10.00">State.h</text>
</a>
</g>
</g>
<!-- Node0&#45;&gt;Node1 -->
<g id="edge1" class="edge"><title>Node0&#45;&gt;Node1</title>
<path fill="none" stroke="midnightblue" d="M165.5,-224.083C165.5,-217.006 165.5,-206.861 165.5,-197.986"/>
<polygon fill="midnightblue" stroke="midnightblue" points="169,-197.751 165.5,-187.751 162,-197.751 169,-197.751"/>
</g>
<!-- Node2 -->
<g id="node3" class="node"><title>Node2</title>
<g id="a_node3"><a xlink:href="Gameobject_8h.html" target="_top" xlink:title="Gameobject.h">
<polygon fill="white" stroke="black" points="48,-112.5 48,-131.5 125,-131.5 125,-112.5 48,-112.5"/>
<text text-anchor="middle" x="86.5" y="-119.5" font-family="Helvetica,sans-Serif" font-size="10.00">Gameobject.h</text>
</a>
</g>
</g>
<!-- Node1&#45;&gt;Node2 -->
<g id="edge2" class="edge"><title>Node1&#45;&gt;Node2</title>
<path fill="none" stroke="midnightblue" d="M152.807,-168.324C140.599,-159.979 121.922,-147.212 107.497,-137.352"/>
<polygon fill="midnightblue" stroke="midnightblue" points="109.392,-134.408 99.1612,-131.655 105.442,-140.187 109.392,-134.408"/>
</g>
<!-- Node7 -->
<g id="node8" class="node"><title>Node7</title>
<polygon fill="white" stroke="#bfbfbf" points="143.5,-112.5 143.5,-131.5 187.5,-131.5 187.5,-112.5 143.5,-112.5"/>
<text text-anchor="middle" x="165.5" y="-119.5" font-family="Helvetica,sans-Serif" font-size="10.00">vector</text>
</g>
<!-- Node1&#45;&gt;Node7 -->
<g id="edge7" class="edge"><title>Node1&#45;&gt;Node7</title>
<path fill="none" stroke="midnightblue" d="M165.5,-168.083C165.5,-161.006 165.5,-150.861 165.5,-141.986"/>
<polygon fill="midnightblue" stroke="midnightblue" points="169,-141.751 165.5,-131.751 162,-141.751 169,-141.751"/>
</g>
<!-- Node8 -->
<g id="node9" class="node"><title>Node8</title>
<polygon fill="white" stroke="#bfbfbf" points="205.5,-112.5 205.5,-131.5 257.5,-131.5 257.5,-112.5 205.5,-112.5"/>
<text text-anchor="middle" x="231.5" y="-119.5" font-family="Helvetica,sans-Serif" font-size="10.00">memory</text>
</g>
<!-- Node1&#45;&gt;Node8 -->
<g id="edge8" class="edge"><title>Node1&#45;&gt;Node8</title>
<path fill="none" stroke="midnightblue" d="M176.104,-168.324C185.956,-160.263 200.851,-148.077 212.715,-138.369"/>
<polygon fill="midnightblue" stroke="midnightblue" points="215.18,-140.875 220.703,-131.834 210.747,-135.457 215.18,-140.875"/>
</g>
<!-- Node3 -->
<g id="node4" class="node"><title>Node3</title>
<g id="a_node4"><a xlink:href="Rect_8h.html" target="_top" xlink:title="Rect.h">
<polygon fill="white" stroke="black" points="32.5,-56.5 32.5,-75.5 78.5,-75.5 78.5,-56.5 32.5,-56.5"/>
<text text-anchor="middle" x="55.5" y="-63.5" font-family="Helvetica,sans-Serif" font-size="10.00">Rect.h</text>
</a>
</g>
</g>
<!-- Node2&#45;&gt;Node3 -->
<g id="edge3" class="edge"><title>Node2&#45;&gt;Node3</title>
<path fill="none" stroke="midnightblue" d="M81.381,-112.083C77.0925,-104.613 70.8418,-93.7244 65.5577,-84.5199"/>
<polygon fill="midnightblue" stroke="midnightblue" points="68.5379,-82.6811 60.5238,-75.7511 62.4671,-86.1662 68.5379,-82.6811"/>
</g>
<!-- Node6 -->
<g id="node7" class="node"><title>Node6</title>
<polygon fill="white" stroke="#bfbfbf" points="97,-56.5 97,-75.5 138,-75.5 138,-56.5 97,-56.5"/>
<text text-anchor="middle" x="117.5" y="-63.5" font-family="Helvetica,sans-Serif" font-size="10.00">string</text>
</g>
<!-- Node2&#45;&gt;Node6 -->
<g id="edge6" class="edge"><title>Node2&#45;&gt;Node6</title>
<path fill="none" stroke="midnightblue" d="M91.619,-112.083C95.9075,-104.613 102.158,-93.7244 107.442,-84.5199"/>
<polygon fill="midnightblue" stroke="midnightblue" points="110.533,-86.1662 112.476,-75.7511 104.462,-82.6811 110.533,-86.1662"/>
</g>
<!-- Node4 -->
<g id="node5" class="node"><title>Node4</title>
<g id="a_node5"><a xlink:href="Vec2_8h.html" target="_top" xlink:title="Vec2.h">
<polygon fill="white" stroke="black" points="0,-0.5 0,-19.5 47,-19.5 47,-0.5 0,-0.5"/>
<text text-anchor="middle" x="23.5" y="-7.5" font-family="Helvetica,sans-Serif" font-size="10.00">Vec2.h</text>
</a>
</g>
</g>
<!-- Node3&#45;&gt;Node4 -->
<g id="edge4" class="edge"><title>Node3&#45;&gt;Node4</title>
<path fill="none" stroke="midnightblue" d="M50.2159,-56.083C45.789,-48.6127 39.3367,-37.7244 33.8821,-28.5199"/>
<polygon fill="midnightblue" stroke="midnightblue" points="36.7949,-26.5697 28.6858,-19.7511 30.7729,-30.1383 36.7949,-26.5697"/>
</g>
<!-- Node5 -->
<g id="node6" class="node"><title>Node5</title>
<polygon fill="white" stroke="#bfbfbf" points="65.5,-0.5 65.5,-19.5 109.5,-19.5 109.5,-0.5 65.5,-0.5"/>
<text text-anchor="middle" x="87.5" y="-7.5" font-family="Helvetica,sans-Serif" font-size="10.00">cmath</text>
</g>
<!-- Node3&#45;&gt;Node5 -->
<g id="edge5" class="edge"><title>Node3&#45;&gt;Node5</title>
<path fill="none" stroke="midnightblue" d="M60.7841,-56.083C65.211,-48.6127 71.6633,-37.7244 77.1179,-28.5199"/>
<polygon fill="midnightblue" stroke="midnightblue" points="80.2271,-30.1383 82.3142,-19.7511 74.2051,-26.5697 80.2271,-30.1383"/>
</g>
</g>
</svg>
