<?xml version="1.0" encoding="UTF-8" standalone="no"?>
<!DOCTYPE svg PUBLIC "-//W3C//DTD SVG 1.1//EN"
 "http://www.w3.org/Graphics/SVG/1.1/DTD/svg11.dtd">
<!-- Generated by graphviz version 2.38.0 (20140413.2041)
 -->
<!-- Title: Engine/include/StateData.h Pages: 1 -->
<svg width="489pt" height="252pt"
 viewBox="0.00 0.00 489.00 252.00" xmlns="http://www.w3.org/2000/svg" xmlns:xlink="http://www.w3.org/1999/xlink">
<g id="graph0" class="graph" transform="scale(1 1) rotate(0) translate(4 248)">
<title>Engine/include/StateData.h</title>
<polygon fill="white" stroke="none" points="-4,4 -4,-248 485,-248 485,4 -4,4"/>
<!-- Node1 -->
<g id="node1" class="node"><title>Node1</title>
<polygon fill="#bfbfbf" stroke="black" points="259.5,-224.5 259.5,-243.5 395.5,-243.5 395.5,-224.5 259.5,-224.5"/>
<text text-anchor="middle" x="327.5" y="-231.5" font-family="Helvetica,sans-Serif" font-size="10.00">Engine/include/StateData.h</text>
</g>
<!-- Node2 -->
<g id="node2" class="node"><title>Node2</title>
<g id="a_node2"><a xlink:href="EndStateData_8h.html" target="_top" xlink:title="Game/include/EndStateData.h">
<polygon fill="white" stroke="black" points="171,-168.5 171,-187.5 320,-187.5 320,-168.5 171,-168.5"/>
<text text-anchor="middle" x="245.5" y="-175.5" font-family="Helvetica,sans-Serif" font-size="10.00">Game/include/EndStateData.h</text>
</a>
</g>
</g>
<!-- Node1&#45;&gt;Node2 -->
<g id="edge1" class="edge"><title>Node1&#45;&gt;Node2</title>
<path fill="none" stroke="midnightblue" d="M305.667,-218.622C290.687,-208.757 271.303,-195.992 258.642,-187.655"/>
<polygon fill="midnightblue" stroke="midnightblue" points="304.049,-221.747 314.325,-224.324 307.899,-215.901 304.049,-221.747"/>
</g>
<!-- Node8 -->
<g id="node8" class="node"><title>Node8</title>
<g id="a_node8"><a xlink:href="EndStateData_8cpp.html" target="_top" xlink:title="Game/src/EndStateData.cpp">
<polygon fill="white" stroke="black" points="338,-168.5 338,-187.5 481,-187.5 481,-168.5 338,-168.5"/>
<text text-anchor="middle" x="409.5" y="-175.5" font-family="Helvetica,sans-Serif" font-size="10.00">Game/src/EndStateData.cpp</text>
</a>
</g>
</g>
<!-- Node1&#45;&gt;Node8 -->
<g id="edge9" class="edge"><title>Node1&#45;&gt;Node8</title>
<path fill="none" stroke="midnightblue" d="M349.333,-218.622C364.313,-208.757 383.697,-195.992 396.358,-187.655"/>
<polygon fill="midnightblue" stroke="midnightblue" points="347.101,-215.901 340.675,-224.324 350.951,-221.747 347.101,-215.901"/>
</g>
<!-- Node3 -->
<g id="node3" class="node"><title>Node3</title>
<g id="a_node3"><a xlink:href="EndState_8h.html" target="_top" xlink:title="Game/include/EndState.h">
<polygon fill="white" stroke="black" points="63.5,-112.5 63.5,-131.5 191.5,-131.5 191.5,-112.5 63.5,-112.5"/>
<text text-anchor="middle" x="127.5" y="-119.5" font-family="Helvetica,sans-Serif" font-size="10.00">Game/include/EndState.h</text>
</a>
</g>
</g>
<!-- Node2&#45;&gt;Node3 -->
<g id="edge2" class="edge"><title>Node2&#45;&gt;Node3</title>
<path fill="none" stroke="midnightblue" d="M217.6,-164.232C195.527,-154.131 165.324,-140.309 146.11,-131.516"/>
<polygon fill="midnightblue" stroke="midnightblue" points="216.253,-167.465 226.803,-168.444 219.166,-161.1 216.253,-167.465"/>
</g>
<!-- Node5 -->
<g id="node5" class="node"><title>Node5</title>
<g id="a_node5"><a xlink:href="StageState_8cpp.html" target="_top" xlink:title="Game/src/StageState.cpp">
<polygon fill="white" stroke="black" points="194.5,-0.5 194.5,-19.5 324.5,-19.5 324.5,-0.5 194.5,-0.5"/>
<text text-anchor="middle" x="259.5" y="-7.5" font-family="Helvetica,sans-Serif" font-size="10.00">Game/src/StageState.cpp</text>
</a>
</g>
</g>
<!-- Node2&#45;&gt;Node5 -->
<g id="edge8" class="edge"><title>Node2&#45;&gt;Node5</title>
<path fill="none" stroke="midnightblue" d="M255.053,-159.477C265.176,-139.827 280.509,-106.684 286.5,-76 288.203,-67.2758 288.873,-64.5664 286.5,-56 282.657,-42.1272 273.273,-28.2372 266.651,-19.6357"/>
<polygon fill="midnightblue" stroke="midnightblue" points="251.895,-157.962 250.312,-168.438 258.082,-161.236 251.895,-157.962"/>
</g>
<!-- Node4 -->
<g id="node4" class="node"><title>Node4</title>
<g id="a_node4"><a xlink:href="StageState_8h.html" target="_top" xlink:title="Game/include/StageState.h">
<polygon fill="white" stroke="black" points="0,-56.5 0,-75.5 137,-75.5 137,-56.5 0,-56.5"/>
<text text-anchor="middle" x="68.5" y="-63.5" font-family="Helvetica,sans-Serif" font-size="10.00">Game/include/StageState.h</text>
</a>
</g>
</g>
<!-- Node3&#45;&gt;Node4 -->
<g id="edge3" class="edge"><title>Node3&#45;&gt;Node4</title>
<path fill="none" stroke="midnightblue" d="M104.775,-105.82C93.138,-96.1452 80.1416,-83.9481 73.0031,-75.8339"/>
<polygon fill="midnightblue" stroke="midnightblue" points="102.911,-108.81 112.906,-112.324 107.283,-103.344 102.911,-108.81"/>
</g>
<!-- Node7 -->
<g id="node7" class="node"><title>Node7</title>
<g id="a_node7"><a xlink:href="EndState_8cpp.html" target="_top" xlink:title="Game/src/EndState.cpp">
<polygon fill="white" stroke="black" points="155.5,-56.5 155.5,-75.5 277.5,-75.5 277.5,-56.5 155.5,-56.5"/>
<text text-anchor="middle" x="216.5" y="-63.5" font-family="Helvetica,sans-Serif" font-size="10.00">Game/src/EndState.cpp</text>
</a>
</g>
</g>
<!-- Node3&#45;&gt;Node7 -->
<g id="edge7" class="edge"><title>Node3&#45;&gt;Node7</title>
<path fill="none" stroke="midnightblue" d="M150.738,-106.901C167.058,-96.9986 188.365,-84.0705 202.236,-75.6545"/>
<polygon fill="midnightblue" stroke="midnightblue" points="148.533,-104.144 141.799,-112.324 152.164,-110.129 148.533,-104.144"/>
</g>
<!-- Node4&#45;&gt;Node3 -->
<g id="edge4" class="edge"><title>Node4&#45;&gt;Node3</title>
<path fill="none" stroke="midnightblue" d="M91.2884,-82.2334C102.87,-91.8664 115.783,-103.984 122.924,-112.083"/>
<polygon fill="midnightblue" stroke="midnightblue" points="93.1861,-79.2691 83.1924,-75.7511 88.811,-84.7334 93.1861,-79.2691"/>
</g>
<!-- Node4&#45;&gt;Node5 -->
<g id="edge5" class="edge"><title>Node4&#45;&gt;Node5</title>
<path fill="none" stroke="midnightblue" d="M108.473,-53.6986C144.521,-43.507 196.743,-28.7429 229.377,-19.5164"/>
<polygon fill="midnightblue" stroke="midnightblue" points="107.435,-50.3549 98.7645,-56.4435 109.34,-57.0909 107.435,-50.3549"/>
</g>
<!-- Node6 -->
<g id="node6" class="node"><title>Node6</title>
<g id="a_node6"><a xlink:href="TitleState_8cpp.html" target="_top" xlink:title="Game/src/TitleState.cpp">
<polygon fill="white" stroke="black" points="7,-0.5 7,-19.5 130,-19.5 130,-0.5 7,-0.5"/>
<text text-anchor="middle" x="68.5" y="-7.5" font-family="Helvetica,sans-Serif" font-size="10.00">Game/src/TitleState.cpp</text>
</a>
</g>
</g>
<!-- Node4&#45;&gt;Node6 -->
<g id="edge6" class="edge"><title>Node4&#45;&gt;Node6</title>
<path fill="none" stroke="midnightblue" d="M68.5,-45.8045C68.5,-36.9102 68.5,-26.7798 68.5,-19.7511"/>
<polygon fill="midnightblue" stroke="midnightblue" points="65.0001,-46.083 68.5,-56.083 72.0001,-46.083 65.0001,-46.083"/>
</g>
</g>
</svg>
