<?xml version="1.0" encoding="UTF-8" standalone="no"?>
<!DOCTYPE svg PUBLIC "-//W3C//DTD SVG 1.1//EN"
 "http://www.w3.org/Graphics/SVG/1.1/DTD/svg11.dtd">
<!-- Generated by graphviz version 2.36.0 (20140111.2315)
 -->
<!-- Title: EnemyData Pages: 1 -->
<svg width="191pt" height="106pt"
 viewBox="0.00 0.00 191.00 106.00" xmlns="http://www.w3.org/2000/svg" xmlns:xlink="http://www.w3.org/1999/xlink">
<g id="graph0" class="graph" transform="scale(1 1) rotate(0) translate(4 102)">
<title>EnemyData</title>
<polygon fill="white" stroke="none" points="-4,4 -4,-102 187,-102 187,4 -4,4"/>
<!-- Node1 -->
<g id="node1" class="node"><title>Node1</title>
<polygon fill="#bfbfbf" stroke="black" points="40,-0.5 40,-19.5 108,-19.5 108,-0.5 40,-0.5"/>
<text text-anchor="middle" x="74" y="-7.5" font-family="Helvetica,sans-Serif" font-size="10.00">EnemyData</text>
</g>
<!-- Node2 -->
<g id="node2" class="node"><title>Node2</title>
<polygon fill="white" stroke="#bfbfbf" points="-0.5,-78.5 -0.5,-97.5 34.5,-97.5 34.5,-78.5 -0.5,-78.5"/>
<text text-anchor="middle" x="17" y="-85.5" font-family="Helvetica,sans-Serif" font-size="10.00">float</text>
</g>
<!-- Node2&#45;&gt;Node1 -->
<g id="edge1" class="edge"><title>Node2&#45;&gt;Node1</title>
<path fill="none" stroke="#9a32cd" stroke-dasharray="5,2" d="M21.4368,-68.3581C24.4117,-58.611 29.0773,-46.8928 36,-38 41.8662,-30.4645 50.3981,-24.1392 57.8919,-19.5096"/>
<polygon fill="#9a32cd" stroke="#9a32cd" points="17.9885,-67.7034 18.7662,-78.2697 24.7474,-69.5246 17.9885,-67.7034"/>
<text text-anchor="middle" x="53" y="-52" font-family="Helvetica,sans-Serif" font-size="10.00"> scaleY</text>
<text text-anchor="middle" x="53" y="-41" font-family="Helvetica,sans-Serif" font-size="10.00">scaleX</text>
</g>
<!-- Node3 -->
<g id="node3" class="node"><title>Node3</title>
<polygon fill="white" stroke="#bfbfbf" points="59.5,-78.5 59.5,-97.5 88.5,-97.5 88.5,-78.5 59.5,-78.5"/>
<text text-anchor="middle" x="74" y="-85.5" font-family="Helvetica,sans-Serif" font-size="10.00">int</text>
</g>
<!-- Node3&#45;&gt;Node1 -->
<g id="edge2" class="edge"><title>Node3&#45;&gt;Node1</title>
<path fill="none" stroke="#9a32cd" stroke-dasharray="5,2" d="M74,-68.2239C74,-52.6974 74,-31.3582 74,-19.6165"/>
<polygon fill="#9a32cd" stroke="#9a32cd" points="70.5001,-68.2818 74,-78.2818 77.5001,-68.2819 70.5001,-68.2818"/>
<text text-anchor="middle" x="101.5" y="-46.5" font-family="Helvetica,sans-Serif" font-size="10.00"> enemyType</text>
</g>
<!-- Node4 -->
<g id="node4" class="node"><title>Node4</title>
<polygon fill="white" stroke="#bfbfbf" points="131.5,-78.5 131.5,-97.5 172.5,-97.5 172.5,-78.5 131.5,-78.5"/>
<text text-anchor="middle" x="152" y="-85.5" font-family="Helvetica,sans-Serif" font-size="10.00">string</text>
</g>
<!-- Node4&#45;&gt;Node1 -->
<g id="edge3" class="edge"><title>Node4&#45;&gt;Node1</title>
<path fill="none" stroke="#9a32cd" stroke-dasharray="5,2" d="M147.107,-68.5147C143.679,-58.4819 138.215,-46.4415 130,-38 122.021,-29.8006 111.049,-23.7622 100.93,-19.5011"/>
<polygon fill="#9a32cd" stroke="#9a32cd" points="143.832,-69.7782 150.061,-78.348 150.536,-67.7638 143.832,-69.7782"/>
<text text-anchor="middle" x="163" y="-52" font-family="Helvetica,sans-Serif" font-size="10.00"> spName</text>
<text text-anchor="middle" x="163" y="-41" font-family="Helvetica,sans-Serif" font-size="10.00">name</text>
</g>
</g>
</svg>
