<?xml version="1.0" encoding="UTF-8" standalone="no"?>
<!DOCTYPE svg PUBLIC "-//W3C//DTD SVG 1.1//EN"
 "http://www.w3.org/Graphics/SVG/1.1/DTD/svg11.dtd">
<!-- Generated by graphviz version 2.38.0 (20140413.2041)
 -->
<!-- Title: Engine/include/Text.h Pages: 1 -->
<svg width="724pt" height="308pt"
 viewBox="0.00 0.00 723.50 308.00" xmlns="http://www.w3.org/2000/svg" xmlns:xlink="http://www.w3.org/1999/xlink">
<g id="graph0" class="graph" transform="scale(1 1) rotate(0) translate(4 304)">
<title>Engine/include/Text.h</title>
<polygon fill="white" stroke="none" points="-4,4 -4,-304 719.5,-304 719.5,4 -4,4"/>
<!-- Node1 -->
<g id="node1" class="node"><title>Node1</title>
<polygon fill="#bfbfbf" stroke="black" points="442,-280.5 442,-299.5 553,-299.5 553,-280.5 442,-280.5"/>
<text text-anchor="middle" x="497.5" y="-287.5" font-family="Helvetica,sans-Serif" font-size="10.00">Engine/include/Text.h</text>
</g>
<!-- Node2 -->
<g id="node2" class="node"><title>Node2</title>
<g id="a_node2"><a xlink:href="Rect_8h.html" target="_top" xlink:title="Rect.h">
<polygon fill="white" stroke="black" points="333.5,-56.5 333.5,-75.5 379.5,-75.5 379.5,-56.5 333.5,-56.5"/>
<text text-anchor="middle" x="356.5" y="-63.5" font-family="Helvetica,sans-Serif" font-size="10.00">Rect.h</text>
</a>
</g>
</g>
<!-- Node1&#45;&gt;Node2 -->
<g id="edge1" class="edge"><title>Node1&#45;&gt;Node2</title>
<path fill="none" stroke="midnightblue" d="M491.973,-280.297C471.006,-247.286 396.135,-129.404 367.629,-84.522"/>
<polygon fill="midnightblue" stroke="midnightblue" points="370.458,-82.4486 362.142,-75.8837 364.549,-86.2016 370.458,-82.4486"/>
</g>
<!-- Node5 -->
<g id="node5" class="node"><title>Node5</title>
<g id="a_node5"><a xlink:href="Timer_8h.html" target="_top" xlink:title="Timer.h">
<polygon fill="white" stroke="black" points="563.5,-224.5 563.5,-243.5 613.5,-243.5 613.5,-224.5 563.5,-224.5"/>
<text text-anchor="middle" x="588.5" y="-231.5" font-family="Helvetica,sans-Serif" font-size="10.00">Timer.h</text>
</a>
</g>
</g>
<!-- Node1&#45;&gt;Node5 -->
<g id="edge4" class="edge"><title>Node1&#45;&gt;Node5</title>
<path fill="none" stroke="midnightblue" d="M512.121,-280.324C526.449,-271.822 548.513,-258.729 565.249,-248.797"/>
<polygon fill="midnightblue" stroke="midnightblue" points="567.102,-251.768 573.916,-243.655 563.53,-245.748 567.102,-251.768"/>
</g>
<!-- Node6 -->
<g id="node6" class="node"><title>Node6</title>
<polygon fill="white" stroke="#bfbfbf" points="397.5,-56.5 397.5,-75.5 449.5,-75.5 449.5,-56.5 397.5,-56.5"/>
<text text-anchor="middle" x="423.5" y="-63.5" font-family="Helvetica,sans-Serif" font-size="10.00">memory</text>
</g>
<!-- Node1&#45;&gt;Node6 -->
<g id="edge5" class="edge"><title>Node1&#45;&gt;Node6</title>
<path fill="none" stroke="midnightblue" d="M494.599,-280.297C483.665,-247.494 444.795,-130.884 429.626,-85.3774"/>
<polygon fill="midnightblue" stroke="midnightblue" points="432.944,-84.2638 426.461,-75.8837 426.303,-86.4774 432.944,-84.2638"/>
</g>
<!-- Node7 -->
<g id="node7" class="node"><title>Node7</title>
<polygon fill="white" stroke="#bfbfbf" points="468,-56.5 468,-75.5 509,-75.5 509,-56.5 468,-56.5"/>
<text text-anchor="middle" x="488.5" y="-63.5" font-family="Helvetica,sans-Serif" font-size="10.00">string</text>
</g>
<!-- Node1&#45;&gt;Node7 -->
<g id="edge6" class="edge"><title>Node1&#45;&gt;Node7</title>
<path fill="none" stroke="midnightblue" d="M497.147,-280.297C495.823,-247.633 491.13,-131.866 489.269,-85.9573"/>
<polygon fill="midnightblue" stroke="midnightblue" points="492.762,-85.7337 488.86,-75.8837 485.768,-86.0173 492.762,-85.7337"/>
</g>
<!-- Node8 -->
<g id="node8" class="node"><title>Node8</title>
<g id="a_node8"><a xlink:href="Resources_8h.html" target="_top" xlink:title="Resources.h">
<polygon fill="white" stroke="black" points="525.5,-112.5 525.5,-131.5 597.5,-131.5 597.5,-112.5 525.5,-112.5"/>
<text text-anchor="middle" x="561.5" y="-119.5" font-family="Helvetica,sans-Serif" font-size="10.00">Resources.h</text>
</a>
</g>
</g>
<!-- Node1&#45;&gt;Node8 -->
<g id="edge7" class="edge"><title>Node1&#45;&gt;Node8</title>
<path fill="none" stroke="midnightblue" d="M500.941,-280.075C511.059,-253.832 540.856,-176.545 554.515,-141.117"/>
<polygon fill="midnightblue" stroke="midnightblue" points="557.865,-142.158 558.197,-131.568 551.334,-139.64 557.865,-142.158"/>
</g>
<!-- Node10 -->
<g id="node10" class="node"><title>Node10</title>
<g id="a_node10"><a xlink:href="Game_8h.html" target="_top" xlink:title="Game.h">
<polygon fill="white" stroke="black" points="184,-224.5 184,-243.5 235,-243.5 235,-224.5 184,-224.5"/>
<text text-anchor="middle" x="209.5" y="-231.5" font-family="Helvetica,sans-Serif" font-size="10.00">Game.h</text>
</a>
</g>
</g>
<!-- Node1&#45;&gt;Node10 -->
<g id="edge11" class="edge"><title>Node1&#45;&gt;Node10</title>
<path fill="none" stroke="midnightblue" d="M451.866,-280.444C394.588,-269.704 297.539,-251.507 245.314,-241.715"/>
<polygon fill="midnightblue" stroke="midnightblue" points="245.66,-238.219 235.187,-239.816 244.37,-245.099 245.66,-238.219"/>
</g>
<!-- Node17 -->
<g id="node17" class="node"><title>Node17</title>
<g id="a_node17"><a xlink:href="Error_8h.html" target="_top" xlink:title="Error.h">
<polygon fill="white" stroke="black" points="631.5,-224.5 631.5,-243.5 677.5,-243.5 677.5,-224.5 631.5,-224.5"/>
<text text-anchor="middle" x="654.5" y="-231.5" font-family="Helvetica,sans-Serif" font-size="10.00">Error.h</text>
</a>
</g>
</g>
<!-- Node1&#45;&gt;Node17 -->
<g id="edge27" class="edge"><title>Node1&#45;&gt;Node17</title>
<path fill="none" stroke="midnightblue" d="M522.377,-280.444C549.255,-271.199 592.2,-256.428 621.793,-246.25"/>
<polygon fill="midnightblue" stroke="midnightblue" points="622.957,-249.551 631.275,-242.988 620.68,-242.931 622.957,-249.551"/>
</g>
<!-- Node3 -->
<g id="node3" class="node"><title>Node3</title>
<g id="a_node3"><a xlink:href="Vec2_8h.html" target="_top" xlink:title="Vec2.h">
<polygon fill="white" stroke="black" points="116,-0.5 116,-19.5 163,-19.5 163,-0.5 116,-0.5"/>
<text text-anchor="middle" x="139.5" y="-7.5" font-family="Helvetica,sans-Serif" font-size="10.00">Vec2.h</text>
</a>
</g>
</g>
<!-- Node2&#45;&gt;Node3 -->
<g id="edge2" class="edge"><title>Node2&#45;&gt;Node3</title>
<path fill="none" stroke="midnightblue" d="M333.442,-58.6281C330.11,-57.7316 326.72,-56.8326 323.5,-56 270.97,-42.4159 209.723,-27.65 172.814,-18.868"/>
<polygon fill="midnightblue" stroke="midnightblue" points="173.615,-15.4609 163.077,-16.5556 171.998,-22.2715 173.615,-15.4609"/>
</g>
<!-- Node4 -->
<g id="node4" class="node"><title>Node4</title>
<polygon fill="white" stroke="#bfbfbf" points="334.5,-0.5 334.5,-19.5 378.5,-19.5 378.5,-0.5 334.5,-0.5"/>
<text text-anchor="middle" x="356.5" y="-7.5" font-family="Helvetica,sans-Serif" font-size="10.00">cmath</text>
</g>
<!-- Node2&#45;&gt;Node4 -->
<g id="edge3" class="edge"><title>Node2&#45;&gt;Node4</title>
<path fill="none" stroke="midnightblue" d="M356.5,-56.083C356.5,-49.0059 356.5,-38.8611 356.5,-29.9865"/>
<polygon fill="midnightblue" stroke="midnightblue" points="360,-29.751 356.5,-19.7511 353,-29.7511 360,-29.751"/>
</g>
<!-- Node8&#45;&gt;Node6 -->
<g id="edge10" class="edge"><title>Node8&#45;&gt;Node6</title>
<path fill="none" stroke="midnightblue" d="M539.633,-112.444C516.721,-103.478 480.525,-89.314 454.634,-79.1827"/>
<polygon fill="midnightblue" stroke="midnightblue" points="455.852,-75.9011 445.264,-75.5164 453.301,-82.4198 455.852,-75.9011"/>
</g>
<!-- Node8&#45;&gt;Node7 -->
<g id="edge8" class="edge"><title>Node8&#45;&gt;Node7</title>
<path fill="none" stroke="midnightblue" d="M549.771,-112.324C538.663,-104.107 521.758,-91.6017 508.517,-81.8069"/>
<polygon fill="midnightblue" stroke="midnightblue" points="510.563,-78.9671 500.442,-75.8339 506.4,-84.5948 510.563,-78.9671"/>
</g>
<!-- Node9 -->
<g id="node9" class="node"><title>Node9</title>
<polygon fill="white" stroke="#bfbfbf" points="527,-56.5 527,-75.5 610,-75.5 610,-56.5 527,-56.5"/>
<text text-anchor="middle" x="568.5" y="-63.5" font-family="Helvetica,sans-Serif" font-size="10.00">unordered_map</text>
</g>
<!-- Node8&#45;&gt;Node9 -->
<g id="edge9" class="edge"><title>Node8&#45;&gt;Node9</title>
<path fill="none" stroke="midnightblue" d="M562.656,-112.083C563.584,-104.927 564.918,-94.6353 566.077,-85.6911"/>
<polygon fill="midnightblue" stroke="midnightblue" points="569.551,-86.1181 567.366,-75.7511 562.609,-85.2181 569.551,-86.1181"/>
</g>
<!-- Node10&#45;&gt;Node3 -->
<g id="edge26" class="edge"><title>Node10&#45;&gt;Node3</title>
<path fill="none" stroke="midnightblue" d="M191.233,-224.348C163.011,-209.829 109.837,-177.604 88.5,-132 71.2054,-95.0362 103.037,-50.6004 123.746,-27.2177"/>
<polygon fill="midnightblue" stroke="midnightblue" points="126.556,-29.3332 130.76,-19.6084 121.409,-24.5886 126.556,-29.3332"/>
</g>
<!-- Node10&#45;&gt;Node7 -->
<g id="edge12" class="edge"><title>Node10&#45;&gt;Node7</title>
<path fill="none" stroke="midnightblue" d="M225.225,-224.361C241.423,-215.414 267.355,-200.956 289.5,-188 353.894,-150.326 428.841,-104.102 465.677,-81.2238"/>
<polygon fill="midnightblue" stroke="midnightblue" points="467.96,-83.9253 474.604,-75.6725 464.264,-77.9809 467.96,-83.9253"/>
</g>
<!-- Node11 -->
<g id="node11" class="node"><title>Node11</title>
<polygon fill="white" stroke="#bfbfbf" points="0,-168.5 0,-187.5 41,-187.5 41,-168.5 0,-168.5"/>
<text text-anchor="middle" x="20.5" y="-175.5" font-family="Helvetica,sans-Serif" font-size="10.00">stack</text>
</g>
<!-- Node10&#45;&gt;Node11 -->
<g id="edge13" class="edge"><title>Node10&#45;&gt;Node11</title>
<path fill="none" stroke="midnightblue" d="M183.617,-225.605C148.963,-215.704 87.5997,-198.171 50.8219,-187.663"/>
<polygon fill="midnightblue" stroke="midnightblue" points="51.72,-184.28 41.1433,-184.898 49.7969,-191.011 51.72,-184.28"/>
</g>
<!-- Node12 -->
<g id="node12" class="node"><title>Node12</title>
<g id="a_node12"><a xlink:href="State_8h.html" target="_top" xlink:title="State.h">
<polygon fill="white" stroke="black" points="232.5,-168.5 232.5,-187.5 280.5,-187.5 280.5,-168.5 232.5,-168.5"/>
<text text-anchor="middle" x="256.5" y="-175.5" font-family="Helvetica,sans-Serif" font-size="10.00">State.h</text>
</a>
</g>
</g>
<!-- Node10&#45;&gt;Node12 -->
<g id="edge14" class="edge"><title>Node10&#45;&gt;Node12</title>
<path fill="none" stroke="midnightblue" d="M217.261,-224.083C224.037,-216.298 234.043,-204.801 242.255,-195.367"/>
<polygon fill="midnightblue" stroke="midnightblue" points="244.958,-197.592 248.883,-187.751 239.678,-192.996 244.958,-197.592"/>
</g>
<!-- Node16 -->
<g id="node16" class="node"><title>Node16</title>
<g id="a_node16"><a xlink:href="InputManager_8h.html" target="_top" xlink:title="InputManager.h">
<polygon fill="white" stroke="black" points="97.5,-112.5 97.5,-131.5 181.5,-131.5 181.5,-112.5 97.5,-112.5"/>
<text text-anchor="middle" x="139.5" y="-119.5" font-family="Helvetica,sans-Serif" font-size="10.00">InputManager.h</text>
</a>
</g>
</g>
<!-- Node10&#45;&gt;Node16 -->
<g id="edge24" class="edge"><title>Node10&#45;&gt;Node16</title>
<path fill="none" stroke="midnightblue" d="M204.007,-224.368C192.506,-206.296 165.703,-164.176 150.514,-140.307"/>
<polygon fill="midnightblue" stroke="midnightblue" points="153.289,-138.149 144.967,-131.591 147.383,-141.907 153.289,-138.149"/>
</g>
<!-- Node12&#45;&gt;Node6 -->
<g id="edge23" class="edge"><title>Node12&#45;&gt;Node6</title>
<path fill="none" stroke="midnightblue" d="M269.969,-168.449C284.1,-159.452 306.934,-144.843 326.5,-132 352.688,-114.811 382.603,-94.6896 402.205,-81.4393"/>
<polygon fill="midnightblue" stroke="midnightblue" points="404.365,-84.2031 410.686,-75.6998 400.442,-78.4059 404.365,-84.2031"/>
</g>
<!-- Node13 -->
<g id="node13" class="node"><title>Node13</title>
<g id="a_node13"><a xlink:href="GameObject_8h.html" target="_top" xlink:title="GameObject.h">
<polygon fill="white" stroke="black" points="237.5,-112.5 237.5,-131.5 317.5,-131.5 317.5,-112.5 237.5,-112.5"/>
<text text-anchor="middle" x="277.5" y="-119.5" font-family="Helvetica,sans-Serif" font-size="10.00">GameObject.h</text>
</a>
</g>
</g>
<!-- Node12&#45;&gt;Node13 -->
<g id="edge15" class="edge"><title>Node12&#45;&gt;Node13</title>
<path fill="none" stroke="midnightblue" d="M259.968,-168.083C262.812,-160.77 266.929,-150.181 270.46,-141.103"/>
<polygon fill="midnightblue" stroke="midnightblue" points="273.734,-142.34 274.097,-131.751 267.21,-139.803 273.734,-142.34"/>
</g>
<!-- Node14 -->
<g id="node14" class="node"><title>Node14</title>
<polygon fill="white" stroke="#bfbfbf" points="178.5,-56.5 178.5,-75.5 222.5,-75.5 222.5,-56.5 178.5,-56.5"/>
<text text-anchor="middle" x="200.5" y="-63.5" font-family="Helvetica,sans-Serif" font-size="10.00">vector</text>
</g>
<!-- Node12&#45;&gt;Node14 -->
<g id="edge22" class="edge"><title>Node12&#45;&gt;Node14</title>
<path fill="none" stroke="midnightblue" d="M250.518,-168.266C244.553,-159.363 235.32,-145.047 228.5,-132 220.415,-116.534 212.683,-98.2215 207.4,-84.9816"/>
<polygon fill="midnightblue" stroke="midnightblue" points="210.633,-83.6387 203.729,-75.6024 204.115,-86.1902 210.633,-83.6387"/>
</g>
<!-- Node13&#45;&gt;Node2 -->
<g id="edge18" class="edge"><title>Node13&#45;&gt;Node2</title>
<path fill="none" stroke="midnightblue" d="M290.193,-112.324C302.401,-103.979 321.078,-91.2122 335.503,-81.3524"/>
<polygon fill="midnightblue" stroke="midnightblue" points="337.558,-84.1871 343.839,-75.6545 333.608,-78.4082 337.558,-84.1871"/>
</g>
<!-- Node13&#45;&gt;Node6 -->
<g id="edge17" class="edge"><title>Node13&#45;&gt;Node6</title>
<path fill="none" stroke="midnightblue" d="M300.634,-112.444C324.982,-103.438 363.507,-89.1891 390.923,-79.049"/>
<polygon fill="midnightblue" stroke="midnightblue" points="392.309,-82.2681 400.474,-75.5164 389.881,-75.7028 392.309,-82.2681"/>
</g>
<!-- Node13&#45;&gt;Node7 -->
<g id="edge19" class="edge"><title>Node13&#45;&gt;Node7</title>
<path fill="none" stroke="midnightblue" d="M314.035,-112.459C348.683,-104.238 402.411,-91.1815 458.184,-75.9853"/>
<polygon fill="midnightblue" stroke="midnightblue" points="459.162,-79.3464 467.881,-73.327 457.311,-72.5955 459.162,-79.3464"/>
</g>
<!-- Node13&#45;&gt;Node14 -->
<g id="edge16" class="edge"><title>Node13&#45;&gt;Node14</title>
<path fill="none" stroke="midnightblue" d="M265.129,-112.324C253.342,-104.058 235.368,-91.4527 221.364,-81.6322"/>
<polygon fill="midnightblue" stroke="midnightblue" points="223.038,-78.5307 212.841,-75.6545 219.018,-84.2619 223.038,-78.5307"/>
</g>
<!-- Node15 -->
<g id="node15" class="node"><title>Node15</title>
<g id="a_node15"><a xlink:href="Component_8h.html" target="_top" xlink:title="Component.h">
<polygon fill="white" stroke="black" points="240,-56.5 240,-75.5 315,-75.5 315,-56.5 240,-56.5"/>
<text text-anchor="middle" x="277.5" y="-63.5" font-family="Helvetica,sans-Serif" font-size="10.00">Component.h</text>
</a>
</g>
</g>
<!-- Node13&#45;&gt;Node15 -->
<g id="edge20" class="edge"><title>Node13&#45;&gt;Node15</title>
<path fill="none" stroke="midnightblue" d="M272.334,-112.083C270.824,-104.927 270.394,-94.6353 271.042,-85.6911"/>
<polygon fill="midnightblue" stroke="midnightblue" points="274.515,-86.1262 272.369,-75.7511 267.577,-85.2002 274.515,-86.1262"/>
</g>
<!-- Node15&#45;&gt;Node13 -->
<g id="edge21" class="edge"><title>Node15&#45;&gt;Node13</title>
<path fill="none" stroke="midnightblue" d="M282.631,-75.7511C284.157,-82.8579 284.604,-93.1357 283.972,-102.101"/>
<polygon fill="midnightblue" stroke="midnightblue" points="280.493,-101.713 282.666,-112.083 287.434,-102.622 280.493,-101.713"/>
</g>
<!-- Node16&#45;&gt;Node3 -->
<g id="edge25" class="edge"><title>Node16&#45;&gt;Node3</title>
<path fill="none" stroke="midnightblue" d="M139.5,-112.368C139.5,-94.617 139.5,-53.6664 139.5,-29.5974"/>
<polygon fill="midnightblue" stroke="midnightblue" points="143,-29.5914 139.5,-19.5914 136,-29.5915 143,-29.5914"/>
</g>
<!-- Node18 -->
<g id="node18" class="node"><title>Node18</title>
<polygon fill="white" stroke="#bfbfbf" points="595.5,-168.5 595.5,-187.5 649.5,-187.5 649.5,-168.5 595.5,-168.5"/>
<text text-anchor="middle" x="622.5" y="-175.5" font-family="Helvetica,sans-Serif" font-size="10.00">iostream</text>
</g>
<!-- Node17&#45;&gt;Node18 -->
<g id="edge28" class="edge"><title>Node17&#45;&gt;Node18</title>
<path fill="none" stroke="midnightblue" d="M649.216,-224.083C644.789,-216.613 638.337,-205.724 632.882,-196.52"/>
<polygon fill="midnightblue" stroke="midnightblue" points="635.795,-194.57 627.686,-187.751 629.773,-198.138 635.795,-194.57"/>
</g>
<!-- Node19 -->
<g id="node19" class="node"><title>Node19</title>
<polygon fill="white" stroke="#bfbfbf" points="667.5,-168.5 667.5,-187.5 715.5,-187.5 715.5,-168.5 667.5,-168.5"/>
<text text-anchor="middle" x="691.5" y="-175.5" font-family="Helvetica,sans-Serif" font-size="10.00">stdlib.h</text>
</g>
<!-- Node17&#45;&gt;Node19 -->
<g id="edge29" class="edge"><title>Node17&#45;&gt;Node19</title>
<path fill="none" stroke="midnightblue" d="M660.61,-224.083C665.782,-216.534 673.346,-205.495 679.694,-196.23"/>
<polygon fill="midnightblue" stroke="midnightblue" points="682.739,-197.979 685.504,-187.751 676.964,-194.022 682.739,-197.979"/>
</g>
</g>
</svg>
