<?xml version="1.0" encoding="UTF-8" standalone="no"?>
<!DOCTYPE svg PUBLIC "-//W3C//DTD SVG 1.1//EN"
 "http://www.w3.org/Graphics/SVG/1.1/DTD/svg11.dtd">
<!-- Generated by graphviz version 2.38.0 (20140413.2041)
 -->
<!-- Title: Engine/src/Text.cpp Pages: 1 -->
<svg width="1016pt" height="420pt"
 viewBox="0.00 0.00 1015.50 420.00" xmlns="http://www.w3.org/2000/svg" xmlns:xlink="http://www.w3.org/1999/xlink">
<g id="graph0" class="graph" transform="scale(1 1) rotate(0) translate(4 416)">
<title>Engine/src/Text.cpp</title>
<polygon fill="white" stroke="none" points="-4,4 -4,-416 1011.5,-416 1011.5,4 -4,4"/>
<!-- Node1 -->
<g id="node1" class="node"><title>Node1</title>
<polygon fill="#bfbfbf" stroke="black" points="699.5,-392.5 699.5,-411.5 803.5,-411.5 803.5,-392.5 699.5,-392.5"/>
<text text-anchor="middle" x="751.5" y="-399.5" font-family="Helvetica,sans-Serif" font-size="10.00">Engine/src/Text.cpp</text>
</g>
<!-- Node2 -->
<g id="node2" class="node"><title>Node2</title>
<g id="a_node2"><a xlink:href="Text_8h.html" target="_top" xlink:title="Text.h">
<polygon fill="white" stroke="black" points="729.5,-336.5 729.5,-355.5 773.5,-355.5 773.5,-336.5 729.5,-336.5"/>
<text text-anchor="middle" x="751.5" y="-343.5" font-family="Helvetica,sans-Serif" font-size="10.00">Text.h</text>
</a>
</g>
</g>
<!-- Node1&#45;&gt;Node2 -->
<g id="edge1" class="edge"><title>Node1&#45;&gt;Node2</title>
<path fill="none" stroke="midnightblue" d="M751.5,-392.083C751.5,-385.006 751.5,-374.861 751.5,-365.986"/>
<polygon fill="midnightblue" stroke="midnightblue" points="755,-365.751 751.5,-355.751 748,-365.751 755,-365.751"/>
</g>
<!-- Node3 -->
<g id="node3" class="node"><title>Node3</title>
<g id="a_node3"><a xlink:href="SDL__include_8h.html" target="_top" xlink:title="SDL_include.h">
<polygon fill="white" stroke="black" points="376.5,-0.5 376.5,-19.5 456.5,-19.5 456.5,-0.5 376.5,-0.5"/>
<text text-anchor="middle" x="416.5" y="-7.5" font-family="Helvetica,sans-Serif" font-size="10.00">SDL_include.h</text>
</a>
</g>
</g>
<!-- Node2&#45;&gt;Node3 -->
<g id="edge2" class="edge"><title>Node2&#45;&gt;Node3</title>
<path fill="none" stroke="midnightblue" d="M763.043,-336.433C784.304,-319.571 827.5,-279.799 827.5,-235 827.5,-235 827.5,-235 827.5,-121 827.5,-47.1171 576.528,-21.5332 466.82,-13.879"/>
<polygon fill="midnightblue" stroke="midnightblue" points="466.87,-10.3745 456.657,-13.1933 466.398,-17.3587 466.87,-10.3745"/>
</g>
<!-- Node4 -->
<g id="node4" class="node"><title>Node4</title>
<g id="a_node4"><a xlink:href="Rect_8h.html" target="_top" xlink:title="Rect.h">
<polygon fill="white" stroke="black" points="76.5,-112.5 76.5,-131.5 122.5,-131.5 122.5,-112.5 76.5,-112.5"/>
<text text-anchor="middle" x="99.5" y="-119.5" font-family="Helvetica,sans-Serif" font-size="10.00">Rect.h</text>
</a>
</g>
</g>
<!-- Node2&#45;&gt;Node4 -->
<g id="edge3" class="edge"><title>Node2&#45;&gt;Node4</title>
<path fill="none" stroke="midnightblue" d="M729.239,-343.276C680.616,-339.126 561.587,-326.871 465.5,-300 339.199,-264.679 307.614,-250.836 192.5,-188 165.308,-173.157 136.428,-152.021 118.196,-137.924"/>
<polygon fill="midnightblue" stroke="midnightblue" points="120.187,-135.038 110.155,-131.629 115.871,-140.549 120.187,-135.038"/>
</g>
<!-- Node7 -->
<g id="node7" class="node"><title>Node7</title>
<g id="a_node7"><a xlink:href="Timer_8h.html" target="_top" xlink:title="Timer.h">
<polygon fill="white" stroke="black" points="855.5,-280.5 855.5,-299.5 905.5,-299.5 905.5,-280.5 855.5,-280.5"/>
<text text-anchor="middle" x="880.5" y="-287.5" font-family="Helvetica,sans-Serif" font-size="10.00">Timer.h</text>
</a>
</g>
</g>
<!-- Node2&#45;&gt;Node7 -->
<g id="edge8" class="edge"><title>Node2&#45;&gt;Node7</title>
<path fill="none" stroke="midnightblue" d="M771.94,-336.444C793.17,-327.557 826.599,-313.563 850.755,-303.451"/>
<polygon fill="midnightblue" stroke="midnightblue" points="852.282,-306.606 860.155,-299.516 849.579,-300.149 852.282,-306.606"/>
</g>
<!-- Node8 -->
<g id="node8" class="node"><title>Node8</title>
<polygon fill="white" stroke="#bfbfbf" points="576.5,-112.5 576.5,-131.5 628.5,-131.5 628.5,-112.5 576.5,-112.5"/>
<text text-anchor="middle" x="602.5" y="-119.5" font-family="Helvetica,sans-Serif" font-size="10.00">memory</text>
</g>
<!-- Node2&#45;&gt;Node8 -->
<g id="edge9" class="edge"><title>Node2&#45;&gt;Node8</title>
<path fill="none" stroke="midnightblue" d="M737.902,-336.472C706.269,-315.72 628.253,-259.037 599.5,-188 593.54,-173.275 595.033,-155.113 597.589,-141.734"/>
<polygon fill="midnightblue" stroke="midnightblue" points="601.043,-142.328 599.847,-131.801 594.218,-140.777 601.043,-142.328"/>
</g>
<!-- Node9 -->
<g id="node9" class="node"><title>Node9</title>
<polygon fill="white" stroke="#bfbfbf" points="685,-112.5 685,-131.5 726,-131.5 726,-112.5 685,-112.5"/>
<text text-anchor="middle" x="705.5" y="-119.5" font-family="Helvetica,sans-Serif" font-size="10.00">string</text>
</g>
<!-- Node2&#45;&gt;Node9 -->
<g id="edge10" class="edge"><title>Node2&#45;&gt;Node9</title>
<path fill="none" stroke="midnightblue" d="M749.697,-336.297C742.928,-303.633 718.941,-187.866 709.428,-141.957"/>
<polygon fill="midnightblue" stroke="midnightblue" points="712.797,-140.966 707.341,-131.884 705.943,-142.386 712.797,-140.966"/>
</g>
<!-- Node10 -->
<g id="node10" class="node"><title>Node10</title>
<g id="a_node10"><a xlink:href="Resources_8h.html" target="_top" xlink:title="Resources.h">
<polygon fill="white" stroke="black" points="608.5,-168.5 608.5,-187.5 680.5,-187.5 680.5,-168.5 608.5,-168.5"/>
<text text-anchor="middle" x="644.5" y="-175.5" font-family="Helvetica,sans-Serif" font-size="10.00">Resources.h</text>
</a>
</g>
</g>
<!-- Node2&#45;&gt;Node10 -->
<g id="edge11" class="edge"><title>Node2&#45;&gt;Node10</title>
<path fill="none" stroke="midnightblue" d="M745.747,-336.075C728.686,-309.606 678.153,-231.209 655.593,-196.21"/>
<polygon fill="midnightblue" stroke="midnightblue" points="658.382,-194.077 650.023,-187.568 652.499,-197.87 658.382,-194.077"/>
</g>
<!-- Node12 -->
<g id="node12" class="node"><title>Node12</title>
<g id="a_node12"><a xlink:href="Game_8h.html" target="_top" xlink:title="Game.h">
<polygon fill="white" stroke="black" points="475,-280.5 475,-299.5 526,-299.5 526,-280.5 475,-280.5"/>
<text text-anchor="middle" x="500.5" y="-287.5" font-family="Helvetica,sans-Serif" font-size="10.00">Game.h</text>
</a>
</g>
</g>
<!-- Node2&#45;&gt;Node12 -->
<g id="edge16" class="edge"><title>Node2&#45;&gt;Node12</title>
<path fill="none" stroke="midnightblue" d="M729.225,-340.208C685.583,-330.819 588.506,-309.933 535.947,-298.626"/>
<polygon fill="midnightblue" stroke="midnightblue" points="536.57,-295.18 526.058,-296.498 535.098,-302.024 536.57,-295.18"/>
</g>
<!-- Node21 -->
<g id="node21" class="node"><title>Node21</title>
<g id="a_node21"><a xlink:href="Error_8h.html" target="_top" xlink:title="Error.h">
<polygon fill="white" stroke="black" points="923.5,-280.5 923.5,-299.5 969.5,-299.5 969.5,-280.5 923.5,-280.5"/>
<text text-anchor="middle" x="946.5" y="-287.5" font-family="Helvetica,sans-Serif" font-size="10.00">Error.h</text>
</a>
</g>
</g>
<!-- Node2&#45;&gt;Node21 -->
<g id="edge41" class="edge"><title>Node2&#45;&gt;Node21</title>
<path fill="none" stroke="midnightblue" d="M773.656,-338.92C803.306,-330.775 857.777,-315.784 913.713,-300.21"/>
<polygon fill="midnightblue" stroke="midnightblue" points="914.738,-303.558 923.432,-297.502 912.859,-296.815 914.738,-303.558"/>
</g>
<!-- Node4&#45;&gt;Node3 -->
<g id="edge4" class="edge"><title>Node4&#45;&gt;Node3</title>
<path fill="none" stroke="midnightblue" d="M105.137,-112.151C114.788,-97.8044 135.932,-69.6985 161.5,-56 226.326,-21.269 312.434,-12.5502 366.15,-10.7812"/>
<polygon fill="midnightblue" stroke="midnightblue" points="366.54,-14.2723 376.446,-10.5144 366.359,-7.27468 366.54,-14.2723"/>
</g>
<!-- Node5 -->
<g id="node5" class="node"><title>Node5</title>
<g id="a_node5"><a xlink:href="Vec2_8h.html" target="_top" xlink:title="Vec2.h">
<polygon fill="white" stroke="black" points="0,-56.5 0,-75.5 47,-75.5 47,-56.5 0,-56.5"/>
<text text-anchor="middle" x="23.5" y="-63.5" font-family="Helvetica,sans-Serif" font-size="10.00">Vec2.h</text>
</a>
</g>
</g>
<!-- Node4&#45;&gt;Node5 -->
<g id="edge5" class="edge"><title>Node4&#45;&gt;Node5</title>
<path fill="none" stroke="midnightblue" d="M87.2893,-112.324C75.7241,-104.107 58.1246,-91.6017 44.3393,-81.8069"/>
<polygon fill="midnightblue" stroke="midnightblue" points="46.112,-78.7729 35.9329,-75.8339 42.0575,-84.4791 46.112,-78.7729"/>
</g>
<!-- Node6 -->
<g id="node6" class="node"><title>Node6</title>
<polygon fill="white" stroke="#bfbfbf" points="65.5,-56.5 65.5,-75.5 109.5,-75.5 109.5,-56.5 65.5,-56.5"/>
<text text-anchor="middle" x="87.5" y="-63.5" font-family="Helvetica,sans-Serif" font-size="10.00">cmath</text>
</g>
<!-- Node4&#45;&gt;Node6 -->
<g id="edge7" class="edge"><title>Node4&#45;&gt;Node6</title>
<path fill="none" stroke="midnightblue" d="M97.5184,-112.083C95.9283,-104.927 93.6412,-94.6353 91.6536,-85.6911"/>
<polygon fill="midnightblue" stroke="midnightblue" points="95.0307,-84.7537 89.4447,-75.7511 88.1974,-86.2722 95.0307,-84.7537"/>
</g>
<!-- Node5&#45;&gt;Node3 -->
<g id="edge6" class="edge"><title>Node5&#45;&gt;Node3</title>
<path fill="none" stroke="midnightblue" d="M47.1976,-58.1048C50.3105,-57.3264 53.4707,-56.5993 56.5,-56 165.816,-34.3746 295.974,-21.1472 365.958,-15.0387"/>
<polygon fill="midnightblue" stroke="midnightblue" points="366.586,-18.4977 376.249,-14.154 365.986,-11.5234 366.586,-18.4977"/>
</g>
<!-- Node10&#45;&gt;Node3 -->
<g id="edge12" class="edge"><title>Node10&#45;&gt;Node3</title>
<path fill="none" stroke="midnightblue" d="M645.379,-168.488C646.333,-155.557 646.659,-130.515 637.5,-112 621.47,-79.5948 609.962,-73.8109 578.5,-56 543.739,-36.3213 499.851,-24.8227 466.526,-18.3819"/>
<polygon fill="midnightblue" stroke="midnightblue" points="467.014,-14.9128 456.545,-16.5419 465.745,-21.7968 467.014,-14.9128"/>
</g>
<!-- Node10&#45;&gt;Node8 -->
<g id="edge15" class="edge"><title>Node10&#45;&gt;Node8</title>
<path fill="none" stroke="midnightblue" d="M637.565,-168.083C631.571,-160.377 622.748,-149.033 615.452,-139.653"/>
<polygon fill="midnightblue" stroke="midnightblue" points="618.209,-137.496 609.306,-131.751 612.683,-141.793 618.209,-137.496"/>
</g>
<!-- Node10&#45;&gt;Node9 -->
<g id="edge13" class="edge"><title>Node10&#45;&gt;Node9</title>
<path fill="none" stroke="midnightblue" d="M654.301,-168.324C663.318,-160.341 676.906,-148.313 687.818,-138.653"/>
<polygon fill="midnightblue" stroke="midnightblue" points="690.353,-141.083 695.521,-131.834 685.713,-135.842 690.353,-141.083"/>
</g>
<!-- Node11 -->
<g id="node11" class="node"><title>Node11</title>
<polygon fill="white" stroke="#bfbfbf" points="243,-112.5 243,-131.5 326,-131.5 326,-112.5 243,-112.5"/>
<text text-anchor="middle" x="284.5" y="-119.5" font-family="Helvetica,sans-Serif" font-size="10.00">unordered_map</text>
</g>
<!-- Node10&#45;&gt;Node11 -->
<g id="edge14" class="edge"><title>Node10&#45;&gt;Node11</title>
<path fill="none" stroke="midnightblue" d="M608.292,-172.086C552.331,-164.414 441.208,-148.868 336.357,-132.096"/>
<polygon fill="midnightblue" stroke="midnightblue" points="336.66,-128.6 326.231,-130.47 335.549,-135.512 336.66,-128.6"/>
</g>
<!-- Node12&#45;&gt;Node3 -->
<g id="edge40" class="edge"><title>Node12&#45;&gt;Node3</title>
<path fill="none" stroke="midnightblue" d="M526.062,-285.273C557.374,-279.864 611.214,-267.772 651.5,-244 711.184,-208.782 772.177,-170.164 734.5,-112 705.016,-66.4841 548.543,-33.5186 466.617,-19.0938"/>
<polygon fill="midnightblue" stroke="midnightblue" points="466.981,-15.6048 456.53,-17.3452 465.785,-22.5019 466.981,-15.6048"/>
</g>
<!-- Node12&#45;&gt;Node5 -->
<g id="edge39" class="edge"><title>Node12&#45;&gt;Node5</title>
<path fill="none" stroke="midnightblue" d="M474.749,-288.029C397.648,-283.697 166.452,-260.11 44.5,-132 32.6285,-119.529 27.468,-100.297 25.2248,-85.9834"/>
<polygon fill="midnightblue" stroke="midnightblue" points="28.6655,-85.284 23.9788,-75.7821 21.7171,-86.1327 28.6655,-85.284"/>
</g>
<!-- Node12&#45;&gt;Node9 -->
<g id="edge17" class="edge"><title>Node12&#45;&gt;Node9</title>
<path fill="none" stroke="midnightblue" d="M526.303,-282.543C567.37,-270.889 647.264,-242.344 689.5,-188 699.752,-174.809 703.535,-155.937 704.882,-141.924"/>
<polygon fill="midnightblue" stroke="midnightblue" points="708.401,-141.724 705.529,-131.526 701.415,-141.289 708.401,-141.724"/>
</g>
<!-- Node13 -->
<g id="node13" class="node"><title>Node13</title>
<polygon fill="white" stroke="#bfbfbf" points="379,-224.5 379,-243.5 420,-243.5 420,-224.5 379,-224.5"/>
<text text-anchor="middle" x="399.5" y="-231.5" font-family="Helvetica,sans-Serif" font-size="10.00">stack</text>
</g>
<!-- Node12&#45;&gt;Node13 -->
<g id="edge18" class="edge"><title>Node12&#45;&gt;Node13</title>
<path fill="none" stroke="midnightblue" d="M484.273,-280.324C468.149,-271.703 443.2,-258.364 424.536,-248.386"/>
<polygon fill="midnightblue" stroke="midnightblue" points="426.156,-245.283 415.687,-243.655 422.856,-251.456 426.156,-245.283"/>
</g>
<!-- Node14 -->
<g id="node14" class="node"><title>Node14</title>
<g id="a_node14"><a xlink:href="State_8h.html" target="_top" xlink:title="State.h">
<polygon fill="white" stroke="black" points="476.5,-224.5 476.5,-243.5 524.5,-243.5 524.5,-224.5 476.5,-224.5"/>
<text text-anchor="middle" x="500.5" y="-231.5" font-family="Helvetica,sans-Serif" font-size="10.00">State.h</text>
</a>
</g>
</g>
<!-- Node12&#45;&gt;Node14 -->
<g id="edge19" class="edge"><title>Node12&#45;&gt;Node14</title>
<path fill="none" stroke="midnightblue" d="M500.5,-280.083C500.5,-273.006 500.5,-262.861 500.5,-253.986"/>
<polygon fill="midnightblue" stroke="midnightblue" points="504,-253.751 500.5,-243.751 497,-253.751 504,-253.751"/>
</g>
<!-- Node16 -->
<g id="node16" class="node"><title>Node16</title>
<g id="a_node16"><a xlink:href="InputManager_8h.html" target="_top" xlink:title="InputManager.h">
<polygon fill="white" stroke="black" points="201.5,-168.5 201.5,-187.5 285.5,-187.5 285.5,-168.5 201.5,-168.5"/>
<text text-anchor="middle" x="243.5" y="-175.5" font-family="Helvetica,sans-Serif" font-size="10.00">InputManager.h</text>
</a>
</g>
</g>
<!-- Node12&#45;&gt;Node16 -->
<g id="edge38" class="edge"><title>Node12&#45;&gt;Node16</title>
<path fill="none" stroke="midnightblue" d="M493.505,-280.363C481.651,-266.321 456.189,-238.644 428.5,-224 386.791,-201.941 334.076,-190.491 295.598,-184.677"/>
<polygon fill="midnightblue" stroke="midnightblue" points="296.037,-181.204 285.641,-183.25 295.044,-188.134 296.037,-181.204"/>
</g>
<!-- Node14&#45;&gt;Node8 -->
<g id="edge21" class="edge"><title>Node14&#45;&gt;Node8</title>
<path fill="none" stroke="midnightblue" d="M508.504,-224.368C525.56,-205.974 565.714,-162.671 587.616,-139.052"/>
<polygon fill="midnightblue" stroke="midnightblue" points="590.3,-141.304 594.533,-131.591 585.168,-136.544 590.3,-141.304"/>
</g>
<!-- Node14&#45;&gt;Node10 -->
<g id="edge27" class="edge"><title>Node14&#45;&gt;Node10</title>
<path fill="none" stroke="midnightblue" d="M523.317,-224.444C547.332,-215.438 585.329,-201.189 612.369,-191.049"/>
<polygon fill="midnightblue" stroke="midnightblue" points="613.655,-194.305 621.79,-187.516 611.197,-187.751 613.655,-194.305"/>
</g>
<!-- Node15 -->
<g id="node15" class="node"><title>Node15</title>
<polygon fill="white" stroke="#bfbfbf" points="344.5,-112.5 344.5,-131.5 388.5,-131.5 388.5,-112.5 344.5,-112.5"/>
<text text-anchor="middle" x="366.5" y="-119.5" font-family="Helvetica,sans-Serif" font-size="10.00">vector</text>
</g>
<!-- Node14&#45;&gt;Node15 -->
<g id="edge20" class="edge"><title>Node14&#45;&gt;Node15</title>
<path fill="none" stroke="midnightblue" d="M483.186,-224.485C467.352,-216.276 443.696,-202.929 425.5,-188 407.91,-173.568 390.77,-153.862 379.538,-139.942"/>
<polygon fill="midnightblue" stroke="midnightblue" points="382.008,-137.423 373.064,-131.744 376.514,-141.761 382.008,-137.423"/>
</g>
<!-- Node14&#45;&gt;Node16 -->
<g id="edge22" class="edge"><title>Node14&#45;&gt;Node16</title>
<path fill="none" stroke="midnightblue" d="M476.402,-227.178C471.793,-226.097 467.001,-224.995 462.5,-224 405.539,-211.405 339.978,-198.089 295.547,-189.239"/>
<polygon fill="midnightblue" stroke="midnightblue" points="296.054,-185.772 285.563,-187.255 294.689,-192.637 296.054,-185.772"/>
</g>
<!-- Node18 -->
<g id="node18" class="node"><title>Node18</title>
<g id="a_node18"><a xlink:href="GameObject_8h.html" target="_top" xlink:title="GameObject.h">
<polygon fill="white" stroke="black" points="434.5,-168.5 434.5,-187.5 514.5,-187.5 514.5,-168.5 434.5,-168.5"/>
<text text-anchor="middle" x="474.5" y="-175.5" font-family="Helvetica,sans-Serif" font-size="10.00">GameObject.h</text>
</a>
</g>
</g>
<!-- Node14&#45;&gt;Node18 -->
<g id="edge28" class="edge"><title>Node14&#45;&gt;Node18</title>
<path fill="none" stroke="midnightblue" d="M496.207,-224.083C492.648,-216.691 487.478,-205.953 483.076,-196.811"/>
<polygon fill="midnightblue" stroke="midnightblue" points="486.205,-195.243 478.713,-187.751 479.898,-198.279 486.205,-195.243"/>
</g>
<!-- Node16&#45;&gt;Node3 -->
<g id="edge23" class="edge"><title>Node16&#45;&gt;Node3</title>
<path fill="none" stroke="midnightblue" d="M219.531,-168.485C192.145,-157.366 153.105,-136.417 169.5,-112 213.354,-46.6893 307.703,-23.5832 366.266,-15.4275"/>
<polygon fill="midnightblue" stroke="midnightblue" points="366.941,-18.8694 376.409,-14.1143 366.042,-11.9273 366.941,-18.8694"/>
</g>
<!-- Node16&#45;&gt;Node5 -->
<g id="edge24" class="edge"><title>Node16&#45;&gt;Node5</title>
<path fill="none" stroke="midnightblue" d="M201.233,-174.609C163.208,-170.621 107.354,-160.035 67.5,-132 50.656,-120.151 38.3654,-99.6401 31.1223,-84.8229"/>
<polygon fill="midnightblue" stroke="midnightblue" points="34.2673,-83.2845 26.9202,-75.651 27.9034,-86.2001 34.2673,-83.2845"/>
</g>
<!-- Node16&#45;&gt;Node11 -->
<g id="edge25" class="edge"><title>Node16&#45;&gt;Node11</title>
<path fill="none" stroke="midnightblue" d="M250.27,-168.083C256.062,-160.455 264.558,-149.264 271.638,-139.941"/>
<polygon fill="midnightblue" stroke="midnightblue" points="274.596,-141.832 277.856,-131.751 269.021,-137.599 274.596,-141.832"/>
</g>
<!-- Node17 -->
<g id="node17" class="node"><title>Node17</title>
<polygon fill="white" stroke="#bfbfbf" points="178.5,-112.5 178.5,-131.5 224.5,-131.5 224.5,-112.5 178.5,-112.5"/>
<text text-anchor="middle" x="201.5" y="-119.5" font-family="Helvetica,sans-Serif" font-size="10.00">cstdint</text>
</g>
<!-- Node16&#45;&gt;Node17 -->
<g id="edge26" class="edge"><title>Node16&#45;&gt;Node17</title>
<path fill="none" stroke="midnightblue" d="M236.565,-168.083C230.571,-160.377 221.748,-149.033 214.452,-139.653"/>
<polygon fill="midnightblue" stroke="midnightblue" points="217.209,-137.496 208.306,-131.751 211.683,-141.793 217.209,-137.496"/>
</g>
<!-- Node18&#45;&gt;Node3 -->
<g id="edge29" class="edge"><title>Node18&#45;&gt;Node3</title>
<path fill="none" stroke="midnightblue" d="M464.407,-168.46C455.291,-160.137 442.295,-146.626 435.5,-132 419.876,-98.3708 416.722,-54.4116 416.298,-29.8"/>
<polygon fill="midnightblue" stroke="midnightblue" points="419.798,-29.6684 416.264,-19.6804 412.798,-29.6922 419.798,-29.6684"/>
</g>
<!-- Node18&#45;&gt;Node4 -->
<g id="edge37" class="edge"><title>Node18&#45;&gt;Node4</title>
<path fill="none" stroke="midnightblue" d="M434.368,-171.221C359.938,-160.503 201.812,-137.733 132.838,-127.801"/>
<polygon fill="midnightblue" stroke="midnightblue" points="132.957,-124.282 122.56,-126.321 131.959,-131.21 132.957,-124.282"/>
</g>
<!-- Node18&#45;&gt;Node8 -->
<g id="edge31" class="edge"><title>Node18&#45;&gt;Node8</title>
<path fill="none" stroke="midnightblue" d="M494.782,-168.444C515.847,-159.557 549.017,-145.563 572.986,-135.451"/>
<polygon fill="midnightblue" stroke="midnightblue" points="574.46,-138.628 582.313,-131.516 571.739,-132.179 574.46,-138.628"/>
</g>
<!-- Node18&#45;&gt;Node9 -->
<g id="edge32" class="edge"><title>Node18&#45;&gt;Node9</title>
<path fill="none" stroke="midnightblue" d="M511.103,-168.444C556.372,-157.861 632.617,-140.038 674.915,-130.15"/>
<polygon fill="midnightblue" stroke="midnightblue" points="675.956,-133.501 684.897,-127.816 674.363,-126.684 675.956,-133.501"/>
</g>
<!-- Node18&#45;&gt;Node15 -->
<g id="edge30" class="edge"><title>Node18&#45;&gt;Node15</title>
<path fill="none" stroke="midnightblue" d="M457.148,-168.324C439.828,-159.664 412.985,-146.242 392.998,-136.249"/>
<polygon fill="midnightblue" stroke="midnightblue" points="394.319,-132.996 383.809,-131.655 391.188,-139.257 394.319,-132.996"/>
</g>
<!-- Node19 -->
<g id="node19" class="node"><title>Node19</title>
<g id="a_node19"><a xlink:href="Component_8h.html" target="_top" xlink:title="Component.h">
<polygon fill="white" stroke="black" points="445,-112.5 445,-131.5 520,-131.5 520,-112.5 445,-112.5"/>
<text text-anchor="middle" x="482.5" y="-119.5" font-family="Helvetica,sans-Serif" font-size="10.00">Component.h</text>
</a>
</g>
</g>
<!-- Node18&#45;&gt;Node19 -->
<g id="edge33" class="edge"><title>Node18&#45;&gt;Node19</title>
<path fill="none" stroke="midnightblue" d="M470.655,-168.083C470.2,-160.849 471.324,-150.409 473.339,-141.397"/>
<polygon fill="midnightblue" stroke="midnightblue" points="476.713,-142.327 476.073,-131.751 469.978,-140.418 476.713,-142.327"/>
</g>
<!-- Node20 -->
<g id="node20" class="node"><title>Node20</title>
<g id="a_node20"><a xlink:href="ComponentType_8h.html" target="_top" xlink:title="ComponentType.h">
<polygon fill="white" stroke="black" points="473,-56.5 473,-75.5 570,-75.5 570,-56.5 473,-56.5"/>
<text text-anchor="middle" x="521.5" y="-63.5" font-family="Helvetica,sans-Serif" font-size="10.00">ComponentType.h</text>
</a>
</g>
</g>
<!-- Node18&#45;&gt;Node20 -->
<g id="edge36" class="edge"><title>Node18&#45;&gt;Node20</title>
<path fill="none" stroke="midnightblue" d="M491.133,-168.464C503.988,-160.841 520.839,-148.356 528.5,-132 535.338,-117.401 532.433,-98.9938 528.492,-85.4974"/>
<polygon fill="midnightblue" stroke="midnightblue" points="531.77,-84.2638 525.276,-75.893 525.133,-86.4869 531.77,-84.2638"/>
</g>
<!-- Node19&#45;&gt;Node18 -->
<g id="edge35" class="edge"><title>Node19&#45;&gt;Node18</title>
<path fill="none" stroke="midnightblue" d="M486.335,-131.751C486.813,-138.936 485.709,-149.362 483.707,-158.396"/>
<polygon fill="midnightblue" stroke="midnightblue" points="480.321,-157.509 480.987,-168.083 487.06,-159.401 480.321,-157.509"/>
</g>
<!-- Node19&#45;&gt;Node20 -->
<g id="edge34" class="edge"><title>Node19&#45;&gt;Node20</title>
<path fill="none" stroke="midnightblue" d="M488.94,-112.083C494.449,-104.455 502.531,-93.2645 509.265,-83.9408"/>
<polygon fill="midnightblue" stroke="midnightblue" points="512.162,-85.9071 515.18,-75.7511 506.487,-81.8087 512.162,-85.9071"/>
</g>
<!-- Node22 -->
<g id="node22" class="node"><title>Node22</title>
<polygon fill="white" stroke="#bfbfbf" points="887.5,-224.5 887.5,-243.5 941.5,-243.5 941.5,-224.5 887.5,-224.5"/>
<text text-anchor="middle" x="914.5" y="-231.5" font-family="Helvetica,sans-Serif" font-size="10.00">iostream</text>
</g>
<!-- Node21&#45;&gt;Node22 -->
<g id="edge42" class="edge"><title>Node21&#45;&gt;Node22</title>
<path fill="none" stroke="midnightblue" d="M941.216,-280.083C936.789,-272.613 930.337,-261.724 924.882,-252.52"/>
<polygon fill="midnightblue" stroke="midnightblue" points="927.795,-250.57 919.686,-243.751 921.773,-254.138 927.795,-250.57"/>
</g>
<!-- Node23 -->
<g id="node23" class="node"><title>Node23</title>
<polygon fill="white" stroke="#bfbfbf" points="959.5,-224.5 959.5,-243.5 1007.5,-243.5 1007.5,-224.5 959.5,-224.5"/>
<text text-anchor="middle" x="983.5" y="-231.5" font-family="Helvetica,sans-Serif" font-size="10.00">stdlib.h</text>
</g>
<!-- Node21&#45;&gt;Node23 -->
<g id="edge43" class="edge"><title>Node21&#45;&gt;Node23</title>
<path fill="none" stroke="midnightblue" d="M952.61,-280.083C957.782,-272.534 965.346,-261.495 971.694,-252.23"/>
<polygon fill="midnightblue" stroke="midnightblue" points="974.739,-253.979 977.504,-243.751 968.964,-250.022 974.739,-253.979"/>
</g>
</g>
</svg>
