<?xml version="1.0" encoding="UTF-8" standalone="no"?>
<!DOCTYPE svg PUBLIC "-//W3C//DTD SVG 1.1//EN"
 "http://www.w3.org/Graphics/SVG/1.1/DTD/svg11.dtd">
<!-- Generated by graphviz version 2.38.0 (20140413.2041)
 -->
<!-- Title: Engine/src/TileMap.cpp Pages: 1 -->
<svg width="866pt" height="252pt"
 viewBox="0.00 0.00 866.00 252.00" xmlns="http://www.w3.org/2000/svg" xmlns:xlink="http://www.w3.org/1999/xlink">
<g id="graph0" class="graph" transform="scale(1 1) rotate(0) translate(4 248)">
<title>Engine/src/TileMap.cpp</title>
<polygon fill="white" stroke="none" points="-4,4 -4,-248 862,-248 862,4 -4,4"/>
<!-- Node0 -->
<g id="node1" class="node"><title>Node0</title>
<polygon fill="#bfbfbf" stroke="black" points="174,-224.5 174,-243.5 293,-243.5 293,-224.5 174,-224.5"/>
<text text-anchor="middle" x="233.5" y="-231.5" font-family="Helvetica,sans-Serif" font-size="10.00">Engine/src/TileMap.cpp</text>
</g>
<!-- Node1 -->
<g id="node2" class="node"><title>Node1</title>
<polygon fill="white" stroke="#bfbfbf" points="0,-168.5 0,-187.5 59,-187.5 59,-168.5 0,-168.5"/>
<text text-anchor="middle" x="29.5" y="-175.5" font-family="Helvetica,sans-Serif" font-size="10.00">exception</text>
</g>
<!-- Node0&#45;&gt;Node1 -->
<g id="edge1" class="edge"><title>Node0&#45;&gt;Node1</title>
<path fill="none" stroke="midnightblue" d="M201.176,-224.444C165.285,-214.943 107.35,-199.607 68.8497,-189.416"/>
<polygon fill="midnightblue" stroke="midnightblue" points="69.5864,-185.991 59.0237,-186.815 67.7951,-192.758 69.5864,-185.991"/>
</g>
<!-- Node2 -->
<g id="node3" class="node"><title>Node2</title>
<polygon fill="white" stroke="#bfbfbf" points="77,-168.5 77,-187.5 120,-187.5 120,-168.5 77,-168.5"/>
<text text-anchor="middle" x="98.5" y="-175.5" font-family="Helvetica,sans-Serif" font-size="10.00">cstdio</text>
</g>
<!-- Node0&#45;&gt;Node2 -->
<g id="edge2" class="edge"><title>Node0&#45;&gt;Node2</title>
<path fill="none" stroke="midnightblue" d="M212.109,-224.444C189.793,-215.517 154.597,-201.439 129.292,-191.317"/>
<polygon fill="midnightblue" stroke="midnightblue" points="130.376,-187.981 119.791,-187.516 127.776,-194.48 130.376,-187.981"/>
</g>
<!-- Node3 -->
<g id="node4" class="node"><title>Node3</title>
<polygon fill="white" stroke="#bfbfbf" points="82.5,-112.5 82.5,-131.5 136.5,-131.5 136.5,-112.5 82.5,-112.5"/>
<text text-anchor="middle" x="109.5" y="-119.5" font-family="Helvetica,sans-Serif" font-size="10.00">iostream</text>
</g>
<!-- Node0&#45;&gt;Node3 -->
<g id="edge3" class="edge"><title>Node0&#45;&gt;Node3</title>
<path fill="none" stroke="midnightblue" d="M218.865,-224.459C204.98,-216.033 183.864,-202.362 167.5,-188 150.529,-173.106 133.626,-153.476 122.484,-139.701"/>
<polygon fill="midnightblue" stroke="midnightblue" points="125.012,-137.256 116.051,-131.602 119.531,-141.61 125.012,-137.256"/>
</g>
<!-- Node4 -->
<g id="node5" class="node"><title>Node4</title>
<polygon fill="white" stroke="#bfbfbf" points="240.5,-168.5 240.5,-187.5 296.5,-187.5 296.5,-168.5 240.5,-168.5"/>
<text text-anchor="middle" x="268.5" y="-175.5" font-family="Helvetica,sans-Serif" font-size="10.00">algorithm</text>
</g>
<!-- Node0&#45;&gt;Node4 -->
<g id="edge4" class="edge"><title>Node0&#45;&gt;Node4</title>
<path fill="none" stroke="midnightblue" d="M239.28,-224.083C244.172,-216.534 251.327,-205.495 257.333,-196.23"/>
<polygon fill="midnightblue" stroke="midnightblue" points="260.326,-198.046 262.828,-187.751 254.452,-194.239 260.326,-198.046"/>
</g>
<!-- Node5 -->
<g id="node6" class="node"><title>Node5</title>
<g id="a_node6"><a xlink:href="TileMap_8h.html" target="_top" xlink:title="TileMap.h">
<polygon fill="white" stroke="black" points="328,-168.5 328,-187.5 387,-187.5 387,-168.5 328,-168.5"/>
<text text-anchor="middle" x="357.5" y="-175.5" font-family="Helvetica,sans-Serif" font-size="10.00">TileMap.h</text>
</a>
</g>
</g>
<!-- Node0&#45;&gt;Node5 -->
<g id="edge5" class="edge"><title>Node0&#45;&gt;Node5</title>
<path fill="none" stroke="midnightblue" d="M253.148,-224.444C273.465,-215.596 305.403,-201.687 328.598,-191.586"/>
<polygon fill="midnightblue" stroke="midnightblue" points="330.173,-194.718 337.944,-187.516 327.378,-188.3 330.173,-194.718"/>
</g>
<!-- Node17 -->
<g id="node18" class="node"><title>Node17</title>
<g id="a_node18"><a xlink:href="Error_8h.html" target="_top" xlink:title="Error.h">
<polygon fill="white" stroke="black" points="176.5,-168.5 176.5,-187.5 222.5,-187.5 222.5,-168.5 176.5,-168.5"/>
<text text-anchor="middle" x="199.5" y="-175.5" font-family="Helvetica,sans-Serif" font-size="10.00">Error.h</text>
</a>
</g>
</g>
<!-- Node0&#45;&gt;Node17 -->
<g id="edge24" class="edge"><title>Node0&#45;&gt;Node17</title>
<path fill="none" stroke="midnightblue" d="M227.886,-224.083C223.133,-216.534 216.182,-205.495 210.348,-196.23"/>
<polygon fill="midnightblue" stroke="midnightblue" points="213.3,-194.349 205.01,-187.751 207.376,-198.078 213.3,-194.349"/>
</g>
<!-- Node19 -->
<g id="node20" class="node"><title>Node19</title>
<g id="a_node20"><a xlink:href="Camera_8h.html" target="_top" xlink:title="Camera.h">
<polygon fill="white" stroke="black" points="544,-168.5 544,-187.5 603,-187.5 603,-168.5 544,-168.5"/>
<text text-anchor="middle" x="573.5" y="-175.5" font-family="Helvetica,sans-Serif" font-size="10.00">Camera.h</text>
</a>
</g>
</g>
<!-- Node0&#45;&gt;Node19 -->
<g id="edge27" class="edge"><title>Node0&#45;&gt;Node19</title>
<path fill="none" stroke="midnightblue" d="M287.374,-224.444C355.876,-213.564 472.565,-195.031 533.607,-185.336"/>
<polygon fill="midnightblue" stroke="midnightblue" points="534.295,-188.771 543.622,-183.745 533.197,-181.857 534.295,-188.771"/>
</g>
<!-- Node21 -->
<g id="node22" class="node"><title>Node21</title>
<g id="a_node22"><a xlink:href="InputManager_8h.html" target="_top" xlink:title="InputManager.h">
<polygon fill="white" stroke="black" points="702.5,-56.5 702.5,-75.5 786.5,-75.5 786.5,-56.5 702.5,-56.5"/>
<text text-anchor="middle" x="744.5" y="-63.5" font-family="Helvetica,sans-Serif" font-size="10.00">InputManager.h</text>
</a>
</g>
</g>
<!-- Node0&#45;&gt;Node21 -->
<g id="edge35" class="edge"><title>Node0&#45;&gt;Node21</title>
<path fill="none" stroke="midnightblue" d="M293.25,-232.122C426.087,-228.717 738.91,-212.174 798.5,-132 812.07,-113.743 789.392,-93.7564 769.397,-80.8332"/>
<polygon fill="midnightblue" stroke="midnightblue" points="771.18,-77.8209 760.823,-75.5885 767.527,-83.7923 771.18,-77.8209"/>
</g>
<!-- Node6 -->
<g id="node7" class="node"><title>Node6</title>
<polygon fill="white" stroke="#bfbfbf" points="225,-0.5 225,-19.5 266,-19.5 266,-0.5 225,-0.5"/>
<text text-anchor="middle" x="245.5" y="-7.5" font-family="Helvetica,sans-Serif" font-size="10.00">string</text>
</g>
<!-- Node5&#45;&gt;Node6 -->
<g id="edge6" class="edge"><title>Node5&#45;&gt;Node6</title>
<path fill="none" stroke="midnightblue" d="M339.346,-168.426C311.488,-154.012 259.81,-121.93 244.5,-76 239.531,-61.094 240.263,-43.1771 241.964,-29.9325"/>
<polygon fill="midnightblue" stroke="midnightblue" points="245.479,-30.1141 243.589,-19.6891 238.565,-29.0169 245.479,-30.1141"/>
</g>
<!-- Node7 -->
<g id="node8" class="node"><title>Node7</title>
<polygon fill="white" stroke="#bfbfbf" points="365.5,-56.5 365.5,-75.5 409.5,-75.5 409.5,-56.5 365.5,-56.5"/>
<text text-anchor="middle" x="387.5" y="-63.5" font-family="Helvetica,sans-Serif" font-size="10.00">vector</text>
</g>
<!-- Node5&#45;&gt;Node7 -->
<g id="edge7" class="edge"><title>Node5&#45;&gt;Node7</title>
<path fill="none" stroke="midnightblue" d="M359.854,-168.368C364.717,-150.537 375.965,-109.295 382.517,-85.2717"/>
<polygon fill="midnightblue" stroke="midnightblue" points="385.902,-86.16 385.157,-75.5914 379.149,-84.3181 385.902,-86.16"/>
</g>
<!-- Node8 -->
<g id="node9" class="node"><title>Node8</title>
<g id="a_node9"><a xlink:href="Tileset_8h.html" target="_top" xlink:title="Tileset.h">
<polygon fill="white" stroke="black" points="295.5,-112.5 295.5,-131.5 349.5,-131.5 349.5,-112.5 295.5,-112.5"/>
<text text-anchor="middle" x="322.5" y="-119.5" font-family="Helvetica,sans-Serif" font-size="10.00">Tileset.h</text>
</a>
</g>
</g>
<!-- Node5&#45;&gt;Node8 -->
<g id="edge8" class="edge"><title>Node5&#45;&gt;Node8</title>
<path fill="none" stroke="midnightblue" d="M351.72,-168.083C346.828,-160.534 339.673,-149.495 333.667,-140.23"/>
<polygon fill="midnightblue" stroke="midnightblue" points="336.548,-138.239 328.172,-131.751 330.674,-142.046 336.548,-138.239"/>
</g>
<!-- Node12 -->
<g id="node13" class="node"><title>Node12</title>
<g id="a_node13"><a xlink:href="Vec2_8h.html" target="_top" xlink:title="Vec2.h">
<polygon fill="white" stroke="black" points="635,-0.5 635,-19.5 682,-19.5 682,-0.5 635,-0.5"/>
<text text-anchor="middle" x="658.5" y="-7.5" font-family="Helvetica,sans-Serif" font-size="10.00">Vec2.h</text>
</a>
</g>
</g>
<!-- Node5&#45;&gt;Node12 -->
<g id="edge14" class="edge"><title>Node5&#45;&gt;Node12</title>
<path fill="none" stroke="midnightblue" d="M387.233,-172.814C439.587,-163.984 548.883,-138.828 614.5,-76 628.915,-62.1977 641.237,-42.9144 649.143,-28.9385"/>
<polygon fill="midnightblue" stroke="midnightblue" points="652.381,-30.3108 654.086,-19.8541 646.232,-26.965 652.381,-30.3108"/>
</g>
<!-- Node13 -->
<g id="node14" class="node"><title>Node13</title>
<g id="a_node14"><a xlink:href="GameObject_8h.html" target="_top" xlink:title="GameObject.h">
<polygon fill="white" stroke="black" points="434.5,-112.5 434.5,-131.5 514.5,-131.5 514.5,-112.5 434.5,-112.5"/>
<text text-anchor="middle" x="474.5" y="-119.5" font-family="Helvetica,sans-Serif" font-size="10.00">GameObject.h</text>
</a>
</g>
</g>
<!-- Node5&#45;&gt;Node13 -->
<g id="edge15" class="edge"><title>Node5&#45;&gt;Node13</title>
<path fill="none" stroke="midnightblue" d="M376.039,-168.444C395.123,-159.636 425.075,-145.812 446.936,-135.722"/>
<polygon fill="midnightblue" stroke="midnightblue" points="448.435,-138.885 456.048,-131.516 445.501,-132.529 448.435,-138.885"/>
</g>
<!-- Node8&#45;&gt;Node6 -->
<g id="edge9" class="edge"><title>Node8&#45;&gt;Node6</title>
<path fill="none" stroke="midnightblue" d="M301.462,-112.476C286.167,-105.14 266.32,-93.0307 255.5,-76 246.794,-62.2975 244.674,-43.7643 244.51,-29.9937"/>
<polygon fill="midnightblue" stroke="midnightblue" points="248.014,-29.8302 244.73,-19.7571 241.016,-29.6795 248.014,-29.8302"/>
</g>
<!-- Node9 -->
<g id="node10" class="node"><title>Node9</title>
<g id="a_node10"><a xlink:href="Sprite_8h.html" target="_top" xlink:title="Sprite.h">
<polygon fill="white" stroke="black" points="297.5,-56.5 297.5,-75.5 347.5,-75.5 347.5,-56.5 297.5,-56.5"/>
<text text-anchor="middle" x="322.5" y="-63.5" font-family="Helvetica,sans-Serif" font-size="10.00">Sprite.h</text>
</a>
</g>
</g>
<!-- Node8&#45;&gt;Node9 -->
<g id="edge10" class="edge"><title>Node8&#45;&gt;Node9</title>
<path fill="none" stroke="midnightblue" d="M322.5,-112.083C322.5,-105.006 322.5,-94.8611 322.5,-85.9865"/>
<polygon fill="midnightblue" stroke="midnightblue" points="326,-85.751 322.5,-75.7511 319,-85.7511 326,-85.751"/>
</g>
<!-- Node9&#45;&gt;Node6 -->
<g id="edge12" class="edge"><title>Node9&#45;&gt;Node6</title>
<path fill="none" stroke="midnightblue" d="M310.129,-56.324C298.342,-48.0577 280.368,-35.4527 266.364,-25.6322"/>
<polygon fill="midnightblue" stroke="midnightblue" points="268.038,-22.5307 257.841,-19.6545 264.018,-28.2619 268.038,-22.5307"/>
</g>
<!-- Node10 -->
<g id="node11" class="node"><title>Node10</title>
<g id="a_node11"><a xlink:href="Color_8h.html" target="_top" xlink:title="Color.h">
<polygon fill="white" stroke="black" points="298.5,-0.5 298.5,-19.5 346.5,-19.5 346.5,-0.5 298.5,-0.5"/>
<text text-anchor="middle" x="322.5" y="-7.5" font-family="Helvetica,sans-Serif" font-size="10.00">Color.h</text>
</a>
</g>
</g>
<!-- Node9&#45;&gt;Node10 -->
<g id="edge11" class="edge"><title>Node9&#45;&gt;Node10</title>
<path fill="none" stroke="midnightblue" d="M322.5,-56.083C322.5,-49.0059 322.5,-38.8611 322.5,-29.9865"/>
<polygon fill="midnightblue" stroke="midnightblue" points="326,-29.751 322.5,-19.7511 319,-29.7511 326,-29.751"/>
</g>
<!-- Node11 -->
<g id="node12" class="node"><title>Node11</title>
<polygon fill="white" stroke="#bfbfbf" points="388.5,-0.5 388.5,-19.5 440.5,-19.5 440.5,-0.5 388.5,-0.5"/>
<text text-anchor="middle" x="414.5" y="-7.5" font-family="Helvetica,sans-Serif" font-size="10.00">memory</text>
</g>
<!-- Node9&#45;&gt;Node11 -->
<g id="edge13" class="edge"><title>Node9&#45;&gt;Node11</title>
<path fill="none" stroke="midnightblue" d="M337.281,-56.324C351.767,-47.8215 374.073,-34.7288 390.993,-24.7975"/>
<polygon fill="midnightblue" stroke="midnightblue" points="392.903,-27.735 399.755,-19.6545 389.359,-21.6981 392.903,-27.735"/>
</g>
<!-- Node13&#45;&gt;Node6 -->
<g id="edge21" class="edge"><title>Node13&#45;&gt;Node6</title>
<path fill="none" stroke="midnightblue" d="M434.382,-119.672C394.178,-116.54 332.149,-106.629 288.5,-76 271.762,-64.2548 259.801,-43.7248 252.81,-28.8749"/>
<polygon fill="midnightblue" stroke="midnightblue" points="255.995,-27.4247 248.766,-19.6795 249.587,-30.2425 255.995,-27.4247"/>
</g>
<!-- Node13&#45;&gt;Node7 -->
<g id="edge16" class="edge"><title>Node13&#45;&gt;Node7</title>
<path fill="none" stroke="midnightblue" d="M460.522,-112.324C446.95,-103.9 426.12,-90.9709 410.175,-81.0741"/>
<polygon fill="midnightblue" stroke="midnightblue" points="411.786,-77.9544 401.443,-75.6545 408.094,-83.9019 411.786,-77.9544"/>
</g>
<!-- Node13&#45;&gt;Node11 -->
<g id="edge17" class="edge"><title>Node13&#45;&gt;Node11</title>
<path fill="none" stroke="midnightblue" d="M469.792,-112.368C459.978,-94.376 437.164,-52.5503 424.115,-28.6267"/>
<polygon fill="midnightblue" stroke="midnightblue" points="427.047,-26.6944 419.186,-19.5914 420.902,-30.0464 427.047,-26.6944"/>
</g>
<!-- Node14 -->
<g id="node15" class="node"><title>Node14</title>
<g id="a_node15"><a xlink:href="Rect_8h.html" target="_top" xlink:title="Rect.h">
<polygon fill="white" stroke="black" points="559.5,-56.5 559.5,-75.5 605.5,-75.5 605.5,-56.5 559.5,-56.5"/>
<text text-anchor="middle" x="582.5" y="-63.5" font-family="Helvetica,sans-Serif" font-size="10.00">Rect.h</text>
</a>
</g>
</g>
<!-- Node13&#45;&gt;Node14 -->
<g id="edge18" class="edge"><title>Node13&#45;&gt;Node14</title>
<path fill="none" stroke="midnightblue" d="M491.852,-112.324C509.172,-103.664 536.015,-90.2424 556.002,-80.249"/>
<polygon fill="midnightblue" stroke="midnightblue" points="557.812,-83.2572 565.191,-75.6545 554.681,-76.9962 557.812,-83.2572"/>
</g>
<!-- Node16 -->
<g id="node17" class="node"><title>Node16</title>
<g id="a_node17"><a xlink:href="Component_8h.html" target="_top" xlink:title="Component.h">
<polygon fill="white" stroke="black" points="466,-56.5 466,-75.5 541,-75.5 541,-56.5 466,-56.5"/>
<text text-anchor="middle" x="503.5" y="-63.5" font-family="Helvetica,sans-Serif" font-size="10.00">Component.h</text>
</a>
</g>
</g>
<!-- Node13&#45;&gt;Node16 -->
<g id="edge22" class="edge"><title>Node13&#45;&gt;Node16</title>
<path fill="none" stroke="midnightblue" d="M474.122,-112.083C476.584,-104.534 482.121,-93.4948 487.906,-84.2298"/>
<polygon fill="midnightblue" stroke="midnightblue" points="490.942,-85.989 493.669,-75.7511 485.153,-82.0539 490.942,-85.989"/>
</g>
<!-- Node14&#45;&gt;Node12 -->
<g id="edge19" class="edge"><title>Node14&#45;&gt;Node12</title>
<path fill="none" stroke="midnightblue" d="M594.711,-56.324C606.276,-48.1066 623.875,-35.6017 637.661,-25.8069"/>
<polygon fill="midnightblue" stroke="midnightblue" points="639.943,-28.4791 646.067,-19.8339 635.888,-22.7729 639.943,-28.4791"/>
</g>
<!-- Node15 -->
<g id="node16" class="node"><title>Node15</title>
<polygon fill="white" stroke="#bfbfbf" points="560.5,-0.5 560.5,-19.5 604.5,-19.5 604.5,-0.5 560.5,-0.5"/>
<text text-anchor="middle" x="582.5" y="-7.5" font-family="Helvetica,sans-Serif" font-size="10.00">cmath</text>
</g>
<!-- Node14&#45;&gt;Node15 -->
<g id="edge20" class="edge"><title>Node14&#45;&gt;Node15</title>
<path fill="none" stroke="midnightblue" d="M582.5,-56.083C582.5,-49.0059 582.5,-38.8611 582.5,-29.9865"/>
<polygon fill="midnightblue" stroke="midnightblue" points="586,-29.751 582.5,-19.7511 579,-29.7511 586,-29.751"/>
</g>
<!-- Node16&#45;&gt;Node13 -->
<g id="edge23" class="edge"><title>Node16&#45;&gt;Node13</title>
<path fill="none" stroke="midnightblue" d="M503.931,-75.7511C501.515,-83.2484 496.003,-94.2747 490.221,-103.566"/>
<polygon fill="midnightblue" stroke="midnightblue" points="487.163,-101.84 484.455,-112.083 492.96,-105.764 487.163,-101.84"/>
</g>
<!-- Node17&#45;&gt;Node3 -->
<g id="edge25" class="edge"><title>Node17&#45;&gt;Node3</title>
<path fill="none" stroke="midnightblue" d="M185.04,-168.324C171,-159.9 149.452,-146.971 132.957,-137.074"/>
<polygon fill="midnightblue" stroke="midnightblue" points="134.3,-133.798 123.924,-131.655 130.698,-139.801 134.3,-133.798"/>
</g>
<!-- Node18 -->
<g id="node19" class="node"><title>Node18</title>
<polygon fill="white" stroke="#bfbfbf" points="154.5,-112.5 154.5,-131.5 202.5,-131.5 202.5,-112.5 154.5,-112.5"/>
<text text-anchor="middle" x="178.5" y="-119.5" font-family="Helvetica,sans-Serif" font-size="10.00">stdlib.h</text>
</g>
<!-- Node17&#45;&gt;Node18 -->
<g id="edge26" class="edge"><title>Node17&#45;&gt;Node18</title>
<path fill="none" stroke="midnightblue" d="M196.032,-168.083C193.188,-160.77 189.071,-150.181 185.54,-141.103"/>
<polygon fill="midnightblue" stroke="midnightblue" points="188.79,-139.803 181.903,-131.751 182.266,-142.34 188.79,-139.803"/>
</g>
<!-- Node19&#45;&gt;Node12 -->
<g id="edge29" class="edge"><title>Node19&#45;&gt;Node12</title>
<path fill="none" stroke="midnightblue" d="M599.175,-168.354C615.875,-161.308 636.521,-149.607 647.5,-132 667.147,-100.491 664.975,-55.0995 661.701,-29.8179"/>
<polygon fill="midnightblue" stroke="midnightblue" points="665.135,-29.1116 660.194,-19.7393 658.212,-30.147 665.135,-29.1116"/>
</g>
<!-- Node19&#45;&gt;Node13 -->
<g id="edge28" class="edge"><title>Node19&#45;&gt;Node13</title>
<path fill="none" stroke="midnightblue" d="M557.594,-168.324C541.862,-159.743 517.558,-146.486 499.291,-136.522"/>
<polygon fill="midnightblue" stroke="midnightblue" points="500.822,-133.37 490.367,-131.655 497.47,-139.516 500.822,-133.37"/>
</g>
<!-- Node20 -->
<g id="node21" class="node"><title>Node20</title>
<g id="a_node21"><a xlink:href="ActionManager_8h.html" target="_top" xlink:title="ActionManager.h">
<polygon fill="white" stroke="black" points="699.5,-112.5 699.5,-131.5 789.5,-131.5 789.5,-112.5 699.5,-112.5"/>
<text text-anchor="middle" x="744.5" y="-119.5" font-family="Helvetica,sans-Serif" font-size="10.00">ActionManager.h</text>
</a>
</g>
</g>
<!-- Node19&#45;&gt;Node20 -->
<g id="edge30" class="edge"><title>Node19&#45;&gt;Node20</title>
<path fill="none" stroke="midnightblue" d="M600.595,-168.444C629.488,-159.32 675.425,-144.813 707.605,-134.651"/>
<polygon fill="midnightblue" stroke="midnightblue" points="709.049,-137.865 717.531,-131.516 706.941,-131.19 709.049,-137.865"/>
</g>
<!-- Node20&#45;&gt;Node21 -->
<g id="edge31" class="edge"><title>Node20&#45;&gt;Node21</title>
<path fill="none" stroke="midnightblue" d="M744.5,-112.083C744.5,-105.006 744.5,-94.8611 744.5,-85.9865"/>
<polygon fill="midnightblue" stroke="midnightblue" points="748,-85.751 744.5,-75.7511 741,-85.7511 748,-85.751"/>
</g>
<!-- Node21&#45;&gt;Node12 -->
<g id="edge32" class="edge"><title>Node21&#45;&gt;Node12</title>
<path fill="none" stroke="midnightblue" d="M730.683,-56.324C717.267,-47.9002 696.676,-34.9709 680.914,-25.0741"/>
<polygon fill="midnightblue" stroke="midnightblue" points="682.613,-22.0081 672.283,-19.6545 678.891,-27.9364 682.613,-22.0081"/>
</g>
<!-- Node22 -->
<g id="node23" class="node"><title>Node22</title>
<polygon fill="white" stroke="#bfbfbf" points="775,-0.5 775,-19.5 858,-19.5 858,-0.5 775,-0.5"/>
<text text-anchor="middle" x="816.5" y="-7.5" font-family="Helvetica,sans-Serif" font-size="10.00">unordered_map</text>
</g>
<!-- Node21&#45;&gt;Node22 -->
<g id="edge33" class="edge"><title>Node21&#45;&gt;Node22</title>
<path fill="none" stroke="midnightblue" d="M756.068,-56.324C766.92,-48.1849 783.381,-35.8395 796.383,-26.0874"/>
<polygon fill="midnightblue" stroke="midnightblue" points="798.821,-28.6339 804.721,-19.8339 794.621,-23.0339 798.821,-28.6339"/>
</g>
<!-- Node23 -->
<g id="node24" class="node"><title>Node23</title>
<polygon fill="white" stroke="#bfbfbf" points="710.5,-0.5 710.5,-19.5 756.5,-19.5 756.5,-0.5 710.5,-0.5"/>
<text text-anchor="middle" x="733.5" y="-7.5" font-family="Helvetica,sans-Serif" font-size="10.00">cstdint</text>
</g>
<!-- Node21&#45;&gt;Node23 -->
<g id="edge34" class="edge"><title>Node21&#45;&gt;Node23</title>
<path fill="none" stroke="midnightblue" d="M742.684,-56.083C741.226,-48.9272 739.129,-38.6353 737.307,-29.6911"/>
<polygon fill="midnightblue" stroke="midnightblue" points="740.708,-28.8512 735.283,-19.7511 733.849,-30.2485 740.708,-28.8512"/>
</g>
</g>
</svg>
