<?xml version="1.0" encoding="UTF-8" standalone="no"?>
<!DOCTYPE svg PUBLIC "-//W3C//DTD SVG 1.1//EN"
 "http://www.w3.org/Graphics/SVG/1.1/DTD/svg11.dtd">
<!-- Generated by graphviz version 2.36.0 (20140111.2315)
 -->
<!-- Title: Engine/include/TileMap.h Pages: 1 -->
<svg width="928pt" height="252pt"
 viewBox="0.00 0.00 928.00 252.00" xmlns="http://www.w3.org/2000/svg" xmlns:xlink="http://www.w3.org/1999/xlink">
<g id="graph0" class="graph" transform="scale(1 1) rotate(0) translate(4 248)">
<title>Engine/include/TileMap.h</title>
<polygon fill="white" stroke="none" points="-4,4 -4,-248 924,-248 924,4 -4,4"/>
<!-- Node1 -->
<g id="node1" class="node"><title>Node1</title>
<polygon fill="#bfbfbf" stroke="black" points="358,-224.5 358,-243.5 484,-243.5 484,-224.5 358,-224.5"/>
<text text-anchor="middle" x="421" y="-231.5" font-family="Helvetica,sans-Serif" font-size="10.00">Engine/include/TileMap.h</text>
</g>
<!-- Node2 -->
<g id="node2" class="node"><title>Node2</title>
<g id="a_node2"><a xlink:href="DragAndDrop_8h.html" target="_top" xlink:title="Engine/include/DragAndDrop.h">
<polygon fill="white" stroke="black" points="9.5,-168.5 9.5,-187.5 160.5,-187.5 160.5,-168.5 9.5,-168.5"/>
<text text-anchor="middle" x="85" y="-175.5" font-family="Helvetica,sans-Serif" font-size="10.00">Engine/include/DragAndDrop.h</text>
</a>
</g>
</g>
<!-- Node1&#45;&gt;Node2 -->
<g id="edge1" class="edge"><title>Node1&#45;&gt;Node2</title>
<path fill="none" stroke="midnightblue" d="M357.868,-222.854C294.384,-212.651 197.608,-197.098 137.991,-187.516"/>
<polygon fill="midnightblue" stroke="midnightblue" points="357.331,-226.312 367.76,-224.444 358.442,-219.401 357.331,-226.312"/>
</g>
<!-- Node5 -->
<g id="node5" class="node"><title>Node5</title>
<g id="a_node5"><a xlink:href="TileMap_8cpp.html" target="_top" xlink:title="Engine/src/TileMap.cpp">
<polygon fill="white" stroke="black" points="707.5,-168.5 707.5,-187.5 826.5,-187.5 826.5,-168.5 707.5,-168.5"/>
<text text-anchor="middle" x="767" y="-175.5" font-family="Helvetica,sans-Serif" font-size="10.00">Engine/src/TileMap.cpp</text>
</a>
</g>
</g>
<!-- Node1&#45;&gt;Node5 -->
<g id="edge4" class="edge"><title>Node1&#45;&gt;Node5</title>
<path fill="none" stroke="midnightblue" d="M486.011,-222.854C551.385,-212.651 651.04,-197.098 712.432,-187.516"/>
<polygon fill="midnightblue" stroke="midnightblue" points="485.165,-219.443 475.825,-224.444 486.245,-226.36 485.165,-219.443"/>
</g>
<!-- Node6 -->
<g id="node6" class="node"><title>Node6</title>
<g id="a_node6"><a xlink:href="StageState_8h.html" target="_top" xlink:title="Game/include/StageState.h">
<polygon fill="white" stroke="black" points="283.5,-112.5 283.5,-131.5 420.5,-131.5 420.5,-112.5 283.5,-112.5"/>
<text text-anchor="middle" x="352" y="-119.5" font-family="Helvetica,sans-Serif" font-size="10.00">Game/include/StageState.h</text>
</a>
</g>
</g>
<!-- Node1&#45;&gt;Node6 -->
<g id="edge5" class="edge"><title>Node1&#45;&gt;Node6</title>
<path fill="none" stroke="midnightblue" d="M377.874,-220.729C361.833,-213.84 345.287,-203.426 336,-188 325.09,-169.88 337.78,-144.671 346.027,-131.611"/>
<polygon fill="midnightblue" stroke="midnightblue" points="376.614,-223.994 387.201,-224.388 379.17,-217.478 376.614,-223.994"/>
</g>
<!-- Node11 -->
<g id="node11" class="node"><title>Node11</title>
<g id="a_node11"><a xlink:href="WaveManager_8h.html" target="_top" xlink:title="Game/include/WaveManager.h">
<polygon fill="white" stroke="black" points="345.5,-168.5 345.5,-187.5 496.5,-187.5 496.5,-168.5 345.5,-168.5"/>
<text text-anchor="middle" x="421" y="-175.5" font-family="Helvetica,sans-Serif" font-size="10.00">Game/include/WaveManager.h</text>
</a>
</g>
</g>
<!-- Node1&#45;&gt;Node11 -->
<g id="edge11" class="edge"><title>Node1&#45;&gt;Node11</title>
<path fill="none" stroke="midnightblue" d="M421,-213.805C421,-204.91 421,-194.78 421,-187.751"/>
<polygon fill="midnightblue" stroke="midnightblue" points="417.5,-214.083 421,-224.083 424.5,-214.083 417.5,-214.083"/>
</g>
<!-- Node12 -->
<g id="node12" class="node"><title>Node12</title>
<g id="a_node12"><a xlink:href="WaveManager_8cpp.html" target="_top" xlink:title="Game/src/WaveManager.cpp">
<polygon fill="white" stroke="black" points="595,-56.5 595,-75.5 739,-75.5 739,-56.5 595,-56.5"/>
<text text-anchor="middle" x="667" y="-63.5" font-family="Helvetica,sans-Serif" font-size="10.00">Game/src/WaveManager.cpp</text>
</a>
</g>
</g>
<!-- Node1&#45;&gt;Node12 -->
<g id="edge24" class="edge"><title>Node1&#45;&gt;Node12</title>
<path fill="none" stroke="midnightblue" d="M449.929,-220.065C466.715,-211.946 487.858,-200.639 505,-188 543.702,-159.464 543.228,-140.44 582,-112 602.599,-96.8897 628.937,-83.7673 646.797,-75.6538"/>
<polygon fill="midnightblue" stroke="midnightblue" points="448.162,-217.028 440.613,-224.462 451.15,-223.359 448.162,-217.028"/>
</g>
<!-- Node13 -->
<g id="node13" class="node"><title>Node13</title>
<g id="a_node13"><a xlink:href="Enemy_8h.html" target="_top" xlink:title="Game/include/Enemy.h">
<polygon fill="white" stroke="black" points="570.5,-168.5 570.5,-187.5 689.5,-187.5 689.5,-168.5 570.5,-168.5"/>
<text text-anchor="middle" x="630" y="-175.5" font-family="Helvetica,sans-Serif" font-size="10.00">Game/include/Enemy.h</text>
</a>
</g>
</g>
<!-- Node1&#45;&gt;Node13 -->
<g id="edge14" class="edge"><title>Node1&#45;&gt;Node13</title>
<path fill="none" stroke="midnightblue" d="M463.984,-221.894C503.452,-211.697 561.1,-196.802 597.038,-187.516"/>
<polygon fill="midnightblue" stroke="midnightblue" points="462.923,-218.553 454.117,-224.444 464.674,-225.331 462.923,-218.553"/>
</g>
<!-- Node17 -->
<g id="node17" class="node"><title>Node17</title>
<g id="a_node17"><a xlink:href="Face_8h.html" target="_top" xlink:title="Game/include/Face.h">
<polygon fill="white" stroke="black" points="179,-168.5 179,-187.5 289,-187.5 289,-168.5 179,-168.5"/>
<text text-anchor="middle" x="234" y="-175.5" font-family="Helvetica,sans-Serif" font-size="10.00">Game/include/Face.h</text>
</a>
</g>
</g>
<!-- Node1&#45;&gt;Node17 -->
<g id="edge21" class="edge"><title>Node1&#45;&gt;Node17</title>
<path fill="none" stroke="midnightblue" d="M381.41,-221.568C346.134,-211.381 295.306,-196.703 263.492,-187.516"/>
<polygon fill="midnightblue" stroke="midnightblue" points="380.791,-225.032 391.369,-224.444 382.733,-218.307 380.791,-225.032"/>
</g>
<!-- Node3 -->
<g id="node3" class="node"><title>Node3</title>
<g id="a_node3"><a xlink:href="DragAndDrop_8cpp.html" target="_top" xlink:title="Engine/src/DragAndDrop.cpp">
<polygon fill="white" stroke="black" points="0,-112.5 0,-131.5 144,-131.5 144,-112.5 0,-112.5"/>
<text text-anchor="middle" x="72" y="-119.5" font-family="Helvetica,sans-Serif" font-size="10.00">Engine/src/DragAndDrop.cpp</text>
</a>
</g>
</g>
<!-- Node2&#45;&gt;Node3 -->
<g id="edge2" class="edge"><title>Node2&#45;&gt;Node3</title>
<path fill="none" stroke="midnightblue" d="M80.4501,-158.101C78.2919,-149.136 75.8176,-138.858 74.1067,-131.751"/>
<polygon fill="midnightblue" stroke="midnightblue" points="77.1099,-159.18 82.8533,-168.083 83.9155,-157.542 77.1099,-159.18"/>
</g>
<!-- Node4 -->
<g id="node4" class="node"><title>Node4</title>
<g id="a_node4"><a xlink:href="Face_8cpp.html" target="_top" xlink:title="Game/src/Face.cpp">
<polygon fill="white" stroke="black" points="162.5,-112.5 162.5,-131.5 265.5,-131.5 265.5,-112.5 162.5,-112.5"/>
<text text-anchor="middle" x="214" y="-119.5" font-family="Helvetica,sans-Serif" font-size="10.00">Game/src/Face.cpp</text>
</a>
</g>
</g>
<!-- Node2&#45;&gt;Node4 -->
<g id="edge3" class="edge"><title>Node2&#45;&gt;Node4</title>
<path fill="none" stroke="midnightblue" d="M114.854,-164.503C139.038,-154.38 172.462,-140.388 193.655,-131.516"/>
<polygon fill="midnightblue" stroke="midnightblue" points="113.313,-161.354 105.44,-168.444 116.016,-167.811 113.313,-161.354"/>
</g>
<!-- Node7 -->
<g id="node7" class="node"><title>Node7</title>
<g id="a_node7"><a xlink:href="EndState_8h.html" target="_top" xlink:title="Game/include/EndState.h">
<polygon fill="white" stroke="black" points="149,-56.5 149,-75.5 277,-75.5 277,-56.5 149,-56.5"/>
<text text-anchor="middle" x="213" y="-63.5" font-family="Helvetica,sans-Serif" font-size="10.00">Game/include/EndState.h</text>
</a>
</g>
</g>
<!-- Node6&#45;&gt;Node7 -->
<g id="edge6" class="edge"><title>Node6&#45;&gt;Node7</title>
<path fill="none" stroke="midnightblue" d="M315.132,-108.906C287.457,-98.7536 251.002,-84.5063 229.842,-75.5164"/>
<polygon fill="midnightblue" stroke="midnightblue" points="314.292,-112.324 324.886,-112.444 316.679,-105.744 314.292,-112.324"/>
</g>
<!-- Node9 -->
<g id="node9" class="node"><title>Node9</title>
<g id="a_node9"><a xlink:href="StageState_8cpp.html" target="_top" xlink:title="Game/src/StageState.cpp">
<polygon fill="white" stroke="black" points="437,-56.5 437,-75.5 567,-75.5 567,-56.5 437,-56.5"/>
<text text-anchor="middle" x="502" y="-63.5" font-family="Helvetica,sans-Serif" font-size="10.00">Game/src/StageState.cpp</text>
</a>
</g>
</g>
<!-- Node6&#45;&gt;Node9 -->
<g id="edge9" class="edge"><title>Node6&#45;&gt;Node9</title>
<path fill="none" stroke="midnightblue" d="M385.225,-109.039C413.448,-98.8786 453.262,-84.5457 478.343,-75.5164"/>
<polygon fill="midnightblue" stroke="midnightblue" points="383.991,-105.763 375.768,-112.444 386.362,-112.349 383.991,-105.763"/>
</g>
<!-- Node10 -->
<g id="node10" class="node"><title>Node10</title>
<g id="a_node10"><a xlink:href="TitleState_8cpp.html" target="_top" xlink:title="Game/src/TitleState.cpp">
<polygon fill="white" stroke="black" points="295.5,-56.5 295.5,-75.5 418.5,-75.5 418.5,-56.5 295.5,-56.5"/>
<text text-anchor="middle" x="357" y="-63.5" font-family="Helvetica,sans-Serif" font-size="10.00">Game/src/TitleState.cpp</text>
</a>
</g>
</g>
<!-- Node6&#45;&gt;Node10 -->
<g id="edge10" class="edge"><title>Node6&#45;&gt;Node10</title>
<path fill="none" stroke="midnightblue" d="M353.75,-102.101C354.58,-93.1357 355.532,-82.8579 356.19,-75.7511"/>
<polygon fill="midnightblue" stroke="midnightblue" points="350.263,-101.803 352.826,-112.083 357.233,-102.448 350.263,-101.803"/>
</g>
<!-- Node7&#45;&gt;Node6 -->
<g id="edge7" class="edge"><title>Node7&#45;&gt;Node6</title>
<path fill="none" stroke="midnightblue" d="M249.745,-79.049C277.394,-89.1891 313.858,-103.438 335.064,-112.444"/>
<polygon fill="midnightblue" stroke="midnightblue" points="250.596,-75.6347 240.002,-75.5164 248.21,-82.2155 250.596,-75.6347"/>
</g>
<!-- Node8 -->
<g id="node8" class="node"><title>Node8</title>
<g id="a_node8"><a xlink:href="EndState_8cpp.html" target="_top" xlink:title="Game/src/EndState.cpp">
<polygon fill="white" stroke="black" points="152,-0.5 152,-19.5 274,-19.5 274,-0.5 152,-0.5"/>
<text text-anchor="middle" x="213" y="-7.5" font-family="Helvetica,sans-Serif" font-size="10.00">Game/src/EndState.cpp</text>
</a>
</g>
</g>
<!-- Node7&#45;&gt;Node8 -->
<g id="edge8" class="edge"><title>Node7&#45;&gt;Node8</title>
<path fill="none" stroke="midnightblue" d="M213,-45.8045C213,-36.9102 213,-26.7798 213,-19.7511"/>
<polygon fill="midnightblue" stroke="midnightblue" points="209.5,-46.083 213,-56.083 216.5,-46.083 209.5,-46.083"/>
</g>
<!-- Node11&#45;&gt;Node6 -->
<g id="edge12" class="edge"><title>Node11&#45;&gt;Node6</title>
<path fill="none" stroke="midnightblue" d="M401.962,-162.101C389.544,-152.382 373.757,-140.027 363.288,-131.834"/>
<polygon fill="midnightblue" stroke="midnightblue" points="399.882,-164.917 409.914,-168.324 404.196,-159.405 399.882,-164.917"/>
</g>
<!-- Node11&#45;&gt;Node12 -->
<g id="edge13" class="edge"><title>Node11&#45;&gt;Node12</title>
<path fill="none" stroke="midnightblue" d="M438.391,-161.613C455.711,-147.002 483.599,-125.343 511,-112 546.733,-94.5994 590.428,-82.7155 622.474,-75.5499"/>
<polygon fill="midnightblue" stroke="midnightblue" points="436.087,-158.978 430.787,-168.152 440.651,-164.286 436.087,-158.978"/>
</g>
<!-- Node13&#45;&gt;Node9 -->
<g id="edge19" class="edge"><title>Node13&#45;&gt;Node9</title>
<path fill="none" stroke="midnightblue" d="M612.331,-161.816C585.069,-138.387 533.639,-94.1898 511.997,-75.5914"/>
<polygon fill="midnightblue" stroke="midnightblue" points="610.091,-164.505 619.956,-168.368 614.653,-159.196 610.091,-164.505"/>
</g>
<!-- Node13&#45;&gt;Node12 -->
<g id="edge20" class="edge"><title>Node13&#45;&gt;Node12</title>
<path fill="none" stroke="midnightblue" d="M670.522,-164.536C686.011,-157.574 702.082,-147.156 711,-132 723.301,-111.094 697.224,-87.8357 680.191,-75.6033"/>
<polygon fill="midnightblue" stroke="midnightblue" points="668.944,-161.4 661.023,-168.436 671.603,-167.876 668.944,-161.4"/>
</g>
<!-- Node14 -->
<g id="node14" class="node"><title>Node14</title>
<g id="a_node14"><a xlink:href="GameResources_8h.html" target="_top" xlink:title="Game/include/GameResources.h">
<polygon fill="white" stroke="black" points="759.5,-112.5 759.5,-131.5 920.5,-131.5 920.5,-112.5 759.5,-112.5"/>
<text text-anchor="middle" x="840" y="-119.5" font-family="Helvetica,sans-Serif" font-size="10.00">Game/include/GameResources.h</text>
</a>
</g>
</g>
<!-- Node13&#45;&gt;Node14 -->
<g id="edge15" class="edge"><title>Node13&#45;&gt;Node14</title>
<path fill="none" stroke="midnightblue" d="M673.19,-165.894C712.847,-155.697 770.77,-140.802 806.881,-131.516"/>
<polygon fill="midnightblue" stroke="midnightblue" points="672.088,-162.563 663.275,-168.444 673.832,-169.343 672.088,-162.563"/>
</g>
<!-- Node16 -->
<g id="node16" class="node"><title>Node16</title>
<g id="a_node16"><a xlink:href="Enemy_8cpp.html" target="_top" xlink:title="Game/src/Enemy.cpp">
<polygon fill="white" stroke="black" points="591,-112.5 591,-131.5 703,-131.5 703,-112.5 591,-112.5"/>
<text text-anchor="middle" x="647" y="-119.5" font-family="Helvetica,sans-Serif" font-size="10.00">Game/src/Enemy.cpp</text>
</a>
</g>
</g>
<!-- Node13&#45;&gt;Node16 -->
<g id="edge18" class="edge"><title>Node13&#45;&gt;Node16</title>
<path fill="none" stroke="midnightblue" d="M635.857,-158.396C638.701,-149.362 641.983,-138.936 644.245,-131.751"/>
<polygon fill="midnightblue" stroke="midnightblue" points="632.472,-157.493 632.807,-168.083 639.149,-159.596 632.472,-157.493"/>
</g>
<!-- Node14&#45;&gt;Node12 -->
<g id="edge17" class="edge"><title>Node14&#45;&gt;Node12</title>
<path fill="none" stroke="midnightblue" d="M802.953,-109.436C770.336,-99.2551 723.59,-84.664 694.284,-75.5164"/>
<polygon fill="midnightblue" stroke="midnightblue" points="801.999,-112.805 812.588,-112.444 804.085,-106.123 801.999,-112.805"/>
</g>
<!-- Node15 -->
<g id="node15" class="node"><title>Node15</title>
<g id="a_node15"><a xlink:href="GameResources_8cpp.html" target="_top" xlink:title="Game/src/GameResources.cpp">
<polygon fill="white" stroke="black" points="762.5,-56.5 762.5,-75.5 917.5,-75.5 917.5,-56.5 762.5,-56.5"/>
<text text-anchor="middle" x="840" y="-63.5" font-family="Helvetica,sans-Serif" font-size="10.00">Game/src/GameResources.cpp</text>
</a>
</g>
</g>
<!-- Node14&#45;&gt;Node15 -->
<g id="edge16" class="edge"><title>Node14&#45;&gt;Node15</title>
<path fill="none" stroke="midnightblue" d="M840,-101.805C840,-92.9102 840,-82.7798 840,-75.7511"/>
<polygon fill="midnightblue" stroke="midnightblue" points="836.5,-102.083 840,-112.083 843.5,-102.083 836.5,-102.083"/>
</g>
<!-- Node17&#45;&gt;Node4 -->
<g id="edge22" class="edge"><title>Node17&#45;&gt;Node4</title>
<path fill="none" stroke="midnightblue" d="M227.218,-158.69C223.848,-149.589 219.931,-139.014 217.241,-131.751"/>
<polygon fill="midnightblue" stroke="midnightblue" points="223.942,-159.921 230.697,-168.083 230.506,-157.49 223.942,-159.921"/>
</g>
<!-- Node17&#45;&gt;Node9 -->
<g id="edge23" class="edge"><title>Node17&#45;&gt;Node9</title>
<path fill="none" stroke="midnightblue" d="M299.074,-170.254C338.387,-164.211 388.542,-152.917 429,-132 457.038,-117.505 482.869,-89.7598 494.9,-75.6706"/>
<polygon fill="midnightblue" stroke="midnightblue" points="298.457,-166.807 289.068,-171.715 299.469,-173.733 298.457,-166.807"/>
</g>
</g>
</svg>
