<?xml version="1.0" encoding="UTF-8" standalone="no"?>
<!DOCTYPE svg PUBLIC "-//W3C//DTD SVG 1.1//EN"
 "http://www.w3.org/Graphics/SVG/1.1/DTD/svg11.dtd">
<!-- Generated by graphviz version 2.36.0 (20140111.2315)
 -->
<!-- Title: Engine/include/TileMap.h Pages: 1 -->
<svg width="977pt" height="252pt"
 viewBox="0.00 0.00 977.00 252.00" xmlns="http://www.w3.org/2000/svg" xmlns:xlink="http://www.w3.org/1999/xlink">
<g id="graph0" class="graph" transform="scale(1 1) rotate(0) translate(4 248)">
<title>Engine/include/TileMap.h</title>
<polygon fill="white" stroke="none" points="-4,4 -4,-248 973,-248 973,4 -4,4"/>
<!-- Node1 -->
<g id="node1" class="node"><title>Node1</title>
<polygon fill="#bfbfbf" stroke="black" points="393,-224.5 393,-243.5 519,-243.5 519,-224.5 393,-224.5"/>
<text text-anchor="middle" x="456" y="-231.5" font-family="Helvetica,sans-Serif" font-size="10.00">Engine/include/TileMap.h</text>
</g>
<!-- Node2 -->
<g id="node2" class="node"><title>Node2</title>
<g id="a_node2"><a xlink:href="DragAndDrop_8h.html" target="_top" xlink:title="Engine/include/DragAndDrop.h">
<polygon fill="white" stroke="black" points="44.5,-168.5 44.5,-187.5 195.5,-187.5 195.5,-168.5 44.5,-168.5"/>
<text text-anchor="middle" x="120" y="-175.5" font-family="Helvetica,sans-Serif" font-size="10.00">Engine/include/DragAndDrop.h</text>
</a>
</g>
</g>
<!-- Node1&#45;&gt;Node2 -->
<g id="edge1" class="edge"><title>Node1&#45;&gt;Node2</title>
<path fill="none" stroke="midnightblue" d="M392.868,-222.854C329.384,-212.651 232.608,-197.098 172.991,-187.516"/>
<polygon fill="midnightblue" stroke="midnightblue" points="392.331,-226.312 402.76,-224.444 393.442,-219.401 392.331,-226.312"/>
</g>
<!-- Node5 -->
<g id="node5" class="node"><title>Node5</title>
<g id="a_node5"><a xlink:href="TileMap_8cpp.html" target="_top" xlink:title="Engine/src/TileMap.cpp">
<polygon fill="white" stroke="black" points="725.5,-168.5 725.5,-187.5 844.5,-187.5 844.5,-168.5 725.5,-168.5"/>
<text text-anchor="middle" x="785" y="-175.5" font-family="Helvetica,sans-Serif" font-size="10.00">Engine/src/TileMap.cpp</text>
</a>
</g>
</g>
<!-- Node1&#45;&gt;Node5 -->
<g id="edge4" class="edge"><title>Node1&#45;&gt;Node5</title>
<path fill="none" stroke="midnightblue" d="M518.201,-222.791C580.368,-212.587 674.858,-197.078 733.113,-187.516"/>
<polygon fill="midnightblue" stroke="midnightblue" points="517.432,-219.37 508.131,-224.444 518.566,-226.278 517.432,-219.37"/>
</g>
<!-- Node6 -->
<g id="node6" class="node"><title>Node6</title>
<g id="a_node6"><a xlink:href="StageState_8h.html" target="_top" xlink:title="Game/include/StageState.h">
<polygon fill="white" stroke="black" points="283.5,-112.5 283.5,-131.5 420.5,-131.5 420.5,-112.5 283.5,-112.5"/>
<text text-anchor="middle" x="352" y="-119.5" font-family="Helvetica,sans-Serif" font-size="10.00">Game/include/StageState.h</text>
</a>
</g>
</g>
<!-- Node1&#45;&gt;Node6 -->
<g id="edge5" class="edge"><title>Node1&#45;&gt;Node6</title>
<path fill="none" stroke="midnightblue" d="M417.886,-220.538C401.369,-213.385 383.086,-202.819 371,-188 357.328,-171.235 353.494,-144.991 352.419,-131.554"/>
<polygon fill="midnightblue" stroke="midnightblue" points="416.764,-223.859 427.347,-224.361 419.387,-217.369 416.764,-223.859"/>
</g>
<!-- Node11 -->
<g id="node11" class="node"><title>Node11</title>
<g id="a_node11"><a xlink:href="WaveManager_8h.html" target="_top" xlink:title="Game/include/WaveManager.h">
<polygon fill="white" stroke="black" points="380.5,-168.5 380.5,-187.5 531.5,-187.5 531.5,-168.5 380.5,-168.5"/>
<text text-anchor="middle" x="456" y="-175.5" font-family="Helvetica,sans-Serif" font-size="10.00">Game/include/WaveManager.h</text>
</a>
</g>
</g>
<!-- Node1&#45;&gt;Node11 -->
<g id="edge11" class="edge"><title>Node1&#45;&gt;Node11</title>
<path fill="none" stroke="midnightblue" d="M456,-213.805C456,-204.91 456,-194.78 456,-187.751"/>
<polygon fill="midnightblue" stroke="midnightblue" points="452.5,-214.083 456,-224.083 459.5,-214.083 452.5,-214.083"/>
</g>
<!-- Node12 -->
<g id="node12" class="node"><title>Node12</title>
<g id="a_node12"><a xlink:href="WaveManager_8cpp.html" target="_top" xlink:title="Game/src/WaveManager.cpp">
<polygon fill="white" stroke="black" points="477,-112.5 477,-131.5 621,-131.5 621,-112.5 477,-112.5"/>
<text text-anchor="middle" x="549" y="-119.5" font-family="Helvetica,sans-Serif" font-size="10.00">Game/src/WaveManager.cpp</text>
</a>
</g>
</g>
<!-- Node1&#45;&gt;Node12 -->
<g id="edge23" class="edge"><title>Node1&#45;&gt;Node12</title>
<path fill="none" stroke="midnightblue" d="M495.776,-220.74C512.005,-213.723 529.41,-203.208 540,-188 551.849,-170.985 551.399,-145.31 550.149,-131.889"/>
<polygon fill="midnightblue" stroke="midnightblue" points="494.407,-217.518 486.417,-224.476 497.002,-224.019 494.407,-217.518"/>
</g>
<!-- Node13 -->
<g id="node13" class="node"><title>Node13</title>
<g id="a_node13"><a xlink:href="Enemy_8h.html" target="_top" xlink:title="Game/include/Enemy.h">
<polygon fill="white" stroke="black" points="588.5,-168.5 588.5,-187.5 707.5,-187.5 707.5,-168.5 588.5,-168.5"/>
<text text-anchor="middle" x="648" y="-175.5" font-family="Helvetica,sans-Serif" font-size="10.00">Game/include/Enemy.h</text>
</a>
</g>
</g>
<!-- Node1&#45;&gt;Node13 -->
<g id="edge14" class="edge"><title>Node1&#45;&gt;Node13</title>
<path fill="none" stroke="midnightblue" d="M496.183,-221.699C532.419,-211.507 584.914,-196.743 617.719,-187.516"/>
<polygon fill="midnightblue" stroke="midnightblue" points="495.102,-218.367 486.423,-224.444 496.997,-225.105 495.102,-218.367"/>
</g>
<!-- Node17 -->
<g id="node17" class="node"><title>Node17</title>
<g id="a_node17"><a xlink:href="Face_8h.html" target="_top" xlink:title="Game/include/Face.h">
<polygon fill="white" stroke="black" points="214,-168.5 214,-187.5 324,-187.5 324,-168.5 214,-168.5"/>
<text text-anchor="middle" x="269" y="-175.5" font-family="Helvetica,sans-Serif" font-size="10.00">Game/include/Face.h</text>
</a>
</g>
</g>
<!-- Node1&#45;&gt;Node17 -->
<g id="edge20" class="edge"><title>Node1&#45;&gt;Node17</title>
<path fill="none" stroke="midnightblue" d="M416.41,-221.568C381.134,-211.381 330.306,-196.703 298.492,-187.516"/>
<polygon fill="midnightblue" stroke="midnightblue" points="415.791,-225.032 426.369,-224.444 417.733,-218.307 415.791,-225.032"/>
</g>
<!-- Node3 -->
<g id="node3" class="node"><title>Node3</title>
<g id="a_node3"><a xlink:href="DragAndDrop_8cpp.html" target="_top" xlink:title="Engine/src/DragAndDrop.cpp">
<polygon fill="white" stroke="black" points="0,-112.5 0,-131.5 144,-131.5 144,-112.5 0,-112.5"/>
<text text-anchor="middle" x="72" y="-119.5" font-family="Helvetica,sans-Serif" font-size="10.00">Engine/src/DragAndDrop.cpp</text>
</a>
</g>
</g>
<!-- Node2&#45;&gt;Node3 -->
<g id="edge2" class="edge"><title>Node2&#45;&gt;Node3</title>
<path fill="none" stroke="midnightblue" d="M105.272,-160.431C96.8599,-150.967 86.6513,-139.483 79.7787,-131.751"/>
<polygon fill="midnightblue" stroke="midnightblue" points="102.814,-162.934 112.074,-168.083 108.046,-158.284 102.814,-162.934"/>
</g>
<!-- Node4 -->
<g id="node4" class="node"><title>Node4</title>
<g id="a_node4"><a xlink:href="Face_8cpp.html" target="_top" xlink:title="Game/src/Face.cpp">
<polygon fill="white" stroke="black" points="162.5,-112.5 162.5,-131.5 265.5,-131.5 265.5,-112.5 162.5,-112.5"/>
<text text-anchor="middle" x="214" y="-119.5" font-family="Helvetica,sans-Serif" font-size="10.00">Game/src/Face.cpp</text>
</a>
</g>
</g>
<!-- Node2&#45;&gt;Node4 -->
<g id="edge3" class="edge"><title>Node2&#45;&gt;Node4</title>
<path fill="none" stroke="midnightblue" d="M144.062,-163.177C161.359,-153.241 184.148,-140.149 198.935,-131.655"/>
<polygon fill="midnightblue" stroke="midnightblue" points="142.03,-160.308 135.103,-168.324 145.517,-166.378 142.03,-160.308"/>
</g>
<!-- Node7 -->
<g id="node7" class="node"><title>Node7</title>
<g id="a_node7"><a xlink:href="EndState_8h.html" target="_top" xlink:title="Game/include/EndState.h">
<polygon fill="white" stroke="black" points="194,-56.5 194,-75.5 322,-75.5 322,-56.5 194,-56.5"/>
<text text-anchor="middle" x="258" y="-63.5" font-family="Helvetica,sans-Serif" font-size="10.00">Game/include/EndState.h</text>
</a>
</g>
</g>
<!-- Node6&#45;&gt;Node7 -->
<g id="edge6" class="edge"><title>Node6&#45;&gt;Node7</title>
<path fill="none" stroke="midnightblue" d="M322.732,-107.59C304.025,-97.6052 281.078,-84.2672 267.955,-75.6545"/>
<polygon fill="midnightblue" stroke="midnightblue" points="321.299,-110.79 331.782,-112.324 324.544,-104.587 321.299,-110.79"/>
</g>
<!-- Node9 -->
<g id="node9" class="node"><title>Node9</title>
<g id="a_node9"><a xlink:href="StageState_8cpp.html" target="_top" xlink:title="Game/src/StageState.cpp">
<polygon fill="white" stroke="black" points="482,-56.5 482,-75.5 612,-75.5 612,-56.5 482,-56.5"/>
<text text-anchor="middle" x="547" y="-63.5" font-family="Helvetica,sans-Serif" font-size="10.00">Game/src/StageState.cpp</text>
</a>
</g>
</g>
<!-- Node6&#45;&gt;Node9 -->
<g id="edge9" class="edge"><title>Node6&#45;&gt;Node9</title>
<path fill="none" stroke="midnightblue" d="M392.81,-109.699C429.613,-99.507 482.929,-84.7429 516.246,-75.5164"/>
<polygon fill="midnightblue" stroke="midnightblue" points="391.602,-106.402 382.898,-112.444 393.47,-113.148 391.602,-106.402"/>
</g>
<!-- Node10 -->
<g id="node10" class="node"><title>Node10</title>
<g id="a_node10"><a xlink:href="TitleState_8cpp.html" target="_top" xlink:title="Game/src/TitleState.cpp">
<polygon fill="white" stroke="black" points="340.5,-56.5 340.5,-75.5 463.5,-75.5 463.5,-56.5 340.5,-56.5"/>
<text text-anchor="middle" x="402" y="-63.5" font-family="Helvetica,sans-Serif" font-size="10.00">Game/src/TitleState.cpp</text>
</a>
</g>
</g>
<!-- Node6&#45;&gt;Node10 -->
<g id="edge10" class="edge"><title>Node6&#45;&gt;Node10</title>
<path fill="none" stroke="midnightblue" d="M367.076,-104.718C375.889,-95.1997 386.666,-83.5608 393.897,-75.7511"/>
<polygon fill="midnightblue" stroke="midnightblue" points="364.482,-102.367 360.256,-112.083 369.619,-107.123 364.482,-102.367"/>
</g>
<!-- Node7&#45;&gt;Node6 -->
<g id="edge7" class="edge"><title>Node7&#45;&gt;Node6</title>
<path fill="none" stroke="midnightblue" d="M287.221,-80.3855C305.921,-90.3643 328.872,-103.703 342.012,-112.324"/>
<polygon fill="midnightblue" stroke="midnightblue" points="288.659,-77.1875 278.175,-75.6545 285.415,-83.3904 288.659,-77.1875"/>
</g>
<!-- Node8 -->
<g id="node8" class="node"><title>Node8</title>
<g id="a_node8"><a xlink:href="EndState_8cpp.html" target="_top" xlink:title="Game/src/EndState.cpp">
<polygon fill="white" stroke="black" points="197,-0.5 197,-19.5 319,-19.5 319,-0.5 197,-0.5"/>
<text text-anchor="middle" x="258" y="-7.5" font-family="Helvetica,sans-Serif" font-size="10.00">Game/src/EndState.cpp</text>
</a>
</g>
</g>
<!-- Node7&#45;&gt;Node8 -->
<g id="edge8" class="edge"><title>Node7&#45;&gt;Node8</title>
<path fill="none" stroke="midnightblue" d="M258,-45.8045C258,-36.9102 258,-26.7798 258,-19.7511"/>
<polygon fill="midnightblue" stroke="midnightblue" points="254.5,-46.083 258,-56.083 261.5,-46.083 254.5,-46.083"/>
</g>
<!-- Node11&#45;&gt;Node6 -->
<g id="edge12" class="edge"><title>Node11&#45;&gt;Node6</title>
<path fill="none" stroke="midnightblue" d="M430.172,-163.59C410.943,-153.605 385.255,-140.267 368.668,-131.655"/>
<polygon fill="midnightblue" stroke="midnightblue" points="428.803,-166.822 439.291,-168.324 432.029,-160.61 428.803,-166.822"/>
</g>
<!-- Node11&#45;&gt;Node12 -->
<g id="edge13" class="edge"><title>Node11&#45;&gt;Node12</title>
<path fill="none" stroke="midnightblue" d="M479.806,-163.177C496.919,-153.241 519.465,-140.149 534.095,-131.655"/>
<polygon fill="midnightblue" stroke="midnightblue" points="477.832,-160.276 470.942,-168.324 481.347,-166.329 477.832,-160.276"/>
</g>
<!-- Node13&#45;&gt;Node9 -->
<g id="edge18" class="edge"><title>Node13&#45;&gt;Node9</title>
<path fill="none" stroke="midnightblue" d="M646.752,-158.485C644.953,-144.424 640.585,-125.304 630,-112 615.917,-94.299 592.898,-82.6055 574.67,-75.5862"/>
<polygon fill="midnightblue" stroke="midnightblue" points="643.27,-158.85 647.713,-168.468 650.238,-158.179 643.27,-158.85"/>
</g>
<!-- Node13&#45;&gt;Node12 -->
<g id="edge19" class="edge"><title>Node13&#45;&gt;Node12</title>
<path fill="none" stroke="midnightblue" d="M623.163,-163.453C604.886,-153.483 580.584,-140.228 564.867,-131.655"/>
<polygon fill="midnightblue" stroke="midnightblue" points="621.639,-166.608 632.094,-168.324 624.991,-160.463 621.639,-166.608"/>
</g>
<!-- Node14 -->
<g id="node14" class="node"><title>Node14</title>
<g id="a_node14"><a xlink:href="GameResources_8h.html" target="_top" xlink:title="Game/include/GameResources.h">
<polygon fill="white" stroke="black" points="677.5,-112.5 677.5,-131.5 838.5,-131.5 838.5,-112.5 677.5,-112.5"/>
<text text-anchor="middle" x="758" y="-119.5" font-family="Helvetica,sans-Serif" font-size="10.00">Game/include/GameResources.h</text>
</a>
</g>
</g>
<!-- Node13&#45;&gt;Node14 -->
<g id="edge15" class="edge"><title>Node13&#45;&gt;Node14</title>
<path fill="none" stroke="midnightblue" d="M674.762,-163.862C695.159,-153.849 722.666,-140.346 740.37,-131.655"/>
<polygon fill="midnightblue" stroke="midnightblue" points="673.108,-160.775 665.673,-168.324 676.192,-167.059 673.108,-160.775"/>
</g>
<!-- Node16 -->
<g id="node16" class="node"><title>Node16</title>
<g id="a_node16"><a xlink:href="Enemy_8cpp.html" target="_top" xlink:title="Game/src/Enemy.cpp">
<polygon fill="white" stroke="black" points="857,-112.5 857,-131.5 969,-131.5 969,-112.5 857,-112.5"/>
<text text-anchor="middle" x="913" y="-119.5" font-family="Helvetica,sans-Serif" font-size="10.00">Game/src/Enemy.cpp</text>
</a>
</g>
</g>
<!-- Node13&#45;&gt;Node16 -->
<g id="edge17" class="edge"><title>Node13&#45;&gt;Node16</title>
<path fill="none" stroke="midnightblue" d="M699.972,-166.41C750.054,-156.204 824.864,-140.96 871.206,-131.516"/>
<polygon fill="midnightblue" stroke="midnightblue" points="699.09,-163.017 689.99,-168.444 700.488,-169.876 699.09,-163.017"/>
</g>
<!-- Node15 -->
<g id="node15" class="node"><title>Node15</title>
<g id="a_node15"><a xlink:href="GameResources_8cpp.html" target="_top" xlink:title="Game/src/GameResources.cpp">
<polygon fill="white" stroke="black" points="680.5,-56.5 680.5,-75.5 835.5,-75.5 835.5,-56.5 680.5,-56.5"/>
<text text-anchor="middle" x="758" y="-63.5" font-family="Helvetica,sans-Serif" font-size="10.00">Game/src/GameResources.cpp</text>
</a>
</g>
</g>
<!-- Node14&#45;&gt;Node15 -->
<g id="edge16" class="edge"><title>Node14&#45;&gt;Node15</title>
<path fill="none" stroke="midnightblue" d="M758,-101.805C758,-92.9102 758,-82.7798 758,-75.7511"/>
<polygon fill="midnightblue" stroke="midnightblue" points="754.5,-102.083 758,-112.083 761.5,-102.083 754.5,-102.083"/>
</g>
<!-- Node17&#45;&gt;Node4 -->
<g id="edge21" class="edge"><title>Node17&#45;&gt;Node4</title>
<path fill="none" stroke="midnightblue" d="M252.706,-161.002C242.959,-151.433 230.947,-139.639 222.913,-131.751"/>
<polygon fill="midnightblue" stroke="midnightblue" points="250.33,-163.575 259.918,-168.083 255.234,-158.58 250.33,-163.575"/>
</g>
<!-- Node17&#45;&gt;Node9 -->
<g id="edge22" class="edge"><title>Node17&#45;&gt;Node9</title>
<path fill="none" stroke="midnightblue" d="M319.002,-166.068C351.06,-158.301 393.22,-146.658 429,-132 439.551,-127.677 502.494,-92.226 531.891,-75.5766"/>
<polygon fill="midnightblue" stroke="midnightblue" points="317.889,-162.735 308.97,-168.453 319.508,-169.545 317.889,-162.735"/>
</g>
</g>
</svg>
