<?xml version="1.0" encoding="UTF-8" standalone="no"?>
<!DOCTYPE svg PUBLIC "-//W3C//DTD SVG 1.1//EN"
 "http://www.w3.org/Graphics/SVG/1.1/DTD/svg11.dtd">
<!-- Generated by graphviz version 2.38.0 (20140413.2041)
 -->
<!-- Title: Engine/include/Tileset.h Pages: 1 -->
<svg width="717pt" height="252pt"
 viewBox="0.00 0.00 717.00 252.00" xmlns="http://www.w3.org/2000/svg" xmlns:xlink="http://www.w3.org/1999/xlink">
<g id="graph0" class="graph" transform="scale(1 1) rotate(0) translate(4 248)">
<title>Engine/include/Tileset.h</title>
<polygon fill="white" stroke="none" points="-4,4 -4,-248 713,-248 713,4 -4,4"/>
<!-- Node1 -->
<g id="node1" class="node"><title>Node1</title>
<polygon fill="#bfbfbf" stroke="black" points="417,-224.5 417,-243.5 538,-243.5 538,-224.5 417,-224.5"/>
<text text-anchor="middle" x="477.5" y="-231.5" font-family="Helvetica,sans-Serif" font-size="10.00">Engine/include/Tileset.h</text>
</g>
<!-- Node2 -->
<g id="node2" class="node"><title>Node2</title>
<g id="a_node2"><a xlink:href="TileMap_8h.html" target="_top" xlink:title="Engine/include/TileMap.h">
<polygon fill="white" stroke="black" points="298.5,-168.5 298.5,-187.5 424.5,-187.5 424.5,-168.5 298.5,-168.5"/>
<text text-anchor="middle" x="361.5" y="-175.5" font-family="Helvetica,sans-Serif" font-size="10.00">Engine/include/TileMap.h</text>
</a>
</g>
</g>
<!-- Node1&#45;&gt;Node2 -->
<g id="edge1" class="edge"><title>Node1&#45;&gt;Node2</title>
<path fill="none" stroke="midnightblue" d="M449.78,-220.096C428.108,-210.007 398.598,-196.27 379.795,-187.516"/>
<polygon fill="midnightblue" stroke="midnightblue" points="448.577,-223.396 459.119,-224.444 451.531,-217.05 448.577,-223.396"/>
</g>
<!-- Node7 -->
<g id="node7" class="node"><title>Node7</title>
<g id="a_node7"><a xlink:href="StageState_8h.html" target="_top" xlink:title="Game/include/StageState.h">
<polygon fill="white" stroke="black" points="435,-112.5 435,-131.5 572,-131.5 572,-112.5 435,-112.5"/>
<text text-anchor="middle" x="503.5" y="-119.5" font-family="Helvetica,sans-Serif" font-size="10.00">Game/include/StageState.h</text>
</a>
</g>
</g>
<!-- Node1&#45;&gt;Node7 -->
<g id="edge16" class="edge"><title>Node1&#45;&gt;Node7</title>
<path fill="none" stroke="midnightblue" d="M481.909,-214.348C487.604,-190.254 497.282,-149.308 501.469,-131.591"/>
<polygon fill="midnightblue" stroke="midnightblue" points="478.434,-213.832 479.54,-224.368 485.247,-215.442 478.434,-213.832"/>
</g>
<!-- Node13 -->
<g id="node13" class="node"><title>Node13</title>
<g id="a_node13"><a xlink:href="Tileset_8cpp.html" target="_top" xlink:title="Engine/src/Tileset.cpp">
<polygon fill="white" stroke="black" points="505.5,-168.5 505.5,-187.5 619.5,-187.5 619.5,-168.5 505.5,-168.5"/>
<text text-anchor="middle" x="562.5" y="-175.5" font-family="Helvetica,sans-Serif" font-size="10.00">Engine/src/Tileset.cpp</text>
</a>
</g>
</g>
<!-- Node1&#45;&gt;Node13 -->
<g id="edge15" class="edge"><title>Node1&#45;&gt;Node13</title>
<path fill="none" stroke="midnightblue" d="M499.694,-218.901C515.28,-208.999 535.63,-196.071 548.877,-187.655"/>
<polygon fill="midnightblue" stroke="midnightblue" points="497.721,-216.007 491.157,-224.324 501.474,-221.916 497.721,-216.007"/>
</g>
<!-- Node3 -->
<g id="node3" class="node"><title>Node3</title>
<g id="a_node3"><a xlink:href="DragAndDrop_8h.html" target="_top" xlink:title="Engine/include/DragAndDrop.h">
<polygon fill="white" stroke="black" points="0,-112.5 0,-131.5 151,-131.5 151,-112.5 0,-112.5"/>
<text text-anchor="middle" x="75.5" y="-119.5" font-family="Helvetica,sans-Serif" font-size="10.00">Engine/include/DragAndDrop.h</text>
</a>
</g>
</g>
<!-- Node2&#45;&gt;Node3 -->
<g id="edge2" class="edge"><title>Node2&#45;&gt;Node3</title>
<path fill="none" stroke="midnightblue" d="M306.086,-166.537C252.034,-156.332 170.829,-140.999 120.606,-131.516"/>
<polygon fill="midnightblue" stroke="midnightblue" points="305.707,-170.027 316.182,-168.444 307.005,-163.149 305.707,-170.027"/>
</g>
<!-- Node6 -->
<g id="node6" class="node"><title>Node6</title>
<g id="a_node6"><a xlink:href="TileMap_8cpp.html" target="_top" xlink:title="Engine/src/TileMap.cpp">
<polygon fill="white" stroke="black" points="169,-112.5 169,-131.5 288,-131.5 288,-112.5 169,-112.5"/>
<text text-anchor="middle" x="228.5" y="-119.5" font-family="Helvetica,sans-Serif" font-size="10.00">Engine/src/TileMap.cpp</text>
</a>
</g>
</g>
<!-- Node2&#45;&gt;Node6 -->
<g id="edge5" class="edge"><title>Node2&#45;&gt;Node6</title>
<path fill="none" stroke="midnightblue" d="M331.052,-164.638C306.093,-154.504 271.423,-140.427 249.476,-131.516"/>
<polygon fill="midnightblue" stroke="midnightblue" points="329.844,-167.924 340.426,-168.444 332.477,-161.439 329.844,-167.924"/>
</g>
<!-- Node2&#45;&gt;Node7 -->
<g id="edge6" class="edge"><title>Node2&#45;&gt;Node7</title>
<path fill="none" stroke="midnightblue" d="M393.655,-164.772C420.328,-154.629 457.569,-140.467 481.105,-131.516"/>
<polygon fill="midnightblue" stroke="midnightblue" points="392.103,-161.618 384,-168.444 394.591,-168.16 392.103,-161.618"/>
</g>
<!-- Node12 -->
<g id="node12" class="node"><title>Node12</title>
<g id="a_node12"><a xlink:href="Face_8h.html" target="_top" xlink:title="Game/include/Face.h">
<polygon fill="white" stroke="black" points="306.5,-112.5 306.5,-131.5 416.5,-131.5 416.5,-112.5 306.5,-112.5"/>
<text text-anchor="middle" x="361.5" y="-119.5" font-family="Helvetica,sans-Serif" font-size="10.00">Game/include/Face.h</text>
</a>
</g>
</g>
<!-- Node2&#45;&gt;Node12 -->
<g id="edge12" class="edge"><title>Node2&#45;&gt;Node12</title>
<path fill="none" stroke="midnightblue" d="M361.5,-157.805C361.5,-148.91 361.5,-138.78 361.5,-131.751"/>
<polygon fill="midnightblue" stroke="midnightblue" points="358,-158.083 361.5,-168.083 365,-158.083 358,-158.083"/>
</g>
<!-- Node4 -->
<g id="node4" class="node"><title>Node4</title>
<g id="a_node4"><a xlink:href="DragAndDrop_8cpp.html" target="_top" xlink:title="Engine/src/DragAndDrop.cpp">
<polygon fill="white" stroke="black" points="3.5,-56.5 3.5,-75.5 147.5,-75.5 147.5,-56.5 3.5,-56.5"/>
<text text-anchor="middle" x="75.5" y="-63.5" font-family="Helvetica,sans-Serif" font-size="10.00">Engine/src/DragAndDrop.cpp</text>
</a>
</g>
</g>
<!-- Node3&#45;&gt;Node4 -->
<g id="edge3" class="edge"><title>Node3&#45;&gt;Node4</title>
<path fill="none" stroke="midnightblue" d="M75.5,-101.805C75.5,-92.9102 75.5,-82.7798 75.5,-75.7511"/>
<polygon fill="midnightblue" stroke="midnightblue" points="72.0001,-102.083 75.5,-112.083 79.0001,-102.083 72.0001,-102.083"/>
</g>
<!-- Node5 -->
<g id="node5" class="node"><title>Node5</title>
<g id="a_node5"><a xlink:href="Face_8cpp.html" target="_top" xlink:title="Game/src/Face.cpp">
<polygon fill="white" stroke="black" points="168,-56.5 168,-75.5 271,-75.5 271,-56.5 168,-56.5"/>
<text text-anchor="middle" x="219.5" y="-63.5" font-family="Helvetica,sans-Serif" font-size="10.00">Game/src/Face.cpp</text>
</a>
</g>
</g>
<!-- Node3&#45;&gt;Node5 -->
<g id="edge4" class="edge"><title>Node3&#45;&gt;Node5</title>
<path fill="none" stroke="midnightblue" d="M107.751,-108.906C134.824,-98.7536 172.817,-84.5063 196.79,-75.5164"/>
<polygon fill="midnightblue" stroke="midnightblue" points="106.452,-105.655 98.3172,-112.444 108.909,-112.209 106.452,-105.655"/>
</g>
<!-- Node8 -->
<g id="node8" class="node"><title>Node8</title>
<g id="a_node8"><a xlink:href="EndState_8h.html" target="_top" xlink:title="Game/include/EndState.h">
<polygon fill="white" stroke="black" points="439.5,-56.5 439.5,-75.5 567.5,-75.5 567.5,-56.5 439.5,-56.5"/>
<text text-anchor="middle" x="503.5" y="-63.5" font-family="Helvetica,sans-Serif" font-size="10.00">Game/include/EndState.h</text>
</a>
</g>
</g>
<!-- Node7&#45;&gt;Node8 -->
<g id="edge7" class="edge"><title>Node7&#45;&gt;Node8</title>
<path fill="none" stroke="midnightblue" d="M497.028,-102.101C496.396,-93.1357 496.843,-82.8579 498.369,-75.7511"/>
<polygon fill="midnightblue" stroke="midnightblue" points="493.566,-102.622 498.334,-112.083 500.507,-101.713 493.566,-102.622"/>
</g>
<!-- Node10 -->
<g id="node10" class="node"><title>Node10</title>
<g id="a_node10"><a xlink:href="StageState_8cpp.html" target="_top" xlink:title="Game/src/StageState.cpp">
<polygon fill="white" stroke="black" points="291.5,-56.5 291.5,-75.5 421.5,-75.5 421.5,-56.5 291.5,-56.5"/>
<text text-anchor="middle" x="356.5" y="-63.5" font-family="Helvetica,sans-Serif" font-size="10.00">Game/src/StageState.cpp</text>
</a>
</g>
</g>
<!-- Node7&#45;&gt;Node10 -->
<g id="edge10" class="edge"><title>Node7&#45;&gt;Node10</title>
<path fill="none" stroke="midnightblue" d="M470.577,-108.906C442.94,-98.7536 404.156,-84.5063 379.684,-75.5164"/>
<polygon fill="midnightblue" stroke="midnightblue" points="469.614,-112.281 480.207,-112.444 472.028,-105.71 469.614,-112.281"/>
</g>
<!-- Node11 -->
<g id="node11" class="node"><title>Node11</title>
<g id="a_node11"><a xlink:href="TitleState_8cpp.html" target="_top" xlink:title="Game/src/TitleState.cpp">
<polygon fill="white" stroke="black" points="586,-56.5 586,-75.5 709,-75.5 709,-56.5 586,-56.5"/>
<text text-anchor="middle" x="647.5" y="-63.5" font-family="Helvetica,sans-Serif" font-size="10.00">Game/src/TitleState.cpp</text>
</a>
</g>
</g>
<!-- Node7&#45;&gt;Node11 -->
<g id="edge11" class="edge"><title>Node7&#45;&gt;Node11</title>
<path fill="none" stroke="midnightblue" d="M535.751,-108.906C562.824,-98.7536 600.817,-84.5063 624.79,-75.5164"/>
<polygon fill="midnightblue" stroke="midnightblue" points="534.452,-105.655 526.317,-112.444 536.909,-112.209 534.452,-105.655"/>
</g>
<!-- Node8&#45;&gt;Node7 -->
<g id="edge8" class="edge"><title>Node8&#45;&gt;Node7</title>
<path fill="none" stroke="midnightblue" d="M509.958,-85.6911C510.606,-94.6353 510.176,-104.927 508.666,-112.083"/>
<polygon fill="midnightblue" stroke="midnightblue" points="513.423,-85.2002 508.631,-75.7511 506.485,-86.1262 513.423,-85.2002"/>
</g>
<!-- Node9 -->
<g id="node9" class="node"><title>Node9</title>
<g id="a_node9"><a xlink:href="EndState_8cpp.html" target="_top" xlink:title="Game/src/EndState.cpp">
<polygon fill="white" stroke="black" points="442.5,-0.5 442.5,-19.5 564.5,-19.5 564.5,-0.5 442.5,-0.5"/>
<text text-anchor="middle" x="503.5" y="-7.5" font-family="Helvetica,sans-Serif" font-size="10.00">Game/src/EndState.cpp</text>
</a>
</g>
</g>
<!-- Node8&#45;&gt;Node9 -->
<g id="edge9" class="edge"><title>Node8&#45;&gt;Node9</title>
<path fill="none" stroke="midnightblue" d="M503.5,-45.8045C503.5,-36.9102 503.5,-26.7798 503.5,-19.7511"/>
<polygon fill="midnightblue" stroke="midnightblue" points="500,-46.083 503.5,-56.083 507,-46.083 500,-46.083"/>
</g>
<!-- Node12&#45;&gt;Node5 -->
<g id="edge13" class="edge"><title>Node12&#45;&gt;Node5</title>
<path fill="none" stroke="midnightblue" d="M329.345,-108.772C302.672,-98.6287 265.431,-84.4669 241.895,-75.5164"/>
<polygon fill="midnightblue" stroke="midnightblue" points="328.409,-112.16 339,-112.444 330.897,-105.618 328.409,-112.16"/>
</g>
<!-- Node12&#45;&gt;Node10 -->
<g id="edge14" class="edge"><title>Node12&#45;&gt;Node10</title>
<path fill="none" stroke="midnightblue" d="M359.75,-102.101C358.92,-93.1357 357.968,-82.8579 357.31,-75.7511"/>
<polygon fill="midnightblue" stroke="midnightblue" points="356.267,-102.448 360.674,-112.083 363.237,-101.803 356.267,-102.448"/>
</g>
</g>
</svg>
