<?xml version="1.0" encoding="UTF-8" standalone="no"?>
<!DOCTYPE svg PUBLIC "-//W3C//DTD SVG 1.1//EN"
 "http://www.w3.org/Graphics/SVG/1.1/DTD/svg11.dtd">
<!-- Generated by graphviz version 2.38.0 (20140413.2041)
 -->
<!-- Title: Engine/include/TileMap.h Pages: 1 -->
<svg width="622pt" height="308pt"
 viewBox="0.00 0.00 621.50 308.00" xmlns="http://www.w3.org/2000/svg" xmlns:xlink="http://www.w3.org/1999/xlink">
<g id="graph0" class="graph" transform="scale(1 1) rotate(0) translate(4 304)">
<title>Engine/include/TileMap.h</title>
<polygon fill="white" stroke="none" points="-4,4 -4,-304 617.5,-304 617.5,4 -4,4"/>
<!-- Node1 -->
<g id="node1" class="node"><title>Node1</title>
<polygon fill="#bfbfbf" stroke="black" points="212.5,-280.5 212.5,-299.5 338.5,-299.5 338.5,-280.5 212.5,-280.5"/>
<text text-anchor="middle" x="275.5" y="-287.5" font-family="Helvetica,sans-Serif" font-size="10.00">Engine/include/TileMap.h</text>
</g>
<!-- Node2 -->
<g id="node2" class="node"><title>Node2</title>
<polygon fill="white" stroke="#bfbfbf" points="0,-112.5 0,-131.5 41,-131.5 41,-112.5 0,-112.5"/>
<text text-anchor="middle" x="20.5" y="-119.5" font-family="Helvetica,sans-Serif" font-size="10.00">string</text>
</g>
<!-- Node1&#45;&gt;Node2 -->
<g id="edge1" class="edge"><title>Node1&#45;&gt;Node2</title>
<path fill="none" stroke="midnightblue" d="M245.225,-280.385C220.657,-272.717 185.611,-260.209 157.5,-244 123.285,-224.271 118.133,-214.111 88.5,-188 70.0628,-171.754 49.8071,-152.15 36.2402,-138.748"/>
<polygon fill="midnightblue" stroke="midnightblue" points="38.6511,-136.21 29.0894,-131.646 33.7183,-141.176 38.6511,-136.21"/>
</g>
<!-- Node3 -->
<g id="node3" class="node"><title>Node3</title>
<polygon fill="white" stroke="#bfbfbf" points="569.5,-112.5 569.5,-131.5 613.5,-131.5 613.5,-112.5 569.5,-112.5"/>
<text text-anchor="middle" x="591.5" y="-119.5" font-family="Helvetica,sans-Serif" font-size="10.00">vector</text>
</g>
<!-- Node1&#45;&gt;Node3 -->
<g id="edge2" class="edge"><title>Node1&#45;&gt;Node3</title>
<path fill="none" stroke="midnightblue" d="M292.569,-280.387C310.49,-271.34 339.486,-256.691 364.5,-244 413.423,-219.179 426.07,-213.77 474.5,-188 506.953,-170.732 543.978,-149.983 567.53,-136.65"/>
<polygon fill="midnightblue" stroke="midnightblue" points="569.479,-139.568 576.45,-131.59 566.025,-133.48 569.479,-139.568"/>
</g>
<!-- Node4 -->
<g id="node4" class="node"><title>Node4</title>
<g id="a_node4"><a xlink:href="GameObject_8h.html" target="_top" xlink:title="GameObject.h">
<polygon fill="white" stroke="black" points="385.5,-168.5 385.5,-187.5 465.5,-187.5 465.5,-168.5 385.5,-168.5"/>
<text text-anchor="middle" x="425.5" y="-175.5" font-family="Helvetica,sans-Serif" font-size="10.00">GameObject.h</text>
</a>
</g>
</g>
<!-- Node1&#45;&gt;Node4 -->
<g id="edge3" class="edge"><title>Node1&#45;&gt;Node4</title>
<path fill="none" stroke="midnightblue" d="M287.27,-280.368C312.901,-261.573 373.998,-216.768 405.682,-193.533"/>
<polygon fill="midnightblue" stroke="midnightblue" points="407.79,-196.328 413.784,-187.591 403.651,-190.683 407.79,-196.328"/>
</g>
<!-- Node9 -->
<g id="node9" class="node"><title>Node9</title>
<g id="a_node9"><a xlink:href="Vec2_8h.html" target="_top" xlink:title="Vec2.h">
<polygon fill="white" stroke="black" points="303,-56.5 303,-75.5 350,-75.5 350,-56.5 303,-56.5"/>
<text text-anchor="middle" x="326.5" y="-63.5" font-family="Helvetica,sans-Serif" font-size="10.00">Vec2.h</text>
</a>
</g>
</g>
<!-- Node1&#45;&gt;Node9 -->
<g id="edge28" class="edge"><title>Node1&#45;&gt;Node9</title>
<path fill="none" stroke="midnightblue" d="M274.911,-280.167C273.462,-253.678 271.373,-172.972 294.5,-112 298.445,-101.6 305.388,-91.3828 311.8,-83.3195"/>
<polygon fill="midnightblue" stroke="midnightblue" points="314.615,-85.4106 318.384,-75.5086 309.263,-80.8993 314.615,-85.4106"/>
</g>
<!-- Node11 -->
<g id="node11" class="node"><title>Node11</title>
<g id="a_node11"><a xlink:href="Tileset_8h.html" target="_top" xlink:title="Tileset.h">
<polygon fill="white" stroke="black" points="166.5,-224.5 166.5,-243.5 220.5,-243.5 220.5,-224.5 166.5,-224.5"/>
<text text-anchor="middle" x="193.5" y="-231.5" font-family="Helvetica,sans-Serif" font-size="10.00">Tileset.h</text>
</a>
</g>
</g>
<!-- Node1&#45;&gt;Node11 -->
<g id="edge15" class="edge"><title>Node1&#45;&gt;Node11</title>
<path fill="none" stroke="midnightblue" d="M262.325,-280.324C249.653,-271.979 230.267,-259.212 215.294,-249.352"/>
<polygon fill="midnightblue" stroke="midnightblue" points="216.919,-246.231 206.642,-243.655 213.069,-252.078 216.919,-246.231"/>
</g>
<!-- Node4&#45;&gt;Node2 -->
<g id="edge7" class="edge"><title>Node4&#45;&gt;Node2</title>
<path fill="none" stroke="midnightblue" d="M385.449,-174.465C318.216,-169.719 178.358,-157.743 50.9666,-131.731"/>
<polygon fill="midnightblue" stroke="midnightblue" points="51.5399,-128.275 41.0371,-129.669 50.1167,-135.129 51.5399,-128.275"/>
</g>
<!-- Node4&#45;&gt;Node3 -->
<g id="edge5" class="edge"><title>Node4&#45;&gt;Node3</title>
<path fill="none" stroke="midnightblue" d="M451.803,-168.444C481.088,-158.917 528.411,-143.523 559.738,-133.332"/>
<polygon fill="midnightblue" stroke="midnightblue" points="560.877,-136.642 569.304,-130.22 558.712,-129.986 560.877,-136.642"/>
</g>
<!-- Node5 -->
<g id="node5" class="node"><title>Node5</title>
<g id="a_node5"><a xlink:href="SDL__include_8h.html" target="_top" xlink:title="SDL_include.h">
<polygon fill="white" stroke="black" points="286.5,-0.5 286.5,-19.5 366.5,-19.5 366.5,-0.5 286.5,-0.5"/>
<text text-anchor="middle" x="326.5" y="-7.5" font-family="Helvetica,sans-Serif" font-size="10.00">SDL_include.h</text>
</a>
</g>
</g>
<!-- Node4&#45;&gt;Node5 -->
<g id="edge4" class="edge"><title>Node4&#45;&gt;Node5</title>
<path fill="none" stroke="midnightblue" d="M462.611,-168.493C494.818,-159.011 534.412,-141.062 521.5,-112 496.518,-55.7719 425.54,-30.2984 376.485,-19.1494"/>
<polygon fill="midnightblue" stroke="midnightblue" points="377.193,-15.7216 366.681,-17.0437 375.723,-22.5656 377.193,-15.7216"/>
</g>
<!-- Node6 -->
<g id="node6" class="node"><title>Node6</title>
<polygon fill="white" stroke="#bfbfbf" points="367.5,-112.5 367.5,-131.5 419.5,-131.5 419.5,-112.5 367.5,-112.5"/>
<text text-anchor="middle" x="393.5" y="-119.5" font-family="Helvetica,sans-Serif" font-size="10.00">memory</text>
</g>
<!-- Node4&#45;&gt;Node6 -->
<g id="edge6" class="edge"><title>Node4&#45;&gt;Node6</title>
<path fill="none" stroke="midnightblue" d="M420.216,-168.083C415.789,-160.613 409.337,-149.724 403.882,-140.52"/>
<polygon fill="midnightblue" stroke="midnightblue" points="406.795,-138.57 398.686,-131.751 400.773,-142.138 406.795,-138.57"/>
</g>
<!-- Node7 -->
<g id="node7" class="node"><title>Node7</title>
<g id="a_node7"><a xlink:href="Component_8h.html" target="_top" xlink:title="Component.h">
<polygon fill="white" stroke="black" points="438,-112.5 438,-131.5 513,-131.5 513,-112.5 438,-112.5"/>
<text text-anchor="middle" x="475.5" y="-119.5" font-family="Helvetica,sans-Serif" font-size="10.00">Component.h</text>
</a>
</g>
</g>
<!-- Node4&#45;&gt;Node7 -->
<g id="edge8" class="edge"><title>Node4&#45;&gt;Node7</title>
<path fill="none" stroke="midnightblue" d="M428.59,-168.083C434.269,-160.141 444.853,-148.335 454.668,-138.797"/>
<polygon fill="midnightblue" stroke="midnightblue" points="457.314,-141.117 462.266,-131.751 452.554,-135.985 457.314,-141.117"/>
</g>
<!-- Node8 -->
<g id="node8" class="node"><title>Node8</title>
<g id="a_node8"><a xlink:href="Rect_8h.html" target="_top" xlink:title="Rect.h">
<polygon fill="white" stroke="black" points="303.5,-112.5 303.5,-131.5 349.5,-131.5 349.5,-112.5 303.5,-112.5"/>
<text text-anchor="middle" x="326.5" y="-119.5" font-family="Helvetica,sans-Serif" font-size="10.00">Rect.h</text>
</a>
</g>
</g>
<!-- Node4&#45;&gt;Node8 -->
<g id="edge10" class="edge"><title>Node4&#45;&gt;Node8</title>
<path fill="none" stroke="midnightblue" d="M409.594,-168.324C393.862,-159.743 369.558,-146.486 351.291,-136.522"/>
<polygon fill="midnightblue" stroke="midnightblue" points="352.822,-133.37 342.367,-131.655 349.47,-139.516 352.822,-133.37"/>
</g>
<!-- Node7&#45;&gt;Node4 -->
<g id="edge9" class="edge"><title>Node7&#45;&gt;Node4</title>
<path fill="none" stroke="midnightblue" d="M472.469,-131.834C466.795,-139.791 456.143,-151.673 446.28,-161.253"/>
<polygon fill="midnightblue" stroke="midnightblue" points="443.605,-158.96 438.648,-168.324 448.362,-164.095 443.605,-158.96"/>
</g>
<!-- Node8&#45;&gt;Node5 -->
<g id="edge11" class="edge"><title>Node8&#45;&gt;Node5</title>
<path fill="none" stroke="midnightblue" d="M335.251,-112.286C343.063,-103.84 353.951,-90.2462 358.5,-76 364.024,-58.7008 353.139,-40.2402 342.597,-27.4303"/>
<polygon fill="midnightblue" stroke="midnightblue" points="345.157,-25.0418 335.895,-19.8974 339.927,-29.6949 345.157,-25.0418"/>
</g>
<!-- Node8&#45;&gt;Node9 -->
<g id="edge12" class="edge"><title>Node8&#45;&gt;Node9</title>
<path fill="none" stroke="midnightblue" d="M326.5,-112.083C326.5,-105.006 326.5,-94.8611 326.5,-85.9865"/>
<polygon fill="midnightblue" stroke="midnightblue" points="330,-85.751 326.5,-75.7511 323,-85.7511 330,-85.751"/>
</g>
<!-- Node10 -->
<g id="node10" class="node"><title>Node10</title>
<polygon fill="white" stroke="#bfbfbf" points="406.5,-56.5 406.5,-75.5 450.5,-75.5 450.5,-56.5 406.5,-56.5"/>
<text text-anchor="middle" x="428.5" y="-63.5" font-family="Helvetica,sans-Serif" font-size="10.00">cmath</text>
</g>
<!-- Node8&#45;&gt;Node10 -->
<g id="edge14" class="edge"><title>Node8&#45;&gt;Node10</title>
<path fill="none" stroke="midnightblue" d="M342.888,-112.324C359.171,-103.703 384.367,-90.3643 403.216,-80.3855"/>
<polygon fill="midnightblue" stroke="midnightblue" points="404.952,-83.4267 412.153,-75.6545 401.677,-77.2402 404.952,-83.4267"/>
</g>
<!-- Node9&#45;&gt;Node5 -->
<g id="edge13" class="edge"><title>Node9&#45;&gt;Node5</title>
<path fill="none" stroke="midnightblue" d="M326.5,-56.083C326.5,-49.0059 326.5,-38.8611 326.5,-29.9865"/>
<polygon fill="midnightblue" stroke="midnightblue" points="330,-29.751 326.5,-19.7511 323,-29.7511 330,-29.751"/>
</g>
<!-- Node11&#45;&gt;Node2 -->
<g id="edge16" class="edge"><title>Node11&#45;&gt;Node2</title>
<path fill="none" stroke="midnightblue" d="M179.925,-224.368C150.238,-205.492 79.2964,-160.385 42.8904,-137.237"/>
<polygon fill="midnightblue" stroke="midnightblue" points="44.3286,-134.004 34.012,-131.591 40.5726,-139.911 44.3286,-134.004"/>
</g>
<!-- Node12 -->
<g id="node12" class="node"><title>Node12</title>
<g id="a_node12"><a xlink:href="Sprite_8h.html" target="_top" xlink:title="Sprite.h">
<polygon fill="white" stroke="black" points="168.5,-168.5 168.5,-187.5 218.5,-187.5 218.5,-168.5 168.5,-168.5"/>
<text text-anchor="middle" x="193.5" y="-175.5" font-family="Helvetica,sans-Serif" font-size="10.00">Sprite.h</text>
</a>
</g>
</g>
<!-- Node11&#45;&gt;Node12 -->
<g id="edge17" class="edge"><title>Node11&#45;&gt;Node12</title>
<path fill="none" stroke="midnightblue" d="M193.5,-224.083C193.5,-217.006 193.5,-206.861 193.5,-197.986"/>
<polygon fill="midnightblue" stroke="midnightblue" points="197,-197.751 193.5,-187.751 190,-197.751 197,-197.751"/>
</g>
<!-- Node12&#45;&gt;Node2 -->
<g id="edge19" class="edge"><title>Node12&#45;&gt;Node2</title>
<path fill="none" stroke="midnightblue" d="M168.344,-169.148C137.176,-159.419 84.1145,-142.857 50.7557,-132.444"/>
<polygon fill="midnightblue" stroke="midnightblue" points="51.6702,-129.063 41.0815,-129.424 49.5844,-135.745 51.6702,-129.063"/>
</g>
<!-- Node12&#45;&gt;Node5 -->
<g id="edge18" class="edge"><title>Node12&#45;&gt;Node5</title>
<path fill="none" stroke="midnightblue" d="M182.525,-168.243C157.846,-148.274 99.3506,-99.2978 89.5,-76 86.0384,-67.8128 83.8311,-62.8466 89.5,-56 112.714,-27.9637 213.669,-17.2539 276.091,-13.267"/>
<polygon fill="midnightblue" stroke="midnightblue" points="276.366,-16.7569 286.138,-12.6619 275.945,-9.76955 276.366,-16.7569"/>
</g>
<!-- Node12&#45;&gt;Node6 -->
<g id="edge20" class="edge"><title>Node12&#45;&gt;Node6</title>
<path fill="none" stroke="midnightblue" d="M218.83,-170.161C253.93,-160.684 317.546,-143.508 357.55,-132.707"/>
<polygon fill="midnightblue" stroke="midnightblue" points="358.684,-136.026 367.426,-130.04 356.859,-129.268 358.684,-136.026"/>
</g>
<!-- Node12&#45;&gt;Node8 -->
<g id="edge22" class="edge"><title>Node12&#45;&gt;Node8</title>
<path fill="none" stroke="midnightblue" d="M214.574,-168.444C236.56,-159.517 271.234,-145.439 296.164,-135.317"/>
<polygon fill="midnightblue" stroke="midnightblue" points="297.576,-138.521 305.524,-131.516 294.942,-132.035 297.576,-138.521"/>
</g>
<!-- Node13 -->
<g id="node13" class="node"><title>Node13</title>
<g id="a_node13"><a xlink:href="Color_8h.html" target="_top" xlink:title="Color.h">
<polygon fill="white" stroke="black" points="59.5,-112.5 59.5,-131.5 107.5,-131.5 107.5,-112.5 59.5,-112.5"/>
<text text-anchor="middle" x="83.5" y="-119.5" font-family="Helvetica,sans-Serif" font-size="10.00">Color.h</text>
</a>
</g>
</g>
<!-- Node12&#45;&gt;Node13 -->
<g id="edge21" class="edge"><title>Node12&#45;&gt;Node13</title>
<path fill="none" stroke="midnightblue" d="M175.827,-168.324C158.106,-159.625 130.597,-146.12 110.212,-136.113"/>
<polygon fill="midnightblue" stroke="midnightblue" points="111.649,-132.919 101.13,-131.655 108.564,-139.203 111.649,-132.919"/>
</g>
<!-- Node14 -->
<g id="node14" class="node"><title>Node14</title>
<g id="a_node14"><a xlink:href="InputManager_8h.html" target="_top" xlink:title="InputManager.h">
<polygon fill="white" stroke="black" points="163.5,-112.5 163.5,-131.5 247.5,-131.5 247.5,-112.5 163.5,-112.5"/>
<text text-anchor="middle" x="205.5" y="-119.5" font-family="Helvetica,sans-Serif" font-size="10.00">InputManager.h</text>
</a>
</g>
</g>
<!-- Node12&#45;&gt;Node14 -->
<g id="edge23" class="edge"><title>Node12&#45;&gt;Node14</title>
<path fill="none" stroke="midnightblue" d="M195.482,-168.083C197.072,-160.927 199.359,-150.635 201.346,-141.691"/>
<polygon fill="midnightblue" stroke="midnightblue" points="204.803,-142.272 203.555,-131.751 197.969,-140.754 204.803,-142.272"/>
</g>
<!-- Node14&#45;&gt;Node5 -->
<g id="edge24" class="edge"><title>Node14&#45;&gt;Node5</title>
<path fill="none" stroke="midnightblue" d="M215.107,-112.397C225.19,-103.359 241.491,-88.7159 255.5,-76 273.912,-59.2867 294.907,-40.0428 309.262,-26.8564"/>
<polygon fill="midnightblue" stroke="midnightblue" points="311.883,-29.2013 316.877,-19.8574 307.146,-24.0476 311.883,-29.2013"/>
</g>
<!-- Node14&#45;&gt;Node9 -->
<g id="edge25" class="edge"><title>Node14&#45;&gt;Node9</title>
<path fill="none" stroke="midnightblue" d="M224.673,-112.444C244.409,-103.636 275.385,-89.8116 297.993,-79.722"/>
<polygon fill="midnightblue" stroke="midnightblue" points="299.711,-82.788 307.417,-75.5164 296.859,-76.3957 299.711,-82.788"/>
</g>
<!-- Node15 -->
<g id="node15" class="node"><title>Node15</title>
<polygon fill="white" stroke="#bfbfbf" points="99,-56.5 99,-75.5 182,-75.5 182,-56.5 99,-56.5"/>
<text text-anchor="middle" x="140.5" y="-63.5" font-family="Helvetica,sans-Serif" font-size="10.00">unordered_map</text>
</g>
<!-- Node14&#45;&gt;Node15 -->
<g id="edge26" class="edge"><title>Node14&#45;&gt;Node15</title>
<path fill="none" stroke="midnightblue" d="M195.057,-112.324C185.354,-104.263 170.685,-92.0765 159,-82.3695"/>
<polygon fill="midnightblue" stroke="midnightblue" points="161.062,-79.532 151.133,-75.8339 156.589,-84.9163 161.062,-79.532"/>
</g>
<!-- Node16 -->
<g id="node16" class="node"><title>Node16</title>
<polygon fill="white" stroke="#bfbfbf" points="200.5,-56.5 200.5,-75.5 246.5,-75.5 246.5,-56.5 200.5,-56.5"/>
<text text-anchor="middle" x="223.5" y="-63.5" font-family="Helvetica,sans-Serif" font-size="10.00">cstdint</text>
</g>
<!-- Node14&#45;&gt;Node16 -->
<g id="edge27" class="edge"><title>Node14&#45;&gt;Node16</title>
<path fill="none" stroke="midnightblue" d="M208.472,-112.083C210.884,-104.849 214.364,-94.4087 217.368,-85.3968"/>
<polygon fill="midnightblue" stroke="midnightblue" points="220.741,-86.3447 220.583,-75.7511 214.1,-84.1311 220.741,-86.3447"/>
</g>
</g>
</svg>
