<?xml version="1.0" encoding="UTF-8" standalone="no"?>
<!DOCTYPE svg PUBLIC "-//W3C//DTD SVG 1.1//EN"
 "http://www.w3.org/Graphics/SVG/1.1/DTD/svg11.dtd">
<!-- Generated by graphviz version 2.38.0 (20140413.2041)
 -->
<!-- Title: Engine/src/TileMap.cpp Pages: 1 -->
<svg width="893pt" height="252pt"
 viewBox="0.00 0.00 892.50 252.00" xmlns="http://www.w3.org/2000/svg" xmlns:xlink="http://www.w3.org/1999/xlink">
<g id="graph0" class="graph" transform="scale(1 1) rotate(0) translate(4 248)">
<title>Engine/src/TileMap.cpp</title>
<polygon fill="white" stroke="none" points="-4,4 -4,-248 888.5,-248 888.5,4 -4,4"/>
<!-- Node0 -->
<g id="node1" class="node"><title>Node0</title>
<polygon fill="#bfbfbf" stroke="black" points="174,-224.5 174,-243.5 293,-243.5 293,-224.5 174,-224.5"/>
<text text-anchor="middle" x="233.5" y="-231.5" font-family="Helvetica,sans-Serif" font-size="10.00">Engine/src/TileMap.cpp</text>
</g>
<!-- Node1 -->
<g id="node2" class="node"><title>Node1</title>
<polygon fill="white" stroke="#bfbfbf" points="0,-168.5 0,-187.5 59,-187.5 59,-168.5 0,-168.5"/>
<text text-anchor="middle" x="29.5" y="-175.5" font-family="Helvetica,sans-Serif" font-size="10.00">exception</text>
</g>
<!-- Node0&#45;&gt;Node1 -->
<g id="edge1" class="edge"><title>Node0&#45;&gt;Node1</title>
<path fill="none" stroke="midnightblue" d="M201.176,-224.444C165.285,-214.943 107.35,-199.607 68.8497,-189.416"/>
<polygon fill="midnightblue" stroke="midnightblue" points="69.5864,-185.991 59.0237,-186.815 67.7951,-192.758 69.5864,-185.991"/>
</g>
<!-- Node2 -->
<g id="node3" class="node"><title>Node2</title>
<polygon fill="white" stroke="#bfbfbf" points="77,-168.5 77,-187.5 120,-187.5 120,-168.5 77,-168.5"/>
<text text-anchor="middle" x="98.5" y="-175.5" font-family="Helvetica,sans-Serif" font-size="10.00">cstdio</text>
</g>
<!-- Node0&#45;&gt;Node2 -->
<g id="edge2" class="edge"><title>Node0&#45;&gt;Node2</title>
<path fill="none" stroke="midnightblue" d="M212.109,-224.444C189.793,-215.517 154.597,-201.439 129.292,-191.317"/>
<polygon fill="midnightblue" stroke="midnightblue" points="130.376,-187.981 119.791,-187.516 127.776,-194.48 130.376,-187.981"/>
</g>
<!-- Node3 -->
<g id="node4" class="node"><title>Node3</title>
<polygon fill="white" stroke="#bfbfbf" points="82.5,-112.5 82.5,-131.5 136.5,-131.5 136.5,-112.5 82.5,-112.5"/>
<text text-anchor="middle" x="109.5" y="-119.5" font-family="Helvetica,sans-Serif" font-size="10.00">iostream</text>
</g>
<!-- Node0&#45;&gt;Node3 -->
<g id="edge3" class="edge"><title>Node0&#45;&gt;Node3</title>
<path fill="none" stroke="midnightblue" d="M218.865,-224.459C204.98,-216.033 183.864,-202.362 167.5,-188 150.529,-173.106 133.626,-153.476 122.484,-139.701"/>
<polygon fill="midnightblue" stroke="midnightblue" points="125.012,-137.256 116.051,-131.602 119.531,-141.61 125.012,-137.256"/>
</g>
<!-- Node4 -->
<g id="node5" class="node"><title>Node4</title>
<polygon fill="white" stroke="#bfbfbf" points="240.5,-168.5 240.5,-187.5 296.5,-187.5 296.5,-168.5 240.5,-168.5"/>
<text text-anchor="middle" x="268.5" y="-175.5" font-family="Helvetica,sans-Serif" font-size="10.00">algorithm</text>
</g>
<!-- Node0&#45;&gt;Node4 -->
<g id="edge4" class="edge"><title>Node0&#45;&gt;Node4</title>
<path fill="none" stroke="midnightblue" d="M239.28,-224.083C244.172,-216.534 251.327,-205.495 257.333,-196.23"/>
<polygon fill="midnightblue" stroke="midnightblue" points="260.326,-198.046 262.828,-187.751 254.452,-194.239 260.326,-198.046"/>
</g>
<!-- Node5 -->
<g id="node6" class="node"><title>Node5</title>
<g id="a_node6"><a xlink:href="TileMap_8h.html" target="_top" xlink:title="TileMap.h">
<polygon fill="white" stroke="black" points="328,-168.5 328,-187.5 387,-187.5 387,-168.5 328,-168.5"/>
<text text-anchor="middle" x="357.5" y="-175.5" font-family="Helvetica,sans-Serif" font-size="10.00">TileMap.h</text>
</a>
</g>
</g>
<!-- Node0&#45;&gt;Node5 -->
<g id="edge5" class="edge"><title>Node0&#45;&gt;Node5</title>
<path fill="none" stroke="midnightblue" d="M253.148,-224.444C273.465,-215.596 305.403,-201.687 328.598,-191.586"/>
<polygon fill="midnightblue" stroke="midnightblue" points="330.173,-194.718 337.944,-187.516 327.378,-188.3 330.173,-194.718"/>
</g>
<!-- Node18 -->
<g id="node19" class="node"><title>Node18</title>
<g id="a_node19"><a xlink:href="Error_8h.html" target="_top" xlink:title="Error.h">
<polygon fill="white" stroke="black" points="176.5,-168.5 176.5,-187.5 222.5,-187.5 222.5,-168.5 176.5,-168.5"/>
<text text-anchor="middle" x="199.5" y="-175.5" font-family="Helvetica,sans-Serif" font-size="10.00">Error.h</text>
</a>
</g>
</g>
<!-- Node0&#45;&gt;Node18 -->
<g id="edge26" class="edge"><title>Node0&#45;&gt;Node18</title>
<path fill="none" stroke="midnightblue" d="M227.886,-224.083C223.133,-216.534 216.182,-205.495 210.348,-196.23"/>
<polygon fill="midnightblue" stroke="midnightblue" points="213.3,-194.349 205.01,-187.751 207.376,-198.078 213.3,-194.349"/>
</g>
<!-- Node20 -->
<g id="node21" class="node"><title>Node20</title>
<g id="a_node21"><a xlink:href="Camera_8h.html" target="_top" xlink:title="Camera.h">
<polygon fill="white" stroke="black" points="577,-168.5 577,-187.5 636,-187.5 636,-168.5 577,-168.5"/>
<text text-anchor="middle" x="606.5" y="-175.5" font-family="Helvetica,sans-Serif" font-size="10.00">Camera.h</text>
</a>
</g>
</g>
<!-- Node0&#45;&gt;Node20 -->
<g id="edge29" class="edge"><title>Node0&#45;&gt;Node20</title>
<path fill="none" stroke="midnightblue" d="M292.603,-224.444C369.234,-213.349 500.833,-194.298 566.62,-184.773"/>
<polygon fill="midnightblue" stroke="midnightblue" points="567.2,-188.226 576.595,-183.329 566.197,-181.298 567.2,-188.226"/>
</g>
<!-- Node22 -->
<g id="node23" class="node"><title>Node22</title>
<g id="a_node23"><a xlink:href="InputManager_8h.html" target="_top" xlink:title="InputManager.h">
<polygon fill="white" stroke="black" points="740.5,-56.5 740.5,-75.5 824.5,-75.5 824.5,-56.5 740.5,-56.5"/>
<text text-anchor="middle" x="782.5" y="-63.5" font-family="Helvetica,sans-Serif" font-size="10.00">InputManager.h</text>
</a>
</g>
</g>
<!-- Node0&#45;&gt;Node22 -->
<g id="edge37" class="edge"><title>Node0&#45;&gt;Node22</title>
<path fill="none" stroke="midnightblue" d="M293.059,-232.881C432.273,-231.151 772.077,-218.023 836.5,-132 850.136,-113.792 827.444,-93.7953 807.428,-80.8562"/>
<polygon fill="midnightblue" stroke="midnightblue" points="809.201,-77.8378 798.844,-75.6042 805.547,-83.8088 809.201,-77.8378"/>
</g>
<!-- Node6 -->
<g id="node7" class="node"><title>Node6</title>
<polygon fill="white" stroke="#bfbfbf" points="225,-0.5 225,-19.5 266,-19.5 266,-0.5 225,-0.5"/>
<text text-anchor="middle" x="245.5" y="-7.5" font-family="Helvetica,sans-Serif" font-size="10.00">string</text>
</g>
<!-- Node5&#45;&gt;Node6 -->
<g id="edge6" class="edge"><title>Node5&#45;&gt;Node6</title>
<path fill="none" stroke="midnightblue" d="M339.346,-168.426C311.488,-154.012 259.81,-121.93 244.5,-76 239.531,-61.094 240.263,-43.1771 241.964,-29.9325"/>
<polygon fill="midnightblue" stroke="midnightblue" points="245.479,-30.1141 243.589,-19.6891 238.565,-29.0169 245.479,-30.1141"/>
</g>
<!-- Node7 -->
<g id="node8" class="node"><title>Node7</title>
<polygon fill="white" stroke="#bfbfbf" points="365.5,-56.5 365.5,-75.5 409.5,-75.5 409.5,-56.5 365.5,-56.5"/>
<text text-anchor="middle" x="387.5" y="-63.5" font-family="Helvetica,sans-Serif" font-size="10.00">vector</text>
</g>
<!-- Node5&#45;&gt;Node7 -->
<g id="edge7" class="edge"><title>Node5&#45;&gt;Node7</title>
<path fill="none" stroke="midnightblue" d="M359.854,-168.368C364.717,-150.537 375.965,-109.295 382.517,-85.2717"/>
<polygon fill="midnightblue" stroke="midnightblue" points="385.902,-86.16 385.157,-75.5914 379.149,-84.3181 385.902,-86.16"/>
</g>
<!-- Node8 -->
<g id="node9" class="node"><title>Node8</title>
<g id="a_node9"><a xlink:href="Tileset_8h.html" target="_top" xlink:title="Tileset.h">
<polygon fill="white" stroke="black" points="295.5,-112.5 295.5,-131.5 349.5,-131.5 349.5,-112.5 295.5,-112.5"/>
<text text-anchor="middle" x="322.5" y="-119.5" font-family="Helvetica,sans-Serif" font-size="10.00">Tileset.h</text>
</a>
</g>
</g>
<!-- Node5&#45;&gt;Node8 -->
<g id="edge8" class="edge"><title>Node5&#45;&gt;Node8</title>
<path fill="none" stroke="midnightblue" d="M351.72,-168.083C346.828,-160.534 339.673,-149.495 333.667,-140.23"/>
<polygon fill="midnightblue" stroke="midnightblue" points="336.548,-138.239 328.172,-131.751 330.674,-142.046 336.548,-138.239"/>
</g>
<!-- Node12 -->
<g id="node13" class="node"><title>Node12</title>
<g id="a_node13"><a xlink:href="Vec2_8h.html" target="_top" xlink:title="Vec2.h">
<polygon fill="white" stroke="black" points="668,-0.5 668,-19.5 715,-19.5 715,-0.5 668,-0.5"/>
<text text-anchor="middle" x="691.5" y="-7.5" font-family="Helvetica,sans-Serif" font-size="10.00">Vec2.h</text>
</a>
</g>
</g>
<!-- Node5&#45;&gt;Node12 -->
<g id="edge14" class="edge"><title>Node5&#45;&gt;Node12</title>
<path fill="none" stroke="midnightblue" d="M387.314,-175.01C445.91,-169.534 576.943,-149.329 652.5,-76 666.483,-62.4296 677.337,-42.8134 684.004,-28.6842"/>
<polygon fill="midnightblue" stroke="midnightblue" points="687.211,-30.0878 688.104,-19.5307 680.822,-27.2265 687.211,-30.0878"/>
</g>
<!-- Node13 -->
<g id="node14" class="node"><title>Node13</title>
<g id="a_node14"><a xlink:href="GameObject_8h.html" target="_top" xlink:title="GameObject.h">
<polygon fill="white" stroke="black" points="463.5,-112.5 463.5,-131.5 543.5,-131.5 543.5,-112.5 463.5,-112.5"/>
<text text-anchor="middle" x="503.5" y="-119.5" font-family="Helvetica,sans-Serif" font-size="10.00">GameObject.h</text>
</a>
</g>
</g>
<!-- Node5&#45;&gt;Node13 -->
<g id="edge15" class="edge"><title>Node5&#45;&gt;Node13</title>
<path fill="none" stroke="midnightblue" d="M380.634,-168.444C404.982,-159.438 443.507,-145.189 470.923,-135.049"/>
<polygon fill="midnightblue" stroke="midnightblue" points="472.309,-138.268 480.474,-131.516 469.881,-131.703 472.309,-138.268"/>
</g>
<!-- Node8&#45;&gt;Node6 -->
<g id="edge9" class="edge"><title>Node8&#45;&gt;Node6</title>
<path fill="none" stroke="midnightblue" d="M301.462,-112.476C286.167,-105.14 266.32,-93.0307 255.5,-76 246.794,-62.2975 244.674,-43.7643 244.51,-29.9937"/>
<polygon fill="midnightblue" stroke="midnightblue" points="248.014,-29.8302 244.73,-19.7571 241.016,-29.6795 248.014,-29.8302"/>
</g>
<!-- Node9 -->
<g id="node10" class="node"><title>Node9</title>
<g id="a_node10"><a xlink:href="Sprite_8h.html" target="_top" xlink:title="Sprite.h">
<polygon fill="white" stroke="black" points="297.5,-56.5 297.5,-75.5 347.5,-75.5 347.5,-56.5 297.5,-56.5"/>
<text text-anchor="middle" x="322.5" y="-63.5" font-family="Helvetica,sans-Serif" font-size="10.00">Sprite.h</text>
</a>
</g>
</g>
<!-- Node8&#45;&gt;Node9 -->
<g id="edge10" class="edge"><title>Node8&#45;&gt;Node9</title>
<path fill="none" stroke="midnightblue" d="M322.5,-112.083C322.5,-105.006 322.5,-94.8611 322.5,-85.9865"/>
<polygon fill="midnightblue" stroke="midnightblue" points="326,-85.751 322.5,-75.7511 319,-85.7511 326,-85.751"/>
</g>
<!-- Node9&#45;&gt;Node6 -->
<g id="edge12" class="edge"><title>Node9&#45;&gt;Node6</title>
<path fill="none" stroke="midnightblue" d="M310.129,-56.324C298.342,-48.0577 280.368,-35.4527 266.364,-25.6322"/>
<polygon fill="midnightblue" stroke="midnightblue" points="268.038,-22.5307 257.841,-19.6545 264.018,-28.2619 268.038,-22.5307"/>
</g>
<!-- Node10 -->
<g id="node11" class="node"><title>Node10</title>
<g id="a_node11"><a xlink:href="Color_8h.html" target="_top" xlink:title="Color.h">
<polygon fill="white" stroke="black" points="298.5,-0.5 298.5,-19.5 346.5,-19.5 346.5,-0.5 298.5,-0.5"/>
<text text-anchor="middle" x="322.5" y="-7.5" font-family="Helvetica,sans-Serif" font-size="10.00">Color.h</text>
</a>
</g>
</g>
<!-- Node9&#45;&gt;Node10 -->
<g id="edge11" class="edge"><title>Node9&#45;&gt;Node10</title>
<path fill="none" stroke="midnightblue" d="M322.5,-56.083C322.5,-49.0059 322.5,-38.8611 322.5,-29.9865"/>
<polygon fill="midnightblue" stroke="midnightblue" points="326,-29.751 322.5,-19.7511 319,-29.7511 326,-29.751"/>
</g>
<!-- Node11 -->
<g id="node12" class="node"><title>Node11</title>
<polygon fill="white" stroke="#bfbfbf" points="381.5,-0.5 381.5,-19.5 433.5,-19.5 433.5,-0.5 381.5,-0.5"/>
<text text-anchor="middle" x="407.5" y="-7.5" font-family="Helvetica,sans-Serif" font-size="10.00">memory</text>
</g>
<!-- Node9&#45;&gt;Node11 -->
<g id="edge13" class="edge"><title>Node9&#45;&gt;Node11</title>
<path fill="none" stroke="midnightblue" d="M336.157,-56.324C349.416,-47.9002 369.768,-34.9709 385.346,-25.0741"/>
<polygon fill="midnightblue" stroke="midnightblue" points="387.313,-27.9711 393.877,-19.6545 383.56,-22.0626 387.313,-27.9711"/>
</g>
<!-- Node13&#45;&gt;Node6 -->
<g id="edge21" class="edge"><title>Node13&#45;&gt;Node6</title>
<path fill="none" stroke="midnightblue" d="M463.13,-121.446C417.084,-120.068 341.351,-111.874 288.5,-76 271.581,-64.5161 259.653,-43.9388 252.719,-29.0065"/>
<polygon fill="midnightblue" stroke="midnightblue" points="255.898,-27.5407 248.716,-19.7517 249.473,-30.3194 255.898,-27.5407"/>
</g>
<!-- Node13&#45;&gt;Node7 -->
<g id="edge16" class="edge"><title>Node13&#45;&gt;Node7</title>
<path fill="none" stroke="midnightblue" d="M485.119,-112.444C466.284,-103.675 436.769,-89.9355 415.121,-79.8579"/>
<polygon fill="midnightblue" stroke="midnightblue" points="416.338,-76.5637 405.795,-75.5164 413.383,-82.9098 416.338,-76.5637"/>
</g>
<!-- Node13&#45;&gt;Node11 -->
<g id="edge17" class="edge"><title>Node13&#45;&gt;Node11</title>
<path fill="none" stroke="midnightblue" d="M493.952,-112.401C484.369,-103.604 469.368,-89.3672 457.5,-76 443.676,-60.4292 429.328,-41.4352 419.567,-28.011"/>
<polygon fill="midnightblue" stroke="midnightblue" points="422.284,-25.7942 413.605,-19.7178 416.601,-29.8804 422.284,-25.7942"/>
</g>
<!-- Node14 -->
<g id="node15" class="node"><title>Node14</title>
<g id="a_node15"><a xlink:href="Rect_8h.html" target="_top" xlink:title="Rect.h">
<polygon fill="white" stroke="black" points="597.5,-56.5 597.5,-75.5 643.5,-75.5 643.5,-56.5 597.5,-56.5"/>
<text text-anchor="middle" x="620.5" y="-63.5" font-family="Helvetica,sans-Serif" font-size="10.00">Rect.h</text>
</a>
</g>
</g>
<!-- Node13&#45;&gt;Node14 -->
<g id="edge18" class="edge"><title>Node13&#45;&gt;Node14</title>
<path fill="none" stroke="midnightblue" d="M522.039,-112.444C541.123,-103.636 571.075,-89.8116 592.936,-79.722"/>
<polygon fill="midnightblue" stroke="midnightblue" points="594.435,-82.8849 602.048,-75.5164 591.501,-76.5292 594.435,-82.8849"/>
</g>
<!-- Node16 -->
<g id="node17" class="node"><title>Node16</title>
<g id="a_node17"><a xlink:href="ComponentType_8h.html" target="_top" xlink:title="ComponentType.h">
<polygon fill="white" stroke="black" points="469,-0.5 469,-19.5 566,-19.5 566,-0.5 469,-0.5"/>
<text text-anchor="middle" x="517.5" y="-7.5" font-family="Helvetica,sans-Serif" font-size="10.00">ComponentType.h</text>
</a>
</g>
</g>
<!-- Node13&#45;&gt;Node16 -->
<g id="edge22" class="edge"><title>Node13&#45;&gt;Node16</title>
<path fill="none" stroke="midnightblue" d="M517.287,-112.189C528.326,-104.241 543.002,-91.4469 549.5,-76 556.621,-59.0709 545.209,-40.3074 534.088,-27.3096"/>
<polygon fill="midnightblue" stroke="midnightblue" points="536.383,-24.6365 527.02,-19.678 531.247,-29.393 536.383,-24.6365"/>
</g>
<!-- Node17 -->
<g id="node18" class="node"><title>Node17</title>
<g id="a_node18"><a xlink:href="Component_8h.html" target="_top" xlink:title="Component.h">
<polygon fill="white" stroke="black" points="466,-56.5 466,-75.5 541,-75.5 541,-56.5 466,-56.5"/>
<text text-anchor="middle" x="503.5" y="-63.5" font-family="Helvetica,sans-Serif" font-size="10.00">Component.h</text>
</a>
</g>
</g>
<!-- Node13&#45;&gt;Node17 -->
<g id="edge23" class="edge"><title>Node13&#45;&gt;Node17</title>
<path fill="none" stroke="midnightblue" d="M498.334,-112.083C496.824,-104.927 496.394,-94.6353 497.042,-85.6911"/>
<polygon fill="midnightblue" stroke="midnightblue" points="500.515,-86.1262 498.369,-75.7511 493.577,-85.2002 500.515,-86.1262"/>
</g>
<!-- Node14&#45;&gt;Node12 -->
<g id="edge19" class="edge"><title>Node14&#45;&gt;Node12</title>
<path fill="none" stroke="midnightblue" d="M631.907,-56.324C642.609,-48.1849 658.841,-35.8395 671.663,-26.0874"/>
<polygon fill="midnightblue" stroke="midnightblue" points="674.044,-28.6734 679.885,-19.8339 669.807,-23.1018 674.044,-28.6734"/>
</g>
<!-- Node15 -->
<g id="node16" class="node"><title>Node15</title>
<polygon fill="white" stroke="#bfbfbf" points="598.5,-0.5 598.5,-19.5 642.5,-19.5 642.5,-0.5 598.5,-0.5"/>
<text text-anchor="middle" x="620.5" y="-7.5" font-family="Helvetica,sans-Serif" font-size="10.00">cmath</text>
</g>
<!-- Node14&#45;&gt;Node15 -->
<g id="edge20" class="edge"><title>Node14&#45;&gt;Node15</title>
<path fill="none" stroke="midnightblue" d="M620.5,-56.083C620.5,-49.0059 620.5,-38.8611 620.5,-29.9865"/>
<polygon fill="midnightblue" stroke="midnightblue" points="624,-29.751 620.5,-19.7511 617,-29.7511 624,-29.751"/>
</g>
<!-- Node17&#45;&gt;Node13 -->
<g id="edge25" class="edge"><title>Node17&#45;&gt;Node13</title>
<path fill="none" stroke="midnightblue" d="M508.631,-75.7511C510.157,-82.8579 510.604,-93.1357 509.972,-102.101"/>
<polygon fill="midnightblue" stroke="midnightblue" points="506.493,-101.713 508.666,-112.083 513.434,-102.622 506.493,-101.713"/>
</g>
<!-- Node17&#45;&gt;Node16 -->
<g id="edge24" class="edge"><title>Node17&#45;&gt;Node16</title>
<path fill="none" stroke="midnightblue" d="M505.812,-56.083C507.667,-48.9272 510.335,-38.6353 512.654,-29.6911"/>
<polygon fill="midnightblue" stroke="midnightblue" points="516.109,-30.3094 515.231,-19.7511 509.334,-28.5527 516.109,-30.3094"/>
</g>
<!-- Node18&#45;&gt;Node3 -->
<g id="edge27" class="edge"><title>Node18&#45;&gt;Node3</title>
<path fill="none" stroke="midnightblue" d="M185.04,-168.324C171,-159.9 149.452,-146.971 132.957,-137.074"/>
<polygon fill="midnightblue" stroke="midnightblue" points="134.3,-133.798 123.924,-131.655 130.698,-139.801 134.3,-133.798"/>
</g>
<!-- Node19 -->
<g id="node20" class="node"><title>Node19</title>
<polygon fill="white" stroke="#bfbfbf" points="154.5,-112.5 154.5,-131.5 202.5,-131.5 202.5,-112.5 154.5,-112.5"/>
<text text-anchor="middle" x="178.5" y="-119.5" font-family="Helvetica,sans-Serif" font-size="10.00">stdlib.h</text>
</g>
<!-- Node18&#45;&gt;Node19 -->
<g id="edge28" class="edge"><title>Node18&#45;&gt;Node19</title>
<path fill="none" stroke="midnightblue" d="M196.032,-168.083C193.188,-160.77 189.071,-150.181 185.54,-141.103"/>
<polygon fill="midnightblue" stroke="midnightblue" points="188.79,-139.803 181.903,-131.751 182.266,-142.34 188.79,-139.803"/>
</g>
<!-- Node20&#45;&gt;Node12 -->
<g id="edge31" class="edge"><title>Node20&#45;&gt;Node12</title>
<path fill="none" stroke="midnightblue" d="M635.677,-168.357C653.296,-161.502 674.422,-150.018 685.5,-132 704.893,-100.459 700.452,-55.0799 695.786,-29.8088"/>
<polygon fill="midnightblue" stroke="midnightblue" points="699.156,-28.8229 693.711,-19.7346 692.3,-30.2351 699.156,-28.8229"/>
</g>
<!-- Node20&#45;&gt;Node13 -->
<g id="edge30" class="edge"><title>Node20&#45;&gt;Node13</title>
<path fill="none" stroke="midnightblue" d="M589.951,-168.324C573.508,-159.703 548.065,-146.364 529.032,-136.386"/>
<polygon fill="midnightblue" stroke="midnightblue" points="530.489,-133.198 520.008,-131.655 527.239,-139.398 530.489,-133.198"/>
</g>
<!-- Node21 -->
<g id="node22" class="node"><title>Node21</title>
<g id="a_node22"><a xlink:href="ActionManager_8h.html" target="_top" xlink:title="ActionManager.h">
<polygon fill="white" stroke="black" points="737.5,-112.5 737.5,-131.5 827.5,-131.5 827.5,-112.5 737.5,-112.5"/>
<text text-anchor="middle" x="782.5" y="-119.5" font-family="Helvetica,sans-Serif" font-size="10.00">ActionManager.h</text>
</a>
</g>
</g>
<!-- Node20&#45;&gt;Node21 -->
<g id="edge32" class="edge"><title>Node20&#45;&gt;Node21</title>
<path fill="none" stroke="midnightblue" d="M634.388,-168.444C664.254,-159.28 711.815,-144.688 744.956,-134.519"/>
<polygon fill="midnightblue" stroke="midnightblue" points="746.209,-137.796 754.743,-131.516 744.156,-131.104 746.209,-137.796"/>
</g>
<!-- Node21&#45;&gt;Node22 -->
<g id="edge33" class="edge"><title>Node21&#45;&gt;Node22</title>
<path fill="none" stroke="midnightblue" d="M782.5,-112.083C782.5,-105.006 782.5,-94.8611 782.5,-85.9865"/>
<polygon fill="midnightblue" stroke="midnightblue" points="786,-85.751 782.5,-75.7511 779,-85.7511 786,-85.751"/>
</g>
<!-- Node22&#45;&gt;Node12 -->
<g id="edge34" class="edge"><title>Node22&#45;&gt;Node12</title>
<path fill="none" stroke="midnightblue" d="M767.879,-56.324C753.551,-47.8215 731.487,-34.7288 714.751,-24.7975"/>
<polygon fill="midnightblue" stroke="midnightblue" points="716.47,-21.7478 706.084,-19.6545 712.898,-27.7677 716.47,-21.7478"/>
</g>
<!-- Node23 -->
<g id="node24" class="node"><title>Node23</title>
<polygon fill="white" stroke="#bfbfbf" points="737,-0.5 737,-19.5 820,-19.5 820,-0.5 737,-0.5"/>
<text text-anchor="middle" x="778.5" y="-7.5" font-family="Helvetica,sans-Serif" font-size="10.00">unordered_map</text>
</g>
<!-- Node22&#45;&gt;Node23 -->
<g id="edge35" class="edge"><title>Node22&#45;&gt;Node23</title>
<path fill="none" stroke="midnightblue" d="M781.839,-56.083C781.315,-49.0059 780.564,-38.8611 779.906,-29.9865"/>
<polygon fill="midnightblue" stroke="midnightblue" points="783.377,-29.4652 779.148,-19.7511 776.397,-29.9823 783.377,-29.4652"/>
</g>
<!-- Node24 -->
<g id="node25" class="node"><title>Node24</title>
<polygon fill="white" stroke="#bfbfbf" points="838.5,-0.5 838.5,-19.5 884.5,-19.5 884.5,-0.5 838.5,-0.5"/>
<text text-anchor="middle" x="861.5" y="-7.5" font-family="Helvetica,sans-Serif" font-size="10.00">cstdint</text>
</g>
<!-- Node22&#45;&gt;Node24 -->
<g id="edge36" class="edge"><title>Node22&#45;&gt;Node24</title>
<path fill="none" stroke="midnightblue" d="M795.193,-56.324C807.401,-47.979 826.078,-35.2122 840.503,-25.3524"/>
<polygon fill="midnightblue" stroke="midnightblue" points="842.558,-28.1871 848.839,-19.6545 838.608,-22.4082 842.558,-28.1871"/>
</g>
</g>
</svg>
