<?xml version="1.0" encoding="UTF-8" standalone="no"?>
<!DOCTYPE svg PUBLIC "-//W3C//DTD SVG 1.1//EN"
 "http://www.w3.org/Graphics/SVG/1.1/DTD/svg11.dtd">
<!-- Generated by graphviz version 2.36.0 (20140111.2315)
 -->
<!-- Title: Engine/include/Tileset.h Pages: 1 -->
<svg width="507pt" height="252pt"
 viewBox="0.00 0.00 507.00 252.00" xmlns="http://www.w3.org/2000/svg" xmlns:xlink="http://www.w3.org/1999/xlink">
<g id="graph0" class="graph" transform="scale(1 1) rotate(0) translate(4 248)">
<title>Engine/include/Tileset.h</title>
<polygon fill="white" stroke="none" points="-4,4 -4,-248 503,-248 503,4 -4,4"/>
<!-- Node1 -->
<g id="node1" class="node"><title>Node1</title>
<polygon fill="#bfbfbf" stroke="black" points="23.5,-224.5 23.5,-243.5 144.5,-243.5 144.5,-224.5 23.5,-224.5"/>
<text text-anchor="middle" x="84" y="-231.5" font-family="Helvetica,sans-Serif" font-size="10.00">Engine/include/Tileset.h</text>
</g>
<!-- Node2 -->
<g id="node2" class="node"><title>Node2</title>
<polygon fill="white" stroke="#bfbfbf" points="-0.5,-112.5 -0.5,-131.5 40.5,-131.5 40.5,-112.5 -0.5,-112.5"/>
<text text-anchor="middle" x="20" y="-119.5" font-family="Helvetica,sans-Serif" font-size="10.00">string</text>
</g>
<!-- Node1&#45;&gt;Node2 -->
<g id="edge1" class="edge"><title>Node1&#45;&gt;Node2</title>
<path fill="none" stroke="midnightblue" d="M78.978,-224.368C68.4629,-206.296 43.9572,-164.176 30.0697,-140.307"/>
<polygon fill="midnightblue" stroke="midnightblue" points="33.0529,-138.475 24.9986,-131.591 27.0024,-141.995 33.0529,-138.475"/>
</g>
<!-- Node3 -->
<g id="node3" class="node"><title>Node3</title>
<g id="a_node3"><a xlink:href="Sprite_8h.html" target="_top" xlink:title="Sprite.h">
<polygon fill="white" stroke="black" points="98,-168.5 98,-187.5 148,-187.5 148,-168.5 98,-168.5"/>
<text text-anchor="middle" x="123" y="-175.5" font-family="Helvetica,sans-Serif" font-size="10.00">Sprite.h</text>
</a>
</g>
</g>
<!-- Node1&#45;&gt;Node3 -->
<g id="edge2" class="edge"><title>Node1&#45;&gt;Node3</title>
<path fill="none" stroke="midnightblue" d="M90.4401,-224.083C95.9489,-216.455 104.031,-205.264 110.765,-195.941"/>
<polygon fill="midnightblue" stroke="midnightblue" points="113.662,-197.907 116.68,-187.751 107.987,-193.809 113.662,-197.907"/>
</g>
<!-- Node3&#45;&gt;Node2 -->
<g id="edge4" class="edge"><title>Node3&#45;&gt;Node2</title>
<path fill="none" stroke="midnightblue" d="M106.451,-168.324C90.0084,-159.703 64.5652,-146.364 45.5316,-136.386"/>
<polygon fill="midnightblue" stroke="midnightblue" points="46.9895,-133.198 36.5077,-131.655 43.7391,-139.398 46.9895,-133.198"/>
</g>
<!-- Node4 -->
<g id="node4" class="node"><title>Node4</title>
<g id="a_node4"><a xlink:href="SDL__include_8h.html" target="_top" xlink:title="SDL_include.h">
<polygon fill="white" stroke="black" points="174,-0.5 174,-19.5 254,-19.5 254,-0.5 174,-0.5"/>
<text text-anchor="middle" x="214" y="-7.5" font-family="Helvetica,sans-Serif" font-size="10.00">SDL_include.h</text>
</a>
</g>
</g>
<!-- Node3&#45;&gt;Node4 -->
<g id="edge3" class="edge"><title>Node3&#45;&gt;Node4</title>
<path fill="none" stroke="midnightblue" d="M112.483,-168.302C98.9049,-155.958 78.1273,-132.567 88,-112 108.034,-70.2649 154.648,-40.3479 185.216,-24.3676"/>
<polygon fill="midnightblue" stroke="midnightblue" points="187.171,-27.3012 194.523,-19.6716 184.018,-21.0517 187.171,-27.3012"/>
</g>
<!-- Node5 -->
<g id="node5" class="node"><title>Node5</title>
<polygon fill="white" stroke="#bfbfbf" points="97,-112.5 97,-131.5 149,-131.5 149,-112.5 97,-112.5"/>
<text text-anchor="middle" x="123" y="-119.5" font-family="Helvetica,sans-Serif" font-size="10.00">memory</text>
</g>
<!-- Node3&#45;&gt;Node5 -->
<g id="edge5" class="edge"><title>Node3&#45;&gt;Node5</title>
<path fill="none" stroke="midnightblue" d="M123,-168.083C123,-161.006 123,-150.861 123,-141.986"/>
<polygon fill="midnightblue" stroke="midnightblue" points="126.5,-141.751 123,-131.751 119.5,-141.751 126.5,-141.751"/>
</g>
<!-- Node6 -->
<g id="node6" class="node"><title>Node6</title>
<g id="a_node6"><a xlink:href="Color_8h.html" target="_top" xlink:title="Color.h">
<polygon fill="white" stroke="black" points="167,-112.5 167,-131.5 215,-131.5 215,-112.5 167,-112.5"/>
<text text-anchor="middle" x="191" y="-119.5" font-family="Helvetica,sans-Serif" font-size="10.00">Color.h</text>
</a>
</g>
</g>
<!-- Node3&#45;&gt;Node6 -->
<g id="edge6" class="edge"><title>Node3&#45;&gt;Node6</title>
<path fill="none" stroke="midnightblue" d="M133.925,-168.324C144.175,-160.185 159.721,-147.839 172.001,-138.087"/>
<polygon fill="midnightblue" stroke="midnightblue" points="174.221,-140.794 179.876,-131.834 169.868,-135.312 174.221,-140.794"/>
</g>
<!-- Node7 -->
<g id="node7" class="node"><title>Node7</title>
<g id="a_node7"><a xlink:href="Rect_8h.html" target="_top" xlink:title="Rect.h">
<polygon fill="white" stroke="black" points="233,-112.5 233,-131.5 279,-131.5 279,-112.5 233,-112.5"/>
<text text-anchor="middle" x="256" y="-119.5" font-family="Helvetica,sans-Serif" font-size="10.00">Rect.h</text>
</a>
</g>
</g>
<!-- Node3&#45;&gt;Node7 -->
<g id="edge7" class="edge"><title>Node3&#45;&gt;Node7</title>
<path fill="none" stroke="midnightblue" d="M144.074,-168.444C166.06,-159.517 200.734,-145.439 225.664,-135.317"/>
<polygon fill="midnightblue" stroke="midnightblue" points="227.076,-138.521 235.024,-131.516 224.442,-132.035 227.076,-138.521"/>
</g>
<!-- Node10 -->
<g id="node10" class="node"><title>Node10</title>
<g id="a_node10"><a xlink:href="InputManager_8h.html" target="_top" xlink:title="InputManager.h">
<polygon fill="white" stroke="black" points="297,-112.5 297,-131.5 381,-131.5 381,-112.5 297,-112.5"/>
<text text-anchor="middle" x="339" y="-119.5" font-family="Helvetica,sans-Serif" font-size="10.00">InputManager.h</text>
</a>
</g>
</g>
<!-- Node3&#45;&gt;Node10 -->
<g id="edge12" class="edge"><title>Node3&#45;&gt;Node10</title>
<path fill="none" stroke="midnightblue" d="M148.201,-170.7C184.13,-161.718 250.612,-145.097 294.83,-134.042"/>
<polygon fill="midnightblue" stroke="midnightblue" points="295.881,-137.388 304.733,-131.567 294.183,-130.597 295.881,-137.388"/>
</g>
<!-- Node7&#45;&gt;Node4 -->
<g id="edge8" class="edge"><title>Node7&#45;&gt;Node4</title>
<path fill="none" stroke="midnightblue" d="M232.796,-114.982C213.798,-108.695 188.148,-96.7709 176,-76 166.125,-59.1161 180.777,-39.7627 194.657,-26.595"/>
<polygon fill="midnightblue" stroke="midnightblue" points="197.372,-28.8664 202.549,-19.6222 192.737,-23.6206 197.372,-28.8664"/>
</g>
<!-- Node8 -->
<g id="node8" class="node"><title>Node8</title>
<g id="a_node8"><a xlink:href="Vec2_8h.html" target="_top" xlink:title="Vec2.h">
<polygon fill="white" stroke="black" points="247.5,-56.5 247.5,-75.5 294.5,-75.5 294.5,-56.5 247.5,-56.5"/>
<text text-anchor="middle" x="271" y="-63.5" font-family="Helvetica,sans-Serif" font-size="10.00">Vec2.h</text>
</a>
</g>
</g>
<!-- Node7&#45;&gt;Node8 -->
<g id="edge9" class="edge"><title>Node7&#45;&gt;Node8</title>
<path fill="none" stroke="midnightblue" d="M258.477,-112.083C260.486,-104.849 263.386,-94.4087 265.89,-85.3968"/>
<polygon fill="midnightblue" stroke="midnightblue" points="269.265,-86.323 268.569,-75.7511 262.52,-84.4495 269.265,-86.323"/>
</g>
<!-- Node9 -->
<g id="node9" class="node"><title>Node9</title>
<polygon fill="white" stroke="#bfbfbf" points="185,-56.5 185,-75.5 229,-75.5 229,-56.5 185,-56.5"/>
<text text-anchor="middle" x="207" y="-63.5" font-family="Helvetica,sans-Serif" font-size="10.00">cmath</text>
</g>
<!-- Node7&#45;&gt;Node9 -->
<g id="edge11" class="edge"><title>Node7&#45;&gt;Node9</title>
<path fill="none" stroke="midnightblue" d="M247.909,-112.083C240.845,-104.298 230.412,-92.8015 221.851,-83.3665"/>
<polygon fill="midnightblue" stroke="midnightblue" points="224.253,-80.8047 214.941,-75.7511 219.069,-85.5087 224.253,-80.8047"/>
</g>
<!-- Node8&#45;&gt;Node4 -->
<g id="edge10" class="edge"><title>Node8&#45;&gt;Node4</title>
<path fill="none" stroke="midnightblue" d="M261.842,-56.324C253.499,-48.4196 240.968,-36.5482 230.823,-26.9377"/>
<polygon fill="midnightblue" stroke="midnightblue" points="232.991,-24.1705 223.325,-19.8339 228.177,-29.2522 232.991,-24.1705"/>
</g>
<!-- Node10&#45;&gt;Node4 -->
<g id="edge13" class="edge"><title>Node10&#45;&gt;Node4</title>
<path fill="none" stroke="midnightblue" d="M336.116,-112.375C331.215,-98.8405 320.097,-72.4648 303,-56 287.953,-41.5088 267.319,-30.6813 249.708,-23.283"/>
<polygon fill="midnightblue" stroke="midnightblue" points="250.874,-19.9801 240.289,-19.5241 248.28,-26.4815 250.874,-19.9801"/>
</g>
<!-- Node10&#45;&gt;Node8 -->
<g id="edge14" class="edge"><title>Node10&#45;&gt;Node8</title>
<path fill="none" stroke="midnightblue" d="M328.075,-112.324C317.825,-104.185 302.279,-91.8395 289.999,-82.0874"/>
<polygon fill="midnightblue" stroke="midnightblue" points="292.132,-79.3119 282.124,-75.8339 287.779,-84.7937 292.132,-79.3119"/>
</g>
<!-- Node11 -->
<g id="node11" class="node"><title>Node11</title>
<polygon fill="white" stroke="#bfbfbf" points="351.5,-56.5 351.5,-75.5 434.5,-75.5 434.5,-56.5 351.5,-56.5"/>
<text text-anchor="middle" x="393" y="-63.5" font-family="Helvetica,sans-Serif" font-size="10.00">unordered_map</text>
</g>
<!-- Node10&#45;&gt;Node11 -->
<g id="edge15" class="edge"><title>Node10&#45;&gt;Node11</title>
<path fill="none" stroke="midnightblue" d="M347.917,-112.083C355.78,-104.22 367.431,-92.5688 376.919,-83.0813"/>
<polygon fill="midnightblue" stroke="midnightblue" points="379.653,-85.2971 384.249,-75.7511 374.703,-80.3473 379.653,-85.2971"/>
</g>
<!-- Node12 -->
<g id="node12" class="node"><title>Node12</title>
<polygon fill="white" stroke="#bfbfbf" points="453,-56.5 453,-75.5 499,-75.5 499,-56.5 453,-56.5"/>
<text text-anchor="middle" x="476" y="-63.5" font-family="Helvetica,sans-Serif" font-size="10.00">cstdint</text>
</g>
<!-- Node10&#45;&gt;Node12 -->
<g id="edge16" class="edge"><title>Node10&#45;&gt;Node12</title>
<path fill="none" stroke="midnightblue" d="M360.708,-112.444C383.355,-103.517 419.072,-89.4387 444.752,-79.3168"/>
<polygon fill="midnightblue" stroke="midnightblue" points="446.374,-82.4397 454.394,-75.5164 443.807,-75.9273 446.374,-82.4397"/>
</g>
</g>
</svg>
