<?xml version="1.0" encoding="UTF-8" standalone="no"?>
<!DOCTYPE svg PUBLIC "-//W3C//DTD SVG 1.1//EN"
 "http://www.w3.org/Graphics/SVG/1.1/DTD/svg11.dtd">
<!-- Generated by graphviz version 2.38.0 (20140413.2041)
 -->
<!-- Title: Engine/include/TileMap.h Pages: 1 -->
<svg width="850pt" height="196pt"
 viewBox="0.00 0.00 849.50 196.00" xmlns="http://www.w3.org/2000/svg" xmlns:xlink="http://www.w3.org/1999/xlink">
<g id="graph0" class="graph" transform="scale(1 1) rotate(0) translate(4 192)">
<title>Engine/include/TileMap.h</title>
<polygon fill="white" stroke="none" points="-4,4 -4,-192 845.5,-192 845.5,4 -4,4"/>
<!-- Node1 -->
<g id="node1" class="node"><title>Node1</title>
<polygon fill="#bfbfbf" stroke="black" points="436,-168.5 436,-187.5 562,-187.5 562,-168.5 436,-168.5"/>
<text text-anchor="middle" x="499" y="-175.5" font-family="Helvetica,sans-Serif" font-size="10.00">Engine/include/TileMap.h</text>
</g>
<!-- Node2 -->
<g id="node2" class="node"><title>Node2</title>
<g id="a_node2"><a xlink:href="DragAndDrop_8h.html" target="_top" xlink:title="Engine/include/DragAndDrop.h">
<polygon fill="white" stroke="black" points="127.5,-112.5 127.5,-131.5 278.5,-131.5 278.5,-112.5 127.5,-112.5"/>
<text text-anchor="middle" x="203" y="-119.5" font-family="Helvetica,sans-Serif" font-size="10.00">Engine/include/DragAndDrop.h</text>
</a>
</g>
</g>
<!-- Node1&#45;&gt;Node2 -->
<g id="edge1" class="edge"><title>Node1&#45;&gt;Node2</title>
<path fill="none" stroke="midnightblue" d="M441.997,-166.601C386.056,-156.395 301.77,-141.019 249.683,-131.516"/>
<polygon fill="midnightblue" stroke="midnightblue" points="441.632,-170.092 452.098,-168.444 442.888,-163.206 441.632,-170.092"/>
</g>
<!-- Node5 -->
<g id="node5" class="node"><title>Node5</title>
<g id="a_node5"><a xlink:href="TileMap_8cpp.html" target="_top" xlink:title="Engine/src/TileMap.cpp">
<polygon fill="white" stroke="black" points="722.5,-112.5 722.5,-131.5 841.5,-131.5 841.5,-112.5 722.5,-112.5"/>
<text text-anchor="middle" x="782" y="-119.5" font-family="Helvetica,sans-Serif" font-size="10.00">Engine/src/TileMap.cpp</text>
</a>
</g>
</g>
<!-- Node1&#45;&gt;Node5 -->
<g id="edge4" class="edge"><title>Node1&#45;&gt;Node5</title>
<path fill="none" stroke="midnightblue" d="M553.833,-166.537C607.318,-156.332 687.671,-140.999 737.368,-131.516"/>
<polygon fill="midnightblue" stroke="midnightblue" points="553.009,-163.131 543.842,-168.444 554.321,-170.007 553.009,-163.131"/>
</g>
<!-- Node6 -->
<g id="node6" class="node"><title>Node6</title>
<g id="a_node6"><a xlink:href="StageState_8h.html" target="_top" xlink:title="Game/include/StageState.h">
<polygon fill="white" stroke="black" points="430.5,-112.5 430.5,-131.5 567.5,-131.5 567.5,-112.5 430.5,-112.5"/>
<text text-anchor="middle" x="499" y="-119.5" font-family="Helvetica,sans-Serif" font-size="10.00">Game/include/StageState.h</text>
</a>
</g>
</g>
<!-- Node1&#45;&gt;Node6 -->
<g id="edge5" class="edge"><title>Node1&#45;&gt;Node6</title>
<path fill="none" stroke="midnightblue" d="M499,-157.805C499,-148.91 499,-138.78 499,-131.751"/>
<polygon fill="midnightblue" stroke="midnightblue" points="495.5,-158.083 499,-168.083 502.5,-158.083 495.5,-158.083"/>
</g>
<!-- Node11 -->
<g id="node11" class="node"><title>Node11</title>
<g id="a_node11"><a xlink:href="Enemy_8h.html" target="_top" xlink:title="Game/include/Enemy.h">
<polygon fill="white" stroke="black" points="585.5,-112.5 585.5,-131.5 704.5,-131.5 704.5,-112.5 585.5,-112.5"/>
<text text-anchor="middle" x="645" y="-119.5" font-family="Helvetica,sans-Serif" font-size="10.00">Game/include/Enemy.h</text>
</a>
</g>
</g>
<!-- Node1&#45;&gt;Node11 -->
<g id="edge11" class="edge"><title>Node1&#45;&gt;Node11</title>
<path fill="none" stroke="midnightblue" d="M531.699,-164.906C559.148,-154.754 597.668,-140.506 621.974,-131.516"/>
<polygon fill="midnightblue" stroke="midnightblue" points="530.299,-161.692 522.134,-168.444 532.727,-168.257 530.299,-161.692"/>
</g>
<!-- Node13 -->
<g id="node13" class="node"><title>Node13</title>
<g id="a_node13"><a xlink:href="Tower_8h.html" target="_top" xlink:title="Game/include/Tower.h">
<polygon fill="white" stroke="black" points="296.5,-112.5 296.5,-131.5 411.5,-131.5 411.5,-112.5 296.5,-112.5"/>
<text text-anchor="middle" x="354" y="-119.5" font-family="Helvetica,sans-Serif" font-size="10.00">Game/include/Tower.h</text>
</a>
</g>
</g>
<!-- Node1&#45;&gt;Node13 -->
<g id="edge14" class="edge"><title>Node1&#45;&gt;Node13</title>
<path fill="none" stroke="midnightblue" d="M466.525,-164.906C439.264,-154.754 401.008,-140.506 376.868,-131.516"/>
<polygon fill="midnightblue" stroke="midnightblue" points="465.432,-168.233 476.024,-168.444 467.875,-161.674 465.432,-168.233"/>
</g>
<!-- Node3 -->
<g id="node3" class="node"><title>Node3</title>
<g id="a_node3"><a xlink:href="DragAndDrop_8cpp.html" target="_top" xlink:title="Engine/src/DragAndDrop.cpp">
<polygon fill="white" stroke="black" points="0,-56.5 0,-75.5 144,-75.5 144,-56.5 0,-56.5"/>
<text text-anchor="middle" x="72" y="-63.5" font-family="Helvetica,sans-Serif" font-size="10.00">Engine/src/DragAndDrop.cpp</text>
</a>
</g>
</g>
<!-- Node2&#45;&gt;Node3 -->
<g id="edge2" class="edge"><title>Node2&#45;&gt;Node3</title>
<path fill="none" stroke="midnightblue" d="M172.683,-108.503C148.124,-98.3795 114.182,-84.388 92.6602,-75.5164"/>
<polygon fill="midnightblue" stroke="midnightblue" points="171.663,-111.868 182.243,-112.444 174.331,-105.397 171.663,-111.868"/>
</g>
<!-- Node4 -->
<g id="node4" class="node"><title>Node4</title>
<g id="a_node4"><a xlink:href="Tower_8cpp.html" target="_top" xlink:title="Game/src/Tower.cpp">
<polygon fill="white" stroke="black" points="162,-56.5 162,-75.5 270,-75.5 270,-56.5 162,-56.5"/>
<text text-anchor="middle" x="216" y="-63.5" font-family="Helvetica,sans-Serif" font-size="10.00">Game/src/Tower.cpp</text>
</a>
</g>
</g>
<!-- Node2&#45;&gt;Node4 -->
<g id="edge3" class="edge"><title>Node2&#45;&gt;Node4</title>
<path fill="none" stroke="midnightblue" d="M207.55,-102.101C209.708,-93.1357 212.182,-82.8579 213.893,-75.7511"/>
<polygon fill="midnightblue" stroke="midnightblue" points="204.085,-101.542 205.147,-112.083 210.89,-103.18 204.085,-101.542"/>
</g>
<!-- Node7 -->
<g id="node7" class="node"><title>Node7</title>
<g id="a_node7"><a xlink:href="EndState_8h.html" target="_top" xlink:title="Game/include/EndState.h">
<polygon fill="white" stroke="black" points="436,-56.5 436,-75.5 564,-75.5 564,-56.5 436,-56.5"/>
<text text-anchor="middle" x="500" y="-63.5" font-family="Helvetica,sans-Serif" font-size="10.00">Game/include/EndState.h</text>
</a>
</g>
</g>
<!-- Node6&#45;&gt;Node7 -->
<g id="edge6" class="edge"><title>Node6&#45;&gt;Node7</title>
<path fill="none" stroke="midnightblue" d="M492.878,-102.101C492.412,-93.1357 493.049,-82.8579 494.707,-75.7511"/>
<polygon fill="midnightblue" stroke="midnightblue" points="489.404,-102.536 493.999,-112.083 496.361,-101.755 489.404,-102.536"/>
</g>
<!-- Node9 -->
<g id="node9" class="node"><title>Node9</title>
<g id="a_node9"><a xlink:href="StageState_8cpp.html" target="_top" xlink:title="Game/src/StageState.cpp">
<polygon fill="white" stroke="black" points="288,-56.5 288,-75.5 418,-75.5 418,-56.5 288,-56.5"/>
<text text-anchor="middle" x="353" y="-63.5" font-family="Helvetica,sans-Serif" font-size="10.00">Game/src/StageState.cpp</text>
</a>
</g>
</g>
<!-- Node6&#45;&gt;Node9 -->
<g id="edge9" class="edge"><title>Node6&#45;&gt;Node9</title>
<path fill="none" stroke="midnightblue" d="M466.301,-108.906C438.852,-98.7536 400.332,-84.5063 376.026,-75.5164"/>
<polygon fill="midnightblue" stroke="midnightblue" points="465.273,-112.257 475.866,-112.444 467.701,-105.692 465.273,-112.257"/>
</g>
<!-- Node10 -->
<g id="node10" class="node"><title>Node10</title>
<g id="a_node10"><a xlink:href="TitleState_8cpp.html" target="_top" xlink:title="Game/src/TitleState.cpp">
<polygon fill="white" stroke="black" points="582.5,-56.5 582.5,-75.5 705.5,-75.5 705.5,-56.5 582.5,-56.5"/>
<text text-anchor="middle" x="644" y="-63.5" font-family="Helvetica,sans-Serif" font-size="10.00">Game/src/TitleState.cpp</text>
</a>
</g>
</g>
<!-- Node6&#45;&gt;Node10 -->
<g id="edge10" class="edge"><title>Node6&#45;&gt;Node10</title>
<path fill="none" stroke="midnightblue" d="M531.475,-108.906C558.736,-98.7536 596.992,-84.5063 621.132,-75.5164"/>
<polygon fill="midnightblue" stroke="midnightblue" points="530.125,-105.674 521.976,-112.444 532.568,-112.233 530.125,-105.674"/>
</g>
<!-- Node7&#45;&gt;Node6 -->
<g id="edge7" class="edge"><title>Node7&#45;&gt;Node6</title>
<path fill="none" stroke="midnightblue" d="M506.111,-85.6911C506.594,-94.6353 505.973,-104.927 504.331,-112.083"/>
<polygon fill="midnightblue" stroke="midnightblue" points="509.588,-85.286 504.969,-75.7511 502.634,-86.0853 509.588,-85.286"/>
</g>
<!-- Node8 -->
<g id="node8" class="node"><title>Node8</title>
<g id="a_node8"><a xlink:href="EndState_8cpp.html" target="_top" xlink:title="Game/src/EndState.cpp">
<polygon fill="white" stroke="black" points="439,-0.5 439,-19.5 561,-19.5 561,-0.5 439,-0.5"/>
<text text-anchor="middle" x="500" y="-7.5" font-family="Helvetica,sans-Serif" font-size="10.00">Game/src/EndState.cpp</text>
</a>
</g>
</g>
<!-- Node7&#45;&gt;Node8 -->
<g id="edge8" class="edge"><title>Node7&#45;&gt;Node8</title>
<path fill="none" stroke="midnightblue" d="M500,-45.8045C500,-36.9102 500,-26.7798 500,-19.7511"/>
<polygon fill="midnightblue" stroke="midnightblue" points="496.5,-46.083 500,-56.083 503.5,-46.083 496.5,-46.083"/>
</g>
<!-- Node11&#45;&gt;Node9 -->
<g id="edge13" class="edge"><title>Node11&#45;&gt;Node9</title>
<path fill="none" stroke="midnightblue" d="M588.767,-110.601C533.582,-100.395 450.435,-85.0189 399.052,-75.5164"/>
<polygon fill="midnightblue" stroke="midnightblue" points="588.262,-114.067 598.732,-112.444 589.535,-107.183 588.262,-114.067"/>
</g>
<!-- Node12 -->
<g id="node12" class="node"><title>Node12</title>
<g id="a_node12"><a xlink:href="Enemy_8cpp.html" target="_top" xlink:title="Game/src/Enemy.cpp">
<polygon fill="white" stroke="black" points="724,-56.5 724,-75.5 836,-75.5 836,-56.5 724,-56.5"/>
<text text-anchor="middle" x="780" y="-63.5" font-family="Helvetica,sans-Serif" font-size="10.00">Game/src/Enemy.cpp</text>
</a>
</g>
</g>
<!-- Node11&#45;&gt;Node12 -->
<g id="edge12" class="edge"><title>Node11&#45;&gt;Node12</title>
<path fill="none" stroke="midnightblue" d="M675.906,-108.638C701.24,-98.504 736.431,-84.4274 758.709,-75.5164"/>
<polygon fill="midnightblue" stroke="midnightblue" points="674.376,-105.48 666.391,-112.444 676.976,-111.979 674.376,-105.48"/>
</g>
<!-- Node13&#45;&gt;Node4 -->
<g id="edge16" class="edge"><title>Node13&#45;&gt;Node4</title>
<path fill="none" stroke="midnightblue" d="M322.751,-108.772C296.829,-98.6287 260.638,-84.4669 237.764,-75.5164"/>
<polygon fill="midnightblue" stroke="midnightblue" points="321.546,-112.059 332.133,-112.444 324.096,-105.54 321.546,-112.059"/>
</g>
<!-- Node13&#45;&gt;Node9 -->
<g id="edge15" class="edge"><title>Node13&#45;&gt;Node9</title>
<path fill="none" stroke="midnightblue" d="M353.645,-101.805C353.48,-92.9102 353.292,-82.7798 353.162,-75.7511"/>
<polygon fill="midnightblue" stroke="midnightblue" points="350.15,-102.15 353.835,-112.083 357.149,-102.02 350.15,-102.15"/>
</g>
</g>
</svg>
