<?xml version="1.0" encoding="UTF-8" standalone="no"?>
<!DOCTYPE svg PUBLIC "-//W3C//DTD SVG 1.1//EN"
 "http://www.w3.org/Graphics/SVG/1.1/DTD/svg11.dtd">
<!-- Generated by graphviz version 2.38.0 (20140413.2041)
 -->
<!-- Title: Engine/src/Tileset.cpp Pages: 1 -->
<svg width="776pt" height="308pt"
 viewBox="0.00 0.00 775.53 308.00" xmlns="http://www.w3.org/2000/svg" xmlns:xlink="http://www.w3.org/1999/xlink">
<g id="graph0" class="graph" transform="scale(1 1) rotate(0) translate(4 304)">
<title>Engine/src/Tileset.cpp</title>
<polygon fill="white" stroke="none" points="-4,4 -4,-304 771.53,-304 771.53,4 -4,4"/>
<!-- Node1 -->
<g id="node1" class="node"><title>Node1</title>
<polygon fill="#bfbfbf" stroke="black" points="280,-280.5 280,-299.5 394,-299.5 394,-280.5 280,-280.5"/>
<text text-anchor="middle" x="337" y="-287.5" font-family="Helvetica,sans-Serif" font-size="10.00">Engine/src/Tileset.cpp</text>
</g>
<!-- Node2 -->
<g id="node2" class="node"><title>Node2</title>
<g id="a_node2"><a xlink:href="Tileset_8h.html" target="_top" xlink:title="Tileset.h">
<polygon fill="white" stroke="black" points="253,-168.5 253,-187.5 307,-187.5 307,-168.5 253,-168.5"/>
<text text-anchor="middle" x="280" y="-175.5" font-family="Helvetica,sans-Serif" font-size="10.00">Tileset.h</text>
</a>
</g>
</g>
<!-- Node1&#45;&gt;Node2 -->
<g id="edge1" class="edge"><title>Node1&#45;&gt;Node2</title>
<path fill="none" stroke="midnightblue" d="M332.527,-280.368C323.204,-262.376 301.531,-220.55 289.134,-196.627"/>
<polygon fill="midnightblue" stroke="midnightblue" points="292.16,-194.86 284.452,-187.591 285.945,-198.081 292.16,-194.86"/>
</g>
<!-- Node10 -->
<g id="node10" class="node"><title>Node10</title>
<g id="a_node10"><a xlink:href="Error_8h.html" target="_top" xlink:title="Error.h">
<polygon fill="white" stroke="black" points="70,-224.5 70,-243.5 116,-243.5 116,-224.5 70,-224.5"/>
<text text-anchor="middle" x="93" y="-231.5" font-family="Helvetica,sans-Serif" font-size="10.00">Error.h</text>
</a>
</g>
</g>
<!-- Node1&#45;&gt;Node10 -->
<g id="edge10" class="edge"><title>Node1&#45;&gt;Node10</title>
<path fill="none" stroke="midnightblue" d="M298.337,-280.444C250.715,-269.904 170.64,-252.183 125.854,-242.271"/>
<polygon fill="midnightblue" stroke="midnightblue" points="126.583,-238.848 116.063,-240.104 125.071,-245.682 126.583,-238.848"/>
</g>
<!-- Node13 -->
<g id="node13" class="node"><title>Node13</title>
<g id="a_node13"><a xlink:href="Game_8h.html" target="_top" xlink:title="Game.h">
<polygon fill="white" stroke="black" points="440.5,-224.5 440.5,-243.5 491.5,-243.5 491.5,-224.5 440.5,-224.5"/>
<text text-anchor="middle" x="466" y="-231.5" font-family="Helvetica,sans-Serif" font-size="10.00">Game.h</text>
</a>
</g>
</g>
<!-- Node1&#45;&gt;Node13 -->
<g id="edge13" class="edge"><title>Node1&#45;&gt;Node13</title>
<path fill="none" stroke="midnightblue" d="M357.44,-280.444C378.67,-271.557 412.099,-257.563 436.255,-247.451"/>
<polygon fill="midnightblue" stroke="midnightblue" points="437.782,-250.606 445.655,-243.516 435.079,-244.149 437.782,-250.606"/>
</g>
<!-- Node23 -->
<g id="node23" class="node"><title>Node23</title>
<g id="a_node23"><a xlink:href="Camera_8h.html" target="_top" xlink:title="Camera.h">
<polygon fill="white" stroke="black" points="346.5,-224.5 346.5,-243.5 405.5,-243.5 405.5,-224.5 346.5,-224.5"/>
<text text-anchor="middle" x="376" y="-231.5" font-family="Helvetica,sans-Serif" font-size="10.00">Camera.h</text>
</a>
</g>
</g>
<!-- Node1&#45;&gt;Node23 -->
<g id="edge36" class="edge"><title>Node1&#45;&gt;Node23</title>
<path fill="none" stroke="midnightblue" d="M343.44,-280.083C348.949,-272.455 357.031,-261.264 363.765,-251.941"/>
<polygon fill="midnightblue" stroke="midnightblue" points="366.662,-253.907 369.68,-243.751 360.987,-249.809 366.662,-253.907"/>
</g>
<!-- Node3 -->
<g id="node3" class="node"><title>Node3</title>
<polygon fill="white" stroke="#bfbfbf" points="306.5,-56.5 306.5,-75.5 347.5,-75.5 347.5,-56.5 306.5,-56.5"/>
<text text-anchor="middle" x="327" y="-63.5" font-family="Helvetica,sans-Serif" font-size="10.00">string</text>
</g>
<!-- Node2&#45;&gt;Node3 -->
<g id="edge2" class="edge"><title>Node2&#45;&gt;Node3</title>
<path fill="none" stroke="midnightblue" d="M283.688,-168.368C291.341,-150.456 309.087,-108.923 319.331,-84.9482"/>
<polygon fill="midnightblue" stroke="midnightblue" points="322.618,-86.1624 323.329,-75.5914 316.181,-83.412 322.618,-86.1624"/>
</g>
<!-- Node4 -->
<g id="node4" class="node"><title>Node4</title>
<g id="a_node4"><a xlink:href="Sprite_8h.html" target="_top" xlink:title="Sprite.h">
<polygon fill="white" stroke="black" points="219,-112.5 219,-131.5 269,-131.5 269,-112.5 219,-112.5"/>
<text text-anchor="middle" x="244" y="-119.5" font-family="Helvetica,sans-Serif" font-size="10.00">Sprite.h</text>
</a>
</g>
</g>
<!-- Node2&#45;&gt;Node4 -->
<g id="edge3" class="edge"><title>Node2&#45;&gt;Node4</title>
<path fill="none" stroke="midnightblue" d="M274.055,-168.083C269.023,-160.534 261.663,-149.495 255.487,-140.23"/>
<polygon fill="midnightblue" stroke="midnightblue" points="258.293,-138.13 249.834,-131.751 252.469,-142.013 258.293,-138.13"/>
</g>
<!-- Node4&#45;&gt;Node3 -->
<g id="edge4" class="edge"><title>Node4&#45;&gt;Node3</title>
<path fill="none" stroke="midnightblue" d="M257.335,-112.324C270.162,-103.979 289.785,-91.2122 304.94,-81.3524"/>
<polygon fill="midnightblue" stroke="midnightblue" points="307.224,-84.0417 313.698,-75.6545 303.407,-78.1742 307.224,-84.0417"/>
</g>
<!-- Node5 -->
<g id="node5" class="node"><title>Node5</title>
<polygon fill="white" stroke="#bfbfbf" points="459,-56.5 459,-75.5 511,-75.5 511,-56.5 459,-56.5"/>
<text text-anchor="middle" x="485" y="-63.5" font-family="Helvetica,sans-Serif" font-size="10.00">memory</text>
</g>
<!-- Node4&#45;&gt;Node5 -->
<g id="edge5" class="edge"><title>Node4&#45;&gt;Node5</title>
<path fill="none" stroke="midnightblue" d="M269.301,-115.692C306.32,-107.873 377.652,-92.6056 448.661,-76.0224"/>
<polygon fill="midnightblue" stroke="midnightblue" points="449.738,-79.3649 458.675,-73.6744 448.14,-72.5497 449.738,-79.3649"/>
</g>
<!-- Node6 -->
<g id="node6" class="node"><title>Node6</title>
<g id="a_node6"><a xlink:href="Color_8h.html" target="_top" xlink:title="Color.h">
<polygon fill="white" stroke="black" points="176,-56.5 176,-75.5 224,-75.5 224,-56.5 176,-56.5"/>
<text text-anchor="middle" x="200" y="-63.5" font-family="Helvetica,sans-Serif" font-size="10.00">Color.h</text>
</a>
</g>
</g>
<!-- Node4&#45;&gt;Node6 -->
<g id="edge6" class="edge"><title>Node4&#45;&gt;Node6</title>
<path fill="none" stroke="midnightblue" d="M236.734,-112.083C230.455,-104.377 221.212,-93.0333 213.569,-83.6531"/>
<polygon fill="midnightblue" stroke="midnightblue" points="216.161,-81.2926 207.131,-75.7511 210.734,-85.7143 216.161,-81.2926"/>
</g>
<!-- Node7 -->
<g id="node7" class="node"><title>Node7</title>
<g id="a_node7"><a xlink:href="Rect_8h.html" target="_top" xlink:title="Rect.h">
<polygon fill="white" stroke="black" points="242,-56.5 242,-75.5 288,-75.5 288,-56.5 242,-56.5"/>
<text text-anchor="middle" x="265" y="-63.5" font-family="Helvetica,sans-Serif" font-size="10.00">Rect.h</text>
</a>
</g>
</g>
<!-- Node4&#45;&gt;Node7 -->
<g id="edge7" class="edge"><title>Node4&#45;&gt;Node7</title>
<path fill="none" stroke="midnightblue" d="M247.468,-112.083C250.312,-104.77 254.429,-94.1814 257.96,-85.1034"/>
<polygon fill="midnightblue" stroke="midnightblue" points="261.234,-86.3397 261.597,-75.7511 254.71,-83.8025 261.234,-86.3397"/>
</g>
<!-- Node8 -->
<g id="node8" class="node"><title>Node8</title>
<g id="a_node8"><a xlink:href="Vec2_8h.html" target="_top" xlink:title="Vec2.h">
<polygon fill="white" stroke="black" points="524.5,-0.5 524.5,-19.5 571.5,-19.5 571.5,-0.5 524.5,-0.5"/>
<text text-anchor="middle" x="548" y="-7.5" font-family="Helvetica,sans-Serif" font-size="10.00">Vec2.h</text>
</a>
</g>
</g>
<!-- Node7&#45;&gt;Node8 -->
<g id="edge8" class="edge"><title>Node7&#45;&gt;Node8</title>
<path fill="none" stroke="midnightblue" d="M288.004,-58.243C291.018,-57.4421 294.075,-56.6718 297,-56 374.18,-38.2718 466.048,-23.348 514.397,-15.9648"/>
<polygon fill="midnightblue" stroke="midnightblue" points="514.951,-19.421 524.314,-14.4633 513.903,-12.4999 514.951,-19.421"/>
</g>
<!-- Node9 -->
<g id="node9" class="node"><title>Node9</title>
<polygon fill="white" stroke="#bfbfbf" points="243,-0.5 243,-19.5 287,-19.5 287,-0.5 243,-0.5"/>
<text text-anchor="middle" x="265" y="-7.5" font-family="Helvetica,sans-Serif" font-size="10.00">cmath</text>
</g>
<!-- Node7&#45;&gt;Node9 -->
<g id="edge9" class="edge"><title>Node7&#45;&gt;Node9</title>
<path fill="none" stroke="midnightblue" d="M265,-56.083C265,-49.0059 265,-38.8611 265,-29.9865"/>
<polygon fill="midnightblue" stroke="midnightblue" points="268.5,-29.751 265,-19.7511 261.5,-29.7511 268.5,-29.751"/>
</g>
<!-- Node11 -->
<g id="node11" class="node"><title>Node11</title>
<polygon fill="white" stroke="#bfbfbf" points="66,-168.5 66,-187.5 120,-187.5 120,-168.5 66,-168.5"/>
<text text-anchor="middle" x="93" y="-175.5" font-family="Helvetica,sans-Serif" font-size="10.00">iostream</text>
</g>
<!-- Node10&#45;&gt;Node11 -->
<g id="edge11" class="edge"><title>Node10&#45;&gt;Node11</title>
<path fill="none" stroke="midnightblue" d="M93,-224.083C93,-217.006 93,-206.861 93,-197.986"/>
<polygon fill="midnightblue" stroke="midnightblue" points="96.5001,-197.751 93,-187.751 89.5001,-197.751 96.5001,-197.751"/>
</g>
<!-- Node12 -->
<g id="node12" class="node"><title>Node12</title>
<polygon fill="white" stroke="#bfbfbf" points="0,-168.5 0,-187.5 48,-187.5 48,-168.5 0,-168.5"/>
<text text-anchor="middle" x="24" y="-175.5" font-family="Helvetica,sans-Serif" font-size="10.00">stdlib.h</text>
</g>
<!-- Node10&#45;&gt;Node12 -->
<g id="edge12" class="edge"><title>Node10&#45;&gt;Node12</title>
<path fill="none" stroke="midnightblue" d="M81.914,-224.324C71.514,-216.185 55.7394,-203.839 43.2784,-194.087"/>
<polygon fill="midnightblue" stroke="midnightblue" points="45.3199,-191.241 35.2878,-187.834 41.0057,-196.753 45.3199,-191.241"/>
</g>
<!-- Node13&#45;&gt;Node3 -->
<g id="edge14" class="edge"><title>Node13&#45;&gt;Node3</title>
<path fill="none" stroke="midnightblue" d="M453.228,-224.424C430.493,-208.587 382.7,-172.634 354,-132 343.876,-117.666 336.614,-98.9594 332.189,-85.2964"/>
<polygon fill="midnightblue" stroke="midnightblue" points="335.5,-84.1537 329.248,-75.6002 328.801,-86.1856 335.5,-84.1537"/>
</g>
<!-- Node13&#45;&gt;Node8 -->
<g id="edge35" class="edge"><title>Node13&#45;&gt;Node8</title>
<path fill="none" stroke="midnightblue" d="M491.831,-232.422C532.635,-230.443 613.29,-222.126 671,-188 726.693,-155.067 742.851,-137.147 764,-76 766.905,-67.5994 769.608,-62.8966 764,-56 741.457,-28.2769 637.055,-17.0617 582.078,-13.0173"/>
<polygon fill="midnightblue" stroke="midnightblue" points="581.999,-9.50341 571.78,-12.3012 581.513,-16.4865 581.999,-9.50341"/>
</g>
<!-- Node14 -->
<g id="node14" class="node"><title>Node14</title>
<polygon fill="white" stroke="#bfbfbf" points="425.5,-168.5 425.5,-187.5 466.5,-187.5 466.5,-168.5 425.5,-168.5"/>
<text text-anchor="middle" x="446" y="-175.5" font-family="Helvetica,sans-Serif" font-size="10.00">stack</text>
</g>
<!-- Node13&#45;&gt;Node14 -->
<g id="edge15" class="edge"><title>Node13&#45;&gt;Node14</title>
<path fill="none" stroke="midnightblue" d="M462.697,-224.083C460.018,-216.849 456.151,-206.409 452.814,-197.397"/>
<polygon fill="midnightblue" stroke="midnightblue" points="455.996,-195.913 449.241,-187.751 449.432,-198.344 455.996,-195.913"/>
</g>
<!-- Node15 -->
<g id="node15" class="node"><title>Node15</title>
<g id="a_node15"><a xlink:href="State_8h.html" target="_top" xlink:title="State.h">
<polygon fill="white" stroke="black" points="485,-168.5 485,-187.5 533,-187.5 533,-168.5 485,-168.5"/>
<text text-anchor="middle" x="509" y="-175.5" font-family="Helvetica,sans-Serif" font-size="10.00">State.h</text>
</a>
</g>
</g>
<!-- Node13&#45;&gt;Node15 -->
<g id="edge16" class="edge"><title>Node13&#45;&gt;Node15</title>
<path fill="none" stroke="midnightblue" d="M473.101,-224.083C479.237,-216.377 488.27,-205.033 495.739,-195.653"/>
<polygon fill="midnightblue" stroke="midnightblue" points="498.54,-197.754 502.032,-187.751 493.064,-193.394 498.54,-197.754"/>
</g>
<!-- Node17 -->
<g id="node17" class="node"><title>Node17</title>
<g id="a_node17"><a xlink:href="InputManager_8h.html" target="_top" xlink:title="InputManager.h">
<polygon fill="white" stroke="black" points="627,-112.5 627,-131.5 711,-131.5 711,-112.5 627,-112.5"/>
<text text-anchor="middle" x="669" y="-119.5" font-family="Helvetica,sans-Serif" font-size="10.00">InputManager.h</text>
</a>
</g>
</g>
<!-- Node13&#45;&gt;Node17 -->
<g id="edge34" class="edge"><title>Node13&#45;&gt;Node17</title>
<path fill="none" stroke="midnightblue" d="M491.527,-229.922C536.527,-223.998 627.363,-209.651 650,-188 662.47,-176.073 666.887,-156.458 668.385,-141.89"/>
<polygon fill="midnightblue" stroke="midnightblue" points="671.903,-141.738 669.06,-131.532 664.917,-141.283 671.903,-141.738"/>
</g>
<!-- Node15&#45;&gt;Node5 -->
<g id="edge18" class="edge"><title>Node15&#45;&gt;Node5</title>
<path fill="none" stroke="midnightblue" d="M504.339,-168.324C499.822,-159.467 493.201,-145.186 490,-132 486.283,-116.688 485.13,-98.8066 484.852,-85.6789"/>
<polygon fill="midnightblue" stroke="midnightblue" points="488.351,-85.5286 484.79,-75.5503 481.351,-85.5715 488.351,-85.5286"/>
</g>
<!-- Node16 -->
<g id="node16" class="node"><title>Node16</title>
<polygon fill="white" stroke="#bfbfbf" points="529,-56.5 529,-75.5 573,-75.5 573,-56.5 529,-56.5"/>
<text text-anchor="middle" x="551" y="-63.5" font-family="Helvetica,sans-Serif" font-size="10.00">vector</text>
</g>
<!-- Node15&#45;&gt;Node16 -->
<g id="edge17" class="edge"><title>Node15&#45;&gt;Node16</title>
<path fill="none" stroke="midnightblue" d="M533.106,-168.831C549.55,-161.849 570.082,-150.029 580,-132 588.795,-116.014 577.796,-96.8446 566.912,-83.4825"/>
<polygon fill="midnightblue" stroke="midnightblue" points="569.226,-80.8146 559.985,-75.6321 563.977,-85.4461 569.226,-80.8146"/>
</g>
<!-- Node15&#45;&gt;Node17 -->
<g id="edge19" class="edge"><title>Node15&#45;&gt;Node17</title>
<path fill="none" stroke="midnightblue" d="M533.301,-168.799C560.083,-159.759 603.401,-145.14 633.876,-134.854"/>
<polygon fill="midnightblue" stroke="midnightblue" points="635.321,-138.061 643.677,-131.547 633.082,-131.428 635.321,-138.061"/>
</g>
<!-- Node20 -->
<g id="node20" class="node"><title>Node20</title>
<g id="a_node20"><a xlink:href="Resources_8h.html" target="_top" xlink:title="Resources.h">
<polygon fill="white" stroke="black" points="499,-112.5 499,-131.5 571,-131.5 571,-112.5 499,-112.5"/>
<text text-anchor="middle" x="535" y="-119.5" font-family="Helvetica,sans-Serif" font-size="10.00">Resources.h</text>
</a>
</g>
</g>
<!-- Node15&#45;&gt;Node20 -->
<g id="edge23" class="edge"><title>Node15&#45;&gt;Node20</title>
<path fill="none" stroke="midnightblue" d="M513.293,-168.083C516.852,-160.691 522.022,-149.953 526.424,-140.811"/>
<polygon fill="midnightblue" stroke="midnightblue" points="529.602,-142.279 530.787,-131.751 523.295,-139.243 529.602,-142.279"/>
</g>
<!-- Node21 -->
<g id="node21" class="node"><title>Node21</title>
<g id="a_node21"><a xlink:href="GameObject_8h.html" target="_top" xlink:title="GameObject.h">
<polygon fill="white" stroke="black" points="363,-112.5 363,-131.5 443,-131.5 443,-112.5 363,-112.5"/>
<text text-anchor="middle" x="403" y="-119.5" font-family="Helvetica,sans-Serif" font-size="10.00">GameObject.h</text>
</a>
</g>
</g>
<!-- Node15&#45;&gt;Node21 -->
<g id="edge27" class="edge"><title>Node15&#45;&gt;Node21</title>
<path fill="none" stroke="midnightblue" d="M491.969,-168.324C474.97,-159.664 448.624,-146.242 429.007,-136.249"/>
<polygon fill="midnightblue" stroke="midnightblue" points="430.488,-133.075 419.988,-131.655 427.31,-139.312 430.488,-133.075"/>
</g>
<!-- Node17&#45;&gt;Node8 -->
<g id="edge20" class="edge"><title>Node17&#45;&gt;Node8</title>
<path fill="none" stroke="midnightblue" d="M694.581,-112.499C724.369,-101.242 767.195,-79.9934 748,-56 727.564,-30.4549 633.343,-18.3926 581.847,-13.6219"/>
<polygon fill="midnightblue" stroke="midnightblue" points="582.119,-10.1324 571.85,-12.7377 581.502,-17.1052 582.119,-10.1324"/>
</g>
<!-- Node18 -->
<g id="node18" class="node"><title>Node18</title>
<polygon fill="white" stroke="#bfbfbf" points="591.5,-56.5 591.5,-75.5 674.5,-75.5 674.5,-56.5 591.5,-56.5"/>
<text text-anchor="middle" x="633" y="-63.5" font-family="Helvetica,sans-Serif" font-size="10.00">unordered_map</text>
</g>
<!-- Node17&#45;&gt;Node18 -->
<g id="edge21" class="edge"><title>Node17&#45;&gt;Node18</title>
<path fill="none" stroke="midnightblue" d="M663.055,-112.083C658.023,-104.534 650.663,-93.4948 644.487,-84.2298"/>
<polygon fill="midnightblue" stroke="midnightblue" points="647.293,-82.1301 638.834,-75.7511 641.469,-86.0131 647.293,-82.1301"/>
</g>
<!-- Node19 -->
<g id="node19" class="node"><title>Node19</title>
<polygon fill="white" stroke="#bfbfbf" points="693,-56.5 693,-75.5 739,-75.5 739,-56.5 693,-56.5"/>
<text text-anchor="middle" x="716" y="-63.5" font-family="Helvetica,sans-Serif" font-size="10.00">cstdint</text>
</g>
<!-- Node17&#45;&gt;Node19 -->
<g id="edge22" class="edge"><title>Node17&#45;&gt;Node19</title>
<path fill="none" stroke="midnightblue" d="M676.761,-112.083C683.537,-104.298 693.543,-92.8015 701.755,-83.3665"/>
<polygon fill="midnightblue" stroke="midnightblue" points="704.458,-85.592 708.383,-75.7511 699.178,-80.9963 704.458,-85.592"/>
</g>
<!-- Node20&#45;&gt;Node3 -->
<g id="edge24" class="edge"><title>Node20&#45;&gt;Node3</title>
<path fill="none" stroke="midnightblue" d="M498.848,-112.525C464.638,-104.37 411.64,-91.3864 357.344,-76.2752"/>
<polygon fill="midnightblue" stroke="midnightblue" points="358.128,-72.8599 347.554,-73.5309 356.238,-79.6001 358.128,-72.8599"/>
</g>
<!-- Node20&#45;&gt;Node5 -->
<g id="edge26" class="edge"><title>Node20&#45;&gt;Node5</title>
<path fill="none" stroke="midnightblue" d="M526.744,-112.083C519.535,-104.298 508.89,-92.8015 500.154,-83.3665"/>
<polygon fill="midnightblue" stroke="midnightblue" points="502.465,-80.7108 493.103,-75.7511 497.329,-85.4666 502.465,-80.7108"/>
</g>
<!-- Node20&#45;&gt;Node18 -->
<g id="edge25" class="edge"><title>Node20&#45;&gt;Node18</title>
<path fill="none" stroke="midnightblue" d="M550.745,-112.324C566.319,-103.743 590.377,-90.486 608.459,-80.5224"/>
<polygon fill="midnightblue" stroke="midnightblue" points="610.224,-83.546 617.294,-75.6545 606.846,-77.4152 610.224,-83.546"/>
</g>
<!-- Node21&#45;&gt;Node3 -->
<g id="edge29" class="edge"><title>Node21&#45;&gt;Node3</title>
<path fill="none" stroke="midnightblue" d="M390.789,-112.324C379.224,-104.107 361.625,-91.6017 347.839,-81.8069"/>
<polygon fill="midnightblue" stroke="midnightblue" points="349.612,-78.7729 339.433,-75.8339 345.557,-84.4791 349.612,-78.7729"/>
</g>
<!-- Node21&#45;&gt;Node5 -->
<g id="edge28" class="edge"><title>Node21&#45;&gt;Node5</title>
<path fill="none" stroke="midnightblue" d="M416.175,-112.324C428.847,-103.979 448.233,-91.2122 463.206,-81.3524"/>
<polygon fill="midnightblue" stroke="midnightblue" points="465.431,-84.0776 471.858,-75.6545 461.581,-78.2313 465.431,-84.0776"/>
</g>
<!-- Node21&#45;&gt;Node7 -->
<g id="edge33" class="edge"><title>Node21&#45;&gt;Node7</title>
<path fill="none" stroke="midnightblue" d="M381.133,-112.444C358.221,-103.478 322.025,-89.314 296.134,-79.1827"/>
<polygon fill="midnightblue" stroke="midnightblue" points="297.352,-75.9011 286.764,-75.5164 294.801,-82.4198 297.352,-75.9011"/>
</g>
<!-- Node21&#45;&gt;Node16 -->
<g id="edge30" class="edge"><title>Node21&#45;&gt;Node16</title>
<path fill="none" stroke="midnightblue" d="M426.451,-112.444C451.423,-103.332 491.106,-88.8531 518.953,-78.6929"/>
<polygon fill="midnightblue" stroke="midnightblue" points="520.433,-81.8786 528.627,-75.1629 518.034,-75.3027 520.433,-81.8786"/>
</g>
<!-- Node22 -->
<g id="node22" class="node"><title>Node22</title>
<g id="a_node22"><a xlink:href="Component_8h.html" target="_top" xlink:title="Component.h">
<polygon fill="white" stroke="black" points="365.5,-56.5 365.5,-75.5 440.5,-75.5 440.5,-56.5 365.5,-56.5"/>
<text text-anchor="middle" x="403" y="-63.5" font-family="Helvetica,sans-Serif" font-size="10.00">Component.h</text>
</a>
</g>
</g>
<!-- Node21&#45;&gt;Node22 -->
<g id="edge31" class="edge"><title>Node21&#45;&gt;Node22</title>
<path fill="none" stroke="midnightblue" d="M397.834,-112.083C396.324,-104.927 395.894,-94.6353 396.542,-85.6911"/>
<polygon fill="midnightblue" stroke="midnightblue" points="400.015,-86.1262 397.869,-75.7511 393.077,-85.2002 400.015,-86.1262"/>
</g>
<!-- Node22&#45;&gt;Node21 -->
<g id="edge32" class="edge"><title>Node22&#45;&gt;Node21</title>
<path fill="none" stroke="midnightblue" d="M408.131,-75.7511C409.657,-82.8579 410.104,-93.1357 409.472,-102.101"/>
<polygon fill="midnightblue" stroke="midnightblue" points="405.993,-101.713 408.166,-112.083 412.934,-102.622 405.993,-101.713"/>
</g>
<!-- Node23&#45;&gt;Node8 -->
<g id="edge38" class="edge"><title>Node23&#45;&gt;Node8</title>
<path fill="none" stroke="midnightblue" d="M346.452,-228.477C317.897,-222.906 274.584,-211.18 244,-188 189.871,-146.976 121.879,-106.764 167,-56 189.935,-30.1973 425.605,-16.6736 514.4,-12.4635"/>
<polygon fill="midnightblue" stroke="midnightblue" points="514.649,-15.9558 524.476,-11.9961 514.325,-8.96336 514.649,-15.9558"/>
</g>
<!-- Node23&#45;&gt;Node21 -->
<g id="edge37" class="edge"><title>Node23&#45;&gt;Node21</title>
<path fill="none" stroke="midnightblue" d="M378.119,-224.368C382.476,-206.617 392.527,-165.666 398.435,-141.597"/>
<polygon fill="midnightblue" stroke="midnightblue" points="401.906,-142.137 400.891,-131.591 395.108,-140.469 401.906,-142.137"/>
</g>
<!-- Node24 -->
<g id="node24" class="node"><title>Node24</title>
<g id="a_node24"><a xlink:href="ActionManager_8h.html" target="_top" xlink:title="ActionManager.h">
<polygon fill="white" stroke="black" points="551,-168.5 551,-187.5 641,-187.5 641,-168.5 551,-168.5"/>
<text text-anchor="middle" x="596" y="-175.5" font-family="Helvetica,sans-Serif" font-size="10.00">ActionManager.h</text>
</a>
</g>
</g>
<!-- Node23&#45;&gt;Node24 -->
<g id="edge39" class="edge"><title>Node23&#45;&gt;Node24</title>
<path fill="none" stroke="midnightblue" d="M405.67,-225.717C443.101,-216.53 507.818,-200.645 551.262,-189.981"/>
<polygon fill="midnightblue" stroke="midnightblue" points="552.126,-193.373 561.004,-187.59 550.458,-186.575 552.126,-193.373"/>
</g>
<!-- Node24&#45;&gt;Node17 -->
<g id="edge40" class="edge"><title>Node24&#45;&gt;Node17</title>
<path fill="none" stroke="midnightblue" d="M607.729,-168.324C618.837,-160.107 635.742,-147.602 648.983,-137.807"/>
<polygon fill="midnightblue" stroke="midnightblue" points="651.1,-140.595 657.058,-131.834 646.937,-134.967 651.1,-140.595"/>
</g>
</g>
</svg>
