<?xml version="1.0" encoding="UTF-8" standalone="no"?>
<!DOCTYPE svg PUBLIC "-//W3C//DTD SVG 1.1//EN"
 "http://www.w3.org/Graphics/SVG/1.1/DTD/svg11.dtd">
<!-- Generated by graphviz version 2.38.0 (20140413.2041)
 -->
<!-- Title: Engine/include/Tileset.h Pages: 1 -->
<svg width="286pt" height="196pt"
 viewBox="0.00 0.00 285.50 196.00" xmlns="http://www.w3.org/2000/svg" xmlns:xlink="http://www.w3.org/1999/xlink">
<g id="graph0" class="graph" transform="scale(1 1) rotate(0) translate(4 192)">
<title>Engine/include/Tileset.h</title>
<polygon fill="white" stroke="none" points="-4,4 -4,-192 281.5,-192 281.5,4 -4,4"/>
<!-- Node1 -->
<g id="node1" class="node"><title>Node1</title>
<polygon fill="#bfbfbf" stroke="black" points="0,-168.5 0,-187.5 121,-187.5 121,-168.5 0,-168.5"/>
<text text-anchor="middle" x="60.5" y="-175.5" font-family="Helvetica,sans-Serif" font-size="10.00">Engine/include/Tileset.h</text>
</g>
<!-- Node2 -->
<g id="node2" class="node"><title>Node2</title>
<polygon fill="white" stroke="#bfbfbf" points="5,-56.5 5,-75.5 46,-75.5 46,-56.5 5,-56.5"/>
<text text-anchor="middle" x="25.5" y="-63.5" font-family="Helvetica,sans-Serif" font-size="10.00">string</text>
</g>
<!-- Node1&#45;&gt;Node2 -->
<g id="edge1" class="edge"><title>Node1&#45;&gt;Node2</title>
<path fill="none" stroke="midnightblue" d="M57.7536,-168.368C52.0798,-150.537 38.9576,-109.295 31.3137,-85.2717"/>
<polygon fill="midnightblue" stroke="midnightblue" points="34.601,-84.0594 28.2336,-75.5914 27.9305,-86.1819 34.601,-84.0594"/>
</g>
<!-- Node3 -->
<g id="node3" class="node"><title>Node3</title>
<g id="a_node3"><a xlink:href="Sprite_8h.html" target="_top" xlink:title="Sprite.h">
<polygon fill="white" stroke="black" points="65.5,-112.5 65.5,-131.5 115.5,-131.5 115.5,-112.5 65.5,-112.5"/>
<text text-anchor="middle" x="90.5" y="-119.5" font-family="Helvetica,sans-Serif" font-size="10.00">Sprite.h</text>
</a>
</g>
</g>
<!-- Node1&#45;&gt;Node3 -->
<g id="edge2" class="edge"><title>Node1&#45;&gt;Node3</title>
<path fill="none" stroke="midnightblue" d="M65.4539,-168.083C69.6041,-160.613 75.6531,-149.724 80.7667,-140.52"/>
<polygon fill="midnightblue" stroke="midnightblue" points="83.8414,-142.192 85.6383,-131.751 77.7223,-138.793 83.8414,-142.192"/>
</g>
<!-- Node3&#45;&gt;Node2 -->
<g id="edge3" class="edge"><title>Node3&#45;&gt;Node2</title>
<path fill="none" stroke="midnightblue" d="M80.0566,-112.324C70.3538,-104.263 55.6847,-92.0765 44.0003,-82.3695"/>
<polygon fill="midnightblue" stroke="midnightblue" points="46.0619,-79.532 36.1334,-75.8339 41.5887,-84.9163 46.0619,-79.532"/>
</g>
<!-- Node4 -->
<g id="node4" class="node"><title>Node4</title>
<polygon fill="white" stroke="#bfbfbf" points="64.5,-56.5 64.5,-75.5 116.5,-75.5 116.5,-56.5 64.5,-56.5"/>
<text text-anchor="middle" x="90.5" y="-63.5" font-family="Helvetica,sans-Serif" font-size="10.00">memory</text>
</g>
<!-- Node3&#45;&gt;Node4 -->
<g id="edge4" class="edge"><title>Node3&#45;&gt;Node4</title>
<path fill="none" stroke="midnightblue" d="M90.5,-112.083C90.5,-105.006 90.5,-94.8611 90.5,-85.9865"/>
<polygon fill="midnightblue" stroke="midnightblue" points="94.0001,-85.751 90.5,-75.7511 87.0001,-85.7511 94.0001,-85.751"/>
</g>
<!-- Node5 -->
<g id="node5" class="node"><title>Node5</title>
<g id="a_node5"><a xlink:href="Color_8h.html" target="_top" xlink:title="Color.h">
<polygon fill="white" stroke="black" points="134.5,-56.5 134.5,-75.5 182.5,-75.5 182.5,-56.5 134.5,-56.5"/>
<text text-anchor="middle" x="158.5" y="-63.5" font-family="Helvetica,sans-Serif" font-size="10.00">Color.h</text>
</a>
</g>
</g>
<!-- Node3&#45;&gt;Node5 -->
<g id="edge5" class="edge"><title>Node3&#45;&gt;Node5</title>
<path fill="none" stroke="midnightblue" d="M101.425,-112.324C111.675,-104.185 127.221,-91.8395 139.501,-82.0874"/>
<polygon fill="midnightblue" stroke="midnightblue" points="141.721,-84.7937 147.376,-75.8339 137.368,-79.3119 141.721,-84.7937"/>
</g>
<!-- Node6 -->
<g id="node6" class="node"><title>Node6</title>
<g id="a_node6"><a xlink:href="Rect_8h.html" target="_top" xlink:title="Rect.h">
<polygon fill="white" stroke="black" points="200.5,-56.5 200.5,-75.5 246.5,-75.5 246.5,-56.5 200.5,-56.5"/>
<text text-anchor="middle" x="223.5" y="-63.5" font-family="Helvetica,sans-Serif" font-size="10.00">Rect.h</text>
</a>
</g>
</g>
<!-- Node3&#45;&gt;Node6 -->
<g id="edge6" class="edge"><title>Node3&#45;&gt;Node6</title>
<path fill="none" stroke="midnightblue" d="M111.574,-112.444C133.56,-103.517 168.234,-89.4387 193.164,-79.3168"/>
<polygon fill="midnightblue" stroke="midnightblue" points="194.576,-82.5213 202.524,-75.5164 191.942,-76.0355 194.576,-82.5213"/>
</g>
<!-- Node7 -->
<g id="node7" class="node"><title>Node7</title>
<g id="a_node7"><a xlink:href="Vec2_8h.html" target="_top" xlink:title="Vec2.h">
<polygon fill="white" stroke="black" points="168,-0.5 168,-19.5 215,-19.5 215,-0.5 168,-0.5"/>
<text text-anchor="middle" x="191.5" y="-7.5" font-family="Helvetica,sans-Serif" font-size="10.00">Vec2.h</text>
</a>
</g>
</g>
<!-- Node6&#45;&gt;Node7 -->
<g id="edge7" class="edge"><title>Node6&#45;&gt;Node7</title>
<path fill="none" stroke="midnightblue" d="M218.216,-56.083C213.789,-48.6127 207.337,-37.7244 201.882,-28.5199"/>
<polygon fill="midnightblue" stroke="midnightblue" points="204.795,-26.5697 196.686,-19.7511 198.773,-30.1383 204.795,-26.5697"/>
</g>
<!-- Node8 -->
<g id="node8" class="node"><title>Node8</title>
<polygon fill="white" stroke="#bfbfbf" points="233.5,-0.5 233.5,-19.5 277.5,-19.5 277.5,-0.5 233.5,-0.5"/>
<text text-anchor="middle" x="255.5" y="-7.5" font-family="Helvetica,sans-Serif" font-size="10.00">cmath</text>
</g>
<!-- Node6&#45;&gt;Node8 -->
<g id="edge8" class="edge"><title>Node6&#45;&gt;Node8</title>
<path fill="none" stroke="midnightblue" d="M228.784,-56.083C233.211,-48.6127 239.663,-37.7244 245.118,-28.5199"/>
<polygon fill="midnightblue" stroke="midnightblue" points="248.227,-30.1383 250.314,-19.7511 242.205,-26.5697 248.227,-30.1383"/>
</g>
</g>
</svg>
