<?xml version="1.0" encoding="UTF-8" standalone="no"?>
<!DOCTYPE svg PUBLIC "-//W3C//DTD SVG 1.1//EN"
 "http://www.w3.org/Graphics/SVG/1.1/DTD/svg11.dtd">
<!-- Generated by graphviz version 2.38.0 (20140413.2041)
 -->
<!-- Title: Engine/src/Tileset.cpp Pages: 1 -->
<svg width="634pt" height="308pt"
 viewBox="0.00 0.00 633.50 308.00" xmlns="http://www.w3.org/2000/svg" xmlns:xlink="http://www.w3.org/1999/xlink">
<g id="graph0" class="graph" transform="scale(1 1) rotate(0) translate(4 304)">
<title>Engine/src/Tileset.cpp</title>
<polygon fill="white" stroke="none" points="-4,4 -4,-304 629.5,-304 629.5,4 -4,4"/>
<!-- Node1 -->
<g id="node1" class="node"><title>Node1</title>
<polygon fill="#bfbfbf" stroke="black" points="268.5,-280.5 268.5,-299.5 382.5,-299.5 382.5,-280.5 268.5,-280.5"/>
<text text-anchor="middle" x="325.5" y="-287.5" font-family="Helvetica,sans-Serif" font-size="10.00">Engine/src/Tileset.cpp</text>
</g>
<!-- Node2 -->
<g id="node2" class="node"><title>Node2</title>
<g id="a_node2"><a xlink:href="Tileset_8h.html" target="_top" xlink:title="Tileset.h">
<polygon fill="white" stroke="black" points="80.5,-168.5 80.5,-187.5 134.5,-187.5 134.5,-168.5 80.5,-168.5"/>
<text text-anchor="middle" x="107.5" y="-175.5" font-family="Helvetica,sans-Serif" font-size="10.00">Tileset.h</text>
</a>
</g>
</g>
<!-- Node1&#45;&gt;Node2 -->
<g id="edge1" class="edge"><title>Node1&#45;&gt;Node2</title>
<path fill="none" stroke="midnightblue" d="M308.394,-280.368C270.428,-261.211 178.916,-215.036 133.694,-192.217"/>
<polygon fill="midnightblue" stroke="midnightblue" points="135.031,-188.972 124.527,-187.591 131.878,-195.221 135.031,-188.972"/>
</g>
<!-- Node6 -->
<g id="node6" class="node"><title>Node6</title>
<g id="a_node6"><a xlink:href="Error_8h.html" target="_top" xlink:title="Error.h">
<polygon fill="white" stroke="black" points="506.5,-224.5 506.5,-243.5 552.5,-243.5 552.5,-224.5 506.5,-224.5"/>
<text text-anchor="middle" x="529.5" y="-231.5" font-family="Helvetica,sans-Serif" font-size="10.00">Error.h</text>
</a>
</g>
</g>
<!-- Node1&#45;&gt;Node6 -->
<g id="edge6" class="edge"><title>Node1&#45;&gt;Node6</title>
<path fill="none" stroke="midnightblue" d="M357.824,-280.444C395.616,-270.44 457.85,-253.966 496.099,-243.842"/>
<polygon fill="midnightblue" stroke="midnightblue" points="497.439,-247.107 506.21,-241.165 495.648,-240.34 497.439,-247.107"/>
</g>
<!-- Node9 -->
<g id="node9" class="node"><title>Node9</title>
<g id="a_node9"><a xlink:href="Game_8h.html" target="_top" xlink:title="Game.h">
<polygon fill="white" stroke="black" points="331,-224.5 331,-243.5 382,-243.5 382,-224.5 331,-224.5"/>
<text text-anchor="middle" x="356.5" y="-231.5" font-family="Helvetica,sans-Serif" font-size="10.00">Game.h</text>
</a>
</g>
</g>
<!-- Node1&#45;&gt;Node9 -->
<g id="edge9" class="edge"><title>Node1&#45;&gt;Node9</title>
<path fill="none" stroke="midnightblue" d="M330.619,-280.083C334.908,-272.613 341.158,-261.724 346.442,-252.52"/>
<polygon fill="midnightblue" stroke="midnightblue" points="349.533,-254.166 351.476,-243.751 343.462,-250.681 349.533,-254.166"/>
</g>
<!-- Node19 -->
<g id="node19" class="node"><title>Node19</title>
<g id="a_node19"><a xlink:href="Camera_8h.html" target="_top" xlink:title="Camera.h">
<polygon fill="white" stroke="black" points="263,-168.5 263,-187.5 322,-187.5 322,-168.5 263,-168.5"/>
<text text-anchor="middle" x="292.5" y="-175.5" font-family="Helvetica,sans-Serif" font-size="10.00">Camera.h</text>
</a>
</g>
</g>
<!-- Node1&#45;&gt;Node19 -->
<g id="edge27" class="edge"><title>Node1&#45;&gt;Node19</title>
<path fill="none" stroke="midnightblue" d="M322.911,-280.368C317.561,-262.537 305.189,-221.295 297.982,-197.272"/>
<polygon fill="midnightblue" stroke="midnightblue" points="301.303,-196.164 295.077,-187.591 294.599,-198.175 301.303,-196.164"/>
</g>
<!-- Node3 -->
<g id="node3" class="node"><title>Node3</title>
<polygon fill="white" stroke="#bfbfbf" points="0,-56.5 0,-75.5 41,-75.5 41,-56.5 0,-56.5"/>
<text text-anchor="middle" x="20.5" y="-63.5" font-family="Helvetica,sans-Serif" font-size="10.00">string</text>
</g>
<!-- Node2&#45;&gt;Node3 -->
<g id="edge2" class="edge"><title>Node2&#45;&gt;Node3</title>
<path fill="none" stroke="midnightblue" d="M100.673,-168.368C86.2522,-150.135 52.4731,-107.426 33.6886,-83.6752"/>
<polygon fill="midnightblue" stroke="midnightblue" points="36.2436,-81.2636 27.295,-75.5914 30.7533,-85.606 36.2436,-81.2636"/>
</g>
<!-- Node4 -->
<g id="node4" class="node"><title>Node4</title>
<g id="a_node4"><a xlink:href="Sprite_8h.html" target="_top" xlink:title="Sprite.h">
<polygon fill="white" stroke="black" points="82.5,-112.5 82.5,-131.5 132.5,-131.5 132.5,-112.5 82.5,-112.5"/>
<text text-anchor="middle" x="107.5" y="-119.5" font-family="Helvetica,sans-Serif" font-size="10.00">Sprite.h</text>
</a>
</g>
</g>
<!-- Node2&#45;&gt;Node4 -->
<g id="edge3" class="edge"><title>Node2&#45;&gt;Node4</title>
<path fill="none" stroke="midnightblue" d="M107.5,-168.083C107.5,-161.006 107.5,-150.861 107.5,-141.986"/>
<polygon fill="midnightblue" stroke="midnightblue" points="111,-141.751 107.5,-131.751 104,-141.751 111,-141.751"/>
</g>
<!-- Node4&#45;&gt;Node3 -->
<g id="edge4" class="edge"><title>Node4&#45;&gt;Node3</title>
<path fill="none" stroke="midnightblue" d="M93.5219,-112.324C79.9504,-103.9 59.1198,-90.9709 43.175,-81.0741"/>
<polygon fill="midnightblue" stroke="midnightblue" points="44.7856,-77.9544 34.4434,-75.6545 41.094,-83.9019 44.7856,-77.9544"/>
</g>
<!-- Node5 -->
<g id="node5" class="node"><title>Node5</title>
<polygon fill="white" stroke="#bfbfbf" points="59.5,-56.5 59.5,-75.5 111.5,-75.5 111.5,-56.5 59.5,-56.5"/>
<text text-anchor="middle" x="85.5" y="-63.5" font-family="Helvetica,sans-Serif" font-size="10.00">memory</text>
</g>
<!-- Node4&#45;&gt;Node5 -->
<g id="edge5" class="edge"><title>Node4&#45;&gt;Node5</title>
<path fill="none" stroke="midnightblue" d="M103.867,-112.083C100.888,-104.77 96.5739,-94.1814 92.8755,-85.1034"/>
<polygon fill="midnightblue" stroke="midnightblue" points="96.0796,-83.6914 89.0653,-75.7511 89.597,-86.3326 96.0796,-83.6914"/>
</g>
<!-- Node7 -->
<g id="node7" class="node"><title>Node7</title>
<polygon fill="white" stroke="#bfbfbf" points="571.5,-168.5 571.5,-187.5 625.5,-187.5 625.5,-168.5 571.5,-168.5"/>
<text text-anchor="middle" x="598.5" y="-175.5" font-family="Helvetica,sans-Serif" font-size="10.00">iostream</text>
</g>
<!-- Node6&#45;&gt;Node7 -->
<g id="edge7" class="edge"><title>Node6&#45;&gt;Node7</title>
<path fill="none" stroke="midnightblue" d="M540.586,-224.324C550.986,-216.185 566.761,-203.839 579.222,-194.087"/>
<polygon fill="midnightblue" stroke="midnightblue" points="581.494,-196.753 587.212,-187.834 577.18,-191.241 581.494,-196.753"/>
</g>
<!-- Node8 -->
<g id="node8" class="node"><title>Node8</title>
<polygon fill="white" stroke="#bfbfbf" points="505.5,-168.5 505.5,-187.5 553.5,-187.5 553.5,-168.5 505.5,-168.5"/>
<text text-anchor="middle" x="529.5" y="-175.5" font-family="Helvetica,sans-Serif" font-size="10.00">stdlib.h</text>
</g>
<!-- Node6&#45;&gt;Node8 -->
<g id="edge8" class="edge"><title>Node6&#45;&gt;Node8</title>
<path fill="none" stroke="midnightblue" d="M529.5,-224.083C529.5,-217.006 529.5,-206.861 529.5,-197.986"/>
<polygon fill="midnightblue" stroke="midnightblue" points="533,-197.751 529.5,-187.751 526,-197.751 533,-197.751"/>
</g>
<!-- Node9&#45;&gt;Node3 -->
<g id="edge10" class="edge"><title>Node9&#45;&gt;Node3</title>
<path fill="none" stroke="midnightblue" d="M330.98,-232.083C268.821,-229.371 111.73,-219.498 71.5,-188 39.1459,-162.669 27.0692,-113.022 22.7551,-85.8594"/>
<polygon fill="midnightblue" stroke="midnightblue" points="26.1906,-85.153 21.3449,-75.7312 19.2575,-86.1184 26.1906,-85.153"/>
</g>
<!-- Node10 -->
<g id="node10" class="node"><title>Node10</title>
<polygon fill="white" stroke="#bfbfbf" points="340,-168.5 340,-187.5 381,-187.5 381,-168.5 340,-168.5"/>
<text text-anchor="middle" x="360.5" y="-175.5" font-family="Helvetica,sans-Serif" font-size="10.00">stack</text>
</g>
<!-- Node9&#45;&gt;Node10 -->
<g id="edge11" class="edge"><title>Node9&#45;&gt;Node10</title>
<path fill="none" stroke="midnightblue" d="M357.161,-224.083C357.685,-217.006 358.436,-206.861 359.094,-197.986"/>
<polygon fill="midnightblue" stroke="midnightblue" points="362.603,-197.982 359.852,-187.751 355.623,-197.465 362.603,-197.982"/>
</g>
<!-- Node11 -->
<g id="node11" class="node"><title>Node11</title>
<g id="a_node11"><a xlink:href="State_8h.html" target="_top" xlink:title="State.h">
<polygon fill="white" stroke="black" points="196.5,-168.5 196.5,-187.5 244.5,-187.5 244.5,-168.5 196.5,-168.5"/>
<text text-anchor="middle" x="220.5" y="-175.5" font-family="Helvetica,sans-Serif" font-size="10.00">State.h</text>
</a>
</g>
</g>
<!-- Node9&#45;&gt;Node11 -->
<g id="edge12" class="edge"><title>Node9&#45;&gt;Node11</title>
<path fill="none" stroke="midnightblue" d="M334.95,-224.444C312.469,-215.517 277.012,-201.439 251.52,-191.317"/>
<polygon fill="midnightblue" stroke="midnightblue" points="252.535,-187.954 241.949,-187.516 249.951,-194.46 252.535,-187.954"/>
</g>
<!-- Node15 -->
<g id="node15" class="node"><title>Node15</title>
<g id="a_node15"><a xlink:href="Vec2_8h.html" target="_top" xlink:title="Vec2.h">
<polygon fill="white" stroke="black" points="356,-0.5 356,-19.5 403,-19.5 403,-0.5 356,-0.5"/>
<text text-anchor="middle" x="379.5" y="-7.5" font-family="Helvetica,sans-Serif" font-size="10.00">Vec2.h</text>
</a>
</g>
</g>
<!-- Node9&#45;&gt;Node15 -->
<g id="edge26" class="edge"><title>Node9&#45;&gt;Node15</title>
<path fill="none" stroke="midnightblue" d="M371.069,-224.415C395.005,-209.319 441.676,-175.459 458.5,-132 474.752,-90.0189 429.408,-47.4419 400.833,-25.7298"/>
<polygon fill="midnightblue" stroke="midnightblue" points="402.723,-22.7761 392.589,-19.6851 398.584,-28.421 402.723,-22.7761"/>
</g>
<!-- Node18 -->
<g id="node18" class="node"><title>Node18</title>
<g id="a_node18"><a xlink:href="InputManager_8h.html" target="_top" xlink:title="InputManager.h">
<polygon fill="white" stroke="black" points="365.5,-112.5 365.5,-131.5 449.5,-131.5 449.5,-112.5 365.5,-112.5"/>
<text text-anchor="middle" x="407.5" y="-119.5" font-family="Helvetica,sans-Serif" font-size="10.00">InputManager.h</text>
</a>
</g>
</g>
<!-- Node9&#45;&gt;Node18 -->
<g id="edge24" class="edge"><title>Node9&#45;&gt;Node18</title>
<path fill="none" stroke="midnightblue" d="M364.37,-224.321C371.817,-215.687 382.822,-201.774 389.5,-188 396.684,-173.183 401.407,-155.031 404.205,-141.679"/>
<polygon fill="midnightblue" stroke="midnightblue" points="407.659,-142.252 406.114,-131.77 400.785,-140.927 407.659,-142.252"/>
</g>
<!-- Node11&#45;&gt;Node5 -->
<g id="edge23" class="edge"><title>Node11&#45;&gt;Node5</title>
<path fill="none" stroke="midnightblue" d="M210.053,-168.34C194.962,-155.845 166.167,-132.057 141.5,-112 129.13,-101.942 115.151,-90.7084 104.254,-81.9813"/>
<polygon fill="midnightblue" stroke="midnightblue" points="106.26,-79.1041 96.2653,-75.59 101.887,-84.5702 106.26,-79.1041"/>
</g>
<!-- Node12 -->
<g id="node12" class="node"><title>Node12</title>
<g id="a_node12"><a xlink:href="Gameobject_8h.html" target="_top" xlink:title="Gameobject.h">
<polygon fill="white" stroke="black" points="189,-112.5 189,-131.5 266,-131.5 266,-112.5 189,-112.5"/>
<text text-anchor="middle" x="227.5" y="-119.5" font-family="Helvetica,sans-Serif" font-size="10.00">Gameobject.h</text>
</a>
</g>
</g>
<!-- Node11&#45;&gt;Node12 -->
<g id="edge13" class="edge"><title>Node11&#45;&gt;Node12</title>
<path fill="none" stroke="midnightblue" d="M221.656,-168.083C222.584,-160.927 223.918,-150.635 225.077,-141.691"/>
<polygon fill="midnightblue" stroke="midnightblue" points="228.551,-142.118 226.366,-131.751 221.609,-141.218 228.551,-142.118"/>
</g>
<!-- Node13 -->
<g id="node13" class="node"><title>Node13</title>
<polygon fill="white" stroke="#bfbfbf" points="286.5,-56.5 286.5,-75.5 330.5,-75.5 330.5,-56.5 286.5,-56.5"/>
<text text-anchor="middle" x="308.5" y="-63.5" font-family="Helvetica,sans-Serif" font-size="10.00">vector</text>
</g>
<!-- Node11&#45;&gt;Node13 -->
<g id="edge22" class="edge"><title>Node11&#45;&gt;Node13</title>
<path fill="none" stroke="midnightblue" d="M233.766,-168.226C245.553,-159.939 262.697,-146.625 274.5,-132 286.1,-117.626 295.469,-98.6769 301.411,-84.9495"/>
<polygon fill="midnightblue" stroke="midnightblue" points="304.677,-86.2106 305.268,-75.6323 298.21,-83.5332 304.677,-86.2106"/>
</g>
<!-- Node12&#45;&gt;Node3 -->
<g id="edge19" class="edge"><title>Node12&#45;&gt;Node3</title>
<path fill="none" stroke="midnightblue" d="M192.122,-112.475C158.337,-104.229 105.77,-91.132 51.0076,-76.05"/>
<polygon fill="midnightblue" stroke="midnightblue" points="51.6949,-72.6087 41.1235,-73.3126 49.8265,-79.3548 51.6949,-72.6087"/>
</g>
<!-- Node12&#45;&gt;Node5 -->
<g id="edge15" class="edge"><title>Node12&#45;&gt;Node5</title>
<path fill="none" stroke="midnightblue" d="M205,-112.444C181.423,-103.478 144.178,-89.314 117.536,-79.1827"/>
<polygon fill="midnightblue" stroke="midnightblue" points="118.486,-75.7995 107.895,-75.5164 115.998,-82.3424 118.486,-75.7995"/>
</g>
<!-- Node12&#45;&gt;Node13 -->
<g id="edge14" class="edge"><title>Node12&#45;&gt;Node13</title>
<path fill="none" stroke="midnightblue" d="M240.514,-112.324C253.032,-103.979 272.182,-91.2122 286.971,-81.3524"/>
<polygon fill="midnightblue" stroke="midnightblue" points="289.139,-84.1137 295.518,-75.6545 285.256,-78.2894 289.139,-84.1137"/>
</g>
<!-- Node14 -->
<g id="node14" class="node"><title>Node14</title>
<g id="a_node14"><a xlink:href="Rect_8h.html" target="_top" xlink:title="Rect.h">
<polygon fill="white" stroke="black" points="129.5,-56.5 129.5,-75.5 175.5,-75.5 175.5,-56.5 129.5,-56.5"/>
<text text-anchor="middle" x="152.5" y="-63.5" font-family="Helvetica,sans-Serif" font-size="10.00">Rect.h</text>
</a>
</g>
</g>
<!-- Node12&#45;&gt;Node14 -->
<g id="edge16" class="edge"><title>Node12&#45;&gt;Node14</title>
<path fill="none" stroke="midnightblue" d="M215.45,-112.324C204.037,-104.107 186.669,-91.6017 173.065,-81.8069"/>
<polygon fill="midnightblue" stroke="midnightblue" points="174.93,-78.8366 164.769,-75.8339 170.84,-84.5174 174.93,-78.8366"/>
</g>
<!-- Node17 -->
<g id="node17" class="node"><title>Node17</title>
<g id="a_node17"><a xlink:href="Component_8h.html" target="_top" xlink:title="Component.h">
<polygon fill="white" stroke="black" points="194,-56.5 194,-75.5 269,-75.5 269,-56.5 194,-56.5"/>
<text text-anchor="middle" x="231.5" y="-63.5" font-family="Helvetica,sans-Serif" font-size="10.00">Component.h</text>
</a>
</g>
</g>
<!-- Node12&#45;&gt;Node17 -->
<g id="edge20" class="edge"><title>Node12&#45;&gt;Node17</title>
<path fill="none" stroke="midnightblue" d="M222.994,-112.083C222.015,-104.927 222.347,-94.6353 223.658,-85.6911"/>
<polygon fill="midnightblue" stroke="midnightblue" points="227.116,-86.2537 225.721,-75.7511 220.262,-84.8313 227.116,-86.2537"/>
</g>
<!-- Node14&#45;&gt;Node15 -->
<g id="edge17" class="edge"><title>Node14&#45;&gt;Node15</title>
<path fill="none" stroke="midnightblue" d="M175.537,-58.3802C178.546,-57.5569 181.593,-56.7439 184.5,-56 240.65,-41.6337 306.423,-26.8825 345.435,-18.3483"/>
<polygon fill="midnightblue" stroke="midnightblue" points="346.673,-21.6607 355.699,-16.1115 345.183,-14.8212 346.673,-21.6607"/>
</g>
<!-- Node16 -->
<g id="node16" class="node"><title>Node16</title>
<polygon fill="white" stroke="#bfbfbf" points="130.5,-0.5 130.5,-19.5 174.5,-19.5 174.5,-0.5 130.5,-0.5"/>
<text text-anchor="middle" x="152.5" y="-7.5" font-family="Helvetica,sans-Serif" font-size="10.00">cmath</text>
</g>
<!-- Node14&#45;&gt;Node16 -->
<g id="edge18" class="edge"><title>Node14&#45;&gt;Node16</title>
<path fill="none" stroke="midnightblue" d="M152.5,-56.083C152.5,-49.0059 152.5,-38.8611 152.5,-29.9865"/>
<polygon fill="midnightblue" stroke="midnightblue" points="156,-29.751 152.5,-19.7511 149,-29.7511 156,-29.751"/>
</g>
<!-- Node17&#45;&gt;Node12 -->
<g id="edge21" class="edge"><title>Node17&#45;&gt;Node12</title>
<path fill="none" stroke="midnightblue" d="M235.983,-75.7511C236.983,-82.8579 236.668,-93.1357 235.372,-102.101"/>
<polygon fill="midnightblue" stroke="midnightblue" points="231.906,-101.584 233.327,-112.083 238.763,-102.989 231.906,-101.584"/>
</g>
<!-- Node18&#45;&gt;Node15 -->
<g id="edge25" class="edge"><title>Node18&#45;&gt;Node15</title>
<path fill="none" stroke="midnightblue" d="M405.303,-112.368C400.784,-94.617 390.361,-53.6664 384.234,-29.5974"/>
<polygon fill="midnightblue" stroke="midnightblue" points="387.546,-28.419 381.687,-19.5914 380.762,-30.1458 387.546,-28.419"/>
</g>
<!-- Node19&#45;&gt;Node12 -->
<g id="edge28" class="edge"><title>Node19&#45;&gt;Node12</title>
<path fill="none" stroke="midnightblue" d="M282.057,-168.324C272.354,-160.263 257.685,-148.077 246,-138.369"/>
<polygon fill="midnightblue" stroke="midnightblue" points="248.062,-135.532 238.133,-131.834 243.589,-140.916 248.062,-135.532"/>
</g>
<!-- Node19&#45;&gt;Node15 -->
<g id="edge29" class="edge"><title>Node19&#45;&gt;Node15</title>
<path fill="none" stroke="midnightblue" d="M297.177,-168.075C310.991,-141.719 351.787,-63.878 370.244,-28.6608"/>
<polygon fill="midnightblue" stroke="midnightblue" points="373.467,-30.0501 375.009,-19.5681 367.267,-26.8007 373.467,-30.0501"/>
</g>
</g>
</svg>
