<?xml version="1.0" encoding="UTF-8" standalone="no"?>
<!DOCTYPE svg PUBLIC "-//W3C//DTD SVG 1.1//EN"
 "http://www.w3.org/Graphics/SVG/1.1/DTD/svg11.dtd">
<!-- Generated by graphviz version 2.38.0 (20140413.2041)
 -->
<!-- Title: Engine/include/TileMap.h Pages: 1 -->
<svg width="698pt" height="308pt"
 viewBox="0.00 0.00 698.18 308.00" xmlns="http://www.w3.org/2000/svg" xmlns:xlink="http://www.w3.org/1999/xlink">
<g id="graph0" class="graph" transform="scale(1 1) rotate(0) translate(4 304)">
<title>Engine/include/TileMap.h</title>
<polygon fill="white" stroke="none" points="-4,4 -4,-304 694.179,-304 694.179,4 -4,4"/>
<!-- Node1 -->
<g id="node1" class="node"><title>Node1</title>
<polygon fill="#bfbfbf" stroke="black" points="217,-280.5 217,-299.5 343,-299.5 343,-280.5 217,-280.5"/>
<text text-anchor="middle" x="280" y="-287.5" font-family="Helvetica,sans-Serif" font-size="10.00">Engine/include/TileMap.h</text>
</g>
<!-- Node2 -->
<g id="node2" class="node"><title>Node2</title>
<polygon fill="white" stroke="#bfbfbf" points="301.5,-112.5 301.5,-131.5 342.5,-131.5 342.5,-112.5 301.5,-112.5"/>
<text text-anchor="middle" x="322" y="-119.5" font-family="Helvetica,sans-Serif" font-size="10.00">string</text>
</g>
<!-- Node1&#45;&gt;Node2 -->
<g id="edge1" class="edge"><title>Node1&#45;&gt;Node2</title>
<path fill="none" stroke="midnightblue" d="M282.258,-280.075C288.869,-253.945 308.284,-177.211 317.3,-141.577"/>
<polygon fill="midnightblue" stroke="midnightblue" points="320.772,-142.121 319.832,-131.568 313.986,-140.404 320.772,-142.121"/>
</g>
<!-- Node3 -->
<g id="node3" class="node"><title>Node3</title>
<polygon fill="white" stroke="#bfbfbf" points="0,-112.5 0,-131.5 44,-131.5 44,-112.5 0,-112.5"/>
<text text-anchor="middle" x="22" y="-119.5" font-family="Helvetica,sans-Serif" font-size="10.00">vector</text>
</g>
<!-- Node1&#45;&gt;Node3 -->
<g id="edge2" class="edge"><title>Node1&#45;&gt;Node3</title>
<path fill="none" stroke="midnightblue" d="M266.492,-280.309C224.434,-253.248 95.5515,-170.324 43.8221,-137.041"/>
<polygon fill="midnightblue" stroke="midnightblue" points="45.6777,-134.073 35.3742,-131.605 41.8901,-139.959 45.6777,-134.073"/>
</g>
<!-- Node4 -->
<g id="node4" class="node"><title>Node4</title>
<g id="a_node4"><a xlink:href="GameObject_8h.html" target="_top" xlink:title="GameObject.h">
<polygon fill="white" stroke="black" points="163,-168.5 163,-187.5 243,-187.5 243,-168.5 163,-168.5"/>
<text text-anchor="middle" x="203" y="-175.5" font-family="Helvetica,sans-Serif" font-size="10.00">GameObject.h</text>
</a>
</g>
</g>
<!-- Node1&#45;&gt;Node4 -->
<g id="edge3" class="edge"><title>Node1&#45;&gt;Node4</title>
<path fill="none" stroke="midnightblue" d="M273.958,-280.368C261.251,-262.215 231.561,-219.802 214.893,-195.99"/>
<polygon fill="midnightblue" stroke="midnightblue" points="217.616,-193.777 209.014,-187.591 211.881,-197.791 217.616,-193.777"/>
</g>
<!-- Node10 -->
<g id="node10" class="node"><title>Node10</title>
<g id="a_node10"><a xlink:href="Vec2_8h.html" target="_top" xlink:title="Vec2.h">
<polygon fill="white" stroke="black" points="463.5,-56.5 463.5,-75.5 510.5,-75.5 510.5,-56.5 463.5,-56.5"/>
<text text-anchor="middle" x="487" y="-63.5" font-family="Helvetica,sans-Serif" font-size="10.00">Vec2.h</text>
</a>
</g>
</g>
<!-- Node1&#45;&gt;Node10 -->
<g id="edge30" class="edge"><title>Node1&#45;&gt;Node10</title>
<path fill="none" stroke="midnightblue" d="M309.917,-280.368C364.238,-262.839 477.405,-217.305 520,-132 528.334,-115.31 516.129,-96.2892 504.275,-83.1557"/>
<polygon fill="midnightblue" stroke="midnightblue" points="506.61,-80.5364 497.127,-75.8125 501.594,-85.4193 506.61,-80.5364"/>
</g>
<!-- Node12 -->
<g id="node12" class="node"><title>Node12</title>
<g id="a_node12"><a xlink:href="Tileset_8h.html" target="_top" xlink:title="Tileset.h">
<polygon fill="white" stroke="black" points="308,-224.5 308,-243.5 362,-243.5 362,-224.5 308,-224.5"/>
<text text-anchor="middle" x="335" y="-231.5" font-family="Helvetica,sans-Serif" font-size="10.00">Tileset.h</text>
</a>
</g>
</g>
<!-- Node1&#45;&gt;Node12 -->
<g id="edge17" class="edge"><title>Node1&#45;&gt;Node12</title>
<path fill="none" stroke="midnightblue" d="M289.082,-280.083C297.171,-272.141 309.195,-260.335 318.91,-250.797"/>
<polygon fill="midnightblue" stroke="midnightblue" points="321.403,-253.254 326.087,-243.751 316.499,-248.26 321.403,-253.254"/>
</g>
<!-- Node4&#45;&gt;Node2 -->
<g id="edge7" class="edge"><title>Node4&#45;&gt;Node2</title>
<path fill="none" stroke="midnightblue" d="M221.856,-168.444C241.266,-159.636 271.73,-145.812 293.965,-135.722"/>
<polygon fill="midnightblue" stroke="midnightblue" points="295.572,-138.836 303.232,-131.516 292.68,-132.462 295.572,-138.836"/>
</g>
<!-- Node4&#45;&gt;Node3 -->
<g id="edge5" class="edge"><title>Node4&#45;&gt;Node3</title>
<path fill="none" stroke="midnightblue" d="M174.329,-168.472C145.909,-160.016 100.873,-146.605 53.9901,-132.592"/>
<polygon fill="midnightblue" stroke="midnightblue" points="54.8625,-129.2 44.2789,-129.689 52.8573,-135.907 54.8625,-129.2"/>
</g>
<!-- Node5 -->
<g id="node5" class="node"><title>Node5</title>
<g id="a_node5"><a xlink:href="SDL__include_8h.html" target="_top" xlink:title="SDL_include.h">
<polygon fill="white" stroke="black" points="395,-0.5 395,-19.5 475,-19.5 475,-0.5 395,-0.5"/>
<text text-anchor="middle" x="435" y="-7.5" font-family="Helvetica,sans-Serif" font-size="10.00">SDL_include.h</text>
</a>
</g>
</g>
<!-- Node4&#45;&gt;Node5 -->
<g id="edge4" class="edge"><title>Node4&#45;&gt;Node5</title>
<path fill="none" stroke="midnightblue" d="M203.561,-168.087C204.823,-154.634 208.899,-128.918 222,-112 262.205,-60.0836 335.682,-33.5702 384.931,-21.0106"/>
<polygon fill="midnightblue" stroke="midnightblue" points="385.865,-24.3856 394.747,-18.6097 384.201,-17.5861 385.865,-24.3856"/>
</g>
<!-- Node6 -->
<g id="node6" class="node"><title>Node6</title>
<polygon fill="white" stroke="#bfbfbf" points="231,-112.5 231,-131.5 283,-131.5 283,-112.5 231,-112.5"/>
<text text-anchor="middle" x="257" y="-119.5" font-family="Helvetica,sans-Serif" font-size="10.00">memory</text>
</g>
<!-- Node4&#45;&gt;Node6 -->
<g id="edge6" class="edge"><title>Node4&#45;&gt;Node6</title>
<path fill="none" stroke="midnightblue" d="M211.917,-168.083C219.78,-160.22 231.431,-148.569 240.919,-139.081"/>
<polygon fill="midnightblue" stroke="midnightblue" points="243.653,-141.297 248.249,-131.751 238.703,-136.347 243.653,-141.297"/>
</g>
<!-- Node7 -->
<g id="node7" class="node"><title>Node7</title>
<g id="a_node7"><a xlink:href="Component_8h.html" target="_top" xlink:title="Component.h">
<polygon fill="white" stroke="black" points="61.5,-112.5 61.5,-131.5 136.5,-131.5 136.5,-112.5 61.5,-112.5"/>
<text text-anchor="middle" x="99" y="-119.5" font-family="Helvetica,sans-Serif" font-size="10.00">Component.h</text>
</a>
</g>
</g>
<!-- Node4&#45;&gt;Node7 -->
<g id="edge8" class="edge"><title>Node4&#45;&gt;Node7</title>
<path fill="none" stroke="midnightblue" d="M181.432,-168.444C163.13,-159.912 137.345,-146.675 119.393,-136.683"/>
<polygon fill="midnightblue" stroke="midnightblue" points="120.744,-133.425 110.322,-131.516 117.279,-139.507 120.744,-133.425"/>
</g>
<!-- Node8 -->
<g id="node8" class="node"><title>Node8</title>
<g id="a_node8"><a xlink:href="ComponentType_8h.html" target="_top" xlink:title="ComponentType.h">
<polygon fill="white" stroke="black" points="64.5,-56.5 64.5,-75.5 161.5,-75.5 161.5,-56.5 64.5,-56.5"/>
<text text-anchor="middle" x="113" y="-63.5" font-family="Helvetica,sans-Serif" font-size="10.00">ComponentType.h</text>
</a>
</g>
</g>
<!-- Node4&#45;&gt;Node8 -->
<g id="edge11" class="edge"><title>Node4&#45;&gt;Node8</title>
<path fill="none" stroke="midnightblue" d="M195.938,-168.368C180.954,-150.055 145.767,-107.049 126.387,-83.3624"/>
<polygon fill="midnightblue" stroke="midnightblue" points="129.071,-81.1147 120.029,-75.5914 123.653,-85.5474 129.071,-81.1147"/>
</g>
<!-- Node9 -->
<g id="node9" class="node"><title>Node9</title>
<g id="a_node9"><a xlink:href="Rect_8h.html" target="_top" xlink:title="Rect.h">
<polygon fill="white" stroke="black" points="361,-112.5 361,-131.5 407,-131.5 407,-112.5 361,-112.5"/>
<text text-anchor="middle" x="384" y="-119.5" font-family="Helvetica,sans-Serif" font-size="10.00">Rect.h</text>
</a>
</g>
</g>
<!-- Node4&#45;&gt;Node9 -->
<g id="edge12" class="edge"><title>Node4&#45;&gt;Node9</title>
<path fill="none" stroke="midnightblue" d="M231.68,-168.444C264.111,-158.768 316.83,-143.04 350.959,-132.858"/>
<polygon fill="midnightblue" stroke="midnightblue" points="352.328,-136.102 360.91,-129.889 350.327,-129.394 352.328,-136.102"/>
</g>
<!-- Node7&#45;&gt;Node4 -->
<g id="edge10" class="edge"><title>Node7&#45;&gt;Node4</title>
<path fill="none" stroke="midnightblue" d="M120.778,-131.655C138.982,-140.149 164.484,-153.241 182.356,-163.177"/>
<polygon fill="midnightblue" stroke="midnightblue" points="180.983,-166.423 191.405,-168.324 184.443,-160.338 180.983,-166.423"/>
</g>
<!-- Node7&#45;&gt;Node8 -->
<g id="edge9" class="edge"><title>Node7&#45;&gt;Node8</title>
<path fill="none" stroke="midnightblue" d="M101.312,-112.083C103.167,-104.927 105.835,-94.6353 108.154,-85.6911"/>
<polygon fill="midnightblue" stroke="midnightblue" points="111.609,-86.3094 110.731,-75.7511 104.834,-84.5527 111.609,-86.3094"/>
</g>
<!-- Node9&#45;&gt;Node5 -->
<g id="edge13" class="edge"><title>Node9&#45;&gt;Node5</title>
<path fill="none" stroke="midnightblue" d="M388.002,-112.368C396.307,-94.4563 415.563,-52.9233 426.679,-28.9482"/>
<polygon fill="midnightblue" stroke="midnightblue" points="429.986,-30.136 431.017,-19.5914 423.635,-27.1916 429.986,-30.136"/>
</g>
<!-- Node9&#45;&gt;Node10 -->
<g id="edge14" class="edge"><title>Node9&#45;&gt;Node10</title>
<path fill="none" stroke="midnightblue" d="M400.549,-112.324C416.992,-103.703 442.435,-90.3643 461.468,-80.3855"/>
<polygon fill="midnightblue" stroke="midnightblue" points="463.261,-83.3977 470.492,-75.6545 460.011,-77.198 463.261,-83.3977"/>
</g>
<!-- Node11 -->
<g id="node11" class="node"><title>Node11</title>
<polygon fill="white" stroke="#bfbfbf" points="325,-56.5 325,-75.5 369,-75.5 369,-56.5 325,-56.5"/>
<text text-anchor="middle" x="347" y="-63.5" font-family="Helvetica,sans-Serif" font-size="10.00">cmath</text>
</g>
<!-- Node9&#45;&gt;Node11 -->
<g id="edge16" class="edge"><title>Node9&#45;&gt;Node11</title>
<path fill="none" stroke="midnightblue" d="M377.89,-112.083C372.718,-104.534 365.154,-93.4948 358.806,-84.2298"/>
<polygon fill="midnightblue" stroke="midnightblue" points="361.536,-82.0221 352.996,-75.7511 355.761,-85.9787 361.536,-82.0221"/>
</g>
<!-- Node10&#45;&gt;Node5 -->
<g id="edge15" class="edge"><title>Node10&#45;&gt;Node5</title>
<path fill="none" stroke="midnightblue" d="M478.413,-56.083C470.841,-48.2195 459.622,-36.5688 450.486,-27.0813"/>
<polygon fill="midnightblue" stroke="midnightblue" points="452.885,-24.5266 443.427,-19.7511 447.842,-29.3821 452.885,-24.5266"/>
</g>
<!-- Node12&#45;&gt;Node2 -->
<g id="edge18" class="edge"><title>Node12&#45;&gt;Node2</title>
<path fill="none" stroke="midnightblue" d="M333.98,-224.368C331.882,-206.617 327.042,-165.666 324.198,-141.597"/>
<polygon fill="midnightblue" stroke="midnightblue" points="327.665,-141.112 323.015,-131.591 320.713,-141.933 327.665,-141.112"/>
</g>
<!-- Node13 -->
<g id="node13" class="node"><title>Node13</title>
<g id="a_node13"><a xlink:href="Sprite_8h.html" target="_top" xlink:title="Sprite.h">
<polygon fill="white" stroke="black" points="359,-168.5 359,-187.5 409,-187.5 409,-168.5 359,-168.5"/>
<text text-anchor="middle" x="384" y="-175.5" font-family="Helvetica,sans-Serif" font-size="10.00">Sprite.h</text>
</a>
</g>
</g>
<!-- Node12&#45;&gt;Node13 -->
<g id="edge19" class="edge"><title>Node12&#45;&gt;Node13</title>
<path fill="none" stroke="midnightblue" d="M343.091,-224.083C350.155,-216.298 360.588,-204.801 369.149,-195.367"/>
<polygon fill="midnightblue" stroke="midnightblue" points="371.931,-197.509 376.059,-187.751 366.747,-192.805 371.931,-197.509"/>
</g>
<!-- Node13&#45;&gt;Node2 -->
<g id="edge21" class="edge"><title>Node13&#45;&gt;Node2</title>
<path fill="none" stroke="midnightblue" d="M374.039,-168.324C364.873,-160.341 351.063,-148.313 339.972,-138.653"/>
<polygon fill="midnightblue" stroke="midnightblue" points="341.982,-135.762 332.143,-131.834 337.385,-141.041 341.982,-135.762"/>
</g>
<!-- Node13&#45;&gt;Node5 -->
<g id="edge20" class="edge"><title>Node13&#45;&gt;Node5</title>
<path fill="none" stroke="midnightblue" d="M391.965,-168.432C399.434,-159.881 410.284,-146.027 416,-132 429.993,-97.6602 433.739,-53.9586 434.705,-29.5833"/>
<polygon fill="midnightblue" stroke="midnightblue" points="438.204,-29.6643 434.984,-19.5705 431.206,-29.4689 438.204,-29.6643"/>
</g>
<!-- Node13&#45;&gt;Node6 -->
<g id="edge22" class="edge"><title>Node13&#45;&gt;Node6</title>
<path fill="none" stroke="midnightblue" d="M363.876,-168.444C342.976,-159.557 310.065,-145.563 286.284,-135.451"/>
<polygon fill="midnightblue" stroke="midnightblue" points="287.602,-132.208 277.029,-131.516 284.862,-138.65 287.602,-132.208"/>
</g>
<!-- Node13&#45;&gt;Node9 -->
<g id="edge24" class="edge"><title>Node13&#45;&gt;Node9</title>
<path fill="none" stroke="midnightblue" d="M384,-168.083C384,-161.006 384,-150.861 384,-141.986"/>
<polygon fill="midnightblue" stroke="midnightblue" points="387.5,-141.751 384,-131.751 380.5,-141.751 387.5,-141.751"/>
</g>
<!-- Node14 -->
<g id="node14" class="node"><title>Node14</title>
<g id="a_node14"><a xlink:href="Color_8h.html" target="_top" xlink:title="Color.h">
<polygon fill="white" stroke="black" points="463,-112.5 463,-131.5 511,-131.5 511,-112.5 463,-112.5"/>
<text text-anchor="middle" x="487" y="-119.5" font-family="Helvetica,sans-Serif" font-size="10.00">Color.h</text>
</a>
</g>
</g>
<!-- Node13&#45;&gt;Node14 -->
<g id="edge23" class="edge"><title>Node13&#45;&gt;Node14</title>
<path fill="none" stroke="midnightblue" d="M400.549,-168.324C416.992,-159.703 442.435,-146.364 461.468,-136.386"/>
<polygon fill="midnightblue" stroke="midnightblue" points="463.261,-139.398 470.492,-131.655 460.011,-133.198 463.261,-139.398"/>
</g>
<!-- Node15 -->
<g id="node15" class="node"><title>Node15</title>
<g id="a_node15"><a xlink:href="InputManager_8h.html" target="_top" xlink:title="InputManager.h">
<polygon fill="white" stroke="black" points="567,-112.5 567,-131.5 651,-131.5 651,-112.5 567,-112.5"/>
<text text-anchor="middle" x="609" y="-119.5" font-family="Helvetica,sans-Serif" font-size="10.00">InputManager.h</text>
</a>
</g>
</g>
<!-- Node13&#45;&gt;Node15 -->
<g id="edge25" class="edge"><title>Node13&#45;&gt;Node15</title>
<path fill="none" stroke="midnightblue" d="M409.373,-170.91C446.741,-161.942 517.154,-145.043 563.572,-133.903"/>
<polygon fill="midnightblue" stroke="midnightblue" points="564.473,-137.286 573.38,-131.549 562.839,-130.479 564.473,-137.286"/>
</g>
<!-- Node15&#45;&gt;Node5 -->
<g id="edge26" class="edge"><title>Node15&#45;&gt;Node5</title>
<path fill="none" stroke="midnightblue" d="M633.362,-112.399C662.303,-100.876 704.377,-79.1766 685,-56 660.063,-26.1731 550.885,-16.0858 485.336,-12.696"/>
<polygon fill="midnightblue" stroke="midnightblue" points="485.367,-9.19354 475.21,-12.2075 485.03,-16.1854 485.367,-9.19354"/>
</g>
<!-- Node15&#45;&gt;Node10 -->
<g id="edge27" class="edge"><title>Node15&#45;&gt;Node10</title>
<path fill="none" stroke="midnightblue" d="M589.669,-112.444C569.68,-103.596 538.257,-89.6875 515.436,-79.5865"/>
<polygon fill="midnightblue" stroke="midnightblue" points="516.802,-76.3635 506.241,-75.5164 513.968,-82.7645 516.802,-76.3635"/>
</g>
<!-- Node16 -->
<g id="node16" class="node"><title>Node16</title>
<polygon fill="white" stroke="#bfbfbf" points="528.5,-56.5 528.5,-75.5 611.5,-75.5 611.5,-56.5 528.5,-56.5"/>
<text text-anchor="middle" x="570" y="-63.5" font-family="Helvetica,sans-Serif" font-size="10.00">unordered_map</text>
</g>
<!-- Node15&#45;&gt;Node16 -->
<g id="edge28" class="edge"><title>Node15&#45;&gt;Node16</title>
<path fill="none" stroke="midnightblue" d="M602.56,-112.083C597.051,-104.455 588.969,-93.2645 582.235,-83.9408"/>
<polygon fill="midnightblue" stroke="midnightblue" points="585.013,-81.8087 576.32,-75.7511 579.338,-85.9071 585.013,-81.8087"/>
</g>
<!-- Node17 -->
<g id="node17" class="node"><title>Node17</title>
<polygon fill="white" stroke="#bfbfbf" points="630,-56.5 630,-75.5 676,-75.5 676,-56.5 630,-56.5"/>
<text text-anchor="middle" x="653" y="-63.5" font-family="Helvetica,sans-Serif" font-size="10.00">cstdint</text>
</g>
<!-- Node15&#45;&gt;Node17 -->
<g id="edge29" class="edge"><title>Node15&#45;&gt;Node17</title>
<path fill="none" stroke="midnightblue" d="M616.266,-112.083C622.545,-104.377 631.788,-93.0333 639.431,-83.6531"/>
<polygon fill="midnightblue" stroke="midnightblue" points="642.266,-85.7143 645.869,-75.7511 636.839,-81.2926 642.266,-85.7143"/>
</g>
</g>
</svg>
