<?xml version="1.0" encoding="UTF-8" standalone="no"?>
<!DOCTYPE svg PUBLIC "-//W3C//DTD SVG 1.1//EN"
 "http://www.w3.org/Graphics/SVG/1.1/DTD/svg11.dtd">
<!-- Generated by graphviz version 2.38.0 (20140413.2041)
 -->
<!-- Title: Engine/include/TileMap.h Pages: 1 -->
<svg width="1103pt" height="308pt"
 viewBox="0.00 0.00 1102.96 308.00" xmlns="http://www.w3.org/2000/svg" xmlns:xlink="http://www.w3.org/1999/xlink">
<g id="graph0" class="graph" transform="scale(1 1) rotate(0) translate(4 304)">
<title>Engine/include/TileMap.h</title>
<polygon fill="white" stroke="none" points="-4,4 -4,-304 1098.96,-304 1098.96,4 -4,4"/>
<!-- Node1 -->
<g id="node1" class="node"><title>Node1</title>
<polygon fill="#bfbfbf" stroke="black" points="553.464,-280.5 553.464,-299.5 679.464,-299.5 679.464,-280.5 553.464,-280.5"/>
<text text-anchor="middle" x="616.464" y="-287.5" font-family="Helvetica,sans-Serif" font-size="10.00">Engine/include/TileMap.h</text>
</g>
<!-- Node2 -->
<g id="node2" class="node"><title>Node2</title>
<polygon fill="white" stroke="#bfbfbf" points="20.9645,-112.5 20.9645,-131.5 61.9645,-131.5 61.9645,-112.5 20.9645,-112.5"/>
<text text-anchor="middle" x="41.4645" y="-119.5" font-family="Helvetica,sans-Serif" font-size="10.00">string</text>
</g>
<!-- Node1&#45;&gt;Node2 -->
<g id="edge1" class="edge"><title>Node1&#45;&gt;Node2</title>
<path fill="none" stroke="midnightblue" d="M553.205,-285.854C455.388,-280.338 272.354,-267.241 211.464,-244 147.7,-219.662 85.7149,-165.611 57.4262,-138.764"/>
<polygon fill="midnightblue" stroke="midnightblue" points="59.692,-136.086 50.0646,-131.663 54.8323,-141.124 59.692,-136.086"/>
</g>
<!-- Node3 -->
<g id="node3" class="node"><title>Node3</title>
<polygon fill="white" stroke="#bfbfbf" points="703.464,-112.5 703.464,-131.5 747.464,-131.5 747.464,-112.5 703.464,-112.5"/>
<text text-anchor="middle" x="725.464" y="-119.5" font-family="Helvetica,sans-Serif" font-size="10.00">vector</text>
</g>
<!-- Node1&#45;&gt;Node3 -->
<g id="edge2" class="edge"><title>Node1&#45;&gt;Node3</title>
<path fill="none" stroke="midnightblue" d="M622.325,-280.075C639.705,-253.606 691.183,-175.209 714.164,-140.21"/>
<polygon fill="midnightblue" stroke="midnightblue" points="717.275,-141.848 719.838,-131.568 711.424,-138.006 717.275,-141.848"/>
</g>
<!-- Node4 -->
<g id="node4" class="node"><title>Node4</title>
<polygon fill="white" stroke="#bfbfbf" points="682.964,-224.5 682.964,-243.5 711.964,-243.5 711.964,-224.5 682.964,-224.5"/>
<text text-anchor="middle" x="697.464" y="-231.5" font-family="Helvetica,sans-Serif" font-size="10.00">list</text>
</g>
<!-- Node1&#45;&gt;Node4 -->
<g id="edge3" class="edge"><title>Node1&#45;&gt;Node4</title>
<path fill="none" stroke="midnightblue" d="M629.479,-280.324C641.996,-271.979 661.146,-259.212 675.936,-249.352"/>
<polygon fill="midnightblue" stroke="midnightblue" points="678.104,-252.114 684.483,-243.655 674.221,-246.289 678.104,-252.114"/>
</g>
<!-- Node5 -->
<g id="node5" class="node"><title>Node5</title>
<polygon fill="white" stroke="#bfbfbf" points="729.964,-224.5 729.964,-243.5 772.964,-243.5 772.964,-224.5 729.964,-224.5"/>
<text text-anchor="middle" x="751.464" y="-231.5" font-family="Helvetica,sans-Serif" font-size="10.00">queue</text>
</g>
<!-- Node1&#45;&gt;Node5 -->
<g id="edge4" class="edge"><title>Node1&#45;&gt;Node5</title>
<path fill="none" stroke="midnightblue" d="M637.856,-280.444C660.172,-271.517 695.368,-257.439 720.672,-247.317"/>
<polygon fill="midnightblue" stroke="midnightblue" points="722.189,-250.48 730.173,-243.516 719.589,-243.981 722.189,-250.48"/>
</g>
<!-- Node6 -->
<g id="node6" class="node"><title>Node6</title>
<polygon fill="white" stroke="#bfbfbf" points="602.464,-168.5 602.464,-187.5 642.464,-187.5 642.464,-168.5 602.464,-168.5"/>
<text text-anchor="middle" x="622.464" y="-175.5" font-family="Helvetica,sans-Serif" font-size="10.00">limits</text>
</g>
<!-- Node1&#45;&gt;Node6 -->
<g id="edge5" class="edge"><title>Node1&#45;&gt;Node6</title>
<path fill="none" stroke="midnightblue" d="M616.935,-280.368C617.904,-262.617 620.137,-221.666 621.45,-197.597"/>
<polygon fill="midnightblue" stroke="midnightblue" points="624.946,-197.767 621.996,-187.591 617.956,-197.386 624.946,-197.767"/>
</g>
<!-- Node7 -->
<g id="node7" class="node"><title>Node7</title>
<polygon fill="white" stroke="#bfbfbf" points="790.964,-224.5 790.964,-243.5 825.964,-243.5 825.964,-224.5 790.964,-224.5"/>
<text text-anchor="middle" x="808.464" y="-231.5" font-family="Helvetica,sans-Serif" font-size="10.00">map</text>
</g>
<!-- Node1&#45;&gt;Node7 -->
<g id="edge6" class="edge"><title>Node1&#45;&gt;Node7</title>
<path fill="none" stroke="midnightblue" d="M650.678,-280.456C682.339,-272.389 730.906,-259.607 781.162,-244.262"/>
<polygon fill="midnightblue" stroke="midnightblue" points="782.37,-247.553 790.896,-241.264 780.309,-240.863 782.37,-247.553"/>
</g>
<!-- Node8 -->
<g id="node8" class="node"><title>Node8</title>
<polygon fill="white" stroke="#bfbfbf" points="843.964,-224.5 843.964,-243.5 902.964,-243.5 902.964,-224.5 843.964,-224.5"/>
<text text-anchor="middle" x="873.464" y="-231.5" font-family="Helvetica,sans-Serif" font-size="10.00">functional</text>
</g>
<!-- Node1&#45;&gt;Node8 -->
<g id="edge7" class="edge"><title>Node1&#45;&gt;Node8</title>
<path fill="none" stroke="midnightblue" d="M660.175,-280.418C702.277,-272.063 768.013,-258.784 833.528,-244.385"/>
<polygon fill="midnightblue" stroke="midnightblue" points="834.602,-247.732 843.613,-242.159 833.094,-240.897 834.602,-247.732"/>
</g>
<!-- Node9 -->
<g id="node9" class="node"><title>Node9</title>
<polygon fill="white" stroke="#bfbfbf" points="921.464,-224.5 921.464,-243.5 977.464,-243.5 977.464,-224.5 921.464,-224.5"/>
<text text-anchor="middle" x="949.464" y="-231.5" font-family="Helvetica,sans-Serif" font-size="10.00">algorithm</text>
</g>
<!-- Node1&#45;&gt;Node9 -->
<g id="edge8" class="edge"><title>Node1&#45;&gt;Node9</title>
<path fill="none" stroke="midnightblue" d="M679.682,-281.025C737.572,-273.35 825.808,-260.722 911.361,-244.078"/>
<polygon fill="midnightblue" stroke="midnightblue" points="912.102,-247.499 921.239,-242.136 910.752,-240.631 912.102,-247.499"/>
</g>
<!-- Node10 -->
<g id="node10" class="node"><title>Node10</title>
<g id="a_node10"><a xlink:href="Tileset_8h.html" target="_top" xlink:title="Tileset.h">
<polygon fill="white" stroke="black" points="220.464,-224.5 220.464,-243.5 274.464,-243.5 274.464,-224.5 220.464,-224.5"/>
<text text-anchor="middle" x="247.464" y="-231.5" font-family="Helvetica,sans-Serif" font-size="10.00">Tileset.h</text>
</a>
</g>
</g>
<!-- Node1&#45;&gt;Node10 -->
<g id="edge9" class="edge"><title>Node1&#45;&gt;Node10</title>
<path fill="none" stroke="midnightblue" d="M557.995,-280.444C481.379,-269.231 349.222,-249.891 284.861,-240.473"/>
<polygon fill="midnightblue" stroke="midnightblue" points="285.166,-236.98 274.764,-238.995 284.152,-243.906 285.166,-236.98"/>
</g>
<!-- Node16 -->
<g id="node16" class="node"><title>Node16</title>
<g id="a_node16"><a xlink:href="Vec2_8h.html" target="_top" xlink:title="Vec2.h">
<polygon fill="white" stroke="black" points="356.964,-56.5 356.964,-75.5 403.964,-75.5 403.964,-56.5 356.964,-56.5"/>
<text text-anchor="middle" x="380.464" y="-63.5" font-family="Helvetica,sans-Serif" font-size="10.00">Vec2.h</text>
</a>
</g>
</g>
<!-- Node1&#45;&gt;Node16 -->
<g id="edge26" class="edge"><title>Node1&#45;&gt;Node16</title>
<path fill="none" stroke="midnightblue" d="M553.177,-287.821C485.992,-282.568 384.735,-262.051 349.464,-188 332.909,-153.241 354.226,-108.498 368.848,-84.3361"/>
<polygon fill="midnightblue" stroke="midnightblue" points="371.989,-85.9194 374.394,-75.6013 366.079,-82.1673 371.989,-85.9194"/>
</g>
<!-- Node21 -->
<g id="node21" class="node"><title>Node21</title>
<g id="a_node21"><a xlink:href="GameObject_8h.html" target="_top" xlink:title="GameObject.h">
<polygon fill="white" stroke="black" points="504.464,-168.5 504.464,-187.5 584.464,-187.5 584.464,-168.5 504.464,-168.5"/>
<text text-anchor="middle" x="544.464" y="-175.5" font-family="Helvetica,sans-Serif" font-size="10.00">GameObject.h</text>
</a>
</g>
</g>
<!-- Node1&#45;&gt;Node21 -->
<g id="edge27" class="edge"><title>Node1&#45;&gt;Node21</title>
<path fill="none" stroke="midnightblue" d="M610.815,-280.368C598.933,-262.215 571.171,-219.802 555.585,-195.99"/>
<polygon fill="midnightblue" stroke="midnightblue" points="558.493,-194.042 550.088,-187.591 552.636,-197.875 558.493,-194.042"/>
</g>
<!-- Node24 -->
<g id="node24" class="node"><title>Node24</title>
<g id="a_node24"><a xlink:href="AStarHeuristic_8h.html" target="_top" xlink:title="AStarHeuristic.h">
<polygon fill="white" stroke="black" points="358.964,-168.5 358.964,-187.5 447.964,-187.5 447.964,-168.5 358.964,-168.5"/>
<text text-anchor="middle" x="403.464" y="-175.5" font-family="Helvetica,sans-Serif" font-size="10.00">AStarHeuristic.h</text>
</a>
</g>
</g>
<!-- Node1&#45;&gt;Node24 -->
<g id="edge37" class="edge"><title>Node1&#45;&gt;Node24</title>
<path fill="none" stroke="midnightblue" d="M553.337,-285.265C516.89,-280.298 471.978,-269.077 439.464,-244 424.176,-232.208 414.459,-211.986 409.024,-197.222"/>
<polygon fill="midnightblue" stroke="midnightblue" points="412.307,-196.001 405.806,-187.635 405.671,-198.229 412.307,-196.001"/>
</g>
<!-- Node25 -->
<g id="node25" class="node"><title>Node25</title>
<g id="a_node25"><a xlink:href="Resources_8h.html" target="_top" xlink:title="Resources.h">
<polygon fill="white" stroke="black" points="5.46447,-168.5 5.46447,-187.5 77.4645,-187.5 77.4645,-168.5 5.46447,-168.5"/>
<text text-anchor="middle" x="41.4645" y="-175.5" font-family="Helvetica,sans-Serif" font-size="10.00">Resources.h</text>
</a>
</g>
</g>
<!-- Node1&#45;&gt;Node25 -->
<g id="edge39" class="edge"><title>Node1&#45;&gt;Node25</title>
<path fill="none" stroke="midnightblue" d="M553.086,-288.174C436.435,-285.858 192.614,-277.088 115.464,-244 90.5362,-233.309 68.089,-210.91 54.619,-195.418"/>
<polygon fill="midnightblue" stroke="midnightblue" points="57.2063,-193.056 48.1006,-187.64 51.8412,-197.553 57.2063,-193.056"/>
</g>
<!-- Node26 -->
<g id="node26" class="node"><title>Node26</title>
<g id="a_node26"><a xlink:href="TileMapObserver_8h.html" target="_top" xlink:title="TileMapObserver.h">
<polygon fill="white" stroke="black" points="995.964,-224.5 995.964,-243.5 1094.96,-243.5 1094.96,-224.5 995.964,-224.5"/>
<text text-anchor="middle" x="1045.46" y="-231.5" font-family="Helvetica,sans-Serif" font-size="10.00">TileMapObserver.h</text>
</a>
</g>
</g>
<!-- Node1&#45;&gt;Node26 -->
<g id="edge44" class="edge"><title>Node1&#45;&gt;Node26</title>
<path fill="none" stroke="midnightblue" d="M679.717,-281.899C751.358,-273.722 871.854,-259.569 985.947,-244.033"/>
<polygon fill="midnightblue" stroke="midnightblue" points="986.472,-247.494 995.906,-242.671 985.524,-240.559 986.472,-247.494"/>
</g>
<!-- Node27 -->
<g id="node27" class="node"><title>Node27</title>
<g id="a_node27"><a xlink:href="NearestGOFinder_8h.html" target="_top" xlink:title="NearestGOFinder.h">
<polygon fill="white" stroke="black" points="448.964,-224.5 448.964,-243.5 549.964,-243.5 549.964,-224.5 448.964,-224.5"/>
<text text-anchor="middle" x="499.464" y="-231.5" font-family="Helvetica,sans-Serif" font-size="10.00">NearestGOFinder.h</text>
</a>
</g>
</g>
<!-- Node1&#45;&gt;Node27 -->
<g id="edge45" class="edge"><title>Node1&#45;&gt;Node27</title>
<path fill="none" stroke="midnightblue" d="M597.925,-280.444C578.842,-271.636 548.89,-257.812 527.029,-247.722"/>
<polygon fill="midnightblue" stroke="midnightblue" points="528.463,-244.529 517.917,-243.516 525.53,-250.885 528.463,-244.529"/>
</g>
<!-- Node10&#45;&gt;Node2 -->
<g id="edge10" class="edge"><title>Node10&#45;&gt;Node2</title>
<path fill="none" stroke="midnightblue" d="M235.003,-224.393C215.828,-211.338 177.71,-186.136 143.464,-168 119.946,-155.545 92.2657,-143.487 71.6793,-134.993"/>
<polygon fill="midnightblue" stroke="midnightblue" points="72.7737,-131.66 62.1924,-131.124 70.1299,-138.141 72.7737,-131.66"/>
</g>
<!-- Node11 -->
<g id="node11" class="node"><title>Node11</title>
<g id="a_node11"><a xlink:href="Sprite_8h.html" target="_top" xlink:title="Sprite.h">
<polygon fill="white" stroke="black" points="222.464,-168.5 222.464,-187.5 272.464,-187.5 272.464,-168.5 222.464,-168.5"/>
<text text-anchor="middle" x="247.464" y="-175.5" font-family="Helvetica,sans-Serif" font-size="10.00">Sprite.h</text>
</a>
</g>
</g>
<!-- Node10&#45;&gt;Node11 -->
<g id="edge11" class="edge"><title>Node10&#45;&gt;Node11</title>
<path fill="none" stroke="midnightblue" d="M247.464,-224.083C247.464,-217.006 247.464,-206.861 247.464,-197.986"/>
<polygon fill="midnightblue" stroke="midnightblue" points="250.965,-197.751 247.464,-187.751 243.965,-197.751 250.965,-197.751"/>
</g>
<!-- Node11&#45;&gt;Node2 -->
<g id="edge13" class="edge"><title>Node11&#45;&gt;Node2</title>
<path fill="none" stroke="midnightblue" d="M222.313,-170.915C189.885,-162.994 131.526,-148.489 72.0315,-132.068"/>
<polygon fill="midnightblue" stroke="midnightblue" points="72.6608,-128.611 62.0889,-129.309 70.7887,-135.356 72.6608,-128.611"/>
</g>
<!-- Node12 -->
<g id="node12" class="node"><title>Node12</title>
<g id="a_node12"><a xlink:href="SDL__include_8h.html" target="_top" xlink:title="SDL_include.h">
<polygon fill="white" stroke="black" points="314.464,-0.5 314.464,-19.5 394.464,-19.5 394.464,-0.5 314.464,-0.5"/>
<text text-anchor="middle" x="354.464" y="-7.5" font-family="Helvetica,sans-Serif" font-size="10.00">SDL_include.h</text>
</a>
</g>
</g>
<!-- Node11&#45;&gt;Node12 -->
<g id="edge12" class="edge"><title>Node11&#45;&gt;Node12</title>
<path fill="none" stroke="midnightblue" d="M264.345,-168.416C278.186,-160.607 297.399,-147.888 309.464,-132 333.327,-100.579 345.65,-55.1545 351.02,-29.8437"/>
<polygon fill="midnightblue" stroke="midnightblue" points="354.509,-30.2412 353.015,-19.7523 347.642,-28.8838 354.509,-30.2412"/>
</g>
<!-- Node13 -->
<g id="node13" class="node"><title>Node13</title>
<polygon fill="white" stroke="#bfbfbf" points="80.4645,-112.5 80.4645,-131.5 132.464,-131.5 132.464,-112.5 80.4645,-112.5"/>
<text text-anchor="middle" x="106.464" y="-119.5" font-family="Helvetica,sans-Serif" font-size="10.00">memory</text>
</g>
<!-- Node11&#45;&gt;Node13 -->
<g id="edge14" class="edge"><title>Node11&#45;&gt;Node13</title>
<path fill="none" stroke="midnightblue" d="M225.123,-168.444C201.712,-159.478 164.729,-145.314 138.275,-135.183"/>
<polygon fill="midnightblue" stroke="midnightblue" points="139.292,-131.824 128.702,-131.516 136.789,-138.361 139.292,-131.824"/>
</g>
<!-- Node14 -->
<g id="node14" class="node"><title>Node14</title>
<g id="a_node14"><a xlink:href="Color_8h.html" target="_top" xlink:title="Color.h">
<polygon fill="white" stroke="black" points="150.464,-112.5 150.464,-131.5 198.464,-131.5 198.464,-112.5 150.464,-112.5"/>
<text text-anchor="middle" x="174.464" y="-119.5" font-family="Helvetica,sans-Serif" font-size="10.00">Color.h</text>
</a>
</g>
</g>
<!-- Node11&#45;&gt;Node14 -->
<g id="edge15" class="edge"><title>Node11&#45;&gt;Node14</title>
<path fill="none" stroke="midnightblue" d="M235.736,-168.324C224.627,-160.107 207.722,-147.602 194.481,-137.807"/>
<polygon fill="midnightblue" stroke="midnightblue" points="196.528,-134.967 186.407,-131.834 192.365,-140.595 196.528,-134.967"/>
</g>
<!-- Node15 -->
<g id="node15" class="node"><title>Node15</title>
<g id="a_node15"><a xlink:href="Rect_8h.html" target="_top" xlink:title="Rect.h">
<polygon fill="white" stroke="black" points="470.464,-112.5 470.464,-131.5 516.464,-131.5 516.464,-112.5 470.464,-112.5"/>
<text text-anchor="middle" x="493.464" y="-119.5" font-family="Helvetica,sans-Serif" font-size="10.00">Rect.h</text>
</a>
</g>
</g>
<!-- Node11&#45;&gt;Node15 -->
<g id="edge16" class="edge"><title>Node11&#45;&gt;Node15</title>
<path fill="none" stroke="midnightblue" d="M272.864,-171.424C317.676,-161.588 410.723,-141.163 460.448,-130.248"/>
<polygon fill="midnightblue" stroke="midnightblue" points="461.351,-133.633 470.368,-128.07 459.85,-126.795 461.351,-133.633"/>
</g>
<!-- Node18 -->
<g id="node18" class="node"><title>Node18</title>
<g id="a_node18"><a xlink:href="InputManager_8h.html" target="_top" xlink:title="InputManager.h">
<polygon fill="white" stroke="black" points="216.464,-112.5 216.464,-131.5 300.464,-131.5 300.464,-112.5 216.464,-112.5"/>
<text text-anchor="middle" x="258.464" y="-119.5" font-family="Helvetica,sans-Serif" font-size="10.00">InputManager.h</text>
</a>
</g>
</g>
<!-- Node11&#45;&gt;Node18 -->
<g id="edge21" class="edge"><title>Node11&#45;&gt;Node18</title>
<path fill="none" stroke="midnightblue" d="M249.281,-168.083C250.739,-160.927 252.835,-150.635 254.657,-141.691"/>
<polygon fill="midnightblue" stroke="midnightblue" points="258.115,-142.248 256.682,-131.751 251.256,-140.851 258.115,-142.248"/>
</g>
<!-- Node15&#45;&gt;Node12 -->
<g id="edge17" class="edge"><title>Node15&#45;&gt;Node12</title>
<path fill="none" stroke="midnightblue" d="M493.451,-112.235C492.957,-98.5087 490.031,-71.8749 475.464,-56 457.085,-35.9704 428.961,-24.819 404.451,-18.6291"/>
<polygon fill="midnightblue" stroke="midnightblue" points="405.092,-15.1852 394.56,-16.343 403.515,-22.0053 405.092,-15.1852"/>
</g>
<!-- Node15&#45;&gt;Node16 -->
<g id="edge18" class="edge"><title>Node15&#45;&gt;Node16</title>
<path fill="none" stroke="midnightblue" d="M475.559,-112.444C457.21,-103.675 428.459,-89.9355 407.371,-79.8579"/>
<polygon fill="midnightblue" stroke="midnightblue" points="408.818,-76.6703 398.286,-75.5164 405.799,-82.9862 408.818,-76.6703"/>
</g>
<!-- Node17 -->
<g id="node17" class="node"><title>Node17</title>
<polygon fill="white" stroke="#bfbfbf" points="422.464,-56.5 422.464,-75.5 466.464,-75.5 466.464,-56.5 422.464,-56.5"/>
<text text-anchor="middle" x="444.464" y="-63.5" font-family="Helvetica,sans-Serif" font-size="10.00">cmath</text>
</g>
<!-- Node15&#45;&gt;Node17 -->
<g id="edge20" class="edge"><title>Node15&#45;&gt;Node17</title>
<path fill="none" stroke="midnightblue" d="M485.373,-112.083C478.309,-104.298 467.877,-92.8015 459.316,-83.3665"/>
<polygon fill="midnightblue" stroke="midnightblue" points="461.717,-80.8047 452.405,-75.7511 456.533,-85.5087 461.717,-80.8047"/>
</g>
<!-- Node16&#45;&gt;Node12 -->
<g id="edge19" class="edge"><title>Node16&#45;&gt;Node12</title>
<path fill="none" stroke="midnightblue" d="M376.171,-56.083C372.612,-48.6913 367.442,-37.9533 363.04,-28.8111"/>
<polygon fill="midnightblue" stroke="midnightblue" points="366.17,-27.2427 358.678,-19.7511 359.863,-30.2795 366.17,-27.2427"/>
</g>
<!-- Node18&#45;&gt;Node12 -->
<g id="edge22" class="edge"><title>Node18&#45;&gt;Node12</title>
<path fill="none" stroke="midnightblue" d="M266.03,-112.131C276.751,-99.5832 297.004,-75.9522 314.464,-56 322.828,-46.4428 332.263,-35.821 339.868,-27.298"/>
<polygon fill="midnightblue" stroke="midnightblue" points="342.702,-29.38 346.756,-19.5917 337.483,-24.7151 342.702,-29.38"/>
</g>
<!-- Node18&#45;&gt;Node16 -->
<g id="edge23" class="edge"><title>Node18&#45;&gt;Node16</title>
<path fill="none" stroke="midnightblue" d="M277.796,-112.444C297.784,-103.596 329.208,-89.6875 352.028,-79.5865"/>
<polygon fill="midnightblue" stroke="midnightblue" points="353.496,-82.7645 361.224,-75.5164 350.663,-76.3635 353.496,-82.7645"/>
</g>
<!-- Node19 -->
<g id="node19" class="node"><title>Node19</title>
<polygon fill="white" stroke="#bfbfbf" points="48.9645,-56.5 48.9645,-75.5 131.964,-75.5 131.964,-56.5 48.9645,-56.5"/>
<text text-anchor="middle" x="90.4645" y="-63.5" font-family="Helvetica,sans-Serif" font-size="10.00">unordered_map</text>
</g>
<!-- Node18&#45;&gt;Node19 -->
<g id="edge24" class="edge"><title>Node18&#45;&gt;Node19</title>
<path fill="none" stroke="midnightblue" d="M231.844,-112.444C203.459,-103.32 158.328,-88.8133 126.712,-78.6509"/>
<polygon fill="midnightblue" stroke="midnightblue" points="127.551,-75.2445 116.96,-75.5164 125.409,-81.9087 127.551,-75.2445"/>
</g>
<!-- Node20 -->
<g id="node20" class="node"><title>Node20</title>
<polygon fill="white" stroke="#bfbfbf" points="216.464,-56.5 216.464,-75.5 262.464,-75.5 262.464,-56.5 216.464,-56.5"/>
<text text-anchor="middle" x="239.464" y="-63.5" font-family="Helvetica,sans-Serif" font-size="10.00">cstdint</text>
</g>
<!-- Node18&#45;&gt;Node20 -->
<g id="edge25" class="edge"><title>Node18&#45;&gt;Node20</title>
<path fill="none" stroke="midnightblue" d="M255.327,-112.083C252.782,-104.849 249.108,-94.4087 245.937,-85.3968"/>
<polygon fill="midnightblue" stroke="midnightblue" points="249.164,-84.0225 242.544,-75.7511 242.561,-86.3459 249.164,-84.0225"/>
</g>
<!-- Node21&#45;&gt;Node2 -->
<g id="edge31" class="edge"><title>Node21&#45;&gt;Node2</title>
<path fill="none" stroke="midnightblue" d="M504.168,-172.805C489.192,-171.265 472.055,-169.526 456.464,-168 288.682,-151.576 241.923,-164.346 72.0226,-131.695"/>
<polygon fill="midnightblue" stroke="midnightblue" points="72.4715,-128.217 61.9869,-129.741 71.134,-135.088 72.4715,-128.217"/>
</g>
<!-- Node21&#45;&gt;Node3 -->
<g id="edge29" class="edge"><title>Node21&#45;&gt;Node3</title>
<path fill="none" stroke="midnightblue" d="M573.144,-168.444C605.846,-158.687 659.177,-142.776 693.275,-132.604"/>
<polygon fill="midnightblue" stroke="midnightblue" points="694.613,-135.857 703.195,-129.644 692.612,-129.149 694.613,-135.857"/>
</g>
<!-- Node21&#45;&gt;Node12 -->
<g id="edge28" class="edge"><title>Node21&#45;&gt;Node12</title>
<path fill="none" stroke="midnightblue" d="M543.694,-168.373C541.213,-146.015 531.354,-85.861 495.464,-56 469.755,-34.6097 433.742,-23.3379 404.547,-17.4248"/>
<polygon fill="midnightblue" stroke="midnightblue" points="405.006,-13.95 394.532,-15.549 403.717,-20.8304 405.006,-13.95"/>
</g>
<!-- Node21&#45;&gt;Node13 -->
<g id="edge30" class="edge"><title>Node21&#45;&gt;Node13</title>
<path fill="none" stroke="midnightblue" d="M504.315,-172.841C415.167,-163.563 204.293,-141.363 142.721,-131.855"/>
<polygon fill="midnightblue" stroke="midnightblue" points="143.191,-128.385 132.75,-130.181 142.033,-135.288 143.191,-128.385"/>
</g>
<!-- Node21&#45;&gt;Node15 -->
<g id="edge36" class="edge"><title>Node21&#45;&gt;Node15</title>
<path fill="none" stroke="midnightblue" d="M536.043,-168.083C528.616,-160.22 517.613,-148.569 508.652,-139.081"/>
<polygon fill="midnightblue" stroke="midnightblue" points="511.14,-136.618 501.729,-131.751 506.051,-141.424 511.14,-136.618"/>
</g>
<!-- Node22 -->
<g id="node22" class="node"><title>Node22</title>
<g id="a_node22"><a xlink:href="Component_8h.html" target="_top" xlink:title="Component.h">
<polygon fill="white" stroke="black" points="610.964,-112.5 610.964,-131.5 685.964,-131.5 685.964,-112.5 610.964,-112.5"/>
<text text-anchor="middle" x="648.464" y="-119.5" font-family="Helvetica,sans-Serif" font-size="10.00">Component.h</text>
</a>
</g>
</g>
<!-- Node21&#45;&gt;Node22 -->
<g id="edge32" class="edge"><title>Node21&#45;&gt;Node22</title>
<path fill="none" stroke="midnightblue" d="M556.059,-168.324C570.997,-159.585 596.915,-145.998 617.606,-135.977"/>
<polygon fill="midnightblue" stroke="midnightblue" points="619.162,-139.113 626.686,-131.655 616.153,-132.793 619.162,-139.113"/>
</g>
<!-- Node23 -->
<g id="node23" class="node"><title>Node23</title>
<g id="a_node23"><a xlink:href="ComponentType_8h.html" target="_top" xlink:title="ComponentType.h">
<polygon fill="white" stroke="black" points="585.964,-56.5 585.964,-75.5 682.964,-75.5 682.964,-56.5 585.964,-56.5"/>
<text text-anchor="middle" x="634.464" y="-63.5" font-family="Helvetica,sans-Serif" font-size="10.00">ComponentType.h</text>
</a>
</g>
</g>
<!-- Node21&#45;&gt;Node23 -->
<g id="edge35" class="edge"><title>Node21&#45;&gt;Node23</title>
<path fill="none" stroke="midnightblue" d="M551.527,-168.368C566.511,-150.055 601.697,-107.049 621.077,-83.3624"/>
<polygon fill="midnightblue" stroke="midnightblue" points="623.812,-85.5474 627.435,-75.5914 618.394,-81.1147 623.812,-85.5474"/>
</g>
<!-- Node22&#45;&gt;Node21 -->
<g id="edge34" class="edge"><title>Node22&#45;&gt;Node21</title>
<path fill="none" stroke="midnightblue" d="M637.142,-131.516C622.213,-140.27 596.013,-154.007 575.172,-164.096"/>
<polygon fill="midnightblue" stroke="midnightblue" points="573.559,-160.987 566.032,-168.444 576.566,-167.308 573.559,-160.987"/>
</g>
<!-- Node22&#45;&gt;Node23 -->
<g id="edge33" class="edge"><title>Node22&#45;&gt;Node23</title>
<path fill="none" stroke="midnightblue" d="M646.153,-112.083C644.297,-104.927 641.629,-94.6353 639.31,-85.6911"/>
<polygon fill="midnightblue" stroke="midnightblue" points="642.631,-84.5527 636.733,-75.7511 635.855,-86.3094 642.631,-84.5527"/>
</g>
<!-- Node24&#45;&gt;Node16 -->
<g id="edge38" class="edge"><title>Node24&#45;&gt;Node16</title>
<path fill="none" stroke="midnightblue" d="M401.66,-168.368C397.948,-150.617 389.386,-109.666 384.353,-85.5974"/>
<polygon fill="midnightblue" stroke="midnightblue" points="387.733,-84.6634 382.261,-75.5914 380.882,-86.0961 387.733,-84.6634"/>
</g>
<!-- Node25&#45;&gt;Node2 -->
<g id="edge41" class="edge"><title>Node25&#45;&gt;Node2</title>
<path fill="none" stroke="midnightblue" d="M41.4645,-168.083C41.4645,-161.006 41.4645,-150.861 41.4645,-141.986"/>
<polygon fill="midnightblue" stroke="midnightblue" points="44.9646,-141.751 41.4645,-131.751 37.9646,-141.751 44.9646,-141.751"/>
</g>
<!-- Node25&#45;&gt;Node12 -->
<g id="edge40" class="edge"><title>Node25&#45;&gt;Node12</title>
<path fill="none" stroke="midnightblue" d="M31.026,-168.245C22.0408,-159.969 9.7186,-146.663 4.46447,-132 -8.07977,-96.9921 8.29843,-76.2877 39.4645,-56 82.1666,-28.2028 226.886,-17.1002 304.428,-13.0659"/>
<polygon fill="midnightblue" stroke="midnightblue" points="304.638,-16.5599 314.451,-12.5644 304.289,-9.56864 304.638,-16.5599"/>
</g>
<!-- Node25&#45;&gt;Node13 -->
<g id="edge43" class="edge"><title>Node25&#45;&gt;Node13</title>
<path fill="none" stroke="midnightblue" d="M51.9078,-168.324C61.6107,-160.263 76.2798,-148.077 87.9642,-138.369"/>
<polygon fill="midnightblue" stroke="midnightblue" points="90.3757,-140.916 95.8311,-131.834 85.9026,-135.532 90.3757,-140.916"/>
</g>
<!-- Node25&#45;&gt;Node19 -->
<g id="edge42" class="edge"><title>Node25&#45;&gt;Node19</title>
<path fill="none" stroke="midnightblue" d="M32.1298,-168.329C19.621,-155.619 0.222367,-131.342 11.4645,-112 20.2007,-96.9696 36.0428,-86.5428 51.2593,-79.5405"/>
<polygon fill="midnightblue" stroke="midnightblue" points="52.7268,-82.7202 60.5837,-75.6125 50.0093,-76.2692 52.7268,-82.7202"/>
</g>
<!-- Node27&#45;&gt;Node6 -->
<g id="edge46" class="edge"><title>Node27&#45;&gt;Node6</title>
<path fill="none" stroke="midnightblue" d="M518.954,-224.444C539.107,-215.596 570.787,-201.687 593.795,-191.586"/>
<polygon fill="midnightblue" stroke="midnightblue" points="595.316,-194.741 603.066,-187.516 592.503,-188.332 595.316,-194.741"/>
</g>
<!-- Node27&#45;&gt;Node16 -->
<g id="edge47" class="edge"><title>Node27&#45;&gt;Node16</title>
<path fill="none" stroke="midnightblue" d="M494.059,-224.476C486.063,-211.948 470.512,-187.896 456.464,-168 435.062,-137.686 408.773,-103.35 393.392,-83.5334"/>
<polygon fill="midnightblue" stroke="midnightblue" points="396.055,-81.2562 387.149,-75.5165 390.532,-85.5569 396.055,-81.2562"/>
</g>
<!-- Node27&#45;&gt;Node21 -->
<g id="edge48" class="edge"><title>Node27&#45;&gt;Node21</title>
<path fill="none" stroke="midnightblue" d="M506.895,-224.083C513.317,-216.377 522.77,-205.033 530.587,-195.653"/>
<polygon fill="midnightblue" stroke="midnightblue" points="533.459,-197.674 537.172,-187.751 528.081,-193.193 533.459,-197.674"/>
</g>
</g>
</svg>
