<?xml version="1.0" encoding="UTF-8" standalone="no"?>
<!DOCTYPE svg PUBLIC "-//W3C//DTD SVG 1.1//EN"
 "http://www.w3.org/Graphics/SVG/1.1/DTD/svg11.dtd">
<!-- Generated by graphviz version 2.38.0 (20140413.2041)
 -->
<!-- Title: Engine/include/TileMap.h Pages: 1 -->
<svg width="1020pt" height="196pt"
 viewBox="0.00 0.00 1019.50 196.00" xmlns="http://www.w3.org/2000/svg" xmlns:xlink="http://www.w3.org/1999/xlink">
<g id="graph0" class="graph" transform="scale(1 1) rotate(0) translate(4 192)">
<title>Engine/include/TileMap.h</title>
<polygon fill="white" stroke="none" points="-4,4 -4,-192 1015.5,-192 1015.5,4 -4,4"/>
<!-- Node1 -->
<g id="node1" class="node"><title>Node1</title>
<polygon fill="#bfbfbf" stroke="black" points="433,-168.5 433,-187.5 559,-187.5 559,-168.5 433,-168.5"/>
<text text-anchor="middle" x="496" y="-175.5" font-family="Helvetica,sans-Serif" font-size="10.00">Engine/include/TileMap.h</text>
</g>
<!-- Node2 -->
<g id="node2" class="node"><title>Node2</title>
<g id="a_node2"><a xlink:href="DragAndDrop_8h.html" target="_top" xlink:title="Engine/include/DragAndDrop.h">
<polygon fill="white" stroke="black" points="127.5,-112.5 127.5,-131.5 278.5,-131.5 278.5,-112.5 127.5,-112.5"/>
<text text-anchor="middle" x="203" y="-119.5" font-family="Helvetica,sans-Serif" font-size="10.00">Engine/include/DragAndDrop.h</text>
</a>
</g>
</g>
<!-- Node1&#45;&gt;Node2 -->
<g id="edge1" class="edge"><title>Node1&#45;&gt;Node2</title>
<path fill="none" stroke="midnightblue" d="M439.574,-166.601C384.201,-156.395 300.769,-141.019 249.21,-131.516"/>
<polygon fill="midnightblue" stroke="midnightblue" points="439.105,-170.073 449.573,-168.444 440.373,-163.189 439.105,-170.073"/>
</g>
<!-- Node5 -->
<g id="node5" class="node"><title>Node5</title>
<g id="a_node5"><a xlink:href="TileMap_8cpp.html" target="_top" xlink:title="Engine/src/TileMap.cpp">
<polygon fill="white" stroke="black" points="719.5,-112.5 719.5,-131.5 838.5,-131.5 838.5,-112.5 719.5,-112.5"/>
<text text-anchor="middle" x="779" y="-119.5" font-family="Helvetica,sans-Serif" font-size="10.00">Engine/src/TileMap.cpp</text>
</a>
</g>
</g>
<!-- Node1&#45;&gt;Node5 -->
<g id="edge4" class="edge"><title>Node1&#45;&gt;Node5</title>
<path fill="none" stroke="midnightblue" d="M550.833,-166.537C604.318,-156.332 684.671,-140.999 734.368,-131.516"/>
<polygon fill="midnightblue" stroke="midnightblue" points="550.009,-163.131 540.842,-168.444 551.321,-170.007 550.009,-163.131"/>
</g>
<!-- Node6 -->
<g id="node6" class="node"><title>Node6</title>
<g id="a_node6"><a xlink:href="StageState_8h.html" target="_top" xlink:title="Game/include/StageState.h">
<polygon fill="white" stroke="black" points="427.5,-112.5 427.5,-131.5 564.5,-131.5 564.5,-112.5 427.5,-112.5"/>
<text text-anchor="middle" x="496" y="-119.5" font-family="Helvetica,sans-Serif" font-size="10.00">Game/include/StageState.h</text>
</a>
</g>
</g>
<!-- Node1&#45;&gt;Node6 -->
<g id="edge5" class="edge"><title>Node1&#45;&gt;Node6</title>
<path fill="none" stroke="midnightblue" d="M496,-157.805C496,-148.91 496,-138.78 496,-131.751"/>
<polygon fill="midnightblue" stroke="midnightblue" points="492.5,-158.083 496,-168.083 499.5,-158.083 492.5,-158.083"/>
</g>
<!-- Node11 -->
<g id="node11" class="node"><title>Node11</title>
<g id="a_node11"><a xlink:href="Enemy_8h.html" target="_top" xlink:title="Game/include/Enemy.h">
<polygon fill="white" stroke="black" points="582.5,-112.5 582.5,-131.5 701.5,-131.5 701.5,-112.5 582.5,-112.5"/>
<text text-anchor="middle" x="642" y="-119.5" font-family="Helvetica,sans-Serif" font-size="10.00">Game/include/Enemy.h</text>
</a>
</g>
</g>
<!-- Node1&#45;&gt;Node11 -->
<g id="edge11" class="edge"><title>Node1&#45;&gt;Node11</title>
<path fill="none" stroke="midnightblue" d="M528.699,-164.906C556.148,-154.754 594.668,-140.506 618.974,-131.516"/>
<polygon fill="midnightblue" stroke="midnightblue" points="527.299,-161.692 519.134,-168.444 529.727,-168.257 527.299,-161.692"/>
</g>
<!-- Node15 -->
<g id="node15" class="node"><title>Node15</title>
<g id="a_node15"><a xlink:href="Face_8h.html" target="_top" xlink:title="Game/include/Face.h">
<polygon fill="white" stroke="black" points="297,-112.5 297,-131.5 407,-131.5 407,-112.5 297,-112.5"/>
<text text-anchor="middle" x="352" y="-119.5" font-family="Helvetica,sans-Serif" font-size="10.00">Game/include/Face.h</text>
</a>
</g>
</g>
<!-- Node1&#45;&gt;Node15 -->
<g id="edge16" class="edge"><title>Node1&#45;&gt;Node15</title>
<path fill="none" stroke="midnightblue" d="M463.749,-164.906C436.676,-154.754 398.683,-140.506 374.71,-131.516"/>
<polygon fill="midnightblue" stroke="midnightblue" points="462.591,-168.209 473.183,-168.444 465.048,-161.655 462.591,-168.209"/>
</g>
<!-- Node3 -->
<g id="node3" class="node"><title>Node3</title>
<g id="a_node3"><a xlink:href="DragAndDrop_8cpp.html" target="_top" xlink:title="Engine/src/DragAndDrop.cpp">
<polygon fill="white" stroke="black" points="0,-56.5 0,-75.5 144,-75.5 144,-56.5 0,-56.5"/>
<text text-anchor="middle" x="72" y="-63.5" font-family="Helvetica,sans-Serif" font-size="10.00">Engine/src/DragAndDrop.cpp</text>
</a>
</g>
</g>
<!-- Node2&#45;&gt;Node3 -->
<g id="edge2" class="edge"><title>Node2&#45;&gt;Node3</title>
<path fill="none" stroke="midnightblue" d="M172.683,-108.503C148.124,-98.3795 114.182,-84.388 92.6602,-75.5164"/>
<polygon fill="midnightblue" stroke="midnightblue" points="171.663,-111.868 182.243,-112.444 174.331,-105.397 171.663,-111.868"/>
</g>
<!-- Node4 -->
<g id="node4" class="node"><title>Node4</title>
<g id="a_node4"><a xlink:href="Face_8cpp.html" target="_top" xlink:title="Game/src/Face.cpp">
<polygon fill="white" stroke="black" points="162.5,-56.5 162.5,-75.5 265.5,-75.5 265.5,-56.5 162.5,-56.5"/>
<text text-anchor="middle" x="214" y="-63.5" font-family="Helvetica,sans-Serif" font-size="10.00">Game/src/Face.cpp</text>
</a>
</g>
</g>
<!-- Node2&#45;&gt;Node4 -->
<g id="edge3" class="edge"><title>Node2&#45;&gt;Node4</title>
<path fill="none" stroke="midnightblue" d="M206.85,-102.101C208.676,-93.1357 210.77,-82.8579 212.217,-75.7511"/>
<polygon fill="midnightblue" stroke="midnightblue" points="203.383,-101.586 204.816,-112.083 210.242,-102.983 203.383,-101.586"/>
</g>
<!-- Node7 -->
<g id="node7" class="node"><title>Node7</title>
<g id="a_node7"><a xlink:href="EndState_8h.html" target="_top" xlink:title="Game/include/EndState.h">
<polygon fill="white" stroke="black" points="432,-56.5 432,-75.5 560,-75.5 560,-56.5 432,-56.5"/>
<text text-anchor="middle" x="496" y="-63.5" font-family="Helvetica,sans-Serif" font-size="10.00">Game/include/EndState.h</text>
</a>
</g>
</g>
<!-- Node6&#45;&gt;Node7 -->
<g id="edge6" class="edge"><title>Node6&#45;&gt;Node7</title>
<path fill="none" stroke="midnightblue" d="M489.528,-102.101C488.896,-93.1357 489.343,-82.8579 490.869,-75.7511"/>
<polygon fill="midnightblue" stroke="midnightblue" points="486.066,-102.622 490.834,-112.083 493.007,-101.713 486.066,-102.622"/>
</g>
<!-- Node9 -->
<g id="node9" class="node"><title>Node9</title>
<g id="a_node9"><a xlink:href="StageState_8cpp.html" target="_top" xlink:title="Game/src/StageState.cpp">
<polygon fill="white" stroke="black" points="284,-56.5 284,-75.5 414,-75.5 414,-56.5 284,-56.5"/>
<text text-anchor="middle" x="349" y="-63.5" font-family="Helvetica,sans-Serif" font-size="10.00">Game/src/StageState.cpp</text>
</a>
</g>
</g>
<!-- Node6&#45;&gt;Node9 -->
<g id="edge9" class="edge"><title>Node6&#45;&gt;Node9</title>
<path fill="none" stroke="midnightblue" d="M463.077,-108.906C435.44,-98.7536 396.656,-84.5063 372.184,-75.5164"/>
<polygon fill="midnightblue" stroke="midnightblue" points="462.114,-112.281 472.707,-112.444 464.528,-105.71 462.114,-112.281"/>
</g>
<!-- Node10 -->
<g id="node10" class="node"><title>Node10</title>
<g id="a_node10"><a xlink:href="TitleState_8cpp.html" target="_top" xlink:title="Game/src/TitleState.cpp">
<polygon fill="white" stroke="black" points="578.5,-56.5 578.5,-75.5 701.5,-75.5 701.5,-56.5 578.5,-56.5"/>
<text text-anchor="middle" x="640" y="-63.5" font-family="Helvetica,sans-Serif" font-size="10.00">Game/src/TitleState.cpp</text>
</a>
</g>
</g>
<!-- Node6&#45;&gt;Node10 -->
<g id="edge10" class="edge"><title>Node6&#45;&gt;Node10</title>
<path fill="none" stroke="midnightblue" d="M528.251,-108.906C555.324,-98.7536 593.317,-84.5063 617.29,-75.5164"/>
<polygon fill="midnightblue" stroke="midnightblue" points="526.952,-105.655 518.817,-112.444 529.409,-112.209 526.952,-105.655"/>
</g>
<!-- Node7&#45;&gt;Node6 -->
<g id="edge7" class="edge"><title>Node7&#45;&gt;Node6</title>
<path fill="none" stroke="midnightblue" d="M502.458,-85.6911C503.106,-94.6353 502.676,-104.927 501.166,-112.083"/>
<polygon fill="midnightblue" stroke="midnightblue" points="505.923,-85.2002 501.131,-75.7511 498.985,-86.1262 505.923,-85.2002"/>
</g>
<!-- Node8 -->
<g id="node8" class="node"><title>Node8</title>
<g id="a_node8"><a xlink:href="EndState_8cpp.html" target="_top" xlink:title="Game/src/EndState.cpp">
<polygon fill="white" stroke="black" points="435,-0.5 435,-19.5 557,-19.5 557,-0.5 435,-0.5"/>
<text text-anchor="middle" x="496" y="-7.5" font-family="Helvetica,sans-Serif" font-size="10.00">Game/src/EndState.cpp</text>
</a>
</g>
</g>
<!-- Node7&#45;&gt;Node8 -->
<g id="edge8" class="edge"><title>Node7&#45;&gt;Node8</title>
<path fill="none" stroke="midnightblue" d="M496,-45.8045C496,-36.9102 496,-26.7798 496,-19.7511"/>
<polygon fill="midnightblue" stroke="midnightblue" points="492.5,-46.083 496,-56.083 499.5,-46.083 492.5,-46.083"/>
</g>
<!-- Node11&#45;&gt;Node9 -->
<g id="edge15" class="edge"><title>Node11&#45;&gt;Node9</title>
<path fill="none" stroke="midnightblue" d="M585.574,-110.601C530.201,-100.395 446.769,-85.0189 395.21,-75.5164"/>
<polygon fill="midnightblue" stroke="midnightblue" points="585.105,-114.073 595.573,-112.444 586.373,-107.189 585.105,-114.073"/>
</g>
<!-- Node12 -->
<g id="node12" class="node"><title>Node12</title>
<g id="a_node12"><a xlink:href="GameResources_8h.html" target="_top" xlink:title="Game/include/GameResources.h">
<polygon fill="white" stroke="black" points="850.5,-56.5 850.5,-75.5 1011.5,-75.5 1011.5,-56.5 850.5,-56.5"/>
<text text-anchor="middle" x="931" y="-63.5" font-family="Helvetica,sans-Serif" font-size="10.00">Game/include/GameResources.h</text>
</a>
</g>
</g>
<!-- Node11&#45;&gt;Node12 -->
<g id="edge12" class="edge"><title>Node11&#45;&gt;Node12</title>
<path fill="none" stroke="midnightblue" d="M697.655,-110.601C752.273,-100.395 834.566,-85.0189 885.421,-75.5164"/>
<polygon fill="midnightblue" stroke="midnightblue" points="696.98,-107.166 687.793,-112.444 698.266,-114.047 696.98,-107.166"/>
</g>
<!-- Node14 -->
<g id="node14" class="node"><title>Node14</title>
<g id="a_node14"><a xlink:href="Enemy_8cpp.html" target="_top" xlink:title="Game/src/Enemy.cpp">
<polygon fill="white" stroke="black" points="720,-56.5 720,-75.5 832,-75.5 832,-56.5 720,-56.5"/>
<text text-anchor="middle" x="776" y="-63.5" font-family="Helvetica,sans-Serif" font-size="10.00">Game/src/Enemy.cpp</text>
</a>
</g>
</g>
<!-- Node11&#45;&gt;Node14 -->
<g id="edge14" class="edge"><title>Node11&#45;&gt;Node14</title>
<path fill="none" stroke="midnightblue" d="M672.677,-108.638C697.823,-98.504 732.754,-84.4274 754.867,-75.5164"/>
<polygon fill="midnightblue" stroke="midnightblue" points="671.2,-105.459 663.233,-112.444 673.816,-111.952 671.2,-105.459"/>
</g>
<!-- Node13 -->
<g id="node13" class="node"><title>Node13</title>
<g id="a_node13"><a xlink:href="GameResources_8cpp.html" target="_top" xlink:title="Game/src/GameResources.cpp">
<polygon fill="white" stroke="black" points="853.5,-0.5 853.5,-19.5 1008.5,-19.5 1008.5,-0.5 853.5,-0.5"/>
<text text-anchor="middle" x="931" y="-7.5" font-family="Helvetica,sans-Serif" font-size="10.00">Game/src/GameResources.cpp</text>
</a>
</g>
</g>
<!-- Node12&#45;&gt;Node13 -->
<g id="edge13" class="edge"><title>Node12&#45;&gt;Node13</title>
<path fill="none" stroke="midnightblue" d="M931,-45.8045C931,-36.9102 931,-26.7798 931,-19.7511"/>
<polygon fill="midnightblue" stroke="midnightblue" points="927.5,-46.083 931,-56.083 934.5,-46.083 927.5,-46.083"/>
</g>
<!-- Node15&#45;&gt;Node4 -->
<g id="edge17" class="edge"><title>Node15&#45;&gt;Node4</title>
<path fill="none" stroke="midnightblue" d="M320.751,-108.772C294.829,-98.6287 258.638,-84.4669 235.764,-75.5164"/>
<polygon fill="midnightblue" stroke="midnightblue" points="319.546,-112.059 330.133,-112.444 322.096,-105.54 319.546,-112.059"/>
</g>
<!-- Node15&#45;&gt;Node9 -->
<g id="edge18" class="edge"><title>Node15&#45;&gt;Node9</title>
<path fill="none" stroke="midnightblue" d="M350.934,-101.805C350.439,-92.9102 349.877,-82.7798 349.486,-75.7511"/>
<polygon fill="midnightblue" stroke="midnightblue" points="347.455,-102.293 351.505,-112.083 354.444,-101.904 347.455,-102.293"/>
</g>
</g>
</svg>
