<?xml version="1.0" encoding="UTF-8" standalone="no"?>
<!DOCTYPE svg PUBLIC "-//W3C//DTD SVG 1.1//EN"
 "http://www.w3.org/Graphics/SVG/1.1/DTD/svg11.dtd">
<!-- Generated by graphviz version 2.38.0 (20140413.2041)
 -->
<!-- Title: Engine/include/Tileset.h Pages: 1 -->
<svg width="788pt" height="308pt"
 viewBox="0.00 0.00 788.00 308.00" xmlns="http://www.w3.org/2000/svg" xmlns:xlink="http://www.w3.org/1999/xlink">
<g id="graph0" class="graph" transform="scale(1 1) rotate(0) translate(4 304)">
<title>Engine/include/Tileset.h</title>
<polygon fill="white" stroke="none" points="-4,4 -4,-304 784,-304 784,4 -4,4"/>
<!-- Node1 -->
<g id="node1" class="node"><title>Node1</title>
<polygon fill="#bfbfbf" stroke="black" points="301,-280.5 301,-299.5 422,-299.5 422,-280.5 301,-280.5"/>
<text text-anchor="middle" x="361.5" y="-287.5" font-family="Helvetica,sans-Serif" font-size="10.00">Engine/include/Tileset.h</text>
</g>
<!-- Node2 -->
<g id="node2" class="node"><title>Node2</title>
<g id="a_node2"><a xlink:href="TileMap_8h.html" target="_top" xlink:title="Engine/include/TileMap.h">
<polygon fill="white" stroke="black" points="298.5,-224.5 298.5,-243.5 424.5,-243.5 424.5,-224.5 298.5,-224.5"/>
<text text-anchor="middle" x="361.5" y="-231.5" font-family="Helvetica,sans-Serif" font-size="10.00">Engine/include/TileMap.h</text>
</a>
</g>
</g>
<!-- Node1&#45;&gt;Node2 -->
<g id="edge1" class="edge"><title>Node1&#45;&gt;Node2</title>
<path fill="none" stroke="midnightblue" d="M361.5,-269.805C361.5,-260.91 361.5,-250.78 361.5,-243.751"/>
<polygon fill="midnightblue" stroke="midnightblue" points="358,-270.083 361.5,-280.083 365,-270.083 358,-270.083"/>
</g>
<!-- Node5 -->
<g id="node5" class="node"><title>Node5</title>
<g id="a_node5"><a xlink:href="StageState_8h.html" target="_top" xlink:title="Game/include/StageState.h">
<polygon fill="white" stroke="black" points="137,-112.5 137,-131.5 274,-131.5 274,-112.5 137,-112.5"/>
<text text-anchor="middle" x="205.5" y="-119.5" font-family="Helvetica,sans-Serif" font-size="10.00">Game/include/StageState.h</text>
</a>
</g>
</g>
<!-- Node1&#45;&gt;Node5 -->
<g id="edge20" class="edge"><title>Node1&#45;&gt;Node5</title>
<path fill="none" stroke="midnightblue" d="M323.419,-276.907C285.247,-262.502 228.641,-234.371 203.5,-188 193.707,-169.936 198.849,-144.704 202.64,-131.626"/>
<polygon fill="midnightblue" stroke="midnightblue" points="322.581,-280.326 333.175,-280.443 324.966,-273.745 322.581,-280.326"/>
</g>
<!-- Node15 -->
<g id="node15" class="node"><title>Node15</title>
<g id="a_node15"><a xlink:href="Tileset_8cpp.html" target="_top" xlink:title="Engine/src/Tileset.cpp">
<polygon fill="white" stroke="black" points="442.5,-224.5 442.5,-243.5 556.5,-243.5 556.5,-224.5 442.5,-224.5"/>
<text text-anchor="middle" x="499.5" y="-231.5" font-family="Helvetica,sans-Serif" font-size="10.00">Engine/src/Tileset.cpp</text>
</a>
</g>
</g>
<!-- Node1&#45;&gt;Node15 -->
<g id="edge19" class="edge"><title>Node1&#45;&gt;Node15</title>
<path fill="none" stroke="midnightblue" d="M392.749,-276.772C418.671,-266.629 454.862,-252.467 477.736,-243.516"/>
<polygon fill="midnightblue" stroke="midnightblue" points="391.404,-273.54 383.367,-280.444 393.954,-280.059 391.404,-273.54"/>
</g>
<!-- Node3 -->
<g id="node3" class="node"><title>Node3</title>
<g id="a_node3"><a xlink:href="DragAndDrop_8h.html" target="_top" xlink:title="Engine/include/DragAndDrop.h">
<polygon fill="white" stroke="black" points="363,-168.5 363,-187.5 514,-187.5 514,-168.5 363,-168.5"/>
<text text-anchor="middle" x="438.5" y="-175.5" font-family="Helvetica,sans-Serif" font-size="10.00">Engine/include/DragAndDrop.h</text>
</a>
</g>
</g>
<!-- Node2&#45;&gt;Node3 -->
<g id="edge2" class="edge"><title>Node2&#45;&gt;Node3</title>
<path fill="none" stroke="midnightblue" d="M382.401,-218.342C396.411,-208.517 414.383,-195.913 426.159,-187.655"/>
<polygon fill="midnightblue" stroke="midnightblue" points="380.049,-215.717 373.871,-224.324 384.068,-221.448 380.049,-215.717"/>
</g>
<!-- Node2&#45;&gt;Node5 -->
<g id="edge12" class="edge"><title>Node2&#45;&gt;Node5</title>
<path fill="none" stroke="midnightblue" d="M288.414,-226.177C262.197,-220.063 234.66,-208.757 216.5,-188 202.634,-172.15 203.018,-145.506 204.33,-131.771"/>
<polygon fill="midnightblue" stroke="midnightblue" points="287.868,-229.639 298.374,-228.275 289.311,-222.789 287.868,-229.639"/>
</g>
<!-- Node11 -->
<g id="node11" class="node"><title>Node11</title>
<g id="a_node11"><a xlink:href="TileMap_8cpp.html" target="_top" xlink:title="Engine/src/TileMap.cpp">
<polygon fill="white" stroke="black" points="226,-168.5 226,-187.5 345,-187.5 345,-168.5 226,-168.5"/>
<text text-anchor="middle" x="285.5" y="-175.5" font-family="Helvetica,sans-Serif" font-size="10.00">Engine/src/TileMap.cpp</text>
</a>
</g>
</g>
<!-- Node2&#45;&gt;Node11 -->
<g id="edge11" class="edge"><title>Node2&#45;&gt;Node11</title>
<path fill="none" stroke="midnightblue" d="M340.924,-218.38C327.188,-208.62 309.575,-196.106 297.933,-187.834"/>
<polygon fill="midnightblue" stroke="midnightblue" points="339.11,-221.385 349.289,-224.324 343.165,-215.679 339.11,-221.385"/>
</g>
<!-- Node12 -->
<g id="node12" class="node"><title>Node12</title>
<g id="a_node12"><a xlink:href="Enemy_8h.html" target="_top" xlink:title="Game/include/Enemy.h">
<polygon fill="white" stroke="black" points="661,-168.5 661,-187.5 780,-187.5 780,-168.5 661,-168.5"/>
<text text-anchor="middle" x="720.5" y="-175.5" font-family="Helvetica,sans-Serif" font-size="10.00">Game/include/Enemy.h</text>
</a>
</g>
</g>
<!-- Node2&#45;&gt;Node12 -->
<g id="edge13" class="edge"><title>Node2&#45;&gt;Node12</title>
<path fill="none" stroke="midnightblue" d="M428.536,-222.917C496.358,-212.715 600.053,-197.117 663.882,-187.516"/>
<polygon fill="midnightblue" stroke="midnightblue" points="427.753,-219.495 418.385,-224.444 428.794,-226.417 427.753,-219.495"/>
</g>
<!-- Node14 -->
<g id="node14" class="node"><title>Node14</title>
<g id="a_node14"><a xlink:href="Face_8h.html" target="_top" xlink:title="Game/include/Face.h">
<polygon fill="white" stroke="black" points="532.5,-168.5 532.5,-187.5 642.5,-187.5 642.5,-168.5 532.5,-168.5"/>
<text text-anchor="middle" x="587.5" y="-175.5" font-family="Helvetica,sans-Serif" font-size="10.00">Game/include/Face.h</text>
</a>
</g>
</g>
<!-- Node2&#45;&gt;Node14 -->
<g id="edge16" class="edge"><title>Node2&#45;&gt;Node14</title>
<path fill="none" stroke="midnightblue" d="M407.167,-222.088C449.864,-211.887 512.748,-196.861 551.857,-187.516"/>
<polygon fill="midnightblue" stroke="midnightblue" points="406.223,-218.715 397.31,-224.444 407.85,-225.524 406.223,-218.715"/>
</g>
<!-- Node4 -->
<g id="node4" class="node"><title>Node4</title>
<g id="a_node4"><a xlink:href="DragAndDrop_8cpp.html" target="_top" xlink:title="Engine/src/DragAndDrop.cpp">
<polygon fill="white" stroke="black" points="296.5,-112.5 296.5,-131.5 440.5,-131.5 440.5,-112.5 296.5,-112.5"/>
<text text-anchor="middle" x="368.5" y="-119.5" font-family="Helvetica,sans-Serif" font-size="10.00">Engine/src/DragAndDrop.cpp</text>
</a>
</g>
</g>
<!-- Node3&#45;&gt;Node4 -->
<g id="edge3" class="edge"><title>Node3&#45;&gt;Node4</title>
<path fill="none" stroke="midnightblue" d="M419.186,-162.101C406.588,-152.382 390.572,-140.027 379.951,-131.834"/>
<polygon fill="midnightblue" stroke="midnightblue" points="417.198,-164.987 427.253,-168.324 421.473,-159.445 417.198,-164.987"/>
</g>
<!-- Node3&#45;&gt;Node5 -->
<g id="edge4" class="edge"><title>Node3&#45;&gt;Node5</title>
<path fill="none" stroke="midnightblue" d="M391.697,-166.153C347.673,-155.95 282.653,-140.881 242.247,-131.516"/>
<polygon fill="midnightblue" stroke="midnightblue" points="391.048,-169.595 401.58,-168.444 392.629,-162.776 391.048,-169.595"/>
</g>
<!-- Node10 -->
<g id="node10" class="node"><title>Node10</title>
<g id="a_node10"><a xlink:href="Face_8cpp.html" target="_top" xlink:title="Game/src/Face.cpp">
<polygon fill="white" stroke="black" points="459,-112.5 459,-131.5 562,-131.5 562,-112.5 459,-112.5"/>
<text text-anchor="middle" x="510.5" y="-119.5" font-family="Helvetica,sans-Serif" font-size="10.00">Game/src/Face.cpp</text>
</a>
</g>
</g>
<!-- Node3&#45;&gt;Node10 -->
<g id="edge10" class="edge"><title>Node3&#45;&gt;Node10</title>
<path fill="none" stroke="midnightblue" d="M458.366,-162.101C471.323,-152.382 487.797,-140.027 498.721,-131.834"/>
<polygon fill="midnightblue" stroke="midnightblue" points="455.968,-159.524 450.068,-168.324 460.168,-165.124 455.968,-159.524"/>
</g>
<!-- Node6 -->
<g id="node6" class="node"><title>Node6</title>
<g id="a_node6"><a xlink:href="EndState_8h.html" target="_top" xlink:title="Game/include/EndState.h">
<polygon fill="white" stroke="black" points="141.5,-56.5 141.5,-75.5 269.5,-75.5 269.5,-56.5 141.5,-56.5"/>
<text text-anchor="middle" x="205.5" y="-63.5" font-family="Helvetica,sans-Serif" font-size="10.00">Game/include/EndState.h</text>
</a>
</g>
</g>
<!-- Node5&#45;&gt;Node6 -->
<g id="edge5" class="edge"><title>Node5&#45;&gt;Node6</title>
<path fill="none" stroke="midnightblue" d="M199.028,-102.101C198.396,-93.1357 198.843,-82.8579 200.369,-75.7511"/>
<polygon fill="midnightblue" stroke="midnightblue" points="195.566,-102.622 200.334,-112.083 202.507,-101.713 195.566,-102.622"/>
</g>
<!-- Node8 -->
<g id="node8" class="node"><title>Node8</title>
<g id="a_node8"><a xlink:href="StageState_8cpp.html" target="_top" xlink:title="Game/src/StageState.cpp">
<polygon fill="white" stroke="black" points="525.5,-56.5 525.5,-75.5 655.5,-75.5 655.5,-56.5 525.5,-56.5"/>
<text text-anchor="middle" x="590.5" y="-63.5" font-family="Helvetica,sans-Serif" font-size="10.00">Game/src/StageState.cpp</text>
</a>
</g>
</g>
<!-- Node5&#45;&gt;Node8 -->
<g id="edge8" class="edge"><title>Node5&#45;&gt;Node8</title>
<path fill="none" stroke="midnightblue" d="M276.496,-111.042C349.211,-100.843 461.048,-85.1569 529.781,-75.5164"/>
<polygon fill="midnightblue" stroke="midnightblue" points="275.921,-107.588 266.504,-112.444 276.894,-114.521 275.921,-107.588"/>
</g>
<!-- Node9 -->
<g id="node9" class="node"><title>Node9</title>
<g id="a_node9"><a xlink:href="TitleState_8cpp.html" target="_top" xlink:title="Game/src/TitleState.cpp">
<polygon fill="white" stroke="black" points="0,-56.5 0,-75.5 123,-75.5 123,-56.5 0,-56.5"/>
<text text-anchor="middle" x="61.5" y="-63.5" font-family="Helvetica,sans-Serif" font-size="10.00">Game/src/TitleState.cpp</text>
</a>
</g>
</g>
<!-- Node5&#45;&gt;Node9 -->
<g id="edge9" class="edge"><title>Node5&#45;&gt;Node9</title>
<path fill="none" stroke="midnightblue" d="M173.249,-108.906C146.176,-98.7536 108.183,-84.5063 84.2105,-75.5164"/>
<polygon fill="midnightblue" stroke="midnightblue" points="172.091,-112.209 182.683,-112.444 174.548,-105.655 172.091,-112.209"/>
</g>
<!-- Node6&#45;&gt;Node5 -->
<g id="edge6" class="edge"><title>Node6&#45;&gt;Node5</title>
<path fill="none" stroke="midnightblue" d="M211.958,-85.6911C212.606,-94.6353 212.176,-104.927 210.666,-112.083"/>
<polygon fill="midnightblue" stroke="midnightblue" points="215.423,-85.2002 210.631,-75.7511 208.485,-86.1262 215.423,-85.2002"/>
</g>
<!-- Node7 -->
<g id="node7" class="node"><title>Node7</title>
<g id="a_node7"><a xlink:href="EndState_8cpp.html" target="_top" xlink:title="Game/src/EndState.cpp">
<polygon fill="white" stroke="black" points="144.5,-0.5 144.5,-19.5 266.5,-19.5 266.5,-0.5 144.5,-0.5"/>
<text text-anchor="middle" x="205.5" y="-7.5" font-family="Helvetica,sans-Serif" font-size="10.00">Game/src/EndState.cpp</text>
</a>
</g>
</g>
<!-- Node6&#45;&gt;Node7 -->
<g id="edge7" class="edge"><title>Node6&#45;&gt;Node7</title>
<path fill="none" stroke="midnightblue" d="M205.5,-45.8045C205.5,-36.9102 205.5,-26.7798 205.5,-19.7511"/>
<polygon fill="midnightblue" stroke="midnightblue" points="202,-46.083 205.5,-56.083 209,-46.083 202,-46.083"/>
</g>
<!-- Node12&#45;&gt;Node8 -->
<g id="edge15" class="edge"><title>Node12&#45;&gt;Node8</title>
<path fill="none" stroke="midnightblue" d="M697.856,-162.772C685.02,-154.356 668.897,-143.181 655.5,-132 633.445,-113.594 610.27,-88.9363 598.453,-75.9181"/>
<polygon fill="midnightblue" stroke="midnightblue" points="696.236,-165.892 706.536,-168.374 700.032,-160.011 696.236,-165.892"/>
</g>
<!-- Node13 -->
<g id="node13" class="node"><title>Node13</title>
<g id="a_node13"><a xlink:href="Enemy_8cpp.html" target="_top" xlink:title="Game/src/Enemy.cpp">
<polygon fill="white" stroke="black" points="664.5,-112.5 664.5,-131.5 776.5,-131.5 776.5,-112.5 664.5,-112.5"/>
<text text-anchor="middle" x="720.5" y="-119.5" font-family="Helvetica,sans-Serif" font-size="10.00">Game/src/Enemy.cpp</text>
</a>
</g>
</g>
<!-- Node12&#45;&gt;Node13 -->
<g id="edge14" class="edge"><title>Node12&#45;&gt;Node13</title>
<path fill="none" stroke="midnightblue" d="M720.5,-157.805C720.5,-148.91 720.5,-138.78 720.5,-131.751"/>
<polygon fill="midnightblue" stroke="midnightblue" points="717,-158.083 720.5,-168.083 724,-158.083 717,-158.083"/>
</g>
<!-- Node14&#45;&gt;Node8 -->
<g id="edge18" class="edge"><title>Node14&#45;&gt;Node8</title>
<path fill="none" stroke="midnightblue" d="M588.009,-158.348C588.666,-134.254 589.783,-93.3079 590.266,-75.5914"/>
<polygon fill="midnightblue" stroke="midnightblue" points="584.509,-158.277 587.735,-168.368 591.507,-158.468 584.509,-158.277"/>
</g>
<!-- Node14&#45;&gt;Node10 -->
<g id="edge17" class="edge"><title>Node14&#45;&gt;Node10</title>
<path fill="none" stroke="midnightblue" d="M566.599,-162.342C552.589,-152.517 534.617,-139.913 522.841,-131.655"/>
<polygon fill="midnightblue" stroke="midnightblue" points="564.932,-165.448 575.129,-168.324 568.951,-159.717 564.932,-165.448"/>
</g>
</g>
</svg>
