<?xml version="1.0" encoding="UTF-8" standalone="no"?>
<!DOCTYPE svg PUBLIC "-//W3C//DTD SVG 1.1//EN"
 "http://www.w3.org/Graphics/SVG/1.1/DTD/svg11.dtd">
<!-- Generated by graphviz version 2.38.0 (20140413.2041)
 -->
<!-- Title: Engine/src/Tileset.cpp Pages: 1 -->
<svg width="791pt" height="308pt"
 viewBox="0.00 0.00 791.26 308.00" xmlns="http://www.w3.org/2000/svg" xmlns:xlink="http://www.w3.org/1999/xlink">
<g id="graph0" class="graph" transform="scale(1 1) rotate(0) translate(4 304)">
<title>Engine/src/Tileset.cpp</title>
<polygon fill="white" stroke="none" points="-4,4 -4,-304 787.258,-304 787.258,4 -4,4"/>
<!-- Node1 -->
<g id="node1" class="node"><title>Node1</title>
<polygon fill="#bfbfbf" stroke="black" points="388,-280.5 388,-299.5 502,-299.5 502,-280.5 388,-280.5"/>
<text text-anchor="middle" x="445" y="-287.5" font-family="Helvetica,sans-Serif" font-size="10.00">Engine/src/Tileset.cpp</text>
</g>
<!-- Node2 -->
<g id="node2" class="node"><title>Node2</title>
<g id="a_node2"><a xlink:href="Tileset_8h.html" target="_top" xlink:title="Tileset.h">
<polygon fill="white" stroke="black" points="302,-168.5 302,-187.5 356,-187.5 356,-168.5 302,-168.5"/>
<text text-anchor="middle" x="329" y="-175.5" font-family="Helvetica,sans-Serif" font-size="10.00">Tileset.h</text>
</a>
</g>
</g>
<!-- Node1&#45;&gt;Node2 -->
<g id="edge1" class="edge"><title>Node1&#45;&gt;Node2</title>
<path fill="none" stroke="midnightblue" d="M435.898,-280.368C416.416,-261.894 370.436,-218.293 345.602,-194.744"/>
<polygon fill="midnightblue" stroke="midnightblue" points="347.725,-191.933 338.06,-187.591 342.908,-197.012 347.725,-191.933"/>
</g>
<!-- Node13 -->
<g id="node13" class="node"><title>Node13</title>
<g id="a_node13"><a xlink:href="Error_8h.html" target="_top" xlink:title="Error.h">
<polygon fill="white" stroke="black" points="70,-224.5 70,-243.5 116,-243.5 116,-224.5 70,-224.5"/>
<text text-anchor="middle" x="93" y="-231.5" font-family="Helvetica,sans-Serif" font-size="10.00">Error.h</text>
</a>
</g>
</g>
<!-- Node1&#45;&gt;Node13 -->
<g id="edge14" class="edge"><title>Node1&#45;&gt;Node13</title>
<path fill="none" stroke="midnightblue" d="M389.225,-280.444C315.16,-269.081 186.684,-249.372 126.243,-240.1"/>
<polygon fill="midnightblue" stroke="midnightblue" points="126.533,-236.603 116.118,-238.547 125.472,-243.522 126.533,-236.603"/>
</g>
<!-- Node16 -->
<g id="node16" class="node"><title>Node16</title>
<g id="a_node16"><a xlink:href="Game_8h.html" target="_top" xlink:title="Game.h">
<polygon fill="white" stroke="black" points="564.5,-224.5 564.5,-243.5 615.5,-243.5 615.5,-224.5 564.5,-224.5"/>
<text text-anchor="middle" x="590" y="-231.5" font-family="Helvetica,sans-Serif" font-size="10.00">Game.h</text>
</a>
</g>
</g>
<!-- Node1&#45;&gt;Node16 -->
<g id="edge17" class="edge"><title>Node1&#45;&gt;Node16</title>
<path fill="none" stroke="midnightblue" d="M467.976,-280.444C492.157,-271.438 530.418,-257.189 557.646,-247.049"/>
<polygon fill="midnightblue" stroke="midnightblue" points="558.982,-250.286 567.132,-243.516 556.539,-243.727 558.982,-250.286"/>
</g>
<!-- Node23 -->
<g id="node23" class="node"><title>Node23</title>
<g id="a_node23"><a xlink:href="Camera_8h.html" target="_top" xlink:title="Camera.h">
<polygon fill="white" stroke="black" points="553.5,-168.5 553.5,-187.5 612.5,-187.5 612.5,-168.5 553.5,-168.5"/>
<text text-anchor="middle" x="583" y="-175.5" font-family="Helvetica,sans-Serif" font-size="10.00">Camera.h</text>
</a>
</g>
</g>
<!-- Node1&#45;&gt;Node23 -->
<g id="edge37" class="edge"><title>Node1&#45;&gt;Node23</title>
<path fill="none" stroke="midnightblue" d="M455.829,-280.368C479.308,-261.653 535.138,-217.151 564.392,-193.832"/>
<polygon fill="midnightblue" stroke="midnightblue" points="566.584,-196.561 572.222,-187.591 562.22,-191.088 566.584,-196.561"/>
</g>
<!-- Node3 -->
<g id="node3" class="node"><title>Node3</title>
<polygon fill="white" stroke="#bfbfbf" points="177.5,-56.5 177.5,-75.5 218.5,-75.5 218.5,-56.5 177.5,-56.5"/>
<text text-anchor="middle" x="198" y="-63.5" font-family="Helvetica,sans-Serif" font-size="10.00">string</text>
</g>
<!-- Node2&#45;&gt;Node3 -->
<g id="edge2" class="edge"><title>Node2&#45;&gt;Node3</title>
<path fill="none" stroke="midnightblue" d="M301.973,-175.256C273.089,-171.835 228.316,-161.736 205,-132 194.832,-119.032 193.946,-99.8666 195.084,-85.7041"/>
<polygon fill="midnightblue" stroke="midnightblue" points="198.576,-85.9784 196.292,-75.6327 191.626,-85.1447 198.576,-85.9784"/>
</g>
<!-- Node4 -->
<g id="node4" class="node"><title>Node4</title>
<g id="a_node4"><a xlink:href="Sprite_8h.html" target="_top" xlink:title="Sprite.h">
<polygon fill="white" stroke="black" points="304,-112.5 304,-131.5 354,-131.5 354,-112.5 304,-112.5"/>
<text text-anchor="middle" x="329" y="-119.5" font-family="Helvetica,sans-Serif" font-size="10.00">Sprite.h</text>
</a>
</g>
</g>
<!-- Node2&#45;&gt;Node4 -->
<g id="edge3" class="edge"><title>Node2&#45;&gt;Node4</title>
<path fill="none" stroke="midnightblue" d="M329,-168.083C329,-161.006 329,-150.861 329,-141.986"/>
<polygon fill="midnightblue" stroke="midnightblue" points="332.5,-141.751 329,-131.751 325.5,-141.751 332.5,-141.751"/>
</g>
<!-- Node4&#45;&gt;Node3 -->
<g id="edge4" class="edge"><title>Node4&#45;&gt;Node3</title>
<path fill="none" stroke="midnightblue" d="M308.243,-112.444C286.684,-103.557 252.737,-89.5632 228.206,-79.4514"/>
<polygon fill="midnightblue" stroke="midnightblue" points="229.239,-76.0917 218.66,-75.5164 226.572,-82.5634 229.239,-76.0917"/>
</g>
<!-- Node5 -->
<g id="node5" class="node"><title>Node5</title>
<polygon fill="white" stroke="#bfbfbf" points="303,-56.5 303,-75.5 355,-75.5 355,-56.5 303,-56.5"/>
<text text-anchor="middle" x="329" y="-63.5" font-family="Helvetica,sans-Serif" font-size="10.00">memory</text>
</g>
<!-- Node4&#45;&gt;Node5 -->
<g id="edge5" class="edge"><title>Node4&#45;&gt;Node5</title>
<path fill="none" stroke="midnightblue" d="M329,-112.083C329,-105.006 329,-94.8611 329,-85.9865"/>
<polygon fill="midnightblue" stroke="midnightblue" points="332.5,-85.751 329,-75.7511 325.5,-85.7511 332.5,-85.751"/>
</g>
<!-- Node6 -->
<g id="node6" class="node"><title>Node6</title>
<g id="a_node6"><a xlink:href="Color_8h.html" target="_top" xlink:title="Color.h">
<polygon fill="white" stroke="black" points="237,-56.5 237,-75.5 285,-75.5 285,-56.5 237,-56.5"/>
<text text-anchor="middle" x="261" y="-63.5" font-family="Helvetica,sans-Serif" font-size="10.00">Color.h</text>
</a>
</g>
</g>
<!-- Node4&#45;&gt;Node6 -->
<g id="edge6" class="edge"><title>Node4&#45;&gt;Node6</title>
<path fill="none" stroke="midnightblue" d="M318.075,-112.324C307.825,-104.185 292.279,-91.8395 279.999,-82.0874"/>
<polygon fill="midnightblue" stroke="midnightblue" points="282.132,-79.3119 272.124,-75.8339 277.779,-84.7937 282.132,-79.3119"/>
</g>
<!-- Node7 -->
<g id="node7" class="node"><title>Node7</title>
<g id="a_node7"><a xlink:href="Rect_8h.html" target="_top" xlink:title="Rect.h">
<polygon fill="white" stroke="black" points="373,-56.5 373,-75.5 419,-75.5 419,-56.5 373,-56.5"/>
<text text-anchor="middle" x="396" y="-63.5" font-family="Helvetica,sans-Serif" font-size="10.00">Rect.h</text>
</a>
</g>
</g>
<!-- Node4&#45;&gt;Node7 -->
<g id="edge7" class="edge"><title>Node4&#45;&gt;Node7</title>
<path fill="none" stroke="midnightblue" d="M339.765,-112.324C349.766,-104.263 364.887,-92.0765 376.93,-82.3695"/>
<polygon fill="midnightblue" stroke="midnightblue" points="379.45,-84.8343 385.039,-75.8339 375.057,-79.3841 379.45,-84.8343"/>
</g>
<!-- Node10 -->
<g id="node10" class="node"><title>Node10</title>
<g id="a_node10"><a xlink:href="InputManager_8h.html" target="_top" xlink:title="InputManager.h">
<polygon fill="white" stroke="black" points="592,-56.5 592,-75.5 676,-75.5 676,-56.5 592,-56.5"/>
<text text-anchor="middle" x="634" y="-63.5" font-family="Helvetica,sans-Serif" font-size="10.00">InputManager.h</text>
</a>
</g>
</g>
<!-- Node4&#45;&gt;Node10 -->
<g id="edge10" class="edge"><title>Node4&#45;&gt;Node10</title>
<path fill="none" stroke="midnightblue" d="M354.219,-116.535C403.938,-107.732 515.522,-87.9765 581.768,-76.2477"/>
<polygon fill="midnightblue" stroke="midnightblue" points="582.758,-79.6269 591.994,-74.4371 581.537,-72.7341 582.758,-79.6269"/>
</g>
<!-- Node8 -->
<g id="node8" class="node"><title>Node8</title>
<g id="a_node8"><a xlink:href="Vec2_8h.html" target="_top" xlink:title="Vec2.h">
<polygon fill="white" stroke="black" points="695.5,-0.5 695.5,-19.5 742.5,-19.5 742.5,-0.5 695.5,-0.5"/>
<text text-anchor="middle" x="719" y="-7.5" font-family="Helvetica,sans-Serif" font-size="10.00">Vec2.h</text>
</a>
</g>
</g>
<!-- Node7&#45;&gt;Node8 -->
<g id="edge8" class="edge"><title>Node7&#45;&gt;Node8</title>
<path fill="none" stroke="midnightblue" d="M419.335,-58.0761C422.239,-57.3211 425.179,-56.6076 428,-56 532.583,-33.4744 560.371,-36.9558 666,-20 672.14,-19.0145 678.673,-17.9323 684.98,-16.8706"/>
<polygon fill="midnightblue" stroke="midnightblue" points="685.997,-20.2481 695.27,-15.1237 684.825,-13.3469 685.997,-20.2481"/>
</g>
<!-- Node9 -->
<g id="node9" class="node"><title>Node9</title>
<polygon fill="white" stroke="#bfbfbf" points="374,-0.5 374,-19.5 418,-19.5 418,-0.5 374,-0.5"/>
<text text-anchor="middle" x="396" y="-7.5" font-family="Helvetica,sans-Serif" font-size="10.00">cmath</text>
</g>
<!-- Node7&#45;&gt;Node9 -->
<g id="edge9" class="edge"><title>Node7&#45;&gt;Node9</title>
<path fill="none" stroke="midnightblue" d="M396,-56.083C396,-49.0059 396,-38.8611 396,-29.9865"/>
<polygon fill="midnightblue" stroke="midnightblue" points="399.5,-29.751 396,-19.7511 392.5,-29.7511 399.5,-29.751"/>
</g>
<!-- Node10&#45;&gt;Node8 -->
<g id="edge11" class="edge"><title>Node10&#45;&gt;Node8</title>
<path fill="none" stroke="midnightblue" d="M647.657,-56.324C660.916,-47.9002 681.268,-34.9709 696.846,-25.0741"/>
<polygon fill="midnightblue" stroke="midnightblue" points="698.813,-27.9711 705.377,-19.6545 695.06,-22.0626 698.813,-27.9711"/>
</g>
<!-- Node11 -->
<g id="node11" class="node"><title>Node11</title>
<polygon fill="white" stroke="#bfbfbf" points="473.5,-0.5 473.5,-19.5 556.5,-19.5 556.5,-0.5 473.5,-0.5"/>
<text text-anchor="middle" x="515" y="-7.5" font-family="Helvetica,sans-Serif" font-size="10.00">unordered_map</text>
</g>
<!-- Node10&#45;&gt;Node11 -->
<g id="edge12" class="edge"><title>Node10&#45;&gt;Node11</title>
<path fill="none" stroke="midnightblue" d="M615.144,-56.4435C595.734,-47.6356 565.27,-33.8116 543.035,-23.722"/>
<polygon fill="midnightblue" stroke="midnightblue" points="544.32,-20.4615 533.768,-19.5164 541.428,-26.836 544.32,-20.4615"/>
</g>
<!-- Node12 -->
<g id="node12" class="node"><title>Node12</title>
<polygon fill="white" stroke="#bfbfbf" points="611,-0.5 611,-19.5 657,-19.5 657,-0.5 611,-0.5"/>
<text text-anchor="middle" x="634" y="-7.5" font-family="Helvetica,sans-Serif" font-size="10.00">cstdint</text>
</g>
<!-- Node10&#45;&gt;Node12 -->
<g id="edge13" class="edge"><title>Node10&#45;&gt;Node12</title>
<path fill="none" stroke="midnightblue" d="M634,-56.083C634,-49.0059 634,-38.8611 634,-29.9865"/>
<polygon fill="midnightblue" stroke="midnightblue" points="637.5,-29.751 634,-19.7511 630.5,-29.7511 637.5,-29.751"/>
</g>
<!-- Node14 -->
<g id="node14" class="node"><title>Node14</title>
<polygon fill="white" stroke="#bfbfbf" points="66,-168.5 66,-187.5 120,-187.5 120,-168.5 66,-168.5"/>
<text text-anchor="middle" x="93" y="-175.5" font-family="Helvetica,sans-Serif" font-size="10.00">iostream</text>
</g>
<!-- Node13&#45;&gt;Node14 -->
<g id="edge15" class="edge"><title>Node13&#45;&gt;Node14</title>
<path fill="none" stroke="midnightblue" d="M93,-224.083C93,-217.006 93,-206.861 93,-197.986"/>
<polygon fill="midnightblue" stroke="midnightblue" points="96.5001,-197.751 93,-187.751 89.5001,-197.751 96.5001,-197.751"/>
</g>
<!-- Node15 -->
<g id="node15" class="node"><title>Node15</title>
<polygon fill="white" stroke="#bfbfbf" points="0,-168.5 0,-187.5 48,-187.5 48,-168.5 0,-168.5"/>
<text text-anchor="middle" x="24" y="-175.5" font-family="Helvetica,sans-Serif" font-size="10.00">stdlib.h</text>
</g>
<!-- Node13&#45;&gt;Node15 -->
<g id="edge16" class="edge"><title>Node13&#45;&gt;Node15</title>
<path fill="none" stroke="midnightblue" d="M81.914,-224.324C71.514,-216.185 55.7394,-203.839 43.2784,-194.087"/>
<polygon fill="midnightblue" stroke="midnightblue" points="45.3199,-191.241 35.2878,-187.834 41.0057,-196.753 45.3199,-191.241"/>
</g>
<!-- Node16&#45;&gt;Node3 -->
<g id="edge18" class="edge"><title>Node16&#45;&gt;Node3</title>
<path fill="none" stroke="midnightblue" d="M564.236,-232.191C511.792,-229.879 389.44,-221.079 293,-188 244.817,-171.473 218.758,-175.946 193,-132 184.781,-117.977 187.357,-99.2324 191.203,-85.4762"/>
<polygon fill="midnightblue" stroke="midnightblue" points="194.618,-86.2911 194.377,-75.699 187.96,-84.1293 194.618,-86.2911"/>
</g>
<!-- Node16&#45;&gt;Node8 -->
<g id="edge36" class="edge"><title>Node16&#45;&gt;Node8</title>
<path fill="none" stroke="midnightblue" d="M615.826,-230.356C660.748,-225.166 750.282,-212.006 769,-188 807.391,-138.763 757.97,-61.484 732.479,-27.7216"/>
<polygon fill="midnightblue" stroke="midnightblue" points="735.196,-25.5146 726.298,-19.7639 729.668,-29.8085 735.196,-25.5146"/>
</g>
<!-- Node16&#45;&gt;Node10 -->
<g id="edge35" class="edge"><title>Node16&#45;&gt;Node10</title>
<path fill="none" stroke="midnightblue" d="M602.411,-224.491C623.736,-209.018 666.621,-173.967 683,-132 686.232,-123.719 686.575,-120.138 683,-112 677.61,-99.732 667.042,-89.3414 657.096,-81.6461"/>
<polygon fill="midnightblue" stroke="midnightblue" points="658.828,-78.5811 648.661,-75.598 654.748,-84.2697 658.828,-78.5811"/>
</g>
<!-- Node17 -->
<g id="node17" class="node"><title>Node17</title>
<polygon fill="white" stroke="#bfbfbf" points="719.5,-168.5 719.5,-187.5 760.5,-187.5 760.5,-168.5 719.5,-168.5"/>
<text text-anchor="middle" x="740" y="-175.5" font-family="Helvetica,sans-Serif" font-size="10.00">stack</text>
</g>
<!-- Node16&#45;&gt;Node17 -->
<g id="edge19" class="edge"><title>Node16&#45;&gt;Node17</title>
<path fill="none" stroke="midnightblue" d="M613.768,-224.444C639.666,-215.12 681.176,-200.177 709.469,-189.991"/>
<polygon fill="midnightblue" stroke="midnightblue" points="711.018,-193.153 719.242,-186.473 708.647,-186.567 711.018,-193.153"/>
</g>
<!-- Node18 -->
<g id="node18" class="node"><title>Node18</title>
<g id="a_node18"><a xlink:href="State_8h.html" target="_top" xlink:title="State.h">
<polygon fill="white" stroke="black" points="451,-168.5 451,-187.5 499,-187.5 499,-168.5 451,-168.5"/>
<text text-anchor="middle" x="475" y="-175.5" font-family="Helvetica,sans-Serif" font-size="10.00">State.h</text>
</a>
</g>
</g>
<!-- Node16&#45;&gt;Node18 -->
<g id="edge20" class="edge"><title>Node16&#45;&gt;Node18</title>
<path fill="none" stroke="midnightblue" d="M571.778,-224.444C553.104,-215.675 523.844,-201.935 502.383,-191.858"/>
<polygon fill="midnightblue" stroke="midnightblue" points="503.676,-188.599 493.137,-187.516 500.701,-194.935 503.676,-188.599"/>
</g>
<!-- Node18&#45;&gt;Node5 -->
<g id="edge22" class="edge"><title>Node18&#45;&gt;Node5</title>
<path fill="none" stroke="midnightblue" d="M458.852,-168.344C443.474,-159.834 419.93,-146.105 401,-132 380.455,-116.692 358.9,-96.6216 344.792,-82.8561"/>
<polygon fill="midnightblue" stroke="midnightblue" points="346.983,-80.1012 337.409,-75.5633 342.064,-85.0811 346.983,-80.1012"/>
</g>
<!-- Node18&#45;&gt;Node10 -->
<g id="edge23" class="edge"><title>Node18&#45;&gt;Node10</title>
<path fill="none" stroke="midnightblue" d="M487.476,-168.368C514.645,-149.573 579.408,-104.768 612.993,-81.5334"/>
<polygon fill="midnightblue" stroke="midnightblue" points="615.349,-84.1592 621.581,-75.5914 611.366,-78.4025 615.349,-84.1592"/>
</g>
<!-- Node19 -->
<g id="node19" class="node"><title>Node19</title>
<polygon fill="white" stroke="#bfbfbf" points="530,-56.5 530,-75.5 574,-75.5 574,-56.5 530,-56.5"/>
<text text-anchor="middle" x="552" y="-63.5" font-family="Helvetica,sans-Serif" font-size="10.00">vector</text>
</g>
<!-- Node18&#45;&gt;Node19 -->
<g id="edge21" class="edge"><title>Node18&#45;&gt;Node19</title>
<path fill="none" stroke="midnightblue" d="M481.042,-168.368C493.749,-150.215 523.439,-107.802 540.107,-83.9902"/>
<polygon fill="midnightblue" stroke="midnightblue" points="543.119,-85.7909 545.986,-75.5914 537.384,-81.7766 543.119,-85.7909"/>
</g>
<!-- Node20 -->
<g id="node20" class="node"><title>Node20</title>
<g id="a_node20"><a xlink:href="Resources_8h.html" target="_top" xlink:title="Resources.h">
<polygon fill="white" stroke="black" points="214,-112.5 214,-131.5 286,-131.5 286,-112.5 214,-112.5"/>
<text text-anchor="middle" x="250" y="-119.5" font-family="Helvetica,sans-Serif" font-size="10.00">Resources.h</text>
</a>
</g>
</g>
<!-- Node18&#45;&gt;Node20 -->
<g id="edge24" class="edge"><title>Node18&#45;&gt;Node20</title>
<path fill="none" stroke="midnightblue" d="M450.921,-171.221C413.955,-162.349 342.581,-145.219 295.619,-133.948"/>
<polygon fill="midnightblue" stroke="midnightblue" points="296.239,-130.498 285.699,-131.568 294.606,-137.305 296.239,-130.498"/>
</g>
<!-- Node21 -->
<g id="node21" class="node"><title>Node21</title>
<g id="a_node21"><a xlink:href="GameObject_8h.html" target="_top" xlink:title="GameObject.h">
<polygon fill="white" stroke="black" points="410,-112.5 410,-131.5 490,-131.5 490,-112.5 410,-112.5"/>
<text text-anchor="middle" x="450" y="-119.5" font-family="Helvetica,sans-Serif" font-size="10.00">GameObject.h</text>
</a>
</g>
</g>
<!-- Node18&#45;&gt;Node21 -->
<g id="edge28" class="edge"><title>Node18&#45;&gt;Node21</title>
<path fill="none" stroke="midnightblue" d="M470.872,-168.083C467.486,-160.77 462.584,-150.181 458.381,-141.103"/>
<polygon fill="midnightblue" stroke="midnightblue" points="461.429,-139.355 454.051,-131.751 455.077,-142.296 461.429,-139.355"/>
</g>
<!-- Node20&#45;&gt;Node3 -->
<g id="edge25" class="edge"><title>Node20&#45;&gt;Node3</title>
<path fill="none" stroke="midnightblue" d="M241.413,-112.083C233.841,-104.22 222.622,-92.5688 213.486,-83.0813"/>
<polygon fill="midnightblue" stroke="midnightblue" points="215.885,-80.5266 206.427,-75.7511 210.842,-85.3821 215.885,-80.5266"/>
</g>
<!-- Node20&#45;&gt;Node5 -->
<g id="edge27" class="edge"><title>Node20&#45;&gt;Node5</title>
<path fill="none" stroke="midnightblue" d="M262.693,-112.324C274.901,-103.979 293.578,-91.2122 308.003,-81.3524"/>
<polygon fill="midnightblue" stroke="midnightblue" points="310.058,-84.1871 316.339,-75.6545 306.108,-78.4082 310.058,-84.1871"/>
</g>
<!-- Node20&#45;&gt;Node11 -->
<g id="edge26" class="edge"><title>Node20&#45;&gt;Node11</title>
<path fill="none" stroke="midnightblue" d="M223.459,-112.476C192.255,-101.116 147.196,-79.6767 168,-56 172.836,-50.4963 367.544,-27.7212 463.131,-16.8397"/>
<polygon fill="midnightblue" stroke="midnightblue" points="463.63,-20.3056 473.171,-15.699 462.839,-13.3504 463.63,-20.3056"/>
</g>
<!-- Node21&#45;&gt;Node3 -->
<g id="edge30" class="edge"><title>Node21&#45;&gt;Node3</title>
<path fill="none" stroke="midnightblue" d="M409.647,-113.968C366.975,-106.277 297.53,-93.0417 228.346,-75.8922"/>
<polygon fill="midnightblue" stroke="midnightblue" points="229.139,-72.4829 218.588,-73.4466 227.437,-79.2729 229.139,-72.4829"/>
</g>
<!-- Node21&#45;&gt;Node5 -->
<g id="edge29" class="edge"><title>Node21&#45;&gt;Node5</title>
<path fill="none" stroke="midnightblue" d="M430.827,-112.444C411.091,-103.636 380.115,-89.8116 357.507,-79.722"/>
<polygon fill="midnightblue" stroke="midnightblue" points="358.641,-76.3957 348.083,-75.5164 355.789,-82.788 358.641,-76.3957"/>
</g>
<!-- Node21&#45;&gt;Node7 -->
<g id="edge34" class="edge"><title>Node21&#45;&gt;Node7</title>
<path fill="none" stroke="midnightblue" d="M441.083,-112.083C433.22,-104.22 421.569,-92.5688 412.081,-83.0813"/>
<polygon fill="midnightblue" stroke="midnightblue" points="414.297,-80.3473 404.751,-75.7511 409.347,-85.2971 414.297,-80.3473"/>
</g>
<!-- Node21&#45;&gt;Node19 -->
<g id="edge31" class="edge"><title>Node21&#45;&gt;Node19</title>
<path fill="none" stroke="midnightblue" d="M466.388,-112.324C482.671,-103.703 507.867,-90.3643 526.716,-80.3855"/>
<polygon fill="midnightblue" stroke="midnightblue" points="528.452,-83.4267 535.653,-75.6545 525.177,-77.2402 528.452,-83.4267"/>
</g>
<!-- Node22 -->
<g id="node22" class="node"><title>Node22</title>
<g id="a_node22"><a xlink:href="Component_8h.html" target="_top" xlink:title="Component.h">
<polygon fill="white" stroke="black" points="437.5,-56.5 437.5,-75.5 512.5,-75.5 512.5,-56.5 437.5,-56.5"/>
<text text-anchor="middle" x="475" y="-63.5" font-family="Helvetica,sans-Serif" font-size="10.00">Component.h</text>
</a>
</g>
</g>
<!-- Node21&#45;&gt;Node22 -->
<g id="edge32" class="edge"><title>Node21&#45;&gt;Node22</title>
<path fill="none" stroke="midnightblue" d="M448.962,-112.083C450.845,-104.613 455.486,-93.7244 460.523,-84.5199"/>
<polygon fill="midnightblue" stroke="midnightblue" points="463.645,-86.1208 465.818,-75.7511 457.653,-82.5027 463.645,-86.1208"/>
</g>
<!-- Node22&#45;&gt;Node21 -->
<g id="edge33" class="edge"><title>Node22&#45;&gt;Node21</title>
<path fill="none" stroke="midnightblue" d="M476.08,-75.7511C474.238,-83.1703 469.621,-94.0454 464.589,-103.275"/>
<polygon fill="midnightblue" stroke="midnightblue" points="461.446,-101.709 459.295,-112.083 467.446,-105.315 461.446,-101.709"/>
</g>
<!-- Node23&#45;&gt;Node8 -->
<g id="edge39" class="edge"><title>Node23&#45;&gt;Node8</title>
<path fill="none" stroke="midnightblue" d="M612.848,-170.676C635.159,-164.457 664.828,-152.78 683,-132 708.639,-102.682 716.03,-55.763 718.152,-29.805"/>
<polygon fill="midnightblue" stroke="midnightblue" points="721.648,-29.9855 718.791,-19.7832 714.662,-29.5405 721.648,-29.9855"/>
</g>
<!-- Node23&#45;&gt;Node21 -->
<g id="edge38" class="edge"><title>Node23&#45;&gt;Node21</title>
<path fill="none" stroke="midnightblue" d="M561.926,-168.444C539.94,-159.517 505.266,-145.439 480.336,-135.317"/>
<polygon fill="midnightblue" stroke="midnightblue" points="481.558,-132.035 470.976,-131.516 478.924,-138.521 481.558,-132.035"/>
</g>
<!-- Node24 -->
<g id="node24" class="node"><title>Node24</title>
<g id="a_node24"><a xlink:href="ActionManager_8h.html" target="_top" xlink:title="ActionManager.h">
<polygon fill="white" stroke="black" points="584,-112.5 584,-131.5 674,-131.5 674,-112.5 584,-112.5"/>
<text text-anchor="middle" x="629" y="-119.5" font-family="Helvetica,sans-Serif" font-size="10.00">ActionManager.h</text>
</a>
</g>
</g>
<!-- Node23&#45;&gt;Node24 -->
<g id="edge40" class="edge"><title>Node23&#45;&gt;Node24</title>
<path fill="none" stroke="midnightblue" d="M590.596,-168.083C597.227,-160.298 607.021,-148.801 615.058,-139.367"/>
<polygon fill="midnightblue" stroke="midnightblue" points="617.725,-141.633 621.545,-131.751 612.396,-137.094 617.725,-141.633"/>
</g>
<!-- Node24&#45;&gt;Node10 -->
<g id="edge41" class="edge"><title>Node24&#45;&gt;Node10</title>
<path fill="none" stroke="midnightblue" d="M629.826,-112.083C630.481,-105.006 631.42,-94.8611 632.242,-85.9865"/>
<polygon fill="midnightblue" stroke="midnightblue" points="635.753,-86.0312 633.19,-75.7511 628.783,-85.3858 635.753,-86.0312"/>
</g>
</g>
</svg>
