<?xml version="1.0" encoding="UTF-8" standalone="no"?>
<!DOCTYPE svg PUBLIC "-//W3C//DTD SVG 1.1//EN"
 "http://www.w3.org/Graphics/SVG/1.1/DTD/svg11.dtd">
<!-- Generated by graphviz version 2.36.0 (20140111.2315)
 -->
<!-- Title: Engine/include/Timer.h Pages: 1 -->
<svg width="2125pt" height="308pt"
 viewBox="0.00 0.00 2125.00 308.00" xmlns="http://www.w3.org/2000/svg" xmlns:xlink="http://www.w3.org/1999/xlink">
<g id="graph0" class="graph" transform="scale(1 1) rotate(0) translate(4 304)">
<title>Engine/include/Timer.h</title>
<polygon fill="white" stroke="none" points="-4,4 -4,-304 2121,-304 2121,4 -4,4"/>
<!-- Node1 -->
<g id="node1" class="node"><title>Node1</title>
<polygon fill="#bfbfbf" stroke="black" points="1591,-280.5 1591,-299.5 1707,-299.5 1707,-280.5 1591,-280.5"/>
<text text-anchor="middle" x="1649" y="-287.5" font-family="Helvetica,sans-Serif" font-size="10.00">Engine/include/Timer.h</text>
</g>
<!-- Node2 -->
<g id="node2" class="node"><title>Node2</title>
<g id="a_node2"><a xlink:href="Animation_8h.html" target="_top" xlink:title="Engine/include/Animation.h">
<polygon fill="white" stroke="black" points="366.5,-224.5 366.5,-243.5 501.5,-243.5 501.5,-224.5 366.5,-224.5"/>
<text text-anchor="middle" x="434" y="-231.5" font-family="Helvetica,sans-Serif" font-size="10.00">Engine/include/Animation.h</text>
</a>
</g>
</g>
<!-- Node1&#45;&gt;Node2 -->
<g id="edge1" class="edge"><title>Node1&#45;&gt;Node2</title>
<path fill="none" stroke="midnightblue" d="M1580.68,-285.963C1367.17,-276.474 714.129,-247.45 501.61,-238.005"/>
<polygon fill="midnightblue" stroke="midnightblue" points="1580.66,-289.466 1590.81,-286.414 1580.97,-282.473 1580.66,-289.466"/>
</g>
<!-- Node4 -->
<g id="node4" class="node"><title>Node4</title>
<g id="a_node4"><a xlink:href="Text_8h.html" target="_top" xlink:title="Engine/include/Text.h">
<polygon fill="white" stroke="black" points="1593.5,-168.5 1593.5,-187.5 1704.5,-187.5 1704.5,-168.5 1593.5,-168.5"/>
<text text-anchor="middle" x="1649" y="-175.5" font-family="Helvetica,sans-Serif" font-size="10.00">Engine/include/Text.h</text>
</a>
</g>
</g>
<!-- Node1&#45;&gt;Node4 -->
<g id="edge3" class="edge"><title>Node1&#45;&gt;Node4</title>
<path fill="none" stroke="midnightblue" d="M1649,-270.348C1649,-246.254 1649,-205.308 1649,-187.591"/>
<polygon fill="midnightblue" stroke="midnightblue" points="1645.5,-270.368 1649,-280.368 1652.5,-270.369 1645.5,-270.368"/>
</g>
<!-- Node7 -->
<g id="node7" class="node"><title>Node7</title>
<g id="a_node7"><a xlink:href="StageState_8h.html" target="_top" xlink:title="Game/include/StageState.h">
<polygon fill="white" stroke="black" points="1482.5,-56.5 1482.5,-75.5 1619.5,-75.5 1619.5,-56.5 1482.5,-56.5"/>
<text text-anchor="middle" x="1551" y="-63.5" font-family="Helvetica,sans-Serif" font-size="10.00">Game/include/StageState.h</text>
</a>
</g>
</g>
<!-- Node1&#45;&gt;Node7 -->
<g id="edge45" class="edge"><title>Node1&#45;&gt;Node7</title>
<path fill="none" stroke="midnightblue" d="M1664.86,-272.858C1701.33,-234.853 1786.3,-140.77 1763,-112 1753.26,-99.9762 1668.5,-84.824 1609.16,-75.5287"/>
<polygon fill="midnightblue" stroke="midnightblue" points="1662.31,-270.456 1657.87,-280.073 1667.34,-275.327 1662.31,-270.456"/>
</g>
<!-- Node11 -->
<g id="node11" class="node"><title>Node11</title>
<g id="a_node11"><a xlink:href="UItext_8h.html" target="_top" xlink:title="Engine/include/UItext.h">
<polygon fill="white" stroke="black" points="1773.5,-224.5 1773.5,-243.5 1892.5,-243.5 1892.5,-224.5 1773.5,-224.5"/>
<text text-anchor="middle" x="1833" y="-231.5" font-family="Helvetica,sans-Serif" font-size="10.00">Engine/include/UItext.h</text>
</a>
</g>
</g>
<!-- Node1&#45;&gt;Node11 -->
<g id="edge11" class="edge"><title>Node1&#45;&gt;Node11</title>
<path fill="none" stroke="midnightblue" d="M1687.95,-277.568C1722.66,-267.381 1772.68,-252.703 1803.98,-243.516"/>
<polygon fill="midnightblue" stroke="midnightblue" points="1686.77,-274.269 1678.16,-280.444 1688.74,-280.986 1686.77,-274.269"/>
</g>
<!-- Node17 -->
<g id="node17" class="node"><title>Node17</title>
<g id="a_node17"><a xlink:href="Timer_8cpp.html" target="_top" xlink:title="Engine/src/Timer.cpp">
<polygon fill="white" stroke="black" points="1911,-224.5 1911,-243.5 2021,-243.5 2021,-224.5 1911,-224.5"/>
<text text-anchor="middle" x="1966" y="-231.5" font-family="Helvetica,sans-Serif" font-size="10.00">Engine/src/Timer.cpp</text>
</a>
</g>
</g>
<!-- Node1&#45;&gt;Node17 -->
<g id="edge19" class="edge"><title>Node1&#45;&gt;Node17</title>
<path fill="none" stroke="midnightblue" d="M1709.3,-278.727C1769.21,-268.523 1859.99,-253.058 1916.01,-243.516"/>
<polygon fill="midnightblue" stroke="midnightblue" points="1708.5,-275.314 1699.23,-280.444 1709.68,-282.214 1708.5,-275.314"/>
</g>
<!-- Node18 -->
<g id="node18" class="node"><title>Node18</title>
<g id="a_node18"><a xlink:href="Enemy_8h.html" target="_top" xlink:title="Game/include/Enemy.h">
<polygon fill="white" stroke="black" points="1052.5,-224.5 1052.5,-243.5 1171.5,-243.5 1171.5,-224.5 1052.5,-224.5"/>
<text text-anchor="middle" x="1112" y="-231.5" font-family="Helvetica,sans-Serif" font-size="10.00">Game/include/Enemy.h</text>
</a>
</g>
</g>
<!-- Node1&#45;&gt;Node18 -->
<g id="edge20" class="edge"><title>Node1&#45;&gt;Node18</title>
<path fill="none" stroke="midnightblue" d="M1580.5,-282.111C1474.41,-271.444 1272.18,-251.108 1171.71,-241.005"/>
<polygon fill="midnightblue" stroke="midnightblue" points="1580.47,-285.626 1590.77,-283.144 1581.17,-278.661 1580.47,-285.626"/>
</g>
<!-- Node35 -->
<g id="node35" class="node"><title>Node35</title>
<g id="a_node35"><a xlink:href="WaveManager_8h.html" target="_top" xlink:title="Game/include/WaveManager.h">
<polygon fill="white" stroke="black" points="1400.5,-168.5 1400.5,-187.5 1551.5,-187.5 1551.5,-168.5 1400.5,-168.5"/>
<text text-anchor="middle" x="1476" y="-175.5" font-family="Helvetica,sans-Serif" font-size="10.00">Game/include/WaveManager.h</text>
</a>
</g>
</g>
<!-- Node1&#45;&gt;Node35 -->
<g id="edge46" class="edge"><title>Node1&#45;&gt;Node35</title>
<path fill="none" stroke="midnightblue" d="M1626.53,-274.714C1590.08,-251.535 1519.14,-206.43 1489.51,-187.591"/>
<polygon fill="midnightblue" stroke="midnightblue" points="1625.11,-277.956 1635.42,-280.368 1628.86,-272.049 1625.11,-277.956"/>
</g>
<!-- Node3 -->
<g id="node3" class="node"><title>Node3</title>
<g id="a_node3"><a xlink:href="Animation_8cpp.html" target="_top" xlink:title="Engine/src/Animation.cpp">
<polygon fill="white" stroke="black" points="0,-168.5 0,-187.5 128,-187.5 128,-168.5 0,-168.5"/>
<text text-anchor="middle" x="64" y="-175.5" font-family="Helvetica,sans-Serif" font-size="10.00">Engine/src/Animation.cpp</text>
</a>
</g>
</g>
<!-- Node2&#45;&gt;Node3 -->
<g id="edge2" class="edge"><title>Node2&#45;&gt;Node3</title>
<path fill="none" stroke="midnightblue" d="M365.34,-222.979C295.449,-212.779 188.273,-197.137 122.353,-187.516"/>
<polygon fill="midnightblue" stroke="midnightblue" points="364.972,-226.463 375.372,-224.444 365.983,-219.536 364.972,-226.463"/>
</g>
<!-- Node5 -->
<g id="node5" class="node"><title>Node5</title>
<g id="a_node5"><a xlink:href="Text_8cpp.html" target="_top" xlink:title="Engine/src/Text.cpp">
<polygon fill="white" stroke="black" points="1504,-112.5 1504,-131.5 1608,-131.5 1608,-112.5 1504,-112.5"/>
<text text-anchor="middle" x="1556" y="-119.5" font-family="Helvetica,sans-Serif" font-size="10.00">Engine/src/Text.cpp</text>
</a>
</g>
</g>
<!-- Node4&#45;&gt;Node5 -->
<g id="edge4" class="edge"><title>Node4&#45;&gt;Node5</title>
<path fill="none" stroke="midnightblue" d="M1625.19,-163.177C1608.08,-153.241 1585.53,-140.149 1570.9,-131.655"/>
<polygon fill="midnightblue" stroke="midnightblue" points="1623.65,-166.329 1634.06,-168.324 1627.17,-160.276 1623.65,-166.329"/>
</g>
<!-- Node6 -->
<g id="node6" class="node"><title>Node6</title>
<g id="a_node6"><a xlink:href="EndState_8h.html" target="_top" xlink:title="Game/include/EndState.h">
<polygon fill="white" stroke="black" points="1626,-112.5 1626,-131.5 1754,-131.5 1754,-112.5 1626,-112.5"/>
<text text-anchor="middle" x="1690" y="-119.5" font-family="Helvetica,sans-Serif" font-size="10.00">Game/include/EndState.h</text>
</a>
</g>
</g>
<!-- Node4&#45;&gt;Node6 -->
<g id="edge5" class="edge"><title>Node4&#45;&gt;Node6</title>
<path fill="none" stroke="midnightblue" d="M1662.02,-159.855C1669.12,-150.505 1677.6,-139.327 1683.36,-131.751"/>
<polygon fill="midnightblue" stroke="midnightblue" points="1659.03,-158.002 1655.77,-168.083 1664.61,-162.235 1659.03,-158.002"/>
</g>
<!-- Node6&#45;&gt;Node7 -->
<g id="edge6" class="edge"><title>Node6&#45;&gt;Node7</title>
<path fill="none" stroke="midnightblue" d="M1653.13,-108.906C1625.46,-98.7536 1589,-84.5063 1567.84,-75.5164"/>
<polygon fill="midnightblue" stroke="midnightblue" points="1652.29,-112.324 1662.89,-112.444 1654.68,-105.744 1652.29,-112.324"/>
</g>
<!-- Node10 -->
<g id="node10" class="node"><title>Node10</title>
<g id="a_node10"><a xlink:href="EndState_8cpp.html" target="_top" xlink:title="Game/src/EndState.cpp">
<polygon fill="white" stroke="black" points="1638,-56.5 1638,-75.5 1760,-75.5 1760,-56.5 1638,-56.5"/>
<text text-anchor="middle" x="1699" y="-63.5" font-family="Helvetica,sans-Serif" font-size="10.00">Game/src/EndState.cpp</text>
</a>
</g>
</g>
<!-- Node6&#45;&gt;Node10 -->
<g id="edge10" class="edge"><title>Node6&#45;&gt;Node10</title>
<path fill="none" stroke="midnightblue" d="M1693.15,-102.101C1694.64,-93.1357 1696.36,-82.8579 1697.54,-75.7511"/>
<polygon fill="midnightblue" stroke="midnightblue" points="1689.68,-101.644 1691.49,-112.083 1696.58,-102.794 1689.68,-101.644"/>
</g>
<!-- Node7&#45;&gt;Node6 -->
<g id="edge7" class="edge"><title>Node7&#45;&gt;Node6</title>
<path fill="none" stroke="midnightblue" d="M1587.75,-79.049C1615.39,-89.1891 1651.86,-103.438 1673.06,-112.444"/>
<polygon fill="midnightblue" stroke="midnightblue" points="1588.6,-75.6347 1578,-75.5164 1586.21,-82.2155 1588.6,-75.6347"/>
</g>
<!-- Node8 -->
<g id="node8" class="node"><title>Node8</title>
<g id="a_node8"><a xlink:href="StageState_8cpp.html" target="_top" xlink:title="Game/src/StageState.cpp">
<polygon fill="white" stroke="black" points="597,-0.5 597,-19.5 727,-19.5 727,-0.5 597,-0.5"/>
<text text-anchor="middle" x="662" y="-7.5" font-family="Helvetica,sans-Serif" font-size="10.00">Game/src/StageState.cpp</text>
</a>
</g>
</g>
<!-- Node7&#45;&gt;Node8 -->
<g id="edge8" class="edge"><title>Node7&#45;&gt;Node8</title>
<path fill="none" stroke="midnightblue" d="M1472.28,-60.2184C1298.96,-49.6906 887.1,-24.6731 727.119,-14.9555"/>
<polygon fill="midnightblue" stroke="midnightblue" points="1472.16,-63.7172 1482.35,-60.83 1472.58,-56.7301 1472.16,-63.7172"/>
</g>
<!-- Node9 -->
<g id="node9" class="node"><title>Node9</title>
<g id="a_node9"><a xlink:href="TitleState_8cpp.html" target="_top" xlink:title="Game/src/TitleState.cpp">
<polygon fill="white" stroke="black" points="1612.5,-0.5 1612.5,-19.5 1735.5,-19.5 1735.5,-0.5 1612.5,-0.5"/>
<text text-anchor="middle" x="1674" y="-7.5" font-family="Helvetica,sans-Serif" font-size="10.00">Game/src/TitleState.cpp</text>
</a>
</g>
</g>
<!-- Node7&#45;&gt;Node9 -->
<g id="edge9" class="edge"><title>Node7&#45;&gt;Node9</title>
<path fill="none" stroke="midnightblue" d="M1579.77,-52.3678C1602.81,-42.2553 1634.48,-28.3486 1654.6,-19.5164"/>
<polygon fill="midnightblue" stroke="midnightblue" points="1578.24,-49.2188 1570.49,-56.4435 1581.05,-55.6283 1578.24,-49.2188"/>
</g>
<!-- Node12 -->
<g id="node12" class="node"><title>Node12</title>
<g id="a_node12"><a xlink:href="UItextButton_8h.html" target="_top" xlink:title="Engine/include/UItextButton.h">
<polygon fill="white" stroke="black" points="1941.5,-168.5 1941.5,-187.5 2088.5,-187.5 2088.5,-168.5 1941.5,-168.5"/>
<text text-anchor="middle" x="2015" y="-175.5" font-family="Helvetica,sans-Serif" font-size="10.00">Engine/include/UItextButton.h</text>
</a>
</g>
</g>
<!-- Node11&#45;&gt;Node12 -->
<g id="edge12" class="edge"><title>Node11&#45;&gt;Node12</title>
<path fill="none" stroke="midnightblue" d="M1871.53,-221.568C1905.86,-211.381 1955.33,-196.703 1986.3,-187.516"/>
<polygon fill="midnightblue" stroke="midnightblue" points="1870.43,-218.244 1861.84,-224.444 1872.42,-224.954 1870.43,-218.244"/>
</g>
<!-- Node14 -->
<g id="node14" class="node"><title>Node14</title>
<g id="a_node14"><a xlink:href="TitleState_8h.html" target="_top" xlink:title="Game/include/TitleState.h">
<polygon fill="white" stroke="black" points="1829,-112.5 1829,-131.5 1959,-131.5 1959,-112.5 1829,-112.5"/>
<text text-anchor="middle" x="1894" y="-119.5" font-family="Helvetica,sans-Serif" font-size="10.00">Game/include/TitleState.h</text>
</a>
</g>
</g>
<!-- Node11&#45;&gt;Node14 -->
<g id="edge18" class="edge"><title>Node11&#45;&gt;Node14</title>
<path fill="none" stroke="midnightblue" d="M1861.19,-219.332C1873.28,-211.876 1886.17,-201.405 1893,-188 1902.33,-169.699 1898.9,-144.567 1896.14,-131.566"/>
<polygon fill="midnightblue" stroke="midnightblue" points="1859.18,-216.452 1852.22,-224.444 1862.64,-222.534 1859.18,-216.452"/>
</g>
<!-- Node16 -->
<g id="node16" class="node"><title>Node16</title>
<g id="a_node16"><a xlink:href="UItext_8cpp.html" target="_top" xlink:title="Engine/src/UItext.cpp">
<polygon fill="white" stroke="black" points="1773,-168.5 1773,-187.5 1885,-187.5 1885,-168.5 1773,-168.5"/>
<text text-anchor="middle" x="1829" y="-175.5" font-family="Helvetica,sans-Serif" font-size="10.00">Engine/src/UItext.cpp</text>
</a>
</g>
</g>
<!-- Node11&#45;&gt;Node16 -->
<g id="edge17" class="edge"><title>Node11&#45;&gt;Node16</title>
<path fill="none" stroke="midnightblue" d="M1831.6,-214.101C1830.94,-205.136 1830.17,-194.858 1829.65,-187.751"/>
<polygon fill="midnightblue" stroke="midnightblue" points="1828.11,-214.369 1832.34,-224.083 1835.09,-213.852 1828.11,-214.369"/>
</g>
<!-- Node13 -->
<g id="node13" class="node"><title>Node13</title>
<g id="a_node13"><a xlink:href="UItextButton_8cpp.html" target="_top" xlink:title="Engine/src/UItextButton.cpp">
<polygon fill="white" stroke="black" points="1977,-112.5 1977,-131.5 2117,-131.5 2117,-112.5 1977,-112.5"/>
<text text-anchor="middle" x="2047" y="-119.5" font-family="Helvetica,sans-Serif" font-size="10.00">Engine/src/UItextButton.cpp</text>
</a>
</g>
</g>
<!-- Node12&#45;&gt;Node13 -->
<g id="edge13" class="edge"><title>Node12&#45;&gt;Node13</title>
<path fill="none" stroke="midnightblue" d="M2025.5,-159.275C2030.97,-150.045 2037.42,-139.17 2041.81,-131.751"/>
<polygon fill="midnightblue" stroke="midnightblue" points="2022.37,-157.696 2020.28,-168.083 2028.39,-161.264 2022.37,-157.696"/>
</g>
<!-- Node12&#45;&gt;Node14 -->
<g id="edge14" class="edge"><title>Node12&#45;&gt;Node14</title>
<path fill="none" stroke="midnightblue" d="M1986.69,-164.368C1964.03,-154.255 1932.87,-140.349 1913.08,-131.516"/>
<polygon fill="midnightblue" stroke="midnightblue" points="1985.27,-167.564 1995.83,-168.444 1988.12,-161.172 1985.27,-167.564"/>
</g>
<!-- Node14&#45;&gt;Node9 -->
<g id="edge16" class="edge"><title>Node14&#45;&gt;Node9</title>
<path fill="none" stroke="midnightblue" d="M1869.05,-107.68C1843.92,-94.3436 1803.97,-73.3651 1769,-56 1742.68,-42.9309 1711.89,-28.5017 1692.67,-19.5923"/>
<polygon fill="midnightblue" stroke="midnightblue" points="1867.44,-110.789 1877.92,-112.393 1870.73,-104.608 1867.44,-110.789"/>
</g>
<!-- Node15 -->
<g id="node15" class="node"><title>Node15</title>
<g id="a_node15"><a xlink:href="main_8cpp.html" target="_top" xlink:title="Game/src/main.cpp">
<polygon fill="white" stroke="black" points="1843,-56.5 1843,-75.5 1945,-75.5 1945,-56.5 1843,-56.5"/>
<text text-anchor="middle" x="1894" y="-63.5" font-family="Helvetica,sans-Serif" font-size="10.00">Game/src/main.cpp</text>
</a>
</g>
</g>
<!-- Node14&#45;&gt;Node15 -->
<g id="edge15" class="edge"><title>Node14&#45;&gt;Node15</title>
<path fill="none" stroke="midnightblue" d="M1894,-101.805C1894,-92.9102 1894,-82.7798 1894,-75.7511"/>
<polygon fill="midnightblue" stroke="midnightblue" points="1890.5,-102.083 1894,-112.083 1897.5,-102.083 1890.5,-102.083"/>
</g>
<!-- Node18&#45;&gt;Node8 -->
<g id="edge43" class="edge"><title>Node18&#45;&gt;Node8</title>
<path fill="none" stroke="midnightblue" d="M1042.23,-229.908C838.215,-220.248 253.055,-187.887 189,-132 163.12,-109.42 151.858,-81.3791 175,-56 202.89,-25.4138 470.856,-15.3141 596.975,-12.2375"/>
<polygon fill="midnightblue" stroke="midnightblue" points="1042.08,-233.405 1052.23,-230.378 1042.41,-226.413 1042.08,-233.405"/>
</g>
<!-- Node19 -->
<g id="node19" class="node"><title>Node19</title>
<g id="a_node19"><a xlink:href="GameResources_8h.html" target="_top" xlink:title="Game/include/GameResources.h">
<polygon fill="white" stroke="black" points="737.5,-168.5 737.5,-187.5 898.5,-187.5 898.5,-168.5 737.5,-168.5"/>
<text text-anchor="middle" x="818" y="-175.5" font-family="Helvetica,sans-Serif" font-size="10.00">Game/include/GameResources.h</text>
</a>
</g>
</g>
<!-- Node18&#45;&gt;Node19 -->
<g id="edge21" class="edge"><title>Node18&#45;&gt;Node19</title>
<path fill="none" stroke="midnightblue" d="M1055.38,-222.601C999.819,-212.395 916.103,-197.019 864.367,-187.516"/>
<polygon fill="midnightblue" stroke="midnightblue" points="1054.95,-226.079 1065.41,-224.444 1056.21,-219.195 1054.95,-226.079"/>
</g>
<!-- Node33 -->
<g id="node33" class="node"><title>Node33</title>
<g id="a_node33"><a xlink:href="WaveManager_8cpp.html" target="_top" xlink:title="Game/src/WaveManager.cpp">
<polygon fill="white" stroke="black" points="1304,-112.5 1304,-131.5 1448,-131.5 1448,-112.5 1304,-112.5"/>
<text text-anchor="middle" x="1376" y="-119.5" font-family="Helvetica,sans-Serif" font-size="10.00">Game/src/WaveManager.cpp</text>
</a>
</g>
</g>
<!-- Node18&#45;&gt;Node33 -->
<g id="edge44" class="edge"><title>Node18&#45;&gt;Node33</title>
<path fill="none" stroke="midnightblue" d="M1142.13,-220.446C1196.35,-197.855 1309.01,-150.911 1355.38,-131.591"/>
<polygon fill="midnightblue" stroke="midnightblue" points="1140.6,-217.291 1132.72,-224.368 1143.29,-223.753 1140.6,-217.291"/>
</g>
<!-- Node34 -->
<g id="node34" class="node"><title>Node34</title>
<g id="a_node34"><a xlink:href="Enemy_8cpp.html" target="_top" xlink:title="Game/src/Enemy.cpp">
<polygon fill="white" stroke="black" points="1056,-168.5 1056,-187.5 1168,-187.5 1168,-168.5 1056,-168.5"/>
<text text-anchor="middle" x="1112" y="-175.5" font-family="Helvetica,sans-Serif" font-size="10.00">Game/src/Enemy.cpp</text>
</a>
</g>
</g>
<!-- Node18&#45;&gt;Node34 -->
<g id="edge42" class="edge"><title>Node18&#45;&gt;Node34</title>
<path fill="none" stroke="midnightblue" d="M1112,-213.805C1112,-204.91 1112,-194.78 1112,-187.751"/>
<polygon fill="midnightblue" stroke="midnightblue" points="1108.5,-214.083 1112,-224.083 1115.5,-214.083 1108.5,-214.083"/>
</g>
<!-- Node19&#45;&gt;Node8 -->
<g id="edge40" class="edge"><title>Node19&#45;&gt;Node8</title>
<path fill="none" stroke="midnightblue" d="M727.295,-169.631C703.407,-163.106 680.116,-151.688 665,-132 638.895,-97.9981 652.49,-41.3505 659.09,-19.7404"/>
<polygon fill="midnightblue" stroke="midnightblue" points="726.637,-173.073 737.183,-172.058 728.306,-166.275 726.637,-173.073"/>
</g>
<!-- Node20 -->
<g id="node20" class="node"><title>Node20</title>
<g id="a_node20"><a xlink:href="AIArt_8h.html" target="_top" xlink:title="Game/include/AIArt.h">
<polygon fill="white" stroke="black" points="508,-112.5 508,-131.5 618,-131.5 618,-112.5 508,-112.5"/>
<text text-anchor="middle" x="563" y="-119.5" font-family="Helvetica,sans-Serif" font-size="10.00">Game/include/AIArt.h</text>
</a>
</g>
</g>
<!-- Node19&#45;&gt;Node20 -->
<g id="edge22" class="edge"><title>Node19&#45;&gt;Node20</title>
<path fill="none" stroke="midnightblue" d="M767.688,-166.346C719.497,-156.141 647.717,-140.94 603.216,-131.516"/>
<polygon fill="midnightblue" stroke="midnightblue" points="767.086,-169.796 777.594,-168.444 768.537,-162.948 767.086,-169.796"/>
</g>
<!-- Node22 -->
<g id="node22" class="node"><title>Node22</title>
<g id="a_node22"><a xlink:href="AIEngineer_8h.html" target="_top" xlink:title="Game/include/AIEngineer.h">
<polygon fill="white" stroke="black" points="994,-112.5 994,-131.5 1130,-131.5 1130,-112.5 994,-112.5"/>
<text text-anchor="middle" x="1062" y="-119.5" font-family="Helvetica,sans-Serif" font-size="10.00">Game/include/AIEngineer.h</text>
</a>
</g>
</g>
<!-- Node19&#45;&gt;Node22 -->
<g id="edge25" class="edge"><title>Node19&#45;&gt;Node22</title>
<path fill="none" stroke="midnightblue" d="M866.432,-166.281C912.541,-156.077 981.027,-140.92 1023.52,-131.516"/>
<polygon fill="midnightblue" stroke="midnightblue" points="865.67,-162.865 856.663,-168.444 867.183,-169.7 865.67,-162.865"/>
</g>
<!-- Node24 -->
<g id="node24" class="node"><title>Node24</title>
<g id="a_node24"><a xlink:href="AIGoTo_8h.html" target="_top" xlink:title="Game/include/AIGoTo.h">
<polygon fill="white" stroke="black" points="198,-112.5 198,-131.5 320,-131.5 320,-112.5 198,-112.5"/>
<text text-anchor="middle" x="259" y="-119.5" font-family="Helvetica,sans-Serif" font-size="10.00">Game/include/AIGoTo.h</text>
</a>
</g>
</g>
<!-- Node19&#45;&gt;Node24 -->
<g id="edge28" class="edge"><title>Node19&#45;&gt;Node24</title>
<path fill="none" stroke="midnightblue" d="M727.268,-168.681C631.842,-159.862 477.319,-145.386 344,-132 336.322,-131.229 328.256,-130.4 320.277,-129.568"/>
<polygon fill="midnightblue" stroke="midnightblue" points="727.181,-172.187 737.46,-169.622 727.824,-165.217 727.181,-172.187"/>
</g>
<!-- Node26 -->
<g id="node26" class="node"><title>Node26</title>
<g id="a_node26"><a xlink:href="AIMedic_8h.html" target="_top" xlink:title="Game/include/AIMedic.h">
<polygon fill="white" stroke="black" points="353,-112.5 353,-131.5 477,-131.5 477,-112.5 353,-112.5"/>
<text text-anchor="middle" x="415" y="-119.5" font-family="Helvetica,sans-Serif" font-size="10.00">Game/include/AIMedic.h</text>
</a>
</g>
</g>
<!-- Node19&#45;&gt;Node26 -->
<g id="edge30" class="edge"><title>Node19&#45;&gt;Node26</title>
<path fill="none" stroke="midnightblue" d="M744.09,-167.096C667.52,-156.836 549.188,-140.98 477.234,-131.339"/>
<polygon fill="midnightblue" stroke="midnightblue" points="743.767,-170.584 754.143,-168.444 744.697,-163.646 743.767,-170.584"/>
</g>
<!-- Node28 -->
<g id="node28" class="node"><title>Node28</title>
<g id="a_node28"><a xlink:href="AIPrintPath_8h.html" target="_top" xlink:title="Game/include/AIPrintPath.h">
<polygon fill="white" stroke="black" points="1148,-112.5 1148,-131.5 1286,-131.5 1286,-112.5 1148,-112.5"/>
<text text-anchor="middle" x="1217" y="-119.5" font-family="Helvetica,sans-Serif" font-size="10.00">Game/include/AIPrintPath.h</text>
</a>
</g>
</g>
<!-- Node19&#45;&gt;Node28 -->
<g id="edge33" class="edge"><title>Node19&#45;&gt;Node28</title>
<path fill="none" stroke="midnightblue" d="M891.578,-167.042C966.936,-156.843 1082.84,-141.157 1154.07,-131.516"/>
<polygon fill="midnightblue" stroke="midnightblue" points="890.663,-163.634 881.223,-168.444 891.602,-170.571 890.663,-163.634"/>
</g>
<!-- Node30 -->
<g id="node30" class="node"><title>Node30</title>
<g id="a_node30"><a xlink:href="AIQuimic_8h.html" target="_top" xlink:title="Game/include/AIQuimic.h">
<polygon fill="white" stroke="black" points="674,-112.5 674,-131.5 802,-131.5 802,-112.5 674,-112.5"/>
<text text-anchor="middle" x="738" y="-119.5" font-family="Helvetica,sans-Serif" font-size="10.00">Game/include/AIQuimic.h</text>
</a>
</g>
</g>
<!-- Node19&#45;&gt;Node30 -->
<g id="edge36" class="edge"><title>Node19&#45;&gt;Node30</title>
<path fill="none" stroke="midnightblue" d="M796.699,-162.622C782.085,-152.757 763.173,-139.992 750.821,-131.655"/>
<polygon fill="midnightblue" stroke="midnightblue" points="794.9,-165.63 805.147,-168.324 798.816,-159.828 794.9,-165.63"/>
</g>
<!-- Node32 -->
<g id="node32" class="node"><title>Node32</title>
<g id="a_node32"><a xlink:href="GameResources_8cpp.html" target="_top" xlink:title="Game/src/GameResources.cpp">
<polygon fill="white" stroke="black" points="820.5,-112.5 820.5,-131.5 975.5,-131.5 975.5,-112.5 820.5,-112.5"/>
<text text-anchor="middle" x="898" y="-119.5" font-family="Helvetica,sans-Serif" font-size="10.00">Game/src/GameResources.cpp</text>
</a>
</g>
</g>
<!-- Node19&#45;&gt;Node32 -->
<g id="edge39" class="edge"><title>Node19&#45;&gt;Node32</title>
<path fill="none" stroke="midnightblue" d="M839.301,-162.622C853.915,-152.757 872.827,-139.992 885.179,-131.655"/>
<polygon fill="midnightblue" stroke="midnightblue" points="837.184,-159.828 830.853,-168.324 841.1,-165.63 837.184,-159.828"/>
</g>
<!-- Node19&#45;&gt;Node33 -->
<g id="edge41" class="edge"><title>Node19&#45;&gt;Node33</title>
<path fill="none" stroke="midnightblue" d="M908.602,-168.903C1004.59,-160.22 1160.54,-145.811 1295,-132 1297.81,-131.711 1300.68,-131.412 1303.58,-131.107"/>
<polygon fill="midnightblue" stroke="midnightblue" points="908.285,-165.418 898.641,-169.804 908.915,-172.389 908.285,-165.418"/>
</g>
<!-- Node20&#45;&gt;Node8 -->
<g id="edge24" class="edge"><title>Node20&#45;&gt;Node8</title>
<path fill="none" stroke="midnightblue" d="M542.273,-106.035C526.308,-92.6478 508.852,-72.6293 521,-56 538.431,-32.1391 568.655,-20.6348 596.661,-15.2006"/>
<polygon fill="midnightblue" stroke="midnightblue" points="540.301,-108.937 550.321,-112.378 544.634,-103.439 540.301,-108.937"/>
</g>
<!-- Node21 -->
<g id="node21" class="node"><title>Node21</title>
<g id="a_node21"><a xlink:href="AIArt_8cpp.html" target="_top" xlink:title="Game/src/AIArt.cpp">
<polygon fill="white" stroke="black" points="530,-56.5 530,-75.5 634,-75.5 634,-56.5 530,-56.5"/>
<text text-anchor="middle" x="582" y="-63.5" font-family="Helvetica,sans-Serif" font-size="10.00">Game/src/AIArt.cpp</text>
</a>
</g>
</g>
<!-- Node20&#45;&gt;Node21 -->
<g id="edge23" class="edge"><title>Node20&#45;&gt;Node21</title>
<path fill="none" stroke="midnightblue" d="M569.546,-102.396C572.724,-93.362 576.393,-82.936 578.921,-75.7511"/>
<polygon fill="midnightblue" stroke="midnightblue" points="566.155,-101.488 566.137,-112.083 572.758,-103.812 566.155,-101.488"/>
</g>
<!-- Node22&#45;&gt;Node8 -->
<g id="edge27" class="edge"><title>Node22&#45;&gt;Node8</title>
<path fill="none" stroke="midnightblue" d="M1061.5,-102.097C1060.02,-87.2266 1055.44,-67.2078 1042,-56 995.571,-17.2821 823.094,-10.8718 727.26,-10.4009"/>
<polygon fill="midnightblue" stroke="midnightblue" points="1058.01,-102.464 1062.11,-112.233 1065,-102.038 1058.01,-102.464"/>
</g>
<!-- Node23 -->
<g id="node23" class="node"><title>Node23</title>
<g id="a_node23"><a xlink:href="AIEngineer_8cpp.html" target="_top" xlink:title="Game/src/AIEngineer.cpp">
<polygon fill="white" stroke="black" points="904.5,-56.5 904.5,-75.5 1033.5,-75.5 1033.5,-56.5 904.5,-56.5"/>
<text text-anchor="middle" x="969" y="-63.5" font-family="Helvetica,sans-Serif" font-size="10.00">Game/src/AIEngineer.cpp</text>
</a>
</g>
</g>
<!-- Node22&#45;&gt;Node23 -->
<g id="edge26" class="edge"><title>Node22&#45;&gt;Node23</title>
<path fill="none" stroke="midnightblue" d="M1038.19,-107.177C1021.08,-97.2407 998.535,-84.1492 983.905,-75.6545"/>
<polygon fill="midnightblue" stroke="midnightblue" points="1036.65,-110.329 1047.06,-112.324 1040.17,-104.276 1036.65,-110.329"/>
</g>
<!-- Node25 -->
<g id="node25" class="node"><title>Node25</title>
<g id="a_node25"><a xlink:href="AIGoTo_8cpp.html" target="_top" xlink:title="Game/src/AIGoTo.cpp">
<polygon fill="white" stroke="black" points="184.5,-56.5 184.5,-75.5 299.5,-75.5 299.5,-56.5 184.5,-56.5"/>
<text text-anchor="middle" x="242" y="-63.5" font-family="Helvetica,sans-Serif" font-size="10.00">Game/src/AIGoTo.cpp</text>
</a>
</g>
</g>
<!-- Node24&#45;&gt;Node25 -->
<g id="edge29" class="edge"><title>Node24&#45;&gt;Node25</title>
<path fill="none" stroke="midnightblue" d="M253.143,-102.396C250.299,-93.362 247.017,-82.936 244.755,-75.7511"/>
<polygon fill="midnightblue" stroke="midnightblue" points="249.851,-103.596 256.193,-112.083 256.528,-101.493 249.851,-103.596"/>
</g>
<!-- Node26&#45;&gt;Node8 -->
<g id="edge32" class="edge"><title>Node26&#45;&gt;Node8</title>
<path fill="none" stroke="midnightblue" d="M384.795,-108.034C359.563,-95.416 330.206,-75.3639 347,-56 378.671,-19.4833 514.241,-11.8633 596.861,-10.697"/>
<polygon fill="midnightblue" stroke="midnightblue" points="383.625,-111.353 394.159,-112.489 386.633,-105.032 383.625,-111.353"/>
</g>
<!-- Node27 -->
<g id="node27" class="node"><title>Node27</title>
<g id="a_node27"><a xlink:href="AIMedic_8cpp.html" target="_top" xlink:title="Game/src/AIMedic.cpp">
<polygon fill="white" stroke="black" points="356.5,-56.5 356.5,-75.5 473.5,-75.5 473.5,-56.5 356.5,-56.5"/>
<text text-anchor="middle" x="415" y="-63.5" font-family="Helvetica,sans-Serif" font-size="10.00">Game/src/AIMedic.cpp</text>
</a>
</g>
</g>
<!-- Node26&#45;&gt;Node27 -->
<g id="edge31" class="edge"><title>Node26&#45;&gt;Node27</title>
<path fill="none" stroke="midnightblue" d="M415,-101.805C415,-92.9102 415,-82.7798 415,-75.7511"/>
<polygon fill="midnightblue" stroke="midnightblue" points="411.5,-102.083 415,-112.083 418.5,-102.083 411.5,-102.083"/>
</g>
<!-- Node28&#45;&gt;Node7 -->
<g id="edge34" class="edge"><title>Node28&#45;&gt;Node7</title>
<path fill="none" stroke="midnightblue" d="M1280.15,-110.791C1343.26,-100.587 1439.18,-85.078 1498.32,-75.5164"/>
<polygon fill="midnightblue" stroke="midnightblue" points="1279.24,-107.392 1269.92,-112.444 1280.35,-114.303 1279.24,-107.392"/>
</g>
<!-- Node29 -->
<g id="node29" class="node"><title>Node29</title>
<g id="a_node29"><a xlink:href="AIPrintPath_8cpp.html" target="_top" xlink:title="Game/src/AIPrintPath.cpp">
<polygon fill="white" stroke="black" points="1151.5,-56.5 1151.5,-75.5 1282.5,-75.5 1282.5,-56.5 1151.5,-56.5"/>
<text text-anchor="middle" x="1217" y="-63.5" font-family="Helvetica,sans-Serif" font-size="10.00">Game/src/AIPrintPath.cpp</text>
</a>
</g>
</g>
<!-- Node28&#45;&gt;Node29 -->
<g id="edge35" class="edge"><title>Node28&#45;&gt;Node29</title>
<path fill="none" stroke="midnightblue" d="M1217,-101.805C1217,-92.9102 1217,-82.7798 1217,-75.7511"/>
<polygon fill="midnightblue" stroke="midnightblue" points="1213.5,-102.083 1217,-112.083 1220.5,-102.083 1213.5,-102.083"/>
</g>
<!-- Node30&#45;&gt;Node8 -->
<g id="edge38" class="edge"><title>Node30&#45;&gt;Node8</title>
<path fill="none" stroke="midnightblue" d="M775.594,-108.789C804.866,-97.2356 837.911,-78.3619 821,-56 808.368,-39.2963 758.428,-27.0087 717.844,-19.5331"/>
<polygon fill="midnightblue" stroke="midnightblue" points="774.028,-105.638 765.89,-112.421 776.482,-112.194 774.028,-105.638"/>
</g>
<!-- Node31 -->
<g id="node31" class="node"><title>Node31</title>
<g id="a_node31"><a xlink:href="AIQuimic_8cpp.html" target="_top" xlink:title="Game/src/AIQuimic.cpp">
<polygon fill="white" stroke="black" points="690,-56.5 690,-75.5 812,-75.5 812,-56.5 690,-56.5"/>
<text text-anchor="middle" x="751" y="-63.5" font-family="Helvetica,sans-Serif" font-size="10.00">Game/src/AIQuimic.cpp</text>
</a>
</g>
</g>
<!-- Node30&#45;&gt;Node31 -->
<g id="edge37" class="edge"><title>Node30&#45;&gt;Node31</title>
<path fill="none" stroke="midnightblue" d="M742.55,-102.101C744.708,-93.1357 747.182,-82.8579 748.893,-75.7511"/>
<polygon fill="midnightblue" stroke="midnightblue" points="739.085,-101.542 740.147,-112.083 745.89,-103.18 739.085,-101.542"/>
</g>
<!-- Node35&#45;&gt;Node7 -->
<g id="edge47" class="edge"><title>Node35&#45;&gt;Node7</title>
<path fill="none" stroke="midnightblue" d="M1478.42,-158.123C1480.88,-144.41 1485.71,-125.899 1495,-112 1505.46,-96.3417 1523.07,-83.4991 1535.75,-75.5983"/>
<polygon fill="midnightblue" stroke="midnightblue" points="1474.91,-157.892 1476.86,-168.306 1481.83,-158.949 1474.91,-157.892"/>
</g>
<!-- Node35&#45;&gt;Node33 -->
<g id="edge48" class="edge"><title>Node35&#45;&gt;Node33</title>
<path fill="none" stroke="midnightblue" d="M1450.91,-163.453C1432.45,-153.483 1407.9,-140.228 1392.03,-131.655"/>
<polygon fill="midnightblue" stroke="midnightblue" points="1449.47,-166.652 1459.93,-168.324 1452.8,-160.493 1449.47,-166.652"/>
</g>
</g>
</svg>
