<?xml version="1.0" encoding="UTF-8" standalone="no"?>
<!DOCTYPE svg PUBLIC "-//W3C//DTD SVG 1.1//EN"
 "http://www.w3.org/Graphics/SVG/1.1/DTD/svg11.dtd">
<!-- Generated by graphviz version 2.36.0 (20140111.2315)
 -->
<!-- Title: Engine/include/Timer.h Pages: 1 -->
<svg width="665pt" height="140pt"
 viewBox="0.00 0.00 665.00 140.00" xmlns="http://www.w3.org/2000/svg" xmlns:xlink="http://www.w3.org/1999/xlink">
<g id="graph0" class="graph" transform="scale(1 1) rotate(0) translate(4 136)">
<title>Engine/include/Timer.h</title>
<polygon fill="white" stroke="none" points="-4,4 -4,-136 661,-136 661,4 -4,4"/>
<!-- Node1 -->
<g id="node1" class="node"><title>Node1</title>
<polygon fill="#bfbfbf" stroke="black" points="347,-112.5 347,-131.5 463,-131.5 463,-112.5 347,-112.5"/>
<text text-anchor="middle" x="405" y="-119.5" font-family="Helvetica,sans-Serif" font-size="10.00">Engine/include/Timer.h</text>
</g>
<!-- Node2 -->
<g id="node2" class="node"><title>Node2</title>
<g id="a_node2"><a xlink:href="Animation_8h.html" target="_top" xlink:title="Engine/include/Animation.h">
<polygon fill="white" stroke="black" points="119.5,-56.5 119.5,-75.5 254.5,-75.5 254.5,-56.5 119.5,-56.5"/>
<text text-anchor="middle" x="187" y="-63.5" font-family="Helvetica,sans-Serif" font-size="10.00">Engine/include/Animation.h</text>
</a>
</g>
</g>
<!-- Node1&#45;&gt;Node2 -->
<g id="edge1" class="edge"><title>Node1&#45;&gt;Node2</title>
<path fill="none" stroke="midnightblue" d="M360.688,-110.024C319.508,-99.8232 259.027,-84.8414 221.381,-75.5164"/>
<polygon fill="midnightblue" stroke="midnightblue" points="359.909,-113.436 370.457,-112.444 361.592,-106.642 359.909,-113.436"/>
</g>
<!-- Node6 -->
<g id="node6" class="node"><title>Node6</title>
<g id="a_node6"><a xlink:href="Timer_8cpp.html" target="_top" xlink:title="Engine/src/Timer.cpp">
<polygon fill="white" stroke="black" points="547,-56.5 547,-75.5 657,-75.5 657,-56.5 547,-56.5"/>
<text text-anchor="middle" x="602" y="-63.5" font-family="Helvetica,sans-Serif" font-size="10.00">Engine/src/Timer.cpp</text>
</a>
</g>
</g>
<!-- Node1&#45;&gt;Node6 -->
<g id="edge5" class="edge"><title>Node1&#45;&gt;Node6</title>
<path fill="none" stroke="midnightblue" d="M446.229,-109.699C483.409,-99.507 537.271,-84.7429 570.931,-75.5164"/>
<polygon fill="midnightblue" stroke="midnightblue" points="444.934,-106.424 436.215,-112.444 446.785,-113.175 444.934,-106.424"/>
</g>
<!-- Node7 -->
<g id="node7" class="node"><title>Node7</title>
<g id="a_node7"><a xlink:href="Alien_8h.html" target="_top" xlink:title="Game/include/Alien.h">
<polygon fill="white" stroke="black" points="419,-56.5 419,-75.5 529,-75.5 529,-56.5 419,-56.5"/>
<text text-anchor="middle" x="474" y="-63.5" font-family="Helvetica,sans-Serif" font-size="10.00">Game/include/Alien.h</text>
</a>
</g>
</g>
<!-- Node1&#45;&gt;Node7 -->
<g id="edge6" class="edge"><title>Node1&#45;&gt;Node7</title>
<path fill="none" stroke="midnightblue" d="M424.038,-106.101C436.456,-96.3824 452.243,-84.0269 462.712,-75.8339"/>
<polygon fill="midnightblue" stroke="midnightblue" points="421.804,-103.405 416.086,-112.324 426.118,-108.917 421.804,-103.405"/>
</g>
<!-- Node9 -->
<g id="node9" class="node"><title>Node9</title>
<g id="a_node9"><a xlink:href="Penguins_8h.html" target="_top" xlink:title="Game/include/Penguins.h">
<polygon fill="white" stroke="black" points="273,-56.5 273,-75.5 401,-75.5 401,-56.5 273,-56.5"/>
<text text-anchor="middle" x="337" y="-63.5" font-family="Helvetica,sans-Serif" font-size="10.00">Game/include/Penguins.h</text>
</a>
</g>
</g>
<!-- Node1&#45;&gt;Node9 -->
<g id="edge9" class="edge"><title>Node1&#45;&gt;Node9</title>
<path fill="none" stroke="midnightblue" d="M386.238,-106.101C374,-96.3824 358.441,-84.0269 348.124,-75.8339"/>
<polygon fill="midnightblue" stroke="midnightblue" points="384.067,-108.846 394.075,-112.324 388.42,-103.364 384.067,-108.846"/>
</g>
<!-- Node3 -->
<g id="node3" class="node"><title>Node3</title>
<g id="a_node3"><a xlink:href="Animation_8cpp.html" target="_top" xlink:title="Engine/src/Animation.cpp">
<polygon fill="white" stroke="black" points="0,-0.5 0,-19.5 128,-19.5 128,-0.5 0,-0.5"/>
<text text-anchor="middle" x="64" y="-7.5" font-family="Helvetica,sans-Serif" font-size="10.00">Engine/src/Animation.cpp</text>
</a>
</g>
</g>
<!-- Node2&#45;&gt;Node3 -->
<g id="edge2" class="edge"><title>Node2&#45;&gt;Node3</title>
<path fill="none" stroke="midnightblue" d="M158.227,-52.3678C135.193,-42.2553 103.516,-28.3486 83.3985,-19.5164"/>
<polygon fill="midnightblue" stroke="midnightblue" points="156.947,-55.6283 167.51,-56.4435 159.761,-49.2188 156.947,-55.6283"/>
</g>
<!-- Node4 -->
<g id="node4" class="node"><title>Node4</title>
<g id="a_node4"><a xlink:href="Alien_8cpp.html" target="_top" xlink:title="Game/src/Alien.cpp">
<polygon fill="white" stroke="black" points="286.5,-0.5 286.5,-19.5 389.5,-19.5 389.5,-0.5 286.5,-0.5"/>
<text text-anchor="middle" x="338" y="-7.5" font-family="Helvetica,sans-Serif" font-size="10.00">Game/src/Alien.cpp</text>
</a>
</g>
</g>
<!-- Node2&#45;&gt;Node4 -->
<g id="edge3" class="edge"><title>Node2&#45;&gt;Node4</title>
<path fill="none" stroke="midnightblue" d="M220.446,-53.0392C248.858,-42.8786 288.937,-28.5457 314.186,-19.5164"/>
<polygon fill="midnightblue" stroke="midnightblue" points="219.164,-49.7806 210.926,-56.4435 221.521,-56.3718 219.164,-49.7806"/>
</g>
<!-- Node5 -->
<g id="node5" class="node"><title>Node5</title>
<g id="a_node5"><a xlink:href="Penguins_8cpp.html" target="_top" xlink:title="Game/src/Penguins.cpp">
<polygon fill="white" stroke="black" points="146,-0.5 146,-19.5 268,-19.5 268,-0.5 146,-0.5"/>
<text text-anchor="middle" x="207" y="-7.5" font-family="Helvetica,sans-Serif" font-size="10.00">Game/src/Penguins.cpp</text>
</a>
</g>
</g>
<!-- Node2&#45;&gt;Node5 -->
<g id="edge4" class="edge"><title>Node2&#45;&gt;Node5</title>
<path fill="none" stroke="midnightblue" d="M193.782,-46.6897C197.152,-37.589 201.069,-27.0141 203.759,-19.7511"/>
<polygon fill="midnightblue" stroke="midnightblue" points="190.494,-45.4899 190.303,-56.083 197.058,-47.9211 190.494,-45.4899"/>
</g>
<!-- Node7&#45;&gt;Node4 -->
<g id="edge7" class="edge"><title>Node7&#45;&gt;Node4</title>
<path fill="none" stroke="midnightblue" d="M442.865,-52.6377C417.343,-42.504 381.891,-28.4274 359.449,-19.5164"/>
<polygon fill="midnightblue" stroke="midnightblue" points="441.865,-56.0061 452.45,-56.4435 444.448,-49.5002 441.865,-56.0061"/>
</g>
<!-- Node8 -->
<g id="node8" class="node"><title>Node8</title>
<g id="a_node8"><a xlink:href="StageState_8cpp.html" target="_top" xlink:title="Game/src/StageState.cpp">
<polygon fill="white" stroke="black" points="408,-0.5 408,-19.5 538,-19.5 538,-0.5 408,-0.5"/>
<text text-anchor="middle" x="473" y="-7.5" font-family="Helvetica,sans-Serif" font-size="10.00">Game/src/StageState.cpp</text>
</a>
</g>
</g>
<!-- Node7&#45;&gt;Node8 -->
<g id="edge8" class="edge"><title>Node7&#45;&gt;Node8</title>
<path fill="none" stroke="midnightblue" d="M473.645,-45.8045C473.48,-36.9102 473.292,-26.7798 473.162,-19.7511"/>
<polygon fill="midnightblue" stroke="midnightblue" points="470.15,-46.1495 473.835,-56.083 477.149,-46.0199 470.15,-46.1495"/>
</g>
<!-- Node9&#45;&gt;Node4 -->
<g id="edge10" class="edge"><title>Node9&#45;&gt;Node4</title>
<path fill="none" stroke="midnightblue" d="M337.355,-45.8045C337.52,-36.9102 337.708,-26.7798 337.838,-19.7511"/>
<polygon fill="midnightblue" stroke="midnightblue" points="333.851,-46.0199 337.165,-56.083 340.85,-46.1495 333.851,-46.0199"/>
</g>
<!-- Node9&#45;&gt;Node5 -->
<g id="edge11" class="edge"><title>Node9&#45;&gt;Node5</title>
<path fill="none" stroke="midnightblue" d="M306.915,-52.503C282.543,-42.3795 248.86,-28.388 227.503,-19.5164"/>
<polygon fill="midnightblue" stroke="midnightblue" points="305.823,-55.8397 316.401,-56.4435 308.509,-49.3752 305.823,-55.8397"/>
</g>
<!-- Node9&#45;&gt;Node8 -->
<g id="edge12" class="edge"><title>Node9&#45;&gt;Node8</title>
<path fill="none" stroke="midnightblue" d="M368.135,-52.6377C393.657,-42.504 429.109,-28.4274 451.551,-19.5164"/>
<polygon fill="midnightblue" stroke="midnightblue" points="366.552,-49.5002 358.55,-56.4435 369.135,-56.0061 366.552,-49.5002"/>
</g>
</g>
</svg>
