<?xml version="1.0" encoding="UTF-8" standalone="no"?>
<!DOCTYPE svg PUBLIC "-//W3C//DTD SVG 1.1//EN"
 "http://www.w3.org/Graphics/SVG/1.1/DTD/svg11.dtd">
<!-- Generated by graphviz version 2.36.0 (20140111.2315)
 -->
<!-- Title: Engine/include/Timer.h Pages: 1 -->
<svg width="978pt" height="252pt"
 viewBox="0.00 0.00 978.26 252.00" xmlns="http://www.w3.org/2000/svg" xmlns:xlink="http://www.w3.org/1999/xlink">
<g id="graph0" class="graph" transform="scale(1 1) rotate(0) translate(4 248)">
<title>Engine/include/Timer.h</title>
<polygon fill="white" stroke="none" points="-4,4 -4,-248 974.264,-248 974.264,4 -4,4"/>
<!-- Node1 -->
<g id="node1" class="node"><title>Node1</title>
<polygon fill="#bfbfbf" stroke="black" points="401,-224.5 401,-243.5 517,-243.5 517,-224.5 401,-224.5"/>
<text text-anchor="middle" x="459" y="-231.5" font-family="Helvetica,sans-Serif" font-size="10.00">Engine/include/Timer.h</text>
</g>
<!-- Node2 -->
<g id="node2" class="node"><title>Node2</title>
<g id="a_node2"><a xlink:href="Animation_8h.html" target="_top" xlink:title="Engine/include/Animation.h">
<polygon fill="white" stroke="black" points="60.5,-168.5 60.5,-187.5 195.5,-187.5 195.5,-168.5 60.5,-168.5"/>
<text text-anchor="middle" x="128" y="-175.5" font-family="Helvetica,sans-Serif" font-size="10.00">Engine/include/Animation.h</text>
</a>
</g>
</g>
<!-- Node1&#45;&gt;Node2 -->
<g id="edge1" class="edge"><title>Node1&#45;&gt;Node2</title>
<path fill="none" stroke="midnightblue" d="M396.421,-222.791C333.876,-212.587 238.812,-197.078 180.203,-187.516"/>
<polygon fill="midnightblue" stroke="midnightblue" points="396.119,-226.288 406.552,-224.444 397.246,-219.379 396.119,-226.288"/>
</g>
<!-- Node4 -->
<g id="node4" class="node"><title>Node4</title>
<g id="a_node4"><a xlink:href="Text_8h.html" target="_top" xlink:title="Engine/include/Text.h">
<polygon fill="white" stroke="black" points="276.5,-168.5 276.5,-187.5 387.5,-187.5 387.5,-168.5 276.5,-168.5"/>
<text text-anchor="middle" x="332" y="-175.5" font-family="Helvetica,sans-Serif" font-size="10.00">Engine/include/Text.h</text>
</a>
</g>
</g>
<!-- Node1&#45;&gt;Node4 -->
<g id="edge3" class="edge"><title>Node1&#45;&gt;Node4</title>
<path fill="none" stroke="midnightblue" d="M429.609,-220.503C405.8,-210.38 372.894,-196.388 352.029,-187.516"/>
<polygon fill="midnightblue" stroke="midnightblue" points="428.304,-223.751 438.876,-224.444 431.043,-217.31 428.304,-223.751"/>
</g>
<!-- Node7 -->
<g id="node7" class="node"><title>Node7</title>
<g id="a_node7"><a xlink:href="StageState_8h.html" target="_top" xlink:title="Game/include/StageState.h">
<polygon fill="white" stroke="black" points="367.5,-56.5 367.5,-75.5 504.5,-75.5 504.5,-56.5 367.5,-56.5"/>
<text text-anchor="middle" x="436" y="-63.5" font-family="Helvetica,sans-Serif" font-size="10.00">Game/include/StageState.h</text>
</a>
</g>
</g>
<!-- Node1&#45;&gt;Node7 -->
<g id="edge12" class="edge"><title>Node1&#45;&gt;Node7</title>
<path fill="none" stroke="midnightblue" d="M455.758,-214.34C452.309,-194.101 446.832,-160.821 443,-132 440.337,-111.973 437.993,-88.3714 436.812,-75.8481"/>
<polygon fill="midnightblue" stroke="midnightblue" points="452.34,-215.113 457.485,-224.375 459.238,-213.926 452.34,-215.113"/>
</g>
<!-- Node11 -->
<g id="node11" class="node"><title>Node11</title>
<g id="a_node11"><a xlink:href="Timer_8cpp.html" target="_top" xlink:title="Engine/src/Timer.cpp">
<polygon fill="white" stroke="black" points="764,-168.5 764,-187.5 874,-187.5 874,-168.5 764,-168.5"/>
<text text-anchor="middle" x="819" y="-175.5" font-family="Helvetica,sans-Serif" font-size="10.00">Engine/src/Timer.cpp</text>
</a>
</g>
</g>
<!-- Node1&#45;&gt;Node11 -->
<g id="edge11" class="edge"><title>Node1&#45;&gt;Node11</title>
<path fill="none" stroke="midnightblue" d="M526.315,-222.903C594.959,-212.606 700.178,-196.823 763.995,-187.251"/>
<polygon fill="midnightblue" stroke="midnightblue" points="525.413,-219.499 516.043,-224.444 526.452,-226.421 525.413,-219.499"/>
</g>
<!-- Node12 -->
<g id="node12" class="node"><title>Node12</title>
<g id="a_node12"><a xlink:href="WaveManager_8h.html" target="_top" xlink:title="Game/include/WaveManager.h">
<polygon fill="white" stroke="black" points="452.5,-112.5 452.5,-131.5 603.5,-131.5 603.5,-112.5 452.5,-112.5"/>
<text text-anchor="middle" x="528" y="-119.5" font-family="Helvetica,sans-Serif" font-size="10.00">Game/include/WaveManager.h</text>
</a>
</g>
</g>
<!-- Node1&#45;&gt;Node12 -->
<g id="edge13" class="edge"><title>Node1&#45;&gt;Node12</title>
<path fill="none" stroke="midnightblue" d="M469.89,-215.64C484.879,-191.744 511.297,-149.629 522.611,-131.591"/>
<polygon fill="midnightblue" stroke="midnightblue" points="466.763,-214.037 464.414,-224.368 472.693,-217.757 466.763,-214.037"/>
</g>
<!-- Node14 -->
<g id="node14" class="node"><title>Node14</title>
<g id="a_node14"><a xlink:href="Enemy_8h.html" target="_top" xlink:title="Game/include/Enemy.h">
<polygon fill="white" stroke="black" points="626.5,-168.5 626.5,-187.5 745.5,-187.5 745.5,-168.5 626.5,-168.5"/>
<text text-anchor="middle" x="686" y="-175.5" font-family="Helvetica,sans-Serif" font-size="10.00">Game/include/Enemy.h</text>
</a>
</g>
</g>
<!-- Node1&#45;&gt;Node14 -->
<g id="edge16" class="edge"><title>Node1&#45;&gt;Node14</title>
<path fill="none" stroke="midnightblue" d="M504.869,-222.088C547.755,-211.887 610.917,-196.861 650.199,-187.516"/>
<polygon fill="midnightblue" stroke="midnightblue" points="503.887,-218.724 494.969,-224.444 505.507,-225.534 503.887,-218.724"/>
</g>
<!-- Node3 -->
<g id="node3" class="node"><title>Node3</title>
<g id="a_node3"><a xlink:href="Animation_8cpp.html" target="_top" xlink:title="Engine/src/Animation.cpp">
<polygon fill="white" stroke="black" points="0,-112.5 0,-131.5 128,-131.5 128,-112.5 0,-112.5"/>
<text text-anchor="middle" x="64" y="-119.5" font-family="Helvetica,sans-Serif" font-size="10.00">Engine/src/Animation.cpp</text>
</a>
</g>
</g>
<!-- Node2&#45;&gt;Node3 -->
<g id="edge2" class="edge"><title>Node2&#45;&gt;Node3</title>
<path fill="none" stroke="midnightblue" d="M110.009,-161.82C98.5424,-152.145 84.0867,-139.948 74.4698,-131.834"/>
<polygon fill="midnightblue" stroke="midnightblue" points="107.817,-164.55 117.717,-168.324 112.331,-159.2 107.817,-164.55"/>
</g>
<!-- Node5 -->
<g id="node5" class="node"><title>Node5</title>
<g id="a_node5"><a xlink:href="Text_8cpp.html" target="_top" xlink:title="Engine/src/Text.cpp">
<polygon fill="white" stroke="black" points="146,-112.5 146,-131.5 250,-131.5 250,-112.5 146,-112.5"/>
<text text-anchor="middle" x="198" y="-119.5" font-family="Helvetica,sans-Serif" font-size="10.00">Engine/src/Text.cpp</text>
</a>
</g>
</g>
<!-- Node4&#45;&gt;Node5 -->
<g id="edge4" class="edge"><title>Node4&#45;&gt;Node5</title>
<path fill="none" stroke="midnightblue" d="M301.323,-164.638C276.177,-154.504 241.246,-140.427 219.133,-131.516"/>
<polygon fill="midnightblue" stroke="midnightblue" points="300.184,-167.952 310.767,-168.444 302.8,-161.459 300.184,-167.952"/>
</g>
<!-- Node6 -->
<g id="node6" class="node"><title>Node6</title>
<g id="a_node6"><a xlink:href="EndState_8h.html" target="_top" xlink:title="Game/include/EndState.h">
<polygon fill="white" stroke="black" points="268,-112.5 268,-131.5 396,-131.5 396,-112.5 268,-112.5"/>
<text text-anchor="middle" x="332" y="-119.5" font-family="Helvetica,sans-Serif" font-size="10.00">Game/include/EndState.h</text>
</a>
</g>
</g>
<!-- Node4&#45;&gt;Node6 -->
<g id="edge5" class="edge"><title>Node4&#45;&gt;Node6</title>
<path fill="none" stroke="midnightblue" d="M332,-157.805C332,-148.91 332,-138.78 332,-131.751"/>
<polygon fill="midnightblue" stroke="midnightblue" points="328.5,-158.083 332,-168.083 335.5,-158.083 328.5,-158.083"/>
</g>
<!-- Node6&#45;&gt;Node7 -->
<g id="edge6" class="edge"><title>Node6&#45;&gt;Node7</title>
<path fill="none" stroke="midnightblue" d="M352.644,-107.177C370.516,-97.2407 396.018,-84.1492 414.222,-75.6545"/>
<polygon fill="midnightblue" stroke="midnightblue" points="350.557,-104.338 343.595,-112.324 354.017,-110.423 350.557,-104.338"/>
</g>
<!-- Node10 -->
<g id="node10" class="node"><title>Node10</title>
<g id="a_node10"><a xlink:href="EndState_8cpp.html" target="_top" xlink:title="Game/src/EndState.cpp">
<polygon fill="white" stroke="black" points="227,-56.5 227,-75.5 349,-75.5 349,-56.5 227,-56.5"/>
<text text-anchor="middle" x="288" y="-63.5" font-family="Helvetica,sans-Serif" font-size="10.00">Game/src/EndState.cpp</text>
</a>
</g>
</g>
<!-- Node6&#45;&gt;Node10 -->
<g id="edge10" class="edge"><title>Node6&#45;&gt;Node10</title>
<path fill="none" stroke="midnightblue" d="M318.265,-104.144C310.599,-94.7357 301.367,-83.4046 295.131,-75.7511"/>
<polygon fill="midnightblue" stroke="midnightblue" points="315.704,-106.541 324.734,-112.083 321.131,-102.12 315.704,-106.541"/>
</g>
<!-- Node7&#45;&gt;Node6 -->
<g id="edge7" class="edge"><title>Node7&#45;&gt;Node6</title>
<path fill="none" stroke="midnightblue" d="M415.607,-80.6829C397.655,-90.6745 371.87,-103.912 353.568,-112.444"/>
<polygon fill="midnightblue" stroke="midnightblue" points="417.721,-83.5071 424.678,-75.5164 414.256,-77.4246 417.721,-83.5071"/>
</g>
<!-- Node8 -->
<g id="node8" class="node"><title>Node8</title>
<g id="a_node8"><a xlink:href="StageState_8cpp.html" target="_top" xlink:title="Game/src/StageState.cpp">
<polygon fill="white" stroke="black" points="721,-0.5 721,-19.5 851,-19.5 851,-0.5 721,-0.5"/>
<text text-anchor="middle" x="786" y="-7.5" font-family="Helvetica,sans-Serif" font-size="10.00">Game/src/StageState.cpp</text>
</a>
</g>
</g>
<!-- Node7&#45;&gt;Node8 -->
<g id="edge8" class="edge"><title>Node7&#45;&gt;Node8</title>
<path fill="none" stroke="midnightblue" d="M501.355,-54.9166C567.477,-44.715 668.572,-29.1174 730.801,-19.5164"/>
<polygon fill="midnightblue" stroke="midnightblue" points="500.808,-51.4596 491.459,-56.4435 501.875,-58.3777 500.808,-51.4596"/>
</g>
<!-- Node9 -->
<g id="node9" class="node"><title>Node9</title>
<g id="a_node9"><a xlink:href="TitleState_8cpp.html" target="_top" xlink:title="Game/src/TitleState.cpp">
<polygon fill="white" stroke="black" points="374.5,-0.5 374.5,-19.5 497.5,-19.5 497.5,-0.5 374.5,-0.5"/>
<text text-anchor="middle" x="436" y="-7.5" font-family="Helvetica,sans-Serif" font-size="10.00">Game/src/TitleState.cpp</text>
</a>
</g>
</g>
<!-- Node7&#45;&gt;Node9 -->
<g id="edge9" class="edge"><title>Node7&#45;&gt;Node9</title>
<path fill="none" stroke="midnightblue" d="M436,-45.8045C436,-36.9102 436,-26.7798 436,-19.7511"/>
<polygon fill="midnightblue" stroke="midnightblue" points="432.5,-46.083 436,-56.083 439.5,-46.083 432.5,-46.083"/>
</g>
<!-- Node12&#45;&gt;Node7 -->
<g id="edge14" class="edge"><title>Node12&#45;&gt;Node7</title>
<path fill="none" stroke="midnightblue" d="M504.45,-107.177C487.521,-97.2407 465.217,-84.1492 450.745,-75.6545"/>
<polygon fill="midnightblue" stroke="midnightblue" points="502.823,-110.28 513.219,-112.324 506.366,-104.243 502.823,-110.28"/>
</g>
<!-- Node13 -->
<g id="node13" class="node"><title>Node13</title>
<g id="a_node13"><a xlink:href="WaveManager_8cpp.html" target="_top" xlink:title="Game/src/WaveManager.cpp">
<polygon fill="white" stroke="black" points="536,-56.5 536,-75.5 680,-75.5 680,-56.5 536,-56.5"/>
<text text-anchor="middle" x="608" y="-63.5" font-family="Helvetica,sans-Serif" font-size="10.00">Game/src/WaveManager.cpp</text>
</a>
</g>
</g>
<!-- Node12&#45;&gt;Node13 -->
<g id="edge15" class="edge"><title>Node12&#45;&gt;Node13</title>
<path fill="none" stroke="midnightblue" d="M549.301,-106.622C563.915,-96.7574 582.827,-83.9919 595.179,-75.6545"/>
<polygon fill="midnightblue" stroke="midnightblue" points="547.184,-103.828 540.853,-112.324 551.1,-109.63 547.184,-103.828"/>
</g>
<!-- Node14&#45;&gt;Node8 -->
<g id="edge21" class="edge"><title>Node14&#45;&gt;Node8</title>
<path fill="none" stroke="midnightblue" d="M755.922,-167.796C834.894,-157.065 953.374,-139.803 960,-132 1005.97,-77.8698 883.726,-36.5844 820.778,-19.5426"/>
<polygon fill="midnightblue" stroke="midnightblue" points="754.979,-164.392 745.538,-169.201 755.917,-171.329 754.979,-164.392"/>
</g>
<!-- Node14&#45;&gt;Node13 -->
<g id="edge22" class="edge"><title>Node14&#45;&gt;Node13</title>
<path fill="none" stroke="midnightblue" d="M673.235,-160.534C666.766,-152.082 658.851,-141.575 652,-132 637.727,-112.052 621.772,-88.0207 613.557,-75.5104"/>
<polygon fill="midnightblue" stroke="midnightblue" points="670.474,-162.684 679.348,-168.472 676.02,-158.413 670.474,-162.684"/>
</g>
<!-- Node15 -->
<g id="node15" class="node"><title>Node15</title>
<g id="a_node15"><a xlink:href="GameResources_8h.html" target="_top" xlink:title="Game/include/GameResources.h">
<polygon fill="white" stroke="black" points="660.5,-112.5 660.5,-131.5 821.5,-131.5 821.5,-112.5 660.5,-112.5"/>
<text text-anchor="middle" x="741" y="-119.5" font-family="Helvetica,sans-Serif" font-size="10.00">Game/include/GameResources.h</text>
</a>
</g>
</g>
<!-- Node14&#45;&gt;Node15 -->
<g id="edge17" class="edge"><title>Node14&#45;&gt;Node15</title>
<path fill="none" stroke="midnightblue" d="M702.294,-161.002C712.041,-151.433 724.053,-139.639 732.087,-131.751"/>
<polygon fill="midnightblue" stroke="midnightblue" points="699.766,-158.58 695.082,-168.083 704.67,-163.575 699.766,-158.58"/>
</g>
<!-- Node17 -->
<g id="node17" class="node"><title>Node17</title>
<g id="a_node17"><a xlink:href="Enemy_8cpp.html" target="_top" xlink:title="Game/src/Enemy.cpp">
<polygon fill="white" stroke="black" points="840,-112.5 840,-131.5 952,-131.5 952,-112.5 840,-112.5"/>
<text text-anchor="middle" x="896" y="-119.5" font-family="Helvetica,sans-Serif" font-size="10.00">Game/src/Enemy.cpp</text>
</a>
</g>
</g>
<!-- Node14&#45;&gt;Node17 -->
<g id="edge20" class="edge"><title>Node14&#45;&gt;Node17</title>
<path fill="none" stroke="midnightblue" d="M729.19,-165.894C768.847,-155.697 826.77,-140.802 862.881,-131.516"/>
<polygon fill="midnightblue" stroke="midnightblue" points="728.088,-162.563 719.275,-168.444 729.832,-169.343 728.088,-162.563"/>
</g>
<!-- Node15&#45;&gt;Node13 -->
<g id="edge19" class="edge"><title>Node15&#45;&gt;Node13</title>
<path fill="none" stroke="midnightblue" d="M710.552,-108.638C685.593,-98.504 650.923,-84.4274 628.976,-75.5164"/>
<polygon fill="midnightblue" stroke="midnightblue" points="709.344,-111.924 719.926,-112.444 711.977,-105.439 709.344,-111.924"/>
</g>
<!-- Node16 -->
<g id="node16" class="node"><title>Node16</title>
<g id="a_node16"><a xlink:href="GameResources_8cpp.html" target="_top" xlink:title="Game/src/GameResources.cpp">
<polygon fill="white" stroke="black" points="698.5,-56.5 698.5,-75.5 853.5,-75.5 853.5,-56.5 698.5,-56.5"/>
<text text-anchor="middle" x="776" y="-63.5" font-family="Helvetica,sans-Serif" font-size="10.00">Game/src/GameResources.cpp</text>
</a>
</g>
</g>
<!-- Node15&#45;&gt;Node16 -->
<g id="edge18" class="edge"><title>Node15&#45;&gt;Node16</title>
<path fill="none" stroke="midnightblue" d="M752.3,-103.566C758.322,-94.2747 765.469,-83.2484 770.328,-75.7511"/>
<polygon fill="midnightblue" stroke="midnightblue" points="749.281,-101.788 746.78,-112.083 755.156,-105.595 749.281,-101.788"/>
</g>
</g>
</svg>
