<?xml version="1.0" encoding="UTF-8" standalone="no"?>
<!DOCTYPE svg PUBLIC "-//W3C//DTD SVG 1.1//EN"
 "http://www.w3.org/Graphics/SVG/1.1/DTD/svg11.dtd">
<!-- Generated by graphviz version 2.38.0 (20140413.2041)
 -->
<!-- Title: Game/include/TitleState.h Pages: 1 -->
<svg width="648pt" height="252pt"
 viewBox="0.00 0.00 647.50 252.00" xmlns="http://www.w3.org/2000/svg" xmlns:xlink="http://www.w3.org/1999/xlink">
<g id="graph0" class="graph" transform="scale(1 1) rotate(0) translate(4 248)">
<title>Game/include/TitleState.h</title>
<polygon fill="white" stroke="none" points="-4,4 -4,-248 643.5,-248 643.5,4 -4,4"/>
<!-- Node0 -->
<g id="node1" class="node"><title>Node0</title>
<polygon fill="#bfbfbf" stroke="black" points="284,-224.5 284,-243.5 414,-243.5 414,-224.5 284,-224.5"/>
<text text-anchor="middle" x="349" y="-231.5" font-family="Helvetica,sans-Serif" font-size="10.00">Game/include/TitleState.h</text>
</g>
<!-- Node1 -->
<g id="node2" class="node"><title>Node1</title>
<g id="a_node2"><a xlink:href="State_8h.html" target="_top" xlink:title="State.h">
<polygon fill="white" stroke="black" points="194,-168.5 194,-187.5 242,-187.5 242,-168.5 194,-168.5"/>
<text text-anchor="middle" x="218" y="-175.5" font-family="Helvetica,sans-Serif" font-size="10.00">State.h</text>
</a>
</g>
</g>
<!-- Node0&#45;&gt;Node1 -->
<g id="edge1" class="edge"><title>Node0&#45;&gt;Node1</title>
<path fill="none" stroke="midnightblue" d="M328.243,-224.444C306.684,-215.557 272.737,-201.563 248.206,-191.451"/>
<polygon fill="midnightblue" stroke="midnightblue" points="249.239,-188.092 238.66,-187.516 246.572,-194.563 249.239,-188.092"/>
</g>
<!-- Node11 -->
<g id="node12" class="node"><title>Node11</title>
<g id="a_node12"><a xlink:href="Sprite_8h.html" target="_top" xlink:title="Sprite.h">
<polygon fill="white" stroke="black" points="324,-112.5 324,-131.5 374,-131.5 374,-112.5 324,-112.5"/>
<text text-anchor="middle" x="349" y="-119.5" font-family="Helvetica,sans-Serif" font-size="10.00">Sprite.h</text>
</a>
</g>
</g>
<!-- Node0&#45;&gt;Node11 -->
<g id="edge15" class="edge"><title>Node0&#45;&gt;Node11</title>
<path fill="none" stroke="midnightblue" d="M349,-224.368C349,-206.617 349,-165.666 349,-141.597"/>
<polygon fill="midnightblue" stroke="midnightblue" points="352.5,-141.591 349,-131.591 345.5,-141.591 352.5,-141.591"/>
</g>
<!-- Node13 -->
<g id="node14" class="node"><title>Node13</title>
<g id="a_node14"><a xlink:href="ActionManager_8h.html" target="_top" xlink:title="ActionManager.h">
<polygon fill="white" stroke="black" points="417,-168.5 417,-187.5 507,-187.5 507,-168.5 417,-168.5"/>
<text text-anchor="middle" x="462" y="-175.5" font-family="Helvetica,sans-Serif" font-size="10.00">ActionManager.h</text>
</a>
</g>
</g>
<!-- Node0&#45;&gt;Node13 -->
<g id="edge19" class="edge"><title>Node0&#45;&gt;Node13</title>
<path fill="none" stroke="midnightblue" d="M366.905,-224.444C385.254,-215.675 414.005,-201.935 435.094,-191.858"/>
<polygon fill="midnightblue" stroke="midnightblue" points="436.665,-194.986 444.179,-187.516 433.647,-188.67 436.665,-194.986"/>
</g>
<!-- Node2 -->
<g id="node3" class="node"><title>Node2</title>
<g id="a_node3"><a xlink:href="GameObject_8h.html" target="_top" xlink:title="GameObject.h">
<polygon fill="white" stroke="black" points="129,-112.5 129,-131.5 209,-131.5 209,-112.5 129,-112.5"/>
<text text-anchor="middle" x="169" y="-119.5" font-family="Helvetica,sans-Serif" font-size="10.00">GameObject.h</text>
</a>
</g>
</g>
<!-- Node1&#45;&gt;Node2 -->
<g id="edge2" class="edge"><title>Node1&#45;&gt;Node2</title>
<path fill="none" stroke="midnightblue" d="M209.909,-168.083C202.845,-160.298 192.412,-148.801 183.851,-139.367"/>
<polygon fill="midnightblue" stroke="midnightblue" points="186.253,-136.805 176.941,-131.751 181.069,-141.509 186.253,-136.805"/>
</g>
<!-- Node3 -->
<g id="node4" class="node"><title>Node3</title>
<polygon fill="white" stroke="#bfbfbf" points="0,-56.5 0,-75.5 44,-75.5 44,-56.5 0,-56.5"/>
<text text-anchor="middle" x="22" y="-63.5" font-family="Helvetica,sans-Serif" font-size="10.00">vector</text>
</g>
<!-- Node1&#45;&gt;Node3 -->
<g id="edge13" class="edge"><title>Node1&#45;&gt;Node3</title>
<path fill="none" stroke="midnightblue" d="M196.889,-168.431C176.722,-159.985 145.681,-146.299 120,-132 91.9744,-116.395 61.4354,-95.461 42.0247,-81.6171"/>
<polygon fill="midnightblue" stroke="midnightblue" points="43.8552,-78.6224 33.6939,-75.6225 39.7667,-84.3043 43.8552,-78.6224"/>
</g>
<!-- Node4 -->
<g id="node5" class="node"><title>Node4</title>
<polygon fill="white" stroke="#bfbfbf" points="258,-56.5 258,-75.5 310,-75.5 310,-56.5 258,-56.5"/>
<text text-anchor="middle" x="284" y="-63.5" font-family="Helvetica,sans-Serif" font-size="10.00">memory</text>
</g>
<!-- Node1&#45;&gt;Node4 -->
<g id="edge14" class="edge"><title>Node1&#45;&gt;Node4</title>
<path fill="none" stroke="midnightblue" d="M223.179,-168.368C234.023,-150.296 259.294,-108.176 273.616,-84.3074"/>
<polygon fill="midnightblue" stroke="midnightblue" points="276.701,-85.9671 278.845,-75.5914 270.699,-82.3656 276.701,-85.9671"/>
</g>
<!-- Node2&#45;&gt;Node3 -->
<g id="edge3" class="edge"><title>Node2&#45;&gt;Node3</title>
<path fill="none" stroke="midnightblue" d="M145.707,-112.444C120.904,-103.332 81.4891,-88.8531 53.8306,-78.6929"/>
<polygon fill="midnightblue" stroke="midnightblue" points="54.8149,-75.3258 44.2214,-75.1629 52.4012,-81.8965 54.8149,-75.3258"/>
</g>
<!-- Node2&#45;&gt;Node4 -->
<g id="edge4" class="edge"><title>Node2&#45;&gt;Node4</title>
<path fill="none" stroke="midnightblue" d="M187.222,-112.444C205.896,-103.675 235.156,-89.9355 256.617,-79.8579"/>
<polygon fill="midnightblue" stroke="midnightblue" points="258.299,-82.935 265.863,-75.5164 255.324,-76.5988 258.299,-82.935"/>
</g>
<!-- Node5 -->
<g id="node6" class="node"><title>Node5</title>
<g id="a_node6"><a xlink:href="Rect_8h.html" target="_top" xlink:title="Rect.h">
<polygon fill="white" stroke="black" points="194,-56.5 194,-75.5 240,-75.5 240,-56.5 194,-56.5"/>
<text text-anchor="middle" x="217" y="-63.5" font-family="Helvetica,sans-Serif" font-size="10.00">Rect.h</text>
</a>
</g>
</g>
<!-- Node2&#45;&gt;Node5 -->
<g id="edge5" class="edge"><title>Node2&#45;&gt;Node5</title>
<path fill="none" stroke="midnightblue" d="M176.926,-112.083C183.846,-104.298 194.065,-92.8015 202.452,-83.3665"/>
<polygon fill="midnightblue" stroke="midnightblue" points="205.194,-85.5505 209.221,-75.7511 199.962,-80.8999 205.194,-85.5505"/>
</g>
<!-- Node8 -->
<g id="node9" class="node"><title>Node8</title>
<polygon fill="white" stroke="#bfbfbf" points="328.5,-56.5 328.5,-75.5 369.5,-75.5 369.5,-56.5 328.5,-56.5"/>
<text text-anchor="middle" x="349" y="-63.5" font-family="Helvetica,sans-Serif" font-size="10.00">string</text>
</g>
<!-- Node2&#45;&gt;Node8 -->
<g id="edge8" class="edge"><title>Node2&#45;&gt;Node8</title>
<path fill="none" stroke="midnightblue" d="M197.522,-112.444C230.582,-102.525 284.842,-86.2473 318.658,-76.1025"/>
<polygon fill="midnightblue" stroke="midnightblue" points="319.878,-79.3908 328.45,-73.1649 317.866,-72.686 319.878,-79.3908"/>
</g>
<!-- Node9 -->
<g id="node10" class="node"><title>Node9</title>
<g id="a_node10"><a xlink:href="ComponentType_8h.html" target="_top" xlink:title="ComponentType.h">
<polygon fill="white" stroke="black" points="51.5,-0.5 51.5,-19.5 148.5,-19.5 148.5,-0.5 51.5,-0.5"/>
<text text-anchor="middle" x="100" y="-7.5" font-family="Helvetica,sans-Serif" font-size="10.00">ComponentType.h</text>
</a>
</g>
</g>
<!-- Node2&#45;&gt;Node9 -->
<g id="edge9" class="edge"><title>Node2&#45;&gt;Node9</title>
<path fill="none" stroke="midnightblue" d="M139.879,-112.441C122.357,-105.62 101.477,-94.1408 91,-76 82.7365,-61.6924 86.7246,-42.7341 91.7347,-28.9867"/>
<polygon fill="midnightblue" stroke="midnightblue" points="95.0069,-30.2324 95.5793,-19.653 88.5344,-27.5663 95.0069,-30.2324"/>
</g>
<!-- Node10 -->
<g id="node11" class="node"><title>Node10</title>
<g id="a_node11"><a xlink:href="Component_8h.html" target="_top" xlink:title="Component.h">
<polygon fill="white" stroke="black" points="100.5,-56.5 100.5,-75.5 175.5,-75.5 175.5,-56.5 100.5,-56.5"/>
<text text-anchor="middle" x="138" y="-63.5" font-family="Helvetica,sans-Serif" font-size="10.00">Component.h</text>
</a>
</g>
</g>
<!-- Node2&#45;&gt;Node10 -->
<g id="edge10" class="edge"><title>Node2&#45;&gt;Node10</title>
<path fill="none" stroke="midnightblue" d="M158.715,-112.083C152.974,-104.77 146.479,-94.1814 141.98,-85.1034"/>
<polygon fill="midnightblue" stroke="midnightblue" points="145.104,-83.5129 137.893,-75.7511 138.69,-86.3159 145.104,-83.5129"/>
</g>
<!-- Node6 -->
<g id="node7" class="node"><title>Node6</title>
<g id="a_node7"><a xlink:href="Vec2_8h.html" target="_top" xlink:title="Vec2.h">
<polygon fill="white" stroke="black" points="380.5,-0.5 380.5,-19.5 427.5,-19.5 427.5,-0.5 380.5,-0.5"/>
<text text-anchor="middle" x="404" y="-7.5" font-family="Helvetica,sans-Serif" font-size="10.00">Vec2.h</text>
</a>
</g>
</g>
<!-- Node5&#45;&gt;Node6 -->
<g id="edge6" class="edge"><title>Node5&#45;&gt;Node6</title>
<path fill="none" stroke="midnightblue" d="M240.306,-58.27C273.06,-48.8115 332.899,-31.5318 370.444,-20.6901"/>
<polygon fill="midnightblue" stroke="midnightblue" points="371.764,-23.9518 380.401,-17.8148 369.822,-17.2266 371.764,-23.9518"/>
</g>
<!-- Node7 -->
<g id="node8" class="node"><title>Node7</title>
<polygon fill="white" stroke="#bfbfbf" points="195,-0.5 195,-19.5 239,-19.5 239,-0.5 195,-0.5"/>
<text text-anchor="middle" x="217" y="-7.5" font-family="Helvetica,sans-Serif" font-size="10.00">cmath</text>
</g>
<!-- Node5&#45;&gt;Node7 -->
<g id="edge7" class="edge"><title>Node5&#45;&gt;Node7</title>
<path fill="none" stroke="midnightblue" d="M217,-56.083C217,-49.0059 217,-38.8611 217,-29.9865"/>
<polygon fill="midnightblue" stroke="midnightblue" points="220.5,-29.751 217,-19.7511 213.5,-29.7511 220.5,-29.751"/>
</g>
<!-- Node10&#45;&gt;Node2 -->
<g id="edge12" class="edge"><title>Node10&#45;&gt;Node2</title>
<path fill="none" stroke="midnightblue" d="M148.155,-75.7511C153.884,-83.0141 160.388,-93.589 164.918,-102.69"/>
<polygon fill="midnightblue" stroke="midnightblue" points="161.819,-104.337 169.047,-112.083 168.227,-101.52 161.819,-104.337"/>
</g>
<!-- Node10&#45;&gt;Node9 -->
<g id="edge11" class="edge"><title>Node10&#45;&gt;Node9</title>
<path fill="none" stroke="midnightblue" d="M131.725,-56.083C126.358,-48.4554 118.482,-37.2645 111.921,-27.9408"/>
<polygon fill="midnightblue" stroke="midnightblue" points="114.775,-25.9149 106.158,-19.7511 109.051,-29.9434 114.775,-25.9149"/>
</g>
<!-- Node11&#45;&gt;Node4 -->
<g id="edge18" class="edge"><title>Node11&#45;&gt;Node4</title>
<path fill="none" stroke="midnightblue" d="M338.557,-112.324C328.854,-104.263 314.185,-92.0765 302.5,-82.3695"/>
<polygon fill="midnightblue" stroke="midnightblue" points="304.562,-79.532 294.633,-75.8339 300.089,-84.9163 304.562,-79.532"/>
</g>
<!-- Node11&#45;&gt;Node8 -->
<g id="edge17" class="edge"><title>Node11&#45;&gt;Node8</title>
<path fill="none" stroke="midnightblue" d="M349,-112.083C349,-105.006 349,-94.8611 349,-85.9865"/>
<polygon fill="midnightblue" stroke="midnightblue" points="352.5,-85.751 349,-75.7511 345.5,-85.7511 352.5,-85.751"/>
</g>
<!-- Node12 -->
<g id="node13" class="node"><title>Node12</title>
<g id="a_node13"><a xlink:href="Color_8h.html" target="_top" xlink:title="Color.h">
<polygon fill="white" stroke="black" points="388,-56.5 388,-75.5 436,-75.5 436,-56.5 388,-56.5"/>
<text text-anchor="middle" x="412" y="-63.5" font-family="Helvetica,sans-Serif" font-size="10.00">Color.h</text>
</a>
</g>
</g>
<!-- Node11&#45;&gt;Node12 -->
<g id="edge16" class="edge"><title>Node11&#45;&gt;Node12</title>
<path fill="none" stroke="midnightblue" d="M359.122,-112.324C368.526,-104.263 382.744,-92.0765 394.069,-82.3695"/>
<polygon fill="midnightblue" stroke="midnightblue" points="396.379,-84.9993 401.694,-75.8339 391.823,-79.6844 396.379,-84.9993"/>
</g>
<!-- Node14 -->
<g id="node15" class="node"><title>Node14</title>
<g id="a_node15"><a xlink:href="InputManager_8h.html" target="_top" xlink:title="InputManager.h">
<polygon fill="white" stroke="black" points="460,-112.5 460,-131.5 544,-131.5 544,-112.5 460,-112.5"/>
<text text-anchor="middle" x="502" y="-119.5" font-family="Helvetica,sans-Serif" font-size="10.00">InputManager.h</text>
</a>
</g>
</g>
<!-- Node13&#45;&gt;Node14 -->
<g id="edge20" class="edge"><title>Node13&#45;&gt;Node14</title>
<path fill="none" stroke="midnightblue" d="M468.605,-168.083C474.255,-160.455 482.545,-149.264 489.451,-139.941"/>
<polygon fill="midnightblue" stroke="midnightblue" points="492.378,-141.87 495.518,-131.751 486.753,-137.703 492.378,-141.87"/>
</g>
<!-- Node14&#45;&gt;Node6 -->
<g id="edge21" class="edge"><title>Node14&#45;&gt;Node6</title>
<path fill="none" stroke="midnightblue" d="M506.267,-112.169C512.036,-98.823 520.371,-73.2453 509,-56 493.238,-32.0956 461.858,-20.8411 437.49,-15.5713"/>
<polygon fill="midnightblue" stroke="midnightblue" points="438.022,-12.1097 427.542,-13.6598 436.702,-18.9839 438.022,-12.1097"/>
</g>
<!-- Node15 -->
<g id="node16" class="node"><title>Node15</title>
<polygon fill="white" stroke="#bfbfbf" points="556.5,-56.5 556.5,-75.5 639.5,-75.5 639.5,-56.5 556.5,-56.5"/>
<text text-anchor="middle" x="598" y="-63.5" font-family="Helvetica,sans-Serif" font-size="10.00">unordered_map</text>
</g>
<!-- Node14&#45;&gt;Node15 -->
<g id="edge22" class="edge"><title>Node14&#45;&gt;Node15</title>
<path fill="none" stroke="midnightblue" d="M517.424,-112.324C532.54,-103.822 555.815,-90.7288 573.471,-80.7975"/>
<polygon fill="midnightblue" stroke="midnightblue" points="575.614,-83.6077 582.614,-75.6545 572.183,-77.5066 575.614,-83.6077"/>
</g>
<!-- Node16 -->
<g id="node17" class="node"><title>Node16</title>
<polygon fill="white" stroke="#bfbfbf" points="454,-56.5 454,-75.5 500,-75.5 500,-56.5 454,-56.5"/>
<text text-anchor="middle" x="477" y="-63.5" font-family="Helvetica,sans-Serif" font-size="10.00">cstdint</text>
</g>
<!-- Node14&#45;&gt;Node16 -->
<g id="edge23" class="edge"><title>Node14&#45;&gt;Node16</title>
<path fill="none" stroke="midnightblue" d="M497.872,-112.083C494.486,-104.77 489.584,-94.1814 485.381,-85.1034"/>
<polygon fill="midnightblue" stroke="midnightblue" points="488.429,-83.3553 481.051,-75.7511 482.077,-86.2962 488.429,-83.3553"/>
</g>
</g>
</svg>
