<?xml version="1.0" encoding="UTF-8" standalone="no"?>
<!DOCTYPE svg PUBLIC "-//W3C//DTD SVG 1.1//EN"
 "http://www.w3.org/Graphics/SVG/1.1/DTD/svg11.dtd">
<!-- Generated by graphviz version 2.38.0 (20140413.2041)
 -->
<!-- Title: Game/src/TitleState.cpp Pages: 1 -->
<svg width="1412pt" height="532pt"
 viewBox="0.00 0.00 1412.00 532.00" xmlns="http://www.w3.org/2000/svg" xmlns:xlink="http://www.w3.org/1999/xlink">
<g id="graph0" class="graph" transform="scale(1 1) rotate(0) translate(4 528)">
<title>Game/src/TitleState.cpp</title>
<polygon fill="white" stroke="none" points="-4,4 -4,-528 1408,-528 1408,4 -4,4"/>
<!-- Node1 -->
<g id="node1" class="node"><title>Node1</title>
<polygon fill="#bfbfbf" stroke="black" points="69.5,-504.5 69.5,-523.5 192.5,-523.5 192.5,-504.5 69.5,-504.5"/>
<text text-anchor="middle" x="131" y="-511.5" font-family="Helvetica,sans-Serif" font-size="10.00">Game/src/TitleState.cpp</text>
</g>
<!-- Node2 -->
<g id="node2" class="node"><title>Node2</title>
<g id="a_node2"><a xlink:href="TitleState_8h.html" target="_top" xlink:title="TitleState.h">
<polygon fill="white" stroke="black" points="974.5,-280.5 974.5,-299.5 1041.5,-299.5 1041.5,-280.5 974.5,-280.5"/>
<text text-anchor="middle" x="1008" y="-287.5" font-family="Helvetica,sans-Serif" font-size="10.00">TitleState.h</text>
</a>
</g>
</g>
<!-- Node1&#45;&gt;Node2 -->
<g id="edge1" class="edge"><title>Node1&#45;&gt;Node2</title>
<path fill="none" stroke="midnightblue" d="M192.744,-511.827C356.37,-508.342 792.641,-496.466 851,-468 923.89,-432.447 977.734,-346.452 998.554,-308.968"/>
<polygon fill="midnightblue" stroke="midnightblue" points="1001.85,-310.225 1003.54,-299.765 995.699,-306.891 1001.85,-310.225"/>
</g>
<!-- Node4 -->
<g id="node4" class="node"><title>Node4</title>
<g id="a_node4"><a xlink:href="InputManager_8h.html" target="_top" xlink:title="InputManager.h">
<polygon fill="white" stroke="black" points="322,-168.5 322,-187.5 406,-187.5 406,-168.5 322,-168.5"/>
<text text-anchor="middle" x="364" y="-175.5" font-family="Helvetica,sans-Serif" font-size="10.00">InputManager.h</text>
</a>
</g>
</g>
<!-- Node1&#45;&gt;Node4 -->
<g id="edge46" class="edge"><title>Node1&#45;&gt;Node4</title>
<path fill="none" stroke="midnightblue" d="M104.805,-504.407C66.5759,-490.025 0,-457.198 0,-403 0,-403 0,-403 0,-289 0,-246.869 31.1271,-242.457 69,-224 110.725,-203.666 238.569,-189.751 311.531,-183.231"/>
<polygon fill="midnightblue" stroke="midnightblue" points="312.226,-186.683 321.881,-182.323 311.614,-179.71 312.226,-186.683"/>
</g>
<!-- Node20 -->
<g id="node20" class="node"><title>Node20</title>
<g id="a_node20"><a xlink:href="Camera_8h.html" target="_top" xlink:title="Camera.h">
<polygon fill="white" stroke="black" points="80.5,-280.5 80.5,-299.5 139.5,-299.5 139.5,-280.5 80.5,-280.5"/>
<text text-anchor="middle" x="110" y="-287.5" font-family="Helvetica,sans-Serif" font-size="10.00">Camera.h</text>
</a>
</g>
</g>
<!-- Node1&#45;&gt;Node20 -->
<g id="edge35" class="edge"><title>Node1&#45;&gt;Node20</title>
<path fill="none" stroke="midnightblue" d="M127.508,-504.204C124.135,-495.254 119.222,-480.901 117,-468 107.19,-411.047 108.01,-342.331 109.141,-309.811"/>
<polygon fill="midnightblue" stroke="midnightblue" points="112.648,-309.689 109.552,-299.557 105.654,-309.409 112.648,-309.689"/>
</g>
<!-- Node21 -->
<g id="node21" class="node"><title>Node21</title>
<g id="a_node21"><a xlink:href="Game_8h.html" target="_top" xlink:title="Game.h">
<polygon fill="white" stroke="black" points="253.5,-280.5 253.5,-299.5 304.5,-299.5 304.5,-280.5 253.5,-280.5"/>
<text text-anchor="middle" x="279" y="-287.5" font-family="Helvetica,sans-Serif" font-size="10.00">Game.h</text>
</a>
</g>
</g>
<!-- Node1&#45;&gt;Node21 -->
<g id="edge39" class="edge"><title>Node1&#45;&gt;Node21</title>
<path fill="none" stroke="midnightblue" d="M136.802,-504.297C158.855,-471.217 237.727,-352.909 267.506,-308.241"/>
<polygon fill="midnightblue" stroke="midnightblue" points="270.443,-310.146 273.078,-299.884 264.618,-306.263 270.443,-310.146"/>
</g>
<!-- Node23 -->
<g id="node23" class="node"><title>Node23</title>
<g id="a_node23"><a xlink:href="StageState_8h.html" target="_top" xlink:title="StageState.h">
<polygon fill="white" stroke="black" points="768,-448.5 768,-467.5 842,-467.5 842,-448.5 768,-448.5"/>
<text text-anchor="middle" x="805" y="-455.5" font-family="Helvetica,sans-Serif" font-size="10.00">StageState.h</text>
</a>
</g>
</g>
<!-- Node1&#45;&gt;Node23 -->
<g id="edge47" class="edge"><title>Node1&#45;&gt;Node23</title>
<path fill="none" stroke="midnightblue" d="M192.6,-508.065C325.877,-497.387 638.575,-472.334 757.739,-462.786"/>
<polygon fill="midnightblue" stroke="midnightblue" points="758.301,-466.253 767.99,-461.965 757.742,-459.275 758.301,-466.253"/>
</g>
<!-- Node3 -->
<g id="node3" class="node"><title>Node3</title>
<g id="a_node3"><a xlink:href="ActionManager_8h.html" target="_top" xlink:title="ActionManager.h">
<polygon fill="white" stroke="black" points="180,-224.5 180,-243.5 270,-243.5 270,-224.5 180,-224.5"/>
<text text-anchor="middle" x="225" y="-231.5" font-family="Helvetica,sans-Serif" font-size="10.00">ActionManager.h</text>
</a>
</g>
</g>
<!-- Node2&#45;&gt;Node3 -->
<g id="edge2" class="edge"><title>Node2&#45;&gt;Node3</title>
<path fill="none" stroke="midnightblue" d="M974.143,-284.873C959.641,-283.2 942.505,-281.349 927,-280 673.233,-257.929 609.171,-260.796 355,-244 330.42,-242.376 303.231,-240.505 280.099,-238.891"/>
<polygon fill="midnightblue" stroke="midnightblue" points="280.338,-235.399 270.118,-238.193 279.849,-242.382 280.338,-235.399"/>
</g>
<!-- Node9 -->
<g id="node9" class="node"><title>Node9</title>
<g id="a_node9"><a xlink:href="Sprite_8h.html" target="_top" xlink:title="Sprite.h">
<polygon fill="white" stroke="black" points="1284,-168.5 1284,-187.5 1334,-187.5 1334,-168.5 1284,-168.5"/>
<text text-anchor="middle" x="1309" y="-175.5" font-family="Helvetica,sans-Serif" font-size="10.00">Sprite.h</text>
</a>
</g>
</g>
<!-- Node2&#45;&gt;Node9 -->
<g id="edge9" class="edge"><title>Node2&#45;&gt;Node9</title>
<path fill="none" stroke="midnightblue" d="M1039.5,-280.475C1069.68,-272.06 1116.37,-258.397 1156,-244 1200.55,-227.817 1250.9,-205.647 1281.28,-191.832"/>
<polygon fill="midnightblue" stroke="midnightblue" points="1282.77,-194.999 1290.41,-187.658 1279.86,-188.633 1282.77,-194.999"/>
</g>
<!-- Node15 -->
<g id="node15" class="node"><title>Node15</title>
<g id="a_node15"><a xlink:href="State_8h.html" target="_top" xlink:title="State.h">
<polygon fill="white" stroke="black" points="874,-224.5 874,-243.5 922,-243.5 922,-224.5 874,-224.5"/>
<text text-anchor="middle" x="898" y="-231.5" font-family="Helvetica,sans-Serif" font-size="10.00">State.h</text>
</a>
</g>
</g>
<!-- Node2&#45;&gt;Node15 -->
<g id="edge18" class="edge"><title>Node2&#45;&gt;Node15</title>
<path fill="none" stroke="midnightblue" d="M990.327,-280.324C972.606,-271.625 945.097,-258.12 924.712,-248.113"/>
<polygon fill="midnightblue" stroke="midnightblue" points="926.149,-244.919 915.63,-243.655 923.064,-251.203 926.149,-244.919"/>
</g>
<!-- Node3&#45;&gt;Node4 -->
<g id="edge3" class="edge"><title>Node3&#45;&gt;Node4</title>
<path fill="none" stroke="midnightblue" d="M247.025,-224.444C270.104,-215.478 306.562,-201.314 332.641,-191.183"/>
<polygon fill="midnightblue" stroke="midnightblue" points="334.024,-194.4 342.078,-187.516 331.489,-187.875 334.024,-194.4"/>
</g>
<!-- Node5 -->
<g id="node5" class="node"><title>Node5</title>
<g id="a_node5"><a xlink:href="SDL__include_8h.html" target="_top" xlink:title="SDL_include.h">
<polygon fill="white" stroke="black" points="443,-0.5 443,-19.5 523,-19.5 523,-0.5 443,-0.5"/>
<text text-anchor="middle" x="483" y="-7.5" font-family="Helvetica,sans-Serif" font-size="10.00">SDL_include.h</text>
</a>
</g>
</g>
<!-- Node4&#45;&gt;Node5 -->
<g id="edge4" class="edge"><title>Node4&#45;&gt;Node5</title>
<path fill="none" stroke="midnightblue" d="M367.477,-168.456C376.155,-147.759 400.29,-93.8548 431,-56 440.167,-44.7003 452.391,-33.9605 462.684,-25.8085"/>
<polygon fill="midnightblue" stroke="midnightblue" points="464.959,-28.4751 470.766,-19.614 460.7,-22.9192 464.959,-28.4751"/>
</g>
<!-- Node6 -->
<g id="node6" class="node"><title>Node6</title>
<g id="a_node6"><a xlink:href="Vec2_8h.html" target="_top" xlink:title="Vec2.h">
<polygon fill="white" stroke="black" points="331.5,-56.5 331.5,-75.5 378.5,-75.5 378.5,-56.5 331.5,-56.5"/>
<text text-anchor="middle" x="355" y="-63.5" font-family="Helvetica,sans-Serif" font-size="10.00">Vec2.h</text>
</a>
</g>
</g>
<!-- Node4&#45;&gt;Node6 -->
<g id="edge5" class="edge"><title>Node4&#45;&gt;Node6</title>
<path fill="none" stroke="midnightblue" d="M363.294,-168.368C361.841,-150.617 358.491,-109.666 356.522,-85.5974"/>
<polygon fill="midnightblue" stroke="midnightblue" points="360.007,-85.2727 355.703,-75.5914 353.03,-85.8436 360.007,-85.2727"/>
</g>
<!-- Node7 -->
<g id="node7" class="node"><title>Node7</title>
<polygon fill="white" stroke="#bfbfbf" points="649.5,-112.5 649.5,-131.5 732.5,-131.5 732.5,-112.5 649.5,-112.5"/>
<text text-anchor="middle" x="691" y="-119.5" font-family="Helvetica,sans-Serif" font-size="10.00">unordered_map</text>
</g>
<!-- Node4&#45;&gt;Node7 -->
<g id="edge7" class="edge"><title>Node4&#45;&gt;Node7</title>
<path fill="none" stroke="midnightblue" d="M406.112,-170.309C458.305,-161.978 550.245,-147.175 639.263,-132.107"/>
<polygon fill="midnightblue" stroke="midnightblue" points="639.985,-135.535 649.259,-130.412 638.815,-128.633 639.985,-135.535"/>
</g>
<!-- Node8 -->
<g id="node8" class="node"><title>Node8</title>
<polygon fill="white" stroke="#bfbfbf" points="295,-112.5 295,-131.5 341,-131.5 341,-112.5 295,-112.5"/>
<text text-anchor="middle" x="318" y="-119.5" font-family="Helvetica,sans-Serif" font-size="10.00">cstdint</text>
</g>
<!-- Node4&#45;&gt;Node8 -->
<g id="edge8" class="edge"><title>Node4&#45;&gt;Node8</title>
<path fill="none" stroke="midnightblue" d="M356.404,-168.083C349.773,-160.298 339.979,-148.801 331.942,-139.367"/>
<polygon fill="midnightblue" stroke="midnightblue" points="334.604,-137.094 325.455,-131.751 329.275,-141.633 334.604,-137.094"/>
</g>
<!-- Node6&#45;&gt;Node5 -->
<g id="edge6" class="edge"><title>Node6&#45;&gt;Node5</title>
<path fill="none" stroke="midnightblue" d="M375.282,-56.4435C396.347,-47.5566 429.517,-33.5632 453.486,-23.4514"/>
<polygon fill="midnightblue" stroke="midnightblue" points="454.96,-26.6283 462.813,-19.5164 452.239,-20.1787 454.96,-26.6283"/>
</g>
<!-- Node9&#45;&gt;Node5 -->
<g id="edge10" class="edge"><title>Node9&#45;&gt;Node5</title>
<path fill="none" stroke="midnightblue" d="M1308.23,-168.242C1306.69,-154.992 1302.26,-129.538 1290,-112 1265.96,-77.6118 1253.44,-70.3182 1214,-56 1088.66,-10.4936 677.977,-9.34832 533.682,-10.4197"/>
<polygon fill="midnightblue" stroke="midnightblue" points="533.329,-6.9224 523.358,-10.5037 533.386,-13.9222 533.329,-6.9224"/>
</g>
<!-- Node10 -->
<g id="node10" class="node"><title>Node10</title>
<polygon fill="white" stroke="#bfbfbf" points="859.5,-112.5 859.5,-131.5 900.5,-131.5 900.5,-112.5 859.5,-112.5"/>
<text text-anchor="middle" x="880" y="-119.5" font-family="Helvetica,sans-Serif" font-size="10.00">string</text>
</g>
<!-- Node9&#45;&gt;Node10 -->
<g id="edge11" class="edge"><title>Node9&#45;&gt;Node10</title>
<path fill="none" stroke="midnightblue" d="M1283.69,-174.007C1268.67,-172.239 1249.25,-169.969 1232,-168 1091.71,-151.983 1052.16,-161.107 910.699,-132.034"/>
<polygon fill="midnightblue" stroke="midnightblue" points="911.288,-128.582 900.785,-129.969 909.861,-135.435 911.288,-128.582"/>
</g>
<!-- Node11 -->
<g id="node11" class="node"><title>Node11</title>
<polygon fill="white" stroke="#bfbfbf" points="789,-112.5 789,-131.5 841,-131.5 841,-112.5 789,-112.5"/>
<text text-anchor="middle" x="815" y="-119.5" font-family="Helvetica,sans-Serif" font-size="10.00">memory</text>
</g>
<!-- Node9&#45;&gt;Node11 -->
<g id="edge12" class="edge"><title>Node9&#45;&gt;Node11</title>
<path fill="none" stroke="midnightblue" d="M1283.94,-175.9C1215.84,-172.626 1021.6,-161.388 851.175,-131.955"/>
<polygon fill="midnightblue" stroke="midnightblue" points="851.733,-128.499 841.278,-130.22 850.524,-135.394 851.733,-128.499"/>
</g>
<!-- Node12 -->
<g id="node12" class="node"><title>Node12</title>
<g id="a_node12"><a xlink:href="Color_8h.html" target="_top" xlink:title="Color.h">
<polygon fill="white" stroke="black" points="1233,-112.5 1233,-131.5 1281,-131.5 1281,-112.5 1233,-112.5"/>
<text text-anchor="middle" x="1257" y="-119.5" font-family="Helvetica,sans-Serif" font-size="10.00">Color.h</text>
</a>
</g>
</g>
<!-- Node9&#45;&gt;Node12 -->
<g id="edge13" class="edge"><title>Node9&#45;&gt;Node12</title>
<path fill="none" stroke="midnightblue" d="M1300.41,-168.083C1292.84,-160.22 1281.62,-148.569 1272.49,-139.081"/>
<polygon fill="midnightblue" stroke="midnightblue" points="1274.88,-136.527 1265.43,-131.751 1269.84,-141.382 1274.88,-136.527"/>
</g>
<!-- Node13 -->
<g id="node13" class="node"><title>Node13</title>
<g id="a_node13"><a xlink:href="Rect_8h.html" target="_top" xlink:title="Rect.h">
<polygon fill="white" stroke="black" points="1160,-112.5 1160,-131.5 1206,-131.5 1206,-112.5 1160,-112.5"/>
<text text-anchor="middle" x="1183" y="-119.5" font-family="Helvetica,sans-Serif" font-size="10.00">Rect.h</text>
</a>
</g>
</g>
<!-- Node9&#45;&gt;Node13 -->
<g id="edge14" class="edge"><title>Node9&#45;&gt;Node13</title>
<path fill="none" stroke="midnightblue" d="M1289.03,-168.444C1268.39,-159.596 1235.94,-145.687 1212.37,-135.586"/>
<polygon fill="midnightblue" stroke="midnightblue" points="1213.44,-132.239 1202.87,-131.516 1210.68,-138.673 1213.44,-132.239"/>
</g>
<!-- Node13&#45;&gt;Node5 -->
<g id="edge15" class="edge"><title>Node13&#45;&gt;Node5</title>
<path fill="none" stroke="midnightblue" d="M1168.16,-112.412C1142.29,-97.9165 1086.85,-68.916 1036,-56 941.638,-32.0297 651.484,-17.8562 533.589,-12.9539"/>
<polygon fill="midnightblue" stroke="midnightblue" points="533.53,-9.44867 523.395,-12.5354 533.243,-16.4428 533.53,-9.44867"/>
</g>
<!-- Node13&#45;&gt;Node6 -->
<g id="edge16" class="edge"><title>Node13&#45;&gt;Node6</title>
<path fill="none" stroke="midnightblue" d="M1159.64,-114.638C1155.14,-113.607 1150.45,-112.662 1146,-112 855.347,-68.75 498.938,-66.3469 388.937,-66.7359"/>
<polygon fill="midnightblue" stroke="midnightblue" points="388.763,-63.2366 378.779,-66.7827 388.795,-70.2365 388.763,-63.2366"/>
</g>
<!-- Node14 -->
<g id="node14" class="node"><title>Node14</title>
<polygon fill="white" stroke="#bfbfbf" points="1161,-56.5 1161,-75.5 1205,-75.5 1205,-56.5 1161,-56.5"/>
<text text-anchor="middle" x="1183" y="-63.5" font-family="Helvetica,sans-Serif" font-size="10.00">cmath</text>
</g>
<!-- Node13&#45;&gt;Node14 -->
<g id="edge17" class="edge"><title>Node13&#45;&gt;Node14</title>
<path fill="none" stroke="midnightblue" d="M1183,-112.083C1183,-105.006 1183,-94.8611 1183,-85.9865"/>
<polygon fill="midnightblue" stroke="midnightblue" points="1186.5,-85.751 1183,-75.7511 1179.5,-85.7511 1186.5,-85.751"/>
</g>
<!-- Node15&#45;&gt;Node4 -->
<g id="edge21" class="edge"><title>Node15&#45;&gt;Node4</title>
<path fill="none" stroke="midnightblue" d="M873.668,-230.539C792.447,-222.326 529.436,-195.729 416.41,-184.3"/>
<polygon fill="midnightblue" stroke="midnightblue" points="416.575,-180.799 406.273,-183.275 415.87,-187.763 416.575,-180.799"/>
</g>
<!-- Node15&#45;&gt;Node11 -->
<g id="edge20" class="edge"><title>Node15&#45;&gt;Node11</title>
<path fill="none" stroke="midnightblue" d="M891.487,-224.368C877.729,-206.135 845.503,-163.426 827.582,-139.675"/>
<polygon fill="midnightblue" stroke="midnightblue" points="830.3,-137.466 821.483,-131.591 824.712,-141.682 830.3,-137.466"/>
</g>
<!-- Node16 -->
<g id="node16" class="node"><title>Node16</title>
<polygon fill="white" stroke="#bfbfbf" points="1050,-112.5 1050,-131.5 1094,-131.5 1094,-112.5 1050,-112.5"/>
<text text-anchor="middle" x="1072" y="-119.5" font-family="Helvetica,sans-Serif" font-size="10.00">vector</text>
</g>
<!-- Node15&#45;&gt;Node16 -->
<g id="edge19" class="edge"><title>Node15&#45;&gt;Node16</title>
<path fill="none" stroke="midnightblue" d="M922.368,-226.339C945.859,-219.201 981.756,-206.363 1009,-188 1028.86,-174.616 1047.4,-154.136 1059.15,-139.75"/>
<polygon fill="midnightblue" stroke="midnightblue" points="1062.07,-141.705 1065.54,-131.697 1056.58,-137.353 1062.07,-141.705"/>
</g>
<!-- Node17 -->
<g id="node17" class="node"><title>Node17</title>
<g id="a_node17"><a xlink:href="Resources_8h.html" target="_top" xlink:title="Resources.h">
<polygon fill="white" stroke="black" points="640,-168.5 640,-187.5 712,-187.5 712,-168.5 640,-168.5"/>
<text text-anchor="middle" x="676" y="-175.5" font-family="Helvetica,sans-Serif" font-size="10.00">Resources.h</text>
</a>
</g>
</g>
<!-- Node15&#45;&gt;Node17 -->
<g id="edge22" class="edge"><title>Node15&#45;&gt;Node17</title>
<path fill="none" stroke="midnightblue" d="M873.82,-227.118C837.176,-218.205 766.972,-201.128 720.816,-189.901"/>
<polygon fill="midnightblue" stroke="midnightblue" points="721.611,-186.493 711.067,-187.53 719.957,-193.294 721.611,-186.493"/>
</g>
<!-- Node18 -->
<g id="node18" class="node"><title>Node18</title>
<g id="a_node18"><a xlink:href="GameObject_8h.html" target="_top" xlink:title="GameObject.h">
<polygon fill="white" stroke="black" points="920,-168.5 920,-187.5 1000,-187.5 1000,-168.5 920,-168.5"/>
<text text-anchor="middle" x="960" y="-175.5" font-family="Helvetica,sans-Serif" font-size="10.00">GameObject.h</text>
</a>
</g>
</g>
<!-- Node15&#45;&gt;Node18 -->
<g id="edge27" class="edge"><title>Node15&#45;&gt;Node18</title>
<path fill="none" stroke="midnightblue" d="M907.961,-224.324C917.127,-216.341 930.937,-204.313 942.028,-194.653"/>
<polygon fill="midnightblue" stroke="midnightblue" points="944.615,-197.041 949.857,-187.834 940.018,-191.762 944.615,-197.041"/>
</g>
<!-- Node17&#45;&gt;Node5 -->
<g id="edge23" class="edge"><title>Node17&#45;&gt;Node5</title>
<path fill="none" stroke="midnightblue" d="M696.553,-168.325C720.999,-156.722 756.653,-134.937 741,-112 694.48,-43.8307 594.427,-21.6696 533.494,-14.4667"/>
<polygon fill="midnightblue" stroke="midnightblue" points="533.649,-10.9631 523.33,-13.3608 532.892,-17.922 533.649,-10.9631"/>
</g>
<!-- Node17&#45;&gt;Node7 -->
<g id="edge25" class="edge"><title>Node17&#45;&gt;Node7</title>
<path fill="none" stroke="midnightblue" d="M678.477,-168.083C680.486,-160.849 683.386,-150.409 685.89,-141.397"/>
<polygon fill="midnightblue" stroke="midnightblue" points="689.265,-142.323 688.569,-131.751 682.52,-140.449 689.265,-142.323"/>
</g>
<!-- Node17&#45;&gt;Node10 -->
<g id="edge24" class="edge"><title>Node17&#45;&gt;Node10</title>
<path fill="none" stroke="midnightblue" d="M710.769,-168.425C743.974,-160.144 795.644,-147.019 849.628,-132.022"/>
<polygon fill="midnightblue" stroke="midnightblue" points="850.683,-135.362 859.373,-129.301 848.801,-128.619 850.683,-135.362"/>
</g>
<!-- Node17&#45;&gt;Node11 -->
<g id="edge26" class="edge"><title>Node17&#45;&gt;Node11</title>
<path fill="none" stroke="midnightblue" d="M698.025,-168.444C721.104,-159.478 757.562,-145.314 783.641,-135.183"/>
<polygon fill="midnightblue" stroke="midnightblue" points="785.024,-138.4 793.078,-131.516 782.489,-131.875 785.024,-138.4"/>
</g>
<!-- Node18&#45;&gt;Node5 -->
<g id="edge28" class="edge"><title>Node18&#45;&gt;Node5</title>
<path fill="none" stroke="midnightblue" d="M972.685,-168.364C990.067,-155.489 1017.47,-130.766 1002,-112 942.85,-40.2298 652.167,-18.7975 533.546,-12.9807"/>
<polygon fill="midnightblue" stroke="midnightblue" points="533.441,-9.47194 523.287,-12.4958 533.111,-16.4641 533.441,-9.47194"/>
</g>
<!-- Node18&#45;&gt;Node10 -->
<g id="edge31" class="edge"><title>Node18&#45;&gt;Node10</title>
<path fill="none" stroke="midnightblue" d="M947.147,-168.324C934.784,-159.979 915.87,-147.212 901.263,-137.352"/>
<polygon fill="midnightblue" stroke="midnightblue" points="903.068,-134.348 892.821,-131.655 899.152,-140.15 903.068,-134.348"/>
</g>
<!-- Node18&#45;&gt;Node11 -->
<g id="edge30" class="edge"><title>Node18&#45;&gt;Node11</title>
<path fill="none" stroke="midnightblue" d="M937.024,-168.444C912.843,-159.438 874.582,-145.189 847.354,-135.049"/>
<polygon fill="midnightblue" stroke="midnightblue" points="848.461,-131.727 837.868,-131.516 846.018,-138.286 848.461,-131.727"/>
</g>
<!-- Node18&#45;&gt;Node13 -->
<g id="edge34" class="edge"><title>Node18&#45;&gt;Node13</title>
<path fill="none" stroke="midnightblue" d="M995.335,-168.444C1037.79,-158.163 1108.47,-141.047 1149.9,-131.014"/>
<polygon fill="midnightblue" stroke="midnightblue" points="1150.88,-134.38 1159.77,-128.624 1149.23,-127.576 1150.88,-134.38"/>
</g>
<!-- Node18&#45;&gt;Node16 -->
<g id="edge29" class="edge"><title>Node18&#45;&gt;Node16</title>
<path fill="none" stroke="midnightblue" d="M977.995,-168.324C996.038,-159.625 1024.05,-146.12 1044.8,-136.113"/>
<polygon fill="midnightblue" stroke="midnightblue" points="1046.56,-139.15 1054.05,-131.655 1043.52,-132.845 1046.56,-139.15"/>
</g>
<!-- Node19 -->
<g id="node19" class="node"><title>Node19</title>
<g id="a_node19"><a xlink:href="Component_8h.html" target="_top" xlink:title="Component.h">
<polygon fill="white" stroke="black" points="918.5,-112.5 918.5,-131.5 993.5,-131.5 993.5,-112.5 918.5,-112.5"/>
<text text-anchor="middle" x="956" y="-119.5" font-family="Helvetica,sans-Serif" font-size="10.00">Component.h</text>
</a>
</g>
</g>
<!-- Node18&#45;&gt;Node19 -->
<g id="edge32" class="edge"><title>Node18&#45;&gt;Node19</title>
<path fill="none" stroke="midnightblue" d="M954.173,-168.083C952.156,-161.006 950.967,-150.861 950.928,-141.986"/>
<polygon fill="midnightblue" stroke="midnightblue" points="954.437,-141.936 951.517,-131.751 947.448,-141.533 954.437,-141.936"/>
</g>
<!-- Node19&#45;&gt;Node18 -->
<g id="edge33" class="edge"><title>Node19&#45;&gt;Node18</title>
<path fill="none" stroke="midnightblue" d="M961.779,-131.751C963.809,-138.78 965.014,-148.91 965.071,-157.805"/>
<polygon fill="midnightblue" stroke="midnightblue" points="961.56,-157.906 964.506,-168.083 968.55,-158.29 961.56,-157.906"/>
</g>
<!-- Node20&#45;&gt;Node3 -->
<g id="edge38" class="edge"><title>Node20&#45;&gt;Node3</title>
<path fill="none" stroke="midnightblue" d="M128.222,-280.444C146.896,-271.675 176.156,-257.935 197.617,-247.858"/>
<polygon fill="midnightblue" stroke="midnightblue" points="199.299,-250.935 206.863,-243.516 196.324,-244.599 199.299,-250.935"/>
</g>
<!-- Node20&#45;&gt;Node6 -->
<g id="edge37" class="edge"><title>Node20&#45;&gt;Node6</title>
<path fill="none" stroke="midnightblue" d="M112.576,-280.311C116.775,-267.15 126.056,-241.811 140,-224 193.221,-156.021 283.243,-103.657 328.026,-80.3138"/>
<polygon fill="midnightblue" stroke="midnightblue" points="329.82,-83.3273 337.121,-75.6493 326.626,-77.0987 329.82,-83.3273"/>
</g>
<!-- Node20&#45;&gt;Node18 -->
<g id="edge36" class="edge"><title>Node20&#45;&gt;Node18</title>
<path fill="none" stroke="midnightblue" d="M115.046,-280.285C124.099,-265.597 144.64,-236.315 171,-224 204.502,-208.348 741.249,-187.141 909.78,-180.838"/>
<polygon fill="midnightblue" stroke="midnightblue" points="910.011,-184.332 919.874,-180.462 909.751,-177.337 910.011,-184.332"/>
</g>
<!-- Node21&#45;&gt;Node4 -->
<g id="edge43" class="edge"><title>Node21&#45;&gt;Node4</title>
<path fill="none" stroke="midnightblue" d="M285.67,-280.368C299.759,-262.135 332.762,-219.426 351.115,-195.675"/>
<polygon fill="midnightblue" stroke="midnightblue" points="354.016,-197.644 357.361,-187.591 348.477,-193.364 354.016,-197.644"/>
</g>
<!-- Node21&#45;&gt;Node5 -->
<g id="edge45" class="edge"><title>Node21&#45;&gt;Node5</title>
<path fill="none" stroke="midnightblue" d="M253.048,-284.778C228.529,-279.448 192.407,-267.911 171,-244 150.924,-221.576 152,-209.098 152,-179 152,-179 152,-179 152,-121 152,-62.5596 340.16,-29.7124 432.749,-17.0868"/>
<polygon fill="midnightblue" stroke="midnightblue" points="433.295,-20.545 442.744,-15.7518 432.368,-13.6066 433.295,-20.545"/>
</g>
<!-- Node21&#45;&gt;Node6 -->
<g id="edge44" class="edge"><title>Node21&#45;&gt;Node6</title>
<path fill="none" stroke="midnightblue" d="M279.122,-280.394C279.637,-245.93 281.807,-119.389 286,-112 294.03,-97.8517 308.547,-87.3921 322.2,-80.1364"/>
<polygon fill="midnightblue" stroke="midnightblue" points="323.983,-83.1606 331.425,-75.6192 320.905,-76.8739 323.983,-83.1606"/>
</g>
<!-- Node21&#45;&gt;Node10 -->
<g id="edge40" class="edge"><title>Node21&#45;&gt;Node10</title>
<path fill="none" stroke="midnightblue" d="M304.904,-288.293C364.22,-286.121 514.024,-277.483 634,-244 693.026,-227.527 705.016,-215.059 760,-188 793.969,-171.283 832.284,-150.111 856.286,-136.558"/>
<polygon fill="midnightblue" stroke="midnightblue" points="858.071,-139.569 865.044,-131.592 854.618,-133.48 858.071,-139.569"/>
</g>
<!-- Node21&#45;&gt;Node15 -->
<g id="edge42" class="edge"><title>Node21&#45;&gt;Node15</title>
<path fill="none" stroke="midnightblue" d="M304.81,-286.748C402.894,-278.192 752.555,-247.688 863.772,-237.986"/>
<polygon fill="midnightblue" stroke="midnightblue" points="864.116,-241.469 873.774,-237.113 863.507,-234.496 864.116,-241.469"/>
</g>
<!-- Node22 -->
<g id="node22" class="node"><title>Node22</title>
<polygon fill="white" stroke="#bfbfbf" points="364.5,-224.5 364.5,-243.5 405.5,-243.5 405.5,-224.5 364.5,-224.5"/>
<text text-anchor="middle" x="385" y="-231.5" font-family="Helvetica,sans-Serif" font-size="10.00">stack</text>
</g>
<!-- Node21&#45;&gt;Node22 -->
<g id="edge41" class="edge"><title>Node21&#45;&gt;Node22</title>
<path fill="none" stroke="midnightblue" d="M296.031,-280.324C313.03,-271.664 339.376,-258.242 358.993,-248.249"/>
<polygon fill="midnightblue" stroke="midnightblue" points="360.69,-251.312 368.012,-243.655 357.512,-245.075 360.69,-251.312"/>
</g>
<!-- Node23&#45;&gt;Node3 -->
<g id="edge50" class="edge"><title>Node23&#45;&gt;Node3</title>
<path fill="none" stroke="midnightblue" d="M767.717,-456.429C673.751,-454.49 429.562,-446.208 357,-412 293.04,-381.847 280.18,-360.754 244,-300 235.447,-285.637 230.533,-267.177 227.855,-253.602"/>
<polygon fill="midnightblue" stroke="midnightblue" points="231.267,-252.795 226.101,-243.545 224.372,-253.998 231.267,-252.795"/>
</g>
<!-- Node23&#45;&gt;Node4 -->
<g id="edge52" class="edge"><title>Node23&#45;&gt;Node4</title>
<path fill="none" stroke="midnightblue" d="M767.924,-457.732C685.524,-458.465 481.541,-455.318 318,-412 201.482,-381.138 136.303,-401.314 71,-300 12.9016,-209.864 212.995,-186.841 311.895,-180.985"/>
<polygon fill="midnightblue" stroke="midnightblue" points="312.208,-184.473 321.999,-180.425 311.821,-177.484 312.208,-184.473"/>
</g>
<!-- Node23&#45;&gt;Node9 -->
<g id="edge62" class="edge"><title>Node23&#45;&gt;Node9</title>
<path fill="none" stroke="midnightblue" d="M842.018,-454.149C972.614,-443.604 1404,-404.426 1404,-347 1404,-347 1404,-347 1404,-289 1404,-245.739 1361.39,-211.086 1333.25,-192.915"/>
<polygon fill="midnightblue" stroke="midnightblue" points="1335.03,-189.903 1324.69,-187.604 1331.34,-195.851 1335.03,-189.903"/>
</g>
<!-- Node23&#45;&gt;Node11 -->
<g id="edge49" class="edge"><title>Node23&#45;&gt;Node11</title>
<path fill="none" stroke="midnightblue" d="M767.822,-455.812C660.778,-450.674 363.098,-423.463 421,-280 446.881,-215.875 467.658,-199.921 529,-168 550.833,-156.638 706.678,-136.32 778.687,-127.402"/>
<polygon fill="midnightblue" stroke="midnightblue" points="779.18,-130.867 788.677,-126.171 778.324,-123.92 779.18,-130.867"/>
</g>
<!-- Node23&#45;&gt;Node15 -->
<g id="edge63" class="edge"><title>Node23&#45;&gt;Node15</title>
<path fill="none" stroke="midnightblue" d="M815.798,-448.187C841.514,-426.378 905.813,-366.794 927,-300 932.403,-282.965 922.446,-264.432 912.759,-251.531"/>
<polygon fill="midnightblue" stroke="midnightblue" points="915.317,-249.13 906.288,-243.587 909.89,-253.55 915.317,-249.13"/>
</g>
<!-- Node23&#45;&gt;Node16 -->
<g id="edge48" class="edge"><title>Node23&#45;&gt;Node16</title>
<path fill="none" stroke="midnightblue" d="M842.181,-450.776C876.337,-444.148 927.759,-431.835 969,-412 1007.13,-393.659 1016.57,-386.405 1046,-356 1066.92,-334.388 1075.17,-328.752 1084,-300 1101.07,-244.431 1086.45,-174.586 1077.58,-141.724"/>
<polygon fill="midnightblue" stroke="midnightblue" points="1080.85,-140.393 1074.75,-131.726 1074.11,-142.302 1080.85,-140.393"/>
</g>
<!-- Node23&#45;&gt;Node18 -->
<g id="edge51" class="edge"><title>Node23&#45;&gt;Node18</title>
<path fill="none" stroke="midnightblue" d="M838.95,-448.462C898.045,-431.556 1018.25,-387.634 1068,-300 1072.39,-292.27 1071.54,-288.154 1068,-280 1051,-240.817 1010.47,-209.903 984.188,-193.061"/>
<polygon fill="midnightblue" stroke="midnightblue" points="985.888,-189.997 975.545,-187.7 982.198,-195.945 985.888,-189.997"/>
</g>
<!-- Node24 -->
<g id="node24" class="node"><title>Node24</title>
<g id="a_node24"><a xlink:href="Music_8h.html" target="_top" xlink:title="Music.h">
<polygon fill="white" stroke="black" points="574.5,-224.5 574.5,-243.5 625.5,-243.5 625.5,-224.5 574.5,-224.5"/>
<text text-anchor="middle" x="600" y="-231.5" font-family="Helvetica,sans-Serif" font-size="10.00">Music.h</text>
</a>
</g>
</g>
<!-- Node23&#45;&gt;Node24 -->
<g id="edge53" class="edge"><title>Node23&#45;&gt;Node24</title>
<path fill="none" stroke="midnightblue" d="M767.901,-456.426C684.549,-452.79 485.264,-430.305 428,-300 424.424,-291.862 422.568,-287.036 428,-280 444.537,-258.58 519.11,-245.392 564.461,-239.207"/>
<polygon fill="midnightblue" stroke="midnightblue" points="565.027,-242.663 574.485,-237.889 564.114,-235.723 565.027,-242.663"/>
</g>
<!-- Node28 -->
<g id="node28" class="node"><title>Node28</title>
<g id="a_node28"><a xlink:href="TileMap_8h.html" target="_top" xlink:title="TileMap.h">
<polygon fill="white" stroke="black" points="1174.5,-280.5 1174.5,-299.5 1233.5,-299.5 1233.5,-280.5 1174.5,-280.5"/>
<text text-anchor="middle" x="1204" y="-287.5" font-family="Helvetica,sans-Serif" font-size="10.00">TileMap.h</text>
</a>
</g>
</g>
<!-- Node23&#45;&gt;Node28 -->
<g id="edge64" class="edge"><title>Node23&#45;&gt;Node28</title>
<path fill="none" stroke="midnightblue" d="M842.168,-457.044C923.036,-456.402 1111.58,-450.679 1160,-412 1191.48,-386.852 1200.44,-337.131 1202.99,-309.908"/>
<polygon fill="midnightblue" stroke="midnightblue" points="1206.49,-309.985 1203.74,-299.755 1199.51,-309.472 1206.49,-309.985"/>
</g>
<!-- Node29 -->
<g id="node29" class="node"><title>Node29</title>
<g id="a_node29"><a xlink:href="Tileset_8h.html" target="_top" xlink:title="Tileset.h">
<polygon fill="white" stroke="black" points="1284,-224.5 1284,-243.5 1338,-243.5 1338,-224.5 1284,-224.5"/>
<text text-anchor="middle" x="1311" y="-231.5" font-family="Helvetica,sans-Serif" font-size="10.00">Tileset.h</text>
</a>
</g>
</g>
<!-- Node23&#45;&gt;Node29 -->
<g id="edge72" class="edge"><title>Node23&#45;&gt;Node29</title>
<path fill="none" stroke="midnightblue" d="M842.23,-456.315C925.871,-454.187 1125.82,-445.626 1183,-412 1247.26,-374.209 1288.31,-290.077 1303.9,-253.065"/>
<polygon fill="midnightblue" stroke="midnightblue" points="1307.24,-254.154 1307.77,-243.572 1300.76,-251.511 1307.24,-254.154"/>
</g>
<!-- Node30 -->
<g id="node30" class="node"><title>Node30</title>
<g id="a_node30"><a xlink:href="Timer_8h.html" target="_top" xlink:title="Timer.h">
<polygon fill="white" stroke="black" points="868,-280.5 868,-299.5 918,-299.5 918,-280.5 868,-280.5"/>
<text text-anchor="middle" x="893" y="-287.5" font-family="Helvetica,sans-Serif" font-size="10.00">Timer.h</text>
</a>
</g>
</g>
<!-- Node23&#45;&gt;Node30 -->
<g id="edge73" class="edge"><title>Node23&#45;&gt;Node30</title>
<path fill="none" stroke="midnightblue" d="M809.731,-448.075C823.703,-421.719 864.968,-343.878 883.638,-308.661"/>
<polygon fill="midnightblue" stroke="midnightblue" points="886.866,-310.043 888.458,-299.568 880.682,-306.764 886.866,-310.043"/>
</g>
<!-- Node31 -->
<g id="node31" class="node"><title>Node31</title>
<g id="a_node31"><a xlink:href="EndState_8h.html" target="_top" xlink:title="EndState.h">
<polygon fill="white" stroke="black" points="742.5,-392.5 742.5,-411.5 807.5,-411.5 807.5,-392.5 742.5,-392.5"/>
<text text-anchor="middle" x="775" y="-399.5" font-family="Helvetica,sans-Serif" font-size="10.00">EndState.h</text>
</a>
</g>
</g>
<!-- Node23&#45;&gt;Node31 -->
<g id="edge74" class="edge"><title>Node23&#45;&gt;Node31</title>
<path fill="none" stroke="midnightblue" d="M794.88,-448.083C789.274,-440.77 782.976,-430.181 778.644,-421.103"/>
<polygon fill="midnightblue" stroke="midnightblue" points="781.82,-419.625 774.731,-411.751 775.362,-422.327 781.82,-419.625"/>
</g>
<!-- Node24&#45;&gt;Node4 -->
<g id="edge61" class="edge"><title>Node24&#45;&gt;Node4</title>
<path fill="none" stroke="midnightblue" d="M574.295,-227.118C535.259,-218.186 460.395,-201.057 411.334,-189.831"/>
<polygon fill="midnightblue" stroke="midnightblue" points="411.808,-186.349 401.279,-187.53 410.246,-193.172 411.808,-186.349"/>
</g>
<!-- Node24&#45;&gt;Node5 -->
<g id="edge54" class="edge"><title>Node24&#45;&gt;Node5</title>
<path fill="none" stroke="midnightblue" d="M580.737,-224.498C565.141,-216.819 543.461,-204.239 529,-188 488.402,-142.413 482.839,-65.4629 482.585,-29.9731"/>
<polygon fill="midnightblue" stroke="midnightblue" points="486.087,-29.6571 482.659,-19.6321 479.087,-29.6066 486.087,-29.6571"/>
</g>
<!-- Node24&#45;&gt;Node10 -->
<g id="edge55" class="edge"><title>Node24&#45;&gt;Node10</title>
<path fill="none" stroke="midnightblue" d="M623.734,-224.428C648.193,-215.535 687.385,-201.118 721,-188 766.123,-170.391 817.992,-148.962 849.884,-135.648"/>
<polygon fill="midnightblue" stroke="midnightblue" points="851.627,-138.712 859.502,-131.625 848.926,-132.254 851.627,-138.712"/>
</g>
<!-- Node24&#45;&gt;Node11 -->
<g id="edge56" class="edge"><title>Node24&#45;&gt;Node11</title>
<path fill="none" stroke="midnightblue" d="M601.639,-224.369C604.769,-210.337 612.959,-182.673 631,-168 653.414,-149.77 731.743,-135.365 778.67,-128.123"/>
<polygon fill="midnightblue" stroke="midnightblue" points="779.375,-131.556 788.741,-126.604 778.331,-124.635 779.375,-131.556"/>
</g>
<!-- Node24&#45;&gt;Node17 -->
<g id="edge57" class="edge"><title>Node24&#45;&gt;Node17</title>
<path fill="none" stroke="midnightblue" d="M612.211,-224.324C623.776,-216.107 641.375,-203.602 655.161,-193.807"/>
<polygon fill="midnightblue" stroke="midnightblue" points="657.443,-196.479 663.567,-187.834 653.388,-190.773 657.443,-196.479"/>
</g>
<!-- Node25 -->
<g id="node25" class="node"><title>Node25</title>
<g id="a_node25"><a xlink:href="Error_8h.html" target="_top" xlink:title="Error.h">
<polygon fill="white" stroke="black" points="538,-168.5 538,-187.5 584,-187.5 584,-168.5 538,-168.5"/>
<text text-anchor="middle" x="561" y="-175.5" font-family="Helvetica,sans-Serif" font-size="10.00">Error.h</text>
</a>
</g>
</g>
<!-- Node24&#45;&gt;Node25 -->
<g id="edge58" class="edge"><title>Node24&#45;&gt;Node25</title>
<path fill="none" stroke="midnightblue" d="M593.56,-224.083C588.051,-216.455 579.969,-205.264 573.235,-195.941"/>
<polygon fill="midnightblue" stroke="midnightblue" points="576.013,-193.809 567.32,-187.751 570.338,-197.907 576.013,-193.809"/>
</g>
<!-- Node26 -->
<g id="node26" class="node"><title>Node26</title>
<polygon fill="white" stroke="#bfbfbf" points="511,-112.5 511,-131.5 565,-131.5 565,-112.5 511,-112.5"/>
<text text-anchor="middle" x="538" y="-119.5" font-family="Helvetica,sans-Serif" font-size="10.00">iostream</text>
</g>
<!-- Node25&#45;&gt;Node26 -->
<g id="edge59" class="edge"><title>Node25&#45;&gt;Node26</title>
<path fill="none" stroke="midnightblue" d="M557.202,-168.083C554.087,-160.77 549.577,-150.181 545.711,-141.103"/>
<polygon fill="midnightblue" stroke="midnightblue" points="548.866,-139.58 541.727,-131.751 542.426,-142.323 548.866,-139.58"/>
</g>
<!-- Node27 -->
<g id="node27" class="node"><title>Node27</title>
<polygon fill="white" stroke="#bfbfbf" points="583,-112.5 583,-131.5 631,-131.5 631,-112.5 583,-112.5"/>
<text text-anchor="middle" x="607" y="-119.5" font-family="Helvetica,sans-Serif" font-size="10.00">stdlib.h</text>
</g>
<!-- Node25&#45;&gt;Node27 -->
<g id="edge60" class="edge"><title>Node25&#45;&gt;Node27</title>
<path fill="none" stroke="midnightblue" d="M568.596,-168.083C575.227,-160.298 585.021,-148.801 593.058,-139.367"/>
<polygon fill="midnightblue" stroke="midnightblue" points="595.725,-141.633 599.545,-131.751 590.396,-137.094 595.725,-141.633"/>
</g>
<!-- Node28&#45;&gt;Node6 -->
<g id="edge71" class="edge"><title>Node28&#45;&gt;Node6</title>
<path fill="none" stroke="midnightblue" d="M1202.27,-280.096C1195.8,-249.569 1169.87,-148.994 1103,-112 1040.03,-77.1643 527.156,-68.93 389.11,-67.3367"/>
<polygon fill="midnightblue" stroke="midnightblue" points="388.774,-63.8328 378.736,-67.2214 388.697,-70.8324 388.774,-63.8328"/>
</g>
<!-- Node28&#45;&gt;Node10 -->
<g id="edge65" class="edge"><title>Node28&#45;&gt;Node10</title>
<path fill="none" stroke="midnightblue" d="M1192.21,-280.386C1162.62,-259.065 1082.34,-203.024 1009,-168 991.328,-159.561 942.781,-143.286 910.543,-132.795"/>
<polygon fill="midnightblue" stroke="midnightblue" points="911.301,-129.361 900.709,-129.609 909.143,-136.021 911.301,-129.361"/>
</g>
<!-- Node28&#45;&gt;Node16 -->
<g id="edge66" class="edge"><title>Node28&#45;&gt;Node16</title>
<path fill="none" stroke="midnightblue" d="M1198.65,-280.403C1185.81,-260.034 1151.82,-207.577 1118,-168 1109.11,-157.596 1098.19,-146.845 1089.23,-138.461"/>
<polygon fill="midnightblue" stroke="midnightblue" points="1091.39,-135.693 1081.66,-131.505 1086.65,-140.848 1091.39,-135.693"/>
</g>
<!-- Node28&#45;&gt;Node18 -->
<g id="edge67" class="edge"><title>Node28&#45;&gt;Node18</title>
<path fill="none" stroke="midnightblue" d="M1180.61,-280.453C1157.39,-271.809 1120.89,-257.789 1090,-244 1053.02,-227.493 1011.31,-206.136 985.338,-192.498"/>
<polygon fill="midnightblue" stroke="midnightblue" points="986.675,-189.246 976.197,-187.675 983.408,-195.437 986.675,-189.246"/>
</g>
<!-- Node28&#45;&gt;Node29 -->
<g id="edge68" class="edge"><title>Node28&#45;&gt;Node29</title>
<path fill="none" stroke="midnightblue" d="M1221.19,-280.324C1238.35,-271.664 1264.95,-258.242 1284.75,-248.249"/>
<polygon fill="midnightblue" stroke="midnightblue" points="1286.5,-251.285 1293.85,-243.655 1283.35,-245.035 1286.5,-251.285"/>
</g>
<!-- Node29&#45;&gt;Node9 -->
<g id="edge70" class="edge"><title>Node29&#45;&gt;Node9</title>
<path fill="none" stroke="midnightblue" d="M1310.67,-224.083C1310.41,-217.006 1310.03,-206.861 1309.7,-197.986"/>
<polygon fill="midnightblue" stroke="midnightblue" points="1313.19,-197.615 1309.32,-187.751 1306.2,-197.874 1313.19,-197.615"/>
</g>
<!-- Node29&#45;&gt;Node10 -->
<g id="edge69" class="edge"><title>Node29&#45;&gt;Node10</title>
<path fill="none" stroke="midnightblue" d="M1289.33,-224.475C1253.96,-210.841 1181.41,-184.038 1118,-168 1029.65,-145.657 1002.45,-153.445 910.239,-132.037"/>
<polygon fill="midnightblue" stroke="midnightblue" points="911.041,-128.63 900.503,-129.726 909.424,-135.441 911.041,-128.63"/>
</g>
<!-- Node31&#45;&gt;Node4 -->
<g id="edge90" class="edge"><title>Node31&#45;&gt;Node4</title>
<path fill="none" stroke="midnightblue" d="M742.32,-401.854C687.243,-402.022 573.661,-396.831 489,-356 455.851,-340.013 445.81,-332.207 428,-300 411.379,-269.943 430.769,-253.974 414,-224 407.229,-211.897 395.981,-201.34 385.866,-193.498"/>
<polygon fill="midnightblue" stroke="midnightblue" points="387.899,-190.649 377.76,-187.576 383.77,-196.301 387.899,-190.649"/>
</g>
<!-- Node31&#45;&gt;Node9 -->
<g id="edge80" class="edge"><title>Node31&#45;&gt;Node9</title>
<path fill="none" stroke="midnightblue" d="M807.681,-397.406C885.214,-388.144 1085.5,-359.874 1242,-300 1291.4,-281.101 1319.79,-289.352 1347,-244 1357.16,-227.071 1342.1,-207.493 1328.05,-194.284"/>
<polygon fill="midnightblue" stroke="midnightblue" points="1330.33,-191.632 1320.51,-187.659 1325.71,-196.889 1330.33,-191.632"/>
</g>
<!-- Node31&#45;&gt;Node18 -->
<g id="edge78" class="edge"><title>Node31&#45;&gt;Node18</title>
<path fill="none" stroke="midnightblue" d="M807.958,-400.206C868.025,-396.762 994.25,-379.866 1050,-300 1080.98,-255.624 996.796,-269.733 976,-244 965.394,-230.877 961.672,-211.732 960.437,-197.617"/>
<polygon fill="midnightblue" stroke="midnightblue" points="963.929,-197.383 959.895,-187.586 956.94,-197.76 963.929,-197.383"/>
</g>
<!-- Node31&#45;&gt;Node23 -->
<g id="edge91" class="edge"><title>Node31&#45;&gt;Node23</title>
<path fill="none" stroke="midnightblue" d="M784.993,-411.751C790.588,-419.014 796.895,-429.589 801.257,-438.69"/>
<polygon fill="midnightblue" stroke="midnightblue" points="798.106,-440.225 805.212,-448.083 804.557,-437.508 798.106,-440.225"/>
</g>
<!-- Node31&#45;&gt;Node24 -->
<g id="edge79" class="edge"><title>Node31&#45;&gt;Node24</title>
<path fill="none" stroke="midnightblue" d="M765.591,-392.075C737.21,-365.153 652.198,-284.514 616.291,-250.453"/>
<polygon fill="midnightblue" stroke="midnightblue" points="618.697,-247.911 609.033,-243.568 613.879,-252.99 618.697,-247.911"/>
</g>
<!-- Node32 -->
<g id="node32" class="node"><title>Node32</title>
<g id="a_node32"><a xlink:href="EndStateData_8h.html" target="_top" xlink:title="EndStateData.h">
<polygon fill="white" stroke="black" points="498,-336.5 498,-355.5 584,-355.5 584,-336.5 498,-336.5"/>
<text text-anchor="middle" x="541" y="-343.5" font-family="Helvetica,sans-Serif" font-size="10.00">EndStateData.h</text>
</a>
</g>
</g>
<!-- Node31&#45;&gt;Node32 -->
<g id="edge75" class="edge"><title>Node31&#45;&gt;Node32</title>
<path fill="none" stroke="midnightblue" d="M742.463,-393.492C702.301,-384.223 633.708,-368.394 587.872,-357.817"/>
<polygon fill="midnightblue" stroke="midnightblue" points="588.415,-354.35 577.884,-355.512 586.841,-361.171 588.415,-354.35"/>
</g>
<!-- Node35 -->
<g id="node35" class="node"><title>Node35</title>
<g id="a_node35"><a xlink:href="Text_8h.html" target="_top" xlink:title="Text.h">
<polygon fill="white" stroke="black" points="742,-336.5 742,-355.5 786,-355.5 786,-336.5 742,-336.5"/>
<text text-anchor="middle" x="764" y="-343.5" font-family="Helvetica,sans-Serif" font-size="10.00">Text.h</text>
</a>
</g>
</g>
<!-- Node31&#45;&gt;Node35 -->
<g id="edge81" class="edge"><title>Node31&#45;&gt;Node35</title>
<path fill="none" stroke="midnightblue" d="M773.184,-392.083C771.726,-384.927 769.629,-374.635 767.807,-365.691"/>
<polygon fill="midnightblue" stroke="midnightblue" points="771.208,-364.851 765.783,-355.751 764.349,-366.248 771.208,-364.851"/>
</g>
<!-- Node33 -->
<g id="node33" class="node"><title>Node33</title>
<g id="a_node33"><a xlink:href="StateData_8h.html" target="_top" xlink:title="StateData.h">
<polygon fill="white" stroke="black" points="437.5,-280.5 437.5,-299.5 506.5,-299.5 506.5,-280.5 437.5,-280.5"/>
<text text-anchor="middle" x="472" y="-287.5" font-family="Helvetica,sans-Serif" font-size="10.00">StateData.h</text>
</a>
</g>
</g>
<!-- Node32&#45;&gt;Node33 -->
<g id="edge76" class="edge"><title>Node32&#45;&gt;Node33</title>
<path fill="none" stroke="midnightblue" d="M529.914,-336.324C519.514,-328.185 503.739,-315.839 491.278,-306.087"/>
<polygon fill="midnightblue" stroke="midnightblue" points="493.32,-303.241 483.288,-299.834 489.006,-308.753 493.32,-303.241"/>
</g>
<!-- Node34 -->
<g id="node34" class="node"><title>Node34</title>
<g id="a_node34"><a xlink:href="Defines_8h.html" target="_top" xlink:title="Defines.h">
<polygon fill="white" stroke="black" points="524.5,-280.5 524.5,-299.5 583.5,-299.5 583.5,-280.5 524.5,-280.5"/>
<text text-anchor="middle" x="554" y="-287.5" font-family="Helvetica,sans-Serif" font-size="10.00">Defines.h</text>
</a>
</g>
</g>
<!-- Node32&#45;&gt;Node34 -->
<g id="edge77" class="edge"><title>Node32&#45;&gt;Node34</title>
<path fill="none" stroke="midnightblue" d="M543.147,-336.083C544.869,-328.927 547.347,-318.635 549.5,-309.691"/>
<polygon fill="midnightblue" stroke="midnightblue" points="552.955,-310.293 551.893,-299.751 546.15,-308.654 552.955,-310.293"/>
</g>
<!-- Node35&#45;&gt;Node5 -->
<g id="edge82" class="edge"><title>Node35&#45;&gt;Node5</title>
<path fill="none" stroke="midnightblue" d="M741.758,-338.481C691.089,-322.355 567.138,-275.433 511,-188 478.441,-137.29 477.995,-116.229 480,-56 480.287,-47.3834 480.882,-37.8541 481.467,-29.7913"/>
<polygon fill="midnightblue" stroke="midnightblue" points="484.972,-29.8585 482.254,-19.6183 477.993,-29.3184 484.972,-29.8585"/>
</g>
<!-- Node35&#45;&gt;Node10 -->
<g id="edge86" class="edge"><title>Node35&#45;&gt;Node10</title>
<path fill="none" stroke="midnightblue" d="M768.628,-336.388C773.482,-327.341 781.317,-312.692 788,-300 818.575,-241.932 854.293,-172.85 870.789,-140.874"/>
<polygon fill="midnightblue" stroke="midnightblue" points="873.966,-142.35 875.438,-131.858 867.744,-139.142 873.966,-142.35"/>
</g>
<!-- Node35&#45;&gt;Node11 -->
<g id="edge85" class="edge"><title>Node35&#45;&gt;Node11</title>
<path fill="none" stroke="midnightblue" d="M765.999,-336.297C773.519,-303.563 800.211,-187.375 810.712,-141.666"/>
<polygon fill="midnightblue" stroke="midnightblue" points="814.131,-142.414 812.959,-131.884 807.309,-140.846 814.131,-142.414"/>
</g>
<!-- Node35&#45;&gt;Node13 -->
<g id="edge83" class="edge"><title>Node35&#45;&gt;Node13</title>
<path fill="none" stroke="midnightblue" d="M775.338,-336.421C792.795,-323.404 827.539,-298.25 859,-280 873.133,-271.802 1080.36,-172.242 1155.8,-136.046"/>
<polygon fill="midnightblue" stroke="midnightblue" points="1157.63,-139.049 1165.13,-131.568 1154.6,-132.738 1157.63,-139.049"/>
</g>
<!-- Node35&#45;&gt;Node17 -->
<g id="edge87" class="edge"><title>Node35&#45;&gt;Node17</title>
<path fill="none" stroke="midnightblue" d="M759.787,-336.414C749.972,-316.496 724.693,-265.665 702,-224 696.975,-214.774 691.142,-204.631 686.276,-196.314"/>
<polygon fill="midnightblue" stroke="midnightblue" points="689.207,-194.393 681.114,-187.554 683.176,-197.946 689.207,-194.393"/>
</g>
<!-- Node35&#45;&gt;Node21 -->
<g id="edge88" class="edge"><title>Node35&#45;&gt;Node21</title>
<path fill="none" stroke="midnightblue" d="M741.9,-342.539C665.095,-333.988 409.305,-305.508 314.635,-294.968"/>
<polygon fill="midnightblue" stroke="midnightblue" points="315.011,-291.488 304.685,-293.86 314.237,-298.445 315.011,-291.488"/>
</g>
<!-- Node35&#45;&gt;Node25 -->
<g id="edge89" class="edge"><title>Node35&#45;&gt;Node25</title>
<path fill="none" stroke="midnightblue" d="M755.993,-336.466C736.36,-315.789 683.79,-261.928 634,-224 618.747,-212.381 600.365,-201.063 585.863,-192.685"/>
<polygon fill="midnightblue" stroke="midnightblue" points="587.389,-189.526 576.966,-187.63 583.931,-195.613 587.389,-189.526"/>
</g>
<!-- Node35&#45;&gt;Node30 -->
<g id="edge84" class="edge"><title>Node35&#45;&gt;Node30</title>
<path fill="none" stroke="midnightblue" d="M784.44,-336.444C805.67,-327.557 839.099,-313.563 863.255,-303.451"/>
<polygon fill="midnightblue" stroke="midnightblue" points="864.782,-306.606 872.655,-299.516 862.079,-300.149 864.782,-306.606"/>
</g>
</g>
</svg>
