<?xml version="1.0" encoding="UTF-8" standalone="no"?>
<!DOCTYPE svg PUBLIC "-//W3C//DTD SVG 1.1//EN"
 "http://www.w3.org/Graphics/SVG/1.1/DTD/svg11.dtd">
<!-- Generated by graphviz version 2.38.0 (20140413.2041)
 -->
<!-- Title: Game/src/TitleState.cpp Pages: 1 -->
<svg width="1153pt" height="476pt"
 viewBox="0.00 0.00 1153.00 476.00" xmlns="http://www.w3.org/2000/svg" xmlns:xlink="http://www.w3.org/1999/xlink">
<g id="graph0" class="graph" transform="scale(1 1) rotate(0) translate(4 472)">
<title>Game/src/TitleState.cpp</title>
<polygon fill="white" stroke="none" points="-4,4 -4,-472 1149,-472 1149,4 -4,4"/>
<!-- Node0 -->
<g id="node1" class="node"><title>Node0</title>
<polygon fill="#bfbfbf" stroke="black" points="483.5,-448.5 483.5,-467.5 606.5,-467.5 606.5,-448.5 483.5,-448.5"/>
<text text-anchor="middle" x="545" y="-455.5" font-family="Helvetica,sans-Serif" font-size="10.00">Game/src/TitleState.cpp</text>
</g>
<!-- Node1 -->
<g id="node2" class="node"><title>Node1</title>
<g id="a_node2"><a xlink:href="TitleState_8h.html" target="_top" xlink:title="TitleState.h">
<polygon fill="white" stroke="black" points="901.5,-280.5 901.5,-299.5 968.5,-299.5 968.5,-280.5 901.5,-280.5"/>
<text text-anchor="middle" x="935" y="-287.5" font-family="Helvetica,sans-Serif" font-size="10.00">TitleState.h</text>
</a>
</g>
</g>
<!-- Node0&#45;&gt;Node1 -->
<g id="edge1" class="edge"><title>Node0&#45;&gt;Node1</title>
<path fill="none" stroke="midnightblue" d="M606.939,-451.543C652.683,-445.845 715.652,-434.445 767,-412 828.751,-385.008 890.165,-332.649 918.612,-306.559"/>
<polygon fill="midnightblue" stroke="midnightblue" points="921.102,-309.023 926.042,-299.65 916.335,-303.897 921.102,-309.023"/>
</g>
<!-- Node12 -->
<g id="node13" class="node"><title>Node12</title>
<g id="a_node13"><a xlink:href="InputManager_8h.html" target="_top" xlink:title="InputManager.h">
<polygon fill="white" stroke="black" points="62,-168.5 62,-187.5 146,-187.5 146,-168.5 62,-168.5"/>
<text text-anchor="middle" x="104" y="-175.5" font-family="Helvetica,sans-Serif" font-size="10.00">InputManager.h</text>
</a>
</g>
</g>
<!-- Node0&#45;&gt;Node12 -->
<g id="edge18" class="edge"><title>Node0&#45;&gt;Node12</title>
<path fill="none" stroke="midnightblue" d="M483.277,-457.399C340.589,-456.662 0,-444.672 0,-347 0,-347 0,-347 0,-289 0,-244.223 46.0644,-210.325 76.8789,-192.658"/>
<polygon fill="midnightblue" stroke="midnightblue" points="78.8109,-195.59 85.8846,-187.702 75.4361,-189.457 78.8109,-195.59"/>
</g>
<!-- Node15 -->
<g id="node16" class="node"><title>Node15</title>
<g id="a_node16"><a xlink:href="Game_8h.html" target="_top" xlink:title="Game.h">
<polygon fill="white" stroke="black" points="268.5,-224.5 268.5,-243.5 319.5,-243.5 319.5,-224.5 268.5,-224.5"/>
<text text-anchor="middle" x="294" y="-231.5" font-family="Helvetica,sans-Serif" font-size="10.00">Game.h</text>
</a>
</g>
</g>
<!-- Node0&#45;&gt;Node15 -->
<g id="edge19" class="edge"><title>Node0&#45;&gt;Node15</title>
<path fill="none" stroke="midnightblue" d="M535.161,-448.297C497.204,-414.726 360.005,-293.379 311.3,-250.301"/>
<polygon fill="midnightblue" stroke="midnightblue" points="313.581,-247.646 303.771,-243.643 308.943,-252.889 313.581,-247.646"/>
</g>
<!-- Node17 -->
<g id="node18" class="node"><title>Node17</title>
<g id="a_node18"><a xlink:href="StageState_8h.html" target="_top" xlink:title="StageState.h">
<polygon fill="white" stroke="black" points="684,-392.5 684,-411.5 758,-411.5 758,-392.5 684,-392.5"/>
<text text-anchor="middle" x="721" y="-399.5" font-family="Helvetica,sans-Serif" font-size="10.00">StageState.h</text>
</a>
</g>
</g>
<!-- Node0&#45;&gt;Node17 -->
<g id="edge25" class="edge"><title>Node0&#45;&gt;Node17</title>
<path fill="none" stroke="midnightblue" d="M572.888,-448.444C602.754,-439.28 650.315,-424.688 683.456,-414.519"/>
<polygon fill="midnightblue" stroke="midnightblue" points="684.709,-417.796 693.243,-411.516 682.656,-411.104 684.709,-417.796"/>
</g>
<!-- Node2 -->
<g id="node3" class="node"><title>Node2</title>
<g id="a_node3"><a xlink:href="State_8h.html" target="_top" xlink:title="State.h">
<polygon fill="white" stroke="black" points="852,-168.5 852,-187.5 900,-187.5 900,-168.5 852,-168.5"/>
<text text-anchor="middle" x="876" y="-175.5" font-family="Helvetica,sans-Serif" font-size="10.00">State.h</text>
</a>
</g>
</g>
<!-- Node1&#45;&gt;Node2 -->
<g id="edge2" class="edge"><title>Node1&#45;&gt;Node2</title>
<path fill="none" stroke="midnightblue" d="M941.528,-280.491C950.584,-267.565 964.702,-242.529 954,-224 944.392,-207.364 926.036,-196.331 909.544,-189.354"/>
<polygon fill="midnightblue" stroke="midnightblue" points="910.718,-186.056 900.129,-185.704 908.187,-192.582 910.718,-186.056"/>
</g>
<!-- Node10 -->
<g id="node11" class="node"><title>Node10</title>
<g id="a_node11"><a xlink:href="Sprite_8h.html" target="_top" xlink:title="Sprite.h">
<polygon fill="white" stroke="black" points="895,-224.5 895,-243.5 945,-243.5 945,-224.5 895,-224.5"/>
<text text-anchor="middle" x="920" y="-231.5" font-family="Helvetica,sans-Serif" font-size="10.00">Sprite.h</text>
</a>
</g>
</g>
<!-- Node1&#45;&gt;Node10 -->
<g id="edge10" class="edge"><title>Node1&#45;&gt;Node10</title>
<path fill="none" stroke="midnightblue" d="M932.523,-280.083C930.514,-272.849 927.614,-262.409 925.11,-253.397"/>
<polygon fill="midnightblue" stroke="midnightblue" points="928.48,-252.449 922.431,-243.751 921.735,-254.323 928.48,-252.449"/>
</g>
<!-- Node11 -->
<g id="node12" class="node"><title>Node11</title>
<g id="a_node12"><a xlink:href="ActionManager_8h.html" target="_top" xlink:title="ActionManager.h">
<polygon fill="white" stroke="black" points="711,-224.5 711,-243.5 801,-243.5 801,-224.5 711,-224.5"/>
<text text-anchor="middle" x="756" y="-231.5" font-family="Helvetica,sans-Serif" font-size="10.00">ActionManager.h</text>
</a>
</g>
</g>
<!-- Node1&#45;&gt;Node11 -->
<g id="edge13" class="edge"><title>Node1&#45;&gt;Node11</title>
<path fill="none" stroke="midnightblue" d="M906.637,-280.444C876.262,-271.28 827.89,-256.688 794.184,-246.519"/>
<polygon fill="midnightblue" stroke="midnightblue" points="794.815,-243.054 784.23,-243.516 792.793,-249.756 794.815,-243.054"/>
</g>
<!-- Node3 -->
<g id="node4" class="node"><title>Node3</title>
<g id="a_node4"><a xlink:href="Gameobject_8h.html" target="_top" xlink:title="Gameobject.h">
<polygon fill="white" stroke="black" points="808.5,-112.5 808.5,-131.5 885.5,-131.5 885.5,-112.5 808.5,-112.5"/>
<text text-anchor="middle" x="847" y="-119.5" font-family="Helvetica,sans-Serif" font-size="10.00">Gameobject.h</text>
</a>
</g>
</g>
<!-- Node2&#45;&gt;Node3 -->
<g id="edge3" class="edge"><title>Node2&#45;&gt;Node3</title>
<path fill="none" stroke="midnightblue" d="M871.211,-168.083C867.242,-160.691 861.475,-149.953 856.565,-140.811"/>
<polygon fill="midnightblue" stroke="midnightblue" points="859.514,-138.905 851.7,-131.751 853.347,-142.217 859.514,-138.905"/>
</g>
<!-- Node8 -->
<g id="node9" class="node"><title>Node8</title>
<polygon fill="white" stroke="#bfbfbf" points="1097,-112.5 1097,-131.5 1141,-131.5 1141,-112.5 1097,-112.5"/>
<text text-anchor="middle" x="1119" y="-119.5" font-family="Helvetica,sans-Serif" font-size="10.00">vector</text>
</g>
<!-- Node2&#45;&gt;Node8 -->
<g id="edge8" class="edge"><title>Node2&#45;&gt;Node8</title>
<path fill="none" stroke="midnightblue" d="M900.188,-171.625C944.234,-161.837 1037.52,-141.107 1086.85,-130.144"/>
<polygon fill="midnightblue" stroke="midnightblue" points="1087.68,-133.546 1096.68,-127.96 1086.16,-126.713 1087.68,-133.546"/>
</g>
<!-- Node9 -->
<g id="node10" class="node"><title>Node9</title>
<polygon fill="white" stroke="#bfbfbf" points="738,-112.5 738,-131.5 790,-131.5 790,-112.5 738,-112.5"/>
<text text-anchor="middle" x="764" y="-119.5" font-family="Helvetica,sans-Serif" font-size="10.00">memory</text>
</g>
<!-- Node2&#45;&gt;Node9 -->
<g id="edge9" class="edge"><title>Node2&#45;&gt;Node9</title>
<path fill="none" stroke="midnightblue" d="M858.005,-168.324C839.962,-159.625 811.953,-146.12 791.197,-136.113"/>
<polygon fill="midnightblue" stroke="midnightblue" points="792.478,-132.845 781.95,-131.655 789.438,-139.15 792.478,-132.845"/>
</g>
<!-- Node4 -->
<g id="node5" class="node"><title>Node4</title>
<g id="a_node5"><a xlink:href="Rect_8h.html" target="_top" xlink:title="Rect.h">
<polygon fill="white" stroke="black" points="301,-56.5 301,-75.5 347,-75.5 347,-56.5 301,-56.5"/>
<text text-anchor="middle" x="324" y="-63.5" font-family="Helvetica,sans-Serif" font-size="10.00">Rect.h</text>
</a>
</g>
</g>
<!-- Node3&#45;&gt;Node4 -->
<g id="edge4" class="edge"><title>Node3&#45;&gt;Node4</title>
<path fill="none" stroke="midnightblue" d="M808.277,-113.427C805.144,-112.91 802.022,-112.426 799,-112 634.093,-88.7776 435.247,-74.2763 357.473,-69.1204"/>
<polygon fill="midnightblue" stroke="midnightblue" points="357.526,-65.6165 347.318,-68.455 357.068,-72.6015 357.526,-65.6165"/>
</g>
<!-- Node7 -->
<g id="node8" class="node"><title>Node7</title>
<polygon fill="white" stroke="#bfbfbf" points="757.5,-56.5 757.5,-75.5 798.5,-75.5 798.5,-56.5 757.5,-56.5"/>
<text text-anchor="middle" x="778" y="-63.5" font-family="Helvetica,sans-Serif" font-size="10.00">string</text>
</g>
<!-- Node3&#45;&gt;Node7 -->
<g id="edge7" class="edge"><title>Node3&#45;&gt;Node7</title>
<path fill="none" stroke="midnightblue" d="M835.914,-112.324C825.514,-104.185 809.739,-91.8395 797.278,-82.0874"/>
<polygon fill="midnightblue" stroke="midnightblue" points="799.32,-79.2407 789.288,-75.8339 795.006,-84.7533 799.32,-79.2407"/>
</g>
<!-- Node5 -->
<g id="node6" class="node"><title>Node5</title>
<g id="a_node6"><a xlink:href="Vec2_8h.html" target="_top" xlink:title="Vec2.h">
<polygon fill="white" stroke="black" points="160.5,-0.5 160.5,-19.5 207.5,-19.5 207.5,-0.5 160.5,-0.5"/>
<text text-anchor="middle" x="184" y="-7.5" font-family="Helvetica,sans-Serif" font-size="10.00">Vec2.h</text>
</a>
</g>
</g>
<!-- Node4&#45;&gt;Node5 -->
<g id="edge5" class="edge"><title>Node4&#45;&gt;Node5</title>
<path fill="none" stroke="midnightblue" d="M301.817,-56.4435C278.572,-47.4776 241.851,-33.314 215.585,-23.1827"/>
<polygon fill="midnightblue" stroke="midnightblue" points="216.669,-19.8497 206.08,-19.5164 214.15,-26.3807 216.669,-19.8497"/>
</g>
<!-- Node6 -->
<g id="node7" class="node"><title>Node6</title>
<polygon fill="white" stroke="#bfbfbf" points="302,-0.5 302,-19.5 346,-19.5 346,-0.5 302,-0.5"/>
<text text-anchor="middle" x="324" y="-7.5" font-family="Helvetica,sans-Serif" font-size="10.00">cmath</text>
</g>
<!-- Node4&#45;&gt;Node6 -->
<g id="edge6" class="edge"><title>Node4&#45;&gt;Node6</title>
<path fill="none" stroke="midnightblue" d="M324,-56.083C324,-49.0059 324,-38.8611 324,-29.9865"/>
<polygon fill="midnightblue" stroke="midnightblue" points="327.5,-29.751 324,-19.7511 320.5,-29.7511 327.5,-29.751"/>
</g>
<!-- Node10&#45;&gt;Node7 -->
<g id="edge11" class="edge"><title>Node10&#45;&gt;Node7</title>
<path fill="none" stroke="midnightblue" d="M920.818,-224.41C922.392,-202.655 923.414,-144.787 894,-112 872.067,-87.5518 835.266,-76.2707 808.996,-71.1402"/>
<polygon fill="midnightblue" stroke="midnightblue" points="809.259,-67.6329 798.805,-69.3515 808.049,-74.5275 809.259,-67.6329"/>
</g>
<!-- Node10&#45;&gt;Node9 -->
<g id="edge12" class="edge"><title>Node10&#45;&gt;Node9</title>
<path fill="none" stroke="midnightblue" d="M903.611,-224.415C887.697,-215.851 863.07,-201.988 843,-188 820.624,-172.405 796.667,-152.131 781.076,-138.403"/>
<polygon fill="midnightblue" stroke="midnightblue" points="783.137,-135.551 773.339,-131.521 778.485,-140.782 783.137,-135.551"/>
</g>
<!-- Node11&#45;&gt;Node12 -->
<g id="edge14" class="edge"><title>Node11&#45;&gt;Node12</title>
<path fill="none" stroke="midnightblue" d="M710.928,-229.267C593.875,-219.573 280.705,-193.635 156.145,-183.319"/>
<polygon fill="midnightblue" stroke="midnightblue" points="156.351,-179.824 146.096,-182.486 155.773,-186.8 156.351,-179.824"/>
</g>
<!-- Node12&#45;&gt;Node5 -->
<g id="edge15" class="edge"><title>Node12&#45;&gt;Node5</title>
<path fill="none" stroke="midnightblue" d="M108.492,-168.415C113.19,-159.39 120.736,-144.759 127,-132 144.918,-95.5032 164.989,-52.3286 175.887,-28.6831"/>
<polygon fill="midnightblue" stroke="midnightblue" points="179.087,-30.1014 180.086,-19.5537 172.728,-27.1765 179.087,-30.1014"/>
</g>
<!-- Node13 -->
<g id="node14" class="node"><title>Node13</title>
<polygon fill="white" stroke="#bfbfbf" points="212.5,-112.5 212.5,-131.5 295.5,-131.5 295.5,-112.5 212.5,-112.5"/>
<text text-anchor="middle" x="254" y="-119.5" font-family="Helvetica,sans-Serif" font-size="10.00">unordered_map</text>
</g>
<!-- Node12&#45;&gt;Node13 -->
<g id="edge16" class="edge"><title>Node12&#45;&gt;Node13</title>
<path fill="none" stroke="midnightblue" d="M127.768,-168.444C152.893,-159.399 192.711,-145.064 220.9,-134.916"/>
<polygon fill="midnightblue" stroke="midnightblue" points="222.12,-138.197 230.343,-131.516 219.749,-131.611 222.12,-138.197"/>
</g>
<!-- Node14 -->
<g id="node15" class="node"><title>Node14</title>
<polygon fill="white" stroke="#bfbfbf" points="72,-112.5 72,-131.5 118,-131.5 118,-112.5 72,-112.5"/>
<text text-anchor="middle" x="95" y="-119.5" font-family="Helvetica,sans-Serif" font-size="10.00">cstdint</text>
</g>
<!-- Node12&#45;&gt;Node14 -->
<g id="edge17" class="edge"><title>Node12&#45;&gt;Node14</title>
<path fill="none" stroke="midnightblue" d="M102.514,-168.083C101.321,-160.927 99.6059,-150.635 98.1152,-141.691"/>
<polygon fill="midnightblue" stroke="midnightblue" points="101.555,-141.04 96.4585,-131.751 94.6502,-142.19 101.555,-141.04"/>
</g>
<!-- Node15&#45;&gt;Node2 -->
<g id="edge22" class="edge"><title>Node15&#45;&gt;Node2</title>
<path fill="none" stroke="midnightblue" d="M319.759,-230.61C413.34,-221.927 735.391,-192.046 841.668,-182.185"/>
<polygon fill="midnightblue" stroke="midnightblue" points="842.203,-185.651 851.837,-181.242 841.556,-178.681 842.203,-185.651"/>
</g>
<!-- Node15&#45;&gt;Node5 -->
<g id="edge24" class="edge"><title>Node15&#45;&gt;Node5</title>
<path fill="none" stroke="midnightblue" d="M268.402,-225.379C250.077,-218.567 226.37,-206.72 213,-188 178.366,-139.508 179.307,-64.6072 181.989,-29.8772"/>
<polygon fill="midnightblue" stroke="midnightblue" points="185.491,-30.0127 182.917,-19.7354 178.521,-29.375 185.491,-30.0127"/>
</g>
<!-- Node15&#45;&gt;Node7 -->
<g id="edge20" class="edge"><title>Node15&#45;&gt;Node7</title>
<path fill="none" stroke="midnightblue" d="M297.604,-224.368C307.675,-201.458 338.527,-139.024 386,-112 447.675,-76.8913 666.303,-69.1359 747.418,-67.4549"/>
<polygon fill="midnightblue" stroke="midnightblue" points="747.554,-70.953 757.485,-67.2633 747.42,-63.9543 747.554,-70.953"/>
</g>
<!-- Node15&#45;&gt;Node12 -->
<g id="edge23" class="edge"><title>Node15&#45;&gt;Node12</title>
<path fill="none" stroke="midnightblue" d="M268.376,-225.717C236.526,-216.665 181.8,-201.111 144.308,-190.456"/>
<polygon fill="midnightblue" stroke="midnightblue" points="144.8,-186.957 134.224,-187.59 142.886,-193.691 144.8,-186.957"/>
</g>
<!-- Node16 -->
<g id="node17" class="node"><title>Node16</title>
<polygon fill="white" stroke="#bfbfbf" points="222.5,-168.5 222.5,-187.5 263.5,-187.5 263.5,-168.5 222.5,-168.5"/>
<text text-anchor="middle" x="243" y="-175.5" font-family="Helvetica,sans-Serif" font-size="10.00">stack</text>
</g>
<!-- Node15&#45;&gt;Node16 -->
<g id="edge21" class="edge"><title>Node15&#45;&gt;Node16</title>
<path fill="none" stroke="midnightblue" d="M285.578,-224.083C278.152,-216.22 267.148,-204.569 258.188,-195.081"/>
<polygon fill="midnightblue" stroke="midnightblue" points="260.676,-192.618 251.265,-187.751 255.587,-197.424 260.676,-192.618"/>
</g>
<!-- Node17&#45;&gt;Node2 -->
<g id="edge39" class="edge"><title>Node17&#45;&gt;Node2</title>
<path fill="none" stroke="midnightblue" d="M733.06,-392.242C744.228,-383.763 760.888,-370.148 773,-356 817.231,-304.334 852.872,-231.049 868.063,-197.304"/>
<polygon fill="midnightblue" stroke="midnightblue" points="871.416,-198.376 872.262,-187.815 865.015,-195.543 871.416,-198.376"/>
</g>
<!-- Node17&#45;&gt;Node3 -->
<g id="edge29" class="edge"><title>Node17&#45;&gt;Node3</title>
<path fill="none" stroke="midnightblue" d="M716.822,-392.258C704.606,-365.35 671.675,-282.08 702,-224 725.297,-179.38 778.293,-150.467 813.35,-135.457"/>
<polygon fill="midnightblue" stroke="midnightblue" points="814.813,-138.639 822.722,-131.59 812.143,-132.168 814.813,-138.639"/>
</g>
<!-- Node17&#45;&gt;Node8 -->
<g id="edge26" class="edge"><title>Node17&#45;&gt;Node8</title>
<path fill="none" stroke="midnightblue" d="M758.118,-399.386C838.07,-395.424 1023.86,-383.469 1080,-356 1116.7,-338.044 1145,-331.855 1145,-291 1145,-291 1145,-291 1145,-233 1145,-199.929 1133.73,-162.729 1126.03,-141.168"/>
<polygon fill="midnightblue" stroke="midnightblue" points="1129.27,-139.831 1122.51,-131.675 1122.71,-142.268 1129.27,-139.831"/>
</g>
<!-- Node17&#45;&gt;Node9 -->
<g id="edge27" class="edge"><title>Node17&#45;&gt;Node9</title>
<path fill="none" stroke="midnightblue" d="M728.239,-392.184C746.403,-369.422 793.621,-306.107 810,-244 820.119,-205.632 794.398,-162.631 777.462,-139.639"/>
<polygon fill="midnightblue" stroke="midnightblue" points="780.153,-137.397 771.286,-131.598 774.602,-141.661 780.153,-137.397"/>
</g>
<!-- Node17&#45;&gt;Node10 -->
<g id="edge28" class="edge"><title>Node17&#45;&gt;Node10</title>
<path fill="none" stroke="midnightblue" d="M743.788,-392.407C762.834,-384.592 790.149,-371.87 811,-356 851.876,-324.888 889.634,-276.99 908.111,-251.804"/>
<polygon fill="midnightblue" stroke="midnightblue" points="911,-253.782 914.016,-243.625 905.325,-249.684 911,-253.782"/>
</g>
<!-- Node17&#45;&gt;Node11 -->
<g id="edge38" class="edge"><title>Node17&#45;&gt;Node11</title>
<path fill="none" stroke="midnightblue" d="M722.559,-392.465C726.208,-372.653 735.699,-322.03 745,-280 746.935,-271.254 749.269,-261.601 751.287,-253.485"/>
<polygon fill="midnightblue" stroke="midnightblue" points="754.729,-254.153 753.778,-243.601 747.941,-252.442 754.729,-254.153"/>
</g>
<!-- Node17&#45;&gt;Node12 -->
<g id="edge37" class="edge"><title>Node17&#45;&gt;Node12</title>
<path fill="none" stroke="midnightblue" d="M683.65,-398.865C567.105,-391.576 212.418,-364.465 120,-300 89.9406,-279.032 81.7703,-260.116 88,-224 89.568,-214.91 92.7948,-205.222 95.9425,-197.173"/>
<polygon fill="midnightblue" stroke="midnightblue" points="99.2649,-198.299 99.8888,-187.723 92.8055,-195.602 99.2649,-198.299"/>
</g>
<!-- Node18 -->
<g id="node19" class="node"><title>Node18</title>
<g id="a_node19"><a xlink:href="Tileset_8h.html" target="_top" xlink:title="Tileset.h">
<polygon fill="white" stroke="black" points="987,-280.5 987,-299.5 1041,-299.5 1041,-280.5 987,-280.5"/>
<text text-anchor="middle" x="1014" y="-287.5" font-family="Helvetica,sans-Serif" font-size="10.00">Tileset.h</text>
</a>
</g>
</g>
<!-- Node17&#45;&gt;Node18 -->
<g id="edge30" class="edge"><title>Node17&#45;&gt;Node18</title>
<path fill="none" stroke="midnightblue" d="M758.3,-393.232C792.416,-385.581 843.97,-372.635 887,-356 924.693,-341.428 965.926,-319.028 990.877,-304.697"/>
<polygon fill="midnightblue" stroke="midnightblue" points="992.709,-307.68 999.601,-299.633 989.195,-301.627 992.709,-307.68"/>
</g>
<!-- Node19 -->
<g id="node20" class="node"><title>Node19</title>
<g id="a_node20"><a xlink:href="TileMap_8h.html" target="_top" xlink:title="TileMap.h">
<polygon fill="white" stroke="black" points="1011.5,-336.5 1011.5,-355.5 1070.5,-355.5 1070.5,-336.5 1011.5,-336.5"/>
<text text-anchor="middle" x="1041" y="-343.5" font-family="Helvetica,sans-Serif" font-size="10.00">TileMap.h</text>
</a>
</g>
</g>
<!-- Node17&#45;&gt;Node19 -->
<g id="edge33" class="edge"><title>Node17&#45;&gt;Node19</title>
<path fill="none" stroke="midnightblue" d="M758.289,-395.244C811.069,-387.014 910.548,-371.193 995,-356 997.065,-355.629 999.18,-355.241 1001.32,-354.843"/>
<polygon fill="midnightblue" stroke="midnightblue" points="1002.16,-358.246 1011.33,-352.942 1000.85,-351.368 1002.16,-358.246"/>
</g>
<!-- Node20 -->
<g id="node21" class="node"><title>Node20</title>
<g id="a_node21"><a xlink:href="Music_8h.html" target="_top" xlink:title="Music.h">
<polygon fill="white" stroke="black" points="568.5,-280.5 568.5,-299.5 619.5,-299.5 619.5,-280.5 568.5,-280.5"/>
<text text-anchor="middle" x="594" y="-287.5" font-family="Helvetica,sans-Serif" font-size="10.00">Music.h</text>
</a>
</g>
</g>
<!-- Node17&#45;&gt;Node20 -->
<g id="edge40" class="edge"><title>Node17&#45;&gt;Node20</title>
<path fill="none" stroke="midnightblue" d="M711.029,-392.375C700.56,-383.319 683.62,-368.662 669,-356 649.438,-339.059 627.015,-319.624 611.821,-306.452"/>
<polygon fill="midnightblue" stroke="midnightblue" points="614.037,-303.74 604.188,-299.834 609.451,-309.029 614.037,-303.74"/>
</g>
<!-- Node25 -->
<g id="node26" class="node"><title>Node25</title>
<g id="a_node26"><a xlink:href="EndState_8h.html" target="_top" xlink:title="EndState.h">
<polygon fill="white" stroke="black" points="499.5,-336.5 499.5,-355.5 564.5,-355.5 564.5,-336.5 499.5,-336.5"/>
<text text-anchor="middle" x="532" y="-343.5" font-family="Helvetica,sans-Serif" font-size="10.00">EndState.h</text>
</a>
</g>
</g>
<!-- Node17&#45;&gt;Node25 -->
<g id="edge49" class="edge"><title>Node17&#45;&gt;Node25</title>
<path fill="none" stroke="midnightblue" d="M685.964,-392.444C651.882,-383.28 600.622,-368.688 566.67,-358.519"/>
<polygon fill="midnightblue" stroke="midnightblue" points="567.312,-355.057 556.728,-355.516 565.289,-361.758 567.312,-355.057"/>
</g>
<!-- Node18&#45;&gt;Node7 -->
<g id="edge31" class="edge"><title>Node18&#45;&gt;Node7</title>
<path fill="none" stroke="midnightblue" d="M1011.58,-280.139C1003.26,-251.406 973.155,-159.909 915,-112 884.233,-86.654 838.74,-75.4288 808.741,-70.564"/>
<polygon fill="midnightblue" stroke="midnightblue" points="809.231,-67.0984 798.826,-69.0957 808.205,-74.0229 809.231,-67.0984"/>
</g>
<!-- Node18&#45;&gt;Node10 -->
<g id="edge32" class="edge"><title>Node18&#45;&gt;Node10</title>
<path fill="none" stroke="midnightblue" d="M998.897,-280.324C984.097,-271.822 961.306,-258.729 944.018,-248.797"/>
<polygon fill="midnightblue" stroke="midnightblue" points="945.48,-245.601 935.065,-243.655 941.993,-251.671 945.48,-245.601"/>
</g>
<!-- Node19&#45;&gt;Node7 -->
<g id="edge34" class="edge"><title>Node19&#45;&gt;Node7</title>
<path fill="none" stroke="midnightblue" d="M1044.78,-336.351C1052.42,-318.034 1069,-273.821 1069,-235 1069,-235 1069,-235 1069,-177 1069,-121.918 884.269,-84.78 809.177,-71.9588"/>
<polygon fill="midnightblue" stroke="midnightblue" points="809.368,-68.4424 798.928,-70.2444 808.213,-75.3464 809.368,-68.4424"/>
</g>
<!-- Node19&#45;&gt;Node8 -->
<g id="edge35" class="edge"><title>Node19&#45;&gt;Node8</title>
<path fill="none" stroke="midnightblue" d="M1052.1,-336.229C1061.79,-327.942 1075.46,-314.629 1083,-300 1110.24,-247.137 1116.88,-175.463 1118.49,-141.858"/>
<polygon fill="midnightblue" stroke="midnightblue" points="1121.99,-141.777 1118.87,-131.652 1115,-141.512 1121.99,-141.777"/>
</g>
<!-- Node19&#45;&gt;Node18 -->
<g id="edge36" class="edge"><title>Node19&#45;&gt;Node18</title>
<path fill="none" stroke="midnightblue" d="M1036.54,-336.083C1032.85,-328.691 1027.48,-317.953 1022.91,-308.811"/>
<polygon fill="midnightblue" stroke="midnightblue" points="1025.98,-307.13 1018.38,-299.751 1019.72,-310.261 1025.98,-307.13"/>
</g>
<!-- Node20&#45;&gt;Node7 -->
<g id="edge41" class="edge"><title>Node20&#45;&gt;Node7</title>
<path fill="none" stroke="midnightblue" d="M604.111,-280.37C622.983,-263.883 664.09,-226.141 691,-188 712.771,-157.142 706.272,-142.16 729,-112 737.387,-100.87 748.753,-90.2358 758.427,-82.1018"/>
<polygon fill="midnightblue" stroke="midnightblue" points="760.818,-84.6686 766.375,-75.6479 756.405,-79.2344 760.818,-84.6686"/>
</g>
<!-- Node21 -->
<g id="node22" class="node"><title>Node21</title>
<g id="a_node22"><a xlink:href="Resources_8h.html" target="_top" xlink:title="Resources.h">
<polygon fill="white" stroke="black" points="396,-168.5 396,-187.5 468,-187.5 468,-168.5 396,-168.5"/>
<text text-anchor="middle" x="432" y="-175.5" font-family="Helvetica,sans-Serif" font-size="10.00">Resources.h</text>
</a>
</g>
</g>
<!-- Node20&#45;&gt;Node21 -->
<g id="edge42" class="edge"><title>Node20&#45;&gt;Node21</title>
<path fill="none" stroke="midnightblue" d="M581.288,-280.368C553.489,-261.492 487.058,-216.385 452.967,-193.237"/>
<polygon fill="midnightblue" stroke="midnightblue" points="454.892,-190.313 444.653,-187.591 450.96,-196.105 454.892,-190.313"/>
</g>
<!-- Node22 -->
<g id="node23" class="node"><title>Node22</title>
<g id="a_node23"><a xlink:href="Error_8h.html" target="_top" xlink:title="Error.h">
<polygon fill="white" stroke="black" points="571,-224.5 571,-243.5 617,-243.5 617,-224.5 571,-224.5"/>
<text text-anchor="middle" x="594" y="-231.5" font-family="Helvetica,sans-Serif" font-size="10.00">Error.h</text>
</a>
</g>
</g>
<!-- Node20&#45;&gt;Node22 -->
<g id="edge46" class="edge"><title>Node20&#45;&gt;Node22</title>
<path fill="none" stroke="midnightblue" d="M594,-280.083C594,-273.006 594,-262.861 594,-253.986"/>
<polygon fill="midnightblue" stroke="midnightblue" points="597.5,-253.751 594,-243.751 590.5,-253.751 597.5,-253.751"/>
</g>
<!-- Node21&#45;&gt;Node7 -->
<g id="edge43" class="edge"><title>Node21&#45;&gt;Node7</title>
<path fill="none" stroke="midnightblue" d="M458.862,-168.46C522.162,-148.336 680.379,-98.0355 747.319,-76.7541"/>
<polygon fill="midnightblue" stroke="midnightblue" points="748.78,-79.9622 757.25,-73.5968 746.66,-73.2912 748.78,-79.9622"/>
</g>
<!-- Node21&#45;&gt;Node9 -->
<g id="edge45" class="edge"><title>Node21&#45;&gt;Node9</title>
<path fill="none" stroke="midnightblue" d="M468.035,-170.426C472.731,-169.595 477.478,-168.768 482,-168 570.21,-153.025 674.195,-136.8 727.877,-128.529"/>
<polygon fill="midnightblue" stroke="midnightblue" points="728.571,-131.964 737.923,-126.984 727.507,-125.045 728.571,-131.964"/>
</g>
<!-- Node21&#45;&gt;Node13 -->
<g id="edge44" class="edge"><title>Node21&#45;&gt;Node13</title>
<path fill="none" stroke="midnightblue" d="M403.795,-168.444C373.59,-159.28 325.489,-144.688 291.971,-134.519"/>
<polygon fill="midnightblue" stroke="midnightblue" points="292.658,-131.07 282.073,-131.516 290.626,-137.769 292.658,-131.07"/>
</g>
<!-- Node23 -->
<g id="node24" class="node"><title>Node23</title>
<polygon fill="white" stroke="#bfbfbf" points="628,-168.5 628,-187.5 682,-187.5 682,-168.5 628,-168.5"/>
<text text-anchor="middle" x="655" y="-175.5" font-family="Helvetica,sans-Serif" font-size="10.00">iostream</text>
</g>
<!-- Node22&#45;&gt;Node23 -->
<g id="edge47" class="edge"><title>Node22&#45;&gt;Node23</title>
<path fill="none" stroke="midnightblue" d="M603.801,-224.324C612.818,-216.341 626.406,-204.313 637.318,-194.653"/>
<polygon fill="midnightblue" stroke="midnightblue" points="639.853,-197.083 645.021,-187.834 635.213,-191.842 639.853,-197.083"/>
</g>
<!-- Node24 -->
<g id="node25" class="node"><title>Node24</title>
<polygon fill="white" stroke="#bfbfbf" points="562,-168.5 562,-187.5 610,-187.5 610,-168.5 562,-168.5"/>
<text text-anchor="middle" x="586" y="-175.5" font-family="Helvetica,sans-Serif" font-size="10.00">stdlib.h</text>
</g>
<!-- Node22&#45;&gt;Node24 -->
<g id="edge48" class="edge"><title>Node22&#45;&gt;Node24</title>
<path fill="none" stroke="midnightblue" d="M592.679,-224.083C591.619,-216.927 590.094,-206.635 588.769,-197.691"/>
<polygon fill="midnightblue" stroke="midnightblue" points="592.224,-197.13 587.296,-187.751 585.3,-198.156 592.224,-197.13"/>
</g>
<!-- Node25&#45;&gt;Node3 -->
<g id="edge50" class="edge"><title>Node25&#45;&gt;Node3</title>
<path fill="none" stroke="midnightblue" d="M529.781,-336.103C523.171,-307.258 506.816,-215.459 553,-168 589.65,-130.338 729.839,-139.978 798.299,-131.811"/>
<polygon fill="midnightblue" stroke="midnightblue" points="798.84,-135.269 808.251,-130.403 797.859,-128.338 798.84,-135.269"/>
</g>
<!-- Node25&#45;&gt;Node10 -->
<g id="edge51" class="edge"><title>Node25&#45;&gt;Node10</title>
<path fill="none" stroke="midnightblue" d="M562.123,-336.46C632.865,-316.404 809.321,-266.378 884.823,-244.973"/>
<polygon fill="midnightblue" stroke="midnightblue" points="886.119,-248.243 894.785,-242.149 884.21,-241.509 886.119,-248.243"/>
</g>
<!-- Node25&#45;&gt;Node12 -->
<g id="edge63" class="edge"><title>Node25&#45;&gt;Node12</title>
<path fill="none" stroke="midnightblue" d="M499.233,-343.313C420.779,-338.906 224.203,-325.576 164,-300 127.649,-284.557 111.984,-279.657 95,-244 88.042,-229.392 91.575,-210.985 96.0998,-197.492"/>
<polygon fill="midnightblue" stroke="midnightblue" points="99.4685,-198.481 99.7598,-187.89 92.9275,-195.987 99.4685,-198.481"/>
</g>
<!-- Node25&#45;&gt;Node17 -->
<g id="edge64" class="edge"><title>Node25&#45;&gt;Node17</title>
<path fill="none" stroke="midnightblue" d="M564.595,-354.902C598.657,-364.019 651.641,-379.09 686.412,-389.506"/>
<polygon fill="midnightblue" stroke="midnightblue" points="685.556,-392.903 696.141,-392.444 687.58,-386.202 685.556,-392.903"/>
</g>
<!-- Node25&#45;&gt;Node20 -->
<g id="edge52" class="edge"><title>Node25&#45;&gt;Node20</title>
<path fill="none" stroke="midnightblue" d="M541.961,-336.324C551.127,-328.341 564.937,-316.313 576.028,-306.653"/>
<polygon fill="midnightblue" stroke="midnightblue" points="578.615,-309.041 583.857,-299.834 574.018,-303.762 578.615,-309.041"/>
</g>
<!-- Node26 -->
<g id="node27" class="node"><title>Node26</title>
<g id="a_node27"><a xlink:href="Text_8h.html" target="_top" xlink:title="Text.h">
<polygon fill="white" stroke="black" points="407,-280.5 407,-299.5 451,-299.5 451,-280.5 407,-280.5"/>
<text text-anchor="middle" x="429" y="-287.5" font-family="Helvetica,sans-Serif" font-size="10.00">Text.h</text>
</a>
</g>
</g>
<!-- Node25&#45;&gt;Node26 -->
<g id="edge53" class="edge"><title>Node25&#45;&gt;Node26</title>
<path fill="none" stroke="midnightblue" d="M515.451,-336.324C499.008,-327.703 473.565,-314.364 454.532,-304.386"/>
<polygon fill="midnightblue" stroke="midnightblue" points="455.989,-301.198 445.508,-299.655 452.739,-307.398 455.989,-301.198"/>
</g>
<!-- Node27 -->
<g id="node28" class="node"><title>Node27</title>
<g id="a_node28"><a xlink:href="EndStateData_8h.html" target="_top" xlink:title="EndStateData.h">
<polygon fill="white" stroke="black" points="173,-280.5 173,-299.5 259,-299.5 259,-280.5 173,-280.5"/>
<text text-anchor="middle" x="216" y="-287.5" font-family="Helvetica,sans-Serif" font-size="10.00">EndStateData.h</text>
</a>
</g>
</g>
<!-- Node25&#45;&gt;Node27 -->
<g id="edge60" class="edge"><title>Node25&#45;&gt;Node27</title>
<path fill="none" stroke="midnightblue" d="M499.373,-339.424C444.963,-330.127 335.193,-311.368 269.389,-300.123"/>
<polygon fill="midnightblue" stroke="midnightblue" points="269.667,-296.62 259.22,-298.386 268.488,-303.52 269.667,-296.62"/>
</g>
<!-- Node26&#45;&gt;Node4 -->
<g id="edge54" class="edge"><title>Node26&#45;&gt;Node4</title>
<path fill="none" stroke="midnightblue" d="M413.578,-280.392C400.736,-272.486 382.856,-259.64 372,-244 337.258,-193.946 327.635,-119.818 324.99,-85.5785"/>
<polygon fill="midnightblue" stroke="midnightblue" points="328.482,-85.3376 324.335,-75.5883 321.497,-85.796 328.482,-85.3376"/>
</g>
<!-- Node26&#45;&gt;Node7 -->
<g id="edge56" class="edge"><title>Node26&#45;&gt;Node7</title>
<path fill="none" stroke="midnightblue" d="M420.889,-280.252C402.282,-259.102 360.127,-204.269 387,-168 430.579,-109.184 663.221,-79.1185 747.493,-70.034"/>
<polygon fill="midnightblue" stroke="midnightblue" points="747.887,-73.512 757.465,-68.9829 747.153,-66.5505 747.887,-73.512"/>
</g>
<!-- Node26&#45;&gt;Node9 -->
<g id="edge55" class="edge"><title>Node26&#45;&gt;Node9</title>
<path fill="none" stroke="midnightblue" d="M432.789,-280.217C443.09,-257.481 473.957,-196.494 520,-168 554.208,-146.83 668.394,-132.596 727.637,-126.447"/>
<polygon fill="midnightblue" stroke="midnightblue" points="728.09,-129.919 737.685,-125.427 727.383,-122.955 728.09,-129.919"/>
</g>
<!-- Node26&#45;&gt;Node15 -->
<g id="edge58" class="edge"><title>Node26&#45;&gt;Node15</title>
<path fill="none" stroke="midnightblue" d="M407.609,-280.444C385.293,-271.517 350.097,-257.439 324.792,-247.317"/>
<polygon fill="midnightblue" stroke="midnightblue" points="325.876,-243.981 315.291,-243.516 323.276,-250.48 325.876,-243.981"/>
</g>
<!-- Node26&#45;&gt;Node21 -->
<g id="edge57" class="edge"><title>Node26&#45;&gt;Node21</title>
<path fill="none" stroke="midnightblue" d="M429.235,-280.368C429.72,-262.617 430.836,-221.666 431.493,-197.597"/>
<polygon fill="midnightblue" stroke="midnightblue" points="434.992,-197.683 431.766,-187.591 427.994,-197.492 434.992,-197.683"/>
</g>
<!-- Node26&#45;&gt;Node22 -->
<g id="edge59" class="edge"><title>Node26&#45;&gt;Node22</title>
<path fill="none" stroke="midnightblue" d="M451.253,-281.717C479.553,-272.456 528.649,-256.388 561.233,-245.724"/>
<polygon fill="midnightblue" stroke="midnightblue" points="562.358,-249.038 570.774,-242.601 560.181,-242.385 562.358,-249.038"/>
</g>
<!-- Node28 -->
<g id="node29" class="node"><title>Node28</title>
<g id="a_node29"><a xlink:href="StateData_8h.html" target="_top" xlink:title="StateData.h">
<polygon fill="white" stroke="black" points="181.5,-224.5 181.5,-243.5 250.5,-243.5 250.5,-224.5 181.5,-224.5"/>
<text text-anchor="middle" x="216" y="-231.5" font-family="Helvetica,sans-Serif" font-size="10.00">StateData.h</text>
</a>
</g>
</g>
<!-- Node27&#45;&gt;Node28 -->
<g id="edge61" class="edge"><title>Node27&#45;&gt;Node28</title>
<path fill="none" stroke="midnightblue" d="M216,-280.083C216,-273.006 216,-262.861 216,-253.986"/>
<polygon fill="midnightblue" stroke="midnightblue" points="219.5,-253.751 216,-243.751 212.5,-253.751 219.5,-253.751"/>
</g>
<!-- Node29 -->
<g id="node30" class="node"><title>Node29</title>
<g id="a_node30"><a xlink:href="Defines_8h.html" target="_top" xlink:title="Defines.h">
<polygon fill="white" stroke="black" points="104.5,-224.5 104.5,-243.5 163.5,-243.5 163.5,-224.5 104.5,-224.5"/>
<text text-anchor="middle" x="134" y="-231.5" font-family="Helvetica,sans-Serif" font-size="10.00">Defines.h</text>
</a>
</g>
</g>
<!-- Node27&#45;&gt;Node29 -->
<g id="edge62" class="edge"><title>Node27&#45;&gt;Node29</title>
<path fill="none" stroke="midnightblue" d="M202.825,-280.324C190.153,-271.979 170.767,-259.212 155.794,-249.352"/>
<polygon fill="midnightblue" stroke="midnightblue" points="157.419,-246.231 147.142,-243.655 153.569,-252.078 157.419,-246.231"/>
</g>
</g>
</svg>
