<?xml version="1.0" encoding="UTF-8" standalone="no"?>
<!DOCTYPE svg PUBLIC "-//W3C//DTD SVG 1.1//EN"
 "http://www.w3.org/Graphics/SVG/1.1/DTD/svg11.dtd">
<!-- Generated by graphviz version 2.36.0 (20140111.2315)
 -->
<!-- Title: Game/src/TitleState.cpp Pages: 1 -->
<svg width="3162pt" height="532pt"
 viewBox="0.00 0.00 3161.53 532.00" xmlns="http://www.w3.org/2000/svg" xmlns:xlink="http://www.w3.org/1999/xlink">
<g id="graph0" class="graph" transform="scale(1 1) rotate(0) translate(4 528)">
<title>Game/src/TitleState.cpp</title>
<polygon fill="white" stroke="none" points="-4,4 -4,-528 3157.53,-528 3157.53,4 -4,4"/>
<!-- Node1 -->
<g id="node1" class="node"><title>Node1</title>
<polygon fill="#bfbfbf" stroke="black" points="74.5,-504.5 74.5,-523.5 197.5,-523.5 197.5,-504.5 74.5,-504.5"/>
<text text-anchor="middle" x="136" y="-511.5" font-family="Helvetica,sans-Serif" font-size="10.00">Game/src/TitleState.cpp</text>
</g>
<!-- Node2 -->
<g id="node2" class="node"><title>Node2</title>
<g id="a_node2"><a xlink:href="TitleState_8h.html" target="_top" xlink:title="TitleState.h">
<polygon fill="white" stroke="black" points="2026.5,-392.5 2026.5,-411.5 2093.5,-411.5 2093.5,-392.5 2026.5,-392.5"/>
<text text-anchor="middle" x="2060" y="-399.5" font-family="Helvetica,sans-Serif" font-size="10.00">TitleState.h</text>
</a>
</g>
</g>
<!-- Node1&#45;&gt;Node2 -->
<g id="edge1" class="edge"><title>Node1&#45;&gt;Node2</title>
<path fill="none" stroke="midnightblue" d="M197.712,-512.077C382.023,-509.049 944.527,-497.846 1410,-468 1678.16,-450.806 1745.88,-449.244 2012,-412 2013.47,-411.794 2014.96,-411.575 2016.47,-411.344"/>
<polygon fill="midnightblue" stroke="midnightblue" points="2017.2,-414.771 2026.5,-409.691 2016.06,-407.864 2017.2,-414.771"/>
</g>
<!-- Node4 -->
<g id="node4" class="node"><title>Node4</title>
<g id="a_node4"><a xlink:href="InputManager_8h.html" target="_top" xlink:title="InputManager.h">
<polygon fill="white" stroke="black" points="500,-112.5 500,-131.5 584,-131.5 584,-112.5 500,-112.5"/>
<text text-anchor="middle" x="542" y="-119.5" font-family="Helvetica,sans-Serif" font-size="10.00">InputManager.h</text>
</a>
</g>
</g>
<!-- Node1&#45;&gt;Node4 -->
<g id="edge96" class="edge"><title>Node1&#45;&gt;Node4</title>
<path fill="none" stroke="midnightblue" d="M108.15,-504.478C68.3616,-490.372 0,-458.117 0,-403 0,-403 0,-403 0,-233 0,-133.691 353.896,-123.051 489.757,-122.626"/>
<polygon fill="midnightblue" stroke="midnightblue" points="489.926,-126.126 499.921,-122.612 489.916,-119.126 489.926,-126.126"/>
</g>
<!-- Node32 -->
<g id="node32" class="node"><title>Node32</title>
<g id="a_node32"><a xlink:href="Camera_8h.html" target="_top" xlink:title="Camera.h">
<polygon fill="white" stroke="black" points="722.5,-280.5 722.5,-299.5 781.5,-299.5 781.5,-280.5 722.5,-280.5"/>
<text text-anchor="middle" x="752" y="-287.5" font-family="Helvetica,sans-Serif" font-size="10.00">Camera.h</text>
</a>
</g>
</g>
<!-- Node1&#45;&gt;Node32 -->
<g id="edge85" class="edge"><title>Node1&#45;&gt;Node32</title>
<path fill="none" stroke="midnightblue" d="M147.896,-504.434C188.823,-475.424 328.496,-380.241 459,-336 546.18,-306.446 654.572,-296.222 711.974,-292.745"/>
<polygon fill="midnightblue" stroke="midnightblue" points="712.297,-296.232 722.083,-292.171 711.9,-289.244 712.297,-296.232"/>
</g>
<!-- Node33 -->
<g id="node33" class="node"><title>Node33</title>
<g id="a_node33"><a xlink:href="Game_8h.html" target="_top" xlink:title="Game.h">
<polygon fill="white" stroke="black" points="94.5,-280.5 94.5,-299.5 145.5,-299.5 145.5,-280.5 94.5,-280.5"/>
<text text-anchor="middle" x="120" y="-287.5" font-family="Helvetica,sans-Serif" font-size="10.00">Game.h</text>
</a>
</g>
</g>
<!-- Node1&#45;&gt;Node33 -->
<g id="edge89" class="edge"><title>Node1&#45;&gt;Node33</title>
<path fill="none" stroke="midnightblue" d="M132.431,-504.217C128.999,-495.276 124.04,-480.931 122,-468 113.001,-410.955 116.136,-342.282 118.44,-309.792"/>
<polygon fill="midnightblue" stroke="midnightblue" points="121.951,-309.786 119.227,-299.547 114.971,-309.25 121.951,-309.786"/>
</g>
<!-- Node35 -->
<g id="node35" class="node"><title>Node35</title>
<g id="a_node35"><a xlink:href="StageState_8h.html" target="_top" xlink:title="StageState.h">
<polygon fill="white" stroke="black" points="1327,-448.5 1327,-467.5 1401,-467.5 1401,-448.5 1327,-448.5"/>
<text text-anchor="middle" x="1364" y="-455.5" font-family="Helvetica,sans-Serif" font-size="10.00">StageState.h</text>
</a>
</g>
</g>
<!-- Node1&#45;&gt;Node35 -->
<g id="edge97" class="edge"><title>Node1&#45;&gt;Node35</title>
<path fill="none" stroke="midnightblue" d="M197.738,-510.285C412.66,-500.834 1125.35,-469.495 1316.48,-461.09"/>
<polygon fill="midnightblue" stroke="midnightblue" points="1316.92,-464.574 1326.76,-460.638 1316.61,-457.581 1316.92,-464.574"/>
</g>
<!-- Node3 -->
<g id="node3" class="node"><title>Node3</title>
<g id="a_node3"><a xlink:href="ActionManager_8h.html" target="_top" xlink:title="ActionManager.h">
<polygon fill="white" stroke="black" points="316,-224.5 316,-243.5 406,-243.5 406,-224.5 316,-224.5"/>
<text text-anchor="middle" x="361" y="-231.5" font-family="Helvetica,sans-Serif" font-size="10.00">ActionManager.h</text>
</a>
</g>
</g>
<!-- Node2&#45;&gt;Node3 -->
<g id="edge2" class="edge"><title>Node2&#45;&gt;Node3</title>
<path fill="none" stroke="midnightblue" d="M2026.17,-396.576C2011.67,-394.853 1994.53,-393.045 1979,-392 1894.72,-386.331 534.805,-393.262 459,-356 414.255,-334.006 383.116,-280.897 369.203,-252.924"/>
<polygon fill="midnightblue" stroke="midnightblue" points="372.193,-251.063 364.722,-243.55 365.878,-254.082 372.193,-251.063"/>
</g>
<!-- Node9 -->
<g id="node9" class="node"><title>Node9</title>
<g id="a_node9"><a xlink:href="Rect_8h.html" target="_top" xlink:title="Rect.h">
<polygon fill="white" stroke="black" points="2624,-112.5 2624,-131.5 2670,-131.5 2670,-112.5 2624,-112.5"/>
<text text-anchor="middle" x="2647" y="-119.5" font-family="Helvetica,sans-Serif" font-size="10.00">Rect.h</text>
</a>
</g>
</g>
<!-- Node2&#45;&gt;Node9 -->
<g id="edge9" class="edge"><title>Node2&#45;&gt;Node9</title>
<path fill="none" stroke="midnightblue" d="M2093.51,-400.459C2259.71,-397.649 2989.23,-383.763 3028,-356 3076.76,-321.083 3080.57,-278.709 3056,-224 3040.65,-189.825 3027.08,-183.549 2993,-168 2937.71,-142.779 2756.57,-129.451 2680.79,-124.865"/>
<polygon fill="midnightblue" stroke="midnightblue" points="2680.6,-121.347 2670.41,-124.252 2680.18,-128.335 2680.6,-121.347"/>
</g>
<!-- Node11 -->
<g id="node11" class="node"><title>Node11</title>
<g id="a_node11"><a xlink:href="UIimage_8h.html" target="_top" xlink:title="UIimage.h">
<polygon fill="white" stroke="black" points="2846,-280.5 2846,-299.5 2908,-299.5 2908,-280.5 2846,-280.5"/>
<text text-anchor="middle" x="2877" y="-287.5" font-family="Helvetica,sans-Serif" font-size="10.00">UIimage.h</text>
</a>
</g>
</g>
<!-- Node2&#45;&gt;Node11 -->
<g id="edge13" class="edge"><title>Node2&#45;&gt;Node11</title>
<path fill="none" stroke="midnightblue" d="M2093.52,-398.694C2169.93,-393.23 2362.82,-378.261 2523,-356 2661.24,-336.788 2694.9,-326.132 2832,-300 2833.1,-299.791 2834.21,-299.578 2835.33,-299.362"/>
<polygon fill="midnightblue" stroke="midnightblue" points="2836.4,-302.719 2845.54,-297.367 2835.06,-295.849 2836.4,-302.719"/>
</g>
<!-- Node17 -->
<g id="node17" class="node"><title>Node17</title>
<g id="a_node17"><a xlink:href="UIcanvas_8h.html" target="_top" xlink:title="UIcanvas.h">
<polygon fill="white" stroke="black" points="2379.5,-280.5 2379.5,-299.5 2446.5,-299.5 2446.5,-280.5 2379.5,-280.5"/>
<text text-anchor="middle" x="2413" y="-287.5" font-family="Helvetica,sans-Serif" font-size="10.00">UIcanvas.h</text>
</a>
</g>
</g>
<!-- Node2&#45;&gt;Node17 -->
<g id="edge29" class="edge"><title>Node2&#45;&gt;Node17</title>
<path fill="none" stroke="midnightblue" d="M2093.53,-398.585C2160.37,-393.328 2307.59,-379.406 2352,-356 2373.09,-344.886 2390.88,-323.615 2401.71,-308.433"/>
<polygon fill="midnightblue" stroke="midnightblue" points="2404.78,-310.146 2407.52,-299.912 2399,-306.202 2404.78,-310.146"/>
</g>
<!-- Node18 -->
<g id="node18" class="node"><title>Node18</title>
<g id="a_node18"><a xlink:href="UItext_8h.html" target="_top" xlink:title="UItext.h">
<polygon fill="white" stroke="black" points="2005,-280.5 2005,-299.5 2057,-299.5 2057,-280.5 2005,-280.5"/>
<text text-anchor="middle" x="2031" y="-287.5" font-family="Helvetica,sans-Serif" font-size="10.00">UItext.h</text>
</a>
</g>
</g>
<!-- Node2&#45;&gt;Node18 -->
<g id="edge34" class="edge"><title>Node2&#45;&gt;Node18</title>
<path fill="none" stroke="midnightblue" d="M2057.72,-392.368C2053.02,-374.537 2042.15,-333.295 2035.82,-309.272"/>
<polygon fill="midnightblue" stroke="midnightblue" points="2039.2,-308.369 2033.27,-299.591 2032.43,-310.153 2039.2,-308.369"/>
</g>
<!-- Node20 -->
<g id="node20" class="node"><title>Node20</title>
<g id="a_node20"><a xlink:href="UItextButton_8h.html" target="_top" xlink:title="UItextButton.h">
<polygon fill="white" stroke="black" points="2263,-336.5 2263,-355.5 2343,-355.5 2343,-336.5 2263,-336.5"/>
<text text-anchor="middle" x="2303" y="-343.5" font-family="Helvetica,sans-Serif" font-size="10.00">UItextButton.h</text>
</a>
</g>
</g>
<!-- Node2&#45;&gt;Node20 -->
<g id="edge41" class="edge"><title>Node2&#45;&gt;Node20</title>
<path fill="none" stroke="midnightblue" d="M2093.53,-393.548C2135.35,-384.256 2207.12,-368.307 2254.82,-357.708"/>
<polygon fill="midnightblue" stroke="midnightblue" points="2255.61,-361.117 2264.61,-355.531 2254.09,-354.284 2255.61,-361.117"/>
</g>
<!-- Node22 -->
<g id="node22" class="node"><title>Node22</title>
<g id="a_node22"><a xlink:href="UIverticalGroup_8h.html" target="_top" xlink:title="UIverticalGroup.h">
<polygon fill="white" stroke="black" points="2113.5,-336.5 2113.5,-355.5 2206.5,-355.5 2206.5,-336.5 2113.5,-336.5"/>
<text text-anchor="middle" x="2160" y="-343.5" font-family="Helvetica,sans-Serif" font-size="10.00">UIverticalGroup.h</text>
</a>
</g>
</g>
<!-- Node2&#45;&gt;Node22 -->
<g id="edge49" class="edge"><title>Node2&#45;&gt;Node22</title>
<path fill="none" stroke="midnightblue" d="M2076.07,-392.324C2091.96,-383.743 2116.51,-370.486 2134.96,-360.522"/>
<polygon fill="midnightblue" stroke="midnightblue" points="2136.84,-363.486 2143.97,-355.655 2133.51,-357.326 2136.84,-363.486"/>
</g>
<!-- Node24 -->
<g id="node24" class="node"><title>Node24</title>
<g id="a_node24"><a xlink:href="State_8h.html" target="_top" xlink:title="State.h">
<polygon fill="white" stroke="black" points="646,-224.5 646,-243.5 694,-243.5 694,-224.5 646,-224.5"/>
<text text-anchor="middle" x="670" y="-231.5" font-family="Helvetica,sans-Serif" font-size="10.00">State.h</text>
</a>
</g>
</g>
<!-- Node2&#45;&gt;Node24 -->
<g id="edge55" class="edge"><title>Node2&#45;&gt;Node24</title>
<path fill="none" stroke="midnightblue" d="M2026.16,-396.622C2011.66,-394.907 1994.53,-393.092 1979,-392 1844.94,-382.572 895.088,-405.137 770,-356 722.784,-337.453 691.362,-281.906 677.728,-252.971"/>
<polygon fill="midnightblue" stroke="midnightblue" points="680.817,-251.307 673.514,-243.632 674.437,-254.187 680.817,-251.307"/>
</g>
<!-- Node29 -->
<g id="node29" class="node"><title>Node29</title>
<g id="a_node29"><a xlink:href="Sound_8h.html" target="_top" xlink:title="Sound.h">
<polygon fill="white" stroke="black" points="1596.5,-168.5 1596.5,-187.5 1649.5,-187.5 1649.5,-168.5 1596.5,-168.5"/>
<text text-anchor="middle" x="1623" y="-175.5" font-family="Helvetica,sans-Serif" font-size="10.00">Sound.h</text>
</a>
</g>
</g>
<!-- Node2&#45;&gt;Node29 -->
<g id="edge74" class="edge"><title>Node2&#45;&gt;Node29</title>
<path fill="none" stroke="midnightblue" d="M2049.73,-392.245C2030.5,-375.548 1988.37,-337.471 1959,-300 1934.64,-268.926 1945.98,-245.714 1913,-224 1818.68,-161.895 1770.43,-209.402 1659.52,-188.968"/>
<polygon fill="midnightblue" stroke="midnightblue" points="1660.15,-185.525 1649.65,-187.004 1658.78,-192.39 1660.15,-185.525"/>
</g>
<!-- Node30 -->
<g id="node30" class="node"><title>Node30</title>
<g id="a_node30"><a xlink:href="Music_8h.html" target="_top" xlink:title="Music.h">
<polygon fill="white" stroke="black" points="538.5,-224.5 538.5,-243.5 589.5,-243.5 589.5,-224.5 538.5,-224.5"/>
<text text-anchor="middle" x="564" y="-231.5" font-family="Helvetica,sans-Serif" font-size="10.00">Music.h</text>
</a>
</g>
</g>
<!-- Node2&#45;&gt;Node30 -->
<g id="edge78" class="edge"><title>Node2&#45;&gt;Node30</title>
<path fill="none" stroke="midnightblue" d="M2026.16,-396.616C2011.66,-394.9 1994.53,-393.086 1979,-392 1841.17,-382.363 867.111,-399.596 736,-356 670.413,-334.192 607.769,-278.467 579.582,-250.915"/>
<polygon fill="midnightblue" stroke="midnightblue" points="581.829,-248.214 572.273,-243.639 576.891,-253.175 581.829,-248.214"/>
</g>
<!-- Node3&#45;&gt;Node4 -->
<g id="edge3" class="edge"><title>Node3&#45;&gt;Node4</title>
<path fill="none" stroke="midnightblue" d="M344.488,-224.429C322.743,-212.043 289.133,-188.388 306,-168 328.857,-140.373 427.458,-129.558 489.755,-125.433"/>
<polygon fill="midnightblue" stroke="midnightblue" points="490.041,-128.923 499.803,-124.805 489.604,-121.936 490.041,-128.923"/>
</g>
<!-- Node5 -->
<g id="node5" class="node"><title>Node5</title>
<g id="a_node5"><a xlink:href="SDL__include_8h.html" target="_top" xlink:title="SDL_include.h">
<polygon fill="white" stroke="black" points="1311,-0.5 1311,-19.5 1391,-19.5 1391,-0.5 1311,-0.5"/>
<text text-anchor="middle" x="1351" y="-7.5" font-family="Helvetica,sans-Serif" font-size="10.00">SDL_include.h</text>
</a>
</g>
</g>
<!-- Node4&#45;&gt;Node5 -->
<g id="edge4" class="edge"><title>Node4&#45;&gt;Node5</title>
<path fill="none" stroke="midnightblue" d="M541.352,-112.16C540.844,-97.8276 542.211,-69.7409 559,-56 616.228,-9.16316 1134.93,-9.24211 1300.47,-10.4816"/>
<polygon fill="midnightblue" stroke="midnightblue" points="1300.83,-13.9844 1310.86,-10.5644 1300.89,-6.98466 1300.83,-13.9844"/>
</g>
<!-- Node6 -->
<g id="node6" class="node"><title>Node6</title>
<g id="a_node6"><a xlink:href="Vec2_8h.html" target="_top" xlink:title="Vec2.h">
<polygon fill="white" stroke="black" points="1464.5,-56.5 1464.5,-75.5 1511.5,-75.5 1511.5,-56.5 1464.5,-56.5"/>
<text text-anchor="middle" x="1488" y="-63.5" font-family="Helvetica,sans-Serif" font-size="10.00">Vec2.h</text>
</a>
</g>
</g>
<!-- Node4&#45;&gt;Node6 -->
<g id="edge5" class="edge"><title>Node4&#45;&gt;Node6</title>
<path fill="none" stroke="midnightblue" d="M584.226,-113.007C586.852,-112.632 589.459,-112.291 592,-112 926.62,-73.6408 1335.26,-67.9773 1454.1,-67.1434"/>
<polygon fill="midnightblue" stroke="midnightblue" points="1454.4,-70.6417 1464.37,-67.0786 1454.35,-63.6418 1454.4,-70.6417"/>
</g>
<!-- Node7 -->
<g id="node7" class="node"><title>Node7</title>
<polygon fill="white" stroke="#bfbfbf" points="568.5,-56.5 568.5,-75.5 651.5,-75.5 651.5,-56.5 568.5,-56.5"/>
<text text-anchor="middle" x="610" y="-63.5" font-family="Helvetica,sans-Serif" font-size="10.00">unordered_map</text>
</g>
<!-- Node4&#45;&gt;Node7 -->
<g id="edge7" class="edge"><title>Node4&#45;&gt;Node7</title>
<path fill="none" stroke="midnightblue" d="M552.925,-112.324C563.175,-104.185 578.721,-91.8395 591.001,-82.0874"/>
<polygon fill="midnightblue" stroke="midnightblue" points="593.221,-84.7937 598.876,-75.8339 588.868,-79.3119 593.221,-84.7937"/>
</g>
<!-- Node8 -->
<g id="node8" class="node"><title>Node8</title>
<polygon fill="white" stroke="#bfbfbf" points="670,-56.5 670,-75.5 716,-75.5 716,-56.5 670,-56.5"/>
<text text-anchor="middle" x="693" y="-63.5" font-family="Helvetica,sans-Serif" font-size="10.00">cstdint</text>
</g>
<!-- Node4&#45;&gt;Node8 -->
<g id="edge8" class="edge"><title>Node4&#45;&gt;Node8</title>
<path fill="none" stroke="midnightblue" d="M565.926,-112.444C591.368,-103.345 631.774,-88.8952 660.179,-78.7372"/>
<polygon fill="midnightblue" stroke="midnightblue" points="661.444,-82.002 669.682,-75.339 659.087,-75.4108 661.444,-82.002"/>
</g>
<!-- Node6&#45;&gt;Node5 -->
<g id="edge6" class="edge"><title>Node6&#45;&gt;Node5</title>
<path fill="none" stroke="midnightblue" d="M1466.29,-56.4435C1443.65,-47.5171 1407.93,-33.4387 1382.25,-23.3168"/>
<polygon fill="midnightblue" stroke="midnightblue" points="1383.19,-19.9273 1372.61,-19.5164 1380.63,-26.4397 1383.19,-19.9273"/>
</g>
<!-- Node9&#45;&gt;Node5 -->
<g id="edge10" class="edge"><title>Node9&#45;&gt;Node5</title>
<path fill="none" stroke="midnightblue" d="M2623.73,-113.816C2577.21,-99.8141 2469.19,-69.0981 2376,-56 2184.46,-29.0788 1580.24,-15.4487 1401.36,-11.9336"/>
<polygon fill="midnightblue" stroke="midnightblue" points="1401.25,-8.43086 1391.19,-11.7355 1401.12,-15.4295 1401.25,-8.43086"/>
</g>
<!-- Node9&#45;&gt;Node6 -->
<g id="edge11" class="edge"><title>Node9&#45;&gt;Node6</title>
<path fill="none" stroke="midnightblue" d="M2623.85,-119.921C2478.69,-113.158 1694.59,-76.6256 1521.73,-68.5716"/>
<polygon fill="midnightblue" stroke="midnightblue" points="1521.84,-65.073 1511.69,-68.1037 1521.51,-72.0654 1521.84,-65.073"/>
</g>
<!-- Node10 -->
<g id="node10" class="node"><title>Node10</title>
<polygon fill="white" stroke="#bfbfbf" points="2625,-56.5 2625,-75.5 2669,-75.5 2669,-56.5 2625,-56.5"/>
<text text-anchor="middle" x="2647" y="-63.5" font-family="Helvetica,sans-Serif" font-size="10.00">cmath</text>
</g>
<!-- Node9&#45;&gt;Node10 -->
<g id="edge12" class="edge"><title>Node9&#45;&gt;Node10</title>
<path fill="none" stroke="midnightblue" d="M2647,-112.083C2647,-105.006 2647,-94.8611 2647,-85.9865"/>
<polygon fill="midnightblue" stroke="midnightblue" points="2650.5,-85.751 2647,-75.7511 2643.5,-85.7511 2650.5,-85.751"/>
</g>
<!-- Node11&#45;&gt;Node9 -->
<g id="edge22" class="edge"><title>Node11&#45;&gt;Node9</title>
<path fill="none" stroke="midnightblue" d="M2877.38,-280.286C2877.64,-267.523 2877.04,-243.179 2870,-224 2859.64,-195.763 2856.82,-184.983 2832,-168 2775.57,-129.394 2746.69,-148.998 2679.87,-133.106"/>
<polygon fill="midnightblue" stroke="midnightblue" points="2680.73,-129.716 2670.18,-130.619 2678.99,-136.496 2680.73,-129.716"/>
</g>
<!-- Node12 -->
<g id="node12" class="node"><title>Node12</title>
<g id="a_node12"><a xlink:href="Color_8h.html" target="_top" xlink:title="Color.h">
<polygon fill="white" stroke="black" points="2950,-112.5 2950,-131.5 2998,-131.5 2998,-112.5 2950,-112.5"/>
<text text-anchor="middle" x="2974" y="-119.5" font-family="Helvetica,sans-Serif" font-size="10.00">Color.h</text>
</a>
</g>
</g>
<!-- Node11&#45;&gt;Node12 -->
<g id="edge14" class="edge"><title>Node11&#45;&gt;Node12</title>
<path fill="none" stroke="midnightblue" d="M2898.29,-280.389C2913.84,-273.007 2934.2,-260.878 2946,-244 2967.75,-212.891 2972.83,-167.35 2973.88,-141.935"/>
<polygon fill="midnightblue" stroke="midnightblue" points="2977.38,-141.88 2974.12,-131.799 2970.38,-141.711 2977.38,-141.88"/>
</g>
<!-- Node13 -->
<g id="node13" class="node"><title>Node13</title>
<g id="a_node13"><a xlink:href="Sprite_8h.html" target="_top" xlink:title="Sprite.h">
<polygon fill="white" stroke="black" points="2246,-168.5 2246,-187.5 2296,-187.5 2296,-168.5 2246,-168.5"/>
<text text-anchor="middle" x="2271" y="-175.5" font-family="Helvetica,sans-Serif" font-size="10.00">Sprite.h</text>
</a>
</g>
</g>
<!-- Node11&#45;&gt;Node13 -->
<g id="edge15" class="edge"><title>Node11&#45;&gt;Node13</title>
<path fill="none" stroke="midnightblue" d="M2860.37,-280.318C2832.01,-265.951 2772.11,-237.483 2718,-224 2568.01,-186.627 2382.37,-180.15 2306.16,-179.13"/>
<polygon fill="midnightblue" stroke="midnightblue" points="2306.18,-175.63 2296.14,-179.02 2306.1,-182.63 2306.18,-175.63"/>
</g>
<!-- Node14 -->
<g id="node14" class="node"><title>Node14</title>
<polygon fill="white" stroke="#bfbfbf" points="2045.5,-112.5 2045.5,-131.5 2086.5,-131.5 2086.5,-112.5 2045.5,-112.5"/>
<text text-anchor="middle" x="2066" y="-119.5" font-family="Helvetica,sans-Serif" font-size="10.00">string</text>
</g>
<!-- Node11&#45;&gt;Node14 -->
<g id="edge28" class="edge"><title>Node11&#45;&gt;Node14</title>
<path fill="none" stroke="midnightblue" d="M2865.28,-280.402C2845.24,-266.159 2802.58,-237.868 2762,-224 2515.33,-139.707 2196.02,-125.764 2096.79,-123.457"/>
<polygon fill="midnightblue" stroke="midnightblue" points="2096.64,-119.953 2086.57,-123.244 2096.5,-126.952 2096.64,-119.953"/>
</g>
<!-- Node16 -->
<g id="node16" class="node"><title>Node16</title>
<g id="a_node16"><a xlink:href="UIelement_8h.html" target="_top" xlink:title="UIelement.h">
<polygon fill="white" stroke="black" points="2378,-224.5 2378,-243.5 2448,-243.5 2448,-224.5 2378,-224.5"/>
<text text-anchor="middle" x="2413" y="-231.5" font-family="Helvetica,sans-Serif" font-size="10.00">UIelement.h</text>
</a>
</g>
</g>
<!-- Node11&#45;&gt;Node16 -->
<g id="edge23" class="edge"><title>Node11&#45;&gt;Node16</title>
<path fill="none" stroke="midnightblue" d="M2845.84,-285.373C2765.63,-276.039 2551.86,-251.16 2458.11,-240.25"/>
<polygon fill="midnightblue" stroke="midnightblue" points="2458.43,-236.763 2448.09,-239.084 2457.62,-243.717 2458.43,-236.763"/>
</g>
<!-- Node13&#45;&gt;Node4 -->
<g id="edge21" class="edge"><title>Node13&#45;&gt;Node4</title>
<path fill="none" stroke="midnightblue" d="M2245.93,-176.558C2053.08,-173.126 807.06,-150.417 594.365,-132.018"/>
<polygon fill="midnightblue" stroke="midnightblue" points="594.503,-128.516 584.219,-131.063 593.846,-135.485 594.503,-128.516"/>
</g>
<!-- Node13&#45;&gt;Node5 -->
<g id="edge16" class="edge"><title>Node13&#45;&gt;Node5</title>
<path fill="none" stroke="midnightblue" d="M2252.16,-168.479C2220.41,-154.478 2153.94,-126.697 2095,-112 1838.76,-48.1099 1522.13,-22.0877 1401.17,-14.0111"/>
<polygon fill="midnightblue" stroke="midnightblue" points="1401.31,-10.5126 1391.1,-13.3501 1400.85,-17.4976 1401.31,-10.5126"/>
</g>
<!-- Node13&#45;&gt;Node9 -->
<g id="edge20" class="edge"><title>Node13&#45;&gt;Node9</title>
<path fill="none" stroke="midnightblue" d="M2296.25,-173.373C2362.17,-163.907 2539.42,-138.45 2613.62,-127.794"/>
<polygon fill="midnightblue" stroke="midnightblue" points="2614.39,-131.219 2623.79,-126.333 2613.4,-124.29 2614.39,-131.219"/>
</g>
<!-- Node13&#45;&gt;Node12 -->
<g id="edge19" class="edge"><title>Node13&#45;&gt;Node12</title>
<path fill="none" stroke="midnightblue" d="M2296.02,-175.078C2402.27,-166.917 2816.25,-135.117 2939.31,-125.664"/>
<polygon fill="midnightblue" stroke="midnightblue" points="2939.94,-129.127 2949.64,-124.871 2939.4,-122.147 2939.94,-129.127"/>
</g>
<!-- Node13&#45;&gt;Node14 -->
<g id="edge17" class="edge"><title>Node13&#45;&gt;Node14</title>
<path fill="none" stroke="midnightblue" d="M2245.86,-170.379C2208.19,-160.456 2137.2,-141.754 2096.58,-131.054"/>
<polygon fill="midnightblue" stroke="midnightblue" points="2097.26,-127.616 2086.7,-128.453 2095.48,-134.385 2097.26,-127.616"/>
</g>
<!-- Node15 -->
<g id="node15" class="node"><title>Node15</title>
<polygon fill="white" stroke="#bfbfbf" points="888,-112.5 888,-131.5 940,-131.5 940,-112.5 888,-112.5"/>
<text text-anchor="middle" x="914" y="-119.5" font-family="Helvetica,sans-Serif" font-size="10.00">memory</text>
</g>
<!-- Node13&#45;&gt;Node15 -->
<g id="edge18" class="edge"><title>Node13&#45;&gt;Node15</title>
<path fill="none" stroke="midnightblue" d="M2245.99,-176.005C2080.8,-169.431 1146.98,-132.271 950.345,-124.446"/>
<polygon fill="midnightblue" stroke="midnightblue" points="950.381,-120.945 940.249,-124.045 950.102,-127.94 950.381,-120.945"/>
</g>
<!-- Node16&#45;&gt;Node6 -->
<g id="edge26" class="edge"><title>Node16&#45;&gt;Node6</title>
<path fill="none" stroke="midnightblue" d="M2405.9,-224.323C2393.88,-210.224 2368.05,-182.466 2340,-168 2240.72,-116.807 2205.45,-128.621 2095,-112 1878.14,-79.3676 1613.97,-70.07 1521.71,-67.7192"/>
<polygon fill="midnightblue" stroke="midnightblue" points="1521.66,-64.2169 1511.58,-67.4716 1521.49,-71.2148 1521.66,-64.2169"/>
</g>
<!-- Node16&#45;&gt;Node9 -->
<g id="edge25" class="edge"><title>Node16&#45;&gt;Node9</title>
<path fill="none" stroke="midnightblue" d="M2428.56,-224.341C2451.99,-211.437 2497.86,-186.678 2538,-168 2563.59,-156.091 2593.24,-143.956 2615.14,-135.293"/>
<polygon fill="midnightblue" stroke="midnightblue" points="2616.59,-138.484 2624.62,-131.571 2614.04,-131.969 2616.59,-138.484"/>
</g>
<!-- Node16&#45;&gt;Node13 -->
<g id="edge24" class="edge"><title>Node16&#45;&gt;Node13</title>
<path fill="none" stroke="midnightblue" d="M2390.5,-224.444C2366.92,-215.478 2329.68,-201.314 2303.04,-191.183"/>
<polygon fill="midnightblue" stroke="midnightblue" points="2303.99,-187.8 2293.4,-187.516 2301.5,-194.342 2303.99,-187.8"/>
</g>
<!-- Node16&#45;&gt;Node14 -->
<g id="edge27" class="edge"><title>Node16&#45;&gt;Node14</title>
<path fill="none" stroke="midnightblue" d="M2401.72,-224.328C2382.81,-210.237 2343.04,-182.489 2305,-168 2233.44,-140.741 2143.31,-129.519 2096.85,-125.293"/>
<polygon fill="midnightblue" stroke="midnightblue" points="2097.07,-121.8 2086.81,-124.429 2096.47,-128.774 2097.07,-121.8"/>
</g>
<!-- Node17&#45;&gt;Node6 -->
<g id="edge32" class="edge"><title>Node17&#45;&gt;Node6</title>
<path fill="none" stroke="midnightblue" d="M2426.02,-280.496C2442.84,-268.382 2468.67,-245.263 2457,-224 2394.09,-109.396 2313.62,-135.4 2185,-112 1933.49,-66.2444 1623.54,-65.3316 1521.97,-66.4346"/>
<polygon fill="midnightblue" stroke="midnightblue" points="1521.66,-62.938 1511.71,-66.5612 1521.75,-69.9375 1521.66,-62.938"/>
</g>
<!-- Node17&#45;&gt;Node9 -->
<g id="edge31" class="edge"><title>Node17&#45;&gt;Node9</title>
<path fill="none" stroke="midnightblue" d="M2446.71,-283.314C2519.79,-270.184 2688.58,-235.227 2718,-188 2731.48,-166.366 2703.69,-147.439 2679.03,-135.672"/>
<polygon fill="midnightblue" stroke="midnightblue" points="2680.38,-132.44 2669.83,-131.522 2677.5,-138.822 2680.38,-132.44"/>
</g>
<!-- Node17&#45;&gt;Node14 -->
<g id="edge33" class="edge"><title>Node17&#45;&gt;Node14</title>
<path fill="none" stroke="midnightblue" d="M2397.4,-280.41C2373.93,-267.594 2328.01,-242.946 2288,-224 2251.29,-206.618 2241.05,-204.656 2204,-188 2165.11,-170.514 2120.55,-149.31 2092.83,-135.983"/>
<polygon fill="midnightblue" stroke="midnightblue" points="2094.3,-132.804 2083.77,-131.616 2091.26,-139.11 2094.3,-132.804"/>
</g>
<!-- Node17&#45;&gt;Node16 -->
<g id="edge30" class="edge"><title>Node17&#45;&gt;Node16</title>
<path fill="none" stroke="midnightblue" d="M2413,-280.083C2413,-273.006 2413,-262.861 2413,-253.986"/>
<polygon fill="midnightblue" stroke="midnightblue" points="2416.5,-253.751 2413,-243.751 2409.5,-253.751 2416.5,-253.751"/>
</g>
<!-- Node18&#45;&gt;Node5 -->
<g id="edge35" class="edge"><title>Node18&#45;&gt;Node5</title>
<path fill="none" stroke="midnightblue" d="M2051.3,-280.49C2082.14,-267.67 2142.72,-242.895 2195,-224 2243.38,-206.515 2274.81,-229.648 2305,-188 2310.22,-180.803 2310.17,-175.23 2305,-168 2198.68,-19.3413 1582.89,-9.99032 1401.35,-10.5125"/>
<polygon fill="midnightblue" stroke="midnightblue" points="1401.26,-7.01269 1391.28,-10.5531 1401.29,-14.0126 1401.26,-7.01269"/>
</g>
<!-- Node18&#45;&gt;Node9 -->
<g id="edge36" class="edge"><title>Node18&#45;&gt;Node9</title>
<path fill="none" stroke="midnightblue" d="M2057.08,-281.973C2155.57,-255.43 2504.92,-161.289 2614.12,-131.859"/>
<polygon fill="midnightblue" stroke="midnightblue" points="2615.18,-135.199 2623.93,-129.218 2613.36,-128.44 2615.18,-135.199"/>
</g>
<!-- Node18&#45;&gt;Node14 -->
<g id="edge40" class="edge"><title>Node18&#45;&gt;Node14</title>
<path fill="none" stroke="midnightblue" d="M2038.52,-280.412C2045.51,-271.845 2055.51,-257.98 2060,-244 2071.17,-209.255 2069.95,-166.02 2068.01,-141.768"/>
<polygon fill="midnightblue" stroke="midnightblue" points="2071.49,-141.414 2067.08,-131.782 2064.52,-142.064 2071.49,-141.414"/>
</g>
<!-- Node18&#45;&gt;Node15 -->
<g id="edge39" class="edge"><title>Node18&#45;&gt;Node15</title>
<path fill="none" stroke="midnightblue" d="M2022.48,-280.256C2008.11,-266.06 1977.52,-238.167 1946,-224 1827.07,-170.538 1787.36,-184.416 1658,-168 1387.48,-133.669 1058.18,-125.366 950.186,-123.503"/>
<polygon fill="midnightblue" stroke="midnightblue" points="950.2,-120.003 940.144,-123.338 950.085,-127.002 950.2,-120.003"/>
</g>
<!-- Node18&#45;&gt;Node16 -->
<g id="edge38" class="edge"><title>Node18&#45;&gt;Node16</title>
<path fill="none" stroke="midnightblue" d="M2057.26,-285.288C2121.46,-276.212 2287.02,-252.808 2367.6,-241.418"/>
<polygon fill="midnightblue" stroke="midnightblue" points="2368.51,-244.824 2377.92,-239.959 2367.53,-237.893 2368.51,-244.824"/>
</g>
<!-- Node19 -->
<g id="node19" class="node"><title>Node19</title>
<g id="a_node19"><a xlink:href="Timer_8h.html" target="_top" xlink:title="Timer.h">
<polygon fill="white" stroke="black" points="1854,-224.5 1854,-243.5 1904,-243.5 1904,-224.5 1854,-224.5"/>
<text text-anchor="middle" x="1879" y="-231.5" font-family="Helvetica,sans-Serif" font-size="10.00">Timer.h</text>
</a>
</g>
</g>
<!-- Node18&#45;&gt;Node19 -->
<g id="edge37" class="edge"><title>Node18&#45;&gt;Node19</title>
<path fill="none" stroke="midnightblue" d="M2006.92,-280.444C1981.46,-271.399 1941.11,-257.064 1912.54,-246.916"/>
<polygon fill="midnightblue" stroke="midnightblue" points="1913.57,-243.566 1902.97,-243.516 1911.22,-250.162 1913.57,-243.566"/>
</g>
<!-- Node20&#45;&gt;Node9 -->
<g id="edge47" class="edge"><title>Node20&#45;&gt;Node9</title>
<path fill="none" stroke="midnightblue" d="M2343.04,-337.423C2442.69,-317.568 2696.52,-260.513 2734,-188 2738.08,-180.104 2738.62,-175.593 2734,-168 2727.69,-157.624 2701.33,-144.815 2679.26,-135.52"/>
<polygon fill="midnightblue" stroke="midnightblue" points="2680.4,-132.206 2669.82,-131.643 2677.74,-138.681 2680.4,-132.206"/>
</g>
<!-- Node20&#45;&gt;Node14 -->
<g id="edge48" class="edge"><title>Node20&#45;&gt;Node14</title>
<path fill="none" stroke="midnightblue" d="M2293.71,-336.297C2257.94,-302.796 2128.86,-181.88 2082.62,-138.569"/>
<polygon fill="midnightblue" stroke="midnightblue" points="2084.92,-135.924 2075.23,-131.643 2080.13,-141.033 2084.92,-135.924"/>
</g>
<!-- Node20&#45;&gt;Node18 -->
<g id="edge42" class="edge"><title>Node20&#45;&gt;Node18</title>
<path fill="none" stroke="midnightblue" d="M2262.87,-337.032C2210.05,-326.547 2118,-308.272 2067.22,-298.19"/>
<polygon fill="midnightblue" stroke="midnightblue" points="2067.83,-294.743 2057.34,-296.228 2066.46,-301.609 2067.83,-294.743"/>
</g>
<!-- Node21 -->
<g id="node21" class="node"><title>Node21</title>
<g id="a_node21"><a xlink:href="UIbutton_8h.html" target="_top" xlink:title="UIbutton.h">
<polygon fill="white" stroke="black" points="2884,-168.5 2884,-187.5 2946,-187.5 2946,-168.5 2884,-168.5"/>
<text text-anchor="middle" x="2915" y="-175.5" font-family="Helvetica,sans-Serif" font-size="10.00">UIbutton.h</text>
</a>
</g>
</g>
<!-- Node20&#45;&gt;Node21 -->
<g id="edge43" class="edge"><title>Node20&#45;&gt;Node21</title>
<path fill="none" stroke="midnightblue" d="M2343.18,-342.096C2479.41,-332.242 2915.39,-300.66 2916,-300 2941.77,-272.273 2930.77,-223.638 2921.99,-197.26"/>
<polygon fill="midnightblue" stroke="midnightblue" points="2925.25,-195.979 2918.59,-187.737 2918.66,-198.332 2925.25,-195.979"/>
</g>
<!-- Node21&#45;&gt;Node6 -->
<g id="edge45" class="edge"><title>Node21&#45;&gt;Node6</title>
<path fill="none" stroke="midnightblue" d="M2891.28,-168.493C2849.18,-153.847 2758.38,-124.262 2679,-112 2447.02,-76.1649 1690.74,-68.5026 1521.71,-67.2232"/>
<polygon fill="midnightblue" stroke="midnightblue" points="1521.68,-63.723 1511.66,-67.1495 1521.63,-70.7229 1521.68,-63.723"/>
</g>
<!-- Node21&#45;&gt;Node9 -->
<g id="edge44" class="edge"><title>Node21&#45;&gt;Node9</title>
<path fill="none" stroke="midnightblue" d="M2884,-170.753C2833.21,-160.519 2732.71,-140.27 2680.4,-129.731"/>
<polygon fill="midnightblue" stroke="midnightblue" points="2680.81,-126.241 2670.31,-127.697 2679.42,-133.103 2680.81,-126.241"/>
</g>
<!-- Node21&#45;&gt;Node14 -->
<g id="edge46" class="edge"><title>Node21&#45;&gt;Node14</title>
<path fill="none" stroke="midnightblue" d="M2883.78,-175.014C2750.51,-166.538 2230.07,-133.435 2097.08,-124.977"/>
<polygon fill="midnightblue" stroke="midnightblue" points="2097,-121.465 2086.8,-124.323 2096.56,-128.451 2097,-121.465"/>
</g>
<!-- Node22&#45;&gt;Node9 -->
<g id="edge52" class="edge"><title>Node22&#45;&gt;Node9</title>
<path fill="none" stroke="midnightblue" d="M2185.36,-336.465C2224.65,-323.397 2302.73,-298.047 2370,-280 2439.56,-261.339 2462.52,-273.993 2528,-244 2566.15,-226.527 2575.09,-218.409 2604,-188 2617.65,-173.638 2629.76,-154.436 2637.62,-140.631"/>
<polygon fill="midnightblue" stroke="midnightblue" points="2640.79,-142.127 2642.55,-131.68 2634.66,-138.748 2640.79,-142.127"/>
</g>
<!-- Node22&#45;&gt;Node14 -->
<g id="edge54" class="edge"><title>Node22&#45;&gt;Node14</title>
<path fill="none" stroke="midnightblue" d="M2156.32,-336.297C2142.43,-303.494 2093.05,-186.884 2073.78,-141.377"/>
<polygon fill="midnightblue" stroke="midnightblue" points="2076.88,-139.728 2069.76,-131.884 2070.44,-142.457 2076.88,-139.728"/>
</g>
<!-- Node22&#45;&gt;Node16 -->
<g id="edge50" class="edge"><title>Node22&#45;&gt;Node16</title>
<path fill="none" stroke="midnightblue" d="M2170.91,-336.484C2188.8,-322.862 2225.93,-296.076 2261,-280 2295.5,-264.184 2336.94,-252.349 2367.83,-244.796"/>
<polygon fill="midnightblue" stroke="midnightblue" points="2368.96,-248.124 2377.88,-242.399 2367.34,-241.315 2368.96,-248.124"/>
</g>
<!-- Node22&#45;&gt;Node17 -->
<g id="edge51" class="edge"><title>Node22&#45;&gt;Node17</title>
<path fill="none" stroke="midnightblue" d="M2200.09,-336.444C2246.17,-326.608 2321.56,-310.517 2369.16,-300.356"/>
<polygon fill="midnightblue" stroke="midnightblue" points="2370.12,-303.731 2379.17,-298.22 2368.66,-296.885 2370.12,-303.731"/>
</g>
<!-- Node23 -->
<g id="node23" class="node"><title>Node23</title>
<polygon fill="white" stroke="#bfbfbf" points="1364,-112.5 1364,-131.5 1408,-131.5 1408,-112.5 1364,-112.5"/>
<text text-anchor="middle" x="1386" y="-119.5" font-family="Helvetica,sans-Serif" font-size="10.00">vector</text>
</g>
<!-- Node22&#45;&gt;Node23 -->
<g id="edge53" class="edge"><title>Node22&#45;&gt;Node23</title>
<path fill="none" stroke="midnightblue" d="M2113.23,-340.208C2078.49,-334.833 2031.22,-323.545 1996,-300 1960.45,-276.236 1973.36,-246.51 1937,-224 1829.47,-157.423 1782.41,-190.769 1658,-168 1571.63,-152.192 1469.37,-135.931 1418.34,-127.985"/>
<polygon fill="midnightblue" stroke="midnightblue" points="1418.68,-124.495 1408.26,-126.419 1417.6,-131.412 1418.68,-124.495"/>
</g>
<!-- Node24&#45;&gt;Node4 -->
<g id="edge58" class="edge"><title>Node24&#45;&gt;Node4</title>
<path fill="none" stroke="midnightblue" d="M672.682,-224.47C676.331,-211.067 681.114,-184.867 669,-168 659.427,-154.67 622.195,-142.434 590.5,-134.097"/>
<polygon fill="midnightblue" stroke="midnightblue" points="591.001,-130.613 580.446,-131.531 589.27,-137.395 591.001,-130.613"/>
</g>
<!-- Node24&#45;&gt;Node15 -->
<g id="edge57" class="edge"><title>Node24&#45;&gt;Node15</title>
<path fill="none" stroke="midnightblue" d="M694.344,-225.707C720.261,-217.636 762.245,-203.68 797,-188 806.358,-183.778 858.549,-154.411 889.979,-136.626"/>
<polygon fill="midnightblue" stroke="midnightblue" points="892.019,-139.493 898.996,-131.519 888.569,-133.402 892.019,-139.493"/>
</g>
<!-- Node24&#45;&gt;Node23 -->
<g id="edge56" class="edge"><title>Node24&#45;&gt;Node23</title>
<path fill="none" stroke="midnightblue" d="M694.352,-229.135C742.965,-221.408 855.496,-203.469 950,-188 1003.36,-179.266 1016.57,-176.256 1070,-168 1173.41,-152.021 1296.2,-135.131 1353.51,-127.368"/>
<polygon fill="midnightblue" stroke="midnightblue" points="1354.31,-130.792 1363.75,-125.984 1353.37,-123.855 1354.31,-130.792"/>
</g>
<!-- Node25 -->
<g id="node25" class="node"><title>Node25</title>
<g id="a_node25"><a xlink:href="Resources_8h.html" target="_top" xlink:title="Resources.h">
<polygon fill="white" stroke="black" points="716,-168.5 716,-187.5 788,-187.5 788,-168.5 716,-168.5"/>
<text text-anchor="middle" x="752" y="-175.5" font-family="Helvetica,sans-Serif" font-size="10.00">Resources.h</text>
</a>
</g>
</g>
<!-- Node24&#45;&gt;Node25 -->
<g id="edge59" class="edge"><title>Node24&#45;&gt;Node25</title>
<path fill="none" stroke="midnightblue" d="M683.175,-224.324C695.847,-215.979 715.233,-203.212 730.206,-193.352"/>
<polygon fill="midnightblue" stroke="midnightblue" points="732.431,-196.078 738.858,-187.655 728.581,-190.231 732.431,-196.078"/>
</g>
<!-- Node26 -->
<g id="node26" class="node"><title>Node26</title>
<g id="a_node26"><a xlink:href="GameObject_8h.html" target="_top" xlink:title="GameObject.h">
<polygon fill="white" stroke="black" points="1150,-168.5 1150,-187.5 1230,-187.5 1230,-168.5 1150,-168.5"/>
<text text-anchor="middle" x="1190" y="-175.5" font-family="Helvetica,sans-Serif" font-size="10.00">GameObject.h</text>
</a>
</g>
</g>
<!-- Node24&#45;&gt;Node26 -->
<g id="edge64" class="edge"><title>Node24&#45;&gt;Node26</title>
<path fill="none" stroke="midnightblue" d="M694.038,-230.504C773.663,-222.235 1029.95,-195.62 1139.54,-184.24"/>
<polygon fill="midnightblue" stroke="midnightblue" points="1140.09,-187.702 1149.68,-183.188 1139.37,-180.739 1140.09,-187.702"/>
</g>
<!-- Node25&#45;&gt;Node5 -->
<g id="edge60" class="edge"><title>Node25&#45;&gt;Node5</title>
<path fill="none" stroke="midnightblue" d="M765.926,-168.319C788.731,-154.467 835.831,-127.364 879,-112 1027.85,-59.0248 1213.46,-29.2979 1300.95,-17.3089"/>
<polygon fill="midnightblue" stroke="midnightblue" points="1301.43,-20.7757 1310.87,-15.9679 1300.49,-13.8388 1301.43,-20.7757"/>
</g>
<!-- Node25&#45;&gt;Node7 -->
<g id="edge62" class="edge"><title>Node25&#45;&gt;Node7</title>
<path fill="none" stroke="midnightblue" d="M744.304,-168.352C732.384,-155.245 708.385,-129.975 685,-112 669.594,-100.158 650.849,-88.9104 635.953,-80.6223"/>
<polygon fill="midnightblue" stroke="midnightblue" points="637.249,-77.3424 626.794,-75.6266 633.897,-83.4877 637.249,-77.3424"/>
</g>
<!-- Node25&#45;&gt;Node14 -->
<g id="edge61" class="edge"><title>Node25&#45;&gt;Node14</title>
<path fill="none" stroke="midnightblue" d="M788.311,-172.494C802.812,-170.843 819.676,-169.109 835,-168 1312.13,-133.455 1895.33,-124.922 2034.93,-123.319"/>
<polygon fill="midnightblue" stroke="midnightblue" points="2035.32,-126.815 2045.28,-123.203 2035.24,-119.815 2035.32,-126.815"/>
</g>
<!-- Node25&#45;&gt;Node15 -->
<g id="edge63" class="edge"><title>Node25&#45;&gt;Node15</title>
<path fill="none" stroke="midnightblue" d="M777.669,-168.444C804.923,-159.359 848.184,-144.939 878.651,-134.783"/>
<polygon fill="midnightblue" stroke="midnightblue" points="880.071,-137.999 888.451,-131.516 877.857,-131.358 880.071,-137.999"/>
</g>
<!-- Node26&#45;&gt;Node5 -->
<g id="edge65" class="edge"><title>Node26&#45;&gt;Node5</title>
<path fill="none" stroke="midnightblue" d="M1198.66,-168.075C1224.66,-141.267 1302.32,-61.1902 1335.59,-26.8851"/>
<polygon fill="midnightblue" stroke="midnightblue" points="1338.24,-29.1832 1342.69,-19.5681 1333.22,-24.3097 1338.24,-29.1832"/>
</g>
<!-- Node26&#45;&gt;Node9 -->
<g id="edge73" class="edge"><title>Node26&#45;&gt;Node9</title>
<path fill="none" stroke="midnightblue" d="M1230.11,-175.514C1441.08,-167.694 2419.94,-131.416 2613.64,-124.236"/>
<polygon fill="midnightblue" stroke="midnightblue" points="2613.91,-127.729 2623.78,-123.861 2613.65,-120.734 2613.91,-127.729"/>
</g>
<!-- Node26&#45;&gt;Node14 -->
<g id="edge68" class="edge"><title>Node26&#45;&gt;Node14</title>
<path fill="none" stroke="midnightblue" d="M1230.2,-174.522C1379.71,-165.306 1901.77,-133.124 2034.91,-124.917"/>
<polygon fill="midnightblue" stroke="midnightblue" points="2035.43,-128.391 2045.2,-124.282 2035,-121.404 2035.43,-128.391"/>
</g>
<!-- Node26&#45;&gt;Node15 -->
<g id="edge67" class="edge"><title>Node26&#45;&gt;Node15</title>
<path fill="none" stroke="midnightblue" d="M1149.83,-169.757C1102.8,-161.18 1022.61,-146.255 954,-132 952.746,-131.739 951.47,-131.471 950.182,-131.197"/>
<polygon fill="midnightblue" stroke="midnightblue" points="950.739,-127.736 940.223,-129.03 949.25,-134.576 950.739,-127.736"/>
</g>
<!-- Node26&#45;&gt;Node23 -->
<g id="edge66" class="edge"><title>Node26&#45;&gt;Node23</title>
<path fill="none" stroke="midnightblue" d="M1221.06,-168.444C1257.46,-158.413 1317.49,-141.877 1354.21,-131.759"/>
<polygon fill="midnightblue" stroke="midnightblue" points="1355.2,-135.117 1363.91,-129.086 1353.34,-128.368 1355.2,-135.117"/>
</g>
<!-- Node27 -->
<g id="node27" class="node"><title>Node27</title>
<g id="a_node27"><a xlink:href="Component_8h.html" target="_top" xlink:title="Component.h">
<polygon fill="white" stroke="black" points="601.5,-112.5 601.5,-131.5 676.5,-131.5 676.5,-112.5 601.5,-112.5"/>
<text text-anchor="middle" x="639" y="-119.5" font-family="Helvetica,sans-Serif" font-size="10.00">Component.h</text>
</a>
</g>
</g>
<!-- Node26&#45;&gt;Node27 -->
<g id="edge69" class="edge"><title>Node26&#45;&gt;Node27</title>
<path fill="none" stroke="midnightblue" d="M1149.84,-173.415C1050.44,-164.068 793.747,-138.93 686.785,-128.09"/>
<polygon fill="midnightblue" stroke="midnightblue" points="686.912,-124.585 676.609,-127.055 686.204,-131.549 686.912,-124.585"/>
</g>
<!-- Node28 -->
<g id="node28" class="node"><title>Node28</title>
<g id="a_node28"><a xlink:href="ComponentType_8h.html" target="_top" xlink:title="ComponentType.h">
<polygon fill="white" stroke="black" points="734.5,-56.5 734.5,-75.5 831.5,-75.5 831.5,-56.5 734.5,-56.5"/>
<text text-anchor="middle" x="783" y="-63.5" font-family="Helvetica,sans-Serif" font-size="10.00">ComponentType.h</text>
</a>
</g>
</g>
<!-- Node26&#45;&gt;Node28 -->
<g id="edge72" class="edge"><title>Node26&#45;&gt;Node28</title>
<path fill="none" stroke="midnightblue" d="M1158.4,-168.46C1085.59,-148.782 906.034,-100.252 824.487,-78.2128"/>
<polygon fill="midnightblue" stroke="midnightblue" points="825.145,-74.7649 814.578,-75.5345 823.318,-81.5225 825.145,-74.7649"/>
</g>
<!-- Node27&#45;&gt;Node26 -->
<g id="edge71" class="edge"><title>Node27&#45;&gt;Node26</title>
<path fill="none" stroke="midnightblue" d="M676.659,-126.35C773.408,-135.431 1030.2,-160.572 1139.6,-171.646"/>
<polygon fill="midnightblue" stroke="midnightblue" points="1139.42,-175.145 1149.72,-172.672 1140.12,-168.18 1139.42,-175.145"/>
</g>
<!-- Node27&#45;&gt;Node28 -->
<g id="edge70" class="edge"><title>Node27&#45;&gt;Node28</title>
<path fill="none" stroke="midnightblue" d="M661.817,-112.444C685.832,-103.438 723.829,-89.1891 750.869,-79.049"/>
<polygon fill="midnightblue" stroke="midnightblue" points="752.155,-82.3049 760.29,-75.5164 749.697,-75.7506 752.155,-82.3049"/>
</g>
<!-- Node29&#45;&gt;Node5 -->
<g id="edge75" class="edge"><title>Node29&#45;&gt;Node5</title>
<path fill="none" stroke="midnightblue" d="M1618.59,-168.484C1606.38,-145.862 1569.73,-84.079 1520,-56 1483.06,-35.1423 1436.11,-23.6479 1401.07,-17.5091"/>
<polygon fill="midnightblue" stroke="midnightblue" points="1401.5,-14.033 1391.07,-15.8438 1400.35,-20.9381 1401.5,-14.033"/>
</g>
<!-- Node29&#45;&gt;Node14 -->
<g id="edge77" class="edge"><title>Node29&#45;&gt;Node14</title>
<path fill="none" stroke="midnightblue" d="M1649.83,-170.69C1654.54,-169.703 1659.4,-168.76 1664,-168 1801.5,-145.276 1967.4,-130.741 2035.04,-125.355"/>
<polygon fill="midnightblue" stroke="midnightblue" points="2035.7,-128.813 2045.4,-124.54 2035.15,-121.835 2035.7,-128.813"/>
</g>
<!-- Node29&#45;&gt;Node15 -->
<g id="edge76" class="edge"><title>Node29&#45;&gt;Node15</title>
<path fill="none" stroke="midnightblue" d="M1596.07,-174.949C1486.7,-166.619 1075.59,-135.307 950.403,-125.773"/>
<polygon fill="midnightblue" stroke="midnightblue" points="950.437,-122.265 940.2,-124.996 949.906,-129.245 950.437,-122.265"/>
</g>
<!-- Node30&#45;&gt;Node4 -->
<g id="edge84" class="edge"><title>Node30&#45;&gt;Node4</title>
<path fill="none" stroke="midnightblue" d="M562.274,-224.368C558.723,-206.617 550.533,-165.666 545.719,-141.597"/>
<polygon fill="midnightblue" stroke="midnightblue" points="549.112,-140.711 543.718,-131.591 542.247,-142.084 549.112,-140.711"/>
</g>
<!-- Node30&#45;&gt;Node5 -->
<g id="edge79" class="edge"><title>Node30&#45;&gt;Node5</title>
<path fill="none" stroke="midnightblue" d="M554.732,-224.377C538.096,-208.188 503.721,-171.317 491,-132 478.401,-93.06 505.954,-73.3966 543,-56 611.325,-23.9152 1134.35,-13.9868 1300.51,-11.6261"/>
<polygon fill="midnightblue" stroke="midnightblue" points="1300.98,-15.12 1310.93,-11.4814 1300.88,-8.1207 1300.98,-15.12"/>
</g>
<!-- Node30&#45;&gt;Node14 -->
<g id="edge80" class="edge"><title>Node30&#45;&gt;Node14</title>
<path fill="none" stroke="midnightblue" d="M589.67,-229.783C603.658,-228.044 621.277,-225.873 637,-224 776.045,-207.433 811.339,-207.517 950,-188 1003.54,-180.464 1016.23,-173.675 1070,-168 1448.89,-128.013 1912.53,-123.521 2035.1,-123.048"/>
<polygon fill="midnightblue" stroke="midnightblue" points="2035.26,-126.547 2045.25,-123.015 2035.24,-119.547 2035.26,-126.547"/>
</g>
<!-- Node30&#45;&gt;Node15 -->
<g id="edge81" class="edge"><title>Node30&#45;&gt;Node15</title>
<path fill="none" stroke="midnightblue" d="M566.853,-224.111C571.977,-209.709 584.192,-181.524 605,-168 649.316,-139.197 805.391,-128.164 877.266,-124.542"/>
<polygon fill="midnightblue" stroke="midnightblue" points="877.823,-128.019 887.643,-124.041 877.486,-121.027 877.823,-128.019"/>
</g>
<!-- Node30&#45;&gt;Node25 -->
<g id="edge82" class="edge"><title>Node30&#45;&gt;Node25</title>
<path fill="none" stroke="midnightblue" d="M589.746,-225.605C621.367,-216.522 675.345,-201.018 712.293,-190.405"/>
<polygon fill="midnightblue" stroke="midnightblue" points="713.585,-193.676 722.23,-187.551 711.653,-186.948 713.585,-193.676"/>
</g>
<!-- Node31 -->
<g id="node31" class="node"><title>Node31</title>
<g id="a_node31"><a xlink:href="Error_8h.html" target="_top" xlink:title="Error.h">
<polygon fill="white" stroke="red" points="614,-168.5 614,-187.5 660,-187.5 660,-168.5 614,-168.5"/>
<text text-anchor="middle" x="637" y="-175.5" font-family="Helvetica,sans-Serif" font-size="10.00">Error.h</text>
</a>
</g>
</g>
<!-- Node30&#45;&gt;Node31 -->
<g id="edge83" class="edge"><title>Node30&#45;&gt;Node31</title>
<path fill="none" stroke="midnightblue" d="M575.729,-224.324C586.837,-216.107 603.742,-203.602 616.983,-193.807"/>
<polygon fill="midnightblue" stroke="midnightblue" points="619.1,-196.595 625.058,-187.834 614.937,-190.967 619.1,-196.595"/>
</g>
<!-- Node32&#45;&gt;Node3 -->
<g id="edge88" class="edge"><title>Node32&#45;&gt;Node3</title>
<path fill="none" stroke="midnightblue" d="M722.291,-284.897C657.024,-275.883 500.278,-254.235 416.313,-242.639"/>
<polygon fill="midnightblue" stroke="midnightblue" points="416.583,-239.143 406.198,-241.242 415.626,-246.077 416.583,-239.143"/>
</g>
<!-- Node32&#45;&gt;Node6 -->
<g id="edge87" class="edge"><title>Node32&#45;&gt;Node6</title>
<path fill="none" stroke="midnightblue" d="M772.5,-280.471C803.958,-267.518 866.154,-242.447 920,-224 1084.15,-167.763 1126.29,-156.515 1294,-112 1349.75,-97.2033 1415.22,-82.5827 1454.07,-74.1916"/>
<polygon fill="midnightblue" stroke="midnightblue" points="1455.25,-77.5179 1464.29,-71.9951 1453.78,-70.6742 1455.25,-77.5179"/>
</g>
<!-- Node32&#45;&gt;Node26 -->
<g id="edge86" class="edge"><title>Node32&#45;&gt;Node26</title>
<path fill="none" stroke="midnightblue" d="M781.846,-280.824C828.062,-268.23 919.776,-243.497 998,-224 1046.94,-211.801 1103.15,-198.738 1142.04,-189.847"/>
<polygon fill="midnightblue" stroke="midnightblue" points="1143.07,-193.203 1152.04,-187.567 1141.51,-186.378 1143.07,-193.203"/>
</g>
<!-- Node33&#45;&gt;Node4 -->
<g id="edge93" class="edge"><title>Node33&#45;&gt;Node4</title>
<path fill="none" stroke="midnightblue" d="M119.94,-280.253C120.305,-257.606 124.686,-196.814 160,-168 209.322,-127.756 397.049,-122.496 489.676,-122.433"/>
<polygon fill="midnightblue" stroke="midnightblue" points="489.943,-125.933 499.948,-122.447 489.953,-118.933 489.943,-125.933"/>
</g>
<!-- Node33&#45;&gt;Node5 -->
<g id="edge95" class="edge"><title>Node33&#45;&gt;Node5</title>
<path fill="none" stroke="midnightblue" d="M101.972,-280.391C87.7742,-272.726 68.5174,-260.22 57,-244 39.5743,-219.46 38,-209.098 38,-179 38,-179 38,-179 38,-121 38,-56.4091 1060.32,-20.1596 1300.79,-12.5264"/>
<polygon fill="midnightblue" stroke="midnightblue" points="1301.1,-16.0183 1310.99,-12.205 1300.88,-9.02178 1301.1,-16.0183"/>
</g>
<!-- Node33&#45;&gt;Node6 -->
<g id="edge94" class="edge"><title>Node33&#45;&gt;Node6</title>
<path fill="none" stroke="midnightblue" d="M141.582,-280.437C176.089,-266.989 246.011,-240.729 307,-224 427.288,-191.006 459.6,-192.001 582,-168 713.816,-142.153 745.809,-129.421 879,-112 1097.16,-83.4645 1361.84,-71.6213 1454.24,-68.1597"/>
<polygon fill="midnightblue" stroke="midnightblue" points="1454.52,-71.6516 1464.39,-67.7874 1454.27,-64.6563 1454.52,-71.6516"/>
</g>
<!-- Node33&#45;&gt;Node14 -->
<g id="edge90" class="edge"><title>Node33&#45;&gt;Node14</title>
<path fill="none" stroke="midnightblue" d="M145.659,-287.889C227.325,-284.167 488.442,-270.834 703,-244 715.253,-242.468 1128.73,-169.358 1141,-168 1490.84,-129.288 1918.77,-123.878 2035.42,-123.122"/>
<polygon fill="midnightblue" stroke="midnightblue" points="2035.44,-126.622 2045.42,-123.064 2035.4,-119.622 2035.44,-126.622"/>
</g>
<!-- Node33&#45;&gt;Node24 -->
<g id="edge92" class="edge"><title>Node33&#45;&gt;Node24</title>
<path fill="none" stroke="midnightblue" d="M145.677,-286.86C217.317,-280.83 425.45,-262.902 598,-244 610.3,-242.653 623.762,-241.014 635.682,-239.506"/>
<polygon fill="midnightblue" stroke="midnightblue" points="636.218,-242.966 645.693,-238.226 635.329,-236.023 636.218,-242.966"/>
</g>
<!-- Node34 -->
<g id="node34" class="node"><title>Node34</title>
<polygon fill="white" stroke="#bfbfbf" points="66.5,-224.5 66.5,-243.5 107.5,-243.5 107.5,-224.5 66.5,-224.5"/>
<text text-anchor="middle" x="87" y="-231.5" font-family="Helvetica,sans-Serif" font-size="10.00">stack</text>
</g>
<!-- Node33&#45;&gt;Node34 -->
<g id="edge91" class="edge"><title>Node33&#45;&gt;Node34</title>
<path fill="none" stroke="midnightblue" d="M114.551,-280.083C109.986,-272.613 103.332,-261.724 97.7066,-252.52"/>
<polygon fill="midnightblue" stroke="midnightblue" points="100.549,-250.459 92.3479,-243.751 94.5759,-254.109 100.549,-250.459"/>
</g>
<!-- Node35&#45;&gt;Node3 -->
<g id="edge100" class="edge"><title>Node35&#45;&gt;Node3</title>
<path fill="none" stroke="midnightblue" d="M1326.94,-456.833C1168.79,-455.89 554.988,-449.804 478,-412 419.151,-383.102 414.037,-357.2 382,-300 373.851,-285.45 368.318,-267.271 364.986,-253.841"/>
<polygon fill="midnightblue" stroke="midnightblue" points="368.343,-252.824 362.696,-243.861 361.521,-254.39 368.343,-252.824"/>
</g>
<!-- Node35&#45;&gt;Node4 -->
<g id="edge140" class="edge"><title>Node35&#45;&gt;Node4</title>
<path fill="none" stroke="midnightblue" d="M1326.95,-456.678C1147.38,-454.955 372.068,-445.614 270,-412 221.059,-395.882 174,-398.527 174,-347 174,-347 174,-347 174,-233 174,-167.887 388.161,-138.103 489.732,-127.639"/>
<polygon fill="midnightblue" stroke="midnightblue" points="490.186,-131.111 499.786,-126.628 489.486,-124.146 490.186,-131.111"/>
</g>
<!-- Node35&#45;&gt;Node13 -->
<g id="edge150" class="edge"><title>Node35&#45;&gt;Node13</title>
<path fill="none" stroke="midnightblue" d="M1401.17,-456.709C1567.18,-455.22 2241.7,-447.082 2450,-412 2548.86,-395.349 2666,-447.253 2666,-347 2666,-347 2666,-347 2666,-289 2666,-214.64 2402.93,-188.389 2306.17,-181.248"/>
<polygon fill="midnightblue" stroke="midnightblue" points="2306.23,-177.744 2296.01,-180.524 2305.73,-184.726 2306.23,-177.744"/>
</g>
<!-- Node35&#45;&gt;Node15 -->
<g id="edge98" class="edge"><title>Node35&#45;&gt;Node15</title>
<path fill="none" stroke="midnightblue" d="M1326.98,-457.438C1129.79,-459.294 212,-461.77 212,-347 212,-347 212,-347 212,-289 212,-150.786 733.874,-127.505 877.689,-123.714"/>
<polygon fill="midnightblue" stroke="midnightblue" points="877.852,-127.211 887.762,-123.465 877.678,-120.213 877.852,-127.211"/>
</g>
<!-- Node35&#45;&gt;Node17 -->
<g id="edge161" class="edge"><title>Node35&#45;&gt;Node17</title>
<path fill="none" stroke="midnightblue" d="M1401.03,-456.553C1509.34,-454.857 1834.72,-446.995 2102,-412 2226.54,-395.694 2278.57,-431.428 2379,-356 2394.24,-344.553 2403.28,-324.273 2408.16,-309.401"/>
<polygon fill="midnightblue" stroke="midnightblue" points="2411.54,-310.313 2411.01,-299.731 2404.83,-308.335 2411.54,-310.313"/>
</g>
<!-- Node35&#45;&gt;Node18 -->
<g id="edge176" class="edge"><title>Node35&#45;&gt;Node18</title>
<path fill="none" stroke="midnightblue" d="M1401.05,-448.788C1402.72,-448.504 1404.38,-448.24 1406,-448 1599.23,-419.478 1659.1,-474.952 1844,-412 1879.9,-399.776 1970.58,-335.239 2011.01,-305.738"/>
<polygon fill="midnightblue" stroke="midnightblue" points="2013.28,-308.416 2019.28,-299.683 2009.14,-302.769 2013.28,-308.416"/>
</g>
<!-- Node35&#45;&gt;Node19 -->
<g id="edge154" class="edge"><title>Node35&#45;&gt;Node19</title>
<path fill="none" stroke="midnightblue" d="M1401.06,-448.832C1402.73,-448.537 1404.38,-448.257 1406,-448 1482.35,-435.884 1685.15,-450.815 1752,-412 1816.3,-374.666 1856.74,-290.289 1872.05,-253.139"/>
<polygon fill="midnightblue" stroke="midnightblue" points="1875.39,-254.194 1875.84,-243.609 1868.89,-251.604 1875.39,-254.194"/>
</g>
<!-- Node35&#45;&gt;Node22 -->
<g id="edge177" class="edge"><title>Node35&#45;&gt;Node22</title>
<path fill="none" stroke="midnightblue" d="M1401.35,-456.264C1517.26,-453.667 1869.51,-443.336 1979,-412 1997.35,-406.748 1999.38,-399.338 2017,-392 2049.88,-378.303 2088.48,-366.39 2117.28,-358.268"/>
<polygon fill="midnightblue" stroke="midnightblue" points="2118.34,-361.607 2127.03,-355.556 2116.46,-354.863 2118.34,-361.607"/>
</g>
<!-- Node35&#45;&gt;Node23 -->
<g id="edge99" class="edge"><title>Node35&#45;&gt;Node23</title>
<path fill="none" stroke="midnightblue" d="M1365.98,-448.418C1368,-439.396 1371.1,-424.766 1373,-412 1387.68,-313.307 1386.22,-287.763 1388,-188 1388.16,-179.113 1388.2,-176.887 1388,-168 1387.81,-159.391 1387.41,-149.863 1387.02,-141.799"/>
<polygon fill="midnightblue" stroke="midnightblue" points="1390.51,-141.429 1386.5,-131.623 1383.52,-141.79 1390.51,-141.429"/>
</g>
<!-- Node35&#45;&gt;Node24 -->
<g id="edge151" class="edge"><title>Node35&#45;&gt;Node24</title>
<path fill="none" stroke="midnightblue" d="M1326.91,-455.86C1163.63,-450.45 514.583,-424.719 459,-356 406.099,-290.597 563.286,-253.714 635.639,-240.567"/>
<polygon fill="midnightblue" stroke="midnightblue" points="636.423,-243.983 645.663,-238.799 635.207,-237.089 636.423,-243.983"/>
</g>
<!-- Node35&#45;&gt;Node26 -->
<g id="edge139" class="edge"><title>Node35&#45;&gt;Node26</title>
<path fill="none" stroke="midnightblue" d="M1348.03,-448.475C1304.1,-423.925 1182.28,-348.112 1145,-244 1142,-235.631 1141.6,-232.212 1145,-224 1149.92,-212.121 1159.67,-201.743 1168.83,-193.956"/>
<polygon fill="midnightblue" stroke="midnightblue" points="1171.25,-196.506 1176.94,-187.564 1166.92,-191.01 1171.25,-196.506"/>
</g>
<!-- Node35&#45;&gt;Node29 -->
<g id="edge187" class="edge"><title>Node35&#45;&gt;Node29</title>
<path fill="none" stroke="midnightblue" d="M1397.12,-448.44C1484.74,-425.561 1716,-363.607 1716,-347 1716,-347 1716,-347 1716,-289 1716,-246.311 1674.65,-211.643 1647.09,-193.28"/>
<polygon fill="midnightblue" stroke="midnightblue" points="1648.67,-190.132 1638.36,-187.69 1644.89,-196.028 1648.67,-190.132"/>
</g>
<!-- Node35&#45;&gt;Node30 -->
<g id="edge141" class="edge"><title>Node35&#45;&gt;Node30</title>
<path fill="none" stroke="midnightblue" d="M1326.98,-457C1188.67,-456.682 702.59,-452.632 554,-412 497.385,-396.519 437.382,-394.057 446,-336 449.819,-310.271 445.787,-299.5 463,-280 479.999,-260.743 506.821,-249.323 528.553,-242.808"/>
<polygon fill="midnightblue" stroke="midnightblue" points="529.734,-246.113 538.436,-240.07 527.865,-239.367 529.734,-246.113"/>
</g>
<!-- Node36 -->
<g id="node36" class="node"><title>Node36</title>
<g id="a_node36"><a xlink:href="AIGoDown_8h.html" target="_top" xlink:title="AIGoDown.h">
<polygon fill="white" stroke="black" points="879.5,-392.5 879.5,-411.5 952.5,-411.5 952.5,-392.5 879.5,-392.5"/>
<text text-anchor="middle" x="916" y="-399.5" font-family="Helvetica,sans-Serif" font-size="10.00">AIGoDown.h</text>
</a>
</g>
</g>
<!-- Node35&#45;&gt;Node36 -->
<g id="edge101" class="edge"><title>Node35&#45;&gt;Node36</title>
<path fill="none" stroke="midnightblue" d="M1326.96,-452.535C1245.79,-442.752 1052.38,-419.439 962.899,-408.653"/>
<polygon fill="midnightblue" stroke="midnightblue" points="963.119,-405.154 952.772,-407.432 962.281,-412.104 963.119,-405.154"/>
</g>
<!-- Node37 -->
<g id="node37" class="node"><title>Node37</title>
<g id="a_node37"><a xlink:href="TileMap_8h.html" target="_top" xlink:title="TileMap.h">
<polygon fill="white" stroke="red" points="1316.5,-280.5 1316.5,-299.5 1375.5,-299.5 1375.5,-280.5 1316.5,-280.5"/>
<text text-anchor="middle" x="1346" y="-287.5" font-family="Helvetica,sans-Serif" font-size="10.00">TileMap.h</text>
</a>
</g>
</g>
<!-- Node35&#45;&gt;Node37 -->
<g id="edge152" class="edge"><title>Node35&#45;&gt;Node37</title>
<path fill="none" stroke="midnightblue" d="M1363.03,-448.075C1360.2,-421.945 1351.88,-345.211 1348.01,-309.577"/>
<polygon fill="midnightblue" stroke="midnightblue" points="1351.49,-309.132 1346.93,-299.568 1344.53,-309.887 1351.49,-309.132"/>
</g>
<!-- Node38 -->
<g id="node38" class="node"><title>Node38</title>
<g id="a_node38"><a xlink:href="Tileset_8h.html" target="_top" xlink:title="Tileset.h">
<polygon fill="white" stroke="black" points="1744,-224.5 1744,-243.5 1798,-243.5 1798,-224.5 1744,-224.5"/>
<text text-anchor="middle" x="1771" y="-231.5" font-family="Helvetica,sans-Serif" font-size="10.00">Tileset.h</text>
</a>
</g>
</g>
<!-- Node35&#45;&gt;Node38 -->
<g id="edge153" class="edge"><title>Node35&#45;&gt;Node38</title>
<path fill="none" stroke="midnightblue" d="M1401.06,-448.847C1402.73,-448.547 1404.38,-448.263 1406,-448 1477.51,-436.396 1675.87,-460.143 1730,-412 1775.73,-371.332 1775.69,-290.651 1773,-253.959"/>
<polygon fill="midnightblue" stroke="midnightblue" points="1776.46,-253.348 1772.08,-243.698 1769.48,-253.969 1776.46,-253.348"/>
</g>
<!-- Node39 -->
<g id="node39" class="node"><title>Node39</title>
<g id="a_node39"><a xlink:href="NearestGOFinder_8h.html" target="_top" xlink:title="NearestGOFinder.h">
<polygon fill="white" stroke="red" points="1168.5,-224.5 1168.5,-243.5 1269.5,-243.5 1269.5,-224.5 1168.5,-224.5"/>
<text text-anchor="middle" x="1219" y="-231.5" font-family="Helvetica,sans-Serif" font-size="10.00">NearestGOFinder.h</text>
</a>
</g>
</g>
<!-- Node35&#45;&gt;Node39 -->
<g id="edge188" class="edge"><title>Node35&#45;&gt;Node39</title>
<path fill="none" stroke="midnightblue" d="M1358.32,-448.297C1336.75,-415.286 1259.76,-297.404 1230.44,-252.522"/>
<polygon fill="midnightblue" stroke="midnightblue" points="1233.2,-250.342 1224.8,-243.884 1227.34,-254.17 1233.2,-250.342"/>
</g>
<!-- Node42 -->
<g id="node42" class="node"><title>Node42</title>
<g id="a_node42"><a xlink:href="WaveManager_8h.html" target="_top" xlink:title="WaveManager.h">
<polygon fill="white" stroke="red" points="1058,-336.5 1058,-355.5 1146,-355.5 1146,-336.5 1058,-336.5"/>
<text text-anchor="middle" x="1102" y="-343.5" font-family="Helvetica,sans-Serif" font-size="10.00">WaveManager.h</text>
</a>
</g>
</g>
<!-- Node35&#45;&gt;Node42 -->
<g id="edge178" class="edge"><title>Node35&#45;&gt;Node42</title>
<path fill="none" stroke="midnightblue" d="M1326.9,-455.617C1284,-452.545 1212.58,-442.785 1160,-412 1139.9,-400.23 1122.99,-379.092 1112.71,-364.12"/>
<polygon fill="midnightblue" stroke="midnightblue" points="1115.61,-362.167 1107.19,-355.734 1109.76,-366.012 1115.61,-362.167"/>
</g>
<!-- Node43 -->
<g id="node43" class="node"><title>Node43</title>
<g id="a_node43"><a xlink:href="AIPrintPath_8h.html" target="_top" xlink:title="AIPrintPath.h">
<polygon fill="white" stroke="red" points="779.5,-336.5 779.5,-355.5 854.5,-355.5 854.5,-336.5 779.5,-336.5"/>
<text text-anchor="middle" x="817" y="-343.5" font-family="Helvetica,sans-Serif" font-size="10.00">AIPrintPath.h</text>
</a>
</g>
</g>
<!-- Node35&#45;&gt;Node43 -->
<g id="edge130" class="edge"><title>Node35&#45;&gt;Node43</title>
<path fill="none" stroke="midnightblue" d="M1326.75,-457.283C1225.77,-457.478 949.076,-454.056 870,-412 850.174,-401.456 835.001,-380.027 826.07,-364.654"/>
<polygon fill="midnightblue" stroke="midnightblue" points="828.987,-362.694 821.116,-355.601 822.847,-366.054 828.987,-362.694"/>
</g>
<!-- Node44 -->
<g id="node44" class="node"><title>Node44</title>
<g id="a_node44"><a xlink:href="DragAndDrop_8h.html" target="_top" xlink:title="DragAndDrop.h">
<polygon fill="white" stroke="black" points="468,-336.5 468,-355.5 552,-355.5 552,-336.5 468,-336.5"/>
<text text-anchor="middle" x="510" y="-343.5" font-family="Helvetica,sans-Serif" font-size="10.00">DragAndDrop.h</text>
</a>
</g>
</g>
<!-- Node35&#45;&gt;Node44 -->
<g id="edge136" class="edge"><title>Node35&#45;&gt;Node44</title>
<path fill="none" stroke="midnightblue" d="M1326.97,-455.145C1241.53,-450.572 1024.15,-437.252 844,-412 740.712,-397.522 621.029,-372.097 556.693,-357.711"/>
<polygon fill="midnightblue" stroke="midnightblue" points="557.377,-354.278 546.853,-355.501 555.843,-361.108 557.377,-354.278"/>
</g>
<!-- Node45 -->
<g id="node45" class="node"><title>Node45</title>
<g id="a_node45"><a xlink:href="Obstacle_8h.html" target="_top" xlink:title="Obstacle.h">
<polygon fill="white" stroke="black" points="1482,-336.5 1482,-355.5 1546,-355.5 1546,-336.5 1482,-336.5"/>
<text text-anchor="middle" x="1514" y="-343.5" font-family="Helvetica,sans-Serif" font-size="10.00">Obstacle.h</text>
</a>
</g>
</g>
<!-- Node35&#45;&gt;Node45 -->
<g id="edge142" class="edge"><title>Node35&#45;&gt;Node45</title>
<path fill="none" stroke="midnightblue" d="M1375.77,-448.368C1401.4,-429.573 1462.5,-384.768 1494.18,-361.533"/>
<polygon fill="midnightblue" stroke="midnightblue" points="1496.29,-364.328 1502.28,-355.591 1492.15,-358.683 1496.29,-364.328"/>
</g>
<!-- Node46 -->
<g id="node46" class="node"><title>Node46</title>
<g id="a_node46"><a xlink:href="Tower_8h.html" target="_top" xlink:title="Tower.h">
<polygon fill="white" stroke="red" points="1606,-336.5 1606,-355.5 1658,-355.5 1658,-336.5 1606,-336.5"/>
<text text-anchor="middle" x="1632" y="-343.5" font-family="Helvetica,sans-Serif" font-size="10.00">Tower.h</text>
</a>
</g>
</g>
<!-- Node35&#45;&gt;Node46 -->
<g id="edge155" class="edge"><title>Node35&#45;&gt;Node46</title>
<path fill="none" stroke="midnightblue" d="M1385.03,-448.368C1432.19,-429.01 1546.57,-382.065 1601.53,-359.507"/>
<polygon fill="midnightblue" stroke="midnightblue" points="1603.15,-362.626 1611.07,-355.591 1600.49,-356.151 1603.15,-362.626"/>
</g>
<!-- Node47 -->
<g id="node47" class="node"><title>Node47</title>
<g id="a_node47"><a xlink:href="UIgridGroup_8h.html" target="_top" xlink:title="UIgridGroup.h">
<polygon fill="white" stroke="black" points="2437.5,-336.5 2437.5,-355.5 2514.5,-355.5 2514.5,-336.5 2437.5,-336.5"/>
<text text-anchor="middle" x="2476" y="-343.5" font-family="Helvetica,sans-Serif" font-size="10.00">UIgridGroup.h</text>
</a>
</g>
</g>
<!-- Node35&#45;&gt;Node47 -->
<g id="edge162" class="edge"><title>Node35&#45;&gt;Node47</title>
<path fill="none" stroke="midnightblue" d="M1401.27,-457.214C1578.38,-457.992 2330.2,-458.509 2423,-412 2443.07,-401.939 2458.2,-380.411 2467.05,-364.883"/>
<polygon fill="midnightblue" stroke="midnightblue" points="2470.32,-366.194 2471.95,-355.726 2464.14,-362.891 2470.32,-366.194"/>
</g>
<!-- Node48 -->
<g id="node48" class="node"><title>Node48</title>
<g id="a_node48"><a xlink:href="UIimageButton_8h.html" target="_top" xlink:title="UIimageButton.h">
<polygon fill="white" stroke="black" points="2929,-336.5 2929,-355.5 3019,-355.5 3019,-336.5 2929,-336.5"/>
<text text-anchor="middle" x="2974" y="-343.5" font-family="Helvetica,sans-Serif" font-size="10.00">UIimageButton.h</text>
</a>
</g>
</g>
<!-- Node35&#45;&gt;Node48 -->
<g id="edge169" class="edge"><title>Node35&#45;&gt;Node48</title>
<path fill="none" stroke="midnightblue" d="M1401.24,-456.649C1587.87,-454.752 2422.73,-444.559 2680,-412 2772.03,-400.353 2877.74,-373.62 2933.94,-358.313"/>
<polygon fill="midnightblue" stroke="midnightblue" points="2935.13,-361.616 2943.85,-355.594 2933.28,-354.866 2935.13,-361.616"/>
</g>
<!-- Node49 -->
<g id="node49" class="node"><title>Node49</title>
<g id="a_node49"><a xlink:href="PlayerData_8h.html" target="_top" xlink:title="PlayerData.h">
<polygon fill="white" stroke="black" points="1896,-392.5 1896,-411.5 1970,-411.5 1970,-392.5 1896,-392.5"/>
<text text-anchor="middle" x="1933" y="-399.5" font-family="Helvetica,sans-Serif" font-size="10.00">PlayerData.h</text>
</a>
</g>
</g>
<!-- Node35&#45;&gt;Node49 -->
<g id="edge179" class="edge"><title>Node35&#45;&gt;Node49</title>
<path fill="none" stroke="midnightblue" d="M1401.18,-454.897C1486.45,-449.828 1702.55,-435.582 1882,-412 1883.25,-411.835 1884.52,-411.661 1885.8,-411.48"/>
<polygon fill="midnightblue" stroke="midnightblue" points="1886.38,-414.933 1895.73,-409.966 1885.32,-408.013 1886.38,-414.933"/>
</g>
<!-- Node50 -->
<g id="node50" class="node"><title>Node50</title>
<g id="a_node50"><a xlink:href="EndState_8h.html" target="_top" xlink:title="EndState.h">
<polygon fill="white" stroke="red" points="966.5,-280.5 966.5,-299.5 1031.5,-299.5 1031.5,-280.5 966.5,-280.5"/>
<text text-anchor="middle" x="999" y="-287.5" font-family="Helvetica,sans-Serif" font-size="10.00">EndState.h</text>
</a>
</g>
</g>
<!-- Node35&#45;&gt;Node50 -->
<g id="edge189" class="edge"><title>Node35&#45;&gt;Node50</title>
<path fill="none" stroke="midnightblue" d="M1326.7,-454.279C1279.93,-449.856 1197.99,-438.731 1133,-412 1091.5,-394.933 1081.78,-386.635 1049,-356 1033.62,-341.625 1019.32,-322.169 1009.99,-308.298"/>
<polygon fill="midnightblue" stroke="midnightblue" points="1012.78,-306.167 1004.37,-299.719 1006.92,-310.002 1012.78,-306.167"/>
</g>
<!-- Node36&#45;&gt;Node27 -->
<g id="edge102" class="edge"><title>Node36&#45;&gt;Node27</title>
<path fill="none" stroke="midnightblue" d="M879.489,-400.647C780.463,-399.218 508.817,-392.03 428,-356 361.071,-326.162 336.344,-311.147 307,-244 292.646,-211.154 305.037,-189.121 334,-168 378.58,-135.49 520.675,-140.83 591.42,-131.828"/>
<polygon fill="midnightblue" stroke="midnightblue" points="591.927,-135.291 601.32,-130.389 590.921,-128.363 591.927,-135.291"/>
</g>
<!-- Node36&#45;&gt;Node37 -->
<g id="edge103" class="edge"><title>Node36&#45;&gt;Node37</title>
<path fill="none" stroke="midnightblue" d="M952.641,-395.7C999.682,-388.525 1083.63,-374.467 1154,-356 1211.65,-340.87 1277.06,-317.31 1314.72,-303.096"/>
<polygon fill="midnightblue" stroke="midnightblue" points="1316.03,-306.345 1324.13,-299.522 1313.54,-299.801 1316.03,-306.345"/>
</g>
<!-- Node40 -->
<g id="node40" class="node"><title>Node40</title>
<g id="a_node40"><a xlink:href="GameResources_8h.html" target="_top" xlink:title="GameResources.h">
<polygon fill="white" stroke="red" points="844,-168.5 844,-187.5 942,-187.5 942,-168.5 844,-168.5"/>
<text text-anchor="middle" x="893" y="-175.5" font-family="Helvetica,sans-Serif" font-size="10.00">GameResources.h</text>
</a>
</g>
</g>
<!-- Node36&#45;&gt;Node40 -->
<g id="edge115" class="edge"><title>Node36&#45;&gt;Node40</title>
<path fill="none" stroke="midnightblue" d="M879.42,-397.114C827.687,-389.306 736.091,-366.313 706,-300 690.476,-265.789 712.849,-246.411 743,-224 769.351,-204.414 804.22,-193.292 833.707,-187.008"/>
<polygon fill="midnightblue" stroke="midnightblue" points="834.765,-190.366 843.889,-184.981 833.398,-183.501 834.765,-190.366"/>
</g>
<!-- Node41 -->
<g id="node41" class="node"><title>Node41</title>
<g id="a_node41"><a xlink:href="ManhattanDistance_8h.html" target="_top" xlink:title="ManhattanDistance.h">
<polygon fill="white" stroke="red" points="800,-280.5 800,-299.5 910,-299.5 910,-280.5 800,-280.5"/>
<text text-anchor="middle" x="855" y="-287.5" font-family="Helvetica,sans-Serif" font-size="10.00">ManhattanDistance.h</text>
</a>
</g>
</g>
<!-- Node36&#45;&gt;Node41 -->
<g id="edge121" class="edge"><title>Node36&#45;&gt;Node41</title>
<path fill="none" stroke="midnightblue" d="M911.213,-392.368C901.236,-374.376 878.042,-332.55 864.775,-308.627"/>
<polygon fill="midnightblue" stroke="midnightblue" points="867.675,-306.639 859.764,-299.591 861.553,-310.034 867.675,-306.639"/>
</g>
<!-- Node36&#45;&gt;Node42 -->
<g id="edge122" class="edge"><title>Node36&#45;&gt;Node42</title>
<path fill="none" stroke="midnightblue" d="M945.472,-392.444C977.171,-383.241 1027.73,-368.562 1062.77,-358.388"/>
<polygon fill="midnightblue" stroke="midnightblue" points="1064.04,-361.666 1072.67,-355.516 1062.09,-354.943 1064.04,-361.666"/>
</g>
<!-- Node37&#45;&gt;Node6 -->
<g id="edge109" class="edge"><title>Node37&#45;&gt;Node6</title>
<path fill="none" stroke="midnightblue" d="M1343.33,-280.12C1335.49,-252.091 1315.46,-164.266 1355,-112 1378.19,-81.3483 1423.27,-71.3835 1454.47,-68.2506"/>
<polygon fill="midnightblue" stroke="midnightblue" points="1454.79,-71.7362 1464.47,-67.43 1454.22,-64.7597 1454.79,-71.7362"/>
</g>
<!-- Node37&#45;&gt;Node14 -->
<g id="edge104" class="edge"><title>Node37&#45;&gt;Node14</title>
<path fill="none" stroke="midnightblue" d="M1358.87,-280.336C1393.77,-257.347 1493.85,-194.735 1587,-168 1671.95,-143.619 1943.77,-128.797 2035.46,-124.39"/>
<polygon fill="midnightblue" stroke="midnightblue" points="2035.66,-127.885 2045.49,-123.916 2035.33,-120.893 2035.66,-127.885"/>
</g>
<!-- Node37&#45;&gt;Node23 -->
<g id="edge105" class="edge"><title>Node37&#45;&gt;Node23</title>
<path fill="none" stroke="midnightblue" d="M1348.15,-280.075C1354.45,-253.945 1372.94,-177.211 1381.52,-141.577"/>
<polygon fill="midnightblue" stroke="midnightblue" points="1385,-142.11 1383.94,-131.568 1378.19,-140.47 1385,-142.11"/>
</g>
<!-- Node37&#45;&gt;Node25 -->
<g id="edge111" class="edge"><title>Node37&#45;&gt;Node25</title>
<path fill="none" stroke="midnightblue" d="M1316.14,-283.47C1219.54,-265.581 915.051,-209.195 798.244,-187.564"/>
<polygon fill="midnightblue" stroke="midnightblue" points="798.661,-184.082 788.191,-185.702 797.387,-190.965 798.661,-184.082"/>
</g>
<!-- Node37&#45;&gt;Node26 -->
<g id="edge110" class="edge"><title>Node37&#45;&gt;Node26</title>
<path fill="none" stroke="midnightblue" d="M1338.31,-280.162C1326.38,-266.806 1302.23,-241.216 1278,-224 1259.94,-211.169 1237.72,-199.836 1220.12,-191.752"/>
<polygon fill="midnightblue" stroke="midnightblue" points="1221.44,-188.505 1210.88,-187.607 1218.57,-194.893 1221.44,-188.505"/>
</g>
<!-- Node37&#45;&gt;Node38 -->
<g id="edge106" class="edge"><title>Node37&#45;&gt;Node38</title>
<path fill="none" stroke="midnightblue" d="M1375.55,-285.246C1451.01,-275.658 1650.71,-250.284 1733.85,-239.72"/>
<polygon fill="midnightblue" stroke="midnightblue" points="1734.38,-243.181 1743.86,-238.448 1733.5,-236.236 1734.38,-243.181"/>
</g>
<!-- Node37&#45;&gt;Node39 -->
<g id="edge112" class="edge"><title>Node37&#45;&gt;Node39</title>
<path fill="none" stroke="midnightblue" d="M1325.88,-280.444C1304.98,-271.557 1272.07,-257.563 1248.28,-247.451"/>
<polygon fill="midnightblue" stroke="midnightblue" points="1249.6,-244.208 1239.03,-243.516 1246.86,-250.65 1249.6,-244.208"/>
</g>
<!-- Node38&#45;&gt;Node13 -->
<g id="edge108" class="edge"><title>Node38&#45;&gt;Node13</title>
<path fill="none" stroke="midnightblue" d="M1798.26,-226.544C1802.83,-225.598 1807.54,-224.706 1812,-224 1969.11,-199.144 2158.78,-185.767 2235.88,-181.021"/>
<polygon fill="midnightblue" stroke="midnightblue" points="2236.22,-184.506 2245.99,-180.408 2235.8,-177.519 2236.22,-184.506"/>
</g>
<!-- Node38&#45;&gt;Node14 -->
<g id="edge107" class="edge"><title>Node38&#45;&gt;Node14</title>
<path fill="none" stroke="midnightblue" d="M1794.15,-224.368C1847.05,-204.643 1976.77,-156.272 2035.83,-134.249"/>
<polygon fill="midnightblue" stroke="midnightblue" points="2037.2,-137.476 2045.34,-130.702 2034.75,-130.917 2037.2,-137.476"/>
</g>
<!-- Node39&#45;&gt;Node6 -->
<g id="edge113" class="edge"><title>Node39&#45;&gt;Node6</title>
<path fill="none" stroke="midnightblue" d="M1223.76,-224.439C1236.56,-202.239 1274.01,-142.435 1322,-112 1362.91,-86.0594 1418.63,-74.9251 1453.96,-70.2487"/>
<polygon fill="midnightblue" stroke="midnightblue" points="1454.73,-73.6809 1464.23,-68.9955 1453.88,-66.7324 1454.73,-73.6809"/>
</g>
<!-- Node39&#45;&gt;Node26 -->
<g id="edge114" class="edge"><title>Node39&#45;&gt;Node26</title>
<path fill="none" stroke="midnightblue" d="M1214.21,-224.083C1210.24,-216.691 1204.47,-205.953 1199.57,-196.811"/>
<polygon fill="midnightblue" stroke="midnightblue" points="1202.51,-194.905 1194.7,-187.751 1196.35,-198.217 1202.51,-194.905"/>
</g>
<!-- Node40&#45;&gt;Node7 -->
<g id="edge119" class="edge"><title>Node40&#45;&gt;Node7</title>
<path fill="none" stroke="midnightblue" d="M870.793,-168.368C820.784,-148.93 699.208,-101.674 641.459,-79.2278"/>
<polygon fill="midnightblue" stroke="midnightblue" points="642.692,-75.9521 632.103,-75.5914 640.156,-82.4766 642.692,-75.9521"/>
</g>
<!-- Node40&#45;&gt;Node8 -->
<g id="edge120" class="edge"><title>Node40&#45;&gt;Node8</title>
<path fill="none" stroke="midnightblue" d="M881.482,-168.289C863.734,-155.1 828.358,-129.725 796,-112 772.952,-99.3744 745.649,-87.5792 724.946,-79.2347"/>
<polygon fill="midnightblue" stroke="midnightblue" points="726.235,-75.9808 715.649,-75.5401 723.65,-82.4859 726.235,-75.9808"/>
</g>
<!-- Node40&#45;&gt;Node14 -->
<g id="edge118" class="edge"><title>Node40&#45;&gt;Node14</title>
<path fill="none" stroke="midnightblue" d="M942.197,-173.56C968.78,-171.766 1002.18,-169.614 1032,-168 1428.19,-146.555 1910.21,-128.625 2035.22,-124.101"/>
<polygon fill="midnightblue" stroke="midnightblue" points="2035.37,-127.598 2045.23,-123.74 2035.11,-120.603 2035.37,-127.598"/>
</g>
<!-- Node40&#45;&gt;Node15 -->
<g id="edge116" class="edge"><title>Node40&#45;&gt;Node15</title>
<path fill="none" stroke="midnightblue" d="M896.468,-168.083C899.312,-160.77 903.429,-150.181 906.96,-141.103"/>
<polygon fill="midnightblue" stroke="midnightblue" points="910.234,-142.34 910.597,-131.751 903.71,-139.803 910.234,-142.34"/>
</g>
<!-- Node40&#45;&gt;Node23 -->
<g id="edge117" class="edge"><title>Node40&#45;&gt;Node23</title>
<path fill="none" stroke="midnightblue" d="M942.073,-171.625C1042.62,-160.611 1269.65,-135.744 1353.81,-126.526"/>
<polygon fill="midnightblue" stroke="midnightblue" points="1354.25,-129.999 1363.81,-125.431 1353.48,-123.041 1354.25,-129.999"/>
</g>
<!-- Node42&#45;&gt;Node15 -->
<g id="edge123" class="edge"><title>Node42&#45;&gt;Node15</title>
<path fill="none" stroke="midnightblue" d="M1098.35,-336.117C1092.82,-323.142 1081.48,-298.538 1068,-280 1025.92,-222.142 962.932,-164.868 932.19,-138.321"/>
<polygon fill="midnightblue" stroke="midnightblue" points="934.293,-135.514 924.419,-131.674 929.743,-140.834 934.293,-135.514"/>
</g>
<!-- Node42&#45;&gt;Node19 -->
<g id="edge125" class="edge"><title>Node42&#45;&gt;Node19</title>
<path fill="none" stroke="midnightblue" d="M1146.2,-340.883C1220.06,-333.813 1373.14,-318.341 1502,-300 1628.39,-282.011 1777.52,-254.391 1843.99,-241.744"/>
<polygon fill="midnightblue" stroke="midnightblue" points="1844.77,-245.16 1853.93,-239.847 1843.45,-238.284 1844.77,-245.16"/>
</g>
<!-- Node42&#45;&gt;Node26 -->
<g id="edge124" class="edge"><title>Node42&#45;&gt;Node26</title>
<path fill="none" stroke="midnightblue" d="M1106.62,-336.361C1112.94,-323.264 1122.37,-298.009 1112,-280 1096.1,-252.385 1065.9,-271.615 1050,-244 1045.57,-236.297 1044.76,-231.183 1050,-224 1060.89,-209.055 1104.3,-196.613 1139.92,-188.628"/>
<polygon fill="midnightblue" stroke="midnightblue" points="1140.7,-192.04 1149.73,-186.495 1139.22,-185.2 1140.7,-192.04"/>
</g>
<!-- Node42&#45;&gt;Node27 -->
<g id="edge127" class="edge"><title>Node42&#45;&gt;Node27</title>
<path fill="none" stroke="midnightblue" d="M1068.27,-336.424C1038.48,-328.407 994.136,-315.382 957,-300 939.368,-292.696 937.298,-285.426 919,-280 835.556,-255.257 587.647,-308.309 529,-244 493.252,-204.801 568.304,-158.356 611.446,-136.13"/>
<polygon fill="midnightblue" stroke="midnightblue" points="613.262,-139.135 620.625,-131.517 610.118,-132.881 613.262,-139.135"/>
</g>
<!-- Node42&#45;&gt;Node29 -->
<g id="edge129" class="edge"><title>Node42&#45;&gt;Node29</title>
<path fill="none" stroke="midnightblue" d="M1146.47,-342.177C1202.89,-337.634 1302.65,-326.37 1384,-300 1468.76,-272.527 1560.5,-218.41 1601.31,-192.912"/>
<polygon fill="midnightblue" stroke="midnightblue" points="1603.3,-195.795 1609.9,-187.501 1599.57,-189.874 1603.3,-195.795"/>
</g>
<!-- Node42&#45;&gt;Node31 -->
<g id="edge128" class="edge"><title>Node42&#45;&gt;Node31</title>
<path fill="none" stroke="midnightblue" d="M1096.79,-336.372C1087.47,-321.817 1066.41,-292.728 1040,-280 959.002,-240.968 697.683,-310.346 637,-244 625.833,-231.791 627.458,-212.244 630.885,-197.77"/>
<polygon fill="midnightblue" stroke="midnightblue" points="634.323,-198.472 633.674,-187.897 627.587,-196.568 634.323,-198.472"/>
</g>
<!-- Node42&#45;&gt;Node37 -->
<g id="edge126" class="edge"><title>Node42&#45;&gt;Node37</title>
<path fill="none" stroke="midnightblue" d="M1140.66,-336.444C1186.01,-326.407 1260.79,-309.858 1306.5,-299.742"/>
<polygon fill="midnightblue" stroke="midnightblue" points="1307.34,-303.141 1316.34,-297.563 1305.82,-296.307 1307.34,-303.141"/>
</g>
<!-- Node43&#45;&gt;Node27 -->
<g id="edge131" class="edge"><title>Node43&#45;&gt;Node27</title>
<path fill="none" stroke="midnightblue" d="M779.427,-338.824C702.216,-325.285 530.085,-290.457 496,-244 476.019,-216.766 476.019,-195.234 496,-168 502.085,-159.706 555.196,-144.493 594.927,-134.07"/>
<polygon fill="midnightblue" stroke="midnightblue" points="595.904,-137.433 604.703,-131.531 594.144,-130.658 595.904,-137.433"/>
</g>
<!-- Node43&#45;&gt;Node32 -->
<g id="edge135" class="edge"><title>Node43&#45;&gt;Node32</title>
<path fill="none" stroke="midnightblue" d="M806.557,-336.324C796.854,-328.263 782.185,-316.077 770.5,-306.369"/>
<polygon fill="midnightblue" stroke="midnightblue" points="772.562,-303.532 762.633,-299.834 768.089,-308.916 772.562,-303.532"/>
</g>
<!-- Node43&#45;&gt;Node37 -->
<g id="edge132" class="edge"><title>Node43&#45;&gt;Node37</title>
<path fill="none" stroke="midnightblue" d="M854.62,-341.16C951.185,-331.303 1207.14,-305.174 1306.13,-295.07"/>
<polygon fill="midnightblue" stroke="midnightblue" points="1306.72,-298.528 1316.31,-294.031 1306.01,-291.564 1306.72,-298.528"/>
</g>
<!-- Node43&#45;&gt;Node40 -->
<g id="edge133" class="edge"><title>Node43&#45;&gt;Node40</title>
<path fill="none" stroke="midnightblue" d="M779.188,-337.44C742.71,-328.223 695.409,-310.041 713,-280 741.725,-230.944 803.973,-203.901 847.164,-190.427"/>
<polygon fill="midnightblue" stroke="midnightblue" points="848.307,-193.739 856.886,-187.522 846.302,-187.032 848.307,-193.739"/>
</g>
<!-- Node43&#45;&gt;Node41 -->
<g id="edge134" class="edge"><title>Node43&#45;&gt;Node41</title>
<path fill="none" stroke="midnightblue" d="M823.275,-336.083C828.642,-328.455 836.518,-317.264 843.079,-307.941"/>
<polygon fill="midnightblue" stroke="midnightblue" points="845.949,-309.943 848.842,-299.751 840.225,-305.915 845.949,-309.943"/>
</g>
<!-- Node44&#45;&gt;Node27 -->
<g id="edge137" class="edge"><title>Node44&#45;&gt;Node27</title>
<path fill="none" stroke="midnightblue" d="M505.047,-336.329C492.436,-314.878 457.117,-258.565 415,-224 383.933,-198.504 317.702,-198.391 344,-168 378.661,-127.945 522.072,-139.877 591.271,-131.785"/>
<polygon fill="midnightblue" stroke="midnightblue" points="591.902,-135.231 601.317,-130.371 590.927,-128.299 591.902,-135.231"/>
</g>
<!-- Node44&#45;&gt;Node37 -->
<g id="edge138" class="edge"><title>Node44&#45;&gt;Node37</title>
<path fill="none" stroke="midnightblue" d="M552.03,-342.285C695.632,-333.009 1165.65,-302.649 1306.05,-293.581"/>
<polygon fill="midnightblue" stroke="midnightblue" points="1306.59,-297.053 1316.34,-292.916 1306.13,-290.068 1306.59,-297.053"/>
</g>
<!-- Node45&#45;&gt;Node6 -->
<g id="edge148" class="edge"><title>Node45&#45;&gt;Node6</title>
<path fill="none" stroke="midnightblue" d="M1513.19,-336.375C1509.58,-297.782 1494.87,-140.454 1489.76,-85.8074"/>
<polygon fill="midnightblue" stroke="midnightblue" points="1493.21,-85.1549 1488.8,-75.5243 1486.24,-85.8067 1493.21,-85.1549"/>
</g>
<!-- Node45&#45;&gt;Node9 -->
<g id="edge146" class="edge"><title>Node45&#45;&gt;Node9</title>
<path fill="none" stroke="midnightblue" d="M1546.3,-341.26C1561.65,-339.543 1580.26,-337.55 1597,-336 1805.17,-316.729 1858.19,-322.832 2066,-300 2076.91,-298.802 2446.71,-247.81 2457,-244 2459.3,-243.147 2575.17,-169.009 2624.81,-137.217"/>
<polygon fill="midnightblue" stroke="midnightblue" points="2627,-139.97 2633.53,-131.629 2623.23,-134.075 2627,-139.97"/>
</g>
<!-- Node45&#45;&gt;Node13 -->
<g id="edge145" class="edge"><title>Node45&#45;&gt;Node13</title>
<path fill="none" stroke="midnightblue" d="M1541.73,-336.444C1570.06,-327.622 1615.25,-313.314 1654,-300 1722.48,-276.472 1740.81,-273.373 1807,-244 1824.44,-236.258 1826.74,-229.546 1845,-224 1985.06,-181.462 2161.56,-177.734 2235.68,-178.283"/>
<polygon fill="midnightblue" stroke="midnightblue" points="2235.82,-181.785 2245.86,-178.391 2235.9,-174.785 2235.82,-181.785"/>
</g>
<!-- Node45&#45;&gt;Node14 -->
<g id="edge149" class="edge"><title>Node45&#45;&gt;Node14</title>
<path fill="none" stroke="midnightblue" d="M1527.84,-336.45C1562.09,-315.509 1653.9,-260.691 1735,-224 1801.35,-193.981 1819.4,-189.444 1889,-168 1939.66,-152.391 1999.65,-137.975 2035.17,-129.852"/>
<polygon fill="midnightblue" stroke="midnightblue" points="2036.4,-133.164 2045.37,-127.539 2034.85,-126.337 2036.4,-133.164"/>
</g>
<!-- Node45&#45;&gt;Node26 -->
<g id="edge143" class="edge"><title>Node45&#45;&gt;Node26</title>
<path fill="none" stroke="midnightblue" d="M1481.71,-339.51C1440.67,-332.183 1367.83,-318.013 1307,-300 1273.28,-290.016 1178.99,-272.932 1159,-244 1148.31,-228.522 1160.89,-208.783 1173.09,-195.14"/>
<polygon fill="midnightblue" stroke="midnightblue" points="1175.65,-197.529 1180.04,-187.889 1170.6,-192.683 1175.65,-197.529"/>
</g>
<!-- Node45&#45;&gt;Node32 -->
<g id="edge147" class="edge"><title>Node45&#45;&gt;Node32</title>
<path fill="none" stroke="midnightblue" d="M1481.74,-344.879C1381.05,-344.105 1063.65,-338.658 791.773,-299.843"/>
<polygon fill="midnightblue" stroke="midnightblue" points="792.113,-296.355 781.715,-298.388 791.111,-303.283 792.113,-296.355"/>
</g>
<!-- Node45&#45;&gt;Node37 -->
<g id="edge144" class="edge"><title>Node45&#45;&gt;Node37</title>
<path fill="none" stroke="midnightblue" d="M1487.38,-336.444C1458.99,-327.32 1413.86,-312.813 1382.25,-302.651"/>
<polygon fill="midnightblue" stroke="midnightblue" points="1383.09,-299.244 1372.5,-299.516 1380.94,-305.909 1383.09,-299.244"/>
</g>
<!-- Node46&#45;&gt;Node6 -->
<g id="edge160" class="edge"><title>Node46&#45;&gt;Node6</title>
<path fill="none" stroke="midnightblue" d="M1627.53,-336.375C1607.37,-297.459 1524.68,-137.807 1497.04,-84.4544"/>
<polygon fill="midnightblue" stroke="midnightblue" points="1500.12,-82.7939 1492.42,-75.5243 1493.91,-86.0136 1500.12,-82.7939"/>
</g>
<!-- Node46&#45;&gt;Node9 -->
<g id="edge158" class="edge"><title>Node46&#45;&gt;Node9</title>
<path fill="none" stroke="midnightblue" d="M1658.22,-344.38C1740.46,-342.134 2000.52,-332.743 2213,-300 2251.78,-294.023 2260.6,-288.08 2299,-280 2383.53,-262.213 2410.8,-278.486 2490,-244 2548.9,-218.353 2605.39,-165.764 2631.66,-139.167"/>
<polygon fill="midnightblue" stroke="midnightblue" points="2634.35,-141.417 2638.81,-131.806 2629.33,-136.539 2634.35,-141.417"/>
</g>
<!-- Node46&#45;&gt;Node13 -->
<g id="edge157" class="edge"><title>Node46&#45;&gt;Node13</title>
<path fill="none" stroke="midnightblue" d="M1658.24,-338.183C1759.02,-312.004 2121.28,-217.895 2235.94,-188.108"/>
<polygon fill="midnightblue" stroke="midnightblue" points="2237.14,-191.413 2245.94,-185.511 2235.38,-184.638 2237.14,-191.413"/>
</g>
<!-- Node46&#45;&gt;Node26 -->
<g id="edge156" class="edge"><title>Node46&#45;&gt;Node26</title>
<path fill="none" stroke="midnightblue" d="M1609.17,-336.425C1535.96,-308.932 1306.97,-222.932 1222.08,-191.05"/>
<polygon fill="midnightblue" stroke="midnightblue" points="1223.29,-187.763 1212.7,-187.524 1220.83,-194.317 1223.29,-187.763"/>
</g>
<!-- Node46&#45;&gt;Node37 -->
<g id="edge159" class="edge"><title>Node46&#45;&gt;Node37</title>
<path fill="none" stroke="midnightblue" d="M1605.86,-340.065C1555.65,-330.584 1445.42,-309.771 1385.94,-298.541"/>
<polygon fill="midnightblue" stroke="midnightblue" points="1386.27,-295.042 1375.8,-296.626 1384.97,-301.921 1386.27,-295.042"/>
</g>
<!-- Node47&#45;&gt;Node6 -->
<g id="edge166" class="edge"><title>Node47&#45;&gt;Node6</title>
<path fill="none" stroke="midnightblue" d="M2514.81,-343.427C2619.35,-338.881 2901.31,-324.464 2935,-300 3007.4,-247.428 3069.32,-176.197 3007,-112 2980.23,-84.4265 1743.26,-69.762 1521.77,-67.3551"/>
<polygon fill="midnightblue" stroke="midnightblue" points="1521.75,-63.8548 1511.71,-67.2467 1521.67,-70.8544 1521.75,-63.8548"/>
</g>
<!-- Node47&#45;&gt;Node9 -->
<g id="edge165" class="edge"><title>Node47&#45;&gt;Node9</title>
<path fill="none" stroke="midnightblue" d="M2514.89,-336.759C2516.28,-336.498 2517.65,-336.244 2519,-336 2571.42,-326.54 2715.16,-334.205 2756,-300 2802.8,-260.801 2830.39,-217.021 2794,-168 2763,-126.23 2731.65,-145.783 2680.08,-133.234"/>
<polygon fill="midnightblue" stroke="midnightblue" points="2680.79,-129.797 2670.21,-130.496 2678.91,-136.542 2680.79,-129.797"/>
</g>
<!-- Node47&#45;&gt;Node14 -->
<g id="edge168" class="edge"><title>Node47&#45;&gt;Node14</title>
<path fill="none" stroke="midnightblue" d="M2475.46,-336.279C2474.16,-322.615 2469.77,-296.063 2455,-280 2426.96,-249.497 2407.18,-260.112 2369,-244 2348.09,-235.173 2342.9,-232.871 2322,-224 2284.24,-207.968 2274.25,-205.182 2237,-188 2218.95,-179.676 2215.34,-175.658 2197,-168 2154.14,-150.103 2139.85,-148.563 2096.45,-133.845"/>
<polygon fill="midnightblue" stroke="midnightblue" points="2097.32,-130.443 2086.73,-130.494 2095.04,-137.061 2097.32,-130.443"/>
</g>
<!-- Node47&#45;&gt;Node16 -->
<g id="edge163" class="edge"><title>Node47&#45;&gt;Node16</title>
<path fill="none" stroke="midnightblue" d="M2481.23,-336.408C2488.43,-323.373 2499.37,-298.196 2489,-280 2480.59,-265.247 2465.23,-254.838 2450.52,-247.774"/>
<polygon fill="midnightblue" stroke="midnightblue" points="2451.58,-244.418 2441.02,-243.603 2448.76,-250.827 2451.58,-244.418"/>
</g>
<!-- Node47&#45;&gt;Node17 -->
<g id="edge164" class="edge"><title>Node47&#45;&gt;Node17</title>
<path fill="none" stroke="midnightblue" d="M2465.88,-336.324C2456.47,-328.263 2442.26,-316.077 2430.93,-306.369"/>
<polygon fill="midnightblue" stroke="midnightblue" points="2433.18,-303.684 2423.31,-299.834 2428.62,-308.999 2433.18,-303.684"/>
</g>
<!-- Node47&#45;&gt;Node23 -->
<g id="edge167" class="edge"><title>Node47&#45;&gt;Node23</title>
<path fill="none" stroke="midnightblue" d="M2447.75,-336.498C2353.01,-308.29 2037.57,-216.829 1771,-168 1641.52,-144.282 1485.13,-130.537 1418.55,-125.371"/>
<polygon fill="midnightblue" stroke="midnightblue" points="1418.52,-121.859 1408.28,-124.588 1417.99,-128.839 1418.52,-121.859"/>
</g>
<!-- Node48&#45;&gt;Node9 -->
<g id="edge172" class="edge"><title>Node48&#45;&gt;Node9</title>
<path fill="none" stroke="midnightblue" d="M2990.91,-336.366C3004.1,-328.686 3021.69,-316.173 3031,-300 3047.94,-270.562 3055.11,-253.902 3039,-224 3017.54,-184.172 2996.27,-184.108 2954,-168 2859.42,-131.962 2738.3,-124.583 2680.54,-123.208"/>
<polygon fill="midnightblue" stroke="midnightblue" points="2680.26,-119.702 2670.19,-123.011 2680.12,-126.701 2680.26,-119.702"/>
</g>
<!-- Node48&#45;&gt;Node11 -->
<g id="edge173" class="edge"><title>Node48&#45;&gt;Node11</title>
<path fill="none" stroke="midnightblue" d="M2958.42,-336.324C2943,-327.743 2919.19,-314.486 2901.29,-304.522"/>
<polygon fill="midnightblue" stroke="midnightblue" points="2902.99,-301.461 2892.55,-299.655 2899.58,-307.577 2902.99,-301.461"/>
</g>
<!-- Node48&#45;&gt;Node12 -->
<g id="edge170" class="edge"><title>Node48&#45;&gt;Node12</title>
<path fill="none" stroke="midnightblue" d="M3019.3,-338.605C3062.12,-331.521 3121.87,-318.591 3136,-300 3172.94,-251.397 3146.18,-205.496 3098,-168 3071.51,-147.387 3034.72,-135.627 3008.09,-129.34"/>
<polygon fill="midnightblue" stroke="midnightblue" points="3008.6,-125.866 2998.08,-127.117 3007.08,-132.7 3008.6,-125.866"/>
</g>
<!-- Node48&#45;&gt;Node13 -->
<g id="edge171" class="edge"><title>Node48&#45;&gt;Node13</title>
<path fill="none" stroke="midnightblue" d="M2944.5,-336.454C2916.5,-328.075 2873.41,-314.482 2837,-300 2782.69,-278.395 2770.32,-270.063 2718,-244 2700.92,-235.49 2698.25,-229.586 2680,-224 2546.48,-183.132 2378.41,-178.438 2306.39,-178.503"/>
<polygon fill="midnightblue" stroke="midnightblue" points="2306.07,-175.004 2296.08,-178.547 2306.1,-182.004 2306.07,-175.004"/>
</g>
<!-- Node48&#45;&gt;Node14 -->
<g id="edge175" class="edge"><title>Node48&#45;&gt;Node14</title>
<path fill="none" stroke="midnightblue" d="M2968.1,-336.434C2958.48,-322.982 2938.25,-296.715 2916,-280 2869.91,-245.372 2852.89,-244.472 2799,-224 2714.71,-191.98 2692.69,-184.281 2604,-168 2413.43,-133.016 2179.83,-125.189 2096.95,-123.472"/>
<polygon fill="midnightblue" stroke="midnightblue" points="2096.78,-119.968 2086.72,-123.275 2096.65,-126.966 2096.78,-119.968"/>
</g>
<!-- Node48&#45;&gt;Node21 -->
<g id="edge174" class="edge"><title>Node48&#45;&gt;Node21</title>
<path fill="none" stroke="midnightblue" d="M2982.88,-336.196C3002.77,-315.379 3047.26,-262.026 3022,-224 3007.36,-201.968 2979.61,-190.699 2956.04,-184.948"/>
<polygon fill="midnightblue" stroke="midnightblue" points="2956.76,-181.523 2946.24,-182.805 2955.26,-188.361 2956.76,-181.523"/>
</g>
<!-- Node49&#45;&gt;Node16 -->
<g id="edge182" class="edge"><title>Node49&#45;&gt;Node16</title>
<path fill="none" stroke="midnightblue" d="M1950.6,-392.462C1995.25,-371.074 2116.89,-314.449 2223,-280 2271.69,-264.193 2329.05,-251.377 2367.91,-243.523"/>
<polygon fill="midnightblue" stroke="midnightblue" points="2368.74,-246.926 2377.86,-241.538 2367.37,-240.061 2368.74,-246.926"/>
</g>
<!-- Node49&#45;&gt;Node17 -->
<g id="edge185" class="edge"><title>Node49&#45;&gt;Node17</title>
<path fill="none" stroke="midnightblue" d="M1970.12,-396.552C2035.88,-388.429 2170.12,-370.677 2215,-356 2233.51,-349.946 2235.87,-343.132 2254,-336 2292.06,-321.026 2337.04,-308.773 2369.43,-300.855"/>
<polygon fill="midnightblue" stroke="midnightblue" points="2370.58,-304.18 2379.48,-298.439 2368.94,-297.374 2370.58,-304.18"/>
</g>
<!-- Node49&#45;&gt;Node18 -->
<g id="edge183" class="edge"><title>Node49&#45;&gt;Node18</title>
<path fill="none" stroke="midnightblue" d="M1940.69,-392.368C1957.01,-374.055 1995.32,-331.049 2016.42,-307.362"/>
<polygon fill="midnightblue" stroke="midnightblue" points="2019.31,-309.386 2023.35,-299.591 2014.08,-304.73 2019.31,-309.386"/>
</g>
<!-- Node49&#45;&gt;Node20 -->
<g id="edge184" class="edge"><title>Node49&#45;&gt;Node20</title>
<path fill="none" stroke="midnightblue" d="M1970.02,-396.018C2029.07,-388.005 2148.23,-371.57 2249,-356 2250.27,-355.804 2251.55,-355.604 2252.85,-355.4"/>
<polygon fill="midnightblue" stroke="midnightblue" points="2253.59,-358.826 2262.91,-353.79 2252.49,-351.914 2253.59,-358.826"/>
</g>
<!-- Node49&#45;&gt;Node22 -->
<g id="edge186" class="edge"><title>Node49&#45;&gt;Node22</title>
<path fill="none" stroke="midnightblue" d="M1968.97,-392.444C2008.32,-383.083 2071.49,-368.056 2114.31,-357.868"/>
<polygon fill="midnightblue" stroke="midnightblue" points="2115.28,-361.236 2124.2,-355.516 2113.66,-354.426 2115.28,-361.236"/>
</g>
<!-- Node49&#45;&gt;Node26 -->
<g id="edge180" class="edge"><title>Node49&#45;&gt;Node26</title>
<path fill="none" stroke="midnightblue" d="M1895.82,-398.994C1817.31,-394.401 1629.01,-381.498 1473,-356 1363.62,-338.123 1331.13,-345.352 1230,-300 1210.37,-291.195 1160.88,-263.116 1151,-244 1142.01,-226.605 1156.64,-207.471 1170.48,-194.498"/>
<polygon fill="midnightblue" stroke="midnightblue" points="1173.12,-196.843 1178.35,-187.63 1168.51,-191.569 1173.12,-196.843"/>
</g>
<!-- Node49&#45;&gt;Node42 -->
<g id="edge181" class="edge"><title>Node49&#45;&gt;Node42</title>
<path fill="none" stroke="midnightblue" d="M1895.95,-398.592C1763.56,-389.989 1313.42,-360.738 1156.49,-350.541"/>
<polygon fill="midnightblue" stroke="midnightblue" points="1156.36,-347.025 1146.15,-349.869 1155.9,-354.01 1156.36,-347.025"/>
</g>
<!-- Node50&#45;&gt;Node13 -->
<g id="edge192" class="edge"><title>Node50&#45;&gt;Node13</title>
<path fill="none" stroke="midnightblue" d="M1031.64,-286.066C1134.81,-276.806 1463.1,-247.42 1735,-224 1923.71,-207.746 2149.85,-189 2235.65,-181.914"/>
<polygon fill="midnightblue" stroke="midnightblue" points="2236.2,-185.381 2245.88,-181.07 2235.63,-178.405 2236.2,-185.381"/>
</g>
<!-- Node50&#45;&gt;Node26 -->
<g id="edge190" class="edge"><title>Node50&#45;&gt;Node26</title>
<path fill="none" stroke="midnightblue" d="M998.044,-280.109C997.076,-266.21 997.408,-239.344 1012,-224 1029.41,-205.694 1093.5,-192.805 1139.79,-185.643"/>
<polygon fill="midnightblue" stroke="midnightblue" points="1140.59,-189.062 1149.96,-184.116 1139.55,-182.14 1140.59,-189.062"/>
</g>
<!-- Node50&#45;&gt;Node30 -->
<g id="edge191" class="edge"><title>Node50&#45;&gt;Node30</title>
<path fill="none" stroke="midnightblue" d="M966.446,-282.39C961.614,-281.518 956.685,-280.69 952,-280 798.165,-257.357 757.451,-269.11 604,-244 602.551,-243.763 601.076,-243.506 599.589,-243.233"/>
<polygon fill="midnightblue" stroke="midnightblue" points="600.226,-239.791 589.733,-241.26 598.852,-246.655 600.226,-239.791"/>
</g>
</g>
</svg>
