<?xml version="1.0" encoding="UTF-8" standalone="no"?>
<!DOCTYPE svg PUBLIC "-//W3C//DTD SVG 1.1//EN"
 "http://www.w3.org/Graphics/SVG/1.1/DTD/svg11.dtd">
<!-- Generated by graphviz version 2.38.0 (20140413.2041)
 -->
<!-- Title: Game/src/TitleState.cpp Pages: 1 -->
<svg width="1364pt" height="476pt"
 viewBox="0.00 0.00 1364.00 476.00" xmlns="http://www.w3.org/2000/svg" xmlns:xlink="http://www.w3.org/1999/xlink">
<g id="graph0" class="graph" transform="scale(1 1) rotate(0) translate(4 472)">
<title>Game/src/TitleState.cpp</title>
<polygon fill="white" stroke="none" points="-4,4 -4,-472 1360,-472 1360,4 -4,4"/>
<!-- Node1 -->
<g id="node1" class="node"><title>Node1</title>
<polygon fill="#bfbfbf" stroke="black" points="15.5,-448.5 15.5,-467.5 138.5,-467.5 138.5,-448.5 15.5,-448.5"/>
<text text-anchor="middle" x="77" y="-455.5" font-family="Helvetica,sans-Serif" font-size="10.00">Game/src/TitleState.cpp</text>
</g>
<!-- Node2 -->
<g id="node2" class="node"><title>Node2</title>
<g id="a_node2"><a xlink:href="TitleState_8h.html" target="_top" xlink:title="TitleState.h">
<polygon fill="white" stroke="black" points="827.5,-224.5 827.5,-243.5 894.5,-243.5 894.5,-224.5 827.5,-224.5"/>
<text text-anchor="middle" x="861" y="-231.5" font-family="Helvetica,sans-Serif" font-size="10.00">TitleState.h</text>
</a>
</g>
</g>
<!-- Node1&#45;&gt;Node2 -->
<g id="edge1" class="edge"><title>Node1&#45;&gt;Node2</title>
<path fill="none" stroke="midnightblue" d="M138.598,-457.413C270.513,-457.481 575.965,-453.045 670,-412 752.505,-375.988 822.219,-288.909 849.124,-251.995"/>
<polygon fill="midnightblue" stroke="midnightblue" points="852.049,-253.921 855.023,-243.752 846.357,-249.847 852.049,-253.921"/>
</g>
<!-- Node4 -->
<g id="node4" class="node"><title>Node4</title>
<g id="a_node4"><a xlink:href="InputManager_8h.html" target="_top" xlink:title="InputManager.h">
<polygon fill="white" stroke="black" points="256,-112.5 256,-131.5 340,-131.5 340,-112.5 256,-112.5"/>
<text text-anchor="middle" x="298" y="-119.5" font-family="Helvetica,sans-Serif" font-size="10.00">InputManager.h</text>
</a>
</g>
</g>
<!-- Node1&#45;&gt;Node4 -->
<g id="edge40" class="edge"><title>Node1&#45;&gt;Node4</title>
<path fill="none" stroke="midnightblue" d="M65.3054,-448.468C43.7648,-431.665 0,-391.99 0,-347 0,-347 0,-347 0,-233 0,-193.985 24.9484,-187.044 59,-168 117.436,-135.319 195.182,-125.859 245.893,-123.392"/>
<polygon fill="midnightblue" stroke="midnightblue" points="246.126,-126.885 255.974,-122.976 245.838,-119.891 246.126,-126.885"/>
</g>
<!-- Node19 -->
<g id="node19" class="node"><title>Node19</title>
<g id="a_node19"><a xlink:href="Camera_8h.html" target="_top" xlink:title="Camera.h">
<polygon fill="white" stroke="black" points="66.5,-224.5 66.5,-243.5 125.5,-243.5 125.5,-224.5 66.5,-224.5"/>
<text text-anchor="middle" x="96" y="-231.5" font-family="Helvetica,sans-Serif" font-size="10.00">Camera.h</text>
</a>
</g>
</g>
<!-- Node1&#45;&gt;Node19 -->
<g id="edge30" class="edge"><title>Node1&#45;&gt;Node19</title>
<path fill="none" stroke="midnightblue" d="M73.4,-448.222C69.9438,-439.285 64.9668,-424.942 63,-412 54.186,-353.999 44.7475,-335.755 63,-280 66.4899,-269.34 73.5731,-259.117 80.2855,-251.117"/>
<polygon fill="midnightblue" stroke="midnightblue" points="82.9044,-253.439 86.9802,-243.66 77.6954,-248.763 82.9044,-253.439"/>
</g>
<!-- Node20 -->
<g id="node20" class="node"><title>Node20</title>
<g id="a_node20"><a xlink:href="Game_8h.html" target="_top" xlink:title="Game.h">
<polygon fill="white" stroke="black" points="220.5,-224.5 220.5,-243.5 271.5,-243.5 271.5,-224.5 220.5,-224.5"/>
<text text-anchor="middle" x="246" y="-231.5" font-family="Helvetica,sans-Serif" font-size="10.00">Game.h</text>
</a>
</g>
</g>
<!-- Node1&#45;&gt;Node20 -->
<g id="edge34" class="edge"><title>Node1&#45;&gt;Node20</title>
<path fill="none" stroke="midnightblue" d="M83.625,-448.297C108.86,-415.148 199.248,-296.414 233.088,-251.961"/>
<polygon fill="midnightblue" stroke="midnightblue" points="235.965,-253.961 239.237,-243.884 230.395,-249.721 235.965,-253.961"/>
</g>
<!-- Node22 -->
<g id="node22" class="node"><title>Node22</title>
<g id="a_node22"><a xlink:href="StageState_8h.html" target="_top" xlink:title="StageState.h">
<polygon fill="white" stroke="black" points="587,-392.5 587,-411.5 661,-411.5 661,-392.5 587,-392.5"/>
<text text-anchor="middle" x="624" y="-399.5" font-family="Helvetica,sans-Serif" font-size="10.00">StageState.h</text>
</a>
</g>
</g>
<!-- Node1&#45;&gt;Node22 -->
<g id="edge41" class="edge"><title>Node1&#45;&gt;Node22</title>
<path fill="none" stroke="midnightblue" d="M138.685,-450.91C249.055,-440.015 478.002,-417.413 576.859,-407.654"/>
<polygon fill="midnightblue" stroke="midnightblue" points="577.247,-411.133 586.854,-406.667 576.559,-404.166 577.247,-411.133"/>
</g>
<!-- Node3 -->
<g id="node3" class="node"><title>Node3</title>
<g id="a_node3"><a xlink:href="ActionManager_8h.html" target="_top" xlink:title="ActionManager.h">
<polygon fill="white" stroke="black" points="104,-168.5 104,-187.5 194,-187.5 194,-168.5 104,-168.5"/>
<text text-anchor="middle" x="149" y="-175.5" font-family="Helvetica,sans-Serif" font-size="10.00">ActionManager.h</text>
</a>
</g>
</g>
<!-- Node2&#45;&gt;Node3 -->
<g id="edge2" class="edge"><title>Node2&#45;&gt;Node3</title>
<path fill="none" stroke="midnightblue" d="M827.138,-230.432C713.495,-221.813 344.97,-193.863 204.28,-183.193"/>
<polygon fill="midnightblue" stroke="midnightblue" points="204.39,-179.691 194.154,-182.425 203.86,-186.671 204.39,-179.691"/>
</g>
<!-- Node8 -->
<g id="node8" class="node"><title>Node8</title>
<g id="a_node8"><a xlink:href="Sprite_8h.html" target="_top" xlink:title="Sprite.h">
<polygon fill="white" stroke="black" points="901,-168.5 901,-187.5 951,-187.5 951,-168.5 901,-168.5"/>
<text text-anchor="middle" x="926" y="-175.5" font-family="Helvetica,sans-Serif" font-size="10.00">Sprite.h</text>
</a>
</g>
</g>
<!-- Node2&#45;&gt;Node8 -->
<g id="edge7" class="edge"><title>Node2&#45;&gt;Node8</title>
<path fill="none" stroke="midnightblue" d="M871.443,-224.324C881.146,-216.263 895.815,-204.077 907.5,-194.369"/>
<polygon fill="midnightblue" stroke="midnightblue" points="909.911,-196.916 915.367,-187.834 905.438,-191.532 909.911,-196.916"/>
</g>
<!-- Node14 -->
<g id="node14" class="node"><title>Node14</title>
<g id="a_node14"><a xlink:href="State_8h.html" target="_top" xlink:title="State.h">
<polygon fill="white" stroke="black" points="736,-168.5 736,-187.5 784,-187.5 784,-168.5 736,-168.5"/>
<text text-anchor="middle" x="760" y="-175.5" font-family="Helvetica,sans-Serif" font-size="10.00">State.h</text>
</a>
</g>
</g>
<!-- Node2&#45;&gt;Node14 -->
<g id="edge15" class="edge"><title>Node2&#45;&gt;Node14</title>
<path fill="none" stroke="midnightblue" d="M844.773,-224.324C828.649,-215.703 803.7,-202.364 785.036,-192.386"/>
<polygon fill="midnightblue" stroke="midnightblue" points="786.656,-189.283 776.187,-187.655 783.356,-195.456 786.656,-189.283"/>
</g>
<!-- Node3&#45;&gt;Node4 -->
<g id="edge3" class="edge"><title>Node3&#45;&gt;Node4</title>
<path fill="none" stroke="midnightblue" d="M172.609,-168.444C197.458,-159.438 236.774,-145.189 264.754,-135.049"/>
<polygon fill="midnightblue" stroke="midnightblue" points="266.292,-138.214 274.501,-131.516 263.907,-131.633 266.292,-138.214"/>
</g>
<!-- Node5 -->
<g id="node5" class="node"><title>Node5</title>
<g id="a_node5"><a xlink:href="Vec2_8h.html" target="_top" xlink:title="Vec2.h">
<polygon fill="white" stroke="black" points="237.5,-0.5 237.5,-19.5 284.5,-19.5 284.5,-0.5 237.5,-0.5"/>
<text text-anchor="middle" x="261" y="-7.5" font-family="Helvetica,sans-Serif" font-size="10.00">Vec2.h</text>
</a>
</g>
</g>
<!-- Node4&#45;&gt;Node5 -->
<g id="edge4" class="edge"><title>Node4&#45;&gt;Node5</title>
<path fill="none" stroke="midnightblue" d="M294.301,-112.466C290.475,-103.483 284.449,-88.8848 280,-76 274.664,-60.5457 269.519,-42.7011 265.932,-29.6234"/>
<polygon fill="midnightblue" stroke="midnightblue" points="269.297,-28.6606 263.315,-19.9164 262.538,-30.4827 269.297,-28.6606"/>
</g>
<!-- Node6 -->
<g id="node6" class="node"><title>Node6</title>
<polygon fill="white" stroke="#bfbfbf" points="353.5,-56.5 353.5,-75.5 436.5,-75.5 436.5,-56.5 353.5,-56.5"/>
<text text-anchor="middle" x="395" y="-63.5" font-family="Helvetica,sans-Serif" font-size="10.00">unordered_map</text>
</g>
<!-- Node4&#45;&gt;Node6 -->
<g id="edge5" class="edge"><title>Node4&#45;&gt;Node6</title>
<path fill="none" stroke="midnightblue" d="M313.585,-112.324C328.999,-103.743 352.812,-90.486 370.71,-80.5224"/>
<polygon fill="midnightblue" stroke="midnightblue" points="372.419,-83.5767 379.454,-75.6545 369.014,-77.4606 372.419,-83.5767"/>
</g>
<!-- Node7 -->
<g id="node7" class="node"><title>Node7</title>
<polygon fill="white" stroke="#bfbfbf" points="289,-56.5 289,-75.5 335,-75.5 335,-56.5 289,-56.5"/>
<text text-anchor="middle" x="312" y="-63.5" font-family="Helvetica,sans-Serif" font-size="10.00">cstdint</text>
</g>
<!-- Node4&#45;&gt;Node7 -->
<g id="edge6" class="edge"><title>Node4&#45;&gt;Node7</title>
<path fill="none" stroke="midnightblue" d="M300.312,-112.083C302.167,-104.927 304.835,-94.6353 307.154,-85.6911"/>
<polygon fill="midnightblue" stroke="midnightblue" points="310.609,-86.3094 309.731,-75.7511 303.834,-84.5527 310.609,-86.3094"/>
</g>
<!-- Node8&#45;&gt;Node4 -->
<g id="edge14" class="edge"><title>Node8&#45;&gt;Node4</title>
<path fill="none" stroke="midnightblue" d="M900.994,-174.85C807.708,-166.828 478.787,-138.545 350.133,-127.483"/>
<polygon fill="midnightblue" stroke="midnightblue" points="350.393,-123.992 340.13,-126.623 349.794,-130.967 350.393,-123.992"/>
</g>
<!-- Node9 -->
<g id="node9" class="node"><title>Node9</title>
<polygon fill="white" stroke="#bfbfbf" points="867.5,-56.5 867.5,-75.5 908.5,-75.5 908.5,-56.5 867.5,-56.5"/>
<text text-anchor="middle" x="888" y="-63.5" font-family="Helvetica,sans-Serif" font-size="10.00">string</text>
</g>
<!-- Node8&#45;&gt;Node9 -->
<g id="edge8" class="edge"><title>Node8&#45;&gt;Node9</title>
<path fill="none" stroke="midnightblue" d="M923.018,-168.368C916.858,-150.537 902.611,-109.295 894.312,-85.2717"/>
<polygon fill="midnightblue" stroke="midnightblue" points="897.541,-83.9005 890.968,-75.5914 890.925,-86.1862 897.541,-83.9005"/>
</g>
<!-- Node10 -->
<g id="node10" class="node"><title>Node10</title>
<polygon fill="white" stroke="#bfbfbf" points="608,-56.5 608,-75.5 660,-75.5 660,-56.5 608,-56.5"/>
<text text-anchor="middle" x="634" y="-63.5" font-family="Helvetica,sans-Serif" font-size="10.00">memory</text>
</g>
<!-- Node8&#45;&gt;Node10 -->
<g id="edge9" class="edge"><title>Node8&#45;&gt;Node10</title>
<path fill="none" stroke="midnightblue" d="M903.087,-168.368C851.487,-148.93 726.045,-101.674 666.459,-79.2278"/>
<polygon fill="midnightblue" stroke="midnightblue" points="667.398,-75.8415 656.806,-75.5914 664.93,-82.3921 667.398,-75.8415"/>
</g>
<!-- Node11 -->
<g id="node11" class="node"><title>Node11</title>
<g id="a_node11"><a xlink:href="Color_8h.html" target="_top" xlink:title="Color.h">
<polygon fill="white" stroke="black" points="954,-112.5 954,-131.5 1002,-131.5 1002,-112.5 954,-112.5"/>
<text text-anchor="middle" x="978" y="-119.5" font-family="Helvetica,sans-Serif" font-size="10.00">Color.h</text>
</a>
</g>
</g>
<!-- Node8&#45;&gt;Node11 -->
<g id="edge10" class="edge"><title>Node8&#45;&gt;Node11</title>
<path fill="none" stroke="midnightblue" d="M934.587,-168.083C942.159,-160.22 953.378,-148.569 962.514,-139.081"/>
<polygon fill="midnightblue" stroke="midnightblue" points="965.158,-141.382 969.573,-131.751 960.115,-136.527 965.158,-141.382"/>
</g>
<!-- Node12 -->
<g id="node12" class="node"><title>Node12</title>
<g id="a_node12"><a xlink:href="Rect_8h.html" target="_top" xlink:title="Rect.h">
<polygon fill="white" stroke="black" points="1167,-56.5 1167,-75.5 1213,-75.5 1213,-56.5 1167,-56.5"/>
<text text-anchor="middle" x="1190" y="-63.5" font-family="Helvetica,sans-Serif" font-size="10.00">Rect.h</text>
</a>
</g>
</g>
<!-- Node8&#45;&gt;Node12 -->
<g id="edge11" class="edge"><title>Node8&#45;&gt;Node12</title>
<path fill="none" stroke="midnightblue" d="M951.231,-177.875C994.915,-178.17 1085.82,-173.285 1147,-132 1163.95,-120.562 1175.87,-99.9766 1182.8,-85.0297"/>
<polygon fill="midnightblue" stroke="midnightblue" points="1186.05,-86.333 1186.79,-75.7644 1179.62,-83.5611 1186.05,-86.333"/>
</g>
<!-- Node12&#45;&gt;Node5 -->
<g id="edge12" class="edge"><title>Node12&#45;&gt;Node5</title>
<path fill="none" stroke="midnightblue" d="M1166.7,-59.774C1159.46,-58.3303 1151.43,-56.9116 1144,-56 814.902,-15.628 412.515,-11.3477 294.822,-10.9957"/>
<polygon fill="midnightblue" stroke="midnightblue" points="294.651,-7.49541 284.643,-10.9732 294.635,-14.4954 294.651,-7.49541"/>
</g>
<!-- Node13 -->
<g id="node13" class="node"><title>Node13</title>
<polygon fill="white" stroke="#bfbfbf" points="1168,-0.5 1168,-19.5 1212,-19.5 1212,-0.5 1168,-0.5"/>
<text text-anchor="middle" x="1190" y="-7.5" font-family="Helvetica,sans-Serif" font-size="10.00">cmath</text>
</g>
<!-- Node12&#45;&gt;Node13 -->
<g id="edge13" class="edge"><title>Node12&#45;&gt;Node13</title>
<path fill="none" stroke="midnightblue" d="M1190,-56.083C1190,-49.0059 1190,-38.8611 1190,-29.9865"/>
<polygon fill="midnightblue" stroke="midnightblue" points="1193.5,-29.751 1190,-19.7511 1186.5,-29.7511 1193.5,-29.751"/>
</g>
<!-- Node14&#45;&gt;Node4 -->
<g id="edge18" class="edge"><title>Node14&#45;&gt;Node4</title>
<path fill="none" stroke="midnightblue" d="M735.811,-174.173C663.905,-165.768 450.271,-140.798 350.469,-129.133"/>
<polygon fill="midnightblue" stroke="midnightblue" points="350.651,-125.63 340.312,-127.946 349.838,-132.583 350.651,-125.63"/>
</g>
<!-- Node14&#45;&gt;Node10 -->
<g id="edge17" class="edge"><title>Node14&#45;&gt;Node10</title>
<path fill="none" stroke="midnightblue" d="M750.113,-168.368C728.859,-149.814 678.573,-105.913 651.683,-82.4376"/>
<polygon fill="midnightblue" stroke="midnightblue" points="653.676,-79.5314 643.841,-75.5914 649.072,-84.8046 653.676,-79.5314"/>
</g>
<!-- Node15 -->
<g id="node15" class="node"><title>Node15</title>
<polygon fill="white" stroke="#bfbfbf" points="1239,-56.5 1239,-75.5 1283,-75.5 1283,-56.5 1239,-56.5"/>
<text text-anchor="middle" x="1261" y="-63.5" font-family="Helvetica,sans-Serif" font-size="10.00">vector</text>
</g>
<!-- Node14&#45;&gt;Node15 -->
<g id="edge16" class="edge"><title>Node14&#45;&gt;Node15</title>
<path fill="none" stroke="midnightblue" d="M779.845,-168.478C813.277,-154.476 883.234,-126.694 945,-112 1065.78,-83.2674 1099.82,-97.9839 1222,-76 1224.22,-75.6001 1226.51,-75.1567 1228.81,-74.6872"/>
<polygon fill="midnightblue" stroke="midnightblue" points="1229.77,-78.0592 1238.8,-72.5168 1228.29,-71.2187 1229.77,-78.0592"/>
</g>
<!-- Node16 -->
<g id="node16" class="node"><title>Node16</title>
<g id="a_node16"><a xlink:href="Resources_8h.html" target="_top" xlink:title="Resources.h">
<polygon fill="white" stroke="black" points="598,-112.5 598,-131.5 670,-131.5 670,-112.5 598,-112.5"/>
<text text-anchor="middle" x="634" y="-119.5" font-family="Helvetica,sans-Serif" font-size="10.00">Resources.h</text>
</a>
</g>
</g>
<!-- Node14&#45;&gt;Node16 -->
<g id="edge19" class="edge"><title>Node14&#45;&gt;Node16</title>
<path fill="none" stroke="midnightblue" d="M740.035,-168.444C719.391,-159.596 686.937,-145.687 663.368,-135.586"/>
<polygon fill="midnightblue" stroke="midnightblue" points="664.442,-132.239 653.872,-131.516 661.684,-138.673 664.442,-132.239"/>
</g>
<!-- Node17 -->
<g id="node17" class="node"><title>Node17</title>
<g id="a_node17"><a xlink:href="GameObject_8h.html" target="_top" xlink:title="GameObject.h">
<polygon fill="white" stroke="black" points="1058,-112.5 1058,-131.5 1138,-131.5 1138,-112.5 1058,-112.5"/>
<text text-anchor="middle" x="1098" y="-119.5" font-family="Helvetica,sans-Serif" font-size="10.00">GameObject.h</text>
</a>
</g>
</g>
<!-- Node14&#45;&gt;Node17 -->
<g id="edge23" class="edge"><title>Node14&#45;&gt;Node17</title>
<path fill="none" stroke="midnightblue" d="M784.057,-170.982C788.67,-169.919 793.473,-168.874 798,-168 885.256,-151.153 987.823,-136.965 1047.61,-129.249"/>
<polygon fill="midnightblue" stroke="midnightblue" points="1048.07,-132.719 1057.54,-127.976 1047.18,-125.775 1048.07,-132.719"/>
</g>
<!-- Node16&#45;&gt;Node6 -->
<g id="edge21" class="edge"><title>Node16&#45;&gt;Node6</title>
<path fill="none" stroke="midnightblue" d="M597.961,-112.857C556.619,-103.517 488.661,-88.1618 442.897,-77.8218"/>
<polygon fill="midnightblue" stroke="midnightblue" points="443.441,-74.3566 432.915,-75.5666 441.898,-81.1845 443.441,-74.3566"/>
</g>
<!-- Node16&#45;&gt;Node9 -->
<g id="edge20" class="edge"><title>Node16&#45;&gt;Node9</title>
<path fill="none" stroke="midnightblue" d="M670.122,-113.32C720.291,-102.655 810.193,-83.5417 857.297,-73.5273"/>
<polygon fill="midnightblue" stroke="midnightblue" points="858.161,-76.9219 867.215,-71.4189 856.706,-70.075 858.161,-76.9219"/>
</g>
<!-- Node16&#45;&gt;Node10 -->
<g id="edge22" class="edge"><title>Node16&#45;&gt;Node10</title>
<path fill="none" stroke="midnightblue" d="M634,-112.083C634,-105.006 634,-94.8611 634,-85.9865"/>
<polygon fill="midnightblue" stroke="midnightblue" points="637.5,-85.751 634,-75.7511 630.5,-85.7511 637.5,-85.751"/>
</g>
<!-- Node17&#45;&gt;Node9 -->
<g id="edge25" class="edge"><title>Node17&#45;&gt;Node9</title>
<path fill="none" stroke="midnightblue" d="M1064.72,-112.444C1024.49,-102.097 957.334,-84.8287 918.422,-74.8229"/>
<polygon fill="midnightblue" stroke="midnightblue" points="919.263,-71.4253 908.707,-72.3245 917.52,-78.2048 919.263,-71.4253"/>
</g>
<!-- Node17&#45;&gt;Node10 -->
<g id="edge24" class="edge"><title>Node17&#45;&gt;Node10</title>
<path fill="none" stroke="midnightblue" d="M1057.63,-116.302C968.315,-105.907 755.132,-81.0973 670.008,-71.1905"/>
<polygon fill="midnightblue" stroke="midnightblue" points="670.38,-67.7104 660.043,-70.0308 669.571,-74.6635 670.38,-67.7104"/>
</g>
<!-- Node17&#45;&gt;Node12 -->
<g id="edge29" class="edge"><title>Node17&#45;&gt;Node12</title>
<path fill="none" stroke="midnightblue" d="M1112.78,-112.324C1127.27,-103.822 1149.57,-90.7288 1166.49,-80.7975"/>
<polygon fill="midnightblue" stroke="midnightblue" points="1168.4,-83.735 1175.26,-75.6545 1164.86,-77.6981 1168.4,-83.735"/>
</g>
<!-- Node17&#45;&gt;Node15 -->
<g id="edge26" class="edge"><title>Node17&#45;&gt;Node15</title>
<path fill="none" stroke="midnightblue" d="M1123.83,-112.444C1152.38,-102.985 1198.39,-87.7421 1229.15,-77.551"/>
<polygon fill="midnightblue" stroke="midnightblue" points="1230.56,-80.7715 1238.95,-74.3042 1228.36,-74.1266 1230.56,-80.7715"/>
</g>
<!-- Node18 -->
<g id="node18" class="node"><title>Node18</title>
<g id="a_node18"><a xlink:href="Component_8h.html" target="_top" xlink:title="Component.h">
<polygon fill="white" stroke="black" points="1060.5,-56.5 1060.5,-75.5 1135.5,-75.5 1135.5,-56.5 1060.5,-56.5"/>
<text text-anchor="middle" x="1098" y="-63.5" font-family="Helvetica,sans-Serif" font-size="10.00">Component.h</text>
</a>
</g>
</g>
<!-- Node17&#45;&gt;Node18 -->
<g id="edge27" class="edge"><title>Node17&#45;&gt;Node18</title>
<path fill="none" stroke="midnightblue" d="M1092.83,-112.083C1091.32,-104.927 1090.89,-94.6353 1091.54,-85.6911"/>
<polygon fill="midnightblue" stroke="midnightblue" points="1095.02,-86.1262 1092.87,-75.7511 1088.08,-85.2002 1095.02,-86.1262"/>
</g>
<!-- Node18&#45;&gt;Node17 -->
<g id="edge28" class="edge"><title>Node18&#45;&gt;Node17</title>
<path fill="none" stroke="midnightblue" d="M1103.13,-75.7511C1104.66,-82.8579 1105.1,-93.1357 1104.47,-102.101"/>
<polygon fill="midnightblue" stroke="midnightblue" points="1100.99,-101.713 1103.17,-112.083 1107.93,-102.622 1100.99,-101.713"/>
</g>
<!-- Node19&#45;&gt;Node3 -->
<g id="edge33" class="edge"><title>Node19&#45;&gt;Node3</title>
<path fill="none" stroke="midnightblue" d="M104.752,-224.083C112.47,-216.22 123.905,-204.569 133.217,-195.081"/>
<polygon fill="midnightblue" stroke="midnightblue" points="135.904,-197.34 140.411,-187.751 130.908,-192.436 135.904,-197.34"/>
</g>
<!-- Node19&#45;&gt;Node5 -->
<g id="edge32" class="edge"><title>Node19&#45;&gt;Node5</title>
<path fill="none" stroke="midnightblue" d="M93.6635,-224.149C90.7237,-211.213 86.9652,-186.658 95,-168 123.999,-100.659 197.659,-48.7153 236.371,-25.0401"/>
<polygon fill="midnightblue" stroke="midnightblue" points="238.623,-27.7719 245.412,-19.6379 235.032,-21.763 238.623,-27.7719"/>
</g>
<!-- Node19&#45;&gt;Node17 -->
<g id="edge31" class="edge"><title>Node19&#45;&gt;Node17</title>
<path fill="none" stroke="midnightblue" d="M125.774,-230.536C148.986,-228.647 182.033,-226.029 211,-224 469.527,-205.889 536.228,-223.105 793,-188 805.664,-186.269 965.66,-151.711 1048.7,-133.707"/>
<polygon fill="midnightblue" stroke="midnightblue" points="1049.64,-137.084 1058.67,-131.544 1048.15,-130.243 1049.64,-137.084"/>
</g>
<!-- Node20&#45;&gt;Node4 -->
<g id="edge38" class="edge"><title>Node20&#45;&gt;Node4</title>
<path fill="none" stroke="midnightblue" d="M252.129,-224.34C258.209,-215.496 267.528,-201.223 274,-188 281.436,-172.806 287.945,-154.691 292.301,-141.449"/>
<polygon fill="midnightblue" stroke="midnightblue" points="295.724,-142.233 295.427,-131.643 289.055,-140.107 295.724,-142.233"/>
</g>
<!-- Node20&#45;&gt;Node5 -->
<g id="edge39" class="edge"><title>Node20&#45;&gt;Node5</title>
<path fill="none" stroke="midnightblue" d="M245.692,-224.476C245.06,-204.688 243.92,-154.113 247,-112 249.114,-83.0861 254.253,-49.8321 257.681,-29.6238"/>
<polygon fill="midnightblue" stroke="midnightblue" points="261.158,-30.0584 259.423,-19.6066 254.262,-28.8592 261.158,-30.0584"/>
</g>
<!-- Node20&#45;&gt;Node9 -->
<g id="edge35" class="edge"><title>Node20&#45;&gt;Node9</title>
<path fill="none" stroke="midnightblue" d="M271.771,-229.819C349.368,-220.22 576.442,-191.955 592,-188 658.954,-170.979 673.039,-158.107 737,-132 779.733,-114.558 828.735,-93.2135 859.032,-79.8576"/>
<polygon fill="midnightblue" stroke="midnightblue" points="860.82,-82.894 868.553,-75.6517 857.991,-76.4909 860.82,-82.894"/>
</g>
<!-- Node20&#45;&gt;Node14 -->
<g id="edge37" class="edge"><title>Node20&#45;&gt;Node14</title>
<path fill="none" stroke="midnightblue" d="M271.658,-229.682C285.643,-227.912 303.262,-225.746 319,-224 481.015,-206.026 521.942,-205.586 684,-188 697.654,-186.518 712.672,-184.766 725.727,-183.203"/>
<polygon fill="midnightblue" stroke="midnightblue" points="726.203,-186.671 735.712,-181.999 725.365,-179.721 726.203,-186.671"/>
</g>
<!-- Node21 -->
<g id="node21" class="node"><title>Node21</title>
<polygon fill="white" stroke="#bfbfbf" points="326.5,-168.5 326.5,-187.5 367.5,-187.5 367.5,-168.5 326.5,-168.5"/>
<text text-anchor="middle" x="347" y="-175.5" font-family="Helvetica,sans-Serif" font-size="10.00">stack</text>
</g>
<!-- Node20&#45;&gt;Node21 -->
<g id="edge36" class="edge"><title>Node20&#45;&gt;Node21</title>
<path fill="none" stroke="midnightblue" d="M262.227,-224.324C278.351,-215.703 303.3,-202.364 321.964,-192.386"/>
<polygon fill="midnightblue" stroke="midnightblue" points="323.644,-195.456 330.813,-187.655 320.344,-189.283 323.644,-195.456"/>
</g>
<!-- Node22&#45;&gt;Node3 -->
<g id="edge44" class="edge"><title>Node22&#45;&gt;Node3</title>
<path fill="none" stroke="midnightblue" d="M586.762,-399.579C509.89,-396.083 336.602,-385.123 286,-356 219.789,-317.894 174.477,-233.931 157.012,-197.015"/>
<polygon fill="midnightblue" stroke="midnightblue" points="160.017,-195.172 152.661,-187.547 153.657,-198.095 160.017,-195.172"/>
</g>
<!-- Node22&#45;&gt;Node4 -->
<g id="edge46" class="edge"><title>Node22&#45;&gt;Node4</title>
<path fill="none" stroke="midnightblue" d="M586.827,-401.221C519.089,-400.593 371.777,-394.448 255,-356 158.968,-324.382 107.937,-331.334 57,-244 12.7897,-168.199 162.506,-138.532 245.879,-128.078"/>
<polygon fill="midnightblue" stroke="midnightblue" points="246.435,-131.536 255.946,-126.868 245.6,-124.586 246.435,-131.536"/>
</g>
<!-- Node22&#45;&gt;Node8 -->
<g id="edge55" class="edge"><title>Node22&#45;&gt;Node8</title>
<path fill="none" stroke="midnightblue" d="M648.728,-392.444C691.83,-377.027 782.815,-342.224 853,-300 887.438,-279.282 905.911,-279.889 924,-244 931.225,-229.665 931.041,-211.202 929.45,-197.619"/>
<polygon fill="midnightblue" stroke="midnightblue" points="932.883,-196.911 927.914,-187.554 925.963,-197.968 932.883,-196.911"/>
</g>
<!-- Node22&#45;&gt;Node10 -->
<g id="edge43" class="edge"><title>Node22&#45;&gt;Node10</title>
<path fill="none" stroke="midnightblue" d="M586.674,-396.022C492.714,-381.756 258.123,-334.451 319,-224 333.463,-197.759 352.785,-206.943 376,-188 412.288,-158.389 408.403,-135.356 449,-112 461.866,-104.598 547.758,-85.4286 597.862,-74.6495"/>
<polygon fill="midnightblue" stroke="midnightblue" points="598.627,-78.065 607.672,-72.5477 597.161,-71.2203 598.627,-78.065"/>
</g>
<!-- Node22&#45;&gt;Node14 -->
<g id="edge56" class="edge"><title>Node22&#45;&gt;Node14</title>
<path fill="none" stroke="midnightblue" d="M633.106,-392.202C641.86,-383.479 655.175,-369.503 665,-356 704.253,-302.054 737.889,-229.896 752.384,-196.867"/>
<polygon fill="midnightblue" stroke="midnightblue" points="755.639,-198.158 756.401,-187.591 749.215,-195.377 755.639,-198.158"/>
</g>
<!-- Node22&#45;&gt;Node15 -->
<g id="edge42" class="edge"><title>Node22&#45;&gt;Node15</title>
<path fill="none" stroke="midnightblue" d="M661.036,-401.649C751.779,-402.462 991.962,-399.911 1186,-356 1264.9,-338.146 1356,-371.89 1356,-291 1356,-291 1356,-291 1356,-177 1356,-133.739 1313.39,-99.0862 1285.25,-80.9149"/>
<polygon fill="midnightblue" stroke="midnightblue" points="1287.03,-77.9032 1276.69,-75.6042 1283.34,-83.851 1287.03,-77.9032"/>
</g>
<!-- Node22&#45;&gt;Node17 -->
<g id="edge45" class="edge"><title>Node22&#45;&gt;Node17</title>
<path fill="none" stroke="midnightblue" d="M661.194,-401.108C780.678,-400.467 1147,-390.396 1147,-291 1147,-291 1147,-291 1147,-233 1147,-197.466 1125.4,-160.627 1110.88,-139.88"/>
<polygon fill="midnightblue" stroke="midnightblue" points="1113.53,-137.568 1104.81,-131.542 1107.87,-141.687 1113.53,-137.568"/>
</g>
<!-- Node23 -->
<g id="node23" class="node"><title>Node23</title>
<g id="a_node23"><a xlink:href="Music_8h.html" target="_top" xlink:title="Music.h">
<polygon fill="white" stroke="black" points="532.5,-168.5 532.5,-187.5 583.5,-187.5 583.5,-168.5 532.5,-168.5"/>
<text text-anchor="middle" x="558" y="-175.5" font-family="Helvetica,sans-Serif" font-size="10.00">Music.h</text>
</a>
</g>
</g>
<!-- Node22&#45;&gt;Node23 -->
<g id="edge47" class="edge"><title>Node22&#45;&gt;Node23</title>
<path fill="none" stroke="midnightblue" d="M610.252,-392.417C598.689,-384.44 582.692,-371.478 574,-356 545.225,-304.758 550.411,-231.785 554.952,-197.784"/>
<polygon fill="midnightblue" stroke="midnightblue" points="558.423,-198.238 556.417,-187.834 551.498,-197.218 558.423,-198.238"/>
</g>
<!-- Node27 -->
<g id="node27" class="node"><title>Node27</title>
<g id="a_node27"><a xlink:href="TileMap_8h.html" target="_top" xlink:title="TileMap.h">
<polygon fill="white" stroke="black" points="1184.5,-280.5 1184.5,-299.5 1243.5,-299.5 1243.5,-280.5 1184.5,-280.5"/>
<text text-anchor="middle" x="1214" y="-287.5" font-family="Helvetica,sans-Serif" font-size="10.00">TileMap.h</text>
</a>
</g>
</g>
<!-- Node22&#45;&gt;Node27 -->
<g id="edge57" class="edge"><title>Node22&#45;&gt;Node27</title>
<path fill="none" stroke="midnightblue" d="M661.367,-401.601C768.417,-402.745 1074.1,-401.813 1161,-356 1180.86,-345.528 1196.03,-324.084 1204.95,-308.688"/>
<polygon fill="midnightblue" stroke="midnightblue" points="1208.18,-310.075 1209.89,-299.62 1202.03,-306.723 1208.18,-310.075"/>
</g>
<!-- Node28 -->
<g id="node28" class="node"><title>Node28</title>
<g id="a_node28"><a xlink:href="Tileset_8h.html" target="_top" xlink:title="Tileset.h">
<polygon fill="white" stroke="black" points="1027,-224.5 1027,-243.5 1081,-243.5 1081,-224.5 1027,-224.5"/>
<text text-anchor="middle" x="1054" y="-231.5" font-family="Helvetica,sans-Serif" font-size="10.00">Tileset.h</text>
</a>
</g>
</g>
<!-- Node22&#45;&gt;Node28 -->
<g id="edge65" class="edge"><title>Node22&#45;&gt;Node28</title>
<path fill="none" stroke="midnightblue" d="M661.007,-400.051C740.172,-397.421 922.985,-387.966 975,-356 1014.06,-331.996 1037.61,-280.605 1047.89,-253.158"/>
<polygon fill="midnightblue" stroke="midnightblue" points="1051.23,-254.208 1051.29,-243.613 1044.64,-251.861 1051.23,-254.208"/>
</g>
<!-- Node29 -->
<g id="node29" class="node"><title>Node29</title>
<g id="a_node29"><a xlink:href="Timer_8h.html" target="_top" xlink:title="Timer.h">
<polygon fill="white" stroke="black" points="569,-224.5 569,-243.5 619,-243.5 619,-224.5 569,-224.5"/>
<text text-anchor="middle" x="594" y="-231.5" font-family="Helvetica,sans-Serif" font-size="10.00">Timer.h</text>
</a>
</g>
</g>
<!-- Node22&#45;&gt;Node29 -->
<g id="edge66" class="edge"><title>Node22&#45;&gt;Node29</title>
<path fill="none" stroke="midnightblue" d="M611.786,-392.236C601.646,-384.143 587.957,-371.112 582,-356 568.44,-321.597 579.056,-277.621 587.111,-253.281"/>
<polygon fill="midnightblue" stroke="midnightblue" points="590.506,-254.18 590.536,-243.585 583.905,-251.848 590.506,-254.18"/>
</g>
<!-- Node30 -->
<g id="node30" class="node"><title>Node30</title>
<g id="a_node30"><a xlink:href="EndState_8h.html" target="_top" xlink:title="EndState.h">
<polygon fill="white" stroke="black" points="591.5,-336.5 591.5,-355.5 656.5,-355.5 656.5,-336.5 591.5,-336.5"/>
<text text-anchor="middle" x="624" y="-343.5" font-family="Helvetica,sans-Serif" font-size="10.00">EndState.h</text>
</a>
</g>
</g>
<!-- Node22&#45;&gt;Node30 -->
<g id="edge67" class="edge"><title>Node22&#45;&gt;Node30</title>
<path fill="none" stroke="midnightblue" d="M618.834,-392.083C617.324,-384.927 616.894,-374.635 617.542,-365.691"/>
<polygon fill="midnightblue" stroke="midnightblue" points="621.015,-366.126 618.869,-355.751 614.077,-365.2 621.015,-366.126"/>
</g>
<!-- Node23&#45;&gt;Node4 -->
<g id="edge54" class="edge"><title>Node23&#45;&gt;Node4</title>
<path fill="none" stroke="midnightblue" d="M532.12,-171.625C489.556,-162.785 404.018,-145.019 348.962,-133.585"/>
<polygon fill="midnightblue" stroke="midnightblue" points="349.557,-130.133 339.054,-131.527 348.134,-136.987 349.557,-130.133"/>
</g>
<!-- Node23&#45;&gt;Node9 -->
<g id="edge48" class="edge"><title>Node23&#45;&gt;Node9</title>
<path fill="none" stroke="midnightblue" d="M583.62,-168.46C643.706,-148.431 793.458,-98.5138 857.82,-77.0601"/>
<polygon fill="midnightblue" stroke="midnightblue" points="859.009,-80.353 867.389,-73.8703 856.796,-73.7122 859.009,-80.353"/>
</g>
<!-- Node23&#45;&gt;Node10 -->
<g id="edge49" class="edge"><title>Node23&#45;&gt;Node10</title>
<path fill="none" stroke="midnightblue" d="M555.019,-168.307C551.07,-155.14 545.723,-129.793 556,-112 565.195,-96.0803 582.4,-85.2909 598.317,-78.2777"/>
<polygon fill="midnightblue" stroke="midnightblue" points="600.01,-81.3693 607.978,-74.3869 597.395,-74.8761 600.01,-81.3693"/>
</g>
<!-- Node23&#45;&gt;Node16 -->
<g id="edge50" class="edge"><title>Node23&#45;&gt;Node16</title>
<path fill="none" stroke="midnightblue" d="M570.211,-168.324C581.776,-160.107 599.375,-147.602 613.161,-137.807"/>
<polygon fill="midnightblue" stroke="midnightblue" points="615.443,-140.479 621.567,-131.834 611.388,-134.773 615.443,-140.479"/>
</g>
<!-- Node24 -->
<g id="node24" class="node"><title>Node24</title>
<g id="a_node24"><a xlink:href="Error_8h.html" target="_top" xlink:title="Error.h">
<polygon fill="white" stroke="black" points="458,-112.5 458,-131.5 504,-131.5 504,-112.5 458,-112.5"/>
<text text-anchor="middle" x="481" y="-119.5" font-family="Helvetica,sans-Serif" font-size="10.00">Error.h</text>
</a>
</g>
</g>
<!-- Node23&#45;&gt;Node24 -->
<g id="edge51" class="edge"><title>Node23&#45;&gt;Node24</title>
<path fill="none" stroke="midnightblue" d="M545.629,-168.324C533.842,-160.058 515.868,-147.453 501.864,-137.632"/>
<polygon fill="midnightblue" stroke="midnightblue" points="503.538,-134.531 493.341,-131.655 499.518,-140.262 503.538,-134.531"/>
</g>
<!-- Node25 -->
<g id="node25" class="node"><title>Node25</title>
<polygon fill="white" stroke="#bfbfbf" points="521,-56.5 521,-75.5 575,-75.5 575,-56.5 521,-56.5"/>
<text text-anchor="middle" x="548" y="-63.5" font-family="Helvetica,sans-Serif" font-size="10.00">iostream</text>
</g>
<!-- Node24&#45;&gt;Node25 -->
<g id="edge52" class="edge"><title>Node24&#45;&gt;Node25</title>
<path fill="none" stroke="midnightblue" d="M491.765,-112.324C501.766,-104.263 516.887,-92.0765 528.93,-82.3695"/>
<polygon fill="midnightblue" stroke="midnightblue" points="531.45,-84.8343 537.039,-75.8339 527.057,-79.3841 531.45,-84.8343"/>
</g>
<!-- Node26 -->
<g id="node26" class="node"><title>Node26</title>
<polygon fill="white" stroke="#bfbfbf" points="455,-56.5 455,-75.5 503,-75.5 503,-56.5 455,-56.5"/>
<text text-anchor="middle" x="479" y="-63.5" font-family="Helvetica,sans-Serif" font-size="10.00">stdlib.h</text>
</g>
<!-- Node24&#45;&gt;Node26 -->
<g id="edge53" class="edge"><title>Node24&#45;&gt;Node26</title>
<path fill="none" stroke="midnightblue" d="M480.67,-112.083C480.408,-105.006 480.032,-94.8611 479.703,-85.9865"/>
<polygon fill="midnightblue" stroke="midnightblue" points="483.192,-85.6147 479.324,-75.7511 476.197,-85.8738 483.192,-85.6147"/>
</g>
<!-- Node27&#45;&gt;Node5 -->
<g id="edge64" class="edge"><title>Node27&#45;&gt;Node5</title>
<path fill="none" stroke="midnightblue" d="M1232.12,-280.298C1261.91,-264.572 1318,-228.409 1318,-179 1318,-179 1318,-179 1318,-121 1318,-89.8857 1317.38,-74.0013 1292,-56 1250.45,-26.5246 468.617,-13.9 294.974,-11.4534"/>
<polygon fill="midnightblue" stroke="midnightblue" points="294.927,-7.95251 284.879,-11.3131 294.83,-14.9518 294.927,-7.95251"/>
</g>
<!-- Node27&#45;&gt;Node9 -->
<g id="edge58" class="edge"><title>Node27&#45;&gt;Node9</title>
<path fill="none" stroke="midnightblue" d="M1214.34,-280.417C1214.62,-267.815 1214.3,-243.672 1209,-224 1194.21,-169.061 1194.21,-143.754 1147,-112 1110.03,-87.1299 978.758,-74.0179 918.564,-69.1967"/>
<polygon fill="midnightblue" stroke="midnightblue" points="918.767,-65.702 908.526,-68.4172 918.225,-72.681 918.767,-65.702"/>
</g>
<!-- Node27&#45;&gt;Node15 -->
<g id="edge59" class="edge"><title>Node27&#45;&gt;Node15</title>
<path fill="none" stroke="midnightblue" d="M1219.41,-280.383C1224.7,-271.571 1232.58,-257.324 1237,-244 1255.43,-188.445 1259.73,-118.594 1260.72,-85.7268"/>
<polygon fill="midnightblue" stroke="midnightblue" points="1264.22,-85.8053 1260.95,-75.7277 1257.22,-85.6449 1264.22,-85.8053"/>
</g>
<!-- Node27&#45;&gt;Node17 -->
<g id="edge60" class="edge"><title>Node27&#45;&gt;Node17</title>
<path fill="none" stroke="midnightblue" d="M1211.9,-280.237C1206.47,-259.053 1190.34,-204.151 1161,-168 1150.71,-155.318 1135.99,-144.537 1123.37,-136.71"/>
<polygon fill="midnightblue" stroke="midnightblue" points="1125.04,-133.626 1114.65,-131.547 1121.47,-139.651 1125.04,-133.626"/>
</g>
<!-- Node27&#45;&gt;Node28 -->
<g id="edge61" class="edge"><title>Node27&#45;&gt;Node28</title>
<path fill="none" stroke="midnightblue" d="M1188.65,-280.444C1161.73,-271.359 1119,-256.939 1088.91,-246.783"/>
<polygon fill="midnightblue" stroke="midnightblue" points="1089.83,-243.398 1079.23,-243.516 1087.59,-250.031 1089.83,-243.398"/>
</g>
<!-- Node28&#45;&gt;Node8 -->
<g id="edge63" class="edge"><title>Node28&#45;&gt;Node8</title>
<path fill="none" stroke="midnightblue" d="M1033.72,-224.444C1012.65,-215.557 979.483,-201.563 955.514,-191.451"/>
<polygon fill="midnightblue" stroke="midnightblue" points="956.761,-188.179 946.187,-187.516 954.04,-194.628 956.761,-188.179"/>
</g>
<!-- Node28&#45;&gt;Node9 -->
<g id="edge62" class="edge"><title>Node28&#45;&gt;Node9</title>
<path fill="none" stroke="midnightblue" d="M1053.39,-224.372C1051.39,-202.527 1043.17,-144.466 1011,-112 986.166,-86.9346 946.245,-75.7222 918.652,-70.7782"/>
<polygon fill="midnightblue" stroke="midnightblue" points="919.168,-67.3163 908.738,-69.1745 918.051,-74.2265 919.168,-67.3163"/>
</g>
<!-- Node30&#45;&gt;Node4 -->
<g id="edge82" class="edge"><title>Node30&#45;&gt;Node4</title>
<path fill="none" stroke="midnightblue" d="M591.273,-342.302C501.675,-334.148 256.05,-306.386 211,-244 183.052,-205.297 240.586,-159.527 274.898,-136.983"/>
<polygon fill="midnightblue" stroke="midnightblue" points="276.916,-139.847 283.462,-131.517 273.15,-133.946 276.916,-139.847"/>
</g>
<!-- Node30&#45;&gt;Node8 -->
<g id="edge73" class="edge"><title>Node30&#45;&gt;Node8</title>
<path fill="none" stroke="midnightblue" d="M656.776,-342.119C714.391,-335.334 834.223,-313.276 903,-244 915.245,-231.666 920.998,-212.416 923.685,-198.061"/>
<polygon fill="midnightblue" stroke="midnightblue" points="927.199,-198.237 925.248,-187.823 920.279,-197.181 927.199,-198.237"/>
</g>
<!-- Node30&#45;&gt;Node17 -->
<g id="edge71" class="edge"><title>Node30&#45;&gt;Node17</title>
<path fill="none" stroke="midnightblue" d="M656.785,-342.985C702.455,-339.208 787.038,-328.656 853,-300 949.2,-258.207 1044.54,-173.772 1081.71,-138.762"/>
<polygon fill="midnightblue" stroke="midnightblue" points="1084.29,-141.137 1089.12,-131.707 1079.47,-136.067 1084.29,-141.137"/>
</g>
<!-- Node30&#45;&gt;Node22 -->
<g id="edge83" class="edge"><title>Node30&#45;&gt;Node22</title>
<path fill="none" stroke="midnightblue" d="M629.131,-355.751C630.657,-362.858 631.104,-373.136 630.472,-382.101"/>
<polygon fill="midnightblue" stroke="midnightblue" points="626.993,-381.713 629.166,-392.083 633.934,-382.622 626.993,-381.713"/>
</g>
<!-- Node30&#45;&gt;Node23 -->
<g id="edge72" class="edge"><title>Node30&#45;&gt;Node23</title>
<path fill="none" stroke="midnightblue" d="M616.193,-336.363C601.847,-319.864 571.694,-282.103 560,-244 555.388,-228.974 555.201,-211.068 555.99,-197.857"/>
<polygon fill="midnightblue" stroke="midnightblue" points="559.498,-197.906 556.848,-187.648 552.523,-197.32 559.498,-197.906"/>
</g>
<!-- Node31 -->
<g id="node31" class="node"><title>Node31</title>
<g id="a_node31"><a xlink:href="EndStateData_8h.html" target="_top" xlink:title="EndStateData.h">
<polygon fill="white" stroke="black" points="389,-280.5 389,-299.5 475,-299.5 475,-280.5 389,-280.5"/>
<text text-anchor="middle" x="432" y="-287.5" font-family="Helvetica,sans-Serif" font-size="10.00">EndStateData.h</text>
</a>
</g>
</g>
<!-- Node30&#45;&gt;Node31 -->
<g id="edge68" class="edge"><title>Node30&#45;&gt;Node31</title>
<path fill="none" stroke="midnightblue" d="M593.577,-336.444C560.715,-327.201 508.215,-312.436 472.026,-302.257"/>
<polygon fill="midnightblue" stroke="midnightblue" points="472.855,-298.855 462.281,-299.516 470.96,-305.593 472.855,-298.855"/>
</g>
<!-- Node34 -->
<g id="node34" class="node"><title>Node34</title>
<g id="a_node34"><a xlink:href="Text_8h.html" target="_top" xlink:title="Text.h">
<polygon fill="white" stroke="black" points="644,-280.5 644,-299.5 688,-299.5 688,-280.5 644,-280.5"/>
<text text-anchor="middle" x="666" y="-287.5" font-family="Helvetica,sans-Serif" font-size="10.00">Text.h</text>
</a>
</g>
</g>
<!-- Node30&#45;&gt;Node34 -->
<g id="edge74" class="edge"><title>Node30&#45;&gt;Node34</title>
<path fill="none" stroke="midnightblue" d="M630.935,-336.083C636.929,-328.377 645.752,-317.033 653.048,-307.653"/>
<polygon fill="midnightblue" stroke="midnightblue" points="655.817,-309.793 659.194,-299.751 650.291,-305.496 655.817,-309.793"/>
</g>
<!-- Node32 -->
<g id="node32" class="node"><title>Node32</title>
<g id="a_node32"><a xlink:href="StateData_8h.html" target="_top" xlink:title="StateData.h">
<polygon fill="white" stroke="black" points="328.5,-224.5 328.5,-243.5 397.5,-243.5 397.5,-224.5 328.5,-224.5"/>
<text text-anchor="middle" x="363" y="-231.5" font-family="Helvetica,sans-Serif" font-size="10.00">StateData.h</text>
</a>
</g>
</g>
<!-- Node31&#45;&gt;Node32 -->
<g id="edge69" class="edge"><title>Node31&#45;&gt;Node32</title>
<path fill="none" stroke="midnightblue" d="M420.914,-280.324C410.514,-272.185 394.739,-259.839 382.278,-250.087"/>
<polygon fill="midnightblue" stroke="midnightblue" points="384.32,-247.241 374.288,-243.834 380.006,-252.753 384.32,-247.241"/>
</g>
<!-- Node33 -->
<g id="node33" class="node"><title>Node33</title>
<g id="a_node33"><a xlink:href="Defines_8h.html" target="_top" xlink:title="Defines.h">
<polygon fill="white" stroke="black" points="415.5,-224.5 415.5,-243.5 474.5,-243.5 474.5,-224.5 415.5,-224.5"/>
<text text-anchor="middle" x="445" y="-231.5" font-family="Helvetica,sans-Serif" font-size="10.00">Defines.h</text>
</a>
</g>
</g>
<!-- Node31&#45;&gt;Node33 -->
<g id="edge70" class="edge"><title>Node31&#45;&gt;Node33</title>
<path fill="none" stroke="midnightblue" d="M434.147,-280.083C435.869,-272.927 438.347,-262.635 440.5,-253.691"/>
<polygon fill="midnightblue" stroke="midnightblue" points="443.955,-254.293 442.893,-243.751 437.15,-252.654 443.955,-254.293"/>
</g>
<!-- Node34&#45;&gt;Node9 -->
<g id="edge78" class="edge"><title>Node34&#45;&gt;Node9</title>
<path fill="none" stroke="midnightblue" d="M678.695,-280.412C702.499,-263.995 754.873,-226.366 793,-188 826.572,-154.217 859.47,-108.786 876.343,-84.3272"/>
<polygon fill="midnightblue" stroke="midnightblue" points="879.435,-86.0055 882.179,-75.7722 873.652,-82.0607 879.435,-86.0055"/>
</g>
<!-- Node34&#45;&gt;Node10 -->
<g id="edge77" class="edge"><title>Node34&#45;&gt;Node10</title>
<path fill="none" stroke="midnightblue" d="M665.015,-280.27C663.348,-267.487 659.308,-243.119 651,-224 631.35,-178.777 603.406,-179.156 589,-132 586.403,-123.499 585.598,-120.212 589,-112 593.92,-100.121 603.667,-89.7428 612.834,-81.9557"/>
<polygon fill="midnightblue" stroke="midnightblue" points="615.253,-84.5058 620.936,-75.5641 610.917,-79.0101 615.253,-84.5058"/>
</g>
<!-- Node34&#45;&gt;Node12 -->
<g id="edge75" class="edge"><title>Node34&#45;&gt;Node12</title>
<path fill="none" stroke="midnightblue" d="M688.216,-288.986C765.354,-288.583 1020.67,-284.177 1090,-244 1149.78,-209.36 1176.61,-124.205 1185.92,-86.0413"/>
<polygon fill="midnightblue" stroke="midnightblue" points="1189.44,-86.3434 1188.27,-75.8139 1182.62,-84.778 1189.44,-86.3434"/>
</g>
<!-- Node34&#45;&gt;Node16 -->
<g id="edge79" class="edge"><title>Node34&#45;&gt;Node16</title>
<path fill="none" stroke="midnightblue" d="M675.02,-280.34C683.072,-271.932 694.298,-258.363 699,-244 701.766,-235.552 701.507,-232.528 699,-224 689.208,-190.691 664.658,-157.986 648.689,-139.189"/>
<polygon fill="midnightblue" stroke="midnightblue" points="651.255,-136.806 642.039,-131.579 645.983,-141.412 651.255,-136.806"/>
</g>
<!-- Node34&#45;&gt;Node20 -->
<g id="edge80" class="edge"><title>Node34&#45;&gt;Node20</title>
<path fill="none" stroke="midnightblue" d="M643.716,-286.135C575.003,-277.3 365.979,-250.426 281.744,-239.596"/>
<polygon fill="midnightblue" stroke="midnightblue" points="282.006,-236.101 271.642,-238.297 281.114,-243.044 282.006,-236.101"/>
</g>
<!-- Node34&#45;&gt;Node24 -->
<g id="edge81" class="edge"><title>Node34&#45;&gt;Node24</title>
<path fill="none" stroke="midnightblue" d="M663.09,-280.083C658.099,-266.149 646.611,-239.236 628,-224 589.828,-192.749 561.86,-218.392 523,-188 507.33,-175.745 495.737,-155.923 488.746,-141.386"/>
<polygon fill="midnightblue" stroke="midnightblue" points="491.778,-139.596 484.477,-131.919 485.397,-142.473 491.778,-139.596"/>
</g>
<!-- Node34&#45;&gt;Node29 -->
<g id="edge76" class="edge"><title>Node34&#45;&gt;Node29</title>
<path fill="none" stroke="midnightblue" d="M654.432,-280.324C643.58,-272.185 627.119,-259.839 614.117,-250.087"/>
<polygon fill="midnightblue" stroke="midnightblue" points="615.879,-247.034 605.779,-243.834 611.679,-252.634 615.879,-247.034"/>
</g>
</g>
</svg>
