<?xml version="1.0" encoding="UTF-8" standalone="no"?>
<!DOCTYPE svg PUBLIC "-//W3C//DTD SVG 1.1//EN"
 "http://www.w3.org/Graphics/SVG/1.1/DTD/svg11.dtd">
<!-- Generated by graphviz version 2.38.0 (20140413.2041)
 -->
<!-- Title: Game/include/Tower.h Pages: 1 -->
<svg width="1745pt" height="420pt"
 viewBox="0.00 0.00 1745.00 420.00" xmlns="http://www.w3.org/2000/svg" xmlns:xlink="http://www.w3.org/1999/xlink">
<g id="graph0" class="graph" transform="scale(1 1) rotate(0) translate(4 416)">
<title>Game/include/Tower.h</title>
<polygon fill="white" stroke="none" points="-4,4 -4,-416 1741,-416 1741,4 -4,4"/>
<!-- Node1 -->
<g id="node1" class="node"><title>Node1</title>
<polygon fill="#bfbfbf" stroke="black" points="282.5,-392.5 282.5,-411.5 397.5,-411.5 397.5,-392.5 282.5,-392.5"/>
<text text-anchor="middle" x="340" y="-399.5" font-family="Helvetica,sans-Serif" font-size="10.00">Game/include/Tower.h</text>
</g>
<!-- Node2 -->
<g id="node2" class="node"><title>Node2</title>
<g id="a_node2"><a xlink:href="GameObject_8h.html" target="_top" xlink:title="GameObject.h">
<polygon fill="white" stroke="black" points="415,-168.5 415,-187.5 495,-187.5 495,-168.5 415,-168.5"/>
<text text-anchor="middle" x="455" y="-175.5" font-family="Helvetica,sans-Serif" font-size="10.00">GameObject.h</text>
</a>
</g>
</g>
<!-- Node1&#45;&gt;Node2 -->
<g id="edge1" class="edge"><title>Node1&#45;&gt;Node2</title>
<path fill="none" stroke="midnightblue" d="M344.508,-392.297C361.573,-359.356 422.418,-241.898 445.777,-196.805"/>
<polygon fill="midnightblue" stroke="midnightblue" points="448.906,-198.373 450.398,-187.884 442.691,-195.153 448.906,-198.373"/>
</g>
<!-- Node9 -->
<g id="node9" class="node"><title>Node9</title>
<g id="a_node9"><a xlink:href="Rect_8h.html" target="_top" xlink:title="Rect.h">
<polygon fill="white" stroke="black" points="213,-112.5 213,-131.5 259,-131.5 259,-112.5 213,-112.5"/>
<text text-anchor="middle" x="236" y="-119.5" font-family="Helvetica,sans-Serif" font-size="10.00">Rect.h</text>
</a>
</g>
</g>
<!-- Node1&#45;&gt;Node9 -->
<g id="edge26" class="edge"><title>Node1&#45;&gt;Node9</title>
<path fill="none" stroke="midnightblue" d="M282.337,-395.139C220.78,-385.322 132,-359.321 132,-291 132,-291 132,-291 132,-233 132,-188.223 178.064,-154.325 208.879,-136.658"/>
<polygon fill="midnightblue" stroke="midnightblue" points="210.811,-139.59 217.885,-131.702 207.436,-133.457 210.811,-139.59"/>
</g>
<!-- Node10 -->
<g id="node10" class="node"><title>Node10</title>
<g id="a_node10"><a xlink:href="Vec2_8h.html" target="_top" xlink:title="Vec2.h">
<polygon fill="white" stroke="black" points="1011.5,-56.5 1011.5,-75.5 1058.5,-75.5 1058.5,-56.5 1011.5,-56.5"/>
<text text-anchor="middle" x="1035" y="-63.5" font-family="Helvetica,sans-Serif" font-size="10.00">Vec2.h</text>
</a>
</g>
</g>
<!-- Node1&#45;&gt;Node10 -->
<g id="edge53" class="edge"><title>Node1&#45;&gt;Node10</title>
<path fill="none" stroke="midnightblue" d="M397.808,-399.526C661.445,-392.433 1737,-359.31 1737,-291 1737,-291 1737,-291 1737,-177 1737,-108.544 1209.24,-76.1017 1068.92,-68.6858"/>
<polygon fill="midnightblue" stroke="midnightblue" points="1068.93,-65.1815 1058.76,-68.1569 1068.56,-72.172 1068.93,-65.1815"/>
</g>
<!-- Node12 -->
<g id="node12" class="node"><title>Node12</title>
<g id="a_node12"><a xlink:href="Sprite_8h.html" target="_top" xlink:title="Sprite.h">
<polygon fill="white" stroke="black" points="264,-168.5 264,-187.5 314,-187.5 314,-168.5 264,-168.5"/>
<text text-anchor="middle" x="289" y="-175.5" font-family="Helvetica,sans-Serif" font-size="10.00">Sprite.h</text>
</a>
</g>
</g>
<!-- Node1&#45;&gt;Node12 -->
<g id="edge15" class="edge"><title>Node1&#45;&gt;Node12</title>
<path fill="none" stroke="midnightblue" d="M337.192,-392.41C334.273,-383.382 329.631,-368.748 326,-356 311.914,-306.548 306.606,-294.514 297,-244 294.076,-228.622 291.983,-210.986 290.673,-197.967"/>
<polygon fill="midnightblue" stroke="midnightblue" points="294.146,-197.515 289.723,-187.888 287.177,-198.173 294.146,-197.515"/>
</g>
<!-- Node17 -->
<g id="node17" class="node"><title>Node17</title>
<g id="a_node17"><a xlink:href="TileMap_8h.html" target="_top" xlink:title="TileMap.h">
<polygon fill="white" stroke="black" points="1120.5,-280.5 1120.5,-299.5 1179.5,-299.5 1179.5,-280.5 1120.5,-280.5"/>
<text text-anchor="middle" x="1150" y="-287.5" font-family="Helvetica,sans-Serif" font-size="10.00">TileMap.h</text>
</a>
</g>
</g>
<!-- Node1&#45;&gt;Node17 -->
<g id="edge27" class="edge"><title>Node1&#45;&gt;Node17</title>
<path fill="none" stroke="midnightblue" d="M397.604,-393.177C552.967,-372.078 977.799,-314.385 1110.11,-296.417"/>
<polygon fill="midnightblue" stroke="midnightblue" points="1110.77,-299.86 1120.21,-295.046 1109.83,-292.923 1110.77,-299.86"/>
</g>
<!-- Node29 -->
<g id="node29" class="node"><title>Node29</title>
<g id="a_node29"><a xlink:href="HitPoints_8h.html" target="_top" xlink:title="HitPoints.h">
<polygon fill="white" stroke="black" points="160.5,-224.5 160.5,-243.5 225.5,-243.5 225.5,-224.5 160.5,-224.5"/>
<text text-anchor="middle" x="193" y="-231.5" font-family="Helvetica,sans-Serif" font-size="10.00">HitPoints.h</text>
</a>
</g>
</g>
<!-- Node1&#45;&gt;Node29 -->
<g id="edge54" class="edge"><title>Node1&#45;&gt;Node29</title>
<path fill="none" stroke="midnightblue" d="M304.519,-392.385C283.345,-385.623 257.298,-374.229 240,-356 212.298,-326.808 200.374,-279.466 195.695,-253.499"/>
<polygon fill="midnightblue" stroke="midnightblue" points="199.129,-252.81 194.066,-243.503 192.22,-253.936 199.129,-252.81"/>
</g>
<!-- Node33 -->
<g id="node33" class="node"><title>Node33</title>
<g id="a_node33"><a xlink:href="Bullet_8h.html" target="_top" xlink:title="Bullet.h">
<polygon fill="white" stroke="black" points="429,-336.5 429,-355.5 479,-355.5 479,-336.5 429,-336.5"/>
<text text-anchor="middle" x="454" y="-343.5" font-family="Helvetica,sans-Serif" font-size="10.00">Bullet.h</text>
</a>
</g>
</g>
<!-- Node1&#45;&gt;Node33 -->
<g id="edge60" class="edge"><title>Node1&#45;&gt;Node33</title>
<path fill="none" stroke="midnightblue" d="M358.064,-392.444C376.575,-383.675 405.581,-369.935 426.855,-359.858"/>
<polygon fill="midnightblue" stroke="midnightblue" points="428.482,-362.96 436.021,-355.516 425.485,-356.634 428.482,-362.96"/>
</g>
<!-- Node3 -->
<g id="node3" class="node"><title>Node3</title>
<g id="a_node3"><a xlink:href="SDL__include_8h.html" target="_top" xlink:title="SDL_include.h">
<polygon fill="white" stroke="black" points="525,-0.5 525,-19.5 605,-19.5 605,-0.5 525,-0.5"/>
<text text-anchor="middle" x="565" y="-7.5" font-family="Helvetica,sans-Serif" font-size="10.00">SDL_include.h</text>
</a>
</g>
</g>
<!-- Node2&#45;&gt;Node3 -->
<g id="edge2" class="edge"><title>Node2&#45;&gt;Node3</title>
<path fill="none" stroke="midnightblue" d="M456.662,-168.12C459.349,-155.15 465.442,-130.552 476,-112 495.406,-77.902 527.631,-45.093 547.519,-26.5447"/>
<polygon fill="midnightblue" stroke="midnightblue" points="549.957,-29.0577 554.971,-19.7241 545.231,-23.894 549.957,-29.0577"/>
</g>
<!-- Node4 -->
<g id="node4" class="node"><title>Node4</title>
<polygon fill="white" stroke="#bfbfbf" points="695,-112.5 695,-131.5 739,-131.5 739,-112.5 695,-112.5"/>
<text text-anchor="middle" x="717" y="-119.5" font-family="Helvetica,sans-Serif" font-size="10.00">vector</text>
</g>
<!-- Node2&#45;&gt;Node4 -->
<g id="edge3" class="edge"><title>Node2&#45;&gt;Node4</title>
<path fill="none" stroke="midnightblue" d="M495.3,-170.285C539.506,-162.669 612.73,-149.32 684.586,-132.175"/>
<polygon fill="midnightblue" stroke="midnightblue" points="685.814,-135.479 694.713,-129.731 684.171,-128.675 685.814,-135.479"/>
</g>
<!-- Node5 -->
<g id="node5" class="node"><title>Node5</title>
<polygon fill="white" stroke="#bfbfbf" points="485,-112.5 485,-131.5 537,-131.5 537,-112.5 485,-112.5"/>
<text text-anchor="middle" x="511" y="-119.5" font-family="Helvetica,sans-Serif" font-size="10.00">memory</text>
</g>
<!-- Node2&#45;&gt;Node5 -->
<g id="edge4" class="edge"><title>Node2&#45;&gt;Node5</title>
<path fill="none" stroke="midnightblue" d="M463.997,-168.324C472.194,-160.42 484.506,-148.548 494.472,-138.938"/>
<polygon fill="midnightblue" stroke="midnightblue" points="497.07,-141.295 501.839,-131.834 492.211,-136.256 497.07,-141.295"/>
</g>
<!-- Node6 -->
<g id="node6" class="node"><title>Node6</title>
<polygon fill="white" stroke="#bfbfbf" points="873.5,-112.5 873.5,-131.5 914.5,-131.5 914.5,-112.5 873.5,-112.5"/>
<text text-anchor="middle" x="894" y="-119.5" font-family="Helvetica,sans-Serif" font-size="10.00">string</text>
</g>
<!-- Node2&#45;&gt;Node6 -->
<g id="edge5" class="edge"><title>Node2&#45;&gt;Node6</title>
<path fill="none" stroke="midnightblue" d="M495.122,-172.065C581.847,-161.397 785.211,-136.382 862.994,-126.814"/>
<polygon fill="midnightblue" stroke="midnightblue" points="863.613,-130.264 873.111,-125.57 862.758,-123.317 863.613,-130.264"/>
</g>
<!-- Node7 -->
<g id="node7" class="node"><title>Node7</title>
<g id="a_node7"><a xlink:href="Component_8h.html" target="_top" xlink:title="Component.h">
<polygon fill="white" stroke="black" points="315.5,-112.5 315.5,-131.5 390.5,-131.5 390.5,-112.5 315.5,-112.5"/>
<text text-anchor="middle" x="353" y="-119.5" font-family="Helvetica,sans-Serif" font-size="10.00">Component.h</text>
</a>
</g>
</g>
<!-- Node2&#45;&gt;Node7 -->
<g id="edge6" class="edge"><title>Node2&#45;&gt;Node7</title>
<path fill="none" stroke="midnightblue" d="M433.749,-168.444C415.763,-159.912 390.468,-146.675 372.886,-136.683"/>
<polygon fill="midnightblue" stroke="midnightblue" points="374.41,-133.521 364.007,-131.516 370.89,-139.571 374.41,-133.521"/>
</g>
<!-- Node8 -->
<g id="node8" class="node"><title>Node8</title>
<g id="a_node8"><a xlink:href="ComponentType_8h.html" target="_top" xlink:title="ComponentType.h">
<polygon fill="white" stroke="black" points="323.5,-56.5 323.5,-75.5 420.5,-75.5 420.5,-56.5 323.5,-56.5"/>
<text text-anchor="middle" x="372" y="-63.5" font-family="Helvetica,sans-Serif" font-size="10.00">ComponentType.h</text>
</a>
</g>
</g>
<!-- Node2&#45;&gt;Node8 -->
<g id="edge9" class="edge"><title>Node2&#45;&gt;Node8</title>
<path fill="none" stroke="midnightblue" d="M448.487,-168.368C434.729,-150.135 402.503,-107.426 384.582,-83.6752"/>
<polygon fill="midnightblue" stroke="midnightblue" points="387.3,-81.4659 378.483,-75.5914 381.712,-85.6821 387.3,-81.4659"/>
</g>
<!-- Node2&#45;&gt;Node9 -->
<g id="edge10" class="edge"><title>Node2&#45;&gt;Node9</title>
<path fill="none" stroke="midnightblue" d="M420.299,-168.444C378.715,-158.19 309.563,-141.139 268.828,-131.095"/>
<polygon fill="midnightblue" stroke="midnightblue" points="269.665,-127.696 259.118,-128.7 267.989,-134.493 269.665,-127.696"/>
</g>
<!-- Node7&#45;&gt;Node2 -->
<g id="edge8" class="edge"><title>Node7&#45;&gt;Node2</title>
<path fill="none" stroke="midnightblue" d="M374.458,-131.655C392.347,-140.149 417.364,-153.241 434.868,-163.177"/>
<polygon fill="midnightblue" stroke="midnightblue" points="433.322,-166.327 443.727,-168.324 436.838,-160.274 433.322,-166.327"/>
</g>
<!-- Node7&#45;&gt;Node8 -->
<g id="edge7" class="edge"><title>Node7&#45;&gt;Node8</title>
<path fill="none" stroke="midnightblue" d="M356.137,-112.083C358.683,-104.849 362.356,-94.4087 365.527,-85.3968"/>
<polygon fill="midnightblue" stroke="midnightblue" points="368.903,-86.3459 368.921,-75.7511 362.3,-84.0225 368.903,-86.3459"/>
</g>
<!-- Node9&#45;&gt;Node3 -->
<g id="edge11" class="edge"><title>Node9&#45;&gt;Node3</title>
<path fill="none" stroke="midnightblue" d="M238.325,-112.151C242.59,-97.8047 253.109,-69.6991 273,-56 311.25,-29.6567 441.504,-18.0653 514.455,-13.5373"/>
<polygon fill="midnightblue" stroke="midnightblue" points="515.011,-17.0104 524.784,-12.9196 514.593,-10.0229 515.011,-17.0104"/>
</g>
<!-- Node9&#45;&gt;Node10 -->
<g id="edge12" class="edge"><title>Node9&#45;&gt;Node10</title>
<path fill="none" stroke="midnightblue" d="M259.29,-117.613C272.887,-115.734 290.387,-113.484 306,-112 573.309,-86.5937 897.189,-72.4285 1001.16,-68.2912"/>
<polygon fill="midnightblue" stroke="midnightblue" points="1001.5,-71.7804 1011.35,-67.8895 1001.22,-64.7858 1001.5,-71.7804"/>
</g>
<!-- Node11 -->
<g id="node11" class="node"><title>Node11</title>
<polygon fill="white" stroke="#bfbfbf" points="177,-56.5 177,-75.5 221,-75.5 221,-56.5 177,-56.5"/>
<text text-anchor="middle" x="199" y="-63.5" font-family="Helvetica,sans-Serif" font-size="10.00">cmath</text>
</g>
<!-- Node9&#45;&gt;Node11 -->
<g id="edge14" class="edge"><title>Node9&#45;&gt;Node11</title>
<path fill="none" stroke="midnightblue" d="M229.89,-112.083C224.718,-104.534 217.154,-93.4948 210.806,-84.2298"/>
<polygon fill="midnightblue" stroke="midnightblue" points="213.536,-82.0221 204.996,-75.7511 207.761,-85.9787 213.536,-82.0221"/>
</g>
<!-- Node10&#45;&gt;Node3 -->
<g id="edge13" class="edge"><title>Node10&#45;&gt;Node3</title>
<path fill="none" stroke="midnightblue" d="M1011.37,-62.2851C938.467,-53.909 715.921,-28.3398 615.318,-16.7812"/>
<polygon fill="midnightblue" stroke="midnightblue" points="615.441,-13.2725 605.107,-15.6081 614.642,-20.2267 615.441,-13.2725"/>
</g>
<!-- Node12&#45;&gt;Node3 -->
<g id="edge16" class="edge"><title>Node12&#45;&gt;Node3</title>
<path fill="none" stroke="midnightblue" d="M287.866,-168.484C285.447,-146.394 282.345,-86.8315 314,-56 341.883,-28.8416 449.886,-17.7611 514.787,-13.4848"/>
<polygon fill="midnightblue" stroke="midnightblue" points="515.053,-16.9751 524.814,-12.8555 514.615,-9.98883 515.053,-16.9751"/>
</g>
<!-- Node12&#45;&gt;Node5 -->
<g id="edge18" class="edge"><title>Node12&#45;&gt;Node5</title>
<path fill="none" stroke="midnightblue" d="M314.234,-170.249C317.186,-169.48 320.158,-168.716 323,-168 375.652,-154.732 436.842,-140.261 474.748,-131.407"/>
<polygon fill="midnightblue" stroke="midnightblue" points="475.852,-134.744 484.796,-129.064 474.263,-127.926 475.852,-134.744"/>
</g>
<!-- Node12&#45;&gt;Node6 -->
<g id="edge17" class="edge"><title>Node12&#45;&gt;Node6</title>
<path fill="none" stroke="midnightblue" d="M314.14,-169.805C317.11,-169.116 320.111,-168.492 323,-168 376.363,-158.911 752.06,-132.727 863.14,-125.105"/>
<polygon fill="midnightblue" stroke="midnightblue" points="863.597,-128.582 873.335,-124.407 863.119,-121.598 863.597,-128.582"/>
</g>
<!-- Node12&#45;&gt;Node9 -->
<g id="edge20" class="edge"><title>Node12&#45;&gt;Node9</title>
<path fill="none" stroke="midnightblue" d="M280.248,-168.083C272.53,-160.22 261.095,-148.569 251.783,-139.081"/>
<polygon fill="midnightblue" stroke="midnightblue" points="254.092,-136.436 244.589,-131.751 249.096,-141.34 254.092,-136.436"/>
</g>
<!-- Node13 -->
<g id="node13" class="node"><title>Node13</title>
<g id="a_node13"><a xlink:href="Color_8h.html" target="_top" xlink:title="Color.h">
<polygon fill="white" stroke="black" points="147,-112.5 147,-131.5 195,-131.5 195,-112.5 147,-112.5"/>
<text text-anchor="middle" x="171" y="-119.5" font-family="Helvetica,sans-Serif" font-size="10.00">Color.h</text>
</a>
</g>
</g>
<!-- Node12&#45;&gt;Node13 -->
<g id="edge19" class="edge"><title>Node12&#45;&gt;Node13</title>
<path fill="none" stroke="midnightblue" d="M270.303,-168.444C251.056,-159.636 220.848,-145.812 198.8,-135.722"/>
<polygon fill="midnightblue" stroke="midnightblue" points="200.16,-132.495 189.61,-131.516 197.247,-138.86 200.16,-132.495"/>
</g>
<!-- Node14 -->
<g id="node14" class="node"><title>Node14</title>
<g id="a_node14"><a xlink:href="InputManager_8h.html" target="_top" xlink:title="InputManager.h">
<polygon fill="white" stroke="black" points="593,-112.5 593,-131.5 677,-131.5 677,-112.5 593,-112.5"/>
<text text-anchor="middle" x="635" y="-119.5" font-family="Helvetica,sans-Serif" font-size="10.00">InputManager.h</text>
</a>
</g>
</g>
<!-- Node12&#45;&gt;Node14 -->
<g id="edge21" class="edge"><title>Node12&#45;&gt;Node14</title>
<path fill="none" stroke="midnightblue" d="M314.175,-169.989C317.138,-169.267 320.128,-168.585 323,-168 413.673,-149.525 520.679,-135.824 582.886,-128.65"/>
<polygon fill="midnightblue" stroke="midnightblue" points="583.31,-132.124 592.848,-127.513 582.516,-125.17 583.31,-132.124"/>
</g>
<!-- Node14&#45;&gt;Node3 -->
<g id="edge22" class="edge"><title>Node14&#45;&gt;Node3</title>
<path fill="none" stroke="midnightblue" d="M640.317,-112.358C647.624,-99.2576 658.714,-73.997 648,-56 638.904,-40.7208 622.612,-30.3102 606.856,-23.3857"/>
<polygon fill="midnightblue" stroke="midnightblue" points="607.769,-19.9811 597.185,-19.5124 605.167,-26.4794 607.769,-19.9811"/>
</g>
<!-- Node14&#45;&gt;Node10 -->
<g id="edge23" class="edge"><title>Node14&#45;&gt;Node10</title>
<path fill="none" stroke="midnightblue" d="M677.276,-113.384C680.226,-112.9 683.156,-112.434 686,-112 801.321,-94.3995 938.781,-78.0186 1001.19,-70.8305"/>
<polygon fill="midnightblue" stroke="midnightblue" points="1001.71,-74.2935 1011.25,-69.6768 1000.92,-67.3391 1001.71,-74.2935"/>
</g>
<!-- Node15 -->
<g id="node15" class="node"><title>Node15</title>
<polygon fill="white" stroke="#bfbfbf" points="695.5,-56.5 695.5,-75.5 778.5,-75.5 778.5,-56.5 695.5,-56.5"/>
<text text-anchor="middle" x="737" y="-63.5" font-family="Helvetica,sans-Serif" font-size="10.00">unordered_map</text>
</g>
<!-- Node14&#45;&gt;Node15 -->
<g id="edge24" class="edge"><title>Node14&#45;&gt;Node15</title>
<path fill="none" stroke="midnightblue" d="M651.388,-112.324C667.671,-103.703 692.867,-90.3643 711.716,-80.3855"/>
<polygon fill="midnightblue" stroke="midnightblue" points="713.452,-83.4267 720.653,-75.6545 710.177,-77.2402 713.452,-83.4267"/>
</g>
<!-- Node16 -->
<g id="node16" class="node"><title>Node16</title>
<polygon fill="white" stroke="#bfbfbf" points="593,-56.5 593,-75.5 639,-75.5 639,-56.5 593,-56.5"/>
<text text-anchor="middle" x="616" y="-63.5" font-family="Helvetica,sans-Serif" font-size="10.00">cstdint</text>
</g>
<!-- Node14&#45;&gt;Node16 -->
<g id="edge25" class="edge"><title>Node14&#45;&gt;Node16</title>
<path fill="none" stroke="midnightblue" d="M631.863,-112.083C629.317,-104.849 625.644,-94.4087 622.473,-85.3968"/>
<polygon fill="midnightblue" stroke="midnightblue" points="625.7,-84.0225 619.079,-75.7511 619.097,-86.3459 625.7,-84.0225"/>
</g>
<!-- Node17&#45;&gt;Node2 -->
<g id="edge40" class="edge"><title>Node17&#45;&gt;Node2</title>
<path fill="none" stroke="midnightblue" d="M1120.39,-287.769C1022.1,-283.492 707.384,-268.2 609,-244 561.402,-232.292 509.574,-207.738 479.818,-192.385"/>
<polygon fill="midnightblue" stroke="midnightblue" points="481.093,-189.103 470.611,-187.564 477.846,-195.304 481.093,-189.103"/>
</g>
<!-- Node17&#45;&gt;Node4 -->
<g id="edge29" class="edge"><title>Node17&#45;&gt;Node4</title>
<path fill="none" stroke="midnightblue" d="M1120.26,-286.646C1068.26,-282.005 957.821,-269.803 868,-244 806.749,-226.405 778.354,-235.617 736,-188 724.655,-175.246 720.067,-156.051 718.221,-141.824"/>
<polygon fill="midnightblue" stroke="midnightblue" points="721.689,-141.318 717.252,-131.697 714.721,-141.985 721.689,-141.318"/>
</g>
<!-- Node17&#45;&gt;Node6 -->
<g id="edge28" class="edge"><title>Node17&#45;&gt;Node6</title>
<path fill="none" stroke="midnightblue" d="M1130.31,-280.462C1111.52,-272.038 1082.65,-258.369 1059,-244 1002.91,-209.919 941.836,-162.005 912.19,-137.977"/>
<polygon fill="midnightblue" stroke="midnightblue" points="914.326,-135.203 904.364,-131.597 909.902,-140.628 914.326,-135.203"/>
</g>
<!-- Node17&#45;&gt;Node10 -->
<g id="edge39" class="edge"><title>Node17&#45;&gt;Node10</title>
<path fill="none" stroke="midnightblue" d="M1144.8,-280.484C1134.34,-263.262 1110.23,-222.96 1092,-188 1073.2,-151.951 1053.45,-108.612 1042.85,-84.8173"/>
<polygon fill="midnightblue" stroke="midnightblue" points="1046.03,-83.349 1038.77,-75.6249 1039.63,-86.1854 1046.03,-83.349"/>
</g>
<!-- Node18 -->
<g id="node18" class="node"><title>Node18</title>
<polygon fill="white" stroke="#bfbfbf" points="1258.5,-224.5 1258.5,-243.5 1287.5,-243.5 1287.5,-224.5 1258.5,-224.5"/>
<text text-anchor="middle" x="1273" y="-231.5" font-family="Helvetica,sans-Serif" font-size="10.00">list</text>
</g>
<!-- Node17&#45;&gt;Node18 -->
<g id="edge30" class="edge"><title>Node17&#45;&gt;Node18</title>
<path fill="none" stroke="midnightblue" d="M1169.49,-280.444C1191.06,-270.972 1225.85,-255.699 1249.07,-245.507"/>
<polygon fill="midnightblue" stroke="midnightblue" points="1250.48,-248.707 1258.23,-241.483 1247.67,-242.298 1250.48,-248.707"/>
</g>
<!-- Node19 -->
<g id="node19" class="node"><title>Node19</title>
<polygon fill="white" stroke="#bfbfbf" points="1305.5,-224.5 1305.5,-243.5 1348.5,-243.5 1348.5,-224.5 1305.5,-224.5"/>
<text text-anchor="middle" x="1327" y="-231.5" font-family="Helvetica,sans-Serif" font-size="10.00">queue</text>
</g>
<!-- Node17&#45;&gt;Node19 -->
<g id="edge31" class="edge"><title>Node17&#45;&gt;Node19</title>
<path fill="none" stroke="midnightblue" d="M1178.05,-280.444C1210.11,-270.66 1262.47,-254.688 1295.8,-244.519"/>
<polygon fill="midnightblue" stroke="midnightblue" points="1296.94,-247.829 1305.49,-241.563 1294.9,-241.134 1296.94,-247.829"/>
</g>
<!-- Node20 -->
<g id="node20" class="node"><title>Node20</title>
<polygon fill="white" stroke="#bfbfbf" points="1458,-168.5 1458,-187.5 1498,-187.5 1498,-168.5 1458,-168.5"/>
<text text-anchor="middle" x="1478" y="-175.5" font-family="Helvetica,sans-Serif" font-size="10.00">limits</text>
</g>
<!-- Node17&#45;&gt;Node20 -->
<g id="edge32" class="edge"><title>Node17&#45;&gt;Node20</title>
<path fill="none" stroke="midnightblue" d="M1179.68,-288.766C1286.38,-287.62 1645.99,-281.02 1680,-244 1730.27,-189.277 1575.92,-180.436 1508.18,-179.147"/>
<polygon fill="midnightblue" stroke="midnightblue" points="1508.15,-175.646 1498.1,-178.999 1508.05,-182.645 1508.15,-175.646"/>
</g>
<!-- Node21 -->
<g id="node21" class="node"><title>Node21</title>
<polygon fill="white" stroke="#bfbfbf" points="1366.5,-224.5 1366.5,-243.5 1401.5,-243.5 1401.5,-224.5 1366.5,-224.5"/>
<text text-anchor="middle" x="1384" y="-231.5" font-family="Helvetica,sans-Serif" font-size="10.00">map</text>
</g>
<!-- Node17&#45;&gt;Node21 -->
<g id="edge33" class="edge"><title>Node17&#45;&gt;Node21</title>
<path fill="none" stroke="midnightblue" d="M1179.55,-283.766C1218.23,-276.666 1288.24,-262.956 1356.43,-244.194"/>
<polygon fill="midnightblue" stroke="midnightblue" points="1357.78,-247.45 1366.47,-241.389 1355.9,-240.708 1357.78,-247.45"/>
</g>
<!-- Node22 -->
<g id="node22" class="node"><title>Node22</title>
<polygon fill="white" stroke="#bfbfbf" points="1419.5,-224.5 1419.5,-243.5 1478.5,-243.5 1478.5,-224.5 1419.5,-224.5"/>
<text text-anchor="middle" x="1449" y="-231.5" font-family="Helvetica,sans-Serif" font-size="10.00">functional</text>
</g>
<!-- Node17&#45;&gt;Node22 -->
<g id="edge34" class="edge"><title>Node17&#45;&gt;Node22</title>
<path fill="none" stroke="midnightblue" d="M1179.86,-284.467C1226.71,-277.222 1320.56,-262.176 1409.22,-244.274"/>
<polygon fill="midnightblue" stroke="midnightblue" points="1410.07,-247.674 1419.17,-242.249 1408.67,-240.815 1410.07,-247.674"/>
</g>
<!-- Node23 -->
<g id="node23" class="node"><title>Node23</title>
<polygon fill="white" stroke="#bfbfbf" points="1497,-224.5 1497,-243.5 1553,-243.5 1553,-224.5 1497,-224.5"/>
<text text-anchor="middle" x="1525" y="-231.5" font-family="Helvetica,sans-Serif" font-size="10.00">algorithm</text>
</g>
<!-- Node17&#45;&gt;Node23 -->
<g id="edge35" class="edge"><title>Node17&#45;&gt;Node23</title>
<path fill="none" stroke="midnightblue" d="M1179.55,-286.133C1236.91,-280.341 1367.44,-266.045 1486.75,-244.062"/>
<polygon fill="midnightblue" stroke="midnightblue" points="1487.6,-247.465 1496.79,-242.19 1486.31,-240.584 1487.6,-247.465"/>
</g>
<!-- Node24 -->
<g id="node24" class="node"><title>Node24</title>
<g id="a_node24"><a xlink:href="Tileset_8h.html" target="_top" xlink:title="Tileset.h">
<polygon fill="white" stroke="black" points="877,-224.5 877,-243.5 931,-243.5 931,-224.5 877,-224.5"/>
<text text-anchor="middle" x="904" y="-231.5" font-family="Helvetica,sans-Serif" font-size="10.00">Tileset.h</text>
</a>
</g>
</g>
<!-- Node17&#45;&gt;Node24 -->
<g id="edge36" class="edge"><title>Node17&#45;&gt;Node24</title>
<path fill="none" stroke="midnightblue" d="M1120.33,-282.486C1075.35,-272.613 989.982,-253.874 941.01,-243.124"/>
<polygon fill="midnightblue" stroke="midnightblue" points="941.658,-239.683 931.14,-240.957 940.157,-246.52 941.658,-239.683"/>
</g>
<!-- Node25 -->
<g id="node25" class="node"><title>Node25</title>
<g id="a_node25"><a xlink:href="AStarHeuristic_8h.html" target="_top" xlink:title="AStarHeuristic.h">
<polygon fill="white" stroke="black" points="1101.5,-168.5 1101.5,-187.5 1190.5,-187.5 1190.5,-168.5 1101.5,-168.5"/>
<text text-anchor="middle" x="1146" y="-175.5" font-family="Helvetica,sans-Serif" font-size="10.00">AStarHeuristic.h</text>
</a>
</g>
</g>
<!-- Node17&#45;&gt;Node25 -->
<g id="edge41" class="edge"><title>Node17&#45;&gt;Node25</title>
<path fill="none" stroke="midnightblue" d="M1144.87,-280.407C1139.94,-271.614 1132.84,-257.381 1130,-244 1126.61,-228.033 1131.76,-210.02 1137.09,-197.013"/>
<polygon fill="midnightblue" stroke="midnightblue" points="1140.33,-198.345 1141.25,-187.79 1133.95,-195.466 1140.33,-198.345"/>
</g>
<!-- Node26 -->
<g id="node26" class="node"><title>Node26</title>
<g id="a_node26"><a xlink:href="Resources_8h.html" target="_top" xlink:title="Resources.h">
<polygon fill="white" stroke="black" points="745,-168.5 745,-187.5 817,-187.5 817,-168.5 745,-168.5"/>
<text text-anchor="middle" x="781" y="-175.5" font-family="Helvetica,sans-Serif" font-size="10.00">Resources.h</text>
</a>
</g>
</g>
<!-- Node17&#45;&gt;Node26 -->
<g id="edge43" class="edge"><title>Node17&#45;&gt;Node26</title>
<path fill="none" stroke="midnightblue" d="M1123.21,-280.479C1083.36,-267.855 1006.05,-243.566 940,-224 900.039,-212.163 854.228,-199.268 822.075,-190.329"/>
<polygon fill="midnightblue" stroke="midnightblue" points="822.713,-186.874 812.141,-187.572 820.841,-193.619 822.713,-186.874"/>
</g>
<!-- Node27 -->
<g id="node27" class="node"><title>Node27</title>
<g id="a_node27"><a xlink:href="TileMapObserver_8h.html" target="_top" xlink:title="TileMapObserver.h">
<polygon fill="white" stroke="black" points="1571.5,-224.5 1571.5,-243.5 1670.5,-243.5 1670.5,-224.5 1571.5,-224.5"/>
<text text-anchor="middle" x="1621" y="-231.5" font-family="Helvetica,sans-Serif" font-size="10.00">TileMapObserver.h</text>
</a>
</g>
</g>
<!-- Node17&#45;&gt;Node27 -->
<g id="edge48" class="edge"><title>Node17&#45;&gt;Node27</title>
<path fill="none" stroke="midnightblue" d="M1179.53,-286.211C1245.73,-279.863 1411.29,-263.472 1561.14,-244.058"/>
<polygon fill="midnightblue" stroke="midnightblue" points="1561.98,-247.479 1571.45,-242.715 1561.08,-240.537 1561.98,-247.479"/>
</g>
<!-- Node28 -->
<g id="node28" class="node"><title>Node28</title>
<g id="a_node28"><a xlink:href="NearestGOFinder_8h.html" target="_top" xlink:title="NearestGOFinder.h">
<polygon fill="white" stroke="black" points="1139.5,-224.5 1139.5,-243.5 1240.5,-243.5 1240.5,-224.5 1139.5,-224.5"/>
<text text-anchor="middle" x="1190" y="-231.5" font-family="Helvetica,sans-Serif" font-size="10.00">NearestGOFinder.h</text>
</a>
</g>
</g>
<!-- Node17&#45;&gt;Node28 -->
<g id="edge49" class="edge"><title>Node17&#45;&gt;Node28</title>
<path fill="none" stroke="midnightblue" d="M1156.61,-280.083C1162.26,-272.455 1170.54,-261.264 1177.45,-251.941"/>
<polygon fill="midnightblue" stroke="midnightblue" points="1180.38,-253.87 1183.52,-243.751 1174.75,-249.703 1180.38,-253.87"/>
</g>
<!-- Node24&#45;&gt;Node6 -->
<g id="edge37" class="edge"><title>Node24&#45;&gt;Node6</title>
<path fill="none" stroke="midnightblue" d="M913.118,-224.354C924.91,-212.071 943.036,-188.753 935,-168 930.546,-156.498 921.632,-146.131 913.251,-138.255"/>
<polygon fill="midnightblue" stroke="midnightblue" points="915.372,-135.46 905.541,-131.51 910.763,-140.729 915.372,-135.46"/>
</g>
<!-- Node24&#45;&gt;Node12 -->
<g id="edge38" class="edge"><title>Node24&#45;&gt;Node12</title>
<path fill="none" stroke="midnightblue" d="M876.925,-231.558C780.107,-226.3 450.56,-207.53 324.297,-187.859"/>
<polygon fill="midnightblue" stroke="midnightblue" points="324.573,-184.358 314.139,-186.199 323.444,-191.267 324.573,-184.358"/>
</g>
<!-- Node25&#45;&gt;Node10 -->
<g id="edge42" class="edge"><title>Node25&#45;&gt;Node10</title>
<path fill="none" stroke="midnightblue" d="M1138.68,-168.283C1127.82,-155.515 1106.63,-131.167 1087,-112 1076.32,-101.573 1063.68,-90.6 1053.53,-82.0999"/>
<polygon fill="midnightblue" stroke="midnightblue" points="1055.62,-79.2907 1045.69,-75.6078 1051.16,-84.6819 1055.62,-79.2907"/>
</g>
<!-- Node26&#45;&gt;Node3 -->
<g id="edge44" class="edge"><title>Node26&#45;&gt;Node3</title>
<path fill="none" stroke="midnightblue" d="M784.869,-168.481C794.027,-146.891 814.292,-89.3798 787,-56 765.748,-30.0084 674.085,-18.6697 615.391,-14.0002"/>
<polygon fill="midnightblue" stroke="midnightblue" points="615.433,-10.4935 605.198,-13.2296 614.905,-17.4736 615.433,-10.4935"/>
</g>
<!-- Node26&#45;&gt;Node5 -->
<g id="edge47" class="edge"><title>Node26&#45;&gt;Node5</title>
<path fill="none" stroke="midnightblue" d="M744.867,-169.773C693.244,-159.449 598.925,-140.585 547.242,-130.248"/>
<polygon fill="midnightblue" stroke="midnightblue" points="547.688,-126.768 537.196,-128.239 546.315,-133.632 547.688,-126.768"/>
</g>
<!-- Node26&#45;&gt;Node6 -->
<g id="edge45" class="edge"><title>Node26&#45;&gt;Node6</title>
<path fill="none" stroke="midnightblue" d="M798.905,-168.444C817.254,-159.675 846.005,-145.935 867.094,-135.858"/>
<polygon fill="midnightblue" stroke="midnightblue" points="868.665,-138.986 876.179,-131.516 865.647,-132.67 868.665,-138.986"/>
</g>
<!-- Node26&#45;&gt;Node15 -->
<g id="edge46" class="edge"><title>Node26&#45;&gt;Node15</title>
<path fill="none" stroke="midnightblue" d="M777.547,-168.368C770.383,-150.456 753.769,-108.923 744.179,-84.9482"/>
<polygon fill="midnightblue" stroke="midnightblue" points="747.4,-83.5763 740.437,-75.5914 740.901,-86.1761 747.4,-83.5763"/>
</g>
<!-- Node28&#45;&gt;Node2 -->
<g id="edge52" class="edge"><title>Node28&#45;&gt;Node2</title>
<path fill="none" stroke="midnightblue" d="M1139.48,-229.288C1004.98,-219.407 639.322,-192.542 505.195,-182.688"/>
<polygon fill="midnightblue" stroke="midnightblue" points="505.422,-179.195 495.192,-181.953 504.909,-186.176 505.422,-179.195"/>
</g>
<!-- Node28&#45;&gt;Node10 -->
<g id="edge51" class="edge"><title>Node28&#45;&gt;Node10</title>
<path fill="none" stroke="midnightblue" d="M1194.32,-224.402C1200.22,-211.361 1208.98,-186.176 1199,-168 1171.54,-117.98 1107.82,-89.7671 1068.38,-76.5146"/>
<polygon fill="midnightblue" stroke="midnightblue" points="1069.26,-73.1223 1058.67,-73.3893 1067.12,-79.7855 1069.26,-73.1223"/>
</g>
<!-- Node28&#45;&gt;Node20 -->
<g id="edge50" class="edge"><title>Node28&#45;&gt;Node20</title>
<path fill="none" stroke="midnightblue" d="M1235.63,-224.444C1295.01,-213.31 1397.14,-194.162 1447.75,-184.672"/>
<polygon fill="midnightblue" stroke="midnightblue" points="1448.55,-188.083 1457.73,-182.8 1447.26,-181.203 1448.55,-188.083"/>
</g>
<!-- Node29&#45;&gt;Node7 -->
<g id="edge55" class="edge"><title>Node29&#45;&gt;Node7</title>
<path fill="none" stroke="midnightblue" d="M199.411,-224.422C209.832,-210.954 231.641,-184.667 255,-168 274.426,-154.139 298.803,-142.925 318.384,-135.159"/>
<polygon fill="midnightblue" stroke="midnightblue" points="319.772,-138.375 327.851,-131.521 317.261,-131.84 319.772,-138.375"/>
</g>
<!-- Node29&#45;&gt;Node12 -->
<g id="edge56" class="edge"><title>Node29&#45;&gt;Node12</title>
<path fill="none" stroke="midnightblue" d="M208.424,-224.324C223.54,-215.822 246.815,-202.729 264.471,-192.797"/>
<polygon fill="midnightblue" stroke="midnightblue" points="266.614,-195.608 273.614,-187.655 263.183,-189.507 266.614,-195.608"/>
</g>
<!-- Node30 -->
<g id="node30" class="node"><title>Node30</title>
<g id="a_node30"><a xlink:href="Error_8h.html" target="_top" xlink:title="Error.h">
<polygon fill="white" stroke="black" points="58,-168.5 58,-187.5 104,-187.5 104,-168.5 58,-168.5"/>
<text text-anchor="middle" x="81" y="-175.5" font-family="Helvetica,sans-Serif" font-size="10.00">Error.h</text>
</a>
</g>
</g>
<!-- Node29&#45;&gt;Node30 -->
<g id="edge57" class="edge"><title>Node29&#45;&gt;Node30</title>
<path fill="none" stroke="midnightblue" d="M175.005,-224.324C156.962,-215.625 128.953,-202.12 108.197,-192.113"/>
<polygon fill="midnightblue" stroke="midnightblue" points="109.478,-188.845 98.9501,-187.655 106.438,-195.15 109.478,-188.845"/>
</g>
<!-- Node31 -->
<g id="node31" class="node"><title>Node31</title>
<polygon fill="white" stroke="#bfbfbf" points="66,-112.5 66,-131.5 120,-131.5 120,-112.5 66,-112.5"/>
<text text-anchor="middle" x="93" y="-119.5" font-family="Helvetica,sans-Serif" font-size="10.00">iostream</text>
</g>
<!-- Node30&#45;&gt;Node31 -->
<g id="edge58" class="edge"><title>Node30&#45;&gt;Node31</title>
<path fill="none" stroke="midnightblue" d="M82.9816,-168.083C84.5717,-160.927 86.8588,-150.635 88.8464,-141.691"/>
<polygon fill="midnightblue" stroke="midnightblue" points="92.3026,-142.272 91.0553,-131.751 85.4693,-140.754 92.3026,-142.272"/>
</g>
<!-- Node32 -->
<g id="node32" class="node"><title>Node32</title>
<polygon fill="white" stroke="#bfbfbf" points="0,-112.5 0,-131.5 48,-131.5 48,-112.5 0,-112.5"/>
<text text-anchor="middle" x="24" y="-119.5" font-family="Helvetica,sans-Serif" font-size="10.00">stdlib.h</text>
</g>
<!-- Node30&#45;&gt;Node32 -->
<g id="edge59" class="edge"><title>Node30&#45;&gt;Node32</title>
<path fill="none" stroke="midnightblue" d="M71.842,-168.324C63.4985,-160.42 50.9676,-148.548 40.8231,-138.938"/>
<polygon fill="midnightblue" stroke="midnightblue" points="42.9913,-136.171 33.3247,-131.834 38.1771,-141.252 42.9913,-136.171"/>
</g>
<!-- Node33&#45;&gt;Node2 -->
<g id="edge61" class="edge"><title>Node33&#45;&gt;Node2</title>
<path fill="none" stroke="midnightblue" d="M454.054,-336.075C454.211,-309.945 454.673,-233.211 454.888,-197.577"/>
<polygon fill="midnightblue" stroke="midnightblue" points="458.388,-197.589 454.948,-187.568 451.388,-197.547 458.388,-197.589"/>
</g>
<!-- Node33&#45;&gt;Node6 -->
<g id="edge80" class="edge"><title>Node33&#45;&gt;Node6</title>
<path fill="none" stroke="midnightblue" d="M479.435,-342.937C541.801,-336.878 705.493,-314.842 819,-244 850.221,-224.514 861.709,-219.936 880,-188 888.157,-173.757 891.572,-155.284 892.996,-141.673"/>
<polygon fill="midnightblue" stroke="midnightblue" points="896.495,-141.826 893.784,-131.584 889.516,-141.281 896.495,-141.826"/>
</g>
<!-- Node33&#45;&gt;Node10 -->
<g id="edge79" class="edge"><title>Node33&#45;&gt;Node10</title>
<path fill="none" stroke="midnightblue" d="M479.009,-342.776C567.857,-334.432 866.878,-302.447 940,-244 992.851,-201.755 1020.16,-121.887 1030.28,-85.6814"/>
<polygon fill="midnightblue" stroke="midnightblue" points="1033.79,-86.1273 1032.98,-75.5634 1027.02,-84.3259 1033.79,-86.1273"/>
</g>
<!-- Node33&#45;&gt;Node12 -->
<g id="edge62" class="edge"><title>Node33&#45;&gt;Node12</title>
<path fill="none" stroke="midnightblue" d="M434.863,-336.402C404.333,-321.742 344.63,-289.064 311,-244 300.767,-230.288 295.092,-211.505 292.081,-197.656"/>
<polygon fill="midnightblue" stroke="midnightblue" points="295.512,-196.965 290.201,-187.798 288.636,-198.276 295.512,-196.965"/>
</g>
<!-- Node34 -->
<g id="node34" class="node"><title>Node34</title>
<g id="a_node34"><a xlink:href="Game_8h.html" target="_top" xlink:title="Game.h">
<polygon fill="white" stroke="black" points="616.5,-280.5 616.5,-299.5 667.5,-299.5 667.5,-280.5 616.5,-280.5"/>
<text text-anchor="middle" x="642" y="-287.5" font-family="Helvetica,sans-Serif" font-size="10.00">Game.h</text>
</a>
</g>
</g>
<!-- Node33&#45;&gt;Node34 -->
<g id="edge63" class="edge"><title>Node33&#45;&gt;Node34</title>
<path fill="none" stroke="midnightblue" d="M479.355,-337.717C512.152,-328.297 569.464,-311.835 606.558,-301.18"/>
<polygon fill="midnightblue" stroke="midnightblue" points="607.802,-304.465 616.447,-298.34 605.869,-297.737 607.802,-304.465"/>
</g>
<!-- Node37 -->
<g id="node37" class="node"><title>Node37</title>
<g id="a_node37"><a xlink:href="Animation_8h.html" target="_top" xlink:title="Animation.h">
<polygon fill="white" stroke="black" points="320,-224.5 320,-243.5 388,-243.5 388,-224.5 320,-224.5"/>
<text text-anchor="middle" x="354" y="-231.5" font-family="Helvetica,sans-Serif" font-size="10.00">Animation.h</text>
</a>
</g>
</g>
<!-- Node33&#45;&gt;Node37 -->
<g id="edge75" class="edge"><title>Node33&#45;&gt;Node37</title>
<path fill="none" stroke="midnightblue" d="M446.153,-336.368C429.431,-317.974 390.065,-274.671 368.593,-251.052"/>
<polygon fill="midnightblue" stroke="midnightblue" points="371.127,-248.636 361.81,-243.591 365.947,-253.345 371.127,-248.636"/>
</g>
<!-- Node34&#45;&gt;Node3 -->
<g id="edge74" class="edge"><title>Node34&#45;&gt;Node3</title>
<path fill="none" stroke="midnightblue" d="M633.977,-280.393C626.415,-271.813 615.328,-257.938 609,-244 575.317,-169.809 567.416,-71.06 565.565,-30.0765"/>
<polygon fill="midnightblue" stroke="midnightblue" points="569.056,-29.7724 565.181,-19.9118 562.061,-30.0369 569.056,-29.7724"/>
</g>
<!-- Node34&#45;&gt;Node6 -->
<g id="edge64" class="edge"><title>Node34&#45;&gt;Node6</title>
<path fill="none" stroke="midnightblue" d="M667.705,-283.966C697.564,-277.465 747.743,-264.487 787,-244 822.94,-225.244 832.826,-218.958 859,-188 871.001,-173.805 880.638,-154.832 886.737,-141.05"/>
<polygon fill="midnightblue" stroke="midnightblue" points="890.024,-142.262 890.692,-131.688 883.576,-139.538 890.024,-142.262"/>
</g>
<!-- Node34&#45;&gt;Node10 -->
<g id="edge73" class="edge"><title>Node34&#45;&gt;Node10</title>
<path fill="none" stroke="midnightblue" d="M667.707,-280.54C706.413,-266.676 780.011,-235.787 826,-188 852.187,-160.789 834.688,-135.812 864,-112 903.469,-79.9368 963.456,-70.5263 1000.88,-67.8777"/>
<polygon fill="midnightblue" stroke="midnightblue" points="1001.49,-71.3488 1011.27,-67.2757 1001.08,-64.3605 1001.49,-71.3488"/>
</g>
<!-- Node34&#45;&gt;Node14 -->
<g id="edge72" class="edge"><title>Node34&#45;&gt;Node14</title>
<path fill="none" stroke="midnightblue" d="M651.02,-280.34C659.072,-271.932 670.298,-258.363 675,-244 677.766,-235.552 676.666,-232.731 675,-224 669.16,-193.395 654.2,-160.23 644.322,-140.554"/>
<polygon fill="midnightblue" stroke="midnightblue" points="647.389,-138.863 639.695,-131.579 641.167,-142.071 647.389,-138.863"/>
</g>
<!-- Node35 -->
<g id="node35" class="node"><title>Node35</title>
<polygon fill="white" stroke="#bfbfbf" points="482.5,-224.5 482.5,-243.5 523.5,-243.5 523.5,-224.5 482.5,-224.5"/>
<text text-anchor="middle" x="503" y="-231.5" font-family="Helvetica,sans-Serif" font-size="10.00">stack</text>
</g>
<!-- Node34&#45;&gt;Node35 -->
<g id="edge65" class="edge"><title>Node34&#45;&gt;Node35</title>
<path fill="none" stroke="midnightblue" d="M619.975,-280.444C596.489,-271.319 559.147,-256.813 532.988,-246.65"/>
<polygon fill="midnightblue" stroke="midnightblue" points="534.151,-243.347 523.563,-242.988 531.616,-249.872 534.151,-243.347"/>
</g>
<!-- Node36 -->
<g id="node36" class="node"><title>Node36</title>
<g id="a_node36"><a xlink:href="State_8h.html" target="_top" xlink:title="State.h">
<polygon fill="white" stroke="black" points="618,-224.5 618,-243.5 666,-243.5 666,-224.5 618,-224.5"/>
<text text-anchor="middle" x="642" y="-231.5" font-family="Helvetica,sans-Serif" font-size="10.00">State.h</text>
</a>
</g>
</g>
<!-- Node34&#45;&gt;Node36 -->
<g id="edge66" class="edge"><title>Node34&#45;&gt;Node36</title>
<path fill="none" stroke="midnightblue" d="M642,-280.083C642,-273.006 642,-262.861 642,-253.986"/>
<polygon fill="midnightblue" stroke="midnightblue" points="645.5,-253.751 642,-243.751 638.5,-253.751 645.5,-253.751"/>
</g>
<!-- Node36&#45;&gt;Node2 -->
<g id="edge71" class="edge"><title>Node36&#45;&gt;Node2</title>
<path fill="none" stroke="midnightblue" d="M617.936,-226.051C586.738,-217.042 531.913,-201.21 494.553,-190.422"/>
<polygon fill="midnightblue" stroke="midnightblue" points="495.092,-186.934 484.513,-187.522 493.149,-193.659 495.092,-186.934"/>
</g>
<!-- Node36&#45;&gt;Node4 -->
<g id="edge67" class="edge"><title>Node36&#45;&gt;Node4</title>
<path fill="none" stroke="midnightblue" d="M647.885,-224.368C660.262,-206.215 689.181,-163.802 705.416,-139.99"/>
<polygon fill="midnightblue" stroke="midnightblue" points="708.401,-141.825 711.142,-131.591 702.617,-137.882 708.401,-141.825"/>
</g>
<!-- Node36&#45;&gt;Node5 -->
<g id="edge68" class="edge"><title>Node36&#45;&gt;Node5</title>
<path fill="none" stroke="midnightblue" d="M631.721,-224.368C609.528,-205.733 556.889,-161.532 529.023,-138.134"/>
<polygon fill="midnightblue" stroke="midnightblue" points="531.141,-135.342 521.232,-131.591 526.639,-140.702 531.141,-135.342"/>
</g>
<!-- Node36&#45;&gt;Node14 -->
<g id="edge69" class="edge"><title>Node36&#45;&gt;Node14</title>
<path fill="none" stroke="midnightblue" d="M638.144,-224.249C634.442,-215.333 629.111,-201.006 627,-188 624.493,-172.549 626.996,-154.918 629.845,-141.92"/>
<polygon fill="midnightblue" stroke="midnightblue" points="633.33,-142.409 632.322,-131.862 626.533,-140.735 633.33,-142.409"/>
</g>
<!-- Node36&#45;&gt;Node26 -->
<g id="edge70" class="edge"><title>Node36&#45;&gt;Node26</title>
<path fill="none" stroke="midnightblue" d="M664.025,-224.444C687.104,-215.478 723.562,-201.314 749.641,-191.183"/>
<polygon fill="midnightblue" stroke="midnightblue" points="751.024,-194.4 759.078,-187.516 748.489,-187.875 751.024,-194.4"/>
</g>
<!-- Node37&#45;&gt;Node2 -->
<g id="edge76" class="edge"><title>Node37&#45;&gt;Node2</title>
<path fill="none" stroke="midnightblue" d="M370.227,-224.324C386.351,-215.703 411.3,-202.364 429.964,-192.386"/>
<polygon fill="midnightblue" stroke="midnightblue" points="431.644,-195.456 438.813,-187.655 428.344,-189.283 431.644,-195.456"/>
</g>
<!-- Node37&#45;&gt;Node12 -->
<g id="edge77" class="edge"><title>Node37&#45;&gt;Node12</title>
<path fill="none" stroke="midnightblue" d="M343.557,-224.324C333.854,-216.263 319.185,-204.077 307.5,-194.369"/>
<polygon fill="midnightblue" stroke="midnightblue" points="309.562,-191.532 299.633,-187.834 305.089,-196.916 309.562,-191.532"/>
</g>
<!-- Node38 -->
<g id="node38" class="node"><title>Node38</title>
<g id="a_node38"><a xlink:href="Timer_8h.html" target="_top" xlink:title="Timer.h">
<polygon fill="white" stroke="black" points="332,-168.5 332,-187.5 382,-187.5 382,-168.5 332,-168.5"/>
<text text-anchor="middle" x="357" y="-175.5" font-family="Helvetica,sans-Serif" font-size="10.00">Timer.h</text>
</a>
</g>
</g>
<!-- Node37&#45;&gt;Node38 -->
<g id="edge78" class="edge"><title>Node37&#45;&gt;Node38</title>
<path fill="none" stroke="midnightblue" d="M354.495,-224.083C354.889,-217.006 355.452,-206.861 355.945,-197.986"/>
<polygon fill="midnightblue" stroke="midnightblue" points="359.454,-197.93 356.514,-187.751 352.464,-197.542 359.454,-197.93"/>
</g>
</g>
</svg>
