<?xml version="1.0" encoding="UTF-8" standalone="no"?>
<!DOCTYPE svg PUBLIC "-//W3C//DTD SVG 1.1//EN"
 "http://www.w3.org/Graphics/SVG/1.1/DTD/svg11.dtd">
<!-- Generated by graphviz version 2.38.0 (20140413.2041)
 -->
<!-- Title: Engine/include/UIbutton.h Pages: 1 -->
<svg width="532pt" height="196pt"
 viewBox="0.00 0.00 532.00 196.00" xmlns="http://www.w3.org/2000/svg" xmlns:xlink="http://www.w3.org/1999/xlink">
<g id="graph0" class="graph" transform="scale(1 1) rotate(0) translate(4 192)">
<title>Engine/include/UIbutton.h</title>
<polygon fill="white" stroke="none" points="-4,4 -4,-192 528,-192 528,4 -4,4"/>
<!-- Node6 -->
<g id="node1" class="node"><title>Node6</title>
<polygon fill="#bfbfbf" stroke="black" points="184,-168.5 184,-187.5 313,-187.5 313,-168.5 184,-168.5"/>
<text text-anchor="middle" x="248.5" y="-175.5" font-family="Helvetica,sans-Serif" font-size="10.00">Engine/include/UIbutton.h</text>
</g>
<!-- Node7 -->
<g id="node2" class="node"><title>Node7</title>
<g id="a_node2"><a xlink:href="UIimageButton_8h.html" target="_top" xlink:title="Engine/include/UIimageButton.h">
<polygon fill="white" stroke="black" points="0,-112.5 0,-131.5 157,-131.5 157,-112.5 0,-112.5"/>
<text text-anchor="middle" x="78.5" y="-119.5" font-family="Helvetica,sans-Serif" font-size="10.00">Engine/include/UIimageButton.h</text>
</a>
</g>
</g>
<!-- Node6&#45;&gt;Node7 -->
<g id="edge1" class="edge"><title>Node6&#45;&gt;Node7</title>
<path fill="none" stroke="midnightblue" d="M211.681,-165.304C179.648,-155.129 133.985,-140.625 105.311,-131.516"/>
<polygon fill="midnightblue" stroke="midnightblue" points="210.973,-168.752 221.563,-168.444 213.092,-162.08 210.973,-168.752"/>
</g>
<!-- Node9 -->
<g id="node4" class="node"><title>Node9</title>
<g id="a_node4"><a xlink:href="UItextButton_8h.html" target="_top" xlink:title="Engine/include/UItextButton.h">
<polygon fill="white" stroke="black" points="175,-112.5 175,-131.5 322,-131.5 322,-112.5 175,-112.5"/>
<text text-anchor="middle" x="248.5" y="-119.5" font-family="Helvetica,sans-Serif" font-size="10.00">Engine/include/UItextButton.h</text>
</a>
</g>
</g>
<!-- Node6&#45;&gt;Node9 -->
<g id="edge3" class="edge"><title>Node6&#45;&gt;Node9</title>
<path fill="none" stroke="midnightblue" d="M248.5,-157.805C248.5,-148.91 248.5,-138.78 248.5,-131.751"/>
<polygon fill="midnightblue" stroke="midnightblue" points="245,-158.083 248.5,-168.083 252,-158.083 245,-158.083"/>
</g>
<!-- Node14 -->
<g id="node9" class="node"><title>Node14</title>
<g id="a_node9"><a xlink:href="UIbutton_8cpp.html" target="_top" xlink:title="Engine/src/UIbutton.cpp">
<polygon fill="white" stroke="black" points="340.5,-112.5 340.5,-131.5 462.5,-131.5 462.5,-112.5 340.5,-112.5"/>
<text text-anchor="middle" x="401.5" y="-119.5" font-family="Helvetica,sans-Serif" font-size="10.00">Engine/src/UIbutton.cpp</text>
</a>
</g>
</g>
<!-- Node6&#45;&gt;Node14 -->
<g id="edge8" class="edge"><title>Node6&#45;&gt;Node14</title>
<path fill="none" stroke="midnightblue" d="M282.389,-165.039C311.177,-154.879 351.787,-140.546 377.37,-131.516"/>
<polygon fill="midnightblue" stroke="midnightblue" points="281.008,-161.815 272.743,-168.444 283.338,-168.416 281.008,-161.815"/>
</g>
<!-- Node8 -->
<g id="node3" class="node"><title>Node8</title>
<g id="a_node3"><a xlink:href="UIimageButton_8cpp.html" target="_top" xlink:title="Engine/src/UIimageButton.cpp">
<polygon fill="white" stroke="black" points="3.5,-56.5 3.5,-75.5 153.5,-75.5 153.5,-56.5 3.5,-56.5"/>
<text text-anchor="middle" x="78.5" y="-63.5" font-family="Helvetica,sans-Serif" font-size="10.00">Engine/src/UIimageButton.cpp</text>
</a>
</g>
</g>
<!-- Node7&#45;&gt;Node8 -->
<g id="edge2" class="edge"><title>Node7&#45;&gt;Node8</title>
<path fill="none" stroke="midnightblue" d="M78.5,-101.805C78.5,-92.9102 78.5,-82.7798 78.5,-75.7511"/>
<polygon fill="midnightblue" stroke="midnightblue" points="75.0001,-102.083 78.5,-112.083 82.0001,-102.083 75.0001,-102.083"/>
</g>
<!-- Node10 -->
<g id="node5" class="node"><title>Node10</title>
<g id="a_node5"><a xlink:href="UItextButton_8cpp.html" target="_top" xlink:title="Engine/src/UItextButton.cpp">
<polygon fill="white" stroke="black" points="174.5,-56.5 174.5,-75.5 314.5,-75.5 314.5,-56.5 174.5,-56.5"/>
<text text-anchor="middle" x="244.5" y="-63.5" font-family="Helvetica,sans-Serif" font-size="10.00">Engine/src/UItextButton.cpp</text>
</a>
</g>
</g>
<!-- Node9&#45;&gt;Node10 -->
<g id="edge4" class="edge"><title>Node9&#45;&gt;Node10</title>
<path fill="none" stroke="midnightblue" d="M247.1,-102.101C246.436,-93.1357 245.675,-82.8579 245.148,-75.7511"/>
<polygon fill="midnightblue" stroke="midnightblue" points="243.61,-102.369 247.839,-112.083 250.591,-101.852 243.61,-102.369"/>
</g>
<!-- Node11 -->
<g id="node6" class="node"><title>Node11</title>
<g id="a_node6"><a xlink:href="TitleState_8h.html" target="_top" xlink:title="Game/include/TitleState.h">
<polygon fill="white" stroke="black" points="332.5,-56.5 332.5,-75.5 462.5,-75.5 462.5,-56.5 332.5,-56.5"/>
<text text-anchor="middle" x="397.5" y="-63.5" font-family="Helvetica,sans-Serif" font-size="10.00">Game/include/TitleState.h</text>
</a>
</g>
</g>
<!-- Node9&#45;&gt;Node11 -->
<g id="edge5" class="edge"><title>Node9&#45;&gt;Node11</title>
<path fill="none" stroke="midnightblue" d="M281.871,-108.906C309.884,-98.7536 349.196,-84.5063 374.001,-75.5164"/>
<polygon fill="midnightblue" stroke="midnightblue" points="280.319,-105.746 272.109,-112.444 282.704,-112.327 280.319,-105.746"/>
</g>
<!-- Node12 -->
<g id="node7" class="node"><title>Node12</title>
<g id="a_node7"><a xlink:href="main_8cpp.html" target="_top" xlink:title="Game/src/main.cpp">
<polygon fill="white" stroke="black" points="280.5,-0.5 280.5,-19.5 382.5,-19.5 382.5,-0.5 280.5,-0.5"/>
<text text-anchor="middle" x="331.5" y="-7.5" font-family="Helvetica,sans-Serif" font-size="10.00">Game/src/main.cpp</text>
</a>
</g>
</g>
<!-- Node11&#45;&gt;Node12 -->
<g id="edge6" class="edge"><title>Node11&#45;&gt;Node12</title>
<path fill="none" stroke="midnightblue" d="M378.946,-49.8197C367.122,-40.1452 352.214,-27.9481 342.297,-19.8339"/>
<polygon fill="midnightblue" stroke="midnightblue" points="376.94,-52.7004 386.896,-56.324 381.373,-47.2827 376.94,-52.7004"/>
</g>
<!-- Node13 -->
<g id="node8" class="node"><title>Node13</title>
<g id="a_node8"><a xlink:href="TitleState_8cpp.html" target="_top" xlink:title="Game/src/TitleState.cpp">
<polygon fill="white" stroke="black" points="401,-0.5 401,-19.5 524,-19.5 524,-0.5 401,-0.5"/>
<text text-anchor="middle" x="462.5" y="-7.5" font-family="Helvetica,sans-Serif" font-size="10.00">Game/src/TitleState.cpp</text>
</a>
</g>
</g>
<!-- Node11&#45;&gt;Node13 -->
<g id="edge7" class="edge"><title>Node11&#45;&gt;Node13</title>
<path fill="none" stroke="midnightblue" d="M415.773,-49.8197C427.418,-40.1452 442.099,-27.9481 451.867,-19.8339"/>
<polygon fill="midnightblue" stroke="midnightblue" points="413.399,-47.2416 407.943,-56.324 417.872,-52.6259 413.399,-47.2416"/>
</g>
</g>
</svg>
