<?xml version="1.0" encoding="UTF-8" standalone="no"?>
<!DOCTYPE svg PUBLIC "-//W3C//DTD SVG 1.1//EN"
 "http://www.w3.org/Graphics/SVG/1.1/DTD/svg11.dtd">
<!-- Generated by graphviz version 2.38.0 (20140413.2041)
 -->
<!-- Title: Engine/src/UIbutton.cpp Pages: 1 -->
<svg width="335pt" height="252pt"
 viewBox="0.00 0.00 335.00 252.00" xmlns="http://www.w3.org/2000/svg" xmlns:xlink="http://www.w3.org/1999/xlink">
<g id="graph0" class="graph" transform="scale(1 1) rotate(0) translate(4 248)">
<title>Engine/src/UIbutton.cpp</title>
<polygon fill="white" stroke="none" points="-4,4 -4,-248 331.001,-248 331.001,4 -4,4"/>
<!-- Node1 -->
<g id="node1" class="node"><title>Node1</title>
<polygon fill="#bfbfbf" stroke="black" points="93.0007,-224.5 93.0007,-243.5 215.001,-243.5 215.001,-224.5 93.0007,-224.5"/>
<text text-anchor="middle" x="154.001" y="-231.5" font-family="Helvetica,sans-Serif" font-size="10.00">Engine/src/UIbutton.cpp</text>
</g>
<!-- Node2 -->
<g id="node2" class="node"><title>Node2</title>
<g id="a_node2"><a xlink:href="UIbutton_8h.html" target="_top" xlink:title="UIbutton.h">
<polygon fill="white" stroke="black" points="76.0007,-168.5 76.0007,-187.5 138.001,-187.5 138.001,-168.5 76.0007,-168.5"/>
<text text-anchor="middle" x="107.001" y="-175.5" font-family="Helvetica,sans-Serif" font-size="10.00">UIbutton.h</text>
</a>
</g>
</g>
<!-- Node1&#45;&gt;Node2 -->
<g id="edge1" class="edge"><title>Node1&#45;&gt;Node2</title>
<path fill="none" stroke="midnightblue" d="M146.24,-224.083C139.464,-216.298 129.457,-204.801 121.246,-195.367"/>
<polygon fill="midnightblue" stroke="midnightblue" points="123.823,-192.996 114.617,-187.751 118.543,-197.592 123.823,-192.996"/>
</g>
<!-- Node8 -->
<g id="node8" class="node"><title>Node8</title>
<g id="a_node8"><a xlink:href="InputManager_8h.html" target="_top" xlink:title="InputManager.h">
<polygon fill="white" stroke="black" points="177.001,-112.5 177.001,-131.5 261.001,-131.5 261.001,-112.5 177.001,-112.5"/>
<text text-anchor="middle" x="219.001" y="-119.5" font-family="Helvetica,sans-Serif" font-size="10.00">InputManager.h</text>
</a>
</g>
</g>
<!-- Node1&#45;&gt;Node8 -->
<g id="edge9" class="edge"><title>Node1&#45;&gt;Node8</title>
<path fill="none" stroke="midnightblue" d="M159.101,-224.368C169.78,-206.296 194.669,-164.176 208.774,-140.307"/>
<polygon fill="midnightblue" stroke="midnightblue" points="211.85,-141.981 213.924,-131.591 205.823,-138.42 211.85,-141.981"/>
</g>
<!-- Node3 -->
<g id="node3" class="node"><title>Node3</title>
<g id="a_node3"><a xlink:href="Rect_8h.html" target="_top" xlink:title="Rect.h">
<polygon fill="white" stroke="black" points="13.0007,-112.5 13.0007,-131.5 59.0007,-131.5 59.0007,-112.5 13.0007,-112.5"/>
<text text-anchor="middle" x="36.0007" y="-119.5" font-family="Helvetica,sans-Serif" font-size="10.00">Rect.h</text>
</a>
</g>
</g>
<!-- Node2&#45;&gt;Node3 -->
<g id="edge2" class="edge"><title>Node2&#45;&gt;Node3</title>
<path fill="none" stroke="midnightblue" d="M95.5933,-168.324C84.8919,-160.185 68.66,-147.839 55.8378,-138.087"/>
<polygon fill="midnightblue" stroke="midnightblue" points="57.6939,-135.102 47.6156,-131.834 53.4563,-140.673 57.6939,-135.102"/>
</g>
<!-- Node5 -->
<g id="node5" class="node"><title>Node5</title>
<g id="a_node5"><a xlink:href="Vec2_8h.html" target="_top" xlink:title="Vec2.h">
<polygon fill="white" stroke="black" points="75.5007,-56.5 75.5007,-75.5 122.501,-75.5 122.501,-56.5 75.5007,-56.5"/>
<text text-anchor="middle" x="99.0007" y="-63.5" font-family="Helvetica,sans-Serif" font-size="10.00">Vec2.h</text>
</a>
</g>
</g>
<!-- Node2&#45;&gt;Node5 -->
<g id="edge7" class="edge"><title>Node2&#45;&gt;Node5</title>
<path fill="none" stroke="midnightblue" d="M106.373,-168.368C105.082,-150.617 102.104,-109.666 100.353,-85.5974"/>
<polygon fill="midnightblue" stroke="midnightblue" points="103.842,-85.3112 99.6255,-75.5914 96.8602,-85.819 103.842,-85.3112"/>
</g>
<!-- Node7 -->
<g id="node7" class="node"><title>Node7</title>
<polygon fill="white" stroke="#bfbfbf" points="117.501,-112.5 117.501,-131.5 158.501,-131.5 158.501,-112.5 117.501,-112.5"/>
<text text-anchor="middle" x="138.001" y="-119.5" font-family="Helvetica,sans-Serif" font-size="10.00">string</text>
</g>
<!-- Node2&#45;&gt;Node7 -->
<g id="edge8" class="edge"><title>Node2&#45;&gt;Node7</title>
<path fill="none" stroke="midnightblue" d="M112.12,-168.083C116.408,-160.613 122.659,-149.724 127.943,-140.52"/>
<polygon fill="midnightblue" stroke="midnightblue" points="131.034,-142.166 132.977,-131.751 124.963,-138.681 131.034,-142.166"/>
</g>
<!-- Node4 -->
<g id="node4" class="node"><title>Node4</title>
<g id="a_node4"><a xlink:href="SDL__include_8h.html" target="_top" xlink:title="SDL_include.h">
<polygon fill="white" stroke="black" points="59.0007,-0.5 59.0007,-19.5 139.001,-19.5 139.001,-0.5 59.0007,-0.5"/>
<text text-anchor="middle" x="99.0007" y="-7.5" font-family="Helvetica,sans-Serif" font-size="10.00">SDL_include.h</text>
</a>
</g>
</g>
<!-- Node3&#45;&gt;Node4 -->
<g id="edge3" class="edge"><title>Node3&#45;&gt;Node4</title>
<path fill="none" stroke="midnightblue" d="M26.0131,-112.274C12.6324,-99.4944 -8.10639,-75.1316 4.00066,-56 14.2111,-39.8655 31.9434,-29.4027 49.3439,-22.6707"/>
<polygon fill="midnightblue" stroke="midnightblue" points="50.6534,-25.9204 58.9269,-19.3022 48.332,-19.3165 50.6534,-25.9204"/>
</g>
<!-- Node3&#45;&gt;Node5 -->
<g id="edge4" class="edge"><title>Node3&#45;&gt;Node5</title>
<path fill="none" stroke="midnightblue" d="M46.1227,-112.324C55.527,-104.263 69.7447,-92.0765 81.0696,-82.3695"/>
<polygon fill="midnightblue" stroke="midnightblue" points="83.3796,-84.9993 88.6944,-75.8339 78.8241,-79.6844 83.3796,-84.9993"/>
</g>
<!-- Node6 -->
<g id="node6" class="node"><title>Node6</title>
<polygon fill="white" stroke="#bfbfbf" points="13.0007,-56.5 13.0007,-75.5 57.0007,-75.5 57.0007,-56.5 13.0007,-56.5"/>
<text text-anchor="middle" x="35.0007" y="-63.5" font-family="Helvetica,sans-Serif" font-size="10.00">cmath</text>
</g>
<!-- Node3&#45;&gt;Node6 -->
<g id="edge6" class="edge"><title>Node3&#45;&gt;Node6</title>
<path fill="none" stroke="midnightblue" d="M35.8355,-112.083C35.7045,-105.006 35.5166,-94.8611 35.3523,-85.9865"/>
<polygon fill="midnightblue" stroke="midnightblue" points="38.8474,-85.6845 35.1627,-75.7511 31.8486,-85.8142 38.8474,-85.6845"/>
</g>
<!-- Node5&#45;&gt;Node4 -->
<g id="edge5" class="edge"><title>Node5&#45;&gt;Node4</title>
<path fill="none" stroke="midnightblue" d="M99.0007,-56.083C99.0007,-49.0059 99.0007,-38.8611 99.0007,-29.9865"/>
<polygon fill="midnightblue" stroke="midnightblue" points="102.501,-29.751 99.0007,-19.7511 95.5008,-29.7511 102.501,-29.751"/>
</g>
<!-- Node8&#45;&gt;Node4 -->
<g id="edge10" class="edge"><title>Node8&#45;&gt;Node4</title>
<path fill="none" stroke="midnightblue" d="M209.584,-112.368C189.343,-93.8137 141.451,-49.9129 115.842,-26.4376"/>
<polygon fill="midnightblue" stroke="midnightblue" points="118.11,-23.7686 108.373,-19.5914 113.38,-28.9287 118.11,-23.7686"/>
</g>
<!-- Node8&#45;&gt;Node5 -->
<g id="edge11" class="edge"><title>Node8&#45;&gt;Node5</title>
<path fill="none" stroke="midnightblue" d="M199.986,-112.444C180.413,-103.636 149.693,-89.8116 127.272,-79.722"/>
<polygon fill="midnightblue" stroke="midnightblue" points="128.482,-76.4284 117.926,-75.5164 125.609,-82.8119 128.482,-76.4284"/>
</g>
<!-- Node9 -->
<g id="node9" class="node"><title>Node9</title>
<polygon fill="white" stroke="#bfbfbf" points="179.501,-56.5 179.501,-75.5 262.501,-75.5 262.501,-56.5 179.501,-56.5"/>
<text text-anchor="middle" x="221.001" y="-63.5" font-family="Helvetica,sans-Serif" font-size="10.00">unordered_map</text>
</g>
<!-- Node8&#45;&gt;Node9 -->
<g id="edge12" class="edge"><title>Node8&#45;&gt;Node9</title>
<path fill="none" stroke="midnightblue" d="M219.331,-112.083C219.593,-105.006 219.969,-94.8611 220.297,-85.9865"/>
<polygon fill="midnightblue" stroke="midnightblue" points="223.804,-85.8738 220.677,-75.7511 216.809,-85.6147 223.804,-85.8738"/>
</g>
<!-- Node10 -->
<g id="node10" class="node"><title>Node10</title>
<polygon fill="white" stroke="#bfbfbf" points="281.001,-56.5 281.001,-75.5 327.001,-75.5 327.001,-56.5 281.001,-56.5"/>
<text text-anchor="middle" x="304.001" y="-63.5" font-family="Helvetica,sans-Serif" font-size="10.00">cstdint</text>
</g>
<!-- Node8&#45;&gt;Node10 -->
<g id="edge13" class="edge"><title>Node8&#45;&gt;Node10</title>
<path fill="none" stroke="midnightblue" d="M232.657,-112.324C245.917,-103.9 266.269,-90.9709 281.847,-81.0741"/>
<polygon fill="midnightblue" stroke="midnightblue" points="283.814,-83.9711 290.378,-75.6545 280.06,-78.0626 283.814,-83.9711"/>
</g>
</g>
</svg>
