<?xml version="1.0" encoding="UTF-8" standalone="no"?>
<!DOCTYPE svg PUBLIC "-//W3C//DTD SVG 1.1//EN"
 "http://www.w3.org/Graphics/SVG/1.1/DTD/svg11.dtd">
<!-- Generated by graphviz version 2.38.0 (20140413.2041)
 -->
<!-- Title: Engine/include/UIelement.h Pages: 1 -->
<svg width="1322pt" height="263pt"
 viewBox="0.00 0.00 1322.00 263.00" xmlns="http://www.w3.org/2000/svg" xmlns:xlink="http://www.w3.org/1999/xlink">
<g id="graph0" class="graph" transform="scale(1 1) rotate(0) translate(4 259)">
<title>Engine/include/UIelement.h</title>
<polygon fill="white" stroke="none" points="-4,4 -4,-259 1318,-259 1318,4 -4,4"/>
<!-- Node12 -->
<g id="node1" class="node"><title>Node12</title>
<polygon fill="#bfbfbf" stroke="black" points="457,-235.5 457,-254.5 594,-254.5 594,-235.5 457,-235.5"/>
<text text-anchor="middle" x="525.5" y="-242.5" font-family="Helvetica,sans-Serif" font-size="10.00">Engine/include/UIelement.h</text>
</g>
<!-- Node13 -->
<g id="node2" class="node"><title>Node13</title>
<g id="a_node2"><a xlink:href="UIcanvas_8h.html" target="_top" xlink:title="Engine/include/UIcanvas.h">
<polygon fill="white" stroke="black" points="339.5,-179.5 339.5,-198.5 473.5,-198.5 473.5,-179.5 339.5,-179.5"/>
<text text-anchor="middle" x="406.5" y="-186.5" font-family="Helvetica,sans-Serif" font-size="10.00">Engine/include/UIcanvas.h</text>
</a>
</g>
</g>
<!-- Node12&#45;&gt;Node13 -->
<g id="edge1" class="edge"><title>Node12&#45;&gt;Node13</title>
<path fill="none" stroke="midnightblue" d="M497.363,-231.232C475.104,-221.131 444.644,-207.309 425.268,-198.516"/>
<polygon fill="midnightblue" stroke="midnightblue" points="496.091,-234.498 506.644,-235.444 498.984,-228.124 496.091,-234.498"/>
</g>
<!-- Node14 -->
<g id="node3" class="node"><title>Node14</title>
<g id="a_node3"><a xlink:href="UIgridGroup_8h.html" target="_top" xlink:title="Engine/include/UIgridGroup.h">
<polygon fill="white" stroke="black" points="1.5,-118 1.5,-137 145.5,-137 145.5,-118 1.5,-118"/>
<text text-anchor="middle" x="73.5" y="-125" font-family="Helvetica,sans-Serif" font-size="10.00">Engine/include/UIgridGroup.h</text>
</a>
</g>
</g>
<!-- Node12&#45;&gt;Node14 -->
<g id="edge13" class="edge"><title>Node12&#45;&gt;Node14</title>
<path fill="none" stroke="midnightblue" d="M461.36,-233.758C414.298,-225.725 349.012,-213.497 292.5,-199 220.15,-180.44 136.644,-151.377 96.8849,-137.059"/>
<polygon fill="midnightblue" stroke="midnightblue" points="460.971,-237.242 471.415,-235.458 462.138,-230.34 460.971,-237.242"/>
</g>
<!-- Node16 -->
<g id="node5" class="node"><title>Node16</title>
<g id="a_node5"><a xlink:href="UIhorizontalGroup_8h.html" target="_top" xlink:title="Engine/include/UIhorizontal\lGroup.h">
<polygon fill="white" stroke="black" points="163.5,-112.5 163.5,-142.5 299.5,-142.5 299.5,-112.5 163.5,-112.5"/>
<text text-anchor="start" x="171.5" y="-130.5" font-family="Helvetica,sans-Serif" font-size="10.00">Engine/include/UIhorizontal</text>
<text text-anchor="middle" x="231.5" y="-119.5" font-family="Helvetica,sans-Serif" font-size="10.00">Group.h</text>
</a>
</g>
</g>
<!-- Node12&#45;&gt;Node16 -->
<g id="edge14" class="edge"><title>Node12&#45;&gt;Node16</title>
<path fill="none" stroke="midnightblue" d="M449.968,-233.677C412.862,-226.85 368.15,-215.94 330.5,-199 298.173,-184.455 265.64,-158.638 247.093,-142.608"/>
<polygon fill="midnightblue" stroke="midnightblue" points="449.762,-237.195 460.219,-235.496 450.985,-230.303 449.762,-237.195"/>
</g>
<!-- Node18 -->
<g id="node7" class="node"><title>Node18</title>
<g id="a_node7"><a xlink:href="UIverticalGroup_8h.html" target="_top" xlink:title="Engine/include/UIvertical\lGroup.h">
<polygon fill="white" stroke="black" points="463,-112.5 463,-142.5 588,-142.5 588,-112.5 463,-112.5"/>
<text text-anchor="start" x="471" y="-130.5" font-family="Helvetica,sans-Serif" font-size="10.00">Engine/include/UIvertical</text>
<text text-anchor="middle" x="525.5" y="-119.5" font-family="Helvetica,sans-Serif" font-size="10.00">Group.h</text>
</a>
</g>
</g>
<!-- Node12&#45;&gt;Node18 -->
<g id="edge26" class="edge"><title>Node12&#45;&gt;Node18</title>
<path fill="none" stroke="midnightblue" d="M525.5,-225.068C525.5,-201.904 525.5,-163.223 525.5,-142.545"/>
<polygon fill="midnightblue" stroke="midnightblue" points="522,-225.319 525.5,-235.319 529,-225.319 522,-225.319"/>
</g>
<!-- Node24 -->
<g id="node13" class="node"><title>Node24</title>
<g id="a_node13"><a xlink:href="UIimage_8h.html" target="_top" xlink:title="Engine/include/UIimage.h">
<polygon fill="white" stroke="black" points="730.5,-179.5 730.5,-198.5 858.5,-198.5 858.5,-179.5 730.5,-179.5"/>
<text text-anchor="middle" x="794.5" y="-186.5" font-family="Helvetica,sans-Serif" font-size="10.00">Engine/include/UIimage.h</text>
</a>
</g>
</g>
<!-- Node12&#45;&gt;Node24 -->
<g id="edge15" class="edge"><title>Node12&#45;&gt;Node24</title>
<path fill="none" stroke="midnightblue" d="M577.938,-233.473C628.777,-223.268 704.936,-207.979 752.076,-198.516"/>
<polygon fill="midnightblue" stroke="midnightblue" points="577.239,-230.044 568.124,-235.444 578.617,-236.907 577.239,-230.044"/>
</g>
<!-- Node28 -->
<g id="node17" class="node"><title>Node28</title>
<g id="a_node17"><a xlink:href="UItext_8h.html" target="_top" xlink:title="Engine/include/UItext.h">
<polygon fill="white" stroke="black" points="949,-179.5 949,-198.5 1068,-198.5 1068,-179.5 949,-179.5"/>
<text text-anchor="middle" x="1008.5" y="-186.5" font-family="Helvetica,sans-Serif" font-size="10.00">Engine/include/UItext.h</text>
</a>
</g>
</g>
<!-- Node12&#45;&gt;Node28 -->
<g id="edge20" class="edge"><title>Node12&#45;&gt;Node28</title>
<path fill="none" stroke="midnightblue" d="M604.179,-235.204C700.632,-224.42 861.942,-206.385 948.793,-196.675"/>
<polygon fill="midnightblue" stroke="midnightblue" points="603.738,-231.731 594.189,-236.32 604.516,-238.688 603.738,-231.731"/>
</g>
<!-- Node32 -->
<g id="node21" class="node"><title>Node32</title>
<g id="a_node21"><a xlink:href="UIelement_8cpp.html" target="_top" xlink:title="Engine/src/UIelement.cpp">
<polygon fill="white" stroke="black" points="1086.5,-179.5 1086.5,-198.5 1216.5,-198.5 1216.5,-179.5 1086.5,-179.5"/>
<text text-anchor="middle" x="1151.5" y="-186.5" font-family="Helvetica,sans-Serif" font-size="10.00">Engine/src/UIelement.cpp</text>
</a>
</g>
</g>
<!-- Node12&#45;&gt;Node32 -->
<g id="edge27" class="edge"><title>Node12&#45;&gt;Node32</title>
<path fill="none" stroke="midnightblue" d="M604.37,-238.504C711.408,-230.829 908.594,-215.925 1076.5,-199 1079.76,-198.671 1083.1,-198.321 1086.47,-197.956"/>
<polygon fill="midnightblue" stroke="midnightblue" points="604.022,-235.02 594.297,-239.224 604.521,-242.002 604.022,-235.02"/>
</g>
<!-- Node13&#45;&gt;Node14 -->
<g id="edge2" class="edge"><title>Node13&#45;&gt;Node14</title>
<path fill="none" stroke="midnightblue" d="M348.792,-177.702C297.715,-168.586 221.148,-154.916 154.5,-143 143.671,-141.064 132.029,-138.981 121.042,-137.014"/>
<polygon fill="midnightblue" stroke="midnightblue" points="348.198,-181.151 358.658,-179.463 349.428,-174.26 348.198,-181.151"/>
</g>
<!-- Node13&#45;&gt;Node16 -->
<g id="edge4" class="edge"><title>Node13&#45;&gt;Node16</title>
<path fill="none" stroke="midnightblue" d="M371.883,-176.23C343.387,-166.542 302.916,-152.782 272.744,-142.523"/>
<polygon fill="midnightblue" stroke="midnightblue" points="370.832,-179.57 381.427,-179.475 373.086,-172.942 370.832,-179.57"/>
</g>
<!-- Node13&#45;&gt;Node18 -->
<g id="edge6" class="edge"><title>Node13&#45;&gt;Node18</title>
<path fill="none" stroke="midnightblue" d="M432.623,-174.938C451.807,-165.347 477.833,-152.334 497.454,-142.523"/>
<polygon fill="midnightblue" stroke="midnightblue" points="430.929,-171.872 423.55,-179.475 434.059,-178.133 430.929,-171.872"/>
</g>
<!-- Node20 -->
<g id="node9" class="node"><title>Node20</title>
<g id="a_node9"><a xlink:href="TitleState_8h.html" target="_top" xlink:title="Game/include/TitleState.h">
<polygon fill="white" stroke="black" points="905.5,-56.5 905.5,-75.5 1035.5,-75.5 1035.5,-56.5 905.5,-56.5"/>
<text text-anchor="middle" x="970.5" y="-63.5" font-family="Helvetica,sans-Serif" font-size="10.00">Game/include/TitleState.h</text>
</a>
</g>
</g>
<!-- Node13&#45;&gt;Node20 -->
<g id="edge12" class="edge"><title>Node13&#45;&gt;Node20</title>
<path fill="none" stroke="midnightblue" d="M483.427,-177.692C519.071,-170.958 561.241,-160.123 596.5,-143 616.418,-133.327 615.128,-120.675 635.5,-112 682.742,-91.8832 821.941,-78.2413 905.298,-71.6225"/>
<polygon fill="midnightblue" stroke="midnightblue" points="482.771,-174.254 473.557,-179.485 484.022,-181.142 482.771,-174.254"/>
</g>
<!-- Node23 -->
<g id="node12" class="node"><title>Node23</title>
<g id="a_node12"><a xlink:href="UIcanvas_8cpp.html" target="_top" xlink:title="Engine/src/UIcanvas.cpp">
<polygon fill="white" stroke="black" points="318,-118 318,-137 445,-137 445,-118 318,-118"/>
<text text-anchor="middle" x="381.5" y="-125" font-family="Helvetica,sans-Serif" font-size="10.00">Engine/src/UIcanvas.cpp</text>
</a>
</g>
</g>
<!-- Node13&#45;&gt;Node23 -->
<g id="edge11" class="edge"><title>Node13&#45;&gt;Node23</title>
<path fill="none" stroke="midnightblue" d="M398.936,-169.997C394.336,-159.05 388.674,-145.575 385.075,-137.009"/>
<polygon fill="midnightblue" stroke="midnightblue" points="395.818,-171.612 402.918,-179.475 402.271,-168.9 395.818,-171.612"/>
</g>
<!-- Node15 -->
<g id="node4" class="node"><title>Node15</title>
<g id="a_node4"><a xlink:href="UIgridGroup_8cpp.html" target="_top" xlink:title="Engine/src/UIgridGroup.cpp">
<polygon fill="white" stroke="black" points="0,-56.5 0,-75.5 137,-75.5 137,-56.5 0,-56.5"/>
<text text-anchor="middle" x="68.5" y="-63.5" font-family="Helvetica,sans-Serif" font-size="10.00">Engine/src/UIgridGroup.cpp</text>
</a>
</g>
</g>
<!-- Node14&#45;&gt;Node15 -->
<g id="edge3" class="edge"><title>Node14&#45;&gt;Node15</title>
<path fill="none" stroke="midnightblue" d="M71.93,-107.817C71.0207,-96.9962 69.92,-83.898 69.215,-75.5091"/>
<polygon fill="midnightblue" stroke="midnightblue" points="68.4584,-108.303 72.7836,-117.975 75.4339,-107.717 68.4584,-108.303"/>
</g>
<!-- Node17 -->
<g id="node6" class="node"><title>Node17</title>
<g id="a_node6"><a xlink:href="UIhorizontalGroup_8cpp.html" target="_top" xlink:title="Engine/src/UIhorizontalGroup.cpp">
<polygon fill="white" stroke="black" points="155.5,-56.5 155.5,-75.5 319.5,-75.5 319.5,-56.5 155.5,-56.5"/>
<text text-anchor="middle" x="237.5" y="-63.5" font-family="Helvetica,sans-Serif" font-size="10.00">Engine/src/UIhorizontalGroup.cpp</text>
</a>
</g>
</g>
<!-- Node16&#45;&gt;Node17 -->
<g id="edge5" class="edge"><title>Node16&#45;&gt;Node17</title>
<path fill="none" stroke="midnightblue" d="M233.941,-102.289C234.893,-92.857 235.921,-82.6548 236.627,-75.6578"/>
<polygon fill="midnightblue" stroke="midnightblue" points="230.443,-102.099 232.922,-112.399 237.408,-102.801 230.443,-102.099"/>
</g>
<!-- Node19 -->
<g id="node8" class="node"><title>Node19</title>
<g id="a_node8"><a xlink:href="UIverticalGroup_8cpp.html" target="_top" xlink:title="Engine/src/UIverticalGroup.cpp">
<polygon fill="white" stroke="black" points="449,-56.5 449,-75.5 602,-75.5 602,-56.5 449,-56.5"/>
<text text-anchor="middle" x="525.5" y="-63.5" font-family="Helvetica,sans-Serif" font-size="10.00">Engine/src/UIverticalGroup.cpp</text>
</a>
</g>
</g>
<!-- Node18&#45;&gt;Node19 -->
<g id="edge7" class="edge"><title>Node18&#45;&gt;Node19</title>
<path fill="none" stroke="midnightblue" d="M525.5,-102.289C525.5,-92.857 525.5,-82.6548 525.5,-75.6578"/>
<polygon fill="midnightblue" stroke="midnightblue" points="522,-102.399 525.5,-112.399 529,-102.399 522,-102.399"/>
</g>
<!-- Node18&#45;&gt;Node20 -->
<g id="edge8" class="edge"><title>Node18&#45;&gt;Node20</title>
<path fill="none" stroke="midnightblue" d="M598.048,-112.704C599.545,-112.463 601.03,-112.228 602.5,-112 708.083,-95.6208 831.471,-81.5621 905.179,-73.7016"/>
<polygon fill="midnightblue" stroke="midnightblue" points="597.345,-109.273 588.057,-114.371 598.497,-116.178 597.345,-109.273"/>
</g>
<!-- Node21 -->
<g id="node10" class="node"><title>Node21</title>
<g id="a_node10"><a xlink:href="main_8cpp.html" target="_top" xlink:title="Game/src/main.cpp">
<polygon fill="white" stroke="black" points="853.5,-0.5 853.5,-19.5 955.5,-19.5 955.5,-0.5 853.5,-0.5"/>
<text text-anchor="middle" x="904.5" y="-7.5" font-family="Helvetica,sans-Serif" font-size="10.00">Game/src/main.cpp</text>
</a>
</g>
</g>
<!-- Node20&#45;&gt;Node21 -->
<g id="edge9" class="edge"><title>Node20&#45;&gt;Node21</title>
<path fill="none" stroke="midnightblue" d="M951.946,-49.8197C940.122,-40.1452 925.214,-27.9481 915.297,-19.8339"/>
<polygon fill="midnightblue" stroke="midnightblue" points="949.94,-52.7004 959.896,-56.324 954.373,-47.2827 949.94,-52.7004"/>
</g>
<!-- Node22 -->
<g id="node11" class="node"><title>Node22</title>
<g id="a_node11"><a xlink:href="TitleState_8cpp.html" target="_top" xlink:title="Game/src/TitleState.cpp">
<polygon fill="white" stroke="black" points="974,-0.5 974,-19.5 1097,-19.5 1097,-0.5 974,-0.5"/>
<text text-anchor="middle" x="1035.5" y="-7.5" font-family="Helvetica,sans-Serif" font-size="10.00">Game/src/TitleState.cpp</text>
</a>
</g>
</g>
<!-- Node20&#45;&gt;Node22 -->
<g id="edge10" class="edge"><title>Node20&#45;&gt;Node22</title>
<path fill="none" stroke="midnightblue" d="M988.773,-49.8197C1000.42,-40.1452 1015.1,-27.9481 1024.87,-19.8339"/>
<polygon fill="midnightblue" stroke="midnightblue" points="986.399,-47.2416 980.943,-56.324 990.872,-52.6259 986.399,-47.2416"/>
</g>
<!-- Node24&#45;&gt;Node20 -->
<g id="edge19" class="edge"><title>Node24&#45;&gt;Node20</title>
<path fill="none" stroke="midnightblue" d="M868.614,-182.608C898.018,-176.809 929.902,-165.348 951.5,-143 969.552,-124.32 971.244,-91.2084 970.939,-75.598"/>
<polygon fill="midnightblue" stroke="midnightblue" points="867.987,-179.165 858.756,-184.365 869.215,-186.056 867.987,-179.165"/>
</g>
<!-- Node25 -->
<g id="node14" class="node"><title>Node25</title>
<g id="a_node14"><a xlink:href="UIimageButton_8h.html" target="_top" xlink:title="Engine/include/UIimageButton.h">
<polygon fill="white" stroke="black" points="645,-118 645,-137 802,-137 802,-118 645,-118"/>
<text text-anchor="middle" x="723.5" y="-125" font-family="Helvetica,sans-Serif" font-size="10.00">Engine/include/UIimageButton.h</text>
</a>
</g>
</g>
<!-- Node24&#45;&gt;Node25 -->
<g id="edge16" class="edge"><title>Node24&#45;&gt;Node25</title>
<path fill="none" stroke="midnightblue" d="M776.568,-172.973C762.989,-161.593 744.823,-146.369 733.654,-137.009"/>
<polygon fill="midnightblue" stroke="midnightblue" points="774.415,-175.735 784.327,-179.475 778.911,-170.369 774.415,-175.735"/>
</g>
<!-- Node27 -->
<g id="node16" class="node"><title>Node27</title>
<g id="a_node16"><a xlink:href="UIimage_8cpp.html" target="_top" xlink:title="Engine/src/UIimage.cpp">
<polygon fill="white" stroke="black" points="820.5,-118 820.5,-137 942.5,-137 942.5,-118 820.5,-118"/>
<text text-anchor="middle" x="881.5" y="-125" font-family="Helvetica,sans-Serif" font-size="10.00">Engine/src/UIimage.cpp</text>
</a>
</g>
</g>
<!-- Node24&#45;&gt;Node27 -->
<g id="edge18" class="edge"><title>Node24&#45;&gt;Node27</title>
<path fill="none" stroke="midnightblue" d="M815.537,-173.613C832.27,-162.169 855.113,-146.546 869.058,-137.009"/>
<polygon fill="midnightblue" stroke="midnightblue" points="813.243,-170.941 806.965,-179.475 817.195,-176.719 813.243,-170.941"/>
</g>
<!-- Node26 -->
<g id="node15" class="node"><title>Node26</title>
<g id="a_node15"><a xlink:href="UIimageButton_8cpp.html" target="_top" xlink:title="Engine/src/UIimageButton.cpp">
<polygon fill="white" stroke="black" points="648.5,-56.5 648.5,-75.5 798.5,-75.5 798.5,-56.5 648.5,-56.5"/>
<text text-anchor="middle" x="723.5" y="-63.5" font-family="Helvetica,sans-Serif" font-size="10.00">Engine/src/UIimageButton.cpp</text>
</a>
</g>
</g>
<!-- Node25&#45;&gt;Node26 -->
<g id="edge17" class="edge"><title>Node25&#45;&gt;Node26</title>
<path fill="none" stroke="midnightblue" d="M723.5,-107.817C723.5,-96.9962 723.5,-83.898 723.5,-75.5091"/>
<polygon fill="midnightblue" stroke="midnightblue" points="720,-107.975 723.5,-117.975 727,-107.975 720,-107.975"/>
</g>
<!-- Node28&#45;&gt;Node20 -->
<g id="edge25" class="edge"><title>Node28&#45;&gt;Node20</title>
<path fill="none" stroke="midnightblue" d="M1002.75,-169.7C994.43,-143.197 979.346,-95.1688 973.208,-75.6232"/>
<polygon fill="midnightblue" stroke="midnightblue" points="999.432,-170.806 1005.77,-179.298 1006.11,-168.709 999.432,-170.806"/>
</g>
<!-- Node29 -->
<g id="node18" class="node"><title>Node29</title>
<g id="a_node18"><a xlink:href="UItextButton_8h.html" target="_top" xlink:title="Engine/include/UItextButton.h">
<polygon fill="white" stroke="black" points="1167,-118 1167,-137 1314,-137 1314,-118 1167,-118"/>
<text text-anchor="middle" x="1240.5" y="-125" font-family="Helvetica,sans-Serif" font-size="10.00">Engine/include/UItextButton.h</text>
</a>
</g>
</g>
<!-- Node28&#45;&gt;Node29 -->
<g id="edge21" class="edge"><title>Node28&#45;&gt;Node29</title>
<path fill="none" stroke="midnightblue" d="M1051.51,-176.968C1096.56,-165.415 1166.35,-147.517 1207.32,-137.009"/>
<polygon fill="midnightblue" stroke="midnightblue" points="1050.56,-173.6 1041.74,-179.475 1052.3,-180.381 1050.56,-173.6"/>
</g>
<!-- Node31 -->
<g id="node20" class="node"><title>Node31</title>
<g id="a_node20"><a xlink:href="UItext_8cpp.html" target="_top" xlink:title="Engine/src/UItext.cpp">
<polygon fill="white" stroke="black" points="1036.5,-118 1036.5,-137 1148.5,-137 1148.5,-118 1036.5,-118"/>
<text text-anchor="middle" x="1092.5" y="-125" font-family="Helvetica,sans-Serif" font-size="10.00">Engine/src/UItext.cpp</text>
</a>
</g>
</g>
<!-- Node28&#45;&gt;Node31 -->
<g id="edge24" class="edge"><title>Node28&#45;&gt;Node31</title>
<path fill="none" stroke="midnightblue" d="M1028.81,-173.613C1044.97,-162.169 1067.02,-146.546 1080.49,-137.009"/>
<polygon fill="midnightblue" stroke="midnightblue" points="1026.67,-170.839 1020.54,-179.475 1030.72,-176.551 1026.67,-170.839"/>
</g>
<!-- Node29&#45;&gt;Node20 -->
<g id="edge23" class="edge"><title>Node29&#45;&gt;Node20</title>
<path fill="none" stroke="midnightblue" d="M1191.76,-115.758C1139.38,-104.216 1057.2,-86.1056 1009.11,-75.5091"/>
<polygon fill="midnightblue" stroke="midnightblue" points="1191.3,-119.241 1201.82,-117.975 1192.8,-112.405 1191.3,-119.241"/>
</g>
<!-- Node30 -->
<g id="node19" class="node"><title>Node30</title>
<g id="a_node19"><a xlink:href="UItextButton_8cpp.html" target="_top" xlink:title="Engine/src/UItextButton.cpp">
<polygon fill="white" stroke="black" points="1170.5,-56.5 1170.5,-75.5 1310.5,-75.5 1310.5,-56.5 1170.5,-56.5"/>
<text text-anchor="middle" x="1240.5" y="-63.5" font-family="Helvetica,sans-Serif" font-size="10.00">Engine/src/UItextButton.cpp</text>
</a>
</g>
</g>
<!-- Node29&#45;&gt;Node30 -->
<g id="edge22" class="edge"><title>Node29&#45;&gt;Node30</title>
<path fill="none" stroke="midnightblue" d="M1240.5,-107.817C1240.5,-96.9962 1240.5,-83.898 1240.5,-75.5091"/>
<polygon fill="midnightblue" stroke="midnightblue" points="1237,-107.975 1240.5,-117.975 1244,-107.975 1237,-107.975"/>
</g>
</g>
</svg>
