<?xml version="1.0" encoding="UTF-8" standalone="no"?>
<!DOCTYPE svg PUBLIC "-//W3C//DTD SVG 1.1//EN"
 "http://www.w3.org/Graphics/SVG/1.1/DTD/svg11.dtd">
<!-- Generated by graphviz version 2.38.0 (20140413.2041)
 -->
<!-- Title: Engine/src/UItextButton.cpp Pages: 1 -->
<svg width="619pt" height="420pt"
 viewBox="0.00 0.00 619.28 420.00" xmlns="http://www.w3.org/2000/svg" xmlns:xlink="http://www.w3.org/1999/xlink">
<g id="graph0" class="graph" transform="scale(1 1) rotate(0) translate(4 416)">
<title>Engine/src/UItextButton.cpp</title>
<polygon fill="white" stroke="none" points="-4,4 -4,-416 615.277,-416 615.277,4 -4,4"/>
<!-- Node1 -->
<g id="node1" class="node"><title>Node1</title>
<polygon fill="#bfbfbf" stroke="black" points="393.277,-392.5 393.277,-411.5 533.277,-411.5 533.277,-392.5 393.277,-392.5"/>
<text text-anchor="middle" x="463.277" y="-399.5" font-family="Helvetica,sans-Serif" font-size="10.00">Engine/src/UItextButton.cpp</text>
</g>
<!-- Node2 -->
<g id="node2" class="node"><title>Node2</title>
<g id="a_node2"><a xlink:href="UItextButton_8h.html" target="_top" xlink:title="UItextButton.h">
<polygon fill="white" stroke="black" points="165.277,-336.5 165.277,-355.5 245.277,-355.5 245.277,-336.5 165.277,-336.5"/>
<text text-anchor="middle" x="205.277" y="-343.5" font-family="Helvetica,sans-Serif" font-size="10.00">UItextButton.h</text>
</a>
</g>
</g>
<!-- Node1&#45;&gt;Node2 -->
<g id="edge1" class="edge"><title>Node1&#45;&gt;Node2</title>
<path fill="none" stroke="midnightblue" d="M422.396,-392.444C377.161,-382.976 304.237,-367.713 255.545,-357.521"/>
<polygon fill="midnightblue" stroke="midnightblue" points="256.046,-354.05 245.542,-355.428 254.612,-360.902 256.046,-354.05"/>
</g>
<!-- Node14 -->
<g id="node14" class="node"><title>Node14</title>
<g id="a_node14"><a xlink:href="InputManager_8h.html" target="_top" xlink:title="InputManager.h">
<polygon fill="white" stroke="black" points="445.277,-112.5 445.277,-131.5 529.277,-131.5 529.277,-112.5 445.277,-112.5"/>
<text text-anchor="middle" x="487.277" y="-119.5" font-family="Helvetica,sans-Serif" font-size="10.00">InputManager.h</text>
</a>
</g>
</g>
<!-- Node1&#45;&gt;Node14 -->
<g id="edge33" class="edge"><title>Node1&#45;&gt;Node14</title>
<path fill="none" stroke="midnightblue" d="M463.277,-392.442C463.277,-373.936 463.277,-328.812 463.277,-291 463.277,-291 463.277,-291 463.277,-233 463.277,-200.059 473.678,-162.818 480.785,-141.214"/>
<polygon fill="midnightblue" stroke="midnightblue" points="484.115,-142.294 484.04,-131.699 477.492,-140.028 484.115,-142.294"/>
</g>
<!-- Node18 -->
<g id="node18" class="node"><title>Node18</title>
<g id="a_node18"><a xlink:href="Error_8h.html" target="_top" xlink:title="Error.h">
<polygon fill="white" stroke="black" points="495.277,-336.5 495.277,-355.5 541.277,-355.5 541.277,-336.5 495.277,-336.5"/>
<text text-anchor="middle" x="518.277" y="-343.5" font-family="Helvetica,sans-Serif" font-size="10.00">Error.h</text>
</a>
</g>
</g>
<!-- Node1&#45;&gt;Node18 -->
<g id="edge34" class="edge"><title>Node1&#45;&gt;Node18</title>
<path fill="none" stroke="midnightblue" d="M472.359,-392.083C480.448,-384.141 492.472,-372.335 502.187,-362.797"/>
<polygon fill="midnightblue" stroke="midnightblue" points="504.68,-365.254 509.364,-355.751 499.776,-360.26 504.68,-365.254"/>
</g>
<!-- Node3 -->
<g id="node3" class="node"><title>Node3</title>
<g id="a_node3"><a xlink:href="UItext_8h.html" target="_top" xlink:title="UItext.h">
<polygon fill="white" stroke="black" points="179.277,-280.5 179.277,-299.5 231.277,-299.5 231.277,-280.5 179.277,-280.5"/>
<text text-anchor="middle" x="205.277" y="-287.5" font-family="Helvetica,sans-Serif" font-size="10.00">UItext.h</text>
</a>
</g>
</g>
<!-- Node2&#45;&gt;Node3 -->
<g id="edge2" class="edge"><title>Node2&#45;&gt;Node3</title>
<path fill="none" stroke="midnightblue" d="M205.277,-336.083C205.277,-329.006 205.277,-318.861 205.277,-309.986"/>
<polygon fill="midnightblue" stroke="midnightblue" points="208.777,-309.751 205.277,-299.751 201.777,-309.751 208.777,-309.751"/>
</g>
<!-- Node5 -->
<g id="node5" class="node"><title>Node5</title>
<g id="a_node5"><a xlink:href="Rect_8h.html" target="_top" xlink:title="Rect.h">
<polygon fill="white" stroke="black" points="207.277,-112.5 207.277,-131.5 253.277,-131.5 253.277,-112.5 207.277,-112.5"/>
<text text-anchor="middle" x="230.277" y="-119.5" font-family="Helvetica,sans-Serif" font-size="10.00">Rect.h</text>
</a>
</g>
</g>
<!-- Node2&#45;&gt;Node5 -->
<g id="edge31" class="edge"><title>Node2&#45;&gt;Node5</title>
<path fill="none" stroke="midnightblue" d="M222.658,-336.46C250.082,-321.881 302.415,-289.315 323.277,-244 343.227,-200.662 289.098,-158.425 255.233,-137.182"/>
<polygon fill="midnightblue" stroke="midnightblue" points="256.663,-133.956 246.297,-131.764 253.033,-139.941 256.663,-133.956"/>
</g>
<!-- Node11 -->
<g id="node11" class="node"><title>Node11</title>
<polygon fill="white" stroke="#bfbfbf" points="82.7766,-112.5 82.7766,-131.5 123.777,-131.5 123.777,-112.5 82.7766,-112.5"/>
<text text-anchor="middle" x="103.277" y="-119.5" font-family="Helvetica,sans-Serif" font-size="10.00">string</text>
</g>
<!-- Node2&#45;&gt;Node11 -->
<g id="edge32" class="edge"><title>Node2&#45;&gt;Node11</title>
<path fill="none" stroke="midnightblue" d="M184.124,-336.386C140.53,-317.303 41.647,-266.82 4.27664,-188 -10.7309,-156.347 38.0871,-138.035 72.4227,-129.327"/>
<polygon fill="midnightblue" stroke="midnightblue" points="73.6055,-132.644 82.5269,-126.929 71.9889,-125.833 73.6055,-132.644"/>
</g>
<!-- Node17 -->
<g id="node17" class="node"><title>Node17</title>
<g id="a_node17"><a xlink:href="UIbutton_8h.html" target="_top" xlink:title="UIbutton.h">
<polygon fill="white" stroke="black" points="13.2766,-168.5 13.2766,-187.5 75.2766,-187.5 75.2766,-168.5 13.2766,-168.5"/>
<text text-anchor="middle" x="44.2766" y="-175.5" font-family="Helvetica,sans-Serif" font-size="10.00">UIbutton.h</text>
</a>
</g>
</g>
<!-- Node2&#45;&gt;Node17 -->
<g id="edge27" class="edge"><title>Node2&#45;&gt;Node17</title>
<path fill="none" stroke="midnightblue" d="M196.621,-336.075C170.62,-309.267 92.9551,-229.19 59.6833,-194.885"/>
<polygon fill="midnightblue" stroke="midnightblue" points="62.0613,-192.31 52.5867,-187.568 57.0364,-197.183 62.0613,-192.31"/>
</g>
<!-- Node4 -->
<g id="node4" class="node"><title>Node4</title>
<g id="a_node4"><a xlink:href="SDL__include_8h.html" target="_top" xlink:title="SDL_include.h">
<polygon fill="white" stroke="black" points="253.277,-0.5 253.277,-19.5 333.277,-19.5 333.277,-0.5 253.277,-0.5"/>
<text text-anchor="middle" x="293.277" y="-7.5" font-family="Helvetica,sans-Serif" font-size="10.00">SDL_include.h</text>
</a>
</g>
</g>
<!-- Node3&#45;&gt;Node4 -->
<g id="edge3" class="edge"><title>Node3&#45;&gt;Node4</title>
<path fill="none" stroke="midnightblue" d="M179.112,-285.485C118.151,-275.952 -25.9458,-244.962 4.27664,-168 42.0227,-71.8784 170.675,-33.2123 242.95,-18.7947"/>
<polygon fill="midnightblue" stroke="midnightblue" points="244.021,-22.1535 253.186,-16.8395 242.707,-15.2778 244.021,-22.1535"/>
</g>
<!-- Node3&#45;&gt;Node5 -->
<g id="edge4" class="edge"><title>Node3&#45;&gt;Node5</title>
<path fill="none" stroke="midnightblue" d="M207.974,-280.463C210.713,-271.478 214.882,-256.878 217.277,-244 223.947,-208.12 227.535,-165.571 229.162,-141.688"/>
<polygon fill="midnightblue" stroke="midnightblue" points="232.664,-141.777 229.809,-131.574 225.678,-141.33 232.664,-141.777"/>
</g>
<!-- Node8 -->
<g id="node8" class="node"><title>Node8</title>
<g id="a_node8"><a xlink:href="Timer_8h.html" target="_top" xlink:title="Timer.h">
<polygon fill="white" stroke="black" points="264.277,-224.5 264.277,-243.5 314.277,-243.5 314.277,-224.5 264.277,-224.5"/>
<text text-anchor="middle" x="289.277" y="-231.5" font-family="Helvetica,sans-Serif" font-size="10.00">Timer.h</text>
</a>
</g>
</g>
<!-- Node3&#45;&gt;Node8 -->
<g id="edge9" class="edge"><title>Node3&#45;&gt;Node8</title>
<path fill="none" stroke="midnightblue" d="M218.773,-280.324C231.876,-271.9 251.989,-258.971 267.384,-249.074"/>
<polygon fill="midnightblue" stroke="midnightblue" points="269.295,-252.006 275.814,-243.655 265.51,-246.118 269.295,-252.006"/>
</g>
<!-- Node9 -->
<g id="node9" class="node"><title>Node9</title>
<g id="a_node9"><a xlink:href="UIelement_8h.html" target="_top" xlink:title="UIelement.h">
<polygon fill="white" stroke="black" points="138.277,-224.5 138.277,-243.5 208.277,-243.5 208.277,-224.5 138.277,-224.5"/>
<text text-anchor="middle" x="173.277" y="-231.5" font-family="Helvetica,sans-Serif" font-size="10.00">UIelement.h</text>
</a>
</g>
</g>
<!-- Node3&#45;&gt;Node9 -->
<g id="edge10" class="edge"><title>Node3&#45;&gt;Node9</title>
<path fill="none" stroke="midnightblue" d="M199.992,-280.083C195.566,-272.613 189.113,-261.724 183.659,-252.52"/>
<polygon fill="midnightblue" stroke="midnightblue" points="186.572,-250.57 178.462,-243.751 180.55,-254.138 186.572,-250.57"/>
</g>
<!-- Node3&#45;&gt;Node11 -->
<g id="edge26" class="edge"><title>Node3&#45;&gt;Node11</title>
<path fill="none" stroke="midnightblue" d="M180.33,-280.387C163.372,-273.248 141.819,-261.423 129.277,-244 107.07,-213.151 103.139,-167.156 102.829,-141.679"/>
<polygon fill="midnightblue" stroke="midnightblue" points="106.33,-141.566 102.889,-131.546 99.33,-141.525 106.33,-141.566"/>
</g>
<!-- Node12 -->
<g id="node12" class="node"><title>Node12</title>
<polygon fill="white" stroke="#bfbfbf" points="375.277,-112.5 375.277,-131.5 427.277,-131.5 427.277,-112.5 375.277,-112.5"/>
<text text-anchor="middle" x="401.277" y="-119.5" font-family="Helvetica,sans-Serif" font-size="10.00">memory</text>
</g>
<!-- Node3&#45;&gt;Node12 -->
<g id="edge25" class="edge"><title>Node3&#45;&gt;Node12</title>
<path fill="none" stroke="midnightblue" d="M231.499,-282.243C256.364,-275.108 294.145,-262.338 323.277,-244 353.873,-224.74 363.444,-218.861 382.277,-188 390.985,-173.73 395.881,-155.26 398.513,-141.657"/>
<polygon fill="midnightblue" stroke="midnightblue" points="402.002,-142.02 400.226,-131.575 395.101,-140.848 402.002,-142.02"/>
</g>
<!-- Node5&#45;&gt;Node4 -->
<g id="edge5" class="edge"><title>Node5&#45;&gt;Node4</title>
<path fill="none" stroke="midnightblue" d="M241.619,-112.179C251.584,-103.859 265.781,-90.5244 274.277,-76 282.717,-61.5704 287.643,-43.1178 290.354,-29.5626"/>
<polygon fill="midnightblue" stroke="midnightblue" points="293.835,-29.9822 292.14,-19.5238 286.943,-28.7564 293.835,-29.9822"/>
</g>
<!-- Node6 -->
<g id="node6" class="node"><title>Node6</title>
<g id="a_node6"><a xlink:href="Vec2_8h.html" target="_top" xlink:title="Vec2.h">
<polygon fill="white" stroke="black" points="155.777,-56.5 155.777,-75.5 202.777,-75.5 202.777,-56.5 155.777,-56.5"/>
<text text-anchor="middle" x="179.277" y="-63.5" font-family="Helvetica,sans-Serif" font-size="10.00">Vec2.h</text>
</a>
</g>
</g>
<!-- Node5&#45;&gt;Node6 -->
<g id="edge6" class="edge"><title>Node5&#45;&gt;Node6</title>
<path fill="none" stroke="midnightblue" d="M221.855,-112.083C214.428,-104.22 203.425,-92.5688 194.464,-83.0813"/>
<polygon fill="midnightblue" stroke="midnightblue" points="196.952,-80.618 187.542,-75.7511 191.863,-85.4244 196.952,-80.618"/>
</g>
<!-- Node7 -->
<g id="node7" class="node"><title>Node7</title>
<polygon fill="white" stroke="#bfbfbf" points="221.277,-56.5 221.277,-75.5 265.277,-75.5 265.277,-56.5 221.277,-56.5"/>
<text text-anchor="middle" x="243.277" y="-63.5" font-family="Helvetica,sans-Serif" font-size="10.00">cmath</text>
</g>
<!-- Node5&#45;&gt;Node7 -->
<g id="edge8" class="edge"><title>Node5&#45;&gt;Node7</title>
<path fill="none" stroke="midnightblue" d="M232.423,-112.083C234.146,-104.927 236.624,-94.6353 238.777,-85.6911"/>
<polygon fill="midnightblue" stroke="midnightblue" points="242.232,-86.2925 241.17,-75.7511 235.426,-84.6541 242.232,-86.2925"/>
</g>
<!-- Node6&#45;&gt;Node4 -->
<g id="edge7" class="edge"><title>Node6&#45;&gt;Node4</title>
<path fill="none" stroke="midnightblue" d="M197.34,-56.4435C215.851,-47.6751 244.857,-33.9355 266.132,-23.8579"/>
<polygon fill="midnightblue" stroke="midnightblue" points="267.758,-26.9604 275.298,-19.5164 264.762,-20.6343 267.758,-26.9604"/>
</g>
<!-- Node9&#45;&gt;Node5 -->
<g id="edge22" class="edge"><title>Node9&#45;&gt;Node5</title>
<path fill="none" stroke="midnightblue" d="M177.749,-224.368C187.073,-206.376 208.746,-164.55 221.143,-140.627"/>
<polygon fill="midnightblue" stroke="midnightblue" points="224.331,-142.081 225.825,-131.591 218.116,-138.86 224.331,-142.081"/>
</g>
<!-- Node9&#45;&gt;Node6 -->
<g id="edge23" class="edge"><title>Node9&#45;&gt;Node6</title>
<path fill="none" stroke="midnightblue" d="M173.599,-224.075C174.544,-197.945 177.317,-121.211 178.605,-85.577"/>
<polygon fill="midnightblue" stroke="midnightblue" points="182.103,-85.688 178.967,-75.5681 175.108,-85.4351 182.103,-85.688"/>
</g>
<!-- Node10 -->
<g id="node10" class="node"><title>Node10</title>
<g id="a_node10"><a xlink:href="Sprite_8h.html" target="_top" xlink:title="Sprite.h">
<polygon fill="white" stroke="black" points="323.277,-168.5 323.277,-187.5 373.277,-187.5 373.277,-168.5 323.277,-168.5"/>
<text text-anchor="middle" x="348.277" y="-175.5" font-family="Helvetica,sans-Serif" font-size="10.00">Sprite.h</text>
</a>
</g>
</g>
<!-- Node9&#45;&gt;Node10 -->
<g id="edge11" class="edge"><title>Node9&#45;&gt;Node10</title>
<path fill="none" stroke="midnightblue" d="M201.006,-224.444C231.488,-215.038 280.509,-199.911 313.532,-189.721"/>
<polygon fill="midnightblue" stroke="midnightblue" points="314.705,-193.022 323.229,-186.729 312.641,-186.333 314.705,-193.022"/>
</g>
<!-- Node9&#45;&gt;Node11 -->
<g id="edge24" class="edge"><title>Node9&#45;&gt;Node11</title>
<path fill="none" stroke="midnightblue" d="M167.784,-224.368C156.283,-206.296 129.48,-164.176 114.29,-140.307"/>
<polygon fill="midnightblue" stroke="midnightblue" points="117.066,-138.149 108.744,-131.591 111.16,-141.907 117.066,-138.149"/>
</g>
<!-- Node10&#45;&gt;Node4 -->
<g id="edge12" class="edge"><title>Node10&#45;&gt;Node4</title>
<path fill="none" stroke="midnightblue" d="M345.657,-168.138C341.926,-155.597 334.809,-131.975 328.277,-112 318.743,-82.8446 306.929,-49.2325 299.754,-29.0736"/>
<polygon fill="midnightblue" stroke="midnightblue" points="303.035,-27.8526 296.375,-19.6122 296.442,-30.2068 303.035,-27.8526"/>
</g>
<!-- Node10&#45;&gt;Node5 -->
<g id="edge16" class="edge"><title>Node10&#45;&gt;Node5</title>
<path fill="none" stroke="midnightblue" d="M329.579,-168.444C310.332,-159.636 280.124,-145.812 258.077,-135.722"/>
<polygon fill="midnightblue" stroke="midnightblue" points="259.436,-132.495 248.887,-131.516 256.523,-138.86 259.436,-132.495"/>
</g>
<!-- Node10&#45;&gt;Node11 -->
<g id="edge13" class="edge"><title>Node10&#45;&gt;Node11</title>
<path fill="none" stroke="midnightblue" d="M322.98,-171.424C277.647,-161.433 182.746,-140.516 133.848,-129.738"/>
<polygon fill="midnightblue" stroke="midnightblue" points="134.384,-126.272 123.865,-127.538 132.877,-133.108 134.384,-126.272"/>
</g>
<!-- Node10&#45;&gt;Node12 -->
<g id="edge14" class="edge"><title>Node10&#45;&gt;Node12</title>
<path fill="none" stroke="midnightblue" d="M357.029,-168.083C364.746,-160.22 376.181,-148.569 385.493,-139.081"/>
<polygon fill="midnightblue" stroke="midnightblue" points="388.181,-141.34 392.688,-131.751 383.185,-136.436 388.181,-141.34"/>
</g>
<!-- Node13 -->
<g id="node13" class="node"><title>Node13</title>
<g id="a_node13"><a xlink:href="Color_8h.html" target="_top" xlink:title="Color.h">
<polygon fill="white" stroke="black" points="271.277,-112.5 271.277,-131.5 319.277,-131.5 319.277,-112.5 271.277,-112.5"/>
<text text-anchor="middle" x="295.277" y="-119.5" font-family="Helvetica,sans-Serif" font-size="10.00">Color.h</text>
</a>
</g>
</g>
<!-- Node10&#45;&gt;Node13 -->
<g id="edge15" class="edge"><title>Node10&#45;&gt;Node13</title>
<path fill="none" stroke="midnightblue" d="M339.525,-168.083C331.807,-160.22 320.372,-148.569 311.06,-139.081"/>
<polygon fill="midnightblue" stroke="midnightblue" points="313.368,-136.436 303.866,-131.751 308.372,-141.34 313.368,-136.436"/>
</g>
<!-- Node10&#45;&gt;Node14 -->
<g id="edge17" class="edge"><title>Node10&#45;&gt;Node14</title>
<path fill="none" stroke="midnightblue" d="M370.302,-168.444C393.381,-159.478 429.839,-145.314 455.917,-135.183"/>
<polygon fill="midnightblue" stroke="midnightblue" points="457.301,-138.4 465.355,-131.516 454.766,-131.875 457.301,-138.4"/>
</g>
<!-- Node14&#45;&gt;Node4 -->
<g id="edge18" class="edge"><title>Node14&#45;&gt;Node4</title>
<path fill="none" stroke="midnightblue" d="M472.054,-112.368C438.48,-93.3318 357.853,-47.6153 317.351,-24.6505"/>
<polygon fill="midnightblue" stroke="midnightblue" points="318.854,-21.4792 308.429,-19.5914 315.401,-27.5685 318.854,-21.4792"/>
</g>
<!-- Node14&#45;&gt;Node6 -->
<g id="edge19" class="edge"><title>Node14&#45;&gt;Node6</title>
<path fill="none" stroke="midnightblue" d="M445.261,-113.533C442.221,-113.009 439.202,-112.493 436.277,-112 339.954,-95.7617 312.533,-97.1856 212.87,-75.9242"/>
<polygon fill="midnightblue" stroke="midnightblue" points="213.508,-72.4814 202.995,-73.7944 212.032,-79.3241 213.508,-72.4814"/>
</g>
<!-- Node15 -->
<g id="node15" class="node"><title>Node15</title>
<polygon fill="white" stroke="#bfbfbf" points="515.777,-56.5 515.777,-75.5 598.777,-75.5 598.777,-56.5 515.777,-56.5"/>
<text text-anchor="middle" x="557.277" y="-63.5" font-family="Helvetica,sans-Serif" font-size="10.00">unordered_map</text>
</g>
<!-- Node14&#45;&gt;Node15 -->
<g id="edge20" class="edge"><title>Node14&#45;&gt;Node15</title>
<path fill="none" stroke="midnightblue" d="M498.523,-112.324C509.074,-104.185 525.077,-91.8395 537.719,-82.0874"/>
<polygon fill="midnightblue" stroke="midnightblue" points="540.045,-84.7132 545.825,-75.8339 535.77,-79.1707 540.045,-84.7132"/>
</g>
<!-- Node16 -->
<g id="node16" class="node"><title>Node16</title>
<polygon fill="white" stroke="#bfbfbf" points="451.277,-56.5 451.277,-75.5 497.277,-75.5 497.277,-56.5 451.277,-56.5"/>
<text text-anchor="middle" x="474.277" y="-63.5" font-family="Helvetica,sans-Serif" font-size="10.00">cstdint</text>
</g>
<!-- Node14&#45;&gt;Node16 -->
<g id="edge21" class="edge"><title>Node14&#45;&gt;Node16</title>
<path fill="none" stroke="midnightblue" d="M485.13,-112.083C483.407,-104.927 480.93,-94.6353 478.776,-85.6911"/>
<polygon fill="midnightblue" stroke="midnightblue" points="482.127,-84.6541 476.383,-75.7511 475.321,-86.2925 482.127,-84.6541"/>
</g>
<!-- Node17&#45;&gt;Node5 -->
<g id="edge28" class="edge"><title>Node17&#45;&gt;Node5</title>
<path fill="none" stroke="midnightblue" d="M73.7489,-168.444C107.406,-158.672 162.326,-142.727 197.359,-132.557"/>
<polygon fill="midnightblue" stroke="midnightblue" points="198.485,-135.874 207.113,-129.725 196.533,-129.152 198.485,-135.874"/>
</g>
<!-- Node17&#45;&gt;Node6 -->
<g id="edge29" class="edge"><title>Node17&#45;&gt;Node6</title>
<path fill="none" stroke="midnightblue" d="M46.0184,-168.248C49.1699,-154.54 57.0539,-127.93 73.2766,-112 93.1581,-92.4768 122.81,-80.8734 145.702,-74.353"/>
<polygon fill="midnightblue" stroke="midnightblue" points="146.602,-77.7354 155.366,-71.7831 144.803,-70.9705 146.602,-77.7354"/>
</g>
<!-- Node17&#45;&gt;Node11 -->
<g id="edge30" class="edge"><title>Node17&#45;&gt;Node11</title>
<path fill="none" stroke="midnightblue" d="M53.756,-168.324C62.4777,-160.341 75.6201,-148.313 86.1744,-138.653"/>
<polygon fill="midnightblue" stroke="midnightblue" points="88.6111,-141.167 93.6248,-131.834 83.885,-136.004 88.6111,-141.167"/>
</g>
<!-- Node19 -->
<g id="node19" class="node"><title>Node19</title>
<polygon fill="white" stroke="#bfbfbf" points="491.277,-280.5 491.277,-299.5 545.277,-299.5 545.277,-280.5 491.277,-280.5"/>
<text text-anchor="middle" x="518.277" y="-287.5" font-family="Helvetica,sans-Serif" font-size="10.00">iostream</text>
</g>
<!-- Node18&#45;&gt;Node19 -->
<g id="edge35" class="edge"><title>Node18&#45;&gt;Node19</title>
<path fill="none" stroke="midnightblue" d="M518.277,-336.083C518.277,-329.006 518.277,-318.861 518.277,-309.986"/>
<polygon fill="midnightblue" stroke="midnightblue" points="521.777,-309.751 518.277,-299.751 514.777,-309.751 521.777,-309.751"/>
</g>
<!-- Node20 -->
<g id="node20" class="node"><title>Node20</title>
<polygon fill="white" stroke="#bfbfbf" points="563.277,-280.5 563.277,-299.5 611.277,-299.5 611.277,-280.5 563.277,-280.5"/>
<text text-anchor="middle" x="587.277" y="-287.5" font-family="Helvetica,sans-Serif" font-size="10.00">stdlib.h</text>
</g>
<!-- Node18&#45;&gt;Node20 -->
<g id="edge36" class="edge"><title>Node18&#45;&gt;Node20</title>
<path fill="none" stroke="midnightblue" d="M529.363,-336.324C539.763,-328.185 555.537,-315.839 567.998,-306.087"/>
<polygon fill="midnightblue" stroke="midnightblue" points="570.271,-308.753 575.989,-299.834 565.957,-303.241 570.271,-308.753"/>
</g>
</g>
</svg>
