<?xml version="1.0" encoding="UTF-8" standalone="no"?>
<!DOCTYPE svg PUBLIC "-//W3C//DTD SVG 1.1//EN"
 "http://www.w3.org/Graphics/SVG/1.1/DTD/svg11.dtd">
<!-- Generated by graphviz version 2.38.0 (20140413.2041)
 -->
<!-- Title: Engine/src/UItext.cpp Pages: 1 -->
<svg width="1009pt" height="364pt"
 viewBox="0.00 0.00 1009.00 364.00" xmlns="http://www.w3.org/2000/svg" xmlns:xlink="http://www.w3.org/1999/xlink">
<g id="graph0" class="graph" transform="scale(1 1) rotate(0) translate(4 360)">
<title>Engine/src/UItext.cpp</title>
<polygon fill="white" stroke="none" points="-4,4 -4,-360 1005,-360 1005,4 -4,4"/>
<!-- Node1 -->
<g id="node1" class="node"><title>Node1</title>
<polygon fill="#bfbfbf" stroke="black" points="486,-336.5 486,-355.5 598,-355.5 598,-336.5 486,-336.5"/>
<text text-anchor="middle" x="542" y="-343.5" font-family="Helvetica,sans-Serif" font-size="10.00">Engine/src/UItext.cpp</text>
</g>
<!-- Node2 -->
<g id="node2" class="node"><title>Node2</title>
<g id="a_node2"><a xlink:href="UItext_8h.html" target="_top" xlink:title="UItext.h">
<polygon fill="white" stroke="black" points="595,-280.5 595,-299.5 647,-299.5 647,-280.5 595,-280.5"/>
<text text-anchor="middle" x="621" y="-287.5" font-family="Helvetica,sans-Serif" font-size="10.00">UItext.h</text>
</a>
</g>
</g>
<!-- Node1&#45;&gt;Node2 -->
<g id="edge1" class="edge"><title>Node1&#45;&gt;Node2</title>
<path fill="none" stroke="midnightblue" d="M554.693,-336.324C566.901,-327.979 585.578,-315.212 600.003,-305.352"/>
<polygon fill="midnightblue" stroke="midnightblue" points="602.058,-308.187 608.339,-299.655 598.108,-302.408 602.058,-308.187"/>
</g>
<!-- Node16 -->
<g id="node16" class="node"><title>Node16</title>
<g id="a_node16"><a xlink:href="Resources_8h.html" target="_top" xlink:title="Resources.h">
<polygon fill="white" stroke="black" points="220,-168.5 220,-187.5 292,-187.5 292,-168.5 220,-168.5"/>
<text text-anchor="middle" x="256" y="-175.5" font-family="Helvetica,sans-Serif" font-size="10.00">Resources.h</text>
</a>
</g>
</g>
<!-- Node1&#45;&gt;Node16 -->
<g id="edge26" class="edge"><title>Node1&#45;&gt;Node16</title>
<path fill="none" stroke="midnightblue" d="M485.791,-343.722C417.354,-338.778 304.322,-318.949 251,-244 241.38,-230.478 244.42,-211.122 248.774,-197.052"/>
<polygon fill="midnightblue" stroke="midnightblue" points="252.115,-198.101 252.171,-187.506 245.521,-195.753 252.115,-198.101"/>
</g>
<!-- Node17 -->
<g id="node17" class="node"><title>Node17</title>
<g id="a_node17"><a xlink:href="Game_8h.html" target="_top" xlink:title="Game.h">
<polygon fill="white" stroke="black" points="446.5,-280.5 446.5,-299.5 497.5,-299.5 497.5,-280.5 446.5,-280.5"/>
<text text-anchor="middle" x="472" y="-287.5" font-family="Helvetica,sans-Serif" font-size="10.00">Game.h</text>
</a>
</g>
</g>
<!-- Node1&#45;&gt;Node17 -->
<g id="edge31" class="edge"><title>Node1&#45;&gt;Node17</title>
<path fill="none" stroke="midnightblue" d="M530.753,-336.324C520.203,-328.185 504.199,-315.839 491.558,-306.087"/>
<polygon fill="midnightblue" stroke="midnightblue" points="493.507,-303.171 483.451,-299.834 489.231,-308.713 493.507,-303.171"/>
</g>
<!-- Node24 -->
<g id="node24" class="node"><title>Node24</title>
<g id="a_node24"><a xlink:href="Error_8h.html" target="_top" xlink:title="Error.h">
<polygon fill="white" stroke="black" points="882,-280.5 882,-299.5 928,-299.5 928,-280.5 882,-280.5"/>
<text text-anchor="middle" x="905" y="-287.5" font-family="Helvetica,sans-Serif" font-size="10.00">Error.h</text>
</a>
</g>
</g>
<!-- Node1&#45;&gt;Node24 -->
<g id="edge52" class="edge"><title>Node1&#45;&gt;Node24</title>
<path fill="none" stroke="midnightblue" d="M598.32,-336.622C674.938,-325.224 809.582,-305.194 871.78,-295.942"/>
<polygon fill="midnightblue" stroke="midnightblue" points="872.446,-299.381 881.822,-294.448 871.416,-292.458 872.446,-299.381"/>
</g>
<!-- Node3 -->
<g id="node3" class="node"><title>Node3</title>
<g id="a_node3"><a xlink:href="SDL__include_8h.html" target="_top" xlink:title="SDL_include.h">
<polygon fill="white" stroke="black" points="499,-0.5 499,-19.5 579,-19.5 579,-0.5 499,-0.5"/>
<text text-anchor="middle" x="539" y="-7.5" font-family="Helvetica,sans-Serif" font-size="10.00">SDL_include.h</text>
</a>
</g>
</g>
<!-- Node2&#45;&gt;Node3 -->
<g id="edge2" class="edge"><title>Node2&#45;&gt;Node3</title>
<path fill="none" stroke="midnightblue" d="M619.367,-280.104C616.994,-267.523 612.294,-243.854 607,-224 587.604,-151.259 558.57,-66.4878 545.632,-29.6605"/>
<polygon fill="midnightblue" stroke="midnightblue" points="548.793,-28.1004 542.162,-19.837 542.193,-30.4318 548.793,-28.1004"/>
</g>
<!-- Node4 -->
<g id="node4" class="node"><title>Node4</title>
<g id="a_node4"><a xlink:href="Rect_8h.html" target="_top" xlink:title="Rect.h">
<polygon fill="white" stroke="black" points="796,-112.5 796,-131.5 842,-131.5 842,-112.5 796,-112.5"/>
<text text-anchor="middle" x="819" y="-119.5" font-family="Helvetica,sans-Serif" font-size="10.00">Rect.h</text>
</a>
</g>
</g>
<!-- Node2&#45;&gt;Node4 -->
<g id="edge3" class="edge"><title>Node2&#45;&gt;Node4</title>
<path fill="none" stroke="midnightblue" d="M647.167,-287.456C698.782,-283.808 810.732,-272.697 834,-244 858.009,-214.389 840.814,-166.557 828.507,-140.795"/>
<polygon fill="midnightblue" stroke="midnightblue" points="831.598,-139.152 823.972,-131.797 825.347,-142.303 831.598,-139.152"/>
</g>
<!-- Node7 -->
<g id="node7" class="node"><title>Node7</title>
<g id="a_node7"><a xlink:href="Timer_8h.html" target="_top" xlink:title="Timer.h">
<polygon fill="white" stroke="black" points="687,-224.5 687,-243.5 737,-243.5 737,-224.5 687,-224.5"/>
<text text-anchor="middle" x="712" y="-231.5" font-family="Helvetica,sans-Serif" font-size="10.00">Timer.h</text>
</a>
</g>
</g>
<!-- Node2&#45;&gt;Node7 -->
<g id="edge8" class="edge"><title>Node2&#45;&gt;Node7</title>
<path fill="none" stroke="midnightblue" d="M635.621,-280.324C649.949,-271.822 672.013,-258.729 688.749,-248.797"/>
<polygon fill="midnightblue" stroke="midnightblue" points="690.602,-251.768 697.416,-243.655 687.03,-245.748 690.602,-251.768"/>
</g>
<!-- Node8 -->
<g id="node8" class="node"><title>Node8</title>
<g id="a_node8"><a xlink:href="UIelement_8h.html" target="_top" xlink:title="UIelement.h">
<polygon fill="white" stroke="black" points="755,-224.5 755,-243.5 825,-243.5 825,-224.5 755,-224.5"/>
<text text-anchor="middle" x="790" y="-231.5" font-family="Helvetica,sans-Serif" font-size="10.00">UIelement.h</text>
</a>
</g>
</g>
<!-- Node2&#45;&gt;Node8 -->
<g id="edge9" class="edge"><title>Node2&#45;&gt;Node8</title>
<path fill="none" stroke="midnightblue" d="M647.036,-280.681C675.526,-271.578 721.407,-256.917 753.486,-246.667"/>
<polygon fill="midnightblue" stroke="midnightblue" points="754.916,-249.885 763.377,-243.507 752.786,-243.217 754.916,-249.885"/>
</g>
<!-- Node10 -->
<g id="node10" class="node"><title>Node10</title>
<polygon fill="white" stroke="#bfbfbf" points="518.5,-112.5 518.5,-131.5 559.5,-131.5 559.5,-112.5 518.5,-112.5"/>
<text text-anchor="middle" x="539" y="-119.5" font-family="Helvetica,sans-Serif" font-size="10.00">string</text>
</g>
<!-- Node2&#45;&gt;Node10 -->
<g id="edge25" class="edge"><title>Node2&#45;&gt;Node10</title>
<path fill="none" stroke="midnightblue" d="M616.591,-280.075C603.572,-253.719 565.12,-175.878 547.724,-140.661"/>
<polygon fill="midnightblue" stroke="midnightblue" points="550.799,-138.984 543.232,-131.568 544.523,-142.084 550.799,-138.984"/>
</g>
<!-- Node11 -->
<g id="node11" class="node"><title>Node11</title>
<polygon fill="white" stroke="#bfbfbf" points="308,-112.5 308,-131.5 360,-131.5 360,-112.5 308,-112.5"/>
<text text-anchor="middle" x="334" y="-119.5" font-family="Helvetica,sans-Serif" font-size="10.00">memory</text>
</g>
<!-- Node2&#45;&gt;Node11 -->
<g id="edge24" class="edge"><title>Node2&#45;&gt;Node11</title>
<path fill="none" stroke="midnightblue" d="M605.974,-280.309C558.994,-253.136 414.63,-169.636 357.565,-136.63"/>
<polygon fill="midnightblue" stroke="midnightblue" points="359.286,-133.582 348.878,-131.605 355.781,-139.642 359.286,-133.582"/>
</g>
<!-- Node4&#45;&gt;Node3 -->
<g id="edge4" class="edge"><title>Node4&#45;&gt;Node3</title>
<path fill="none" stroke="midnightblue" d="M813.062,-112.241C802.928,-98.0258 780.861,-70.1033 755,-56 703.054,-27.6706 635.154,-17.145 589.466,-13.252"/>
<polygon fill="midnightblue" stroke="midnightblue" points="589.452,-9.74057 579.211,-12.4578 588.911,-16.7197 589.452,-9.74057"/>
</g>
<!-- Node5 -->
<g id="node5" class="node"><title>Node5</title>
<g id="a_node5"><a xlink:href="Vec2_8h.html" target="_top" xlink:title="Vec2.h">
<polygon fill="white" stroke="black" points="699.5,-56.5 699.5,-75.5 746.5,-75.5 746.5,-56.5 699.5,-56.5"/>
<text text-anchor="middle" x="723" y="-63.5" font-family="Helvetica,sans-Serif" font-size="10.00">Vec2.h</text>
</a>
</g>
</g>
<!-- Node4&#45;&gt;Node5 -->
<g id="edge5" class="edge"><title>Node4&#45;&gt;Node5</title>
<path fill="none" stroke="midnightblue" d="M803.576,-112.324C788.46,-103.822 765.185,-90.7288 747.529,-80.7975"/>
<polygon fill="midnightblue" stroke="midnightblue" points="748.817,-77.5066 738.386,-75.6545 745.386,-83.6077 748.817,-77.5066"/>
</g>
<!-- Node6 -->
<g id="node6" class="node"><title>Node6</title>
<polygon fill="white" stroke="#bfbfbf" points="803,-56.5 803,-75.5 847,-75.5 847,-56.5 803,-56.5"/>
<text text-anchor="middle" x="825" y="-63.5" font-family="Helvetica,sans-Serif" font-size="10.00">cmath</text>
</g>
<!-- Node4&#45;&gt;Node6 -->
<g id="edge7" class="edge"><title>Node4&#45;&gt;Node6</title>
<path fill="none" stroke="midnightblue" d="M819.991,-112.083C820.786,-104.927 821.929,-94.6353 822.923,-85.6911"/>
<polygon fill="midnightblue" stroke="midnightblue" points="826.402,-86.0765 824.028,-75.7511 819.445,-85.3034 826.402,-86.0765"/>
</g>
<!-- Node5&#45;&gt;Node3 -->
<g id="edge6" class="edge"><title>Node5&#45;&gt;Node3</title>
<path fill="none" stroke="midnightblue" d="M699.322,-58.051C668.625,-49.042 614.679,-33.21 577.918,-22.4217"/>
<polygon fill="midnightblue" stroke="midnightblue" points="578.62,-18.9802 568.04,-19.5225 576.649,-25.6969 578.62,-18.9802"/>
</g>
<!-- Node8&#45;&gt;Node4 -->
<g id="edge21" class="edge"><title>Node8&#45;&gt;Node4</title>
<path fill="none" stroke="midnightblue" d="M792.276,-224.368C796.977,-206.537 807.849,-165.295 814.183,-141.272"/>
<polygon fill="midnightblue" stroke="midnightblue" points="817.57,-142.153 816.735,-131.591 810.801,-140.369 817.57,-142.153"/>
</g>
<!-- Node8&#45;&gt;Node5 -->
<g id="edge22" class="edge"><title>Node8&#45;&gt;Node5</title>
<path fill="none" stroke="midnightblue" d="M786.978,-224.406C779.915,-204.471 761.589,-153.607 744,-112 740.134,-102.854 735.496,-92.8297 731.563,-84.5681"/>
<polygon fill="midnightblue" stroke="midnightblue" points="734.708,-83.0327 727.215,-75.5427 728.402,-86.0708 734.708,-83.0327"/>
</g>
<!-- Node9 -->
<g id="node9" class="node"><title>Node9</title>
<g id="a_node9"><a xlink:href="Sprite_8h.html" target="_top" xlink:title="Sprite.h">
<polygon fill="white" stroke="black" points="652,-168.5 652,-187.5 702,-187.5 702,-168.5 652,-168.5"/>
<text text-anchor="middle" x="677" y="-175.5" font-family="Helvetica,sans-Serif" font-size="10.00">Sprite.h</text>
</a>
</g>
</g>
<!-- Node8&#45;&gt;Node9 -->
<g id="edge10" class="edge"><title>Node8&#45;&gt;Node9</title>
<path fill="none" stroke="midnightblue" d="M772.095,-224.444C753.746,-215.675 724.995,-201.935 703.906,-191.858"/>
<polygon fill="midnightblue" stroke="midnightblue" points="705.353,-188.67 694.821,-187.516 702.335,-194.986 705.353,-188.67"/>
</g>
<!-- Node8&#45;&gt;Node10 -->
<g id="edge23" class="edge"><title>Node8&#45;&gt;Node10</title>
<path fill="none" stroke="midnightblue" d="M754.905,-225.013C724.519,-217.456 679.791,-204.776 643,-188 611.949,-173.841 579.012,-151.932 558.723,-137.528"/>
<polygon fill="midnightblue" stroke="midnightblue" points="560.754,-134.677 550.593,-131.675 556.664,-140.358 560.754,-134.677"/>
</g>
<!-- Node9&#45;&gt;Node3 -->
<g id="edge11" class="edge"><title>Node9&#45;&gt;Node3</title>
<path fill="none" stroke="midnightblue" d="M670.348,-168.222C663.674,-159.285 653.232,-144.942 645,-132 624.171,-99.2535 627.959,-84.8494 602,-56 590.931,-43.6986 575.937,-32.8213 563.354,-24.8435"/>
<polygon fill="midnightblue" stroke="midnightblue" points="565.068,-21.789 554.708,-19.5679 561.422,-27.7644 565.068,-21.789"/>
</g>
<!-- Node9&#45;&gt;Node4 -->
<g id="edge15" class="edge"><title>Node9&#45;&gt;Node4</title>
<path fill="none" stroke="midnightblue" d="M699.5,-168.444C723.077,-159.478 760.322,-145.314 786.964,-135.183"/>
<polygon fill="midnightblue" stroke="midnightblue" points="788.502,-138.342 796.605,-131.516 786.014,-131.8 788.502,-138.342"/>
</g>
<!-- Node9&#45;&gt;Node10 -->
<g id="edge12" class="edge"><title>Node9&#45;&gt;Node10</title>
<path fill="none" stroke="midnightblue" d="M655.133,-168.444C631.951,-159.372 595.171,-144.98 569.224,-134.827"/>
<polygon fill="midnightblue" stroke="midnightblue" points="570.449,-131.548 559.861,-131.163 567.898,-138.066 570.449,-131.548"/>
</g>
<!-- Node9&#45;&gt;Node11 -->
<g id="edge13" class="edge"><title>Node9&#45;&gt;Node11</title>
<path fill="none" stroke="midnightblue" d="M651.691,-174.229C600.407,-168.417 480.411,-153.817 370.249,-132.073"/>
<polygon fill="midnightblue" stroke="midnightblue" points="370.796,-128.613 360.304,-130.084 369.424,-135.477 370.796,-128.613"/>
</g>
<!-- Node12 -->
<g id="node12" class="node"><title>Node12</title>
<g id="a_node12"><a xlink:href="Color_8h.html" target="_top" xlink:title="Color.h">
<polygon fill="white" stroke="black" points="654,-112.5 654,-131.5 702,-131.5 702,-112.5 654,-112.5"/>
<text text-anchor="middle" x="678" y="-119.5" font-family="Helvetica,sans-Serif" font-size="10.00">Color.h</text>
</a>
</g>
</g>
<!-- Node9&#45;&gt;Node12 -->
<g id="edge14" class="edge"><title>Node9&#45;&gt;Node12</title>
<path fill="none" stroke="midnightblue" d="M677.165,-168.083C677.296,-161.006 677.484,-150.861 677.648,-141.986"/>
<polygon fill="midnightblue" stroke="midnightblue" points="681.152,-141.814 677.838,-131.751 674.153,-141.685 681.152,-141.814"/>
</g>
<!-- Node13 -->
<g id="node13" class="node"><title>Node13</title>
<g id="a_node13"><a xlink:href="InputManager_8h.html" target="_top" xlink:title="InputManager.h">
<polygon fill="white" stroke="black" points="378,-112.5 378,-131.5 462,-131.5 462,-112.5 378,-112.5"/>
<text text-anchor="middle" x="420" y="-119.5" font-family="Helvetica,sans-Serif" font-size="10.00">InputManager.h</text>
</a>
</g>
</g>
<!-- Node9&#45;&gt;Node13 -->
<g id="edge16" class="edge"><title>Node9&#45;&gt;Node13</title>
<path fill="none" stroke="midnightblue" d="M651.89,-171.724C610.036,-162.93 525.223,-145.109 470.591,-133.63"/>
<polygon fill="midnightblue" stroke="midnightblue" points="471.264,-130.195 460.758,-131.564 469.824,-137.045 471.264,-130.195"/>
</g>
<!-- Node13&#45;&gt;Node3 -->
<g id="edge17" class="edge"><title>Node13&#45;&gt;Node3</title>
<path fill="none" stroke="midnightblue" d="M426.314,-112.428C436.122,-99.4203 455.98,-74.2783 476,-56 488.541,-44.5506 504.047,-33.4424 516.537,-25.127"/>
<polygon fill="midnightblue" stroke="midnightblue" points="518.548,-27.994 525.014,-19.6007 514.725,-22.1301 518.548,-27.994"/>
</g>
<!-- Node13&#45;&gt;Node5 -->
<g id="edge18" class="edge"><title>Node13&#45;&gt;Node5</title>
<path fill="none" stroke="midnightblue" d="M462.131,-113.492C522.778,-102.683 633.494,-82.9515 689.153,-73.0321"/>
<polygon fill="midnightblue" stroke="midnightblue" points="689.97,-76.4418 699.2,-71.2415 688.741,-69.5504 689.97,-76.4418"/>
</g>
<!-- Node14 -->
<g id="node14" class="node"><title>Node14</title>
<polygon fill="white" stroke="#bfbfbf" points="273.5,-56.5 273.5,-75.5 356.5,-75.5 356.5,-56.5 273.5,-56.5"/>
<text text-anchor="middle" x="315" y="-63.5" font-family="Helvetica,sans-Serif" font-size="10.00">unordered_map</text>
</g>
<!-- Node13&#45;&gt;Node14 -->
<g id="edge19" class="edge"><title>Node13&#45;&gt;Node14</title>
<path fill="none" stroke="midnightblue" d="M403.13,-112.324C386.291,-103.664 360.193,-90.2424 340.762,-80.249"/>
<polygon fill="midnightblue" stroke="midnightblue" points="342.322,-77.1155 331.828,-75.6545 339.12,-83.3405 342.322,-77.1155"/>
</g>
<!-- Node15 -->
<g id="node15" class="node"><title>Node15</title>
<polygon fill="white" stroke="#bfbfbf" points="378,-56.5 378,-75.5 424,-75.5 424,-56.5 378,-56.5"/>
<text text-anchor="middle" x="401" y="-63.5" font-family="Helvetica,sans-Serif" font-size="10.00">cstdint</text>
</g>
<!-- Node13&#45;&gt;Node15 -->
<g id="edge20" class="edge"><title>Node13&#45;&gt;Node15</title>
<path fill="none" stroke="midnightblue" d="M416.863,-112.083C414.317,-104.849 410.644,-94.4087 407.473,-85.3968"/>
<polygon fill="midnightblue" stroke="midnightblue" points="410.7,-84.0225 404.079,-75.7511 404.097,-86.3459 410.7,-84.0225"/>
</g>
<!-- Node16&#45;&gt;Node3 -->
<g id="edge27" class="edge"><title>Node16&#45;&gt;Node3</title>
<path fill="none" stroke="midnightblue" d="M253.371,-168.311C247.309,-146.321 234.985,-87.9492 264,-56 293.334,-23.7002 417.859,-14.5765 488.867,-12.0048"/>
<polygon fill="midnightblue" stroke="midnightblue" points="489.06,-15.5004 498.938,-11.6709 488.828,-8.50426 489.06,-15.5004"/>
</g>
<!-- Node16&#45;&gt;Node10 -->
<g id="edge28" class="edge"><title>Node16&#45;&gt;Node10</title>
<path fill="none" stroke="midnightblue" d="M292.13,-170.106C348.31,-159.386 455.617,-138.911 508.289,-128.86"/>
<polygon fill="midnightblue" stroke="midnightblue" points="509.196,-132.25 518.363,-126.938 507.884,-125.374 509.196,-132.25"/>
</g>
<!-- Node16&#45;&gt;Node11 -->
<g id="edge30" class="edge"><title>Node16&#45;&gt;Node11</title>
<path fill="none" stroke="midnightblue" d="M268.532,-168.324C280.586,-159.979 299.027,-147.212 313.269,-137.352"/>
<polygon fill="midnightblue" stroke="midnightblue" points="315.269,-140.224 321.499,-131.655 311.285,-134.469 315.269,-140.224"/>
</g>
<!-- Node16&#45;&gt;Node14 -->
<g id="edge29" class="edge"><title>Node16&#45;&gt;Node14</title>
<path fill="none" stroke="midnightblue" d="M260.63,-168.368C270.28,-150.376 292.714,-108.55 305.546,-84.6267"/>
<polygon fill="midnightblue" stroke="midnightblue" points="308.75,-86.0582 310.392,-75.5914 302.581,-82.7495 308.75,-86.0582"/>
</g>
<!-- Node17&#45;&gt;Node3 -->
<g id="edge51" class="edge"><title>Node17&#45;&gt;Node3</title>
<path fill="none" stroke="midnightblue" d="M473.524,-280.469C478.162,-254.821 492.779,-176.223 509,-112 516.37,-82.8205 526.659,-49.4289 533.07,-29.2925"/>
<polygon fill="midnightblue" stroke="midnightblue" points="536.464,-30.1715 536.19,-19.5802 529.799,-28.0306 536.464,-30.1715"/>
</g>
<!-- Node17&#45;&gt;Node5 -->
<g id="edge50" class="edge"><title>Node17&#45;&gt;Node5</title>
<path fill="none" stroke="midnightblue" d="M497.756,-286.527C548.071,-280.194 659.036,-258.541 711,-188 733.249,-157.797 730.392,-111.221 726.563,-85.5566"/>
<polygon fill="midnightblue" stroke="midnightblue" points="730.006,-84.928 724.877,-75.6574 723.106,-86.103 730.006,-84.928"/>
</g>
<!-- Node17&#45;&gt;Node10 -->
<g id="edge32" class="edge"><title>Node17&#45;&gt;Node10</title>
<path fill="none" stroke="midnightblue" d="M475.602,-280.075C486.194,-253.832 517.388,-176.545 531.688,-141.117"/>
<polygon fill="midnightblue" stroke="midnightblue" points="535.045,-142.151 535.542,-131.568 528.553,-139.531 535.045,-142.151"/>
</g>
<!-- Node17&#45;&gt;Node13 -->
<g id="edge49" class="edge"><title>Node17&#45;&gt;Node13</title>
<path fill="none" stroke="midnightblue" d="M469.204,-280.075C460.984,-253.832 436.773,-176.545 425.675,-141.117"/>
<polygon fill="midnightblue" stroke="midnightblue" points="429.013,-140.065 422.684,-131.568 422.333,-142.157 429.013,-140.065"/>
</g>
<!-- Node18 -->
<g id="node18" class="node"><title>Node18</title>
<polygon fill="white" stroke="#bfbfbf" points="326.5,-224.5 326.5,-243.5 367.5,-243.5 367.5,-224.5 326.5,-224.5"/>
<text text-anchor="middle" x="347" y="-231.5" font-family="Helvetica,sans-Serif" font-size="10.00">stack</text>
</g>
<!-- Node17&#45;&gt;Node18 -->
<g id="edge33" class="edge"><title>Node17&#45;&gt;Node18</title>
<path fill="none" stroke="midnightblue" d="M452.193,-280.444C431.713,-271.596 399.517,-257.687 376.135,-247.586"/>
<polygon fill="midnightblue" stroke="midnightblue" points="377.282,-244.269 366.714,-243.516 374.506,-250.695 377.282,-244.269"/>
</g>
<!-- Node19 -->
<g id="node19" class="node"><title>Node19</title>
<g id="a_node19"><a xlink:href="State_8h.html" target="_top" xlink:title="State.h">
<polygon fill="white" stroke="black" points="260,-224.5 260,-243.5 308,-243.5 308,-224.5 260,-224.5"/>
<text text-anchor="middle" x="284" y="-231.5" font-family="Helvetica,sans-Serif" font-size="10.00">State.h</text>
</a>
</g>
</g>
<!-- Node17&#45;&gt;Node19 -->
<g id="edge34" class="edge"><title>Node17&#45;&gt;Node19</title>
<path fill="none" stroke="midnightblue" d="M446.254,-281.605C412.978,-272.047 354.945,-255.378 318.052,-244.781"/>
<polygon fill="midnightblue" stroke="midnightblue" points="318.823,-241.361 308.245,-241.964 316.89,-248.089 318.823,-241.361"/>
</g>
<!-- Node19&#45;&gt;Node11 -->
<g id="edge36" class="edge"><title>Node19&#45;&gt;Node11</title>
<path fill="none" stroke="midnightblue" d="M287.923,-224.368C296.065,-206.456 314.944,-164.923 325.842,-140.948"/>
<polygon fill="midnightblue" stroke="midnightblue" points="329.143,-142.143 330.095,-131.591 322.77,-139.247 329.143,-142.143"/>
</g>
<!-- Node19&#45;&gt;Node13 -->
<g id="edge37" class="edge"><title>Node19&#45;&gt;Node13</title>
<path fill="none" stroke="midnightblue" d="M294.672,-224.368C317.711,-205.733 372.36,-161.532 401.289,-138.134"/>
<polygon fill="midnightblue" stroke="midnightblue" points="403.804,-140.601 409.378,-131.591 399.402,-135.159 403.804,-140.601"/>
</g>
<!-- Node19&#45;&gt;Node16 -->
<g id="edge38" class="edge"><title>Node19&#45;&gt;Node16</title>
<path fill="none" stroke="midnightblue" d="M279.376,-224.083C275.544,-216.691 269.976,-205.953 265.235,-196.811"/>
<polygon fill="midnightblue" stroke="midnightblue" points="268.248,-195.018 260.538,-187.751 262.034,-198.24 268.248,-195.018"/>
</g>
<!-- Node20 -->
<g id="node20" class="node"><title>Node20</title>
<polygon fill="white" stroke="#bfbfbf" points="0,-112.5 0,-131.5 44,-131.5 44,-112.5 0,-112.5"/>
<text text-anchor="middle" x="22" y="-119.5" font-family="Helvetica,sans-Serif" font-size="10.00">vector</text>
</g>
<!-- Node19&#45;&gt;Node20 -->
<g id="edge35" class="edge"><title>Node19&#45;&gt;Node20</title>
<path fill="none" stroke="midnightblue" d="M259.826,-229.478C225.815,-223.902 162.466,-211.215 113,-188 85.0573,-174.887 56.7242,-152.992 39.2626,-138.28"/>
<polygon fill="midnightblue" stroke="midnightblue" points="41.4783,-135.569 31.6133,-131.705 36.9153,-140.878 41.4783,-135.569"/>
</g>
<!-- Node21 -->
<g id="node21" class="node"><title>Node21</title>
<g id="a_node21"><a xlink:href="GameObject_8h.html" target="_top" xlink:title="GameObject.h">
<polygon fill="white" stroke="black" points="122,-168.5 122,-187.5 202,-187.5 202,-168.5 122,-168.5"/>
<text text-anchor="middle" x="162" y="-175.5" font-family="Helvetica,sans-Serif" font-size="10.00">GameObject.h</text>
</a>
</g>
</g>
<!-- Node19&#45;&gt;Node21 -->
<g id="edge39" class="edge"><title>Node19&#45;&gt;Node21</title>
<path fill="none" stroke="midnightblue" d="M264.669,-224.444C244.68,-215.596 213.257,-201.687 190.436,-191.586"/>
<polygon fill="midnightblue" stroke="midnightblue" points="191.802,-188.363 181.241,-187.516 188.968,-194.764 191.802,-188.363"/>
</g>
<!-- Node21&#45;&gt;Node3 -->
<g id="edge40" class="edge"><title>Node21&#45;&gt;Node3</title>
<path fill="none" stroke="midnightblue" d="M166.963,-168.422C181.72,-143.221 225.739,-70.2834 249,-56 288.21,-31.9232 416.448,-19.4204 488.572,-14.1448"/>
<polygon fill="midnightblue" stroke="midnightblue" points="489.062,-17.6188 498.788,-13.4183 488.565,-10.6365 489.062,-17.6188"/>
</g>
<!-- Node21&#45;&gt;Node4 -->
<g id="edge48" class="edge"><title>Node21&#45;&gt;Node4</title>
<path fill="none" stroke="midnightblue" d="M202.055,-169.273C205.076,-168.804 208.083,-168.372 211,-168 432.01,-139.833 488.871,-149.251 711,-132 736.034,-130.056 764.317,-127.693 785.658,-125.876"/>
<polygon fill="midnightblue" stroke="midnightblue" points="786.166,-129.345 795.832,-125.007 785.57,-122.371 786.166,-129.345"/>
</g>
<!-- Node21&#45;&gt;Node10 -->
<g id="edge43" class="edge"><title>Node21&#45;&gt;Node10</title>
<path fill="none" stroke="midnightblue" d="M202.086,-169.485C205.1,-168.966 208.096,-168.466 211,-168 240.007,-163.349 431.877,-137.426 507.98,-127.174"/>
<polygon fill="midnightblue" stroke="midnightblue" points="508.892,-130.583 518.335,-125.78 507.957,-123.646 508.892,-130.583"/>
</g>
<!-- Node21&#45;&gt;Node11 -->
<g id="edge42" class="edge"><title>Node21&#45;&gt;Node11</title>
<path fill="none" stroke="midnightblue" d="M189.254,-168.444C218.785,-159.172 266.017,-144.343 298.446,-134.162"/>
<polygon fill="midnightblue" stroke="midnightblue" points="299.507,-137.498 308,-131.163 297.41,-130.819 299.507,-137.498"/>
</g>
<!-- Node21&#45;&gt;Node20 -->
<g id="edge41" class="edge"><title>Node21&#45;&gt;Node20</title>
<path fill="none" stroke="midnightblue" d="M139.817,-168.444C116.572,-159.478 79.8512,-145.314 53.5848,-135.183"/>
<polygon fill="midnightblue" stroke="midnightblue" points="54.6692,-131.85 44.0796,-131.516 52.1501,-138.381 54.6692,-131.85"/>
</g>
<!-- Node22 -->
<g id="node22" class="node"><title>Node22</title>
<g id="a_node22"><a xlink:href="Component_8h.html" target="_top" xlink:title="Component.h">
<polygon fill="white" stroke="black" points="100.5,-112.5 100.5,-131.5 175.5,-131.5 175.5,-112.5 100.5,-112.5"/>
<text text-anchor="middle" x="138" y="-119.5" font-family="Helvetica,sans-Serif" font-size="10.00">Component.h</text>
</a>
</g>
</g>
<!-- Node21&#45;&gt;Node22 -->
<g id="edge44" class="edge"><title>Node21&#45;&gt;Node22</title>
<path fill="none" stroke="midnightblue" d="M152.871,-168.083C148.129,-160.849 143.066,-150.409 139.741,-141.397"/>
<polygon fill="midnightblue" stroke="midnightblue" points="143.056,-140.271 136.758,-131.751 136.368,-142.339 143.056,-140.271"/>
</g>
<!-- Node23 -->
<g id="node23" class="node"><title>Node23</title>
<g id="a_node23"><a xlink:href="ComponentType_8h.html" target="_top" xlink:title="ComponentType.h">
<polygon fill="white" stroke="black" points="51.5,-56.5 51.5,-75.5 148.5,-75.5 148.5,-56.5 51.5,-56.5"/>
<text text-anchor="middle" x="100" y="-63.5" font-family="Helvetica,sans-Serif" font-size="10.00">ComponentType.h</text>
</a>
</g>
</g>
<!-- Node21&#45;&gt;Node23 -->
<g id="edge47" class="edge"><title>Node21&#45;&gt;Node23</title>
<path fill="none" stroke="midnightblue" d="M136.839,-168.378C120.581,-161.343 100.707,-149.645 91,-132 83.036,-117.524 86.9843,-98.5877 91.9036,-84.8915"/>
<polygon fill="midnightblue" stroke="midnightblue" points="95.157,-86.1821 95.6735,-75.5999 88.6706,-83.5503 95.157,-86.1821"/>
</g>
<!-- Node22&#45;&gt;Node21 -->
<g id="edge46" class="edge"><title>Node22&#45;&gt;Node21</title>
<path fill="none" stroke="midnightblue" d="M147.02,-131.751C151.757,-138.936 156.831,-149.362 160.183,-158.396"/>
<polygon fill="midnightblue" stroke="midnightblue" points="156.885,-159.578 163.203,-168.083 163.568,-157.494 156.885,-159.578"/>
</g>
<!-- Node22&#45;&gt;Node23 -->
<g id="edge45" class="edge"><title>Node22&#45;&gt;Node23</title>
<path fill="none" stroke="midnightblue" d="M131.725,-112.083C126.358,-104.455 118.482,-93.2645 111.921,-83.9408"/>
<polygon fill="midnightblue" stroke="midnightblue" points="114.775,-81.9149 106.158,-75.7511 109.051,-85.9434 114.775,-81.9149"/>
</g>
<!-- Node25 -->
<g id="node25" class="node"><title>Node25</title>
<polygon fill="white" stroke="#bfbfbf" points="947,-224.5 947,-243.5 1001,-243.5 1001,-224.5 947,-224.5"/>
<text text-anchor="middle" x="974" y="-231.5" font-family="Helvetica,sans-Serif" font-size="10.00">iostream</text>
</g>
<!-- Node24&#45;&gt;Node25 -->
<g id="edge53" class="edge"><title>Node24&#45;&gt;Node25</title>
<path fill="none" stroke="midnightblue" d="M916.086,-280.324C926.486,-272.185 942.261,-259.839 954.722,-250.087"/>
<polygon fill="midnightblue" stroke="midnightblue" points="956.994,-252.753 962.712,-243.834 952.68,-247.241 956.994,-252.753"/>
</g>
<!-- Node26 -->
<g id="node26" class="node"><title>Node26</title>
<polygon fill="white" stroke="#bfbfbf" points="881,-224.5 881,-243.5 929,-243.5 929,-224.5 881,-224.5"/>
<text text-anchor="middle" x="905" y="-231.5" font-family="Helvetica,sans-Serif" font-size="10.00">stdlib.h</text>
</g>
<!-- Node24&#45;&gt;Node26 -->
<g id="edge54" class="edge"><title>Node24&#45;&gt;Node26</title>
<path fill="none" stroke="midnightblue" d="M905,-280.083C905,-273.006 905,-262.861 905,-253.986"/>
<polygon fill="midnightblue" stroke="midnightblue" points="908.5,-253.751 905,-243.751 901.5,-253.751 908.5,-253.751"/>
</g>
</g>
</svg>
