<?xml version="1.0" encoding="UTF-8" standalone="no"?>
<!DOCTYPE svg PUBLIC "-//W3C//DTD SVG 1.1//EN"
 "http://www.w3.org/Graphics/SVG/1.1/DTD/svg11.dtd">
<!-- Generated by graphviz version 2.38.0 (20140413.2041)
 -->
<!-- Title: Engine/include/Vec2.h Pages: 1 -->
<svg width="2045pt" height="420pt"
 viewBox="0.00 0.00 2044.50 420.00" xmlns="http://www.w3.org/2000/svg" xmlns:xlink="http://www.w3.org/1999/xlink">
<g id="graph0" class="graph" transform="scale(1 1) rotate(0) translate(4 416)">
<title>Engine/include/Vec2.h</title>
<polygon fill="white" stroke="none" points="-4,4 -4,-416 2040.5,-416 2040.5,4 -4,4"/>
<!-- Node1 -->
<g id="node1" class="node"><title>Node1</title>
<polygon fill="#bfbfbf" stroke="black" points="1218,-392.5 1218,-411.5 1332,-411.5 1332,-392.5 1218,-392.5"/>
<text text-anchor="middle" x="1275" y="-399.5" font-family="Helvetica,sans-Serif" font-size="10.00">Engine/include/Vec2.h</text>
</g>
<!-- Node2 -->
<g id="node2" class="node"><title>Node2</title>
<g id="a_node2"><a xlink:href="Rect_8h.html" target="_top" xlink:title="Engine/include/Rect.h">
<polygon fill="white" stroke="black" points="649.5,-336.5 649.5,-355.5 762.5,-355.5 762.5,-336.5 649.5,-336.5"/>
<text text-anchor="middle" x="706" y="-343.5" font-family="Helvetica,sans-Serif" font-size="10.00">Engine/include/Rect.h</text>
</a>
</g>
</g>
<!-- Node1&#45;&gt;Node2 -->
<g id="edge1" class="edge"><title>Node1&#45;&gt;Node2</title>
<path fill="none" stroke="midnightblue" d="M1207.57,-394.601C1094.4,-383.86 868.252,-362.398 762.703,-352.381"/>
<polygon fill="midnightblue" stroke="midnightblue" points="1207.55,-398.114 1217.84,-395.575 1208.21,-391.146 1207.55,-398.114"/>
</g>
<!-- Node11 -->
<g id="node11" class="node"><title>Node11</title>
<g id="a_node11"><a xlink:href="Camera_8h.html" target="_top" xlink:title="Engine/include/Camera.h">
<polygon fill="white" stroke="black" points="916,-168.5 916,-187.5 1042,-187.5 1042,-168.5 916,-168.5"/>
<text text-anchor="middle" x="979" y="-175.5" font-family="Helvetica,sans-Serif" font-size="10.00">Engine/include/Camera.h</text>
</a>
</g>
</g>
<!-- Node1&#45;&gt;Node11 -->
<g id="edge59" class="edge"><title>Node1&#45;&gt;Node11</title>
<path fill="none" stroke="midnightblue" d="M1252.63,-387.122C1210.98,-360.949 1119.34,-301.727 1048,-244 1024.97,-225.366 1000.21,-200.801 987.544,-187.858"/>
<polygon fill="midnightblue" stroke="midnightblue" points="1250.85,-390.141 1261.19,-392.478 1254.57,-384.207 1250.85,-390.141"/>
</g>
<!-- Node17 -->
<g id="node17" class="node"><title>Node17</title>
<g id="a_node17"><a xlink:href="TileMap_8h.html" target="_top" xlink:title="Engine/include/TileMap.h">
<polygon fill="white" stroke="black" points="707,-224.5 707,-243.5 833,-243.5 833,-224.5 707,-224.5"/>
<text text-anchor="middle" x="770" y="-231.5" font-family="Helvetica,sans-Serif" font-size="10.00">Engine/include/TileMap.h</text>
</a>
</g>
</g>
<!-- Node1&#45;&gt;Node17 -->
<g id="edge60" class="edge"><title>Node1&#45;&gt;Node17</title>
<path fill="none" stroke="midnightblue" d="M1207.92,-398.148C1148.68,-393.845 1060.81,-383.055 989,-356 929.924,-333.742 924.534,-310.022 869,-280 842.925,-265.904 811.597,-252.172 791.267,-243.66"/>
<polygon fill="midnightblue" stroke="midnightblue" points="1207.69,-401.64 1217.91,-398.831 1208.17,-394.656 1207.69,-401.64"/>
</g>
<!-- Node24 -->
<g id="node24" class="node"><title>Node24</title>
<g id="a_node24"><a xlink:href="Game_8h.html" target="_top" xlink:title="Engine/include/Game.h">
<polygon fill="white" stroke="black" points="1448,-168.5 1448,-187.5 1566,-187.5 1566,-168.5 1448,-168.5"/>
<text text-anchor="middle" x="1507" y="-175.5" font-family="Helvetica,sans-Serif" font-size="10.00">Engine/include/Game.h</text>
</a>
</g>
</g>
<!-- Node1&#45;&gt;Node24 -->
<g id="edge70" class="edge"><title>Node1&#45;&gt;Node24</title>
<path fill="none" stroke="midnightblue" d="M1310.31,-388.816C1363.52,-368.335 1462.55,-321.471 1505,-244 1514.87,-225.98 1511.72,-200.729 1509.07,-187.637"/>
<polygon fill="midnightblue" stroke="midnightblue" points="1308.76,-385.661 1300.62,-392.448 1311.21,-392.216 1308.76,-385.661"/>
</g>
<!-- Node35 -->
<g id="node35" class="node"><title>Node35</title>
<g id="a_node35"><a xlink:href="InputManager_8h.html" target="_top" xlink:title="Engine/include/InputManager.h">
<polygon fill="white" stroke="black" points="1344.5,-224.5 1344.5,-243.5 1495.5,-243.5 1495.5,-224.5 1344.5,-224.5"/>
<text text-anchor="middle" x="1420" y="-231.5" font-family="Helvetica,sans-Serif" font-size="10.00">Engine/include/InputManager.h</text>
</a>
</g>
</g>
<!-- Node1&#45;&gt;Node35 -->
<g id="edge61" class="edge"><title>Node1&#45;&gt;Node35</title>
<path fill="none" stroke="midnightblue" d="M1289.67,-384.21C1320.19,-349.264 1389.61,-269.787 1412.52,-243.568"/>
<polygon fill="midnightblue" stroke="midnightblue" points="1286.74,-382.241 1282.8,-392.075 1292.01,-386.846 1286.74,-382.241"/>
</g>
<!-- Node37 -->
<g id="node37" class="node"><title>Node37</title>
<g id="a_node37"><a xlink:href="Vec2_8cpp.html" target="_top" xlink:title="Engine/src/Vec2.cpp">
<polygon fill="white" stroke="black" points="1590.5,-336.5 1590.5,-355.5 1697.5,-355.5 1697.5,-336.5 1590.5,-336.5"/>
<text text-anchor="middle" x="1644" y="-343.5" font-family="Helvetica,sans-Serif" font-size="10.00">Engine/src/Vec2.cpp</text>
</a>
</g>
</g>
<!-- Node1&#45;&gt;Node37 -->
<g id="edge71" class="edge"><title>Node1&#45;&gt;Node37</title>
<path fill="none" stroke="midnightblue" d="M1342.47,-391.127C1413.72,-380.7 1524.63,-364.469 1590.22,-354.871"/>
<polygon fill="midnightblue" stroke="midnightblue" points="1341.64,-387.711 1332.25,-392.622 1342.65,-394.637 1341.64,-387.711"/>
</g>
<!-- Node3 -->
<g id="node3" class="node"><title>Node3</title>
<g id="a_node3"><a xlink:href="Gameobject_8h.html" target="_top" xlink:title="Engine/include/Gameobject.h">
<polygon fill="white" stroke="black" points="508,-280.5 508,-299.5 652,-299.5 652,-280.5 508,-280.5"/>
<text text-anchor="middle" x="580" y="-287.5" font-family="Helvetica,sans-Serif" font-size="10.00">Engine/include/Gameobject.h</text>
</a>
</g>
</g>
<!-- Node2&#45;&gt;Node3 -->
<g id="edge2" class="edge"><title>Node2&#45;&gt;Node3</title>
<path fill="none" stroke="midnightblue" d="M676.84,-332.503C653.219,-322.38 620.572,-308.388 599.872,-299.516"/>
<polygon fill="midnightblue" stroke="midnightblue" points="675.465,-335.721 686.035,-336.444 678.222,-329.287 675.465,-335.721"/>
</g>
<!-- Node22 -->
<g id="node22" class="node"><title>Node22</title>
<g id="a_node22"><a xlink:href="Face_8h.html" target="_top" xlink:title="Game/include/Face.h">
<polygon fill="white" stroke="black" points="234,-168.5 234,-187.5 344,-187.5 344,-168.5 234,-168.5"/>
<text text-anchor="middle" x="289" y="-175.5" font-family="Helvetica,sans-Serif" font-size="10.00">Game/include/Face.h</text>
</a>
</g>
</g>
<!-- Node2&#45;&gt;Node22 -->
<g id="edge58" class="edge"><title>Node2&#45;&gt;Node22</title>
<path fill="none" stroke="midnightblue" d="M638.991,-343.053C505.563,-337.615 214.222,-317.416 153,-244 126.352,-212.044 185.269,-194.709 233.742,-186.16"/>
<polygon fill="midnightblue" stroke="midnightblue" points="638.961,-346.554 649.09,-343.448 639.235,-339.56 638.961,-346.554"/>
</g>
<!-- Node25 -->
<g id="node25" class="node"><title>Node25</title>
<g id="a_node25"><a xlink:href="Text_8h.html" target="_top" xlink:title="Engine/include/Text.h">
<polygon fill="white" stroke="black" points="1925.5,-112.5 1925.5,-131.5 2036.5,-131.5 2036.5,-112.5 1925.5,-112.5"/>
<text text-anchor="middle" x="1981" y="-119.5" font-family="Helvetica,sans-Serif" font-size="10.00">Engine/include/Text.h</text>
</a>
</g>
</g>
<!-- Node2&#45;&gt;Node25 -->
<g id="edge56" class="edge"><title>Node2&#45;&gt;Node25</title>
<path fill="none" stroke="midnightblue" d="M772.711,-341.745C946.892,-331.925 1428.52,-296.276 1813,-188 1868.69,-172.317 1931.63,-145.356 1962.25,-131.607"/>
<polygon fill="midnightblue" stroke="midnightblue" points="772.462,-338.253 762.671,-342.301 772.849,-345.243 772.462,-338.253"/>
</g>
<!-- Node33 -->
<g id="node33" class="node"><title>Node33</title>
<g id="a_node33"><a xlink:href="Collision_8h.html" target="_top" xlink:title="Engine/include/Collision.h">
<polygon fill="white" stroke="black" points="731.5,-280.5 731.5,-299.5 860.5,-299.5 860.5,-280.5 731.5,-280.5"/>
<text text-anchor="middle" x="796" y="-287.5" font-family="Helvetica,sans-Serif" font-size="10.00">Engine/include/Collision.h</text>
</a>
</g>
</g>
<!-- Node2&#45;&gt;Node33 -->
<g id="edge54" class="edge"><title>Node2&#45;&gt;Node33</title>
<path fill="none" stroke="midnightblue" d="M729.038,-331.177C745.599,-321.241 767.418,-308.149 781.576,-299.655"/>
<polygon fill="midnightblue" stroke="midnightblue" points="727.234,-328.178 720.46,-336.324 730.836,-334.18 727.234,-328.178"/>
</g>
<!-- Node34 -->
<g id="node34" class="node"><title>Node34</title>
<g id="a_node34"><a xlink:href="Rect_8cpp.html" target="_top" xlink:title="Engine/src/Rect.cpp">
<polygon fill="white" stroke="black" points="0,-280.5 0,-299.5 106,-299.5 106,-280.5 0,-280.5"/>
<text text-anchor="middle" x="53" y="-287.5" font-family="Helvetica,sans-Serif" font-size="10.00">Engine/src/Rect.cpp</text>
</a>
</g>
</g>
<!-- Node2&#45;&gt;Node34 -->
<g id="edge57" class="edge"><title>Node2&#45;&gt;Node34</title>
<path fill="none" stroke="midnightblue" d="M639.152,-341.108C530.232,-334.488 307.756,-319.803 120,-300 115.565,-299.532 110.97,-299.005 106.361,-298.446"/>
<polygon fill="midnightblue" stroke="midnightblue" points="639.14,-344.614 649.333,-341.724 639.563,-337.627 639.14,-344.614"/>
</g>
<!-- Node4 -->
<g id="node4" class="node"><title>Node4</title>
<g id="a_node4"><a xlink:href="Animation_8h.html" target="_top" xlink:title="Engine/include/Animation.h">
<polygon fill="white" stroke="black" points="162.5,-224.5 162.5,-243.5 297.5,-243.5 297.5,-224.5 162.5,-224.5"/>
<text text-anchor="middle" x="230" y="-231.5" font-family="Helvetica,sans-Serif" font-size="10.00">Engine/include/Animation.h</text>
</a>
</g>
</g>
<!-- Node3&#45;&gt;Node4 -->
<g id="edge3" class="edge"><title>Node3&#45;&gt;Node4</title>
<path fill="none" stroke="midnightblue" d="M514.645,-278.917C448.523,-268.715 347.428,-253.117 285.199,-243.516"/>
<polygon fill="midnightblue" stroke="midnightblue" points="514.125,-282.378 524.541,-280.444 515.192,-275.46 514.125,-282.378"/>
</g>
<!-- Node6 -->
<g id="node6" class="node"><title>Node6</title>
<g id="a_node6"><a xlink:href="Component_8h.html" target="_top" xlink:title="Engine/include/Component.h">
<polygon fill="white" stroke="black" points="509,-224.5 509,-243.5 651,-243.5 651,-224.5 509,-224.5"/>
<text text-anchor="middle" x="580" y="-231.5" font-family="Helvetica,sans-Serif" font-size="10.00">Engine/include/Component.h</text>
</a>
</g>
</g>
<!-- Node3&#45;&gt;Node6 -->
<g id="edge5" class="edge"><title>Node3&#45;&gt;Node6</title>
<path fill="none" stroke="midnightblue" d="M573.528,-270.101C572.896,-261.136 573.343,-250.858 574.869,-243.751"/>
<polygon fill="midnightblue" stroke="midnightblue" points="570.066,-270.622 574.834,-280.083 577.007,-269.713 570.066,-270.622"/>
</g>
<!-- Node3&#45;&gt;Node11 -->
<g id="edge11" class="edge"><title>Node3&#45;&gt;Node11</title>
<path fill="none" stroke="midnightblue" d="M662.376,-280.7C714.678,-274.008 783.321,-262.573 842,-244 888.684,-229.223 939.851,-201.606 964.343,-187.608"/>
<polygon fill="midnightblue" stroke="midnightblue" points="661.632,-277.266 652.142,-281.976 662.498,-284.212 661.632,-277.266"/>
</g>
<!-- Node3&#45;&gt;Node17 -->
<g id="edge20" class="edge"><title>Node3&#45;&gt;Node17</title>
<path fill="none" stroke="midnightblue" d="M619.764,-277.699C655.623,-267.507 707.571,-252.743 740.035,-243.516"/>
<polygon fill="midnightblue" stroke="midnightblue" points="618.768,-274.343 610.106,-280.444 620.682,-281.076 618.768,-274.343"/>
</g>
<!-- Node18 -->
<g id="node18" class="node"><title>Node18</title>
<g id="a_node18"><a xlink:href="StageState_8h.html" target="_top" xlink:title="Game/include/StageState.h">
<polygon fill="white" stroke="black" points="684.5,-168.5 684.5,-187.5 821.5,-187.5 821.5,-168.5 684.5,-168.5"/>
<text text-anchor="middle" x="753" y="-175.5" font-family="Helvetica,sans-Serif" font-size="10.00">Game/include/StageState.h</text>
</a>
</g>
</g>
<!-- Node3&#45;&gt;Node18 -->
<g id="edge52" class="edge"><title>Node3&#45;&gt;Node18</title>
<path fill="none" stroke="midnightblue" d="M605.411,-275.532C621.322,-266.897 642.124,-255.237 660,-244 690.186,-225.025 724.177,-200.389 741.503,-187.582"/>
<polygon fill="midnightblue" stroke="midnightblue" points="603.353,-272.665 596.206,-280.486 606.67,-278.828 603.353,-272.665"/>
</g>
<!-- Node19 -->
<g id="node19" class="node"><title>Node19</title>
<g id="a_node19"><a xlink:href="EndState_8h.html" target="_top" xlink:title="Game/include/EndState.h">
<polygon fill="white" stroke="black" points="399,-56.5 399,-75.5 527,-75.5 527,-56.5 399,-56.5"/>
<text text-anchor="middle" x="463" y="-63.5" font-family="Helvetica,sans-Serif" font-size="10.00">Game/include/EndState.h</text>
</a>
</g>
</g>
<!-- Node3&#45;&gt;Node19 -->
<g id="edge51" class="edge"><title>Node3&#45;&gt;Node19</title>
<path fill="none" stroke="midnightblue" d="M497.847,-286.071C380.365,-281.036 175.928,-268.795 153,-244 113.16,-200.915 111.571,-156.349 150,-112 181.547,-75.5927 316.942,-67.9544 398.974,-66.7506"/>
<polygon fill="midnightblue" stroke="midnightblue" points="497.753,-289.57 507.891,-286.493 498.047,-282.576 497.753,-289.57"/>
</g>
<!-- Node3&#45;&gt;Node22 -->
<g id="edge53" class="edge"><title>Node3&#45;&gt;Node22</title>
<path fill="none" stroke="midnightblue" d="M556.022,-275.494C524.152,-257.606 470.708,-227.854 461,-224 419.115,-207.372 369.061,-195.074 333.779,-187.575"/>
<polygon fill="midnightblue" stroke="midnightblue" points="554.335,-278.56 564.767,-280.408 557.764,-272.458 554.335,-278.56"/>
</g>
<!-- Node23 -->
<g id="node23" class="node"><title>Node23</title>
<g id="a_node23"><a xlink:href="State_8h.html" target="_top" xlink:title="Engine/include/State.h">
<polygon fill="white" stroke="black" points="1056.5,-224.5 1056.5,-243.5 1171.5,-243.5 1171.5,-224.5 1056.5,-224.5"/>
<text text-anchor="middle" x="1114" y="-231.5" font-family="Helvetica,sans-Serif" font-size="10.00">Engine/include/State.h</text>
</a>
</g>
</g>
<!-- Node3&#45;&gt;Node23 -->
<g id="edge32" class="edge"><title>Node3&#45;&gt;Node23</title>
<path fill="none" stroke="midnightblue" d="M661.987,-280.709C771.014,-269.684 961.005,-250.471 1056.19,-240.846"/>
<polygon fill="midnightblue" stroke="midnightblue" points="661.615,-277.229 652.018,-281.717 662.319,-284.193 661.615,-277.229"/>
</g>
<!-- Node32 -->
<g id="node32" class="node"><title>Node32</title>
<g id="a_node32"><a xlink:href="Gameobject_8cpp.html" target="_top" xlink:title="Engine/src/Gameobject.cpp">
<polygon fill="white" stroke="black" points="315.5,-224.5 315.5,-243.5 452.5,-243.5 452.5,-224.5 315.5,-224.5"/>
<text text-anchor="middle" x="384" y="-231.5" font-family="Helvetica,sans-Serif" font-size="10.00">Engine/src/Gameobject.cpp</text>
</a>
</g>
</g>
<!-- Node3&#45;&gt;Node32 -->
<g id="edge50" class="edge"><title>Node3&#45;&gt;Node32</title>
<path fill="none" stroke="midnightblue" d="M538.98,-277.699C501.989,-267.507 448.4,-252.743 414.911,-243.516"/>
<polygon fill="midnightblue" stroke="midnightblue" points="538.373,-281.162 548.943,-280.444 540.232,-274.413 538.373,-281.162"/>
</g>
<!-- Node5 -->
<g id="node5" class="node"><title>Node5</title>
<g id="a_node5"><a xlink:href="Animation_8cpp.html" target="_top" xlink:title="Engine/src/Animation.cpp">
<polygon fill="white" stroke="black" points="159,-112.5 159,-131.5 287,-131.5 287,-112.5 159,-112.5"/>
<text text-anchor="middle" x="223" y="-119.5" font-family="Helvetica,sans-Serif" font-size="10.00">Engine/src/Animation.cpp</text>
</a>
</g>
</g>
<!-- Node4&#45;&gt;Node5 -->
<g id="edge4" class="edge"><title>Node4&#45;&gt;Node5</title>
<path fill="none" stroke="midnightblue" d="M227.575,-214.225C226.622,-206.165 225.611,-196.634 225,-188 223.58,-167.954 223.168,-144.36 223.048,-131.843"/>
<polygon fill="midnightblue" stroke="midnightblue" points="224.132,-214.899 228.837,-224.392 231.078,-214.037 224.132,-214.899"/>
</g>
<!-- Node6&#45;&gt;Node3 -->
<g id="edge6" class="edge"><title>Node6&#45;&gt;Node3</title>
<path fill="none" stroke="midnightblue" d="M586.458,-253.691C587.106,-262.635 586.676,-272.927 585.166,-280.083"/>
<polygon fill="midnightblue" stroke="midnightblue" points="589.923,-253.2 585.131,-243.751 582.985,-254.126 589.923,-253.2"/>
</g>
<!-- Node7 -->
<g id="node7" class="node"><title>Node7</title>
<g id="a_node7"><a xlink:href="DragAndDrop_8h.html" target="_top" xlink:title="Engine/include/DragAndDrop.h">
<polygon fill="white" stroke="black" points="515.5,-168.5 515.5,-187.5 666.5,-187.5 666.5,-168.5 515.5,-168.5"/>
<text text-anchor="middle" x="591" y="-175.5" font-family="Helvetica,sans-Serif" font-size="10.00">Engine/include/DragAndDrop.h</text>
</a>
</g>
</g>
<!-- Node6&#45;&gt;Node7 -->
<g id="edge7" class="edge"><title>Node6&#45;&gt;Node7</title>
<path fill="none" stroke="midnightblue" d="M583.85,-214.101C585.676,-205.136 587.77,-194.858 589.217,-187.751"/>
<polygon fill="midnightblue" stroke="midnightblue" points="580.383,-213.586 581.816,-224.083 587.242,-214.983 580.383,-213.586"/>
</g>
<!-- Node10 -->
<g id="node10" class="node"><title>Node10</title>
<g id="a_node10"><a xlink:href="Component_8cpp.html" target="_top" xlink:title="Engine/src/Component.cpp">
<polygon fill="white" stroke="black" points="362.5,-168.5 362.5,-187.5 497.5,-187.5 497.5,-168.5 362.5,-168.5"/>
<text text-anchor="middle" x="430" y="-175.5" font-family="Helvetica,sans-Serif" font-size="10.00">Engine/src/Component.cpp</text>
</a>
</g>
</g>
<!-- Node6&#45;&gt;Node10 -->
<g id="edge10" class="edge"><title>Node6&#45;&gt;Node10</title>
<path fill="none" stroke="midnightblue" d="M546.775,-221.039C518.552,-210.879 478.738,-196.546 453.657,-187.516"/>
<polygon fill="midnightblue" stroke="midnightblue" points="545.638,-224.349 556.232,-224.444 548.009,-217.763 545.638,-224.349"/>
</g>
<!-- Node8 -->
<g id="node8" class="node"><title>Node8</title>
<g id="a_node8"><a xlink:href="DragAndDrop_8cpp.html" target="_top" xlink:title="Engine/src/DragAndDrop.cpp">
<polygon fill="white" stroke="black" points="648,-112.5 648,-131.5 792,-131.5 792,-112.5 648,-112.5"/>
<text text-anchor="middle" x="720" y="-119.5" font-family="Helvetica,sans-Serif" font-size="10.00">Engine/src/DragAndDrop.cpp</text>
</a>
</g>
</g>
<!-- Node7&#45;&gt;Node8 -->
<g id="edge8" class="edge"><title>Node7&#45;&gt;Node8</title>
<path fill="none" stroke="midnightblue" d="M620.854,-164.503C645.038,-154.38 678.462,-140.388 699.655,-131.516"/>
<polygon fill="midnightblue" stroke="midnightblue" points="619.313,-161.354 611.44,-168.444 622.016,-167.811 619.313,-161.354"/>
</g>
<!-- Node9 -->
<g id="node9" class="node"><title>Node9</title>
<g id="a_node9"><a xlink:href="Face_8cpp.html" target="_top" xlink:title="Game/src/Face.cpp">
<polygon fill="white" stroke="black" points="322.5,-112.5 322.5,-131.5 425.5,-131.5 425.5,-112.5 322.5,-112.5"/>
<text text-anchor="middle" x="374" y="-119.5" font-family="Helvetica,sans-Serif" font-size="10.00">Game/src/Face.cpp</text>
</a>
</g>
</g>
<!-- Node7&#45;&gt;Node9 -->
<g id="edge9" class="edge"><title>Node7&#45;&gt;Node9</title>
<path fill="none" stroke="midnightblue" d="M546.892,-166.024C505.9,-155.823 445.696,-140.841 408.223,-131.516"/>
<polygon fill="midnightblue" stroke="midnightblue" points="546.066,-169.425 556.616,-168.444 547.757,-162.632 546.066,-169.425"/>
</g>
<!-- Node11&#45;&gt;Node5 -->
<g id="edge12" class="edge"><title>Node11&#45;&gt;Node5</title>
<path fill="none" stroke="midnightblue" d="M905.426,-172.329C757.01,-162.858 426.271,-141.488 313,-132 304.706,-131.305 295.989,-130.513 287.38,-129.692"/>
<polygon fill="midnightblue" stroke="midnightblue" points="905.588,-175.847 915.791,-172.99 906.034,-168.861 905.588,-175.847"/>
</g>
<!-- Node11&#45;&gt;Node8 -->
<g id="edge14" class="edge"><title>Node11&#45;&gt;Node8</title>
<path fill="none" stroke="midnightblue" d="M927.898,-166.346C878.952,-156.141 806.046,-140.94 760.847,-131.516"/>
<polygon fill="midnightblue" stroke="midnightblue" points="927.457,-169.829 937.961,-168.444 928.886,-162.976 927.457,-169.829"/>
</g>
<!-- Node11&#45;&gt;Node9 -->
<g id="edge18" class="edge"><title>Node11&#45;&gt;Node9</title>
<path fill="none" stroke="midnightblue" d="M905.803,-170.467C781.726,-159.392 533.122,-137.203 425.558,-127.602"/>
<polygon fill="midnightblue" stroke="midnightblue" points="905.695,-173.971 915.967,-171.374 906.317,-166.999 905.695,-173.971"/>
</g>
<!-- Node12 -->
<g id="node12" class="node"><title>Node12</title>
<g id="a_node12"><a xlink:href="Camera_8cpp.html" target="_top" xlink:title="Engine/src/Camera.cpp">
<polygon fill="white" stroke="black" points="1749.5,-112.5 1749.5,-131.5 1868.5,-131.5 1868.5,-112.5 1749.5,-112.5"/>
<text text-anchor="middle" x="1809" y="-119.5" font-family="Helvetica,sans-Serif" font-size="10.00">Engine/src/Camera.cpp</text>
</a>
</g>
</g>
<!-- Node11&#45;&gt;Node12 -->
<g id="edge13" class="edge"><title>Node11&#45;&gt;Node12</title>
<path fill="none" stroke="midnightblue" d="M1052.23,-167.957C1358.15,-141.366 1437.91,-159.552 1740,-132 1743.01,-131.726 1746.09,-131.419 1749.19,-131.089"/>
<polygon fill="midnightblue" stroke="midnightblue" points="1051.84,-164.478 1042.19,-168.84 1052.46,-171.451 1051.84,-164.478"/>
</g>
<!-- Node13 -->
<g id="node13" class="node"><title>Node13</title>
<g id="a_node13"><a xlink:href="Sprite_8cpp.html" target="_top" xlink:title="Engine/src/Sprite.cpp">
<polygon fill="white" stroke="black" points="1089,-112.5 1089,-131.5 1199,-131.5 1199,-112.5 1089,-112.5"/>
<text text-anchor="middle" x="1144" y="-119.5" font-family="Helvetica,sans-Serif" font-size="10.00">Engine/src/Sprite.cpp</text>
</a>
</g>
</g>
<!-- Node11&#45;&gt;Node13 -->
<g id="edge15" class="edge"><title>Node11&#45;&gt;Node13</title>
<path fill="none" stroke="midnightblue" d="M1014.74,-165.304C1045.83,-155.129 1090.15,-140.625 1117.98,-131.516"/>
<polygon fill="midnightblue" stroke="midnightblue" points="1013.56,-162.007 1005.14,-168.444 1015.74,-168.659 1013.56,-162.007"/>
</g>
<!-- Node14 -->
<g id="node14" class="node"><title>Node14</title>
<g id="a_node14"><a xlink:href="TileMap_8cpp.html" target="_top" xlink:title="Engine/src/TileMap.cpp">
<polygon fill="white" stroke="black" points="810.5,-112.5 810.5,-131.5 929.5,-131.5 929.5,-112.5 810.5,-112.5"/>
<text text-anchor="middle" x="870" y="-119.5" font-family="Helvetica,sans-Serif" font-size="10.00">Engine/src/TileMap.cpp</text>
</a>
</g>
</g>
<!-- Node11&#45;&gt;Node14 -->
<g id="edge16" class="edge"><title>Node11&#45;&gt;Node14</title>
<path fill="none" stroke="midnightblue" d="M952.481,-163.862C932.27,-153.849 905.013,-140.346 887.469,-131.655"/>
<polygon fill="midnightblue" stroke="midnightblue" points="950.973,-167.021 961.487,-168.324 954.08,-160.748 950.973,-167.021"/>
</g>
<!-- Node15 -->
<g id="node15" class="node"><title>Node15</title>
<g id="a_node15"><a xlink:href="Tileset_8cpp.html" target="_top" xlink:title="Engine/src/Tileset.cpp">
<polygon fill="white" stroke="black" points="1217,-112.5 1217,-131.5 1331,-131.5 1331,-112.5 1217,-112.5"/>
<text text-anchor="middle" x="1274" y="-119.5" font-family="Helvetica,sans-Serif" font-size="10.00">Engine/src/Tileset.cpp</text>
</a>
</g>
</g>
<!-- Node11&#45;&gt;Node15 -->
<g id="edge17" class="edge"><title>Node11&#45;&gt;Node15</title>
<path fill="none" stroke="midnightblue" d="M1035.81,-166.601C1091.56,-156.395 1175.56,-141.019 1227.48,-131.516"/>
<polygon fill="midnightblue" stroke="midnightblue" points="1034.95,-163.2 1025.74,-168.444 1036.21,-170.086 1034.95,-163.2"/>
</g>
<!-- Node16 -->
<g id="node16" class="node"><title>Node16</title>
<g id="a_node16"><a xlink:href="StageState_8cpp.html" target="_top" xlink:title="Game/src/StageState.cpp">
<polygon fill="white" stroke="black" points="500,-112.5 500,-131.5 630,-131.5 630,-112.5 500,-112.5"/>
<text text-anchor="middle" x="565" y="-119.5" font-family="Helvetica,sans-Serif" font-size="10.00">Game/src/StageState.cpp</text>
</a>
</g>
</g>
<!-- Node11&#45;&gt;Node16 -->
<g id="edge19" class="edge"><title>Node11&#45;&gt;Node16</title>
<path fill="none" stroke="midnightblue" d="M905.416,-167.402C827.228,-157.204 704.79,-141.233 630.029,-131.482"/>
<polygon fill="midnightblue" stroke="midnightblue" points="905.303,-170.917 915.672,-168.74 906.208,-163.976 905.303,-170.917"/>
</g>
<!-- Node17&#45;&gt;Node7 -->
<g id="edge21" class="edge"><title>Node17&#45;&gt;Node7</title>
<path fill="none" stroke="midnightblue" d="M731.669,-221.436C697.92,-211.255 649.553,-196.664 619.23,-187.516"/>
<polygon fill="midnightblue" stroke="midnightblue" points="731.052,-224.906 741.637,-224.444 733.074,-218.204 731.052,-224.906"/>
</g>
<!-- Node17&#45;&gt;Node14 -->
<g id="edge22" class="edge"><title>Node17&#45;&gt;Node14</title>
<path fill="none" stroke="midnightblue" d="M792.868,-218.865C804.815,-210.774 819.162,-199.882 830,-188 846.251,-170.183 859.613,-144.846 865.979,-131.687"/>
<polygon fill="midnightblue" stroke="midnightblue" points="790.746,-216.071 784.297,-224.477 794.581,-221.927 790.746,-216.071"/>
</g>
<!-- Node17&#45;&gt;Node18 -->
<g id="edge23" class="edge"><title>Node17&#45;&gt;Node18</title>
<path fill="none" stroke="midnightblue" d="M764.143,-214.396C761.299,-205.362 758.017,-194.936 755.755,-187.751"/>
<polygon fill="midnightblue" stroke="midnightblue" points="760.851,-215.596 767.193,-224.083 767.528,-213.493 760.851,-215.596"/>
</g>
<!-- Node17&#45;&gt;Node22 -->
<g id="edge29" class="edge"><title>Node17&#45;&gt;Node22</title>
<path fill="none" stroke="midnightblue" d="M696.569,-225.798C613.206,-217.454 473.179,-202.931 353,-188 350.105,-187.64 347.138,-187.261 344.143,-186.869"/>
<polygon fill="midnightblue" stroke="midnightblue" points="696.4,-229.299 706.698,-226.809 697.096,-222.333 696.4,-229.299"/>
</g>
<!-- Node18&#45;&gt;Node16 -->
<g id="edge27" class="edge"><title>Node18&#45;&gt;Node16</title>
<path fill="none" stroke="midnightblue" d="M713.199,-165.568C677.734,-155.381 626.634,-140.703 594.65,-131.516"/>
<polygon fill="midnightblue" stroke="midnightblue" points="712.633,-169.047 723.211,-168.444 714.566,-162.319 712.633,-169.047"/>
</g>
<!-- Node18&#45;&gt;Node19 -->
<g id="edge24" class="edge"><title>Node18&#45;&gt;Node19</title>
<path fill="none" stroke="midnightblue" d="M674.001,-168.16C599.352,-158.756 496.804,-143.658 482,-132 464.045,-117.86 457.4,-89.9543 458.56,-75.7504"/>
<polygon fill="midnightblue" stroke="midnightblue" points="673.981,-171.685 684.337,-169.449 674.847,-164.739 673.981,-171.685"/>
</g>
<!-- Node21 -->
<g id="node21" class="node"><title>Node21</title>
<g id="a_node21"><a xlink:href="TitleState_8cpp.html" target="_top" xlink:title="Game/src/TitleState.cpp">
<polygon fill="white" stroke="black" points="947.5,-112.5 947.5,-131.5 1070.5,-131.5 1070.5,-112.5 947.5,-112.5"/>
<text text-anchor="middle" x="1009" y="-119.5" font-family="Helvetica,sans-Serif" font-size="10.00">Game/src/TitleState.cpp</text>
</a>
</g>
</g>
<!-- Node18&#45;&gt;Node21 -->
<g id="edge28" class="edge"><title>Node18&#45;&gt;Node21</title>
<path fill="none" stroke="midnightblue" d="M803.51,-166.346C851.889,-156.141 923.951,-140.94 968.626,-131.516"/>
<polygon fill="midnightblue" stroke="midnightblue" points="802.626,-162.955 793.564,-168.444 804.071,-169.804 802.626,-162.955"/>
</g>
<!-- Node19&#45;&gt;Node18 -->
<g id="edge25" class="edge"><title>Node19&#45;&gt;Node18</title>
<path fill="none" stroke="midnightblue" d="M473.202,-85.4365C478.427,-100.33 485.552,-120.622 500,-132 514.979,-143.796 619.79,-159.114 689.797,-168.492"/>
<polygon fill="midnightblue" stroke="midnightblue" points="476.381,-83.9376 469.656,-75.7504 469.808,-86.3442 476.381,-83.9376"/>
</g>
<!-- Node20 -->
<g id="node20" class="node"><title>Node20</title>
<g id="a_node20"><a xlink:href="EndState_8cpp.html" target="_top" xlink:title="Game/src/EndState.cpp">
<polygon fill="white" stroke="black" points="402,-0.5 402,-19.5 524,-19.5 524,-0.5 402,-0.5"/>
<text text-anchor="middle" x="463" y="-7.5" font-family="Helvetica,sans-Serif" font-size="10.00">Game/src/EndState.cpp</text>
</a>
</g>
</g>
<!-- Node19&#45;&gt;Node20 -->
<g id="edge26" class="edge"><title>Node19&#45;&gt;Node20</title>
<path fill="none" stroke="midnightblue" d="M463,-45.8045C463,-36.9102 463,-26.7798 463,-19.7511"/>
<polygon fill="midnightblue" stroke="midnightblue" points="459.5,-46.083 463,-56.083 466.5,-46.083 459.5,-46.083"/>
</g>
<!-- Node22&#45;&gt;Node9 -->
<g id="edge30" class="edge"><title>Node22&#45;&gt;Node9</title>
<path fill="none" stroke="midnightblue" d="M311.194,-162.901C326.78,-152.999 347.13,-140.071 360.377,-131.655"/>
<polygon fill="midnightblue" stroke="midnightblue" points="309.221,-160.007 302.657,-168.324 312.974,-165.916 309.221,-160.007"/>
</g>
<!-- Node22&#45;&gt;Node16 -->
<g id="edge31" class="edge"><title>Node22&#45;&gt;Node16</title>
<path fill="none" stroke="midnightblue" d="M342.803,-166.473C394.964,-156.268 473.105,-140.979 521.472,-131.516"/>
<polygon fill="midnightblue" stroke="midnightblue" points="341.875,-163.088 332.733,-168.444 343.219,-169.958 341.875,-163.088"/>
</g>
<!-- Node23&#45;&gt;Node18 -->
<g id="edge46" class="edge"><title>Node23&#45;&gt;Node18</title>
<path fill="none" stroke="midnightblue" d="M1046.59,-222.917C978.391,-212.715 874.119,-197.117 809.934,-187.516"/>
<polygon fill="midnightblue" stroke="midnightblue" points="1046.39,-226.426 1056.8,-224.444 1047.43,-219.503 1046.39,-226.426"/>
</g>
<!-- Node23&#45;&gt;Node24 -->
<g id="edge33" class="edge"><title>Node23&#45;&gt;Node24</title>
<path fill="none" stroke="midnightblue" d="M1181.85,-223.677C1256.92,-213.362 1376.68,-196.907 1447.99,-187.108"/>
<polygon fill="midnightblue" stroke="midnightblue" points="1181,-220.261 1171.57,-225.09 1181.95,-227.196 1181,-220.261"/>
</g>
<!-- Node30 -->
<g id="node30" class="node"><title>Node30</title>
<g id="a_node30"><a xlink:href="State_8cpp.html" target="_top" xlink:title="Engine/src/State.cpp">
<polygon fill="white" stroke="black" points="1060,-168.5 1060,-187.5 1168,-187.5 1168,-168.5 1060,-168.5"/>
<text text-anchor="middle" x="1114" y="-175.5" font-family="Helvetica,sans-Serif" font-size="10.00">Engine/src/State.cpp</text>
</a>
</g>
</g>
<!-- Node23&#45;&gt;Node30 -->
<g id="edge45" class="edge"><title>Node23&#45;&gt;Node30</title>
<path fill="none" stroke="midnightblue" d="M1114,-213.805C1114,-204.91 1114,-194.78 1114,-187.751"/>
<polygon fill="midnightblue" stroke="midnightblue" points="1110.5,-214.083 1114,-224.083 1117.5,-214.083 1110.5,-214.083"/>
</g>
<!-- Node31 -->
<g id="node31" class="node"><title>Node31</title>
<g id="a_node31"><a xlink:href="TitleState_8h.html" target="_top" xlink:title="Game/include/TitleState.h">
<polygon fill="white" stroke="black" points="1262,-168.5 1262,-187.5 1392,-187.5 1392,-168.5 1262,-168.5"/>
<text text-anchor="middle" x="1327" y="-175.5" font-family="Helvetica,sans-Serif" font-size="10.00">Game/include/TitleState.h</text>
</a>
</g>
</g>
<!-- Node23&#45;&gt;Node31 -->
<g id="edge47" class="edge"><title>Node23&#45;&gt;Node31</title>
<path fill="none" stroke="midnightblue" d="M1157.55,-221.959C1197.78,-211.76 1256.7,-196.822 1293.41,-187.516"/>
<polygon fill="midnightblue" stroke="midnightblue" points="1156.58,-218.593 1147.75,-224.444 1158.3,-225.379 1156.58,-218.593"/>
</g>
<!-- Node24&#45;&gt;Node12 -->
<g id="edge37" class="edge"><title>Node24&#45;&gt;Node12</title>
<path fill="none" stroke="midnightblue" d="M1564.8,-166.664C1621.88,-156.459 1708.12,-141.039 1761.37,-131.516"/>
<polygon fill="midnightblue" stroke="midnightblue" points="1564.08,-163.238 1554.85,-168.444 1565.31,-170.129 1564.08,-163.238"/>
</g>
<!-- Node24&#45;&gt;Node13 -->
<g id="edge40" class="edge"><title>Node24&#45;&gt;Node13</title>
<path fill="none" stroke="midnightblue" d="M1439.54,-166.964C1370.22,-156.653 1263.61,-140.794 1199.17,-131.207"/>
<polygon fill="midnightblue" stroke="midnightblue" points="1439.08,-170.434 1449.48,-168.444 1440.11,-163.51 1439.08,-170.434"/>
</g>
<!-- Node24&#45;&gt;Node15 -->
<g id="edge41" class="edge"><title>Node24&#45;&gt;Node15</title>
<path fill="none" stroke="midnightblue" d="M1460.2,-166.153C1416.17,-155.95 1351.15,-140.881 1310.75,-131.516"/>
<polygon fill="midnightblue" stroke="midnightblue" points="1459.55,-169.595 1470.08,-168.444 1461.13,-162.776 1459.55,-169.595"/>
</g>
<!-- Node24&#45;&gt;Node16 -->
<g id="edge43" class="edge"><title>Node24&#45;&gt;Node16</title>
<path fill="none" stroke="midnightblue" d="M1437.72,-170.742C1425.49,-169.745 1412.88,-168.785 1401,-168 1062.69,-145.654 976.846,-160.486 639,-132 636.163,-131.761 633.267,-131.496 630.343,-131.212"/>
<polygon fill="midnightblue" stroke="midnightblue" points="1437.63,-174.246 1447.88,-171.585 1438.2,-167.27 1437.63,-174.246"/>
</g>
<!-- Node24&#45;&gt;Node21 -->
<g id="edge44" class="edge"><title>Node24&#45;&gt;Node21</title>
<path fill="none" stroke="midnightblue" d="M1437.36,-168.38C1436.23,-168.252 1435.11,-168.125 1434,-168 1276.85,-150.324 1237.12,-149.945 1080,-132 1076.91,-131.648 1073.75,-131.278 1070.56,-130.898"/>
<polygon fill="midnightblue" stroke="midnightblue" points="1437.31,-171.899 1447.65,-169.576 1438.12,-164.945 1437.31,-171.899"/>
</g>
<!-- Node24&#45;&gt;Node25 -->
<g id="edge34" class="edge"><title>Node24&#45;&gt;Node25</title>
<path fill="none" stroke="midnightblue" d="M1576.1,-169.127C1670.6,-158.362 1838.29,-139.258 1925.24,-129.352"/>
<polygon fill="midnightblue" stroke="midnightblue" points="1575.61,-165.661 1566.07,-170.27 1576.41,-172.616 1575.61,-165.661"/>
</g>
<!-- Node27 -->
<g id="node27" class="node"><title>Node27</title>
<g id="a_node27"><a xlink:href="Game_8cpp.html" target="_top" xlink:title="Engine/src/Game.cpp">
<polygon fill="white" stroke="black" points="1469.5,-112.5 1469.5,-131.5 1580.5,-131.5 1580.5,-112.5 1469.5,-112.5"/>
<text text-anchor="middle" x="1525" y="-119.5" font-family="Helvetica,sans-Serif" font-size="10.00">Engine/src/Game.cpp</text>
</a>
</g>
</g>
<!-- Node24&#45;&gt;Node27 -->
<g id="edge38" class="edge"><title>Node24&#45;&gt;Node27</title>
<path fill="none" stroke="midnightblue" d="M1513.2,-158.396C1516.21,-149.362 1519.69,-138.936 1522.08,-131.751"/>
<polygon fill="midnightblue" stroke="midnightblue" points="1509.81,-157.489 1509.97,-168.083 1516.46,-159.703 1509.81,-157.489"/>
</g>
<!-- Node28 -->
<g id="node28" class="node"><title>Node28</title>
<g id="a_node28"><a xlink:href="Resources_8cpp.html" target="_top" xlink:title="Engine/src/Resources.cpp">
<polygon fill="white" stroke="black" points="1599,-112.5 1599,-131.5 1731,-131.5 1731,-112.5 1599,-112.5"/>
<text text-anchor="middle" x="1665" y="-119.5" font-family="Helvetica,sans-Serif" font-size="10.00">Engine/src/Resources.cpp</text>
</a>
</g>
</g>
<!-- Node24&#45;&gt;Node28 -->
<g id="edge39" class="edge"><title>Node24&#45;&gt;Node28</title>
<path fill="none" stroke="midnightblue" d="M1541.61,-165.172C1571.36,-155.004 1613.55,-140.585 1640.08,-131.516"/>
<polygon fill="midnightblue" stroke="midnightblue" points="1540.37,-161.898 1532.04,-168.444 1542.63,-168.521 1540.37,-161.898"/>
</g>
<!-- Node29 -->
<g id="node29" class="node"><title>Node29</title>
<g id="a_node29"><a xlink:href="main_8cpp.html" target="_top" xlink:title="Game/src/main.cpp">
<polygon fill="white" stroke="black" points="1349,-112.5 1349,-131.5 1451,-131.5 1451,-112.5 1349,-112.5"/>
<text text-anchor="middle" x="1400" y="-119.5" font-family="Helvetica,sans-Serif" font-size="10.00">Game/src/main.cpp</text>
</a>
</g>
</g>
<!-- Node24&#45;&gt;Node29 -->
<g id="edge42" class="edge"><title>Node24&#45;&gt;Node29</title>
<path fill="none" stroke="midnightblue" d="M1480.7,-163.726C1460.89,-153.727 1434.29,-140.307 1417.15,-131.655"/>
<polygon fill="midnightblue" stroke="midnightblue" points="1479.3,-166.943 1489.81,-168.324 1482.46,-160.694 1479.3,-166.943"/>
</g>
<!-- Node25&#45;&gt;Node19 -->
<g id="edge36" class="edge"><title>Node25&#45;&gt;Node19</title>
<path fill="none" stroke="midnightblue" d="M1914.95,-112.332C1913.62,-112.215 1912.31,-112.104 1911,-112 1377.6,-69.522 730.705,-66.5678 527.35,-66.782"/>
<polygon fill="midnightblue" stroke="midnightblue" points="1914.97,-115.851 1925.27,-113.34 1915.65,-108.884 1914.97,-115.851"/>
</g>
<!-- Node26 -->
<g id="node26" class="node"><title>Node26</title>
<g id="a_node26"><a xlink:href="Text_8cpp.html" target="_top" xlink:title="Engine/src/Text.cpp">
<polygon fill="white" stroke="black" points="1929,-56.5 1929,-75.5 2033,-75.5 2033,-56.5 1929,-56.5"/>
<text text-anchor="middle" x="1981" y="-63.5" font-family="Helvetica,sans-Serif" font-size="10.00">Engine/src/Text.cpp</text>
</a>
</g>
</g>
<!-- Node25&#45;&gt;Node26 -->
<g id="edge35" class="edge"><title>Node25&#45;&gt;Node26</title>
<path fill="none" stroke="midnightblue" d="M1981,-101.805C1981,-92.9102 1981,-82.7798 1981,-75.7511"/>
<polygon fill="midnightblue" stroke="midnightblue" points="1977.5,-102.083 1981,-112.083 1984.5,-102.083 1977.5,-102.083"/>
</g>
<!-- Node31&#45;&gt;Node21 -->
<g id="edge49" class="edge"><title>Node31&#45;&gt;Node21</title>
<path fill="none" stroke="midnightblue" d="M1266.51,-166.727C1206.41,-156.523 1115.34,-141.058 1059.15,-131.516"/>
<polygon fill="midnightblue" stroke="midnightblue" points="1266.17,-170.22 1276.61,-168.444 1267.34,-163.319 1266.17,-170.22"/>
</g>
<!-- Node31&#45;&gt;Node29 -->
<g id="edge48" class="edge"><title>Node31&#45;&gt;Node29</title>
<path fill="none" stroke="midnightblue" d="M1347.14,-162.101C1360.28,-152.382 1376.98,-140.027 1388.06,-131.834"/>
<polygon fill="midnightblue" stroke="midnightblue" points="1344.69,-159.563 1338.73,-168.324 1348.85,-165.191 1344.69,-159.563"/>
</g>
<!-- Node33&#45;&gt;Node16 -->
<g id="edge55" class="edge"><title>Node33&#45;&gt;Node16</title>
<path fill="none" stroke="midnightblue" d="M817.713,-274.066C827.056,-266.308 836.974,-255.947 842,-244 850.691,-223.34 837.025,-174.73 830,-168 822.629,-160.938 701.501,-142.503 625.587,-131.543"/>
<polygon fill="midnightblue" stroke="midnightblue" points="815.561,-271.306 809.787,-280.189 819.84,-276.845 815.561,-271.306"/>
</g>
<!-- Node35&#45;&gt;Node8 -->
<g id="edge64" class="edge"><title>Node35&#45;&gt;Node8</title>
<path fill="none" stroke="midnightblue" d="M1342.98,-222.821C1302.45,-215.904 1252.49,-204.871 1210,-188 1194.06,-181.671 1193.28,-173.397 1177,-168 1017.66,-115.167 967.985,-149.27 801,-132 798.185,-131.709 795.316,-131.408 792.418,-131.102"/>
<polygon fill="midnightblue" stroke="midnightblue" points="1342.63,-226.311 1353.07,-224.492 1343.77,-219.405 1342.63,-226.311"/>
</g>
<!-- Node35&#45;&gt;Node12 -->
<g id="edge63" class="edge"><title>Node35&#45;&gt;Node12</title>
<path fill="none" stroke="midnightblue" d="M1464.71,-221.96C1495.99,-213.767 1538.54,-201.679 1575,-188 1594.73,-180.596 1598.08,-174.897 1618,-168 1665.48,-151.557 1721.66,-139.123 1760.74,-131.537"/>
<polygon fill="midnightblue" stroke="midnightblue" points="1463.77,-218.587 1454.97,-224.481 1465.53,-225.364 1463.77,-218.587"/>
</g>
<!-- Node35&#45;&gt;Node14 -->
<g id="edge66" class="edge"><title>Node35&#45;&gt;Node14</title>
<path fill="none" stroke="midnightblue" d="M1370.9,-222.126C1337.26,-214.106 1291.86,-202.155 1253,-188 1233.2,-180.787 1230.24,-173.895 1210,-168 1210,-168 1027.12,-143.796 929.613,-130.89"/>
<polygon fill="midnightblue" stroke="midnightblue" points="1370.41,-225.606 1380.94,-224.487 1372.01,-218.792 1370.41,-225.606"/>
</g>
<!-- Node35&#45;&gt;Node18 -->
<g id="edge68" class="edge"><title>Node35&#45;&gt;Node18</title>
<path fill="none" stroke="midnightblue" d="M1334.25,-226.058C1200.4,-215.222 944.474,-194.502 821.841,-184.573"/>
<polygon fill="midnightblue" stroke="midnightblue" points="1334.21,-229.566 1344.46,-226.884 1334.77,-222.589 1334.21,-229.566"/>
</g>
<!-- Node35&#45;&gt;Node19 -->
<g id="edge67" class="edge"><title>Node35&#45;&gt;Node19</title>
<path fill="none" stroke="midnightblue" d="M1479.16,-222.499C1517.15,-214.902 1567.22,-203.288 1610,-188 1629.09,-181.178 1631.66,-174.099 1651,-168 1750.1,-136.74 1950.3,-186.637 1878,-112 1830.46,-62.9285 797.815,-65.1541 527.362,-66.5853"/>
<polygon fill="midnightblue" stroke="midnightblue" points="1478.42,-219.079 1469.28,-224.439 1479.77,-225.947 1478.42,-219.079"/>
</g>
<!-- Node35&#45;&gt;Node21 -->
<g id="edge69" class="edge"><title>Node35&#45;&gt;Node21</title>
<path fill="none" stroke="midnightblue" d="M1419.83,-214.099C1418.6,-199.231 1414.34,-179.213 1401,-168 1346.06,-121.81 1151.27,-140.514 1080,-132 1076.92,-131.632 1073.76,-131.249 1070.57,-130.859"/>
<polygon fill="midnightblue" stroke="midnightblue" points="1416.34,-214.397 1420.27,-224.234 1423.33,-214.091 1416.34,-214.397"/>
</g>
<!-- Node35&#45;&gt;Node24 -->
<g id="edge62" class="edge"><title>Node35&#45;&gt;Node24</title>
<path fill="none" stroke="midnightblue" d="M1442.72,-218.901C1458.67,-208.999 1479.5,-196.071 1493.06,-187.655"/>
<polygon fill="midnightblue" stroke="midnightblue" points="1440.63,-216.077 1433.98,-224.324 1444.32,-222.024 1440.63,-216.077"/>
</g>
<!-- Node36 -->
<g id="node36" class="node"><title>Node36</title>
<g id="a_node36"><a xlink:href="InputManager_8cpp.html" target="_top" xlink:title="Engine/src/InputManager.cpp">
<polygon fill="white" stroke="black" points="1660,-168.5 1660,-187.5 1804,-187.5 1804,-168.5 1660,-168.5"/>
<text text-anchor="middle" x="1732" y="-175.5" font-family="Helvetica,sans-Serif" font-size="10.00">Engine/src/InputManager.cpp</text>
</a>
</g>
</g>
<!-- Node35&#45;&gt;Node36 -->
<g id="edge65" class="edge"><title>Node35&#45;&gt;Node36</title>
<path fill="none" stroke="midnightblue" d="M1479.35,-222.727C1538.31,-212.523 1627.66,-197.058 1682.79,-187.516"/>
<polygon fill="midnightblue" stroke="midnightblue" points="1478.69,-219.289 1469.44,-224.444 1479.89,-226.187 1478.69,-219.289"/>
</g>
</g>
</svg>
