<?xml version="1.0" encoding="UTF-8" standalone="no"?>
<!DOCTYPE svg PUBLIC "-//W3C//DTD SVG 1.1//EN"
 "http://www.w3.org/Graphics/SVG/1.1/DTD/svg11.dtd">
<!-- Generated by graphviz version 2.36.0 (20140111.2315)
 -->
<!-- Title: Engine/src/Vec2.cpp Pages: 1 -->
<svg width="181pt" height="140pt"
 viewBox="0.00 0.00 181.00 140.00" xmlns="http://www.w3.org/2000/svg" xmlns:xlink="http://www.w3.org/1999/xlink">
<g id="graph0" class="graph" transform="scale(1 1) rotate(0) translate(4 136)">
<title>Engine/src/Vec2.cpp</title>
<polygon fill="white" stroke="none" points="-4,4 -4,-136 177,-136 177,4 -4,4"/>
<!-- Node1 -->
<g id="node1" class="node"><title>Node1</title>
<polygon fill="#bfbfbf" stroke="black" points="34.5,-112.5 34.5,-131.5 141.5,-131.5 141.5,-112.5 34.5,-112.5"/>
<text text-anchor="middle" x="88" y="-119.5" font-family="Helvetica,sans-Serif" font-size="10.00">Engine/src/Vec2.cpp</text>
</g>
<!-- Node2 -->
<g id="node2" class="node"><title>Node2</title>
<g id="a_node2"><a xlink:href="Vec2_8h.html" target="_top" xlink:title="Vec2.h">
<polygon fill="white" stroke="black" points="-0.5,-56.5 -0.5,-75.5 46.5,-75.5 46.5,-56.5 -0.5,-56.5"/>
<text text-anchor="middle" x="23" y="-63.5" font-family="Helvetica,sans-Serif" font-size="10.00">Vec2.h</text>
</a>
</g>
</g>
<!-- Node1&#45;&gt;Node2 -->
<g id="edge1" class="edge"><title>Node1&#45;&gt;Node2</title>
<path fill="none" stroke="midnightblue" d="M77.5566,-112.324C67.8538,-104.263 53.1847,-92.0765 41.5003,-82.3695"/>
<polygon fill="midnightblue" stroke="midnightblue" points="43.5619,-79.532 33.6334,-75.8339 39.0887,-84.9163 43.5619,-79.532"/>
</g>
<!-- Node3 -->
<g id="node3" class="node"><title>Node3</title>
<g id="a_node3"><a xlink:href="Error_8h.html" target="_top" xlink:title="Error.h">
<polygon fill="white" stroke="black" points="65,-56.5 65,-75.5 111,-75.5 111,-56.5 65,-56.5"/>
<text text-anchor="middle" x="88" y="-63.5" font-family="Helvetica,sans-Serif" font-size="10.00">Error.h</text>
</a>
</g>
</g>
<!-- Node1&#45;&gt;Node3 -->
<g id="edge2" class="edge"><title>Node1&#45;&gt;Node3</title>
<path fill="none" stroke="midnightblue" d="M88,-112.083C88,-105.006 88,-94.8611 88,-85.9865"/>
<polygon fill="midnightblue" stroke="midnightblue" points="91.5001,-85.751 88,-75.7511 84.5001,-85.7511 91.5001,-85.751"/>
</g>
<!-- Node6 -->
<g id="node6" class="node"><title>Node6</title>
<polygon fill="white" stroke="#bfbfbf" points="129,-56.5 129,-75.5 173,-75.5 173,-56.5 129,-56.5"/>
<text text-anchor="middle" x="151" y="-63.5" font-family="Helvetica,sans-Serif" font-size="10.00">cmath</text>
</g>
<!-- Node1&#45;&gt;Node6 -->
<g id="edge5" class="edge"><title>Node1&#45;&gt;Node6</title>
<path fill="none" stroke="midnightblue" d="M98.122,-112.324C107.526,-104.263 121.744,-92.0765 133.069,-82.3695"/>
<polygon fill="midnightblue" stroke="midnightblue" points="135.379,-84.9993 140.694,-75.8339 130.823,-79.6844 135.379,-84.9993"/>
</g>
<!-- Node4 -->
<g id="node4" class="node"><title>Node4</title>
<polygon fill="white" stroke="#bfbfbf" points="27,-0.5 27,-19.5 81,-19.5 81,-0.5 27,-0.5"/>
<text text-anchor="middle" x="54" y="-7.5" font-family="Helvetica,sans-Serif" font-size="10.00">iostream</text>
</g>
<!-- Node3&#45;&gt;Node4 -->
<g id="edge3" class="edge"><title>Node3&#45;&gt;Node4</title>
<path fill="none" stroke="midnightblue" d="M82.3856,-56.083C77.6326,-48.5341 70.6819,-37.4948 64.8484,-28.2298"/>
<polygon fill="midnightblue" stroke="midnightblue" points="67.7999,-26.3486 59.5099,-19.7511 61.8763,-30.0783 67.7999,-26.3486"/>
</g>
<!-- Node5 -->
<g id="node5" class="node"><title>Node5</title>
<polygon fill="white" stroke="#bfbfbf" points="99,-0.5 99,-19.5 147,-19.5 147,-0.5 99,-0.5"/>
<text text-anchor="middle" x="123" y="-7.5" font-family="Helvetica,sans-Serif" font-size="10.00">stdlib.h</text>
</g>
<!-- Node3&#45;&gt;Node5 -->
<g id="edge4" class="edge"><title>Node3&#45;&gt;Node5</title>
<path fill="none" stroke="midnightblue" d="M93.7795,-56.083C98.6724,-48.5341 105.827,-37.4948 111.833,-28.2298"/>
<polygon fill="midnightblue" stroke="midnightblue" points="114.826,-30.0463 117.328,-19.7511 108.952,-26.239 114.826,-30.0463"/>
</g>
</g>
</svg>
