<?xml version="1.0" encoding="UTF-8" standalone="no"?>
<!DOCTYPE svg PUBLIC "-//W3C//DTD SVG 1.1//EN"
 "http://www.w3.org/Graphics/SVG/1.1/DTD/svg11.dtd">
<!-- Generated by graphviz version 2.36.0 (20140111.2315)
 -->
<!-- Title: Game/include/WaveData.h Pages: 1 -->
<svg width="760pt" height="252pt"
 viewBox="0.00 0.00 760.00 252.00" xmlns="http://www.w3.org/2000/svg" xmlns:xlink="http://www.w3.org/1999/xlink">
<g id="graph0" class="graph" transform="scale(1 1) rotate(0) translate(4 248)">
<title>Game/include/WaveData.h</title>
<polygon fill="white" stroke="none" points="-4,4 -4,-248 756,-248 756,4 -4,4"/>
<!-- Node1 -->
<g id="node1" class="node"><title>Node1</title>
<polygon fill="#bfbfbf" stroke="black" points="470,-224.5 470,-243.5 604,-243.5 604,-224.5 470,-224.5"/>
<text text-anchor="middle" x="537" y="-231.5" font-family="Helvetica,sans-Serif" font-size="10.00">Game/include/WaveData.h</text>
</g>
<!-- Node2 -->
<g id="node2" class="node"><title>Node2</title>
<g id="a_node2"><a xlink:href="WaveManager_8h.html" target="_top" xlink:title="Game/include/WaveManager.h">
<polygon fill="white" stroke="black" points="261.5,-168.5 261.5,-187.5 412.5,-187.5 412.5,-168.5 261.5,-168.5"/>
<text text-anchor="middle" x="337" y="-175.5" font-family="Helvetica,sans-Serif" font-size="10.00">Game/include/WaveManager.h</text>
</a>
</g>
</g>
<!-- Node1&#45;&gt;Node2 -->
<g id="edge1" class="edge"><title>Node1&#45;&gt;Node2</title>
<path fill="none" stroke="midnightblue" d="M495.626,-221.829C457.864,-211.633 402.86,-196.782 368.542,-187.516"/>
<polygon fill="midnightblue" stroke="midnightblue" points="494.743,-225.216 505.309,-224.444 496.567,-218.458 494.743,-225.216"/>
</g>
<!-- Node9 -->
<g id="node9" class="node"><title>Node9</title>
<g id="a_node9"><a xlink:href="Enemy_8h.html" target="_top" xlink:title="Game/include/Enemy.h">
<polygon fill="white" stroke="black" points="433.5,-168.5 433.5,-187.5 552.5,-187.5 552.5,-168.5 433.5,-168.5"/>
<text text-anchor="middle" x="493" y="-175.5" font-family="Helvetica,sans-Serif" font-size="10.00">Game/include/Enemy.h</text>
</a>
</g>
</g>
<!-- Node1&#45;&gt;Node9 -->
<g id="edge9" class="edge"><title>Node1&#45;&gt;Node9</title>
<path fill="none" stroke="midnightblue" d="M523.265,-216.144C515.599,-206.736 506.367,-195.405 500.131,-187.751"/>
<polygon fill="midnightblue" stroke="midnightblue" points="520.704,-218.541 529.734,-224.083 526.131,-214.12 520.704,-218.541"/>
</g>
<!-- Node10 -->
<g id="node10" class="node"><title>Node10</title>
<g id="a_node10"><a xlink:href="GameResources_8h.html" target="_top" xlink:title="Game/include/GameResources.h">
<polygon fill="white" stroke="black" points="571.5,-112.5 571.5,-131.5 732.5,-131.5 732.5,-112.5 571.5,-112.5"/>
<text text-anchor="middle" x="652" y="-119.5" font-family="Helvetica,sans-Serif" font-size="10.00">Game/include/GameResources.h</text>
</a>
</g>
</g>
<!-- Node1&#45;&gt;Node10 -->
<g id="edge16" class="edge"><title>Node1&#45;&gt;Node10</title>
<path fill="none" stroke="midnightblue" d="M551.883,-216.873C564.417,-203.481 582.975,-184.091 600,-168 613.883,-154.879 630.725,-140.581 641.404,-131.703"/>
<polygon fill="midnightblue" stroke="midnightblue" points="549.173,-214.647 544.925,-224.353 554.299,-219.414 549.173,-214.647"/>
</g>
<!-- Node13 -->
<g id="node13" class="node"><title>Node13</title>
<g id="a_node13"><a xlink:href="WaveData_8cpp.html" target="_top" xlink:title="Game/src/WaveData.cpp">
<polygon fill="white" stroke="black" points="609,-168.5 609,-187.5 737,-187.5 737,-168.5 609,-168.5"/>
<text text-anchor="middle" x="673" y="-175.5" font-family="Helvetica,sans-Serif" font-size="10.00">Game/src/WaveData.cpp</text>
</a>
</g>
</g>
<!-- Node1&#45;&gt;Node13 -->
<g id="edge17" class="edge"><title>Node1&#45;&gt;Node13</title>
<path fill="none" stroke="midnightblue" d="M568.135,-220.638C593.657,-210.504 629.109,-196.427 651.551,-187.516"/>
<polygon fill="midnightblue" stroke="midnightblue" points="566.552,-217.5 558.55,-224.444 569.135,-224.006 566.552,-217.5"/>
</g>
<!-- Node3 -->
<g id="node3" class="node"><title>Node3</title>
<g id="a_node3"><a xlink:href="StageState_8h.html" target="_top" xlink:title="Game/include/StageState.h">
<polygon fill="white" stroke="black" points="136.5,-112.5 136.5,-131.5 273.5,-131.5 273.5,-112.5 136.5,-112.5"/>
<text text-anchor="middle" x="205" y="-119.5" font-family="Helvetica,sans-Serif" font-size="10.00">Game/include/StageState.h</text>
</a>
</g>
</g>
<!-- Node2&#45;&gt;Node3 -->
<g id="edge2" class="edge"><title>Node2&#45;&gt;Node3</title>
<path fill="none" stroke="midnightblue" d="M306.781,-164.638C282.01,-154.504 247.6,-140.427 225.818,-131.516"/>
<polygon fill="midnightblue" stroke="midnightblue" points="305.503,-167.897 316.084,-168.444 308.154,-161.418 305.503,-167.897"/>
</g>
<!-- Node8 -->
<g id="node8" class="node"><title>Node8</title>
<g id="a_node8"><a xlink:href="WaveManager_8cpp.html" target="_top" xlink:title="Game/src/WaveManager.cpp">
<polygon fill="white" stroke="black" points="435,-56.5 435,-75.5 579,-75.5 579,-56.5 435,-56.5"/>
<text text-anchor="middle" x="507" y="-63.5" font-family="Helvetica,sans-Serif" font-size="10.00">Game/src/WaveManager.cpp</text>
</a>
</g>
</g>
<!-- Node2&#45;&gt;Node8 -->
<g id="edge8" class="edge"><title>Node2&#45;&gt;Node8</title>
<path fill="none" stroke="midnightblue" d="M355.998,-161.808C373.473,-148.116 400.338,-127.774 425,-112 446.614,-98.175 472.784,-84.2738 489.653,-75.6567"/>
<polygon fill="midnightblue" stroke="midnightblue" points="353.454,-159.357 347.776,-168.302 357.793,-164.85 353.454,-159.357"/>
</g>
<!-- Node4 -->
<g id="node4" class="node"><title>Node4</title>
<g id="a_node4"><a xlink:href="EndState_8h.html" target="_top" xlink:title="Game/include/EndState.h">
<polygon fill="white" stroke="black" points="141,-56.5 141,-75.5 269,-75.5 269,-56.5 141,-56.5"/>
<text text-anchor="middle" x="205" y="-63.5" font-family="Helvetica,sans-Serif" font-size="10.00">Game/include/EndState.h</text>
</a>
</g>
</g>
<!-- Node3&#45;&gt;Node4 -->
<g id="edge3" class="edge"><title>Node3&#45;&gt;Node4</title>
<path fill="none" stroke="midnightblue" d="M198.528,-102.101C197.896,-93.1357 198.343,-82.8579 199.869,-75.7511"/>
<polygon fill="midnightblue" stroke="midnightblue" points="195.066,-102.622 199.834,-112.083 202.007,-101.713 195.066,-102.622"/>
</g>
<!-- Node6 -->
<g id="node6" class="node"><title>Node6</title>
<g id="a_node6"><a xlink:href="StageState_8cpp.html" target="_top" xlink:title="Game/src/StageState.cpp">
<polygon fill="white" stroke="black" points="287,-56.5 287,-75.5 417,-75.5 417,-56.5 287,-56.5"/>
<text text-anchor="middle" x="352" y="-63.5" font-family="Helvetica,sans-Serif" font-size="10.00">Game/src/StageState.cpp</text>
</a>
</g>
</g>
<!-- Node3&#45;&gt;Node6 -->
<g id="edge6" class="edge"><title>Node3&#45;&gt;Node6</title>
<path fill="none" stroke="midnightblue" d="M237.923,-108.906C265.56,-98.7536 304.344,-84.5063 328.816,-75.5164"/>
<polygon fill="midnightblue" stroke="midnightblue" points="236.472,-105.71 228.293,-112.444 238.886,-112.281 236.472,-105.71"/>
</g>
<!-- Node7 -->
<g id="node7" class="node"><title>Node7</title>
<g id="a_node7"><a xlink:href="TitleState_8cpp.html" target="_top" xlink:title="Game/src/TitleState.cpp">
<polygon fill="white" stroke="black" points="-0.5,-56.5 -0.5,-75.5 122.5,-75.5 122.5,-56.5 -0.5,-56.5"/>
<text text-anchor="middle" x="61" y="-63.5" font-family="Helvetica,sans-Serif" font-size="10.00">Game/src/TitleState.cpp</text>
</a>
</g>
</g>
<!-- Node3&#45;&gt;Node7 -->
<g id="edge7" class="edge"><title>Node3&#45;&gt;Node7</title>
<path fill="none" stroke="midnightblue" d="M172.749,-108.906C145.676,-98.7536 107.683,-84.5063 83.7105,-75.5164"/>
<polygon fill="midnightblue" stroke="midnightblue" points="171.591,-112.209 182.183,-112.444 174.048,-105.655 171.591,-112.209"/>
</g>
<!-- Node4&#45;&gt;Node3 -->
<g id="edge4" class="edge"><title>Node4&#45;&gt;Node3</title>
<path fill="none" stroke="midnightblue" d="M211.458,-85.6911C212.106,-94.6353 211.676,-104.927 210.166,-112.083"/>
<polygon fill="midnightblue" stroke="midnightblue" points="214.923,-85.2002 210.131,-75.7511 207.985,-86.1262 214.923,-85.2002"/>
</g>
<!-- Node5 -->
<g id="node5" class="node"><title>Node5</title>
<g id="a_node5"><a xlink:href="EndState_8cpp.html" target="_top" xlink:title="Game/src/EndState.cpp">
<polygon fill="white" stroke="black" points="144,-0.5 144,-19.5 266,-19.5 266,-0.5 144,-0.5"/>
<text text-anchor="middle" x="205" y="-7.5" font-family="Helvetica,sans-Serif" font-size="10.00">Game/src/EndState.cpp</text>
</a>
</g>
</g>
<!-- Node4&#45;&gt;Node5 -->
<g id="edge5" class="edge"><title>Node4&#45;&gt;Node5</title>
<path fill="none" stroke="midnightblue" d="M205,-45.8045C205,-36.9102 205,-26.7798 205,-19.7511"/>
<polygon fill="midnightblue" stroke="midnightblue" points="201.5,-46.083 205,-56.083 208.5,-46.083 201.5,-46.083"/>
</g>
<!-- Node9&#45;&gt;Node6 -->
<g id="edge14" class="edge"><title>Node9&#45;&gt;Node6</title>
<path fill="none" stroke="midnightblue" d="M470.141,-163.025C456.674,-154.512 439.492,-143.156 425,-132 400.796,-113.368 374.539,-88.8021 361.082,-75.8584"/>
<polygon fill="midnightblue" stroke="midnightblue" points="468.456,-166.1 478.792,-168.428 472.164,-160.162 468.456,-166.1"/>
</g>
<!-- Node9&#45;&gt;Node8 -->
<g id="edge15" class="edge"><title>Node9&#45;&gt;Node8</title>
<path fill="none" stroke="midnightblue" d="M465.344,-163.728C444.166,-151.61 420.391,-132.504 432,-112 442.175,-94.0293 462.706,-82.4522 479.718,-75.5474"/>
<polygon fill="midnightblue" stroke="midnightblue" points="463.687,-166.811 474.15,-168.478 467.01,-160.65 463.687,-166.811"/>
</g>
<!-- Node9&#45;&gt;Node10 -->
<g id="edge10" class="edge"><title>Node9&#45;&gt;Node10</title>
<path fill="none" stroke="midnightblue" d="M527.827,-165.172C557.766,-155.004 600.221,-140.585 626.924,-131.516"/>
<polygon fill="midnightblue" stroke="midnightblue" points="526.537,-161.914 518.194,-168.444 528.788,-168.542 526.537,-161.914"/>
</g>
<!-- Node12 -->
<g id="node12" class="node"><title>Node12</title>
<g id="a_node12"><a xlink:href="Enemy_8cpp.html" target="_top" xlink:title="Game/src/Enemy.cpp">
<polygon fill="white" stroke="black" points="441,-112.5 441,-131.5 553,-131.5 553,-112.5 441,-112.5"/>
<text text-anchor="middle" x="497" y="-119.5" font-family="Helvetica,sans-Serif" font-size="10.00">Game/src/Enemy.cpp</text>
</a>
</g>
</g>
<!-- Node9&#45;&gt;Node12 -->
<g id="edge13" class="edge"><title>Node9&#45;&gt;Node12</title>
<path fill="none" stroke="midnightblue" d="M494.4,-158.101C495.064,-149.136 495.825,-138.858 496.352,-131.751"/>
<polygon fill="midnightblue" stroke="midnightblue" points="490.909,-157.852 493.661,-168.083 497.89,-158.369 490.909,-157.852"/>
</g>
<!-- Node10&#45;&gt;Node8 -->
<g id="edge12" class="edge"><title>Node10&#45;&gt;Node8</title>
<path fill="none" stroke="midnightblue" d="M619.525,-108.906C592.264,-98.7536 554.008,-84.5063 529.868,-75.5164"/>
<polygon fill="midnightblue" stroke="midnightblue" points="618.432,-112.233 629.024,-112.444 620.875,-105.674 618.432,-112.233"/>
</g>
<!-- Node11 -->
<g id="node11" class="node"><title>Node11</title>
<g id="a_node11"><a xlink:href="GameResources_8cpp.html" target="_top" xlink:title="Game/src/GameResources.cpp">
<polygon fill="white" stroke="black" points="597.5,-56.5 597.5,-75.5 752.5,-75.5 752.5,-56.5 597.5,-56.5"/>
<text text-anchor="middle" x="675" y="-63.5" font-family="Helvetica,sans-Serif" font-size="10.00">Game/src/GameResources.cpp</text>
</a>
</g>
</g>
<!-- Node10&#45;&gt;Node11 -->
<g id="edge11" class="edge"><title>Node10&#45;&gt;Node11</title>
<path fill="none" stroke="midnightblue" d="M659.799,-102.69C663.675,-93.589 668.179,-83.0141 671.273,-75.7511"/>
<polygon fill="midnightblue" stroke="midnightblue" points="656.497,-101.511 655.798,-112.083 662.937,-104.254 656.497,-101.511"/>
</g>
</g>
</svg>
