<?xml version="1.0" encoding="UTF-8" standalone="no"?>
<!DOCTYPE svg PUBLIC "-//W3C//DTD SVG 1.1//EN"
 "http://www.w3.org/Graphics/SVG/1.1/DTD/svg11.dtd">
<!-- Generated by graphviz version 2.36.0 (20140111.2315)
 -->
<!-- Title: Game/include/WaveData.h Pages: 1 -->
<svg width="1775pt" height="364pt"
 viewBox="0.00 0.00 1775.27 364.00" xmlns="http://www.w3.org/2000/svg" xmlns:xlink="http://www.w3.org/1999/xlink">
<g id="graph0" class="graph" transform="scale(1 1) rotate(0) translate(4 360)">
<title>Game/include/WaveData.h</title>
<polygon fill="white" stroke="none" points="-4,4 -4,-360 1771.27,-360 1771.27,4 -4,4"/>
<!-- Node1 -->
<g id="node1" class="node"><title>Node1</title>
<polygon fill="#bfbfbf" stroke="black" points="1208.27,-336.5 1208.27,-355.5 1342.27,-355.5 1342.27,-336.5 1208.27,-336.5"/>
<text text-anchor="middle" x="1275.27" y="-343.5" font-family="Helvetica,sans-Serif" font-size="10.00">Game/include/WaveData.h</text>
</g>
<!-- Node2 -->
<g id="node2" class="node"><title>Node2</title>
<g id="a_node2"><a xlink:href="GameResources_8h.html" target="_top" xlink:title="Game/include/GameResources.h">
<polygon fill="white" stroke="black" points="523.766,-168.5 523.766,-187.5 684.766,-187.5 684.766,-168.5 523.766,-168.5"/>
<text text-anchor="middle" x="604.266" y="-175.5" font-family="Helvetica,sans-Serif" font-size="10.00">Game/include/GameResources.h</text>
</a>
</g>
</g>
<!-- Node1&#45;&gt;Node2 -->
<g id="edge1" class="edge"><title>Node1&#45;&gt;Node2</title>
<path fill="none" stroke="midnightblue" d="M1198.22,-335.786C1095.77,-322.227 909.848,-293.053 757.266,-244 706.711,-227.748 649.789,-201.279 621.769,-187.676"/>
<polygon fill="midnightblue" stroke="midnightblue" points="1197.81,-339.261 1208.17,-337.088 1198.71,-332.32 1197.81,-339.261"/>
</g>
<!-- Node25 -->
<g id="node25" class="node"><title>Node25</title>
<g id="a_node25"><a xlink:href="Enemy_8h.html" target="_top" xlink:title="Game/include/Enemy.h">
<polygon fill="white" stroke="black" points="766.766,-224.5 766.766,-243.5 885.766,-243.5 885.766,-224.5 766.766,-224.5"/>
<text text-anchor="middle" x="826.266" y="-231.5" font-family="Helvetica,sans-Serif" font-size="10.00">Game/include/Enemy.h</text>
</a>
</g>
</g>
<!-- Node1&#45;&gt;Node25 -->
<g id="edge37" class="edge"><title>Node1&#45;&gt;Node25</title>
<path fill="none" stroke="midnightblue" d="M1230.57,-334.049C1141.11,-312.132 941.729,-263.287 861.102,-243.535"/>
<polygon fill="midnightblue" stroke="midnightblue" points="1229.86,-337.48 1240.41,-336.46 1231.53,-330.681 1229.86,-337.48"/>
</g>
<!-- Node26 -->
<g id="node26" class="node"><title>Node26</title>
<g id="a_node26"><a xlink:href="WaveManager_8h.html" target="_top" xlink:title="Game/include/WaveManager.h">
<polygon fill="white" stroke="black" points="1199.77,-280.5 1199.77,-299.5 1350.77,-299.5 1350.77,-280.5 1199.77,-280.5"/>
<text text-anchor="middle" x="1275.27" y="-287.5" font-family="Helvetica,sans-Serif" font-size="10.00">Game/include/WaveManager.h</text>
</a>
</g>
</g>
<!-- Node1&#45;&gt;Node26 -->
<g id="edge42" class="edge"><title>Node1&#45;&gt;Node26</title>
<path fill="none" stroke="midnightblue" d="M1275.27,-325.805C1275.27,-316.91 1275.27,-306.78 1275.27,-299.751"/>
<polygon fill="midnightblue" stroke="midnightblue" points="1271.77,-326.083 1275.27,-336.083 1278.77,-326.083 1271.77,-326.083"/>
</g>
<!-- Node28 -->
<g id="node28" class="node"><title>Node28</title>
<g id="a_node28"><a xlink:href="PlayerData_8cpp.html" target="_top" xlink:title="Game/src/PlayerData.cpp">
<polygon fill="white" stroke="black" points="1544.27,-56.5 1544.27,-75.5 1674.27,-75.5 1674.27,-56.5 1544.27,-56.5"/>
<text text-anchor="middle" x="1609.27" y="-63.5" font-family="Helvetica,sans-Serif" font-size="10.00">Game/src/PlayerData.cpp</text>
</a>
</g>
</g>
<!-- Node1&#45;&gt;Node28 -->
<g id="edge53" class="edge"><title>Node1&#45;&gt;Node28</title>
<path fill="none" stroke="midnightblue" d="M1352.45,-335.421C1451.66,-320.91 1611.27,-289.149 1611.27,-235 1611.27,-235 1611.27,-235 1611.27,-177 1611.27,-139.181 1610.07,-94.0608 1609.53,-75.5568"/>
<polygon fill="midnightblue" stroke="midnightblue" points="1351.85,-331.97 1342.45,-336.855 1352.85,-338.9 1351.85,-331.97"/>
</g>
<!-- Node29 -->
<g id="node29" class="node"><title>Node29</title>
<g id="a_node29"><a xlink:href="WaveData_8cpp.html" target="_top" xlink:title="Game/src/WaveData.cpp">
<polygon fill="white" stroke="black" points="1639.27,-280.5 1639.27,-299.5 1767.27,-299.5 1767.27,-280.5 1639.27,-280.5"/>
<text text-anchor="middle" x="1703.27" y="-287.5" font-family="Helvetica,sans-Serif" font-size="10.00">Game/src/WaveData.cpp</text>
</a>
</g>
</g>
<!-- Node1&#45;&gt;Node29 -->
<g id="edge54" class="edge"><title>Node1&#45;&gt;Node29</title>
<path fill="none" stroke="midnightblue" d="M1352.62,-335.24C1434.59,-324.898 1562.54,-308.755 1639.11,-299.094"/>
<polygon fill="midnightblue" stroke="midnightblue" points="1352.1,-331.779 1342.61,-336.503 1352.97,-338.724 1352.1,-331.779"/>
</g>
<!-- Node3 -->
<g id="node3" class="node"><title>Node3</title>
<g id="a_node3"><a xlink:href="AIArt_8h.html" target="_top" xlink:title="Game/include/AIArt.h">
<polygon fill="white" stroke="black" points="741.266,-112.5 741.266,-131.5 851.266,-131.5 851.266,-112.5 741.266,-112.5"/>
<text text-anchor="middle" x="796.266" y="-119.5" font-family="Helvetica,sans-Serif" font-size="10.00">Game/include/AIArt.h</text>
</a>
</g>
</g>
<!-- Node2&#45;&gt;Node3 -->
<g id="edge2" class="edge"><title>Node2&#45;&gt;Node3</title>
<path fill="none" stroke="midnightblue" d="M644.449,-165.699C680.685,-155.507 733.18,-140.743 765.985,-131.516"/>
<polygon fill="midnightblue" stroke="midnightblue" points="643.368,-162.367 634.689,-168.444 645.263,-169.105 643.368,-162.367"/>
</g>
<!-- Node6 -->
<g id="node6" class="node"><title>Node6</title>
<g id="a_node6"><a xlink:href="StageState_8cpp.html" target="_top" xlink:title="Game/src/StageState.cpp">
<polygon fill="white" stroke="black" points="295.266,-0.5 295.266,-19.5 425.266,-19.5 425.266,-0.5 295.266,-0.5"/>
<text text-anchor="middle" x="360.266" y="-7.5" font-family="Helvetica,sans-Serif" font-size="10.00">Game/src/StageState.cpp</text>
</a>
</g>
</g>
<!-- Node2&#45;&gt;Node6 -->
<g id="edge35" class="edge"><title>Node2&#45;&gt;Node6</title>
<path fill="none" stroke="midnightblue" d="M513.413,-173.243C445.38,-168.396 360.114,-157.314 336.266,-132 313.032,-107.338 320.447,-88.429 330.266,-56 334.511,-41.9809 344.722,-28.3374 352.052,-19.8175"/>
<polygon fill="midnightblue" stroke="midnightblue" points="513.53,-176.759 523.744,-173.941 514.002,-169.775 513.53,-176.759"/>
</g>
<!-- Node7 -->
<g id="node7" class="node"><title>Node7</title>
<g id="a_node7"><a xlink:href="AIEngineer_8h.html" target="_top" xlink:title="Game/include/AIEngineer.h">
<polygon fill="white" stroke="black" points="511.266,-56.5 511.266,-75.5 647.266,-75.5 647.266,-56.5 511.266,-56.5"/>
<text text-anchor="middle" x="579.266" y="-63.5" font-family="Helvetica,sans-Serif" font-size="10.00">Game/include/AIEngineer.h</text>
</a>
</g>
</g>
<!-- Node2&#45;&gt;Node7 -->
<g id="edge6" class="edge"><title>Node2&#45;&gt;Node7</title>
<path fill="none" stroke="midnightblue" d="M626.3,-162.327C642.58,-149.548 660.31,-130.257 650.266,-112 640.559,-94.3547 620.685,-82.6567 604.427,-75.6217"/>
<polygon fill="midnightblue" stroke="midnightblue" points="624.057,-159.632 618.074,-168.376 628.204,-165.272 624.057,-159.632"/>
</g>
<!-- Node9 -->
<g id="node9" class="node"><title>Node9</title>
<g id="a_node9"><a xlink:href="AIGoDown_8h.html" target="_top" xlink:title="Game/include/AIGoDown.h">
<polygon fill="white" stroke="black" points="1086.27,-112.5 1086.27,-131.5 1222.27,-131.5 1222.27,-112.5 1086.27,-112.5"/>
<text text-anchor="middle" x="1154.27" y="-119.5" font-family="Helvetica,sans-Serif" font-size="10.00">Game/include/AIGoDown.h</text>
</a>
</g>
</g>
<!-- Node2&#45;&gt;Node9 -->
<g id="edge10" class="edge"><title>Node2&#45;&gt;Node9</title>
<path fill="none" stroke="midnightblue" d="M694.902,-168.101C804.776,-157.314 987.441,-139.379 1086.07,-129.695"/>
<polygon fill="midnightblue" stroke="midnightblue" points="694.44,-164.63 684.83,-169.09 695.124,-171.596 694.44,-164.63"/>
</g>
<!-- Node14 -->
<g id="node14" class="node"><title>Node14</title>
<g id="a_node14"><a xlink:href="WaveManager_8cpp.html" target="_top" xlink:title="Game/src/WaveManager.cpp">
<polygon fill="white" stroke="black" points="1414.27,-0.5 1414.27,-19.5 1558.27,-19.5 1558.27,-0.5 1414.27,-0.5"/>
<text text-anchor="middle" x="1486.27" y="-7.5" font-family="Helvetica,sans-Serif" font-size="10.00">Game/src/WaveManager.cpp</text>
</a>
</g>
</g>
<!-- Node2&#45;&gt;Node14 -->
<g id="edge36" class="edge"><title>Node2&#45;&gt;Node14</title>
<path fill="none" stroke="midnightblue" d="M695.026,-173.648C843.468,-167.635 1131.63,-153.59 1231.27,-132 1301.22,-116.842 1318.03,-107.576 1382.27,-76 1417.23,-58.8113 1455.35,-32.982 1474.25,-19.6489"/>
<polygon fill="midnightblue" stroke="midnightblue" points="694.871,-170.152 685.019,-174.05 695.152,-177.146 694.871,-170.152"/>
</g>
<!-- Node16 -->
<g id="node16" class="node"><title>Node16</title>
<g id="a_node16"><a xlink:href="AIGoTo_8h.html" target="_top" xlink:title="Game/include/AIGoTo.h">
<polygon fill="white" stroke="black" points="519.266,-112.5 519.266,-131.5 641.266,-131.5 641.266,-112.5 519.266,-112.5"/>
<text text-anchor="middle" x="580.266" y="-119.5" font-family="Helvetica,sans-Serif" font-size="10.00">Game/include/AIGoTo.h</text>
</a>
</g>
</g>
<!-- Node2&#45;&gt;Node16 -->
<g id="edge20" class="edge"><title>Node2&#45;&gt;Node16</title>
<path fill="none" stroke="midnightblue" d="M596.128,-158.69C592.083,-149.589 587.383,-139.014 584.155,-131.751"/>
<polygon fill="midnightblue" stroke="midnightblue" points="593.043,-160.366 600.303,-168.083 599.44,-157.523 593.043,-160.366"/>
</g>
<!-- Node18 -->
<g id="node18" class="node"><title>Node18</title>
<g id="a_node18"><a xlink:href="AIMedic_8h.html" target="_top" xlink:title="Game/include/AIMedic.h">
<polygon fill="white" stroke="black" points="13.266,-56.5 13.266,-75.5 137.266,-75.5 137.266,-56.5 13.266,-56.5"/>
<text text-anchor="middle" x="75.266" y="-63.5" font-family="Helvetica,sans-Serif" font-size="10.00">Game/include/AIMedic.h</text>
</a>
</g>
</g>
<!-- Node2&#45;&gt;Node18 -->
<g id="edge23" class="edge"><title>Node2&#45;&gt;Node18</title>
<path fill="none" stroke="midnightblue" d="M513.509,-170.041C444.279,-163.528 346.905,-151.764 263.266,-132 200.753,-117.228 129.835,-89.6087 95.7262,-75.6086"/>
<polygon fill="midnightblue" stroke="midnightblue" points="513.234,-173.531 523.514,-170.964 513.878,-166.56 513.234,-173.531"/>
</g>
<!-- Node20 -->
<g id="node20" class="node"><title>Node20</title>
<g id="a_node20"><a xlink:href="AIPrintPath_8h.html" target="_top" xlink:title="Game/include/AIPrintPath.h">
<polygon fill="white" stroke="black" points="898.266,-112.5 898.266,-131.5 1036.27,-131.5 1036.27,-112.5 898.266,-112.5"/>
<text text-anchor="middle" x="967.266" y="-119.5" font-family="Helvetica,sans-Serif" font-size="10.00">Game/include/AIPrintPath.h</text>
</a>
</g>
</g>
<!-- Node2&#45;&gt;Node20 -->
<g id="edge27" class="edge"><title>Node2&#45;&gt;Node20</title>
<path fill="none" stroke="midnightblue" d="M672.049,-166.917C740.626,-156.715 845.476,-141.117 910.017,-131.516"/>
<polygon fill="midnightblue" stroke="midnightblue" points="671.161,-163.51 661.784,-168.444 672.191,-170.434 671.161,-163.51"/>
</g>
<!-- Node22 -->
<g id="node22" class="node"><title>Node22</title>
<g id="a_node22"><a xlink:href="AIQuimic_8h.html" target="_top" xlink:title="Game/include/AIQuimic.h">
<polygon fill="white" stroke="black" points="155.266,-56.5 155.266,-75.5 283.266,-75.5 283.266,-56.5 155.266,-56.5"/>
<text text-anchor="middle" x="219.266" y="-63.5" font-family="Helvetica,sans-Serif" font-size="10.00">Game/include/AIQuimic.h</text>
</a>
</g>
</g>
<!-- Node2&#45;&gt;Node22 -->
<g id="edge30" class="edge"><title>Node2&#45;&gt;Node22</title>
<path fill="none" stroke="midnightblue" d="M513.359,-176.532C450.278,-173.185 365.636,-162.544 297.266,-132 267.331,-118.627 239.719,-90.3734 226.858,-75.9223"/>
<polygon fill="midnightblue" stroke="midnightblue" points="513.532,-180.044 523.688,-177.026 513.866,-173.052 513.532,-180.044"/>
</g>
<!-- Node24 -->
<g id="node24" class="node"><title>Node24</title>
<g id="a_node24"><a xlink:href="GameResources_8cpp.html" target="_top" xlink:title="Game/src/GameResources.cpp">
<polygon fill="white" stroke="black" points="345.766,-112.5 345.766,-131.5 500.766,-131.5 500.766,-112.5 345.766,-112.5"/>
<text text-anchor="middle" x="423.266" y="-119.5" font-family="Helvetica,sans-Serif" font-size="10.00">Game/src/GameResources.cpp</text>
</a>
</g>
</g>
<!-- Node2&#45;&gt;Node24 -->
<g id="edge34" class="edge"><title>Node2&#45;&gt;Node24</title>
<path fill="none" stroke="midnightblue" d="M565.947,-165.568C531.802,-155.381 482.605,-140.703 451.812,-131.516"/>
<polygon fill="midnightblue" stroke="midnightblue" points="565.003,-168.938 575.586,-168.444 567.004,-162.231 565.003,-168.938"/>
</g>
<!-- Node4 -->
<g id="node4" class="node"><title>Node4</title>
<g id="a_node4"><a xlink:href="AIArt_8cpp.html" target="_top" xlink:title="Game/src/AIArt.cpp">
<polygon fill="white" stroke="black" points="779.266,-56.5 779.266,-75.5 883.266,-75.5 883.266,-56.5 779.266,-56.5"/>
<text text-anchor="middle" x="831.266" y="-63.5" font-family="Helvetica,sans-Serif" font-size="10.00">Game/src/AIArt.cpp</text>
</a>
</g>
</g>
<!-- Node3&#45;&gt;Node4 -->
<g id="edge3" class="edge"><title>Node3&#45;&gt;Node4</title>
<path fill="none" stroke="midnightblue" d="M807.566,-103.566C813.588,-94.2747 820.735,-83.2484 825.594,-75.7511"/>
<polygon fill="midnightblue" stroke="midnightblue" points="804.547,-101.788 802.046,-112.083 810.422,-105.595 804.547,-101.788"/>
</g>
<!-- Node5 -->
<g id="node5" class="node"><title>Node5</title>
<g id="a_node5"><a xlink:href="Enemy_8cpp.html" target="_top" xlink:title="Game/src/Enemy.cpp">
<polygon fill="white" stroke="black" points="659.266,-0.5 659.266,-19.5 771.266,-19.5 771.266,-0.5 659.266,-0.5"/>
<text text-anchor="middle" x="715.266" y="-7.5" font-family="Helvetica,sans-Serif" font-size="10.00">Game/src/Enemy.cpp</text>
</a>
</g>
</g>
<!-- Node3&#45;&gt;Node5 -->
<g id="edge4" class="edge"><title>Node3&#45;&gt;Node5</title>
<path fill="none" stroke="midnightblue" d="M783.948,-104.272C766.439,-80.4942 734.992,-37.7889 721.592,-19.5914"/>
<polygon fill="midnightblue" stroke="midnightblue" points="781.162,-106.391 789.91,-112.368 786.799,-102.241 781.162,-106.391"/>
</g>
<!-- Node3&#45;&gt;Node6 -->
<g id="edge5" class="edge"><title>Node3&#45;&gt;Node6</title>
<path fill="none" stroke="midnightblue" d="M730.961,-117.043C670.448,-111.973 578.548,-100.677 502.266,-76 483.732,-70.0044 480.866,-64.3478 463.266,-56 435.056,-42.6199 401.874,-28.3868 380.955,-19.5936"/>
<polygon fill="midnightblue" stroke="midnightblue" points="730.89,-120.549 741.139,-117.862 731.451,-113.571 730.89,-120.549"/>
</g>
<!-- Node7&#45;&gt;Node5 -->
<g id="edge8" class="edge"><title>Node7&#45;&gt;Node5</title>
<path fill="none" stroke="midnightblue" d="M610.401,-52.6377C635.923,-42.504 671.375,-28.4274 693.817,-19.5164"/>
<polygon fill="midnightblue" stroke="midnightblue" points="608.818,-49.5002 600.816,-56.4435 611.401,-56.0061 608.818,-49.5002"/>
</g>
<!-- Node7&#45;&gt;Node6 -->
<g id="edge9" class="edge"><title>Node7&#45;&gt;Node6</title>
<path fill="none" stroke="midnightblue" d="M534.751,-54.0237C493.382,-43.8232 432.623,-28.8414 394.805,-19.5164"/>
<polygon fill="midnightblue" stroke="midnightblue" points="534.018,-57.4476 544.565,-56.4435 535.694,-50.6512 534.018,-57.4476"/>
</g>
<!-- Node8 -->
<g id="node8" class="node"><title>Node8</title>
<g id="a_node8"><a xlink:href="AIEngineer_8cpp.html" target="_top" xlink:title="Game/src/AIEngineer.cpp">
<polygon fill="white" stroke="black" points="511.766,-0.5 511.766,-19.5 640.766,-19.5 640.766,-0.5 511.766,-0.5"/>
<text text-anchor="middle" x="576.266" y="-7.5" font-family="Helvetica,sans-Serif" font-size="10.00">Game/src/AIEngineer.cpp</text>
</a>
</g>
</g>
<!-- Node7&#45;&gt;Node8 -->
<g id="edge7" class="edge"><title>Node7&#45;&gt;Node8</title>
<path fill="none" stroke="midnightblue" d="M578.2,-45.8045C577.705,-36.9102 577.143,-26.7798 576.752,-19.7511"/>
<polygon fill="midnightblue" stroke="midnightblue" points="574.721,-46.2926 578.771,-56.083 581.71,-45.9042 574.721,-46.2926"/>
</g>
<!-- Node9&#45;&gt;Node5 -->
<g id="edge19" class="edge"><title>Node9&#45;&gt;Node5</title>
<path fill="none" stroke="midnightblue" d="M1131.19,-107.09C1100.97,-88.9785 1050.73,-59.2361 1041.27,-56 950.042,-24.7957 837.431,-15.1766 771.267,-12.2444"/>
<polygon fill="midnightblue" stroke="midnightblue" points="1129.48,-110.147 1139.85,-112.295 1133.08,-104.146 1129.48,-110.147"/>
</g>
<!-- Node10 -->
<g id="node10" class="node"><title>Node10</title>
<g id="a_node10"><a xlink:href="StageState_8h.html" target="_top" xlink:title="Game/include/StageState.h">
<polygon fill="white" stroke="black" points="1236.77,-56.5 1236.77,-75.5 1373.77,-75.5 1373.77,-56.5 1236.77,-56.5"/>
<text text-anchor="middle" x="1305.27" y="-63.5" font-family="Helvetica,sans-Serif" font-size="10.00">Game/include/StageState.h</text>
</a>
</g>
</g>
<!-- Node9&#45;&gt;Node10 -->
<g id="edge11" class="edge"><title>Node9&#45;&gt;Node10</title>
<path fill="none" stroke="midnightblue" d="M1187.71,-109.039C1216.12,-98.8786 1256.2,-84.5457 1281.45,-75.5164"/>
<polygon fill="midnightblue" stroke="midnightblue" points="1186.43,-105.781 1178.19,-112.444 1188.79,-112.372 1186.43,-105.781"/>
</g>
<!-- Node15 -->
<g id="node15" class="node"><title>Node15</title>
<g id="a_node15"><a xlink:href="AIGoDown_8cpp.html" target="_top" xlink:title="Game/src/AIGoDown.cpp">
<polygon fill="white" stroke="black" points="1089.77,-56.5 1089.77,-75.5 1218.77,-75.5 1218.77,-56.5 1089.77,-56.5"/>
<text text-anchor="middle" x="1154.27" y="-63.5" font-family="Helvetica,sans-Serif" font-size="10.00">Game/src/AIGoDown.cpp</text>
</a>
</g>
</g>
<!-- Node9&#45;&gt;Node15 -->
<g id="edge18" class="edge"><title>Node9&#45;&gt;Node15</title>
<path fill="none" stroke="midnightblue" d="M1154.27,-101.805C1154.27,-92.9102 1154.27,-82.7798 1154.27,-75.7511"/>
<polygon fill="midnightblue" stroke="midnightblue" points="1150.77,-102.083 1154.27,-112.083 1157.77,-102.083 1150.77,-102.083"/>
</g>
<!-- Node10&#45;&gt;Node5 -->
<g id="edge13" class="edge"><title>Node10&#45;&gt;Node5</title>
<path fill="none" stroke="midnightblue" d="M1226.37,-55.9344C1054.27,-38.562 863.839,-22.838 771.377,-15.4291"/>
<polygon fill="midnightblue" stroke="midnightblue" points="1226.07,-59.4217 1236.37,-56.9479 1226.78,-52.4574 1226.07,-59.4217"/>
</g>
<!-- Node10&#45;&gt;Node6 -->
<g id="edge14" class="edge"><title>Node10&#45;&gt;Node6</title>
<path fill="none" stroke="midnightblue" d="M1226.29,-55.9767C904.043,-29.6717 821.068,-38.0171 502.266,-20 477.11,-18.5783 449.457,-16.8607 425.291,-15.3088"/>
<polygon fill="midnightblue" stroke="midnightblue" points="1226.13,-59.4753 1236.39,-56.8055 1226.71,-52.4988 1226.13,-59.4753"/>
</g>
<!-- Node11 -->
<g id="node11" class="node"><title>Node11</title>
<g id="a_node11"><a xlink:href="EndState_8cpp.html" target="_top" xlink:title="Game/src/EndState.cpp">
<polygon fill="white" stroke="black" points="1274.27,-0.5 1274.27,-19.5 1396.27,-19.5 1396.27,-0.5 1274.27,-0.5"/>
<text text-anchor="middle" x="1335.27" y="-7.5" font-family="Helvetica,sans-Serif" font-size="10.00">Game/src/EndState.cpp</text>
</a>
</g>
</g>
<!-- Node10&#45;&gt;Node11 -->
<g id="edge12" class="edge"><title>Node10&#45;&gt;Node11</title>
<path fill="none" stroke="midnightblue" d="M1315.11,-47.2747C1320.24,-38.0454 1326.28,-27.1703 1330.4,-19.7511"/>
<polygon fill="midnightblue" stroke="midnightblue" points="1312.02,-45.6416 1310.22,-56.083 1318.14,-49.0412 1312.02,-45.6416"/>
</g>
<!-- Node12 -->
<g id="node12" class="node"><title>Node12</title>
<g id="a_node12"><a xlink:href="TitleState_8cpp.html" target="_top" xlink:title="Game/src/TitleState.cpp">
<polygon fill="white" stroke="black" points="1006.77,-0.5 1006.77,-19.5 1129.77,-19.5 1129.77,-0.5 1006.77,-0.5"/>
<text text-anchor="middle" x="1068.27" y="-7.5" font-family="Helvetica,sans-Serif" font-size="10.00">Game/src/TitleState.cpp</text>
</a>
</g>
</g>
<!-- Node10&#45;&gt;Node12 -->
<g id="edge15" class="edge"><title>Node10&#45;&gt;Node12</title>
<path fill="none" stroke="midnightblue" d="M1257.94,-54.2172C1213.16,-44.0134 1146.83,-28.9006 1105.64,-19.5164"/>
<polygon fill="midnightblue" stroke="midnightblue" points="1257.18,-57.6345 1267.71,-56.4435 1258.74,-50.8094 1257.18,-57.6345"/>
</g>
<!-- Node13 -->
<g id="node13" class="node"><title>Node13</title>
<g id="a_node13"><a xlink:href="Tower_8cpp.html" target="_top" xlink:title="Game/src/Tower.cpp">
<polygon fill="white" stroke="black" points="1148.27,-0.5 1148.27,-19.5 1256.27,-19.5 1256.27,-0.5 1148.27,-0.5"/>
<text text-anchor="middle" x="1202.27" y="-7.5" font-family="Helvetica,sans-Serif" font-size="10.00">Game/src/Tower.cpp</text>
</a>
</g>
</g>
<!-- Node10&#45;&gt;Node13 -->
<g id="edge16" class="edge"><title>Node10&#45;&gt;Node13</title>
<path fill="none" stroke="midnightblue" d="M1279.69,-51.5895C1260.64,-41.6052 1235.2,-28.2672 1218.77,-19.6545"/>
<polygon fill="midnightblue" stroke="midnightblue" points="1278.24,-54.7805 1288.72,-56.324 1281.49,-48.5808 1278.24,-54.7805"/>
</g>
<!-- Node10&#45;&gt;Node14 -->
<g id="edge17" class="edge"><title>Node10&#45;&gt;Node14</title>
<path fill="none" stroke="midnightblue" d="M1343.59,-53.5677C1377.73,-43.381 1426.93,-28.7034 1457.72,-19.5164"/>
<polygon fill="midnightblue" stroke="midnightblue" points="1342.53,-50.2306 1333.95,-56.4435 1344.53,-56.9385 1342.53,-50.2306"/>
</g>
<!-- Node16&#45;&gt;Node5 -->
<g id="edge22" class="edge"><title>Node16&#45;&gt;Node5</title>
<path fill="none" stroke="midnightblue" d="M607.026,-107.714C622.195,-99.5727 641.112,-88.3597 656.266,-76 677.761,-58.4692 698.513,-33.0119 708.715,-19.7593"/>
<polygon fill="midnightblue" stroke="midnightblue" points="605.368,-104.631 598.132,-112.369 608.615,-110.833 605.368,-104.631"/>
</g>
<!-- Node17 -->
<g id="node17" class="node"><title>Node17</title>
<g id="a_node17"><a xlink:href="AIGoTo_8cpp.html" target="_top" xlink:title="Game/src/AIGoTo.cpp">
<polygon fill="white" stroke="black" points="339.766,-56.5 339.766,-75.5 454.766,-75.5 454.766,-56.5 339.766,-56.5"/>
<text text-anchor="middle" x="397.266" y="-63.5" font-family="Helvetica,sans-Serif" font-size="10.00">Game/src/AIGoTo.cpp</text>
</a>
</g>
</g>
<!-- Node16&#45;&gt;Node17 -->
<g id="edge21" class="edge"><title>Node16&#45;&gt;Node17</title>
<path fill="none" stroke="midnightblue" d="M541.523,-109.568C507.001,-99.381 457.261,-84.7034 426.127,-75.5164"/>
<polygon fill="midnightblue" stroke="midnightblue" points="540.687,-112.97 551.269,-112.444 542.669,-106.256 540.687,-112.97"/>
</g>
<!-- Node18&#45;&gt;Node5 -->
<g id="edge25" class="edge"><title>Node18&#45;&gt;Node5</title>
<path fill="none" stroke="midnightblue" d="M147.654,-55.9148C371.008,-34.1634 429.603,-42.814 649.266,-20 652.487,-19.6655 655.792,-19.2965 659.126,-18.9046"/>
<polygon fill="midnightblue" stroke="midnightblue" points="147.192,-52.4432 137.582,-56.9052 147.877,-59.4096 147.192,-52.4432"/>
</g>
<!-- Node18&#45;&gt;Node6 -->
<g id="edge26" class="edge"><title>Node18&#45;&gt;Node6</title>
<path fill="none" stroke="midnightblue" d="M130.487,-54.5371C184.349,-44.3316 265.27,-28.9992 315.318,-19.5164"/>
<polygon fill="midnightblue" stroke="midnightblue" points="129.599,-51.143 120.425,-56.4435 130.902,-58.0207 129.599,-51.143"/>
</g>
<!-- Node19 -->
<g id="node19" class="node"><title>Node19</title>
<g id="a_node19"><a xlink:href="AIMedic_8cpp.html" target="_top" xlink:title="Game/src/AIMedic.cpp">
<polygon fill="white" stroke="black" points="16.766,-0.5 16.766,-19.5 133.766,-19.5 133.766,-0.5 16.766,-0.5"/>
<text text-anchor="middle" x="75.266" y="-7.5" font-family="Helvetica,sans-Serif" font-size="10.00">Game/src/AIMedic.cpp</text>
</a>
</g>
</g>
<!-- Node18&#45;&gt;Node19 -->
<g id="edge24" class="edge"><title>Node18&#45;&gt;Node19</title>
<path fill="none" stroke="midnightblue" d="M75.266,-45.8045C75.266,-36.9102 75.266,-26.7798 75.266,-19.7511"/>
<polygon fill="midnightblue" stroke="midnightblue" points="71.7661,-46.083 75.266,-56.083 78.7661,-46.083 71.7661,-46.083"/>
</g>
<!-- Node20&#45;&gt;Node10 -->
<g id="edge28" class="edge"><title>Node20&#45;&gt;Node10</title>
<path fill="none" stroke="midnightblue" d="M1030.77,-110.854C1094.64,-100.651 1191.99,-85.0977 1251.96,-75.5164"/>
<polygon fill="midnightblue" stroke="midnightblue" points="1030.15,-107.41 1020.82,-112.444 1031.25,-114.322 1030.15,-107.41"/>
</g>
<!-- Node21 -->
<g id="node21" class="node"><title>Node21</title>
<g id="a_node21"><a xlink:href="AIPrintPath_8cpp.html" target="_top" xlink:title="Game/src/AIPrintPath.cpp">
<polygon fill="white" stroke="black" points="901.766,-56.5 901.766,-75.5 1032.77,-75.5 1032.77,-56.5 901.766,-56.5"/>
<text text-anchor="middle" x="967.266" y="-63.5" font-family="Helvetica,sans-Serif" font-size="10.00">Game/src/AIPrintPath.cpp</text>
</a>
</g>
</g>
<!-- Node20&#45;&gt;Node21 -->
<g id="edge29" class="edge"><title>Node20&#45;&gt;Node21</title>
<path fill="none" stroke="midnightblue" d="M967.266,-101.805C967.266,-92.9102 967.266,-82.7798 967.266,-75.7511"/>
<polygon fill="midnightblue" stroke="midnightblue" points="963.766,-102.083 967.266,-112.083 970.766,-102.083 963.766,-102.083"/>
</g>
<!-- Node22&#45;&gt;Node5 -->
<g id="edge32" class="edge"><title>Node22&#45;&gt;Node5</title>
<path fill="none" stroke="midnightblue" d="M293.607,-57.9319C379.393,-49.6105 524.664,-35.0118 649.266,-20 652.481,-19.6127 655.782,-19.2024 659.112,-18.7789"/>
<polygon fill="midnightblue" stroke="midnightblue" points="293.062,-54.4682 283.445,-58.9152 293.736,-61.4357 293.062,-54.4682"/>
</g>
<!-- Node22&#45;&gt;Node6 -->
<g id="edge33" class="edge"><title>Node22&#45;&gt;Node6</title>
<path fill="none" stroke="midnightblue" d="M251.195,-52.772C277.68,-42.6287 314.658,-28.4669 338.029,-19.5164"/>
<polygon fill="midnightblue" stroke="midnightblue" points="249.695,-49.5985 241.608,-56.4435 252.198,-56.1355 249.695,-49.5985"/>
</g>
<!-- Node23 -->
<g id="node23" class="node"><title>Node23</title>
<g id="a_node23"><a xlink:href="AIQuimic_8cpp.html" target="_top" xlink:title="Game/src/AIQuimic.cpp">
<polygon fill="white" stroke="black" points="155.266,-0.5 155.266,-19.5 277.266,-19.5 277.266,-0.5 155.266,-0.5"/>
<text text-anchor="middle" x="216.266" y="-7.5" font-family="Helvetica,sans-Serif" font-size="10.00">Game/src/AIQuimic.cpp</text>
</a>
</g>
</g>
<!-- Node22&#45;&gt;Node23 -->
<g id="edge31" class="edge"><title>Node22&#45;&gt;Node23</title>
<path fill="none" stroke="midnightblue" d="M218.2,-45.8045C217.705,-36.9102 217.143,-26.7798 216.752,-19.7511"/>
<polygon fill="midnightblue" stroke="midnightblue" points="214.721,-46.2926 218.771,-56.083 221.71,-45.9042 214.721,-46.2926"/>
</g>
<!-- Node25&#45;&gt;Node2 -->
<g id="edge38" class="edge"><title>Node25&#45;&gt;Node2</title>
<path fill="none" stroke="midnightblue" d="M781.141,-222.024C739.206,-211.823 677.614,-196.841 639.278,-187.516"/>
<polygon fill="midnightblue" stroke="midnightblue" points="780.545,-225.481 791.089,-224.444 782.2,-218.679 780.545,-225.481"/>
</g>
<!-- Node25&#45;&gt;Node5 -->
<g id="edge39" class="edge"><title>Node25&#45;&gt;Node5</title>
<path fill="none" stroke="midnightblue" d="M806.261,-217.913C784.168,-200.035 749.454,-168.083 732.266,-132 713.838,-93.3141 713.907,-40.3424 714.756,-19.7163"/>
<polygon fill="midnightblue" stroke="midnightblue" points="804.3,-220.825 814.321,-224.266 808.633,-215.327 804.3,-220.825"/>
</g>
<!-- Node25&#45;&gt;Node6 -->
<g id="edge40" class="edge"><title>Node25&#45;&gt;Node6</title>
<path fill="none" stroke="midnightblue" d="M756.301,-231.168C574.287,-224.72 93.8905,-196.396 4.26599,-76 -1.04181,-68.8698 -1.61209,-62.6679 4.26599,-56 5.46326,-54.6419 192.851,-31.5021 295.239,-18.9491"/>
<polygon fill="midnightblue" stroke="midnightblue" points="756.445,-234.675 766.559,-231.519 756.685,-227.679 756.445,-234.675"/>
</g>
<!-- Node25&#45;&gt;Node14 -->
<g id="edge41" class="edge"><title>Node25&#45;&gt;Node14</title>
<path fill="none" stroke="midnightblue" d="M889.718,-222.796C978.724,-207.618 1145.12,-176.077 1282.27,-132 1342.55,-112.625 1359.81,-109.941 1413.27,-76 1439.63,-59.2629 1465.8,-33.0063 1478.45,-19.5609"/>
<polygon fill="midnightblue" stroke="midnightblue" points="889.055,-219.358 879.779,-224.477 890.222,-226.26 889.055,-219.358"/>
</g>
<!-- Node26&#45;&gt;Node3 -->
<g id="edge44" class="edge"><title>Node26&#45;&gt;Node3</title>
<path fill="none" stroke="midnightblue" d="M1240.88,-277.085C1149.14,-245.291 900.145,-159 820.863,-131.524"/>
<polygon fill="midnightblue" stroke="midnightblue" points="1239.93,-280.457 1250.52,-280.425 1242.22,-273.843 1239.93,-280.457"/>
</g>
<!-- Node26&#45;&gt;Node9 -->
<g id="edge45" class="edge"><title>Node26&#45;&gt;Node9</title>
<path fill="none" stroke="midnightblue" d="M1262.7,-271.763C1237.06,-236.592 1179.54,-157.676 1160.51,-131.568"/>
<polygon fill="midnightblue" stroke="midnightblue" points="1260.04,-274.056 1268.76,-280.075 1265.7,-269.932 1260.04,-274.056"/>
</g>
<!-- Node26&#45;&gt;Node10 -->
<g id="edge51" class="edge"><title>Node26&#45;&gt;Node10</title>
<path fill="none" stroke="midnightblue" d="M1277.79,-270.295C1283.96,-224.644 1299.61,-108.854 1304.07,-75.8837"/>
<polygon fill="midnightblue" stroke="midnightblue" points="1274.31,-269.919 1276.44,-280.297 1281.25,-270.856 1274.31,-269.919"/>
</g>
<!-- Node26&#45;&gt;Node14 -->
<g id="edge52" class="edge"><title>Node26&#45;&gt;Node14</title>
<path fill="none" stroke="midnightblue" d="M1361.41,-284.222C1486.14,-274.909 1702.27,-248.712 1702.27,-179 1702.27,-179 1702.27,-179 1702.27,-121 1702.27,-90.9022 1705.18,-76.6365 1683.27,-56 1665.01,-38.8013 1605.68,-26.7756 1556.86,-19.5101"/>
<polygon fill="midnightblue" stroke="midnightblue" points="1360.83,-280.755 1351.11,-284.968 1361.34,-287.736 1360.83,-280.755"/>
</g>
<!-- Node26&#45;&gt;Node25 -->
<g id="edge43" class="edge"><title>Node26&#45;&gt;Node25</title>
<path fill="none" stroke="midnightblue" d="M1194.09,-279.237C1105.32,-268.561 965.163,-251.705 885.954,-242.179"/>
<polygon fill="midnightblue" stroke="midnightblue" points="1193.77,-282.724 1204.12,-280.444 1194.61,-275.774 1193.77,-282.724"/>
</g>
<!-- Node27 -->
<g id="node27" class="node"><title>Node27</title>
<g id="a_node27"><a xlink:href="PlayerData_8h.html" target="_top" xlink:title="Game/include/PlayerData.h">
<polygon fill="white" stroke="black" points="1445.77,-112.5 1445.77,-131.5 1582.77,-131.5 1582.77,-112.5 1445.77,-112.5"/>
<text text-anchor="middle" x="1514.27" y="-119.5" font-family="Helvetica,sans-Serif" font-size="10.00">Game/include/PlayerData.h</text>
</a>
</g>
</g>
<!-- Node26&#45;&gt;Node27 -->
<g id="edge46" class="edge"><title>Node26&#45;&gt;Node27</title>
<path fill="none" stroke="midnightblue" d="M1301.44,-275.461C1317.33,-266.953 1337.84,-255.452 1355.27,-244 1413.82,-205.515 1478.97,-152.427 1503.84,-131.743"/>
<polygon fill="midnightblue" stroke="midnightblue" points="1299.41,-272.574 1292.21,-280.345 1302.69,-278.761 1299.41,-272.574"/>
</g>
<!-- Node27&#45;&gt;Node5 -->
<g id="edge48" class="edge"><title>Node27&#45;&gt;Node5</title>
<path fill="none" stroke="midnightblue" d="M1492.3,-106.824C1466.93,-91.2707 1423.39,-67.0488 1382.27,-56 1324.09,-40.3691 921.54,-20.4926 771.484,-13.5388"/>
<polygon fill="midnightblue" stroke="midnightblue" points="1490.75,-109.986 1501.09,-112.315 1494.46,-104.049 1490.75,-109.986"/>
</g>
<!-- Node27&#45;&gt;Node10 -->
<g id="edge47" class="edge"><title>Node27&#45;&gt;Node10</title>
<path fill="none" stroke="midnightblue" d="M1471.28,-109.894C1431.81,-99.6966 1374.17,-84.802 1338.23,-75.5164"/>
<polygon fill="midnightblue" stroke="midnightblue" points="1470.59,-113.331 1481.15,-112.444 1472.34,-106.553 1470.59,-113.331"/>
</g>
<!-- Node27&#45;&gt;Node14 -->
<g id="edge50" class="edge"><title>Node27&#45;&gt;Node14</title>
<path fill="none" stroke="midnightblue" d="M1509.6,-102.674C1503.48,-78.6248 1492.98,-37.3881 1488.45,-19.5914"/>
<polygon fill="midnightblue" stroke="midnightblue" points="1506.21,-103.541 1512.07,-112.368 1512.99,-101.814 1506.21,-103.541"/>
</g>
<!-- Node27&#45;&gt;Node28 -->
<g id="edge49" class="edge"><title>Node27&#45;&gt;Node28</title>
<path fill="none" stroke="midnightblue" d="M1538.58,-107.177C1556.06,-97.2407 1579.1,-84.1492 1594.04,-75.6545"/>
<polygon fill="midnightblue" stroke="midnightblue" points="1536.49,-104.339 1529.53,-112.324 1539.95,-110.425 1536.49,-104.339"/>
</g>
</g>
</svg>
