<?xml version="1.0" encoding="UTF-8" standalone="no"?>
<!DOCTYPE svg PUBLIC "-//W3C//DTD SVG 1.1//EN"
 "http://www.w3.org/Graphics/SVG/1.1/DTD/svg11.dtd">
<!-- Generated by graphviz version 2.36.0 (20140111.2315)
 -->
<!-- Title: Game/include/WaveManager.h Pages: 1 -->
<svg width="1121pt" height="364pt"
 viewBox="0.00 0.00 1120.71 364.00" xmlns="http://www.w3.org/2000/svg" xmlns:xlink="http://www.w3.org/1999/xlink">
<g id="graph0" class="graph" transform="scale(1 1) rotate(0) translate(4 360)">
<title>Game/include/WaveManager.h</title>
<polygon fill="white" stroke="none" points="-4,4 -4,-360 1116.71,-360 1116.71,4 -4,4"/>
<!-- Node1 -->
<g id="node1" class="node"><title>Node1</title>
<polygon fill="#bfbfbf" stroke="black" points="762.793,-336.5 762.793,-355.5 913.793,-355.5 913.793,-336.5 762.793,-336.5"/>
<text text-anchor="middle" x="838.293" y="-343.5" font-family="Helvetica,sans-Serif" font-size="10.00">Game/include/WaveManager.h</text>
</g>
<!-- Node2 -->
<g id="node2" class="node"><title>Node2</title>
<polygon fill="white" stroke="#bfbfbf" points="106.293,-112.5 106.293,-131.5 158.293,-131.5 158.293,-112.5 106.293,-112.5"/>
<text text-anchor="middle" x="132.293" y="-119.5" font-family="Helvetica,sans-Serif" font-size="10.00">memory</text>
</g>
<!-- Node1&#45;&gt;Node2 -->
<g id="edge1" class="edge"><title>Node1&#45;&gt;Node2</title>
<path fill="none" stroke="midnightblue" d="M762.763,-343.901C610.658,-341.046 272.488,-331.286 161.293,-300 79.4787,-276.981 35.7807,-267.712 6.29329,-188 3.20932,-179.663 1.17286,-175.266 6.29329,-168 16.934,-152.901 62.9871,-139.194 96.3437,-130.977"/>
<polygon fill="midnightblue" stroke="midnightblue" points="97.3253,-134.341 106.235,-128.608 95.6947,-127.534 97.3253,-134.341"/>
</g>
<!-- Node3 -->
<g id="node3" class="node"><title>Node3</title>
<g id="a_node3"><a xlink:href="GameObject_8h.html" target="_top" xlink:title="GameObject.h">
<polygon fill="white" stroke="black" points="708.293,-168.5 708.293,-187.5 788.293,-187.5 788.293,-168.5 708.293,-168.5"/>
<text text-anchor="middle" x="748.293" y="-175.5" font-family="Helvetica,sans-Serif" font-size="10.00">GameObject.h</text>
</a>
</g>
</g>
<!-- Node1&#45;&gt;Node3 -->
<g id="edge2" class="edge"><title>Node1&#45;&gt;Node3</title>
<path fill="none" stroke="midnightblue" d="M840.28,-336.433C842.26,-327.424 845.164,-312.805 846.293,-300 849.383,-264.971 847.088,-250.776 824.293,-224 812.552,-210.208 795.464,-199.563 780.465,-192.097"/>
<polygon fill="midnightblue" stroke="midnightblue" points="781.526,-188.729 770.986,-187.649 778.552,-195.066 781.526,-188.729"/>
</g>
<!-- Node7 -->
<g id="node7" class="node"><title>Node7</title>
<g id="a_node7"><a xlink:href="Component_8h.html" target="_top" xlink:title="Component.h">
<polygon fill="white" stroke="black" points="774.793,-112.5 774.793,-131.5 849.793,-131.5 849.793,-112.5 774.793,-112.5"/>
<text text-anchor="middle" x="812.293" y="-119.5" font-family="Helvetica,sans-Serif" font-size="10.00">Component.h</text>
</a>
</g>
</g>
<!-- Node1&#45;&gt;Node7 -->
<g id="edge53" class="edge"><title>Node1&#45;&gt;Node7</title>
<path fill="none" stroke="midnightblue" d="M893.227,-336.485C924.271,-329.912 962.837,-318.677 993.293,-300 1057.2,-260.811 1147.01,-224.978 1098.29,-168 1097.33,-166.868 940.848,-142.719 859.789,-130.276"/>
<polygon fill="midnightblue" stroke="midnightblue" points="860.235,-126.803 849.82,-128.746 859.174,-133.722 860.235,-126.803"/>
</g>
<!-- Node12 -->
<g id="node12" class="node"><title>Node12</title>
<g id="a_node12"><a xlink:href="Timer_8h.html" target="_top" xlink:title="Timer.h">
<polygon fill="white" stroke="black" points="787.293,-280.5 787.293,-299.5 837.293,-299.5 837.293,-280.5 787.293,-280.5"/>
<text text-anchor="middle" x="812.293" y="-287.5" font-family="Helvetica,sans-Serif" font-size="10.00">Timer.h</text>
</a>
</g>
</g>
<!-- Node1&#45;&gt;Node12 -->
<g id="edge16" class="edge"><title>Node1&#45;&gt;Node12</title>
<path fill="none" stroke="midnightblue" d="M834,-336.083C830.441,-328.691 825.271,-317.953 820.869,-308.811"/>
<polygon fill="midnightblue" stroke="midnightblue" points="823.998,-307.243 816.507,-299.751 817.691,-310.279 823.998,-307.243"/>
</g>
<!-- Node13 -->
<g id="node13" class="node"><title>Node13</title>
<g id="a_node13"><a xlink:href="TileMap_8h.html" target="_top" xlink:title="TileMap.h">
<polygon fill="white" stroke="black" points="367.793,-280.5 367.793,-299.5 426.793,-299.5 426.793,-280.5 367.793,-280.5"/>
<text text-anchor="middle" x="397.293" y="-287.5" font-family="Helvetica,sans-Serif" font-size="10.00">TileMap.h</text>
</a>
</g>
</g>
<!-- Node1&#45;&gt;Node13 -->
<g id="edge17" class="edge"><title>Node1&#45;&gt;Node13</title>
<path fill="none" stroke="midnightblue" d="M768.416,-336.444C674.819,-324.983 511.867,-305.029 436.99,-295.861"/>
<polygon fill="midnightblue" stroke="midnightblue" points="437.377,-292.382 427.026,-294.641 436.526,-299.33 437.377,-292.382"/>
</g>
<!-- Node30 -->
<g id="node30" class="node"><title>Node30</title>
<g id="a_node30"><a xlink:href="WaveData_8h.html" target="_top" xlink:title="WaveData.h">
<polygon fill="white" stroke="black" points="893.793,-280.5 893.793,-299.5 964.793,-299.5 964.793,-280.5 893.793,-280.5"/>
<text text-anchor="middle" x="929.293" y="-287.5" font-family="Helvetica,sans-Serif" font-size="10.00">WaveData.h</text>
</a>
</g>
</g>
<!-- Node1&#45;&gt;Node30 -->
<g id="edge54" class="edge"><title>Node1&#45;&gt;Node30</title>
<path fill="none" stroke="midnightblue" d="M852.914,-336.324C867.242,-327.822 889.306,-314.729 906.042,-304.797"/>
<polygon fill="midnightblue" stroke="midnightblue" points="907.895,-307.768 914.709,-299.655 904.323,-301.748 907.895,-307.768"/>
</g>
<!-- Node31 -->
<g id="node31" class="node"><title>Node31</title>
<g id="a_node31"><a xlink:href="Error_8h.html" target="_top" xlink:title="Error.h">
<polygon fill="white" stroke="black" points="970.293,-224.5 970.293,-243.5 1016.29,-243.5 1016.29,-224.5 970.293,-224.5"/>
<text text-anchor="middle" x="993.293" y="-231.5" font-family="Helvetica,sans-Serif" font-size="10.00">Error.h</text>
</a>
</g>
</g>
<!-- Node1&#45;&gt;Node31 -->
<g id="edge60" class="edge"><title>Node1&#45;&gt;Node31</title>
<path fill="none" stroke="midnightblue" d="M902.443,-336.493C927.457,-330.178 954.561,-319.173 973.293,-300 985.273,-287.739 990.097,-268.478 992.029,-254.101"/>
<polygon fill="midnightblue" stroke="midnightblue" points="995.542,-254.14 993.04,-243.845 988.576,-253.454 995.542,-254.14"/>
</g>
<!-- Node34 -->
<g id="node34" class="node"><title>Node34</title>
<g id="a_node34"><a xlink:href="Sound_8h.html" target="_top" xlink:title="Sound.h">
<polygon fill="white" stroke="black" points="105.793,-168.5 105.793,-187.5 158.793,-187.5 158.793,-168.5 105.793,-168.5"/>
<text text-anchor="middle" x="132.293" y="-175.5" font-family="Helvetica,sans-Serif" font-size="10.00">Sound.h</text>
</a>
</g>
</g>
<!-- Node1&#45;&gt;Node34 -->
<g id="edge61" class="edge"><title>Node1&#45;&gt;Node34</title>
<path fill="none" stroke="midnightblue" d="M762.778,-340.916C576.456,-330.049 106.662,-297.55 62.2933,-244 45.8021,-224.096 75.3382,-204.335 100.969,-191.92"/>
<polygon fill="midnightblue" stroke="midnightblue" points="102.526,-195.057 110.143,-187.692 99.5962,-188.699 102.526,-195.057"/>
</g>
<!-- Node3&#45;&gt;Node2 -->
<g id="edge5" class="edge"><title>Node3&#45;&gt;Node2</title>
<path fill="none" stroke="midnightblue" d="M707.876,-173.457C594.806,-163.545 276.499,-135.641 168.593,-126.182"/>
<polygon fill="midnightblue" stroke="midnightblue" points="168.796,-122.687 158.528,-125.3 168.184,-129.66 168.796,-122.687"/>
</g>
<!-- Node4 -->
<g id="node4" class="node"><title>Node4</title>
<g id="a_node4"><a xlink:href="SDL__include_8h.html" target="_top" xlink:title="SDL_include.h">
<polygon fill="white" stroke="black" points="481.293,-0.5 481.293,-19.5 561.293,-19.5 561.293,-0.5 481.293,-0.5"/>
<text text-anchor="middle" x="521.293" y="-7.5" font-family="Helvetica,sans-Serif" font-size="10.00">SDL_include.h</text>
</a>
</g>
</g>
<!-- Node3&#45;&gt;Node4 -->
<g id="edge3" class="edge"><title>Node3&#45;&gt;Node4</title>
<path fill="none" stroke="midnightblue" d="M744.725,-168.201C735.253,-145.954 707.298,-87.0283 665.293,-56 637.873,-35.7448 601.112,-24.4538 571.597,-18.2477"/>
<polygon fill="midnightblue" stroke="midnightblue" points="571.974,-14.7548 561.486,-16.2582 570.622,-21.6231 571.974,-14.7548"/>
</g>
<!-- Node5 -->
<g id="node5" class="node"><title>Node5</title>
<polygon fill="white" stroke="#bfbfbf" points="881.293,-112.5 881.293,-131.5 925.293,-131.5 925.293,-112.5 881.293,-112.5"/>
<text text-anchor="middle" x="903.293" y="-119.5" font-family="Helvetica,sans-Serif" font-size="10.00">vector</text>
</g>
<!-- Node3&#45;&gt;Node5 -->
<g id="edge4" class="edge"><title>Node3&#45;&gt;Node5</title>
<path fill="none" stroke="midnightblue" d="M772.853,-168.444C799.427,-159.186 841.906,-144.387 871.126,-134.207"/>
<polygon fill="midnightblue" stroke="midnightblue" points="872.569,-137.41 880.861,-130.815 870.266,-130.8 872.569,-137.41"/>
</g>
<!-- Node6 -->
<g id="node6" class="node"><title>Node6</title>
<polygon fill="white" stroke="#bfbfbf" points="292.793,-112.5 292.793,-131.5 333.793,-131.5 333.793,-112.5 292.793,-112.5"/>
<text text-anchor="middle" x="313.293" y="-119.5" font-family="Helvetica,sans-Serif" font-size="10.00">string</text>
</g>
<!-- Node3&#45;&gt;Node6 -->
<g id="edge6" class="edge"><title>Node3&#45;&gt;Node6</title>
<path fill="none" stroke="midnightblue" d="M708.256,-174.956C636.849,-170.791 482.79,-159.462 343.805,-131.719"/>
<polygon fill="midnightblue" stroke="midnightblue" points="344.322,-128.253 333.825,-129.693 342.929,-135.113 344.322,-128.253"/>
</g>
<!-- Node3&#45;&gt;Node7 -->
<g id="edge7" class="edge"><title>Node3&#45;&gt;Node7</title>
<path fill="none" stroke="midnightblue" d="M753.695,-168.083C761.663,-159.905 775.894,-147.631 788.457,-137.954"/>
<polygon fill="midnightblue" stroke="midnightblue" points="790.858,-140.529 796.791,-131.751 786.679,-134.914 790.858,-140.529"/>
</g>
<!-- Node8 -->
<g id="node8" class="node"><title>Node8</title>
<g id="a_node8"><a xlink:href="ComponentType_8h.html" target="_top" xlink:title="ComponentType.h">
<polygon fill="white" stroke="black" points="749.793,-56.5 749.793,-75.5 846.793,-75.5 846.793,-56.5 749.793,-56.5"/>
<text text-anchor="middle" x="798.293" y="-63.5" font-family="Helvetica,sans-Serif" font-size="10.00">ComponentType.h</text>
</a>
</g>
</g>
<!-- Node3&#45;&gt;Node8 -->
<g id="edge10" class="edge"><title>Node3&#45;&gt;Node8</title>
<path fill="none" stroke="midnightblue" d="M749.513,-168.228C751.531,-155.391 756.269,-130.957 765.293,-112 770.125,-101.85 777.356,-91.6566 783.819,-83.544"/>
<polygon fill="midnightblue" stroke="midnightblue" points="786.674,-85.584 790.38,-75.6584 781.294,-81.1067 786.674,-85.584"/>
</g>
<!-- Node9 -->
<g id="node9" class="node"><title>Node9</title>
<g id="a_node9"><a xlink:href="Rect_8h.html" target="_top" xlink:title="Rect.h">
<polygon fill="white" stroke="black" points="596.293,-112.5 596.293,-131.5 642.293,-131.5 642.293,-112.5 596.293,-112.5"/>
<text text-anchor="middle" x="619.293" y="-119.5" font-family="Helvetica,sans-Serif" font-size="10.00">Rect.h</text>
</a>
</g>
</g>
<!-- Node3&#45;&gt;Node9 -->
<g id="edge11" class="edge"><title>Node3&#45;&gt;Node9</title>
<path fill="none" stroke="midnightblue" d="M727.853,-168.444C706.623,-159.557 673.194,-145.563 649.038,-135.451"/>
<polygon fill="midnightblue" stroke="midnightblue" points="650.214,-132.149 639.638,-131.516 647.511,-138.606 650.214,-132.149"/>
</g>
<!-- Node7&#45;&gt;Node3 -->
<g id="edge9" class="edge"><title>Node7&#45;&gt;Node3</title>
<path fill="none" stroke="midnightblue" d="M806.972,-131.834C799.006,-140.027 784.682,-152.382 772.059,-162.101"/>
<polygon fill="midnightblue" stroke="midnightblue" points="769.626,-159.548 763.691,-168.324 773.804,-165.165 769.626,-159.548"/>
</g>
<!-- Node7&#45;&gt;Node8 -->
<g id="edge8" class="edge"><title>Node7&#45;&gt;Node8</title>
<path fill="none" stroke="midnightblue" d="M809.981,-112.083C808.126,-104.927 805.458,-94.6353 803.139,-85.6911"/>
<polygon fill="midnightblue" stroke="midnightblue" points="806.46,-84.5527 800.562,-75.7511 799.684,-86.3094 806.46,-84.5527"/>
</g>
<!-- Node9&#45;&gt;Node4 -->
<g id="edge12" class="edge"><title>Node9&#45;&gt;Node4</title>
<path fill="none" stroke="midnightblue" d="M628.415,-112.45C641.139,-99.4716 661.271,-74.3672 648.293,-56 630.921,-31.4141 598.92,-20.1751 571.388,-15.077"/>
<polygon fill="midnightblue" stroke="midnightblue" points="571.915,-11.6168 561.482,-13.4633 570.789,-18.5257 571.915,-11.6168"/>
</g>
<!-- Node10 -->
<g id="node10" class="node"><title>Node10</title>
<g id="a_node10"><a xlink:href="Vec2_8h.html" target="_top" xlink:title="Vec2.h">
<polygon fill="white" stroke="black" points="445.793,-56.5 445.793,-75.5 492.793,-75.5 492.793,-56.5 445.793,-56.5"/>
<text text-anchor="middle" x="469.293" y="-63.5" font-family="Helvetica,sans-Serif" font-size="10.00">Vec2.h</text>
</a>
</g>
</g>
<!-- Node9&#45;&gt;Node10 -->
<g id="edge13" class="edge"><title>Node9&#45;&gt;Node10</title>
<path fill="none" stroke="midnightblue" d="M596.185,-112.681C571.19,-103.683 531.115,-89.2558 502.695,-79.0247"/>
<polygon fill="midnightblue" stroke="midnightblue" points="503.767,-75.6907 493.173,-75.5966 501.396,-82.2769 503.767,-75.6907"/>
</g>
<!-- Node11 -->
<g id="node11" class="node"><title>Node11</title>
<polygon fill="white" stroke="#bfbfbf" points="596.293,-56.5 596.293,-75.5 640.293,-75.5 640.293,-56.5 596.293,-56.5"/>
<text text-anchor="middle" x="618.293" y="-63.5" font-family="Helvetica,sans-Serif" font-size="10.00">cmath</text>
</g>
<!-- Node9&#45;&gt;Node11 -->
<g id="edge15" class="edge"><title>Node9&#45;&gt;Node11</title>
<path fill="none" stroke="midnightblue" d="M619.128,-112.083C618.997,-105.006 618.809,-94.8611 618.645,-85.9865"/>
<polygon fill="midnightblue" stroke="midnightblue" points="622.14,-85.6845 618.455,-75.7511 615.141,-85.8142 622.14,-85.6845"/>
</g>
<!-- Node10&#45;&gt;Node4 -->
<g id="edge14" class="edge"><title>Node10&#45;&gt;Node4</title>
<path fill="none" stroke="midnightblue" d="M477.88,-56.083C485.452,-48.2195 496.671,-36.5688 505.808,-27.0813"/>
<polygon fill="midnightblue" stroke="midnightblue" points="508.451,-29.3821 512.866,-19.7511 503.409,-24.5266 508.451,-29.3821"/>
</g>
<!-- Node13&#45;&gt;Node3 -->
<g id="edge40" class="edge"><title>Node13&#45;&gt;Node3</title>
<path fill="none" stroke="midnightblue" d="M426.902,-287.986C516.787,-284.605 781.933,-272.296 807.293,-244 823.296,-226.145 797.347,-205.687 774.966,-192.569"/>
<polygon fill="midnightblue" stroke="midnightblue" points="776.476,-189.403 766.037,-187.59 773.067,-195.517 776.476,-189.403"/>
</g>
<!-- Node13&#45;&gt;Node5 -->
<g id="edge19" class="edge"><title>Node13&#45;&gt;Node5</title>
<path fill="none" stroke="midnightblue" d="M426.925,-289.118C512.378,-288.962 757.434,-284.872 824.293,-244 863.409,-220.088 886.936,-168.657 897.198,-141.18"/>
<polygon fill="midnightblue" stroke="midnightblue" points="900.543,-142.22 900.588,-131.625 893.946,-139.879 900.543,-142.22"/>
</g>
<!-- Node13&#45;&gt;Node6 -->
<g id="edge18" class="edge"><title>Node13&#45;&gt;Node6</title>
<path fill="none" stroke="midnightblue" d="M367.681,-281.617C348.515,-275.134 325.022,-263.588 313.293,-244 294.211,-212.129 301.491,-166.554 307.818,-141.414"/>
<polygon fill="midnightblue" stroke="midnightblue" points="311.211,-142.276 310.476,-131.707 304.46,-140.427 311.211,-142.276"/>
</g>
<!-- Node13&#45;&gt;Node10 -->
<g id="edge39" class="edge"><title>Node13&#45;&gt;Node10</title>
<path fill="none" stroke="midnightblue" d="M367.7,-288.108C293.645,-285.421 102.392,-275.535 48.2933,-244 14.9518,-224.565 -12.5322,-201.689 6.29329,-168 29.4586,-126.544 52.3471,-127.331 97.2933,-112 237.613,-64.1365 285.342,-102.306 435.561,-75.7905"/>
<polygon fill="midnightblue" stroke="midnightblue" points="436.401,-79.1949 445.606,-73.9488 435.139,-72.3096 436.401,-79.1949"/>
</g>
<!-- Node14 -->
<g id="node14" class="node"><title>Node14</title>
<polygon fill="white" stroke="#bfbfbf" points="550.793,-224.5 550.793,-243.5 579.793,-243.5 579.793,-224.5 550.793,-224.5"/>
<text text-anchor="middle" x="565.293" y="-231.5" font-family="Helvetica,sans-Serif" font-size="10.00">list</text>
</g>
<!-- Node13&#45;&gt;Node14 -->
<g id="edge20" class="edge"><title>Node13&#45;&gt;Node14</title>
<path fill="none" stroke="midnightblue" d="M423.913,-280.444C456.166,-270.077 510.038,-252.761 541.139,-242.764"/>
<polygon fill="midnightblue" stroke="midnightblue" points="542.3,-246.067 550.749,-239.675 540.158,-239.403 542.3,-246.067"/>
</g>
<!-- Node15 -->
<g id="node15" class="node"><title>Node15</title>
<polygon fill="white" stroke="#bfbfbf" points="597.793,-224.5 597.793,-243.5 640.793,-243.5 640.793,-224.5 597.793,-224.5"/>
<text text-anchor="middle" x="619.293" y="-231.5" font-family="Helvetica,sans-Serif" font-size="10.00">queue</text>
</g>
<!-- Node13&#45;&gt;Node15 -->
<g id="edge21" class="edge"><title>Node13&#45;&gt;Node15</title>
<path fill="none" stroke="midnightblue" d="M426.858,-282.528C462.656,-274.583 524.987,-260.407 587.954,-243.983"/>
<polygon fill="midnightblue" stroke="midnightblue" points="588.869,-247.361 597.652,-241.436 587.091,-240.591 588.869,-247.361"/>
</g>
<!-- Node16 -->
<g id="node16" class="node"><title>Node16</title>
<polygon fill="white" stroke="#bfbfbf" points="502.293,-168.5 502.293,-187.5 542.293,-187.5 542.293,-168.5 502.293,-168.5"/>
<text text-anchor="middle" x="522.293" y="-175.5" font-family="Helvetica,sans-Serif" font-size="10.00">limits</text>
</g>
<!-- Node13&#45;&gt;Node16 -->
<g id="edge22" class="edge"><title>Node13&#45;&gt;Node16</title>
<path fill="none" stroke="midnightblue" d="M427.112,-283.386C450.643,-277.459 482.671,-265.83 502.293,-244 513.753,-231.251 518.647,-212.056 520.737,-197.827"/>
<polygon fill="midnightblue" stroke="midnightblue" points="524.236,-198.029 521.883,-187.699 517.281,-197.241 524.236,-198.029"/>
</g>
<!-- Node17 -->
<g id="node17" class="node"><title>Node17</title>
<polygon fill="white" stroke="#bfbfbf" points="79.7933,-224.5 79.7933,-243.5 114.793,-243.5 114.793,-224.5 79.7933,-224.5"/>
<text text-anchor="middle" x="97.2933" y="-231.5" font-family="Helvetica,sans-Serif" font-size="10.00">map</text>
</g>
<!-- Node13&#45;&gt;Node17 -->
<g id="edge23" class="edge"><title>Node13&#45;&gt;Node17</title>
<path fill="none" stroke="midnightblue" d="M367.759,-285.824C318.899,-280.213 218.114,-267.124 124.936,-244.086"/>
<polygon fill="midnightblue" stroke="midnightblue" points="125.626,-240.651 115.074,-241.603 123.917,-247.439 125.626,-240.651"/>
</g>
<!-- Node18 -->
<g id="node18" class="node"><title>Node18</title>
<polygon fill="white" stroke="#bfbfbf" points="132.793,-224.5 132.793,-243.5 191.793,-243.5 191.793,-224.5 132.793,-224.5"/>
<text text-anchor="middle" x="162.293" y="-231.5" font-family="Helvetica,sans-Serif" font-size="10.00">functional</text>
</g>
<!-- Node13&#45;&gt;Node18 -->
<g id="edge24" class="edge"><title>Node13&#45;&gt;Node18</title>
<path fill="none" stroke="midnightblue" d="M367.738,-282.225C331.241,-273.857 266.993,-259.118 202.098,-244.183"/>
<polygon fill="midnightblue" stroke="midnightblue" points="202.633,-240.715 192.103,-241.883 201.063,-247.537 202.633,-240.715"/>
</g>
<!-- Node19 -->
<g id="node19" class="node"><title>Node19</title>
<polygon fill="white" stroke="#bfbfbf" points="210.293,-224.5 210.293,-243.5 266.293,-243.5 266.293,-224.5 210.293,-224.5"/>
<text text-anchor="middle" x="238.293" y="-231.5" font-family="Helvetica,sans-Serif" font-size="10.00">algorithm</text>
</g>
<!-- Node13&#45;&gt;Node19 -->
<g id="edge25" class="edge"><title>Node13&#45;&gt;Node19</title>
<path fill="none" stroke="midnightblue" d="M372.099,-280.444C345.351,-271.359 302.891,-256.939 272.988,-246.783"/>
<polygon fill="midnightblue" stroke="midnightblue" points="273.964,-243.418 263.369,-243.516 271.713,-250.046 273.964,-243.418"/>
</g>
<!-- Node20 -->
<g id="node20" class="node"><title>Node20</title>
<g id="a_node20"><a xlink:href="Tileset_8h.html" target="_top" xlink:title="Tileset.h">
<polygon fill="white" stroke="black" points="322.293,-224.5 322.293,-243.5 376.293,-243.5 376.293,-224.5 322.293,-224.5"/>
<text text-anchor="middle" x="349.293" y="-231.5" font-family="Helvetica,sans-Serif" font-size="10.00">Tileset.h</text>
</a>
</g>
</g>
<!-- Node13&#45;&gt;Node20 -->
<g id="edge26" class="edge"><title>Node13&#45;&gt;Node20</title>
<path fill="none" stroke="midnightblue" d="M389.367,-280.083C382.447,-272.298 372.228,-260.801 363.841,-251.367"/>
<polygon fill="midnightblue" stroke="midnightblue" points="366.332,-248.9 357.072,-243.751 361.1,-253.55 366.332,-248.9"/>
</g>
<!-- Node26 -->
<g id="node26" class="node"><title>Node26</title>
<g id="a_node26"><a xlink:href="AStarHeuristic_8h.html" target="_top" xlink:title="AStarHeuristic.h">
<polygon fill="white" stroke="black" points="176.793,-168.5 176.793,-187.5 265.793,-187.5 265.793,-168.5 176.793,-168.5"/>
<text text-anchor="middle" x="221.293" y="-175.5" font-family="Helvetica,sans-Serif" font-size="10.00">AStarHeuristic.h</text>
</a>
</g>
</g>
<!-- Node13&#45;&gt;Node26 -->
<g id="edge41" class="edge"><title>Node13&#45;&gt;Node26</title>
<path fill="none" stroke="midnightblue" d="M367.592,-289.632C294.453,-290.486 108.799,-288.167 70.2933,-244 64.452,-237.3 64.9807,-231.127 70.2933,-224 82.0743,-208.196 128.448,-195.924 166.732,-188.216"/>
<polygon fill="midnightblue" stroke="midnightblue" points="167.625,-191.608 176.77,-186.26 166.286,-184.738 167.625,-191.608"/>
</g>
<!-- Node27 -->
<g id="node27" class="node"><title>Node27</title>
<g id="a_node27"><a xlink:href="Resources_8h.html" target="_top" xlink:title="Resources.h">
<polygon fill="white" stroke="black" points="15.2933,-168.5 15.2933,-187.5 87.2933,-187.5 87.2933,-168.5 15.2933,-168.5"/>
<text text-anchor="middle" x="51.2933" y="-175.5" font-family="Helvetica,sans-Serif" font-size="10.00">Resources.h</text>
</a>
</g>
</g>
<!-- Node13&#45;&gt;Node27 -->
<g id="edge43" class="edge"><title>Node13&#45;&gt;Node27</title>
<path fill="none" stroke="midnightblue" d="M367.584,-289.331C293.885,-289.502 105.492,-285.749 62.2933,-244 50.0952,-232.211 48.3346,-212.284 49.0143,-197.594"/>
<polygon fill="midnightblue" stroke="midnightblue" points="52.5036,-197.868 49.8773,-187.604 45.5296,-197.265 52.5036,-197.868"/>
</g>
<!-- Node28 -->
<g id="node28" class="node"><title>Node28</title>
<g id="a_node28"><a xlink:href="TileMapObserver_8h.html" target="_top" xlink:title="TileMapObserver.h">
<polygon fill="white" stroke="black" points="394.793,-224.5 394.793,-243.5 493.793,-243.5 493.793,-224.5 394.793,-224.5"/>
<text text-anchor="middle" x="444.293" y="-231.5" font-family="Helvetica,sans-Serif" font-size="10.00">TileMapObserver.h</text>
</a>
</g>
</g>
<!-- Node13&#45;&gt;Node28 -->
<g id="edge48" class="edge"><title>Node13&#45;&gt;Node28</title>
<path fill="none" stroke="midnightblue" d="M405.054,-280.083C411.83,-272.298 421.836,-260.801 430.048,-251.367"/>
<polygon fill="midnightblue" stroke="midnightblue" points="432.751,-253.592 436.677,-243.751 427.471,-248.996 432.751,-253.592"/>
</g>
<!-- Node29 -->
<g id="node29" class="node"><title>Node29</title>
<g id="a_node29"><a xlink:href="NearestGOFinder_8h.html" target="_top" xlink:title="NearestGOFinder.h">
<polygon fill="white" stroke="black" points="697.793,-224.5 697.793,-243.5 798.793,-243.5 798.793,-224.5 697.793,-224.5"/>
<text text-anchor="middle" x="748.293" y="-231.5" font-family="Helvetica,sans-Serif" font-size="10.00">NearestGOFinder.h</text>
</a>
</g>
</g>
<!-- Node13&#45;&gt;Node29 -->
<g id="edge49" class="edge"><title>Node13&#45;&gt;Node29</title>
<path fill="none" stroke="midnightblue" d="M426.917,-284.443C484.334,-275.609 611.792,-256 687.809,-244.305"/>
<polygon fill="midnightblue" stroke="midnightblue" points="688.374,-247.76 697.725,-242.78 687.31,-240.841 688.374,-247.76"/>
</g>
<!-- Node20&#45;&gt;Node6 -->
<g id="edge27" class="edge"><title>Node20&#45;&gt;Node6</title>
<path fill="none" stroke="midnightblue" d="M346.468,-224.368C340.633,-206.537 327.135,-165.295 319.273,-141.272"/>
<polygon fill="midnightblue" stroke="midnightblue" points="322.542,-140.007 316.105,-131.591 315.889,-142.184 322.542,-140.007"/>
</g>
<!-- Node21 -->
<g id="node21" class="node"><title>Node21</title>
<g id="a_node21"><a xlink:href="Sprite_8h.html" target="_top" xlink:title="Sprite.h">
<polygon fill="white" stroke="black" points="434.293,-168.5 434.293,-187.5 484.293,-187.5 484.293,-168.5 434.293,-168.5"/>
<text text-anchor="middle" x="459.293" y="-175.5" font-family="Helvetica,sans-Serif" font-size="10.00">Sprite.h</text>
</a>
</g>
</g>
<!-- Node20&#45;&gt;Node21 -->
<g id="edge28" class="edge"><title>Node20&#45;&gt;Node21</title>
<path fill="none" stroke="midnightblue" d="M366.967,-224.324C384.687,-215.625 412.196,-202.12 432.582,-192.113"/>
<polygon fill="midnightblue" stroke="midnightblue" points="434.229,-195.203 441.664,-187.655 431.145,-188.919 434.229,-195.203"/>
</g>
<!-- Node21&#45;&gt;Node2 -->
<g id="edge31" class="edge"><title>Node21&#45;&gt;Node2</title>
<path fill="none" stroke="midnightblue" d="M434.177,-172.852C376.684,-163.358 235.335,-140.016 168.468,-128.974"/>
<polygon fill="midnightblue" stroke="midnightblue" points="168.837,-125.487 158.4,-127.311 167.697,-132.394 168.837,-125.487"/>
</g>
<!-- Node21&#45;&gt;Node4 -->
<g id="edge29" class="edge"><title>Node21&#45;&gt;Node4</title>
<path fill="none" stroke="midnightblue" d="M473.35,-168.5C485.166,-160.575 501.496,-147.644 510.293,-132 528.494,-99.6335 526.865,-54.564 524.071,-29.5671"/>
<polygon fill="midnightblue" stroke="midnightblue" points="527.537,-29.0755 522.773,-19.6122 520.596,-29.9809 527.537,-29.0755"/>
</g>
<!-- Node21&#45;&gt;Node6 -->
<g id="edge30" class="edge"><title>Node21&#45;&gt;Node6</title>
<path fill="none" stroke="midnightblue" d="M436.159,-168.444C411.095,-159.173 371.008,-144.346 343.481,-134.165"/>
<polygon fill="midnightblue" stroke="midnightblue" points="344.552,-130.83 333.959,-130.643 342.123,-137.395 344.552,-130.83"/>
</g>
<!-- Node21&#45;&gt;Node9 -->
<g id="edge33" class="edge"><title>Node21&#45;&gt;Node9</title>
<path fill="none" stroke="midnightblue" d="M484.646,-168.444C512.196,-159.145 556.309,-144.257 586.483,-134.073"/>
<polygon fill="midnightblue" stroke="midnightblue" points="587.782,-137.329 596.137,-130.815 585.543,-130.697 587.782,-137.329"/>
</g>
<!-- Node22 -->
<g id="node22" class="node"><title>Node22</title>
<g id="a_node22"><a xlink:href="Color_8h.html" target="_top" xlink:title="Color.h">
<polygon fill="white" stroke="black" points="352.293,-112.5 352.293,-131.5 400.293,-131.5 400.293,-112.5 352.293,-112.5"/>
<text text-anchor="middle" x="376.293" y="-119.5" font-family="Helvetica,sans-Serif" font-size="10.00">Color.h</text>
</a>
</g>
</g>
<!-- Node21&#45;&gt;Node22 -->
<g id="edge32" class="edge"><title>Node21&#45;&gt;Node22</title>
<path fill="none" stroke="midnightblue" d="M445.958,-168.324C433.131,-159.979 413.508,-147.212 398.353,-137.352"/>
<polygon fill="midnightblue" stroke="midnightblue" points="399.886,-134.174 389.596,-131.655 396.069,-140.042 399.886,-134.174"/>
</g>
<!-- Node23 -->
<g id="node23" class="node"><title>Node23</title>
<g id="a_node23"><a xlink:href="InputManager_8h.html" target="_top" xlink:title="InputManager.h">
<polygon fill="white" stroke="black" points="418.293,-112.5 418.293,-131.5 502.293,-131.5 502.293,-112.5 418.293,-112.5"/>
<text text-anchor="middle" x="460.293" y="-119.5" font-family="Helvetica,sans-Serif" font-size="10.00">InputManager.h</text>
</a>
</g>
</g>
<!-- Node21&#45;&gt;Node23 -->
<g id="edge34" class="edge"><title>Node21&#45;&gt;Node23</title>
<path fill="none" stroke="midnightblue" d="M459.458,-168.083C459.589,-161.006 459.777,-150.861 459.942,-141.986"/>
<polygon fill="midnightblue" stroke="midnightblue" points="463.445,-141.814 460.131,-131.751 456.447,-141.685 463.445,-141.814"/>
</g>
<!-- Node23&#45;&gt;Node4 -->
<g id="edge35" class="edge"><title>Node23&#45;&gt;Node4</title>
<path fill="none" stroke="midnightblue" d="M470.432,-112.32C479.683,-103.897 493.119,-90.3187 501.293,-76 509.525,-61.5807 514.748,-43.3892 517.784,-29.9209"/>
<polygon fill="midnightblue" stroke="midnightblue" points="521.257,-30.404 519.838,-19.9048 514.4,-28.9978 521.257,-30.404"/>
</g>
<!-- Node23&#45;&gt;Node10 -->
<g id="edge36" class="edge"><title>Node23&#45;&gt;Node10</title>
<path fill="none" stroke="midnightblue" d="M461.779,-112.083C462.972,-104.927 464.687,-94.6353 466.178,-85.6911"/>
<polygon fill="midnightblue" stroke="midnightblue" points="469.643,-86.1904 467.835,-75.7511 462.738,-85.0396 469.643,-86.1904"/>
</g>
<!-- Node24 -->
<g id="node24" class="node"><title>Node24</title>
<polygon fill="white" stroke="#bfbfbf" points="257.793,-56.5 257.793,-75.5 340.793,-75.5 340.793,-56.5 257.793,-56.5"/>
<text text-anchor="middle" x="299.293" y="-63.5" font-family="Helvetica,sans-Serif" font-size="10.00">unordered_map</text>
</g>
<!-- Node23&#45;&gt;Node24 -->
<g id="edge37" class="edge"><title>Node23&#45;&gt;Node24</title>
<path fill="none" stroke="midnightblue" d="M434.782,-112.444C407.697,-103.359 364.703,-88.9388 334.425,-78.7831"/>
<polygon fill="midnightblue" stroke="midnightblue" points="335.279,-75.3781 324.685,-75.5164 333.053,-82.0148 335.279,-75.3781"/>
</g>
<!-- Node25 -->
<g id="node25" class="node"><title>Node25</title>
<polygon fill="white" stroke="#bfbfbf" points="381.293,-56.5 381.293,-75.5 427.293,-75.5 427.293,-56.5 381.293,-56.5"/>
<text text-anchor="middle" x="404.293" y="-63.5" font-family="Helvetica,sans-Serif" font-size="10.00">cstdint</text>
</g>
<!-- Node23&#45;&gt;Node25 -->
<g id="edge38" class="edge"><title>Node23&#45;&gt;Node25</title>
<path fill="none" stroke="midnightblue" d="M451.296,-112.324C443.099,-104.42 430.788,-92.5482 420.821,-82.9377"/>
<polygon fill="midnightblue" stroke="midnightblue" points="423.082,-80.2558 413.454,-75.8339 418.223,-85.2947 423.082,-80.2558"/>
</g>
<!-- Node26&#45;&gt;Node10 -->
<g id="edge42" class="edge"><title>Node26&#45;&gt;Node10</title>
<path fill="none" stroke="midnightblue" d="M227.019,-168.311C236.798,-154.196 258.121,-126.414 283.293,-112 341.191,-78.8456 366.296,-91.866 435.466,-76.0238"/>
<polygon fill="midnightblue" stroke="midnightblue" points="436.63,-79.3431 445.527,-73.589 434.984,-72.5395 436.63,-79.3431"/>
</g>
<!-- Node27&#45;&gt;Node2 -->
<g id="edge47" class="edge"><title>Node27&#45;&gt;Node2</title>
<path fill="none" stroke="midnightblue" d="M64.3073,-168.324C76.8248,-159.979 95.975,-147.212 110.765,-137.352"/>
<polygon fill="midnightblue" stroke="midnightblue" points="112.932,-140.114 119.312,-131.655 109.05,-134.289 112.932,-140.114"/>
</g>
<!-- Node27&#45;&gt;Node4 -->
<g id="edge44" class="edge"><title>Node27&#45;&gt;Node4</title>
<path fill="none" stroke="midnightblue" d="M51.9266,-168.214C53.3746,-154.461 58.0871,-127.789 73.2933,-112 121.791,-61.6426 152.662,-73.7159 220.293,-56 306.782,-33.3444 410.442,-20.9784 470.786,-15.1976"/>
<polygon fill="midnightblue" stroke="midnightblue" points="471.182,-18.6759 480.813,-14.2597 470.53,-11.7064 471.182,-18.6759"/>
</g>
<!-- Node27&#45;&gt;Node6 -->
<g id="edge45" class="edge"><title>Node27&#45;&gt;Node6</title>
<path fill="none" stroke="midnightblue" d="M87.4482,-169.548C139.369,-158.847 234.131,-139.316 282.744,-129.296"/>
<polygon fill="midnightblue" stroke="midnightblue" points="283.577,-132.698 292.665,-127.252 282.164,-125.842 283.577,-132.698"/>
</g>
<!-- Node27&#45;&gt;Node24 -->
<g id="edge46" class="edge"><title>Node27&#45;&gt;Node24</title>
<path fill="none" stroke="midnightblue" d="M54.9283,-168.273C61.3023,-154.102 75.8845,-126.243 97.2933,-112 142.295,-82.06 204.164,-71.7686 247.535,-68.3719"/>
<polygon fill="midnightblue" stroke="midnightblue" points="247.855,-71.8583 257.591,-67.6814 247.375,-64.8748 247.855,-71.8583"/>
</g>
<!-- Node29&#45;&gt;Node3 -->
<g id="edge52" class="edge"><title>Node29&#45;&gt;Node3</title>
<path fill="none" stroke="midnightblue" d="M748.293,-224.083C748.293,-217.006 748.293,-206.861 748.293,-197.986"/>
<polygon fill="midnightblue" stroke="midnightblue" points="751.793,-197.751 748.293,-187.751 744.793,-197.751 751.793,-197.751"/>
</g>
<!-- Node29&#45;&gt;Node10 -->
<g id="edge51" class="edge"><title>Node29&#45;&gt;Node10</title>
<path fill="none" stroke="midnightblue" d="M733.686,-224.309C688.11,-197.192 548.254,-113.98 492.545,-80.8345"/>
<polygon fill="midnightblue" stroke="midnightblue" points="494.14,-77.7105 483.756,-75.6051 490.56,-83.7263 494.14,-77.7105"/>
</g>
<!-- Node29&#45;&gt;Node16 -->
<g id="edge50" class="edge"><title>Node29&#45;&gt;Node16</title>
<path fill="none" stroke="midnightblue" d="M710.329,-224.438C671.541,-215.612 609.609,-201.302 556.293,-188 555.027,-187.684 553.735,-187.358 552.431,-187.026"/>
<polygon fill="midnightblue" stroke="midnightblue" points="552.963,-183.548 542.405,-184.425 551.205,-190.324 552.963,-183.548"/>
</g>
<!-- Node30&#45;&gt;Node5 -->
<g id="edge56" class="edge"><title>Node30&#45;&gt;Node5</title>
<path fill="none" stroke="midnightblue" d="M929.038,-280.403C928.317,-260.461 925.733,-209.583 917.293,-168 915.483,-159.08 912.602,-149.414 909.923,-141.335"/>
<polygon fill="midnightblue" stroke="midnightblue" points="913.208,-140.127 906.625,-131.826 906.595,-142.421 913.208,-140.127"/>
</g>
<!-- Node30&#45;&gt;Node6 -->
<g id="edge55" class="edge"><title>Node30&#45;&gt;Node6</title>
<path fill="none" stroke="midnightblue" d="M893.758,-285.614C846.013,-280.337 758.98,-268.151 688.293,-244 669.86,-237.702 667.805,-230.065 649.293,-224 553.472,-192.607 520.266,-221.874 425.293,-188 390.645,-175.642 354.534,-152.527 332.984,-137.455"/>
<polygon fill="midnightblue" stroke="midnightblue" points="334.862,-134.495 324.687,-131.543 330.8,-140.196 334.862,-134.495"/>
</g>
<!-- Node30&#45;&gt;Node31 -->
<g id="edge57" class="edge"><title>Node30&#45;&gt;Node31</title>
<path fill="none" stroke="midnightblue" d="M939.576,-280.324C949.13,-272.263 963.573,-260.077 975.078,-250.369"/>
<polygon fill="midnightblue" stroke="midnightblue" points="977.438,-252.958 982.823,-243.834 972.923,-247.608 977.438,-252.958"/>
</g>
<!-- Node32 -->
<g id="node32" class="node"><title>Node32</title>
<polygon fill="white" stroke="#bfbfbf" points="1035.29,-168.5 1035.29,-187.5 1089.29,-187.5 1089.29,-168.5 1035.29,-168.5"/>
<text text-anchor="middle" x="1062.29" y="-175.5" font-family="Helvetica,sans-Serif" font-size="10.00">iostream</text>
</g>
<!-- Node31&#45;&gt;Node32 -->
<g id="edge58" class="edge"><title>Node31&#45;&gt;Node32</title>
<path fill="none" stroke="midnightblue" d="M1004.38,-224.324C1014.78,-216.185 1030.55,-203.839 1043.01,-194.087"/>
<polygon fill="midnightblue" stroke="midnightblue" points="1045.29,-196.753 1051.01,-187.834 1040.97,-191.241 1045.29,-196.753"/>
</g>
<!-- Node33 -->
<g id="node33" class="node"><title>Node33</title>
<polygon fill="white" stroke="#bfbfbf" points="969.293,-168.5 969.293,-187.5 1017.29,-187.5 1017.29,-168.5 969.293,-168.5"/>
<text text-anchor="middle" x="993.293" y="-175.5" font-family="Helvetica,sans-Serif" font-size="10.00">stdlib.h</text>
</g>
<!-- Node31&#45;&gt;Node33 -->
<g id="edge59" class="edge"><title>Node31&#45;&gt;Node33</title>
<path fill="none" stroke="midnightblue" d="M993.293,-224.083C993.293,-217.006 993.293,-206.861 993.293,-197.986"/>
<polygon fill="midnightblue" stroke="midnightblue" points="996.793,-197.751 993.293,-187.751 989.793,-197.751 996.793,-197.751"/>
</g>
<!-- Node34&#45;&gt;Node2 -->
<g id="edge63" class="edge"><title>Node34&#45;&gt;Node2</title>
<path fill="none" stroke="midnightblue" d="M132.293,-168.083C132.293,-161.006 132.293,-150.861 132.293,-141.986"/>
<polygon fill="midnightblue" stroke="midnightblue" points="135.793,-141.751 132.293,-131.751 128.793,-141.751 135.793,-141.751"/>
</g>
<!-- Node34&#45;&gt;Node4 -->
<g id="edge62" class="edge"><title>Node34&#45;&gt;Node4</title>
<path fill="none" stroke="midnightblue" d="M139.268,-168.425C159.941,-143.231 221.131,-70.3114 248.293,-56 286.088,-36.0862 403.154,-22.121 471.09,-15.4515"/>
<polygon fill="midnightblue" stroke="midnightblue" points="471.528,-18.9256 481.146,-14.4823 470.857,-11.9579 471.528,-18.9256"/>
</g>
<!-- Node34&#45;&gt;Node6 -->
<g id="edge64" class="edge"><title>Node34&#45;&gt;Node6</title>
<path fill="none" stroke="midnightblue" d="M159,-169.032C192.116,-159.152 248.418,-142.355 283.079,-132.014"/>
<polygon fill="midnightblue" stroke="midnightblue" points="284.086,-135.366 292.668,-129.153 282.085,-128.658 284.086,-135.366"/>
</g>
</g>
</svg>
