<?xml version="1.0" encoding="UTF-8" standalone="no"?>
<!DOCTYPE svg PUBLIC "-//W3C//DTD SVG 1.1//EN"
 "http://www.w3.org/Graphics/SVG/1.1/DTD/svg11.dtd">
<!-- Generated by graphviz version 2.38.0 (20140413.2041)
 -->
<!-- Title: Game/src/WaveManager.cpp Pages: 1 -->
<svg width="1260pt" height="476pt"
 viewBox="0.00 0.00 1260.00 476.00" xmlns="http://www.w3.org/2000/svg" xmlns:xlink="http://www.w3.org/1999/xlink">
<g id="graph0" class="graph" transform="scale(1 1) rotate(0) translate(4 472)">
<title>Game/src/WaveManager.cpp</title>
<polygon fill="white" stroke="none" points="-4,4 -4,-472 1256,-472 1256,4 -4,4"/>
<!-- Node1 -->
<g id="node1" class="node"><title>Node1</title>
<polygon fill="#bfbfbf" stroke="black" points="630,-448.5 630,-467.5 774,-467.5 774,-448.5 630,-448.5"/>
<text text-anchor="middle" x="702" y="-455.5" font-family="Helvetica,sans-Serif" font-size="10.00">Game/src/WaveManager.cpp</text>
</g>
<!-- Node2 -->
<g id="node2" class="node"><title>Node2</title>
<g id="a_node2"><a xlink:href="WaveManager_8h.html" target="_top" xlink:title="WaveManager.h">
<polygon fill="white" stroke="black" points="952,-336.5 952,-355.5 1040,-355.5 1040,-336.5 952,-336.5"/>
<text text-anchor="middle" x="996" y="-343.5" font-family="Helvetica,sans-Serif" font-size="10.00">WaveManager.h</text>
</a>
</g>
</g>
<!-- Node1&#45;&gt;Node2 -->
<g id="edge1" class="edge"><title>Node1&#45;&gt;Node2</title>
<path fill="none" stroke="midnightblue" d="M737.528,-448.475C769.492,-440.401 817.513,-427.263 858,-412 898.388,-396.774 943.286,-374.589 970.58,-360.477"/>
<polygon fill="midnightblue" stroke="midnightblue" points="972.549,-363.398 979.798,-355.671 969.313,-357.191 972.549,-363.398"/>
</g>
<!-- Node11 -->
<g id="node11" class="node"><title>Node11</title>
<g id="a_node11"><a xlink:href="Vec2_8h.html" target="_top" xlink:title="Vec2.h">
<polygon fill="white" stroke="black" points="302.5,-56.5 302.5,-75.5 349.5,-75.5 349.5,-56.5 302.5,-56.5"/>
<text text-anchor="middle" x="326" y="-63.5" font-family="Helvetica,sans-Serif" font-size="10.00">Vec2.h</text>
</a>
</g>
</g>
<!-- Node1&#45;&gt;Node11 -->
<g id="edge46" class="edge"><title>Node1&#45;&gt;Node11</title>
<path fill="none" stroke="midnightblue" d="M629.962,-455.659C493.76,-451.16 212,-431.626 212,-347 212,-347 212,-347 212,-233 212,-167.209 273.601,-108.443 306.238,-81.9249"/>
<polygon fill="midnightblue" stroke="midnightblue" points="308.556,-84.5542 314.229,-75.6063 304.214,-79.0633 308.556,-84.5542"/>
</g>
<!-- Node14 -->
<g id="node14" class="node"><title>Node14</title>
<g id="a_node14"><a xlink:href="TileMap_8h.html" target="_top" xlink:title="TileMap.h">
<polygon fill="white" stroke="black" points="700.5,-280.5 700.5,-299.5 759.5,-299.5 759.5,-280.5 700.5,-280.5"/>
<text text-anchor="middle" x="730" y="-287.5" font-family="Helvetica,sans-Serif" font-size="10.00">TileMap.h</text>
</a>
</g>
</g>
<!-- Node1&#45;&gt;Node14 -->
<g id="edge44" class="edge"><title>Node1&#45;&gt;Node14</title>
<path fill="none" stroke="midnightblue" d="M700.231,-448.254C696.494,-427.998 689.078,-376.507 701,-336 704.012,-325.765 710.155,-315.66 716.014,-307.627"/>
<polygon fill="midnightblue" stroke="midnightblue" points="718.932,-309.577 722.327,-299.541 713.414,-305.269 718.932,-309.577"/>
</g>
<!-- Node18 -->
<g id="node18" class="node"><title>Node18</title>
<g id="a_node18"><a xlink:href="InputManager_8h.html" target="_top" xlink:title="InputManager.h">
<polygon fill="white" stroke="black" points="87,-112.5 87,-131.5 171,-131.5 171,-112.5 87,-112.5"/>
<text text-anchor="middle" x="129" y="-119.5" font-family="Helvetica,sans-Serif" font-size="10.00">InputManager.h</text>
</a>
</g>
</g>
<!-- Node1&#45;&gt;Node18 -->
<g id="edge45" class="edge"><title>Node1&#45;&gt;Node18</title>
<path fill="none" stroke="midnightblue" d="M629.746,-455.155C498.148,-451.129 229.944,-439.609 198,-412 116.545,-341.598 122.045,-193.894 126.856,-141.731"/>
<polygon fill="midnightblue" stroke="midnightblue" points="130.355,-141.916 127.897,-131.61 123.392,-141.199 130.355,-141.916"/>
</g>
<!-- Node22 -->
<g id="node22" class="node"><title>Node22</title>
<g id="a_node22"><a xlink:href="Error_8h.html" target="_top" xlink:title="Error.h">
<polygon fill="white" stroke="black" points="1042,-224.5 1042,-243.5 1088,-243.5 1088,-224.5 1042,-224.5"/>
<text text-anchor="middle" x="1065" y="-231.5" font-family="Helvetica,sans-Serif" font-size="10.00">Error.h</text>
</a>
</g>
</g>
<!-- Node1&#45;&gt;Node22 -->
<g id="edge81" class="edge"><title>Node1&#45;&gt;Node22</title>
<path fill="none" stroke="midnightblue" d="M774.243,-450.362C852.745,-440.308 979.22,-415.585 1071,-356 1104.91,-333.984 1138.48,-316.461 1121,-280 1114.75,-266.954 1102.66,-256.492 1091.32,-248.951"/>
<polygon fill="midnightblue" stroke="midnightblue" points="1092.85,-245.787 1082.5,-243.535 1089.19,-251.752 1092.85,-245.787"/>
</g>
<!-- Node25 -->
<g id="node25" class="node"><title>Node25</title>
<g id="a_node25"><a xlink:href="Game_8h.html" target="_top" xlink:title="Game.h">
<polygon fill="white" stroke="black" points="59.5,-280.5 59.5,-299.5 110.5,-299.5 110.5,-280.5 59.5,-280.5"/>
<text text-anchor="middle" x="85" y="-287.5" font-family="Helvetica,sans-Serif" font-size="10.00">Game.h</text>
</a>
</g>
</g>
<!-- Node1&#45;&gt;Node25 -->
<g id="edge47" class="edge"><title>Node1&#45;&gt;Node25</title>
<path fill="none" stroke="midnightblue" d="M629.834,-455.783C483.827,-452.691 163.901,-442.484 125,-412 93.6096,-387.402 86.5929,-337.456 85.1888,-310.052"/>
<polygon fill="midnightblue" stroke="midnightblue" points="88.6803,-309.715 84.876,-299.827 81.6836,-309.929 88.6803,-309.715"/>
</g>
<!-- Node29 -->
<g id="node29" class="node"><title>Node29</title>
<g id="a_node29"><a xlink:href="Enemy_8h.html" target="_top" xlink:title="Enemy.h">
<polygon fill="white" stroke="black" points="710,-336.5 710,-355.5 766,-355.5 766,-336.5 710,-336.5"/>
<text text-anchor="middle" x="738" y="-343.5" font-family="Helvetica,sans-Serif" font-size="10.00">Enemy.h</text>
</a>
</g>
</g>
<!-- Node1&#45;&gt;Node29 -->
<g id="edge63" class="edge"><title>Node1&#45;&gt;Node29</title>
<path fill="none" stroke="midnightblue" d="M704.825,-448.368C710.661,-430.537 724.158,-389.295 732.02,-365.272"/>
<polygon fill="midnightblue" stroke="midnightblue" points="735.404,-366.184 735.188,-355.591 728.751,-364.007 735.404,-366.184"/>
</g>
<!-- Node30 -->
<g id="node30" class="node"><title>Node30</title>
<g id="a_node30"><a xlink:href="GameResources_8h.html" target="_top" xlink:title="GameResources.h">
<polygon fill="white" stroke="black" points="751,-392.5 751,-411.5 849,-411.5 849,-392.5 751,-392.5"/>
<text text-anchor="middle" x="800" y="-399.5" font-family="Helvetica,sans-Serif" font-size="10.00">GameResources.h</text>
</a>
</g>
</g>
<!-- Node1&#45;&gt;Node30 -->
<g id="edge71" class="edge"><title>Node1&#45;&gt;Node30</title>
<path fill="none" stroke="midnightblue" d="M717.745,-448.324C733.319,-439.743 757.377,-426.486 775.459,-416.522"/>
<polygon fill="midnightblue" stroke="midnightblue" points="777.224,-419.546 784.294,-411.655 773.846,-413.415 777.224,-419.546"/>
</g>
<!-- Node3 -->
<g id="node3" class="node"><title>Node3</title>
<g id="a_node3"><a xlink:href="GameObject_8h.html" target="_top" xlink:title="GameObject.h">
<polygon fill="white" stroke="black" points="854,-168.5 854,-187.5 934,-187.5 934,-168.5 854,-168.5"/>
<text text-anchor="middle" x="894" y="-175.5" font-family="Helvetica,sans-Serif" font-size="10.00">GameObject.h</text>
</a>
</g>
</g>
<!-- Node2&#45;&gt;Node3 -->
<g id="edge2" class="edge"><title>Node2&#45;&gt;Node3</title>
<path fill="none" stroke="midnightblue" d="M994.768,-336.276C991.432,-315.18 980.619,-260.456 954,-224 944.822,-211.43 931.134,-200.788 919.148,-193.014"/>
<polygon fill="midnightblue" stroke="midnightblue" points="920.769,-189.902 910.418,-187.643 917.101,-195.864 920.769,-189.902"/>
</g>
<!-- Node6 -->
<g id="node6" class="node"><title>Node6</title>
<polygon fill="white" stroke="#bfbfbf" points="466,-112.5 466,-131.5 518,-131.5 518,-112.5 466,-112.5"/>
<text text-anchor="middle" x="492" y="-119.5" font-family="Helvetica,sans-Serif" font-size="10.00">memory</text>
</g>
<!-- Node2&#45;&gt;Node6 -->
<g id="edge43" class="edge"><title>Node2&#45;&gt;Node6</title>
<path fill="none" stroke="midnightblue" d="M951.768,-337.399C948.802,-336.917 945.859,-336.447 943,-336 831.22,-318.528 794.991,-344.564 691,-300 606.373,-263.734 532.998,-176.797 504.571,-139.957"/>
<polygon fill="midnightblue" stroke="midnightblue" points="507.165,-137.585 498.333,-131.732 501.588,-141.815 507.165,-137.585"/>
</g>
<!-- Node8 -->
<g id="node8" class="node"><title>Node8</title>
<g id="a_node8"><a xlink:href="Component_8h.html" target="_top" xlink:title="Component.h">
<polygon fill="white" stroke="black" points="877.5,-112.5 877.5,-131.5 952.5,-131.5 952.5,-112.5 877.5,-112.5"/>
<text text-anchor="middle" x="915" y="-119.5" font-family="Helvetica,sans-Serif" font-size="10.00">Component.h</text>
</a>
</g>
</g>
<!-- Node2&#45;&gt;Node8 -->
<g id="edge35" class="edge"><title>Node2&#45;&gt;Node8</title>
<path fill="none" stroke="midnightblue" d="M1040.08,-339.097C1066.78,-333.347 1099.69,-322.063 1121,-300 1163.25,-256.265 1195.87,-214.764 1157,-168 1153.88,-164.251 1032.19,-142.972 962.593,-131.067"/>
<polygon fill="midnightblue" stroke="midnightblue" points="963.169,-127.614 952.723,-129.381 961.991,-134.515 963.169,-127.614"/>
</g>
<!-- Node13 -->
<g id="node13" class="node"><title>Node13</title>
<g id="a_node13"><a xlink:href="Timer_8h.html" target="_top" xlink:title="Timer.h">
<polygon fill="white" stroke="black" points="897,-280.5 897,-299.5 947,-299.5 947,-280.5 897,-280.5"/>
<text text-anchor="middle" x="922" y="-287.5" font-family="Helvetica,sans-Serif" font-size="10.00">Timer.h</text>
</a>
</g>
</g>
<!-- Node2&#45;&gt;Node13 -->
<g id="edge16" class="edge"><title>Node2&#45;&gt;Node13</title>
<path fill="none" stroke="midnightblue" d="M984.111,-336.324C972.85,-328.107 955.713,-315.602 942.291,-305.807"/>
<polygon fill="midnightblue" stroke="midnightblue" points="944.247,-302.901 934.106,-299.834 940.12,-308.556 944.247,-302.901"/>
</g>
<!-- Node2&#45;&gt;Node14 -->
<g id="edge17" class="edge"><title>Node2&#45;&gt;Node14</title>
<path fill="none" stroke="midnightblue" d="M953.852,-336.444C903.248,-326.171 819.034,-309.075 769.594,-299.038"/>
<polygon fill="midnightblue" stroke="midnightblue" points="770.093,-295.568 759.597,-297.008 768.701,-302.428 770.093,-295.568"/>
</g>
<!-- Node21 -->
<g id="node21" class="node"><title>Node21</title>
<g id="a_node21"><a xlink:href="WaveData_8h.html" target="_top" xlink:title="WaveData.h">
<polygon fill="white" stroke="black" points="1041.5,-280.5 1041.5,-299.5 1112.5,-299.5 1112.5,-280.5 1041.5,-280.5"/>
<text text-anchor="middle" x="1077" y="-287.5" font-family="Helvetica,sans-Serif" font-size="10.00">WaveData.h</text>
</a>
</g>
</g>
<!-- Node2&#45;&gt;Node21 -->
<g id="edge36" class="edge"><title>Node2&#45;&gt;Node21</title>
<path fill="none" stroke="midnightblue" d="M1009.01,-336.324C1021.53,-327.979 1040.68,-315.212 1055.47,-305.352"/>
<polygon fill="midnightblue" stroke="midnightblue" points="1057.64,-308.114 1064.02,-299.655 1053.76,-302.289 1057.64,-308.114"/>
</g>
<!-- Node2&#45;&gt;Node22 -->
<g id="edge42" class="edge"><title>Node2&#45;&gt;Node22</title>
<path fill="none" stroke="midnightblue" d="M1000.33,-336.386C1006.77,-323.748 1019.48,-299.558 1032,-280 1038.14,-270.412 1045.59,-260.145 1051.86,-251.843"/>
<polygon fill="midnightblue" stroke="midnightblue" points="1054.78,-253.795 1058.08,-243.73 1049.22,-249.536 1054.78,-253.795"/>
</g>
<!-- Node4 -->
<g id="node4" class="node"><title>Node4</title>
<g id="a_node4"><a xlink:href="SDL__include_8h.html" target="_top" xlink:title="SDL_include.h">
<polygon fill="white" stroke="black" points="286,-0.5 286,-19.5 366,-19.5 366,-0.5 286,-0.5"/>
<text text-anchor="middle" x="326" y="-7.5" font-family="Helvetica,sans-Serif" font-size="10.00">SDL_include.h</text>
</a>
</g>
</g>
<!-- Node3&#45;&gt;Node4 -->
<g id="edge3" class="edge"><title>Node3&#45;&gt;Node4</title>
<path fill="none" stroke="midnightblue" d="M888.116,-168.295C871.956,-145.204 824.262,-82.3623 767,-56 698.554,-24.4889 476.788,-14.8551 376.306,-12.0671"/>
<polygon fill="midnightblue" stroke="midnightblue" points="376.195,-8.563 366.106,-11.7961 376.009,-15.5605 376.195,-8.563"/>
</g>
<!-- Node5 -->
<g id="node5" class="node"><title>Node5</title>
<polygon fill="white" stroke="#bfbfbf" points="978,-112.5 978,-131.5 1022,-131.5 1022,-112.5 978,-112.5"/>
<text text-anchor="middle" x="1000" y="-119.5" font-family="Helvetica,sans-Serif" font-size="10.00">vector</text>
</g>
<!-- Node3&#45;&gt;Node5 -->
<g id="edge4" class="edge"><title>Node3&#45;&gt;Node5</title>
<path fill="none" stroke="midnightblue" d="M911.031,-168.324C928.03,-159.664 954.376,-146.242 973.993,-136.249"/>
<polygon fill="midnightblue" stroke="midnightblue" points="975.69,-139.312 983.012,-131.655 972.512,-133.075 975.69,-139.312"/>
</g>
<!-- Node3&#45;&gt;Node6 -->
<g id="edge5" class="edge"><title>Node3&#45;&gt;Node6</title>
<path fill="none" stroke="midnightblue" d="M853.822,-173.792C787.818,-168.148 652.19,-154.987 528.327,-132.037"/>
<polygon fill="midnightblue" stroke="midnightblue" points="528.766,-128.558 518.291,-130.15 527.472,-135.437 528.766,-128.558"/>
</g>
<!-- Node7 -->
<g id="node7" class="node"><title>Node7</title>
<polygon fill="white" stroke="#bfbfbf" points="653.5,-112.5 653.5,-131.5 694.5,-131.5 694.5,-112.5 653.5,-112.5"/>
<text text-anchor="middle" x="674" y="-119.5" font-family="Helvetica,sans-Serif" font-size="10.00">string</text>
</g>
<!-- Node3&#45;&gt;Node7 -->
<g id="edge6" class="edge"><title>Node3&#45;&gt;Node7</title>
<path fill="none" stroke="midnightblue" d="M854.895,-168.446C818.396,-160.304 762.212,-147.372 704.297,-131.955"/>
<polygon fill="midnightblue" stroke="midnightblue" points="705.177,-128.567 694.611,-129.357 703.363,-135.328 705.177,-128.567"/>
</g>
<!-- Node3&#45;&gt;Node8 -->
<g id="edge7" class="edge"><title>Node3&#45;&gt;Node8</title>
<path fill="none" stroke="midnightblue" d="M892.301,-168.083C893.617,-160.691 897.385,-149.953 901.684,-140.811"/>
<polygon fill="midnightblue" stroke="midnightblue" points="904.893,-142.229 906.466,-131.751 898.703,-138.961 904.893,-142.229"/>
</g>
<!-- Node9 -->
<g id="node9" class="node"><title>Node9</title>
<g id="a_node9"><a xlink:href="ComponentType_8h.html" target="_top" xlink:title="ComponentType.h">
<polygon fill="white" stroke="black" points="848.5,-56.5 848.5,-75.5 945.5,-75.5 945.5,-56.5 848.5,-56.5"/>
<text text-anchor="middle" x="897" y="-63.5" font-family="Helvetica,sans-Serif" font-size="10.00">ComponentType.h</text>
</a>
</g>
</g>
<!-- Node3&#45;&gt;Node9 -->
<g id="edge10" class="edge"><title>Node3&#45;&gt;Node9</title>
<path fill="none" stroke="midnightblue" d="M886.529,-168.354C876.848,-156.072 861.892,-132.754 868,-112 871.012,-101.765 877.155,-91.6599 883.014,-83.627"/>
<polygon fill="midnightblue" stroke="midnightblue" points="885.932,-85.5773 889.327,-75.5413 880.414,-81.2694 885.932,-85.5773"/>
</g>
<!-- Node10 -->
<g id="node10" class="node"><title>Node10</title>
<g id="a_node10"><a xlink:href="Rect_8h.html" target="_top" xlink:title="Rect.h">
<polygon fill="white" stroke="black" points="713,-112.5 713,-131.5 759,-131.5 759,-112.5 713,-112.5"/>
<text text-anchor="middle" x="736" y="-119.5" font-family="Helvetica,sans-Serif" font-size="10.00">Rect.h</text>
</a>
</g>
</g>
<!-- Node3&#45;&gt;Node10 -->
<g id="edge11" class="edge"><title>Node3&#45;&gt;Node10</title>
<path fill="none" stroke="midnightblue" d="M868.964,-168.444C841.837,-159.172 798.447,-144.343 768.657,-134.161"/>
<polygon fill="midnightblue" stroke="midnightblue" points="769.714,-130.824 759.119,-130.902 767.45,-137.448 769.714,-130.824"/>
</g>
<!-- Node8&#45;&gt;Node3 -->
<g id="edge9" class="edge"><title>Node8&#45;&gt;Node3</title>
<path fill="none" stroke="midnightblue" d="M916.728,-131.751C915.449,-139.092 911.704,-149.817 907.413,-158.983"/>
<polygon fill="midnightblue" stroke="midnightblue" points="904.185,-157.602 902.634,-168.083 910.382,-160.857 904.185,-157.602"/>
</g>
<!-- Node8&#45;&gt;Node9 -->
<g id="edge8" class="edge"><title>Node8&#45;&gt;Node9</title>
<path fill="none" stroke="midnightblue" d="M912.028,-112.083C909.616,-104.849 906.136,-94.4087 903.132,-85.3968"/>
<polygon fill="midnightblue" stroke="midnightblue" points="906.4,-84.1311 899.917,-75.7511 899.759,-86.3447 906.4,-84.1311"/>
</g>
<!-- Node10&#45;&gt;Node4 -->
<g id="edge12" class="edge"><title>Node10&#45;&gt;Node4</title>
<path fill="none" stroke="midnightblue" d="M724.853,-112.405C705.765,-98.1674 665.088,-69.8841 626,-56 541.554,-26.005 436.829,-16.0032 376.09,-12.6682"/>
<polygon fill="midnightblue" stroke="midnightblue" points="376.168,-9.16769 366.003,-12.1537 375.812,-16.1586 376.168,-9.16769"/>
</g>
<!-- Node10&#45;&gt;Node11 -->
<g id="edge13" class="edge"><title>Node10&#45;&gt;Node11</title>
<path fill="none" stroke="midnightblue" d="M712.665,-114.178C709.435,-113.369 706.147,-112.614 703,-112 577.669,-87.5679 426.145,-74.3445 359.833,-69.3563"/>
<polygon fill="midnightblue" stroke="midnightblue" points="359.8,-65.8445 349.57,-68.5993 359.285,-72.8255 359.8,-65.8445"/>
</g>
<!-- Node12 -->
<g id="node12" class="node"><title>Node12</title>
<polygon fill="white" stroke="#bfbfbf" points="714,-56.5 714,-75.5 758,-75.5 758,-56.5 714,-56.5"/>
<text text-anchor="middle" x="736" y="-63.5" font-family="Helvetica,sans-Serif" font-size="10.00">cmath</text>
</g>
<!-- Node10&#45;&gt;Node12 -->
<g id="edge15" class="edge"><title>Node10&#45;&gt;Node12</title>
<path fill="none" stroke="midnightblue" d="M736,-112.083C736,-105.006 736,-94.8611 736,-85.9865"/>
<polygon fill="midnightblue" stroke="midnightblue" points="739.5,-85.751 736,-75.7511 732.5,-85.7511 739.5,-85.751"/>
</g>
<!-- Node11&#45;&gt;Node4 -->
<g id="edge14" class="edge"><title>Node11&#45;&gt;Node4</title>
<path fill="none" stroke="midnightblue" d="M326,-56.083C326,-49.0059 326,-38.8611 326,-29.9865"/>
<polygon fill="midnightblue" stroke="midnightblue" points="329.5,-29.751 326,-19.7511 322.5,-29.7511 329.5,-29.751"/>
</g>
<!-- Node14&#45;&gt;Node3 -->
<g id="edge20" class="edge"><title>Node14&#45;&gt;Node3</title>
<path fill="none" stroke="midnightblue" d="M742.869,-280.368C771.011,-261.492 838.262,-216.385 872.774,-193.237"/>
<polygon fill="midnightblue" stroke="midnightblue" points="874.836,-196.069 881.191,-187.591 870.936,-190.255 874.836,-196.069"/>
</g>
<!-- Node14&#45;&gt;Node5 -->
<g id="edge19" class="edge"><title>Node14&#45;&gt;Node5</title>
<path fill="none" stroke="midnightblue" d="M759.66,-283.747C809.173,-273.561 909.215,-246.748 970,-188 983.104,-175.335 991.038,-155.855 995.427,-141.521"/>
<polygon fill="midnightblue" stroke="midnightblue" points="998.834,-142.332 998.118,-131.761 992.085,-140.471 998.834,-142.332"/>
</g>
<!-- Node14&#45;&gt;Node7 -->
<g id="edge18" class="edge"><title>Node14&#45;&gt;Node7</title>
<path fill="none" stroke="midnightblue" d="M731.982,-280.235C736.205,-259.502 744.285,-206.318 726,-168 720.055,-155.542 708.872,-145.157 698.396,-137.515"/>
<polygon fill="midnightblue" stroke="midnightblue" points="700.135,-134.465 689.893,-131.755 696.209,-140.261 700.135,-134.465"/>
</g>
<!-- Node14&#45;&gt;Node11 -->
<g id="edge34" class="edge"><title>Node14&#45;&gt;Node11</title>
<path fill="none" stroke="midnightblue" d="M700.438,-289.338C622.554,-289.629 414.203,-286.337 363,-244 315.86,-205.022 319.044,-122.843 323.255,-85.8042"/>
<polygon fill="midnightblue" stroke="midnightblue" points="326.73,-86.2224 324.54,-75.8563 319.788,-85.3253 326.73,-86.2224"/>
</g>
<!-- Node15 -->
<g id="node15" class="node"><title>Node15</title>
<g id="a_node15"><a xlink:href="Tileset_8h.html" target="_top" xlink:title="Tileset.h">
<polygon fill="white" stroke="black" points="630,-224.5 630,-243.5 684,-243.5 684,-224.5 630,-224.5"/>
<text text-anchor="middle" x="657" y="-231.5" font-family="Helvetica,sans-Serif" font-size="10.00">Tileset.h</text>
</a>
</g>
</g>
<!-- Node14&#45;&gt;Node15 -->
<g id="edge21" class="edge"><title>Node14&#45;&gt;Node15</title>
<path fill="none" stroke="midnightblue" d="M718.271,-280.324C707.163,-272.107 690.258,-259.602 677.017,-249.807"/>
<polygon fill="midnightblue" stroke="midnightblue" points="679.063,-246.967 668.942,-243.834 674.9,-252.595 679.063,-246.967"/>
</g>
<!-- Node15&#45;&gt;Node7 -->
<g id="edge22" class="edge"><title>Node15&#45;&gt;Node7</title>
<path fill="none" stroke="midnightblue" d="M658.334,-224.368C661.077,-206.617 667.406,-165.666 671.126,-141.597"/>
<polygon fill="midnightblue" stroke="midnightblue" points="674.604,-142.009 672.672,-131.591 667.686,-140.94 674.604,-142.009"/>
</g>
<!-- Node16 -->
<g id="node16" class="node"><title>Node16</title>
<g id="a_node16"><a xlink:href="Sprite_8h.html" target="_top" xlink:title="Sprite.h">
<polygon fill="white" stroke="black" points="558,-168.5 558,-187.5 608,-187.5 608,-168.5 558,-168.5"/>
<text text-anchor="middle" x="583" y="-175.5" font-family="Helvetica,sans-Serif" font-size="10.00">Sprite.h</text>
</a>
</g>
</g>
<!-- Node15&#45;&gt;Node16 -->
<g id="edge23" class="edge"><title>Node15&#45;&gt;Node16</title>
<path fill="none" stroke="midnightblue" d="M645.111,-224.324C633.85,-216.107 616.713,-203.602 603.291,-193.807"/>
<polygon fill="midnightblue" stroke="midnightblue" points="605.247,-190.901 595.106,-187.834 601.12,-196.556 605.247,-190.901"/>
</g>
<!-- Node16&#45;&gt;Node4 -->
<g id="edge24" class="edge"><title>Node16&#45;&gt;Node4</title>
<path fill="none" stroke="midnightblue" d="M587.984,-168.132C594.774,-154.737 604.812,-129.096 593,-112 544.166,-41.3168 439.041,-20.0481 376.251,-13.6824"/>
<polygon fill="midnightblue" stroke="midnightblue" points="376.454,-10.1864 366.175,-12.7518 375.811,-17.1567 376.454,-10.1864"/>
</g>
<!-- Node16&#45;&gt;Node6 -->
<g id="edge26" class="edge"><title>Node16&#45;&gt;Node6</title>
<path fill="none" stroke="midnightblue" d="M568.379,-168.324C554.051,-159.822 531.987,-146.729 515.251,-136.797"/>
<polygon fill="midnightblue" stroke="midnightblue" points="516.97,-133.748 506.584,-131.655 513.398,-139.768 516.97,-133.748"/>
</g>
<!-- Node16&#45;&gt;Node7 -->
<g id="edge25" class="edge"><title>Node16&#45;&gt;Node7</title>
<path fill="none" stroke="midnightblue" d="M597.621,-168.324C611.949,-159.822 634.013,-146.729 650.749,-136.797"/>
<polygon fill="midnightblue" stroke="midnightblue" points="652.602,-139.768 659.416,-131.655 649.03,-133.748 652.602,-139.768"/>
</g>
<!-- Node16&#45;&gt;Node10 -->
<g id="edge28" class="edge"><title>Node16&#45;&gt;Node10</title>
<path fill="none" stroke="midnightblue" d="M607.243,-168.444C633.172,-159.292 674.443,-144.726 703.248,-134.559"/>
<polygon fill="midnightblue" stroke="midnightblue" points="704.607,-137.792 712.872,-131.163 702.277,-131.191 704.607,-137.792"/>
</g>
<!-- Node17 -->
<g id="node17" class="node"><title>Node17</title>
<g id="a_node17"><a xlink:href="Color_8h.html" target="_top" xlink:title="Color.h">
<polygon fill="white" stroke="black" points="536,-112.5 536,-131.5 584,-131.5 584,-112.5 536,-112.5"/>
<text text-anchor="middle" x="560" y="-119.5" font-family="Helvetica,sans-Serif" font-size="10.00">Color.h</text>
</a>
</g>
</g>
<!-- Node16&#45;&gt;Node17 -->
<g id="edge27" class="edge"><title>Node16&#45;&gt;Node17</title>
<path fill="none" stroke="midnightblue" d="M579.202,-168.083C576.087,-160.77 571.577,-150.181 567.711,-141.103"/>
<polygon fill="midnightblue" stroke="midnightblue" points="570.866,-139.58 563.727,-131.751 564.426,-142.323 570.866,-139.58"/>
</g>
<!-- Node16&#45;&gt;Node18 -->
<g id="edge29" class="edge"><title>Node16&#45;&gt;Node18</title>
<path fill="none" stroke="midnightblue" d="M557.944,-174.02C486.219,-165.489 278.993,-140.841 181.228,-129.212"/>
<polygon fill="midnightblue" stroke="midnightblue" points="181.614,-125.734 171.271,-128.028 180.788,-132.685 181.614,-125.734"/>
</g>
<!-- Node18&#45;&gt;Node4 -->
<g id="edge30" class="edge"><title>Node18&#45;&gt;Node4</title>
<path fill="none" stroke="midnightblue" d="M135.342,-112.127C145.695,-98.2536 167.539,-71.4213 192,-56 217.679,-39.8109 249.828,-28.7603 276.199,-21.6622"/>
<polygon fill="midnightblue" stroke="midnightblue" points="277.189,-25.0213 285.997,-19.1329 275.44,-18.2435 277.189,-25.0213"/>
</g>
<!-- Node18&#45;&gt;Node11 -->
<g id="edge31" class="edge"><title>Node18&#45;&gt;Node11</title>
<path fill="none" stroke="midnightblue" d="M160.215,-112.444C196.313,-102.549 255.505,-86.3235 292.532,-76.1739"/>
<polygon fill="midnightblue" stroke="midnightblue" points="293.631,-79.5018 302.35,-73.4826 291.781,-72.7508 293.631,-79.5018"/>
</g>
<!-- Node19 -->
<g id="node19" class="node"><title>Node19</title>
<polygon fill="white" stroke="#bfbfbf" points="201.5,-56.5 201.5,-75.5 284.5,-75.5 284.5,-56.5 201.5,-56.5"/>
<text text-anchor="middle" x="243" y="-63.5" font-family="Helvetica,sans-Serif" font-size="10.00">unordered_map</text>
</g>
<!-- Node18&#45;&gt;Node19 -->
<g id="edge32" class="edge"><title>Node18&#45;&gt;Node19</title>
<path fill="none" stroke="midnightblue" d="M147.064,-112.444C165.575,-103.675 194.581,-89.9355 215.855,-79.8579"/>
<polygon fill="midnightblue" stroke="midnightblue" points="217.482,-82.9604 225.021,-75.5164 214.485,-76.6343 217.482,-82.9604"/>
</g>
<!-- Node20 -->
<g id="node20" class="node"><title>Node20</title>
<polygon fill="white" stroke="#bfbfbf" points="99,-56.5 99,-75.5 145,-75.5 145,-56.5 99,-56.5"/>
<text text-anchor="middle" x="122" y="-63.5" font-family="Helvetica,sans-Serif" font-size="10.00">cstdint</text>
</g>
<!-- Node18&#45;&gt;Node20 -->
<g id="edge33" class="edge"><title>Node18&#45;&gt;Node20</title>
<path fill="none" stroke="midnightblue" d="M127.844,-112.083C126.916,-104.927 125.582,-94.6353 124.423,-85.6911"/>
<polygon fill="midnightblue" stroke="midnightblue" points="127.891,-85.2181 123.134,-75.7511 120.949,-86.1181 127.891,-85.2181"/>
</g>
<!-- Node21&#45;&gt;Node5 -->
<g id="edge38" class="edge"><title>Node21&#45;&gt;Node5</title>
<path fill="none" stroke="midnightblue" d="M1090.71,-280.242C1120.77,-259.963 1187.47,-208.424 1157,-168 1141.98,-148.064 1073.35,-134.264 1031.96,-127.59"/>
<polygon fill="midnightblue" stroke="midnightblue" points="1032.49,-124.131 1022.07,-126.048 1031.41,-131.048 1032.49,-124.131"/>
</g>
<!-- Node21&#45;&gt;Node7 -->
<g id="edge37" class="edge"><title>Node21&#45;&gt;Node7</title>
<path fill="none" stroke="midnightblue" d="M1056.18,-280.425C989.718,-253.047 782.406,-167.654 704.236,-135.454"/>
<polygon fill="midnightblue" stroke="midnightblue" points="705.515,-132.196 694.936,-131.624 702.849,-138.669 705.515,-132.196"/>
</g>
<!-- Node21&#45;&gt;Node22 -->
<g id="edge39" class="edge"><title>Node21&#45;&gt;Node22</title>
<path fill="none" stroke="midnightblue" d="M1075.02,-280.083C1073.43,-272.927 1071.14,-262.635 1069.15,-253.691"/>
<polygon fill="midnightblue" stroke="midnightblue" points="1072.53,-252.754 1066.94,-243.751 1065.7,-254.272 1072.53,-252.754"/>
</g>
<!-- Node23 -->
<g id="node23" class="node"><title>Node23</title>
<polygon fill="white" stroke="#bfbfbf" points="1094,-168.5 1094,-187.5 1148,-187.5 1148,-168.5 1094,-168.5"/>
<text text-anchor="middle" x="1121" y="-175.5" font-family="Helvetica,sans-Serif" font-size="10.00">iostream</text>
</g>
<!-- Node22&#45;&gt;Node23 -->
<g id="edge40" class="edge"><title>Node22&#45;&gt;Node23</title>
<path fill="none" stroke="midnightblue" d="M1074,-224.324C1082.19,-216.42 1094.51,-204.548 1104.47,-194.938"/>
<polygon fill="midnightblue" stroke="midnightblue" points="1107.07,-197.295 1111.84,-187.834 1102.21,-192.256 1107.07,-197.295"/>
</g>
<!-- Node24 -->
<g id="node24" class="node"><title>Node24</title>
<polygon fill="white" stroke="#bfbfbf" points="1028,-168.5 1028,-187.5 1076,-187.5 1076,-168.5 1028,-168.5"/>
<text text-anchor="middle" x="1052" y="-175.5" font-family="Helvetica,sans-Serif" font-size="10.00">stdlib.h</text>
</g>
<!-- Node22&#45;&gt;Node24 -->
<g id="edge41" class="edge"><title>Node22&#45;&gt;Node24</title>
<path fill="none" stroke="midnightblue" d="M1062.85,-224.083C1061.13,-216.927 1058.65,-206.635 1056.5,-197.691"/>
<polygon fill="midnightblue" stroke="midnightblue" points="1059.85,-196.654 1054.11,-187.751 1053.04,-198.293 1059.85,-196.654"/>
</g>
<!-- Node25&#45;&gt;Node4 -->
<g id="edge62" class="edge"><title>Node25&#45;&gt;Node4</title>
<path fill="none" stroke="midnightblue" d="M71.3433,-280.242C47.3158,-263.641 0,-225.097 0,-179 0,-179 0,-179 0,-121 0,-77.558 33.916,-74.9645 73,-56 138.286,-24.3215 222.747,-14.7319 275.659,-11.9504"/>
<polygon fill="midnightblue" stroke="midnightblue" points="275.979,-15.4394 285.806,-11.4803 275.655,-8.44693 275.979,-15.4394"/>
</g>
<!-- Node25&#45;&gt;Node7 -->
<g id="edge48" class="edge"><title>Node25&#45;&gt;Node7</title>
<path fill="none" stroke="midnightblue" d="M110.659,-286.672C204.861,-277.741 530.64,-243.377 617,-188 636.278,-175.638 652.824,-154.922 663.047,-140.202"/>
<polygon fill="midnightblue" stroke="midnightblue" points="666.184,-141.805 668.817,-131.542 660.359,-137.923 666.184,-141.805"/>
</g>
<!-- Node25&#45;&gt;Node11 -->
<g id="edge61" class="edge"><title>Node25&#45;&gt;Node11</title>
<path fill="none" stroke="midnightblue" d="M91.0018,-280.18C112.969,-248.086 189.454,-138.048 223,-112 243.757,-95.8823 271.179,-84.2691 292.51,-76.8815"/>
<polygon fill="midnightblue" stroke="midnightblue" points="293.746,-80.1591 302.136,-73.6884 291.542,-73.5151 293.746,-80.1591"/>
</g>
<!-- Node25&#45;&gt;Node18 -->
<g id="edge60" class="edge"><title>Node25&#45;&gt;Node18</title>
<path fill="none" stroke="midnightblue" d="M76.9297,-280.376C66.4755,-268.119 50.3352,-244.831 57,-224 67.918,-189.876 95.0567,-157.446 112.72,-138.922"/>
<polygon fill="midnightblue" stroke="midnightblue" points="115.349,-141.24 119.856,-131.651 110.353,-136.336 115.349,-141.24"/>
</g>
<!-- Node26 -->
<g id="node26" class="node"><title>Node26</title>
<polygon fill="white" stroke="#bfbfbf" points="66.5,-224.5 66.5,-243.5 107.5,-243.5 107.5,-224.5 66.5,-224.5"/>
<text text-anchor="middle" x="87" y="-231.5" font-family="Helvetica,sans-Serif" font-size="10.00">stack</text>
</g>
<!-- Node25&#45;&gt;Node26 -->
<g id="edge49" class="edge"><title>Node25&#45;&gt;Node26</title>
<path fill="none" stroke="midnightblue" d="M85.3303,-280.083C85.5924,-273.006 85.9681,-262.861 86.2968,-253.986"/>
<polygon fill="midnightblue" stroke="midnightblue" points="89.8033,-253.874 86.6759,-243.751 82.8081,-253.615 89.8033,-253.874"/>
</g>
<!-- Node27 -->
<g id="node27" class="node"><title>Node27</title>
<g id="a_node27"><a xlink:href="State_8h.html" target="_top" xlink:title="State.h">
<polygon fill="white" stroke="black" points="372,-224.5 372,-243.5 420,-243.5 420,-224.5 372,-224.5"/>
<text text-anchor="middle" x="396" y="-231.5" font-family="Helvetica,sans-Serif" font-size="10.00">State.h</text>
</a>
</g>
</g>
<!-- Node25&#45;&gt;Node27 -->
<g id="edge50" class="edge"><title>Node25&#45;&gt;Node27</title>
<path fill="none" stroke="midnightblue" d="M110.715,-284.535C166.569,-274.837 298.99,-251.844 361.803,-240.938"/>
<polygon fill="midnightblue" stroke="midnightblue" points="362.723,-244.33 371.977,-239.171 361.526,-237.434 362.723,-244.33"/>
</g>
<!-- Node27&#45;&gt;Node3 -->
<g id="edge59" class="edge"><title>Node27&#45;&gt;Node3</title>
<path fill="none" stroke="midnightblue" d="M420.02,-230.395C496.924,-222.056 738.2,-195.894 843.739,-184.45"/>
<polygon fill="midnightblue" stroke="midnightblue" points="844.255,-187.915 853.82,-183.357 843.5,-180.955 844.255,-187.915"/>
</g>
<!-- Node27&#45;&gt;Node5 -->
<g id="edge51" class="edge"><title>Node27&#45;&gt;Node5</title>
<path fill="none" stroke="midnightblue" d="M420.22,-232.075C519.95,-228.121 895.82,-211.757 943,-188 963.871,-177.491 980.438,-155.724 990.217,-140.279"/>
<polygon fill="midnightblue" stroke="midnightblue" points="993.259,-142.011 995.406,-131.636 987.258,-138.408 993.259,-142.011"/>
</g>
<!-- Node27&#45;&gt;Node6 -->
<g id="edge52" class="edge"><title>Node27&#45;&gt;Node6</title>
<path fill="none" stroke="midnightblue" d="M403.533,-224.368C419.516,-206.055 457.048,-163.049 477.72,-139.362"/>
<polygon fill="midnightblue" stroke="midnightblue" points="480.564,-141.427 484.502,-131.591 475.29,-136.824 480.564,-141.427"/>
</g>
<!-- Node27&#45;&gt;Node18 -->
<g id="edge53" class="edge"><title>Node27&#45;&gt;Node18</title>
<path fill="none" stroke="midnightblue" d="M375.049,-224.368C328.062,-205.01 214.111,-158.065 159.359,-135.507"/>
<polygon fill="midnightblue" stroke="midnightblue" points="160.433,-132.165 149.854,-131.591 157.767,-138.637 160.433,-132.165"/>
</g>
<!-- Node28 -->
<g id="node28" class="node"><title>Node28</title>
<g id="a_node28"><a xlink:href="Resources_8h.html" target="_top" xlink:title="Resources.h">
<polygon fill="white" stroke="black" points="354,-168.5 354,-187.5 426,-187.5 426,-168.5 354,-168.5"/>
<text text-anchor="middle" x="390" y="-175.5" font-family="Helvetica,sans-Serif" font-size="10.00">Resources.h</text>
</a>
</g>
</g>
<!-- Node27&#45;&gt;Node28 -->
<g id="edge54" class="edge"><title>Node27&#45;&gt;Node28</title>
<path fill="none" stroke="midnightblue" d="M395.009,-224.083C394.214,-216.927 393.071,-206.635 392.077,-197.691"/>
<polygon fill="midnightblue" stroke="midnightblue" points="395.555,-197.303 390.972,-187.751 388.598,-198.076 395.555,-197.303"/>
</g>
<!-- Node28&#45;&gt;Node4 -->
<g id="edge55" class="edge"><title>Node28&#45;&gt;Node4</title>
<path fill="none" stroke="midnightblue" d="M353.829,-177.424C279.448,-177.442 113.337,-172.799 78,-132 64.3478,-116.237 68.7686,-76.7554 90,-56 115.728,-30.8489 213.958,-19.16 275.287,-14.2112"/>
<polygon fill="midnightblue" stroke="midnightblue" points="275.839,-17.6791 285.54,-13.4187 275.3,-10.6999 275.839,-17.6791"/>
</g>
<!-- Node28&#45;&gt;Node6 -->
<g id="edge58" class="edge"><title>Node28&#45;&gt;Node6</title>
<path fill="none" stroke="midnightblue" d="M406.388,-168.324C422.671,-159.703 447.867,-146.364 466.716,-136.386"/>
<polygon fill="midnightblue" stroke="midnightblue" points="468.452,-139.427 475.653,-131.655 465.177,-133.24 468.452,-139.427"/>
</g>
<!-- Node28&#45;&gt;Node7 -->
<g id="edge56" class="edge"><title>Node28&#45;&gt;Node7</title>
<path fill="none" stroke="midnightblue" d="M426.257,-170.106C482.636,-159.386 590.322,-138.911 643.18,-128.86"/>
<polygon fill="midnightblue" stroke="midnightblue" points="644.12,-132.244 653.29,-126.938 642.812,-125.367 644.12,-132.244"/>
</g>
<!-- Node28&#45;&gt;Node19 -->
<g id="edge57" class="edge"><title>Node28&#45;&gt;Node19</title>
<path fill="none" stroke="midnightblue" d="M378.465,-168.368C353.455,-149.653 293.983,-105.151 262.822,-81.8324"/>
<polygon fill="midnightblue" stroke="midnightblue" points="264.585,-78.7804 254.481,-75.5914 260.391,-84.385 264.585,-78.7804"/>
</g>
<!-- Node29&#45;&gt;Node3 -->
<g id="edge64" class="edge"><title>Node29&#45;&gt;Node3</title>
<path fill="none" stroke="midnightblue" d="M752.682,-336.495C766.313,-328.196 786.741,-314.701 802,-300 836.058,-267.188 867.518,-221.018 883.326,-196.273"/>
<polygon fill="midnightblue" stroke="midnightblue" points="886.4,-197.96 888.764,-187.632 880.475,-194.232 886.4,-197.96"/>
</g>
<!-- Node29&#45;&gt;Node10 -->
<g id="edge66" class="edge"><title>Node29&#45;&gt;Node10</title>
<path fill="none" stroke="midnightblue" d="M746.214,-336.182C753.544,-327.663 763.755,-314.019 768,-300 785.229,-243.096 759.13,-172.93 744.622,-140.704"/>
<polygon fill="midnightblue" stroke="midnightblue" points="747.791,-139.218 740.389,-131.639 741.449,-142.181 747.791,-139.218"/>
</g>
<!-- Node29&#45;&gt;Node13 -->
<g id="edge68" class="edge"><title>Node29&#45;&gt;Node13</title>
<path fill="none" stroke="midnightblue" d="M766.347,-336.681C798.826,-327.149 852.067,-311.524 887.078,-301.249"/>
<polygon fill="midnightblue" stroke="midnightblue" points="888.265,-304.548 896.875,-298.374 886.294,-297.831 888.265,-304.548"/>
</g>
<!-- Node29&#45;&gt;Node14 -->
<g id="edge67" class="edge"><title>Node29&#45;&gt;Node14</title>
<path fill="none" stroke="midnightblue" d="M736.679,-336.083C735.619,-328.927 734.094,-318.635 732.769,-309.691"/>
<polygon fill="midnightblue" stroke="midnightblue" points="736.224,-309.13 731.296,-299.751 729.3,-310.156 736.224,-309.13"/>
</g>
<!-- Node29&#45;&gt;Node16 -->
<g id="edge65" class="edge"><title>Node29&#45;&gt;Node16</title>
<path fill="none" stroke="midnightblue" d="M725.541,-336.393C702.773,-320.232 653.776,-283.403 621,-244 608.876,-229.425 598.293,-210.502 591.396,-196.836"/>
<polygon fill="midnightblue" stroke="midnightblue" points="594.406,-195.022 586.876,-187.569 588.114,-198.091 594.406,-195.022"/>
</g>
<!-- Node29&#45;&gt;Node21 -->
<g id="edge70" class="edge"><title>Node29&#45;&gt;Node21</title>
<path fill="none" stroke="midnightblue" d="M766.224,-337.856C769.179,-337.191 772.145,-336.559 775,-336 865.3,-318.328 971.987,-303.932 1031.32,-296.495"/>
<polygon fill="midnightblue" stroke="midnightblue" points="1031.99,-299.938 1041.49,-295.231 1031.13,-292.992 1031.99,-299.938"/>
</g>
<!-- Node29&#45;&gt;Node22 -->
<g id="edge69" class="edge"><title>Node29&#45;&gt;Node22</title>
<path fill="none" stroke="midnightblue" d="M759.012,-336.434C780.659,-327.546 815.331,-313.133 845,-300 864.273,-291.469 868.145,-287.072 888,-280 937.069,-262.523 996.052,-248.945 1032.02,-241.46"/>
<polygon fill="midnightblue" stroke="midnightblue" points="1032.87,-244.858 1041.96,-239.423 1031.46,-238 1032.87,-244.858"/>
</g>
<!-- Node30&#45;&gt;Node5 -->
<g id="edge74" class="edge"><title>Node30&#45;&gt;Node5</title>
<path fill="none" stroke="midnightblue" d="M849.232,-399.387C966.381,-394.214 1252,-373.176 1252,-291 1252,-291 1252,-291 1252,-233 1252,-138.297 1100.66,-124.314 1032.55,-122.817"/>
<polygon fill="midnightblue" stroke="midnightblue" points="1032.41,-119.315 1022.36,-122.673 1032.31,-126.314 1032.41,-119.315"/>
</g>
<!-- Node30&#45;&gt;Node6 -->
<g id="edge72" class="edge"><title>Node30&#45;&gt;Node6</title>
<path fill="none" stroke="midnightblue" d="M750.856,-393.869C663.899,-379.859 492,-345.296 492,-291 492,-291 492,-291 492,-233 492,-200.948 492,-163.643 492,-141.749"/>
<polygon fill="midnightblue" stroke="midnightblue" points="495.5,-141.558 492,-131.558 488.5,-141.558 495.5,-141.558"/>
</g>
<!-- Node30&#45;&gt;Node7 -->
<g id="edge76" class="edge"><title>Node30&#45;&gt;Node7</title>
<path fill="none" stroke="midnightblue" d="M760.133,-392.35C739.42,-385.803 715.478,-374.637 701,-356 664.944,-309.585 698.457,-282.52 693,-224 690.287,-194.906 683.27,-161.702 678.565,-141.554"/>
<polygon fill="midnightblue" stroke="midnightblue" points="681.907,-140.479 676.172,-131.57 675.1,-142.111 681.907,-140.479"/>
</g>
<!-- Node30&#45;&gt;Node19 -->
<g id="edge77" class="edge"><title>Node30&#45;&gt;Node19</title>
<path fill="none" stroke="midnightblue" d="M750.907,-400.795C622.758,-398.943 288,-385.099 288,-291 288,-291 288,-291 288,-177 288,-141.93 268.163,-104.939 254.831,-84.037"/>
<polygon fill="midnightblue" stroke="midnightblue" points="257.7,-82.031 249.257,-75.6305 251.866,-85.8991 257.7,-82.031"/>
</g>
<!-- Node30&#45;&gt;Node21 -->
<g id="edge79" class="edge"><title>Node30&#45;&gt;Node21</title>
<path fill="none" stroke="midnightblue" d="M849.155,-397.586C912.694,-392.265 1018.78,-380.015 1049,-356 1063.26,-344.67 1070.39,-324.671 1073.87,-309.839"/>
<polygon fill="midnightblue" stroke="midnightblue" points="1077.36,-310.223 1075.88,-299.733 1070.5,-308.86 1077.36,-310.223"/>
</g>
<!-- Node30&#45;&gt;Node29 -->
<g id="edge80" class="edge"><title>Node30&#45;&gt;Node29</title>
<path fill="none" stroke="midnightblue" d="M790.039,-392.324C780.873,-384.341 767.063,-372.313 755.972,-362.653"/>
<polygon fill="midnightblue" stroke="midnightblue" points="757.982,-359.762 748.143,-355.834 753.385,-365.041 757.982,-359.762"/>
</g>
<!-- Node31 -->
<g id="node31" class="node"><title>Node31</title>
<polygon fill="white" stroke="#bfbfbf" points="838,-336.5 838,-355.5 876,-355.5 876,-336.5 838,-336.5"/>
<text text-anchor="middle" x="857" y="-343.5" font-family="Helvetica,sans-Serif" font-size="10.00">array</text>
</g>
<!-- Node30&#45;&gt;Node31 -->
<g id="edge73" class="edge"><title>Node30&#45;&gt;Node31</title>
<path fill="none" stroke="midnightblue" d="M809.158,-392.324C817.501,-384.42 830.032,-372.548 840.177,-362.938"/>
<polygon fill="midnightblue" stroke="midnightblue" points="842.823,-365.252 847.675,-355.834 838.009,-360.171 842.823,-365.252"/>
</g>
<!-- Node32 -->
<g id="node32" class="node"><title>Node32</title>
<polygon fill="white" stroke="#bfbfbf" points="894,-336.5 894,-355.5 934,-355.5 934,-336.5 894,-336.5"/>
<text text-anchor="middle" x="914" y="-343.5" font-family="Helvetica,sans-Serif" font-size="10.00">utility</text>
</g>
<!-- Node30&#45;&gt;Node32 -->
<g id="edge75" class="edge"><title>Node30&#45;&gt;Node32</title>
<path fill="none" stroke="midnightblue" d="M818.064,-392.444C836.575,-383.675 865.581,-369.935 886.855,-359.858"/>
<polygon fill="midnightblue" stroke="midnightblue" points="888.482,-362.96 896.021,-355.516 885.485,-356.634 888.482,-362.96"/>
</g>
<!-- Node33 -->
<g id="node33" class="node"><title>Node33</title>
<polygon fill="white" stroke="#bfbfbf" points="784.5,-336.5 784.5,-355.5 819.5,-355.5 819.5,-336.5 784.5,-336.5"/>
<text text-anchor="middle" x="802" y="-343.5" font-family="Helvetica,sans-Serif" font-size="10.00">map</text>
</g>
<!-- Node30&#45;&gt;Node33 -->
<g id="edge78" class="edge"><title>Node30&#45;&gt;Node33</title>
<path fill="none" stroke="midnightblue" d="M800.33,-392.083C800.592,-385.006 800.968,-374.861 801.297,-365.986"/>
<polygon fill="midnightblue" stroke="midnightblue" points="804.803,-365.874 801.676,-355.751 797.808,-365.615 804.803,-365.874"/>
</g>
</g>
</svg>
