<?xml version="1.0" encoding="UTF-8" standalone="no"?>
<!DOCTYPE svg PUBLIC "-//W3C//DTD SVG 1.1//EN"
 "http://www.w3.org/Graphics/SVG/1.1/DTD/svg11.dtd">
<!-- Generated by graphviz version 2.36.0 (20140111.2315)
 -->
<!-- Title: Game/include/WaveManager.h Pages: 1 -->
<svg width="619pt" height="252pt"
 viewBox="0.00 0.00 619.45 252.00" xmlns="http://www.w3.org/2000/svg" xmlns:xlink="http://www.w3.org/1999/xlink">
<g id="graph0" class="graph" transform="scale(1 1) rotate(0) translate(4 248)">
<title>Game/include/WaveManager.h</title>
<polygon fill="white" stroke="none" points="-4,4 -4,-248 615.446,-248 615.446,4 -4,4"/>
<!-- Node1 -->
<g id="node1" class="node"><title>Node1</title>
<polygon fill="#bfbfbf" stroke="black" points="97.9456,-224.5 97.9456,-243.5 248.946,-243.5 248.946,-224.5 97.9456,-224.5"/>
<text text-anchor="middle" x="173.446" y="-231.5" font-family="Helvetica,sans-Serif" font-size="10.00">Game/include/WaveManager.h</text>
</g>
<!-- Node2 -->
<g id="node2" class="node"><title>Node2</title>
<g id="a_node2"><a xlink:href="GameObject_8h.html" target="_top" xlink:title="GameObject.h">
<polygon fill="white" stroke="black" points="108.446,-112.5 108.446,-131.5 188.446,-131.5 188.446,-112.5 108.446,-112.5"/>
<text text-anchor="middle" x="148.446" y="-119.5" font-family="Helvetica,sans-Serif" font-size="10.00">GameObject.h</text>
</a>
</g>
</g>
<!-- Node1&#45;&gt;Node2 -->
<g id="edge1" class="edge"><title>Node1&#45;&gt;Node2</title>
<path fill="none" stroke="midnightblue" d="M171.484,-224.368C167.449,-206.617 158.143,-165.666 152.672,-141.597"/>
<polygon fill="midnightblue" stroke="midnightblue" points="156.027,-140.567 150.398,-131.591 149.202,-142.118 156.027,-140.567"/>
</g>
<!-- Node4 -->
<g id="node4" class="node"><title>Node4</title>
<polygon fill="white" stroke="#bfbfbf" points="61.4456,-0.5 61.4456,-19.5 113.446,-19.5 113.446,-0.5 61.4456,-0.5"/>
<text text-anchor="middle" x="87.4456" y="-7.5" font-family="Helvetica,sans-Serif" font-size="10.00">memory</text>
</g>
<!-- Node1&#45;&gt;Node4 -->
<g id="edge29" class="edge"><title>Node1&#45;&gt;Node4</title>
<path fill="none" stroke="midnightblue" d="M157.111,-224.352C120.937,-204.139 34.7235,-149.86 2.44563,-76 -8.93366,-49.9613 23.6332,-31.833 51.6916,-21.4584"/>
<polygon fill="midnightblue" stroke="midnightblue" points="53.046,-24.6933 61.3488,-18.1118 50.754,-18.0791 53.046,-24.6933"/>
</g>
<!-- Node9 -->
<g id="node9" class="node"><title>Node9</title>
<g id="a_node9"><a xlink:href="Component_8h.html" target="_top" xlink:title="Component.h">
<polygon fill="white" stroke="black" points="11.9456,-56.5 11.9456,-75.5 86.9456,-75.5 86.9456,-56.5 11.9456,-56.5"/>
<text text-anchor="middle" x="49.4456" y="-63.5" font-family="Helvetica,sans-Serif" font-size="10.00">Component.h</text>
</a>
</g>
</g>
<!-- Node1&#45;&gt;Node9 -->
<g id="edge22" class="edge"><title>Node1&#45;&gt;Node9</title>
<path fill="none" stroke="midnightblue" d="M166.779,-224.075C146.922,-197.493 87.9438,-118.538 61.9676,-83.7633"/>
<polygon fill="midnightblue" stroke="midnightblue" points="64.6345,-81.4851 55.8459,-75.5681 59.0264,-85.6743 64.6345,-81.4851"/>
</g>
<!-- Node10 -->
<g id="node10" class="node"><title>Node10</title>
<g id="a_node10"><a xlink:href="Timer_8h.html" target="_top" xlink:title="Timer.h">
<polygon fill="white" stroke="black" points="175.446,-168.5 175.446,-187.5 225.446,-187.5 225.446,-168.5 175.446,-168.5"/>
<text text-anchor="middle" x="200.446" y="-175.5" font-family="Helvetica,sans-Serif" font-size="10.00">Timer.h</text>
</a>
</g>
</g>
<!-- Node1&#45;&gt;Node10 -->
<g id="edge10" class="edge"><title>Node1&#45;&gt;Node10</title>
<path fill="none" stroke="midnightblue" d="M177.904,-224.083C181.6,-216.691 186.969,-205.953 191.54,-196.811"/>
<polygon fill="midnightblue" stroke="midnightblue" points="194.728,-198.261 196.07,-187.751 188.467,-195.13 194.728,-198.261"/>
</g>
<!-- Node11 -->
<g id="node11" class="node"><title>Node11</title>
<g id="a_node11"><a xlink:href="TileMap_8h.html" target="_top" xlink:title="TileMap.h">
<polygon fill="white" stroke="black" points="243.946,-168.5 243.946,-187.5 302.946,-187.5 302.946,-168.5 243.946,-168.5"/>
<text text-anchor="middle" x="273.446" y="-175.5" font-family="Helvetica,sans-Serif" font-size="10.00">TileMap.h</text>
</a>
</g>
</g>
<!-- Node1&#45;&gt;Node11 -->
<g id="edge11" class="edge"><title>Node1&#45;&gt;Node11</title>
<path fill="none" stroke="midnightblue" d="M189.512,-224.324C205.403,-215.743 229.953,-202.486 248.404,-192.522"/>
<polygon fill="midnightblue" stroke="midnightblue" points="250.283,-195.486 257.419,-187.655 246.957,-189.326 250.283,-195.486"/>
</g>
<!-- Node15 -->
<g id="node15" class="node"><title>Node15</title>
<g id="a_node15"><a xlink:href="WaveData_8h.html" target="_top" xlink:title="WaveData.h">
<polygon fill="white" stroke="black" points="489.946,-112.5 489.946,-131.5 560.946,-131.5 560.946,-112.5 489.946,-112.5"/>
<text text-anchor="middle" x="525.446" y="-119.5" font-family="Helvetica,sans-Serif" font-size="10.00">WaveData.h</text>
</a>
</g>
</g>
<!-- Node1&#45;&gt;Node15 -->
<g id="edge23" class="edge"><title>Node1&#45;&gt;Node15</title>
<path fill="none" stroke="midnightblue" d="M200.774,-224.46C263.281,-204.926 416.765,-156.963 488,-134.702"/>
<polygon fill="midnightblue" stroke="midnightblue" points="489.392,-137.934 497.892,-131.61 487.304,-131.253 489.392,-137.934"/>
</g>
<!-- Node3 -->
<g id="node3" class="node"><title>Node3</title>
<polygon fill="white" stroke="#bfbfbf" points="389.446,-56.5 389.446,-75.5 433.446,-75.5 433.446,-56.5 389.446,-56.5"/>
<text text-anchor="middle" x="411.446" y="-63.5" font-family="Helvetica,sans-Serif" font-size="10.00">vector</text>
</g>
<!-- Node2&#45;&gt;Node3 -->
<g id="edge2" class="edge"><title>Node2&#45;&gt;Node3</title>
<path fill="none" stroke="midnightblue" d="M188.676,-112.74C241.093,-101.977 331.687,-83.3763 379.602,-73.5383"/>
<polygon fill="midnightblue" stroke="midnightblue" points="380.336,-76.9606 389.428,-71.5208 378.928,-70.1037 380.336,-76.9606"/>
</g>
<!-- Node2&#45;&gt;Node4 -->
<g id="edge3" class="edge"><title>Node2&#45;&gt;Node4</title>
<path fill="none" stroke="midnightblue" d="M143.659,-112.368C133.681,-94.376 110.487,-52.5503 97.2204,-28.6267"/>
<polygon fill="midnightblue" stroke="midnightblue" points="100.121,-26.6393 92.21,-19.5914 93.9988,-30.0342 100.121,-26.6393"/>
</g>
<!-- Node5 -->
<g id="node5" class="node"><title>Node5</title>
<g id="a_node5"><a xlink:href="Rect_8h.html" target="_top" xlink:title="Rect.h">
<polygon fill="white" stroke="black" points="143.446,-56.5 143.446,-75.5 189.446,-75.5 189.446,-56.5 143.446,-56.5"/>
<text text-anchor="middle" x="166.446" y="-63.5" font-family="Helvetica,sans-Serif" font-size="10.00">Rect.h</text>
</a>
</g>
</g>
<!-- Node2&#45;&gt;Node5 -->
<g id="edge4" class="edge"><title>Node2&#45;&gt;Node5</title>
<path fill="none" stroke="midnightblue" d="M151.418,-112.083C153.829,-104.849 157.309,-94.4087 160.313,-85.3968"/>
<polygon fill="midnightblue" stroke="midnightblue" points="163.687,-86.3447 163.529,-75.7511 157.046,-84.1311 163.687,-86.3447"/>
</g>
<!-- Node8 -->
<g id="node8" class="node"><title>Node8</title>
<polygon fill="white" stroke="#bfbfbf" points="340.946,-0.5 340.946,-19.5 381.946,-19.5 381.946,-0.5 340.946,-0.5"/>
<text text-anchor="middle" x="361.446" y="-7.5" font-family="Helvetica,sans-Serif" font-size="10.00">string</text>
</g>
<!-- Node2&#45;&gt;Node8 -->
<g id="edge7" class="edge"><title>Node2&#45;&gt;Node8</title>
<path fill="none" stroke="midnightblue" d="M188.509,-115.846C221.647,-110.145 268.874,-98.5932 304.446,-76 323.777,-63.7221 340.313,-42.99 350.518,-28.2426"/>
<polygon fill="midnightblue" stroke="midnightblue" points="353.664,-29.8324 356.277,-19.5648 347.831,-25.962 353.664,-29.8324"/>
</g>
<!-- Node2&#45;&gt;Node9 -->
<g id="edge8" class="edge"><title>Node2&#45;&gt;Node9</title>
<path fill="none" stroke="midnightblue" d="M127.425,-112.324C110.157,-103.9 86.1555,-90.9709 69.239,-81.0741"/>
<polygon fill="midnightblue" stroke="midnightblue" points="70.5782,-77.7962 60.2021,-75.6545 66.9779,-83.7993 70.5782,-77.7962"/>
</g>
<!-- Node6 -->
<g id="node6" class="node"><title>Node6</title>
<g id="a_node6"><a xlink:href="Vec2_8h.html" target="_top" xlink:title="Vec2.h">
<polygon fill="white" stroke="black" points="193.946,-0.5 193.946,-19.5 240.946,-19.5 240.946,-0.5 193.946,-0.5"/>
<text text-anchor="middle" x="217.446" y="-7.5" font-family="Helvetica,sans-Serif" font-size="10.00">Vec2.h</text>
</a>
</g>
</g>
<!-- Node5&#45;&gt;Node6 -->
<g id="edge5" class="edge"><title>Node5&#45;&gt;Node6</title>
<path fill="none" stroke="midnightblue" d="M174.867,-56.083C182.294,-48.2195 193.297,-36.5688 202.258,-27.0813"/>
<polygon fill="midnightblue" stroke="midnightblue" points="204.859,-29.4244 209.181,-19.7511 199.77,-24.618 204.859,-29.4244"/>
</g>
<!-- Node7 -->
<g id="node7" class="node"><title>Node7</title>
<polygon fill="white" stroke="#bfbfbf" points="131.446,-0.5 131.446,-19.5 175.446,-19.5 175.446,-0.5 131.446,-0.5"/>
<text text-anchor="middle" x="153.446" y="-7.5" font-family="Helvetica,sans-Serif" font-size="10.00">cmath</text>
</g>
<!-- Node5&#45;&gt;Node7 -->
<g id="edge6" class="edge"><title>Node5&#45;&gt;Node7</title>
<path fill="none" stroke="midnightblue" d="M164.299,-56.083C162.576,-48.9272 160.099,-38.6353 157.945,-29.6911"/>
<polygon fill="midnightblue" stroke="midnightblue" points="161.296,-28.6541 155.552,-19.7511 154.49,-30.2925 161.296,-28.6541"/>
</g>
<!-- Node9&#45;&gt;Node2 -->
<g id="edge9" class="edge"><title>Node9&#45;&gt;Node2</title>
<path fill="none" stroke="midnightblue" d="M70.4224,-75.6545C87.6782,-84.0705 111.68,-96.9986 128.609,-106.901"/>
<polygon fill="midnightblue" stroke="midnightblue" points="127.278,-110.183 137.654,-112.324 130.878,-104.18 127.278,-110.183"/>
</g>
<!-- Node11&#45;&gt;Node2 -->
<g id="edge21" class="edge"><title>Node11&#45;&gt;Node2</title>
<path fill="none" stroke="midnightblue" d="M253.639,-168.444C233.159,-159.596 200.963,-145.687 177.581,-135.586"/>
<polygon fill="midnightblue" stroke="midnightblue" points="178.728,-132.269 168.16,-131.516 175.952,-138.695 178.728,-132.269"/>
</g>
<!-- Node11&#45;&gt;Node3 -->
<g id="edge13" class="edge"><title>Node11&#45;&gt;Node3</title>
<path fill="none" stroke="midnightblue" d="M284.274,-168.368C307.754,-149.653 363.584,-105.151 392.838,-81.8324"/>
<polygon fill="midnightblue" stroke="midnightblue" points="395.029,-84.5615 400.667,-75.5914 390.666,-79.0877 395.029,-84.5615"/>
</g>
<!-- Node11&#45;&gt;Node6 -->
<g id="edge20" class="edge"><title>Node11&#45;&gt;Node6</title>
<path fill="none" stroke="midnightblue" d="M264.166,-168.291C255.778,-159.848 243.799,-146.256 237.446,-132 222.33,-98.0865 218.527,-54.2303 217.639,-29.7133"/>
<polygon fill="midnightblue" stroke="midnightblue" points="221.136,-29.5516 217.403,-19.6364 214.138,-29.7157 221.136,-29.5516"/>
</g>
<!-- Node11&#45;&gt;Node8 -->
<g id="edge12" class="edge"><title>Node11&#45;&gt;Node8</title>
<path fill="none" stroke="midnightblue" d="M303.067,-169.335C343.111,-157.17 412.797,-129.181 441.446,-76 455.187,-50.4913 419.546,-31.2486 391.491,-20.5496"/>
<polygon fill="midnightblue" stroke="midnightblue" points="392.572,-17.2189 381.977,-17.1253 390.201,-23.8052 392.572,-17.2189"/>
</g>
<!-- Node12 -->
<g id="node12" class="node"><title>Node12</title>
<g id="a_node12"><a xlink:href="Tileset_8h.html" target="_top" xlink:title="Tileset.h">
<polygon fill="white" stroke="black" points="246.446,-112.5 246.446,-131.5 300.446,-131.5 300.446,-112.5 246.446,-112.5"/>
<text text-anchor="middle" x="273.446" y="-119.5" font-family="Helvetica,sans-Serif" font-size="10.00">Tileset.h</text>
</a>
</g>
</g>
<!-- Node11&#45;&gt;Node12 -->
<g id="edge14" class="edge"><title>Node11&#45;&gt;Node12</title>
<path fill="none" stroke="midnightblue" d="M273.446,-168.083C273.446,-161.006 273.446,-150.861 273.446,-141.986"/>
<polygon fill="midnightblue" stroke="midnightblue" points="276.946,-141.751 273.446,-131.751 269.946,-141.751 276.946,-141.751"/>
</g>
<!-- Node12&#45;&gt;Node8 -->
<g id="edge15" class="edge"><title>Node12&#45;&gt;Node8</title>
<path fill="none" stroke="midnightblue" d="M291.173,-112.394C305.448,-104.652 325.104,-92.0396 337.446,-76 347.981,-62.3087 354.248,-43.5233 357.721,-29.6677"/>
<polygon fill="midnightblue" stroke="midnightblue" points="361.16,-30.328 359.936,-19.8042 354.33,-28.7948 361.16,-30.328"/>
</g>
<!-- Node13 -->
<g id="node13" class="node"><title>Node13</title>
<g id="a_node13"><a xlink:href="Sprite_8h.html" target="_top" xlink:title="Sprite.h">
<polygon fill="white" stroke="black" points="245.446,-56.5 245.446,-75.5 295.446,-75.5 295.446,-56.5 245.446,-56.5"/>
<text text-anchor="middle" x="270.446" y="-63.5" font-family="Helvetica,sans-Serif" font-size="10.00">Sprite.h</text>
</a>
</g>
</g>
<!-- Node12&#45;&gt;Node13 -->
<g id="edge16" class="edge"><title>Node12&#45;&gt;Node13</title>
<path fill="none" stroke="midnightblue" d="M272.95,-112.083C272.557,-105.006 271.993,-94.8611 271.5,-85.9865"/>
<polygon fill="midnightblue" stroke="midnightblue" points="274.981,-85.5415 270.932,-75.7511 267.992,-85.9299 274.981,-85.5415"/>
</g>
<!-- Node13&#45;&gt;Node4 -->
<g id="edge19" class="edge"><title>Node13&#45;&gt;Node4</title>
<path fill="none" stroke="midnightblue" d="M245.384,-57.6048C213.799,-48.2845 159.298,-32.2022 123.308,-21.5824"/>
<polygon fill="midnightblue" stroke="midnightblue" points="124.264,-18.2154 113.683,-18.742 122.283,-24.9292 124.264,-18.2154"/>
</g>
<!-- Node13&#45;&gt;Node8 -->
<g id="edge18" class="edge"><title>Node13&#45;&gt;Node8</title>
<path fill="none" stroke="midnightblue" d="M285.066,-56.324C299.395,-47.8215 321.458,-34.7288 338.194,-24.7975"/>
<polygon fill="midnightblue" stroke="midnightblue" points="340.047,-27.7677 346.861,-19.6545 336.475,-21.7478 340.047,-27.7677"/>
</g>
<!-- Node14 -->
<g id="node14" class="node"><title>Node14</title>
<g id="a_node14"><a xlink:href="Color_8h.html" target="_top" xlink:title="Color.h">
<polygon fill="white" stroke="black" points="259.446,-0.5 259.446,-19.5 307.446,-19.5 307.446,-0.5 259.446,-0.5"/>
<text text-anchor="middle" x="283.446" y="-7.5" font-family="Helvetica,sans-Serif" font-size="10.00">Color.h</text>
</a>
</g>
</g>
<!-- Node13&#45;&gt;Node14 -->
<g id="edge17" class="edge"><title>Node13&#45;&gt;Node14</title>
<path fill="none" stroke="midnightblue" d="M272.592,-56.083C274.315,-48.9272 276.793,-38.6353 278.946,-29.6911"/>
<polygon fill="midnightblue" stroke="midnightblue" points="282.401,-30.2925 281.339,-19.7511 275.595,-28.6541 282.401,-30.2925"/>
</g>
<!-- Node15&#45;&gt;Node3 -->
<g id="edge25" class="edge"><title>Node15&#45;&gt;Node3</title>
<path fill="none" stroke="midnightblue" d="M507.382,-112.444C488.871,-103.675 459.865,-89.9355 438.59,-79.8579"/>
<polygon fill="midnightblue" stroke="midnightblue" points="439.96,-76.6343 429.425,-75.5164 436.964,-82.9604 439.96,-76.6343"/>
</g>
<!-- Node15&#45;&gt;Node8 -->
<g id="edge24" class="edge"><title>Node15&#45;&gt;Node8</title>
<path fill="none" stroke="midnightblue" d="M520.771,-112.207C513.046,-98.4443 496.371,-71.7603 475.446,-56 450.312,-37.0702 416.177,-24.9946 391.826,-18.1709"/>
<polygon fill="midnightblue" stroke="midnightblue" points="392.607,-14.7571 382.043,-15.5634 390.804,-21.521 392.607,-14.7571"/>
</g>
<!-- Node16 -->
<g id="node16" class="node"><title>Node16</title>
<g id="a_node16"><a xlink:href="Error_8h.html" target="_top" xlink:title="Error.h">
<polygon fill="white" stroke="black" points="527.446,-56.5 527.446,-75.5 573.446,-75.5 573.446,-56.5 527.446,-56.5"/>
<text text-anchor="middle" x="550.446" y="-63.5" font-family="Helvetica,sans-Serif" font-size="10.00">Error.h</text>
</a>
</g>
</g>
<!-- Node15&#45;&gt;Node16 -->
<g id="edge26" class="edge"><title>Node15&#45;&gt;Node16</title>
<path fill="none" stroke="midnightblue" d="M529.574,-112.083C532.96,-104.77 537.862,-94.1814 542.064,-85.1034"/>
<polygon fill="midnightblue" stroke="midnightblue" points="545.369,-86.2962 546.394,-75.7511 539.017,-83.3553 545.369,-86.2962"/>
</g>
<!-- Node17 -->
<g id="node17" class="node"><title>Node17</title>
<polygon fill="white" stroke="#bfbfbf" points="557.446,-0.5 557.446,-19.5 611.446,-19.5 611.446,-0.5 557.446,-0.5"/>
<text text-anchor="middle" x="584.446" y="-7.5" font-family="Helvetica,sans-Serif" font-size="10.00">iostream</text>
</g>
<!-- Node16&#45;&gt;Node17 -->
<g id="edge27" class="edge"><title>Node16&#45;&gt;Node17</title>
<path fill="none" stroke="midnightblue" d="M556.06,-56.083C560.813,-48.5341 567.764,-37.4948 573.597,-28.2298"/>
<polygon fill="midnightblue" stroke="midnightblue" points="576.569,-30.0783 578.936,-19.7511 570.646,-26.3486 576.569,-30.0783"/>
</g>
<!-- Node18 -->
<g id="node18" class="node"><title>Node18</title>
<polygon fill="white" stroke="#bfbfbf" points="491.446,-0.5 491.446,-19.5 539.446,-19.5 539.446,-0.5 491.446,-0.5"/>
<text text-anchor="middle" x="515.446" y="-7.5" font-family="Helvetica,sans-Serif" font-size="10.00">stdlib.h</text>
</g>
<!-- Node16&#45;&gt;Node18 -->
<g id="edge28" class="edge"><title>Node16&#45;&gt;Node18</title>
<path fill="none" stroke="midnightblue" d="M544.666,-56.083C539.773,-48.5341 532.618,-37.4948 526.613,-28.2298"/>
<polygon fill="midnightblue" stroke="midnightblue" points="529.494,-26.239 521.118,-19.7511 523.62,-30.0463 529.494,-26.239"/>
</g>
</g>
</svg>
